<svg xmlns="http://www.w3.org/2000/svg" xmlns:xlink="http://www.w3.org/1999/xlink" contentStyleType="text/css" data-diagram-type="CLASS" height="322px" preserveAspectRatio="none" style="width:6199px;height:322px;background:#FFFFFF;" version="1.1" viewBox="0 0 6199 322" width="6199px" zoomAndPan="magnify"><defs/><g><!--entity Feature_User--><g id="elem_Feature_User"><ellipse cx="3068.1685" cy="14" fill="#F1F1F1" rx="8" ry="8" style="stroke:#181818;stroke-width:0.5;"/><path d="M3068.1685,22 L3068.1685,49 M3055.1685,30 L3081.1685,30 M3068.1685,49 L3055.1685,64 M3068.1685,49 L3081.1685,64 " fill="transparent" style="stroke:#181818;stroke-width:0.5;"/><text fill="#000000" font-family="sans-serif" font-size="14" lengthAdjust="spacing" textLength="90.3369" x="3023" y="78.4951">Feature User</text></g><!--class comp_arc_sta__baselibs__json--><g id="elem_comp_arc_sta__baselibs__json"><rect fill="#F1F1F1" height="40" id="comp_arc_sta__baselibs__json" rx="2.5" ry="2.5" style="stroke:#181818;stroke-width:0.5;" width="242.1367" x="5950" y="275.5"/><ellipse cx="5965" cy="291.5" fill="#ADD1B2" rx="11" ry="11" style="stroke:#181818;stroke-width:1;"/><path d="M5967.9688,297.1406 Q5967.3906,297.4375 5966.75,297.5781 Q5966.1094,297.7344 5965.4063,297.7344 Q5962.9063,297.7344 5961.5781,296.0938 Q5960.2656,294.4375 5960.2656,291.3125 Q5960.2656,288.1875 5961.5781,286.5313 Q5962.9063,284.875 5965.4063,284.875 Q5966.1094,284.875 5966.75,285.0313 Q5967.4063,285.1875 5967.9688,285.4844 L5967.9688,288.2031 Q5967.3438,287.625 5966.75,287.3594 Q5966.1563,287.0781 5965.5313,287.0781 Q5964.1875,287.0781 5963.5,288.1563 Q5962.8125,289.2188 5962.8125,291.3125 Q5962.8125,293.4063 5963.5,294.4844 Q5964.1875,295.5469 5965.5313,295.5469 Q5966.1563,295.5469 5966.75,295.2813 Q5967.3438,295 5967.9688,294.4219 L5967.9688,297.1406 Z " fill="#000000"/><text fill="#000000" font-family="sans-serif" font-size="14" lengthAdjust="spacing" textLength="210.1367" x="5979" y="296.3467">comp_arc_sta__baselibs__json</text><line style="stroke:#181818;stroke-width:0.5;" x1="5951" x2="6191.1367" y1="307.5" y2="307.5"/></g><!--class logic_arc_int__baselibs__json--><g id="elem_logic_arc_int__baselibs__json"><rect fill="#F1F1F1" height="40" id="logic_arc_int__baselibs__json" rx="2.5" ry="2.5" style="stroke:#181818;stroke-width:0.5;" width="233.168" x="5950.5" y="158.5"/><ellipse cx="5965.5" cy="174.5" fill="#ADD1B2" rx="11" ry="11" style="stroke:#181818;stroke-width:1;"/><path d="M5968.4688,180.1406 Q5967.8906,180.4375 5967.25,180.5781 Q5966.6094,180.7344 5965.9063,180.7344 Q5963.4063,180.7344 5962.0781,179.0938 Q5960.7656,177.4375 5960.7656,174.3125 Q5960.7656,171.1875 5962.0781,169.5313 Q5963.4063,167.875 5965.9063,167.875 Q5966.6094,167.875 5967.25,168.0313 Q5967.9063,168.1875 5968.4688,168.4844 L5968.4688,171.2031 Q5967.8438,170.625 5967.25,170.3594 Q5966.6563,170.0781 5966.0313,170.0781 Q5964.6875,170.0781 5964,171.1563 Q5963.3125,172.2188 5963.3125,174.3125 Q5963.3125,176.4063 5964,177.4844 Q5964.6875,178.5469 5966.0313,178.5469 Q5966.6563,178.5469 5967.25,178.2813 Q5967.8438,178 5968.4688,177.4219 L5968.4688,180.1406 Z " fill="#000000"/><text fill="#000000" font-family="sans-serif" font-size="14" lengthAdjust="spacing" textLength="201.168" x="5979.5" y="179.3467">logic_arc_int__baselibs__json</text><line style="stroke:#181818;stroke-width:0.5;" x1="5951.5" x2="6182.668" y1="190.5" y2="190.5"/></g><!--class comp_arc_sta__baselibs__bit_manipulation--><g id="elem_comp_arc_sta__baselibs__bit_manipulation"><rect fill="#F1F1F1" height="40" id="comp_arc_sta__baselibs__bit_manipulation" rx="2.5" ry="2.5" style="stroke:#181818;stroke-width:0.5;" width="330.8057" x="4799.5" y="275.5"/><ellipse cx="4814.5" cy="291.5" fill="#ADD1B2" rx="11" ry="11" style="stroke:#181818;stroke-width:1;"/><path d="M4817.4688,297.1406 Q4816.8906,297.4375 4816.25,297.5781 Q4815.6094,297.7344 4814.9063,297.7344 Q4812.4063,297.7344 4811.0781,296.0938 Q4809.7656,294.4375 4809.7656,291.3125 Q4809.7656,288.1875 4811.0781,286.5313 Q4812.4063,284.875 4814.9063,284.875 Q4815.6094,284.875 4816.25,285.0313 Q4816.9063,285.1875 4817.4688,285.4844 L4817.4688,288.2031 Q4816.8438,287.625 4816.25,287.3594 Q4815.6563,287.0781 4815.0313,287.0781 Q4813.6875,287.0781 4813,288.1563 Q4812.3125,289.2188 4812.3125,291.3125 Q4812.3125,293.4063 4813,294.4844 Q4813.6875,295.5469 4815.0313,295.5469 Q4815.6563,295.5469 4816.25,295.2813 Q4816.8438,295 4817.4688,294.4219 L4817.4688,297.1406 Z " fill="#000000"/><text fill="#000000" font-family="sans-serif" font-size="14" lengthAdjust="spacing" textLength="298.8057" x="4828.5" y="296.3467">comp_arc_sta__baselibs__bit_manipulation</text><line style="stroke:#181818;stroke-width:0.5;" x1="4800.5" x2="5129.3057" y1="307.5" y2="307.5"/></g><!--class logic_arc_int__baselibs__bit_manipulation--><g id="elem_logic_arc_int__baselibs__bit_manipulation"><rect fill="#F1F1F1" height="40" id="logic_arc_int__baselibs__bit_manipulation" rx="2.5" ry="2.5" style="stroke:#181818;stroke-width:0.5;" width="321.8369" x="4627" y="158.5"/><ellipse cx="4642" cy="174.5" fill="#ADD1B2" rx="11" ry="11" style="stroke:#181818;stroke-width:1;"/><path d="M4644.9688,180.1406 Q4644.3906,180.4375 4643.75,180.5781 Q4643.1094,180.7344 4642.4063,180.7344 Q4639.9063,180.7344 4638.5781,179.0938 Q4637.2656,177.4375 4637.2656,174.3125 Q4637.2656,171.1875 4638.5781,169.5313 Q4639.9063,167.875 4642.4063,167.875 Q4643.1094,167.875 4643.75,168.0313 Q4644.4063,168.1875 4644.9688,168.4844 L4644.9688,171.2031 Q4644.3438,170.625 4643.75,170.3594 Q4643.1563,170.0781 4642.5313,170.0781 Q4641.1875,170.0781 4640.5,171.1563 Q4639.8125,172.2188 4639.8125,174.3125 Q4639.8125,176.4063 4640.5,177.4844 Q4641.1875,178.5469 4642.5313,178.5469 Q4643.1563,178.5469 4643.75,178.2813 Q4644.3438,178 4644.9688,177.4219 L4644.9688,180.1406 Z " fill="#000000"/><text fill="#000000" font-family="sans-serif" font-size="14" lengthAdjust="spacing" textLength="289.8369" x="4656" y="179.3467">logic_arc_int__baselibs__bit_manipulation</text><line style="stroke:#181818;stroke-width:0.5;" x1="4628" x2="4947.8369" y1="190.5" y2="190.5"/></g><!--class comp_arc_sta__baselibs__utils--><g id="elem_comp_arc_sta__baselibs__utils"><rect fill="#F1F1F1" height="40" id="comp_arc_sta__baselibs__utils" rx="2.5" ry="2.5" style="stroke:#181818;stroke-width:0.5;" width="242.9502" x="4115.5" y="275.5"/><ellipse cx="4130.5" cy="291.5" fill="#ADD1B2" rx="11" ry="11" style="stroke:#181818;stroke-width:1;"/><path d="M4133.4688,297.1406 Q4132.8906,297.4375 4132.25,297.5781 Q4131.6094,297.7344 4130.9063,297.7344 Q4128.4063,297.7344 4127.0781,296.0938 Q4125.7656,294.4375 4125.7656,291.3125 Q4125.7656,288.1875 4127.0781,286.5313 Q4128.4063,284.875 4130.9063,284.875 Q4131.6094,284.875 4132.25,285.0313 Q4132.9063,285.1875 4133.4688,285.4844 L4133.4688,288.2031 Q4132.8438,287.625 4132.25,287.3594 Q4131.6563,287.0781 4131.0313,287.0781 Q4129.6875,287.0781 4129,288.1563 Q4128.3125,289.2188 4128.3125,291.3125 Q4128.3125,293.4063 4129,294.4844 Q4129.6875,295.5469 4131.0313,295.5469 Q4131.6563,295.5469 4132.25,295.2813 Q4132.8438,295 4133.4688,294.4219 L4133.4688,297.1406 Z " fill="#000000"/><text fill="#000000" font-family="sans-serif" font-size="14" lengthAdjust="spacing" textLength="210.9502" x="4144.5" y="296.3467">comp_arc_sta__baselibs__utils</text><line style="stroke:#181818;stroke-width:0.5;" x1="4116.5" x2="4357.4502" y1="307.5" y2="307.5"/></g><!--class logic_arc_int__baselibs__utils_scoped_op--><g id="elem_logic_arc_int__baselibs__utils_scoped_op"><rect fill="#F1F1F1" height="40" id="logic_arc_int__baselibs__utils_scoped_op" rx="2.5" ry="2.5" style="stroke:#181818;stroke-width:0.5;" width="315.377" x="4276.5" y="158.5"/><ellipse cx="4291.5" cy="174.5" fill="#ADD1B2" rx="11" ry="11" style="stroke:#181818;stroke-width:1;"/><path d="M4294.4688,180.1406 Q4293.8906,180.4375 4293.25,180.5781 Q4292.6094,180.7344 4291.9063,180.7344 Q4289.4063,180.7344 4288.0781,179.0938 Q4286.7656,177.4375 4286.7656,174.3125 Q4286.7656,171.1875 4288.0781,169.5313 Q4289.4063,167.875 4291.9063,167.875 Q4292.6094,167.875 4293.25,168.0313 Q4293.9063,168.1875 4294.4688,168.4844 L4294.4688,171.2031 Q4293.8438,170.625 4293.25,170.3594 Q4292.6563,170.0781 4292.0313,170.0781 Q4290.6875,170.0781 4290,171.1563 Q4289.3125,172.2188 4289.3125,174.3125 Q4289.3125,176.4063 4290,177.4844 Q4290.6875,178.5469 4292.0313,178.5469 Q4292.6563,178.5469 4293.25,178.2813 Q4293.8438,178 4294.4688,177.4219 L4294.4688,180.1406 Z " fill="#000000"/><text fill="#000000" font-family="sans-serif" font-size="14" lengthAdjust="spacing" textLength="283.377" x="4305.5" y="179.3467">logic_arc_int__baselibs__utils_scoped_op</text><line style="stroke:#181818;stroke-width:0.5;" x1="4277.5" x2="4590.877" y1="190.5" y2="190.5"/></g><!--class logic_arc_int__baselibs__message_passing--><g id="elem_logic_arc_int__baselibs__message_passing"><rect fill="#F1F1F1" height="40" id="logic_arc_int__baselibs__message_passing" rx="2.5" ry="2.5" style="stroke:#181818;stroke-width:0.5;" width="328.167" x="3586" y="158.5"/><ellipse cx="3601" cy="174.5" fill="#ADD1B2" rx="11" ry="11" style="stroke:#181818;stroke-width:1;"/><path d="M3603.9688,180.1406 Q3603.3906,180.4375 3602.75,180.5781 Q3602.1094,180.7344 3601.4063,180.7344 Q3598.9063,180.7344 3597.5781,179.0938 Q3596.2656,177.4375 3596.2656,174.3125 Q3596.2656,171.1875 3597.5781,169.5313 Q3598.9063,167.875 3601.4063,167.875 Q3602.1094,167.875 3602.75,168.0313 Q3603.4063,168.1875 3603.9688,168.4844 L3603.9688,171.2031 Q3603.3438,170.625 3602.75,170.3594 Q3602.1563,170.0781 3601.5313,170.0781 Q3600.1875,170.0781 3599.5,171.1563 Q3598.8125,172.2188 3598.8125,174.3125 Q3598.8125,176.4063 3599.5,177.4844 Q3600.1875,178.5469 3601.5313,178.5469 Q3602.1563,178.5469 3602.75,178.2813 Q3603.3438,178 3603.9688,177.4219 L3603.9688,180.1406 Z " fill="#000000"/><text fill="#000000" font-family="sans-serif" font-size="14" lengthAdjust="spacing" textLength="296.167" x="3615" y="179.3467">logic_arc_int__baselibs__message_passing</text><line style="stroke:#181818;stroke-width:0.5;" x1="3587" x2="3913.167" y1="190.5" y2="190.5"/></g><!--class logic_arc_int__baselibs__result--><g id="elem_logic_arc_int__baselibs__result"><rect fill="#F1F1F1" height="40" id="logic_arc_int__baselibs__result" rx="2.5" ry="2.5" style="stroke:#181818;stroke-width:0.5;" width="244.4609" x="5666" y="158.5"/><ellipse cx="5681" cy="174.5" fill="#ADD1B2" rx="11" ry="11" style="stroke:#181818;stroke-width:1;"/><path d="M5683.9688,180.1406 Q5683.3906,180.4375 5682.75,180.5781 Q5682.1094,180.7344 5681.4063,180.7344 Q5678.9063,180.7344 5677.5781,179.0938 Q5676.2656,177.4375 5676.2656,174.3125 Q5676.2656,171.1875 5677.5781,169.5313 Q5678.9063,167.875 5681.4063,167.875 Q5682.1094,167.875 5682.75,168.0313 Q5683.4063,168.1875 5683.9688,168.4844 L5683.9688,171.2031 Q5683.3438,170.625 5682.75,170.3594 Q5682.1563,170.0781 5681.5313,170.0781 Q5680.1875,170.0781 5679.5,171.1563 Q5678.8125,172.2188 5678.8125,174.3125 Q5678.8125,176.4063 5679.5,177.4844 Q5680.1875,178.5469 5681.5313,178.5469 Q5682.1563,178.5469 5682.75,178.2813 Q5683.3438,178 5683.9688,177.4219 L5683.9688,180.1406 Z " fill="#000000"/><text fill="#000000" font-family="sans-serif" font-size="14" lengthAdjust="spacing" textLength="212.4609" x="5695" y="179.3467">logic_arc_int__baselibs__result</text><line style="stroke:#181818;stroke-width:0.5;" x1="5667" x2="5909.4609" y1="190.5" y2="190.5"/></g><!--class comp_arc_sta__baselibs__concurrency--><g id="elem_comp_arc_sta__baselibs__concurrency"><rect fill="#F1F1F1" height="40" id="comp_arc_sta__baselibs__concurrency" rx="2.5" ry="2.5" style="stroke:#181818;stroke-width:0.5;" width="300.2012" x="977" y="275.5"/><ellipse cx="992" cy="291.5" fill="#ADD1B2" rx="11" ry="11" style="stroke:#181818;stroke-width:1;"/><path d="M994.9688,297.1406 Q994.3906,297.4375 993.75,297.5781 Q993.1094,297.7344 992.4063,297.7344 Q989.9063,297.7344 988.5781,296.0938 Q987.2656,294.4375 987.2656,291.3125 Q987.2656,288.1875 988.5781,286.5313 Q989.9063,284.875 992.4063,284.875 Q993.1094,284.875 993.75,285.0313 Q994.4063,285.1875 994.9688,285.4844 L994.9688,288.2031 Q994.3438,287.625 993.75,287.3594 Q993.1563,287.0781 992.5313,287.0781 Q991.1875,287.0781 990.5,288.1563 Q989.8125,289.2188 989.8125,291.3125 Q989.8125,293.4063 990.5,294.4844 Q991.1875,295.5469 992.5313,295.5469 Q993.1563,295.5469 993.75,295.2813 Q994.3438,295 994.9688,294.4219 L994.9688,297.1406 Z " fill="#000000"/><text fill="#000000" font-family="sans-serif" font-size="14" lengthAdjust="spacing" textLength="268.2012" x="1006" y="296.3467">comp_arc_sta__baselibs__concurrency</text><line style="stroke:#181818;stroke-width:0.5;" x1="978" x2="1276.2012" y1="307.5" y2="307.5"/></g><!--class logic_arc_int__baselibs__synchronized_queue--><g id="elem_logic_arc_int__baselibs__synchronized_queue"><rect fill="#F1F1F1" height="40" id="logic_arc_int__baselibs__synchronized_queue" rx="2.5" ry="2.5" style="stroke:#181818;stroke-width:0.5;" width="348.3604" x="1197" y="158.5"/><ellipse cx="1212" cy="174.5" fill="#ADD1B2" rx="11" ry="11" style="stroke:#181818;stroke-width:1;"/><path d="M1214.9688,180.1406 Q1214.3906,180.4375 1213.75,180.5781 Q1213.1094,180.7344 1212.4063,180.7344 Q1209.9063,180.7344 1208.5781,179.0938 Q1207.2656,177.4375 1207.2656,174.3125 Q1207.2656,171.1875 1208.5781,169.5313 Q1209.9063,167.875 1212.4063,167.875 Q1213.1094,167.875 1213.75,168.0313 Q1214.4063,168.1875 1214.9688,168.4844 L1214.9688,171.2031 Q1214.3438,170.625 1213.75,170.3594 Q1213.1563,170.0781 1212.5313,170.0781 Q1211.1875,170.0781 1210.5,171.1563 Q1209.8125,172.2188 1209.8125,174.3125 Q1209.8125,176.4063 1210.5,177.4844 Q1211.1875,178.5469 1212.5313,178.5469 Q1213.1563,178.5469 1213.75,178.2813 Q1214.3438,178 1214.9688,177.4219 L1214.9688,180.1406 Z " fill="#000000"/><text fill="#000000" font-family="sans-serif" font-size="14" lengthAdjust="spacing" textLength="316.3604" x="1226" y="179.3467">logic_arc_int__baselibs__synchronized_queue</text><line style="stroke:#181818;stroke-width:0.5;" x1="1198" x2="1544.3604" y1="190.5" y2="190.5"/></g><!--class logic_arc_int__baselibs__memory_shared--><g id="elem_logic_arc_int__baselibs__memory_shared"><rect fill="#F1F1F1" height="40" id="logic_arc_int__baselibs__memory_shared" rx="2.5" ry="2.5" style="stroke:#181818;stroke-width:0.5;" width="318.043" x="2561" y="158.5"/><ellipse cx="2576" cy="174.5" fill="#ADD1B2" rx="11" ry="11" style="stroke:#181818;stroke-width:1;"/><path d="M2578.9688,180.1406 Q2578.3906,180.4375 2577.75,180.5781 Q2577.1094,180.7344 2576.4063,180.7344 Q2573.9063,180.7344 2572.5781,179.0938 Q2571.2656,177.4375 2571.2656,174.3125 Q2571.2656,171.1875 2572.5781,169.5313 Q2573.9063,167.875 2576.4063,167.875 Q2577.1094,167.875 2577.75,168.0313 Q2578.4063,168.1875 2578.9688,168.4844 L2578.9688,171.2031 Q2578.3438,170.625 2577.75,170.3594 Q2577.1563,170.0781 2576.5313,170.0781 Q2575.1875,170.0781 2574.5,171.1563 Q2573.8125,172.2188 2573.8125,174.3125 Q2573.8125,176.4063 2574.5,177.4844 Q2575.1875,178.5469 2576.5313,178.5469 Q2577.1563,178.5469 2577.75,178.2813 Q2578.3438,178 2578.9688,177.4219 L2578.9688,180.1406 Z " fill="#000000"/><text fill="#000000" font-family="sans-serif" font-size="14" lengthAdjust="spacing" textLength="286.043" x="2590" y="179.3467">logic_arc_int__baselibs__memory_shared</text><line style="stroke:#181818;stroke-width:0.5;" x1="2562" x2="2878.043" y1="190.5" y2="190.5"/></g><!--class comp_arc_sta__baselibs__containers--><g id="elem_comp_arc_sta__baselibs__containers"><rect fill="#F1F1F1" height="40" id="comp_arc_sta__baselibs__containers" rx="2.5" ry="2.5" style="stroke:#181818;stroke-width:0.5;" width="287.1445" x="3064.5" y="275.5"/><ellipse cx="3079.5" cy="291.5" fill="#ADD1B2" rx="11" ry="11" style="stroke:#181818;stroke-width:1;"/><path d="M3082.4688,297.1406 Q3081.8906,297.4375 3081.25,297.5781 Q3080.6094,297.7344 3079.9063,297.7344 Q3077.4063,297.7344 3076.0781,296.0938 Q3074.7656,294.4375 3074.7656,291.3125 Q3074.7656,288.1875 3076.0781,286.5313 Q3077.4063,284.875 3079.9063,284.875 Q3080.6094,284.875 3081.25,285.0313 Q3081.9063,285.1875 3082.4688,285.4844 L3082.4688,288.2031 Q3081.8438,287.625 3081.25,287.3594 Q3080.6563,287.0781 3080.0313,287.0781 Q3078.6875,287.0781 3078,288.1563 Q3077.3125,289.2188 3077.3125,291.3125 Q3077.3125,293.4063 3078,294.4844 Q3078.6875,295.5469 3080.0313,295.5469 Q3080.6563,295.5469 3081.25,295.2813 Q3081.8438,295 3082.4688,294.4219 L3082.4688,297.1406 Z " fill="#000000"/><text fill="#000000" font-family="sans-serif" font-size="14" lengthAdjust="spacing" textLength="255.1445" x="3093.5" y="296.3467">comp_arc_sta__baselibs__containers</text><line style="stroke:#181818;stroke-width:0.5;" x1="3065.5" x2="3350.6445" y1="307.5" y2="307.5"/></g><!--class logic_arc_int__baselibs__intrusive_list--><g id="elem_logic_arc_int__baselibs__intrusive_list"><rect fill="#F1F1F1" height="40" id="logic_arc_int__baselibs__intrusive_list" rx="2.5" ry="2.5" style="stroke:#181818;stroke-width:0.5;" width="293.0713" x="3257.5" y="158.5"/><ellipse cx="3272.5" cy="174.5" fill="#ADD1B2" rx="11" ry="11" style="stroke:#181818;stroke-width:1;"/><path d="M3275.4688,180.1406 Q3274.8906,180.4375 3274.25,180.5781 Q3273.6094,180.7344 3272.9063,180.7344 Q3270.4063,180.7344 3269.0781,179.0938 Q3267.7656,177.4375 3267.7656,174.3125 Q3267.7656,171.1875 3269.0781,169.5313 Q3270.4063,167.875 3272.9063,167.875 Q3273.6094,167.875 3274.25,168.0313 Q3274.9063,168.1875 3275.4688,168.4844 L3275.4688,171.2031 Q3274.8438,170.625 3274.25,170.3594 Q3273.6563,170.0781 3273.0313,170.0781 Q3271.6875,170.0781 3271,171.1563 Q3270.3125,172.2188 3270.3125,174.3125 Q3270.3125,176.4063 3271,177.4844 Q3271.6875,178.5469 3273.0313,178.5469 Q3273.6563,178.5469 3274.25,178.2813 Q3274.8438,178 3275.4688,177.4219 L3275.4688,180.1406 Z " fill="#000000"/><text fill="#000000" font-family="sans-serif" font-size="14" lengthAdjust="spacing" textLength="261.0713" x="3286.5" y="179.3467">logic_arc_int__baselibs__intrusive_list</text><line style="stroke:#181818;stroke-width:0.5;" x1="3258.5" x2="3549.5713" y1="190.5" y2="190.5"/></g><!--class logic_arc_int__baselibs__future--><g id="elem_logic_arc_int__baselibs__future"><rect fill="#F1F1F1" height="40" id="logic_arc_int__baselibs__future" rx="2.5" ry="2.5" style="stroke:#181818;stroke-width:0.5;" width="247.0791" x="645.5" y="158.5"/><ellipse cx="660.5" cy="174.5" fill="#ADD1B2" rx="11" ry="11" style="stroke:#181818;stroke-width:1;"/><path d="M663.4688,180.1406 Q662.8906,180.4375 662.25,180.5781 Q661.6094,180.7344 660.9063,180.7344 Q658.4063,180.7344 657.0781,179.0938 Q655.7656,177.4375 655.7656,174.3125 Q655.7656,171.1875 657.0781,169.5313 Q658.4063,167.875 660.9063,167.875 Q661.6094,167.875 662.25,168.0313 Q662.9063,168.1875 663.4688,168.4844 L663.4688,171.2031 Q662.8438,170.625 662.25,170.3594 Q661.6563,170.0781 661.0313,170.0781 Q659.6875,170.0781 659,171.1563 Q658.3125,172.2188 658.3125,174.3125 Q658.3125,176.4063 659,177.4844 Q659.6875,178.5469 661.0313,178.5469 Q661.6563,178.5469 662.25,178.2813 Q662.8438,178 663.4688,177.4219 L663.4688,180.1406 Z " fill="#000000"/><text fill="#000000" font-family="sans-serif" font-size="14" lengthAdjust="spacing" textLength="215.0791" x="674.5" y="179.3467">logic_arc_int__baselibs__future</text><line style="stroke:#181818;stroke-width:0.5;" x1="646.5" x2="891.5791" y1="190.5" y2="190.5"/></g><!--class logic_arc_int__baselibs__filesystem--><g id="elem_logic_arc_int__baselibs__filesystem"><rect fill="#F1F1F1" height="40" id="logic_arc_int__baselibs__filesystem" rx="2.5" ry="2.5" style="stroke:#181818;stroke-width:0.5;" width="276.4805" x="5355" y="158.5"/><ellipse cx="5370" cy="174.5" fill="#ADD1B2" rx="11" ry="11" style="stroke:#181818;stroke-width:1;"/><path d="M5372.9688,180.1406 Q5372.3906,180.4375 5371.75,180.5781 Q5371.1094,180.7344 5370.4063,180.7344 Q5367.9063,180.7344 5366.5781,179.0938 Q5365.2656,177.4375 5365.2656,174.3125 Q5365.2656,171.1875 5366.5781,169.5313 Q5367.9063,167.875 5370.4063,167.875 Q5371.1094,167.875 5371.75,168.0313 Q5372.4063,168.1875 5372.9688,168.4844 L5372.9688,171.2031 Q5372.3438,170.625 5371.75,170.3594 Q5371.1563,170.0781 5370.5313,170.0781 Q5369.1875,170.0781 5368.5,171.1563 Q5367.8125,172.2188 5367.8125,174.3125 Q5367.8125,176.4063 5368.5,177.4844 Q5369.1875,178.5469 5370.5313,178.5469 Q5371.1563,178.5469 5371.75,178.2813 Q5372.3438,178 5372.9688,177.4219 L5372.9688,180.1406 Z " fill="#000000"/><text fill="#000000" font-family="sans-serif" font-size="14" lengthAdjust="spacing" textLength="244.4805" x="5384" y="179.3467">logic_arc_int__baselibs__filesystem</text><line style="stroke:#181818;stroke-width:0.5;" x1="5356" x2="5630.4805" y1="190.5" y2="190.5"/></g><!--class logic_arc_int__baselibs__condition_variable--><g id="elem_logic_arc_int__baselibs__condition_variable"><rect fill="#F1F1F1" height="40" id="logic_arc_int__baselibs__condition_variable" rx="2.5" ry="2.5" style="stroke:#181818;stroke-width:0.5;" width="332.7539" x="1876.5" y="158.5"/><ellipse cx="1891.5" cy="174.5" fill="#ADD1B2" rx="11" ry="11" style="stroke:#181818;stroke-width:1;"/><path d="M1894.4688,180.1406 Q1893.8906,180.4375 1893.25,180.5781 Q1892.6094,180.7344 1891.9063,180.7344 Q1889.4063,180.7344 1888.0781,179.0938 Q1886.7656,177.4375 1886.7656,174.3125 Q1886.7656,171.1875 1888.0781,169.5313 Q1889.4063,167.875 1891.9063,167.875 Q1892.6094,167.875 1893.25,168.0313 Q1893.9063,168.1875 1894.4688,168.4844 L1894.4688,171.2031 Q1893.8438,170.625 1893.25,170.3594 Q1892.6563,170.0781 1892.0313,170.0781 Q1890.6875,170.0781 1890,171.1563 Q1889.3125,172.2188 1889.3125,174.3125 Q1889.3125,176.4063 1890,177.4844 Q1890.6875,178.5469 1892.0313,178.5469 Q1892.6563,178.5469 1893.25,178.2813 Q1893.8438,178 1894.4688,177.4219 L1894.4688,180.1406 Z " fill="#000000"/><text fill="#000000" font-family="sans-serif" font-size="14" lengthAdjust="spacing" textLength="300.7539" x="1905.5" y="179.3467">logic_arc_int__baselibs__condition_variable</text><line style="stroke:#181818;stroke-width:0.5;" x1="1877.5" x2="2208.2539" y1="190.5" y2="190.5"/></g><!--class comp_arc_sta__baselibs__result--><g id="elem_comp_arc_sta__baselibs__result"><rect fill="#F1F1F1" height="40" id="comp_arc_sta__baselibs__result" rx="2.5" ry="2.5" style="stroke:#181818;stroke-width:0.5;" width="253.4297" x="5661.5" y="275.5"/><ellipse cx="5676.5" cy="291.5" fill="#ADD1B2" rx="11" ry="11" style="stroke:#181818;stroke-width:1;"/><path d="M5679.4688,297.1406 Q5678.8906,297.4375 5678.25,297.5781 Q5677.6094,297.7344 5676.9063,297.7344 Q5674.4063,297.7344 5673.0781,296.0938 Q5671.7656,294.4375 5671.7656,291.3125 Q5671.7656,288.1875 5673.0781,286.5313 Q5674.4063,284.875 5676.9063,284.875 Q5677.6094,284.875 5678.25,285.0313 Q5678.9063,285.1875 5679.4688,285.4844 L5679.4688,288.2031 Q5678.8438,287.625 5678.25,287.3594 Q5677.6563,287.0781 5677.0313,287.0781 Q5675.6875,287.0781 5675,288.1563 Q5674.3125,289.2188 5674.3125,291.3125 Q5674.3125,293.4063 5675,294.4844 Q5675.6875,295.5469 5677.0313,295.5469 Q5677.6563,295.5469 5678.25,295.2813 Q5678.8438,295 5679.4688,294.4219 L5679.4688,297.1406 Z " fill="#000000"/><text fill="#000000" font-family="sans-serif" font-size="14" lengthAdjust="spacing" textLength="221.4297" x="5690.5" y="296.3467">comp_arc_sta__baselibs__result</text><line style="stroke:#181818;stroke-width:0.5;" x1="5662.5" x2="5913.9297" y1="307.5" y2="307.5"/></g><!--class comp_arc_sta__baselibs__filesystem--><g id="elem_comp_arc_sta__baselibs__filesystem"><rect fill="#F1F1F1" height="40" id="comp_arc_sta__baselibs__filesystem" rx="2.5" ry="2.5" style="stroke:#181818;stroke-width:0.5;" width="285.4492" x="5341.5" y="275.5"/><ellipse cx="5356.5" cy="291.5" fill="#ADD1B2" rx="11" ry="11" style="stroke:#181818;stroke-width:1;"/><path d="M5359.4688,297.1406 Q5358.8906,297.4375 5358.25,297.5781 Q5357.6094,297.7344 5356.9063,297.7344 Q5354.4063,297.7344 5353.0781,296.0938 Q5351.7656,294.4375 5351.7656,291.3125 Q5351.7656,288.1875 5353.0781,286.5313 Q5354.4063,284.875 5356.9063,284.875 Q5357.6094,284.875 5358.25,285.0313 Q5358.9063,285.1875 5359.4688,285.4844 L5359.4688,288.2031 Q5358.8438,287.625 5358.25,287.3594 Q5357.6563,287.0781 5357.0313,287.0781 Q5355.6875,287.0781 5355,288.1563 Q5354.3125,289.2188 5354.3125,291.3125 Q5354.3125,293.4063 5355,294.4844 Q5355.6875,295.5469 5357.0313,295.5469 Q5357.6563,295.5469 5358.25,295.2813 Q5358.8438,295 5359.4688,294.4219 L5359.4688,297.1406 Z " fill="#000000"/><text fill="#000000" font-family="sans-serif" font-size="14" lengthAdjust="spacing" textLength="253.4492" x="5370.5" y="296.3467">comp_arc_sta__baselibs__filesystem</text><line style="stroke:#181818;stroke-width:0.5;" x1="5342.5" x2="5625.9492" y1="307.5" y2="307.5"/></g><!--class logic_arc_int__baselibs__shared_future--><g id="elem_logic_arc_int__baselibs__shared_future"><rect fill="#F1F1F1" height="40" id="logic_arc_int__baselibs__shared_future" rx="2.5" ry="2.5" style="stroke:#181818;stroke-width:0.5;" width="302.0811" x="7" y="158.5"/><ellipse cx="22" cy="174.5" fill="#ADD1B2" rx="11" ry="11" style="stroke:#181818;stroke-width:1;"/><path d="M24.9688,180.1406 Q24.3906,180.4375 23.75,180.5781 Q23.1094,180.7344 22.4063,180.7344 Q19.9063,180.7344 18.5781,179.0938 Q17.2656,177.4375 17.2656,174.3125 Q17.2656,171.1875 18.5781,169.5313 Q19.9063,167.875 22.4063,167.875 Q23.1094,167.875 23.75,168.0313 Q24.4063,168.1875 24.9688,168.4844 L24.9688,171.2031 Q24.3438,170.625 23.75,170.3594 Q23.1563,170.0781 22.5313,170.0781 Q21.1875,170.0781 20.5,171.1563 Q19.8125,172.2188 19.8125,174.3125 Q19.8125,176.4063 20.5,177.4844 Q21.1875,178.5469 22.5313,178.5469 Q23.1563,178.5469 23.75,178.2813 Q24.3438,178 24.9688,177.4219 L24.9688,180.1406 Z " fill="#000000"/><text fill="#000000" font-family="sans-serif" font-size="14" lengthAdjust="spacing" textLength="270.0811" x="36" y="179.3467">logic_arc_int__baselibs__shared_future</text><line style="stroke:#181818;stroke-width:0.5;" x1="8" x2="308.0811" y1="190.5" y2="190.5"/></g><!--class logic_arc_int__baselibs__utils_base64--><g id="elem_logic_arc_int__baselibs__utils_base64"><rect fill="#F1F1F1" height="40" id="logic_arc_int__baselibs__utils_base64" rx="2.5" ry="2.5" style="stroke:#181818;stroke-width:0.5;" width="292.1689" x="3949" y="158.5"/><ellipse cx="3964" cy="174.5" fill="#ADD1B2" rx="11" ry="11" style="stroke:#181818;stroke-width:1;"/><path d="M3966.9688,180.1406 Q3966.3906,180.4375 3965.75,180.5781 Q3965.1094,180.7344 3964.4063,180.7344 Q3961.9063,180.7344 3960.5781,179.0938 Q3959.2656,177.4375 3959.2656,174.3125 Q3959.2656,171.1875 3960.5781,169.5313 Q3961.9063,167.875 3964.4063,167.875 Q3965.1094,167.875 3965.75,168.0313 Q3966.4063,168.1875 3966.9688,168.4844 L3966.9688,171.2031 Q3966.3438,170.625 3965.75,170.3594 Q3965.1563,170.0781 3964.5313,170.0781 Q3963.1875,170.0781 3962.5,171.1563 Q3961.8125,172.2188 3961.8125,174.3125 Q3961.8125,176.4063 3962.5,177.4844 Q3963.1875,178.5469 3964.5313,178.5469 Q3965.1563,178.5469 3965.75,178.2813 Q3966.3438,178 3966.9688,177.4219 L3966.9688,180.1406 Z " fill="#000000"/><text fill="#000000" font-family="sans-serif" font-size="14" lengthAdjust="spacing" textLength="260.1689" x="3978" y="179.3467">logic_arc_int__baselibs__utils_base64</text><line style="stroke:#181818;stroke-width:0.5;" x1="3950" x2="4240.1689" y1="190.5" y2="190.5"/></g><!--class comp_arc_sta__baselibs__message_passing--><g id="elem_comp_arc_sta__baselibs__message_passing"><rect fill="#F1F1F1" height="40" id="comp_arc_sta__baselibs__message_passing" rx="2.5" ry="2.5" style="stroke:#181818;stroke-width:0.5;" width="337.1357" x="3581.5" y="275.5"/><ellipse cx="3596.5" cy="291.5" fill="#ADD1B2" rx="11" ry="11" style="stroke:#181818;stroke-width:1;"/><path d="M3599.4688,297.1406 Q3598.8906,297.4375 3598.25,297.5781 Q3597.6094,297.7344 3596.9063,297.7344 Q3594.4063,297.7344 3593.0781,296.0938 Q3591.7656,294.4375 3591.7656,291.3125 Q3591.7656,288.1875 3593.0781,286.5313 Q3594.4063,284.875 3596.9063,284.875 Q3597.6094,284.875 3598.25,285.0313 Q3598.9063,285.1875 3599.4688,285.4844 L3599.4688,288.2031 Q3598.8438,287.625 3598.25,287.3594 Q3597.6563,287.0781 3597.0313,287.0781 Q3595.6875,287.0781 3595,288.1563 Q3594.3125,289.2188 3594.3125,291.3125 Q3594.3125,293.4063 3595,294.4844 Q3595.6875,295.5469 3597.0313,295.5469 Q3597.6563,295.5469 3598.25,295.2813 Q3598.8438,295 3599.4688,294.4219 L3599.4688,297.1406 Z " fill="#000000"/><text fill="#000000" font-family="sans-serif" font-size="14" lengthAdjust="spacing" textLength="305.1357" x="3610.5" y="296.3467">comp_arc_sta__baselibs__message_passing</text><line style="stroke:#181818;stroke-width:0.5;" x1="3582.5" x2="3917.6357" y1="307.5" y2="307.5"/></g><!--class logic_arc_int__baselibs__task_result--><g id="elem_logic_arc_int__baselibs__task_result"><rect fill="#F1F1F1" height="40" id="logic_arc_int__baselibs__task_result" rx="2.5" ry="2.5" style="stroke:#181818;stroke-width:0.5;" width="280.9307" x="2244.5" y="158.5"/><ellipse cx="2259.5" cy="174.5" fill="#ADD1B2" rx="11" ry="11" style="stroke:#181818;stroke-width:1;"/><path d="M2262.4688,180.1406 Q2261.8906,180.4375 2261.25,180.5781 Q2260.6094,180.7344 2259.9063,180.7344 Q2257.4063,180.7344 2256.0781,179.0938 Q2254.7656,177.4375 2254.7656,174.3125 Q2254.7656,171.1875 2256.0781,169.5313 Q2257.4063,167.875 2259.9063,167.875 Q2260.6094,167.875 2261.25,168.0313 Q2261.9063,168.1875 2262.4688,168.4844 L2262.4688,171.2031 Q2261.8438,170.625 2261.25,170.3594 Q2260.6563,170.0781 2260.0313,170.0781 Q2258.6875,170.0781 2258,171.1563 Q2257.3125,172.2188 2257.3125,174.3125 Q2257.3125,176.4063 2258,177.4844 Q2258.6875,178.5469 2260.0313,178.5469 Q2260.6563,178.5469 2261.25,178.2813 Q2261.8438,178 2262.4688,177.4219 L2262.4688,180.1406 Z " fill="#000000"/><text fill="#000000" font-family="sans-serif" font-size="14" lengthAdjust="spacing" textLength="248.9307" x="2273.5" y="179.3467">logic_arc_int__baselibs__task_result</text><line style="stroke:#181818;stroke-width:0.5;" x1="2245.5" x2="2524.4307" y1="190.5" y2="190.5"/></g><!--class logic_arc_int__baselibs__bit_mask_operator--><g id="elem_logic_arc_int__baselibs__bit_mask_operator"><rect fill="#F1F1F1" height="40" id="logic_arc_int__baselibs__bit_mask_operator" rx="2.5" ry="2.5" style="stroke:#181818;stroke-width:0.5;" width="334.6406" x="4984.5" y="158.5"/><ellipse cx="4999.5" cy="174.5" fill="#ADD1B2" rx="11" ry="11" style="stroke:#181818;stroke-width:1;"/><path d="M5002.4688,180.1406 Q5001.8906,180.4375 5001.25,180.5781 Q5000.6094,180.7344 4999.9063,180.7344 Q4997.4063,180.7344 4996.0781,179.0938 Q4994.7656,177.4375 4994.7656,174.3125 Q4994.7656,171.1875 4996.0781,169.5313 Q4997.4063,167.875 4999.9063,167.875 Q5000.6094,167.875 5001.25,168.0313 Q5001.9063,168.1875 5002.4688,168.4844 L5002.4688,171.2031 Q5001.8438,170.625 5001.25,170.3594 Q5000.6563,170.0781 5000.0313,170.0781 Q4998.6875,170.0781 4998,171.1563 Q4997.3125,172.2188 4997.3125,174.3125 Q4997.3125,176.4063 4998,177.4844 Q4998.6875,178.5469 5000.0313,178.5469 Q5000.6563,178.5469 5001.25,178.2813 Q5001.8438,178 5002.4688,177.4219 L5002.4688,180.1406 Z " fill="#000000"/><text fill="#000000" font-family="sans-serif" font-size="14" lengthAdjust="spacing" textLength="302.6406" x="5013.5" y="179.3467">logic_arc_int__baselibs__bit_mask_operator</text><line style="stroke:#181818;stroke-width:0.5;" x1="4985.5" x2="5318.1406" y1="190.5" y2="190.5"/></g><!--class comp_arc_sta__baselibs__memory_shared--><g id="elem_comp_arc_sta__baselibs__memory_shared"><rect fill="#F1F1F1" height="40" id="comp_arc_sta__baselibs__memory_shared" rx="2.5" ry="2.5" style="stroke:#181818;stroke-width:0.5;" width="327.0117" x="2556.5" y="275.5"/><ellipse cx="2571.5" cy="291.5" fill="#ADD1B2" rx="11" ry="11" style="stroke:#181818;stroke-width:1;"/><path d="M2574.4688,297.1406 Q2573.8906,297.4375 2573.25,297.5781 Q2572.6094,297.7344 2571.9063,297.7344 Q2569.4063,297.7344 2568.0781,296.0938 Q2566.7656,294.4375 2566.7656,291.3125 Q2566.7656,288.1875 2568.0781,286.5313 Q2569.4063,284.875 2571.9063,284.875 Q2572.6094,284.875 2573.25,285.0313 Q2573.9063,285.1875 2574.4688,285.4844 L2574.4688,288.2031 Q2573.8438,287.625 2573.25,287.3594 Q2572.6563,287.0781 2572.0313,287.0781 Q2570.6875,287.0781 2570,288.1563 Q2569.3125,289.2188 2569.3125,291.3125 Q2569.3125,293.4063 2570,294.4844 Q2570.6875,295.5469 2572.0313,295.5469 Q2572.6563,295.5469 2573.25,295.2813 Q2573.8438,295 2574.4688,294.4219 L2574.4688,297.1406 Z " fill="#000000"/><text fill="#000000" font-family="sans-serif" font-size="14" lengthAdjust="spacing" textLength="295.0117" x="2585.5" y="296.3467">comp_arc_sta__baselibs__memory_shared</text><line style="stroke:#181818;stroke-width:0.5;" x1="2557.5" x2="2882.5117" y1="307.5" y2="307.5"/></g><!--class logic_arc_int__baselibs__task--><g id="elem_logic_arc_int__baselibs__task"><rect fill="#F1F1F1" height="40" id="logic_arc_int__baselibs__task" rx="2.5" ry="2.5" style="stroke:#181818;stroke-width:0.5;" width="234.0156" x="928" y="158.5"/><ellipse cx="943" cy="174.5" fill="#ADD1B2" rx="11" ry="11" style="stroke:#181818;stroke-width:1;"/><path d="M945.9688,180.1406 Q945.3906,180.4375 944.75,180.5781 Q944.1094,180.7344 943.4063,180.7344 Q940.9063,180.7344 939.5781,179.0938 Q938.2656,177.4375 938.2656,174.3125 Q938.2656,171.1875 939.5781,169.5313 Q940.9063,167.875 943.4063,167.875 Q944.1094,167.875 944.75,168.0313 Q945.4063,168.1875 945.9688,168.4844 L945.9688,171.2031 Q945.3438,170.625 944.75,170.3594 Q944.1563,170.0781 943.5313,170.0781 Q942.1875,170.0781 941.5,171.1563 Q940.8125,172.2188 940.8125,174.3125 Q940.8125,176.4063 941.5,177.4844 Q942.1875,178.5469 943.5313,178.5469 Q944.1563,178.5469 944.75,178.2813 Q945.3438,178 945.9688,177.4219 L945.9688,180.1406 Z " fill="#000000"/><text fill="#000000" font-family="sans-serif" font-size="14" lengthAdjust="spacing" textLength="202.0156" x="957" y="179.3467">logic_arc_int__baselibs__task</text><line style="stroke:#181818;stroke-width:0.5;" x1="929" x2="1161.0156" y1="190.5" y2="190.5"/></g><!--class logic_arc_int__baselibs__promise--><g id="elem_logic_arc_int__baselibs__promise"><rect fill="#F1F1F1" height="40" id="logic_arc_int__baselibs__promise" rx="2.5" ry="2.5" style="stroke:#181818;stroke-width:0.5;" width="261.1885" x="1580.5" y="158.5"/><ellipse cx="1595.5" cy="174.5" fill="#ADD1B2" rx="11" ry="11" style="stroke:#181818;stroke-width:1;"/><path d="M1598.4688,180.1406 Q1597.8906,180.4375 1597.25,180.5781 Q1596.6094,180.7344 1595.9063,180.7344 Q1593.4063,180.7344 1592.0781,179.0938 Q1590.7656,177.4375 1590.7656,174.3125 Q1590.7656,171.1875 1592.0781,169.5313 Q1593.4063,167.875 1595.9063,167.875 Q1596.6094,167.875 1597.25,168.0313 Q1597.9063,168.1875 1598.4688,168.4844 L1598.4688,171.2031 Q1597.8438,170.625 1597.25,170.3594 Q1596.6563,170.0781 1596.0313,170.0781 Q1594.6875,170.0781 1594,171.1563 Q1593.3125,172.2188 1593.3125,174.3125 Q1593.3125,176.4063 1594,177.4844 Q1594.6875,178.5469 1596.0313,178.5469 Q1596.6563,178.5469 1597.25,178.2813 Q1597.8438,178 1598.4688,177.4219 L1598.4688,180.1406 Z " fill="#000000"/><text fill="#000000" font-family="sans-serif" font-size="14" lengthAdjust="spacing" textLength="229.1885" x="1609.5" y="179.3467">logic_arc_int__baselibs__promise</text><line style="stroke:#181818;stroke-width:0.5;" x1="1581.5" x2="1840.6885" y1="190.5" y2="190.5"/></g><!--class logic_arc_int__baselibs__dynamic_array--><g id="elem_logic_arc_int__baselibs__dynamic_array"><rect fill="#F1F1F1" height="40" id="logic_arc_int__baselibs__dynamic_array" rx="2.5" ry="2.5" style="stroke:#181818;stroke-width:0.5;" width="308.3496" x="2914" y="158.5"/><ellipse cx="2929" cy="174.5" fill="#ADD1B2" rx="11" ry="11" style="stroke:#181818;stroke-width:1;"/><path d="M2931.9688,180.1406 Q2931.3906,180.4375 2930.75,180.5781 Q2930.1094,180.7344 2929.4063,180.7344 Q2926.9063,180.7344 2925.5781,179.0938 Q2924.2656,177.4375 2924.2656,174.3125 Q2924.2656,171.1875 2925.5781,169.5313 Q2926.9063,167.875 2929.4063,167.875 Q2930.1094,167.875 2930.75,168.0313 Q2931.4063,168.1875 2931.9688,168.4844 L2931.9688,171.2031 Q2931.3438,170.625 2930.75,170.3594 Q2930.1563,170.0781 2929.5313,170.0781 Q2928.1875,170.0781 2927.5,171.1563 Q2926.8125,172.2188 2926.8125,174.3125 Q2926.8125,176.4063 2927.5,177.4844 Q2928.1875,178.5469 2929.5313,178.5469 Q2930.1563,178.5469 2930.75,178.2813 Q2931.3438,178 2931.9688,177.4219 L2931.9688,180.1406 Z " fill="#000000"/><text fill="#000000" font-family="sans-serif" font-size="14" lengthAdjust="spacing" textLength="276.3496" x="2943" y="179.3467">logic_arc_int__baselibs__dynamic_array</text><line style="stroke:#181818;stroke-width:0.5;" x1="2915" x2="3221.3496" y1="190.5" y2="190.5"/></g><!--class logic_arc_int__baselibs__executor--><g id="elem_logic_arc_int__baselibs__executor"><rect fill="#F1F1F1" height="40" id="logic_arc_int__baselibs__executor" rx="2.5" ry="2.5" style="stroke:#181818;stroke-width:0.5;" width="266.4385" x="344" y="158.5"/><ellipse cx="359" cy="174.5" fill="#ADD1B2" rx="11" ry="11" style="stroke:#181818;stroke-width:1;"/><path d="M361.9688,180.1406 Q361.3906,180.4375 360.75,180.5781 Q360.1094,180.7344 359.4063,180.7344 Q356.9063,180.7344 355.5781,179.0938 Q354.2656,177.4375 354.2656,174.3125 Q354.2656,171.1875 355.5781,169.5313 Q356.9063,167.875 359.4063,167.875 Q360.1094,167.875 360.75,168.0313 Q361.4063,168.1875 361.9688,168.4844 L361.9688,171.2031 Q361.3438,170.625 360.75,170.3594 Q360.1563,170.0781 359.5313,170.0781 Q358.1875,170.0781 357.5,171.1563 Q356.8125,172.2188 356.8125,174.3125 Q356.8125,176.4063 357.5,177.4844 Q358.1875,178.5469 359.5313,178.5469 Q360.1563,178.5469 360.75,178.2813 Q361.3438,178 361.9688,177.4219 L361.9688,180.1406 Z " fill="#000000"/><text fill="#000000" font-family="sans-serif" font-size="14" lengthAdjust="spacing" textLength="234.4385" x="373" y="179.3467">logic_arc_int__baselibs__executor</text><line style="stroke:#181818;stroke-width:0.5;" x1="345" x2="609.4385" y1="190.5" y2="190.5"/></g><!--reverse link logic_arc_int__baselibs__json to comp_arc_sta__baselibs__json--><g id="link_logic_arc_int__baselibs__json_comp_arc_sta__baselibs__json"><path codeLine="14" d="M6067.879,204.7464 C6068.619,225.9764 6069.59,253.94 6070.33,275.19 " fill="transparent" id="logic_arc_int__baselibs__json-backto-comp_arc_sta__baselibs__json" style="stroke:#181818;stroke-width:1;"/><polygon fill="#181818" points="6067.67,198.75,6063.9859,207.8839,6067.8442,203.747,6071.9811,207.6052,6067.67,198.75" style="stroke:#181818;stroke-width:1;"/><text fill="#000000" font-family="sans-serif" font-size="13" lengthAdjust="spacing" textLength="76.9082" x="6071" y="241.5669">implements</text></g><!--reverse link logic_arc_int__baselibs__bit_manipulation to comp_arc_sta__baselibs__bit_manipulation--><g id="link_logic_arc_int__baselibs__bit_manipulation_comp_arc_sta__baselibs__bit_manipulation"><path codeLine="16" d="M4822.6614,202.0188 C4855.4314,223.3088 4902.88,254.14 4935.57,275.38 " fill="transparent" id="logic_arc_int__baselibs__bit_manipulation-backto-comp_arc_sta__baselibs__bit_manipulation" style="stroke:#181818;stroke-width:1;"/><polygon fill="#181818" points="4817.63,198.75,4822.9979,207.0075,4821.8228,201.474,4827.3563,200.2989,4817.63,198.75" style="stroke:#181818;stroke-width:1;"/><text fill="#000000" font-family="sans-serif" font-size="13" lengthAdjust="spacing" textLength="76.9082" x="4889" y="241.5669">implements</text></g><!--reverse link logic_arc_int__baselibs__utils_scoped_op to comp_arc_sta__baselibs__utils--><g id="link_logic_arc_int__baselibs__utils_scoped_op_comp_arc_sta__baselibs__utils"><path codeLine="17" d="M4395.8479,201.7743 C4359.3679,223.0643 4306.14,254.14 4269.75,275.38 " fill="transparent" id="logic_arc_int__baselibs__utils_scoped_op-backto-comp_arc_sta__baselibs__utils" style="stroke:#181818;stroke-width:1;"/><polygon fill="#181818" points="4401.03,198.75,4391.2407,199.8317,4396.7116,201.2702,4395.2731,206.7411,4401.03,198.75" style="stroke:#181818;stroke-width:1;"/><text fill="#000000" font-family="sans-serif" font-size="13" lengthAdjust="spacing" textLength="76.9082" x="4349" y="241.5669">implements</text></g><!--link Feature_User to logic_arc_int__baselibs__message_passing--><g id="link_Feature_User_logic_arc_int__baselibs__message_passing"><path codeLine="18" d="M3113.01,53.28 C3222.13,74.56 3496.891,128.1415 3646.611,157.3415 " fill="transparent" id="Feature_User-to-logic_arc_int__baselibs__message_passing" style="stroke:#181818;stroke-width:1;"/><polygon fill="#181818" points="3652.5,158.49,3644.4321,152.8412,3647.5925,157.5329,3642.9007,160.6932,3652.5,158.49" style="stroke:#181818;stroke-width:1;"/><text fill="#000000" font-family="sans-serif" font-size="13" lengthAdjust="spacing" textLength="23.0103" x="3492" y="124.5669">use</text></g><!--link Feature_User to logic_arc_int__baselibs__result--><g id="link_Feature_User_logic_arc_int__baselibs__result"><path codeLine="19" d="M3113.34,45.56 C3323.21,50.61 4221.27,73.44 4957,111.5 C5264.41,127.4 5341.76,127.34 5648,158.5 C5653.86,159.1 5653.8888,159.069 5659.9288,159.759 " fill="transparent" id="Feature_User-to-logic_arc_int__baselibs__result" style="stroke:#181818;stroke-width:1;"/><polygon fill="#181818" points="5665.89,160.44,5657.4022,155.4443,5660.9223,159.8725,5656.4942,163.3927,5665.89,160.44" style="stroke:#181818;stroke-width:1;"/><text fill="#000000" font-family="sans-serif" font-size="13" lengthAdjust="spacing" textLength="23.0103" x="5281" y="124.5669">use</text></g><!--reverse link logic_arc_int__baselibs__synchronized_queue to comp_arc_sta__baselibs__concurrency--><g id="link_logic_arc_int__baselibs__synchronized_queue_comp_arc_sta__baselibs__concurrency"><path codeLine="20" d="M1325.0028,201.1784 C1279.8828,222.4484 1212.83,254.05 1167.66,275.34 " fill="transparent" id="logic_arc_int__baselibs__synchronized_queue-backto-comp_arc_sta__baselibs__concurrency" style="stroke:#181818;stroke-width:1;"/><polygon fill="#181818" points="1330.43,198.62,1320.5836,198.8395,1325.9073,200.752,1323.9948,206.0758,1330.43,198.62" style="stroke:#181818;stroke-width:1;"/><text fill="#000000" font-family="sans-serif" font-size="13" lengthAdjust="spacing" textLength="76.9082" x="1265" y="241.5669">implements</text></g><!--link Feature_User to logic_arc_int__baselibs__memory_shared--><g id="link_Feature_User_logic_arc_int__baselibs__memory_shared"><path codeLine="21" d="M3022.86,61.75 C2957.67,86.67 2843.1647,130.4281 2775.4447,156.3081 " fill="transparent" id="Feature_User-to-logic_arc_int__baselibs__memory_shared" style="stroke:#181818;stroke-width:1;"/><polygon fill="#181818" points="2769.84,158.45,2779.6749,158.9736,2774.5106,156.6651,2776.8191,151.5007,2769.84,158.45" style="stroke:#181818;stroke-width:1;"/><text fill="#000000" font-family="sans-serif" font-size="13" lengthAdjust="spacing" textLength="23.0103" x="2885" y="124.5669">use</text></g><!--link Feature_User to logic_arc_int__baselibs__bit_manipulation--><g id="link_Feature_User_logic_arc_int__baselibs__bit_manipulation"><path codeLine="22" d="M3113.11,47.31 C3298.29,58.95 4018.19,105.3 4609,158.5 C4614.76,159.02 4614.6467,158.995 4620.5667,159.555 " fill="transparent" id="Feature_User-to-logic_arc_int__baselibs__bit_manipulation" style="stroke:#181818;stroke-width:1;"/><polygon fill="#181818" points="4626.54,160.12,4617.9567,155.2902,4621.5622,159.6491,4617.2033,163.2547,4626.54,160.12" style="stroke:#181818;stroke-width:1;"/><text fill="#000000" font-family="sans-serif" font-size="13" lengthAdjust="spacing" textLength="23.0103" x="4230" y="124.5669">use</text></g><!--reverse link logic_arc_int__baselibs__intrusive_list to comp_arc_sta__baselibs__containers--><g id="link_logic_arc_int__baselibs__intrusive_list_comp_arc_sta__baselibs__containers"><path codeLine="23" d="M3366.0148,201.7861 C3329.7248,223.0761 3276.79,254.14 3240.59,275.38 " fill="transparent" id="logic_arc_int__baselibs__intrusive_list-backto-comp_arc_sta__baselibs__containers" style="stroke:#181818;stroke-width:1;"/><polygon fill="#181818" points="3371.19,198.75,3361.4032,199.854,3366.8774,201.2801,3365.4513,206.7542,3371.19,198.75" style="stroke:#181818;stroke-width:1;"/><text fill="#000000" font-family="sans-serif" font-size="13" lengthAdjust="spacing" textLength="76.9082" x="3319" y="241.5669">implements</text></g><!--link Feature_User to logic_arc_int__baselibs__future--><g id="link_Feature_User_logic_arc_int__baselibs__future"><path codeLine="24" d="M3022.95,45.85 C2836.43,51.54 2106.39,75.05 1507,111.5 C1241.34,127.65 1174.65,130.27 910,158.5 C904.35,159.1 904.5396,159.0549 898.7096,159.7349 " fill="transparent" id="Feature_User-to-logic_arc_int__baselibs__future" style="stroke:#181818;stroke-width:1;"/><polygon fill="#181818" points="892.75,160.43,902.1528,163.3604,897.7163,159.8507,901.226,155.4143,892.75,160.43" style="stroke:#181818;stroke-width:1;"/><text fill="#000000" font-family="sans-serif" font-size="13" lengthAdjust="spacing" textLength="23.0103" x="1508" y="124.5669">use</text></g><!--link Feature_User to logic_arc_int__baselibs__filesystem--><g id="link_Feature_User_logic_arc_int__baselibs__filesystem"><path codeLine="25" d="M3113.28,46.2 C3296.82,53.16 4003.26,80.55 4584,111.5 C4918.84,129.35 5003.09,127.77 5337,158.5 C5342.84,159.04 5342.8306,159.0151 5348.8506,159.6251 " fill="transparent" id="Feature_User-to-logic_arc_int__baselibs__filesystem" style="stroke:#181818;stroke-width:1;"/><polygon fill="#181818" points="5354.82,160.23,5346.2691,155.3431,5349.8455,159.7259,5345.4626,163.3023,5354.82,160.23" style="stroke:#181818;stroke-width:1;"/><text fill="#000000" font-family="sans-serif" font-size="13" lengthAdjust="spacing" textLength="23.0103" x="4925" y="124.5669">use</text></g><!--link Feature_User to logic_arc_int__baselibs__condition_variable--><g id="link_Feature_User_logic_arc_int__baselibs__condition_variable"><path codeLine="26" d="M3022.97,50.34 C2879.04,69.02 2431.7801,127.0582 2195.5001,157.7082 " fill="transparent" id="Feature_User-to-logic_arc_int__baselibs__condition_variable" style="stroke:#181818;stroke-width:1;"/><polygon fill="#181818" points="2189.55,158.48,2198.9898,161.289,2194.5085,157.8368,2197.9607,153.3555,2189.55,158.48" style="stroke:#181818;stroke-width:1;"/><text fill="#000000" font-family="sans-serif" font-size="13" lengthAdjust="spacing" textLength="23.0103" x="2526" y="124.5669">use</text></g><!--reverse link logic_arc_int__baselibs__result to comp_arc_sta__baselibs__result--><g id="link_logic_arc_int__baselibs__result_comp_arc_sta__baselibs__result"><path codeLine="27" d="M5788,204.75 C5788,225.98 5788,253.94 5788,275.19 " fill="transparent" id="logic_arc_int__baselibs__result-backto-comp_arc_sta__baselibs__result" style="stroke:#181818;stroke-width:1;"/><polygon fill="#181818" points="5788,198.75,5784,207.75,5788,203.75,5792,207.75,5788,198.75" style="stroke:#181818;stroke-width:1;"/><text fill="#000000" font-family="sans-serif" font-size="13" lengthAdjust="spacing" textLength="76.9082" x="5789" y="241.5669">implements</text></g><!--reverse link logic_arc_int__baselibs__filesystem to comp_arc_sta__baselibs__filesystem--><g id="link_logic_arc_int__baselibs__filesystem_comp_arc_sta__baselibs__filesystem"><path codeLine="28" d="M5491.0223,204.7317 C5489.3623,225.9617 5487.17,253.94 5485.51,275.19 " fill="transparent" id="logic_arc_int__baselibs__filesystem-backto-comp_arc_sta__baselibs__filesystem" style="stroke:#181818;stroke-width:1;"/><polygon fill="#181818" points="5491.49,198.75,5486.8006,207.4108,5491.1002,203.7348,5494.7762,208.0344,5491.49,198.75" style="stroke:#181818;stroke-width:1;"/><text fill="#000000" font-family="sans-serif" font-size="13" lengthAdjust="spacing" textLength="76.9082" x="5491" y="241.5669">implements</text></g><!--reverse link logic_arc_int__baselibs__shared_future to comp_arc_sta__baselibs__concurrency--><g id="link_logic_arc_int__baselibs__shared_future_comp_arc_sta__baselibs__concurrency"><path codeLine="29" d="M303.4467,199.3081 C405.4567,212.9981 541.25,230.77 666,245.5 C769.71,257.75 886.71,270.17 976.9,279.44 " fill="transparent" id="logic_arc_int__baselibs__shared_future-backto-comp_arc_sta__baselibs__concurrency" style="stroke:#181818;stroke-width:1;"/><polygon fill="#181818" points="297.5,198.51,305.888,203.6715,302.4556,199.1751,306.9521,195.7426,297.5,198.51" style="stroke:#181818;stroke-width:1;"/><text fill="#000000" font-family="sans-serif" font-size="13" lengthAdjust="spacing" textLength="76.9082" x="667" y="241.5669">implements</text></g><!--link Feature_User to logic_arc_int__baselibs__synchronized_queue--><g id="link_Feature_User_logic_arc_int__baselibs__synchronized_queue"><path codeLine="30" d="M3022.71,47.42 C2839.91,59.3 2138.72,105.94 1563,158.5 C1557.16,159.03 1557.204,159.0224 1551.204,159.5824 " fill="transparent" id="Feature_User-to-logic_arc_int__baselibs__synchronized_queue" style="stroke:#181818;stroke-width:1;"/><polygon fill="#181818" points="1545.23,160.14,1554.5628,163.2863,1550.2084,159.6754,1553.8193,155.3209,1545.23,160.14" style="stroke:#181818;stroke-width:1;"/><text fill="#000000" font-family="sans-serif" font-size="13" lengthAdjust="spacing" textLength="23.0103" x="2102" y="124.5669">use</text></g><!--link Feature_User to logic_arc_int__baselibs__utils_base64--><g id="link_Feature_User_logic_arc_int__baselibs__utils_base64"><path codeLine="31" d="M3113.12,50.34 C3257.43,69.03 3706.0797,127.1292 3942.6897,157.7792 " fill="transparent" id="Feature_User-to-logic_arc_int__baselibs__utils_base64" style="stroke:#181818;stroke-width:1;"/><polygon fill="#181818" points="3948.64,158.55,3940.2284,153.427,3943.6814,157.9077,3939.2007,161.3607,3948.64,158.55" style="stroke:#181818;stroke-width:1;"/><text fill="#000000" font-family="sans-serif" font-size="13" lengthAdjust="spacing" textLength="23.0103" x="3705" y="124.5669">use</text></g><!--reverse link logic_arc_int__baselibs__message_passing to comp_arc_sta__baselibs__message_passing--><g id="link_logic_arc_int__baselibs__message_passing_comp_arc_sta__baselibs__message_passing"><path codeLine="32" d="M3750,204.75 C3750,225.98 3750,253.94 3750,275.19 " fill="transparent" id="logic_arc_int__baselibs__message_passing-backto-comp_arc_sta__baselibs__message_passing" style="stroke:#181818;stroke-width:1;"/><polygon fill="#181818" points="3750,198.75,3746,207.75,3750,203.75,3754,207.75,3750,198.75" style="stroke:#181818;stroke-width:1;"/><text fill="#000000" font-family="sans-serif" font-size="13" lengthAdjust="spacing" textLength="76.9082" x="3751" y="241.5669">implements</text></g><!--reverse link logic_arc_int__baselibs__condition_variable to comp_arc_sta__baselibs__concurrency--><g id="link_logic_arc_int__baselibs__condition_variable_comp_arc_sta__baselibs__concurrency"><path codeLine="33" d="M1895.6427,199.3232 C1794.8727,212.7632 1662.14,230.24 1540,245.5 C1452.95,256.37 1355.5,267.96 1277.13,277.14 " fill="transparent" id="logic_arc_int__baselibs__condition_variable-backto-comp_arc_sta__baselibs__concurrency" style="stroke:#181818;stroke-width:1;"/><polygon fill="#181818" points="1901.59,198.53,1892.1402,195.7549,1896.6339,199.191,1893.1978,203.6847,1901.59,198.53" style="stroke:#181818;stroke-width:1;"/><text fill="#000000" font-family="sans-serif" font-size="13" lengthAdjust="spacing" textLength="76.9082" x="1666" y="241.5669">implements</text></g><!--link Feature_User to logic_arc_int__baselibs__task_result--><g id="link_Feature_User_logic_arc_int__baselibs__task_result"><path codeLine="34" d="M3022.92,53.28 C2913.64,74.56 2638.4694,128.1431 2488.5294,157.3431 " fill="transparent" id="Feature_User-to-logic_arc_int__baselibs__task_result" style="stroke:#181818;stroke-width:1;"/><polygon fill="#181818" points="2482.64,158.49,2492.2387,160.6959,2487.5478,157.5342,2490.7094,152.8434,2482.64,158.49" style="stroke:#181818;stroke-width:1;"/><text fill="#000000" font-family="sans-serif" font-size="13" lengthAdjust="spacing" textLength="23.0103" x="2708" y="124.5669">use</text></g><!--link Feature_User to logic_arc_int__baselibs__json--><g id="link_Feature_User_logic_arc_int__baselibs__json"><path codeLine="35" d="M3113.1,45.07 C3345.18,48.14 4428.13,64.45 5313,111.5 C5586.3,126.03 5654.84,129.64 5927,158.5 C5934.56,159.3 5936.3827,159.4757 5944.2227,160.4157 " fill="transparent" id="Feature_User-to-logic_arc_int__baselibs__json" style="stroke:#181818;stroke-width:1;"/><polygon fill="#181818" points="5950.18,161.13,5941.7202,156.087,5945.2156,160.5348,5940.7678,164.0301,5950.18,161.13" style="stroke:#181818;stroke-width:1;"/><text fill="#000000" font-family="sans-serif" font-size="13" lengthAdjust="spacing" textLength="23.0103" x="5601" y="124.5669">use</text></g><!--link Feature_User to logic_arc_int__baselibs__utils_scoped_op--><g id="link_Feature_User_logic_arc_int__baselibs__utils_scoped_op"><path codeLine="36" d="M3113.14,48.63 C3270.83,63.09 3811.76,113.04 4258,158.5 C4263.96,159.11 4264.0724,159.107 4270.2024,159.747 " fill="transparent" id="Feature_User-to-logic_arc_int__baselibs__utils_scoped_op" style="stroke:#181818;stroke-width:1;"/><polygon fill="#181818" points="4276.17,160.37,4267.634,155.4571,4271.197,159.8508,4266.8033,163.4138,4276.17,160.37" style="stroke:#181818;stroke-width:1;"/><text fill="#000000" font-family="sans-serif" font-size="13" lengthAdjust="spacing" textLength="23.0103" x="3933" y="124.5669">use</text></g><!--link Feature_User to logic_arc_int__baselibs__bit_mask_operator--><g id="link_Feature_User_logic_arc_int__baselibs__bit_mask_operator"><path codeLine="37" d="M3113.24,46.41 C3323.61,55.44 4227.12,96.12 4966,158.5 C4971.98,159.01 4972.0939,159.0055 4978.2439,159.5555 " fill="transparent" id="Feature_User-to-logic_arc_int__baselibs__bit_mask_operator" style="stroke:#181818;stroke-width:1;"/><polygon fill="#181818" points="4984.22,160.09,4975.6121,155.3042,4979.2399,159.6446,4974.8995,163.2724,4984.22,160.09" style="stroke:#181818;stroke-width:1;"/><text fill="#000000" font-family="sans-serif" font-size="13" lengthAdjust="spacing" textLength="23.0103" x="4552" y="124.5669">use</text></g><!--link Feature_User to logic_arc_int__baselibs__intrusive_list--><g id="link_Feature_User_logic_arc_int__baselibs__intrusive_list"><path codeLine="38" d="M3113.31,62.44 C3176.64,87.5 3285.511,130.6022 3350.301,156.2422 " fill="transparent" id="Feature_User-to-logic_arc_int__baselibs__intrusive_list" style="stroke:#181818;stroke-width:1;"/><polygon fill="#181818" points="3355.88,158.45,3348.9834,151.4189,3351.2308,156.6101,3346.0396,158.8576,3355.88,158.45" style="stroke:#181818;stroke-width:1;"/><text fill="#000000" font-family="sans-serif" font-size="13" lengthAdjust="spacing" textLength="23.0103" x="3277" y="124.5669">use</text></g><!--reverse link logic_arc_int__baselibs__memory_shared to comp_arc_sta__baselibs__memory_shared--><g id="link_logic_arc_int__baselibs__memory_shared_comp_arc_sta__baselibs__memory_shared"><path codeLine="39" d="M2720,204.75 C2720,225.98 2720,253.94 2720,275.19 " fill="transparent" id="logic_arc_int__baselibs__memory_shared-backto-comp_arc_sta__baselibs__memory_shared" style="stroke:#181818;stroke-width:1;"/><polygon fill="#181818" points="2720,198.75,2716,207.75,2720,203.75,2724,207.75,2720,198.75" style="stroke:#181818;stroke-width:1;"/><text fill="#000000" font-family="sans-serif" font-size="13" lengthAdjust="spacing" textLength="76.9082" x="2721" y="241.5669">implements</text></g><!--reverse link logic_arc_int__baselibs__task to comp_arc_sta__baselibs__concurrency--><g id="link_logic_arc_int__baselibs__task_comp_arc_sta__baselibs__concurrency"><path codeLine="40" d="M1062.2037,203.635 C1077.3437,224.865 1098.08,253.94 1113.23,275.19 " fill="transparent" id="logic_arc_int__baselibs__task-backto-comp_arc_sta__baselibs__concurrency" style="stroke:#181818;stroke-width:1;"/><polygon fill="#181818" points="1058.72,198.75,1060.6889,208.4,1061.6231,202.8209,1067.2023,203.7551,1058.72,198.75" style="stroke:#181818;stroke-width:1;"/><text fill="#000000" font-family="sans-serif" font-size="13" lengthAdjust="spacing" textLength="76.9082" x="1092" y="241.5669">implements</text></g><!--reverse link logic_arc_int__baselibs__future to comp_arc_sta__baselibs__concurrency--><g id="link_logic_arc_int__baselibs__future_comp_arc_sta__baselibs__concurrency"><path codeLine="41" d="M834.2325,200.455 C900.5425,221.755 1001.39,254.15 1067.64,275.43 " fill="transparent" id="logic_arc_int__baselibs__future-backto-comp_arc_sta__baselibs__concurrency" style="stroke:#181818;stroke-width:1;"/><polygon fill="#181818" points="828.52,198.62,835.8655,205.1808,833.2804,200.1491,838.3121,197.5641,828.52,198.62" style="stroke:#181818;stroke-width:1;"/><text fill="#000000" font-family="sans-serif" font-size="13" lengthAdjust="spacing" textLength="76.9082" x="971" y="241.5669">implements</text></g><!--reverse link logic_arc_int__baselibs__utils_base64 to comp_arc_sta__baselibs__utils--><g id="link_logic_arc_int__baselibs__utils_base64_comp_arc_sta__baselibs__utils"><path codeLine="42" d="M4123.4324,202.5265 C4149.6424,223.7565 4186.91,253.94 4213.15,275.19 " fill="transparent" id="logic_arc_int__baselibs__utils_base64-backto-comp_arc_sta__baselibs__utils" style="stroke:#181818;stroke-width:1;"/><polygon fill="#181818" points="4118.77,198.75,4123.2459,207.523,4122.6553,201.8971,4128.2813,201.3065,4118.77,198.75" style="stroke:#181818;stroke-width:1;"/><text fill="#000000" font-family="sans-serif" font-size="13" lengthAdjust="spacing" textLength="76.9082" x="4176" y="241.5669">implements</text></g><!--link Feature_User to logic_arc_int__baselibs__promise--><g id="link_Feature_User_logic_arc_int__baselibs__promise"><path codeLine="43" d="M3022.93,48.2 C2863.68,61.38 2312.64,108.01 1859,158.5 C1853.34,159.13 1853.5086,159.086 1847.6686,159.776 " fill="transparent" id="Feature_User-to-logic_arc_int__baselibs__promise" style="stroke:#181818;stroke-width:1;"/><polygon fill="#181818" points="1841.71,160.48,1851.1172,163.3964,1846.6755,159.8933,1850.1785,155.4516,1841.71,160.48" style="stroke:#181818;stroke-width:1;"/><text fill="#000000" font-family="sans-serif" font-size="13" lengthAdjust="spacing" textLength="23.0103" x="2292" y="124.5669">use</text></g><!--link Feature_User to logic_arc_int__baselibs__dynamic_array--><g id="link_Feature_User_logic_arc_int__baselibs__dynamic_array"><path codeLine="44" d="M3068,81.55 C3068,106.45 3068,132.26 3068,152.26 " fill="transparent" id="Feature_User-to-logic_arc_int__baselibs__dynamic_array" style="stroke:#181818;stroke-width:1;"/><polygon fill="#181818" points="3068,158.26,3072,149.26,3068,153.26,3064,149.26,3068,158.26" style="stroke:#181818;stroke-width:1;"/><text fill="#000000" font-family="sans-serif" font-size="13" lengthAdjust="spacing" textLength="23.0103" x="3069" y="124.5669">use</text></g><!--reverse link logic_arc_int__baselibs__bit_mask_operator to comp_arc_sta__baselibs__bit_manipulation--><g id="link_logic_arc_int__baselibs__bit_mask_operator_comp_arc_sta__baselibs__bit_manipulation"><path codeLine="45" d="M5115.5891,201.893 C5080.9691,223.183 5030.63,254.14 4996.09,275.38 " fill="transparent" id="logic_arc_int__baselibs__bit_mask_operator-backto-comp_arc_sta__baselibs__bit_manipulation" style="stroke:#181818;stroke-width:1;"/><polygon fill="#181818" points="5120.7,198.75,5110.9383,200.0573,5116.4409,201.3692,5115.129,206.8718,5120.7,198.75" style="stroke:#181818;stroke-width:1;"/><text fill="#000000" font-family="sans-serif" font-size="13" lengthAdjust="spacing" textLength="76.9082" x="5071" y="241.5669">implements</text></g><!--link Feature_User to logic_arc_int__baselibs__executor--><g id="link_Feature_User_logic_arc_int__baselibs__executor"><path codeLine="46" d="M3022.95,45.37 C2815.39,49.54 1930.55,69.03 1206,111.5 C948.7,126.58 884.37,131.96 628,158.5 C622.22,159.1 622.2724,159.0597 616.3124,159.7297 " fill="transparent" id="Feature_User-to-logic_arc_int__baselibs__executor" style="stroke:#181818;stroke-width:1;"/><polygon fill="#181818" points="610.35,160.4,619.7405,163.3696,615.3187,159.8414,618.8468,155.4196,610.35,160.4" style="stroke:#181818;stroke-width:1;"/><text fill="#000000" font-family="sans-serif" font-size="13" lengthAdjust="spacing" textLength="23.0103" x="1207" y="124.5669">use</text></g><!--reverse link logic_arc_int__baselibs__promise to comp_arc_sta__baselibs__concurrency--><g id="link_logic_arc_int__baselibs__promise_comp_arc_sta__baselibs__concurrency"><path codeLine="47" d="M1608.3531,199.7093 C1500.2431,220.9993 1332.13,254.11 1223.95,275.41 " fill="transparent" id="logic_arc_int__baselibs__promise-backto-comp_arc_sta__baselibs__concurrency" style="stroke:#181818;stroke-width:1;"/><polygon fill="#181818" points="1614.24,198.55,1604.6367,196.3643,1609.3342,199.5161,1606.1825,204.2136,1614.24,198.55" style="stroke:#181818;stroke-width:1;"/><text fill="#000000" font-family="sans-serif" font-size="13" lengthAdjust="spacing" textLength="76.9082" x="1455" y="241.5669">implements</text></g><!--link Feature_User to logic_arc_int__baselibs__task--><g id="link_Feature_User_logic_arc_int__baselibs__task"><path codeLine="48" d="M3022.91,45.8 C2813.29,52.15 1913.1,82.71 1179,158.5 C1173.51,159.07 1173.8496,158.9951 1168.1896,159.6551 " fill="transparent" id="Feature_User-to-logic_arc_int__baselibs__task" style="stroke:#181818;stroke-width:1;"/><polygon fill="#181818" points="1162.23,160.35,1171.6327,163.2807,1167.1963,159.7709,1170.7061,155.3345,1162.23,160.35" style="stroke:#181818;stroke-width:1;"/><text fill="#000000" font-family="sans-serif" font-size="13" lengthAdjust="spacing" textLength="23.0103" x="1698" y="124.5669">use</text></g><!--reverse link logic_arc_int__baselibs__dynamic_array to comp_arc_sta__baselibs__containers--><g id="link_logic_arc_int__baselibs__dynamic_array_comp_arc_sta__baselibs__containers"><path codeLine="49" d="M3096.0667,202.558 C3121.9167,223.788 3158.62,253.94 3184.49,275.19 " fill="transparent" id="logic_arc_int__baselibs__dynamic_array-backto-comp_arc_sta__baselibs__containers" style="stroke:#181818;stroke-width:1;"/><polygon fill="#181818" points="3091.43,198.75,3095.8464,207.5532,3095.2939,201.9233,3100.9237,201.3709,3091.43,198.75" style="stroke:#181818;stroke-width:1;"/><text fill="#000000" font-family="sans-serif" font-size="13" lengthAdjust="spacing" textLength="76.9082" x="3148" y="241.5669">implements</text></g><!--link Feature_User to logic_arc_int__baselibs__shared_future--><g id="link_Feature_User_logic_arc_int__baselibs__shared_future"><path codeLine="50" d="M3022.84,45.09 C2796.19,48.2 1759.98,64.45 913,111.5 C651.68,126.02 586.51,133.35 326,158.5 C320.45,159.04 320.7693,158.9937 315.0593,159.5737 " fill="transparent" id="Feature_User-to-logic_arc_int__baselibs__shared_future" style="stroke:#181818;stroke-width:1;"/><polygon fill="#181818" points="309.09,160.18,318.4482,163.25,314.0644,159.6747,317.6397,155.291,309.09,160.18" style="stroke:#181818;stroke-width:1;"/><text fill="#000000" font-family="sans-serif" font-size="13" lengthAdjust="spacing" textLength="23.0103" x="914" y="124.5669">use</text></g><!--reverse link logic_arc_int__baselibs__task_result to comp_arc_sta__baselibs__concurrency--><g id="link_logic_arc_int__baselibs__task_result_comp_arc_sta__baselibs__concurrency"><path codeLine="51" d="M2238.2073,197.2582 C2232.4073,197.9082 2232.63,197.88 2227,198.5 C2015.68,221.64 1962.75,226.73 1751,245.5 C1589.18,259.84 1403.55,274.14 1277.11,283.56 " fill="transparent" id="logic_arc_int__baselibs__task_result-backto-comp_arc_sta__baselibs__concurrency" style="stroke:#181818;stroke-width:1;"/><polygon fill="#181818" points="2244.17,196.59,2234.7805,193.6172,2239.2011,197.1469,2235.6715,201.5675,2244.17,196.59" style="stroke:#181818;stroke-width:1;"/><text fill="#000000" font-family="sans-serif" font-size="13" lengthAdjust="spacing" textLength="76.9082" x="1934" y="241.5669">implements</text></g><!--reverse link logic_arc_int__baselibs__executor to comp_arc_sta__baselibs__concurrency--><g id="link_logic_arc_int__baselibs__executor_comp_arc_sta__baselibs__concurrency"><path codeLine="52" d="M586.4119,199.6204 C659.2319,212.9504 753.08,230 841,245.5 C898.18,255.58 961.84,266.52 1014.56,275.49 " fill="transparent" id="logic_arc_int__baselibs__executor-backto-comp_arc_sta__baselibs__concurrency" style="stroke:#181818;stroke-width:1;"/><polygon fill="#181818" points="580.51,198.54,588.6426,204.0952,585.4283,199.4403,590.0831,196.2259,580.51,198.54" style="stroke:#181818;stroke-width:1;"/><text fill="#000000" font-family="sans-serif" font-size="13" lengthAdjust="spacing" textLength="76.9082" x="842" y="241.5669">implements</text></g><!--SRC=[hLOzRzim4DtrAuZiJekYw104MGfqwjZEn8cwsDVmG-KTqwX5_tifsOajnouZMIDbyadlunuDrePVsj4J-NKbeLKIL1r4WbCDHJH2mLSRQb2nOCGWNOlRDRfMEWKYaUeaoDKjIsVnhhe69bkhFzLNylWvs11Ln6POVTkGUV38h3vSlw_-LhVlTcSgC9BtNNr1a1HHVMUCLmfOxHxe_e6gJ72jXcWq2sXT0wEbchN-mS6hLLhTAHlMP8OjvELuouqYrrfqw8LLTHQj9j4EFBN9Gi-_W7oyVVoMSoz9GfOBoCCUpIQqsEZGZe57ogoQ_-6uh3YiKRV0d7s-KObn4a14JbPsvyunCi6R52DwqnLuSUVD9WPFlpEldmaJNa3DXTXfta3Es7HYhxqhKHJ8EOubv_8o9gP7r9POPhExJ_tEwRJkoI9tUMBTzBEPOqEz5leH8a5jiI3ADXm5GPuJz9RHs7zz0VIGvbk09oHqoDEB_ZFjEvNpgNPiEw1VV_fOCE9ep0iKNvN2iWgUYj5C6GNuOLn14mvlUt-UwWVDEwzOydTdX0ZvRfiESTmX1UyFUh3e_AWpb_MzDsjfp5DZUFcz-ZnJCrFPnk28PqnqqtbmmqyHkeAji_wAZ58tanq-eKdxs5xkuOjS5vJ0KhVpaGDpstryHooaqwZibXsZlQU7kFy0]--></g></svg>