<svg xmlns="http://www.w3.org/2000/svg" xmlns:xlink="http://www.w3.org/1999/xlink" contentStyleType="text/css" data-diagram-type="CLASS" height="367.7083px" preserveAspectRatio="none" style="width:310px;height:367px;" version="1.1" viewBox="0 0 310 367" width="310.4167px" zoomAndPan="magnify"><defs><linearGradient id="gqx2ag8985ev30" x1="50%" x2="50%" y1="0%" y2="100%"><stop offset="0%" stop-color="#85CECB"/><stop offset="100%" stop-color="#45ADA8"/></linearGradient><filter height="300%" id="fqx2ag8985ev3" width="300%" x="-1" y="-1"><feGaussianBlur result="blurOut" stdDeviation="2.0833"/><feColorMatrix in="blurOut" result="blurOut2" type="matrix" values="0 0 0 0 0 0 0 0 0 0 0 0 0 0 0 0 0 0 .4 0"/><feOffset dx="4.1667" dy="4.1667" in="blurOut2" result="blurOut3"/><feBlend in="SourceGraphic" in2="blurOut3" mode="normal"/></filter></defs><g><g id="elem_dynamic"><rect fill="url(#gqx2ag8985ev30)" filter="url(#fqx2ag8985ev3)" height="36.2549" rx="4.1667" ry="4.1667" style="stroke:#45ADA8;stroke-width:1.0417;" width="151.0279" x="131.25" y="17.7083"/><path d="M135.4167,17.7083 L278.1113,17.7083 A4.1667,4.1667 0 0 1 282.2779,21.875 L282.2779,37.2965 L131.25,37.2965 L131.25,21.875 A4.1667,4.1667 0 0 1 135.4167,17.7083 " fill="url(#gqx2ag8985ev30)" style="stroke:#45ADA8;stroke-width:1.0417;"/><text fill="#0E2322" font-family="Arial" font-size="11.4583" lengthAdjust="spacing" textLength="134.3613" x="139.5833" y="31.4692">Dynamic Code Analysis</text><line style="stroke:#45ADA8;stroke-width:1.0417;" x1="132.2917" x2="281.2363" y1="37.2965" y2="37.2965"/></g><g id="elem_sanitizers"><rect fill="url(#gqx2ag8985ev30)" filter="url(#fqx2ag8985ev3)" height="36.2549" rx="4.1667" ry="4.1667" style="stroke:#45ADA8;stroke-width:1.0417;" width="72.8282" x="170.3125" y="116.6667"/><path d="M174.4792,116.6667 L238.974,116.6667 A4.1667,4.1667 0 0 1 243.1407,120.8333 L243.1407,136.2549 L170.3125,136.2549 L170.3125,120.8333 A4.1667,4.1667 0 0 1 174.4792,116.6667 " fill="url(#gqx2ag8985ev30)" style="stroke:#45ADA8;stroke-width:1.0417;"/><text fill="#0E2322" font-family="Arial" font-size="11.4583" lengthAdjust="spacing" textLength="56.1615" x="178.6458" y="130.4276">Sanitizers</text><line style="stroke:#45ADA8;stroke-width:1.0417;" x1="171.3542" x2="242.099" y1="136.2549" y2="136.2549"/></g><g id="elem_gcc"><rect fill="url(#gqx2ag8985ev30)" filter="url(#fqx2ag8985ev3)" height="36.2549" rx="4.1667" ry="4.1667" style="stroke:#45ADA8;stroke-width:1.0417;" width="36.5397" x="141.6667" y="215.625"/><path d="M145.8333,215.625 L174.0397,215.625 A4.1667,4.1667 0 0 1 178.2064,219.7917 L178.2064,235.2132 L141.6667,235.2132 L141.6667,219.7917 A4.1667,4.1667 0 0 1 145.8333,215.625 " fill="url(#gqx2ag8985ev30)" style="stroke:#45ADA8;stroke-width:1.0417;"/><text fill="#0E2322" font-family="Arial" font-size="11.4583" lengthAdjust="spacing" textLength="19.873" x="150" y="229.3859">gcc</text><line style="stroke:#45ADA8;stroke-width:1.0417;" x1="142.7083" x2="177.1647" y1="235.2132" y2="235.2132"/></g><g id="elem_asan"><rect fill="url(#gqx2ag8985ev30)" filter="url(#fqx2ag8985ev3)" height="36.2549" rx="4.1667" ry="4.1667" style="stroke:#45ADA8;stroke-width:1.0417;" width="82.1157" x="17.7083" y="314.5833"/><path d="M21.875,314.5833 L95.6573,314.5833 A4.1667,4.1667 0 0 1 99.824,318.75 L99.824,334.1715 L17.7083,334.1715 L17.7083,318.75 A4.1667,4.1667 0 0 1 21.875,314.5833 " fill="url(#gqx2ag8985ev30)" style="stroke:#45ADA8;stroke-width:1.0417;"/><text fill="#0E2322" font-family="Arial" font-size="11.4583" lengthAdjust="spacing" textLength="65.449" x="26.0417" y="328.3442">ASAN/LSAN</text><line style="stroke:#45ADA8;stroke-width:1.0417;" x1="18.75" x2="98.7823" y1="334.1715" y2="334.1715"/></g><g id="elem_tsan"><rect fill="url(#gqx2ag8985ev30)" filter="url(#fqx2ag8985ev3)" height="36.2549" rx="4.1667" ry="4.1667" style="stroke:#45ADA8;stroke-width:1.0417;" width="47.349" x="136.4583" y="314.5833"/><path d="M140.625,314.5833 L179.6407,314.5833 A4.1667,4.1667 0 0 1 183.8074,318.75 L183.8074,334.1715 L136.4583,334.1715 L136.4583,318.75 A4.1667,4.1667 0 0 1 140.625,314.5833 " fill="url(#gqx2ag8985ev30)" style="stroke:#45ADA8;stroke-width:1.0417;"/><text fill="#0E2322" font-family="Arial" font-size="11.4583" lengthAdjust="spacing" textLength="30.6824" x="144.7917" y="328.3442">TSAN</text><line style="stroke:#45ADA8;stroke-width:1.0417;" x1="137.5" x2="182.7657" y1="334.1715" y2="334.1715"/></g><g id="elem_ubsan"><rect fill="url(#gqx2ag8985ev30)" filter="url(#fqx2ag8985ev3)" height="36.2549" rx="4.1667" ry="4.1667" style="stroke:#45ADA8;stroke-width:1.0417;" width="56.5974" x="220.3125" y="314.5833"/><path d="M224.4792,314.5833 L272.7432,314.5833 A4.1667,4.1667 0 0 1 276.9099,318.75 L276.9099,334.1715 L220.3125,334.1715 L220.3125,318.75 A4.1667,4.1667 0 0 1 224.4792,314.5833 " fill="url(#gqx2ag8985ev30)" style="stroke:#45ADA8;stroke-width:1.0417;"/><text fill="#0E2322" font-family="Arial" font-size="11.4583" lengthAdjust="spacing" textLength="39.9307" x="228.6458" y="328.3442">UBSAN</text><line style="stroke:#45ADA8;stroke-width:1.0417;" x1="221.3542" x2="275.8682" y1="334.1715" y2="334.1715"/></g><g id="elem_memcheck"><rect fill="url(#gqx2ag8985ev30)" filter="url(#fqx2ag8985ev3)" height="36.2549" rx="4.1667" ry="4.1667" style="stroke:#45ADA8;stroke-width:1.0417;" width="78.3112" x="214.5833" y="215.625"/><path d="M218.75,215.625 L288.7278,215.625 A4.1667,4.1667 0 0 1 292.8945,219.7917 L292.8945,235.2132 L214.5833,235.2132 L214.5833,219.7917 A4.1667,4.1667 0 0 1 218.75,215.625 " fill="url(#gqx2ag8985ev30)" style="stroke:#45ADA8;stroke-width:1.0417;"/><text fill="#0E2322" font-family="Arial" font-size="11.4583" lengthAdjust="spacing" textLength="61.6445" x="222.9167" y="229.3859">Memcheck</text><line style="stroke:#45ADA8;stroke-width:1.0417;" x1="215.625" x2="291.8528" y1="235.2132" y2="235.2132"/></g><!--link dynamic to sanitizers--><g id="link_dynamic_sanitizers"><path codeLine="11" d="M206.7708,54.3021 C206.7708,71.8229 206.7708,92.5208 206.7708,110.1042 " fill="transparent" id="dynamic-to-sanitizers" style="stroke:#45ADA8;stroke-width:1.0417;"/><polygon fill="#45ADA8" points="206.7708,116.3542,210.9375,106.9792,206.7708,111.1458,202.6042,106.9792,206.7708,116.3542" style="stroke:#45ADA8;stroke-width:1.0417;"/></g><!--link sanitizers to gcc--><g id="link_sanitizers_gcc"><path codeLine="12" d="M198.3854,153.2604 C189.9063,170.7813 179.5979,192.1035 171.0874,209.6868 " fill="transparent" id="sanitizers-to-gcc" style="stroke:#45ADA8;stroke-width:1.0417;"/><polygon fill="#45ADA8" points="168.3646,215.3125,176.1993,208.6892,170.6336,210.6244,168.6984,205.0587,168.3646,215.3125" style="stroke:#45ADA8;stroke-width:1.0417;"/></g><!--link gcc to asan--><g id="link_gcc_asan"><path codeLine="13" d="M141.8333,252.2188 C123.5521,269.7396 99.9599,292.3626 81.6161,309.9459 " fill="transparent" id="gcc-to-asan" style="stroke:#45ADA8;stroke-width:1.0417;"/><polygon fill="#45ADA8" points="77.1042,314.2708,86.7554,310.7914,80.8641,310.6667,80.9888,304.7755,77.1042,314.2708" style="stroke:#45ADA8;stroke-width:1.0417;"/></g><!--link gcc to tsan--><g id="link_gcc_tsan"><path codeLine="14" d="M159.8958,252.2188 C159.8958,269.7396 159.8958,290.4375 159.8958,308.0208 " fill="transparent" id="gcc-to-tsan" style="stroke:#45ADA8;stroke-width:1.0417;"/><polygon fill="#45ADA8" points="159.8958,314.2708,164.0625,304.8958,159.8958,309.0625,155.7292,304.8958,159.8958,314.2708" style="stroke:#45ADA8;stroke-width:1.0417;"/></g><!--link gcc to ubsan--><g id="link_gcc_ubsan"><path codeLine="15" d="M175.7292,252.2188 C191.7396,269.7396 212.1582,292.0744 228.2311,309.6577 " fill="transparent" id="gcc-to-ubsan" style="stroke:#45ADA8;stroke-width:1.0417;"/><polygon fill="#45ADA8" points="232.4479,314.2708,229.1981,304.5399,228.9339,310.4266,223.0473,310.1624,232.4479,314.2708" style="stroke:#45ADA8;stroke-width:1.0417;"/></g><!--link sanitizers to memcheck--><g id="link_sanitizers_memcheck"><path codeLine="16" d="M215.1563,153.2604 C223.6354,170.7813 233.9438,192.1035 242.4542,209.6868 " fill="transparent" id="sanitizers-to-memcheck" style="stroke:#45ADA8;stroke-width:1.0417;"/><polygon fill="#45ADA8" points="245.1771,215.3125,244.8433,205.0587,242.908,210.6244,237.3423,208.6892,245.1771,215.3125" style="stroke:#45ADA8;stroke-width:1.0417;"/></g><!--SRC=[NOunSyCW38Lt_mgQ7RDto9tRZcsMD7DEbbL3Oo07udBfho_6CVLrGEYzJpgz9-DmIWC9pNoDpqe5kBMZOPtw52cWTqoEM_HMNM1A4foAw0ETisEJCmXil5E1lgBI14DKrsIdCskoj4mgUrFp-a3HZAvWMR0ik9sDnlVVX2nsRtS7rg1uzJbIvs2wHnDt0g8O5b8dZ-0CcnyA2uvLreaHiQ3yLwyxTWVrdaiXaBSg-bnTthgdbzLE_TR_88kQy5AGVOYcUQGKKkwtaVxQGkP4-PM-P5W5RyLoyD_gUkeN]--></g></svg>