<svg xmlns="http://www.w3.org/2000/svg" xmlns:xlink="http://www.w3.org/1999/xlink" contentStyleType="text/css" data-diagram-type="CLASS" height="322px" preserveAspectRatio="none" style="width:6201px;height:322px;background:#FFFFFF;" version="1.1" viewBox="0 0 6201 322" width="6201px" zoomAndPan="magnify"><defs/><g><!--entity Feature_User--><g id="elem_Feature_User"><ellipse cx="3165.6685" cy="14" fill="#F1F1F1" rx="8" ry="8" style="stroke:#181818;stroke-width:0.5;"/><path d="M3165.6685,22 L3165.6685,49 M3152.6685,30 L3178.6685,30 M3165.6685,49 L3152.6685,64 M3165.6685,49 L3178.6685,64 " fill="transparent" style="stroke:#181818;stroke-width:0.5;"/><text fill="#000000" font-family="sans-serif" font-size="14" lengthAdjust="spacing" textLength="90.3369" x="3120.5" y="78.4951">Feature User</text></g><!--class logic_arc_int__baselibs__synchronized_queue--><g id="elem_logic_arc_int__baselibs__synchronized_queue"><rect fill="#F1F1F1" height="40" id="logic_arc_int__baselibs__synchronized_queue" rx="2.5" ry="2.5" style="stroke:#181818;stroke-width:0.5;" width="348.3604" x="2991.5" y="158.5"/><ellipse cx="3006.5" cy="174.5" fill="#ADD1B2" rx="11" ry="11" style="stroke:#181818;stroke-width:1;"/><path d="M3009.4688,180.1406 Q3008.8906,180.4375 3008.25,180.5781 Q3007.6094,180.7344 3006.9063,180.7344 Q3004.4063,180.7344 3003.0781,179.0938 Q3001.7656,177.4375 3001.7656,174.3125 Q3001.7656,171.1875 3003.0781,169.5313 Q3004.4063,167.875 3006.9063,167.875 Q3007.6094,167.875 3008.25,168.0313 Q3008.9063,168.1875 3009.4688,168.4844 L3009.4688,171.2031 Q3008.8438,170.625 3008.25,170.3594 Q3007.6563,170.0781 3007.0313,170.0781 Q3005.6875,170.0781 3005,171.1563 Q3004.3125,172.2188 3004.3125,174.3125 Q3004.3125,176.4063 3005,177.4844 Q3005.6875,178.5469 3007.0313,178.5469 Q3007.6563,178.5469 3008.25,178.2813 Q3008.8438,178 3009.4688,177.4219 L3009.4688,180.1406 Z " fill="#000000"/><text fill="#000000" font-family="sans-serif" font-size="14" lengthAdjust="spacing" textLength="316.3604" x="3020.5" y="179.3467">logic_arc_int__baselibs__synchronized_queue</text><line style="stroke:#181818;stroke-width:0.5;" x1="2992.5" x2="3338.8604" y1="190.5" y2="190.5"/></g><!--class comp_arc_sta__baselibs__filesystem--><g id="elem_comp_arc_sta__baselibs__filesystem"><rect fill="#F1F1F1" height="40" id="comp_arc_sta__baselibs__filesystem" rx="2.5" ry="2.5" style="stroke:#181818;stroke-width:0.5;" width="285.4492" x="5909" y="275.5"/><ellipse cx="5924" cy="291.5" fill="#ADD1B2" rx="11" ry="11" style="stroke:#181818;stroke-width:1;"/><path d="M5926.9688,297.1406 Q5926.3906,297.4375 5925.75,297.5781 Q5925.1094,297.7344 5924.4063,297.7344 Q5921.9063,297.7344 5920.5781,296.0938 Q5919.2656,294.4375 5919.2656,291.3125 Q5919.2656,288.1875 5920.5781,286.5313 Q5921.9063,284.875 5924.4063,284.875 Q5925.1094,284.875 5925.75,285.0313 Q5926.4063,285.1875 5926.9688,285.4844 L5926.9688,288.2031 Q5926.3438,287.625 5925.75,287.3594 Q5925.1563,287.0781 5924.5313,287.0781 Q5923.1875,287.0781 5922.5,288.1563 Q5921.8125,289.2188 5921.8125,291.3125 Q5921.8125,293.4063 5922.5,294.4844 Q5923.1875,295.5469 5924.5313,295.5469 Q5925.1563,295.5469 5925.75,295.2813 Q5926.3438,295 5926.9688,294.4219 L5926.9688,297.1406 Z " fill="#000000"/><text fill="#000000" font-family="sans-serif" font-size="14" lengthAdjust="spacing" textLength="253.4492" x="5938" y="296.3467">comp_arc_sta__baselibs__filesystem</text><line style="stroke:#181818;stroke-width:0.5;" x1="5910" x2="6193.4492" y1="307.5" y2="307.5"/></g><!--class logic_arc_int__baselibs__filesystem--><g id="elem_logic_arc_int__baselibs__filesystem"><rect fill="#F1F1F1" height="40" id="logic_arc_int__baselibs__filesystem" rx="2.5" ry="2.5" style="stroke:#181818;stroke-width:0.5;" width="276.4805" x="5911.5" y="158.5"/><ellipse cx="5926.5" cy="174.5" fill="#ADD1B2" rx="11" ry="11" style="stroke:#181818;stroke-width:1;"/><path d="M5929.4688,180.1406 Q5928.8906,180.4375 5928.25,180.5781 Q5927.6094,180.7344 5926.9063,180.7344 Q5924.4063,180.7344 5923.0781,179.0938 Q5921.7656,177.4375 5921.7656,174.3125 Q5921.7656,171.1875 5923.0781,169.5313 Q5924.4063,167.875 5926.9063,167.875 Q5927.6094,167.875 5928.25,168.0313 Q5928.9063,168.1875 5929.4688,168.4844 L5929.4688,171.2031 Q5928.8438,170.625 5928.25,170.3594 Q5927.6563,170.0781 5927.0313,170.0781 Q5925.6875,170.0781 5925,171.1563 Q5924.3125,172.2188 5924.3125,174.3125 Q5924.3125,176.4063 5925,177.4844 Q5925.6875,178.5469 5927.0313,178.5469 Q5927.6563,178.5469 5928.25,178.2813 Q5928.8438,178 5929.4688,177.4219 L5929.4688,180.1406 Z " fill="#000000"/><text fill="#000000" font-family="sans-serif" font-size="14" lengthAdjust="spacing" textLength="244.4805" x="5940.5" y="179.3467">logic_arc_int__baselibs__filesystem</text><line style="stroke:#181818;stroke-width:0.5;" x1="5912.5" x2="6186.9805" y1="190.5" y2="190.5"/></g><!--class logic_arc_int__baselibs__message_passing--><g id="elem_logic_arc_int__baselibs__message_passing"><rect fill="#F1F1F1" height="40" id="logic_arc_int__baselibs__message_passing" rx="2.5" ry="2.5" style="stroke:#181818;stroke-width:0.5;" width="328.167" x="11.5" y="158.5"/><ellipse cx="26.5" cy="174.5" fill="#ADD1B2" rx="11" ry="11" style="stroke:#181818;stroke-width:1;"/><path d="M29.4688,180.1406 Q28.8906,180.4375 28.25,180.5781 Q27.6094,180.7344 26.9063,180.7344 Q24.4063,180.7344 23.0781,179.0938 Q21.7656,177.4375 21.7656,174.3125 Q21.7656,171.1875 23.0781,169.5313 Q24.4063,167.875 26.9063,167.875 Q27.6094,167.875 28.25,168.0313 Q28.9063,168.1875 29.4688,168.4844 L29.4688,171.2031 Q28.8438,170.625 28.25,170.3594 Q27.6563,170.0781 27.0313,170.0781 Q25.6875,170.0781 25,171.1563 Q24.3125,172.2188 24.3125,174.3125 Q24.3125,176.4063 25,177.4844 Q25.6875,178.5469 27.0313,178.5469 Q27.6563,178.5469 28.25,178.2813 Q28.8438,178 29.4688,177.4219 L29.4688,180.1406 Z " fill="#000000"/><text fill="#000000" font-family="sans-serif" font-size="14" lengthAdjust="spacing" textLength="296.167" x="40.5" y="179.3467">logic_arc_int__baselibs__message_passing</text><line style="stroke:#181818;stroke-width:0.5;" x1="12.5" x2="338.667" y1="190.5" y2="190.5"/></g><!--class logic_arc_int__baselibs__shared_future--><g id="elem_logic_arc_int__baselibs__shared_future"><rect fill="#F1F1F1" height="40" id="logic_arc_int__baselibs__shared_future" rx="2.5" ry="2.5" style="stroke:#181818;stroke-width:0.5;" width="302.0811" x="1739.5" y="158.5"/><ellipse cx="1754.5" cy="174.5" fill="#ADD1B2" rx="11" ry="11" style="stroke:#181818;stroke-width:1;"/><path d="M1757.4688,180.1406 Q1756.8906,180.4375 1756.25,180.5781 Q1755.6094,180.7344 1754.9063,180.7344 Q1752.4063,180.7344 1751.0781,179.0938 Q1749.7656,177.4375 1749.7656,174.3125 Q1749.7656,171.1875 1751.0781,169.5313 Q1752.4063,167.875 1754.9063,167.875 Q1755.6094,167.875 1756.25,168.0313 Q1756.9063,168.1875 1757.4688,168.4844 L1757.4688,171.2031 Q1756.8438,170.625 1756.25,170.3594 Q1755.6563,170.0781 1755.0313,170.0781 Q1753.6875,170.0781 1753,171.1563 Q1752.3125,172.2188 1752.3125,174.3125 Q1752.3125,176.4063 1753,177.4844 Q1753.6875,178.5469 1755.0313,178.5469 Q1755.6563,178.5469 1756.25,178.2813 Q1756.8438,178 1757.4688,177.4219 L1757.4688,180.1406 Z " fill="#000000"/><text fill="#000000" font-family="sans-serif" font-size="14" lengthAdjust="spacing" textLength="270.0811" x="1768.5" y="179.3467">logic_arc_int__baselibs__shared_future</text><line style="stroke:#181818;stroke-width:0.5;" x1="1740.5" x2="2040.5811" y1="190.5" y2="190.5"/></g><!--class comp_arc_sta__baselibs__utils--><g id="elem_comp_arc_sta__baselibs__utils"><rect fill="#F1F1F1" height="40" id="comp_arc_sta__baselibs__utils" rx="2.5" ry="2.5" style="stroke:#181818;stroke-width:0.5;" width="242.9502" x="5117" y="275.5"/><ellipse cx="5132" cy="291.5" fill="#ADD1B2" rx="11" ry="11" style="stroke:#181818;stroke-width:1;"/><path d="M5134.9688,297.1406 Q5134.3906,297.4375 5133.75,297.5781 Q5133.1094,297.7344 5132.4063,297.7344 Q5129.9063,297.7344 5128.5781,296.0938 Q5127.2656,294.4375 5127.2656,291.3125 Q5127.2656,288.1875 5128.5781,286.5313 Q5129.9063,284.875 5132.4063,284.875 Q5133.1094,284.875 5133.75,285.0313 Q5134.4063,285.1875 5134.9688,285.4844 L5134.9688,288.2031 Q5134.3438,287.625 5133.75,287.3594 Q5133.1563,287.0781 5132.5313,287.0781 Q5131.1875,287.0781 5130.5,288.1563 Q5129.8125,289.2188 5129.8125,291.3125 Q5129.8125,293.4063 5130.5,294.4844 Q5131.1875,295.5469 5132.5313,295.5469 Q5133.1563,295.5469 5133.75,295.2813 Q5134.3438,295 5134.9688,294.4219 L5134.9688,297.1406 Z " fill="#000000"/><text fill="#000000" font-family="sans-serif" font-size="14" lengthAdjust="spacing" textLength="210.9502" x="5146" y="296.3467">comp_arc_sta__baselibs__utils</text><line style="stroke:#181818;stroke-width:0.5;" x1="5118" x2="5358.9502" y1="307.5" y2="307.5"/></g><!--class logic_arc_int__baselibs__utils_scoped_op--><g id="elem_logic_arc_int__baselibs__utils_scoped_op"><rect fill="#F1F1F1" height="40" id="logic_arc_int__baselibs__utils_scoped_op" rx="2.5" ry="2.5" style="stroke:#181818;stroke-width:0.5;" width="315.377" x="5278" y="158.5"/><ellipse cx="5293" cy="174.5" fill="#ADD1B2" rx="11" ry="11" style="stroke:#181818;stroke-width:1;"/><path d="M5295.9688,180.1406 Q5295.3906,180.4375 5294.75,180.5781 Q5294.1094,180.7344 5293.4063,180.7344 Q5290.9063,180.7344 5289.5781,179.0938 Q5288.2656,177.4375 5288.2656,174.3125 Q5288.2656,171.1875 5289.5781,169.5313 Q5290.9063,167.875 5293.4063,167.875 Q5294.1094,167.875 5294.75,168.0313 Q5295.4063,168.1875 5295.9688,168.4844 L5295.9688,171.2031 Q5295.3438,170.625 5294.75,170.3594 Q5294.1563,170.0781 5293.5313,170.0781 Q5292.1875,170.0781 5291.5,171.1563 Q5290.8125,172.2188 5290.8125,174.3125 Q5290.8125,176.4063 5291.5,177.4844 Q5292.1875,178.5469 5293.5313,178.5469 Q5294.1563,178.5469 5294.75,178.2813 Q5295.3438,178 5295.9688,177.4219 L5295.9688,180.1406 Z " fill="#000000"/><text fill="#000000" font-family="sans-serif" font-size="14" lengthAdjust="spacing" textLength="283.377" x="5307" y="179.3467">logic_arc_int__baselibs__utils_scoped_op</text><line style="stroke:#181818;stroke-width:0.5;" x1="5279" x2="5592.377" y1="190.5" y2="190.5"/></g><!--class comp_arc_sta__baselibs__concurrency--><g id="elem_comp_arc_sta__baselibs__concurrency"><rect fill="#F1F1F1" height="40" id="comp_arc_sta__baselibs__concurrency" rx="2.5" ry="2.5" style="stroke:#181818;stroke-width:0.5;" width="300.2012" x="2243.5" y="275.5"/><ellipse cx="2258.5" cy="291.5" fill="#ADD1B2" rx="11" ry="11" style="stroke:#181818;stroke-width:1;"/><path d="M2261.4688,297.1406 Q2260.8906,297.4375 2260.25,297.5781 Q2259.6094,297.7344 2258.9063,297.7344 Q2256.4063,297.7344 2255.0781,296.0938 Q2253.7656,294.4375 2253.7656,291.3125 Q2253.7656,288.1875 2255.0781,286.5313 Q2256.4063,284.875 2258.9063,284.875 Q2259.6094,284.875 2260.25,285.0313 Q2260.9063,285.1875 2261.4688,285.4844 L2261.4688,288.2031 Q2260.8438,287.625 2260.25,287.3594 Q2259.6563,287.0781 2259.0313,287.0781 Q2257.6875,287.0781 2257,288.1563 Q2256.3125,289.2188 2256.3125,291.3125 Q2256.3125,293.4063 2257,294.4844 Q2257.6875,295.5469 2259.0313,295.5469 Q2259.6563,295.5469 2260.25,295.2813 Q2260.8438,295 2261.4688,294.4219 L2261.4688,297.1406 Z " fill="#000000"/><text fill="#000000" font-family="sans-serif" font-size="14" lengthAdjust="spacing" textLength="268.2012" x="2272.5" y="296.3467">comp_arc_sta__baselibs__concurrency</text><line style="stroke:#181818;stroke-width:0.5;" x1="2244.5" x2="2542.7012" y1="307.5" y2="307.5"/></g><!--class logic_arc_int__baselibs__task--><g id="elem_logic_arc_int__baselibs__task"><rect fill="#F1F1F1" height="40" id="logic_arc_int__baselibs__task" rx="2.5" ry="2.5" style="stroke:#181818;stroke-width:0.5;" width="234.0156" x="1470.5" y="158.5"/><ellipse cx="1485.5" cy="174.5" fill="#ADD1B2" rx="11" ry="11" style="stroke:#181818;stroke-width:1;"/><path d="M1488.4688,180.1406 Q1487.8906,180.4375 1487.25,180.5781 Q1486.6094,180.7344 1485.9063,180.7344 Q1483.4063,180.7344 1482.0781,179.0938 Q1480.7656,177.4375 1480.7656,174.3125 Q1480.7656,171.1875 1482.0781,169.5313 Q1483.4063,167.875 1485.9063,167.875 Q1486.6094,167.875 1487.25,168.0313 Q1487.9063,168.1875 1488.4688,168.4844 L1488.4688,171.2031 Q1487.8438,170.625 1487.25,170.3594 Q1486.6563,170.0781 1486.0313,170.0781 Q1484.6875,170.0781 1484,171.1563 Q1483.3125,172.2188 1483.3125,174.3125 Q1483.3125,176.4063 1484,177.4844 Q1484.6875,178.5469 1486.0313,178.5469 Q1486.6563,178.5469 1487.25,178.2813 Q1487.8438,178 1488.4688,177.4219 L1488.4688,180.1406 Z " fill="#000000"/><text fill="#000000" font-family="sans-serif" font-size="14" lengthAdjust="spacing" textLength="202.0156" x="1499.5" y="179.3467">logic_arc_int__baselibs__task</text><line style="stroke:#181818;stroke-width:0.5;" x1="1471.5" x2="1703.5156" y1="190.5" y2="190.5"/></g><!--class logic_arc_int__baselibs__executor--><g id="elem_logic_arc_int__baselibs__executor"><rect fill="#F1F1F1" height="40" id="logic_arc_int__baselibs__executor" rx="2.5" ry="2.5" style="stroke:#181818;stroke-width:0.5;" width="266.4385" x="2373.5" y="158.5"/><ellipse cx="2388.5" cy="174.5" fill="#ADD1B2" rx="11" ry="11" style="stroke:#181818;stroke-width:1;"/><path d="M2391.4688,180.1406 Q2390.8906,180.4375 2390.25,180.5781 Q2389.6094,180.7344 2388.9063,180.7344 Q2386.4063,180.7344 2385.0781,179.0938 Q2383.7656,177.4375 2383.7656,174.3125 Q2383.7656,171.1875 2385.0781,169.5313 Q2386.4063,167.875 2388.9063,167.875 Q2389.6094,167.875 2390.25,168.0313 Q2390.9063,168.1875 2391.4688,168.4844 L2391.4688,171.2031 Q2390.8438,170.625 2390.25,170.3594 Q2389.6563,170.0781 2389.0313,170.0781 Q2387.6875,170.0781 2387,171.1563 Q2386.3125,172.2188 2386.3125,174.3125 Q2386.3125,176.4063 2387,177.4844 Q2387.6875,178.5469 2389.0313,178.5469 Q2389.6563,178.5469 2390.25,178.2813 Q2390.8438,178 2391.4688,177.4219 L2391.4688,180.1406 Z " fill="#000000"/><text fill="#000000" font-family="sans-serif" font-size="14" lengthAdjust="spacing" textLength="234.4385" x="2402.5" y="179.3467">logic_arc_int__baselibs__executor</text><line style="stroke:#181818;stroke-width:0.5;" x1="2374.5" x2="2638.9385" y1="190.5" y2="190.5"/></g><!--class logic_arc_int__baselibs__bit_mask_operator--><g id="elem_logic_arc_int__baselibs__bit_mask_operator"><rect fill="#F1F1F1" height="40" id="logic_arc_int__baselibs__bit_mask_operator" rx="2.5" ry="2.5" style="stroke:#181818;stroke-width:0.5;" width="334.6406" x="732" y="158.5"/><ellipse cx="747" cy="174.5" fill="#ADD1B2" rx="11" ry="11" style="stroke:#181818;stroke-width:1;"/><path d="M749.9688,180.1406 Q749.3906,180.4375 748.75,180.5781 Q748.1094,180.7344 747.4063,180.7344 Q744.9063,180.7344 743.5781,179.0938 Q742.2656,177.4375 742.2656,174.3125 Q742.2656,171.1875 743.5781,169.5313 Q744.9063,167.875 747.4063,167.875 Q748.1094,167.875 748.75,168.0313 Q749.4063,168.1875 749.9688,168.4844 L749.9688,171.2031 Q749.3438,170.625 748.75,170.3594 Q748.1563,170.0781 747.5313,170.0781 Q746.1875,170.0781 745.5,171.1563 Q744.8125,172.2188 744.8125,174.3125 Q744.8125,176.4063 745.5,177.4844 Q746.1875,178.5469 747.5313,178.5469 Q748.1563,178.5469 748.75,178.2813 Q749.3438,178 749.9688,177.4219 L749.9688,180.1406 Z " fill="#000000"/><text fill="#000000" font-family="sans-serif" font-size="14" lengthAdjust="spacing" textLength="302.6406" x="761" y="179.3467">logic_arc_int__baselibs__bit_mask_operator</text><line style="stroke:#181818;stroke-width:0.5;" x1="733" x2="1065.6406" y1="190.5" y2="190.5"/></g><!--class comp_arc_sta__baselibs__containers--><g id="elem_comp_arc_sta__baselibs__containers"><rect fill="#F1F1F1" height="40" id="comp_arc_sta__baselibs__containers" rx="2.5" ry="2.5" style="stroke:#181818;stroke-width:0.5;" width="287.1445" x="4076" y="275.5"/><ellipse cx="4091" cy="291.5" fill="#ADD1B2" rx="11" ry="11" style="stroke:#181818;stroke-width:1;"/><path d="M4093.9688,297.1406 Q4093.3906,297.4375 4092.75,297.5781 Q4092.1094,297.7344 4091.4063,297.7344 Q4088.9063,297.7344 4087.5781,296.0938 Q4086.2656,294.4375 4086.2656,291.3125 Q4086.2656,288.1875 4087.5781,286.5313 Q4088.9063,284.875 4091.4063,284.875 Q4092.1094,284.875 4092.75,285.0313 Q4093.4063,285.1875 4093.9688,285.4844 L4093.9688,288.2031 Q4093.3438,287.625 4092.75,287.3594 Q4092.1563,287.0781 4091.5313,287.0781 Q4090.1875,287.0781 4089.5,288.1563 Q4088.8125,289.2188 4088.8125,291.3125 Q4088.8125,293.4063 4089.5,294.4844 Q4090.1875,295.5469 4091.5313,295.5469 Q4092.1563,295.5469 4092.75,295.2813 Q4093.3438,295 4093.9688,294.4219 L4093.9688,297.1406 Z " fill="#000000"/><text fill="#000000" font-family="sans-serif" font-size="14" lengthAdjust="spacing" textLength="255.1445" x="4105" y="296.3467">comp_arc_sta__baselibs__containers</text><line style="stroke:#181818;stroke-width:0.5;" x1="4077" x2="4362.1445" y1="307.5" y2="307.5"/></g><!--class logic_arc_int__baselibs__intrusive_list--><g id="elem_logic_arc_int__baselibs__intrusive_list"><rect fill="#F1F1F1" height="40" id="logic_arc_int__baselibs__intrusive_list" rx="2.5" ry="2.5" style="stroke:#181818;stroke-width:0.5;" width="293.0713" x="4269" y="158.5"/><ellipse cx="4284" cy="174.5" fill="#ADD1B2" rx="11" ry="11" style="stroke:#181818;stroke-width:1;"/><path d="M4286.9688,180.1406 Q4286.3906,180.4375 4285.75,180.5781 Q4285.1094,180.7344 4284.4063,180.7344 Q4281.9063,180.7344 4280.5781,179.0938 Q4279.2656,177.4375 4279.2656,174.3125 Q4279.2656,171.1875 4280.5781,169.5313 Q4281.9063,167.875 4284.4063,167.875 Q4285.1094,167.875 4285.75,168.0313 Q4286.4063,168.1875 4286.9688,168.4844 L4286.9688,171.2031 Q4286.3438,170.625 4285.75,170.3594 Q4285.1563,170.0781 4284.5313,170.0781 Q4283.1875,170.0781 4282.5,171.1563 Q4281.8125,172.2188 4281.8125,174.3125 Q4281.8125,176.4063 4282.5,177.4844 Q4283.1875,178.5469 4284.5313,178.5469 Q4285.1563,178.5469 4285.75,178.2813 Q4286.3438,178 4286.9688,177.4219 L4286.9688,180.1406 Z " fill="#000000"/><text fill="#000000" font-family="sans-serif" font-size="14" lengthAdjust="spacing" textLength="261.0713" x="4298" y="179.3467">logic_arc_int__baselibs__intrusive_list</text><line style="stroke:#181818;stroke-width:0.5;" x1="4270" x2="4561.0713" y1="190.5" y2="190.5"/></g><!--class comp_arc_sta__baselibs__result--><g id="elem_comp_arc_sta__baselibs__result"><rect fill="#F1F1F1" height="40" id="comp_arc_sta__baselibs__result" rx="2.5" ry="2.5" style="stroke:#181818;stroke-width:0.5;" width="253.4297" x="5621" y="275.5"/><ellipse cx="5636" cy="291.5" fill="#ADD1B2" rx="11" ry="11" style="stroke:#181818;stroke-width:1;"/><path d="M5638.9688,297.1406 Q5638.3906,297.4375 5637.75,297.5781 Q5637.1094,297.7344 5636.4063,297.7344 Q5633.9063,297.7344 5632.5781,296.0938 Q5631.2656,294.4375 5631.2656,291.3125 Q5631.2656,288.1875 5632.5781,286.5313 Q5633.9063,284.875 5636.4063,284.875 Q5637.1094,284.875 5637.75,285.0313 Q5638.4063,285.1875 5638.9688,285.4844 L5638.9688,288.2031 Q5638.3438,287.625 5637.75,287.3594 Q5637.1563,287.0781 5636.5313,287.0781 Q5635.1875,287.0781 5634.5,288.1563 Q5633.8125,289.2188 5633.8125,291.3125 Q5633.8125,293.4063 5634.5,294.4844 Q5635.1875,295.5469 5636.5313,295.5469 Q5637.1563,295.5469 5637.75,295.2813 Q5638.3438,295 5638.9688,294.4219 L5638.9688,297.1406 Z " fill="#000000"/><text fill="#000000" font-family="sans-serif" font-size="14" lengthAdjust="spacing" textLength="221.4297" x="5650" y="296.3467">comp_arc_sta__baselibs__result</text><line style="stroke:#181818;stroke-width:0.5;" x1="5622" x2="5873.4297" y1="307.5" y2="307.5"/></g><!--class logic_arc_int__baselibs__result--><g id="elem_logic_arc_int__baselibs__result"><rect fill="#F1F1F1" height="40" id="logic_arc_int__baselibs__result" rx="2.5" ry="2.5" style="stroke:#181818;stroke-width:0.5;" width="244.4609" x="5628.5" y="158.5"/><ellipse cx="5643.5" cy="174.5" fill="#ADD1B2" rx="11" ry="11" style="stroke:#181818;stroke-width:1;"/><path d="M5646.4688,180.1406 Q5645.8906,180.4375 5645.25,180.5781 Q5644.6094,180.7344 5643.9063,180.7344 Q5641.4063,180.7344 5640.0781,179.0938 Q5638.7656,177.4375 5638.7656,174.3125 Q5638.7656,171.1875 5640.0781,169.5313 Q5641.4063,167.875 5643.9063,167.875 Q5644.6094,167.875 5645.25,168.0313 Q5645.9063,168.1875 5646.4688,168.4844 L5646.4688,171.2031 Q5645.8438,170.625 5645.25,170.3594 Q5644.6563,170.0781 5644.0313,170.0781 Q5642.6875,170.0781 5642,171.1563 Q5641.3125,172.2188 5641.3125,174.3125 Q5641.3125,176.4063 5642,177.4844 Q5642.6875,178.5469 5644.0313,178.5469 Q5644.6563,178.5469 5645.25,178.2813 Q5645.8438,178 5646.4688,177.4219 L5646.4688,180.1406 Z " fill="#000000"/><text fill="#000000" font-family="sans-serif" font-size="14" lengthAdjust="spacing" textLength="212.4609" x="5657.5" y="179.3467">logic_arc_int__baselibs__result</text><line style="stroke:#181818;stroke-width:0.5;" x1="5629.5" x2="5871.9609" y1="190.5" y2="190.5"/></g><!--class comp_arc_sta__baselibs__bit_manipulation--><g id="elem_comp_arc_sta__baselibs__bit_manipulation"><rect fill="#F1F1F1" height="40" id="comp_arc_sta__baselibs__bit_manipulation" rx="2.5" ry="2.5" style="stroke:#181818;stroke-width:0.5;" width="330.8057" x="521" y="275.5"/><ellipse cx="536" cy="291.5" fill="#ADD1B2" rx="11" ry="11" style="stroke:#181818;stroke-width:1;"/><path d="M538.9688,297.1406 Q538.3906,297.4375 537.75,297.5781 Q537.1094,297.7344 536.4063,297.7344 Q533.9063,297.7344 532.5781,296.0938 Q531.2656,294.4375 531.2656,291.3125 Q531.2656,288.1875 532.5781,286.5313 Q533.9063,284.875 536.4063,284.875 Q537.1094,284.875 537.75,285.0313 Q538.4063,285.1875 538.9688,285.4844 L538.9688,288.2031 Q538.3438,287.625 537.75,287.3594 Q537.1563,287.0781 536.5313,287.0781 Q535.1875,287.0781 534.5,288.1563 Q533.8125,289.2188 533.8125,291.3125 Q533.8125,293.4063 534.5,294.4844 Q535.1875,295.5469 536.5313,295.5469 Q537.1563,295.5469 537.75,295.2813 Q538.3438,295 538.9688,294.4219 L538.9688,297.1406 Z " fill="#000000"/><text fill="#000000" font-family="sans-serif" font-size="14" lengthAdjust="spacing" textLength="298.8057" x="550" y="296.3467">comp_arc_sta__baselibs__bit_manipulation</text><line style="stroke:#181818;stroke-width:0.5;" x1="522" x2="850.8057" y1="307.5" y2="307.5"/></g><!--class comp_arc_sta__baselibs__memory_shared--><g id="elem_comp_arc_sta__baselibs__memory_shared"><rect fill="#F1F1F1" height="40" id="comp_arc_sta__baselibs__memory_shared" rx="2.5" ry="2.5" style="stroke:#181818;stroke-width:0.5;" width="327.0117" x="4593" y="275.5"/><ellipse cx="4608" cy="291.5" fill="#ADD1B2" rx="11" ry="11" style="stroke:#181818;stroke-width:1;"/><path d="M4610.9688,297.1406 Q4610.3906,297.4375 4609.75,297.5781 Q4609.1094,297.7344 4608.4063,297.7344 Q4605.9063,297.7344 4604.5781,296.0938 Q4603.2656,294.4375 4603.2656,291.3125 Q4603.2656,288.1875 4604.5781,286.5313 Q4605.9063,284.875 4608.4063,284.875 Q4609.1094,284.875 4609.75,285.0313 Q4610.4063,285.1875 4610.9688,285.4844 L4610.9688,288.2031 Q4610.3438,287.625 4609.75,287.3594 Q4609.1563,287.0781 4608.5313,287.0781 Q4607.1875,287.0781 4606.5,288.1563 Q4605.8125,289.2188 4605.8125,291.3125 Q4605.8125,293.4063 4606.5,294.4844 Q4607.1875,295.5469 4608.5313,295.5469 Q4609.1563,295.5469 4609.75,295.2813 Q4610.3438,295 4610.9688,294.4219 L4610.9688,297.1406 Z " fill="#000000"/><text fill="#000000" font-family="sans-serif" font-size="14" lengthAdjust="spacing" textLength="295.0117" x="4622" y="296.3467">comp_arc_sta__baselibs__memory_shared</text><line style="stroke:#181818;stroke-width:0.5;" x1="4594" x2="4919.0117" y1="307.5" y2="307.5"/></g><!--class logic_arc_int__baselibs__memory_shared--><g id="elem_logic_arc_int__baselibs__memory_shared"><rect fill="#F1F1F1" height="40" id="logic_arc_int__baselibs__memory_shared" rx="2.5" ry="2.5" style="stroke:#181818;stroke-width:0.5;" width="318.043" x="4597.5" y="158.5"/><ellipse cx="4612.5" cy="174.5" fill="#ADD1B2" rx="11" ry="11" style="stroke:#181818;stroke-width:1;"/><path d="M4615.4688,180.1406 Q4614.8906,180.4375 4614.25,180.5781 Q4613.6094,180.7344 4612.9063,180.7344 Q4610.4063,180.7344 4609.0781,179.0938 Q4607.7656,177.4375 4607.7656,174.3125 Q4607.7656,171.1875 4609.0781,169.5313 Q4610.4063,167.875 4612.9063,167.875 Q4613.6094,167.875 4614.25,168.0313 Q4614.9063,168.1875 4615.4688,168.4844 L4615.4688,171.2031 Q4614.8438,170.625 4614.25,170.3594 Q4613.6563,170.0781 4613.0313,170.0781 Q4611.6875,170.0781 4611,171.1563 Q4610.3125,172.2188 4610.3125,174.3125 Q4610.3125,176.4063 4611,177.4844 Q4611.6875,178.5469 4613.0313,178.5469 Q4613.6563,178.5469 4614.25,178.2813 Q4614.8438,178 4615.4688,177.4219 L4615.4688,180.1406 Z " fill="#000000"/><text fill="#000000" font-family="sans-serif" font-size="14" lengthAdjust="spacing" textLength="286.043" x="4626.5" y="179.3467">logic_arc_int__baselibs__memory_shared</text><line style="stroke:#181818;stroke-width:0.5;" x1="4598.5" x2="4914.543" y1="190.5" y2="190.5"/></g><!--class comp_arc_sta__baselibs__json--><g id="elem_comp_arc_sta__baselibs__json"><rect fill="#F1F1F1" height="40" id="comp_arc_sta__baselibs__json" rx="2.5" ry="2.5" style="stroke:#181818;stroke-width:0.5;" width="242.1367" x="3652.5" y="275.5"/><ellipse cx="3667.5" cy="291.5" fill="#ADD1B2" rx="11" ry="11" style="stroke:#181818;stroke-width:1;"/><path d="M3670.4688,297.1406 Q3669.8906,297.4375 3669.25,297.5781 Q3668.6094,297.7344 3667.9063,297.7344 Q3665.4063,297.7344 3664.0781,296.0938 Q3662.7656,294.4375 3662.7656,291.3125 Q3662.7656,288.1875 3664.0781,286.5313 Q3665.4063,284.875 3667.9063,284.875 Q3668.6094,284.875 3669.25,285.0313 Q3669.9063,285.1875 3670.4688,285.4844 L3670.4688,288.2031 Q3669.8438,287.625 3669.25,287.3594 Q3668.6563,287.0781 3668.0313,287.0781 Q3666.6875,287.0781 3666,288.1563 Q3665.3125,289.2188 3665.3125,291.3125 Q3665.3125,293.4063 3666,294.4844 Q3666.6875,295.5469 3668.0313,295.5469 Q3668.6563,295.5469 3669.25,295.2813 Q3669.8438,295 3670.4688,294.4219 L3670.4688,297.1406 Z " fill="#000000"/><text fill="#000000" font-family="sans-serif" font-size="14" lengthAdjust="spacing" textLength="210.1367" x="3681.5" y="296.3467">comp_arc_sta__baselibs__json</text><line style="stroke:#181818;stroke-width:0.5;" x1="3653.5" x2="3893.6367" y1="307.5" y2="307.5"/></g><!--class logic_arc_int__baselibs__json--><g id="elem_logic_arc_int__baselibs__json"><rect fill="#F1F1F1" height="40" id="logic_arc_int__baselibs__json" rx="2.5" ry="2.5" style="stroke:#181818;stroke-width:0.5;" width="233.168" x="3657" y="158.5"/><ellipse cx="3672" cy="174.5" fill="#ADD1B2" rx="11" ry="11" style="stroke:#181818;stroke-width:1;"/><path d="M3674.9688,180.1406 Q3674.3906,180.4375 3673.75,180.5781 Q3673.1094,180.7344 3672.4063,180.7344 Q3669.9063,180.7344 3668.5781,179.0938 Q3667.2656,177.4375 3667.2656,174.3125 Q3667.2656,171.1875 3668.5781,169.5313 Q3669.9063,167.875 3672.4063,167.875 Q3673.1094,167.875 3673.75,168.0313 Q3674.4063,168.1875 3674.9688,168.4844 L3674.9688,171.2031 Q3674.3438,170.625 3673.75,170.3594 Q3673.1563,170.0781 3672.5313,170.0781 Q3671.1875,170.0781 3670.5,171.1563 Q3669.8125,172.2188 3669.8125,174.3125 Q3669.8125,176.4063 3670.5,177.4844 Q3671.1875,178.5469 3672.5313,178.5469 Q3673.1563,178.5469 3673.75,178.2813 Q3674.3438,178 3674.9688,177.4219 L3674.9688,180.1406 Z " fill="#000000"/><text fill="#000000" font-family="sans-serif" font-size="14" lengthAdjust="spacing" textLength="201.168" x="3686" y="179.3467">logic_arc_int__baselibs__json</text><line style="stroke:#181818;stroke-width:0.5;" x1="3658" x2="3889.168" y1="190.5" y2="190.5"/></g><!--class logic_arc_int__baselibs__condition_variable--><g id="elem_logic_arc_int__baselibs__condition_variable"><rect fill="#F1F1F1" height="40" id="logic_arc_int__baselibs__condition_variable" rx="2.5" ry="2.5" style="stroke:#181818;stroke-width:0.5;" width="332.7539" x="1102" y="158.5"/><ellipse cx="1117" cy="174.5" fill="#ADD1B2" rx="11" ry="11" style="stroke:#181818;stroke-width:1;"/><path d="M1119.9688,180.1406 Q1119.3906,180.4375 1118.75,180.5781 Q1118.1094,180.7344 1117.4063,180.7344 Q1114.9063,180.7344 1113.5781,179.0938 Q1112.2656,177.4375 1112.2656,174.3125 Q1112.2656,171.1875 1113.5781,169.5313 Q1114.9063,167.875 1117.4063,167.875 Q1118.1094,167.875 1118.75,168.0313 Q1119.4063,168.1875 1119.9688,168.4844 L1119.9688,171.2031 Q1119.3438,170.625 1118.75,170.3594 Q1118.1563,170.0781 1117.5313,170.0781 Q1116.1875,170.0781 1115.5,171.1563 Q1114.8125,172.2188 1114.8125,174.3125 Q1114.8125,176.4063 1115.5,177.4844 Q1116.1875,178.5469 1117.5313,178.5469 Q1118.1563,178.5469 1118.75,178.2813 Q1119.3438,178 1119.9688,177.4219 L1119.9688,180.1406 Z " fill="#000000"/><text fill="#000000" font-family="sans-serif" font-size="14" lengthAdjust="spacing" textLength="300.7539" x="1131" y="179.3467">logic_arc_int__baselibs__condition_variable</text><line style="stroke:#181818;stroke-width:0.5;" x1="1103" x2="1433.7539" y1="190.5" y2="190.5"/></g><!--class logic_arc_int__baselibs__utils_base64--><g id="elem_logic_arc_int__baselibs__utils_base64"><rect fill="#F1F1F1" height="40" id="logic_arc_int__baselibs__utils_base64" rx="2.5" ry="2.5" style="stroke:#181818;stroke-width:0.5;" width="292.1689" x="4950.5" y="158.5"/><ellipse cx="4965.5" cy="174.5" fill="#ADD1B2" rx="11" ry="11" style="stroke:#181818;stroke-width:1;"/><path d="M4968.4688,180.1406 Q4967.8906,180.4375 4967.25,180.5781 Q4966.6094,180.7344 4965.9063,180.7344 Q4963.4063,180.7344 4962.0781,179.0938 Q4960.7656,177.4375 4960.7656,174.3125 Q4960.7656,171.1875 4962.0781,169.5313 Q4963.4063,167.875 4965.9063,167.875 Q4966.6094,167.875 4967.25,168.0313 Q4967.9063,168.1875 4968.4688,168.4844 L4968.4688,171.2031 Q4967.8438,170.625 4967.25,170.3594 Q4966.6563,170.0781 4966.0313,170.0781 Q4964.6875,170.0781 4964,171.1563 Q4963.3125,172.2188 4963.3125,174.3125 Q4963.3125,176.4063 4964,177.4844 Q4964.6875,178.5469 4966.0313,178.5469 Q4966.6563,178.5469 4967.25,178.2813 Q4967.8438,178 4968.4688,177.4219 L4968.4688,180.1406 Z " fill="#000000"/><text fill="#000000" font-family="sans-serif" font-size="14" lengthAdjust="spacing" textLength="260.1689" x="4979.5" y="179.3467">logic_arc_int__baselibs__utils_base64</text><line style="stroke:#181818;stroke-width:0.5;" x1="4951.5" x2="5241.6689" y1="190.5" y2="190.5"/></g><!--class logic_arc_int__baselibs__promise--><g id="elem_logic_arc_int__baselibs__promise"><rect fill="#F1F1F1" height="40" id="logic_arc_int__baselibs__promise" rx="2.5" ry="2.5" style="stroke:#181818;stroke-width:0.5;" width="261.1885" x="2077" y="158.5"/><ellipse cx="2092" cy="174.5" fill="#ADD1B2" rx="11" ry="11" style="stroke:#181818;stroke-width:1;"/><path d="M2094.9688,180.1406 Q2094.3906,180.4375 2093.75,180.5781 Q2093.1094,180.7344 2092.4063,180.7344 Q2089.9063,180.7344 2088.5781,179.0938 Q2087.2656,177.4375 2087.2656,174.3125 Q2087.2656,171.1875 2088.5781,169.5313 Q2089.9063,167.875 2092.4063,167.875 Q2093.1094,167.875 2093.75,168.0313 Q2094.4063,168.1875 2094.9688,168.4844 L2094.9688,171.2031 Q2094.3438,170.625 2093.75,170.3594 Q2093.1563,170.0781 2092.5313,170.0781 Q2091.1875,170.0781 2090.5,171.1563 Q2089.8125,172.2188 2089.8125,174.3125 Q2089.8125,176.4063 2090.5,177.4844 Q2091.1875,178.5469 2092.5313,178.5469 Q2093.1563,178.5469 2093.75,178.2813 Q2094.3438,178 2094.9688,177.4219 L2094.9688,180.1406 Z " fill="#000000"/><text fill="#000000" font-family="sans-serif" font-size="14" lengthAdjust="spacing" textLength="229.1885" x="2106" y="179.3467">logic_arc_int__baselibs__promise</text><line style="stroke:#181818;stroke-width:0.5;" x1="2078" x2="2337.1885" y1="190.5" y2="190.5"/></g><!--class logic_arc_int__baselibs__bit_manipulation--><g id="elem_logic_arc_int__baselibs__bit_manipulation"><rect fill="#F1F1F1" height="40" id="logic_arc_int__baselibs__bit_manipulation" rx="2.5" ry="2.5" style="stroke:#181818;stroke-width:0.5;" width="321.8369" x="374.5" y="158.5"/><ellipse cx="389.5" cy="174.5" fill="#ADD1B2" rx="11" ry="11" style="stroke:#181818;stroke-width:1;"/><path d="M392.4688,180.1406 Q391.8906,180.4375 391.25,180.5781 Q390.6094,180.7344 389.9063,180.7344 Q387.4063,180.7344 386.0781,179.0938 Q384.7656,177.4375 384.7656,174.3125 Q384.7656,171.1875 386.0781,169.5313 Q387.4063,167.875 389.9063,167.875 Q390.6094,167.875 391.25,168.0313 Q391.9063,168.1875 392.4688,168.4844 L392.4688,171.2031 Q391.8438,170.625 391.25,170.3594 Q390.6563,170.0781 390.0313,170.0781 Q388.6875,170.0781 388,171.1563 Q387.3125,172.2188 387.3125,174.3125 Q387.3125,176.4063 388,177.4844 Q388.6875,178.5469 390.0313,178.5469 Q390.6563,178.5469 391.25,178.2813 Q391.8438,178 392.4688,177.4219 L392.4688,180.1406 Z " fill="#000000"/><text fill="#000000" font-family="sans-serif" font-size="14" lengthAdjust="spacing" textLength="289.8369" x="403.5" y="179.3467">logic_arc_int__baselibs__bit_manipulation</text><line style="stroke:#181818;stroke-width:0.5;" x1="375.5" x2="695.3369" y1="190.5" y2="190.5"/></g><!--class logic_arc_int__baselibs__dynamic_array--><g id="elem_logic_arc_int__baselibs__dynamic_array"><rect fill="#F1F1F1" height="40" id="logic_arc_int__baselibs__dynamic_array" rx="2.5" ry="2.5" style="stroke:#181818;stroke-width:0.5;" width="308.3496" x="3925.5" y="158.5"/><ellipse cx="3940.5" cy="174.5" fill="#ADD1B2" rx="11" ry="11" style="stroke:#181818;stroke-width:1;"/><path d="M3943.4688,180.1406 Q3942.8906,180.4375 3942.25,180.5781 Q3941.6094,180.7344 3940.9063,180.7344 Q3938.4063,180.7344 3937.0781,179.0938 Q3935.7656,177.4375 3935.7656,174.3125 Q3935.7656,171.1875 3937.0781,169.5313 Q3938.4063,167.875 3940.9063,167.875 Q3941.6094,167.875 3942.25,168.0313 Q3942.9063,168.1875 3943.4688,168.4844 L3943.4688,171.2031 Q3942.8438,170.625 3942.25,170.3594 Q3941.6563,170.0781 3941.0313,170.0781 Q3939.6875,170.0781 3939,171.1563 Q3938.3125,172.2188 3938.3125,174.3125 Q3938.3125,176.4063 3939,177.4844 Q3939.6875,178.5469 3941.0313,178.5469 Q3941.6563,178.5469 3942.25,178.2813 Q3942.8438,178 3943.4688,177.4219 L3943.4688,180.1406 Z " fill="#000000"/><text fill="#000000" font-family="sans-serif" font-size="14" lengthAdjust="spacing" textLength="276.3496" x="3954.5" y="179.3467">logic_arc_int__baselibs__dynamic_array</text><line style="stroke:#181818;stroke-width:0.5;" x1="3926.5" x2="4232.8496" y1="190.5" y2="190.5"/></g><!--class logic_arc_int__baselibs__future--><g id="elem_logic_arc_int__baselibs__future"><rect fill="#F1F1F1" height="40" id="logic_arc_int__baselibs__future" rx="2.5" ry="2.5" style="stroke:#181818;stroke-width:0.5;" width="247.0791" x="3375" y="158.5"/><ellipse cx="3390" cy="174.5" fill="#ADD1B2" rx="11" ry="11" style="stroke:#181818;stroke-width:1;"/><path d="M3392.9688,180.1406 Q3392.3906,180.4375 3391.75,180.5781 Q3391.1094,180.7344 3390.4063,180.7344 Q3387.9063,180.7344 3386.5781,179.0938 Q3385.2656,177.4375 3385.2656,174.3125 Q3385.2656,171.1875 3386.5781,169.5313 Q3387.9063,167.875 3390.4063,167.875 Q3391.1094,167.875 3391.75,168.0313 Q3392.4063,168.1875 3392.9688,168.4844 L3392.9688,171.2031 Q3392.3438,170.625 3391.75,170.3594 Q3391.1563,170.0781 3390.5313,170.0781 Q3389.1875,170.0781 3388.5,171.1563 Q3387.8125,172.2188 3387.8125,174.3125 Q3387.8125,176.4063 3388.5,177.4844 Q3389.1875,178.5469 3390.5313,178.5469 Q3391.1563,178.5469 3391.75,178.2813 Q3392.3438,178 3392.9688,177.4219 L3392.9688,180.1406 Z " fill="#000000"/><text fill="#000000" font-family="sans-serif" font-size="14" lengthAdjust="spacing" textLength="215.0791" x="3404" y="179.3467">logic_arc_int__baselibs__future</text><line style="stroke:#181818;stroke-width:0.5;" x1="3376" x2="3621.0791" y1="190.5" y2="190.5"/></g><!--class logic_arc_int__baselibs__task_result--><g id="elem_logic_arc_int__baselibs__task_result"><rect fill="#F1F1F1" height="40" id="logic_arc_int__baselibs__task_result" rx="2.5" ry="2.5" style="stroke:#181818;stroke-width:0.5;" width="280.9307" x="2675" y="158.5"/><ellipse cx="2690" cy="174.5" fill="#ADD1B2" rx="11" ry="11" style="stroke:#181818;stroke-width:1;"/><path d="M2692.9688,180.1406 Q2692.3906,180.4375 2691.75,180.5781 Q2691.1094,180.7344 2690.4063,180.7344 Q2687.9063,180.7344 2686.5781,179.0938 Q2685.2656,177.4375 2685.2656,174.3125 Q2685.2656,171.1875 2686.5781,169.5313 Q2687.9063,167.875 2690.4063,167.875 Q2691.1094,167.875 2691.75,168.0313 Q2692.4063,168.1875 2692.9688,168.4844 L2692.9688,171.2031 Q2692.3438,170.625 2691.75,170.3594 Q2691.1563,170.0781 2690.5313,170.0781 Q2689.1875,170.0781 2688.5,171.1563 Q2687.8125,172.2188 2687.8125,174.3125 Q2687.8125,176.4063 2688.5,177.4844 Q2689.1875,178.5469 2690.5313,178.5469 Q2691.1563,178.5469 2691.75,178.2813 Q2692.3438,178 2692.9688,177.4219 L2692.9688,180.1406 Z " fill="#000000"/><text fill="#000000" font-family="sans-serif" font-size="14" lengthAdjust="spacing" textLength="248.9307" x="2704" y="179.3467">logic_arc_int__baselibs__task_result</text><line style="stroke:#181818;stroke-width:0.5;" x1="2676" x2="2954.9307" y1="190.5" y2="190.5"/></g><!--class comp_arc_sta__baselibs__message_passing--><g id="elem_comp_arc_sta__baselibs__message_passing"><rect fill="#F1F1F1" height="40" id="comp_arc_sta__baselibs__message_passing" rx="2.5" ry="2.5" style="stroke:#181818;stroke-width:0.5;" width="337.1357" x="7" y="275.5"/><ellipse cx="22" cy="291.5" fill="#ADD1B2" rx="11" ry="11" style="stroke:#181818;stroke-width:1;"/><path d="M24.9688,297.1406 Q24.3906,297.4375 23.75,297.5781 Q23.1094,297.7344 22.4063,297.7344 Q19.9063,297.7344 18.5781,296.0938 Q17.2656,294.4375 17.2656,291.3125 Q17.2656,288.1875 18.5781,286.5313 Q19.9063,284.875 22.4063,284.875 Q23.1094,284.875 23.75,285.0313 Q24.4063,285.1875 24.9688,285.4844 L24.9688,288.2031 Q24.3438,287.625 23.75,287.3594 Q23.1563,287.0781 22.5313,287.0781 Q21.1875,287.0781 20.5,288.1563 Q19.8125,289.2188 19.8125,291.3125 Q19.8125,293.4063 20.5,294.4844 Q21.1875,295.5469 22.5313,295.5469 Q23.1563,295.5469 23.75,295.2813 Q24.3438,295 24.9688,294.4219 L24.9688,297.1406 Z " fill="#000000"/><text fill="#000000" font-family="sans-serif" font-size="14" lengthAdjust="spacing" textLength="305.1357" x="36" y="296.3467">comp_arc_sta__baselibs__message_passing</text><line style="stroke:#181818;stroke-width:0.5;" x1="8" x2="343.1357" y1="307.5" y2="307.5"/></g><!--link Feature_User to logic_arc_int__baselibs__synchronized_queue--><g id="link_Feature_User_logic_arc_int__baselibs__synchronized_queue"><path codeLine="15" d="M3165.5,81.55 C3165.5,106.45 3165.5,132.26 3165.5,152.26 " fill="transparent" id="Feature_User-to-logic_arc_int__baselibs__synchronized_queue" style="stroke:#181818;stroke-width:1;"/><polygon fill="#181818" points="3165.5,158.26,3169.5,149.26,3165.5,153.26,3161.5,149.26,3165.5,158.26" style="stroke:#181818;stroke-width:1;"/><text fill="#000000" font-family="sans-serif" font-size="13" lengthAdjust="spacing" textLength="23.0103" x="3166.5" y="124.5669">use</text></g><!--reverse link logic_arc_int__baselibs__filesystem to comp_arc_sta__baselibs__filesystem--><g id="link_logic_arc_int__baselibs__filesystem_comp_arc_sta__baselibs__filesystem"><path codeLine="16" d="M6049.9346,204.7491 C6050.3046,225.9791 6050.79,253.94 6051.16,275.19 " fill="transparent" id="logic_arc_int__baselibs__filesystem-backto-comp_arc_sta__baselibs__filesystem" style="stroke:#181818;stroke-width:1;"/><polygon fill="#181818" points="6049.83,198.75,6045.9874,207.8183,6049.9171,203.7492,6053.9862,207.6789,6049.83,198.75" style="stroke:#181818;stroke-width:1;"/><text fill="#000000" font-family="sans-serif" font-size="13" lengthAdjust="spacing" textLength="76.9082" x="6051.5" y="241.5669">implements</text></g><!--link Feature_User to logic_arc_int__baselibs__message_passing--><g id="link_Feature_User_logic_arc_int__baselibs__message_passing"><path codeLine="17" d="M3120.39,45.45 C2899.4,50.19 1909.01,72.7 1098.5,111.5 C768.44,127.3 685.78,130.8 356.5,158.5 C350.99,158.96 351.3658,158.9115 345.7058,159.4215 " fill="transparent" id="Feature_User-to-logic_arc_int__baselibs__message_passing" style="stroke:#181818;stroke-width:1;"/><polygon fill="#181818" points="339.73,159.96,349.0527,163.1362,344.7098,159.5113,348.3347,155.1685,339.73,159.96" style="stroke:#181818;stroke-width:1;"/><text fill="#000000" font-family="sans-serif" font-size="13" lengthAdjust="spacing" textLength="23.0103" x="1099.5" y="124.5669">use</text></g><!--link Feature_User to logic_arc_int__baselibs__shared_future--><g id="link_Feature_User_logic_arc_int__baselibs__shared_future"><path codeLine="18" d="M3120.45,48.99 C2970.03,64.03 2471.41,114.12 2059.5,158.5 C2053.63,159.13 2053.6045,159.1283 2047.5645,159.7883 " fill="transparent" id="Feature_User-to-logic_arc_int__baselibs__shared_future" style="stroke:#181818;stroke-width:1;"/><polygon fill="#181818" points="2041.6,160.44,2050.9812,163.4387,2046.5704,159.8969,2050.1122,155.486,2041.6,160.44" style="stroke:#181818;stroke-width:1;"/><text fill="#000000" font-family="sans-serif" font-size="13" lengthAdjust="spacing" textLength="23.0103" x="2486.5" y="124.5669">use</text></g><!--reverse link logic_arc_int__baselibs__utils_scoped_op to comp_arc_sta__baselibs__utils--><g id="link_logic_arc_int__baselibs__utils_scoped_op_comp_arc_sta__baselibs__utils"><path codeLine="19" d="M5397.3479,201.7743 C5360.8679,223.0643 5307.64,254.14 5271.25,275.38 " fill="transparent" id="logic_arc_int__baselibs__utils_scoped_op-backto-comp_arc_sta__baselibs__utils" style="stroke:#181818;stroke-width:1;"/><polygon fill="#181818" points="5402.53,198.75,5392.7407,199.8317,5398.2116,201.2702,5396.7731,206.7411,5402.53,198.75" style="stroke:#181818;stroke-width:1;"/><text fill="#000000" font-family="sans-serif" font-size="13" lengthAdjust="spacing" textLength="76.9082" x="5350.5" y="241.5669">implements</text></g><!--reverse link logic_arc_int__baselibs__shared_future to comp_arc_sta__baselibs__concurrency--><g id="link_logic_arc_int__baselibs__shared_future_comp_arc_sta__baselibs__concurrency"><path codeLine="20" d="M1979.689,199.8874 C2072.799,221.1774 2216.82,254.11 2310,275.41 " fill="transparent" id="logic_arc_int__baselibs__shared_future-backto-comp_arc_sta__baselibs__concurrency" style="stroke:#181818;stroke-width:1;"/><polygon fill="#181818" points="1973.84,198.55,1981.722,204.4555,1978.7142,199.6645,1983.5052,196.6568,1973.84,198.55" style="stroke:#181818;stroke-width:1;"/><text fill="#000000" font-family="sans-serif" font-size="13" lengthAdjust="spacing" textLength="76.9082" x="2173.5" y="241.5669">implements</text></g><!--reverse link logic_arc_int__baselibs__task to comp_arc_sta__baselibs__concurrency--><g id="link_logic_arc_int__baselibs__task_comp_arc_sta__baselibs__concurrency"><path codeLine="21" d="M1710.7406,198.5799 C1799.1206,212.1399 1917.38,230.01 2026.5,245.5 C2098.89,255.77 2179.41,266.59 2246.54,275.44 " fill="transparent" id="logic_arc_int__baselibs__task-backto-comp_arc_sta__baselibs__concurrency" style="stroke:#181818;stroke-width:1;"/><polygon fill="#181818" points="1704.81,197.67,1713.0993,202.9886,1709.7522,198.4283,1714.3125,195.0811,1704.81,197.67" style="stroke:#181818;stroke-width:1;"/><text fill="#000000" font-family="sans-serif" font-size="13" lengthAdjust="spacing" textLength="76.9082" x="2027.5" y="241.5669">implements</text></g><!--link Feature_User to logic_arc_int__baselibs__executor--><g id="link_Feature_User_logic_arc_int__baselibs__executor"><path codeLine="22" d="M3120.46,53.59 C3013.94,75.09 2750.5614,128.2429 2606.5914,157.3029 " fill="transparent" id="Feature_User-to-logic_arc_int__baselibs__executor" style="stroke:#181818;stroke-width:1;"/><polygon fill="#181818" points="2600.71,158.49,2610.3235,160.6302,2605.6112,157.5007,2608.7406,152.7884,2600.71,158.49" style="stroke:#181818;stroke-width:1;"/><text fill="#000000" font-family="sans-serif" font-size="13" lengthAdjust="spacing" textLength="23.0103" x="2817.5" y="124.5669">use</text></g><!--link Feature_User to logic_arc_int__baselibs__filesystem--><g id="link_Feature_User_logic_arc_int__baselibs__filesystem"><path codeLine="23" d="M3210.51,45.23 C3433.17,48.96 4438.95,67.59 5261.5,111.5 C5540.99,126.42 5610.91,131.55 5889.5,158.5 C5896.6,159.19 5897.9027,159.304 5905.2427,160.074 " fill="transparent" id="Feature_User-to-logic_arc_int__baselibs__filesystem" style="stroke:#181818;stroke-width:1;"/><polygon fill="#181818" points="5911.21,160.7,5902.6764,155.7828,5906.2373,160.1783,5901.8418,163.7392,5911.21,160.7" style="stroke:#181818;stroke-width:1;"/><text fill="#000000" font-family="sans-serif" font-size="13" lengthAdjust="spacing" textLength="23.0103" x="5545.5" y="124.5669">use</text></g><!--link Feature_User to logic_arc_int__baselibs__bit_mask_operator--><g id="link_Feature_User_logic_arc_int__baselibs__bit_mask_operator"><path codeLine="24" d="M3120.4,45.91 C2898.39,53.09 1899.63,87.94 1084.5,158.5 C1078.87,158.99 1079.1259,158.9624 1073.3459,159.4824 " fill="transparent" id="Feature_User-to-logic_arc_int__baselibs__bit_mask_operator" style="stroke:#181818;stroke-width:1;"/><polygon fill="#181818" points="1067.37,160.02,1076.6922,163.1975,1072.3499,159.572,1075.9754,155.2297,1067.37,160.02" style="stroke:#181818;stroke-width:1;"/><text fill="#000000" font-family="sans-serif" font-size="13" lengthAdjust="spacing" textLength="23.0103" x="1714.5" y="124.5669">use</text></g><!--reverse link logic_arc_int__baselibs__intrusive_list to comp_arc_sta__baselibs__containers--><g id="link_logic_arc_int__baselibs__intrusive_list_comp_arc_sta__baselibs__containers"><path codeLine="25" d="M4377.5148,201.7861 C4341.2248,223.0761 4288.29,254.14 4252.09,275.38 " fill="transparent" id="logic_arc_int__baselibs__intrusive_list-backto-comp_arc_sta__baselibs__containers" style="stroke:#181818;stroke-width:1;"/><polygon fill="#181818" points="4382.69,198.75,4372.9032,199.854,4378.3774,201.2801,4376.9513,206.7542,4382.69,198.75" style="stroke:#181818;stroke-width:1;"/><text fill="#000000" font-family="sans-serif" font-size="13" lengthAdjust="spacing" textLength="76.9082" x="4330.5" y="241.5669">implements</text></g><!--link Feature_User to logic_arc_int__baselibs__utils_scoped_op--><g id="link_Feature_User_logic_arc_int__baselibs__utils_scoped_op"><path codeLine="26" d="M3210.52,45.82 C3433.2,52.58 4438.98,85.88 5259.5,158.5 C5265.47,159.03 5265.5766,159.0257 5271.7166,159.6057 " fill="transparent" id="Feature_User-to-logic_arc_int__baselibs__utils_scoped_op" style="stroke:#181818;stroke-width:1;"/><polygon fill="#181818" points="5277.69,160.17,5269.1061,155.3413,5272.7122,159.6998,5268.3537,163.3059,5277.69,160.17" style="stroke:#181818;stroke-width:1;"/><text fill="#000000" font-family="sans-serif" font-size="13" lengthAdjust="spacing" textLength="23.0103" x="4860.5" y="124.5669">use</text></g><!--reverse link logic_arc_int__baselibs__result to comp_arc_sta__baselibs__result--><g id="link_logic_arc_int__baselibs__result_comp_arc_sta__baselibs__result"><path codeLine="27" d="M5749.8418,204.7479 C5749.2818,225.9779 5748.56,253.94 5748,275.19 " fill="transparent" id="logic_arc_int__baselibs__result-backto-comp_arc_sta__baselibs__result" style="stroke:#181818;stroke-width:1;"/><polygon fill="#181818" points="5750,198.75,5745.7641,207.6414,5749.8682,203.7483,5753.7613,207.8523,5750,198.75" style="stroke:#181818;stroke-width:1;"/><text fill="#000000" font-family="sans-serif" font-size="13" lengthAdjust="spacing" textLength="76.9082" x="5750.5" y="241.5669">implements</text></g><!--reverse link logic_arc_int__baselibs__synchronized_queue to comp_arc_sta__baselibs__concurrency--><g id="link_logic_arc_int__baselibs__synchronized_queue_comp_arc_sta__baselibs__concurrency"><path codeLine="28" d="M3031.6555,199.4342 C2888.6355,220.7442 2664.32,254.16 2521.34,275.46 " fill="transparent" id="logic_arc_int__baselibs__synchronized_queue-backto-comp_arc_sta__baselibs__concurrency" style="stroke:#181818;stroke-width:1;"/><polygon fill="#181818" points="3037.59,198.55,3028.0988,195.92,3032.6446,199.2869,3029.2778,203.8327,3037.59,198.55" style="stroke:#181818;stroke-width:1;"/><text fill="#000000" font-family="sans-serif" font-size="13" lengthAdjust="spacing" textLength="76.9082" x="2827.5" y="241.5669">implements</text></g><!--reverse link logic_arc_int__baselibs__bit_mask_operator to comp_arc_sta__baselibs__bit_manipulation--><g id="link_logic_arc_int__baselibs__bit_mask_operator_comp_arc_sta__baselibs__bit_manipulation"><path codeLine="29" d="M858.5701,201.6001 C819.1301,222.8901 761.25,254.14 721.91,275.38 " fill="transparent" id="logic_arc_int__baselibs__bit_mask_operator-backto-comp_arc_sta__baselibs__bit_manipulation" style="stroke:#181818;stroke-width:1;"/><polygon fill="#181818" points="863.85,198.75,854.0301,199.5053,859.4501,201.1251,857.8303,206.5451,863.85,198.75" style="stroke:#181818;stroke-width:1;"/><text fill="#000000" font-family="sans-serif" font-size="13" lengthAdjust="spacing" textLength="76.9082" x="807.5" y="241.5669">implements</text></g><!--link Feature_User to logic_arc_int__baselibs__intrusive_list--><g id="link_Feature_User_logic_arc_int__baselibs__intrusive_list"><path codeLine="30" d="M3210.74,49.09 C3359.54,64.22 3847.37,114.11 4250.5,158.5 C4256.52,159.16 4256.6979,159.1669 4262.8979,159.8669 " fill="transparent" id="Feature_User-to-logic_arc_int__baselibs__intrusive_list" style="stroke:#181818;stroke-width:1;"/><polygon fill="#181818" points="4268.86,160.54,4260.3656,155.5555,4263.8916,159.979,4259.4681,163.505,4268.86,160.54" style="stroke:#181818;stroke-width:1;"/><text fill="#000000" font-family="sans-serif" font-size="13" lengthAdjust="spacing" textLength="23.0103" x="3954.5" y="124.5669">use</text></g><!--reverse link logic_arc_int__baselibs__memory_shared to comp_arc_sta__baselibs__memory_shared--><g id="link_logic_arc_int__baselibs__memory_shared_comp_arc_sta__baselibs__memory_shared"><path codeLine="31" d="M4756.5,204.75 C4756.5,225.98 4756.5,253.94 4756.5,275.19 " fill="transparent" id="logic_arc_int__baselibs__memory_shared-backto-comp_arc_sta__baselibs__memory_shared" style="stroke:#181818;stroke-width:1;"/><polygon fill="#181818" points="4756.5,198.75,4752.5,207.75,4756.5,203.75,4760.5,207.75,4756.5,198.75" style="stroke:#181818;stroke-width:1;"/><text fill="#000000" font-family="sans-serif" font-size="13" lengthAdjust="spacing" textLength="76.9082" x="4757.5" y="241.5669">implements</text></g><!--reverse link logic_arc_int__baselibs__json to comp_arc_sta__baselibs__json--><g id="link_logic_arc_int__baselibs__json_comp_arc_sta__baselibs__json"><path codeLine="32" d="M3773.5,204.75 C3773.5,225.98 3773.5,253.94 3773.5,275.19 " fill="transparent" id="logic_arc_int__baselibs__json-backto-comp_arc_sta__baselibs__json" style="stroke:#181818;stroke-width:1;"/><polygon fill="#181818" points="3773.5,198.75,3769.5,207.75,3773.5,203.75,3777.5,207.75,3773.5,198.75" style="stroke:#181818;stroke-width:1;"/><text fill="#000000" font-family="sans-serif" font-size="13" lengthAdjust="spacing" textLength="76.9082" x="3774.5" y="241.5669">implements</text></g><!--link Feature_User to logic_arc_int__baselibs__condition_variable--><g id="link_Feature_User_logic_arc_int__baselibs__condition_variable"><path codeLine="33" d="M3120.38,46.66 C2965.14,54.19 2438.74,80.49 2004.5,111.5 C1758.9,129.04 1697.64,135.41 1452.5,158.5 C1446.9,159.03 1447.1816,158.9874 1441.4416,159.5474 " fill="transparent" id="Feature_User-to-logic_arc_int__baselibs__condition_variable" style="stroke:#181818;stroke-width:1;"/><polygon fill="#181818" points="1435.47,160.13,1444.8159,163.2372,1440.4464,159.6445,1444.0391,155.275,1435.47,160.13" style="stroke:#181818;stroke-width:1;"/><text fill="#000000" font-family="sans-serif" font-size="13" lengthAdjust="spacing" textLength="23.0103" x="2005.5" y="124.5669">use</text></g><!--reverse link logic_arc_int__baselibs__utils_base64 to comp_arc_sta__baselibs__utils--><g id="link_logic_arc_int__baselibs__utils_base64_comp_arc_sta__baselibs__utils"><path codeLine="34" d="M5124.9324,202.5265 C5151.1424,223.7565 5188.41,253.94 5214.65,275.19 " fill="transparent" id="logic_arc_int__baselibs__utils_base64-backto-comp_arc_sta__baselibs__utils" style="stroke:#181818;stroke-width:1;"/><polygon fill="#181818" points="5120.27,198.75,5124.7459,207.523,5124.1553,201.8971,5129.7813,201.3065,5120.27,198.75" style="stroke:#181818;stroke-width:1;"/><text fill="#000000" font-family="sans-serif" font-size="13" lengthAdjust="spacing" textLength="76.9082" x="5177.5" y="241.5669">implements</text></g><!--link Feature_User to logic_arc_int__baselibs__promise--><g id="link_Feature_User_logic_arc_int__baselibs__promise"><path codeLine="35" d="M3120.26,50.78 C2981.08,70.1 2561.563,128.3451 2344.213,158.5151 " fill="transparent" id="Feature_User-to-logic_arc_int__baselibs__promise" style="stroke:#181818;stroke-width:1;"/><polygon fill="#181818" points="2338.27,159.34,2347.7345,162.0646,2343.2225,158.6525,2346.6346,154.1406,2338.27,159.34" style="stroke:#181818;stroke-width:1;"/><text fill="#000000" font-family="sans-serif" font-size="13" lengthAdjust="spacing" textLength="23.0103" x="2659.5" y="124.5669">use</text></g><!--link Feature_User to logic_arc_int__baselibs__bit_manipulation--><g id="link_Feature_User_logic_arc_int__baselibs__bit_manipulation"><path codeLine="36" d="M3120.41,45.85 C2922.79,51.85 2113.48,77.31 1449.5,111.5 C1122.6,128.33 1040.66,130.77 714.5,158.5 C708.74,158.99 708.8552,158.965 702.9352,159.505 " fill="transparent" id="Feature_User-to-logic_arc_int__baselibs__bit_manipulation" style="stroke:#181818;stroke-width:1;"/><polygon fill="#181818" points="696.96,160.05,706.2861,163.2159,701.9393,159.5958,705.5594,155.249,696.96,160.05" style="stroke:#181818;stroke-width:1;"/><text fill="#000000" font-family="sans-serif" font-size="13" lengthAdjust="spacing" textLength="23.0103" x="1450.5" y="124.5669">use</text></g><!--reverse link logic_arc_int__baselibs__condition_variable to comp_arc_sta__baselibs__concurrency--><g id="link_logic_arc_int__baselibs__condition_variable_comp_arc_sta__baselibs__concurrency"><path codeLine="37" d="M1426.6255,199.2593 C1540.0555,213.1493 1692.87,231.24 1832.5,245.5 C1971.58,259.71 2130.33,273.33 2243.38,282.59 " fill="transparent" id="logic_arc_int__baselibs__condition_variable-backto-comp_arc_sta__baselibs__concurrency" style="stroke:#181818;stroke-width:1;"/><polygon fill="#181818" points="1420.67,198.53,1429.1171,203.5943,1425.6329,199.1377,1430.0895,195.6536,1420.67,198.53" style="stroke:#181818;stroke-width:1;"/><text fill="#000000" font-family="sans-serif" font-size="13" lengthAdjust="spacing" textLength="76.9082" x="1833.5" y="241.5669">implements</text></g><!--link Feature_User to logic_arc_int__baselibs__dynamic_array--><g id="link_Feature_User_logic_arc_int__baselibs__dynamic_array"><path codeLine="38" d="M3210.51,51.05 C3343.91,70.46 3734.8025,127.3461 3942.9025,157.6261 " fill="transparent" id="Feature_User-to-logic_arc_int__baselibs__dynamic_array" style="stroke:#181818;stroke-width:1;"/><polygon fill="#181818" points="3948.84,158.49,3940.5098,153.2358,3943.8921,157.77,3939.3578,161.1524,3948.84,158.49" style="stroke:#181818;stroke-width:1;"/><text fill="#000000" font-family="sans-serif" font-size="13" lengthAdjust="spacing" textLength="23.0103" x="3732.5" y="124.5669">use</text></g><!--reverse link logic_arc_int__baselibs__future to comp_arc_sta__baselibs__concurrency--><g id="link_logic_arc_int__baselibs__future_comp_arc_sta__baselibs__concurrency"><path codeLine="39" d="M3369.046,196.9719 C3362.786,197.7519 3362.55,197.78 3356.5,198.5 C3069.56,232.88 2733.48,264.4 2543.83,281.38 " fill="transparent" id="logic_arc_int__baselibs__future-backto-comp_arc_sta__baselibs__concurrency" style="stroke:#181818;stroke-width:1;"/><polygon fill="#181818" points="3375,196.23,3365.5745,193.3735,3370.0384,196.8482,3366.5636,201.3121,3375,196.23" style="stroke:#181818;stroke-width:1;"/><text fill="#000000" font-family="sans-serif" font-size="13" lengthAdjust="spacing" textLength="76.9082" x="3067.5" y="241.5669">implements</text></g><!--link Feature_User to logic_arc_int__baselibs__result--><g id="link_Feature_User_logic_arc_int__baselibs__result"><path codeLine="40" d="M3210.55,45.81 C3408.86,51.65 4223.92,76.65 4892.5,111.5 C5211.86,128.14 5292.31,126.53 5610.5,158.5 C5616.36,159.09 5616.3888,159.049 5622.4288,159.739 " fill="transparent" id="Feature_User-to-logic_arc_int__baselibs__result" style="stroke:#181818;stroke-width:1;"/><polygon fill="#181818" points="5628.39,160.42,5619.9022,155.4243,5623.4223,159.8525,5618.9942,163.3727,5628.39,160.42" style="stroke:#181818;stroke-width:1;"/><text fill="#000000" font-family="sans-serif" font-size="13" lengthAdjust="spacing" textLength="23.0103" x="5229.5" y="124.5669">use</text></g><!--link Feature_User to logic_arc_int__baselibs__json--><g id="link_Feature_User_logic_arc_int__baselibs__json"><path codeLine="41" d="M3210.7,54.39 C3311.36,76.41 3549.5386,128.5079 3680.7486,157.2079 " fill="transparent" id="Feature_User-to-logic_arc_int__baselibs__json" style="stroke:#181818;stroke-width:1;"/><polygon fill="#181818" points="3686.61,158.49,3678.6726,152.6593,3681.7255,157.4216,3676.9631,160.4745,3686.61,158.49" style="stroke:#181818;stroke-width:1;"/><text fill="#000000" font-family="sans-serif" font-size="13" lengthAdjust="spacing" textLength="23.0103" x="3543.5" y="124.5669">use</text></g><!--reverse link logic_arc_int__baselibs__dynamic_array to comp_arc_sta__baselibs__containers--><g id="link_logic_arc_int__baselibs__dynamic_array_comp_arc_sta__baselibs__containers"><path codeLine="42" d="M4107.5667,202.558 C4133.4167,223.788 4170.12,253.94 4195.99,275.19 " fill="transparent" id="logic_arc_int__baselibs__dynamic_array-backto-comp_arc_sta__baselibs__containers" style="stroke:#181818;stroke-width:1;"/><polygon fill="#181818" points="4102.93,198.75,4107.3464,207.5532,4106.7939,201.9233,4112.4237,201.3709,4102.93,198.75" style="stroke:#181818;stroke-width:1;"/><text fill="#000000" font-family="sans-serif" font-size="13" lengthAdjust="spacing" textLength="76.9082" x="4159.5" y="241.5669">implements</text></g><!--reverse link logic_arc_int__baselibs__executor to comp_arc_sta__baselibs__concurrency--><g id="link_logic_arc_int__baselibs__executor_comp_arc_sta__baselibs__concurrency"><path codeLine="43" d="M2483.3848,203.0298 C2462.5248,224.2598 2433.36,253.94 2412.48,275.19 " fill="transparent" id="logic_arc_int__baselibs__executor-backto-comp_arc_sta__baselibs__concurrency" style="stroke:#181818;stroke-width:1;"/><polygon fill="#181818" points="2487.59,198.75,2478.429,202.3662,2484.0857,202.3165,2484.1354,207.9731,2487.59,198.75" style="stroke:#181818;stroke-width:1;"/><text fill="#000000" font-family="sans-serif" font-size="13" lengthAdjust="spacing" textLength="76.9082" x="2458.5" y="241.5669">implements</text></g><!--reverse link logic_arc_int__baselibs__promise to comp_arc_sta__baselibs__concurrency--><g id="link_logic_arc_int__baselibs__promise_comp_arc_sta__baselibs__concurrency"><path codeLine="44" d="M2243.7336,201.9049 C2278.1736,223.1949 2328.22,254.14 2362.58,275.38 " fill="transparent" id="logic_arc_int__baselibs__promise-backto-comp_arc_sta__baselibs__concurrency" style="stroke:#181818;stroke-width:1;"/><polygon fill="#181818" points="2238.63,198.75,2244.1821,206.8848,2242.883,201.3791,2248.3886,200.08,2238.63,198.75" style="stroke:#181818;stroke-width:1;"/><text fill="#000000" font-family="sans-serif" font-size="13" lengthAdjust="spacing" textLength="76.9082" x="2313.5" y="241.5669">implements</text></g><!--reverse link logic_arc_int__baselibs__bit_manipulation to comp_arc_sta__baselibs__bit_manipulation--><g id="link_logic_arc_int__baselibs__bit_manipulation_comp_arc_sta__baselibs__bit_manipulation"><path codeLine="45" d="M565.5436,202.3849 C593.5036,223.6749 633.51,254.14 661.4,275.38 " fill="transparent" id="logic_arc_int__baselibs__bit_manipulation-backto-comp_arc_sta__baselibs__bit_manipulation" style="stroke:#181818;stroke-width:1;"/><polygon fill="#181818" points="560.77,198.75,565.5072,207.3847,564.748,201.7791,570.3537,201.0199,560.77,198.75" style="stroke:#181818;stroke-width:1;"/><text fill="#000000" font-family="sans-serif" font-size="13" lengthAdjust="spacing" textLength="76.9082" x="621.5" y="241.5669">implements</text></g><!--link Feature_User to logic_arc_int__baselibs__future--><g id="link_Feature_User_logic_arc_int__baselibs__future"><path codeLine="46" d="M3210.76,62.58 C3273.62,87.68 3381.2682,130.6741 3445.3482,156.2741 " fill="transparent" id="Feature_User-to-logic_arc_int__baselibs__future" style="stroke:#181818;stroke-width:1;"/><polygon fill="#181818" points="3450.92,158.5,3444.0462,151.4465,3446.2768,156.645,3441.0783,158.8756,3450.92,158.5" style="stroke:#181818;stroke-width:1;"/><text fill="#000000" font-family="sans-serif" font-size="13" lengthAdjust="spacing" textLength="23.0103" x="3373.5" y="124.5669">use</text></g><!--link Feature_User to logic_arc_int__baselibs__task--><g id="link_Feature_User_logic_arc_int__baselibs__task"><path codeLine="47" d="M3120.49,47.03 C2942.59,57.25 2271.41,97.87 1721.5,158.5 C1716.01,159.11 1716.3559,159.0339 1710.6959,159.7239 " fill="transparent" id="Feature_User-to-logic_arc_int__baselibs__task" style="stroke:#181818;stroke-width:1;"/><polygon fill="#181818" points="1704.74,160.45,1714.1579,163.3315,1709.7033,159.8449,1713.1898,155.3903,1704.74,160.45" style="stroke:#181818;stroke-width:1;"/><text fill="#000000" font-family="sans-serif" font-size="13" lengthAdjust="spacing" textLength="23.0103" x="2198.5" y="124.5669">use</text></g><!--link Feature_User to logic_arc_int__baselibs__utils_base64--><g id="link_Feature_User_logic_arc_int__baselibs__utils_base64"><path codeLine="48" d="M3210.63,46.47 C3411.98,55.44 4248.4,94.84 4932.5,158.5 C4938.35,159.04 4938.3506,159.0151 4944.3706,159.6251 " fill="transparent" id="Feature_User-to-logic_arc_int__baselibs__utils_base64" style="stroke:#181818;stroke-width:1;"/><polygon fill="#181818" points="4950.34,160.23,4941.7891,155.3431,4945.3655,159.7259,4940.9826,163.3023,4950.34,160.23" style="stroke:#181818;stroke-width:1;"/><text fill="#000000" font-family="sans-serif" font-size="13" lengthAdjust="spacing" textLength="23.0103" x="4547.5" y="124.5669">use</text></g><!--reverse link logic_arc_int__baselibs__task_result to comp_arc_sta__baselibs__concurrency--><g id="link_logic_arc_int__baselibs__task_result_comp_arc_sta__baselibs__concurrency"><path codeLine="49" d="M2739.5511,200.1976 C2661.3911,221.4976 2541.56,254.15 2463.47,275.43 " fill="transparent" id="logic_arc_int__baselibs__task_result-backto-comp_arc_sta__baselibs__concurrency" style="stroke:#181818;stroke-width:1;"/><polygon fill="#181818" points="2745.34,198.62,2735.6049,197.1271,2740.5159,199.9346,2737.7084,204.8456,2745.34,198.62" style="stroke:#181818;stroke-width:1;"/><text fill="#000000" font-family="sans-serif" font-size="13" lengthAdjust="spacing" textLength="76.9082" x="2631.5" y="241.5669">implements</text></g><!--reverse link logic_arc_int__baselibs__message_passing to comp_arc_sta__baselibs__message_passing--><g id="link_logic_arc_int__baselibs__message_passing_comp_arc_sta__baselibs__message_passing"><path codeLine="50" d="M175.5,204.75 C175.5,225.98 175.5,253.94 175.5,275.19 " fill="transparent" id="logic_arc_int__baselibs__message_passing-backto-comp_arc_sta__baselibs__message_passing" style="stroke:#181818;stroke-width:1;"/><polygon fill="#181818" points="175.5,198.75,171.5,207.75,175.5,203.75,179.5,207.75,175.5,198.75" style="stroke:#181818;stroke-width:1;"/><text fill="#000000" font-family="sans-serif" font-size="13" lengthAdjust="spacing" textLength="76.9082" x="176.5" y="241.5669">implements</text></g><!--link Feature_User to logic_arc_int__baselibs__memory_shared--><g id="link_Feature_User_logic_arc_int__baselibs__memory_shared"><path codeLine="51" d="M3210.71,47.71 C3386.49,60.27 4041.28,107.93 4579.5,158.5 C4585.35,159.05 4585.3287,159.0338 4591.3387,159.6238 " fill="transparent" id="Feature_User-to-logic_arc_int__baselibs__memory_shared" style="stroke:#181818;stroke-width:1;"/><polygon fill="#181818" points="4597.31,160.21,4588.7439,155.3498,4592.3339,159.7215,4587.9623,163.3116,4597.31,160.21" style="stroke:#181818;stroke-width:1;"/><text fill="#000000" font-family="sans-serif" font-size="13" lengthAdjust="spacing" textLength="23.0103" x="4232.5" y="124.5669">use</text></g><!--link Feature_User to logic_arc_int__baselibs__task_result--><g id="link_Feature_User_logic_arc_int__baselibs__task_result"><path codeLine="52" d="M3120.46,61.62 C3055.01,86.49 2939.6087,130.3386 2871.3487,156.2786 " fill="transparent" id="Feature_User-to-logic_arc_int__baselibs__task_result" style="stroke:#181818;stroke-width:1;"/><polygon fill="#181818" points="2865.74,158.41,2875.5739,158.952,2870.4139,156.6338,2872.7321,151.4738,2865.74,158.41" style="stroke:#181818;stroke-width:1;"/><text fill="#000000" font-family="sans-serif" font-size="13" lengthAdjust="spacing" textLength="23.0103" x="2981.5" y="124.5669">use</text></g><!--SRC=[jLPDZzGm3BtdLqHxdmKXn66rsWiI9uvmZjBKEsCsNyJEiWNntqcd0pCjmtGQbQDRstb-VdQYhGtVbCCNz5l18KeEiWdCmSaM4nZ6uCKEMv34a21m5s6mmKNkf6PEs6G64lV4dOK7SQi9RID_Y8_euNsm8Sa4xTxwj4Fpv858lhbzBNwA-rU76A4D5x-R3w0v9v2V2TADr2GF7rJ_GGenCZVjva7Qi4MZT38AFIlLQ0AB3Ib5dJUx53n-XrPzpP3XJcO2AKnmSHz0h4y37j42TQLC9pVvKkQZuvr45oquy4no2JXNED1RK54J5UOFo9PKjzE5LFMO-u2PmZAZfPcQzZwAJ8WbQuZZmlwLs0HlSahWJJUJVW9ttUIiwQcw4_029XVjBM_1gGoMnZR8oXNOXMf8-dZy1J9Obm5AStqiPig4pw0i4bUpyfSSBg9BGDdo3BB1QNLXdPdoQquO6k0nPglx7JTpp9b-LJ8xRT15OXsuaBh3zCn07FbUHy8NcYsyTwckjRInnPvTzQmJwiQkjwbw-ztRQcGn1OS4jODxrCtyt5ufv7DSLHRNTbwx_Q-akzK0djlT2q3z7l-bX0y2N6SvJeXPTnCTBv9ry_wHwdzRQwTghkpkw1so86wukfT6ZLV0IlhkeIowf2PlkDdrF7dnLRySHsk-Xl3nBFu2]--></g></svg>