<svg xmlns="http://www.w3.org/2000/svg" xmlns:xlink="http://www.w3.org/1999/xlink" contentStyleType="text/css" data-diagram-type="CLASS" height="322px" preserveAspectRatio="none" style="width:6203px;height:322px;background:#FFFFFF;" version="1.1" viewBox="0 0 6203 322" width="6203px" zoomAndPan="magnify"><defs/><g><!--entity Feature_User--><g id="elem_Feature_User"><ellipse cx="3041.6685" cy="14" fill="#F1F1F1" rx="8" ry="8" style="stroke:#181818;stroke-width:0.5;"/><path d="M3041.6685,22 L3041.6685,49 M3028.6685,30 L3054.6685,30 M3041.6685,49 L3028.6685,64 M3041.6685,49 L3054.6685,64 " fill="transparent" style="stroke:#181818;stroke-width:0.5;"/><text fill="#000000" font-family="sans-serif" font-size="14" lengthAdjust="spacing" textLength="90.3369" x="2996.5" y="78.4951">Feature User</text></g><!--class comp_arc_sta__baselibs__concurrency--><g id="elem_comp_arc_sta__baselibs__concurrency"><rect fill="#F1F1F1" height="40" id="comp_arc_sta__baselibs__concurrency" rx="2.5" ry="2.5" style="stroke:#181818;stroke-width:0.5;" width="300.2012" x="1418.5" y="275.5"/><ellipse cx="1433.5" cy="291.5" fill="#ADD1B2" rx="11" ry="11" style="stroke:#181818;stroke-width:1;"/><path d="M1436.4688,297.1406 Q1435.8906,297.4375 1435.25,297.5781 Q1434.6094,297.7344 1433.9063,297.7344 Q1431.4063,297.7344 1430.0781,296.0938 Q1428.7656,294.4375 1428.7656,291.3125 Q1428.7656,288.1875 1430.0781,286.5313 Q1431.4063,284.875 1433.9063,284.875 Q1434.6094,284.875 1435.25,285.0313 Q1435.9063,285.1875 1436.4688,285.4844 L1436.4688,288.2031 Q1435.8438,287.625 1435.25,287.3594 Q1434.6563,287.0781 1434.0313,287.0781 Q1432.6875,287.0781 1432,288.1563 Q1431.3125,289.2188 1431.3125,291.3125 Q1431.3125,293.4063 1432,294.4844 Q1432.6875,295.5469 1434.0313,295.5469 Q1434.6563,295.5469 1435.25,295.2813 Q1435.8438,295 1436.4688,294.4219 L1436.4688,297.1406 Z " fill="#000000"/><text fill="#000000" font-family="sans-serif" font-size="14" lengthAdjust="spacing" textLength="268.2012" x="1447.5" y="296.3467">comp_arc_sta__baselibs__concurrency</text><line style="stroke:#181818;stroke-width:0.5;" x1="1419.5" x2="1717.7012" y1="307.5" y2="307.5"/></g><!--class logic_arc_int__baselibs__shared_future--><g id="elem_logic_arc_int__baselibs__shared_future"><rect fill="#F1F1F1" height="40" id="logic_arc_int__baselibs__shared_future" rx="2.5" ry="2.5" style="stroke:#181818;stroke-width:0.5;" width="302.0811" x="2265.5" y="158.5"/><ellipse cx="2280.5" cy="174.5" fill="#ADD1B2" rx="11" ry="11" style="stroke:#181818;stroke-width:1;"/><path d="M2283.4688,180.1406 Q2282.8906,180.4375 2282.25,180.5781 Q2281.6094,180.7344 2280.9063,180.7344 Q2278.4063,180.7344 2277.0781,179.0938 Q2275.7656,177.4375 2275.7656,174.3125 Q2275.7656,171.1875 2277.0781,169.5313 Q2278.4063,167.875 2280.9063,167.875 Q2281.6094,167.875 2282.25,168.0313 Q2282.9063,168.1875 2283.4688,168.4844 L2283.4688,171.2031 Q2282.8438,170.625 2282.25,170.3594 Q2281.6563,170.0781 2281.0313,170.0781 Q2279.6875,170.0781 2279,171.1563 Q2278.3125,172.2188 2278.3125,174.3125 Q2278.3125,176.4063 2279,177.4844 Q2279.6875,178.5469 2281.0313,178.5469 Q2281.6563,178.5469 2282.25,178.2813 Q2282.8438,178 2283.4688,177.4219 L2283.4688,180.1406 Z " fill="#000000"/><text fill="#000000" font-family="sans-serif" font-size="14" lengthAdjust="spacing" textLength="270.0811" x="2294.5" y="179.3467">logic_arc_int__baselibs__shared_future</text><line style="stroke:#181818;stroke-width:0.5;" x1="2266.5" x2="2566.5811" y1="190.5" y2="190.5"/></g><!--class comp_arc_sta__baselibs__bit_manipulation--><g id="elem_comp_arc_sta__baselibs__bit_manipulation"><rect fill="#F1F1F1" height="40" id="comp_arc_sta__baselibs__bit_manipulation" rx="2.5" ry="2.5" style="stroke:#181818;stroke-width:0.5;" width="330.8057" x="4701" y="275.5"/><ellipse cx="4716" cy="291.5" fill="#ADD1B2" rx="11" ry="11" style="stroke:#181818;stroke-width:1;"/><path d="M4718.9688,297.1406 Q4718.3906,297.4375 4717.75,297.5781 Q4717.1094,297.7344 4716.4063,297.7344 Q4713.9063,297.7344 4712.5781,296.0938 Q4711.2656,294.4375 4711.2656,291.3125 Q4711.2656,288.1875 4712.5781,286.5313 Q4713.9063,284.875 4716.4063,284.875 Q4717.1094,284.875 4717.75,285.0313 Q4718.4063,285.1875 4718.9688,285.4844 L4718.9688,288.2031 Q4718.3438,287.625 4717.75,287.3594 Q4717.1563,287.0781 4716.5313,287.0781 Q4715.1875,287.0781 4714.5,288.1563 Q4713.8125,289.2188 4713.8125,291.3125 Q4713.8125,293.4063 4714.5,294.4844 Q4715.1875,295.5469 4716.5313,295.5469 Q4717.1563,295.5469 4717.75,295.2813 Q4718.3438,295 4718.9688,294.4219 L4718.9688,297.1406 Z " fill="#000000"/><text fill="#000000" font-family="sans-serif" font-size="14" lengthAdjust="spacing" textLength="298.8057" x="4730" y="296.3467">comp_arc_sta__baselibs__bit_manipulation</text><line style="stroke:#181818;stroke-width:0.5;" x1="4702" x2="5030.8057" y1="307.5" y2="307.5"/></g><!--class logic_arc_int__baselibs__bit_manipulation--><g id="elem_logic_arc_int__baselibs__bit_manipulation"><rect fill="#F1F1F1" height="40" id="logic_arc_int__baselibs__bit_manipulation" rx="2.5" ry="2.5" style="stroke:#181818;stroke-width:0.5;" width="321.8369" x="4918.5" y="158.5"/><ellipse cx="4933.5" cy="174.5" fill="#ADD1B2" rx="11" ry="11" style="stroke:#181818;stroke-width:1;"/><path d="M4936.4688,180.1406 Q4935.8906,180.4375 4935.25,180.5781 Q4934.6094,180.7344 4933.9063,180.7344 Q4931.4063,180.7344 4930.0781,179.0938 Q4928.7656,177.4375 4928.7656,174.3125 Q4928.7656,171.1875 4930.0781,169.5313 Q4931.4063,167.875 4933.9063,167.875 Q4934.6094,167.875 4935.25,168.0313 Q4935.9063,168.1875 4936.4688,168.4844 L4936.4688,171.2031 Q4935.8438,170.625 4935.25,170.3594 Q4934.6563,170.0781 4934.0313,170.0781 Q4932.6875,170.0781 4932,171.1563 Q4931.3125,172.2188 4931.3125,174.3125 Q4931.3125,176.4063 4932,177.4844 Q4932.6875,178.5469 4934.0313,178.5469 Q4934.6563,178.5469 4935.25,178.2813 Q4935.8438,178 4936.4688,177.4219 L4936.4688,180.1406 Z " fill="#000000"/><text fill="#000000" font-family="sans-serif" font-size="14" lengthAdjust="spacing" textLength="289.8369" x="4947.5" y="179.3467">logic_arc_int__baselibs__bit_manipulation</text><line style="stroke:#181818;stroke-width:0.5;" x1="4919.5" x2="5239.3369" y1="190.5" y2="190.5"/></g><!--class logic_arc_int__baselibs__bit_mask_operator--><g id="elem_logic_arc_int__baselibs__bit_mask_operator"><rect fill="#F1F1F1" height="40" id="logic_arc_int__baselibs__bit_mask_operator" rx="2.5" ry="2.5" style="stroke:#181818;stroke-width:0.5;" width="334.6406" x="4548" y="158.5"/><ellipse cx="4563" cy="174.5" fill="#ADD1B2" rx="11" ry="11" style="stroke:#181818;stroke-width:1;"/><path d="M4565.9688,180.1406 Q4565.3906,180.4375 4564.75,180.5781 Q4564.1094,180.7344 4563.4063,180.7344 Q4560.9063,180.7344 4559.5781,179.0938 Q4558.2656,177.4375 4558.2656,174.3125 Q4558.2656,171.1875 4559.5781,169.5313 Q4560.9063,167.875 4563.4063,167.875 Q4564.1094,167.875 4564.75,168.0313 Q4565.4063,168.1875 4565.9688,168.4844 L4565.9688,171.2031 Q4565.3438,170.625 4564.75,170.3594 Q4564.1563,170.0781 4563.5313,170.0781 Q4562.1875,170.0781 4561.5,171.1563 Q4560.8125,172.2188 4560.8125,174.3125 Q4560.8125,176.4063 4561.5,177.4844 Q4562.1875,178.5469 4563.5313,178.5469 Q4564.1563,178.5469 4564.75,178.2813 Q4565.3438,178 4565.9688,177.4219 L4565.9688,180.1406 Z " fill="#000000"/><text fill="#000000" font-family="sans-serif" font-size="14" lengthAdjust="spacing" textLength="302.6406" x="4577" y="179.3467">logic_arc_int__baselibs__bit_mask_operator</text><line style="stroke:#181818;stroke-width:0.5;" x1="4549" x2="4881.6406" y1="190.5" y2="190.5"/></g><!--class comp_arc_sta__baselibs__utils--><g id="elem_comp_arc_sta__baselibs__utils"><rect fill="#F1F1F1" height="40" id="comp_arc_sta__baselibs__utils" rx="2.5" ry="2.5" style="stroke:#181818;stroke-width:0.5;" width="242.9502" x="4064" y="275.5"/><ellipse cx="4079" cy="291.5" fill="#ADD1B2" rx="11" ry="11" style="stroke:#181818;stroke-width:1;"/><path d="M4081.9688,297.1406 Q4081.3906,297.4375 4080.75,297.5781 Q4080.1094,297.7344 4079.4063,297.7344 Q4076.9063,297.7344 4075.5781,296.0938 Q4074.2656,294.4375 4074.2656,291.3125 Q4074.2656,288.1875 4075.5781,286.5313 Q4076.9063,284.875 4079.4063,284.875 Q4080.1094,284.875 4080.75,285.0313 Q4081.4063,285.1875 4081.9688,285.4844 L4081.9688,288.2031 Q4081.3438,287.625 4080.75,287.3594 Q4080.1563,287.0781 4079.5313,287.0781 Q4078.1875,287.0781 4077.5,288.1563 Q4076.8125,289.2188 4076.8125,291.3125 Q4076.8125,293.4063 4077.5,294.4844 Q4078.1875,295.5469 4079.5313,295.5469 Q4080.1563,295.5469 4080.75,295.2813 Q4081.3438,295 4081.9688,294.4219 L4081.9688,297.1406 Z " fill="#000000"/><text fill="#000000" font-family="sans-serif" font-size="14" lengthAdjust="spacing" textLength="210.9502" x="4093" y="296.3467">comp_arc_sta__baselibs__utils</text><line style="stroke:#181818;stroke-width:0.5;" x1="4065" x2="4305.9502" y1="307.5" y2="307.5"/></g><!--class logic_arc_int__baselibs__utils_base64--><g id="elem_logic_arc_int__baselibs__utils_base64"><rect fill="#F1F1F1" height="40" id="logic_arc_int__baselibs__utils_base64" rx="2.5" ry="2.5" style="stroke:#181818;stroke-width:0.5;" width="292.1689" x="3870.5" y="158.5"/><ellipse cx="3885.5" cy="174.5" fill="#ADD1B2" rx="11" ry="11" style="stroke:#181818;stroke-width:1;"/><path d="M3888.4688,180.1406 Q3887.8906,180.4375 3887.25,180.5781 Q3886.6094,180.7344 3885.9063,180.7344 Q3883.4063,180.7344 3882.0781,179.0938 Q3880.7656,177.4375 3880.7656,174.3125 Q3880.7656,171.1875 3882.0781,169.5313 Q3883.4063,167.875 3885.9063,167.875 Q3886.6094,167.875 3887.25,168.0313 Q3887.9063,168.1875 3888.4688,168.4844 L3888.4688,171.2031 Q3887.8438,170.625 3887.25,170.3594 Q3886.6563,170.0781 3886.0313,170.0781 Q3884.6875,170.0781 3884,171.1563 Q3883.3125,172.2188 3883.3125,174.3125 Q3883.3125,176.4063 3884,177.4844 Q3884.6875,178.5469 3886.0313,178.5469 Q3886.6563,178.5469 3887.25,178.2813 Q3887.8438,178 3888.4688,177.4219 L3888.4688,180.1406 Z " fill="#000000"/><text fill="#000000" font-family="sans-serif" font-size="14" lengthAdjust="spacing" textLength="260.1689" x="3899.5" y="179.3467">logic_arc_int__baselibs__utils_base64</text><line style="stroke:#181818;stroke-width:0.5;" x1="3871.5" x2="4161.6689" y1="190.5" y2="190.5"/></g><!--class comp_arc_sta__baselibs__containers--><g id="elem_comp_arc_sta__baselibs__containers"><rect fill="#F1F1F1" height="40" id="comp_arc_sta__baselibs__containers" rx="2.5" ry="2.5" style="stroke:#181818;stroke-width:0.5;" width="287.1445" x="3349" y="275.5"/><ellipse cx="3364" cy="291.5" fill="#ADD1B2" rx="11" ry="11" style="stroke:#181818;stroke-width:1;"/><path d="M3366.9688,297.1406 Q3366.3906,297.4375 3365.75,297.5781 Q3365.1094,297.7344 3364.4063,297.7344 Q3361.9063,297.7344 3360.5781,296.0938 Q3359.2656,294.4375 3359.2656,291.3125 Q3359.2656,288.1875 3360.5781,286.5313 Q3361.9063,284.875 3364.4063,284.875 Q3365.1094,284.875 3365.75,285.0313 Q3366.4063,285.1875 3366.9688,285.4844 L3366.9688,288.2031 Q3366.3438,287.625 3365.75,287.3594 Q3365.1563,287.0781 3364.5313,287.0781 Q3363.1875,287.0781 3362.5,288.1563 Q3361.8125,289.2188 3361.8125,291.3125 Q3361.8125,293.4063 3362.5,294.4844 Q3363.1875,295.5469 3364.5313,295.5469 Q3365.1563,295.5469 3365.75,295.2813 Q3366.3438,295 3366.9688,294.4219 L3366.9688,297.1406 Z " fill="#000000"/><text fill="#000000" font-family="sans-serif" font-size="14" lengthAdjust="spacing" textLength="255.1445" x="3378" y="296.3467">comp_arc_sta__baselibs__containers</text><line style="stroke:#181818;stroke-width:0.5;" x1="3350" x2="3635.1445" y1="307.5" y2="307.5"/></g><!--class logic_arc_int__baselibs__intrusive_list--><g id="elem_logic_arc_int__baselibs__intrusive_list"><rect fill="#F1F1F1" height="40" id="logic_arc_int__baselibs__intrusive_list" rx="2.5" ry="2.5" style="stroke:#181818;stroke-width:0.5;" width="293.0713" x="3542" y="158.5"/><ellipse cx="3557" cy="174.5" fill="#ADD1B2" rx="11" ry="11" style="stroke:#181818;stroke-width:1;"/><path d="M3559.9688,180.1406 Q3559.3906,180.4375 3558.75,180.5781 Q3558.1094,180.7344 3557.4063,180.7344 Q3554.9063,180.7344 3553.5781,179.0938 Q3552.2656,177.4375 3552.2656,174.3125 Q3552.2656,171.1875 3553.5781,169.5313 Q3554.9063,167.875 3557.4063,167.875 Q3558.1094,167.875 3558.75,168.0313 Q3559.4063,168.1875 3559.9688,168.4844 L3559.9688,171.2031 Q3559.3438,170.625 3558.75,170.3594 Q3558.1563,170.0781 3557.5313,170.0781 Q3556.1875,170.0781 3555.5,171.1563 Q3554.8125,172.2188 3554.8125,174.3125 Q3554.8125,176.4063 3555.5,177.4844 Q3556.1875,178.5469 3557.5313,178.5469 Q3558.1563,178.5469 3558.75,178.2813 Q3559.3438,178 3559.9688,177.4219 L3559.9688,180.1406 Z " fill="#000000"/><text fill="#000000" font-family="sans-serif" font-size="14" lengthAdjust="spacing" textLength="261.0713" x="3571" y="179.3467">logic_arc_int__baselibs__intrusive_list</text><line style="stroke:#181818;stroke-width:0.5;" x1="3543" x2="3834.0713" y1="190.5" y2="190.5"/></g><!--class comp_arc_sta__baselibs__json--><g id="elem_comp_arc_sta__baselibs__json"><rect fill="#F1F1F1" height="40" id="comp_arc_sta__baselibs__json" rx="2.5" ry="2.5" style="stroke:#181818;stroke-width:0.5;" width="242.1367" x="5954.5" y="275.5"/><ellipse cx="5969.5" cy="291.5" fill="#ADD1B2" rx="11" ry="11" style="stroke:#181818;stroke-width:1;"/><path d="M5972.4688,297.1406 Q5971.8906,297.4375 5971.25,297.5781 Q5970.6094,297.7344 5969.9063,297.7344 Q5967.4063,297.7344 5966.0781,296.0938 Q5964.7656,294.4375 5964.7656,291.3125 Q5964.7656,288.1875 5966.0781,286.5313 Q5967.4063,284.875 5969.9063,284.875 Q5970.6094,284.875 5971.25,285.0313 Q5971.9063,285.1875 5972.4688,285.4844 L5972.4688,288.2031 Q5971.8438,287.625 5971.25,287.3594 Q5970.6563,287.0781 5970.0313,287.0781 Q5968.6875,287.0781 5968,288.1563 Q5967.3125,289.2188 5967.3125,291.3125 Q5967.3125,293.4063 5968,294.4844 Q5968.6875,295.5469 5970.0313,295.5469 Q5970.6563,295.5469 5971.25,295.2813 Q5971.8438,295 5972.4688,294.4219 L5972.4688,297.1406 Z " fill="#000000"/><text fill="#000000" font-family="sans-serif" font-size="14" lengthAdjust="spacing" textLength="210.1367" x="5983.5" y="296.3467">comp_arc_sta__baselibs__json</text><line style="stroke:#181818;stroke-width:0.5;" x1="5955.5" x2="6195.6367" y1="307.5" y2="307.5"/></g><!--class logic_arc_int__baselibs__json--><g id="elem_logic_arc_int__baselibs__json"><rect fill="#F1F1F1" height="40" id="logic_arc_int__baselibs__json" rx="2.5" ry="2.5" style="stroke:#181818;stroke-width:0.5;" width="233.168" x="5955" y="158.5"/><ellipse cx="5970" cy="174.5" fill="#ADD1B2" rx="11" ry="11" style="stroke:#181818;stroke-width:1;"/><path d="M5972.9688,180.1406 Q5972.3906,180.4375 5971.75,180.5781 Q5971.1094,180.7344 5970.4063,180.7344 Q5967.9063,180.7344 5966.5781,179.0938 Q5965.2656,177.4375 5965.2656,174.3125 Q5965.2656,171.1875 5966.5781,169.5313 Q5967.9063,167.875 5970.4063,167.875 Q5971.1094,167.875 5971.75,168.0313 Q5972.4063,168.1875 5972.9688,168.4844 L5972.9688,171.2031 Q5972.3438,170.625 5971.75,170.3594 Q5971.1563,170.0781 5970.5313,170.0781 Q5969.1875,170.0781 5968.5,171.1563 Q5967.8125,172.2188 5967.8125,174.3125 Q5967.8125,176.4063 5968.5,177.4844 Q5969.1875,178.5469 5970.5313,178.5469 Q5971.1563,178.5469 5971.75,178.2813 Q5972.3438,178 5972.9688,177.4219 L5972.9688,180.1406 Z " fill="#000000"/><text fill="#000000" font-family="sans-serif" font-size="14" lengthAdjust="spacing" textLength="201.168" x="5984" y="179.3467">logic_arc_int__baselibs__json</text><line style="stroke:#181818;stroke-width:0.5;" x1="5956" x2="6187.168" y1="190.5" y2="190.5"/></g><!--class comp_arc_sta__baselibs__message_passing--><g id="elem_comp_arc_sta__baselibs__message_passing"><rect fill="#F1F1F1" height="40" id="comp_arc_sta__baselibs__message_passing" rx="2.5" ry="2.5" style="stroke:#181818;stroke-width:0.5;" width="337.1357" x="5582" y="275.5"/><ellipse cx="5597" cy="291.5" fill="#ADD1B2" rx="11" ry="11" style="stroke:#181818;stroke-width:1;"/><path d="M5599.9688,297.1406 Q5599.3906,297.4375 5598.75,297.5781 Q5598.1094,297.7344 5597.4063,297.7344 Q5594.9063,297.7344 5593.5781,296.0938 Q5592.2656,294.4375 5592.2656,291.3125 Q5592.2656,288.1875 5593.5781,286.5313 Q5594.9063,284.875 5597.4063,284.875 Q5598.1094,284.875 5598.75,285.0313 Q5599.4063,285.1875 5599.9688,285.4844 L5599.9688,288.2031 Q5599.3438,287.625 5598.75,287.3594 Q5598.1563,287.0781 5597.5313,287.0781 Q5596.1875,287.0781 5595.5,288.1563 Q5594.8125,289.2188 5594.8125,291.3125 Q5594.8125,293.4063 5595.5,294.4844 Q5596.1875,295.5469 5597.5313,295.5469 Q5598.1563,295.5469 5598.75,295.2813 Q5599.3438,295 5599.9688,294.4219 L5599.9688,297.1406 Z " fill="#000000"/><text fill="#000000" font-family="sans-serif" font-size="14" lengthAdjust="spacing" textLength="305.1357" x="5611" y="296.3467">comp_arc_sta__baselibs__message_passing</text><line style="stroke:#181818;stroke-width:0.5;" x1="5583" x2="5918.1357" y1="307.5" y2="307.5"/></g><!--class logic_arc_int__baselibs__message_passing--><g id="elem_logic_arc_int__baselibs__message_passing"><rect fill="#F1F1F1" height="40" id="logic_arc_int__baselibs__message_passing" rx="2.5" ry="2.5" style="stroke:#181818;stroke-width:0.5;" width="328.167" x="5586.5" y="158.5"/><ellipse cx="5601.5" cy="174.5" fill="#ADD1B2" rx="11" ry="11" style="stroke:#181818;stroke-width:1;"/><path d="M5604.4688,180.1406 Q5603.8906,180.4375 5603.25,180.5781 Q5602.6094,180.7344 5601.9063,180.7344 Q5599.4063,180.7344 5598.0781,179.0938 Q5596.7656,177.4375 5596.7656,174.3125 Q5596.7656,171.1875 5598.0781,169.5313 Q5599.4063,167.875 5601.9063,167.875 Q5602.6094,167.875 5603.25,168.0313 Q5603.9063,168.1875 5604.4688,168.4844 L5604.4688,171.2031 Q5603.8438,170.625 5603.25,170.3594 Q5602.6563,170.0781 5602.0313,170.0781 Q5600.6875,170.0781 5600,171.1563 Q5599.3125,172.2188 5599.3125,174.3125 Q5599.3125,176.4063 5600,177.4844 Q5600.6875,178.5469 5602.0313,178.5469 Q5602.6563,178.5469 5603.25,178.2813 Q5603.8438,178 5604.4688,177.4219 L5604.4688,180.1406 Z " fill="#000000"/><text fill="#000000" font-family="sans-serif" font-size="14" lengthAdjust="spacing" textLength="296.167" x="5615.5" y="179.3467">logic_arc_int__baselibs__message_passing</text><line style="stroke:#181818;stroke-width:0.5;" x1="5587.5" x2="5913.667" y1="190.5" y2="190.5"/></g><!--class logic_arc_int__baselibs__condition_variable--><g id="elem_logic_arc_int__baselibs__condition_variable"><rect fill="#F1F1F1" height="40" id="logic_arc_int__baselibs__condition_variable" rx="2.5" ry="2.5" style="stroke:#181818;stroke-width:0.5;" width="332.7539" x="365" y="158.5"/><ellipse cx="380" cy="174.5" fill="#ADD1B2" rx="11" ry="11" style="stroke:#181818;stroke-width:1;"/><path d="M382.9688,180.1406 Q382.3906,180.4375 381.75,180.5781 Q381.1094,180.7344 380.4063,180.7344 Q377.9063,180.7344 376.5781,179.0938 Q375.2656,177.4375 375.2656,174.3125 Q375.2656,171.1875 376.5781,169.5313 Q377.9063,167.875 380.4063,167.875 Q381.1094,167.875 381.75,168.0313 Q382.4063,168.1875 382.9688,168.4844 L382.9688,171.2031 Q382.3438,170.625 381.75,170.3594 Q381.1563,170.0781 380.5313,170.0781 Q379.1875,170.0781 378.5,171.1563 Q377.8125,172.2188 377.8125,174.3125 Q377.8125,176.4063 378.5,177.4844 Q379.1875,178.5469 380.5313,178.5469 Q381.1563,178.5469 381.75,178.2813 Q382.3438,178 382.9688,177.4219 L382.9688,180.1406 Z " fill="#000000"/><text fill="#000000" font-family="sans-serif" font-size="14" lengthAdjust="spacing" textLength="300.7539" x="394" y="179.3467">logic_arc_int__baselibs__condition_variable</text><line style="stroke:#181818;stroke-width:0.5;" x1="366" x2="696.7539" y1="190.5" y2="190.5"/></g><!--class comp_arc_sta__baselibs__filesystem--><g id="elem_comp_arc_sta__baselibs__filesystem"><rect fill="#F1F1F1" height="40" id="comp_arc_sta__baselibs__filesystem" rx="2.5" ry="2.5" style="stroke:#181818;stroke-width:0.5;" width="285.4492" x="5262" y="275.5"/><ellipse cx="5277" cy="291.5" fill="#ADD1B2" rx="11" ry="11" style="stroke:#181818;stroke-width:1;"/><path d="M5279.9688,297.1406 Q5279.3906,297.4375 5278.75,297.5781 Q5278.1094,297.7344 5277.4063,297.7344 Q5274.9063,297.7344 5273.5781,296.0938 Q5272.2656,294.4375 5272.2656,291.3125 Q5272.2656,288.1875 5273.5781,286.5313 Q5274.9063,284.875 5277.4063,284.875 Q5278.1094,284.875 5278.75,285.0313 Q5279.4063,285.1875 5279.9688,285.4844 L5279.9688,288.2031 Q5279.3438,287.625 5278.75,287.3594 Q5278.1563,287.0781 5277.5313,287.0781 Q5276.1875,287.0781 5275.5,288.1563 Q5274.8125,289.2188 5274.8125,291.3125 Q5274.8125,293.4063 5275.5,294.4844 Q5276.1875,295.5469 5277.5313,295.5469 Q5278.1563,295.5469 5278.75,295.2813 Q5279.3438,295 5279.9688,294.4219 L5279.9688,297.1406 Z " fill="#000000"/><text fill="#000000" font-family="sans-serif" font-size="14" lengthAdjust="spacing" textLength="253.4492" x="5291" y="296.3467">comp_arc_sta__baselibs__filesystem</text><line style="stroke:#181818;stroke-width:0.5;" x1="5263" x2="5546.4492" y1="307.5" y2="307.5"/></g><!--class logic_arc_int__baselibs__filesystem--><g id="elem_logic_arc_int__baselibs__filesystem"><rect fill="#F1F1F1" height="40" id="logic_arc_int__baselibs__filesystem" rx="2.5" ry="2.5" style="stroke:#181818;stroke-width:0.5;" width="276.4805" x="5275.5" y="158.5"/><ellipse cx="5290.5" cy="174.5" fill="#ADD1B2" rx="11" ry="11" style="stroke:#181818;stroke-width:1;"/><path d="M5293.4688,180.1406 Q5292.8906,180.4375 5292.25,180.5781 Q5291.6094,180.7344 5290.9063,180.7344 Q5288.4063,180.7344 5287.0781,179.0938 Q5285.7656,177.4375 5285.7656,174.3125 Q5285.7656,171.1875 5287.0781,169.5313 Q5288.4063,167.875 5290.9063,167.875 Q5291.6094,167.875 5292.25,168.0313 Q5292.9063,168.1875 5293.4688,168.4844 L5293.4688,171.2031 Q5292.8438,170.625 5292.25,170.3594 Q5291.6563,170.0781 5291.0313,170.0781 Q5289.6875,170.0781 5289,171.1563 Q5288.3125,172.2188 5288.3125,174.3125 Q5288.3125,176.4063 5289,177.4844 Q5289.6875,178.5469 5291.0313,178.5469 Q5291.6563,178.5469 5292.25,178.2813 Q5292.8438,178 5293.4688,177.4219 L5293.4688,180.1406 Z " fill="#000000"/><text fill="#000000" font-family="sans-serif" font-size="14" lengthAdjust="spacing" textLength="244.4805" x="5304.5" y="179.3467">logic_arc_int__baselibs__filesystem</text><line style="stroke:#181818;stroke-width:0.5;" x1="5276.5" x2="5550.9805" y1="190.5" y2="190.5"/></g><!--class logic_arc_int__baselibs__memory_shared--><g id="elem_logic_arc_int__baselibs__memory_shared"><rect fill="#F1F1F1" height="40" id="logic_arc_int__baselibs__memory_shared" rx="2.5" ry="2.5" style="stroke:#181818;stroke-width:0.5;" width="318.043" x="11.5" y="158.5"/><ellipse cx="26.5" cy="174.5" fill="#ADD1B2" rx="11" ry="11" style="stroke:#181818;stroke-width:1;"/><path d="M29.4688,180.1406 Q28.8906,180.4375 28.25,180.5781 Q27.6094,180.7344 26.9063,180.7344 Q24.4063,180.7344 23.0781,179.0938 Q21.7656,177.4375 21.7656,174.3125 Q21.7656,171.1875 23.0781,169.5313 Q24.4063,167.875 26.9063,167.875 Q27.6094,167.875 28.25,168.0313 Q28.9063,168.1875 29.4688,168.4844 L29.4688,171.2031 Q28.8438,170.625 28.25,170.3594 Q27.6563,170.0781 27.0313,170.0781 Q25.6875,170.0781 25,171.1563 Q24.3125,172.2188 24.3125,174.3125 Q24.3125,176.4063 25,177.4844 Q25.6875,178.5469 27.0313,178.5469 Q27.6563,178.5469 28.25,178.2813 Q28.8438,178 29.4688,177.4219 L29.4688,180.1406 Z " fill="#000000"/><text fill="#000000" font-family="sans-serif" font-size="14" lengthAdjust="spacing" textLength="286.043" x="40.5" y="179.3467">logic_arc_int__baselibs__memory_shared</text><line style="stroke:#181818;stroke-width:0.5;" x1="12.5" x2="328.543" y1="190.5" y2="190.5"/></g><!--class logic_arc_int__baselibs__synchronized_queue--><g id="elem_logic_arc_int__baselibs__synchronized_queue"><rect fill="#F1F1F1" height="40" id="logic_arc_int__baselibs__synchronized_queue" rx="2.5" ry="2.5" style="stroke:#181818;stroke-width:0.5;" width="348.3604" x="1882.5" y="158.5"/><ellipse cx="1897.5" cy="174.5" fill="#ADD1B2" rx="11" ry="11" style="stroke:#181818;stroke-width:1;"/><path d="M1900.4688,180.1406 Q1899.8906,180.4375 1899.25,180.5781 Q1898.6094,180.7344 1897.9063,180.7344 Q1895.4063,180.7344 1894.0781,179.0938 Q1892.7656,177.4375 1892.7656,174.3125 Q1892.7656,171.1875 1894.0781,169.5313 Q1895.4063,167.875 1897.9063,167.875 Q1898.6094,167.875 1899.25,168.0313 Q1899.9063,168.1875 1900.4688,168.4844 L1900.4688,171.2031 Q1899.8438,170.625 1899.25,170.3594 Q1898.6563,170.0781 1898.0313,170.0781 Q1896.6875,170.0781 1896,171.1563 Q1895.3125,172.2188 1895.3125,174.3125 Q1895.3125,176.4063 1896,177.4844 Q1896.6875,178.5469 1898.0313,178.5469 Q1898.6563,178.5469 1899.25,178.2813 Q1899.8438,178 1900.4688,177.4219 L1900.4688,180.1406 Z " fill="#000000"/><text fill="#000000" font-family="sans-serif" font-size="14" lengthAdjust="spacing" textLength="316.3604" x="1911.5" y="179.3467">logic_arc_int__baselibs__synchronized_queue</text><line style="stroke:#181818;stroke-width:0.5;" x1="1883.5" x2="2229.8604" y1="190.5" y2="190.5"/></g><!--class logic_arc_int__baselibs__task--><g id="elem_logic_arc_int__baselibs__task"><rect fill="#F1F1F1" height="40" id="logic_arc_int__baselibs__task" rx="2.5" ry="2.5" style="stroke:#181818;stroke-width:0.5;" width="234.0156" x="1613.5" y="158.5"/><ellipse cx="1628.5" cy="174.5" fill="#ADD1B2" rx="11" ry="11" style="stroke:#181818;stroke-width:1;"/><path d="M1631.4688,180.1406 Q1630.8906,180.4375 1630.25,180.5781 Q1629.6094,180.7344 1628.9063,180.7344 Q1626.4063,180.7344 1625.0781,179.0938 Q1623.7656,177.4375 1623.7656,174.3125 Q1623.7656,171.1875 1625.0781,169.5313 Q1626.4063,167.875 1628.9063,167.875 Q1629.6094,167.875 1630.25,168.0313 Q1630.9063,168.1875 1631.4688,168.4844 L1631.4688,171.2031 Q1630.8438,170.625 1630.25,170.3594 Q1629.6563,170.0781 1629.0313,170.0781 Q1627.6875,170.0781 1627,171.1563 Q1626.3125,172.2188 1626.3125,174.3125 Q1626.3125,176.4063 1627,177.4844 Q1627.6875,178.5469 1629.0313,178.5469 Q1629.6563,178.5469 1630.25,178.2813 Q1630.8438,178 1631.4688,177.4219 L1631.4688,180.1406 Z " fill="#000000"/><text fill="#000000" font-family="sans-serif" font-size="14" lengthAdjust="spacing" textLength="202.0156" x="1642.5" y="179.3467">logic_arc_int__baselibs__task</text><line style="stroke:#181818;stroke-width:0.5;" x1="1614.5" x2="1846.5156" y1="190.5" y2="190.5"/></g><!--class logic_arc_int__baselibs__future--><g id="elem_logic_arc_int__baselibs__future"><rect fill="#F1F1F1" height="40" id="logic_arc_int__baselibs__future" rx="2.5" ry="2.5" style="stroke:#181818;stroke-width:0.5;" width="247.0791" x="733" y="158.5"/><ellipse cx="748" cy="174.5" fill="#ADD1B2" rx="11" ry="11" style="stroke:#181818;stroke-width:1;"/><path d="M750.9688,180.1406 Q750.3906,180.4375 749.75,180.5781 Q749.1094,180.7344 748.4063,180.7344 Q745.9063,180.7344 744.5781,179.0938 Q743.2656,177.4375 743.2656,174.3125 Q743.2656,171.1875 744.5781,169.5313 Q745.9063,167.875 748.4063,167.875 Q749.1094,167.875 749.75,168.0313 Q750.4063,168.1875 750.9688,168.4844 L750.9688,171.2031 Q750.3438,170.625 749.75,170.3594 Q749.1563,170.0781 748.5313,170.0781 Q747.1875,170.0781 746.5,171.1563 Q745.8125,172.2188 745.8125,174.3125 Q745.8125,176.4063 746.5,177.4844 Q747.1875,178.5469 748.5313,178.5469 Q749.1563,178.5469 749.75,178.2813 Q750.3438,178 750.9688,177.4219 L750.9688,180.1406 Z " fill="#000000"/><text fill="#000000" font-family="sans-serif" font-size="14" lengthAdjust="spacing" textLength="215.0791" x="762" y="179.3467">logic_arc_int__baselibs__future</text><line style="stroke:#181818;stroke-width:0.5;" x1="734" x2="979.0791" y1="190.5" y2="190.5"/></g><!--class logic_arc_int__baselibs__result--><g id="elem_logic_arc_int__baselibs__result"><rect fill="#F1F1F1" height="40" id="logic_arc_int__baselibs__result" rx="2.5" ry="2.5" style="stroke:#181818;stroke-width:0.5;" width="244.4609" x="2919.5" y="158.5"/><ellipse cx="2934.5" cy="174.5" fill="#ADD1B2" rx="11" ry="11" style="stroke:#181818;stroke-width:1;"/><path d="M2937.4688,180.1406 Q2936.8906,180.4375 2936.25,180.5781 Q2935.6094,180.7344 2934.9063,180.7344 Q2932.4063,180.7344 2931.0781,179.0938 Q2929.7656,177.4375 2929.7656,174.3125 Q2929.7656,171.1875 2931.0781,169.5313 Q2932.4063,167.875 2934.9063,167.875 Q2935.6094,167.875 2936.25,168.0313 Q2936.9063,168.1875 2937.4688,168.4844 L2937.4688,171.2031 Q2936.8438,170.625 2936.25,170.3594 Q2935.6563,170.0781 2935.0313,170.0781 Q2933.6875,170.0781 2933,171.1563 Q2932.3125,172.2188 2932.3125,174.3125 Q2932.3125,176.4063 2933,177.4844 Q2933.6875,178.5469 2935.0313,178.5469 Q2935.6563,178.5469 2936.25,178.2813 Q2936.8438,178 2937.4688,177.4219 L2937.4688,180.1406 Z " fill="#000000"/><text fill="#000000" font-family="sans-serif" font-size="14" lengthAdjust="spacing" textLength="212.4609" x="2948.5" y="179.3467">logic_arc_int__baselibs__result</text><line style="stroke:#181818;stroke-width:0.5;" x1="2920.5" x2="3162.9609" y1="190.5" y2="190.5"/></g><!--class comp_arc_sta__baselibs__result--><g id="elem_comp_arc_sta__baselibs__result"><rect fill="#F1F1F1" height="40" id="comp_arc_sta__baselibs__result" rx="2.5" ry="2.5" style="stroke:#181818;stroke-width:0.5;" width="253.4297" x="2915" y="275.5"/><ellipse cx="2930" cy="291.5" fill="#ADD1B2" rx="11" ry="11" style="stroke:#181818;stroke-width:1;"/><path d="M2932.9688,297.1406 Q2932.3906,297.4375 2931.75,297.5781 Q2931.1094,297.7344 2930.4063,297.7344 Q2927.9063,297.7344 2926.5781,296.0938 Q2925.2656,294.4375 2925.2656,291.3125 Q2925.2656,288.1875 2926.5781,286.5313 Q2927.9063,284.875 2930.4063,284.875 Q2931.1094,284.875 2931.75,285.0313 Q2932.4063,285.1875 2932.9688,285.4844 L2932.9688,288.2031 Q2932.3438,287.625 2931.75,287.3594 Q2931.1563,287.0781 2930.5313,287.0781 Q2929.1875,287.0781 2928.5,288.1563 Q2927.8125,289.2188 2927.8125,291.3125 Q2927.8125,293.4063 2928.5,294.4844 Q2929.1875,295.5469 2930.5313,295.5469 Q2931.1563,295.5469 2931.75,295.2813 Q2932.3438,295 2932.9688,294.4219 L2932.9688,297.1406 Z " fill="#000000"/><text fill="#000000" font-family="sans-serif" font-size="14" lengthAdjust="spacing" textLength="221.4297" x="2944" y="296.3467">comp_arc_sta__baselibs__result</text><line style="stroke:#181818;stroke-width:0.5;" x1="2916" x2="3167.4297" y1="307.5" y2="307.5"/></g><!--class logic_arc_int__baselibs__executor--><g id="elem_logic_arc_int__baselibs__executor"><rect fill="#F1F1F1" height="40" id="logic_arc_int__baselibs__executor" rx="2.5" ry="2.5" style="stroke:#181818;stroke-width:0.5;" width="266.4385" x="1015.5" y="158.5"/><ellipse cx="1030.5" cy="174.5" fill="#ADD1B2" rx="11" ry="11" style="stroke:#181818;stroke-width:1;"/><path d="M1033.4688,180.1406 Q1032.8906,180.4375 1032.25,180.5781 Q1031.6094,180.7344 1030.9063,180.7344 Q1028.4063,180.7344 1027.0781,179.0938 Q1025.7656,177.4375 1025.7656,174.3125 Q1025.7656,171.1875 1027.0781,169.5313 Q1028.4063,167.875 1030.9063,167.875 Q1031.6094,167.875 1032.25,168.0313 Q1032.9063,168.1875 1033.4688,168.4844 L1033.4688,171.2031 Q1032.8438,170.625 1032.25,170.3594 Q1031.6563,170.0781 1031.0313,170.0781 Q1029.6875,170.0781 1029,171.1563 Q1028.3125,172.2188 1028.3125,174.3125 Q1028.3125,176.4063 1029,177.4844 Q1029.6875,178.5469 1031.0313,178.5469 Q1031.6563,178.5469 1032.25,178.2813 Q1032.8438,178 1033.4688,177.4219 L1033.4688,180.1406 Z " fill="#000000"/><text fill="#000000" font-family="sans-serif" font-size="14" lengthAdjust="spacing" textLength="234.4385" x="1044.5" y="179.3467">logic_arc_int__baselibs__executor</text><line style="stroke:#181818;stroke-width:0.5;" x1="1016.5" x2="1280.9385" y1="190.5" y2="190.5"/></g><!--class comp_arc_sta__baselibs__memory_shared--><g id="elem_comp_arc_sta__baselibs__memory_shared"><rect fill="#F1F1F1" height="40" id="comp_arc_sta__baselibs__memory_shared" rx="2.5" ry="2.5" style="stroke:#181818;stroke-width:0.5;" width="327.0117" x="7" y="275.5"/><ellipse cx="22" cy="291.5" fill="#ADD1B2" rx="11" ry="11" style="stroke:#181818;stroke-width:1;"/><path d="M24.9688,297.1406 Q24.3906,297.4375 23.75,297.5781 Q23.1094,297.7344 22.4063,297.7344 Q19.9063,297.7344 18.5781,296.0938 Q17.2656,294.4375 17.2656,291.3125 Q17.2656,288.1875 18.5781,286.5313 Q19.9063,284.875 22.4063,284.875 Q23.1094,284.875 23.75,285.0313 Q24.4063,285.1875 24.9688,285.4844 L24.9688,288.2031 Q24.3438,287.625 23.75,287.3594 Q23.1563,287.0781 22.5313,287.0781 Q21.1875,287.0781 20.5,288.1563 Q19.8125,289.2188 19.8125,291.3125 Q19.8125,293.4063 20.5,294.4844 Q21.1875,295.5469 22.5313,295.5469 Q23.1563,295.5469 23.75,295.2813 Q24.3438,295 24.9688,294.4219 L24.9688,297.1406 Z " fill="#000000"/><text fill="#000000" font-family="sans-serif" font-size="14" lengthAdjust="spacing" textLength="295.0117" x="36" y="296.3467">comp_arc_sta__baselibs__memory_shared</text><line style="stroke:#181818;stroke-width:0.5;" x1="8" x2="333.0117" y1="307.5" y2="307.5"/></g><!--class logic_arc_int__baselibs__task_result--><g id="elem_logic_arc_int__baselibs__task_result"><rect fill="#F1F1F1" height="40" id="logic_arc_int__baselibs__task_result" rx="2.5" ry="2.5" style="stroke:#181818;stroke-width:0.5;" width="280.9307" x="2603" y="158.5"/><ellipse cx="2618" cy="174.5" fill="#ADD1B2" rx="11" ry="11" style="stroke:#181818;stroke-width:1;"/><path d="M2620.9688,180.1406 Q2620.3906,180.4375 2619.75,180.5781 Q2619.1094,180.7344 2618.4063,180.7344 Q2615.9063,180.7344 2614.5781,179.0938 Q2613.2656,177.4375 2613.2656,174.3125 Q2613.2656,171.1875 2614.5781,169.5313 Q2615.9063,167.875 2618.4063,167.875 Q2619.1094,167.875 2619.75,168.0313 Q2620.4063,168.1875 2620.9688,168.4844 L2620.9688,171.2031 Q2620.3438,170.625 2619.75,170.3594 Q2619.1563,170.0781 2618.5313,170.0781 Q2617.1875,170.0781 2616.5,171.1563 Q2615.8125,172.2188 2615.8125,174.3125 Q2615.8125,176.4063 2616.5,177.4844 Q2617.1875,178.5469 2618.5313,178.5469 Q2619.1563,178.5469 2619.75,178.2813 Q2620.3438,178 2620.9688,177.4219 L2620.9688,180.1406 Z " fill="#000000"/><text fill="#000000" font-family="sans-serif" font-size="14" lengthAdjust="spacing" textLength="248.9307" x="2632" y="179.3467">logic_arc_int__baselibs__task_result</text><line style="stroke:#181818;stroke-width:0.5;" x1="2604" x2="2882.9307" y1="190.5" y2="190.5"/></g><!--class logic_arc_int__baselibs__utils_scoped_op--><g id="elem_logic_arc_int__baselibs__utils_scoped_op"><rect fill="#F1F1F1" height="40" id="logic_arc_int__baselibs__utils_scoped_op" rx="2.5" ry="2.5" style="stroke:#181818;stroke-width:0.5;" width="315.377" x="4198" y="158.5"/><ellipse cx="4213" cy="174.5" fill="#ADD1B2" rx="11" ry="11" style="stroke:#181818;stroke-width:1;"/><path d="M4215.9688,180.1406 Q4215.3906,180.4375 4214.75,180.5781 Q4214.1094,180.7344 4213.4063,180.7344 Q4210.9063,180.7344 4209.5781,179.0938 Q4208.2656,177.4375 4208.2656,174.3125 Q4208.2656,171.1875 4209.5781,169.5313 Q4210.9063,167.875 4213.4063,167.875 Q4214.1094,167.875 4214.75,168.0313 Q4215.4063,168.1875 4215.9688,168.4844 L4215.9688,171.2031 Q4215.3438,170.625 4214.75,170.3594 Q4214.1563,170.0781 4213.5313,170.0781 Q4212.1875,170.0781 4211.5,171.1563 Q4210.8125,172.2188 4210.8125,174.3125 Q4210.8125,176.4063 4211.5,177.4844 Q4212.1875,178.5469 4213.5313,178.5469 Q4214.1563,178.5469 4214.75,178.2813 Q4215.3438,178 4215.9688,177.4219 L4215.9688,180.1406 Z " fill="#000000"/><text fill="#000000" font-family="sans-serif" font-size="14" lengthAdjust="spacing" textLength="283.377" x="4227" y="179.3467">logic_arc_int__baselibs__utils_scoped_op</text><line style="stroke:#181818;stroke-width:0.5;" x1="4199" x2="4512.377" y1="190.5" y2="190.5"/></g><!--class logic_arc_int__baselibs__dynamic_array--><g id="elem_logic_arc_int__baselibs__dynamic_array"><rect fill="#F1F1F1" height="40" id="logic_arc_int__baselibs__dynamic_array" rx="2.5" ry="2.5" style="stroke:#181818;stroke-width:0.5;" width="308.3496" x="3198.5" y="158.5"/><ellipse cx="3213.5" cy="174.5" fill="#ADD1B2" rx="11" ry="11" style="stroke:#181818;stroke-width:1;"/><path d="M3216.4688,180.1406 Q3215.8906,180.4375 3215.25,180.5781 Q3214.6094,180.7344 3213.9063,180.7344 Q3211.4063,180.7344 3210.0781,179.0938 Q3208.7656,177.4375 3208.7656,174.3125 Q3208.7656,171.1875 3210.0781,169.5313 Q3211.4063,167.875 3213.9063,167.875 Q3214.6094,167.875 3215.25,168.0313 Q3215.9063,168.1875 3216.4688,168.4844 L3216.4688,171.2031 Q3215.8438,170.625 3215.25,170.3594 Q3214.6563,170.0781 3214.0313,170.0781 Q3212.6875,170.0781 3212,171.1563 Q3211.3125,172.2188 3211.3125,174.3125 Q3211.3125,176.4063 3212,177.4844 Q3212.6875,178.5469 3214.0313,178.5469 Q3214.6563,178.5469 3215.25,178.2813 Q3215.8438,178 3216.4688,177.4219 L3216.4688,180.1406 Z " fill="#000000"/><text fill="#000000" font-family="sans-serif" font-size="14" lengthAdjust="spacing" textLength="276.3496" x="3227.5" y="179.3467">logic_arc_int__baselibs__dynamic_array</text><line style="stroke:#181818;stroke-width:0.5;" x1="3199.5" x2="3505.8496" y1="190.5" y2="190.5"/></g><!--class logic_arc_int__baselibs__promise--><g id="elem_logic_arc_int__baselibs__promise"><rect fill="#F1F1F1" height="40" id="logic_arc_int__baselibs__promise" rx="2.5" ry="2.5" style="stroke:#181818;stroke-width:0.5;" width="261.1885" x="1317" y="158.5"/><ellipse cx="1332" cy="174.5" fill="#ADD1B2" rx="11" ry="11" style="stroke:#181818;stroke-width:1;"/><path d="M1334.9688,180.1406 Q1334.3906,180.4375 1333.75,180.5781 Q1333.1094,180.7344 1332.4063,180.7344 Q1329.9063,180.7344 1328.5781,179.0938 Q1327.2656,177.4375 1327.2656,174.3125 Q1327.2656,171.1875 1328.5781,169.5313 Q1329.9063,167.875 1332.4063,167.875 Q1333.1094,167.875 1333.75,168.0313 Q1334.4063,168.1875 1334.9688,168.4844 L1334.9688,171.2031 Q1334.3438,170.625 1333.75,170.3594 Q1333.1563,170.0781 1332.5313,170.0781 Q1331.1875,170.0781 1330.5,171.1563 Q1329.8125,172.2188 1329.8125,174.3125 Q1329.8125,176.4063 1330.5,177.4844 Q1331.1875,178.5469 1332.5313,178.5469 Q1333.1563,178.5469 1333.75,178.2813 Q1334.3438,178 1334.9688,177.4219 L1334.9688,180.1406 Z " fill="#000000"/><text fill="#000000" font-family="sans-serif" font-size="14" lengthAdjust="spacing" textLength="229.1885" x="1346" y="179.3467">logic_arc_int__baselibs__promise</text><line style="stroke:#181818;stroke-width:0.5;" x1="1318" x2="1577.1885" y1="190.5" y2="190.5"/></g><!--reverse link logic_arc_int__baselibs__shared_future to comp_arc_sta__baselibs__concurrency--><g id="link_logic_arc_int__baselibs__shared_future_comp_arc_sta__baselibs__concurrency"><path codeLine="14" d="M2270.0445,199.3565 C2112.9545,220.6665 1865.99,254.16 1708.93,275.46 " fill="transparent" id="logic_arc_int__baselibs__shared_future-backto-comp_arc_sta__baselibs__concurrency" style="stroke:#181818;stroke-width:1;"/><polygon fill="#181818" points="2275.99,198.55,2266.534,195.7961,2271.0354,199.2221,2267.6094,203.7235,2275.99,198.55" style="stroke:#181818;stroke-width:1;"/><text fill="#000000" font-family="sans-serif" font-size="13" lengthAdjust="spacing" textLength="76.9082" x="2044.5" y="241.5669">implements</text></g><!--reverse link logic_arc_int__baselibs__bit_manipulation to comp_arc_sta__baselibs__bit_manipulation--><g id="link_logic_arc_int__baselibs__bit_manipulation_comp_arc_sta__baselibs__bit_manipulation"><path codeLine="15" d="M5038.5701,201.6001 C4999.1301,222.8901 4941.25,254.14 4901.91,275.38 " fill="transparent" id="logic_arc_int__baselibs__bit_manipulation-backto-comp_arc_sta__baselibs__bit_manipulation" style="stroke:#181818;stroke-width:1;"/><polygon fill="#181818" points="5043.85,198.75,5034.0301,199.5053,5039.4501,201.1251,5037.8303,206.5451,5043.85,198.75" style="stroke:#181818;stroke-width:1;"/><text fill="#000000" font-family="sans-serif" font-size="13" lengthAdjust="spacing" textLength="76.9082" x="4986.5" y="241.5669">implements</text></g><!--link Feature_User to logic_arc_int__baselibs__bit_mask_operator--><g id="link_Feature_User_logic_arc_int__baselibs__bit_mask_operator"><path codeLine="17" d="M3086.61,47.52 C3267.91,59.77 3961.11,107.47 4530.5,158.5 C4536.13,159 4535.876,158.9719 4541.656,159.5119 " fill="transparent" id="Feature_User-to-logic_arc_int__baselibs__bit_mask_operator" style="stroke:#181818;stroke-width:1;"/><polygon fill="#181818" points="4547.63,160.07,4539.0411,155.2502,4542.6517,159.6049,4538.2969,163.2155,4547.63,160.07" style="stroke:#181818;stroke-width:1;"/><text fill="#000000" font-family="sans-serif" font-size="13" lengthAdjust="spacing" textLength="23.0103" x="4163.5" y="124.5669">use</text></g><!--reverse link logic_arc_int__baselibs__utils_base64 to comp_arc_sta__baselibs__utils--><g id="link_logic_arc_int__baselibs__utils_base64_comp_arc_sta__baselibs__utils"><path codeLine="18" d="M4049.7506,202.1252 C4081.0406,223.4152 4126.19,254.14 4157.4,275.38 " fill="transparent" id="logic_arc_int__baselibs__utils_base64-backto-comp_arc_sta__baselibs__utils" style="stroke:#181818;stroke-width:1;"/><polygon fill="#181818" points="4044.79,198.75,4049.9808,207.1199,4048.9238,201.5627,4054.4811,200.5058,4044.79,198.75" style="stroke:#181818;stroke-width:1;"/><text fill="#000000" font-family="sans-serif" font-size="13" lengthAdjust="spacing" textLength="76.9082" x="4111.5" y="241.5669">implements</text></g><!--link Feature_User to logic_arc_int__baselibs__bit_manipulation--><g id="link_Feature_User_logic_arc_int__baselibs__bit_manipulation"><path codeLine="19" d="M3086.51,46.43 C3293.85,55.5 4177.68,96.07 4900.5,158.5 C4906.26,159 4906.1457,158.965 4912.0657,159.515 " fill="transparent" id="Feature_User-to-logic_arc_int__baselibs__bit_manipulation" style="stroke:#181818;stroke-width:1;"/><polygon fill="#181818" points="4918.04,160.07,4909.4486,155.2546,4913.0614,159.6075,4908.7086,163.2203,4918.04,160.07" style="stroke:#181818;stroke-width:1;"/><text fill="#000000" font-family="sans-serif" font-size="13" lengthAdjust="spacing" textLength="23.0103" x="4494.5" y="124.5669">use</text></g><!--link Feature_User to logic_arc_int__baselibs__utils_base64--><g id="link_Feature_User_logic_arc_int__baselibs__utils_base64"><path codeLine="20" d="M3086.57,50.65 C3225.89,69.65 3647.715,127.1991 3871.245,157.6891 " fill="transparent" id="Feature_User-to-logic_arc_int__baselibs__utils_base64" style="stroke:#181818;stroke-width:1;"/><polygon fill="#181818" points="3877.19,158.5,3868.8132,153.3203,3872.2359,157.8242,3867.732,161.2469,3877.19,158.5" style="stroke:#181818;stroke-width:1;"/><text fill="#000000" font-family="sans-serif" font-size="13" lengthAdjust="spacing" textLength="23.0103" x="3645.5" y="124.5669">use</text></g><!--reverse link logic_arc_int__baselibs__intrusive_list to comp_arc_sta__baselibs__containers--><g id="link_logic_arc_int__baselibs__intrusive_list_comp_arc_sta__baselibs__containers"><path codeLine="21" d="M3650.5148,201.7861 C3614.2248,223.0761 3561.29,254.14 3525.09,275.38 " fill="transparent" id="logic_arc_int__baselibs__intrusive_list-backto-comp_arc_sta__baselibs__containers" style="stroke:#181818;stroke-width:1;"/><polygon fill="#181818" points="3655.69,198.75,3645.9032,199.854,3651.3774,201.2801,3649.9513,206.7542,3655.69,198.75" style="stroke:#181818;stroke-width:1;"/><text fill="#000000" font-family="sans-serif" font-size="13" lengthAdjust="spacing" textLength="76.9082" x="3602.5" y="241.5669">implements</text></g><!--link Feature_User to logic_arc_int__baselibs__shared_future--><g id="link_Feature_User_logic_arc_int__baselibs__shared_future"><path codeLine="22" d="M2996.3,54.12 C2893.67,75.96 2647.3586,128.3712 2511.8786,157.2012 " fill="transparent" id="Feature_User-to-logic_arc_int__baselibs__shared_future" style="stroke:#181818;stroke-width:1;"/><polygon fill="#181818" points="2506.01,158.45,2515.6454,160.4892,2510.9005,157.4093,2513.9803,152.6644,2506.01,158.45" style="stroke:#181818;stroke-width:1;"/><text fill="#000000" font-family="sans-serif" font-size="13" lengthAdjust="spacing" textLength="23.0103" x="2710.5" y="124.5669">use</text></g><!--reverse link logic_arc_int__baselibs__json to comp_arc_sta__baselibs__json--><g id="link_logic_arc_int__baselibs__json_comp_arc_sta__baselibs__json"><path codeLine="23" d="M6072.379,204.7464 C6073.119,225.9764 6074.09,253.94 6074.83,275.19 " fill="transparent" id="logic_arc_int__baselibs__json-backto-comp_arc_sta__baselibs__json" style="stroke:#181818;stroke-width:1;"/><polygon fill="#181818" points="6072.17,198.75,6068.4859,207.8839,6072.3442,203.747,6076.4811,207.6052,6072.17,198.75" style="stroke:#181818;stroke-width:1;"/><text fill="#000000" font-family="sans-serif" font-size="13" lengthAdjust="spacing" textLength="76.9082" x="6074.5" y="241.5669">implements</text></g><!--reverse link logic_arc_int__baselibs__message_passing to comp_arc_sta__baselibs__message_passing--><g id="link_logic_arc_int__baselibs__message_passing_comp_arc_sta__baselibs__message_passing"><path codeLine="24" d="M5750.5,204.75 C5750.5,225.98 5750.5,253.94 5750.5,275.19 " fill="transparent" id="logic_arc_int__baselibs__message_passing-backto-comp_arc_sta__baselibs__message_passing" style="stroke:#181818;stroke-width:1;"/><polygon fill="#181818" points="5750.5,198.75,5746.5,207.75,5750.5,203.75,5754.5,207.75,5750.5,198.75" style="stroke:#181818;stroke-width:1;"/><text fill="#000000" font-family="sans-serif" font-size="13" lengthAdjust="spacing" textLength="76.9082" x="5751.5" y="241.5669">implements</text></g><!--reverse link logic_arc_int__baselibs__condition_variable to comp_arc_sta__baselibs__concurrency--><g id="link_logic_arc_int__baselibs__condition_variable_comp_arc_sta__baselibs__concurrency"><path codeLine="25" d="M682.9511,199.2743 C790.2511,213.0543 933.89,230.96 1065.5,245.5 C1184,258.59 1318.4,271.59 1418.45,280.91 " fill="transparent" id="logic_arc_int__baselibs__condition_variable-backto-comp_arc_sta__baselibs__concurrency" style="stroke:#181818;stroke-width:1;"/><polygon fill="#181818" points="677,198.51,685.4172,203.6238,681.9593,199.1469,686.4362,195.689,677,198.51" style="stroke:#181818;stroke-width:1;"/><text fill="#000000" font-family="sans-serif" font-size="13" lengthAdjust="spacing" textLength="76.9082" x="1066.5" y="241.5669">implements</text></g><!--reverse link logic_arc_int__baselibs__filesystem to comp_arc_sta__baselibs__filesystem--><g id="link_logic_arc_int__baselibs__filesystem_comp_arc_sta__baselibs__filesystem"><path codeLine="26" d="M5411.5223,204.7317 C5409.8623,225.9617 5407.67,253.94 5406.01,275.19 " fill="transparent" id="logic_arc_int__baselibs__filesystem-backto-comp_arc_sta__baselibs__filesystem" style="stroke:#181818;stroke-width:1;"/><polygon fill="#181818" points="5411.99,198.75,5407.3006,207.4108,5411.6002,203.7348,5415.2762,208.0344,5411.99,198.75" style="stroke:#181818;stroke-width:1;"/><text fill="#000000" font-family="sans-serif" font-size="13" lengthAdjust="spacing" textLength="76.9082" x="5410.5" y="241.5669">implements</text></g><!--link Feature_User to logic_arc_int__baselibs__memory_shared--><g id="link_Feature_User_logic_arc_int__baselibs__memory_shared"><path codeLine="27" d="M2996.33,45.39 C2778.21,49.81 1812.14,70.83 1021.5,111.5 C721.61,126.92 646.61,132.03 347.5,158.5 C341.65,159.02 341.6632,158.9935 335.6532,159.5635 " fill="transparent" id="Feature_User-to-logic_arc_int__baselibs__memory_shared" style="stroke:#181818;stroke-width:1;"/><polygon fill="#181818" points="329.68,160.13,339.0175,163.2624,334.6577,159.6579,338.2621,155.2981,329.68,160.13" style="stroke:#181818;stroke-width:1;"/><text fill="#000000" font-family="sans-serif" font-size="13" lengthAdjust="spacing" textLength="23.0103" x="1022.5" y="124.5669">use</text></g><!--link Feature_User to logic_arc_int__baselibs__json--><g id="link_Feature_User_logic_arc_int__baselibs__json"><path codeLine="28" d="M3086.68,45.31 C3314.6,49.51 4360.87,70.25 5216.5,111.5 C5535.04,126.86 5615.21,126.44 5932.5,158.5 C5939.77,159.23 5941.2805,159.3645 5948.8205,160.2445 " fill="transparent" id="Feature_User-to-logic_arc_int__baselibs__json" style="stroke:#181818;stroke-width:1;"/><polygon fill="#181818" points="5954.78,160.94,5946.3044,155.9237,5949.8137,160.3604,5945.377,163.8697,5954.78,160.94" style="stroke:#181818;stroke-width:1;"/><text fill="#000000" font-family="sans-serif" font-size="13" lengthAdjust="spacing" textLength="23.0103" x="5563.5" y="124.5669">use</text></g><!--reverse link logic_arc_int__baselibs__synchronized_queue to comp_arc_sta__baselibs__concurrency--><g id="link_logic_arc_int__baselibs__synchronized_queue_comp_arc_sta__baselibs__concurrency"><path codeLine="29" d="M1969.8,199.9264 C1879.47,221.2164 1739.91,254.11 1649.51,275.41 " fill="transparent" id="logic_arc_int__baselibs__synchronized_queue-backto-comp_arc_sta__baselibs__concurrency" style="stroke:#181818;stroke-width:1;"/><polygon fill="#181818" points="1975.64,198.55,1965.9624,196.7213,1970.7733,199.697,1967.7976,204.508,1975.64,198.55" style="stroke:#181818;stroke-width:1;"/><text fill="#000000" font-family="sans-serif" font-size="13" lengthAdjust="spacing" textLength="76.9082" x="1843.5" y="241.5669">implements</text></g><!--link Feature_User to logic_arc_int__baselibs__message_passing--><g id="link_Feature_User_logic_arc_int__baselibs__message_passing"><path codeLine="30" d="M3086.53,45.59 C3293,50.71 4169.94,73.68 4888.5,111.5 C5191.47,127.45 5267.25,132.21 5569.5,158.5 C5575.01,158.98 5574.6352,158.9311 5580.2952,159.4511 " fill="transparent" id="Feature_User-to-logic_arc_int__baselibs__message_passing" style="stroke:#181818;stroke-width:1;"/><polygon fill="#181818" points="5586.27,160,5577.6737,155.1934,5581.291,159.5426,5576.9418,163.1598,5586.27,160" style="stroke:#181818;stroke-width:1;"/><text fill="#000000" font-family="sans-serif" font-size="13" lengthAdjust="spacing" textLength="23.0103" x="5184.5" y="124.5669">use</text></g><!--link Feature_User to logic_arc_int__baselibs__synchronized_queue--><g id="link_Feature_User_logic_arc_int__baselibs__synchronized_queue"><path codeLine="31" d="M2996.29,50.6 C2855.91,69.56 2429.356,127.1571 2203.336,157.6771 " fill="transparent" id="Feature_User-to-logic_arc_int__baselibs__synchronized_queue" style="stroke:#181818;stroke-width:1;"/><polygon fill="#181818" points="2197.39,158.48,2206.8443,161.2397,2202.345,157.8109,2205.7738,153.3116,2197.39,158.48" style="stroke:#181818;stroke-width:1;"/><text fill="#000000" font-family="sans-serif" font-size="13" lengthAdjust="spacing" textLength="23.0103" x="2519.5" y="124.5669">use</text></g><!--reverse link logic_arc_int__baselibs__task to comp_arc_sta__baselibs__concurrency--><g id="link_logic_arc_int__baselibs__task_comp_arc_sta__baselibs__concurrency"><path codeLine="32" d="M1698.4875,202.2232 C1668.4975,223.5132 1625.35,254.14 1595.43,275.38 " fill="transparent" id="logic_arc_int__baselibs__task-backto-comp_arc_sta__baselibs__concurrency" style="stroke:#181818;stroke-width:1;"/><polygon fill="#181818" points="1703.38,198.75,1693.7257,200.6981,1699.3029,201.6443,1698.3567,207.2215,1703.38,198.75" style="stroke:#181818;stroke-width:1;"/><text fill="#000000" font-family="sans-serif" font-size="13" lengthAdjust="spacing" textLength="76.9082" x="1660.5" y="241.5669">implements</text></g><!--link Feature_User to logic_arc_int__baselibs__future--><g id="link_Feature_User_logic_arc_int__baselibs__future"><path codeLine="33" d="M2996.32,46.08 C2818.46,52.41 2149.48,77.26 1599.5,111.5 C1331.65,128.17 1264.37,130.12 997.5,158.5 C991.85,159.1 992.0396,159.0549 986.2096,159.7349 " fill="transparent" id="Feature_User-to-logic_arc_int__baselibs__future" style="stroke:#181818;stroke-width:1;"/><polygon fill="#181818" points="980.25,160.43,989.6528,163.3604,985.2163,159.8507,988.726,155.4143,980.25,160.43" style="stroke:#181818;stroke-width:1;"/><text fill="#000000" font-family="sans-serif" font-size="13" lengthAdjust="spacing" textLength="23.0103" x="1600.5" y="124.5669">use</text></g><!--link Feature_User to logic_arc_int__baselibs__result--><g id="link_Feature_User_logic_arc_int__baselibs__result"><path codeLine="34" d="M3041.5,81.55 C3041.5,106.45 3041.5,132.26 3041.5,152.26 " fill="transparent" id="Feature_User-to-logic_arc_int__baselibs__result" style="stroke:#181818;stroke-width:1;"/><polygon fill="#181818" points="3041.5,158.26,3045.5,149.26,3041.5,153.26,3037.5,149.26,3041.5,158.26" style="stroke:#181818;stroke-width:1;"/><text fill="#000000" font-family="sans-serif" font-size="13" lengthAdjust="spacing" textLength="23.0103" x="3042.5" y="124.5669">use</text></g><!--reverse link logic_arc_int__baselibs__result to comp_arc_sta__baselibs__result--><g id="link_logic_arc_int__baselibs__result_comp_arc_sta__baselibs__result"><path codeLine="35" d="M3041.5,204.75 C3041.5,225.98 3041.5,253.94 3041.5,275.19 " fill="transparent" id="logic_arc_int__baselibs__result-backto-comp_arc_sta__baselibs__result" style="stroke:#181818;stroke-width:1;"/><polygon fill="#181818" points="3041.5,198.75,3037.5,207.75,3041.5,203.75,3045.5,207.75,3041.5,198.75" style="stroke:#181818;stroke-width:1;"/><text fill="#000000" font-family="sans-serif" font-size="13" lengthAdjust="spacing" textLength="76.9082" x="3042.5" y="241.5669">implements</text></g><!--reverse link logic_arc_int__baselibs__executor to comp_arc_sta__baselibs__concurrency--><g id="link_logic_arc_int__baselibs__executor_comp_arc_sta__baselibs__concurrency"><path codeLine="36" d="M1224.117,200.2046 C1301.907,221.5046 1421.14,254.15 1498.86,275.43 " fill="transparent" id="logic_arc_int__baselibs__executor-backto-comp_arc_sta__baselibs__concurrency" style="stroke:#181818;stroke-width:1;"/><polygon fill="#181818" points="1218.33,198.62,1225.9541,204.8548,1223.1525,199.9405,1228.0668,197.1388,1218.33,198.62" style="stroke:#181818;stroke-width:1;"/><text fill="#000000" font-family="sans-serif" font-size="13" lengthAdjust="spacing" textLength="76.9082" x="1385.5" y="241.5669">implements</text></g><!--reverse link logic_arc_int__baselibs__future to comp_arc_sta__baselibs__concurrency--><g id="link_logic_arc_int__baselibs__future_comp_arc_sta__baselibs__concurrency"><path codeLine="37" d="M972.3036,199.5448 C1050.6236,212.9848 1152.51,230.23 1247.5,245.5 C1311.09,255.72 1381.86,266.58 1440.73,275.47 " fill="transparent" id="logic_arc_int__baselibs__future-backto-comp_arc_sta__baselibs__concurrency" style="stroke:#181818;stroke-width:1;"/><polygon fill="#181818" points="966.39,198.53,974.5838,203.9946,971.318,199.3757,975.9369,196.1098,966.39,198.53" style="stroke:#181818;stroke-width:1;"/><text fill="#000000" font-family="sans-serif" font-size="13" lengthAdjust="spacing" textLength="76.9082" x="1248.5" y="241.5669">implements</text></g><!--reverse link logic_arc_int__baselibs__memory_shared to comp_arc_sta__baselibs__memory_shared--><g id="link_logic_arc_int__baselibs__memory_shared_comp_arc_sta__baselibs__memory_shared"><path codeLine="38" d="M170.5,204.75 C170.5,225.98 170.5,253.94 170.5,275.19 " fill="transparent" id="logic_arc_int__baselibs__memory_shared-backto-comp_arc_sta__baselibs__memory_shared" style="stroke:#181818;stroke-width:1;"/><polygon fill="#181818" points="170.5,198.75,166.5,207.75,170.5,203.75,174.5,207.75,170.5,198.75" style="stroke:#181818;stroke-width:1;"/><text fill="#000000" font-family="sans-serif" font-size="13" lengthAdjust="spacing" textLength="76.9082" x="171.5" y="241.5669">implements</text></g><!--link Feature_User to logic_arc_int__baselibs__condition_variable--><g id="link_Feature_User_logic_arc_int__baselibs__condition_variable"><path codeLine="39" d="M2996.28,45.53 C2796.31,50.22 1971.52,71.16 1295.5,111.5 C1037.34,126.91 973.03,134.77 715.5,158.5 C709.9,159.02 710.1826,158.9777 704.4426,159.5277 " fill="transparent" id="Feature_User-to-logic_arc_int__baselibs__condition_variable" style="stroke:#181818;stroke-width:1;"/><polygon fill="#181818" points="698.47,160.1,707.8105,163.2233,703.4472,159.6231,707.0474,155.2598,698.47,160.1" style="stroke:#181818;stroke-width:1;"/><text fill="#000000" font-family="sans-serif" font-size="13" lengthAdjust="spacing" textLength="23.0103" x="1296.5" y="124.5669">use</text></g><!--reverse link logic_arc_int__baselibs__task_result to comp_arc_sta__baselibs__concurrency--><g id="link_logic_arc_int__baselibs__task_result_comp_arc_sta__baselibs__concurrency"><path codeLine="40" d="M2596.7085,197.2384 C2590.9085,197.8984 2591.13,197.87 2585.5,198.5 C2383.02,221.11 2332.32,226.19 2129.5,245.5 C1990.32,258.75 1831.59,272.49 1718.57,282.03 " fill="transparent" id="logic_arc_int__baselibs__task_result-backto-comp_arc_sta__baselibs__concurrency" style="stroke:#181818;stroke-width:1;"/><polygon fill="#181818" points="2602.67,196.56,2593.2755,193.6032,2597.7021,197.1253,2594.18,201.5519,2602.67,196.56" style="stroke:#181818;stroke-width:1;"/><text fill="#000000" font-family="sans-serif" font-size="13" lengthAdjust="spacing" textLength="76.9082" x="2304.5" y="241.5669">implements</text></g><!--link Feature_User to logic_arc_int__baselibs__task_result--><g id="link_Feature_User_logic_arc_int__baselibs__task_result"><path codeLine="41" d="M2996.24,64.7 C2939.25,90.13 2847.5491,131.0646 2791.7591,155.9646 " fill="transparent" id="Feature_User-to-logic_arc_int__baselibs__task_result" style="stroke:#181818;stroke-width:1;"/><polygon fill="#181818" points="2786.28,158.41,2796.1288,158.3946,2790.8459,156.3722,2792.8683,151.0892,2786.28,158.41" style="stroke:#181818;stroke-width:1;"/><text fill="#000000" font-family="sans-serif" font-size="13" lengthAdjust="spacing" textLength="23.0103" x="2884.5" y="124.5669">use</text></g><!--reverse link logic_arc_int__baselibs__utils_scoped_op to comp_arc_sta__baselibs__utils--><g id="link_logic_arc_int__baselibs__utils_scoped_op_comp_arc_sta__baselibs__utils"><path codeLine="42" d="M4322.0799,202.1113 C4290.5999,223.4013 4245.16,254.14 4213.76,275.38 " fill="transparent" id="logic_arc_int__baselibs__utils_scoped_op-backto-comp_arc_sta__baselibs__utils" style="stroke:#181818;stroke-width:1;"/><polygon fill="#181818" points="4327.05,198.75,4317.354,200.4785,4322.9083,201.5511,4321.8357,207.1053,4327.05,198.75" style="stroke:#181818;stroke-width:1;"/><text fill="#000000" font-family="sans-serif" font-size="13" lengthAdjust="spacing" textLength="76.9082" x="4281.5" y="241.5669">implements</text></g><!--link Feature_User to logic_arc_int__baselibs__utils_scoped_op--><g id="link_Feature_User_logic_arc_int__baselibs__utils_scoped_op"><path codeLine="43" d="M3086.55,48.87 C3239.8,63.77 3755.04,114.11 4180.5,158.5 C4186.12,159.09 4185.8831,159.0603 4191.6631,159.6703 " fill="transparent" id="Feature_User-to-logic_arc_int__baselibs__utils_scoped_op" style="stroke:#181818;stroke-width:1;"/><polygon fill="#181818" points="4197.63,160.3,4189.0995,155.3775,4192.6576,159.7752,4188.2599,163.3333,4197.63,160.3" style="stroke:#181818;stroke-width:1;"/><text fill="#000000" font-family="sans-serif" font-size="13" lengthAdjust="spacing" textLength="23.0103" x="3868.5" y="124.5669">use</text></g><!--reverse link logic_arc_int__baselibs__bit_mask_operator to comp_arc_sta__baselibs__bit_manipulation--><g id="link_logic_arc_int__baselibs__bit_mask_operator_comp_arc_sta__baselibs__bit_manipulation"><path codeLine="44" d="M4745.5436,202.3849 C4773.5036,223.6749 4813.51,254.14 4841.4,275.38 " fill="transparent" id="logic_arc_int__baselibs__bit_mask_operator-backto-comp_arc_sta__baselibs__bit_manipulation" style="stroke:#181818;stroke-width:1;"/><polygon fill="#181818" points="4740.77,198.75,4745.5072,207.3847,4744.748,201.7791,4750.3537,201.0199,4740.77,198.75" style="stroke:#181818;stroke-width:1;"/><text fill="#000000" font-family="sans-serif" font-size="13" lengthAdjust="spacing" textLength="76.9082" x="4800.5" y="241.5669">implements</text></g><!--link Feature_User to logic_arc_int__baselibs__intrusive_list--><g id="link_Feature_User_logic_arc_int__baselibs__intrusive_list"><path codeLine="45" d="M3086.74,53.8 C3191.96,75.43 3449.0129,128.2719 3589.9429,157.2419 " fill="transparent" id="Feature_User-to-logic_arc_int__baselibs__intrusive_list" style="stroke:#181818;stroke-width:1;"/><polygon fill="#181818" points="3595.82,158.45,3587.8097,152.7197,3590.9224,157.4432,3586.1989,160.5559,3595.82,158.45" style="stroke:#181818;stroke-width:1;"/><text fill="#000000" font-family="sans-serif" font-size="13" lengthAdjust="spacing" textLength="23.0103" x="3442.5" y="124.5669">use</text></g><!--link Feature_User to logic_arc_int__baselibs__task--><g id="link_Feature_User_logic_arc_int__baselibs__task"><path codeLine="46" d="M2996.25,48.16 C2839.4,60.98 2304.57,106.02 1864.5,158.5 C1859.02,159.15 1859.362,159.0929 1853.702,159.8129 " fill="transparent" id="Feature_User-to-logic_arc_int__baselibs__task" style="stroke:#181818;stroke-width:1;"/><polygon fill="#181818" points="1847.75,160.57,1857.1828,163.4023,1852.71,159.939,1856.1733,155.4663,1847.75,160.57" style="stroke:#181818;stroke-width:1;"/><text fill="#000000" font-family="sans-serif" font-size="13" lengthAdjust="spacing" textLength="23.0103" x="2285.5" y="124.5669">use</text></g><!--link Feature_User to logic_arc_int__baselibs__executor--><g id="link_Feature_User_logic_arc_int__baselibs__executor"><path codeLine="47" d="M2996.31,46.2 C2796.5,54 1972.53,88.92 1299.5,158.5 C1293.72,159.1 1293.7724,159.0597 1287.8124,159.7297 " fill="transparent" id="Feature_User-to-logic_arc_int__baselibs__executor" style="stroke:#181818;stroke-width:1;"/><polygon fill="#181818" points="1281.85,160.4,1291.2405,163.3696,1286.8187,159.8414,1290.3468,155.4196,1281.85,160.4" style="stroke:#181818;stroke-width:1;"/><text fill="#000000" font-family="sans-serif" font-size="13" lengthAdjust="spacing" textLength="23.0103" x="1826.5" y="124.5669">use</text></g><!--link Feature_User to logic_arc_int__baselibs__dynamic_array--><g id="link_Feature_User_logic_arc_int__baselibs__dynamic_array"><path codeLine="48" d="M3086.72,63.84 C3145.94,89.16 3243.5931,130.9312 3302.4631,156.1012 " fill="transparent" id="Feature_User-to-logic_arc_int__baselibs__dynamic_array" style="stroke:#181818;stroke-width:1;"/><polygon fill="#181818" points="3307.98,158.46,3301.2772,151.2439,3303.3826,156.4944,3298.1321,158.5998,3307.98,158.46" style="stroke:#181818;stroke-width:1;"/><text fill="#000000" font-family="sans-serif" font-size="13" lengthAdjust="spacing" textLength="23.0103" x="3234.5" y="124.5669">use</text></g><!--reverse link logic_arc_int__baselibs__dynamic_array to comp_arc_sta__baselibs__containers--><g id="link_logic_arc_int__baselibs__dynamic_array_comp_arc_sta__baselibs__containers"><path codeLine="49" d="M3380.5667,202.558 C3406.4167,223.788 3443.12,253.94 3468.99,275.19 " fill="transparent" id="logic_arc_int__baselibs__dynamic_array-backto-comp_arc_sta__baselibs__containers" style="stroke:#181818;stroke-width:1;"/><polygon fill="#181818" points="3375.93,198.75,3380.3464,207.5532,3379.7939,201.9233,3385.4237,201.3709,3375.93,198.75" style="stroke:#181818;stroke-width:1;"/><text fill="#000000" font-family="sans-serif" font-size="13" lengthAdjust="spacing" textLength="76.9082" x="3431.5" y="241.5669">implements</text></g><!--reverse link logic_arc_int__baselibs__promise to comp_arc_sta__baselibs__concurrency--><g id="link_logic_arc_int__baselibs__promise_comp_arc_sta__baselibs__concurrency"><path codeLine="50" d="M1472.0993,202.8832 C1494.4393,224.1132 1525.82,253.94 1548.18,275.19 " fill="transparent" id="logic_arc_int__baselibs__promise-backto-comp_arc_sta__baselibs__concurrency" style="stroke:#181818;stroke-width:1;"/><polygon fill="#181818" points="1467.75,198.75,1471.5185,207.8494,1471.3744,202.1943,1477.0294,202.0503,1467.75,198.75" style="stroke:#181818;stroke-width:1;"/><text fill="#000000" font-family="sans-serif" font-size="13" lengthAdjust="spacing" textLength="76.9082" x="1516.5" y="241.5669">implements</text></g><!--link Feature_User to logic_arc_int__baselibs__filesystem--><g id="link_Feature_User_logic_arc_int__baselibs__filesystem"><path codeLine="51" d="M3086.78,46.23 C3267.99,53.21 3958.62,80.46 4526.5,111.5 C4852.02,129.29 4933.91,128.21 5258.5,158.5 C5264.03,159.02 5263.712,158.9512 5269.402,159.5412 " fill="transparent" id="Feature_User-to-logic_arc_int__baselibs__filesystem" style="stroke:#181818;stroke-width:1;"/><polygon fill="#181818" points="5275.37,160.16,5266.8305,155.2531,5270.3967,159.6443,5266.0054,163.2104,5275.37,160.16" style="stroke:#181818;stroke-width:1;"/><text fill="#000000" font-family="sans-serif" font-size="13" lengthAdjust="spacing" textLength="23.0103" x="4856.5" y="124.5669">use</text></g><!--link Feature_User to logic_arc_int__baselibs__promise--><g id="link_Feature_User_logic_arc_int__baselibs__promise"><path codeLine="52" d="M2996.43,47.07 C2818.31,57.45 2146.25,98.56 1595.5,158.5 C1589.83,159.12 1590.0109,159.0861 1584.1709,159.7561 " fill="transparent" id="Feature_User-to-logic_arc_int__baselibs__promise" style="stroke:#181818;stroke-width:1;"/><polygon fill="#181818" points="1578.21,160.44,1587.6073,163.3881,1583.1774,159.8701,1586.6954,155.4403,1578.21,160.44" style="stroke:#181818;stroke-width:1;"/><text fill="#000000" font-family="sans-serif" font-size="13" lengthAdjust="spacing" textLength="23.0103" x="2072.5" y="124.5669">use</text></g><!--SRC=[hLPDSzGm3BtxLtXwty8m38TEfnTcEFK8Pu_ZgBkY_WYMN1eO_ZlUx48tORkEGuvEdgGdIq-ojZPyLmwVqMy5Xqvoa4rW3aws6C4m1Yzss88aXWY1-muEPt0Tzr8pHsmI0ubRujx2dRZMXBQHFyKzUlWOR8WoGZkSFk_GF7eWak-ktufVulRDqKPemnbtzGaqfmZo2q6yafhayOFQVv321DSf7OqYraerci1YGqgPu4sA4RpfvIPjxgGDMpG34ZsV8ccdCndraFPURoIwpe83p_IwymPPEUsnIrRlhwCGOGeV1n6ZX3PjsHCzgj11rFb-RcGYU9reOhHKO3TWXlE7zsDcrSHEKnnuLNWOqxYOLQujwzmxiPHQFiP4-0JA8l7Yv2OTSf7RLogsmnuohyzSreNUWkeqKLPZmUy4FI_4V9raP8lxsged7L4tTgPO7j02zNbMk4A05-3YIZbm8VR7WjNtuA4ofTwRErTwRtOnUFoHU-TRWWJ_aTQaihM9dUEoKfgSnz7Yn4QIgh2BGCbo8OS3g43_ZwTrjGBFOD8mdjVrMxEaHbeeZewHRXPMyzo4MB7BpjQgWjx8nqfhaqpUn6rUnujP_UFd8hD5Bu_HUs4XpUaghLNiOKpKMhtegDQoxRrsmw-e-xNU4nEdwsgxYy4XBLyIf-kpzhR-nXuCVmC0]--></g></svg>