<svg xmlns="http://www.w3.org/2000/svg" xmlns:xlink="http://www.w3.org/1999/xlink" contentStyleType="text/css" data-diagram-type="DESCRIPTION" height="202px" preserveAspectRatio="none" style="width:905px;height:202px;background:#FFFFFF;" version="1.1" viewBox="0 0 905 202" width="905px" zoomAndPan="magnify"><defs/><g><!--entity ModuleRepo--><g id="elem_ModuleRepo"><rect fill="#F1F1F1" height="32.2969" rx="2.5" ry="2.5" style="stroke:#181818;stroke-width:0.5;" width="114.4443" x="410.5" y="11"/><rect fill="#F1F1F1" height="32.2969" rx="2.5" ry="2.5" style="stroke:#181818;stroke-width:0.5;" width="114.4443" x="406.5" y="7"/><text fill="#000000" font-family="sans-serif" font-size="14" lengthAdjust="spacing" textLength="98.4443" x="414.5" y="27.9951">Module Repos</text></g><!--entity PublishedRepo--><g id="elem_PublishedRepo"><polygon fill="#F1F1F1" points="342.5,149,352.5,139,606.7939,139,606.7939,175.2969,596.7939,185.2969,342.5,185.2969,342.5,149" style="stroke:#181818;stroke-width:0.5;"/><line style="stroke:#181818;stroke-width:0.5;" x1="596.7939" x2="606.7939" y1="149" y2="139"/><line style="stroke:#181818;stroke-width:0.5;" x1="342.5" x2="596.7939" y1="149" y2="149"/><line style="stroke:#181818;stroke-width:0.5;" x1="596.7939" x2="596.7939" y1="149" y2="185.2969"/><text fill="#000000" font-family="sans-serif" font-size="14" lengthAdjust="spacing" textLength="224.2939" x="357.5" y="171.9951">eclipse-score-website-published</text></g><!--entity WebsiteSrc--><g id="elem_WebsiteSrc"><polygon fill="#F1F1F1" points="16,149,26,139,207.1494,139,207.1494,175.2969,197.1494,185.2969,16,185.2969,16,149" style="stroke:#181818;stroke-width:0.5;"/><line style="stroke:#181818;stroke-width:0.5;" x1="197.1494" x2="207.1494" y1="149" y2="139"/><line style="stroke:#181818;stroke-width:0.5;" x1="16" x2="197.1494" y1="149" y2="149"/><line style="stroke:#181818;stroke-width:0.5;" x1="197.1494" x2="197.1494" y1="149" y2="185.2969"/><text fill="#000000" font-family="sans-serif" font-size="14" lengthAdjust="spacing" textLength="151.1494" x="31" y="171.9951">eclipse-score-website</text></g><!--entity EclipseSite--><g id="elem_EclipseSite"><path d="M753.0942,147.7149 C756.6966,142.4243 762.4294,140.8509 765.8686,147.884 C768.7436,143.7768 772.7943,142.6352 775.7956,147.7481 C779.4631,142.7121 783.4697,142.2558 787.388,147.4643 C790.3777,140.4108 794.5858,140.7022 799.5558,145.4167 C802.7045,139.7513 806.2941,139.9281 810.3818,144.4155 C813.8262,139.419 818.4499,140.0488 821.0468,145.2977 C823.8327,139.5475 829.2969,139.348 832.3562,145.0271 C835.2016,138.5412 841.0008,138.422 844.0965,144.7986 C848.5954,139.7512 852.3811,141.0828 854.7485,146.8902 C859.5224,141.852 863.7362,141.9452 867.4648,148.0798 C870.4274,143.5721 874.2949,143.7846 877.349,147.9759 C880.9506,142.4133 885.1049,142.8364 888.5277,148.1595 C897.4105,151.0127 898.3872,157.2435 892.3565,163.7575 C898.5881,170.0885 898.2941,174.4625 889.5987,177.8782 C885.7816,182.7306 882.3694,184.1704 878.0203,178.4614 C875.4254,184.7765 872.0512,184.5357 867.5722,180.3331 C864.1758,186.0507 859.2609,186.5547 855.2666,180.9848 C852.4351,187.0692 846.7241,187.9672 843.0795,181.7931 C840.4245,186.5536 836.9762,186.8283 833.8691,182.2384 C830.6301,187.9184 825.5818,188.0173 821.8442,182.7881 C817.4061,188.2736 814.2999,186.5812 811.0453,181.5704 C806.4367,187.7591 801.0953,186.2955 797.9841,180.0034 C794.7774,185.3012 791.4422,184.3093 788.03,180.2213 C784.3156,185.9485 779.393,187.1678 775.3309,180.5798 C771.3183,186.0588 767.312,184.4718 764.5531,179.31 C761.2976,184.4605 755.6852,183.3622 753.1868,178.4545 C745.8077,174.3565 744.9992,168.7712 751.9904,163.5219 C745.2564,158.9127 745.5025,151.3238 753.0942,147.7149 " fill="#F1F1F1" style="stroke:#181818;stroke-width:0.5;"/><text fill="#000000" font-family="sans-serif" font-size="14" lengthAdjust="spacing" textLength="121.7617" x="759.5" y="166.9951">eclipse.dev/score</text></g><!--entity gh_pages--><g id="elem_gh_pages"><rect fill="#F1F1F1" height="32.2969" rx="2.5" ry="2.5" style="stroke:#181818;stroke-width:0.5;" width="156.4922" x="592.5" y="77"/><rect fill="#F1F1F1" height="32.2969" rx="2.5" ry="2.5" style="stroke:#181818;stroke-width:0.5;" width="156.4922" x="588.5" y="73"/><text fill="#000000" font-family="sans-serif" font-size="14" lengthAdjust="spacing" textLength="140.4922" x="596.5" y="93.9951">.gh_pages branches</text></g><!--link ModuleRepo to gh_pages--><g id="link_ModuleRepo_gh_pages"><path d="M519.63,43.07 C549,52.32 579.4576,61.9259 608.7976,71.1759 " fill="transparent" id="ModuleRepo-to-gh_pages" style="stroke:#181818;stroke-width:1;"/><polygon fill="#181818" points="614.52,72.98,607.1392,66.459,609.7514,71.4766,604.7338,74.0888,614.52,72.98" style="stroke:#181818;stroke-width:1;"/></g><!--link WebsiteSrc to PublishedRepo--><g id="link_WebsiteSrc_PublishedRepo"><path d="M207.35,162 C248.62,162 291.57,162 336.21,162 " fill="transparent" id="WebsiteSrc-to-PublishedRepo" style="stroke:#181818;stroke-width:1;"/><polygon fill="#181818" points="342.21,162,333.21,158,337.21,162,333.21,166,342.21,162" style="stroke:#181818;stroke-width:1;"/><text fill="#000000" font-family="sans-serif" font-size="13" lengthAdjust="spacing" textLength="99.9629" x="225.25" y="155.0669">Build &amp; Archive</text></g><!--reverse link PublishedRepo to EclipseSite--><g id="link_PublishedRepo_EclipseSite"><path d="M612.79,162 C659.34,162 704.06,162 744.4,162 " fill="transparent" id="PublishedRepo-backto-EclipseSite" style="stroke:#181818;stroke-width:1;stroke-dasharray:7.0,7.0;"/><polygon fill="#181818" points="606.79,162,615.79,166,611.79,162,615.79,158,606.79,162" style="stroke:#181818;stroke-width:1;"/><text fill="#000000" font-family="sans-serif" font-size="13" lengthAdjust="spacing" textLength="101.4927" x="625" y="155.0669">pull every 5min</text></g><!--reverse link gh_pages to EclipseSite--><g id="link_gh_pages_EclipseSite"><path d="M711.5334,111.5401 C731.4034,120.5601 750.56,129.25 771.87,138.93 " fill="transparent" id="gh_pages-backto-EclipseSite" style="stroke:#181818;stroke-width:1;stroke-dasharray:7.0,7.0;"/><polygon fill="#181818" points="706.07,109.06,712.6117,116.4225,710.6229,111.1268,715.9185,109.1379,706.07,109.06" style="stroke:#181818;stroke-width:1;"/></g><!--link ModuleRepo to WebsiteSrc--><!--SRC=[ZOynQyCm48Lt_Of3GpUxKvSG2YrqB9Hco11Ai4-FI72LX1IvvDytiedjJErsz_WUznq74V3P1Pz9lmTJ1FI96BAcBjCKr5tvO40QB2vcD9b3GlE3FhipcbXwSTd2ZAMFs_PNRwJtqxnBh5X2CJFR6WoF8pzoRrEwkxAArzBjoHvZTqAcFdMUBIRrMwhKyWGrptDE6z9zSMAqMXGgSATVgTTAqGEz9BPkW5RtnBPTkzL2B2A40Ub2Jz_EQpNV_0UxjZrOPmpyrzLgSVm5]--></g></svg>