<svg xmlns="http://www.w3.org/2000/svg" xmlns:xlink="http://www.w3.org/1999/xlink" contentStyleType="text/css" data-diagram-type="CLASS" height="214px" preserveAspectRatio="none" style="width:274px;height:214px;background:#FFFFFF;" version="1.1" viewBox="0 0 274 214" width="274px" zoomAndPan="magnify"><defs/><g><!--cluster mod_view_sta__baselibs___baselibsrust--><a href="../features/orchestration/modules/baselibs/index.html#mod_view_sta__baselibs___baselibsrust" target="_top" title="../features/orchestration/modules/baselibs/index.html#mod_view_sta__baselibs___baselibsrust" xlink:actuate="onRequest" xlink:href="../features/orchestration/modules/baselibs/index.html#mod_view_sta__baselibs___baselibsrust" xlink:show="new" xlink:title="../features/orchestration/modules/baselibs/index.html#mod_view_sta__baselibs___baselibsrust" xlink:type="simple"><path d="M8.5,110 L118.1709,110 A3.75,3.75 0 0 1 120.6709,112.5 L127.6709,132.2969 L260.5,132.2969 A2.5,2.5 0 0 1 263,134.7969 L263,204.5 A2.5,2.5 0 0 1 260.5,207 L8.5,207 A2.5,2.5 0 0 1 6,204.5 L6,112.5 A2.5,2.5 0 0 1 8.5,110 " fill="transparent" style="stroke:#000000;stroke-width:1.5;"/><line style="stroke:#000000;stroke-width:1.5;" x1="6" x2="127.6709" y1="132.2969" y2="132.2969"/><text fill="#000000" font-family="sans-serif" font-size="14" font-weight="bold" lengthAdjust="spacing" textLength="108.6709" x="10" y="124.9951">Baselibs_Rust</text></a><!--entity comp_arc_sta__baselibs__containers--><a href="../features/orchestration/modules/baselibs/containers.html#comp_arc_sta__baselibs__containers" target="_top" title="../features/orchestration/modules/baselibs/containers.html#comp_arc_sta__baselibs__containers" xlink:actuate="onRequest" xlink:href="../features/orchestration/modules/baselibs/containers.html#comp_arc_sta__baselibs__containers" xlink:show="new" xlink:title="../features/orchestration/modules/baselibs/containers.html#comp_arc_sta__baselibs__containers" xlink:type="simple"><rect fill="#F1F1F1" height="46.2969" rx="2.5" ry="2.5" style="stroke:#0000FF;stroke-width:2;" width="115.708" x="131" y="145"/><rect fill="#F1F1F1" height="10" style="stroke:#0000FF;stroke-width:2;" width="15" x="226.708" y="150"/><rect fill="#F1F1F1" height="2" style="stroke:#0000FF;stroke-width:2;" width="4" x="224.708" y="152"/><rect fill="#F1F1F1" height="2" style="stroke:#0000FF;stroke-width:2;" width="4" x="224.708" y="156"/><text fill="#000000" font-family="sans-serif" font-size="14" lengthAdjust="spacing" textLength="75.708" x="146" y="177.9951">Containers</text></a><!--entity comp_arc_sta__baselibs__sync--><a href="../features/orchestration/modules/baselibs/sync.html#comp_arc_sta__baselibs__sync" target="_top" title="../features/orchestration/modules/baselibs/sync.html#comp_arc_sta__baselibs__sync" xlink:actuate="onRequest" xlink:href="../features/orchestration/modules/baselibs/sync.html#comp_arc_sta__baselibs__sync" xlink:show="new" xlink:title="../features/orchestration/modules/baselibs/sync.html#comp_arc_sta__baselibs__sync" xlink:type="simple"><rect fill="#F1F1F1" height="46.2969" rx="2.5" ry="2.5" style="stroke:#0000FF;stroke-width:2;" width="73.7422" x="22" y="145"/><rect fill="#F1F1F1" height="10" style="stroke:#0000FF;stroke-width:2;" width="15" x="75.7422" y="150"/><rect fill="#F1F1F1" height="2" style="stroke:#0000FF;stroke-width:2;" width="4" x="73.7422" y="152"/><rect fill="#F1F1F1" height="2" style="stroke:#0000FF;stroke-width:2;" width="4" x="73.7422" y="156"/><text fill="#000000" font-family="sans-serif" font-size="14" lengthAdjust="spacing" textLength="33.7422" x="37" y="177.9951">Sync</text></a><!--class logic_arc_int__baselibs__cont--><a href="../features/orchestration/modules/baselibs/containers.html#logic_arc_int__baselibs__cont" target="_top" title="../features/orchestration/modules/baselibs/containers.html#logic_arc_int__baselibs__cont" xlink:actuate="onRequest" xlink:href="../features/orchestration/modules/baselibs/containers.html#logic_arc_int__baselibs__cont" xlink:show="new" xlink:title="../features/orchestration/modules/baselibs/containers.html#logic_arc_int__baselibs__cont" xlink:type="simple"><g id="elem_logic_arc_int__baselibs__cont"><rect codeLine="13" fill="#F1F1F1" height="40" id="logic_arc_int__baselibs__cont" rx="2.5" ry="2.5" style="stroke:#181818;stroke-width:0.5;" width="107.708" x="135" y="7"/><ellipse cx="150" cy="23" fill="#B4A7E5" rx="11" ry="11" style="stroke:#181818;stroke-width:1;"/><path d="M145.9219,18.7656 L145.9219,16.6094 L153.3125,16.6094 L153.3125,18.7656 L150.8438,18.7656 L150.8438,26.8438 L153.3125,26.8438 L153.3125,29 L145.9219,29 L145.9219,26.8438 L148.3906,26.8438 L148.3906,18.7656 L145.9219,18.7656 Z " fill="#000000"/><text fill="#000000" font-family="sans-serif" font-size="14" font-style="italic" lengthAdjust="spacing" textLength="75.708" x="164" y="27.8467">Containers</text><line style="stroke:#181818;stroke-width:0.5;" x1="136" x2="241.708" y1="39" y2="39"/></g></a><!--class logic_arc_int__baselibs__sync--><a href="../features/orchestration/modules/baselibs/sync.html#logic_arc_int__baselibs__sync" target="_top" title="../features/orchestration/modules/baselibs/sync.html#logic_arc_int__baselibs__sync" xlink:actuate="onRequest" xlink:href="../features/orchestration/modules/baselibs/sync.html#logic_arc_int__baselibs__sync" xlink:show="new" xlink:title="../features/orchestration/modules/baselibs/sync.html#logic_arc_int__baselibs__sync" xlink:type="simple"><g id="elem_logic_arc_int__baselibs__sync"><rect codeLine="18" fill="#F1F1F1" height="40" id="logic_arc_int__baselibs__sync" rx="2.5" ry="2.5" style="stroke:#181818;stroke-width:0.5;" width="65.7422" x="26" y="7"/><ellipse cx="41" cy="23" fill="#B4A7E5" rx="11" ry="11" style="stroke:#181818;stroke-width:1;"/><path d="M36.9219,18.7656 L36.9219,16.6094 L44.3125,16.6094 L44.3125,18.7656 L41.8438,18.7656 L41.8438,26.8438 L44.3125,26.8438 L44.3125,29 L36.9219,29 L36.9219,26.8438 L39.3906,26.8438 L39.3906,18.7656 L36.9219,18.7656 Z " fill="#000000"/><text fill="#000000" font-family="sans-serif" font-size="14" font-style="italic" lengthAdjust="spacing" textLength="33.7422" x="55" y="27.8467">Sync</text><line style="stroke:#181818;stroke-width:0.5;" x1="27" x2="90.7422" y1="39" y2="39"/></g></a><!--reverse link logic_arc_int__baselibs__cont to comp_arc_sta__baselibs__containers--><g id="link_logic_arc_int__baselibs__cont_comp_arc_sta__baselibs__containers"><path codeLine="33" d="M189,53.04 C189,78.61 189,117.97 189,144.99 " fill="transparent" id="logic_arc_int__baselibs__cont-backto-comp_arc_sta__baselibs__containers" style="stroke:#181818;stroke-width:1;"/><polygon fill="#181818" points="189,47.04,185,56.04,189,52.04,193,56.04,189,47.04" style="stroke:#181818;stroke-width:1;"/><text fill="#000000" font-family="sans-serif" font-size="13" lengthAdjust="spacing" textLength="76.9082" x="190" y="90.0669">implements</text></g><!--reverse link logic_arc_int__baselibs__sync to comp_arc_sta__baselibs__sync--><g id="link_logic_arc_int__baselibs__sync_comp_arc_sta__baselibs__sync"><path codeLine="34" d="M59,53.04 C59,78.61 59,117.97 59,144.99 " fill="transparent" id="logic_arc_int__baselibs__sync-backto-comp_arc_sta__baselibs__sync" style="stroke:#181818;stroke-width:1;"/><polygon fill="#181818" points="59,47.04,55,56.04,59,52.04,63,56.04,59,47.04" style="stroke:#181818;stroke-width:1;"/><text fill="#000000" font-family="sans-serif" font-size="13" lengthAdjust="spacing" textLength="76.9082" x="60" y="90.0669">implements</text></g><!--SRC=[fPCnRy8m48Lt_ueJ7PX8gevLbA6idTfk25cESn0BnuxiIo6g-Ezraa80jO6sMyv-VlxEzoAqjbjUgfqoQqQs0hAGMI9RGguSIbBMi4Bb29xGeQMcmhx6ig86195JMKteMUAfqPYoI7YbC_XWpyhWt6hh8DCrTkLReUJ6eFVm4DspFKlYhqDCcU2_4X9XChU6H10xFm7XGTkrabmuoOE6yqnur2hpdCkW0rWieYXUeQ3QeO-jamLwSg85ZqkRrpgi7ix4ycWT5LJgkr7lvJ8qmTWUuYaCJ32DuGptjJ5o7DG7nIz1soDN45l9AMBBqSDLGcx4Eg0z7SGljQUECLp4tnLkkITnQdRyT47vIrPbSjpri3VP1-X0BMrPMODXX9S3RtUwXYzCXk51adGXIzF_ZV_wJJthjn4uQU0OWPyCkmJy4Ng8mfZx2UWGXAuy2q6_pcvuubazIyV_lKTGPQMn34_WWOssFcxMIixDFW40]--></g></svg>