<svg xmlns="http://www.w3.org/2000/svg" xmlns:xlink="http://www.w3.org/1999/xlink" contentStyleType="text/css" data-diagram-type="CLASS" height="322px" preserveAspectRatio="none" style="width:3653px;height:322px;background:#FFFFFF;" version="1.1" viewBox="0 0 3653 322" width="3653px" zoomAndPan="magnify"><defs/><g><!--entity Feature_User--><g id="elem_Feature_User"><ellipse cx="1791.6685" cy="14" fill="#F1F1F1" rx="8" ry="8" style="stroke:#181818;stroke-width:0.5;"/><path d="M1791.6685,22 L1791.6685,49 M1778.6685,30 L1804.6685,30 M1791.6685,49 L1778.6685,64 M1791.6685,49 L1804.6685,64 " fill="transparent" style="stroke:#181818;stroke-width:0.5;"/><text fill="#000000" font-family="sans-serif" font-size="14" lengthAdjust="spacing" textLength="90.3369" x="1746.5" y="78.4951">Feature User</text></g><!--class comp_arc_sta__baselibs__utils--><g id="elem_comp_arc_sta__baselibs__utils"><rect fill="#F1F1F1" height="40" id="comp_arc_sta__baselibs__utils" rx="2.5" ry="2.5" style="stroke:#181818;stroke-width:0.5;" width="242.9502" x="1812" y="275.5"/><ellipse cx="1827" cy="291.5" fill="#ADD1B2" rx="11" ry="11" style="stroke:#181818;stroke-width:1;"/><path d="M1829.9688,297.1406 Q1829.3906,297.4375 1828.75,297.5781 Q1828.1094,297.7344 1827.4063,297.7344 Q1824.9063,297.7344 1823.5781,296.0938 Q1822.2656,294.4375 1822.2656,291.3125 Q1822.2656,288.1875 1823.5781,286.5313 Q1824.9063,284.875 1827.4063,284.875 Q1828.1094,284.875 1828.75,285.0313 Q1829.4063,285.1875 1829.9688,285.4844 L1829.9688,288.2031 Q1829.3438,287.625 1828.75,287.3594 Q1828.1563,287.0781 1827.5313,287.0781 Q1826.1875,287.0781 1825.5,288.1563 Q1824.8125,289.2188 1824.8125,291.3125 Q1824.8125,293.4063 1825.5,294.4844 Q1826.1875,295.5469 1827.5313,295.5469 Q1828.1563,295.5469 1828.75,295.2813 Q1829.3438,295 1829.9688,294.4219 L1829.9688,297.1406 Z " fill="#000000"/><text fill="#000000" font-family="sans-serif" font-size="14" lengthAdjust="spacing" textLength="210.9502" x="1841" y="296.3467">comp_arc_sta__baselibs__utils</text><line style="stroke:#181818;stroke-width:0.5;" x1="1813" x2="2053.9502" y1="307.5" y2="307.5"/></g><!--class logic_arc_int__baselibs__utils_base64--><g id="elem_logic_arc_int__baselibs__utils_base64"><rect fill="#F1F1F1" height="40" id="logic_arc_int__baselibs__utils_base64" rx="2.5" ry="2.5" style="stroke:#181818;stroke-width:0.5;" width="292.1689" x="1645.5" y="158.5"/><ellipse cx="1660.5" cy="174.5" fill="#ADD1B2" rx="11" ry="11" style="stroke:#181818;stroke-width:1;"/><path d="M1663.4688,180.1406 Q1662.8906,180.4375 1662.25,180.5781 Q1661.6094,180.7344 1660.9063,180.7344 Q1658.4063,180.7344 1657.0781,179.0938 Q1655.7656,177.4375 1655.7656,174.3125 Q1655.7656,171.1875 1657.0781,169.5313 Q1658.4063,167.875 1660.9063,167.875 Q1661.6094,167.875 1662.25,168.0313 Q1662.9063,168.1875 1663.4688,168.4844 L1663.4688,171.2031 Q1662.8438,170.625 1662.25,170.3594 Q1661.6563,170.0781 1661.0313,170.0781 Q1659.6875,170.0781 1659,171.1563 Q1658.3125,172.2188 1658.3125,174.3125 Q1658.3125,176.4063 1659,177.4844 Q1659.6875,178.5469 1661.0313,178.5469 Q1661.6563,178.5469 1662.25,178.2813 Q1662.8438,178 1663.4688,177.4219 L1663.4688,180.1406 Z " fill="#000000"/><text fill="#000000" font-family="sans-serif" font-size="14" lengthAdjust="spacing" textLength="260.1689" x="1674.5" y="179.3467">logic_arc_int__baselibs__utils_base64</text><line style="stroke:#181818;stroke-width:0.5;" x1="1646.5" x2="1936.6689" y1="190.5" y2="190.5"/></g><!--class logic_arc_int__baselibs__message_passing--><g id="elem_logic_arc_int__baselibs__message_passing"><rect fill="#F1F1F1" height="40" id="logic_arc_int__baselibs__message_passing" rx="2.5" ry="2.5" style="stroke:#181818;stroke-width:0.5;" width="328.167" x="610.5" y="158.5"/><ellipse cx="625.5" cy="174.5" fill="#ADD1B2" rx="11" ry="11" style="stroke:#181818;stroke-width:1;"/><path d="M628.4688,180.1406 Q627.8906,180.4375 627.25,180.5781 Q626.6094,180.7344 625.9063,180.7344 Q623.4063,180.7344 622.0781,179.0938 Q620.7656,177.4375 620.7656,174.3125 Q620.7656,171.1875 622.0781,169.5313 Q623.4063,167.875 625.9063,167.875 Q626.6094,167.875 627.25,168.0313 Q627.9063,168.1875 628.4688,168.4844 L628.4688,171.2031 Q627.8438,170.625 627.25,170.3594 Q626.6563,170.0781 626.0313,170.0781 Q624.6875,170.0781 624,171.1563 Q623.3125,172.2188 623.3125,174.3125 Q623.3125,176.4063 624,177.4844 Q624.6875,178.5469 626.0313,178.5469 Q626.6563,178.5469 627.25,178.2813 Q627.8438,178 628.4688,177.4219 L628.4688,180.1406 Z " fill="#000000"/><text fill="#000000" font-family="sans-serif" font-size="14" lengthAdjust="spacing" textLength="296.167" x="639.5" y="179.3467">logic_arc_int__baselibs__message_passing</text><line style="stroke:#181818;stroke-width:0.5;" x1="611.5" x2="937.667" y1="190.5" y2="190.5"/></g><!--class logic_arc_int__baselibs__memory_shared--><g id="elem_logic_arc_int__baselibs__memory_shared"><rect fill="#F1F1F1" height="40" id="logic_arc_int__baselibs__memory_shared" rx="2.5" ry="2.5" style="stroke:#181818;stroke-width:0.5;" width="318.043" x="3050.5" y="158.5"/><ellipse cx="3065.5" cy="174.5" fill="#ADD1B2" rx="11" ry="11" style="stroke:#181818;stroke-width:1;"/><path d="M3068.4688,180.1406 Q3067.8906,180.4375 3067.25,180.5781 Q3066.6094,180.7344 3065.9063,180.7344 Q3063.4063,180.7344 3062.0781,179.0938 Q3060.7656,177.4375 3060.7656,174.3125 Q3060.7656,171.1875 3062.0781,169.5313 Q3063.4063,167.875 3065.9063,167.875 Q3066.6094,167.875 3067.25,168.0313 Q3067.9063,168.1875 3068.4688,168.4844 L3068.4688,171.2031 Q3067.8438,170.625 3067.25,170.3594 Q3066.6563,170.0781 3066.0313,170.0781 Q3064.6875,170.0781 3064,171.1563 Q3063.3125,172.2188 3063.3125,174.3125 Q3063.3125,176.4063 3064,177.4844 Q3064.6875,178.5469 3066.0313,178.5469 Q3066.6563,178.5469 3067.25,178.2813 Q3067.8438,178 3068.4688,177.4219 L3068.4688,180.1406 Z " fill="#000000"/><text fill="#000000" font-family="sans-serif" font-size="14" lengthAdjust="spacing" textLength="286.043" x="3079.5" y="179.3467">logic_arc_int__baselibs__memory_shared</text><line style="stroke:#181818;stroke-width:0.5;" x1="3051.5" x2="3367.543" y1="190.5" y2="190.5"/></g><!--class comp_arc_sta__baselibs__json--><g id="elem_comp_arc_sta__baselibs__json"><rect fill="#F1F1F1" height="40" id="comp_arc_sta__baselibs__json" rx="2.5" ry="2.5" style="stroke:#181818;stroke-width:0.5;" width="242.1367" x="3404.5" y="275.5"/><ellipse cx="3419.5" cy="291.5" fill="#ADD1B2" rx="11" ry="11" style="stroke:#181818;stroke-width:1;"/><path d="M3422.4688,297.1406 Q3421.8906,297.4375 3421.25,297.5781 Q3420.6094,297.7344 3419.9063,297.7344 Q3417.4063,297.7344 3416.0781,296.0938 Q3414.7656,294.4375 3414.7656,291.3125 Q3414.7656,288.1875 3416.0781,286.5313 Q3417.4063,284.875 3419.9063,284.875 Q3420.6094,284.875 3421.25,285.0313 Q3421.9063,285.1875 3422.4688,285.4844 L3422.4688,288.2031 Q3421.8438,287.625 3421.25,287.3594 Q3420.6563,287.0781 3420.0313,287.0781 Q3418.6875,287.0781 3418,288.1563 Q3417.3125,289.2188 3417.3125,291.3125 Q3417.3125,293.4063 3418,294.4844 Q3418.6875,295.5469 3420.0313,295.5469 Q3420.6563,295.5469 3421.25,295.2813 Q3421.8438,295 3422.4688,294.4219 L3422.4688,297.1406 Z " fill="#000000"/><text fill="#000000" font-family="sans-serif" font-size="14" lengthAdjust="spacing" textLength="210.1367" x="3433.5" y="296.3467">comp_arc_sta__baselibs__json</text><line style="stroke:#181818;stroke-width:0.5;" x1="3405.5" x2="3645.6367" y1="307.5" y2="307.5"/></g><!--class logic_arc_int__baselibs__json--><g id="elem_logic_arc_int__baselibs__json"><rect fill="#F1F1F1" height="40" id="logic_arc_int__baselibs__json" rx="2.5" ry="2.5" style="stroke:#181818;stroke-width:0.5;" width="233.168" x="3407" y="158.5"/><ellipse cx="3422" cy="174.5" fill="#ADD1B2" rx="11" ry="11" style="stroke:#181818;stroke-width:1;"/><path d="M3424.9688,180.1406 Q3424.3906,180.4375 3423.75,180.5781 Q3423.1094,180.7344 3422.4063,180.7344 Q3419.9063,180.7344 3418.5781,179.0938 Q3417.2656,177.4375 3417.2656,174.3125 Q3417.2656,171.1875 3418.5781,169.5313 Q3419.9063,167.875 3422.4063,167.875 Q3423.1094,167.875 3423.75,168.0313 Q3424.4063,168.1875 3424.9688,168.4844 L3424.9688,171.2031 Q3424.3438,170.625 3423.75,170.3594 Q3423.1563,170.0781 3422.5313,170.0781 Q3421.1875,170.0781 3420.5,171.1563 Q3419.8125,172.2188 3419.8125,174.3125 Q3419.8125,176.4063 3420.5,177.4844 Q3421.1875,178.5469 3422.5313,178.5469 Q3423.1563,178.5469 3423.75,178.2813 Q3424.3438,178 3424.9688,177.4219 L3424.9688,180.1406 Z " fill="#000000"/><text fill="#000000" font-family="sans-serif" font-size="14" lengthAdjust="spacing" textLength="201.168" x="3436" y="179.3467">logic_arc_int__baselibs__json</text><line style="stroke:#181818;stroke-width:0.5;" x1="3408" x2="3639.168" y1="190.5" y2="190.5"/></g><!--class comp_arc_sta__baselibs__memory_shared--><g id="elem_comp_arc_sta__baselibs__memory_shared"><rect fill="#F1F1F1" height="40" id="comp_arc_sta__baselibs__memory_shared" rx="2.5" ry="2.5" style="stroke:#181818;stroke-width:0.5;" width="327.0117" x="3043" y="275.5"/><ellipse cx="3058" cy="291.5" fill="#ADD1B2" rx="11" ry="11" style="stroke:#181818;stroke-width:1;"/><path d="M3060.9688,297.1406 Q3060.3906,297.4375 3059.75,297.5781 Q3059.1094,297.7344 3058.4063,297.7344 Q3055.9063,297.7344 3054.5781,296.0938 Q3053.2656,294.4375 3053.2656,291.3125 Q3053.2656,288.1875 3054.5781,286.5313 Q3055.9063,284.875 3058.4063,284.875 Q3059.1094,284.875 3059.75,285.0313 Q3060.4063,285.1875 3060.9688,285.4844 L3060.9688,288.2031 Q3060.3438,287.625 3059.75,287.3594 Q3059.1563,287.0781 3058.5313,287.0781 Q3057.1875,287.0781 3056.5,288.1563 Q3055.8125,289.2188 3055.8125,291.3125 Q3055.8125,293.4063 3056.5,294.4844 Q3057.1875,295.5469 3058.5313,295.5469 Q3059.1563,295.5469 3059.75,295.2813 Q3060.3438,295 3060.9688,294.4219 L3060.9688,297.1406 Z " fill="#000000"/><text fill="#000000" font-family="sans-serif" font-size="14" lengthAdjust="spacing" textLength="295.0117" x="3072" y="296.3467">comp_arc_sta__baselibs__memory_shared</text><line style="stroke:#181818;stroke-width:0.5;" x1="3044" x2="3369.0117" y1="307.5" y2="307.5"/></g><!--class logic_arc_int__baselibs__result--><g id="elem_logic_arc_int__baselibs__result"><rect fill="#F1F1F1" height="40" id="logic_arc_int__baselibs__result" rx="2.5" ry="2.5" style="stroke:#181818;stroke-width:0.5;" width="244.4609" x="16.5" y="158.5"/><ellipse cx="31.5" cy="174.5" fill="#ADD1B2" rx="11" ry="11" style="stroke:#181818;stroke-width:1;"/><path d="M34.4688,180.1406 Q33.8906,180.4375 33.25,180.5781 Q32.6094,180.7344 31.9063,180.7344 Q29.4063,180.7344 28.0781,179.0938 Q26.7656,177.4375 26.7656,174.3125 Q26.7656,171.1875 28.0781,169.5313 Q29.4063,167.875 31.9063,167.875 Q32.6094,167.875 33.25,168.0313 Q33.9063,168.1875 34.4688,168.4844 L34.4688,171.2031 Q33.8438,170.625 33.25,170.3594 Q32.6563,170.0781 32.0313,170.0781 Q30.6875,170.0781 30,171.1563 Q29.3125,172.2188 29.3125,174.3125 Q29.3125,176.4063 30,177.4844 Q30.6875,178.5469 32.0313,178.5469 Q32.6563,178.5469 33.25,178.2813 Q33.8438,178 34.4688,177.4219 L34.4688,180.1406 Z " fill="#000000"/><text fill="#000000" font-family="sans-serif" font-size="14" lengthAdjust="spacing" textLength="212.4609" x="45.5" y="179.3467">logic_arc_int__baselibs__result</text><line style="stroke:#181818;stroke-width:0.5;" x1="17.5" x2="259.9609" y1="190.5" y2="190.5"/></g><!--class logic_arc_int__baselibs__bit_mask_operator--><g id="elem_logic_arc_int__baselibs__bit_mask_operator"><rect fill="#F1F1F1" height="40" id="logic_arc_int__baselibs__bit_mask_operator" rx="2.5" ry="2.5" style="stroke:#181818;stroke-width:0.5;" width="334.6406" x="2323" y="158.5"/><ellipse cx="2338" cy="174.5" fill="#ADD1B2" rx="11" ry="11" style="stroke:#181818;stroke-width:1;"/><path d="M2340.9688,180.1406 Q2340.3906,180.4375 2339.75,180.5781 Q2339.1094,180.7344 2338.4063,180.7344 Q2335.9063,180.7344 2334.5781,179.0938 Q2333.2656,177.4375 2333.2656,174.3125 Q2333.2656,171.1875 2334.5781,169.5313 Q2335.9063,167.875 2338.4063,167.875 Q2339.1094,167.875 2339.75,168.0313 Q2340.4063,168.1875 2340.9688,168.4844 L2340.9688,171.2031 Q2340.3438,170.625 2339.75,170.3594 Q2339.1563,170.0781 2338.5313,170.0781 Q2337.1875,170.0781 2336.5,171.1563 Q2335.8125,172.2188 2335.8125,174.3125 Q2335.8125,176.4063 2336.5,177.4844 Q2337.1875,178.5469 2338.5313,178.5469 Q2339.1563,178.5469 2339.75,178.2813 Q2340.3438,178 2340.9688,177.4219 L2340.9688,180.1406 Z " fill="#000000"/><text fill="#000000" font-family="sans-serif" font-size="14" lengthAdjust="spacing" textLength="302.6406" x="2352" y="179.3467">logic_arc_int__baselibs__bit_mask_operator</text><line style="stroke:#181818;stroke-width:0.5;" x1="2324" x2="2656.6406" y1="190.5" y2="190.5"/></g><!--class logic_arc_int__baselibs__bit_manipulation--><g id="elem_logic_arc_int__baselibs__bit_manipulation"><rect fill="#F1F1F1" height="40" id="logic_arc_int__baselibs__bit_manipulation" rx="2.5" ry="2.5" style="stroke:#181818;stroke-width:0.5;" width="321.8369" x="2693.5" y="158.5"/><ellipse cx="2708.5" cy="174.5" fill="#ADD1B2" rx="11" ry="11" style="stroke:#181818;stroke-width:1;"/><path d="M2711.4688,180.1406 Q2710.8906,180.4375 2710.25,180.5781 Q2709.6094,180.7344 2708.9063,180.7344 Q2706.4063,180.7344 2705.0781,179.0938 Q2703.7656,177.4375 2703.7656,174.3125 Q2703.7656,171.1875 2705.0781,169.5313 Q2706.4063,167.875 2708.9063,167.875 Q2709.6094,167.875 2710.25,168.0313 Q2710.9063,168.1875 2711.4688,168.4844 L2711.4688,171.2031 Q2710.8438,170.625 2710.25,170.3594 Q2709.6563,170.0781 2709.0313,170.0781 Q2707.6875,170.0781 2707,171.1563 Q2706.3125,172.2188 2706.3125,174.3125 Q2706.3125,176.4063 2707,177.4844 Q2707.6875,178.5469 2709.0313,178.5469 Q2709.6563,178.5469 2710.25,178.2813 Q2710.8438,178 2711.4688,177.4219 L2711.4688,180.1406 Z " fill="#000000"/><text fill="#000000" font-family="sans-serif" font-size="14" lengthAdjust="spacing" textLength="289.8369" x="2722.5" y="179.3467">logic_arc_int__baselibs__bit_manipulation</text><line style="stroke:#181818;stroke-width:0.5;" x1="2694.5" x2="3014.3369" y1="190.5" y2="190.5"/></g><!--class comp_arc_sta__baselibs__bit_manipulation--><g id="elem_comp_arc_sta__baselibs__bit_manipulation"><rect fill="#F1F1F1" height="40" id="comp_arc_sta__baselibs__bit_manipulation" rx="2.5" ry="2.5" style="stroke:#181818;stroke-width:0.5;" width="330.8057" x="2505" y="275.5"/><ellipse cx="2520" cy="291.5" fill="#ADD1B2" rx="11" ry="11" style="stroke:#181818;stroke-width:1;"/><path d="M2522.9688,297.1406 Q2522.3906,297.4375 2521.75,297.5781 Q2521.1094,297.7344 2520.4063,297.7344 Q2517.9063,297.7344 2516.5781,296.0938 Q2515.2656,294.4375 2515.2656,291.3125 Q2515.2656,288.1875 2516.5781,286.5313 Q2517.9063,284.875 2520.4063,284.875 Q2521.1094,284.875 2521.75,285.0313 Q2522.4063,285.1875 2522.9688,285.4844 L2522.9688,288.2031 Q2522.3438,287.625 2521.75,287.3594 Q2521.1563,287.0781 2520.5313,287.0781 Q2519.1875,287.0781 2518.5,288.1563 Q2517.8125,289.2188 2517.8125,291.3125 Q2517.8125,293.4063 2518.5,294.4844 Q2519.1875,295.5469 2520.5313,295.5469 Q2521.1563,295.5469 2521.75,295.2813 Q2522.3438,295 2522.9688,294.4219 L2522.9688,297.1406 Z " fill="#000000"/><text fill="#000000" font-family="sans-serif" font-size="14" lengthAdjust="spacing" textLength="298.8057" x="2534" y="296.3467">comp_arc_sta__baselibs__bit_manipulation</text><line style="stroke:#181818;stroke-width:0.5;" x1="2506" x2="2834.8057" y1="307.5" y2="307.5"/></g><!--class comp_arc_sta__baselibs__containers--><g id="elem_comp_arc_sta__baselibs__containers"><rect fill="#F1F1F1" height="40" id="comp_arc_sta__baselibs__containers" rx="2.5" ry="2.5" style="stroke:#181818;stroke-width:0.5;" width="287.1445" x="1099" y="275.5"/><ellipse cx="1114" cy="291.5" fill="#ADD1B2" rx="11" ry="11" style="stroke:#181818;stroke-width:1;"/><path d="M1116.9688,297.1406 Q1116.3906,297.4375 1115.75,297.5781 Q1115.1094,297.7344 1114.4063,297.7344 Q1111.9063,297.7344 1110.5781,296.0938 Q1109.2656,294.4375 1109.2656,291.3125 Q1109.2656,288.1875 1110.5781,286.5313 Q1111.9063,284.875 1114.4063,284.875 Q1115.1094,284.875 1115.75,285.0313 Q1116.4063,285.1875 1116.9688,285.4844 L1116.9688,288.2031 Q1116.3438,287.625 1115.75,287.3594 Q1115.1563,287.0781 1114.5313,287.0781 Q1113.1875,287.0781 1112.5,288.1563 Q1111.8125,289.2188 1111.8125,291.3125 Q1111.8125,293.4063 1112.5,294.4844 Q1113.1875,295.5469 1114.5313,295.5469 Q1115.1563,295.5469 1115.75,295.2813 Q1116.3438,295 1116.9688,294.4219 L1116.9688,297.1406 Z " fill="#000000"/><text fill="#000000" font-family="sans-serif" font-size="14" lengthAdjust="spacing" textLength="255.1445" x="1128" y="296.3467">comp_arc_sta__baselibs__containers</text><line style="stroke:#181818;stroke-width:0.5;" x1="1100" x2="1385.1445" y1="307.5" y2="307.5"/></g><!--class logic_arc_int__baselibs__dynamic_array--><g id="elem_logic_arc_int__baselibs__dynamic_array"><rect fill="#F1F1F1" height="40" id="logic_arc_int__baselibs__dynamic_array" rx="2.5" ry="2.5" style="stroke:#181818;stroke-width:0.5;" width="308.3496" x="973.5" y="158.5"/><ellipse cx="988.5" cy="174.5" fill="#ADD1B2" rx="11" ry="11" style="stroke:#181818;stroke-width:1;"/><path d="M991.4688,180.1406 Q990.8906,180.4375 990.25,180.5781 Q989.6094,180.7344 988.9063,180.7344 Q986.4063,180.7344 985.0781,179.0938 Q983.7656,177.4375 983.7656,174.3125 Q983.7656,171.1875 985.0781,169.5313 Q986.4063,167.875 988.9063,167.875 Q989.6094,167.875 990.25,168.0313 Q990.9063,168.1875 991.4688,168.4844 L991.4688,171.2031 Q990.8438,170.625 990.25,170.3594 Q989.6563,170.0781 989.0313,170.0781 Q987.6875,170.0781 987,171.1563 Q986.3125,172.2188 986.3125,174.3125 Q986.3125,176.4063 987,177.4844 Q987.6875,178.5469 989.0313,178.5469 Q989.6563,178.5469 990.25,178.2813 Q990.8438,178 991.4688,177.4219 L991.4688,180.1406 Z " fill="#000000"/><text fill="#000000" font-family="sans-serif" font-size="14" lengthAdjust="spacing" textLength="276.3496" x="1002.5" y="179.3467">logic_arc_int__baselibs__dynamic_array</text><line style="stroke:#181818;stroke-width:0.5;" x1="974.5" x2="1280.8496" y1="190.5" y2="190.5"/></g><!--class logic_arc_int__baselibs__utils_scoped_op--><g id="elem_logic_arc_int__baselibs__utils_scoped_op"><rect fill="#F1F1F1" height="40" id="logic_arc_int__baselibs__utils_scoped_op" rx="2.5" ry="2.5" style="stroke:#181818;stroke-width:0.5;" width="315.377" x="1973" y="158.5"/><ellipse cx="1988" cy="174.5" fill="#ADD1B2" rx="11" ry="11" style="stroke:#181818;stroke-width:1;"/><path d="M1990.9688,180.1406 Q1990.3906,180.4375 1989.75,180.5781 Q1989.1094,180.7344 1988.4063,180.7344 Q1985.9063,180.7344 1984.5781,179.0938 Q1983.2656,177.4375 1983.2656,174.3125 Q1983.2656,171.1875 1984.5781,169.5313 Q1985.9063,167.875 1988.4063,167.875 Q1989.1094,167.875 1989.75,168.0313 Q1990.4063,168.1875 1990.9688,168.4844 L1990.9688,171.2031 Q1990.3438,170.625 1989.75,170.3594 Q1989.1563,170.0781 1988.5313,170.0781 Q1987.1875,170.0781 1986.5,171.1563 Q1985.8125,172.2188 1985.8125,174.3125 Q1985.8125,176.4063 1986.5,177.4844 Q1987.1875,178.5469 1988.5313,178.5469 Q1989.1563,178.5469 1989.75,178.2813 Q1990.3438,178 1990.9688,177.4219 L1990.9688,180.1406 Z " fill="#000000"/><text fill="#000000" font-family="sans-serif" font-size="14" lengthAdjust="spacing" textLength="283.377" x="2002" y="179.3467">logic_arc_int__baselibs__utils_scoped_op</text><line style="stroke:#181818;stroke-width:0.5;" x1="1974" x2="2287.377" y1="190.5" y2="190.5"/></g><!--class logic_arc_int__baselibs__intrusive_list--><g id="elem_logic_arc_int__baselibs__intrusive_list"><rect fill="#F1F1F1" height="40" id="logic_arc_int__baselibs__intrusive_list" rx="2.5" ry="2.5" style="stroke:#181818;stroke-width:0.5;" width="293.0713" x="1317" y="158.5"/><ellipse cx="1332" cy="174.5" fill="#ADD1B2" rx="11" ry="11" style="stroke:#181818;stroke-width:1;"/><path d="M1334.9688,180.1406 Q1334.3906,180.4375 1333.75,180.5781 Q1333.1094,180.7344 1332.4063,180.7344 Q1329.9063,180.7344 1328.5781,179.0938 Q1327.2656,177.4375 1327.2656,174.3125 Q1327.2656,171.1875 1328.5781,169.5313 Q1329.9063,167.875 1332.4063,167.875 Q1333.1094,167.875 1333.75,168.0313 Q1334.4063,168.1875 1334.9688,168.4844 L1334.9688,171.2031 Q1334.3438,170.625 1333.75,170.3594 Q1333.1563,170.0781 1332.5313,170.0781 Q1331.1875,170.0781 1330.5,171.1563 Q1329.8125,172.2188 1329.8125,174.3125 Q1329.8125,176.4063 1330.5,177.4844 Q1331.1875,178.5469 1332.5313,178.5469 Q1333.1563,178.5469 1333.75,178.2813 Q1334.3438,178 1334.9688,177.4219 L1334.9688,180.1406 Z " fill="#000000"/><text fill="#000000" font-family="sans-serif" font-size="14" lengthAdjust="spacing" textLength="261.0713" x="1346" y="179.3467">logic_arc_int__baselibs__intrusive_list</text><line style="stroke:#181818;stroke-width:0.5;" x1="1318" x2="1609.0713" y1="190.5" y2="190.5"/></g><!--class comp_arc_sta__baselibs__message_passing--><g id="elem_comp_arc_sta__baselibs__message_passing"><rect fill="#F1F1F1" height="40" id="comp_arc_sta__baselibs__message_passing" rx="2.5" ry="2.5" style="stroke:#181818;stroke-width:0.5;" width="337.1357" x="615" y="275.5"/><ellipse cx="630" cy="291.5" fill="#ADD1B2" rx="11" ry="11" style="stroke:#181818;stroke-width:1;"/><path d="M632.9688,297.1406 Q632.3906,297.4375 631.75,297.5781 Q631.1094,297.7344 630.4063,297.7344 Q627.9063,297.7344 626.5781,296.0938 Q625.2656,294.4375 625.2656,291.3125 Q625.2656,288.1875 626.5781,286.5313 Q627.9063,284.875 630.4063,284.875 Q631.1094,284.875 631.75,285.0313 Q632.4063,285.1875 632.9688,285.4844 L632.9688,288.2031 Q632.3438,287.625 631.75,287.3594 Q631.1563,287.0781 630.5313,287.0781 Q629.1875,287.0781 628.5,288.1563 Q627.8125,289.2188 627.8125,291.3125 Q627.8125,293.4063 628.5,294.4844 Q629.1875,295.5469 630.5313,295.5469 Q631.1563,295.5469 631.75,295.2813 Q632.3438,295 632.9688,294.4219 L632.9688,297.1406 Z " fill="#000000"/><text fill="#000000" font-family="sans-serif" font-size="14" lengthAdjust="spacing" textLength="305.1357" x="644" y="296.3467">comp_arc_sta__baselibs__message_passing</text><line style="stroke:#181818;stroke-width:0.5;" x1="616" x2="951.1357" y1="307.5" y2="307.5"/></g><!--class comp_arc_sta__baselibs__filesystem--><g id="elem_comp_arc_sta__baselibs__filesystem"><rect fill="#F1F1F1" height="40" id="comp_arc_sta__baselibs__filesystem" rx="2.5" ry="2.5" style="stroke:#181818;stroke-width:0.5;" width="285.4492" x="295" y="275.5"/><ellipse cx="310" cy="291.5" fill="#ADD1B2" rx="11" ry="11" style="stroke:#181818;stroke-width:1;"/><path d="M312.9688,297.1406 Q312.3906,297.4375 311.75,297.5781 Q311.1094,297.7344 310.4063,297.7344 Q307.9063,297.7344 306.5781,296.0938 Q305.2656,294.4375 305.2656,291.3125 Q305.2656,288.1875 306.5781,286.5313 Q307.9063,284.875 310.4063,284.875 Q311.1094,284.875 311.75,285.0313 Q312.4063,285.1875 312.9688,285.4844 L312.9688,288.2031 Q312.3438,287.625 311.75,287.3594 Q311.1563,287.0781 310.5313,287.0781 Q309.1875,287.0781 308.5,288.1563 Q307.8125,289.2188 307.8125,291.3125 Q307.8125,293.4063 308.5,294.4844 Q309.1875,295.5469 310.5313,295.5469 Q311.1563,295.5469 311.75,295.2813 Q312.3438,295 312.9688,294.4219 L312.9688,297.1406 Z " fill="#000000"/><text fill="#000000" font-family="sans-serif" font-size="14" lengthAdjust="spacing" textLength="253.4492" x="324" y="296.3467">comp_arc_sta__baselibs__filesystem</text><line style="stroke:#181818;stroke-width:0.5;" x1="296" x2="579.4492" y1="307.5" y2="307.5"/></g><!--class logic_arc_int__baselibs__filesystem--><g id="elem_logic_arc_int__baselibs__filesystem"><rect fill="#F1F1F1" height="40" id="logic_arc_int__baselibs__filesystem" rx="2.5" ry="2.5" style="stroke:#181818;stroke-width:0.5;" width="276.4805" x="299.5" y="158.5"/><ellipse cx="314.5" cy="174.5" fill="#ADD1B2" rx="11" ry="11" style="stroke:#181818;stroke-width:1;"/><path d="M317.4688,180.1406 Q316.8906,180.4375 316.25,180.5781 Q315.6094,180.7344 314.9063,180.7344 Q312.4063,180.7344 311.0781,179.0938 Q309.7656,177.4375 309.7656,174.3125 Q309.7656,171.1875 311.0781,169.5313 Q312.4063,167.875 314.9063,167.875 Q315.6094,167.875 316.25,168.0313 Q316.9063,168.1875 317.4688,168.4844 L317.4688,171.2031 Q316.8438,170.625 316.25,170.3594 Q315.6563,170.0781 315.0313,170.0781 Q313.6875,170.0781 313,171.1563 Q312.3125,172.2188 312.3125,174.3125 Q312.3125,176.4063 313,177.4844 Q313.6875,178.5469 315.0313,178.5469 Q315.6563,178.5469 316.25,178.2813 Q316.8438,178 317.4688,177.4219 L317.4688,180.1406 Z " fill="#000000"/><text fill="#000000" font-family="sans-serif" font-size="14" lengthAdjust="spacing" textLength="244.4805" x="328.5" y="179.3467">logic_arc_int__baselibs__filesystem</text><line style="stroke:#181818;stroke-width:0.5;" x1="300.5" x2="574.9805" y1="190.5" y2="190.5"/></g><!--class comp_arc_sta__baselibs__result--><g id="elem_comp_arc_sta__baselibs__result"><rect fill="#F1F1F1" height="40" id="comp_arc_sta__baselibs__result" rx="2.5" ry="2.5" style="stroke:#181818;stroke-width:0.5;" width="253.4297" x="7" y="275.5"/><ellipse cx="22" cy="291.5" fill="#ADD1B2" rx="11" ry="11" style="stroke:#181818;stroke-width:1;"/><path d="M24.9688,297.1406 Q24.3906,297.4375 23.75,297.5781 Q23.1094,297.7344 22.4063,297.7344 Q19.9063,297.7344 18.5781,296.0938 Q17.2656,294.4375 17.2656,291.3125 Q17.2656,288.1875 18.5781,286.5313 Q19.9063,284.875 22.4063,284.875 Q23.1094,284.875 23.75,285.0313 Q24.4063,285.1875 24.9688,285.4844 L24.9688,288.2031 Q24.3438,287.625 23.75,287.3594 Q23.1563,287.0781 22.5313,287.0781 Q21.1875,287.0781 20.5,288.1563 Q19.8125,289.2188 19.8125,291.3125 Q19.8125,293.4063 20.5,294.4844 Q21.1875,295.5469 22.5313,295.5469 Q23.1563,295.5469 23.75,295.2813 Q24.3438,295 24.9688,294.4219 L24.9688,297.1406 Z " fill="#000000"/><text fill="#000000" font-family="sans-serif" font-size="14" lengthAdjust="spacing" textLength="221.4297" x="36" y="296.3467">comp_arc_sta__baselibs__result</text><line style="stroke:#181818;stroke-width:0.5;" x1="8" x2="259.4297" y1="307.5" y2="307.5"/></g><!--reverse link logic_arc_int__baselibs__utils_base64 to comp_arc_sta__baselibs__utils--><g id="link_logic_arc_int__baselibs__utils_base64_comp_arc_sta__baselibs__utils"><path codeLine="15" d="M1819.9324,202.5265 C1846.1424,223.7565 1883.41,253.94 1909.65,275.19 " fill="transparent" id="logic_arc_int__baselibs__utils_base64-backto-comp_arc_sta__baselibs__utils" style="stroke:#181818;stroke-width:1;"/><polygon fill="#181818" points="1815.27,198.75,1819.7459,207.523,1819.1553,201.8971,1824.7813,201.3065,1815.27,198.75" style="stroke:#181818;stroke-width:1;"/><text fill="#000000" font-family="sans-serif" font-size="13" lengthAdjust="spacing" textLength="76.9082" x="1872.5" y="241.5669">implements</text></g><!--link Feature_User to logic_arc_int__baselibs__message_passing--><g id="link_Feature_User_logic_arc_int__baselibs__message_passing"><path codeLine="16" d="M1746.49,50.39 C1603.39,69.1 1160.5293,127.0119 926.1793,157.6619 " fill="transparent" id="Feature_User-to-logic_arc_int__baselibs__message_passing" style="stroke:#181818;stroke-width:1;"/><polygon fill="#181818" points="920.23,158.44,929.6727,161.2391,925.1878,157.7916,928.6353,153.3066,920.23,158.44" style="stroke:#181818;stroke-width:1;"/><text fill="#000000" font-family="sans-serif" font-size="13" lengthAdjust="spacing" textLength="23.0103" x="1254.5" y="124.5669">use</text></g><!--link Feature_User to logic_arc_int__baselibs__memory_shared--><g id="link_Feature_User_logic_arc_int__baselibs__memory_shared"><path codeLine="17" d="M1836.6,48.39 C1998.47,62.41 2565.31,111.97 3032.5,158.5 C3038.34,159.08 3038.3207,159.0741 3044.3307,159.6841 " fill="transparent" id="Feature_User-to-logic_arc_int__baselibs__memory_shared" style="stroke:#181818;stroke-width:1;"/><polygon fill="#181818" points="3050.3,160.29,3041.7499,155.4016,3045.3256,159.7851,3040.9421,163.3607,3050.3,160.29" style="stroke:#181818;stroke-width:1;"/><text fill="#000000" font-family="sans-serif" font-size="13" lengthAdjust="spacing" textLength="23.0103" x="2693.5" y="124.5669">use</text></g><!--reverse link logic_arc_int__baselibs__json to comp_arc_sta__baselibs__json--><g id="link_logic_arc_int__baselibs__json_comp_arc_sta__baselibs__json"><path codeLine="18" d="M3523.9346,204.7491 C3524.3046,225.9791 3524.79,253.94 3525.16,275.19 " fill="transparent" id="logic_arc_int__baselibs__json-backto-comp_arc_sta__baselibs__json" style="stroke:#181818;stroke-width:1;"/><polygon fill="#181818" points="3523.83,198.75,3519.9874,207.8183,3523.9171,203.7492,3527.9862,207.6789,3523.83,198.75" style="stroke:#181818;stroke-width:1;"/><text fill="#000000" font-family="sans-serif" font-size="13" lengthAdjust="spacing" textLength="76.9082" x="3525.5" y="241.5669">implements</text></g><!--reverse link logic_arc_int__baselibs__memory_shared to comp_arc_sta__baselibs__memory_shared--><g id="link_logic_arc_int__baselibs__memory_shared_comp_arc_sta__baselibs__memory_shared"><path codeLine="19" d="M3208.8418,204.7479 C3208.2818,225.9779 3207.56,253.94 3207,275.19 " fill="transparent" id="logic_arc_int__baselibs__memory_shared-backto-comp_arc_sta__baselibs__memory_shared" style="stroke:#181818;stroke-width:1;"/><polygon fill="#181818" points="3209,198.75,3204.7641,207.6414,3208.8682,203.7483,3212.7613,207.8523,3209,198.75" style="stroke:#181818;stroke-width:1;"/><text fill="#000000" font-family="sans-serif" font-size="13" lengthAdjust="spacing" textLength="76.9082" x="3209.5" y="241.5669">implements</text></g><!--link Feature_User to logic_arc_int__baselibs__result--><g id="link_Feature_User_logic_arc_int__baselibs__result"><path codeLine="20" d="M1746.32,46.87 C1563.2,56.68 858.54,96.58 281.5,158.5 C274.65,159.23 273.5883,159.3241 266.4983,160.1641 " fill="transparent" id="Feature_User-to-logic_arc_int__baselibs__result" style="stroke:#181818;stroke-width:1;"/><polygon fill="#181818" points="260.54,160.87,269.9481,163.7833,265.5053,160.2817,269.0069,155.8389,260.54,160.87" style="stroke:#181818;stroke-width:1;"/><text fill="#000000" font-family="sans-serif" font-size="13" lengthAdjust="spacing" textLength="23.0103" x="780.5" y="124.5669">use</text></g><!--link Feature_User to logic_arc_int__baselibs__json--><g id="link_Feature_User_logic_arc_int__baselibs__json"><path codeLine="21" d="M1836.6,46.64 C2025.76,55.86 2773.6,94.56 3385.5,158.5 C3392.48,159.23 3393.682,159.3313 3400.912,160.1913 " fill="transparent" id="Feature_User-to-logic_arc_int__baselibs__json" style="stroke:#181818;stroke-width:1;"/><polygon fill="#181818" points="3406.87,160.9,3398.4055,155.865,3401.905,160.3094,3397.4605,163.809,3406.87,160.9" style="stroke:#181818;stroke-width:1;"/><text fill="#000000" font-family="sans-serif" font-size="13" lengthAdjust="spacing" textLength="23.0103" x="3038.5" y="124.5669">use</text></g><!--link Feature_User to logic_arc_int__baselibs__bit_mask_operator--><g id="link_Feature_User_logic_arc_int__baselibs__bit_mask_operator"><path codeLine="22" d="M1836.56,53.07 C1947.59,74.2 2230.5958,128.0484 2384.5758,157.3484 " fill="transparent" id="Feature_User-to-logic_arc_int__baselibs__bit_mask_operator" style="stroke:#181818;stroke-width:1;"/><polygon fill="#181818" points="2390.47,158.47,2382.3764,152.8581,2385.5581,157.5353,2380.8809,160.7171,2390.47,158.47" style="stroke:#181818;stroke-width:1;"/><text fill="#000000" font-family="sans-serif" font-size="13" lengthAdjust="spacing" textLength="23.0103" x="2225.5" y="124.5669">use</text></g><!--link Feature_User to logic_arc_int__baselibs__bit_manipulation--><g id="link_Feature_User_logic_arc_int__baselibs__bit_manipulation"><path codeLine="23" d="M1836.84,50.17 C1984.55,68.65 2450.6164,126.965 2696.4464,157.725 " fill="transparent" id="Feature_User-to-logic_arc_int__baselibs__bit_manipulation" style="stroke:#181818;stroke-width:1;"/><polygon fill="#181818" points="2702.4,158.47,2693.9663,153.3835,2697.4387,157.8492,2692.973,161.3216,2702.4,158.47" style="stroke:#181818;stroke-width:1;"/><text fill="#000000" font-family="sans-serif" font-size="13" lengthAdjust="spacing" textLength="23.0103" x="2450.5" y="124.5669">use</text></g><!--reverse link logic_arc_int__baselibs__bit_mask_operator to comp_arc_sta__baselibs__bit_manipulation--><g id="link_logic_arc_int__baselibs__bit_mask_operator_comp_arc_sta__baselibs__bit_manipulation"><path codeLine="24" d="M2525.6865,201.9799 C2559.0165,223.2699 2607.33,254.14 2640.57,275.38 " fill="transparent" id="logic_arc_int__baselibs__bit_mask_operator-backto-comp_arc_sta__baselibs__bit_manipulation" style="stroke:#181818;stroke-width:1;"/><polygon fill="#181818" points="2520.63,198.75,2526.0614,206.9658,2524.8437,201.4416,2530.368,200.2239,2520.63,198.75" style="stroke:#181818;stroke-width:1;"/><text fill="#000000" font-family="sans-serif" font-size="13" lengthAdjust="spacing" textLength="76.9082" x="2592.5" y="241.5669">implements</text></g><!--reverse link logic_arc_int__baselibs__dynamic_array to comp_arc_sta__baselibs__containers--><g id="link_logic_arc_int__baselibs__dynamic_array_comp_arc_sta__baselibs__containers"><path codeLine="25" d="M1150.9926,202.9926 C1172.2226,224.2226 1201.94,253.94 1223.19,275.19 " fill="transparent" id="logic_arc_int__baselibs__dynamic_array-backto-comp_arc_sta__baselibs__containers" style="stroke:#181818;stroke-width:1;"/><polygon fill="#181818" points="1146.75,198.75,1150.2855,207.9424,1150.2855,202.2855,1155.9424,202.2855,1146.75,198.75" style="stroke:#181818;stroke-width:1;"/><text fill="#000000" font-family="sans-serif" font-size="13" lengthAdjust="spacing" textLength="76.9082" x="1193.5" y="241.5669">implements</text></g><!--reverse link logic_arc_int__baselibs__bit_manipulation to comp_arc_sta__baselibs__bit_manipulation--><g id="link_logic_arc_int__baselibs__bit_manipulation_comp_arc_sta__baselibs__bit_manipulation"><path codeLine="26" d="M2818.6118,201.9296 C2784.5418,223.2196 2735.08,254.14 2701.09,275.38 " fill="transparent" id="logic_arc_int__baselibs__bit_manipulation-backto-comp_arc_sta__baselibs__bit_manipulation" style="stroke:#181818;stroke-width:1;"/><polygon fill="#181818" points="2823.7,198.75,2813.9479,200.1272,2819.4598,201.3997,2818.1874,206.9115,2823.7,198.75" style="stroke:#181818;stroke-width:1;"/><text fill="#000000" font-family="sans-serif" font-size="13" lengthAdjust="spacing" textLength="76.9082" x="2775.5" y="241.5669">implements</text></g><!--link Feature_User to logic_arc_int__baselibs__utils_base64--><g id="link_Feature_User_logic_arc_int__baselibs__utils_base64"><path codeLine="27" d="M1791.5,81.55 C1791.5,106.45 1791.5,132.26 1791.5,152.26 " fill="transparent" id="Feature_User-to-logic_arc_int__baselibs__utils_base64" style="stroke:#181818;stroke-width:1;"/><polygon fill="#181818" points="1791.5,158.26,1795.5,149.26,1791.5,153.26,1787.5,149.26,1791.5,158.26" style="stroke:#181818;stroke-width:1;"/><text fill="#000000" font-family="sans-serif" font-size="13" lengthAdjust="spacing" textLength="23.0103" x="1792.5" y="124.5669">use</text></g><!--link Feature_User to logic_arc_int__baselibs__utils_scoped_op--><g id="link_Feature_User_logic_arc_int__baselibs__utils_scoped_op"><path codeLine="28" d="M1836.52,62.16 C1900.27,87.18 2010.8142,130.5494 2076.4242,156.2794 " fill="transparent" id="Feature_User-to-logic_arc_int__baselibs__utils_scoped_op" style="stroke:#181818;stroke-width:1;"/><polygon fill="#181818" points="2082.01,158.47,2075.0916,151.4603,2077.3551,156.6445,2072.1709,158.908,2082.01,158.47" style="stroke:#181818;stroke-width:1;"/><text fill="#000000" font-family="sans-serif" font-size="13" lengthAdjust="spacing" textLength="23.0103" x="2002.5" y="124.5669">use</text></g><!--link Feature_User to logic_arc_int__baselibs__dynamic_array--><g id="link_Feature_User_logic_arc_int__baselibs__dynamic_array"><path codeLine="29" d="M1746.38,53.54 C1639.26,74.99 1373.6131,128.2014 1228.4031,157.2914 " fill="transparent" id="Feature_User-to-logic_arc_int__baselibs__dynamic_array" style="stroke:#181818;stroke-width:1;"/><polygon fill="#181818" points="1222.52,158.47,1232.1304,160.6242,1227.4226,157.4879,1230.559,152.7801,1222.52,158.47" style="stroke:#181818;stroke-width:1;"/><text fill="#000000" font-family="sans-serif" font-size="13" lengthAdjust="spacing" textLength="23.0103" x="1441.5" y="124.5669">use</text></g><!--link Feature_User to logic_arc_int__baselibs__intrusive_list--><g id="link_Feature_User_logic_arc_int__baselibs__intrusive_list"><path codeLine="30" d="M1746.24,62.85 C1684.2,88.01 1578.87,130.7147 1515.98,156.2247 " fill="transparent" id="Feature_User-to-logic_arc_int__baselibs__intrusive_list" style="stroke:#181818;stroke-width:1;"/><polygon fill="#181818" points="1510.42,158.48,1520.2635,158.8037,1515.0533,156.6006,1517.2565,151.3904,1510.42,158.48" style="stroke:#181818;stroke-width:1;"/><text fill="#000000" font-family="sans-serif" font-size="13" lengthAdjust="spacing" textLength="23.0103" x="1619.5" y="124.5669">use</text></g><!--reverse link logic_arc_int__baselibs__message_passing to comp_arc_sta__baselibs__message_passing--><g id="link_logic_arc_int__baselibs__message_passing_comp_arc_sta__baselibs__message_passing"><path codeLine="31" d="M776.4777,204.7317 C778.1377,225.9617 780.33,253.94 781.99,275.19 " fill="transparent" id="logic_arc_int__baselibs__message_passing-backto-comp_arc_sta__baselibs__message_passing" style="stroke:#181818;stroke-width:1;"/><polygon fill="#181818" points="776.01,198.75,772.7238,208.0344,776.3998,203.7348,780.6994,207.4108,776.01,198.75" style="stroke:#181818;stroke-width:1;"/><text fill="#000000" font-family="sans-serif" font-size="13" lengthAdjust="spacing" textLength="76.9082" x="781.5" y="241.5669">implements</text></g><!--reverse link logic_arc_int__baselibs__intrusive_list to comp_arc_sta__baselibs__containers--><g id="link_logic_arc_int__baselibs__intrusive_list_comp_arc_sta__baselibs__containers"><path codeLine="32" d="M1421.1873,201.5193 C1380.2673,222.8093 1320.06,254.14 1279.24,275.38 " fill="transparent" id="logic_arc_int__baselibs__intrusive_list-backto-comp_arc_sta__baselibs__containers" style="stroke:#181818;stroke-width:1;"/><polygon fill="#181818" points="1426.51,198.75,1416.6798,199.3555,1422.0744,201.0578,1420.3722,206.4524,1426.51,198.75" style="stroke:#181818;stroke-width:1;"/><text fill="#000000" font-family="sans-serif" font-size="13" lengthAdjust="spacing" textLength="76.9082" x="1367.5" y="241.5669">implements</text></g><!--reverse link logic_arc_int__baselibs__utils_scoped_op to comp_arc_sta__baselibs__utils--><g id="link_logic_arc_int__baselibs__utils_scoped_op_comp_arc_sta__baselibs__utils"><path codeLine="33" d="M2092.3479,201.7743 C2055.8679,223.0643 2002.64,254.14 1966.25,275.38 " fill="transparent" id="logic_arc_int__baselibs__utils_scoped_op-backto-comp_arc_sta__baselibs__utils" style="stroke:#181818;stroke-width:1;"/><polygon fill="#181818" points="2097.53,198.75,2087.7407,199.8317,2093.2116,201.2702,2091.7731,206.7411,2097.53,198.75" style="stroke:#181818;stroke-width:1;"/><text fill="#000000" font-family="sans-serif" font-size="13" lengthAdjust="spacing" textLength="76.9082" x="2045.5" y="241.5669">implements</text></g><!--reverse link logic_arc_int__baselibs__filesystem to comp_arc_sta__baselibs__filesystem--><g id="link_logic_arc_int__baselibs__filesystem_comp_arc_sta__baselibs__filesystem"><path codeLine="34" d="M437.5,204.75 C437.5,225.98 437.5,253.94 437.5,275.19 " fill="transparent" id="logic_arc_int__baselibs__filesystem-backto-comp_arc_sta__baselibs__filesystem" style="stroke:#181818;stroke-width:1;"/><polygon fill="#181818" points="437.5,198.75,433.5,207.75,437.5,203.75,441.5,207.75,437.5,198.75" style="stroke:#181818;stroke-width:1;"/><text fill="#000000" font-family="sans-serif" font-size="13" lengthAdjust="spacing" textLength="76.9082" x="438.5" y="241.5669">implements</text></g><!--reverse link logic_arc_int__baselibs__result to comp_arc_sta__baselibs__result--><g id="link_logic_arc_int__baselibs__result_comp_arc_sta__baselibs__result"><path codeLine="35" d="M137.4002,204.7444 C136.4802,225.9744 135.26,253.94 134.34,275.19 " fill="transparent" id="logic_arc_int__baselibs__result-backto-comp_arc_sta__baselibs__result" style="stroke:#181818;stroke-width:1;"/><polygon fill="#181818" points="137.66,198.75,133.2741,207.5684,137.4435,203.7453,141.2666,207.9147,137.66,198.75" style="stroke:#181818;stroke-width:1;"/><text fill="#000000" font-family="sans-serif" font-size="13" lengthAdjust="spacing" textLength="76.9082" x="137.5" y="241.5669">implements</text></g><!--link Feature_User to logic_arc_int__baselibs__filesystem--><g id="link_Feature_User_logic_arc_int__baselibs__filesystem"><path codeLine="36" d="M1746.27,48.35 C1587.66,61.96 1042.02,109.59 592.5,158.5 C586.97,159.1 587.3024,159.0594 581.6124,159.6994 " fill="transparent" id="Feature_User-to-logic_arc_int__baselibs__filesystem" style="stroke:#181818;stroke-width:1;"/><polygon fill="#181818" points="575.65,160.37,585.0407,163.339,580.6187,159.8111,584.1465,155.3891,575.65,160.37" style="stroke:#181818;stroke-width:1;"/><text fill="#000000" font-family="sans-serif" font-size="13" lengthAdjust="spacing" textLength="23.0103" x="1022.5" y="124.5669">use</text></g><!--SRC=[hLLDRzim3BthLn2zfos6OeUYo6L0JpkkPu6skOIjFWoHtcOK_UzJd0oBtMQoZHqfFpwHZqyqEXT_Mi-_EEoCnXOqGXLLeuU64zNACPWzDmIYb2Xgtz8n9jzg3wYQkEgKn3o8zewsvXg5NGMlvYi7-X9TJ92e6Q9lUwvV0ed0f-jRysOURauv1clDkAj7GkqImPDGkW8KE1tOmm4OKqVVMaor5KLhAnHoN8crdR8Js7IRBRYuuth0SD1tc27-V7SFx5j7de8AcD4bc-PV93uNZpkoBOfaoUwX4rf8u6FghUmnYt9AlzJLiyHGQEe06JTpYMnqSO5rKkHAhH99vtIvHCUUbcPLhDQZlDZOKiBifhKKWTlEuS7uXV5CuGLHFoXmpjpg61JpsqabVpTzG3zyIjZFurxLmRa-AvqnVefBntJCbZhhs6GnbnDCb5gQdiFK2VyWwrYqO9B9mYW-lCbw-QyEcHO-Xtp-PZqRo1pYx-n8-lnNyGNsly1vnCUrKo3zivjM6lYyfc7ylm40]--></g></svg>