<svg xmlns="http://www.w3.org/2000/svg" xmlns:xlink="http://www.w3.org/1999/xlink" contentStyleType="text/css" data-diagram-type="CLASS" height="322px" preserveAspectRatio="none" style="width:6199px;height:322px;background:#FFFFFF;" version="1.1" viewBox="0 0 6199 322" width="6199px" zoomAndPan="magnify"><defs/><g><!--entity Feature_User--><g id="elem_Feature_User"><ellipse cx="2967.6685" cy="14" fill="#F1F1F1" rx="8" ry="8" style="stroke:#181818;stroke-width:0.5;"/><path d="M2967.6685,22 L2967.6685,49 M2954.6685,30 L2980.6685,30 M2967.6685,49 L2954.6685,64 M2967.6685,49 L2980.6685,64 " fill="transparent" style="stroke:#181818;stroke-width:0.5;"/><text fill="#000000" font-family="sans-serif" font-size="14" lengthAdjust="spacing" textLength="90.3369" x="2922.5" y="78.4951">Feature User</text></g><!--class logic_arc_int__baselibs__promise--><g id="elem_logic_arc_int__baselibs__promise"><rect fill="#F1F1F1" height="40" id="logic_arc_int__baselibs__promise" rx="2.5" ry="2.5" style="stroke:#181818;stroke-width:0.5;" width="261.1885" x="2837" y="158.5"/><ellipse cx="2852" cy="174.5" fill="#ADD1B2" rx="11" ry="11" style="stroke:#181818;stroke-width:1;"/><path d="M2854.9688,180.1406 Q2854.3906,180.4375 2853.75,180.5781 Q2853.1094,180.7344 2852.4063,180.7344 Q2849.9063,180.7344 2848.5781,179.0938 Q2847.2656,177.4375 2847.2656,174.3125 Q2847.2656,171.1875 2848.5781,169.5313 Q2849.9063,167.875 2852.4063,167.875 Q2853.1094,167.875 2853.75,168.0313 Q2854.4063,168.1875 2854.9688,168.4844 L2854.9688,171.2031 Q2854.3438,170.625 2853.75,170.3594 Q2853.1563,170.0781 2852.5313,170.0781 Q2851.1875,170.0781 2850.5,171.1563 Q2849.8125,172.2188 2849.8125,174.3125 Q2849.8125,176.4063 2850.5,177.4844 Q2851.1875,178.5469 2852.5313,178.5469 Q2853.1563,178.5469 2853.75,178.2813 Q2854.3438,178 2854.9688,177.4219 L2854.9688,180.1406 Z " fill="#000000"/><text fill="#000000" font-family="sans-serif" font-size="14" lengthAdjust="spacing" textLength="229.1885" x="2866" y="179.3467">logic_arc_int__baselibs__promise</text><line style="stroke:#181818;stroke-width:0.5;" x1="2838" x2="3097.1885" y1="190.5" y2="190.5"/></g><!--class comp_arc_sta__baselibs__concurrency--><g id="elem_comp_arc_sta__baselibs__concurrency"><rect fill="#F1F1F1" height="40" id="comp_arc_sta__baselibs__concurrency" rx="2.5" ry="2.5" style="stroke:#181818;stroke-width:0.5;" width="300.2012" x="2339.5" y="275.5"/><ellipse cx="2354.5" cy="291.5" fill="#ADD1B2" rx="11" ry="11" style="stroke:#181818;stroke-width:1;"/><path d="M2357.4688,297.1406 Q2356.8906,297.4375 2356.25,297.5781 Q2355.6094,297.7344 2354.9063,297.7344 Q2352.4063,297.7344 2351.0781,296.0938 Q2349.7656,294.4375 2349.7656,291.3125 Q2349.7656,288.1875 2351.0781,286.5313 Q2352.4063,284.875 2354.9063,284.875 Q2355.6094,284.875 2356.25,285.0313 Q2356.9063,285.1875 2357.4688,285.4844 L2357.4688,288.2031 Q2356.8438,287.625 2356.25,287.3594 Q2355.6563,287.0781 2355.0313,287.0781 Q2353.6875,287.0781 2353,288.1563 Q2352.3125,289.2188 2352.3125,291.3125 Q2352.3125,293.4063 2353,294.4844 Q2353.6875,295.5469 2355.0313,295.5469 Q2355.6563,295.5469 2356.25,295.2813 Q2356.8438,295 2357.4688,294.4219 L2357.4688,297.1406 Z " fill="#000000"/><text fill="#000000" font-family="sans-serif" font-size="14" lengthAdjust="spacing" textLength="268.2012" x="2368.5" y="296.3467">comp_arc_sta__baselibs__concurrency</text><line style="stroke:#181818;stroke-width:0.5;" x1="2340.5" x2="2638.7012" y1="307.5" y2="307.5"/></g><!--class logic_arc_int__baselibs__future--><g id="elem_logic_arc_int__baselibs__future"><rect fill="#F1F1F1" height="40" id="logic_arc_int__baselibs__future" rx="2.5" ry="2.5" style="stroke:#181818;stroke-width:0.5;" width="247.0791" x="2239" y="158.5"/><ellipse cx="2254" cy="174.5" fill="#ADD1B2" rx="11" ry="11" style="stroke:#181818;stroke-width:1;"/><path d="M2256.9688,180.1406 Q2256.3906,180.4375 2255.75,180.5781 Q2255.1094,180.7344 2254.4063,180.7344 Q2251.9063,180.7344 2250.5781,179.0938 Q2249.2656,177.4375 2249.2656,174.3125 Q2249.2656,171.1875 2250.5781,169.5313 Q2251.9063,167.875 2254.4063,167.875 Q2255.1094,167.875 2255.75,168.0313 Q2256.4063,168.1875 2256.9688,168.4844 L2256.9688,171.2031 Q2256.3438,170.625 2255.75,170.3594 Q2255.1563,170.0781 2254.5313,170.0781 Q2253.1875,170.0781 2252.5,171.1563 Q2251.8125,172.2188 2251.8125,174.3125 Q2251.8125,176.4063 2252.5,177.4844 Q2253.1875,178.5469 2254.5313,178.5469 Q2255.1563,178.5469 2255.75,178.2813 Q2256.3438,178 2256.9688,177.4219 L2256.9688,180.1406 Z " fill="#000000"/><text fill="#000000" font-family="sans-serif" font-size="14" lengthAdjust="spacing" textLength="215.0791" x="2268" y="179.3467">logic_arc_int__baselibs__future</text><line style="stroke:#181818;stroke-width:0.5;" x1="2240" x2="2485.0791" y1="190.5" y2="190.5"/></g><!--class logic_arc_int__baselibs__memory_shared--><g id="elem_logic_arc_int__baselibs__memory_shared"><rect fill="#F1F1F1" height="40" id="logic_arc_int__baselibs__memory_shared" rx="2.5" ry="2.5" style="stroke:#181818;stroke-width:0.5;" width="318.043" x="5869.5" y="158.5"/><ellipse cx="5884.5" cy="174.5" fill="#ADD1B2" rx="11" ry="11" style="stroke:#181818;stroke-width:1;"/><path d="M5887.4688,180.1406 Q5886.8906,180.4375 5886.25,180.5781 Q5885.6094,180.7344 5884.9063,180.7344 Q5882.4063,180.7344 5881.0781,179.0938 Q5879.7656,177.4375 5879.7656,174.3125 Q5879.7656,171.1875 5881.0781,169.5313 Q5882.4063,167.875 5884.9063,167.875 Q5885.6094,167.875 5886.25,168.0313 Q5886.9063,168.1875 5887.4688,168.4844 L5887.4688,171.2031 Q5886.8438,170.625 5886.25,170.3594 Q5885.6563,170.0781 5885.0313,170.0781 Q5883.6875,170.0781 5883,171.1563 Q5882.3125,172.2188 5882.3125,174.3125 Q5882.3125,176.4063 5883,177.4844 Q5883.6875,178.5469 5885.0313,178.5469 Q5885.6563,178.5469 5886.25,178.2813 Q5886.8438,178 5887.4688,177.4219 L5887.4688,180.1406 Z " fill="#000000"/><text fill="#000000" font-family="sans-serif" font-size="14" lengthAdjust="spacing" textLength="286.043" x="5898.5" y="179.3467">logic_arc_int__baselibs__memory_shared</text><line style="stroke:#181818;stroke-width:0.5;" x1="5870.5" x2="6186.543" y1="190.5" y2="190.5"/></g><!--class logic_arc_int__baselibs__shared_future--><g id="elem_logic_arc_int__baselibs__shared_future"><rect fill="#F1F1F1" height="40" id="logic_arc_int__baselibs__shared_future" rx="2.5" ry="2.5" style="stroke:#181818;stroke-width:0.5;" width="302.0811" x="3501.5" y="158.5"/><ellipse cx="3516.5" cy="174.5" fill="#ADD1B2" rx="11" ry="11" style="stroke:#181818;stroke-width:1;"/><path d="M3519.4688,180.1406 Q3518.8906,180.4375 3518.25,180.5781 Q3517.6094,180.7344 3516.9063,180.7344 Q3514.4063,180.7344 3513.0781,179.0938 Q3511.7656,177.4375 3511.7656,174.3125 Q3511.7656,171.1875 3513.0781,169.5313 Q3514.4063,167.875 3516.9063,167.875 Q3517.6094,167.875 3518.25,168.0313 Q3518.9063,168.1875 3519.4688,168.4844 L3519.4688,171.2031 Q3518.8438,170.625 3518.25,170.3594 Q3517.6563,170.0781 3517.0313,170.0781 Q3515.6875,170.0781 3515,171.1563 Q3514.3125,172.2188 3514.3125,174.3125 Q3514.3125,176.4063 3515,177.4844 Q3515.6875,178.5469 3517.0313,178.5469 Q3517.6563,178.5469 3518.25,178.2813 Q3518.8438,178 3519.4688,177.4219 L3519.4688,180.1406 Z " fill="#000000"/><text fill="#000000" font-family="sans-serif" font-size="14" lengthAdjust="spacing" textLength="270.0811" x="3530.5" y="179.3467">logic_arc_int__baselibs__shared_future</text><line style="stroke:#181818;stroke-width:0.5;" x1="3502.5" x2="3802.5811" y1="190.5" y2="190.5"/></g><!--class comp_arc_sta__baselibs__containers--><g id="elem_comp_arc_sta__baselibs__containers"><rect fill="#F1F1F1" height="40" id="comp_arc_sta__baselibs__containers" rx="2.5" ry="2.5" style="stroke:#181818;stroke-width:0.5;" width="287.1445" x="4319" y="275.5"/><ellipse cx="4334" cy="291.5" fill="#ADD1B2" rx="11" ry="11" style="stroke:#181818;stroke-width:1;"/><path d="M4336.9688,297.1406 Q4336.3906,297.4375 4335.75,297.5781 Q4335.1094,297.7344 4334.4063,297.7344 Q4331.9063,297.7344 4330.5781,296.0938 Q4329.2656,294.4375 4329.2656,291.3125 Q4329.2656,288.1875 4330.5781,286.5313 Q4331.9063,284.875 4334.4063,284.875 Q4335.1094,284.875 4335.75,285.0313 Q4336.4063,285.1875 4336.9688,285.4844 L4336.9688,288.2031 Q4336.3438,287.625 4335.75,287.3594 Q4335.1563,287.0781 4334.5313,287.0781 Q4333.1875,287.0781 4332.5,288.1563 Q4331.8125,289.2188 4331.8125,291.3125 Q4331.8125,293.4063 4332.5,294.4844 Q4333.1875,295.5469 4334.5313,295.5469 Q4335.1563,295.5469 4335.75,295.2813 Q4336.3438,295 4336.9688,294.4219 L4336.9688,297.1406 Z " fill="#000000"/><text fill="#000000" font-family="sans-serif" font-size="14" lengthAdjust="spacing" textLength="255.1445" x="4348" y="296.3467">comp_arc_sta__baselibs__containers</text><line style="stroke:#181818;stroke-width:0.5;" x1="4320" x2="4605.1445" y1="307.5" y2="307.5"/></g><!--class logic_arc_int__baselibs__intrusive_list--><g id="elem_logic_arc_int__baselibs__intrusive_list"><rect fill="#F1F1F1" height="40" id="logic_arc_int__baselibs__intrusive_list" rx="2.5" ry="2.5" style="stroke:#181818;stroke-width:0.5;" width="293.0713" x="4202" y="158.5"/><ellipse cx="4217" cy="174.5" fill="#ADD1B2" rx="11" ry="11" style="stroke:#181818;stroke-width:1;"/><path d="M4219.9688,180.1406 Q4219.3906,180.4375 4218.75,180.5781 Q4218.1094,180.7344 4217.4063,180.7344 Q4214.9063,180.7344 4213.5781,179.0938 Q4212.2656,177.4375 4212.2656,174.3125 Q4212.2656,171.1875 4213.5781,169.5313 Q4214.9063,167.875 4217.4063,167.875 Q4218.1094,167.875 4218.75,168.0313 Q4219.4063,168.1875 4219.9688,168.4844 L4219.9688,171.2031 Q4219.3438,170.625 4218.75,170.3594 Q4218.1563,170.0781 4217.5313,170.0781 Q4216.1875,170.0781 4215.5,171.1563 Q4214.8125,172.2188 4214.8125,174.3125 Q4214.8125,176.4063 4215.5,177.4844 Q4216.1875,178.5469 4217.5313,178.5469 Q4218.1563,178.5469 4218.75,178.2813 Q4219.3438,178 4219.9688,177.4219 L4219.9688,180.1406 Z " fill="#000000"/><text fill="#000000" font-family="sans-serif" font-size="14" lengthAdjust="spacing" textLength="261.0713" x="4231" y="179.3467">logic_arc_int__baselibs__intrusive_list</text><line style="stroke:#181818;stroke-width:0.5;" x1="4203" x2="4494.0713" y1="190.5" y2="190.5"/></g><!--class logic_arc_int__baselibs__bit_manipulation--><g id="elem_logic_arc_int__baselibs__bit_manipulation"><rect fill="#F1F1F1" height="40" id="logic_arc_int__baselibs__bit_manipulation" rx="2.5" ry="2.5" style="stroke:#181818;stroke-width:0.5;" width="321.8369" x="5512.5" y="158.5"/><ellipse cx="5527.5" cy="174.5" fill="#ADD1B2" rx="11" ry="11" style="stroke:#181818;stroke-width:1;"/><path d="M5530.4688,180.1406 Q5529.8906,180.4375 5529.25,180.5781 Q5528.6094,180.7344 5527.9063,180.7344 Q5525.4063,180.7344 5524.0781,179.0938 Q5522.7656,177.4375 5522.7656,174.3125 Q5522.7656,171.1875 5524.0781,169.5313 Q5525.4063,167.875 5527.9063,167.875 Q5528.6094,167.875 5529.25,168.0313 Q5529.9063,168.1875 5530.4688,168.4844 L5530.4688,171.2031 Q5529.8438,170.625 5529.25,170.3594 Q5528.6563,170.0781 5528.0313,170.0781 Q5526.6875,170.0781 5526,171.1563 Q5525.3125,172.2188 5525.3125,174.3125 Q5525.3125,176.4063 5526,177.4844 Q5526.6875,178.5469 5528.0313,178.5469 Q5528.6563,178.5469 5529.25,178.2813 Q5529.8438,178 5530.4688,177.4219 L5530.4688,180.1406 Z " fill="#000000"/><text fill="#000000" font-family="sans-serif" font-size="14" lengthAdjust="spacing" textLength="289.8369" x="5541.5" y="179.3467">logic_arc_int__baselibs__bit_manipulation</text><line style="stroke:#181818;stroke-width:0.5;" x1="5513.5" x2="5833.3369" y1="190.5" y2="190.5"/></g><!--class comp_arc_sta__baselibs__bit_manipulation--><g id="elem_comp_arc_sta__baselibs__bit_manipulation"><rect fill="#F1F1F1" height="40" id="comp_arc_sta__baselibs__bit_manipulation" rx="2.5" ry="2.5" style="stroke:#181818;stroke-width:0.5;" width="330.8057" x="5297" y="275.5"/><ellipse cx="5312" cy="291.5" fill="#ADD1B2" rx="11" ry="11" style="stroke:#181818;stroke-width:1;"/><path d="M5314.9688,297.1406 Q5314.3906,297.4375 5313.75,297.5781 Q5313.1094,297.7344 5312.4063,297.7344 Q5309.9063,297.7344 5308.5781,296.0938 Q5307.2656,294.4375 5307.2656,291.3125 Q5307.2656,288.1875 5308.5781,286.5313 Q5309.9063,284.875 5312.4063,284.875 Q5313.1094,284.875 5313.75,285.0313 Q5314.4063,285.1875 5314.9688,285.4844 L5314.9688,288.2031 Q5314.3438,287.625 5313.75,287.3594 Q5313.1563,287.0781 5312.5313,287.0781 Q5311.1875,287.0781 5310.5,288.1563 Q5309.8125,289.2188 5309.8125,291.3125 Q5309.8125,293.4063 5310.5,294.4844 Q5311.1875,295.5469 5312.5313,295.5469 Q5313.1563,295.5469 5313.75,295.2813 Q5314.3438,295 5314.9688,294.4219 L5314.9688,297.1406 Z " fill="#000000"/><text fill="#000000" font-family="sans-serif" font-size="14" lengthAdjust="spacing" textLength="298.8057" x="5326" y="296.3467">comp_arc_sta__baselibs__bit_manipulation</text><line style="stroke:#181818;stroke-width:0.5;" x1="5298" x2="5626.8057" y1="307.5" y2="307.5"/></g><!--class logic_arc_int__baselibs__executor--><g id="elem_logic_arc_int__baselibs__executor"><rect fill="#F1F1F1" height="40" id="logic_arc_int__baselibs__executor" rx="2.5" ry="2.5" style="stroke:#181818;stroke-width:0.5;" width="266.4385" x="1285.5" y="158.5"/><ellipse cx="1300.5" cy="174.5" fill="#ADD1B2" rx="11" ry="11" style="stroke:#181818;stroke-width:1;"/><path d="M1303.4688,180.1406 Q1302.8906,180.4375 1302.25,180.5781 Q1301.6094,180.7344 1300.9063,180.7344 Q1298.4063,180.7344 1297.0781,179.0938 Q1295.7656,177.4375 1295.7656,174.3125 Q1295.7656,171.1875 1297.0781,169.5313 Q1298.4063,167.875 1300.9063,167.875 Q1301.6094,167.875 1302.25,168.0313 Q1302.9063,168.1875 1303.4688,168.4844 L1303.4688,171.2031 Q1302.8438,170.625 1302.25,170.3594 Q1301.6563,170.0781 1301.0313,170.0781 Q1299.6875,170.0781 1299,171.1563 Q1298.3125,172.2188 1298.3125,174.3125 Q1298.3125,176.4063 1299,177.4844 Q1299.6875,178.5469 1301.0313,178.5469 Q1301.6563,178.5469 1302.25,178.2813 Q1302.8438,178 1303.4688,177.4219 L1303.4688,180.1406 Z " fill="#000000"/><text fill="#000000" font-family="sans-serif" font-size="14" lengthAdjust="spacing" textLength="234.4385" x="1314.5" y="179.3467">logic_arc_int__baselibs__executor</text><line style="stroke:#181818;stroke-width:0.5;" x1="1286.5" x2="1550.9385" y1="190.5" y2="190.5"/></g><!--class logic_arc_int__baselibs__message_passing--><g id="elem_logic_arc_int__baselibs__message_passing"><rect fill="#F1F1F1" height="40" id="logic_arc_int__baselibs__message_passing" rx="2.5" ry="2.5" style="stroke:#181818;stroke-width:0.5;" width="328.167" x="3838.5" y="158.5"/><ellipse cx="3853.5" cy="174.5" fill="#ADD1B2" rx="11" ry="11" style="stroke:#181818;stroke-width:1;"/><path d="M3856.4688,180.1406 Q3855.8906,180.4375 3855.25,180.5781 Q3854.6094,180.7344 3853.9063,180.7344 Q3851.4063,180.7344 3850.0781,179.0938 Q3848.7656,177.4375 3848.7656,174.3125 Q3848.7656,171.1875 3850.0781,169.5313 Q3851.4063,167.875 3853.9063,167.875 Q3854.6094,167.875 3855.25,168.0313 Q3855.9063,168.1875 3856.4688,168.4844 L3856.4688,171.2031 Q3855.8438,170.625 3855.25,170.3594 Q3854.6563,170.0781 3854.0313,170.0781 Q3852.6875,170.0781 3852,171.1563 Q3851.3125,172.2188 3851.3125,174.3125 Q3851.3125,176.4063 3852,177.4844 Q3852.6875,178.5469 3854.0313,178.5469 Q3854.6563,178.5469 3855.25,178.2813 Q3855.8438,178 3856.4688,177.4219 L3856.4688,180.1406 Z " fill="#000000"/><text fill="#000000" font-family="sans-serif" font-size="14" lengthAdjust="spacing" textLength="296.167" x="3867.5" y="179.3467">logic_arc_int__baselibs__message_passing</text><line style="stroke:#181818;stroke-width:0.5;" x1="3839.5" x2="4165.667" y1="190.5" y2="190.5"/></g><!--class logic_arc_int__baselibs__utils_base64--><g id="elem_logic_arc_int__baselibs__utils_base64"><rect fill="#F1F1F1" height="40" id="logic_arc_int__baselibs__utils_base64" rx="2.5" ry="2.5" style="stroke:#181818;stroke-width:0.5;" width="292.1689" x="607.5" y="158.5"/><ellipse cx="622.5" cy="174.5" fill="#ADD1B2" rx="11" ry="11" style="stroke:#181818;stroke-width:1;"/><path d="M625.4688,180.1406 Q624.8906,180.4375 624.25,180.5781 Q623.6094,180.7344 622.9063,180.7344 Q620.4063,180.7344 619.0781,179.0938 Q617.7656,177.4375 617.7656,174.3125 Q617.7656,171.1875 619.0781,169.5313 Q620.4063,167.875 622.9063,167.875 Q623.6094,167.875 624.25,168.0313 Q624.9063,168.1875 625.4688,168.4844 L625.4688,171.2031 Q624.8438,170.625 624.25,170.3594 Q623.6563,170.0781 623.0313,170.0781 Q621.6875,170.0781 621,171.1563 Q620.3125,172.2188 620.3125,174.3125 Q620.3125,176.4063 621,177.4844 Q621.6875,178.5469 623.0313,178.5469 Q623.6563,178.5469 624.25,178.2813 Q624.8438,178 625.4688,177.4219 L625.4688,180.1406 Z " fill="#000000"/><text fill="#000000" font-family="sans-serif" font-size="14" lengthAdjust="spacing" textLength="260.1689" x="636.5" y="179.3467">logic_arc_int__baselibs__utils_base64</text><line style="stroke:#181818;stroke-width:0.5;" x1="608.5" x2="898.6689" y1="190.5" y2="190.5"/></g><!--class comp_arc_sta__baselibs__memory_shared--><g id="elem_comp_arc_sta__baselibs__memory_shared"><rect fill="#F1F1F1" height="40" id="comp_arc_sta__baselibs__memory_shared" rx="2.5" ry="2.5" style="stroke:#181818;stroke-width:0.5;" width="327.0117" x="5865" y="275.5"/><ellipse cx="5880" cy="291.5" fill="#ADD1B2" rx="11" ry="11" style="stroke:#181818;stroke-width:1;"/><path d="M5882.9688,297.1406 Q5882.3906,297.4375 5881.75,297.5781 Q5881.1094,297.7344 5880.4063,297.7344 Q5877.9063,297.7344 5876.5781,296.0938 Q5875.2656,294.4375 5875.2656,291.3125 Q5875.2656,288.1875 5876.5781,286.5313 Q5877.9063,284.875 5880.4063,284.875 Q5881.1094,284.875 5881.75,285.0313 Q5882.4063,285.1875 5882.9688,285.4844 L5882.9688,288.2031 Q5882.3438,287.625 5881.75,287.3594 Q5881.1563,287.0781 5880.5313,287.0781 Q5879.1875,287.0781 5878.5,288.1563 Q5877.8125,289.2188 5877.8125,291.3125 Q5877.8125,293.4063 5878.5,294.4844 Q5879.1875,295.5469 5880.5313,295.5469 Q5881.1563,295.5469 5881.75,295.2813 Q5882.3438,295 5882.9688,294.4219 L5882.9688,297.1406 Z " fill="#000000"/><text fill="#000000" font-family="sans-serif" font-size="14" lengthAdjust="spacing" textLength="295.0117" x="5894" y="296.3467">comp_arc_sta__baselibs__memory_shared</text><line style="stroke:#181818;stroke-width:0.5;" x1="5866" x2="6191.0117" y1="307.5" y2="307.5"/></g><!--class comp_arc_sta__baselibs__json--><g id="elem_comp_arc_sta__baselibs__json"><rect fill="#F1F1F1" height="40" id="comp_arc_sta__baselibs__json" rx="2.5" ry="2.5" style="stroke:#181818;stroke-width:0.5;" width="242.1367" x="4869.5" y="275.5"/><ellipse cx="4884.5" cy="291.5" fill="#ADD1B2" rx="11" ry="11" style="stroke:#181818;stroke-width:1;"/><path d="M4887.4688,297.1406 Q4886.8906,297.4375 4886.25,297.5781 Q4885.6094,297.7344 4884.9063,297.7344 Q4882.4063,297.7344 4881.0781,296.0938 Q4879.7656,294.4375 4879.7656,291.3125 Q4879.7656,288.1875 4881.0781,286.5313 Q4882.4063,284.875 4884.9063,284.875 Q4885.6094,284.875 4886.25,285.0313 Q4886.9063,285.1875 4887.4688,285.4844 L4887.4688,288.2031 Q4886.8438,287.625 4886.25,287.3594 Q4885.6563,287.0781 4885.0313,287.0781 Q4883.6875,287.0781 4883,288.1563 Q4882.3125,289.2188 4882.3125,291.3125 Q4882.3125,293.4063 4883,294.4844 Q4883.6875,295.5469 4885.0313,295.5469 Q4885.6563,295.5469 4886.25,295.2813 Q4886.8438,295 4887.4688,294.4219 L4887.4688,297.1406 Z " fill="#000000"/><text fill="#000000" font-family="sans-serif" font-size="14" lengthAdjust="spacing" textLength="210.1367" x="4898.5" y="296.3467">comp_arc_sta__baselibs__json</text><line style="stroke:#181818;stroke-width:0.5;" x1="4870.5" x2="5110.6367" y1="307.5" y2="307.5"/></g><!--class logic_arc_int__baselibs__json--><g id="elem_logic_arc_int__baselibs__json"><rect fill="#F1F1F1" height="40" id="logic_arc_int__baselibs__json" rx="2.5" ry="2.5" style="stroke:#181818;stroke-width:0.5;" width="233.168" x="4874" y="158.5"/><ellipse cx="4889" cy="174.5" fill="#ADD1B2" rx="11" ry="11" style="stroke:#181818;stroke-width:1;"/><path d="M4891.9688,180.1406 Q4891.3906,180.4375 4890.75,180.5781 Q4890.1094,180.7344 4889.4063,180.7344 Q4886.9063,180.7344 4885.5781,179.0938 Q4884.2656,177.4375 4884.2656,174.3125 Q4884.2656,171.1875 4885.5781,169.5313 Q4886.9063,167.875 4889.4063,167.875 Q4890.1094,167.875 4890.75,168.0313 Q4891.4063,168.1875 4891.9688,168.4844 L4891.9688,171.2031 Q4891.3438,170.625 4890.75,170.3594 Q4890.1563,170.0781 4889.5313,170.0781 Q4888.1875,170.0781 4887.5,171.1563 Q4886.8125,172.2188 4886.8125,174.3125 Q4886.8125,176.4063 4887.5,177.4844 Q4888.1875,178.5469 4889.5313,178.5469 Q4890.1563,178.5469 4890.75,178.2813 Q4891.3438,178 4891.9688,177.4219 L4891.9688,180.1406 Z " fill="#000000"/><text fill="#000000" font-family="sans-serif" font-size="14" lengthAdjust="spacing" textLength="201.168" x="4903" y="179.3467">logic_arc_int__baselibs__json</text><line style="stroke:#181818;stroke-width:0.5;" x1="4875" x2="5106.168" y1="190.5" y2="190.5"/></g><!--class logic_arc_int__baselibs__filesystem--><g id="elem_logic_arc_int__baselibs__filesystem"><rect fill="#F1F1F1" height="40" id="logic_arc_int__baselibs__filesystem" rx="2.5" ry="2.5" style="stroke:#181818;stroke-width:0.5;" width="276.4805" x="15.5" y="158.5"/><ellipse cx="30.5" cy="174.5" fill="#ADD1B2" rx="11" ry="11" style="stroke:#181818;stroke-width:1;"/><path d="M33.4688,180.1406 Q32.8906,180.4375 32.25,180.5781 Q31.6094,180.7344 30.9063,180.7344 Q28.4063,180.7344 27.0781,179.0938 Q25.7656,177.4375 25.7656,174.3125 Q25.7656,171.1875 27.0781,169.5313 Q28.4063,167.875 30.9063,167.875 Q31.6094,167.875 32.25,168.0313 Q32.9063,168.1875 33.4688,168.4844 L33.4688,171.2031 Q32.8438,170.625 32.25,170.3594 Q31.6563,170.0781 31.0313,170.0781 Q29.6875,170.0781 29,171.1563 Q28.3125,172.2188 28.3125,174.3125 Q28.3125,176.4063 29,177.4844 Q29.6875,178.5469 31.0313,178.5469 Q31.6563,178.5469 32.25,178.2813 Q32.8438,178 33.4688,177.4219 L33.4688,180.1406 Z " fill="#000000"/><text fill="#000000" font-family="sans-serif" font-size="14" lengthAdjust="spacing" textLength="244.4805" x="44.5" y="179.3467">logic_arc_int__baselibs__filesystem</text><line style="stroke:#181818;stroke-width:0.5;" x1="16.5" x2="290.9805" y1="190.5" y2="190.5"/></g><!--class comp_arc_sta__baselibs__message_passing--><g id="elem_comp_arc_sta__baselibs__message_passing"><rect fill="#F1F1F1" height="40" id="comp_arc_sta__baselibs__message_passing" rx="2.5" ry="2.5" style="stroke:#181818;stroke-width:0.5;" width="337.1357" x="3834" y="275.5"/><ellipse cx="3849" cy="291.5" fill="#ADD1B2" rx="11" ry="11" style="stroke:#181818;stroke-width:1;"/><path d="M3851.9688,297.1406 Q3851.3906,297.4375 3850.75,297.5781 Q3850.1094,297.7344 3849.4063,297.7344 Q3846.9063,297.7344 3845.5781,296.0938 Q3844.2656,294.4375 3844.2656,291.3125 Q3844.2656,288.1875 3845.5781,286.5313 Q3846.9063,284.875 3849.4063,284.875 Q3850.1094,284.875 3850.75,285.0313 Q3851.4063,285.1875 3851.9688,285.4844 L3851.9688,288.2031 Q3851.3438,287.625 3850.75,287.3594 Q3850.1563,287.0781 3849.5313,287.0781 Q3848.1875,287.0781 3847.5,288.1563 Q3846.8125,289.2188 3846.8125,291.3125 Q3846.8125,293.4063 3847.5,294.4844 Q3848.1875,295.5469 3849.5313,295.5469 Q3850.1563,295.5469 3850.75,295.2813 Q3851.3438,295 3851.9688,294.4219 L3851.9688,297.1406 Z " fill="#000000"/><text fill="#000000" font-family="sans-serif" font-size="14" lengthAdjust="spacing" textLength="305.1357" x="3863" y="296.3467">comp_arc_sta__baselibs__message_passing</text><line style="stroke:#181818;stroke-width:0.5;" x1="3835" x2="4170.1357" y1="307.5" y2="307.5"/></g><!--class logic_arc_int__baselibs__bit_mask_operator--><g id="elem_logic_arc_int__baselibs__bit_mask_operator"><rect fill="#F1F1F1" height="40" id="logic_arc_int__baselibs__bit_mask_operator" rx="2.5" ry="2.5" style="stroke:#181818;stroke-width:0.5;" width="334.6406" x="5142" y="158.5"/><ellipse cx="5157" cy="174.5" fill="#ADD1B2" rx="11" ry="11" style="stroke:#181818;stroke-width:1;"/><path d="M5159.9688,180.1406 Q5159.3906,180.4375 5158.75,180.5781 Q5158.1094,180.7344 5157.4063,180.7344 Q5154.9063,180.7344 5153.5781,179.0938 Q5152.2656,177.4375 5152.2656,174.3125 Q5152.2656,171.1875 5153.5781,169.5313 Q5154.9063,167.875 5157.4063,167.875 Q5158.1094,167.875 5158.75,168.0313 Q5159.4063,168.1875 5159.9688,168.4844 L5159.9688,171.2031 Q5159.3438,170.625 5158.75,170.3594 Q5158.1563,170.0781 5157.5313,170.0781 Q5156.1875,170.0781 5155.5,171.1563 Q5154.8125,172.2188 5154.8125,174.3125 Q5154.8125,176.4063 5155.5,177.4844 Q5156.1875,178.5469 5157.5313,178.5469 Q5158.1563,178.5469 5158.75,178.2813 Q5159.3438,178 5159.9688,177.4219 L5159.9688,180.1406 Z " fill="#000000"/><text fill="#000000" font-family="sans-serif" font-size="14" lengthAdjust="spacing" textLength="302.6406" x="5171" y="179.3467">logic_arc_int__baselibs__bit_mask_operator</text><line style="stroke:#181818;stroke-width:0.5;" x1="5143" x2="5475.6406" y1="190.5" y2="190.5"/></g><!--class comp_arc_sta__baselibs__utils--><g id="elem_comp_arc_sta__baselibs__utils"><rect fill="#F1F1F1" height="40" id="comp_arc_sta__baselibs__utils" rx="2.5" ry="2.5" style="stroke:#181818;stroke-width:0.5;" width="242.9502" x="747" y="275.5"/><ellipse cx="762" cy="291.5" fill="#ADD1B2" rx="11" ry="11" style="stroke:#181818;stroke-width:1;"/><path d="M764.9688,297.1406 Q764.3906,297.4375 763.75,297.5781 Q763.1094,297.7344 762.4063,297.7344 Q759.9063,297.7344 758.5781,296.0938 Q757.2656,294.4375 757.2656,291.3125 Q757.2656,288.1875 758.5781,286.5313 Q759.9063,284.875 762.4063,284.875 Q763.1094,284.875 763.75,285.0313 Q764.4063,285.1875 764.9688,285.4844 L764.9688,288.2031 Q764.3438,287.625 763.75,287.3594 Q763.1563,287.0781 762.5313,287.0781 Q761.1875,287.0781 760.5,288.1563 Q759.8125,289.2188 759.8125,291.3125 Q759.8125,293.4063 760.5,294.4844 Q761.1875,295.5469 762.5313,295.5469 Q763.1563,295.5469 763.75,295.2813 Q764.3438,295 764.9688,294.4219 L764.9688,297.1406 Z " fill="#000000"/><text fill="#000000" font-family="sans-serif" font-size="14" lengthAdjust="spacing" textLength="210.9502" x="776" y="296.3467">comp_arc_sta__baselibs__utils</text><line style="stroke:#181818;stroke-width:0.5;" x1="748" x2="988.9502" y1="307.5" y2="307.5"/></g><!--class logic_arc_int__baselibs__synchronized_queue--><g id="elem_logic_arc_int__baselibs__synchronized_queue"><rect fill="#F1F1F1" height="40" id="logic_arc_int__baselibs__synchronized_queue" rx="2.5" ry="2.5" style="stroke:#181818;stroke-width:0.5;" width="348.3604" x="1855.5" y="158.5"/><ellipse cx="1870.5" cy="174.5" fill="#ADD1B2" rx="11" ry="11" style="stroke:#181818;stroke-width:1;"/><path d="M1873.4688,180.1406 Q1872.8906,180.4375 1872.25,180.5781 Q1871.6094,180.7344 1870.9063,180.7344 Q1868.4063,180.7344 1867.0781,179.0938 Q1865.7656,177.4375 1865.7656,174.3125 Q1865.7656,171.1875 1867.0781,169.5313 Q1868.4063,167.875 1870.9063,167.875 Q1871.6094,167.875 1872.25,168.0313 Q1872.9063,168.1875 1873.4688,168.4844 L1873.4688,171.2031 Q1872.8438,170.625 1872.25,170.3594 Q1871.6563,170.0781 1871.0313,170.0781 Q1869.6875,170.0781 1869,171.1563 Q1868.3125,172.2188 1868.3125,174.3125 Q1868.3125,176.4063 1869,177.4844 Q1869.6875,178.5469 1871.0313,178.5469 Q1871.6563,178.5469 1872.25,178.2813 Q1872.8438,178 1873.4688,177.4219 L1873.4688,180.1406 Z " fill="#000000"/><text fill="#000000" font-family="sans-serif" font-size="14" lengthAdjust="spacing" textLength="316.3604" x="1884.5" y="179.3467">logic_arc_int__baselibs__synchronized_queue</text><line style="stroke:#181818;stroke-width:0.5;" x1="1856.5" x2="2202.8604" y1="190.5" y2="190.5"/></g><!--class logic_arc_int__baselibs__task--><g id="elem_logic_arc_int__baselibs__task"><rect fill="#F1F1F1" height="40" id="logic_arc_int__baselibs__task" rx="2.5" ry="2.5" style="stroke:#181818;stroke-width:0.5;" width="234.0156" x="1586.5" y="158.5"/><ellipse cx="1601.5" cy="174.5" fill="#ADD1B2" rx="11" ry="11" style="stroke:#181818;stroke-width:1;"/><path d="M1604.4688,180.1406 Q1603.8906,180.4375 1603.25,180.5781 Q1602.6094,180.7344 1601.9063,180.7344 Q1599.4063,180.7344 1598.0781,179.0938 Q1596.7656,177.4375 1596.7656,174.3125 Q1596.7656,171.1875 1598.0781,169.5313 Q1599.4063,167.875 1601.9063,167.875 Q1602.6094,167.875 1603.25,168.0313 Q1603.9063,168.1875 1604.4688,168.4844 L1604.4688,171.2031 Q1603.8438,170.625 1603.25,170.3594 Q1602.6563,170.0781 1602.0313,170.0781 Q1600.6875,170.0781 1600,171.1563 Q1599.3125,172.2188 1599.3125,174.3125 Q1599.3125,176.4063 1600,177.4844 Q1600.6875,178.5469 1602.0313,178.5469 Q1602.6563,178.5469 1603.25,178.2813 Q1603.8438,178 1604.4688,177.4219 L1604.4688,180.1406 Z " fill="#000000"/><text fill="#000000" font-family="sans-serif" font-size="14" lengthAdjust="spacing" textLength="202.0156" x="1615.5" y="179.3467">logic_arc_int__baselibs__task</text><line style="stroke:#181818;stroke-width:0.5;" x1="1587.5" x2="1819.5156" y1="190.5" y2="190.5"/></g><!--class logic_arc_int__baselibs__result--><g id="elem_logic_arc_int__baselibs__result"><rect fill="#F1F1F1" height="40" id="logic_arc_int__baselibs__result" rx="2.5" ry="2.5" style="stroke:#181818;stroke-width:0.5;" width="244.4609" x="328.5" y="158.5"/><ellipse cx="343.5" cy="174.5" fill="#ADD1B2" rx="11" ry="11" style="stroke:#181818;stroke-width:1;"/><path d="M346.4688,180.1406 Q345.8906,180.4375 345.25,180.5781 Q344.6094,180.7344 343.9063,180.7344 Q341.4063,180.7344 340.0781,179.0938 Q338.7656,177.4375 338.7656,174.3125 Q338.7656,171.1875 340.0781,169.5313 Q341.4063,167.875 343.9063,167.875 Q344.6094,167.875 345.25,168.0313 Q345.9063,168.1875 346.4688,168.4844 L346.4688,171.2031 Q345.8438,170.625 345.25,170.3594 Q344.6563,170.0781 344.0313,170.0781 Q342.6875,170.0781 342,171.1563 Q341.3125,172.2188 341.3125,174.3125 Q341.3125,176.4063 342,177.4844 Q342.6875,178.5469 344.0313,178.5469 Q344.6563,178.5469 345.25,178.2813 Q345.8438,178 346.4688,177.4219 L346.4688,180.1406 Z " fill="#000000"/><text fill="#000000" font-family="sans-serif" font-size="14" lengthAdjust="spacing" textLength="212.4609" x="357.5" y="179.3467">logic_arc_int__baselibs__result</text><line style="stroke:#181818;stroke-width:0.5;" x1="329.5" x2="571.9609" y1="190.5" y2="190.5"/></g><!--class logic_arc_int__baselibs__task_result--><g id="elem_logic_arc_int__baselibs__task_result"><rect fill="#F1F1F1" height="40" id="logic_arc_int__baselibs__task_result" rx="2.5" ry="2.5" style="stroke:#181818;stroke-width:0.5;" width="280.9307" x="2521" y="158.5"/><ellipse cx="2536" cy="174.5" fill="#ADD1B2" rx="11" ry="11" style="stroke:#181818;stroke-width:1;"/><path d="M2538.9688,180.1406 Q2538.3906,180.4375 2537.75,180.5781 Q2537.1094,180.7344 2536.4063,180.7344 Q2533.9063,180.7344 2532.5781,179.0938 Q2531.2656,177.4375 2531.2656,174.3125 Q2531.2656,171.1875 2532.5781,169.5313 Q2533.9063,167.875 2536.4063,167.875 Q2537.1094,167.875 2537.75,168.0313 Q2538.4063,168.1875 2538.9688,168.4844 L2538.9688,171.2031 Q2538.3438,170.625 2537.75,170.3594 Q2537.1563,170.0781 2536.5313,170.0781 Q2535.1875,170.0781 2534.5,171.1563 Q2533.8125,172.2188 2533.8125,174.3125 Q2533.8125,176.4063 2534.5,177.4844 Q2535.1875,178.5469 2536.5313,178.5469 Q2537.1563,178.5469 2537.75,178.2813 Q2538.3438,178 2538.9688,177.4219 L2538.9688,180.1406 Z " fill="#000000"/><text fill="#000000" font-family="sans-serif" font-size="14" lengthAdjust="spacing" textLength="248.9307" x="2550" y="179.3467">logic_arc_int__baselibs__task_result</text><line style="stroke:#181818;stroke-width:0.5;" x1="2522" x2="2800.9307" y1="190.5" y2="190.5"/></g><!--class logic_arc_int__baselibs__condition_variable--><g id="elem_logic_arc_int__baselibs__condition_variable"><rect fill="#F1F1F1" height="40" id="logic_arc_int__baselibs__condition_variable" rx="2.5" ry="2.5" style="stroke:#181818;stroke-width:0.5;" width="332.7539" x="3133" y="158.5"/><ellipse cx="3148" cy="174.5" fill="#ADD1B2" rx="11" ry="11" style="stroke:#181818;stroke-width:1;"/><path d="M3150.9688,180.1406 Q3150.3906,180.4375 3149.75,180.5781 Q3149.1094,180.7344 3148.4063,180.7344 Q3145.9063,180.7344 3144.5781,179.0938 Q3143.2656,177.4375 3143.2656,174.3125 Q3143.2656,171.1875 3144.5781,169.5313 Q3145.9063,167.875 3148.4063,167.875 Q3149.1094,167.875 3149.75,168.0313 Q3150.4063,168.1875 3150.9688,168.4844 L3150.9688,171.2031 Q3150.3438,170.625 3149.75,170.3594 Q3149.1563,170.0781 3148.5313,170.0781 Q3147.1875,170.0781 3146.5,171.1563 Q3145.8125,172.2188 3145.8125,174.3125 Q3145.8125,176.4063 3146.5,177.4844 Q3147.1875,178.5469 3148.5313,178.5469 Q3149.1563,178.5469 3149.75,178.2813 Q3150.3438,178 3150.9688,177.4219 L3150.9688,180.1406 Z " fill="#000000"/><text fill="#000000" font-family="sans-serif" font-size="14" lengthAdjust="spacing" textLength="300.7539" x="3162" y="179.3467">logic_arc_int__baselibs__condition_variable</text><line style="stroke:#181818;stroke-width:0.5;" x1="3134" x2="3464.7539" y1="190.5" y2="190.5"/></g><!--class logic_arc_int__baselibs__dynamic_array--><g id="elem_logic_arc_int__baselibs__dynamic_array"><rect fill="#F1F1F1" height="40" id="logic_arc_int__baselibs__dynamic_array" rx="2.5" ry="2.5" style="stroke:#181818;stroke-width:0.5;" width="308.3496" x="4530.5" y="158.5"/><ellipse cx="4545.5" cy="174.5" fill="#ADD1B2" rx="11" ry="11" style="stroke:#181818;stroke-width:1;"/><path d="M4548.4688,180.1406 Q4547.8906,180.4375 4547.25,180.5781 Q4546.6094,180.7344 4545.9063,180.7344 Q4543.4063,180.7344 4542.0781,179.0938 Q4540.7656,177.4375 4540.7656,174.3125 Q4540.7656,171.1875 4542.0781,169.5313 Q4543.4063,167.875 4545.9063,167.875 Q4546.6094,167.875 4547.25,168.0313 Q4547.9063,168.1875 4548.4688,168.4844 L4548.4688,171.2031 Q4547.8438,170.625 4547.25,170.3594 Q4546.6563,170.0781 4546.0313,170.0781 Q4544.6875,170.0781 4544,171.1563 Q4543.3125,172.2188 4543.3125,174.3125 Q4543.3125,176.4063 4544,177.4844 Q4544.6875,178.5469 4546.0313,178.5469 Q4546.6563,178.5469 4547.25,178.2813 Q4547.8438,178 4548.4688,177.4219 L4548.4688,180.1406 Z " fill="#000000"/><text fill="#000000" font-family="sans-serif" font-size="14" lengthAdjust="spacing" textLength="276.3496" x="4559.5" y="179.3467">logic_arc_int__baselibs__dynamic_array</text><line style="stroke:#181818;stroke-width:0.5;" x1="4531.5" x2="4837.8496" y1="190.5" y2="190.5"/></g><!--class logic_arc_int__baselibs__utils_scoped_op--><g id="elem_logic_arc_int__baselibs__utils_scoped_op"><rect fill="#F1F1F1" height="40" id="logic_arc_int__baselibs__utils_scoped_op" rx="2.5" ry="2.5" style="stroke:#181818;stroke-width:0.5;" width="315.377" x="935" y="158.5"/><ellipse cx="950" cy="174.5" fill="#ADD1B2" rx="11" ry="11" style="stroke:#181818;stroke-width:1;"/><path d="M952.9688,180.1406 Q952.3906,180.4375 951.75,180.5781 Q951.1094,180.7344 950.4063,180.7344 Q947.9063,180.7344 946.5781,179.0938 Q945.2656,177.4375 945.2656,174.3125 Q945.2656,171.1875 946.5781,169.5313 Q947.9063,167.875 950.4063,167.875 Q951.1094,167.875 951.75,168.0313 Q952.4063,168.1875 952.9688,168.4844 L952.9688,171.2031 Q952.3438,170.625 951.75,170.3594 Q951.1563,170.0781 950.5313,170.0781 Q949.1875,170.0781 948.5,171.1563 Q947.8125,172.2188 947.8125,174.3125 Q947.8125,176.4063 948.5,177.4844 Q949.1875,178.5469 950.5313,178.5469 Q951.1563,178.5469 951.75,178.2813 Q952.3438,178 952.9688,177.4219 L952.9688,180.1406 Z " fill="#000000"/><text fill="#000000" font-family="sans-serif" font-size="14" lengthAdjust="spacing" textLength="283.377" x="964" y="179.3467">logic_arc_int__baselibs__utils_scoped_op</text><line style="stroke:#181818;stroke-width:0.5;" x1="936" x2="1249.377" y1="190.5" y2="190.5"/></g><!--class comp_arc_sta__baselibs__result--><g id="elem_comp_arc_sta__baselibs__result"><rect fill="#F1F1F1" height="40" id="comp_arc_sta__baselibs__result" rx="2.5" ry="2.5" style="stroke:#181818;stroke-width:0.5;" width="253.4297" x="327" y="275.5"/><ellipse cx="342" cy="291.5" fill="#ADD1B2" rx="11" ry="11" style="stroke:#181818;stroke-width:1;"/><path d="M344.9688,297.1406 Q344.3906,297.4375 343.75,297.5781 Q343.1094,297.7344 342.4063,297.7344 Q339.9063,297.7344 338.5781,296.0938 Q337.2656,294.4375 337.2656,291.3125 Q337.2656,288.1875 338.5781,286.5313 Q339.9063,284.875 342.4063,284.875 Q343.1094,284.875 343.75,285.0313 Q344.4063,285.1875 344.9688,285.4844 L344.9688,288.2031 Q344.3438,287.625 343.75,287.3594 Q343.1563,287.0781 342.5313,287.0781 Q341.1875,287.0781 340.5,288.1563 Q339.8125,289.2188 339.8125,291.3125 Q339.8125,293.4063 340.5,294.4844 Q341.1875,295.5469 342.5313,295.5469 Q343.1563,295.5469 343.75,295.2813 Q344.3438,295 344.9688,294.4219 L344.9688,297.1406 Z " fill="#000000"/><text fill="#000000" font-family="sans-serif" font-size="14" lengthAdjust="spacing" textLength="221.4297" x="356" y="296.3467">comp_arc_sta__baselibs__result</text><line style="stroke:#181818;stroke-width:0.5;" x1="328" x2="579.4297" y1="307.5" y2="307.5"/></g><!--class comp_arc_sta__baselibs__filesystem--><g id="elem_comp_arc_sta__baselibs__filesystem"><rect fill="#F1F1F1" height="40" id="comp_arc_sta__baselibs__filesystem" rx="2.5" ry="2.5" style="stroke:#181818;stroke-width:0.5;" width="285.4492" x="7" y="275.5"/><ellipse cx="22" cy="291.5" fill="#ADD1B2" rx="11" ry="11" style="stroke:#181818;stroke-width:1;"/><path d="M24.9688,297.1406 Q24.3906,297.4375 23.75,297.5781 Q23.1094,297.7344 22.4063,297.7344 Q19.9063,297.7344 18.5781,296.0938 Q17.2656,294.4375 17.2656,291.3125 Q17.2656,288.1875 18.5781,286.5313 Q19.9063,284.875 22.4063,284.875 Q23.1094,284.875 23.75,285.0313 Q24.4063,285.1875 24.9688,285.4844 L24.9688,288.2031 Q24.3438,287.625 23.75,287.3594 Q23.1563,287.0781 22.5313,287.0781 Q21.1875,287.0781 20.5,288.1563 Q19.8125,289.2188 19.8125,291.3125 Q19.8125,293.4063 20.5,294.4844 Q21.1875,295.5469 22.5313,295.5469 Q23.1563,295.5469 23.75,295.2813 Q24.3438,295 24.9688,294.4219 L24.9688,297.1406 Z " fill="#000000"/><text fill="#000000" font-family="sans-serif" font-size="14" lengthAdjust="spacing" textLength="253.4492" x="36" y="296.3467">comp_arc_sta__baselibs__filesystem</text><line style="stroke:#181818;stroke-width:0.5;" x1="8" x2="291.4492" y1="307.5" y2="307.5"/></g><!--link Feature_User to logic_arc_int__baselibs__promise--><g id="link_Feature_User_logic_arc_int__baselibs__promise"><path codeLine="14" d="M2967.5,81.55 C2967.5,106.45 2967.5,132.26 2967.5,152.26 " fill="transparent" id="Feature_User-to-logic_arc_int__baselibs__promise" style="stroke:#181818;stroke-width:1;"/><polygon fill="#181818" points="2967.5,158.26,2971.5,149.26,2967.5,153.26,2963.5,149.26,2967.5,158.26" style="stroke:#181818;stroke-width:1;"/><text fill="#000000" font-family="sans-serif" font-size="13" lengthAdjust="spacing" textLength="23.0103" x="2968.5" y="124.5669">use</text></g><!--reverse link logic_arc_int__baselibs__future to comp_arc_sta__baselibs__concurrency--><g id="link_logic_arc_int__baselibs__future_comp_arc_sta__baselibs__concurrency"><path codeLine="16" d="M2388.2071,202.7778 C2411.6471,224.0078 2444.7,253.94 2468.17,275.19 " fill="transparent" id="logic_arc_int__baselibs__future-backto-comp_arc_sta__baselibs__concurrency" style="stroke:#181818;stroke-width:1;"/><polygon fill="#181818" points="2383.76,198.75,2387.7454,207.7565,2387.4659,202.1065,2393.1159,201.827,2383.76,198.75" style="stroke:#181818;stroke-width:1;"/><text fill="#000000" font-family="sans-serif" font-size="13" lengthAdjust="spacing" textLength="76.9082" x="2435.5" y="241.5669">implements</text></g><!--link Feature_User to logic_arc_int__baselibs__memory_shared--><g id="link_Feature_User_logic_arc_int__baselibs__memory_shared"><path codeLine="17" d="M3012.64,45.3 C3240.35,49.47 4285.67,70.08 5140.5,111.5 C5456.82,126.83 5535.99,131.15 5851.5,158.5 C5857.35,159.01 5857.3359,158.9833 5863.3459,159.5433 " fill="transparent" id="Feature_User-to-logic_arc_int__baselibs__memory_shared" style="stroke:#181818;stroke-width:1;"/><polygon fill="#181818" points="5869.32,160.1,5860.7299,155.2823,5864.3416,159.6361,5859.9877,163.2478,5869.32,160.1" style="stroke:#181818;stroke-width:1;"/><text fill="#000000" font-family="sans-serif" font-size="13" lengthAdjust="spacing" textLength="23.0103" x="5462.5" y="124.5669">use</text></g><!--link Feature_User to logic_arc_int__baselibs__future--><g id="link_Feature_User_logic_arc_int__baselibs__future"><path codeLine="18" d="M2922.03,54.5 C2821.59,76.58 2585.2702,128.5322 2454.9002,157.1822 " fill="transparent" id="Feature_User-to-logic_arc_int__baselibs__future" style="stroke:#181818;stroke-width:1;"/><polygon fill="#181818" points="2449.04,158.47,2458.6888,160.445,2453.9235,157.3968,2456.9717,152.6315,2449.04,158.47" style="stroke:#181818;stroke-width:1;"/><text fill="#000000" font-family="sans-serif" font-size="13" lengthAdjust="spacing" textLength="23.0103" x="2648.5" y="124.5669">use</text></g><!--link Feature_User to logic_arc_int__baselibs__shared_future--><g id="link_Feature_User_logic_arc_int__baselibs__shared_future"><path codeLine="19" d="M3012.71,53.28 C3122.31,74.56 3398.3,128.1463 3548.68,157.3463 " fill="transparent" id="Feature_User-to-logic_arc_int__baselibs__shared_future" style="stroke:#181818;stroke-width:1;"/><polygon fill="#181818" points="3554.57,158.49,3546.4975,152.8478,3549.6617,157.5369,3544.9726,160.7011,3554.57,158.49" style="stroke:#181818;stroke-width:1;"/><text fill="#000000" font-family="sans-serif" font-size="13" lengthAdjust="spacing" textLength="23.0103" x="3392.5" y="124.5669">use</text></g><!--reverse link logic_arc_int__baselibs__intrusive_list to comp_arc_sta__baselibs__containers--><g id="link_logic_arc_int__baselibs__intrusive_list_comp_arc_sta__baselibs__containers"><path codeLine="20" d="M4371.8035,203.0117 C4392.8435,224.2417 4422.29,253.94 4443.36,275.19 " fill="transparent" id="logic_arc_int__baselibs__intrusive_list-backto-comp_arc_sta__baselibs__containers" style="stroke:#181818;stroke-width:1;"/><polygon fill="#181818" points="4367.58,198.75,4371.0742,207.9582,4371.0996,202.3014,4376.7564,202.3268,4367.58,198.75" style="stroke:#181818;stroke-width:1;"/><text fill="#000000" font-family="sans-serif" font-size="13" lengthAdjust="spacing" textLength="76.9082" x="4413.5" y="241.5669">implements</text></g><!--link Feature_User to logic_arc_int__baselibs__bit_manipulation--><g id="link_Feature_User_logic_arc_int__baselibs__bit_manipulation"><path codeLine="21" d="M3012.77,45.61 C3219.43,50.77 4093.89,73.86 4810.5,111.5 C5114.8,127.48 5190.94,131.97 5494.5,158.5 C5500.26,159 5500.1457,158.975 5506.0657,159.525 " fill="transparent" id="Feature_User-to-logic_arc_int__baselibs__bit_manipulation" style="stroke:#181818;stroke-width:1;"/><polygon fill="#181818" points="5512.04,160.08,5503.4486,155.2646,5507.0614,159.6175,5502.7086,163.2303,5512.04,160.08" style="stroke:#181818;stroke-width:1;"/><text fill="#000000" font-family="sans-serif" font-size="13" lengthAdjust="spacing" textLength="23.0103" x="5108.5" y="124.5669">use</text></g><!--reverse link logic_arc_int__baselibs__bit_manipulation to comp_arc_sta__baselibs__bit_manipulation--><g id="link_logic_arc_int__baselibs__bit_manipulation_comp_arc_sta__baselibs__bit_manipulation"><path codeLine="22" d="M5632.9118,201.6215 C5593.8518,222.9115 5536.55,254.14 5497.58,275.38 " fill="transparent" id="logic_arc_int__baselibs__bit_manipulation-backto-comp_arc_sta__baselibs__bit_manipulation" style="stroke:#181818;stroke-width:1;"/><polygon fill="#181818" points="5638.18,198.75,5628.3633,199.5451,5633.7898,201.1429,5632.192,206.5694,5638.18,198.75" style="stroke:#181818;stroke-width:1;"/><text fill="#000000" font-family="sans-serif" font-size="13" lengthAdjust="spacing" textLength="76.9082" x="5582.5" y="241.5669">implements</text></g><!--reverse link logic_arc_int__baselibs__executor to comp_arc_sta__baselibs__concurrency--><g id="link_logic_arc_int__baselibs__executor_comp_arc_sta__baselibs__concurrency"><path codeLine="23" d="M1557.763,197.1594 C1563.403,197.8694 1563.03,197.82 1568.5,198.5 C1738.68,219.72 1780.97,227.28 1951.5,245.5 C2082.29,259.48 2231.25,272.85 2339.22,282.08 " fill="transparent" id="logic_arc_int__baselibs__executor-backto-comp_arc_sta__baselibs__concurrency" style="stroke:#181818;stroke-width:1;"/><polygon fill="#181818" points="1551.81,196.41,1560.2399,201.5028,1556.7708,197.0345,1561.2391,193.5654,1551.81,196.41" style="stroke:#181818;stroke-width:1;"/><text fill="#000000" font-family="sans-serif" font-size="13" lengthAdjust="spacing" textLength="76.9082" x="1952.5" y="241.5669">implements</text></g><!--link Feature_User to logic_arc_int__baselibs__message_passing--><g id="link_Feature_User_logic_arc_int__baselibs__message_passing"><path codeLine="24" d="M3012.64,50.3 C3157.57,68.92 3609.6089,127.0152 3848.4189,157.7052 " fill="transparent" id="Feature_User-to-logic_arc_int__baselibs__message_passing" style="stroke:#181818;stroke-width:1;"/><polygon fill="#181818" points="3854.37,158.47,3845.9533,153.3555,3849.4108,157.8327,3844.9336,161.2902,3854.37,158.47" style="stroke:#181818;stroke-width:1;"/><text fill="#000000" font-family="sans-serif" font-size="13" lengthAdjust="spacing" textLength="23.0103" x="3609.5" y="124.5669">use</text></g><!--link Feature_User to logic_arc_int__baselibs__utils_base64--><g id="link_Feature_User_logic_arc_int__baselibs__utils_base64"><path codeLine="25" d="M2922.33,45.8 C2702.11,52.39 1719.25,84.75 917.5,158.5 C911.65,159.04 911.6504,159.0149 905.6304,159.6149 " fill="transparent" id="Feature_User-to-logic_arc_int__baselibs__utils_base64" style="stroke:#181818;stroke-width:1;"/><polygon fill="#181818" points="899.66,160.21,909.0123,163.2977,904.6353,159.7141,908.2189,155.3371,899.66,160.21" style="stroke:#181818;stroke-width:1;"/><text fill="#000000" font-family="sans-serif" font-size="13" lengthAdjust="spacing" textLength="23.0103" x="1481.5" y="124.5669">use</text></g><!--reverse link logic_arc_int__baselibs__memory_shared to comp_arc_sta__baselibs__memory_shared--><g id="link_logic_arc_int__baselibs__memory_shared_comp_arc_sta__baselibs__memory_shared"><path codeLine="26" d="M6028.5,204.75 C6028.5,225.98 6028.5,253.94 6028.5,275.19 " fill="transparent" id="logic_arc_int__baselibs__memory_shared-backto-comp_arc_sta__baselibs__memory_shared" style="stroke:#181818;stroke-width:1;"/><polygon fill="#181818" points="6028.5,198.75,6024.5,207.75,6028.5,203.75,6032.5,207.75,6028.5,198.75" style="stroke:#181818;stroke-width:1;"/><text fill="#000000" font-family="sans-serif" font-size="13" lengthAdjust="spacing" textLength="76.9082" x="6029.5" y="241.5669">implements</text></g><!--reverse link logic_arc_int__baselibs__json to comp_arc_sta__baselibs__json--><g id="link_logic_arc_int__baselibs__json_comp_arc_sta__baselibs__json"><path codeLine="27" d="M4990.5,204.75 C4990.5,225.98 4990.5,253.94 4990.5,275.19 " fill="transparent" id="logic_arc_int__baselibs__json-backto-comp_arc_sta__baselibs__json" style="stroke:#181818;stroke-width:1;"/><polygon fill="#181818" points="4990.5,198.75,4986.5,207.75,4990.5,203.75,4994.5,207.75,4990.5,198.75" style="stroke:#181818;stroke-width:1;"/><text fill="#000000" font-family="sans-serif" font-size="13" lengthAdjust="spacing" textLength="76.9082" x="4991.5" y="241.5669">implements</text></g><!--reverse link logic_arc_int__baselibs__promise to comp_arc_sta__baselibs__concurrency--><g id="link_logic_arc_int__baselibs__promise_comp_arc_sta__baselibs__concurrency"><path codeLine="28" d="M2882.4665,199.9537 C2793.9865,221.2437 2657.4,254.11 2568.85,275.41 " fill="transparent" id="logic_arc_int__baselibs__promise-backto-comp_arc_sta__baselibs__concurrency" style="stroke:#181818;stroke-width:1;"/><polygon fill="#181818" points="2888.3,198.55,2878.614,196.7665,2883.4387,199.7197,2880.4855,204.5445,2888.3,198.55" style="stroke:#181818;stroke-width:1;"/><text fill="#000000" font-family="sans-serif" font-size="13" lengthAdjust="spacing" textLength="76.9082" x="2758.5" y="241.5669">implements</text></g><!--link Feature_User to logic_arc_int__baselibs__filesystem--><g id="link_Feature_User_logic_arc_int__baselibs__filesystem"><path codeLine="29" d="M2922.15,45.25 C2702.13,49.05 1723.83,67.72 923.5,111.5 C650.66,126.42 582.42,131.63 310.5,158.5 C304.35,159.11 304.0358,159.1101 297.6958,159.7901 " fill="transparent" id="Feature_User-to-logic_arc_int__baselibs__filesystem" style="stroke:#181818;stroke-width:1;"/><polygon fill="#181818" points="291.73,160.43,301.1053,163.4474,296.7015,159.8968,300.2521,155.493,291.73,160.43" style="stroke:#181818;stroke-width:1;"/><text fill="#000000" font-family="sans-serif" font-size="13" lengthAdjust="spacing" textLength="23.0103" x="924.5" y="124.5669">use</text></g><!--reverse link logic_arc_int__baselibs__message_passing to comp_arc_sta__baselibs__message_passing--><g id="link_logic_arc_int__baselibs__message_passing_comp_arc_sta__baselibs__message_passing"><path codeLine="30" d="M4002.5,204.75 C4002.5,225.98 4002.5,253.94 4002.5,275.19 " fill="transparent" id="logic_arc_int__baselibs__message_passing-backto-comp_arc_sta__baselibs__message_passing" style="stroke:#181818;stroke-width:1;"/><polygon fill="#181818" points="4002.5,198.75,3998.5,207.75,4002.5,203.75,4006.5,207.75,4002.5,198.75" style="stroke:#181818;stroke-width:1;"/><text fill="#000000" font-family="sans-serif" font-size="13" lengthAdjust="spacing" textLength="76.9082" x="4003.5" y="241.5669">implements</text></g><!--reverse link logic_arc_int__baselibs__bit_mask_operator to comp_arc_sta__baselibs__bit_manipulation--><g id="link_logic_arc_int__baselibs__bit_mask_operator_comp_arc_sta__baselibs__bit_manipulation"><path codeLine="31" d="M5339.9065,202.3546 C5368.2365,223.6446 5408.8,254.14 5437.06,275.38 " fill="transparent" id="logic_arc_int__baselibs__bit_mask_operator-backto-comp_arc_sta__baselibs__bit_manipulation" style="stroke:#181818;stroke-width:1;"/><polygon fill="#181818" points="5335.11,198.75,5339.9017,207.3546,5339.1071,201.7538,5344.7079,200.9592,5335.11,198.75" style="stroke:#181818;stroke-width:1;"/><text fill="#000000" font-family="sans-serif" font-size="13" lengthAdjust="spacing" textLength="76.9082" x="5396.5" y="241.5669">implements</text></g><!--reverse link logic_arc_int__baselibs__utils_base64 to comp_arc_sta__baselibs__utils--><g id="link_logic_arc_int__baselibs__utils_base64_comp_arc_sta__baselibs__utils"><path codeLine="32" d="M776.9926,202.9926 C798.2226,224.2226 827.94,253.94 849.19,275.19 " fill="transparent" id="logic_arc_int__baselibs__utils_base64-backto-comp_arc_sta__baselibs__utils" style="stroke:#181818;stroke-width:1;"/><polygon fill="#181818" points="772.75,198.75,776.2855,207.9424,776.2855,202.2855,781.9424,202.2855,772.75,198.75" style="stroke:#181818;stroke-width:1;"/><text fill="#000000" font-family="sans-serif" font-size="13" lengthAdjust="spacing" textLength="76.9082" x="819.5" y="241.5669">implements</text></g><!--link Feature_User to logic_arc_int__baselibs__synchronized_queue--><g id="link_Feature_User_logic_arc_int__baselibs__synchronized_queue"><path codeLine="33" d="M2922.26,50.91 C2786.31,70.19 2383.5706,127.2977 2169.5106,157.6477 " fill="transparent" id="Feature_User-to-logic_arc_int__baselibs__synchronized_queue" style="stroke:#181818;stroke-width:1;"/><polygon fill="#181818" points="2163.57,158.49,2173.0424,161.187,2168.5205,157.7881,2171.9194,153.2662,2163.57,158.49" style="stroke:#181818;stroke-width:1;"/><text fill="#000000" font-family="sans-serif" font-size="13" lengthAdjust="spacing" textLength="23.0103" x="2471.5" y="124.5669">use</text></g><!--reverse link logic_arc_int__baselibs__task to comp_arc_sta__baselibs__concurrency--><g id="link_logic_arc_int__baselibs__task_comp_arc_sta__baselibs__concurrency"><path codeLine="34" d="M1826.4635,198.0211 C1915.7535,211.4311 2035.89,229.36 2146.5,245.5 C2215.25,255.53 2291.78,266.49 2355.08,275.49 " fill="transparent" id="logic_arc_int__baselibs__task-backto-comp_arc_sta__baselibs__concurrency" style="stroke:#181818;stroke-width:1;"/><polygon fill="#181818" points="1820.53,197.13,1828.8361,202.4223,1825.4745,197.8726,1830.0243,194.511,1820.53,197.13" style="stroke:#181818;stroke-width:1;"/><text fill="#000000" font-family="sans-serif" font-size="13" lengthAdjust="spacing" textLength="76.9082" x="2147.5" y="241.5669">implements</text></g><!--link Feature_User to logic_arc_int__baselibs__result--><g id="link_Feature_User_logic_arc_int__baselibs__result"><path codeLine="35" d="M2922.4,45.81 C2726.52,51.61 1930,76.21 1276.5,111.5 C970.9,128 893.95,127.31 589.5,158.5 C584.05,159.06 584.4415,158.9911 578.8215,159.6311 " fill="transparent" id="Feature_User-to-logic_arc_int__baselibs__result" style="stroke:#181818;stroke-width:1;"/><polygon fill="#181818" points="572.86,160.31,582.2548,163.266,577.8279,159.7443,581.3496,155.3174,572.86,160.31" style="stroke:#181818;stroke-width:1;"/><text fill="#000000" font-family="sans-serif" font-size="13" lengthAdjust="spacing" textLength="23.0103" x="1277.5" y="124.5669">use</text></g><!--link Feature_User to logic_arc_int__baselibs__task--><g id="link_Feature_User_logic_arc_int__baselibs__task"><path codeLine="36" d="M2922.48,48.38 C2769.93,61.69 2258.59,107.43 1837.5,158.5 C1832.02,159.16 1832.3605,159.1012 1826.7105,159.8312 " fill="transparent" id="Feature_User-to-logic_arc_int__baselibs__task" style="stroke:#181818;stroke-width:1;"/><polygon fill="#181818" points="1820.76,160.6,1830.1984,163.4138,1825.7188,159.9593,1829.1733,155.4797,1820.76,160.6" style="stroke:#181818;stroke-width:1;"/><text fill="#000000" font-family="sans-serif" font-size="13" lengthAdjust="spacing" textLength="23.0103" x="2242.5" y="124.5669">use</text></g><!--link Feature_User to logic_arc_int__baselibs__json--><g id="link_Feature_User_logic_arc_int__baselibs__json"><path codeLine="37" d="M3012.57,45.77 C3222.1,51.99 4121.86,82.02 4855.5,158.5 C4861.5,159.13 4861.6912,159.1184 4867.8912,159.8484 " fill="transparent" id="Feature_User-to-logic_arc_int__baselibs__json" style="stroke:#181818;stroke-width:1;"/><polygon fill="#181818" points="4873.85,160.55,4865.3795,155.525,4868.8843,159.9653,4864.444,163.4702,4873.85,160.55" style="stroke:#181818;stroke-width:1;"/><text fill="#000000" font-family="sans-serif" font-size="13" lengthAdjust="spacing" textLength="23.0103" x="4496.5" y="124.5669">use</text></g><!--link Feature_User to logic_arc_int__baselibs__intrusive_list--><g id="link_Feature_User_logic_arc_int__baselibs__intrusive_list"><path codeLine="38" d="M3012.53,48.37 C3172.26,62.19 3726.66,110.79 4183.5,158.5 C4189.52,159.13 4189.7047,159.1354 4195.9047,159.8054 " fill="transparent" id="Feature_User-to-logic_arc_int__baselibs__intrusive_list" style="stroke:#181818;stroke-width:1;"/><polygon fill="#181818" points="4201.87,160.45,4193.3519,155.5062,4196.8989,159.9128,4192.4923,163.4599,4201.87,160.45" style="stroke:#181818;stroke-width:1;"/><text fill="#000000" font-family="sans-serif" font-size="13" lengthAdjust="spacing" textLength="23.0103" x="3884.5" y="124.5669">use</text></g><!--link Feature_User to logic_arc_int__baselibs__task_result--><g id="link_Feature_User_logic_arc_int__baselibs__task_result"><path codeLine="39" d="M2922.35,64.12 C2864,89.49 2768.5628,130.9685 2710.8528,156.0485 " fill="transparent" id="Feature_User-to-logic_arc_int__baselibs__task_result" style="stroke:#181818;stroke-width:1;"/><polygon fill="#181818" points="2705.35,158.44,2715.1985,158.5214,2709.9357,156.4471,2712.0099,151.1843,2705.35,158.44" style="stroke:#181818;stroke-width:1;"/><text fill="#000000" font-family="sans-serif" font-size="13" lengthAdjust="spacing" textLength="23.0103" x="2806.5" y="124.5669">use</text></g><!--link Feature_User to logic_arc_int__baselibs__condition_variable--><g id="link_Feature_User_logic_arc_int__baselibs__condition_variable"><path codeLine="40" d="M3012.62,62.58 C3075.29,87.68 3182.6106,130.668 3246.4906,156.268 " fill="transparent" id="Feature_User-to-logic_arc_int__baselibs__condition_variable" style="stroke:#181818;stroke-width:1;"/><polygon fill="#181818" points="3252.06,158.5,3245.1938,151.4391,3247.4188,156.64,3242.2179,158.865,3252.06,158.5" style="stroke:#181818;stroke-width:1;"/><text fill="#000000" font-family="sans-serif" font-size="13" lengthAdjust="spacing" textLength="23.0103" x="3174.5" y="124.5669">use</text></g><!--reverse link logic_arc_int__baselibs__dynamic_array to comp_arc_sta__baselibs__containers--><g id="link_logic_arc_int__baselibs__dynamic_array_comp_arc_sta__baselibs__containers"><path codeLine="41" d="M4642.2627,201.3803 C4601.2127,222.6503 4540.59,254.05 4499.5,275.34 " fill="transparent" id="logic_arc_int__baselibs__dynamic_array-backto-comp_arc_sta__baselibs__containers" style="stroke:#181818;stroke-width:1;"/><polygon fill="#181818" points="4647.59,198.62,4637.7588,199.209,4643.1506,200.9203,4641.4392,206.3121,4647.59,198.62" style="stroke:#181818;stroke-width:1;"/><text fill="#000000" font-family="sans-serif" font-size="13" lengthAdjust="spacing" textLength="76.9082" x="4588.5" y="241.5669">implements</text></g><!--reverse link logic_arc_int__baselibs__condition_variable to comp_arc_sta__baselibs__concurrency--><g id="link_logic_arc_int__baselibs__condition_variable_comp_arc_sta__baselibs__concurrency"><path codeLine="42" d="M3163.3728,199.4259 C3072.1828,212.7259 2953.39,229.94 2843.5,245.5 C2772.55,255.55 2693.56,266.5 2628.23,275.5 " fill="transparent" id="logic_arc_int__baselibs__condition_variable-backto-comp_arc_sta__baselibs__concurrency" style="stroke:#181818;stroke-width:1;"/><polygon fill="#181818" points="3169.31,198.56,3159.8269,195.9008,3164.3623,199.2816,3160.9815,203.817,3169.31,198.56" style="stroke:#181818;stroke-width:1;"/><text fill="#000000" font-family="sans-serif" font-size="13" lengthAdjust="spacing" textLength="76.9082" x="2957.5" y="241.5669">implements</text></g><!--reverse link logic_arc_int__baselibs__task_result to comp_arc_sta__baselibs__concurrency--><g id="link_logic_arc_int__baselibs__task_result_comp_arc_sta__baselibs__concurrency"><path codeLine="43" d="M2627.7223,202.0851 C2595.8823,223.3751 2549.86,254.14 2518.1,275.38 " fill="transparent" id="logic_arc_int__baselibs__task_result-backto-comp_arc_sta__baselibs__concurrency" style="stroke:#181818;stroke-width:1;"/><polygon fill="#181818" points="2632.71,198.75,2623.005,200.4275,2628.5536,201.5292,2627.4518,207.0777,2632.71,198.75" style="stroke:#181818;stroke-width:1;"/><text fill="#000000" font-family="sans-serif" font-size="13" lengthAdjust="spacing" textLength="76.9082" x="2587.5" y="241.5669">implements</text></g><!--link Feature_User to logic_arc_int__baselibs__utils_scoped_op--><g id="link_Feature_User_logic_arc_int__baselibs__utils_scoped_op"><path codeLine="44" d="M2922.44,46.6 C2725.87,55.93 1923.8,96.06 1267.5,158.5 C1261.87,159.04 1262.11,158.9909 1256.33,159.5709 " fill="transparent" id="Feature_User-to-logic_arc_int__baselibs__utils_scoped_op" style="stroke:#181818;stroke-width:1;"/><polygon fill="#181818" points="1250.36,160.17,1259.7144,163.2514,1255.335,159.6708,1258.9156,155.2914,1250.36,160.17" style="stroke:#181818;stroke-width:1;"/><text fill="#000000" font-family="sans-serif" font-size="13" lengthAdjust="spacing" textLength="23.0103" x="1829.5" y="124.5669">use</text></g><!--reverse link logic_arc_int__baselibs__utils_scoped_op to comp_arc_sta__baselibs__utils--><g id="link_logic_arc_int__baselibs__utils_scoped_op_comp_arc_sta__baselibs__utils"><path codeLine="45" d="M1049.9223,201.3603 C1008.4923,222.6303 947.29,254.05 905.83,275.34 " fill="transparent" id="logic_arc_int__baselibs__utils_scoped_op-backto-comp_arc_sta__baselibs__utils" style="stroke:#181818;stroke-width:1;"/><polygon fill="#181818" points="1055.26,198.62,1045.4266,199.1721,1050.812,200.9036,1049.0804,206.2889,1055.26,198.62" style="stroke:#181818;stroke-width:1;"/><text fill="#000000" font-family="sans-serif" font-size="13" lengthAdjust="spacing" textLength="76.9082" x="995.5" y="241.5669">implements</text></g><!--reverse link logic_arc_int__baselibs__result to comp_arc_sta__baselibs__result--><g id="link_logic_arc_int__baselibs__result_comp_arc_sta__baselibs__result"><path codeLine="46" d="M451.1582,204.7479 C451.7182,225.9779 452.44,253.94 453,275.19 " fill="transparent" id="logic_arc_int__baselibs__result-backto-comp_arc_sta__baselibs__result" style="stroke:#181818;stroke-width:1;"/><polygon fill="#181818" points="451,198.75,447.2387,207.8523,451.1318,203.7483,455.2359,207.6414,451,198.75" style="stroke:#181818;stroke-width:1;"/><text fill="#000000" font-family="sans-serif" font-size="13" lengthAdjust="spacing" textLength="76.9082" x="453.5" y="241.5669">implements</text></g><!--reverse link logic_arc_int__baselibs__synchronized_queue to comp_arc_sta__baselibs__concurrency--><g id="link_logic_arc_int__baselibs__synchronized_queue_comp_arc_sta__baselibs__concurrency"><path codeLine="47" d="M2111.5408,200.0054 C2196.6908,221.2954 2327.92,254.11 2413.13,275.41 " fill="transparent" id="logic_arc_int__baselibs__synchronized_queue-backto-comp_arc_sta__baselibs__concurrency" style="stroke:#181818;stroke-width:1;"/><polygon fill="#181818" points="2105.72,198.55,2113.481,204.6136,2110.5707,199.7628,2115.4215,196.8525,2105.72,198.55" style="stroke:#181818;stroke-width:1;"/><text fill="#000000" font-family="sans-serif" font-size="13" lengthAdjust="spacing" textLength="76.9082" x="2288.5" y="241.5669">implements</text></g><!--link Feature_User to logic_arc_int__baselibs__bit_mask_operator--><g id="link_Feature_User_logic_arc_int__baselibs__bit_mask_operator"><path codeLine="48" d="M3012.55,45.84 C3199.07,51.53 3929.12,75.02 4528.5,111.5 C4793.72,127.64 4859.88,134.48 5124.5,158.5 C5130.13,159.01 5129.876,158.9819 5135.656,159.5219 " fill="transparent" id="Feature_User-to-logic_arc_int__baselibs__bit_mask_operator" style="stroke:#181818;stroke-width:1;"/><polygon fill="#181818" points="5141.63,160.08,5133.0411,155.2602,5136.6517,159.6149,5132.2969,163.2255,5141.63,160.08" style="stroke:#181818;stroke-width:1;"/><text fill="#000000" font-family="sans-serif" font-size="13" lengthAdjust="spacing" textLength="23.0103" x="4778.5" y="124.5669">use</text></g><!--reverse link logic_arc_int__baselibs__shared_future to comp_arc_sta__baselibs__concurrency--><g id="link_logic_arc_int__baselibs__shared_future_comp_arc_sta__baselibs__concurrency"><path codeLine="49" d="M3495.4365,197.1904 C3489.3865,197.8604 3489.37,197.86 3483.5,198.5 C3287.56,219.96 3238.68,226.36 3042.5,245.5 C2906.28,258.79 2751.04,272.41 2639.78,281.91 " fill="transparent" id="logic_arc_int__baselibs__shared_future-backto-comp_arc_sta__baselibs__concurrency" style="stroke:#181818;stroke-width:1;"/><polygon fill="#181818" points="3501.4,196.53,3492.0144,193.5449,3496.4304,197.0804,3492.895,201.4963,3501.4,196.53" style="stroke:#181818;stroke-width:1;"/><text fill="#000000" font-family="sans-serif" font-size="13" lengthAdjust="spacing" textLength="76.9082" x="3204.5" y="241.5669">implements</text></g><!--link Feature_User to logic_arc_int__baselibs__executor--><g id="link_Feature_User_logic_arc_int__baselibs__executor"><path codeLine="50" d="M2922.42,47.28 C2747.9,58.22 2099.94,100.61 1568.5,158.5 C1563.02,159.1 1563.3907,159.0343 1557.7407,159.6843 " fill="transparent" id="Feature_User-to-logic_arc_int__baselibs__executor" style="stroke:#181818;stroke-width:1;"/><polygon fill="#181818" points="1551.78,160.37,1561.1782,163.3152,1556.7472,159.7985,1560.2639,155.3676,1551.78,160.37" style="stroke:#181818;stroke-width:1;"/><text fill="#000000" font-family="sans-serif" font-size="13" lengthAdjust="spacing" textLength="23.0103" x="2030.5" y="124.5669">use</text></g><!--link Feature_User to logic_arc_int__baselibs__dynamic_array--><g id="link_Feature_User_logic_arc_int__baselibs__dynamic_array"><path codeLine="51" d="M3012.74,47.15 C3198.46,58.18 3920.41,102.47 4512.5,158.5 C4518.33,159.05 4518.2998,159.033 4524.2998,159.633 " fill="transparent" id="Feature_User-to-logic_arc_int__baselibs__dynamic_array" style="stroke:#181818;stroke-width:1;"/><polygon fill="#181818" points="4530.27,160.23,4521.7127,155.3543,4525.2948,159.7325,4520.9167,163.3146,4530.27,160.23" style="stroke:#181818;stroke-width:1;"/><text fill="#000000" font-family="sans-serif" font-size="13" lengthAdjust="spacing" textLength="23.0103" x="4132.5" y="124.5669">use</text></g><!--reverse link logic_arc_int__baselibs__filesystem to comp_arc_sta__baselibs__filesystem--><g id="link_logic_arc_int__baselibs__filesystem_comp_arc_sta__baselibs__filesystem"><path codeLine="52" d="M152.621,204.7464 C151.881,225.9764 150.91,253.94 150.17,275.19 " fill="transparent" id="logic_arc_int__baselibs__filesystem-backto-comp_arc_sta__baselibs__filesystem" style="stroke:#181818;stroke-width:1;"/><polygon fill="#181818" points="152.83,198.75,148.5189,207.6052,152.6558,203.747,156.5141,207.8839,152.83,198.75" style="stroke:#181818;stroke-width:1;"/><text fill="#000000" font-family="sans-serif" font-size="13" lengthAdjust="spacing" textLength="76.9082" x="153.5" y="241.5669">implements</text></g><!--SRC=[hLPBRzim3BxhLmYzfnk6OeUYw6N0JZkkPq6MsOIh7fv8TVM6_VSfSRRQRXRPZe-q-VpuaQAsDlnG3b_GRmM7HdAGLM0EJjOOmJ06BtPOWoI6287R1ZePNCEjrCmHgyH0uewujN0lhZMXhUGlyGKzV0esH1cXFaXVTsYUF1393zVlnMznz-ve8xJXh7Vr6JId2FA185v9JVBuGUq_I36GDlNcNjgmHQDqD0ezArLf0eiLATN4u93WLYO2AOG9hZce4Uk-cWdUf1Z1crPkqZc7ZsaV-bQYQomuy4opyd7WGcmLxNG6uvZL3FE_qUVQTV66vcUmO9sx5Aa0HHPZ8dm6PP5uCIGLidBQOvEitlEiaDvOlP3aM-_zD2_d0xo0IPcq5p22I6z1DPeeJz_ytYP6ImVvuqq1km7x2eMDc3e5jMzKRCTUPUqM_9lnXHruH0lKviNcYl0DMbK4SDJOALKlOZSzgT10r6ze-Bye1yeKN0zfjH1QQhtPnU3nPzu-tnEa2SjdOjSvbxquhmYKBC-VjIxeNAkEz7EjnkjrIQwB2yrzg75FGFMi8-hAhlPgrAtNxl0hwdRjLN0gxNKZ351ToBvkjCZaeQtpv1QGdJwiFOzJYkwgA7W-LUhbA9xQ2nUT3uCLkDA66HrD2_DxFH3cpk1eKivMzVg6bUxNtcFNh-WF]--></g></svg>