<svg xmlns="http://www.w3.org/2000/svg" xmlns:xlink="http://www.w3.org/1999/xlink" contentStyleType="text/css" data-diagram-type="ACTIVITY" height="460px" preserveAspectRatio="none" style="width:462px;height:460px;background:#FFFFFF;" version="1.1" viewBox="0 0 462 460" width="462px" zoomAndPan="magnify"><title>State Diagram: Work Package Workflow</title><defs/><g><text fill="#000000" font-family="sans-serif" font-size="14" font-weight="bold" lengthAdjust="spacing" textLength="316.6064" x="65.6968" y="22.9951">State Diagram: Work Package Workflow</text><ellipse cx="315" cy="53.2969" fill="#222222" rx="10" ry="10" style="stroke:#222222;stroke-width:1;"/><rect fill="#F1F1F1" height="33.9688" rx="12.5" ry="12.5" style="stroke:#181818;stroke-width:0.5;" width="46.1738" x="292" y="103.2969"/><text fill="#000000" font-family="sans-serif" font-size="12" lengthAdjust="spacing" textLength="26.1738" x="302" y="124.4355">New</text><rect fill="#F1F1F1" height="33.9688" rx="12.5" ry="12.5" style="stroke:#181818;stroke-width:0.5;" width="67.2852" x="304.5" y="261.7969"/><text fill="#000000" font-family="sans-serif" font-size="12" lengthAdjust="spacing" textLength="47.2852" x="314.5" y="282.9355">Analyze</text><rect fill="#F1F1F1" height="33.9688" rx="12.5" ry="12.5" style="stroke:#181818;stroke-width:0.5;" width="67.4551" x="291.5" y="420.2969"/><text fill="#000000" font-family="sans-serif" font-size="12" lengthAdjust="spacing" textLength="47.4551" x="301.5" y="441.4355">Blocked</text><rect fill="#F1F1F1" height="33.9688" rx="12.5" ry="12.5" style="stroke:#181818;stroke-width:0.5;" width="51.5703" x="346" y="177.2969"/><text fill="#000000" font-family="sans-serif" font-size="12" lengthAdjust="spacing" textLength="31.5703" x="356" y="198.4355">Done</text><g id="elem_GMN11"><path d="M6,181.7969 L6,206.9297 A0,0 0 0 0 6,206.9297 L241.9888,206.9297 A0,0 0 0 0 241.9888,206.9297 L241.9888,199.7969 L345.89,194.2969 L241.9888,191.7969 L241.9888,191.7969 L231.9888,181.7969 L6,181.7969 A0,0 0 0 0 6,181.7969 " fill="#FEFFDD" style="stroke:#181818;stroke-width:0.5;"/><path d="M231.9888,181.7969 L231.9888,191.7969 L241.9888,191.7969 L231.9888,181.7969 " fill="#FEFFDD" style="stroke:#181818;stroke-width:0.5;"/><text fill="#000000" font-family="sans-serif" font-size="13" lengthAdjust="spacing" textLength="214.9888" x="12" y="198.8638">in case work package is obsolete</text></g><rect fill="#F1F1F1" height="33.9688" rx="12.5" ry="12.5" style="stroke:#181818;stroke-width:0.5;" width="86.9082" x="366.5" y="346.2969"/><text fill="#000000" font-family="sans-serif" font-size="12" lengthAdjust="spacing" textLength="66.9082" x="376.5" y="367.4355">In Progress</text><g id="elem_GMN19"><path d="M44,251.2969 L44,306.6953 A0,0 0 0 0 44,306.6953 L242.2773,306.6953 A0,0 0 0 0 242.2773,306.6953 L242.2773,282.7969 L304.26,278.7969 L242.2773,274.7969 L242.2773,261.2969 L232.2773,251.2969 L44,251.2969 A0,0 0 0 0 44,251.2969 " fill="#FEFFDD" style="stroke:#181818;stroke-width:0.5;"/><path d="M232.2773,251.2969 L232.2773,261.2969 L242.2773,261.2969 L232.2773,251.2969 " fill="#FEFFDD" style="stroke:#181818;stroke-width:0.5;"/><text fill="#000000" font-family="sans-serif" font-size="13" lengthAdjust="spacing" textLength="156.2603" x="50" y="268.3638">in case new information</text><text fill="#000000" font-family="sans-serif" font-size="13" lengthAdjust="spacing" textLength="177.2773" x="50" y="283.4966">forces the work package to</text><text fill="#000000" font-family="sans-serif" font-size="13" lengthAdjust="spacing" textLength="103.2383" x="50" y="298.6294">be re-evaluated</text></g><ellipse cx="445" cy="278.7969" fill="transparent" rx="11" ry="11" style="stroke:#222222;stroke-width:1;"/><ellipse cx="445" cy="278.7969" fill="#222222" rx="6" ry="6" style="stroke:#222222;stroke-width:1;"/><!--link start to New--><g id="link_start_New"><path d="M315,63.3369 C315,73.5869 315,84.5169 315,97.0769 " fill="transparent" id="start-to-New" style="stroke:#181818;stroke-width:1;"/><polygon fill="#181818" points="315,103.0769,319,94.0769,315,98.0769,311,94.0769,315,103.0769" style="stroke:#181818;stroke-width:1;"/></g><!--link New to Analyze--><g id="link_New_Analyze"><path d="M317.37,137.4569 C321.78,167.4469 330.308,225.4606 334.728,255.5506 " fill="transparent" id="New-to-Analyze" style="stroke:#181818;stroke-width:1;"/><polygon fill="#181818" points="335.6,261.4869,338.2495,252.0011,334.8733,256.54,330.3345,253.1638,335.6,261.4869" style="stroke:#181818;stroke-width:1;"/></g><!--link New to Blocked--><g id="link_New_Blocked"><path d="M310.8,137.6369 C303.05,169.8969 287.91,244.0269 295,306.2969 C299.74,347.9569 311.0754,389.9341 318.3054,414.3341 " fill="transparent" id="New-to-Blocked" style="stroke:#181818;stroke-width:1;"/><polygon fill="#181818" points="320.01,420.0869,321.2883,410.3213,318.5895,415.2929,313.6179,412.5941,320.01,420.0869" style="stroke:#181818;stroke-width:1;"/></g><!--link New to Done--><g id="link_New_Done"><path d="M327.93,137.6369 C337.26,149.4169 346.0753,160.553 355.3953,172.323 " fill="transparent" id="New-to-Done" style="stroke:#181818;stroke-width:1;"/><polygon fill="#181818" points="359.12,177.0269,356.6688,167.4879,356.0161,173.107,350.397,172.4542,359.12,177.0269" style="stroke:#181818;stroke-width:1;"/></g><!--link Analyze to In Progress--><g id="link_Analyze_In Progress"><path d="M346.11,296.0969 C356.88,310.5569 370.9859,327.3357 385.4459,341.7857 " fill="transparent" id="Analyze-to-In Progress" style="stroke:#181818;stroke-width:1;"/><polygon fill="#181818" points="389.69,346.0269,386.1513,336.8357,386.1532,342.4926,380.4964,342.4945,389.69,346.0269" style="stroke:#181818;stroke-width:1;"/></g><!--link In Progress to Analyze--><g id="link_In Progress_Analyze"><path d="M401.92,346.0269 C391.15,331.5769 377.0541,314.798 362.5841,300.338 " fill="transparent" id="In Progress-to-Analyze" style="stroke:#181818;stroke-width:1;"/><polygon fill="#181818" points="358.34,296.0969,361.8787,305.288,361.8768,299.6312,367.5336,299.6292,358.34,296.0969" style="stroke:#181818;stroke-width:1;"/></g><!--link Analyze to Blocked--><g id="link_Analyze_Blocked"><path d="M331.87,295.9569 C325.77,325.9469 320.2308,383.9009 321.3308,413.9909 " fill="transparent" id="Analyze-to-Blocked" style="stroke:#181818;stroke-width:1;"/><polygon fill="#181818" points="321.55,419.9869,325.2185,410.8468,321.3673,414.9902,317.2239,411.139,321.55,419.9869" style="stroke:#181818;stroke-width:1;"/></g><!--link Blocked to Analyze--><g id="link_Blocked_Analyze"><path d="M331.16,419.9869 C337.26,389.8969 342.7959,331.9426 341.6659,301.9526 " fill="transparent" id="Blocked-to-Analyze" style="stroke:#181818;stroke-width:1;"/><polygon fill="#181818" points="341.44,295.9569,337.7817,305.1011,341.6283,300.9533,345.776,304.7999,341.44,295.9569" style="stroke:#181818;stroke-width:1;"/></g><!--link Analyze to Done--><g id="link_Analyze_Done"><path d="M350.81,261.5269 C358.62,247.0769 365.6496,231.8283 369.7596,217.3683 " fill="transparent" id="Analyze-to-Done" style="stroke:#181818;stroke-width:1;"/><polygon fill="#181818" points="371.4,211.5969,365.0918,219.1604,370.033,216.4064,372.787,221.3476,371.4,211.5969" style="stroke:#181818;stroke-width:1;"/></g><!--link Done to Analyze--><g id="link_Done_Analyze"><path d="M359.17,211.5969 C351.36,226.0569 344.3415,241.3058 340.2315,255.7558 " fill="transparent" id="Done-to-Analyze" style="stroke:#181818;stroke-width:1;"/><polygon fill="#181818" points="338.59,261.5269,344.8996,253.9645,339.9579,256.7176,337.2048,251.7759,338.59,261.5269" style="stroke:#181818;stroke-width:1;"/></g><!--link In Progress to Blocked--><g id="link_In Progress_Blocked"><path d="M384.31,380.6369 C368.82,392.4969 354.3199,404.3443 341.9099,416.1343 " fill="transparent" id="In Progress-to-Blocked" style="stroke:#181818;stroke-width:1;"/><polygon fill="#181818" points="337.56,420.2669,346.8399,416.9679,341.1849,416.8231,341.3298,411.1681,337.56,420.2669" style="stroke:#181818;stroke-width:1;"/></g><!--link Blocked to In Progress--><g id="link_Blocked_In Progress"><path d="M350.28,420.2669 C365.71,408.4769 380.2225,396.6214 392.7525,384.7614 " fill="transparent" id="Blocked-to-In Progress" style="stroke:#181818;stroke-width:1;"/><polygon fill="#181818" points="397.11,380.6369,387.824,383.9187,393.4787,384.074,393.3234,389.7287,397.11,380.6369" style="stroke:#181818;stroke-width:1;"/></g><!--link In Progress to Done--><g id="link_In Progress_Done"><path d="M406.31,346.0869 C399.03,314.0869 384.2221,248.9971 376.9721,217.1571 " fill="transparent" id="In Progress-to-Done" style="stroke:#181818;stroke-width:1;"/><polygon fill="#181818" points="375.64,211.3069,373.738,220.9703,376.7501,216.1821,381.5383,219.1942,375.64,211.3069" style="stroke:#181818;stroke-width:1;"/></g><!--link Done to end--><g id="link_Done_end"><path d="M386.42,211.5969 C402.05,229.2569 422.3349,252.1826 434.1249,265.5126 " fill="transparent" id="Done-to-end" style="stroke:#181818;stroke-width:1;"/><polygon fill="#181818" points="438.1,270.0069,435.1336,260.6154,434.7874,266.2616,429.1412,265.9155,438.1,270.0069" style="stroke:#181818;stroke-width:1;"/></g><!--SRC=[VL8nRiCm3Dpr2i9BqmB-G8O23R9qAG9qwApOj2jO4Gj9ZT6yFfHisPPQL8kW8-zuHzihhn7UlVG8HoLxAozx-20xm4asW-mnFZfDen2xfqUewsUetd2iX7W0lYUgYD1KV35I_zomsc87JSs0ROOToN0Jy374mpLsFhx2KGOQwH36OEHhDg8SqDcHHfuNcj2qaHgSp4EJc-HXclHgu6Ifj-XSLTPMPpa-kMFb3JcfR_MApF_7CRmlPJgo5-aLcQNEI8CE_6UHsDFISaQmMEDLwc_sqEOB-CFHckjtRSasDwLSYLD-nnpFjiaYGIqfHEMIleBy0uax]--></g></svg>