<svg xmlns="http://www.w3.org/2000/svg" xmlns:xlink="http://www.w3.org/1999/xlink" contentStyleType="text/css" data-diagram-type="CLASS" height="1205px" preserveAspectRatio="none" style="width:1320px;height:1205px;background:#FFFFFF;" version="1.1" viewBox="0 0 1320 1205" width="1320px" zoomAndPan="magnify"><defs/><g><!--cluster S-Core Repo--><g id="cluster_S-Core Repo"><path d="M91.5,130 L189.4746,130 A3.75,3.75 0 0 1 191.9746,132.5 L198.9746,152.2969 L393.5,152.2969 A2.5,2.5 0 0 1 396,154.7969 L396,323.5 A2.5,2.5 0 0 1 393.5,326 L91.5,326 A2.5,2.5 0 0 1 89,323.5 L89,132.5 A2.5,2.5 0 0 1 91.5,130 " fill="transparent" style="stroke:#000000;stroke-width:1.5;"/><line style="stroke:#000000;stroke-width:1.5;" x1="89" x2="198.9746" y1="152.2969" y2="152.2969"/><text fill="#000000" font-family="sans-serif" font-size="14" font-weight="bold" lengthAdjust="spacing" textLength="96.9746" x="93" y="144.9951">S-Core Repo</text></g><!--cluster Main Feature Repo--><g id="cluster_Main Feature Repo"><path d="M8.5,375 L158.8721,375 A3.75,3.75 0 0 1 161.3721,377.5 L168.3721,397.2969 L412.5,397.2969 A2.5,2.5 0 0 1 415,399.7969 L415,1019.5 A2.5,2.5 0 0 1 412.5,1022 L8.5,1022 A2.5,2.5 0 0 1 6,1019.5 L6,377.5 A2.5,2.5 0 0 1 8.5,375 " fill="transparent" style="stroke:#000000;stroke-width:1.5;"/><line style="stroke:#000000;stroke-width:1.5;" x1="6" x2="168.3721" y1="397.2969" y2="397.2969"/><text fill="#000000" font-family="sans-serif" font-size="14" font-weight="bold" lengthAdjust="spacing" textLength="149.3721" x="10" y="389.9951">Main Feature Repo</text></g><!--cluster Sub-Feature Repo 1--><g id="cluster_Sub-Feature Repo 1"><path d="M457.5,635 L615.3506,635 A3.75,3.75 0 0 1 617.8506,637.5 L624.8506,657.2969 L861.5,657.2969 A2.5,2.5 0 0 1 864,659.7969 L864,1195.5 A2.5,2.5 0 0 1 861.5,1198 L457.5,1198 A2.5,2.5 0 0 1 455,1195.5 L455,637.5 A2.5,2.5 0 0 1 457.5,635 " fill="transparent" style="stroke:#000000;stroke-width:1.5;"/><line style="stroke:#000000;stroke-width:1.5;" x1="455" x2="624.8506" y1="657.2969" y2="657.2969"/><text fill="#000000" font-family="sans-serif" font-size="14" font-weight="bold" lengthAdjust="spacing" textLength="156.8506" x="459" y="649.9951">Sub-Feature Repo 1</text></g><!--cluster Sub-Feature Repo 2--><g id="cluster_Sub-Feature Repo 2"><path d="M906.5,635 L1064.3506,635 A3.75,3.75 0 0 1 1066.8506,637.5 L1073.8506,657.2969 L1310.5,657.2969 A2.5,2.5 0 0 1 1313,659.7969 L1313,1195.5 A2.5,2.5 0 0 1 1310.5,1198 L906.5,1198 A2.5,2.5 0 0 1 904,1195.5 L904,637.5 A2.5,2.5 0 0 1 906.5,635 " fill="transparent" style="stroke:#000000;stroke-width:1.5;"/><line style="stroke:#000000;stroke-width:1.5;" x1="904" x2="1073.8506" y1="657.2969" y2="657.2969"/><text fill="#000000" font-family="sans-serif" font-size="14" font-weight="bold" lengthAdjust="spacing" textLength="156.8506" x="908" y="649.9951">Sub-Feature Repo 2</text></g><!--class Platform--><g id="elem_Platform"><rect codeLine="3" fill="#F1F1F1" height="129.4844" id="Platform" rx="2.5" ry="2.5" style="stroke:#181818;stroke-width:0.5;" width="240.3682" x="132" y="173"/><ellipse cx="218.29" cy="189" fill="#ADD1B2" rx="11" ry="11" style="stroke:#181818;stroke-width:1;"/><path d="M221.2588,194.6406 Q220.6807,194.9375 220.04,195.0781 Q219.3994,195.2344 218.6963,195.2344 Q216.1963,195.2344 214.8682,193.5938 Q213.5557,191.9375 213.5557,188.8125 Q213.5557,185.6875 214.8682,184.0313 Q216.1963,182.375 218.6963,182.375 Q219.3994,182.375 220.04,182.5313 Q220.6963,182.6875 221.2588,182.9844 L221.2588,185.7031 Q220.6338,185.125 220.04,184.8594 Q219.4463,184.5781 218.8213,184.5781 Q217.4775,184.5781 216.79,185.6563 Q216.1025,186.7188 216.1025,188.8125 Q216.1025,190.9063 216.79,191.9844 Q217.4775,193.0469 218.8213,193.0469 Q219.4463,193.0469 220.04,192.7813 Q220.6338,192.5 221.2588,191.9219 L221.2588,194.6406 Z " fill="#000000"/><text fill="#000000" font-family="sans-serif" font-size="14" lengthAdjust="spacing" textLength="59.2881" x="238.79" y="193.8467">Platform</text><line style="stroke:#181818;stroke-width:0.5;" x1="133" x2="371.3682" y1="205" y2="205"/><ellipse cx="143" cy="218.6484" fill="transparent" rx="3" ry="3" style="stroke:#038048;stroke-width:1;"/><text fill="#000000" font-family="sans-serif" font-size="14" lengthAdjust="spacing" textLength="83.7129" x="152" y="221.9951">SEooC: bool</text><line style="stroke:#181818;stroke-width:1;" x1="133" x2="371.3682" y1="229.2969" y2="229.2969"/><text fill="#000000" font-family="sans-serif" font-size="14" lengthAdjust="spacing" textLength="73.6777" x="138" y="246.292">Objectives</text><text fill="#000000" font-family="sans-serif" font-size="14" lengthAdjust="spacing" textLength="186.9766" x="138" y="262.5889">Stakeholder Requirements</text><text fill="#000000" font-family="sans-serif" font-size="14" lengthAdjust="spacing" textLength="228.3682" x="138" y="278.8857">SW-Platform Assumptions of use</text><text fill="#000000" font-family="sans-serif" font-size="14" lengthAdjust="spacing" textLength="182.5742" x="138" y="295.1826">Platform Integration Tests</text></g><!--class Feature--><g id="elem_Feature"><rect codeLine="14" fill="#F1F1F1" height="145.7813" id="Feature" rx="2.5" ry="2.5" style="stroke:#181818;stroke-width:0.5;" width="239.5479" x="132" y="418"/><ellipse cx="220.5356" cy="434" fill="#ADD1B2" rx="11" ry="11" style="stroke:#181818;stroke-width:1;"/><path d="M223.5044,439.6406 Q222.9263,439.9375 222.2856,440.0781 Q221.645,440.2344 220.9419,440.2344 Q218.4419,440.2344 217.1138,438.5938 Q215.8013,436.9375 215.8013,433.8125 Q215.8013,430.6875 217.1138,429.0313 Q218.4419,427.375 220.9419,427.375 Q221.645,427.375 222.2856,427.5313 Q222.9419,427.6875 223.5044,427.9844 L223.5044,430.7031 Q222.8794,430.125 222.2856,429.8594 Q221.6919,429.5781 221.0669,429.5781 Q219.7231,429.5781 219.0356,430.6563 Q218.3481,431.7188 218.3481,433.8125 Q218.3481,435.9063 219.0356,436.9844 Q219.7231,438.0469 221.0669,438.0469 Q221.6919,438.0469 222.2856,437.7813 Q222.8794,437.5 223.5044,436.9219 L223.5044,439.6406 Z " fill="#000000"/><text fill="#000000" font-family="sans-serif" font-size="14" lengthAdjust="spacing" textLength="53.9766" x="241.0356" y="438.8467">Feature</text><line style="stroke:#181818;stroke-width:0.5;" x1="133" x2="370.5479" y1="450" y2="450"/><ellipse cx="143" cy="463.6484" fill="transparent" rx="3" ry="3" style="stroke:#038048;stroke-width:1;"/><text fill="#000000" font-family="sans-serif" font-size="14" lengthAdjust="spacing" textLength="83.7129" x="152" y="466.9951">SEooC: bool</text><line style="stroke:#181818;stroke-width:1;" x1="133" x2="370.5479" y1="474.2969" y2="474.2969"/><text fill="#000000" font-family="sans-serif" font-size="14" lengthAdjust="spacing" textLength="156.6934" x="138" y="491.292">Feature Requirements</text><text fill="#000000" font-family="sans-serif" font-size="14" lengthAdjust="spacing" textLength="144.751" x="138" y="507.5889">Feature Architecture</text><text fill="#000000" font-family="sans-serif" font-size="14" lengthAdjust="spacing" textLength="177.2627" x="138" y="523.8857">Feature Integration Tests</text><text fill="#000000" font-family="sans-serif" font-size="14" lengthAdjust="spacing" textLength="227.5479" x="138" y="540.1826">Feature Safety/Security Analysis</text><text fill="#000000" font-family="sans-serif" font-size="14" lengthAdjust="spacing" textLength="195.2754" x="138" y="556.4795">Feature Assumptions of use</text></g><!--class Component--><g id="elem_Component"><rect codeLine="24" fill="#F1F1F1" height="129.4844" id="Component" rx="2.5" ry="2.5" style="stroke:#181818;stroke-width:0.5;" width="266.8506" x="30.5" y="686.5"/><ellipse cx="119.0356" cy="702.5" fill="#ADD1B2" rx="11" ry="11" style="stroke:#181818;stroke-width:1;"/><path d="M122.0044,708.1406 Q121.4263,708.4375 120.7856,708.5781 Q120.145,708.7344 119.4419,708.7344 Q116.9419,708.7344 115.6138,707.0938 Q114.3013,705.4375 114.3013,702.3125 Q114.3013,699.1875 115.6138,697.5313 Q116.9419,695.875 119.4419,695.875 Q120.145,695.875 120.7856,696.0313 Q121.4419,696.1875 122.0044,696.4844 L122.0044,699.2031 Q121.3794,698.625 120.7856,698.3594 Q120.1919,698.0781 119.5669,698.0781 Q118.2231,698.0781 117.5356,699.1563 Q116.8481,700.2188 116.8481,702.3125 Q116.8481,704.4063 117.5356,705.4844 Q118.2231,706.5469 119.5669,706.5469 Q120.1919,706.5469 120.7856,706.2813 Q121.3794,706 122.0044,705.4219 L122.0044,708.1406 Z " fill="#000000"/><text fill="#000000" font-family="sans-serif" font-size="14" lengthAdjust="spacing" textLength="81.2793" x="139.5356" y="707.3467">Component</text><line style="stroke:#181818;stroke-width:0.5;" x1="31.5" x2="296.3506" y1="718.5" y2="718.5"/><line style="stroke:#181818;stroke-width:1;" x1="31.5" x2="296.3506" y1="726.5" y2="726.5"/><text fill="#000000" font-family="sans-serif" font-size="14" lengthAdjust="spacing" textLength="183.9961" x="36.5" y="743.4951">Component Requirements</text><text fill="#000000" font-family="sans-serif" font-size="14" lengthAdjust="spacing" textLength="172.0537" x="36.5" y="759.792">Component Architecture</text><text fill="#000000" font-family="sans-serif" font-size="14" lengthAdjust="spacing" textLength="204.5654" x="36.5" y="776.0889">Component Integration Tests</text><text fill="#000000" font-family="sans-serif" font-size="14" lengthAdjust="spacing" textLength="254.8506" x="36.5" y="792.3857">Component Safety/Security Analysis</text><text fill="#000000" font-family="sans-serif" font-size="14" lengthAdjust="spacing" textLength="215.2842" x="36.5" y="808.6826">Component Assumption of use</text></g><!--class Unit--><g id="elem_Unit"><rect codeLine="33" fill="#F1F1F1" height="96.8906" id="Unit" rx="2.5" ry="2.5" style="stroke:#181818;stroke-width:0.5;" width="123.5283" x="102" y="901"/><ellipse cx="145.3632" cy="917" fill="#ADD1B2" rx="11" ry="11" style="stroke:#181818;stroke-width:1;"/><path d="M148.3319,922.6406 Q147.7538,922.9375 147.1132,923.0781 Q146.4726,923.2344 145.7694,923.2344 Q143.2694,923.2344 141.9413,921.5938 Q140.6288,919.9375 140.6288,916.8125 Q140.6288,913.6875 141.9413,912.0313 Q143.2694,910.375 145.7694,910.375 Q146.4726,910.375 147.1132,910.5313 Q147.7694,910.6875 148.3319,910.9844 L148.3319,913.7031 Q147.7069,913.125 147.1132,912.8594 Q146.5194,912.5781 145.8944,912.5781 Q144.5507,912.5781 143.8632,913.6563 Q143.1757,914.7188 143.1757,916.8125 Q143.1757,918.9063 143.8632,919.9844 Q144.5507,921.0469 145.8944,921.0469 Q146.5194,921.0469 147.1132,920.7813 Q147.7069,920.5 148.3319,919.9219 L148.3319,922.6406 Z " fill="#000000"/><text fill="#000000" font-family="sans-serif" font-size="14" lengthAdjust="spacing" textLength="28.499" x="165.6661" y="921.8467">Unit</text><line style="stroke:#181818;stroke-width:0.5;" x1="103" x2="224.5283" y1="933" y2="933"/><line style="stroke:#181818;stroke-width:1;" x1="103" x2="224.5283" y1="941" y2="941"/><text fill="#000000" font-family="sans-serif" font-size="14" lengthAdjust="spacing" textLength="111.5283" x="108" y="957.9951">Detailed Design</text><text fill="#000000" font-family="sans-serif" font-size="14" lengthAdjust="spacing" textLength="88.6826" x="108" y="974.292">Source Code</text><text fill="#000000" font-family="sans-serif" font-size="14" lengthAdjust="spacing" textLength="62.8975" x="108" y="990.5889">Unit Test</text></g><!--class SubFeature1--><g id="elem_SubFeature1"><rect codeLine="42" fill="#F1F1F1" height="145.7813" id="SubFeature1" rx="2.5" ry="2.5" style="stroke:#181818;stroke-width:0.5;" width="239.5479" x="499" y="678"/><ellipse cx="569.7588" cy="694" fill="#ADD1B2" rx="11" ry="11" style="stroke:#181818;stroke-width:1;"/><path d="M572.7275,699.6406 Q572.1494,699.9375 571.5088,700.0781 Q570.8682,700.2344 570.165,700.2344 Q567.665,700.2344 566.3369,698.5938 Q565.0244,696.9375 565.0244,693.8125 Q565.0244,690.6875 566.3369,689.0313 Q567.665,687.375 570.165,687.375 Q570.8682,687.375 571.5088,687.5313 Q572.165,687.6875 572.7275,687.9844 L572.7275,690.7031 Q572.1025,690.125 571.5088,689.8594 Q570.915,689.5781 570.29,689.5781 Q568.9463,689.5781 568.2588,690.6563 Q567.5713,691.7188 567.5713,693.8125 Q567.5713,695.9063 568.2588,696.9844 Q568.9463,698.0469 570.29,698.0469 Q570.915,698.0469 571.5088,697.7813 Q572.1025,697.5 572.7275,696.9219 L572.7275,699.6406 Z " fill="#000000"/><text fill="#000000" font-family="sans-serif" font-size="14" lengthAdjust="spacing" textLength="89.5303" x="590.2588" y="698.8467">SubFeature1</text><line style="stroke:#181818;stroke-width:0.5;" x1="500" x2="737.5479" y1="710" y2="710"/><ellipse cx="510" cy="723.6484" fill="transparent" rx="3" ry="3" style="stroke:#038048;stroke-width:1;"/><text fill="#000000" font-family="sans-serif" font-size="14" lengthAdjust="spacing" textLength="83.7129" x="519" y="726.9951">SEooC: bool</text><line style="stroke:#181818;stroke-width:1;" x1="500" x2="737.5479" y1="734.2969" y2="734.2969"/><text fill="#000000" font-family="sans-serif" font-size="14" lengthAdjust="spacing" textLength="156.6934" x="505" y="751.292">Feature Requirements</text><text fill="#000000" font-family="sans-serif" font-size="14" lengthAdjust="spacing" textLength="144.751" x="505" y="767.5889">Feature Architecture</text><text fill="#000000" font-family="sans-serif" font-size="14" lengthAdjust="spacing" textLength="177.2627" x="505" y="783.8857">Feature Integration Tests</text><text fill="#000000" font-family="sans-serif" font-size="14" lengthAdjust="spacing" textLength="227.5479" x="505" y="800.1826">Feature Safety/Security Analysis</text><text fill="#000000" font-family="sans-serif" font-size="14" lengthAdjust="spacing" textLength="195.2754" x="505" y="816.4795">Feature Assumptions of use</text></g><!--class SubComponent1--><g id="elem_SubComponent1"><rect codeLine="52" fill="#F1F1F1" height="129.4844" id="SubComponent1" rx="2.5" ry="2.5" style="stroke:#181818;stroke-width:0.5;" width="266.8506" x="487.5" y="885"/><ellipse cx="558.2588" cy="901" fill="#ADD1B2" rx="11" ry="11" style="stroke:#181818;stroke-width:1;"/><path d="M561.2275,906.6406 Q560.6494,906.9375 560.0088,907.0781 Q559.3682,907.2344 558.665,907.2344 Q556.165,907.2344 554.8369,905.5938 Q553.5244,903.9375 553.5244,900.8125 Q553.5244,897.6875 554.8369,896.0313 Q556.165,894.375 558.665,894.375 Q559.3682,894.375 560.0088,894.5313 Q560.665,894.6875 561.2275,894.9844 L561.2275,897.7031 Q560.6025,897.125 560.0088,896.8594 Q559.415,896.5781 558.79,896.5781 Q557.4463,896.5781 556.7588,897.6563 Q556.0713,898.7188 556.0713,900.8125 Q556.0713,902.9063 556.7588,903.9844 Q557.4463,905.0469 558.79,905.0469 Q559.415,905.0469 560.0088,904.7813 Q560.6025,904.5 561.2275,903.9219 L561.2275,906.6406 Z " fill="#000000"/><text fill="#000000" font-family="sans-serif" font-size="14" lengthAdjust="spacing" textLength="116.833" x="578.7588" y="905.8467">SubComponent1</text><line style="stroke:#181818;stroke-width:0.5;" x1="488.5" x2="753.3506" y1="917" y2="917"/><line style="stroke:#181818;stroke-width:1;" x1="488.5" x2="753.3506" y1="925" y2="925"/><text fill="#000000" font-family="sans-serif" font-size="14" lengthAdjust="spacing" textLength="183.9961" x="493.5" y="941.9951">Component Requirements</text><text fill="#000000" font-family="sans-serif" font-size="14" lengthAdjust="spacing" textLength="172.0537" x="493.5" y="958.292">Component Architecture</text><text fill="#000000" font-family="sans-serif" font-size="14" lengthAdjust="spacing" textLength="204.5654" x="493.5" y="974.5889">Component Integration Tests</text><text fill="#000000" font-family="sans-serif" font-size="14" lengthAdjust="spacing" textLength="254.8506" x="493.5" y="990.8857">Component Safety/Security Analysis</text><text fill="#000000" font-family="sans-serif" font-size="14" lengthAdjust="spacing" textLength="215.2842" x="493.5" y="1007.1826">Component Assumption of use</text></g><!--class SubUnit1--><g id="elem_SubUnit1"><rect codeLine="61" fill="#F1F1F1" height="96.8906" id="SubUnit1" rx="2.5" ry="2.5" style="stroke:#181818;stroke-width:0.5;" width="123.5283" x="559" y="1077"/><ellipse cx="586.364" cy="1093" fill="#ADD1B2" rx="11" ry="11" style="stroke:#181818;stroke-width:1;"/><path d="M589.3328,1098.6406 Q588.7546,1098.9375 588.114,1099.0781 Q587.4734,1099.2344 586.7703,1099.2344 Q584.2703,1099.2344 582.9421,1097.5938 Q581.6296,1095.9375 581.6296,1092.8125 Q581.6296,1089.6875 582.9421,1088.0313 Q584.2703,1086.375 586.7703,1086.375 Q587.4734,1086.375 588.114,1086.5313 Q588.7703,1086.6875 589.3328,1086.9844 L589.3328,1089.7031 Q588.7078,1089.125 588.114,1088.8594 Q587.5203,1088.5781 586.8953,1088.5781 Q585.5515,1088.5781 584.864,1089.6563 Q584.1765,1090.7188 584.1765,1092.8125 Q584.1765,1094.9063 584.864,1095.9844 Q585.5515,1097.0469 586.8953,1097.0469 Q587.5203,1097.0469 588.114,1096.7813 Q588.7078,1096.5 589.3328,1095.9219 L589.3328,1098.6406 Z " fill="#000000"/><text fill="#000000" font-family="sans-serif" font-size="14" lengthAdjust="spacing" textLength="64.0527" x="603.1116" y="1097.8467">SubUnit1</text><line style="stroke:#181818;stroke-width:0.5;" x1="560" x2="681.5283" y1="1109" y2="1109"/><line style="stroke:#181818;stroke-width:1;" x1="560" x2="681.5283" y1="1117" y2="1117"/><text fill="#000000" font-family="sans-serif" font-size="14" lengthAdjust="spacing" textLength="111.5283" x="565" y="1133.9951">Detailed Design</text><text fill="#000000" font-family="sans-serif" font-size="14" lengthAdjust="spacing" textLength="88.6826" x="565" y="1150.292">Source Code</text><text fill="#000000" font-family="sans-serif" font-size="14" lengthAdjust="spacing" textLength="62.8975" x="565" y="1166.5889">Unit Test</text></g><!--class SubFeature2--><g id="elem_SubFeature2"><rect codeLine="70" fill="#F1F1F1" height="145.7813" id="SubFeature2" rx="2.5" ry="2.5" style="stroke:#181818;stroke-width:0.5;" width="239.5479" x="948" y="678"/><ellipse cx="1018.7588" cy="694" fill="#ADD1B2" rx="11" ry="11" style="stroke:#181818;stroke-width:1;"/><path d="M1021.7275,699.6406 Q1021.1494,699.9375 1020.5088,700.0781 Q1019.8682,700.2344 1019.165,700.2344 Q1016.665,700.2344 1015.3369,698.5938 Q1014.0244,696.9375 1014.0244,693.8125 Q1014.0244,690.6875 1015.3369,689.0313 Q1016.665,687.375 1019.165,687.375 Q1019.8682,687.375 1020.5088,687.5313 Q1021.165,687.6875 1021.7275,687.9844 L1021.7275,690.7031 Q1021.1025,690.125 1020.5088,689.8594 Q1019.915,689.5781 1019.29,689.5781 Q1017.9463,689.5781 1017.2588,690.6563 Q1016.5713,691.7188 1016.5713,693.8125 Q1016.5713,695.9063 1017.2588,696.9844 Q1017.9463,698.0469 1019.29,698.0469 Q1019.915,698.0469 1020.5088,697.7813 Q1021.1025,697.5 1021.7275,696.9219 L1021.7275,699.6406 Z " fill="#000000"/><text fill="#000000" font-family="sans-serif" font-size="14" lengthAdjust="spacing" textLength="89.5303" x="1039.2588" y="698.8467">SubFeature2</text><line style="stroke:#181818;stroke-width:0.5;" x1="949" x2="1186.5479" y1="710" y2="710"/><ellipse cx="959" cy="723.6484" fill="transparent" rx="3" ry="3" style="stroke:#038048;stroke-width:1;"/><text fill="#000000" font-family="sans-serif" font-size="14" lengthAdjust="spacing" textLength="83.7129" x="968" y="726.9951">SEooC: bool</text><line style="stroke:#181818;stroke-width:1;" x1="949" x2="1186.5479" y1="734.2969" y2="734.2969"/><text fill="#000000" font-family="sans-serif" font-size="14" lengthAdjust="spacing" textLength="156.6934" x="954" y="751.292">Feature Requirements</text><text fill="#000000" font-family="sans-serif" font-size="14" lengthAdjust="spacing" textLength="144.751" x="954" y="767.5889">Feature Architecture</text><text fill="#000000" font-family="sans-serif" font-size="14" lengthAdjust="spacing" textLength="177.2627" x="954" y="783.8857">Feature Integration Tests</text><text fill="#000000" font-family="sans-serif" font-size="14" lengthAdjust="spacing" textLength="227.5479" x="954" y="800.1826">Feature Safety/Security Analysis</text><text fill="#000000" font-family="sans-serif" font-size="14" lengthAdjust="spacing" textLength="195.2754" x="954" y="816.4795">Feature Assumptions of use</text></g><!--class SubComponent2--><g id="elem_SubComponent2"><rect codeLine="80" fill="#F1F1F1" height="129.4844" id="SubComponent2" rx="2.5" ry="2.5" style="stroke:#181818;stroke-width:0.5;" width="266.8506" x="936.5" y="885"/><ellipse cx="1007.2588" cy="901" fill="#ADD1B2" rx="11" ry="11" style="stroke:#181818;stroke-width:1;"/><path d="M1010.2275,906.6406 Q1009.6494,906.9375 1009.0088,907.0781 Q1008.3682,907.2344 1007.665,907.2344 Q1005.165,907.2344 1003.8369,905.5938 Q1002.5244,903.9375 1002.5244,900.8125 Q1002.5244,897.6875 1003.8369,896.0313 Q1005.165,894.375 1007.665,894.375 Q1008.3682,894.375 1009.0088,894.5313 Q1009.665,894.6875 1010.2275,894.9844 L1010.2275,897.7031 Q1009.6025,897.125 1009.0088,896.8594 Q1008.415,896.5781 1007.79,896.5781 Q1006.4463,896.5781 1005.7588,897.6563 Q1005.0713,898.7188 1005.0713,900.8125 Q1005.0713,902.9063 1005.7588,903.9844 Q1006.4463,905.0469 1007.79,905.0469 Q1008.415,905.0469 1009.0088,904.7813 Q1009.6025,904.5 1010.2275,903.9219 L1010.2275,906.6406 Z " fill="#000000"/><text fill="#000000" font-family="sans-serif" font-size="14" lengthAdjust="spacing" textLength="116.833" x="1027.7588" y="905.8467">SubComponent2</text><line style="stroke:#181818;stroke-width:0.5;" x1="937.5" x2="1202.3506" y1="917" y2="917"/><line style="stroke:#181818;stroke-width:1;" x1="937.5" x2="1202.3506" y1="925" y2="925"/><text fill="#000000" font-family="sans-serif" font-size="14" lengthAdjust="spacing" textLength="183.9961" x="942.5" y="941.9951">Component Requirements</text><text fill="#000000" font-family="sans-serif" font-size="14" lengthAdjust="spacing" textLength="172.0537" x="942.5" y="958.292">Component Architecture</text><text fill="#000000" font-family="sans-serif" font-size="14" lengthAdjust="spacing" textLength="204.5654" x="942.5" y="974.5889">Component Integration Tests</text><text fill="#000000" font-family="sans-serif" font-size="14" lengthAdjust="spacing" textLength="254.8506" x="942.5" y="990.8857">Component Safety/Security Analysis</text><text fill="#000000" font-family="sans-serif" font-size="14" lengthAdjust="spacing" textLength="215.2842" x="942.5" y="1007.1826">Component Assumption of use</text></g><!--class SubUnit2--><g id="elem_SubUnit2"><rect codeLine="89" fill="#F1F1F1" height="96.8906" id="SubUnit2" rx="2.5" ry="2.5" style="stroke:#181818;stroke-width:0.5;" width="123.5283" x="1008" y="1077"/><ellipse cx="1035.364" cy="1093" fill="#ADD1B2" rx="11" ry="11" style="stroke:#181818;stroke-width:1;"/><path d="M1038.3328,1098.6406 Q1037.7546,1098.9375 1037.114,1099.0781 Q1036.4734,1099.2344 1035.7703,1099.2344 Q1033.2703,1099.2344 1031.9421,1097.5938 Q1030.6296,1095.9375 1030.6296,1092.8125 Q1030.6296,1089.6875 1031.9421,1088.0313 Q1033.2703,1086.375 1035.7703,1086.375 Q1036.4734,1086.375 1037.114,1086.5313 Q1037.7703,1086.6875 1038.3328,1086.9844 L1038.3328,1089.7031 Q1037.7078,1089.125 1037.114,1088.8594 Q1036.5203,1088.5781 1035.8953,1088.5781 Q1034.5515,1088.5781 1033.864,1089.6563 Q1033.1765,1090.7188 1033.1765,1092.8125 Q1033.1765,1094.9063 1033.864,1095.9844 Q1034.5515,1097.0469 1035.8953,1097.0469 Q1036.5203,1097.0469 1037.114,1096.7813 Q1037.7078,1096.5 1038.3328,1095.9219 L1038.3328,1098.6406 Z " fill="#000000"/><text fill="#000000" font-family="sans-serif" font-size="14" lengthAdjust="spacing" textLength="64.0527" x="1052.1116" y="1097.8467">SubUnit2</text><line style="stroke:#181818;stroke-width:0.5;" x1="1009" x2="1130.5283" y1="1109" y2="1109"/><line style="stroke:#181818;stroke-width:1;" x1="1009" x2="1130.5283" y1="1117" y2="1117"/><text fill="#000000" font-family="sans-serif" font-size="14" lengthAdjust="spacing" textLength="111.5283" x="1014" y="1133.9951">Detailed Design</text><text fill="#000000" font-family="sans-serif" font-size="14" lengthAdjust="spacing" textLength="88.6826" x="1014" y="1150.292">Source Code</text><text fill="#000000" font-family="sans-serif" font-size="14" lengthAdjust="spacing" textLength="62.8975" x="1014" y="1166.5889">Unit Test</text></g><path d="M201.5,6 L336.1016,6 A3.75,3.75 0 0 1 338.6016,8.5 L345.6016,28.2969 L350.1016,28.2969 A2.5,2.5 0 0 1 352.6016,30.7969 L352.6016,56.0938 A2.5,2.5 0 0 1 350.1016,58.5938 L201.5,58.5938 A2.5,2.5 0 0 1 199,56.0938 L199,8.5 A2.5,2.5 0 0 1 201.5,6 " fill="#F1F1F1" style="stroke:#181818;stroke-width:0.5;"/><line style="stroke:#181818;stroke-width:0.5;" x1="199" x2="345.6016" y1="28.2969" y2="28.2969"/><text fill="#000000" font-family="sans-serif" font-size="14" font-weight="bold" lengthAdjust="spacing" textLength="133.6016" x="203" y="20.9951">Integration Repo</text><!--link Integration Repo to S-Core Repo--><g id="link_Integration Repo_S-Core Repo"><path codeLine="101" d="M198.88,55.2 C168.5,67.6 136.13,86.35 116,114 C114.005,116.7406 112.1836,119.6077 110.5219,122.5753 C109.691,124.0591 108.9001,125.568 108.1474,127.0988 C107.7711,127.8642 107.4043,128.6351 107.0468,129.411 C106.9574,129.605 109.3454,124.3344 109.2572,124.529 " fill="transparent" id="Integration Repo-to-S-Core Repo" style="stroke:#181818;stroke-width:1;stroke-dasharray:7.0,7.0;"/><polygon fill="#181818" points="106.7805,129.9939,114.1389,123.4477,108.8444,125.4398,106.8523,120.1453,106.7805,129.9939" style="stroke:#181818;stroke-width:1;"/><text fill="#000000" font-family="sans-serif" font-size="13" lengthAdjust="spacing" textLength="82.3418" x="140" y="102.0669">derives from</text></g><!--link Integration Repo to Main Feature Repo--><g id="link_Integration Repo_Main Feature Repo"><path codeLine="102" d="M330.55,59.08 C352.33,72.26 375.22,90.56 388,114 C427.415,186.31 432.6325,278.525 427.7675,353.5338 C425.335,391.0381 420.3819,424.2409 415.9225,448.5033 C415.6438,450.0197 416.485,445.6062 416.2108,447.0516 " fill="transparent" id="Integration Repo-to-Main Feature Repo" style="stroke:#181818;stroke-width:1;stroke-dasharray:7.0,7.0;"/><polygon fill="#181818" points="415.0929,452.9466,420.6998,444.8495,416.0245,448.0341,412.8399,443.3589,415.0929,452.9466" style="stroke:#181818;stroke-width:1;"/><text fill="#000000" font-family="sans-serif" font-size="13" lengthAdjust="spacing" textLength="29.7832" x="430" y="242.0669">uses</text></g><!--link Main Feature Repo to Sub-Feature Repo 1--><g id="link_Main Feature Repo_Sub-Feature Repo 1"><path codeLine="103" d="M415.0369,529.0376 C415.3498,530.4792 415.6696,531.9528 415.9959,533.4564 C421.2175,557.5141 428.1088,589.2631 435,621.0113 C441.8913,652.7594 448.7825,684.5066 454.0041,708.5605 C454.3304,710.0638 453.3774,705.6737 453.6903,707.1151 " fill="transparent" id="Main Feature Repo-to-Sub-Feature Repo 1" style="stroke:#181818;stroke-width:1;stroke-dasharray:7.0,7.0;"/><polygon fill="#181818" points="454.9631,712.9785,456.9628,703.3348,453.9024,708.0923,449.1449,705.0319,454.9631,712.9785" style="stroke:#181818;stroke-width:1;"/><text fill="#000000" font-family="sans-serif" font-size="13" lengthAdjust="spacing" textLength="29.7832" x="432" y="607.0669">uses</text></g><!--link Main Feature Repo to Sub-Feature Repo 2--><g id="link_Main Feature Repo_Sub-Feature Repo 2"><path codeLine="104" d="M415.4992,491.858 C417.1971,491.8452 419.1351,491.838 421.3004,491.8412 C429.9618,491.8538 442.2604,492.0316 457.3745,492.6738 C487.6028,493.9581 529.0931,497.1 575.2713,504.4925 C667.6275,519.2775 778.735,551.065 856,619 C879.405,639.58 893.3375,671.635 901.4513,698.885 C901.9584,700.5881 902.4427,702.2725 902.9053,703.9341 C903.1366,704.7649 903.3624,705.59 903.5828,706.409 C903.6931,706.8184 902.2664,701.4262 902.3739,701.8325 " fill="transparent" id="Main Feature Repo-to-Sub-Feature Repo 2" style="stroke:#181818;stroke-width:1;stroke-dasharray:7.0,7.0;"/><polygon fill="#181818" points="903.9095,707.6327,905.4729,697.9087,902.6299,702.7992,897.7394,699.9561,903.9095,707.6327" style="stroke:#181818;stroke-width:1;"/><text fill="#000000" font-family="sans-serif" font-size="13" lengthAdjust="spacing" textLength="29.7832" x="847" y="607.0669">uses</text></g><!--link S-Core Repo to Main Feature Repo--><!--reverse link Platform to Feature--><g id="link_Platform_Feature"><path codeLine="108" d="M252,314.29 C252,349.51 252,381.37 252,417.83 " fill="transparent" id="Platform-backto-Feature" style="stroke:#181818;stroke-width:1;"/><polygon fill="#181818" points="252,302.29,248,308.29,252,314.29,256,308.29,252,302.29" style="stroke:#181818;stroke-width:1;"/><text fill="#000000" font-family="sans-serif" font-size="13" lengthAdjust="spacing" textLength="8.271" x="243.5319" y="322.6951">1</text><text fill="#000000" font-family="sans-serif" font-size="13" lengthAdjust="spacing" textLength="8.2393" x="243.6403" y="406.9732">n</text></g><!--reverse link Feature to Component--><g id="link_Feature_Component"><path codeLine="109" d="M223.4953,575.5672 C210.4253,613.8772 198.39,649.18 185.78,686.16 " fill="transparent" id="Feature-backto-Component" style="stroke:#181818;stroke-width:1;"/><polygon fill="transparent" points="227.37,564.21,221.6469,568.5971,223.4953,575.5672,229.2184,571.1802,227.37,564.21" style="stroke:#181818;stroke-width:1;"/><text fill="#000000" font-family="sans-serif" font-size="13" lengthAdjust="spacing" textLength="8.271" x="216.764" y="583.7336">1</text><text fill="#000000" font-family="sans-serif" font-size="13" lengthAdjust="spacing" textLength="8.2393" x="179.7459" y="675.2955">n</text></g><!--reverse link Component to Component--><g id="link_Component_Component"><path codeLine="110" d="M309.7329,735.0432 C330.3629,737.6832 332.5,741.99 332.5,751 C332.5,760.01 318.46,765.84 297.83,768.48 " fill="transparent" id="Component-backto-Component" style="stroke:#181818;stroke-width:1;"/><polygon fill="transparent" points="297.83,733.52,303.2737,738.2492,309.7329,735.0432,304.2892,730.314,297.83,733.52" style="stroke:#181818;stroke-width:1;"/><text fill="#000000" font-family="sans-serif" font-size="13" lengthAdjust="spacing" textLength="55.0278" x="338.5" y="755.5669">contains</text><text fill="#000000" font-family="sans-serif" font-size="13" lengthAdjust="spacing" textLength="8.271" x="305.3791" y="729.2112">1</text><text fill="#000000" font-family="sans-serif" font-size="13" lengthAdjust="spacing" textLength="8.2393" x="305.3782" y="766.0831">n</text></g><!--reverse link Component to Unit--><g id="link_Component_Unit"><path codeLine="111" d="M164,827.53 C164,855.22 164,875.14 164,900.77 " fill="transparent" id="Component-backto-Unit" style="stroke:#181818;stroke-width:1;"/><polygon fill="transparent" points="164,815.53,160,821.53,164,827.53,168,821.53,164,815.53" style="stroke:#181818;stroke-width:1;"/><text fill="#000000" font-family="sans-serif" font-size="13" lengthAdjust="spacing" textLength="8.271" x="155.5618" y="835.905">1</text><text fill="#000000" font-family="sans-serif" font-size="13" lengthAdjust="spacing" textLength="8.2393" x="155.4875" y="889.9466">n</text></g><!--reverse link Feature to SubFeature1--><g id="link_Feature_SubFeature1"><path codeLine="114" d="M311.7442,572.9924 C328.7642,591.4524 341.14,600.28 364,611 C390.41,623.38 468.57,606.66 495,619 C523.23,632.19 548.25,654.91 568.29,677.77 " fill="transparent" id="Feature-backto-SubFeature1" style="stroke:#181818;stroke-width:1;"/><polygon fill="transparent" points="303.61,564.17,304.7363,571.2926,311.7442,572.9924,310.6179,565.8698,303.61,564.17" style="stroke:#181818;stroke-width:1;"/><text fill="#000000" font-family="sans-serif" font-size="13" lengthAdjust="spacing" textLength="55.0278" x="365" y="607.0669">contains</text><text fill="#000000" font-family="sans-serif" font-size="13" lengthAdjust="spacing" textLength="8.271" x="300.1823" y="583.9425">1</text><text fill="#000000" font-family="sans-serif" font-size="13" lengthAdjust="spacing" textLength="8.2393" x="554.9385" y="666.9073">n</text></g><!--reverse link SubFeature1 to SubComponent1--><g id="link_SubFeature1_SubComponent1"><path codeLine="115" d="M619.8564,836.0493 C620.0664,855.9893 620.15,865.48 620.35,884.89 " fill="transparent" id="SubFeature1-backto-SubComponent1" style="stroke:#181818;stroke-width:1;"/><polygon fill="transparent" points="619.73,824.05,615.7934,830.0918,619.8564,836.0493,623.793,830.0075,619.73,824.05" style="stroke:#181818;stroke-width:1;"/><text fill="#000000" font-family="sans-serif" font-size="13" lengthAdjust="spacing" textLength="8.271" x="611.4528" y="843.8111">1</text><text fill="#000000" font-family="sans-serif" font-size="13" lengthAdjust="spacing" textLength="8.2393" x="611.8627" y="874.0506">n</text></g><!--reverse link SubComponent1 to SubComponent1--><g id="link_SubComponent1_SubComponent1"><path codeLine="116" d="M766.7476,934.7938 C787.3776,937.2238 789.5,941.19 789.5,949.5 C789.5,957.81 775.46,963.18 754.83,965.61 " fill="transparent" id="SubComponent1-backto-SubComponent1" style="stroke:#181818;stroke-width:1;"/><polygon fill="transparent" points="754.83,933.39,760.3209,938.0644,766.7476,934.7938,761.2567,930.1193,754.83,933.39" style="stroke:#181818;stroke-width:1;"/><text fill="#000000" font-family="sans-serif" font-size="13" lengthAdjust="spacing" textLength="55.0278" x="795.5" y="954.0669">contains</text><text fill="#000000" font-family="sans-serif" font-size="13" lengthAdjust="spacing" textLength="8.271" x="762.3791" y="929.1561">1</text><text fill="#000000" font-family="sans-serif" font-size="13" lengthAdjust="spacing" textLength="8.2393" x="762.3782" y="963.1381">n</text></g><!--reverse link SubComponent1 to SubUnit1--><g id="link_SubComponent1_SubUnit1"><path codeLine="117" d="M621,1026.3 C621,1046.96 621,1057.5 621,1076.79 " fill="transparent" id="SubComponent1-backto-SubUnit1" style="stroke:#181818;stroke-width:1;"/><polygon fill="transparent" points="621,1014.3,617,1020.3,621,1026.3,625,1020.3,621,1014.3" style="stroke:#181818;stroke-width:1;"/><text fill="#000000" font-family="sans-serif" font-size="13" lengthAdjust="spacing" textLength="8.271" x="612.5618" y="1034.7063">1</text><text fill="#000000" font-family="sans-serif" font-size="13" lengthAdjust="spacing" textLength="8.2393" x="612.4875" y="1065.9694">n</text></g><!--reverse link Feature to SubFeature2--><g id="link_Feature_SubFeature2"><path codeLine="120" d="M383.4127,566.6529 C546.8327,621.4929 589.21,596.78 761,611 C781.28,612.68 925.49,610.55 944,619 C972.49,632.01 997.64,654.84 1017.72,677.84 " fill="transparent" id="Feature-backto-SubFeature2" style="stroke:#181818;stroke-width:1;"/><polygon fill="transparent" points="372.1,562.65,376.422,568.4224,383.4127,566.6529,379.0906,560.8806,372.1,562.65" style="stroke:#181818;stroke-width:1;"/><text fill="#000000" font-family="sans-serif" font-size="13" lengthAdjust="spacing" textLength="55.0278" x="762" y="607.0669">contains</text><text fill="#000000" font-family="sans-serif" font-size="13" lengthAdjust="spacing" textLength="8.271" x="379.6844" y="563.6367">1</text><text fill="#000000" font-family="sans-serif" font-size="13" lengthAdjust="spacing" textLength="8.2393" x="1004.4108" y="666.9842">n</text></g><!--reverse link SubFeature2 to SubComponent2--><g id="link_SubFeature2_SubComponent2"><path codeLine="121" d="M1068.8564,836.0493 C1069.0664,855.9893 1069.15,865.48 1069.35,884.89 " fill="transparent" id="SubFeature2-backto-SubComponent2" style="stroke:#181818;stroke-width:1;"/><polygon fill="transparent" points="1068.73,824.05,1064.7934,830.0918,1068.8564,836.0493,1072.793,830.0075,1068.73,824.05" style="stroke:#181818;stroke-width:1;"/><text fill="#000000" font-family="sans-serif" font-size="13" lengthAdjust="spacing" textLength="8.271" x="1060.4528" y="843.8111">1</text><text fill="#000000" font-family="sans-serif" font-size="13" lengthAdjust="spacing" textLength="8.2393" x="1060.8627" y="874.0506">n</text></g><!--reverse link SubComponent2 to SubComponent2--><g id="link_SubComponent2_SubComponent2"><path codeLine="122" d="M1215.7476,934.7938 C1236.3776,937.2238 1238.5,941.19 1238.5,949.5 C1238.5,957.81 1224.46,963.18 1203.83,965.61 " fill="transparent" id="SubComponent2-backto-SubComponent2" style="stroke:#181818;stroke-width:1;"/><polygon fill="transparent" points="1203.83,933.39,1209.3209,938.0644,1215.7476,934.7938,1210.2567,930.1193,1203.83,933.39" style="stroke:#181818;stroke-width:1;"/><text fill="#000000" font-family="sans-serif" font-size="13" lengthAdjust="spacing" textLength="55.0278" x="1244.5" y="954.0669">contains</text><text fill="#000000" font-family="sans-serif" font-size="13" lengthAdjust="spacing" textLength="8.271" x="1211.3791" y="929.1561">1</text><text fill="#000000" font-family="sans-serif" font-size="13" lengthAdjust="spacing" textLength="8.2393" x="1211.3782" y="963.1381">n</text></g><!--reverse link SubComponent2 to SubUnit2--><g id="link_SubComponent2_SubUnit2"><path codeLine="123" d="M1070,1026.3 C1070,1046.96 1070,1057.5 1070,1076.79 " fill="transparent" id="SubComponent2-backto-SubUnit2" style="stroke:#181818;stroke-width:1;"/><polygon fill="transparent" points="1070,1014.3,1066,1020.3,1070,1026.3,1074,1020.3,1070,1014.3" style="stroke:#181818;stroke-width:1;"/><text fill="#000000" font-family="sans-serif" font-size="13" lengthAdjust="spacing" textLength="8.271" x="1061.5618" y="1034.7063">1</text><text fill="#000000" font-family="sans-serif" font-size="13" lengthAdjust="spacing" textLength="8.2393" x="1061.4875" y="1065.9694">n</text></g><!--SRC=[tPLDZzCm48Rl_XMZNf10MHGVUq2g2aWS4AiDY0FYu2RJrcnY1zj1gj3-Tsmt7wxZW5RQFPHJ4hypusVyHkEMbVViWB0gigrK27VOoXNy9W1bpRI6svgPlLIDNm9u1SKxARThs4bP-vKiyuzFknzO6luBjVyi3Bl7ewmhLBRapuuhR52ONloQZMKtMdTDQxWK6kGUEeq-PDG_28C7nLm0V4RjApoG1qBQ0VmZumBU8pDT0dzO_mVzb1wX3i96bKTkR8Vsuq98yKrgmVPeJgyBB3l5pGasWjKdpQFQgIEm7GuzR6NJIc6H-YvwvcbvHZr9C-v9IfDF-b_PWnr6-YJy5y4ZxhTe6A-niY-Q7yJvZv2TAj5MhSwKFij1pTmkkbqMcWrvQBTLUp6_Qijj7-C9vzTekst0UPW_g_KqRJtzRwodLsmzVKhhG_9Xn5lz1Tps4NTOUrKVUQj98lxcvarqnwt1NaxkmeAzairYJk9wMRkcxIu9wRnDOaOzEeTEEHVOsRSZhoeKtwii1USE9LeDJsQyLrUMwMLcIuZL44g65AV9NXjj9zCFaDGjRIc5DLdeMMXrZdN-Ehwmrpm2J364KptO9LoEmgVXIIv7wM9SL7YMKeqvVgx5RT17jK7JRT15F4ekny9Yt58RDDa69Ny0]--></g></svg>