<svg xmlns="http://www.w3.org/2000/svg" xmlns:xlink="http://www.w3.org/1999/xlink" contentStyleType="text/css" data-diagram-type="CLASS" height="322px" preserveAspectRatio="none" style="width:6201px;height:322px;background:#FFFFFF;" version="1.1" viewBox="0 0 6201 322" width="6201px" zoomAndPan="magnify"><defs/><g><!--entity Feature_User--><g id="elem_Feature_User"><ellipse cx="3121.6685" cy="14" fill="#F1F1F1" rx="8" ry="8" style="stroke:#181818;stroke-width:0.5;"/><path d="M3121.6685,22 L3121.6685,49 M3108.6685,30 L3134.6685,30 M3121.6685,49 L3108.6685,64 M3121.6685,49 L3134.6685,64 " fill="transparent" style="stroke:#181818;stroke-width:0.5;"/><text fill="#000000" font-family="sans-serif" font-size="14" lengthAdjust="spacing" textLength="90.3369" x="3076.5" y="78.4951">Feature User</text></g><!--class comp_arc_sta__baselibs__concurrency--><g id="elem_comp_arc_sta__baselibs__concurrency"><rect fill="#F1F1F1" height="40" id="comp_arc_sta__baselibs__concurrency" rx="2.5" ry="2.5" style="stroke:#181818;stroke-width:0.5;" width="300.2012" x="4367.5" y="275.5"/><ellipse cx="4382.5" cy="291.5" fill="#ADD1B2" rx="11" ry="11" style="stroke:#181818;stroke-width:1;"/><path d="M4385.4688,297.1406 Q4384.8906,297.4375 4384.25,297.5781 Q4383.6094,297.7344 4382.9063,297.7344 Q4380.4063,297.7344 4379.0781,296.0938 Q4377.7656,294.4375 4377.7656,291.3125 Q4377.7656,288.1875 4379.0781,286.5313 Q4380.4063,284.875 4382.9063,284.875 Q4383.6094,284.875 4384.25,285.0313 Q4384.9063,285.1875 4385.4688,285.4844 L4385.4688,288.2031 Q4384.8438,287.625 4384.25,287.3594 Q4383.6563,287.0781 4383.0313,287.0781 Q4381.6875,287.0781 4381,288.1563 Q4380.3125,289.2188 4380.3125,291.3125 Q4380.3125,293.4063 4381,294.4844 Q4381.6875,295.5469 4383.0313,295.5469 Q4383.6563,295.5469 4384.25,295.2813 Q4384.8438,295 4385.4688,294.4219 L4385.4688,297.1406 Z " fill="#000000"/><text fill="#000000" font-family="sans-serif" font-size="14" lengthAdjust="spacing" textLength="268.2012" x="4396.5" y="296.3467">comp_arc_sta__baselibs__concurrency</text><line style="stroke:#181818;stroke-width:0.5;" x1="4368.5" x2="4666.7012" y1="307.5" y2="307.5"/></g><!--class logic_arc_int__baselibs__synchronized_queue--><g id="elem_logic_arc_int__baselibs__synchronized_queue"><rect fill="#F1F1F1" height="40" id="logic_arc_int__baselibs__synchronized_queue" rx="2.5" ry="2.5" style="stroke:#181818;stroke-width:0.5;" width="348.3604" x="4837.5" y="158.5"/><ellipse cx="4852.5" cy="174.5" fill="#ADD1B2" rx="11" ry="11" style="stroke:#181818;stroke-width:1;"/><path d="M4855.4688,180.1406 Q4854.8906,180.4375 4854.25,180.5781 Q4853.6094,180.7344 4852.9063,180.7344 Q4850.4063,180.7344 4849.0781,179.0938 Q4847.7656,177.4375 4847.7656,174.3125 Q4847.7656,171.1875 4849.0781,169.5313 Q4850.4063,167.875 4852.9063,167.875 Q4853.6094,167.875 4854.25,168.0313 Q4854.9063,168.1875 4855.4688,168.4844 L4855.4688,171.2031 Q4854.8438,170.625 4854.25,170.3594 Q4853.6563,170.0781 4853.0313,170.0781 Q4851.6875,170.0781 4851,171.1563 Q4850.3125,172.2188 4850.3125,174.3125 Q4850.3125,176.4063 4851,177.4844 Q4851.6875,178.5469 4853.0313,178.5469 Q4853.6563,178.5469 4854.25,178.2813 Q4854.8438,178 4855.4688,177.4219 L4855.4688,180.1406 Z " fill="#000000"/><text fill="#000000" font-family="sans-serif" font-size="14" lengthAdjust="spacing" textLength="316.3604" x="4866.5" y="179.3467">logic_arc_int__baselibs__synchronized_queue</text><line style="stroke:#181818;stroke-width:0.5;" x1="4838.5" x2="5184.8604" y1="190.5" y2="190.5"/></g><!--class logic_arc_int__baselibs__bit_mask_operator--><g id="elem_logic_arc_int__baselibs__bit_mask_operator"><rect fill="#F1F1F1" height="40" id="logic_arc_int__baselibs__bit_mask_operator" rx="2.5" ry="2.5" style="stroke:#181818;stroke-width:0.5;" width="334.6406" x="2590" y="158.5"/><ellipse cx="2605" cy="174.5" fill="#ADD1B2" rx="11" ry="11" style="stroke:#181818;stroke-width:1;"/><path d="M2607.9688,180.1406 Q2607.3906,180.4375 2606.75,180.5781 Q2606.1094,180.7344 2605.4063,180.7344 Q2602.9063,180.7344 2601.5781,179.0938 Q2600.2656,177.4375 2600.2656,174.3125 Q2600.2656,171.1875 2601.5781,169.5313 Q2602.9063,167.875 2605.4063,167.875 Q2606.1094,167.875 2606.75,168.0313 Q2607.4063,168.1875 2607.9688,168.4844 L2607.9688,171.2031 Q2607.3438,170.625 2606.75,170.3594 Q2606.1563,170.0781 2605.5313,170.0781 Q2604.1875,170.0781 2603.5,171.1563 Q2602.8125,172.2188 2602.8125,174.3125 Q2602.8125,176.4063 2603.5,177.4844 Q2604.1875,178.5469 2605.5313,178.5469 Q2606.1563,178.5469 2606.75,178.2813 Q2607.3438,178 2607.9688,177.4219 L2607.9688,180.1406 Z " fill="#000000"/><text fill="#000000" font-family="sans-serif" font-size="14" lengthAdjust="spacing" textLength="302.6406" x="2619" y="179.3467">logic_arc_int__baselibs__bit_mask_operator</text><line style="stroke:#181818;stroke-width:0.5;" x1="2591" x2="2923.6406" y1="190.5" y2="190.5"/></g><!--class logic_arc_int__baselibs__promise--><g id="elem_logic_arc_int__baselibs__promise"><rect fill="#F1F1F1" height="40" id="logic_arc_int__baselibs__promise" rx="2.5" ry="2.5" style="stroke:#181818;stroke-width:0.5;" width="261.1885" x="3956" y="158.5"/><ellipse cx="3971" cy="174.5" fill="#ADD1B2" rx="11" ry="11" style="stroke:#181818;stroke-width:1;"/><path d="M3973.9688,180.1406 Q3973.3906,180.4375 3972.75,180.5781 Q3972.1094,180.7344 3971.4063,180.7344 Q3968.9063,180.7344 3967.5781,179.0938 Q3966.2656,177.4375 3966.2656,174.3125 Q3966.2656,171.1875 3967.5781,169.5313 Q3968.9063,167.875 3971.4063,167.875 Q3972.1094,167.875 3972.75,168.0313 Q3973.4063,168.1875 3973.9688,168.4844 L3973.9688,171.2031 Q3973.3438,170.625 3972.75,170.3594 Q3972.1563,170.0781 3971.5313,170.0781 Q3970.1875,170.0781 3969.5,171.1563 Q3968.8125,172.2188 3968.8125,174.3125 Q3968.8125,176.4063 3969.5,177.4844 Q3970.1875,178.5469 3971.5313,178.5469 Q3972.1563,178.5469 3972.75,178.2813 Q3973.3438,178 3973.9688,177.4219 L3973.9688,180.1406 Z " fill="#000000"/><text fill="#000000" font-family="sans-serif" font-size="14" lengthAdjust="spacing" textLength="229.1885" x="3985" y="179.3467">logic_arc_int__baselibs__promise</text><line style="stroke:#181818;stroke-width:0.5;" x1="3957" x2="4216.1885" y1="190.5" y2="190.5"/></g><!--class logic_arc_int__baselibs__result--><g id="elem_logic_arc_int__baselibs__result"><rect fill="#F1F1F1" height="40" id="logic_arc_int__baselibs__result" rx="2.5" ry="2.5" style="stroke:#181818;stroke-width:0.5;" width="244.4609" x="2310.5" y="158.5"/><ellipse cx="2325.5" cy="174.5" fill="#ADD1B2" rx="11" ry="11" style="stroke:#181818;stroke-width:1;"/><path d="M2328.4688,180.1406 Q2327.8906,180.4375 2327.25,180.5781 Q2326.6094,180.7344 2325.9063,180.7344 Q2323.4063,180.7344 2322.0781,179.0938 Q2320.7656,177.4375 2320.7656,174.3125 Q2320.7656,171.1875 2322.0781,169.5313 Q2323.4063,167.875 2325.9063,167.875 Q2326.6094,167.875 2327.25,168.0313 Q2327.9063,168.1875 2328.4688,168.4844 L2328.4688,171.2031 Q2327.8438,170.625 2327.25,170.3594 Q2326.6563,170.0781 2326.0313,170.0781 Q2324.6875,170.0781 2324,171.1563 Q2323.3125,172.2188 2323.3125,174.3125 Q2323.3125,176.4063 2324,177.4844 Q2324.6875,178.5469 2326.0313,178.5469 Q2326.6563,178.5469 2327.25,178.2813 Q2327.8438,178 2328.4688,177.4219 L2328.4688,180.1406 Z " fill="#000000"/><text fill="#000000" font-family="sans-serif" font-size="14" lengthAdjust="spacing" textLength="212.4609" x="2339.5" y="179.3467">logic_arc_int__baselibs__result</text><line style="stroke:#181818;stroke-width:0.5;" x1="2311.5" x2="2553.9609" y1="190.5" y2="190.5"/></g><!--class logic_arc_int__baselibs__memory_shared--><g id="elem_logic_arc_int__baselibs__memory_shared"><rect fill="#F1F1F1" height="40" id="logic_arc_int__baselibs__memory_shared" rx="2.5" ry="2.5" style="stroke:#181818;stroke-width:0.5;" width="318.043" x="5871.5" y="158.5"/><ellipse cx="5886.5" cy="174.5" fill="#ADD1B2" rx="11" ry="11" style="stroke:#181818;stroke-width:1;"/><path d="M5889.4688,180.1406 Q5888.8906,180.4375 5888.25,180.5781 Q5887.6094,180.7344 5886.9063,180.7344 Q5884.4063,180.7344 5883.0781,179.0938 Q5881.7656,177.4375 5881.7656,174.3125 Q5881.7656,171.1875 5883.0781,169.5313 Q5884.4063,167.875 5886.9063,167.875 Q5887.6094,167.875 5888.25,168.0313 Q5888.9063,168.1875 5889.4688,168.4844 L5889.4688,171.2031 Q5888.8438,170.625 5888.25,170.3594 Q5887.6563,170.0781 5887.0313,170.0781 Q5885.6875,170.0781 5885,171.1563 Q5884.3125,172.2188 5884.3125,174.3125 Q5884.3125,176.4063 5885,177.4844 Q5885.6875,178.5469 5887.0313,178.5469 Q5887.6563,178.5469 5888.25,178.2813 Q5888.8438,178 5889.4688,177.4219 L5889.4688,180.1406 Z " fill="#000000"/><text fill="#000000" font-family="sans-serif" font-size="14" lengthAdjust="spacing" textLength="286.043" x="5900.5" y="179.3467">logic_arc_int__baselibs__memory_shared</text><line style="stroke:#181818;stroke-width:0.5;" x1="5872.5" x2="6188.543" y1="190.5" y2="190.5"/></g><!--class logic_arc_int__baselibs__task--><g id="elem_logic_arc_int__baselibs__task"><rect fill="#F1F1F1" height="40" id="logic_arc_int__baselibs__task" rx="2.5" ry="2.5" style="stroke:#181818;stroke-width:0.5;" width="234.0156" x="4568.5" y="158.5"/><ellipse cx="4583.5" cy="174.5" fill="#ADD1B2" rx="11" ry="11" style="stroke:#181818;stroke-width:1;"/><path d="M4586.4688,180.1406 Q4585.8906,180.4375 4585.25,180.5781 Q4584.6094,180.7344 4583.9063,180.7344 Q4581.4063,180.7344 4580.0781,179.0938 Q4578.7656,177.4375 4578.7656,174.3125 Q4578.7656,171.1875 4580.0781,169.5313 Q4581.4063,167.875 4583.9063,167.875 Q4584.6094,167.875 4585.25,168.0313 Q4585.9063,168.1875 4586.4688,168.4844 L4586.4688,171.2031 Q4585.8438,170.625 4585.25,170.3594 Q4584.6563,170.0781 4584.0313,170.0781 Q4582.6875,170.0781 4582,171.1563 Q4581.3125,172.2188 4581.3125,174.3125 Q4581.3125,176.4063 4582,177.4844 Q4582.6875,178.5469 4584.0313,178.5469 Q4584.6563,178.5469 4585.25,178.2813 Q4585.8438,178 4586.4688,177.4219 L4586.4688,180.1406 Z " fill="#000000"/><text fill="#000000" font-family="sans-serif" font-size="14" lengthAdjust="spacing" textLength="202.0156" x="4597.5" y="179.3467">logic_arc_int__baselibs__task</text><line style="stroke:#181818;stroke-width:0.5;" x1="4569.5" x2="4801.5156" y1="190.5" y2="190.5"/></g><!--class logic_arc_int__baselibs__intrusive_list--><g id="elem_logic_arc_int__baselibs__intrusive_list"><rect fill="#F1F1F1" height="40" id="logic_arc_int__baselibs__intrusive_list" rx="2.5" ry="2.5" style="stroke:#181818;stroke-width:0.5;" width="293.0713" x="993" y="158.5"/><ellipse cx="1008" cy="174.5" fill="#ADD1B2" rx="11" ry="11" style="stroke:#181818;stroke-width:1;"/><path d="M1010.9688,180.1406 Q1010.3906,180.4375 1009.75,180.5781 Q1009.1094,180.7344 1008.4063,180.7344 Q1005.9063,180.7344 1004.5781,179.0938 Q1003.2656,177.4375 1003.2656,174.3125 Q1003.2656,171.1875 1004.5781,169.5313 Q1005.9063,167.875 1008.4063,167.875 Q1009.1094,167.875 1009.75,168.0313 Q1010.4063,168.1875 1010.9688,168.4844 L1010.9688,171.2031 Q1010.3438,170.625 1009.75,170.3594 Q1009.1563,170.0781 1008.5313,170.0781 Q1007.1875,170.0781 1006.5,171.1563 Q1005.8125,172.2188 1005.8125,174.3125 Q1005.8125,176.4063 1006.5,177.4844 Q1007.1875,178.5469 1008.5313,178.5469 Q1009.1563,178.5469 1009.75,178.2813 Q1010.3438,178 1010.9688,177.4219 L1010.9688,180.1406 Z " fill="#000000"/><text fill="#000000" font-family="sans-serif" font-size="14" lengthAdjust="spacing" textLength="261.0713" x="1022" y="179.3467">logic_arc_int__baselibs__intrusive_list</text><line style="stroke:#181818;stroke-width:0.5;" x1="994" x2="1285.0713" y1="190.5" y2="190.5"/></g><!--class comp_arc_sta__baselibs__bit_manipulation--><g id="elem_comp_arc_sta__baselibs__bit_manipulation"><rect fill="#F1F1F1" height="40" id="comp_arc_sta__baselibs__bit_manipulation" rx="2.5" ry="2.5" style="stroke:#181818;stroke-width:0.5;" width="330.8057" x="2743" y="275.5"/><ellipse cx="2758" cy="291.5" fill="#ADD1B2" rx="11" ry="11" style="stroke:#181818;stroke-width:1;"/><path d="M2760.9688,297.1406 Q2760.3906,297.4375 2759.75,297.5781 Q2759.1094,297.7344 2758.4063,297.7344 Q2755.9063,297.7344 2754.5781,296.0938 Q2753.2656,294.4375 2753.2656,291.3125 Q2753.2656,288.1875 2754.5781,286.5313 Q2755.9063,284.875 2758.4063,284.875 Q2759.1094,284.875 2759.75,285.0313 Q2760.4063,285.1875 2760.9688,285.4844 L2760.9688,288.2031 Q2760.3438,287.625 2759.75,287.3594 Q2759.1563,287.0781 2758.5313,287.0781 Q2757.1875,287.0781 2756.5,288.1563 Q2755.8125,289.2188 2755.8125,291.3125 Q2755.8125,293.4063 2756.5,294.4844 Q2757.1875,295.5469 2758.5313,295.5469 Q2759.1563,295.5469 2759.75,295.2813 Q2760.3438,295 2760.9688,294.4219 L2760.9688,297.1406 Z " fill="#000000"/><text fill="#000000" font-family="sans-serif" font-size="14" lengthAdjust="spacing" textLength="298.8057" x="2772" y="296.3467">comp_arc_sta__baselibs__bit_manipulation</text><line style="stroke:#181818;stroke-width:0.5;" x1="2744" x2="3072.8057" y1="307.5" y2="307.5"/></g><!--class logic_arc_int__baselibs__bit_manipulation--><g id="elem_logic_arc_int__baselibs__bit_manipulation"><rect fill="#F1F1F1" height="40" id="logic_arc_int__baselibs__bit_manipulation" rx="2.5" ry="2.5" style="stroke:#181818;stroke-width:0.5;" width="321.8369" x="2960.5" y="158.5"/><ellipse cx="2975.5" cy="174.5" fill="#ADD1B2" rx="11" ry="11" style="stroke:#181818;stroke-width:1;"/><path d="M2978.4688,180.1406 Q2977.8906,180.4375 2977.25,180.5781 Q2976.6094,180.7344 2975.9063,180.7344 Q2973.4063,180.7344 2972.0781,179.0938 Q2970.7656,177.4375 2970.7656,174.3125 Q2970.7656,171.1875 2972.0781,169.5313 Q2973.4063,167.875 2975.9063,167.875 Q2976.6094,167.875 2977.25,168.0313 Q2977.9063,168.1875 2978.4688,168.4844 L2978.4688,171.2031 Q2977.8438,170.625 2977.25,170.3594 Q2976.6563,170.0781 2976.0313,170.0781 Q2974.6875,170.0781 2974,171.1563 Q2973.3125,172.2188 2973.3125,174.3125 Q2973.3125,176.4063 2974,177.4844 Q2974.6875,178.5469 2976.0313,178.5469 Q2976.6563,178.5469 2977.25,178.2813 Q2977.8438,178 2978.4688,177.4219 L2978.4688,180.1406 Z " fill="#000000"/><text fill="#000000" font-family="sans-serif" font-size="14" lengthAdjust="spacing" textLength="289.8369" x="2989.5" y="179.3467">logic_arc_int__baselibs__bit_manipulation</text><line style="stroke:#181818;stroke-width:0.5;" x1="2961.5" x2="3281.3369" y1="190.5" y2="190.5"/></g><!--class logic_arc_int__baselibs__task_result--><g id="elem_logic_arc_int__baselibs__task_result"><rect fill="#F1F1F1" height="40" id="logic_arc_int__baselibs__task_result" rx="2.5" ry="2.5" style="stroke:#181818;stroke-width:0.5;" width="280.9307" x="4252" y="158.5"/><ellipse cx="4267" cy="174.5" fill="#ADD1B2" rx="11" ry="11" style="stroke:#181818;stroke-width:1;"/><path d="M4269.9688,180.1406 Q4269.3906,180.4375 4268.75,180.5781 Q4268.1094,180.7344 4267.4063,180.7344 Q4264.9063,180.7344 4263.5781,179.0938 Q4262.2656,177.4375 4262.2656,174.3125 Q4262.2656,171.1875 4263.5781,169.5313 Q4264.9063,167.875 4267.4063,167.875 Q4268.1094,167.875 4268.75,168.0313 Q4269.4063,168.1875 4269.9688,168.4844 L4269.9688,171.2031 Q4269.3438,170.625 4268.75,170.3594 Q4268.1563,170.0781 4267.5313,170.0781 Q4266.1875,170.0781 4265.5,171.1563 Q4264.8125,172.2188 4264.8125,174.3125 Q4264.8125,176.4063 4265.5,177.4844 Q4266.1875,178.5469 4267.5313,178.5469 Q4268.1563,178.5469 4268.75,178.2813 Q4269.3438,178 4269.9688,177.4219 L4269.9688,180.1406 Z " fill="#000000"/><text fill="#000000" font-family="sans-serif" font-size="14" lengthAdjust="spacing" textLength="248.9307" x="4281" y="179.3467">logic_arc_int__baselibs__task_result</text><line style="stroke:#181818;stroke-width:0.5;" x1="4253" x2="4531.9307" y1="190.5" y2="190.5"/></g><!--class logic_arc_int__baselibs__filesystem--><g id="elem_logic_arc_int__baselibs__filesystem"><rect fill="#F1F1F1" height="40" id="logic_arc_int__baselibs__filesystem" rx="2.5" ry="2.5" style="stroke:#181818;stroke-width:0.5;" width="276.4805" x="1321.5" y="158.5"/><ellipse cx="1336.5" cy="174.5" fill="#ADD1B2" rx="11" ry="11" style="stroke:#181818;stroke-width:1;"/><path d="M1339.4688,180.1406 Q1338.8906,180.4375 1338.25,180.5781 Q1337.6094,180.7344 1336.9063,180.7344 Q1334.4063,180.7344 1333.0781,179.0938 Q1331.7656,177.4375 1331.7656,174.3125 Q1331.7656,171.1875 1333.0781,169.5313 Q1334.4063,167.875 1336.9063,167.875 Q1337.6094,167.875 1338.25,168.0313 Q1338.9063,168.1875 1339.4688,168.4844 L1339.4688,171.2031 Q1338.8438,170.625 1338.25,170.3594 Q1337.6563,170.0781 1337.0313,170.0781 Q1335.6875,170.0781 1335,171.1563 Q1334.3125,172.2188 1334.3125,174.3125 Q1334.3125,176.4063 1335,177.4844 Q1335.6875,178.5469 1337.0313,178.5469 Q1337.6563,178.5469 1338.25,178.2813 Q1338.8438,178 1339.4688,177.4219 L1339.4688,180.1406 Z " fill="#000000"/><text fill="#000000" font-family="sans-serif" font-size="14" lengthAdjust="spacing" textLength="244.4805" x="1350.5" y="179.3467">logic_arc_int__baselibs__filesystem</text><line style="stroke:#181818;stroke-width:0.5;" x1="1322.5" x2="1596.9805" y1="190.5" y2="190.5"/></g><!--class comp_arc_sta__baselibs__memory_shared--><g id="elem_comp_arc_sta__baselibs__memory_shared"><rect fill="#F1F1F1" height="40" id="comp_arc_sta__baselibs__memory_shared" rx="2.5" ry="2.5" style="stroke:#181818;stroke-width:0.5;" width="327.0117" x="5867" y="275.5"/><ellipse cx="5882" cy="291.5" fill="#ADD1B2" rx="11" ry="11" style="stroke:#181818;stroke-width:1;"/><path d="M5884.9688,297.1406 Q5884.3906,297.4375 5883.75,297.5781 Q5883.1094,297.7344 5882.4063,297.7344 Q5879.9063,297.7344 5878.5781,296.0938 Q5877.2656,294.4375 5877.2656,291.3125 Q5877.2656,288.1875 5878.5781,286.5313 Q5879.9063,284.875 5882.4063,284.875 Q5883.1094,284.875 5883.75,285.0313 Q5884.4063,285.1875 5884.9688,285.4844 L5884.9688,288.2031 Q5884.3438,287.625 5883.75,287.3594 Q5883.1563,287.0781 5882.5313,287.0781 Q5881.1875,287.0781 5880.5,288.1563 Q5879.8125,289.2188 5879.8125,291.3125 Q5879.8125,293.4063 5880.5,294.4844 Q5881.1875,295.5469 5882.5313,295.5469 Q5883.1563,295.5469 5883.75,295.2813 Q5884.3438,295 5884.9688,294.4219 L5884.9688,297.1406 Z " fill="#000000"/><text fill="#000000" font-family="sans-serif" font-size="14" lengthAdjust="spacing" textLength="295.0117" x="5896" y="296.3467">comp_arc_sta__baselibs__memory_shared</text><line style="stroke:#181818;stroke-width:0.5;" x1="5868" x2="6193.0117" y1="307.5" y2="307.5"/></g><!--class comp_arc_sta__baselibs__utils--><g id="elem_comp_arc_sta__baselibs__utils"><rect fill="#F1F1F1" height="40" id="comp_arc_sta__baselibs__utils" rx="2.5" ry="2.5" style="stroke:#181818;stroke-width:0.5;" width="242.9502" x="1826" y="275.5"/><ellipse cx="1841" cy="291.5" fill="#ADD1B2" rx="11" ry="11" style="stroke:#181818;stroke-width:1;"/><path d="M1843.9688,297.1406 Q1843.3906,297.4375 1842.75,297.5781 Q1842.1094,297.7344 1841.4063,297.7344 Q1838.9063,297.7344 1837.5781,296.0938 Q1836.2656,294.4375 1836.2656,291.3125 Q1836.2656,288.1875 1837.5781,286.5313 Q1838.9063,284.875 1841.4063,284.875 Q1842.1094,284.875 1842.75,285.0313 Q1843.4063,285.1875 1843.9688,285.4844 L1843.9688,288.2031 Q1843.3438,287.625 1842.75,287.3594 Q1842.1563,287.0781 1841.5313,287.0781 Q1840.1875,287.0781 1839.5,288.1563 Q1838.8125,289.2188 1838.8125,291.3125 Q1838.8125,293.4063 1839.5,294.4844 Q1840.1875,295.5469 1841.5313,295.5469 Q1842.1563,295.5469 1842.75,295.2813 Q1843.3438,295 1843.9688,294.4219 L1843.9688,297.1406 Z " fill="#000000"/><text fill="#000000" font-family="sans-serif" font-size="14" lengthAdjust="spacing" textLength="210.9502" x="1855" y="296.3467">comp_arc_sta__baselibs__utils</text><line style="stroke:#181818;stroke-width:0.5;" x1="1827" x2="2067.9502" y1="307.5" y2="307.5"/></g><!--class logic_arc_int__baselibs__utils_scoped_op--><g id="elem_logic_arc_int__baselibs__utils_scoped_op"><rect fill="#F1F1F1" height="40" id="logic_arc_int__baselibs__utils_scoped_op" rx="2.5" ry="2.5" style="stroke:#181818;stroke-width:0.5;" width="315.377" x="1960" y="158.5"/><ellipse cx="1975" cy="174.5" fill="#ADD1B2" rx="11" ry="11" style="stroke:#181818;stroke-width:1;"/><path d="M1977.9688,180.1406 Q1977.3906,180.4375 1976.75,180.5781 Q1976.1094,180.7344 1975.4063,180.7344 Q1972.9063,180.7344 1971.5781,179.0938 Q1970.2656,177.4375 1970.2656,174.3125 Q1970.2656,171.1875 1971.5781,169.5313 Q1972.9063,167.875 1975.4063,167.875 Q1976.1094,167.875 1976.75,168.0313 Q1977.4063,168.1875 1977.9688,168.4844 L1977.9688,171.2031 Q1977.3438,170.625 1976.75,170.3594 Q1976.1563,170.0781 1975.5313,170.0781 Q1974.1875,170.0781 1973.5,171.1563 Q1972.8125,172.2188 1972.8125,174.3125 Q1972.8125,176.4063 1973.5,177.4844 Q1974.1875,178.5469 1975.5313,178.5469 Q1976.1563,178.5469 1976.75,178.2813 Q1977.3438,178 1977.9688,177.4219 L1977.9688,180.1406 Z " fill="#000000"/><text fill="#000000" font-family="sans-serif" font-size="14" lengthAdjust="spacing" textLength="283.377" x="1989" y="179.3467">logic_arc_int__baselibs__utils_scoped_op</text><line style="stroke:#181818;stroke-width:0.5;" x1="1961" x2="2274.377" y1="190.5" y2="190.5"/></g><!--class logic_arc_int__baselibs__executor--><g id="elem_logic_arc_int__baselibs__executor"><rect fill="#F1F1F1" height="40" id="logic_arc_int__baselibs__executor" rx="2.5" ry="2.5" style="stroke:#181818;stroke-width:0.5;" width="266.4385" x="3654.5" y="158.5"/><ellipse cx="3669.5" cy="174.5" fill="#ADD1B2" rx="11" ry="11" style="stroke:#181818;stroke-width:1;"/><path d="M3672.4688,180.1406 Q3671.8906,180.4375 3671.25,180.5781 Q3670.6094,180.7344 3669.9063,180.7344 Q3667.4063,180.7344 3666.0781,179.0938 Q3664.7656,177.4375 3664.7656,174.3125 Q3664.7656,171.1875 3666.0781,169.5313 Q3667.4063,167.875 3669.9063,167.875 Q3670.6094,167.875 3671.25,168.0313 Q3671.9063,168.1875 3672.4688,168.4844 L3672.4688,171.2031 Q3671.8438,170.625 3671.25,170.3594 Q3670.6563,170.0781 3670.0313,170.0781 Q3668.6875,170.0781 3668,171.1563 Q3667.3125,172.2188 3667.3125,174.3125 Q3667.3125,176.4063 3668,177.4844 Q3668.6875,178.5469 3670.0313,178.5469 Q3670.6563,178.5469 3671.25,178.2813 Q3671.8438,178 3672.4688,177.4219 L3672.4688,180.1406 Z " fill="#000000"/><text fill="#000000" font-family="sans-serif" font-size="14" lengthAdjust="spacing" textLength="234.4385" x="3683.5" y="179.3467">logic_arc_int__baselibs__executor</text><line style="stroke:#181818;stroke-width:0.5;" x1="3655.5" x2="3919.9385" y1="190.5" y2="190.5"/></g><!--class logic_arc_int__baselibs__shared_future--><g id="elem_logic_arc_int__baselibs__shared_future"><rect fill="#F1F1F1" height="40" id="logic_arc_int__baselibs__shared_future" rx="2.5" ry="2.5" style="stroke:#181818;stroke-width:0.5;" width="302.0811" x="3317.5" y="158.5"/><ellipse cx="3332.5" cy="174.5" fill="#ADD1B2" rx="11" ry="11" style="stroke:#181818;stroke-width:1;"/><path d="M3335.4688,180.1406 Q3334.8906,180.4375 3334.25,180.5781 Q3333.6094,180.7344 3332.9063,180.7344 Q3330.4063,180.7344 3329.0781,179.0938 Q3327.7656,177.4375 3327.7656,174.3125 Q3327.7656,171.1875 3329.0781,169.5313 Q3330.4063,167.875 3332.9063,167.875 Q3333.6094,167.875 3334.25,168.0313 Q3334.9063,168.1875 3335.4688,168.4844 L3335.4688,171.2031 Q3334.8438,170.625 3334.25,170.3594 Q3333.6563,170.0781 3333.0313,170.0781 Q3331.6875,170.0781 3331,171.1563 Q3330.3125,172.2188 3330.3125,174.3125 Q3330.3125,176.4063 3331,177.4844 Q3331.6875,178.5469 3333.0313,178.5469 Q3333.6563,178.5469 3334.25,178.2813 Q3334.8438,178 3335.4688,177.4219 L3335.4688,180.1406 Z " fill="#000000"/><text fill="#000000" font-family="sans-serif" font-size="14" lengthAdjust="spacing" textLength="270.0811" x="3346.5" y="179.3467">logic_arc_int__baselibs__shared_future</text><line style="stroke:#181818;stroke-width:0.5;" x1="3318.5" x2="3618.5811" y1="190.5" y2="190.5"/></g><!--class comp_arc_sta__baselibs__result--><g id="elem_comp_arc_sta__baselibs__result"><rect fill="#F1F1F1" height="40" id="comp_arc_sta__baselibs__result" rx="2.5" ry="2.5" style="stroke:#181818;stroke-width:0.5;" width="253.4297" x="2306" y="275.5"/><ellipse cx="2321" cy="291.5" fill="#ADD1B2" rx="11" ry="11" style="stroke:#181818;stroke-width:1;"/><path d="M2323.9688,297.1406 Q2323.3906,297.4375 2322.75,297.5781 Q2322.1094,297.7344 2321.4063,297.7344 Q2318.9063,297.7344 2317.5781,296.0938 Q2316.2656,294.4375 2316.2656,291.3125 Q2316.2656,288.1875 2317.5781,286.5313 Q2318.9063,284.875 2321.4063,284.875 Q2322.1094,284.875 2322.75,285.0313 Q2323.4063,285.1875 2323.9688,285.4844 L2323.9688,288.2031 Q2323.3438,287.625 2322.75,287.3594 Q2322.1563,287.0781 2321.5313,287.0781 Q2320.1875,287.0781 2319.5,288.1563 Q2318.8125,289.2188 2318.8125,291.3125 Q2318.8125,293.4063 2319.5,294.4844 Q2320.1875,295.5469 2321.5313,295.5469 Q2322.1563,295.5469 2322.75,295.2813 Q2323.3438,295 2323.9688,294.4219 L2323.9688,297.1406 Z " fill="#000000"/><text fill="#000000" font-family="sans-serif" font-size="14" lengthAdjust="spacing" textLength="221.4297" x="2335" y="296.3467">comp_arc_sta__baselibs__result</text><line style="stroke:#181818;stroke-width:0.5;" x1="2307" x2="2558.4297" y1="307.5" y2="307.5"/></g><!--class logic_arc_int__baselibs__condition_variable--><g id="elem_logic_arc_int__baselibs__condition_variable"><rect fill="#F1F1F1" height="40" id="logic_arc_int__baselibs__condition_variable" rx="2.5" ry="2.5" style="stroke:#181818;stroke-width:0.5;" width="332.7539" x="5503" y="158.5"/><ellipse cx="5518" cy="174.5" fill="#ADD1B2" rx="11" ry="11" style="stroke:#181818;stroke-width:1;"/><path d="M5520.9688,180.1406 Q5520.3906,180.4375 5519.75,180.5781 Q5519.1094,180.7344 5518.4063,180.7344 Q5515.9063,180.7344 5514.5781,179.0938 Q5513.2656,177.4375 5513.2656,174.3125 Q5513.2656,171.1875 5514.5781,169.5313 Q5515.9063,167.875 5518.4063,167.875 Q5519.1094,167.875 5519.75,168.0313 Q5520.4063,168.1875 5520.9688,168.4844 L5520.9688,171.2031 Q5520.3438,170.625 5519.75,170.3594 Q5519.1563,170.0781 5518.5313,170.0781 Q5517.1875,170.0781 5516.5,171.1563 Q5515.8125,172.2188 5515.8125,174.3125 Q5515.8125,176.4063 5516.5,177.4844 Q5517.1875,178.5469 5518.5313,178.5469 Q5519.1563,178.5469 5519.75,178.2813 Q5520.3438,178 5520.9688,177.4219 L5520.9688,180.1406 Z " fill="#000000"/><text fill="#000000" font-family="sans-serif" font-size="14" lengthAdjust="spacing" textLength="300.7539" x="5532" y="179.3467">logic_arc_int__baselibs__condition_variable</text><line style="stroke:#181818;stroke-width:0.5;" x1="5504" x2="5834.7539" y1="190.5" y2="190.5"/></g><!--class logic_arc_int__baselibs__future--><g id="elem_logic_arc_int__baselibs__future"><rect fill="#F1F1F1" height="40" id="logic_arc_int__baselibs__future" rx="2.5" ry="2.5" style="stroke:#181818;stroke-width:0.5;" width="247.0791" x="5221" y="158.5"/><ellipse cx="5236" cy="174.5" fill="#ADD1B2" rx="11" ry="11" style="stroke:#181818;stroke-width:1;"/><path d="M5238.9688,180.1406 Q5238.3906,180.4375 5237.75,180.5781 Q5237.1094,180.7344 5236.4063,180.7344 Q5233.9063,180.7344 5232.5781,179.0938 Q5231.2656,177.4375 5231.2656,174.3125 Q5231.2656,171.1875 5232.5781,169.5313 Q5233.9063,167.875 5236.4063,167.875 Q5237.1094,167.875 5237.75,168.0313 Q5238.4063,168.1875 5238.9688,168.4844 L5238.9688,171.2031 Q5238.3438,170.625 5237.75,170.3594 Q5237.1563,170.0781 5236.5313,170.0781 Q5235.1875,170.0781 5234.5,171.1563 Q5233.8125,172.2188 5233.8125,174.3125 Q5233.8125,176.4063 5234.5,177.4844 Q5235.1875,178.5469 5236.5313,178.5469 Q5237.1563,178.5469 5237.75,178.2813 Q5238.3438,178 5238.9688,177.4219 L5238.9688,180.1406 Z " fill="#000000"/><text fill="#000000" font-family="sans-serif" font-size="14" lengthAdjust="spacing" textLength="215.0791" x="5250" y="179.3467">logic_arc_int__baselibs__future</text><line style="stroke:#181818;stroke-width:0.5;" x1="5222" x2="5467.0791" y1="190.5" y2="190.5"/></g><!--class logic_arc_int__baselibs__utils_base64--><g id="elem_logic_arc_int__baselibs__utils_base64"><rect fill="#F1F1F1" height="40" id="logic_arc_int__baselibs__utils_base64" rx="2.5" ry="2.5" style="stroke:#181818;stroke-width:0.5;" width="292.1689" x="1632.5" y="158.5"/><ellipse cx="1647.5" cy="174.5" fill="#ADD1B2" rx="11" ry="11" style="stroke:#181818;stroke-width:1;"/><path d="M1650.4688,180.1406 Q1649.8906,180.4375 1649.25,180.5781 Q1648.6094,180.7344 1647.9063,180.7344 Q1645.4063,180.7344 1644.0781,179.0938 Q1642.7656,177.4375 1642.7656,174.3125 Q1642.7656,171.1875 1644.0781,169.5313 Q1645.4063,167.875 1647.9063,167.875 Q1648.6094,167.875 1649.25,168.0313 Q1649.9063,168.1875 1650.4688,168.4844 L1650.4688,171.2031 Q1649.8438,170.625 1649.25,170.3594 Q1648.6563,170.0781 1648.0313,170.0781 Q1646.6875,170.0781 1646,171.1563 Q1645.3125,172.2188 1645.3125,174.3125 Q1645.3125,176.4063 1646,177.4844 Q1646.6875,178.5469 1648.0313,178.5469 Q1648.6563,178.5469 1649.25,178.2813 Q1649.8438,178 1650.4688,177.4219 L1650.4688,180.1406 Z " fill="#000000"/><text fill="#000000" font-family="sans-serif" font-size="14" lengthAdjust="spacing" textLength="260.1689" x="1661.5" y="179.3467">logic_arc_int__baselibs__utils_base64</text><line style="stroke:#181818;stroke-width:0.5;" x1="1633.5" x2="1923.6689" y1="190.5" y2="190.5"/></g><!--class logic_arc_int__baselibs__message_passing--><g id="elem_logic_arc_int__baselibs__message_passing"><rect fill="#F1F1F1" height="40" id="logic_arc_int__baselibs__message_passing" rx="2.5" ry="2.5" style="stroke:#181818;stroke-width:0.5;" width="328.167" x="15.5" y="158.5"/><ellipse cx="30.5" cy="174.5" fill="#ADD1B2" rx="11" ry="11" style="stroke:#181818;stroke-width:1;"/><path d="M33.4688,180.1406 Q32.8906,180.4375 32.25,180.5781 Q31.6094,180.7344 30.9063,180.7344 Q28.4063,180.7344 27.0781,179.0938 Q25.7656,177.4375 25.7656,174.3125 Q25.7656,171.1875 27.0781,169.5313 Q28.4063,167.875 30.9063,167.875 Q31.6094,167.875 32.25,168.0313 Q32.9063,168.1875 33.4688,168.4844 L33.4688,171.2031 Q32.8438,170.625 32.25,170.3594 Q31.6563,170.0781 31.0313,170.0781 Q29.6875,170.0781 29,171.1563 Q28.3125,172.2188 28.3125,174.3125 Q28.3125,176.4063 29,177.4844 Q29.6875,178.5469 31.0313,178.5469 Q31.6563,178.5469 32.25,178.2813 Q32.8438,178 33.4688,177.4219 L33.4688,180.1406 Z " fill="#000000"/><text fill="#000000" font-family="sans-serif" font-size="14" lengthAdjust="spacing" textLength="296.167" x="44.5" y="179.3467">logic_arc_int__baselibs__message_passing</text><line style="stroke:#181818;stroke-width:0.5;" x1="16.5" x2="342.667" y1="190.5" y2="190.5"/></g><!--class logic_arc_int__baselibs__json--><g id="elem_logic_arc_int__baselibs__json"><rect fill="#F1F1F1" height="40" id="logic_arc_int__baselibs__json" rx="2.5" ry="2.5" style="stroke:#181818;stroke-width:0.5;" width="233.168" x="381" y="158.5"/><ellipse cx="396" cy="174.5" fill="#ADD1B2" rx="11" ry="11" style="stroke:#181818;stroke-width:1;"/><path d="M398.9688,180.1406 Q398.3906,180.4375 397.75,180.5781 Q397.1094,180.7344 396.4063,180.7344 Q393.9063,180.7344 392.5781,179.0938 Q391.2656,177.4375 391.2656,174.3125 Q391.2656,171.1875 392.5781,169.5313 Q393.9063,167.875 396.4063,167.875 Q397.1094,167.875 397.75,168.0313 Q398.4063,168.1875 398.9688,168.4844 L398.9688,171.2031 Q398.3438,170.625 397.75,170.3594 Q397.1563,170.0781 396.5313,170.0781 Q395.1875,170.0781 394.5,171.1563 Q393.8125,172.2188 393.8125,174.3125 Q393.8125,176.4063 394.5,177.4844 Q395.1875,178.5469 396.5313,178.5469 Q397.1563,178.5469 397.75,178.2813 Q398.3438,178 398.9688,177.4219 L398.9688,180.1406 Z " fill="#000000"/><text fill="#000000" font-family="sans-serif" font-size="14" lengthAdjust="spacing" textLength="201.168" x="410" y="179.3467">logic_arc_int__baselibs__json</text><line style="stroke:#181818;stroke-width:0.5;" x1="382" x2="613.168" y1="190.5" y2="190.5"/></g><!--class comp_arc_sta__baselibs__containers--><g id="elem_comp_arc_sta__baselibs__containers"><rect fill="#F1F1F1" height="40" id="comp_arc_sta__baselibs__containers" rx="2.5" ry="2.5" style="stroke:#181818;stroke-width:0.5;" width="287.1445" x="828" y="275.5"/><ellipse cx="843" cy="291.5" fill="#ADD1B2" rx="11" ry="11" style="stroke:#181818;stroke-width:1;"/><path d="M845.9688,297.1406 Q845.3906,297.4375 844.75,297.5781 Q844.1094,297.7344 843.4063,297.7344 Q840.9063,297.7344 839.5781,296.0938 Q838.2656,294.4375 838.2656,291.3125 Q838.2656,288.1875 839.5781,286.5313 Q840.9063,284.875 843.4063,284.875 Q844.1094,284.875 844.75,285.0313 Q845.4063,285.1875 845.9688,285.4844 L845.9688,288.2031 Q845.3438,287.625 844.75,287.3594 Q844.1563,287.0781 843.5313,287.0781 Q842.1875,287.0781 841.5,288.1563 Q840.8125,289.2188 840.8125,291.3125 Q840.8125,293.4063 841.5,294.4844 Q842.1875,295.5469 843.5313,295.5469 Q844.1563,295.5469 844.75,295.2813 Q845.3438,295 845.9688,294.4219 L845.9688,297.1406 Z " fill="#000000"/><text fill="#000000" font-family="sans-serif" font-size="14" lengthAdjust="spacing" textLength="255.1445" x="857" y="296.3467">comp_arc_sta__baselibs__containers</text><line style="stroke:#181818;stroke-width:0.5;" x1="829" x2="1114.1445" y1="307.5" y2="307.5"/></g><!--class logic_arc_int__baselibs__dynamic_array--><g id="elem_logic_arc_int__baselibs__dynamic_array"><rect fill="#F1F1F1" height="40" id="logic_arc_int__baselibs__dynamic_array" rx="2.5" ry="2.5" style="stroke:#181818;stroke-width:0.5;" width="308.3496" x="649.5" y="158.5"/><ellipse cx="664.5" cy="174.5" fill="#ADD1B2" rx="11" ry="11" style="stroke:#181818;stroke-width:1;"/><path d="M667.4688,180.1406 Q666.8906,180.4375 666.25,180.5781 Q665.6094,180.7344 664.9063,180.7344 Q662.4063,180.7344 661.0781,179.0938 Q659.7656,177.4375 659.7656,174.3125 Q659.7656,171.1875 661.0781,169.5313 Q662.4063,167.875 664.9063,167.875 Q665.6094,167.875 666.25,168.0313 Q666.9063,168.1875 667.4688,168.4844 L667.4688,171.2031 Q666.8438,170.625 666.25,170.3594 Q665.6563,170.0781 665.0313,170.0781 Q663.6875,170.0781 663,171.1563 Q662.3125,172.2188 662.3125,174.3125 Q662.3125,176.4063 663,177.4844 Q663.6875,178.5469 665.0313,178.5469 Q665.6563,178.5469 666.25,178.2813 Q666.8438,178 667.4688,177.4219 L667.4688,180.1406 Z " fill="#000000"/><text fill="#000000" font-family="sans-serif" font-size="14" lengthAdjust="spacing" textLength="276.3496" x="678.5" y="179.3467">logic_arc_int__baselibs__dynamic_array</text><line style="stroke:#181818;stroke-width:0.5;" x1="650.5" x2="956.8496" y1="190.5" y2="190.5"/></g><!--class comp_arc_sta__baselibs__filesystem--><g id="elem_comp_arc_sta__baselibs__filesystem"><rect fill="#F1F1F1" height="40" id="comp_arc_sta__baselibs__filesystem" rx="2.5" ry="2.5" style="stroke:#181818;stroke-width:0.5;" width="285.4492" x="1317" y="275.5"/><ellipse cx="1332" cy="291.5" fill="#ADD1B2" rx="11" ry="11" style="stroke:#181818;stroke-width:1;"/><path d="M1334.9688,297.1406 Q1334.3906,297.4375 1333.75,297.5781 Q1333.1094,297.7344 1332.4063,297.7344 Q1329.9063,297.7344 1328.5781,296.0938 Q1327.2656,294.4375 1327.2656,291.3125 Q1327.2656,288.1875 1328.5781,286.5313 Q1329.9063,284.875 1332.4063,284.875 Q1333.1094,284.875 1333.75,285.0313 Q1334.4063,285.1875 1334.9688,285.4844 L1334.9688,288.2031 Q1334.3438,287.625 1333.75,287.3594 Q1333.1563,287.0781 1332.5313,287.0781 Q1331.1875,287.0781 1330.5,288.1563 Q1329.8125,289.2188 1329.8125,291.3125 Q1329.8125,293.4063 1330.5,294.4844 Q1331.1875,295.5469 1332.5313,295.5469 Q1333.1563,295.5469 1333.75,295.2813 Q1334.3438,295 1334.9688,294.4219 L1334.9688,297.1406 Z " fill="#000000"/><text fill="#000000" font-family="sans-serif" font-size="14" lengthAdjust="spacing" textLength="253.4492" x="1346" y="296.3467">comp_arc_sta__baselibs__filesystem</text><line style="stroke:#181818;stroke-width:0.5;" x1="1318" x2="1601.4492" y1="307.5" y2="307.5"/></g><!--class comp_arc_sta__baselibs__json--><g id="elem_comp_arc_sta__baselibs__json"><rect fill="#F1F1F1" height="40" id="comp_arc_sta__baselibs__json" rx="2.5" ry="2.5" style="stroke:#181818;stroke-width:0.5;" width="242.1367" x="379.5" y="275.5"/><ellipse cx="394.5" cy="291.5" fill="#ADD1B2" rx="11" ry="11" style="stroke:#181818;stroke-width:1;"/><path d="M397.4688,297.1406 Q396.8906,297.4375 396.25,297.5781 Q395.6094,297.7344 394.9063,297.7344 Q392.4063,297.7344 391.0781,296.0938 Q389.7656,294.4375 389.7656,291.3125 Q389.7656,288.1875 391.0781,286.5313 Q392.4063,284.875 394.9063,284.875 Q395.6094,284.875 396.25,285.0313 Q396.9063,285.1875 397.4688,285.4844 L397.4688,288.2031 Q396.8438,287.625 396.25,287.3594 Q395.6563,287.0781 395.0313,287.0781 Q393.6875,287.0781 393,288.1563 Q392.3125,289.2188 392.3125,291.3125 Q392.3125,293.4063 393,294.4844 Q393.6875,295.5469 395.0313,295.5469 Q395.6563,295.5469 396.25,295.2813 Q396.8438,295 397.4688,294.4219 L397.4688,297.1406 Z " fill="#000000"/><text fill="#000000" font-family="sans-serif" font-size="14" lengthAdjust="spacing" textLength="210.1367" x="408.5" y="296.3467">comp_arc_sta__baselibs__json</text><line style="stroke:#181818;stroke-width:0.5;" x1="380.5" x2="620.6367" y1="307.5" y2="307.5"/></g><!--class comp_arc_sta__baselibs__message_passing--><g id="elem_comp_arc_sta__baselibs__message_passing"><rect fill="#F1F1F1" height="40" id="comp_arc_sta__baselibs__message_passing" rx="2.5" ry="2.5" style="stroke:#181818;stroke-width:0.5;" width="337.1357" x="7" y="275.5"/><ellipse cx="22" cy="291.5" fill="#ADD1B2" rx="11" ry="11" style="stroke:#181818;stroke-width:1;"/><path d="M24.9688,297.1406 Q24.3906,297.4375 23.75,297.5781 Q23.1094,297.7344 22.4063,297.7344 Q19.9063,297.7344 18.5781,296.0938 Q17.2656,294.4375 17.2656,291.3125 Q17.2656,288.1875 18.5781,286.5313 Q19.9063,284.875 22.4063,284.875 Q23.1094,284.875 23.75,285.0313 Q24.4063,285.1875 24.9688,285.4844 L24.9688,288.2031 Q24.3438,287.625 23.75,287.3594 Q23.1563,287.0781 22.5313,287.0781 Q21.1875,287.0781 20.5,288.1563 Q19.8125,289.2188 19.8125,291.3125 Q19.8125,293.4063 20.5,294.4844 Q21.1875,295.5469 22.5313,295.5469 Q23.1563,295.5469 23.75,295.2813 Q24.3438,295 24.9688,294.4219 L24.9688,297.1406 Z " fill="#000000"/><text fill="#000000" font-family="sans-serif" font-size="14" lengthAdjust="spacing" textLength="305.1357" x="36" y="296.3467">comp_arc_sta__baselibs__message_passing</text><line style="stroke:#181818;stroke-width:0.5;" x1="8" x2="343.1357" y1="307.5" y2="307.5"/></g><!--reverse link logic_arc_int__baselibs__synchronized_queue to comp_arc_sta__baselibs__concurrency--><g id="link_logic_arc_int__baselibs__synchronized_queue_comp_arc_sta__baselibs__concurrency"><path codeLine="15" d="M4923.8063,199.9104 C4832.3563,221.2004 4691.02,254.11 4599.51,275.41 " fill="transparent" id="logic_arc_int__baselibs__synchronized_queue-backto-comp_arc_sta__baselibs__concurrency" style="stroke:#181818;stroke-width:1;"/><polygon fill="#181818" points="4929.65,198.55,4919.9774,196.6949,4924.7802,199.6837,4921.7914,204.4865,4929.65,198.55" style="stroke:#181818;stroke-width:1;"/><text fill="#000000" font-family="sans-serif" font-size="13" lengthAdjust="spacing" textLength="76.9082" x="4795.5" y="241.5669">implements</text></g><!--link Feature_User to logic_arc_int__baselibs__bit_mask_operator--><g id="link_Feature_User_logic_arc_int__baselibs__bit_mask_operator"><path codeLine="16" d="M3076.14,61.08 C3008.38,85.83 2886.7355,130.2807 2815.2555,156.4007 " fill="transparent" id="Feature_User-to-logic_arc_int__baselibs__bit_mask_operator" style="stroke:#181818;stroke-width:1;"/><polygon fill="#181818" points="2809.62,158.46,2819.4462,159.128,2814.3163,156.7439,2816.7004,151.614,2809.62,158.46" style="stroke:#181818;stroke-width:1;"/><text fill="#000000" font-family="sans-serif" font-size="13" lengthAdjust="spacing" textLength="23.0103" x="2930.5" y="124.5669">use</text></g><!--link Feature_User to logic_arc_int__baselibs__promise--><g id="link_Feature_User_logic_arc_int__baselibs__promise"><path codeLine="17" d="M3166.75,50.74 C3306.86,70.05 3731.2662,128.5407 3950.0062,158.6907 " fill="transparent" id="Feature_User-to-logic_arc_int__baselibs__promise" style="stroke:#181818;stroke-width:1;"/><polygon fill="#181818" points="3955.95,159.51,3947.5805,154.3186,3950.9968,158.8273,3946.4881,162.2436,3955.95,159.51" style="stroke:#181818;stroke-width:1;"/><text fill="#000000" font-family="sans-serif" font-size="13" lengthAdjust="spacing" textLength="23.0103" x="3720.5" y="124.5669">use</text></g><!--link Feature_User to logic_arc_int__baselibs__result--><g id="link_Feature_User_logic_arc_int__baselibs__result"><path codeLine="18" d="M3076.29,53.23 C2966.27,74.46 2688.4012,128.1027 2536.9912,157.3327 " fill="transparent" id="Feature_User-to-logic_arc_int__baselibs__result" style="stroke:#181818;stroke-width:1;"/><polygon fill="#181818" points="2531.1,158.47,2540.695,160.6915,2536.0094,157.5222,2539.1786,152.8365,2531.1,158.47" style="stroke:#181818;stroke-width:1;"/><text fill="#000000" font-family="sans-serif" font-size="13" lengthAdjust="spacing" textLength="23.0103" x="2757.5" y="124.5669">use</text></g><!--link Feature_User to logic_arc_int__baselibs__memory_shared--><g id="link_Feature_User_logic_arc_int__baselibs__memory_shared"><path codeLine="19" d="M3166.62,45.41 C3385.53,49.96 4358.89,71.57 5155.5,111.5 C5466.03,127.06 5543.75,131.46 5853.5,158.5 C5859.35,159.01 5859.3359,158.9933 5865.3459,159.5533 " fill="transparent" id="Feature_User-to-logic_arc_int__baselibs__memory_shared" style="stroke:#181818;stroke-width:1;"/><polygon fill="#181818" points="5871.32,160.11,5862.7299,155.2923,5866.3416,159.6461,5861.9877,163.2578,5871.32,160.11" style="stroke:#181818;stroke-width:1;"/><text fill="#000000" font-family="sans-serif" font-size="13" lengthAdjust="spacing" textLength="23.0103" x="5471.5" y="124.5669">use</text></g><!--reverse link logic_arc_int__baselibs__task to comp_arc_sta__baselibs__concurrency--><g id="link_logic_arc_int__baselibs__task_comp_arc_sta__baselibs__concurrency"><path codeLine="20" d="M4652.429,202.1393 C4621.329,223.4293 4576.46,254.14 4545.43,275.38 " fill="transparent" id="logic_arc_int__baselibs__task-backto-comp_arc_sta__baselibs__concurrency" style="stroke:#181818;stroke-width:1;"/><polygon fill="#181818" points="4657.38,198.75,4647.6939,200.5333,4653.2541,201.5744,4652.213,207.1346,4657.38,198.75" style="stroke:#181818;stroke-width:1;"/><text fill="#000000" font-family="sans-serif" font-size="13" lengthAdjust="spacing" textLength="76.9082" x="4613.5" y="241.5669">implements</text></g><!--link Feature_User to logic_arc_int__baselibs__intrusive_list--><g id="link_Feature_User_logic_arc_int__baselibs__intrusive_list"><path codeLine="21" d="M3076.43,46.21 C2871.68,54.2 2008.61,90.43 1303.5,158.5 C1297.79,159.05 1297.9489,159.0199 1292.0789,159.6199 " fill="transparent" id="Feature_User-to-logic_arc_int__baselibs__intrusive_list" style="stroke:#181818;stroke-width:1;"/><polygon fill="#181818" points="1286.11,160.23,1295.4701,163.2941,1291.0841,159.7216,1294.6566,155.3356,1286.11,160.23" style="stroke:#181818;stroke-width:1;"/><text fill="#000000" font-family="sans-serif" font-size="13" lengthAdjust="spacing" textLength="23.0103" x="1853.5" y="124.5669">use</text></g><!--reverse link logic_arc_int__baselibs__bit_manipulation to comp_arc_sta__baselibs__bit_manipulation--><g id="link_logic_arc_int__baselibs__bit_manipulation_comp_arc_sta__baselibs__bit_manipulation"><path codeLine="22" d="M3080.5701,201.6001 C3041.1301,222.8901 2983.25,254.14 2943.91,275.38 " fill="transparent" id="logic_arc_int__baselibs__bit_manipulation-backto-comp_arc_sta__baselibs__bit_manipulation" style="stroke:#181818;stroke-width:1;"/><polygon fill="#181818" points="3085.85,198.75,3076.0301,199.5053,3081.4501,201.1251,3079.8303,206.5451,3085.85,198.75" style="stroke:#181818;stroke-width:1;"/><text fill="#000000" font-family="sans-serif" font-size="13" lengthAdjust="spacing" textLength="76.9082" x="3029.5" y="241.5669">implements</text></g><!--reverse link logic_arc_int__baselibs__task_result to comp_arc_sta__baselibs__concurrency--><g id="link_logic_arc_int__baselibs__task_result_comp_arc_sta__baselibs__concurrency"><path codeLine="23" d="M4417.8359,202.812 C4440.9159,224.042 4473.41,253.94 4496.51,275.19 " fill="transparent" id="logic_arc_int__baselibs__task_result-backto-comp_arc_sta__baselibs__concurrency" style="stroke:#181818;stroke-width:1;"/><polygon fill="#181818" points="4413.42,198.75,4417.3359,207.7869,4417.0999,202.135,4422.7519,201.899,4413.42,198.75" style="stroke:#181818;stroke-width:1;"/><text fill="#000000" font-family="sans-serif" font-size="13" lengthAdjust="spacing" textLength="76.9082" x="4463.5" y="241.5669">implements</text></g><!--link Feature_User to logic_arc_int__baselibs__filesystem--><g id="link_Feature_User_logic_arc_int__baselibs__filesystem"><path codeLine="24" d="M3076.43,47.14 C2893.79,57.99 2190.87,101.32 1614.5,158.5 C1608.97,159.05 1609.2958,158.9904 1603.6058,159.6004 " fill="transparent" id="Feature_User-to-logic_arc_int__baselibs__filesystem" style="stroke:#181818;stroke-width:1;"/><polygon fill="#181818" points="1597.64,160.24,1607.0151,163.2579,1602.6115,159.707,1606.1623,155.3034,1597.64,160.24" style="stroke:#181818;stroke-width:1;"/><text fill="#000000" font-family="sans-serif" font-size="13" lengthAdjust="spacing" textLength="23.0103" x="2112.5" y="124.5669">use</text></g><!--reverse link logic_arc_int__baselibs__memory_shared to comp_arc_sta__baselibs__memory_shared--><g id="link_logic_arc_int__baselibs__memory_shared_comp_arc_sta__baselibs__memory_shared"><path codeLine="25" d="M6030.5,204.75 C6030.5,225.98 6030.5,253.94 6030.5,275.19 " fill="transparent" id="logic_arc_int__baselibs__memory_shared-backto-comp_arc_sta__baselibs__memory_shared" style="stroke:#181818;stroke-width:1;"/><polygon fill="#181818" points="6030.5,198.75,6026.5,207.75,6030.5,203.75,6034.5,207.75,6030.5,198.75" style="stroke:#181818;stroke-width:1;"/><text fill="#000000" font-family="sans-serif" font-size="13" lengthAdjust="spacing" textLength="76.9082" x="6031.5" y="241.5669">implements</text></g><!--reverse link logic_arc_int__baselibs__utils_scoped_op to comp_arc_sta__baselibs__utils--><g id="link_logic_arc_int__baselibs__utils_scoped_op_comp_arc_sta__baselibs__utils"><path codeLine="26" d="M2084.0799,202.1113 C2052.5999,223.4013 2007.16,254.14 1975.76,275.38 " fill="transparent" id="logic_arc_int__baselibs__utils_scoped_op-backto-comp_arc_sta__baselibs__utils" style="stroke:#181818;stroke-width:1;"/><polygon fill="#181818" points="2089.05,198.75,2079.354,200.4785,2084.9083,201.5511,2083.8357,207.1053,2089.05,198.75" style="stroke:#181818;stroke-width:1;"/><text fill="#000000" font-family="sans-serif" font-size="13" lengthAdjust="spacing" textLength="76.9082" x="2044.5" y="241.5669">implements</text></g><!--link Feature_User to logic_arc_int__baselibs__task--><g id="link_Feature_User_logic_arc_int__baselibs__task"><path codeLine="27" d="M3166.64,47.11 C3343.59,57.53 4006.88,98.57 4550.5,158.5 C4556.38,159.15 4556.444,159.1251 4562.524,159.8651 " fill="transparent" id="Feature_User-to-logic_arc_int__baselibs__task" style="stroke:#181818;stroke-width:1;"/><polygon fill="#181818" points="4568.48,160.59,4560.0292,155.5319,4563.5166,159.9859,4559.0627,163.4733,4568.48,160.59" style="stroke:#181818;stroke-width:1;"/><text fill="#000000" font-family="sans-serif" font-size="13" lengthAdjust="spacing" textLength="23.0103" x="4239.5" y="124.5669">use</text></g><!--reverse link logic_arc_int__baselibs__executor to comp_arc_sta__baselibs__concurrency--><g id="link_logic_arc_int__baselibs__executor_comp_arc_sta__baselibs__concurrency"><path codeLine="28" d="M3907.1288,199.5337 C3987.8188,212.9437 4092.79,230.18 4190.5,245.5 C4255.43,255.68 4327.7,266.56 4387.75,275.47 " fill="transparent" id="logic_arc_int__baselibs__executor-backto-comp_arc_sta__baselibs__concurrency" style="stroke:#181818;stroke-width:1;"/><polygon fill="#181818" points="3901.21,198.55,3909.4325,203.9714,3906.1423,199.3697,3910.744,196.0796,3901.21,198.55" style="stroke:#181818;stroke-width:1;"/><text fill="#000000" font-family="sans-serif" font-size="13" lengthAdjust="spacing" textLength="76.9082" x="4191.5" y="241.5669">implements</text></g><!--link Feature_User to logic_arc_int__baselibs__shared_future--><g id="link_Feature_User_logic_arc_int__baselibs__shared_future"><path codeLine="29" d="M3166.51,61.75 C3231.52,86.67 3345.6773,130.4229 3413.2073,156.3029 " fill="transparent" id="Feature_User-to-logic_arc_int__baselibs__shared_future" style="stroke:#181818;stroke-width:1;"/><polygon fill="#181818" points="3418.81,158.45,3411.8374,151.4942,3414.1411,156.6607,3408.9746,158.9644,3418.81,158.45" style="stroke:#181818;stroke-width:1;"/><text fill="#000000" font-family="sans-serif" font-size="13" lengthAdjust="spacing" textLength="23.0103" x="3337.5" y="124.5669">use</text></g><!--reverse link logic_arc_int__baselibs__shared_future to comp_arc_sta__baselibs__concurrency--><g id="link_logic_arc_int__baselibs__shared_future_comp_arc_sta__baselibs__concurrency"><path codeLine="30" d="M3620.4815,199.281 C3728.4015,213.081 3873.02,231.02 4005.5,245.5 C4127.11,258.79 4265.19,271.89 4367.29,281.19 " fill="transparent" id="logic_arc_int__baselibs__shared_future-backto-comp_arc_sta__baselibs__concurrency" style="stroke:#181818;stroke-width:1;"/><polygon fill="#181818" points="3614.53,198.52,3622.95,203.6293,3619.4896,199.1542,3623.9647,195.6939,3614.53,198.52" style="stroke:#181818;stroke-width:1;"/><text fill="#000000" font-family="sans-serif" font-size="13" lengthAdjust="spacing" textLength="76.9082" x="4006.5" y="241.5669">implements</text></g><!--link Feature_User to logic_arc_int__baselibs__task_result--><g id="link_Feature_User_logic_arc_int__baselibs__task_result"><path codeLine="31" d="M3166.59,48.83 C3317.68,63.4 3819.93,112.35 4234.5,158.5 C4240.13,159.13 4239.9096,159.0815 4245.7096,159.7515 " fill="transparent" id="Feature_User-to-logic_arc_int__baselibs__task_result" style="stroke:#181818;stroke-width:1;"/><polygon fill="#181818" points="4251.67,160.44,4243.1885,155.4336,4246.703,159.8662,4242.2704,163.3808,4251.67,160.44" style="stroke:#181818;stroke-width:1;"/><text fill="#000000" font-family="sans-serif" font-size="13" lengthAdjust="spacing" textLength="23.0103" x="3930.5" y="124.5669">use</text></g><!--reverse link logic_arc_int__baselibs__result to comp_arc_sta__baselibs__result--><g id="link_logic_arc_int__baselibs__result_comp_arc_sta__baselibs__result"><path codeLine="32" d="M2432.5,204.75 C2432.5,225.98 2432.5,253.94 2432.5,275.19 " fill="transparent" id="logic_arc_int__baselibs__result-backto-comp_arc_sta__baselibs__result" style="stroke:#181818;stroke-width:1;"/><polygon fill="#181818" points="2432.5,198.75,2428.5,207.75,2432.5,203.75,2436.5,207.75,2432.5,198.75" style="stroke:#181818;stroke-width:1;"/><text fill="#000000" font-family="sans-serif" font-size="13" lengthAdjust="spacing" textLength="76.9082" x="2433.5" y="241.5669">implements</text></g><!--reverse link logic_arc_int__baselibs__condition_variable to comp_arc_sta__baselibs__concurrency--><g id="link_logic_arc_int__baselibs__condition_variable_comp_arc_sta__baselibs__concurrency"><path codeLine="33" d="M5503.9305,199.2063 C5385.7305,213.0163 5226.65,231.05 5081.5,245.5 C4941.28,259.46 4781.21,273.15 4667.51,282.5 " fill="transparent" id="logic_arc_int__baselibs__condition_variable-backto-comp_arc_sta__baselibs__concurrency" style="stroke:#181818;stroke-width:1;"/><polygon fill="#181818" points="5509.89,198.51,5500.4866,195.5814,5504.9238,199.0902,5501.415,203.5274,5509.89,198.51" style="stroke:#181818;stroke-width:1;"/><text fill="#000000" font-family="sans-serif" font-size="13" lengthAdjust="spacing" textLength="76.9082" x="5244.5" y="241.5669">implements</text></g><!--reverse link logic_arc_int__baselibs__future to comp_arc_sta__baselibs__concurrency--><g id="link_logic_arc_int__baselibs__future_comp_arc_sta__baselibs__concurrency"><path codeLine="34" d="M5215.0109,198.1728 C5121.5509,211.5928 4995.95,229.5 4880.5,245.5 C4807.9,255.56 4727.1,266.5 4660.19,275.48 " fill="transparent" id="logic_arc_int__baselibs__future-backto-comp_arc_sta__baselibs__concurrency" style="stroke:#181818;stroke-width:1;"/><polygon fill="#181818" points="5220.95,197.32,5211.4728,194.6398,5216.0008,198.0307,5212.6099,202.5586,5220.95,197.32" style="stroke:#181818;stroke-width:1;"/><text fill="#000000" font-family="sans-serif" font-size="13" lengthAdjust="spacing" textLength="76.9082" x="4996.5" y="241.5669">implements</text></g><!--reverse link logic_arc_int__baselibs__bit_mask_operator to comp_arc_sta__baselibs__bit_manipulation--><g id="link_logic_arc_int__baselibs__bit_mask_operator_comp_arc_sta__baselibs__bit_manipulation"><path codeLine="35" d="M2787.5436,202.3849 C2815.5036,223.6749 2855.51,254.14 2883.4,275.38 " fill="transparent" id="logic_arc_int__baselibs__bit_mask_operator-backto-comp_arc_sta__baselibs__bit_manipulation" style="stroke:#181818;stroke-width:1;"/><polygon fill="#181818" points="2782.77,198.75,2787.5072,207.3847,2786.748,201.7791,2792.3537,201.0199,2782.77,198.75" style="stroke:#181818;stroke-width:1;"/><text fill="#000000" font-family="sans-serif" font-size="13" lengthAdjust="spacing" textLength="76.9082" x="2843.5" y="241.5669">implements</text></g><!--reverse link logic_arc_int__baselibs__utils_base64 to comp_arc_sta__baselibs__utils--><g id="link_logic_arc_int__baselibs__utils_base64_comp_arc_sta__baselibs__utils"><path codeLine="36" d="M1811.7506,202.1252 C1843.0406,223.4152 1888.19,254.14 1919.4,275.38 " fill="transparent" id="logic_arc_int__baselibs__utils_base64-backto-comp_arc_sta__baselibs__utils" style="stroke:#181818;stroke-width:1;"/><polygon fill="#181818" points="1806.79,198.75,1811.9808,207.1199,1810.9238,201.5627,1816.4811,200.5058,1806.79,198.75" style="stroke:#181818;stroke-width:1;"/><text fill="#000000" font-family="sans-serif" font-size="13" lengthAdjust="spacing" textLength="76.9082" x="1874.5" y="241.5669">implements</text></g><!--link Feature_User to logic_arc_int__baselibs__condition_variable--><g id="link_Feature_User_logic_arc_int__baselibs__condition_variable"><path codeLine="37" d="M3166.59,45.62 C3365.96,50.72 4188.3,73.11 4862.5,111.5 C5139.73,127.29 5208.93,133.79 5485.5,158.5 C5491.1,159 5490.8163,158.959 5496.5663,159.499 " fill="transparent" id="Feature_User-to-logic_arc_int__baselibs__condition_variable" style="stroke:#181818;stroke-width:1;"/><polygon fill="#181818" points="5502.54,160.06,5493.9534,155.236,5497.5619,159.5925,5493.2054,163.201,5502.54,160.06" style="stroke:#181818;stroke-width:1;"/><text fill="#000000" font-family="sans-serif" font-size="13" lengthAdjust="spacing" textLength="23.0103" x="5123.5" y="124.5669">use</text></g><!--link Feature_User to logic_arc_int__baselibs__message_passing--><g id="link_Feature_User_logic_arc_int__baselibs__message_passing"><path codeLine="38" d="M3076.45,45.08 C2849.21,48.17 1806.07,64.4 953.5,111.5 C690.85,126.01 625.46,134.54 363.5,158.5 C356.94,159.1 356.2325,159.1457 349.4725,159.7957 " fill="transparent" id="Feature_User-to-logic_arc_int__baselibs__message_passing" style="stroke:#181818;stroke-width:1;"/><polygon fill="#181818" points="343.5,160.37,352.8415,163.4902,348.477,159.8914,352.0758,155.527,343.5,160.37" style="stroke:#181818;stroke-width:1;"/><text fill="#000000" font-family="sans-serif" font-size="13" lengthAdjust="spacing" textLength="23.0103" x="954.5" y="124.5669">use</text></g><!--link Feature_User to logic_arc_int__baselibs__json--><g id="link_Feature_User_logic_arc_int__baselibs__json"><path codeLine="39" d="M3076.19,45.66 C2872.18,51.01 2018.39,74.56 1318.5,111.5 C1012.88,127.63 935.87,126.55 631.5,158.5 C625.77,159.1 625.8784,159.0543 619.9684,159.7543 " fill="transparent" id="Feature_User-to-logic_arc_int__baselibs__json" style="stroke:#181818;stroke-width:1;"/><polygon fill="#181818" points="614.01,160.46,623.418,163.3736,618.9753,159.8719,622.477,155.4292,614.01,160.46" style="stroke:#181818;stroke-width:1;"/><text fill="#000000" font-family="sans-serif" font-size="13" lengthAdjust="spacing" textLength="23.0103" x="1319.5" y="124.5669">use</text></g><!--reverse link logic_arc_int__baselibs__dynamic_array to comp_arc_sta__baselibs__containers--><g id="link_logic_arc_int__baselibs__dynamic_array_comp_arc_sta__baselibs__containers"><path codeLine="40" d="M836.571,202.1393 C867.671,223.4293 912.54,254.14 943.57,275.38 " fill="transparent" id="logic_arc_int__baselibs__dynamic_array-backto-comp_arc_sta__baselibs__containers" style="stroke:#181818;stroke-width:1;"/><polygon fill="#181818" points="831.62,198.75,836.787,207.1346,835.7459,201.5744,841.3061,200.5333,831.62,198.75" style="stroke:#181818;stroke-width:1;"/><text fill="#000000" font-family="sans-serif" font-size="13" lengthAdjust="spacing" textLength="76.9082" x="899.5" y="241.5669">implements</text></g><!--link Feature_User to logic_arc_int__baselibs__utils_base64--><g id="link_Feature_User_logic_arc_int__baselibs__utils_base64"><path codeLine="41" d="M3076.49,48.54 C2919.88,62.67 2384.2,111.56 1942.5,158.5 C1936.66,159.12 1936.6643,159.1061 1930.6443,159.7661 " fill="transparent" id="Feature_User-to-logic_arc_int__baselibs__utils_base64" style="stroke:#181818;stroke-width:1;"/><polygon fill="#181818" points="1924.68,160.42,1934.0623,163.4153,1929.6502,159.8751,1933.1905,155.463,1924.68,160.42" style="stroke:#181818;stroke-width:1;"/><text fill="#000000" font-family="sans-serif" font-size="13" lengthAdjust="spacing" textLength="23.0103" x="2397.5" y="124.5669">use</text></g><!--link Feature_User to logic_arc_int__baselibs__future--><g id="link_Feature_User_logic_arc_int__baselibs__future"><path codeLine="42" d="M3166.61,46.3 C3341.26,53.37 3989.84,80.28 4523.5,111.5 C4825.48,129.17 4901.54,127.98 5202.5,158.5 C5208.44,159.1 5208.5477,159.0889 5214.6777,159.7789 " fill="transparent" id="Feature_User-to-logic_arc_int__baselibs__future" style="stroke:#181818;stroke-width:1;"/><polygon fill="#181818" points="5220.64,160.45,5212.1439,155.4684,5215.6714,159.8907,5211.2491,163.4182,5220.64,160.45" style="stroke:#181818;stroke-width:1;"/><text fill="#000000" font-family="sans-serif" font-size="13" lengthAdjust="spacing" textLength="23.0103" x="4830.5" y="124.5669">use</text></g><!--link Feature_User to logic_arc_int__baselibs__synchronized_queue--><g id="link_Feature_User_logic_arc_int__baselibs__synchronized_queue"><path codeLine="43" d="M3166.73,46.69 C3321.18,54.26 3841.88,80.57 4271.5,111.5 C4515.32,129.05 4576.09,136.02 4819.5,158.5 C4825.34,159.04 4825.2969,159.0226 4831.2969,159.5926 " fill="transparent" id="Feature_User-to-logic_arc_int__baselibs__synchronized_queue" style="stroke:#181818;stroke-width:1;"/><polygon fill="#181818" points="4837.27,160.16,4828.6886,155.3268,4832.2924,159.6871,4827.932,163.2909,4837.27,160.16" style="stroke:#181818;stroke-width:1;"/><text fill="#000000" font-family="sans-serif" font-size="13" lengthAdjust="spacing" textLength="23.0103" x="4491.5" y="124.5669">use</text></g><!--link Feature_User to logic_arc_int__baselibs__executor--><g id="link_Feature_User_logic_arc_int__baselibs__executor"><path codeLine="44" d="M3166.75,53.54 C3274.2,74.99 3540.6662,128.2048 3686.3062,157.2948 " fill="transparent" id="Feature_User-to-logic_arc_int__baselibs__executor" style="stroke:#181818;stroke-width:1;"/><polygon fill="#181818" points="3692.19,158.47,3684.1478,152.7846,3687.2869,157.4906,3682.5809,160.6297,3692.19,158.47" style="stroke:#181818;stroke-width:1;"/><text fill="#000000" font-family="sans-serif" font-size="13" lengthAdjust="spacing" textLength="23.0103" x="3535.5" y="124.5669">use</text></g><!--link Feature_User to logic_arc_int__baselibs__utils_scoped_op--><g id="link_Feature_User_logic_arc_int__baselibs__utils_scoped_op"><path codeLine="45" d="M3076.41,50.47 C2934.37,69.29 2497.938,127.102 2267.028,157.692 " fill="transparent" id="Feature_User-to-logic_arc_int__baselibs__utils_scoped_op" style="stroke:#181818;stroke-width:1;"/><polygon fill="#181818" points="2261.08,158.48,2270.5274,161.2634,2266.0367,157.8234,2269.4767,153.3327,2261.08,158.48" style="stroke:#181818;stroke-width:1;"/><text fill="#000000" font-family="sans-serif" font-size="13" lengthAdjust="spacing" textLength="23.0103" x="2590.5" y="124.5669">use</text></g><!--reverse link logic_arc_int__baselibs__promise to comp_arc_sta__baselibs__concurrency--><g id="link_logic_arc_int__baselibs__promise_comp_arc_sta__baselibs__concurrency"><path codeLine="46" d="M4163.9472,200.1668 C4243.7772,221.4668 4366.28,254.15 4446.03,275.43 " fill="transparent" id="logic_arc_int__baselibs__promise-backto-comp_arc_sta__baselibs__concurrency" style="stroke:#181818;stroke-width:1;"/><polygon fill="#181818" points="4158.15,198.62,4165.8146,204.805,4162.981,199.909,4167.877,197.0754,4158.15,198.62" style="stroke:#181818;stroke-width:1;"/><text fill="#000000" font-family="sans-serif" font-size="13" lengthAdjust="spacing" textLength="76.9082" x="4329.5" y="241.5669">implements</text></g><!--reverse link logic_arc_int__baselibs__filesystem to comp_arc_sta__baselibs__filesystem--><g id="link_logic_arc_int__baselibs__filesystem_comp_arc_sta__baselibs__filesystem"><path codeLine="47" d="M1459.5,204.75 C1459.5,225.98 1459.5,253.94 1459.5,275.19 " fill="transparent" id="logic_arc_int__baselibs__filesystem-backto-comp_arc_sta__baselibs__filesystem" style="stroke:#181818;stroke-width:1;"/><polygon fill="#181818" points="1459.5,198.75,1455.5,207.75,1459.5,203.75,1463.5,207.75,1459.5,198.75" style="stroke:#181818;stroke-width:1;"/><text fill="#000000" font-family="sans-serif" font-size="13" lengthAdjust="spacing" textLength="76.9082" x="1460.5" y="241.5669">implements</text></g><!--reverse link logic_arc_int__baselibs__json to comp_arc_sta__baselibs__json--><g id="link_logic_arc_int__baselibs__json_comp_arc_sta__baselibs__json"><path codeLine="48" d="M498.1582,204.7479 C498.7182,225.9779 499.44,253.94 500,275.19 " fill="transparent" id="logic_arc_int__baselibs__json-backto-comp_arc_sta__baselibs__json" style="stroke:#181818;stroke-width:1;"/><polygon fill="#181818" points="498,198.75,494.2387,207.8523,498.1318,203.7483,502.2359,207.6414,498,198.75" style="stroke:#181818;stroke-width:1;"/><text fill="#000000" font-family="sans-serif" font-size="13" lengthAdjust="spacing" textLength="76.9082" x="500.5" y="241.5669">implements</text></g><!--reverse link logic_arc_int__baselibs__message_passing to comp_arc_sta__baselibs__message_passing--><g id="link_logic_arc_int__baselibs__message_passing_comp_arc_sta__baselibs__message_passing"><path codeLine="49" d="M178.621,204.7464 C177.881,225.9764 176.91,253.94 176.17,275.19 " fill="transparent" id="logic_arc_int__baselibs__message_passing-backto-comp_arc_sta__baselibs__message_passing" style="stroke:#181818;stroke-width:1;"/><polygon fill="#181818" points="178.83,198.75,174.5189,207.6052,178.6558,203.747,182.5141,207.8839,178.83,198.75" style="stroke:#181818;stroke-width:1;"/><text fill="#000000" font-family="sans-serif" font-size="13" lengthAdjust="spacing" textLength="76.9082" x="179.5" y="241.5669">implements</text></g><!--reverse link logic_arc_int__baselibs__intrusive_list to comp_arc_sta__baselibs__containers--><g id="link_logic_arc_int__baselibs__intrusive_list_comp_arc_sta__baselibs__containers"><path codeLine="50" d="M1106.429,202.1393 C1075.329,223.4293 1030.46,254.14 999.43,275.38 " fill="transparent" id="logic_arc_int__baselibs__intrusive_list-backto-comp_arc_sta__baselibs__containers" style="stroke:#181818;stroke-width:1;"/><polygon fill="#181818" points="1111.38,198.75,1101.6939,200.5333,1107.2541,201.5744,1106.213,207.1346,1111.38,198.75" style="stroke:#181818;stroke-width:1;"/><text fill="#000000" font-family="sans-serif" font-size="13" lengthAdjust="spacing" textLength="76.9082" x="1067.5" y="241.5669">implements</text></g><!--link Feature_User to logic_arc_int__baselibs__dynamic_array--><g id="link_Feature_User_logic_arc_int__baselibs__dynamic_array"><path codeLine="51" d="M3076.29,46.05 C2893.81,52.39 2193.77,77.66 1618.5,111.5 C1332.45,128.33 1260.84,132.32 975.5,158.5 C969.67,159.04 969.6922,159.0227 963.6922,159.6027 " fill="transparent" id="Feature_User-to-logic_arc_int__baselibs__dynamic_array" style="stroke:#181818;stroke-width:1;"/><polygon fill="#181818" points="957.72,160.18,967.0631,163.2955,962.6968,159.6989,966.2934,155.3326,957.72,160.18" style="stroke:#181818;stroke-width:1;"/><text fill="#000000" font-family="sans-serif" font-size="13" lengthAdjust="spacing" textLength="23.0103" x="1619.5" y="124.5669">use</text></g><!--link Feature_User to logic_arc_int__baselibs__bit_manipulation--><g id="link_Feature_User_logic_arc_int__baselibs__bit_manipulation"><path codeLine="52" d="M3121.5,81.55 C3121.5,106.45 3121.5,132.26 3121.5,152.26 " fill="transparent" id="Feature_User-to-logic_arc_int__baselibs__bit_manipulation" style="stroke:#181818;stroke-width:1;"/><polygon fill="#181818" points="3121.5,158.26,3125.5,149.26,3121.5,153.26,3117.5,149.26,3121.5,158.26" style="stroke:#181818;stroke-width:1;"/><text fill="#000000" font-family="sans-serif" font-size="13" lengthAdjust="spacing" textLength="23.0103" x="3122.5" y="124.5669">use</text></g><!--SRC=[hLOzRzmm3DtrAuJibnP5q248iXJebB6T1LbcxjZemnMf96xH_rxPFYInSwridqV9v3Fvz1ubRMruKWwVqUy5XqPoa5LW3axM6C4m1YyEM8CaXWY1smQ6DRY6MwcP8rQ9WSGDSMlXLbngGbl9t-8EFNm9DaGPeUvNtmve7ZmGoK-N7yKVSVFXc2EquHntyHKqfmZoEq6ya9haSKDr6r884roZT3IAM2jLQGAB5IbbWZSfHl2cbRkqkvKsxD7qaUZvRIIrtXnYyFWBQlKpGO9hYQwnuC0pIJ7wuQx-7rI5h9oc1nKQY3hNVoqJmIA89WQ71CiJ8r2ol3pFWGknLNJG-KoEwUUJofc5rJJcPKo4Zw0i4XTg6ZZts2IhEsqM2fk6ZulSfl6NirZP_prQe3RRonLw7vrTeR39ES_fEZ5QAi3sCOfCLdoTPR-wvq4m6waFdi6atduhgnbOKlUfIzYih0dg6KoDtVwloeQWGb6dj7f-gpconivVwb57r9M5hVzmYiLDPyHeZ6zhbsxz-Mgr0awHktpi4-azg4OJvPj-ES0FwePdoHciyoKVIwpKhTUk_nHrkvgMCRTB-nbvVSceEF5yM8hnEg-MPhuRlnkDgfTdo1pXlzvN9S- -kTZc07SQAq0ECfm3Db5yyRgS-6Fcz9ed-EaBPwNY9xvPAfxtRw4UuIy0]--></g></svg>