<svg xmlns="http://www.w3.org/2000/svg" xmlns:xlink="http://www.w3.org/1999/xlink" contentStyleType="text/css" data-diagram-type="CLASS" height="322px" preserveAspectRatio="none" style="width:6195px;height:322px;background:#FFFFFF;" version="1.1" viewBox="0 0 6195 322" width="6195px" zoomAndPan="magnify"><defs/><g><!--entity Feature_User--><g id="elem_Feature_User"><ellipse cx="3049.6685" cy="14" fill="#F1F1F1" rx="8" ry="8" style="stroke:#181818;stroke-width:0.5;"/><path d="M3049.6685,22 L3049.6685,49 M3036.6685,30 L3062.6685,30 M3049.6685,49 L3036.6685,64 M3049.6685,49 L3062.6685,64 " fill="transparent" style="stroke:#181818;stroke-width:0.5;"/><text fill="#000000" font-family="sans-serif" font-size="14" lengthAdjust="spacing" textLength="90.3369" x="3004.5" y="78.4951">Feature User</text></g><!--class logic_arc_int__baselibs__synchronized_queue--><g id="elem_logic_arc_int__baselibs__synchronized_queue"><rect fill="#F1F1F1" height="40" id="logic_arc_int__baselibs__synchronized_queue" rx="2.5" ry="2.5" style="stroke:#181818;stroke-width:0.5;" width="348.3604" x="964.5" y="158.5"/><ellipse cx="979.5" cy="174.5" fill="#ADD1B2" rx="11" ry="11" style="stroke:#181818;stroke-width:1;"/><path d="M982.4688,180.1406 Q981.8906,180.4375 981.25,180.5781 Q980.6094,180.7344 979.9063,180.7344 Q977.4063,180.7344 976.0781,179.0938 Q974.7656,177.4375 974.7656,174.3125 Q974.7656,171.1875 976.0781,169.5313 Q977.4063,167.875 979.9063,167.875 Q980.6094,167.875 981.25,168.0313 Q981.9063,168.1875 982.4688,168.4844 L982.4688,171.2031 Q981.8438,170.625 981.25,170.3594 Q980.6563,170.0781 980.0313,170.0781 Q978.6875,170.0781 978,171.1563 Q977.3125,172.2188 977.3125,174.3125 Q977.3125,176.4063 978,177.4844 Q978.6875,178.5469 980.0313,178.5469 Q980.6563,178.5469 981.25,178.2813 Q981.8438,178 982.4688,177.4219 L982.4688,180.1406 Z " fill="#000000"/><text fill="#000000" font-family="sans-serif" font-size="14" lengthAdjust="spacing" textLength="316.3604" x="993.5" y="179.3467">logic_arc_int__baselibs__synchronized_queue</text><line style="stroke:#181818;stroke-width:0.5;" x1="965.5" x2="1311.8604" y1="190.5" y2="190.5"/></g><!--class logic_arc_int__baselibs__task--><g id="elem_logic_arc_int__baselibs__task"><rect fill="#F1F1F1" height="40" id="logic_arc_int__baselibs__task" rx="2.5" ry="2.5" style="stroke:#181818;stroke-width:0.5;" width="234.0156" x="1347.5" y="158.5"/><ellipse cx="1362.5" cy="174.5" fill="#ADD1B2" rx="11" ry="11" style="stroke:#181818;stroke-width:1;"/><path d="M1365.4688,180.1406 Q1364.8906,180.4375 1364.25,180.5781 Q1363.6094,180.7344 1362.9063,180.7344 Q1360.4063,180.7344 1359.0781,179.0938 Q1357.7656,177.4375 1357.7656,174.3125 Q1357.7656,171.1875 1359.0781,169.5313 Q1360.4063,167.875 1362.9063,167.875 Q1363.6094,167.875 1364.25,168.0313 Q1364.9063,168.1875 1365.4688,168.4844 L1365.4688,171.2031 Q1364.8438,170.625 1364.25,170.3594 Q1363.6563,170.0781 1363.0313,170.0781 Q1361.6875,170.0781 1361,171.1563 Q1360.3125,172.2188 1360.3125,174.3125 Q1360.3125,176.4063 1361,177.4844 Q1361.6875,178.5469 1363.0313,178.5469 Q1363.6563,178.5469 1364.25,178.2813 Q1364.8438,178 1365.4688,177.4219 L1365.4688,180.1406 Z " fill="#000000"/><text fill="#000000" font-family="sans-serif" font-size="14" lengthAdjust="spacing" textLength="202.0156" x="1376.5" y="179.3467">logic_arc_int__baselibs__task</text><line style="stroke:#181818;stroke-width:0.5;" x1="1348.5" x2="1580.5156" y1="190.5" y2="190.5"/></g><!--class logic_arc_int__baselibs__intrusive_list--><g id="elem_logic_arc_int__baselibs__intrusive_list"><rect fill="#F1F1F1" height="40" id="logic_arc_int__baselibs__intrusive_list" rx="2.5" ry="2.5" style="stroke:#181818;stroke-width:0.5;" width="293.0713" x="5895" y="158.5"/><ellipse cx="5910" cy="174.5" fill="#ADD1B2" rx="11" ry="11" style="stroke:#181818;stroke-width:1;"/><path d="M5912.9688,180.1406 Q5912.3906,180.4375 5911.75,180.5781 Q5911.1094,180.7344 5910.4063,180.7344 Q5907.9063,180.7344 5906.5781,179.0938 Q5905.2656,177.4375 5905.2656,174.3125 Q5905.2656,171.1875 5906.5781,169.5313 Q5907.9063,167.875 5910.4063,167.875 Q5911.1094,167.875 5911.75,168.0313 Q5912.4063,168.1875 5912.9688,168.4844 L5912.9688,171.2031 Q5912.3438,170.625 5911.75,170.3594 Q5911.1563,170.0781 5910.5313,170.0781 Q5909.1875,170.0781 5908.5,171.1563 Q5907.8125,172.2188 5907.8125,174.3125 Q5907.8125,176.4063 5908.5,177.4844 Q5909.1875,178.5469 5910.5313,178.5469 Q5911.1563,178.5469 5911.75,178.2813 Q5912.3438,178 5912.9688,177.4219 L5912.9688,180.1406 Z " fill="#000000"/><text fill="#000000" font-family="sans-serif" font-size="14" lengthAdjust="spacing" textLength="261.0713" x="5924" y="179.3467">logic_arc_int__baselibs__intrusive_list</text><line style="stroke:#181818;stroke-width:0.5;" x1="5896" x2="6187.0713" y1="190.5" y2="190.5"/></g><!--class comp_arc_sta__baselibs__utils--><g id="elem_comp_arc_sta__baselibs__utils"><rect fill="#F1F1F1" height="40" id="comp_arc_sta__baselibs__utils" rx="2.5" ry="2.5" style="stroke:#181818;stroke-width:0.5;" width="242.9502" x="4141" y="275.5"/><ellipse cx="4156" cy="291.5" fill="#ADD1B2" rx="11" ry="11" style="stroke:#181818;stroke-width:1;"/><path d="M4158.9688,297.1406 Q4158.3906,297.4375 4157.75,297.5781 Q4157.1094,297.7344 4156.4063,297.7344 Q4153.9063,297.7344 4152.5781,296.0938 Q4151.2656,294.4375 4151.2656,291.3125 Q4151.2656,288.1875 4152.5781,286.5313 Q4153.9063,284.875 4156.4063,284.875 Q4157.1094,284.875 4157.75,285.0313 Q4158.4063,285.1875 4158.9688,285.4844 L4158.9688,288.2031 Q4158.3438,287.625 4157.75,287.3594 Q4157.1563,287.0781 4156.5313,287.0781 Q4155.1875,287.0781 4154.5,288.1563 Q4153.8125,289.2188 4153.8125,291.3125 Q4153.8125,293.4063 4154.5,294.4844 Q4155.1875,295.5469 4156.5313,295.5469 Q4157.1563,295.5469 4157.75,295.2813 Q4158.3438,295 4158.9688,294.4219 L4158.9688,297.1406 Z " fill="#000000"/><text fill="#000000" font-family="sans-serif" font-size="14" lengthAdjust="spacing" textLength="210.9502" x="4170" y="296.3467">comp_arc_sta__baselibs__utils</text><line style="stroke:#181818;stroke-width:0.5;" x1="4142" x2="4382.9502" y1="307.5" y2="307.5"/></g><!--class logic_arc_int__baselibs__utils_base64--><g id="elem_logic_arc_int__baselibs__utils_base64"><rect fill="#F1F1F1" height="40" id="logic_arc_int__baselibs__utils_base64" rx="2.5" ry="2.5" style="stroke:#181818;stroke-width:0.5;" width="292.1689" x="4313.5" y="158.5"/><ellipse cx="4328.5" cy="174.5" fill="#ADD1B2" rx="11" ry="11" style="stroke:#181818;stroke-width:1;"/><path d="M4331.4688,180.1406 Q4330.8906,180.4375 4330.25,180.5781 Q4329.6094,180.7344 4328.9063,180.7344 Q4326.4063,180.7344 4325.0781,179.0938 Q4323.7656,177.4375 4323.7656,174.3125 Q4323.7656,171.1875 4325.0781,169.5313 Q4326.4063,167.875 4328.9063,167.875 Q4329.6094,167.875 4330.25,168.0313 Q4330.9063,168.1875 4331.4688,168.4844 L4331.4688,171.2031 Q4330.8438,170.625 4330.25,170.3594 Q4329.6563,170.0781 4329.0313,170.0781 Q4327.6875,170.0781 4327,171.1563 Q4326.3125,172.2188 4326.3125,174.3125 Q4326.3125,176.4063 4327,177.4844 Q4327.6875,178.5469 4329.0313,178.5469 Q4329.6563,178.5469 4330.25,178.2813 Q4330.8438,178 4331.4688,177.4219 L4331.4688,180.1406 Z " fill="#000000"/><text fill="#000000" font-family="sans-serif" font-size="14" lengthAdjust="spacing" textLength="260.1689" x="4342.5" y="179.3467">logic_arc_int__baselibs__utils_base64</text><line style="stroke:#181818;stroke-width:0.5;" x1="4314.5" x2="4604.6689" y1="190.5" y2="190.5"/></g><!--class logic_arc_int__baselibs__bit_mask_operator--><g id="elem_logic_arc_int__baselibs__bit_mask_operator"><rect fill="#F1F1F1" height="40" id="logic_arc_int__baselibs__bit_mask_operator" rx="2.5" ry="2.5" style="stroke:#181818;stroke-width:0.5;" width="334.6406" x="3593" y="158.5"/><ellipse cx="3608" cy="174.5" fill="#ADD1B2" rx="11" ry="11" style="stroke:#181818;stroke-width:1;"/><path d="M3610.9688,180.1406 Q3610.3906,180.4375 3609.75,180.5781 Q3609.1094,180.7344 3608.4063,180.7344 Q3605.9063,180.7344 3604.5781,179.0938 Q3603.2656,177.4375 3603.2656,174.3125 Q3603.2656,171.1875 3604.5781,169.5313 Q3605.9063,167.875 3608.4063,167.875 Q3609.1094,167.875 3609.75,168.0313 Q3610.4063,168.1875 3610.9688,168.4844 L3610.9688,171.2031 Q3610.3438,170.625 3609.75,170.3594 Q3609.1563,170.0781 3608.5313,170.0781 Q3607.1875,170.0781 3606.5,171.1563 Q3605.8125,172.2188 3605.8125,174.3125 Q3605.8125,176.4063 3606.5,177.4844 Q3607.1875,178.5469 3608.5313,178.5469 Q3609.1563,178.5469 3609.75,178.2813 Q3610.3438,178 3610.9688,177.4219 L3610.9688,180.1406 Z " fill="#000000"/><text fill="#000000" font-family="sans-serif" font-size="14" lengthAdjust="spacing" textLength="302.6406" x="3622" y="179.3467">logic_arc_int__baselibs__bit_mask_operator</text><line style="stroke:#181818;stroke-width:0.5;" x1="3594" x2="3926.6406" y1="190.5" y2="190.5"/></g><!--class logic_arc_int__baselibs__dynamic_array--><g id="elem_logic_arc_int__baselibs__dynamic_array"><rect fill="#F1F1F1" height="40" id="logic_arc_int__baselibs__dynamic_array" rx="2.5" ry="2.5" style="stroke:#181818;stroke-width:0.5;" width="308.3496" x="5551.5" y="158.5"/><ellipse cx="5566.5" cy="174.5" fill="#ADD1B2" rx="11" ry="11" style="stroke:#181818;stroke-width:1;"/><path d="M5569.4688,180.1406 Q5568.8906,180.4375 5568.25,180.5781 Q5567.6094,180.7344 5566.9063,180.7344 Q5564.4063,180.7344 5563.0781,179.0938 Q5561.7656,177.4375 5561.7656,174.3125 Q5561.7656,171.1875 5563.0781,169.5313 Q5564.4063,167.875 5566.9063,167.875 Q5567.6094,167.875 5568.25,168.0313 Q5568.9063,168.1875 5569.4688,168.4844 L5569.4688,171.2031 Q5568.8438,170.625 5568.25,170.3594 Q5567.6563,170.0781 5567.0313,170.0781 Q5565.6875,170.0781 5565,171.1563 Q5564.3125,172.2188 5564.3125,174.3125 Q5564.3125,176.4063 5565,177.4844 Q5565.6875,178.5469 5567.0313,178.5469 Q5567.6563,178.5469 5568.25,178.2813 Q5568.8438,178 5569.4688,177.4219 L5569.4688,180.1406 Z " fill="#000000"/><text fill="#000000" font-family="sans-serif" font-size="14" lengthAdjust="spacing" textLength="276.3496" x="5580.5" y="179.3467">logic_arc_int__baselibs__dynamic_array</text><line style="stroke:#181818;stroke-width:0.5;" x1="5552.5" x2="5858.8496" y1="190.5" y2="190.5"/></g><!--class logic_arc_int__baselibs__utils_scoped_op--><g id="elem_logic_arc_int__baselibs__utils_scoped_op"><rect fill="#F1F1F1" height="40" id="logic_arc_int__baselibs__utils_scoped_op" rx="2.5" ry="2.5" style="stroke:#181818;stroke-width:0.5;" width="315.377" x="3963" y="158.5"/><ellipse cx="3978" cy="174.5" fill="#ADD1B2" rx="11" ry="11" style="stroke:#181818;stroke-width:1;"/><path d="M3980.9688,180.1406 Q3980.3906,180.4375 3979.75,180.5781 Q3979.1094,180.7344 3978.4063,180.7344 Q3975.9063,180.7344 3974.5781,179.0938 Q3973.2656,177.4375 3973.2656,174.3125 Q3973.2656,171.1875 3974.5781,169.5313 Q3975.9063,167.875 3978.4063,167.875 Q3979.1094,167.875 3979.75,168.0313 Q3980.4063,168.1875 3980.9688,168.4844 L3980.9688,171.2031 Q3980.3438,170.625 3979.75,170.3594 Q3979.1563,170.0781 3978.5313,170.0781 Q3977.1875,170.0781 3976.5,171.1563 Q3975.8125,172.2188 3975.8125,174.3125 Q3975.8125,176.4063 3976.5,177.4844 Q3977.1875,178.5469 3978.5313,178.5469 Q3979.1563,178.5469 3979.75,178.2813 Q3980.3438,178 3980.9688,177.4219 L3980.9688,180.1406 Z " fill="#000000"/><text fill="#000000" font-family="sans-serif" font-size="14" lengthAdjust="spacing" textLength="283.377" x="3992" y="179.3467">logic_arc_int__baselibs__utils_scoped_op</text><line style="stroke:#181818;stroke-width:0.5;" x1="3964" x2="4277.377" y1="190.5" y2="190.5"/></g><!--class comp_arc_sta__baselibs__containers--><g id="elem_comp_arc_sta__baselibs__containers"><rect fill="#F1F1F1" height="40" id="comp_arc_sta__baselibs__containers" rx="2.5" ry="2.5" style="stroke:#181818;stroke-width:0.5;" width="287.1445" x="5731" y="275.5"/><ellipse cx="5746" cy="291.5" fill="#ADD1B2" rx="11" ry="11" style="stroke:#181818;stroke-width:1;"/><path d="M5748.9688,297.1406 Q5748.3906,297.4375 5747.75,297.5781 Q5747.1094,297.7344 5746.4063,297.7344 Q5743.9063,297.7344 5742.5781,296.0938 Q5741.2656,294.4375 5741.2656,291.3125 Q5741.2656,288.1875 5742.5781,286.5313 Q5743.9063,284.875 5746.4063,284.875 Q5747.1094,284.875 5747.75,285.0313 Q5748.4063,285.1875 5748.9688,285.4844 L5748.9688,288.2031 Q5748.3438,287.625 5747.75,287.3594 Q5747.1563,287.0781 5746.5313,287.0781 Q5745.1875,287.0781 5744.5,288.1563 Q5743.8125,289.2188 5743.8125,291.3125 Q5743.8125,293.4063 5744.5,294.4844 Q5745.1875,295.5469 5746.5313,295.5469 Q5747.1563,295.5469 5747.75,295.2813 Q5748.3438,295 5748.9688,294.4219 L5748.9688,297.1406 Z " fill="#000000"/><text fill="#000000" font-family="sans-serif" font-size="14" lengthAdjust="spacing" textLength="255.1445" x="5760" y="296.3467">comp_arc_sta__baselibs__containers</text><line style="stroke:#181818;stroke-width:0.5;" x1="5732" x2="6017.1445" y1="307.5" y2="307.5"/></g><!--class comp_arc_sta__baselibs__bit_manipulation--><g id="elem_comp_arc_sta__baselibs__bit_manipulation"><rect fill="#F1F1F1" height="40" id="comp_arc_sta__baselibs__bit_manipulation" rx="2.5" ry="2.5" style="stroke:#181818;stroke-width:0.5;" width="330.8057" x="3411" y="275.5"/><ellipse cx="3426" cy="291.5" fill="#ADD1B2" rx="11" ry="11" style="stroke:#181818;stroke-width:1;"/><path d="M3428.9688,297.1406 Q3428.3906,297.4375 3427.75,297.5781 Q3427.1094,297.7344 3426.4063,297.7344 Q3423.9063,297.7344 3422.5781,296.0938 Q3421.2656,294.4375 3421.2656,291.3125 Q3421.2656,288.1875 3422.5781,286.5313 Q3423.9063,284.875 3426.4063,284.875 Q3427.1094,284.875 3427.75,285.0313 Q3428.4063,285.1875 3428.9688,285.4844 L3428.9688,288.2031 Q3428.3438,287.625 3427.75,287.3594 Q3427.1563,287.0781 3426.5313,287.0781 Q3425.1875,287.0781 3424.5,288.1563 Q3423.8125,289.2188 3423.8125,291.3125 Q3423.8125,293.4063 3424.5,294.4844 Q3425.1875,295.5469 3426.5313,295.5469 Q3427.1563,295.5469 3427.75,295.2813 Q3428.3438,295 3428.9688,294.4219 L3428.9688,297.1406 Z " fill="#000000"/><text fill="#000000" font-family="sans-serif" font-size="14" lengthAdjust="spacing" textLength="298.8057" x="3440" y="296.3467">comp_arc_sta__baselibs__bit_manipulation</text><line style="stroke:#181818;stroke-width:0.5;" x1="3412" x2="3740.8057" y1="307.5" y2="307.5"/></g><!--class logic_arc_int__baselibs__bit_manipulation--><g id="elem_logic_arc_int__baselibs__bit_manipulation"><rect fill="#F1F1F1" height="40" id="logic_arc_int__baselibs__bit_manipulation" rx="2.5" ry="2.5" style="stroke:#181818;stroke-width:0.5;" width="321.8369" x="3235.5" y="158.5"/><ellipse cx="3250.5" cy="174.5" fill="#ADD1B2" rx="11" ry="11" style="stroke:#181818;stroke-width:1;"/><path d="M3253.4688,180.1406 Q3252.8906,180.4375 3252.25,180.5781 Q3251.6094,180.7344 3250.9063,180.7344 Q3248.4063,180.7344 3247.0781,179.0938 Q3245.7656,177.4375 3245.7656,174.3125 Q3245.7656,171.1875 3247.0781,169.5313 Q3248.4063,167.875 3250.9063,167.875 Q3251.6094,167.875 3252.25,168.0313 Q3252.9063,168.1875 3253.4688,168.4844 L3253.4688,171.2031 Q3252.8438,170.625 3252.25,170.3594 Q3251.6563,170.0781 3251.0313,170.0781 Q3249.6875,170.0781 3249,171.1563 Q3248.3125,172.2188 3248.3125,174.3125 Q3248.3125,176.4063 3249,177.4844 Q3249.6875,178.5469 3251.0313,178.5469 Q3251.6563,178.5469 3252.25,178.2813 Q3252.8438,178 3253.4688,177.4219 L3253.4688,180.1406 Z " fill="#000000"/><text fill="#000000" font-family="sans-serif" font-size="14" lengthAdjust="spacing" textLength="289.8369" x="3264.5" y="179.3467">logic_arc_int__baselibs__bit_manipulation</text><line style="stroke:#181818;stroke-width:0.5;" x1="3236.5" x2="3556.3369" y1="190.5" y2="190.5"/></g><!--class comp_arc_sta__baselibs__json--><g id="elem_comp_arc_sta__baselibs__json"><rect fill="#F1F1F1" height="40" id="comp_arc_sta__baselibs__json" rx="2.5" ry="2.5" style="stroke:#181818;stroke-width:0.5;" width="242.1367" x="5287.5" y="275.5"/><ellipse cx="5302.5" cy="291.5" fill="#ADD1B2" rx="11" ry="11" style="stroke:#181818;stroke-width:1;"/><path d="M5305.4688,297.1406 Q5304.8906,297.4375 5304.25,297.5781 Q5303.6094,297.7344 5302.9063,297.7344 Q5300.4063,297.7344 5299.0781,296.0938 Q5297.7656,294.4375 5297.7656,291.3125 Q5297.7656,288.1875 5299.0781,286.5313 Q5300.4063,284.875 5302.9063,284.875 Q5303.6094,284.875 5304.25,285.0313 Q5304.9063,285.1875 5305.4688,285.4844 L5305.4688,288.2031 Q5304.8438,287.625 5304.25,287.3594 Q5303.6563,287.0781 5303.0313,287.0781 Q5301.6875,287.0781 5301,288.1563 Q5300.3125,289.2188 5300.3125,291.3125 Q5300.3125,293.4063 5301,294.4844 Q5301.6875,295.5469 5303.0313,295.5469 Q5303.6563,295.5469 5304.25,295.2813 Q5304.8438,295 5305.4688,294.4219 L5305.4688,297.1406 Z " fill="#000000"/><text fill="#000000" font-family="sans-serif" font-size="14" lengthAdjust="spacing" textLength="210.1367" x="5316.5" y="296.3467">comp_arc_sta__baselibs__json</text><line style="stroke:#181818;stroke-width:0.5;" x1="5288.5" x2="5528.6367" y1="307.5" y2="307.5"/></g><!--class logic_arc_int__baselibs__json--><g id="elem_logic_arc_int__baselibs__json"><rect fill="#F1F1F1" height="40" id="logic_arc_int__baselibs__json" rx="2.5" ry="2.5" style="stroke:#181818;stroke-width:0.5;" width="233.168" x="5283" y="158.5"/><ellipse cx="5298" cy="174.5" fill="#ADD1B2" rx="11" ry="11" style="stroke:#181818;stroke-width:1;"/><path d="M5300.9688,180.1406 Q5300.3906,180.4375 5299.75,180.5781 Q5299.1094,180.7344 5298.4063,180.7344 Q5295.9063,180.7344 5294.5781,179.0938 Q5293.2656,177.4375 5293.2656,174.3125 Q5293.2656,171.1875 5294.5781,169.5313 Q5295.9063,167.875 5298.4063,167.875 Q5299.1094,167.875 5299.75,168.0313 Q5300.4063,168.1875 5300.9688,168.4844 L5300.9688,171.2031 Q5300.3438,170.625 5299.75,170.3594 Q5299.1563,170.0781 5298.5313,170.0781 Q5297.1875,170.0781 5296.5,171.1563 Q5295.8125,172.2188 5295.8125,174.3125 Q5295.8125,176.4063 5296.5,177.4844 Q5297.1875,178.5469 5298.5313,178.5469 Q5299.1563,178.5469 5299.75,178.2813 Q5300.3438,178 5300.9688,177.4219 L5300.9688,180.1406 Z " fill="#000000"/><text fill="#000000" font-family="sans-serif" font-size="14" lengthAdjust="spacing" textLength="201.168" x="5312" y="179.3467">logic_arc_int__baselibs__json</text><line style="stroke:#181818;stroke-width:0.5;" x1="5284" x2="5515.168" y1="190.5" y2="190.5"/></g><!--class comp_arc_sta__baselibs__concurrency--><g id="elem_comp_arc_sta__baselibs__concurrency"><rect fill="#F1F1F1" height="40" id="comp_arc_sta__baselibs__concurrency" rx="2.5" ry="2.5" style="stroke:#181818;stroke-width:0.5;" width="300.2012" x="1706.5" y="275.5"/><ellipse cx="1721.5" cy="291.5" fill="#ADD1B2" rx="11" ry="11" style="stroke:#181818;stroke-width:1;"/><path d="M1724.4688,297.1406 Q1723.8906,297.4375 1723.25,297.5781 Q1722.6094,297.7344 1721.9063,297.7344 Q1719.4063,297.7344 1718.0781,296.0938 Q1716.7656,294.4375 1716.7656,291.3125 Q1716.7656,288.1875 1718.0781,286.5313 Q1719.4063,284.875 1721.9063,284.875 Q1722.6094,284.875 1723.25,285.0313 Q1723.9063,285.1875 1724.4688,285.4844 L1724.4688,288.2031 Q1723.8438,287.625 1723.25,287.3594 Q1722.6563,287.0781 1722.0313,287.0781 Q1720.6875,287.0781 1720,288.1563 Q1719.3125,289.2188 1719.3125,291.3125 Q1719.3125,293.4063 1720,294.4844 Q1720.6875,295.5469 1722.0313,295.5469 Q1722.6563,295.5469 1723.25,295.2813 Q1723.8438,295 1724.4688,294.4219 L1724.4688,297.1406 Z " fill="#000000"/><text fill="#000000" font-family="sans-serif" font-size="14" lengthAdjust="spacing" textLength="268.2012" x="1735.5" y="296.3467">comp_arc_sta__baselibs__concurrency</text><line style="stroke:#181818;stroke-width:0.5;" x1="1707.5" x2="2005.7012" y1="307.5" y2="307.5"/></g><!--class logic_arc_int__baselibs__future--><g id="elem_logic_arc_int__baselibs__future"><rect fill="#F1F1F1" height="40" id="logic_arc_int__baselibs__future" rx="2.5" ry="2.5" style="stroke:#181818;stroke-width:0.5;" width="247.0791" x="682" y="158.5"/><ellipse cx="697" cy="174.5" fill="#ADD1B2" rx="11" ry="11" style="stroke:#181818;stroke-width:1;"/><path d="M699.9688,180.1406 Q699.3906,180.4375 698.75,180.5781 Q698.1094,180.7344 697.4063,180.7344 Q694.9063,180.7344 693.5781,179.0938 Q692.2656,177.4375 692.2656,174.3125 Q692.2656,171.1875 693.5781,169.5313 Q694.9063,167.875 697.4063,167.875 Q698.1094,167.875 698.75,168.0313 Q699.4063,168.1875 699.9688,168.4844 L699.9688,171.2031 Q699.3438,170.625 698.75,170.3594 Q698.1563,170.0781 697.5313,170.0781 Q696.1875,170.0781 695.5,171.1563 Q694.8125,172.2188 694.8125,174.3125 Q694.8125,176.4063 695.5,177.4844 Q696.1875,178.5469 697.5313,178.5469 Q698.1563,178.5469 698.75,178.2813 Q699.3438,178 699.9688,177.4219 L699.9688,180.1406 Z " fill="#000000"/><text fill="#000000" font-family="sans-serif" font-size="14" lengthAdjust="spacing" textLength="215.0791" x="711" y="179.3467">logic_arc_int__baselibs__future</text><line style="stroke:#181818;stroke-width:0.5;" x1="683" x2="928.0791" y1="190.5" y2="190.5"/></g><!--class comp_arc_sta__baselibs__message_passing--><g id="elem_comp_arc_sta__baselibs__message_passing"><rect fill="#F1F1F1" height="40" id="comp_arc_sta__baselibs__message_passing" rx="2.5" ry="2.5" style="stroke:#181818;stroke-width:0.5;" width="337.1357" x="4915" y="275.5"/><ellipse cx="4930" cy="291.5" fill="#ADD1B2" rx="11" ry="11" style="stroke:#181818;stroke-width:1;"/><path d="M4932.9688,297.1406 Q4932.3906,297.4375 4931.75,297.5781 Q4931.1094,297.7344 4930.4063,297.7344 Q4927.9063,297.7344 4926.5781,296.0938 Q4925.2656,294.4375 4925.2656,291.3125 Q4925.2656,288.1875 4926.5781,286.5313 Q4927.9063,284.875 4930.4063,284.875 Q4931.1094,284.875 4931.75,285.0313 Q4932.4063,285.1875 4932.9688,285.4844 L4932.9688,288.2031 Q4932.3438,287.625 4931.75,287.3594 Q4931.1563,287.0781 4930.5313,287.0781 Q4929.1875,287.0781 4928.5,288.1563 Q4927.8125,289.2188 4927.8125,291.3125 Q4927.8125,293.4063 4928.5,294.4844 Q4929.1875,295.5469 4930.5313,295.5469 Q4931.1563,295.5469 4931.75,295.2813 Q4932.3438,295 4932.9688,294.4219 L4932.9688,297.1406 Z " fill="#000000"/><text fill="#000000" font-family="sans-serif" font-size="14" lengthAdjust="spacing" textLength="305.1357" x="4944" y="296.3467">comp_arc_sta__baselibs__message_passing</text><line style="stroke:#181818;stroke-width:0.5;" x1="4916" x2="5251.1357" y1="307.5" y2="307.5"/></g><!--class logic_arc_int__baselibs__message_passing--><g id="elem_logic_arc_int__baselibs__message_passing"><rect fill="#F1F1F1" height="40" id="logic_arc_int__baselibs__message_passing" rx="2.5" ry="2.5" style="stroke:#181818;stroke-width:0.5;" width="328.167" x="4919.5" y="158.5"/><ellipse cx="4934.5" cy="174.5" fill="#ADD1B2" rx="11" ry="11" style="stroke:#181818;stroke-width:1;"/><path d="M4937.4688,180.1406 Q4936.8906,180.4375 4936.25,180.5781 Q4935.6094,180.7344 4934.9063,180.7344 Q4932.4063,180.7344 4931.0781,179.0938 Q4929.7656,177.4375 4929.7656,174.3125 Q4929.7656,171.1875 4931.0781,169.5313 Q4932.4063,167.875 4934.9063,167.875 Q4935.6094,167.875 4936.25,168.0313 Q4936.9063,168.1875 4937.4688,168.4844 L4937.4688,171.2031 Q4936.8438,170.625 4936.25,170.3594 Q4935.6563,170.0781 4935.0313,170.0781 Q4933.6875,170.0781 4933,171.1563 Q4932.3125,172.2188 4932.3125,174.3125 Q4932.3125,176.4063 4933,177.4844 Q4933.6875,178.5469 4935.0313,178.5469 Q4935.6563,178.5469 4936.25,178.2813 Q4936.8438,178 4937.4688,177.4219 L4937.4688,180.1406 Z " fill="#000000"/><text fill="#000000" font-family="sans-serif" font-size="14" lengthAdjust="spacing" textLength="296.167" x="4948.5" y="179.3467">logic_arc_int__baselibs__message_passing</text><line style="stroke:#181818;stroke-width:0.5;" x1="4920.5" x2="5246.667" y1="190.5" y2="190.5"/></g><!--class logic_arc_int__baselibs__filesystem--><g id="elem_logic_arc_int__baselibs__filesystem"><rect fill="#F1F1F1" height="40" id="logic_arc_int__baselibs__filesystem" rx="2.5" ry="2.5" style="stroke:#181818;stroke-width:0.5;" width="276.4805" x="370.5" y="158.5"/><ellipse cx="385.5" cy="174.5" fill="#ADD1B2" rx="11" ry="11" style="stroke:#181818;stroke-width:1;"/><path d="M388.4688,180.1406 Q387.8906,180.4375 387.25,180.5781 Q386.6094,180.7344 385.9063,180.7344 Q383.4063,180.7344 382.0781,179.0938 Q380.7656,177.4375 380.7656,174.3125 Q380.7656,171.1875 382.0781,169.5313 Q383.4063,167.875 385.9063,167.875 Q386.6094,167.875 387.25,168.0313 Q387.9063,168.1875 388.4688,168.4844 L388.4688,171.2031 Q387.8438,170.625 387.25,170.3594 Q386.6563,170.0781 386.0313,170.0781 Q384.6875,170.0781 384,171.1563 Q383.3125,172.2188 383.3125,174.3125 Q383.3125,176.4063 384,177.4844 Q384.6875,178.5469 386.0313,178.5469 Q386.6563,178.5469 387.25,178.2813 Q387.8438,178 388.4688,177.4219 L388.4688,180.1406 Z " fill="#000000"/><text fill="#000000" font-family="sans-serif" font-size="14" lengthAdjust="spacing" textLength="244.4805" x="399.5" y="179.3467">logic_arc_int__baselibs__filesystem</text><line style="stroke:#181818;stroke-width:0.5;" x1="371.5" x2="645.9805" y1="190.5" y2="190.5"/></g><!--class logic_arc_int__baselibs__memory_shared--><g id="elem_logic_arc_int__baselibs__memory_shared"><rect fill="#F1F1F1" height="40" id="logic_arc_int__baselibs__memory_shared" rx="2.5" ry="2.5" style="stroke:#181818;stroke-width:0.5;" width="318.043" x="15.5" y="158.5"/><ellipse cx="30.5" cy="174.5" fill="#ADD1B2" rx="11" ry="11" style="stroke:#181818;stroke-width:1;"/><path d="M33.4688,180.1406 Q32.8906,180.4375 32.25,180.5781 Q31.6094,180.7344 30.9063,180.7344 Q28.4063,180.7344 27.0781,179.0938 Q25.7656,177.4375 25.7656,174.3125 Q25.7656,171.1875 27.0781,169.5313 Q28.4063,167.875 30.9063,167.875 Q31.6094,167.875 32.25,168.0313 Q32.9063,168.1875 33.4688,168.4844 L33.4688,171.2031 Q32.8438,170.625 32.25,170.3594 Q31.6563,170.0781 31.0313,170.0781 Q29.6875,170.0781 29,171.1563 Q28.3125,172.2188 28.3125,174.3125 Q28.3125,176.4063 29,177.4844 Q29.6875,178.5469 31.0313,178.5469 Q31.6563,178.5469 32.25,178.2813 Q32.8438,178 33.4688,177.4219 L33.4688,180.1406 Z " fill="#000000"/><text fill="#000000" font-family="sans-serif" font-size="14" lengthAdjust="spacing" textLength="286.043" x="44.5" y="179.3467">logic_arc_int__baselibs__memory_shared</text><line style="stroke:#181818;stroke-width:0.5;" x1="16.5" x2="332.543" y1="190.5" y2="190.5"/></g><!--class logic_arc_int__baselibs__condition_variable--><g id="elem_logic_arc_int__baselibs__condition_variable"><rect fill="#F1F1F1" height="40" id="logic_arc_int__baselibs__condition_variable" rx="2.5" ry="2.5" style="stroke:#181818;stroke-width:0.5;" width="332.7539" x="2530" y="158.5"/><ellipse cx="2545" cy="174.5" fill="#ADD1B2" rx="11" ry="11" style="stroke:#181818;stroke-width:1;"/><path d="M2547.9688,180.1406 Q2547.3906,180.4375 2546.75,180.5781 Q2546.1094,180.7344 2545.4063,180.7344 Q2542.9063,180.7344 2541.5781,179.0938 Q2540.2656,177.4375 2540.2656,174.3125 Q2540.2656,171.1875 2541.5781,169.5313 Q2542.9063,167.875 2545.4063,167.875 Q2546.1094,167.875 2546.75,168.0313 Q2547.4063,168.1875 2547.9688,168.4844 L2547.9688,171.2031 Q2547.3438,170.625 2546.75,170.3594 Q2546.1563,170.0781 2545.5313,170.0781 Q2544.1875,170.0781 2543.5,171.1563 Q2542.8125,172.2188 2542.8125,174.3125 Q2542.8125,176.4063 2543.5,177.4844 Q2544.1875,178.5469 2545.5313,178.5469 Q2546.1563,178.5469 2546.75,178.2813 Q2547.3438,178 2547.9688,177.4219 L2547.9688,180.1406 Z " fill="#000000"/><text fill="#000000" font-family="sans-serif" font-size="14" lengthAdjust="spacing" textLength="300.7539" x="2559" y="179.3467">logic_arc_int__baselibs__condition_variable</text><line style="stroke:#181818;stroke-width:0.5;" x1="2531" x2="2861.7539" y1="190.5" y2="190.5"/></g><!--class logic_arc_int__baselibs__shared_future--><g id="elem_logic_arc_int__baselibs__shared_future"><rect fill="#F1F1F1" height="40" id="logic_arc_int__baselibs__shared_future" rx="2.5" ry="2.5" style="stroke:#181818;stroke-width:0.5;" width="302.0811" x="2898.5" y="158.5"/><ellipse cx="2913.5" cy="174.5" fill="#ADD1B2" rx="11" ry="11" style="stroke:#181818;stroke-width:1;"/><path d="M2916.4688,180.1406 Q2915.8906,180.4375 2915.25,180.5781 Q2914.6094,180.7344 2913.9063,180.7344 Q2911.4063,180.7344 2910.0781,179.0938 Q2908.7656,177.4375 2908.7656,174.3125 Q2908.7656,171.1875 2910.0781,169.5313 Q2911.4063,167.875 2913.9063,167.875 Q2914.6094,167.875 2915.25,168.0313 Q2915.9063,168.1875 2916.4688,168.4844 L2916.4688,171.2031 Q2915.8438,170.625 2915.25,170.3594 Q2914.6563,170.0781 2914.0313,170.0781 Q2912.6875,170.0781 2912,171.1563 Q2911.3125,172.2188 2911.3125,174.3125 Q2911.3125,176.4063 2912,177.4844 Q2912.6875,178.5469 2914.0313,178.5469 Q2914.6563,178.5469 2915.25,178.2813 Q2915.8438,178 2916.4688,177.4219 L2916.4688,180.1406 Z " fill="#000000"/><text fill="#000000" font-family="sans-serif" font-size="14" lengthAdjust="spacing" textLength="270.0811" x="2927.5" y="179.3467">logic_arc_int__baselibs__shared_future</text><line style="stroke:#181818;stroke-width:0.5;" x1="2899.5" x2="3199.5811" y1="190.5" y2="190.5"/></g><!--class comp_arc_sta__baselibs__result--><g id="elem_comp_arc_sta__baselibs__result"><rect fill="#F1F1F1" height="40" id="comp_arc_sta__baselibs__result" rx="2.5" ry="2.5" style="stroke:#181818;stroke-width:0.5;" width="253.4297" x="4627" y="275.5"/><ellipse cx="4642" cy="291.5" fill="#ADD1B2" rx="11" ry="11" style="stroke:#181818;stroke-width:1;"/><path d="M4644.9688,297.1406 Q4644.3906,297.4375 4643.75,297.5781 Q4643.1094,297.7344 4642.4063,297.7344 Q4639.9063,297.7344 4638.5781,296.0938 Q4637.2656,294.4375 4637.2656,291.3125 Q4637.2656,288.1875 4638.5781,286.5313 Q4639.9063,284.875 4642.4063,284.875 Q4643.1094,284.875 4643.75,285.0313 Q4644.4063,285.1875 4644.9688,285.4844 L4644.9688,288.2031 Q4644.3438,287.625 4643.75,287.3594 Q4643.1563,287.0781 4642.5313,287.0781 Q4641.1875,287.0781 4640.5,288.1563 Q4639.8125,289.2188 4639.8125,291.3125 Q4639.8125,293.4063 4640.5,294.4844 Q4641.1875,295.5469 4642.5313,295.5469 Q4643.1563,295.5469 4643.75,295.2813 Q4644.3438,295 4644.9688,294.4219 L4644.9688,297.1406 Z " fill="#000000"/><text fill="#000000" font-family="sans-serif" font-size="14" lengthAdjust="spacing" textLength="221.4297" x="4656" y="296.3467">comp_arc_sta__baselibs__result</text><line style="stroke:#181818;stroke-width:0.5;" x1="4628" x2="4879.4297" y1="307.5" y2="307.5"/></g><!--class logic_arc_int__baselibs__result--><g id="elem_logic_arc_int__baselibs__result"><rect fill="#F1F1F1" height="40" id="logic_arc_int__baselibs__result" rx="2.5" ry="2.5" style="stroke:#181818;stroke-width:0.5;" width="244.4609" x="4640.5" y="158.5"/><ellipse cx="4655.5" cy="174.5" fill="#ADD1B2" rx="11" ry="11" style="stroke:#181818;stroke-width:1;"/><path d="M4658.4688,180.1406 Q4657.8906,180.4375 4657.25,180.5781 Q4656.6094,180.7344 4655.9063,180.7344 Q4653.4063,180.7344 4652.0781,179.0938 Q4650.7656,177.4375 4650.7656,174.3125 Q4650.7656,171.1875 4652.0781,169.5313 Q4653.4063,167.875 4655.9063,167.875 Q4656.6094,167.875 4657.25,168.0313 Q4657.9063,168.1875 4658.4688,168.4844 L4658.4688,171.2031 Q4657.8438,170.625 4657.25,170.3594 Q4656.6563,170.0781 4656.0313,170.0781 Q4654.6875,170.0781 4654,171.1563 Q4653.3125,172.2188 4653.3125,174.3125 Q4653.3125,176.4063 4654,177.4844 Q4654.6875,178.5469 4656.0313,178.5469 Q4656.6563,178.5469 4657.25,178.2813 Q4657.8438,178 4658.4688,177.4219 L4658.4688,180.1406 Z " fill="#000000"/><text fill="#000000" font-family="sans-serif" font-size="14" lengthAdjust="spacing" textLength="212.4609" x="4669.5" y="179.3467">logic_arc_int__baselibs__result</text><line style="stroke:#181818;stroke-width:0.5;" x1="4641.5" x2="4883.9609" y1="190.5" y2="190.5"/></g><!--class logic_arc_int__baselibs__promise--><g id="elem_logic_arc_int__baselibs__promise"><rect fill="#F1F1F1" height="40" id="logic_arc_int__baselibs__promise" rx="2.5" ry="2.5" style="stroke:#181818;stroke-width:0.5;" width="261.1885" x="2234" y="158.5"/><ellipse cx="2249" cy="174.5" fill="#ADD1B2" rx="11" ry="11" style="stroke:#181818;stroke-width:1;"/><path d="M2251.9688,180.1406 Q2251.3906,180.4375 2250.75,180.5781 Q2250.1094,180.7344 2249.4063,180.7344 Q2246.9063,180.7344 2245.5781,179.0938 Q2244.2656,177.4375 2244.2656,174.3125 Q2244.2656,171.1875 2245.5781,169.5313 Q2246.9063,167.875 2249.4063,167.875 Q2250.1094,167.875 2250.75,168.0313 Q2251.4063,168.1875 2251.9688,168.4844 L2251.9688,171.2031 Q2251.3438,170.625 2250.75,170.3594 Q2250.1563,170.0781 2249.5313,170.0781 Q2248.1875,170.0781 2247.5,171.1563 Q2246.8125,172.2188 2246.8125,174.3125 Q2246.8125,176.4063 2247.5,177.4844 Q2248.1875,178.5469 2249.5313,178.5469 Q2250.1563,178.5469 2250.75,178.2813 Q2251.3438,178 2251.9688,177.4219 L2251.9688,180.1406 Z " fill="#000000"/><text fill="#000000" font-family="sans-serif" font-size="14" lengthAdjust="spacing" textLength="229.1885" x="2263" y="179.3467">logic_arc_int__baselibs__promise</text><line style="stroke:#181818;stroke-width:0.5;" x1="2235" x2="2494.1885" y1="190.5" y2="190.5"/></g><!--class logic_arc_int__baselibs__task_result--><g id="elem_logic_arc_int__baselibs__task_result"><rect fill="#F1F1F1" height="40" id="logic_arc_int__baselibs__task_result" rx="2.5" ry="2.5" style="stroke:#181818;stroke-width:0.5;" width="280.9307" x="1918" y="158.5"/><ellipse cx="1933" cy="174.5" fill="#ADD1B2" rx="11" ry="11" style="stroke:#181818;stroke-width:1;"/><path d="M1935.9688,180.1406 Q1935.3906,180.4375 1934.75,180.5781 Q1934.1094,180.7344 1933.4063,180.7344 Q1930.9063,180.7344 1929.5781,179.0938 Q1928.2656,177.4375 1928.2656,174.3125 Q1928.2656,171.1875 1929.5781,169.5313 Q1930.9063,167.875 1933.4063,167.875 Q1934.1094,167.875 1934.75,168.0313 Q1935.4063,168.1875 1935.9688,168.4844 L1935.9688,171.2031 Q1935.3438,170.625 1934.75,170.3594 Q1934.1563,170.0781 1933.5313,170.0781 Q1932.1875,170.0781 1931.5,171.1563 Q1930.8125,172.2188 1930.8125,174.3125 Q1930.8125,176.4063 1931.5,177.4844 Q1932.1875,178.5469 1933.5313,178.5469 Q1934.1563,178.5469 1934.75,178.2813 Q1935.3438,178 1935.9688,177.4219 L1935.9688,180.1406 Z " fill="#000000"/><text fill="#000000" font-family="sans-serif" font-size="14" lengthAdjust="spacing" textLength="248.9307" x="1947" y="179.3467">logic_arc_int__baselibs__task_result</text><line style="stroke:#181818;stroke-width:0.5;" x1="1919" x2="2197.9307" y1="190.5" y2="190.5"/></g><!--class logic_arc_int__baselibs__executor--><g id="elem_logic_arc_int__baselibs__executor"><rect fill="#F1F1F1" height="40" id="logic_arc_int__baselibs__executor" rx="2.5" ry="2.5" style="stroke:#181818;stroke-width:0.5;" width="266.4385" x="1616.5" y="158.5"/><ellipse cx="1631.5" cy="174.5" fill="#ADD1B2" rx="11" ry="11" style="stroke:#181818;stroke-width:1;"/><path d="M1634.4688,180.1406 Q1633.8906,180.4375 1633.25,180.5781 Q1632.6094,180.7344 1631.9063,180.7344 Q1629.4063,180.7344 1628.0781,179.0938 Q1626.7656,177.4375 1626.7656,174.3125 Q1626.7656,171.1875 1628.0781,169.5313 Q1629.4063,167.875 1631.9063,167.875 Q1632.6094,167.875 1633.25,168.0313 Q1633.9063,168.1875 1634.4688,168.4844 L1634.4688,171.2031 Q1633.8438,170.625 1633.25,170.3594 Q1632.6563,170.0781 1632.0313,170.0781 Q1630.6875,170.0781 1630,171.1563 Q1629.3125,172.2188 1629.3125,174.3125 Q1629.3125,176.4063 1630,177.4844 Q1630.6875,178.5469 1632.0313,178.5469 Q1632.6563,178.5469 1633.25,178.2813 Q1633.8438,178 1634.4688,177.4219 L1634.4688,180.1406 Z " fill="#000000"/><text fill="#000000" font-family="sans-serif" font-size="14" lengthAdjust="spacing" textLength="234.4385" x="1645.5" y="179.3467">logic_arc_int__baselibs__executor</text><line style="stroke:#181818;stroke-width:0.5;" x1="1617.5" x2="1881.9385" y1="190.5" y2="190.5"/></g><!--class comp_arc_sta__baselibs__filesystem--><g id="elem_comp_arc_sta__baselibs__filesystem"><rect fill="#F1F1F1" height="40" id="comp_arc_sta__baselibs__filesystem" rx="2.5" ry="2.5" style="stroke:#181818;stroke-width:0.5;" width="285.4492" x="369" y="275.5"/><ellipse cx="384" cy="291.5" fill="#ADD1B2" rx="11" ry="11" style="stroke:#181818;stroke-width:1;"/><path d="M386.9688,297.1406 Q386.3906,297.4375 385.75,297.5781 Q385.1094,297.7344 384.4063,297.7344 Q381.9063,297.7344 380.5781,296.0938 Q379.2656,294.4375 379.2656,291.3125 Q379.2656,288.1875 380.5781,286.5313 Q381.9063,284.875 384.4063,284.875 Q385.1094,284.875 385.75,285.0313 Q386.4063,285.1875 386.9688,285.4844 L386.9688,288.2031 Q386.3438,287.625 385.75,287.3594 Q385.1563,287.0781 384.5313,287.0781 Q383.1875,287.0781 382.5,288.1563 Q381.8125,289.2188 381.8125,291.3125 Q381.8125,293.4063 382.5,294.4844 Q383.1875,295.5469 384.5313,295.5469 Q385.1563,295.5469 385.75,295.2813 Q386.3438,295 386.9688,294.4219 L386.9688,297.1406 Z " fill="#000000"/><text fill="#000000" font-family="sans-serif" font-size="14" lengthAdjust="spacing" textLength="253.4492" x="398" y="296.3467">comp_arc_sta__baselibs__filesystem</text><line style="stroke:#181818;stroke-width:0.5;" x1="370" x2="653.4492" y1="307.5" y2="307.5"/></g><!--class comp_arc_sta__baselibs__memory_shared--><g id="elem_comp_arc_sta__baselibs__memory_shared"><rect fill="#F1F1F1" height="40" id="comp_arc_sta__baselibs__memory_shared" rx="2.5" ry="2.5" style="stroke:#181818;stroke-width:0.5;" width="327.0117" x="7" y="275.5"/><ellipse cx="22" cy="291.5" fill="#ADD1B2" rx="11" ry="11" style="stroke:#181818;stroke-width:1;"/><path d="M24.9688,297.1406 Q24.3906,297.4375 23.75,297.5781 Q23.1094,297.7344 22.4063,297.7344 Q19.9063,297.7344 18.5781,296.0938 Q17.2656,294.4375 17.2656,291.3125 Q17.2656,288.1875 18.5781,286.5313 Q19.9063,284.875 22.4063,284.875 Q23.1094,284.875 23.75,285.0313 Q24.4063,285.1875 24.9688,285.4844 L24.9688,288.2031 Q24.3438,287.625 23.75,287.3594 Q23.1563,287.0781 22.5313,287.0781 Q21.1875,287.0781 20.5,288.1563 Q19.8125,289.2188 19.8125,291.3125 Q19.8125,293.4063 20.5,294.4844 Q21.1875,295.5469 22.5313,295.5469 Q23.1563,295.5469 23.75,295.2813 Q24.3438,295 24.9688,294.4219 L24.9688,297.1406 Z " fill="#000000"/><text fill="#000000" font-family="sans-serif" font-size="14" lengthAdjust="spacing" textLength="295.0117" x="36" y="296.3467">comp_arc_sta__baselibs__memory_shared</text><line style="stroke:#181818;stroke-width:0.5;" x1="8" x2="333.0117" y1="307.5" y2="307.5"/></g><!--link Feature_User to logic_arc_int__baselibs__synchronized_queue--><g id="link_Feature_User_logic_arc_int__baselibs__synchronized_queue"><path codeLine="15" d="M3004.45,46.65 C2848.89,54.15 2319.86,80.46 1883.5,111.5 C1637.02,129.03 1575.56,135.82 1329.5,158.5 C1323.94,159.01 1324.2633,158.9741 1318.5633,159.5141 " fill="transparent" id="Feature_User-to-logic_arc_int__baselibs__synchronized_queue" style="stroke:#181818;stroke-width:1;"/><polygon fill="#181818" points="1312.59,160.08,1321.9271,163.2133,1317.5677,159.6084,1321.1726,155.249,1312.59,160.08" style="stroke:#181818;stroke-width:1;"/><text fill="#000000" font-family="sans-serif" font-size="13" lengthAdjust="spacing" textLength="23.0103" x="1884.5" y="124.5669">use</text></g><!--link Feature_User to logic_arc_int__baselibs__task--><g id="link_Feature_User_logic_arc_int__baselibs__task"><path codeLine="16" d="M3004.26,46.92 C2825.46,56.71 2150.88,95.92 1598.5,158.5 C1593.01,159.12 1593.3546,159.0536 1587.6946,159.7536 " fill="transparent" id="Feature_User-to-logic_arc_int__baselibs__task" style="stroke:#181818;stroke-width:1;"/><polygon fill="#181818" points="1581.74,160.49,1591.1629,163.3551,1586.7022,159.8763,1590.181,155.4156,1581.74,160.49" style="stroke:#181818;stroke-width:1;"/><text fill="#000000" font-family="sans-serif" font-size="13" lengthAdjust="spacing" textLength="23.0103" x="2077.5" y="124.5669">use</text></g><!--link Feature_User to logic_arc_int__baselibs__intrusive_list--><g id="link_Feature_User_logic_arc_int__baselibs__intrusive_list"><path codeLine="17" d="M3094.75,45.19 C3323.01,48.84 4370.83,67.32 5227.5,111.5 C5516.32,126.39 5588.56,131.51 5876.5,158.5 C5882.53,159.07 5882.7097,159.0739 5888.9197,159.6939 " fill="transparent" id="Feature_User-to-logic_arc_int__baselibs__intrusive_list" style="stroke:#181818;stroke-width:1;"/><polygon fill="#181818" points="5894.89,160.29,5886.3319,155.4157,5889.9147,159.7933,5885.5371,163.3761,5894.89,160.29" style="stroke:#181818;stroke-width:1;"/><text fill="#000000" font-family="sans-serif" font-size="13" lengthAdjust="spacing" textLength="23.0103" x="5521.5" y="124.5669">use</text></g><!--reverse link logic_arc_int__baselibs__utils_base64 to comp_arc_sta__baselibs__utils--><g id="link_logic_arc_int__baselibs__utils_base64_comp_arc_sta__baselibs__utils"><path codeLine="18" d="M4421.3479,201.7743 C4384.8679,223.0643 4331.64,254.14 4295.25,275.38 " fill="transparent" id="logic_arc_int__baselibs__utils_base64-backto-comp_arc_sta__baselibs__utils" style="stroke:#181818;stroke-width:1;"/><polygon fill="#181818" points="4426.53,198.75,4416.7407,199.8317,4422.2116,201.2702,4420.7731,206.7411,4426.53,198.75" style="stroke:#181818;stroke-width:1;"/><text fill="#000000" font-family="sans-serif" font-size="13" lengthAdjust="spacing" textLength="76.9082" x="4374.5" y="241.5669">implements</text></g><!--link Feature_User to logic_arc_int__baselibs__bit_mask_operator--><g id="link_Feature_User_logic_arc_int__baselibs__bit_mask_operator"><path codeLine="19" d="M3094.52,52.92 C3206.85,73.93 3495.8523,127.9967 3652.8523,157.3667 " fill="transparent" id="Feature_User-to-logic_arc_int__baselibs__bit_mask_operator" style="stroke:#181818;stroke-width:1;"/><polygon fill="#181818" points="3658.75,158.47,3650.639,152.8833,3653.8353,157.5506,3649.1679,160.7469,3658.75,158.47" style="stroke:#181818;stroke-width:1;"/><text fill="#000000" font-family="sans-serif" font-size="13" lengthAdjust="spacing" textLength="23.0103" x="3491.5" y="124.5669">use</text></g><!--link Feature_User to logic_arc_int__baselibs__dynamic_array--><g id="link_Feature_User_logic_arc_int__baselibs__dynamic_array"><path codeLine="20" d="M3094.76,45.39 C3304.22,49.68 4200.53,69.68 4934.5,111.5 C5201.11,126.69 5267.64,133.39 5533.5,158.5 C5539.33,159.05 5539.2988,159.0428 5545.2988,159.6328 " fill="transparent" id="Feature_User-to-logic_arc_int__baselibs__dynamic_array" style="stroke:#181818;stroke-width:1;"/><polygon fill="#181818" points="5551.27,160.22,5542.7046,155.3584,5546.294,159.7307,5541.9218,163.32,5551.27,160.22" style="stroke:#181818;stroke-width:1;"/><text fill="#000000" font-family="sans-serif" font-size="13" lengthAdjust="spacing" textLength="23.0103" x="5195.5" y="124.5669">use</text></g><!--link Feature_User to logic_arc_int__baselibs__utils_scoped_op--><g id="link_Feature_User_logic_arc_int__baselibs__utils_scoped_op"><path codeLine="21" d="M3094.84,50.13 C3243.24,68.56 3713.2357,126.9205 3961.1457,157.7105 " fill="transparent" id="Feature_User-to-logic_arc_int__baselibs__utils_scoped_op" style="stroke:#181818;stroke-width:1;"/><polygon fill="#181818" points="3967.1,158.45,3958.6616,153.3712,3962.1381,157.8337,3957.6756,161.3102,3967.1,158.45" style="stroke:#181818;stroke-width:1;"/><text fill="#000000" font-family="sans-serif" font-size="13" lengthAdjust="spacing" textLength="23.0103" x="3713.5" y="124.5669">use</text></g><!--reverse link logic_arc_int__baselibs__dynamic_array to comp_arc_sta__baselibs__containers--><g id="link_logic_arc_int__baselibs__dynamic_array_comp_arc_sta__baselibs__containers"><path codeLine="22" d="M5738.7506,202.1252 C5770.0406,223.4152 5815.19,254.14 5846.4,275.38 " fill="transparent" id="logic_arc_int__baselibs__dynamic_array-backto-comp_arc_sta__baselibs__containers" style="stroke:#181818;stroke-width:1;"/><polygon fill="#181818" points="5733.79,198.75,5738.9808,207.1199,5737.9238,201.5627,5743.4811,200.5058,5733.79,198.75" style="stroke:#181818;stroke-width:1;"/><text fill="#000000" font-family="sans-serif" font-size="13" lengthAdjust="spacing" textLength="76.9082" x="5801.5" y="241.5669">implements</text></g><!--reverse link logic_arc_int__baselibs__intrusive_list to comp_arc_sta__baselibs__containers--><g id="link_logic_arc_int__baselibs__intrusive_list_comp_arc_sta__baselibs__containers"><path codeLine="23" d="M6008.6082,202.1527 C5977.6882,223.4427 5933.11,254.14 5902.26,275.38 " fill="transparent" id="logic_arc_int__baselibs__intrusive_list-backto-comp_arc_sta__baselibs__containers" style="stroke:#181818;stroke-width:1;"/><polygon fill="#181818" points="6013.55,198.75,6003.8688,200.5595,6009.4318,201.5856,6008.4057,207.1486,6013.55,198.75" style="stroke:#181818;stroke-width:1;"/><text fill="#000000" font-family="sans-serif" font-size="13" lengthAdjust="spacing" textLength="76.9082" x="5969.5" y="241.5669">implements</text></g><!--reverse link logic_arc_int__baselibs__bit_manipulation to comp_arc_sta__baselibs__bit_manipulation--><g id="link_logic_arc_int__baselibs__bit_manipulation_comp_arc_sta__baselibs__bit_manipulation"><path codeLine="24" d="M3431.6865,201.9799 C3465.0165,223.2699 3513.33,254.14 3546.57,275.38 " fill="transparent" id="logic_arc_int__baselibs__bit_manipulation-backto-comp_arc_sta__baselibs__bit_manipulation" style="stroke:#181818;stroke-width:1;"/><polygon fill="#181818" points="3426.63,198.75,3432.0614,206.9658,3430.8437,201.4416,3436.368,200.2239,3426.63,198.75" style="stroke:#181818;stroke-width:1;"/><text fill="#000000" font-family="sans-serif" font-size="13" lengthAdjust="spacing" textLength="76.9082" x="3498.5" y="241.5669">implements</text></g><!--reverse link logic_arc_int__baselibs__json to comp_arc_sta__baselibs__json--><g id="link_logic_arc_int__baselibs__json_comp_arc_sta__baselibs__json"><path codeLine="25" d="M5401.4777,204.7317 C5403.1377,225.9617 5405.33,253.94 5406.99,275.19 " fill="transparent" id="logic_arc_int__baselibs__json-backto-comp_arc_sta__baselibs__json" style="stroke:#181818;stroke-width:1;"/><polygon fill="#181818" points="5401.01,198.75,5397.7238,208.0344,5401.3998,203.7348,5405.6994,207.4108,5401.01,198.75" style="stroke:#181818;stroke-width:1;"/><text fill="#000000" font-family="sans-serif" font-size="13" lengthAdjust="spacing" textLength="76.9082" x="5406.5" y="241.5669">implements</text></g><!--reverse link logic_arc_int__baselibs__future to comp_arc_sta__baselibs__concurrency--><g id="link_logic_arc_int__baselibs__future_comp_arc_sta__baselibs__concurrency"><path codeLine="26" d="M935.2321,197.1068 C941.0521,197.8468 940.86,197.81 946.5,198.5 C1213.56,231.33 1525.58,262.74 1706.17,280.24 " fill="transparent" id="logic_arc_int__baselibs__future-backto-comp_arc_sta__baselibs__concurrency" style="stroke:#181818;stroke-width:1;"/><polygon fill="#181818" points="929.28,196.35,937.7036,201.4532,934.2401,196.9807,938.7127,193.5171,929.28,196.35" style="stroke:#181818;stroke-width:1;"/><text fill="#000000" font-family="sans-serif" font-size="13" lengthAdjust="spacing" textLength="76.9082" x="1347.5" y="241.5669">implements</text></g><!--reverse link logic_arc_int__baselibs__message_passing to comp_arc_sta__baselibs__message_passing--><g id="link_logic_arc_int__baselibs__message_passing_comp_arc_sta__baselibs__message_passing"><path codeLine="27" d="M5083.5,204.75 C5083.5,225.98 5083.5,253.94 5083.5,275.19 " fill="transparent" id="logic_arc_int__baselibs__message_passing-backto-comp_arc_sta__baselibs__message_passing" style="stroke:#181818;stroke-width:1;"/><polygon fill="#181818" points="5083.5,198.75,5079.5,207.75,5083.5,203.75,5087.5,207.75,5083.5,198.75" style="stroke:#181818;stroke-width:1;"/><text fill="#000000" font-family="sans-serif" font-size="13" lengthAdjust="spacing" textLength="76.9082" x="5084.5" y="241.5669">implements</text></g><!--link Feature_User to logic_arc_int__baselibs__filesystem--><g id="link_Feature_User_logic_arc_int__baselibs__filesystem"><path codeLine="28" d="M3004.26,45.61 C2803.31,50.65 1971.44,72.89 1289.5,111.5 C1011.38,127.25 941.72,131.21 664.5,158.5 C658.66,159.07 658.6663,159.0547 652.6563,159.6947 " fill="transparent" id="Feature_User-to-logic_arc_int__baselibs__filesystem" style="stroke:#181818;stroke-width:1;"/><polygon fill="#181818" points="646.69,160.33,656.063,163.3545,651.6619,159.8005,655.2158,155.3995,646.69,160.33" style="stroke:#181818;stroke-width:1;"/><text fill="#000000" font-family="sans-serif" font-size="13" lengthAdjust="spacing" textLength="23.0103" x="1290.5" y="124.5669">use</text></g><!--link Feature_User to logic_arc_int__baselibs__memory_shared--><g id="link_Feature_User_logic_arc_int__baselibs__memory_shared"><path codeLine="29" d="M3004.22,45.24 C2782.44,49.02 1788.5,67.72 975.5,111.5 C698.23,126.43 629.03,133.32 352.5,158.5 C346.31,159.06 345.9727,159.088 339.6027,159.698 " fill="transparent" id="Feature_User-to-logic_arc_int__baselibs__memory_shared" style="stroke:#181818;stroke-width:1;"/><polygon fill="#181818" points="333.63,160.27,342.9703,163.3939,338.6072,159.7934,342.2077,155.4303,333.63,160.27" style="stroke:#181818;stroke-width:1;"/><text fill="#000000" font-family="sans-serif" font-size="13" lengthAdjust="spacing" textLength="23.0103" x="976.5" y="124.5669">use</text></g><!--link Feature_User to logic_arc_int__baselibs__condition_variable--><g id="link_Feature_User_logic_arc_int__baselibs__condition_variable"><path codeLine="30" d="M3004.43,61.48 C2938.45,86.34 2821.5446,130.3842 2752.6046,156.3642 " fill="transparent" id="Feature_User-to-logic_arc_int__baselibs__condition_variable" style="stroke:#181818;stroke-width:1;"/><polygon fill="#181818" points="2746.99,158.48,2756.8224,159.0493,2751.6688,156.7168,2754.0013,151.5632,2746.99,158.48" style="stroke:#181818;stroke-width:1;"/><text fill="#000000" font-family="sans-serif" font-size="13" lengthAdjust="spacing" textLength="23.0103" x="2863.5" y="124.5669">use</text></g><!--link Feature_User to logic_arc_int__baselibs__shared_future--><g id="link_Feature_User_logic_arc_int__baselibs__shared_future"><path codeLine="31" d="M3049.5,81.55 C3049.5,106.45 3049.5,132.26 3049.5,152.26 " fill="transparent" id="Feature_User-to-logic_arc_int__baselibs__shared_future" style="stroke:#181818;stroke-width:1;"/><polygon fill="#181818" points="3049.5,158.26,3053.5,149.26,3049.5,153.26,3045.5,149.26,3049.5,158.26" style="stroke:#181818;stroke-width:1;"/><text fill="#000000" font-family="sans-serif" font-size="13" lengthAdjust="spacing" textLength="23.0103" x="3050.5" y="124.5669">use</text></g><!--reverse link logic_arc_int__baselibs__result to comp_arc_sta__baselibs__result--><g id="link_logic_arc_int__baselibs__result_comp_arc_sta__baselibs__result"><path codeLine="32" d="M4760.5223,204.7317 C4758.8623,225.9617 4756.67,253.94 4755.01,275.19 " fill="transparent" id="logic_arc_int__baselibs__result-backto-comp_arc_sta__baselibs__result" style="stroke:#181818;stroke-width:1;"/><polygon fill="#181818" points="4760.99,198.75,4756.3006,207.4108,4760.6002,203.7348,4764.2762,208.0344,4760.99,198.75" style="stroke:#181818;stroke-width:1;"/><text fill="#000000" font-family="sans-serif" font-size="13" lengthAdjust="spacing" textLength="76.9082" x="4760.5" y="241.5669">implements</text></g><!--reverse link logic_arc_int__baselibs__promise to comp_arc_sta__baselibs__concurrency--><g id="link_logic_arc_int__baselibs__promise_comp_arc_sta__baselibs__concurrency"><path codeLine="33" d="M2274.4781,199.8748 C2180.4381,221.1648 2034.94,254.11 1940.83,275.41 " fill="transparent" id="logic_arc_int__baselibs__promise-backto-comp_arc_sta__baselibs__concurrency" style="stroke:#181818;stroke-width:1;"/><polygon fill="#181818" points="2280.33,198.55,2270.6689,196.636,2275.4534,199.654,2272.4354,204.4385,2280.33,198.55" style="stroke:#181818;stroke-width:1;"/><text fill="#000000" font-family="sans-serif" font-size="13" lengthAdjust="spacing" textLength="76.9082" x="2142.5" y="241.5669">implements</text></g><!--reverse link logic_arc_int__baselibs__task_result to comp_arc_sta__baselibs__concurrency--><g id="link_logic_arc_int__baselibs__task_result_comp_arc_sta__baselibs__concurrency"><path codeLine="34" d="M2019.4757,201.7183 C1982.0757,223.0083 1927.39,254.14 1890.08,275.38 " fill="transparent" id="logic_arc_int__baselibs__task_result-backto-comp_arc_sta__baselibs__concurrency" style="stroke:#181818;stroke-width:1;"/><polygon fill="#181818" points="2024.69,198.75,2014.8896,199.7262,2020.3447,201.2236,2018.8473,206.6786,2024.69,198.75" style="stroke:#181818;stroke-width:1;"/><text fill="#000000" font-family="sans-serif" font-size="13" lengthAdjust="spacing" textLength="76.9082" x="1971.5" y="241.5669">implements</text></g><!--link Feature_User to logic_arc_int__baselibs__result--><g id="link_Feature_User_logic_arc_int__baselibs__result"><path codeLine="35" d="M3094.65,46.64 C3282.36,55.79 4019.45,94.05 4622.5,158.5 C4628.35,159.13 4628.381,159.0995 4634.421,159.8095 " fill="transparent" id="Feature_User-to-logic_arc_int__baselibs__result" style="stroke:#181818;stroke-width:1;"/><polygon fill="#181818" points="4640.38,160.51,4631.9085,155.4866,4635.4142,159.9263,4630.9746,163.4319,4640.38,160.51" style="stroke:#181818;stroke-width:1;"/><text fill="#000000" font-family="sans-serif" font-size="13" lengthAdjust="spacing" textLength="23.0103" x="4280.5" y="124.5669">use</text></g><!--link Feature_User to logic_arc_int__baselibs__executor--><g id="link_Feature_User_logic_arc_int__baselibs__executor"><path codeLine="36" d="M3004.29,48.55 C2849.93,62.49 2329.53,110.23 1900.5,158.5 C1894.72,159.15 1894.7789,159.129 1888.8289,159.829 " fill="transparent" id="Feature_User-to-logic_arc_int__baselibs__executor" style="stroke:#181818;stroke-width:1;"/><polygon fill="#181818" points="1882.87,160.53,1892.2757,163.451,1887.8358,159.9458,1891.341,155.5058,1882.87,160.53" style="stroke:#181818;stroke-width:1;"/><text fill="#000000" font-family="sans-serif" font-size="13" lengthAdjust="spacing" textLength="23.0103" x="2343.5" y="124.5669">use</text></g><!--link Feature_User to logic_arc_int__baselibs__future--><g id="link_Feature_User_logic_arc_int__baselibs__future"><path codeLine="37" d="M3004.42,46.27 C2828.41,53.27 2170.63,80.12 1629.5,111.5 C1325.74,129.12 1249.21,127.72 946.5,158.5 C940.85,159.07 941.0319,159.0251 935.2019,159.6851 " fill="transparent" id="Feature_User-to-logic_arc_int__baselibs__future" style="stroke:#181818;stroke-width:1;"/><polygon fill="#181818" points="929.24,160.36,938.6328,163.3222,934.2083,159.7976,937.7329,155.373,929.24,160.36" style="stroke:#181818;stroke-width:1;"/><text fill="#000000" font-family="sans-serif" font-size="13" lengthAdjust="spacing" textLength="23.0103" x="1630.5" y="124.5669">use</text></g><!--reverse link logic_arc_int__baselibs__executor to comp_arc_sta__baselibs__concurrency--><g id="link_logic_arc_int__baselibs__executor_comp_arc_sta__baselibs__concurrency"><path codeLine="38" d="M1771.4968,203.143 C1791.2468,224.373 1818.76,253.94 1838.53,275.19 " fill="transparent" id="logic_arc_int__baselibs__executor-backto-comp_arc_sta__baselibs__concurrency" style="stroke:#181818;stroke-width:1;"/><polygon fill="#181818" points="1767.41,198.75,1770.6115,208.064,1770.8156,202.4108,1776.4688,202.615,1767.41,198.75" style="stroke:#181818;stroke-width:1;"/><text fill="#000000" font-family="sans-serif" font-size="13" lengthAdjust="spacing" textLength="76.9082" x="1810.5" y="241.5669">implements</text></g><!--reverse link logic_arc_int__baselibs__filesystem to comp_arc_sta__baselibs__filesystem--><g id="link_logic_arc_int__baselibs__filesystem_comp_arc_sta__baselibs__filesystem"><path codeLine="39" d="M509.1582,204.7479 C509.7182,225.9779 510.44,253.94 511,275.19 " fill="transparent" id="logic_arc_int__baselibs__filesystem-backto-comp_arc_sta__baselibs__filesystem" style="stroke:#181818;stroke-width:1;"/><polygon fill="#181818" points="509,198.75,505.2387,207.8523,509.1318,203.7483,513.2359,207.6414,509,198.75" style="stroke:#181818;stroke-width:1;"/><text fill="#000000" font-family="sans-serif" font-size="13" lengthAdjust="spacing" textLength="76.9082" x="511.5" y="241.5669">implements</text></g><!--reverse link logic_arc_int__baselibs__task to comp_arc_sta__baselibs__concurrency--><g id="link_logic_arc_int__baselibs__task_comp_arc_sta__baselibs__concurrency"><path codeLine="40" d="M1535.4274,200.3089 C1608.0374,221.6089 1718.96,254.15 1791.5,275.43 " fill="transparent" id="logic_arc_int__baselibs__task-backto-comp_arc_sta__baselibs__concurrency" style="stroke:#181818;stroke-width:1;"/><polygon fill="#181818" points="1529.67,198.62,1537.1801,204.9916,1534.4678,200.0274,1539.432,197.3151,1529.67,198.62" style="stroke:#181818;stroke-width:1;"/><text fill="#000000" font-family="sans-serif" font-size="13" lengthAdjust="spacing" textLength="76.9082" x="1685.5" y="241.5669">implements</text></g><!--link Feature_User to logic_arc_int__baselibs__task_result--><g id="link_Feature_User_logic_arc_int__baselibs__task_result"><path codeLine="41" d="M3004.34,50.56 C2863.2,69.5 2432.1967,127.3418 2204.9567,157.8418 " fill="transparent" id="Feature_User-to-logic_arc_int__baselibs__task_result" style="stroke:#181818;stroke-width:1;"/><polygon fill="#181818" points="2199.01,158.64,2208.4621,161.4072,2203.9656,157.9749,2207.3979,153.4783,2199.01,158.64" style="stroke:#181818;stroke-width:1;"/><text fill="#000000" font-family="sans-serif" font-size="13" lengthAdjust="spacing" textLength="23.0103" x="2525.5" y="124.5669">use</text></g><!--reverse link logic_arc_int__baselibs__synchronized_queue to comp_arc_sta__baselibs__concurrency--><g id="link_logic_arc_int__baselibs__synchronized_queue_comp_arc_sta__baselibs__concurrency"><path codeLine="42" d="M1263.3944,199.4992 C1396.4044,220.8092 1604.62,254.16 1737.6,275.46 " fill="transparent" id="logic_arc_int__baselibs__synchronized_queue-backto-comp_arc_sta__baselibs__concurrency" style="stroke:#181818;stroke-width:1;"/><polygon fill="#181818" points="1257.47,198.55,1265.7239,203.9234,1262.407,199.341,1266.9895,196.0241,1257.47,198.55" style="stroke:#181818;stroke-width:1;"/><text fill="#000000" font-family="sans-serif" font-size="13" lengthAdjust="spacing" textLength="76.9082" x="1541.5" y="241.5669">implements</text></g><!--link Feature_User to logic_arc_int__baselibs__promise--><g id="link_Feature_User_logic_arc_int__baselibs__promise"><path codeLine="43" d="M3004.29,53.28 C2894.69,74.56 2618.7,128.1463 2468.32,157.3463 " fill="transparent" id="Feature_User-to-logic_arc_int__baselibs__promise" style="stroke:#181818;stroke-width:1;"/><polygon fill="#181818" points="2462.43,158.49,2472.0274,160.7011,2467.3383,157.5369,2470.5025,152.8478,2462.43,158.49" style="stroke:#181818;stroke-width:1;"/><text fill="#000000" font-family="sans-serif" font-size="13" lengthAdjust="spacing" textLength="23.0103" x="2687.5" y="124.5669">use</text></g><!--reverse link logic_arc_int__baselibs__shared_future to comp_arc_sta__baselibs__concurrency--><g id="link_logic_arc_int__baselibs__shared_future_comp_arc_sta__baselibs__concurrency"><path codeLine="44" d="M2892.4355,197.2017 C2886.3955,197.8617 2886.37,197.86 2880.5,198.5 C2680.14,220.2 2630.13,226.47 2429.5,245.5 C2286.12,259.1 2122.39,272.93 2006.77,282.42 " fill="transparent" id="logic_arc_int__baselibs__shared_future-backto-comp_arc_sta__baselibs__concurrency" style="stroke:#181818;stroke-width:1;"/><polygon fill="#181818" points="2898.4,196.55,2889.0188,193.5513,2893.4296,197.0931,2889.8878,201.504,2898.4,196.55" style="stroke:#181818;stroke-width:1;"/><text fill="#000000" font-family="sans-serif" font-size="13" lengthAdjust="spacing" textLength="76.9082" x="2603.5" y="241.5669">implements</text></g><!--link Feature_User to logic_arc_int__baselibs__json--><g id="link_Feature_User_logic_arc_int__baselibs__json"><path codeLine="45" d="M3094.64,46.06 C3279.14,52.53 3994.07,78.45 4581.5,111.5 C4885.29,128.59 4961.88,126.83 5264.5,158.5 C5270.5,159.13 5270.6923,159.1089 5276.8923,159.8489 " fill="transparent" id="Feature_User-to-logic_arc_int__baselibs__json" style="stroke:#181818;stroke-width:1;"/><polygon fill="#181818" points="5282.85,160.56,5274.3875,155.5216,5277.8852,159.9674,5273.4394,163.4652,5282.85,160.56" style="stroke:#181818;stroke-width:1;"/><text fill="#000000" font-family="sans-serif" font-size="13" lengthAdjust="spacing" textLength="23.0103" x="4902.5" y="124.5669">use</text></g><!--link Feature_User to logic_arc_int__baselibs__bit_manipulation--><g id="link_Feature_User_logic_arc_int__baselibs__bit_manipulation"><path codeLine="46" d="M3094.51,61.75 C3159.52,86.67 3273.6773,130.4229 3341.2073,156.3029 " fill="transparent" id="Feature_User-to-logic_arc_int__baselibs__bit_manipulation" style="stroke:#181818;stroke-width:1;"/><polygon fill="#181818" points="3346.81,158.45,3339.8374,151.4942,3342.1411,156.6607,3336.9746,158.9644,3346.81,158.45" style="stroke:#181818;stroke-width:1;"/><text fill="#000000" font-family="sans-serif" font-size="13" lengthAdjust="spacing" textLength="23.0103" x="3265.5" y="124.5669">use</text></g><!--reverse link logic_arc_int__baselibs__utils_scoped_op to comp_arc_sta__baselibs__utils--><g id="link_logic_arc_int__baselibs__utils_scoped_op_comp_arc_sta__baselibs__utils"><path codeLine="47" d="M4148.9324,202.5265 C4175.1424,223.7565 4212.41,253.94 4238.65,275.19 " fill="transparent" id="logic_arc_int__baselibs__utils_scoped_op-backto-comp_arc_sta__baselibs__utils" style="stroke:#181818;stroke-width:1;"/><polygon fill="#181818" points="4144.27,198.75,4148.7459,207.523,4148.1553,201.8971,4153.7813,201.3065,4144.27,198.75" style="stroke:#181818;stroke-width:1;"/><text fill="#000000" font-family="sans-serif" font-size="13" lengthAdjust="spacing" textLength="76.9082" x="4201.5" y="241.5669">implements</text></g><!--reverse link logic_arc_int__baselibs__bit_mask_operator to comp_arc_sta__baselibs__bit_manipulation--><g id="link_logic_arc_int__baselibs__bit_mask_operator_comp_arc_sta__baselibs__bit_manipulation"><path codeLine="48" d="M3724.6118,201.9296 C3690.5418,223.2196 3641.08,254.14 3607.09,275.38 " fill="transparent" id="logic_arc_int__baselibs__bit_mask_operator-backto-comp_arc_sta__baselibs__bit_manipulation" style="stroke:#181818;stroke-width:1;"/><polygon fill="#181818" points="3729.7,198.75,3719.9479,200.1272,3725.4598,201.3997,3724.1874,206.9115,3729.7,198.75" style="stroke:#181818;stroke-width:1;"/><text fill="#000000" font-family="sans-serif" font-size="13" lengthAdjust="spacing" textLength="76.9082" x="3681.5" y="241.5669">implements</text></g><!--reverse link logic_arc_int__baselibs__memory_shared to comp_arc_sta__baselibs__memory_shared--><g id="link_logic_arc_int__baselibs__memory_shared_comp_arc_sta__baselibs__memory_shared"><path codeLine="49" d="M173.621,204.7464 C172.881,225.9764 171.91,253.94 171.17,275.19 " fill="transparent" id="logic_arc_int__baselibs__memory_shared-backto-comp_arc_sta__baselibs__memory_shared" style="stroke:#181818;stroke-width:1;"/><polygon fill="#181818" points="173.83,198.75,169.5189,207.6052,173.6558,203.747,177.5141,207.8839,173.83,198.75" style="stroke:#181818;stroke-width:1;"/><text fill="#000000" font-family="sans-serif" font-size="13" lengthAdjust="spacing" textLength="76.9082" x="174.5" y="241.5669">implements</text></g><!--link Feature_User to logic_arc_int__baselibs__message_passing--><g id="link_Feature_User_logic_arc_int__baselibs__message_passing"><path codeLine="50" d="M3094.55,46.46 C3258.15,53.65 3836.24,79.87 4312.5,111.5 C4574.53,128.9 4640,134.42 4901.5,158.5 C4907.35,159.04 4907.3367,159.0344 4913.3567,159.6044 " fill="transparent" id="Feature_User-to-logic_arc_int__baselibs__message_passing" style="stroke:#181818;stroke-width:1;"/><polygon fill="#181818" points="4919.33,160.17,4910.7471,155.3394,4914.3523,159.6987,4909.993,163.3038,4919.33,160.17" style="stroke:#181818;stroke-width:1;"/><text fill="#000000" font-family="sans-serif" font-size="13" lengthAdjust="spacing" textLength="23.0103" x="4549.5" y="124.5669">use</text></g><!--link Feature_User to logic_arc_int__baselibs__utils_base64--><g id="link_Feature_User_logic_arc_int__baselibs__utils_base64"><path codeLine="51" d="M3094.52,48.22 C3256.71,61.72 3826.37,109.87 4295.5,158.5 C4301.34,159.11 4301.3336,159.1057 4307.3536,159.7457 " fill="transparent" id="Feature_User-to-logic_arc_int__baselibs__utils_base64" style="stroke:#181818;stroke-width:1;"/><polygon fill="#181818" points="4313.32,160.38,4304.7933,155.451,4308.348,159.8514,4303.9476,163.4061,4313.32,160.38" style="stroke:#181818;stroke-width:1;"/><text fill="#000000" font-family="sans-serif" font-size="13" lengthAdjust="spacing" textLength="23.0103" x="3989.5" y="124.5669">use</text></g><!--reverse link logic_arc_int__baselibs__condition_variable to comp_arc_sta__baselibs__concurrency--><g id="link_logic_arc_int__baselibs__condition_variable_comp_arc_sta__baselibs__concurrency"><path codeLine="52" d="M2557.6798,199.3547 C2463.7998,212.7047 2340.95,230.03 2227.5,245.5 C2153.47,255.6 2071.09,266.51 2002.79,275.47 " fill="transparent" id="logic_arc_int__baselibs__condition_variable-backto-comp_arc_sta__baselibs__concurrency" style="stroke:#181818;stroke-width:1;"/><polygon fill="#181818" points="2563.62,198.51,2554.1465,195.8169,2558.6698,199.2139,2555.2728,203.7372,2563.62,198.51" style="stroke:#181818;stroke-width:1;"/><text fill="#000000" font-family="sans-serif" font-size="13" lengthAdjust="spacing" textLength="76.9082" x="2344.5" y="241.5669">implements</text></g><!--SRC=[jLPDRzGm4BtxLrYzRq48SQYgNf0uSOIpvJZJtQ7-29vnQK3yTvnasoRRLHEduJZ9pFFpcozhQyClvV01_LvmQ2G7MGNcu6ID4GnZyEA0DKXYY12uRM2mmJNSIiqSiKeC9Aw9Mmitub8Jsah-4L_Hm-TWGvGHwjxwTa1pvu58VhXyB_wAwtV76A4DPx-BBw0vHP3V2UA5r2IF7rJtGGenCNVrxaRQi4UZT3GAFIjLQGAB5Ib5hJU763p-XbhzJ93WIYO2MOB1ckxAex8P4-4zA8l4ntWJNDCx4-knSsAq97VfDS3UfxS_VRoIw1eB3ZnJ4QiAMRby7nKQY3ghNNwnklNQzR-YRil3XskGoGJgp69661CywrmpSKwT4rPZUTwCVPhA9U23q1wRP7NNFZD7dBelE-G7pG9tBelbC2b6yAQTmRnDNRANeRhSvteFgj54URhC89zuhoxpMxH0RHvMhhn07RWGMqK7dGTMUNYMiSOkXUfUHzILNJ5nXhEVT7wrGo9GiZoZw-2qTHqqCJWas1gscxTd6HSe-1XUgZmyW4chnkAYP2qNuPd84d6VwtskTKUDiNtMLgThalAD53ot-bVIUohqhQXD-tibgs6qbzRfoqspqSjajDB_suASF5oMhP_HC9zTFfF1lp8hBrROkWVIupjleuexjvN65_m7]--></g></svg>