<svg xmlns="http://www.w3.org/2000/svg" xmlns:xlink="http://www.w3.org/1999/xlink" contentStyleType="text/css" data-diagram-type="CLASS" height="322px" preserveAspectRatio="none" style="width:6195px;height:322px;background:#FFFFFF;" version="1.1" viewBox="0 0 6195 322" width="6195px" zoomAndPan="magnify"><defs/><g><!--entity Feature_User--><g id="elem_Feature_User"><ellipse cx="2994.1685" cy="14" fill="#F1F1F1" rx="8" ry="8" style="stroke:#181818;stroke-width:0.5;"/><path d="M2994.1685,22 L2994.1685,49 M2981.1685,30 L3007.1685,30 M2994.1685,49 L2981.1685,64 M2994.1685,49 L3007.1685,64 " fill="transparent" style="stroke:#181818;stroke-width:0.5;"/><text fill="#000000" font-family="sans-serif" font-size="14" lengthAdjust="spacing" textLength="90.3369" x="2949" y="78.4951">Feature User</text></g><!--class comp_arc_sta__baselibs__memory_shared--><g id="elem_comp_arc_sta__baselibs__memory_shared"><rect fill="#F1F1F1" height="40" id="comp_arc_sta__baselibs__memory_shared" rx="2.5" ry="2.5" style="stroke:#181818;stroke-width:0.5;" width="327.0117" x="5861.5" y="275.5"/><ellipse cx="5876.5" cy="291.5" fill="#ADD1B2" rx="11" ry="11" style="stroke:#181818;stroke-width:1;"/><path d="M5879.4688,297.1406 Q5878.8906,297.4375 5878.25,297.5781 Q5877.6094,297.7344 5876.9063,297.7344 Q5874.4063,297.7344 5873.0781,296.0938 Q5871.7656,294.4375 5871.7656,291.3125 Q5871.7656,288.1875 5873.0781,286.5313 Q5874.4063,284.875 5876.9063,284.875 Q5877.6094,284.875 5878.25,285.0313 Q5878.9063,285.1875 5879.4688,285.4844 L5879.4688,288.2031 Q5878.8438,287.625 5878.25,287.3594 Q5877.6563,287.0781 5877.0313,287.0781 Q5875.6875,287.0781 5875,288.1563 Q5874.3125,289.2188 5874.3125,291.3125 Q5874.3125,293.4063 5875,294.4844 Q5875.6875,295.5469 5877.0313,295.5469 Q5877.6563,295.5469 5878.25,295.2813 Q5878.8438,295 5879.4688,294.4219 L5879.4688,297.1406 Z " fill="#000000"/><text fill="#000000" font-family="sans-serif" font-size="14" lengthAdjust="spacing" textLength="295.0117" x="5890.5" y="296.3467">comp_arc_sta__baselibs__memory_shared</text><line style="stroke:#181818;stroke-width:0.5;" x1="5862.5" x2="6187.5117" y1="307.5" y2="307.5"/></g><!--class logic_arc_int__baselibs__memory_shared--><g id="elem_logic_arc_int__baselibs__memory_shared"><rect fill="#F1F1F1" height="40" id="logic_arc_int__baselibs__memory_shared" rx="2.5" ry="2.5" style="stroke:#181818;stroke-width:0.5;" width="318.043" x="5864" y="158.5"/><ellipse cx="5879" cy="174.5" fill="#ADD1B2" rx="11" ry="11" style="stroke:#181818;stroke-width:1;"/><path d="M5881.9688,180.1406 Q5881.3906,180.4375 5880.75,180.5781 Q5880.1094,180.7344 5879.4063,180.7344 Q5876.9063,180.7344 5875.5781,179.0938 Q5874.2656,177.4375 5874.2656,174.3125 Q5874.2656,171.1875 5875.5781,169.5313 Q5876.9063,167.875 5879.4063,167.875 Q5880.1094,167.875 5880.75,168.0313 Q5881.4063,168.1875 5881.9688,168.4844 L5881.9688,171.2031 Q5881.3438,170.625 5880.75,170.3594 Q5880.1563,170.0781 5879.5313,170.0781 Q5878.1875,170.0781 5877.5,171.1563 Q5876.8125,172.2188 5876.8125,174.3125 Q5876.8125,176.4063 5877.5,177.4844 Q5878.1875,178.5469 5879.5313,178.5469 Q5880.1563,178.5469 5880.75,178.2813 Q5881.3438,178 5881.9688,177.4219 L5881.9688,180.1406 Z " fill="#000000"/><text fill="#000000" font-family="sans-serif" font-size="14" lengthAdjust="spacing" textLength="286.043" x="5893" y="179.3467">logic_arc_int__baselibs__memory_shared</text><line style="stroke:#181818;stroke-width:0.5;" x1="5865" x2="6181.043" y1="190.5" y2="190.5"/></g><!--class logic_arc_int__baselibs__task_result--><g id="elem_logic_arc_int__baselibs__task_result"><rect fill="#F1F1F1" height="40" id="logic_arc_int__baselibs__task_result" rx="2.5" ry="2.5" style="stroke:#181818;stroke-width:0.5;" width="280.9307" x="390.5" y="158.5"/><ellipse cx="405.5" cy="174.5" fill="#ADD1B2" rx="11" ry="11" style="stroke:#181818;stroke-width:1;"/><path d="M408.4688,180.1406 Q407.8906,180.4375 407.25,180.5781 Q406.6094,180.7344 405.9063,180.7344 Q403.4063,180.7344 402.0781,179.0938 Q400.7656,177.4375 400.7656,174.3125 Q400.7656,171.1875 402.0781,169.5313 Q403.4063,167.875 405.9063,167.875 Q406.6094,167.875 407.25,168.0313 Q407.9063,168.1875 408.4688,168.4844 L408.4688,171.2031 Q407.8438,170.625 407.25,170.3594 Q406.6563,170.0781 406.0313,170.0781 Q404.6875,170.0781 404,171.1563 Q403.3125,172.2188 403.3125,174.3125 Q403.3125,176.4063 404,177.4844 Q404.6875,178.5469 406.0313,178.5469 Q406.6563,178.5469 407.25,178.2813 Q407.8438,178 408.4688,177.4219 L408.4688,180.1406 Z " fill="#000000"/><text fill="#000000" font-family="sans-serif" font-size="14" lengthAdjust="spacing" textLength="248.9307" x="419.5" y="179.3467">logic_arc_int__baselibs__task_result</text><line style="stroke:#181818;stroke-width:0.5;" x1="391.5" x2="670.4307" y1="190.5" y2="190.5"/></g><!--class logic_arc_int__baselibs__future--><g id="elem_logic_arc_int__baselibs__future"><rect fill="#F1F1F1" height="40" id="logic_arc_int__baselibs__future" rx="2.5" ry="2.5" style="stroke:#181818;stroke-width:0.5;" width="247.0791" x="706.5" y="158.5"/><ellipse cx="721.5" cy="174.5" fill="#ADD1B2" rx="11" ry="11" style="stroke:#181818;stroke-width:1;"/><path d="M724.4688,180.1406 Q723.8906,180.4375 723.25,180.5781 Q722.6094,180.7344 721.9063,180.7344 Q719.4063,180.7344 718.0781,179.0938 Q716.7656,177.4375 716.7656,174.3125 Q716.7656,171.1875 718.0781,169.5313 Q719.4063,167.875 721.9063,167.875 Q722.6094,167.875 723.25,168.0313 Q723.9063,168.1875 724.4688,168.4844 L724.4688,171.2031 Q723.8438,170.625 723.25,170.3594 Q722.6563,170.0781 722.0313,170.0781 Q720.6875,170.0781 720,171.1563 Q719.3125,172.2188 719.3125,174.3125 Q719.3125,176.4063 720,177.4844 Q720.6875,178.5469 722.0313,178.5469 Q722.6563,178.5469 723.25,178.2813 Q723.8438,178 724.4688,177.4219 L724.4688,180.1406 Z " fill="#000000"/><text fill="#000000" font-family="sans-serif" font-size="14" lengthAdjust="spacing" textLength="215.0791" x="735.5" y="179.3467">logic_arc_int__baselibs__future</text><line style="stroke:#181818;stroke-width:0.5;" x1="707.5" x2="952.5791" y1="190.5" y2="190.5"/></g><!--class logic_arc_int__baselibs__intrusive_list--><g id="elem_logic_arc_int__baselibs__intrusive_list"><rect fill="#F1F1F1" height="40" id="logic_arc_int__baselibs__intrusive_list" rx="2.5" ry="2.5" style="stroke:#181818;stroke-width:0.5;" width="293.0713" x="3419.5" y="158.5"/><ellipse cx="3434.5" cy="174.5" fill="#ADD1B2" rx="11" ry="11" style="stroke:#181818;stroke-width:1;"/><path d="M3437.4688,180.1406 Q3436.8906,180.4375 3436.25,180.5781 Q3435.6094,180.7344 3434.9063,180.7344 Q3432.4063,180.7344 3431.0781,179.0938 Q3429.7656,177.4375 3429.7656,174.3125 Q3429.7656,171.1875 3431.0781,169.5313 Q3432.4063,167.875 3434.9063,167.875 Q3435.6094,167.875 3436.25,168.0313 Q3436.9063,168.1875 3437.4688,168.4844 L3437.4688,171.2031 Q3436.8438,170.625 3436.25,170.3594 Q3435.6563,170.0781 3435.0313,170.0781 Q3433.6875,170.0781 3433,171.1563 Q3432.3125,172.2188 3432.3125,174.3125 Q3432.3125,176.4063 3433,177.4844 Q3433.6875,178.5469 3435.0313,178.5469 Q3435.6563,178.5469 3436.25,178.2813 Q3436.8438,178 3437.4688,177.4219 L3437.4688,180.1406 Z " fill="#000000"/><text fill="#000000" font-family="sans-serif" font-size="14" lengthAdjust="spacing" textLength="261.0713" x="3448.5" y="179.3467">logic_arc_int__baselibs__intrusive_list</text><line style="stroke:#181818;stroke-width:0.5;" x1="3420.5" x2="3711.5713" y1="190.5" y2="190.5"/></g><!--class logic_arc_int__baselibs__synchronized_queue--><g id="elem_logic_arc_int__baselibs__synchronized_queue"><rect fill="#F1F1F1" height="40" id="logic_arc_int__baselibs__synchronized_queue" rx="2.5" ry="2.5" style="stroke:#181818;stroke-width:0.5;" width="348.3604" x="7" y="158.5"/><ellipse cx="22" cy="174.5" fill="#ADD1B2" rx="11" ry="11" style="stroke:#181818;stroke-width:1;"/><path d="M24.9688,180.1406 Q24.3906,180.4375 23.75,180.5781 Q23.1094,180.7344 22.4063,180.7344 Q19.9063,180.7344 18.5781,179.0938 Q17.2656,177.4375 17.2656,174.3125 Q17.2656,171.1875 18.5781,169.5313 Q19.9063,167.875 22.4063,167.875 Q23.1094,167.875 23.75,168.0313 Q24.4063,168.1875 24.9688,168.4844 L24.9688,171.2031 Q24.3438,170.625 23.75,170.3594 Q23.1563,170.0781 22.5313,170.0781 Q21.1875,170.0781 20.5,171.1563 Q19.8125,172.2188 19.8125,174.3125 Q19.8125,176.4063 20.5,177.4844 Q21.1875,178.5469 22.5313,178.5469 Q23.1563,178.5469 23.75,178.2813 Q24.3438,178 24.9688,177.4219 L24.9688,180.1406 Z " fill="#000000"/><text fill="#000000" font-family="sans-serif" font-size="14" lengthAdjust="spacing" textLength="316.3604" x="36" y="179.3467">logic_arc_int__baselibs__synchronized_queue</text><line style="stroke:#181818;stroke-width:0.5;" x1="8" x2="354.3604" y1="190.5" y2="190.5"/></g><!--class logic_arc_int__baselibs__bit_manipulation--><g id="elem_logic_arc_int__baselibs__bit_manipulation"><rect fill="#F1F1F1" height="40" id="logic_arc_int__baselibs__bit_manipulation" rx="2.5" ry="2.5" style="stroke:#181818;stroke-width:0.5;" width="321.8369" x="5140" y="158.5"/><ellipse cx="5155" cy="174.5" fill="#ADD1B2" rx="11" ry="11" style="stroke:#181818;stroke-width:1;"/><path d="M5157.9688,180.1406 Q5157.3906,180.4375 5156.75,180.5781 Q5156.1094,180.7344 5155.4063,180.7344 Q5152.9063,180.7344 5151.5781,179.0938 Q5150.2656,177.4375 5150.2656,174.3125 Q5150.2656,171.1875 5151.5781,169.5313 Q5152.9063,167.875 5155.4063,167.875 Q5156.1094,167.875 5156.75,168.0313 Q5157.4063,168.1875 5157.9688,168.4844 L5157.9688,171.2031 Q5157.3438,170.625 5156.75,170.3594 Q5156.1563,170.0781 5155.5313,170.0781 Q5154.1875,170.0781 5153.5,171.1563 Q5152.8125,172.2188 5152.8125,174.3125 Q5152.8125,176.4063 5153.5,177.4844 Q5154.1875,178.5469 5155.5313,178.5469 Q5156.1563,178.5469 5156.75,178.2813 Q5157.3438,178 5157.9688,177.4219 L5157.9688,180.1406 Z " fill="#000000"/><text fill="#000000" font-family="sans-serif" font-size="14" lengthAdjust="spacing" textLength="289.8369" x="5169" y="179.3467">logic_arc_int__baselibs__bit_manipulation</text><line style="stroke:#181818;stroke-width:0.5;" x1="5141" x2="5460.8369" y1="190.5" y2="190.5"/></g><!--class comp_arc_sta__baselibs__concurrency--><g id="elem_comp_arc_sta__baselibs__concurrency"><rect fill="#F1F1F1" height="40" id="comp_arc_sta__baselibs__concurrency" rx="2.5" ry="2.5" style="stroke:#181818;stroke-width:0.5;" width="300.2012" x="1062" y="275.5"/><ellipse cx="1077" cy="291.5" fill="#ADD1B2" rx="11" ry="11" style="stroke:#181818;stroke-width:1;"/><path d="M1079.9688,297.1406 Q1079.3906,297.4375 1078.75,297.5781 Q1078.1094,297.7344 1077.4063,297.7344 Q1074.9063,297.7344 1073.5781,296.0938 Q1072.2656,294.4375 1072.2656,291.3125 Q1072.2656,288.1875 1073.5781,286.5313 Q1074.9063,284.875 1077.4063,284.875 Q1078.1094,284.875 1078.75,285.0313 Q1079.4063,285.1875 1079.9688,285.4844 L1079.9688,288.2031 Q1079.3438,287.625 1078.75,287.3594 Q1078.1563,287.0781 1077.5313,287.0781 Q1076.1875,287.0781 1075.5,288.1563 Q1074.8125,289.2188 1074.8125,291.3125 Q1074.8125,293.4063 1075.5,294.4844 Q1076.1875,295.5469 1077.5313,295.5469 Q1078.1563,295.5469 1078.75,295.2813 Q1079.3438,295 1079.9688,294.4219 L1079.9688,297.1406 Z " fill="#000000"/><text fill="#000000" font-family="sans-serif" font-size="14" lengthAdjust="spacing" textLength="268.2012" x="1091" y="296.3467">comp_arc_sta__baselibs__concurrency</text><line style="stroke:#181818;stroke-width:0.5;" x1="1063" x2="1361.2012" y1="307.5" y2="307.5"/></g><!--class logic_arc_int__baselibs__condition_variable--><g id="elem_logic_arc_int__baselibs__condition_variable"><rect fill="#F1F1F1" height="40" id="logic_arc_int__baselibs__condition_variable" rx="2.5" ry="2.5" style="stroke:#181818;stroke-width:0.5;" width="332.7539" x="1891.5" y="158.5"/><ellipse cx="1906.5" cy="174.5" fill="#ADD1B2" rx="11" ry="11" style="stroke:#181818;stroke-width:1;"/><path d="M1909.4688,180.1406 Q1908.8906,180.4375 1908.25,180.5781 Q1907.6094,180.7344 1906.9063,180.7344 Q1904.4063,180.7344 1903.0781,179.0938 Q1901.7656,177.4375 1901.7656,174.3125 Q1901.7656,171.1875 1903.0781,169.5313 Q1904.4063,167.875 1906.9063,167.875 Q1907.6094,167.875 1908.25,168.0313 Q1908.9063,168.1875 1909.4688,168.4844 L1909.4688,171.2031 Q1908.8438,170.625 1908.25,170.3594 Q1907.6563,170.0781 1907.0313,170.0781 Q1905.6875,170.0781 1905,171.1563 Q1904.3125,172.2188 1904.3125,174.3125 Q1904.3125,176.4063 1905,177.4844 Q1905.6875,178.5469 1907.0313,178.5469 Q1907.6563,178.5469 1908.25,178.2813 Q1908.8438,178 1909.4688,177.4219 L1909.4688,180.1406 Z " fill="#000000"/><text fill="#000000" font-family="sans-serif" font-size="14" lengthAdjust="spacing" textLength="300.7539" x="1920.5" y="179.3467">logic_arc_int__baselibs__condition_variable</text><line style="stroke:#181818;stroke-width:0.5;" x1="1892.5" x2="2223.2539" y1="190.5" y2="190.5"/></g><!--class logic_arc_int__baselibs__executor--><g id="elem_logic_arc_int__baselibs__executor"><rect fill="#F1F1F1" height="40" id="logic_arc_int__baselibs__executor" rx="2.5" ry="2.5" style="stroke:#181818;stroke-width:0.5;" width="266.4385" x="2260" y="158.5"/><ellipse cx="2275" cy="174.5" fill="#ADD1B2" rx="11" ry="11" style="stroke:#181818;stroke-width:1;"/><path d="M2277.9688,180.1406 Q2277.3906,180.4375 2276.75,180.5781 Q2276.1094,180.7344 2275.4063,180.7344 Q2272.9063,180.7344 2271.5781,179.0938 Q2270.2656,177.4375 2270.2656,174.3125 Q2270.2656,171.1875 2271.5781,169.5313 Q2272.9063,167.875 2275.4063,167.875 Q2276.1094,167.875 2276.75,168.0313 Q2277.4063,168.1875 2277.9688,168.4844 L2277.9688,171.2031 Q2277.3438,170.625 2276.75,170.3594 Q2276.1563,170.0781 2275.5313,170.0781 Q2274.1875,170.0781 2273.5,171.1563 Q2272.8125,172.2188 2272.8125,174.3125 Q2272.8125,176.4063 2273.5,177.4844 Q2274.1875,178.5469 2275.5313,178.5469 Q2276.1563,178.5469 2276.75,178.2813 Q2277.3438,178 2277.9688,177.4219 L2277.9688,180.1406 Z " fill="#000000"/><text fill="#000000" font-family="sans-serif" font-size="14" lengthAdjust="spacing" textLength="234.4385" x="2289" y="179.3467">logic_arc_int__baselibs__executor</text><line style="stroke:#181818;stroke-width:0.5;" x1="2261" x2="2525.4385" y1="190.5" y2="190.5"/></g><!--class logic_arc_int__baselibs__utils_scoped_op--><g id="elem_logic_arc_int__baselibs__utils_scoped_op"><rect fill="#F1F1F1" height="40" id="logic_arc_int__baselibs__utils_scoped_op" rx="2.5" ry="2.5" style="stroke:#181818;stroke-width:0.5;" width="315.377" x="4091.5" y="158.5"/><ellipse cx="4106.5" cy="174.5" fill="#ADD1B2" rx="11" ry="11" style="stroke:#181818;stroke-width:1;"/><path d="M4109.4688,180.1406 Q4108.8906,180.4375 4108.25,180.5781 Q4107.6094,180.7344 4106.9063,180.7344 Q4104.4063,180.7344 4103.0781,179.0938 Q4101.7656,177.4375 4101.7656,174.3125 Q4101.7656,171.1875 4103.0781,169.5313 Q4104.4063,167.875 4106.9063,167.875 Q4107.6094,167.875 4108.25,168.0313 Q4108.9063,168.1875 4109.4688,168.4844 L4109.4688,171.2031 Q4108.8438,170.625 4108.25,170.3594 Q4107.6563,170.0781 4107.0313,170.0781 Q4105.6875,170.0781 4105,171.1563 Q4104.3125,172.2188 4104.3125,174.3125 Q4104.3125,176.4063 4105,177.4844 Q4105.6875,178.5469 4107.0313,178.5469 Q4107.6563,178.5469 4108.25,178.2813 Q4108.8438,178 4109.4688,177.4219 L4109.4688,180.1406 Z " fill="#000000"/><text fill="#000000" font-family="sans-serif" font-size="14" lengthAdjust="spacing" textLength="283.377" x="4120.5" y="179.3467">logic_arc_int__baselibs__utils_scoped_op</text><line style="stroke:#181818;stroke-width:0.5;" x1="4092.5" x2="4405.877" y1="190.5" y2="190.5"/></g><!--class comp_arc_sta__baselibs__utils--><g id="elem_comp_arc_sta__baselibs__utils"><rect fill="#F1F1F1" height="40" id="comp_arc_sta__baselibs__utils" rx="2.5" ry="2.5" style="stroke:#181818;stroke-width:0.5;" width="242.9502" x="4269.5" y="275.5"/><ellipse cx="4284.5" cy="291.5" fill="#ADD1B2" rx="11" ry="11" style="stroke:#181818;stroke-width:1;"/><path d="M4287.4688,297.1406 Q4286.8906,297.4375 4286.25,297.5781 Q4285.6094,297.7344 4284.9063,297.7344 Q4282.4063,297.7344 4281.0781,296.0938 Q4279.7656,294.4375 4279.7656,291.3125 Q4279.7656,288.1875 4281.0781,286.5313 Q4282.4063,284.875 4284.9063,284.875 Q4285.6094,284.875 4286.25,285.0313 Q4286.9063,285.1875 4287.4688,285.4844 L4287.4688,288.2031 Q4286.8438,287.625 4286.25,287.3594 Q4285.6563,287.0781 4285.0313,287.0781 Q4283.6875,287.0781 4283,288.1563 Q4282.3125,289.2188 4282.3125,291.3125 Q4282.3125,293.4063 4283,294.4844 Q4283.6875,295.5469 4285.0313,295.5469 Q4285.6563,295.5469 4286.25,295.2813 Q4286.8438,295 4287.4688,294.4219 L4287.4688,297.1406 Z " fill="#000000"/><text fill="#000000" font-family="sans-serif" font-size="14" lengthAdjust="spacing" textLength="210.9502" x="4298.5" y="296.3467">comp_arc_sta__baselibs__utils</text><line style="stroke:#181818;stroke-width:0.5;" x1="4270.5" x2="4511.4502" y1="307.5" y2="307.5"/></g><!--class logic_arc_int__baselibs__utils_base64--><g id="elem_logic_arc_int__baselibs__utils_base64"><rect fill="#F1F1F1" height="40" id="logic_arc_int__baselibs__utils_base64" rx="2.5" ry="2.5" style="stroke:#181818;stroke-width:0.5;" width="292.1689" x="4442" y="158.5"/><ellipse cx="4457" cy="174.5" fill="#ADD1B2" rx="11" ry="11" style="stroke:#181818;stroke-width:1;"/><path d="M4459.9688,180.1406 Q4459.3906,180.4375 4458.75,180.5781 Q4458.1094,180.7344 4457.4063,180.7344 Q4454.9063,180.7344 4453.5781,179.0938 Q4452.2656,177.4375 4452.2656,174.3125 Q4452.2656,171.1875 4453.5781,169.5313 Q4454.9063,167.875 4457.4063,167.875 Q4458.1094,167.875 4458.75,168.0313 Q4459.4063,168.1875 4459.9688,168.4844 L4459.9688,171.2031 Q4459.3438,170.625 4458.75,170.3594 Q4458.1563,170.0781 4457.5313,170.0781 Q4456.1875,170.0781 4455.5,171.1563 Q4454.8125,172.2188 4454.8125,174.3125 Q4454.8125,176.4063 4455.5,177.4844 Q4456.1875,178.5469 4457.5313,178.5469 Q4458.1563,178.5469 4458.75,178.2813 Q4459.3438,178 4459.9688,177.4219 L4459.9688,180.1406 Z " fill="#000000"/><text fill="#000000" font-family="sans-serif" font-size="14" lengthAdjust="spacing" textLength="260.1689" x="4471" y="179.3467">logic_arc_int__baselibs__utils_base64</text><line style="stroke:#181818;stroke-width:0.5;" x1="4443" x2="4733.1689" y1="190.5" y2="190.5"/></g><!--class comp_arc_sta__baselibs__bit_manipulation--><g id="elem_comp_arc_sta__baselibs__bit_manipulation"><rect fill="#F1F1F1" height="40" id="comp_arc_sta__baselibs__bit_manipulation" rx="2.5" ry="2.5" style="stroke:#181818;stroke-width:0.5;" width="330.8057" x="4948.5" y="275.5"/><ellipse cx="4963.5" cy="291.5" fill="#ADD1B2" rx="11" ry="11" style="stroke:#181818;stroke-width:1;"/><path d="M4966.4688,297.1406 Q4965.8906,297.4375 4965.25,297.5781 Q4964.6094,297.7344 4963.9063,297.7344 Q4961.4063,297.7344 4960.0781,296.0938 Q4958.7656,294.4375 4958.7656,291.3125 Q4958.7656,288.1875 4960.0781,286.5313 Q4961.4063,284.875 4963.9063,284.875 Q4964.6094,284.875 4965.25,285.0313 Q4965.9063,285.1875 4966.4688,285.4844 L4966.4688,288.2031 Q4965.8438,287.625 4965.25,287.3594 Q4964.6563,287.0781 4964.0313,287.0781 Q4962.6875,287.0781 4962,288.1563 Q4961.3125,289.2188 4961.3125,291.3125 Q4961.3125,293.4063 4962,294.4844 Q4962.6875,295.5469 4964.0313,295.5469 Q4964.6563,295.5469 4965.25,295.2813 Q4965.8438,295 4966.4688,294.4219 L4966.4688,297.1406 Z " fill="#000000"/><text fill="#000000" font-family="sans-serif" font-size="14" lengthAdjust="spacing" textLength="298.8057" x="4977.5" y="296.3467">comp_arc_sta__baselibs__bit_manipulation</text><line style="stroke:#181818;stroke-width:0.5;" x1="4949.5" x2="5278.3057" y1="307.5" y2="307.5"/></g><!--class logic_arc_int__baselibs__json--><g id="elem_logic_arc_int__baselibs__json"><rect fill="#F1F1F1" height="40" id="logic_arc_int__baselibs__json" rx="2.5" ry="2.5" style="stroke:#181818;stroke-width:0.5;" width="233.168" x="3151.5" y="158.5"/><ellipse cx="3166.5" cy="174.5" fill="#ADD1B2" rx="11" ry="11" style="stroke:#181818;stroke-width:1;"/><path d="M3169.4688,180.1406 Q3168.8906,180.4375 3168.25,180.5781 Q3167.6094,180.7344 3166.9063,180.7344 Q3164.4063,180.7344 3163.0781,179.0938 Q3161.7656,177.4375 3161.7656,174.3125 Q3161.7656,171.1875 3163.0781,169.5313 Q3164.4063,167.875 3166.9063,167.875 Q3167.6094,167.875 3168.25,168.0313 Q3168.9063,168.1875 3169.4688,168.4844 L3169.4688,171.2031 Q3168.8438,170.625 3168.25,170.3594 Q3167.6563,170.0781 3167.0313,170.0781 Q3165.6875,170.0781 3165,171.1563 Q3164.3125,172.2188 3164.3125,174.3125 Q3164.3125,176.4063 3165,177.4844 Q3165.6875,178.5469 3167.0313,178.5469 Q3167.6563,178.5469 3168.25,178.2813 Q3168.8438,178 3169.4688,177.4219 L3169.4688,180.1406 Z " fill="#000000"/><text fill="#000000" font-family="sans-serif" font-size="14" lengthAdjust="spacing" textLength="201.168" x="3180.5" y="179.3467">logic_arc_int__baselibs__json</text><line style="stroke:#181818;stroke-width:0.5;" x1="3152.5" x2="3383.668" y1="190.5" y2="190.5"/></g><!--class comp_arc_sta__baselibs__message_passing--><g id="elem_comp_arc_sta__baselibs__message_passing"><rect fill="#F1F1F1" height="40" id="comp_arc_sta__baselibs__message_passing" rx="2.5" ry="2.5" style="stroke:#181818;stroke-width:0.5;" width="337.1357" x="5489.5" y="275.5"/><ellipse cx="5504.5" cy="291.5" fill="#ADD1B2" rx="11" ry="11" style="stroke:#181818;stroke-width:1;"/><path d="M5507.4688,297.1406 Q5506.8906,297.4375 5506.25,297.5781 Q5505.6094,297.7344 5504.9063,297.7344 Q5502.4063,297.7344 5501.0781,296.0938 Q5499.7656,294.4375 5499.7656,291.3125 Q5499.7656,288.1875 5501.0781,286.5313 Q5502.4063,284.875 5504.9063,284.875 Q5505.6094,284.875 5506.25,285.0313 Q5506.9063,285.1875 5507.4688,285.4844 L5507.4688,288.2031 Q5506.8438,287.625 5506.25,287.3594 Q5505.6563,287.0781 5505.0313,287.0781 Q5503.6875,287.0781 5503,288.1563 Q5502.3125,289.2188 5502.3125,291.3125 Q5502.3125,293.4063 5503,294.4844 Q5503.6875,295.5469 5505.0313,295.5469 Q5505.6563,295.5469 5506.25,295.2813 Q5506.8438,295 5507.4688,294.4219 L5507.4688,297.1406 Z " fill="#000000"/><text fill="#000000" font-family="sans-serif" font-size="14" lengthAdjust="spacing" textLength="305.1357" x="5518.5" y="296.3467">comp_arc_sta__baselibs__message_passing</text><line style="stroke:#181818;stroke-width:0.5;" x1="5490.5" x2="5825.6357" y1="307.5" y2="307.5"/></g><!--class logic_arc_int__baselibs__message_passing--><g id="elem_logic_arc_int__baselibs__message_passing"><rect fill="#F1F1F1" height="40" id="logic_arc_int__baselibs__message_passing" rx="2.5" ry="2.5" style="stroke:#181818;stroke-width:0.5;" width="328.167" x="5497" y="158.5"/><ellipse cx="5512" cy="174.5" fill="#ADD1B2" rx="11" ry="11" style="stroke:#181818;stroke-width:1;"/><path d="M5514.9688,180.1406 Q5514.3906,180.4375 5513.75,180.5781 Q5513.1094,180.7344 5512.4063,180.7344 Q5509.9063,180.7344 5508.5781,179.0938 Q5507.2656,177.4375 5507.2656,174.3125 Q5507.2656,171.1875 5508.5781,169.5313 Q5509.9063,167.875 5512.4063,167.875 Q5513.1094,167.875 5513.75,168.0313 Q5514.4063,168.1875 5514.9688,168.4844 L5514.9688,171.2031 Q5514.3438,170.625 5513.75,170.3594 Q5513.1563,170.0781 5512.5313,170.0781 Q5511.1875,170.0781 5510.5,171.1563 Q5509.8125,172.2188 5509.8125,174.3125 Q5509.8125,176.4063 5510.5,177.4844 Q5511.1875,178.5469 5512.5313,178.5469 Q5513.1563,178.5469 5513.75,178.2813 Q5514.3438,178 5514.9688,177.4219 L5514.9688,180.1406 Z " fill="#000000"/><text fill="#000000" font-family="sans-serif" font-size="14" lengthAdjust="spacing" textLength="296.167" x="5526" y="179.3467">logic_arc_int__baselibs__message_passing</text><line style="stroke:#181818;stroke-width:0.5;" x1="5498" x2="5824.167" y1="190.5" y2="190.5"/></g><!--class logic_arc_int__baselibs__result--><g id="elem_logic_arc_int__baselibs__result"><rect fill="#F1F1F1" height="40" id="logic_arc_int__baselibs__result" rx="2.5" ry="2.5" style="stroke:#181818;stroke-width:0.5;" width="244.4609" x="2872" y="158.5"/><ellipse cx="2887" cy="174.5" fill="#ADD1B2" rx="11" ry="11" style="stroke:#181818;stroke-width:1;"/><path d="M2889.9688,180.1406 Q2889.3906,180.4375 2888.75,180.5781 Q2888.1094,180.7344 2887.4063,180.7344 Q2884.9063,180.7344 2883.5781,179.0938 Q2882.2656,177.4375 2882.2656,174.3125 Q2882.2656,171.1875 2883.5781,169.5313 Q2884.9063,167.875 2887.4063,167.875 Q2888.1094,167.875 2888.75,168.0313 Q2889.4063,168.1875 2889.9688,168.4844 L2889.9688,171.2031 Q2889.3438,170.625 2888.75,170.3594 Q2888.1563,170.0781 2887.5313,170.0781 Q2886.1875,170.0781 2885.5,171.1563 Q2884.8125,172.2188 2884.8125,174.3125 Q2884.8125,176.4063 2885.5,177.4844 Q2886.1875,178.5469 2887.5313,178.5469 Q2888.1563,178.5469 2888.75,178.2813 Q2889.3438,178 2889.9688,177.4219 L2889.9688,180.1406 Z " fill="#000000"/><text fill="#000000" font-family="sans-serif" font-size="14" lengthAdjust="spacing" textLength="212.4609" x="2901" y="179.3467">logic_arc_int__baselibs__result</text><line style="stroke:#181818;stroke-width:0.5;" x1="2873" x2="3115.4609" y1="190.5" y2="190.5"/></g><!--class comp_arc_sta__baselibs__containers--><g id="elem_comp_arc_sta__baselibs__containers"><rect fill="#F1F1F1" height="40" id="comp_arc_sta__baselibs__containers" rx="2.5" ry="2.5" style="stroke:#181818;stroke-width:0.5;" width="287.1445" x="3515.5" y="275.5"/><ellipse cx="3530.5" cy="291.5" fill="#ADD1B2" rx="11" ry="11" style="stroke:#181818;stroke-width:1;"/><path d="M3533.4688,297.1406 Q3532.8906,297.4375 3532.25,297.5781 Q3531.6094,297.7344 3530.9063,297.7344 Q3528.4063,297.7344 3527.0781,296.0938 Q3525.7656,294.4375 3525.7656,291.3125 Q3525.7656,288.1875 3527.0781,286.5313 Q3528.4063,284.875 3530.9063,284.875 Q3531.6094,284.875 3532.25,285.0313 Q3532.9063,285.1875 3533.4688,285.4844 L3533.4688,288.2031 Q3532.8438,287.625 3532.25,287.3594 Q3531.6563,287.0781 3531.0313,287.0781 Q3529.6875,287.0781 3529,288.1563 Q3528.3125,289.2188 3528.3125,291.3125 Q3528.3125,293.4063 3529,294.4844 Q3529.6875,295.5469 3531.0313,295.5469 Q3531.6563,295.5469 3532.25,295.2813 Q3532.8438,295 3533.4688,294.4219 L3533.4688,297.1406 Z " fill="#000000"/><text fill="#000000" font-family="sans-serif" font-size="14" lengthAdjust="spacing" textLength="255.1445" x="3544.5" y="296.3467">comp_arc_sta__baselibs__containers</text><line style="stroke:#181818;stroke-width:0.5;" x1="3516.5" x2="3801.6445" y1="307.5" y2="307.5"/></g><!--class logic_arc_int__baselibs__promise--><g id="elem_logic_arc_int__baselibs__promise"><rect fill="#F1F1F1" height="40" id="logic_arc_int__baselibs__promise" rx="2.5" ry="2.5" style="stroke:#181818;stroke-width:0.5;" width="261.1885" x="1595.5" y="158.5"/><ellipse cx="1610.5" cy="174.5" fill="#ADD1B2" rx="11" ry="11" style="stroke:#181818;stroke-width:1;"/><path d="M1613.4688,180.1406 Q1612.8906,180.4375 1612.25,180.5781 Q1611.6094,180.7344 1610.9063,180.7344 Q1608.4063,180.7344 1607.0781,179.0938 Q1605.7656,177.4375 1605.7656,174.3125 Q1605.7656,171.1875 1607.0781,169.5313 Q1608.4063,167.875 1610.9063,167.875 Q1611.6094,167.875 1612.25,168.0313 Q1612.9063,168.1875 1613.4688,168.4844 L1613.4688,171.2031 Q1612.8438,170.625 1612.25,170.3594 Q1611.6563,170.0781 1611.0313,170.0781 Q1609.6875,170.0781 1609,171.1563 Q1608.3125,172.2188 1608.3125,174.3125 Q1608.3125,176.4063 1609,177.4844 Q1609.6875,178.5469 1611.0313,178.5469 Q1611.6563,178.5469 1612.25,178.2813 Q1612.8438,178 1613.4688,177.4219 L1613.4688,180.1406 Z " fill="#000000"/><text fill="#000000" font-family="sans-serif" font-size="14" lengthAdjust="spacing" textLength="229.1885" x="1624.5" y="179.3467">logic_arc_int__baselibs__promise</text><line style="stroke:#181818;stroke-width:0.5;" x1="1596.5" x2="1855.6885" y1="190.5" y2="190.5"/></g><!--class logic_arc_int__baselibs__bit_mask_operator--><g id="elem_logic_arc_int__baselibs__bit_mask_operator"><rect fill="#F1F1F1" height="40" id="logic_arc_int__baselibs__bit_mask_operator" rx="2.5" ry="2.5" style="stroke:#181818;stroke-width:0.5;" width="334.6406" x="4769.5" y="158.5"/><ellipse cx="4784.5" cy="174.5" fill="#ADD1B2" rx="11" ry="11" style="stroke:#181818;stroke-width:1;"/><path d="M4787.4688,180.1406 Q4786.8906,180.4375 4786.25,180.5781 Q4785.6094,180.7344 4784.9063,180.7344 Q4782.4063,180.7344 4781.0781,179.0938 Q4779.7656,177.4375 4779.7656,174.3125 Q4779.7656,171.1875 4781.0781,169.5313 Q4782.4063,167.875 4784.9063,167.875 Q4785.6094,167.875 4786.25,168.0313 Q4786.9063,168.1875 4787.4688,168.4844 L4787.4688,171.2031 Q4786.8438,170.625 4786.25,170.3594 Q4785.6563,170.0781 4785.0313,170.0781 Q4783.6875,170.0781 4783,171.1563 Q4782.3125,172.2188 4782.3125,174.3125 Q4782.3125,176.4063 4783,177.4844 Q4783.6875,178.5469 4785.0313,178.5469 Q4785.6563,178.5469 4786.25,178.2813 Q4786.8438,178 4787.4688,177.4219 L4787.4688,180.1406 Z " fill="#000000"/><text fill="#000000" font-family="sans-serif" font-size="14" lengthAdjust="spacing" textLength="302.6406" x="4798.5" y="179.3467">logic_arc_int__baselibs__bit_mask_operator</text><line style="stroke:#181818;stroke-width:0.5;" x1="4770.5" x2="5103.1406" y1="190.5" y2="190.5"/></g><!--class comp_arc_sta__baselibs__json--><g id="elem_comp_arc_sta__baselibs__json"><rect fill="#F1F1F1" height="40" id="comp_arc_sta__baselibs__json" rx="2.5" ry="2.5" style="stroke:#181818;stroke-width:0.5;" width="242.1367" x="3156" y="275.5"/><ellipse cx="3171" cy="291.5" fill="#ADD1B2" rx="11" ry="11" style="stroke:#181818;stroke-width:1;"/><path d="M3173.9688,297.1406 Q3173.3906,297.4375 3172.75,297.5781 Q3172.1094,297.7344 3171.4063,297.7344 Q3168.9063,297.7344 3167.5781,296.0938 Q3166.2656,294.4375 3166.2656,291.3125 Q3166.2656,288.1875 3167.5781,286.5313 Q3168.9063,284.875 3171.4063,284.875 Q3172.1094,284.875 3172.75,285.0313 Q3173.4063,285.1875 3173.9688,285.4844 L3173.9688,288.2031 Q3173.3438,287.625 3172.75,287.3594 Q3172.1563,287.0781 3171.5313,287.0781 Q3170.1875,287.0781 3169.5,288.1563 Q3168.8125,289.2188 3168.8125,291.3125 Q3168.8125,293.4063 3169.5,294.4844 Q3170.1875,295.5469 3171.5313,295.5469 Q3172.1563,295.5469 3172.75,295.2813 Q3173.3438,295 3173.9688,294.4219 L3173.9688,297.1406 Z " fill="#000000"/><text fill="#000000" font-family="sans-serif" font-size="14" lengthAdjust="spacing" textLength="210.1367" x="3185" y="296.3467">comp_arc_sta__baselibs__json</text><line style="stroke:#181818;stroke-width:0.5;" x1="3157" x2="3397.1367" y1="307.5" y2="307.5"/></g><!--class comp_arc_sta__baselibs__result--><g id="elem_comp_arc_sta__baselibs__result"><rect fill="#F1F1F1" height="40" id="comp_arc_sta__baselibs__result" rx="2.5" ry="2.5" style="stroke:#181818;stroke-width:0.5;" width="253.4297" x="2867.5" y="275.5"/><ellipse cx="2882.5" cy="291.5" fill="#ADD1B2" rx="11" ry="11" style="stroke:#181818;stroke-width:1;"/><path d="M2885.4688,297.1406 Q2884.8906,297.4375 2884.25,297.5781 Q2883.6094,297.7344 2882.9063,297.7344 Q2880.4063,297.7344 2879.0781,296.0938 Q2877.7656,294.4375 2877.7656,291.3125 Q2877.7656,288.1875 2879.0781,286.5313 Q2880.4063,284.875 2882.9063,284.875 Q2883.6094,284.875 2884.25,285.0313 Q2884.9063,285.1875 2885.4688,285.4844 L2885.4688,288.2031 Q2884.8438,287.625 2884.25,287.3594 Q2883.6563,287.0781 2883.0313,287.0781 Q2881.6875,287.0781 2881,288.1563 Q2880.3125,289.2188 2880.3125,291.3125 Q2880.3125,293.4063 2881,294.4844 Q2881.6875,295.5469 2883.0313,295.5469 Q2883.6563,295.5469 2884.25,295.2813 Q2884.8438,295 2885.4688,294.4219 L2885.4688,297.1406 Z " fill="#000000"/><text fill="#000000" font-family="sans-serif" font-size="14" lengthAdjust="spacing" textLength="221.4297" x="2896.5" y="296.3467">comp_arc_sta__baselibs__result</text><line style="stroke:#181818;stroke-width:0.5;" x1="2868.5" x2="3119.9297" y1="307.5" y2="307.5"/></g><!--class logic_arc_int__baselibs__dynamic_array--><g id="elem_logic_arc_int__baselibs__dynamic_array"><rect fill="#F1F1F1" height="40" id="logic_arc_int__baselibs__dynamic_array" rx="2.5" ry="2.5" style="stroke:#181818;stroke-width:0.5;" width="308.3496" x="3748" y="158.5"/><ellipse cx="3763" cy="174.5" fill="#ADD1B2" rx="11" ry="11" style="stroke:#181818;stroke-width:1;"/><path d="M3765.9688,180.1406 Q3765.3906,180.4375 3764.75,180.5781 Q3764.1094,180.7344 3763.4063,180.7344 Q3760.9063,180.7344 3759.5781,179.0938 Q3758.2656,177.4375 3758.2656,174.3125 Q3758.2656,171.1875 3759.5781,169.5313 Q3760.9063,167.875 3763.4063,167.875 Q3764.1094,167.875 3764.75,168.0313 Q3765.4063,168.1875 3765.9688,168.4844 L3765.9688,171.2031 Q3765.3438,170.625 3764.75,170.3594 Q3764.1563,170.0781 3763.5313,170.0781 Q3762.1875,170.0781 3761.5,171.1563 Q3760.8125,172.2188 3760.8125,174.3125 Q3760.8125,176.4063 3761.5,177.4844 Q3762.1875,178.5469 3763.5313,178.5469 Q3764.1563,178.5469 3764.75,178.2813 Q3765.3438,178 3765.9688,177.4219 L3765.9688,180.1406 Z " fill="#000000"/><text fill="#000000" font-family="sans-serif" font-size="14" lengthAdjust="spacing" textLength="276.3496" x="3777" y="179.3467">logic_arc_int__baselibs__dynamic_array</text><line style="stroke:#181818;stroke-width:0.5;" x1="3749" x2="4055.3496" y1="190.5" y2="190.5"/></g><!--class comp_arc_sta__baselibs__filesystem--><g id="elem_comp_arc_sta__baselibs__filesystem"><rect fill="#F1F1F1" height="40" id="comp_arc_sta__baselibs__filesystem" rx="2.5" ry="2.5" style="stroke:#181818;stroke-width:0.5;" width="285.4492" x="2547.5" y="275.5"/><ellipse cx="2562.5" cy="291.5" fill="#ADD1B2" rx="11" ry="11" style="stroke:#181818;stroke-width:1;"/><path d="M2565.4688,297.1406 Q2564.8906,297.4375 2564.25,297.5781 Q2563.6094,297.7344 2562.9063,297.7344 Q2560.4063,297.7344 2559.0781,296.0938 Q2557.7656,294.4375 2557.7656,291.3125 Q2557.7656,288.1875 2559.0781,286.5313 Q2560.4063,284.875 2562.9063,284.875 Q2563.6094,284.875 2564.25,285.0313 Q2564.9063,285.1875 2565.4688,285.4844 L2565.4688,288.2031 Q2564.8438,287.625 2564.25,287.3594 Q2563.6563,287.0781 2563.0313,287.0781 Q2561.6875,287.0781 2561,288.1563 Q2560.3125,289.2188 2560.3125,291.3125 Q2560.3125,293.4063 2561,294.4844 Q2561.6875,295.5469 2563.0313,295.5469 Q2563.6563,295.5469 2564.25,295.2813 Q2564.8438,295 2565.4688,294.4219 L2565.4688,297.1406 Z " fill="#000000"/><text fill="#000000" font-family="sans-serif" font-size="14" lengthAdjust="spacing" textLength="253.4492" x="2576.5" y="296.3467">comp_arc_sta__baselibs__filesystem</text><line style="stroke:#181818;stroke-width:0.5;" x1="2548.5" x2="2831.9492" y1="307.5" y2="307.5"/></g><!--class logic_arc_int__baselibs__filesystem--><g id="elem_logic_arc_int__baselibs__filesystem"><rect fill="#F1F1F1" height="40" id="logic_arc_int__baselibs__filesystem" rx="2.5" ry="2.5" style="stroke:#181818;stroke-width:0.5;" width="276.4805" x="2561" y="158.5"/><ellipse cx="2576" cy="174.5" fill="#ADD1B2" rx="11" ry="11" style="stroke:#181818;stroke-width:1;"/><path d="M2578.9688,180.1406 Q2578.3906,180.4375 2577.75,180.5781 Q2577.1094,180.7344 2576.4063,180.7344 Q2573.9063,180.7344 2572.5781,179.0938 Q2571.2656,177.4375 2571.2656,174.3125 Q2571.2656,171.1875 2572.5781,169.5313 Q2573.9063,167.875 2576.4063,167.875 Q2577.1094,167.875 2577.75,168.0313 Q2578.4063,168.1875 2578.9688,168.4844 L2578.9688,171.2031 Q2578.3438,170.625 2577.75,170.3594 Q2577.1563,170.0781 2576.5313,170.0781 Q2575.1875,170.0781 2574.5,171.1563 Q2573.8125,172.2188 2573.8125,174.3125 Q2573.8125,176.4063 2574.5,177.4844 Q2575.1875,178.5469 2576.5313,178.5469 Q2577.1563,178.5469 2577.75,178.2813 Q2578.3438,178 2578.9688,177.4219 L2578.9688,180.1406 Z " fill="#000000"/><text fill="#000000" font-family="sans-serif" font-size="14" lengthAdjust="spacing" textLength="244.4805" x="2590" y="179.3467">logic_arc_int__baselibs__filesystem</text><line style="stroke:#181818;stroke-width:0.5;" x1="2562" x2="2836.4805" y1="190.5" y2="190.5"/></g><!--class logic_arc_int__baselibs__shared_future--><g id="elem_logic_arc_int__baselibs__shared_future"><rect fill="#F1F1F1" height="40" id="logic_arc_int__baselibs__shared_future" rx="2.5" ry="2.5" style="stroke:#181818;stroke-width:0.5;" width="302.0811" x="1258" y="158.5"/><ellipse cx="1273" cy="174.5" fill="#ADD1B2" rx="11" ry="11" style="stroke:#181818;stroke-width:1;"/><path d="M1275.9688,180.1406 Q1275.3906,180.4375 1274.75,180.5781 Q1274.1094,180.7344 1273.4063,180.7344 Q1270.9063,180.7344 1269.5781,179.0938 Q1268.2656,177.4375 1268.2656,174.3125 Q1268.2656,171.1875 1269.5781,169.5313 Q1270.9063,167.875 1273.4063,167.875 Q1274.1094,167.875 1274.75,168.0313 Q1275.4063,168.1875 1275.9688,168.4844 L1275.9688,171.2031 Q1275.3438,170.625 1274.75,170.3594 Q1274.1563,170.0781 1273.5313,170.0781 Q1272.1875,170.0781 1271.5,171.1563 Q1270.8125,172.2188 1270.8125,174.3125 Q1270.8125,176.4063 1271.5,177.4844 Q1272.1875,178.5469 1273.5313,178.5469 Q1274.1563,178.5469 1274.75,178.2813 Q1275.3438,178 1275.9688,177.4219 L1275.9688,180.1406 Z " fill="#000000"/><text fill="#000000" font-family="sans-serif" font-size="14" lengthAdjust="spacing" textLength="270.0811" x="1287" y="179.3467">logic_arc_int__baselibs__shared_future</text><line style="stroke:#181818;stroke-width:0.5;" x1="1259" x2="1559.0811" y1="190.5" y2="190.5"/></g><!--class logic_arc_int__baselibs__task--><g id="elem_logic_arc_int__baselibs__task"><rect fill="#F1F1F1" height="40" id="logic_arc_int__baselibs__task" rx="2.5" ry="2.5" style="stroke:#181818;stroke-width:0.5;" width="234.0156" x="989" y="158.5"/><ellipse cx="1004" cy="174.5" fill="#ADD1B2" rx="11" ry="11" style="stroke:#181818;stroke-width:1;"/><path d="M1006.9688,180.1406 Q1006.3906,180.4375 1005.75,180.5781 Q1005.1094,180.7344 1004.4063,180.7344 Q1001.9063,180.7344 1000.5781,179.0938 Q999.2656,177.4375 999.2656,174.3125 Q999.2656,171.1875 1000.5781,169.5313 Q1001.9063,167.875 1004.4063,167.875 Q1005.1094,167.875 1005.75,168.0313 Q1006.4063,168.1875 1006.9688,168.4844 L1006.9688,171.2031 Q1006.3438,170.625 1005.75,170.3594 Q1005.1563,170.0781 1004.5313,170.0781 Q1003.1875,170.0781 1002.5,171.1563 Q1001.8125,172.2188 1001.8125,174.3125 Q1001.8125,176.4063 1002.5,177.4844 Q1003.1875,178.5469 1004.5313,178.5469 Q1005.1563,178.5469 1005.75,178.2813 Q1006.3438,178 1006.9688,177.4219 L1006.9688,180.1406 Z " fill="#000000"/><text fill="#000000" font-family="sans-serif" font-size="14" lengthAdjust="spacing" textLength="202.0156" x="1018" y="179.3467">logic_arc_int__baselibs__task</text><line style="stroke:#181818;stroke-width:0.5;" x1="990" x2="1222.0156" y1="190.5" y2="190.5"/></g><!--reverse link logic_arc_int__baselibs__memory_shared to comp_arc_sta__baselibs__memory_shared--><g id="link_logic_arc_int__baselibs__memory_shared_comp_arc_sta__baselibs__memory_shared"><path codeLine="15" d="M6023.4346,204.7491 C6023.8046,225.9791 6024.29,253.94 6024.66,275.19 " fill="transparent" id="logic_arc_int__baselibs__memory_shared-backto-comp_arc_sta__baselibs__memory_shared" style="stroke:#181818;stroke-width:1;"/><polygon fill="#181818" points="6023.33,198.75,6019.4874,207.8183,6023.4171,203.7492,6027.4862,207.6789,6023.33,198.75" style="stroke:#181818;stroke-width:1;"/><text fill="#000000" font-family="sans-serif" font-size="13" lengthAdjust="spacing" textLength="76.9082" x="6025" y="241.5669">implements</text></g><!--link Feature_User to logic_arc_int__baselibs__task_result--><g id="link_Feature_User_logic_arc_int__baselibs__task_result"><path codeLine="16" d="M2948.81,45.53 C2749.86,50.22 1932.21,71.07 1262,111.5 C1006.94,126.89 943.23,132.8 689,158.5 C683.36,159.07 683.586,159.0323 677.786,159.6523 " fill="transparent" id="Feature_User-to-logic_arc_int__baselibs__task_result" style="stroke:#181818;stroke-width:1;"/><polygon fill="#181818" points="671.82,160.29,681.1942,163.3107,676.7917,159.7585,680.3439,155.356,671.82,160.29" style="stroke:#181818;stroke-width:1;"/><text fill="#000000" font-family="sans-serif" font-size="13" lengthAdjust="spacing" textLength="23.0103" x="1263" y="124.5669">use</text></g><!--link Feature_User to logic_arc_int__baselibs__future--><g id="link_Feature_User_logic_arc_int__baselibs__future"><path codeLine="17" d="M2948.8,45.99 C2770.16,52.01 2096.03,75.93 1542,111.5 C1287.89,127.82 1224.15,131.04 971,158.5 C965.35,159.11 965.5396,159.0749 959.7096,159.7549 " fill="transparent" id="Feature_User-to-logic_arc_int__baselibs__future" style="stroke:#181818;stroke-width:1;"/><polygon fill="#181818" points="953.75,160.45,963.1528,163.3804,958.7163,159.8707,962.226,155.4343,953.75,160.45" style="stroke:#181818;stroke-width:1;"/><text fill="#000000" font-family="sans-serif" font-size="13" lengthAdjust="spacing" textLength="23.0103" x="1543" y="124.5669">use</text></g><!--link Feature_User to logic_arc_int__baselibs__intrusive_list--><g id="link_Feature_User_logic_arc_int__baselibs__intrusive_list"><path codeLine="18" d="M3039.36,55.05 C3135.68,77.44 3355.9259,128.6511 3478.1959,157.0811 " fill="transparent" id="Feature_User-to-logic_arc_int__baselibs__intrusive_list" style="stroke:#181818;stroke-width:1;"/><polygon fill="#181818" points="3484.04,158.44,3476.1798,152.5056,3479.1699,157.3076,3474.3679,160.2978,3484.04,158.44" style="stroke:#181818;stroke-width:1;"/><text fill="#000000" font-family="sans-serif" font-size="13" lengthAdjust="spacing" textLength="23.0103" x="3350" y="124.5669">use</text></g><!--link Feature_User to logic_arc_int__baselibs__synchronized_queue--><g id="link_Feature_User_logic_arc_int__baselibs__synchronized_queue"><path codeLine="19" d="M2948.98,45.27 C2731.58,49.12 1768.75,67.96 981,111.5 C710.38,126.46 642.98,134.71 373,158.5 C367.16,159.01 367.1958,159.0113 361.2058,159.5513 " fill="transparent" id="Feature_User-to-logic_arc_int__baselibs__synchronized_queue" style="stroke:#181818;stroke-width:1;"/><polygon fill="#181818" points="355.23,160.09,364.5528,163.2658,360.2098,159.6411,363.8345,155.2981,355.23,160.09" style="stroke:#181818;stroke-width:1;"/><text fill="#000000" font-family="sans-serif" font-size="13" lengthAdjust="spacing" textLength="23.0103" x="982" y="124.5669">use</text></g><!--link Feature_User to logic_arc_int__baselibs__bit_manipulation--><g id="link_Feature_User_logic_arc_int__baselibs__bit_manipulation"><path codeLine="20" d="M3039.37,45.86 C3264.88,52.83 4287.52,87.08 5122,158.5 C5127.76,158.99 5127.6457,158.955 5133.5657,159.505 " fill="transparent" id="Feature_User-to-logic_arc_int__baselibs__bit_manipulation" style="stroke:#181818;stroke-width:1;"/><polygon fill="#181818" points="5139.54,160.06,5130.9486,155.2446,5134.5614,159.5975,5130.2086,163.2103,5139.54,160.06" style="stroke:#181818;stroke-width:1;"/><text fill="#000000" font-family="sans-serif" font-size="13" lengthAdjust="spacing" textLength="23.0103" x="4717" y="124.5669">use</text></g><!--reverse link logic_arc_int__baselibs__condition_variable to comp_arc_sta__baselibs__concurrency--><g id="link_logic_arc_int__baselibs__condition_variable_comp_arc_sta__baselibs__concurrency"><path codeLine="21" d="M1918.3291,199.3501 C1823.8491,212.7101 1700.18,230.04 1586,245.5 C1511.37,255.61 1428.32,266.52 1359.47,275.48 " fill="transparent" id="logic_arc_int__baselibs__condition_variable-backto-comp_arc_sta__baselibs__concurrency" style="stroke:#181818;stroke-width:1;"/><polygon fill="#181818" points="1924.27,198.51,1914.7986,195.8095,1919.3193,199.2101,1915.9187,203.7307,1924.27,198.51" style="stroke:#181818;stroke-width:1;"/><text fill="#000000" font-family="sans-serif" font-size="13" lengthAdjust="spacing" textLength="76.9082" x="1704" y="241.5669">implements</text></g><!--link Feature_User to logic_arc_int__baselibs__executor--><g id="link_Feature_User_logic_arc_int__baselibs__executor"><path codeLine="22" d="M2948.83,54.5 C2849.05,76.58 2614.3384,128.524 2484.8284,157.174 " fill="transparent" id="Feature_User-to-logic_arc_int__baselibs__executor" style="stroke:#181818;stroke-width:1;"/><polygon fill="#181818" points="2478.97,158.47,2488.6215,160.4316,2483.852,157.39,2486.8936,152.6205,2478.97,158.47" style="stroke:#181818;stroke-width:1;"/><text fill="#000000" font-family="sans-serif" font-size="13" lengthAdjust="spacing" textLength="23.0103" x="2677" y="124.5669">use</text></g><!--link Feature_User to logic_arc_int__baselibs__utils_scoped_op--><g id="link_Feature_User_logic_arc_int__baselibs__utils_scoped_op"><path codeLine="23" d="M3039.23,49.24 C3187.48,64.79 3672.17,115.69 4073,158.5 C4078.96,159.14 4079.0633,159.1584 4085.2033,159.8084 " fill="transparent" id="Feature_User-to-logic_arc_int__baselibs__utils_scoped_op" style="stroke:#181818;stroke-width:1;"/><polygon fill="#181818" points="4091.17,160.44,4082.6411,155.5148,4086.1978,159.9136,4081.7989,163.4703,4091.17,160.44" style="stroke:#181818;stroke-width:1;"/><text fill="#000000" font-family="sans-serif" font-size="13" lengthAdjust="spacing" textLength="23.0103" x="3778" y="124.5669">use</text></g><!--reverse link logic_arc_int__baselibs__utils_base64 to comp_arc_sta__baselibs__utils--><g id="link_logic_arc_int__baselibs__utils_base64_comp_arc_sta__baselibs__utils"><path codeLine="24" d="M4549.8479,201.7743 C4513.3679,223.0643 4460.14,254.14 4423.75,275.38 " fill="transparent" id="logic_arc_int__baselibs__utils_base64-backto-comp_arc_sta__baselibs__utils" style="stroke:#181818;stroke-width:1;"/><polygon fill="#181818" points="4555.03,198.75,4545.2407,199.8317,4550.7116,201.2702,4549.2731,206.7411,4555.03,198.75" style="stroke:#181818;stroke-width:1;"/><text fill="#000000" font-family="sans-serif" font-size="13" lengthAdjust="spacing" textLength="76.9082" x="4503" y="241.5669">implements</text></g><!--reverse link logic_arc_int__baselibs__bit_manipulation to comp_arc_sta__baselibs__bit_manipulation--><g id="link_logic_arc_int__baselibs__bit_manipulation_comp_arc_sta__baselibs__bit_manipulation"><path codeLine="25" d="M5264.5891,201.893 C5229.9691,223.183 5179.63,254.14 5145.09,275.38 " fill="transparent" id="logic_arc_int__baselibs__bit_manipulation-backto-comp_arc_sta__baselibs__bit_manipulation" style="stroke:#181818;stroke-width:1;"/><polygon fill="#181818" points="5269.7,198.75,5259.9383,200.0573,5265.4409,201.3692,5264.129,206.8718,5269.7,198.75" style="stroke:#181818;stroke-width:1;"/><text fill="#000000" font-family="sans-serif" font-size="13" lengthAdjust="spacing" textLength="76.9082" x="5220" y="241.5669">implements</text></g><!--link Feature_User to logic_arc_int__baselibs__json--><g id="link_Feature_User_logic_arc_int__baselibs__json"><path codeLine="26" d="M3039.25,66.46 C3091.99,92.06 3172.912,131.3506 3223.072,155.6906 " fill="transparent" id="Feature_User-to-logic_arc_int__baselibs__json" style="stroke:#181818;stroke-width:1;"/><polygon fill="#181818" points="3228.47,158.31,3222.1192,150.7822,3223.9716,156.1272,3218.6267,157.9796,3228.47,158.31" style="stroke:#181818;stroke-width:1;"/><text fill="#000000" font-family="sans-serif" font-size="13" lengthAdjust="spacing" textLength="23.0103" x="3165" y="124.5669">use</text></g><!--reverse link logic_arc_int__baselibs__message_passing to comp_arc_sta__baselibs__message_passing--><g id="link_logic_arc_int__baselibs__message_passing_comp_arc_sta__baselibs__message_passing"><path codeLine="27" d="M5660.3418,204.7479 C5659.7818,225.9779 5659.06,253.94 5658.5,275.19 " fill="transparent" id="logic_arc_int__baselibs__message_passing-backto-comp_arc_sta__baselibs__message_passing" style="stroke:#181818;stroke-width:1;"/><polygon fill="#181818" points="5660.5,198.75,5656.2641,207.6414,5660.3682,203.7483,5664.2613,207.8523,5660.5,198.75" style="stroke:#181818;stroke-width:1;"/><text fill="#000000" font-family="sans-serif" font-size="13" lengthAdjust="spacing" textLength="76.9082" x="5661" y="241.5669">implements</text></g><!--link Feature_User to logic_arc_int__baselibs__result--><g id="link_Feature_User_logic_arc_int__baselibs__result"><path codeLine="28" d="M2994,81.55 C2994,106.45 2994,132.26 2994,152.26 " fill="transparent" id="Feature_User-to-logic_arc_int__baselibs__result" style="stroke:#181818;stroke-width:1;"/><polygon fill="#181818" points="2994,158.26,2998,149.26,2994,153.26,2990,149.26,2994,158.26" style="stroke:#181818;stroke-width:1;"/><text fill="#000000" font-family="sans-serif" font-size="13" lengthAdjust="spacing" textLength="23.0103" x="2995" y="124.5669">use</text></g><!--reverse link logic_arc_int__baselibs__intrusive_list to comp_arc_sta__baselibs__containers--><g id="link_logic_arc_int__baselibs__intrusive_list_comp_arc_sta__baselibs__containers"><path codeLine="29" d="M3585.3417,203.4163 C3602.5017,224.6463 3626.2,253.94 3643.38,275.19 " fill="transparent" id="logic_arc_int__baselibs__intrusive_list-backto-comp_arc_sta__baselibs__containers" style="stroke:#181818;stroke-width:1;"/><polygon fill="#181818" points="3581.57,198.75,3584.1167,208.2639,3584.7131,202.6386,3590.3384,203.235,3581.57,198.75" style="stroke:#181818;stroke-width:1;"/><text fill="#000000" font-family="sans-serif" font-size="13" lengthAdjust="spacing" textLength="76.9082" x="3620" y="241.5669">implements</text></g><!--link Feature_User to logic_arc_int__baselibs__condition_variable--><g id="link_Feature_User_logic_arc_int__baselibs__condition_variable"><path codeLine="30" d="M2948.85,50.91 C2813.19,70.19 2411.3303,127.2959 2197.7303,157.6459 " fill="transparent" id="Feature_User-to-logic_arc_int__baselibs__condition_variable" style="stroke:#181818;stroke-width:1;"/><polygon fill="#181818" points="2191.79,158.49,2201.2632,161.1841,2196.7403,157.7866,2200.1378,153.2637,2191.79,158.49" style="stroke:#181818;stroke-width:1;"/><text fill="#000000" font-family="sans-serif" font-size="13" lengthAdjust="spacing" textLength="23.0103" x="2499" y="124.5669">use</text></g><!--reverse link logic_arc_int__baselibs__task_result to comp_arc_sta__baselibs__concurrency--><g id="link_logic_arc_int__baselibs__task_result_comp_arc_sta__baselibs__concurrency"><path codeLine="31" d="M645.5409,199.5601 C721.9709,212.8801 820.75,229.97 913,245.5 C972.78,255.56 1039.34,266.5 1094.45,275.48 " fill="transparent" id="logic_arc_int__baselibs__task_result-backto-comp_arc_sta__baselibs__concurrency" style="stroke:#181818;stroke-width:1;"/><polygon fill="#181818" points="639.63,198.53,647.8096,204.0158,644.5558,199.3884,649.1831,196.1346,639.63,198.53" style="stroke:#181818;stroke-width:1;"/><text fill="#000000" font-family="sans-serif" font-size="13" lengthAdjust="spacing" textLength="76.9082" x="914" y="241.5669">implements</text></g><!--link Feature_User to logic_arc_int__baselibs__promise--><g id="link_Feature_User_logic_arc_int__baselibs__promise"><path codeLine="32" d="M2948.88,48.66 C2797.11,62.76 2291.22,110.49 1874,158.5 C1868.34,159.15 1868.5174,159.1159 1862.6774,159.8159 " fill="transparent" id="Feature_User-to-logic_arc_int__baselibs__promise" style="stroke:#181818;stroke-width:1;"/><polygon fill="#181818" points="1856.72,160.53,1866.1321,163.4305,1861.6845,159.9349,1865.18,155.4873,1856.72,160.53" style="stroke:#181818;stroke-width:1;"/><text fill="#000000" font-family="sans-serif" font-size="13" lengthAdjust="spacing" textLength="23.0103" x="2306" y="124.5669">use</text></g><!--reverse link logic_arc_int__baselibs__synchronized_queue to comp_arc_sta__baselibs__concurrency--><g id="link_logic_arc_int__baselibs__synchronized_queue_comp_arc_sta__baselibs__concurrency"><path codeLine="33" d="M340.0554,199.2503 C450.7954,212.8303 598.1,230.54 733,245.5 C843.09,257.71 967.53,270.41 1061.99,279.82 " fill="transparent" id="logic_arc_int__baselibs__synchronized_queue-backto-comp_arc_sta__baselibs__concurrency" style="stroke:#181818;stroke-width:1;"/><polygon fill="#181818" points="334.1,198.52,342.5462,203.5857,339.0628,199.1286,343.52,195.6452,334.1,198.52" style="stroke:#181818;stroke-width:1;"/><text fill="#000000" font-family="sans-serif" font-size="13" lengthAdjust="spacing" textLength="76.9082" x="734" y="241.5669">implements</text></g><!--link Feature_User to logic_arc_int__baselibs__bit_mask_operator--><g id="link_Feature_User_logic_arc_int__baselibs__bit_mask_operator"><path codeLine="34" d="M3039.19,46.68 C3239.92,56.55 4070.79,99.03 4751,158.5 C4756.98,159.02 4757.0947,159.0259 4763.2447,159.5859 " fill="transparent" id="Feature_User-to-logic_arc_int__baselibs__bit_mask_operator" style="stroke:#181818;stroke-width:1;"/><polygon fill="#181818" points="4769.22,160.13,4760.6198,155.3303,4764.2406,159.6766,4759.8944,163.2974,4769.22,160.13" style="stroke:#181818;stroke-width:1;"/><text fill="#000000" font-family="sans-serif" font-size="13" lengthAdjust="spacing" textLength="23.0103" x="4368" y="124.5669">use</text></g><!--reverse link logic_arc_int__baselibs__bit_mask_operator to comp_arc_sta__baselibs__bit_manipulation--><g id="link_logic_arc_int__baselibs__bit_mask_operator_comp_arc_sta__baselibs__bit_manipulation"><path codeLine="35" d="M4971.6614,202.0188 C5004.4314,223.3088 5051.88,254.14 5084.57,275.38 " fill="transparent" id="logic_arc_int__baselibs__bit_mask_operator-backto-comp_arc_sta__baselibs__bit_manipulation" style="stroke:#181818;stroke-width:1;"/><polygon fill="#181818" points="4966.63,198.75,4971.9979,207.0075,4970.8228,201.474,4976.3563,200.2989,4966.63,198.75" style="stroke:#181818;stroke-width:1;"/><text fill="#000000" font-family="sans-serif" font-size="13" lengthAdjust="spacing" textLength="76.9082" x="5038" y="241.5669">implements</text></g><!--link Feature_User to logic_arc_int__baselibs__memory_shared--><g id="link_Feature_User_logic_arc_int__baselibs__memory_shared"><path codeLine="36" d="M3039.2,45.41 C3262.77,50.04 4272.68,72.22 5099,111.5 C5429.51,127.21 5512.28,130.78 5842,158.5 C5849.08,159.1 5850.345,159.1824 5857.655,159.8524 " fill="transparent" id="Feature_User-to-logic_arc_int__baselibs__memory_shared" style="stroke:#181818;stroke-width:1;"/><polygon fill="#181818" points="5863.63,160.4,5855.0327,155.5952,5858.6509,159.9436,5854.3025,163.5618,5863.63,160.4" style="stroke:#181818;stroke-width:1;"/><text fill="#000000" font-family="sans-serif" font-size="13" lengthAdjust="spacing" textLength="23.0103" x="5435" y="124.5669">use</text></g><!--reverse link logic_arc_int__baselibs__json to comp_arc_sta__baselibs__json--><g id="link_logic_arc_int__baselibs__json_comp_arc_sta__baselibs__json"><path codeLine="37" d="M3269.9777,204.7317 C3271.6377,225.9617 3273.83,253.94 3275.49,275.19 " fill="transparent" id="logic_arc_int__baselibs__json-backto-comp_arc_sta__baselibs__json" style="stroke:#181818;stroke-width:1;"/><polygon fill="#181818" points="3269.51,198.75,3266.2238,208.0344,3269.8998,203.7348,3274.1994,207.4108,3269.51,198.75" style="stroke:#181818;stroke-width:1;"/><text fill="#000000" font-family="sans-serif" font-size="13" lengthAdjust="spacing" textLength="76.9082" x="3275" y="241.5669">implements</text></g><!--reverse link logic_arc_int__baselibs__result to comp_arc_sta__baselibs__result--><g id="link_logic_arc_int__baselibs__result_comp_arc_sta__baselibs__result"><path codeLine="38" d="M2994,204.75 C2994,225.98 2994,253.94 2994,275.19 " fill="transparent" id="logic_arc_int__baselibs__result-backto-comp_arc_sta__baselibs__result" style="stroke:#181818;stroke-width:1;"/><polygon fill="#181818" points="2994,198.75,2990,207.75,2994,203.75,2998,207.75,2994,198.75" style="stroke:#181818;stroke-width:1;"/><text fill="#000000" font-family="sans-serif" font-size="13" lengthAdjust="spacing" textLength="76.9082" x="2995" y="241.5669">implements</text></g><!--reverse link logic_arc_int__baselibs__dynamic_array to comp_arc_sta__baselibs__containers--><g id="link_logic_arc_int__baselibs__dynamic_array_comp_arc_sta__baselibs__containers"><path codeLine="39" d="M3856.1768,201.1868 C3811.2368,222.4568 3744.48,254.05 3699.5,275.34 " fill="transparent" id="logic_arc_int__baselibs__dynamic_array-backto-comp_arc_sta__baselibs__containers" style="stroke:#181818;stroke-width:1;"/><polygon fill="#181818" points="3861.6,198.62,3851.7539,198.8547,3857.0806,200.759,3855.1763,206.0857,3861.6,198.62" style="stroke:#181818;stroke-width:1;"/><text fill="#000000" font-family="sans-serif" font-size="13" lengthAdjust="spacing" textLength="76.9082" x="3797" y="241.5669">implements</text></g><!--reverse link logic_arc_int__baselibs__filesystem to comp_arc_sta__baselibs__filesystem--><g id="link_logic_arc_int__baselibs__filesystem_comp_arc_sta__baselibs__filesystem"><path codeLine="40" d="M2697.0223,204.7317 C2695.3623,225.9617 2693.17,253.94 2691.51,275.19 " fill="transparent" id="logic_arc_int__baselibs__filesystem-backto-comp_arc_sta__baselibs__filesystem" style="stroke:#181818;stroke-width:1;"/><polygon fill="#181818" points="2697.49,198.75,2692.8006,207.4108,2697.1002,203.7348,2700.7762,208.0344,2697.49,198.75" style="stroke:#181818;stroke-width:1;"/><text fill="#000000" font-family="sans-serif" font-size="13" lengthAdjust="spacing" textLength="76.9082" x="2697" y="241.5669">implements</text></g><!--link Feature_User to logic_arc_int__baselibs__shared_future--><g id="link_Feature_User_logic_arc_int__baselibs__shared_future"><path codeLine="41" d="M2948.7,47.52 C2772.61,59.37 2116.68,104.79 1578,158.5 C1572.12,159.09 1572.0986,159.0873 1566.0586,159.7073 " fill="transparent" id="Feature_User-to-logic_arc_int__baselibs__shared_future" style="stroke:#181818;stroke-width:1;"/><polygon fill="#181818" points="1560.09,160.32,1569.4514,163.3801,1565.0639,159.8094,1568.6345,155.4219,1560.09,160.32" style="stroke:#181818;stroke-width:1;"/><text fill="#000000" font-family="sans-serif" font-size="13" lengthAdjust="spacing" textLength="23.0103" x="2085" y="124.5669">use</text></g><!--link Feature_User to logic_arc_int__baselibs__utils_base64--><g id="link_Feature_User_logic_arc_int__baselibs__utils_base64"><path codeLine="42" d="M3039.13,47.51 C3216.05,59.42 3879.31,105.25 4424,158.5 C4429.85,159.07 4429.8426,159.0455 4435.8626,159.6755 " fill="transparent" id="Feature_User-to-logic_arc_int__baselibs__utils_base64" style="stroke:#181818;stroke-width:1;"/><polygon fill="#181818" points="4441.83,160.3,4433.2952,155.385,4436.8572,159.7796,4432.4626,163.3415,4441.83,160.3" style="stroke:#181818;stroke-width:1;"/><text fill="#000000" font-family="sans-serif" font-size="13" lengthAdjust="spacing" textLength="23.0103" x="4073" y="124.5669">use</text></g><!--link Feature_User to logic_arc_int__baselibs__task--><g id="link_Feature_User_logic_arc_int__baselibs__task"><path codeLine="43" d="M2948.82,46.06 C2748.18,53.28 1917.8,86.22 1240,158.5 C1234.51,159.09 1234.8573,159.0055 1229.1873,159.6855 " fill="transparent" id="Feature_User-to-logic_arc_int__baselibs__task" style="stroke:#181818;stroke-width:1;"/><polygon fill="#181818" points="1223.23,160.4,1232.6423,163.2999,1228.1944,159.8046,1231.6897,155.3568,1223.23,160.4" style="stroke:#181818;stroke-width:1;"/><text fill="#000000" font-family="sans-serif" font-size="13" lengthAdjust="spacing" textLength="23.0103" x="1722" y="124.5669">use</text></g><!--reverse link logic_arc_int__baselibs__utils_scoped_op to comp_arc_sta__baselibs__utils--><g id="link_logic_arc_int__baselibs__utils_scoped_op_comp_arc_sta__baselibs__utils"><path codeLine="44" d="M4277.4324,202.5265 C4303.6424,223.7565 4340.91,253.94 4367.15,275.19 " fill="transparent" id="logic_arc_int__baselibs__utils_scoped_op-backto-comp_arc_sta__baselibs__utils" style="stroke:#181818;stroke-width:1;"/><polygon fill="#181818" points="4272.77,198.75,4277.2459,207.523,4276.6553,201.8971,4282.2813,201.3065,4272.77,198.75" style="stroke:#181818;stroke-width:1;"/><text fill="#000000" font-family="sans-serif" font-size="13" lengthAdjust="spacing" textLength="76.9082" x="4330" y="241.5669">implements</text></g><!--link Feature_User to logic_arc_int__baselibs__dynamic_array--><g id="link_Feature_User_logic_arc_int__baselibs__dynamic_array"><path codeLine="45" d="M3039.03,51.1 C3171.79,70.54 3559.3233,127.3107 3765.9733,157.5707 " fill="transparent" id="Feature_User-to-logic_arc_int__baselibs__dynamic_array" style="stroke:#181818;stroke-width:1;"/><polygon fill="#181818" points="3771.91,158.44,3763.5845,153.1782,3766.9628,157.7156,3762.4254,161.0938,3771.91,158.44" style="stroke:#181818;stroke-width:1;"/><text fill="#000000" font-family="sans-serif" font-size="13" lengthAdjust="spacing" textLength="23.0103" x="3558" y="124.5669">use</text></g><!--reverse link logic_arc_int__baselibs__promise to comp_arc_sta__baselibs__concurrency--><g id="link_logic_arc_int__baselibs__promise_comp_arc_sta__baselibs__concurrency"><path codeLine="46" d="M1634.9848,199.8601 C1539.8348,221.1501 1392.55,254.11 1297.33,275.41 " fill="transparent" id="logic_arc_int__baselibs__promise-backto-comp_arc_sta__baselibs__concurrency" style="stroke:#181818;stroke-width:1;"/><polygon fill="#181818" points="1640.84,198.55,1631.1838,196.6117,1635.9607,199.6418,1632.9306,204.4187,1640.84,198.55" style="stroke:#181818;stroke-width:1;"/><text fill="#000000" font-family="sans-serif" font-size="13" lengthAdjust="spacing" textLength="76.9082" x="1501" y="241.5669">implements</text></g><!--reverse link logic_arc_int__baselibs__shared_future to comp_arc_sta__baselibs__concurrency--><g id="link_logic_arc_int__baselibs__shared_future_comp_arc_sta__baselibs__concurrency"><path codeLine="47" d="M1370.8479,201.7743 C1334.3679,223.0643 1281.14,254.14 1244.75,275.38 " fill="transparent" id="logic_arc_int__baselibs__shared_future-backto-comp_arc_sta__baselibs__concurrency" style="stroke:#181818;stroke-width:1;"/><polygon fill="#181818" points="1376.03,198.75,1366.2407,199.8317,1371.7116,201.2702,1370.2731,206.7411,1376.03,198.75" style="stroke:#181818;stroke-width:1;"/><text fill="#000000" font-family="sans-serif" font-size="13" lengthAdjust="spacing" textLength="76.9082" x="1324" y="241.5669">implements</text></g><!--reverse link logic_arc_int__baselibs__task to comp_arc_sta__baselibs__concurrency--><g id="link_logic_arc_int__baselibs__task_comp_arc_sta__baselibs__concurrency"><path codeLine="48" d="M1127.8067,203.1616 C1147.3767,224.3916 1174.61,253.94 1194.2,275.19 " fill="transparent" id="logic_arc_int__baselibs__task-backto-comp_arc_sta__baselibs__concurrency" style="stroke:#181818;stroke-width:1;"/><polygon fill="#181818" points="1123.74,198.75,1126.8989,208.0785,1127.1289,202.4263,1132.7811,202.6563,1123.74,198.75" style="stroke:#181818;stroke-width:1;"/><text fill="#000000" font-family="sans-serif" font-size="13" lengthAdjust="spacing" textLength="76.9082" x="1167" y="241.5669">implements</text></g><!--link Feature_User to logic_arc_int__baselibs__filesystem--><g id="link_Feature_User_logic_arc_int__baselibs__filesystem"><path codeLine="49" d="M2948.87,64.84 C2892.38,90.31 2801.83,131.1445 2746.72,155.9845 " fill="transparent" id="Feature_User-to-logic_arc_int__baselibs__filesystem" style="stroke:#181818;stroke-width:1;"/><polygon fill="#181818" points="2741.25,158.45,2751.0987,158.3984,2745.8084,156.3954,2747.8113,151.105,2741.25,158.45" style="stroke:#181818;stroke-width:1;"/><text fill="#000000" font-family="sans-serif" font-size="13" lengthAdjust="spacing" textLength="23.0103" x="2839" y="124.5669">use</text></g><!--reverse link logic_arc_int__baselibs__future to comp_arc_sta__baselibs__concurrency--><g id="link_logic_arc_int__baselibs__future_comp_arc_sta__baselibs__concurrency"><path codeLine="50" d="M899.2553,200.3497 C970.0053,221.6497 1077.97,254.15 1148.66,275.43 " fill="transparent" id="logic_arc_int__baselibs__future-backto-comp_arc_sta__baselibs__concurrency" style="stroke:#181818;stroke-width:1;"/><polygon fill="#181818" points="893.51,198.62,900.9748,205.0447,898.2977,200.0614,903.281,197.3843,893.51,198.62" style="stroke:#181818;stroke-width:1;"/><text fill="#000000" font-family="sans-serif" font-size="13" lengthAdjust="spacing" textLength="76.9082" x="1045" y="241.5669">implements</text></g><!--link Feature_User to logic_arc_int__baselibs__message_passing--><g id="link_Feature_User_logic_arc_int__baselibs__message_passing"><path codeLine="51" d="M3039.1,45.79 C3239.45,51.6 4068.8,76.63 4749,111.5 C5073.69,128.15 5155.03,131.17 5479,158.5 C5484.86,158.99 5484.844,158.9839 5490.864,159.5239 " fill="transparent" id="Feature_User-to-logic_arc_int__baselibs__message_passing" style="stroke:#181818;stroke-width:1;"/><polygon fill="#181818" points="5496.84,160.06,5488.2334,155.2719,5491.86,159.6133,5487.5186,163.2399,5496.84,160.06" style="stroke:#181818;stroke-width:1;"/><text fill="#000000" font-family="sans-serif" font-size="13" lengthAdjust="spacing" textLength="23.0103" x="5067" y="124.5669">use</text></g><!--reverse link logic_arc_int__baselibs__executor to comp_arc_sta__baselibs__concurrency--><g id="link_logic_arc_int__baselibs__executor_comp_arc_sta__baselibs__concurrency"><path codeLine="52" d="M2253.6721,197.1497 C2247.7121,197.8597 2247.77,197.84 2242,198.5 C2040.91,221.58 1990.52,226.49 1789,245.5 C1644.12,259.17 1478.61,273.04 1362.11,282.52 " fill="transparent" id="logic_arc_int__baselibs__executor-backto-comp_arc_sta__baselibs__concurrency" style="stroke:#181818;stroke-width:1;"/><polygon fill="#181818" points="2259.63,196.44,2250.22,193.5327,2254.6651,197.0315,2251.1664,201.4765,2259.63,196.44" style="stroke:#181818;stroke-width:1;"/><text fill="#000000" font-family="sans-serif" font-size="13" lengthAdjust="spacing" textLength="76.9082" x="1963" y="241.5669">implements</text></g><!--SRC=[hLPDRzim3BthLmYzfnk6OOUYw6N0JZjkPu6MsOIhFZoHwkeD- - -Jus29iwHED1zbKq-FV7oKmBdumtXweR1M4ZijKJTH97hTKa8h58FQK8kQ1HD6wJiSr-WxwJM896go8AjxbjxXWxe59jVeN-ep1VmONKmwORjTVTcGVGh8hD_TlbM_rVsRtHu5LahSpIS4oGdrLyPqeu7rxeCPFcYbRFITWMGD2nZJ0AEZXetnw6Fg3M-W7ALNUVMWNLoJtSPIaBEnTvfyvz1Z4DPgSjggVGr5W9zCGivExdHcl6hpOnuYhzzNbYapFQDnn1NdSX_i9iL0Fx4rtpFc2WuDYV4GgCiEXkxO8PnJniPWSqeOR3-ZIubiQK0qpv086eVLuk0BsbmQwlhiif1ZmpPsfKAncqbk6psJreWuh3-ydoPq3lMumZC7_2j8PTM-yQoQldWNrcWwO2uJOzPfa-XgOXERlT9e0cN6f3b1ZarKIUfKkoxaXCbigQJNfUY9b-DqQdHKKXiRjgHOJ9PWRzD5_J21hoHwT5EyId8mpmonqL-NJ81H-ncuKmtot-Pe-m1- -oj1Vnds8pdalZmF_0psFh1QaL6AwljpEekltJtOSh4BuU2AgQp5aLGB-VpltBYmhIuT7rFXbWKVXQaius5NBbJ3KrbUDNQEhis5QErVHOV4_W00]--></g></svg>