<svg xmlns="http://www.w3.org/2000/svg" xmlns:xlink="http://www.w3.org/1999/xlink" contentStyleType="text/css" data-diagram-type="CLASS" height="322px" preserveAspectRatio="none" style="width:6199px;height:322px;background:#FFFFFF;" version="1.1" viewBox="0 0 6199 322" width="6199px" zoomAndPan="magnify"><defs/><g><!--entity Feature_User--><g id="elem_Feature_User"><ellipse cx="3133.1685" cy="14" fill="#F1F1F1" rx="8" ry="8" style="stroke:#181818;stroke-width:0.5;"/><path d="M3133.1685,22 L3133.1685,49 M3120.1685,30 L3146.1685,30 M3133.1685,49 L3120.1685,64 M3133.1685,49 L3146.1685,64 " fill="transparent" style="stroke:#181818;stroke-width:0.5;"/><text fill="#000000" font-family="sans-serif" font-size="14" lengthAdjust="spacing" textLength="90.3369" x="3088" y="78.4951">Feature User</text></g><!--class logic_arc_int__baselibs__intrusive_list--><g id="elem_logic_arc_int__baselibs__intrusive_list"><rect fill="#F1F1F1" height="40" id="logic_arc_int__baselibs__intrusive_list" rx="2.5" ry="2.5" style="stroke:#181818;stroke-width:0.5;" width="293.0713" x="4904.5" y="158.5"/><ellipse cx="4919.5" cy="174.5" fill="#ADD1B2" rx="11" ry="11" style="stroke:#181818;stroke-width:1;"/><path d="M4922.4688,180.1406 Q4921.8906,180.4375 4921.25,180.5781 Q4920.6094,180.7344 4919.9063,180.7344 Q4917.4063,180.7344 4916.0781,179.0938 Q4914.7656,177.4375 4914.7656,174.3125 Q4914.7656,171.1875 4916.0781,169.5313 Q4917.4063,167.875 4919.9063,167.875 Q4920.6094,167.875 4921.25,168.0313 Q4921.9063,168.1875 4922.4688,168.4844 L4922.4688,171.2031 Q4921.8438,170.625 4921.25,170.3594 Q4920.6563,170.0781 4920.0313,170.0781 Q4918.6875,170.0781 4918,171.1563 Q4917.3125,172.2188 4917.3125,174.3125 Q4917.3125,176.4063 4918,177.4844 Q4918.6875,178.5469 4920.0313,178.5469 Q4920.6563,178.5469 4921.25,178.2813 Q4921.8438,178 4922.4688,177.4219 L4922.4688,180.1406 Z " fill="#000000"/><text fill="#000000" font-family="sans-serif" font-size="14" lengthAdjust="spacing" textLength="261.0713" x="4933.5" y="179.3467">logic_arc_int__baselibs__intrusive_list</text><line style="stroke:#181818;stroke-width:0.5;" x1="4905.5" x2="5196.5713" y1="190.5" y2="190.5"/></g><!--class comp_arc_sta__baselibs__concurrency--><g id="elem_comp_arc_sta__baselibs__concurrency"><rect fill="#F1F1F1" height="40" id="comp_arc_sta__baselibs__concurrency" rx="2.5" ry="2.5" style="stroke:#181818;stroke-width:0.5;" width="300.2012" x="3090" y="275.5"/><ellipse cx="3105" cy="291.5" fill="#ADD1B2" rx="11" ry="11" style="stroke:#181818;stroke-width:1;"/><path d="M3107.9688,297.1406 Q3107.3906,297.4375 3106.75,297.5781 Q3106.1094,297.7344 3105.4063,297.7344 Q3102.9063,297.7344 3101.5781,296.0938 Q3100.2656,294.4375 3100.2656,291.3125 Q3100.2656,288.1875 3101.5781,286.5313 Q3102.9063,284.875 3105.4063,284.875 Q3106.1094,284.875 3106.75,285.0313 Q3107.4063,285.1875 3107.9688,285.4844 L3107.9688,288.2031 Q3107.3438,287.625 3106.75,287.3594 Q3106.1563,287.0781 3105.5313,287.0781 Q3104.1875,287.0781 3103.5,288.1563 Q3102.8125,289.2188 3102.8125,291.3125 Q3102.8125,293.4063 3103.5,294.4844 Q3104.1875,295.5469 3105.5313,295.5469 Q3106.1563,295.5469 3106.75,295.2813 Q3107.3438,295 3107.9688,294.4219 L3107.9688,297.1406 Z " fill="#000000"/><text fill="#000000" font-family="sans-serif" font-size="14" lengthAdjust="spacing" textLength="268.2012" x="3119" y="296.3467">comp_arc_sta__baselibs__concurrency</text><line style="stroke:#181818;stroke-width:0.5;" x1="3091" x2="3389.2012" y1="307.5" y2="307.5"/></g><!--class logic_arc_int__baselibs__condition_variable--><g id="elem_logic_arc_int__baselibs__condition_variable"><rect fill="#F1F1F1" height="40" id="logic_arc_int__baselibs__condition_variable" rx="2.5" ry="2.5" style="stroke:#181818;stroke-width:0.5;" width="332.7539" x="2312.5" y="158.5"/><ellipse cx="2327.5" cy="174.5" fill="#ADD1B2" rx="11" ry="11" style="stroke:#181818;stroke-width:1;"/><path d="M2330.4688,180.1406 Q2329.8906,180.4375 2329.25,180.5781 Q2328.6094,180.7344 2327.9063,180.7344 Q2325.4063,180.7344 2324.0781,179.0938 Q2322.7656,177.4375 2322.7656,174.3125 Q2322.7656,171.1875 2324.0781,169.5313 Q2325.4063,167.875 2327.9063,167.875 Q2328.6094,167.875 2329.25,168.0313 Q2329.9063,168.1875 2330.4688,168.4844 L2330.4688,171.2031 Q2329.8438,170.625 2329.25,170.3594 Q2328.6563,170.0781 2328.0313,170.0781 Q2326.6875,170.0781 2326,171.1563 Q2325.3125,172.2188 2325.3125,174.3125 Q2325.3125,176.4063 2326,177.4844 Q2326.6875,178.5469 2328.0313,178.5469 Q2328.6563,178.5469 2329.25,178.2813 Q2329.8438,178 2330.4688,177.4219 L2330.4688,180.1406 Z " fill="#000000"/><text fill="#000000" font-family="sans-serif" font-size="14" lengthAdjust="spacing" textLength="300.7539" x="2341.5" y="179.3467">logic_arc_int__baselibs__condition_variable</text><line style="stroke:#181818;stroke-width:0.5;" x1="2313.5" x2="2644.2539" y1="190.5" y2="190.5"/></g><!--class logic_arc_int__baselibs__task_result--><g id="elem_logic_arc_int__baselibs__task_result"><rect fill="#F1F1F1" height="40" id="logic_arc_int__baselibs__task_result" rx="2.5" ry="2.5" style="stroke:#181818;stroke-width:0.5;" width="280.9307" x="1996.5" y="158.5"/><ellipse cx="2011.5" cy="174.5" fill="#ADD1B2" rx="11" ry="11" style="stroke:#181818;stroke-width:1;"/><path d="M2014.4688,180.1406 Q2013.8906,180.4375 2013.25,180.5781 Q2012.6094,180.7344 2011.9063,180.7344 Q2009.4063,180.7344 2008.0781,179.0938 Q2006.7656,177.4375 2006.7656,174.3125 Q2006.7656,171.1875 2008.0781,169.5313 Q2009.4063,167.875 2011.9063,167.875 Q2012.6094,167.875 2013.25,168.0313 Q2013.9063,168.1875 2014.4688,168.4844 L2014.4688,171.2031 Q2013.8438,170.625 2013.25,170.3594 Q2012.6563,170.0781 2012.0313,170.0781 Q2010.6875,170.0781 2010,171.1563 Q2009.3125,172.2188 2009.3125,174.3125 Q2009.3125,176.4063 2010,177.4844 Q2010.6875,178.5469 2012.0313,178.5469 Q2012.6563,178.5469 2013.25,178.2813 Q2013.8438,178 2014.4688,177.4219 L2014.4688,180.1406 Z " fill="#000000"/><text fill="#000000" font-family="sans-serif" font-size="14" lengthAdjust="spacing" textLength="248.9307" x="2025.5" y="179.3467">logic_arc_int__baselibs__task_result</text><line style="stroke:#181818;stroke-width:0.5;" x1="1997.5" x2="2276.4307" y1="190.5" y2="190.5"/></g><!--class logic_arc_int__baselibs__memory_shared--><g id="elem_logic_arc_int__baselibs__memory_shared"><rect fill="#F1F1F1" height="40" id="logic_arc_int__baselibs__memory_shared" rx="2.5" ry="2.5" style="stroke:#181818;stroke-width:0.5;" width="318.043" x="4551" y="158.5"/><ellipse cx="4566" cy="174.5" fill="#ADD1B2" rx="11" ry="11" style="stroke:#181818;stroke-width:1;"/><path d="M4568.9688,180.1406 Q4568.3906,180.4375 4567.75,180.5781 Q4567.1094,180.7344 4566.4063,180.7344 Q4563.9063,180.7344 4562.5781,179.0938 Q4561.2656,177.4375 4561.2656,174.3125 Q4561.2656,171.1875 4562.5781,169.5313 Q4563.9063,167.875 4566.4063,167.875 Q4567.1094,167.875 4567.75,168.0313 Q4568.4063,168.1875 4568.9688,168.4844 L4568.9688,171.2031 Q4568.3438,170.625 4567.75,170.3594 Q4567.1563,170.0781 4566.5313,170.0781 Q4565.1875,170.0781 4564.5,171.1563 Q4563.8125,172.2188 4563.8125,174.3125 Q4563.8125,176.4063 4564.5,177.4844 Q4565.1875,178.5469 4566.5313,178.5469 Q4567.1563,178.5469 4567.75,178.2813 Q4568.3438,178 4568.9688,177.4219 L4568.9688,180.1406 Z " fill="#000000"/><text fill="#000000" font-family="sans-serif" font-size="14" lengthAdjust="spacing" textLength="286.043" x="4580" y="179.3467">logic_arc_int__baselibs__memory_shared</text><line style="stroke:#181818;stroke-width:0.5;" x1="4552" x2="4868.043" y1="190.5" y2="190.5"/></g><!--class logic_arc_int__baselibs__synchronized_queue--><g id="elem_logic_arc_int__baselibs__synchronized_queue"><rect fill="#F1F1F1" height="40" id="logic_arc_int__baselibs__synchronized_queue" rx="2.5" ry="2.5" style="stroke:#181818;stroke-width:0.5;" width="348.3604" x="3602" y="158.5"/><ellipse cx="3617" cy="174.5" fill="#ADD1B2" rx="11" ry="11" style="stroke:#181818;stroke-width:1;"/><path d="M3619.9688,180.1406 Q3619.3906,180.4375 3618.75,180.5781 Q3618.1094,180.7344 3617.4063,180.7344 Q3614.9063,180.7344 3613.5781,179.0938 Q3612.2656,177.4375 3612.2656,174.3125 Q3612.2656,171.1875 3613.5781,169.5313 Q3614.9063,167.875 3617.4063,167.875 Q3618.1094,167.875 3618.75,168.0313 Q3619.4063,168.1875 3619.9688,168.4844 L3619.9688,171.2031 Q3619.3438,170.625 3618.75,170.3594 Q3618.1563,170.0781 3617.5313,170.0781 Q3616.1875,170.0781 3615.5,171.1563 Q3614.8125,172.2188 3614.8125,174.3125 Q3614.8125,176.4063 3615.5,177.4844 Q3616.1875,178.5469 3617.5313,178.5469 Q3618.1563,178.5469 3618.75,178.2813 Q3619.3438,178 3619.9688,177.4219 L3619.9688,180.1406 Z " fill="#000000"/><text fill="#000000" font-family="sans-serif" font-size="14" lengthAdjust="spacing" textLength="316.3604" x="3631" y="179.3467">logic_arc_int__baselibs__synchronized_queue</text><line style="stroke:#181818;stroke-width:0.5;" x1="3603" x2="3949.3604" y1="190.5" y2="190.5"/></g><!--class comp_arc_sta__baselibs__result--><g id="elem_comp_arc_sta__baselibs__result"><rect fill="#F1F1F1" height="40" id="comp_arc_sta__baselibs__result" rx="2.5" ry="2.5" style="stroke:#181818;stroke-width:0.5;" width="253.4297" x="5939.5" y="275.5"/><ellipse cx="5954.5" cy="291.5" fill="#ADD1B2" rx="11" ry="11" style="stroke:#181818;stroke-width:1;"/><path d="M5957.4688,297.1406 Q5956.8906,297.4375 5956.25,297.5781 Q5955.6094,297.7344 5954.9063,297.7344 Q5952.4063,297.7344 5951.0781,296.0938 Q5949.7656,294.4375 5949.7656,291.3125 Q5949.7656,288.1875 5951.0781,286.5313 Q5952.4063,284.875 5954.9063,284.875 Q5955.6094,284.875 5956.25,285.0313 Q5956.9063,285.1875 5957.4688,285.4844 L5957.4688,288.2031 Q5956.8438,287.625 5956.25,287.3594 Q5955.6563,287.0781 5955.0313,287.0781 Q5953.6875,287.0781 5953,288.1563 Q5952.3125,289.2188 5952.3125,291.3125 Q5952.3125,293.4063 5953,294.4844 Q5953.6875,295.5469 5955.0313,295.5469 Q5955.6563,295.5469 5956.25,295.2813 Q5956.8438,295 5957.4688,294.4219 L5957.4688,297.1406 Z " fill="#000000"/><text fill="#000000" font-family="sans-serif" font-size="14" lengthAdjust="spacing" textLength="221.4297" x="5968.5" y="296.3467">comp_arc_sta__baselibs__result</text><line style="stroke:#181818;stroke-width:0.5;" x1="5940.5" x2="6191.9297" y1="307.5" y2="307.5"/></g><!--class logic_arc_int__baselibs__result--><g id="elem_logic_arc_int__baselibs__result"><rect fill="#F1F1F1" height="40" id="logic_arc_int__baselibs__result" rx="2.5" ry="2.5" style="stroke:#181818;stroke-width:0.5;" width="244.4609" x="5940" y="158.5"/><ellipse cx="5955" cy="174.5" fill="#ADD1B2" rx="11" ry="11" style="stroke:#181818;stroke-width:1;"/><path d="M5957.9688,180.1406 Q5957.3906,180.4375 5956.75,180.5781 Q5956.1094,180.7344 5955.4063,180.7344 Q5952.9063,180.7344 5951.5781,179.0938 Q5950.2656,177.4375 5950.2656,174.3125 Q5950.2656,171.1875 5951.5781,169.5313 Q5952.9063,167.875 5955.4063,167.875 Q5956.1094,167.875 5956.75,168.0313 Q5957.4063,168.1875 5957.9688,168.4844 L5957.9688,171.2031 Q5957.3438,170.625 5956.75,170.3594 Q5956.1563,170.0781 5955.5313,170.0781 Q5954.1875,170.0781 5953.5,171.1563 Q5952.8125,172.2188 5952.8125,174.3125 Q5952.8125,176.4063 5953.5,177.4844 Q5954.1875,178.5469 5955.5313,178.5469 Q5956.1563,178.5469 5956.75,178.2813 Q5957.3438,178 5957.9688,177.4219 L5957.9688,180.1406 Z " fill="#000000"/><text fill="#000000" font-family="sans-serif" font-size="14" lengthAdjust="spacing" textLength="212.4609" x="5969" y="179.3467">logic_arc_int__baselibs__result</text><line style="stroke:#181818;stroke-width:0.5;" x1="5941" x2="6183.4609" y1="190.5" y2="190.5"/></g><!--class comp_arc_sta__baselibs__containers--><g id="elem_comp_arc_sta__baselibs__containers"><rect fill="#F1F1F1" height="40" id="comp_arc_sta__baselibs__containers" rx="2.5" ry="2.5" style="stroke:#181818;stroke-width:0.5;" width="287.1445" x="5079.5" y="275.5"/><ellipse cx="5094.5" cy="291.5" fill="#ADD1B2" rx="11" ry="11" style="stroke:#181818;stroke-width:1;"/><path d="M5097.4688,297.1406 Q5096.8906,297.4375 5096.25,297.5781 Q5095.6094,297.7344 5094.9063,297.7344 Q5092.4063,297.7344 5091.0781,296.0938 Q5089.7656,294.4375 5089.7656,291.3125 Q5089.7656,288.1875 5091.0781,286.5313 Q5092.4063,284.875 5094.9063,284.875 Q5095.6094,284.875 5096.25,285.0313 Q5096.9063,285.1875 5097.4688,285.4844 L5097.4688,288.2031 Q5096.8438,287.625 5096.25,287.3594 Q5095.6563,287.0781 5095.0313,287.0781 Q5093.6875,287.0781 5093,288.1563 Q5092.3125,289.2188 5092.3125,291.3125 Q5092.3125,293.4063 5093,294.4844 Q5093.6875,295.5469 5095.0313,295.5469 Q5095.6563,295.5469 5096.25,295.2813 Q5096.8438,295 5097.4688,294.4219 L5097.4688,297.1406 Z " fill="#000000"/><text fill="#000000" font-family="sans-serif" font-size="14" lengthAdjust="spacing" textLength="255.1445" x="5108.5" y="296.3467">comp_arc_sta__baselibs__containers</text><line style="stroke:#181818;stroke-width:0.5;" x1="5080.5" x2="5365.6445" y1="307.5" y2="307.5"/></g><!--class logic_arc_int__baselibs__dynamic_array--><g id="elem_logic_arc_int__baselibs__dynamic_array"><rect fill="#F1F1F1" height="40" id="logic_arc_int__baselibs__dynamic_array" rx="2.5" ry="2.5" style="stroke:#181818;stroke-width:0.5;" width="308.3496" x="5233" y="158.5"/><ellipse cx="5248" cy="174.5" fill="#ADD1B2" rx="11" ry="11" style="stroke:#181818;stroke-width:1;"/><path d="M5250.9688,180.1406 Q5250.3906,180.4375 5249.75,180.5781 Q5249.1094,180.7344 5248.4063,180.7344 Q5245.9063,180.7344 5244.5781,179.0938 Q5243.2656,177.4375 5243.2656,174.3125 Q5243.2656,171.1875 5244.5781,169.5313 Q5245.9063,167.875 5248.4063,167.875 Q5249.1094,167.875 5249.75,168.0313 Q5250.4063,168.1875 5250.9688,168.4844 L5250.9688,171.2031 Q5250.3438,170.625 5249.75,170.3594 Q5249.1563,170.0781 5248.5313,170.0781 Q5247.1875,170.0781 5246.5,171.1563 Q5245.8125,172.2188 5245.8125,174.3125 Q5245.8125,176.4063 5246.5,177.4844 Q5247.1875,178.5469 5248.5313,178.5469 Q5249.1563,178.5469 5249.75,178.2813 Q5250.3438,178 5250.9688,177.4219 L5250.9688,180.1406 Z " fill="#000000"/><text fill="#000000" font-family="sans-serif" font-size="14" lengthAdjust="spacing" textLength="276.3496" x="5262" y="179.3467">logic_arc_int__baselibs__dynamic_array</text><line style="stroke:#181818;stroke-width:0.5;" x1="5234" x2="5540.3496" y1="190.5" y2="190.5"/></g><!--class logic_arc_int__baselibs__json--><g id="elem_logic_arc_int__baselibs__json"><rect fill="#F1F1F1" height="40" id="logic_arc_int__baselibs__json" rx="2.5" ry="2.5" style="stroke:#181818;stroke-width:0.5;" width="233.168" x="11.5" y="158.5"/><ellipse cx="26.5" cy="174.5" fill="#ADD1B2" rx="11" ry="11" style="stroke:#181818;stroke-width:1;"/><path d="M29.4688,180.1406 Q28.8906,180.4375 28.25,180.5781 Q27.6094,180.7344 26.9063,180.7344 Q24.4063,180.7344 23.0781,179.0938 Q21.7656,177.4375 21.7656,174.3125 Q21.7656,171.1875 23.0781,169.5313 Q24.4063,167.875 26.9063,167.875 Q27.6094,167.875 28.25,168.0313 Q28.9063,168.1875 29.4688,168.4844 L29.4688,171.2031 Q28.8438,170.625 28.25,170.3594 Q27.6563,170.0781 27.0313,170.0781 Q25.6875,170.0781 25,171.1563 Q24.3125,172.2188 24.3125,174.3125 Q24.3125,176.4063 25,177.4844 Q25.6875,178.5469 27.0313,178.5469 Q27.6563,178.5469 28.25,178.2813 Q28.8438,178 29.4688,177.4219 L29.4688,180.1406 Z " fill="#000000"/><text fill="#000000" font-family="sans-serif" font-size="14" lengthAdjust="spacing" textLength="201.168" x="40.5" y="179.3467">logic_arc_int__baselibs__json</text><line style="stroke:#181818;stroke-width:0.5;" x1="12.5" x2="243.668" y1="190.5" y2="190.5"/></g><!--class comp_arc_sta__baselibs__message_passing--><g id="elem_comp_arc_sta__baselibs__message_passing"><rect fill="#F1F1F1" height="40" id="comp_arc_sta__baselibs__message_passing" rx="2.5" ry="2.5" style="stroke:#181818;stroke-width:0.5;" width="337.1357" x="5567.5" y="275.5"/><ellipse cx="5582.5" cy="291.5" fill="#ADD1B2" rx="11" ry="11" style="stroke:#181818;stroke-width:1;"/><path d="M5585.4688,297.1406 Q5584.8906,297.4375 5584.25,297.5781 Q5583.6094,297.7344 5582.9063,297.7344 Q5580.4063,297.7344 5579.0781,296.0938 Q5577.7656,294.4375 5577.7656,291.3125 Q5577.7656,288.1875 5579.0781,286.5313 Q5580.4063,284.875 5582.9063,284.875 Q5583.6094,284.875 5584.25,285.0313 Q5584.9063,285.1875 5585.4688,285.4844 L5585.4688,288.2031 Q5584.8438,287.625 5584.25,287.3594 Q5583.6563,287.0781 5583.0313,287.0781 Q5581.6875,287.0781 5581,288.1563 Q5580.3125,289.2188 5580.3125,291.3125 Q5580.3125,293.4063 5581,294.4844 Q5581.6875,295.5469 5583.0313,295.5469 Q5583.6563,295.5469 5584.25,295.2813 Q5584.8438,295 5585.4688,294.4219 L5585.4688,297.1406 Z " fill="#000000"/><text fill="#000000" font-family="sans-serif" font-size="14" lengthAdjust="spacing" textLength="305.1357" x="5596.5" y="296.3467">comp_arc_sta__baselibs__message_passing</text><line style="stroke:#181818;stroke-width:0.5;" x1="5568.5" x2="5903.6357" y1="307.5" y2="307.5"/></g><!--class logic_arc_int__baselibs__message_passing--><g id="elem_logic_arc_int__baselibs__message_passing"><rect fill="#F1F1F1" height="40" id="logic_arc_int__baselibs__message_passing" rx="2.5" ry="2.5" style="stroke:#181818;stroke-width:0.5;" width="328.167" x="5576" y="158.5"/><ellipse cx="5591" cy="174.5" fill="#ADD1B2" rx="11" ry="11" style="stroke:#181818;stroke-width:1;"/><path d="M5593.9688,180.1406 Q5593.3906,180.4375 5592.75,180.5781 Q5592.1094,180.7344 5591.4063,180.7344 Q5588.9063,180.7344 5587.5781,179.0938 Q5586.2656,177.4375 5586.2656,174.3125 Q5586.2656,171.1875 5587.5781,169.5313 Q5588.9063,167.875 5591.4063,167.875 Q5592.1094,167.875 5592.75,168.0313 Q5593.4063,168.1875 5593.9688,168.4844 L5593.9688,171.2031 Q5593.3438,170.625 5592.75,170.3594 Q5592.1563,170.0781 5591.5313,170.0781 Q5590.1875,170.0781 5589.5,171.1563 Q5588.8125,172.2188 5588.8125,174.3125 Q5588.8125,176.4063 5589.5,177.4844 Q5590.1875,178.5469 5591.5313,178.5469 Q5592.1563,178.5469 5592.75,178.2813 Q5593.3438,178 5593.9688,177.4219 L5593.9688,180.1406 Z " fill="#000000"/><text fill="#000000" font-family="sans-serif" font-size="14" lengthAdjust="spacing" textLength="296.167" x="5605" y="179.3467">logic_arc_int__baselibs__message_passing</text><line style="stroke:#181818;stroke-width:0.5;" x1="5577" x2="5903.167" y1="190.5" y2="190.5"/></g><!--class logic_arc_int__baselibs__shared_future--><g id="elem_logic_arc_int__baselibs__shared_future"><rect fill="#F1F1F1" height="40" id="logic_arc_int__baselibs__shared_future" rx="2.5" ry="2.5" style="stroke:#181818;stroke-width:0.5;" width="302.0811" x="2982" y="158.5"/><ellipse cx="2997" cy="174.5" fill="#ADD1B2" rx="11" ry="11" style="stroke:#181818;stroke-width:1;"/><path d="M2999.9688,180.1406 Q2999.3906,180.4375 2998.75,180.5781 Q2998.1094,180.7344 2997.4063,180.7344 Q2994.9063,180.7344 2993.5781,179.0938 Q2992.2656,177.4375 2992.2656,174.3125 Q2992.2656,171.1875 2993.5781,169.5313 Q2994.9063,167.875 2997.4063,167.875 Q2998.1094,167.875 2998.75,168.0313 Q2999.4063,168.1875 2999.9688,168.4844 L2999.9688,171.2031 Q2999.3438,170.625 2998.75,170.3594 Q2998.1563,170.0781 2997.5313,170.0781 Q2996.1875,170.0781 2995.5,171.1563 Q2994.8125,172.2188 2994.8125,174.3125 Q2994.8125,176.4063 2995.5,177.4844 Q2996.1875,178.5469 2997.5313,178.5469 Q2998.1563,178.5469 2998.75,178.2813 Q2999.3438,178 2999.9688,177.4219 L2999.9688,180.1406 Z " fill="#000000"/><text fill="#000000" font-family="sans-serif" font-size="14" lengthAdjust="spacing" textLength="270.0811" x="3011" y="179.3467">logic_arc_int__baselibs__shared_future</text><line style="stroke:#181818;stroke-width:0.5;" x1="2983" x2="3283.0811" y1="190.5" y2="190.5"/></g><!--class comp_arc_sta__baselibs__utils--><g id="elem_comp_arc_sta__baselibs__utils"><rect fill="#F1F1F1" height="40" id="comp_arc_sta__baselibs__utils" rx="2.5" ry="2.5" style="stroke:#181818;stroke-width:0.5;" width="242.9502" x="1158.5" y="275.5"/><ellipse cx="1173.5" cy="291.5" fill="#ADD1B2" rx="11" ry="11" style="stroke:#181818;stroke-width:1;"/><path d="M1176.4688,297.1406 Q1175.8906,297.4375 1175.25,297.5781 Q1174.6094,297.7344 1173.9063,297.7344 Q1171.4063,297.7344 1170.0781,296.0938 Q1168.7656,294.4375 1168.7656,291.3125 Q1168.7656,288.1875 1170.0781,286.5313 Q1171.4063,284.875 1173.9063,284.875 Q1174.6094,284.875 1175.25,285.0313 Q1175.9063,285.1875 1176.4688,285.4844 L1176.4688,288.2031 Q1175.8438,287.625 1175.25,287.3594 Q1174.6563,287.0781 1174.0313,287.0781 Q1172.6875,287.0781 1172,288.1563 Q1171.3125,289.2188 1171.3125,291.3125 Q1171.3125,293.4063 1172,294.4844 Q1172.6875,295.5469 1174.0313,295.5469 Q1174.6563,295.5469 1175.25,295.2813 Q1175.8438,295 1176.4688,294.4219 L1176.4688,297.1406 Z " fill="#000000"/><text fill="#000000" font-family="sans-serif" font-size="14" lengthAdjust="spacing" textLength="210.9502" x="1187.5" y="296.3467">comp_arc_sta__baselibs__utils</text><line style="stroke:#181818;stroke-width:0.5;" x1="1159.5" x2="1400.4502" y1="307.5" y2="307.5"/></g><!--class logic_arc_int__baselibs__utils_base64--><g id="elem_logic_arc_int__baselibs__utils_base64"><rect fill="#F1F1F1" height="40" id="logic_arc_int__baselibs__utils_base64" rx="2.5" ry="2.5" style="stroke:#181818;stroke-width:0.5;" width="292.1689" x="1358" y="158.5"/><ellipse cx="1373" cy="174.5" fill="#ADD1B2" rx="11" ry="11" style="stroke:#181818;stroke-width:1;"/><path d="M1375.9688,180.1406 Q1375.3906,180.4375 1374.75,180.5781 Q1374.1094,180.7344 1373.4063,180.7344 Q1370.9063,180.7344 1369.5781,179.0938 Q1368.2656,177.4375 1368.2656,174.3125 Q1368.2656,171.1875 1369.5781,169.5313 Q1370.9063,167.875 1373.4063,167.875 Q1374.1094,167.875 1374.75,168.0313 Q1375.4063,168.1875 1375.9688,168.4844 L1375.9688,171.2031 Q1375.3438,170.625 1374.75,170.3594 Q1374.1563,170.0781 1373.5313,170.0781 Q1372.1875,170.0781 1371.5,171.1563 Q1370.8125,172.2188 1370.8125,174.3125 Q1370.8125,176.4063 1371.5,177.4844 Q1372.1875,178.5469 1373.5313,178.5469 Q1374.1563,178.5469 1374.75,178.2813 Q1375.3438,178 1375.9688,177.4219 L1375.9688,180.1406 Z " fill="#000000"/><text fill="#000000" font-family="sans-serif" font-size="14" lengthAdjust="spacing" textLength="260.1689" x="1387" y="179.3467">logic_arc_int__baselibs__utils_base64</text><line style="stroke:#181818;stroke-width:0.5;" x1="1359" x2="1649.1689" y1="190.5" y2="190.5"/></g><!--class comp_arc_sta__baselibs__memory_shared--><g id="elem_comp_arc_sta__baselibs__memory_shared"><rect fill="#F1F1F1" height="40" id="comp_arc_sta__baselibs__memory_shared" rx="2.5" ry="2.5" style="stroke:#181818;stroke-width:0.5;" width="327.0117" x="4546.5" y="275.5"/><ellipse cx="4561.5" cy="291.5" fill="#ADD1B2" rx="11" ry="11" style="stroke:#181818;stroke-width:1;"/><path d="M4564.4688,297.1406 Q4563.8906,297.4375 4563.25,297.5781 Q4562.6094,297.7344 4561.9063,297.7344 Q4559.4063,297.7344 4558.0781,296.0938 Q4556.7656,294.4375 4556.7656,291.3125 Q4556.7656,288.1875 4558.0781,286.5313 Q4559.4063,284.875 4561.9063,284.875 Q4562.6094,284.875 4563.25,285.0313 Q4563.9063,285.1875 4564.4688,285.4844 L4564.4688,288.2031 Q4563.8438,287.625 4563.25,287.3594 Q4562.6563,287.0781 4562.0313,287.0781 Q4560.6875,287.0781 4560,288.1563 Q4559.3125,289.2188 4559.3125,291.3125 Q4559.3125,293.4063 4560,294.4844 Q4560.6875,295.5469 4562.0313,295.5469 Q4562.6563,295.5469 4563.25,295.2813 Q4563.8438,295 4564.4688,294.4219 L4564.4688,297.1406 Z " fill="#000000"/><text fill="#000000" font-family="sans-serif" font-size="14" lengthAdjust="spacing" textLength="295.0117" x="4575.5" y="296.3467">comp_arc_sta__baselibs__memory_shared</text><line style="stroke:#181818;stroke-width:0.5;" x1="4547.5" x2="4872.5117" y1="307.5" y2="307.5"/></g><!--class comp_arc_sta__baselibs__filesystem--><g id="elem_comp_arc_sta__baselibs__filesystem"><rect fill="#F1F1F1" height="40" id="comp_arc_sta__baselibs__filesystem" rx="2.5" ry="2.5" style="stroke:#181818;stroke-width:0.5;" width="285.4492" x="1680.5" y="275.5"/><ellipse cx="1695.5" cy="291.5" fill="#ADD1B2" rx="11" ry="11" style="stroke:#181818;stroke-width:1;"/><path d="M1698.4688,297.1406 Q1697.8906,297.4375 1697.25,297.5781 Q1696.6094,297.7344 1695.9063,297.7344 Q1693.4063,297.7344 1692.0781,296.0938 Q1690.7656,294.4375 1690.7656,291.3125 Q1690.7656,288.1875 1692.0781,286.5313 Q1693.4063,284.875 1695.9063,284.875 Q1696.6094,284.875 1697.25,285.0313 Q1697.9063,285.1875 1698.4688,285.4844 L1698.4688,288.2031 Q1697.8438,287.625 1697.25,287.3594 Q1696.6563,287.0781 1696.0313,287.0781 Q1694.6875,287.0781 1694,288.1563 Q1693.3125,289.2188 1693.3125,291.3125 Q1693.3125,293.4063 1694,294.4844 Q1694.6875,295.5469 1696.0313,295.5469 Q1696.6563,295.5469 1697.25,295.2813 Q1697.8438,295 1698.4688,294.4219 L1698.4688,297.1406 Z " fill="#000000"/><text fill="#000000" font-family="sans-serif" font-size="14" lengthAdjust="spacing" textLength="253.4492" x="1709.5" y="296.3467">comp_arc_sta__baselibs__filesystem</text><line style="stroke:#181818;stroke-width:0.5;" x1="1681.5" x2="1964.9492" y1="307.5" y2="307.5"/></g><!--class logic_arc_int__baselibs__filesystem--><g id="elem_logic_arc_int__baselibs__filesystem"><rect fill="#F1F1F1" height="40" id="logic_arc_int__baselibs__filesystem" rx="2.5" ry="2.5" style="stroke:#181818;stroke-width:0.5;" width="276.4805" x="1685" y="158.5"/><ellipse cx="1700" cy="174.5" fill="#ADD1B2" rx="11" ry="11" style="stroke:#181818;stroke-width:1;"/><path d="M1702.9688,180.1406 Q1702.3906,180.4375 1701.75,180.5781 Q1701.1094,180.7344 1700.4063,180.7344 Q1697.9063,180.7344 1696.5781,179.0938 Q1695.2656,177.4375 1695.2656,174.3125 Q1695.2656,171.1875 1696.5781,169.5313 Q1697.9063,167.875 1700.4063,167.875 Q1701.1094,167.875 1701.75,168.0313 Q1702.4063,168.1875 1702.9688,168.4844 L1702.9688,171.2031 Q1702.3438,170.625 1701.75,170.3594 Q1701.1563,170.0781 1700.5313,170.0781 Q1699.1875,170.0781 1698.5,171.1563 Q1697.8125,172.2188 1697.8125,174.3125 Q1697.8125,176.4063 1698.5,177.4844 Q1699.1875,178.5469 1700.5313,178.5469 Q1701.1563,178.5469 1701.75,178.2813 Q1702.3438,178 1702.9688,177.4219 L1702.9688,180.1406 Z " fill="#000000"/><text fill="#000000" font-family="sans-serif" font-size="14" lengthAdjust="spacing" textLength="244.4805" x="1714" y="179.3467">logic_arc_int__baselibs__filesystem</text><line style="stroke:#181818;stroke-width:0.5;" x1="1686" x2="1960.4805" y1="190.5" y2="190.5"/></g><!--class logic_arc_int__baselibs__bit_manipulation--><g id="elem_logic_arc_int__baselibs__bit_manipulation"><rect fill="#F1F1F1" height="40" id="logic_arc_int__baselibs__bit_manipulation" rx="2.5" ry="2.5" style="stroke:#181818;stroke-width:0.5;" width="321.8369" x="650" y="158.5"/><ellipse cx="665" cy="174.5" fill="#ADD1B2" rx="11" ry="11" style="stroke:#181818;stroke-width:1;"/><path d="M667.9688,180.1406 Q667.3906,180.4375 666.75,180.5781 Q666.1094,180.7344 665.4063,180.7344 Q662.9063,180.7344 661.5781,179.0938 Q660.2656,177.4375 660.2656,174.3125 Q660.2656,171.1875 661.5781,169.5313 Q662.9063,167.875 665.4063,167.875 Q666.1094,167.875 666.75,168.0313 Q667.4063,168.1875 667.9688,168.4844 L667.9688,171.2031 Q667.3438,170.625 666.75,170.3594 Q666.1563,170.0781 665.5313,170.0781 Q664.1875,170.0781 663.5,171.1563 Q662.8125,172.2188 662.8125,174.3125 Q662.8125,176.4063 663.5,177.4844 Q664.1875,178.5469 665.5313,178.5469 Q666.1563,178.5469 666.75,178.2813 Q667.3438,178 667.9688,177.4219 L667.9688,180.1406 Z " fill="#000000"/><text fill="#000000" font-family="sans-serif" font-size="14" lengthAdjust="spacing" textLength="289.8369" x="679" y="179.3467">logic_arc_int__baselibs__bit_manipulation</text><line style="stroke:#181818;stroke-width:0.5;" x1="651" x2="970.8369" y1="190.5" y2="190.5"/></g><!--class logic_arc_int__baselibs__executor--><g id="elem_logic_arc_int__baselibs__executor"><rect fill="#F1F1F1" height="40" id="logic_arc_int__baselibs__executor" rx="2.5" ry="2.5" style="stroke:#181818;stroke-width:0.5;" width="266.4385" x="2681" y="158.5"/><ellipse cx="2696" cy="174.5" fill="#ADD1B2" rx="11" ry="11" style="stroke:#181818;stroke-width:1;"/><path d="M2698.9688,180.1406 Q2698.3906,180.4375 2697.75,180.5781 Q2697.1094,180.7344 2696.4063,180.7344 Q2693.9063,180.7344 2692.5781,179.0938 Q2691.2656,177.4375 2691.2656,174.3125 Q2691.2656,171.1875 2692.5781,169.5313 Q2693.9063,167.875 2696.4063,167.875 Q2697.1094,167.875 2697.75,168.0313 Q2698.4063,168.1875 2698.9688,168.4844 L2698.9688,171.2031 Q2698.3438,170.625 2697.75,170.3594 Q2697.1563,170.0781 2696.5313,170.0781 Q2695.1875,170.0781 2694.5,171.1563 Q2693.8125,172.2188 2693.8125,174.3125 Q2693.8125,176.4063 2694.5,177.4844 Q2695.1875,178.5469 2696.5313,178.5469 Q2697.1563,178.5469 2697.75,178.2813 Q2698.3438,178 2698.9688,177.4219 L2698.9688,180.1406 Z " fill="#000000"/><text fill="#000000" font-family="sans-serif" font-size="14" lengthAdjust="spacing" textLength="234.4385" x="2710" y="179.3467">logic_arc_int__baselibs__executor</text><line style="stroke:#181818;stroke-width:0.5;" x1="2682" x2="2946.4385" y1="190.5" y2="190.5"/></g><!--class logic_arc_int__baselibs__utils_scoped_op--><g id="elem_logic_arc_int__baselibs__utils_scoped_op"><rect fill="#F1F1F1" height="40" id="logic_arc_int__baselibs__utils_scoped_op" rx="2.5" ry="2.5" style="stroke:#181818;stroke-width:0.5;" width="315.377" x="1007.5" y="158.5"/><ellipse cx="1022.5" cy="174.5" fill="#ADD1B2" rx="11" ry="11" style="stroke:#181818;stroke-width:1;"/><path d="M1025.4688,180.1406 Q1024.8906,180.4375 1024.25,180.5781 Q1023.6094,180.7344 1022.9063,180.7344 Q1020.4063,180.7344 1019.0781,179.0938 Q1017.7656,177.4375 1017.7656,174.3125 Q1017.7656,171.1875 1019.0781,169.5313 Q1020.4063,167.875 1022.9063,167.875 Q1023.6094,167.875 1024.25,168.0313 Q1024.9063,168.1875 1025.4688,168.4844 L1025.4688,171.2031 Q1024.8438,170.625 1024.25,170.3594 Q1023.6563,170.0781 1023.0313,170.0781 Q1021.6875,170.0781 1021,171.1563 Q1020.3125,172.2188 1020.3125,174.3125 Q1020.3125,176.4063 1021,177.4844 Q1021.6875,178.5469 1023.0313,178.5469 Q1023.6563,178.5469 1024.25,178.2813 Q1024.8438,178 1025.4688,177.4219 L1025.4688,180.1406 Z " fill="#000000"/><text fill="#000000" font-family="sans-serif" font-size="14" lengthAdjust="spacing" textLength="283.377" x="1036.5" y="179.3467">logic_arc_int__baselibs__utils_scoped_op</text><line style="stroke:#181818;stroke-width:0.5;" x1="1008.5" x2="1321.877" y1="190.5" y2="190.5"/></g><!--class logic_arc_int__baselibs__promise--><g id="elem_logic_arc_int__baselibs__promise"><rect fill="#F1F1F1" height="40" id="logic_arc_int__baselibs__promise" rx="2.5" ry="2.5" style="stroke:#181818;stroke-width:0.5;" width="261.1885" x="4254.5" y="158.5"/><ellipse cx="4269.5" cy="174.5" fill="#ADD1B2" rx="11" ry="11" style="stroke:#181818;stroke-width:1;"/><path d="M4272.4688,180.1406 Q4271.8906,180.4375 4271.25,180.5781 Q4270.6094,180.7344 4269.9063,180.7344 Q4267.4063,180.7344 4266.0781,179.0938 Q4264.7656,177.4375 4264.7656,174.3125 Q4264.7656,171.1875 4266.0781,169.5313 Q4267.4063,167.875 4269.9063,167.875 Q4270.6094,167.875 4271.25,168.0313 Q4271.9063,168.1875 4272.4688,168.4844 L4272.4688,171.2031 Q4271.8438,170.625 4271.25,170.3594 Q4270.6563,170.0781 4270.0313,170.0781 Q4268.6875,170.0781 4268,171.1563 Q4267.3125,172.2188 4267.3125,174.3125 Q4267.3125,176.4063 4268,177.4844 Q4268.6875,178.5469 4270.0313,178.5469 Q4270.6563,178.5469 4271.25,178.2813 Q4271.8438,178 4272.4688,177.4219 L4272.4688,180.1406 Z " fill="#000000"/><text fill="#000000" font-family="sans-serif" font-size="14" lengthAdjust="spacing" textLength="229.1885" x="4283.5" y="179.3467">logic_arc_int__baselibs__promise</text><line style="stroke:#181818;stroke-width:0.5;" x1="4255.5" x2="4514.6885" y1="190.5" y2="190.5"/></g><!--class logic_arc_int__baselibs__bit_mask_operator--><g id="elem_logic_arc_int__baselibs__bit_mask_operator"><rect fill="#F1F1F1" height="40" id="logic_arc_int__baselibs__bit_mask_operator" rx="2.5" ry="2.5" style="stroke:#181818;stroke-width:0.5;" width="334.6406" x="279.5" y="158.5"/><ellipse cx="294.5" cy="174.5" fill="#ADD1B2" rx="11" ry="11" style="stroke:#181818;stroke-width:1;"/><path d="M297.4688,180.1406 Q296.8906,180.4375 296.25,180.5781 Q295.6094,180.7344 294.9063,180.7344 Q292.4063,180.7344 291.0781,179.0938 Q289.7656,177.4375 289.7656,174.3125 Q289.7656,171.1875 291.0781,169.5313 Q292.4063,167.875 294.9063,167.875 Q295.6094,167.875 296.25,168.0313 Q296.9063,168.1875 297.4688,168.4844 L297.4688,171.2031 Q296.8438,170.625 296.25,170.3594 Q295.6563,170.0781 295.0313,170.0781 Q293.6875,170.0781 293,171.1563 Q292.3125,172.2188 292.3125,174.3125 Q292.3125,176.4063 293,177.4844 Q293.6875,178.5469 295.0313,178.5469 Q295.6563,178.5469 296.25,178.2813 Q296.8438,178 297.4688,177.4219 L297.4688,180.1406 Z " fill="#000000"/><text fill="#000000" font-family="sans-serif" font-size="14" lengthAdjust="spacing" textLength="302.6406" x="308.5" y="179.3467">logic_arc_int__baselibs__bit_mask_operator</text><line style="stroke:#181818;stroke-width:0.5;" x1="280.5" x2="613.1406" y1="190.5" y2="190.5"/></g><!--class logic_arc_int__baselibs__task--><g id="elem_logic_arc_int__baselibs__task"><rect fill="#F1F1F1" height="40" id="logic_arc_int__baselibs__task" rx="2.5" ry="2.5" style="stroke:#181818;stroke-width:0.5;" width="234.0156" x="3985" y="158.5"/><ellipse cx="4000" cy="174.5" fill="#ADD1B2" rx="11" ry="11" style="stroke:#181818;stroke-width:1;"/><path d="M4002.9688,180.1406 Q4002.3906,180.4375 4001.75,180.5781 Q4001.1094,180.7344 4000.4063,180.7344 Q3997.9063,180.7344 3996.5781,179.0938 Q3995.2656,177.4375 3995.2656,174.3125 Q3995.2656,171.1875 3996.5781,169.5313 Q3997.9063,167.875 4000.4063,167.875 Q4001.1094,167.875 4001.75,168.0313 Q4002.4063,168.1875 4002.9688,168.4844 L4002.9688,171.2031 Q4002.3438,170.625 4001.75,170.3594 Q4001.1563,170.0781 4000.5313,170.0781 Q3999.1875,170.0781 3998.5,171.1563 Q3997.8125,172.2188 3997.8125,174.3125 Q3997.8125,176.4063 3998.5,177.4844 Q3999.1875,178.5469 4000.5313,178.5469 Q4001.1563,178.5469 4001.75,178.2813 Q4002.3438,178 4002.9688,177.4219 L4002.9688,180.1406 Z " fill="#000000"/><text fill="#000000" font-family="sans-serif" font-size="14" lengthAdjust="spacing" textLength="202.0156" x="4014" y="179.3467">logic_arc_int__baselibs__task</text><line style="stroke:#181818;stroke-width:0.5;" x1="3986" x2="4218.0156" y1="190.5" y2="190.5"/></g><!--class logic_arc_int__baselibs__future--><g id="elem_logic_arc_int__baselibs__future"><rect fill="#F1F1F1" height="40" id="logic_arc_int__baselibs__future" rx="2.5" ry="2.5" style="stroke:#181818;stroke-width:0.5;" width="247.0791" x="3319.5" y="158.5"/><ellipse cx="3334.5" cy="174.5" fill="#ADD1B2" rx="11" ry="11" style="stroke:#181818;stroke-width:1;"/><path d="M3337.4688,180.1406 Q3336.8906,180.4375 3336.25,180.5781 Q3335.6094,180.7344 3334.9063,180.7344 Q3332.4063,180.7344 3331.0781,179.0938 Q3329.7656,177.4375 3329.7656,174.3125 Q3329.7656,171.1875 3331.0781,169.5313 Q3332.4063,167.875 3334.9063,167.875 Q3335.6094,167.875 3336.25,168.0313 Q3336.9063,168.1875 3337.4688,168.4844 L3337.4688,171.2031 Q3336.8438,170.625 3336.25,170.3594 Q3335.6563,170.0781 3335.0313,170.0781 Q3333.6875,170.0781 3333,171.1563 Q3332.3125,172.2188 3332.3125,174.3125 Q3332.3125,176.4063 3333,177.4844 Q3333.6875,178.5469 3335.0313,178.5469 Q3335.6563,178.5469 3336.25,178.2813 Q3336.8438,178 3337.4688,177.4219 L3337.4688,180.1406 Z " fill="#000000"/><text fill="#000000" font-family="sans-serif" font-size="14" lengthAdjust="spacing" textLength="215.0791" x="3348.5" y="179.3467">logic_arc_int__baselibs__future</text><line style="stroke:#181818;stroke-width:0.5;" x1="3320.5" x2="3565.5791" y1="190.5" y2="190.5"/></g><!--class comp_arc_sta__baselibs__bit_manipulation--><g id="elem_comp_arc_sta__baselibs__bit_manipulation"><rect fill="#F1F1F1" height="40" id="comp_arc_sta__baselibs__bit_manipulation" rx="2.5" ry="2.5" style="stroke:#181818;stroke-width:0.5;" width="330.8057" x="375.5" y="275.5"/><ellipse cx="390.5" cy="291.5" fill="#ADD1B2" rx="11" ry="11" style="stroke:#181818;stroke-width:1;"/><path d="M393.4688,297.1406 Q392.8906,297.4375 392.25,297.5781 Q391.6094,297.7344 390.9063,297.7344 Q388.4063,297.7344 387.0781,296.0938 Q385.7656,294.4375 385.7656,291.3125 Q385.7656,288.1875 387.0781,286.5313 Q388.4063,284.875 390.9063,284.875 Q391.6094,284.875 392.25,285.0313 Q392.9063,285.1875 393.4688,285.4844 L393.4688,288.2031 Q392.8438,287.625 392.25,287.3594 Q391.6563,287.0781 391.0313,287.0781 Q389.6875,287.0781 389,288.1563 Q388.3125,289.2188 388.3125,291.3125 Q388.3125,293.4063 389,294.4844 Q389.6875,295.5469 391.0313,295.5469 Q391.6563,295.5469 392.25,295.2813 Q392.8438,295 393.4688,294.4219 L393.4688,297.1406 Z " fill="#000000"/><text fill="#000000" font-family="sans-serif" font-size="14" lengthAdjust="spacing" textLength="298.8057" x="404.5" y="296.3467">comp_arc_sta__baselibs__bit_manipulation</text><line style="stroke:#181818;stroke-width:0.5;" x1="376.5" x2="705.3057" y1="307.5" y2="307.5"/></g><!--class comp_arc_sta__baselibs__json--><g id="elem_comp_arc_sta__baselibs__json"><rect fill="#F1F1F1" height="40" id="comp_arc_sta__baselibs__json" rx="2.5" ry="2.5" style="stroke:#181818;stroke-width:0.5;" width="242.1367" x="7" y="275.5"/><ellipse cx="22" cy="291.5" fill="#ADD1B2" rx="11" ry="11" style="stroke:#181818;stroke-width:1;"/><path d="M24.9688,297.1406 Q24.3906,297.4375 23.75,297.5781 Q23.1094,297.7344 22.4063,297.7344 Q19.9063,297.7344 18.5781,296.0938 Q17.2656,294.4375 17.2656,291.3125 Q17.2656,288.1875 18.5781,286.5313 Q19.9063,284.875 22.4063,284.875 Q23.1094,284.875 23.75,285.0313 Q24.4063,285.1875 24.9688,285.4844 L24.9688,288.2031 Q24.3438,287.625 23.75,287.3594 Q23.1563,287.0781 22.5313,287.0781 Q21.1875,287.0781 20.5,288.1563 Q19.8125,289.2188 19.8125,291.3125 Q19.8125,293.4063 20.5,294.4844 Q21.1875,295.5469 22.5313,295.5469 Q23.1563,295.5469 23.75,295.2813 Q24.3438,295 24.9688,294.4219 L24.9688,297.1406 Z " fill="#000000"/><text fill="#000000" font-family="sans-serif" font-size="14" lengthAdjust="spacing" textLength="210.1367" x="36" y="296.3467">comp_arc_sta__baselibs__json</text><line style="stroke:#181818;stroke-width:0.5;" x1="8" x2="248.1367" y1="307.5" y2="307.5"/></g><!--link Feature_User to logic_arc_int__baselibs__intrusive_list--><g id="link_Feature_User_logic_arc_int__baselibs__intrusive_list"><path codeLine="14" d="M3178.11,46.51 C3378.44,55.65 4207.66,95.5 4886,158.5 C4892.03,159.06 4892.2097,159.0639 4898.4197,159.6839 " fill="transparent" id="Feature_User-to-logic_arc_int__baselibs__intrusive_list" style="stroke:#181818;stroke-width:1;"/><polygon fill="#181818" points="4904.39,160.28,4895.8319,155.4057,4899.4147,159.7833,4895.0371,163.3661,4904.39,160.28" style="stroke:#181818;stroke-width:1;"/><text fill="#000000" font-family="sans-serif" font-size="13" lengthAdjust="spacing" textLength="23.0103" x="4504" y="124.5669">use</text></g><!--reverse link logic_arc_int__baselibs__condition_variable to comp_arc_sta__baselibs__concurrency--><g id="link_logic_arc_int__baselibs__condition_variable_comp_arc_sta__baselibs__concurrency"><path codeLine="16" d="M2611.0226,199.4468 C2752.0026,220.7568 2973.03,254.16 3113.98,275.46 " fill="transparent" id="logic_arc_int__baselibs__condition_variable-backto-comp_arc_sta__baselibs__concurrency" style="stroke:#181818;stroke-width:1;"/><polygon fill="#181818" points="2605.09,198.55,2613.3911,203.8502,2610.0338,199.2973,2614.5867,195.9401,2605.09,198.55" style="stroke:#181818;stroke-width:1;"/><text fill="#000000" font-family="sans-serif" font-size="13" lengthAdjust="spacing" textLength="76.9082" x="2907" y="241.5669">implements</text></g><!--reverse link logic_arc_int__baselibs__task_result to comp_arc_sta__baselibs__concurrency--><g id="link_logic_arc_int__baselibs__task_result_comp_arc_sta__baselibs__concurrency"><path codeLine="17" d="M2283.8002,197.2097 C2289.5902,197.8797 2289.37,197.86 2295,198.5 C2487.32,220.5 2535.43,225.83 2728,245.5 C2849.7,257.93 2987.78,271.09 3089.85,280.64 " fill="transparent" id="logic_arc_int__baselibs__task_result-backto-comp_arc_sta__baselibs__concurrency" style="stroke:#181818;stroke-width:1;"/><polygon fill="#181818" points="2277.84,196.52,2286.3205,201.528,2282.8069,197.0947,2287.2401,193.5811,2277.84,196.52" style="stroke:#181818;stroke-width:1;"/><text fill="#000000" font-family="sans-serif" font-size="13" lengthAdjust="spacing" textLength="76.9082" x="2729" y="241.5669">implements</text></g><!--link Feature_User to logic_arc_int__baselibs__memory_shared--><g id="link_Feature_User_logic_arc_int__baselibs__memory_shared"><path codeLine="18" d="M3178.07,47.64 C3352.58,59.93 4000.56,106.58 4533,158.5 C4538.84,159.07 4538.8297,159.064 4544.8397,159.664 " fill="transparent" id="Feature_User-to-logic_arc_int__baselibs__memory_shared" style="stroke:#181818;stroke-width:1;"/><polygon fill="#181818" points="4550.81,160.26,4542.2519,155.3857,4545.8347,159.7633,4541.4572,163.3462,4550.81,160.26" style="stroke:#181818;stroke-width:1;"/><text fill="#000000" font-family="sans-serif" font-size="13" lengthAdjust="spacing" textLength="23.0103" x="4189" y="124.5669">use</text></g><!--link Feature_User to logic_arc_int__baselibs__synchronized_queue--><g id="link_Feature_User_logic_arc_int__baselibs__synchronized_queue"><path codeLine="19" d="M3178.21,53.85 C3282.98,75.52 3538.1843,128.3148 3678.1143,157.2548 " fill="transparent" id="Feature_User-to-logic_arc_int__baselibs__synchronized_queue" style="stroke:#181818;stroke-width:1;"/><polygon fill="#181818" points="3683.99,158.47,3675.9866,152.7301,3679.0936,157.4573,3674.3664,160.5643,3683.99,158.47" style="stroke:#181818;stroke-width:1;"/><text fill="#000000" font-family="sans-serif" font-size="13" lengthAdjust="spacing" textLength="23.0103" x="3533" y="124.5669">use</text></g><!--reverse link logic_arc_int__baselibs__result to comp_arc_sta__baselibs__result--><g id="link_logic_arc_int__baselibs__result_comp_arc_sta__baselibs__result"><path codeLine="20" d="M6062.879,204.7464 C6063.619,225.9764 6064.59,253.94 6065.33,275.19 " fill="transparent" id="logic_arc_int__baselibs__result-backto-comp_arc_sta__baselibs__result" style="stroke:#181818;stroke-width:1;"/><polygon fill="#181818" points="6062.67,198.75,6058.9859,207.8839,6062.8442,203.747,6066.9811,207.6052,6062.67,198.75" style="stroke:#181818;stroke-width:1;"/><text fill="#000000" font-family="sans-serif" font-size="13" lengthAdjust="spacing" textLength="76.9082" x="6066" y="241.5669">implements</text></g><!--reverse link logic_arc_int__baselibs__dynamic_array to comp_arc_sta__baselibs__containers--><g id="link_logic_arc_int__baselibs__dynamic_array_comp_arc_sta__baselibs__containers"><path codeLine="21" d="M5354.6375,202.1949 C5324.2775,223.4849 5280.56,254.14 5250.27,275.38 " fill="transparent" id="logic_arc_int__baselibs__dynamic_array-backto-comp_arc_sta__baselibs__containers" style="stroke:#181818;stroke-width:1;"/><polygon fill="#181818" points="5359.55,198.75,5349.8846,200.6423,5355.4562,201.6207,5354.4778,207.1924,5359.55,198.75" style="stroke:#181818;stroke-width:1;"/><text fill="#000000" font-family="sans-serif" font-size="13" lengthAdjust="spacing" textLength="76.9082" x="5316" y="241.5669">implements</text></g><!--reverse link logic_arc_int__baselibs__synchronized_queue to comp_arc_sta__baselibs__concurrency--><g id="link_logic_arc_int__baselibs__synchronized_queue_comp_arc_sta__baselibs__concurrency"><path codeLine="22" d="M3681.3235,199.8088 C3582.1035,221.0988 3428.27,254.11 3328.98,275.41 " fill="transparent" id="logic_arc_int__baselibs__synchronized_queue-backto-comp_arc_sta__baselibs__concurrency" style="stroke:#181818;stroke-width:1;"/><polygon fill="#181818" points="3687.19,198.55,3677.5511,196.5272,3682.3013,199.599,3679.2295,204.3492,3687.19,198.55" style="stroke:#181818;stroke-width:1;"/><text fill="#000000" font-family="sans-serif" font-size="13" lengthAdjust="spacing" textLength="76.9082" x="3542" y="241.5669">implements</text></g><!--link Feature_User to logic_arc_int__baselibs__json--><g id="link_Feature_User_logic_arc_int__baselibs__json"><path codeLine="23" d="M3087.92,45.41 C2863.83,50.07 1847.51,72.44 1016,111.5 C680.61,127.26 596.03,124.46 262,158.5 C256.27,159.08 256.3695,159.0342 250.4595,159.7242 " fill="transparent" id="Feature_User-to-logic_arc_int__baselibs__json" style="stroke:#181818;stroke-width:1;"/><polygon fill="#181818" points="244.5,160.42,253.9031,163.3493,249.4663,159.8402,252.9754,155.4033,244.5,160.42" style="stroke:#181818;stroke-width:1;"/><text fill="#000000" font-family="sans-serif" font-size="13" lengthAdjust="spacing" textLength="23.0103" x="1017" y="124.5669">use</text></g><!--reverse link logic_arc_int__baselibs__message_passing to comp_arc_sta__baselibs__message_passing--><g id="link_logic_arc_int__baselibs__message_passing_comp_arc_sta__baselibs__message_passing"><path codeLine="24" d="M5739.121,204.7464 C5738.381,225.9764 5737.41,253.94 5736.67,275.19 " fill="transparent" id="logic_arc_int__baselibs__message_passing-backto-comp_arc_sta__baselibs__message_passing" style="stroke:#181818;stroke-width:1;"/><polygon fill="#181818" points="5739.33,198.75,5735.0189,207.6052,5739.1558,203.747,5743.0141,207.8839,5739.33,198.75" style="stroke:#181818;stroke-width:1;"/><text fill="#000000" font-family="sans-serif" font-size="13" lengthAdjust="spacing" textLength="76.9082" x="5740" y="241.5669">implements</text></g><!--link Feature_User to logic_arc_int__baselibs__task_result--><g id="link_Feature_User_logic_arc_int__baselibs__task_result"><path codeLine="25" d="M3087.94,50.52 C2946.37,69.42 2512.3272,127.3861 2283.8572,157.8861 " fill="transparent" id="Feature_User-to-logic_arc_int__baselibs__task_result" style="stroke:#181818;stroke-width:1;"/><polygon fill="#181818" points="2277.91,158.68,2287.3602,161.4539,2282.866,158.0184,2286.3016,153.5243,2277.91,158.68" style="stroke:#181818;stroke-width:1;"/><text fill="#000000" font-family="sans-serif" font-size="13" lengthAdjust="spacing" textLength="23.0103" x="2607" y="124.5669">use</text></g><!--reverse link logic_arc_int__baselibs__shared_future to comp_arc_sta__baselibs__concurrency--><g id="link_logic_arc_int__baselibs__shared_future_comp_arc_sta__baselibs__concurrency"><path codeLine="26" d="M3154.9968,203.143 C3174.7468,224.373 3202.26,253.94 3222.03,275.19 " fill="transparent" id="logic_arc_int__baselibs__shared_future-backto-comp_arc_sta__baselibs__concurrency" style="stroke:#181818;stroke-width:1;"/><polygon fill="#181818" points="3150.91,198.75,3154.1115,208.064,3154.3156,202.4108,3159.9688,202.615,3150.91,198.75" style="stroke:#181818;stroke-width:1;"/><text fill="#000000" font-family="sans-serif" font-size="13" lengthAdjust="spacing" textLength="76.9082" x="3194" y="241.5669">implements</text></g><!--reverse link logic_arc_int__baselibs__utils_base64 to comp_arc_sta__baselibs__utils--><g id="link_logic_arc_int__baselibs__utils_base64_comp_arc_sta__baselibs__utils"><path codeLine="27" d="M1461.4223,201.3603 C1419.9923,222.6303 1358.79,254.05 1317.33,275.34 " fill="transparent" id="logic_arc_int__baselibs__utils_base64-backto-comp_arc_sta__baselibs__utils" style="stroke:#181818;stroke-width:1;"/><polygon fill="#181818" points="1466.76,198.62,1456.9266,199.1721,1462.312,200.9036,1460.5804,206.2889,1466.76,198.62" style="stroke:#181818;stroke-width:1;"/><text fill="#000000" font-family="sans-serif" font-size="13" lengthAdjust="spacing" textLength="76.9082" x="1407" y="241.5669">implements</text></g><!--reverse link logic_arc_int__baselibs__memory_shared to comp_arc_sta__baselibs__memory_shared--><g id="link_logic_arc_int__baselibs__memory_shared_comp_arc_sta__baselibs__memory_shared"><path codeLine="28" d="M4710,204.75 C4710,225.98 4710,253.94 4710,275.19 " fill="transparent" id="logic_arc_int__baselibs__memory_shared-backto-comp_arc_sta__baselibs__memory_shared" style="stroke:#181818;stroke-width:1;"/><polygon fill="#181818" points="4710,198.75,4706,207.75,4710,203.75,4714,207.75,4710,198.75" style="stroke:#181818;stroke-width:1;"/><text fill="#000000" font-family="sans-serif" font-size="13" lengthAdjust="spacing" textLength="76.9082" x="4711" y="241.5669">implements</text></g><!--reverse link logic_arc_int__baselibs__filesystem to comp_arc_sta__baselibs__filesystem--><g id="link_logic_arc_int__baselibs__filesystem_comp_arc_sta__baselibs__filesystem"><path codeLine="29" d="M1823,204.75 C1823,225.98 1823,253.94 1823,275.19 " fill="transparent" id="logic_arc_int__baselibs__filesystem-backto-comp_arc_sta__baselibs__filesystem" style="stroke:#181818;stroke-width:1;"/><polygon fill="#181818" points="1823,198.75,1819,207.75,1823,203.75,1827,207.75,1823,198.75" style="stroke:#181818;stroke-width:1;"/><text fill="#000000" font-family="sans-serif" font-size="13" lengthAdjust="spacing" textLength="76.9082" x="1824" y="241.5669">implements</text></g><!--link Feature_User to logic_arc_int__baselibs__bit_manipulation--><g id="link_Feature_User_logic_arc_int__baselibs__bit_manipulation"><path codeLine="30" d="M3087.68,45.81 C2861.33,52.57 1830.77,86.08 990,158.5 C984.24,159 984.3552,158.975 978.4352,159.515 " fill="transparent" id="Feature_User-to-logic_arc_int__baselibs__bit_manipulation" style="stroke:#181818;stroke-width:1;"/><polygon fill="#181818" points="972.46,160.06,981.7861,163.2259,977.4393,159.6058,981.0594,155.259,972.46,160.06" style="stroke:#181818;stroke-width:1;"/><text fill="#000000" font-family="sans-serif" font-size="13" lengthAdjust="spacing" textLength="23.0103" x="1639" y="124.5669">use</text></g><!--link Feature_User to logic_arc_int__baselibs__result--><g id="link_Feature_User_logic_arc_int__baselibs__result"><path codeLine="31" d="M3178.28,45.44 C3399.04,50.14 4384.49,72.42 5191,111.5 C5515.74,127.24 5597.48,126.33 5921,158.5 C5927.14,159.11 5927.4682,159.104 5933.8182,159.824 " fill="transparent" id="Feature_User-to-logic_arc_int__baselibs__result" style="stroke:#181818;stroke-width:1;"/><polygon fill="#181818" points="5939.78,160.5,5931.288,155.5115,5934.8118,159.9367,5930.3866,163.4606,5939.78,160.5" style="stroke:#181818;stroke-width:1;"/><text fill="#000000" font-family="sans-serif" font-size="13" lengthAdjust="spacing" textLength="23.0103" x="5546" y="124.5669">use</text></g><!--link Feature_User to logic_arc_int__baselibs__filesystem--><g id="link_Feature_User_logic_arc_int__baselibs__filesystem"><path codeLine="32" d="M3087.87,48.59 C2933.2,62.67 2410.24,110.94 1979,158.5 C1973.17,159.14 1973.1808,159.1256 1967.1708,159.8156 " fill="transparent" id="Feature_User-to-logic_arc_int__baselibs__filesystem" style="stroke:#181818;stroke-width:1;"/><polygon fill="#181818" points="1961.21,160.5,1970.6075,163.4474,1966.1774,159.9297,1969.695,155.4996,1961.21,160.5" style="stroke:#181818;stroke-width:1;"/><text fill="#000000" font-family="sans-serif" font-size="13" lengthAdjust="spacing" textLength="23.0103" x="2424" y="124.5669">use</text></g><!--link Feature_User to logic_arc_int__baselibs__message_passing--><g id="link_Feature_User_logic_arc_int__baselibs__message_passing"><path codeLine="33" d="M3178.15,45.81 C3376,51.62 4186.29,76.45 4851,111.5 C5165.48,128.08 5244.23,131.7 5558,158.5 C5563.86,159 5563.8441,158.9931 5569.8541,159.5331 " fill="transparent" id="Feature_User-to-logic_arc_int__baselibs__message_passing" style="stroke:#181818;stroke-width:1;"/><polygon fill="#181818" points="5575.83,160.07,5567.2241,155.2806,5570.8501,159.6226,5566.5082,163.2485,5575.83,160.07" style="stroke:#181818;stroke-width:1;"/><text fill="#000000" font-family="sans-serif" font-size="13" lengthAdjust="spacing" textLength="23.0103" x="5159" y="124.5669">use</text></g><!--link Feature_User to logic_arc_int__baselibs__shared_future--><g id="link_Feature_User_logic_arc_int__baselibs__shared_future"><path codeLine="34" d="M3133,81.55 C3133,106.45 3133,132.26 3133,152.26 " fill="transparent" id="Feature_User-to-logic_arc_int__baselibs__shared_future" style="stroke:#181818;stroke-width:1;"/><polygon fill="#181818" points="3133,158.26,3137,149.26,3133,153.26,3129,149.26,3133,158.26" style="stroke:#181818;stroke-width:1;"/><text fill="#000000" font-family="sans-serif" font-size="13" lengthAdjust="spacing" textLength="23.0103" x="3134" y="124.5669">use</text></g><!--link Feature_User to logic_arc_int__baselibs__executor--><g id="link_Feature_User_logic_arc_int__baselibs__executor"><path codeLine="35" d="M3087.97,63.27 C3027.43,88.51 2925.9279,130.8309 2865.1079,156.1909 " fill="transparent" id="Feature_User-to-logic_arc_int__baselibs__executor" style="stroke:#181818;stroke-width:1;"/><polygon fill="#181818" points="2859.57,158.5,2869.4162,158.7282,2864.1849,156.5757,2866.3374,151.3444,2859.57,158.5" style="stroke:#181818;stroke-width:1;"/><text fill="#000000" font-family="sans-serif" font-size="13" lengthAdjust="spacing" textLength="23.0103" x="2965" y="124.5669">use</text></g><!--link Feature_User to logic_arc_int__baselibs__dynamic_array--><g id="link_Feature_User_logic_arc_int__baselibs__dynamic_array"><path codeLine="36" d="M3178.14,45.8 C3400.29,52.47 4399.71,85.28 5215,158.5 C5220.83,159.02 5220.8078,159.0027 5226.8078,159.5827 " fill="transparent" id="Feature_User-to-logic_arc_int__baselibs__dynamic_array" style="stroke:#181818;stroke-width:1;"/><polygon fill="#181818" points="5232.78,160.16,5224.2066,155.3126,5227.8032,159.6789,5223.4369,163.2755,5232.78,160.16" style="stroke:#181818;stroke-width:1;"/><text fill="#000000" font-family="sans-serif" font-size="13" lengthAdjust="spacing" textLength="23.0103" x="4819" y="124.5669">use</text></g><!--link Feature_User to logic_arc_int__baselibs__utils_scoped_op--><g id="link_Feature_User_logic_arc_int__baselibs__utils_scoped_op"><path codeLine="37" d="M3087.9,46.49 C2884.83,55.64 2035.09,95.89 1340,158.5 C1334.37,159.01 1334.6131,158.9726 1328.8231,159.5226 " fill="transparent" id="Feature_User-to-logic_arc_int__baselibs__utils_scoped_op" style="stroke:#181818;stroke-width:1;"/><polygon fill="#181818" points="1322.85,160.09,1332.1879,163.221,1327.8276,159.6172,1331.4314,155.2568,1322.85,160.09" style="stroke:#181818;stroke-width:1;"/><text fill="#000000" font-family="sans-serif" font-size="13" lengthAdjust="spacing" textLength="23.0103" x="1932" y="124.5669">use</text></g><!--reverse link logic_arc_int__baselibs__promise to comp_arc_sta__baselibs__concurrency--><g id="link_logic_arc_int__baselibs__promise_comp_arc_sta__baselibs__concurrency"><path codeLine="38" d="M4248.2365,196.9954 C4242.0865,197.7654 4241.95,197.77 4236,198.5 C4058.77,220.24 4014.67,227.75 3837,245.5 C3685.01,260.68 3510.91,274.57 3390.1,283.66 " fill="transparent" id="logic_arc_int__baselibs__promise-backto-comp_arc_sta__baselibs__concurrency" style="stroke:#181818;stroke-width:1;"/><polygon fill="#181818" points="4254.19,196.25,4244.7628,193.3991,4249.2287,196.8712,4245.7567,201.3371,4254.19,196.25" style="stroke:#181818;stroke-width:1;"/><text fill="#000000" font-family="sans-serif" font-size="13" lengthAdjust="spacing" textLength="76.9082" x="3991" y="241.5669">implements</text></g><!--link Feature_User to logic_arc_int__baselibs__promise--><g id="link_Feature_User_logic_arc_int__baselibs__promise"><path codeLine="39" d="M3178.22,48.78 C3328.63,63.11 3825.78,111.15 4236,158.5 C4241.96,159.19 4242.0918,159.2028 4248.2418,159.9328 " fill="transparent" id="Feature_User-to-logic_arc_int__baselibs__promise" style="stroke:#181818;stroke-width:1;"/><polygon fill="#181818" points="4254.2,160.64,4245.7342,155.607,4249.2349,160.0506,4244.7913,163.5513,4254.2,160.64" style="stroke:#181818;stroke-width:1;"/><text fill="#000000" font-family="sans-serif" font-size="13" lengthAdjust="spacing" textLength="23.0103" x="3965" y="124.5669">use</text></g><!--link Feature_User to logic_arc_int__baselibs__bit_mask_operator--><g id="link_Feature_User_logic_arc_int__baselibs__bit_mask_operator"><path codeLine="40" d="M3087.95,45.78 C2886.95,51.58 2051.85,76.62 1367,111.5 C1040.09,128.15 958.2,131.33 632,158.5 C626.37,158.97 626.6159,158.9224 620.8359,159.4424 " fill="transparent" id="Feature_User-to-logic_arc_int__baselibs__bit_mask_operator" style="stroke:#181818;stroke-width:1;"/><polygon fill="#181818" points="614.86,159.98,624.1822,163.1575,619.8399,159.532,623.4654,155.1897,614.86,159.98" style="stroke:#181818;stroke-width:1;"/><text fill="#000000" font-family="sans-serif" font-size="13" lengthAdjust="spacing" textLength="23.0103" x="1368" y="124.5669">use</text></g><!--link Feature_User to logic_arc_int__baselibs__task--><g id="link_Feature_User_logic_arc_int__baselibs__task"><path codeLine="41" d="M3178.21,50.62 C3303.52,67.58 3665.92,116.74 3967,158.5 C3972.86,159.31 3972.9166,159.3275 3978.9866,160.1675 " fill="transparent" id="Feature_User-to-logic_arc_int__baselibs__task" style="stroke:#181818;stroke-width:1;"/><polygon fill="#181818" points="3984.93,160.99,3976.5633,155.794,3979.9772,160.3046,3975.4666,163.7185,3984.93,160.99" style="stroke:#181818;stroke-width:1;"/><text fill="#000000" font-family="sans-serif" font-size="13" lengthAdjust="spacing" textLength="23.0103" x="3739" y="124.5669">use</text></g><!--link Feature_User to logic_arc_int__baselibs__condition_variable--><g id="link_Feature_User_logic_arc_int__baselibs__condition_variable"><path codeLine="42" d="M3087.79,53.69 C2981.75,75.26 2721.1396,128.2541 2578.4696,157.2741 " fill="transparent" id="Feature_User-to-logic_arc_int__baselibs__condition_variable" style="stroke:#181818;stroke-width:1;"/><polygon fill="#181818" points="2572.59,158.47,2582.2067,160.5958,2577.4897,157.4734,2580.6121,152.7563,2572.59,158.47" style="stroke:#181818;stroke-width:1;"/><text fill="#000000" font-family="sans-serif" font-size="13" lengthAdjust="spacing" textLength="23.0103" x="2788" y="124.5669">use</text></g><!--reverse link logic_arc_int__baselibs__intrusive_list to comp_arc_sta__baselibs__containers--><g id="link_logic_arc_int__baselibs__intrusive_list_comp_arc_sta__baselibs__containers"><path codeLine="43" d="M5084.7777,202.0851 C5116.6177,223.3751 5162.64,254.14 5194.4,275.38 " fill="transparent" id="logic_arc_int__baselibs__intrusive_list-backto-comp_arc_sta__baselibs__containers" style="stroke:#181818;stroke-width:1;"/><polygon fill="#181818" points="5079.79,198.75,5085.0482,207.0777,5083.9464,201.5292,5089.495,200.4275,5079.79,198.75" style="stroke:#181818;stroke-width:1;"/><text fill="#000000" font-family="sans-serif" font-size="13" lengthAdjust="spacing" textLength="76.9082" x="5149" y="241.5669">implements</text></g><!--reverse link logic_arc_int__baselibs__future to comp_arc_sta__baselibs__concurrency--><g id="link_logic_arc_int__baselibs__future_comp_arc_sta__baselibs__concurrency"><path codeLine="44" d="M3403.7995,201.7075 C3366.2195,222.9975 3311.24,254.14 3273.75,275.38 " fill="transparent" id="logic_arc_int__baselibs__future-backto-comp_arc_sta__baselibs__concurrency" style="stroke:#181818;stroke-width:1;"/><polygon fill="#181818" points="3409.02,198.75,3399.2176,199.706,3404.6696,201.2146,3403.161,206.6666,3409.02,198.75" style="stroke:#181818;stroke-width:1;"/><text fill="#000000" font-family="sans-serif" font-size="13" lengthAdjust="spacing" textLength="76.9082" x="3355" y="241.5669">implements</text></g><!--link Feature_User to logic_arc_int__baselibs__future--><g id="link_Feature_User_logic_arc_int__baselibs__future"><path codeLine="45" d="M3178.08,63.84 C3237.1,89.16 3334.436,130.9244 3393.106,156.0944 " fill="transparent" id="Feature_User-to-logic_arc_int__baselibs__future" style="stroke:#181818;stroke-width:1;"/><polygon fill="#181818" points="3398.62,158.46,3391.926,151.2357,3394.025,156.4887,3388.772,158.5877,3398.62,158.46" style="stroke:#181818;stroke-width:1;"/><text fill="#000000" font-family="sans-serif" font-size="13" lengthAdjust="spacing" textLength="23.0103" x="3326" y="124.5669">use</text></g><!--reverse link logic_arc_int__baselibs__bit_manipulation to comp_arc_sta__baselibs__bit_manipulation--><g id="link_logic_arc_int__baselibs__bit_manipulation_comp_arc_sta__baselibs__bit_manipulation"><path codeLine="46" d="M760.59,200.9715 C710.66,222.2415 635.97,254.05 586,275.34 " fill="transparent" id="logic_arc_int__baselibs__bit_manipulation-backto-comp_arc_sta__baselibs__bit_manipulation" style="stroke:#181818;stroke-width:1;"/><polygon fill="#181818" points="766.11,198.62,756.2623,198.4673,761.51,200.5796,759.3977,205.8273,766.11,198.62" style="stroke:#181818;stroke-width:1;"/><text fill="#000000" font-family="sans-serif" font-size="13" lengthAdjust="spacing" textLength="76.9082" x="694" y="241.5669">implements</text></g><!--reverse link logic_arc_int__baselibs__bit_mask_operator to comp_arc_sta__baselibs__bit_manipulation--><g id="link_logic_arc_int__baselibs__bit_mask_operator_comp_arc_sta__baselibs__bit_manipulation"><path codeLine="47" d="M466.5281,203.3948 C483.8881,224.6248 507.84,253.94 525.22,275.19 " fill="transparent" id="logic_arc_int__baselibs__bit_mask_operator-backto-comp_arc_sta__baselibs__bit_manipulation" style="stroke:#181818;stroke-width:1;"/><polygon fill="#181818" points="462.73,198.75,465.3306,208.2493,465.8951,202.6207,471.5237,203.1851,462.73,198.75" style="stroke:#181818;stroke-width:1;"/><text fill="#000000" font-family="sans-serif" font-size="13" lengthAdjust="spacing" textLength="76.9082" x="501" y="241.5669">implements</text></g><!--link Feature_User to logic_arc_int__baselibs__utils_base64--><g id="link_Feature_User_logic_arc_int__baselibs__utils_base64"><path codeLine="48" d="M3087.95,47.28 C2908.4,58.5 2226.47,102.6 1667,158.5 C1661.47,159.05 1661.8069,159.0008 1656.1169,159.6008 " fill="transparent" id="Feature_User-to-logic_arc_int__baselibs__utils_base64" style="stroke:#181818;stroke-width:1;"/><polygon fill="#181818" points="1650.15,160.23,1659.5198,163.2641,1655.1224,159.7057,1658.6809,155.3083,1650.15,160.23" style="stroke:#181818;stroke-width:1;"/><text fill="#000000" font-family="sans-serif" font-size="13" lengthAdjust="spacing" textLength="23.0103" x="2192" y="124.5669">use</text></g><!--reverse link logic_arc_int__baselibs__executor to comp_arc_sta__baselibs__concurrency--><g id="link_logic_arc_int__baselibs__executor_comp_arc_sta__baselibs__concurrency"><path codeLine="49" d="M2890.6127,200.1836 C2969.5227,221.4836 3090.53,254.15 3169.36,275.43 " fill="transparent" id="logic_arc_int__baselibs__executor-backto-comp_arc_sta__baselibs__concurrency" style="stroke:#181818;stroke-width:1;"/><polygon fill="#181818" points="2884.82,198.62,2892.4666,204.8272,2889.6472,199.923,2894.5514,197.1036,2884.82,198.62" style="stroke:#181818;stroke-width:1;"/><text fill="#000000" font-family="sans-serif" font-size="13" lengthAdjust="spacing" textLength="76.9082" x="3054" y="241.5669">implements</text></g><!--reverse link logic_arc_int__baselibs__task to comp_arc_sta__baselibs__concurrency--><g id="link_logic_arc_int__baselibs__task_comp_arc_sta__baselibs__concurrency"><path codeLine="50" d="M3978.9866,196.8225 C3972.9166,197.6625 3972.86,197.68 3967,198.5 C3815.91,219.57 3778.23,225.47 3627,245.5 C3548.95,255.84 3461.99,266.89 3390.29,275.88 " fill="transparent" id="logic_arc_int__baselibs__task-backto-comp_arc_sta__baselibs__concurrency" style="stroke:#181818;stroke-width:1;"/><polygon fill="#181818" points="3984.93,196,3975.4666,193.2715,3979.9772,196.6854,3976.5633,201.196,3984.93,196" style="stroke:#181818;stroke-width:1;"/><text fill="#000000" font-family="sans-serif" font-size="13" lengthAdjust="spacing" textLength="76.9082" x="3752" y="241.5669">implements</text></g><!--reverse link logic_arc_int__baselibs__json to comp_arc_sta__baselibs__json--><g id="link_logic_arc_int__baselibs__json_comp_arc_sta__baselibs__json"><path codeLine="51" d="M128,204.75 C128,225.98 128,253.94 128,275.19 " fill="transparent" id="logic_arc_int__baselibs__json-backto-comp_arc_sta__baselibs__json" style="stroke:#181818;stroke-width:1;"/><polygon fill="#181818" points="128,198.75,124,207.75,128,203.75,132,207.75,128,198.75" style="stroke:#181818;stroke-width:1;"/><text fill="#000000" font-family="sans-serif" font-size="13" lengthAdjust="spacing" textLength="76.9082" x="129" y="241.5669">implements</text></g><!--reverse link logic_arc_int__baselibs__utils_scoped_op to comp_arc_sta__baselibs__utils--><g id="link_logic_arc_int__baselibs__utils_scoped_op_comp_arc_sta__baselibs__utils"><path codeLine="52" d="M1188.4926,202.9926 C1209.7226,224.2226 1239.44,253.94 1260.69,275.19 " fill="transparent" id="logic_arc_int__baselibs__utils_scoped_op-backto-comp_arc_sta__baselibs__utils" style="stroke:#181818;stroke-width:1;"/><polygon fill="#181818" points="1184.25,198.75,1187.7855,207.9424,1187.7855,202.2855,1193.4424,202.2855,1184.25,198.75" style="stroke:#181818;stroke-width:1;"/><text fill="#000000" font-family="sans-serif" font-size="13" lengthAdjust="spacing" textLength="76.9082" x="1231" y="241.5669">implements</text></g><!--SRC=[hLOzRzmm3DtrAuJibnP5q248iXJerB6P1LbcxjZemnMfD6xH_rxPFZJsvNAs38-IoMVoaNoKjZRyKWvVqEy5XqPoa5LW3axM6C4m1YyEM8CaXWY1smQ6CxY6MwcP8rQ9WSGTSMlXNbnhGbl9F-8RUlWIR8WoGjsVlX_GF7aWaf-kFug_ukx3qKTemzdkwYjeJX7a0q6yafhayK9r5r9CJhjwTozjsADHEXg5dfMgD875YbHtZ8dm6PH5ubkP2AGG9hYcjoRMOsiJl4anWZUjtALBkDconeuLzQmZwih2hKJNM73WcUG6Vs1DJoe29SjJw8Bi7RWGMqK7dQa_9b_WJgqtXnWy_ePQ_KoGu8ZnNdP3k3E9dSlf0bsiSyT4cW6jMwzT_odgTkjIdEDXPKL-KF0p9Bey67eFgj54UHndOZknNXtOfDqknbV0MzztwZ5rGImhIcAqSxNkRVhpvvjbg9Cvc2LqCZDBu1_H0hLP6TqCzglXwZfLoCffZqsokjEVygcU5Bd0RnnygU-RBYsMecahbRh32vYKLqkvvucmbBeFlKecD3dwq6msMaqC3ccz3lttBqrewB-i5JcZg5THsabDkTUvZJj7vhBTSVf6s7Pvd5E_agaRT_nxqPoAman8RpLaISghVZ9fb9KKJFL-em5wLOJjdstBCBkdm0pOy5hOTc-Ej6WC_0y0]--></g></svg>