<svg xmlns="http://www.w3.org/2000/svg" xmlns:xlink="http://www.w3.org/1999/xlink" contentStyleType="text/css" data-diagram-type="CLASS" height="322px" preserveAspectRatio="none" style="width:6194px;height:322px;background:#FFFFFF;" version="1.1" viewBox="0 0 6194 322" width="6194px" zoomAndPan="magnify"><defs/><g><!--entity Feature_User--><g id="elem_Feature_User"><ellipse cx="3002.6685" cy="14" fill="#F1F1F1" rx="8" ry="8" style="stroke:#181818;stroke-width:0.5;"/><path d="M3002.6685,22 L3002.6685,49 M2989.6685,30 L3015.6685,30 M3002.6685,49 L2989.6685,64 M3002.6685,49 L3015.6685,64 " fill="transparent" style="stroke:#181818;stroke-width:0.5;"/><text fill="#000000" font-family="sans-serif" font-size="14" lengthAdjust="spacing" textLength="90.3369" x="2957.5" y="78.4951">Feature User</text></g><!--class comp_arc_sta__baselibs__containers--><g id="elem_comp_arc_sta__baselibs__containers"><rect fill="#F1F1F1" height="40" id="comp_arc_sta__baselibs__containers" rx="2.5" ry="2.5" style="stroke:#181818;stroke-width:0.5;" width="287.1445" x="5346" y="275.5"/><ellipse cx="5361" cy="291.5" fill="#ADD1B2" rx="11" ry="11" style="stroke:#181818;stroke-width:1;"/><path d="M5363.9688,297.1406 Q5363.3906,297.4375 5362.75,297.5781 Q5362.1094,297.7344 5361.4063,297.7344 Q5358.9063,297.7344 5357.5781,296.0938 Q5356.2656,294.4375 5356.2656,291.3125 Q5356.2656,288.1875 5357.5781,286.5313 Q5358.9063,284.875 5361.4063,284.875 Q5362.1094,284.875 5362.75,285.0313 Q5363.4063,285.1875 5363.9688,285.4844 L5363.9688,288.2031 Q5363.3438,287.625 5362.75,287.3594 Q5362.1563,287.0781 5361.5313,287.0781 Q5360.1875,287.0781 5359.5,288.1563 Q5358.8125,289.2188 5358.8125,291.3125 Q5358.8125,293.4063 5359.5,294.4844 Q5360.1875,295.5469 5361.5313,295.5469 Q5362.1563,295.5469 5362.75,295.2813 Q5363.3438,295 5363.9688,294.4219 L5363.9688,297.1406 Z " fill="#000000"/><text fill="#000000" font-family="sans-serif" font-size="14" lengthAdjust="spacing" textLength="255.1445" x="5375" y="296.3467">comp_arc_sta__baselibs__containers</text><line style="stroke:#181818;stroke-width:0.5;" x1="5347" x2="5632.1445" y1="307.5" y2="307.5"/></g><!--class logic_arc_int__baselibs__intrusive_list--><g id="elem_logic_arc_int__baselibs__intrusive_list"><rect fill="#F1F1F1" height="40" id="logic_arc_int__baselibs__intrusive_list" rx="2.5" ry="2.5" style="stroke:#181818;stroke-width:0.5;" width="293.0713" x="5536" y="158.5"/><ellipse cx="5551" cy="174.5" fill="#ADD1B2" rx="11" ry="11" style="stroke:#181818;stroke-width:1;"/><path d="M5553.9688,180.1406 Q5553.3906,180.4375 5552.75,180.5781 Q5552.1094,180.7344 5551.4063,180.7344 Q5548.9063,180.7344 5547.5781,179.0938 Q5546.2656,177.4375 5546.2656,174.3125 Q5546.2656,171.1875 5547.5781,169.5313 Q5548.9063,167.875 5551.4063,167.875 Q5552.1094,167.875 5552.75,168.0313 Q5553.4063,168.1875 5553.9688,168.4844 L5553.9688,171.2031 Q5553.3438,170.625 5552.75,170.3594 Q5552.1563,170.0781 5551.5313,170.0781 Q5550.1875,170.0781 5549.5,171.1563 Q5548.8125,172.2188 5548.8125,174.3125 Q5548.8125,176.4063 5549.5,177.4844 Q5550.1875,178.5469 5551.5313,178.5469 Q5552.1563,178.5469 5552.75,178.2813 Q5553.3438,178 5553.9688,177.4219 L5553.9688,180.1406 Z " fill="#000000"/><text fill="#000000" font-family="sans-serif" font-size="14" lengthAdjust="spacing" textLength="261.0713" x="5565" y="179.3467">logic_arc_int__baselibs__intrusive_list</text><line style="stroke:#181818;stroke-width:0.5;" x1="5537" x2="5828.0713" y1="190.5" y2="190.5"/></g><!--class comp_arc_sta__baselibs__concurrency--><g id="elem_comp_arc_sta__baselibs__concurrency"><rect fill="#F1F1F1" height="40" id="comp_arc_sta__baselibs__concurrency" rx="2.5" ry="2.5" style="stroke:#181818;stroke-width:0.5;" width="300.2012" x="1425.5" y="275.5"/><ellipse cx="1440.5" cy="291.5" fill="#ADD1B2" rx="11" ry="11" style="stroke:#181818;stroke-width:1;"/><path d="M1443.4688,297.1406 Q1442.8906,297.4375 1442.25,297.5781 Q1441.6094,297.7344 1440.9063,297.7344 Q1438.4063,297.7344 1437.0781,296.0938 Q1435.7656,294.4375 1435.7656,291.3125 Q1435.7656,288.1875 1437.0781,286.5313 Q1438.4063,284.875 1440.9063,284.875 Q1441.6094,284.875 1442.25,285.0313 Q1442.9063,285.1875 1443.4688,285.4844 L1443.4688,288.2031 Q1442.8438,287.625 1442.25,287.3594 Q1441.6563,287.0781 1441.0313,287.0781 Q1439.6875,287.0781 1439,288.1563 Q1438.3125,289.2188 1438.3125,291.3125 Q1438.3125,293.4063 1439,294.4844 Q1439.6875,295.5469 1441.0313,295.5469 Q1441.6563,295.5469 1442.25,295.2813 Q1442.8438,295 1443.4688,294.4219 L1443.4688,297.1406 Z " fill="#000000"/><text fill="#000000" font-family="sans-serif" font-size="14" lengthAdjust="spacing" textLength="268.2012" x="1454.5" y="296.3467">comp_arc_sta__baselibs__concurrency</text><line style="stroke:#181818;stroke-width:0.5;" x1="1426.5" x2="1724.7012" y1="307.5" y2="307.5"/></g><!--class logic_arc_int__baselibs__task--><g id="elem_logic_arc_int__baselibs__task"><rect fill="#F1F1F1" height="40" id="logic_arc_int__baselibs__task" rx="2.5" ry="2.5" style="stroke:#181818;stroke-width:0.5;" width="234.0156" x="1955.5" y="158.5"/><ellipse cx="1970.5" cy="174.5" fill="#ADD1B2" rx="11" ry="11" style="stroke:#181818;stroke-width:1;"/><path d="M1973.4688,180.1406 Q1972.8906,180.4375 1972.25,180.5781 Q1971.6094,180.7344 1970.9063,180.7344 Q1968.4063,180.7344 1967.0781,179.0938 Q1965.7656,177.4375 1965.7656,174.3125 Q1965.7656,171.1875 1967.0781,169.5313 Q1968.4063,167.875 1970.9063,167.875 Q1971.6094,167.875 1972.25,168.0313 Q1972.9063,168.1875 1973.4688,168.4844 L1973.4688,171.2031 Q1972.8438,170.625 1972.25,170.3594 Q1971.6563,170.0781 1971.0313,170.0781 Q1969.6875,170.0781 1969,171.1563 Q1968.3125,172.2188 1968.3125,174.3125 Q1968.3125,176.4063 1969,177.4844 Q1969.6875,178.5469 1971.0313,178.5469 Q1971.6563,178.5469 1972.25,178.2813 Q1972.8438,178 1973.4688,177.4219 L1973.4688,180.1406 Z " fill="#000000"/><text fill="#000000" font-family="sans-serif" font-size="14" lengthAdjust="spacing" textLength="202.0156" x="1984.5" y="179.3467">logic_arc_int__baselibs__task</text><line style="stroke:#181818;stroke-width:0.5;" x1="1956.5" x2="2188.5156" y1="190.5" y2="190.5"/></g><!--class comp_arc_sta__baselibs__bit_manipulation--><g id="elem_comp_arc_sta__baselibs__bit_manipulation"><rect fill="#F1F1F1" height="40" id="comp_arc_sta__baselibs__bit_manipulation" rx="2.5" ry="2.5" style="stroke:#181818;stroke-width:0.5;" width="330.8057" x="3669" y="275.5"/><ellipse cx="3684" cy="291.5" fill="#ADD1B2" rx="11" ry="11" style="stroke:#181818;stroke-width:1;"/><path d="M3686.9688,297.1406 Q3686.3906,297.4375 3685.75,297.5781 Q3685.1094,297.7344 3684.4063,297.7344 Q3681.9063,297.7344 3680.5781,296.0938 Q3679.2656,294.4375 3679.2656,291.3125 Q3679.2656,288.1875 3680.5781,286.5313 Q3681.9063,284.875 3684.4063,284.875 Q3685.1094,284.875 3685.75,285.0313 Q3686.4063,285.1875 3686.9688,285.4844 L3686.9688,288.2031 Q3686.3438,287.625 3685.75,287.3594 Q3685.1563,287.0781 3684.5313,287.0781 Q3683.1875,287.0781 3682.5,288.1563 Q3681.8125,289.2188 3681.8125,291.3125 Q3681.8125,293.4063 3682.5,294.4844 Q3683.1875,295.5469 3684.5313,295.5469 Q3685.1563,295.5469 3685.75,295.2813 Q3686.3438,295 3686.9688,294.4219 L3686.9688,297.1406 Z " fill="#000000"/><text fill="#000000" font-family="sans-serif" font-size="14" lengthAdjust="spacing" textLength="298.8057" x="3698" y="296.3467">comp_arc_sta__baselibs__bit_manipulation</text><line style="stroke:#181818;stroke-width:0.5;" x1="3670" x2="3998.8057" y1="307.5" y2="307.5"/></g><!--class logic_arc_int__baselibs__bit_mask_operator--><g id="elem_logic_arc_int__baselibs__bit_mask_operator"><rect fill="#F1F1F1" height="40" id="logic_arc_int__baselibs__bit_mask_operator" rx="2.5" ry="2.5" style="stroke:#181818;stroke-width:0.5;" width="334.6406" x="3880" y="158.5"/><ellipse cx="3895" cy="174.5" fill="#ADD1B2" rx="11" ry="11" style="stroke:#181818;stroke-width:1;"/><path d="M3897.9688,180.1406 Q3897.3906,180.4375 3896.75,180.5781 Q3896.1094,180.7344 3895.4063,180.7344 Q3892.9063,180.7344 3891.5781,179.0938 Q3890.2656,177.4375 3890.2656,174.3125 Q3890.2656,171.1875 3891.5781,169.5313 Q3892.9063,167.875 3895.4063,167.875 Q3896.1094,167.875 3896.75,168.0313 Q3897.4063,168.1875 3897.9688,168.4844 L3897.9688,171.2031 Q3897.3438,170.625 3896.75,170.3594 Q3896.1563,170.0781 3895.5313,170.0781 Q3894.1875,170.0781 3893.5,171.1563 Q3892.8125,172.2188 3892.8125,174.3125 Q3892.8125,176.4063 3893.5,177.4844 Q3894.1875,178.5469 3895.5313,178.5469 Q3896.1563,178.5469 3896.75,178.2813 Q3897.3438,178 3897.9688,177.4219 L3897.9688,180.1406 Z " fill="#000000"/><text fill="#000000" font-family="sans-serif" font-size="14" lengthAdjust="spacing" textLength="302.6406" x="3909" y="179.3467">logic_arc_int__baselibs__bit_mask_operator</text><line style="stroke:#181818;stroke-width:0.5;" x1="3881" x2="4213.6406" y1="190.5" y2="190.5"/></g><!--class logic_arc_int__baselibs__executor--><g id="elem_logic_arc_int__baselibs__executor"><rect fill="#F1F1F1" height="40" id="logic_arc_int__baselibs__executor" rx="2.5" ry="2.5" style="stroke:#181818;stroke-width:0.5;" width="266.4385" x="1271.5" y="158.5"/><ellipse cx="1286.5" cy="174.5" fill="#ADD1B2" rx="11" ry="11" style="stroke:#181818;stroke-width:1;"/><path d="M1289.4688,180.1406 Q1288.8906,180.4375 1288.25,180.5781 Q1287.6094,180.7344 1286.9063,180.7344 Q1284.4063,180.7344 1283.0781,179.0938 Q1281.7656,177.4375 1281.7656,174.3125 Q1281.7656,171.1875 1283.0781,169.5313 Q1284.4063,167.875 1286.9063,167.875 Q1287.6094,167.875 1288.25,168.0313 Q1288.9063,168.1875 1289.4688,168.4844 L1289.4688,171.2031 Q1288.8438,170.625 1288.25,170.3594 Q1287.6563,170.0781 1287.0313,170.0781 Q1285.6875,170.0781 1285,171.1563 Q1284.3125,172.2188 1284.3125,174.3125 Q1284.3125,176.4063 1285,177.4844 Q1285.6875,178.5469 1287.0313,178.5469 Q1287.6563,178.5469 1288.25,178.2813 Q1288.8438,178 1289.4688,177.4219 L1289.4688,180.1406 Z " fill="#000000"/><text fill="#000000" font-family="sans-serif" font-size="14" lengthAdjust="spacing" textLength="234.4385" x="1300.5" y="179.3467">logic_arc_int__baselibs__executor</text><line style="stroke:#181818;stroke-width:0.5;" x1="1272.5" x2="1536.9385" y1="190.5" y2="190.5"/></g><!--class logic_arc_int__baselibs__result--><g id="elem_logic_arc_int__baselibs__result"><rect fill="#F1F1F1" height="40" id="logic_arc_int__baselibs__result" rx="2.5" ry="2.5" style="stroke:#181818;stroke-width:0.5;" width="244.4609" x="11.5" y="158.5"/><ellipse cx="26.5" cy="174.5" fill="#ADD1B2" rx="11" ry="11" style="stroke:#181818;stroke-width:1;"/><path d="M29.4688,180.1406 Q28.8906,180.4375 28.25,180.5781 Q27.6094,180.7344 26.9063,180.7344 Q24.4063,180.7344 23.0781,179.0938 Q21.7656,177.4375 21.7656,174.3125 Q21.7656,171.1875 23.0781,169.5313 Q24.4063,167.875 26.9063,167.875 Q27.6094,167.875 28.25,168.0313 Q28.9063,168.1875 29.4688,168.4844 L29.4688,171.2031 Q28.8438,170.625 28.25,170.3594 Q27.6563,170.0781 27.0313,170.0781 Q25.6875,170.0781 25,171.1563 Q24.3125,172.2188 24.3125,174.3125 Q24.3125,176.4063 25,177.4844 Q25.6875,178.5469 27.0313,178.5469 Q27.6563,178.5469 28.25,178.2813 Q28.8438,178 29.4688,177.4219 L29.4688,180.1406 Z " fill="#000000"/><text fill="#000000" font-family="sans-serif" font-size="14" lengthAdjust="spacing" textLength="212.4609" x="40.5" y="179.3467">logic_arc_int__baselibs__result</text><line style="stroke:#181818;stroke-width:0.5;" x1="12.5" x2="254.9609" y1="190.5" y2="190.5"/></g><!--class logic_arc_int__baselibs__bit_manipulation--><g id="elem_logic_arc_int__baselibs__bit_manipulation"><rect fill="#F1F1F1" height="40" id="logic_arc_int__baselibs__bit_manipulation" rx="2.5" ry="2.5" style="stroke:#181818;stroke-width:0.5;" width="321.8369" x="3522.5" y="158.5"/><ellipse cx="3537.5" cy="174.5" fill="#ADD1B2" rx="11" ry="11" style="stroke:#181818;stroke-width:1;"/><path d="M3540.4688,180.1406 Q3539.8906,180.4375 3539.25,180.5781 Q3538.6094,180.7344 3537.9063,180.7344 Q3535.4063,180.7344 3534.0781,179.0938 Q3532.7656,177.4375 3532.7656,174.3125 Q3532.7656,171.1875 3534.0781,169.5313 Q3535.4063,167.875 3537.9063,167.875 Q3538.6094,167.875 3539.25,168.0313 Q3539.9063,168.1875 3540.4688,168.4844 L3540.4688,171.2031 Q3539.8438,170.625 3539.25,170.3594 Q3538.6563,170.0781 3538.0313,170.0781 Q3536.6875,170.0781 3536,171.1563 Q3535.3125,172.2188 3535.3125,174.3125 Q3535.3125,176.4063 3536,177.4844 Q3536.6875,178.5469 3538.0313,178.5469 Q3538.6563,178.5469 3539.25,178.2813 Q3539.8438,178 3540.4688,177.4219 L3540.4688,180.1406 Z " fill="#000000"/><text fill="#000000" font-family="sans-serif" font-size="14" lengthAdjust="spacing" textLength="289.8369" x="3551.5" y="179.3467">logic_arc_int__baselibs__bit_manipulation</text><line style="stroke:#181818;stroke-width:0.5;" x1="3523.5" x2="3843.3369" y1="190.5" y2="190.5"/></g><!--class comp_arc_sta__baselibs__memory_shared--><g id="elem_comp_arc_sta__baselibs__memory_shared"><rect fill="#F1F1F1" height="40" id="comp_arc_sta__baselibs__memory_shared" rx="2.5" ry="2.5" style="stroke:#181818;stroke-width:0.5;" width="327.0117" x="5860" y="275.5"/><ellipse cx="5875" cy="291.5" fill="#ADD1B2" rx="11" ry="11" style="stroke:#181818;stroke-width:1;"/><path d="M5877.9688,297.1406 Q5877.3906,297.4375 5876.75,297.5781 Q5876.1094,297.7344 5875.4063,297.7344 Q5872.9063,297.7344 5871.5781,296.0938 Q5870.2656,294.4375 5870.2656,291.3125 Q5870.2656,288.1875 5871.5781,286.5313 Q5872.9063,284.875 5875.4063,284.875 Q5876.1094,284.875 5876.75,285.0313 Q5877.4063,285.1875 5877.9688,285.4844 L5877.9688,288.2031 Q5877.3438,287.625 5876.75,287.3594 Q5876.1563,287.0781 5875.5313,287.0781 Q5874.1875,287.0781 5873.5,288.1563 Q5872.8125,289.2188 5872.8125,291.3125 Q5872.8125,293.4063 5873.5,294.4844 Q5874.1875,295.5469 5875.5313,295.5469 Q5876.1563,295.5469 5876.75,295.2813 Q5877.3438,295 5877.9688,294.4219 L5877.9688,297.1406 Z " fill="#000000"/><text fill="#000000" font-family="sans-serif" font-size="14" lengthAdjust="spacing" textLength="295.0117" x="5889" y="296.3467">comp_arc_sta__baselibs__memory_shared</text><line style="stroke:#181818;stroke-width:0.5;" x1="5861" x2="6186.0117" y1="307.5" y2="307.5"/></g><!--class logic_arc_int__baselibs__memory_shared--><g id="elem_logic_arc_int__baselibs__memory_shared"><rect fill="#F1F1F1" height="40" id="logic_arc_int__baselibs__memory_shared" rx="2.5" ry="2.5" style="stroke:#181818;stroke-width:0.5;" width="318.043" x="5864.5" y="158.5"/><ellipse cx="5879.5" cy="174.5" fill="#ADD1B2" rx="11" ry="11" style="stroke:#181818;stroke-width:1;"/><path d="M5882.4688,180.1406 Q5881.8906,180.4375 5881.25,180.5781 Q5880.6094,180.7344 5879.9063,180.7344 Q5877.4063,180.7344 5876.0781,179.0938 Q5874.7656,177.4375 5874.7656,174.3125 Q5874.7656,171.1875 5876.0781,169.5313 Q5877.4063,167.875 5879.9063,167.875 Q5880.6094,167.875 5881.25,168.0313 Q5881.9063,168.1875 5882.4688,168.4844 L5882.4688,171.2031 Q5881.8438,170.625 5881.25,170.3594 Q5880.6563,170.0781 5880.0313,170.0781 Q5878.6875,170.0781 5878,171.1563 Q5877.3125,172.2188 5877.3125,174.3125 Q5877.3125,176.4063 5878,177.4844 Q5878.6875,178.5469 5880.0313,178.5469 Q5880.6563,178.5469 5881.25,178.2813 Q5881.8438,178 5882.4688,177.4219 L5882.4688,180.1406 Z " fill="#000000"/><text fill="#000000" font-family="sans-serif" font-size="14" lengthAdjust="spacing" textLength="286.043" x="5893.5" y="179.3467">logic_arc_int__baselibs__memory_shared</text><line style="stroke:#181818;stroke-width:0.5;" x1="5865.5" x2="6181.543" y1="190.5" y2="190.5"/></g><!--class comp_arc_sta__baselibs__utils--><g id="elem_comp_arc_sta__baselibs__utils"><rect fill="#F1F1F1" height="40" id="comp_arc_sta__baselibs__utils" rx="2.5" ry="2.5" style="stroke:#181818;stroke-width:0.5;" width="242.9502" x="3050" y="275.5"/><ellipse cx="3065" cy="291.5" fill="#ADD1B2" rx="11" ry="11" style="stroke:#181818;stroke-width:1;"/><path d="M3067.9688,297.1406 Q3067.3906,297.4375 3066.75,297.5781 Q3066.1094,297.7344 3065.4063,297.7344 Q3062.9063,297.7344 3061.5781,296.0938 Q3060.2656,294.4375 3060.2656,291.3125 Q3060.2656,288.1875 3061.5781,286.5313 Q3062.9063,284.875 3065.4063,284.875 Q3066.1094,284.875 3066.75,285.0313 Q3067.4063,285.1875 3067.9688,285.4844 L3067.9688,288.2031 Q3067.3438,287.625 3066.75,287.3594 Q3066.1563,287.0781 3065.5313,287.0781 Q3064.1875,287.0781 3063.5,288.1563 Q3062.8125,289.2188 3062.8125,291.3125 Q3062.8125,293.4063 3063.5,294.4844 Q3064.1875,295.5469 3065.5313,295.5469 Q3066.1563,295.5469 3066.75,295.2813 Q3067.3438,295 3067.9688,294.4219 L3067.9688,297.1406 Z " fill="#000000"/><text fill="#000000" font-family="sans-serif" font-size="14" lengthAdjust="spacing" textLength="210.9502" x="3079" y="296.3467">comp_arc_sta__baselibs__utils</text><line style="stroke:#181818;stroke-width:0.5;" x1="3051" x2="3291.9502" y1="307.5" y2="307.5"/></g><!--class logic_arc_int__baselibs__utils_base64--><g id="elem_logic_arc_int__baselibs__utils_base64"><rect fill="#F1F1F1" height="40" id="logic_arc_int__baselibs__utils_base64" rx="2.5" ry="2.5" style="stroke:#181818;stroke-width:0.5;" width="292.1689" x="3195.5" y="158.5"/><ellipse cx="3210.5" cy="174.5" fill="#ADD1B2" rx="11" ry="11" style="stroke:#181818;stroke-width:1;"/><path d="M3213.4688,180.1406 Q3212.8906,180.4375 3212.25,180.5781 Q3211.6094,180.7344 3210.9063,180.7344 Q3208.4063,180.7344 3207.0781,179.0938 Q3205.7656,177.4375 3205.7656,174.3125 Q3205.7656,171.1875 3207.0781,169.5313 Q3208.4063,167.875 3210.9063,167.875 Q3211.6094,167.875 3212.25,168.0313 Q3212.9063,168.1875 3213.4688,168.4844 L3213.4688,171.2031 Q3212.8438,170.625 3212.25,170.3594 Q3211.6563,170.0781 3211.0313,170.0781 Q3209.6875,170.0781 3209,171.1563 Q3208.3125,172.2188 3208.3125,174.3125 Q3208.3125,176.4063 3209,177.4844 Q3209.6875,178.5469 3211.0313,178.5469 Q3211.6563,178.5469 3212.25,178.2813 Q3212.8438,178 3213.4688,177.4219 L3213.4688,180.1406 Z " fill="#000000"/><text fill="#000000" font-family="sans-serif" font-size="14" lengthAdjust="spacing" textLength="260.1689" x="3224.5" y="179.3467">logic_arc_int__baselibs__utils_base64</text><line style="stroke:#181818;stroke-width:0.5;" x1="3196.5" x2="3486.6689" y1="190.5" y2="190.5"/></g><!--class comp_arc_sta__baselibs__filesystem--><g id="elem_comp_arc_sta__baselibs__filesystem"><rect fill="#F1F1F1" height="40" id="comp_arc_sta__baselibs__filesystem" rx="2.5" ry="2.5" style="stroke:#181818;stroke-width:0.5;" width="285.4492" x="4886" y="275.5"/><ellipse cx="4901" cy="291.5" fill="#ADD1B2" rx="11" ry="11" style="stroke:#181818;stroke-width:1;"/><path d="M4903.9688,297.1406 Q4903.3906,297.4375 4902.75,297.5781 Q4902.1094,297.7344 4901.4063,297.7344 Q4898.9063,297.7344 4897.5781,296.0938 Q4896.2656,294.4375 4896.2656,291.3125 Q4896.2656,288.1875 4897.5781,286.5313 Q4898.9063,284.875 4901.4063,284.875 Q4902.1094,284.875 4902.75,285.0313 Q4903.4063,285.1875 4903.9688,285.4844 L4903.9688,288.2031 Q4903.3438,287.625 4902.75,287.3594 Q4902.1563,287.0781 4901.5313,287.0781 Q4900.1875,287.0781 4899.5,288.1563 Q4898.8125,289.2188 4898.8125,291.3125 Q4898.8125,293.4063 4899.5,294.4844 Q4900.1875,295.5469 4901.5313,295.5469 Q4902.1563,295.5469 4902.75,295.2813 Q4903.3438,295 4903.9688,294.4219 L4903.9688,297.1406 Z " fill="#000000"/><text fill="#000000" font-family="sans-serif" font-size="14" lengthAdjust="spacing" textLength="253.4492" x="4915" y="296.3467">comp_arc_sta__baselibs__filesystem</text><line style="stroke:#181818;stroke-width:0.5;" x1="4887" x2="5170.4492" y1="307.5" y2="307.5"/></g><!--class logic_arc_int__baselibs__filesystem--><g id="elem_logic_arc_int__baselibs__filesystem"><rect fill="#F1F1F1" height="40" id="logic_arc_int__baselibs__filesystem" rx="2.5" ry="2.5" style="stroke:#181818;stroke-width:0.5;" width="276.4805" x="4881.5" y="158.5"/><ellipse cx="4896.5" cy="174.5" fill="#ADD1B2" rx="11" ry="11" style="stroke:#181818;stroke-width:1;"/><path d="M4899.4688,180.1406 Q4898.8906,180.4375 4898.25,180.5781 Q4897.6094,180.7344 4896.9063,180.7344 Q4894.4063,180.7344 4893.0781,179.0938 Q4891.7656,177.4375 4891.7656,174.3125 Q4891.7656,171.1875 4893.0781,169.5313 Q4894.4063,167.875 4896.9063,167.875 Q4897.6094,167.875 4898.25,168.0313 Q4898.9063,168.1875 4899.4688,168.4844 L4899.4688,171.2031 Q4898.8438,170.625 4898.25,170.3594 Q4897.6563,170.0781 4897.0313,170.0781 Q4895.6875,170.0781 4895,171.1563 Q4894.3125,172.2188 4894.3125,174.3125 Q4894.3125,176.4063 4895,177.4844 Q4895.6875,178.5469 4897.0313,178.5469 Q4897.6563,178.5469 4898.25,178.2813 Q4898.8438,178 4899.4688,177.4219 L4899.4688,180.1406 Z " fill="#000000"/><text fill="#000000" font-family="sans-serif" font-size="14" lengthAdjust="spacing" textLength="244.4805" x="4910.5" y="179.3467">logic_arc_int__baselibs__filesystem</text><line style="stroke:#181818;stroke-width:0.5;" x1="4882.5" x2="5156.9805" y1="190.5" y2="190.5"/></g><!--class comp_arc_sta__baselibs__message_passing--><g id="elem_comp_arc_sta__baselibs__message_passing"><rect fill="#F1F1F1" height="40" id="comp_arc_sta__baselibs__message_passing" rx="2.5" ry="2.5" style="stroke:#181818;stroke-width:0.5;" width="337.1357" x="4514" y="275.5"/><ellipse cx="4529" cy="291.5" fill="#ADD1B2" rx="11" ry="11" style="stroke:#181818;stroke-width:1;"/><path d="M4531.9688,297.1406 Q4531.3906,297.4375 4530.75,297.5781 Q4530.1094,297.7344 4529.4063,297.7344 Q4526.9063,297.7344 4525.5781,296.0938 Q4524.2656,294.4375 4524.2656,291.3125 Q4524.2656,288.1875 4525.5781,286.5313 Q4526.9063,284.875 4529.4063,284.875 Q4530.1094,284.875 4530.75,285.0313 Q4531.4063,285.1875 4531.9688,285.4844 L4531.9688,288.2031 Q4531.3438,287.625 4530.75,287.3594 Q4530.1563,287.0781 4529.5313,287.0781 Q4528.1875,287.0781 4527.5,288.1563 Q4526.8125,289.2188 4526.8125,291.3125 Q4526.8125,293.4063 4527.5,294.4844 Q4528.1875,295.5469 4529.5313,295.5469 Q4530.1563,295.5469 4530.75,295.2813 Q4531.3438,295 4531.9688,294.4219 L4531.9688,297.1406 Z " fill="#000000"/><text fill="#000000" font-family="sans-serif" font-size="14" lengthAdjust="spacing" textLength="305.1357" x="4543" y="296.3467">comp_arc_sta__baselibs__message_passing</text><line style="stroke:#181818;stroke-width:0.5;" x1="4515" x2="4850.1357" y1="307.5" y2="307.5"/></g><!--class logic_arc_int__baselibs__message_passing--><g id="elem_logic_arc_int__baselibs__message_passing"><rect fill="#F1F1F1" height="40" id="logic_arc_int__baselibs__message_passing" rx="2.5" ry="2.5" style="stroke:#181818;stroke-width:0.5;" width="328.167" x="4518.5" y="158.5"/><ellipse cx="4533.5" cy="174.5" fill="#ADD1B2" rx="11" ry="11" style="stroke:#181818;stroke-width:1;"/><path d="M4536.4688,180.1406 Q4535.8906,180.4375 4535.25,180.5781 Q4534.6094,180.7344 4533.9063,180.7344 Q4531.4063,180.7344 4530.0781,179.0938 Q4528.7656,177.4375 4528.7656,174.3125 Q4528.7656,171.1875 4530.0781,169.5313 Q4531.4063,167.875 4533.9063,167.875 Q4534.6094,167.875 4535.25,168.0313 Q4535.9063,168.1875 4536.4688,168.4844 L4536.4688,171.2031 Q4535.8438,170.625 4535.25,170.3594 Q4534.6563,170.0781 4534.0313,170.0781 Q4532.6875,170.0781 4532,171.1563 Q4531.3125,172.2188 4531.3125,174.3125 Q4531.3125,176.4063 4532,177.4844 Q4532.6875,178.5469 4534.0313,178.5469 Q4534.6563,178.5469 4535.25,178.2813 Q4535.8438,178 4536.4688,177.4219 L4536.4688,180.1406 Z " fill="#000000"/><text fill="#000000" font-family="sans-serif" font-size="14" lengthAdjust="spacing" textLength="296.167" x="4547.5" y="179.3467">logic_arc_int__baselibs__message_passing</text><line style="stroke:#181818;stroke-width:0.5;" x1="4519.5" x2="4845.667" y1="190.5" y2="190.5"/></g><!--class logic_arc_int__baselibs__synchronized_queue--><g id="elem_logic_arc_int__baselibs__synchronized_queue"><rect fill="#F1F1F1" height="40" id="logic_arc_int__baselibs__synchronized_queue" rx="2.5" ry="2.5" style="stroke:#181818;stroke-width:0.5;" width="348.3604" x="1572.5" y="158.5"/><ellipse cx="1587.5" cy="174.5" fill="#ADD1B2" rx="11" ry="11" style="stroke:#181818;stroke-width:1;"/><path d="M1590.4688,180.1406 Q1589.8906,180.4375 1589.25,180.5781 Q1588.6094,180.7344 1587.9063,180.7344 Q1585.4063,180.7344 1584.0781,179.0938 Q1582.7656,177.4375 1582.7656,174.3125 Q1582.7656,171.1875 1584.0781,169.5313 Q1585.4063,167.875 1587.9063,167.875 Q1588.6094,167.875 1589.25,168.0313 Q1589.9063,168.1875 1590.4688,168.4844 L1590.4688,171.2031 Q1589.8438,170.625 1589.25,170.3594 Q1588.6563,170.0781 1588.0313,170.0781 Q1586.6875,170.0781 1586,171.1563 Q1585.3125,172.2188 1585.3125,174.3125 Q1585.3125,176.4063 1586,177.4844 Q1586.6875,178.5469 1588.0313,178.5469 Q1588.6563,178.5469 1589.25,178.2813 Q1589.8438,178 1590.4688,177.4219 L1590.4688,180.1406 Z " fill="#000000"/><text fill="#000000" font-family="sans-serif" font-size="14" lengthAdjust="spacing" textLength="316.3604" x="1601.5" y="179.3467">logic_arc_int__baselibs__synchronized_queue</text><line style="stroke:#181818;stroke-width:0.5;" x1="1573.5" x2="1919.8604" y1="190.5" y2="190.5"/></g><!--class logic_arc_int__baselibs__condition_variable--><g id="elem_logic_arc_int__baselibs__condition_variable"><rect fill="#F1F1F1" height="40" id="logic_arc_int__baselibs__condition_variable" rx="2.5" ry="2.5" style="stroke:#181818;stroke-width:0.5;" width="332.7539" x="291" y="158.5"/><ellipse cx="306" cy="174.5" fill="#ADD1B2" rx="11" ry="11" style="stroke:#181818;stroke-width:1;"/><path d="M308.9688,180.1406 Q308.3906,180.4375 307.75,180.5781 Q307.1094,180.7344 306.4063,180.7344 Q303.9063,180.7344 302.5781,179.0938 Q301.2656,177.4375 301.2656,174.3125 Q301.2656,171.1875 302.5781,169.5313 Q303.9063,167.875 306.4063,167.875 Q307.1094,167.875 307.75,168.0313 Q308.4063,168.1875 308.9688,168.4844 L308.9688,171.2031 Q308.3438,170.625 307.75,170.3594 Q307.1563,170.0781 306.5313,170.0781 Q305.1875,170.0781 304.5,171.1563 Q303.8125,172.2188 303.8125,174.3125 Q303.8125,176.4063 304.5,177.4844 Q305.1875,178.5469 306.5313,178.5469 Q307.1563,178.5469 307.75,178.2813 Q308.3438,178 308.9688,177.4219 L308.9688,180.1406 Z " fill="#000000"/><text fill="#000000" font-family="sans-serif" font-size="14" lengthAdjust="spacing" textLength="300.7539" x="320" y="179.3467">logic_arc_int__baselibs__condition_variable</text><line style="stroke:#181818;stroke-width:0.5;" x1="292" x2="622.7539" y1="190.5" y2="190.5"/></g><!--class logic_arc_int__baselibs__utils_scoped_op--><g id="elem_logic_arc_int__baselibs__utils_scoped_op"><rect fill="#F1F1F1" height="40" id="logic_arc_int__baselibs__utils_scoped_op" rx="2.5" ry="2.5" style="stroke:#181818;stroke-width:0.5;" width="315.377" x="2845" y="158.5"/><ellipse cx="2860" cy="174.5" fill="#ADD1B2" rx="11" ry="11" style="stroke:#181818;stroke-width:1;"/><path d="M2862.9688,180.1406 Q2862.3906,180.4375 2861.75,180.5781 Q2861.1094,180.7344 2860.4063,180.7344 Q2857.9063,180.7344 2856.5781,179.0938 Q2855.2656,177.4375 2855.2656,174.3125 Q2855.2656,171.1875 2856.5781,169.5313 Q2857.9063,167.875 2860.4063,167.875 Q2861.1094,167.875 2861.75,168.0313 Q2862.4063,168.1875 2862.9688,168.4844 L2862.9688,171.2031 Q2862.3438,170.625 2861.75,170.3594 Q2861.1563,170.0781 2860.5313,170.0781 Q2859.1875,170.0781 2858.5,171.1563 Q2857.8125,172.2188 2857.8125,174.3125 Q2857.8125,176.4063 2858.5,177.4844 Q2859.1875,178.5469 2860.5313,178.5469 Q2861.1563,178.5469 2861.75,178.2813 Q2862.3438,178 2862.9688,177.4219 L2862.9688,180.1406 Z " fill="#000000"/><text fill="#000000" font-family="sans-serif" font-size="14" lengthAdjust="spacing" textLength="283.377" x="2874" y="179.3467">logic_arc_int__baselibs__utils_scoped_op</text><line style="stroke:#181818;stroke-width:0.5;" x1="2846" x2="3159.377" y1="190.5" y2="190.5"/></g><!--class logic_arc_int__baselibs__future--><g id="elem_logic_arc_int__baselibs__future"><rect fill="#F1F1F1" height="40" id="logic_arc_int__baselibs__future" rx="2.5" ry="2.5" style="stroke:#181818;stroke-width:0.5;" width="247.0791" x="2225" y="158.5"/><ellipse cx="2240" cy="174.5" fill="#ADD1B2" rx="11" ry="11" style="stroke:#181818;stroke-width:1;"/><path d="M2242.9688,180.1406 Q2242.3906,180.4375 2241.75,180.5781 Q2241.1094,180.7344 2240.4063,180.7344 Q2237.9063,180.7344 2236.5781,179.0938 Q2235.2656,177.4375 2235.2656,174.3125 Q2235.2656,171.1875 2236.5781,169.5313 Q2237.9063,167.875 2240.4063,167.875 Q2241.1094,167.875 2241.75,168.0313 Q2242.4063,168.1875 2242.9688,168.4844 L2242.9688,171.2031 Q2242.3438,170.625 2241.75,170.3594 Q2241.1563,170.0781 2240.5313,170.0781 Q2239.1875,170.0781 2238.5,171.1563 Q2237.8125,172.2188 2237.8125,174.3125 Q2237.8125,176.4063 2238.5,177.4844 Q2239.1875,178.5469 2240.5313,178.5469 Q2241.1563,178.5469 2241.75,178.2813 Q2242.3438,178 2242.9688,177.4219 L2242.9688,180.1406 Z " fill="#000000"/><text fill="#000000" font-family="sans-serif" font-size="14" lengthAdjust="spacing" textLength="215.0791" x="2254" y="179.3467">logic_arc_int__baselibs__future</text><line style="stroke:#181818;stroke-width:0.5;" x1="2226" x2="2471.0791" y1="190.5" y2="190.5"/></g><!--class comp_arc_sta__baselibs__json--><g id="elem_comp_arc_sta__baselibs__json"><rect fill="#F1F1F1" height="40" id="comp_arc_sta__baselibs__json" rx="2.5" ry="2.5" style="stroke:#181818;stroke-width:0.5;" width="242.1367" x="4236.5" y="275.5"/><ellipse cx="4251.5" cy="291.5" fill="#ADD1B2" rx="11" ry="11" style="stroke:#181818;stroke-width:1;"/><path d="M4254.4688,297.1406 Q4253.8906,297.4375 4253.25,297.5781 Q4252.6094,297.7344 4251.9063,297.7344 Q4249.4063,297.7344 4248.0781,296.0938 Q4246.7656,294.4375 4246.7656,291.3125 Q4246.7656,288.1875 4248.0781,286.5313 Q4249.4063,284.875 4251.9063,284.875 Q4252.6094,284.875 4253.25,285.0313 Q4253.9063,285.1875 4254.4688,285.4844 L4254.4688,288.2031 Q4253.8438,287.625 4253.25,287.3594 Q4252.6563,287.0781 4252.0313,287.0781 Q4250.6875,287.0781 4250,288.1563 Q4249.3125,289.2188 4249.3125,291.3125 Q4249.3125,293.4063 4250,294.4844 Q4250.6875,295.5469 4252.0313,295.5469 Q4252.6563,295.5469 4253.25,295.2813 Q4253.8438,295 4254.4688,294.4219 L4254.4688,297.1406 Z " fill="#000000"/><text fill="#000000" font-family="sans-serif" font-size="14" lengthAdjust="spacing" textLength="210.1367" x="4265.5" y="296.3467">comp_arc_sta__baselibs__json</text><line style="stroke:#181818;stroke-width:0.5;" x1="4237.5" x2="4477.6367" y1="307.5" y2="307.5"/></g><!--class logic_arc_int__baselibs__json--><g id="elem_logic_arc_int__baselibs__json"><rect fill="#F1F1F1" height="40" id="logic_arc_int__baselibs__json" rx="2.5" ry="2.5" style="stroke:#181818;stroke-width:0.5;" width="233.168" x="4250" y="158.5"/><ellipse cx="4265" cy="174.5" fill="#ADD1B2" rx="11" ry="11" style="stroke:#181818;stroke-width:1;"/><path d="M4267.9688,180.1406 Q4267.3906,180.4375 4266.75,180.5781 Q4266.1094,180.7344 4265.4063,180.7344 Q4262.9063,180.7344 4261.5781,179.0938 Q4260.2656,177.4375 4260.2656,174.3125 Q4260.2656,171.1875 4261.5781,169.5313 Q4262.9063,167.875 4265.4063,167.875 Q4266.1094,167.875 4266.75,168.0313 Q4267.4063,168.1875 4267.9688,168.4844 L4267.9688,171.2031 Q4267.3438,170.625 4266.75,170.3594 Q4266.1563,170.0781 4265.5313,170.0781 Q4264.1875,170.0781 4263.5,171.1563 Q4262.8125,172.2188 4262.8125,174.3125 Q4262.8125,176.4063 4263.5,177.4844 Q4264.1875,178.5469 4265.5313,178.5469 Q4266.1563,178.5469 4266.75,178.2813 Q4267.3438,178 4267.9688,177.4219 L4267.9688,180.1406 Z " fill="#000000"/><text fill="#000000" font-family="sans-serif" font-size="14" lengthAdjust="spacing" textLength="201.168" x="4279" y="179.3467">logic_arc_int__baselibs__json</text><line style="stroke:#181818;stroke-width:0.5;" x1="4251" x2="4482.168" y1="190.5" y2="190.5"/></g><!--class logic_arc_int__baselibs__dynamic_array--><g id="elem_logic_arc_int__baselibs__dynamic_array"><rect fill="#F1F1F1" height="40" id="logic_arc_int__baselibs__dynamic_array" rx="2.5" ry="2.5" style="stroke:#181818;stroke-width:0.5;" width="308.3496" x="5192.5" y="158.5"/><ellipse cx="5207.5" cy="174.5" fill="#ADD1B2" rx="11" ry="11" style="stroke:#181818;stroke-width:1;"/><path d="M5210.4688,180.1406 Q5209.8906,180.4375 5209.25,180.5781 Q5208.6094,180.7344 5207.9063,180.7344 Q5205.4063,180.7344 5204.0781,179.0938 Q5202.7656,177.4375 5202.7656,174.3125 Q5202.7656,171.1875 5204.0781,169.5313 Q5205.4063,167.875 5207.9063,167.875 Q5208.6094,167.875 5209.25,168.0313 Q5209.9063,168.1875 5210.4688,168.4844 L5210.4688,171.2031 Q5209.8438,170.625 5209.25,170.3594 Q5208.6563,170.0781 5208.0313,170.0781 Q5206.6875,170.0781 5206,171.1563 Q5205.3125,172.2188 5205.3125,174.3125 Q5205.3125,176.4063 5206,177.4844 Q5206.6875,178.5469 5208.0313,178.5469 Q5208.6563,178.5469 5209.25,178.2813 Q5209.8438,178 5210.4688,177.4219 L5210.4688,180.1406 Z " fill="#000000"/><text fill="#000000" font-family="sans-serif" font-size="14" lengthAdjust="spacing" textLength="276.3496" x="5221.5" y="179.3467">logic_arc_int__baselibs__dynamic_array</text><line style="stroke:#181818;stroke-width:0.5;" x1="5193.5" x2="5499.8496" y1="190.5" y2="190.5"/></g><!--class logic_arc_int__baselibs__promise--><g id="elem_logic_arc_int__baselibs__promise"><rect fill="#F1F1F1" height="40" id="logic_arc_int__baselibs__promise" rx="2.5" ry="2.5" style="stroke:#181818;stroke-width:0.5;" width="261.1885" x="975" y="158.5"/><ellipse cx="990" cy="174.5" fill="#ADD1B2" rx="11" ry="11" style="stroke:#181818;stroke-width:1;"/><path d="M992.9688,180.1406 Q992.3906,180.4375 991.75,180.5781 Q991.1094,180.7344 990.4063,180.7344 Q987.9063,180.7344 986.5781,179.0938 Q985.2656,177.4375 985.2656,174.3125 Q985.2656,171.1875 986.5781,169.5313 Q987.9063,167.875 990.4063,167.875 Q991.1094,167.875 991.75,168.0313 Q992.4063,168.1875 992.9688,168.4844 L992.9688,171.2031 Q992.3438,170.625 991.75,170.3594 Q991.1563,170.0781 990.5313,170.0781 Q989.1875,170.0781 988.5,171.1563 Q987.8125,172.2188 987.8125,174.3125 Q987.8125,176.4063 988.5,177.4844 Q989.1875,178.5469 990.5313,178.5469 Q991.1563,178.5469 991.75,178.2813 Q992.3438,178 992.9688,177.4219 L992.9688,180.1406 Z " fill="#000000"/><text fill="#000000" font-family="sans-serif" font-size="14" lengthAdjust="spacing" textLength="229.1885" x="1004" y="179.3467">logic_arc_int__baselibs__promise</text><line style="stroke:#181818;stroke-width:0.5;" x1="976" x2="1235.1885" y1="190.5" y2="190.5"/></g><!--class logic_arc_int__baselibs__task_result--><g id="elem_logic_arc_int__baselibs__task_result"><rect fill="#F1F1F1" height="40" id="logic_arc_int__baselibs__task_result" rx="2.5" ry="2.5" style="stroke:#181818;stroke-width:0.5;" width="280.9307" x="659" y="158.5"/><ellipse cx="674" cy="174.5" fill="#ADD1B2" rx="11" ry="11" style="stroke:#181818;stroke-width:1;"/><path d="M676.9688,180.1406 Q676.3906,180.4375 675.75,180.5781 Q675.1094,180.7344 674.4063,180.7344 Q671.9063,180.7344 670.5781,179.0938 Q669.2656,177.4375 669.2656,174.3125 Q669.2656,171.1875 670.5781,169.5313 Q671.9063,167.875 674.4063,167.875 Q675.1094,167.875 675.75,168.0313 Q676.4063,168.1875 676.9688,168.4844 L676.9688,171.2031 Q676.3438,170.625 675.75,170.3594 Q675.1563,170.0781 674.5313,170.0781 Q673.1875,170.0781 672.5,171.1563 Q671.8125,172.2188 671.8125,174.3125 Q671.8125,176.4063 672.5,177.4844 Q673.1875,178.5469 674.5313,178.5469 Q675.1563,178.5469 675.75,178.2813 Q676.3438,178 676.9688,177.4219 L676.9688,180.1406 Z " fill="#000000"/><text fill="#000000" font-family="sans-serif" font-size="14" lengthAdjust="spacing" textLength="248.9307" x="688" y="179.3467">logic_arc_int__baselibs__task_result</text><line style="stroke:#181818;stroke-width:0.5;" x1="660" x2="938.9307" y1="190.5" y2="190.5"/></g><!--class logic_arc_int__baselibs__shared_future--><g id="elem_logic_arc_int__baselibs__shared_future"><rect fill="#F1F1F1" height="40" id="logic_arc_int__baselibs__shared_future" rx="2.5" ry="2.5" style="stroke:#181818;stroke-width:0.5;" width="302.0811" x="2507.5" y="158.5"/><ellipse cx="2522.5" cy="174.5" fill="#ADD1B2" rx="11" ry="11" style="stroke:#181818;stroke-width:1;"/><path d="M2525.4688,180.1406 Q2524.8906,180.4375 2524.25,180.5781 Q2523.6094,180.7344 2522.9063,180.7344 Q2520.4063,180.7344 2519.0781,179.0938 Q2517.7656,177.4375 2517.7656,174.3125 Q2517.7656,171.1875 2519.0781,169.5313 Q2520.4063,167.875 2522.9063,167.875 Q2523.6094,167.875 2524.25,168.0313 Q2524.9063,168.1875 2525.4688,168.4844 L2525.4688,171.2031 Q2524.8438,170.625 2524.25,170.3594 Q2523.6563,170.0781 2523.0313,170.0781 Q2521.6875,170.0781 2521,171.1563 Q2520.3125,172.2188 2520.3125,174.3125 Q2520.3125,176.4063 2521,177.4844 Q2521.6875,178.5469 2523.0313,178.5469 Q2523.6563,178.5469 2524.25,178.2813 Q2524.8438,178 2525.4688,177.4219 L2525.4688,180.1406 Z " fill="#000000"/><text fill="#000000" font-family="sans-serif" font-size="14" lengthAdjust="spacing" textLength="270.0811" x="2536.5" y="179.3467">logic_arc_int__baselibs__shared_future</text><line style="stroke:#181818;stroke-width:0.5;" x1="2508.5" x2="2808.5811" y1="190.5" y2="190.5"/></g><!--class comp_arc_sta__baselibs__result--><g id="elem_comp_arc_sta__baselibs__result"><rect fill="#F1F1F1" height="40" id="comp_arc_sta__baselibs__result" rx="2.5" ry="2.5" style="stroke:#181818;stroke-width:0.5;" width="253.4297" x="7" y="275.5"/><ellipse cx="22" cy="291.5" fill="#ADD1B2" rx="11" ry="11" style="stroke:#181818;stroke-width:1;"/><path d="M24.9688,297.1406 Q24.3906,297.4375 23.75,297.5781 Q23.1094,297.7344 22.4063,297.7344 Q19.9063,297.7344 18.5781,296.0938 Q17.2656,294.4375 17.2656,291.3125 Q17.2656,288.1875 18.5781,286.5313 Q19.9063,284.875 22.4063,284.875 Q23.1094,284.875 23.75,285.0313 Q24.4063,285.1875 24.9688,285.4844 L24.9688,288.2031 Q24.3438,287.625 23.75,287.3594 Q23.1563,287.0781 22.5313,287.0781 Q21.1875,287.0781 20.5,288.1563 Q19.8125,289.2188 19.8125,291.3125 Q19.8125,293.4063 20.5,294.4844 Q21.1875,295.5469 22.5313,295.5469 Q23.1563,295.5469 23.75,295.2813 Q24.3438,295 24.9688,294.4219 L24.9688,297.1406 Z " fill="#000000"/><text fill="#000000" font-family="sans-serif" font-size="14" lengthAdjust="spacing" textLength="221.4297" x="36" y="296.3467">comp_arc_sta__baselibs__result</text><line style="stroke:#181818;stroke-width:0.5;" x1="8" x2="259.4297" y1="307.5" y2="307.5"/></g><!--reverse link logic_arc_int__baselibs__intrusive_list to comp_arc_sta__baselibs__containers--><g id="link_logic_arc_int__baselibs__intrusive_list_comp_arc_sta__baselibs__containers"><path codeLine="15" d="M5645.0453,201.8206 C5609.3053,223.1106 5557.23,254.14 5521.59,275.38 " fill="transparent" id="logic_arc_int__baselibs__intrusive_list-backto-comp_arc_sta__baselibs__containers" style="stroke:#181818;stroke-width:1;"/><polygon fill="#181818" points="5650.2,198.75,5640.4208,199.9195,5645.9044,201.3089,5644.515,206.7924,5650.2,198.75" style="stroke:#181818;stroke-width:1;"/><text fill="#000000" font-family="sans-serif" font-size="13" lengthAdjust="spacing" textLength="76.9082" x="5599.5" y="241.5669">implements</text></g><!--reverse link logic_arc_int__baselibs__task to comp_arc_sta__baselibs__concurrency--><g id="link_logic_arc_int__baselibs__task_comp_arc_sta__baselibs__concurrency"><path codeLine="16" d="M1984.3045,199.9027 C1892.3045,221.1927 1750.07,254.11 1658.01,275.41 " fill="transparent" id="logic_arc_int__baselibs__task-backto-comp_arc_sta__baselibs__concurrency" style="stroke:#181818;stroke-width:1;"/><polygon fill="#181818" points="1990.15,198.55,1980.4799,196.6821,1985.2787,199.6773,1982.2835,204.4761,1990.15,198.55" style="stroke:#181818;stroke-width:1;"/><text fill="#000000" font-family="sans-serif" font-size="13" lengthAdjust="spacing" textLength="76.9082" x="1855.5" y="241.5669">implements</text></g><!--reverse link logic_arc_int__baselibs__bit_mask_operator to comp_arc_sta__baselibs__bit_manipulation--><g id="link_logic_arc_int__baselibs__bit_mask_operator_comp_arc_sta__baselibs__bit_manipulation"><path codeLine="17" d="M4006.5701,201.6001 C3967.1301,222.8901 3909.25,254.14 3869.91,275.38 " fill="transparent" id="logic_arc_int__baselibs__bit_mask_operator-backto-comp_arc_sta__baselibs__bit_manipulation" style="stroke:#181818;stroke-width:1;"/><polygon fill="#181818" points="4011.85,198.75,4002.0301,199.5053,4007.4501,201.1251,4005.8303,206.5451,4011.85,198.75" style="stroke:#181818;stroke-width:1;"/><text fill="#000000" font-family="sans-serif" font-size="13" lengthAdjust="spacing" textLength="76.9082" x="3955.5" y="241.5669">implements</text></g><!--reverse link logic_arc_int__baselibs__executor to comp_arc_sta__baselibs__concurrency--><g id="link_logic_arc_int__baselibs__executor_comp_arc_sta__baselibs__concurrency"><path codeLine="18" d="M1438.099,202.0981 C1469.759,223.3881 1515.49,254.14 1547.07,275.38 " fill="transparent" id="logic_arc_int__baselibs__executor-backto-comp_arc_sta__baselibs__concurrency" style="stroke:#181818;stroke-width:1;"/><polygon fill="#181818" points="1433.12,198.75,1438.3563,207.0915,1437.2691,201.5401,1442.8205,200.4529,1433.12,198.75" style="stroke:#181818;stroke-width:1;"/><text fill="#000000" font-family="sans-serif" font-size="13" lengthAdjust="spacing" textLength="76.9082" x="1501.5" y="241.5669">implements</text></g><!--link Feature_User to logic_arc_int__baselibs__result--><g id="link_Feature_User_logic_arc_int__baselibs__result"><path codeLine="19" d="M2957.47,45.42 C2738.99,49.98 1767.55,71.66 972.5,111.5 C661.52,127.08 583.28,127.1 273.5,158.5 C267.64,159.09 267.6112,159.059 261.5712,159.749 " fill="transparent" id="Feature_User-to-logic_arc_int__baselibs__result" style="stroke:#181818;stroke-width:1;"/><polygon fill="#181818" points="255.61,160.43,265.0058,163.3827,260.5777,159.8625,264.0978,155.4343,255.61,160.43" style="stroke:#181818;stroke-width:1;"/><text fill="#000000" font-family="sans-serif" font-size="13" lengthAdjust="spacing" textLength="23.0103" x="973.5" y="124.5669">use</text></g><!--link Feature_User to logic_arc_int__baselibs__bit_manipulation--><g id="link_Feature_User_logic_arc_int__baselibs__bit_manipulation"><path codeLine="20" d="M3047.71,53.33 C3156.81,74.64 3430.6213,128.1097 3580.0513,157.2997 " fill="transparent" id="Feature_User-to-logic_arc_int__baselibs__bit_manipulation" style="stroke:#181818;stroke-width:1;"/><polygon fill="#181818" points="3585.94,158.45,3577.8738,152.7987,3581.0328,157.4914,3576.3401,160.6503,3585.94,158.45" style="stroke:#181818;stroke-width:1;"/><text fill="#000000" font-family="sans-serif" font-size="13" lengthAdjust="spacing" textLength="23.0103" x="3425.5" y="124.5669">use</text></g><!--reverse link logic_arc_int__baselibs__memory_shared to comp_arc_sta__baselibs__memory_shared--><g id="link_logic_arc_int__baselibs__memory_shared_comp_arc_sta__baselibs__memory_shared"><path codeLine="21" d="M6023.5,204.75 C6023.5,225.98 6023.5,253.94 6023.5,275.19 " fill="transparent" id="logic_arc_int__baselibs__memory_shared-backto-comp_arc_sta__baselibs__memory_shared" style="stroke:#181818;stroke-width:1;"/><polygon fill="#181818" points="6023.5,198.75,6019.5,207.75,6023.5,203.75,6027.5,207.75,6023.5,198.75" style="stroke:#181818;stroke-width:1;"/><text fill="#000000" font-family="sans-serif" font-size="13" lengthAdjust="spacing" textLength="76.9082" x="6024.5" y="241.5669">implements</text></g><!--reverse link logic_arc_int__baselibs__utils_base64 to comp_arc_sta__baselibs__utils--><g id="link_logic_arc_int__baselibs__utils_base64_comp_arc_sta__baselibs__utils"><path codeLine="22" d="M3308.0799,202.1113 C3276.5999,223.4013 3231.16,254.14 3199.76,275.38 " fill="transparent" id="logic_arc_int__baselibs__utils_base64-backto-comp_arc_sta__baselibs__utils" style="stroke:#181818;stroke-width:1;"/><polygon fill="#181818" points="3313.05,198.75,3303.354,200.4785,3308.9083,201.5511,3307.8357,207.1053,3313.05,198.75" style="stroke:#181818;stroke-width:1;"/><text fill="#000000" font-family="sans-serif" font-size="13" lengthAdjust="spacing" textLength="76.9082" x="3268.5" y="241.5669">implements</text></g><!--reverse link logic_arc_int__baselibs__filesystem to comp_arc_sta__baselibs__filesystem--><g id="link_logic_arc_int__baselibs__filesystem_comp_arc_sta__baselibs__filesystem"><path codeLine="23" d="M5021.4777,204.7317 C5023.1377,225.9617 5025.33,253.94 5026.99,275.19 " fill="transparent" id="logic_arc_int__baselibs__filesystem-backto-comp_arc_sta__baselibs__filesystem" style="stroke:#181818;stroke-width:1;"/><polygon fill="#181818" points="5021.01,198.75,5017.7238,208.0344,5021.3998,203.7348,5025.6994,207.4108,5021.01,198.75" style="stroke:#181818;stroke-width:1;"/><text fill="#000000" font-family="sans-serif" font-size="13" lengthAdjust="spacing" textLength="76.9082" x="5026.5" y="241.5669">implements</text></g><!--link Feature_User to logic_arc_int__baselibs__memory_shared--><g id="link_Feature_User_logic_arc_int__baselibs__memory_shared"><path codeLine="24" d="M3047.81,45.22 C3276.38,48.98 4325.62,67.93 5183.5,111.5 C5478.53,126.48 5552.26,132.29 5846.5,158.5 C5852.35,159.02 5852.3267,159.0044 5858.3467,159.5744 " fill="transparent" id="Feature_User-to-logic_arc_int__baselibs__memory_shared" style="stroke:#181818;stroke-width:1;"/><polygon fill="#181818" points="5864.32,160.14,5855.7371,155.3094,5859.3423,159.6687,5854.983,163.2738,5864.32,160.14" style="stroke:#181818;stroke-width:1;"/><text fill="#000000" font-family="sans-serif" font-size="13" lengthAdjust="spacing" textLength="23.0103" x="5483.5" y="124.5669">use</text></g><!--reverse link logic_arc_int__baselibs__message_passing to comp_arc_sta__baselibs__message_passing--><g id="link_logic_arc_int__baselibs__message_passing_comp_arc_sta__baselibs__message_passing"><path codeLine="25" d="M4682.5,204.75 C4682.5,225.98 4682.5,253.94 4682.5,275.19 " fill="transparent" id="logic_arc_int__baselibs__message_passing-backto-comp_arc_sta__baselibs__message_passing" style="stroke:#181818;stroke-width:1;"/><polygon fill="#181818" points="4682.5,198.75,4678.5,207.75,4682.5,203.75,4686.5,207.75,4682.5,198.75" style="stroke:#181818;stroke-width:1;"/><text fill="#000000" font-family="sans-serif" font-size="13" lengthAdjust="spacing" textLength="76.9082" x="4683.5" y="241.5669">implements</text></g><!--link Feature_User to logic_arc_int__baselibs__utils_base64--><g id="link_Feature_User_logic_arc_int__baselibs__utils_base64"><path codeLine="26" d="M3047.52,62.16 C3111.27,87.18 3221.8142,130.5494 3287.4242,156.2794 " fill="transparent" id="Feature_User-to-logic_arc_int__baselibs__utils_base64" style="stroke:#181818;stroke-width:1;"/><polygon fill="#181818" points="3293.01,158.47,3286.0916,151.4603,3288.3551,156.6445,3283.1709,158.908,3293.01,158.47" style="stroke:#181818;stroke-width:1;"/><text fill="#000000" font-family="sans-serif" font-size="13" lengthAdjust="spacing" textLength="23.0103" x="3213.5" y="124.5669">use</text></g><!--link Feature_User to logic_arc_int__baselibs__synchronized_queue--><g id="link_Feature_User_logic_arc_int__baselibs__synchronized_queue"><path codeLine="27" d="M2957.43,49.27 C2792.26,66.76 2220.4666,127.308 1926.7466,158.418 " fill="transparent" id="Feature_User-to-logic_arc_int__baselibs__synchronized_queue" style="stroke:#181818;stroke-width:1;"/><polygon fill="#181818" points="1920.78,159.05,1930.1512,162.0798,1925.7522,158.5234,1929.3086,154.1243,1920.78,159.05" style="stroke:#181818;stroke-width:1;"/><text fill="#000000" font-family="sans-serif" font-size="13" lengthAdjust="spacing" textLength="23.0103" x="2338.5" y="124.5669">use</text></g><!--link Feature_User to logic_arc_int__baselibs__condition_variable--><g id="link_Feature_User_logic_arc_int__baselibs__condition_variable"><path codeLine="28" d="M2957.46,45.62 C2758.32,50.72 1936.92,73.1 1263.5,111.5 C986.72,127.28 917.63,133.82 641.5,158.5 C635.9,159 636.1837,158.959 630.4337,159.499 " fill="transparent" id="Feature_User-to-logic_arc_int__baselibs__condition_variable" style="stroke:#181818;stroke-width:1;"/><polygon fill="#181818" points="624.46,160.06,633.7946,163.201,629.4381,159.5925,633.0466,155.236,624.46,160.06" style="stroke:#181818;stroke-width:1;"/><text fill="#000000" font-family="sans-serif" font-size="13" lengthAdjust="spacing" textLength="23.0103" x="1264.5" y="124.5669">use</text></g><!--link Feature_User to logic_arc_int__baselibs__utils_scoped_op--><g id="link_Feature_User_logic_arc_int__baselibs__utils_scoped_op"><path codeLine="29" d="M3002.5,81.55 C3002.5,106.45 3002.5,132.26 3002.5,152.26 " fill="transparent" id="Feature_User-to-logic_arc_int__baselibs__utils_scoped_op" style="stroke:#181818;stroke-width:1;"/><polygon fill="#181818" points="3002.5,158.26,3006.5,149.26,3002.5,153.26,2998.5,149.26,3002.5,158.26" style="stroke:#181818;stroke-width:1;"/><text fill="#000000" font-family="sans-serif" font-size="13" lengthAdjust="spacing" textLength="23.0103" x="3003.5" y="124.5669">use</text></g><!--link Feature_User to logic_arc_int__baselibs__filesystem--><g id="link_Feature_User_logic_arc_int__baselibs__filesystem"><path codeLine="30" d="M3047.59,46.1 C3255.28,53.72 4140.55,88.86 4863.5,158.5 C4869.34,159.06 4869.3337,159.0247 4875.3437,159.6647 " fill="transparent" id="Feature_User-to-logic_arc_int__baselibs__filesystem" style="stroke:#181818;stroke-width:1;"/><polygon fill="#181818" points="4881.31,160.3,4872.7842,155.3695,4876.3381,159.7705,4871.937,163.3245,4881.31,160.3" style="stroke:#181818;stroke-width:1;"/><text fill="#000000" font-family="sans-serif" font-size="13" lengthAdjust="spacing" textLength="23.0103" x="4509.5" y="124.5669">use</text></g><!--link Feature_User to logic_arc_int__baselibs__future--><g id="link_Feature_User_logic_arc_int__baselibs__future"><path codeLine="31" d="M2957.29,53.69 C2851.25,75.26 2590.6396,128.2541 2447.9696,157.2741 " fill="transparent" id="Feature_User-to-logic_arc_int__baselibs__future" style="stroke:#181818;stroke-width:1;"/><polygon fill="#181818" points="2442.09,158.47,2451.7067,160.5958,2446.9897,157.4734,2450.1121,152.7563,2442.09,158.47" style="stroke:#181818;stroke-width:1;"/><text fill="#000000" font-family="sans-serif" font-size="13" lengthAdjust="spacing" textLength="23.0103" x="2657.5" y="124.5669">use</text></g><!--link Feature_User to logic_arc_int__baselibs__executor--><g id="link_Feature_User_logic_arc_int__baselibs__executor"><path codeLine="32" d="M2957.39,47.27 C2779.1,58.38 2106.37,101.86 1554.5,158.5 C1549.02,159.06 1549.383,158.9951 1543.733,159.6251 " fill="transparent" id="Feature_User-to-logic_arc_int__baselibs__executor" style="stroke:#181818;stroke-width:1;"/><polygon fill="#181818" points="1537.77,160.29,1547.1578,163.268,1542.7392,159.7359,1546.2713,155.3173,1537.77,160.29" style="stroke:#181818;stroke-width:1;"/><text fill="#000000" font-family="sans-serif" font-size="13" lengthAdjust="spacing" textLength="23.0103" x="2033.5" y="124.5669">use</text></g><!--reverse link logic_arc_int__baselibs__json to comp_arc_sta__baselibs__json--><g id="link_logic_arc_int__baselibs__json_comp_arc_sta__baselibs__json"><path codeLine="33" d="M4364.5223,204.7317 C4362.8623,225.9617 4360.67,253.94 4359.01,275.19 " fill="transparent" id="logic_arc_int__baselibs__json-backto-comp_arc_sta__baselibs__json" style="stroke:#181818;stroke-width:1;"/><polygon fill="#181818" points="4364.99,198.75,4360.3006,207.4108,4364.6002,203.7348,4368.2762,208.0344,4364.99,198.75" style="stroke:#181818;stroke-width:1;"/><text fill="#000000" font-family="sans-serif" font-size="13" lengthAdjust="spacing" textLength="76.9082" x="4364.5" y="241.5669">implements</text></g><!--link Feature_User to logic_arc_int__baselibs__dynamic_array--><g id="link_Feature_User_logic_arc_int__baselibs__dynamic_array"><path codeLine="34" d="M3047.53,45.96 C3232.41,52.04 3951.14,76.74 4541.5,111.5 C4823.12,128.08 4893.59,132.56 5174.5,158.5 C5180.33,159.04 5180.3078,159.0327 5186.3078,159.6127 " fill="transparent" id="Feature_User-to-logic_arc_int__baselibs__dynamic_array" style="stroke:#181818;stroke-width:1;"/><polygon fill="#181818" points="5192.28,160.19,5183.7066,155.3426,5187.3032,159.7089,5182.9369,163.3055,5192.28,160.19" style="stroke:#181818;stroke-width:1;"/><text fill="#000000" font-family="sans-serif" font-size="13" lengthAdjust="spacing" textLength="23.0103" x="4817.5" y="124.5669">use</text></g><!--reverse link logic_arc_int__baselibs__dynamic_array to comp_arc_sta__baselibs__containers--><g id="link_logic_arc_int__baselibs__dynamic_array_comp_arc_sta__baselibs__containers"><path codeLine="35" d="M5375.1057,202.51 C5401.5057,223.74 5439.06,253.94 5465.49,275.19 " fill="transparent" id="logic_arc_int__baselibs__dynamic_array-backto-comp_arc_sta__baselibs__containers" style="stroke:#181818;stroke-width:1;"/><polygon fill="#181818" points="5370.43,198.75,5374.9368,207.5072,5374.3264,201.8834,5379.9502,201.2729,5370.43,198.75" style="stroke:#181818;stroke-width:1;"/><text fill="#000000" font-family="sans-serif" font-size="13" lengthAdjust="spacing" textLength="76.9082" x="5428.5" y="241.5669">implements</text></g><!--link Feature_User to logic_arc_int__baselibs__json--><g id="link_Feature_User_logic_arc_int__baselibs__json"><path codeLine="36" d="M3047.54,47.88 C3208.54,60.14 3770.56,104.38 4232.5,158.5 C4238.22,159.17 4238.1166,159.1433 4244.0166,159.8833 " fill="transparent" id="Feature_User-to-logic_arc_int__baselibs__json" style="stroke:#181818;stroke-width:1;"/><polygon fill="#181818" points="4249.97,160.63,4241.5378,155.5411,4245.0089,160.0078,4240.5422,163.4789,4249.97,160.63" style="stroke:#181818;stroke-width:1;"/><text fill="#000000" font-family="sans-serif" font-size="13" lengthAdjust="spacing" textLength="23.0103" x="3930.5" y="124.5669">use</text></g><!--reverse link logic_arc_int__baselibs__promise to comp_arc_sta__baselibs__concurrency--><g id="link_logic_arc_int__baselibs__promise_comp_arc_sta__baselibs__concurrency"><path codeLine="37" d="M1189.1981,199.976 C1276.2081,221.266 1410.41,254.11 1497.47,275.41 " fill="transparent" id="logic_arc_int__baselibs__promise-backto-comp_arc_sta__baselibs__concurrency" style="stroke:#181818;stroke-width:1;"/><polygon fill="#181818" points="1183.37,198.55,1191.1614,204.5744,1188.2267,199.7384,1193.0628,196.8037,1183.37,198.55" style="stroke:#181818;stroke-width:1;"/><text fill="#000000" font-family="sans-serif" font-size="13" lengthAdjust="spacing" textLength="76.9082" x="1370.5" y="241.5669">implements</text></g><!--reverse link logic_arc_int__baselibs__task_result to comp_arc_sta__baselibs__concurrency--><g id="link_logic_arc_int__baselibs__task_result_comp_arc_sta__baselibs__concurrency"><path codeLine="38" d="M925.4574,199.4407 C1010.9874,212.8707 1122.79,230.21 1226.5,245.5 C1295.66,255.7 1372.6,266.55 1436.6,275.45 " fill="transparent" id="logic_arc_int__baselibs__task_result-backto-comp_arc_sta__baselibs__concurrency" style="stroke:#181818;stroke-width:1;"/><polygon fill="#181818" points="919.53,198.51,927.8006,203.8577,924.4695,199.2856,929.0415,195.9545,919.53,198.51" style="stroke:#181818;stroke-width:1;"/><text fill="#000000" font-family="sans-serif" font-size="13" lengthAdjust="spacing" textLength="76.9082" x="1227.5" y="241.5669">implements</text></g><!--link Feature_User to logic_arc_int__baselibs__bit_mask_operator--><g id="link_Feature_User_logic_arc_int__baselibs__bit_mask_operator"><path codeLine="39" d="M3047.74,50.26 C3193.67,68.83 3650.488,126.9724 3891.838,157.6924 " fill="transparent" id="Feature_User-to-logic_arc_int__baselibs__bit_mask_operator" style="stroke:#181818;stroke-width:1;"/><polygon fill="#181818" points="3897.79,158.45,3889.3671,153.3456,3892.83,157.8187,3888.357,161.2816,3897.79,158.45" style="stroke:#181818;stroke-width:1;"/><text fill="#000000" font-family="sans-serif" font-size="13" lengthAdjust="spacing" textLength="23.0103" x="3650.5" y="124.5669">use</text></g><!--link Feature_User to logic_arc_int__baselibs__intrusive_list--><g id="link_Feature_User_logic_arc_int__baselibs__intrusive_list"><path codeLine="40" d="M3047.53,45.57 C3254,50.59 4130.97,73.2 4849.5,111.5 C5146.7,127.34 5221.15,131.03 5517.5,158.5 C5523.53,159.06 5523.7106,159.0444 5529.9206,159.6744 " fill="transparent" id="Feature_User-to-logic_arc_int__baselibs__intrusive_list" style="stroke:#181818;stroke-width:1;"/><polygon fill="#181818" points="5535.89,160.28,5527.3397,155.392,5530.9155,159.7753,5526.5322,163.3512,5535.89,160.28" style="stroke:#181818;stroke-width:1;"/><text fill="#000000" font-family="sans-serif" font-size="13" lengthAdjust="spacing" textLength="23.0103" x="5151.5" y="124.5669">use</text></g><!--reverse link logic_arc_int__baselibs__condition_variable to comp_arc_sta__baselibs__concurrency--><g id="link_logic_arc_int__baselibs__condition_variable_comp_arc_sta__baselibs__concurrency"><path codeLine="41" d="M621.2784,199.2255 C737.4084,212.9755 893.2,230.92 1035.5,245.5 C1167.07,258.98 1316.88,272.42 1425.27,281.81 " fill="transparent" id="logic_arc_int__baselibs__condition_variable-backto-comp_arc_sta__baselibs__concurrency" style="stroke:#181818;stroke-width:1;"/><polygon fill="#181818" points="615.32,198.52,623.7872,203.5505,620.2853,199.1079,624.7279,195.606,615.32,198.52" style="stroke:#181818;stroke-width:1;"/><text fill="#000000" font-family="sans-serif" font-size="13" lengthAdjust="spacing" textLength="76.9082" x="1036.5" y="241.5669">implements</text></g><!--link Feature_User to logic_arc_int__baselibs__task--><g id="link_Feature_User_logic_arc_int__baselibs__task"><path codeLine="42" d="M2957.33,50.96 C2818.83,70.77 2402.9296,130.2405 2195.7596,159.8705 " fill="transparent" id="Feature_User-to-logic_arc_int__baselibs__task" style="stroke:#181818;stroke-width:1;"/><polygon fill="#181818" points="2189.82,160.72,2199.2957,163.4055,2194.7696,160.0121,2198.163,155.4861,2189.82,160.72" style="stroke:#181818;stroke-width:1;"/><text fill="#000000" font-family="sans-serif" font-size="13" lengthAdjust="spacing" textLength="23.0103" x="2511.5" y="124.5669">use</text></g><!--reverse link logic_arc_int__baselibs__utils_scoped_op to comp_arc_sta__baselibs__utils--><g id="link_logic_arc_int__baselibs__utils_scoped_op_comp_arc_sta__baselibs__utils"><path codeLine="43" d="M3035.7506,202.1252 C3067.0406,223.4152 3112.19,254.14 3143.4,275.38 " fill="transparent" id="logic_arc_int__baselibs__utils_scoped_op-backto-comp_arc_sta__baselibs__utils" style="stroke:#181818;stroke-width:1;"/><polygon fill="#181818" points="3030.79,198.75,3035.9808,207.1199,3034.9238,201.5627,3040.4811,200.5058,3030.79,198.75" style="stroke:#181818;stroke-width:1;"/><text fill="#000000" font-family="sans-serif" font-size="13" lengthAdjust="spacing" textLength="76.9082" x="3098.5" y="241.5669">implements</text></g><!--link Feature_User to logic_arc_int__baselibs__promise--><g id="link_Feature_User_logic_arc_int__baselibs__promise"><path codeLine="44" d="M2957.46,46.15 C2757.43,53.73 1929.54,87.99 1253.5,158.5 C1247.83,159.09 1248.002,159.0462 1242.162,159.7062 " fill="transparent" id="Feature_User-to-logic_arc_int__baselibs__promise" style="stroke:#181818;stroke-width:1;"/><polygon fill="#181818" points="1236.2,160.38,1245.5923,163.344,1241.1684,159.8185,1244.6939,155.3946,1236.2,160.38" style="stroke:#181818;stroke-width:1;"/><text fill="#000000" font-family="sans-serif" font-size="13" lengthAdjust="spacing" textLength="23.0103" x="1782.5" y="124.5669">use</text></g><!--reverse link logic_arc_int__baselibs__future to comp_arc_sta__baselibs__concurrency--><g id="link_logic_arc_int__baselibs__future_comp_arc_sta__baselibs__concurrency"><path codeLine="45" d="M2230.1417,199.5067 C2148.2717,213.1567 2040.58,230.69 1940.5,245.5 C1869.35,256.03 1790.24,266.77 1723.92,275.5 " fill="transparent" id="logic_arc_int__baselibs__future-backto-comp_arc_sta__baselibs__concurrency" style="stroke:#181818;stroke-width:1;"/><polygon fill="#181818" points="2236.06,198.52,2226.5247,196.0546,2231.1281,199.3423,2227.8404,203.9457,2236.06,198.52" style="stroke:#181818;stroke-width:1;"/><text fill="#000000" font-family="sans-serif" font-size="13" lengthAdjust="spacing" textLength="76.9082" x="2042.5" y="241.5669">implements</text></g><!--reverse link logic_arc_int__baselibs__bit_manipulation to comp_arc_sta__baselibs__bit_manipulation--><g id="link_logic_arc_int__baselibs__bit_manipulation_comp_arc_sta__baselibs__bit_manipulation"><path codeLine="46" d="M3713.5436,202.3849 C3741.5036,223.6749 3781.51,254.14 3809.4,275.38 " fill="transparent" id="logic_arc_int__baselibs__bit_manipulation-backto-comp_arc_sta__baselibs__bit_manipulation" style="stroke:#181818;stroke-width:1;"/><polygon fill="#181818" points="3708.77,198.75,3713.5072,207.3847,3712.748,201.7791,3718.3537,201.0199,3708.77,198.75" style="stroke:#181818;stroke-width:1;"/><text fill="#000000" font-family="sans-serif" font-size="13" lengthAdjust="spacing" textLength="76.9082" x="3769.5" y="241.5669">implements</text></g><!--reverse link logic_arc_int__baselibs__shared_future to comp_arc_sta__baselibs__concurrency--><g id="link_logic_arc_int__baselibs__shared_future_comp_arc_sta__baselibs__concurrency"><path codeLine="47" d="M2510.7208,199.2788 C2403.8508,213.2688 2259.6,231.43 2127.5,245.5 C1991.65,259.97 1836.67,273.46 1725.58,282.61 " fill="transparent" id="logic_arc_int__baselibs__shared_future-backto-comp_arc_sta__baselibs__concurrency" style="stroke:#181818;stroke-width:1;"/><polygon fill="#181818" points="2516.67,198.5,2507.2269,195.702,2511.7123,199.149,2508.2653,203.6344,2516.67,198.5" style="stroke:#181818;stroke-width:1;"/><text fill="#000000" font-family="sans-serif" font-size="13" lengthAdjust="spacing" textLength="76.9082" x="2275.5" y="241.5669">implements</text></g><!--link Feature_User to logic_arc_int__baselibs__message_passing--><g id="link_Feature_User_logic_arc_int__baselibs__message_passing"><path codeLine="48" d="M3047.51,47.36 C3184.77,56.15 3610.23,83.82 3962.5,111.5 C4201.78,130.3 4261.57,135.59 4500.5,158.5 C4506.35,159.06 4506.3387,159.0538 4512.3487,159.6438 " fill="transparent" id="Feature_User-to-logic_arc_int__baselibs__message_passing" style="stroke:#181818;stroke-width:1;"/><polygon fill="#181818" points="4518.32,160.23,4509.7539,155.3698,4513.3439,159.7415,4508.9723,163.3316,4518.32,160.23" style="stroke:#181818;stroke-width:1;"/><text fill="#000000" font-family="sans-serif" font-size="13" lengthAdjust="spacing" textLength="23.0103" x="4169.5" y="124.5669">use</text></g><!--reverse link logic_arc_int__baselibs__synchronized_queue to comp_arc_sta__baselibs__concurrency--><g id="link_logic_arc_int__baselibs__synchronized_queue_comp_arc_sta__baselibs__concurrency"><path codeLine="49" d="M1712.901,202.0981 C1681.241,223.3881 1635.51,254.14 1603.93,275.38 " fill="transparent" id="logic_arc_int__baselibs__synchronized_queue-backto-comp_arc_sta__baselibs__concurrency" style="stroke:#181818;stroke-width:1;"/><polygon fill="#181818" points="1717.88,198.75,1708.1795,200.4529,1713.7309,201.5401,1712.6437,207.0915,1717.88,198.75" style="stroke:#181818;stroke-width:1;"/><text fill="#000000" font-family="sans-serif" font-size="13" lengthAdjust="spacing" textLength="76.9082" x="1672.5" y="241.5669">implements</text></g><!--link Feature_User to logic_arc_int__baselibs__shared_future--><g id="link_Feature_User_logic_arc_int__baselibs__shared_future"><path codeLine="50" d="M2957.17,62.02 C2892.59,86.99 2780.1263,130.4765 2713.4163,156.2665 " fill="transparent" id="Feature_User-to-logic_arc_int__baselibs__shared_future" style="stroke:#181818;stroke-width:1;"/><polygon fill="#181818" points="2707.82,158.43,2717.6569,158.9156,2712.4836,156.627,2714.7722,151.4538,2707.82,158.43" style="stroke:#181818;stroke-width:1;"/><text fill="#000000" font-family="sans-serif" font-size="13" lengthAdjust="spacing" textLength="23.0103" x="2821.5" y="124.5669">use</text></g><!--reverse link logic_arc_int__baselibs__result to comp_arc_sta__baselibs__result--><g id="link_logic_arc_int__baselibs__result_comp_arc_sta__baselibs__result"><path codeLine="51" d="M133.5,204.75 C133.5,225.98 133.5,253.94 133.5,275.19 " fill="transparent" id="logic_arc_int__baselibs__result-backto-comp_arc_sta__baselibs__result" style="stroke:#181818;stroke-width:1;"/><polygon fill="#181818" points="133.5,198.75,129.5,207.75,133.5,203.75,137.5,207.75,133.5,198.75" style="stroke:#181818;stroke-width:1;"/><text fill="#000000" font-family="sans-serif" font-size="13" lengthAdjust="spacing" textLength="76.9082" x="134.5" y="241.5669">implements</text></g><!--link Feature_User to logic_arc_int__baselibs__task_result--><g id="link_Feature_User_logic_arc_int__baselibs__task_result"><path codeLine="52" d="M2957.43,46.05 C2779.29,52.31 2107.07,76.97 1554.5,111.5 C1288.86,128.1 1222.35,132.16 957.5,158.5 C951.86,159.06 952.0861,159.0133 946.2761,159.6333 " fill="transparent" id="Feature_User-to-logic_arc_int__baselibs__task_result" style="stroke:#181818;stroke-width:1;"/><polygon fill="#181818" points="940.31,160.27,949.6836,163.2924,945.2818,159.7394,948.8347,155.3376,940.31,160.27" style="stroke:#181818;stroke-width:1;"/><text fill="#000000" font-family="sans-serif" font-size="13" lengthAdjust="spacing" textLength="23.0103" x="1555.5" y="124.5669">use</text></g><!--SRC=[jLPDSzCm4BtxLsXwJs6O3WUcqmipd7gaPyrQNf8b-Z3QLQbX-EyeTcWJ4oBRf4SvJozld_Vj6gmDtxMZ9_BhIaAh9AWwY0Id6efeX8AlDjIWOi68GReMXpEwLZe58f7g9CZLBKjdyQww1YPRgv_LFNdy66o8AcBJdpvlo6mzCgjtrs-hNzNjc_sT2enatDKd14aHrGDZl5B0Qlz0xnwegZB1jHgYqIoWTGsCbchMsWGlaFyWibgbrPsoOKsc1vANGs0-niJqYDeIomT5hhNeq0khS-GcnOZUT0Ls0TvEuwn9j0DFRRAmyxX0FC1vgqEB4R9LbrQEJsZINxn7xg-QSmGHETbiQ6ASTMzin9xXNnKvT25scZUGUwfGqn5scc59o9PQgCVqv_StqrY_a4NkSe1SWVe5kFWzZ8ekcCaCQzGjCEVy5-qyGYzMUEpVt7xXpfjD39v-OAE_9KmudoF7eg5Ti-b7Y0IrNS0nLC4c1xB9gPnFSFYkPzzDE-JyUoyfFziNNxaua7QGnHtGT1vS_rE4hg1bycGVaIwKDjHLKZHngBOnE69yZItpF6yNrdbYeSnjfl4glP1ffyAviCXX7P_LDNtW7qHzePpdThYGKt-cmAjzRnnkvSksyB2UJbOmQzUDDjA5Z3srOnPA71LwLk0GwOAs_ypzqUperVm6]--></g></svg>