<svg xmlns="http://www.w3.org/2000/svg" xmlns:xlink="http://www.w3.org/1999/xlink" contentStyleType="text/css" data-diagram-type="CLASS" height="322px" preserveAspectRatio="none" style="width:6196px;height:322px;background:#FFFFFF;" version="1.1" viewBox="0 0 6196 322" width="6196px" zoomAndPan="magnify"><defs/><g><!--entity Feature_User--><g id="elem_Feature_User"><ellipse cx="3053.6685" cy="14" fill="#F1F1F1" rx="8" ry="8" style="stroke:#181818;stroke-width:0.5;"/><path d="M3053.6685,22 L3053.6685,49 M3040.6685,30 L3066.6685,30 M3053.6685,49 L3040.6685,64 M3053.6685,49 L3066.6685,64 " fill="transparent" style="stroke:#181818;stroke-width:0.5;"/><text fill="#000000" font-family="sans-serif" font-size="14" lengthAdjust="spacing" textLength="90.3369" x="3008.5" y="78.4951">Feature User</text></g><!--class comp_arc_sta__baselibs__result--><g id="elem_comp_arc_sta__baselibs__result"><rect fill="#F1F1F1" height="40" id="comp_arc_sta__baselibs__result" rx="2.5" ry="2.5" style="stroke:#181818;stroke-width:0.5;" width="253.4297" x="5936" y="275.5"/><ellipse cx="5951" cy="291.5" fill="#ADD1B2" rx="11" ry="11" style="stroke:#181818;stroke-width:1;"/><path d="M5953.9688,297.1406 Q5953.3906,297.4375 5952.75,297.5781 Q5952.1094,297.7344 5951.4063,297.7344 Q5948.9063,297.7344 5947.5781,296.0938 Q5946.2656,294.4375 5946.2656,291.3125 Q5946.2656,288.1875 5947.5781,286.5313 Q5948.9063,284.875 5951.4063,284.875 Q5952.1094,284.875 5952.75,285.0313 Q5953.4063,285.1875 5953.9688,285.4844 L5953.9688,288.2031 Q5953.3438,287.625 5952.75,287.3594 Q5952.1563,287.0781 5951.5313,287.0781 Q5950.1875,287.0781 5949.5,288.1563 Q5948.8125,289.2188 5948.8125,291.3125 Q5948.8125,293.4063 5949.5,294.4844 Q5950.1875,295.5469 5951.5313,295.5469 Q5952.1563,295.5469 5952.75,295.2813 Q5953.3438,295 5953.9688,294.4219 L5953.9688,297.1406 Z " fill="#000000"/><text fill="#000000" font-family="sans-serif" font-size="14" lengthAdjust="spacing" textLength="221.4297" x="5965" y="296.3467">comp_arc_sta__baselibs__result</text><line style="stroke:#181818;stroke-width:0.5;" x1="5937" x2="6188.4297" y1="307.5" y2="307.5"/></g><!--class logic_arc_int__baselibs__result--><g id="elem_logic_arc_int__baselibs__result"><rect fill="#F1F1F1" height="40" id="logic_arc_int__baselibs__result" rx="2.5" ry="2.5" style="stroke:#181818;stroke-width:0.5;" width="244.4609" x="5938.5" y="158.5"/><ellipse cx="5953.5" cy="174.5" fill="#ADD1B2" rx="11" ry="11" style="stroke:#181818;stroke-width:1;"/><path d="M5956.4688,180.1406 Q5955.8906,180.4375 5955.25,180.5781 Q5954.6094,180.7344 5953.9063,180.7344 Q5951.4063,180.7344 5950.0781,179.0938 Q5948.7656,177.4375 5948.7656,174.3125 Q5948.7656,171.1875 5950.0781,169.5313 Q5951.4063,167.875 5953.9063,167.875 Q5954.6094,167.875 5955.25,168.0313 Q5955.9063,168.1875 5956.4688,168.4844 L5956.4688,171.2031 Q5955.8438,170.625 5955.25,170.3594 Q5954.6563,170.0781 5954.0313,170.0781 Q5952.6875,170.0781 5952,171.1563 Q5951.3125,172.2188 5951.3125,174.3125 Q5951.3125,176.4063 5952,177.4844 Q5952.6875,178.5469 5954.0313,178.5469 Q5954.6563,178.5469 5955.25,178.2813 Q5955.8438,178 5956.4688,177.4219 L5956.4688,180.1406 Z " fill="#000000"/><text fill="#000000" font-family="sans-serif" font-size="14" lengthAdjust="spacing" textLength="212.4609" x="5967.5" y="179.3467">logic_arc_int__baselibs__result</text><line style="stroke:#181818;stroke-width:0.5;" x1="5939.5" x2="6181.9609" y1="190.5" y2="190.5"/></g><!--class comp_arc_sta__baselibs__message_passing--><g id="elem_comp_arc_sta__baselibs__message_passing"><rect fill="#F1F1F1" height="40" id="comp_arc_sta__baselibs__message_passing" rx="2.5" ry="2.5" style="stroke:#181818;stroke-width:0.5;" width="337.1357" x="5564" y="275.5"/><ellipse cx="5579" cy="291.5" fill="#ADD1B2" rx="11" ry="11" style="stroke:#181818;stroke-width:1;"/><path d="M5581.9688,297.1406 Q5581.3906,297.4375 5580.75,297.5781 Q5580.1094,297.7344 5579.4063,297.7344 Q5576.9063,297.7344 5575.5781,296.0938 Q5574.2656,294.4375 5574.2656,291.3125 Q5574.2656,288.1875 5575.5781,286.5313 Q5576.9063,284.875 5579.4063,284.875 Q5580.1094,284.875 5580.75,285.0313 Q5581.4063,285.1875 5581.9688,285.4844 L5581.9688,288.2031 Q5581.3438,287.625 5580.75,287.3594 Q5580.1563,287.0781 5579.5313,287.0781 Q5578.1875,287.0781 5577.5,288.1563 Q5576.8125,289.2188 5576.8125,291.3125 Q5576.8125,293.4063 5577.5,294.4844 Q5578.1875,295.5469 5579.5313,295.5469 Q5580.1563,295.5469 5580.75,295.2813 Q5581.3438,295 5581.9688,294.4219 L5581.9688,297.1406 Z " fill="#000000"/><text fill="#000000" font-family="sans-serif" font-size="14" lengthAdjust="spacing" textLength="305.1357" x="5593" y="296.3467">comp_arc_sta__baselibs__message_passing</text><line style="stroke:#181818;stroke-width:0.5;" x1="5565" x2="5900.1357" y1="307.5" y2="307.5"/></g><!--class logic_arc_int__baselibs__message_passing--><g id="elem_logic_arc_int__baselibs__message_passing"><rect fill="#F1F1F1" height="40" id="logic_arc_int__baselibs__message_passing" rx="2.5" ry="2.5" style="stroke:#181818;stroke-width:0.5;" width="328.167" x="5571.5" y="158.5"/><ellipse cx="5586.5" cy="174.5" fill="#ADD1B2" rx="11" ry="11" style="stroke:#181818;stroke-width:1;"/><path d="M5589.4688,180.1406 Q5588.8906,180.4375 5588.25,180.5781 Q5587.6094,180.7344 5586.9063,180.7344 Q5584.4063,180.7344 5583.0781,179.0938 Q5581.7656,177.4375 5581.7656,174.3125 Q5581.7656,171.1875 5583.0781,169.5313 Q5584.4063,167.875 5586.9063,167.875 Q5587.6094,167.875 5588.25,168.0313 Q5588.9063,168.1875 5589.4688,168.4844 L5589.4688,171.2031 Q5588.8438,170.625 5588.25,170.3594 Q5587.6563,170.0781 5587.0313,170.0781 Q5585.6875,170.0781 5585,171.1563 Q5584.3125,172.2188 5584.3125,174.3125 Q5584.3125,176.4063 5585,177.4844 Q5585.6875,178.5469 5587.0313,178.5469 Q5587.6563,178.5469 5588.25,178.2813 Q5588.8438,178 5589.4688,177.4219 L5589.4688,180.1406 Z " fill="#000000"/><text fill="#000000" font-family="sans-serif" font-size="14" lengthAdjust="spacing" textLength="296.167" x="5600.5" y="179.3467">logic_arc_int__baselibs__message_passing</text><line style="stroke:#181818;stroke-width:0.5;" x1="5572.5" x2="5898.667" y1="190.5" y2="190.5"/></g><!--class comp_arc_sta__baselibs__bit_manipulation--><g id="elem_comp_arc_sta__baselibs__bit_manipulation"><rect fill="#F1F1F1" height="40" id="comp_arc_sta__baselibs__bit_manipulation" rx="2.5" ry="2.5" style="stroke:#181818;stroke-width:0.5;" width="330.8057" x="3409" y="275.5"/><ellipse cx="3424" cy="291.5" fill="#ADD1B2" rx="11" ry="11" style="stroke:#181818;stroke-width:1;"/><path d="M3426.9688,297.1406 Q3426.3906,297.4375 3425.75,297.5781 Q3425.1094,297.7344 3424.4063,297.7344 Q3421.9063,297.7344 3420.5781,296.0938 Q3419.2656,294.4375 3419.2656,291.3125 Q3419.2656,288.1875 3420.5781,286.5313 Q3421.9063,284.875 3424.4063,284.875 Q3425.1094,284.875 3425.75,285.0313 Q3426.4063,285.1875 3426.9688,285.4844 L3426.9688,288.2031 Q3426.3438,287.625 3425.75,287.3594 Q3425.1563,287.0781 3424.5313,287.0781 Q3423.1875,287.0781 3422.5,288.1563 Q3421.8125,289.2188 3421.8125,291.3125 Q3421.8125,293.4063 3422.5,294.4844 Q3423.1875,295.5469 3424.5313,295.5469 Q3425.1563,295.5469 3425.75,295.2813 Q3426.3438,295 3426.9688,294.4219 L3426.9688,297.1406 Z " fill="#000000"/><text fill="#000000" font-family="sans-serif" font-size="14" lengthAdjust="spacing" textLength="298.8057" x="3438" y="296.3467">comp_arc_sta__baselibs__bit_manipulation</text><line style="stroke:#181818;stroke-width:0.5;" x1="3410" x2="3738.8057" y1="307.5" y2="307.5"/></g><!--class logic_arc_int__baselibs__bit_mask_operator--><g id="elem_logic_arc_int__baselibs__bit_mask_operator"><rect fill="#F1F1F1" height="40" id="logic_arc_int__baselibs__bit_mask_operator" rx="2.5" ry="2.5" style="stroke:#181818;stroke-width:0.5;" width="334.6406" x="3584" y="158.5"/><ellipse cx="3599" cy="174.5" fill="#ADD1B2" rx="11" ry="11" style="stroke:#181818;stroke-width:1;"/><path d="M3601.9688,180.1406 Q3601.3906,180.4375 3600.75,180.5781 Q3600.1094,180.7344 3599.4063,180.7344 Q3596.9063,180.7344 3595.5781,179.0938 Q3594.2656,177.4375 3594.2656,174.3125 Q3594.2656,171.1875 3595.5781,169.5313 Q3596.9063,167.875 3599.4063,167.875 Q3600.1094,167.875 3600.75,168.0313 Q3601.4063,168.1875 3601.9688,168.4844 L3601.9688,171.2031 Q3601.3438,170.625 3600.75,170.3594 Q3600.1563,170.0781 3599.5313,170.0781 Q3598.1875,170.0781 3597.5,171.1563 Q3596.8125,172.2188 3596.8125,174.3125 Q3596.8125,176.4063 3597.5,177.4844 Q3598.1875,178.5469 3599.5313,178.5469 Q3600.1563,178.5469 3600.75,178.2813 Q3601.3438,178 3601.9688,177.4219 L3601.9688,180.1406 Z " fill="#000000"/><text fill="#000000" font-family="sans-serif" font-size="14" lengthAdjust="spacing" textLength="302.6406" x="3613" y="179.3467">logic_arc_int__baselibs__bit_mask_operator</text><line style="stroke:#181818;stroke-width:0.5;" x1="3585" x2="3917.6406" y1="190.5" y2="190.5"/></g><!--class logic_arc_int__baselibs__filesystem--><g id="elem_logic_arc_int__baselibs__filesystem"><rect fill="#F1F1F1" height="40" id="logic_arc_int__baselibs__filesystem" rx="2.5" ry="2.5" style="stroke:#181818;stroke-width:0.5;" width="276.4805" x="2915.5" y="158.5"/><ellipse cx="2930.5" cy="174.5" fill="#ADD1B2" rx="11" ry="11" style="stroke:#181818;stroke-width:1;"/><path d="M2933.4688,180.1406 Q2932.8906,180.4375 2932.25,180.5781 Q2931.6094,180.7344 2930.9063,180.7344 Q2928.4063,180.7344 2927.0781,179.0938 Q2925.7656,177.4375 2925.7656,174.3125 Q2925.7656,171.1875 2927.0781,169.5313 Q2928.4063,167.875 2930.9063,167.875 Q2931.6094,167.875 2932.25,168.0313 Q2932.9063,168.1875 2933.4688,168.4844 L2933.4688,171.2031 Q2932.8438,170.625 2932.25,170.3594 Q2931.6563,170.0781 2931.0313,170.0781 Q2929.6875,170.0781 2929,171.1563 Q2928.3125,172.2188 2928.3125,174.3125 Q2928.3125,176.4063 2929,177.4844 Q2929.6875,178.5469 2931.0313,178.5469 Q2931.6563,178.5469 2932.25,178.2813 Q2932.8438,178 2933.4688,177.4219 L2933.4688,180.1406 Z " fill="#000000"/><text fill="#000000" font-family="sans-serif" font-size="14" lengthAdjust="spacing" textLength="244.4805" x="2944.5" y="179.3467">logic_arc_int__baselibs__filesystem</text><line style="stroke:#181818;stroke-width:0.5;" x1="2916.5" x2="3190.9805" y1="190.5" y2="190.5"/></g><!--class comp_arc_sta__baselibs__concurrency--><g id="elem_comp_arc_sta__baselibs__concurrency"><rect fill="#F1F1F1" height="40" id="comp_arc_sta__baselibs__concurrency" rx="2.5" ry="2.5" style="stroke:#181818;stroke-width:0.5;" width="300.2012" x="1166.5" y="275.5"/><ellipse cx="1181.5" cy="291.5" fill="#ADD1B2" rx="11" ry="11" style="stroke:#181818;stroke-width:1;"/><path d="M1184.4688,297.1406 Q1183.8906,297.4375 1183.25,297.5781 Q1182.6094,297.7344 1181.9063,297.7344 Q1179.4063,297.7344 1178.0781,296.0938 Q1176.7656,294.4375 1176.7656,291.3125 Q1176.7656,288.1875 1178.0781,286.5313 Q1179.4063,284.875 1181.9063,284.875 Q1182.6094,284.875 1183.25,285.0313 Q1183.9063,285.1875 1184.4688,285.4844 L1184.4688,288.2031 Q1183.8438,287.625 1183.25,287.3594 Q1182.6563,287.0781 1182.0313,287.0781 Q1180.6875,287.0781 1180,288.1563 Q1179.3125,289.2188 1179.3125,291.3125 Q1179.3125,293.4063 1180,294.4844 Q1180.6875,295.5469 1182.0313,295.5469 Q1182.6563,295.5469 1183.25,295.2813 Q1183.8438,295 1184.4688,294.4219 L1184.4688,297.1406 Z " fill="#000000"/><text fill="#000000" font-family="sans-serif" font-size="14" lengthAdjust="spacing" textLength="268.2012" x="1195.5" y="296.3467">comp_arc_sta__baselibs__concurrency</text><line style="stroke:#181818;stroke-width:0.5;" x1="1167.5" x2="1465.7012" y1="307.5" y2="307.5"/></g><!--class logic_arc_int__baselibs__future--><g id="elem_logic_arc_int__baselibs__future"><rect fill="#F1F1F1" height="40" id="logic_arc_int__baselibs__future" rx="2.5" ry="2.5" style="stroke:#181818;stroke-width:0.5;" width="247.0791" x="1413" y="158.5"/><ellipse cx="1428" cy="174.5" fill="#ADD1B2" rx="11" ry="11" style="stroke:#181818;stroke-width:1;"/><path d="M1430.9688,180.1406 Q1430.3906,180.4375 1429.75,180.5781 Q1429.1094,180.7344 1428.4063,180.7344 Q1425.9063,180.7344 1424.5781,179.0938 Q1423.2656,177.4375 1423.2656,174.3125 Q1423.2656,171.1875 1424.5781,169.5313 Q1425.9063,167.875 1428.4063,167.875 Q1429.1094,167.875 1429.75,168.0313 Q1430.4063,168.1875 1430.9688,168.4844 L1430.9688,171.2031 Q1430.3438,170.625 1429.75,170.3594 Q1429.1563,170.0781 1428.5313,170.0781 Q1427.1875,170.0781 1426.5,171.1563 Q1425.8125,172.2188 1425.8125,174.3125 Q1425.8125,176.4063 1426.5,177.4844 Q1427.1875,178.5469 1428.5313,178.5469 Q1429.1563,178.5469 1429.75,178.2813 Q1430.3438,178 1430.9688,177.4219 L1430.9688,180.1406 Z " fill="#000000"/><text fill="#000000" font-family="sans-serif" font-size="14" lengthAdjust="spacing" textLength="215.0791" x="1442" y="179.3467">logic_arc_int__baselibs__future</text><line style="stroke:#181818;stroke-width:0.5;" x1="1414" x2="1659.0791" y1="190.5" y2="190.5"/></g><!--class comp_arc_sta__baselibs__utils--><g id="elem_comp_arc_sta__baselibs__utils"><rect fill="#F1F1F1" height="40" id="comp_arc_sta__baselibs__utils" rx="2.5" ry="2.5" style="stroke:#181818;stroke-width:0.5;" width="242.9502" x="4400" y="275.5"/><ellipse cx="4415" cy="291.5" fill="#ADD1B2" rx="11" ry="11" style="stroke:#181818;stroke-width:1;"/><path d="M4417.9688,297.1406 Q4417.3906,297.4375 4416.75,297.5781 Q4416.1094,297.7344 4415.4063,297.7344 Q4412.9063,297.7344 4411.5781,296.0938 Q4410.2656,294.4375 4410.2656,291.3125 Q4410.2656,288.1875 4411.5781,286.5313 Q4412.9063,284.875 4415.4063,284.875 Q4416.1094,284.875 4416.75,285.0313 Q4417.4063,285.1875 4417.9688,285.4844 L4417.9688,288.2031 Q4417.3438,287.625 4416.75,287.3594 Q4416.1563,287.0781 4415.5313,287.0781 Q4414.1875,287.0781 4413.5,288.1563 Q4412.8125,289.2188 4412.8125,291.3125 Q4412.8125,293.4063 4413.5,294.4844 Q4414.1875,295.5469 4415.5313,295.5469 Q4416.1563,295.5469 4416.75,295.2813 Q4417.3438,295 4417.9688,294.4219 L4417.9688,297.1406 Z " fill="#000000"/><text fill="#000000" font-family="sans-serif" font-size="14" lengthAdjust="spacing" textLength="210.9502" x="4429" y="296.3467">comp_arc_sta__baselibs__utils</text><line style="stroke:#181818;stroke-width:0.5;" x1="4401" x2="4641.9502" y1="307.5" y2="307.5"/></g><!--class logic_arc_int__baselibs__utils_scoped_op--><g id="elem_logic_arc_int__baselibs__utils_scoped_op"><rect fill="#F1F1F1" height="40" id="logic_arc_int__baselibs__utils_scoped_op" rx="2.5" ry="2.5" style="stroke:#181818;stroke-width:0.5;" width="315.377" x="4222" y="158.5"/><ellipse cx="4237" cy="174.5" fill="#ADD1B2" rx="11" ry="11" style="stroke:#181818;stroke-width:1;"/><path d="M4239.9688,180.1406 Q4239.3906,180.4375 4238.75,180.5781 Q4238.1094,180.7344 4237.4063,180.7344 Q4234.9063,180.7344 4233.5781,179.0938 Q4232.2656,177.4375 4232.2656,174.3125 Q4232.2656,171.1875 4233.5781,169.5313 Q4234.9063,167.875 4237.4063,167.875 Q4238.1094,167.875 4238.75,168.0313 Q4239.4063,168.1875 4239.9688,168.4844 L4239.9688,171.2031 Q4239.3438,170.625 4238.75,170.3594 Q4238.1563,170.0781 4237.5313,170.0781 Q4236.1875,170.0781 4235.5,171.1563 Q4234.8125,172.2188 4234.8125,174.3125 Q4234.8125,176.4063 4235.5,177.4844 Q4236.1875,178.5469 4237.5313,178.5469 Q4238.1563,178.5469 4238.75,178.2813 Q4239.3438,178 4239.9688,177.4219 L4239.9688,180.1406 Z " fill="#000000"/><text fill="#000000" font-family="sans-serif" font-size="14" lengthAdjust="spacing" textLength="283.377" x="4251" y="179.3467">logic_arc_int__baselibs__utils_scoped_op</text><line style="stroke:#181818;stroke-width:0.5;" x1="4223" x2="4536.377" y1="190.5" y2="190.5"/></g><!--class comp_arc_sta__baselibs__containers--><g id="elem_comp_arc_sta__baselibs__containers"><rect fill="#F1F1F1" height="40" id="comp_arc_sta__baselibs__containers" rx="2.5" ry="2.5" style="stroke:#181818;stroke-width:0.5;" width="287.1445" x="5077" y="275.5"/><ellipse cx="5092" cy="291.5" fill="#ADD1B2" rx="11" ry="11" style="stroke:#181818;stroke-width:1;"/><path d="M5094.9688,297.1406 Q5094.3906,297.4375 5093.75,297.5781 Q5093.1094,297.7344 5092.4063,297.7344 Q5089.9063,297.7344 5088.5781,296.0938 Q5087.2656,294.4375 5087.2656,291.3125 Q5087.2656,288.1875 5088.5781,286.5313 Q5089.9063,284.875 5092.4063,284.875 Q5093.1094,284.875 5093.75,285.0313 Q5094.4063,285.1875 5094.9688,285.4844 L5094.9688,288.2031 Q5094.3438,287.625 5093.75,287.3594 Q5093.1563,287.0781 5092.5313,287.0781 Q5091.1875,287.0781 5090.5,288.1563 Q5089.8125,289.2188 5089.8125,291.3125 Q5089.8125,293.4063 5090.5,294.4844 Q5091.1875,295.5469 5092.5313,295.5469 Q5093.1563,295.5469 5093.75,295.2813 Q5094.3438,295 5094.9688,294.4219 L5094.9688,297.1406 Z " fill="#000000"/><text fill="#000000" font-family="sans-serif" font-size="14" lengthAdjust="spacing" textLength="255.1445" x="5106" y="296.3467">comp_arc_sta__baselibs__containers</text><line style="stroke:#181818;stroke-width:0.5;" x1="5078" x2="5363.1445" y1="307.5" y2="307.5"/></g><!--class logic_arc_int__baselibs__dynamic_array--><g id="elem_logic_arc_int__baselibs__dynamic_array"><rect fill="#F1F1F1" height="40" id="logic_arc_int__baselibs__dynamic_array" rx="2.5" ry="2.5" style="stroke:#181818;stroke-width:0.5;" width="308.3496" x="4899.5" y="158.5"/><ellipse cx="4914.5" cy="174.5" fill="#ADD1B2" rx="11" ry="11" style="stroke:#181818;stroke-width:1;"/><path d="M4917.4688,180.1406 Q4916.8906,180.4375 4916.25,180.5781 Q4915.6094,180.7344 4914.9063,180.7344 Q4912.4063,180.7344 4911.0781,179.0938 Q4909.7656,177.4375 4909.7656,174.3125 Q4909.7656,171.1875 4911.0781,169.5313 Q4912.4063,167.875 4914.9063,167.875 Q4915.6094,167.875 4916.25,168.0313 Q4916.9063,168.1875 4917.4688,168.4844 L4917.4688,171.2031 Q4916.8438,170.625 4916.25,170.3594 Q4915.6563,170.0781 4915.0313,170.0781 Q4913.6875,170.0781 4913,171.1563 Q4912.3125,172.2188 4912.3125,174.3125 Q4912.3125,176.4063 4913,177.4844 Q4913.6875,178.5469 4915.0313,178.5469 Q4915.6563,178.5469 4916.25,178.2813 Q4916.8438,178 4917.4688,177.4219 L4917.4688,180.1406 Z " fill="#000000"/><text fill="#000000" font-family="sans-serif" font-size="14" lengthAdjust="spacing" textLength="276.3496" x="4928.5" y="179.3467">logic_arc_int__baselibs__dynamic_array</text><line style="stroke:#181818;stroke-width:0.5;" x1="4900.5" x2="5206.8496" y1="190.5" y2="190.5"/></g><!--class logic_arc_int__baselibs__memory_shared--><g id="elem_logic_arc_int__baselibs__memory_shared"><rect fill="#F1F1F1" height="40" id="logic_arc_int__baselibs__memory_shared" rx="2.5" ry="2.5" style="stroke:#181818;stroke-width:0.5;" width="318.043" x="2562.5" y="158.5"/><ellipse cx="2577.5" cy="174.5" fill="#ADD1B2" rx="11" ry="11" style="stroke:#181818;stroke-width:1;"/><path d="M2580.4688,180.1406 Q2579.8906,180.4375 2579.25,180.5781 Q2578.6094,180.7344 2577.9063,180.7344 Q2575.4063,180.7344 2574.0781,179.0938 Q2572.7656,177.4375 2572.7656,174.3125 Q2572.7656,171.1875 2574.0781,169.5313 Q2575.4063,167.875 2577.9063,167.875 Q2578.6094,167.875 2579.25,168.0313 Q2579.9063,168.1875 2580.4688,168.4844 L2580.4688,171.2031 Q2579.8438,170.625 2579.25,170.3594 Q2578.6563,170.0781 2578.0313,170.0781 Q2576.6875,170.0781 2576,171.1563 Q2575.3125,172.2188 2575.3125,174.3125 Q2575.3125,176.4063 2576,177.4844 Q2576.6875,178.5469 2578.0313,178.5469 Q2578.6563,178.5469 2579.25,178.2813 Q2579.8438,178 2580.4688,177.4219 L2580.4688,180.1406 Z " fill="#000000"/><text fill="#000000" font-family="sans-serif" font-size="14" lengthAdjust="spacing" textLength="286.043" x="2591.5" y="179.3467">logic_arc_int__baselibs__memory_shared</text><line style="stroke:#181818;stroke-width:0.5;" x1="2563.5" x2="2879.543" y1="190.5" y2="190.5"/></g><!--class logic_arc_int__baselibs__task_result--><g id="elem_logic_arc_int__baselibs__task_result"><rect fill="#F1F1F1" height="40" id="logic_arc_int__baselibs__task_result" rx="2.5" ry="2.5" style="stroke:#181818;stroke-width:0.5;" width="280.9307" x="7" y="158.5"/><ellipse cx="22" cy="174.5" fill="#ADD1B2" rx="11" ry="11" style="stroke:#181818;stroke-width:1;"/><path d="M24.9688,180.1406 Q24.3906,180.4375 23.75,180.5781 Q23.1094,180.7344 22.4063,180.7344 Q19.9063,180.7344 18.5781,179.0938 Q17.2656,177.4375 17.2656,174.3125 Q17.2656,171.1875 18.5781,169.5313 Q19.9063,167.875 22.4063,167.875 Q23.1094,167.875 23.75,168.0313 Q24.4063,168.1875 24.9688,168.4844 L24.9688,171.2031 Q24.3438,170.625 23.75,170.3594 Q23.1563,170.0781 22.5313,170.0781 Q21.1875,170.0781 20.5,171.1563 Q19.8125,172.2188 19.8125,174.3125 Q19.8125,176.4063 20.5,177.4844 Q21.1875,178.5469 22.5313,178.5469 Q23.1563,178.5469 23.75,178.2813 Q24.3438,178 24.9688,177.4219 L24.9688,180.1406 Z " fill="#000000"/><text fill="#000000" font-family="sans-serif" font-size="14" lengthAdjust="spacing" textLength="248.9307" x="36" y="179.3467">logic_arc_int__baselibs__task_result</text><line style="stroke:#181818;stroke-width:0.5;" x1="8" x2="286.9307" y1="190.5" y2="190.5"/></g><!--class logic_arc_int__baselibs__task--><g id="elem_logic_arc_int__baselibs__task"><rect fill="#F1F1F1" height="40" id="logic_arc_int__baselibs__task" rx="2.5" ry="2.5" style="stroke:#181818;stroke-width:0.5;" width="234.0156" x="1695.5" y="158.5"/><ellipse cx="1710.5" cy="174.5" fill="#ADD1B2" rx="11" ry="11" style="stroke:#181818;stroke-width:1;"/><path d="M1713.4688,180.1406 Q1712.8906,180.4375 1712.25,180.5781 Q1711.6094,180.7344 1710.9063,180.7344 Q1708.4063,180.7344 1707.0781,179.0938 Q1705.7656,177.4375 1705.7656,174.3125 Q1705.7656,171.1875 1707.0781,169.5313 Q1708.4063,167.875 1710.9063,167.875 Q1711.6094,167.875 1712.25,168.0313 Q1712.9063,168.1875 1713.4688,168.4844 L1713.4688,171.2031 Q1712.8438,170.625 1712.25,170.3594 Q1711.6563,170.0781 1711.0313,170.0781 Q1709.6875,170.0781 1709,171.1563 Q1708.3125,172.2188 1708.3125,174.3125 Q1708.3125,176.4063 1709,177.4844 Q1709.6875,178.5469 1711.0313,178.5469 Q1711.6563,178.5469 1712.25,178.2813 Q1712.8438,178 1713.4688,177.4219 L1713.4688,180.1406 Z " fill="#000000"/><text fill="#000000" font-family="sans-serif" font-size="14" lengthAdjust="spacing" textLength="202.0156" x="1724.5" y="179.3467">logic_arc_int__baselibs__task</text><line style="stroke:#181818;stroke-width:0.5;" x1="1696.5" x2="1928.5156" y1="190.5" y2="190.5"/></g><!--class logic_arc_int__baselibs__shared_future--><g id="elem_logic_arc_int__baselibs__shared_future"><rect fill="#F1F1F1" height="40" id="logic_arc_int__baselibs__shared_future" rx="2.5" ry="2.5" style="stroke:#181818;stroke-width:0.5;" width="302.0811" x="323.5" y="158.5"/><ellipse cx="338.5" cy="174.5" fill="#ADD1B2" rx="11" ry="11" style="stroke:#181818;stroke-width:1;"/><path d="M341.4688,180.1406 Q340.8906,180.4375 340.25,180.5781 Q339.6094,180.7344 338.9063,180.7344 Q336.4063,180.7344 335.0781,179.0938 Q333.7656,177.4375 333.7656,174.3125 Q333.7656,171.1875 335.0781,169.5313 Q336.4063,167.875 338.9063,167.875 Q339.6094,167.875 340.25,168.0313 Q340.9063,168.1875 341.4688,168.4844 L341.4688,171.2031 Q340.8438,170.625 340.25,170.3594 Q339.6563,170.0781 339.0313,170.0781 Q337.6875,170.0781 337,171.1563 Q336.3125,172.2188 336.3125,174.3125 Q336.3125,176.4063 337,177.4844 Q337.6875,178.5469 339.0313,178.5469 Q339.6563,178.5469 340.25,178.2813 Q340.8438,178 341.4688,177.4219 L341.4688,180.1406 Z " fill="#000000"/><text fill="#000000" font-family="sans-serif" font-size="14" lengthAdjust="spacing" textLength="270.0811" x="352.5" y="179.3467">logic_arc_int__baselibs__shared_future</text><line style="stroke:#181818;stroke-width:0.5;" x1="324.5" x2="624.5811" y1="190.5" y2="190.5"/></g><!--class logic_arc_int__baselibs__intrusive_list--><g id="elem_logic_arc_int__baselibs__intrusive_list"><rect fill="#F1F1F1" height="40" id="logic_arc_int__baselibs__intrusive_list" rx="2.5" ry="2.5" style="stroke:#181818;stroke-width:0.5;" width="293.0713" x="5243" y="158.5"/><ellipse cx="5258" cy="174.5" fill="#ADD1B2" rx="11" ry="11" style="stroke:#181818;stroke-width:1;"/><path d="M5260.9688,180.1406 Q5260.3906,180.4375 5259.75,180.5781 Q5259.1094,180.7344 5258.4063,180.7344 Q5255.9063,180.7344 5254.5781,179.0938 Q5253.2656,177.4375 5253.2656,174.3125 Q5253.2656,171.1875 5254.5781,169.5313 Q5255.9063,167.875 5258.4063,167.875 Q5259.1094,167.875 5259.75,168.0313 Q5260.4063,168.1875 5260.9688,168.4844 L5260.9688,171.2031 Q5260.3438,170.625 5259.75,170.3594 Q5259.1563,170.0781 5258.5313,170.0781 Q5257.1875,170.0781 5256.5,171.1563 Q5255.8125,172.2188 5255.8125,174.3125 Q5255.8125,176.4063 5256.5,177.4844 Q5257.1875,178.5469 5258.5313,178.5469 Q5259.1563,178.5469 5259.75,178.2813 Q5260.3438,178 5260.9688,177.4219 L5260.9688,180.1406 Z " fill="#000000"/><text fill="#000000" font-family="sans-serif" font-size="14" lengthAdjust="spacing" textLength="261.0713" x="5272" y="179.3467">logic_arc_int__baselibs__intrusive_list</text><line style="stroke:#181818;stroke-width:0.5;" x1="5244" x2="5535.0713" y1="190.5" y2="190.5"/></g><!--class logic_arc_int__baselibs__executor--><g id="elem_logic_arc_int__baselibs__executor"><rect fill="#F1F1F1" height="40" id="logic_arc_int__baselibs__executor" rx="2.5" ry="2.5" style="stroke:#181818;stroke-width:0.5;" width="266.4385" x="2261.5" y="158.5"/><ellipse cx="2276.5" cy="174.5" fill="#ADD1B2" rx="11" ry="11" style="stroke:#181818;stroke-width:1;"/><path d="M2279.4688,180.1406 Q2278.8906,180.4375 2278.25,180.5781 Q2277.6094,180.7344 2276.9063,180.7344 Q2274.4063,180.7344 2273.0781,179.0938 Q2271.7656,177.4375 2271.7656,174.3125 Q2271.7656,171.1875 2273.0781,169.5313 Q2274.4063,167.875 2276.9063,167.875 Q2277.6094,167.875 2278.25,168.0313 Q2278.9063,168.1875 2279.4688,168.4844 L2279.4688,171.2031 Q2278.8438,170.625 2278.25,170.3594 Q2277.6563,170.0781 2277.0313,170.0781 Q2275.6875,170.0781 2275,171.1563 Q2274.3125,172.2188 2274.3125,174.3125 Q2274.3125,176.4063 2275,177.4844 Q2275.6875,178.5469 2277.0313,178.5469 Q2277.6563,178.5469 2278.25,178.2813 Q2278.8438,178 2279.4688,177.4219 L2279.4688,180.1406 Z " fill="#000000"/><text fill="#000000" font-family="sans-serif" font-size="14" lengthAdjust="spacing" textLength="234.4385" x="2290.5" y="179.3467">logic_arc_int__baselibs__executor</text><line style="stroke:#181818;stroke-width:0.5;" x1="2262.5" x2="2526.9385" y1="190.5" y2="190.5"/></g><!--class logic_arc_int__baselibs__promise--><g id="elem_logic_arc_int__baselibs__promise"><rect fill="#F1F1F1" height="40" id="logic_arc_int__baselibs__promise" rx="2.5" ry="2.5" style="stroke:#181818;stroke-width:0.5;" width="261.1885" x="1965" y="158.5"/><ellipse cx="1980" cy="174.5" fill="#ADD1B2" rx="11" ry="11" style="stroke:#181818;stroke-width:1;"/><path d="M1982.9688,180.1406 Q1982.3906,180.4375 1981.75,180.5781 Q1981.1094,180.7344 1980.4063,180.7344 Q1977.9063,180.7344 1976.5781,179.0938 Q1975.2656,177.4375 1975.2656,174.3125 Q1975.2656,171.1875 1976.5781,169.5313 Q1977.9063,167.875 1980.4063,167.875 Q1981.1094,167.875 1981.75,168.0313 Q1982.4063,168.1875 1982.9688,168.4844 L1982.9688,171.2031 Q1982.3438,170.625 1981.75,170.3594 Q1981.1563,170.0781 1980.5313,170.0781 Q1979.1875,170.0781 1978.5,171.1563 Q1977.8125,172.2188 1977.8125,174.3125 Q1977.8125,176.4063 1978.5,177.4844 Q1979.1875,178.5469 1980.5313,178.5469 Q1981.1563,178.5469 1981.75,178.2813 Q1982.3438,178 1982.9688,177.4219 L1982.9688,180.1406 Z " fill="#000000"/><text fill="#000000" font-family="sans-serif" font-size="14" lengthAdjust="spacing" textLength="229.1885" x="1994" y="179.3467">logic_arc_int__baselibs__promise</text><line style="stroke:#181818;stroke-width:0.5;" x1="1966" x2="2225.1885" y1="190.5" y2="190.5"/></g><!--class comp_arc_sta__baselibs__json--><g id="elem_comp_arc_sta__baselibs__json"><rect fill="#F1F1F1" height="40" id="comp_arc_sta__baselibs__json" rx="2.5" ry="2.5" style="stroke:#181818;stroke-width:0.5;" width="242.1367" x="3949.5" y="275.5"/><ellipse cx="3964.5" cy="291.5" fill="#ADD1B2" rx="11" ry="11" style="stroke:#181818;stroke-width:1;"/><path d="M3967.4688,297.1406 Q3966.8906,297.4375 3966.25,297.5781 Q3965.6094,297.7344 3964.9063,297.7344 Q3962.4063,297.7344 3961.0781,296.0938 Q3959.7656,294.4375 3959.7656,291.3125 Q3959.7656,288.1875 3961.0781,286.5313 Q3962.4063,284.875 3964.9063,284.875 Q3965.6094,284.875 3966.25,285.0313 Q3966.9063,285.1875 3967.4688,285.4844 L3967.4688,288.2031 Q3966.8438,287.625 3966.25,287.3594 Q3965.6563,287.0781 3965.0313,287.0781 Q3963.6875,287.0781 3963,288.1563 Q3962.3125,289.2188 3962.3125,291.3125 Q3962.3125,293.4063 3963,294.4844 Q3963.6875,295.5469 3965.0313,295.5469 Q3965.6563,295.5469 3966.25,295.2813 Q3966.8438,295 3967.4688,294.4219 L3967.4688,297.1406 Z " fill="#000000"/><text fill="#000000" font-family="sans-serif" font-size="14" lengthAdjust="spacing" textLength="210.1367" x="3978.5" y="296.3467">comp_arc_sta__baselibs__json</text><line style="stroke:#181818;stroke-width:0.5;" x1="3950.5" x2="4190.6367" y1="307.5" y2="307.5"/></g><!--class logic_arc_int__baselibs__json--><g id="elem_logic_arc_int__baselibs__json"><rect fill="#F1F1F1" height="40" id="logic_arc_int__baselibs__json" rx="2.5" ry="2.5" style="stroke:#181818;stroke-width:0.5;" width="233.168" x="3954" y="158.5"/><ellipse cx="3969" cy="174.5" fill="#ADD1B2" rx="11" ry="11" style="stroke:#181818;stroke-width:1;"/><path d="M3971.9688,180.1406 Q3971.3906,180.4375 3970.75,180.5781 Q3970.1094,180.7344 3969.4063,180.7344 Q3966.9063,180.7344 3965.5781,179.0938 Q3964.2656,177.4375 3964.2656,174.3125 Q3964.2656,171.1875 3965.5781,169.5313 Q3966.9063,167.875 3969.4063,167.875 Q3970.1094,167.875 3970.75,168.0313 Q3971.4063,168.1875 3971.9688,168.4844 L3971.9688,171.2031 Q3971.3438,170.625 3970.75,170.3594 Q3970.1563,170.0781 3969.5313,170.0781 Q3968.1875,170.0781 3967.5,171.1563 Q3966.8125,172.2188 3966.8125,174.3125 Q3966.8125,176.4063 3967.5,177.4844 Q3968.1875,178.5469 3969.5313,178.5469 Q3970.1563,178.5469 3970.75,178.2813 Q3971.3438,178 3971.9688,177.4219 L3971.9688,180.1406 Z " fill="#000000"/><text fill="#000000" font-family="sans-serif" font-size="14" lengthAdjust="spacing" textLength="201.168" x="3983" y="179.3467">logic_arc_int__baselibs__json</text><line style="stroke:#181818;stroke-width:0.5;" x1="3955" x2="4186.168" y1="190.5" y2="190.5"/></g><!--class logic_arc_int__baselibs__condition_variable--><g id="elem_logic_arc_int__baselibs__condition_variable"><rect fill="#F1F1F1" height="40" id="logic_arc_int__baselibs__condition_variable" rx="2.5" ry="2.5" style="stroke:#181818;stroke-width:0.5;" width="332.7539" x="661" y="158.5"/><ellipse cx="676" cy="174.5" fill="#ADD1B2" rx="11" ry="11" style="stroke:#181818;stroke-width:1;"/><path d="M678.9688,180.1406 Q678.3906,180.4375 677.75,180.5781 Q677.1094,180.7344 676.4063,180.7344 Q673.9063,180.7344 672.5781,179.0938 Q671.2656,177.4375 671.2656,174.3125 Q671.2656,171.1875 672.5781,169.5313 Q673.9063,167.875 676.4063,167.875 Q677.1094,167.875 677.75,168.0313 Q678.4063,168.1875 678.9688,168.4844 L678.9688,171.2031 Q678.3438,170.625 677.75,170.3594 Q677.1563,170.0781 676.5313,170.0781 Q675.1875,170.0781 674.5,171.1563 Q673.8125,172.2188 673.8125,174.3125 Q673.8125,176.4063 674.5,177.4844 Q675.1875,178.5469 676.5313,178.5469 Q677.1563,178.5469 677.75,178.2813 Q678.3438,178 678.9688,177.4219 L678.9688,180.1406 Z " fill="#000000"/><text fill="#000000" font-family="sans-serif" font-size="14" lengthAdjust="spacing" textLength="300.7539" x="690" y="179.3467">logic_arc_int__baselibs__condition_variable</text><line style="stroke:#181818;stroke-width:0.5;" x1="662" x2="992.7539" y1="190.5" y2="190.5"/></g><!--class comp_arc_sta__baselibs__filesystem--><g id="elem_comp_arc_sta__baselibs__filesystem"><rect fill="#F1F1F1" height="40" id="comp_arc_sta__baselibs__filesystem" rx="2.5" ry="2.5" style="stroke:#181818;stroke-width:0.5;" width="285.4492" x="2915" y="275.5"/><ellipse cx="2930" cy="291.5" fill="#ADD1B2" rx="11" ry="11" style="stroke:#181818;stroke-width:1;"/><path d="M2932.9688,297.1406 Q2932.3906,297.4375 2931.75,297.5781 Q2931.1094,297.7344 2930.4063,297.7344 Q2927.9063,297.7344 2926.5781,296.0938 Q2925.2656,294.4375 2925.2656,291.3125 Q2925.2656,288.1875 2926.5781,286.5313 Q2927.9063,284.875 2930.4063,284.875 Q2931.1094,284.875 2931.75,285.0313 Q2932.4063,285.1875 2932.9688,285.4844 L2932.9688,288.2031 Q2932.3438,287.625 2931.75,287.3594 Q2931.1563,287.0781 2930.5313,287.0781 Q2929.1875,287.0781 2928.5,288.1563 Q2927.8125,289.2188 2927.8125,291.3125 Q2927.8125,293.4063 2928.5,294.4844 Q2929.1875,295.5469 2930.5313,295.5469 Q2931.1563,295.5469 2931.75,295.2813 Q2932.3438,295 2932.9688,294.4219 L2932.9688,297.1406 Z " fill="#000000"/><text fill="#000000" font-family="sans-serif" font-size="14" lengthAdjust="spacing" textLength="253.4492" x="2944" y="296.3467">comp_arc_sta__baselibs__filesystem</text><line style="stroke:#181818;stroke-width:0.5;" x1="2916" x2="3199.4492" y1="307.5" y2="307.5"/></g><!--class comp_arc_sta__baselibs__memory_shared--><g id="elem_comp_arc_sta__baselibs__memory_shared"><rect fill="#F1F1F1" height="40" id="comp_arc_sta__baselibs__memory_shared" rx="2.5" ry="2.5" style="stroke:#181818;stroke-width:0.5;" width="327.0117" x="2553" y="275.5"/><ellipse cx="2568" cy="291.5" fill="#ADD1B2" rx="11" ry="11" style="stroke:#181818;stroke-width:1;"/><path d="M2570.9688,297.1406 Q2570.3906,297.4375 2569.75,297.5781 Q2569.1094,297.7344 2568.4063,297.7344 Q2565.9063,297.7344 2564.5781,296.0938 Q2563.2656,294.4375 2563.2656,291.3125 Q2563.2656,288.1875 2564.5781,286.5313 Q2565.9063,284.875 2568.4063,284.875 Q2569.1094,284.875 2569.75,285.0313 Q2570.4063,285.1875 2570.9688,285.4844 L2570.9688,288.2031 Q2570.3438,287.625 2569.75,287.3594 Q2569.1563,287.0781 2568.5313,287.0781 Q2567.1875,287.0781 2566.5,288.1563 Q2565.8125,289.2188 2565.8125,291.3125 Q2565.8125,293.4063 2566.5,294.4844 Q2567.1875,295.5469 2568.5313,295.5469 Q2569.1563,295.5469 2569.75,295.2813 Q2570.3438,295 2570.9688,294.4219 L2570.9688,297.1406 Z " fill="#000000"/><text fill="#000000" font-family="sans-serif" font-size="14" lengthAdjust="spacing" textLength="295.0117" x="2582" y="296.3467">comp_arc_sta__baselibs__memory_shared</text><line style="stroke:#181818;stroke-width:0.5;" x1="2554" x2="2879.0117" y1="307.5" y2="307.5"/></g><!--class logic_arc_int__baselibs__synchronized_queue--><g id="elem_logic_arc_int__baselibs__synchronized_queue"><rect fill="#F1F1F1" height="40" id="logic_arc_int__baselibs__synchronized_queue" rx="2.5" ry="2.5" style="stroke:#181818;stroke-width:0.5;" width="348.3604" x="1029.5" y="158.5"/><ellipse cx="1044.5" cy="174.5" fill="#ADD1B2" rx="11" ry="11" style="stroke:#181818;stroke-width:1;"/><path d="M1047.4688,180.1406 Q1046.8906,180.4375 1046.25,180.5781 Q1045.6094,180.7344 1044.9063,180.7344 Q1042.4063,180.7344 1041.0781,179.0938 Q1039.7656,177.4375 1039.7656,174.3125 Q1039.7656,171.1875 1041.0781,169.5313 Q1042.4063,167.875 1044.9063,167.875 Q1045.6094,167.875 1046.25,168.0313 Q1046.9063,168.1875 1047.4688,168.4844 L1047.4688,171.2031 Q1046.8438,170.625 1046.25,170.3594 Q1045.6563,170.0781 1045.0313,170.0781 Q1043.6875,170.0781 1043,171.1563 Q1042.3125,172.2188 1042.3125,174.3125 Q1042.3125,176.4063 1043,177.4844 Q1043.6875,178.5469 1045.0313,178.5469 Q1045.6563,178.5469 1046.25,178.2813 Q1046.8438,178 1047.4688,177.4219 L1047.4688,180.1406 Z " fill="#000000"/><text fill="#000000" font-family="sans-serif" font-size="14" lengthAdjust="spacing" textLength="316.3604" x="1058.5" y="179.3467">logic_arc_int__baselibs__synchronized_queue</text><line style="stroke:#181818;stroke-width:0.5;" x1="1030.5" x2="1376.8604" y1="190.5" y2="190.5"/></g><!--class logic_arc_int__baselibs__utils_base64--><g id="elem_logic_arc_int__baselibs__utils_base64"><rect fill="#F1F1F1" height="40" id="logic_arc_int__baselibs__utils_base64" rx="2.5" ry="2.5" style="stroke:#181818;stroke-width:0.5;" width="292.1689" x="4572.5" y="158.5"/><ellipse cx="4587.5" cy="174.5" fill="#ADD1B2" rx="11" ry="11" style="stroke:#181818;stroke-width:1;"/><path d="M4590.4688,180.1406 Q4589.8906,180.4375 4589.25,180.5781 Q4588.6094,180.7344 4587.9063,180.7344 Q4585.4063,180.7344 4584.0781,179.0938 Q4582.7656,177.4375 4582.7656,174.3125 Q4582.7656,171.1875 4584.0781,169.5313 Q4585.4063,167.875 4587.9063,167.875 Q4588.6094,167.875 4589.25,168.0313 Q4589.9063,168.1875 4590.4688,168.4844 L4590.4688,171.2031 Q4589.8438,170.625 4589.25,170.3594 Q4588.6563,170.0781 4588.0313,170.0781 Q4586.6875,170.0781 4586,171.1563 Q4585.3125,172.2188 4585.3125,174.3125 Q4585.3125,176.4063 4586,177.4844 Q4586.6875,178.5469 4588.0313,178.5469 Q4588.6563,178.5469 4589.25,178.2813 Q4589.8438,178 4590.4688,177.4219 L4590.4688,180.1406 Z " fill="#000000"/><text fill="#000000" font-family="sans-serif" font-size="14" lengthAdjust="spacing" textLength="260.1689" x="4601.5" y="179.3467">logic_arc_int__baselibs__utils_base64</text><line style="stroke:#181818;stroke-width:0.5;" x1="4573.5" x2="4863.6689" y1="190.5" y2="190.5"/></g><!--class logic_arc_int__baselibs__bit_manipulation--><g id="elem_logic_arc_int__baselibs__bit_manipulation"><rect fill="#F1F1F1" height="40" id="logic_arc_int__baselibs__bit_manipulation" rx="2.5" ry="2.5" style="stroke:#181818;stroke-width:0.5;" width="321.8369" x="3226.5" y="158.5"/><ellipse cx="3241.5" cy="174.5" fill="#ADD1B2" rx="11" ry="11" style="stroke:#181818;stroke-width:1;"/><path d="M3244.4688,180.1406 Q3243.8906,180.4375 3243.25,180.5781 Q3242.6094,180.7344 3241.9063,180.7344 Q3239.4063,180.7344 3238.0781,179.0938 Q3236.7656,177.4375 3236.7656,174.3125 Q3236.7656,171.1875 3238.0781,169.5313 Q3239.4063,167.875 3241.9063,167.875 Q3242.6094,167.875 3243.25,168.0313 Q3243.9063,168.1875 3244.4688,168.4844 L3244.4688,171.2031 Q3243.8438,170.625 3243.25,170.3594 Q3242.6563,170.0781 3242.0313,170.0781 Q3240.6875,170.0781 3240,171.1563 Q3239.3125,172.2188 3239.3125,174.3125 Q3239.3125,176.4063 3240,177.4844 Q3240.6875,178.5469 3242.0313,178.5469 Q3242.6563,178.5469 3243.25,178.2813 Q3243.8438,178 3244.4688,177.4219 L3244.4688,180.1406 Z " fill="#000000"/><text fill="#000000" font-family="sans-serif" font-size="14" lengthAdjust="spacing" textLength="289.8369" x="3255.5" y="179.3467">logic_arc_int__baselibs__bit_manipulation</text><line style="stroke:#181818;stroke-width:0.5;" x1="3227.5" x2="3547.3369" y1="190.5" y2="190.5"/></g><!--reverse link logic_arc_int__baselibs__result to comp_arc_sta__baselibs__result--><g id="link_logic_arc_int__baselibs__result_comp_arc_sta__baselibs__result"><path codeLine="15" d="M6060.9346,204.7491 C6061.3046,225.9791 6061.79,253.94 6062.16,275.19 " fill="transparent" id="logic_arc_int__baselibs__result-backto-comp_arc_sta__baselibs__result" style="stroke:#181818;stroke-width:1;"/><polygon fill="#181818" points="6060.83,198.75,6056.9874,207.8183,6060.9171,203.7492,6064.9862,207.6789,6060.83,198.75" style="stroke:#181818;stroke-width:1;"/><text fill="#000000" font-family="sans-serif" font-size="13" lengthAdjust="spacing" textLength="76.9082" x="6062.5" y="241.5669">implements</text></g><!--reverse link logic_arc_int__baselibs__message_passing to comp_arc_sta__baselibs__message_passing--><g id="link_logic_arc_int__baselibs__message_passing_comp_arc_sta__baselibs__message_passing"><path codeLine="16" d="M5734.8418,204.7479 C5734.2818,225.9779 5733.56,253.94 5733,275.19 " fill="transparent" id="logic_arc_int__baselibs__message_passing-backto-comp_arc_sta__baselibs__message_passing" style="stroke:#181818;stroke-width:1;"/><polygon fill="#181818" points="5735,198.75,5730.7641,207.6414,5734.8682,203.7483,5738.7613,207.8523,5735,198.75" style="stroke:#181818;stroke-width:1;"/><text fill="#000000" font-family="sans-serif" font-size="13" lengthAdjust="spacing" textLength="76.9082" x="5735.5" y="241.5669">implements</text></g><!--reverse link logic_arc_int__baselibs__bit_mask_operator to comp_arc_sta__baselibs__bit_manipulation--><g id="link_logic_arc_int__baselibs__bit_mask_operator_comp_arc_sta__baselibs__bit_manipulation"><path codeLine="17" d="M3716.8386,202.0188 C3684.0686,223.3088 3636.62,254.14 3603.93,275.38 " fill="transparent" id="logic_arc_int__baselibs__bit_mask_operator-backto-comp_arc_sta__baselibs__bit_manipulation" style="stroke:#181818;stroke-width:1;"/><polygon fill="#181818" points="3721.87,198.75,3712.1437,200.2989,3717.6772,201.474,3716.5021,207.0075,3721.87,198.75" style="stroke:#181818;stroke-width:1;"/><text fill="#000000" font-family="sans-serif" font-size="13" lengthAdjust="spacing" textLength="76.9082" x="3675.5" y="241.5669">implements</text></g><!--link Feature_User to logic_arc_int__baselibs__filesystem--><g id="link_Feature_User_logic_arc_int__baselibs__filesystem"><path codeLine="18" d="M3053.5,81.55 C3053.5,106.45 3053.5,132.26 3053.5,152.26 " fill="transparent" id="Feature_User-to-logic_arc_int__baselibs__filesystem" style="stroke:#181818;stroke-width:1;"/><polygon fill="#181818" points="3053.5,158.26,3057.5,149.26,3053.5,153.26,3049.5,149.26,3053.5,158.26" style="stroke:#181818;stroke-width:1;"/><text fill="#000000" font-family="sans-serif" font-size="13" lengthAdjust="spacing" textLength="23.0103" x="3054.5" y="124.5669">use</text></g><!--reverse link logic_arc_int__baselibs__future to comp_arc_sta__baselibs__concurrency--><g id="link_logic_arc_int__baselibs__future_comp_arc_sta__baselibs__concurrency"><path codeLine="19" d="M1494.3623,201.5289 C1453.6223,222.8189 1393.71,254.14 1353.08,275.38 " fill="transparent" id="logic_arc_int__baselibs__future-backto-comp_arc_sta__baselibs__concurrency" style="stroke:#181818;stroke-width:1;"/><polygon fill="#181818" points="1499.68,198.75,1489.8509,199.3733,1495.2486,201.0658,1493.5561,206.4635,1499.68,198.75" style="stroke:#181818;stroke-width:1;"/><text fill="#000000" font-family="sans-serif" font-size="13" lengthAdjust="spacing" textLength="76.9082" x="1441.5" y="241.5669">implements</text></g><!--reverse link logic_arc_int__baselibs__utils_scoped_op to comp_arc_sta__baselibs__utils--><g id="link_logic_arc_int__baselibs__utils_scoped_op_comp_arc_sta__baselibs__utils"><path codeLine="20" d="M4407.9324,202.5265 C4434.1424,223.7565 4471.41,253.94 4497.65,275.19 " fill="transparent" id="logic_arc_int__baselibs__utils_scoped_op-backto-comp_arc_sta__baselibs__utils" style="stroke:#181818;stroke-width:1;"/><polygon fill="#181818" points="4403.27,198.75,4407.7459,207.523,4407.1553,201.8971,4412.7813,201.3065,4403.27,198.75" style="stroke:#181818;stroke-width:1;"/><text fill="#000000" font-family="sans-serif" font-size="13" lengthAdjust="spacing" textLength="76.9082" x="4460.5" y="241.5669">implements</text></g><!--reverse link logic_arc_int__baselibs__dynamic_array to comp_arc_sta__baselibs__containers--><g id="link_logic_arc_int__baselibs__dynamic_array_comp_arc_sta__baselibs__containers"><path codeLine="21" d="M5086.3918,202.1527 C5117.3118,223.4427 5161.89,254.14 5192.74,275.38 " fill="transparent" id="logic_arc_int__baselibs__dynamic_array-backto-comp_arc_sta__baselibs__containers" style="stroke:#181818;stroke-width:1;"/><polygon fill="#181818" points="5081.45,198.75,5086.5943,207.1486,5085.5682,201.5856,5091.1312,200.5595,5081.45,198.75" style="stroke:#181818;stroke-width:1;"/><text fill="#000000" font-family="sans-serif" font-size="13" lengthAdjust="spacing" textLength="76.9082" x="5148.5" y="241.5669">implements</text></g><!--link Feature_User to logic_arc_int__baselibs__memory_shared--><g id="link_Feature_User_logic_arc_int__baselibs__memory_shared"><path codeLine="22" d="M3008.38,62.58 C2945.71,87.68 2838.3894,130.668 2774.5094,156.268 " fill="transparent" id="Feature_User-to-logic_arc_int__baselibs__memory_shared" style="stroke:#181818;stroke-width:1;"/><polygon fill="#181818" points="2768.94,158.5,2778.7821,158.865,2773.5812,156.64,2775.8062,151.4391,2768.94,158.5" style="stroke:#181818;stroke-width:1;"/><text fill="#000000" font-family="sans-serif" font-size="13" lengthAdjust="spacing" textLength="23.0103" x="2879.5" y="124.5669">use</text></g><!--link Feature_User to logic_arc_int__baselibs__task_result--><g id="link_Feature_User_logic_arc_int__baselibs__task_result"><path codeLine="23" d="M3008.45,45.44 C2789.87,50.14 1817.97,72.32 1022.5,111.5 C703.54,127.21 623.48,128.98 305.5,158.5 C299.86,159.02 300.0792,158.9828 294.2792,159.5728 " fill="transparent" id="Feature_User-to-logic_arc_int__baselibs__task_result" style="stroke:#181818;stroke-width:1;"/><polygon fill="#181818" points="288.31,160.18,297.6686,163.2486,293.2843,159.674,296.859,155.2897,288.31,160.18" style="stroke:#181818;stroke-width:1;"/><text fill="#000000" font-family="sans-serif" font-size="13" lengthAdjust="spacing" textLength="23.0103" x="1023.5" y="124.5669">use</text></g><!--link Feature_User to logic_arc_int__baselibs__task--><g id="link_Feature_User_logic_arc_int__baselibs__task"><path codeLine="24" d="M3008.4,48.54 C2857.82,62.17 2358.75,108.38 1947.5,158.5 C1941.63,159.22 1941.5598,159.1956 1935.4898,159.9856 " fill="transparent" id="Feature_User-to-logic_arc_int__baselibs__task" style="stroke:#181818;stroke-width:1;"/><polygon fill="#181818" points="1929.54,160.76,1938.981,163.565,1934.4982,160.1147,1937.9485,155.6319,1929.54,160.76" style="stroke:#181818;stroke-width:1;"/><text fill="#000000" font-family="sans-serif" font-size="13" lengthAdjust="spacing" textLength="23.0103" x="2343.5" y="124.5669">use</text></g><!--reverse link logic_arc_int__baselibs__shared_future to comp_arc_sta__baselibs__concurrency--><g id="link_logic_arc_int__baselibs__shared_future_comp_arc_sta__baselibs__concurrency"><path codeLine="25" d="M619.6847,199.3426 C716.1747,212.5326 841.68,229.68 957.5,245.5 C1029.95,255.39 1110.63,266.41 1177.13,275.48 " fill="transparent" id="logic_arc_int__baselibs__shared_future-backto-comp_arc_sta__baselibs__concurrency" style="stroke:#181818;stroke-width:1;"/><polygon fill="#181818" points="613.74,198.53,622.1153,203.7121,618.6939,199.2072,623.1988,195.7858,613.74,198.53" style="stroke:#181818;stroke-width:1;"/><text fill="#000000" font-family="sans-serif" font-size="13" lengthAdjust="spacing" textLength="76.9082" x="958.5" y="241.5669">implements</text></g><!--reverse link logic_arc_int__baselibs__intrusive_list to comp_arc_sta__baselibs__containers--><g id="link_logic_arc_int__baselibs__intrusive_list_comp_arc_sta__baselibs__containers"><path codeLine="26" d="M5356.2494,202.1252 C5324.9594,223.4152 5279.81,254.14 5248.6,275.38 " fill="transparent" id="logic_arc_int__baselibs__intrusive_list-backto-comp_arc_sta__baselibs__containers" style="stroke:#181818;stroke-width:1;"/><polygon fill="#181818" points="5361.21,198.75,5351.5189,200.5058,5357.0762,201.5627,5356.0192,207.1199,5361.21,198.75" style="stroke:#181818;stroke-width:1;"/><text fill="#000000" font-family="sans-serif" font-size="13" lengthAdjust="spacing" textLength="76.9082" x="5316.5" y="241.5669">implements</text></g><!--reverse link logic_arc_int__baselibs__executor to comp_arc_sta__baselibs__concurrency--><g id="link_logic_arc_int__baselibs__executor_comp_arc_sta__baselibs__concurrency"><path codeLine="27" d="M2255.1559,197.0305 C2249.2059,197.7705 2249.27,197.77 2243.5,198.5 C2077.28,219.4 2036.08,227.66 1869.5,245.5 C1733.29,260.09 1577.88,273.58 1466.57,282.7 " fill="transparent" id="logic_arc_int__baselibs__executor-backto-comp_arc_sta__baselibs__concurrency" style="stroke:#181818;stroke-width:1;"/><polygon fill="#181818" points="2261.11,196.29,2251.6851,193.4314,2256.1482,196.9071,2252.6725,201.3702,2261.11,196.29" style="stroke:#181818;stroke-width:1;"/><text fill="#000000" font-family="sans-serif" font-size="13" lengthAdjust="spacing" textLength="76.9082" x="2013.5" y="241.5669">implements</text></g><!--link Feature_User to logic_arc_int__baselibs__future--><g id="link_Feature_User_logic_arc_int__baselibs__future"><path codeLine="28" d="M3008.27,47.25 C2835.27,57.97 2199.12,99.35 1677.5,158.5 C1671.86,159.14 1672.0472,159.1047 1666.2172,159.8047 " fill="transparent" id="Feature_User-to-logic_arc_int__baselibs__future" style="stroke:#181818;stroke-width:1;"/><polygon fill="#181818" points="1660.26,160.52,1669.6727,163.4186,1665.2243,159.9239,1668.719,155.4756,1660.26,160.52" style="stroke:#181818;stroke-width:1;"/><text fill="#000000" font-family="sans-serif" font-size="13" lengthAdjust="spacing" textLength="23.0103" x="2132.5" y="124.5669">use</text></g><!--reverse link logic_arc_int__baselibs__promise to comp_arc_sta__baselibs__concurrency--><g id="link_logic_arc_int__baselibs__promise_comp_arc_sta__baselibs__concurrency"><path codeLine="29" d="M1974.7485,199.4874 C1891.4985,213.0874 1782.09,230.59 1680.5,245.5 C1609.37,255.94 1530.29,266.69 1464.05,275.45 " fill="transparent" id="logic_arc_int__baselibs__promise-backto-comp_arc_sta__baselibs__concurrency" style="stroke:#181818;stroke-width:1;"/><polygon fill="#181818" points="1980.67,198.52,1971.1428,196.0234,1975.7354,199.3261,1972.4326,203.9187,1980.67,198.52" style="stroke:#181818;stroke-width:1;"/><text fill="#000000" font-family="sans-serif" font-size="13" lengthAdjust="spacing" textLength="76.9082" x="1784.5" y="241.5669">implements</text></g><!--reverse link logic_arc_int__baselibs__json to comp_arc_sta__baselibs__json--><g id="link_logic_arc_int__baselibs__json_comp_arc_sta__baselibs__json"><path codeLine="30" d="M4070.5,204.75 C4070.5,225.98 4070.5,253.94 4070.5,275.19 " fill="transparent" id="logic_arc_int__baselibs__json-backto-comp_arc_sta__baselibs__json" style="stroke:#181818;stroke-width:1;"/><polygon fill="#181818" points="4070.5,198.75,4066.5,207.75,4070.5,203.75,4074.5,207.75,4070.5,198.75" style="stroke:#181818;stroke-width:1;"/><text fill="#000000" font-family="sans-serif" font-size="13" lengthAdjust="spacing" textLength="76.9082" x="4071.5" y="241.5669">implements</text></g><!--link Feature_User to logic_arc_int__baselibs__condition_variable--><g id="link_Feature_User_logic_arc_int__baselibs__condition_variable"><path codeLine="31" d="M3008.15,46.02 C2788.16,53.61 1810.11,89.77 1011.5,158.5 C1005.9,158.98 1006.1856,158.9496 1000.4356,159.4696 " fill="transparent" id="Feature_User-to-logic_arc_int__baselibs__condition_variable" style="stroke:#181818;stroke-width:1;"/><polygon fill="#181818" points="994.46,160.01,1003.7837,163.1831,999.4397,159.5597,1003.0632,155.2157,994.46,160.01" style="stroke:#181818;stroke-width:1;"/><text fill="#000000" font-family="sans-serif" font-size="13" lengthAdjust="spacing" textLength="23.0103" x="1629.5" y="124.5669">use</text></g><!--link Feature_User to logic_arc_int__baselibs__message_passing--><g id="link_Feature_User_logic_arc_int__baselibs__message_passing"><path codeLine="32" d="M3098.81,45.68 C3302.81,51.1 4156.59,74.91 4856.5,111.5 C5166.56,127.71 5244.16,131.93 5553.5,158.5 C5559.36,159 5559.345,158.9832 5565.355,159.5332 " fill="transparent" id="Feature_User-to-logic_arc_int__baselibs__message_passing" style="stroke:#181818;stroke-width:1;"/><polygon fill="#181818" points="5571.33,160.08,5562.732,155.2764,5566.3508,159.6243,5562.0029,163.2432,5571.33,160.08" style="stroke:#181818;stroke-width:1;"/><text fill="#000000" font-family="sans-serif" font-size="13" lengthAdjust="spacing" textLength="23.0103" x="5160.5" y="124.5669">use</text></g><!--reverse link logic_arc_int__baselibs__filesystem to comp_arc_sta__baselibs__filesystem--><g id="link_logic_arc_int__baselibs__filesystem_comp_arc_sta__baselibs__filesystem"><path codeLine="33" d="M3054.379,204.7464 C3055.119,225.9764 3056.09,253.94 3056.83,275.19 " fill="transparent" id="logic_arc_int__baselibs__filesystem-backto-comp_arc_sta__baselibs__filesystem" style="stroke:#181818;stroke-width:1;"/><polygon fill="#181818" points="3054.17,198.75,3050.4859,207.8839,3054.3442,203.747,3058.4811,207.6052,3054.17,198.75" style="stroke:#181818;stroke-width:1;"/><text fill="#000000" font-family="sans-serif" font-size="13" lengthAdjust="spacing" textLength="76.9082" x="3057.5" y="241.5669">implements</text></g><!--reverse link logic_arc_int__baselibs__memory_shared to comp_arc_sta__baselibs__memory_shared--><g id="link_logic_arc_int__baselibs__memory_shared_comp_arc_sta__baselibs__memory_shared"><path codeLine="34" d="M2720.4002,204.7444 C2719.4802,225.9744 2718.26,253.94 2717.34,275.19 " fill="transparent" id="logic_arc_int__baselibs__memory_shared-backto-comp_arc_sta__baselibs__memory_shared" style="stroke:#181818;stroke-width:1;"/><polygon fill="#181818" points="2720.66,198.75,2716.2741,207.5684,2720.4435,203.7453,2724.2666,207.9147,2720.66,198.75" style="stroke:#181818;stroke-width:1;"/><text fill="#000000" font-family="sans-serif" font-size="13" lengthAdjust="spacing" textLength="76.9082" x="2720.5" y="241.5669">implements</text></g><!--link Feature_User to logic_arc_int__baselibs__bit_mask_operator--><g id="link_Feature_User_logic_arc_int__baselibs__bit_mask_operator"><path codeLine="35" d="M3098.76,53.12 C3209.86,74.29 3492.2161,128.0969 3645.8161,157.3669 " fill="transparent" id="Feature_User-to-logic_arc_int__baselibs__bit_mask_operator" style="stroke:#181818;stroke-width:1;"/><polygon fill="#181818" points="3651.71,158.49,3643.6179,152.876,3646.7984,157.554,3642.1203,160.7346,3651.71,158.49" style="stroke:#181818;stroke-width:1;"/><text fill="#000000" font-family="sans-serif" font-size="13" lengthAdjust="spacing" textLength="23.0103" x="3487.5" y="124.5669">use</text></g><!--link Feature_User to logic_arc_int__baselibs__result--><g id="link_Feature_User_logic_arc_int__baselibs__result"><path codeLine="36" d="M3098.68,45.35 C3324.35,49.73 4351.94,71.06 5192.5,111.5 C5514.58,126.99 5595.59,126.95 5916.5,158.5 C5923.65,159.2 5925.0374,159.3212 5932.4374,160.1512 " fill="transparent" id="Feature_User-to-logic_arc_int__baselibs__result" style="stroke:#181818;stroke-width:1;"/><polygon fill="#181818" points="5938.4,160.82,5929.9019,155.8418,5933.4312,160.2627,5929.0102,163.7919,5938.4,160.82" style="stroke:#181818;stroke-width:1;"/><text fill="#000000" font-family="sans-serif" font-size="13" lengthAdjust="spacing" textLength="23.0103" x="5544.5" y="124.5669">use</text></g><!--link Feature_User to logic_arc_int__baselibs__synchronized_queue--><g id="link_Feature_User_logic_arc_int__baselibs__synchronized_queue"><path codeLine="37" d="M3008.35,46.83 C2857.63,54.68 2358.01,81.41 1945.5,111.5 C1700.81,129.35 1639.8,135.98 1395.5,158.5 C1389.66,159.04 1389.7031,159.0226 1383.7031,159.5926 " fill="transparent" id="Feature_User-to-logic_arc_int__baselibs__synchronized_queue" style="stroke:#181818;stroke-width:1;"/><polygon fill="#181818" points="1377.73,160.16,1387.068,163.2909,1382.7076,159.6871,1386.3114,155.3268,1377.73,160.16" style="stroke:#181818;stroke-width:1;"/><text fill="#000000" font-family="sans-serif" font-size="13" lengthAdjust="spacing" textLength="23.0103" x="1946.5" y="124.5669">use</text></g><!--link Feature_User to logic_arc_int__baselibs__dynamic_array--><g id="link_Feature_User_logic_arc_int__baselibs__dynamic_array"><path codeLine="38" d="M3098.8,46.39 C3304.6,55.15 4172.13,94.24 4881.5,158.5 C4887.33,159.03 4887.3078,159.0127 4893.3078,159.5927 " fill="transparent" id="Feature_User-to-logic_arc_int__baselibs__dynamic_array" style="stroke:#181818;stroke-width:1;"/><polygon fill="#181818" points="4899.28,160.17,4890.7066,155.3226,4894.3032,159.6889,4889.9369,163.2855,4899.28,160.17" style="stroke:#181818;stroke-width:1;"/><text fill="#000000" font-family="sans-serif" font-size="13" lengthAdjust="spacing" textLength="23.0103" x="4483.5" y="124.5669">use</text></g><!--link Feature_User to logic_arc_int__baselibs__utils_base64--><g id="link_Feature_User_logic_arc_int__baselibs__utils_base64"><path codeLine="39" d="M3098.68,47.28 C3281.04,58.62 3980.55,103.48 4554.5,158.5 C4560.35,159.06 4560.3415,159.0363 4566.3715,159.6563 " fill="transparent" id="Feature_User-to-logic_arc_int__baselibs__utils_base64" style="stroke:#181818;stroke-width:1;"/><polygon fill="#181818" points="4572.34,160.27,4563.7963,155.3705,4567.3662,159.7586,4562.9781,163.3285,4572.34,160.27" style="stroke:#181818;stroke-width:1;"/><text fill="#000000" font-family="sans-serif" font-size="13" lengthAdjust="spacing" textLength="23.0103" x="4185.5" y="124.5669">use</text></g><!--link Feature_User to logic_arc_int__baselibs__bit_manipulation--><g id="link_Feature_User_logic_arc_int__baselibs__bit_manipulation"><path codeLine="40" d="M3098.54,62.44 C3161.49,87.5 3269.6854,130.5909 3334.0954,156.2309 " fill="transparent" id="Feature_User-to-logic_arc_int__baselibs__bit_manipulation" style="stroke:#181818;stroke-width:1;"/><polygon fill="#181818" points="3339.67,158.45,3332.7876,151.405,3335.0245,156.6008,3329.8288,158.8377,3339.67,158.45" style="stroke:#181818;stroke-width:1;"/><text fill="#000000" font-family="sans-serif" font-size="13" lengthAdjust="spacing" textLength="23.0103" x="3261.5" y="124.5669">use</text></g><!--reverse link logic_arc_int__baselibs__utils_base64 to comp_arc_sta__baselibs__utils--><g id="link_logic_arc_int__baselibs__utils_base64_comp_arc_sta__baselibs__utils"><path codeLine="41" d="M4680.3479,201.7743 C4643.8679,223.0643 4590.64,254.14 4554.25,275.38 " fill="transparent" id="logic_arc_int__baselibs__utils_base64-backto-comp_arc_sta__baselibs__utils" style="stroke:#181818;stroke-width:1;"/><polygon fill="#181818" points="4685.53,198.75,4675.7407,199.8317,4681.2116,201.2702,4679.7731,206.7411,4685.53,198.75" style="stroke:#181818;stroke-width:1;"/><text fill="#000000" font-family="sans-serif" font-size="13" lengthAdjust="spacing" textLength="76.9082" x="4633.5" y="241.5669">implements</text></g><!--link Feature_User to logic_arc_int__baselibs__executor--><g id="link_Feature_User_logic_arc_int__baselibs__executor"><path codeLine="42" d="M3008.46,53.59 C2901.94,75.09 2638.5614,128.2429 2494.5914,157.3029 " fill="transparent" id="Feature_User-to-logic_arc_int__baselibs__executor" style="stroke:#181818;stroke-width:1;"/><polygon fill="#181818" points="2488.71,158.49,2498.3235,160.6302,2493.6112,157.5007,2496.7406,152.7884,2488.71,158.49" style="stroke:#181818;stroke-width:1;"/><text fill="#000000" font-family="sans-serif" font-size="13" lengthAdjust="spacing" textLength="23.0103" x="2705.5" y="124.5669">use</text></g><!--reverse link logic_arc_int__baselibs__task to comp_arc_sta__baselibs__concurrency--><g id="link_logic_arc_int__baselibs__task_comp_arc_sta__baselibs__concurrency"><path codeLine="43" d="M1724.4751,199.9052 C1632.6551,221.1952 1490.72,254.11 1398.84,275.41 " fill="transparent" id="logic_arc_int__baselibs__task-backto-comp_arc_sta__baselibs__concurrency" style="stroke:#181818;stroke-width:1;"/><polygon fill="#181818" points="1730.32,198.55,1720.6491,196.6862,1725.4492,199.6794,1722.4561,204.4795,1730.32,198.55" style="stroke:#181818;stroke-width:1;"/><text fill="#000000" font-family="sans-serif" font-size="13" lengthAdjust="spacing" textLength="76.9082" x="1595.5" y="241.5669">implements</text></g><!--reverse link logic_arc_int__baselibs__synchronized_queue to comp_arc_sta__baselibs__concurrency--><g id="link_logic_arc_int__baselibs__synchronized_queue_comp_arc_sta__baselibs__concurrency"><path codeLine="44" d="M1226.6152,203.0298 C1247.4752,224.2598 1276.64,253.94 1297.52,275.19 " fill="transparent" id="logic_arc_int__baselibs__synchronized_queue-backto-comp_arc_sta__baselibs__concurrency" style="stroke:#181818;stroke-width:1;"/><polygon fill="#181818" points="1222.41,198.75,1225.8646,207.9731,1225.9143,202.3165,1231.571,202.3662,1222.41,198.75" style="stroke:#181818;stroke-width:1;"/><text fill="#000000" font-family="sans-serif" font-size="13" lengthAdjust="spacing" textLength="76.9082" x="1268.5" y="241.5669">implements</text></g><!--reverse link logic_arc_int__baselibs__condition_variable to comp_arc_sta__baselibs__concurrency--><g id="link_logic_arc_int__baselibs__condition_variable_comp_arc_sta__baselibs__concurrency"><path codeLine="45" d="M914.3606,199.9237 C1004.8806,221.2137 1144.74,254.11 1235.32,275.41 " fill="transparent" id="logic_arc_int__baselibs__condition_variable-backto-comp_arc_sta__baselibs__concurrency" style="stroke:#181818;stroke-width:1;"/><polygon fill="#181818" points="908.52,198.55,916.3651,204.5043,913.3872,199.6947,918.1967,196.7168,908.52,198.55" style="stroke:#181818;stroke-width:1;"/><text fill="#000000" font-family="sans-serif" font-size="13" lengthAdjust="spacing" textLength="76.9082" x="1102.5" y="241.5669">implements</text></g><!--link Feature_User to logic_arc_int__baselibs__json--><g id="link_Feature_User_logic_arc_int__baselibs__json"><path codeLine="46" d="M3098.55,50.12 C3228.57,66.36 3615.6,115.04 3936.5,158.5 C3942.2,159.27 3942.0958,159.2539 3947.9958,160.0639 " fill="transparent" id="Feature_User-to-logic_arc_int__baselibs__json" style="stroke:#181818;stroke-width:1;"/><polygon fill="#181818" points="3953.94,160.88,3945.5677,155.6931,3948.9865,160.1999,3944.4796,163.6187,3953.94,160.88" style="stroke:#181818;stroke-width:1;"/><text fill="#000000" font-family="sans-serif" font-size="13" lengthAdjust="spacing" textLength="23.0103" x="3695.5" y="124.5669">use</text></g><!--link Feature_User to logic_arc_int__baselibs__intrusive_list--><g id="link_Feature_User_logic_arc_int__baselibs__intrusive_list"><path codeLine="47" d="M3098.69,46.23 C3278.04,53.19 3957.07,80.2 4515.5,111.5 C4830.81,129.17 4909.99,129.98 5224.5,158.5 C5230.53,159.05 5230.7087,159.0435 5236.9187,159.6535 " fill="transparent" id="Feature_User-to-logic_arc_int__baselibs__intrusive_list" style="stroke:#181818;stroke-width:1;"/><polygon fill="#181818" points="5242.89,160.24,5234.3241,155.3793,5237.9139,159.7512,5233.5421,163.341,5242.89,160.24" style="stroke:#181818;stroke-width:1;"/><text fill="#000000" font-family="sans-serif" font-size="13" lengthAdjust="spacing" textLength="23.0103" x="4824.5" y="124.5669">use</text></g><!--reverse link logic_arc_int__baselibs__task_result to comp_arc_sta__baselibs__concurrency--><g id="link_logic_arc_int__baselibs__task_result_comp_arc_sta__baselibs__concurrency"><path codeLine="48" d="M294.2904,197.2285 C300.0904,197.8985 299.87,197.87 305.5,198.5 C504.01,220.87 553.65,226.41 752.5,245.5 C892.65,258.95 1052.55,272.69 1166.22,282.19 " fill="transparent" id="logic_arc_int__baselibs__task_result-backto-comp_arc_sta__baselibs__concurrency" style="stroke:#181818;stroke-width:1;"/><polygon fill="#181818" points="288.33,196.54,296.8115,201.5464,293.297,197.1138,297.7296,193.5992,288.33,196.54" style="stroke:#181818;stroke-width:1;"/><text fill="#000000" font-family="sans-serif" font-size="13" lengthAdjust="spacing" textLength="76.9082" x="753.5" y="241.5669">implements</text></g><!--link Feature_User to logic_arc_int__baselibs__promise--><g id="link_Feature_User_logic_arc_int__baselibs__promise"><path codeLine="49" d="M3008.26,50.78 C2869.08,70.1 2449.563,128.3451 2232.213,158.5151 " fill="transparent" id="Feature_User-to-logic_arc_int__baselibs__promise" style="stroke:#181818;stroke-width:1;"/><polygon fill="#181818" points="2226.27,159.34,2235.7345,162.0646,2231.2225,158.6525,2234.6346,154.1406,2226.27,159.34" style="stroke:#181818;stroke-width:1;"/><text fill="#000000" font-family="sans-serif" font-size="13" lengthAdjust="spacing" textLength="23.0103" x="2547.5" y="124.5669">use</text></g><!--link Feature_User to logic_arc_int__baselibs__shared_future--><g id="link_Feature_User_logic_arc_int__baselibs__shared_future"><path codeLine="50" d="M3008.26,45.89 C2812.64,51.97 2020,77.51 1369.5,111.5 C1046.6,128.37 965.58,129.99 643.5,158.5 C637.62,159.02 637.5926,159.0074 631.5426,159.5874 " fill="transparent" id="Feature_User-to-logic_arc_int__baselibs__shared_future" style="stroke:#181818;stroke-width:1;"/><polygon fill="#181818" points="625.57,160.16,634.9106,163.2829,630.5472,159.6828,634.1472,155.3194,625.57,160.16" style="stroke:#181818;stroke-width:1;"/><text fill="#000000" font-family="sans-serif" font-size="13" lengthAdjust="spacing" textLength="23.0103" x="1370.5" y="124.5669">use</text></g><!--reverse link logic_arc_int__baselibs__bit_manipulation to comp_arc_sta__baselibs__bit_manipulation--><g id="link_logic_arc_int__baselibs__bit_manipulation_comp_arc_sta__baselibs__bit_manipulation"><path codeLine="51" d="M3423.9109,201.893 C3458.5309,223.183 3508.87,254.14 3543.41,275.38 " fill="transparent" id="logic_arc_int__baselibs__bit_manipulation-backto-comp_arc_sta__baselibs__bit_manipulation" style="stroke:#181818;stroke-width:1;"/><polygon fill="#181818" points="3418.8,198.75,3424.371,206.8718,3423.0591,201.3692,3428.5617,200.0573,3418.8,198.75" style="stroke:#181818;stroke-width:1;"/><text fill="#000000" font-family="sans-serif" font-size="13" lengthAdjust="spacing" textLength="76.9082" x="3493.5" y="241.5669">implements</text></g><!--link Feature_User to logic_arc_int__baselibs__utils_scoped_op--><g id="link_Feature_User_logic_arc_int__baselibs__utils_scoped_op"><path codeLine="52" d="M3098.76,48.83 C3253.29,63.64 3774.33,113.85 4204.5,158.5 C4210.12,159.08 4209.8831,159.0503 4215.6631,159.6603 " fill="transparent" id="Feature_User-to-logic_arc_int__baselibs__utils_scoped_op" style="stroke:#181818;stroke-width:1;"/><polygon fill="#181818" points="4221.63,160.29,4213.0995,155.3675,4216.6576,159.7652,4212.2599,163.3233,4221.63,160.29" style="stroke:#181818;stroke-width:1;"/><text fill="#000000" font-family="sans-serif" font-size="13" lengthAdjust="spacing" textLength="23.0103" x="3889.5" y="124.5669">use</text></g><!--SRC=[hLR9Rjmm3BthAuJS9osAeeSWoAL0JpcsPu6McHasMboHIkCM_VVAuqapMyPBVPJDvV6HV18u5tyQJyyKrafYeoNgAef4hsjAQ8LYK1kgKRDWmYXjW_qPVIEj1f54LHPaTSlIEhnJry3aAlrRtLF0pz75f1FMszFN3Td7WCpwm_LxzKVTljlvAB1IxAw-84XEgBynfYiDh7SVJFT1AsMZRmmaQrZ0c0eO7LLiJ4BEJlGgh-wqYskoMoCAScfqeyat3Zq6OVrcG5z0mXfD0yo5ce78HzRZKbGanaEW9ZleQ1x8qPlpeuaD9YXi7MOv86fLNuhqG0wvBVtqDpepletGnc1pIXXiEm3k8NV9nzMTXHmFnDlQ6BQbrheKF2vmWIjGfYmDHQ_R07xxAq4xcqQFFgRMy0RAUE-OdE0kNIzVHdAEysBDwokOrCFHL9TZoanFQ1onZ0u-4Za-eyt_jGgxcXTYiadH4u_ay3iFxdndChks0hkcJbZC4oI2ok7qEJiHjej4lGhBa5piAT0uDTvRjK4jFbZBcUITKTkftCtTRMw3tQGOw5TPoXyPyuo-7IdSLFTUVhlpfu_JlOylje6f6NyVl02QsTDNjLXetNiLNbRIpdL_sGpdT64cexq-JPsFupjXmMwSVUDDWFPFm2SlxU4TUh6aMG-__NMQMTp9esgByYy0]--></g></svg>