<svg xmlns="http://www.w3.org/2000/svg" xmlns:xlink="http://www.w3.org/1999/xlink" contentStyleType="text/css" data-diagram-type="CLASS" height="322px" preserveAspectRatio="none" style="width:6191px;height:322px;background:#FFFFFF;" version="1.1" viewBox="0 0 6191 322" width="6191px" zoomAndPan="magnify"><defs/><g><!--entity Feature_User--><g id="elem_Feature_User"><ellipse cx="3058.6685" cy="14" fill="#F1F1F1" rx="8" ry="8" style="stroke:#181818;stroke-width:0.5;"/><path d="M3058.6685,22 L3058.6685,49 M3045.6685,30 L3071.6685,30 M3058.6685,49 L3045.6685,64 M3058.6685,49 L3071.6685,64 " fill="transparent" style="stroke:#181818;stroke-width:0.5;"/><text fill="#000000" font-family="sans-serif" font-size="14" lengthAdjust="spacing" textLength="90.3369" x="3013.5" y="78.4951">Feature User</text></g><!--class logic_arc_int__baselibs__filesystem--><g id="elem_logic_arc_int__baselibs__filesystem"><rect fill="#F1F1F1" height="40" id="logic_arc_int__baselibs__filesystem" rx="2.5" ry="2.5" style="stroke:#181818;stroke-width:0.5;" width="276.4805" x="4543.5" y="158.5"/><ellipse cx="4558.5" cy="174.5" fill="#ADD1B2" rx="11" ry="11" style="stroke:#181818;stroke-width:1;"/><path d="M4561.4688,180.1406 Q4560.8906,180.4375 4560.25,180.5781 Q4559.6094,180.7344 4558.9063,180.7344 Q4556.4063,180.7344 4555.0781,179.0938 Q4553.7656,177.4375 4553.7656,174.3125 Q4553.7656,171.1875 4555.0781,169.5313 Q4556.4063,167.875 4558.9063,167.875 Q4559.6094,167.875 4560.25,168.0313 Q4560.9063,168.1875 4561.4688,168.4844 L4561.4688,171.2031 Q4560.8438,170.625 4560.25,170.3594 Q4559.6563,170.0781 4559.0313,170.0781 Q4557.6875,170.0781 4557,171.1563 Q4556.3125,172.2188 4556.3125,174.3125 Q4556.3125,176.4063 4557,177.4844 Q4557.6875,178.5469 4559.0313,178.5469 Q4559.6563,178.5469 4560.25,178.2813 Q4560.8438,178 4561.4688,177.4219 L4561.4688,180.1406 Z " fill="#000000"/><text fill="#000000" font-family="sans-serif" font-size="14" lengthAdjust="spacing" textLength="244.4805" x="4572.5" y="179.3467">logic_arc_int__baselibs__filesystem</text><line style="stroke:#181818;stroke-width:0.5;" x1="4544.5" x2="4818.9805" y1="190.5" y2="190.5"/></g><!--class comp_arc_sta__baselibs__concurrency--><g id="elem_comp_arc_sta__baselibs__concurrency"><rect fill="#F1F1F1" height="40" id="comp_arc_sta__baselibs__concurrency" rx="2.5" ry="2.5" style="stroke:#181818;stroke-width:0.5;" width="300.2012" x="3022.5" y="275.5"/><ellipse cx="3037.5" cy="291.5" fill="#ADD1B2" rx="11" ry="11" style="stroke:#181818;stroke-width:1;"/><path d="M3040.4688,297.1406 Q3039.8906,297.4375 3039.25,297.5781 Q3038.6094,297.7344 3037.9063,297.7344 Q3035.4063,297.7344 3034.0781,296.0938 Q3032.7656,294.4375 3032.7656,291.3125 Q3032.7656,288.1875 3034.0781,286.5313 Q3035.4063,284.875 3037.9063,284.875 Q3038.6094,284.875 3039.25,285.0313 Q3039.9063,285.1875 3040.4688,285.4844 L3040.4688,288.2031 Q3039.8438,287.625 3039.25,287.3594 Q3038.6563,287.0781 3038.0313,287.0781 Q3036.6875,287.0781 3036,288.1563 Q3035.3125,289.2188 3035.3125,291.3125 Q3035.3125,293.4063 3036,294.4844 Q3036.6875,295.5469 3038.0313,295.5469 Q3038.6563,295.5469 3039.25,295.2813 Q3039.8438,295 3040.4688,294.4219 L3040.4688,297.1406 Z " fill="#000000"/><text fill="#000000" font-family="sans-serif" font-size="14" lengthAdjust="spacing" textLength="268.2012" x="3051.5" y="296.3467">comp_arc_sta__baselibs__concurrency</text><line style="stroke:#181818;stroke-width:0.5;" x1="3023.5" x2="3321.7012" y1="307.5" y2="307.5"/></g><!--class logic_arc_int__baselibs__promise--><g id="elem_logic_arc_int__baselibs__promise"><rect fill="#F1F1F1" height="40" id="logic_arc_int__baselibs__promise" rx="2.5" ry="2.5" style="stroke:#181818;stroke-width:0.5;" width="261.1885" x="2326" y="158.5"/><ellipse cx="2341" cy="174.5" fill="#ADD1B2" rx="11" ry="11" style="stroke:#181818;stroke-width:1;"/><path d="M2343.9688,180.1406 Q2343.3906,180.4375 2342.75,180.5781 Q2342.1094,180.7344 2341.4063,180.7344 Q2338.9063,180.7344 2337.5781,179.0938 Q2336.2656,177.4375 2336.2656,174.3125 Q2336.2656,171.1875 2337.5781,169.5313 Q2338.9063,167.875 2341.4063,167.875 Q2342.1094,167.875 2342.75,168.0313 Q2343.4063,168.1875 2343.9688,168.4844 L2343.9688,171.2031 Q2343.3438,170.625 2342.75,170.3594 Q2342.1563,170.0781 2341.5313,170.0781 Q2340.1875,170.0781 2339.5,171.1563 Q2338.8125,172.2188 2338.8125,174.3125 Q2338.8125,176.4063 2339.5,177.4844 Q2340.1875,178.5469 2341.5313,178.5469 Q2342.1563,178.5469 2342.75,178.2813 Q2343.3438,178 2343.9688,177.4219 L2343.9688,180.1406 Z " fill="#000000"/><text fill="#000000" font-family="sans-serif" font-size="14" lengthAdjust="spacing" textLength="229.1885" x="2355" y="179.3467">logic_arc_int__baselibs__promise</text><line style="stroke:#181818;stroke-width:0.5;" x1="2327" x2="2586.1885" y1="190.5" y2="190.5"/></g><!--class logic_arc_int__baselibs__memory_shared--><g id="elem_logic_arc_int__baselibs__memory_shared"><rect fill="#F1F1F1" height="40" id="logic_arc_int__baselibs__memory_shared" rx="2.5" ry="2.5" style="stroke:#181818;stroke-width:0.5;" width="318.043" x="957.5" y="158.5"/><ellipse cx="972.5" cy="174.5" fill="#ADD1B2" rx="11" ry="11" style="stroke:#181818;stroke-width:1;"/><path d="M975.4688,180.1406 Q974.8906,180.4375 974.25,180.5781 Q973.6094,180.7344 972.9063,180.7344 Q970.4063,180.7344 969.0781,179.0938 Q967.7656,177.4375 967.7656,174.3125 Q967.7656,171.1875 969.0781,169.5313 Q970.4063,167.875 972.9063,167.875 Q973.6094,167.875 974.25,168.0313 Q974.9063,168.1875 975.4688,168.4844 L975.4688,171.2031 Q974.8438,170.625 974.25,170.3594 Q973.6563,170.0781 973.0313,170.0781 Q971.6875,170.0781 971,171.1563 Q970.3125,172.2188 970.3125,174.3125 Q970.3125,176.4063 971,177.4844 Q971.6875,178.5469 973.0313,178.5469 Q973.6563,178.5469 974.25,178.2813 Q974.8438,178 975.4688,177.4219 L975.4688,180.1406 Z " fill="#000000"/><text fill="#000000" font-family="sans-serif" font-size="14" lengthAdjust="spacing" textLength="286.043" x="986.5" y="179.3467">logic_arc_int__baselibs__memory_shared</text><line style="stroke:#181818;stroke-width:0.5;" x1="958.5" x2="1274.543" y1="190.5" y2="190.5"/></g><!--class comp_arc_sta__baselibs__utils--><g id="elem_comp_arc_sta__baselibs__utils"><rect fill="#F1F1F1" height="40" id="comp_arc_sta__baselibs__utils" rx="2.5" ry="2.5" style="stroke:#181818;stroke-width:0.5;" width="242.9502" x="1450" y="275.5"/><ellipse cx="1465" cy="291.5" fill="#ADD1B2" rx="11" ry="11" style="stroke:#181818;stroke-width:1;"/><path d="M1467.9688,297.1406 Q1467.3906,297.4375 1466.75,297.5781 Q1466.1094,297.7344 1465.4063,297.7344 Q1462.9063,297.7344 1461.5781,296.0938 Q1460.2656,294.4375 1460.2656,291.3125 Q1460.2656,288.1875 1461.5781,286.5313 Q1462.9063,284.875 1465.4063,284.875 Q1466.1094,284.875 1466.75,285.0313 Q1467.4063,285.1875 1467.9688,285.4844 L1467.9688,288.2031 Q1467.3438,287.625 1466.75,287.3594 Q1466.1563,287.0781 1465.5313,287.0781 Q1464.1875,287.0781 1463.5,288.1563 Q1462.8125,289.2188 1462.8125,291.3125 Q1462.8125,293.4063 1463.5,294.4844 Q1464.1875,295.5469 1465.5313,295.5469 Q1466.1563,295.5469 1466.75,295.2813 Q1467.3438,295 1467.9688,294.4219 L1467.9688,297.1406 Z " fill="#000000"/><text fill="#000000" font-family="sans-serif" font-size="14" lengthAdjust="spacing" textLength="210.9502" x="1479" y="296.3467">comp_arc_sta__baselibs__utils</text><line style="stroke:#181818;stroke-width:0.5;" x1="1451" x2="1691.9502" y1="307.5" y2="307.5"/></g><!--class logic_arc_int__baselibs__utils_base64--><g id="elem_logic_arc_int__baselibs__utils_base64"><rect fill="#F1F1F1" height="40" id="logic_arc_int__baselibs__utils_base64" rx="2.5" ry="2.5" style="stroke:#181818;stroke-width:0.5;" width="292.1689" x="1310.5" y="158.5"/><ellipse cx="1325.5" cy="174.5" fill="#ADD1B2" rx="11" ry="11" style="stroke:#181818;stroke-width:1;"/><path d="M1328.4688,180.1406 Q1327.8906,180.4375 1327.25,180.5781 Q1326.6094,180.7344 1325.9063,180.7344 Q1323.4063,180.7344 1322.0781,179.0938 Q1320.7656,177.4375 1320.7656,174.3125 Q1320.7656,171.1875 1322.0781,169.5313 Q1323.4063,167.875 1325.9063,167.875 Q1326.6094,167.875 1327.25,168.0313 Q1327.9063,168.1875 1328.4688,168.4844 L1328.4688,171.2031 Q1327.8438,170.625 1327.25,170.3594 Q1326.6563,170.0781 1326.0313,170.0781 Q1324.6875,170.0781 1324,171.1563 Q1323.3125,172.2188 1323.3125,174.3125 Q1323.3125,176.4063 1324,177.4844 Q1324.6875,178.5469 1326.0313,178.5469 Q1326.6563,178.5469 1327.25,178.2813 Q1327.8438,178 1328.4688,177.4219 L1328.4688,180.1406 Z " fill="#000000"/><text fill="#000000" font-family="sans-serif" font-size="14" lengthAdjust="spacing" textLength="260.1689" x="1339.5" y="179.3467">logic_arc_int__baselibs__utils_base64</text><line style="stroke:#181818;stroke-width:0.5;" x1="1311.5" x2="1601.6689" y1="190.5" y2="190.5"/></g><!--class comp_arc_sta__baselibs__message_passing--><g id="elem_comp_arc_sta__baselibs__message_passing"><rect fill="#F1F1F1" height="40" id="comp_arc_sta__baselibs__message_passing" rx="2.5" ry="2.5" style="stroke:#181818;stroke-width:0.5;" width="337.1357" x="5847" y="275.5"/><ellipse cx="5862" cy="291.5" fill="#ADD1B2" rx="11" ry="11" style="stroke:#181818;stroke-width:1;"/><path d="M5864.9688,297.1406 Q5864.3906,297.4375 5863.75,297.5781 Q5863.1094,297.7344 5862.4063,297.7344 Q5859.9063,297.7344 5858.5781,296.0938 Q5857.2656,294.4375 5857.2656,291.3125 Q5857.2656,288.1875 5858.5781,286.5313 Q5859.9063,284.875 5862.4063,284.875 Q5863.1094,284.875 5863.75,285.0313 Q5864.4063,285.1875 5864.9688,285.4844 L5864.9688,288.2031 Q5864.3438,287.625 5863.75,287.3594 Q5863.1563,287.0781 5862.5313,287.0781 Q5861.1875,287.0781 5860.5,288.1563 Q5859.8125,289.2188 5859.8125,291.3125 Q5859.8125,293.4063 5860.5,294.4844 Q5861.1875,295.5469 5862.5313,295.5469 Q5863.1563,295.5469 5863.75,295.2813 Q5864.3438,295 5864.9688,294.4219 L5864.9688,297.1406 Z " fill="#000000"/><text fill="#000000" font-family="sans-serif" font-size="14" lengthAdjust="spacing" textLength="305.1357" x="5876" y="296.3467">comp_arc_sta__baselibs__message_passing</text><line style="stroke:#181818;stroke-width:0.5;" x1="5848" x2="6183.1357" y1="307.5" y2="307.5"/></g><!--class logic_arc_int__baselibs__message_passing--><g id="elem_logic_arc_int__baselibs__message_passing"><rect fill="#F1F1F1" height="40" id="logic_arc_int__baselibs__message_passing" rx="2.5" ry="2.5" style="stroke:#181818;stroke-width:0.5;" width="328.167" x="5851.5" y="158.5"/><ellipse cx="5866.5" cy="174.5" fill="#ADD1B2" rx="11" ry="11" style="stroke:#181818;stroke-width:1;"/><path d="M5869.4688,180.1406 Q5868.8906,180.4375 5868.25,180.5781 Q5867.6094,180.7344 5866.9063,180.7344 Q5864.4063,180.7344 5863.0781,179.0938 Q5861.7656,177.4375 5861.7656,174.3125 Q5861.7656,171.1875 5863.0781,169.5313 Q5864.4063,167.875 5866.9063,167.875 Q5867.6094,167.875 5868.25,168.0313 Q5868.9063,168.1875 5869.4688,168.4844 L5869.4688,171.2031 Q5868.8438,170.625 5868.25,170.3594 Q5867.6563,170.0781 5867.0313,170.0781 Q5865.6875,170.0781 5865,171.1563 Q5864.3125,172.2188 5864.3125,174.3125 Q5864.3125,176.4063 5865,177.4844 Q5865.6875,178.5469 5867.0313,178.5469 Q5867.6563,178.5469 5868.25,178.2813 Q5868.8438,178 5869.4688,177.4219 L5869.4688,180.1406 Z " fill="#000000"/><text fill="#000000" font-family="sans-serif" font-size="14" lengthAdjust="spacing" textLength="296.167" x="5880.5" y="179.3467">logic_arc_int__baselibs__message_passing</text><line style="stroke:#181818;stroke-width:0.5;" x1="5852.5" x2="6178.667" y1="190.5" y2="190.5"/></g><!--class logic_arc_int__baselibs__task_result--><g id="elem_logic_arc_int__baselibs__task_result"><rect fill="#F1F1F1" height="40" id="logic_arc_int__baselibs__task_result" rx="2.5" ry="2.5" style="stroke:#181818;stroke-width:0.5;" width="280.9307" x="3562" y="158.5"/><ellipse cx="3577" cy="174.5" fill="#ADD1B2" rx="11" ry="11" style="stroke:#181818;stroke-width:1;"/><path d="M3579.9688,180.1406 Q3579.3906,180.4375 3578.75,180.5781 Q3578.1094,180.7344 3577.4063,180.7344 Q3574.9063,180.7344 3573.5781,179.0938 Q3572.2656,177.4375 3572.2656,174.3125 Q3572.2656,171.1875 3573.5781,169.5313 Q3574.9063,167.875 3577.4063,167.875 Q3578.1094,167.875 3578.75,168.0313 Q3579.4063,168.1875 3579.9688,168.4844 L3579.9688,171.2031 Q3579.3438,170.625 3578.75,170.3594 Q3578.1563,170.0781 3577.5313,170.0781 Q3576.1875,170.0781 3575.5,171.1563 Q3574.8125,172.2188 3574.8125,174.3125 Q3574.8125,176.4063 3575.5,177.4844 Q3576.1875,178.5469 3577.5313,178.5469 Q3578.1563,178.5469 3578.75,178.2813 Q3579.3438,178 3579.9688,177.4219 L3579.9688,180.1406 Z " fill="#000000"/><text fill="#000000" font-family="sans-serif" font-size="14" lengthAdjust="spacing" textLength="248.9307" x="3591" y="179.3467">logic_arc_int__baselibs__task_result</text><line style="stroke:#181818;stroke-width:0.5;" x1="3563" x2="3841.9307" y1="190.5" y2="190.5"/></g><!--class logic_arc_int__baselibs__bit_manipulation--><g id="elem_logic_arc_int__baselibs__bit_manipulation"><rect fill="#F1F1F1" height="40" id="logic_arc_int__baselibs__bit_manipulation" rx="2.5" ry="2.5" style="stroke:#181818;stroke-width:0.5;" width="321.8369" x="5123.5" y="158.5"/><ellipse cx="5138.5" cy="174.5" fill="#ADD1B2" rx="11" ry="11" style="stroke:#181818;stroke-width:1;"/><path d="M5141.4688,180.1406 Q5140.8906,180.4375 5140.25,180.5781 Q5139.6094,180.7344 5138.9063,180.7344 Q5136.4063,180.7344 5135.0781,179.0938 Q5133.7656,177.4375 5133.7656,174.3125 Q5133.7656,171.1875 5135.0781,169.5313 Q5136.4063,167.875 5138.9063,167.875 Q5139.6094,167.875 5140.25,168.0313 Q5140.9063,168.1875 5141.4688,168.4844 L5141.4688,171.2031 Q5140.8438,170.625 5140.25,170.3594 Q5139.6563,170.0781 5139.0313,170.0781 Q5137.6875,170.0781 5137,171.1563 Q5136.3125,172.2188 5136.3125,174.3125 Q5136.3125,176.4063 5137,177.4844 Q5137.6875,178.5469 5139.0313,178.5469 Q5139.6563,178.5469 5140.25,178.2813 Q5140.8438,178 5141.4688,177.4219 L5141.4688,180.1406 Z " fill="#000000"/><text fill="#000000" font-family="sans-serif" font-size="14" lengthAdjust="spacing" textLength="289.8369" x="5152.5" y="179.3467">logic_arc_int__baselibs__bit_manipulation</text><line style="stroke:#181818;stroke-width:0.5;" x1="5124.5" x2="5444.3369" y1="190.5" y2="190.5"/></g><!--class comp_arc_sta__baselibs__bit_manipulation--><g id="elem_comp_arc_sta__baselibs__bit_manipulation"><rect fill="#F1F1F1" height="40" id="comp_arc_sta__baselibs__bit_manipulation" rx="2.5" ry="2.5" style="stroke:#181818;stroke-width:0.5;" width="330.8057" x="5305" y="275.5"/><ellipse cx="5320" cy="291.5" fill="#ADD1B2" rx="11" ry="11" style="stroke:#181818;stroke-width:1;"/><path d="M5322.9688,297.1406 Q5322.3906,297.4375 5321.75,297.5781 Q5321.1094,297.7344 5320.4063,297.7344 Q5317.9063,297.7344 5316.5781,296.0938 Q5315.2656,294.4375 5315.2656,291.3125 Q5315.2656,288.1875 5316.5781,286.5313 Q5317.9063,284.875 5320.4063,284.875 Q5321.1094,284.875 5321.75,285.0313 Q5322.4063,285.1875 5322.9688,285.4844 L5322.9688,288.2031 Q5322.3438,287.625 5321.75,287.3594 Q5321.1563,287.0781 5320.5313,287.0781 Q5319.1875,287.0781 5318.5,288.1563 Q5317.8125,289.2188 5317.8125,291.3125 Q5317.8125,293.4063 5318.5,294.4844 Q5319.1875,295.5469 5320.5313,295.5469 Q5321.1563,295.5469 5321.75,295.2813 Q5322.3438,295 5322.9688,294.4219 L5322.9688,297.1406 Z " fill="#000000"/><text fill="#000000" font-family="sans-serif" font-size="14" lengthAdjust="spacing" textLength="298.8057" x="5334" y="296.3467">comp_arc_sta__baselibs__bit_manipulation</text><line style="stroke:#181818;stroke-width:0.5;" x1="5306" x2="5634.8057" y1="307.5" y2="307.5"/></g><!--class logic_arc_int__baselibs__future--><g id="elem_logic_arc_int__baselibs__future"><rect fill="#F1F1F1" height="40" id="logic_arc_int__baselibs__future" rx="2.5" ry="2.5" style="stroke:#181818;stroke-width:0.5;" width="247.0791" x="3878" y="158.5"/><ellipse cx="3893" cy="174.5" fill="#ADD1B2" rx="11" ry="11" style="stroke:#181818;stroke-width:1;"/><path d="M3895.9688,180.1406 Q3895.3906,180.4375 3894.75,180.5781 Q3894.1094,180.7344 3893.4063,180.7344 Q3890.9063,180.7344 3889.5781,179.0938 Q3888.2656,177.4375 3888.2656,174.3125 Q3888.2656,171.1875 3889.5781,169.5313 Q3890.9063,167.875 3893.4063,167.875 Q3894.1094,167.875 3894.75,168.0313 Q3895.4063,168.1875 3895.9688,168.4844 L3895.9688,171.2031 Q3895.3438,170.625 3894.75,170.3594 Q3894.1563,170.0781 3893.5313,170.0781 Q3892.1875,170.0781 3891.5,171.1563 Q3890.8125,172.2188 3890.8125,174.3125 Q3890.8125,176.4063 3891.5,177.4844 Q3892.1875,178.5469 3893.5313,178.5469 Q3894.1563,178.5469 3894.75,178.2813 Q3895.3438,178 3895.9688,177.4219 L3895.9688,180.1406 Z " fill="#000000"/><text fill="#000000" font-family="sans-serif" font-size="14" lengthAdjust="spacing" textLength="215.0791" x="3907" y="179.3467">logic_arc_int__baselibs__future</text><line style="stroke:#181818;stroke-width:0.5;" x1="3879" x2="4124.0791" y1="190.5" y2="190.5"/></g><!--class logic_arc_int__baselibs__bit_mask_operator--><g id="elem_logic_arc_int__baselibs__bit_mask_operator"><rect fill="#F1F1F1" height="40" id="logic_arc_int__baselibs__bit_mask_operator" rx="2.5" ry="2.5" style="stroke:#181818;stroke-width:0.5;" width="334.6406" x="5481" y="158.5"/><ellipse cx="5496" cy="174.5" fill="#ADD1B2" rx="11" ry="11" style="stroke:#181818;stroke-width:1;"/><path d="M5498.9688,180.1406 Q5498.3906,180.4375 5497.75,180.5781 Q5497.1094,180.7344 5496.4063,180.7344 Q5493.9063,180.7344 5492.5781,179.0938 Q5491.2656,177.4375 5491.2656,174.3125 Q5491.2656,171.1875 5492.5781,169.5313 Q5493.9063,167.875 5496.4063,167.875 Q5497.1094,167.875 5497.75,168.0313 Q5498.4063,168.1875 5498.9688,168.4844 L5498.9688,171.2031 Q5498.3438,170.625 5497.75,170.3594 Q5497.1563,170.0781 5496.5313,170.0781 Q5495.1875,170.0781 5494.5,171.1563 Q5493.8125,172.2188 5493.8125,174.3125 Q5493.8125,176.4063 5494.5,177.4844 Q5495.1875,178.5469 5496.5313,178.5469 Q5497.1563,178.5469 5497.75,178.2813 Q5498.3438,178 5498.9688,177.4219 L5498.9688,180.1406 Z " fill="#000000"/><text fill="#000000" font-family="sans-serif" font-size="14" lengthAdjust="spacing" textLength="302.6406" x="5510" y="179.3467">logic_arc_int__baselibs__bit_mask_operator</text><line style="stroke:#181818;stroke-width:0.5;" x1="5482" x2="5814.6406" y1="190.5" y2="190.5"/></g><!--class logic_arc_int__baselibs__condition_variable--><g id="elem_logic_arc_int__baselibs__condition_variable"><rect fill="#F1F1F1" height="40" id="logic_arc_int__baselibs__condition_variable" rx="2.5" ry="2.5" style="stroke:#181818;stroke-width:0.5;" width="332.7539" x="2892" y="158.5"/><ellipse cx="2907" cy="174.5" fill="#ADD1B2" rx="11" ry="11" style="stroke:#181818;stroke-width:1;"/><path d="M2909.9688,180.1406 Q2909.3906,180.4375 2908.75,180.5781 Q2908.1094,180.7344 2907.4063,180.7344 Q2904.9063,180.7344 2903.5781,179.0938 Q2902.2656,177.4375 2902.2656,174.3125 Q2902.2656,171.1875 2903.5781,169.5313 Q2904.9063,167.875 2907.4063,167.875 Q2908.1094,167.875 2908.75,168.0313 Q2909.4063,168.1875 2909.9688,168.4844 L2909.9688,171.2031 Q2909.3438,170.625 2908.75,170.3594 Q2908.1563,170.0781 2907.5313,170.0781 Q2906.1875,170.0781 2905.5,171.1563 Q2904.8125,172.2188 2904.8125,174.3125 Q2904.8125,176.4063 2905.5,177.4844 Q2906.1875,178.5469 2907.5313,178.5469 Q2908.1563,178.5469 2908.75,178.2813 Q2909.3438,178 2909.9688,177.4219 L2909.9688,180.1406 Z " fill="#000000"/><text fill="#000000" font-family="sans-serif" font-size="14" lengthAdjust="spacing" textLength="300.7539" x="2921" y="179.3467">logic_arc_int__baselibs__condition_variable</text><line style="stroke:#181818;stroke-width:0.5;" x1="2893" x2="3223.7539" y1="190.5" y2="190.5"/></g><!--class comp_arc_sta__baselibs__json--><g id="elem_comp_arc_sta__baselibs__json"><rect fill="#F1F1F1" height="40" id="comp_arc_sta__baselibs__json" rx="2.5" ry="2.5" style="stroke:#181818;stroke-width:0.5;" width="242.1367" x="4854.5" y="275.5"/><ellipse cx="4869.5" cy="291.5" fill="#ADD1B2" rx="11" ry="11" style="stroke:#181818;stroke-width:1;"/><path d="M4872.4688,297.1406 Q4871.8906,297.4375 4871.25,297.5781 Q4870.6094,297.7344 4869.9063,297.7344 Q4867.4063,297.7344 4866.0781,296.0938 Q4864.7656,294.4375 4864.7656,291.3125 Q4864.7656,288.1875 4866.0781,286.5313 Q4867.4063,284.875 4869.9063,284.875 Q4870.6094,284.875 4871.25,285.0313 Q4871.9063,285.1875 4872.4688,285.4844 L4872.4688,288.2031 Q4871.8438,287.625 4871.25,287.3594 Q4870.6563,287.0781 4870.0313,287.0781 Q4868.6875,287.0781 4868,288.1563 Q4867.3125,289.2188 4867.3125,291.3125 Q4867.3125,293.4063 4868,294.4844 Q4868.6875,295.5469 4870.0313,295.5469 Q4870.6563,295.5469 4871.25,295.2813 Q4871.8438,295 4872.4688,294.4219 L4872.4688,297.1406 Z " fill="#000000"/><text fill="#000000" font-family="sans-serif" font-size="14" lengthAdjust="spacing" textLength="210.1367" x="4883.5" y="296.3467">comp_arc_sta__baselibs__json</text><line style="stroke:#181818;stroke-width:0.5;" x1="4855.5" x2="5095.6367" y1="307.5" y2="307.5"/></g><!--class logic_arc_int__baselibs__json--><g id="elem_logic_arc_int__baselibs__json"><rect fill="#F1F1F1" height="40" id="logic_arc_int__baselibs__json" rx="2.5" ry="2.5" style="stroke:#181818;stroke-width:0.5;" width="233.168" x="4855" y="158.5"/><ellipse cx="4870" cy="174.5" fill="#ADD1B2" rx="11" ry="11" style="stroke:#181818;stroke-width:1;"/><path d="M4872.9688,180.1406 Q4872.3906,180.4375 4871.75,180.5781 Q4871.1094,180.7344 4870.4063,180.7344 Q4867.9063,180.7344 4866.5781,179.0938 Q4865.2656,177.4375 4865.2656,174.3125 Q4865.2656,171.1875 4866.5781,169.5313 Q4867.9063,167.875 4870.4063,167.875 Q4871.1094,167.875 4871.75,168.0313 Q4872.4063,168.1875 4872.9688,168.4844 L4872.9688,171.2031 Q4872.3438,170.625 4871.75,170.3594 Q4871.1563,170.0781 4870.5313,170.0781 Q4869.1875,170.0781 4868.5,171.1563 Q4867.8125,172.2188 4867.8125,174.3125 Q4867.8125,176.4063 4868.5,177.4844 Q4869.1875,178.5469 4870.5313,178.5469 Q4871.1563,178.5469 4871.75,178.2813 Q4872.3438,178 4872.9688,177.4219 L4872.9688,180.1406 Z " fill="#000000"/><text fill="#000000" font-family="sans-serif" font-size="14" lengthAdjust="spacing" textLength="201.168" x="4884" y="179.3467">logic_arc_int__baselibs__json</text><line style="stroke:#181818;stroke-width:0.5;" x1="4856" x2="5087.168" y1="190.5" y2="190.5"/></g><!--class logic_arc_int__baselibs__shared_future--><g id="elem_logic_arc_int__baselibs__shared_future"><rect fill="#F1F1F1" height="40" id="logic_arc_int__baselibs__shared_future" rx="2.5" ry="2.5" style="stroke:#181818;stroke-width:0.5;" width="302.0811" x="1988.5" y="158.5"/><ellipse cx="2003.5" cy="174.5" fill="#ADD1B2" rx="11" ry="11" style="stroke:#181818;stroke-width:1;"/><path d="M2006.4688,180.1406 Q2005.8906,180.4375 2005.25,180.5781 Q2004.6094,180.7344 2003.9063,180.7344 Q2001.4063,180.7344 2000.0781,179.0938 Q1998.7656,177.4375 1998.7656,174.3125 Q1998.7656,171.1875 2000.0781,169.5313 Q2001.4063,167.875 2003.9063,167.875 Q2004.6094,167.875 2005.25,168.0313 Q2005.9063,168.1875 2006.4688,168.4844 L2006.4688,171.2031 Q2005.8438,170.625 2005.25,170.3594 Q2004.6563,170.0781 2004.0313,170.0781 Q2002.6875,170.0781 2002,171.1563 Q2001.3125,172.2188 2001.3125,174.3125 Q2001.3125,176.4063 2002,177.4844 Q2002.6875,178.5469 2004.0313,178.5469 Q2004.6563,178.5469 2005.25,178.2813 Q2005.8438,178 2006.4688,177.4219 L2006.4688,180.1406 Z " fill="#000000"/><text fill="#000000" font-family="sans-serif" font-size="14" lengthAdjust="spacing" textLength="270.0811" x="2017.5" y="179.3467">logic_arc_int__baselibs__shared_future</text><line style="stroke:#181818;stroke-width:0.5;" x1="1989.5" x2="2289.5811" y1="190.5" y2="190.5"/></g><!--class logic_arc_int__baselibs__utils_scoped_op--><g id="elem_logic_arc_int__baselibs__utils_scoped_op"><rect fill="#F1F1F1" height="40" id="logic_arc_int__baselibs__utils_scoped_op" rx="2.5" ry="2.5" style="stroke:#181818;stroke-width:0.5;" width="315.377" x="1638" y="158.5"/><ellipse cx="1653" cy="174.5" fill="#ADD1B2" rx="11" ry="11" style="stroke:#181818;stroke-width:1;"/><path d="M1655.9688,180.1406 Q1655.3906,180.4375 1654.75,180.5781 Q1654.1094,180.7344 1653.4063,180.7344 Q1650.9063,180.7344 1649.5781,179.0938 Q1648.2656,177.4375 1648.2656,174.3125 Q1648.2656,171.1875 1649.5781,169.5313 Q1650.9063,167.875 1653.4063,167.875 Q1654.1094,167.875 1654.75,168.0313 Q1655.4063,168.1875 1655.9688,168.4844 L1655.9688,171.2031 Q1655.3438,170.625 1654.75,170.3594 Q1654.1563,170.0781 1653.5313,170.0781 Q1652.1875,170.0781 1651.5,171.1563 Q1650.8125,172.2188 1650.8125,174.3125 Q1650.8125,176.4063 1651.5,177.4844 Q1652.1875,178.5469 1653.5313,178.5469 Q1654.1563,178.5469 1654.75,178.2813 Q1655.3438,178 1655.9688,177.4219 L1655.9688,180.1406 Z " fill="#000000"/><text fill="#000000" font-family="sans-serif" font-size="14" lengthAdjust="spacing" textLength="283.377" x="1667" y="179.3467">logic_arc_int__baselibs__utils_scoped_op</text><line style="stroke:#181818;stroke-width:0.5;" x1="1639" x2="1952.377" y1="190.5" y2="190.5"/></g><!--class logic_arc_int__baselibs__task--><g id="elem_logic_arc_int__baselibs__task"><rect fill="#F1F1F1" height="40" id="logic_arc_int__baselibs__task" rx="2.5" ry="2.5" style="stroke:#181818;stroke-width:0.5;" width="234.0156" x="2622.5" y="158.5"/><ellipse cx="2637.5" cy="174.5" fill="#ADD1B2" rx="11" ry="11" style="stroke:#181818;stroke-width:1;"/><path d="M2640.4688,180.1406 Q2639.8906,180.4375 2639.25,180.5781 Q2638.6094,180.7344 2637.9063,180.7344 Q2635.4063,180.7344 2634.0781,179.0938 Q2632.7656,177.4375 2632.7656,174.3125 Q2632.7656,171.1875 2634.0781,169.5313 Q2635.4063,167.875 2637.9063,167.875 Q2638.6094,167.875 2639.25,168.0313 Q2639.9063,168.1875 2640.4688,168.4844 L2640.4688,171.2031 Q2639.8438,170.625 2639.25,170.3594 Q2638.6563,170.0781 2638.0313,170.0781 Q2636.6875,170.0781 2636,171.1563 Q2635.3125,172.2188 2635.3125,174.3125 Q2635.3125,176.4063 2636,177.4844 Q2636.6875,178.5469 2638.0313,178.5469 Q2638.6563,178.5469 2639.25,178.2813 Q2639.8438,178 2640.4688,177.4219 L2640.4688,180.1406 Z " fill="#000000"/><text fill="#000000" font-family="sans-serif" font-size="14" lengthAdjust="spacing" textLength="202.0156" x="2651.5" y="179.3467">logic_arc_int__baselibs__task</text><line style="stroke:#181818;stroke-width:0.5;" x1="2623.5" x2="2855.5156" y1="190.5" y2="190.5"/></g><!--class logic_arc_int__baselibs__synchronized_queue--><g id="elem_logic_arc_int__baselibs__synchronized_queue"><rect fill="#F1F1F1" height="40" id="logic_arc_int__baselibs__synchronized_queue" rx="2.5" ry="2.5" style="stroke:#181818;stroke-width:0.5;" width="348.3604" x="4160.5" y="158.5"/><ellipse cx="4175.5" cy="174.5" fill="#ADD1B2" rx="11" ry="11" style="stroke:#181818;stroke-width:1;"/><path d="M4178.4688,180.1406 Q4177.8906,180.4375 4177.25,180.5781 Q4176.6094,180.7344 4175.9063,180.7344 Q4173.4063,180.7344 4172.0781,179.0938 Q4170.7656,177.4375 4170.7656,174.3125 Q4170.7656,171.1875 4172.0781,169.5313 Q4173.4063,167.875 4175.9063,167.875 Q4176.6094,167.875 4177.25,168.0313 Q4177.9063,168.1875 4178.4688,168.4844 L4178.4688,171.2031 Q4177.8438,170.625 4177.25,170.3594 Q4176.6563,170.0781 4176.0313,170.0781 Q4174.6875,170.0781 4174,171.1563 Q4173.3125,172.2188 4173.3125,174.3125 Q4173.3125,176.4063 4174,177.4844 Q4174.6875,178.5469 4176.0313,178.5469 Q4176.6563,178.5469 4177.25,178.2813 Q4177.8438,178 4178.4688,177.4219 L4178.4688,180.1406 Z " fill="#000000"/><text fill="#000000" font-family="sans-serif" font-size="14" lengthAdjust="spacing" textLength="316.3604" x="4189.5" y="179.3467">logic_arc_int__baselibs__synchronized_queue</text><line style="stroke:#181818;stroke-width:0.5;" x1="4161.5" x2="4507.8604" y1="190.5" y2="190.5"/></g><!--class comp_arc_sta__baselibs__filesystem--><g id="elem_comp_arc_sta__baselibs__filesystem"><rect fill="#F1F1F1" height="40" id="comp_arc_sta__baselibs__filesystem" rx="2.5" ry="2.5" style="stroke:#181818;stroke-width:0.5;" width="285.4492" x="4534" y="275.5"/><ellipse cx="4549" cy="291.5" fill="#ADD1B2" rx="11" ry="11" style="stroke:#181818;stroke-width:1;"/><path d="M4551.9688,297.1406 Q4551.3906,297.4375 4550.75,297.5781 Q4550.1094,297.7344 4549.4063,297.7344 Q4546.9063,297.7344 4545.5781,296.0938 Q4544.2656,294.4375 4544.2656,291.3125 Q4544.2656,288.1875 4545.5781,286.5313 Q4546.9063,284.875 4549.4063,284.875 Q4550.1094,284.875 4550.75,285.0313 Q4551.4063,285.1875 4551.9688,285.4844 L4551.9688,288.2031 Q4551.3438,287.625 4550.75,287.3594 Q4550.1563,287.0781 4549.5313,287.0781 Q4548.1875,287.0781 4547.5,288.1563 Q4546.8125,289.2188 4546.8125,291.3125 Q4546.8125,293.4063 4547.5,294.4844 Q4548.1875,295.5469 4549.5313,295.5469 Q4550.1563,295.5469 4550.75,295.2813 Q4551.3438,295 4551.9688,294.4219 L4551.9688,297.1406 Z " fill="#000000"/><text fill="#000000" font-family="sans-serif" font-size="14" lengthAdjust="spacing" textLength="253.4492" x="4563" y="296.3467">comp_arc_sta__baselibs__filesystem</text><line style="stroke:#181818;stroke-width:0.5;" x1="4535" x2="4818.4492" y1="307.5" y2="307.5"/></g><!--class comp_arc_sta__baselibs__containers--><g id="elem_comp_arc_sta__baselibs__containers"><rect fill="#F1F1F1" height="40" id="comp_arc_sta__baselibs__containers" rx="2.5" ry="2.5" style="stroke:#181818;stroke-width:0.5;" width="287.1445" x="235" y="275.5"/><ellipse cx="250" cy="291.5" fill="#ADD1B2" rx="11" ry="11" style="stroke:#181818;stroke-width:1;"/><path d="M252.9688,297.1406 Q252.3906,297.4375 251.75,297.5781 Q251.1094,297.7344 250.4063,297.7344 Q247.9063,297.7344 246.5781,296.0938 Q245.2656,294.4375 245.2656,291.3125 Q245.2656,288.1875 246.5781,286.5313 Q247.9063,284.875 250.4063,284.875 Q251.1094,284.875 251.75,285.0313 Q252.4063,285.1875 252.9688,285.4844 L252.9688,288.2031 Q252.3438,287.625 251.75,287.3594 Q251.1563,287.0781 250.5313,287.0781 Q249.1875,287.0781 248.5,288.1563 Q247.8125,289.2188 247.8125,291.3125 Q247.8125,293.4063 248.5,294.4844 Q249.1875,295.5469 250.5313,295.5469 Q251.1563,295.5469 251.75,295.2813 Q252.3438,295 252.9688,294.4219 L252.9688,297.1406 Z " fill="#000000"/><text fill="#000000" font-family="sans-serif" font-size="14" lengthAdjust="spacing" textLength="255.1445" x="264" y="296.3467">comp_arc_sta__baselibs__containers</text><line style="stroke:#181818;stroke-width:0.5;" x1="236" x2="521.1445" y1="307.5" y2="307.5"/></g><!--class logic_arc_int__baselibs__dynamic_array--><g id="elem_logic_arc_int__baselibs__dynamic_array"><rect fill="#F1F1F1" height="40" id="logic_arc_int__baselibs__dynamic_array" rx="2.5" ry="2.5" style="stroke:#181818;stroke-width:0.5;" width="308.3496" x="335.5" y="158.5"/><ellipse cx="350.5" cy="174.5" fill="#ADD1B2" rx="11" ry="11" style="stroke:#181818;stroke-width:1;"/><path d="M353.4688,180.1406 Q352.8906,180.4375 352.25,180.5781 Q351.6094,180.7344 350.9063,180.7344 Q348.4063,180.7344 347.0781,179.0938 Q345.7656,177.4375 345.7656,174.3125 Q345.7656,171.1875 347.0781,169.5313 Q348.4063,167.875 350.9063,167.875 Q351.6094,167.875 352.25,168.0313 Q352.9063,168.1875 353.4688,168.4844 L353.4688,171.2031 Q352.8438,170.625 352.25,170.3594 Q351.6563,170.0781 351.0313,170.0781 Q349.6875,170.0781 349,171.1563 Q348.3125,172.2188 348.3125,174.3125 Q348.3125,176.4063 349,177.4844 Q349.6875,178.5469 351.0313,178.5469 Q351.6563,178.5469 352.25,178.2813 Q352.8438,178 353.4688,177.4219 L353.4688,180.1406 Z " fill="#000000"/><text fill="#000000" font-family="sans-serif" font-size="14" lengthAdjust="spacing" textLength="276.3496" x="364.5" y="179.3467">logic_arc_int__baselibs__dynamic_array</text><line style="stroke:#181818;stroke-width:0.5;" x1="336.5" x2="642.8496" y1="190.5" y2="190.5"/></g><!--class logic_arc_int__baselibs__intrusive_list--><g id="elem_logic_arc_int__baselibs__intrusive_list"><rect fill="#F1F1F1" height="40" id="logic_arc_int__baselibs__intrusive_list" rx="2.5" ry="2.5" style="stroke:#181818;stroke-width:0.5;" width="293.0713" x="7" y="158.5"/><ellipse cx="22" cy="174.5" fill="#ADD1B2" rx="11" ry="11" style="stroke:#181818;stroke-width:1;"/><path d="M24.9688,180.1406 Q24.3906,180.4375 23.75,180.5781 Q23.1094,180.7344 22.4063,180.7344 Q19.9063,180.7344 18.5781,179.0938 Q17.2656,177.4375 17.2656,174.3125 Q17.2656,171.1875 18.5781,169.5313 Q19.9063,167.875 22.4063,167.875 Q23.1094,167.875 23.75,168.0313 Q24.4063,168.1875 24.9688,168.4844 L24.9688,171.2031 Q24.3438,170.625 23.75,170.3594 Q23.1563,170.0781 22.5313,170.0781 Q21.1875,170.0781 20.5,171.1563 Q19.8125,172.2188 19.8125,174.3125 Q19.8125,176.4063 20.5,177.4844 Q21.1875,178.5469 22.5313,178.5469 Q23.1563,178.5469 23.75,178.2813 Q24.3438,178 24.9688,177.4219 L24.9688,180.1406 Z " fill="#000000"/><text fill="#000000" font-family="sans-serif" font-size="14" lengthAdjust="spacing" textLength="261.0713" x="36" y="179.3467">logic_arc_int__baselibs__intrusive_list</text><line style="stroke:#181818;stroke-width:0.5;" x1="8" x2="299.0713" y1="190.5" y2="190.5"/></g><!--class comp_arc_sta__baselibs__memory_shared--><g id="elem_comp_arc_sta__baselibs__memory_shared"><rect fill="#F1F1F1" height="40" id="comp_arc_sta__baselibs__memory_shared" rx="2.5" ry="2.5" style="stroke:#181818;stroke-width:0.5;" width="327.0117" x="957" y="275.5"/><ellipse cx="972" cy="291.5" fill="#ADD1B2" rx="11" ry="11" style="stroke:#181818;stroke-width:1;"/><path d="M974.9688,297.1406 Q974.3906,297.4375 973.75,297.5781 Q973.1094,297.7344 972.4063,297.7344 Q969.9063,297.7344 968.5781,296.0938 Q967.2656,294.4375 967.2656,291.3125 Q967.2656,288.1875 968.5781,286.5313 Q969.9063,284.875 972.4063,284.875 Q973.1094,284.875 973.75,285.0313 Q974.4063,285.1875 974.9688,285.4844 L974.9688,288.2031 Q974.3438,287.625 973.75,287.3594 Q973.1563,287.0781 972.5313,287.0781 Q971.1875,287.0781 970.5,288.1563 Q969.8125,289.2188 969.8125,291.3125 Q969.8125,293.4063 970.5,294.4844 Q971.1875,295.5469 972.5313,295.5469 Q973.1563,295.5469 973.75,295.2813 Q974.3438,295 974.9688,294.4219 L974.9688,297.1406 Z " fill="#000000"/><text fill="#000000" font-family="sans-serif" font-size="14" lengthAdjust="spacing" textLength="295.0117" x="986" y="296.3467">comp_arc_sta__baselibs__memory_shared</text><line style="stroke:#181818;stroke-width:0.5;" x1="958" x2="1283.0117" y1="307.5" y2="307.5"/></g><!--class comp_arc_sta__baselibs__result--><g id="elem_comp_arc_sta__baselibs__result"><rect fill="#F1F1F1" height="40" id="comp_arc_sta__baselibs__result" rx="2.5" ry="2.5" style="stroke:#181818;stroke-width:0.5;" width="253.4297" x="669" y="275.5"/><ellipse cx="684" cy="291.5" fill="#ADD1B2" rx="11" ry="11" style="stroke:#181818;stroke-width:1;"/><path d="M686.9688,297.1406 Q686.3906,297.4375 685.75,297.5781 Q685.1094,297.7344 684.4063,297.7344 Q681.9063,297.7344 680.5781,296.0938 Q679.2656,294.4375 679.2656,291.3125 Q679.2656,288.1875 680.5781,286.5313 Q681.9063,284.875 684.4063,284.875 Q685.1094,284.875 685.75,285.0313 Q686.4063,285.1875 686.9688,285.4844 L686.9688,288.2031 Q686.3438,287.625 685.75,287.3594 Q685.1563,287.0781 684.5313,287.0781 Q683.1875,287.0781 682.5,288.1563 Q681.8125,289.2188 681.8125,291.3125 Q681.8125,293.4063 682.5,294.4844 Q683.1875,295.5469 684.5313,295.5469 Q685.1563,295.5469 685.75,295.2813 Q686.3438,295 686.9688,294.4219 L686.9688,297.1406 Z " fill="#000000"/><text fill="#000000" font-family="sans-serif" font-size="14" lengthAdjust="spacing" textLength="221.4297" x="698" y="296.3467">comp_arc_sta__baselibs__result</text><line style="stroke:#181818;stroke-width:0.5;" x1="670" x2="921.4297" y1="307.5" y2="307.5"/></g><!--class logic_arc_int__baselibs__result--><g id="elem_logic_arc_int__baselibs__result"><rect fill="#F1F1F1" height="40" id="logic_arc_int__baselibs__result" rx="2.5" ry="2.5" style="stroke:#181818;stroke-width:0.5;" width="244.4609" x="678.5" y="158.5"/><ellipse cx="693.5" cy="174.5" fill="#ADD1B2" rx="11" ry="11" style="stroke:#181818;stroke-width:1;"/><path d="M696.4688,180.1406 Q695.8906,180.4375 695.25,180.5781 Q694.6094,180.7344 693.9063,180.7344 Q691.4063,180.7344 690.0781,179.0938 Q688.7656,177.4375 688.7656,174.3125 Q688.7656,171.1875 690.0781,169.5313 Q691.4063,167.875 693.9063,167.875 Q694.6094,167.875 695.25,168.0313 Q695.9063,168.1875 696.4688,168.4844 L696.4688,171.2031 Q695.8438,170.625 695.25,170.3594 Q694.6563,170.0781 694.0313,170.0781 Q692.6875,170.0781 692,171.1563 Q691.3125,172.2188 691.3125,174.3125 Q691.3125,176.4063 692,177.4844 Q692.6875,178.5469 694.0313,178.5469 Q694.6563,178.5469 695.25,178.2813 Q695.8438,178 696.4688,177.4219 L696.4688,180.1406 Z " fill="#000000"/><text fill="#000000" font-family="sans-serif" font-size="14" lengthAdjust="spacing" textLength="212.4609" x="707.5" y="179.3467">logic_arc_int__baselibs__result</text><line style="stroke:#181818;stroke-width:0.5;" x1="679.5" x2="921.9609" y1="190.5" y2="190.5"/></g><!--class logic_arc_int__baselibs__executor--><g id="elem_logic_arc_int__baselibs__executor"><rect fill="#F1F1F1" height="40" id="logic_arc_int__baselibs__executor" rx="2.5" ry="2.5" style="stroke:#181818;stroke-width:0.5;" width="266.4385" x="3260.5" y="158.5"/><ellipse cx="3275.5" cy="174.5" fill="#ADD1B2" rx="11" ry="11" style="stroke:#181818;stroke-width:1;"/><path d="M3278.4688,180.1406 Q3277.8906,180.4375 3277.25,180.5781 Q3276.6094,180.7344 3275.9063,180.7344 Q3273.4063,180.7344 3272.0781,179.0938 Q3270.7656,177.4375 3270.7656,174.3125 Q3270.7656,171.1875 3272.0781,169.5313 Q3273.4063,167.875 3275.9063,167.875 Q3276.6094,167.875 3277.25,168.0313 Q3277.9063,168.1875 3278.4688,168.4844 L3278.4688,171.2031 Q3277.8438,170.625 3277.25,170.3594 Q3276.6563,170.0781 3276.0313,170.0781 Q3274.6875,170.0781 3274,171.1563 Q3273.3125,172.2188 3273.3125,174.3125 Q3273.3125,176.4063 3274,177.4844 Q3274.6875,178.5469 3276.0313,178.5469 Q3276.6563,178.5469 3277.25,178.2813 Q3277.8438,178 3278.4688,177.4219 L3278.4688,180.1406 Z " fill="#000000"/><text fill="#000000" font-family="sans-serif" font-size="14" lengthAdjust="spacing" textLength="234.4385" x="3289.5" y="179.3467">logic_arc_int__baselibs__executor</text><line style="stroke:#181818;stroke-width:0.5;" x1="3261.5" x2="3525.9385" y1="190.5" y2="190.5"/></g><!--link Feature_User to logic_arc_int__baselibs__filesystem--><g id="link_Feature_User_logic_arc_int__baselibs__filesystem"><path codeLine="14" d="M3103.58,47.28 C3283.25,58.53 3965.64,102.68 4525.5,158.5 C4531.34,159.08 4531.3236,159.0657 4537.3436,159.7057 " fill="transparent" id="Feature_User-to-logic_arc_int__baselibs__filesystem" style="stroke:#181818;stroke-width:1;"/><polygon fill="#181818" points="4543.31,160.34,4534.7833,155.411,4538.338,159.8114,4533.9376,163.3661,4543.31,160.34" style="stroke:#181818;stroke-width:1;"/><text fill="#000000" font-family="sans-serif" font-size="13" lengthAdjust="spacing" textLength="23.0103" x="4165.5" y="124.5669">use</text></g><!--reverse link logic_arc_int__baselibs__promise to comp_arc_sta__baselibs__concurrency--><g id="link_logic_arc_int__baselibs__promise_comp_arc_sta__baselibs__concurrency"><path codeLine="15" d="M2570.6115,199.5369 C2648.3815,213.0469 2749.87,230.38 2844.5,245.5 C2909.17,255.83 2981.13,266.65 3041.13,275.49 " fill="transparent" id="logic_arc_int__baselibs__promise-backto-comp_arc_sta__baselibs__concurrency" style="stroke:#181818;stroke-width:1;"/><polygon fill="#181818" points="2564.7,198.51,2572.8826,203.9914,2569.6262,199.3658,2574.2518,196.1094,2564.7,198.51" style="stroke:#181818;stroke-width:1;"/><text fill="#000000" font-family="sans-serif" font-size="13" lengthAdjust="spacing" textLength="76.9082" x="2845.5" y="241.5669">implements</text></g><!--link Feature_User to logic_arc_int__baselibs__memory_shared--><g id="link_Feature_User_logic_arc_int__baselibs__memory_shared"><path codeLine="16" d="M3013.41,46.57 C2812.21,55.96 1976.4,96.88 1292.5,158.5 C1286.99,159 1287.3629,158.9501 1281.7029,159.4901 " fill="transparent" id="Feature_User-to-logic_arc_int__baselibs__memory_shared" style="stroke:#181818;stroke-width:1;"/><polygon fill="#181818" points="1275.73,160.06,1285.0692,163.1871,1280.7074,159.5851,1284.3094,155.2233,1275.73,160.06" style="stroke:#181818;stroke-width:1;"/><text fill="#000000" font-family="sans-serif" font-size="13" lengthAdjust="spacing" textLength="23.0103" x="1876.5" y="124.5669">use</text></g><!--reverse link logic_arc_int__baselibs__utils_base64 to comp_arc_sta__baselibs__utils--><g id="link_logic_arc_int__baselibs__utils_base64_comp_arc_sta__baselibs__utils"><path codeLine="17" d="M1479.9926,202.9926 C1501.2226,224.2226 1530.94,253.94 1552.19,275.19 " fill="transparent" id="logic_arc_int__baselibs__utils_base64-backto-comp_arc_sta__baselibs__utils" style="stroke:#181818;stroke-width:1;"/><polygon fill="#181818" points="1475.75,198.75,1479.2855,207.9424,1479.2855,202.2855,1484.9424,202.2855,1475.75,198.75" style="stroke:#181818;stroke-width:1;"/><text fill="#000000" font-family="sans-serif" font-size="13" lengthAdjust="spacing" textLength="76.9082" x="1522.5" y="241.5669">implements</text></g><!--reverse link logic_arc_int__baselibs__message_passing to comp_arc_sta__baselibs__message_passing--><g id="link_logic_arc_int__baselibs__message_passing_comp_arc_sta__baselibs__message_passing"><path codeLine="19" d="M6015.5,204.75 C6015.5,225.98 6015.5,253.94 6015.5,275.19 " fill="transparent" id="logic_arc_int__baselibs__message_passing-backto-comp_arc_sta__baselibs__message_passing" style="stroke:#181818;stroke-width:1;"/><polygon fill="#181818" points="6015.5,198.75,6011.5,207.75,6015.5,203.75,6019.5,207.75,6015.5,198.75" style="stroke:#181818;stroke-width:1;"/><text fill="#000000" font-family="sans-serif" font-size="13" lengthAdjust="spacing" textLength="76.9082" x="6016.5" y="241.5669">implements</text></g><!--link Feature_User to logic_arc_int__baselibs__task_result--><g id="link_Feature_User_logic_arc_int__baselibs__task_result"><path codeLine="20" d="M3103.53,53.8 C3208.27,75.43 3464.094,128.2665 3604.374,157.2365 " fill="transparent" id="Feature_User-to-logic_arc_int__baselibs__task_result" style="stroke:#181818;stroke-width:1;"/><polygon fill="#181818" points="3610.25,158.45,3602.245,152.7124,3605.3533,157.4388,3600.627,160.5471,3610.25,158.45" style="stroke:#181818;stroke-width:1;"/><text fill="#000000" font-family="sans-serif" font-size="13" lengthAdjust="spacing" textLength="23.0103" x="3458.5" y="124.5669">use</text></g><!--link Feature_User to logic_arc_int__baselibs__bit_manipulation--><g id="link_Feature_User_logic_arc_int__baselibs__bit_manipulation"><path codeLine="21" d="M3103.7,45.96 C3283.87,51.92 3968.19,75.73 4530.5,111.5 C4786.39,127.78 4850.22,134.52 5105.5,158.5 C5111.26,159.04 5111.1487,159.014 5117.0587,159.594 " fill="transparent" id="Feature_User-to-logic_arc_int__baselibs__bit_manipulation" style="stroke:#181818;stroke-width:1;"/><polygon fill="#181818" points="5123.03,160.18,5114.4637,155.3201,5118.0539,159.6917,5113.6824,163.2818,5123.03,160.18" style="stroke:#181818;stroke-width:1;"/><text fill="#000000" font-family="sans-serif" font-size="13" lengthAdjust="spacing" textLength="23.0103" x="4771.5" y="124.5669">use</text></g><!--reverse link logic_arc_int__baselibs__bit_manipulation to comp_arc_sta__baselibs__bit_manipulation--><g id="link_logic_arc_int__baselibs__bit_manipulation_comp_arc_sta__baselibs__bit_manipulation"><path codeLine="22" d="M5320.7336,201.9049 C5355.1736,223.1949 5405.22,254.14 5439.58,275.38 " fill="transparent" id="logic_arc_int__baselibs__bit_manipulation-backto-comp_arc_sta__baselibs__bit_manipulation" style="stroke:#181818;stroke-width:1;"/><polygon fill="#181818" points="5315.63,198.75,5321.1821,206.8848,5319.883,201.3791,5325.3886,200.08,5315.63,198.75" style="stroke:#181818;stroke-width:1;"/><text fill="#000000" font-family="sans-serif" font-size="13" lengthAdjust="spacing" textLength="76.9082" x="5390.5" y="241.5669">implements</text></g><!--reverse link logic_arc_int__baselibs__future to comp_arc_sta__baselibs__concurrency--><g id="link_logic_arc_int__baselibs__future_comp_arc_sta__baselibs__concurrency"><path codeLine="23" d="M3871.6578,199.3993 C3782.2078,212.9593 3664.44,230.47 3555.5,245.5 C3478.8,256.08 3393.35,267.09 3322.65,275.98 " fill="transparent" id="logic_arc_int__baselibs__future-backto-comp_arc_sta__baselibs__concurrency" style="stroke:#181818;stroke-width:1;"/><polygon fill="#181818" points="3877.59,198.5,3868.0921,195.8941,3872.6465,199.2494,3869.2912,203.8037,3877.59,198.5" style="stroke:#181818;stroke-width:1;"/><text fill="#000000" font-family="sans-serif" font-size="13" lengthAdjust="spacing" textLength="76.9082" x="3667.5" y="241.5669">implements</text></g><!--reverse link logic_arc_int__baselibs__bit_mask_operator to comp_arc_sta__baselibs__bit_manipulation--><g id="link_logic_arc_int__baselibs__bit_mask_operator_comp_arc_sta__baselibs__bit_manipulation"><path codeLine="24" d="M5613.67,202.0055 C5580.71,223.2955 5532.97,254.14 5500.09,275.38 " fill="transparent" id="logic_arc_int__baselibs__bit_mask_operator-backto-comp_arc_sta__baselibs__bit_manipulation" style="stroke:#181818;stroke-width:1;"/><polygon fill="#181818" points="5618.71,198.75,5608.9797,200.2733,5614.51,201.4629,5613.3203,206.9933,5618.71,198.75" style="stroke:#181818;stroke-width:1;"/><text fill="#000000" font-family="sans-serif" font-size="13" lengthAdjust="spacing" textLength="76.9082" x="5571.5" y="241.5669">implements</text></g><!--link Feature_User to logic_arc_int__baselibs__condition_variable--><g id="link_Feature_User_logic_arc_int__baselibs__condition_variable"><path codeLine="25" d="M3058.5,81.55 C3058.5,106.45 3058.5,132.26 3058.5,152.26 " fill="transparent" id="Feature_User-to-logic_arc_int__baselibs__condition_variable" style="stroke:#181818;stroke-width:1;"/><polygon fill="#181818" points="3058.5,158.26,3062.5,149.26,3058.5,153.26,3054.5,149.26,3058.5,158.26" style="stroke:#181818;stroke-width:1;"/><text fill="#000000" font-family="sans-serif" font-size="13" lengthAdjust="spacing" textLength="23.0103" x="3059.5" y="124.5669">use</text></g><!--link Feature_User to logic_arc_int__baselibs__message_passing--><g id="link_Feature_User_logic_arc_int__baselibs__message_passing"><path codeLine="26" d="M3103.55,45.4 C3324.23,49.94 4313.22,71.63 5122.5,111.5 C5438.81,127.08 5517.95,131.61 5833.5,158.5 C5839.36,159 5839.3441,158.9931 5845.3541,159.5331 " fill="transparent" id="Feature_User-to-logic_arc_int__baselibs__message_passing" style="stroke:#181818;stroke-width:1;"/><polygon fill="#181818" points="5851.33,160.07,5842.7241,155.2806,5846.3501,159.6226,5842.0082,163.2485,5851.33,160.07" style="stroke:#181818;stroke-width:1;"/><text fill="#000000" font-family="sans-serif" font-size="13" lengthAdjust="spacing" textLength="23.0103" x="5444.5" y="124.5669">use</text></g><!--reverse link logic_arc_int__baselibs__json to comp_arc_sta__baselibs__json--><g id="link_logic_arc_int__baselibs__json_comp_arc_sta__baselibs__json"><path codeLine="27" d="M4972.379,204.7464 C4973.119,225.9764 4974.09,253.94 4974.83,275.19 " fill="transparent" id="logic_arc_int__baselibs__json-backto-comp_arc_sta__baselibs__json" style="stroke:#181818;stroke-width:1;"/><polygon fill="#181818" points="4972.17,198.75,4968.4859,207.8839,4972.3442,203.747,4976.4811,207.6052,4972.17,198.75" style="stroke:#181818;stroke-width:1;"/><text fill="#000000" font-family="sans-serif" font-size="13" lengthAdjust="spacing" textLength="76.9082" x="4975.5" y="241.5669">implements</text></g><!--link Feature_User to logic_arc_int__baselibs__shared_future--><g id="link_Feature_User_logic_arc_int__baselibs__shared_future"><path codeLine="28" d="M3013.24,51.05 C2879.12,70.46 2486.0581,127.3507 2276.8181,157.6307 " fill="transparent" id="Feature_User-to-logic_arc_int__baselibs__shared_future" style="stroke:#181818;stroke-width:1;"/><polygon fill="#181818" points="2270.88,158.49,2280.3601,161.1598,2275.8285,157.7739,2279.2143,153.2422,2270.88,158.49" style="stroke:#181818;stroke-width:1;"/><text fill="#000000" font-family="sans-serif" font-size="13" lengthAdjust="spacing" textLength="23.0103" x="2572.5" y="124.5669">use</text></g><!--link Feature_User to logic_arc_int__baselibs__promise--><g id="link_Feature_User_logic_arc_int__baselibs__promise"><path codeLine="29" d="M3013.25,54.5 C2913.31,76.58 2678.1888,128.526 2548.4688,157.176 " fill="transparent" id="Feature_User-to-logic_arc_int__baselibs__promise" style="stroke:#181818;stroke-width:1;"/><polygon fill="#181818" points="2542.61,158.47,2552.2609,160.4349,2547.4923,157.3917,2550.5356,152.6232,2542.61,158.47" style="stroke:#181818;stroke-width:1;"/><text fill="#000000" font-family="sans-serif" font-size="13" lengthAdjust="spacing" textLength="23.0103" x="2740.5" y="124.5669">use</text></g><!--reverse link logic_arc_int__baselibs__condition_variable to comp_arc_sta__baselibs__concurrency--><g id="link_logic_arc_int__baselibs__condition_variable_comp_arc_sta__baselibs__concurrency"><path codeLine="30" d="M3081.8035,203.0117 C3102.8435,224.2417 3132.29,253.94 3153.36,275.19 " fill="transparent" id="logic_arc_int__baselibs__condition_variable-backto-comp_arc_sta__baselibs__concurrency" style="stroke:#181818;stroke-width:1;"/><polygon fill="#181818" points="3077.58,198.75,3081.0742,207.9582,3081.0996,202.3014,3086.7564,202.3268,3077.58,198.75" style="stroke:#181818;stroke-width:1;"/><text fill="#000000" font-family="sans-serif" font-size="13" lengthAdjust="spacing" textLength="76.9082" x="3123.5" y="241.5669">implements</text></g><!--link Feature_User to logic_arc_int__baselibs__future--><g id="link_Feature_User_logic_arc_int__baselibs__future"><path codeLine="31" d="M3103.67,50.87 C3242.38,70.43 3659.7088,129.292 3871.7588,159.202 " fill="transparent" id="Feature_User-to-logic_arc_int__baselibs__future" style="stroke:#181818;stroke-width:1;"/><polygon fill="#181818" points="3877.7,160.04,3869.3469,154.8222,3872.749,159.3417,3868.2295,162.7438,3877.7,160.04" style="stroke:#181818;stroke-width:1;"/><text fill="#000000" font-family="sans-serif" font-size="13" lengthAdjust="spacing" textLength="23.0103" x="3643.5" y="124.5669">use</text></g><!--link Feature_User to logic_arc_int__baselibs__utils_scoped_op--><g id="link_Feature_User_logic_arc_int__baselibs__utils_scoped_op"><path codeLine="32" d="M3013.41,49.16 C2864.54,64.57 2375.11,115.34 1970.5,158.5 C1964.88,159.1 1965.1259,159.0712 1959.3359,159.6912 " fill="transparent" id="Feature_User-to-logic_arc_int__baselibs__utils_scoped_op" style="stroke:#181818;stroke-width:1;"/><polygon fill="#181818" points="1953.37,160.33,1962.7447,163.349,1958.3416,159.7976,1961.893,155.3945,1953.37,160.33" style="stroke:#181818;stroke-width:1;"/><text fill="#000000" font-family="sans-serif" font-size="13" lengthAdjust="spacing" textLength="23.0103" x="2390.5" y="124.5669">use</text></g><!--link Feature_User to logic_arc_int__baselibs__task--><g id="link_Feature_User_logic_arc_int__baselibs__task"><path codeLine="33" d="M3013.47,63.27 C2952.93,88.51 2851.4279,130.8309 2790.6079,156.1909 " fill="transparent" id="Feature_User-to-logic_arc_int__baselibs__task" style="stroke:#181818;stroke-width:1;"/><polygon fill="#181818" points="2785.07,158.5,2794.9162,158.7282,2789.6849,156.5757,2791.8374,151.3444,2785.07,158.5" style="stroke:#181818;stroke-width:1;"/><text fill="#000000" font-family="sans-serif" font-size="13" lengthAdjust="spacing" textLength="23.0103" x="2890.5" y="124.5669">use</text></g><!--link Feature_User to logic_arc_int__baselibs__synchronized_queue--><g id="link_Feature_User_logic_arc_int__baselibs__synchronized_queue"><path codeLine="34" d="M3103.54,49.19 C3270.87,66.64 3856.4723,127.678 4154.3823,158.728 " fill="transparent" id="Feature_User-to-logic_arc_int__baselibs__synchronized_queue" style="stroke:#181818;stroke-width:1;"/><polygon fill="#181818" points="4160.35,159.35,4151.8131,154.4386,4155.3769,158.8317,4150.9838,162.3955,4160.35,159.35" style="stroke:#181818;stroke-width:1;"/><text fill="#000000" font-family="sans-serif" font-size="13" lengthAdjust="spacing" textLength="23.0103" x="3849.5" y="124.5669">use</text></g><!--reverse link logic_arc_int__baselibs__task to comp_arc_sta__baselibs__concurrency--><g id="link_logic_arc_int__baselibs__task_comp_arc_sta__baselibs__concurrency"><path codeLine="35" d="M2817.289,200.1601 C2897.489,221.4601 3020.58,254.15 3100.7,275.43 " fill="transparent" id="logic_arc_int__baselibs__task-backto-comp_arc_sta__baselibs__concurrency" style="stroke:#181818;stroke-width:1;"/><polygon fill="#181818" points="2811.49,198.62,2819.1617,204.7962,2816.3225,199.9034,2821.2152,197.0642,2811.49,198.62" style="stroke:#181818;stroke-width:1;"/><text fill="#000000" font-family="sans-serif" font-size="13" lengthAdjust="spacing" textLength="76.9082" x="2983.5" y="241.5669">implements</text></g><!--reverse link logic_arc_int__baselibs__filesystem to comp_arc_sta__baselibs__filesystem--><g id="link_logic_arc_int__baselibs__filesystem_comp_arc_sta__baselibs__filesystem"><path codeLine="36" d="M4680.4002,204.7444 C4679.4802,225.9744 4678.26,253.94 4677.34,275.19 " fill="transparent" id="logic_arc_int__baselibs__filesystem-backto-comp_arc_sta__baselibs__filesystem" style="stroke:#181818;stroke-width:1;"/><polygon fill="#181818" points="4680.66,198.75,4676.2741,207.5684,4680.4435,203.7453,4684.2666,207.9147,4680.66,198.75" style="stroke:#181818;stroke-width:1;"/><text fill="#000000" font-family="sans-serif" font-size="13" lengthAdjust="spacing" textLength="76.9082" x="4680.5" y="241.5669">implements</text></g><!--link Feature_User to logic_arc_int__baselibs__json--><g id="link_Feature_User_logic_arc_int__baselibs__json"><path codeLine="37" d="M3103.62,45.98 C3305.81,52.89 4148.72,84.89 4836.5,158.5 C4842.5,159.14 4842.6923,159.1389 4848.8923,159.8789 " fill="transparent" id="Feature_User-to-logic_arc_int__baselibs__json" style="stroke:#181818;stroke-width:1;"/><polygon fill="#181818" points="4854.85,160.59,4846.3875,155.5516,4849.8852,159.9974,4845.4394,163.4952,4854.85,160.59" style="stroke:#181818;stroke-width:1;"/><text fill="#000000" font-family="sans-serif" font-size="13" lengthAdjust="spacing" textLength="23.0103" x="4498.5" y="124.5669">use</text></g><!--reverse link logic_arc_int__baselibs__synchronized_queue to comp_arc_sta__baselibs__concurrency--><g id="link_logic_arc_int__baselibs__synchronized_queue_comp_arc_sta__baselibs__concurrency"><path codeLine="38" d="M4171.8119,199.2074 C4054.7419,213.1074 3896.7,231.24 3752.5,245.5 C3606.56,259.94 3439.69,273.75 3322.52,283.01 " fill="transparent" id="logic_arc_int__baselibs__synchronized_queue-backto-comp_arc_sta__baselibs__concurrency" style="stroke:#181818;stroke-width:1;"/><polygon fill="#181818" points="4177.77,198.5,4168.3612,195.589,4172.8049,199.0895,4169.3044,203.5332,4177.77,198.5" style="stroke:#181818;stroke-width:1;"/><text fill="#000000" font-family="sans-serif" font-size="13" lengthAdjust="spacing" textLength="76.9082" x="3914.5" y="241.5669">implements</text></g><!--reverse link logic_arc_int__baselibs__task_result to comp_arc_sta__baselibs__concurrency--><g id="link_logic_arc_int__baselibs__task_result_comp_arc_sta__baselibs__concurrency"><path codeLine="39" d="M3608.8165,199.8224 C3510.7065,221.1124 3358.67,254.11 3260.49,275.41 " fill="transparent" id="logic_arc_int__baselibs__task_result-backto-comp_arc_sta__baselibs__concurrency" style="stroke:#181818;stroke-width:1;"/><polygon fill="#181818" points="3614.68,198.55,3605.0364,196.5496,3609.7937,199.6103,3606.733,204.3676,3614.68,198.55" style="stroke:#181818;stroke-width:1;"/><text fill="#000000" font-family="sans-serif" font-size="13" lengthAdjust="spacing" textLength="76.9082" x="3470.5" y="241.5669">implements</text></g><!--reverse link logic_arc_int__baselibs__dynamic_array to comp_arc_sta__baselibs__containers--><g id="link_logic_arc_int__baselibs__dynamic_array_comp_arc_sta__baselibs__containers"><path codeLine="40" d="M466.7533,203.0672 C446.2633,224.2972 417.65,253.94 397.14,275.19 " fill="transparent" id="logic_arc_int__baselibs__dynamic_array-backto-comp_arc_sta__baselibs__containers" style="stroke:#181818;stroke-width:1;"/><polygon fill="#181818" points="470.92,198.75,461.7918,202.448,467.4477,202.3477,467.548,208.0036,470.92,198.75" style="stroke:#181818;stroke-width:1;"/><text fill="#000000" font-family="sans-serif" font-size="13" lengthAdjust="spacing" textLength="76.9082" x="442.5" y="241.5669">implements</text></g><!--link Feature_User to logic_arc_int__baselibs__intrusive_list--><g id="link_Feature_User_logic_arc_int__baselibs__intrusive_list"><path codeLine="41" d="M3013.14,45.31 C2790.94,49.44 1795.17,69.51 980.5,111.5 C685.49,126.71 611.63,131.05 317.5,158.5 C311.79,159.03 311.95,159.001 306.07,159.591 " fill="transparent" id="Feature_User-to-logic_arc_int__baselibs__intrusive_list" style="stroke:#181818;stroke-width:1;"/><polygon fill="#181818" points="300.1,160.19,309.4544,163.2715,305.075,159.6908,308.6557,155.3114,300.1,160.19" style="stroke:#181818;stroke-width:1;"/><text fill="#000000" font-family="sans-serif" font-size="13" lengthAdjust="spacing" textLength="23.0103" x="981.5" y="124.5669">use</text></g><!--reverse link logic_arc_int__baselibs__memory_shared to comp_arc_sta__baselibs__memory_shared--><g id="link_logic_arc_int__baselibs__memory_shared_comp_arc_sta__baselibs__memory_shared"><path codeLine="42" d="M1117.379,204.7464 C1118.119,225.9764 1119.09,253.94 1119.83,275.19 " fill="transparent" id="logic_arc_int__baselibs__memory_shared-backto-comp_arc_sta__baselibs__memory_shared" style="stroke:#181818;stroke-width:1;"/><polygon fill="#181818" points="1117.17,198.75,1113.4859,207.8839,1117.3442,203.747,1121.4811,207.6052,1117.17,198.75" style="stroke:#181818;stroke-width:1;"/><text fill="#000000" font-family="sans-serif" font-size="13" lengthAdjust="spacing" textLength="76.9082" x="1120.5" y="241.5669">implements</text></g><!--reverse link logic_arc_int__baselibs__result to comp_arc_sta__baselibs__result--><g id="link_logic_arc_int__baselibs__result_comp_arc_sta__baselibs__result"><path codeLine="43" d="M799.4002,204.7444 C798.4802,225.9744 797.26,253.94 796.34,275.19 " fill="transparent" id="logic_arc_int__baselibs__result-backto-comp_arc_sta__baselibs__result" style="stroke:#181818;stroke-width:1;"/><polygon fill="#181818" points="799.66,198.75,795.2741,207.5684,799.4435,203.7453,803.2666,207.9147,799.66,198.75" style="stroke:#181818;stroke-width:1;"/><text fill="#000000" font-family="sans-serif" font-size="13" lengthAdjust="spacing" textLength="76.9082" x="799.5" y="241.5669">implements</text></g><!--link Feature_User to logic_arc_int__baselibs__bit_mask_operator--><g id="link_Feature_User_logic_arc_int__baselibs__bit_mask_operator"><path codeLine="44" d="M3103.69,45.69 C3303.5,51.06 4127.68,74.44 4803.5,111.5 C5096.69,127.58 5169.96,133.13 5462.5,158.5 C5468.48,159.02 5468.5947,159.0159 5474.7447,159.5759 " fill="transparent" id="Feature_User-to-logic_arc_int__baselibs__bit_mask_operator" style="stroke:#181818;stroke-width:1;"/><polygon fill="#181818" points="5480.72,160.12,5472.1198,155.3203,5475.7406,159.6666,5471.3944,163.2874,5480.72,160.12" style="stroke:#181818;stroke-width:1;"/><text fill="#000000" font-family="sans-serif" font-size="13" lengthAdjust="spacing" textLength="23.0103" x="5090.5" y="124.5669">use</text></g><!--link Feature_User to logic_arc_int__baselibs__executor--><g id="link_Feature_User_logic_arc_int__baselibs__executor"><path codeLine="45" d="M3103.68,62.44 C3166.81,87.5 3275.3432,130.5965 3339.9432,156.2365 " fill="transparent" id="Feature_User-to-logic_arc_int__baselibs__executor" style="stroke:#181818;stroke-width:1;"/><polygon fill="#181818" points="3345.52,158.45,3338.6304,151.412,3340.8727,156.6055,3335.6792,158.8477,3345.52,158.45" style="stroke:#181818;stroke-width:1;"/><text fill="#000000" font-family="sans-serif" font-size="13" lengthAdjust="spacing" textLength="23.0103" x="3267.5" y="124.5669">use</text></g><!--reverse link logic_arc_int__baselibs__executor to comp_arc_sta__baselibs__concurrency--><g id="link_logic_arc_int__baselibs__executor_comp_arc_sta__baselibs__concurrency"><path codeLine="46" d="M3351.1873,201.5193 C3310.2673,222.8093 3250.06,254.14 3209.24,275.38 " fill="transparent" id="logic_arc_int__baselibs__executor-backto-comp_arc_sta__baselibs__concurrency" style="stroke:#181818;stroke-width:1;"/><polygon fill="#181818" points="3356.51,198.75,3346.6798,199.3555,3352.0744,201.0578,3350.3722,206.4524,3356.51,198.75" style="stroke:#181818;stroke-width:1;"/><text fill="#000000" font-family="sans-serif" font-size="13" lengthAdjust="spacing" textLength="76.9082" x="3297.5" y="241.5669">implements</text></g><!--link Feature_User to logic_arc_int__baselibs__utils_base64--><g id="link_Feature_User_logic_arc_int__baselibs__utils_base64"><path codeLine="47" d="M3013.42,47.48 C2835.97,59.32 2168.55,105.05 1620.5,158.5 C1614.65,159.07 1614.6584,159.0553 1608.6384,159.6753 " fill="transparent" id="Feature_User-to-logic_arc_int__baselibs__utils_base64" style="stroke:#181818;stroke-width:1;"/><polygon fill="#181818" points="1602.67,160.29,1612.0324,163.3469,1607.6437,159.7778,1611.2129,155.389,1602.67,160.29" style="stroke:#181818;stroke-width:1;"/><text fill="#000000" font-family="sans-serif" font-size="13" lengthAdjust="spacing" textLength="23.0103" x="2135.5" y="124.5669">use</text></g><!--reverse link logic_arc_int__baselibs__intrusive_list to comp_arc_sta__baselibs__containers--><g id="link_logic_arc_int__baselibs__intrusive_list_comp_arc_sta__baselibs__containers"><path codeLine="48" d="M196.2525,201.3509 C237.8625,222.6209 299.36,254.05 341,275.34 " fill="transparent" id="logic_arc_int__baselibs__intrusive_list-backto-comp_arc_sta__baselibs__containers" style="stroke:#181818;stroke-width:1;"/><polygon fill="#181818" points="190.91,198.62,197.1031,206.2781,195.3621,200.8958,200.7443,199.1548,190.91,198.62" style="stroke:#181818;stroke-width:1;"/><text fill="#000000" font-family="sans-serif" font-size="13" lengthAdjust="spacing" textLength="76.9082" x="280.5" y="241.5669">implements</text></g><!--link Feature_User to logic_arc_int__baselibs__result--><g id="link_Feature_User_logic_arc_int__baselibs__result"><path codeLine="49" d="M3013.37,46.33 C2837.92,53.51 2184.31,80.87 1646.5,111.5 C1332.09,129.41 1252.81,126.71 939.5,158.5 C934.05,159.05 934.4415,158.9811 928.8215,159.6211 " fill="transparent" id="Feature_User-to-logic_arc_int__baselibs__result" style="stroke:#181818;stroke-width:1;"/><polygon fill="#181818" points="922.86,160.3,932.2548,163.256,927.8279,159.7343,931.3496,155.3074,922.86,160.3" style="stroke:#181818;stroke-width:1;"/><text fill="#000000" font-family="sans-serif" font-size="13" lengthAdjust="spacing" textLength="23.0103" x="1647.5" y="124.5669">use</text></g><!--reverse link logic_arc_int__baselibs__shared_future to comp_arc_sta__baselibs__concurrency--><g id="link_logic_arc_int__baselibs__shared_future_comp_arc_sta__baselibs__concurrency"><path codeLine="50" d="M2287.3689,199.3015 C2392.7189,213.1415 2533.98,231.11 2663.5,245.5 C2784.05,258.89 2920.9,271.95 3022.32,281.21 " fill="transparent" id="logic_arc_int__baselibs__shared_future-backto-comp_arc_sta__baselibs__concurrency" style="stroke:#181818;stroke-width:1;"/><polygon fill="#181818" points="2281.42,198.52,2289.8223,203.6582,2286.3774,199.1713,2290.8643,195.7263,2281.42,198.52" style="stroke:#181818;stroke-width:1;"/><text fill="#000000" font-family="sans-serif" font-size="13" lengthAdjust="spacing" textLength="76.9082" x="2664.5" y="241.5669">implements</text></g><!--reverse link logic_arc_int__baselibs__utils_scoped_op to comp_arc_sta__baselibs__utils--><g id="link_logic_arc_int__baselibs__utils_scoped_op_comp_arc_sta__baselibs__utils"><path codeLine="51" d="M1752.9223,201.3603 C1711.4923,222.6303 1650.29,254.05 1608.83,275.34 " fill="transparent" id="logic_arc_int__baselibs__utils_scoped_op-backto-comp_arc_sta__baselibs__utils" style="stroke:#181818;stroke-width:1;"/><polygon fill="#181818" points="1758.26,198.62,1748.4266,199.1721,1753.812,200.9036,1752.0804,206.2889,1758.26,198.62" style="stroke:#181818;stroke-width:1;"/><text fill="#000000" font-family="sans-serif" font-size="13" lengthAdjust="spacing" textLength="76.9082" x="1698.5" y="241.5669">implements</text></g><!--link Feature_User to logic_arc_int__baselibs__dynamic_array--><g id="link_Feature_User_logic_arc_int__baselibs__dynamic_array"><path codeLine="52" d="M3013.21,45.58 C2811.14,50.55 1971.63,72.57 1283.5,111.5 C1006.27,127.18 936.98,132.72 660.5,158.5 C655,159.01 655.3708,158.9592 649.7108,159.5192 " fill="transparent" id="Feature_User-to-logic_arc_int__baselibs__dynamic_array" style="stroke:#181818;stroke-width:1;"/><polygon fill="#181818" points="643.74,160.11,653.0901,163.2044,648.7157,159.6177,652.3024,155.2433,643.74,160.11" style="stroke:#181818;stroke-width:1;"/><text fill="#000000" font-family="sans-serif" font-size="13" lengthAdjust="spacing" textLength="23.0103" x="1284.5" y="124.5669">use</text></g><!--SRC=[hLPDRzim3BthLmYzfnk6OOUYw6N0JZjkPq6MsOIhFZoHwkeD- - -JxQ29qwoorHnfKnJVuoCfRMtufHm-eTyA3fta89l079niCO9X35xii0L93142znrCDhYEUwcP8pQ9WSGjSM_XJbnhGjl8F-8hUlWSR8WoGZjQttPe7ZmGoG_NxyLVSVjkVqPemzdlwWjeJX7aTu9u9JN9_GSrV91YPctQpPsqOOj6wMWKUbQgqGGM6rBg7YrGdvDsDp8HI662wqP7OdtiQ88tAKRmffURz5h8BWQ713SINMV1WMTQbP835sAlQASp7uMi4gEbGZwZpsX_-ZXFwhzXNUPURq5rcYXNl731YNSrSDRqe29Giho7lU9mWwoSzjWbgmSr5eWxTIz0V1dz6EFRDNEV1fpBebQbdfaD7KITswUwFXbEYyEDwb57r8s5zMLwePLNg_I3Yl06bsf4KuyzixyMp7EdNsXod2Eu4bajf6bOaCbYQRDYrWSOcdZzAUgzsSNWyNU-zcU2T3bIfuIMDDPX5vIwzMXfLDPdaks589vZxxBpQJQQ5uPcdLTvB6sdjlVQZR-Yxglfp6PCX8-WB18NY9qjsE9kcotZ9T0dcWfnpt6vUjlDXlhQbeCdCEbmykqQEGIi13L_g9IoMYQlKs5KfZPxbLoWOUTxPucgbh_qZePt9TgJdXn1_mC0]--></g></svg>