<svg xmlns="http://www.w3.org/2000/svg" xmlns:xlink="http://www.w3.org/1999/xlink" contentStyleType="text/css" data-diagram-type="CLASS" height="322px" preserveAspectRatio="none" style="width:6197px;height:322px;background:#FFFFFF;" version="1.1" viewBox="0 0 6197 322" width="6197px" zoomAndPan="magnify"><defs/><g><!--entity Feature_User--><g id="elem_Feature_User"><ellipse cx="3017.1685" cy="14" fill="#F1F1F1" rx="8" ry="8" style="stroke:#181818;stroke-width:0.5;"/><path d="M3017.1685,22 L3017.1685,49 M3004.1685,30 L3030.1685,30 M3017.1685,49 L3004.1685,64 M3017.1685,49 L3030.1685,64 " fill="transparent" style="stroke:#181818;stroke-width:0.5;"/><text fill="#000000" font-family="sans-serif" font-size="14" lengthAdjust="spacing" textLength="90.3369" x="2972" y="78.4951">Feature User</text></g><!--class comp_arc_sta__baselibs__concurrency--><g id="elem_comp_arc_sta__baselibs__concurrency"><rect fill="#F1F1F1" height="40" id="comp_arc_sta__baselibs__concurrency" rx="2.5" ry="2.5" style="stroke:#181818;stroke-width:0.5;" width="300.2012" x="2033" y="275.5"/><ellipse cx="2048" cy="291.5" fill="#ADD1B2" rx="11" ry="11" style="stroke:#181818;stroke-width:1;"/><path d="M2050.9688,297.1406 Q2050.3906,297.4375 2049.75,297.5781 Q2049.1094,297.7344 2048.4063,297.7344 Q2045.9063,297.7344 2044.5781,296.0938 Q2043.2656,294.4375 2043.2656,291.3125 Q2043.2656,288.1875 2044.5781,286.5313 Q2045.9063,284.875 2048.4063,284.875 Q2049.1094,284.875 2049.75,285.0313 Q2050.4063,285.1875 2050.9688,285.4844 L2050.9688,288.2031 Q2050.3438,287.625 2049.75,287.3594 Q2049.1563,287.0781 2048.5313,287.0781 Q2047.1875,287.0781 2046.5,288.1563 Q2045.8125,289.2188 2045.8125,291.3125 Q2045.8125,293.4063 2046.5,294.4844 Q2047.1875,295.5469 2048.5313,295.5469 Q2049.1563,295.5469 2049.75,295.2813 Q2050.3438,295 2050.9688,294.4219 L2050.9688,297.1406 Z " fill="#000000"/><text fill="#000000" font-family="sans-serif" font-size="14" lengthAdjust="spacing" textLength="268.2012" x="2062" y="296.3467">comp_arc_sta__baselibs__concurrency</text><line style="stroke:#181818;stroke-width:0.5;" x1="2034" x2="2332.2012" y1="307.5" y2="307.5"/></g><!--class logic_arc_int__baselibs__condition_variable--><g id="elem_logic_arc_int__baselibs__condition_variable"><rect fill="#F1F1F1" height="40" id="logic_arc_int__baselibs__condition_variable" rx="2.5" ry="2.5" style="stroke:#181818;stroke-width:0.5;" width="332.7539" x="2230.5" y="158.5"/><ellipse cx="2245.5" cy="174.5" fill="#ADD1B2" rx="11" ry="11" style="stroke:#181818;stroke-width:1;"/><path d="M2248.4688,180.1406 Q2247.8906,180.4375 2247.25,180.5781 Q2246.6094,180.7344 2245.9063,180.7344 Q2243.4063,180.7344 2242.0781,179.0938 Q2240.7656,177.4375 2240.7656,174.3125 Q2240.7656,171.1875 2242.0781,169.5313 Q2243.4063,167.875 2245.9063,167.875 Q2246.6094,167.875 2247.25,168.0313 Q2247.9063,168.1875 2248.4688,168.4844 L2248.4688,171.2031 Q2247.8438,170.625 2247.25,170.3594 Q2246.6563,170.0781 2246.0313,170.0781 Q2244.6875,170.0781 2244,171.1563 Q2243.3125,172.2188 2243.3125,174.3125 Q2243.3125,176.4063 2244,177.4844 Q2244.6875,178.5469 2246.0313,178.5469 Q2246.6563,178.5469 2247.25,178.2813 Q2247.8438,178 2248.4688,177.4219 L2248.4688,180.1406 Z " fill="#000000"/><text fill="#000000" font-family="sans-serif" font-size="14" lengthAdjust="spacing" textLength="300.7539" x="2259.5" y="179.3467">logic_arc_int__baselibs__condition_variable</text><line style="stroke:#181818;stroke-width:0.5;" x1="2231.5" x2="2562.2539" y1="190.5" y2="190.5"/></g><!--class logic_arc_int__baselibs__future--><g id="elem_logic_arc_int__baselibs__future"><rect fill="#F1F1F1" height="40" id="logic_arc_int__baselibs__future" rx="2.5" ry="2.5" style="stroke:#181818;stroke-width:0.5;" width="247.0791" x="1948.5" y="158.5"/><ellipse cx="1963.5" cy="174.5" fill="#ADD1B2" rx="11" ry="11" style="stroke:#181818;stroke-width:1;"/><path d="M1966.4688,180.1406 Q1965.8906,180.4375 1965.25,180.5781 Q1964.6094,180.7344 1963.9063,180.7344 Q1961.4063,180.7344 1960.0781,179.0938 Q1958.7656,177.4375 1958.7656,174.3125 Q1958.7656,171.1875 1960.0781,169.5313 Q1961.4063,167.875 1963.9063,167.875 Q1964.6094,167.875 1965.25,168.0313 Q1965.9063,168.1875 1966.4688,168.4844 L1966.4688,171.2031 Q1965.8438,170.625 1965.25,170.3594 Q1964.6563,170.0781 1964.0313,170.0781 Q1962.6875,170.0781 1962,171.1563 Q1961.3125,172.2188 1961.3125,174.3125 Q1961.3125,176.4063 1962,177.4844 Q1962.6875,178.5469 1964.0313,178.5469 Q1964.6563,178.5469 1965.25,178.2813 Q1965.8438,178 1966.4688,177.4219 L1966.4688,180.1406 Z " fill="#000000"/><text fill="#000000" font-family="sans-serif" font-size="14" lengthAdjust="spacing" textLength="215.0791" x="1977.5" y="179.3467">logic_arc_int__baselibs__future</text><line style="stroke:#181818;stroke-width:0.5;" x1="1949.5" x2="2194.5791" y1="190.5" y2="190.5"/></g><!--class logic_arc_int__baselibs__task_result--><g id="elem_logic_arc_int__baselibs__task_result"><rect fill="#F1F1F1" height="40" id="logic_arc_int__baselibs__task_result" rx="2.5" ry="2.5" style="stroke:#181818;stroke-width:0.5;" width="280.9307" x="1632.5" y="158.5"/><ellipse cx="1647.5" cy="174.5" fill="#ADD1B2" rx="11" ry="11" style="stroke:#181818;stroke-width:1;"/><path d="M1650.4688,180.1406 Q1649.8906,180.4375 1649.25,180.5781 Q1648.6094,180.7344 1647.9063,180.7344 Q1645.4063,180.7344 1644.0781,179.0938 Q1642.7656,177.4375 1642.7656,174.3125 Q1642.7656,171.1875 1644.0781,169.5313 Q1645.4063,167.875 1647.9063,167.875 Q1648.6094,167.875 1649.25,168.0313 Q1649.9063,168.1875 1650.4688,168.4844 L1650.4688,171.2031 Q1649.8438,170.625 1649.25,170.3594 Q1648.6563,170.0781 1648.0313,170.0781 Q1646.6875,170.0781 1646,171.1563 Q1645.3125,172.2188 1645.3125,174.3125 Q1645.3125,176.4063 1646,177.4844 Q1646.6875,178.5469 1648.0313,178.5469 Q1648.6563,178.5469 1649.25,178.2813 Q1649.8438,178 1650.4688,177.4219 L1650.4688,180.1406 Z " fill="#000000"/><text fill="#000000" font-family="sans-serif" font-size="14" lengthAdjust="spacing" textLength="248.9307" x="1661.5" y="179.3467">logic_arc_int__baselibs__task_result</text><line style="stroke:#181818;stroke-width:0.5;" x1="1633.5" x2="1912.4307" y1="190.5" y2="190.5"/></g><!--class comp_arc_sta__baselibs__bit_manipulation--><g id="elem_comp_arc_sta__baselibs__bit_manipulation"><rect fill="#F1F1F1" height="40" id="comp_arc_sta__baselibs__bit_manipulation" rx="2.5" ry="2.5" style="stroke:#181818;stroke-width:0.5;" width="330.8057" x="5679.5" y="275.5"/><ellipse cx="5694.5" cy="291.5" fill="#ADD1B2" rx="11" ry="11" style="stroke:#181818;stroke-width:1;"/><path d="M5697.4688,297.1406 Q5696.8906,297.4375 5696.25,297.5781 Q5695.6094,297.7344 5694.9063,297.7344 Q5692.4063,297.7344 5691.0781,296.0938 Q5689.7656,294.4375 5689.7656,291.3125 Q5689.7656,288.1875 5691.0781,286.5313 Q5692.4063,284.875 5694.9063,284.875 Q5695.6094,284.875 5696.25,285.0313 Q5696.9063,285.1875 5697.4688,285.4844 L5697.4688,288.2031 Q5696.8438,287.625 5696.25,287.3594 Q5695.6563,287.0781 5695.0313,287.0781 Q5693.6875,287.0781 5693,288.1563 Q5692.3125,289.2188 5692.3125,291.3125 Q5692.3125,293.4063 5693,294.4844 Q5693.6875,295.5469 5695.0313,295.5469 Q5695.6563,295.5469 5696.25,295.2813 Q5696.8438,295 5697.4688,294.4219 L5697.4688,297.1406 Z " fill="#000000"/><text fill="#000000" font-family="sans-serif" font-size="14" lengthAdjust="spacing" textLength="298.8057" x="5708.5" y="296.3467">comp_arc_sta__baselibs__bit_manipulation</text><line style="stroke:#181818;stroke-width:0.5;" x1="5680.5" x2="6009.3057" y1="307.5" y2="307.5"/></g><!--class logic_arc_int__baselibs__bit_manipulation--><g id="elem_logic_arc_int__baselibs__bit_manipulation"><rect fill="#F1F1F1" height="40" id="logic_arc_int__baselibs__bit_manipulation" rx="2.5" ry="2.5" style="stroke:#181818;stroke-width:0.5;" width="321.8369" x="5498" y="158.5"/><ellipse cx="5513" cy="174.5" fill="#ADD1B2" rx="11" ry="11" style="stroke:#181818;stroke-width:1;"/><path d="M5515.9688,180.1406 Q5515.3906,180.4375 5514.75,180.5781 Q5514.1094,180.7344 5513.4063,180.7344 Q5510.9063,180.7344 5509.5781,179.0938 Q5508.2656,177.4375 5508.2656,174.3125 Q5508.2656,171.1875 5509.5781,169.5313 Q5510.9063,167.875 5513.4063,167.875 Q5514.1094,167.875 5514.75,168.0313 Q5515.4063,168.1875 5515.9688,168.4844 L5515.9688,171.2031 Q5515.3438,170.625 5514.75,170.3594 Q5514.1563,170.0781 5513.5313,170.0781 Q5512.1875,170.0781 5511.5,171.1563 Q5510.8125,172.2188 5510.8125,174.3125 Q5510.8125,176.4063 5511.5,177.4844 Q5512.1875,178.5469 5513.5313,178.5469 Q5514.1563,178.5469 5514.75,178.2813 Q5515.3438,178 5515.9688,177.4219 L5515.9688,180.1406 Z " fill="#000000"/><text fill="#000000" font-family="sans-serif" font-size="14" lengthAdjust="spacing" textLength="289.8369" x="5527" y="179.3467">logic_arc_int__baselibs__bit_manipulation</text><line style="stroke:#181818;stroke-width:0.5;" x1="5499" x2="5818.8369" y1="190.5" y2="190.5"/></g><!--class logic_arc_int__baselibs__executor--><g id="elem_logic_arc_int__baselibs__executor"><rect fill="#F1F1F1" height="40" id="logic_arc_int__baselibs__executor" rx="2.5" ry="2.5" style="stroke:#181818;stroke-width:0.5;" width="266.4385" x="2599" y="158.5"/><ellipse cx="2614" cy="174.5" fill="#ADD1B2" rx="11" ry="11" style="stroke:#181818;stroke-width:1;"/><path d="M2616.9688,180.1406 Q2616.3906,180.4375 2615.75,180.5781 Q2615.1094,180.7344 2614.4063,180.7344 Q2611.9063,180.7344 2610.5781,179.0938 Q2609.2656,177.4375 2609.2656,174.3125 Q2609.2656,171.1875 2610.5781,169.5313 Q2611.9063,167.875 2614.4063,167.875 Q2615.1094,167.875 2615.75,168.0313 Q2616.4063,168.1875 2616.9688,168.4844 L2616.9688,171.2031 Q2616.3438,170.625 2615.75,170.3594 Q2615.1563,170.0781 2614.5313,170.0781 Q2613.1875,170.0781 2612.5,171.1563 Q2611.8125,172.2188 2611.8125,174.3125 Q2611.8125,176.4063 2612.5,177.4844 Q2613.1875,178.5469 2614.5313,178.5469 Q2615.1563,178.5469 2615.75,178.2813 Q2616.3438,178 2616.9688,177.4219 L2616.9688,180.1406 Z " fill="#000000"/><text fill="#000000" font-family="sans-serif" font-size="14" lengthAdjust="spacing" textLength="234.4385" x="2628" y="179.3467">logic_arc_int__baselibs__executor</text><line style="stroke:#181818;stroke-width:0.5;" x1="2600" x2="2864.4385" y1="190.5" y2="190.5"/></g><!--class logic_arc_int__baselibs__utils_base64--><g id="elem_logic_arc_int__baselibs__utils_base64"><rect fill="#F1F1F1" height="40" id="logic_arc_int__baselibs__utils_base64" rx="2.5" ry="2.5" style="stroke:#181818;stroke-width:0.5;" width="292.1689" x="4136" y="158.5"/><ellipse cx="4151" cy="174.5" fill="#ADD1B2" rx="11" ry="11" style="stroke:#181818;stroke-width:1;"/><path d="M4153.9688,180.1406 Q4153.3906,180.4375 4152.75,180.5781 Q4152.1094,180.7344 4151.4063,180.7344 Q4148.9063,180.7344 4147.5781,179.0938 Q4146.2656,177.4375 4146.2656,174.3125 Q4146.2656,171.1875 4147.5781,169.5313 Q4148.9063,167.875 4151.4063,167.875 Q4152.1094,167.875 4152.75,168.0313 Q4153.4063,168.1875 4153.9688,168.4844 L4153.9688,171.2031 Q4153.3438,170.625 4152.75,170.3594 Q4152.1563,170.0781 4151.5313,170.0781 Q4150.1875,170.0781 4149.5,171.1563 Q4148.8125,172.2188 4148.8125,174.3125 Q4148.8125,176.4063 4149.5,177.4844 Q4150.1875,178.5469 4151.5313,178.5469 Q4152.1563,178.5469 4152.75,178.2813 Q4153.3438,178 4153.9688,177.4219 L4153.9688,180.1406 Z " fill="#000000"/><text fill="#000000" font-family="sans-serif" font-size="14" lengthAdjust="spacing" textLength="260.1689" x="4165" y="179.3467">logic_arc_int__baselibs__utils_base64</text><line style="stroke:#181818;stroke-width:0.5;" x1="4137" x2="4427.1689" y1="190.5" y2="190.5"/></g><!--class logic_arc_int__baselibs__memory_shared--><g id="elem_logic_arc_int__baselibs__memory_shared"><rect fill="#F1F1F1" height="40" id="logic_arc_int__baselibs__memory_shared" rx="2.5" ry="2.5" style="stroke:#181818;stroke-width:0.5;" width="318.043" x="289" y="158.5"/><ellipse cx="304" cy="174.5" fill="#ADD1B2" rx="11" ry="11" style="stroke:#181818;stroke-width:1;"/><path d="M306.9688,180.1406 Q306.3906,180.4375 305.75,180.5781 Q305.1094,180.7344 304.4063,180.7344 Q301.9063,180.7344 300.5781,179.0938 Q299.2656,177.4375 299.2656,174.3125 Q299.2656,171.1875 300.5781,169.5313 Q301.9063,167.875 304.4063,167.875 Q305.1094,167.875 305.75,168.0313 Q306.4063,168.1875 306.9688,168.4844 L306.9688,171.2031 Q306.3438,170.625 305.75,170.3594 Q305.1563,170.0781 304.5313,170.0781 Q303.1875,170.0781 302.5,171.1563 Q301.8125,172.2188 301.8125,174.3125 Q301.8125,176.4063 302.5,177.4844 Q303.1875,178.5469 304.5313,178.5469 Q305.1563,178.5469 305.75,178.2813 Q306.3438,178 306.9688,177.4219 L306.9688,180.1406 Z " fill="#000000"/><text fill="#000000" font-family="sans-serif" font-size="14" lengthAdjust="spacing" textLength="286.043" x="318" y="179.3467">logic_arc_int__baselibs__memory_shared</text><line style="stroke:#181818;stroke-width:0.5;" x1="290" x2="606.043" y1="190.5" y2="190.5"/></g><!--class logic_arc_int__baselibs__bit_mask_operator--><g id="elem_logic_arc_int__baselibs__bit_mask_operator"><rect fill="#F1F1F1" height="40" id="logic_arc_int__baselibs__bit_mask_operator" rx="2.5" ry="2.5" style="stroke:#181818;stroke-width:0.5;" width="334.6406" x="5855.5" y="158.5"/><ellipse cx="5870.5" cy="174.5" fill="#ADD1B2" rx="11" ry="11" style="stroke:#181818;stroke-width:1;"/><path d="M5873.4688,180.1406 Q5872.8906,180.4375 5872.25,180.5781 Q5871.6094,180.7344 5870.9063,180.7344 Q5868.4063,180.7344 5867.0781,179.0938 Q5865.7656,177.4375 5865.7656,174.3125 Q5865.7656,171.1875 5867.0781,169.5313 Q5868.4063,167.875 5870.9063,167.875 Q5871.6094,167.875 5872.25,168.0313 Q5872.9063,168.1875 5873.4688,168.4844 L5873.4688,171.2031 Q5872.8438,170.625 5872.25,170.3594 Q5871.6563,170.0781 5871.0313,170.0781 Q5869.6875,170.0781 5869,171.1563 Q5868.3125,172.2188 5868.3125,174.3125 Q5868.3125,176.4063 5869,177.4844 Q5869.6875,178.5469 5871.0313,178.5469 Q5871.6563,178.5469 5872.25,178.2813 Q5872.8438,178 5873.4688,177.4219 L5873.4688,180.1406 Z " fill="#000000"/><text fill="#000000" font-family="sans-serif" font-size="14" lengthAdjust="spacing" textLength="302.6406" x="5884.5" y="179.3467">logic_arc_int__baselibs__bit_mask_operator</text><line style="stroke:#181818;stroke-width:0.5;" x1="5856.5" x2="6189.1406" y1="190.5" y2="190.5"/></g><!--class logic_arc_int__baselibs__result--><g id="elem_logic_arc_int__baselibs__result"><rect fill="#F1F1F1" height="40" id="logic_arc_int__baselibs__result" rx="2.5" ry="2.5" style="stroke:#181818;stroke-width:0.5;" width="244.4609" x="3506" y="158.5"/><ellipse cx="3521" cy="174.5" fill="#ADD1B2" rx="11" ry="11" style="stroke:#181818;stroke-width:1;"/><path d="M3523.9688,180.1406 Q3523.3906,180.4375 3522.75,180.5781 Q3522.1094,180.7344 3521.4063,180.7344 Q3518.9063,180.7344 3517.5781,179.0938 Q3516.2656,177.4375 3516.2656,174.3125 Q3516.2656,171.1875 3517.5781,169.5313 Q3518.9063,167.875 3521.4063,167.875 Q3522.1094,167.875 3522.75,168.0313 Q3523.4063,168.1875 3523.9688,168.4844 L3523.9688,171.2031 Q3523.3438,170.625 3522.75,170.3594 Q3522.1563,170.0781 3521.5313,170.0781 Q3520.1875,170.0781 3519.5,171.1563 Q3518.8125,172.2188 3518.8125,174.3125 Q3518.8125,176.4063 3519.5,177.4844 Q3520.1875,178.5469 3521.5313,178.5469 Q3522.1563,178.5469 3522.75,178.2813 Q3523.3438,178 3523.9688,177.4219 L3523.9688,180.1406 Z " fill="#000000"/><text fill="#000000" font-family="sans-serif" font-size="14" lengthAdjust="spacing" textLength="212.4609" x="3535" y="179.3467">logic_arc_int__baselibs__result</text><line style="stroke:#181818;stroke-width:0.5;" x1="3507" x2="3749.4609" y1="190.5" y2="190.5"/></g><!--class logic_arc_int__baselibs__dynamic_array--><g id="elem_logic_arc_int__baselibs__dynamic_array"><rect fill="#F1F1F1" height="40" id="logic_arc_int__baselibs__dynamic_array" rx="2.5" ry="2.5" style="stroke:#181818;stroke-width:0.5;" width="308.3496" x="4463" y="158.5"/><ellipse cx="4478" cy="174.5" fill="#ADD1B2" rx="11" ry="11" style="stroke:#181818;stroke-width:1;"/><path d="M4480.9688,180.1406 Q4480.3906,180.4375 4479.75,180.5781 Q4479.1094,180.7344 4478.4063,180.7344 Q4475.9063,180.7344 4474.5781,179.0938 Q4473.2656,177.4375 4473.2656,174.3125 Q4473.2656,171.1875 4474.5781,169.5313 Q4475.9063,167.875 4478.4063,167.875 Q4479.1094,167.875 4479.75,168.0313 Q4480.4063,168.1875 4480.9688,168.4844 L4480.9688,171.2031 Q4480.3438,170.625 4479.75,170.3594 Q4479.1563,170.0781 4478.5313,170.0781 Q4477.1875,170.0781 4476.5,171.1563 Q4475.8125,172.2188 4475.8125,174.3125 Q4475.8125,176.4063 4476.5,177.4844 Q4477.1875,178.5469 4478.5313,178.5469 Q4479.1563,178.5469 4479.75,178.2813 Q4480.3438,178 4480.9688,177.4219 L4480.9688,180.1406 Z " fill="#000000"/><text fill="#000000" font-family="sans-serif" font-size="14" lengthAdjust="spacing" textLength="276.3496" x="4492" y="179.3467">logic_arc_int__baselibs__dynamic_array</text><line style="stroke:#181818;stroke-width:0.5;" x1="4464" x2="4770.3496" y1="190.5" y2="190.5"/></g><!--class logic_arc_int__baselibs__intrusive_list--><g id="elem_logic_arc_int__baselibs__intrusive_list"><rect fill="#F1F1F1" height="40" id="logic_arc_int__baselibs__intrusive_list" rx="2.5" ry="2.5" style="stroke:#181818;stroke-width:0.5;" width="293.0713" x="4806.5" y="158.5"/><ellipse cx="4821.5" cy="174.5" fill="#ADD1B2" rx="11" ry="11" style="stroke:#181818;stroke-width:1;"/><path d="M4824.4688,180.1406 Q4823.8906,180.4375 4823.25,180.5781 Q4822.6094,180.7344 4821.9063,180.7344 Q4819.4063,180.7344 4818.0781,179.0938 Q4816.7656,177.4375 4816.7656,174.3125 Q4816.7656,171.1875 4818.0781,169.5313 Q4819.4063,167.875 4821.9063,167.875 Q4822.6094,167.875 4823.25,168.0313 Q4823.9063,168.1875 4824.4688,168.4844 L4824.4688,171.2031 Q4823.8438,170.625 4823.25,170.3594 Q4822.6563,170.0781 4822.0313,170.0781 Q4820.6875,170.0781 4820,171.1563 Q4819.3125,172.2188 4819.3125,174.3125 Q4819.3125,176.4063 4820,177.4844 Q4820.6875,178.5469 4822.0313,178.5469 Q4822.6563,178.5469 4823.25,178.2813 Q4823.8438,178 4824.4688,177.4219 L4824.4688,180.1406 Z " fill="#000000"/><text fill="#000000" font-family="sans-serif" font-size="14" lengthAdjust="spacing" textLength="261.0713" x="4835.5" y="179.3467">logic_arc_int__baselibs__intrusive_list</text><line style="stroke:#181818;stroke-width:0.5;" x1="4807.5" x2="5098.5713" y1="190.5" y2="190.5"/></g><!--class comp_arc_sta__baselibs__message_passing--><g id="elem_comp_arc_sta__baselibs__message_passing"><rect fill="#F1F1F1" height="40" id="comp_arc_sta__baselibs__message_passing" rx="2.5" ry="2.5" style="stroke:#181818;stroke-width:0.5;" width="337.1357" x="5130.5" y="275.5"/><ellipse cx="5145.5" cy="291.5" fill="#ADD1B2" rx="11" ry="11" style="stroke:#181818;stroke-width:1;"/><path d="M5148.4688,297.1406 Q5147.8906,297.4375 5147.25,297.5781 Q5146.6094,297.7344 5145.9063,297.7344 Q5143.4063,297.7344 5142.0781,296.0938 Q5140.7656,294.4375 5140.7656,291.3125 Q5140.7656,288.1875 5142.0781,286.5313 Q5143.4063,284.875 5145.9063,284.875 Q5146.6094,284.875 5147.25,285.0313 Q5147.9063,285.1875 5148.4688,285.4844 L5148.4688,288.2031 Q5147.8438,287.625 5147.25,287.3594 Q5146.6563,287.0781 5146.0313,287.0781 Q5144.6875,287.0781 5144,288.1563 Q5143.3125,289.2188 5143.3125,291.3125 Q5143.3125,293.4063 5144,294.4844 Q5144.6875,295.5469 5146.0313,295.5469 Q5146.6563,295.5469 5147.25,295.2813 Q5147.8438,295 5148.4688,294.4219 L5148.4688,297.1406 Z " fill="#000000"/><text fill="#000000" font-family="sans-serif" font-size="14" lengthAdjust="spacing" textLength="305.1357" x="5159.5" y="296.3467">comp_arc_sta__baselibs__message_passing</text><line style="stroke:#181818;stroke-width:0.5;" x1="5131.5" x2="5466.6357" y1="307.5" y2="307.5"/></g><!--class logic_arc_int__baselibs__message_passing--><g id="elem_logic_arc_int__baselibs__message_passing"><rect fill="#F1F1F1" height="40" id="logic_arc_int__baselibs__message_passing" rx="2.5" ry="2.5" style="stroke:#181818;stroke-width:0.5;" width="328.167" x="5135" y="158.5"/><ellipse cx="5150" cy="174.5" fill="#ADD1B2" rx="11" ry="11" style="stroke:#181818;stroke-width:1;"/><path d="M5152.9688,180.1406 Q5152.3906,180.4375 5151.75,180.5781 Q5151.1094,180.7344 5150.4063,180.7344 Q5147.9063,180.7344 5146.5781,179.0938 Q5145.2656,177.4375 5145.2656,174.3125 Q5145.2656,171.1875 5146.5781,169.5313 Q5147.9063,167.875 5150.4063,167.875 Q5151.1094,167.875 5151.75,168.0313 Q5152.4063,168.1875 5152.9688,168.4844 L5152.9688,171.2031 Q5152.3438,170.625 5151.75,170.3594 Q5151.1563,170.0781 5150.5313,170.0781 Q5149.1875,170.0781 5148.5,171.1563 Q5147.8125,172.2188 5147.8125,174.3125 Q5147.8125,176.4063 5148.5,177.4844 Q5149.1875,178.5469 5150.5313,178.5469 Q5151.1563,178.5469 5151.75,178.2813 Q5152.3438,178 5152.9688,177.4219 L5152.9688,180.1406 Z " fill="#000000"/><text fill="#000000" font-family="sans-serif" font-size="14" lengthAdjust="spacing" textLength="296.167" x="5164" y="179.3467">logic_arc_int__baselibs__message_passing</text><line style="stroke:#181818;stroke-width:0.5;" x1="5136" x2="5462.167" y1="190.5" y2="190.5"/></g><!--class logic_arc_int__baselibs__shared_future--><g id="elem_logic_arc_int__baselibs__shared_future"><rect fill="#F1F1F1" height="40" id="logic_arc_int__baselibs__shared_future" rx="2.5" ry="2.5" style="stroke:#181818;stroke-width:0.5;" width="302.0811" x="3169" y="158.5"/><ellipse cx="3184" cy="174.5" fill="#ADD1B2" rx="11" ry="11" style="stroke:#181818;stroke-width:1;"/><path d="M3186.9688,180.1406 Q3186.3906,180.4375 3185.75,180.5781 Q3185.1094,180.7344 3184.4063,180.7344 Q3181.9063,180.7344 3180.5781,179.0938 Q3179.2656,177.4375 3179.2656,174.3125 Q3179.2656,171.1875 3180.5781,169.5313 Q3181.9063,167.875 3184.4063,167.875 Q3185.1094,167.875 3185.75,168.0313 Q3186.4063,168.1875 3186.9688,168.4844 L3186.9688,171.2031 Q3186.3438,170.625 3185.75,170.3594 Q3185.1563,170.0781 3184.5313,170.0781 Q3183.1875,170.0781 3182.5,171.1563 Q3181.8125,172.2188 3181.8125,174.3125 Q3181.8125,176.4063 3182.5,177.4844 Q3183.1875,178.5469 3184.5313,178.5469 Q3185.1563,178.5469 3185.75,178.2813 Q3186.3438,178 3186.9688,177.4219 L3186.9688,180.1406 Z " fill="#000000"/><text fill="#000000" font-family="sans-serif" font-size="14" lengthAdjust="spacing" textLength="270.0811" x="3198" y="179.3467">logic_arc_int__baselibs__shared_future</text><line style="stroke:#181818;stroke-width:0.5;" x1="3170" x2="3470.0811" y1="190.5" y2="190.5"/></g><!--class comp_arc_sta__baselibs__utils--><g id="elem_comp_arc_sta__baselibs__utils"><rect fill="#F1F1F1" height="40" id="comp_arc_sta__baselibs__utils" rx="2.5" ry="2.5" style="stroke:#181818;stroke-width:0.5;" width="242.9502" x="3990.5" y="275.5"/><ellipse cx="4005.5" cy="291.5" fill="#ADD1B2" rx="11" ry="11" style="stroke:#181818;stroke-width:1;"/><path d="M4008.4688,297.1406 Q4007.8906,297.4375 4007.25,297.5781 Q4006.6094,297.7344 4005.9063,297.7344 Q4003.4063,297.7344 4002.0781,296.0938 Q4000.7656,294.4375 4000.7656,291.3125 Q4000.7656,288.1875 4002.0781,286.5313 Q4003.4063,284.875 4005.9063,284.875 Q4006.6094,284.875 4007.25,285.0313 Q4007.9063,285.1875 4008.4688,285.4844 L4008.4688,288.2031 Q4007.8438,287.625 4007.25,287.3594 Q4006.6563,287.0781 4006.0313,287.0781 Q4004.6875,287.0781 4004,288.1563 Q4003.3125,289.2188 4003.3125,291.3125 Q4003.3125,293.4063 4004,294.4844 Q4004.6875,295.5469 4006.0313,295.5469 Q4006.6563,295.5469 4007.25,295.2813 Q4007.8438,295 4008.4688,294.4219 L4008.4688,297.1406 Z " fill="#000000"/><text fill="#000000" font-family="sans-serif" font-size="14" lengthAdjust="spacing" textLength="210.9502" x="4019.5" y="296.3467">comp_arc_sta__baselibs__utils</text><line style="stroke:#181818;stroke-width:0.5;" x1="3991.5" x2="4232.4502" y1="307.5" y2="307.5"/></g><!--class logic_arc_int__baselibs__utils_scoped_op--><g id="elem_logic_arc_int__baselibs__utils_scoped_op"><rect fill="#F1F1F1" height="40" id="logic_arc_int__baselibs__utils_scoped_op" rx="2.5" ry="2.5" style="stroke:#181818;stroke-width:0.5;" width="315.377" x="3785.5" y="158.5"/><ellipse cx="3800.5" cy="174.5" fill="#ADD1B2" rx="11" ry="11" style="stroke:#181818;stroke-width:1;"/><path d="M3803.4688,180.1406 Q3802.8906,180.4375 3802.25,180.5781 Q3801.6094,180.7344 3800.9063,180.7344 Q3798.4063,180.7344 3797.0781,179.0938 Q3795.7656,177.4375 3795.7656,174.3125 Q3795.7656,171.1875 3797.0781,169.5313 Q3798.4063,167.875 3800.9063,167.875 Q3801.6094,167.875 3802.25,168.0313 Q3802.9063,168.1875 3803.4688,168.4844 L3803.4688,171.2031 Q3802.8438,170.625 3802.25,170.3594 Q3801.6563,170.0781 3801.0313,170.0781 Q3799.6875,170.0781 3799,171.1563 Q3798.3125,172.2188 3798.3125,174.3125 Q3798.3125,176.4063 3799,177.4844 Q3799.6875,178.5469 3801.0313,178.5469 Q3801.6563,178.5469 3802.25,178.2813 Q3802.8438,178 3803.4688,177.4219 L3803.4688,180.1406 Z " fill="#000000"/><text fill="#000000" font-family="sans-serif" font-size="14" lengthAdjust="spacing" textLength="283.377" x="3814.5" y="179.3467">logic_arc_int__baselibs__utils_scoped_op</text><line style="stroke:#181818;stroke-width:0.5;" x1="3786.5" x2="4099.877" y1="190.5" y2="190.5"/></g><!--class comp_arc_sta__baselibs__containers--><g id="elem_comp_arc_sta__baselibs__containers"><rect fill="#F1F1F1" height="40" id="comp_arc_sta__baselibs__containers" rx="2.5" ry="2.5" style="stroke:#181818;stroke-width:0.5;" width="287.1445" x="4640.5" y="275.5"/><ellipse cx="4655.5" cy="291.5" fill="#ADD1B2" rx="11" ry="11" style="stroke:#181818;stroke-width:1;"/><path d="M4658.4688,297.1406 Q4657.8906,297.4375 4657.25,297.5781 Q4656.6094,297.7344 4655.9063,297.7344 Q4653.4063,297.7344 4652.0781,296.0938 Q4650.7656,294.4375 4650.7656,291.3125 Q4650.7656,288.1875 4652.0781,286.5313 Q4653.4063,284.875 4655.9063,284.875 Q4656.6094,284.875 4657.25,285.0313 Q4657.9063,285.1875 4658.4688,285.4844 L4658.4688,288.2031 Q4657.8438,287.625 4657.25,287.3594 Q4656.6563,287.0781 4656.0313,287.0781 Q4654.6875,287.0781 4654,288.1563 Q4653.3125,289.2188 4653.3125,291.3125 Q4653.3125,293.4063 4654,294.4844 Q4654.6875,295.5469 4656.0313,295.5469 Q4656.6563,295.5469 4657.25,295.2813 Q4657.8438,295 4658.4688,294.4219 L4658.4688,297.1406 Z " fill="#000000"/><text fill="#000000" font-family="sans-serif" font-size="14" lengthAdjust="spacing" textLength="255.1445" x="4669.5" y="296.3467">comp_arc_sta__baselibs__containers</text><line style="stroke:#181818;stroke-width:0.5;" x1="4641.5" x2="4926.6445" y1="307.5" y2="307.5"/></g><!--class logic_arc_int__baselibs__synchronized_queue--><g id="elem_logic_arc_int__baselibs__synchronized_queue"><rect fill="#F1F1F1" height="40" id="logic_arc_int__baselibs__synchronized_queue" rx="2.5" ry="2.5" style="stroke:#181818;stroke-width:0.5;" width="348.3604" x="953" y="158.5"/><ellipse cx="968" cy="174.5" fill="#ADD1B2" rx="11" ry="11" style="stroke:#181818;stroke-width:1;"/><path d="M970.9688,180.1406 Q970.3906,180.4375 969.75,180.5781 Q969.1094,180.7344 968.4063,180.7344 Q965.9063,180.7344 964.5781,179.0938 Q963.2656,177.4375 963.2656,174.3125 Q963.2656,171.1875 964.5781,169.5313 Q965.9063,167.875 968.4063,167.875 Q969.1094,167.875 969.75,168.0313 Q970.4063,168.1875 970.9688,168.4844 L970.9688,171.2031 Q970.3438,170.625 969.75,170.3594 Q969.1563,170.0781 968.5313,170.0781 Q967.1875,170.0781 966.5,171.1563 Q965.8125,172.2188 965.8125,174.3125 Q965.8125,176.4063 966.5,177.4844 Q967.1875,178.5469 968.5313,178.5469 Q969.1563,178.5469 969.75,178.2813 Q970.3438,178 970.9688,177.4219 L970.9688,180.1406 Z " fill="#000000"/><text fill="#000000" font-family="sans-serif" font-size="14" lengthAdjust="spacing" textLength="316.3604" x="982" y="179.3467">logic_arc_int__baselibs__synchronized_queue</text><line style="stroke:#181818;stroke-width:0.5;" x1="954" x2="1300.3604" y1="190.5" y2="190.5"/></g><!--class comp_arc_sta__baselibs__result--><g id="elem_comp_arc_sta__baselibs__result"><rect fill="#F1F1F1" height="40" id="comp_arc_sta__baselibs__result" rx="2.5" ry="2.5" style="stroke:#181818;stroke-width:0.5;" width="253.4297" x="3501.5" y="275.5"/><ellipse cx="3516.5" cy="291.5" fill="#ADD1B2" rx="11" ry="11" style="stroke:#181818;stroke-width:1;"/><path d="M3519.4688,297.1406 Q3518.8906,297.4375 3518.25,297.5781 Q3517.6094,297.7344 3516.9063,297.7344 Q3514.4063,297.7344 3513.0781,296.0938 Q3511.7656,294.4375 3511.7656,291.3125 Q3511.7656,288.1875 3513.0781,286.5313 Q3514.4063,284.875 3516.9063,284.875 Q3517.6094,284.875 3518.25,285.0313 Q3518.9063,285.1875 3519.4688,285.4844 L3519.4688,288.2031 Q3518.8438,287.625 3518.25,287.3594 Q3517.6563,287.0781 3517.0313,287.0781 Q3515.6875,287.0781 3515,288.1563 Q3514.3125,289.2188 3514.3125,291.3125 Q3514.3125,293.4063 3515,294.4844 Q3515.6875,295.5469 3517.0313,295.5469 Q3517.6563,295.5469 3518.25,295.2813 Q3518.8438,295 3519.4688,294.4219 L3519.4688,297.1406 Z " fill="#000000"/><text fill="#000000" font-family="sans-serif" font-size="14" lengthAdjust="spacing" textLength="221.4297" x="3530.5" y="296.3467">comp_arc_sta__baselibs__result</text><line style="stroke:#181818;stroke-width:0.5;" x1="3502.5" x2="3753.9297" y1="307.5" y2="307.5"/></g><!--class logic_arc_int__baselibs__filesystem--><g id="elem_logic_arc_int__baselibs__filesystem"><rect fill="#F1F1F1" height="40" id="logic_arc_int__baselibs__filesystem" rx="2.5" ry="2.5" style="stroke:#181818;stroke-width:0.5;" width="276.4805" x="642" y="158.5"/><ellipse cx="657" cy="174.5" fill="#ADD1B2" rx="11" ry="11" style="stroke:#181818;stroke-width:1;"/><path d="M659.9688,180.1406 Q659.3906,180.4375 658.75,180.5781 Q658.1094,180.7344 657.4063,180.7344 Q654.9063,180.7344 653.5781,179.0938 Q652.2656,177.4375 652.2656,174.3125 Q652.2656,171.1875 653.5781,169.5313 Q654.9063,167.875 657.4063,167.875 Q658.1094,167.875 658.75,168.0313 Q659.4063,168.1875 659.9688,168.4844 L659.9688,171.2031 Q659.3438,170.625 658.75,170.3594 Q658.1563,170.0781 657.5313,170.0781 Q656.1875,170.0781 655.5,171.1563 Q654.8125,172.2188 654.8125,174.3125 Q654.8125,176.4063 655.5,177.4844 Q656.1875,178.5469 657.5313,178.5469 Q658.1563,178.5469 658.75,178.2813 Q659.3438,178 659.9688,177.4219 L659.9688,180.1406 Z " fill="#000000"/><text fill="#000000" font-family="sans-serif" font-size="14" lengthAdjust="spacing" textLength="244.4805" x="671" y="179.3467">logic_arc_int__baselibs__filesystem</text><line style="stroke:#181818;stroke-width:0.5;" x1="643" x2="917.4805" y1="190.5" y2="190.5"/></g><!--class comp_arc_sta__baselibs__filesystem--><g id="elem_comp_arc_sta__baselibs__filesystem"><rect fill="#F1F1F1" height="40" id="comp_arc_sta__baselibs__filesystem" rx="2.5" ry="2.5" style="stroke:#181818;stroke-width:0.5;" width="285.4492" x="646.5" y="275.5"/><ellipse cx="661.5" cy="291.5" fill="#ADD1B2" rx="11" ry="11" style="stroke:#181818;stroke-width:1;"/><path d="M664.4688,297.1406 Q663.8906,297.4375 663.25,297.5781 Q662.6094,297.7344 661.9063,297.7344 Q659.4063,297.7344 658.0781,296.0938 Q656.7656,294.4375 656.7656,291.3125 Q656.7656,288.1875 658.0781,286.5313 Q659.4063,284.875 661.9063,284.875 Q662.6094,284.875 663.25,285.0313 Q663.9063,285.1875 664.4688,285.4844 L664.4688,288.2031 Q663.8438,287.625 663.25,287.3594 Q662.6563,287.0781 662.0313,287.0781 Q660.6875,287.0781 660,288.1563 Q659.3125,289.2188 659.3125,291.3125 Q659.3125,293.4063 660,294.4844 Q660.6875,295.5469 662.0313,295.5469 Q662.6563,295.5469 663.25,295.2813 Q663.8438,295 664.4688,294.4219 L664.4688,297.1406 Z " fill="#000000"/><text fill="#000000" font-family="sans-serif" font-size="14" lengthAdjust="spacing" textLength="253.4492" x="675.5" y="296.3467">comp_arc_sta__baselibs__filesystem</text><line style="stroke:#181818;stroke-width:0.5;" x1="647.5" x2="930.9492" y1="307.5" y2="307.5"/></g><!--class logic_arc_int__baselibs__task--><g id="elem_logic_arc_int__baselibs__task"><rect fill="#F1F1F1" height="40" id="logic_arc_int__baselibs__task" rx="2.5" ry="2.5" style="stroke:#181818;stroke-width:0.5;" width="234.0156" x="2900" y="158.5"/><ellipse cx="2915" cy="174.5" fill="#ADD1B2" rx="11" ry="11" style="stroke:#181818;stroke-width:1;"/><path d="M2917.9688,180.1406 Q2917.3906,180.4375 2916.75,180.5781 Q2916.1094,180.7344 2915.4063,180.7344 Q2912.9063,180.7344 2911.5781,179.0938 Q2910.2656,177.4375 2910.2656,174.3125 Q2910.2656,171.1875 2911.5781,169.5313 Q2912.9063,167.875 2915.4063,167.875 Q2916.1094,167.875 2916.75,168.0313 Q2917.4063,168.1875 2917.9688,168.4844 L2917.9688,171.2031 Q2917.3438,170.625 2916.75,170.3594 Q2916.1563,170.0781 2915.5313,170.0781 Q2914.1875,170.0781 2913.5,171.1563 Q2912.8125,172.2188 2912.8125,174.3125 Q2912.8125,176.4063 2913.5,177.4844 Q2914.1875,178.5469 2915.5313,178.5469 Q2916.1563,178.5469 2916.75,178.2813 Q2917.3438,178 2917.9688,177.4219 L2917.9688,180.1406 Z " fill="#000000"/><text fill="#000000" font-family="sans-serif" font-size="14" lengthAdjust="spacing" textLength="202.0156" x="2929" y="179.3467">logic_arc_int__baselibs__task</text><line style="stroke:#181818;stroke-width:0.5;" x1="2901" x2="3133.0156" y1="190.5" y2="190.5"/></g><!--class comp_arc_sta__baselibs__memory_shared--><g id="elem_comp_arc_sta__baselibs__memory_shared"><rect fill="#F1F1F1" height="40" id="comp_arc_sta__baselibs__memory_shared" rx="2.5" ry="2.5" style="stroke:#181818;stroke-width:0.5;" width="327.0117" x="284.5" y="275.5"/><ellipse cx="299.5" cy="291.5" fill="#ADD1B2" rx="11" ry="11" style="stroke:#181818;stroke-width:1;"/><path d="M302.4688,297.1406 Q301.8906,297.4375 301.25,297.5781 Q300.6094,297.7344 299.9063,297.7344 Q297.4063,297.7344 296.0781,296.0938 Q294.7656,294.4375 294.7656,291.3125 Q294.7656,288.1875 296.0781,286.5313 Q297.4063,284.875 299.9063,284.875 Q300.6094,284.875 301.25,285.0313 Q301.9063,285.1875 302.4688,285.4844 L302.4688,288.2031 Q301.8438,287.625 301.25,287.3594 Q300.6563,287.0781 300.0313,287.0781 Q298.6875,287.0781 298,288.1563 Q297.3125,289.2188 297.3125,291.3125 Q297.3125,293.4063 298,294.4844 Q298.6875,295.5469 300.0313,295.5469 Q300.6563,295.5469 301.25,295.2813 Q301.8438,295 302.4688,294.4219 L302.4688,297.1406 Z " fill="#000000"/><text fill="#000000" font-family="sans-serif" font-size="14" lengthAdjust="spacing" textLength="295.0117" x="313.5" y="296.3467">comp_arc_sta__baselibs__memory_shared</text><line style="stroke:#181818;stroke-width:0.5;" x1="285.5" x2="610.5117" y1="307.5" y2="307.5"/></g><!--class logic_arc_int__baselibs__promise--><g id="elem_logic_arc_int__baselibs__promise"><rect fill="#F1F1F1" height="40" id="logic_arc_int__baselibs__promise" rx="2.5" ry="2.5" style="stroke:#181818;stroke-width:0.5;" width="261.1885" x="1336.5" y="158.5"/><ellipse cx="1351.5" cy="174.5" fill="#ADD1B2" rx="11" ry="11" style="stroke:#181818;stroke-width:1;"/><path d="M1354.4688,180.1406 Q1353.8906,180.4375 1353.25,180.5781 Q1352.6094,180.7344 1351.9063,180.7344 Q1349.4063,180.7344 1348.0781,179.0938 Q1346.7656,177.4375 1346.7656,174.3125 Q1346.7656,171.1875 1348.0781,169.5313 Q1349.4063,167.875 1351.9063,167.875 Q1352.6094,167.875 1353.25,168.0313 Q1353.9063,168.1875 1354.4688,168.4844 L1354.4688,171.2031 Q1353.8438,170.625 1353.25,170.3594 Q1352.6563,170.0781 1352.0313,170.0781 Q1350.6875,170.0781 1350,171.1563 Q1349.3125,172.2188 1349.3125,174.3125 Q1349.3125,176.4063 1350,177.4844 Q1350.6875,178.5469 1352.0313,178.5469 Q1352.6563,178.5469 1353.25,178.2813 Q1353.8438,178 1354.4688,177.4219 L1354.4688,180.1406 Z " fill="#000000"/><text fill="#000000" font-family="sans-serif" font-size="14" lengthAdjust="spacing" textLength="229.1885" x="1365.5" y="179.3467">logic_arc_int__baselibs__promise</text><line style="stroke:#181818;stroke-width:0.5;" x1="1337.5" x2="1596.6885" y1="190.5" y2="190.5"/></g><!--class logic_arc_int__baselibs__json--><g id="elem_logic_arc_int__baselibs__json"><rect fill="#F1F1F1" height="40" id="logic_arc_int__baselibs__json" rx="2.5" ry="2.5" style="stroke:#181818;stroke-width:0.5;" width="233.168" x="16.5" y="158.5"/><ellipse cx="31.5" cy="174.5" fill="#ADD1B2" rx="11" ry="11" style="stroke:#181818;stroke-width:1;"/><path d="M34.4688,180.1406 Q33.8906,180.4375 33.25,180.5781 Q32.6094,180.7344 31.9063,180.7344 Q29.4063,180.7344 28.0781,179.0938 Q26.7656,177.4375 26.7656,174.3125 Q26.7656,171.1875 28.0781,169.5313 Q29.4063,167.875 31.9063,167.875 Q32.6094,167.875 33.25,168.0313 Q33.9063,168.1875 34.4688,168.4844 L34.4688,171.2031 Q33.8438,170.625 33.25,170.3594 Q32.6563,170.0781 32.0313,170.0781 Q30.6875,170.0781 30,171.1563 Q29.3125,172.2188 29.3125,174.3125 Q29.3125,176.4063 30,177.4844 Q30.6875,178.5469 32.0313,178.5469 Q32.6563,178.5469 33.25,178.2813 Q33.8438,178 34.4688,177.4219 L34.4688,180.1406 Z " fill="#000000"/><text fill="#000000" font-family="sans-serif" font-size="14" lengthAdjust="spacing" textLength="201.168" x="45.5" y="179.3467">logic_arc_int__baselibs__json</text><line style="stroke:#181818;stroke-width:0.5;" x1="17.5" x2="248.668" y1="190.5" y2="190.5"/></g><!--class comp_arc_sta__baselibs__json--><g id="elem_comp_arc_sta__baselibs__json"><rect fill="#F1F1F1" height="40" id="comp_arc_sta__baselibs__json" rx="2.5" ry="2.5" style="stroke:#181818;stroke-width:0.5;" width="242.1367" x="7" y="275.5"/><ellipse cx="22" cy="291.5" fill="#ADD1B2" rx="11" ry="11" style="stroke:#181818;stroke-width:1;"/><path d="M24.9688,297.1406 Q24.3906,297.4375 23.75,297.5781 Q23.1094,297.7344 22.4063,297.7344 Q19.9063,297.7344 18.5781,296.0938 Q17.2656,294.4375 17.2656,291.3125 Q17.2656,288.1875 18.5781,286.5313 Q19.9063,284.875 22.4063,284.875 Q23.1094,284.875 23.75,285.0313 Q24.4063,285.1875 24.9688,285.4844 L24.9688,288.2031 Q24.3438,287.625 23.75,287.3594 Q23.1563,287.0781 22.5313,287.0781 Q21.1875,287.0781 20.5,288.1563 Q19.8125,289.2188 19.8125,291.3125 Q19.8125,293.4063 20.5,294.4844 Q21.1875,295.5469 22.5313,295.5469 Q23.1563,295.5469 23.75,295.2813 Q24.3438,295 24.9688,294.4219 L24.9688,297.1406 Z " fill="#000000"/><text fill="#000000" font-family="sans-serif" font-size="14" lengthAdjust="spacing" textLength="210.1367" x="36" y="296.3467">comp_arc_sta__baselibs__json</text><line style="stroke:#181818;stroke-width:0.5;" x1="8" x2="248.1367" y1="307.5" y2="307.5"/></g><!--reverse link logic_arc_int__baselibs__condition_variable to comp_arc_sta__baselibs__concurrency--><g id="link_logic_arc_int__baselibs__condition_variable_comp_arc_sta__baselibs__concurrency"><path codeLine="15" d="M2355.8947,201.5901 C2316.2747,222.8801 2258.1,254.14 2218.58,275.38 " fill="transparent" id="logic_arc_int__baselibs__condition_variable-backto-comp_arc_sta__baselibs__concurrency" style="stroke:#181818;stroke-width:1;"/><polygon fill="#181818" points="2361.18,198.75,2351.3587,199.4866,2356.7756,201.1167,2355.1455,206.5336,2361.18,198.75" style="stroke:#181818;stroke-width:1;"/><text fill="#000000" font-family="sans-serif" font-size="13" lengthAdjust="spacing" textLength="76.9082" x="2304" y="241.5669">implements</text></g><!--reverse link logic_arc_int__baselibs__future to comp_arc_sta__baselibs__concurrency--><g id="link_logic_arc_int__baselibs__future_comp_arc_sta__baselibs__concurrency"><path codeLine="16" d="M2094.7467,203.0672 C2115.2367,224.2972 2143.85,253.94 2164.36,275.19 " fill="transparent" id="logic_arc_int__baselibs__future-backto-comp_arc_sta__baselibs__concurrency" style="stroke:#181818;stroke-width:1;"/><polygon fill="#181818" points="2090.58,198.75,2093.952,208.0036,2094.0523,202.3477,2099.7082,202.448,2090.58,198.75" style="stroke:#181818;stroke-width:1;"/><text fill="#000000" font-family="sans-serif" font-size="13" lengthAdjust="spacing" textLength="76.9082" x="2136" y="241.5669">implements</text></g><!--reverse link logic_arc_int__baselibs__task_result to comp_arc_sta__baselibs__concurrency--><g id="link_logic_arc_int__baselibs__task_result_comp_arc_sta__baselibs__concurrency"><path codeLine="17" d="M1846.9371,200.2404 C1922.8771,221.5404 2039.15,254.15 2115.02,275.43 " fill="transparent" id="logic_arc_int__baselibs__task_result-backto-comp_arc_sta__baselibs__concurrency" style="stroke:#181818;stroke-width:1;"/><polygon fill="#181818" points="1841.16,198.62,1848.7453,204.9019,1845.9742,199.9703,1850.9058,197.1992,1841.16,198.62" style="stroke:#181818;stroke-width:1;"/><text fill="#000000" font-family="sans-serif" font-size="13" lengthAdjust="spacing" textLength="76.9082" x="2004" y="241.5669">implements</text></g><!--reverse link logic_arc_int__baselibs__bit_manipulation to comp_arc_sta__baselibs__bit_manipulation--><g id="link_logic_arc_int__baselibs__bit_manipulation_comp_arc_sta__baselibs__bit_manipulation"><path codeLine="18" d="M5695.2336,201.9049 C5729.6736,223.1949 5779.72,254.14 5814.08,275.38 " fill="transparent" id="logic_arc_int__baselibs__bit_manipulation-backto-comp_arc_sta__baselibs__bit_manipulation" style="stroke:#181818;stroke-width:1;"/><polygon fill="#181818" points="5690.13,198.75,5695.6821,206.8848,5694.383,201.3791,5699.8886,200.08,5690.13,198.75" style="stroke:#181818;stroke-width:1;"/><text fill="#000000" font-family="sans-serif" font-size="13" lengthAdjust="spacing" textLength="76.9082" x="5765" y="241.5669">implements</text></g><!--link Feature_User to logic_arc_int__baselibs__executor--><g id="link_Feature_User_logic_arc_int__baselibs__executor"><path codeLine="19" d="M2971.84,65.57 C2917.06,91.14 2830.9574,131.3233 2778.2274,155.9233 " fill="transparent" id="Feature_User-to-logic_arc_int__baselibs__executor" style="stroke:#181818;stroke-width:1;"/><polygon fill="#181818" points="2772.79,158.46,2782.6372,158.2799,2777.3212,156.3461,2779.255,151.03,2772.79,158.46" style="stroke:#181818;stroke-width:1;"/><text fill="#000000" font-family="sans-serif" font-size="13" lengthAdjust="spacing" textLength="23.0103" x="2867" y="124.5669">use</text></g><!--link Feature_User to logic_arc_int__baselibs__utils_base64--><g id="link_Feature_User_logic_arc_int__baselibs__utils_base64"><path codeLine="20" d="M3062.12,48.97 C3212.19,63.89 3708.26,113.55 4118,158.5 C4123.84,159.14 4123.8369,159.1352 4129.8469,159.8052 " fill="transparent" id="Feature_User-to-logic_arc_int__baselibs__utils_base64" style="stroke:#181818;stroke-width:1;"/><polygon fill="#181818" points="4135.81,160.47,4127.3086,155.4975,4130.8408,159.916,4126.4222,163.4482,4135.81,160.47" style="stroke:#181818;stroke-width:1;"/><text fill="#000000" font-family="sans-serif" font-size="13" lengthAdjust="spacing" textLength="23.0103" x="3817" y="124.5669">use</text></g><!--link Feature_User to logic_arc_int__baselibs__memory_shared--><g id="link_Feature_User_logic_arc_int__baselibs__memory_shared"><path codeLine="21" d="M2971.88,45.76 C2774.12,51.37 1964.27,75.46 1300,111.5 C999.27,127.82 923.99,131.89 624,158.5 C618.49,158.99 618.8529,158.9301 613.1929,159.4701 " fill="transparent" id="Feature_User-to-logic_arc_int__baselibs__memory_shared" style="stroke:#181818;stroke-width:1;"/><polygon fill="#181818" points="607.22,160.04,616.5592,163.1671,612.1974,159.5651,615.7994,155.2033,607.22,160.04" style="stroke:#181818;stroke-width:1;"/><text fill="#000000" font-family="sans-serif" font-size="13" lengthAdjust="spacing" textLength="23.0103" x="1301" y="124.5669">use</text></g><!--reverse link logic_arc_int__baselibs__bit_mask_operator to comp_arc_sta__baselibs__bit_manipulation--><g id="link_logic_arc_int__baselibs__bit_mask_operator_comp_arc_sta__baselibs__bit_manipulation"><path codeLine="22" d="M5988.17,202.0055 C5955.21,223.2955 5907.47,254.14 5874.59,275.38 " fill="transparent" id="logic_arc_int__baselibs__bit_mask_operator-backto-comp_arc_sta__baselibs__bit_manipulation" style="stroke:#181818;stroke-width:1;"/><polygon fill="#181818" points="5993.21,198.75,5983.4797,200.2733,5989.01,201.4629,5987.8203,206.9933,5993.21,198.75" style="stroke:#181818;stroke-width:1;"/><text fill="#000000" font-family="sans-serif" font-size="13" lengthAdjust="spacing" textLength="76.9082" x="5946" y="241.5669">implements</text></g><!--link Feature_User to logic_arc_int__baselibs__result--><g id="link_Feature_User_logic_arc_int__baselibs__result"><path codeLine="23" d="M3062.43,54.39 C3163.58,76.41 3402.9673,128.5139 3534.8173,157.2139 " fill="transparent" id="Feature_User-to-logic_arc_int__baselibs__result" style="stroke:#181818;stroke-width:1;"/><polygon fill="#181818" points="3540.68,158.49,3532.7367,152.6673,3535.7944,157.4265,3531.0352,160.4843,3540.68,158.49" style="stroke:#181818;stroke-width:1;"/><text fill="#000000" font-family="sans-serif" font-size="13" lengthAdjust="spacing" textLength="23.0103" x="3397" y="124.5669">use</text></g><!--link Feature_User to logic_arc_int__baselibs__dynamic_array--><g id="link_Feature_User_logic_arc_int__baselibs__dynamic_array"><path codeLine="24" d="M3062.06,47.6 C3238.7,59.84 3900.93,106.74 4445,158.5 C4450.83,159.05 4450.7988,159.0528 4456.7988,159.6428 " fill="transparent" id="Feature_User-to-logic_arc_int__baselibs__dynamic_array" style="stroke:#181818;stroke-width:1;"/><polygon fill="#181818" points="4462.77,160.23,4454.2046,155.3684,4457.794,159.7407,4453.4218,163.33,4462.77,160.23" style="stroke:#181818;stroke-width:1;"/><text fill="#000000" font-family="sans-serif" font-size="13" lengthAdjust="spacing" textLength="23.0103" x="4094" y="124.5669">use</text></g><!--link Feature_User to logic_arc_int__baselibs__intrusive_list--><g id="link_Feature_User_logic_arc_int__baselibs__intrusive_list"><path codeLine="25" d="M3062.23,46.46 C3264.03,55.41 4102.35,94.71 4788,158.5 C4794.03,159.06 4794.2097,159.0639 4800.4197,159.6839 " fill="transparent" id="Feature_User-to-logic_arc_int__baselibs__intrusive_list" style="stroke:#181818;stroke-width:1;"/><polygon fill="#181818" points="4806.39,160.28,4797.8319,155.4057,4801.4147,159.7833,4797.0371,163.3661,4806.39,160.28" style="stroke:#181818;stroke-width:1;"/><text fill="#000000" font-family="sans-serif" font-size="13" lengthAdjust="spacing" textLength="23.0103" x="4402" y="124.5669">use</text></g><!--reverse link logic_arc_int__baselibs__message_passing to comp_arc_sta__baselibs__message_passing--><g id="link_logic_arc_int__baselibs__message_passing_comp_arc_sta__baselibs__message_passing"><path codeLine="26" d="M5299,204.75 C5299,225.98 5299,253.94 5299,275.19 " fill="transparent" id="logic_arc_int__baselibs__message_passing-backto-comp_arc_sta__baselibs__message_passing" style="stroke:#181818;stroke-width:1;"/><polygon fill="#181818" points="5299,198.75,5295,207.75,5299,203.75,5303,207.75,5299,198.75" style="stroke:#181818;stroke-width:1;"/><text fill="#000000" font-family="sans-serif" font-size="13" lengthAdjust="spacing" textLength="76.9082" x="5300" y="241.5669">implements</text></g><!--link Feature_User to logic_arc_int__baselibs__shared_future--><g id="link_Feature_User_logic_arc_int__baselibs__shared_future"><path codeLine="27" d="M3062.03,64.27 C3119.9,89.67 3214.166,131.0483 3271.186,156.0783 " fill="transparent" id="Feature_User-to-logic_arc_int__baselibs__shared_future" style="stroke:#181818;stroke-width:1;"/><polygon fill="#181818" points="3276.68,158.49,3270.0468,151.2098,3272.1017,156.4803,3266.8312,158.5351,3276.68,158.49" style="stroke:#181818;stroke-width:1;"/><text fill="#000000" font-family="sans-serif" font-size="13" lengthAdjust="spacing" textLength="23.0103" x="3206" y="124.5669">use</text></g><!--reverse link logic_arc_int__baselibs__utils_scoped_op to comp_arc_sta__baselibs__utils--><g id="link_logic_arc_int__baselibs__utils_scoped_op_comp_arc_sta__baselibs__utils"><path codeLine="28" d="M3976.2506,202.1252 C4007.5406,223.4152 4052.69,254.14 4083.9,275.38 " fill="transparent" id="logic_arc_int__baselibs__utils_scoped_op-backto-comp_arc_sta__baselibs__utils" style="stroke:#181818;stroke-width:1;"/><polygon fill="#181818" points="3971.29,198.75,3976.4808,207.1199,3975.4238,201.5627,3980.9811,200.5058,3971.29,198.75" style="stroke:#181818;stroke-width:1;"/><text fill="#000000" font-family="sans-serif" font-size="13" lengthAdjust="spacing" textLength="76.9082" x="4039" y="241.5669">implements</text></g><!--link Feature_User to logic_arc_int__baselibs__task_result--><g id="link_Feature_User_logic_arc_int__baselibs__task_result"><path codeLine="29" d="M2971.97,48.98 C2823.31,63.83 2334.62,113.05 1931,158.5 C1925.37,159.13 1925.5915,159.1116 1919.7915,159.7716 " fill="transparent" id="Feature_User-to-logic_arc_int__baselibs__task_result" style="stroke:#181818;stroke-width:1;"/><polygon fill="#181818" points="1913.83,160.45,1923.2245,163.4068,1918.7979,159.8847,1922.32,155.4581,1913.83,160.45" style="stroke:#181818;stroke-width:1;"/><text fill="#000000" font-family="sans-serif" font-size="13" lengthAdjust="spacing" textLength="23.0103" x="2350" y="124.5669">use</text></g><!--link Feature_User to logic_arc_int__baselibs__condition_variable--><g id="link_Feature_User_logic_arc_int__baselibs__condition_variable"><path codeLine="30" d="M2971.91,54.17 C2869.92,76.05 2625.8366,128.4117 2491.5666,157.2117 " fill="transparent" id="Feature_User-to-logic_arc_int__baselibs__condition_variable" style="stroke:#181818;stroke-width:1;"/><polygon fill="#181818" points="2485.7,158.47,2495.3387,160.4935,2490.5888,157.4214,2493.661,152.6714,2485.7,158.47" style="stroke:#181818;stroke-width:1;"/><text fill="#000000" font-family="sans-serif" font-size="13" lengthAdjust="spacing" textLength="23.0103" x="2690" y="124.5669">use</text></g><!--link Feature_User to logic_arc_int__baselibs__bit_mask_operator--><g id="link_Feature_User_logic_arc_int__baselibs__bit_mask_operator"><path codeLine="31" d="M3062.07,45.43 C3283.93,50.09 4282.17,72.36 5099,111.5 C5427.29,127.23 5509.46,131.35 5837,158.5 C5842.98,159 5843.103,158.9952 5849.253,159.5352 " fill="transparent" id="Feature_User-to-logic_arc_int__baselibs__bit_mask_operator" style="stroke:#181818;stroke-width:1;"/><polygon fill="#181818" points="5855.23,160.06,5846.6144,155.2881,5850.2492,159.6227,5845.9146,163.2575,5855.23,160.06" style="stroke:#181818;stroke-width:1;"/><text fill="#000000" font-family="sans-serif" font-size="13" lengthAdjust="spacing" textLength="23.0103" x="5433" y="124.5669">use</text></g><!--reverse link logic_arc_int__baselibs__dynamic_array to comp_arc_sta__baselibs__containers--><g id="link_logic_arc_int__baselibs__dynamic_array_comp_arc_sta__baselibs__containers"><path codeLine="32" d="M4649.8918,202.1527 C4680.8118,223.4427 4725.39,254.14 4756.24,275.38 " fill="transparent" id="logic_arc_int__baselibs__dynamic_array-backto-comp_arc_sta__baselibs__containers" style="stroke:#181818;stroke-width:1;"/><polygon fill="#181818" points="4644.95,198.75,4650.0943,207.1486,4649.0682,201.5856,4654.6312,200.5595,4644.95,198.75" style="stroke:#181818;stroke-width:1;"/><text fill="#000000" font-family="sans-serif" font-size="13" lengthAdjust="spacing" textLength="76.9082" x="4712" y="241.5669">implements</text></g><!--reverse link logic_arc_int__baselibs__intrusive_list to comp_arc_sta__baselibs__containers--><g id="link_logic_arc_int__baselibs__intrusive_list_comp_arc_sta__baselibs__containers"><path codeLine="33" d="M4919.7494,202.1252 C4888.4594,223.4152 4843.31,254.14 4812.1,275.38 " fill="transparent" id="logic_arc_int__baselibs__intrusive_list-backto-comp_arc_sta__baselibs__containers" style="stroke:#181818;stroke-width:1;"/><polygon fill="#181818" points="4924.71,198.75,4915.0189,200.5058,4920.5762,201.5627,4919.5192,207.1199,4924.71,198.75" style="stroke:#181818;stroke-width:1;"/><text fill="#000000" font-family="sans-serif" font-size="13" lengthAdjust="spacing" textLength="76.9082" x="4880" y="241.5669">implements</text></g><!--reverse link logic_arc_int__baselibs__synchronized_queue to comp_arc_sta__baselibs__concurrency--><g id="link_logic_arc_int__baselibs__synchronized_queue_comp_arc_sta__baselibs__concurrency"><path codeLine="34" d="M1285.9656,199.2488 C1397.5856,212.9088 1546.62,230.72 1683,245.5 C1800.39,258.22 1933.44,271.19 2032.77,280.59 " fill="transparent" id="logic_arc_int__baselibs__synchronized_queue-backto-comp_arc_sta__baselibs__concurrency" style="stroke:#181818;stroke-width:1;"/><polygon fill="#181818" points="1280.01,198.52,1288.4575,203.5836,1284.973,199.1274,1289.4292,195.6429,1280.01,198.52" style="stroke:#181818;stroke-width:1;"/><text fill="#000000" font-family="sans-serif" font-size="13" lengthAdjust="spacing" textLength="76.9082" x="1684" y="241.5669">implements</text></g><!--reverse link logic_arc_int__baselibs__result to comp_arc_sta__baselibs__result--><g id="link_logic_arc_int__baselibs__result_comp_arc_sta__baselibs__result"><path codeLine="35" d="M3628,204.75 C3628,225.98 3628,253.94 3628,275.19 " fill="transparent" id="logic_arc_int__baselibs__result-backto-comp_arc_sta__baselibs__result" style="stroke:#181818;stroke-width:1;"/><polygon fill="#181818" points="3628,198.75,3624,207.75,3628,203.75,3632,207.75,3628,198.75" style="stroke:#181818;stroke-width:1;"/><text fill="#000000" font-family="sans-serif" font-size="13" lengthAdjust="spacing" textLength="76.9082" x="3629" y="241.5669">implements</text></g><!--link Feature_User to logic_arc_int__baselibs__utils_scoped_op--><g id="link_Feature_User_logic_arc_int__baselibs__utils_scoped_op"><path codeLine="36" d="M3062.29,51 C3197.09,70.37 3593.5109,127.307 3804.5509,157.617 " fill="transparent" id="Feature_User-to-logic_arc_int__baselibs__utils_scoped_op" style="stroke:#181818;stroke-width:1;"/><polygon fill="#181818" points="3810.49,158.47,3802.1501,153.2312,3805.5408,157.7592,3801.0128,161.1499,3810.49,158.47" style="stroke:#181818;stroke-width:1;"/><text fill="#000000" font-family="sans-serif" font-size="13" lengthAdjust="spacing" textLength="23.0103" x="3592" y="124.5669">use</text></g><!--link Feature_User to logic_arc_int__baselibs__filesystem--><g id="link_Feature_User_logic_arc_int__baselibs__filesystem"><path codeLine="37" d="M2971.85,45.67 C2749.64,51.73 1750,82.12 935,158.5 C929.47,159.02 929.7992,158.9726 924.0992,159.5526 " fill="transparent" id="Feature_User-to-logic_arc_int__baselibs__filesystem" style="stroke:#181818;stroke-width:1;"/><polygon fill="#181818" points="918.13,160.16,927.4887,163.2284,923.1043,159.6538,926.6788,155.2695,918.13,160.16" style="stroke:#181818;stroke-width:1;"/><text fill="#000000" font-family="sans-serif" font-size="13" lengthAdjust="spacing" textLength="23.0103" x="1507" y="124.5669">use</text></g><!--reverse link logic_arc_int__baselibs__filesystem to comp_arc_sta__baselibs__filesystem--><g id="link_logic_arc_int__baselibs__filesystem_comp_arc_sta__baselibs__filesystem"><path codeLine="38" d="M781.9777,204.7317 C783.6377,225.9617 785.83,253.94 787.49,275.19 " fill="transparent" id="logic_arc_int__baselibs__filesystem-backto-comp_arc_sta__baselibs__filesystem" style="stroke:#181818;stroke-width:1;"/><polygon fill="#181818" points="781.51,198.75,778.2238,208.0344,781.8998,203.7348,786.1994,207.4108,781.51,198.75" style="stroke:#181818;stroke-width:1;"/><text fill="#000000" font-family="sans-serif" font-size="13" lengthAdjust="spacing" textLength="76.9082" x="787" y="241.5669">implements</text></g><!--link Feature_User to logic_arc_int__baselibs__message_passing--><g id="link_Feature_User_logic_arc_int__baselibs__message_passing"><path codeLine="39" d="M3062.15,45.87 C3285.44,52.9 4293.99,87.25 5117,158.5 C5122.86,159.01 5122.8349,158.9941 5128.8549,159.5441 " fill="transparent" id="Feature_User-to-logic_arc_int__baselibs__message_passing" style="stroke:#181818;stroke-width:1;"/><polygon fill="#181818" points="5134.83,160.09,5126.2313,155.2877,5129.8507,159.6351,5125.5034,163.2546,5134.83,160.09" style="stroke:#181818;stroke-width:1;"/><text fill="#000000" font-family="sans-serif" font-size="13" lengthAdjust="spacing" textLength="23.0103" x="4717" y="124.5669">use</text></g><!--reverse link logic_arc_int__baselibs__task to comp_arc_sta__baselibs__concurrency--><g id="link_logic_arc_int__baselibs__task_comp_arc_sta__baselibs__concurrency"><path codeLine="40" d="M2893.9906,198.7977 C2805.4106,212.5077 2686.62,230.46 2577,245.5 C2496.59,256.53 2406.79,267.78 2333.26,276.71 " fill="transparent" id="logic_arc_int__baselibs__task-backto-comp_arc_sta__baselibs__concurrency" style="stroke:#181818;stroke-width:1;"/><polygon fill="#181818" points="2899.92,197.88,2890.4141,195.3037,2894.9788,198.6448,2891.6377,203.2095,2899.92,197.88" style="stroke:#181818;stroke-width:1;"/><text fill="#000000" font-family="sans-serif" font-size="13" lengthAdjust="spacing" textLength="76.9082" x="2687" y="241.5669">implements</text></g><!--reverse link logic_arc_int__baselibs__executor to comp_arc_sta__baselibs__concurrency--><g id="link_logic_arc_int__baselibs__executor_comp_arc_sta__baselibs__concurrency"><path codeLine="41" d="M2635.1675,199.7802 C2533.5375,221.0702 2375.84,254.11 2274.14,275.41 " fill="transparent" id="logic_arc_int__baselibs__executor-backto-comp_arc_sta__baselibs__concurrency" style="stroke:#181818;stroke-width:1;"/><polygon fill="#181818" points="2641.04,198.55,2631.4111,196.4803,2636.1462,199.5752,2633.0513,204.3103,2641.04,198.55" style="stroke:#181818;stroke-width:1;"/><text fill="#000000" font-family="sans-serif" font-size="13" lengthAdjust="spacing" textLength="76.9082" x="2492" y="241.5669">implements</text></g><!--link Feature_User to logic_arc_int__baselibs__synchronized_queue--><g id="link_Feature_User_logic_arc_int__baselibs__synchronized_queue"><path codeLine="42" d="M2971.69,46.85 C2774.86,57.19 1974.59,100.77 1319,158.5 C1313.16,159.01 1313.1958,159.0113 1307.2058,159.5513 " fill="transparent" id="Feature_User-to-logic_arc_int__baselibs__synchronized_queue" style="stroke:#181818;stroke-width:1;"/><polygon fill="#181818" points="1301.23,160.09,1310.5528,163.2658,1306.2098,159.6411,1309.8345,155.2981,1301.23,160.09" style="stroke:#181818;stroke-width:1;"/><text fill="#000000" font-family="sans-serif" font-size="13" lengthAdjust="spacing" textLength="23.0103" x="1880" y="124.5669">use</text></g><!--reverse link logic_arc_int__baselibs__utils_base64 to comp_arc_sta__baselibs__utils--><g id="link_logic_arc_int__baselibs__utils_base64_comp_arc_sta__baselibs__utils"><path codeLine="43" d="M4248.5799,202.1113 C4217.0999,223.4013 4171.66,254.14 4140.26,275.38 " fill="transparent" id="logic_arc_int__baselibs__utils_base64-backto-comp_arc_sta__baselibs__utils" style="stroke:#181818;stroke-width:1;"/><polygon fill="#181818" points="4253.55,198.75,4243.854,200.4785,4249.4083,201.5511,4248.3357,207.1053,4253.55,198.75" style="stroke:#181818;stroke-width:1;"/><text fill="#000000" font-family="sans-serif" font-size="13" lengthAdjust="spacing" textLength="76.9082" x="4209" y="241.5669">implements</text></g><!--link Feature_User to logic_arc_int__baselibs__bit_manipulation--><g id="link_Feature_User_logic_arc_int__baselibs__bit_manipulation"><path codeLine="44" d="M3062.18,45.82 C3261.06,51.74 4078.46,76.98 4749,111.5 C5074.13,128.24 5155.62,130.87 5480,158.5 C5485.76,158.99 5485.6448,158.965 5491.5648,159.505 " fill="transparent" id="Feature_User-to-logic_arc_int__baselibs__bit_manipulation" style="stroke:#181818;stroke-width:1;"/><polygon fill="#181818" points="5497.54,160.05,5488.9406,155.249,5492.5607,159.5958,5488.2139,163.2159,5497.54,160.05" style="stroke:#181818;stroke-width:1;"/><text fill="#000000" font-family="sans-serif" font-size="13" lengthAdjust="spacing" textLength="23.0103" x="5067" y="124.5669">use</text></g><!--link Feature_User to logic_arc_int__baselibs__task--><g id="link_Feature_User_logic_arc_int__baselibs__task"><path codeLine="45" d="M3017,81.55 C3017,106.45 3017,132.26 3017,152.26 " fill="transparent" id="Feature_User-to-logic_arc_int__baselibs__task" style="stroke:#181818;stroke-width:1;"/><polygon fill="#181818" points="3017,158.26,3021,149.26,3017,153.26,3013,149.26,3017,158.26" style="stroke:#181818;stroke-width:1;"/><text fill="#000000" font-family="sans-serif" font-size="13" lengthAdjust="spacing" textLength="23.0103" x="3018" y="124.5669">use</text></g><!--reverse link logic_arc_int__baselibs__memory_shared to comp_arc_sta__baselibs__memory_shared--><g id="link_logic_arc_int__baselibs__memory_shared_comp_arc_sta__baselibs__memory_shared"><path codeLine="46" d="M448,204.75 C448,225.98 448,253.94 448,275.19 " fill="transparent" id="logic_arc_int__baselibs__memory_shared-backto-comp_arc_sta__baselibs__memory_shared" style="stroke:#181818;stroke-width:1;"/><polygon fill="#181818" points="448,198.75,444,207.75,448,203.75,452,207.75,448,198.75" style="stroke:#181818;stroke-width:1;"/><text fill="#000000" font-family="sans-serif" font-size="13" lengthAdjust="spacing" textLength="76.9082" x="449" y="241.5669">implements</text></g><!--reverse link logic_arc_int__baselibs__shared_future to comp_arc_sta__baselibs__concurrency--><g id="link_logic_arc_int__baselibs__shared_future_comp_arc_sta__baselibs__concurrency"><path codeLine="47" d="M3168.5481,199.2584 C3058.2081,213.3184 2908.68,231.59 2772,245.5 C2622.96,260.67 2452.34,274.47 2333.24,283.54 " fill="transparent" id="logic_arc_int__baselibs__shared_future-backto-comp_arc_sta__baselibs__concurrency" style="stroke:#181818;stroke-width:1;"/><polygon fill="#181818" points="3174.5,198.5,3165.0666,195.6697,3169.5401,199.132,3166.0778,203.6055,3174.5,198.5" style="stroke:#181818;stroke-width:1;"/><text fill="#000000" font-family="sans-serif" font-size="13" lengthAdjust="spacing" textLength="76.9082" x="2924" y="241.5669">implements</text></g><!--reverse link logic_arc_int__baselibs__promise to comp_arc_sta__baselibs__concurrency--><g id="link_logic_arc_int__baselibs__promise_comp_arc_sta__baselibs__concurrency"><path codeLine="48" d="M1586.9588,199.5235 C1667.1788,212.8535 1771.16,230 1868,245.5 C1930.98,255.58 2001.1,266.52 2059.16,275.49 " fill="transparent" id="logic_arc_int__baselibs__promise-backto-comp_arc_sta__baselibs__concurrency" style="stroke:#181818;stroke-width:1;"/><polygon fill="#181818" points="1581.04,198.54,1589.2626,203.9612,1585.9724,199.3596,1590.5739,196.0694,1581.04,198.54" style="stroke:#181818;stroke-width:1;"/><text fill="#000000" font-family="sans-serif" font-size="13" lengthAdjust="spacing" textLength="76.9082" x="1869" y="241.5669">implements</text></g><!--link Feature_User to logic_arc_int__baselibs__promise--><g id="link_Feature_User_logic_arc_int__baselibs__promise"><path codeLine="49" d="M2971.84,47.4 C2796.99,58.81 2147.81,102.67 1615,158.5 C1609.33,159.09 1609.502,159.0562 1603.662,159.7162 " fill="transparent" id="Feature_User-to-logic_arc_int__baselibs__promise" style="stroke:#181818;stroke-width:1;"/><polygon fill="#181818" points="1597.7,160.39,1607.0923,163.354,1602.6684,159.8285,1606.1939,155.4046,1597.7,160.39" style="stroke:#181818;stroke-width:1;"/><text fill="#000000" font-family="sans-serif" font-size="13" lengthAdjust="spacing" textLength="23.0103" x="2117" y="124.5669">use</text></g><!--link Feature_User to logic_arc_int__baselibs__future--><g id="link_Feature_User_logic_arc_int__baselibs__future"><path codeLine="50" d="M2971.74,50.87 C2832.64,70.45 2413.9514,129.3738 2201.5814,159.2638 " fill="transparent" id="Feature_User-to-logic_arc_int__baselibs__future" style="stroke:#181818;stroke-width:1;"/><polygon fill="#181818" points="2195.64,160.1,2205.1096,162.8066,2200.5912,159.4031,2203.9947,154.8847,2195.64,160.1" style="stroke:#181818;stroke-width:1;"/><text fill="#000000" font-family="sans-serif" font-size="13" lengthAdjust="spacing" textLength="23.0103" x="2518" y="124.5669">use</text></g><!--link Feature_User to logic_arc_int__baselibs__json--><g id="link_Feature_User_logic_arc_int__baselibs__json"><path codeLine="51" d="M2971.7,45.42 C2751.93,49.99 1774.76,71.69 975,111.5 C661.8,127.09 582.96,126.65 271,158.5 C264.02,159.21 262.819,159.3094 255.589,160.1594 " fill="transparent" id="Feature_User-to-logic_arc_int__baselibs__json" style="stroke:#181818;stroke-width:1;"/><polygon fill="#181818" points="249.63,160.86,259.0355,163.7818,254.5958,160.2762,258.1014,155.8365,249.63,160.86" style="stroke:#181818;stroke-width:1;"/><text fill="#000000" font-family="sans-serif" font-size="13" lengthAdjust="spacing" textLength="23.0103" x="976" y="124.5669">use</text></g><!--reverse link logic_arc_int__baselibs__json to comp_arc_sta__baselibs__json--><g id="link_logic_arc_int__baselibs__json_comp_arc_sta__baselibs__json"><path codeLine="52" d="M131.9002,204.7444 C130.9802,225.9744 129.76,253.94 128.84,275.19 " fill="transparent" id="logic_arc_int__baselibs__json-backto-comp_arc_sta__baselibs__json" style="stroke:#181818;stroke-width:1;"/><polygon fill="#181818" points="132.16,198.75,127.7741,207.5684,131.9435,203.7453,135.7666,207.9147,132.16,198.75" style="stroke:#181818;stroke-width:1;"/><text fill="#000000" font-family="sans-serif" font-size="13" lengthAdjust="spacing" textLength="76.9082" x="132" y="241.5669">implements</text></g><!--SRC=[hLLDRzim3BtxLmYzfnk6OOUYw6N0JZjkPu6MsOIhFZoHwkeD- -zJx3PDqYoA31zbavJ8z_WUM1j-QKTFvDUDX5v9K6qG2Kvr5D481Tzig4F5WX6333rEPtIz30f48hL9a9jRbi7YNNCDJBPLVvglvF5pi26gYDru-hOXy-2HMNsuVj_yRMxVFUSqO2J7NNr1a1HHVMUCLmfOFN_Gsm-gQKnmlOPeD0jetGAZfPQrDi6R52DwCwXLMjqf6zPanaZoSXJPqROh_GYHeBLueyZr5XrwORN03VTf- -AbgmhmWux8oSfbfLiIxS1Jdoni-otKFmu_lEG0XbLthX0-eKaPp1kL6Aioav3byVpfOtssGnVYe7a3cMtFwOlE9iy_z1XXx6tcS5u0h6sk6pouyLU4eJuz7sDYUaHjYQKm79Vt4zQeUs3Egb2OpL7qxCbCkEsMv-mBHw8KtZMHYKs6hCkupNxNmTxLplsKsDJME46-iyF9TmfahOsb2HrnwaAvkgpsCU6MrK8UlDd4uEbtnlPdmdIXsaum5egVqjXg4TlZNItUzsIHX-oshW3qQs39aFOgpkpgpPQNA5ZXQakpuzM0vahH2Nejf4SlvZRpPMzDkfPTqy0B-hzdf4NrFp3TXTVyq1AMBTx7u8XnDXIx_EhztdUuYhmVlCFxVzrlGmfjJrNsU_u7]--></g></svg>