<svg xmlns="http://www.w3.org/2000/svg" xmlns:xlink="http://www.w3.org/1999/xlink" contentStyleType="text/css" data-diagram-type="CLASS" height="322px" preserveAspectRatio="none" style="width:6205px;height:322px;background:#FFFFFF;" version="1.1" viewBox="0 0 6205 322" width="6205px" zoomAndPan="magnify"><defs/><g><!--entity Feature_User--><g id="elem_Feature_User"><ellipse cx="3174.6685" cy="14" fill="#F1F1F1" rx="8" ry="8" style="stroke:#181818;stroke-width:0.5;"/><path d="M3174.6685,22 L3174.6685,49 M3161.6685,30 L3187.6685,30 M3174.6685,49 L3161.6685,64 M3174.6685,49 L3187.6685,64 " fill="transparent" style="stroke:#181818;stroke-width:0.5;"/><text fill="#000000" font-family="sans-serif" font-size="14" lengthAdjust="spacing" textLength="90.3369" x="3129.5" y="78.4951">Feature User</text></g><!--class logic_arc_int__baselibs__synchronized_queue--><g id="elem_logic_arc_int__baselibs__synchronized_queue"><rect fill="#F1F1F1" height="40" id="logic_arc_int__baselibs__synchronized_queue" rx="2.5" ry="2.5" style="stroke:#181818;stroke-width:0.5;" width="348.3604" x="2624.5" y="158.5"/><ellipse cx="2639.5" cy="174.5" fill="#ADD1B2" rx="11" ry="11" style="stroke:#181818;stroke-width:1;"/><path d="M2642.4688,180.1406 Q2641.8906,180.4375 2641.25,180.5781 Q2640.6094,180.7344 2639.9063,180.7344 Q2637.4063,180.7344 2636.0781,179.0938 Q2634.7656,177.4375 2634.7656,174.3125 Q2634.7656,171.1875 2636.0781,169.5313 Q2637.4063,167.875 2639.9063,167.875 Q2640.6094,167.875 2641.25,168.0313 Q2641.9063,168.1875 2642.4688,168.4844 L2642.4688,171.2031 Q2641.8438,170.625 2641.25,170.3594 Q2640.6563,170.0781 2640.0313,170.0781 Q2638.6875,170.0781 2638,171.1563 Q2637.3125,172.2188 2637.3125,174.3125 Q2637.3125,176.4063 2638,177.4844 Q2638.6875,178.5469 2640.0313,178.5469 Q2640.6563,178.5469 2641.25,178.2813 Q2641.8438,178 2642.4688,177.4219 L2642.4688,180.1406 Z " fill="#000000"/><text fill="#000000" font-family="sans-serif" font-size="14" lengthAdjust="spacing" textLength="316.3604" x="2653.5" y="179.3467">logic_arc_int__baselibs__synchronized_queue</text><line style="stroke:#181818;stroke-width:0.5;" x1="2625.5" x2="2971.8604" y1="190.5" y2="190.5"/></g><!--class logic_arc_int__baselibs__executor--><g id="elem_logic_arc_int__baselibs__executor"><rect fill="#F1F1F1" height="40" id="logic_arc_int__baselibs__executor" rx="2.5" ry="2.5" style="stroke:#181818;stroke-width:0.5;" width="266.4385" x="2323.5" y="158.5"/><ellipse cx="2338.5" cy="174.5" fill="#ADD1B2" rx="11" ry="11" style="stroke:#181818;stroke-width:1;"/><path d="M2341.4688,180.1406 Q2340.8906,180.4375 2340.25,180.5781 Q2339.6094,180.7344 2338.9063,180.7344 Q2336.4063,180.7344 2335.0781,179.0938 Q2333.7656,177.4375 2333.7656,174.3125 Q2333.7656,171.1875 2335.0781,169.5313 Q2336.4063,167.875 2338.9063,167.875 Q2339.6094,167.875 2340.25,168.0313 Q2340.9063,168.1875 2341.4688,168.4844 L2341.4688,171.2031 Q2340.8438,170.625 2340.25,170.3594 Q2339.6563,170.0781 2339.0313,170.0781 Q2337.6875,170.0781 2337,171.1563 Q2336.3125,172.2188 2336.3125,174.3125 Q2336.3125,176.4063 2337,177.4844 Q2337.6875,178.5469 2339.0313,178.5469 Q2339.6563,178.5469 2340.25,178.2813 Q2340.8438,178 2341.4688,177.4219 L2341.4688,180.1406 Z " fill="#000000"/><text fill="#000000" font-family="sans-serif" font-size="14" lengthAdjust="spacing" textLength="234.4385" x="2352.5" y="179.3467">logic_arc_int__baselibs__executor</text><line style="stroke:#181818;stroke-width:0.5;" x1="2324.5" x2="2588.9385" y1="190.5" y2="190.5"/></g><!--class logic_arc_int__baselibs__future--><g id="elem_logic_arc_int__baselibs__future"><rect fill="#F1F1F1" height="40" id="logic_arc_int__baselibs__future" rx="2.5" ry="2.5" style="stroke:#181818;stroke-width:0.5;" width="247.0791" x="4279" y="158.5"/><ellipse cx="4294" cy="174.5" fill="#ADD1B2" rx="11" ry="11" style="stroke:#181818;stroke-width:1;"/><path d="M4296.9688,180.1406 Q4296.3906,180.4375 4295.75,180.5781 Q4295.1094,180.7344 4294.4063,180.7344 Q4291.9063,180.7344 4290.5781,179.0938 Q4289.2656,177.4375 4289.2656,174.3125 Q4289.2656,171.1875 4290.5781,169.5313 Q4291.9063,167.875 4294.4063,167.875 Q4295.1094,167.875 4295.75,168.0313 Q4296.4063,168.1875 4296.9688,168.4844 L4296.9688,171.2031 Q4296.3438,170.625 4295.75,170.3594 Q4295.1563,170.0781 4294.5313,170.0781 Q4293.1875,170.0781 4292.5,171.1563 Q4291.8125,172.2188 4291.8125,174.3125 Q4291.8125,176.4063 4292.5,177.4844 Q4293.1875,178.5469 4294.5313,178.5469 Q4295.1563,178.5469 4295.75,178.2813 Q4296.3438,178 4296.9688,177.4219 L4296.9688,180.1406 Z " fill="#000000"/><text fill="#000000" font-family="sans-serif" font-size="14" lengthAdjust="spacing" textLength="215.0791" x="4308" y="179.3467">logic_arc_int__baselibs__future</text><line style="stroke:#181818;stroke-width:0.5;" x1="4280" x2="4525.0791" y1="190.5" y2="190.5"/></g><!--class logic_arc_int__baselibs__json--><g id="elem_logic_arc_int__baselibs__json"><rect fill="#F1F1F1" height="40" id="logic_arc_int__baselibs__json" rx="2.5" ry="2.5" style="stroke:#181818;stroke-width:0.5;" width="233.168" x="2055" y="158.5"/><ellipse cx="2070" cy="174.5" fill="#ADD1B2" rx="11" ry="11" style="stroke:#181818;stroke-width:1;"/><path d="M2072.9688,180.1406 Q2072.3906,180.4375 2071.75,180.5781 Q2071.1094,180.7344 2070.4063,180.7344 Q2067.9063,180.7344 2066.5781,179.0938 Q2065.2656,177.4375 2065.2656,174.3125 Q2065.2656,171.1875 2066.5781,169.5313 Q2067.9063,167.875 2070.4063,167.875 Q2071.1094,167.875 2071.75,168.0313 Q2072.4063,168.1875 2072.9688,168.4844 L2072.9688,171.2031 Q2072.3438,170.625 2071.75,170.3594 Q2071.1563,170.0781 2070.5313,170.0781 Q2069.1875,170.0781 2068.5,171.1563 Q2067.8125,172.2188 2067.8125,174.3125 Q2067.8125,176.4063 2068.5,177.4844 Q2069.1875,178.5469 2070.5313,178.5469 Q2071.1563,178.5469 2071.75,178.2813 Q2072.3438,178 2072.9688,177.4219 L2072.9688,180.1406 Z " fill="#000000"/><text fill="#000000" font-family="sans-serif" font-size="14" lengthAdjust="spacing" textLength="201.168" x="2084" y="179.3467">logic_arc_int__baselibs__json</text><line style="stroke:#181818;stroke-width:0.5;" x1="2056" x2="2287.168" y1="190.5" y2="190.5"/></g><!--class comp_arc_sta__baselibs__concurrency--><g id="elem_comp_arc_sta__baselibs__concurrency"><rect fill="#F1F1F1" height="40" id="comp_arc_sta__baselibs__concurrency" rx="2.5" ry="2.5" style="stroke:#181818;stroke-width:0.5;" width="300.2012" x="3483.5" y="275.5"/><ellipse cx="3498.5" cy="291.5" fill="#ADD1B2" rx="11" ry="11" style="stroke:#181818;stroke-width:1;"/><path d="M3501.4688,297.1406 Q3500.8906,297.4375 3500.25,297.5781 Q3499.6094,297.7344 3498.9063,297.7344 Q3496.4063,297.7344 3495.0781,296.0938 Q3493.7656,294.4375 3493.7656,291.3125 Q3493.7656,288.1875 3495.0781,286.5313 Q3496.4063,284.875 3498.9063,284.875 Q3499.6094,284.875 3500.25,285.0313 Q3500.9063,285.1875 3501.4688,285.4844 L3501.4688,288.2031 Q3500.8438,287.625 3500.25,287.3594 Q3499.6563,287.0781 3499.0313,287.0781 Q3497.6875,287.0781 3497,288.1563 Q3496.3125,289.2188 3496.3125,291.3125 Q3496.3125,293.4063 3497,294.4844 Q3497.6875,295.5469 3499.0313,295.5469 Q3499.6563,295.5469 3500.25,295.2813 Q3500.8438,295 3501.4688,294.4219 L3501.4688,297.1406 Z " fill="#000000"/><text fill="#000000" font-family="sans-serif" font-size="14" lengthAdjust="spacing" textLength="268.2012" x="3512.5" y="296.3467">comp_arc_sta__baselibs__concurrency</text><line style="stroke:#181818;stroke-width:0.5;" x1="3484.5" x2="3782.7012" y1="307.5" y2="307.5"/></g><!--class logic_arc_int__baselibs__task_result--><g id="elem_logic_arc_int__baselibs__task_result"><rect fill="#F1F1F1" height="40" id="logic_arc_int__baselibs__task_result" rx="2.5" ry="2.5" style="stroke:#181818;stroke-width:0.5;" width="280.9307" x="4561" y="158.5"/><ellipse cx="4576" cy="174.5" fill="#ADD1B2" rx="11" ry="11" style="stroke:#181818;stroke-width:1;"/><path d="M4578.9688,180.1406 Q4578.3906,180.4375 4577.75,180.5781 Q4577.1094,180.7344 4576.4063,180.7344 Q4573.9063,180.7344 4572.5781,179.0938 Q4571.2656,177.4375 4571.2656,174.3125 Q4571.2656,171.1875 4572.5781,169.5313 Q4573.9063,167.875 4576.4063,167.875 Q4577.1094,167.875 4577.75,168.0313 Q4578.4063,168.1875 4578.9688,168.4844 L4578.9688,171.2031 Q4578.3438,170.625 4577.75,170.3594 Q4577.1563,170.0781 4576.5313,170.0781 Q4575.1875,170.0781 4574.5,171.1563 Q4573.8125,172.2188 4573.8125,174.3125 Q4573.8125,176.4063 4574.5,177.4844 Q4575.1875,178.5469 4576.5313,178.5469 Q4577.1563,178.5469 4577.75,178.2813 Q4578.3438,178 4578.9688,177.4219 L4578.9688,180.1406 Z " fill="#000000"/><text fill="#000000" font-family="sans-serif" font-size="14" lengthAdjust="spacing" textLength="248.9307" x="4590" y="179.3467">logic_arc_int__baselibs__task_result</text><line style="stroke:#181818;stroke-width:0.5;" x1="4562" x2="4840.9307" y1="190.5" y2="190.5"/></g><!--class comp_arc_sta__baselibs__utils--><g id="elem_comp_arc_sta__baselibs__utils"><rect fill="#F1F1F1" height="40" id="comp_arc_sta__baselibs__utils" rx="2.5" ry="2.5" style="stroke:#181818;stroke-width:0.5;" width="242.9502" x="1528" y="275.5"/><ellipse cx="1543" cy="291.5" fill="#ADD1B2" rx="11" ry="11" style="stroke:#181818;stroke-width:1;"/><path d="M1545.9688,297.1406 Q1545.3906,297.4375 1544.75,297.5781 Q1544.1094,297.7344 1543.4063,297.7344 Q1540.9063,297.7344 1539.5781,296.0938 Q1538.2656,294.4375 1538.2656,291.3125 Q1538.2656,288.1875 1539.5781,286.5313 Q1540.9063,284.875 1543.4063,284.875 Q1544.1094,284.875 1544.75,285.0313 Q1545.4063,285.1875 1545.9688,285.4844 L1545.9688,288.2031 Q1545.3438,287.625 1544.75,287.3594 Q1544.1563,287.0781 1543.5313,287.0781 Q1542.1875,287.0781 1541.5,288.1563 Q1540.8125,289.2188 1540.8125,291.3125 Q1540.8125,293.4063 1541.5,294.4844 Q1542.1875,295.5469 1543.5313,295.5469 Q1544.1563,295.5469 1544.75,295.2813 Q1545.3438,295 1545.9688,294.4219 L1545.9688,297.1406 Z " fill="#000000"/><text fill="#000000" font-family="sans-serif" font-size="14" lengthAdjust="spacing" textLength="210.9502" x="1557" y="296.3467">comp_arc_sta__baselibs__utils</text><line style="stroke:#181818;stroke-width:0.5;" x1="1529" x2="1769.9502" y1="307.5" y2="307.5"/></g><!--class logic_arc_int__baselibs__utils_base64--><g id="elem_logic_arc_int__baselibs__utils_base64"><rect fill="#F1F1F1" height="40" id="logic_arc_int__baselibs__utils_base64" rx="2.5" ry="2.5" style="stroke:#181818;stroke-width:0.5;" width="292.1689" x="1727.5" y="158.5"/><ellipse cx="1742.5" cy="174.5" fill="#ADD1B2" rx="11" ry="11" style="stroke:#181818;stroke-width:1;"/><path d="M1745.4688,180.1406 Q1744.8906,180.4375 1744.25,180.5781 Q1743.6094,180.7344 1742.9063,180.7344 Q1740.4063,180.7344 1739.0781,179.0938 Q1737.7656,177.4375 1737.7656,174.3125 Q1737.7656,171.1875 1739.0781,169.5313 Q1740.4063,167.875 1742.9063,167.875 Q1743.6094,167.875 1744.25,168.0313 Q1744.9063,168.1875 1745.4688,168.4844 L1745.4688,171.2031 Q1744.8438,170.625 1744.25,170.3594 Q1743.6563,170.0781 1743.0313,170.0781 Q1741.6875,170.0781 1741,171.1563 Q1740.3125,172.2188 1740.3125,174.3125 Q1740.3125,176.4063 1741,177.4844 Q1741.6875,178.5469 1743.0313,178.5469 Q1743.6563,178.5469 1744.25,178.2813 Q1744.8438,178 1745.4688,177.4219 L1745.4688,180.1406 Z " fill="#000000"/><text fill="#000000" font-family="sans-serif" font-size="14" lengthAdjust="spacing" textLength="260.1689" x="1756.5" y="179.3467">logic_arc_int__baselibs__utils_base64</text><line style="stroke:#181818;stroke-width:0.5;" x1="1728.5" x2="2018.6689" y1="190.5" y2="190.5"/></g><!--class logic_arc_int__baselibs__message_passing--><g id="elem_logic_arc_int__baselibs__message_passing"><rect fill="#F1F1F1" height="40" id="logic_arc_int__baselibs__message_passing" rx="2.5" ry="2.5" style="stroke:#181818;stroke-width:0.5;" width="328.167" x="5863.5" y="158.5"/><ellipse cx="5878.5" cy="174.5" fill="#ADD1B2" rx="11" ry="11" style="stroke:#181818;stroke-width:1;"/><path d="M5881.4688,180.1406 Q5880.8906,180.4375 5880.25,180.5781 Q5879.6094,180.7344 5878.9063,180.7344 Q5876.4063,180.7344 5875.0781,179.0938 Q5873.7656,177.4375 5873.7656,174.3125 Q5873.7656,171.1875 5875.0781,169.5313 Q5876.4063,167.875 5878.9063,167.875 Q5879.6094,167.875 5880.25,168.0313 Q5880.9063,168.1875 5881.4688,168.4844 L5881.4688,171.2031 Q5880.8438,170.625 5880.25,170.3594 Q5879.6563,170.0781 5879.0313,170.0781 Q5877.6875,170.0781 5877,171.1563 Q5876.3125,172.2188 5876.3125,174.3125 Q5876.3125,176.4063 5877,177.4844 Q5877.6875,178.5469 5879.0313,178.5469 Q5879.6563,178.5469 5880.25,178.2813 Q5880.8438,178 5881.4688,177.4219 L5881.4688,180.1406 Z " fill="#000000"/><text fill="#000000" font-family="sans-serif" font-size="14" lengthAdjust="spacing" textLength="296.167" x="5892.5" y="179.3467">logic_arc_int__baselibs__message_passing</text><line style="stroke:#181818;stroke-width:0.5;" x1="5864.5" x2="6190.667" y1="190.5" y2="190.5"/></g><!--class logic_arc_int__baselibs__utils_scoped_op--><g id="elem_logic_arc_int__baselibs__utils_scoped_op"><rect fill="#F1F1F1" height="40" id="logic_arc_int__baselibs__utils_scoped_op" rx="2.5" ry="2.5" style="stroke:#181818;stroke-width:0.5;" width="315.377" x="1377" y="158.5"/><ellipse cx="1392" cy="174.5" fill="#ADD1B2" rx="11" ry="11" style="stroke:#181818;stroke-width:1;"/><path d="M1394.9688,180.1406 Q1394.3906,180.4375 1393.75,180.5781 Q1393.1094,180.7344 1392.4063,180.7344 Q1389.9063,180.7344 1388.5781,179.0938 Q1387.2656,177.4375 1387.2656,174.3125 Q1387.2656,171.1875 1388.5781,169.5313 Q1389.9063,167.875 1392.4063,167.875 Q1393.1094,167.875 1393.75,168.0313 Q1394.4063,168.1875 1394.9688,168.4844 L1394.9688,171.2031 Q1394.3438,170.625 1393.75,170.3594 Q1393.1563,170.0781 1392.5313,170.0781 Q1391.1875,170.0781 1390.5,171.1563 Q1389.8125,172.2188 1389.8125,174.3125 Q1389.8125,176.4063 1390.5,177.4844 Q1391.1875,178.5469 1392.5313,178.5469 Q1393.1563,178.5469 1393.75,178.2813 Q1394.3438,178 1394.9688,177.4219 L1394.9688,180.1406 Z " fill="#000000"/><text fill="#000000" font-family="sans-serif" font-size="14" lengthAdjust="spacing" textLength="283.377" x="1406" y="179.3467">logic_arc_int__baselibs__utils_scoped_op</text><line style="stroke:#181818;stroke-width:0.5;" x1="1378" x2="1691.377" y1="190.5" y2="190.5"/></g><!--class logic_arc_int__baselibs__condition_variable--><g id="elem_logic_arc_int__baselibs__condition_variable"><rect fill="#F1F1F1" height="40" id="logic_arc_int__baselibs__condition_variable" rx="2.5" ry="2.5" style="stroke:#181818;stroke-width:0.5;" width="332.7539" x="3008" y="158.5"/><ellipse cx="3023" cy="174.5" fill="#ADD1B2" rx="11" ry="11" style="stroke:#181818;stroke-width:1;"/><path d="M3025.9688,180.1406 Q3025.3906,180.4375 3024.75,180.5781 Q3024.1094,180.7344 3023.4063,180.7344 Q3020.9063,180.7344 3019.5781,179.0938 Q3018.2656,177.4375 3018.2656,174.3125 Q3018.2656,171.1875 3019.5781,169.5313 Q3020.9063,167.875 3023.4063,167.875 Q3024.1094,167.875 3024.75,168.0313 Q3025.4063,168.1875 3025.9688,168.4844 L3025.9688,171.2031 Q3025.3438,170.625 3024.75,170.3594 Q3024.1563,170.0781 3023.5313,170.0781 Q3022.1875,170.0781 3021.5,171.1563 Q3020.8125,172.2188 3020.8125,174.3125 Q3020.8125,176.4063 3021.5,177.4844 Q3022.1875,178.5469 3023.5313,178.5469 Q3024.1563,178.5469 3024.75,178.2813 Q3025.3438,178 3025.9688,177.4219 L3025.9688,180.1406 Z " fill="#000000"/><text fill="#000000" font-family="sans-serif" font-size="14" lengthAdjust="spacing" textLength="300.7539" x="3037" y="179.3467">logic_arc_int__baselibs__condition_variable</text><line style="stroke:#181818;stroke-width:0.5;" x1="3009" x2="3339.7539" y1="190.5" y2="190.5"/></g><!--class comp_arc_sta__baselibs__containers--><g id="elem_comp_arc_sta__baselibs__containers"><rect fill="#F1F1F1" height="40" id="comp_arc_sta__baselibs__containers" rx="2.5" ry="2.5" style="stroke:#181818;stroke-width:0.5;" width="287.1445" x="5020" y="275.5"/><ellipse cx="5035" cy="291.5" fill="#ADD1B2" rx="11" ry="11" style="stroke:#181818;stroke-width:1;"/><path d="M5037.9688,297.1406 Q5037.3906,297.4375 5036.75,297.5781 Q5036.1094,297.7344 5035.4063,297.7344 Q5032.9063,297.7344 5031.5781,296.0938 Q5030.2656,294.4375 5030.2656,291.3125 Q5030.2656,288.1875 5031.5781,286.5313 Q5032.9063,284.875 5035.4063,284.875 Q5036.1094,284.875 5036.75,285.0313 Q5037.4063,285.1875 5037.9688,285.4844 L5037.9688,288.2031 Q5037.3438,287.625 5036.75,287.3594 Q5036.1563,287.0781 5035.5313,287.0781 Q5034.1875,287.0781 5033.5,288.1563 Q5032.8125,289.2188 5032.8125,291.3125 Q5032.8125,293.4063 5033.5,294.4844 Q5034.1875,295.5469 5035.5313,295.5469 Q5036.1563,295.5469 5036.75,295.2813 Q5037.3438,295 5037.9688,294.4219 L5037.9688,297.1406 Z " fill="#000000"/><text fill="#000000" font-family="sans-serif" font-size="14" lengthAdjust="spacing" textLength="255.1445" x="5049" y="296.3467">comp_arc_sta__baselibs__containers</text><line style="stroke:#181818;stroke-width:0.5;" x1="5021" x2="5306.1445" y1="307.5" y2="307.5"/></g><!--class logic_arc_int__baselibs__intrusive_list--><g id="elem_logic_arc_int__baselibs__intrusive_list"><rect fill="#F1F1F1" height="40" id="logic_arc_int__baselibs__intrusive_list" rx="2.5" ry="2.5" style="stroke:#181818;stroke-width:0.5;" width="293.0713" x="4877" y="158.5"/><ellipse cx="4892" cy="174.5" fill="#ADD1B2" rx="11" ry="11" style="stroke:#181818;stroke-width:1;"/><path d="M4894.9688,180.1406 Q4894.3906,180.4375 4893.75,180.5781 Q4893.1094,180.7344 4892.4063,180.7344 Q4889.9063,180.7344 4888.5781,179.0938 Q4887.2656,177.4375 4887.2656,174.3125 Q4887.2656,171.1875 4888.5781,169.5313 Q4889.9063,167.875 4892.4063,167.875 Q4893.1094,167.875 4893.75,168.0313 Q4894.4063,168.1875 4894.9688,168.4844 L4894.9688,171.2031 Q4894.3438,170.625 4893.75,170.3594 Q4893.1563,170.0781 4892.5313,170.0781 Q4891.1875,170.0781 4890.5,171.1563 Q4889.8125,172.2188 4889.8125,174.3125 Q4889.8125,176.4063 4890.5,177.4844 Q4891.1875,178.5469 4892.5313,178.5469 Q4893.1563,178.5469 4893.75,178.2813 Q4894.3438,178 4894.9688,177.4219 L4894.9688,180.1406 Z " fill="#000000"/><text fill="#000000" font-family="sans-serif" font-size="14" lengthAdjust="spacing" textLength="261.0713" x="4906" y="179.3467">logic_arc_int__baselibs__intrusive_list</text><line style="stroke:#181818;stroke-width:0.5;" x1="4878" x2="5169.0713" y1="190.5" y2="190.5"/></g><!--class comp_arc_sta__baselibs__message_passing--><g id="elem_comp_arc_sta__baselibs__message_passing"><rect fill="#F1F1F1" height="40" id="comp_arc_sta__baselibs__message_passing" rx="2.5" ry="2.5" style="stroke:#181818;stroke-width:0.5;" width="337.1357" x="5861" y="275.5"/><ellipse cx="5876" cy="291.5" fill="#ADD1B2" rx="11" ry="11" style="stroke:#181818;stroke-width:1;"/><path d="M5878.9688,297.1406 Q5878.3906,297.4375 5877.75,297.5781 Q5877.1094,297.7344 5876.4063,297.7344 Q5873.9063,297.7344 5872.5781,296.0938 Q5871.2656,294.4375 5871.2656,291.3125 Q5871.2656,288.1875 5872.5781,286.5313 Q5873.9063,284.875 5876.4063,284.875 Q5877.1094,284.875 5877.75,285.0313 Q5878.4063,285.1875 5878.9688,285.4844 L5878.9688,288.2031 Q5878.3438,287.625 5877.75,287.3594 Q5877.1563,287.0781 5876.5313,287.0781 Q5875.1875,287.0781 5874.5,288.1563 Q5873.8125,289.2188 5873.8125,291.3125 Q5873.8125,293.4063 5874.5,294.4844 Q5875.1875,295.5469 5876.5313,295.5469 Q5877.1563,295.5469 5877.75,295.2813 Q5878.3438,295 5878.9688,294.4219 L5878.9688,297.1406 Z " fill="#000000"/><text fill="#000000" font-family="sans-serif" font-size="14" lengthAdjust="spacing" textLength="305.1357" x="5890" y="296.3467">comp_arc_sta__baselibs__message_passing</text><line style="stroke:#181818;stroke-width:0.5;" x1="5862" x2="6197.1357" y1="307.5" y2="307.5"/></g><!--class logic_arc_int__baselibs__shared_future--><g id="elem_logic_arc_int__baselibs__shared_future"><rect fill="#F1F1F1" height="40" id="logic_arc_int__baselibs__shared_future" rx="2.5" ry="2.5" style="stroke:#181818;stroke-width:0.5;" width="302.0811" x="3376.5" y="158.5"/><ellipse cx="3391.5" cy="174.5" fill="#ADD1B2" rx="11" ry="11" style="stroke:#181818;stroke-width:1;"/><path d="M3394.4688,180.1406 Q3393.8906,180.4375 3393.25,180.5781 Q3392.6094,180.7344 3391.9063,180.7344 Q3389.4063,180.7344 3388.0781,179.0938 Q3386.7656,177.4375 3386.7656,174.3125 Q3386.7656,171.1875 3388.0781,169.5313 Q3389.4063,167.875 3391.9063,167.875 Q3392.6094,167.875 3393.25,168.0313 Q3393.9063,168.1875 3394.4688,168.4844 L3394.4688,171.2031 Q3393.8438,170.625 3393.25,170.3594 Q3392.6563,170.0781 3392.0313,170.0781 Q3390.6875,170.0781 3390,171.1563 Q3389.3125,172.2188 3389.3125,174.3125 Q3389.3125,176.4063 3390,177.4844 Q3390.6875,178.5469 3392.0313,178.5469 Q3392.6563,178.5469 3393.25,178.2813 Q3393.8438,178 3394.4688,177.4219 L3394.4688,180.1406 Z " fill="#000000"/><text fill="#000000" font-family="sans-serif" font-size="14" lengthAdjust="spacing" textLength="270.0811" x="3405.5" y="179.3467">logic_arc_int__baselibs__shared_future</text><line style="stroke:#181818;stroke-width:0.5;" x1="3377.5" x2="3677.5811" y1="190.5" y2="190.5"/></g><!--class logic_arc_int__baselibs__task--><g id="elem_logic_arc_int__baselibs__task"><rect fill="#F1F1F1" height="40" id="logic_arc_int__baselibs__task" rx="2.5" ry="2.5" style="stroke:#181818;stroke-width:0.5;" width="234.0156" x="3713.5" y="158.5"/><ellipse cx="3728.5" cy="174.5" fill="#ADD1B2" rx="11" ry="11" style="stroke:#181818;stroke-width:1;"/><path d="M3731.4688,180.1406 Q3730.8906,180.4375 3730.25,180.5781 Q3729.6094,180.7344 3728.9063,180.7344 Q3726.4063,180.7344 3725.0781,179.0938 Q3723.7656,177.4375 3723.7656,174.3125 Q3723.7656,171.1875 3725.0781,169.5313 Q3726.4063,167.875 3728.9063,167.875 Q3729.6094,167.875 3730.25,168.0313 Q3730.9063,168.1875 3731.4688,168.4844 L3731.4688,171.2031 Q3730.8438,170.625 3730.25,170.3594 Q3729.6563,170.0781 3729.0313,170.0781 Q3727.6875,170.0781 3727,171.1563 Q3726.3125,172.2188 3726.3125,174.3125 Q3726.3125,176.4063 3727,177.4844 Q3727.6875,178.5469 3729.0313,178.5469 Q3729.6563,178.5469 3730.25,178.2813 Q3730.8438,178 3731.4688,177.4219 L3731.4688,180.1406 Z " fill="#000000"/><text fill="#000000" font-family="sans-serif" font-size="14" lengthAdjust="spacing" textLength="202.0156" x="3742.5" y="179.3467">logic_arc_int__baselibs__task</text><line style="stroke:#181818;stroke-width:0.5;" x1="3714.5" x2="3946.5156" y1="190.5" y2="190.5"/></g><!--class logic_arc_int__baselibs__dynamic_array--><g id="elem_logic_arc_int__baselibs__dynamic_array"><rect fill="#F1F1F1" height="40" id="logic_arc_int__baselibs__dynamic_array" rx="2.5" ry="2.5" style="stroke:#181818;stroke-width:0.5;" width="308.3496" x="5205.5" y="158.5"/><ellipse cx="5220.5" cy="174.5" fill="#ADD1B2" rx="11" ry="11" style="stroke:#181818;stroke-width:1;"/><path d="M5223.4688,180.1406 Q5222.8906,180.4375 5222.25,180.5781 Q5221.6094,180.7344 5220.9063,180.7344 Q5218.4063,180.7344 5217.0781,179.0938 Q5215.7656,177.4375 5215.7656,174.3125 Q5215.7656,171.1875 5217.0781,169.5313 Q5218.4063,167.875 5220.9063,167.875 Q5221.6094,167.875 5222.25,168.0313 Q5222.9063,168.1875 5223.4688,168.4844 L5223.4688,171.2031 Q5222.8438,170.625 5222.25,170.3594 Q5221.6563,170.0781 5221.0313,170.0781 Q5219.6875,170.0781 5219,171.1563 Q5218.3125,172.2188 5218.3125,174.3125 Q5218.3125,176.4063 5219,177.4844 Q5219.6875,178.5469 5221.0313,178.5469 Q5221.6563,178.5469 5222.25,178.2813 Q5222.8438,178 5223.4688,177.4219 L5223.4688,180.1406 Z " fill="#000000"/><text fill="#000000" font-family="sans-serif" font-size="14" lengthAdjust="spacing" textLength="276.3496" x="5234.5" y="179.3467">logic_arc_int__baselibs__dynamic_array</text><line style="stroke:#181818;stroke-width:0.5;" x1="5206.5" x2="5512.8496" y1="190.5" y2="190.5"/></g><!--class comp_arc_sta__baselibs__filesystem--><g id="elem_comp_arc_sta__baselibs__filesystem"><rect fill="#F1F1F1" height="40" id="comp_arc_sta__baselibs__filesystem" rx="2.5" ry="2.5" style="stroke:#181818;stroke-width:0.5;" width="285.4492" x="5541" y="275.5"/><ellipse cx="5556" cy="291.5" fill="#ADD1B2" rx="11" ry="11" style="stroke:#181818;stroke-width:1;"/><path d="M5558.9688,297.1406 Q5558.3906,297.4375 5557.75,297.5781 Q5557.1094,297.7344 5556.4063,297.7344 Q5553.9063,297.7344 5552.5781,296.0938 Q5551.2656,294.4375 5551.2656,291.3125 Q5551.2656,288.1875 5552.5781,286.5313 Q5553.9063,284.875 5556.4063,284.875 Q5557.1094,284.875 5557.75,285.0313 Q5558.4063,285.1875 5558.9688,285.4844 L5558.9688,288.2031 Q5558.3438,287.625 5557.75,287.3594 Q5557.1563,287.0781 5556.5313,287.0781 Q5555.1875,287.0781 5554.5,288.1563 Q5553.8125,289.2188 5553.8125,291.3125 Q5553.8125,293.4063 5554.5,294.4844 Q5555.1875,295.5469 5556.5313,295.5469 Q5557.1563,295.5469 5557.75,295.2813 Q5558.3438,295 5558.9688,294.4219 L5558.9688,297.1406 Z " fill="#000000"/><text fill="#000000" font-family="sans-serif" font-size="14" lengthAdjust="spacing" textLength="253.4492" x="5570" y="296.3467">comp_arc_sta__baselibs__filesystem</text><line style="stroke:#181818;stroke-width:0.5;" x1="5542" x2="5825.4492" y1="307.5" y2="307.5"/></g><!--class logic_arc_int__baselibs__filesystem--><g id="elem_logic_arc_int__baselibs__filesystem"><rect fill="#F1F1F1" height="40" id="logic_arc_int__baselibs__filesystem" rx="2.5" ry="2.5" style="stroke:#181818;stroke-width:0.5;" width="276.4805" x="5548.5" y="158.5"/><ellipse cx="5563.5" cy="174.5" fill="#ADD1B2" rx="11" ry="11" style="stroke:#181818;stroke-width:1;"/><path d="M5566.4688,180.1406 Q5565.8906,180.4375 5565.25,180.5781 Q5564.6094,180.7344 5563.9063,180.7344 Q5561.4063,180.7344 5560.0781,179.0938 Q5558.7656,177.4375 5558.7656,174.3125 Q5558.7656,171.1875 5560.0781,169.5313 Q5561.4063,167.875 5563.9063,167.875 Q5564.6094,167.875 5565.25,168.0313 Q5565.9063,168.1875 5566.4688,168.4844 L5566.4688,171.2031 Q5565.8438,170.625 5565.25,170.3594 Q5564.6563,170.0781 5564.0313,170.0781 Q5562.6875,170.0781 5562,171.1563 Q5561.3125,172.2188 5561.3125,174.3125 Q5561.3125,176.4063 5562,177.4844 Q5562.6875,178.5469 5564.0313,178.5469 Q5564.6563,178.5469 5565.25,178.2813 Q5565.8438,178 5566.4688,177.4219 L5566.4688,180.1406 Z " fill="#000000"/><text fill="#000000" font-family="sans-serif" font-size="14" lengthAdjust="spacing" textLength="244.4805" x="5577.5" y="179.3467">logic_arc_int__baselibs__filesystem</text><line style="stroke:#181818;stroke-width:0.5;" x1="5549.5" x2="5823.9805" y1="190.5" y2="190.5"/></g><!--class comp_arc_sta__baselibs__json--><g id="elem_comp_arc_sta__baselibs__json"><rect fill="#F1F1F1" height="40" id="comp_arc_sta__baselibs__json" rx="2.5" ry="2.5" style="stroke:#181818;stroke-width:0.5;" width="242.1367" x="2050.5" y="275.5"/><ellipse cx="2065.5" cy="291.5" fill="#ADD1B2" rx="11" ry="11" style="stroke:#181818;stroke-width:1;"/><path d="M2068.4688,297.1406 Q2067.8906,297.4375 2067.25,297.5781 Q2066.6094,297.7344 2065.9063,297.7344 Q2063.4063,297.7344 2062.0781,296.0938 Q2060.7656,294.4375 2060.7656,291.3125 Q2060.7656,288.1875 2062.0781,286.5313 Q2063.4063,284.875 2065.9063,284.875 Q2066.6094,284.875 2067.25,285.0313 Q2067.9063,285.1875 2068.4688,285.4844 L2068.4688,288.2031 Q2067.8438,287.625 2067.25,287.3594 Q2066.6563,287.0781 2066.0313,287.0781 Q2064.6875,287.0781 2064,288.1563 Q2063.3125,289.2188 2063.3125,291.3125 Q2063.3125,293.4063 2064,294.4844 Q2064.6875,295.5469 2066.0313,295.5469 Q2066.6563,295.5469 2067.25,295.2813 Q2067.8438,295 2068.4688,294.4219 L2068.4688,297.1406 Z " fill="#000000"/><text fill="#000000" font-family="sans-serif" font-size="14" lengthAdjust="spacing" textLength="210.1367" x="2079.5" y="296.3467">comp_arc_sta__baselibs__json</text><line style="stroke:#181818;stroke-width:0.5;" x1="2051.5" x2="2291.6367" y1="307.5" y2="307.5"/></g><!--class comp_arc_sta__baselibs__bit_manipulation--><g id="elem_comp_arc_sta__baselibs__bit_manipulation"><rect fill="#F1F1F1" height="40" id="comp_arc_sta__baselibs__bit_manipulation" rx="2.5" ry="2.5" style="stroke:#181818;stroke-width:0.5;" width="330.8057" x="745" y="275.5"/><ellipse cx="760" cy="291.5" fill="#ADD1B2" rx="11" ry="11" style="stroke:#181818;stroke-width:1;"/><path d="M762.9688,297.1406 Q762.3906,297.4375 761.75,297.5781 Q761.1094,297.7344 760.4063,297.7344 Q757.9063,297.7344 756.5781,296.0938 Q755.2656,294.4375 755.2656,291.3125 Q755.2656,288.1875 756.5781,286.5313 Q757.9063,284.875 760.4063,284.875 Q761.1094,284.875 761.75,285.0313 Q762.4063,285.1875 762.9688,285.4844 L762.9688,288.2031 Q762.3438,287.625 761.75,287.3594 Q761.1563,287.0781 760.5313,287.0781 Q759.1875,287.0781 758.5,288.1563 Q757.8125,289.2188 757.8125,291.3125 Q757.8125,293.4063 758.5,294.4844 Q759.1875,295.5469 760.5313,295.5469 Q761.1563,295.5469 761.75,295.2813 Q762.3438,295 762.9688,294.4219 L762.9688,297.1406 Z " fill="#000000"/><text fill="#000000" font-family="sans-serif" font-size="14" lengthAdjust="spacing" textLength="298.8057" x="774" y="296.3467">comp_arc_sta__baselibs__bit_manipulation</text><line style="stroke:#181818;stroke-width:0.5;" x1="746" x2="1074.8057" y1="307.5" y2="307.5"/></g><!--class logic_arc_int__baselibs__bit_manipulation--><g id="elem_logic_arc_int__baselibs__bit_manipulation"><rect fill="#F1F1F1" height="40" id="logic_arc_int__baselibs__bit_manipulation" rx="2.5" ry="2.5" style="stroke:#181818;stroke-width:0.5;" width="321.8369" x="649.5" y="158.5"/><ellipse cx="664.5" cy="174.5" fill="#ADD1B2" rx="11" ry="11" style="stroke:#181818;stroke-width:1;"/><path d="M667.4688,180.1406 Q666.8906,180.4375 666.25,180.5781 Q665.6094,180.7344 664.9063,180.7344 Q662.4063,180.7344 661.0781,179.0938 Q659.7656,177.4375 659.7656,174.3125 Q659.7656,171.1875 661.0781,169.5313 Q662.4063,167.875 664.9063,167.875 Q665.6094,167.875 666.25,168.0313 Q666.9063,168.1875 667.4688,168.4844 L667.4688,171.2031 Q666.8438,170.625 666.25,170.3594 Q665.6563,170.0781 665.0313,170.0781 Q663.6875,170.0781 663,171.1563 Q662.3125,172.2188 662.3125,174.3125 Q662.3125,176.4063 663,177.4844 Q663.6875,178.5469 665.0313,178.5469 Q665.6563,178.5469 666.25,178.2813 Q666.8438,178 667.4688,177.4219 L667.4688,180.1406 Z " fill="#000000"/><text fill="#000000" font-family="sans-serif" font-size="14" lengthAdjust="spacing" textLength="289.8369" x="678.5" y="179.3467">logic_arc_int__baselibs__bit_manipulation</text><line style="stroke:#181818;stroke-width:0.5;" x1="650.5" x2="970.3369" y1="190.5" y2="190.5"/></g><!--class logic_arc_int__baselibs__memory_shared--><g id="elem_logic_arc_int__baselibs__memory_shared"><rect fill="#F1F1F1" height="40" id="logic_arc_int__baselibs__memory_shared" rx="2.5" ry="2.5" style="stroke:#181818;stroke-width:0.5;" width="318.043" x="15.5" y="158.5"/><ellipse cx="30.5" cy="174.5" fill="#ADD1B2" rx="11" ry="11" style="stroke:#181818;stroke-width:1;"/><path d="M33.4688,180.1406 Q32.8906,180.4375 32.25,180.5781 Q31.6094,180.7344 30.9063,180.7344 Q28.4063,180.7344 27.0781,179.0938 Q25.7656,177.4375 25.7656,174.3125 Q25.7656,171.1875 27.0781,169.5313 Q28.4063,167.875 30.9063,167.875 Q31.6094,167.875 32.25,168.0313 Q32.9063,168.1875 33.4688,168.4844 L33.4688,171.2031 Q32.8438,170.625 32.25,170.3594 Q31.6563,170.0781 31.0313,170.0781 Q29.6875,170.0781 29,171.1563 Q28.3125,172.2188 28.3125,174.3125 Q28.3125,176.4063 29,177.4844 Q29.6875,178.5469 31.0313,178.5469 Q31.6563,178.5469 32.25,178.2813 Q32.8438,178 33.4688,177.4219 L33.4688,180.1406 Z " fill="#000000"/><text fill="#000000" font-family="sans-serif" font-size="14" lengthAdjust="spacing" textLength="286.043" x="44.5" y="179.3467">logic_arc_int__baselibs__memory_shared</text><line style="stroke:#181818;stroke-width:0.5;" x1="16.5" x2="332.543" y1="190.5" y2="190.5"/></g><!--class logic_arc_int__baselibs__promise--><g id="elem_logic_arc_int__baselibs__promise"><rect fill="#F1F1F1" height="40" id="logic_arc_int__baselibs__promise" rx="2.5" ry="2.5" style="stroke:#181818;stroke-width:0.5;" width="261.1885" x="3983" y="158.5"/><ellipse cx="3998" cy="174.5" fill="#ADD1B2" rx="11" ry="11" style="stroke:#181818;stroke-width:1;"/><path d="M4000.9688,180.1406 Q4000.3906,180.4375 3999.75,180.5781 Q3999.1094,180.7344 3998.4063,180.7344 Q3995.9063,180.7344 3994.5781,179.0938 Q3993.2656,177.4375 3993.2656,174.3125 Q3993.2656,171.1875 3994.5781,169.5313 Q3995.9063,167.875 3998.4063,167.875 Q3999.1094,167.875 3999.75,168.0313 Q4000.4063,168.1875 4000.9688,168.4844 L4000.9688,171.2031 Q4000.3438,170.625 3999.75,170.3594 Q3999.1563,170.0781 3998.5313,170.0781 Q3997.1875,170.0781 3996.5,171.1563 Q3995.8125,172.2188 3995.8125,174.3125 Q3995.8125,176.4063 3996.5,177.4844 Q3997.1875,178.5469 3998.5313,178.5469 Q3999.1563,178.5469 3999.75,178.2813 Q4000.3438,178 4000.9688,177.4219 L4000.9688,180.1406 Z " fill="#000000"/><text fill="#000000" font-family="sans-serif" font-size="14" lengthAdjust="spacing" textLength="229.1885" x="4012" y="179.3467">logic_arc_int__baselibs__promise</text><line style="stroke:#181818;stroke-width:0.5;" x1="3984" x2="4243.1885" y1="190.5" y2="190.5"/></g><!--class logic_arc_int__baselibs__result--><g id="elem_logic_arc_int__baselibs__result"><rect fill="#F1F1F1" height="40" id="logic_arc_int__baselibs__result" rx="2.5" ry="2.5" style="stroke:#181818;stroke-width:0.5;" width="244.4609" x="370.5" y="158.5"/><ellipse cx="385.5" cy="174.5" fill="#ADD1B2" rx="11" ry="11" style="stroke:#181818;stroke-width:1;"/><path d="M388.4688,180.1406 Q387.8906,180.4375 387.25,180.5781 Q386.6094,180.7344 385.9063,180.7344 Q383.4063,180.7344 382.0781,179.0938 Q380.7656,177.4375 380.7656,174.3125 Q380.7656,171.1875 382.0781,169.5313 Q383.4063,167.875 385.9063,167.875 Q386.6094,167.875 387.25,168.0313 Q387.9063,168.1875 388.4688,168.4844 L388.4688,171.2031 Q387.8438,170.625 387.25,170.3594 Q386.6563,170.0781 386.0313,170.0781 Q384.6875,170.0781 384,171.1563 Q383.3125,172.2188 383.3125,174.3125 Q383.3125,176.4063 384,177.4844 Q384.6875,178.5469 386.0313,178.5469 Q386.6563,178.5469 387.25,178.2813 Q387.8438,178 388.4688,177.4219 L388.4688,180.1406 Z " fill="#000000"/><text fill="#000000" font-family="sans-serif" font-size="14" lengthAdjust="spacing" textLength="212.4609" x="399.5" y="179.3467">logic_arc_int__baselibs__result</text><line style="stroke:#181818;stroke-width:0.5;" x1="371.5" x2="613.9609" y1="190.5" y2="190.5"/></g><!--class comp_arc_sta__baselibs__result--><g id="elem_comp_arc_sta__baselibs__result"><rect fill="#F1F1F1" height="40" id="comp_arc_sta__baselibs__result" rx="2.5" ry="2.5" style="stroke:#181818;stroke-width:0.5;" width="253.4297" x="369" y="275.5"/><ellipse cx="384" cy="291.5" fill="#ADD1B2" rx="11" ry="11" style="stroke:#181818;stroke-width:1;"/><path d="M386.9688,297.1406 Q386.3906,297.4375 385.75,297.5781 Q385.1094,297.7344 384.4063,297.7344 Q381.9063,297.7344 380.5781,296.0938 Q379.2656,294.4375 379.2656,291.3125 Q379.2656,288.1875 380.5781,286.5313 Q381.9063,284.875 384.4063,284.875 Q385.1094,284.875 385.75,285.0313 Q386.4063,285.1875 386.9688,285.4844 L386.9688,288.2031 Q386.3438,287.625 385.75,287.3594 Q385.1563,287.0781 384.5313,287.0781 Q383.1875,287.0781 382.5,288.1563 Q381.8125,289.2188 381.8125,291.3125 Q381.8125,293.4063 382.5,294.4844 Q383.1875,295.5469 384.5313,295.5469 Q385.1563,295.5469 385.75,295.2813 Q386.3438,295 386.9688,294.4219 L386.9688,297.1406 Z " fill="#000000"/><text fill="#000000" font-family="sans-serif" font-size="14" lengthAdjust="spacing" textLength="221.4297" x="398" y="296.3467">comp_arc_sta__baselibs__result</text><line style="stroke:#181818;stroke-width:0.5;" x1="370" x2="621.4297" y1="307.5" y2="307.5"/></g><!--class comp_arc_sta__baselibs__memory_shared--><g id="elem_comp_arc_sta__baselibs__memory_shared"><rect fill="#F1F1F1" height="40" id="comp_arc_sta__baselibs__memory_shared" rx="2.5" ry="2.5" style="stroke:#181818;stroke-width:0.5;" width="327.0117" x="7" y="275.5"/><ellipse cx="22" cy="291.5" fill="#ADD1B2" rx="11" ry="11" style="stroke:#181818;stroke-width:1;"/><path d="M24.9688,297.1406 Q24.3906,297.4375 23.75,297.5781 Q23.1094,297.7344 22.4063,297.7344 Q19.9063,297.7344 18.5781,296.0938 Q17.2656,294.4375 17.2656,291.3125 Q17.2656,288.1875 18.5781,286.5313 Q19.9063,284.875 22.4063,284.875 Q23.1094,284.875 23.75,285.0313 Q24.4063,285.1875 24.9688,285.4844 L24.9688,288.2031 Q24.3438,287.625 23.75,287.3594 Q23.1563,287.0781 22.5313,287.0781 Q21.1875,287.0781 20.5,288.1563 Q19.8125,289.2188 19.8125,291.3125 Q19.8125,293.4063 20.5,294.4844 Q21.1875,295.5469 22.5313,295.5469 Q23.1563,295.5469 23.75,295.2813 Q24.3438,295 24.9688,294.4219 L24.9688,297.1406 Z " fill="#000000"/><text fill="#000000" font-family="sans-serif" font-size="14" lengthAdjust="spacing" textLength="295.0117" x="36" y="296.3467">comp_arc_sta__baselibs__memory_shared</text><line style="stroke:#181818;stroke-width:0.5;" x1="8" x2="333.0117" y1="307.5" y2="307.5"/></g><!--class logic_arc_int__baselibs__bit_mask_operator--><g id="elem_logic_arc_int__baselibs__bit_mask_operator"><rect fill="#F1F1F1" height="40" id="logic_arc_int__baselibs__bit_mask_operator" rx="2.5" ry="2.5" style="stroke:#181818;stroke-width:0.5;" width="334.6406" x="1007" y="158.5"/><ellipse cx="1022" cy="174.5" fill="#ADD1B2" rx="11" ry="11" style="stroke:#181818;stroke-width:1;"/><path d="M1024.9688,180.1406 Q1024.3906,180.4375 1023.75,180.5781 Q1023.1094,180.7344 1022.4063,180.7344 Q1019.9063,180.7344 1018.5781,179.0938 Q1017.2656,177.4375 1017.2656,174.3125 Q1017.2656,171.1875 1018.5781,169.5313 Q1019.9063,167.875 1022.4063,167.875 Q1023.1094,167.875 1023.75,168.0313 Q1024.4063,168.1875 1024.9688,168.4844 L1024.9688,171.2031 Q1024.3438,170.625 1023.75,170.3594 Q1023.1563,170.0781 1022.5313,170.0781 Q1021.1875,170.0781 1020.5,171.1563 Q1019.8125,172.2188 1019.8125,174.3125 Q1019.8125,176.4063 1020.5,177.4844 Q1021.1875,178.5469 1022.5313,178.5469 Q1023.1563,178.5469 1023.75,178.2813 Q1024.3438,178 1024.9688,177.4219 L1024.9688,180.1406 Z " fill="#000000"/><text fill="#000000" font-family="sans-serif" font-size="14" lengthAdjust="spacing" textLength="302.6406" x="1036" y="179.3467">logic_arc_int__baselibs__bit_mask_operator</text><line style="stroke:#181818;stroke-width:0.5;" x1="1008" x2="1340.6406" y1="190.5" y2="190.5"/></g><!--link Feature_User to logic_arc_int__baselibs__synchronized_queue--><g id="link_Feature_User_logic_arc_int__baselibs__synchronized_queue"><path codeLine="15" d="M3129.15,60.54 C3059.61,85.14 2932.5767,130.0796 2858.1767,156.3896 " fill="transparent" id="Feature_User-to-logic_arc_int__baselibs__synchronized_queue" style="stroke:#181818;stroke-width:1;"/><polygon fill="#181818" points="2852.52,158.39,2862.3387,159.1606,2857.2339,156.723,2859.6715,151.6183,2852.52,158.39" style="stroke:#181818;stroke-width:1;"/><text fill="#000000" font-family="sans-serif" font-size="13" lengthAdjust="spacing" textLength="23.0103" x="2975.5" y="124.5669">use</text></g><!--link Feature_User to logic_arc_int__baselibs__executor--><g id="link_Feature_User_logic_arc_int__baselibs__executor"><path codeLine="16" d="M3129.31,52.87 C3016.1,73.84 2723.9596,127.9571 2565.2596,157.3571 " fill="transparent" id="Feature_User-to-logic_arc_int__baselibs__executor" style="stroke:#181818;stroke-width:1;"/><polygon fill="#181818" points="2559.36,158.45,2568.9381,160.7437,2564.2763,157.5392,2567.4808,152.8775,2559.36,158.45" style="stroke:#181818;stroke-width:1;"/><text fill="#000000" font-family="sans-serif" font-size="13" lengthAdjust="spacing" textLength="23.0103" x="2794.5" y="124.5669">use</text></g><!--link Feature_User to logic_arc_int__baselibs__future--><g id="link_Feature_User_logic_arc_int__baselibs__future"><path codeLine="17" d="M3219.59,48.75 C3368.48,62.88 3857.85,110.15 4261.5,158.5 C4267.14,159.18 4266.9566,159.1333 4272.7766,159.8633 " fill="transparent" id="Feature_User-to-logic_arc_int__baselibs__future" style="stroke:#181818;stroke-width:1;"/><polygon fill="#181818" points="4278.73,160.61,4270.2978,155.521,4273.7689,159.9877,4269.3022,163.4588,4278.73,160.61" style="stroke:#181818;stroke-width:1;"/><text fill="#000000" font-family="sans-serif" font-size="13" lengthAdjust="spacing" textLength="23.0103" x="3993.5" y="124.5669">use</text></g><!--link Feature_User to logic_arc_int__baselibs__json--><g id="link_Feature_User_logic_arc_int__baselibs__json"><path codeLine="18" d="M3129.24,50.27 C3000.4,66.73 2620.59,115.49 2305.5,158.5 C2299.8,159.28 2299.9029,159.254 2294.0029,160.074 " fill="transparent" id="Feature_User-to-logic_arc_int__baselibs__json" style="stroke:#181818;stroke-width:1;"/><polygon fill="#181818" points="2288.06,160.9,2297.525,163.623,2293.0124,160.2117,2296.4237,155.6991,2288.06,160.9" style="stroke:#181818;stroke-width:1;"/><text fill="#000000" font-family="sans-serif" font-size="13" lengthAdjust="spacing" textLength="23.0103" x="2641.5" y="124.5669">use</text></g><!--reverse link logic_arc_int__baselibs__executor to comp_arc_sta__baselibs__concurrency--><g id="link_logic_arc_int__baselibs__executor_comp_arc_sta__baselibs__concurrency"><path codeLine="19" d="M2595.7481,197.2778 C2601.3881,197.9478 2601.02,197.88 2606.5,198.5 C2917.68,233.66 3282.95,265.58 3483.21,282.28 " fill="transparent" id="logic_arc_int__baselibs__executor-backto-comp_arc_sta__baselibs__concurrency" style="stroke:#181818;stroke-width:1;"/><polygon fill="#181818" points="2589.79,196.57,2598.2553,201.6038,2594.7551,197.1598,2599.199,193.6596,2589.79,196.57" style="stroke:#181818;stroke-width:1;"/><text fill="#000000" font-family="sans-serif" font-size="13" lengthAdjust="spacing" textLength="76.9082" x="3057.5" y="241.5669">implements</text></g><!--reverse link logic_arc_int__baselibs__task_result to comp_arc_sta__baselibs__concurrency--><g id="link_logic_arc_int__baselibs__task_result_comp_arc_sta__baselibs__concurrency"><path codeLine="20" d="M4554.7815,199.2945 C4448.9315,213.2545 4306.24,231.39 4175.5,245.5 C4043.29,259.77 3892.62,273.16 3783.75,282.32 " fill="transparent" id="logic_arc_int__baselibs__task_result-backto-comp_arc_sta__baselibs__concurrency" style="stroke:#181818;stroke-width:1;"/><polygon fill="#181818" points="4560.73,198.51,4551.2843,195.7211,4555.7729,199.1638,4552.3303,203.6524,4560.73,198.51" style="stroke:#181818;stroke-width:1;"/><text fill="#000000" font-family="sans-serif" font-size="13" lengthAdjust="spacing" textLength="76.9082" x="4320.5" y="241.5669">implements</text></g><!--reverse link logic_arc_int__baselibs__utils_base64 to comp_arc_sta__baselibs__utils--><g id="link_logic_arc_int__baselibs__utils_base64_comp_arc_sta__baselibs__utils"><path codeLine="21" d="M1830.9223,201.3603 C1789.4923,222.6303 1728.29,254.05 1686.83,275.34 " fill="transparent" id="logic_arc_int__baselibs__utils_base64-backto-comp_arc_sta__baselibs__utils" style="stroke:#181818;stroke-width:1;"/><polygon fill="#181818" points="1836.26,198.62,1826.4266,199.1721,1831.812,200.9036,1830.0804,206.2889,1836.26,198.62" style="stroke:#181818;stroke-width:1;"/><text fill="#000000" font-family="sans-serif" font-size="13" lengthAdjust="spacing" textLength="76.9082" x="1776.5" y="241.5669">implements</text></g><!--link Feature_User to logic_arc_int__baselibs__message_passing--><g id="link_Feature_User_logic_arc_int__baselibs__message_passing"><path codeLine="22" d="M3219.74,45.38 C3437.17,49.74 4396.41,70.5 5181.5,111.5 C5475.62,126.86 5549.09,133.01 5842.5,158.5 C5849.25,159.09 5850.1752,159.1606 5857.1352,159.8006 " fill="transparent" id="Feature_User-to-logic_arc_int__baselibs__message_passing" style="stroke:#181818;stroke-width:1;"/><polygon fill="#181818" points="5863.11,160.35,5854.5141,155.5427,5858.131,159.8922,5853.7815,163.5091,5863.11,160.35" style="stroke:#181818;stroke-width:1;"/><text fill="#000000" font-family="sans-serif" font-size="13" lengthAdjust="spacing" textLength="23.0103" x="5468.5" y="124.5669">use</text></g><!--link Feature_User to logic_arc_int__baselibs__task_result--><g id="link_Feature_User_logic_arc_int__baselibs__task_result"><path codeLine="23" d="M3219.77,47.54 C3392.2,59.29 4024.37,103.75 4543.5,158.5 C4549.13,159.09 4548.9162,159.0519 4554.7162,159.6919 " fill="transparent" id="Feature_User-to-logic_arc_int__baselibs__task_result" style="stroke:#181818;stroke-width:1;"/><polygon fill="#181818" points="4560.68,160.35,4552.173,155.387,4555.7102,159.8016,4551.2956,163.3388,4560.68,160.35" style="stroke:#181818;stroke-width:1;"/><text fill="#000000" font-family="sans-serif" font-size="13" lengthAdjust="spacing" textLength="23.0103" x="4206.5" y="124.5669">use</text></g><!--link Feature_User to logic_arc_int__baselibs__utils_scoped_op--><g id="link_Feature_User_logic_arc_int__baselibs__utils_scoped_op"><path codeLine="24" d="M3129.19,47.52 C2949.38,59.61 2268.64,106.4 1709.5,158.5 C1703.87,159.02 1704.111,158.9812 1698.331,159.5512 " fill="transparent" id="Feature_User-to-logic_arc_int__baselibs__utils_scoped_op" style="stroke:#181818;stroke-width:1;"/><polygon fill="#181818" points="1692.36,160.14,1701.7091,163.2374,1697.3359,159.6493,1700.924,155.2761,1692.36,160.14" style="stroke:#181818;stroke-width:1;"/><text fill="#000000" font-family="sans-serif" font-size="13" lengthAdjust="spacing" textLength="23.0103" x="2234.5" y="124.5669">use</text></g><!--link Feature_User to logic_arc_int__baselibs__condition_variable--><g id="link_Feature_User_logic_arc_int__baselibs__condition_variable"><path codeLine="25" d="M3174.5,81.55 C3174.5,106.45 3174.5,132.26 3174.5,152.26 " fill="transparent" id="Feature_User-to-logic_arc_int__baselibs__condition_variable" style="stroke:#181818;stroke-width:1;"/><polygon fill="#181818" points="3174.5,158.26,3178.5,149.26,3174.5,153.26,3170.5,149.26,3174.5,158.26" style="stroke:#181818;stroke-width:1;"/><text fill="#000000" font-family="sans-serif" font-size="13" lengthAdjust="spacing" textLength="23.0103" x="3175.5" y="124.5669">use</text></g><!--reverse link logic_arc_int__baselibs__future to comp_arc_sta__baselibs__concurrency--><g id="link_logic_arc_int__baselibs__future_comp_arc_sta__baselibs__concurrency"><path codeLine="26" d="M4280.8478,199.5132 C4197.6578,213.0432 4088.71,230.45 3987.5,245.5 C3917.85,255.86 3840.37,266.66 3775.7,275.48 " fill="transparent" id="logic_arc_int__baselibs__future-backto-comp_arc_sta__baselibs__concurrency" style="stroke:#181818;stroke-width:1;"/><polygon fill="#181818" points="4286.77,198.55,4277.2446,196.0467,4281.8348,199.3527,4278.5288,203.9429,4286.77,198.55" style="stroke:#181818;stroke-width:1;"/><text fill="#000000" font-family="sans-serif" font-size="13" lengthAdjust="spacing" textLength="76.9082" x="4090.5" y="241.5669">implements</text></g><!--reverse link logic_arc_int__baselibs__intrusive_list to comp_arc_sta__baselibs__containers--><g id="link_logic_arc_int__baselibs__intrusive_list_comp_arc_sta__baselibs__containers"><path codeLine="27" d="M5051.5667,202.558 C5077.4167,223.788 5114.12,253.94 5139.99,275.19 " fill="transparent" id="logic_arc_int__baselibs__intrusive_list-backto-comp_arc_sta__baselibs__containers" style="stroke:#181818;stroke-width:1;"/><polygon fill="#181818" points="5046.93,198.75,5051.3464,207.5532,5050.7939,201.9233,5056.4237,201.3709,5046.93,198.75" style="stroke:#181818;stroke-width:1;"/><text fill="#000000" font-family="sans-serif" font-size="13" lengthAdjust="spacing" textLength="76.9082" x="5102.5" y="241.5669">implements</text></g><!--reverse link logic_arc_int__baselibs__message_passing to comp_arc_sta__baselibs__message_passing--><g id="link_logic_arc_int__baselibs__message_passing_comp_arc_sta__baselibs__message_passing"><path codeLine="28" d="M6027.9346,204.7491 C6028.3046,225.9791 6028.79,253.94 6029.16,275.19 " fill="transparent" id="logic_arc_int__baselibs__message_passing-backto-comp_arc_sta__baselibs__message_passing" style="stroke:#181818;stroke-width:1;"/><polygon fill="#181818" points="6027.83,198.75,6023.9874,207.8183,6027.9171,203.7492,6031.9862,207.6789,6027.83,198.75" style="stroke:#181818;stroke-width:1;"/><text fill="#000000" font-family="sans-serif" font-size="13" lengthAdjust="spacing" textLength="76.9082" x="6029.5" y="241.5669">implements</text></g><!--reverse link logic_arc_int__baselibs__shared_future to comp_arc_sta__baselibs__concurrency--><g id="link_logic_arc_int__baselibs__shared_future_comp_arc_sta__baselibs__concurrency"><path codeLine="29" d="M3549.3067,203.1616 C3568.8767,224.3916 3596.11,253.94 3615.7,275.19 " fill="transparent" id="logic_arc_int__baselibs__shared_future-backto-comp_arc_sta__baselibs__concurrency" style="stroke:#181818;stroke-width:1;"/><polygon fill="#181818" points="3545.24,198.75,3548.3989,208.0785,3548.6289,202.4263,3554.2811,202.6563,3545.24,198.75" style="stroke:#181818;stroke-width:1;"/><text fill="#000000" font-family="sans-serif" font-size="13" lengthAdjust="spacing" textLength="76.9082" x="3587.5" y="241.5669">implements</text></g><!--link Feature_User to logic_arc_int__baselibs__task--><g id="link_Feature_User_logic_arc_int__baselibs__task"><path codeLine="30" d="M3219.59,53.64 C3325.75,75.17 3587.3996,128.2179 3730.6496,157.2579 " fill="transparent" id="Feature_User-to-logic_arc_int__baselibs__task" style="stroke:#181818;stroke-width:1;"/><polygon fill="#181818" points="3736.53,158.45,3728.5041,152.7416,3731.6297,157.4566,3726.9147,160.5821,3736.53,158.45" style="stroke:#181818;stroke-width:1;"/><text fill="#000000" font-family="sans-serif" font-size="13" lengthAdjust="spacing" textLength="23.0103" x="3581.5" y="124.5669">use</text></g><!--link Feature_User to logic_arc_int__baselibs__intrusive_list--><g id="link_Feature_User_logic_arc_int__baselibs__intrusive_list"><path codeLine="31" d="M3219.82,46.64 C3415.79,56.07 4209.73,96.3 4859.5,158.5 C4865.21,159.05 4865.051,159.0109 4870.931,159.6109 " fill="transparent" id="Feature_User-to-logic_arc_int__baselibs__intrusive_list" style="stroke:#181818;stroke-width:1;"/><polygon fill="#181818" points="4876.9,160.22,4868.3525,155.327,4871.9258,159.7124,4867.5404,163.2857,4876.9,160.22" style="stroke:#181818;stroke-width:1;"/><text fill="#000000" font-family="sans-serif" font-size="13" lengthAdjust="spacing" textLength="23.0103" x="4491.5" y="124.5669">use</text></g><!--link Feature_User to logic_arc_int__baselibs__utils_base64--><g id="link_Feature_User_logic_arc_int__baselibs__utils_base64"><path codeLine="32" d="M3129.25,48.78 C2975.9,63.36 2461.81,112.65 2037.5,158.5 C2031.66,159.13 2031.6632,159.1163 2025.6432,159.7863 " fill="transparent" id="Feature_User-to-logic_arc_int__baselibs__utils_base64" style="stroke:#181818;stroke-width:1;"/><polygon fill="#181818" points="2019.68,160.45,2029.0672,163.4299,2024.6493,159.8969,2028.1823,155.479,2019.68,160.45" style="stroke:#181818;stroke-width:1;"/><text fill="#000000" font-family="sans-serif" font-size="13" lengthAdjust="spacing" textLength="23.0103" x="2476.5" y="124.5669">use</text></g><!--link Feature_User to logic_arc_int__baselibs__dynamic_array--><g id="link_Feature_User_logic_arc_int__baselibs__dynamic_array"><path codeLine="33" d="M3219.57,45.92 C3437.2,53.04 4400.94,87.25 5187.5,158.5 C5193.33,159.03 5193.3078,159.0127 5199.3078,159.5927 " fill="transparent" id="Feature_User-to-logic_arc_int__baselibs__dynamic_array" style="stroke:#181818;stroke-width:1;"/><polygon fill="#181818" points="5205.28,160.17,5196.7066,155.3226,5200.3032,159.6889,5195.9369,163.2855,5205.28,160.17" style="stroke:#181818;stroke-width:1;"/><text fill="#000000" font-family="sans-serif" font-size="13" lengthAdjust="spacing" textLength="23.0103" x="4803.5" y="124.5669">use</text></g><!--reverse link logic_arc_int__baselibs__filesystem to comp_arc_sta__baselibs__filesystem--><g id="link_logic_arc_int__baselibs__filesystem_comp_arc_sta__baselibs__filesystem"><path codeLine="34" d="M5685.8418,204.7479 C5685.2818,225.9779 5684.56,253.94 5684,275.19 " fill="transparent" id="logic_arc_int__baselibs__filesystem-backto-comp_arc_sta__baselibs__filesystem" style="stroke:#181818;stroke-width:1;"/><polygon fill="#181818" points="5686,198.75,5681.7641,207.6414,5685.8682,203.7483,5689.7613,207.8523,5686,198.75" style="stroke:#181818;stroke-width:1;"/><text fill="#000000" font-family="sans-serif" font-size="13" lengthAdjust="spacing" textLength="76.9082" x="5685.5" y="241.5669">implements</text></g><!--reverse link logic_arc_int__baselibs__json to comp_arc_sta__baselibs__json--><g id="link_logic_arc_int__baselibs__json_comp_arc_sta__baselibs__json"><path codeLine="35" d="M2171.5,204.75 C2171.5,225.98 2171.5,253.94 2171.5,275.19 " fill="transparent" id="logic_arc_int__baselibs__json-backto-comp_arc_sta__baselibs__json" style="stroke:#181818;stroke-width:1;"/><polygon fill="#181818" points="2171.5,198.75,2167.5,207.75,2171.5,203.75,2175.5,207.75,2171.5,198.75" style="stroke:#181818;stroke-width:1;"/><text fill="#000000" font-family="sans-serif" font-size="13" lengthAdjust="spacing" textLength="76.9082" x="2172.5" y="241.5669">implements</text></g><!--reverse link logic_arc_int__baselibs__bit_manipulation to comp_arc_sta__baselibs__bit_manipulation--><g id="link_logic_arc_int__baselibs__bit_manipulation_comp_arc_sta__baselibs__bit_manipulation"><path codeLine="36" d="M831.177,203.2777 C849.637,224.5077 875.23,253.94 893.71,275.19 " fill="transparent" id="logic_arc_int__baselibs__bit_manipulation-backto-comp_arc_sta__baselibs__bit_manipulation" style="stroke:#181818;stroke-width:1;"/><polygon fill="#181818" points="827.24,198.75,830.127,208.1662,830.5208,202.5231,836.1639,202.9169,827.24,198.75" style="stroke:#181818;stroke-width:1;"/><text fill="#000000" font-family="sans-serif" font-size="13" lengthAdjust="spacing" textLength="76.9082" x="867.5" y="241.5669">implements</text></g><!--reverse link logic_arc_int__baselibs__synchronized_queue to comp_arc_sta__baselibs__concurrency--><g id="link_logic_arc_int__baselibs__synchronized_queue_comp_arc_sta__baselibs__concurrency"><path codeLine="37" d="M2942.7939,199.3688 C3097.4839,220.6788 3340.57,254.16 3495.23,275.46 " fill="transparent" id="logic_arc_int__baselibs__synchronized_queue-backto-comp_arc_sta__baselibs__concurrency" style="stroke:#181818;stroke-width:1;"/><polygon fill="#181818" points="2936.85,198.55,2945.2199,203.7408,2941.8032,199.2324,2946.3117,195.8157,2936.85,198.55" style="stroke:#181818;stroke-width:1;"/><text fill="#000000" font-family="sans-serif" font-size="13" lengthAdjust="spacing" textLength="76.9082" x="3266.5" y="241.5669">implements</text></g><!--link Feature_User to logic_arc_int__baselibs__memory_shared--><g id="link_Feature_User_logic_arc_int__baselibs__memory_shared"><path codeLine="38" d="M3129.33,45.14 C2900.38,48.56 1845.1,66.16 982.5,111.5 C702.11,126.24 632.13,133.15 352.5,158.5 C346.31,159.06 345.9727,159.078 339.6027,159.688 " fill="transparent" id="Feature_User-to-logic_arc_int__baselibs__memory_shared" style="stroke:#181818;stroke-width:1;"/><polygon fill="#181818" points="333.63,160.26,342.9703,163.3839,338.6072,159.7834,342.2077,155.4203,333.63,160.26" style="stroke:#181818;stroke-width:1;"/><text fill="#000000" font-family="sans-serif" font-size="13" lengthAdjust="spacing" textLength="23.0103" x="983.5" y="124.5669">use</text></g><!--reverse link logic_arc_int__baselibs__dynamic_array to comp_arc_sta__baselibs__containers--><g id="link_logic_arc_int__baselibs__dynamic_array_comp_arc_sta__baselibs__containers"><path codeLine="39" d="M5321.5148,201.7861 C5285.2248,223.0761 5232.29,254.14 5196.09,275.38 " fill="transparent" id="logic_arc_int__baselibs__dynamic_array-backto-comp_arc_sta__baselibs__containers" style="stroke:#181818;stroke-width:1;"/><polygon fill="#181818" points="5326.69,198.75,5316.9032,199.854,5322.3774,201.2801,5320.9513,206.7542,5326.69,198.75" style="stroke:#181818;stroke-width:1;"/><text fill="#000000" font-family="sans-serif" font-size="13" lengthAdjust="spacing" textLength="76.9082" x="5273.5" y="241.5669">implements</text></g><!--link Feature_User to logic_arc_int__baselibs__shared_future--><g id="link_Feature_User_logic_arc_int__baselibs__shared_future"><path codeLine="40" d="M3219.57,61.48 C3285.55,86.34 3402.4554,130.3842 3471.3954,156.3642 " fill="transparent" id="Feature_User-to-logic_arc_int__baselibs__shared_future" style="stroke:#181818;stroke-width:1;"/><polygon fill="#181818" points="3477.01,158.48,3469.9987,151.5632,3472.3312,156.7168,3467.1776,159.0493,3477.01,158.48" style="stroke:#181818;stroke-width:1;"/><text fill="#000000" font-family="sans-serif" font-size="13" lengthAdjust="spacing" textLength="23.0103" x="3393.5" y="124.5669">use</text></g><!--link Feature_User to logic_arc_int__baselibs__bit_manipulation--><g id="link_Feature_User_logic_arc_int__baselibs__bit_manipulation"><path codeLine="41" d="M3129.43,45.76 C2901,52.35 1848.2,85.5 989.5,158.5 C983.74,158.99 983.8552,158.965 977.9352,159.505 " fill="transparent" id="Feature_User-to-logic_arc_int__baselibs__bit_manipulation" style="stroke:#181818;stroke-width:1;"/><polygon fill="#181818" points="971.96,160.05,981.2861,163.2159,976.9393,159.5958,980.5594,155.249,971.96,160.05" style="stroke:#181818;stroke-width:1;"/><text fill="#000000" font-family="sans-serif" font-size="13" lengthAdjust="spacing" textLength="23.0103" x="1590.5" y="124.5669">use</text></g><!--reverse link logic_arc_int__baselibs__task to comp_arc_sta__baselibs__concurrency--><g id="link_logic_arc_int__baselibs__task_comp_arc_sta__baselibs__concurrency"><path codeLine="42" d="M3792.3479,201.7743 C3755.8679,223.0643 3702.64,254.14 3666.25,275.38 " fill="transparent" id="logic_arc_int__baselibs__task-backto-comp_arc_sta__baselibs__concurrency" style="stroke:#181818;stroke-width:1;"/><polygon fill="#181818" points="3797.53,198.75,3787.7407,199.8317,3793.2116,201.2702,3791.7731,206.7411,3797.53,198.75" style="stroke:#181818;stroke-width:1;"/><text fill="#000000" font-family="sans-serif" font-size="13" lengthAdjust="spacing" textLength="76.9082" x="3744.5" y="241.5669">implements</text></g><!--reverse link logic_arc_int__baselibs__condition_variable to comp_arc_sta__baselibs__concurrency--><g id="link_logic_arc_int__baselibs__condition_variable_comp_arc_sta__baselibs__concurrency"><path codeLine="43" d="M3256.3701,200.0083 C3341.3401,221.2983 3472.27,254.11 3557.3,275.41 " fill="transparent" id="logic_arc_int__baselibs__condition_variable-backto-comp_arc_sta__baselibs__concurrency" style="stroke:#181818;stroke-width:1;"/><polygon fill="#181818" points="3250.55,198.55,3258.3079,204.6175,3255.4001,199.7652,3260.2523,196.8574,3250.55,198.55" style="stroke:#181818;stroke-width:1;"/><text fill="#000000" font-family="sans-serif" font-size="13" lengthAdjust="spacing" textLength="76.9082" x="3431.5" y="241.5669">implements</text></g><!--link Feature_User to logic_arc_int__baselibs__promise--><g id="link_Feature_User_logic_arc_int__baselibs__promise"><path codeLine="44" d="M3219.79,50.91 C3356.62,70.3 3763.4693,127.9184 3976.7893,158.1384 " fill="transparent" id="Feature_User-to-logic_arc_int__baselibs__promise" style="stroke:#181818;stroke-width:1;"/><polygon fill="#181818" points="3982.73,158.98,3974.38,153.7572,3977.7794,158.2787,3973.2579,161.6781,3982.73,158.98" style="stroke:#181818;stroke-width:1;"/><text fill="#000000" font-family="sans-serif" font-size="13" lengthAdjust="spacing" textLength="23.0103" x="3756.5" y="124.5669">use</text></g><!--link Feature_User to logic_arc_int__baselibs__result--><g id="link_Feature_User_logic_arc_int__baselibs__result"><path codeLine="45" d="M3129.27,45.75 C2925.62,51.47 2073.32,76.4 1374.5,111.5 C1044.03,128.1 960.75,125.63 631.5,158.5 C626.05,159.04 626.4427,158.9716 620.8227,159.6016 " fill="transparent" id="Feature_User-to-logic_arc_int__baselibs__result" style="stroke:#181818;stroke-width:1;"/><polygon fill="#181818" points="614.86,160.27,624.2496,163.2425,619.8289,159.713,623.3584,155.2923,614.86,160.27" style="stroke:#181818;stroke-width:1;"/><text fill="#000000" font-family="sans-serif" font-size="13" lengthAdjust="spacing" textLength="23.0103" x="1375.5" y="124.5669">use</text></g><!--reverse link logic_arc_int__baselibs__result to comp_arc_sta__baselibs__result--><g id="link_logic_arc_int__baselibs__result_comp_arc_sta__baselibs__result"><path codeLine="46" d="M493.1582,204.7479 C493.7182,225.9779 494.44,253.94 495,275.19 " fill="transparent" id="logic_arc_int__baselibs__result-backto-comp_arc_sta__baselibs__result" style="stroke:#181818;stroke-width:1;"/><polygon fill="#181818" points="493,198.75,489.2387,207.8523,493.1318,203.7483,497.2359,207.6414,493,198.75" style="stroke:#181818;stroke-width:1;"/><text fill="#000000" font-family="sans-serif" font-size="13" lengthAdjust="spacing" textLength="76.9082" x="495.5" y="241.5669">implements</text></g><!--reverse link logic_arc_int__baselibs__memory_shared to comp_arc_sta__baselibs__memory_shared--><g id="link_logic_arc_int__baselibs__memory_shared_comp_arc_sta__baselibs__memory_shared"><path codeLine="47" d="M173.621,204.7464 C172.881,225.9764 171.91,253.94 171.17,275.19 " fill="transparent" id="logic_arc_int__baselibs__memory_shared-backto-comp_arc_sta__baselibs__memory_shared" style="stroke:#181818;stroke-width:1;"/><polygon fill="#181818" points="173.83,198.75,169.5189,207.6052,173.6558,203.747,177.5141,207.8839,173.83,198.75" style="stroke:#181818;stroke-width:1;"/><text fill="#000000" font-family="sans-serif" font-size="13" lengthAdjust="spacing" textLength="76.9082" x="174.5" y="241.5669">implements</text></g><!--link Feature_User to logic_arc_int__baselibs__bit_mask_operator--><g id="link_Feature_User_logic_arc_int__baselibs__bit_mask_operator"><path codeLine="48" d="M3129.2,46.58 C2924.31,56.13 2063.73,97.98 1359.5,158.5 C1353.87,158.98 1354.1259,158.9524 1348.3459,159.4724 " fill="transparent" id="Feature_User-to-logic_arc_int__baselibs__bit_mask_operator" style="stroke:#181818;stroke-width:1;"/><polygon fill="#181818" points="1342.37,160.01,1351.6922,163.1875,1347.3499,159.562,1350.9754,155.2197,1342.37,160.01" style="stroke:#181818;stroke-width:1;"/><text fill="#000000" font-family="sans-serif" font-size="13" lengthAdjust="spacing" textLength="23.0103" x="1959.5" y="124.5669">use</text></g><!--reverse link logic_arc_int__baselibs__bit_mask_operator to comp_arc_sta__baselibs__bit_manipulation--><g id="link_logic_arc_int__baselibs__bit_mask_operator_comp_arc_sta__baselibs__bit_manipulation"><path codeLine="49" d="M1125.1092,201.0161 C1076.2792,222.2861 1003.36,254.05 954.5,275.34 " fill="transparent" id="logic_arc_int__baselibs__bit_mask_operator-backto-comp_arc_sta__baselibs__bit_manipulation" style="stroke:#181818;stroke-width:1;"/><polygon fill="#181818" points="1130.61,198.62,1120.7614,198.547,1126.026,200.6168,1123.9562,205.8813,1130.61,198.62" style="stroke:#181818;stroke-width:1;"/><text fill="#000000" font-family="sans-serif" font-size="13" lengthAdjust="spacing" textLength="76.9082" x="1059.5" y="241.5669">implements</text></g><!--reverse link logic_arc_int__baselibs__utils_scoped_op to comp_arc_sta__baselibs__utils--><g id="link_logic_arc_int__baselibs__utils_scoped_op_comp_arc_sta__baselibs__utils"><path codeLine="50" d="M1557.9926,202.9926 C1579.2226,224.2226 1608.94,253.94 1630.19,275.19 " fill="transparent" id="logic_arc_int__baselibs__utils_scoped_op-backto-comp_arc_sta__baselibs__utils" style="stroke:#181818;stroke-width:1;"/><polygon fill="#181818" points="1553.75,198.75,1557.2855,207.9424,1557.2855,202.2855,1562.9424,202.2855,1553.75,198.75" style="stroke:#181818;stroke-width:1;"/><text fill="#000000" font-family="sans-serif" font-size="13" lengthAdjust="spacing" textLength="76.9082" x="1600.5" y="241.5669">implements</text></g><!--link Feature_User to logic_arc_int__baselibs__filesystem--><g id="link_Feature_User_logic_arc_int__baselibs__filesystem"><path codeLine="51" d="M3219.77,45.88 C3413.83,51.87 4194.65,76.94 4835.5,111.5 C5145.09,128.19 5222.85,129.18 5531.5,158.5 C5537.03,159.03 5536.7019,158.9722 5542.4019,159.5622 " fill="transparent" id="Feature_User-to-logic_arc_int__baselibs__filesystem" style="stroke:#181818;stroke-width:1;"/><polygon fill="#181818" points="5548.37,160.18,5539.8297,155.2746,5543.3966,159.6652,5539.006,163.2321,5548.37,160.18" style="stroke:#181818;stroke-width:1;"/><text fill="#000000" font-family="sans-serif" font-size="13" lengthAdjust="spacing" textLength="23.0103" x="5149.5" y="124.5669">use</text></g><!--reverse link logic_arc_int__baselibs__promise to comp_arc_sta__baselibs__concurrency--><g id="link_logic_arc_int__baselibs__promise_comp_arc_sta__baselibs__concurrency"><path codeLine="52" d="M4028.1351,199.948 C3939.2751,221.238 3802.1,254.11 3713.19,275.41 " fill="transparent" id="logic_arc_int__baselibs__promise-backto-comp_arc_sta__baselibs__concurrency" style="stroke:#181818;stroke-width:1;"/><polygon fill="#181818" points="4033.97,198.55,4024.2857,196.7571,4029.1076,199.715,4026.1497,204.5369,4033.97,198.55" style="stroke:#181818;stroke-width:1;"/><text fill="#000000" font-family="sans-serif" font-size="13" lengthAdjust="spacing" textLength="76.9082" x="3902.5" y="241.5669">implements</text></g><!--SRC=[hPPDRzim38Rl_XL2x-c6eTXXA7ePiDEEwrcWPJRXgWzFfBfwm_xxP3ljuZI3BSD7EkGRYNn82gmDFxMZP_BxIaAh9AWwY0Id6efeX8Al3jIWOi68GReMHnjTAvq2aKXr4kJgbgMpU5TT0vEjrU_gAtdy76o8Ac8pMDyEP1uzCgiFr- -hFzNjksDC1KQotzKN14aHrJrZl5B0wlX1znzKLKtCNRExKpRioMY8HfCNhMjWj5IprjnvSuZ1qoziz8-42J-fnAXADF0PJSe7AuzyIBrdUTnt3luOPO9h1nSME7KnmPiK8thJgLrQTdnohKM7NdWBNG5-r14vMLacdOGipuWEFeFzyMQgMf0-bzc2FUeMc3FHvVcVNAqqUBm2cz1cv49RBf1Bq53VSle98a5jSJCMNe1SI890RjSuLxDiniJqXDeIBsJXh4Gp__2ceDkIp0V8i-bYSWgXAI_sUVBMqVRICANHJUV13Jz5w6OeUo2BtEK5uEOWUtLSLgX-sir8ZWDnYLXDeXruQfE5leTcXC_TDqVhmlvPFTLSYDqHrlc9iAntpm1OURIp1Ygby6qHDXftOqjkMz5BqtbbsjeO7F6AX4rMq_-kD3hDtAPaVqy0d9tO4rXN9cW48-_Yl4iZ_7k2RThy4_bjtp4dZu2L6JYTfHirnIjrfqVw2m00]--></g></svg>