<svg xmlns="http://www.w3.org/2000/svg" xmlns:xlink="http://www.w3.org/1999/xlink" contentStyleType="text/css" data-diagram-type="CLASS" height="322px" preserveAspectRatio="none" style="width:6201px;height:322px;background:#FFFFFF;" version="1.1" viewBox="0 0 6201 322" width="6201px" zoomAndPan="magnify"><defs/><g><!--entity Feature_User--><g id="elem_Feature_User"><ellipse cx="3006.6685" cy="14" fill="#F1F1F1" rx="8" ry="8" style="stroke:#181818;stroke-width:0.5;"/><path d="M3006.6685,22 L3006.6685,49 M2993.6685,30 L3019.6685,30 M3006.6685,49 L2993.6685,64 M3006.6685,49 L3019.6685,64 " fill="transparent" style="stroke:#181818;stroke-width:0.5;"/><text fill="#000000" font-family="sans-serif" font-size="14" lengthAdjust="spacing" textLength="90.3369" x="2961.5" y="78.4951">Feature User</text></g><!--class comp_arc_sta__baselibs__concurrency--><g id="elem_comp_arc_sta__baselibs__concurrency"><rect fill="#F1F1F1" height="40" id="comp_arc_sta__baselibs__concurrency" rx="2.5" ry="2.5" style="stroke:#181818;stroke-width:0.5;" width="300.2012" x="2047.5" y="275.5"/><ellipse cx="2062.5" cy="291.5" fill="#ADD1B2" rx="11" ry="11" style="stroke:#181818;stroke-width:1;"/><path d="M2065.4688,297.1406 Q2064.8906,297.4375 2064.25,297.5781 Q2063.6094,297.7344 2062.9063,297.7344 Q2060.4063,297.7344 2059.0781,296.0938 Q2057.7656,294.4375 2057.7656,291.3125 Q2057.7656,288.1875 2059.0781,286.5313 Q2060.4063,284.875 2062.9063,284.875 Q2063.6094,284.875 2064.25,285.0313 Q2064.9063,285.1875 2065.4688,285.4844 L2065.4688,288.2031 Q2064.8438,287.625 2064.25,287.3594 Q2063.6563,287.0781 2063.0313,287.0781 Q2061.6875,287.0781 2061,288.1563 Q2060.3125,289.2188 2060.3125,291.3125 Q2060.3125,293.4063 2061,294.4844 Q2061.6875,295.5469 2063.0313,295.5469 Q2063.6563,295.5469 2064.25,295.2813 Q2064.8438,295 2065.4688,294.4219 L2065.4688,297.1406 Z " fill="#000000"/><text fill="#000000" font-family="sans-serif" font-size="14" lengthAdjust="spacing" textLength="268.2012" x="2076.5" y="296.3467">comp_arc_sta__baselibs__concurrency</text><line style="stroke:#181818;stroke-width:0.5;" x1="2048.5" x2="2346.7012" y1="307.5" y2="307.5"/></g><!--class logic_arc_int__baselibs__promise--><g id="elem_logic_arc_int__baselibs__promise"><rect fill="#F1F1F1" height="40" id="logic_arc_int__baselibs__promise" rx="2.5" ry="2.5" style="stroke:#181818;stroke-width:0.5;" width="261.1885" x="2267" y="158.5"/><ellipse cx="2282" cy="174.5" fill="#ADD1B2" rx="11" ry="11" style="stroke:#181818;stroke-width:1;"/><path d="M2284.9688,180.1406 Q2284.3906,180.4375 2283.75,180.5781 Q2283.1094,180.7344 2282.4063,180.7344 Q2279.9063,180.7344 2278.5781,179.0938 Q2277.2656,177.4375 2277.2656,174.3125 Q2277.2656,171.1875 2278.5781,169.5313 Q2279.9063,167.875 2282.4063,167.875 Q2283.1094,167.875 2283.75,168.0313 Q2284.4063,168.1875 2284.9688,168.4844 L2284.9688,171.2031 Q2284.3438,170.625 2283.75,170.3594 Q2283.1563,170.0781 2282.5313,170.0781 Q2281.1875,170.0781 2280.5,171.1563 Q2279.8125,172.2188 2279.8125,174.3125 Q2279.8125,176.4063 2280.5,177.4844 Q2281.1875,178.5469 2282.5313,178.5469 Q2283.1563,178.5469 2283.75,178.2813 Q2284.3438,178 2284.9688,177.4219 L2284.9688,180.1406 Z " fill="#000000"/><text fill="#000000" font-family="sans-serif" font-size="14" lengthAdjust="spacing" textLength="229.1885" x="2296" y="179.3467">logic_arc_int__baselibs__promise</text><line style="stroke:#181818;stroke-width:0.5;" x1="2268" x2="2527.1885" y1="190.5" y2="190.5"/></g><!--class logic_arc_int__baselibs__json--><g id="elem_logic_arc_int__baselibs__json"><rect fill="#F1F1F1" height="40" id="logic_arc_int__baselibs__json" rx="2.5" ry="2.5" style="stroke:#181818;stroke-width:0.5;" width="233.168" x="4188" y="158.5"/><ellipse cx="4203" cy="174.5" fill="#ADD1B2" rx="11" ry="11" style="stroke:#181818;stroke-width:1;"/><path d="M4205.9688,180.1406 Q4205.3906,180.4375 4204.75,180.5781 Q4204.1094,180.7344 4203.4063,180.7344 Q4200.9063,180.7344 4199.5781,179.0938 Q4198.2656,177.4375 4198.2656,174.3125 Q4198.2656,171.1875 4199.5781,169.5313 Q4200.9063,167.875 4203.4063,167.875 Q4204.1094,167.875 4204.75,168.0313 Q4205.4063,168.1875 4205.9688,168.4844 L4205.9688,171.2031 Q4205.3438,170.625 4204.75,170.3594 Q4204.1563,170.0781 4203.5313,170.0781 Q4202.1875,170.0781 4201.5,171.1563 Q4200.8125,172.2188 4200.8125,174.3125 Q4200.8125,176.4063 4201.5,177.4844 Q4202.1875,178.5469 4203.5313,178.5469 Q4204.1563,178.5469 4204.75,178.2813 Q4205.3438,178 4205.9688,177.4219 L4205.9688,180.1406 Z " fill="#000000"/><text fill="#000000" font-family="sans-serif" font-size="14" lengthAdjust="spacing" textLength="201.168" x="4217" y="179.3467">logic_arc_int__baselibs__json</text><line style="stroke:#181818;stroke-width:0.5;" x1="4189" x2="4420.168" y1="190.5" y2="190.5"/></g><!--class comp_arc_sta__baselibs__message_passing--><g id="elem_comp_arc_sta__baselibs__message_passing"><rect fill="#F1F1F1" height="40" id="comp_arc_sta__baselibs__message_passing" rx="2.5" ry="2.5" style="stroke:#181818;stroke-width:0.5;" width="337.1357" x="5857" y="275.5"/><ellipse cx="5872" cy="291.5" fill="#ADD1B2" rx="11" ry="11" style="stroke:#181818;stroke-width:1;"/><path d="M5874.9688,297.1406 Q5874.3906,297.4375 5873.75,297.5781 Q5873.1094,297.7344 5872.4063,297.7344 Q5869.9063,297.7344 5868.5781,296.0938 Q5867.2656,294.4375 5867.2656,291.3125 Q5867.2656,288.1875 5868.5781,286.5313 Q5869.9063,284.875 5872.4063,284.875 Q5873.1094,284.875 5873.75,285.0313 Q5874.4063,285.1875 5874.9688,285.4844 L5874.9688,288.2031 Q5874.3438,287.625 5873.75,287.3594 Q5873.1563,287.0781 5872.5313,287.0781 Q5871.1875,287.0781 5870.5,288.1563 Q5869.8125,289.2188 5869.8125,291.3125 Q5869.8125,293.4063 5870.5,294.4844 Q5871.1875,295.5469 5872.5313,295.5469 Q5873.1563,295.5469 5873.75,295.2813 Q5874.3438,295 5874.9688,294.4219 L5874.9688,297.1406 Z " fill="#000000"/><text fill="#000000" font-family="sans-serif" font-size="14" lengthAdjust="spacing" textLength="305.1357" x="5886" y="296.3467">comp_arc_sta__baselibs__message_passing</text><line style="stroke:#181818;stroke-width:0.5;" x1="5858" x2="6193.1357" y1="307.5" y2="307.5"/></g><!--class logic_arc_int__baselibs__message_passing--><g id="elem_logic_arc_int__baselibs__message_passing"><rect fill="#F1F1F1" height="40" id="logic_arc_int__baselibs__message_passing" rx="2.5" ry="2.5" style="stroke:#181818;stroke-width:0.5;" width="328.167" x="5861.5" y="158.5"/><ellipse cx="5876.5" cy="174.5" fill="#ADD1B2" rx="11" ry="11" style="stroke:#181818;stroke-width:1;"/><path d="M5879.4688,180.1406 Q5878.8906,180.4375 5878.25,180.5781 Q5877.6094,180.7344 5876.9063,180.7344 Q5874.4063,180.7344 5873.0781,179.0938 Q5871.7656,177.4375 5871.7656,174.3125 Q5871.7656,171.1875 5873.0781,169.5313 Q5874.4063,167.875 5876.9063,167.875 Q5877.6094,167.875 5878.25,168.0313 Q5878.9063,168.1875 5879.4688,168.4844 L5879.4688,171.2031 Q5878.8438,170.625 5878.25,170.3594 Q5877.6563,170.0781 5877.0313,170.0781 Q5875.6875,170.0781 5875,171.1563 Q5874.3125,172.2188 5874.3125,174.3125 Q5874.3125,176.4063 5875,177.4844 Q5875.6875,178.5469 5877.0313,178.5469 Q5877.6563,178.5469 5878.25,178.2813 Q5878.8438,178 5879.4688,177.4219 L5879.4688,180.1406 Z " fill="#000000"/><text fill="#000000" font-family="sans-serif" font-size="14" lengthAdjust="spacing" textLength="296.167" x="5890.5" y="179.3467">logic_arc_int__baselibs__message_passing</text><line style="stroke:#181818;stroke-width:0.5;" x1="5862.5" x2="6188.667" y1="190.5" y2="190.5"/></g><!--class logic_arc_int__baselibs__condition_variable--><g id="elem_logic_arc_int__baselibs__condition_variable"><rect fill="#F1F1F1" height="40" id="logic_arc_int__baselibs__condition_variable" rx="2.5" ry="2.5" style="stroke:#181818;stroke-width:0.5;" width="332.7539" x="1583" y="158.5"/><ellipse cx="1598" cy="174.5" fill="#ADD1B2" rx="11" ry="11" style="stroke:#181818;stroke-width:1;"/><path d="M1600.9688,180.1406 Q1600.3906,180.4375 1599.75,180.5781 Q1599.1094,180.7344 1598.4063,180.7344 Q1595.9063,180.7344 1594.5781,179.0938 Q1593.2656,177.4375 1593.2656,174.3125 Q1593.2656,171.1875 1594.5781,169.5313 Q1595.9063,167.875 1598.4063,167.875 Q1599.1094,167.875 1599.75,168.0313 Q1600.4063,168.1875 1600.9688,168.4844 L1600.9688,171.2031 Q1600.3438,170.625 1599.75,170.3594 Q1599.1563,170.0781 1598.5313,170.0781 Q1597.1875,170.0781 1596.5,171.1563 Q1595.8125,172.2188 1595.8125,174.3125 Q1595.8125,176.4063 1596.5,177.4844 Q1597.1875,178.5469 1598.5313,178.5469 Q1599.1563,178.5469 1599.75,178.2813 Q1600.3438,178 1600.9688,177.4219 L1600.9688,180.1406 Z " fill="#000000"/><text fill="#000000" font-family="sans-serif" font-size="14" lengthAdjust="spacing" textLength="300.7539" x="1612" y="179.3467">logic_arc_int__baselibs__condition_variable</text><line style="stroke:#181818;stroke-width:0.5;" x1="1584" x2="1914.7539" y1="190.5" y2="190.5"/></g><!--class comp_arc_sta__baselibs__bit_manipulation--><g id="elem_comp_arc_sta__baselibs__bit_manipulation"><rect fill="#F1F1F1" height="40" id="comp_arc_sta__baselibs__bit_manipulation" rx="2.5" ry="2.5" style="stroke:#181818;stroke-width:0.5;" width="330.8057" x="4641" y="275.5"/><ellipse cx="4656" cy="291.5" fill="#ADD1B2" rx="11" ry="11" style="stroke:#181818;stroke-width:1;"/><path d="M4658.9688,297.1406 Q4658.3906,297.4375 4657.75,297.5781 Q4657.1094,297.7344 4656.4063,297.7344 Q4653.9063,297.7344 4652.5781,296.0938 Q4651.2656,294.4375 4651.2656,291.3125 Q4651.2656,288.1875 4652.5781,286.5313 Q4653.9063,284.875 4656.4063,284.875 Q4657.1094,284.875 4657.75,285.0313 Q4658.4063,285.1875 4658.9688,285.4844 L4658.9688,288.2031 Q4658.3438,287.625 4657.75,287.3594 Q4657.1563,287.0781 4656.5313,287.0781 Q4655.1875,287.0781 4654.5,288.1563 Q4653.8125,289.2188 4653.8125,291.3125 Q4653.8125,293.4063 4654.5,294.4844 Q4655.1875,295.5469 4656.5313,295.5469 Q4657.1563,295.5469 4657.75,295.2813 Q4658.3438,295 4658.9688,294.4219 L4658.9688,297.1406 Z " fill="#000000"/><text fill="#000000" font-family="sans-serif" font-size="14" lengthAdjust="spacing" textLength="298.8057" x="4670" y="296.3467">comp_arc_sta__baselibs__bit_manipulation</text><line style="stroke:#181818;stroke-width:0.5;" x1="4642" x2="4970.8057" y1="307.5" y2="307.5"/></g><!--class logic_arc_int__baselibs__bit_mask_operator--><g id="elem_logic_arc_int__baselibs__bit_mask_operator"><rect fill="#F1F1F1" height="40" id="logic_arc_int__baselibs__bit_mask_operator" rx="2.5" ry="2.5" style="stroke:#181818;stroke-width:0.5;" width="334.6406" x="4456" y="158.5"/><ellipse cx="4471" cy="174.5" fill="#ADD1B2" rx="11" ry="11" style="stroke:#181818;stroke-width:1;"/><path d="M4473.9688,180.1406 Q4473.3906,180.4375 4472.75,180.5781 Q4472.1094,180.7344 4471.4063,180.7344 Q4468.9063,180.7344 4467.5781,179.0938 Q4466.2656,177.4375 4466.2656,174.3125 Q4466.2656,171.1875 4467.5781,169.5313 Q4468.9063,167.875 4471.4063,167.875 Q4472.1094,167.875 4472.75,168.0313 Q4473.4063,168.1875 4473.9688,168.4844 L4473.9688,171.2031 Q4473.3438,170.625 4472.75,170.3594 Q4472.1563,170.0781 4471.5313,170.0781 Q4470.1875,170.0781 4469.5,171.1563 Q4468.8125,172.2188 4468.8125,174.3125 Q4468.8125,176.4063 4469.5,177.4844 Q4470.1875,178.5469 4471.5313,178.5469 Q4472.1563,178.5469 4472.75,178.2813 Q4473.3438,178 4473.9688,177.4219 L4473.9688,180.1406 Z " fill="#000000"/><text fill="#000000" font-family="sans-serif" font-size="14" lengthAdjust="spacing" textLength="302.6406" x="4485" y="179.3467">logic_arc_int__baselibs__bit_mask_operator</text><line style="stroke:#181818;stroke-width:0.5;" x1="4457" x2="4789.6406" y1="190.5" y2="190.5"/></g><!--class logic_arc_int__baselibs__intrusive_list--><g id="elem_logic_arc_int__baselibs__intrusive_list"><rect fill="#F1F1F1" height="40" id="logic_arc_int__baselibs__intrusive_list" rx="2.5" ry="2.5" style="stroke:#181818;stroke-width:0.5;" width="293.0713" x="3860" y="158.5"/><ellipse cx="3875" cy="174.5" fill="#ADD1B2" rx="11" ry="11" style="stroke:#181818;stroke-width:1;"/><path d="M3877.9688,180.1406 Q3877.3906,180.4375 3876.75,180.5781 Q3876.1094,180.7344 3875.4063,180.7344 Q3872.9063,180.7344 3871.5781,179.0938 Q3870.2656,177.4375 3870.2656,174.3125 Q3870.2656,171.1875 3871.5781,169.5313 Q3872.9063,167.875 3875.4063,167.875 Q3876.1094,167.875 3876.75,168.0313 Q3877.4063,168.1875 3877.9688,168.4844 L3877.9688,171.2031 Q3877.3438,170.625 3876.75,170.3594 Q3876.1563,170.0781 3875.5313,170.0781 Q3874.1875,170.0781 3873.5,171.1563 Q3872.8125,172.2188 3872.8125,174.3125 Q3872.8125,176.4063 3873.5,177.4844 Q3874.1875,178.5469 3875.5313,178.5469 Q3876.1563,178.5469 3876.75,178.2813 Q3877.3438,178 3877.9688,177.4219 L3877.9688,180.1406 Z " fill="#000000"/><text fill="#000000" font-family="sans-serif" font-size="14" lengthAdjust="spacing" textLength="261.0713" x="3889" y="179.3467">logic_arc_int__baselibs__intrusive_list</text><line style="stroke:#181818;stroke-width:0.5;" x1="3861" x2="4152.0713" y1="190.5" y2="190.5"/></g><!--class logic_arc_int__baselibs__future--><g id="elem_logic_arc_int__baselibs__future"><rect fill="#F1F1F1" height="40" id="logic_arc_int__baselibs__future" rx="2.5" ry="2.5" style="stroke:#181818;stroke-width:0.5;" width="247.0791" x="1301" y="158.5"/><ellipse cx="1316" cy="174.5" fill="#ADD1B2" rx="11" ry="11" style="stroke:#181818;stroke-width:1;"/><path d="M1318.9688,180.1406 Q1318.3906,180.4375 1317.75,180.5781 Q1317.1094,180.7344 1316.4063,180.7344 Q1313.9063,180.7344 1312.5781,179.0938 Q1311.2656,177.4375 1311.2656,174.3125 Q1311.2656,171.1875 1312.5781,169.5313 Q1313.9063,167.875 1316.4063,167.875 Q1317.1094,167.875 1317.75,168.0313 Q1318.4063,168.1875 1318.9688,168.4844 L1318.9688,171.2031 Q1318.3438,170.625 1317.75,170.3594 Q1317.1563,170.0781 1316.5313,170.0781 Q1315.1875,170.0781 1314.5,171.1563 Q1313.8125,172.2188 1313.8125,174.3125 Q1313.8125,176.4063 1314.5,177.4844 Q1315.1875,178.5469 1316.5313,178.5469 Q1317.1563,178.5469 1317.75,178.2813 Q1318.3438,178 1318.9688,177.4219 L1318.9688,180.1406 Z " fill="#000000"/><text fill="#000000" font-family="sans-serif" font-size="14" lengthAdjust="spacing" textLength="215.0791" x="1330" y="179.3467">logic_arc_int__baselibs__future</text><line style="stroke:#181818;stroke-width:0.5;" x1="1302" x2="1547.0791" y1="190.5" y2="190.5"/></g><!--class comp_arc_sta__baselibs__utils--><g id="elem_comp_arc_sta__baselibs__utils"><rect fill="#F1F1F1" height="40" id="comp_arc_sta__baselibs__utils" rx="2.5" ry="2.5" style="stroke:#181818;stroke-width:0.5;" width="242.9502" x="5323" y="275.5"/><ellipse cx="5338" cy="291.5" fill="#ADD1B2" rx="11" ry="11" style="stroke:#181818;stroke-width:1;"/><path d="M5340.9688,297.1406 Q5340.3906,297.4375 5339.75,297.5781 Q5339.1094,297.7344 5338.4063,297.7344 Q5335.9063,297.7344 5334.5781,296.0938 Q5333.2656,294.4375 5333.2656,291.3125 Q5333.2656,288.1875 5334.5781,286.5313 Q5335.9063,284.875 5338.4063,284.875 Q5339.1094,284.875 5339.75,285.0313 Q5340.4063,285.1875 5340.9688,285.4844 L5340.9688,288.2031 Q5340.3438,287.625 5339.75,287.3594 Q5339.1563,287.0781 5338.5313,287.0781 Q5337.1875,287.0781 5336.5,288.1563 Q5335.8125,289.2188 5335.8125,291.3125 Q5335.8125,293.4063 5336.5,294.4844 Q5337.1875,295.5469 5338.5313,295.5469 Q5339.1563,295.5469 5339.75,295.2813 Q5340.3438,295 5340.9688,294.4219 L5340.9688,297.1406 Z " fill="#000000"/><text fill="#000000" font-family="sans-serif" font-size="14" lengthAdjust="spacing" textLength="210.9502" x="5352" y="296.3467">comp_arc_sta__baselibs__utils</text><line style="stroke:#181818;stroke-width:0.5;" x1="5324" x2="5564.9502" y1="307.5" y2="307.5"/></g><!--class logic_arc_int__baselibs__utils_base64--><g id="elem_logic_arc_int__baselibs__utils_base64"><rect fill="#F1F1F1" height="40" id="logic_arc_int__baselibs__utils_base64" rx="2.5" ry="2.5" style="stroke:#181818;stroke-width:0.5;" width="292.1689" x="5183.5" y="158.5"/><ellipse cx="5198.5" cy="174.5" fill="#ADD1B2" rx="11" ry="11" style="stroke:#181818;stroke-width:1;"/><path d="M5201.4688,180.1406 Q5200.8906,180.4375 5200.25,180.5781 Q5199.6094,180.7344 5198.9063,180.7344 Q5196.4063,180.7344 5195.0781,179.0938 Q5193.7656,177.4375 5193.7656,174.3125 Q5193.7656,171.1875 5195.0781,169.5313 Q5196.4063,167.875 5198.9063,167.875 Q5199.6094,167.875 5200.25,168.0313 Q5200.9063,168.1875 5201.4688,168.4844 L5201.4688,171.2031 Q5200.8438,170.625 5200.25,170.3594 Q5199.6563,170.0781 5199.0313,170.0781 Q5197.6875,170.0781 5197,171.1563 Q5196.3125,172.2188 5196.3125,174.3125 Q5196.3125,176.4063 5197,177.4844 Q5197.6875,178.5469 5199.0313,178.5469 Q5199.6563,178.5469 5200.25,178.2813 Q5200.8438,178 5201.4688,177.4219 L5201.4688,180.1406 Z " fill="#000000"/><text fill="#000000" font-family="sans-serif" font-size="14" lengthAdjust="spacing" textLength="260.1689" x="5212.5" y="179.3467">logic_arc_int__baselibs__utils_base64</text><line style="stroke:#181818;stroke-width:0.5;" x1="5184.5" x2="5474.6689" y1="190.5" y2="190.5"/></g><!--class logic_arc_int__baselibs__executor--><g id="elem_logic_arc_int__baselibs__executor"><rect fill="#F1F1F1" height="40" id="logic_arc_int__baselibs__executor" rx="2.5" ry="2.5" style="stroke:#181818;stroke-width:0.5;" width="266.4385" x="3215.5" y="158.5"/><ellipse cx="3230.5" cy="174.5" fill="#ADD1B2" rx="11" ry="11" style="stroke:#181818;stroke-width:1;"/><path d="M3233.4688,180.1406 Q3232.8906,180.4375 3232.25,180.5781 Q3231.6094,180.7344 3230.9063,180.7344 Q3228.4063,180.7344 3227.0781,179.0938 Q3225.7656,177.4375 3225.7656,174.3125 Q3225.7656,171.1875 3227.0781,169.5313 Q3228.4063,167.875 3230.9063,167.875 Q3231.6094,167.875 3232.25,168.0313 Q3232.9063,168.1875 3233.4688,168.4844 L3233.4688,171.2031 Q3232.8438,170.625 3232.25,170.3594 Q3231.6563,170.0781 3231.0313,170.0781 Q3229.6875,170.0781 3229,171.1563 Q3228.3125,172.2188 3228.3125,174.3125 Q3228.3125,176.4063 3229,177.4844 Q3229.6875,178.5469 3231.0313,178.5469 Q3231.6563,178.5469 3232.25,178.2813 Q3232.8438,178 3233.4688,177.4219 L3233.4688,180.1406 Z " fill="#000000"/><text fill="#000000" font-family="sans-serif" font-size="14" lengthAdjust="spacing" textLength="234.4385" x="3244.5" y="179.3467">logic_arc_int__baselibs__executor</text><line style="stroke:#181818;stroke-width:0.5;" x1="3216.5" x2="3480.9385" y1="190.5" y2="190.5"/></g><!--class logic_arc_int__baselibs__result--><g id="elem_logic_arc_int__baselibs__result"><rect fill="#F1F1F1" height="40" id="logic_arc_int__baselibs__result" rx="2.5" ry="2.5" style="stroke:#181818;stroke-width:0.5;" width="244.4609" x="16.5" y="158.5"/><ellipse cx="31.5" cy="174.5" fill="#ADD1B2" rx="11" ry="11" style="stroke:#181818;stroke-width:1;"/><path d="M34.4688,180.1406 Q33.8906,180.4375 33.25,180.5781 Q32.6094,180.7344 31.9063,180.7344 Q29.4063,180.7344 28.0781,179.0938 Q26.7656,177.4375 26.7656,174.3125 Q26.7656,171.1875 28.0781,169.5313 Q29.4063,167.875 31.9063,167.875 Q32.6094,167.875 33.25,168.0313 Q33.9063,168.1875 34.4688,168.4844 L34.4688,171.2031 Q33.8438,170.625 33.25,170.3594 Q32.6563,170.0781 32.0313,170.0781 Q30.6875,170.0781 30,171.1563 Q29.3125,172.2188 29.3125,174.3125 Q29.3125,176.4063 30,177.4844 Q30.6875,178.5469 32.0313,178.5469 Q32.6563,178.5469 33.25,178.2813 Q33.8438,178 34.4688,177.4219 L34.4688,180.1406 Z " fill="#000000"/><text fill="#000000" font-family="sans-serif" font-size="14" lengthAdjust="spacing" textLength="212.4609" x="45.5" y="179.3467">logic_arc_int__baselibs__result</text><line style="stroke:#181818;stroke-width:0.5;" x1="17.5" x2="259.9609" y1="190.5" y2="190.5"/></g><!--class logic_arc_int__baselibs__utils_scoped_op--><g id="elem_logic_arc_int__baselibs__utils_scoped_op"><rect fill="#F1F1F1" height="40" id="logic_arc_int__baselibs__utils_scoped_op" rx="2.5" ry="2.5" style="stroke:#181818;stroke-width:0.5;" width="315.377" x="5511" y="158.5"/><ellipse cx="5526" cy="174.5" fill="#ADD1B2" rx="11" ry="11" style="stroke:#181818;stroke-width:1;"/><path d="M5528.9688,180.1406 Q5528.3906,180.4375 5527.75,180.5781 Q5527.1094,180.7344 5526.4063,180.7344 Q5523.9063,180.7344 5522.5781,179.0938 Q5521.2656,177.4375 5521.2656,174.3125 Q5521.2656,171.1875 5522.5781,169.5313 Q5523.9063,167.875 5526.4063,167.875 Q5527.1094,167.875 5527.75,168.0313 Q5528.4063,168.1875 5528.9688,168.4844 L5528.9688,171.2031 Q5528.3438,170.625 5527.75,170.3594 Q5527.1563,170.0781 5526.5313,170.0781 Q5525.1875,170.0781 5524.5,171.1563 Q5523.8125,172.2188 5523.8125,174.3125 Q5523.8125,176.4063 5524.5,177.4844 Q5525.1875,178.5469 5526.5313,178.5469 Q5527.1563,178.5469 5527.75,178.2813 Q5528.3438,178 5528.9688,177.4219 L5528.9688,180.1406 Z " fill="#000000"/><text fill="#000000" font-family="sans-serif" font-size="14" lengthAdjust="spacing" textLength="283.377" x="5540" y="179.3467">logic_arc_int__baselibs__utils_scoped_op</text><line style="stroke:#181818;stroke-width:0.5;" x1="5512" x2="5825.377" y1="190.5" y2="190.5"/></g><!--class logic_arc_int__baselibs__synchronized_queue--><g id="elem_logic_arc_int__baselibs__synchronized_queue"><rect fill="#F1F1F1" height="40" id="logic_arc_int__baselibs__synchronized_queue" rx="2.5" ry="2.5" style="stroke:#181818;stroke-width:0.5;" width="348.3604" x="2832.5" y="158.5"/><ellipse cx="2847.5" cy="174.5" fill="#ADD1B2" rx="11" ry="11" style="stroke:#181818;stroke-width:1;"/><path d="M2850.4688,180.1406 Q2849.8906,180.4375 2849.25,180.5781 Q2848.6094,180.7344 2847.9063,180.7344 Q2845.4063,180.7344 2844.0781,179.0938 Q2842.7656,177.4375 2842.7656,174.3125 Q2842.7656,171.1875 2844.0781,169.5313 Q2845.4063,167.875 2847.9063,167.875 Q2848.6094,167.875 2849.25,168.0313 Q2849.9063,168.1875 2850.4688,168.4844 L2850.4688,171.2031 Q2849.8438,170.625 2849.25,170.3594 Q2848.6563,170.0781 2848.0313,170.0781 Q2846.6875,170.0781 2846,171.1563 Q2845.3125,172.2188 2845.3125,174.3125 Q2845.3125,176.4063 2846,177.4844 Q2846.6875,178.5469 2848.0313,178.5469 Q2848.6563,178.5469 2849.25,178.2813 Q2849.8438,178 2850.4688,177.4219 L2850.4688,180.1406 Z " fill="#000000"/><text fill="#000000" font-family="sans-serif" font-size="14" lengthAdjust="spacing" textLength="316.3604" x="2861.5" y="179.3467">logic_arc_int__baselibs__synchronized_queue</text><line style="stroke:#181818;stroke-width:0.5;" x1="2833.5" x2="3179.8604" y1="190.5" y2="190.5"/></g><!--class comp_arc_sta__baselibs__containers--><g id="elem_comp_arc_sta__baselibs__containers"><rect fill="#F1F1F1" height="40" id="comp_arc_sta__baselibs__containers" rx="2.5" ry="2.5" style="stroke:#181818;stroke-width:0.5;" width="287.1445" x="3694" y="275.5"/><ellipse cx="3709" cy="291.5" fill="#ADD1B2" rx="11" ry="11" style="stroke:#181818;stroke-width:1;"/><path d="M3711.9688,297.1406 Q3711.3906,297.4375 3710.75,297.5781 Q3710.1094,297.7344 3709.4063,297.7344 Q3706.9063,297.7344 3705.5781,296.0938 Q3704.2656,294.4375 3704.2656,291.3125 Q3704.2656,288.1875 3705.5781,286.5313 Q3706.9063,284.875 3709.4063,284.875 Q3710.1094,284.875 3710.75,285.0313 Q3711.4063,285.1875 3711.9688,285.4844 L3711.9688,288.2031 Q3711.3438,287.625 3710.75,287.3594 Q3710.1563,287.0781 3709.5313,287.0781 Q3708.1875,287.0781 3707.5,288.1563 Q3706.8125,289.2188 3706.8125,291.3125 Q3706.8125,293.4063 3707.5,294.4844 Q3708.1875,295.5469 3709.5313,295.5469 Q3710.1563,295.5469 3710.75,295.2813 Q3711.3438,295 3711.9688,294.4219 L3711.9688,297.1406 Z " fill="#000000"/><text fill="#000000" font-family="sans-serif" font-size="14" lengthAdjust="spacing" textLength="255.1445" x="3723" y="296.3467">comp_arc_sta__baselibs__containers</text><line style="stroke:#181818;stroke-width:0.5;" x1="3695" x2="3980.1445" y1="307.5" y2="307.5"/></g><!--class logic_arc_int__baselibs__dynamic_array--><g id="elem_logic_arc_int__baselibs__dynamic_array"><rect fill="#F1F1F1" height="40" id="logic_arc_int__baselibs__dynamic_array" rx="2.5" ry="2.5" style="stroke:#181818;stroke-width:0.5;" width="308.3496" x="3516.5" y="158.5"/><ellipse cx="3531.5" cy="174.5" fill="#ADD1B2" rx="11" ry="11" style="stroke:#181818;stroke-width:1;"/><path d="M3534.4688,180.1406 Q3533.8906,180.4375 3533.25,180.5781 Q3532.6094,180.7344 3531.9063,180.7344 Q3529.4063,180.7344 3528.0781,179.0938 Q3526.7656,177.4375 3526.7656,174.3125 Q3526.7656,171.1875 3528.0781,169.5313 Q3529.4063,167.875 3531.9063,167.875 Q3532.6094,167.875 3533.25,168.0313 Q3533.9063,168.1875 3534.4688,168.4844 L3534.4688,171.2031 Q3533.8438,170.625 3533.25,170.3594 Q3532.6563,170.0781 3532.0313,170.0781 Q3530.6875,170.0781 3530,171.1563 Q3529.3125,172.2188 3529.3125,174.3125 Q3529.3125,176.4063 3530,177.4844 Q3530.6875,178.5469 3532.0313,178.5469 Q3532.6563,178.5469 3533.25,178.2813 Q3533.8438,178 3534.4688,177.4219 L3534.4688,180.1406 Z " fill="#000000"/><text fill="#000000" font-family="sans-serif" font-size="14" lengthAdjust="spacing" textLength="276.3496" x="3545.5" y="179.3467">logic_arc_int__baselibs__dynamic_array</text><line style="stroke:#181818;stroke-width:0.5;" x1="3517.5" x2="3823.8496" y1="190.5" y2="190.5"/></g><!--class comp_arc_sta__baselibs__json--><g id="elem_comp_arc_sta__baselibs__json"><rect fill="#F1F1F1" height="40" id="comp_arc_sta__baselibs__json" rx="2.5" ry="2.5" style="stroke:#181818;stroke-width:0.5;" width="242.1367" x="4183.5" y="275.5"/><ellipse cx="4198.5" cy="291.5" fill="#ADD1B2" rx="11" ry="11" style="stroke:#181818;stroke-width:1;"/><path d="M4201.4688,297.1406 Q4200.8906,297.4375 4200.25,297.5781 Q4199.6094,297.7344 4198.9063,297.7344 Q4196.4063,297.7344 4195.0781,296.0938 Q4193.7656,294.4375 4193.7656,291.3125 Q4193.7656,288.1875 4195.0781,286.5313 Q4196.4063,284.875 4198.9063,284.875 Q4199.6094,284.875 4200.25,285.0313 Q4200.9063,285.1875 4201.4688,285.4844 L4201.4688,288.2031 Q4200.8438,287.625 4200.25,287.3594 Q4199.6563,287.0781 4199.0313,287.0781 Q4197.6875,287.0781 4197,288.1563 Q4196.3125,289.2188 4196.3125,291.3125 Q4196.3125,293.4063 4197,294.4844 Q4197.6875,295.5469 4199.0313,295.5469 Q4199.6563,295.5469 4200.25,295.2813 Q4200.8438,295 4201.4688,294.4219 L4201.4688,297.1406 Z " fill="#000000"/><text fill="#000000" font-family="sans-serif" font-size="14" lengthAdjust="spacing" textLength="210.1367" x="4212.5" y="296.3467">comp_arc_sta__baselibs__json</text><line style="stroke:#181818;stroke-width:0.5;" x1="4184.5" x2="4424.6367" y1="307.5" y2="307.5"/></g><!--class logic_arc_int__baselibs__shared_future--><g id="elem_logic_arc_int__baselibs__shared_future"><rect fill="#F1F1F1" height="40" id="logic_arc_int__baselibs__shared_future" rx="2.5" ry="2.5" style="stroke:#181818;stroke-width:0.5;" width="302.0811" x="963.5" y="158.5"/><ellipse cx="978.5" cy="174.5" fill="#ADD1B2" rx="11" ry="11" style="stroke:#181818;stroke-width:1;"/><path d="M981.4688,180.1406 Q980.8906,180.4375 980.25,180.5781 Q979.6094,180.7344 978.9063,180.7344 Q976.4063,180.7344 975.0781,179.0938 Q973.7656,177.4375 973.7656,174.3125 Q973.7656,171.1875 975.0781,169.5313 Q976.4063,167.875 978.9063,167.875 Q979.6094,167.875 980.25,168.0313 Q980.9063,168.1875 981.4688,168.4844 L981.4688,171.2031 Q980.8438,170.625 980.25,170.3594 Q979.6563,170.0781 979.0313,170.0781 Q977.6875,170.0781 977,171.1563 Q976.3125,172.2188 976.3125,174.3125 Q976.3125,176.4063 977,177.4844 Q977.6875,178.5469 979.0313,178.5469 Q979.6563,178.5469 980.25,178.2813 Q980.8438,178 981.4688,177.4219 L981.4688,180.1406 Z " fill="#000000"/><text fill="#000000" font-family="sans-serif" font-size="14" lengthAdjust="spacing" textLength="270.0811" x="992.5" y="179.3467">logic_arc_int__baselibs__shared_future</text><line style="stroke:#181818;stroke-width:0.5;" x1="964.5" x2="1264.5811" y1="190.5" y2="190.5"/></g><!--class logic_arc_int__baselibs__filesystem--><g id="elem_logic_arc_int__baselibs__filesystem"><rect fill="#F1F1F1" height="40" id="logic_arc_int__baselibs__filesystem" rx="2.5" ry="2.5" style="stroke:#181818;stroke-width:0.5;" width="276.4805" x="299.5" y="158.5"/><ellipse cx="314.5" cy="174.5" fill="#ADD1B2" rx="11" ry="11" style="stroke:#181818;stroke-width:1;"/><path d="M317.4688,180.1406 Q316.8906,180.4375 316.25,180.5781 Q315.6094,180.7344 314.9063,180.7344 Q312.4063,180.7344 311.0781,179.0938 Q309.7656,177.4375 309.7656,174.3125 Q309.7656,171.1875 311.0781,169.5313 Q312.4063,167.875 314.9063,167.875 Q315.6094,167.875 316.25,168.0313 Q316.9063,168.1875 317.4688,168.4844 L317.4688,171.2031 Q316.8438,170.625 316.25,170.3594 Q315.6563,170.0781 315.0313,170.0781 Q313.6875,170.0781 313,171.1563 Q312.3125,172.2188 312.3125,174.3125 Q312.3125,176.4063 313,177.4844 Q313.6875,178.5469 315.0313,178.5469 Q315.6563,178.5469 316.25,178.2813 Q316.8438,178 317.4688,177.4219 L317.4688,180.1406 Z " fill="#000000"/><text fill="#000000" font-family="sans-serif" font-size="14" lengthAdjust="spacing" textLength="244.4805" x="328.5" y="179.3467">logic_arc_int__baselibs__filesystem</text><line style="stroke:#181818;stroke-width:0.5;" x1="300.5" x2="574.9805" y1="190.5" y2="190.5"/></g><!--class logic_arc_int__baselibs__task--><g id="elem_logic_arc_int__baselibs__task"><rect fill="#F1F1F1" height="40" id="logic_arc_int__baselibs__task" rx="2.5" ry="2.5" style="stroke:#181818;stroke-width:0.5;" width="234.0156" x="2563.5" y="158.5"/><ellipse cx="2578.5" cy="174.5" fill="#ADD1B2" rx="11" ry="11" style="stroke:#181818;stroke-width:1;"/><path d="M2581.4688,180.1406 Q2580.8906,180.4375 2580.25,180.5781 Q2579.6094,180.7344 2578.9063,180.7344 Q2576.4063,180.7344 2575.0781,179.0938 Q2573.7656,177.4375 2573.7656,174.3125 Q2573.7656,171.1875 2575.0781,169.5313 Q2576.4063,167.875 2578.9063,167.875 Q2579.6094,167.875 2580.25,168.0313 Q2580.9063,168.1875 2581.4688,168.4844 L2581.4688,171.2031 Q2580.8438,170.625 2580.25,170.3594 Q2579.6563,170.0781 2579.0313,170.0781 Q2577.6875,170.0781 2577,171.1563 Q2576.3125,172.2188 2576.3125,174.3125 Q2576.3125,176.4063 2577,177.4844 Q2577.6875,178.5469 2579.0313,178.5469 Q2579.6563,178.5469 2580.25,178.2813 Q2580.8438,178 2581.4688,177.4219 L2581.4688,180.1406 Z " fill="#000000"/><text fill="#000000" font-family="sans-serif" font-size="14" lengthAdjust="spacing" textLength="202.0156" x="2592.5" y="179.3467">logic_arc_int__baselibs__task</text><line style="stroke:#181818;stroke-width:0.5;" x1="2564.5" x2="2796.5156" y1="190.5" y2="190.5"/></g><!--class logic_arc_int__baselibs__bit_manipulation--><g id="elem_logic_arc_int__baselibs__bit_manipulation"><rect fill="#F1F1F1" height="40" id="logic_arc_int__baselibs__bit_manipulation" rx="2.5" ry="2.5" style="stroke:#181818;stroke-width:0.5;" width="321.8369" x="4826.5" y="158.5"/><ellipse cx="4841.5" cy="174.5" fill="#ADD1B2" rx="11" ry="11" style="stroke:#181818;stroke-width:1;"/><path d="M4844.4688,180.1406 Q4843.8906,180.4375 4843.25,180.5781 Q4842.6094,180.7344 4841.9063,180.7344 Q4839.4063,180.7344 4838.0781,179.0938 Q4836.7656,177.4375 4836.7656,174.3125 Q4836.7656,171.1875 4838.0781,169.5313 Q4839.4063,167.875 4841.9063,167.875 Q4842.6094,167.875 4843.25,168.0313 Q4843.9063,168.1875 4844.4688,168.4844 L4844.4688,171.2031 Q4843.8438,170.625 4843.25,170.3594 Q4842.6563,170.0781 4842.0313,170.0781 Q4840.6875,170.0781 4840,171.1563 Q4839.3125,172.2188 4839.3125,174.3125 Q4839.3125,176.4063 4840,177.4844 Q4840.6875,178.5469 4842.0313,178.5469 Q4842.6563,178.5469 4843.25,178.2813 Q4843.8438,178 4844.4688,177.4219 L4844.4688,180.1406 Z " fill="#000000"/><text fill="#000000" font-family="sans-serif" font-size="14" lengthAdjust="spacing" textLength="289.8369" x="4855.5" y="179.3467">logic_arc_int__baselibs__bit_manipulation</text><line style="stroke:#181818;stroke-width:0.5;" x1="4827.5" x2="5147.3369" y1="190.5" y2="190.5"/></g><!--class comp_arc_sta__baselibs__memory_shared--><g id="elem_comp_arc_sta__baselibs__memory_shared"><rect fill="#F1F1F1" height="40" id="comp_arc_sta__baselibs__memory_shared" rx="2.5" ry="2.5" style="stroke:#181818;stroke-width:0.5;" width="327.0117" x="615" y="275.5"/><ellipse cx="630" cy="291.5" fill="#ADD1B2" rx="11" ry="11" style="stroke:#181818;stroke-width:1;"/><path d="M632.9688,297.1406 Q632.3906,297.4375 631.75,297.5781 Q631.1094,297.7344 630.4063,297.7344 Q627.9063,297.7344 626.5781,296.0938 Q625.2656,294.4375 625.2656,291.3125 Q625.2656,288.1875 626.5781,286.5313 Q627.9063,284.875 630.4063,284.875 Q631.1094,284.875 631.75,285.0313 Q632.4063,285.1875 632.9688,285.4844 L632.9688,288.2031 Q632.3438,287.625 631.75,287.3594 Q631.1563,287.0781 630.5313,287.0781 Q629.1875,287.0781 628.5,288.1563 Q627.8125,289.2188 627.8125,291.3125 Q627.8125,293.4063 628.5,294.4844 Q629.1875,295.5469 630.5313,295.5469 Q631.1563,295.5469 631.75,295.2813 Q632.3438,295 632.9688,294.4219 L632.9688,297.1406 Z " fill="#000000"/><text fill="#000000" font-family="sans-serif" font-size="14" lengthAdjust="spacing" textLength="295.0117" x="644" y="296.3467">comp_arc_sta__baselibs__memory_shared</text><line style="stroke:#181818;stroke-width:0.5;" x1="616" x2="941.0117" y1="307.5" y2="307.5"/></g><!--class logic_arc_int__baselibs__memory_shared--><g id="elem_logic_arc_int__baselibs__memory_shared"><rect fill="#F1F1F1" height="40" id="logic_arc_int__baselibs__memory_shared" rx="2.5" ry="2.5" style="stroke:#181818;stroke-width:0.5;" width="318.043" x="610.5" y="158.5"/><ellipse cx="625.5" cy="174.5" fill="#ADD1B2" rx="11" ry="11" style="stroke:#181818;stroke-width:1;"/><path d="M628.4688,180.1406 Q627.8906,180.4375 627.25,180.5781 Q626.6094,180.7344 625.9063,180.7344 Q623.4063,180.7344 622.0781,179.0938 Q620.7656,177.4375 620.7656,174.3125 Q620.7656,171.1875 622.0781,169.5313 Q623.4063,167.875 625.9063,167.875 Q626.6094,167.875 627.25,168.0313 Q627.9063,168.1875 628.4688,168.4844 L628.4688,171.2031 Q627.8438,170.625 627.25,170.3594 Q626.6563,170.0781 626.0313,170.0781 Q624.6875,170.0781 624,171.1563 Q623.3125,172.2188 623.3125,174.3125 Q623.3125,176.4063 624,177.4844 Q624.6875,178.5469 626.0313,178.5469 Q626.6563,178.5469 627.25,178.2813 Q627.8438,178 628.4688,177.4219 L628.4688,180.1406 Z " fill="#000000"/><text fill="#000000" font-family="sans-serif" font-size="14" lengthAdjust="spacing" textLength="286.043" x="639.5" y="179.3467">logic_arc_int__baselibs__memory_shared</text><line style="stroke:#181818;stroke-width:0.5;" x1="611.5" x2="927.543" y1="190.5" y2="190.5"/></g><!--class comp_arc_sta__baselibs__filesystem--><g id="elem_comp_arc_sta__baselibs__filesystem"><rect fill="#F1F1F1" height="40" id="comp_arc_sta__baselibs__filesystem" rx="2.5" ry="2.5" style="stroke:#181818;stroke-width:0.5;" width="285.4492" x="295" y="275.5"/><ellipse cx="310" cy="291.5" fill="#ADD1B2" rx="11" ry="11" style="stroke:#181818;stroke-width:1;"/><path d="M312.9688,297.1406 Q312.3906,297.4375 311.75,297.5781 Q311.1094,297.7344 310.4063,297.7344 Q307.9063,297.7344 306.5781,296.0938 Q305.2656,294.4375 305.2656,291.3125 Q305.2656,288.1875 306.5781,286.5313 Q307.9063,284.875 310.4063,284.875 Q311.1094,284.875 311.75,285.0313 Q312.4063,285.1875 312.9688,285.4844 L312.9688,288.2031 Q312.3438,287.625 311.75,287.3594 Q311.1563,287.0781 310.5313,287.0781 Q309.1875,287.0781 308.5,288.1563 Q307.8125,289.2188 307.8125,291.3125 Q307.8125,293.4063 308.5,294.4844 Q309.1875,295.5469 310.5313,295.5469 Q311.1563,295.5469 311.75,295.2813 Q312.3438,295 312.9688,294.4219 L312.9688,297.1406 Z " fill="#000000"/><text fill="#000000" font-family="sans-serif" font-size="14" lengthAdjust="spacing" textLength="253.4492" x="324" y="296.3467">comp_arc_sta__baselibs__filesystem</text><line style="stroke:#181818;stroke-width:0.5;" x1="296" x2="579.4492" y1="307.5" y2="307.5"/></g><!--class logic_arc_int__baselibs__task_result--><g id="elem_logic_arc_int__baselibs__task_result"><rect fill="#F1F1F1" height="40" id="logic_arc_int__baselibs__task_result" rx="2.5" ry="2.5" style="stroke:#181818;stroke-width:0.5;" width="280.9307" x="1951" y="158.5"/><ellipse cx="1966" cy="174.5" fill="#ADD1B2" rx="11" ry="11" style="stroke:#181818;stroke-width:1;"/><path d="M1968.9688,180.1406 Q1968.3906,180.4375 1967.75,180.5781 Q1967.1094,180.7344 1966.4063,180.7344 Q1963.9063,180.7344 1962.5781,179.0938 Q1961.2656,177.4375 1961.2656,174.3125 Q1961.2656,171.1875 1962.5781,169.5313 Q1963.9063,167.875 1966.4063,167.875 Q1967.1094,167.875 1967.75,168.0313 Q1968.4063,168.1875 1968.9688,168.4844 L1968.9688,171.2031 Q1968.3438,170.625 1967.75,170.3594 Q1967.1563,170.0781 1966.5313,170.0781 Q1965.1875,170.0781 1964.5,171.1563 Q1963.8125,172.2188 1963.8125,174.3125 Q1963.8125,176.4063 1964.5,177.4844 Q1965.1875,178.5469 1966.5313,178.5469 Q1967.1563,178.5469 1967.75,178.2813 Q1968.3438,178 1968.9688,177.4219 L1968.9688,180.1406 Z " fill="#000000"/><text fill="#000000" font-family="sans-serif" font-size="14" lengthAdjust="spacing" textLength="248.9307" x="1980" y="179.3467">logic_arc_int__baselibs__task_result</text><line style="stroke:#181818;stroke-width:0.5;" x1="1952" x2="2230.9307" y1="190.5" y2="190.5"/></g><!--class comp_arc_sta__baselibs__result--><g id="elem_comp_arc_sta__baselibs__result"><rect fill="#F1F1F1" height="40" id="comp_arc_sta__baselibs__result" rx="2.5" ry="2.5" style="stroke:#181818;stroke-width:0.5;" width="253.4297" x="7" y="275.5"/><ellipse cx="22" cy="291.5" fill="#ADD1B2" rx="11" ry="11" style="stroke:#181818;stroke-width:1;"/><path d="M24.9688,297.1406 Q24.3906,297.4375 23.75,297.5781 Q23.1094,297.7344 22.4063,297.7344 Q19.9063,297.7344 18.5781,296.0938 Q17.2656,294.4375 17.2656,291.3125 Q17.2656,288.1875 18.5781,286.5313 Q19.9063,284.875 22.4063,284.875 Q23.1094,284.875 23.75,285.0313 Q24.4063,285.1875 24.9688,285.4844 L24.9688,288.2031 Q24.3438,287.625 23.75,287.3594 Q23.1563,287.0781 22.5313,287.0781 Q21.1875,287.0781 20.5,288.1563 Q19.8125,289.2188 19.8125,291.3125 Q19.8125,293.4063 20.5,294.4844 Q21.1875,295.5469 22.5313,295.5469 Q23.1563,295.5469 23.75,295.2813 Q24.3438,295 24.9688,294.4219 L24.9688,297.1406 Z " fill="#000000"/><text fill="#000000" font-family="sans-serif" font-size="14" lengthAdjust="spacing" textLength="221.4297" x="36" y="296.3467">comp_arc_sta__baselibs__result</text><line style="stroke:#181818;stroke-width:0.5;" x1="8" x2="259.4297" y1="307.5" y2="307.5"/></g><!--reverse link logic_arc_int__baselibs__promise to comp_arc_sta__baselibs__concurrency--><g id="link_logic_arc_int__baselibs__promise_comp_arc_sta__baselibs__concurrency"><path codeLine="15" d="M2358.8184,201.7406 C2321.7884,223.0306 2267.69,254.14 2230.75,275.38 " fill="transparent" id="logic_arc_int__baselibs__promise-backto-comp_arc_sta__baselibs__concurrency" style="stroke:#181818;stroke-width:1;"/><polygon fill="#181818" points="2364.02,198.75,2354.2239,199.7682,2359.6854,201.2422,2358.2114,206.7036,2364.02,198.75" style="stroke:#181818;stroke-width:1;"/><text fill="#000000" font-family="sans-serif" font-size="13" lengthAdjust="spacing" textLength="76.9082" x="2309.5" y="241.5669">implements</text></g><!--link Feature_User to logic_arc_int__baselibs__promise--><g id="link_Feature_User_logic_arc_int__baselibs__promise"><path codeLine="16" d="M2961.22,54.39 C2860.4,76.41 2621.8118,128.5099 2490.3918,157.2099 " fill="transparent" id="Feature_User-to-logic_arc_int__baselibs__promise" style="stroke:#181818;stroke-width:1;"/><polygon fill="#181818" points="2484.53,158.49,2494.1762,160.4777,2489.4149,157.4232,2492.4694,152.6619,2484.53,158.49" style="stroke:#181818;stroke-width:1;"/><text fill="#000000" font-family="sans-serif" font-size="13" lengthAdjust="spacing" textLength="23.0103" x="2684.5" y="124.5669">use</text></g><!--link Feature_User to logic_arc_int__baselibs__json--><g id="link_Feature_User_logic_arc_int__baselibs__json"><path codeLine="17" d="M3051.52,48.2 C3206.97,61.14 3735.53,106.39 4170.5,158.5 C4176.22,159.18 4176.109,159.1447 4182.019,159.9047 " fill="transparent" id="Feature_User-to-logic_arc_int__baselibs__json" style="stroke:#181818;stroke-width:1;"/><polygon fill="#181818" points="4187.97,160.67,4179.5537,155.5548,4183.0108,160.0323,4178.5333,163.4894,4187.97,160.67" style="stroke:#181818;stroke-width:1;"/><text fill="#000000" font-family="sans-serif" font-size="13" lengthAdjust="spacing" textLength="23.0103" x="3884.5" y="124.5669">use</text></g><!--reverse link logic_arc_int__baselibs__message_passing to comp_arc_sta__baselibs__message_passing--><g id="link_logic_arc_int__baselibs__message_passing_comp_arc_sta__baselibs__message_passing"><path codeLine="18" d="M6025.5,204.75 C6025.5,225.98 6025.5,253.94 6025.5,275.19 " fill="transparent" id="logic_arc_int__baselibs__message_passing-backto-comp_arc_sta__baselibs__message_passing" style="stroke:#181818;stroke-width:1;"/><polygon fill="#181818" points="6025.5,198.75,6021.5,207.75,6025.5,203.75,6029.5,207.75,6025.5,198.75" style="stroke:#181818;stroke-width:1;"/><text fill="#000000" font-family="sans-serif" font-size="13" lengthAdjust="spacing" textLength="76.9082" x="6026.5" y="241.5669">implements</text></g><!--link Feature_User to logic_arc_int__baselibs__condition_variable--><g id="link_Feature_User_logic_arc_int__baselibs__condition_variable"><path codeLine="19" d="M2961.39,49.27 C2794.61,66.92 2213.4467,128.4087 1922.0567,159.2387 " fill="transparent" id="Feature_User-to-logic_arc_int__baselibs__condition_variable" style="stroke:#181818;stroke-width:1;"/><polygon fill="#181818" points="1916.09,159.87,1925.4609,162.9009,1921.0622,159.3439,1924.6192,154.9453,1916.09,159.87" style="stroke:#181818;stroke-width:1;"/><text fill="#000000" font-family="sans-serif" font-size="13" lengthAdjust="spacing" textLength="23.0103" x="2340.5" y="124.5669">use</text></g><!--link Feature_User to logic_arc_int__baselibs__message_passing--><g id="link_Feature_User_logic_arc_int__baselibs__message_passing"><path codeLine="20" d="M3051.69,45.36 C3276.32,49.73 4295.1,70.96 5128.5,111.5 C5446.59,126.97 5526.18,131.52 5843.5,158.5 C5849.36,159 5849.345,158.9732 5855.355,159.5232 " fill="transparent" id="Feature_User-to-logic_arc_int__baselibs__message_passing" style="stroke:#181818;stroke-width:1;"/><polygon fill="#181818" points="5861.33,160.07,5852.732,155.2664,5856.3508,159.6143,5852.0029,163.2332,5861.33,160.07" style="stroke:#181818;stroke-width:1;"/><text fill="#000000" font-family="sans-serif" font-size="13" lengthAdjust="spacing" textLength="23.0103" x="5450.5" y="124.5669">use</text></g><!--reverse link logic_arc_int__baselibs__bit_mask_operator to comp_arc_sta__baselibs__bit_manipulation--><g id="link_logic_arc_int__baselibs__bit_mask_operator_comp_arc_sta__baselibs__bit_manipulation"><path codeLine="21" d="M4659.2102,201.9424 C4693.0902,223.2324 4742.28,254.14 4776.08,275.38 " fill="transparent" id="logic_arc_int__baselibs__bit_mask_operator-backto-comp_arc_sta__baselibs__bit_manipulation" style="stroke:#181818;stroke-width:1;"/><polygon fill="#181818" points="4654.13,198.75,4659.6221,206.9254,4658.3635,201.4103,4663.8786,200.1518,4654.13,198.75" style="stroke:#181818;stroke-width:1;"/><text fill="#000000" font-family="sans-serif" font-size="13" lengthAdjust="spacing" textLength="76.9082" x="4726.5" y="241.5669">implements</text></g><!--link Feature_User to logic_arc_int__baselibs__intrusive_list--><g id="link_Feature_User_logic_arc_int__baselibs__intrusive_list"><path codeLine="22" d="M3051.74,50.52 C3193.59,69.38 3627.9124,127.149 3857.6924,157.709 " fill="transparent" id="Feature_User-to-logic_arc_int__baselibs__intrusive_list" style="stroke:#181818;stroke-width:1;"/><polygon fill="#181818" points="3863.64,158.5,3855.2459,153.3484,3858.6836,157.8408,3854.1912,161.2786,3863.64,158.5" style="stroke:#181818;stroke-width:1;"/><text fill="#000000" font-family="sans-serif" font-size="13" lengthAdjust="spacing" textLength="23.0103" x="3625.5" y="124.5669">use</text></g><!--reverse link logic_arc_int__baselibs__future to comp_arc_sta__baselibs__concurrency--><g id="link_logic_arc_int__baselibs__future_comp_arc_sta__baselibs__concurrency"><path codeLine="23" d="M1554.2519,199.2712 C1641.7319,212.5612 1755.81,229.81 1861.5,245.5 C1928.85,255.5 2003.82,266.45 2065.83,275.46 " fill="transparent" id="logic_arc_int__baselibs__future-backto-comp_arc_sta__baselibs__concurrency" style="stroke:#181818;stroke-width:1;"/><polygon fill="#181818" points="1548.32,198.37,1556.6171,203.6764,1553.2633,199.121,1557.8187,195.7671,1548.32,198.37" style="stroke:#181818;stroke-width:1;"/><text fill="#000000" font-family="sans-serif" font-size="13" lengthAdjust="spacing" textLength="76.9082" x="1862.5" y="241.5669">implements</text></g><!--reverse link logic_arc_int__baselibs__utils_base64 to comp_arc_sta__baselibs__utils--><g id="link_logic_arc_int__baselibs__utils_base64_comp_arc_sta__baselibs__utils"><path codeLine="24" d="M5352.9926,202.9926 C5374.2226,224.2226 5403.94,253.94 5425.19,275.19 " fill="transparent" id="logic_arc_int__baselibs__utils_base64-backto-comp_arc_sta__baselibs__utils" style="stroke:#181818;stroke-width:1;"/><polygon fill="#181818" points="5348.75,198.75,5352.2855,207.9424,5352.2855,202.2855,5357.9424,202.2855,5348.75,198.75" style="stroke:#181818;stroke-width:1;"/><text fill="#000000" font-family="sans-serif" font-size="13" lengthAdjust="spacing" textLength="76.9082" x="5394.5" y="241.5669">implements</text></g><!--reverse link logic_arc_int__baselibs__executor to comp_arc_sta__baselibs__concurrency--><g id="link_logic_arc_int__baselibs__executor_comp_arc_sta__baselibs__concurrency"><path codeLine="25" d="M3209.253,197.247 C3203.603,197.927 3203.98,197.87 3198.5,198.5 C2999.62,221.52 2949.77,226.22 2750.5,245.5 C2614.27,258.68 2459.03,272.32 2347.77,281.84 " fill="transparent" id="logic_arc_int__baselibs__executor-backto-comp_arc_sta__baselibs__concurrency" style="stroke:#181818;stroke-width:1;"/><polygon fill="#181818" points="3215.21,196.53,3205.7965,193.6341,3210.2458,197.1275,3206.7524,201.5768,3215.21,196.53" style="stroke:#181818;stroke-width:1;"/><text fill="#000000" font-family="sans-serif" font-size="13" lengthAdjust="spacing" textLength="76.9082" x="2922.5" y="241.5669">implements</text></g><!--link Feature_User to logic_arc_int__baselibs__result--><g id="link_Feature_User_logic_arc_int__baselibs__result"><path codeLine="26" d="M2961.3,45.35 C2740.95,49.62 1757.33,70.2 952.5,111.5 C653.94,126.82 578.93,128.35 281.5,158.5 C274.65,159.19 273.5812,159.279 266.4912,160.089 " fill="transparent" id="Feature_User-to-logic_arc_int__baselibs__result" style="stroke:#181818;stroke-width:1;"/><polygon fill="#181818" points="260.53,160.77,269.9259,163.7226,265.4977,160.2025,269.0178,155.7743,260.53,160.77" style="stroke:#181818;stroke-width:1;"/><text fill="#000000" font-family="sans-serif" font-size="13" lengthAdjust="spacing" textLength="23.0103" x="953.5" y="124.5669">use</text></g><!--reverse link logic_arc_int__baselibs__utils_scoped_op to comp_arc_sta__baselibs__utils--><g id="link_logic_arc_int__baselibs__utils_scoped_op_comp_arc_sta__baselibs__utils"><path codeLine="27" d="M5625.9223,201.3603 C5584.4923,222.6303 5523.29,254.05 5481.83,275.34 " fill="transparent" id="logic_arc_int__baselibs__utils_scoped_op-backto-comp_arc_sta__baselibs__utils" style="stroke:#181818;stroke-width:1;"/><polygon fill="#181818" points="5631.26,198.62,5621.4266,199.1721,5626.812,200.9036,5625.0804,206.2889,5631.26,198.62" style="stroke:#181818;stroke-width:1;"/><text fill="#000000" font-family="sans-serif" font-size="13" lengthAdjust="spacing" textLength="76.9082" x="5570.5" y="241.5669">implements</text></g><!--link Feature_User to logic_arc_int__baselibs__executor--><g id="link_Feature_User_logic_arc_int__baselibs__executor"><path codeLine="28" d="M3051.56,62.02 C3115.77,86.99 3227.5479,130.4654 3293.8679,156.2554 " fill="transparent" id="Feature_User-to-logic_arc_int__baselibs__executor" style="stroke:#181818;stroke-width:1;"/><polygon fill="#181818" points="3299.46,158.43,3292.5216,151.4401,3294.8,156.6178,3289.6222,158.8961,3299.46,158.43" style="stroke:#181818;stroke-width:1;"/><text fill="#000000" font-family="sans-serif" font-size="13" lengthAdjust="spacing" textLength="23.0103" x="3218.5" y="124.5669">use</text></g><!--link Feature_User to logic_arc_int__baselibs__synchronized_queue--><g id="link_Feature_User_logic_arc_int__baselibs__synchronized_queue"><path codeLine="29" d="M3006.5,81.55 C3006.5,106.45 3006.5,132.26 3006.5,152.26 " fill="transparent" id="Feature_User-to-logic_arc_int__baselibs__synchronized_queue" style="stroke:#181818;stroke-width:1;"/><polygon fill="#181818" points="3006.5,158.26,3010.5,149.26,3006.5,153.26,3002.5,149.26,3006.5,158.26" style="stroke:#181818;stroke-width:1;"/><text fill="#000000" font-family="sans-serif" font-size="13" lengthAdjust="spacing" textLength="23.0103" x="3007.5" y="124.5669">use</text></g><!--reverse link logic_arc_int__baselibs__dynamic_array to comp_arc_sta__baselibs__containers--><g id="link_logic_arc_int__baselibs__dynamic_array_comp_arc_sta__baselibs__containers"><path codeLine="30" d="M3703.3918,202.1527 C3734.3118,223.4427 3778.89,254.14 3809.74,275.38 " fill="transparent" id="logic_arc_int__baselibs__dynamic_array-backto-comp_arc_sta__baselibs__containers" style="stroke:#181818;stroke-width:1;"/><polygon fill="#181818" points="3698.45,198.75,3703.5943,207.1486,3702.5682,201.5856,3708.1312,200.5595,3698.45,198.75" style="stroke:#181818;stroke-width:1;"/><text fill="#000000" font-family="sans-serif" font-size="13" lengthAdjust="spacing" textLength="76.9082" x="3764.5" y="241.5669">implements</text></g><!--reverse link logic_arc_int__baselibs__json to comp_arc_sta__baselibs__json--><g id="link_logic_arc_int__baselibs__json_comp_arc_sta__baselibs__json"><path codeLine="31" d="M4304.5,204.75 C4304.5,225.98 4304.5,253.94 4304.5,275.19 " fill="transparent" id="logic_arc_int__baselibs__json-backto-comp_arc_sta__baselibs__json" style="stroke:#181818;stroke-width:1;"/><polygon fill="#181818" points="4304.5,198.75,4300.5,207.75,4304.5,203.75,4308.5,207.75,4304.5,198.75" style="stroke:#181818;stroke-width:1;"/><text fill="#000000" font-family="sans-serif" font-size="13" lengthAdjust="spacing" textLength="76.9082" x="4305.5" y="241.5669">implements</text></g><!--link Feature_User to logic_arc_int__baselibs__bit_mask_operator--><g id="link_Feature_User_logic_arc_int__baselibs__bit_mask_operator"><path codeLine="32" d="M3051.97,47.58 C3184.99,56.66 3584.94,84.37 3916.5,111.5 C4148.66,130.5 4206.64,136.16 4438.5,158.5 C4444.12,159.04 4443.869,159.0112 4449.649,159.5812 " fill="transparent" id="Feature_User-to-logic_arc_int__baselibs__bit_mask_operator" style="stroke:#181818;stroke-width:1;"/><polygon fill="#181818" points="4455.62,160.17,4447.056,155.3061,4450.6441,159.6793,4446.2709,163.2674,4455.62,160.17" style="stroke:#181818;stroke-width:1;"/><text fill="#000000" font-family="sans-serif" font-size="13" lengthAdjust="spacing" textLength="23.0103" x="4116.5" y="124.5669">use</text></g><!--link Feature_User to logic_arc_int__baselibs__utils_base64--><g id="link_Feature_User_logic_arc_int__baselibs__utils_base64"><path codeLine="33" d="M3051.61,46.29 C3229.17,53.41 3897.08,80.79 4446.5,111.5 C4766.68,129.4 4847.13,129.48 5166.5,158.5 C5172.03,159 5171.6988,158.9523 5177.3888,159.5123 " fill="transparent" id="Feature_User-to-logic_arc_int__baselibs__utils_base64" style="stroke:#181818;stroke-width:1;"/><polygon fill="#181818" points="5183.36,160.1,5174.7951,155.2377,5178.384,159.6103,5174.0115,163.1993,5183.36,160.1" style="stroke:#181818;stroke-width:1;"/><text fill="#000000" font-family="sans-serif" font-size="13" lengthAdjust="spacing" textLength="23.0103" x="4759.5" y="124.5669">use</text></g><!--reverse link logic_arc_int__baselibs__condition_variable to comp_arc_sta__baselibs__concurrency--><g id="link_logic_arc_int__baselibs__condition_variable_comp_arc_sta__baselibs__concurrency"><path codeLine="34" d="M1829.5415,200.042 C1912.4715,221.332 2040.14,254.11 2123.13,275.41 " fill="transparent" id="logic_arc_int__baselibs__condition_variable-backto-comp_arc_sta__baselibs__concurrency" style="stroke:#181818;stroke-width:1;"/><polygon fill="#181818" points="1823.73,198.55,1831.4527,204.6623,1828.573,199.7933,1833.442,196.9136,1823.73,198.55" style="stroke:#181818;stroke-width:1;"/><text fill="#000000" font-family="sans-serif" font-size="13" lengthAdjust="spacing" textLength="76.9082" x="2001.5" y="241.5669">implements</text></g><!--link Feature_User to logic_arc_int__baselibs__utils_scoped_op--><g id="link_Feature_User_logic_arc_int__baselibs__utils_scoped_op"><path codeLine="35" d="M3051.7,45.71 C3254.27,51.23 4098.95,75.33 4791.5,111.5 C5103.77,127.81 5182,131.17 5493.5,158.5 C5499.13,158.99 5498.8859,158.9628 5504.6759,159.5028 " fill="transparent" id="Feature_User-to-logic_arc_int__baselibs__utils_scoped_op" style="stroke:#181818;stroke-width:1;"/><polygon fill="#181818" points="5510.65,160.06,5502.0603,155.2415,5505.6716,159.5957,5501.3174,163.207,5510.65,160.06" style="stroke:#181818;stroke-width:1;"/><text fill="#000000" font-family="sans-serif" font-size="13" lengthAdjust="spacing" textLength="23.0103" x="5096.5" y="124.5669">use</text></g><!--reverse link logic_arc_int__baselibs__shared_future to comp_arc_sta__baselibs__concurrency--><g id="link_logic_arc_int__baselibs__shared_future_comp_arc_sta__baselibs__concurrency"><path codeLine="36" d="M1271.1144,199.268 C1382.4544,213.068 1531.84,231.03 1668.5,245.5 C1796.22,259.02 1941.51,272.33 2047.47,281.66 " fill="transparent" id="logic_arc_int__baselibs__shared_future-backto-comp_arc_sta__baselibs__concurrency" style="stroke:#181818;stroke-width:1;"/><polygon fill="#181818" points="1265.16,198.53,1273.5996,203.6067,1270.122,199.145,1274.5837,195.6674,1265.16,198.53" style="stroke:#181818;stroke-width:1;"/><text fill="#000000" font-family="sans-serif" font-size="13" lengthAdjust="spacing" textLength="76.9082" x="1669.5" y="241.5669">implements</text></g><!--link Feature_User to logic_arc_int__baselibs__filesystem--><g id="link_Feature_User_logic_arc_int__baselibs__filesystem"><path codeLine="37" d="M2961.5,45.84 C2765.15,51.77 1963.89,76.91 1306.5,111.5 C988.92,128.21 909.12,128.7 592.5,158.5 C586.97,159.02 587.2981,158.9622 581.5981,159.5522 " fill="transparent" id="Feature_User-to-logic_arc_int__baselibs__filesystem" style="stroke:#181818;stroke-width:1;"/><polygon fill="#181818" points="575.63,160.17,584.994,163.2221,580.6034,159.6552,584.1703,155.2646,575.63,160.17" style="stroke:#181818;stroke-width:1;"/><text fill="#000000" font-family="sans-serif" font-size="13" lengthAdjust="spacing" textLength="23.0103" x="1307.5" y="124.5669">use</text></g><!--reverse link logic_arc_int__baselibs__intrusive_list to comp_arc_sta__baselibs__containers--><g id="link_logic_arc_int__baselibs__intrusive_list_comp_arc_sta__baselibs__containers"><path codeLine="38" d="M3973.2494,202.1252 C3941.9594,223.4152 3896.81,254.14 3865.6,275.38 " fill="transparent" id="logic_arc_int__baselibs__intrusive_list-backto-comp_arc_sta__baselibs__containers" style="stroke:#181818;stroke-width:1;"/><polygon fill="#181818" points="3978.21,198.75,3968.5189,200.5058,3974.0762,201.5627,3973.0192,207.1199,3978.21,198.75" style="stroke:#181818;stroke-width:1;"/><text fill="#000000" font-family="sans-serif" font-size="13" lengthAdjust="spacing" textLength="76.9082" x="3932.5" y="241.5669">implements</text></g><!--reverse link logic_arc_int__baselibs__task to comp_arc_sta__baselibs__concurrency--><g id="link_logic_arc_int__baselibs__task_comp_arc_sta__baselibs__concurrency"><path codeLine="39" d="M2594.6332,199.9398 C2505.2232,221.2298 2367.16,254.11 2277.68,275.41 " fill="transparent" id="logic_arc_int__baselibs__task-backto-comp_arc_sta__baselibs__concurrency" style="stroke:#181818;stroke-width:1;"/><polygon fill="#181818" points="2600.47,198.55,2590.7882,196.7436,2595.606,199.7082,2592.6413,204.526,2600.47,198.55" style="stroke:#181818;stroke-width:1;"/><text fill="#000000" font-family="sans-serif" font-size="13" lengthAdjust="spacing" textLength="76.9082" x="2468.5" y="241.5669">implements</text></g><!--link Feature_User to logic_arc_int__baselibs__shared_future--><g id="link_Feature_User_logic_arc_int__baselibs__shared_future"><path codeLine="40" d="M2961.49,46.44 C2763.37,55.18 1949.22,93.4 1283.5,158.5 C1277.62,159.07 1277.5997,159.0781 1271.5497,159.6881 " fill="transparent" id="Feature_User-to-logic_arc_int__baselibs__shared_future" style="stroke:#181818;stroke-width:1;"/><polygon fill="#181818" points="1265.58,160.29,1274.9359,163.367,1270.5548,159.7884,1274.1333,155.4073,1265.58,160.29" style="stroke:#181818;stroke-width:1;"/><text fill="#000000" font-family="sans-serif" font-size="13" lengthAdjust="spacing" textLength="23.0103" x="1805.5" y="124.5669">use</text></g><!--reverse link logic_arc_int__baselibs__bit_manipulation to comp_arc_sta__baselibs__bit_manipulation--><g id="link_logic_arc_int__baselibs__bit_manipulation_comp_arc_sta__baselibs__bit_manipulation"><path codeLine="41" d="M4952.1357,201.9675 C4918.6257,223.2575 4870.02,254.14 4836.59,275.38 " fill="transparent" id="logic_arc_int__baselibs__bit_manipulation-backto-comp_arc_sta__baselibs__bit_manipulation" style="stroke:#181818;stroke-width:1;"/><polygon fill="#181818" points="4957.2,198.75,4947.4585,200.2001,4952.9797,201.4313,4951.7485,206.9525,4957.2,198.75" style="stroke:#181818;stroke-width:1;"/><text fill="#000000" font-family="sans-serif" font-size="13" lengthAdjust="spacing" textLength="76.9082" x="4908.5" y="241.5669">implements</text></g><!--reverse link logic_arc_int__baselibs__memory_shared to comp_arc_sta__baselibs__memory_shared--><g id="link_logic_arc_int__baselibs__memory_shared_comp_arc_sta__baselibs__memory_shared"><path codeLine="42" d="M771.4777,204.7317 C773.1377,225.9617 775.33,253.94 776.99,275.19 " fill="transparent" id="logic_arc_int__baselibs__memory_shared-backto-comp_arc_sta__baselibs__memory_shared" style="stroke:#181818;stroke-width:1;"/><polygon fill="#181818" points="771.01,198.75,767.7238,208.0344,771.3998,203.7348,775.6994,207.4108,771.01,198.75" style="stroke:#181818;stroke-width:1;"/><text fill="#000000" font-family="sans-serif" font-size="13" lengthAdjust="spacing" textLength="76.9082" x="776.5" y="241.5669">implements</text></g><!--link Feature_User to logic_arc_int__baselibs__future--><g id="link_Feature_User_logic_arc_int__baselibs__future"><path codeLine="43" d="M2961.29,47.17 C2783.35,57.86 2114.16,99.88 1565.5,158.5 C1559.85,159.1 1560.0396,159.0549 1554.2096,159.7349 " fill="transparent" id="Feature_User-to-logic_arc_int__baselibs__future" style="stroke:#181818;stroke-width:1;"/><polygon fill="#181818" points="1548.25,160.43,1557.6528,163.3604,1553.2163,159.8507,1556.726,155.4143,1548.25,160.43" style="stroke:#181818;stroke-width:1;"/><text fill="#000000" font-family="sans-serif" font-size="13" lengthAdjust="spacing" textLength="23.0103" x="2041.5" y="124.5669">use</text></g><!--link Feature_User to logic_arc_int__baselibs__bit_manipulation--><g id="link_Feature_User_logic_arc_int__baselibs__bit_manipulation"><path codeLine="44" d="M3051.83,46.52 C3255.89,55.81 4109.85,96.56 4808.5,158.5 C4814.26,159.01 4814.1457,158.995 4820.0657,159.545 " fill="transparent" id="Feature_User-to-logic_arc_int__baselibs__bit_manipulation" style="stroke:#181818;stroke-width:1;"/><polygon fill="#181818" points="4826.04,160.1,4817.4486,155.2846,4821.0614,159.6375,4816.7086,163.2503,4826.04,160.1" style="stroke:#181818;stroke-width:1;"/><text fill="#000000" font-family="sans-serif" font-size="13" lengthAdjust="spacing" textLength="23.0103" x="4414.5" y="124.5669">use</text></g><!--reverse link logic_arc_int__baselibs__filesystem to comp_arc_sta__baselibs__filesystem--><g id="link_logic_arc_int__baselibs__filesystem_comp_arc_sta__baselibs__filesystem"><path codeLine="45" d="M437.5,204.75 C437.5,225.98 437.5,253.94 437.5,275.19 " fill="transparent" id="logic_arc_int__baselibs__filesystem-backto-comp_arc_sta__baselibs__filesystem" style="stroke:#181818;stroke-width:1;"/><polygon fill="#181818" points="437.5,198.75,433.5,207.75,437.5,203.75,441.5,207.75,437.5,198.75" style="stroke:#181818;stroke-width:1;"/><text fill="#000000" font-family="sans-serif" font-size="13" lengthAdjust="spacing" textLength="76.9082" x="438.5" y="241.5669">implements</text></g><!--reverse link logic_arc_int__baselibs__synchronized_queue to comp_arc_sta__baselibs__concurrency--><g id="link_logic_arc_int__baselibs__synchronized_queue_comp_arc_sta__baselibs__concurrency"><path codeLine="46" d="M2871.7339,199.423 C2781.0939,212.753 2662.88,230 2553.5,245.5 C2482.31,255.59 2403.06,266.52 2337.45,275.5 " fill="transparent" id="logic_arc_int__baselibs__synchronized_queue-backto-comp_arc_sta__baselibs__concurrency" style="stroke:#181818;stroke-width:1;"/><polygon fill="#181818" points="2877.67,198.55,2868.1838,195.9021,2872.7232,199.2775,2869.3478,203.8169,2877.67,198.55" style="stroke:#181818;stroke-width:1;"/><text fill="#000000" font-family="sans-serif" font-size="13" lengthAdjust="spacing" textLength="76.9082" x="2665.5" y="241.5669">implements</text></g><!--link Feature_User to logic_arc_int__baselibs__task_result--><g id="link_Feature_User_logic_arc_int__baselibs__task_result"><path codeLine="47" d="M2961.44,51.05 C2827.9,70.46 2436.5676,127.3469 2228.2476,157.6269 " fill="transparent" id="Feature_User-to-logic_arc_int__baselibs__task_result" style="stroke:#181818;stroke-width:1;"/><polygon fill="#181818" points="2222.31,158.49,2231.7918,161.1538,2227.258,157.7708,2230.641,153.237,2222.31,158.49" style="stroke:#181818;stroke-width:1;"/><text fill="#000000" font-family="sans-serif" font-size="13" lengthAdjust="spacing" textLength="23.0103" x="2522.5" y="124.5669">use</text></g><!--reverse link logic_arc_int__baselibs__result to comp_arc_sta__baselibs__result--><g id="link_logic_arc_int__baselibs__result_comp_arc_sta__baselibs__result"><path codeLine="48" d="M137.4002,204.7444 C136.4802,225.9744 135.26,253.94 134.34,275.19 " fill="transparent" id="logic_arc_int__baselibs__result-backto-comp_arc_sta__baselibs__result" style="stroke:#181818;stroke-width:1;"/><polygon fill="#181818" points="137.66,198.75,133.2741,207.5684,137.4435,203.7453,141.2666,207.9147,137.66,198.75" style="stroke:#181818;stroke-width:1;"/><text fill="#000000" font-family="sans-serif" font-size="13" lengthAdjust="spacing" textLength="76.9082" x="137.5" y="241.5669">implements</text></g><!--link Feature_User to logic_arc_int__baselibs__dynamic_array--><g id="link_Feature_User_logic_arc_int__baselibs__dynamic_array"><path codeLine="49" d="M3051.62,53.54 C3158.74,74.99 3424.3869,128.2014 3569.5969,157.2914 " fill="transparent" id="Feature_User-to-logic_arc_int__baselibs__dynamic_array" style="stroke:#181818;stroke-width:1;"/><polygon fill="#181818" points="3575.48,158.47,3567.441,152.7801,3570.5774,157.4879,3565.8696,160.6242,3575.48,158.47" style="stroke:#181818;stroke-width:1;"/><text fill="#000000" font-family="sans-serif" font-size="13" lengthAdjust="spacing" textLength="23.0103" x="3418.5" y="124.5669">use</text></g><!--link Feature_User to logic_arc_int__baselibs__memory_shared--><g id="link_Feature_User_logic_arc_int__baselibs__memory_shared"><path codeLine="50" d="M2961.46,45.89 C2740.84,52.94 1752.25,87.18 945.5,158.5 C939.99,158.99 940.3539,158.9406 934.6939,159.4706 " fill="transparent" id="Feature_User-to-logic_arc_int__baselibs__memory_shared" style="stroke:#181818;stroke-width:1;"/><polygon fill="#181818" points="928.72,160.03,938.0537,163.1735,933.6982,159.5638,937.3079,155.2083,928.72,160.03" style="stroke:#181818;stroke-width:1;"/><text fill="#000000" font-family="sans-serif" font-size="13" lengthAdjust="spacing" textLength="23.0103" x="1569.5" y="124.5669">use</text></g><!--reverse link logic_arc_int__baselibs__task_result to comp_arc_sta__baselibs__concurrency--><g id="link_logic_arc_int__baselibs__task_result_comp_arc_sta__baselibs__concurrency"><path codeLine="51" d="M2113.3067,203.1616 C2132.8767,224.3916 2160.11,253.94 2179.7,275.19 " fill="transparent" id="logic_arc_int__baselibs__task_result-backto-comp_arc_sta__baselibs__concurrency" style="stroke:#181818;stroke-width:1;"/><polygon fill="#181818" points="2109.24,198.75,2112.3989,208.0785,2112.6289,202.4263,2118.2811,202.6563,2109.24,198.75" style="stroke:#181818;stroke-width:1;"/><text fill="#000000" font-family="sans-serif" font-size="13" lengthAdjust="spacing" textLength="76.9082" x="2152.5" y="241.5669">implements</text></g><!--link Feature_User to logic_arc_int__baselibs__task--><g id="link_Feature_User_logic_arc_int__baselibs__task"><path codeLine="52" d="M2961.17,62.99 C2899.5,88.15 2795.2656,130.684 2732.8456,156.144 " fill="transparent" id="Feature_User-to-logic_arc_int__baselibs__task" style="stroke:#181818;stroke-width:1;"/><polygon fill="#181818" points="2727.29,158.41,2737.1341,158.7147,2731.9197,156.5216,2734.1128,151.3072,2727.29,158.41" style="stroke:#181818;stroke-width:1;"/><text fill="#000000" font-family="sans-serif" font-size="13" lengthAdjust="spacing" textLength="23.0103" x="2834.5" y="124.5669">use</text></g><!--SRC=[hLPDRzGm4BtxLrYzRq48SK1LBqYSUeIpvJZJtQ7-29vnQK3yTvniq2RRRPsaETePZzzxypmJRMtufHm-eTyB3eta8Al079oiCO9X35uSi0P93142jmqSr-0QRgLcZbWb1X8tnAs5Mt6j2Mqb_uWxzF0bs11bXBfVVJkWUV1093zSlnT_nSsxuOpGXdFSrLVGd2B8xmJnIcgImuRgDgGG9hX6wMWKiLQgqWGMArBA16zIZE1DAtTfTojjsAFf8z7pEBA9mI71PuckiU30CqankMLNppgV21OT_4713wTUOk6oCdeFgj54kHu59cVHgnbbxMhiwgmUTKHTsHNadc5vbMU5h9pss2IhkuiBH8_XzA120r5ddwoccfSn4Jw2iaXSG3dVK_Uf0p15zLBMn6YfaA-FwTUVFixBEXyhF859Rz4m0YLRqcu-IpAvgdKkxMf09qPBNKkjDuSOFFxE27ucI52s1ElSnsA9MzrwxVfFKRVpIjZrXqBMOmjPATE5LxHKhwalDteybzhFIehF7BKHH3heFC4kFlC5wExH0hLvZBgjN7RUphRj59pDifhicMJRZuDJ-3pU3bo8xO2hE5b7iUlhFUQ- -A6E-RsgtibMfIaryj-sJhdKHrUArfbkteWv1XMG_S-q4irP6r_-LpJnqKRTQ2BH6sGU0Fq3]--></g></svg>