<svg xmlns="http://www.w3.org/2000/svg" xmlns:xlink="http://www.w3.org/1999/xlink" contentStyleType="text/css" data-diagram-type="CLASS" height="322px" preserveAspectRatio="none" style="width:6200px;height:322px;background:#FFFFFF;" version="1.1" viewBox="0 0 6200 322" width="6200px" zoomAndPan="magnify"><defs/><g><!--entity Feature_User--><g id="elem_Feature_User"><ellipse cx="3202.6685" cy="14" fill="#F1F1F1" rx="8" ry="8" style="stroke:#181818;stroke-width:0.5;"/><path d="M3202.6685,22 L3202.6685,49 M3189.6685,30 L3215.6685,30 M3202.6685,49 L3189.6685,64 M3202.6685,49 L3215.6685,64 " fill="transparent" style="stroke:#181818;stroke-width:0.5;"/><text fill="#000000" font-family="sans-serif" font-size="14" lengthAdjust="spacing" textLength="90.3369" x="3157.5" y="78.4951">Feature User</text></g><!--class comp_arc_sta__baselibs__utils--><g id="elem_comp_arc_sta__baselibs__utils"><rect fill="#F1F1F1" height="40" id="comp_arc_sta__baselibs__utils" rx="2.5" ry="2.5" style="stroke:#181818;stroke-width:0.5;" width="242.9502" x="5445" y="275.5"/><ellipse cx="5460" cy="291.5" fill="#ADD1B2" rx="11" ry="11" style="stroke:#181818;stroke-width:1;"/><path d="M5462.9688,297.1406 Q5462.3906,297.4375 5461.75,297.5781 Q5461.1094,297.7344 5460.4063,297.7344 Q5457.9063,297.7344 5456.5781,296.0938 Q5455.2656,294.4375 5455.2656,291.3125 Q5455.2656,288.1875 5456.5781,286.5313 Q5457.9063,284.875 5460.4063,284.875 Q5461.1094,284.875 5461.75,285.0313 Q5462.4063,285.1875 5462.9688,285.4844 L5462.9688,288.2031 Q5462.3438,287.625 5461.75,287.3594 Q5461.1563,287.0781 5460.5313,287.0781 Q5459.1875,287.0781 5458.5,288.1563 Q5457.8125,289.2188 5457.8125,291.3125 Q5457.8125,293.4063 5458.5,294.4844 Q5459.1875,295.5469 5460.5313,295.5469 Q5461.1563,295.5469 5461.75,295.2813 Q5462.3438,295 5462.9688,294.4219 L5462.9688,297.1406 Z " fill="#000000"/><text fill="#000000" font-family="sans-serif" font-size="14" lengthAdjust="spacing" textLength="210.9502" x="5474" y="296.3467">comp_arc_sta__baselibs__utils</text><line style="stroke:#181818;stroke-width:0.5;" x1="5446" x2="5686.9502" y1="307.5" y2="307.5"/></g><!--class logic_arc_int__baselibs__utils_base64--><g id="elem_logic_arc_int__baselibs__utils_base64"><rect fill="#F1F1F1" height="40" id="logic_arc_int__baselibs__utils_base64" rx="2.5" ry="2.5" style="stroke:#181818;stroke-width:0.5;" width="292.1689" x="5617.5" y="158.5"/><ellipse cx="5632.5" cy="174.5" fill="#ADD1B2" rx="11" ry="11" style="stroke:#181818;stroke-width:1;"/><path d="M5635.4688,180.1406 Q5634.8906,180.4375 5634.25,180.5781 Q5633.6094,180.7344 5632.9063,180.7344 Q5630.4063,180.7344 5629.0781,179.0938 Q5627.7656,177.4375 5627.7656,174.3125 Q5627.7656,171.1875 5629.0781,169.5313 Q5630.4063,167.875 5632.9063,167.875 Q5633.6094,167.875 5634.25,168.0313 Q5634.9063,168.1875 5635.4688,168.4844 L5635.4688,171.2031 Q5634.8438,170.625 5634.25,170.3594 Q5633.6563,170.0781 5633.0313,170.0781 Q5631.6875,170.0781 5631,171.1563 Q5630.3125,172.2188 5630.3125,174.3125 Q5630.3125,176.4063 5631,177.4844 Q5631.6875,178.5469 5633.0313,178.5469 Q5633.6563,178.5469 5634.25,178.2813 Q5634.8438,178 5635.4688,177.4219 L5635.4688,180.1406 Z " fill="#000000"/><text fill="#000000" font-family="sans-serif" font-size="14" lengthAdjust="spacing" textLength="260.1689" x="5646.5" y="179.3467">logic_arc_int__baselibs__utils_base64</text><line style="stroke:#181818;stroke-width:0.5;" x1="5618.5" x2="5908.6689" y1="190.5" y2="190.5"/></g><!--class logic_arc_int__baselibs__bit_mask_operator--><g id="elem_logic_arc_int__baselibs__bit_mask_operator"><rect fill="#F1F1F1" height="40" id="logic_arc_int__baselibs__bit_mask_operator" rx="2.5" ry="2.5" style="stroke:#181818;stroke-width:0.5;" width="334.6406" x="1049" y="158.5"/><ellipse cx="1064" cy="174.5" fill="#ADD1B2" rx="11" ry="11" style="stroke:#181818;stroke-width:1;"/><path d="M1066.9688,180.1406 Q1066.3906,180.4375 1065.75,180.5781 Q1065.1094,180.7344 1064.4063,180.7344 Q1061.9063,180.7344 1060.5781,179.0938 Q1059.2656,177.4375 1059.2656,174.3125 Q1059.2656,171.1875 1060.5781,169.5313 Q1061.9063,167.875 1064.4063,167.875 Q1065.1094,167.875 1065.75,168.0313 Q1066.4063,168.1875 1066.9688,168.4844 L1066.9688,171.2031 Q1066.3438,170.625 1065.75,170.3594 Q1065.1563,170.0781 1064.5313,170.0781 Q1063.1875,170.0781 1062.5,171.1563 Q1061.8125,172.2188 1061.8125,174.3125 Q1061.8125,176.4063 1062.5,177.4844 Q1063.1875,178.5469 1064.5313,178.5469 Q1065.1563,178.5469 1065.75,178.2813 Q1066.3438,178 1066.9688,177.4219 L1066.9688,180.1406 Z " fill="#000000"/><text fill="#000000" font-family="sans-serif" font-size="14" lengthAdjust="spacing" textLength="302.6406" x="1078" y="179.3467">logic_arc_int__baselibs__bit_mask_operator</text><line style="stroke:#181818;stroke-width:0.5;" x1="1050" x2="1382.6406" y1="190.5" y2="190.5"/></g><!--class logic_arc_int__baselibs__future--><g id="elem_logic_arc_int__baselibs__future"><rect fill="#F1F1F1" height="40" id="logic_arc_int__baselibs__future" rx="2.5" ry="2.5" style="stroke:#181818;stroke-width:0.5;" width="247.0791" x="3079" y="158.5"/><ellipse cx="3094" cy="174.5" fill="#ADD1B2" rx="11" ry="11" style="stroke:#181818;stroke-width:1;"/><path d="M3096.9688,180.1406 Q3096.3906,180.4375 3095.75,180.5781 Q3095.1094,180.7344 3094.4063,180.7344 Q3091.9063,180.7344 3090.5781,179.0938 Q3089.2656,177.4375 3089.2656,174.3125 Q3089.2656,171.1875 3090.5781,169.5313 Q3091.9063,167.875 3094.4063,167.875 Q3095.1094,167.875 3095.75,168.0313 Q3096.4063,168.1875 3096.9688,168.4844 L3096.9688,171.2031 Q3096.3438,170.625 3095.75,170.3594 Q3095.1563,170.0781 3094.5313,170.0781 Q3093.1875,170.0781 3092.5,171.1563 Q3091.8125,172.2188 3091.8125,174.3125 Q3091.8125,176.4063 3092.5,177.4844 Q3093.1875,178.5469 3094.5313,178.5469 Q3095.1563,178.5469 3095.75,178.2813 Q3096.3438,178 3096.9688,177.4219 L3096.9688,180.1406 Z " fill="#000000"/><text fill="#000000" font-family="sans-serif" font-size="14" lengthAdjust="spacing" textLength="215.0791" x="3108" y="179.3467">logic_arc_int__baselibs__future</text><line style="stroke:#181818;stroke-width:0.5;" x1="3080" x2="3325.0791" y1="190.5" y2="190.5"/></g><!--class comp_arc_sta__baselibs__concurrency--><g id="elem_comp_arc_sta__baselibs__concurrency"><rect fill="#F1F1F1" height="40" id="comp_arc_sta__baselibs__concurrency" rx="2.5" ry="2.5" style="stroke:#181818;stroke-width:0.5;" width="300.2012" x="2503.5" y="275.5"/><ellipse cx="2518.5" cy="291.5" fill="#ADD1B2" rx="11" ry="11" style="stroke:#181818;stroke-width:1;"/><path d="M2521.4688,297.1406 Q2520.8906,297.4375 2520.25,297.5781 Q2519.6094,297.7344 2518.9063,297.7344 Q2516.4063,297.7344 2515.0781,296.0938 Q2513.7656,294.4375 2513.7656,291.3125 Q2513.7656,288.1875 2515.0781,286.5313 Q2516.4063,284.875 2518.9063,284.875 Q2519.6094,284.875 2520.25,285.0313 Q2520.9063,285.1875 2521.4688,285.4844 L2521.4688,288.2031 Q2520.8438,287.625 2520.25,287.3594 Q2519.6563,287.0781 2519.0313,287.0781 Q2517.6875,287.0781 2517,288.1563 Q2516.3125,289.2188 2516.3125,291.3125 Q2516.3125,293.4063 2517,294.4844 Q2517.6875,295.5469 2519.0313,295.5469 Q2519.6563,295.5469 2520.25,295.2813 Q2520.8438,295 2521.4688,294.4219 L2521.4688,297.1406 Z " fill="#000000"/><text fill="#000000" font-family="sans-serif" font-size="14" lengthAdjust="spacing" textLength="268.2012" x="2532.5" y="296.3467">comp_arc_sta__baselibs__concurrency</text><line style="stroke:#181818;stroke-width:0.5;" x1="2504.5" x2="2802.7012" y1="307.5" y2="307.5"/></g><!--class logic_arc_int__baselibs__condition_variable--><g id="elem_logic_arc_int__baselibs__condition_variable"><rect fill="#F1F1F1" height="40" id="logic_arc_int__baselibs__condition_variable" rx="2.5" ry="2.5" style="stroke:#181818;stroke-width:0.5;" width="332.7539" x="2072" y="158.5"/><ellipse cx="2087" cy="174.5" fill="#ADD1B2" rx="11" ry="11" style="stroke:#181818;stroke-width:1;"/><path d="M2089.9688,180.1406 Q2089.3906,180.4375 2088.75,180.5781 Q2088.1094,180.7344 2087.4063,180.7344 Q2084.9063,180.7344 2083.5781,179.0938 Q2082.2656,177.4375 2082.2656,174.3125 Q2082.2656,171.1875 2083.5781,169.5313 Q2084.9063,167.875 2087.4063,167.875 Q2088.1094,167.875 2088.75,168.0313 Q2089.4063,168.1875 2089.9688,168.4844 L2089.9688,171.2031 Q2089.3438,170.625 2088.75,170.3594 Q2088.1563,170.0781 2087.5313,170.0781 Q2086.1875,170.0781 2085.5,171.1563 Q2084.8125,172.2188 2084.8125,174.3125 Q2084.8125,176.4063 2085.5,177.4844 Q2086.1875,178.5469 2087.5313,178.5469 Q2088.1563,178.5469 2088.75,178.2813 Q2089.3438,178 2089.9688,177.4219 L2089.9688,180.1406 Z " fill="#000000"/><text fill="#000000" font-family="sans-serif" font-size="14" lengthAdjust="spacing" textLength="300.7539" x="2101" y="179.3467">logic_arc_int__baselibs__condition_variable</text><line style="stroke:#181818;stroke-width:0.5;" x1="2073" x2="2403.7539" y1="190.5" y2="190.5"/></g><!--class logic_arc_int__baselibs__intrusive_list--><g id="elem_logic_arc_int__baselibs__intrusive_list"><rect fill="#F1F1F1" height="40" id="logic_arc_int__baselibs__intrusive_list" rx="2.5" ry="2.5" style="stroke:#181818;stroke-width:0.5;" width="293.0713" x="4317" y="158.5"/><ellipse cx="4332" cy="174.5" fill="#ADD1B2" rx="11" ry="11" style="stroke:#181818;stroke-width:1;"/><path d="M4334.9688,180.1406 Q4334.3906,180.4375 4333.75,180.5781 Q4333.1094,180.7344 4332.4063,180.7344 Q4329.9063,180.7344 4328.5781,179.0938 Q4327.2656,177.4375 4327.2656,174.3125 Q4327.2656,171.1875 4328.5781,169.5313 Q4329.9063,167.875 4332.4063,167.875 Q4333.1094,167.875 4333.75,168.0313 Q4334.4063,168.1875 4334.9688,168.4844 L4334.9688,171.2031 Q4334.3438,170.625 4333.75,170.3594 Q4333.1563,170.0781 4332.5313,170.0781 Q4331.1875,170.0781 4330.5,171.1563 Q4329.8125,172.2188 4329.8125,174.3125 Q4329.8125,176.4063 4330.5,177.4844 Q4331.1875,178.5469 4332.5313,178.5469 Q4333.1563,178.5469 4333.75,178.2813 Q4334.3438,178 4334.9688,177.4219 L4334.9688,180.1406 Z " fill="#000000"/><text fill="#000000" font-family="sans-serif" font-size="14" lengthAdjust="spacing" textLength="261.0713" x="4346" y="179.3467">logic_arc_int__baselibs__intrusive_list</text><line style="stroke:#181818;stroke-width:0.5;" x1="4318" x2="4609.0713" y1="190.5" y2="190.5"/></g><!--class comp_arc_sta__baselibs__result--><g id="elem_comp_arc_sta__baselibs__result"><rect fill="#F1F1F1" height="40" id="comp_arc_sta__baselibs__result" rx="2.5" ry="2.5" style="stroke:#181818;stroke-width:0.5;" width="253.4297" x="5940" y="275.5"/><ellipse cx="5955" cy="291.5" fill="#ADD1B2" rx="11" ry="11" style="stroke:#181818;stroke-width:1;"/><path d="M5957.9688,297.1406 Q5957.3906,297.4375 5956.75,297.5781 Q5956.1094,297.7344 5955.4063,297.7344 Q5952.9063,297.7344 5951.5781,296.0938 Q5950.2656,294.4375 5950.2656,291.3125 Q5950.2656,288.1875 5951.5781,286.5313 Q5952.9063,284.875 5955.4063,284.875 Q5956.1094,284.875 5956.75,285.0313 Q5957.4063,285.1875 5957.9688,285.4844 L5957.9688,288.2031 Q5957.3438,287.625 5956.75,287.3594 Q5956.1563,287.0781 5955.5313,287.0781 Q5954.1875,287.0781 5953.5,288.1563 Q5952.8125,289.2188 5952.8125,291.3125 Q5952.8125,293.4063 5953.5,294.4844 Q5954.1875,295.5469 5955.5313,295.5469 Q5956.1563,295.5469 5956.75,295.2813 Q5957.3438,295 5957.9688,294.4219 L5957.9688,297.1406 Z " fill="#000000"/><text fill="#000000" font-family="sans-serif" font-size="14" lengthAdjust="spacing" textLength="221.4297" x="5969" y="296.3467">comp_arc_sta__baselibs__result</text><line style="stroke:#181818;stroke-width:0.5;" x1="5941" x2="6192.4297" y1="307.5" y2="307.5"/></g><!--class logic_arc_int__baselibs__result--><g id="elem_logic_arc_int__baselibs__result"><rect fill="#F1F1F1" height="40" id="logic_arc_int__baselibs__result" rx="2.5" ry="2.5" style="stroke:#181818;stroke-width:0.5;" width="244.4609" x="5944.5" y="158.5"/><ellipse cx="5959.5" cy="174.5" fill="#ADD1B2" rx="11" ry="11" style="stroke:#181818;stroke-width:1;"/><path d="M5962.4688,180.1406 Q5961.8906,180.4375 5961.25,180.5781 Q5960.6094,180.7344 5959.9063,180.7344 Q5957.4063,180.7344 5956.0781,179.0938 Q5954.7656,177.4375 5954.7656,174.3125 Q5954.7656,171.1875 5956.0781,169.5313 Q5957.4063,167.875 5959.9063,167.875 Q5960.6094,167.875 5961.25,168.0313 Q5961.9063,168.1875 5962.4688,168.4844 L5962.4688,171.2031 Q5961.8438,170.625 5961.25,170.3594 Q5960.6563,170.0781 5960.0313,170.0781 Q5958.6875,170.0781 5958,171.1563 Q5957.3125,172.2188 5957.3125,174.3125 Q5957.3125,176.4063 5958,177.4844 Q5958.6875,178.5469 5960.0313,178.5469 Q5960.6563,178.5469 5961.25,178.2813 Q5961.8438,178 5962.4688,177.4219 L5962.4688,180.1406 Z " fill="#000000"/><text fill="#000000" font-family="sans-serif" font-size="14" lengthAdjust="spacing" textLength="212.4609" x="5973.5" y="179.3467">logic_arc_int__baselibs__result</text><line style="stroke:#181818;stroke-width:0.5;" x1="5945.5" x2="6187.9609" y1="190.5" y2="190.5"/></g><!--class comp_arc_sta__baselibs__containers--><g id="elem_comp_arc_sta__baselibs__containers"><rect fill="#F1F1F1" height="40" id="comp_arc_sta__baselibs__containers" rx="2.5" ry="2.5" style="stroke:#181818;stroke-width:0.5;" width="287.1445" x="4124" y="275.5"/><ellipse cx="4139" cy="291.5" fill="#ADD1B2" rx="11" ry="11" style="stroke:#181818;stroke-width:1;"/><path d="M4141.9688,297.1406 Q4141.3906,297.4375 4140.75,297.5781 Q4140.1094,297.7344 4139.4063,297.7344 Q4136.9063,297.7344 4135.5781,296.0938 Q4134.2656,294.4375 4134.2656,291.3125 Q4134.2656,288.1875 4135.5781,286.5313 Q4136.9063,284.875 4139.4063,284.875 Q4140.1094,284.875 4140.75,285.0313 Q4141.4063,285.1875 4141.9688,285.4844 L4141.9688,288.2031 Q4141.3438,287.625 4140.75,287.3594 Q4140.1563,287.0781 4139.5313,287.0781 Q4138.1875,287.0781 4137.5,288.1563 Q4136.8125,289.2188 4136.8125,291.3125 Q4136.8125,293.4063 4137.5,294.4844 Q4138.1875,295.5469 4139.5313,295.5469 Q4140.1563,295.5469 4140.75,295.2813 Q4141.3438,295 4141.9688,294.4219 L4141.9688,297.1406 Z " fill="#000000"/><text fill="#000000" font-family="sans-serif" font-size="14" lengthAdjust="spacing" textLength="255.1445" x="4153" y="296.3467">comp_arc_sta__baselibs__containers</text><line style="stroke:#181818;stroke-width:0.5;" x1="4125" x2="4410.1445" y1="307.5" y2="307.5"/></g><!--class comp_arc_sta__baselibs__memory_shared--><g id="elem_comp_arc_sta__baselibs__memory_shared"><rect fill="#F1F1F1" height="40" id="comp_arc_sta__baselibs__memory_shared" rx="2.5" ry="2.5" style="stroke:#181818;stroke-width:0.5;" width="327.0117" x="4913" y="275.5"/><ellipse cx="4928" cy="291.5" fill="#ADD1B2" rx="11" ry="11" style="stroke:#181818;stroke-width:1;"/><path d="M4930.9688,297.1406 Q4930.3906,297.4375 4929.75,297.5781 Q4929.1094,297.7344 4928.4063,297.7344 Q4925.9063,297.7344 4924.5781,296.0938 Q4923.2656,294.4375 4923.2656,291.3125 Q4923.2656,288.1875 4924.5781,286.5313 Q4925.9063,284.875 4928.4063,284.875 Q4929.1094,284.875 4929.75,285.0313 Q4930.4063,285.1875 4930.9688,285.4844 L4930.9688,288.2031 Q4930.3438,287.625 4929.75,287.3594 Q4929.1563,287.0781 4928.5313,287.0781 Q4927.1875,287.0781 4926.5,288.1563 Q4925.8125,289.2188 4925.8125,291.3125 Q4925.8125,293.4063 4926.5,294.4844 Q4927.1875,295.5469 4928.5313,295.5469 Q4929.1563,295.5469 4929.75,295.2813 Q4930.3438,295 4930.9688,294.4219 L4930.9688,297.1406 Z " fill="#000000"/><text fill="#000000" font-family="sans-serif" font-size="14" lengthAdjust="spacing" textLength="295.0117" x="4942" y="296.3467">comp_arc_sta__baselibs__memory_shared</text><line style="stroke:#181818;stroke-width:0.5;" x1="4914" x2="5239.0117" y1="307.5" y2="307.5"/></g><!--class logic_arc_int__baselibs__memory_shared--><g id="elem_logic_arc_int__baselibs__memory_shared"><rect fill="#F1F1F1" height="40" id="logic_arc_int__baselibs__memory_shared" rx="2.5" ry="2.5" style="stroke:#181818;stroke-width:0.5;" width="318.043" x="4913.5" y="158.5"/><ellipse cx="4928.5" cy="174.5" fill="#ADD1B2" rx="11" ry="11" style="stroke:#181818;stroke-width:1;"/><path d="M4931.4688,180.1406 Q4930.8906,180.4375 4930.25,180.5781 Q4929.6094,180.7344 4928.9063,180.7344 Q4926.4063,180.7344 4925.0781,179.0938 Q4923.7656,177.4375 4923.7656,174.3125 Q4923.7656,171.1875 4925.0781,169.5313 Q4926.4063,167.875 4928.9063,167.875 Q4929.6094,167.875 4930.25,168.0313 Q4930.9063,168.1875 4931.4688,168.4844 L4931.4688,171.2031 Q4930.8438,170.625 4930.25,170.3594 Q4929.6563,170.0781 4929.0313,170.0781 Q4927.6875,170.0781 4927,171.1563 Q4926.3125,172.2188 4926.3125,174.3125 Q4926.3125,176.4063 4927,177.4844 Q4927.6875,178.5469 4929.0313,178.5469 Q4929.6563,178.5469 4930.25,178.2813 Q4930.8438,178 4931.4688,177.4219 L4931.4688,180.1406 Z " fill="#000000"/><text fill="#000000" font-family="sans-serif" font-size="14" lengthAdjust="spacing" textLength="286.043" x="4942.5" y="179.3467">logic_arc_int__baselibs__memory_shared</text><line style="stroke:#181818;stroke-width:0.5;" x1="4914.5" x2="5230.543" y1="190.5" y2="190.5"/></g><!--class logic_arc_int__baselibs__task_result--><g id="elem_logic_arc_int__baselibs__task_result"><rect fill="#F1F1F1" height="40" id="logic_arc_int__baselibs__task_result" rx="2.5" ry="2.5" style="stroke:#181818;stroke-width:0.5;" width="280.9307" x="3657" y="158.5"/><ellipse cx="3672" cy="174.5" fill="#ADD1B2" rx="11" ry="11" style="stroke:#181818;stroke-width:1;"/><path d="M3674.9688,180.1406 Q3674.3906,180.4375 3673.75,180.5781 Q3673.1094,180.7344 3672.4063,180.7344 Q3669.9063,180.7344 3668.5781,179.0938 Q3667.2656,177.4375 3667.2656,174.3125 Q3667.2656,171.1875 3668.5781,169.5313 Q3669.9063,167.875 3672.4063,167.875 Q3673.1094,167.875 3673.75,168.0313 Q3674.4063,168.1875 3674.9688,168.4844 L3674.9688,171.2031 Q3674.3438,170.625 3673.75,170.3594 Q3673.1563,170.0781 3672.5313,170.0781 Q3671.1875,170.0781 3670.5,171.1563 Q3669.8125,172.2188 3669.8125,174.3125 Q3669.8125,176.4063 3670.5,177.4844 Q3671.1875,178.5469 3672.5313,178.5469 Q3673.1563,178.5469 3673.75,178.2813 Q3674.3438,178 3674.9688,177.4219 L3674.9688,180.1406 Z " fill="#000000"/><text fill="#000000" font-family="sans-serif" font-size="14" lengthAdjust="spacing" textLength="248.9307" x="3686" y="179.3467">logic_arc_int__baselibs__task_result</text><line style="stroke:#181818;stroke-width:0.5;" x1="3658" x2="3936.9307" y1="190.5" y2="190.5"/></g><!--class logic_arc_int__baselibs__bit_manipulation--><g id="elem_logic_arc_int__baselibs__bit_manipulation"><rect fill="#F1F1F1" height="40" id="logic_arc_int__baselibs__bit_manipulation" rx="2.5" ry="2.5" style="stroke:#181818;stroke-width:0.5;" width="321.8369" x="691.5" y="158.5"/><ellipse cx="706.5" cy="174.5" fill="#ADD1B2" rx="11" ry="11" style="stroke:#181818;stroke-width:1;"/><path d="M709.4688,180.1406 Q708.8906,180.4375 708.25,180.5781 Q707.6094,180.7344 706.9063,180.7344 Q704.4063,180.7344 703.0781,179.0938 Q701.7656,177.4375 701.7656,174.3125 Q701.7656,171.1875 703.0781,169.5313 Q704.4063,167.875 706.9063,167.875 Q707.6094,167.875 708.25,168.0313 Q708.9063,168.1875 709.4688,168.4844 L709.4688,171.2031 Q708.8438,170.625 708.25,170.3594 Q707.6563,170.0781 707.0313,170.0781 Q705.6875,170.0781 705,171.1563 Q704.3125,172.2188 704.3125,174.3125 Q704.3125,176.4063 705,177.4844 Q705.6875,178.5469 707.0313,178.5469 Q707.6563,178.5469 708.25,178.2813 Q708.8438,178 709.4688,177.4219 L709.4688,180.1406 Z " fill="#000000"/><text fill="#000000" font-family="sans-serif" font-size="14" lengthAdjust="spacing" textLength="289.8369" x="720.5" y="179.3467">logic_arc_int__baselibs__bit_manipulation</text><line style="stroke:#181818;stroke-width:0.5;" x1="692.5" x2="1012.3369" y1="190.5" y2="190.5"/></g><!--class logic_arc_int__baselibs__synchronized_queue--><g id="elem_logic_arc_int__baselibs__synchronized_queue"><rect fill="#F1F1F1" height="40" id="logic_arc_int__baselibs__synchronized_queue" rx="2.5" ry="2.5" style="stroke:#181818;stroke-width:0.5;" width="348.3604" x="1419.5" y="158.5"/><ellipse cx="1434.5" cy="174.5" fill="#ADD1B2" rx="11" ry="11" style="stroke:#181818;stroke-width:1;"/><path d="M1437.4688,180.1406 Q1436.8906,180.4375 1436.25,180.5781 Q1435.6094,180.7344 1434.9063,180.7344 Q1432.4063,180.7344 1431.0781,179.0938 Q1429.7656,177.4375 1429.7656,174.3125 Q1429.7656,171.1875 1431.0781,169.5313 Q1432.4063,167.875 1434.9063,167.875 Q1435.6094,167.875 1436.25,168.0313 Q1436.9063,168.1875 1437.4688,168.4844 L1437.4688,171.2031 Q1436.8438,170.625 1436.25,170.3594 Q1435.6563,170.0781 1435.0313,170.0781 Q1433.6875,170.0781 1433,171.1563 Q1432.3125,172.2188 1432.3125,174.3125 Q1432.3125,176.4063 1433,177.4844 Q1433.6875,178.5469 1435.0313,178.5469 Q1435.6563,178.5469 1436.25,178.2813 Q1436.8438,178 1437.4688,177.4219 L1437.4688,180.1406 Z " fill="#000000"/><text fill="#000000" font-family="sans-serif" font-size="14" lengthAdjust="spacing" textLength="316.3604" x="1448.5" y="179.3467">logic_arc_int__baselibs__synchronized_queue</text><line style="stroke:#181818;stroke-width:0.5;" x1="1420.5" x2="1766.8604" y1="190.5" y2="190.5"/></g><!--class logic_arc_int__baselibs__filesystem--><g id="elem_logic_arc_int__baselibs__filesystem"><rect fill="#F1F1F1" height="40" id="logic_arc_int__baselibs__filesystem" rx="2.5" ry="2.5" style="stroke:#181818;stroke-width:0.5;" width="276.4805" x="15.5" y="158.5"/><ellipse cx="30.5" cy="174.5" fill="#ADD1B2" rx="11" ry="11" style="stroke:#181818;stroke-width:1;"/><path d="M33.4688,180.1406 Q32.8906,180.4375 32.25,180.5781 Q31.6094,180.7344 30.9063,180.7344 Q28.4063,180.7344 27.0781,179.0938 Q25.7656,177.4375 25.7656,174.3125 Q25.7656,171.1875 27.0781,169.5313 Q28.4063,167.875 30.9063,167.875 Q31.6094,167.875 32.25,168.0313 Q32.9063,168.1875 33.4688,168.4844 L33.4688,171.2031 Q32.8438,170.625 32.25,170.3594 Q31.6563,170.0781 31.0313,170.0781 Q29.6875,170.0781 29,171.1563 Q28.3125,172.2188 28.3125,174.3125 Q28.3125,176.4063 29,177.4844 Q29.6875,178.5469 31.0313,178.5469 Q31.6563,178.5469 32.25,178.2813 Q32.8438,178 33.4688,177.4219 L33.4688,180.1406 Z " fill="#000000"/><text fill="#000000" font-family="sans-serif" font-size="14" lengthAdjust="spacing" textLength="244.4805" x="44.5" y="179.3467">logic_arc_int__baselibs__filesystem</text><line style="stroke:#181818;stroke-width:0.5;" x1="16.5" x2="290.9805" y1="190.5" y2="190.5"/></g><!--class logic_arc_int__baselibs__utils_scoped_op--><g id="elem_logic_arc_int__baselibs__utils_scoped_op"><rect fill="#F1F1F1" height="40" id="logic_arc_int__baselibs__utils_scoped_op" rx="2.5" ry="2.5" style="stroke:#181818;stroke-width:0.5;" width="315.377" x="5267" y="158.5"/><ellipse cx="5282" cy="174.5" fill="#ADD1B2" rx="11" ry="11" style="stroke:#181818;stroke-width:1;"/><path d="M5284.9688,180.1406 Q5284.3906,180.4375 5283.75,180.5781 Q5283.1094,180.7344 5282.4063,180.7344 Q5279.9063,180.7344 5278.5781,179.0938 Q5277.2656,177.4375 5277.2656,174.3125 Q5277.2656,171.1875 5278.5781,169.5313 Q5279.9063,167.875 5282.4063,167.875 Q5283.1094,167.875 5283.75,168.0313 Q5284.4063,168.1875 5284.9688,168.4844 L5284.9688,171.2031 Q5284.3438,170.625 5283.75,170.3594 Q5283.1563,170.0781 5282.5313,170.0781 Q5281.1875,170.0781 5280.5,171.1563 Q5279.8125,172.2188 5279.8125,174.3125 Q5279.8125,176.4063 5280.5,177.4844 Q5281.1875,178.5469 5282.5313,178.5469 Q5283.1563,178.5469 5283.75,178.2813 Q5284.3438,178 5284.9688,177.4219 L5284.9688,180.1406 Z " fill="#000000"/><text fill="#000000" font-family="sans-serif" font-size="14" lengthAdjust="spacing" textLength="283.377" x="5296" y="179.3467">logic_arc_int__baselibs__utils_scoped_op</text><line style="stroke:#181818;stroke-width:0.5;" x1="5268" x2="5581.377" y1="190.5" y2="190.5"/></g><!--class logic_arc_int__baselibs__task--><g id="elem_logic_arc_int__baselibs__task"><rect fill="#F1F1F1" height="40" id="logic_arc_int__baselibs__task" rx="2.5" ry="2.5" style="stroke:#181818;stroke-width:0.5;" width="234.0156" x="1802.5" y="158.5"/><ellipse cx="1817.5" cy="174.5" fill="#ADD1B2" rx="11" ry="11" style="stroke:#181818;stroke-width:1;"/><path d="M1820.4688,180.1406 Q1819.8906,180.4375 1819.25,180.5781 Q1818.6094,180.7344 1817.9063,180.7344 Q1815.4063,180.7344 1814.0781,179.0938 Q1812.7656,177.4375 1812.7656,174.3125 Q1812.7656,171.1875 1814.0781,169.5313 Q1815.4063,167.875 1817.9063,167.875 Q1818.6094,167.875 1819.25,168.0313 Q1819.9063,168.1875 1820.4688,168.4844 L1820.4688,171.2031 Q1819.8438,170.625 1819.25,170.3594 Q1818.6563,170.0781 1818.0313,170.0781 Q1816.6875,170.0781 1816,171.1563 Q1815.3125,172.2188 1815.3125,174.3125 Q1815.3125,176.4063 1816,177.4844 Q1816.6875,178.5469 1818.0313,178.5469 Q1818.6563,178.5469 1819.25,178.2813 Q1819.8438,178 1820.4688,177.4219 L1820.4688,180.1406 Z " fill="#000000"/><text fill="#000000" font-family="sans-serif" font-size="14" lengthAdjust="spacing" textLength="202.0156" x="1831.5" y="179.3467">logic_arc_int__baselibs__task</text><line style="stroke:#181818;stroke-width:0.5;" x1="1803.5" x2="2035.5156" y1="190.5" y2="190.5"/></g><!--class logic_arc_int__baselibs__message_passing--><g id="elem_logic_arc_int__baselibs__message_passing"><rect fill="#F1F1F1" height="40" id="logic_arc_int__baselibs__message_passing" rx="2.5" ry="2.5" style="stroke:#181818;stroke-width:0.5;" width="328.167" x="328.5" y="158.5"/><ellipse cx="343.5" cy="174.5" fill="#ADD1B2" rx="11" ry="11" style="stroke:#181818;stroke-width:1;"/><path d="M346.4688,180.1406 Q345.8906,180.4375 345.25,180.5781 Q344.6094,180.7344 343.9063,180.7344 Q341.4063,180.7344 340.0781,179.0938 Q338.7656,177.4375 338.7656,174.3125 Q338.7656,171.1875 340.0781,169.5313 Q341.4063,167.875 343.9063,167.875 Q344.6094,167.875 345.25,168.0313 Q345.9063,168.1875 346.4688,168.4844 L346.4688,171.2031 Q345.8438,170.625 345.25,170.3594 Q344.6563,170.0781 344.0313,170.0781 Q342.6875,170.0781 342,171.1563 Q341.3125,172.2188 341.3125,174.3125 Q341.3125,176.4063 342,177.4844 Q342.6875,178.5469 344.0313,178.5469 Q344.6563,178.5469 345.25,178.2813 Q345.8438,178 346.4688,177.4219 L346.4688,180.1406 Z " fill="#000000"/><text fill="#000000" font-family="sans-serif" font-size="14" lengthAdjust="spacing" textLength="296.167" x="357.5" y="179.3467">logic_arc_int__baselibs__message_passing</text><line style="stroke:#181818;stroke-width:0.5;" x1="329.5" x2="655.667" y1="190.5" y2="190.5"/></g><!--class comp_arc_sta__baselibs__json--><g id="elem_comp_arc_sta__baselibs__json"><rect fill="#F1F1F1" height="40" id="comp_arc_sta__baselibs__json" rx="2.5" ry="2.5" style="stroke:#181818;stroke-width:0.5;" width="242.1367" x="4635.5" y="275.5"/><ellipse cx="4650.5" cy="291.5" fill="#ADD1B2" rx="11" ry="11" style="stroke:#181818;stroke-width:1;"/><path d="M4653.4688,297.1406 Q4652.8906,297.4375 4652.25,297.5781 Q4651.6094,297.7344 4650.9063,297.7344 Q4648.4063,297.7344 4647.0781,296.0938 Q4645.7656,294.4375 4645.7656,291.3125 Q4645.7656,288.1875 4647.0781,286.5313 Q4648.4063,284.875 4650.9063,284.875 Q4651.6094,284.875 4652.25,285.0313 Q4652.9063,285.1875 4653.4688,285.4844 L4653.4688,288.2031 Q4652.8438,287.625 4652.25,287.3594 Q4651.6563,287.0781 4651.0313,287.0781 Q4649.6875,287.0781 4649,288.1563 Q4648.3125,289.2188 4648.3125,291.3125 Q4648.3125,293.4063 4649,294.4844 Q4649.6875,295.5469 4651.0313,295.5469 Q4651.6563,295.5469 4652.25,295.2813 Q4652.8438,295 4653.4688,294.4219 L4653.4688,297.1406 Z " fill="#000000"/><text fill="#000000" font-family="sans-serif" font-size="14" lengthAdjust="spacing" textLength="210.1367" x="4664.5" y="296.3467">comp_arc_sta__baselibs__json</text><line style="stroke:#181818;stroke-width:0.5;" x1="4636.5" x2="4876.6367" y1="307.5" y2="307.5"/></g><!--class logic_arc_int__baselibs__json--><g id="elem_logic_arc_int__baselibs__json"><rect fill="#F1F1F1" height="40" id="logic_arc_int__baselibs__json" rx="2.5" ry="2.5" style="stroke:#181818;stroke-width:0.5;" width="233.168" x="4645" y="158.5"/><ellipse cx="4660" cy="174.5" fill="#ADD1B2" rx="11" ry="11" style="stroke:#181818;stroke-width:1;"/><path d="M4662.9688,180.1406 Q4662.3906,180.4375 4661.75,180.5781 Q4661.1094,180.7344 4660.4063,180.7344 Q4657.9063,180.7344 4656.5781,179.0938 Q4655.2656,177.4375 4655.2656,174.3125 Q4655.2656,171.1875 4656.5781,169.5313 Q4657.9063,167.875 4660.4063,167.875 Q4661.1094,167.875 4661.75,168.0313 Q4662.4063,168.1875 4662.9688,168.4844 L4662.9688,171.2031 Q4662.3438,170.625 4661.75,170.3594 Q4661.1563,170.0781 4660.5313,170.0781 Q4659.1875,170.0781 4658.5,171.1563 Q4657.8125,172.2188 4657.8125,174.3125 Q4657.8125,176.4063 4658.5,177.4844 Q4659.1875,178.5469 4660.5313,178.5469 Q4661.1563,178.5469 4661.75,178.2813 Q4662.3438,178 4662.9688,177.4219 L4662.9688,180.1406 Z " fill="#000000"/><text fill="#000000" font-family="sans-serif" font-size="14" lengthAdjust="spacing" textLength="201.168" x="4674" y="179.3467">logic_arc_int__baselibs__json</text><line style="stroke:#181818;stroke-width:0.5;" x1="4646" x2="4877.168" y1="190.5" y2="190.5"/></g><!--class logic_arc_int__baselibs__dynamic_array--><g id="elem_logic_arc_int__baselibs__dynamic_array"><rect fill="#F1F1F1" height="40" id="logic_arc_int__baselibs__dynamic_array" rx="2.5" ry="2.5" style="stroke:#181818;stroke-width:0.5;" width="308.3496" x="3973.5" y="158.5"/><ellipse cx="3988.5" cy="174.5" fill="#ADD1B2" rx="11" ry="11" style="stroke:#181818;stroke-width:1;"/><path d="M3991.4688,180.1406 Q3990.8906,180.4375 3990.25,180.5781 Q3989.6094,180.7344 3988.9063,180.7344 Q3986.4063,180.7344 3985.0781,179.0938 Q3983.7656,177.4375 3983.7656,174.3125 Q3983.7656,171.1875 3985.0781,169.5313 Q3986.4063,167.875 3988.9063,167.875 Q3989.6094,167.875 3990.25,168.0313 Q3990.9063,168.1875 3991.4688,168.4844 L3991.4688,171.2031 Q3990.8438,170.625 3990.25,170.3594 Q3989.6563,170.0781 3989.0313,170.0781 Q3987.6875,170.0781 3987,171.1563 Q3986.3125,172.2188 3986.3125,174.3125 Q3986.3125,176.4063 3987,177.4844 Q3987.6875,178.5469 3989.0313,178.5469 Q3989.6563,178.5469 3990.25,178.2813 Q3990.8438,178 3991.4688,177.4219 L3991.4688,180.1406 Z " fill="#000000"/><text fill="#000000" font-family="sans-serif" font-size="14" lengthAdjust="spacing" textLength="276.3496" x="4002.5" y="179.3467">logic_arc_int__baselibs__dynamic_array</text><line style="stroke:#181818;stroke-width:0.5;" x1="3974.5" x2="4280.8496" y1="190.5" y2="190.5"/></g><!--class comp_arc_sta__baselibs__bit_manipulation--><g id="elem_comp_arc_sta__baselibs__bit_manipulation"><rect fill="#F1F1F1" height="40" id="comp_arc_sta__baselibs__bit_manipulation" rx="2.5" ry="2.5" style="stroke:#181818;stroke-width:0.5;" width="330.8057" x="814" y="275.5"/><ellipse cx="829" cy="291.5" fill="#ADD1B2" rx="11" ry="11" style="stroke:#181818;stroke-width:1;"/><path d="M831.9688,297.1406 Q831.3906,297.4375 830.75,297.5781 Q830.1094,297.7344 829.4063,297.7344 Q826.9063,297.7344 825.5781,296.0938 Q824.2656,294.4375 824.2656,291.3125 Q824.2656,288.1875 825.5781,286.5313 Q826.9063,284.875 829.4063,284.875 Q830.1094,284.875 830.75,285.0313 Q831.4063,285.1875 831.9688,285.4844 L831.9688,288.2031 Q831.3438,287.625 830.75,287.3594 Q830.1563,287.0781 829.5313,287.0781 Q828.1875,287.0781 827.5,288.1563 Q826.8125,289.2188 826.8125,291.3125 Q826.8125,293.4063 827.5,294.4844 Q828.1875,295.5469 829.5313,295.5469 Q830.1563,295.5469 830.75,295.2813 Q831.3438,295 831.9688,294.4219 L831.9688,297.1406 Z " fill="#000000"/><text fill="#000000" font-family="sans-serif" font-size="14" lengthAdjust="spacing" textLength="298.8057" x="843" y="296.3467">comp_arc_sta__baselibs__bit_manipulation</text><line style="stroke:#181818;stroke-width:0.5;" x1="815" x2="1143.8057" y1="307.5" y2="307.5"/></g><!--class logic_arc_int__baselibs__promise--><g id="elem_logic_arc_int__baselibs__promise"><rect fill="#F1F1F1" height="40" id="logic_arc_int__baselibs__promise" rx="2.5" ry="2.5" style="stroke:#181818;stroke-width:0.5;" width="261.1885" x="3361" y="158.5"/><ellipse cx="3376" cy="174.5" fill="#ADD1B2" rx="11" ry="11" style="stroke:#181818;stroke-width:1;"/><path d="M3378.9688,180.1406 Q3378.3906,180.4375 3377.75,180.5781 Q3377.1094,180.7344 3376.4063,180.7344 Q3373.9063,180.7344 3372.5781,179.0938 Q3371.2656,177.4375 3371.2656,174.3125 Q3371.2656,171.1875 3372.5781,169.5313 Q3373.9063,167.875 3376.4063,167.875 Q3377.1094,167.875 3377.75,168.0313 Q3378.4063,168.1875 3378.9688,168.4844 L3378.9688,171.2031 Q3378.3438,170.625 3377.75,170.3594 Q3377.1563,170.0781 3376.5313,170.0781 Q3375.1875,170.0781 3374.5,171.1563 Q3373.8125,172.2188 3373.8125,174.3125 Q3373.8125,176.4063 3374.5,177.4844 Q3375.1875,178.5469 3376.5313,178.5469 Q3377.1563,178.5469 3377.75,178.2813 Q3378.3438,178 3378.9688,177.4219 L3378.9688,180.1406 Z " fill="#000000"/><text fill="#000000" font-family="sans-serif" font-size="14" lengthAdjust="spacing" textLength="229.1885" x="3390" y="179.3467">logic_arc_int__baselibs__promise</text><line style="stroke:#181818;stroke-width:0.5;" x1="3362" x2="3621.1885" y1="190.5" y2="190.5"/></g><!--class comp_arc_sta__baselibs__message_passing--><g id="elem_comp_arc_sta__baselibs__message_passing"><rect fill="#F1F1F1" height="40" id="comp_arc_sta__baselibs__message_passing" rx="2.5" ry="2.5" style="stroke:#181818;stroke-width:0.5;" width="337.1357" x="327" y="275.5"/><ellipse cx="342" cy="291.5" fill="#ADD1B2" rx="11" ry="11" style="stroke:#181818;stroke-width:1;"/><path d="M344.9688,297.1406 Q344.3906,297.4375 343.75,297.5781 Q343.1094,297.7344 342.4063,297.7344 Q339.9063,297.7344 338.5781,296.0938 Q337.2656,294.4375 337.2656,291.3125 Q337.2656,288.1875 338.5781,286.5313 Q339.9063,284.875 342.4063,284.875 Q343.1094,284.875 343.75,285.0313 Q344.4063,285.1875 344.9688,285.4844 L344.9688,288.2031 Q344.3438,287.625 343.75,287.3594 Q343.1563,287.0781 342.5313,287.0781 Q341.1875,287.0781 340.5,288.1563 Q339.8125,289.2188 339.8125,291.3125 Q339.8125,293.4063 340.5,294.4844 Q341.1875,295.5469 342.5313,295.5469 Q343.1563,295.5469 343.75,295.2813 Q344.3438,295 344.9688,294.4219 L344.9688,297.1406 Z " fill="#000000"/><text fill="#000000" font-family="sans-serif" font-size="14" lengthAdjust="spacing" textLength="305.1357" x="356" y="296.3467">comp_arc_sta__baselibs__message_passing</text><line style="stroke:#181818;stroke-width:0.5;" x1="328" x2="663.1357" y1="307.5" y2="307.5"/></g><!--class logic_arc_int__baselibs__shared_future--><g id="elem_logic_arc_int__baselibs__shared_future"><rect fill="#F1F1F1" height="40" id="logic_arc_int__baselibs__shared_future" rx="2.5" ry="2.5" style="stroke:#181818;stroke-width:0.5;" width="302.0811" x="2741.5" y="158.5"/><ellipse cx="2756.5" cy="174.5" fill="#ADD1B2" rx="11" ry="11" style="stroke:#181818;stroke-width:1;"/><path d="M2759.4688,180.1406 Q2758.8906,180.4375 2758.25,180.5781 Q2757.6094,180.7344 2756.9063,180.7344 Q2754.4063,180.7344 2753.0781,179.0938 Q2751.7656,177.4375 2751.7656,174.3125 Q2751.7656,171.1875 2753.0781,169.5313 Q2754.4063,167.875 2756.9063,167.875 Q2757.6094,167.875 2758.25,168.0313 Q2758.9063,168.1875 2759.4688,168.4844 L2759.4688,171.2031 Q2758.8438,170.625 2758.25,170.3594 Q2757.6563,170.0781 2757.0313,170.0781 Q2755.6875,170.0781 2755,171.1563 Q2754.3125,172.2188 2754.3125,174.3125 Q2754.3125,176.4063 2755,177.4844 Q2755.6875,178.5469 2757.0313,178.5469 Q2757.6563,178.5469 2758.25,178.2813 Q2758.8438,178 2759.4688,177.4219 L2759.4688,180.1406 Z " fill="#000000"/><text fill="#000000" font-family="sans-serif" font-size="14" lengthAdjust="spacing" textLength="270.0811" x="2770.5" y="179.3467">logic_arc_int__baselibs__shared_future</text><line style="stroke:#181818;stroke-width:0.5;" x1="2742.5" x2="3042.5811" y1="190.5" y2="190.5"/></g><!--class logic_arc_int__baselibs__executor--><g id="elem_logic_arc_int__baselibs__executor"><rect fill="#F1F1F1" height="40" id="logic_arc_int__baselibs__executor" rx="2.5" ry="2.5" style="stroke:#181818;stroke-width:0.5;" width="266.4385" x="2440.5" y="158.5"/><ellipse cx="2455.5" cy="174.5" fill="#ADD1B2" rx="11" ry="11" style="stroke:#181818;stroke-width:1;"/><path d="M2458.4688,180.1406 Q2457.8906,180.4375 2457.25,180.5781 Q2456.6094,180.7344 2455.9063,180.7344 Q2453.4063,180.7344 2452.0781,179.0938 Q2450.7656,177.4375 2450.7656,174.3125 Q2450.7656,171.1875 2452.0781,169.5313 Q2453.4063,167.875 2455.9063,167.875 Q2456.6094,167.875 2457.25,168.0313 Q2457.9063,168.1875 2458.4688,168.4844 L2458.4688,171.2031 Q2457.8438,170.625 2457.25,170.3594 Q2456.6563,170.0781 2456.0313,170.0781 Q2454.6875,170.0781 2454,171.1563 Q2453.3125,172.2188 2453.3125,174.3125 Q2453.3125,176.4063 2454,177.4844 Q2454.6875,178.5469 2456.0313,178.5469 Q2456.6563,178.5469 2457.25,178.2813 Q2457.8438,178 2458.4688,177.4219 L2458.4688,180.1406 Z " fill="#000000"/><text fill="#000000" font-family="sans-serif" font-size="14" lengthAdjust="spacing" textLength="234.4385" x="2469.5" y="179.3467">logic_arc_int__baselibs__executor</text><line style="stroke:#181818;stroke-width:0.5;" x1="2441.5" x2="2705.9385" y1="190.5" y2="190.5"/></g><!--class comp_arc_sta__baselibs__filesystem--><g id="elem_comp_arc_sta__baselibs__filesystem"><rect fill="#F1F1F1" height="40" id="comp_arc_sta__baselibs__filesystem" rx="2.5" ry="2.5" style="stroke:#181818;stroke-width:0.5;" width="285.4492" x="7" y="275.5"/><ellipse cx="22" cy="291.5" fill="#ADD1B2" rx="11" ry="11" style="stroke:#181818;stroke-width:1;"/><path d="M24.9688,297.1406 Q24.3906,297.4375 23.75,297.5781 Q23.1094,297.7344 22.4063,297.7344 Q19.9063,297.7344 18.5781,296.0938 Q17.2656,294.4375 17.2656,291.3125 Q17.2656,288.1875 18.5781,286.5313 Q19.9063,284.875 22.4063,284.875 Q23.1094,284.875 23.75,285.0313 Q24.4063,285.1875 24.9688,285.4844 L24.9688,288.2031 Q24.3438,287.625 23.75,287.3594 Q23.1563,287.0781 22.5313,287.0781 Q21.1875,287.0781 20.5,288.1563 Q19.8125,289.2188 19.8125,291.3125 Q19.8125,293.4063 20.5,294.4844 Q21.1875,295.5469 22.5313,295.5469 Q23.1563,295.5469 23.75,295.2813 Q24.3438,295 24.9688,294.4219 L24.9688,297.1406 Z " fill="#000000"/><text fill="#000000" font-family="sans-serif" font-size="14" lengthAdjust="spacing" textLength="253.4492" x="36" y="296.3467">comp_arc_sta__baselibs__filesystem</text><line style="stroke:#181818;stroke-width:0.5;" x1="8" x2="291.4492" y1="307.5" y2="307.5"/></g><!--reverse link logic_arc_int__baselibs__utils_base64 to comp_arc_sta__baselibs__utils--><g id="link_logic_arc_int__baselibs__utils_base64_comp_arc_sta__baselibs__utils"><path codeLine="14" d="M5725.3479,201.7743 C5688.8679,223.0643 5635.64,254.14 5599.25,275.38 " fill="transparent" id="logic_arc_int__baselibs__utils_base64-backto-comp_arc_sta__baselibs__utils" style="stroke:#181818;stroke-width:1;"/><polygon fill="#181818" points="5730.53,198.75,5720.7407,199.8317,5726.2116,201.2702,5724.7731,206.7411,5730.53,198.75" style="stroke:#181818;stroke-width:1;"/><text fill="#000000" font-family="sans-serif" font-size="13" lengthAdjust="spacing" textLength="76.9082" x="5677.5" y="241.5669">implements</text></g><!--link Feature_User to logic_arc_int__baselibs__bit_mask_operator--><g id="link_Feature_User_logic_arc_int__baselibs__bit_mask_operator"><path codeLine="15" d="M3157.21,46.6 C2953.28,56.24 2099.91,98.26 1401.5,158.5 C1395.87,158.99 1396.1249,158.9421 1390.3449,159.4721 " fill="transparent" id="Feature_User-to-logic_arc_int__baselibs__bit_mask_operator" style="stroke:#181818;stroke-width:1;"/><polygon fill="#181818" points="1384.37,160.02,1393.6977,163.1815,1389.3491,159.5634,1392.9672,155.2149,1384.37,160.02" style="stroke:#181818;stroke-width:1;"/><text fill="#000000" font-family="sans-serif" font-size="13" lengthAdjust="spacing" textLength="23.0103" x="1996.5" y="124.5669">use</text></g><!--link Feature_User to logic_arc_int__baselibs__future--><g id="link_Feature_User_logic_arc_int__baselibs__future"><path codeLine="16" d="M3202.5,81.55 C3202.5,106.45 3202.5,132.26 3202.5,152.26 " fill="transparent" id="Feature_User-to-logic_arc_int__baselibs__future" style="stroke:#181818;stroke-width:1;"/><polygon fill="#181818" points="3202.5,158.26,3206.5,149.26,3202.5,153.26,3198.5,149.26,3202.5,158.26" style="stroke:#181818;stroke-width:1;"/><text fill="#000000" font-family="sans-serif" font-size="13" lengthAdjust="spacing" textLength="23.0103" x="3203.5" y="124.5669">use</text></g><!--reverse link logic_arc_int__baselibs__condition_variable to comp_arc_sta__baselibs__concurrency--><g id="link_logic_arc_int__baselibs__condition_variable_comp_arc_sta__baselibs__concurrency"><path codeLine="17" d="M2313.2721,200.2222 C2390.1421,221.5222 2507.89,254.15 2584.69,275.43 " fill="transparent" id="logic_arc_int__baselibs__condition_variable-backto-comp_arc_sta__baselibs__concurrency" style="stroke:#181818;stroke-width:1;"/><polygon fill="#181818" points="2307.49,198.62,2315.0951,204.878,2312.3084,199.9551,2317.2313,197.1685,2307.49,198.62" style="stroke:#181818;stroke-width:1;"/><text fill="#000000" font-family="sans-serif" font-size="13" lengthAdjust="spacing" textLength="76.9082" x="2471.5" y="241.5669">implements</text></g><!--link Feature_User to logic_arc_int__baselibs__intrusive_list--><g id="link_Feature_User_logic_arc_int__baselibs__intrusive_list"><path codeLine="18" d="M3247.71,49.01 C3397.55,63.98 3891.48,113.67 4299.5,158.5 C4305.2,159.13 4305.0477,159.0985 4310.9077,159.7585 " fill="transparent" id="Feature_User-to-logic_arc_int__baselibs__intrusive_list" style="stroke:#181818;stroke-width:1;"/><polygon fill="#181818" points="4316.87,160.43,4308.3742,155.4478,4311.9014,159.8704,4307.4789,163.3976,4316.87,160.43" style="stroke:#181818;stroke-width:1;"/><text fill="#000000" font-family="sans-serif" font-size="13" lengthAdjust="spacing" textLength="23.0103" x="3998.5" y="124.5669">use</text></g><!--reverse link logic_arc_int__baselibs__result to comp_arc_sta__baselibs__result--><g id="link_logic_arc_int__baselibs__result_comp_arc_sta__baselibs__result"><path codeLine="20" d="M6066.5,204.75 C6066.5,225.98 6066.5,253.94 6066.5,275.19 " fill="transparent" id="logic_arc_int__baselibs__result-backto-comp_arc_sta__baselibs__result" style="stroke:#181818;stroke-width:1;"/><polygon fill="#181818" points="6066.5,198.75,6062.5,207.75,6066.5,203.75,6070.5,207.75,6066.5,198.75" style="stroke:#181818;stroke-width:1;"/><text fill="#000000" font-family="sans-serif" font-size="13" lengthAdjust="spacing" textLength="76.9082" x="6067.5" y="241.5669">implements</text></g><!--reverse link logic_arc_int__baselibs__intrusive_list to comp_arc_sta__baselibs__containers--><g id="link_logic_arc_int__baselibs__intrusive_list_comp_arc_sta__baselibs__containers"><path codeLine="21" d="M4425.5148,201.7861 C4389.2248,223.0761 4336.29,254.14 4300.09,275.38 " fill="transparent" id="logic_arc_int__baselibs__intrusive_list-backto-comp_arc_sta__baselibs__containers" style="stroke:#181818;stroke-width:1;"/><polygon fill="#181818" points="4430.69,198.75,4420.9032,199.854,4426.3774,201.2801,4424.9513,206.7542,4430.69,198.75" style="stroke:#181818;stroke-width:1;"/><text fill="#000000" font-family="sans-serif" font-size="13" lengthAdjust="spacing" textLength="76.9082" x="4377.5" y="241.5669">implements</text></g><!--reverse link logic_arc_int__baselibs__memory_shared to comp_arc_sta__baselibs__memory_shared--><g id="link_logic_arc_int__baselibs__memory_shared_comp_arc_sta__baselibs__memory_shared"><path codeLine="22" d="M5073.379,204.7464 C5074.119,225.9764 5075.09,253.94 5075.83,275.19 " fill="transparent" id="logic_arc_int__baselibs__memory_shared-backto-comp_arc_sta__baselibs__memory_shared" style="stroke:#181818;stroke-width:1;"/><polygon fill="#181818" points="5073.17,198.75,5069.4859,207.8839,5073.3442,203.747,5077.4811,207.6052,5073.17,198.75" style="stroke:#181818;stroke-width:1;"/><text fill="#000000" font-family="sans-serif" font-size="13" lengthAdjust="spacing" textLength="76.9082" x="5075.5" y="241.5669">implements</text></g><!--link Feature_User to logic_arc_int__baselibs__memory_shared--><g id="link_Feature_User_logic_arc_int__baselibs__memory_shared"><path codeLine="23" d="M3247.58,46.69 C3401.48,54.27 3920.38,80.6 4348.5,111.5 C4591.87,129.07 4652.62,135.03 4895.5,158.5 C4901.34,159.06 4901.3297,159.054 4907.3397,159.654 " fill="transparent" id="Feature_User-to-logic_arc_int__baselibs__memory_shared" style="stroke:#181818;stroke-width:1;"/><polygon fill="#181818" points="4913.31,160.25,4904.7519,155.3757,4908.3347,159.7533,4903.9572,163.3362,4913.31,160.25" style="stroke:#181818;stroke-width:1;"/><text fill="#000000" font-family="sans-serif" font-size="13" lengthAdjust="spacing" textLength="23.0103" x="4567.5" y="124.5669">use</text></g><!--link Feature_User to logic_arc_int__baselibs__task_result--><g id="link_Feature_User_logic_arc_int__baselibs__task_result"><path codeLine="24" d="M3247.71,54.61 C3346.76,76.75 3578.4345,128.531 3706.4545,157.151 " fill="transparent" id="Feature_User-to-logic_arc_int__baselibs__task_result" style="stroke:#181818;stroke-width:1;"/><polygon fill="#181818" points="3712.31,158.46,3704.3995,152.5928,3707.4304,157.3691,3702.6541,160.4001,3712.31,158.46" style="stroke:#181818;stroke-width:1;"/><text fill="#000000" font-family="sans-serif" font-size="13" lengthAdjust="spacing" textLength="23.0103" x="3571.5" y="124.5669">use</text></g><!--link Feature_User to logic_arc_int__baselibs__bit_manipulation--><g id="link_Feature_User_logic_arc_int__baselibs__bit_manipulation"><path codeLine="25" d="M3157.35,45.78 C2929.6,52.47 1884.24,85.9 1031.5,158.5 C1025.74,158.99 1025.8552,158.965 1019.9352,159.505 " fill="transparent" id="Feature_User-to-logic_arc_int__baselibs__bit_manipulation" style="stroke:#181818;stroke-width:1;"/><polygon fill="#181818" points="1013.96,160.05,1023.2861,163.2159,1018.9393,159.5958,1022.5594,155.249,1013.96,160.05" style="stroke:#181818;stroke-width:1;"/><text fill="#000000" font-family="sans-serif" font-size="13" lengthAdjust="spacing" textLength="23.0103" x="1628.5" y="124.5669">use</text></g><!--link Feature_User to logic_arc_int__baselibs__synchronized_queue--><g id="link_Feature_User_logic_arc_int__baselibs__synchronized_queue"><path codeLine="26" d="M3157.21,47.63 C3025.62,56.8 2631.94,84.59 2305.5,111.5 C2073.79,130.6 2015.96,136.55 1784.5,158.5 C1778.94,159.03 1779.2733,159.0051 1773.5633,159.5451 " fill="transparent" id="Feature_User-to-logic_arc_int__baselibs__synchronized_queue" style="stroke:#181818;stroke-width:1;"/><polygon fill="#181818" points="1767.59,160.11,1776.9266,163.2449,1772.5678,159.6392,1776.1734,155.2804,1767.59,160.11" style="stroke:#181818;stroke-width:1;"/><text fill="#000000" font-family="sans-serif" font-size="13" lengthAdjust="spacing" textLength="23.0103" x="2306.5" y="124.5669">use</text></g><!--link Feature_User to logic_arc_int__baselibs__filesystem--><g id="link_Feature_User_logic_arc_int__baselibs__filesystem"><path codeLine="27" d="M3157.26,45.39 C2931.28,49.94 1902.28,71.97 1060.5,111.5 C726.88,127.17 643.09,127.98 310.5,158.5 C304.35,159.06 304.0398,159.0783 297.6898,159.7183 " fill="transparent" id="Feature_User-to-logic_arc_int__baselibs__filesystem" style="stroke:#181818;stroke-width:1;"/><polygon fill="#181818" points="291.72,160.32,301.0758,163.3973,296.6948,159.8186,300.2735,155.4376,291.72,160.32" style="stroke:#181818;stroke-width:1;"/><text fill="#000000" font-family="sans-serif" font-size="13" lengthAdjust="spacing" textLength="23.0103" x="1061.5" y="124.5669">use</text></g><!--link Feature_User to logic_arc_int__baselibs__utils_scoped_op--><g id="link_Feature_User_logic_arc_int__baselibs__utils_scoped_op"><path codeLine="28" d="M3247.6,45.86 C3467.47,52.71 4448.8,86.11 5249.5,158.5 C5255.13,159.01 5254.8879,158.9624 5260.6779,159.5224 " fill="transparent" id="Feature_User-to-logic_arc_int__baselibs__utils_scoped_op" style="stroke:#181818;stroke-width:1;"/><polygon fill="#181818" points="5266.65,160.1,5258.0769,155.2522,5261.6732,159.6187,5257.3067,163.215,5266.65,160.1" style="stroke:#181818;stroke-width:1;"/><text fill="#000000" font-family="sans-serif" font-size="13" lengthAdjust="spacing" textLength="23.0103" x="4858.5" y="124.5669">use</text></g><!--link Feature_User to logic_arc_int__baselibs__task--><g id="link_Feature_User_logic_arc_int__baselibs__task"><path codeLine="29" d="M3157.3,48.32 C3002.99,61.5 2482.79,107.12 2054.5,158.5 C2048.63,159.2 2048.5611,159.1853 2042.4911,159.9653 " fill="transparent" id="Feature_User-to-logic_arc_int__baselibs__task" style="stroke:#181818;stroke-width:1;"/><polygon fill="#181818" points="2036.54,160.73,2045.9764,163.5503,2041.4992,160.0927,2044.9568,155.6155,2036.54,160.73" style="stroke:#181818;stroke-width:1;"/><text fill="#000000" font-family="sans-serif" font-size="13" lengthAdjust="spacing" textLength="23.0103" x="2464.5" y="124.5669">use</text></g><!--link Feature_User to logic_arc_int__baselibs__message_passing--><g id="link_Feature_User_logic_arc_int__baselibs__message_passing"><path codeLine="30" d="M3157.21,45.76 C2954.19,51.51 2107.66,76.46 1413.5,111.5 C1084.37,128.11 1001.89,130.85 673.5,158.5 C667.99,158.96 668.3658,158.9115 662.7058,159.4215 " fill="transparent" id="Feature_User-to-logic_arc_int__baselibs__message_passing" style="stroke:#181818;stroke-width:1;"/><polygon fill="#181818" points="656.73,159.96,666.0527,163.1362,661.7098,159.5113,665.3347,155.1685,656.73,159.96" style="stroke:#181818;stroke-width:1;"/><text fill="#000000" font-family="sans-serif" font-size="13" lengthAdjust="spacing" textLength="23.0103" x="1414.5" y="124.5669">use</text></g><!--reverse link logic_arc_int__baselibs__json to comp_arc_sta__baselibs__json--><g id="link_logic_arc_int__baselibs__json_comp_arc_sta__baselibs__json"><path codeLine="31" d="M4760.4002,204.7444 C4759.4802,225.9744 4758.26,253.94 4757.34,275.19 " fill="transparent" id="logic_arc_int__baselibs__json-backto-comp_arc_sta__baselibs__json" style="stroke:#181818;stroke-width:1;"/><polygon fill="#181818" points="4760.66,198.75,4756.2741,207.5684,4760.4435,203.7453,4764.2666,207.9147,4760.66,198.75" style="stroke:#181818;stroke-width:1;"/><text fill="#000000" font-family="sans-serif" font-size="13" lengthAdjust="spacing" textLength="76.9082" x="4759.5" y="241.5669">implements</text></g><!--reverse link logic_arc_int__baselibs__future to comp_arc_sta__baselibs__concurrency--><g id="link_logic_arc_int__baselibs__future_comp_arc_sta__baselibs__concurrency"><path codeLine="32" d="M3105.6675,199.7802 C3004.0375,221.0702 2846.34,254.11 2744.64,275.41 " fill="transparent" id="logic_arc_int__baselibs__future-backto-comp_arc_sta__baselibs__concurrency" style="stroke:#181818;stroke-width:1;"/><polygon fill="#181818" points="3111.54,198.55,3101.9111,196.4803,3106.6462,199.5752,3103.5513,204.3103,3111.54,198.55" style="stroke:#181818;stroke-width:1;"/><text fill="#000000" font-family="sans-serif" font-size="13" lengthAdjust="spacing" textLength="76.9082" x="2961.5" y="241.5669">implements</text></g><!--link Feature_User to logic_arc_int__baselibs__json--><g id="link_Feature_User_logic_arc_int__baselibs__json"><path codeLine="33" d="M3247.52,47.1 C3423.98,57.49 4085.43,98.44 4627.5,158.5 C4633.22,159.13 4633.1242,159.0932 4639.0242,159.8132 " fill="transparent" id="Feature_User-to-logic_arc_int__baselibs__json" style="stroke:#181818;stroke-width:1;"/><polygon fill="#181818" points="4644.98,160.54,4636.5308,155.4792,4640.0168,159.9343,4635.5617,163.4203,4644.98,160.54" style="stroke:#181818;stroke-width:1;"/><text fill="#000000" font-family="sans-serif" font-size="13" lengthAdjust="spacing" textLength="23.0103" x="4316.5" y="124.5669">use</text></g><!--reverse link logic_arc_int__baselibs__utils_scoped_op to comp_arc_sta__baselibs__utils--><g id="link_logic_arc_int__baselibs__utils_scoped_op_comp_arc_sta__baselibs__utils"><path codeLine="34" d="M5452.9324,202.5265 C5479.1424,223.7565 5516.41,253.94 5542.65,275.19 " fill="transparent" id="logic_arc_int__baselibs__utils_scoped_op-backto-comp_arc_sta__baselibs__utils" style="stroke:#181818;stroke-width:1;"/><polygon fill="#181818" points="5448.27,198.75,5452.7459,207.523,5452.1553,201.8971,5457.7813,201.3065,5448.27,198.75" style="stroke:#181818;stroke-width:1;"/><text fill="#000000" font-family="sans-serif" font-size="13" lengthAdjust="spacing" textLength="76.9082" x="5504.5" y="241.5669">implements</text></g><!--reverse link logic_arc_int__baselibs__dynamic_array to comp_arc_sta__baselibs__containers--><g id="link_logic_arc_int__baselibs__dynamic_array_comp_arc_sta__baselibs__containers"><path codeLine="35" d="M4155.5667,202.558 C4181.4167,223.788 4218.12,253.94 4243.99,275.19 " fill="transparent" id="logic_arc_int__baselibs__dynamic_array-backto-comp_arc_sta__baselibs__containers" style="stroke:#181818;stroke-width:1;"/><polygon fill="#181818" points="4150.93,198.75,4155.3464,207.5532,4154.7939,201.9233,4160.4237,201.3709,4150.93,198.75" style="stroke:#181818;stroke-width:1;"/><text fill="#000000" font-family="sans-serif" font-size="13" lengthAdjust="spacing" textLength="76.9082" x="4206.5" y="241.5669">implements</text></g><!--reverse link logic_arc_int__baselibs__task to comp_arc_sta__baselibs__concurrency--><g id="link_logic_arc_int__baselibs__task_comp_arc_sta__baselibs__concurrency"><path codeLine="36" d="M2042.5646,199.2481 C2125.6746,212.5481 2233.95,229.78 2334.5,245.5 C2398.44,255.5 2469.62,266.45 2528.49,275.45 " fill="transparent" id="logic_arc_int__baselibs__task-backto-comp_arc_sta__baselibs__concurrency" style="stroke:#181818;stroke-width:1;"/><polygon fill="#181818" points="2036.64,198.3,2044.8949,203.6719,2041.5772,199.0901,2046.159,195.7724,2036.64,198.3" style="stroke:#181818;stroke-width:1;"/><text fill="#000000" font-family="sans-serif" font-size="13" lengthAdjust="spacing" textLength="76.9082" x="2335.5" y="241.5669">implements</text></g><!--reverse link logic_arc_int__baselibs__synchronized_queue to comp_arc_sta__baselibs__concurrency--><g id="link_logic_arc_int__baselibs__synchronized_queue_comp_arc_sta__baselibs__concurrency"><path codeLine="37" d="M1751.0348,199.255 C1862.1048,212.965 2010.6,230.82 2146.5,245.5 C2266.4,258.45 2402.43,271.51 2503.39,280.88 " fill="transparent" id="logic_arc_int__baselibs__synchronized_queue-backto-comp_arc_sta__baselibs__concurrency" style="stroke:#181818;stroke-width:1;"/><polygon fill="#181818" points="1745.08,198.52,1753.5222,203.5924,1750.0423,199.1325,1754.5022,195.6527,1745.08,198.52" style="stroke:#181818;stroke-width:1;"/><text fill="#000000" font-family="sans-serif" font-size="13" lengthAdjust="spacing" textLength="76.9082" x="2147.5" y="241.5669">implements</text></g><!--reverse link logic_arc_int__baselibs__bit_manipulation to comp_arc_sta__baselibs__bit_manipulation--><g id="link_logic_arc_int__baselibs__bit_manipulation_comp_arc_sta__baselibs__bit_manipulation"><path codeLine="38" d="M878.2071,202.7778 C901.6471,224.0078 934.7,253.94 958.17,275.19 " fill="transparent" id="logic_arc_int__baselibs__bit_manipulation-backto-comp_arc_sta__baselibs__bit_manipulation" style="stroke:#181818;stroke-width:1;"/><polygon fill="#181818" points="873.76,198.75,877.7454,207.7565,877.4659,202.1065,883.1159,201.827,873.76,198.75" style="stroke:#181818;stroke-width:1;"/><text fill="#000000" font-family="sans-serif" font-size="13" lengthAdjust="spacing" textLength="76.9082" x="925.5" y="241.5669">implements</text></g><!--reverse link logic_arc_int__baselibs__task_result to comp_arc_sta__baselibs__concurrency--><g id="link_logic_arc_int__baselibs__task_result_comp_arc_sta__baselibs__concurrency"><path codeLine="39" d="M3650.7032,197.1689 C3644.9032,197.8689 3645.12,197.83 3639.5,198.5 C3462.63,219.58 3418.72,227.66 3241.5,245.5 C3092.82,260.47 2922.66,274.29 2803.78,283.41 " fill="transparent" id="logic_arc_int__baselibs__task_result-backto-comp_arc_sta__baselibs__concurrency" style="stroke:#181818;stroke-width:1;"/><polygon fill="#181818" points="3656.66,196.45,3647.2456,193.5572,3651.696,197.0491,3648.2041,201.4996,3656.66,196.45" style="stroke:#181818;stroke-width:1;"/><text fill="#000000" font-family="sans-serif" font-size="13" lengthAdjust="spacing" textLength="76.9082" x="3393.5" y="241.5669">implements</text></g><!--reverse link logic_arc_int__baselibs__promise to comp_arc_sta__baselibs__concurrency--><g id="link_logic_arc_int__baselibs__promise_comp_arc_sta__baselibs__concurrency"><path codeLine="40" d="M3362.4285,199.4543 C3273.1585,213.0643 3155.42,230.63 3046.5,245.5 C2966.45,256.42 2877.09,267.64 2803.83,276.59 " fill="transparent" id="logic_arc_int__baselibs__promise-backto-comp_arc_sta__baselibs__concurrency" style="stroke:#181818;stroke-width:1;"/><polygon fill="#181818" points="3368.36,198.55,3358.8599,195.9521,3363.4171,199.3036,3360.0657,203.8608,3368.36,198.55" style="stroke:#181818;stroke-width:1;"/><text fill="#000000" font-family="sans-serif" font-size="13" lengthAdjust="spacing" textLength="76.9082" x="3156.5" y="241.5669">implements</text></g><!--link Feature_User to logic_arc_int__baselibs__result--><g id="link_Feature_User_logic_arc_int__baselibs__result"><path codeLine="41" d="M3247.75,45.39 C3467.31,49.82 4443.56,70.98 5242.5,111.5 C5547.27,126.96 5623.93,127.37 5927.5,158.5 C5932.95,159.06 5932.5585,158.9911 5938.1785,159.6311 " fill="transparent" id="Feature_User-to-logic_arc_int__baselibs__result" style="stroke:#181818;stroke-width:1;"/><polygon fill="#181818" points="5944.14,160.31,5935.6504,155.3174,5939.1721,159.7443,5934.7452,163.266,5944.14,160.31" style="stroke:#181818;stroke-width:1;"/><text fill="#000000" font-family="sans-serif" font-size="13" lengthAdjust="spacing" textLength="23.0103" x="5574.5" y="124.5669">use</text></g><!--link Feature_User to logic_arc_int__baselibs__promise--><g id="link_Feature_User_logic_arc_int__baselibs__promise"><path codeLine="42" d="M3247.66,65.28 C3303.06,90.78 3390.7792,131.1523 3444.4892,155.8623 " fill="transparent" id="Feature_User-to-logic_arc_int__baselibs__promise" style="stroke:#181818;stroke-width:1;"/><polygon fill="#181818" points="3449.94,158.37,3443.4356,150.9745,3445.3977,156.2802,3440.092,158.2423,3449.94,158.37" style="stroke:#181818;stroke-width:1;"/><text fill="#000000" font-family="sans-serif" font-size="13" lengthAdjust="spacing" textLength="23.0103" x="3381.5" y="124.5669">use</text></g><!--reverse link logic_arc_int__baselibs__message_passing to comp_arc_sta__baselibs__message_passing--><g id="link_logic_arc_int__baselibs__message_passing_comp_arc_sta__baselibs__message_passing"><path codeLine="43" d="M493.1582,204.7479 C493.7182,225.9779 494.44,253.94 495,275.19 " fill="transparent" id="logic_arc_int__baselibs__message_passing-backto-comp_arc_sta__baselibs__message_passing" style="stroke:#181818;stroke-width:1;"/><polygon fill="#181818" points="493,198.75,489.2387,207.8523,493.1318,203.7483,497.2359,207.6414,493,198.75" style="stroke:#181818;stroke-width:1;"/><text fill="#000000" font-family="sans-serif" font-size="13" lengthAdjust="spacing" textLength="76.9082" x="495.5" y="241.5669">implements</text></g><!--link Feature_User to logic_arc_int__baselibs__dynamic_array--><g id="link_Feature_User_logic_arc_int__baselibs__dynamic_array"><path codeLine="44" d="M3247.74,51 C3382.4,70.37 3778.3911,127.3061 3989.1911,157.6161 " fill="transparent" id="Feature_User-to-logic_arc_int__baselibs__dynamic_array" style="stroke:#181818;stroke-width:1;"/><polygon fill="#181818" points="3995.13,158.47,3986.7909,153.2298,3990.1809,157.7584,3985.6523,161.1484,3995.13,158.47" style="stroke:#181818;stroke-width:1;"/><text fill="#000000" font-family="sans-serif" font-size="13" lengthAdjust="spacing" textLength="23.0103" x="3775.5" y="124.5669">use</text></g><!--reverse link logic_arc_int__baselibs__shared_future to comp_arc_sta__baselibs__concurrency--><g id="link_logic_arc_int__baselibs__shared_future_comp_arc_sta__baselibs__concurrency"><path codeLine="45" d="M2847.3632,201.2213 C2803.1532,222.4913 2737.57,254.05 2693.33,275.34 " fill="transparent" id="logic_arc_int__baselibs__shared_future-backto-comp_arc_sta__baselibs__concurrency" style="stroke:#181818;stroke-width:1;"/><polygon fill="#181818" points="2852.77,198.62,2842.9256,198.9174,2848.2643,200.7877,2846.394,206.1264,2852.77,198.62" style="stroke:#181818;stroke-width:1;"/><text fill="#000000" font-family="sans-serif" font-size="13" lengthAdjust="spacing" textLength="76.9082" x="2787.5" y="241.5669">implements</text></g><!--link Feature_User to logic_arc_int__baselibs__condition_variable--><g id="link_Feature_User_logic_arc_int__baselibs__condition_variable"><path codeLine="46" d="M3157.3,50.74 C3018.92,69.83 2603.0537,127.1999 2382.3537,157.6499 " fill="transparent" id="Feature_User-to-logic_arc_int__baselibs__condition_variable" style="stroke:#181818;stroke-width:1;"/><polygon fill="#181818" points="2376.41,158.47,2385.8722,161.2024,2381.3631,157.7866,2384.7788,153.2775,2376.41,158.47" style="stroke:#181818;stroke-width:1;"/><text fill="#000000" font-family="sans-serif" font-size="13" lengthAdjust="spacing" textLength="23.0103" x="2692.5" y="124.5669">use</text></g><!--link Feature_User to logic_arc_int__baselibs__executor--><g id="link_Feature_User_logic_arc_int__baselibs__executor"><path codeLine="47" d="M3157.26,54.07 C3054.1,75.88 2805.6802,128.4089 2669.2702,157.2489 " fill="transparent" id="Feature_User-to-logic_arc_int__baselibs__executor" style="stroke:#181818;stroke-width:1;"/><polygon fill="#181818" points="2663.4,158.49,2673.0328,160.5419,2668.2919,157.4558,2671.378,152.7149,2663.4,158.49" style="stroke:#181818;stroke-width:1;"/><text fill="#000000" font-family="sans-serif" font-size="13" lengthAdjust="spacing" textLength="23.0103" x="2869.5" y="124.5669">use</text></g><!--reverse link logic_arc_int__baselibs__bit_mask_operator to comp_arc_sta__baselibs__bit_manipulation--><g id="link_logic_arc_int__baselibs__bit_mask_operator_comp_arc_sta__baselibs__bit_manipulation"><path codeLine="48" d="M1171.702,201.2395 C1127.872,222.5095 1062.87,254.05 1019,275.34 " fill="transparent" id="logic_arc_int__baselibs__bit_mask_operator-backto-comp_arc_sta__baselibs__bit_manipulation" style="stroke:#181818;stroke-width:1;"/><polygon fill="#181818" points="1177.1,198.62,1167.2567,198.9507,1172.6017,200.803,1170.7494,206.148,1177.1,198.62" style="stroke:#181818;stroke-width:1;"/><text fill="#000000" font-family="sans-serif" font-size="13" lengthAdjust="spacing" textLength="76.9082" x="1113.5" y="241.5669">implements</text></g><!--reverse link logic_arc_int__baselibs__filesystem to comp_arc_sta__baselibs__filesystem--><g id="link_logic_arc_int__baselibs__filesystem_comp_arc_sta__baselibs__filesystem"><path codeLine="49" d="M152.621,204.7464 C151.881,225.9764 150.91,253.94 150.17,275.19 " fill="transparent" id="logic_arc_int__baselibs__filesystem-backto-comp_arc_sta__baselibs__filesystem" style="stroke:#181818;stroke-width:1;"/><polygon fill="#181818" points="152.83,198.75,148.5189,207.6052,152.6558,203.747,156.5141,207.8839,152.83,198.75" style="stroke:#181818;stroke-width:1;"/><text fill="#000000" font-family="sans-serif" font-size="13" lengthAdjust="spacing" textLength="76.9082" x="153.5" y="241.5669">implements</text></g><!--reverse link logic_arc_int__baselibs__executor to comp_arc_sta__baselibs__concurrency--><g id="link_logic_arc_int__baselibs__executor_comp_arc_sta__baselibs__concurrency"><path codeLine="50" d="M2590.3166,203.6753 C2605.0866,224.9053 2625.28,253.94 2640.07,275.19 " fill="transparent" id="logic_arc_int__baselibs__executor-backto-comp_arc_sta__baselibs__concurrency" style="stroke:#181818;stroke-width:1;"/><polygon fill="#181818" points="2586.89,198.75,2588.7464,208.4223,2589.7455,202.8544,2595.3134,203.8535,2586.89,198.75" style="stroke:#181818;stroke-width:1;"/><text fill="#000000" font-family="sans-serif" font-size="13" lengthAdjust="spacing" textLength="76.9082" x="2618.5" y="241.5669">implements</text></g><!--link Feature_User to logic_arc_int__baselibs__shared_future--><g id="link_Feature_User_logic_arc_int__baselibs__shared_future"><path codeLine="51" d="M3157.42,63.84 C3098.4,89.16 3001.064,130.9244 2942.394,156.0944 " fill="transparent" id="Feature_User-to-logic_arc_int__baselibs__shared_future" style="stroke:#181818;stroke-width:1;"/><polygon fill="#181818" points="2936.88,158.46,2946.728,158.5877,2941.475,156.4887,2943.574,151.2357,2936.88,158.46" style="stroke:#181818;stroke-width:1;"/><text fill="#000000" font-family="sans-serif" font-size="13" lengthAdjust="spacing" textLength="23.0103" x="3038.5" y="124.5669">use</text></g><!--link Feature_User to logic_arc_int__baselibs__utils_base64--><g id="link_Feature_User_logic_arc_int__baselibs__utils_base64"><path codeLine="52" d="M3247.51,45.85 C3443.04,51.8 4238.12,76.94 4890.5,111.5 C5205.86,128.21 5285,129.88 5599.5,158.5 C5605.35,159.03 5605.3496,159.0049 5611.3696,159.6049 " fill="transparent" id="Feature_User-to-logic_arc_int__baselibs__utils_base64" style="stroke:#181818;stroke-width:1;"/><polygon fill="#181818" points="5617.34,160.2,5608.7811,155.3271,5612.3647,159.7041,5607.9877,163.2877,5617.34,160.2" style="stroke:#181818;stroke-width:1;"/><text fill="#000000" font-family="sans-serif" font-size="13" lengthAdjust="spacing" textLength="23.0103" x="5210.5" y="124.5669">use</text></g><!--SRC=[hLPDRzGm4BtdLrYzRq48SQYgNf0uSOIpDN66tQ7-29vnQK3yTvpDBjjDsqrYSdGoCvwFzvu7h0q_jQD7yjjAGgiag3g81ASQYcY4WgzsrA1YmOX1kXQ7CxfMEWKYaUeaoDKjIsVnhhe69bkhtzLdylWns11Ln6P_-h8ZS- -HMRsxVblzgMxV77mgC9BjhZuXI8gelZB6AmMi3Xzq_q5L9hXMGpIQ1RIkWT5IpLed8SjgapPtoeOjcRqDUNbcipz_U7-ZoBKM7NfXLPtTiMak1Qb9j0E-rw7523db6vKO5uNubdhBWzzh1PdWJOeHlUacoigM3VLJqWyG2MgBnSNbOqnC3wWjiHmoV3N5Y9oiJ6Gt69rdTA5cWGoIE3N9SPvpWZjq8NQQTv2nE17_pBQucwCeIs4YFSgExLlgFC3KKviizDXO7e4xRtOnUFg5ZVwHC641qiaYTratt7BVWQriCi-QJBQo_YttSbcRO8kw1UQiY1Ci_Sx1Js2fDvaD_vcKFof88J27b2uMDbzFdqneLOutdGUt_nMXMxk10pRMZVaIOURSCARgn3NFcRr-QvQgzipGRGoEk1otfMBuxzwBa1ynV_A96Eb4OKqZcA-q4mnlpl_gn4kRnTBUuoEQT5gJLYN1sHOs1wgdzsXAO9yyNEjouDIFmg6CHblsh1wNuBttNm00]--></g></svg>