<svg xmlns="http://www.w3.org/2000/svg" xmlns:xlink="http://www.w3.org/1999/xlink" contentStyleType="text/css" data-diagram-type="CLASS" height="322px" preserveAspectRatio="none" style="width:6189px;height:322px;background:#FFFFFF;" version="1.1" viewBox="0 0 6189 322" width="6189px" zoomAndPan="magnify"><defs/><g><!--entity Feature_User--><g id="elem_Feature_User"><ellipse cx="2960.1685" cy="14" fill="#F1F1F1" rx="8" ry="8" style="stroke:#181818;stroke-width:0.5;"/><path d="M2960.1685,22 L2960.1685,49 M2947.1685,30 L2973.1685,30 M2960.1685,49 L2947.1685,64 M2960.1685,49 L2973.1685,64 " fill="transparent" style="stroke:#181818;stroke-width:0.5;"/><text fill="#000000" font-family="sans-serif" font-size="14" lengthAdjust="spacing" textLength="90.3369" x="2915" y="78.4951">Feature User</text></g><!--class logic_arc_int__baselibs__promise--><g id="elem_logic_arc_int__baselibs__promise"><rect fill="#F1F1F1" height="40" id="logic_arc_int__baselibs__promise" rx="2.5" ry="2.5" style="stroke:#181818;stroke-width:0.5;" width="261.1885" x="2162.5" y="158.5"/><ellipse cx="2177.5" cy="174.5" fill="#ADD1B2" rx="11" ry="11" style="stroke:#181818;stroke-width:1;"/><path d="M2180.4688,180.1406 Q2179.8906,180.4375 2179.25,180.5781 Q2178.6094,180.7344 2177.9063,180.7344 Q2175.4063,180.7344 2174.0781,179.0938 Q2172.7656,177.4375 2172.7656,174.3125 Q2172.7656,171.1875 2174.0781,169.5313 Q2175.4063,167.875 2177.9063,167.875 Q2178.6094,167.875 2179.25,168.0313 Q2179.9063,168.1875 2180.4688,168.4844 L2180.4688,171.2031 Q2179.8438,170.625 2179.25,170.3594 Q2178.6563,170.0781 2178.0313,170.0781 Q2176.6875,170.0781 2176,171.1563 Q2175.3125,172.2188 2175.3125,174.3125 Q2175.3125,176.4063 2176,177.4844 Q2176.6875,178.5469 2178.0313,178.5469 Q2178.6563,178.5469 2179.25,178.2813 Q2179.8438,178 2180.4688,177.4219 L2180.4688,180.1406 Z " fill="#000000"/><text fill="#000000" font-family="sans-serif" font-size="14" lengthAdjust="spacing" textLength="229.1885" x="2191.5" y="179.3467">logic_arc_int__baselibs__promise</text><line style="stroke:#181818;stroke-width:0.5;" x1="2163.5" x2="2422.6885" y1="190.5" y2="190.5"/></g><!--class comp_arc_sta__baselibs__utils--><g id="elem_comp_arc_sta__baselibs__utils"><rect fill="#F1F1F1" height="40" id="comp_arc_sta__baselibs__utils" rx="2.5" ry="2.5" style="stroke:#181818;stroke-width:0.5;" width="242.9502" x="5390.5" y="275.5"/><ellipse cx="5405.5" cy="291.5" fill="#ADD1B2" rx="11" ry="11" style="stroke:#181818;stroke-width:1;"/><path d="M5408.4688,297.1406 Q5407.8906,297.4375 5407.25,297.5781 Q5406.6094,297.7344 5405.9063,297.7344 Q5403.4063,297.7344 5402.0781,296.0938 Q5400.7656,294.4375 5400.7656,291.3125 Q5400.7656,288.1875 5402.0781,286.5313 Q5403.4063,284.875 5405.9063,284.875 Q5406.6094,284.875 5407.25,285.0313 Q5407.9063,285.1875 5408.4688,285.4844 L5408.4688,288.2031 Q5407.8438,287.625 5407.25,287.3594 Q5406.6563,287.0781 5406.0313,287.0781 Q5404.6875,287.0781 5404,288.1563 Q5403.3125,289.2188 5403.3125,291.3125 Q5403.3125,293.4063 5404,294.4844 Q5404.6875,295.5469 5406.0313,295.5469 Q5406.6563,295.5469 5407.25,295.2813 Q5407.8438,295 5408.4688,294.4219 L5408.4688,297.1406 Z " fill="#000000"/><text fill="#000000" font-family="sans-serif" font-size="14" lengthAdjust="spacing" textLength="210.9502" x="5419.5" y="296.3467">comp_arc_sta__baselibs__utils</text><line style="stroke:#181818;stroke-width:0.5;" x1="5391.5" x2="5632.4502" y1="307.5" y2="307.5"/></g><!--class logic_arc_int__baselibs__utils_scoped_op--><g id="elem_logic_arc_int__baselibs__utils_scoped_op"><rect fill="#F1F1F1" height="40" id="logic_arc_int__baselibs__utils_scoped_op" rx="2.5" ry="2.5" style="stroke:#181818;stroke-width:0.5;" width="315.377" x="5551.5" y="158.5"/><ellipse cx="5566.5" cy="174.5" fill="#ADD1B2" rx="11" ry="11" style="stroke:#181818;stroke-width:1;"/><path d="M5569.4688,180.1406 Q5568.8906,180.4375 5568.25,180.5781 Q5567.6094,180.7344 5566.9063,180.7344 Q5564.4063,180.7344 5563.0781,179.0938 Q5561.7656,177.4375 5561.7656,174.3125 Q5561.7656,171.1875 5563.0781,169.5313 Q5564.4063,167.875 5566.9063,167.875 Q5567.6094,167.875 5568.25,168.0313 Q5568.9063,168.1875 5569.4688,168.4844 L5569.4688,171.2031 Q5568.8438,170.625 5568.25,170.3594 Q5567.6563,170.0781 5567.0313,170.0781 Q5565.6875,170.0781 5565,171.1563 Q5564.3125,172.2188 5564.3125,174.3125 Q5564.3125,176.4063 5565,177.4844 Q5565.6875,178.5469 5567.0313,178.5469 Q5567.6563,178.5469 5568.25,178.2813 Q5568.8438,178 5569.4688,177.4219 L5569.4688,180.1406 Z " fill="#000000"/><text fill="#000000" font-family="sans-serif" font-size="14" lengthAdjust="spacing" textLength="283.377" x="5580.5" y="179.3467">logic_arc_int__baselibs__utils_scoped_op</text><line style="stroke:#181818;stroke-width:0.5;" x1="5552.5" x2="5865.877" y1="190.5" y2="190.5"/></g><!--class comp_arc_sta__baselibs__concurrency--><g id="elem_comp_arc_sta__baselibs__concurrency"><rect fill="#F1F1F1" height="40" id="comp_arc_sta__baselibs__concurrency" rx="2.5" ry="2.5" style="stroke:#181818;stroke-width:0.5;" width="300.2012" x="1990" y="275.5"/><ellipse cx="2005" cy="291.5" fill="#ADD1B2" rx="11" ry="11" style="stroke:#181818;stroke-width:1;"/><path d="M2007.9688,297.1406 Q2007.3906,297.4375 2006.75,297.5781 Q2006.1094,297.7344 2005.4063,297.7344 Q2002.9063,297.7344 2001.5781,296.0938 Q2000.2656,294.4375 2000.2656,291.3125 Q2000.2656,288.1875 2001.5781,286.5313 Q2002.9063,284.875 2005.4063,284.875 Q2006.1094,284.875 2006.75,285.0313 Q2007.4063,285.1875 2007.9688,285.4844 L2007.9688,288.2031 Q2007.3438,287.625 2006.75,287.3594 Q2006.1563,287.0781 2005.5313,287.0781 Q2004.1875,287.0781 2003.5,288.1563 Q2002.8125,289.2188 2002.8125,291.3125 Q2002.8125,293.4063 2003.5,294.4844 Q2004.1875,295.5469 2005.5313,295.5469 Q2006.1563,295.5469 2006.75,295.2813 Q2007.3438,295 2007.9688,294.4219 L2007.9688,297.1406 Z " fill="#000000"/><text fill="#000000" font-family="sans-serif" font-size="14" lengthAdjust="spacing" textLength="268.2012" x="2019" y="296.3467">comp_arc_sta__baselibs__concurrency</text><line style="stroke:#181818;stroke-width:0.5;" x1="1991" x2="2289.2012" y1="307.5" y2="307.5"/></g><!--class logic_arc_int__baselibs__task_result--><g id="elem_logic_arc_int__baselibs__task_result"><rect fill="#F1F1F1" height="40" id="logic_arc_int__baselibs__task_result" rx="2.5" ry="2.5" style="stroke:#181818;stroke-width:0.5;" width="280.9307" x="1846.5" y="158.5"/><ellipse cx="1861.5" cy="174.5" fill="#ADD1B2" rx="11" ry="11" style="stroke:#181818;stroke-width:1;"/><path d="M1864.4688,180.1406 Q1863.8906,180.4375 1863.25,180.5781 Q1862.6094,180.7344 1861.9063,180.7344 Q1859.4063,180.7344 1858.0781,179.0938 Q1856.7656,177.4375 1856.7656,174.3125 Q1856.7656,171.1875 1858.0781,169.5313 Q1859.4063,167.875 1861.9063,167.875 Q1862.6094,167.875 1863.25,168.0313 Q1863.9063,168.1875 1864.4688,168.4844 L1864.4688,171.2031 Q1863.8438,170.625 1863.25,170.3594 Q1862.6563,170.0781 1862.0313,170.0781 Q1860.6875,170.0781 1860,171.1563 Q1859.3125,172.2188 1859.3125,174.3125 Q1859.3125,176.4063 1860,177.4844 Q1860.6875,178.5469 1862.0313,178.5469 Q1862.6563,178.5469 1863.25,178.2813 Q1863.8438,178 1864.4688,177.4219 L1864.4688,180.1406 Z " fill="#000000"/><text fill="#000000" font-family="sans-serif" font-size="14" lengthAdjust="spacing" textLength="248.9307" x="1875.5" y="179.3467">logic_arc_int__baselibs__task_result</text><line style="stroke:#181818;stroke-width:0.5;" x1="1847.5" x2="2126.4307" y1="190.5" y2="190.5"/></g><!--class logic_arc_int__baselibs__bit_mask_operator--><g id="elem_logic_arc_int__baselibs__bit_mask_operator"><rect fill="#F1F1F1" height="40" id="logic_arc_int__baselibs__bit_mask_operator" rx="2.5" ry="2.5" style="stroke:#181818;stroke-width:0.5;" width="334.6406" x="4137.5" y="158.5"/><ellipse cx="4152.5" cy="174.5" fill="#ADD1B2" rx="11" ry="11" style="stroke:#181818;stroke-width:1;"/><path d="M4155.4688,180.1406 Q4154.8906,180.4375 4154.25,180.5781 Q4153.6094,180.7344 4152.9063,180.7344 Q4150.4063,180.7344 4149.0781,179.0938 Q4147.7656,177.4375 4147.7656,174.3125 Q4147.7656,171.1875 4149.0781,169.5313 Q4150.4063,167.875 4152.9063,167.875 Q4153.6094,167.875 4154.25,168.0313 Q4154.9063,168.1875 4155.4688,168.4844 L4155.4688,171.2031 Q4154.8438,170.625 4154.25,170.3594 Q4153.6563,170.0781 4153.0313,170.0781 Q4151.6875,170.0781 4151,171.1563 Q4150.3125,172.2188 4150.3125,174.3125 Q4150.3125,176.4063 4151,177.4844 Q4151.6875,178.5469 4153.0313,178.5469 Q4153.6563,178.5469 4154.25,178.2813 Q4154.8438,178 4155.4688,177.4219 L4155.4688,180.1406 Z " fill="#000000"/><text fill="#000000" font-family="sans-serif" font-size="14" lengthAdjust="spacing" textLength="302.6406" x="4166.5" y="179.3467">logic_arc_int__baselibs__bit_mask_operator</text><line style="stroke:#181818;stroke-width:0.5;" x1="4138.5" x2="4471.1406" y1="190.5" y2="190.5"/></g><!--class logic_arc_int__baselibs__condition_variable--><g id="elem_logic_arc_int__baselibs__condition_variable"><rect fill="#F1F1F1" height="40" id="logic_arc_int__baselibs__condition_variable" rx="2.5" ry="2.5" style="stroke:#181818;stroke-width:0.5;" width="332.7539" x="2458.5" y="158.5"/><ellipse cx="2473.5" cy="174.5" fill="#ADD1B2" rx="11" ry="11" style="stroke:#181818;stroke-width:1;"/><path d="M2476.4688,180.1406 Q2475.8906,180.4375 2475.25,180.5781 Q2474.6094,180.7344 2473.9063,180.7344 Q2471.4063,180.7344 2470.0781,179.0938 Q2468.7656,177.4375 2468.7656,174.3125 Q2468.7656,171.1875 2470.0781,169.5313 Q2471.4063,167.875 2473.9063,167.875 Q2474.6094,167.875 2475.25,168.0313 Q2475.9063,168.1875 2476.4688,168.4844 L2476.4688,171.2031 Q2475.8438,170.625 2475.25,170.3594 Q2474.6563,170.0781 2474.0313,170.0781 Q2472.6875,170.0781 2472,171.1563 Q2471.3125,172.2188 2471.3125,174.3125 Q2471.3125,176.4063 2472,177.4844 Q2472.6875,178.5469 2474.0313,178.5469 Q2474.6563,178.5469 2475.25,178.2813 Q2475.8438,178 2476.4688,177.4219 L2476.4688,180.1406 Z " fill="#000000"/><text fill="#000000" font-family="sans-serif" font-size="14" lengthAdjust="spacing" textLength="300.7539" x="2487.5" y="179.3467">logic_arc_int__baselibs__condition_variable</text><line style="stroke:#181818;stroke-width:0.5;" x1="2459.5" x2="2790.2539" y1="190.5" y2="190.5"/></g><!--class logic_arc_int__baselibs__json--><g id="elem_logic_arc_int__baselibs__json"><rect fill="#F1F1F1" height="40" id="logic_arc_int__baselibs__json" rx="2.5" ry="2.5" style="stroke:#181818;stroke-width:0.5;" width="233.168" x="3511.5" y="158.5"/><ellipse cx="3526.5" cy="174.5" fill="#ADD1B2" rx="11" ry="11" style="stroke:#181818;stroke-width:1;"/><path d="M3529.4688,180.1406 Q3528.8906,180.4375 3528.25,180.5781 Q3527.6094,180.7344 3526.9063,180.7344 Q3524.4063,180.7344 3523.0781,179.0938 Q3521.7656,177.4375 3521.7656,174.3125 Q3521.7656,171.1875 3523.0781,169.5313 Q3524.4063,167.875 3526.9063,167.875 Q3527.6094,167.875 3528.25,168.0313 Q3528.9063,168.1875 3529.4688,168.4844 L3529.4688,171.2031 Q3528.8438,170.625 3528.25,170.3594 Q3527.6563,170.0781 3527.0313,170.0781 Q3525.6875,170.0781 3525,171.1563 Q3524.3125,172.2188 3524.3125,174.3125 Q3524.3125,176.4063 3525,177.4844 Q3525.6875,178.5469 3527.0313,178.5469 Q3527.6563,178.5469 3528.25,178.2813 Q3528.8438,178 3529.4688,177.4219 L3529.4688,180.1406 Z " fill="#000000"/><text fill="#000000" font-family="sans-serif" font-size="14" lengthAdjust="spacing" textLength="201.168" x="3540.5" y="179.3467">logic_arc_int__baselibs__json</text><line style="stroke:#181818;stroke-width:0.5;" x1="3512.5" x2="3743.668" y1="190.5" y2="190.5"/></g><!--class logic_arc_int__baselibs__future--><g id="elem_logic_arc_int__baselibs__future"><rect fill="#F1F1F1" height="40" id="logic_arc_int__baselibs__future" rx="2.5" ry="2.5" style="stroke:#181818;stroke-width:0.5;" width="247.0791" x="1564.5" y="158.5"/><ellipse cx="1579.5" cy="174.5" fill="#ADD1B2" rx="11" ry="11" style="stroke:#181818;stroke-width:1;"/><path d="M1582.4688,180.1406 Q1581.8906,180.4375 1581.25,180.5781 Q1580.6094,180.7344 1579.9063,180.7344 Q1577.4063,180.7344 1576.0781,179.0938 Q1574.7656,177.4375 1574.7656,174.3125 Q1574.7656,171.1875 1576.0781,169.5313 Q1577.4063,167.875 1579.9063,167.875 Q1580.6094,167.875 1581.25,168.0313 Q1581.9063,168.1875 1582.4688,168.4844 L1582.4688,171.2031 Q1581.8438,170.625 1581.25,170.3594 Q1580.6563,170.0781 1580.0313,170.0781 Q1578.6875,170.0781 1578,171.1563 Q1577.3125,172.2188 1577.3125,174.3125 Q1577.3125,176.4063 1578,177.4844 Q1578.6875,178.5469 1580.0313,178.5469 Q1580.6563,178.5469 1581.25,178.2813 Q1581.8438,178 1582.4688,177.4219 L1582.4688,180.1406 Z " fill="#000000"/><text fill="#000000" font-family="sans-serif" font-size="14" lengthAdjust="spacing" textLength="215.0791" x="1593.5" y="179.3467">logic_arc_int__baselibs__future</text><line style="stroke:#181818;stroke-width:0.5;" x1="1565.5" x2="1810.5791" y1="190.5" y2="190.5"/></g><!--class logic_arc_int__baselibs__intrusive_list--><g id="elem_logic_arc_int__baselibs__intrusive_list"><rect fill="#F1F1F1" height="40" id="logic_arc_int__baselibs__intrusive_list" rx="2.5" ry="2.5" style="stroke:#181818;stroke-width:0.5;" width="293.0713" x="350.5" y="158.5"/><ellipse cx="365.5" cy="174.5" fill="#ADD1B2" rx="11" ry="11" style="stroke:#181818;stroke-width:1;"/><path d="M368.4688,180.1406 Q367.8906,180.4375 367.25,180.5781 Q366.6094,180.7344 365.9063,180.7344 Q363.4063,180.7344 362.0781,179.0938 Q360.7656,177.4375 360.7656,174.3125 Q360.7656,171.1875 362.0781,169.5313 Q363.4063,167.875 365.9063,167.875 Q366.6094,167.875 367.25,168.0313 Q367.9063,168.1875 368.4688,168.4844 L368.4688,171.2031 Q367.8438,170.625 367.25,170.3594 Q366.6563,170.0781 366.0313,170.0781 Q364.6875,170.0781 364,171.1563 Q363.3125,172.2188 363.3125,174.3125 Q363.3125,176.4063 364,177.4844 Q364.6875,178.5469 366.0313,178.5469 Q366.6563,178.5469 367.25,178.2813 Q367.8438,178 368.4688,177.4219 L368.4688,180.1406 Z " fill="#000000"/><text fill="#000000" font-family="sans-serif" font-size="14" lengthAdjust="spacing" textLength="261.0713" x="379.5" y="179.3467">logic_arc_int__baselibs__intrusive_list</text><line style="stroke:#181818;stroke-width:0.5;" x1="351.5" x2="642.5713" y1="190.5" y2="190.5"/></g><!--class comp_arc_sta__baselibs__filesystem--><g id="elem_comp_arc_sta__baselibs__filesystem"><rect fill="#F1F1F1" height="40" id="comp_arc_sta__baselibs__filesystem" rx="2.5" ry="2.5" style="stroke:#181818;stroke-width:0.5;" width="285.4492" x="5897.5" y="275.5"/><ellipse cx="5912.5" cy="291.5" fill="#ADD1B2" rx="11" ry="11" style="stroke:#181818;stroke-width:1;"/><path d="M5915.4688,297.1406 Q5914.8906,297.4375 5914.25,297.5781 Q5913.6094,297.7344 5912.9063,297.7344 Q5910.4063,297.7344 5909.0781,296.0938 Q5907.7656,294.4375 5907.7656,291.3125 Q5907.7656,288.1875 5909.0781,286.5313 Q5910.4063,284.875 5912.9063,284.875 Q5913.6094,284.875 5914.25,285.0313 Q5914.9063,285.1875 5915.4688,285.4844 L5915.4688,288.2031 Q5914.8438,287.625 5914.25,287.3594 Q5913.6563,287.0781 5913.0313,287.0781 Q5911.6875,287.0781 5911,288.1563 Q5910.3125,289.2188 5910.3125,291.3125 Q5910.3125,293.4063 5911,294.4844 Q5911.6875,295.5469 5913.0313,295.5469 Q5913.6563,295.5469 5914.25,295.2813 Q5914.8438,295 5915.4688,294.4219 L5915.4688,297.1406 Z " fill="#000000"/><text fill="#000000" font-family="sans-serif" font-size="14" lengthAdjust="spacing" textLength="253.4492" x="5926.5" y="296.3467">comp_arc_sta__baselibs__filesystem</text><line style="stroke:#181818;stroke-width:0.5;" x1="5898.5" x2="6181.9492" y1="307.5" y2="307.5"/></g><!--class logic_arc_int__baselibs__filesystem--><g id="elem_logic_arc_int__baselibs__filesystem"><rect fill="#F1F1F1" height="40" id="logic_arc_int__baselibs__filesystem" rx="2.5" ry="2.5" style="stroke:#181818;stroke-width:0.5;" width="276.4805" x="5902" y="158.5"/><ellipse cx="5917" cy="174.5" fill="#ADD1B2" rx="11" ry="11" style="stroke:#181818;stroke-width:1;"/><path d="M5919.9688,180.1406 Q5919.3906,180.4375 5918.75,180.5781 Q5918.1094,180.7344 5917.4063,180.7344 Q5914.9063,180.7344 5913.5781,179.0938 Q5912.2656,177.4375 5912.2656,174.3125 Q5912.2656,171.1875 5913.5781,169.5313 Q5914.9063,167.875 5917.4063,167.875 Q5918.1094,167.875 5918.75,168.0313 Q5919.4063,168.1875 5919.9688,168.4844 L5919.9688,171.2031 Q5919.3438,170.625 5918.75,170.3594 Q5918.1563,170.0781 5917.5313,170.0781 Q5916.1875,170.0781 5915.5,171.1563 Q5914.8125,172.2188 5914.8125,174.3125 Q5914.8125,176.4063 5915.5,177.4844 Q5916.1875,178.5469 5917.5313,178.5469 Q5918.1563,178.5469 5918.75,178.2813 Q5919.3438,178 5919.9688,177.4219 L5919.9688,180.1406 Z " fill="#000000"/><text fill="#000000" font-family="sans-serif" font-size="14" lengthAdjust="spacing" textLength="244.4805" x="5931" y="179.3467">logic_arc_int__baselibs__filesystem</text><line style="stroke:#181818;stroke-width:0.5;" x1="5903" x2="6177.4805" y1="190.5" y2="190.5"/></g><!--class logic_arc_int__baselibs__result--><g id="elem_logic_arc_int__baselibs__result"><rect fill="#F1F1F1" height="40" id="logic_arc_int__baselibs__result" rx="2.5" ry="2.5" style="stroke:#181818;stroke-width:0.5;" width="244.4609" x="679" y="158.5"/><ellipse cx="694" cy="174.5" fill="#ADD1B2" rx="11" ry="11" style="stroke:#181818;stroke-width:1;"/><path d="M696.9688,180.1406 Q696.3906,180.4375 695.75,180.5781 Q695.1094,180.7344 694.4063,180.7344 Q691.9063,180.7344 690.5781,179.0938 Q689.2656,177.4375 689.2656,174.3125 Q689.2656,171.1875 690.5781,169.5313 Q691.9063,167.875 694.4063,167.875 Q695.1094,167.875 695.75,168.0313 Q696.4063,168.1875 696.9688,168.4844 L696.9688,171.2031 Q696.3438,170.625 695.75,170.3594 Q695.1563,170.0781 694.5313,170.0781 Q693.1875,170.0781 692.5,171.1563 Q691.8125,172.2188 691.8125,174.3125 Q691.8125,176.4063 692.5,177.4844 Q693.1875,178.5469 694.5313,178.5469 Q695.1563,178.5469 695.75,178.2813 Q696.3438,178 696.9688,177.4219 L696.9688,180.1406 Z " fill="#000000"/><text fill="#000000" font-family="sans-serif" font-size="14" lengthAdjust="spacing" textLength="212.4609" x="708" y="179.3467">logic_arc_int__baselibs__result</text><line style="stroke:#181818;stroke-width:0.5;" x1="680" x2="922.4609" y1="190.5" y2="190.5"/></g><!--class comp_arc_sta__baselibs__memory_shared--><g id="elem_comp_arc_sta__baselibs__memory_shared"><rect fill="#F1F1F1" height="40" id="comp_arc_sta__baselibs__memory_shared" rx="2.5" ry="2.5" style="stroke:#181818;stroke-width:0.5;" width="327.0117" x="4870.5" y="275.5"/><ellipse cx="4885.5" cy="291.5" fill="#ADD1B2" rx="11" ry="11" style="stroke:#181818;stroke-width:1;"/><path d="M4888.4688,297.1406 Q4887.8906,297.4375 4887.25,297.5781 Q4886.6094,297.7344 4885.9063,297.7344 Q4883.4063,297.7344 4882.0781,296.0938 Q4880.7656,294.4375 4880.7656,291.3125 Q4880.7656,288.1875 4882.0781,286.5313 Q4883.4063,284.875 4885.9063,284.875 Q4886.6094,284.875 4887.25,285.0313 Q4887.9063,285.1875 4888.4688,285.4844 L4888.4688,288.2031 Q4887.8438,287.625 4887.25,287.3594 Q4886.6563,287.0781 4886.0313,287.0781 Q4884.6875,287.0781 4884,288.1563 Q4883.3125,289.2188 4883.3125,291.3125 Q4883.3125,293.4063 4884,294.4844 Q4884.6875,295.5469 4886.0313,295.5469 Q4886.6563,295.5469 4887.25,295.2813 Q4887.8438,295 4888.4688,294.4219 L4888.4688,297.1406 Z " fill="#000000"/><text fill="#000000" font-family="sans-serif" font-size="14" lengthAdjust="spacing" textLength="295.0117" x="4899.5" y="296.3467">comp_arc_sta__baselibs__memory_shared</text><line style="stroke:#181818;stroke-width:0.5;" x1="4871.5" x2="5196.5117" y1="307.5" y2="307.5"/></g><!--class logic_arc_int__baselibs__memory_shared--><g id="elem_logic_arc_int__baselibs__memory_shared"><rect fill="#F1F1F1" height="40" id="logic_arc_int__baselibs__memory_shared" rx="2.5" ry="2.5" style="stroke:#181818;stroke-width:0.5;" width="318.043" x="4871" y="158.5"/><ellipse cx="4886" cy="174.5" fill="#ADD1B2" rx="11" ry="11" style="stroke:#181818;stroke-width:1;"/><path d="M4888.9688,180.1406 Q4888.3906,180.4375 4887.75,180.5781 Q4887.1094,180.7344 4886.4063,180.7344 Q4883.9063,180.7344 4882.5781,179.0938 Q4881.2656,177.4375 4881.2656,174.3125 Q4881.2656,171.1875 4882.5781,169.5313 Q4883.9063,167.875 4886.4063,167.875 Q4887.1094,167.875 4887.75,168.0313 Q4888.4063,168.1875 4888.9688,168.4844 L4888.9688,171.2031 Q4888.3438,170.625 4887.75,170.3594 Q4887.1563,170.0781 4886.5313,170.0781 Q4885.1875,170.0781 4884.5,171.1563 Q4883.8125,172.2188 4883.8125,174.3125 Q4883.8125,176.4063 4884.5,177.4844 Q4885.1875,178.5469 4886.5313,178.5469 Q4887.1563,178.5469 4887.75,178.2813 Q4888.3438,178 4888.9688,177.4219 L4888.9688,180.1406 Z " fill="#000000"/><text fill="#000000" font-family="sans-serif" font-size="14" lengthAdjust="spacing" textLength="286.043" x="4900" y="179.3467">logic_arc_int__baselibs__memory_shared</text><line style="stroke:#181818;stroke-width:0.5;" x1="4872" x2="5188.043" y1="190.5" y2="190.5"/></g><!--class logic_arc_int__baselibs__synchronized_queue--><g id="elem_logic_arc_int__baselibs__synchronized_queue"><rect fill="#F1F1F1" height="40" id="logic_arc_int__baselibs__synchronized_queue" rx="2.5" ry="2.5" style="stroke:#181818;stroke-width:0.5;" width="348.3604" x="3128" y="158.5"/><ellipse cx="3143" cy="174.5" fill="#ADD1B2" rx="11" ry="11" style="stroke:#181818;stroke-width:1;"/><path d="M3145.9688,180.1406 Q3145.3906,180.4375 3144.75,180.5781 Q3144.1094,180.7344 3143.4063,180.7344 Q3140.9063,180.7344 3139.5781,179.0938 Q3138.2656,177.4375 3138.2656,174.3125 Q3138.2656,171.1875 3139.5781,169.5313 Q3140.9063,167.875 3143.4063,167.875 Q3144.1094,167.875 3144.75,168.0313 Q3145.4063,168.1875 3145.9688,168.4844 L3145.9688,171.2031 Q3145.3438,170.625 3144.75,170.3594 Q3144.1563,170.0781 3143.5313,170.0781 Q3142.1875,170.0781 3141.5,171.1563 Q3140.8125,172.2188 3140.8125,174.3125 Q3140.8125,176.4063 3141.5,177.4844 Q3142.1875,178.5469 3143.5313,178.5469 Q3144.1563,178.5469 3144.75,178.2813 Q3145.3438,178 3145.9688,177.4219 L3145.9688,180.1406 Z " fill="#000000"/><text fill="#000000" font-family="sans-serif" font-size="14" lengthAdjust="spacing" textLength="316.3604" x="3157" y="179.3467">logic_arc_int__baselibs__synchronized_queue</text><line style="stroke:#181818;stroke-width:0.5;" x1="3129" x2="3475.3604" y1="190.5" y2="190.5"/></g><!--class comp_arc_sta__baselibs__message_passing--><g id="elem_comp_arc_sta__baselibs__message_passing"><rect fill="#F1F1F1" height="40" id="comp_arc_sta__baselibs__message_passing" rx="2.5" ry="2.5" style="stroke:#181818;stroke-width:0.5;" width="337.1357" x="4498.5" y="275.5"/><ellipse cx="4513.5" cy="291.5" fill="#ADD1B2" rx="11" ry="11" style="stroke:#181818;stroke-width:1;"/><path d="M4516.4688,297.1406 Q4515.8906,297.4375 4515.25,297.5781 Q4514.6094,297.7344 4513.9063,297.7344 Q4511.4063,297.7344 4510.0781,296.0938 Q4508.7656,294.4375 4508.7656,291.3125 Q4508.7656,288.1875 4510.0781,286.5313 Q4511.4063,284.875 4513.9063,284.875 Q4514.6094,284.875 4515.25,285.0313 Q4515.9063,285.1875 4516.4688,285.4844 L4516.4688,288.2031 Q4515.8438,287.625 4515.25,287.3594 Q4514.6563,287.0781 4514.0313,287.0781 Q4512.6875,287.0781 4512,288.1563 Q4511.3125,289.2188 4511.3125,291.3125 Q4511.3125,293.4063 4512,294.4844 Q4512.6875,295.5469 4514.0313,295.5469 Q4514.6563,295.5469 4515.25,295.2813 Q4515.8438,295 4516.4688,294.4219 L4516.4688,297.1406 Z " fill="#000000"/><text fill="#000000" font-family="sans-serif" font-size="14" lengthAdjust="spacing" textLength="305.1357" x="4527.5" y="296.3467">comp_arc_sta__baselibs__message_passing</text><line style="stroke:#181818;stroke-width:0.5;" x1="4499.5" x2="4834.6357" y1="307.5" y2="307.5"/></g><!--class logic_arc_int__baselibs__message_passing--><g id="elem_logic_arc_int__baselibs__message_passing"><rect fill="#F1F1F1" height="40" id="logic_arc_int__baselibs__message_passing" rx="2.5" ry="2.5" style="stroke:#181818;stroke-width:0.5;" width="328.167" x="4508" y="158.5"/><ellipse cx="4523" cy="174.5" fill="#ADD1B2" rx="11" ry="11" style="stroke:#181818;stroke-width:1;"/><path d="M4525.9688,180.1406 Q4525.3906,180.4375 4524.75,180.5781 Q4524.1094,180.7344 4523.4063,180.7344 Q4520.9063,180.7344 4519.5781,179.0938 Q4518.2656,177.4375 4518.2656,174.3125 Q4518.2656,171.1875 4519.5781,169.5313 Q4520.9063,167.875 4523.4063,167.875 Q4524.1094,167.875 4524.75,168.0313 Q4525.4063,168.1875 4525.9688,168.4844 L4525.9688,171.2031 Q4525.3438,170.625 4524.75,170.3594 Q4524.1563,170.0781 4523.5313,170.0781 Q4522.1875,170.0781 4521.5,171.1563 Q4520.8125,172.2188 4520.8125,174.3125 Q4520.8125,176.4063 4521.5,177.4844 Q4522.1875,178.5469 4523.5313,178.5469 Q4524.1563,178.5469 4524.75,178.2813 Q4525.3438,178 4525.9688,177.4219 L4525.9688,180.1406 Z " fill="#000000"/><text fill="#000000" font-family="sans-serif" font-size="14" lengthAdjust="spacing" textLength="296.167" x="4537" y="179.3467">logic_arc_int__baselibs__message_passing</text><line style="stroke:#181818;stroke-width:0.5;" x1="4509" x2="4835.167" y1="190.5" y2="190.5"/></g><!--class comp_arc_sta__baselibs__bit_manipulation--><g id="elem_comp_arc_sta__baselibs__bit_manipulation"><rect fill="#F1F1F1" height="40" id="comp_arc_sta__baselibs__bit_manipulation" rx="2.5" ry="2.5" style="stroke:#181818;stroke-width:0.5;" width="330.8057" x="3932.5" y="275.5"/><ellipse cx="3947.5" cy="291.5" fill="#ADD1B2" rx="11" ry="11" style="stroke:#181818;stroke-width:1;"/><path d="M3950.4688,297.1406 Q3949.8906,297.4375 3949.25,297.5781 Q3948.6094,297.7344 3947.9063,297.7344 Q3945.4063,297.7344 3944.0781,296.0938 Q3942.7656,294.4375 3942.7656,291.3125 Q3942.7656,288.1875 3944.0781,286.5313 Q3945.4063,284.875 3947.9063,284.875 Q3948.6094,284.875 3949.25,285.0313 Q3949.9063,285.1875 3950.4688,285.4844 L3950.4688,288.2031 Q3949.8438,287.625 3949.25,287.3594 Q3948.6563,287.0781 3948.0313,287.0781 Q3946.6875,287.0781 3946,288.1563 Q3945.3125,289.2188 3945.3125,291.3125 Q3945.3125,293.4063 3946,294.4844 Q3946.6875,295.5469 3948.0313,295.5469 Q3948.6563,295.5469 3949.25,295.2813 Q3949.8438,295 3950.4688,294.4219 L3950.4688,297.1406 Z " fill="#000000"/><text fill="#000000" font-family="sans-serif" font-size="14" lengthAdjust="spacing" textLength="298.8057" x="3961.5" y="296.3467">comp_arc_sta__baselibs__bit_manipulation</text><line style="stroke:#181818;stroke-width:0.5;" x1="3933.5" x2="4262.3057" y1="307.5" y2="307.5"/></g><!--class logic_arc_int__baselibs__utils_base64--><g id="elem_logic_arc_int__baselibs__utils_base64"><rect fill="#F1F1F1" height="40" id="logic_arc_int__baselibs__utils_base64" rx="2.5" ry="2.5" style="stroke:#181818;stroke-width:0.5;" width="292.1689" x="5224" y="158.5"/><ellipse cx="5239" cy="174.5" fill="#ADD1B2" rx="11" ry="11" style="stroke:#181818;stroke-width:1;"/><path d="M5241.9688,180.1406 Q5241.3906,180.4375 5240.75,180.5781 Q5240.1094,180.7344 5239.4063,180.7344 Q5236.9063,180.7344 5235.5781,179.0938 Q5234.2656,177.4375 5234.2656,174.3125 Q5234.2656,171.1875 5235.5781,169.5313 Q5236.9063,167.875 5239.4063,167.875 Q5240.1094,167.875 5240.75,168.0313 Q5241.4063,168.1875 5241.9688,168.4844 L5241.9688,171.2031 Q5241.3438,170.625 5240.75,170.3594 Q5240.1563,170.0781 5239.5313,170.0781 Q5238.1875,170.0781 5237.5,171.1563 Q5236.8125,172.2188 5236.8125,174.3125 Q5236.8125,176.4063 5237.5,177.4844 Q5238.1875,178.5469 5239.5313,178.5469 Q5240.1563,178.5469 5240.75,178.2813 Q5241.3438,178 5241.9688,177.4219 L5241.9688,180.1406 Z " fill="#000000"/><text fill="#000000" font-family="sans-serif" font-size="14" lengthAdjust="spacing" textLength="260.1689" x="5253" y="179.3467">logic_arc_int__baselibs__utils_base64</text><line style="stroke:#181818;stroke-width:0.5;" x1="5225" x2="5515.1689" y1="190.5" y2="190.5"/></g><!--class comp_arc_sta__baselibs__json--><g id="elem_comp_arc_sta__baselibs__json"><rect fill="#F1F1F1" height="40" id="comp_arc_sta__baselibs__json" rx="2.5" ry="2.5" style="stroke:#181818;stroke-width:0.5;" width="242.1367" x="3507" y="275.5"/><ellipse cx="3522" cy="291.5" fill="#ADD1B2" rx="11" ry="11" style="stroke:#181818;stroke-width:1;"/><path d="M3524.9688,297.1406 Q3524.3906,297.4375 3523.75,297.5781 Q3523.1094,297.7344 3522.4063,297.7344 Q3519.9063,297.7344 3518.5781,296.0938 Q3517.2656,294.4375 3517.2656,291.3125 Q3517.2656,288.1875 3518.5781,286.5313 Q3519.9063,284.875 3522.4063,284.875 Q3523.1094,284.875 3523.75,285.0313 Q3524.4063,285.1875 3524.9688,285.4844 L3524.9688,288.2031 Q3524.3438,287.625 3523.75,287.3594 Q3523.1563,287.0781 3522.5313,287.0781 Q3521.1875,287.0781 3520.5,288.1563 Q3519.8125,289.2188 3519.8125,291.3125 Q3519.8125,293.4063 3520.5,294.4844 Q3521.1875,295.5469 3522.5313,295.5469 Q3523.1563,295.5469 3523.75,295.2813 Q3524.3438,295 3524.9688,294.4219 L3524.9688,297.1406 Z " fill="#000000"/><text fill="#000000" font-family="sans-serif" font-size="14" lengthAdjust="spacing" textLength="210.1367" x="3536" y="296.3467">comp_arc_sta__baselibs__json</text><line style="stroke:#181818;stroke-width:0.5;" x1="3508" x2="3748.1367" y1="307.5" y2="307.5"/></g><!--class logic_arc_int__baselibs__bit_manipulation--><g id="elem_logic_arc_int__baselibs__bit_manipulation"><rect fill="#F1F1F1" height="40" id="logic_arc_int__baselibs__bit_manipulation" rx="2.5" ry="2.5" style="stroke:#181818;stroke-width:0.5;" width="321.8369" x="3780" y="158.5"/><ellipse cx="3795" cy="174.5" fill="#ADD1B2" rx="11" ry="11" style="stroke:#181818;stroke-width:1;"/><path d="M3797.9688,180.1406 Q3797.3906,180.4375 3796.75,180.5781 Q3796.1094,180.7344 3795.4063,180.7344 Q3792.9063,180.7344 3791.5781,179.0938 Q3790.2656,177.4375 3790.2656,174.3125 Q3790.2656,171.1875 3791.5781,169.5313 Q3792.9063,167.875 3795.4063,167.875 Q3796.1094,167.875 3796.75,168.0313 Q3797.4063,168.1875 3797.9688,168.4844 L3797.9688,171.2031 Q3797.3438,170.625 3796.75,170.3594 Q3796.1563,170.0781 3795.5313,170.0781 Q3794.1875,170.0781 3793.5,171.1563 Q3792.8125,172.2188 3792.8125,174.3125 Q3792.8125,176.4063 3793.5,177.4844 Q3794.1875,178.5469 3795.5313,178.5469 Q3796.1563,178.5469 3796.75,178.2813 Q3797.3438,178 3797.9688,177.4219 L3797.9688,180.1406 Z " fill="#000000"/><text fill="#000000" font-family="sans-serif" font-size="14" lengthAdjust="spacing" textLength="289.8369" x="3809" y="179.3467">logic_arc_int__baselibs__bit_manipulation</text><line style="stroke:#181818;stroke-width:0.5;" x1="3781" x2="4100.8369" y1="190.5" y2="190.5"/></g><!--class logic_arc_int__baselibs__executor--><g id="elem_logic_arc_int__baselibs__executor"><rect fill="#F1F1F1" height="40" id="logic_arc_int__baselibs__executor" rx="2.5" ry="2.5" style="stroke:#181818;stroke-width:0.5;" width="266.4385" x="2827" y="158.5"/><ellipse cx="2842" cy="174.5" fill="#ADD1B2" rx="11" ry="11" style="stroke:#181818;stroke-width:1;"/><path d="M2844.9688,180.1406 Q2844.3906,180.4375 2843.75,180.5781 Q2843.1094,180.7344 2842.4063,180.7344 Q2839.9063,180.7344 2838.5781,179.0938 Q2837.2656,177.4375 2837.2656,174.3125 Q2837.2656,171.1875 2838.5781,169.5313 Q2839.9063,167.875 2842.4063,167.875 Q2843.1094,167.875 2843.75,168.0313 Q2844.4063,168.1875 2844.9688,168.4844 L2844.9688,171.2031 Q2844.3438,170.625 2843.75,170.3594 Q2843.1563,170.0781 2842.5313,170.0781 Q2841.1875,170.0781 2840.5,171.1563 Q2839.8125,172.2188 2839.8125,174.3125 Q2839.8125,176.4063 2840.5,177.4844 Q2841.1875,178.5469 2842.5313,178.5469 Q2843.1563,178.5469 2843.75,178.2813 Q2844.3438,178 2844.9688,177.4219 L2844.9688,180.1406 Z " fill="#000000"/><text fill="#000000" font-family="sans-serif" font-size="14" lengthAdjust="spacing" textLength="234.4385" x="2856" y="179.3467">logic_arc_int__baselibs__executor</text><line style="stroke:#181818;stroke-width:0.5;" x1="2828" x2="3092.4385" y1="190.5" y2="190.5"/></g><!--class comp_arc_sta__baselibs__result--><g id="elem_comp_arc_sta__baselibs__result"><rect fill="#F1F1F1" height="40" id="comp_arc_sta__baselibs__result" rx="2.5" ry="2.5" style="stroke:#181818;stroke-width:0.5;" width="253.4297" x="674.5" y="275.5"/><ellipse cx="689.5" cy="291.5" fill="#ADD1B2" rx="11" ry="11" style="stroke:#181818;stroke-width:1;"/><path d="M692.4688,297.1406 Q691.8906,297.4375 691.25,297.5781 Q690.6094,297.7344 689.9063,297.7344 Q687.4063,297.7344 686.0781,296.0938 Q684.7656,294.4375 684.7656,291.3125 Q684.7656,288.1875 686.0781,286.5313 Q687.4063,284.875 689.9063,284.875 Q690.6094,284.875 691.25,285.0313 Q691.9063,285.1875 692.4688,285.4844 L692.4688,288.2031 Q691.8438,287.625 691.25,287.3594 Q690.6563,287.0781 690.0313,287.0781 Q688.6875,287.0781 688,288.1563 Q687.3125,289.2188 687.3125,291.3125 Q687.3125,293.4063 688,294.4844 Q688.6875,295.5469 690.0313,295.5469 Q690.6563,295.5469 691.25,295.2813 Q691.8438,295 692.4688,294.4219 L692.4688,297.1406 Z " fill="#000000"/><text fill="#000000" font-family="sans-serif" font-size="14" lengthAdjust="spacing" textLength="221.4297" x="703.5" y="296.3467">comp_arc_sta__baselibs__result</text><line style="stroke:#181818;stroke-width:0.5;" x1="675.5" x2="926.9297" y1="307.5" y2="307.5"/></g><!--class comp_arc_sta__baselibs__containers--><g id="elem_comp_arc_sta__baselibs__containers"><rect fill="#F1F1F1" height="40" id="comp_arc_sta__baselibs__containers" rx="2.5" ry="2.5" style="stroke:#181818;stroke-width:0.5;" width="287.1445" x="294.5" y="275.5"/><ellipse cx="309.5" cy="291.5" fill="#ADD1B2" rx="11" ry="11" style="stroke:#181818;stroke-width:1;"/><path d="M312.4688,297.1406 Q311.8906,297.4375 311.25,297.5781 Q310.6094,297.7344 309.9063,297.7344 Q307.4063,297.7344 306.0781,296.0938 Q304.7656,294.4375 304.7656,291.3125 Q304.7656,288.1875 306.0781,286.5313 Q307.4063,284.875 309.9063,284.875 Q310.6094,284.875 311.25,285.0313 Q311.9063,285.1875 312.4688,285.4844 L312.4688,288.2031 Q311.8438,287.625 311.25,287.3594 Q310.6563,287.0781 310.0313,287.0781 Q308.6875,287.0781 308,288.1563 Q307.3125,289.2188 307.3125,291.3125 Q307.3125,293.4063 308,294.4844 Q308.6875,295.5469 310.0313,295.5469 Q310.6563,295.5469 311.25,295.2813 Q311.8438,295 312.4688,294.4219 L312.4688,297.1406 Z " fill="#000000"/><text fill="#000000" font-family="sans-serif" font-size="14" lengthAdjust="spacing" textLength="255.1445" x="323.5" y="296.3467">comp_arc_sta__baselibs__containers</text><line style="stroke:#181818;stroke-width:0.5;" x1="295.5" x2="580.6445" y1="307.5" y2="307.5"/></g><!--class logic_arc_int__baselibs__dynamic_array--><g id="elem_logic_arc_int__baselibs__dynamic_array"><rect fill="#F1F1F1" height="40" id="logic_arc_int__baselibs__dynamic_array" rx="2.5" ry="2.5" style="stroke:#181818;stroke-width:0.5;" width="308.3496" x="7" y="158.5"/><ellipse cx="22" cy="174.5" fill="#ADD1B2" rx="11" ry="11" style="stroke:#181818;stroke-width:1;"/><path d="M24.9688,180.1406 Q24.3906,180.4375 23.75,180.5781 Q23.1094,180.7344 22.4063,180.7344 Q19.9063,180.7344 18.5781,179.0938 Q17.2656,177.4375 17.2656,174.3125 Q17.2656,171.1875 18.5781,169.5313 Q19.9063,167.875 22.4063,167.875 Q23.1094,167.875 23.75,168.0313 Q24.4063,168.1875 24.9688,168.4844 L24.9688,171.2031 Q24.3438,170.625 23.75,170.3594 Q23.1563,170.0781 22.5313,170.0781 Q21.1875,170.0781 20.5,171.1563 Q19.8125,172.2188 19.8125,174.3125 Q19.8125,176.4063 20.5,177.4844 Q21.1875,178.5469 22.5313,178.5469 Q23.1563,178.5469 23.75,178.2813 Q24.3438,178 24.9688,177.4219 L24.9688,180.1406 Z " fill="#000000"/><text fill="#000000" font-family="sans-serif" font-size="14" lengthAdjust="spacing" textLength="276.3496" x="36" y="179.3467">logic_arc_int__baselibs__dynamic_array</text><line style="stroke:#181818;stroke-width:0.5;" x1="8" x2="314.3496" y1="190.5" y2="190.5"/></g><!--class logic_arc_int__baselibs__task--><g id="elem_logic_arc_int__baselibs__task"><rect fill="#F1F1F1" height="40" id="logic_arc_int__baselibs__task" rx="2.5" ry="2.5" style="stroke:#181818;stroke-width:0.5;" width="234.0156" x="958" y="158.5"/><ellipse cx="973" cy="174.5" fill="#ADD1B2" rx="11" ry="11" style="stroke:#181818;stroke-width:1;"/><path d="M975.9688,180.1406 Q975.3906,180.4375 974.75,180.5781 Q974.1094,180.7344 973.4063,180.7344 Q970.9063,180.7344 969.5781,179.0938 Q968.2656,177.4375 968.2656,174.3125 Q968.2656,171.1875 969.5781,169.5313 Q970.9063,167.875 973.4063,167.875 Q974.1094,167.875 974.75,168.0313 Q975.4063,168.1875 975.9688,168.4844 L975.9688,171.2031 Q975.3438,170.625 974.75,170.3594 Q974.1563,170.0781 973.5313,170.0781 Q972.1875,170.0781 971.5,171.1563 Q970.8125,172.2188 970.8125,174.3125 Q970.8125,176.4063 971.5,177.4844 Q972.1875,178.5469 973.5313,178.5469 Q974.1563,178.5469 974.75,178.2813 Q975.3438,178 975.9688,177.4219 L975.9688,180.1406 Z " fill="#000000"/><text fill="#000000" font-family="sans-serif" font-size="14" lengthAdjust="spacing" textLength="202.0156" x="987" y="179.3467">logic_arc_int__baselibs__task</text><line style="stroke:#181818;stroke-width:0.5;" x1="959" x2="1191.0156" y1="190.5" y2="190.5"/></g><!--class logic_arc_int__baselibs__shared_future--><g id="elem_logic_arc_int__baselibs__shared_future"><rect fill="#F1F1F1" height="40" id="logic_arc_int__baselibs__shared_future" rx="2.5" ry="2.5" style="stroke:#181818;stroke-width:0.5;" width="302.0811" x="1227" y="158.5"/><ellipse cx="1242" cy="174.5" fill="#ADD1B2" rx="11" ry="11" style="stroke:#181818;stroke-width:1;"/><path d="M1244.9688,180.1406 Q1244.3906,180.4375 1243.75,180.5781 Q1243.1094,180.7344 1242.4063,180.7344 Q1239.9063,180.7344 1238.5781,179.0938 Q1237.2656,177.4375 1237.2656,174.3125 Q1237.2656,171.1875 1238.5781,169.5313 Q1239.9063,167.875 1242.4063,167.875 Q1243.1094,167.875 1243.75,168.0313 Q1244.4063,168.1875 1244.9688,168.4844 L1244.9688,171.2031 Q1244.3438,170.625 1243.75,170.3594 Q1243.1563,170.0781 1242.5313,170.0781 Q1241.1875,170.0781 1240.5,171.1563 Q1239.8125,172.2188 1239.8125,174.3125 Q1239.8125,176.4063 1240.5,177.4844 Q1241.1875,178.5469 1242.5313,178.5469 Q1243.1563,178.5469 1243.75,178.2813 Q1244.3438,178 1244.9688,177.4219 L1244.9688,180.1406 Z " fill="#000000"/><text fill="#000000" font-family="sans-serif" font-size="14" lengthAdjust="spacing" textLength="270.0811" x="1256" y="179.3467">logic_arc_int__baselibs__shared_future</text><line style="stroke:#181818;stroke-width:0.5;" x1="1228" x2="1528.0811" y1="190.5" y2="190.5"/></g><!--link Feature_User to logic_arc_int__baselibs__promise--><g id="link_Feature_User_logic_arc_int__baselibs__promise"><path codeLine="15" d="M2914.94,53.48 C2807.54,74.9 2540.4341,128.1564 2394.4341,157.2764 " fill="transparent" id="Feature_User-to-logic_arc_int__baselibs__promise" style="stroke:#181818;stroke-width:1;"/><polygon fill="#181818" points="2388.55,158.45,2398.1586,160.6123,2393.4534,157.472,2396.5938,152.7669,2388.55,158.45" style="stroke:#181818;stroke-width:1;"/><text fill="#000000" font-family="sans-serif" font-size="13" lengthAdjust="spacing" textLength="23.0103" x="2607" y="124.5669">use</text></g><!--reverse link logic_arc_int__baselibs__utils_scoped_op to comp_arc_sta__baselibs__utils--><g id="link_logic_arc_int__baselibs__utils_scoped_op_comp_arc_sta__baselibs__utils"><path codeLine="16" d="M5670.8479,201.7743 C5634.3679,223.0643 5581.14,254.14 5544.75,275.38 " fill="transparent" id="logic_arc_int__baselibs__utils_scoped_op-backto-comp_arc_sta__baselibs__utils" style="stroke:#181818;stroke-width:1;"/><polygon fill="#181818" points="5676.03,198.75,5666.2407,199.8317,5671.7116,201.2702,5670.2731,206.7411,5676.03,198.75" style="stroke:#181818;stroke-width:1;"/><text fill="#000000" font-family="sans-serif" font-size="13" lengthAdjust="spacing" textLength="76.9082" x="5623" y="241.5669">implements</text></g><!--reverse link logic_arc_int__baselibs__task_result to comp_arc_sta__baselibs__concurrency--><g id="link_logic_arc_int__baselibs__task_result_comp_arc_sta__baselibs__concurrency"><path codeLine="17" d="M2017.4065,202.3546 C2045.7365,223.6446 2086.3,254.14 2114.56,275.38 " fill="transparent" id="logic_arc_int__baselibs__task_result-backto-comp_arc_sta__baselibs__concurrency" style="stroke:#181818;stroke-width:1;"/><polygon fill="#181818" points="2012.61,198.75,2017.4017,207.3546,2016.6071,201.7538,2022.2079,200.9592,2012.61,198.75" style="stroke:#181818;stroke-width:1;"/><text fill="#000000" font-family="sans-serif" font-size="13" lengthAdjust="spacing" textLength="76.9082" x="2074" y="241.5669">implements</text></g><!--link Feature_User to logic_arc_int__baselibs__bit_mask_operator--><g id="link_Feature_User_logic_arc_int__baselibs__bit_mask_operator"><path codeLine="18" d="M3005.06,48.86 C3160.1,63.86 3685.85,114.87 4120,158.5 C4125.62,159.06 4125.3711,159.0297 4131.1411,159.6197 " fill="transparent" id="Feature_User-to-logic_arc_int__baselibs__bit_mask_operator" style="stroke:#181818;stroke-width:1;"/><polygon fill="#181818" points="4137.11,160.23,4128.5636,155.3352,4132.1359,159.7214,4127.7498,163.2937,4137.11,160.23" style="stroke:#181818;stroke-width:1;"/><text fill="#000000" font-family="sans-serif" font-size="13" lengthAdjust="spacing" textLength="23.0103" x="3802" y="124.5669">use</text></g><!--link Feature_User to logic_arc_int__baselibs__condition_variable--><g id="link_Feature_User_logic_arc_int__baselibs__condition_variable"><path codeLine="19" d="M2914.82,62.44 C2851.69,87.5 2743.1568,130.5965 2678.5568,156.2365 " fill="transparent" id="Feature_User-to-logic_arc_int__baselibs__condition_variable" style="stroke:#181818;stroke-width:1;"/><polygon fill="#181818" points="2672.98,158.45,2682.8208,158.8477,2677.6273,156.6055,2679.8696,151.412,2672.98,158.45" style="stroke:#181818;stroke-width:1;"/><text fill="#000000" font-family="sans-serif" font-size="13" lengthAdjust="spacing" textLength="23.0103" x="2783" y="124.5669">use</text></g><!--link Feature_User to logic_arc_int__baselibs__json--><g id="link_Feature_User_logic_arc_int__baselibs__json"><path codeLine="20" d="M3005.13,53.48 C3112.69,74.9 3380.1955,128.1582 3526.4255,157.2782 " fill="transparent" id="Feature_User-to-logic_arc_int__baselibs__json" style="stroke:#181818;stroke-width:1;"/><polygon fill="#181818" points="3532.31,158.45,3524.2645,152.7693,3527.4063,157.4735,3522.7021,160.6152,3532.31,158.45" style="stroke:#181818;stroke-width:1;"/><text fill="#000000" font-family="sans-serif" font-size="13" lengthAdjust="spacing" textLength="23.0103" x="3374" y="124.5669">use</text></g><!--reverse link logic_arc_int__baselibs__future to comp_arc_sta__baselibs__concurrency--><g id="link_logic_arc_int__baselibs__future_comp_arc_sta__baselibs__concurrency"><path codeLine="21" d="M1768.7047,200.0296 C1852.3747,221.3196 1981.23,254.11 2064.96,275.41 " fill="transparent" id="logic_arc_int__baselibs__future-backto-comp_arc_sta__baselibs__concurrency" style="stroke:#181818;stroke-width:1;"/><polygon fill="#181818" points="1762.89,198.55,1770.6257,204.6458,1767.7356,199.783,1772.5984,196.8929,1762.89,198.55" style="stroke:#181818;stroke-width:1;"/><text fill="#000000" font-family="sans-serif" font-size="13" lengthAdjust="spacing" textLength="76.9082" x="1943" y="241.5669">implements</text></g><!--link Feature_User to logic_arc_int__baselibs__intrusive_list--><g id="link_Feature_User_logic_arc_int__baselibs__intrusive_list"><path codeLine="22" d="M2914.88,45.53 C2716.28,50.19 1900.04,70.97 1231,111.5 C977.27,126.87 913.95,133.43 661,158.5 C655.3,159.07 655.4479,159.0398 649.5779,159.6498 " fill="transparent" id="Feature_User-to-logic_arc_int__baselibs__intrusive_list" style="stroke:#181818;stroke-width:1;"/><polygon fill="#181818" points="643.61,160.27,652.9752,163.3183,648.5832,159.7532,652.1483,155.3612,643.61,160.27" style="stroke:#181818;stroke-width:1;"/><text fill="#000000" font-family="sans-serif" font-size="13" lengthAdjust="spacing" textLength="23.0103" x="1232" y="124.5669">use</text></g><!--link Feature_User to logic_arc_int__baselibs__future--><g id="link_Feature_User_logic_arc_int__baselibs__future"><path codeLine="23" d="M2914.95,48.49 C2762.31,62.15 2250.63,108.86 1829,158.5 C1823.36,159.16 1823.5446,159.1233 1817.7246,159.8433 " fill="transparent" id="Feature_User-to-logic_arc_int__baselibs__future" style="stroke:#181818;stroke-width:1;"/><polygon fill="#181818" points="1811.77,160.58,1821.193,163.4448,1816.7322,159.9661,1820.2108,155.5053,1811.77,160.58" style="stroke:#181818;stroke-width:1;"/><text fill="#000000" font-family="sans-serif" font-size="13" lengthAdjust="spacing" textLength="23.0103" x="2233" y="124.5669">use</text></g><!--reverse link logic_arc_int__baselibs__filesystem to comp_arc_sta__baselibs__filesystem--><g id="link_logic_arc_int__baselibs__filesystem_comp_arc_sta__baselibs__filesystem"><path codeLine="24" d="M6040,204.75 C6040,225.98 6040,253.94 6040,275.19 " fill="transparent" id="logic_arc_int__baselibs__filesystem-backto-comp_arc_sta__baselibs__filesystem" style="stroke:#181818;stroke-width:1;"/><polygon fill="#181818" points="6040,198.75,6036,207.75,6040,203.75,6044,207.75,6040,198.75" style="stroke:#181818;stroke-width:1;"/><text fill="#000000" font-family="sans-serif" font-size="13" lengthAdjust="spacing" textLength="76.9082" x="6041" y="241.5669">implements</text></g><!--link Feature_User to logic_arc_int__baselibs__result--><g id="link_Feature_User_logic_arc_int__baselibs__result"><path codeLine="25" d="M2914.9,45.99 C2736.62,52.03 2063.89,75.97 1511,111.5 C1256.89,127.83 1193.13,130.8 940,158.5 C934.55,159.1 934.9478,159.0197 929.3278,159.6897 " fill="transparent" id="Feature_User-to-logic_arc_int__baselibs__result" style="stroke:#181818;stroke-width:1;"/><polygon fill="#181818" points="923.37,160.4,932.7802,163.3065,928.3348,159.8081,931.8332,155.3627,923.37,160.4" style="stroke:#181818;stroke-width:1;"/><text fill="#000000" font-family="sans-serif" font-size="13" lengthAdjust="spacing" textLength="23.0103" x="1512" y="124.5669">use</text></g><!--reverse link logic_arc_int__baselibs__memory_shared to comp_arc_sta__baselibs__memory_shared--><g id="link_logic_arc_int__baselibs__memory_shared_comp_arc_sta__baselibs__memory_shared"><path codeLine="26" d="M5030.879,204.7464 C5031.619,225.9764 5032.59,253.94 5033.33,275.19 " fill="transparent" id="logic_arc_int__baselibs__memory_shared-backto-comp_arc_sta__baselibs__memory_shared" style="stroke:#181818;stroke-width:1;"/><polygon fill="#181818" points="5030.67,198.75,5026.9859,207.8839,5030.8442,203.747,5034.9811,207.6052,5030.67,198.75" style="stroke:#181818;stroke-width:1;"/><text fill="#000000" font-family="sans-serif" font-size="13" lengthAdjust="spacing" textLength="76.9082" x="5033" y="241.5669">implements</text></g><!--link Feature_User to logic_arc_int__baselibs__memory_shared--><g id="link_Feature_User_logic_arc_int__baselibs__memory_shared"><path codeLine="27" d="M3005.16,46.32 C3215.11,55 4116.84,94.3 4854,158.5 C4859.51,158.98 4859.1452,158.9411 4864.8052,159.4611 " fill="transparent" id="Feature_User-to-logic_arc_int__baselibs__memory_shared" style="stroke:#181818;stroke-width:1;"/><polygon fill="#181818" points="4870.78,160.01,4862.1837,155.2034,4865.801,159.5526,4861.4518,163.1698,4870.78,160.01" style="stroke:#181818;stroke-width:1;"/><text fill="#000000" font-family="sans-serif" font-size="13" lengthAdjust="spacing" textLength="23.0103" x="4440" y="124.5669">use</text></g><!--reverse link logic_arc_int__baselibs__synchronized_queue to comp_arc_sta__baselibs__concurrency--><g id="link_logic_arc_int__baselibs__synchronized_queue_comp_arc_sta__baselibs__concurrency"><path codeLine="28" d="M3130.5079,199.173 C3008.9679,212.893 2845.79,230.84 2697,245.5 C2559.33,259.06 2402.34,272.71 2290.2,282.14 " fill="transparent" id="logic_arc_int__baselibs__synchronized_queue-backto-comp_arc_sta__baselibs__concurrency" style="stroke:#181818;stroke-width:1;"/><polygon fill="#181818" points="3136.47,198.5,3127.0781,195.5348,3131.5016,199.0609,3127.9755,203.4843,3136.47,198.5" style="stroke:#181818;stroke-width:1;"/><text fill="#000000" font-family="sans-serif" font-size="13" lengthAdjust="spacing" textLength="76.9082" x="2847" y="241.5669">implements</text></g><!--reverse link logic_arc_int__baselibs__message_passing to comp_arc_sta__baselibs__message_passing--><g id="link_logic_arc_int__baselibs__message_passing_comp_arc_sta__baselibs__message_passing"><path codeLine="29" d="M4670.9002,204.7444 C4669.9802,225.9744 4668.76,253.94 4667.84,275.19 " fill="transparent" id="logic_arc_int__baselibs__message_passing-backto-comp_arc_sta__baselibs__message_passing" style="stroke:#181818;stroke-width:1;"/><polygon fill="#181818" points="4671.16,198.75,4666.7741,207.5684,4670.9435,203.7453,4674.7666,207.9147,4671.16,198.75" style="stroke:#181818;stroke-width:1;"/><text fill="#000000" font-family="sans-serif" font-size="13" lengthAdjust="spacing" textLength="76.9082" x="4670" y="241.5669">implements</text></g><!--reverse link logic_arc_int__baselibs__bit_mask_operator to comp_arc_sta__baselibs__bit_manipulation--><g id="link_logic_arc_int__baselibs__bit_mask_operator_comp_arc_sta__baselibs__bit_manipulation"><path codeLine="30" d="M4265.1051,201.664 C4226.7851,222.954 4170.65,254.14 4132.42,275.38 " fill="transparent" id="logic_arc_int__baselibs__bit_mask_operator-backto-comp_arc_sta__baselibs__bit_manipulation" style="stroke:#181818;stroke-width:1;"/><polygon fill="#181818" points="4270.35,198.75,4260.54,199.6244,4265.9793,201.1783,4264.4253,206.6175,4270.35,198.75" style="stroke:#181818;stroke-width:1;"/><text fill="#000000" font-family="sans-serif" font-size="13" lengthAdjust="spacing" textLength="76.9082" x="4214" y="241.5669">implements</text></g><!--reverse link logic_arc_int__baselibs__utils_base64 to comp_arc_sta__baselibs__utils--><g id="link_logic_arc_int__baselibs__utils_base64_comp_arc_sta__baselibs__utils"><path codeLine="31" d="M5398.4324,202.5265 C5424.6424,223.7565 5461.91,253.94 5488.15,275.19 " fill="transparent" id="logic_arc_int__baselibs__utils_base64-backto-comp_arc_sta__baselibs__utils" style="stroke:#181818;stroke-width:1;"/><polygon fill="#181818" points="5393.77,198.75,5398.2459,207.523,5397.6553,201.8971,5403.2813,201.3065,5393.77,198.75" style="stroke:#181818;stroke-width:1;"/><text fill="#000000" font-family="sans-serif" font-size="13" lengthAdjust="spacing" textLength="76.9082" x="5450" y="241.5669">implements</text></g><!--reverse link logic_arc_int__baselibs__json to comp_arc_sta__baselibs__json--><g id="link_logic_arc_int__baselibs__json_comp_arc_sta__baselibs__json"><path codeLine="32" d="M3628,204.75 C3628,225.98 3628,253.94 3628,275.19 " fill="transparent" id="logic_arc_int__baselibs__json-backto-comp_arc_sta__baselibs__json" style="stroke:#181818;stroke-width:1;"/><polygon fill="#181818" points="3628,198.75,3624,207.75,3628,203.75,3632,207.75,3628,198.75" style="stroke:#181818;stroke-width:1;"/><text fill="#000000" font-family="sans-serif" font-size="13" lengthAdjust="spacing" textLength="76.9082" x="3629" y="241.5669">implements</text></g><!--reverse link logic_arc_int__baselibs__bit_manipulation to comp_arc_sta__baselibs__bit_manipulation--><g id="link_logic_arc_int__baselibs__bit_manipulation_comp_arc_sta__baselibs__bit_manipulation"><path codeLine="33" d="M3972.1207,202.2951 C4001.1907,223.5851 4042.9,254.14 4071.9,275.38 " fill="transparent" id="logic_arc_int__baselibs__bit_manipulation-backto-comp_arc_sta__baselibs__bit_manipulation" style="stroke:#181818;stroke-width:1;"/><polygon fill="#181818" points="3967.28,198.75,3972.1775,207.2948,3971.3139,201.7043,3976.9044,200.8406,3967.28,198.75" style="stroke:#181818;stroke-width:1;"/><text fill="#000000" font-family="sans-serif" font-size="13" lengthAdjust="spacing" textLength="76.9082" x="4029" y="241.5669">implements</text></g><!--link Feature_User to logic_arc_int__baselibs__executor--><g id="link_Feature_User_logic_arc_int__baselibs__executor"><path codeLine="34" d="M2960,81.55 C2960,106.45 2960,132.26 2960,152.26 " fill="transparent" id="Feature_User-to-logic_arc_int__baselibs__executor" style="stroke:#181818;stroke-width:1;"/><polygon fill="#181818" points="2960,158.26,2964,149.26,2960,153.26,2956,149.26,2960,158.26" style="stroke:#181818;stroke-width:1;"/><text fill="#000000" font-family="sans-serif" font-size="13" lengthAdjust="spacing" textLength="23.0103" x="2961" y="124.5669">use</text></g><!--reverse link logic_arc_int__baselibs__executor to comp_arc_sta__baselibs__concurrency--><g id="link_logic_arc_int__baselibs__executor_comp_arc_sta__baselibs__concurrency"><path codeLine="35" d="M2821.8708,199.3818 C2729.2708,212.6618 2608.57,229.89 2497,245.5 C2425.44,255.51 2345.78,266.46 2279.9,275.47 " fill="transparent" id="logic_arc_int__baselibs__executor-backto-comp_arc_sta__baselibs__concurrency" style="stroke:#181818;stroke-width:1;"/><polygon fill="#181818" points="2827.81,198.53,2818.3333,195.8482,2822.8606,199.2398,2819.469,203.7671,2827.81,198.53" style="stroke:#181818;stroke-width:1;"/><text fill="#000000" font-family="sans-serif" font-size="13" lengthAdjust="spacing" textLength="76.9082" x="2612" y="241.5669">implements</text></g><!--reverse link logic_arc_int__baselibs__condition_variable to comp_arc_sta__baselibs__concurrency--><g id="link_logic_arc_int__baselibs__condition_variable_comp_arc_sta__baselibs__concurrency"><path codeLine="36" d="M2538.8019,199.9344 C2449.0219,221.2244 2310.36,254.11 2220.52,275.41 " fill="transparent" id="logic_arc_int__baselibs__condition_variable-backto-comp_arc_sta__baselibs__concurrency" style="stroke:#181818;stroke-width:1;"/><polygon fill="#181818" points="2544.64,198.55,2534.9599,196.7346,2539.7749,199.7037,2536.8058,204.5187,2544.64,198.55" style="stroke:#181818;stroke-width:1;"/><text fill="#000000" font-family="sans-serif" font-size="13" lengthAdjust="spacing" textLength="76.9082" x="2412" y="241.5669">implements</text></g><!--reverse link logic_arc_int__baselibs__result to comp_arc_sta__baselibs__result--><g id="link_logic_arc_int__baselibs__result_comp_arc_sta__baselibs__result"><path codeLine="37" d="M801,204.75 C801,225.98 801,253.94 801,275.19 " fill="transparent" id="logic_arc_int__baselibs__result-backto-comp_arc_sta__baselibs__result" style="stroke:#181818;stroke-width:1;"/><polygon fill="#181818" points="801,198.75,797,207.75,801,203.75,805,207.75,801,198.75" style="stroke:#181818;stroke-width:1;"/><text fill="#000000" font-family="sans-serif" font-size="13" lengthAdjust="spacing" textLength="76.9082" x="802" y="241.5669">implements</text></g><!--link Feature_User to logic_arc_int__baselibs__bit_manipulation--><g id="link_Feature_User_logic_arc_int__baselibs__bit_manipulation"><path codeLine="38" d="M3005.02,50.6 C3144.83,69.56 3569.6344,127.1539 3794.7444,157.6739 " fill="transparent" id="Feature_User-to-logic_arc_int__baselibs__bit_manipulation" style="stroke:#181818;stroke-width:1;"/><polygon fill="#181818" points="3800.69,158.48,3792.309,153.3071,3795.7353,157.8083,3791.2342,161.2346,3800.69,158.48" style="stroke:#181818;stroke-width:1;"/><text fill="#000000" font-family="sans-serif" font-size="13" lengthAdjust="spacing" textLength="23.0103" x="3568" y="124.5669">use</text></g><!--link Feature_User to logic_arc_int__baselibs__synchronized_queue--><g id="link_Feature_User_logic_arc_int__baselibs__synchronized_queue"><path codeLine="39" d="M3005.06,62.02 C3069.27,86.99 3181.0479,130.4654 3247.3679,156.2554 " fill="transparent" id="Feature_User-to-logic_arc_int__baselibs__synchronized_queue" style="stroke:#181818;stroke-width:1;"/><polygon fill="#181818" points="3252.96,158.43,3246.0216,151.4401,3248.3,156.6178,3243.1222,158.8961,3252.96,158.43" style="stroke:#181818;stroke-width:1;"/><text fill="#000000" font-family="sans-serif" font-size="13" lengthAdjust="spacing" textLength="23.0103" x="3172" y="124.5669">use</text></g><!--reverse link logic_arc_int__baselibs__promise to comp_arc_sta__baselibs__concurrency--><g id="link_logic_arc_int__baselibs__promise_comp_arc_sta__baselibs__concurrency"><path codeLine="40" d="M2262.5935,202.3546 C2234.2635,223.6446 2193.7,254.14 2165.44,275.38 " fill="transparent" id="logic_arc_int__baselibs__promise-backto-comp_arc_sta__baselibs__concurrency" style="stroke:#181818;stroke-width:1;"/><polygon fill="#181818" points="2267.39,198.75,2257.7921,200.9592,2263.3929,201.7538,2262.5983,207.3546,2267.39,198.75" style="stroke:#181818;stroke-width:1;"/><text fill="#000000" font-family="sans-serif" font-size="13" lengthAdjust="spacing" textLength="76.9082" x="2226" y="241.5669">implements</text></g><!--reverse link logic_arc_int__baselibs__dynamic_array to comp_arc_sta__baselibs__containers--><g id="link_logic_arc_int__baselibs__dynamic_array_comp_arc_sta__baselibs__containers"><path codeLine="41" d="M212.5914,200.9207 C263.8214,222.1907 340.56,254.05 391.84,275.34 " fill="transparent" id="logic_arc_int__baselibs__dynamic_array-backto-comp_arc_sta__baselibs__containers" style="stroke:#181818;stroke-width:1;"/><polygon fill="#181818" points="207.05,198.62,213.8283,205.7653,211.6678,200.5373,216.8959,198.3768,207.05,198.62" style="stroke:#181818;stroke-width:1;"/><text fill="#000000" font-family="sans-serif" font-size="13" lengthAdjust="spacing" textLength="76.9082" x="318" y="241.5669">implements</text></g><!--link Feature_User to logic_arc_int__baselibs__task--><g id="link_Feature_User_logic_arc_int__baselibs__task"><path codeLine="42" d="M2914.9,46.06 C2714.6,53.3 1885.64,86.3 1209,158.5 C1203.51,159.09 1203.8573,159.0055 1198.1873,159.6855 " fill="transparent" id="Feature_User-to-logic_arc_int__baselibs__task" style="stroke:#181818;stroke-width:1;"/><polygon fill="#181818" points="1192.23,160.4,1201.6423,163.2999,1197.1944,159.8046,1200.6897,155.3568,1192.23,160.4" style="stroke:#181818;stroke-width:1;"/><text fill="#000000" font-family="sans-serif" font-size="13" lengthAdjust="spacing" textLength="23.0103" x="1690" y="124.5669">use</text></g><!--link Feature_User to logic_arc_int__baselibs__message_passing--><g id="link_Feature_User_logic_arc_int__baselibs__message_passing"><path codeLine="43" d="M3005.1,47.37 C3189.44,59.2 3903.68,106.06 4490,158.5 C4495.85,159.02 4495.8367,159.0044 4501.8567,159.5744 " fill="transparent" id="Feature_User-to-logic_arc_int__baselibs__message_passing" style="stroke:#181818;stroke-width:1;"/><polygon fill="#181818" points="4507.83,160.14,4499.2471,155.3094,4502.8523,159.6687,4498.493,163.2738,4507.83,160.14" style="stroke:#181818;stroke-width:1;"/><text fill="#000000" font-family="sans-serif" font-size="13" lengthAdjust="spacing" textLength="23.0103" x="4113" y="124.5669">use</text></g><!--reverse link logic_arc_int__baselibs__intrusive_list to comp_arc_sta__baselibs__containers--><g id="link_logic_arc_int__baselibs__intrusive_list_comp_arc_sta__baselibs__containers"><path codeLine="44" d="M484.3815,204.0886 C473.4915,225.3186 458.81,253.94 447.91,275.19 " fill="transparent" id="logic_arc_int__baselibs__intrusive_list-backto-comp_arc_sta__baselibs__containers" style="stroke:#181818;stroke-width:1;"/><polygon fill="#181818" points="487.12,198.75,479.4532,204.9323,484.8379,203.1988,486.5714,208.5836,487.12,198.75" style="stroke:#181818;stroke-width:1;"/><text fill="#000000" font-family="sans-serif" font-size="13" lengthAdjust="spacing" textLength="76.9082" x="473" y="241.5669">implements</text></g><!--link Feature_User to logic_arc_int__baselibs__filesystem--><g id="link_Feature_User_logic_arc_int__baselibs__filesystem"><path codeLine="45" d="M3005.03,45.29 C3234.4,49.42 4296,69.99 5164,111.5 C5484.31,126.82 5564.71,128.66 5884,158.5 C5889.84,159.05 5889.8316,159.0153 5895.8516,159.6353 " fill="transparent" id="Feature_User-to-logic_arc_int__baselibs__filesystem" style="stroke:#181818;stroke-width:1;"/><polygon fill="#181818" points="5901.82,160.25,5893.2771,155.349,5896.8463,159.7378,5892.4576,163.3069,5901.82,160.25" style="stroke:#181818;stroke-width:1;"/><text fill="#000000" font-family="sans-serif" font-size="13" lengthAdjust="spacing" textLength="23.0103" x="5501" y="124.5669">use</text></g><!--link Feature_User to logic_arc_int__baselibs__task_result--><g id="link_Feature_User_logic_arc_int__baselibs__task_result"><path codeLine="46" d="M2914.7,50.69 C2775.39,69.73 2355.2547,127.1676 2132.2847,157.6376 " fill="transparent" id="Feature_User-to-logic_arc_int__baselibs__task_result" style="stroke:#181818;stroke-width:1;"/><polygon fill="#181818" points="2126.34,158.45,2135.7987,161.1946,2131.294,157.773,2134.7155,153.2683,2126.34,158.45" style="stroke:#181818;stroke-width:1;"/><text fill="#000000" font-family="sans-serif" font-size="13" lengthAdjust="spacing" textLength="23.0103" x="2445" y="124.5669">use</text></g><!--link Feature_User to logic_arc_int__baselibs__shared_future--><g id="link_Feature_User_logic_arc_int__baselibs__shared_future"><path codeLine="47" d="M2914.8,47.49 C2739.07,59.26 2084.49,104.37 1547,158.5 C1541.12,159.09 1541.1077,159.0886 1535.0577,159.7186 " fill="transparent" id="Feature_User-to-logic_arc_int__baselibs__shared_future" style="stroke:#181818;stroke-width:1;"/><polygon fill="#181818" points="1529.09,160.34,1538.4559,163.3863,1534.0631,159.8221,1537.6273,155.4294,1529.09,160.34" style="stroke:#181818;stroke-width:1;"/><text fill="#000000" font-family="sans-serif" font-size="13" lengthAdjust="spacing" textLength="23.0103" x="2053" y="124.5669">use</text></g><!--reverse link logic_arc_int__baselibs__shared_future to comp_arc_sta__baselibs__concurrency--><g id="link_logic_arc_int__baselibs__shared_future_comp_arc_sta__baselibs__concurrency"><path codeLine="48" d="M1503.7564,199.4966 C1588.4164,212.8766 1698.65,230.12 1801,245.5 C1868.48,255.64 1943.58,266.54 2005.9,275.47 " fill="transparent" id="logic_arc_int__baselibs__shared_future-backto-comp_arc_sta__baselibs__concurrency" style="stroke:#181818;stroke-width:1;"/><polygon fill="#181818" points="1497.83,198.56,1506.0952,203.9159,1502.7687,199.3405,1507.3441,196.014,1497.83,198.56" style="stroke:#181818;stroke-width:1;"/><text fill="#000000" font-family="sans-serif" font-size="13" lengthAdjust="spacing" textLength="76.9082" x="1802" y="241.5669">implements</text></g><!--reverse link logic_arc_int__baselibs__task to comp_arc_sta__baselibs__concurrency--><g id="link_logic_arc_int__baselibs__task_comp_arc_sta__baselibs__concurrency"><path codeLine="49" d="M1198.2178,197.0895 C1203.8678,197.8395 1203.52,197.79 1209,198.5 C1387.4,221.57 1432.1,226.76 1611,245.5 C1738.74,258.88 1884.03,272.2 1989.98,281.57 " fill="transparent" id="logic_arc_int__baselibs__task-backto-comp_arc_sta__baselibs__concurrency" style="stroke:#181818;stroke-width:1;"/><polygon fill="#181818" points="1192.27,196.3,1200.6654,201.4495,1197.2265,196.9579,1201.7181,193.5191,1192.27,196.3" style="stroke:#181818;stroke-width:1;"/><text fill="#000000" font-family="sans-serif" font-size="13" lengthAdjust="spacing" textLength="76.9082" x="1612" y="241.5669">implements</text></g><!--link Feature_User to logic_arc_int__baselibs__utils_base64--><g id="link_Feature_User_logic_arc_int__baselibs__utils_base64"><path codeLine="50" d="M3005.16,46.18 C3188.22,53.05 3892.81,80.15 4472,111.5 C4798.86,129.19 4880.99,129.1 5207,158.5 C5212.53,159 5212.1988,158.9423 5217.8888,159.5023 " fill="transparent" id="Feature_User-to-logic_arc_int__baselibs__utils_base64" style="stroke:#181818;stroke-width:1;"/><polygon fill="#181818" points="5223.86,160.09,5215.2951,155.2277,5218.884,159.6003,5214.5115,163.1893,5223.86,160.09" style="stroke:#181818;stroke-width:1;"/><text fill="#000000" font-family="sans-serif" font-size="13" lengthAdjust="spacing" textLength="23.0103" x="4791" y="124.5669">use</text></g><!--link Feature_User to logic_arc_int__baselibs__dynamic_array--><g id="link_Feature_User_logic_arc_int__baselibs__dynamic_array"><path codeLine="51" d="M2914.71,45.3 C2697.04,49.28 1736.77,68.54 951,111.5 C675.95,126.54 607.27,132.93 333,158.5 C327.17,159.04 327.1912,159.0328 321.1912,159.6228 " fill="transparent" id="Feature_User-to-logic_arc_int__baselibs__dynamic_array" style="stroke:#181818;stroke-width:1;"/><polygon fill="#181818" points="315.22,160.21,324.5682,163.31,320.196,159.7207,323.7854,155.3484,315.22,160.21" style="stroke:#181818;stroke-width:1;"/><text fill="#000000" font-family="sans-serif" font-size="13" lengthAdjust="spacing" textLength="23.0103" x="952" y="124.5669">use</text></g><!--link Feature_User to logic_arc_int__baselibs__utils_scoped_op--><g id="link_Feature_User_logic_arc_int__baselibs__utils_scoped_op"><path codeLine="52" d="M3005.07,45.62 C3212.68,50.89 4097.76,74.5 4823,111.5 C5139.28,127.64 5218.51,130.96 5534,158.5 C5539.63,158.99 5539.3859,158.9528 5545.1759,159.4928 " fill="transparent" id="Feature_User-to-logic_arc_int__baselibs__utils_scoped_op" style="stroke:#181818;stroke-width:1;"/><polygon fill="#181818" points="5551.15,160.05,5542.5603,155.2315,5546.1716,159.5857,5541.8174,163.197,5551.15,160.05" style="stroke:#181818;stroke-width:1;"/><text fill="#000000" font-family="sans-serif" font-size="13" lengthAdjust="spacing" textLength="23.0103" x="5132" y="124.5669">use</text></g><!--SRC=[jLPDRzim3BthLmYzfnk6OOUYw6N0JZjkPq6MsOIhFZoHwkeD- - -JdRI9qooMlEmectea7_b8QMl33-Nm2VrQSEWa1za4vk1aYn4CO_1YWor8OeWGkEzWUmRNSIyrSyGcCP2u9Uujt8bhJMWR-KjyHWyVWmrHHcZ7qvSDcWSFHFBTzLlnMzo-sTqHsd2sk_e4cbC4-PKWNabDSlT13H-a49FZgbtTIHlMQ9IEHg5dfHfDOB4XfReO71BSo4GWXGck6ws8zQ5LOhGaL-aSqcYZo8GEMXMw6ucki-30C_qTs0HlKepWJJy3pveUL0HAbgVG5SasoCeDE3d6g3ELkxGh87B0BGxbLeywecuir6Dye-1d22_dvJuDRXTJaeyn4Jw2iaXSdykp-xFPtAC5whCqt5moBuQB4tfkaRC1EN0XzeesEcjk9gQ9xUAmZb0kL7pglTd4uF5drjpt10dAPEVoSD5hK9qcoYDjbe69TPcBhTOyTidgGIypFav8iyHB-M0QpX_Ubw4E0fq1tMhuln6nDr_SSV049krdtBytsnxmifFzr4WjyR1L-WpuHJR6OJLg1-GfYLwe82-xkx0UhFFZ8ix9fUszTkElgFl5n0thkfwiLvDcZgcob8wNtCAS3hTJRMQJvqjr3urRespNLYoFAUhbdskBYPvEx5gsZXguzlghT-m8y0S0]--></g></svg>