<svg xmlns="http://www.w3.org/2000/svg" xmlns:xlink="http://www.w3.org/1999/xlink" contentStyleType="text/css" data-diagram-type="CLASS" height="322px" preserveAspectRatio="none" style="width:6197px;height:322px;background:#FFFFFF;" version="1.1" viewBox="0 0 6197 322" width="6197px" zoomAndPan="magnify"><defs/><g><!--entity Feature_User--><g id="elem_Feature_User"><ellipse cx="3053.1685" cy="14" fill="#F1F1F1" rx="8" ry="8" style="stroke:#181818;stroke-width:0.5;"/><path d="M3053.1685,22 L3053.1685,49 M3040.1685,30 L3066.1685,30 M3053.1685,49 L3040.1685,64 M3053.1685,49 L3066.1685,64 " fill="transparent" style="stroke:#181818;stroke-width:0.5;"/><text fill="#000000" font-family="sans-serif" font-size="14" lengthAdjust="spacing" textLength="90.3369" x="3008" y="78.4951">Feature User</text></g><!--class logic_arc_int__baselibs__dynamic_array--><g id="elem_logic_arc_int__baselibs__dynamic_array"><rect fill="#F1F1F1" height="40" id="logic_arc_int__baselibs__dynamic_array" rx="2.5" ry="2.5" style="stroke:#181818;stroke-width:0.5;" width="308.3496" x="7" y="158.5"/><ellipse cx="22" cy="174.5" fill="#ADD1B2" rx="11" ry="11" style="stroke:#181818;stroke-width:1;"/><path d="M24.9688,180.1406 Q24.3906,180.4375 23.75,180.5781 Q23.1094,180.7344 22.4063,180.7344 Q19.9063,180.7344 18.5781,179.0938 Q17.2656,177.4375 17.2656,174.3125 Q17.2656,171.1875 18.5781,169.5313 Q19.9063,167.875 22.4063,167.875 Q23.1094,167.875 23.75,168.0313 Q24.4063,168.1875 24.9688,168.4844 L24.9688,171.2031 Q24.3438,170.625 23.75,170.3594 Q23.1563,170.0781 22.5313,170.0781 Q21.1875,170.0781 20.5,171.1563 Q19.8125,172.2188 19.8125,174.3125 Q19.8125,176.4063 20.5,177.4844 Q21.1875,178.5469 22.5313,178.5469 Q23.1563,178.5469 23.75,178.2813 Q24.3438,178 24.9688,177.4219 L24.9688,180.1406 Z " fill="#000000"/><text fill="#000000" font-family="sans-serif" font-size="14" lengthAdjust="spacing" textLength="276.3496" x="36" y="179.3467">logic_arc_int__baselibs__dynamic_array</text><line style="stroke:#181818;stroke-width:0.5;" x1="8" x2="314.3496" y1="190.5" y2="190.5"/></g><!--class comp_arc_sta__baselibs__concurrency--><g id="elem_comp_arc_sta__baselibs__concurrency"><rect fill="#F1F1F1" height="40" id="comp_arc_sta__baselibs__concurrency" rx="2.5" ry="2.5" style="stroke:#181818;stroke-width:0.5;" width="300.2012" x="2090" y="275.5"/><ellipse cx="2105" cy="291.5" fill="#ADD1B2" rx="11" ry="11" style="stroke:#181818;stroke-width:1;"/><path d="M2107.9688,297.1406 Q2107.3906,297.4375 2106.75,297.5781 Q2106.1094,297.7344 2105.4063,297.7344 Q2102.9063,297.7344 2101.5781,296.0938 Q2100.2656,294.4375 2100.2656,291.3125 Q2100.2656,288.1875 2101.5781,286.5313 Q2102.9063,284.875 2105.4063,284.875 Q2106.1094,284.875 2106.75,285.0313 Q2107.4063,285.1875 2107.9688,285.4844 L2107.9688,288.2031 Q2107.3438,287.625 2106.75,287.3594 Q2106.1563,287.0781 2105.5313,287.0781 Q2104.1875,287.0781 2103.5,288.1563 Q2102.8125,289.2188 2102.8125,291.3125 Q2102.8125,293.4063 2103.5,294.4844 Q2104.1875,295.5469 2105.5313,295.5469 Q2106.1563,295.5469 2106.75,295.2813 Q2107.3438,295 2107.9688,294.4219 L2107.9688,297.1406 Z " fill="#000000"/><text fill="#000000" font-family="sans-serif" font-size="14" lengthAdjust="spacing" textLength="268.2012" x="2119" y="296.3467">comp_arc_sta__baselibs__concurrency</text><line style="stroke:#181818;stroke-width:0.5;" x1="2091" x2="2389.2012" y1="307.5" y2="307.5"/></g><!--class logic_arc_int__baselibs__synchronized_queue--><g id="elem_logic_arc_int__baselibs__synchronized_queue"><rect fill="#F1F1F1" height="40" id="logic_arc_int__baselibs__synchronized_queue" rx="2.5" ry="2.5" style="stroke:#181818;stroke-width:0.5;" width="348.3604" x="2270" y="158.5"/><ellipse cx="2285" cy="174.5" fill="#ADD1B2" rx="11" ry="11" style="stroke:#181818;stroke-width:1;"/><path d="M2287.9688,180.1406 Q2287.3906,180.4375 2286.75,180.5781 Q2286.1094,180.7344 2285.4063,180.7344 Q2282.9063,180.7344 2281.5781,179.0938 Q2280.2656,177.4375 2280.2656,174.3125 Q2280.2656,171.1875 2281.5781,169.5313 Q2282.9063,167.875 2285.4063,167.875 Q2286.1094,167.875 2286.75,168.0313 Q2287.4063,168.1875 2287.9688,168.4844 L2287.9688,171.2031 Q2287.3438,170.625 2286.75,170.3594 Q2286.1563,170.0781 2285.5313,170.0781 Q2284.1875,170.0781 2283.5,171.1563 Q2282.8125,172.2188 2282.8125,174.3125 Q2282.8125,176.4063 2283.5,177.4844 Q2284.1875,178.5469 2285.5313,178.5469 Q2286.1563,178.5469 2286.75,178.2813 Q2287.3438,178 2287.9688,177.4219 L2287.9688,180.1406 Z " fill="#000000"/><text fill="#000000" font-family="sans-serif" font-size="14" lengthAdjust="spacing" textLength="316.3604" x="2299" y="179.3467">logic_arc_int__baselibs__synchronized_queue</text><line style="stroke:#181818;stroke-width:0.5;" x1="2271" x2="2617.3604" y1="190.5" y2="190.5"/></g><!--class comp_arc_sta__baselibs__message_passing--><g id="elem_comp_arc_sta__baselibs__message_passing"><rect fill="#F1F1F1" height="40" id="comp_arc_sta__baselibs__message_passing" rx="2.5" ry="2.5" style="stroke:#181818;stroke-width:0.5;" width="337.1357" x="5853.5" y="275.5"/><ellipse cx="5868.5" cy="291.5" fill="#ADD1B2" rx="11" ry="11" style="stroke:#181818;stroke-width:1;"/><path d="M5871.4688,297.1406 Q5870.8906,297.4375 5870.25,297.5781 Q5869.6094,297.7344 5868.9063,297.7344 Q5866.4063,297.7344 5865.0781,296.0938 Q5863.7656,294.4375 5863.7656,291.3125 Q5863.7656,288.1875 5865.0781,286.5313 Q5866.4063,284.875 5868.9063,284.875 Q5869.6094,284.875 5870.25,285.0313 Q5870.9063,285.1875 5871.4688,285.4844 L5871.4688,288.2031 Q5870.8438,287.625 5870.25,287.3594 Q5869.6563,287.0781 5869.0313,287.0781 Q5867.6875,287.0781 5867,288.1563 Q5866.3125,289.2188 5866.3125,291.3125 Q5866.3125,293.4063 5867,294.4844 Q5867.6875,295.5469 5869.0313,295.5469 Q5869.6563,295.5469 5870.25,295.2813 Q5870.8438,295 5871.4688,294.4219 L5871.4688,297.1406 Z " fill="#000000"/><text fill="#000000" font-family="sans-serif" font-size="14" lengthAdjust="spacing" textLength="305.1357" x="5882.5" y="296.3467">comp_arc_sta__baselibs__message_passing</text><line style="stroke:#181818;stroke-width:0.5;" x1="5854.5" x2="6189.6357" y1="307.5" y2="307.5"/></g><!--class logic_arc_int__baselibs__message_passing--><g id="elem_logic_arc_int__baselibs__message_passing"><rect fill="#F1F1F1" height="40" id="logic_arc_int__baselibs__message_passing" rx="2.5" ry="2.5" style="stroke:#181818;stroke-width:0.5;" width="328.167" x="5854" y="158.5"/><ellipse cx="5869" cy="174.5" fill="#ADD1B2" rx="11" ry="11" style="stroke:#181818;stroke-width:1;"/><path d="M5871.9688,180.1406 Q5871.3906,180.4375 5870.75,180.5781 Q5870.1094,180.7344 5869.4063,180.7344 Q5866.9063,180.7344 5865.5781,179.0938 Q5864.2656,177.4375 5864.2656,174.3125 Q5864.2656,171.1875 5865.5781,169.5313 Q5866.9063,167.875 5869.4063,167.875 Q5870.1094,167.875 5870.75,168.0313 Q5871.4063,168.1875 5871.9688,168.4844 L5871.9688,171.2031 Q5871.3438,170.625 5870.75,170.3594 Q5870.1563,170.0781 5869.5313,170.0781 Q5868.1875,170.0781 5867.5,171.1563 Q5866.8125,172.2188 5866.8125,174.3125 Q5866.8125,176.4063 5867.5,177.4844 Q5868.1875,178.5469 5869.5313,178.5469 Q5870.1563,178.5469 5870.75,178.2813 Q5871.3438,178 5871.9688,177.4219 L5871.9688,180.1406 Z " fill="#000000"/><text fill="#000000" font-family="sans-serif" font-size="14" lengthAdjust="spacing" textLength="296.167" x="5883" y="179.3467">logic_arc_int__baselibs__message_passing</text><line style="stroke:#181818;stroke-width:0.5;" x1="5855" x2="6181.167" y1="190.5" y2="190.5"/></g><!--class logic_arc_int__baselibs__result--><g id="elem_logic_arc_int__baselibs__result"><rect fill="#F1F1F1" height="40" id="logic_arc_int__baselibs__result" rx="2.5" ry="2.5" style="stroke:#181818;stroke-width:0.5;" width="244.4609" x="4178" y="158.5"/><ellipse cx="4193" cy="174.5" fill="#ADD1B2" rx="11" ry="11" style="stroke:#181818;stroke-width:1;"/><path d="M4195.9688,180.1406 Q4195.3906,180.4375 4194.75,180.5781 Q4194.1094,180.7344 4193.4063,180.7344 Q4190.9063,180.7344 4189.5781,179.0938 Q4188.2656,177.4375 4188.2656,174.3125 Q4188.2656,171.1875 4189.5781,169.5313 Q4190.9063,167.875 4193.4063,167.875 Q4194.1094,167.875 4194.75,168.0313 Q4195.4063,168.1875 4195.9688,168.4844 L4195.9688,171.2031 Q4195.3438,170.625 4194.75,170.3594 Q4194.1563,170.0781 4193.5313,170.0781 Q4192.1875,170.0781 4191.5,171.1563 Q4190.8125,172.2188 4190.8125,174.3125 Q4190.8125,176.4063 4191.5,177.4844 Q4192.1875,178.5469 4193.5313,178.5469 Q4194.1563,178.5469 4194.75,178.2813 Q4195.3438,178 4195.9688,177.4219 L4195.9688,180.1406 Z " fill="#000000"/><text fill="#000000" font-family="sans-serif" font-size="14" lengthAdjust="spacing" textLength="212.4609" x="4207" y="179.3467">logic_arc_int__baselibs__result</text><line style="stroke:#181818;stroke-width:0.5;" x1="4179" x2="4421.4609" y1="190.5" y2="190.5"/></g><!--class comp_arc_sta__baselibs__utils--><g id="elem_comp_arc_sta__baselibs__utils"><rect fill="#F1F1F1" height="40" id="comp_arc_sta__baselibs__utils" rx="2.5" ry="2.5" style="stroke:#181818;stroke-width:0.5;" width="242.9502" x="3678.5" y="275.5"/><ellipse cx="3693.5" cy="291.5" fill="#ADD1B2" rx="11" ry="11" style="stroke:#181818;stroke-width:1;"/><path d="M3696.4688,297.1406 Q3695.8906,297.4375 3695.25,297.5781 Q3694.6094,297.7344 3693.9063,297.7344 Q3691.4063,297.7344 3690.0781,296.0938 Q3688.7656,294.4375 3688.7656,291.3125 Q3688.7656,288.1875 3690.0781,286.5313 Q3691.4063,284.875 3693.9063,284.875 Q3694.6094,284.875 3695.25,285.0313 Q3695.9063,285.1875 3696.4688,285.4844 L3696.4688,288.2031 Q3695.8438,287.625 3695.25,287.3594 Q3694.6563,287.0781 3694.0313,287.0781 Q3692.6875,287.0781 3692,288.1563 Q3691.3125,289.2188 3691.3125,291.3125 Q3691.3125,293.4063 3692,294.4844 Q3692.6875,295.5469 3694.0313,295.5469 Q3694.6563,295.5469 3695.25,295.2813 Q3695.8438,295 3696.4688,294.4219 L3696.4688,297.1406 Z " fill="#000000"/><text fill="#000000" font-family="sans-serif" font-size="14" lengthAdjust="spacing" textLength="210.9502" x="3707.5" y="296.3467">comp_arc_sta__baselibs__utils</text><line style="stroke:#181818;stroke-width:0.5;" x1="3679.5" x2="3920.4502" y1="307.5" y2="307.5"/></g><!--class logic_arc_int__baselibs__utils_base64--><g id="elem_logic_arc_int__baselibs__utils_base64"><rect fill="#F1F1F1" height="40" id="logic_arc_int__baselibs__utils_base64" rx="2.5" ry="2.5" style="stroke:#181818;stroke-width:0.5;" width="292.1689" x="3851" y="158.5"/><ellipse cx="3866" cy="174.5" fill="#ADD1B2" rx="11" ry="11" style="stroke:#181818;stroke-width:1;"/><path d="M3868.9688,180.1406 Q3868.3906,180.4375 3867.75,180.5781 Q3867.1094,180.7344 3866.4063,180.7344 Q3863.9063,180.7344 3862.5781,179.0938 Q3861.2656,177.4375 3861.2656,174.3125 Q3861.2656,171.1875 3862.5781,169.5313 Q3863.9063,167.875 3866.4063,167.875 Q3867.1094,167.875 3867.75,168.0313 Q3868.4063,168.1875 3868.9688,168.4844 L3868.9688,171.2031 Q3868.3438,170.625 3867.75,170.3594 Q3867.1563,170.0781 3866.5313,170.0781 Q3865.1875,170.0781 3864.5,171.1563 Q3863.8125,172.2188 3863.8125,174.3125 Q3863.8125,176.4063 3864.5,177.4844 Q3865.1875,178.5469 3866.5313,178.5469 Q3867.1563,178.5469 3867.75,178.2813 Q3868.3438,178 3868.9688,177.4219 L3868.9688,180.1406 Z " fill="#000000"/><text fill="#000000" font-family="sans-serif" font-size="14" lengthAdjust="spacing" textLength="260.1689" x="3880" y="179.3467">logic_arc_int__baselibs__utils_base64</text><line style="stroke:#181818;stroke-width:0.5;" x1="3852" x2="4142.1689" y1="190.5" y2="190.5"/></g><!--class logic_arc_int__baselibs__executor--><g id="elem_logic_arc_int__baselibs__executor"><rect fill="#F1F1F1" height="40" id="logic_arc_int__baselibs__executor" rx="2.5" ry="2.5" style="stroke:#181818;stroke-width:0.5;" width="266.4385" x="1652" y="158.5"/><ellipse cx="1667" cy="174.5" fill="#ADD1B2" rx="11" ry="11" style="stroke:#181818;stroke-width:1;"/><path d="M1669.9688,180.1406 Q1669.3906,180.4375 1668.75,180.5781 Q1668.1094,180.7344 1667.4063,180.7344 Q1664.9063,180.7344 1663.5781,179.0938 Q1662.2656,177.4375 1662.2656,174.3125 Q1662.2656,171.1875 1663.5781,169.5313 Q1664.9063,167.875 1667.4063,167.875 Q1668.1094,167.875 1668.75,168.0313 Q1669.4063,168.1875 1669.9688,168.4844 L1669.9688,171.2031 Q1669.3438,170.625 1668.75,170.3594 Q1668.1563,170.0781 1667.5313,170.0781 Q1666.1875,170.0781 1665.5,171.1563 Q1664.8125,172.2188 1664.8125,174.3125 Q1664.8125,176.4063 1665.5,177.4844 Q1666.1875,178.5469 1667.5313,178.5469 Q1668.1563,178.5469 1668.75,178.2813 Q1669.3438,178 1669.9688,177.4219 L1669.9688,180.1406 Z " fill="#000000"/><text fill="#000000" font-family="sans-serif" font-size="14" lengthAdjust="spacing" textLength="234.4385" x="1681" y="179.3467">logic_arc_int__baselibs__executor</text><line style="stroke:#181818;stroke-width:0.5;" x1="1653" x2="1917.4385" y1="190.5" y2="190.5"/></g><!--class logic_arc_int__baselibs__task--><g id="elem_logic_arc_int__baselibs__task"><rect fill="#F1F1F1" height="40" id="logic_arc_int__baselibs__task" rx="2.5" ry="2.5" style="stroke:#181818;stroke-width:0.5;" width="234.0156" x="2653" y="158.5"/><ellipse cx="2668" cy="174.5" fill="#ADD1B2" rx="11" ry="11" style="stroke:#181818;stroke-width:1;"/><path d="M2670.9688,180.1406 Q2670.3906,180.4375 2669.75,180.5781 Q2669.1094,180.7344 2668.4063,180.7344 Q2665.9063,180.7344 2664.5781,179.0938 Q2663.2656,177.4375 2663.2656,174.3125 Q2663.2656,171.1875 2664.5781,169.5313 Q2665.9063,167.875 2668.4063,167.875 Q2669.1094,167.875 2669.75,168.0313 Q2670.4063,168.1875 2670.9688,168.4844 L2670.9688,171.2031 Q2670.3438,170.625 2669.75,170.3594 Q2669.1563,170.0781 2668.5313,170.0781 Q2667.1875,170.0781 2666.5,171.1563 Q2665.8125,172.2188 2665.8125,174.3125 Q2665.8125,176.4063 2666.5,177.4844 Q2667.1875,178.5469 2668.5313,178.5469 Q2669.1563,178.5469 2669.75,178.2813 Q2670.3438,178 2670.9688,177.4219 L2670.9688,180.1406 Z " fill="#000000"/><text fill="#000000" font-family="sans-serif" font-size="14" lengthAdjust="spacing" textLength="202.0156" x="2682" y="179.3467">logic_arc_int__baselibs__task</text><line style="stroke:#181818;stroke-width:0.5;" x1="2654" x2="2886.0156" y1="190.5" y2="190.5"/></g><!--class comp_arc_sta__baselibs__memory_shared--><g id="elem_comp_arc_sta__baselibs__memory_shared"><rect fill="#F1F1F1" height="40" id="comp_arc_sta__baselibs__memory_shared" rx="2.5" ry="2.5" style="stroke:#181818;stroke-width:0.5;" width="327.0117" x="5491.5" y="275.5"/><ellipse cx="5506.5" cy="291.5" fill="#ADD1B2" rx="11" ry="11" style="stroke:#181818;stroke-width:1;"/><path d="M5509.4688,297.1406 Q5508.8906,297.4375 5508.25,297.5781 Q5507.6094,297.7344 5506.9063,297.7344 Q5504.4063,297.7344 5503.0781,296.0938 Q5501.7656,294.4375 5501.7656,291.3125 Q5501.7656,288.1875 5503.0781,286.5313 Q5504.4063,284.875 5506.9063,284.875 Q5507.6094,284.875 5508.25,285.0313 Q5508.9063,285.1875 5509.4688,285.4844 L5509.4688,288.2031 Q5508.8438,287.625 5508.25,287.3594 Q5507.6563,287.0781 5507.0313,287.0781 Q5505.6875,287.0781 5505,288.1563 Q5504.3125,289.2188 5504.3125,291.3125 Q5504.3125,293.4063 5505,294.4844 Q5505.6875,295.5469 5507.0313,295.5469 Q5507.6563,295.5469 5508.25,295.2813 Q5508.8438,295 5509.4688,294.4219 L5509.4688,297.1406 Z " fill="#000000"/><text fill="#000000" font-family="sans-serif" font-size="14" lengthAdjust="spacing" textLength="295.0117" x="5520.5" y="296.3467">comp_arc_sta__baselibs__memory_shared</text><line style="stroke:#181818;stroke-width:0.5;" x1="5492.5" x2="5817.5117" y1="307.5" y2="307.5"/></g><!--class logic_arc_int__baselibs__memory_shared--><g id="elem_logic_arc_int__baselibs__memory_shared"><rect fill="#F1F1F1" height="40" id="logic_arc_int__baselibs__memory_shared" rx="2.5" ry="2.5" style="stroke:#181818;stroke-width:0.5;" width="318.043" x="5496" y="158.5"/><ellipse cx="5511" cy="174.5" fill="#ADD1B2" rx="11" ry="11" style="stroke:#181818;stroke-width:1;"/><path d="M5513.9688,180.1406 Q5513.3906,180.4375 5512.75,180.5781 Q5512.1094,180.7344 5511.4063,180.7344 Q5508.9063,180.7344 5507.5781,179.0938 Q5506.2656,177.4375 5506.2656,174.3125 Q5506.2656,171.1875 5507.5781,169.5313 Q5508.9063,167.875 5511.4063,167.875 Q5512.1094,167.875 5512.75,168.0313 Q5513.4063,168.1875 5513.9688,168.4844 L5513.9688,171.2031 Q5513.3438,170.625 5512.75,170.3594 Q5512.1563,170.0781 5511.5313,170.0781 Q5510.1875,170.0781 5509.5,171.1563 Q5508.8125,172.2188 5508.8125,174.3125 Q5508.8125,176.4063 5509.5,177.4844 Q5510.1875,178.5469 5511.5313,178.5469 Q5512.1563,178.5469 5512.75,178.2813 Q5513.3438,178 5513.9688,177.4219 L5513.9688,180.1406 Z " fill="#000000"/><text fill="#000000" font-family="sans-serif" font-size="14" lengthAdjust="spacing" textLength="286.043" x="5525" y="179.3467">logic_arc_int__baselibs__memory_shared</text><line style="stroke:#181818;stroke-width:0.5;" x1="5497" x2="5813.043" y1="190.5" y2="190.5"/></g><!--class logic_arc_int__baselibs__json--><g id="elem_logic_arc_int__baselibs__json"><rect fill="#F1F1F1" height="40" id="logic_arc_int__baselibs__json" rx="2.5" ry="2.5" style="stroke:#181818;stroke-width:0.5;" width="233.168" x="678.5" y="158.5"/><ellipse cx="693.5" cy="174.5" fill="#ADD1B2" rx="11" ry="11" style="stroke:#181818;stroke-width:1;"/><path d="M696.4688,180.1406 Q695.8906,180.4375 695.25,180.5781 Q694.6094,180.7344 693.9063,180.7344 Q691.4063,180.7344 690.0781,179.0938 Q688.7656,177.4375 688.7656,174.3125 Q688.7656,171.1875 690.0781,169.5313 Q691.4063,167.875 693.9063,167.875 Q694.6094,167.875 695.25,168.0313 Q695.9063,168.1875 696.4688,168.4844 L696.4688,171.2031 Q695.8438,170.625 695.25,170.3594 Q694.6563,170.0781 694.0313,170.0781 Q692.6875,170.0781 692,171.1563 Q691.3125,172.2188 691.3125,174.3125 Q691.3125,176.4063 692,177.4844 Q692.6875,178.5469 694.0313,178.5469 Q694.6563,178.5469 695.25,178.2813 Q695.8438,178 696.4688,177.4219 L696.4688,180.1406 Z " fill="#000000"/><text fill="#000000" font-family="sans-serif" font-size="14" lengthAdjust="spacing" textLength="201.168" x="707.5" y="179.3467">logic_arc_int__baselibs__json</text><line style="stroke:#181818;stroke-width:0.5;" x1="679.5" x2="910.668" y1="190.5" y2="190.5"/></g><!--class logic_arc_int__baselibs__intrusive_list--><g id="elem_logic_arc_int__baselibs__intrusive_list"><rect fill="#F1F1F1" height="40" id="logic_arc_int__baselibs__intrusive_list" rx="2.5" ry="2.5" style="stroke:#181818;stroke-width:0.5;" width="293.0713" x="350.5" y="158.5"/><ellipse cx="365.5" cy="174.5" fill="#ADD1B2" rx="11" ry="11" style="stroke:#181818;stroke-width:1;"/><path d="M368.4688,180.1406 Q367.8906,180.4375 367.25,180.5781 Q366.6094,180.7344 365.9063,180.7344 Q363.4063,180.7344 362.0781,179.0938 Q360.7656,177.4375 360.7656,174.3125 Q360.7656,171.1875 362.0781,169.5313 Q363.4063,167.875 365.9063,167.875 Q366.6094,167.875 367.25,168.0313 Q367.9063,168.1875 368.4688,168.4844 L368.4688,171.2031 Q367.8438,170.625 367.25,170.3594 Q366.6563,170.0781 366.0313,170.0781 Q364.6875,170.0781 364,171.1563 Q363.3125,172.2188 363.3125,174.3125 Q363.3125,176.4063 364,177.4844 Q364.6875,178.5469 366.0313,178.5469 Q366.6563,178.5469 367.25,178.2813 Q367.8438,178 368.4688,177.4219 L368.4688,180.1406 Z " fill="#000000"/><text fill="#000000" font-family="sans-serif" font-size="14" lengthAdjust="spacing" textLength="261.0713" x="379.5" y="179.3467">logic_arc_int__baselibs__intrusive_list</text><line style="stroke:#181818;stroke-width:0.5;" x1="351.5" x2="642.5713" y1="190.5" y2="190.5"/></g><!--class comp_arc_sta__baselibs__bit_manipulation--><g id="elem_comp_arc_sta__baselibs__bit_manipulation"><rect fill="#F1F1F1" height="40" id="comp_arc_sta__baselibs__bit_manipulation" rx="2.5" ry="2.5" style="stroke:#181818;stroke-width:0.5;" width="330.8057" x="4609.5" y="275.5"/><ellipse cx="4624.5" cy="291.5" fill="#ADD1B2" rx="11" ry="11" style="stroke:#181818;stroke-width:1;"/><path d="M4627.4688,297.1406 Q4626.8906,297.4375 4626.25,297.5781 Q4625.6094,297.7344 4624.9063,297.7344 Q4622.4063,297.7344 4621.0781,296.0938 Q4619.7656,294.4375 4619.7656,291.3125 Q4619.7656,288.1875 4621.0781,286.5313 Q4622.4063,284.875 4624.9063,284.875 Q4625.6094,284.875 4626.25,285.0313 Q4626.9063,285.1875 4627.4688,285.4844 L4627.4688,288.2031 Q4626.8438,287.625 4626.25,287.3594 Q4625.6563,287.0781 4625.0313,287.0781 Q4623.6875,287.0781 4623,288.1563 Q4622.3125,289.2188 4622.3125,291.3125 Q4622.3125,293.4063 4623,294.4844 Q4623.6875,295.5469 4625.0313,295.5469 Q4625.6563,295.5469 4626.25,295.2813 Q4626.8438,295 4627.4688,294.4219 L4627.4688,297.1406 Z " fill="#000000"/><text fill="#000000" font-family="sans-serif" font-size="14" lengthAdjust="spacing" textLength="298.8057" x="4638.5" y="296.3467">comp_arc_sta__baselibs__bit_manipulation</text><line style="stroke:#181818;stroke-width:0.5;" x1="4610.5" x2="4939.3057" y1="307.5" y2="307.5"/></g><!--class logic_arc_int__baselibs__bit_mask_operator--><g id="elem_logic_arc_int__baselibs__bit_mask_operator"><rect fill="#F1F1F1" height="40" id="logic_arc_int__baselibs__bit_mask_operator" rx="2.5" ry="2.5" style="stroke:#181818;stroke-width:0.5;" width="334.6406" x="4814.5" y="158.5"/><ellipse cx="4829.5" cy="174.5" fill="#ADD1B2" rx="11" ry="11" style="stroke:#181818;stroke-width:1;"/><path d="M4832.4688,180.1406 Q4831.8906,180.4375 4831.25,180.5781 Q4830.6094,180.7344 4829.9063,180.7344 Q4827.4063,180.7344 4826.0781,179.0938 Q4824.7656,177.4375 4824.7656,174.3125 Q4824.7656,171.1875 4826.0781,169.5313 Q4827.4063,167.875 4829.9063,167.875 Q4830.6094,167.875 4831.25,168.0313 Q4831.9063,168.1875 4832.4688,168.4844 L4832.4688,171.2031 Q4831.8438,170.625 4831.25,170.3594 Q4830.6563,170.0781 4830.0313,170.0781 Q4828.6875,170.0781 4828,171.1563 Q4827.3125,172.2188 4827.3125,174.3125 Q4827.3125,176.4063 4828,177.4844 Q4828.6875,178.5469 4830.0313,178.5469 Q4830.6563,178.5469 4831.25,178.2813 Q4831.8438,178 4832.4688,177.4219 L4832.4688,180.1406 Z " fill="#000000"/><text fill="#000000" font-family="sans-serif" font-size="14" lengthAdjust="spacing" textLength="302.6406" x="4843.5" y="179.3467">logic_arc_int__baselibs__bit_mask_operator</text><line style="stroke:#181818;stroke-width:0.5;" x1="4815.5" x2="5148.1406" y1="190.5" y2="190.5"/></g><!--class logic_arc_int__baselibs__bit_manipulation--><g id="elem_logic_arc_int__baselibs__bit_manipulation"><rect fill="#F1F1F1" height="40" id="logic_arc_int__baselibs__bit_manipulation" rx="2.5" ry="2.5" style="stroke:#181818;stroke-width:0.5;" width="321.8369" x="4457" y="158.5"/><ellipse cx="4472" cy="174.5" fill="#ADD1B2" rx="11" ry="11" style="stroke:#181818;stroke-width:1;"/><path d="M4474.9688,180.1406 Q4474.3906,180.4375 4473.75,180.5781 Q4473.1094,180.7344 4472.4063,180.7344 Q4469.9063,180.7344 4468.5781,179.0938 Q4467.2656,177.4375 4467.2656,174.3125 Q4467.2656,171.1875 4468.5781,169.5313 Q4469.9063,167.875 4472.4063,167.875 Q4473.1094,167.875 4473.75,168.0313 Q4474.4063,168.1875 4474.9688,168.4844 L4474.9688,171.2031 Q4474.3438,170.625 4473.75,170.3594 Q4473.1563,170.0781 4472.5313,170.0781 Q4471.1875,170.0781 4470.5,171.1563 Q4469.8125,172.2188 4469.8125,174.3125 Q4469.8125,176.4063 4470.5,177.4844 Q4471.1875,178.5469 4472.5313,178.5469 Q4473.1563,178.5469 4473.75,178.2813 Q4474.3438,178 4474.9688,177.4219 L4474.9688,180.1406 Z " fill="#000000"/><text fill="#000000" font-family="sans-serif" font-size="14" lengthAdjust="spacing" textLength="289.8369" x="4486" y="179.3467">logic_arc_int__baselibs__bit_manipulation</text><line style="stroke:#181818;stroke-width:0.5;" x1="4458" x2="4777.8369" y1="190.5" y2="190.5"/></g><!--class comp_arc_sta__baselibs__filesystem--><g id="elem_comp_arc_sta__baselibs__filesystem"><rect fill="#F1F1F1" height="40" id="comp_arc_sta__baselibs__filesystem" rx="2.5" ry="2.5" style="stroke:#181818;stroke-width:0.5;" width="285.4492" x="5171.5" y="275.5"/><ellipse cx="5186.5" cy="291.5" fill="#ADD1B2" rx="11" ry="11" style="stroke:#181818;stroke-width:1;"/><path d="M5189.4688,297.1406 Q5188.8906,297.4375 5188.25,297.5781 Q5187.6094,297.7344 5186.9063,297.7344 Q5184.4063,297.7344 5183.0781,296.0938 Q5181.7656,294.4375 5181.7656,291.3125 Q5181.7656,288.1875 5183.0781,286.5313 Q5184.4063,284.875 5186.9063,284.875 Q5187.6094,284.875 5188.25,285.0313 Q5188.9063,285.1875 5189.4688,285.4844 L5189.4688,288.2031 Q5188.8438,287.625 5188.25,287.3594 Q5187.6563,287.0781 5187.0313,287.0781 Q5185.6875,287.0781 5185,288.1563 Q5184.3125,289.2188 5184.3125,291.3125 Q5184.3125,293.4063 5185,294.4844 Q5185.6875,295.5469 5187.0313,295.5469 Q5187.6563,295.5469 5188.25,295.2813 Q5188.8438,295 5189.4688,294.4219 L5189.4688,297.1406 Z " fill="#000000"/><text fill="#000000" font-family="sans-serif" font-size="14" lengthAdjust="spacing" textLength="253.4492" x="5200.5" y="296.3467">comp_arc_sta__baselibs__filesystem</text><line style="stroke:#181818;stroke-width:0.5;" x1="5172.5" x2="5455.9492" y1="307.5" y2="307.5"/></g><!--class logic_arc_int__baselibs__filesystem--><g id="elem_logic_arc_int__baselibs__filesystem"><rect fill="#F1F1F1" height="40" id="logic_arc_int__baselibs__filesystem" rx="2.5" ry="2.5" style="stroke:#181818;stroke-width:0.5;" width="276.4805" x="5185" y="158.5"/><ellipse cx="5200" cy="174.5" fill="#ADD1B2" rx="11" ry="11" style="stroke:#181818;stroke-width:1;"/><path d="M5202.9688,180.1406 Q5202.3906,180.4375 5201.75,180.5781 Q5201.1094,180.7344 5200.4063,180.7344 Q5197.9063,180.7344 5196.5781,179.0938 Q5195.2656,177.4375 5195.2656,174.3125 Q5195.2656,171.1875 5196.5781,169.5313 Q5197.9063,167.875 5200.4063,167.875 Q5201.1094,167.875 5201.75,168.0313 Q5202.4063,168.1875 5202.9688,168.4844 L5202.9688,171.2031 Q5202.3438,170.625 5201.75,170.3594 Q5201.1563,170.0781 5200.5313,170.0781 Q5199.1875,170.0781 5198.5,171.1563 Q5197.8125,172.2188 5197.8125,174.3125 Q5197.8125,176.4063 5198.5,177.4844 Q5199.1875,178.5469 5200.5313,178.5469 Q5201.1563,178.5469 5201.75,178.2813 Q5202.3438,178 5202.9688,177.4219 L5202.9688,180.1406 Z " fill="#000000"/><text fill="#000000" font-family="sans-serif" font-size="14" lengthAdjust="spacing" textLength="244.4805" x="5214" y="179.3467">logic_arc_int__baselibs__filesystem</text><line style="stroke:#181818;stroke-width:0.5;" x1="5186" x2="5460.4805" y1="190.5" y2="190.5"/></g><!--class logic_arc_int__baselibs__promise--><g id="elem_logic_arc_int__baselibs__promise"><rect fill="#F1F1F1" height="40" id="logic_arc_int__baselibs__promise" rx="2.5" ry="2.5" style="stroke:#181818;stroke-width:0.5;" width="261.1885" x="2922.5" y="158.5"/><ellipse cx="2937.5" cy="174.5" fill="#ADD1B2" rx="11" ry="11" style="stroke:#181818;stroke-width:1;"/><path d="M2940.4688,180.1406 Q2939.8906,180.4375 2939.25,180.5781 Q2938.6094,180.7344 2937.9063,180.7344 Q2935.4063,180.7344 2934.0781,179.0938 Q2932.7656,177.4375 2932.7656,174.3125 Q2932.7656,171.1875 2934.0781,169.5313 Q2935.4063,167.875 2937.9063,167.875 Q2938.6094,167.875 2939.25,168.0313 Q2939.9063,168.1875 2940.4688,168.4844 L2940.4688,171.2031 Q2939.8438,170.625 2939.25,170.3594 Q2938.6563,170.0781 2938.0313,170.0781 Q2936.6875,170.0781 2936,171.1563 Q2935.3125,172.2188 2935.3125,174.3125 Q2935.3125,176.4063 2936,177.4844 Q2936.6875,178.5469 2938.0313,178.5469 Q2938.6563,178.5469 2939.25,178.2813 Q2939.8438,178 2940.4688,177.4219 L2940.4688,180.1406 Z " fill="#000000"/><text fill="#000000" font-family="sans-serif" font-size="14" lengthAdjust="spacing" textLength="229.1885" x="2951.5" y="179.3467">logic_arc_int__baselibs__promise</text><line style="stroke:#181818;stroke-width:0.5;" x1="2923.5" x2="3182.6885" y1="190.5" y2="190.5"/></g><!--class logic_arc_int__baselibs__task_result--><g id="elem_logic_arc_int__baselibs__task_result"><rect fill="#F1F1F1" height="40" id="logic_arc_int__baselibs__task_result" rx="2.5" ry="2.5" style="stroke:#181818;stroke-width:0.5;" width="280.9307" x="1953.5" y="158.5"/><ellipse cx="1968.5" cy="174.5" fill="#ADD1B2" rx="11" ry="11" style="stroke:#181818;stroke-width:1;"/><path d="M1971.4688,180.1406 Q1970.8906,180.4375 1970.25,180.5781 Q1969.6094,180.7344 1968.9063,180.7344 Q1966.4063,180.7344 1965.0781,179.0938 Q1963.7656,177.4375 1963.7656,174.3125 Q1963.7656,171.1875 1965.0781,169.5313 Q1966.4063,167.875 1968.9063,167.875 Q1969.6094,167.875 1970.25,168.0313 Q1970.9063,168.1875 1971.4688,168.4844 L1971.4688,171.2031 Q1970.8438,170.625 1970.25,170.3594 Q1969.6563,170.0781 1969.0313,170.0781 Q1967.6875,170.0781 1967,171.1563 Q1966.3125,172.2188 1966.3125,174.3125 Q1966.3125,176.4063 1967,177.4844 Q1967.6875,178.5469 1969.0313,178.5469 Q1969.6563,178.5469 1970.25,178.2813 Q1970.8438,178 1971.4688,177.4219 L1971.4688,180.1406 Z " fill="#000000"/><text fill="#000000" font-family="sans-serif" font-size="14" lengthAdjust="spacing" textLength="248.9307" x="1982.5" y="179.3467">logic_arc_int__baselibs__task_result</text><line style="stroke:#181818;stroke-width:0.5;" x1="1954.5" x2="2233.4307" y1="190.5" y2="190.5"/></g><!--class comp_arc_sta__baselibs__result--><g id="elem_comp_arc_sta__baselibs__result"><rect fill="#F1F1F1" height="40" id="comp_arc_sta__baselibs__result" rx="2.5" ry="2.5" style="stroke:#181818;stroke-width:0.5;" width="253.4297" x="4173.5" y="275.5"/><ellipse cx="4188.5" cy="291.5" fill="#ADD1B2" rx="11" ry="11" style="stroke:#181818;stroke-width:1;"/><path d="M4191.4688,297.1406 Q4190.8906,297.4375 4190.25,297.5781 Q4189.6094,297.7344 4188.9063,297.7344 Q4186.4063,297.7344 4185.0781,296.0938 Q4183.7656,294.4375 4183.7656,291.3125 Q4183.7656,288.1875 4185.0781,286.5313 Q4186.4063,284.875 4188.9063,284.875 Q4189.6094,284.875 4190.25,285.0313 Q4190.9063,285.1875 4191.4688,285.4844 L4191.4688,288.2031 Q4190.8438,287.625 4190.25,287.3594 Q4189.6563,287.0781 4189.0313,287.0781 Q4187.6875,287.0781 4187,288.1563 Q4186.3125,289.2188 4186.3125,291.3125 Q4186.3125,293.4063 4187,294.4844 Q4187.6875,295.5469 4189.0313,295.5469 Q4189.6563,295.5469 4190.25,295.2813 Q4190.8438,295 4191.4688,294.4219 L4191.4688,297.1406 Z " fill="#000000"/><text fill="#000000" font-family="sans-serif" font-size="14" lengthAdjust="spacing" textLength="221.4297" x="4202.5" y="296.3467">comp_arc_sta__baselibs__result</text><line style="stroke:#181818;stroke-width:0.5;" x1="4174.5" x2="4425.9297" y1="307.5" y2="307.5"/></g><!--class comp_arc_sta__baselibs__containers--><g id="elem_comp_arc_sta__baselibs__containers"><rect fill="#F1F1F1" height="40" id="comp_arc_sta__baselibs__containers" rx="2.5" ry="2.5" style="stroke:#181818;stroke-width:0.5;" width="287.1445" x="293.5" y="275.5"/><ellipse cx="308.5" cy="291.5" fill="#ADD1B2" rx="11" ry="11" style="stroke:#181818;stroke-width:1;"/><path d="M311.4688,297.1406 Q310.8906,297.4375 310.25,297.5781 Q309.6094,297.7344 308.9063,297.7344 Q306.4063,297.7344 305.0781,296.0938 Q303.7656,294.4375 303.7656,291.3125 Q303.7656,288.1875 305.0781,286.5313 Q306.4063,284.875 308.9063,284.875 Q309.6094,284.875 310.25,285.0313 Q310.9063,285.1875 311.4688,285.4844 L311.4688,288.2031 Q310.8438,287.625 310.25,287.3594 Q309.6563,287.0781 309.0313,287.0781 Q307.6875,287.0781 307,288.1563 Q306.3125,289.2188 306.3125,291.3125 Q306.3125,293.4063 307,294.4844 Q307.6875,295.5469 309.0313,295.5469 Q309.6563,295.5469 310.25,295.2813 Q310.8438,295 311.4688,294.4219 L311.4688,297.1406 Z " fill="#000000"/><text fill="#000000" font-family="sans-serif" font-size="14" lengthAdjust="spacing" textLength="255.1445" x="322.5" y="296.3467">comp_arc_sta__baselibs__containers</text><line style="stroke:#181818;stroke-width:0.5;" x1="294.5" x2="579.6445" y1="307.5" y2="307.5"/></g><!--class logic_arc_int__baselibs__condition_variable--><g id="elem_logic_arc_int__baselibs__condition_variable"><rect fill="#F1F1F1" height="40" id="logic_arc_int__baselibs__condition_variable" rx="2.5" ry="2.5" style="stroke:#181818;stroke-width:0.5;" width="332.7539" x="946.5" y="158.5"/><ellipse cx="961.5" cy="174.5" fill="#ADD1B2" rx="11" ry="11" style="stroke:#181818;stroke-width:1;"/><path d="M964.4688,180.1406 Q963.8906,180.4375 963.25,180.5781 Q962.6094,180.7344 961.9063,180.7344 Q959.4063,180.7344 958.0781,179.0938 Q956.7656,177.4375 956.7656,174.3125 Q956.7656,171.1875 958.0781,169.5313 Q959.4063,167.875 961.9063,167.875 Q962.6094,167.875 963.25,168.0313 Q963.9063,168.1875 964.4688,168.4844 L964.4688,171.2031 Q963.8438,170.625 963.25,170.3594 Q962.6563,170.0781 962.0313,170.0781 Q960.6875,170.0781 960,171.1563 Q959.3125,172.2188 959.3125,174.3125 Q959.3125,176.4063 960,177.4844 Q960.6875,178.5469 962.0313,178.5469 Q962.6563,178.5469 963.25,178.2813 Q963.8438,178 964.4688,177.4219 L964.4688,180.1406 Z " fill="#000000"/><text fill="#000000" font-family="sans-serif" font-size="14" lengthAdjust="spacing" textLength="300.7539" x="975.5" y="179.3467">logic_arc_int__baselibs__condition_variable</text><line style="stroke:#181818;stroke-width:0.5;" x1="947.5" x2="1278.2539" y1="190.5" y2="190.5"/></g><!--class comp_arc_sta__baselibs__json--><g id="elem_comp_arc_sta__baselibs__json"><rect fill="#F1F1F1" height="40" id="comp_arc_sta__baselibs__json" rx="2.5" ry="2.5" style="stroke:#181818;stroke-width:0.5;" width="242.1367" x="674" y="275.5"/><ellipse cx="689" cy="291.5" fill="#ADD1B2" rx="11" ry="11" style="stroke:#181818;stroke-width:1;"/><path d="M691.9688,297.1406 Q691.3906,297.4375 690.75,297.5781 Q690.1094,297.7344 689.4063,297.7344 Q686.9063,297.7344 685.5781,296.0938 Q684.2656,294.4375 684.2656,291.3125 Q684.2656,288.1875 685.5781,286.5313 Q686.9063,284.875 689.4063,284.875 Q690.1094,284.875 690.75,285.0313 Q691.4063,285.1875 691.9688,285.4844 L691.9688,288.2031 Q691.3438,287.625 690.75,287.3594 Q690.1563,287.0781 689.5313,287.0781 Q688.1875,287.0781 687.5,288.1563 Q686.8125,289.2188 686.8125,291.3125 Q686.8125,293.4063 687.5,294.4844 Q688.1875,295.5469 689.5313,295.5469 Q690.1563,295.5469 690.75,295.2813 Q691.3438,295 691.9688,294.4219 L691.9688,297.1406 Z " fill="#000000"/><text fill="#000000" font-family="sans-serif" font-size="14" lengthAdjust="spacing" textLength="210.1367" x="703" y="296.3467">comp_arc_sta__baselibs__json</text><line style="stroke:#181818;stroke-width:0.5;" x1="675" x2="915.1367" y1="307.5" y2="307.5"/></g><!--class logic_arc_int__baselibs__utils_scoped_op--><g id="elem_logic_arc_int__baselibs__utils_scoped_op"><rect fill="#F1F1F1" height="40" id="logic_arc_int__baselibs__utils_scoped_op" rx="2.5" ry="2.5" style="stroke:#181818;stroke-width:0.5;" width="315.377" x="3500.5" y="158.5"/><ellipse cx="3515.5" cy="174.5" fill="#ADD1B2" rx="11" ry="11" style="stroke:#181818;stroke-width:1;"/><path d="M3518.4688,180.1406 Q3517.8906,180.4375 3517.25,180.5781 Q3516.6094,180.7344 3515.9063,180.7344 Q3513.4063,180.7344 3512.0781,179.0938 Q3510.7656,177.4375 3510.7656,174.3125 Q3510.7656,171.1875 3512.0781,169.5313 Q3513.4063,167.875 3515.9063,167.875 Q3516.6094,167.875 3517.25,168.0313 Q3517.9063,168.1875 3518.4688,168.4844 L3518.4688,171.2031 Q3517.8438,170.625 3517.25,170.3594 Q3516.6563,170.0781 3516.0313,170.0781 Q3514.6875,170.0781 3514,171.1563 Q3513.3125,172.2188 3513.3125,174.3125 Q3513.3125,176.4063 3514,177.4844 Q3514.6875,178.5469 3516.0313,178.5469 Q3516.6563,178.5469 3517.25,178.2813 Q3517.8438,178 3518.4688,177.4219 L3518.4688,180.1406 Z " fill="#000000"/><text fill="#000000" font-family="sans-serif" font-size="14" lengthAdjust="spacing" textLength="283.377" x="3529.5" y="179.3467">logic_arc_int__baselibs__utils_scoped_op</text><line style="stroke:#181818;stroke-width:0.5;" x1="3501.5" x2="3814.877" y1="190.5" y2="190.5"/></g><!--class logic_arc_int__baselibs__future--><g id="elem_logic_arc_int__baselibs__future"><rect fill="#F1F1F1" height="40" id="logic_arc_int__baselibs__future" rx="2.5" ry="2.5" style="stroke:#181818;stroke-width:0.5;" width="247.0791" x="3218.5" y="158.5"/><ellipse cx="3233.5" cy="174.5" fill="#ADD1B2" rx="11" ry="11" style="stroke:#181818;stroke-width:1;"/><path d="M3236.4688,180.1406 Q3235.8906,180.4375 3235.25,180.5781 Q3234.6094,180.7344 3233.9063,180.7344 Q3231.4063,180.7344 3230.0781,179.0938 Q3228.7656,177.4375 3228.7656,174.3125 Q3228.7656,171.1875 3230.0781,169.5313 Q3231.4063,167.875 3233.9063,167.875 Q3234.6094,167.875 3235.25,168.0313 Q3235.9063,168.1875 3236.4688,168.4844 L3236.4688,171.2031 Q3235.8438,170.625 3235.25,170.3594 Q3234.6563,170.0781 3234.0313,170.0781 Q3232.6875,170.0781 3232,171.1563 Q3231.3125,172.2188 3231.3125,174.3125 Q3231.3125,176.4063 3232,177.4844 Q3232.6875,178.5469 3234.0313,178.5469 Q3234.6563,178.5469 3235.25,178.2813 Q3235.8438,178 3236.4688,177.4219 L3236.4688,180.1406 Z " fill="#000000"/><text fill="#000000" font-family="sans-serif" font-size="14" lengthAdjust="spacing" textLength="215.0791" x="3247.5" y="179.3467">logic_arc_int__baselibs__future</text><line style="stroke:#181818;stroke-width:0.5;" x1="3219.5" x2="3464.5791" y1="190.5" y2="190.5"/></g><!--class logic_arc_int__baselibs__shared_future--><g id="elem_logic_arc_int__baselibs__shared_future"><rect fill="#F1F1F1" height="40" id="logic_arc_int__baselibs__shared_future" rx="2.5" ry="2.5" style="stroke:#181818;stroke-width:0.5;" width="302.0811" x="1315" y="158.5"/><ellipse cx="1330" cy="174.5" fill="#ADD1B2" rx="11" ry="11" style="stroke:#181818;stroke-width:1;"/><path d="M1332.9688,180.1406 Q1332.3906,180.4375 1331.75,180.5781 Q1331.1094,180.7344 1330.4063,180.7344 Q1327.9063,180.7344 1326.5781,179.0938 Q1325.2656,177.4375 1325.2656,174.3125 Q1325.2656,171.1875 1326.5781,169.5313 Q1327.9063,167.875 1330.4063,167.875 Q1331.1094,167.875 1331.75,168.0313 Q1332.4063,168.1875 1332.9688,168.4844 L1332.9688,171.2031 Q1332.3438,170.625 1331.75,170.3594 Q1331.1563,170.0781 1330.5313,170.0781 Q1329.1875,170.0781 1328.5,171.1563 Q1327.8125,172.2188 1327.8125,174.3125 Q1327.8125,176.4063 1328.5,177.4844 Q1329.1875,178.5469 1330.5313,178.5469 Q1331.1563,178.5469 1331.75,178.2813 Q1332.3438,178 1332.9688,177.4219 L1332.9688,180.1406 Z " fill="#000000"/><text fill="#000000" font-family="sans-serif" font-size="14" lengthAdjust="spacing" textLength="270.0811" x="1344" y="179.3467">logic_arc_int__baselibs__shared_future</text><line style="stroke:#181818;stroke-width:0.5;" x1="1316" x2="1616.0811" y1="190.5" y2="190.5"/></g><!--link Feature_User to logic_arc_int__baselibs__dynamic_array--><g id="link_Feature_User_logic_arc_int__baselibs__dynamic_array"><path codeLine="15" d="M3007.73,45.29 C2785.95,49.28 1792.06,68.81 979,111.5 C691.53,126.59 619.67,132.25 333,158.5 C327.17,159.03 327.1922,159.0227 321.1922,159.6027 " fill="transparent" id="Feature_User-to-logic_arc_int__baselibs__dynamic_array" style="stroke:#181818;stroke-width:1;"/><polygon fill="#181818" points="315.22,160.18,324.5631,163.2955,320.1968,159.6989,323.7934,155.3326,315.22,160.18" style="stroke:#181818;stroke-width:1;"/><text fill="#000000" font-family="sans-serif" font-size="13" lengthAdjust="spacing" textLength="23.0103" x="980" y="124.5669">use</text></g><!--reverse link logic_arc_int__baselibs__synchronized_queue to comp_arc_sta__baselibs__concurrency--><g id="link_logic_arc_int__baselibs__synchronized_queue_comp_arc_sta__baselibs__concurrency"><path codeLine="16" d="M2404.6232,201.6962 C2366.8532,222.9862 2311.6,254.14 2273.92,275.38 " fill="transparent" id="logic_arc_int__baselibs__synchronized_queue-backto-comp_arc_sta__baselibs__concurrency" style="stroke:#181818;stroke-width:1;"/><polygon fill="#181818" points="2409.85,198.75,2400.0456,199.6848,2405.4943,201.2052,2403.9739,206.6539,2409.85,198.75" style="stroke:#181818;stroke-width:1;"/><text fill="#000000" font-family="sans-serif" font-size="13" lengthAdjust="spacing" textLength="76.9082" x="2356" y="241.5669">implements</text></g><!--reverse link logic_arc_int__baselibs__message_passing to comp_arc_sta__baselibs__message_passing--><g id="link_logic_arc_int__baselibs__message_passing_comp_arc_sta__baselibs__message_passing"><path codeLine="17" d="M6018.879,204.7464 C6019.619,225.9764 6020.59,253.94 6021.33,275.19 " fill="transparent" id="logic_arc_int__baselibs__message_passing-backto-comp_arc_sta__baselibs__message_passing" style="stroke:#181818;stroke-width:1;"/><polygon fill="#181818" points="6018.67,198.75,6014.9859,207.8839,6018.8442,203.747,6022.9811,207.6052,6018.67,198.75" style="stroke:#181818;stroke-width:1;"/><text fill="#000000" font-family="sans-serif" font-size="13" lengthAdjust="spacing" textLength="76.9082" x="6021" y="241.5669">implements</text></g><!--link Feature_User to logic_arc_int__baselibs__result--><g id="link_Feature_User_logic_arc_int__baselibs__result"><path codeLine="18" d="M3098.18,48.6 C3249,62.42 3748.91,109.15 4161,158.5 C4166.56,159.17 4166.2967,159.1232 4172.0367,159.8432 " fill="transparent" id="Feature_User-to-logic_arc_int__baselibs__result" style="stroke:#181818;stroke-width:1;"/><polygon fill="#181818" points="4177.99,160.59,4169.5578,155.501,4173.0289,159.9677,4168.5621,163.4388,4177.99,160.59" style="stroke:#181818;stroke-width:1;"/><text fill="#000000" font-family="sans-serif" font-size="13" lengthAdjust="spacing" textLength="23.0103" x="3888" y="124.5669">use</text></g><!--link Feature_User to logic_arc_int__baselibs__synchronized_queue--><g id="link_Feature_User_logic_arc_int__baselibs__synchronized_queue"><path codeLine="19" d="M3007.72,54.39 C2906.9,76.41 2668.3118,128.5099 2536.8918,157.2099 " fill="transparent" id="Feature_User-to-logic_arc_int__baselibs__synchronized_queue" style="stroke:#181818;stroke-width:1;"/><polygon fill="#181818" points="2531.03,158.49,2540.6762,160.4777,2535.9149,157.4232,2538.9694,152.6619,2531.03,158.49" style="stroke:#181818;stroke-width:1;"/><text fill="#000000" font-family="sans-serif" font-size="13" lengthAdjust="spacing" textLength="23.0103" x="2731" y="124.5669">use</text></g><!--reverse link logic_arc_int__baselibs__utils_base64 to comp_arc_sta__baselibs__utils--><g id="link_logic_arc_int__baselibs__utils_base64_comp_arc_sta__baselibs__utils"><path codeLine="20" d="M3958.8479,201.7743 C3922.3679,223.0643 3869.14,254.14 3832.75,275.38 " fill="transparent" id="logic_arc_int__baselibs__utils_base64-backto-comp_arc_sta__baselibs__utils" style="stroke:#181818;stroke-width:1;"/><polygon fill="#181818" points="3964.03,198.75,3954.2407,199.8317,3959.7116,201.2702,3958.2731,206.7411,3964.03,198.75" style="stroke:#181818;stroke-width:1;"/><text fill="#000000" font-family="sans-serif" font-size="13" lengthAdjust="spacing" textLength="76.9082" x="3911" y="241.5669">implements</text></g><!--link Feature_User to logic_arc_int__baselibs__executor--><g id="link_Feature_User_logic_arc_int__baselibs__executor"><path codeLine="21" d="M3007.74,48.73 C2856.07,63.01 2351.92,111.11 1936,158.5 C1930.22,159.16 1930.2879,159.1303 1924.3279,159.8403 " fill="transparent" id="Feature_User-to-logic_arc_int__baselibs__executor" style="stroke:#181818;stroke-width:1;"/><polygon fill="#181818" points="1918.37,160.55,1927.78,163.4573,1923.3349,159.9585,1926.8336,155.5135,1918.37,160.55" style="stroke:#181818;stroke-width:1;"/><text fill="#000000" font-family="sans-serif" font-size="13" lengthAdjust="spacing" textLength="23.0103" x="2367" y="124.5669">use</text></g><!--link Feature_User to logic_arc_int__baselibs__task--><g id="link_Feature_User_logic_arc_int__baselibs__task"><path codeLine="22" d="M3007.84,65.72 C2953.54,91.24 2868.6102,131.1579 2816.2902,155.7479 " fill="transparent" id="Feature_User-to-logic_arc_int__baselibs__task" style="stroke:#181818;stroke-width:1;"/><polygon fill="#181818" points="2810.86,158.3,2820.7067,158.0919,2815.3851,156.1732,2817.3038,150.8517,2810.86,158.3" style="stroke:#181818;stroke-width:1;"/><text fill="#000000" font-family="sans-serif" font-size="13" lengthAdjust="spacing" textLength="23.0103" x="2904" y="124.5669">use</text></g><!--link Feature_User to logic_arc_int__baselibs__utils_base64--><g id="link_Feature_User_logic_arc_int__baselibs__utils_base64"><path codeLine="23" d="M3098.21,50.87 C3234.69,70.1 3640.3587,127.2529 3855.9887,157.6329 " fill="transparent" id="Feature_User-to-logic_arc_int__baselibs__utils_base64" style="stroke:#181818;stroke-width:1;"/><polygon fill="#181818" points="3861.93,158.47,3853.5761,153.2535,3856.9789,157.7724,3852.46,161.1753,3861.93,158.47" style="stroke:#181818;stroke-width:1;"/><text fill="#000000" font-family="sans-serif" font-size="13" lengthAdjust="spacing" textLength="23.0103" x="3638" y="124.5669">use</text></g><!--reverse link logic_arc_int__baselibs__memory_shared to comp_arc_sta__baselibs__memory_shared--><g id="link_logic_arc_int__baselibs__memory_shared_comp_arc_sta__baselibs__memory_shared"><path codeLine="24" d="M5655,204.75 C5655,225.98 5655,253.94 5655,275.19 " fill="transparent" id="logic_arc_int__baselibs__memory_shared-backto-comp_arc_sta__baselibs__memory_shared" style="stroke:#181818;stroke-width:1;"/><polygon fill="#181818" points="5655,198.75,5651,207.75,5655,203.75,5659,207.75,5655,198.75" style="stroke:#181818;stroke-width:1;"/><text fill="#000000" font-family="sans-serif" font-size="13" lengthAdjust="spacing" textLength="76.9082" x="5656" y="241.5669">implements</text></g><!--link Feature_User to logic_arc_int__baselibs__json--><g id="link_Feature_User_logic_arc_int__baselibs__json"><path codeLine="25" d="M3007.83,46.37 C2832.94,53.66 2183.48,81.3 1649,111.5 C1328.83,129.59 1247.98,125.52 929,158.5 C923.27,159.09 923.3784,159.0343 917.4684,159.7343 " fill="transparent" id="Feature_User-to-logic_arc_int__baselibs__json" style="stroke:#181818;stroke-width:1;"/><polygon fill="#181818" points="911.51,160.44,920.918,163.3536,916.4753,159.8519,919.977,155.4092,911.51,160.44" style="stroke:#181818;stroke-width:1;"/><text fill="#000000" font-family="sans-serif" font-size="13" lengthAdjust="spacing" textLength="23.0103" x="1650" y="124.5669">use</text></g><!--link Feature_User to logic_arc_int__baselibs__intrusive_list--><g id="link_Feature_User_logic_arc_int__baselibs__intrusive_list"><path codeLine="26" d="M3007.76,45.58 C2805.92,50.51 1967.34,72.43 1280,111.5 C1004.54,127.16 935.64,132.17 661,158.5 C655.29,159.05 655.449,159.0109 649.569,159.6109 " fill="transparent" id="Feature_User-to-logic_arc_int__baselibs__intrusive_list" style="stroke:#181818;stroke-width:1;"/><polygon fill="#181818" points="643.6,160.22,652.9596,163.2857,648.5742,159.7124,652.1475,155.327,643.6,160.22" style="stroke:#181818;stroke-width:1;"/><text fill="#000000" font-family="sans-serif" font-size="13" lengthAdjust="spacing" textLength="23.0103" x="1281" y="124.5669">use</text></g><!--reverse link logic_arc_int__baselibs__bit_mask_operator to comp_arc_sta__baselibs__bit_manipulation--><g id="link_logic_arc_int__baselibs__bit_mask_operator_comp_arc_sta__baselibs__bit_manipulation"><path codeLine="27" d="M4942.1051,201.664 C4903.7851,222.954 4847.65,254.14 4809.42,275.38 " fill="transparent" id="logic_arc_int__baselibs__bit_mask_operator-backto-comp_arc_sta__baselibs__bit_manipulation" style="stroke:#181818;stroke-width:1;"/><polygon fill="#181818" points="4947.35,198.75,4937.54,199.6244,4942.9793,201.1783,4941.4253,206.6175,4947.35,198.75" style="stroke:#181818;stroke-width:1;"/><text fill="#000000" font-family="sans-serif" font-size="13" lengthAdjust="spacing" textLength="76.9082" x="4891" y="241.5669">implements</text></g><!--link Feature_User to logic_arc_int__baselibs__message_passing--><g id="link_Feature_User_logic_arc_int__baselibs__message_passing"><path codeLine="28" d="M3098.2,45.39 C3319.63,49.89 4311.98,71.42 5124,111.5 C5438.98,127.05 5517.75,132.03 5832,158.5 C5839.2,159.11 5840.5743,159.2104 5847.9943,159.8804 " fill="transparent" id="Feature_User-to-logic_arc_int__baselibs__message_passing" style="stroke:#181818;stroke-width:1;"/><polygon fill="#181818" points="5853.97,160.42,5845.3662,155.6268,5848.9903,159.9703,5844.6467,163.5944,5853.97,160.42" style="stroke:#181818;stroke-width:1;"/><text fill="#000000" font-family="sans-serif" font-size="13" lengthAdjust="spacing" textLength="23.0103" x="5431" y="124.5669">use</text></g><!--link Feature_User to logic_arc_int__baselibs__bit_manipulation--><g id="link_Feature_User_logic_arc_int__baselibs__bit_manipulation"><path codeLine="29" d="M3098.25,47.68 C3272.01,60.02 3913.12,106.57 4440,158.5 C4445.57,159.05 4445.2606,159.0047 4450.9806,159.5847 " fill="transparent" id="Feature_User-to-logic_arc_int__baselibs__bit_manipulation" style="stroke:#181818;stroke-width:1;"/><polygon fill="#181818" points="4456.95,160.19,4448.3994,155.3025,4451.9755,159.6856,4447.5924,163.2617,4456.95,160.19" style="stroke:#181818;stroke-width:1;"/><text fill="#000000" font-family="sans-serif" font-size="13" lengthAdjust="spacing" textLength="23.0103" x="4098" y="124.5669">use</text></g><!--reverse link logic_arc_int__baselibs__filesystem to comp_arc_sta__baselibs__filesystem--><g id="link_logic_arc_int__baselibs__filesystem_comp_arc_sta__baselibs__filesystem"><path codeLine="30" d="M5321.0223,204.7317 C5319.3623,225.9617 5317.17,253.94 5315.51,275.19 " fill="transparent" id="logic_arc_int__baselibs__filesystem-backto-comp_arc_sta__baselibs__filesystem" style="stroke:#181818;stroke-width:1;"/><polygon fill="#181818" points="5321.49,198.75,5316.8006,207.4108,5321.1002,203.7348,5324.7762,208.0344,5321.49,198.75" style="stroke:#181818;stroke-width:1;"/><text fill="#000000" font-family="sans-serif" font-size="13" lengthAdjust="spacing" textLength="76.9082" x="5320" y="241.5669">implements</text></g><!--reverse link logic_arc_int__baselibs__promise to comp_arc_sta__baselibs__concurrency--><g id="link_logic_arc_int__baselibs__promise_comp_arc_sta__baselibs__concurrency"><path codeLine="31" d="M2927.8131,199.4937 C2841.3531,213.1137 2727.51,230.66 2622,245.5 C2545.69,256.24 2460.67,267.24 2390.24,276.09 " fill="transparent" id="logic_arc_int__baselibs__promise-backto-comp_arc_sta__baselibs__concurrency" style="stroke:#181818;stroke-width:1;"/><polygon fill="#181818" points="2933.74,198.56,2924.2272,196.0092,2928.8009,199.3381,2925.4721,203.9118,2933.74,198.56" style="stroke:#181818;stroke-width:1;"/><text fill="#000000" font-family="sans-serif" font-size="13" lengthAdjust="spacing" textLength="76.9082" x="2729" y="241.5669">implements</text></g><!--reverse link logic_arc_int__baselibs__task to comp_arc_sta__baselibs__concurrency--><g id="link_logic_arc_int__baselibs__task_comp_arc_sta__baselibs__concurrency"><path codeLine="32" d="M2676.3165,199.8224 C2578.2065,221.1124 2426.17,254.11 2327.99,275.41 " fill="transparent" id="logic_arc_int__baselibs__task-backto-comp_arc_sta__baselibs__concurrency" style="stroke:#181818;stroke-width:1;"/><polygon fill="#181818" points="2682.18,198.55,2672.5364,196.5496,2677.2937,199.6103,2674.233,204.3676,2682.18,198.55" style="stroke:#181818;stroke-width:1;"/><text fill="#000000" font-family="sans-serif" font-size="13" lengthAdjust="spacing" textLength="76.9082" x="2537" y="241.5669">implements</text></g><!--reverse link logic_arc_int__baselibs__task_result to comp_arc_sta__baselibs__concurrency--><g id="link_logic_arc_int__baselibs__task_result_comp_arc_sta__baselibs__concurrency"><path codeLine="33" d="M2123.1532,202.4629 C2150.1032,223.6929 2188.5,253.94 2215.48,275.19 " fill="transparent" id="logic_arc_int__baselibs__task_result-backto-comp_arc_sta__baselibs__concurrency" style="stroke:#181818;stroke-width:1;"/><polygon fill="#181818" points="2118.44,198.75,2123.0346,207.4615,2122.3677,201.8441,2127.9851,201.1772,2118.44,198.75" style="stroke:#181818;stroke-width:1;"/><text fill="#000000" font-family="sans-serif" font-size="13" lengthAdjust="spacing" textLength="76.9082" x="2177" y="241.5669">implements</text></g><!--reverse link logic_arc_int__baselibs__result to comp_arc_sta__baselibs__result--><g id="link_logic_arc_int__baselibs__result_comp_arc_sta__baselibs__result"><path codeLine="34" d="M4300,204.75 C4300,225.98 4300,253.94 4300,275.19 " fill="transparent" id="logic_arc_int__baselibs__result-backto-comp_arc_sta__baselibs__result" style="stroke:#181818;stroke-width:1;"/><polygon fill="#181818" points="4300,198.75,4296,207.75,4300,203.75,4304,207.75,4300,198.75" style="stroke:#181818;stroke-width:1;"/><text fill="#000000" font-family="sans-serif" font-size="13" lengthAdjust="spacing" textLength="76.9082" x="4301" y="241.5669">implements</text></g><!--reverse link logic_arc_int__baselibs__bit_manipulation to comp_arc_sta__baselibs__bit_manipulation--><g id="link_logic_arc_int__baselibs__bit_manipulation_comp_arc_sta__baselibs__bit_manipulation"><path codeLine="35" d="M4649.1207,202.2951 C4678.1907,223.5851 4719.9,254.14 4748.9,275.38 " fill="transparent" id="logic_arc_int__baselibs__bit_manipulation-backto-comp_arc_sta__baselibs__bit_manipulation" style="stroke:#181818;stroke-width:1;"/><polygon fill="#181818" points="4644.28,198.75,4649.1775,207.2948,4648.3139,201.7043,4653.9044,200.8406,4644.28,198.75" style="stroke:#181818;stroke-width:1;"/><text fill="#000000" font-family="sans-serif" font-size="13" lengthAdjust="spacing" textLength="76.9082" x="4706" y="241.5669">implements</text></g><!--reverse link logic_arc_int__baselibs__dynamic_array to comp_arc_sta__baselibs__containers--><g id="link_logic_arc_int__baselibs__dynamic_array_comp_arc_sta__baselibs__containers"><path codeLine="36" d="M212.4283,200.928 C263.4683,222.198 339.92,254.05 391,275.34 " fill="transparent" id="logic_arc_int__baselibs__dynamic_array-backto-comp_arc_sta__baselibs__containers" style="stroke:#181818;stroke-width:1;"/><polygon fill="#181818" points="206.89,198.62,213.6588,205.7742,211.5053,200.5433,216.7362,198.3898,206.89,198.62" style="stroke:#181818;stroke-width:1;"/><text fill="#000000" font-family="sans-serif" font-size="13" lengthAdjust="spacing" textLength="76.9082" x="317" y="241.5669">implements</text></g><!--link Feature_User to logic_arc_int__baselibs__condition_variable--><g id="link_Feature_User_logic_arc_int__baselibs__condition_variable"><path codeLine="37" d="M3007.83,46.68 C2807.22,56.54 1976.82,98.99 1297,158.5 C1291.4,158.99 1291.6847,158.9493 1285.9347,159.4793 " fill="transparent" id="Feature_User-to-logic_arc_int__baselibs__condition_variable" style="stroke:#181818;stroke-width:1;"/><polygon fill="#181818" points="1279.96,160.03,1289.2891,163.1871,1284.9389,159.5711,1288.5549,155.2208,1279.96,160.03" style="stroke:#181818;stroke-width:1;"/><text fill="#000000" font-family="sans-serif" font-size="13" lengthAdjust="spacing" textLength="23.0103" x="1877" y="124.5669">use</text></g><!--reverse link logic_arc_int__baselibs__json to comp_arc_sta__baselibs__json--><g id="link_logic_arc_int__baselibs__json_comp_arc_sta__baselibs__json"><path codeLine="38" d="M795,204.75 C795,225.98 795,253.94 795,275.19 " fill="transparent" id="logic_arc_int__baselibs__json-backto-comp_arc_sta__baselibs__json" style="stroke:#181818;stroke-width:1;"/><polygon fill="#181818" points="795,198.75,791,207.75,795,203.75,799,207.75,795,198.75" style="stroke:#181818;stroke-width:1;"/><text fill="#000000" font-family="sans-serif" font-size="13" lengthAdjust="spacing" textLength="76.9082" x="796" y="241.5669">implements</text></g><!--link Feature_User to logic_arc_int__baselibs__bit_mask_operator--><g id="link_Feature_User_logic_arc_int__baselibs__bit_mask_operator"><path codeLine="39" d="M3098.19,46.75 C3298,56.86 4122.13,100.08 4797,158.5 C4802.63,158.99 4802.3741,158.9624 4808.1541,159.4824 " fill="transparent" id="Feature_User-to-logic_arc_int__baselibs__bit_mask_operator" style="stroke:#181818;stroke-width:1;"/><polygon fill="#181818" points="4814.13,160.02,4805.5246,155.2297,4809.1501,159.572,4804.8078,163.1975,4814.13,160.02" style="stroke:#181818;stroke-width:1;"/><text fill="#000000" font-family="sans-serif" font-size="13" lengthAdjust="spacing" textLength="23.0103" x="4416" y="124.5669">use</text></g><!--link Feature_User to logic_arc_int__baselibs__memory_shared--><g id="link_Feature_User_logic_arc_int__baselibs__memory_shared"><path codeLine="40" d="M3098.13,45.73 C3297.71,51.29 4120.91,75.31 4796,111.5 C5099.84,127.79 5175.91,131.72 5479,158.5 C5484.51,158.99 5484.1461,158.9406 5489.8061,159.4706 " fill="transparent" id="Feature_User-to-logic_arc_int__baselibs__memory_shared" style="stroke:#181818;stroke-width:1;"/><polygon fill="#181818" points="5495.78,160.03,5487.1921,155.2083,5490.8018,159.5638,5486.4463,163.1735,5495.78,160.03" style="stroke:#181818;stroke-width:1;"/><text fill="#000000" font-family="sans-serif" font-size="13" lengthAdjust="spacing" textLength="23.0103" x="5092" y="124.5669">use</text></g><!--link Feature_User to logic_arc_int__baselibs__promise--><g id="link_Feature_User_logic_arc_int__baselibs__promise"><path codeLine="41" d="M3053,81.55 C3053,106.45 3053,132.26 3053,152.26 " fill="transparent" id="Feature_User-to-logic_arc_int__baselibs__promise" style="stroke:#181818;stroke-width:1;"/><polygon fill="#181818" points="3053,158.26,3057,149.26,3053,153.26,3049,149.26,3053,158.26" style="stroke:#181818;stroke-width:1;"/><text fill="#000000" font-family="sans-serif" font-size="13" lengthAdjust="spacing" textLength="23.0103" x="3054" y="124.5669">use</text></g><!--link Feature_User to logic_arc_int__baselibs__utils_scoped_op--><g id="link_Feature_User_logic_arc_int__baselibs__utils_scoped_op"><path codeLine="42" d="M3098.47,54.5 C3198.91,76.58 3435.2298,128.5322 3565.5998,157.1822 " fill="transparent" id="Feature_User-to-logic_arc_int__baselibs__utils_scoped_op" style="stroke:#181818;stroke-width:1;"/><polygon fill="#181818" points="3571.46,158.47,3563.5283,152.6315,3566.5765,157.3968,3561.8112,160.445,3571.46,158.47" style="stroke:#181818;stroke-width:1;"/><text fill="#000000" font-family="sans-serif" font-size="13" lengthAdjust="spacing" textLength="23.0103" x="3428" y="124.5669">use</text></g><!--reverse link logic_arc_int__baselibs__condition_variable to comp_arc_sta__baselibs__concurrency--><g id="link_logic_arc_int__baselibs__condition_variable_comp_arc_sta__baselibs__concurrency"><path codeLine="43" d="M1282.441,199.1928 C1401.701,212.8528 1561.32,230.71 1707,245.5 C1836.08,258.6 1982.91,271.99 2089.73,281.45 " fill="transparent" id="logic_arc_int__baselibs__condition_variable-backto-comp_arc_sta__baselibs__concurrency" style="stroke:#181818;stroke-width:1;"/><polygon fill="#181818" points="1276.48,198.51,1284.9664,203.5082,1281.4475,199.079,1285.8767,195.5601,1276.48,198.51" style="stroke:#181818;stroke-width:1;"/><text fill="#000000" font-family="sans-serif" font-size="13" lengthAdjust="spacing" textLength="76.9082" x="1708" y="241.5669">implements</text></g><!--link Feature_User to logic_arc_int__baselibs__future--><g id="link_Feature_User_logic_arc_int__baselibs__future"><path codeLine="44" d="M3098.16,65.28 C3153.56,90.78 3241.2792,131.1523 3294.9892,155.8623 " fill="transparent" id="Feature_User-to-logic_arc_int__baselibs__future" style="stroke:#181818;stroke-width:1;"/><polygon fill="#181818" points="3300.44,158.37,3293.9356,150.9745,3295.8977,156.2802,3290.592,158.2423,3300.44,158.37" style="stroke:#181818;stroke-width:1;"/><text fill="#000000" font-family="sans-serif" font-size="13" lengthAdjust="spacing" textLength="23.0103" x="3232" y="124.5669">use</text></g><!--reverse link logic_arc_int__baselibs__future to comp_arc_sta__baselibs__concurrency--><g id="link_logic_arc_int__baselibs__future_comp_arc_sta__baselibs__concurrency"><path codeLine="45" d="M3212.2607,197.0482 C3206.4507,197.8082 3206.64,197.78 3201,198.5 C3029.14,220.51 2986.35,227.68 2814,245.5 C2670.24,260.36 2505.89,274.06 2390,283.17 " fill="transparent" id="logic_arc_int__baselibs__future-backto-comp_arc_sta__baselibs__concurrency" style="stroke:#181818;stroke-width:1;"/><polygon fill="#181818" points="3218.21,196.27,3208.7672,193.4711,3213.2522,196.9185,3209.8048,201.4035,3218.21,196.27" style="stroke:#181818;stroke-width:1;"/><text fill="#000000" font-family="sans-serif" font-size="13" lengthAdjust="spacing" textLength="76.9082" x="2962" y="241.5669">implements</text></g><!--link Feature_User to logic_arc_int__baselibs__shared_future--><g id="link_Feature_User_logic_arc_int__baselibs__shared_future"><path codeLine="46" d="M3007.91,47.49 C2831.89,59.3 2174.12,104.68 1634,158.5 C1628.45,159.05 1628.7682,159.0133 1623.0582,159.6033 " fill="transparent" id="Feature_User-to-logic_arc_int__baselibs__shared_future" style="stroke:#181818;stroke-width:1;"/><polygon fill="#181818" points="1617.09,160.22,1626.4535,163.2738,1622.0635,159.7061,1625.6312,155.3162,1617.09,160.22" style="stroke:#181818;stroke-width:1;"/><text fill="#000000" font-family="sans-serif" font-size="13" lengthAdjust="spacing" textLength="23.0103" x="2142" y="124.5669">use</text></g><!--link Feature_User to logic_arc_int__baselibs__task_result--><g id="link_Feature_User_logic_arc_int__baselibs__task_result"><path codeLine="47" d="M3007.71,50.78 C2869.69,69.92 2456.3431,127.2458 2236.9931,157.6658 " fill="transparent" id="Feature_User-to-logic_arc_int__baselibs__task_result" style="stroke:#181818;stroke-width:1;"/><polygon fill="#181818" points="2231.05,158.49,2240.5142,161.2158,2236.0026,157.8032,2239.4152,153.2916,2231.05,158.49" style="stroke:#181818;stroke-width:1;"/><text fill="#000000" font-family="sans-serif" font-size="13" lengthAdjust="spacing" textLength="23.0103" x="2545" y="124.5669">use</text></g><!--reverse link logic_arc_int__baselibs__executor to comp_arc_sta__baselibs__concurrency--><g id="link_logic_arc_int__baselibs__executor_comp_arc_sta__baselibs__concurrency"><path codeLine="48" d="M1866.2071,200.0203 C1950.4371,221.3103 2080.18,254.11 2164.46,275.41 " fill="transparent" id="logic_arc_int__baselibs__executor-backto-comp_arc_sta__baselibs__concurrency" style="stroke:#181818;stroke-width:1;"/><polygon fill="#181818" points="1860.39,198.55,1868.1354,204.6335,1865.2375,199.7753,1870.0958,196.8774,1860.39,198.55" style="stroke:#181818;stroke-width:1;"/><text fill="#000000" font-family="sans-serif" font-size="13" lengthAdjust="spacing" textLength="76.9082" x="2041" y="241.5669">implements</text></g><!--reverse link logic_arc_int__baselibs__intrusive_list to comp_arc_sta__baselibs__containers--><g id="link_logic_arc_int__baselibs__intrusive_list_comp_arc_sta__baselibs__containers"><path codeLine="49" d="M484.1839,204.0692 C473.1039,225.2992 458.16,253.94 447.08,275.19 " fill="transparent" id="logic_arc_int__baselibs__intrusive_list-backto-comp_arc_sta__baselibs__containers" style="stroke:#181818;stroke-width:1;"/><polygon fill="#181818" points="486.96,198.75,479.2498,204.878,484.6466,203.1826,486.342,208.5794,486.96,198.75" style="stroke:#181818;stroke-width:1;"/><text fill="#000000" font-family="sans-serif" font-size="13" lengthAdjust="spacing" textLength="76.9082" x="472" y="241.5669">implements</text></g><!--reverse link logic_arc_int__baselibs__utils_scoped_op to comp_arc_sta__baselibs__utils--><g id="link_logic_arc_int__baselibs__utils_scoped_op_comp_arc_sta__baselibs__utils"><path codeLine="50" d="M3686.4324,202.5265 C3712.6424,223.7565 3749.91,253.94 3776.15,275.19 " fill="transparent" id="logic_arc_int__baselibs__utils_scoped_op-backto-comp_arc_sta__baselibs__utils" style="stroke:#181818;stroke-width:1;"/><polygon fill="#181818" points="3681.77,198.75,3686.2459,207.523,3685.6553,201.8971,3691.2813,201.3065,3681.77,198.75" style="stroke:#181818;stroke-width:1;"/><text fill="#000000" font-family="sans-serif" font-size="13" lengthAdjust="spacing" textLength="76.9082" x="3738" y="241.5669">implements</text></g><!--reverse link logic_arc_int__baselibs__shared_future to comp_arc_sta__baselibs__concurrency--><g id="link_logic_arc_int__baselibs__shared_future_comp_arc_sta__baselibs__concurrency"><path codeLine="51" d="M1595.3605,199.4404 C1682.1905,212.7704 1795.21,229.98 1900,245.5 C1967.99,255.57 2043.67,266.5 2106.34,275.48 " fill="transparent" id="logic_arc_int__baselibs__shared_future-backto-comp_arc_sta__baselibs__concurrency" style="stroke:#181818;stroke-width:1;"/><polygon fill="#181818" points="1589.43,198.53,1597.7188,203.8493,1594.3721,199.2887,1598.9327,195.942,1589.43,198.53" style="stroke:#181818;stroke-width:1;"/><text fill="#000000" font-family="sans-serif" font-size="13" lengthAdjust="spacing" textLength="76.9082" x="1901" y="241.5669">implements</text></g><!--link Feature_User to logic_arc_int__baselibs__filesystem--><g id="link_Feature_User_logic_arc_int__baselibs__filesystem"><path codeLine="52" d="M3098.1,45.61 C3322.23,51.43 4338.58,81.04 5167,158.5 C5172.84,159.05 5172.8316,159.0153 5178.8516,159.6353 " fill="transparent" id="Feature_User-to-logic_arc_int__baselibs__filesystem" style="stroke:#181818;stroke-width:1;"/><polygon fill="#181818" points="5184.82,160.25,5176.2771,155.349,5179.8463,159.7378,5175.4576,163.3069,5184.82,160.25" style="stroke:#181818;stroke-width:1;"/><text fill="#000000" font-family="sans-serif" font-size="13" lengthAdjust="spacing" textLength="23.0103" x="4764" y="124.5669">use</text></g><!--SRC=[hLPDRzim3BthLmYzfnk6OeUYw6N0JZskPq6MsOIBFZoHwkeD- -zJxAoDlIooFHzfFr5y_7YKjZPyLmvVq6y5XqPoa5LW3axM6C4m1YzsM8CaXWY1smPw6rp3hTJC4Ql4GEAEkBLmBwureQtaJ_607Zu56wACK7VMbnsQlGSY-U7wlVWbxjuTpmXjEEEkFeFc544-4iGhgKaUFwZ31od4mDpKctjfmnQDqj4ezAnKfGaiLgHKtNhjkbzHjxSo4KXXWciwBB4-nPhWJOeHl6db9btoIgqtknWy_e1QVKkGu5QYQomuy4p_li5bqdeBgj54ETM5MqReuHKpSX21akKZ-Hddph6ycC34QAb0giDqziURnOpW1KpAhJAV4slQppyr3FfY3Xou45j5EvtRlLZW4-pYP7obuETJocPCXC-WB18NI5N8occFJRBwe0K5NZsSzYeq47LNfuNS_Xg1kJJ7aHU8Fg45QhF8kGB5D-2qoP-kBKqC3WdMTjit_le-NzLbYkiUM_0wn-6YnZpjXea9OPttLYnfssZPBEpvV5sDX-ZKiuweArkItOC052BhDM9XG6V6UUuOZfHkxl7NcLWct6Hov7KEVxK7mBaQBSpkKpeWLuliZxk5qVGL6WOrSxqEtnl_p-XjsQywhEC5ECNvz0VEISkjgxcZ0YrjkfFrrPNfDm00]--></g></svg>