<svg xmlns="http://www.w3.org/2000/svg" xmlns:xlink="http://www.w3.org/1999/xlink" contentStyleType="text/css" data-diagram-type="CLASS" height="322px" preserveAspectRatio="none" style="width:6199px;height:322px;background:#FFFFFF;" version="1.1" viewBox="0 0 6199 322" width="6199px" zoomAndPan="magnify"><defs/><g><!--entity Feature_User--><g id="elem_Feature_User"><ellipse cx="3087.6685" cy="14" fill="#F1F1F1" rx="8" ry="8" style="stroke:#181818;stroke-width:0.5;"/><path d="M3087.6685,22 L3087.6685,49 M3074.6685,30 L3100.6685,30 M3087.6685,49 L3074.6685,64 M3087.6685,49 L3100.6685,64 " fill="transparent" style="stroke:#181818;stroke-width:0.5;"/><text fill="#000000" font-family="sans-serif" font-size="14" lengthAdjust="spacing" textLength="90.3369" x="3042.5" y="78.4951">Feature User</text></g><!--class comp_arc_sta__baselibs__containers--><g id="elem_comp_arc_sta__baselibs__containers"><rect fill="#F1F1F1" height="40" id="comp_arc_sta__baselibs__containers" rx="2.5" ry="2.5" style="stroke:#181818;stroke-width:0.5;" width="287.1445" x="3638" y="275.5"/><ellipse cx="3653" cy="291.5" fill="#ADD1B2" rx="11" ry="11" style="stroke:#181818;stroke-width:1;"/><path d="M3655.9688,297.1406 Q3655.3906,297.4375 3654.75,297.5781 Q3654.1094,297.7344 3653.4063,297.7344 Q3650.9063,297.7344 3649.5781,296.0938 Q3648.2656,294.4375 3648.2656,291.3125 Q3648.2656,288.1875 3649.5781,286.5313 Q3650.9063,284.875 3653.4063,284.875 Q3654.1094,284.875 3654.75,285.0313 Q3655.4063,285.1875 3655.9688,285.4844 L3655.9688,288.2031 Q3655.3438,287.625 3654.75,287.3594 Q3654.1563,287.0781 3653.5313,287.0781 Q3652.1875,287.0781 3651.5,288.1563 Q3650.8125,289.2188 3650.8125,291.3125 Q3650.8125,293.4063 3651.5,294.4844 Q3652.1875,295.5469 3653.5313,295.5469 Q3654.1563,295.5469 3654.75,295.2813 Q3655.3438,295 3655.9688,294.4219 L3655.9688,297.1406 Z " fill="#000000"/><text fill="#000000" font-family="sans-serif" font-size="14" lengthAdjust="spacing" textLength="255.1445" x="3667" y="296.3467">comp_arc_sta__baselibs__containers</text><line style="stroke:#181818;stroke-width:0.5;" x1="3639" x2="3924.1445" y1="307.5" y2="307.5"/></g><!--class logic_arc_int__baselibs__intrusive_list--><g id="elem_logic_arc_int__baselibs__intrusive_list"><rect fill="#F1F1F1" height="40" id="logic_arc_int__baselibs__intrusive_list" rx="2.5" ry="2.5" style="stroke:#181818;stroke-width:0.5;" width="293.0713" x="3549" y="158.5"/><ellipse cx="3564" cy="174.5" fill="#ADD1B2" rx="11" ry="11" style="stroke:#181818;stroke-width:1;"/><path d="M3566.9688,180.1406 Q3566.3906,180.4375 3565.75,180.5781 Q3565.1094,180.7344 3564.4063,180.7344 Q3561.9063,180.7344 3560.5781,179.0938 Q3559.2656,177.4375 3559.2656,174.3125 Q3559.2656,171.1875 3560.5781,169.5313 Q3561.9063,167.875 3564.4063,167.875 Q3565.1094,167.875 3565.75,168.0313 Q3566.4063,168.1875 3566.9688,168.4844 L3566.9688,171.2031 Q3566.3438,170.625 3565.75,170.3594 Q3565.1563,170.0781 3564.5313,170.0781 Q3563.1875,170.0781 3562.5,171.1563 Q3561.8125,172.2188 3561.8125,174.3125 Q3561.8125,176.4063 3562.5,177.4844 Q3563.1875,178.5469 3564.5313,178.5469 Q3565.1563,178.5469 3565.75,178.2813 Q3566.3438,178 3566.9688,177.4219 L3566.9688,180.1406 Z " fill="#000000"/><text fill="#000000" font-family="sans-serif" font-size="14" lengthAdjust="spacing" textLength="261.0713" x="3578" y="179.3467">logic_arc_int__baselibs__intrusive_list</text><line style="stroke:#181818;stroke-width:0.5;" x1="3550" x2="3841.0713" y1="190.5" y2="190.5"/></g><!--class logic_arc_int__baselibs__condition_variable--><g id="elem_logic_arc_int__baselibs__condition_variable"><rect fill="#F1F1F1" height="40" id="logic_arc_int__baselibs__condition_variable" rx="2.5" ry="2.5" style="stroke:#181818;stroke-width:0.5;" width="332.7539" x="2560" y="158.5"/><ellipse cx="2575" cy="174.5" fill="#ADD1B2" rx="11" ry="11" style="stroke:#181818;stroke-width:1;"/><path d="M2577.9688,180.1406 Q2577.3906,180.4375 2576.75,180.5781 Q2576.1094,180.7344 2575.4063,180.7344 Q2572.9063,180.7344 2571.5781,179.0938 Q2570.2656,177.4375 2570.2656,174.3125 Q2570.2656,171.1875 2571.5781,169.5313 Q2572.9063,167.875 2575.4063,167.875 Q2576.1094,167.875 2576.75,168.0313 Q2577.4063,168.1875 2577.9688,168.4844 L2577.9688,171.2031 Q2577.3438,170.625 2576.75,170.3594 Q2576.1563,170.0781 2575.5313,170.0781 Q2574.1875,170.0781 2573.5,171.1563 Q2572.8125,172.2188 2572.8125,174.3125 Q2572.8125,176.4063 2573.5,177.4844 Q2574.1875,178.5469 2575.5313,178.5469 Q2576.1563,178.5469 2576.75,178.2813 Q2577.3438,178 2577.9688,177.4219 L2577.9688,180.1406 Z " fill="#000000"/><text fill="#000000" font-family="sans-serif" font-size="14" lengthAdjust="spacing" textLength="300.7539" x="2589" y="179.3467">logic_arc_int__baselibs__condition_variable</text><line style="stroke:#181818;stroke-width:0.5;" x1="2561" x2="2891.7539" y1="190.5" y2="190.5"/></g><!--class comp_arc_sta__baselibs__result--><g id="elem_comp_arc_sta__baselibs__result"><rect fill="#F1F1F1" height="40" id="comp_arc_sta__baselibs__result" rx="2.5" ry="2.5" style="stroke:#181818;stroke-width:0.5;" width="253.4297" x="5939" y="275.5"/><ellipse cx="5954" cy="291.5" fill="#ADD1B2" rx="11" ry="11" style="stroke:#181818;stroke-width:1;"/><path d="M5956.9688,297.1406 Q5956.3906,297.4375 5955.75,297.5781 Q5955.1094,297.7344 5954.4063,297.7344 Q5951.9063,297.7344 5950.5781,296.0938 Q5949.2656,294.4375 5949.2656,291.3125 Q5949.2656,288.1875 5950.5781,286.5313 Q5951.9063,284.875 5954.4063,284.875 Q5955.1094,284.875 5955.75,285.0313 Q5956.4063,285.1875 5956.9688,285.4844 L5956.9688,288.2031 Q5956.3438,287.625 5955.75,287.3594 Q5955.1563,287.0781 5954.5313,287.0781 Q5953.1875,287.0781 5952.5,288.1563 Q5951.8125,289.2188 5951.8125,291.3125 Q5951.8125,293.4063 5952.5,294.4844 Q5953.1875,295.5469 5954.5313,295.5469 Q5955.1563,295.5469 5955.75,295.2813 Q5956.3438,295 5956.9688,294.4219 L5956.9688,297.1406 Z " fill="#000000"/><text fill="#000000" font-family="sans-serif" font-size="14" lengthAdjust="spacing" textLength="221.4297" x="5968" y="296.3467">comp_arc_sta__baselibs__result</text><line style="stroke:#181818;stroke-width:0.5;" x1="5940" x2="6191.4297" y1="307.5" y2="307.5"/></g><!--class logic_arc_int__baselibs__result--><g id="elem_logic_arc_int__baselibs__result"><rect fill="#F1F1F1" height="40" id="logic_arc_int__baselibs__result" rx="2.5" ry="2.5" style="stroke:#181818;stroke-width:0.5;" width="244.4609" x="5941.5" y="158.5"/><ellipse cx="5956.5" cy="174.5" fill="#ADD1B2" rx="11" ry="11" style="stroke:#181818;stroke-width:1;"/><path d="M5959.4688,180.1406 Q5958.8906,180.4375 5958.25,180.5781 Q5957.6094,180.7344 5956.9063,180.7344 Q5954.4063,180.7344 5953.0781,179.0938 Q5951.7656,177.4375 5951.7656,174.3125 Q5951.7656,171.1875 5953.0781,169.5313 Q5954.4063,167.875 5956.9063,167.875 Q5957.6094,167.875 5958.25,168.0313 Q5958.9063,168.1875 5959.4688,168.4844 L5959.4688,171.2031 Q5958.8438,170.625 5958.25,170.3594 Q5957.6563,170.0781 5957.0313,170.0781 Q5955.6875,170.0781 5955,171.1563 Q5954.3125,172.2188 5954.3125,174.3125 Q5954.3125,176.4063 5955,177.4844 Q5955.6875,178.5469 5957.0313,178.5469 Q5957.6563,178.5469 5958.25,178.2813 Q5958.8438,178 5959.4688,177.4219 L5959.4688,180.1406 Z " fill="#000000"/><text fill="#000000" font-family="sans-serif" font-size="14" lengthAdjust="spacing" textLength="212.4609" x="5970.5" y="179.3467">logic_arc_int__baselibs__result</text><line style="stroke:#181818;stroke-width:0.5;" x1="5942.5" x2="6184.9609" y1="190.5" y2="190.5"/></g><!--class logic_arc_int__baselibs__synchronized_queue--><g id="elem_logic_arc_int__baselibs__synchronized_queue"><rect fill="#F1F1F1" height="40" id="logic_arc_int__baselibs__synchronized_queue" rx="2.5" ry="2.5" style="stroke:#181818;stroke-width:0.5;" width="348.3604" x="374.5" y="158.5"/><ellipse cx="389.5" cy="174.5" fill="#ADD1B2" rx="11" ry="11" style="stroke:#181818;stroke-width:1;"/><path d="M392.4688,180.1406 Q391.8906,180.4375 391.25,180.5781 Q390.6094,180.7344 389.9063,180.7344 Q387.4063,180.7344 386.0781,179.0938 Q384.7656,177.4375 384.7656,174.3125 Q384.7656,171.1875 386.0781,169.5313 Q387.4063,167.875 389.9063,167.875 Q390.6094,167.875 391.25,168.0313 Q391.9063,168.1875 392.4688,168.4844 L392.4688,171.2031 Q391.8438,170.625 391.25,170.3594 Q390.6563,170.0781 390.0313,170.0781 Q388.6875,170.0781 388,171.1563 Q387.3125,172.2188 387.3125,174.3125 Q387.3125,176.4063 388,177.4844 Q388.6875,178.5469 390.0313,178.5469 Q390.6563,178.5469 391.25,178.2813 Q391.8438,178 392.4688,177.4219 L392.4688,180.1406 Z " fill="#000000"/><text fill="#000000" font-family="sans-serif" font-size="14" lengthAdjust="spacing" textLength="316.3604" x="403.5" y="179.3467">logic_arc_int__baselibs__synchronized_queue</text><line style="stroke:#181818;stroke-width:0.5;" x1="375.5" x2="721.8604" y1="190.5" y2="190.5"/></g><!--class logic_arc_int__baselibs__promise--><g id="elem_logic_arc_int__baselibs__promise"><rect fill="#F1F1F1" height="40" id="logic_arc_int__baselibs__promise" rx="2.5" ry="2.5" style="stroke:#181818;stroke-width:0.5;" width="261.1885" x="1411" y="158.5"/><ellipse cx="1426" cy="174.5" fill="#ADD1B2" rx="11" ry="11" style="stroke:#181818;stroke-width:1;"/><path d="M1428.9688,180.1406 Q1428.3906,180.4375 1427.75,180.5781 Q1427.1094,180.7344 1426.4063,180.7344 Q1423.9063,180.7344 1422.5781,179.0938 Q1421.2656,177.4375 1421.2656,174.3125 Q1421.2656,171.1875 1422.5781,169.5313 Q1423.9063,167.875 1426.4063,167.875 Q1427.1094,167.875 1427.75,168.0313 Q1428.4063,168.1875 1428.9688,168.4844 L1428.9688,171.2031 Q1428.3438,170.625 1427.75,170.3594 Q1427.1563,170.0781 1426.5313,170.0781 Q1425.1875,170.0781 1424.5,171.1563 Q1423.8125,172.2188 1423.8125,174.3125 Q1423.8125,176.4063 1424.5,177.4844 Q1425.1875,178.5469 1426.5313,178.5469 Q1427.1563,178.5469 1427.75,178.2813 Q1428.3438,178 1428.9688,177.4219 L1428.9688,180.1406 Z " fill="#000000"/><text fill="#000000" font-family="sans-serif" font-size="14" lengthAdjust="spacing" textLength="229.1885" x="1440" y="179.3467">logic_arc_int__baselibs__promise</text><line style="stroke:#181818;stroke-width:0.5;" x1="1412" x2="1671.1885" y1="190.5" y2="190.5"/></g><!--class logic_arc_int__baselibs__shared_future--><g id="elem_logic_arc_int__baselibs__shared_future"><rect fill="#F1F1F1" height="40" id="logic_arc_int__baselibs__shared_future" rx="2.5" ry="2.5" style="stroke:#181818;stroke-width:0.5;" width="302.0811" x="757.5" y="158.5"/><ellipse cx="772.5" cy="174.5" fill="#ADD1B2" rx="11" ry="11" style="stroke:#181818;stroke-width:1;"/><path d="M775.4688,180.1406 Q774.8906,180.4375 774.25,180.5781 Q773.6094,180.7344 772.9063,180.7344 Q770.4063,180.7344 769.0781,179.0938 Q767.7656,177.4375 767.7656,174.3125 Q767.7656,171.1875 769.0781,169.5313 Q770.4063,167.875 772.9063,167.875 Q773.6094,167.875 774.25,168.0313 Q774.9063,168.1875 775.4688,168.4844 L775.4688,171.2031 Q774.8438,170.625 774.25,170.3594 Q773.6563,170.0781 773.0313,170.0781 Q771.6875,170.0781 771,171.1563 Q770.3125,172.2188 770.3125,174.3125 Q770.3125,176.4063 771,177.4844 Q771.6875,178.5469 773.0313,178.5469 Q773.6563,178.5469 774.25,178.2813 Q774.8438,178 775.4688,177.4219 L775.4688,180.1406 Z " fill="#000000"/><text fill="#000000" font-family="sans-serif" font-size="14" lengthAdjust="spacing" textLength="270.0811" x="786.5" y="179.3467">logic_arc_int__baselibs__shared_future</text><line style="stroke:#181818;stroke-width:0.5;" x1="758.5" x2="1058.5811" y1="190.5" y2="190.5"/></g><!--class logic_arc_int__baselibs__filesystem--><g id="elem_logic_arc_int__baselibs__filesystem"><rect fill="#F1F1F1" height="40" id="logic_arc_int__baselibs__filesystem" rx="2.5" ry="2.5" style="stroke:#181818;stroke-width:0.5;" width="276.4805" x="5626.5" y="158.5"/><ellipse cx="5641.5" cy="174.5" fill="#ADD1B2" rx="11" ry="11" style="stroke:#181818;stroke-width:1;"/><path d="M5644.4688,180.1406 Q5643.8906,180.4375 5643.25,180.5781 Q5642.6094,180.7344 5641.9063,180.7344 Q5639.4063,180.7344 5638.0781,179.0938 Q5636.7656,177.4375 5636.7656,174.3125 Q5636.7656,171.1875 5638.0781,169.5313 Q5639.4063,167.875 5641.9063,167.875 Q5642.6094,167.875 5643.25,168.0313 Q5643.9063,168.1875 5644.4688,168.4844 L5644.4688,171.2031 Q5643.8438,170.625 5643.25,170.3594 Q5642.6563,170.0781 5642.0313,170.0781 Q5640.6875,170.0781 5640,171.1563 Q5639.3125,172.2188 5639.3125,174.3125 Q5639.3125,176.4063 5640,177.4844 Q5640.6875,178.5469 5642.0313,178.5469 Q5642.6563,178.5469 5643.25,178.2813 Q5643.8438,178 5644.4688,177.4219 L5644.4688,180.1406 Z " fill="#000000"/><text fill="#000000" font-family="sans-serif" font-size="14" lengthAdjust="spacing" textLength="244.4805" x="5655.5" y="179.3467">logic_arc_int__baselibs__filesystem</text><line style="stroke:#181818;stroke-width:0.5;" x1="5627.5" x2="5901.9805" y1="190.5" y2="190.5"/></g><!--class logic_arc_int__baselibs__message_passing--><g id="elem_logic_arc_int__baselibs__message_passing"><rect fill="#F1F1F1" height="40" id="logic_arc_int__baselibs__message_passing" rx="2.5" ry="2.5" style="stroke:#181818;stroke-width:0.5;" width="328.167" x="11.5" y="158.5"/><ellipse cx="26.5" cy="174.5" fill="#ADD1B2" rx="11" ry="11" style="stroke:#181818;stroke-width:1;"/><path d="M29.4688,180.1406 Q28.8906,180.4375 28.25,180.5781 Q27.6094,180.7344 26.9063,180.7344 Q24.4063,180.7344 23.0781,179.0938 Q21.7656,177.4375 21.7656,174.3125 Q21.7656,171.1875 23.0781,169.5313 Q24.4063,167.875 26.9063,167.875 Q27.6094,167.875 28.25,168.0313 Q28.9063,168.1875 29.4688,168.4844 L29.4688,171.2031 Q28.8438,170.625 28.25,170.3594 Q27.6563,170.0781 27.0313,170.0781 Q25.6875,170.0781 25,171.1563 Q24.3125,172.2188 24.3125,174.3125 Q24.3125,176.4063 25,177.4844 Q25.6875,178.5469 27.0313,178.5469 Q27.6563,178.5469 28.25,178.2813 Q28.8438,178 29.4688,177.4219 L29.4688,180.1406 Z " fill="#000000"/><text fill="#000000" font-family="sans-serif" font-size="14" lengthAdjust="spacing" textLength="296.167" x="40.5" y="179.3467">logic_arc_int__baselibs__message_passing</text><line style="stroke:#181818;stroke-width:0.5;" x1="12.5" x2="338.667" y1="190.5" y2="190.5"/></g><!--class logic_arc_int__baselibs__task_result--><g id="elem_logic_arc_int__baselibs__task_result"><rect fill="#F1F1F1" height="40" id="logic_arc_int__baselibs__task_result" rx="2.5" ry="2.5" style="stroke:#181818;stroke-width:0.5;" width="280.9307" x="1095" y="158.5"/><ellipse cx="1110" cy="174.5" fill="#ADD1B2" rx="11" ry="11" style="stroke:#181818;stroke-width:1;"/><path d="M1112.9688,180.1406 Q1112.3906,180.4375 1111.75,180.5781 Q1111.1094,180.7344 1110.4063,180.7344 Q1107.9063,180.7344 1106.5781,179.0938 Q1105.2656,177.4375 1105.2656,174.3125 Q1105.2656,171.1875 1106.5781,169.5313 Q1107.9063,167.875 1110.4063,167.875 Q1111.1094,167.875 1111.75,168.0313 Q1112.4063,168.1875 1112.9688,168.4844 L1112.9688,171.2031 Q1112.3438,170.625 1111.75,170.3594 Q1111.1563,170.0781 1110.5313,170.0781 Q1109.1875,170.0781 1108.5,171.1563 Q1107.8125,172.2188 1107.8125,174.3125 Q1107.8125,176.4063 1108.5,177.4844 Q1109.1875,178.5469 1110.5313,178.5469 Q1111.1563,178.5469 1111.75,178.2813 Q1112.3438,178 1112.9688,177.4219 L1112.9688,180.1406 Z " fill="#000000"/><text fill="#000000" font-family="sans-serif" font-size="14" lengthAdjust="spacing" textLength="248.9307" x="1124" y="179.3467">logic_arc_int__baselibs__task_result</text><line style="stroke:#181818;stroke-width:0.5;" x1="1096" x2="1374.9307" y1="190.5" y2="190.5"/></g><!--class comp_arc_sta__baselibs__bit_manipulation--><g id="elem_comp_arc_sta__baselibs__bit_manipulation"><rect fill="#F1F1F1" height="40" id="comp_arc_sta__baselibs__bit_manipulation" rx="2.5" ry="2.5" style="stroke:#181818;stroke-width:0.5;" width="330.8057" x="5075" y="275.5"/><ellipse cx="5090" cy="291.5" fill="#ADD1B2" rx="11" ry="11" style="stroke:#181818;stroke-width:1;"/><path d="M5092.9688,297.1406 Q5092.3906,297.4375 5091.75,297.5781 Q5091.1094,297.7344 5090.4063,297.7344 Q5087.9063,297.7344 5086.5781,296.0938 Q5085.2656,294.4375 5085.2656,291.3125 Q5085.2656,288.1875 5086.5781,286.5313 Q5087.9063,284.875 5090.4063,284.875 Q5091.1094,284.875 5091.75,285.0313 Q5092.4063,285.1875 5092.9688,285.4844 L5092.9688,288.2031 Q5092.3438,287.625 5091.75,287.3594 Q5091.1563,287.0781 5090.5313,287.0781 Q5089.1875,287.0781 5088.5,288.1563 Q5087.8125,289.2188 5087.8125,291.3125 Q5087.8125,293.4063 5088.5,294.4844 Q5089.1875,295.5469 5090.5313,295.5469 Q5091.1563,295.5469 5091.75,295.2813 Q5092.3438,295 5092.9688,294.4219 L5092.9688,297.1406 Z " fill="#000000"/><text fill="#000000" font-family="sans-serif" font-size="14" lengthAdjust="spacing" textLength="298.8057" x="5104" y="296.3467">comp_arc_sta__baselibs__bit_manipulation</text><line style="stroke:#181818;stroke-width:0.5;" x1="5076" x2="5404.8057" y1="307.5" y2="307.5"/></g><!--class logic_arc_int__baselibs__bit_mask_operator--><g id="elem_logic_arc_int__baselibs__bit_mask_operator"><rect fill="#F1F1F1" height="40" id="logic_arc_int__baselibs__bit_mask_operator" rx="2.5" ry="2.5" style="stroke:#181818;stroke-width:0.5;" width="334.6406" x="5256" y="158.5"/><ellipse cx="5271" cy="174.5" fill="#ADD1B2" rx="11" ry="11" style="stroke:#181818;stroke-width:1;"/><path d="M5273.9688,180.1406 Q5273.3906,180.4375 5272.75,180.5781 Q5272.1094,180.7344 5271.4063,180.7344 Q5268.9063,180.7344 5267.5781,179.0938 Q5266.2656,177.4375 5266.2656,174.3125 Q5266.2656,171.1875 5267.5781,169.5313 Q5268.9063,167.875 5271.4063,167.875 Q5272.1094,167.875 5272.75,168.0313 Q5273.4063,168.1875 5273.9688,168.4844 L5273.9688,171.2031 Q5273.3438,170.625 5272.75,170.3594 Q5272.1563,170.0781 5271.5313,170.0781 Q5270.1875,170.0781 5269.5,171.1563 Q5268.8125,172.2188 5268.8125,174.3125 Q5268.8125,176.4063 5269.5,177.4844 Q5270.1875,178.5469 5271.5313,178.5469 Q5272.1563,178.5469 5272.75,178.2813 Q5273.3438,178 5273.9688,177.4219 L5273.9688,180.1406 Z " fill="#000000"/><text fill="#000000" font-family="sans-serif" font-size="14" lengthAdjust="spacing" textLength="302.6406" x="5285" y="179.3467">logic_arc_int__baselibs__bit_mask_operator</text><line style="stroke:#181818;stroke-width:0.5;" x1="5257" x2="5589.6406" y1="190.5" y2="190.5"/></g><!--class logic_arc_int__baselibs__bit_manipulation--><g id="elem_logic_arc_int__baselibs__bit_manipulation"><rect fill="#F1F1F1" height="40" id="logic_arc_int__baselibs__bit_manipulation" rx="2.5" ry="2.5" style="stroke:#181818;stroke-width:0.5;" width="321.8369" x="4898.5" y="158.5"/><ellipse cx="4913.5" cy="174.5" fill="#ADD1B2" rx="11" ry="11" style="stroke:#181818;stroke-width:1;"/><path d="M4916.4688,180.1406 Q4915.8906,180.4375 4915.25,180.5781 Q4914.6094,180.7344 4913.9063,180.7344 Q4911.4063,180.7344 4910.0781,179.0938 Q4908.7656,177.4375 4908.7656,174.3125 Q4908.7656,171.1875 4910.0781,169.5313 Q4911.4063,167.875 4913.9063,167.875 Q4914.6094,167.875 4915.25,168.0313 Q4915.9063,168.1875 4916.4688,168.4844 L4916.4688,171.2031 Q4915.8438,170.625 4915.25,170.3594 Q4914.6563,170.0781 4914.0313,170.0781 Q4912.6875,170.0781 4912,171.1563 Q4911.3125,172.2188 4911.3125,174.3125 Q4911.3125,176.4063 4912,177.4844 Q4912.6875,178.5469 4914.0313,178.5469 Q4914.6563,178.5469 4915.25,178.2813 Q4915.8438,178 4916.4688,177.4219 L4916.4688,180.1406 Z " fill="#000000"/><text fill="#000000" font-family="sans-serif" font-size="14" lengthAdjust="spacing" textLength="289.8369" x="4927.5" y="179.3467">logic_arc_int__baselibs__bit_manipulation</text><line style="stroke:#181818;stroke-width:0.5;" x1="4899.5" x2="5219.3369" y1="190.5" y2="190.5"/></g><!--class logic_arc_int__baselibs__utils_base64--><g id="elem_logic_arc_int__baselibs__utils_base64"><rect fill="#F1F1F1" height="40" id="logic_arc_int__baselibs__utils_base64" rx="2.5" ry="2.5" style="stroke:#181818;stroke-width:0.5;" width="292.1689" x="4220.5" y="158.5"/><ellipse cx="4235.5" cy="174.5" fill="#ADD1B2" rx="11" ry="11" style="stroke:#181818;stroke-width:1;"/><path d="M4238.4688,180.1406 Q4237.8906,180.4375 4237.25,180.5781 Q4236.6094,180.7344 4235.9063,180.7344 Q4233.4063,180.7344 4232.0781,179.0938 Q4230.7656,177.4375 4230.7656,174.3125 Q4230.7656,171.1875 4232.0781,169.5313 Q4233.4063,167.875 4235.9063,167.875 Q4236.6094,167.875 4237.25,168.0313 Q4237.9063,168.1875 4238.4688,168.4844 L4238.4688,171.2031 Q4237.8438,170.625 4237.25,170.3594 Q4236.6563,170.0781 4236.0313,170.0781 Q4234.6875,170.0781 4234,171.1563 Q4233.3125,172.2188 4233.3125,174.3125 Q4233.3125,176.4063 4234,177.4844 Q4234.6875,178.5469 4236.0313,178.5469 Q4236.6563,178.5469 4237.25,178.2813 Q4237.8438,178 4238.4688,177.4219 L4238.4688,180.1406 Z " fill="#000000"/><text fill="#000000" font-family="sans-serif" font-size="14" lengthAdjust="spacing" textLength="260.1689" x="4249.5" y="179.3467">logic_arc_int__baselibs__utils_base64</text><line style="stroke:#181818;stroke-width:0.5;" x1="4221.5" x2="4511.6689" y1="190.5" y2="190.5"/></g><!--class comp_arc_sta__baselibs__filesystem--><g id="elem_comp_arc_sta__baselibs__filesystem"><rect fill="#F1F1F1" height="40" id="comp_arc_sta__baselibs__filesystem" rx="2.5" ry="2.5" style="stroke:#181818;stroke-width:0.5;" width="285.4492" x="5619" y="275.5"/><ellipse cx="5634" cy="291.5" fill="#ADD1B2" rx="11" ry="11" style="stroke:#181818;stroke-width:1;"/><path d="M5636.9688,297.1406 Q5636.3906,297.4375 5635.75,297.5781 Q5635.1094,297.7344 5634.4063,297.7344 Q5631.9063,297.7344 5630.5781,296.0938 Q5629.2656,294.4375 5629.2656,291.3125 Q5629.2656,288.1875 5630.5781,286.5313 Q5631.9063,284.875 5634.4063,284.875 Q5635.1094,284.875 5635.75,285.0313 Q5636.4063,285.1875 5636.9688,285.4844 L5636.9688,288.2031 Q5636.3438,287.625 5635.75,287.3594 Q5635.1563,287.0781 5634.5313,287.0781 Q5633.1875,287.0781 5632.5,288.1563 Q5631.8125,289.2188 5631.8125,291.3125 Q5631.8125,293.4063 5632.5,294.4844 Q5633.1875,295.5469 5634.5313,295.5469 Q5635.1563,295.5469 5635.75,295.2813 Q5636.3438,295 5636.9688,294.4219 L5636.9688,297.1406 Z " fill="#000000"/><text fill="#000000" font-family="sans-serif" font-size="14" lengthAdjust="spacing" textLength="253.4492" x="5648" y="296.3467">comp_arc_sta__baselibs__filesystem</text><line style="stroke:#181818;stroke-width:0.5;" x1="5620" x2="5903.4492" y1="307.5" y2="307.5"/></g><!--class logic_arc_int__baselibs__executor--><g id="elem_logic_arc_int__baselibs__executor"><rect fill="#F1F1F1" height="40" id="logic_arc_int__baselibs__executor" rx="2.5" ry="2.5" style="stroke:#181818;stroke-width:0.5;" width="266.4385" x="1976.5" y="158.5"/><ellipse cx="1991.5" cy="174.5" fill="#ADD1B2" rx="11" ry="11" style="stroke:#181818;stroke-width:1;"/><path d="M1994.4688,180.1406 Q1993.8906,180.4375 1993.25,180.5781 Q1992.6094,180.7344 1991.9063,180.7344 Q1989.4063,180.7344 1988.0781,179.0938 Q1986.7656,177.4375 1986.7656,174.3125 Q1986.7656,171.1875 1988.0781,169.5313 Q1989.4063,167.875 1991.9063,167.875 Q1992.6094,167.875 1993.25,168.0313 Q1993.9063,168.1875 1994.4688,168.4844 L1994.4688,171.2031 Q1993.8438,170.625 1993.25,170.3594 Q1992.6563,170.0781 1992.0313,170.0781 Q1990.6875,170.0781 1990,171.1563 Q1989.3125,172.2188 1989.3125,174.3125 Q1989.3125,176.4063 1990,177.4844 Q1990.6875,178.5469 1992.0313,178.5469 Q1992.6563,178.5469 1993.25,178.2813 Q1993.8438,178 1994.4688,177.4219 L1994.4688,180.1406 Z " fill="#000000"/><text fill="#000000" font-family="sans-serif" font-size="14" lengthAdjust="spacing" textLength="234.4385" x="2005.5" y="179.3467">logic_arc_int__baselibs__executor</text><line style="stroke:#181818;stroke-width:0.5;" x1="1977.5" x2="2241.9385" y1="190.5" y2="190.5"/></g><!--class comp_arc_sta__baselibs__concurrency--><g id="elem_comp_arc_sta__baselibs__concurrency"><rect fill="#F1F1F1" height="40" id="comp_arc_sta__baselibs__concurrency" rx="2.5" ry="2.5" style="stroke:#181818;stroke-width:0.5;" width="300.2012" x="1512.5" y="275.5"/><ellipse cx="1527.5" cy="291.5" fill="#ADD1B2" rx="11" ry="11" style="stroke:#181818;stroke-width:1;"/><path d="M1530.4688,297.1406 Q1529.8906,297.4375 1529.25,297.5781 Q1528.6094,297.7344 1527.9063,297.7344 Q1525.4063,297.7344 1524.0781,296.0938 Q1522.7656,294.4375 1522.7656,291.3125 Q1522.7656,288.1875 1524.0781,286.5313 Q1525.4063,284.875 1527.9063,284.875 Q1528.6094,284.875 1529.25,285.0313 Q1529.9063,285.1875 1530.4688,285.4844 L1530.4688,288.2031 Q1529.8438,287.625 1529.25,287.3594 Q1528.6563,287.0781 1528.0313,287.0781 Q1526.6875,287.0781 1526,288.1563 Q1525.3125,289.2188 1525.3125,291.3125 Q1525.3125,293.4063 1526,294.4844 Q1526.6875,295.5469 1528.0313,295.5469 Q1528.6563,295.5469 1529.25,295.2813 Q1529.8438,295 1530.4688,294.4219 L1530.4688,297.1406 Z " fill="#000000"/><text fill="#000000" font-family="sans-serif" font-size="14" lengthAdjust="spacing" textLength="268.2012" x="1541.5" y="296.3467">comp_arc_sta__baselibs__concurrency</text><line style="stroke:#181818;stroke-width:0.5;" x1="1513.5" x2="1811.7012" y1="307.5" y2="307.5"/></g><!--class logic_arc_int__baselibs__memory_shared--><g id="elem_logic_arc_int__baselibs__memory_shared"><rect fill="#F1F1F1" height="40" id="logic_arc_int__baselibs__memory_shared" rx="2.5" ry="2.5" style="stroke:#181818;stroke-width:0.5;" width="318.043" x="2928.5" y="158.5"/><ellipse cx="2943.5" cy="174.5" fill="#ADD1B2" rx="11" ry="11" style="stroke:#181818;stroke-width:1;"/><path d="M2946.4688,180.1406 Q2945.8906,180.4375 2945.25,180.5781 Q2944.6094,180.7344 2943.9063,180.7344 Q2941.4063,180.7344 2940.0781,179.0938 Q2938.7656,177.4375 2938.7656,174.3125 Q2938.7656,171.1875 2940.0781,169.5313 Q2941.4063,167.875 2943.9063,167.875 Q2944.6094,167.875 2945.25,168.0313 Q2945.9063,168.1875 2946.4688,168.4844 L2946.4688,171.2031 Q2945.8438,170.625 2945.25,170.3594 Q2944.6563,170.0781 2944.0313,170.0781 Q2942.6875,170.0781 2942,171.1563 Q2941.3125,172.2188 2941.3125,174.3125 Q2941.3125,176.4063 2942,177.4844 Q2942.6875,178.5469 2944.0313,178.5469 Q2944.6563,178.5469 2945.25,178.2813 Q2945.8438,178 2946.4688,177.4219 L2946.4688,180.1406 Z " fill="#000000"/><text fill="#000000" font-family="sans-serif" font-size="14" lengthAdjust="spacing" textLength="286.043" x="2957.5" y="179.3467">logic_arc_int__baselibs__memory_shared</text><line style="stroke:#181818;stroke-width:0.5;" x1="2929.5" x2="3245.543" y1="190.5" y2="190.5"/></g><!--class comp_arc_sta__baselibs__utils--><g id="elem_comp_arc_sta__baselibs__utils"><rect fill="#F1F1F1" height="40" id="comp_arc_sta__baselibs__utils" rx="2.5" ry="2.5" style="stroke:#181818;stroke-width:0.5;" width="242.9502" x="4387" y="275.5"/><ellipse cx="4402" cy="291.5" fill="#ADD1B2" rx="11" ry="11" style="stroke:#181818;stroke-width:1;"/><path d="M4404.9688,297.1406 Q4404.3906,297.4375 4403.75,297.5781 Q4403.1094,297.7344 4402.4063,297.7344 Q4399.9063,297.7344 4398.5781,296.0938 Q4397.2656,294.4375 4397.2656,291.3125 Q4397.2656,288.1875 4398.5781,286.5313 Q4399.9063,284.875 4402.4063,284.875 Q4403.1094,284.875 4403.75,285.0313 Q4404.4063,285.1875 4404.9688,285.4844 L4404.9688,288.2031 Q4404.3438,287.625 4403.75,287.3594 Q4403.1563,287.0781 4402.5313,287.0781 Q4401.1875,287.0781 4400.5,288.1563 Q4399.8125,289.2188 4399.8125,291.3125 Q4399.8125,293.4063 4400.5,294.4844 Q4401.1875,295.5469 4402.5313,295.5469 Q4403.1563,295.5469 4403.75,295.2813 Q4404.3438,295 4404.9688,294.4219 L4404.9688,297.1406 Z " fill="#000000"/><text fill="#000000" font-family="sans-serif" font-size="14" lengthAdjust="spacing" textLength="210.9502" x="4416" y="296.3467">comp_arc_sta__baselibs__utils</text><line style="stroke:#181818;stroke-width:0.5;" x1="4388" x2="4628.9502" y1="307.5" y2="307.5"/></g><!--class logic_arc_int__baselibs__utils_scoped_op--><g id="elem_logic_arc_int__baselibs__utils_scoped_op"><rect fill="#F1F1F1" height="40" id="logic_arc_int__baselibs__utils_scoped_op" rx="2.5" ry="2.5" style="stroke:#181818;stroke-width:0.5;" width="315.377" x="4548" y="158.5"/><ellipse cx="4563" cy="174.5" fill="#ADD1B2" rx="11" ry="11" style="stroke:#181818;stroke-width:1;"/><path d="M4565.9688,180.1406 Q4565.3906,180.4375 4564.75,180.5781 Q4564.1094,180.7344 4563.4063,180.7344 Q4560.9063,180.7344 4559.5781,179.0938 Q4558.2656,177.4375 4558.2656,174.3125 Q4558.2656,171.1875 4559.5781,169.5313 Q4560.9063,167.875 4563.4063,167.875 Q4564.1094,167.875 4564.75,168.0313 Q4565.4063,168.1875 4565.9688,168.4844 L4565.9688,171.2031 Q4565.3438,170.625 4564.75,170.3594 Q4564.1563,170.0781 4563.5313,170.0781 Q4562.1875,170.0781 4561.5,171.1563 Q4560.8125,172.2188 4560.8125,174.3125 Q4560.8125,176.4063 4561.5,177.4844 Q4562.1875,178.5469 4563.5313,178.5469 Q4564.1563,178.5469 4564.75,178.2813 Q4565.3438,178 4565.9688,177.4219 L4565.9688,180.1406 Z " fill="#000000"/><text fill="#000000" font-family="sans-serif" font-size="14" lengthAdjust="spacing" textLength="283.377" x="4577" y="179.3467">logic_arc_int__baselibs__utils_scoped_op</text><line style="stroke:#181818;stroke-width:0.5;" x1="4549" x2="4862.377" y1="190.5" y2="190.5"/></g><!--class logic_arc_int__baselibs__future--><g id="elem_logic_arc_int__baselibs__future"><rect fill="#F1F1F1" height="40" id="logic_arc_int__baselibs__future" rx="2.5" ry="2.5" style="stroke:#181818;stroke-width:0.5;" width="247.0791" x="2278" y="158.5"/><ellipse cx="2293" cy="174.5" fill="#ADD1B2" rx="11" ry="11" style="stroke:#181818;stroke-width:1;"/><path d="M2295.9688,180.1406 Q2295.3906,180.4375 2294.75,180.5781 Q2294.1094,180.7344 2293.4063,180.7344 Q2290.9063,180.7344 2289.5781,179.0938 Q2288.2656,177.4375 2288.2656,174.3125 Q2288.2656,171.1875 2289.5781,169.5313 Q2290.9063,167.875 2293.4063,167.875 Q2294.1094,167.875 2294.75,168.0313 Q2295.4063,168.1875 2295.9688,168.4844 L2295.9688,171.2031 Q2295.3438,170.625 2294.75,170.3594 Q2294.1563,170.0781 2293.5313,170.0781 Q2292.1875,170.0781 2291.5,171.1563 Q2290.8125,172.2188 2290.8125,174.3125 Q2290.8125,176.4063 2291.5,177.4844 Q2292.1875,178.5469 2293.5313,178.5469 Q2294.1563,178.5469 2294.75,178.2813 Q2295.3438,178 2295.9688,177.4219 L2295.9688,180.1406 Z " fill="#000000"/><text fill="#000000" font-family="sans-serif" font-size="14" lengthAdjust="spacing" textLength="215.0791" x="2307" y="179.3467">logic_arc_int__baselibs__future</text><line style="stroke:#181818;stroke-width:0.5;" x1="2279" x2="2524.0791" y1="190.5" y2="190.5"/></g><!--class comp_arc_sta__baselibs__json--><g id="elem_comp_arc_sta__baselibs__json"><rect fill="#F1F1F1" height="40" id="comp_arc_sta__baselibs__json" rx="2.5" ry="2.5" style="stroke:#181818;stroke-width:0.5;" width="242.1367" x="3280.5" y="275.5"/><ellipse cx="3295.5" cy="291.5" fill="#ADD1B2" rx="11" ry="11" style="stroke:#181818;stroke-width:1;"/><path d="M3298.4688,297.1406 Q3297.8906,297.4375 3297.25,297.5781 Q3296.6094,297.7344 3295.9063,297.7344 Q3293.4063,297.7344 3292.0781,296.0938 Q3290.7656,294.4375 3290.7656,291.3125 Q3290.7656,288.1875 3292.0781,286.5313 Q3293.4063,284.875 3295.9063,284.875 Q3296.6094,284.875 3297.25,285.0313 Q3297.9063,285.1875 3298.4688,285.4844 L3298.4688,288.2031 Q3297.8438,287.625 3297.25,287.3594 Q3296.6563,287.0781 3296.0313,287.0781 Q3294.6875,287.0781 3294,288.1563 Q3293.3125,289.2188 3293.3125,291.3125 Q3293.3125,293.4063 3294,294.4844 Q3294.6875,295.5469 3296.0313,295.5469 Q3296.6563,295.5469 3297.25,295.2813 Q3297.8438,295 3298.4688,294.4219 L3298.4688,297.1406 Z " fill="#000000"/><text fill="#000000" font-family="sans-serif" font-size="14" lengthAdjust="spacing" textLength="210.1367" x="3309.5" y="296.3467">comp_arc_sta__baselibs__json</text><line style="stroke:#181818;stroke-width:0.5;" x1="3281.5" x2="3521.6367" y1="307.5" y2="307.5"/></g><!--class logic_arc_int__baselibs__json--><g id="elem_logic_arc_int__baselibs__json"><rect fill="#F1F1F1" height="40" id="logic_arc_int__baselibs__json" rx="2.5" ry="2.5" style="stroke:#181818;stroke-width:0.5;" width="233.168" x="3281" y="158.5"/><ellipse cx="3296" cy="174.5" fill="#ADD1B2" rx="11" ry="11" style="stroke:#181818;stroke-width:1;"/><path d="M3298.9688,180.1406 Q3298.3906,180.4375 3297.75,180.5781 Q3297.1094,180.7344 3296.4063,180.7344 Q3293.9063,180.7344 3292.5781,179.0938 Q3291.2656,177.4375 3291.2656,174.3125 Q3291.2656,171.1875 3292.5781,169.5313 Q3293.9063,167.875 3296.4063,167.875 Q3297.1094,167.875 3297.75,168.0313 Q3298.4063,168.1875 3298.9688,168.4844 L3298.9688,171.2031 Q3298.3438,170.625 3297.75,170.3594 Q3297.1563,170.0781 3296.5313,170.0781 Q3295.1875,170.0781 3294.5,171.1563 Q3293.8125,172.2188 3293.8125,174.3125 Q3293.8125,176.4063 3294.5,177.4844 Q3295.1875,178.5469 3296.5313,178.5469 Q3297.1563,178.5469 3297.75,178.2813 Q3298.3438,178 3298.9688,177.4219 L3298.9688,180.1406 Z " fill="#000000"/><text fill="#000000" font-family="sans-serif" font-size="14" lengthAdjust="spacing" textLength="201.168" x="3310" y="179.3467">logic_arc_int__baselibs__json</text><line style="stroke:#181818;stroke-width:0.5;" x1="3282" x2="3513.168" y1="190.5" y2="190.5"/></g><!--class comp_arc_sta__baselibs__memory_shared--><g id="elem_comp_arc_sta__baselibs__memory_shared"><rect fill="#F1F1F1" height="40" id="comp_arc_sta__baselibs__memory_shared" rx="2.5" ry="2.5" style="stroke:#181818;stroke-width:0.5;" width="327.0117" x="2919" y="275.5"/><ellipse cx="2934" cy="291.5" fill="#ADD1B2" rx="11" ry="11" style="stroke:#181818;stroke-width:1;"/><path d="M2936.9688,297.1406 Q2936.3906,297.4375 2935.75,297.5781 Q2935.1094,297.7344 2934.4063,297.7344 Q2931.9063,297.7344 2930.5781,296.0938 Q2929.2656,294.4375 2929.2656,291.3125 Q2929.2656,288.1875 2930.5781,286.5313 Q2931.9063,284.875 2934.4063,284.875 Q2935.1094,284.875 2935.75,285.0313 Q2936.4063,285.1875 2936.9688,285.4844 L2936.9688,288.2031 Q2936.3438,287.625 2935.75,287.3594 Q2935.1563,287.0781 2934.5313,287.0781 Q2933.1875,287.0781 2932.5,288.1563 Q2931.8125,289.2188 2931.8125,291.3125 Q2931.8125,293.4063 2932.5,294.4844 Q2933.1875,295.5469 2934.5313,295.5469 Q2935.1563,295.5469 2935.75,295.2813 Q2936.3438,295 2936.9688,294.4219 L2936.9688,297.1406 Z " fill="#000000"/><text fill="#000000" font-family="sans-serif" font-size="14" lengthAdjust="spacing" textLength="295.0117" x="2948" y="296.3467">comp_arc_sta__baselibs__memory_shared</text><line style="stroke:#181818;stroke-width:0.5;" x1="2920" x2="3245.0117" y1="307.5" y2="307.5"/></g><!--class logic_arc_int__baselibs__dynamic_array--><g id="elem_logic_arc_int__baselibs__dynamic_array"><rect fill="#F1F1F1" height="40" id="logic_arc_int__baselibs__dynamic_array" rx="2.5" ry="2.5" style="stroke:#181818;stroke-width:0.5;" width="308.3496" x="3877.5" y="158.5"/><ellipse cx="3892.5" cy="174.5" fill="#ADD1B2" rx="11" ry="11" style="stroke:#181818;stroke-width:1;"/><path d="M3895.4688,180.1406 Q3894.8906,180.4375 3894.25,180.5781 Q3893.6094,180.7344 3892.9063,180.7344 Q3890.4063,180.7344 3889.0781,179.0938 Q3887.7656,177.4375 3887.7656,174.3125 Q3887.7656,171.1875 3889.0781,169.5313 Q3890.4063,167.875 3892.9063,167.875 Q3893.6094,167.875 3894.25,168.0313 Q3894.9063,168.1875 3895.4688,168.4844 L3895.4688,171.2031 Q3894.8438,170.625 3894.25,170.3594 Q3893.6563,170.0781 3893.0313,170.0781 Q3891.6875,170.0781 3891,171.1563 Q3890.3125,172.2188 3890.3125,174.3125 Q3890.3125,176.4063 3891,177.4844 Q3891.6875,178.5469 3893.0313,178.5469 Q3893.6563,178.5469 3894.25,178.2813 Q3894.8438,178 3895.4688,177.4219 L3895.4688,180.1406 Z " fill="#000000"/><text fill="#000000" font-family="sans-serif" font-size="14" lengthAdjust="spacing" textLength="276.3496" x="3906.5" y="179.3467">logic_arc_int__baselibs__dynamic_array</text><line style="stroke:#181818;stroke-width:0.5;" x1="3878.5" x2="4184.8496" y1="190.5" y2="190.5"/></g><!--class comp_arc_sta__baselibs__message_passing--><g id="elem_comp_arc_sta__baselibs__message_passing"><rect fill="#F1F1F1" height="40" id="comp_arc_sta__baselibs__message_passing" rx="2.5" ry="2.5" style="stroke:#181818;stroke-width:0.5;" width="337.1357" x="7" y="275.5"/><ellipse cx="22" cy="291.5" fill="#ADD1B2" rx="11" ry="11" style="stroke:#181818;stroke-width:1;"/><path d="M24.9688,297.1406 Q24.3906,297.4375 23.75,297.5781 Q23.1094,297.7344 22.4063,297.7344 Q19.9063,297.7344 18.5781,296.0938 Q17.2656,294.4375 17.2656,291.3125 Q17.2656,288.1875 18.5781,286.5313 Q19.9063,284.875 22.4063,284.875 Q23.1094,284.875 23.75,285.0313 Q24.4063,285.1875 24.9688,285.4844 L24.9688,288.2031 Q24.3438,287.625 23.75,287.3594 Q23.1563,287.0781 22.5313,287.0781 Q21.1875,287.0781 20.5,288.1563 Q19.8125,289.2188 19.8125,291.3125 Q19.8125,293.4063 20.5,294.4844 Q21.1875,295.5469 22.5313,295.5469 Q23.1563,295.5469 23.75,295.2813 Q24.3438,295 24.9688,294.4219 L24.9688,297.1406 Z " fill="#000000"/><text fill="#000000" font-family="sans-serif" font-size="14" lengthAdjust="spacing" textLength="305.1357" x="36" y="296.3467">comp_arc_sta__baselibs__message_passing</text><line style="stroke:#181818;stroke-width:0.5;" x1="8" x2="343.1357" y1="307.5" y2="307.5"/></g><!--class logic_arc_int__baselibs__task--><g id="elem_logic_arc_int__baselibs__task"><rect fill="#F1F1F1" height="40" id="logic_arc_int__baselibs__task" rx="2.5" ry="2.5" style="stroke:#181818;stroke-width:0.5;" width="234.0156" x="1707.5" y="158.5"/><ellipse cx="1722.5" cy="174.5" fill="#ADD1B2" rx="11" ry="11" style="stroke:#181818;stroke-width:1;"/><path d="M1725.4688,180.1406 Q1724.8906,180.4375 1724.25,180.5781 Q1723.6094,180.7344 1722.9063,180.7344 Q1720.4063,180.7344 1719.0781,179.0938 Q1717.7656,177.4375 1717.7656,174.3125 Q1717.7656,171.1875 1719.0781,169.5313 Q1720.4063,167.875 1722.9063,167.875 Q1723.6094,167.875 1724.25,168.0313 Q1724.9063,168.1875 1725.4688,168.4844 L1725.4688,171.2031 Q1724.8438,170.625 1724.25,170.3594 Q1723.6563,170.0781 1723.0313,170.0781 Q1721.6875,170.0781 1721,171.1563 Q1720.3125,172.2188 1720.3125,174.3125 Q1720.3125,176.4063 1721,177.4844 Q1721.6875,178.5469 1723.0313,178.5469 Q1723.6563,178.5469 1724.25,178.2813 Q1724.8438,178 1725.4688,177.4219 L1725.4688,180.1406 Z " fill="#000000"/><text fill="#000000" font-family="sans-serif" font-size="14" lengthAdjust="spacing" textLength="202.0156" x="1736.5" y="179.3467">logic_arc_int__baselibs__task</text><line style="stroke:#181818;stroke-width:0.5;" x1="1708.5" x2="1940.5156" y1="190.5" y2="190.5"/></g><!--reverse link logic_arc_int__baselibs__intrusive_list to comp_arc_sta__baselibs__containers--><g id="link_logic_arc_int__baselibs__intrusive_list_comp_arc_sta__baselibs__containers"><path codeLine="14" d="M3713.4838,203.5546 C3729.3638,224.7846 3751.16,253.94 3767.06,275.19 " fill="transparent" id="logic_arc_int__baselibs__intrusive_list-backto-comp_arc_sta__baselibs__containers" style="stroke:#181818;stroke-width:1;"/><polygon fill="#181818" points="3709.89,198.75,3712.0777,208.3528,3712.8849,202.7538,3718.4838,203.561,3709.89,198.75" style="stroke:#181818;stroke-width:1;"/><text fill="#000000" font-family="sans-serif" font-size="13" lengthAdjust="spacing" textLength="76.9082" x="3745.5" y="241.5669">implements</text></g><!--link Feature_User to logic_arc_int__baselibs__condition_variable--><g id="link_Feature_User_logic_arc_int__baselibs__condition_variable"><path codeLine="15" d="M3042.14,61.21 C2974.82,86.01 2854.4502,130.3662 2783.7002,156.4262 " fill="transparent" id="Feature_User-to-logic_arc_int__baselibs__condition_variable" style="stroke:#181818;stroke-width:1;"/><polygon fill="#181818" points="2778.07,158.5,2787.8979,159.1427,2782.7618,156.7718,2785.1328,151.6358,2778.07,158.5" style="stroke:#181818;stroke-width:1;"/><text fill="#000000" font-family="sans-serif" font-size="13" lengthAdjust="spacing" textLength="23.0103" x="2897.5" y="124.5669">use</text></g><!--reverse link logic_arc_int__baselibs__result to comp_arc_sta__baselibs__result--><g id="link_logic_arc_int__baselibs__result_comp_arc_sta__baselibs__result"><path codeLine="16" d="M6063.9346,204.7491 C6064.3046,225.9791 6064.79,253.94 6065.16,275.19 " fill="transparent" id="logic_arc_int__baselibs__result-backto-comp_arc_sta__baselibs__result" style="stroke:#181818;stroke-width:1;"/><polygon fill="#181818" points="6063.83,198.75,6059.9874,207.8183,6063.9171,203.7492,6067.9862,207.6789,6063.83,198.75" style="stroke:#181818;stroke-width:1;"/><text fill="#000000" font-family="sans-serif" font-size="13" lengthAdjust="spacing" textLength="76.9082" x="6065.5" y="241.5669">implements</text></g><!--link Feature_User to logic_arc_int__baselibs__synchronized_queue--><g id="link_Feature_User_logic_arc_int__baselibs__synchronized_queue"><path codeLine="18" d="M3042.28,45.87 C2848.45,51.82 2068.57,76.75 1428.5,111.5 C1122.02,128.14 1045.36,132.86 739.5,158.5 C733.94,158.97 734.2662,158.9162 728.5562,159.4262 " fill="transparent" id="Feature_User-to-logic_arc_int__baselibs__synchronized_queue" style="stroke:#181818;stroke-width:1;"/><polygon fill="#181818" points="722.58,159.96,731.9002,163.1435,727.5602,159.5152,731.1885,155.1752,722.58,159.96" style="stroke:#181818;stroke-width:1;"/><text fill="#000000" font-family="sans-serif" font-size="13" lengthAdjust="spacing" textLength="23.0103" x="1429.5" y="124.5669">use</text></g><!--link Feature_User to logic_arc_int__baselibs__promise--><g id="link_Feature_User_logic_arc_int__baselibs__promise"><path codeLine="19" d="M3042.45,47.25 C2868.04,58.11 2220.52,100.2 1689.5,158.5 C1683.83,159.12 1684.0097,159.0861 1678.1697,159.7661 " fill="transparent" id="Feature_User-to-logic_arc_int__baselibs__promise" style="stroke:#181818;stroke-width:1;"/><polygon fill="#181818" points="1672.21,160.46,1681.6122,163.3922,1677.1764,159.8817,1680.687,155.4459,1672.21,160.46" style="stroke:#181818;stroke-width:1;"/><text fill="#000000" font-family="sans-serif" font-size="13" lengthAdjust="spacing" textLength="23.0103" x="2151.5" y="124.5669">use</text></g><!--link Feature_User to logic_arc_int__baselibs__shared_future--><g id="link_Feature_User_logic_arc_int__baselibs__shared_future"><path codeLine="20" d="M3042.49,45.88 C2825.17,52.78 1862.78,86.17 1077.5,158.5 C1071.62,159.04 1071.6008,159.0188 1065.5408,159.6188 " fill="transparent" id="Feature_User-to-logic_arc_int__baselibs__shared_future" style="stroke:#181818;stroke-width:1;"/><polygon fill="#181818" points="1059.57,160.21,1068.9203,163.3038,1064.5457,159.7174,1068.1321,155.3427,1059.57,160.21" style="stroke:#181818;stroke-width:1;"/><text fill="#000000" font-family="sans-serif" font-size="13" lengthAdjust="spacing" textLength="23.0103" x="1630.5" y="124.5669">use</text></g><!--link Feature_User to logic_arc_int__baselibs__filesystem--><g id="link_Feature_User_logic_arc_int__baselibs__filesystem"><path codeLine="21" d="M3132.73,45.79 C3334.52,51.65 4172.92,76.91 4860.5,111.5 C5193.18,128.24 5276.81,127.91 5608.5,158.5 C5614.34,159.04 5614.3316,159.0053 5620.3516,159.6253 " fill="transparent" id="Feature_User-to-logic_arc_int__baselibs__filesystem" style="stroke:#181818;stroke-width:1;"/><polygon fill="#181818" points="5626.32,160.24,5617.7771,155.339,5621.3463,159.7278,5616.9576,163.2969,5626.32,160.24" style="stroke:#181818;stroke-width:1;"/><text fill="#000000" font-family="sans-serif" font-size="13" lengthAdjust="spacing" textLength="23.0103" x="5211.5" y="124.5669">use</text></g><!--link Feature_User to logic_arc_int__baselibs__message_passing--><g id="link_Feature_User_logic_arc_int__baselibs__message_passing"><path codeLine="22" d="M3042.2,45.56 C2826.57,50.69 1882.56,74.29 1109.5,111.5 C774.57,127.62 690.65,130.55 356.5,158.5 C350.99,158.96 351.3667,158.922 345.7067,159.422 " fill="transparent" id="Feature_User-to-logic_arc_int__baselibs__message_passing" style="stroke:#181818;stroke-width:1;"/><polygon fill="#181818" points="339.73,159.95,349.0471,163.1425,344.7106,159.51,348.3431,155.1735,339.73,159.95" style="stroke:#181818;stroke-width:1;"/><text fill="#000000" font-family="sans-serif" font-size="13" lengthAdjust="spacing" textLength="23.0103" x="1110.5" y="124.5669">use</text></g><!--link Feature_User to logic_arc_int__baselibs__task_result--><g id="link_Feature_User_logic_arc_int__baselibs__task_result"><path codeLine="23" d="M3042.25,46.42 C2845.72,54.99 2046.73,92.27 1393.5,158.5 C1387.87,159.07 1388.0849,159.0221 1382.2849,159.6521 " fill="transparent" id="Feature_User-to-logic_arc_int__baselibs__task_result" style="stroke:#181818;stroke-width:1;"/><polygon fill="#181818" points="1376.32,160.3,1385.6993,163.3047,1381.2908,159.7601,1384.8354,155.3515,1376.32,160.3" style="stroke:#181818;stroke-width:1;"/><text fill="#000000" font-family="sans-serif" font-size="13" lengthAdjust="spacing" textLength="23.0103" x="1906.5" y="124.5669">use</text></g><!--link Feature_User to logic_arc_int__baselibs__result--><g id="link_Feature_User_logic_arc_int__baselibs__result"><path codeLine="24" d="M3132.67,45.26 C3359.38,49.21 4395.89,68.88 5243.5,111.5 C5544.29,126.62 5619.84,128.34 5919.5,158.5 C5926.65,159.22 5928.0291,159.3262 5935.4391,160.1762 " fill="transparent" id="Feature_User-to-logic_arc_int__baselibs__result" style="stroke:#181818;stroke-width:1;"/><polygon fill="#181818" points="5941.4,160.86,5932.9145,155.8604,5936.4326,160.2902,5932.0028,163.8083,5941.4,160.86" style="stroke:#181818;stroke-width:1;"/><text fill="#000000" font-family="sans-serif" font-size="13" lengthAdjust="spacing" textLength="23.0103" x="5560.5" y="124.5669">use</text></g><!--reverse link logic_arc_int__baselibs__bit_mask_operator to comp_arc_sta__baselibs__bit_manipulation--><g id="link_logic_arc_int__baselibs__bit_mask_operator_comp_arc_sta__baselibs__bit_manipulation"><path codeLine="25" d="M5387.7898,201.9424 C5353.9098,223.2324 5304.72,254.14 5270.92,275.38 " fill="transparent" id="logic_arc_int__baselibs__bit_mask_operator-backto-comp_arc_sta__baselibs__bit_manipulation" style="stroke:#181818;stroke-width:1;"/><polygon fill="#181818" points="5392.87,198.75,5383.1214,200.1518,5388.6365,201.4103,5387.3779,206.9254,5392.87,198.75" style="stroke:#181818;stroke-width:1;"/><text fill="#000000" font-family="sans-serif" font-size="13" lengthAdjust="spacing" textLength="76.9082" x="5344.5" y="241.5669">implements</text></g><!--link Feature_User to logic_arc_int__baselibs__bit_manipulation--><g id="link_Feature_User_logic_arc_int__baselibs__bit_manipulation"><path codeLine="26" d="M3132.6,46.56 C3335.63,56.01 4185.28,97.35 4880.5,158.5 C4886.26,159.01 4886.1457,158.985 4892.0657,159.535 " fill="transparent" id="Feature_User-to-logic_arc_int__baselibs__bit_manipulation" style="stroke:#181818;stroke-width:1;"/><polygon fill="#181818" points="4898.04,160.09,4889.4486,155.2746,4893.0614,159.6275,4888.7086,163.2403,4898.04,160.09" style="stroke:#181818;stroke-width:1;"/><text fill="#000000" font-family="sans-serif" font-size="13" lengthAdjust="spacing" textLength="23.0103" x="4489.5" y="124.5669">use</text></g><!--link Feature_User to logic_arc_int__baselibs__utils_base64--><g id="link_Feature_User_logic_arc_int__baselibs__utils_base64"><path codeLine="27" d="M3132.66,48.9 C3284,63.68 3787.09,113.2 4202.5,158.5 C4208.34,159.14 4208.3368,159.1263 4214.3568,159.7963 " fill="transparent" id="Feature_User-to-logic_arc_int__baselibs__utils_base64" style="stroke:#181818;stroke-width:1;"/><polygon fill="#181818" points="4220.32,160.46,4211.8177,155.489,4215.3507,159.9069,4210.9328,163.4399,4220.32,160.46" style="stroke:#181818;stroke-width:1;"/><text fill="#000000" font-family="sans-serif" font-size="13" lengthAdjust="spacing" textLength="23.0103" x="3897.5" y="124.5669">use</text></g><!--link Feature_User to logic_arc_int__baselibs__bit_mask_operator--><g id="link_Feature_User_logic_arc_int__baselibs__bit_mask_operator"><path codeLine="28" d="M3132.59,45.86 C3358.88,52.91 4393.37,87.7 5237.5,158.5 C5243.48,159 5243.5939,158.9955 5249.7439,159.5455 " fill="transparent" id="Feature_User-to-logic_arc_int__baselibs__bit_mask_operator" style="stroke:#181818;stroke-width:1;"/><polygon fill="#181818" points="5255.72,160.08,5247.1121,155.2942,5250.7399,159.6346,5246.3995,163.2624,5255.72,160.08" style="stroke:#181818;stroke-width:1;"/><text fill="#000000" font-family="sans-serif" font-size="13" lengthAdjust="spacing" textLength="23.0103" x="4828.5" y="124.5669">use</text></g><!--reverse link logic_arc_int__baselibs__filesystem to comp_arc_sta__baselibs__filesystem--><g id="link_logic_arc_int__baselibs__filesystem_comp_arc_sta__baselibs__filesystem"><path codeLine="29" d="M5763.8418,204.7479 C5763.2818,225.9779 5762.56,253.94 5762,275.19 " fill="transparent" id="logic_arc_int__baselibs__filesystem-backto-comp_arc_sta__baselibs__filesystem" style="stroke:#181818;stroke-width:1;"/><polygon fill="#181818" points="5764,198.75,5759.7641,207.6414,5763.8682,203.7483,5767.7613,207.8523,5764,198.75" style="stroke:#181818;stroke-width:1;"/><text fill="#000000" font-family="sans-serif" font-size="13" lengthAdjust="spacing" textLength="76.9082" x="5764.5" y="241.5669">implements</text></g><!--link Feature_User to logic_arc_int__baselibs__executor--><g id="link_Feature_User_logic_arc_int__baselibs__executor"><path codeLine="30" d="M3042.29,50.65 C2901.13,69.84 2470.7153,128.3816 2248.4653,158.6016 " fill="transparent" id="Feature_User-to-logic_arc_int__baselibs__executor" style="stroke:#181818;stroke-width:1;"/><polygon fill="#181818" points="2242.52,159.41,2251.9769,162.1609,2247.4744,158.7363,2250.899,154.2339,2242.52,159.41" style="stroke:#181818;stroke-width:1;"/><text fill="#000000" font-family="sans-serif" font-size="13" lengthAdjust="spacing" textLength="23.0103" x="2570.5" y="124.5669">use</text></g><!--reverse link logic_arc_int__baselibs__task_result to comp_arc_sta__baselibs__concurrency--><g id="link_logic_arc_int__baselibs__task_result_comp_arc_sta__baselibs__concurrency"><path codeLine="31" d="M1312.2836,200.1803 C1391.3736,221.4803 1512.68,254.15 1591.7,275.43 " fill="transparent" id="logic_arc_int__baselibs__task_result-backto-comp_arc_sta__baselibs__concurrency" style="stroke:#181818;stroke-width:1;"/><polygon fill="#181818" points="1306.49,198.62,1314.1402,204.8228,1311.318,199.9202,1316.2206,197.098,1306.49,198.62" style="stroke:#181818;stroke-width:1;"/><text fill="#000000" font-family="sans-serif" font-size="13" lengthAdjust="spacing" textLength="76.9082" x="1476.5" y="241.5669">implements</text></g><!--reverse link logic_arc_int__baselibs__shared_future to comp_arc_sta__baselibs__concurrency--><g id="link_logic_arc_int__baselibs__shared_future_comp_arc_sta__baselibs__concurrency"><path codeLine="32" d="M1037.3897,199.4355 C1123.1497,212.6755 1234.32,229.79 1337.5,245.5 C1402.8,255.44 1475.49,266.41 1535.54,275.45 " fill="transparent" id="logic_arc_int__baselibs__shared_future-backto-comp_arc_sta__baselibs__concurrency" style="stroke:#181818;stroke-width:1;"/><polygon fill="#181818" points="1031.46,198.52,1039.7443,203.8464,1036.4015,199.2829,1040.9649,195.94,1031.46,198.52" style="stroke:#181818;stroke-width:1;"/><text fill="#000000" font-family="sans-serif" font-size="13" lengthAdjust="spacing" textLength="76.9082" x="1338.5" y="241.5669">implements</text></g><!--link Feature_User to logic_arc_int__baselibs__memory_shared--><g id="link_Feature_User_logic_arc_int__baselibs__memory_shared"><path codeLine="33" d="M3087.5,81.55 C3087.5,106.45 3087.5,132.26 3087.5,152.26 " fill="transparent" id="Feature_User-to-logic_arc_int__baselibs__memory_shared" style="stroke:#181818;stroke-width:1;"/><polygon fill="#181818" points="3087.5,158.26,3091.5,149.26,3087.5,153.26,3083.5,149.26,3087.5,158.26" style="stroke:#181818;stroke-width:1;"/><text fill="#000000" font-family="sans-serif" font-size="13" lengthAdjust="spacing" textLength="23.0103" x="3088.5" y="124.5669">use</text></g><!--reverse link logic_arc_int__baselibs__utils_scoped_op to comp_arc_sta__baselibs__utils--><g id="link_logic_arc_int__baselibs__utils_scoped_op_comp_arc_sta__baselibs__utils"><path codeLine="34" d="M4667.3479,201.7743 C4630.8679,223.0643 4577.64,254.14 4541.25,275.38 " fill="transparent" id="logic_arc_int__baselibs__utils_scoped_op-backto-comp_arc_sta__baselibs__utils" style="stroke:#181818;stroke-width:1;"/><polygon fill="#181818" points="4672.53,198.75,4662.7407,199.8317,4668.2116,201.2702,4666.7731,206.7411,4672.53,198.75" style="stroke:#181818;stroke-width:1;"/><text fill="#000000" font-family="sans-serif" font-size="13" lengthAdjust="spacing" textLength="76.9082" x="4620.5" y="241.5669">implements</text></g><!--reverse link logic_arc_int__baselibs__bit_manipulation to comp_arc_sta__baselibs__bit_manipulation--><g id="link_logic_arc_int__baselibs__bit_manipulation_comp_arc_sta__baselibs__bit_manipulation"><path codeLine="35" d="M5094.8643,201.9675 C5128.3743,223.2575 5176.98,254.14 5210.41,275.38 " fill="transparent" id="logic_arc_int__baselibs__bit_manipulation-backto-comp_arc_sta__baselibs__bit_manipulation" style="stroke:#181818;stroke-width:1;"/><polygon fill="#181818" points="5089.8,198.75,5095.2515,206.9525,5094.0203,201.4313,5099.5415,200.2001,5089.8,198.75" style="stroke:#181818;stroke-width:1;"/><text fill="#000000" font-family="sans-serif" font-size="13" lengthAdjust="spacing" textLength="76.9082" x="5162.5" y="241.5669">implements</text></g><!--reverse link logic_arc_int__baselibs__utils_base64 to comp_arc_sta__baselibs__utils--><g id="link_logic_arc_int__baselibs__utils_base64_comp_arc_sta__baselibs__utils"><path codeLine="36" d="M4394.9324,202.5265 C4421.1424,223.7565 4458.41,253.94 4484.65,275.19 " fill="transparent" id="logic_arc_int__baselibs__utils_base64-backto-comp_arc_sta__baselibs__utils" style="stroke:#181818;stroke-width:1;"/><polygon fill="#181818" points="4390.27,198.75,4394.7459,207.523,4394.1553,201.8971,4399.7813,201.3065,4390.27,198.75" style="stroke:#181818;stroke-width:1;"/><text fill="#000000" font-family="sans-serif" font-size="13" lengthAdjust="spacing" textLength="76.9082" x="4447.5" y="241.5669">implements</text></g><!--link Feature_User to logic_arc_int__baselibs__future--><g id="link_Feature_User_logic_arc_int__baselibs__future"><path codeLine="37" d="M3042.49,53.23 C2932.95,74.46 2656.3103,128.0979 2505.5603,157.3279 " fill="transparent" id="Feature_User-to-logic_arc_int__baselibs__future" style="stroke:#181818;stroke-width:1;"/><polygon fill="#181818" points="2499.67,158.47,2509.2669,160.6837,2504.5786,157.5182,2507.744,152.83,2499.67,158.47" style="stroke:#181818;stroke-width:1;"/><text fill="#000000" font-family="sans-serif" font-size="13" lengthAdjust="spacing" textLength="23.0103" x="2725.5" y="124.5669">use</text></g><!--reverse link logic_arc_int__baselibs__json to comp_arc_sta__baselibs__json--><g id="link_logic_arc_int__baselibs__json_comp_arc_sta__baselibs__json"><path codeLine="38" d="M3398.379,204.7464 C3399.119,225.9764 3400.09,253.94 3400.83,275.19 " fill="transparent" id="logic_arc_int__baselibs__json-backto-comp_arc_sta__baselibs__json" style="stroke:#181818;stroke-width:1;"/><polygon fill="#181818" points="3398.17,198.75,3394.4859,207.8839,3398.3442,203.747,3402.4811,207.6052,3398.17,198.75" style="stroke:#181818;stroke-width:1;"/><text fill="#000000" font-family="sans-serif" font-size="13" lengthAdjust="spacing" textLength="76.9082" x="3401.5" y="241.5669">implements</text></g><!--reverse link logic_arc_int__baselibs__memory_shared to comp_arc_sta__baselibs__memory_shared--><g id="link_logic_arc_int__baselibs__memory_shared_comp_arc_sta__baselibs__memory_shared"><path codeLine="39" d="M3086.4002,204.7444 C3085.4802,225.9744 3084.26,253.94 3083.34,275.19 " fill="transparent" id="logic_arc_int__baselibs__memory_shared-backto-comp_arc_sta__baselibs__memory_shared" style="stroke:#181818;stroke-width:1;"/><polygon fill="#181818" points="3086.66,198.75,3082.2741,207.5684,3086.4435,203.7453,3090.2666,207.9147,3086.66,198.75" style="stroke:#181818;stroke-width:1;"/><text fill="#000000" font-family="sans-serif" font-size="13" lengthAdjust="spacing" textLength="76.9082" x="3086.5" y="241.5669">implements</text></g><!--link Feature_User to logic_arc_int__baselibs__intrusive_list--><g id="link_Feature_User_logic_arc_int__baselibs__intrusive_list"><path codeLine="40" d="M3132.7,54.39 C3233.36,76.41 3471.5386,128.5079 3602.7486,157.2079 " fill="transparent" id="Feature_User-to-logic_arc_int__baselibs__intrusive_list" style="stroke:#181818;stroke-width:1;"/><polygon fill="#181818" points="3608.61,158.49,3600.6726,152.6593,3603.7255,157.4216,3598.9631,160.4745,3608.61,158.49" style="stroke:#181818;stroke-width:1;"/><text fill="#000000" font-family="sans-serif" font-size="13" lengthAdjust="spacing" textLength="23.0103" x="3465.5" y="124.5669">use</text></g><!--reverse link logic_arc_int__baselibs__promise to comp_arc_sta__baselibs__concurrency--><g id="link_logic_arc_int__baselibs__promise_comp_arc_sta__baselibs__concurrency"><path codeLine="41" d="M1566.0993,202.8832 C1588.4393,224.1132 1619.82,253.94 1642.18,275.19 " fill="transparent" id="logic_arc_int__baselibs__promise-backto-comp_arc_sta__baselibs__concurrency" style="stroke:#181818;stroke-width:1;"/><polygon fill="#181818" points="1561.75,198.75,1565.5185,207.8494,1565.3744,202.1943,1571.0294,202.0503,1561.75,198.75" style="stroke:#181818;stroke-width:1;"/><text fill="#000000" font-family="sans-serif" font-size="13" lengthAdjust="spacing" textLength="76.9082" x="1610.5" y="241.5669">implements</text></g><!--link Feature_User to logic_arc_int__baselibs__json--><g id="link_Feature_User_logic_arc_int__baselibs__json"><path codeLine="42" d="M3132.58,63.84 C3191.6,89.16 3288.936,130.9244 3347.606,156.0944 " fill="transparent" id="Feature_User-to-logic_arc_int__baselibs__json" style="stroke:#181818;stroke-width:1;"/><polygon fill="#181818" points="3353.12,158.46,3346.426,151.2357,3348.525,156.4887,3343.272,158.5877,3353.12,158.46" style="stroke:#181818;stroke-width:1;"/><text fill="#000000" font-family="sans-serif" font-size="13" lengthAdjust="spacing" textLength="23.0103" x="3280.5" y="124.5669">use</text></g><!--reverse link logic_arc_int__baselibs__synchronized_queue to comp_arc_sta__baselibs__concurrency--><g id="link_logic_arc_int__baselibs__synchronized_queue_comp_arc_sta__baselibs__concurrency"><path codeLine="43" d="M720.652,199.2044 C840.612,212.7744 1000.52,230.51 1146.5,245.5 C1269.58,258.14 1409.31,271.33 1512.29,280.84 " fill="transparent" id="logic_arc_int__baselibs__synchronized_queue-backto-comp_arc_sta__baselibs__concurrency" style="stroke:#181818;stroke-width:1;"/><polygon fill="#181818" points="714.69,198.53,723.1833,203.5163,719.6583,199.092,724.0826,195.567,714.69,198.53" style="stroke:#181818;stroke-width:1;"/><text fill="#000000" font-family="sans-serif" font-size="13" lengthAdjust="spacing" textLength="76.9082" x="1147.5" y="241.5669">implements</text></g><!--link Feature_User to logic_arc_int__baselibs__dynamic_array--><g id="link_Feature_User_logic_arc_int__baselibs__dynamic_array"><path codeLine="44" d="M3132.71,50.87 C3269.19,70.1 3674.8587,127.2529 3890.4887,157.6329 " fill="transparent" id="Feature_User-to-logic_arc_int__baselibs__dynamic_array" style="stroke:#181818;stroke-width:1;"/><polygon fill="#181818" points="3896.43,158.47,3888.0761,153.2535,3891.4789,157.7724,3886.96,161.1753,3896.43,158.47" style="stroke:#181818;stroke-width:1;"/><text fill="#000000" font-family="sans-serif" font-size="13" lengthAdjust="spacing" textLength="23.0103" x="3673.5" y="124.5669">use</text></g><!--reverse link logic_arc_int__baselibs__condition_variable to comp_arc_sta__baselibs__concurrency--><g id="link_logic_arc_int__baselibs__condition_variable_comp_arc_sta__baselibs__concurrency"><path codeLine="45" d="M2574.0079,199.2569 C2465.2479,213.0869 2319.2,231.08 2185.5,245.5 C2059.92,259.04 1917.14,272.27 1812.53,281.57 " fill="transparent" id="logic_arc_int__baselibs__condition_variable-backto-comp_arc_sta__baselibs__concurrency" style="stroke:#181818;stroke-width:1;"/><polygon fill="#181818" points="2579.96,198.5,2570.5273,195.6673,2574.9999,199.1307,2571.5365,203.6034,2579.96,198.5" style="stroke:#181818;stroke-width:1;"/><text fill="#000000" font-family="sans-serif" font-size="13" lengthAdjust="spacing" textLength="76.9082" x="2335.5" y="241.5669">implements</text></g><!--link Feature_User to logic_arc_int__baselibs__utils_scoped_op--><g id="link_Feature_User_logic_arc_int__baselibs__utils_scoped_op"><path codeLine="46" d="M3132.7,47.6 C3310.6,59.9 3979.73,107.1 4529.5,158.5 C4535.47,159.06 4535.5784,159.0565 4541.7184,159.6565 " fill="transparent" id="Feature_User-to-logic_arc_int__baselibs__utils_scoped_op" style="stroke:#181818;stroke-width:1;"/><polygon fill="#181818" points="4547.69,160.24,4539.1217,155.3837,4542.7137,159.7537,4538.3436,163.3457,4547.69,160.24" style="stroke:#181818;stroke-width:1;"/><text fill="#000000" font-family="sans-serif" font-size="13" lengthAdjust="spacing" textLength="23.0103" x="4175.5" y="124.5669">use</text></g><!--reverse link logic_arc_int__baselibs__future to comp_arc_sta__baselibs__concurrency--><g id="link_logic_arc_int__baselibs__future_comp_arc_sta__baselibs__concurrency"><path codeLine="47" d="M2283.0425,199.5316 C2202.4825,213.0316 2097.35,230.35 1999.5,245.5 C1933.04,255.79 1859.11,266.61 1797.46,275.45 " fill="transparent" id="logic_arc_int__baselibs__future-backto-comp_arc_sta__baselibs__concurrency" style="stroke:#181818;stroke-width:1;"/><polygon fill="#181818" points="2288.96,198.54,2279.4227,196.0825,2284.0288,199.3664,2280.7449,203.9724,2288.96,198.54" style="stroke:#181818;stroke-width:1;"/><text fill="#000000" font-family="sans-serif" font-size="13" lengthAdjust="spacing" textLength="76.9082" x="2100.5" y="241.5669">implements</text></g><!--reverse link logic_arc_int__baselibs__dynamic_array to comp_arc_sta__baselibs__containers--><g id="link_logic_arc_int__baselibs__dynamic_array_comp_arc_sta__baselibs__containers"><path codeLine="48" d="M3984.489,201.1274 C3938.249,222.3974 3869.44,254.05 3823.16,275.34 " fill="transparent" id="logic_arc_int__baselibs__dynamic_array-backto-comp_arc_sta__baselibs__containers" style="stroke:#181818;stroke-width:1;"/><polygon fill="#181818" points="3989.94,198.62,3980.092,198.7471,3985.3975,200.7095,3983.4352,206.0151,3989.94,198.62" style="stroke:#181818;stroke-width:1;"/><text fill="#000000" font-family="sans-serif" font-size="13" lengthAdjust="spacing" textLength="76.9082" x="3922.5" y="241.5669">implements</text></g><!--reverse link logic_arc_int__baselibs__message_passing to comp_arc_sta__baselibs__message_passing--><g id="link_logic_arc_int__baselibs__message_passing_comp_arc_sta__baselibs__message_passing"><path codeLine="49" d="M175.5,204.75 C175.5,225.98 175.5,253.94 175.5,275.19 " fill="transparent" id="logic_arc_int__baselibs__message_passing-backto-comp_arc_sta__baselibs__message_passing" style="stroke:#181818;stroke-width:1;"/><polygon fill="#181818" points="175.5,198.75,171.5,207.75,175.5,203.75,179.5,207.75,175.5,198.75" style="stroke:#181818;stroke-width:1;"/><text fill="#000000" font-family="sans-serif" font-size="13" lengthAdjust="spacing" textLength="76.9082" x="176.5" y="241.5669">implements</text></g><!--reverse link logic_arc_int__baselibs__task to comp_arc_sta__baselibs__concurrency--><g id="link_logic_arc_int__baselibs__task_comp_arc_sta__baselibs__concurrency"><path codeLine="50" d="M1792.4875,202.2232 C1762.4975,223.5132 1719.35,254.14 1689.43,275.38 " fill="transparent" id="logic_arc_int__baselibs__task-backto-comp_arc_sta__baselibs__concurrency" style="stroke:#181818;stroke-width:1;"/><polygon fill="#181818" points="1797.38,198.75,1787.7257,200.6981,1793.3029,201.6443,1792.3567,207.2215,1797.38,198.75" style="stroke:#181818;stroke-width:1;"/><text fill="#000000" font-family="sans-serif" font-size="13" lengthAdjust="spacing" textLength="76.9082" x="1754.5" y="241.5669">implements</text></g><!--link Feature_User to logic_arc_int__baselibs__task--><g id="link_Feature_User_logic_arc_int__baselibs__task"><path codeLine="51" d="M3042.25,48.41 C2889.51,61.75 2378.97,107.48 1958.5,158.5 C1953.02,159.17 1953.3605,159.1012 1947.7105,159.8312 " fill="transparent" id="Feature_User-to-logic_arc_int__baselibs__task" style="stroke:#181818;stroke-width:1;"/><polygon fill="#181818" points="1941.76,160.6,1951.1984,163.4138,1946.7188,159.9593,1950.1733,155.4797,1941.76,160.6" style="stroke:#181818;stroke-width:1;"/><text fill="#000000" font-family="sans-serif" font-size="13" lengthAdjust="spacing" textLength="23.0103" x="2363.5" y="124.5669">use</text></g><!--reverse link logic_arc_int__baselibs__executor to comp_arc_sta__baselibs__concurrency--><g id="link_logic_arc_int__baselibs__executor_comp_arc_sta__baselibs__concurrency"><path codeLine="52" d="M2029.6292,200.045 C1946.8792,221.335 1819.51,254.11 1736.71,275.41 " fill="transparent" id="logic_arc_int__baselibs__executor-backto-comp_arc_sta__baselibs__concurrency" style="stroke:#181818;stroke-width:1;"/><polygon fill="#181818" points="2035.44,198.55,2025.7272,196.9187,2030.5977,199.7958,2027.7205,204.6663,2035.44,198.55" style="stroke:#181818;stroke-width:1;"/><text fill="#000000" font-family="sans-serif" font-size="13" lengthAdjust="spacing" textLength="76.9082" x="1914.5" y="241.5669">implements</text></g><!--SRC=[hPOzRzmm38Pt_meX-wL5KNG8WYm5EdLiPu6McJis-d15AerRzBzNFb-Iitk9puf7sIJra7mf2QmDlxIZ1_BRIaAh9AWwY0Id6efeX8AlTjIWOi68GReMXpMwLZe58f7g9CZLDKjdyQQw12PRgp_LL_BuETWGLSHcl_gs8tFdaLbzk7nV_QsktnryAZ2IxIw-84YAgBupnWi5h0uVTFz1LIQuLaCqcWMqhe7HKirQc-05Slp8QfCsDyg6BPcz8NavDipBc9ZkKLjYkLBaMeiElR2gHbjjcjV2vFqQwakZxo4Ir1QlL69y6J0Y9oipS8FH66e95NVUx6Bmz1iR_JDXUgHQ4AEDmH4NEF8ESfVrRUeTbhlVaaNkiiRSSb-N1GLRr2qmPnal3o30Tq_LN-eyydkf_pM9Tk2fJHPwtSmeOJ3FKA7527aoYfKwtNXvVad8ydxzwUDoxnEPl5gePntCbEXOC8MrmGSqQHuf3xj9CQ8ttGpJI4V7K6yFFHclmemTkX2xGx2PjFTzdw4QjC4cDxV97JulwQ9PE5RmEPkSJ_-exCAIZWwybsX-y6oQlSbvgOsQE1Drql327AUtvahZydJN568D9Li9vjJbMSZLT1xS_bU4RZN0Ks-EGi3_ndObn5EdqvkVR9DgdZSXemV1x8nCdW_hdjpzfL3SgS5vfVOyttV7DFy0]--></g></svg>