<svg xmlns="http://www.w3.org/2000/svg" xmlns:xlink="http://www.w3.org/1999/xlink" contentStyleType="text/css" data-diagram-type="CLASS" height="322px" preserveAspectRatio="none" style="width:6208px;height:322px;background:#FFFFFF;" version="1.1" viewBox="0 0 6208 322" width="6208px" zoomAndPan="magnify"><defs/><g><!--entity Feature_User--><g id="elem_Feature_User"><ellipse cx="3302.6685" cy="14" fill="#F1F1F1" rx="8" ry="8" style="stroke:#181818;stroke-width:0.5;"/><path d="M3302.6685,22 L3302.6685,49 M3289.6685,30 L3315.6685,30 M3302.6685,49 L3289.6685,64 M3302.6685,49 L3315.6685,64 " fill="transparent" style="stroke:#181818;stroke-width:0.5;"/><text fill="#000000" font-family="sans-serif" font-size="14" lengthAdjust="spacing" textLength="90.3369" x="3257.5" y="78.4951">Feature User</text></g><!--class logic_arc_int__baselibs__utils_scoped_op--><g id="elem_logic_arc_int__baselibs__utils_scoped_op"><rect fill="#F1F1F1" height="40" id="logic_arc_int__baselibs__utils_scoped_op" rx="2.5" ry="2.5" style="stroke:#181818;stroke-width:0.5;" width="315.377" x="2101" y="158.5"/><ellipse cx="2116" cy="174.5" fill="#ADD1B2" rx="11" ry="11" style="stroke:#181818;stroke-width:1;"/><path d="M2118.9688,180.1406 Q2118.3906,180.4375 2117.75,180.5781 Q2117.1094,180.7344 2116.4063,180.7344 Q2113.9063,180.7344 2112.5781,179.0938 Q2111.2656,177.4375 2111.2656,174.3125 Q2111.2656,171.1875 2112.5781,169.5313 Q2113.9063,167.875 2116.4063,167.875 Q2117.1094,167.875 2117.75,168.0313 Q2118.4063,168.1875 2118.9688,168.4844 L2118.9688,171.2031 Q2118.3438,170.625 2117.75,170.3594 Q2117.1563,170.0781 2116.5313,170.0781 Q2115.1875,170.0781 2114.5,171.1563 Q2113.8125,172.2188 2113.8125,174.3125 Q2113.8125,176.4063 2114.5,177.4844 Q2115.1875,178.5469 2116.5313,178.5469 Q2117.1563,178.5469 2117.75,178.2813 Q2118.3438,178 2118.9688,177.4219 L2118.9688,180.1406 Z " fill="#000000"/><text fill="#000000" font-family="sans-serif" font-size="14" lengthAdjust="spacing" textLength="283.377" x="2130" y="179.3467">logic_arc_int__baselibs__utils_scoped_op</text><line style="stroke:#181818;stroke-width:0.5;" x1="2102" x2="2415.377" y1="190.5" y2="190.5"/></g><!--class comp_arc_sta__baselibs__json--><g id="elem_comp_arc_sta__baselibs__json"><rect fill="#F1F1F1" height="40" id="comp_arc_sta__baselibs__json" rx="2.5" ry="2.5" style="stroke:#181818;stroke-width:0.5;" width="242.1367" x="5959.5" y="275.5"/><ellipse cx="5974.5" cy="291.5" fill="#ADD1B2" rx="11" ry="11" style="stroke:#181818;stroke-width:1;"/><path d="M5977.4688,297.1406 Q5976.8906,297.4375 5976.25,297.5781 Q5975.6094,297.7344 5974.9063,297.7344 Q5972.4063,297.7344 5971.0781,296.0938 Q5969.7656,294.4375 5969.7656,291.3125 Q5969.7656,288.1875 5971.0781,286.5313 Q5972.4063,284.875 5974.9063,284.875 Q5975.6094,284.875 5976.25,285.0313 Q5976.9063,285.1875 5977.4688,285.4844 L5977.4688,288.2031 Q5976.8438,287.625 5976.25,287.3594 Q5975.6563,287.0781 5975.0313,287.0781 Q5973.6875,287.0781 5973,288.1563 Q5972.3125,289.2188 5972.3125,291.3125 Q5972.3125,293.4063 5973,294.4844 Q5973.6875,295.5469 5975.0313,295.5469 Q5975.6563,295.5469 5976.25,295.2813 Q5976.8438,295 5977.4688,294.4219 L5977.4688,297.1406 Z " fill="#000000"/><text fill="#000000" font-family="sans-serif" font-size="14" lengthAdjust="spacing" textLength="210.1367" x="5988.5" y="296.3467">comp_arc_sta__baselibs__json</text><line style="stroke:#181818;stroke-width:0.5;" x1="5960.5" x2="6200.6367" y1="307.5" y2="307.5"/></g><!--class logic_arc_int__baselibs__json--><g id="elem_logic_arc_int__baselibs__json"><rect fill="#F1F1F1" height="40" id="logic_arc_int__baselibs__json" rx="2.5" ry="2.5" style="stroke:#181818;stroke-width:0.5;" width="233.168" x="5959" y="158.5"/><ellipse cx="5974" cy="174.5" fill="#ADD1B2" rx="11" ry="11" style="stroke:#181818;stroke-width:1;"/><path d="M5976.9688,180.1406 Q5976.3906,180.4375 5975.75,180.5781 Q5975.1094,180.7344 5974.4063,180.7344 Q5971.9063,180.7344 5970.5781,179.0938 Q5969.2656,177.4375 5969.2656,174.3125 Q5969.2656,171.1875 5970.5781,169.5313 Q5971.9063,167.875 5974.4063,167.875 Q5975.1094,167.875 5975.75,168.0313 Q5976.4063,168.1875 5976.9688,168.4844 L5976.9688,171.2031 Q5976.3438,170.625 5975.75,170.3594 Q5975.1563,170.0781 5974.5313,170.0781 Q5973.1875,170.0781 5972.5,171.1563 Q5971.8125,172.2188 5971.8125,174.3125 Q5971.8125,176.4063 5972.5,177.4844 Q5973.1875,178.5469 5974.5313,178.5469 Q5975.1563,178.5469 5975.75,178.2813 Q5976.3438,178 5976.9688,177.4219 L5976.9688,180.1406 Z " fill="#000000"/><text fill="#000000" font-family="sans-serif" font-size="14" lengthAdjust="spacing" textLength="201.168" x="5988" y="179.3467">logic_arc_int__baselibs__json</text><line style="stroke:#181818;stroke-width:0.5;" x1="5960" x2="6191.168" y1="190.5" y2="190.5"/></g><!--class logic_arc_int__baselibs__intrusive_list--><g id="elem_logic_arc_int__baselibs__intrusive_list"><rect fill="#F1F1F1" height="40" id="logic_arc_int__baselibs__intrusive_list" rx="2.5" ry="2.5" style="stroke:#181818;stroke-width:0.5;" width="293.0713" x="718" y="158.5"/><ellipse cx="733" cy="174.5" fill="#ADD1B2" rx="11" ry="11" style="stroke:#181818;stroke-width:1;"/><path d="M735.9688,180.1406 Q735.3906,180.4375 734.75,180.5781 Q734.1094,180.7344 733.4063,180.7344 Q730.9063,180.7344 729.5781,179.0938 Q728.2656,177.4375 728.2656,174.3125 Q728.2656,171.1875 729.5781,169.5313 Q730.9063,167.875 733.4063,167.875 Q734.1094,167.875 734.75,168.0313 Q735.4063,168.1875 735.9688,168.4844 L735.9688,171.2031 Q735.3438,170.625 734.75,170.3594 Q734.1563,170.0781 733.5313,170.0781 Q732.1875,170.0781 731.5,171.1563 Q730.8125,172.2188 730.8125,174.3125 Q730.8125,176.4063 731.5,177.4844 Q732.1875,178.5469 733.5313,178.5469 Q734.1563,178.5469 734.75,178.2813 Q735.3438,178 735.9688,177.4219 L735.9688,180.1406 Z " fill="#000000"/><text fill="#000000" font-family="sans-serif" font-size="14" lengthAdjust="spacing" textLength="261.0713" x="747" y="179.3467">logic_arc_int__baselibs__intrusive_list</text><line style="stroke:#181818;stroke-width:0.5;" x1="719" x2="1010.0713" y1="190.5" y2="190.5"/></g><!--class comp_arc_sta__baselibs__filesystem--><g id="elem_comp_arc_sta__baselibs__filesystem"><rect fill="#F1F1F1" height="40" id="comp_arc_sta__baselibs__filesystem" rx="2.5" ry="2.5" style="stroke:#181818;stroke-width:0.5;" width="285.4492" x="5639" y="275.5"/><ellipse cx="5654" cy="291.5" fill="#ADD1B2" rx="11" ry="11" style="stroke:#181818;stroke-width:1;"/><path d="M5656.9688,297.1406 Q5656.3906,297.4375 5655.75,297.5781 Q5655.1094,297.7344 5654.4063,297.7344 Q5651.9063,297.7344 5650.5781,296.0938 Q5649.2656,294.4375 5649.2656,291.3125 Q5649.2656,288.1875 5650.5781,286.5313 Q5651.9063,284.875 5654.4063,284.875 Q5655.1094,284.875 5655.75,285.0313 Q5656.4063,285.1875 5656.9688,285.4844 L5656.9688,288.2031 Q5656.3438,287.625 5655.75,287.3594 Q5655.1563,287.0781 5654.5313,287.0781 Q5653.1875,287.0781 5652.5,288.1563 Q5651.8125,289.2188 5651.8125,291.3125 Q5651.8125,293.4063 5652.5,294.4844 Q5653.1875,295.5469 5654.5313,295.5469 Q5655.1563,295.5469 5655.75,295.2813 Q5656.3438,295 5656.9688,294.4219 L5656.9688,297.1406 Z " fill="#000000"/><text fill="#000000" font-family="sans-serif" font-size="14" lengthAdjust="spacing" textLength="253.4492" x="5668" y="296.3467">comp_arc_sta__baselibs__filesystem</text><line style="stroke:#181818;stroke-width:0.5;" x1="5640" x2="5923.4492" y1="307.5" y2="307.5"/></g><!--class logic_arc_int__baselibs__filesystem--><g id="elem_logic_arc_int__baselibs__filesystem"><rect fill="#F1F1F1" height="40" id="logic_arc_int__baselibs__filesystem" rx="2.5" ry="2.5" style="stroke:#181818;stroke-width:0.5;" width="276.4805" x="5641.5" y="158.5"/><ellipse cx="5656.5" cy="174.5" fill="#ADD1B2" rx="11" ry="11" style="stroke:#181818;stroke-width:1;"/><path d="M5659.4688,180.1406 Q5658.8906,180.4375 5658.25,180.5781 Q5657.6094,180.7344 5656.9063,180.7344 Q5654.4063,180.7344 5653.0781,179.0938 Q5651.7656,177.4375 5651.7656,174.3125 Q5651.7656,171.1875 5653.0781,169.5313 Q5654.4063,167.875 5656.9063,167.875 Q5657.6094,167.875 5658.25,168.0313 Q5658.9063,168.1875 5659.4688,168.4844 L5659.4688,171.2031 Q5658.8438,170.625 5658.25,170.3594 Q5657.6563,170.0781 5657.0313,170.0781 Q5655.6875,170.0781 5655,171.1563 Q5654.3125,172.2188 5654.3125,174.3125 Q5654.3125,176.4063 5655,177.4844 Q5655.6875,178.5469 5657.0313,178.5469 Q5657.6563,178.5469 5658.25,178.2813 Q5658.8438,178 5659.4688,177.4219 L5659.4688,180.1406 Z " fill="#000000"/><text fill="#000000" font-family="sans-serif" font-size="14" lengthAdjust="spacing" textLength="244.4805" x="5670.5" y="179.3467">logic_arc_int__baselibs__filesystem</text><line style="stroke:#181818;stroke-width:0.5;" x1="5642.5" x2="5916.9805" y1="190.5" y2="190.5"/></g><!--class logic_arc_int__baselibs__promise--><g id="elem_logic_arc_int__baselibs__promise"><rect fill="#F1F1F1" height="40" id="logic_arc_int__baselibs__promise" rx="2.5" ry="2.5" style="stroke:#181818;stroke-width:0.5;" width="261.1885" x="4709" y="158.5"/><ellipse cx="4724" cy="174.5" fill="#ADD1B2" rx="11" ry="11" style="stroke:#181818;stroke-width:1;"/><path d="M4726.9688,180.1406 Q4726.3906,180.4375 4725.75,180.5781 Q4725.1094,180.7344 4724.4063,180.7344 Q4721.9063,180.7344 4720.5781,179.0938 Q4719.2656,177.4375 4719.2656,174.3125 Q4719.2656,171.1875 4720.5781,169.5313 Q4721.9063,167.875 4724.4063,167.875 Q4725.1094,167.875 4725.75,168.0313 Q4726.4063,168.1875 4726.9688,168.4844 L4726.9688,171.2031 Q4726.3438,170.625 4725.75,170.3594 Q4725.1563,170.0781 4724.5313,170.0781 Q4723.1875,170.0781 4722.5,171.1563 Q4721.8125,172.2188 4721.8125,174.3125 Q4721.8125,176.4063 4722.5,177.4844 Q4723.1875,178.5469 4724.5313,178.5469 Q4725.1563,178.5469 4725.75,178.2813 Q4726.3438,178 4726.9688,177.4219 L4726.9688,180.1406 Z " fill="#000000"/><text fill="#000000" font-family="sans-serif" font-size="14" lengthAdjust="spacing" textLength="229.1885" x="4738" y="179.3467">logic_arc_int__baselibs__promise</text><line style="stroke:#181818;stroke-width:0.5;" x1="4710" x2="4969.1885" y1="190.5" y2="190.5"/></g><!--class comp_arc_sta__baselibs__result--><g id="elem_comp_arc_sta__baselibs__result"><rect fill="#F1F1F1" height="40" id="comp_arc_sta__baselibs__result" rx="2.5" ry="2.5" style="stroke:#181818;stroke-width:0.5;" width="253.4297" x="5351" y="275.5"/><ellipse cx="5366" cy="291.5" fill="#ADD1B2" rx="11" ry="11" style="stroke:#181818;stroke-width:1;"/><path d="M5368.9688,297.1406 Q5368.3906,297.4375 5367.75,297.5781 Q5367.1094,297.7344 5366.4063,297.7344 Q5363.9063,297.7344 5362.5781,296.0938 Q5361.2656,294.4375 5361.2656,291.3125 Q5361.2656,288.1875 5362.5781,286.5313 Q5363.9063,284.875 5366.4063,284.875 Q5367.1094,284.875 5367.75,285.0313 Q5368.4063,285.1875 5368.9688,285.4844 L5368.9688,288.2031 Q5368.3438,287.625 5367.75,287.3594 Q5367.1563,287.0781 5366.5313,287.0781 Q5365.1875,287.0781 5364.5,288.1563 Q5363.8125,289.2188 5363.8125,291.3125 Q5363.8125,293.4063 5364.5,294.4844 Q5365.1875,295.5469 5366.5313,295.5469 Q5367.1563,295.5469 5367.75,295.2813 Q5368.3438,295 5368.9688,294.4219 L5368.9688,297.1406 Z " fill="#000000"/><text fill="#000000" font-family="sans-serif" font-size="14" lengthAdjust="spacing" textLength="221.4297" x="5380" y="296.3467">comp_arc_sta__baselibs__result</text><line style="stroke:#181818;stroke-width:0.5;" x1="5352" x2="5603.4297" y1="307.5" y2="307.5"/></g><!--class logic_arc_int__baselibs__result--><g id="elem_logic_arc_int__baselibs__result"><rect fill="#F1F1F1" height="40" id="logic_arc_int__baselibs__result" rx="2.5" ry="2.5" style="stroke:#181818;stroke-width:0.5;" width="244.4609" x="5358.5" y="158.5"/><ellipse cx="5373.5" cy="174.5" fill="#ADD1B2" rx="11" ry="11" style="stroke:#181818;stroke-width:1;"/><path d="M5376.4688,180.1406 Q5375.8906,180.4375 5375.25,180.5781 Q5374.6094,180.7344 5373.9063,180.7344 Q5371.4063,180.7344 5370.0781,179.0938 Q5368.7656,177.4375 5368.7656,174.3125 Q5368.7656,171.1875 5370.0781,169.5313 Q5371.4063,167.875 5373.9063,167.875 Q5374.6094,167.875 5375.25,168.0313 Q5375.9063,168.1875 5376.4688,168.4844 L5376.4688,171.2031 Q5375.8438,170.625 5375.25,170.3594 Q5374.6563,170.0781 5374.0313,170.0781 Q5372.6875,170.0781 5372,171.1563 Q5371.3125,172.2188 5371.3125,174.3125 Q5371.3125,176.4063 5372,177.4844 Q5372.6875,178.5469 5374.0313,178.5469 Q5374.6563,178.5469 5375.25,178.2813 Q5375.8438,178 5376.4688,177.4219 L5376.4688,180.1406 Z " fill="#000000"/><text fill="#000000" font-family="sans-serif" font-size="14" lengthAdjust="spacing" textLength="212.4609" x="5387.5" y="179.3467">logic_arc_int__baselibs__result</text><line style="stroke:#181818;stroke-width:0.5;" x1="5359.5" x2="5601.9609" y1="190.5" y2="190.5"/></g><!--class logic_arc_int__baselibs__task--><g id="elem_logic_arc_int__baselibs__task"><rect fill="#F1F1F1" height="40" id="logic_arc_int__baselibs__task" rx="2.5" ry="2.5" style="stroke:#181818;stroke-width:0.5;" width="234.0156" x="3841.5" y="158.5"/><ellipse cx="3856.5" cy="174.5" fill="#ADD1B2" rx="11" ry="11" style="stroke:#181818;stroke-width:1;"/><path d="M3859.4688,180.1406 Q3858.8906,180.4375 3858.25,180.5781 Q3857.6094,180.7344 3856.9063,180.7344 Q3854.4063,180.7344 3853.0781,179.0938 Q3851.7656,177.4375 3851.7656,174.3125 Q3851.7656,171.1875 3853.0781,169.5313 Q3854.4063,167.875 3856.9063,167.875 Q3857.6094,167.875 3858.25,168.0313 Q3858.9063,168.1875 3859.4688,168.4844 L3859.4688,171.2031 Q3858.8438,170.625 3858.25,170.3594 Q3857.6563,170.0781 3857.0313,170.0781 Q3855.6875,170.0781 3855,171.1563 Q3854.3125,172.2188 3854.3125,174.3125 Q3854.3125,176.4063 3855,177.4844 Q3855.6875,178.5469 3857.0313,178.5469 Q3857.6563,178.5469 3858.25,178.2813 Q3858.8438,178 3859.4688,177.4219 L3859.4688,180.1406 Z " fill="#000000"/><text fill="#000000" font-family="sans-serif" font-size="14" lengthAdjust="spacing" textLength="202.0156" x="3870.5" y="179.3467">logic_arc_int__baselibs__task</text><line style="stroke:#181818;stroke-width:0.5;" x1="3842.5" x2="4074.5156" y1="190.5" y2="190.5"/></g><!--class logic_arc_int__baselibs__synchronized_queue--><g id="elem_logic_arc_int__baselibs__synchronized_queue"><rect fill="#F1F1F1" height="40" id="logic_arc_int__baselibs__synchronized_queue" rx="2.5" ry="2.5" style="stroke:#181818;stroke-width:0.5;" width="348.3604" x="2451.5" y="158.5"/><ellipse cx="2466.5" cy="174.5" fill="#ADD1B2" rx="11" ry="11" style="stroke:#181818;stroke-width:1;"/><path d="M2469.4688,180.1406 Q2468.8906,180.4375 2468.25,180.5781 Q2467.6094,180.7344 2466.9063,180.7344 Q2464.4063,180.7344 2463.0781,179.0938 Q2461.7656,177.4375 2461.7656,174.3125 Q2461.7656,171.1875 2463.0781,169.5313 Q2464.4063,167.875 2466.9063,167.875 Q2467.6094,167.875 2468.25,168.0313 Q2468.9063,168.1875 2469.4688,168.4844 L2469.4688,171.2031 Q2468.8438,170.625 2468.25,170.3594 Q2467.6563,170.0781 2467.0313,170.0781 Q2465.6875,170.0781 2465,171.1563 Q2464.3125,172.2188 2464.3125,174.3125 Q2464.3125,176.4063 2465,177.4844 Q2465.6875,178.5469 2467.0313,178.5469 Q2467.6563,178.5469 2468.25,178.2813 Q2468.8438,178 2469.4688,177.4219 L2469.4688,180.1406 Z " fill="#000000"/><text fill="#000000" font-family="sans-serif" font-size="14" lengthAdjust="spacing" textLength="316.3604" x="2480.5" y="179.3467">logic_arc_int__baselibs__synchronized_queue</text><line style="stroke:#181818;stroke-width:0.5;" x1="2452.5" x2="2798.8604" y1="190.5" y2="190.5"/></g><!--class comp_arc_sta__baselibs__concurrency--><g id="elem_comp_arc_sta__baselibs__concurrency"><rect fill="#F1F1F1" height="40" id="comp_arc_sta__baselibs__concurrency" rx="2.5" ry="2.5" style="stroke:#181818;stroke-width:0.5;" width="300.2012" x="3611.5" y="275.5"/><ellipse cx="3626.5" cy="291.5" fill="#ADD1B2" rx="11" ry="11" style="stroke:#181818;stroke-width:1;"/><path d="M3629.4688,297.1406 Q3628.8906,297.4375 3628.25,297.5781 Q3627.6094,297.7344 3626.9063,297.7344 Q3624.4063,297.7344 3623.0781,296.0938 Q3621.7656,294.4375 3621.7656,291.3125 Q3621.7656,288.1875 3623.0781,286.5313 Q3624.4063,284.875 3626.9063,284.875 Q3627.6094,284.875 3628.25,285.0313 Q3628.9063,285.1875 3629.4688,285.4844 L3629.4688,288.2031 Q3628.8438,287.625 3628.25,287.3594 Q3627.6563,287.0781 3627.0313,287.0781 Q3625.6875,287.0781 3625,288.1563 Q3624.3125,289.2188 3624.3125,291.3125 Q3624.3125,293.4063 3625,294.4844 Q3625.6875,295.5469 3627.0313,295.5469 Q3627.6563,295.5469 3628.25,295.2813 Q3628.8438,295 3629.4688,294.4219 L3629.4688,297.1406 Z " fill="#000000"/><text fill="#000000" font-family="sans-serif" font-size="14" lengthAdjust="spacing" textLength="268.2012" x="3640.5" y="296.3467">comp_arc_sta__baselibs__concurrency</text><line style="stroke:#181818;stroke-width:0.5;" x1="3612.5" x2="3910.7012" y1="307.5" y2="307.5"/></g><!--class logic_arc_int__baselibs__task_result--><g id="elem_logic_arc_int__baselibs__task_result"><rect fill="#F1F1F1" height="40" id="logic_arc_int__baselibs__task_result" rx="2.5" ry="2.5" style="stroke:#181818;stroke-width:0.5;" width="280.9307" x="4111" y="158.5"/><ellipse cx="4126" cy="174.5" fill="#ADD1B2" rx="11" ry="11" style="stroke:#181818;stroke-width:1;"/><path d="M4128.9688,180.1406 Q4128.3906,180.4375 4127.75,180.5781 Q4127.1094,180.7344 4126.4063,180.7344 Q4123.9063,180.7344 4122.5781,179.0938 Q4121.2656,177.4375 4121.2656,174.3125 Q4121.2656,171.1875 4122.5781,169.5313 Q4123.9063,167.875 4126.4063,167.875 Q4127.1094,167.875 4127.75,168.0313 Q4128.4063,168.1875 4128.9688,168.4844 L4128.9688,171.2031 Q4128.3438,170.625 4127.75,170.3594 Q4127.1563,170.0781 4126.5313,170.0781 Q4125.1875,170.0781 4124.5,171.1563 Q4123.8125,172.2188 4123.8125,174.3125 Q4123.8125,176.4063 4124.5,177.4844 Q4125.1875,178.5469 4126.5313,178.5469 Q4127.1563,178.5469 4127.75,178.2813 Q4128.3438,178 4128.9688,177.4219 L4128.9688,180.1406 Z " fill="#000000"/><text fill="#000000" font-family="sans-serif" font-size="14" lengthAdjust="spacing" textLength="248.9307" x="4140" y="179.3467">logic_arc_int__baselibs__task_result</text><line style="stroke:#181818;stroke-width:0.5;" x1="4112" x2="4390.9307" y1="190.5" y2="190.5"/></g><!--class comp_arc_sta__baselibs__bit_manipulation--><g id="elem_comp_arc_sta__baselibs__bit_manipulation"><rect fill="#F1F1F1" height="40" id="comp_arc_sta__baselibs__bit_manipulation" rx="2.5" ry="2.5" style="stroke:#181818;stroke-width:0.5;" width="330.8057" x="1169" y="275.5"/><ellipse cx="1184" cy="291.5" fill="#ADD1B2" rx="11" ry="11" style="stroke:#181818;stroke-width:1;"/><path d="M1186.9688,297.1406 Q1186.3906,297.4375 1185.75,297.5781 Q1185.1094,297.7344 1184.4063,297.7344 Q1181.9063,297.7344 1180.5781,296.0938 Q1179.2656,294.4375 1179.2656,291.3125 Q1179.2656,288.1875 1180.5781,286.5313 Q1181.9063,284.875 1184.4063,284.875 Q1185.1094,284.875 1185.75,285.0313 Q1186.4063,285.1875 1186.9688,285.4844 L1186.9688,288.2031 Q1186.3438,287.625 1185.75,287.3594 Q1185.1563,287.0781 1184.5313,287.0781 Q1183.1875,287.0781 1182.5,288.1563 Q1181.8125,289.2188 1181.8125,291.3125 Q1181.8125,293.4063 1182.5,294.4844 Q1183.1875,295.5469 1184.5313,295.5469 Q1185.1563,295.5469 1185.75,295.2813 Q1186.3438,295 1186.9688,294.4219 L1186.9688,297.1406 Z " fill="#000000"/><text fill="#000000" font-family="sans-serif" font-size="14" lengthAdjust="spacing" textLength="298.8057" x="1198" y="296.3467">comp_arc_sta__baselibs__bit_manipulation</text><line style="stroke:#181818;stroke-width:0.5;" x1="1170" x2="1498.8057" y1="307.5" y2="307.5"/></g><!--class logic_arc_int__baselibs__bit_mask_operator--><g id="elem_logic_arc_int__baselibs__bit_mask_operator"><rect fill="#F1F1F1" height="40" id="logic_arc_int__baselibs__bit_mask_operator" rx="2.5" ry="2.5" style="stroke:#181818;stroke-width:0.5;" width="334.6406" x="1046" y="158.5"/><ellipse cx="1061" cy="174.5" fill="#ADD1B2" rx="11" ry="11" style="stroke:#181818;stroke-width:1;"/><path d="M1063.9688,180.1406 Q1063.3906,180.4375 1062.75,180.5781 Q1062.1094,180.7344 1061.4063,180.7344 Q1058.9063,180.7344 1057.5781,179.0938 Q1056.2656,177.4375 1056.2656,174.3125 Q1056.2656,171.1875 1057.5781,169.5313 Q1058.9063,167.875 1061.4063,167.875 Q1062.1094,167.875 1062.75,168.0313 Q1063.4063,168.1875 1063.9688,168.4844 L1063.9688,171.2031 Q1063.3438,170.625 1062.75,170.3594 Q1062.1563,170.0781 1061.5313,170.0781 Q1060.1875,170.0781 1059.5,171.1563 Q1058.8125,172.2188 1058.8125,174.3125 Q1058.8125,176.4063 1059.5,177.4844 Q1060.1875,178.5469 1061.5313,178.5469 Q1062.1563,178.5469 1062.75,178.2813 Q1063.3438,178 1063.9688,177.4219 L1063.9688,180.1406 Z " fill="#000000"/><text fill="#000000" font-family="sans-serif" font-size="14" lengthAdjust="spacing" textLength="302.6406" x="1075" y="179.3467">logic_arc_int__baselibs__bit_mask_operator</text><line style="stroke:#181818;stroke-width:0.5;" x1="1047" x2="1379.6406" y1="190.5" y2="190.5"/></g><!--class comp_arc_sta__baselibs__memory_shared--><g id="elem_comp_arc_sta__baselibs__memory_shared"><rect fill="#F1F1F1" height="40" id="comp_arc_sta__baselibs__memory_shared" rx="2.5" ry="2.5" style="stroke:#181818;stroke-width:0.5;" width="327.0117" x="4989" y="275.5"/><ellipse cx="5004" cy="291.5" fill="#ADD1B2" rx="11" ry="11" style="stroke:#181818;stroke-width:1;"/><path d="M5006.9688,297.1406 Q5006.3906,297.4375 5005.75,297.5781 Q5005.1094,297.7344 5004.4063,297.7344 Q5001.9063,297.7344 5000.5781,296.0938 Q4999.2656,294.4375 4999.2656,291.3125 Q4999.2656,288.1875 5000.5781,286.5313 Q5001.9063,284.875 5004.4063,284.875 Q5005.1094,284.875 5005.75,285.0313 Q5006.4063,285.1875 5006.9688,285.4844 L5006.9688,288.2031 Q5006.3438,287.625 5005.75,287.3594 Q5005.1563,287.0781 5004.5313,287.0781 Q5003.1875,287.0781 5002.5,288.1563 Q5001.8125,289.2188 5001.8125,291.3125 Q5001.8125,293.4063 5002.5,294.4844 Q5003.1875,295.5469 5004.5313,295.5469 Q5005.1563,295.5469 5005.75,295.2813 Q5006.3438,295 5006.9688,294.4219 L5006.9688,297.1406 Z " fill="#000000"/><text fill="#000000" font-family="sans-serif" font-size="14" lengthAdjust="spacing" textLength="295.0117" x="5018" y="296.3467">comp_arc_sta__baselibs__memory_shared</text><line style="stroke:#181818;stroke-width:0.5;" x1="4990" x2="5315.0117" y1="307.5" y2="307.5"/></g><!--class logic_arc_int__baselibs__memory_shared--><g id="elem_logic_arc_int__baselibs__memory_shared"><rect fill="#F1F1F1" height="40" id="logic_arc_int__baselibs__memory_shared" rx="2.5" ry="2.5" style="stroke:#181818;stroke-width:0.5;" width="318.043" x="5005.5" y="158.5"/><ellipse cx="5020.5" cy="174.5" fill="#ADD1B2" rx="11" ry="11" style="stroke:#181818;stroke-width:1;"/><path d="M5023.4688,180.1406 Q5022.8906,180.4375 5022.25,180.5781 Q5021.6094,180.7344 5020.9063,180.7344 Q5018.4063,180.7344 5017.0781,179.0938 Q5015.7656,177.4375 5015.7656,174.3125 Q5015.7656,171.1875 5017.0781,169.5313 Q5018.4063,167.875 5020.9063,167.875 Q5021.6094,167.875 5022.25,168.0313 Q5022.9063,168.1875 5023.4688,168.4844 L5023.4688,171.2031 Q5022.8438,170.625 5022.25,170.3594 Q5021.6563,170.0781 5021.0313,170.0781 Q5019.6875,170.0781 5019,171.1563 Q5018.3125,172.2188 5018.3125,174.3125 Q5018.3125,176.4063 5019,177.4844 Q5019.6875,178.5469 5021.0313,178.5469 Q5021.6563,178.5469 5022.25,178.2813 Q5022.8438,178 5023.4688,177.4219 L5023.4688,180.1406 Z " fill="#000000"/><text fill="#000000" font-family="sans-serif" font-size="14" lengthAdjust="spacing" textLength="286.043" x="5034.5" y="179.3467">logic_arc_int__baselibs__memory_shared</text><line style="stroke:#181818;stroke-width:0.5;" x1="5006.5" x2="5322.543" y1="190.5" y2="190.5"/></g><!--class logic_arc_int__baselibs__shared_future--><g id="elem_logic_arc_int__baselibs__shared_future"><rect fill="#F1F1F1" height="40" id="logic_arc_int__baselibs__shared_future" rx="2.5" ry="2.5" style="stroke:#181818;stroke-width:0.5;" width="302.0811" x="3504.5" y="158.5"/><ellipse cx="3519.5" cy="174.5" fill="#ADD1B2" rx="11" ry="11" style="stroke:#181818;stroke-width:1;"/><path d="M3522.4688,180.1406 Q3521.8906,180.4375 3521.25,180.5781 Q3520.6094,180.7344 3519.9063,180.7344 Q3517.4063,180.7344 3516.0781,179.0938 Q3514.7656,177.4375 3514.7656,174.3125 Q3514.7656,171.1875 3516.0781,169.5313 Q3517.4063,167.875 3519.9063,167.875 Q3520.6094,167.875 3521.25,168.0313 Q3521.9063,168.1875 3522.4688,168.4844 L3522.4688,171.2031 Q3521.8438,170.625 3521.25,170.3594 Q3520.6563,170.0781 3520.0313,170.0781 Q3518.6875,170.0781 3518,171.1563 Q3517.3125,172.2188 3517.3125,174.3125 Q3517.3125,176.4063 3518,177.4844 Q3518.6875,178.5469 3520.0313,178.5469 Q3520.6563,178.5469 3521.25,178.2813 Q3521.8438,178 3522.4688,177.4219 L3522.4688,180.1406 Z " fill="#000000"/><text fill="#000000" font-family="sans-serif" font-size="14" lengthAdjust="spacing" textLength="270.0811" x="3533.5" y="179.3467">logic_arc_int__baselibs__shared_future</text><line style="stroke:#181818;stroke-width:0.5;" x1="3505.5" x2="3805.5811" y1="190.5" y2="190.5"/></g><!--class logic_arc_int__baselibs__condition_variable--><g id="elem_logic_arc_int__baselibs__condition_variable"><rect fill="#F1F1F1" height="40" id="logic_arc_int__baselibs__condition_variable" rx="2.5" ry="2.5" style="stroke:#181818;stroke-width:0.5;" width="332.7539" x="3136" y="158.5"/><ellipse cx="3151" cy="174.5" fill="#ADD1B2" rx="11" ry="11" style="stroke:#181818;stroke-width:1;"/><path d="M3153.9688,180.1406 Q3153.3906,180.4375 3152.75,180.5781 Q3152.1094,180.7344 3151.4063,180.7344 Q3148.9063,180.7344 3147.5781,179.0938 Q3146.2656,177.4375 3146.2656,174.3125 Q3146.2656,171.1875 3147.5781,169.5313 Q3148.9063,167.875 3151.4063,167.875 Q3152.1094,167.875 3152.75,168.0313 Q3153.4063,168.1875 3153.9688,168.4844 L3153.9688,171.2031 Q3153.3438,170.625 3152.75,170.3594 Q3152.1563,170.0781 3151.5313,170.0781 Q3150.1875,170.0781 3149.5,171.1563 Q3148.8125,172.2188 3148.8125,174.3125 Q3148.8125,176.4063 3149.5,177.4844 Q3150.1875,178.5469 3151.5313,178.5469 Q3152.1563,178.5469 3152.75,178.2813 Q3153.3438,178 3153.9688,177.4219 L3153.9688,180.1406 Z " fill="#000000"/><text fill="#000000" font-family="sans-serif" font-size="14" lengthAdjust="spacing" textLength="300.7539" x="3165" y="179.3467">logic_arc_int__baselibs__condition_variable</text><line style="stroke:#181818;stroke-width:0.5;" x1="3137" x2="3467.7539" y1="190.5" y2="190.5"/></g><!--class logic_arc_int__baselibs__executor--><g id="elem_logic_arc_int__baselibs__executor"><rect fill="#F1F1F1" height="40" id="logic_arc_int__baselibs__executor" rx="2.5" ry="2.5" style="stroke:#181818;stroke-width:0.5;" width="266.4385" x="2834.5" y="158.5"/><ellipse cx="2849.5" cy="174.5" fill="#ADD1B2" rx="11" ry="11" style="stroke:#181818;stroke-width:1;"/><path d="M2852.4688,180.1406 Q2851.8906,180.4375 2851.25,180.5781 Q2850.6094,180.7344 2849.9063,180.7344 Q2847.4063,180.7344 2846.0781,179.0938 Q2844.7656,177.4375 2844.7656,174.3125 Q2844.7656,171.1875 2846.0781,169.5313 Q2847.4063,167.875 2849.9063,167.875 Q2850.6094,167.875 2851.25,168.0313 Q2851.9063,168.1875 2852.4688,168.4844 L2852.4688,171.2031 Q2851.8438,170.625 2851.25,170.3594 Q2850.6563,170.0781 2850.0313,170.0781 Q2848.6875,170.0781 2848,171.1563 Q2847.3125,172.2188 2847.3125,174.3125 Q2847.3125,176.4063 2848,177.4844 Q2848.6875,178.5469 2850.0313,178.5469 Q2850.6563,178.5469 2851.25,178.2813 Q2851.8438,178 2852.4688,177.4219 L2852.4688,180.1406 Z " fill="#000000"/><text fill="#000000" font-family="sans-serif" font-size="14" lengthAdjust="spacing" textLength="234.4385" x="2863.5" y="179.3467">logic_arc_int__baselibs__executor</text><line style="stroke:#181818;stroke-width:0.5;" x1="2835.5" x2="3099.9385" y1="190.5" y2="190.5"/></g><!--class logic_arc_int__baselibs__message_passing--><g id="elem_logic_arc_int__baselibs__message_passing"><rect fill="#F1F1F1" height="40" id="logic_arc_int__baselibs__message_passing" rx="2.5" ry="2.5" style="stroke:#181818;stroke-width:0.5;" width="328.167" x="11.5" y="158.5"/><ellipse cx="26.5" cy="174.5" fill="#ADD1B2" rx="11" ry="11" style="stroke:#181818;stroke-width:1;"/><path d="M29.4688,180.1406 Q28.8906,180.4375 28.25,180.5781 Q27.6094,180.7344 26.9063,180.7344 Q24.4063,180.7344 23.0781,179.0938 Q21.7656,177.4375 21.7656,174.3125 Q21.7656,171.1875 23.0781,169.5313 Q24.4063,167.875 26.9063,167.875 Q27.6094,167.875 28.25,168.0313 Q28.9063,168.1875 29.4688,168.4844 L29.4688,171.2031 Q28.8438,170.625 28.25,170.3594 Q27.6563,170.0781 27.0313,170.0781 Q25.6875,170.0781 25,171.1563 Q24.3125,172.2188 24.3125,174.3125 Q24.3125,176.4063 25,177.4844 Q25.6875,178.5469 27.0313,178.5469 Q27.6563,178.5469 28.25,178.2813 Q28.8438,178 29.4688,177.4219 L29.4688,180.1406 Z " fill="#000000"/><text fill="#000000" font-family="sans-serif" font-size="14" lengthAdjust="spacing" textLength="296.167" x="40.5" y="179.3467">logic_arc_int__baselibs__message_passing</text><line style="stroke:#181818;stroke-width:0.5;" x1="12.5" x2="338.667" y1="190.5" y2="190.5"/></g><!--class logic_arc_int__baselibs__bit_manipulation--><g id="elem_logic_arc_int__baselibs__bit_manipulation"><rect fill="#F1F1F1" height="40" id="logic_arc_int__baselibs__bit_manipulation" rx="2.5" ry="2.5" style="stroke:#181818;stroke-width:0.5;" width="321.8369" x="1416.5" y="158.5"/><ellipse cx="1431.5" cy="174.5" fill="#ADD1B2" rx="11" ry="11" style="stroke:#181818;stroke-width:1;"/><path d="M1434.4688,180.1406 Q1433.8906,180.4375 1433.25,180.5781 Q1432.6094,180.7344 1431.9063,180.7344 Q1429.4063,180.7344 1428.0781,179.0938 Q1426.7656,177.4375 1426.7656,174.3125 Q1426.7656,171.1875 1428.0781,169.5313 Q1429.4063,167.875 1431.9063,167.875 Q1432.6094,167.875 1433.25,168.0313 Q1433.9063,168.1875 1434.4688,168.4844 L1434.4688,171.2031 Q1433.8438,170.625 1433.25,170.3594 Q1432.6563,170.0781 1432.0313,170.0781 Q1430.6875,170.0781 1430,171.1563 Q1429.3125,172.2188 1429.3125,174.3125 Q1429.3125,176.4063 1430,177.4844 Q1430.6875,178.5469 1432.0313,178.5469 Q1432.6563,178.5469 1433.25,178.2813 Q1433.8438,178 1434.4688,177.4219 L1434.4688,180.1406 Z " fill="#000000"/><text fill="#000000" font-family="sans-serif" font-size="14" lengthAdjust="spacing" textLength="289.8369" x="1445.5" y="179.3467">logic_arc_int__baselibs__bit_manipulation</text><line style="stroke:#181818;stroke-width:0.5;" x1="1417.5" x2="1737.3369" y1="190.5" y2="190.5"/></g><!--class comp_arc_sta__baselibs__utils--><g id="elem_comp_arc_sta__baselibs__utils"><rect fill="#F1F1F1" height="40" id="comp_arc_sta__baselibs__utils" rx="2.5" ry="2.5" style="stroke:#181818;stroke-width:0.5;" width="242.9502" x="1913" y="275.5"/><ellipse cx="1928" cy="291.5" fill="#ADD1B2" rx="11" ry="11" style="stroke:#181818;stroke-width:1;"/><path d="M1930.9688,297.1406 Q1930.3906,297.4375 1929.75,297.5781 Q1929.1094,297.7344 1928.4063,297.7344 Q1925.9063,297.7344 1924.5781,296.0938 Q1923.2656,294.4375 1923.2656,291.3125 Q1923.2656,288.1875 1924.5781,286.5313 Q1925.9063,284.875 1928.4063,284.875 Q1929.1094,284.875 1929.75,285.0313 Q1930.4063,285.1875 1930.9688,285.4844 L1930.9688,288.2031 Q1930.3438,287.625 1929.75,287.3594 Q1929.1563,287.0781 1928.5313,287.0781 Q1927.1875,287.0781 1926.5,288.1563 Q1925.8125,289.2188 1925.8125,291.3125 Q1925.8125,293.4063 1926.5,294.4844 Q1927.1875,295.5469 1928.5313,295.5469 Q1929.1563,295.5469 1929.75,295.2813 Q1930.3438,295 1930.9688,294.4219 L1930.9688,297.1406 Z " fill="#000000"/><text fill="#000000" font-family="sans-serif" font-size="14" lengthAdjust="spacing" textLength="210.9502" x="1942" y="296.3467">comp_arc_sta__baselibs__utils</text><line style="stroke:#181818;stroke-width:0.5;" x1="1914" x2="2154.9502" y1="307.5" y2="307.5"/></g><!--class logic_arc_int__baselibs__utils_base64--><g id="elem_logic_arc_int__baselibs__utils_base64"><rect fill="#F1F1F1" height="40" id="logic_arc_int__baselibs__utils_base64" rx="2.5" ry="2.5" style="stroke:#181818;stroke-width:0.5;" width="292.1689" x="1773.5" y="158.5"/><ellipse cx="1788.5" cy="174.5" fill="#ADD1B2" rx="11" ry="11" style="stroke:#181818;stroke-width:1;"/><path d="M1791.4688,180.1406 Q1790.8906,180.4375 1790.25,180.5781 Q1789.6094,180.7344 1788.9063,180.7344 Q1786.4063,180.7344 1785.0781,179.0938 Q1783.7656,177.4375 1783.7656,174.3125 Q1783.7656,171.1875 1785.0781,169.5313 Q1786.4063,167.875 1788.9063,167.875 Q1789.6094,167.875 1790.25,168.0313 Q1790.9063,168.1875 1791.4688,168.4844 L1791.4688,171.2031 Q1790.8438,170.625 1790.25,170.3594 Q1789.6563,170.0781 1789.0313,170.0781 Q1787.6875,170.0781 1787,171.1563 Q1786.3125,172.2188 1786.3125,174.3125 Q1786.3125,176.4063 1787,177.4844 Q1787.6875,178.5469 1789.0313,178.5469 Q1789.6563,178.5469 1790.25,178.2813 Q1790.8438,178 1791.4688,177.4219 L1791.4688,180.1406 Z " fill="#000000"/><text fill="#000000" font-family="sans-serif" font-size="14" lengthAdjust="spacing" textLength="260.1689" x="1802.5" y="179.3467">logic_arc_int__baselibs__utils_base64</text><line style="stroke:#181818;stroke-width:0.5;" x1="1774.5" x2="2064.6689" y1="190.5" y2="190.5"/></g><!--class logic_arc_int__baselibs__future--><g id="elem_logic_arc_int__baselibs__future"><rect fill="#F1F1F1" height="40" id="logic_arc_int__baselibs__future" rx="2.5" ry="2.5" style="stroke:#181818;stroke-width:0.5;" width="247.0791" x="4427" y="158.5"/><ellipse cx="4442" cy="174.5" fill="#ADD1B2" rx="11" ry="11" style="stroke:#181818;stroke-width:1;"/><path d="M4444.9688,180.1406 Q4444.3906,180.4375 4443.75,180.5781 Q4443.1094,180.7344 4442.4063,180.7344 Q4439.9063,180.7344 4438.5781,179.0938 Q4437.2656,177.4375 4437.2656,174.3125 Q4437.2656,171.1875 4438.5781,169.5313 Q4439.9063,167.875 4442.4063,167.875 Q4443.1094,167.875 4443.75,168.0313 Q4444.4063,168.1875 4444.9688,168.4844 L4444.9688,171.2031 Q4444.3438,170.625 4443.75,170.3594 Q4443.1563,170.0781 4442.5313,170.0781 Q4441.1875,170.0781 4440.5,171.1563 Q4439.8125,172.2188 4439.8125,174.3125 Q4439.8125,176.4063 4440.5,177.4844 Q4441.1875,178.5469 4442.5313,178.5469 Q4443.1563,178.5469 4443.75,178.2813 Q4444.3438,178 4444.9688,177.4219 L4444.9688,180.1406 Z " fill="#000000"/><text fill="#000000" font-family="sans-serif" font-size="14" lengthAdjust="spacing" textLength="215.0791" x="4456" y="179.3467">logic_arc_int__baselibs__future</text><line style="stroke:#181818;stroke-width:0.5;" x1="4428" x2="4673.0791" y1="190.5" y2="190.5"/></g><!--class comp_arc_sta__baselibs__containers--><g id="elem_comp_arc_sta__baselibs__containers"><rect fill="#F1F1F1" height="40" id="comp_arc_sta__baselibs__containers" rx="2.5" ry="2.5" style="stroke:#181818;stroke-width:0.5;" width="287.1445" x="525" y="275.5"/><ellipse cx="540" cy="291.5" fill="#ADD1B2" rx="11" ry="11" style="stroke:#181818;stroke-width:1;"/><path d="M542.9688,297.1406 Q542.3906,297.4375 541.75,297.5781 Q541.1094,297.7344 540.4063,297.7344 Q537.9063,297.7344 536.5781,296.0938 Q535.2656,294.4375 535.2656,291.3125 Q535.2656,288.1875 536.5781,286.5313 Q537.9063,284.875 540.4063,284.875 Q541.1094,284.875 541.75,285.0313 Q542.4063,285.1875 542.9688,285.4844 L542.9688,288.2031 Q542.3438,287.625 541.75,287.3594 Q541.1563,287.0781 540.5313,287.0781 Q539.1875,287.0781 538.5,288.1563 Q537.8125,289.2188 537.8125,291.3125 Q537.8125,293.4063 538.5,294.4844 Q539.1875,295.5469 540.5313,295.5469 Q541.1563,295.5469 541.75,295.2813 Q542.3438,295 542.9688,294.4219 L542.9688,297.1406 Z " fill="#000000"/><text fill="#000000" font-family="sans-serif" font-size="14" lengthAdjust="spacing" textLength="255.1445" x="554" y="296.3467">comp_arc_sta__baselibs__containers</text><line style="stroke:#181818;stroke-width:0.5;" x1="526" x2="811.1445" y1="307.5" y2="307.5"/></g><!--class logic_arc_int__baselibs__dynamic_array--><g id="elem_logic_arc_int__baselibs__dynamic_array"><rect fill="#F1F1F1" height="40" id="logic_arc_int__baselibs__dynamic_array" rx="2.5" ry="2.5" style="stroke:#181818;stroke-width:0.5;" width="308.3496" x="374.5" y="158.5"/><ellipse cx="389.5" cy="174.5" fill="#ADD1B2" rx="11" ry="11" style="stroke:#181818;stroke-width:1;"/><path d="M392.4688,180.1406 Q391.8906,180.4375 391.25,180.5781 Q390.6094,180.7344 389.9063,180.7344 Q387.4063,180.7344 386.0781,179.0938 Q384.7656,177.4375 384.7656,174.3125 Q384.7656,171.1875 386.0781,169.5313 Q387.4063,167.875 389.9063,167.875 Q390.6094,167.875 391.25,168.0313 Q391.9063,168.1875 392.4688,168.4844 L392.4688,171.2031 Q391.8438,170.625 391.25,170.3594 Q390.6563,170.0781 390.0313,170.0781 Q388.6875,170.0781 388,171.1563 Q387.3125,172.2188 387.3125,174.3125 Q387.3125,176.4063 388,177.4844 Q388.6875,178.5469 390.0313,178.5469 Q390.6563,178.5469 391.25,178.2813 Q391.8438,178 392.4688,177.4219 L392.4688,180.1406 Z " fill="#000000"/><text fill="#000000" font-family="sans-serif" font-size="14" lengthAdjust="spacing" textLength="276.3496" x="403.5" y="179.3467">logic_arc_int__baselibs__dynamic_array</text><line style="stroke:#181818;stroke-width:0.5;" x1="375.5" x2="681.8496" y1="190.5" y2="190.5"/></g><!--class comp_arc_sta__baselibs__message_passing--><g id="elem_comp_arc_sta__baselibs__message_passing"><rect fill="#F1F1F1" height="40" id="comp_arc_sta__baselibs__message_passing" rx="2.5" ry="2.5" style="stroke:#181818;stroke-width:0.5;" width="337.1357" x="7" y="275.5"/><ellipse cx="22" cy="291.5" fill="#ADD1B2" rx="11" ry="11" style="stroke:#181818;stroke-width:1;"/><path d="M24.9688,297.1406 Q24.3906,297.4375 23.75,297.5781 Q23.1094,297.7344 22.4063,297.7344 Q19.9063,297.7344 18.5781,296.0938 Q17.2656,294.4375 17.2656,291.3125 Q17.2656,288.1875 18.5781,286.5313 Q19.9063,284.875 22.4063,284.875 Q23.1094,284.875 23.75,285.0313 Q24.4063,285.1875 24.9688,285.4844 L24.9688,288.2031 Q24.3438,287.625 23.75,287.3594 Q23.1563,287.0781 22.5313,287.0781 Q21.1875,287.0781 20.5,288.1563 Q19.8125,289.2188 19.8125,291.3125 Q19.8125,293.4063 20.5,294.4844 Q21.1875,295.5469 22.5313,295.5469 Q23.1563,295.5469 23.75,295.2813 Q24.3438,295 24.9688,294.4219 L24.9688,297.1406 Z " fill="#000000"/><text fill="#000000" font-family="sans-serif" font-size="14" lengthAdjust="spacing" textLength="305.1357" x="36" y="296.3467">comp_arc_sta__baselibs__message_passing</text><line style="stroke:#181818;stroke-width:0.5;" x1="8" x2="343.1357" y1="307.5" y2="307.5"/></g><!--link Feature_User to logic_arc_int__baselibs__utils_scoped_op--><g id="link_Feature_User_logic_arc_int__baselibs__utils_scoped_op"><path codeLine="15" d="M3257.31,50.26 C3111.52,68.83 2655.1319,126.9717 2414.0219,157.6917 " fill="transparent" id="Feature_User-to-logic_arc_int__baselibs__utils_scoped_op" style="stroke:#181818;stroke-width:1;"/><polygon fill="#181818" points="2408.07,158.45,2417.5034,161.2804,2413.0299,157.8181,2416.4923,153.3446,2408.07,158.45" style="stroke:#181818;stroke-width:1;"/><text fill="#000000" font-family="sans-serif" font-size="13" lengthAdjust="spacing" textLength="23.0103" x="2750.5" y="124.5669">use</text></g><!--reverse link logic_arc_int__baselibs__json to comp_arc_sta__baselibs__json--><g id="link_logic_arc_int__baselibs__json_comp_arc_sta__baselibs__json"><path codeLine="16" d="M6076.5998,204.7444 C6077.5198,225.9744 6078.74,253.94 6079.66,275.19 " fill="transparent" id="logic_arc_int__baselibs__json-backto-comp_arc_sta__baselibs__json" style="stroke:#181818;stroke-width:1;"/><polygon fill="#181818" points="6076.34,198.75,6072.7334,207.9147,6076.5565,203.7453,6080.7259,207.5684,6076.34,198.75" style="stroke:#181818;stroke-width:1;"/><text fill="#000000" font-family="sans-serif" font-size="13" lengthAdjust="spacing" textLength="76.9082" x="6079.5" y="241.5669">implements</text></g><!--link Feature_User to logic_arc_int__baselibs__intrusive_list--><g id="link_Feature_User_logic_arc_int__baselibs__intrusive_list"><path codeLine="17" d="M3257.41,46.19 C3073.88,53.12 2365.11,80.5 1782.5,111.5 C1447.21,129.34 1362.94,128.72 1028.5,158.5 C1022.79,159.01 1022.9409,158.96 1017.0709,159.54 " fill="transparent" id="Feature_User-to-logic_arc_int__baselibs__intrusive_list" style="stroke:#181818;stroke-width:1;"/><polygon fill="#181818" points="1011.1,160.13,1020.4497,163.2257,1016.0758,159.6384,1019.6631,155.2644,1011.1,160.13" style="stroke:#181818;stroke-width:1;"/><text fill="#000000" font-family="sans-serif" font-size="13" lengthAdjust="spacing" textLength="23.0103" x="1783.5" y="124.5669">use</text></g><!--reverse link logic_arc_int__baselibs__filesystem to comp_arc_sta__baselibs__filesystem--><g id="link_logic_arc_int__baselibs__filesystem_comp_arc_sta__baselibs__filesystem"><path codeLine="18" d="M5779.9346,204.7491 C5780.3046,225.9791 5780.79,253.94 5781.16,275.19 " fill="transparent" id="logic_arc_int__baselibs__filesystem-backto-comp_arc_sta__baselibs__filesystem" style="stroke:#181818;stroke-width:1;"/><polygon fill="#181818" points="5779.83,198.75,5775.9874,207.8183,5779.9171,203.7492,5783.9862,207.6789,5779.83,198.75" style="stroke:#181818;stroke-width:1;"/><text fill="#000000" font-family="sans-serif" font-size="13" lengthAdjust="spacing" textLength="76.9082" x="5782.5" y="241.5669">implements</text></g><!--link Feature_User to logic_arc_int__baselibs__promise--><g id="link_Feature_User_logic_arc_int__baselibs__promise"><path codeLine="19" d="M3347.55,47.31 C3521.26,58.35 4164.14,100.93 4691.5,158.5 C4697.17,159.12 4696.9903,159.0761 4702.8303,159.7561 " fill="transparent" id="Feature_User-to-logic_arc_int__baselibs__promise" style="stroke:#181818;stroke-width:1;"/><polygon fill="#181818" points="4708.79,160.45,4700.313,155.4359,4703.8236,159.8717,4699.3878,163.3822,4708.79,160.45" style="stroke:#181818;stroke-width:1;"/><text fill="#000000" font-family="sans-serif" font-size="13" lengthAdjust="spacing" textLength="23.0103" x="4389.5" y="124.5669">use</text></g><!--reverse link logic_arc_int__baselibs__result to comp_arc_sta__baselibs__result--><g id="link_logic_arc_int__baselibs__result_comp_arc_sta__baselibs__result"><path codeLine="20" d="M5479.8418,204.7479 C5479.2818,225.9779 5478.56,253.94 5478,275.19 " fill="transparent" id="logic_arc_int__baselibs__result-backto-comp_arc_sta__baselibs__result" style="stroke:#181818;stroke-width:1;"/><polygon fill="#181818" points="5480,198.75,5475.7641,207.6414,5479.8682,203.7483,5483.7613,207.8523,5480,198.75" style="stroke:#181818;stroke-width:1;"/><text fill="#000000" font-family="sans-serif" font-size="13" lengthAdjust="spacing" textLength="76.9082" x="5480.5" y="241.5669">implements</text></g><!--link Feature_User to logic_arc_int__baselibs__task--><g id="link_Feature_User_logic_arc_int__baselibs__task"><path codeLine="21" d="M3347.59,53.64 C3453.75,75.17 3715.3996,128.2179 3858.6496,157.2579 " fill="transparent" id="Feature_User-to-logic_arc_int__baselibs__task" style="stroke:#181818;stroke-width:1;"/><polygon fill="#181818" points="3864.53,158.45,3856.5041,152.7416,3859.6297,157.4566,3854.9147,160.5821,3864.53,158.45" style="stroke:#181818;stroke-width:1;"/><text fill="#000000" font-family="sans-serif" font-size="13" lengthAdjust="spacing" textLength="23.0103" x="3710.5" y="124.5669">use</text></g><!--link Feature_User to logic_arc_int__baselibs__synchronized_queue--><g id="link_Feature_User_logic_arc_int__baselibs__synchronized_queue"><path codeLine="22" d="M3257.29,53.38 C3148.62,74.73 2876.6774,128.1532 2728.2674,157.3132 " fill="transparent" id="Feature_User-to-logic_arc_int__baselibs__synchronized_queue" style="stroke:#181818;stroke-width:1;"/><polygon fill="#181818" points="2722.38,158.47,2731.9823,160.6598,2727.2862,157.506,2730.44,152.8099,2722.38,158.47" style="stroke:#181818;stroke-width:1;"/><text fill="#000000" font-family="sans-serif" font-size="13" lengthAdjust="spacing" textLength="23.0103" x="2945.5" y="124.5669">use</text></g><!--reverse link logic_arc_int__baselibs__task_result to comp_arc_sta__baselibs__concurrency--><g id="link_logic_arc_int__baselibs__task_result_comp_arc_sta__baselibs__concurrency"><path codeLine="23" d="M4164.4688,199.9211 C4073.7688,221.2111 3933.62,254.11 3842.85,275.41 " fill="transparent" id="logic_arc_int__baselibs__task_result-backto-comp_arc_sta__baselibs__concurrency" style="stroke:#181818;stroke-width:1;"/><polygon fill="#181818" points="4170.31,198.55,4160.6341,196.7125,4165.4423,199.6926,4162.4622,204.5008,4170.31,198.55" style="stroke:#181818;stroke-width:1;"/><text fill="#000000" font-family="sans-serif" font-size="13" lengthAdjust="spacing" textLength="76.9082" x="4037.5" y="241.5669">implements</text></g><!--reverse link logic_arc_int__baselibs__bit_mask_operator to comp_arc_sta__baselibs__bit_manipulation--><g id="link_logic_arc_int__baselibs__bit_mask_operator_comp_arc_sta__baselibs__bit_manipulation"><path codeLine="24" d="M1238.0993,202.8832 C1260.4393,224.1132 1291.82,253.94 1314.18,275.19 " fill="transparent" id="logic_arc_int__baselibs__bit_mask_operator-backto-comp_arc_sta__baselibs__bit_manipulation" style="stroke:#181818;stroke-width:1;"/><polygon fill="#181818" points="1233.75,198.75,1237.5185,207.8494,1237.3744,202.1943,1243.0294,202.0503,1233.75,198.75" style="stroke:#181818;stroke-width:1;"/><text fill="#000000" font-family="sans-serif" font-size="13" lengthAdjust="spacing" textLength="76.9082" x="1282.5" y="241.5669">implements</text></g><!--reverse link logic_arc_int__baselibs__memory_shared to comp_arc_sta__baselibs__memory_shared--><g id="link_logic_arc_int__baselibs__memory_shared_comp_arc_sta__baselibs__memory_shared"><path codeLine="25" d="M5161.8688,204.7178 C5159.6588,225.9478 5156.73,253.94 5154.52,275.19 " fill="transparent" id="logic_arc_int__baselibs__memory_shared-backto-comp_arc_sta__baselibs__memory_shared" style="stroke:#181818;stroke-width:1;"/><polygon fill="#181818" points="5162.49,198.75,5157.5797,207.2875,5161.9723,203.7231,5165.5367,208.1158,5162.49,198.75" style="stroke:#181818;stroke-width:1;"/><text fill="#000000" font-family="sans-serif" font-size="13" lengthAdjust="spacing" textLength="76.9082" x="5160.5" y="241.5669">implements</text></g><!--reverse link logic_arc_int__baselibs__shared_future to comp_arc_sta__baselibs__concurrency--><g id="link_logic_arc_int__baselibs__shared_future_comp_arc_sta__baselibs__concurrency"><path codeLine="26" d="M3677.3067,203.1616 C3696.8767,224.3916 3724.11,253.94 3743.7,275.19 " fill="transparent" id="logic_arc_int__baselibs__shared_future-backto-comp_arc_sta__baselibs__concurrency" style="stroke:#181818;stroke-width:1;"/><polygon fill="#181818" points="3673.24,198.75,3676.3989,208.0785,3676.6289,202.4263,3682.2811,202.6563,3673.24,198.75" style="stroke:#181818;stroke-width:1;"/><text fill="#000000" font-family="sans-serif" font-size="13" lengthAdjust="spacing" textLength="76.9082" x="3716.5" y="241.5669">implements</text></g><!--reverse link logic_arc_int__baselibs__condition_variable to comp_arc_sta__baselibs__concurrency--><g id="link_logic_arc_int__baselibs__condition_variable_comp_arc_sta__baselibs__concurrency"><path codeLine="27" d="M3384.3701,200.0083 C3469.3401,221.2983 3600.27,254.11 3685.3,275.41 " fill="transparent" id="logic_arc_int__baselibs__condition_variable-backto-comp_arc_sta__baselibs__concurrency" style="stroke:#181818;stroke-width:1;"/><polygon fill="#181818" points="3378.55,198.55,3386.3079,204.6175,3383.4001,199.7652,3388.2523,196.8574,3378.55,198.55" style="stroke:#181818;stroke-width:1;"/><text fill="#000000" font-family="sans-serif" font-size="13" lengthAdjust="spacing" textLength="76.9082" x="3560.5" y="241.5669">implements</text></g><!--link Feature_User to logic_arc_int__baselibs__json--><g id="link_Feature_User_logic_arc_int__baselibs__json"><path codeLine="28" d="M3347.73,45.32 C3565.06,49.38 4523.88,68.96 5308.5,111.5 C5587.1,126.6 5657.02,129.41 5934.5,158.5 C5942.48,159.34 5944.7515,159.5656 5953.0415,160.5456 " fill="transparent" id="Feature_User-to-logic_arc_int__baselibs__json" style="stroke:#181818;stroke-width:1;"/><polygon fill="#181818" points="5959,161.25,5950.5318,156.2211,5954.0346,160.663,5949.5926,164.1658,5959,161.25" style="stroke:#181818;stroke-width:1;"/><text fill="#000000" font-family="sans-serif" font-size="13" lengthAdjust="spacing" textLength="23.0103" x="5602.5" y="124.5669">use</text></g><!--link Feature_User to logic_arc_int__baselibs__executor--><g id="link_Feature_User_logic_arc_int__baselibs__executor"><path codeLine="29" d="M3257.32,62.44 C3194.19,87.5 3085.6568,130.5965 3021.0568,156.2365 " fill="transparent" id="Feature_User-to-logic_arc_int__baselibs__executor" style="stroke:#181818;stroke-width:1;"/><polygon fill="#181818" points="3015.48,158.45,3025.3208,158.8477,3020.1273,156.6055,3022.3696,151.412,3015.48,158.45" style="stroke:#181818;stroke-width:1;"/><text fill="#000000" font-family="sans-serif" font-size="13" lengthAdjust="spacing" textLength="23.0103" x="3126.5" y="124.5669">use</text></g><!--link Feature_User to logic_arc_int__baselibs__filesystem--><g id="link_Feature_User_logic_arc_int__baselibs__filesystem"><path codeLine="30" d="M3347.75,45.64 C3545.18,50.76 4350.84,73.03 5011.5,111.5 C5282.07,127.26 5349.76,132.07 5619.5,158.5 C5626.6,159.2 5627.9036,159.306 5635.2436,160.086 " fill="transparent" id="Feature_User-to-logic_arc_int__baselibs__filesystem" style="stroke:#181818;stroke-width:1;"/><polygon fill="#181818" points="5641.21,160.72,5632.6831,155.7913,5636.238,160.1916,5631.8377,163.7466,5641.21,160.72" style="stroke:#181818;stroke-width:1;"/><text fill="#000000" font-family="sans-serif" font-size="13" lengthAdjust="spacing" textLength="23.0103" x="5276.5" y="124.5669">use</text></g><!--link Feature_User to logic_arc_int__baselibs__memory_shared--><g id="link_Feature_User_logic_arc_int__baselibs__memory_shared"><path codeLine="31" d="M3347.56,46.82 C3499.13,54.72 4004.38,81.7 4421.5,111.5 C4673.28,129.49 4736.21,134.58 4987.5,158.5 C4993.35,159.06 4993.3297,159.034 4999.3397,159.634 " fill="transparent" id="Feature_User-to-logic_arc_int__baselibs__memory_shared" style="stroke:#181818;stroke-width:1;"/><polygon fill="#181818" points="5005.31,160.23,4996.7519,155.3557,5000.3347,159.7333,4995.9572,163.3162,5005.31,160.23" style="stroke:#181818;stroke-width:1;"/><text fill="#000000" font-family="sans-serif" font-size="13" lengthAdjust="spacing" textLength="23.0103" x="4648.5" y="124.5669">use</text></g><!--link Feature_User to logic_arc_int__baselibs__bit_mask_operator--><g id="link_Feature_User_logic_arc_int__baselibs__bit_mask_operator"><path codeLine="32" d="M3257.46,46.38 C3047.08,55.31 2140.1,95.75 1398.5,158.5 C1392.87,158.98 1393.1269,158.9535 1387.3369,159.4635 " fill="transparent" id="Feature_User-to-logic_arc_int__baselibs__bit_mask_operator" style="stroke:#181818;stroke-width:1;"/><polygon fill="#181818" points="1381.36,159.99,1390.6763,163.1849,1386.3407,159.5513,1389.9743,155.2157,1381.36,159.99" style="stroke:#181818;stroke-width:1;"/><text fill="#000000" font-family="sans-serif" font-size="13" lengthAdjust="spacing" textLength="23.0103" x="2027.5" y="124.5669">use</text></g><!--link Feature_User to logic_arc_int__baselibs__message_passing--><g id="link_Feature_User_logic_arc_int__baselibs__message_passing"><path codeLine="33" d="M3257.42,45.23 C3025.49,49.09 1943.19,68.69 1058.5,111.5 C746.17,126.61 668.05,131.73 356.5,158.5 C350.99,158.97 351.3648,158.9211 345.7048,159.4411 " fill="transparent" id="Feature_User-to-logic_arc_int__baselibs__message_passing" style="stroke:#181818;stroke-width:1;"/><polygon fill="#181818" points="339.73,159.99,349.0582,163.1498,344.709,159.5326,348.3263,155.1834,339.73,159.99" style="stroke:#181818;stroke-width:1;"/><text fill="#000000" font-family="sans-serif" font-size="13" lengthAdjust="spacing" textLength="23.0103" x="1059.5" y="124.5669">use</text></g><!--link Feature_User to logic_arc_int__baselibs__bit_manipulation--><g id="link_Feature_User_logic_arc_int__baselibs__bit_manipulation"><path codeLine="34" d="M3257.2,47.21 C3071.27,58.46 2348.45,103.48 1755.5,158.5 C1749.93,159.02 1750.2315,158.9654 1744.5115,159.5254 " fill="transparent" id="Feature_User-to-logic_arc_int__baselibs__bit_manipulation" style="stroke:#181818;stroke-width:1;"/><polygon fill="#181818" points="1738.54,160.11,1747.8869,163.214,1743.5162,159.6228,1747.1074,155.2521,1738.54,160.11" style="stroke:#181818;stroke-width:1;"/><text fill="#000000" font-family="sans-serif" font-size="13" lengthAdjust="spacing" textLength="23.0103" x="2309.5" y="124.5669">use</text></g><!--reverse link logic_arc_int__baselibs__executor to comp_arc_sta__baselibs__concurrency--><g id="link_logic_arc_int__baselibs__executor_comp_arc_sta__baselibs__concurrency"><path codeLine="35" d="M3102.9866,199.3799 C3193.3466,212.6199 3310.79,229.78 3419.5,245.5 C3488.21,255.44 3564.71,266.41 3627.9,275.44 " fill="transparent" id="logic_arc_int__baselibs__executor-backto-comp_arc_sta__baselibs__concurrency" style="stroke:#181818;stroke-width:1;"/><polygon fill="#181818" points="3097.05,198.51,3105.375,203.7725,3101.9972,199.2349,3106.5348,195.8571,3097.05,198.51" style="stroke:#181818;stroke-width:1;"/><text fill="#000000" font-family="sans-serif" font-size="13" lengthAdjust="spacing" textLength="76.9082" x="3420.5" y="241.5669">implements</text></g><!--reverse link logic_arc_int__baselibs__utils_base64 to comp_arc_sta__baselibs__utils--><g id="link_logic_arc_int__baselibs__utils_base64_comp_arc_sta__baselibs__utils"><path codeLine="36" d="M1942.9926,202.9926 C1964.2226,224.2226 1993.94,253.94 2015.19,275.19 " fill="transparent" id="logic_arc_int__baselibs__utils_base64-backto-comp_arc_sta__baselibs__utils" style="stroke:#181818;stroke-width:1;"/><polygon fill="#181818" points="1938.75,198.75,1942.2855,207.9424,1942.2855,202.2855,1947.9424,202.2855,1938.75,198.75" style="stroke:#181818;stroke-width:1;"/><text fill="#000000" font-family="sans-serif" font-size="13" lengthAdjust="spacing" textLength="76.9082" x="1985.5" y="241.5669">implements</text></g><!--reverse link logic_arc_int__baselibs__utils_scoped_op to comp_arc_sta__baselibs__utils--><g id="link_logic_arc_int__baselibs__utils_scoped_op_comp_arc_sta__baselibs__utils"><path codeLine="37" d="M2215.9223,201.3603 C2174.4923,222.6303 2113.29,254.05 2071.83,275.34 " fill="transparent" id="logic_arc_int__baselibs__utils_scoped_op-backto-comp_arc_sta__baselibs__utils" style="stroke:#181818;stroke-width:1;"/><polygon fill="#181818" points="2221.26,198.62,2211.4266,199.1721,2216.812,200.9036,2215.0804,206.2889,2221.26,198.62" style="stroke:#181818;stroke-width:1;"/><text fill="#000000" font-family="sans-serif" font-size="13" lengthAdjust="spacing" textLength="76.9082" x="2161.5" y="241.5669">implements</text></g><!--reverse link logic_arc_int__baselibs__synchronized_queue to comp_arc_sta__baselibs__concurrency--><g id="link_logic_arc_int__baselibs__synchronized_queue_comp_arc_sta__baselibs__concurrency"><path codeLine="38" d="M2795.7613,199.2103 C2915.6313,212.8903 3076.08,230.75 3222.5,245.5 C3353.74,258.72 3503.11,272.17 3611.28,281.63 " fill="transparent" id="logic_arc_int__baselibs__synchronized_queue-backto-comp_arc_sta__baselibs__concurrency" style="stroke:#181818;stroke-width:1;"/><polygon fill="#181818" points="2789.8,198.53,2798.2884,203.5247,2794.7678,199.0969,2799.1955,195.5763,2789.8,198.53" style="stroke:#181818;stroke-width:1;"/><text fill="#000000" font-family="sans-serif" font-size="13" lengthAdjust="spacing" textLength="76.9082" x="3223.5" y="241.5669">implements</text></g><!--link Feature_User to logic_arc_int__baselibs__utils_base64--><g id="link_Feature_User_logic_arc_int__baselibs__utils_base64"><path codeLine="39" d="M3257.36,48.36 C3097.22,62.13 2541.45,110.57 2083.5,158.5 C2077.66,159.11 2077.6653,159.1059 2071.6453,159.7559 " fill="transparent" id="Feature_User-to-logic_arc_int__baselibs__utils_base64" style="stroke:#181818;stroke-width:1;"/><polygon fill="#181818" points="2065.68,160.4,2075.0574,163.4107,2070.6511,159.8633,2074.1986,155.457,2065.68,160.4" style="stroke:#181818;stroke-width:1;"/><text fill="#000000" font-family="sans-serif" font-size="13" lengthAdjust="spacing" textLength="23.0103" x="2553.5" y="124.5669">use</text></g><!--link Feature_User to logic_arc_int__baselibs__result--><g id="link_Feature_User_logic_arc_int__baselibs__result"><path codeLine="40" d="M3347.72,46.33 C3520.69,53.4 4156.89,80.13 4680.5,111.5 C4974.05,129.09 5047.98,128.27 5340.5,158.5 C5346.36,159.11 5346.3798,159.0704 5352.4298,159.7704 " fill="transparent" id="Feature_User-to-logic_arc_int__baselibs__result" style="stroke:#181818;stroke-width:1;"/><polygon fill="#181818" points="5358.39,160.46,5349.9094,155.4521,5353.4231,159.8853,5348.9899,163.3991,5358.39,160.46" style="stroke:#181818;stroke-width:1;"/><text fill="#000000" font-family="sans-serif" font-size="13" lengthAdjust="spacing" textLength="23.0103" x="4979.5" y="124.5669">use</text></g><!--link Feature_User to logic_arc_int__baselibs__future--><g id="link_Feature_User_logic_arc_int__baselibs__future"><path codeLine="41" d="M3347.63,48.64 C3498.31,62.55 3997.73,109.57 4409.5,158.5 C4415.14,159.17 4414.9566,159.1233 4420.7766,159.8533 " fill="transparent" id="Feature_User-to-logic_arc_int__baselibs__future" style="stroke:#181818;stroke-width:1;"/><polygon fill="#181818" points="4426.73,160.6,4418.2978,155.511,4421.7689,159.9777,4417.3022,163.4488,4426.73,160.6" style="stroke:#181818;stroke-width:1;"/><text fill="#000000" font-family="sans-serif" font-size="13" lengthAdjust="spacing" textLength="23.0103" x="4137.5" y="124.5669">use</text></g><!--reverse link logic_arc_int__baselibs__promise to comp_arc_sta__baselibs__concurrency--><g id="link_logic_arc_int__baselibs__promise_comp_arc_sta__baselibs__concurrency"><path codeLine="42" d="M4702.8078,197.0655 C4696.9778,197.8055 4697.15,197.78 4691.5,198.5 C4523.98,219.69 4482.4,227.6 4314.5,245.5 C4178.29,260.02 4022.87,273.52 3911.56,282.66 " fill="transparent" id="logic_arc_int__baselibs__promise-backto-comp_arc_sta__baselibs__concurrency" style="stroke:#181818;stroke-width:1;"/><polygon fill="#181818" points="4708.76,196.31,4699.328,193.4751,4703.7998,196.9396,4700.3353,201.4114,4708.76,196.31" style="stroke:#181818;stroke-width:1;"/><text fill="#000000" font-family="sans-serif" font-size="13" lengthAdjust="spacing" textLength="76.9082" x="4459.5" y="241.5669">implements</text></g><!--reverse link logic_arc_int__baselibs__intrusive_list to comp_arc_sta__baselibs__containers--><g id="link_logic_arc_int__baselibs__intrusive_list_comp_arc_sta__baselibs__containers"><path codeLine="43" d="M826.5148,201.7861 C790.2248,223.0761 737.29,254.14 701.09,275.38 " fill="transparent" id="logic_arc_int__baselibs__intrusive_list-backto-comp_arc_sta__baselibs__containers" style="stroke:#181818;stroke-width:1;"/><polygon fill="#181818" points="831.69,198.75,821.9032,199.854,827.3774,201.2801,825.9513,206.7542,831.69,198.75" style="stroke:#181818;stroke-width:1;"/><text fill="#000000" font-family="sans-serif" font-size="13" lengthAdjust="spacing" textLength="76.9082" x="779.5" y="241.5669">implements</text></g><!--link Feature_User to logic_arc_int__baselibs__task_result--><g id="link_Feature_User_logic_arc_int__baselibs__task_result"><path codeLine="44" d="M3347.63,50.83 C3484.48,70 3892.6581,127.2072 4109.6381,157.6172 " fill="transparent" id="Feature_User-to-logic_arc_int__baselibs__task_result" style="stroke:#181818;stroke-width:1;"/><polygon fill="#181818" points="4115.58,158.45,4107.2223,153.2396,4110.6284,157.756,4106.1119,161.1621,4115.58,158.45" style="stroke:#181818;stroke-width:1;"/><text fill="#000000" font-family="sans-serif" font-size="13" lengthAdjust="spacing" textLength="23.0103" x="3891.5" y="124.5669">use</text></g><!--link Feature_User to logic_arc_int__baselibs__condition_variable--><g id="link_Feature_User_logic_arc_int__baselibs__condition_variable"><path codeLine="45" d="M3302.5,81.55 C3302.5,106.45 3302.5,132.26 3302.5,152.26 " fill="transparent" id="Feature_User-to-logic_arc_int__baselibs__condition_variable" style="stroke:#181818;stroke-width:1;"/><polygon fill="#181818" points="3302.5,158.26,3306.5,149.26,3302.5,153.26,3298.5,149.26,3302.5,158.26" style="stroke:#181818;stroke-width:1;"/><text fill="#000000" font-family="sans-serif" font-size="13" lengthAdjust="spacing" textLength="23.0103" x="3303.5" y="124.5669">use</text></g><!--link Feature_User to logic_arc_int__baselibs__dynamic_array--><g id="link_Feature_User_logic_arc_int__baselibs__dynamic_array"><path codeLine="46" d="M3257.44,45.58 C3047.89,50.74 2147.84,74.05 1410.5,111.5 C1094.66,127.54 1015.52,130.69 700.5,158.5 C694.66,159.02 694.6931,158.9926 688.6931,159.5626 " fill="transparent" id="Feature_User-to-logic_arc_int__baselibs__dynamic_array" style="stroke:#181818;stroke-width:1;"/><polygon fill="#181818" points="682.72,160.13,692.058,163.2609,687.6976,159.6571,691.3014,155.2968,682.72,160.13" style="stroke:#181818;stroke-width:1;"/><text fill="#000000" font-family="sans-serif" font-size="13" lengthAdjust="spacing" textLength="23.0103" x="1411.5" y="124.5669">use</text></g><!--reverse link logic_arc_int__baselibs__future to comp_arc_sta__baselibs__concurrency--><g id="link_logic_arc_int__baselibs__future_comp_arc_sta__baselibs__concurrency"><path codeLine="47" d="M4424.7431,199.5037 C4338.9831,213.0137 4226.67,230.4 4122.5,245.5 C4051.3,255.82 3972.1,266.64 3906.07,275.49 " fill="transparent" id="logic_arc_int__baselibs__future-backto-comp_arc_sta__baselibs__concurrency" style="stroke:#181818;stroke-width:1;"/><polygon fill="#181818" points="4430.67,198.57,4421.1572,196.0193,4425.7309,199.3481,4422.4021,203.9218,4430.67,198.57" style="stroke:#181818;stroke-width:1;"/><text fill="#000000" font-family="sans-serif" font-size="13" lengthAdjust="spacing" textLength="76.9082" x="4229.5" y="241.5669">implements</text></g><!--link Feature_User to logic_arc_int__baselibs__shared_future--><g id="link_Feature_User_logic_arc_int__baselibs__shared_future"><path codeLine="48" d="M3347.57,61.48 C3413.55,86.34 3530.4554,130.3842 3599.3954,156.3642 " fill="transparent" id="Feature_User-to-logic_arc_int__baselibs__shared_future" style="stroke:#181818;stroke-width:1;"/><polygon fill="#181818" points="3605.01,158.48,3597.9987,151.5632,3600.3312,156.7168,3595.1776,159.0493,3605.01,158.48" style="stroke:#181818;stroke-width:1;"/><text fill="#000000" font-family="sans-serif" font-size="13" lengthAdjust="spacing" textLength="23.0103" x="3522.5" y="124.5669">use</text></g><!--reverse link logic_arc_int__baselibs__bit_manipulation to comp_arc_sta__baselibs__bit_manipulation--><g id="link_logic_arc_int__baselibs__bit_manipulation_comp_arc_sta__baselibs__bit_manipulation"><path codeLine="49" d="M1531.6768,201.1868 C1486.7368,222.4568 1419.98,254.05 1375,275.34 " fill="transparent" id="logic_arc_int__baselibs__bit_manipulation-backto-comp_arc_sta__baselibs__bit_manipulation" style="stroke:#181818;stroke-width:1;"/><polygon fill="#181818" points="1537.1,198.62,1527.2539,198.8547,1532.5806,200.759,1530.6763,206.0857,1537.1,198.62" style="stroke:#181818;stroke-width:1;"/><text fill="#000000" font-family="sans-serif" font-size="13" lengthAdjust="spacing" textLength="76.9082" x="1472.5" y="241.5669">implements</text></g><!--reverse link logic_arc_int__baselibs__dynamic_array to comp_arc_sta__baselibs__containers--><g id="link_logic_arc_int__baselibs__dynamic_array_comp_arc_sta__baselibs__containers"><path codeLine="50" d="M556.5667,202.558 C582.4167,223.788 619.12,253.94 644.99,275.19 " fill="transparent" id="logic_arc_int__baselibs__dynamic_array-backto-comp_arc_sta__baselibs__containers" style="stroke:#181818;stroke-width:1;"/><polygon fill="#181818" points="551.93,198.75,556.3464,207.5532,555.7939,201.9233,561.4237,201.3709,551.93,198.75" style="stroke:#181818;stroke-width:1;"/><text fill="#000000" font-family="sans-serif" font-size="13" lengthAdjust="spacing" textLength="76.9082" x="608.5" y="241.5669">implements</text></g><!--reverse link logic_arc_int__baselibs__message_passing to comp_arc_sta__baselibs__message_passing--><g id="link_logic_arc_int__baselibs__message_passing_comp_arc_sta__baselibs__message_passing"><path codeLine="51" d="M175.5,204.75 C175.5,225.98 175.5,253.94 175.5,275.19 " fill="transparent" id="logic_arc_int__baselibs__message_passing-backto-comp_arc_sta__baselibs__message_passing" style="stroke:#181818;stroke-width:1;"/><polygon fill="#181818" points="175.5,198.75,171.5,207.75,175.5,203.75,179.5,207.75,175.5,198.75" style="stroke:#181818;stroke-width:1;"/><text fill="#000000" font-family="sans-serif" font-size="13" lengthAdjust="spacing" textLength="76.9082" x="176.5" y="241.5669">implements</text></g><!--reverse link logic_arc_int__baselibs__task to comp_arc_sta__baselibs__concurrency--><g id="link_logic_arc_int__baselibs__task_comp_arc_sta__baselibs__concurrency"><path codeLine="52" d="M3920.3479,201.7743 C3883.8679,223.0643 3830.64,254.14 3794.25,275.38 " fill="transparent" id="logic_arc_int__baselibs__task-backto-comp_arc_sta__baselibs__concurrency" style="stroke:#181818;stroke-width:1;"/><polygon fill="#181818" points="3925.53,198.75,3915.7407,199.8317,3921.2116,201.2702,3919.7731,206.7411,3925.53,198.75" style="stroke:#181818;stroke-width:1;"/><text fill="#000000" font-family="sans-serif" font-size="13" lengthAdjust="spacing" textLength="76.9082" x="3873.5" y="241.5669">implements</text></g><!--SRC=[hLPBRzGm4BxxLrYzRq6eub1LlI1nuaZFbkDCTuVw4JpZqe3uxpYRXNqer76QuoGpdp_FwxEsDlnG3b_GRmM7JdAGJM0EJhOOmJ06BtROWYI6287x3aORNCUzrCmHcyH0uewujt0lhZMXRUGlyGKzV0esH1cXtLjVTsYUF1393zVlnMznz-uG8xJXx7Vr6JId2FA185v9JVBmGGqVf11dvgRTt4iRjcYKZaQXPwKQJM2n8QKIeoL59dJGgj3ToaGWXGckstiJwrFlRnIytAJN00UNMucki-30CyaQDjcCYV0Pb4NY0fb7j41zJhWhK3ewBYRMnU2GeC0e0YNB1JQZqs8chEdfGACYYdflTZ5u_9dB_3r1Abt516zIZE1DNxZFG6ZoKl-3Rf2LqnwxPFKmE0NyqJsVaLiqwjp_yqvnu4Bi5Urq7gl24MU-y-3dvsT4LOzfgDNQuDcpnI69wbb7r8s5nOqr3cvjOy4BcBGlIctawLJMnbuKh3PyegNg6H3fBQXE4sLHMChXE0MhpUEn8dDQRR__2uYZHWpsnvkrKK-KP-MnczXu2oVZ_FwrXVwx6gldux0mLcgBVmesCysiyqiabefuATXl4BN5YPhQWRKORU-rs_-AkbyjvrCxlqQqpvNZLLABHFLq-wpQ5XVfdAVNPmkrgDWNwtVTvJ4-iaun_m00]--></g></svg>