<svg xmlns="http://www.w3.org/2000/svg" xmlns:xlink="http://www.w3.org/1999/xlink" contentStyleType="text/css" data-diagram-type="CLASS" height="322px" preserveAspectRatio="none" style="width:6200px;height:322px;background:#FFFFFF;" version="1.1" viewBox="0 0 6200 322" width="6200px" zoomAndPan="magnify"><defs/><g><!--entity Feature_User--><g id="elem_Feature_User"><ellipse cx="3027.6685" cy="14" fill="#F1F1F1" rx="8" ry="8" style="stroke:#181818;stroke-width:0.5;"/><path d="M3027.6685,22 L3027.6685,49 M3014.6685,30 L3040.6685,30 M3027.6685,49 L3014.6685,64 M3027.6685,49 L3040.6685,64 " fill="transparent" style="stroke:#181818;stroke-width:0.5;"/><text fill="#000000" font-family="sans-serif" font-size="14" lengthAdjust="spacing" textLength="90.3369" x="2982.5" y="78.4951">Feature User</text></g><!--class logic_arc_int__baselibs__memory_shared--><g id="elem_logic_arc_int__baselibs__memory_shared"><rect fill="#F1F1F1" height="40" id="logic_arc_int__baselibs__memory_shared" rx="2.5" ry="2.5" style="stroke:#181818;stroke-width:0.5;" width="318.043" x="5870.5" y="158.5"/><ellipse cx="5885.5" cy="174.5" fill="#ADD1B2" rx="11" ry="11" style="stroke:#181818;stroke-width:1;"/><path d="M5888.4688,180.1406 Q5887.8906,180.4375 5887.25,180.5781 Q5886.6094,180.7344 5885.9063,180.7344 Q5883.4063,180.7344 5882.0781,179.0938 Q5880.7656,177.4375 5880.7656,174.3125 Q5880.7656,171.1875 5882.0781,169.5313 Q5883.4063,167.875 5885.9063,167.875 Q5886.6094,167.875 5887.25,168.0313 Q5887.9063,168.1875 5888.4688,168.4844 L5888.4688,171.2031 Q5887.8438,170.625 5887.25,170.3594 Q5886.6563,170.0781 5886.0313,170.0781 Q5884.6875,170.0781 5884,171.1563 Q5883.3125,172.2188 5883.3125,174.3125 Q5883.3125,176.4063 5884,177.4844 Q5884.6875,178.5469 5886.0313,178.5469 Q5886.6563,178.5469 5887.25,178.2813 Q5887.8438,178 5888.4688,177.4219 L5888.4688,180.1406 Z " fill="#000000"/><text fill="#000000" font-family="sans-serif" font-size="14" lengthAdjust="spacing" textLength="286.043" x="5899.5" y="179.3467">logic_arc_int__baselibs__memory_shared</text><line style="stroke:#181818;stroke-width:0.5;" x1="5871.5" x2="6187.543" y1="190.5" y2="190.5"/></g><!--class logic_arc_int__baselibs__message_passing--><g id="elem_logic_arc_int__baselibs__message_passing"><rect fill="#F1F1F1" height="40" id="logic_arc_int__baselibs__message_passing" rx="2.5" ry="2.5" style="stroke:#181818;stroke-width:0.5;" width="328.167" x="15.5" y="158.5"/><ellipse cx="30.5" cy="174.5" fill="#ADD1B2" rx="11" ry="11" style="stroke:#181818;stroke-width:1;"/><path d="M33.4688,180.1406 Q32.8906,180.4375 32.25,180.5781 Q31.6094,180.7344 30.9063,180.7344 Q28.4063,180.7344 27.0781,179.0938 Q25.7656,177.4375 25.7656,174.3125 Q25.7656,171.1875 27.0781,169.5313 Q28.4063,167.875 30.9063,167.875 Q31.6094,167.875 32.25,168.0313 Q32.9063,168.1875 33.4688,168.4844 L33.4688,171.2031 Q32.8438,170.625 32.25,170.3594 Q31.6563,170.0781 31.0313,170.0781 Q29.6875,170.0781 29,171.1563 Q28.3125,172.2188 28.3125,174.3125 Q28.3125,176.4063 29,177.4844 Q29.6875,178.5469 31.0313,178.5469 Q31.6563,178.5469 32.25,178.2813 Q32.8438,178 33.4688,177.4219 L33.4688,180.1406 Z " fill="#000000"/><text fill="#000000" font-family="sans-serif" font-size="14" lengthAdjust="spacing" textLength="296.167" x="44.5" y="179.3467">logic_arc_int__baselibs__message_passing</text><line style="stroke:#181818;stroke-width:0.5;" x1="16.5" x2="342.667" y1="190.5" y2="190.5"/></g><!--class comp_arc_sta__baselibs__memory_shared--><g id="elem_comp_arc_sta__baselibs__memory_shared"><rect fill="#F1F1F1" height="40" id="comp_arc_sta__baselibs__memory_shared" rx="2.5" ry="2.5" style="stroke:#181818;stroke-width:0.5;" width="327.0117" x="5866" y="275.5"/><ellipse cx="5881" cy="291.5" fill="#ADD1B2" rx="11" ry="11" style="stroke:#181818;stroke-width:1;"/><path d="M5883.9688,297.1406 Q5883.3906,297.4375 5882.75,297.5781 Q5882.1094,297.7344 5881.4063,297.7344 Q5878.9063,297.7344 5877.5781,296.0938 Q5876.2656,294.4375 5876.2656,291.3125 Q5876.2656,288.1875 5877.5781,286.5313 Q5878.9063,284.875 5881.4063,284.875 Q5882.1094,284.875 5882.75,285.0313 Q5883.4063,285.1875 5883.9688,285.4844 L5883.9688,288.2031 Q5883.3438,287.625 5882.75,287.3594 Q5882.1563,287.0781 5881.5313,287.0781 Q5880.1875,287.0781 5879.5,288.1563 Q5878.8125,289.2188 5878.8125,291.3125 Q5878.8125,293.4063 5879.5,294.4844 Q5880.1875,295.5469 5881.5313,295.5469 Q5882.1563,295.5469 5882.75,295.2813 Q5883.3438,295 5883.9688,294.4219 L5883.9688,297.1406 Z " fill="#000000"/><text fill="#000000" font-family="sans-serif" font-size="14" lengthAdjust="spacing" textLength="295.0117" x="5895" y="296.3467">comp_arc_sta__baselibs__memory_shared</text><line style="stroke:#181818;stroke-width:0.5;" x1="5867" x2="6192.0117" y1="307.5" y2="307.5"/></g><!--class comp_arc_sta__baselibs__containers--><g id="elem_comp_arc_sta__baselibs__containers"><rect fill="#F1F1F1" height="40" id="comp_arc_sta__baselibs__containers" rx="2.5" ry="2.5" style="stroke:#181818;stroke-width:0.5;" width="287.1445" x="5316" y="275.5"/><ellipse cx="5331" cy="291.5" fill="#ADD1B2" rx="11" ry="11" style="stroke:#181818;stroke-width:1;"/><path d="M5333.9688,297.1406 Q5333.3906,297.4375 5332.75,297.5781 Q5332.1094,297.7344 5331.4063,297.7344 Q5328.9063,297.7344 5327.5781,296.0938 Q5326.2656,294.4375 5326.2656,291.3125 Q5326.2656,288.1875 5327.5781,286.5313 Q5328.9063,284.875 5331.4063,284.875 Q5332.1094,284.875 5332.75,285.0313 Q5333.4063,285.1875 5333.9688,285.4844 L5333.9688,288.2031 Q5333.3438,287.625 5332.75,287.3594 Q5332.1563,287.0781 5331.5313,287.0781 Q5330.1875,287.0781 5329.5,288.1563 Q5328.8125,289.2188 5328.8125,291.3125 Q5328.8125,293.4063 5329.5,294.4844 Q5330.1875,295.5469 5331.5313,295.5469 Q5332.1563,295.5469 5332.75,295.2813 Q5333.3438,295 5333.9688,294.4219 L5333.9688,297.1406 Z " fill="#000000"/><text fill="#000000" font-family="sans-serif" font-size="14" lengthAdjust="spacing" textLength="255.1445" x="5345" y="296.3467">comp_arc_sta__baselibs__containers</text><line style="stroke:#181818;stroke-width:0.5;" x1="5317" x2="5602.1445" y1="307.5" y2="307.5"/></g><!--class logic_arc_int__baselibs__intrusive_list--><g id="elem_logic_arc_int__baselibs__intrusive_list"><rect fill="#F1F1F1" height="40" id="logic_arc_int__baselibs__intrusive_list" rx="2.5" ry="2.5" style="stroke:#181818;stroke-width:0.5;" width="293.0713" x="5199" y="158.5"/><ellipse cx="5214" cy="174.5" fill="#ADD1B2" rx="11" ry="11" style="stroke:#181818;stroke-width:1;"/><path d="M5216.9688,180.1406 Q5216.3906,180.4375 5215.75,180.5781 Q5215.1094,180.7344 5214.4063,180.7344 Q5211.9063,180.7344 5210.5781,179.0938 Q5209.2656,177.4375 5209.2656,174.3125 Q5209.2656,171.1875 5210.5781,169.5313 Q5211.9063,167.875 5214.4063,167.875 Q5215.1094,167.875 5215.75,168.0313 Q5216.4063,168.1875 5216.9688,168.4844 L5216.9688,171.2031 Q5216.3438,170.625 5215.75,170.3594 Q5215.1563,170.0781 5214.5313,170.0781 Q5213.1875,170.0781 5212.5,171.1563 Q5211.8125,172.2188 5211.8125,174.3125 Q5211.8125,176.4063 5212.5,177.4844 Q5213.1875,178.5469 5214.5313,178.5469 Q5215.1563,178.5469 5215.75,178.2813 Q5216.3438,178 5216.9688,177.4219 L5216.9688,180.1406 Z " fill="#000000"/><text fill="#000000" font-family="sans-serif" font-size="14" lengthAdjust="spacing" textLength="261.0713" x="5228" y="179.3467">logic_arc_int__baselibs__intrusive_list</text><line style="stroke:#181818;stroke-width:0.5;" x1="5200" x2="5491.0713" y1="190.5" y2="190.5"/></g><!--class logic_arc_int__baselibs__result--><g id="elem_logic_arc_int__baselibs__result"><rect fill="#F1F1F1" height="40" id="logic_arc_int__baselibs__result" rx="2.5" ry="2.5" style="stroke:#181818;stroke-width:0.5;" width="244.4609" x="3931.5" y="158.5"/><ellipse cx="3946.5" cy="174.5" fill="#ADD1B2" rx="11" ry="11" style="stroke:#181818;stroke-width:1;"/><path d="M3949.4688,180.1406 Q3948.8906,180.4375 3948.25,180.5781 Q3947.6094,180.7344 3946.9063,180.7344 Q3944.4063,180.7344 3943.0781,179.0938 Q3941.7656,177.4375 3941.7656,174.3125 Q3941.7656,171.1875 3943.0781,169.5313 Q3944.4063,167.875 3946.9063,167.875 Q3947.6094,167.875 3948.25,168.0313 Q3948.9063,168.1875 3949.4688,168.4844 L3949.4688,171.2031 Q3948.8438,170.625 3948.25,170.3594 Q3947.6563,170.0781 3947.0313,170.0781 Q3945.6875,170.0781 3945,171.1563 Q3944.3125,172.2188 3944.3125,174.3125 Q3944.3125,176.4063 3945,177.4844 Q3945.6875,178.5469 3947.0313,178.5469 Q3947.6563,178.5469 3948.25,178.2813 Q3948.8438,178 3949.4688,177.4219 L3949.4688,180.1406 Z " fill="#000000"/><text fill="#000000" font-family="sans-serif" font-size="14" lengthAdjust="spacing" textLength="212.4609" x="3960.5" y="179.3467">logic_arc_int__baselibs__result</text><line style="stroke:#181818;stroke-width:0.5;" x1="3932.5" x2="4174.9609" y1="190.5" y2="190.5"/></g><!--class comp_arc_sta__baselibs__concurrency--><g id="elem_comp_arc_sta__baselibs__concurrency"><rect fill="#F1F1F1" height="40" id="comp_arc_sta__baselibs__concurrency" rx="2.5" ry="2.5" style="stroke:#181818;stroke-width:0.5;" width="300.2012" x="2369.5" y="275.5"/><ellipse cx="2384.5" cy="291.5" fill="#ADD1B2" rx="11" ry="11" style="stroke:#181818;stroke-width:1;"/><path d="M2387.4688,297.1406 Q2386.8906,297.4375 2386.25,297.5781 Q2385.6094,297.7344 2384.9063,297.7344 Q2382.4063,297.7344 2381.0781,296.0938 Q2379.7656,294.4375 2379.7656,291.3125 Q2379.7656,288.1875 2381.0781,286.5313 Q2382.4063,284.875 2384.9063,284.875 Q2385.6094,284.875 2386.25,285.0313 Q2386.9063,285.1875 2387.4688,285.4844 L2387.4688,288.2031 Q2386.8438,287.625 2386.25,287.3594 Q2385.6563,287.0781 2385.0313,287.0781 Q2383.6875,287.0781 2383,288.1563 Q2382.3125,289.2188 2382.3125,291.3125 Q2382.3125,293.4063 2383,294.4844 Q2383.6875,295.5469 2385.0313,295.5469 Q2385.6563,295.5469 2386.25,295.2813 Q2386.8438,295 2387.4688,294.4219 L2387.4688,297.1406 Z " fill="#000000"/><text fill="#000000" font-family="sans-serif" font-size="14" lengthAdjust="spacing" textLength="268.2012" x="2398.5" y="296.3467">comp_arc_sta__baselibs__concurrency</text><line style="stroke:#181818;stroke-width:0.5;" x1="2370.5" x2="2668.7012" y1="307.5" y2="307.5"/></g><!--class logic_arc_int__baselibs__future--><g id="elem_logic_arc_int__baselibs__future"><rect fill="#F1F1F1" height="40" id="logic_arc_int__baselibs__future" rx="2.5" ry="2.5" style="stroke:#181818;stroke-width:0.5;" width="247.0791" x="1678" y="158.5"/><ellipse cx="1693" cy="174.5" fill="#ADD1B2" rx="11" ry="11" style="stroke:#181818;stroke-width:1;"/><path d="M1695.9688,180.1406 Q1695.3906,180.4375 1694.75,180.5781 Q1694.1094,180.7344 1693.4063,180.7344 Q1690.9063,180.7344 1689.5781,179.0938 Q1688.2656,177.4375 1688.2656,174.3125 Q1688.2656,171.1875 1689.5781,169.5313 Q1690.9063,167.875 1693.4063,167.875 Q1694.1094,167.875 1694.75,168.0313 Q1695.4063,168.1875 1695.9688,168.4844 L1695.9688,171.2031 Q1695.3438,170.625 1694.75,170.3594 Q1694.1563,170.0781 1693.5313,170.0781 Q1692.1875,170.0781 1691.5,171.1563 Q1690.8125,172.2188 1690.8125,174.3125 Q1690.8125,176.4063 1691.5,177.4844 Q1692.1875,178.5469 1693.5313,178.5469 Q1694.1563,178.5469 1694.75,178.2813 Q1695.3438,178 1695.9688,177.4219 L1695.9688,180.1406 Z " fill="#000000"/><text fill="#000000" font-family="sans-serif" font-size="14" lengthAdjust="spacing" textLength="215.0791" x="1707" y="179.3467">logic_arc_int__baselibs__future</text><line style="stroke:#181818;stroke-width:0.5;" x1="1679" x2="1924.0791" y1="190.5" y2="190.5"/></g><!--class comp_arc_sta__baselibs__utils--><g id="elem_comp_arc_sta__baselibs__utils"><rect fill="#F1F1F1" height="40" id="comp_arc_sta__baselibs__utils" rx="2.5" ry="2.5" style="stroke:#181818;stroke-width:0.5;" width="242.9502" x="4715" y="275.5"/><ellipse cx="4730" cy="291.5" fill="#ADD1B2" rx="11" ry="11" style="stroke:#181818;stroke-width:1;"/><path d="M4732.9688,297.1406 Q4732.3906,297.4375 4731.75,297.5781 Q4731.1094,297.7344 4730.4063,297.7344 Q4727.9063,297.7344 4726.5781,296.0938 Q4725.2656,294.4375 4725.2656,291.3125 Q4725.2656,288.1875 4726.5781,286.5313 Q4727.9063,284.875 4730.4063,284.875 Q4731.1094,284.875 4731.75,285.0313 Q4732.4063,285.1875 4732.9688,285.4844 L4732.9688,288.2031 Q4732.3438,287.625 4731.75,287.3594 Q4731.1563,287.0781 4730.5313,287.0781 Q4729.1875,287.0781 4728.5,288.1563 Q4727.8125,289.2188 4727.8125,291.3125 Q4727.8125,293.4063 4728.5,294.4844 Q4729.1875,295.5469 4730.5313,295.5469 Q4731.1563,295.5469 4731.75,295.2813 Q4732.3438,295 4732.9688,294.4219 L4732.9688,297.1406 Z " fill="#000000"/><text fill="#000000" font-family="sans-serif" font-size="14" lengthAdjust="spacing" textLength="210.9502" x="4744" y="296.3467">comp_arc_sta__baselibs__utils</text><line style="stroke:#181818;stroke-width:0.5;" x1="4716" x2="4956.9502" y1="307.5" y2="307.5"/></g><!--class logic_arc_int__baselibs__utils_scoped_op--><g id="elem_logic_arc_int__baselibs__utils_scoped_op"><rect fill="#F1F1F1" height="40" id="logic_arc_int__baselibs__utils_scoped_op" rx="2.5" ry="2.5" style="stroke:#181818;stroke-width:0.5;" width="315.377" x="4849" y="158.5"/><ellipse cx="4864" cy="174.5" fill="#ADD1B2" rx="11" ry="11" style="stroke:#181818;stroke-width:1;"/><path d="M4866.9688,180.1406 Q4866.3906,180.4375 4865.75,180.5781 Q4865.1094,180.7344 4864.4063,180.7344 Q4861.9063,180.7344 4860.5781,179.0938 Q4859.2656,177.4375 4859.2656,174.3125 Q4859.2656,171.1875 4860.5781,169.5313 Q4861.9063,167.875 4864.4063,167.875 Q4865.1094,167.875 4865.75,168.0313 Q4866.4063,168.1875 4866.9688,168.4844 L4866.9688,171.2031 Q4866.3438,170.625 4865.75,170.3594 Q4865.1563,170.0781 4864.5313,170.0781 Q4863.1875,170.0781 4862.5,171.1563 Q4861.8125,172.2188 4861.8125,174.3125 Q4861.8125,176.4063 4862.5,177.4844 Q4863.1875,178.5469 4864.5313,178.5469 Q4865.1563,178.5469 4865.75,178.2813 Q4866.3438,178 4866.9688,177.4219 L4866.9688,180.1406 Z " fill="#000000"/><text fill="#000000" font-family="sans-serif" font-size="14" lengthAdjust="spacing" textLength="283.377" x="4878" y="179.3467">logic_arc_int__baselibs__utils_scoped_op</text><line style="stroke:#181818;stroke-width:0.5;" x1="4850" x2="5163.377" y1="190.5" y2="190.5"/></g><!--class logic_arc_int__baselibs__synchronized_queue--><g id="elem_logic_arc_int__baselibs__synchronized_queue"><rect fill="#F1F1F1" height="40" id="logic_arc_int__baselibs__synchronized_queue" rx="2.5" ry="2.5" style="stroke:#181818;stroke-width:0.5;" width="348.3604" x="3548.5" y="158.5"/><ellipse cx="3563.5" cy="174.5" fill="#ADD1B2" rx="11" ry="11" style="stroke:#181818;stroke-width:1;"/><path d="M3566.4688,180.1406 Q3565.8906,180.4375 3565.25,180.5781 Q3564.6094,180.7344 3563.9063,180.7344 Q3561.4063,180.7344 3560.0781,179.0938 Q3558.7656,177.4375 3558.7656,174.3125 Q3558.7656,171.1875 3560.0781,169.5313 Q3561.4063,167.875 3563.9063,167.875 Q3564.6094,167.875 3565.25,168.0313 Q3565.9063,168.1875 3566.4688,168.4844 L3566.4688,171.2031 Q3565.8438,170.625 3565.25,170.3594 Q3564.6563,170.0781 3564.0313,170.0781 Q3562.6875,170.0781 3562,171.1563 Q3561.3125,172.2188 3561.3125,174.3125 Q3561.3125,176.4063 3562,177.4844 Q3562.6875,178.5469 3564.0313,178.5469 Q3564.6563,178.5469 3565.25,178.2813 Q3565.8438,178 3566.4688,177.4219 L3566.4688,180.1406 Z " fill="#000000"/><text fill="#000000" font-family="sans-serif" font-size="14" lengthAdjust="spacing" textLength="316.3604" x="3577.5" y="179.3467">logic_arc_int__baselibs__synchronized_queue</text><line style="stroke:#181818;stroke-width:0.5;" x1="3549.5" x2="3895.8604" y1="190.5" y2="190.5"/></g><!--class logic_arc_int__baselibs__task--><g id="elem_logic_arc_int__baselibs__task"><rect fill="#F1F1F1" height="40" id="logic_arc_int__baselibs__task" rx="2.5" ry="2.5" style="stroke:#181818;stroke-width:0.5;" width="234.0156" x="2910.5" y="158.5"/><ellipse cx="2925.5" cy="174.5" fill="#ADD1B2" rx="11" ry="11" style="stroke:#181818;stroke-width:1;"/><path d="M2928.4688,180.1406 Q2927.8906,180.4375 2927.25,180.5781 Q2926.6094,180.7344 2925.9063,180.7344 Q2923.4063,180.7344 2922.0781,179.0938 Q2920.7656,177.4375 2920.7656,174.3125 Q2920.7656,171.1875 2922.0781,169.5313 Q2923.4063,167.875 2925.9063,167.875 Q2926.6094,167.875 2927.25,168.0313 Q2927.9063,168.1875 2928.4688,168.4844 L2928.4688,171.2031 Q2927.8438,170.625 2927.25,170.3594 Q2926.6563,170.0781 2926.0313,170.0781 Q2924.6875,170.0781 2924,171.1563 Q2923.3125,172.2188 2923.3125,174.3125 Q2923.3125,176.4063 2924,177.4844 Q2924.6875,178.5469 2926.0313,178.5469 Q2926.6563,178.5469 2927.25,178.2813 Q2927.8438,178 2928.4688,177.4219 L2928.4688,180.1406 Z " fill="#000000"/><text fill="#000000" font-family="sans-serif" font-size="14" lengthAdjust="spacing" textLength="202.0156" x="2939.5" y="179.3467">logic_arc_int__baselibs__task</text><line style="stroke:#181818;stroke-width:0.5;" x1="2911.5" x2="3143.5156" y1="190.5" y2="190.5"/></g><!--class logic_arc_int__baselibs__filesystem--><g id="elem_logic_arc_int__baselibs__filesystem"><rect fill="#F1F1F1" height="40" id="logic_arc_int__baselibs__filesystem" rx="2.5" ry="2.5" style="stroke:#181818;stroke-width:0.5;" width="276.4805" x="4210.5" y="158.5"/><ellipse cx="4225.5" cy="174.5" fill="#ADD1B2" rx="11" ry="11" style="stroke:#181818;stroke-width:1;"/><path d="M4228.4688,180.1406 Q4227.8906,180.4375 4227.25,180.5781 Q4226.6094,180.7344 4225.9063,180.7344 Q4223.4063,180.7344 4222.0781,179.0938 Q4220.7656,177.4375 4220.7656,174.3125 Q4220.7656,171.1875 4222.0781,169.5313 Q4223.4063,167.875 4225.9063,167.875 Q4226.6094,167.875 4227.25,168.0313 Q4227.9063,168.1875 4228.4688,168.4844 L4228.4688,171.2031 Q4227.8438,170.625 4227.25,170.3594 Q4226.6563,170.0781 4226.0313,170.0781 Q4224.6875,170.0781 4224,171.1563 Q4223.3125,172.2188 4223.3125,174.3125 Q4223.3125,176.4063 4224,177.4844 Q4224.6875,178.5469 4226.0313,178.5469 Q4226.6563,178.5469 4227.25,178.2813 Q4227.8438,178 4228.4688,177.4219 L4228.4688,180.1406 Z " fill="#000000"/><text fill="#000000" font-family="sans-serif" font-size="14" lengthAdjust="spacing" textLength="244.4805" x="4239.5" y="179.3467">logic_arc_int__baselibs__filesystem</text><line style="stroke:#181818;stroke-width:0.5;" x1="4211.5" x2="4485.9805" y1="190.5" y2="190.5"/></g><!--class logic_arc_int__baselibs__utils_base64--><g id="elem_logic_arc_int__baselibs__utils_base64"><rect fill="#F1F1F1" height="40" id="logic_arc_int__baselibs__utils_base64" rx="2.5" ry="2.5" style="stroke:#181818;stroke-width:0.5;" width="292.1689" x="4521.5" y="158.5"/><ellipse cx="4536.5" cy="174.5" fill="#ADD1B2" rx="11" ry="11" style="stroke:#181818;stroke-width:1;"/><path d="M4539.4688,180.1406 Q4538.8906,180.4375 4538.25,180.5781 Q4537.6094,180.7344 4536.9063,180.7344 Q4534.4063,180.7344 4533.0781,179.0938 Q4531.7656,177.4375 4531.7656,174.3125 Q4531.7656,171.1875 4533.0781,169.5313 Q4534.4063,167.875 4536.9063,167.875 Q4537.6094,167.875 4538.25,168.0313 Q4538.9063,168.1875 4539.4688,168.4844 L4539.4688,171.2031 Q4538.8438,170.625 4538.25,170.3594 Q4537.6563,170.0781 4537.0313,170.0781 Q4535.6875,170.0781 4535,171.1563 Q4534.3125,172.2188 4534.3125,174.3125 Q4534.3125,176.4063 4535,177.4844 Q4535.6875,178.5469 4537.0313,178.5469 Q4537.6563,178.5469 4538.25,178.2813 Q4538.8438,178 4539.4688,177.4219 L4539.4688,180.1406 Z " fill="#000000"/><text fill="#000000" font-family="sans-serif" font-size="14" lengthAdjust="spacing" textLength="260.1689" x="4550.5" y="179.3467">logic_arc_int__baselibs__utils_base64</text><line style="stroke:#181818;stroke-width:0.5;" x1="4522.5" x2="4812.6689" y1="190.5" y2="190.5"/></g><!--class logic_arc_int__baselibs__condition_variable--><g id="elem_logic_arc_int__baselibs__condition_variable"><rect fill="#F1F1F1" height="40" id="logic_arc_int__baselibs__condition_variable" rx="2.5" ry="2.5" style="stroke:#181818;stroke-width:0.5;" width="332.7539" x="3180" y="158.5"/><ellipse cx="3195" cy="174.5" fill="#ADD1B2" rx="11" ry="11" style="stroke:#181818;stroke-width:1;"/><path d="M3197.9688,180.1406 Q3197.3906,180.4375 3196.75,180.5781 Q3196.1094,180.7344 3195.4063,180.7344 Q3192.9063,180.7344 3191.5781,179.0938 Q3190.2656,177.4375 3190.2656,174.3125 Q3190.2656,171.1875 3191.5781,169.5313 Q3192.9063,167.875 3195.4063,167.875 Q3196.1094,167.875 3196.75,168.0313 Q3197.4063,168.1875 3197.9688,168.4844 L3197.9688,171.2031 Q3197.3438,170.625 3196.75,170.3594 Q3196.1563,170.0781 3195.5313,170.0781 Q3194.1875,170.0781 3193.5,171.1563 Q3192.8125,172.2188 3192.8125,174.3125 Q3192.8125,176.4063 3193.5,177.4844 Q3194.1875,178.5469 3195.5313,178.5469 Q3196.1563,178.5469 3196.75,178.2813 Q3197.3438,178 3197.9688,177.4219 L3197.9688,180.1406 Z " fill="#000000"/><text fill="#000000" font-family="sans-serif" font-size="14" lengthAdjust="spacing" textLength="300.7539" x="3209" y="179.3467">logic_arc_int__baselibs__condition_variable</text><line style="stroke:#181818;stroke-width:0.5;" x1="3181" x2="3511.7539" y1="190.5" y2="190.5"/></g><!--class logic_arc_int__baselibs__shared_future--><g id="elem_logic_arc_int__baselibs__shared_future"><rect fill="#F1F1F1" height="40" id="logic_arc_int__baselibs__shared_future" rx="2.5" ry="2.5" style="stroke:#181818;stroke-width:0.5;" width="302.0811" x="2256.5" y="158.5"/><ellipse cx="2271.5" cy="174.5" fill="#ADD1B2" rx="11" ry="11" style="stroke:#181818;stroke-width:1;"/><path d="M2274.4688,180.1406 Q2273.8906,180.4375 2273.25,180.5781 Q2272.6094,180.7344 2271.9063,180.7344 Q2269.4063,180.7344 2268.0781,179.0938 Q2266.7656,177.4375 2266.7656,174.3125 Q2266.7656,171.1875 2268.0781,169.5313 Q2269.4063,167.875 2271.9063,167.875 Q2272.6094,167.875 2273.25,168.0313 Q2273.9063,168.1875 2274.4688,168.4844 L2274.4688,171.2031 Q2273.8438,170.625 2273.25,170.3594 Q2272.6563,170.0781 2272.0313,170.0781 Q2270.6875,170.0781 2270,171.1563 Q2269.3125,172.2188 2269.3125,174.3125 Q2269.3125,176.4063 2270,177.4844 Q2270.6875,178.5469 2272.0313,178.5469 Q2272.6563,178.5469 2273.25,178.2813 Q2273.8438,178 2274.4688,177.4219 L2274.4688,180.1406 Z " fill="#000000"/><text fill="#000000" font-family="sans-serif" font-size="14" lengthAdjust="spacing" textLength="270.0811" x="2285.5" y="179.3467">logic_arc_int__baselibs__shared_future</text><line style="stroke:#181818;stroke-width:0.5;" x1="2257.5" x2="2557.5811" y1="190.5" y2="190.5"/></g><!--class comp_arc_sta__baselibs__filesystem--><g id="elem_comp_arc_sta__baselibs__filesystem"><rect fill="#F1F1F1" height="40" id="comp_arc_sta__baselibs__filesystem" rx="2.5" ry="2.5" style="stroke:#181818;stroke-width:0.5;" width="285.4492" x="4210" y="275.5"/><ellipse cx="4225" cy="291.5" fill="#ADD1B2" rx="11" ry="11" style="stroke:#181818;stroke-width:1;"/><path d="M4227.9688,297.1406 Q4227.3906,297.4375 4226.75,297.5781 Q4226.1094,297.7344 4225.4063,297.7344 Q4222.9063,297.7344 4221.5781,296.0938 Q4220.2656,294.4375 4220.2656,291.3125 Q4220.2656,288.1875 4221.5781,286.5313 Q4222.9063,284.875 4225.4063,284.875 Q4226.1094,284.875 4226.75,285.0313 Q4227.4063,285.1875 4227.9688,285.4844 L4227.9688,288.2031 Q4227.3438,287.625 4226.75,287.3594 Q4226.1563,287.0781 4225.5313,287.0781 Q4224.1875,287.0781 4223.5,288.1563 Q4222.8125,289.2188 4222.8125,291.3125 Q4222.8125,293.4063 4223.5,294.4844 Q4224.1875,295.5469 4225.5313,295.5469 Q4226.1563,295.5469 4226.75,295.2813 Q4227.3438,295 4227.9688,294.4219 L4227.9688,297.1406 Z " fill="#000000"/><text fill="#000000" font-family="sans-serif" font-size="14" lengthAdjust="spacing" textLength="253.4492" x="4239" y="296.3467">comp_arc_sta__baselibs__filesystem</text><line style="stroke:#181818;stroke-width:0.5;" x1="4211" x2="4494.4492" y1="307.5" y2="307.5"/></g><!--class logic_arc_int__baselibs__dynamic_array--><g id="elem_logic_arc_int__baselibs__dynamic_array"><rect fill="#F1F1F1" height="40" id="logic_arc_int__baselibs__dynamic_array" rx="2.5" ry="2.5" style="stroke:#181818;stroke-width:0.5;" width="308.3496" x="5527.5" y="158.5"/><ellipse cx="5542.5" cy="174.5" fill="#ADD1B2" rx="11" ry="11" style="stroke:#181818;stroke-width:1;"/><path d="M5545.4688,180.1406 Q5544.8906,180.4375 5544.25,180.5781 Q5543.6094,180.7344 5542.9063,180.7344 Q5540.4063,180.7344 5539.0781,179.0938 Q5537.7656,177.4375 5537.7656,174.3125 Q5537.7656,171.1875 5539.0781,169.5313 Q5540.4063,167.875 5542.9063,167.875 Q5543.6094,167.875 5544.25,168.0313 Q5544.9063,168.1875 5545.4688,168.4844 L5545.4688,171.2031 Q5544.8438,170.625 5544.25,170.3594 Q5543.6563,170.0781 5543.0313,170.0781 Q5541.6875,170.0781 5541,171.1563 Q5540.3125,172.2188 5540.3125,174.3125 Q5540.3125,176.4063 5541,177.4844 Q5541.6875,178.5469 5543.0313,178.5469 Q5543.6563,178.5469 5544.25,178.2813 Q5544.8438,178 5545.4688,177.4219 L5545.4688,180.1406 Z " fill="#000000"/><text fill="#000000" font-family="sans-serif" font-size="14" lengthAdjust="spacing" textLength="276.3496" x="5556.5" y="179.3467">logic_arc_int__baselibs__dynamic_array</text><line style="stroke:#181818;stroke-width:0.5;" x1="5528.5" x2="5834.8496" y1="190.5" y2="190.5"/></g><!--class logic_arc_int__baselibs__promise--><g id="elem_logic_arc_int__baselibs__promise"><rect fill="#F1F1F1" height="40" id="logic_arc_int__baselibs__promise" rx="2.5" ry="2.5" style="stroke:#181818;stroke-width:0.5;" width="261.1885" x="1960" y="158.5"/><ellipse cx="1975" cy="174.5" fill="#ADD1B2" rx="11" ry="11" style="stroke:#181818;stroke-width:1;"/><path d="M1977.9688,180.1406 Q1977.3906,180.4375 1976.75,180.5781 Q1976.1094,180.7344 1975.4063,180.7344 Q1972.9063,180.7344 1971.5781,179.0938 Q1970.2656,177.4375 1970.2656,174.3125 Q1970.2656,171.1875 1971.5781,169.5313 Q1972.9063,167.875 1975.4063,167.875 Q1976.1094,167.875 1976.75,168.0313 Q1977.4063,168.1875 1977.9688,168.4844 L1977.9688,171.2031 Q1977.3438,170.625 1976.75,170.3594 Q1976.1563,170.0781 1975.5313,170.0781 Q1974.1875,170.0781 1973.5,171.1563 Q1972.8125,172.2188 1972.8125,174.3125 Q1972.8125,176.4063 1973.5,177.4844 Q1974.1875,178.5469 1975.5313,178.5469 Q1976.1563,178.5469 1976.75,178.2813 Q1977.3438,178 1977.9688,177.4219 L1977.9688,180.1406 Z " fill="#000000"/><text fill="#000000" font-family="sans-serif" font-size="14" lengthAdjust="spacing" textLength="229.1885" x="1989" y="179.3467">logic_arc_int__baselibs__promise</text><line style="stroke:#181818;stroke-width:0.5;" x1="1961" x2="2220.1885" y1="190.5" y2="190.5"/></g><!--class logic_arc_int__baselibs__bit_manipulation--><g id="elem_logic_arc_int__baselibs__bit_manipulation"><rect fill="#F1F1F1" height="40" id="logic_arc_int__baselibs__bit_manipulation" rx="2.5" ry="2.5" style="stroke:#181818;stroke-width:0.5;" width="321.8369" x="1019.5" y="158.5"/><ellipse cx="1034.5" cy="174.5" fill="#ADD1B2" rx="11" ry="11" style="stroke:#181818;stroke-width:1;"/><path d="M1037.4688,180.1406 Q1036.8906,180.4375 1036.25,180.5781 Q1035.6094,180.7344 1034.9063,180.7344 Q1032.4063,180.7344 1031.0781,179.0938 Q1029.7656,177.4375 1029.7656,174.3125 Q1029.7656,171.1875 1031.0781,169.5313 Q1032.4063,167.875 1034.9063,167.875 Q1035.6094,167.875 1036.25,168.0313 Q1036.9063,168.1875 1037.4688,168.4844 L1037.4688,171.2031 Q1036.8438,170.625 1036.25,170.3594 Q1035.6563,170.0781 1035.0313,170.0781 Q1033.6875,170.0781 1033,171.1563 Q1032.3125,172.2188 1032.3125,174.3125 Q1032.3125,176.4063 1033,177.4844 Q1033.6875,178.5469 1035.0313,178.5469 Q1035.6563,178.5469 1036.25,178.2813 Q1036.8438,178 1037.4688,177.4219 L1037.4688,180.1406 Z " fill="#000000"/><text fill="#000000" font-family="sans-serif" font-size="14" lengthAdjust="spacing" textLength="289.8369" x="1048.5" y="179.3467">logic_arc_int__baselibs__bit_manipulation</text><line style="stroke:#181818;stroke-width:0.5;" x1="1020.5" x2="1340.3369" y1="190.5" y2="190.5"/></g><!--class comp_arc_sta__baselibs__bit_manipulation--><g id="elem_comp_arc_sta__baselibs__bit_manipulation"><rect fill="#F1F1F1" height="40" id="comp_arc_sta__baselibs__bit_manipulation" rx="2.5" ry="2.5" style="stroke:#181818;stroke-width:0.5;" width="330.8057" x="775" y="275.5"/><ellipse cx="790" cy="291.5" fill="#ADD1B2" rx="11" ry="11" style="stroke:#181818;stroke-width:1;"/><path d="M792.9688,297.1406 Q792.3906,297.4375 791.75,297.5781 Q791.1094,297.7344 790.4063,297.7344 Q787.9063,297.7344 786.5781,296.0938 Q785.2656,294.4375 785.2656,291.3125 Q785.2656,288.1875 786.5781,286.5313 Q787.9063,284.875 790.4063,284.875 Q791.1094,284.875 791.75,285.0313 Q792.4063,285.1875 792.9688,285.4844 L792.9688,288.2031 Q792.3438,287.625 791.75,287.3594 Q791.1563,287.0781 790.5313,287.0781 Q789.1875,287.0781 788.5,288.1563 Q787.8125,289.2188 787.8125,291.3125 Q787.8125,293.4063 788.5,294.4844 Q789.1875,295.5469 790.5313,295.5469 Q791.1563,295.5469 791.75,295.2813 Q792.3438,295 792.9688,294.4219 L792.9688,297.1406 Z " fill="#000000"/><text fill="#000000" font-family="sans-serif" font-size="14" lengthAdjust="spacing" textLength="298.8057" x="804" y="296.3467">comp_arc_sta__baselibs__bit_manipulation</text><line style="stroke:#181818;stroke-width:0.5;" x1="776" x2="1104.8057" y1="307.5" y2="307.5"/></g><!--class logic_arc_int__baselibs__bit_mask_operator--><g id="elem_logic_arc_int__baselibs__bit_mask_operator"><rect fill="#F1F1F1" height="40" id="logic_arc_int__baselibs__bit_mask_operator" rx="2.5" ry="2.5" style="stroke:#181818;stroke-width:0.5;" width="334.6406" x="649" y="158.5"/><ellipse cx="664" cy="174.5" fill="#ADD1B2" rx="11" ry="11" style="stroke:#181818;stroke-width:1;"/><path d="M666.9688,180.1406 Q666.3906,180.4375 665.75,180.5781 Q665.1094,180.7344 664.4063,180.7344 Q661.9063,180.7344 660.5781,179.0938 Q659.2656,177.4375 659.2656,174.3125 Q659.2656,171.1875 660.5781,169.5313 Q661.9063,167.875 664.4063,167.875 Q665.1094,167.875 665.75,168.0313 Q666.4063,168.1875 666.9688,168.4844 L666.9688,171.2031 Q666.3438,170.625 665.75,170.3594 Q665.1563,170.0781 664.5313,170.0781 Q663.1875,170.0781 662.5,171.1563 Q661.8125,172.2188 661.8125,174.3125 Q661.8125,176.4063 662.5,177.4844 Q663.1875,178.5469 664.5313,178.5469 Q665.1563,178.5469 665.75,178.2813 Q666.3438,178 666.9688,177.4219 L666.9688,180.1406 Z " fill="#000000"/><text fill="#000000" font-family="sans-serif" font-size="14" lengthAdjust="spacing" textLength="302.6406" x="678" y="179.3467">logic_arc_int__baselibs__bit_mask_operator</text><line style="stroke:#181818;stroke-width:0.5;" x1="650" x2="982.6406" y1="190.5" y2="190.5"/></g><!--class logic_arc_int__baselibs__task_result--><g id="elem_logic_arc_int__baselibs__task_result"><rect fill="#F1F1F1" height="40" id="logic_arc_int__baselibs__task_result" rx="2.5" ry="2.5" style="stroke:#181818;stroke-width:0.5;" width="280.9307" x="2594" y="158.5"/><ellipse cx="2609" cy="174.5" fill="#ADD1B2" rx="11" ry="11" style="stroke:#181818;stroke-width:1;"/><path d="M2611.9688,180.1406 Q2611.3906,180.4375 2610.75,180.5781 Q2610.1094,180.7344 2609.4063,180.7344 Q2606.9063,180.7344 2605.5781,179.0938 Q2604.2656,177.4375 2604.2656,174.3125 Q2604.2656,171.1875 2605.5781,169.5313 Q2606.9063,167.875 2609.4063,167.875 Q2610.1094,167.875 2610.75,168.0313 Q2611.4063,168.1875 2611.9688,168.4844 L2611.9688,171.2031 Q2611.3438,170.625 2610.75,170.3594 Q2610.1563,170.0781 2609.5313,170.0781 Q2608.1875,170.0781 2607.5,171.1563 Q2606.8125,172.2188 2606.8125,174.3125 Q2606.8125,176.4063 2607.5,177.4844 Q2608.1875,178.5469 2609.5313,178.5469 Q2610.1563,178.5469 2610.75,178.2813 Q2611.3438,178 2611.9688,177.4219 L2611.9688,180.1406 Z " fill="#000000"/><text fill="#000000" font-family="sans-serif" font-size="14" lengthAdjust="spacing" textLength="248.9307" x="2623" y="179.3467">logic_arc_int__baselibs__task_result</text><line style="stroke:#181818;stroke-width:0.5;" x1="2595" x2="2873.9307" y1="190.5" y2="190.5"/></g><!--class comp_arc_sta__baselibs__result--><g id="elem_comp_arc_sta__baselibs__result"><rect fill="#F1F1F1" height="40" id="comp_arc_sta__baselibs__result" rx="2.5" ry="2.5" style="stroke:#181818;stroke-width:0.5;" width="253.4297" x="3922" y="275.5"/><ellipse cx="3937" cy="291.5" fill="#ADD1B2" rx="11" ry="11" style="stroke:#181818;stroke-width:1;"/><path d="M3939.9688,297.1406 Q3939.3906,297.4375 3938.75,297.5781 Q3938.1094,297.7344 3937.4063,297.7344 Q3934.9063,297.7344 3933.5781,296.0938 Q3932.2656,294.4375 3932.2656,291.3125 Q3932.2656,288.1875 3933.5781,286.5313 Q3934.9063,284.875 3937.4063,284.875 Q3938.1094,284.875 3938.75,285.0313 Q3939.4063,285.1875 3939.9688,285.4844 L3939.9688,288.2031 Q3939.3438,287.625 3938.75,287.3594 Q3938.1563,287.0781 3937.5313,287.0781 Q3936.1875,287.0781 3935.5,288.1563 Q3934.8125,289.2188 3934.8125,291.3125 Q3934.8125,293.4063 3935.5,294.4844 Q3936.1875,295.5469 3937.5313,295.5469 Q3938.1563,295.5469 3938.75,295.2813 Q3939.3438,295 3939.9688,294.4219 L3939.9688,297.1406 Z " fill="#000000"/><text fill="#000000" font-family="sans-serif" font-size="14" lengthAdjust="spacing" textLength="221.4297" x="3951" y="296.3467">comp_arc_sta__baselibs__result</text><line style="stroke:#181818;stroke-width:0.5;" x1="3923" x2="4174.4297" y1="307.5" y2="307.5"/></g><!--class logic_arc_int__baselibs__executor--><g id="elem_logic_arc_int__baselibs__executor"><rect fill="#F1F1F1" height="40" id="logic_arc_int__baselibs__executor" rx="2.5" ry="2.5" style="stroke:#181818;stroke-width:0.5;" width="266.4385" x="1376.5" y="158.5"/><ellipse cx="1391.5" cy="174.5" fill="#ADD1B2" rx="11" ry="11" style="stroke:#181818;stroke-width:1;"/><path d="M1394.4688,180.1406 Q1393.8906,180.4375 1393.25,180.5781 Q1392.6094,180.7344 1391.9063,180.7344 Q1389.4063,180.7344 1388.0781,179.0938 Q1386.7656,177.4375 1386.7656,174.3125 Q1386.7656,171.1875 1388.0781,169.5313 Q1389.4063,167.875 1391.9063,167.875 Q1392.6094,167.875 1393.25,168.0313 Q1393.9063,168.1875 1394.4688,168.4844 L1394.4688,171.2031 Q1393.8438,170.625 1393.25,170.3594 Q1392.6563,170.0781 1392.0313,170.0781 Q1390.6875,170.0781 1390,171.1563 Q1389.3125,172.2188 1389.3125,174.3125 Q1389.3125,176.4063 1390,177.4844 Q1390.6875,178.5469 1392.0313,178.5469 Q1392.6563,178.5469 1393.25,178.2813 Q1393.8438,178 1394.4688,177.4219 L1394.4688,180.1406 Z " fill="#000000"/><text fill="#000000" font-family="sans-serif" font-size="14" lengthAdjust="spacing" textLength="234.4385" x="1405.5" y="179.3467">logic_arc_int__baselibs__executor</text><line style="stroke:#181818;stroke-width:0.5;" x1="1377.5" x2="1641.9385" y1="190.5" y2="190.5"/></g><!--class comp_arc_sta__baselibs__json--><g id="elem_comp_arc_sta__baselibs__json"><rect fill="#F1F1F1" height="40" id="comp_arc_sta__baselibs__json" rx="2.5" ry="2.5" style="stroke:#181818;stroke-width:0.5;" width="242.1367" x="379.5" y="275.5"/><ellipse cx="394.5" cy="291.5" fill="#ADD1B2" rx="11" ry="11" style="stroke:#181818;stroke-width:1;"/><path d="M397.4688,297.1406 Q396.8906,297.4375 396.25,297.5781 Q395.6094,297.7344 394.9063,297.7344 Q392.4063,297.7344 391.0781,296.0938 Q389.7656,294.4375 389.7656,291.3125 Q389.7656,288.1875 391.0781,286.5313 Q392.4063,284.875 394.9063,284.875 Q395.6094,284.875 396.25,285.0313 Q396.9063,285.1875 397.4688,285.4844 L397.4688,288.2031 Q396.8438,287.625 396.25,287.3594 Q395.6563,287.0781 395.0313,287.0781 Q393.6875,287.0781 393,288.1563 Q392.3125,289.2188 392.3125,291.3125 Q392.3125,293.4063 393,294.4844 Q393.6875,295.5469 395.0313,295.5469 Q395.6563,295.5469 396.25,295.2813 Q396.8438,295 397.4688,294.4219 L397.4688,297.1406 Z " fill="#000000"/><text fill="#000000" font-family="sans-serif" font-size="14" lengthAdjust="spacing" textLength="210.1367" x="408.5" y="296.3467">comp_arc_sta__baselibs__json</text><line style="stroke:#181818;stroke-width:0.5;" x1="380.5" x2="620.6367" y1="307.5" y2="307.5"/></g><!--class logic_arc_int__baselibs__json--><g id="elem_logic_arc_int__baselibs__json"><rect fill="#F1F1F1" height="40" id="logic_arc_int__baselibs__json" rx="2.5" ry="2.5" style="stroke:#181818;stroke-width:0.5;" width="233.168" x="381" y="158.5"/><ellipse cx="396" cy="174.5" fill="#ADD1B2" rx="11" ry="11" style="stroke:#181818;stroke-width:1;"/><path d="M398.9688,180.1406 Q398.3906,180.4375 397.75,180.5781 Q397.1094,180.7344 396.4063,180.7344 Q393.9063,180.7344 392.5781,179.0938 Q391.2656,177.4375 391.2656,174.3125 Q391.2656,171.1875 392.5781,169.5313 Q393.9063,167.875 396.4063,167.875 Q397.1094,167.875 397.75,168.0313 Q398.4063,168.1875 398.9688,168.4844 L398.9688,171.2031 Q398.3438,170.625 397.75,170.3594 Q397.1563,170.0781 396.5313,170.0781 Q395.1875,170.0781 394.5,171.1563 Q393.8125,172.2188 393.8125,174.3125 Q393.8125,176.4063 394.5,177.4844 Q395.1875,178.5469 396.5313,178.5469 Q397.1563,178.5469 397.75,178.2813 Q398.3438,178 398.9688,177.4219 L398.9688,180.1406 Z " fill="#000000"/><text fill="#000000" font-family="sans-serif" font-size="14" lengthAdjust="spacing" textLength="201.168" x="410" y="179.3467">logic_arc_int__baselibs__json</text><line style="stroke:#181818;stroke-width:0.5;" x1="382" x2="613.168" y1="190.5" y2="190.5"/></g><!--class comp_arc_sta__baselibs__message_passing--><g id="elem_comp_arc_sta__baselibs__message_passing"><rect fill="#F1F1F1" height="40" id="comp_arc_sta__baselibs__message_passing" rx="2.5" ry="2.5" style="stroke:#181818;stroke-width:0.5;" width="337.1357" x="7" y="275.5"/><ellipse cx="22" cy="291.5" fill="#ADD1B2" rx="11" ry="11" style="stroke:#181818;stroke-width:1;"/><path d="M24.9688,297.1406 Q24.3906,297.4375 23.75,297.5781 Q23.1094,297.7344 22.4063,297.7344 Q19.9063,297.7344 18.5781,296.0938 Q17.2656,294.4375 17.2656,291.3125 Q17.2656,288.1875 18.5781,286.5313 Q19.9063,284.875 22.4063,284.875 Q23.1094,284.875 23.75,285.0313 Q24.4063,285.1875 24.9688,285.4844 L24.9688,288.2031 Q24.3438,287.625 23.75,287.3594 Q23.1563,287.0781 22.5313,287.0781 Q21.1875,287.0781 20.5,288.1563 Q19.8125,289.2188 19.8125,291.3125 Q19.8125,293.4063 20.5,294.4844 Q21.1875,295.5469 22.5313,295.5469 Q23.1563,295.5469 23.75,295.2813 Q24.3438,295 24.9688,294.4219 L24.9688,297.1406 Z " fill="#000000"/><text fill="#000000" font-family="sans-serif" font-size="14" lengthAdjust="spacing" textLength="305.1357" x="36" y="296.3467">comp_arc_sta__baselibs__message_passing</text><line style="stroke:#181818;stroke-width:0.5;" x1="8" x2="343.1357" y1="307.5" y2="307.5"/></g><!--link Feature_User to logic_arc_int__baselibs__memory_shared--><g id="link_Feature_User_logic_arc_int__baselibs__memory_shared"><path codeLine="15" d="M3072.65,45.34 C3297.07,49.64 4314.9,70.6 5147.5,111.5 C5461.15,126.91 5539.65,131.29 5852.5,158.5 C5858.35,159.01 5858.3359,158.9933 5864.3459,159.5533 " fill="transparent" id="Feature_User-to-logic_arc_int__baselibs__memory_shared" style="stroke:#181818;stroke-width:1;"/><polygon fill="#181818" points="5870.32,160.11,5861.7299,155.2923,5865.3416,159.6461,5860.9877,163.2578,5870.32,160.11" style="stroke:#181818;stroke-width:1;"/><text fill="#000000" font-family="sans-serif" font-size="13" lengthAdjust="spacing" textLength="23.0103" x="5466.5" y="124.5669">use</text></g><!--link Feature_User to logic_arc_int__baselibs__message_passing--><g id="link_Feature_User_logic_arc_int__baselibs__message_passing"><path codeLine="16" d="M2982.21,45.32 C2763.54,49.43 1795.02,69.26 1002.5,111.5 C718.14,126.66 647.16,133.43 363.5,158.5 C356.94,159.08 356.224,159.1324 349.474,159.7624 " fill="transparent" id="Feature_User-to-logic_arc_int__baselibs__message_passing" style="stroke:#181818;stroke-width:1;"/><polygon fill="#181818" points="343.5,160.32,352.8328,163.4663,348.4784,159.8554,352.0893,155.5009,343.5,160.32" style="stroke:#181818;stroke-width:1;"/><text fill="#000000" font-family="sans-serif" font-size="13" lengthAdjust="spacing" textLength="23.0103" x="1003.5" y="124.5669">use</text></g><!--reverse link logic_arc_int__baselibs__memory_shared to comp_arc_sta__baselibs__memory_shared--><g id="link_logic_arc_int__baselibs__memory_shared_comp_arc_sta__baselibs__memory_shared"><path codeLine="17" d="M6029.5,204.75 C6029.5,225.98 6029.5,253.94 6029.5,275.19 " fill="transparent" id="logic_arc_int__baselibs__memory_shared-backto-comp_arc_sta__baselibs__memory_shared" style="stroke:#181818;stroke-width:1;"/><polygon fill="#181818" points="6029.5,198.75,6025.5,207.75,6029.5,203.75,6033.5,207.75,6029.5,198.75" style="stroke:#181818;stroke-width:1;"/><text fill="#000000" font-family="sans-serif" font-size="13" lengthAdjust="spacing" textLength="76.9082" x="6030.5" y="241.5669">implements</text></g><!--reverse link logic_arc_int__baselibs__intrusive_list to comp_arc_sta__baselibs__containers--><g id="link_logic_arc_int__baselibs__intrusive_list_comp_arc_sta__baselibs__containers"><path codeLine="18" d="M5368.8035,203.0117 C5389.8435,224.2417 5419.29,253.94 5440.36,275.19 " fill="transparent" id="logic_arc_int__baselibs__intrusive_list-backto-comp_arc_sta__baselibs__containers" style="stroke:#181818;stroke-width:1;"/><polygon fill="#181818" points="5364.58,198.75,5368.0742,207.9582,5368.0996,202.3014,5373.7564,202.3268,5364.58,198.75" style="stroke:#181818;stroke-width:1;"/><text fill="#000000" font-family="sans-serif" font-size="13" lengthAdjust="spacing" textLength="76.9082" x="5410.5" y="241.5669">implements</text></g><!--link Feature_User to logic_arc_int__baselibs__result--><g id="link_Feature_User_logic_arc_int__baselibs__result"><path codeLine="19" d="M3072.69,50.2 C3203.12,66.68 3591.39,115.92 3913.5,158.5 C3919.34,159.27 3919.3621,159.2809 3925.3921,160.0809 " fill="transparent" id="Feature_User-to-logic_arc_int__baselibs__result" style="stroke:#181818;stroke-width:1;"/><polygon fill="#181818" points="3931.34,160.87,3922.9442,155.7211,3926.3834,160.2124,3921.8921,163.6516,3931.34,160.87" style="stroke:#181818;stroke-width:1;"/><text fill="#000000" font-family="sans-serif" font-size="13" lengthAdjust="spacing" textLength="23.0103" x="3671.5" y="124.5669">use</text></g><!--reverse link logic_arc_int__baselibs__future to comp_arc_sta__baselibs__concurrency--><g id="link_logic_arc_int__baselibs__future_comp_arc_sta__baselibs__concurrency"><path codeLine="20" d="M1917.1637,199.5242 C1995.7037,212.9942 2098.08,230.3 2193.5,245.5 C2257.93,255.77 2329.63,266.61 2389.34,275.47 " fill="transparent" id="logic_arc_int__baselibs__future-backto-comp_arc_sta__baselibs__concurrency" style="stroke:#181818;stroke-width:1;"/><polygon fill="#181818" points="1911.25,198.51,1919.4443,203.9738,1916.178,199.3552,1920.7966,196.0889,1911.25,198.51" style="stroke:#181818;stroke-width:1;"/><text fill="#000000" font-family="sans-serif" font-size="13" lengthAdjust="spacing" textLength="76.9082" x="2194.5" y="241.5669">implements</text></g><!--reverse link logic_arc_int__baselibs__utils_scoped_op to comp_arc_sta__baselibs__utils--><g id="link_logic_arc_int__baselibs__utils_scoped_op_comp_arc_sta__baselibs__utils"><path codeLine="21" d="M4973.0799,202.1113 C4941.5999,223.4013 4896.16,254.14 4864.76,275.38 " fill="transparent" id="logic_arc_int__baselibs__utils_scoped_op-backto-comp_arc_sta__baselibs__utils" style="stroke:#181818;stroke-width:1;"/><polygon fill="#181818" points="4978.05,198.75,4968.354,200.4785,4973.9083,201.5511,4972.8357,207.1053,4978.05,198.75" style="stroke:#181818;stroke-width:1;"/><text fill="#000000" font-family="sans-serif" font-size="13" lengthAdjust="spacing" textLength="76.9082" x="4933.5" y="241.5669">implements</text></g><!--link Feature_User to logic_arc_int__baselibs__synchronized_queue--><g id="link_Feature_User_logic_arc_int__baselibs__synchronized_queue"><path codeLine="22" d="M3072.57,53.12 C3183.18,74.29 3464.307,128.0922 3617.247,157.3622 " fill="transparent" id="Feature_User-to-logic_arc_int__baselibs__synchronized_queue" style="stroke:#181818;stroke-width:1;"/><polygon fill="#181818" points="3623.14,158.49,3615.0523,152.8696,3618.2291,157.5501,3613.5485,160.727,3623.14,158.49" style="stroke:#181818;stroke-width:1;"/><text fill="#000000" font-family="sans-serif" font-size="13" lengthAdjust="spacing" textLength="23.0103" x="3459.5" y="124.5669">use</text></g><!--reverse link logic_arc_int__baselibs__synchronized_queue to comp_arc_sta__baselibs__concurrency--><g id="link_logic_arc_int__baselibs__synchronized_queue_comp_arc_sta__baselibs__concurrency"><path codeLine="23" d="M3542.3144,199.1616 C3415.2144,212.8316 3244.73,230.74 3089.5,245.5 C2947.12,259.04 2784.56,272.85 2669.58,282.35 " fill="transparent" id="logic_arc_int__baselibs__synchronized_queue-backto-comp_arc_sta__baselibs__concurrency" style="stroke:#181818;stroke-width:1;"/><polygon fill="#181818" points="3548.28,198.52,3538.9039,195.5054,3543.3087,199.0547,3539.7594,203.4595,3548.28,198.52" style="stroke:#181818;stroke-width:1;"/><text fill="#000000" font-family="sans-serif" font-size="13" lengthAdjust="spacing" textLength="76.9082" x="3247.5" y="241.5669">implements</text></g><!--link Feature_User to logic_arc_int__baselibs__task--><g id="link_Feature_User_logic_arc_int__baselibs__task"><path codeLine="24" d="M3027.5,81.55 C3027.5,106.45 3027.5,132.26 3027.5,152.26 " fill="transparent" id="Feature_User-to-logic_arc_int__baselibs__task" style="stroke:#181818;stroke-width:1;"/><polygon fill="#181818" points="3027.5,158.26,3031.5,149.26,3027.5,153.26,3023.5,149.26,3027.5,158.26" style="stroke:#181818;stroke-width:1;"/><text fill="#000000" font-family="sans-serif" font-size="13" lengthAdjust="spacing" textLength="23.0103" x="3028.5" y="124.5669">use</text></g><!--link Feature_User to logic_arc_int__baselibs__filesystem--><g id="link_Feature_User_logic_arc_int__baselibs__filesystem"><path codeLine="25" d="M3072.52,48.52 C3227.99,62.48 3756.67,110.64 4192.5,158.5 C4198.33,159.14 4198.318,159.1354 4204.328,159.8154 " fill="transparent" id="Feature_User-to-logic_arc_int__baselibs__filesystem" style="stroke:#181818;stroke-width:1;"/><polygon fill="#181818" points="4210.29,160.49,4201.7968,155.5035,4205.3217,159.9279,4200.8974,163.4528,4210.29,160.49" style="stroke:#181818;stroke-width:1;"/><text fill="#000000" font-family="sans-serif" font-size="13" lengthAdjust="spacing" textLength="23.0103" x="3906.5" y="124.5669">use</text></g><!--link Feature_User to logic_arc_int__baselibs__utils_base64--><g id="link_Feature_User_logic_arc_int__baselibs__utils_base64"><path codeLine="26" d="M3072.55,47.25 C3252.85,58.41 3939.89,102.42 4503.5,158.5 C4509.35,159.08 4509.3426,159.0655 4515.3626,159.6955 " fill="transparent" id="Feature_User-to-logic_arc_int__baselibs__utils_base64" style="stroke:#181818;stroke-width:1;"/><polygon fill="#181818" points="4521.33,160.32,4512.7952,155.405,4516.3572,159.7996,4511.9626,163.3615,4521.33,160.32" style="stroke:#181818;stroke-width:1;"/><text fill="#000000" font-family="sans-serif" font-size="13" lengthAdjust="spacing" textLength="23.0103" x="4141.5" y="124.5669">use</text></g><!--reverse link logic_arc_int__baselibs__condition_variable to comp_arc_sta__baselibs__concurrency--><g id="link_logic_arc_int__baselibs__condition_variable_comp_arc_sta__baselibs__concurrency"><path codeLine="27" d="M3211.8838,199.4325 C3120.5738,212.8525 3001.03,230.2 2890.5,245.5 C2816.81,255.7 2734.82,266.58 2666.7,275.49 " fill="transparent" id="logic_arc_int__baselibs__condition_variable-backto-comp_arc_sta__baselibs__concurrency" style="stroke:#181818;stroke-width:1;"/><polygon fill="#181818" points="3217.82,198.56,3208.334,195.9112,3212.8731,199.287,3209.4973,203.8262,3217.82,198.56" style="stroke:#181818;stroke-width:1;"/><text fill="#000000" font-family="sans-serif" font-size="13" lengthAdjust="spacing" textLength="76.9082" x="3004.5" y="241.5669">implements</text></g><!--link Feature_User to logic_arc_int__baselibs__utils_scoped_op--><g id="link_Feature_User_logic_arc_int__baselibs__utils_scoped_op"><path codeLine="28" d="M3072.51,46.47 C3276.09,55.57 4131.13,95.76 4830.5,158.5 C4836.47,159.04 4836.5775,159.0261 4842.7175,159.6161 " fill="transparent" id="Feature_User-to-logic_arc_int__baselibs__utils_scoped_op" style="stroke:#181818;stroke-width:1;"/><polygon fill="#181818" points="4848.69,160.19,4840.1139,155.3475,4843.7129,159.7117,4839.3487,163.3108,4848.69,160.19" style="stroke:#181818;stroke-width:1;"/><text fill="#000000" font-family="sans-serif" font-size="13" lengthAdjust="spacing" textLength="23.0103" x="4437.5" y="124.5669">use</text></g><!--reverse link logic_arc_int__baselibs__utils_base64 to comp_arc_sta__baselibs__utils--><g id="link_logic_arc_int__baselibs__utils_base64_comp_arc_sta__baselibs__utils"><path codeLine="29" d="M4700.7506,202.1252 C4732.0406,223.4152 4777.19,254.14 4808.4,275.38 " fill="transparent" id="logic_arc_int__baselibs__utils_base64-backto-comp_arc_sta__baselibs__utils" style="stroke:#181818;stroke-width:1;"/><polygon fill="#181818" points="4695.79,198.75,4700.9808,207.1199,4699.9238,201.5627,4705.4811,200.5058,4695.79,198.75" style="stroke:#181818;stroke-width:1;"/><text fill="#000000" font-family="sans-serif" font-size="13" lengthAdjust="spacing" textLength="76.9082" x="4763.5" y="241.5669">implements</text></g><!--link Feature_User to logic_arc_int__baselibs__condition_variable--><g id="link_Feature_User_logic_arc_int__baselibs__condition_variable"><path codeLine="30" d="M3072.53,63.27 C3133.07,88.51 3234.5721,130.8309 3295.3921,156.1909 " fill="transparent" id="Feature_User-to-logic_arc_int__baselibs__condition_variable" style="stroke:#181818;stroke-width:1;"/><polygon fill="#181818" points="3300.93,158.5,3294.1626,151.3444,3296.3151,156.5757,3291.0838,158.7282,3300.93,158.5" style="stroke:#181818;stroke-width:1;"/><text fill="#000000" font-family="sans-serif" font-size="13" lengthAdjust="spacing" textLength="23.0103" x="3226.5" y="124.5669">use</text></g><!--link Feature_User to logic_arc_int__baselibs__shared_future--><g id="link_Feature_User_logic_arc_int__baselibs__shared_future"><path codeLine="31" d="M2982.41,54.17 C2880.42,76.05 2636.3366,128.4117 2502.0666,157.2117 " fill="transparent" id="Feature_User-to-logic_arc_int__baselibs__shared_future" style="stroke:#181818;stroke-width:1;"/><polygon fill="#181818" points="2496.2,158.47,2505.8387,160.4935,2501.0888,157.4214,2504.161,152.6714,2496.2,158.47" style="stroke:#181818;stroke-width:1;"/><text fill="#000000" font-family="sans-serif" font-size="13" lengthAdjust="spacing" textLength="23.0103" x="2700.5" y="124.5669">use</text></g><!--reverse link logic_arc_int__baselibs__filesystem to comp_arc_sta__baselibs__filesystem--><g id="link_logic_arc_int__baselibs__filesystem_comp_arc_sta__baselibs__filesystem"><path codeLine="32" d="M4349.379,204.7464 C4350.119,225.9764 4351.09,253.94 4351.83,275.19 " fill="transparent" id="logic_arc_int__baselibs__filesystem-backto-comp_arc_sta__baselibs__filesystem" style="stroke:#181818;stroke-width:1;"/><polygon fill="#181818" points="4349.17,198.75,4345.4859,207.8839,4349.3442,203.747,4353.4811,207.6052,4349.17,198.75" style="stroke:#181818;stroke-width:1;"/><text fill="#000000" font-family="sans-serif" font-size="13" lengthAdjust="spacing" textLength="76.9082" x="4352.5" y="241.5669">implements</text></g><!--reverse link logic_arc_int__baselibs__dynamic_array to comp_arc_sta__baselibs__containers--><g id="link_logic_arc_int__baselibs__dynamic_array_comp_arc_sta__baselibs__containers"><path codeLine="33" d="M5639.2627,201.3803 C5598.2127,222.6503 5537.59,254.05 5496.5,275.34 " fill="transparent" id="logic_arc_int__baselibs__dynamic_array-backto-comp_arc_sta__baselibs__containers" style="stroke:#181818;stroke-width:1;"/><polygon fill="#181818" points="5644.59,198.62,5634.7588,199.209,5640.1506,200.9203,5638.4392,206.3121,5644.59,198.62" style="stroke:#181818;stroke-width:1;"/><text fill="#000000" font-family="sans-serif" font-size="13" lengthAdjust="spacing" textLength="76.9082" x="5585.5" y="241.5669">implements</text></g><!--link Feature_User to logic_arc_int__baselibs__promise--><g id="link_Feature_User_logic_arc_int__baselibs__promise"><path codeLine="34" d="M2982.31,50.91 C2845.86,70.28 2440.3505,127.8469 2227.3605,158.0769 " fill="transparent" id="Feature_User-to-logic_arc_int__baselibs__promise" style="stroke:#181818;stroke-width:1;"/><polygon fill="#181818" points="2221.42,158.92,2230.8928,161.6156,2226.3704,158.2174,2229.7686,153.695,2221.42,158.92" style="stroke:#181818;stroke-width:1;"/><text fill="#000000" font-family="sans-serif" font-size="13" lengthAdjust="spacing" textLength="23.0103" x="2532.5" y="124.5669">use</text></g><!--link Feature_User to logic_arc_int__baselibs__bit_manipulation--><g id="link_Feature_User_logic_arc_int__baselibs__bit_manipulation"><path codeLine="35" d="M2982.29,46.72 C2787.64,56.45 2001.84,97.6 1358.5,158.5 C1352.93,159.03 1353.2304,158.975 1347.5104,159.545 " fill="transparent" id="Feature_User-to-logic_arc_int__baselibs__bit_manipulation" style="stroke:#181818;stroke-width:1;"/><polygon fill="#181818" points="1341.54,160.14,1350.8923,163.2279,1346.5154,159.6442,1350.099,155.2673,1341.54,160.14" style="stroke:#181818;stroke-width:1;"/><text fill="#000000" font-family="sans-serif" font-size="13" lengthAdjust="spacing" textLength="23.0103" x="1910.5" y="124.5669">use</text></g><!--link Feature_User to logic_arc_int__baselibs__dynamic_array--><g id="link_Feature_User_logic_arc_int__baselibs__dynamic_array"><path codeLine="36" d="M3072.67,45.7 C3275.13,51.2 4119.35,75.21 4811.5,111.5 C5122,127.78 5199.8,130.98 5509.5,158.5 C5515.34,159.02 5515.3069,159.0026 5521.3069,159.5726 " fill="transparent" id="Feature_User-to-logic_arc_int__baselibs__dynamic_array" style="stroke:#181818;stroke-width:1;"/><polygon fill="#181818" points="5527.28,160.14,5518.6986,155.3068,5522.3024,159.6671,5517.942,163.2709,5527.28,160.14" style="stroke:#181818;stroke-width:1;"/><text fill="#000000" font-family="sans-serif" font-size="13" lengthAdjust="spacing" textLength="23.0103" x="5115.5" y="124.5669">use</text></g><!--reverse link logic_arc_int__baselibs__bit_mask_operator to comp_arc_sta__baselibs__bit_manipulation--><g id="link_logic_arc_int__baselibs__bit_mask_operator_comp_arc_sta__baselibs__bit_manipulation"><path codeLine="37" d="M841.6492,202.8301 C864.5392,224.0601 896.76,253.94 919.68,275.19 " fill="transparent" id="logic_arc_int__baselibs__bit_mask_operator-backto-comp_arc_sta__baselibs__bit_manipulation" style="stroke:#181818;stroke-width:1;"/><polygon fill="#181818" points="837.25,198.75,841.1287,207.803,840.916,202.1501,846.5688,201.9374,837.25,198.75" style="stroke:#181818;stroke-width:1;"/><text fill="#000000" font-family="sans-serif" font-size="13" lengthAdjust="spacing" textLength="76.9082" x="887.5" y="241.5669">implements</text></g><!--link Feature_User to logic_arc_int__baselibs__intrusive_list--><g id="link_Feature_User_logic_arc_int__baselibs__intrusive_list"><path codeLine="38" d="M3072.67,46.28 C3250.48,53.34 3919.32,80.56 4469.5,111.5 C4786.13,129.3 4865.67,129.8 5181.5,158.5 C5187.21,159.02 5187.0591,158.98 5192.9291,159.56 " fill="transparent" id="Feature_User-to-logic_arc_int__baselibs__intrusive_list" style="stroke:#181818;stroke-width:1;"/><polygon fill="#181818" points="5198.9,160.15,5190.3369,155.2844,5193.9242,159.6584,5189.5503,163.2457,5198.9,160.15" style="stroke:#181818;stroke-width:1;"/><text fill="#000000" font-family="sans-serif" font-size="13" lengthAdjust="spacing" textLength="23.0103" x="4779.5" y="124.5669">use</text></g><!--link Feature_User to logic_arc_int__baselibs__task_result--><g id="link_Feature_User_logic_arc_int__baselibs__task_result"><path codeLine="39" d="M2982.36,64.99 C2926.18,90.49 2836.4431,131.2191 2781.8331,156.0191 " fill="transparent" id="Feature_User-to-logic_arc_int__baselibs__task_result" style="stroke:#181818;stroke-width:1;"/><polygon fill="#181818" points="2776.37,158.5,2786.2185,158.4206,2780.9225,156.4326,2782.9106,151.1366,2776.37,158.5" style="stroke:#181818;stroke-width:1;"/><text fill="#000000" font-family="sans-serif" font-size="13" lengthAdjust="spacing" textLength="23.0103" x="2873.5" y="124.5669">use</text></g><!--reverse link logic_arc_int__baselibs__result to comp_arc_sta__baselibs__result--><g id="link_logic_arc_int__baselibs__result_comp_arc_sta__baselibs__result"><path codeLine="40" d="M4052.4002,204.7444 C4051.4802,225.9744 4050.26,253.94 4049.34,275.19 " fill="transparent" id="logic_arc_int__baselibs__result-backto-comp_arc_sta__baselibs__result" style="stroke:#181818;stroke-width:1;"/><polygon fill="#181818" points="4052.66,198.75,4048.2741,207.5684,4052.4435,203.7453,4056.2666,207.9147,4052.66,198.75" style="stroke:#181818;stroke-width:1;"/><text fill="#000000" font-family="sans-serif" font-size="13" lengthAdjust="spacing" textLength="76.9082" x="4052.5" y="241.5669">implements</text></g><!--reverse link logic_arc_int__baselibs__executor to comp_arc_sta__baselibs__concurrency--><g id="link_logic_arc_int__baselibs__executor_comp_arc_sta__baselibs__concurrency"><path codeLine="41" d="M1648.4637,199.0802 C1749.5537,213.0302 1886.17,231.22 2011.5,245.5 C2131.67,259.19 2268.11,272.21 2369.32,281.39 " fill="transparent" id="logic_arc_int__baselibs__executor-backto-comp_arc_sta__baselibs__concurrency" style="stroke:#181818;stroke-width:1;"/><polygon fill="#181818" points="1642.52,198.26,1650.8887,203.4528,1647.4731,198.9435,1651.9823,195.5279,1642.52,198.26" style="stroke:#181818;stroke-width:1;"/><text fill="#000000" font-family="sans-serif" font-size="13" lengthAdjust="spacing" textLength="76.9082" x="2012.5" y="241.5669">implements</text></g><!--link Feature_User to logic_arc_int__baselibs__executor--><g id="link_Feature_User_logic_arc_int__baselibs__executor"><path codeLine="42" d="M2982.29,47.46 C2810.07,58.88 2178.72,102.36 1660.5,158.5 C1654.72,159.13 1654.7802,159.09 1648.8202,159.78 " fill="transparent" id="Feature_User-to-logic_arc_int__baselibs__executor" style="stroke:#181818;stroke-width:1;"/><polygon fill="#181818" points="1642.86,160.47,1652.2603,163.4084,1647.8268,159.895,1651.3403,155.4615,1642.86,160.47" style="stroke:#181818;stroke-width:1;"/><text fill="#000000" font-family="sans-serif" font-size="13" lengthAdjust="spacing" textLength="23.0103" x="2112.5" y="124.5669">use</text></g><!--reverse link logic_arc_int__baselibs__task to comp_arc_sta__baselibs__concurrency--><g id="link_logic_arc_int__baselibs__task_comp_arc_sta__baselibs__concurrency"><path codeLine="43" d="M2937.4781,199.8748 C2843.4381,221.1648 2697.94,254.11 2603.83,275.41 " fill="transparent" id="logic_arc_int__baselibs__task-backto-comp_arc_sta__baselibs__concurrency" style="stroke:#181818;stroke-width:1;"/><polygon fill="#181818" points="2943.33,198.55,2933.6689,196.636,2938.4534,199.654,2935.4354,204.4385,2943.33,198.55" style="stroke:#181818;stroke-width:1;"/><text fill="#000000" font-family="sans-serif" font-size="13" lengthAdjust="spacing" textLength="76.9082" x="2805.5" y="241.5669">implements</text></g><!--reverse link logic_arc_int__baselibs__json to comp_arc_sta__baselibs__json--><g id="link_logic_arc_int__baselibs__json_comp_arc_sta__baselibs__json"><path codeLine="44" d="M498.1582,204.7479 C498.7182,225.9779 499.44,253.94 500,275.19 " fill="transparent" id="logic_arc_int__baselibs__json-backto-comp_arc_sta__baselibs__json" style="stroke:#181818;stroke-width:1;"/><polygon fill="#181818" points="498,198.75,494.2387,207.8523,498.1318,203.7483,502.2359,207.6414,498,198.75" style="stroke:#181818;stroke-width:1;"/><text fill="#000000" font-family="sans-serif" font-size="13" lengthAdjust="spacing" textLength="76.9082" x="500.5" y="241.5669">implements</text></g><!--reverse link logic_arc_int__baselibs__task_result to comp_arc_sta__baselibs__concurrency--><g id="link_logic_arc_int__baselibs__task_result_comp_arc_sta__baselibs__concurrency"><path codeLine="45" d="M2693.2194,201.5801 C2653.4194,222.8701 2594.96,254.14 2555.25,275.38 " fill="transparent" id="logic_arc_int__baselibs__task_result-backto-comp_arc_sta__baselibs__concurrency" style="stroke:#181818;stroke-width:1;"/><polygon fill="#181818" points="2698.51,198.75,2688.6874,199.468,2694.1012,201.1084,2692.4608,206.5222,2698.51,198.75" style="stroke:#181818;stroke-width:1;"/><text fill="#000000" font-family="sans-serif" font-size="13" lengthAdjust="spacing" textLength="76.9082" x="2641.5" y="241.5669">implements</text></g><!--link Feature_User to logic_arc_int__baselibs__future--><g id="link_Feature_User_logic_arc_int__baselibs__future"><path codeLine="46" d="M2982.49,48.75 C2833.88,62.9 2345.42,110.2 1942.5,158.5 C1936.86,159.18 1937.0434,159.1333 1931.2234,159.8633 " fill="transparent" id="Feature_User-to-logic_arc_int__baselibs__future" style="stroke:#181818;stroke-width:1;"/><polygon fill="#181818" points="1925.27,160.61,1934.6978,163.4588,1930.2311,159.9877,1933.7022,155.521,1925.27,160.61" style="stroke:#181818;stroke-width:1;"/><text fill="#000000" font-family="sans-serif" font-size="13" lengthAdjust="spacing" textLength="23.0103" x="2361.5" y="124.5669">use</text></g><!--reverse link logic_arc_int__baselibs__bit_manipulation to comp_arc_sta__baselibs__bit_manipulation--><g id="link_logic_arc_int__baselibs__bit_manipulation_comp_arc_sta__baselibs__bit_manipulation"><path codeLine="47" d="M1135.1891,201.2127 C1090.7991,222.4827 1024.92,254.05 980.5,275.34 " fill="transparent" id="logic_arc_int__baselibs__bit_manipulation-backto-comp_arc_sta__baselibs__bit_manipulation" style="stroke:#181818;stroke-width:1;"/><polygon fill="#181818" points="1140.6,198.62,1130.7552,198.9018,1136.0909,200.7806,1134.2121,206.1163,1140.6,198.62" style="stroke:#181818;stroke-width:1;"/><text fill="#000000" font-family="sans-serif" font-size="13" lengthAdjust="spacing" textLength="76.9082" x="1076.5" y="241.5669">implements</text></g><!--link Feature_User to logic_arc_int__baselibs__json--><g id="link_Feature_User_logic_arc_int__baselibs__json"><path codeLine="48" d="M2982.21,46.07 C2791.42,52.75 2034.33,79.89 1412.5,111.5 C1065.21,129.15 977.49,123.62 631.5,158.5 C625.77,159.08 625.8695,159.0242 619.9595,159.7142 " fill="transparent" id="Feature_User-to-logic_arc_int__baselibs__json" style="stroke:#181818;stroke-width:1;"/><polygon fill="#181818" points="614,160.41,623.4031,163.3393,618.9663,159.8302,622.4754,155.3933,614,160.41" style="stroke:#181818;stroke-width:1;"/><text fill="#000000" font-family="sans-serif" font-size="13" lengthAdjust="spacing" textLength="23.0103" x="1413.5" y="124.5669">use</text></g><!--reverse link logic_arc_int__baselibs__shared_future to comp_arc_sta__baselibs__concurrency--><g id="link_logic_arc_int__baselibs__shared_future_comp_arc_sta__baselibs__concurrency"><path codeLine="49" d="M2430.4356,203.049 C2451.1056,224.279 2479.99,253.94 2500.69,275.19 " fill="transparent" id="logic_arc_int__baselibs__shared_future-backto-comp_arc_sta__baselibs__concurrency" style="stroke:#181818;stroke-width:1;"/><polygon fill="#181818" points="2426.25,198.75,2429.6624,207.9888,2429.738,202.3325,2435.3943,202.4081,2426.25,198.75" style="stroke:#181818;stroke-width:1;"/><text fill="#000000" font-family="sans-serif" font-size="13" lengthAdjust="spacing" textLength="76.9082" x="2471.5" y="241.5669">implements</text></g><!--reverse link logic_arc_int__baselibs__message_passing to comp_arc_sta__baselibs__message_passing--><g id="link_logic_arc_int__baselibs__message_passing_comp_arc_sta__baselibs__message_passing"><path codeLine="50" d="M178.621,204.7464 C177.881,225.9764 176.91,253.94 176.17,275.19 " fill="transparent" id="logic_arc_int__baselibs__message_passing-backto-comp_arc_sta__baselibs__message_passing" style="stroke:#181818;stroke-width:1;"/><polygon fill="#181818" points="178.83,198.75,174.5189,207.6052,178.6558,203.747,182.5141,207.8839,178.83,198.75" style="stroke:#181818;stroke-width:1;"/><text fill="#000000" font-family="sans-serif" font-size="13" lengthAdjust="spacing" textLength="76.9082" x="179.5" y="241.5669">implements</text></g><!--reverse link logic_arc_int__baselibs__promise to comp_arc_sta__baselibs__concurrency--><g id="link_logic_arc_int__baselibs__promise_comp_arc_sta__baselibs__concurrency"><path codeLine="51" d="M2167.6154,200.1735 C2247.0754,221.4735 2368.98,254.15 2448.36,275.43 " fill="transparent" id="logic_arc_int__baselibs__promise-backto-comp_arc_sta__baselibs__concurrency" style="stroke:#181818;stroke-width:1;"/><polygon fill="#181818" points="2161.82,198.62,2169.4774,204.8139,2166.6495,199.9146,2171.5488,197.0867,2161.82,198.62" style="stroke:#181818;stroke-width:1;"/><text fill="#000000" font-family="sans-serif" font-size="13" lengthAdjust="spacing" textLength="76.9082" x="2332.5" y="241.5669">implements</text></g><!--link Feature_User to logic_arc_int__baselibs__bit_mask_operator--><g id="link_Feature_User_logic_arc_int__baselibs__bit_mask_operator"><path codeLine="52" d="M2982.15,46.08 C2763.18,53.9 1793.48,90.88 1001.5,158.5 C995.87,158.98 996.1249,158.9321 990.3449,159.4621 " fill="transparent" id="Feature_User-to-logic_arc_int__baselibs__bit_mask_operator" style="stroke:#181818;stroke-width:1;"/><polygon fill="#181818" points="984.37,160.01,993.6977,163.1715,989.3491,159.5534,992.9672,155.2049,984.37,160.01" style="stroke:#181818;stroke-width:1;"/><text fill="#000000" font-family="sans-serif" font-size="13" lengthAdjust="spacing" textLength="23.0103" x="1614.5" y="124.5669">use</text></g><!--SRC=[hLPDZzGm3BttLqHxdmKXn06jzeB4YIES8pVrpfZ9HucTPGlYlvEsinypp4xRqADJvyNlsNaDM1j-QaSFvBULX5P9K7KG2Kur5D481L_jg475WX63T2sECRfMEWKYaUeaoDKDIsVnjhe69bkhtzKNylWfs11Ln6Q8lkx8x3qogtVNRwi_rSsRmvuAZEIygyy8aYAgRupnIW6hmuBk5rHL7OMRPdEhRDYIqH2D9YzQry1egMQj7ReGEyqxoAT_L8bHBTlE35lKBJ1dRGu09hXso6Q1LmzJcxIWC7AjHOTU-7Lu4xn0rY_o17OEOsAwHss9vHXy0Vc8dAnCSCv5cHGZUjDDL7MN-eFdKKr2TehbaAFPX1OR7TfYcjnviul1qw-CyoDXmjKeduCkh5A0zyldzuuiSfSlhLk-TzItZp-yNqsHdDbGRoVw7Y91RSiL-QV_5qkSFr6FZ0lBEiTmgVIZAppTc8l4dbiyTVzUpCAgTjDq7jpmAK9Nh5iRWoCk4AicqGuyjSb2h_joX1C25-K-FMr2cp6Tztb0CKB-knNhSshgIqds1ZBFqiUa2MAFI3CdQQOzu0EQz3ygFGEiP5YZxyvX-Pqdfw5FMLkoexuMgZRBQ8ec_-MrB2nk56sjF_AniyvfnSaRSF9TT_9YNBVRJovPAEOPFngK_Gi0]--></g></svg>