<svg xmlns="http://www.w3.org/2000/svg" xmlns:xlink="http://www.w3.org/1999/xlink" contentStyleType="text/css" data-diagram-type="CLASS" height="322px" preserveAspectRatio="none" style="width:6195px;height:322px;background:#FFFFFF;" version="1.1" viewBox="0 0 6195 322" width="6195px" zoomAndPan="magnify"><defs/><g><!--entity Feature_User--><g id="elem_Feature_User"><ellipse cx="3138.1685" cy="14" fill="#F1F1F1" rx="8" ry="8" style="stroke:#181818;stroke-width:0.5;"/><path d="M3138.1685,22 L3138.1685,49 M3125.1685,30 L3151.1685,30 M3138.1685,49 L3125.1685,64 M3138.1685,49 L3151.1685,64 " fill="transparent" style="stroke:#181818;stroke-width:0.5;"/><text fill="#000000" font-family="sans-serif" font-size="14" lengthAdjust="spacing" textLength="90.3369" x="3093" y="78.4951">Feature User</text></g><!--class comp_arc_sta__baselibs__concurrency--><g id="elem_comp_arc_sta__baselibs__concurrency"><rect fill="#F1F1F1" height="40" id="comp_arc_sta__baselibs__concurrency" rx="2.5" ry="2.5" style="stroke:#181818;stroke-width:0.5;" width="300.2012" x="4484" y="275.5"/><ellipse cx="4499" cy="291.5" fill="#ADD1B2" rx="11" ry="11" style="stroke:#181818;stroke-width:1;"/><path d="M4501.9688,297.1406 Q4501.3906,297.4375 4500.75,297.5781 Q4500.1094,297.7344 4499.4063,297.7344 Q4496.9063,297.7344 4495.5781,296.0938 Q4494.2656,294.4375 4494.2656,291.3125 Q4494.2656,288.1875 4495.5781,286.5313 Q4496.9063,284.875 4499.4063,284.875 Q4500.1094,284.875 4500.75,285.0313 Q4501.4063,285.1875 4501.9688,285.4844 L4501.9688,288.2031 Q4501.3438,287.625 4500.75,287.3594 Q4500.1563,287.0781 4499.5313,287.0781 Q4498.1875,287.0781 4497.5,288.1563 Q4496.8125,289.2188 4496.8125,291.3125 Q4496.8125,293.4063 4497.5,294.4844 Q4498.1875,295.5469 4499.5313,295.5469 Q4500.1563,295.5469 4500.75,295.2813 Q4501.3438,295 4501.9688,294.4219 L4501.9688,297.1406 Z " fill="#000000"/><text fill="#000000" font-family="sans-serif" font-size="14" lengthAdjust="spacing" textLength="268.2012" x="4513" y="296.3467">comp_arc_sta__baselibs__concurrency</text><line style="stroke:#181818;stroke-width:0.5;" x1="4485" x2="4783.2012" y1="307.5" y2="307.5"/></g><!--class logic_arc_int__baselibs__task_result--><g id="elem_logic_arc_int__baselibs__task_result"><rect fill="#F1F1F1" height="40" id="logic_arc_int__baselibs__task_result" rx="2.5" ry="2.5" style="stroke:#181818;stroke-width:0.5;" width="280.9307" x="4997.5" y="158.5"/><ellipse cx="5012.5" cy="174.5" fill="#ADD1B2" rx="11" ry="11" style="stroke:#181818;stroke-width:1;"/><path d="M5015.4688,180.1406 Q5014.8906,180.4375 5014.25,180.5781 Q5013.6094,180.7344 5012.9063,180.7344 Q5010.4063,180.7344 5009.0781,179.0938 Q5007.7656,177.4375 5007.7656,174.3125 Q5007.7656,171.1875 5009.0781,169.5313 Q5010.4063,167.875 5012.9063,167.875 Q5013.6094,167.875 5014.25,168.0313 Q5014.9063,168.1875 5015.4688,168.4844 L5015.4688,171.2031 Q5014.8438,170.625 5014.25,170.3594 Q5013.6563,170.0781 5013.0313,170.0781 Q5011.6875,170.0781 5011,171.1563 Q5010.3125,172.2188 5010.3125,174.3125 Q5010.3125,176.4063 5011,177.4844 Q5011.6875,178.5469 5013.0313,178.5469 Q5013.6563,178.5469 5014.25,178.2813 Q5014.8438,178 5015.4688,177.4219 L5015.4688,180.1406 Z " fill="#000000"/><text fill="#000000" font-family="sans-serif" font-size="14" lengthAdjust="spacing" textLength="248.9307" x="5026.5" y="179.3467">logic_arc_int__baselibs__task_result</text><line style="stroke:#181818;stroke-width:0.5;" x1="4998.5" x2="5277.4307" y1="190.5" y2="190.5"/></g><!--class logic_arc_int__baselibs__promise--><g id="elem_logic_arc_int__baselibs__promise"><rect fill="#F1F1F1" height="40" id="logic_arc_int__baselibs__promise" rx="2.5" ry="2.5" style="stroke:#181818;stroke-width:0.5;" width="261.1885" x="4701.5" y="158.5"/><ellipse cx="4716.5" cy="174.5" fill="#ADD1B2" rx="11" ry="11" style="stroke:#181818;stroke-width:1;"/><path d="M4719.4688,180.1406 Q4718.8906,180.4375 4718.25,180.5781 Q4717.6094,180.7344 4716.9063,180.7344 Q4714.4063,180.7344 4713.0781,179.0938 Q4711.7656,177.4375 4711.7656,174.3125 Q4711.7656,171.1875 4713.0781,169.5313 Q4714.4063,167.875 4716.9063,167.875 Q4717.6094,167.875 4718.25,168.0313 Q4718.9063,168.1875 4719.4688,168.4844 L4719.4688,171.2031 Q4718.8438,170.625 4718.25,170.3594 Q4717.6563,170.0781 4717.0313,170.0781 Q4715.6875,170.0781 4715,171.1563 Q4714.3125,172.2188 4714.3125,174.3125 Q4714.3125,176.4063 4715,177.4844 Q4715.6875,178.5469 4717.0313,178.5469 Q4717.6563,178.5469 4718.25,178.2813 Q4718.8438,178 4719.4688,177.4219 L4719.4688,180.1406 Z " fill="#000000"/><text fill="#000000" font-family="sans-serif" font-size="14" lengthAdjust="spacing" textLength="229.1885" x="4730.5" y="179.3467">logic_arc_int__baselibs__promise</text><line style="stroke:#181818;stroke-width:0.5;" x1="4702.5" x2="4961.6885" y1="190.5" y2="190.5"/></g><!--class logic_arc_int__baselibs__synchronized_queue--><g id="elem_logic_arc_int__baselibs__synchronized_queue"><rect fill="#F1F1F1" height="40" id="logic_arc_int__baselibs__synchronized_queue" rx="2.5" ry="2.5" style="stroke:#181818;stroke-width:0.5;" width="348.3604" x="4318" y="158.5"/><ellipse cx="4333" cy="174.5" fill="#ADD1B2" rx="11" ry="11" style="stroke:#181818;stroke-width:1;"/><path d="M4335.9688,180.1406 Q4335.3906,180.4375 4334.75,180.5781 Q4334.1094,180.7344 4333.4063,180.7344 Q4330.9063,180.7344 4329.5781,179.0938 Q4328.2656,177.4375 4328.2656,174.3125 Q4328.2656,171.1875 4329.5781,169.5313 Q4330.9063,167.875 4333.4063,167.875 Q4334.1094,167.875 4334.75,168.0313 Q4335.4063,168.1875 4335.9688,168.4844 L4335.9688,171.2031 Q4335.3438,170.625 4334.75,170.3594 Q4334.1563,170.0781 4333.5313,170.0781 Q4332.1875,170.0781 4331.5,171.1563 Q4330.8125,172.2188 4330.8125,174.3125 Q4330.8125,176.4063 4331.5,177.4844 Q4332.1875,178.5469 4333.5313,178.5469 Q4334.1563,178.5469 4334.75,178.2813 Q4335.3438,178 4335.9688,177.4219 L4335.9688,180.1406 Z " fill="#000000"/><text fill="#000000" font-family="sans-serif" font-size="14" lengthAdjust="spacing" textLength="316.3604" x="4347" y="179.3467">logic_arc_int__baselibs__synchronized_queue</text><line style="stroke:#181818;stroke-width:0.5;" x1="4319" x2="4665.3604" y1="190.5" y2="190.5"/></g><!--class comp_arc_sta__baselibs__memory_shared--><g id="elem_comp_arc_sta__baselibs__memory_shared"><rect fill="#F1F1F1" height="40" id="comp_arc_sta__baselibs__memory_shared" rx="2.5" ry="2.5" style="stroke:#181818;stroke-width:0.5;" width="327.0117" x="5861.5" y="275.5"/><ellipse cx="5876.5" cy="291.5" fill="#ADD1B2" rx="11" ry="11" style="stroke:#181818;stroke-width:1;"/><path d="M5879.4688,297.1406 Q5878.8906,297.4375 5878.25,297.5781 Q5877.6094,297.7344 5876.9063,297.7344 Q5874.4063,297.7344 5873.0781,296.0938 Q5871.7656,294.4375 5871.7656,291.3125 Q5871.7656,288.1875 5873.0781,286.5313 Q5874.4063,284.875 5876.9063,284.875 Q5877.6094,284.875 5878.25,285.0313 Q5878.9063,285.1875 5879.4688,285.4844 L5879.4688,288.2031 Q5878.8438,287.625 5878.25,287.3594 Q5877.6563,287.0781 5877.0313,287.0781 Q5875.6875,287.0781 5875,288.1563 Q5874.3125,289.2188 5874.3125,291.3125 Q5874.3125,293.4063 5875,294.4844 Q5875.6875,295.5469 5877.0313,295.5469 Q5877.6563,295.5469 5878.25,295.2813 Q5878.8438,295 5879.4688,294.4219 L5879.4688,297.1406 Z " fill="#000000"/><text fill="#000000" font-family="sans-serif" font-size="14" lengthAdjust="spacing" textLength="295.0117" x="5890.5" y="296.3467">comp_arc_sta__baselibs__memory_shared</text><line style="stroke:#181818;stroke-width:0.5;" x1="5862.5" x2="6187.5117" y1="307.5" y2="307.5"/></g><!--class logic_arc_int__baselibs__memory_shared--><g id="elem_logic_arc_int__baselibs__memory_shared"><rect fill="#F1F1F1" height="40" id="logic_arc_int__baselibs__memory_shared" rx="2.5" ry="2.5" style="stroke:#181818;stroke-width:0.5;" width="318.043" x="5866" y="158.5"/><ellipse cx="5881" cy="174.5" fill="#ADD1B2" rx="11" ry="11" style="stroke:#181818;stroke-width:1;"/><path d="M5883.9688,180.1406 Q5883.3906,180.4375 5882.75,180.5781 Q5882.1094,180.7344 5881.4063,180.7344 Q5878.9063,180.7344 5877.5781,179.0938 Q5876.2656,177.4375 5876.2656,174.3125 Q5876.2656,171.1875 5877.5781,169.5313 Q5878.9063,167.875 5881.4063,167.875 Q5882.1094,167.875 5882.75,168.0313 Q5883.4063,168.1875 5883.9688,168.4844 L5883.9688,171.2031 Q5883.3438,170.625 5882.75,170.3594 Q5882.1563,170.0781 5881.5313,170.0781 Q5880.1875,170.0781 5879.5,171.1563 Q5878.8125,172.2188 5878.8125,174.3125 Q5878.8125,176.4063 5879.5,177.4844 Q5880.1875,178.5469 5881.5313,178.5469 Q5882.1563,178.5469 5882.75,178.2813 Q5883.3438,178 5883.9688,177.4219 L5883.9688,180.1406 Z " fill="#000000"/><text fill="#000000" font-family="sans-serif" font-size="14" lengthAdjust="spacing" textLength="286.043" x="5895" y="179.3467">logic_arc_int__baselibs__memory_shared</text><line style="stroke:#181818;stroke-width:0.5;" x1="5867" x2="6183.043" y1="190.5" y2="190.5"/></g><!--class logic_arc_int__baselibs__shared_future--><g id="elem_logic_arc_int__baselibs__shared_future"><rect fill="#F1F1F1" height="40" id="logic_arc_int__baselibs__shared_future" rx="2.5" ry="2.5" style="stroke:#181818;stroke-width:0.5;" width="302.0811" x="3680" y="158.5"/><ellipse cx="3695" cy="174.5" fill="#ADD1B2" rx="11" ry="11" style="stroke:#181818;stroke-width:1;"/><path d="M3697.9688,180.1406 Q3697.3906,180.4375 3696.75,180.5781 Q3696.1094,180.7344 3695.4063,180.7344 Q3692.9063,180.7344 3691.5781,179.0938 Q3690.2656,177.4375 3690.2656,174.3125 Q3690.2656,171.1875 3691.5781,169.5313 Q3692.9063,167.875 3695.4063,167.875 Q3696.1094,167.875 3696.75,168.0313 Q3697.4063,168.1875 3697.9688,168.4844 L3697.9688,171.2031 Q3697.3438,170.625 3696.75,170.3594 Q3696.1563,170.0781 3695.5313,170.0781 Q3694.1875,170.0781 3693.5,171.1563 Q3692.8125,172.2188 3692.8125,174.3125 Q3692.8125,176.4063 3693.5,177.4844 Q3694.1875,178.5469 3695.5313,178.5469 Q3696.1563,178.5469 3696.75,178.2813 Q3697.3438,178 3697.9688,177.4219 L3697.9688,180.1406 Z " fill="#000000"/><text fill="#000000" font-family="sans-serif" font-size="14" lengthAdjust="spacing" textLength="270.0811" x="3709" y="179.3467">logic_arc_int__baselibs__shared_future</text><line style="stroke:#181818;stroke-width:0.5;" x1="3681" x2="3981.0811" y1="190.5" y2="190.5"/></g><!--class comp_arc_sta__baselibs__filesystem--><g id="elem_comp_arc_sta__baselibs__filesystem"><rect fill="#F1F1F1" height="40" id="comp_arc_sta__baselibs__filesystem" rx="2.5" ry="2.5" style="stroke:#181818;stroke-width:0.5;" width="285.4492" x="2995.5" y="275.5"/><ellipse cx="3010.5" cy="291.5" fill="#ADD1B2" rx="11" ry="11" style="stroke:#181818;stroke-width:1;"/><path d="M3013.4688,297.1406 Q3012.8906,297.4375 3012.25,297.5781 Q3011.6094,297.7344 3010.9063,297.7344 Q3008.4063,297.7344 3007.0781,296.0938 Q3005.7656,294.4375 3005.7656,291.3125 Q3005.7656,288.1875 3007.0781,286.5313 Q3008.4063,284.875 3010.9063,284.875 Q3011.6094,284.875 3012.25,285.0313 Q3012.9063,285.1875 3013.4688,285.4844 L3013.4688,288.2031 Q3012.8438,287.625 3012.25,287.3594 Q3011.6563,287.0781 3011.0313,287.0781 Q3009.6875,287.0781 3009,288.1563 Q3008.3125,289.2188 3008.3125,291.3125 Q3008.3125,293.4063 3009,294.4844 Q3009.6875,295.5469 3011.0313,295.5469 Q3011.6563,295.5469 3012.25,295.2813 Q3012.8438,295 3013.4688,294.4219 L3013.4688,297.1406 Z " fill="#000000"/><text fill="#000000" font-family="sans-serif" font-size="14" lengthAdjust="spacing" textLength="253.4492" x="3024.5" y="296.3467">comp_arc_sta__baselibs__filesystem</text><line style="stroke:#181818;stroke-width:0.5;" x1="2996.5" x2="3279.9492" y1="307.5" y2="307.5"/></g><!--class logic_arc_int__baselibs__filesystem--><g id="elem_logic_arc_int__baselibs__filesystem"><rect fill="#F1F1F1" height="40" id="logic_arc_int__baselibs__filesystem" rx="2.5" ry="2.5" style="stroke:#181818;stroke-width:0.5;" width="276.4805" x="3000" y="158.5"/><ellipse cx="3015" cy="174.5" fill="#ADD1B2" rx="11" ry="11" style="stroke:#181818;stroke-width:1;"/><path d="M3017.9688,180.1406 Q3017.3906,180.4375 3016.75,180.5781 Q3016.1094,180.7344 3015.4063,180.7344 Q3012.9063,180.7344 3011.5781,179.0938 Q3010.2656,177.4375 3010.2656,174.3125 Q3010.2656,171.1875 3011.5781,169.5313 Q3012.9063,167.875 3015.4063,167.875 Q3016.1094,167.875 3016.75,168.0313 Q3017.4063,168.1875 3017.9688,168.4844 L3017.9688,171.2031 Q3017.3438,170.625 3016.75,170.3594 Q3016.1563,170.0781 3015.5313,170.0781 Q3014.1875,170.0781 3013.5,171.1563 Q3012.8125,172.2188 3012.8125,174.3125 Q3012.8125,176.4063 3013.5,177.4844 Q3014.1875,178.5469 3015.5313,178.5469 Q3016.1563,178.5469 3016.75,178.2813 Q3017.3438,178 3017.9688,177.4219 L3017.9688,180.1406 Z " fill="#000000"/><text fill="#000000" font-family="sans-serif" font-size="14" lengthAdjust="spacing" textLength="244.4805" x="3029" y="179.3467">logic_arc_int__baselibs__filesystem</text><line style="stroke:#181818;stroke-width:0.5;" x1="3001" x2="3275.4805" y1="190.5" y2="190.5"/></g><!--class logic_arc_int__baselibs__condition_variable--><g id="elem_logic_arc_int__baselibs__condition_variable"><rect fill="#F1F1F1" height="40" id="logic_arc_int__baselibs__condition_variable" rx="2.5" ry="2.5" style="stroke:#181818;stroke-width:0.5;" width="332.7539" x="3311.5" y="158.5"/><ellipse cx="3326.5" cy="174.5" fill="#ADD1B2" rx="11" ry="11" style="stroke:#181818;stroke-width:1;"/><path d="M3329.4688,180.1406 Q3328.8906,180.4375 3328.25,180.5781 Q3327.6094,180.7344 3326.9063,180.7344 Q3324.4063,180.7344 3323.0781,179.0938 Q3321.7656,177.4375 3321.7656,174.3125 Q3321.7656,171.1875 3323.0781,169.5313 Q3324.4063,167.875 3326.9063,167.875 Q3327.6094,167.875 3328.25,168.0313 Q3328.9063,168.1875 3329.4688,168.4844 L3329.4688,171.2031 Q3328.8438,170.625 3328.25,170.3594 Q3327.6563,170.0781 3327.0313,170.0781 Q3325.6875,170.0781 3325,171.1563 Q3324.3125,172.2188 3324.3125,174.3125 Q3324.3125,176.4063 3325,177.4844 Q3325.6875,178.5469 3327.0313,178.5469 Q3327.6563,178.5469 3328.25,178.2813 Q3328.8438,178 3329.4688,177.4219 L3329.4688,180.1406 Z " fill="#000000"/><text fill="#000000" font-family="sans-serif" font-size="14" lengthAdjust="spacing" textLength="300.7539" x="3340.5" y="179.3467">logic_arc_int__baselibs__condition_variable</text><line style="stroke:#181818;stroke-width:0.5;" x1="3312.5" x2="3643.2539" y1="190.5" y2="190.5"/></g><!--class logic_arc_int__baselibs__utils_base64--><g id="elem_logic_arc_int__baselibs__utils_base64"><rect fill="#F1F1F1" height="40" id="logic_arc_int__baselibs__utils_base64" rx="2.5" ry="2.5" style="stroke:#181818;stroke-width:0.5;" width="292.1689" x="1722" y="158.5"/><ellipse cx="1737" cy="174.5" fill="#ADD1B2" rx="11" ry="11" style="stroke:#181818;stroke-width:1;"/><path d="M1739.9688,180.1406 Q1739.3906,180.4375 1738.75,180.5781 Q1738.1094,180.7344 1737.4063,180.7344 Q1734.9063,180.7344 1733.5781,179.0938 Q1732.2656,177.4375 1732.2656,174.3125 Q1732.2656,171.1875 1733.5781,169.5313 Q1734.9063,167.875 1737.4063,167.875 Q1738.1094,167.875 1738.75,168.0313 Q1739.4063,168.1875 1739.9688,168.4844 L1739.9688,171.2031 Q1739.3438,170.625 1738.75,170.3594 Q1738.1563,170.0781 1737.5313,170.0781 Q1736.1875,170.0781 1735.5,171.1563 Q1734.8125,172.2188 1734.8125,174.3125 Q1734.8125,176.4063 1735.5,177.4844 Q1736.1875,178.5469 1737.5313,178.5469 Q1738.1563,178.5469 1738.75,178.2813 Q1739.3438,178 1739.9688,177.4219 L1739.9688,180.1406 Z " fill="#000000"/><text fill="#000000" font-family="sans-serif" font-size="14" lengthAdjust="spacing" textLength="260.1689" x="1751" y="179.3467">logic_arc_int__baselibs__utils_base64</text><line style="stroke:#181818;stroke-width:0.5;" x1="1723" x2="2013.1689" y1="190.5" y2="190.5"/></g><!--class comp_arc_sta__baselibs__utils--><g id="elem_comp_arc_sta__baselibs__utils"><rect fill="#F1F1F1" height="40" id="comp_arc_sta__baselibs__utils" rx="2.5" ry="2.5" style="stroke:#181818;stroke-width:0.5;" width="242.9502" x="1549.5" y="275.5"/><ellipse cx="1564.5" cy="291.5" fill="#ADD1B2" rx="11" ry="11" style="stroke:#181818;stroke-width:1;"/><path d="M1567.4688,297.1406 Q1566.8906,297.4375 1566.25,297.5781 Q1565.6094,297.7344 1564.9063,297.7344 Q1562.4063,297.7344 1561.0781,296.0938 Q1559.7656,294.4375 1559.7656,291.3125 Q1559.7656,288.1875 1561.0781,286.5313 Q1562.4063,284.875 1564.9063,284.875 Q1565.6094,284.875 1566.25,285.0313 Q1566.9063,285.1875 1567.4688,285.4844 L1567.4688,288.2031 Q1566.8438,287.625 1566.25,287.3594 Q1565.6563,287.0781 1565.0313,287.0781 Q1563.6875,287.0781 1563,288.1563 Q1562.3125,289.2188 1562.3125,291.3125 Q1562.3125,293.4063 1563,294.4844 Q1563.6875,295.5469 1565.0313,295.5469 Q1565.6563,295.5469 1566.25,295.2813 Q1566.8438,295 1567.4688,294.4219 L1567.4688,297.1406 Z " fill="#000000"/><text fill="#000000" font-family="sans-serif" font-size="14" lengthAdjust="spacing" textLength="210.9502" x="1578.5" y="296.3467">comp_arc_sta__baselibs__utils</text><line style="stroke:#181818;stroke-width:0.5;" x1="1550.5" x2="1791.4502" y1="307.5" y2="307.5"/></g><!--class logic_arc_int__baselibs__utils_scoped_op--><g id="elem_logic_arc_int__baselibs__utils_scoped_op"><rect fill="#F1F1F1" height="40" id="logic_arc_int__baselibs__utils_scoped_op" rx="2.5" ry="2.5" style="stroke:#181818;stroke-width:0.5;" width="315.377" x="1371.5" y="158.5"/><ellipse cx="1386.5" cy="174.5" fill="#ADD1B2" rx="11" ry="11" style="stroke:#181818;stroke-width:1;"/><path d="M1389.4688,180.1406 Q1388.8906,180.4375 1388.25,180.5781 Q1387.6094,180.7344 1386.9063,180.7344 Q1384.4063,180.7344 1383.0781,179.0938 Q1381.7656,177.4375 1381.7656,174.3125 Q1381.7656,171.1875 1383.0781,169.5313 Q1384.4063,167.875 1386.9063,167.875 Q1387.6094,167.875 1388.25,168.0313 Q1388.9063,168.1875 1389.4688,168.4844 L1389.4688,171.2031 Q1388.8438,170.625 1388.25,170.3594 Q1387.6563,170.0781 1387.0313,170.0781 Q1385.6875,170.0781 1385,171.1563 Q1384.3125,172.2188 1384.3125,174.3125 Q1384.3125,176.4063 1385,177.4844 Q1385.6875,178.5469 1387.0313,178.5469 Q1387.6563,178.5469 1388.25,178.2813 Q1388.8438,178 1389.4688,177.4219 L1389.4688,180.1406 Z " fill="#000000"/><text fill="#000000" font-family="sans-serif" font-size="14" lengthAdjust="spacing" textLength="283.377" x="1400.5" y="179.3467">logic_arc_int__baselibs__utils_scoped_op</text><line style="stroke:#181818;stroke-width:0.5;" x1="1372.5" x2="1685.877" y1="190.5" y2="190.5"/></g><!--class logic_arc_int__baselibs__message_passing--><g id="elem_logic_arc_int__baselibs__message_passing"><rect fill="#F1F1F1" height="40" id="logic_arc_int__baselibs__message_passing" rx="2.5" ry="2.5" style="stroke:#181818;stroke-width:0.5;" width="328.167" x="1008" y="158.5"/><ellipse cx="1023" cy="174.5" fill="#ADD1B2" rx="11" ry="11" style="stroke:#181818;stroke-width:1;"/><path d="M1025.9688,180.1406 Q1025.3906,180.4375 1024.75,180.5781 Q1024.1094,180.7344 1023.4063,180.7344 Q1020.9063,180.7344 1019.5781,179.0938 Q1018.2656,177.4375 1018.2656,174.3125 Q1018.2656,171.1875 1019.5781,169.5313 Q1020.9063,167.875 1023.4063,167.875 Q1024.1094,167.875 1024.75,168.0313 Q1025.4063,168.1875 1025.9688,168.4844 L1025.9688,171.2031 Q1025.3438,170.625 1024.75,170.3594 Q1024.1563,170.0781 1023.5313,170.0781 Q1022.1875,170.0781 1021.5,171.1563 Q1020.8125,172.2188 1020.8125,174.3125 Q1020.8125,176.4063 1021.5,177.4844 Q1022.1875,178.5469 1023.5313,178.5469 Q1024.1563,178.5469 1024.75,178.2813 Q1025.3438,178 1025.9688,177.4219 L1025.9688,180.1406 Z " fill="#000000"/><text fill="#000000" font-family="sans-serif" font-size="14" lengthAdjust="spacing" textLength="296.167" x="1037" y="179.3467">logic_arc_int__baselibs__message_passing</text><line style="stroke:#181818;stroke-width:0.5;" x1="1009" x2="1335.167" y1="190.5" y2="190.5"/></g><!--class logic_arc_int__baselibs__task--><g id="elem_logic_arc_int__baselibs__task"><rect fill="#F1F1F1" height="40" id="logic_arc_int__baselibs__task" rx="2.5" ry="2.5" style="stroke:#181818;stroke-width:0.5;" width="234.0156" x="5314" y="158.5"/><ellipse cx="5329" cy="174.5" fill="#ADD1B2" rx="11" ry="11" style="stroke:#181818;stroke-width:1;"/><path d="M5331.9688,180.1406 Q5331.3906,180.4375 5330.75,180.5781 Q5330.1094,180.7344 5329.4063,180.7344 Q5326.9063,180.7344 5325.5781,179.0938 Q5324.2656,177.4375 5324.2656,174.3125 Q5324.2656,171.1875 5325.5781,169.5313 Q5326.9063,167.875 5329.4063,167.875 Q5330.1094,167.875 5330.75,168.0313 Q5331.4063,168.1875 5331.9688,168.4844 L5331.9688,171.2031 Q5331.3438,170.625 5330.75,170.3594 Q5330.1563,170.0781 5329.5313,170.0781 Q5328.1875,170.0781 5327.5,171.1563 Q5326.8125,172.2188 5326.8125,174.3125 Q5326.8125,176.4063 5327.5,177.4844 Q5328.1875,178.5469 5329.5313,178.5469 Q5330.1563,178.5469 5330.75,178.2813 Q5331.3438,178 5331.9688,177.4219 L5331.9688,180.1406 Z " fill="#000000"/><text fill="#000000" font-family="sans-serif" font-size="14" lengthAdjust="spacing" textLength="202.0156" x="5343" y="179.3467">logic_arc_int__baselibs__task</text><line style="stroke:#181818;stroke-width:0.5;" x1="5315" x2="5547.0156" y1="190.5" y2="190.5"/></g><!--class logic_arc_int__baselibs__future--><g id="elem_logic_arc_int__baselibs__future"><rect fill="#F1F1F1" height="40" id="logic_arc_int__baselibs__future" rx="2.5" ry="2.5" style="stroke:#181818;stroke-width:0.5;" width="247.0791" x="5583.5" y="158.5"/><ellipse cx="5598.5" cy="174.5" fill="#ADD1B2" rx="11" ry="11" style="stroke:#181818;stroke-width:1;"/><path d="M5601.4688,180.1406 Q5600.8906,180.4375 5600.25,180.5781 Q5599.6094,180.7344 5598.9063,180.7344 Q5596.4063,180.7344 5595.0781,179.0938 Q5593.7656,177.4375 5593.7656,174.3125 Q5593.7656,171.1875 5595.0781,169.5313 Q5596.4063,167.875 5598.9063,167.875 Q5599.6094,167.875 5600.25,168.0313 Q5600.9063,168.1875 5601.4688,168.4844 L5601.4688,171.2031 Q5600.8438,170.625 5600.25,170.3594 Q5599.6563,170.0781 5599.0313,170.0781 Q5597.6875,170.0781 5597,171.1563 Q5596.3125,172.2188 5596.3125,174.3125 Q5596.3125,176.4063 5597,177.4844 Q5597.6875,178.5469 5599.0313,178.5469 Q5599.6563,178.5469 5600.25,178.2813 Q5600.8438,178 5601.4688,177.4219 L5601.4688,180.1406 Z " fill="#000000"/><text fill="#000000" font-family="sans-serif" font-size="14" lengthAdjust="spacing" textLength="215.0791" x="5612.5" y="179.3467">logic_arc_int__baselibs__future</text><line style="stroke:#181818;stroke-width:0.5;" x1="5584.5" x2="5829.5791" y1="190.5" y2="190.5"/></g><!--class logic_arc_int__baselibs__intrusive_list--><g id="elem_logic_arc_int__baselibs__intrusive_list"><rect fill="#F1F1F1" height="40" id="logic_arc_int__baselibs__intrusive_list" rx="2.5" ry="2.5" style="stroke:#181818;stroke-width:0.5;" width="293.0713" x="2671.5" y="158.5"/><ellipse cx="2686.5" cy="174.5" fill="#ADD1B2" rx="11" ry="11" style="stroke:#181818;stroke-width:1;"/><path d="M2689.4688,180.1406 Q2688.8906,180.4375 2688.25,180.5781 Q2687.6094,180.7344 2686.9063,180.7344 Q2684.4063,180.7344 2683.0781,179.0938 Q2681.7656,177.4375 2681.7656,174.3125 Q2681.7656,171.1875 2683.0781,169.5313 Q2684.4063,167.875 2686.9063,167.875 Q2687.6094,167.875 2688.25,168.0313 Q2688.9063,168.1875 2689.4688,168.4844 L2689.4688,171.2031 Q2688.8438,170.625 2688.25,170.3594 Q2687.6563,170.0781 2687.0313,170.0781 Q2685.6875,170.0781 2685,171.1563 Q2684.3125,172.2188 2684.3125,174.3125 Q2684.3125,176.4063 2685,177.4844 Q2685.6875,178.5469 2687.0313,178.5469 Q2687.6563,178.5469 2688.25,178.2813 Q2688.8438,178 2689.4688,177.4219 L2689.4688,180.1406 Z " fill="#000000"/><text fill="#000000" font-family="sans-serif" font-size="14" lengthAdjust="spacing" textLength="261.0713" x="2700.5" y="179.3467">logic_arc_int__baselibs__intrusive_list</text><line style="stroke:#181818;stroke-width:0.5;" x1="2672.5" x2="2963.5713" y1="190.5" y2="190.5"/></g><!--class logic_arc_int__baselibs__dynamic_array--><g id="elem_logic_arc_int__baselibs__dynamic_array"><rect fill="#F1F1F1" height="40" id="logic_arc_int__baselibs__dynamic_array" rx="2.5" ry="2.5" style="stroke:#181818;stroke-width:0.5;" width="308.3496" x="2328" y="158.5"/><ellipse cx="2343" cy="174.5" fill="#ADD1B2" rx="11" ry="11" style="stroke:#181818;stroke-width:1;"/><path d="M2345.9688,180.1406 Q2345.3906,180.4375 2344.75,180.5781 Q2344.1094,180.7344 2343.4063,180.7344 Q2340.9063,180.7344 2339.5781,179.0938 Q2338.2656,177.4375 2338.2656,174.3125 Q2338.2656,171.1875 2339.5781,169.5313 Q2340.9063,167.875 2343.4063,167.875 Q2344.1094,167.875 2344.75,168.0313 Q2345.4063,168.1875 2345.9688,168.4844 L2345.9688,171.2031 Q2345.3438,170.625 2344.75,170.3594 Q2344.1563,170.0781 2343.5313,170.0781 Q2342.1875,170.0781 2341.5,171.1563 Q2340.8125,172.2188 2340.8125,174.3125 Q2340.8125,176.4063 2341.5,177.4844 Q2342.1875,178.5469 2343.5313,178.5469 Q2344.1563,178.5469 2344.75,178.2813 Q2345.3438,178 2345.9688,177.4219 L2345.9688,180.1406 Z " fill="#000000"/><text fill="#000000" font-family="sans-serif" font-size="14" lengthAdjust="spacing" textLength="276.3496" x="2357" y="179.3467">logic_arc_int__baselibs__dynamic_array</text><line style="stroke:#181818;stroke-width:0.5;" x1="2329" x2="2635.3496" y1="190.5" y2="190.5"/></g><!--class comp_arc_sta__baselibs__containers--><g id="elem_comp_arc_sta__baselibs__containers"><rect fill="#F1F1F1" height="40" id="comp_arc_sta__baselibs__containers" rx="2.5" ry="2.5" style="stroke:#181818;stroke-width:0.5;" width="287.1445" x="2505.5" y="275.5"/><ellipse cx="2520.5" cy="291.5" fill="#ADD1B2" rx="11" ry="11" style="stroke:#181818;stroke-width:1;"/><path d="M2523.4688,297.1406 Q2522.8906,297.4375 2522.25,297.5781 Q2521.6094,297.7344 2520.9063,297.7344 Q2518.4063,297.7344 2517.0781,296.0938 Q2515.7656,294.4375 2515.7656,291.3125 Q2515.7656,288.1875 2517.0781,286.5313 Q2518.4063,284.875 2520.9063,284.875 Q2521.6094,284.875 2522.25,285.0313 Q2522.9063,285.1875 2523.4688,285.4844 L2523.4688,288.2031 Q2522.8438,287.625 2522.25,287.3594 Q2521.6563,287.0781 2521.0313,287.0781 Q2519.6875,287.0781 2519,288.1563 Q2518.3125,289.2188 2518.3125,291.3125 Q2518.3125,293.4063 2519,294.4844 Q2519.6875,295.5469 2521.0313,295.5469 Q2521.6563,295.5469 2522.25,295.2813 Q2522.8438,295 2523.4688,294.4219 L2523.4688,297.1406 Z " fill="#000000"/><text fill="#000000" font-family="sans-serif" font-size="14" lengthAdjust="spacing" textLength="255.1445" x="2534.5" y="296.3467">comp_arc_sta__baselibs__containers</text><line style="stroke:#181818;stroke-width:0.5;" x1="2506.5" x2="2791.6445" y1="307.5" y2="307.5"/></g><!--class comp_arc_sta__baselibs__result--><g id="elem_comp_arc_sta__baselibs__result"><rect fill="#F1F1F1" height="40" id="comp_arc_sta__baselibs__result" rx="2.5" ry="2.5" style="stroke:#181818;stroke-width:0.5;" width="253.4297" x="2044.5" y="275.5"/><ellipse cx="2059.5" cy="291.5" fill="#ADD1B2" rx="11" ry="11" style="stroke:#181818;stroke-width:1;"/><path d="M2062.4688,297.1406 Q2061.8906,297.4375 2061.25,297.5781 Q2060.6094,297.7344 2059.9063,297.7344 Q2057.4063,297.7344 2056.0781,296.0938 Q2054.7656,294.4375 2054.7656,291.3125 Q2054.7656,288.1875 2056.0781,286.5313 Q2057.4063,284.875 2059.9063,284.875 Q2060.6094,284.875 2061.25,285.0313 Q2061.9063,285.1875 2062.4688,285.4844 L2062.4688,288.2031 Q2061.8438,287.625 2061.25,287.3594 Q2060.6563,287.0781 2060.0313,287.0781 Q2058.6875,287.0781 2058,288.1563 Q2057.3125,289.2188 2057.3125,291.3125 Q2057.3125,293.4063 2058,294.4844 Q2058.6875,295.5469 2060.0313,295.5469 Q2060.6563,295.5469 2061.25,295.2813 Q2061.8438,295 2062.4688,294.4219 L2062.4688,297.1406 Z " fill="#000000"/><text fill="#000000" font-family="sans-serif" font-size="14" lengthAdjust="spacing" textLength="221.4297" x="2073.5" y="296.3467">comp_arc_sta__baselibs__result</text><line style="stroke:#181818;stroke-width:0.5;" x1="2045.5" x2="2296.9297" y1="307.5" y2="307.5"/></g><!--class logic_arc_int__baselibs__result--><g id="elem_logic_arc_int__baselibs__result"><rect fill="#F1F1F1" height="40" id="logic_arc_int__baselibs__result" rx="2.5" ry="2.5" style="stroke:#181818;stroke-width:0.5;" width="244.4609" x="2049" y="158.5"/><ellipse cx="2064" cy="174.5" fill="#ADD1B2" rx="11" ry="11" style="stroke:#181818;stroke-width:1;"/><path d="M2066.9688,180.1406 Q2066.3906,180.4375 2065.75,180.5781 Q2065.1094,180.7344 2064.4063,180.7344 Q2061.9063,180.7344 2060.5781,179.0938 Q2059.2656,177.4375 2059.2656,174.3125 Q2059.2656,171.1875 2060.5781,169.5313 Q2061.9063,167.875 2064.4063,167.875 Q2065.1094,167.875 2065.75,168.0313 Q2066.4063,168.1875 2066.9688,168.4844 L2066.9688,171.2031 Q2066.3438,170.625 2065.75,170.3594 Q2065.1563,170.0781 2064.5313,170.0781 Q2063.1875,170.0781 2062.5,171.1563 Q2061.8125,172.2188 2061.8125,174.3125 Q2061.8125,176.4063 2062.5,177.4844 Q2063.1875,178.5469 2064.5313,178.5469 Q2065.1563,178.5469 2065.75,178.2813 Q2066.3438,178 2066.9688,177.4219 L2066.9688,180.1406 Z " fill="#000000"/><text fill="#000000" font-family="sans-serif" font-size="14" lengthAdjust="spacing" textLength="212.4609" x="2078" y="179.3467">logic_arc_int__baselibs__result</text><line style="stroke:#181818;stroke-width:0.5;" x1="2050" x2="2292.4609" y1="190.5" y2="190.5"/></g><!--class logic_arc_int__baselibs__bit_mask_operator--><g id="elem_logic_arc_int__baselibs__bit_mask_operator"><rect fill="#F1F1F1" height="40" id="logic_arc_int__baselibs__bit_mask_operator" rx="2.5" ry="2.5" style="stroke:#181818;stroke-width:0.5;" width="334.6406" x="637.5" y="158.5"/><ellipse cx="652.5" cy="174.5" fill="#ADD1B2" rx="11" ry="11" style="stroke:#181818;stroke-width:1;"/><path d="M655.4688,180.1406 Q654.8906,180.4375 654.25,180.5781 Q653.6094,180.7344 652.9063,180.7344 Q650.4063,180.7344 649.0781,179.0938 Q647.7656,177.4375 647.7656,174.3125 Q647.7656,171.1875 649.0781,169.5313 Q650.4063,167.875 652.9063,167.875 Q653.6094,167.875 654.25,168.0313 Q654.9063,168.1875 655.4688,168.4844 L655.4688,171.2031 Q654.8438,170.625 654.25,170.3594 Q653.6563,170.0781 653.0313,170.0781 Q651.6875,170.0781 651,171.1563 Q650.3125,172.2188 650.3125,174.3125 Q650.3125,176.4063 651,177.4844 Q651.6875,178.5469 653.0313,178.5469 Q653.6563,178.5469 654.25,178.2813 Q654.8438,178 655.4688,177.4219 L655.4688,180.1406 Z " fill="#000000"/><text fill="#000000" font-family="sans-serif" font-size="14" lengthAdjust="spacing" textLength="302.6406" x="666.5" y="179.3467">logic_arc_int__baselibs__bit_mask_operator</text><line style="stroke:#181818;stroke-width:0.5;" x1="638.5" x2="971.1406" y1="190.5" y2="190.5"/></g><!--class logic_arc_int__baselibs__executor--><g id="elem_logic_arc_int__baselibs__executor"><rect fill="#F1F1F1" height="40" id="logic_arc_int__baselibs__executor" rx="2.5" ry="2.5" style="stroke:#181818;stroke-width:0.5;" width="266.4385" x="4017" y="158.5"/><ellipse cx="4032" cy="174.5" fill="#ADD1B2" rx="11" ry="11" style="stroke:#181818;stroke-width:1;"/><path d="M4034.9688,180.1406 Q4034.3906,180.4375 4033.75,180.5781 Q4033.1094,180.7344 4032.4063,180.7344 Q4029.9063,180.7344 4028.5781,179.0938 Q4027.2656,177.4375 4027.2656,174.3125 Q4027.2656,171.1875 4028.5781,169.5313 Q4029.9063,167.875 4032.4063,167.875 Q4033.1094,167.875 4033.75,168.0313 Q4034.4063,168.1875 4034.9688,168.4844 L4034.9688,171.2031 Q4034.3438,170.625 4033.75,170.3594 Q4033.1563,170.0781 4032.5313,170.0781 Q4031.1875,170.0781 4030.5,171.1563 Q4029.8125,172.2188 4029.8125,174.3125 Q4029.8125,176.4063 4030.5,177.4844 Q4031.1875,178.5469 4032.5313,178.5469 Q4033.1563,178.5469 4033.75,178.2813 Q4034.3438,178 4034.9688,177.4219 L4034.9688,180.1406 Z " fill="#000000"/><text fill="#000000" font-family="sans-serif" font-size="14" lengthAdjust="spacing" textLength="234.4385" x="4046" y="179.3467">logic_arc_int__baselibs__executor</text><line style="stroke:#181818;stroke-width:0.5;" x1="4018" x2="4282.4385" y1="190.5" y2="190.5"/></g><!--class logic_arc_int__baselibs__bit_manipulation--><g id="elem_logic_arc_int__baselibs__bit_manipulation"><rect fill="#F1F1F1" height="40" id="logic_arc_int__baselibs__bit_manipulation" rx="2.5" ry="2.5" style="stroke:#181818;stroke-width:0.5;" width="321.8369" x="280" y="158.5"/><ellipse cx="295" cy="174.5" fill="#ADD1B2" rx="11" ry="11" style="stroke:#181818;stroke-width:1;"/><path d="M297.9688,180.1406 Q297.3906,180.4375 296.75,180.5781 Q296.1094,180.7344 295.4063,180.7344 Q292.9063,180.7344 291.5781,179.0938 Q290.2656,177.4375 290.2656,174.3125 Q290.2656,171.1875 291.5781,169.5313 Q292.9063,167.875 295.4063,167.875 Q296.1094,167.875 296.75,168.0313 Q297.4063,168.1875 297.9688,168.4844 L297.9688,171.2031 Q297.3438,170.625 296.75,170.3594 Q296.1563,170.0781 295.5313,170.0781 Q294.1875,170.0781 293.5,171.1563 Q292.8125,172.2188 292.8125,174.3125 Q292.8125,176.4063 293.5,177.4844 Q294.1875,178.5469 295.5313,178.5469 Q296.1563,178.5469 296.75,178.2813 Q297.3438,178 297.9688,177.4219 L297.9688,180.1406 Z " fill="#000000"/><text fill="#000000" font-family="sans-serif" font-size="14" lengthAdjust="spacing" textLength="289.8369" x="309" y="179.3467">logic_arc_int__baselibs__bit_manipulation</text><line style="stroke:#181818;stroke-width:0.5;" x1="281" x2="600.8369" y1="190.5" y2="190.5"/></g><!--class logic_arc_int__baselibs__json--><g id="elem_logic_arc_int__baselibs__json"><rect fill="#F1F1F1" height="40" id="logic_arc_int__baselibs__json" rx="2.5" ry="2.5" style="stroke:#181818;stroke-width:0.5;" width="233.168" x="11.5" y="158.5"/><ellipse cx="26.5" cy="174.5" fill="#ADD1B2" rx="11" ry="11" style="stroke:#181818;stroke-width:1;"/><path d="M29.4688,180.1406 Q28.8906,180.4375 28.25,180.5781 Q27.6094,180.7344 26.9063,180.7344 Q24.4063,180.7344 23.0781,179.0938 Q21.7656,177.4375 21.7656,174.3125 Q21.7656,171.1875 23.0781,169.5313 Q24.4063,167.875 26.9063,167.875 Q27.6094,167.875 28.25,168.0313 Q28.9063,168.1875 29.4688,168.4844 L29.4688,171.2031 Q28.8438,170.625 28.25,170.3594 Q27.6563,170.0781 27.0313,170.0781 Q25.6875,170.0781 25,171.1563 Q24.3125,172.2188 24.3125,174.3125 Q24.3125,176.4063 25,177.4844 Q25.6875,178.5469 27.0313,178.5469 Q27.6563,178.5469 28.25,178.2813 Q28.8438,178 29.4688,177.4219 L29.4688,180.1406 Z " fill="#000000"/><text fill="#000000" font-family="sans-serif" font-size="14" lengthAdjust="spacing" textLength="201.168" x="40.5" y="179.3467">logic_arc_int__baselibs__json</text><line style="stroke:#181818;stroke-width:0.5;" x1="12.5" x2="243.668" y1="190.5" y2="190.5"/></g><!--class comp_arc_sta__baselibs__message_passing--><g id="elem_comp_arc_sta__baselibs__message_passing"><rect fill="#F1F1F1" height="40" id="comp_arc_sta__baselibs__message_passing" rx="2.5" ry="2.5" style="stroke:#181818;stroke-width:0.5;" width="337.1357" x="1003.5" y="275.5"/><ellipse cx="1018.5" cy="291.5" fill="#ADD1B2" rx="11" ry="11" style="stroke:#181818;stroke-width:1;"/><path d="M1021.4688,297.1406 Q1020.8906,297.4375 1020.25,297.5781 Q1019.6094,297.7344 1018.9063,297.7344 Q1016.4063,297.7344 1015.0781,296.0938 Q1013.7656,294.4375 1013.7656,291.3125 Q1013.7656,288.1875 1015.0781,286.5313 Q1016.4063,284.875 1018.9063,284.875 Q1019.6094,284.875 1020.25,285.0313 Q1020.9063,285.1875 1021.4688,285.4844 L1021.4688,288.2031 Q1020.8438,287.625 1020.25,287.3594 Q1019.6563,287.0781 1019.0313,287.0781 Q1017.6875,287.0781 1017,288.1563 Q1016.3125,289.2188 1016.3125,291.3125 Q1016.3125,293.4063 1017,294.4844 Q1017.6875,295.5469 1019.0313,295.5469 Q1019.6563,295.5469 1020.25,295.2813 Q1020.8438,295 1021.4688,294.4219 L1021.4688,297.1406 Z " fill="#000000"/><text fill="#000000" font-family="sans-serif" font-size="14" lengthAdjust="spacing" textLength="305.1357" x="1032.5" y="296.3467">comp_arc_sta__baselibs__message_passing</text><line style="stroke:#181818;stroke-width:0.5;" x1="1004.5" x2="1339.6357" y1="307.5" y2="307.5"/></g><!--class comp_arc_sta__baselibs__bit_manipulation--><g id="elem_comp_arc_sta__baselibs__bit_manipulation"><rect fill="#F1F1F1" height="40" id="comp_arc_sta__baselibs__bit_manipulation" rx="2.5" ry="2.5" style="stroke:#181818;stroke-width:0.5;" width="330.8057" x="461.5" y="275.5"/><ellipse cx="476.5" cy="291.5" fill="#ADD1B2" rx="11" ry="11" style="stroke:#181818;stroke-width:1;"/><path d="M479.4688,297.1406 Q478.8906,297.4375 478.25,297.5781 Q477.6094,297.7344 476.9063,297.7344 Q474.4063,297.7344 473.0781,296.0938 Q471.7656,294.4375 471.7656,291.3125 Q471.7656,288.1875 473.0781,286.5313 Q474.4063,284.875 476.9063,284.875 Q477.6094,284.875 478.25,285.0313 Q478.9063,285.1875 479.4688,285.4844 L479.4688,288.2031 Q478.8438,287.625 478.25,287.3594 Q477.6563,287.0781 477.0313,287.0781 Q475.6875,287.0781 475,288.1563 Q474.3125,289.2188 474.3125,291.3125 Q474.3125,293.4063 475,294.4844 Q475.6875,295.5469 477.0313,295.5469 Q477.6563,295.5469 478.25,295.2813 Q478.8438,295 479.4688,294.4219 L479.4688,297.1406 Z " fill="#000000"/><text fill="#000000" font-family="sans-serif" font-size="14" lengthAdjust="spacing" textLength="298.8057" x="490.5" y="296.3467">comp_arc_sta__baselibs__bit_manipulation</text><line style="stroke:#181818;stroke-width:0.5;" x1="462.5" x2="791.3057" y1="307.5" y2="307.5"/></g><!--class comp_arc_sta__baselibs__json--><g id="elem_comp_arc_sta__baselibs__json"><rect fill="#F1F1F1" height="40" id="comp_arc_sta__baselibs__json" rx="2.5" ry="2.5" style="stroke:#181818;stroke-width:0.5;" width="242.1367" x="7" y="275.5"/><ellipse cx="22" cy="291.5" fill="#ADD1B2" rx="11" ry="11" style="stroke:#181818;stroke-width:1;"/><path d="M24.9688,297.1406 Q24.3906,297.4375 23.75,297.5781 Q23.1094,297.7344 22.4063,297.7344 Q19.9063,297.7344 18.5781,296.0938 Q17.2656,294.4375 17.2656,291.3125 Q17.2656,288.1875 18.5781,286.5313 Q19.9063,284.875 22.4063,284.875 Q23.1094,284.875 23.75,285.0313 Q24.4063,285.1875 24.9688,285.4844 L24.9688,288.2031 Q24.3438,287.625 23.75,287.3594 Q23.1563,287.0781 22.5313,287.0781 Q21.1875,287.0781 20.5,288.1563 Q19.8125,289.2188 19.8125,291.3125 Q19.8125,293.4063 20.5,294.4844 Q21.1875,295.5469 22.5313,295.5469 Q23.1563,295.5469 23.75,295.2813 Q24.3438,295 24.9688,294.4219 L24.9688,297.1406 Z " fill="#000000"/><text fill="#000000" font-family="sans-serif" font-size="14" lengthAdjust="spacing" textLength="210.1367" x="36" y="296.3467">comp_arc_sta__baselibs__json</text><line style="stroke:#181818;stroke-width:0.5;" x1="8" x2="248.1367" y1="307.5" y2="307.5"/></g><!--reverse link logic_arc_int__baselibs__task_result to comp_arc_sta__baselibs__concurrency--><g id="link_logic_arc_int__baselibs__task_result_comp_arc_sta__baselibs__concurrency"><path codeLine="15" d="M5048.6404,199.8848 C4955.3404,221.1748 4811.03,254.11 4717.67,275.41 " fill="transparent" id="logic_arc_int__baselibs__task_result-backto-comp_arc_sta__baselibs__concurrency" style="stroke:#181818;stroke-width:1;"/><polygon fill="#181818" points="5054.49,198.55,5044.8257,196.6525,5049.6153,199.6624,5046.6054,204.452,5054.49,198.55" style="stroke:#181818;stroke-width:1;"/><text fill="#000000" font-family="sans-serif" font-size="13" lengthAdjust="spacing" textLength="76.9082" x="4918" y="241.5669">implements</text></g><!--reverse link logic_arc_int__baselibs__promise to comp_arc_sta__baselibs__concurrency--><g id="link_logic_arc_int__baselibs__promise_comp_arc_sta__baselibs__concurrency"><path codeLine="16" d="M4793.6715,201.7632 C4757.0115,223.0532 4703.49,254.14 4666.92,275.38 " fill="transparent" id="logic_arc_int__baselibs__promise-backto-comp_arc_sta__baselibs__concurrency" style="stroke:#181818;stroke-width:1;"/><polygon fill="#181818" points="4798.86,198.75,4789.0684,199.8108,4794.5362,201.261,4793.086,206.7288,4798.86,198.75" style="stroke:#181818;stroke-width:1;"/><text fill="#000000" font-family="sans-serif" font-size="13" lengthAdjust="spacing" textLength="76.9082" x="4746" y="241.5669">implements</text></g><!--reverse link logic_arc_int__baselibs__synchronized_queue to comp_arc_sta__baselibs__concurrency--><g id="link_logic_arc_int__baselibs__synchronized_queue_comp_arc_sta__baselibs__concurrency"><path codeLine="17" d="M4520.4324,202.5265 C4546.6424,223.7565 4583.91,253.94 4610.15,275.19 " fill="transparent" id="logic_arc_int__baselibs__synchronized_queue-backto-comp_arc_sta__baselibs__concurrency" style="stroke:#181818;stroke-width:1;"/><polygon fill="#181818" points="4515.77,198.75,4520.2459,207.523,4519.6553,201.8971,4525.2813,201.3065,4515.77,198.75" style="stroke:#181818;stroke-width:1;"/><text fill="#000000" font-family="sans-serif" font-size="13" lengthAdjust="spacing" textLength="76.9082" x="4573" y="241.5669">implements</text></g><!--link Feature_User to logic_arc_int__baselibs__task_result--><g id="link_Feature_User_logic_arc_int__baselibs__task_result"><path codeLine="18" d="M3183.32,46.07 C3390.19,53.48 4265.4,87.67 4980,158.5 C4985.64,159.06 4985.4128,159.0235 4991.2228,159.6335 " fill="transparent" id="Feature_User-to-logic_arc_int__baselibs__task_result" style="stroke:#181818;stroke-width:1;"/><polygon fill="#181818" points="4997.19,160.26,4988.6569,155.3421,4992.2173,159.7379,4987.8215,163.2984,4997.19,160.26" style="stroke:#181818;stroke-width:1;"/><text fill="#000000" font-family="sans-serif" font-size="13" lengthAdjust="spacing" textLength="23.0103" x="4630" y="124.5669">use</text></g><!--reverse link logic_arc_int__baselibs__memory_shared to comp_arc_sta__baselibs__memory_shared--><g id="link_logic_arc_int__baselibs__memory_shared_comp_arc_sta__baselibs__memory_shared"><path codeLine="19" d="M6025,204.75 C6025,225.98 6025,253.94 6025,275.19 " fill="transparent" id="logic_arc_int__baselibs__memory_shared-backto-comp_arc_sta__baselibs__memory_shared" style="stroke:#181818;stroke-width:1;"/><polygon fill="#181818" points="6025,198.75,6021,207.75,6025,203.75,6029,207.75,6025,198.75" style="stroke:#181818;stroke-width:1;"/><text fill="#000000" font-family="sans-serif" font-size="13" lengthAdjust="spacing" textLength="76.9082" x="6026" y="241.5669">implements</text></g><!--reverse link logic_arc_int__baselibs__shared_future to comp_arc_sta__baselibs__concurrency--><g id="link_logic_arc_int__baselibs__shared_future_comp_arc_sta__baselibs__concurrency"><path codeLine="20" d="M3963.5742,199.4261 C4053.0442,212.7861 4169.86,230.07 4278,245.5 C4348.87,255.61 4427.74,266.5 4493.19,275.44 " fill="transparent" id="logic_arc_int__baselibs__shared_future-backto-comp_arc_sta__baselibs__concurrency" style="stroke:#181818;stroke-width:1;"/><polygon fill="#181818" points="3957.64,198.54,3965.9506,203.8253,3962.5852,199.2784,3967.1321,195.913,3957.64,198.54" style="stroke:#181818;stroke-width:1;"/><text fill="#000000" font-family="sans-serif" font-size="13" lengthAdjust="spacing" textLength="76.9082" x="4279" y="241.5669">implements</text></g><!--reverse link logic_arc_int__baselibs__filesystem to comp_arc_sta__baselibs__filesystem--><g id="link_logic_arc_int__baselibs__filesystem_comp_arc_sta__baselibs__filesystem"><path codeLine="21" d="M3138,204.75 C3138,225.98 3138,253.94 3138,275.19 " fill="transparent" id="logic_arc_int__baselibs__filesystem-backto-comp_arc_sta__baselibs__filesystem" style="stroke:#181818;stroke-width:1;"/><polygon fill="#181818" points="3138,198.75,3134,207.75,3138,203.75,3142,207.75,3138,198.75" style="stroke:#181818;stroke-width:1;"/><text fill="#000000" font-family="sans-serif" font-size="13" lengthAdjust="spacing" textLength="76.9082" x="3139" y="241.5669">implements</text></g><!--reverse link logic_arc_int__baselibs__condition_variable to comp_arc_sta__baselibs__concurrency--><g id="link_logic_arc_int__baselibs__condition_variable_comp_arc_sta__baselibs__concurrency"><path codeLine="22" d="M3649.5421,199.1833 C3770.8621,212.8833 3933.6,230.81 4082,245.5 C4217.95,258.96 4372.92,272.56 4483.98,282.01 " fill="transparent" id="logic_arc_int__baselibs__condition_variable-backto-comp_arc_sta__baselibs__concurrency" style="stroke:#181818;stroke-width:1;"/><polygon fill="#181818" points="3643.58,198.51,3652.0743,203.4946,3648.5484,199.0711,3652.972,195.5452,3643.58,198.51" style="stroke:#181818;stroke-width:1;"/><text fill="#000000" font-family="sans-serif" font-size="13" lengthAdjust="spacing" textLength="76.9082" x="4083" y="241.5669">implements</text></g><!--link Feature_User to logic_arc_int__baselibs__utils_base64--><g id="link_Feature_User_logic_arc_int__baselibs__utils_base64"><path codeLine="23" d="M3092.9,48.93 C2942.32,63.75 2443.19,113.26 2031,158.5 C2025.48,159.11 2025.8123,159.0582 2020.1323,159.6982 " fill="transparent" id="Feature_User-to-logic_arc_int__baselibs__utils_base64" style="stroke:#181818;stroke-width:1;"/><polygon fill="#181818" points="2014.17,160.37,2023.5613,163.3371,2019.1386,159.8102,2022.6655,155.3874,2014.17,160.37" style="stroke:#181818;stroke-width:1;"/><text fill="#000000" font-family="sans-serif" font-size="13" lengthAdjust="spacing" textLength="23.0103" x="2458" y="124.5669">use</text></g><!--reverse link logic_arc_int__baselibs__utils_scoped_op to comp_arc_sta__baselibs__utils--><g id="link_logic_arc_int__baselibs__utils_scoped_op_comp_arc_sta__baselibs__utils"><path codeLine="24" d="M1557.4324,202.5265 C1583.6424,223.7565 1620.91,253.94 1647.15,275.19 " fill="transparent" id="logic_arc_int__baselibs__utils_scoped_op-backto-comp_arc_sta__baselibs__utils" style="stroke:#181818;stroke-width:1;"/><polygon fill="#181818" points="1552.77,198.75,1557.2459,207.523,1556.6553,201.8971,1562.2813,201.3065,1552.77,198.75" style="stroke:#181818;stroke-width:1;"/><text fill="#000000" font-family="sans-serif" font-size="13" lengthAdjust="spacing" textLength="76.9082" x="1610" y="241.5669">implements</text></g><!--link Feature_User to logic_arc_int__baselibs__utils_scoped_op--><g id="link_Feature_User_logic_arc_int__baselibs__utils_scoped_op"><path codeLine="25" d="M3092.75,47.62 C2915.38,59.95 2250.4,107.13 1704,158.5 C1698.37,159.03 1698.611,158.9912 1692.831,159.5612 " fill="transparent" id="Feature_User-to-logic_arc_int__baselibs__utils_scoped_op" style="stroke:#181818;stroke-width:1;"/><polygon fill="#181818" points="1686.86,160.15,1696.2091,163.2474,1691.8359,159.6593,1695.424,155.2861,1686.86,160.15" style="stroke:#181818;stroke-width:1;"/><text fill="#000000" font-family="sans-serif" font-size="13" lengthAdjust="spacing" textLength="23.0103" x="2218" y="124.5669">use</text></g><!--link Feature_User to logic_arc_int__baselibs__message_passing--><g id="link_Feature_User_logic_arc_int__baselibs__message_passing"><path codeLine="26" d="M3092.79,46.62 C2890.18,56.26 2045.41,98.21 1354,158.5 C1348.14,159.01 1348.1651,159.0041 1342.1451,159.5541 " fill="transparent" id="Feature_User-to-logic_arc_int__baselibs__message_passing" style="stroke:#181818;stroke-width:1;"/><polygon fill="#181818" points="1336.17,160.1,1345.4966,163.2646,1341.1493,159.6451,1344.7687,155.2977,1336.17,160.1" style="stroke:#181818;stroke-width:1;"/><text fill="#000000" font-family="sans-serif" font-size="13" lengthAdjust="spacing" textLength="23.0103" x="1944" y="124.5669">use</text></g><!--link Feature_User to logic_arc_int__baselibs__task--><g id="link_Feature_User_logic_arc_int__baselibs__task"><path codeLine="27" d="M3183.22,45.99 C3367.27,52.16 4078.05,77.03 4662,111.5 C4944.06,128.15 5015.06,128.35 5296,158.5 C5301.88,159.13 5301.9529,159.1036 5308.0229,159.8336 " fill="transparent" id="Feature_User-to-logic_arc_int__baselibs__task" style="stroke:#181818;stroke-width:1;"/><polygon fill="#181818" points="5313.98,160.55,5305.522,155.504,5309.0158,159.953,5304.5668,163.4468,5313.98,160.55" style="stroke:#181818;stroke-width:1;"/><text fill="#000000" font-family="sans-serif" font-size="13" lengthAdjust="spacing" textLength="23.0103" x="4949" y="124.5669">use</text></g><!--reverse link logic_arc_int__baselibs__future to comp_arc_sta__baselibs__concurrency--><g id="link_logic_arc_int__baselibs__future_comp_arc_sta__baselibs__concurrency"><path codeLine="28" d="M5577.531,196.8605 C5571.281,197.6805 5571.04,197.71 5565,198.5 C5400.63,219.94 5359.82,227.84 5195,245.5 C5055.99,260.39 4897.23,273.94 4784.16,282.99 " fill="transparent" id="logic_arc_int__baselibs__future-backto-comp_arc_sta__baselibs__concurrency" style="stroke:#181818;stroke-width:1;"/><polygon fill="#181818" points="5583.48,196.08,5574.0361,193.2848,5578.5225,196.7304,5575.0768,201.2168,5583.48,196.08" style="stroke:#181818;stroke-width:1;"/><text fill="#000000" font-family="sans-serif" font-size="13" lengthAdjust="spacing" textLength="76.9082" x="5338" y="241.5669">implements</text></g><!--link Feature_User to logic_arc_int__baselibs__shared_future--><g id="link_Feature_User_logic_arc_int__baselibs__shared_future"><path codeLine="29" d="M3183.2,53.18 C3293.65,74.37 3573.3976,128.0589 3725.8276,157.3189 " fill="transparent" id="Feature_User-to-logic_arc_int__baselibs__shared_future" style="stroke:#181818;stroke-width:1;"/><polygon fill="#181818" points="3731.72,158.45,3723.6354,152.8251,3726.8096,157.5074,3722.1273,160.6816,3731.72,158.45" style="stroke:#181818;stroke-width:1;"/><text fill="#000000" font-family="sans-serif" font-size="13" lengthAdjust="spacing" textLength="23.0103" x="3568" y="124.5669">use</text></g><!--link Feature_User to logic_arc_int__baselibs__condition_variable--><g id="link_Feature_User_logic_arc_int__baselibs__condition_variable"><path codeLine="30" d="M3183.15,62.16 C3247.1,87.18 3357.9821,130.5546 3423.7721,156.2846 " fill="transparent" id="Feature_User-to-logic_arc_int__baselibs__condition_variable" style="stroke:#181818;stroke-width:1;"/><polygon fill="#181818" points="3429.36,158.47,3422.4351,151.4667,3424.7035,156.6489,3419.5213,158.9172,3429.36,158.47" style="stroke:#181818;stroke-width:1;"/><text fill="#000000" font-family="sans-serif" font-size="13" lengthAdjust="spacing" textLength="23.0103" x="3350" y="124.5669">use</text></g><!--link Feature_User to logic_arc_int__baselibs__intrusive_list--><g id="link_Feature_User_logic_arc_int__baselibs__intrusive_list"><path codeLine="31" d="M3092.83,63.27 C3032.1,88.51 2930.2603,130.8367 2869.2603,156.1967 " fill="transparent" id="Feature_User-to-logic_arc_int__baselibs__intrusive_list" style="stroke:#181818;stroke-width:1;"/><polygon fill="#181818" points="2863.72,158.5,2873.566,158.7386,2868.3369,156.5806,2870.4949,151.3515,2863.72,158.5" style="stroke:#181818;stroke-width:1;"/><text fill="#000000" font-family="sans-serif" font-size="13" lengthAdjust="spacing" textLength="23.0103" x="2970" y="124.5669">use</text></g><!--link Feature_User to logic_arc_int__baselibs__memory_shared--><g id="link_Feature_User_logic_arc_int__baselibs__memory_shared"><path codeLine="32" d="M3183.22,45.06 C3409.06,48.04 4437.43,63.72 5278,111.5 C5531.78,125.93 5594.94,134.49 5848,158.5 C5853.85,159.05 5853.8287,159.0438 5859.8387,159.6338 " fill="transparent" id="Feature_User-to-logic_arc_int__baselibs__memory_shared" style="stroke:#181818;stroke-width:1;"/><polygon fill="#181818" points="5865.81,160.22,5857.2439,155.3598,5860.8339,159.7315,5856.4623,163.3216,5865.81,160.22" style="stroke:#181818;stroke-width:1;"/><text fill="#000000" font-family="sans-serif" font-size="13" lengthAdjust="spacing" textLength="23.0103" x="5527" y="124.5669">use</text></g><!--link Feature_User to logic_arc_int__baselibs__dynamic_array--><g id="link_Feature_User_logic_arc_int__baselibs__dynamic_array"><path codeLine="33" d="M3092.91,53.64 C2986.75,75.17 2725.1004,128.2179 2581.8504,157.2579 " fill="transparent" id="Feature_User-to-logic_arc_int__baselibs__dynamic_array" style="stroke:#181818;stroke-width:1;"/><polygon fill="#181818" points="2575.97,158.45,2585.5853,160.5821,2580.8703,157.4566,2583.9959,152.7416,2575.97,158.45" style="stroke:#181818;stroke-width:1;"/><text fill="#000000" font-family="sans-serif" font-size="13" lengthAdjust="spacing" textLength="23.0103" x="2792" y="124.5669">use</text></g><!--reverse link logic_arc_int__baselibs__dynamic_array to comp_arc_sta__baselibs__containers--><g id="link_logic_arc_int__baselibs__dynamic_array_comp_arc_sta__baselibs__containers"><path codeLine="34" d="M2514.8918,202.1527 C2545.8118,223.4427 2590.39,254.14 2621.24,275.38 " fill="transparent" id="logic_arc_int__baselibs__dynamic_array-backto-comp_arc_sta__baselibs__containers" style="stroke:#181818;stroke-width:1;"/><polygon fill="#181818" points="2509.95,198.75,2515.0943,207.1486,2514.0682,201.5856,2519.6312,200.5595,2509.95,198.75" style="stroke:#181818;stroke-width:1;"/><text fill="#000000" font-family="sans-serif" font-size="13" lengthAdjust="spacing" textLength="76.9082" x="2577" y="241.5669">implements</text></g><!--reverse link logic_arc_int__baselibs__result to comp_arc_sta__baselibs__result--><g id="link_logic_arc_int__baselibs__result_comp_arc_sta__baselibs__result"><path codeLine="35" d="M2171,204.75 C2171,225.98 2171,253.94 2171,275.19 " fill="transparent" id="logic_arc_int__baselibs__result-backto-comp_arc_sta__baselibs__result" style="stroke:#181818;stroke-width:1;"/><polygon fill="#181818" points="2171,198.75,2167,207.75,2171,203.75,2175,207.75,2171,198.75" style="stroke:#181818;stroke-width:1;"/><text fill="#000000" font-family="sans-serif" font-size="13" lengthAdjust="spacing" textLength="76.9082" x="2172" y="241.5669">implements</text></g><!--link Feature_User to logic_arc_int__baselibs__bit_mask_operator--><g id="link_Feature_User_logic_arc_int__baselibs__bit_mask_operator"><path codeLine="36" d="M3092.96,45.86 C2866.88,52.93 1833.35,87.77 990,158.5 C984.37,158.97 984.6168,158.9426 978.8368,159.4526 " fill="transparent" id="Feature_User-to-logic_arc_int__baselibs__bit_mask_operator" style="stroke:#181818;stroke-width:1;"/><polygon fill="#181818" points="972.86,159.98,982.1767,163.1735,977.8406,159.5405,981.4736,155.2044,972.86,159.98" style="stroke:#181818;stroke-width:1;"/><text fill="#000000" font-family="sans-serif" font-size="13" lengthAdjust="spacing" textLength="23.0103" x="1640" y="124.5669">use</text></g><!--link Feature_User to logic_arc_int__baselibs__filesystem--><g id="link_Feature_User_logic_arc_int__baselibs__filesystem"><path codeLine="37" d="M3138,81.55 C3138,106.45 3138,132.26 3138,152.26 " fill="transparent" id="Feature_User-to-logic_arc_int__baselibs__filesystem" style="stroke:#181818;stroke-width:1;"/><polygon fill="#181818" points="3138,158.26,3142,149.26,3138,153.26,3134,149.26,3138,158.26" style="stroke:#181818;stroke-width:1;"/><text fill="#000000" font-family="sans-serif" font-size="13" lengthAdjust="spacing" textLength="23.0103" x="3139" y="124.5669">use</text></g><!--link Feature_User to logic_arc_int__baselibs__executor--><g id="link_Feature_User_logic_arc_int__baselibs__executor"><path codeLine="38" d="M3183.12,50.43 C3328.3,69.51 3781.2812,129.0381 4010.7412,159.1981 " fill="transparent" id="Feature_User-to-logic_arc_int__baselibs__executor" style="stroke:#181818;stroke-width:1;"/><polygon fill="#181818" points="4016.69,159.98,4008.288,154.8412,4011.7326,159.3284,4007.2455,162.773,4016.69,159.98" style="stroke:#181818;stroke-width:1;"/><text fill="#000000" font-family="sans-serif" font-size="13" lengthAdjust="spacing" textLength="23.0103" x="3766" y="124.5669">use</text></g><!--link Feature_User to logic_arc_int__baselibs__bit_manipulation--><g id="link_Feature_User_logic_arc_int__baselibs__bit_manipulation"><path codeLine="39" d="M3092.85,45.79 C2891.4,51.66 2054.42,76.95 1368,111.5 C1035.32,128.25 951.92,130.47 620,158.5 C614.24,158.99 614.3552,158.955 608.4352,159.495 " fill="transparent" id="Feature_User-to-logic_arc_int__baselibs__bit_manipulation" style="stroke:#181818;stroke-width:1;"/><polygon fill="#181818" points="602.46,160.04,611.7861,163.2059,607.4393,159.5858,611.0594,155.239,602.46,160.04" style="stroke:#181818;stroke-width:1;"/><text fill="#000000" font-family="sans-serif" font-size="13" lengthAdjust="spacing" textLength="23.0103" x="1369" y="124.5669">use</text></g><!--link Feature_User to logic_arc_int__baselibs__promise--><g id="link_Feature_User_logic_arc_int__baselibs__promise"><path codeLine="40" d="M3183.26,46.96 C3369.05,57.23 4091.25,98.98 4683,158.5 C4688.97,159.1 4689.1053,159.1002 4695.2553,159.7702 " fill="transparent" id="Feature_User-to-logic_arc_int__baselibs__promise" style="stroke:#181818;stroke-width:1;"/><polygon fill="#181818" points="4701.22,160.42,4692.7061,155.4688,4696.2494,159.8785,4691.8397,163.4218,4701.22,160.42" style="stroke:#181818;stroke-width:1;"/><text fill="#000000" font-family="sans-serif" font-size="13" lengthAdjust="spacing" textLength="23.0103" x="4346" y="124.5669">use</text></g><!--link Feature_User to logic_arc_int__baselibs__json--><g id="link_Feature_User_logic_arc_int__baselibs__json"><path codeLine="41" d="M3092.7,45.4 C2867.56,50 1846.42,72.14 1011,111.5 C677.83,127.2 593.82,124.62 262,158.5 C256.27,159.08 256.3797,159.0354 250.4597,159.7254 " fill="transparent" id="Feature_User-to-logic_arc_int__baselibs__json" style="stroke:#181818;stroke-width:1;"/><polygon fill="#181818" points="244.5,160.42,253.9026,163.3512,249.4664,159.8411,252.9764,155.405,244.5,160.42" style="stroke:#181818;stroke-width:1;"/><text fill="#000000" font-family="sans-serif" font-size="13" lengthAdjust="spacing" textLength="23.0103" x="1012" y="124.5669">use</text></g><!--link Feature_User to logic_arc_int__baselibs__future--><g id="link_Feature_User_logic_arc_int__baselibs__future"><path codeLine="42" d="M3183.28,45.41 C3389.98,49.73 4264.62,69.67 4981,111.5 C5240.95,126.68 5306.08,130.78 5565,158.5 C5570.94,159.14 5571.0511,159.119 5577.1711,159.839 " fill="transparent" id="Feature_User-to-logic_arc_int__baselibs__future" style="stroke:#181818;stroke-width:1;"/><polygon fill="#181818" points="5583.13,160.54,5574.659,155.5158,5578.1642,159.9558,5573.7243,163.461,5583.13,160.54" style="stroke:#181818;stroke-width:1;"/><text fill="#000000" font-family="sans-serif" font-size="13" lengthAdjust="spacing" textLength="23.0103" x="5246" y="124.5669">use</text></g><!--link Feature_User to logic_arc_int__baselibs__synchronized_queue--><g id="link_Feature_User_logic_arc_int__baselibs__synchronized_queue"><path codeLine="43" d="M3183.13,48.91 C3338.42,64.1 3865.02,115.64 4300,158.5 C4305.83,159.07 4305.7989,159.0719 4311.7889,159.6619 " fill="transparent" id="Feature_User-to-logic_arc_int__baselibs__synchronized_queue" style="stroke:#181818;stroke-width:1;"/><polygon fill="#181818" points="4317.76,160.25,4309.1954,155.3871,4312.7841,159.7599,4308.4113,163.3485,4317.76,160.25" style="stroke:#181818;stroke-width:1;"/><text fill="#000000" font-family="sans-serif" font-size="13" lengthAdjust="spacing" textLength="23.0103" x="3982" y="124.5669">use</text></g><!--reverse link logic_arc_int__baselibs__intrusive_list to comp_arc_sta__baselibs__containers--><g id="link_logic_arc_int__baselibs__intrusive_list_comp_arc_sta__baselibs__containers"><path codeLine="44" d="M2784.7494,202.1252 C2753.4594,223.4152 2708.31,254.14 2677.1,275.38 " fill="transparent" id="logic_arc_int__baselibs__intrusive_list-backto-comp_arc_sta__baselibs__containers" style="stroke:#181818;stroke-width:1;"/><polygon fill="#181818" points="2789.71,198.75,2780.0189,200.5058,2785.5762,201.5627,2784.5192,207.1199,2789.71,198.75" style="stroke:#181818;stroke-width:1;"/><text fill="#000000" font-family="sans-serif" font-size="13" lengthAdjust="spacing" textLength="76.9082" x="2745" y="241.5669">implements</text></g><!--reverse link logic_arc_int__baselibs__message_passing to comp_arc_sta__baselibs__message_passing--><g id="link_logic_arc_int__baselibs__message_passing_comp_arc_sta__baselibs__message_passing"><path codeLine="45" d="M1172,204.75 C1172,225.98 1172,253.94 1172,275.19 " fill="transparent" id="logic_arc_int__baselibs__message_passing-backto-comp_arc_sta__baselibs__message_passing" style="stroke:#181818;stroke-width:1;"/><polygon fill="#181818" points="1172,198.75,1168,207.75,1172,203.75,1176,207.75,1172,198.75" style="stroke:#181818;stroke-width:1;"/><text fill="#000000" font-family="sans-serif" font-size="13" lengthAdjust="spacing" textLength="76.9082" x="1173" y="241.5669">implements</text></g><!--reverse link logic_arc_int__baselibs__task to comp_arc_sta__baselibs__concurrency--><g id="link_logic_arc_int__baselibs__task_comp_arc_sta__baselibs__concurrency"><path codeLine="46" d="M5308.0036,199.1668 C5222.0336,212.7568 5108.31,230.39 5003,245.5 C4930.55,255.89 4849.99,266.68 4782.67,275.48 " fill="transparent" id="logic_arc_int__baselibs__task-backto-comp_arc_sta__baselibs__concurrency" style="stroke:#181818;stroke-width:1;"/><polygon fill="#181818" points="5313.93,198.23,5304.4158,195.6843,5308.9913,199.0107,5305.6649,203.5862,5313.93,198.23" style="stroke:#181818;stroke-width:1;"/><text fill="#000000" font-family="sans-serif" font-size="13" lengthAdjust="spacing" textLength="76.9082" x="5110" y="241.5669">implements</text></g><!--reverse link logic_arc_int__baselibs__bit_manipulation to comp_arc_sta__baselibs__bit_manipulation--><g id="link_logic_arc_int__baselibs__bit_manipulation_comp_arc_sta__baselibs__bit_manipulation"><path codeLine="47" d="M477.2336,201.9049 C511.6736,223.1949 561.72,254.14 596.08,275.38 " fill="transparent" id="logic_arc_int__baselibs__bit_manipulation-backto-comp_arc_sta__baselibs__bit_manipulation" style="stroke:#181818;stroke-width:1;"/><polygon fill="#181818" points="472.13,198.75,477.6821,206.8848,476.383,201.3791,481.8886,200.08,472.13,198.75" style="stroke:#181818;stroke-width:1;"/><text fill="#000000" font-family="sans-serif" font-size="13" lengthAdjust="spacing" textLength="76.9082" x="547" y="241.5669">implements</text></g><!--reverse link logic_arc_int__baselibs__executor to comp_arc_sta__baselibs__concurrency--><g id="link_logic_arc_int__baselibs__executor_comp_arc_sta__baselibs__concurrency"><path codeLine="48" d="M4236.0275,199.9371 C4325.6275,221.2271 4463.99,254.11 4553.65,275.41 " fill="transparent" id="logic_arc_int__baselibs__executor-backto-comp_arc_sta__baselibs__concurrency" style="stroke:#181818;stroke-width:1;"/><polygon fill="#181818" points="4230.19,198.55,4238.0215,204.5222,4235.0546,199.7059,4239.8709,196.7389,4230.19,198.55" style="stroke:#181818;stroke-width:1;"/><text fill="#000000" font-family="sans-serif" font-size="13" lengthAdjust="spacing" textLength="76.9082" x="4422" y="241.5669">implements</text></g><!--reverse link logic_arc_int__baselibs__utils_base64 to comp_arc_sta__baselibs__utils--><g id="link_logic_arc_int__baselibs__utils_base64_comp_arc_sta__baselibs__utils"><path codeLine="49" d="M1829.8479,201.7743 C1793.3679,223.0643 1740.14,254.14 1703.75,275.38 " fill="transparent" id="logic_arc_int__baselibs__utils_base64-backto-comp_arc_sta__baselibs__utils" style="stroke:#181818;stroke-width:1;"/><polygon fill="#181818" points="1835.03,198.75,1825.2407,199.8317,1830.7116,201.2702,1829.2731,206.7411,1835.03,198.75" style="stroke:#181818;stroke-width:1;"/><text fill="#000000" font-family="sans-serif" font-size="13" lengthAdjust="spacing" textLength="76.9082" x="1783" y="241.5669">implements</text></g><!--link Feature_User to logic_arc_int__baselibs__result--><g id="link_Feature_User_logic_arc_int__baselibs__result"><path codeLine="50" d="M3092.98,50.69 C2951.09,70.21 2515.774,130.0824 2299.264,159.8624 " fill="transparent" id="Feature_User-to-logic_arc_int__baselibs__result" style="stroke:#181818;stroke-width:1;"/><polygon fill="#181818" points="2293.32,160.68,2302.7811,163.4163,2298.2734,159.9987,2301.691,155.4909,2293.32,160.68" style="stroke:#181818;stroke-width:1;"/><text fill="#000000" font-family="sans-serif" font-size="13" lengthAdjust="spacing" textLength="23.0103" x="2627" y="124.5669">use</text></g><!--reverse link logic_arc_int__baselibs__bit_mask_operator to comp_arc_sta__baselibs__bit_manipulation--><g id="link_logic_arc_int__baselibs__bit_mask_operator_comp_arc_sta__baselibs__bit_manipulation"><path codeLine="51" d="M770.17,202.0055 C737.21,223.2955 689.47,254.14 656.59,275.38 " fill="transparent" id="logic_arc_int__baselibs__bit_mask_operator-backto-comp_arc_sta__baselibs__bit_manipulation" style="stroke:#181818;stroke-width:1;"/><polygon fill="#181818" points="775.21,198.75,765.4797,200.2733,771.01,201.4629,769.8203,206.9933,775.21,198.75" style="stroke:#181818;stroke-width:1;"/><text fill="#000000" font-family="sans-serif" font-size="13" lengthAdjust="spacing" textLength="76.9082" x="728" y="241.5669">implements</text></g><!--reverse link logic_arc_int__baselibs__json to comp_arc_sta__baselibs__json--><g id="link_logic_arc_int__baselibs__json_comp_arc_sta__baselibs__json"><path codeLine="52" d="M128,204.75 C128,225.98 128,253.94 128,275.19 " fill="transparent" id="logic_arc_int__baselibs__json-backto-comp_arc_sta__baselibs__json" style="stroke:#181818;stroke-width:1;"/><polygon fill="#181818" points="128,198.75,124,207.75,128,203.75,132,207.75,128,198.75" style="stroke:#181818;stroke-width:1;"/><text fill="#000000" font-family="sans-serif" font-size="13" lengthAdjust="spacing" textLength="76.9082" x="129" y="241.5669">implements</text></g><!--SRC=[hLOzRzmm3DtzAuJibnP5qI48iXJerB6T1LbcxjZemnMfD6wH_nxPJfexzmf9ZaVvgAT7yl7nb37-bxJuW6xViEy5Uz5wPcz5Xm4qetVD0JiGn130yz33V0RRyo0KSy0sCb1pJJmOk6ak5Q5fnP_cAphux8qF8a0tdRuTKDyv818VBjytZytrk-SxZTASuYw-WE8OG7md21T2aNZ-8CSFeccqjxrKGKjY9MMh20os9ANsJiSGmEb1xEBkHXY_Hpr5ekFZI5Pq9mDGD7mbqFO6B3WciG5q7xn5WgrXQN3w4Bp3tz39dn7YueMJ4kswukGZmV_fMR0-398EAlKkG_0aTlFi9rHv6ySSoy1lqG0DIQysW_qQk3Nh5DdXE3loNWLKhLdViyXeQ3f_-fXfsXIQOJR3aVPzgghltqZh26TYLW5WamseFSXU4INpgGSOnPmfI7d3pkchWij2fRMfd9DBBKOwXaXu3z8WyPf-d4nnxVLkSCfEFmKrvDl2Ags3a1Fh0hHaHcTto-2Uy_-AN5jaQKShJU8FAYsk-d8TMq_jNNW07LUzEXDts4UZHhdL8_pTSRKNVz2QvzOErBcTkOqabsDMeic5rMNNwS8OjrrDissMO2xLaW7-LrpR4d-LVGbk-IvyMQqhpQ3exzIgKfuOJ4dEuunbaESnF0Px0W00]--></g></svg>