<svg xmlns="http://www.w3.org/2000/svg" xmlns:xlink="http://www.w3.org/1999/xlink" contentStyleType="text/css" data-diagram-type="CLASS" height="322px" preserveAspectRatio="none" style="width:6203px;height:322px;background:#FFFFFF;" version="1.1" viewBox="0 0 6203 322" width="6203px" zoomAndPan="magnify"><defs/><g><!--entity Feature_User--><g id="elem_Feature_User"><ellipse cx="3185.6685" cy="14" fill="#F1F1F1" rx="8" ry="8" style="stroke:#181818;stroke-width:0.5;"/><path d="M3185.6685,22 L3185.6685,49 M3172.6685,30 L3198.6685,30 M3185.6685,49 L3172.6685,64 M3185.6685,49 L3198.6685,64 " fill="transparent" style="stroke:#181818;stroke-width:0.5;"/><text fill="#000000" font-family="sans-serif" font-size="14" lengthAdjust="spacing" textLength="90.3369" x="3140.5" y="78.4951">Feature User</text></g><!--class comp_arc_sta__baselibs__memory_shared--><g id="elem_comp_arc_sta__baselibs__memory_shared"><rect fill="#F1F1F1" height="40" id="comp_arc_sta__baselibs__memory_shared" rx="2.5" ry="2.5" style="stroke:#181818;stroke-width:0.5;" width="327.0117" x="5869" y="275.5"/><ellipse cx="5884" cy="291.5" fill="#ADD1B2" rx="11" ry="11" style="stroke:#181818;stroke-width:1;"/><path d="M5886.9688,297.1406 Q5886.3906,297.4375 5885.75,297.5781 Q5885.1094,297.7344 5884.4063,297.7344 Q5881.9063,297.7344 5880.5781,296.0938 Q5879.2656,294.4375 5879.2656,291.3125 Q5879.2656,288.1875 5880.5781,286.5313 Q5881.9063,284.875 5884.4063,284.875 Q5885.1094,284.875 5885.75,285.0313 Q5886.4063,285.1875 5886.9688,285.4844 L5886.9688,288.2031 Q5886.3438,287.625 5885.75,287.3594 Q5885.1563,287.0781 5884.5313,287.0781 Q5883.1875,287.0781 5882.5,288.1563 Q5881.8125,289.2188 5881.8125,291.3125 Q5881.8125,293.4063 5882.5,294.4844 Q5883.1875,295.5469 5884.5313,295.5469 Q5885.1563,295.5469 5885.75,295.2813 Q5886.3438,295 5886.9688,294.4219 L5886.9688,297.1406 Z " fill="#000000"/><text fill="#000000" font-family="sans-serif" font-size="14" lengthAdjust="spacing" textLength="295.0117" x="5898" y="296.3467">comp_arc_sta__baselibs__memory_shared</text><line style="stroke:#181818;stroke-width:0.5;" x1="5870" x2="6195.0117" y1="307.5" y2="307.5"/></g><!--class logic_arc_int__baselibs__memory_shared--><g id="elem_logic_arc_int__baselibs__memory_shared"><rect fill="#F1F1F1" height="40" id="logic_arc_int__baselibs__memory_shared" rx="2.5" ry="2.5" style="stroke:#181818;stroke-width:0.5;" width="318.043" x="5869.5" y="158.5"/><ellipse cx="5884.5" cy="174.5" fill="#ADD1B2" rx="11" ry="11" style="stroke:#181818;stroke-width:1;"/><path d="M5887.4688,180.1406 Q5886.8906,180.4375 5886.25,180.5781 Q5885.6094,180.7344 5884.9063,180.7344 Q5882.4063,180.7344 5881.0781,179.0938 Q5879.7656,177.4375 5879.7656,174.3125 Q5879.7656,171.1875 5881.0781,169.5313 Q5882.4063,167.875 5884.9063,167.875 Q5885.6094,167.875 5886.25,168.0313 Q5886.9063,168.1875 5887.4688,168.4844 L5887.4688,171.2031 Q5886.8438,170.625 5886.25,170.3594 Q5885.6563,170.0781 5885.0313,170.0781 Q5883.6875,170.0781 5883,171.1563 Q5882.3125,172.2188 5882.3125,174.3125 Q5882.3125,176.4063 5883,177.4844 Q5883.6875,178.5469 5885.0313,178.5469 Q5885.6563,178.5469 5886.25,178.2813 Q5886.8438,178 5887.4688,177.4219 L5887.4688,180.1406 Z " fill="#000000"/><text fill="#000000" font-family="sans-serif" font-size="14" lengthAdjust="spacing" textLength="286.043" x="5898.5" y="179.3467">logic_arc_int__baselibs__memory_shared</text><line style="stroke:#181818;stroke-width:0.5;" x1="5870.5" x2="6186.543" y1="190.5" y2="190.5"/></g><!--class comp_arc_sta__baselibs__containers--><g id="elem_comp_arc_sta__baselibs__containers"><rect fill="#F1F1F1" height="40" id="comp_arc_sta__baselibs__containers" rx="2.5" ry="2.5" style="stroke:#181818;stroke-width:0.5;" width="287.1445" x="2177" y="275.5"/><ellipse cx="2192" cy="291.5" fill="#ADD1B2" rx="11" ry="11" style="stroke:#181818;stroke-width:1;"/><path d="M2194.9688,297.1406 Q2194.3906,297.4375 2193.75,297.5781 Q2193.1094,297.7344 2192.4063,297.7344 Q2189.9063,297.7344 2188.5781,296.0938 Q2187.2656,294.4375 2187.2656,291.3125 Q2187.2656,288.1875 2188.5781,286.5313 Q2189.9063,284.875 2192.4063,284.875 Q2193.1094,284.875 2193.75,285.0313 Q2194.4063,285.1875 2194.9688,285.4844 L2194.9688,288.2031 Q2194.3438,287.625 2193.75,287.3594 Q2193.1563,287.0781 2192.5313,287.0781 Q2191.1875,287.0781 2190.5,288.1563 Q2189.8125,289.2188 2189.8125,291.3125 Q2189.8125,293.4063 2190.5,294.4844 Q2191.1875,295.5469 2192.5313,295.5469 Q2193.1563,295.5469 2193.75,295.2813 Q2194.3438,295 2194.9688,294.4219 L2194.9688,297.1406 Z " fill="#000000"/><text fill="#000000" font-family="sans-serif" font-size="14" lengthAdjust="spacing" textLength="255.1445" x="2206" y="296.3467">comp_arc_sta__baselibs__containers</text><line style="stroke:#181818;stroke-width:0.5;" x1="2178" x2="2463.1445" y1="307.5" y2="307.5"/></g><!--class logic_arc_int__baselibs__intrusive_list--><g id="elem_logic_arc_int__baselibs__intrusive_list"><rect fill="#F1F1F1" height="40" id="logic_arc_int__baselibs__intrusive_list" rx="2.5" ry="2.5" style="stroke:#181818;stroke-width:0.5;" width="293.0713" x="2060" y="158.5"/><ellipse cx="2075" cy="174.5" fill="#ADD1B2" rx="11" ry="11" style="stroke:#181818;stroke-width:1;"/><path d="M2077.9688,180.1406 Q2077.3906,180.4375 2076.75,180.5781 Q2076.1094,180.7344 2075.4063,180.7344 Q2072.9063,180.7344 2071.5781,179.0938 Q2070.2656,177.4375 2070.2656,174.3125 Q2070.2656,171.1875 2071.5781,169.5313 Q2072.9063,167.875 2075.4063,167.875 Q2076.1094,167.875 2076.75,168.0313 Q2077.4063,168.1875 2077.9688,168.4844 L2077.9688,171.2031 Q2077.3438,170.625 2076.75,170.3594 Q2076.1563,170.0781 2075.5313,170.0781 Q2074.1875,170.0781 2073.5,171.1563 Q2072.8125,172.2188 2072.8125,174.3125 Q2072.8125,176.4063 2073.5,177.4844 Q2074.1875,178.5469 2075.5313,178.5469 Q2076.1563,178.5469 2076.75,178.2813 Q2077.3438,178 2077.9688,177.4219 L2077.9688,180.1406 Z " fill="#000000"/><text fill="#000000" font-family="sans-serif" font-size="14" lengthAdjust="spacing" textLength="261.0713" x="2089" y="179.3467">logic_arc_int__baselibs__intrusive_list</text><line style="stroke:#181818;stroke-width:0.5;" x1="2061" x2="2352.0713" y1="190.5" y2="190.5"/></g><!--class comp_arc_sta__baselibs__concurrency--><g id="elem_comp_arc_sta__baselibs__concurrency"><rect fill="#F1F1F1" height="40" id="comp_arc_sta__baselibs__concurrency" rx="2.5" ry="2.5" style="stroke:#181818;stroke-width:0.5;" width="300.2012" x="3734.5" y="275.5"/><ellipse cx="3749.5" cy="291.5" fill="#ADD1B2" rx="11" ry="11" style="stroke:#181818;stroke-width:1;"/><path d="M3752.4688,297.1406 Q3751.8906,297.4375 3751.25,297.5781 Q3750.6094,297.7344 3749.9063,297.7344 Q3747.4063,297.7344 3746.0781,296.0938 Q3744.7656,294.4375 3744.7656,291.3125 Q3744.7656,288.1875 3746.0781,286.5313 Q3747.4063,284.875 3749.9063,284.875 Q3750.6094,284.875 3751.25,285.0313 Q3751.9063,285.1875 3752.4688,285.4844 L3752.4688,288.2031 Q3751.8438,287.625 3751.25,287.3594 Q3750.6563,287.0781 3750.0313,287.0781 Q3748.6875,287.0781 3748,288.1563 Q3747.3125,289.2188 3747.3125,291.3125 Q3747.3125,293.4063 3748,294.4844 Q3748.6875,295.5469 3750.0313,295.5469 Q3750.6563,295.5469 3751.25,295.2813 Q3751.8438,295 3752.4688,294.4219 L3752.4688,297.1406 Z " fill="#000000"/><text fill="#000000" font-family="sans-serif" font-size="14" lengthAdjust="spacing" textLength="268.2012" x="3763.5" y="296.3467">comp_arc_sta__baselibs__concurrency</text><line style="stroke:#181818;stroke-width:0.5;" x1="3735.5" x2="4033.7012" y1="307.5" y2="307.5"/></g><!--class logic_arc_int__baselibs__future--><g id="elem_logic_arc_int__baselibs__future"><rect fill="#F1F1F1" height="40" id="logic_arc_int__baselibs__future" rx="2.5" ry="2.5" style="stroke:#181818;stroke-width:0.5;" width="247.0791" x="4635" y="158.5"/><ellipse cx="4650" cy="174.5" fill="#ADD1B2" rx="11" ry="11" style="stroke:#181818;stroke-width:1;"/><path d="M4652.9688,180.1406 Q4652.3906,180.4375 4651.75,180.5781 Q4651.1094,180.7344 4650.4063,180.7344 Q4647.9063,180.7344 4646.5781,179.0938 Q4645.2656,177.4375 4645.2656,174.3125 Q4645.2656,171.1875 4646.5781,169.5313 Q4647.9063,167.875 4650.4063,167.875 Q4651.1094,167.875 4651.75,168.0313 Q4652.4063,168.1875 4652.9688,168.4844 L4652.9688,171.2031 Q4652.3438,170.625 4651.75,170.3594 Q4651.1563,170.0781 4650.5313,170.0781 Q4649.1875,170.0781 4648.5,171.1563 Q4647.8125,172.2188 4647.8125,174.3125 Q4647.8125,176.4063 4648.5,177.4844 Q4649.1875,178.5469 4650.5313,178.5469 Q4651.1563,178.5469 4651.75,178.2813 Q4652.3438,178 4652.9688,177.4219 L4652.9688,180.1406 Z " fill="#000000"/><text fill="#000000" font-family="sans-serif" font-size="14" lengthAdjust="spacing" textLength="215.0791" x="4664" y="179.3467">logic_arc_int__baselibs__future</text><line style="stroke:#181818;stroke-width:0.5;" x1="4636" x2="4881.0791" y1="190.5" y2="190.5"/></g><!--class logic_arc_int__baselibs__task_result--><g id="elem_logic_arc_int__baselibs__task_result"><rect fill="#F1F1F1" height="40" id="logic_arc_int__baselibs__task_result" rx="2.5" ry="2.5" style="stroke:#181818;stroke-width:0.5;" width="280.9307" x="4319" y="158.5"/><ellipse cx="4334" cy="174.5" fill="#ADD1B2" rx="11" ry="11" style="stroke:#181818;stroke-width:1;"/><path d="M4336.9688,180.1406 Q4336.3906,180.4375 4335.75,180.5781 Q4335.1094,180.7344 4334.4063,180.7344 Q4331.9063,180.7344 4330.5781,179.0938 Q4329.2656,177.4375 4329.2656,174.3125 Q4329.2656,171.1875 4330.5781,169.5313 Q4331.9063,167.875 4334.4063,167.875 Q4335.1094,167.875 4335.75,168.0313 Q4336.4063,168.1875 4336.9688,168.4844 L4336.9688,171.2031 Q4336.3438,170.625 4335.75,170.3594 Q4335.1563,170.0781 4334.5313,170.0781 Q4333.1875,170.0781 4332.5,171.1563 Q4331.8125,172.2188 4331.8125,174.3125 Q4331.8125,176.4063 4332.5,177.4844 Q4333.1875,178.5469 4334.5313,178.5469 Q4335.1563,178.5469 4335.75,178.2813 Q4336.3438,178 4336.9688,177.4219 L4336.9688,180.1406 Z " fill="#000000"/><text fill="#000000" font-family="sans-serif" font-size="14" lengthAdjust="spacing" textLength="248.9307" x="4348" y="179.3467">logic_arc_int__baselibs__task_result</text><line style="stroke:#181818;stroke-width:0.5;" x1="4320" x2="4598.9307" y1="190.5" y2="190.5"/></g><!--class comp_arc_sta__baselibs__filesystem--><g id="elem_comp_arc_sta__baselibs__filesystem"><rect fill="#F1F1F1" height="40" id="comp_arc_sta__baselibs__filesystem" rx="2.5" ry="2.5" style="stroke:#181818;stroke-width:0.5;" width="285.4492" x="5549" y="275.5"/><ellipse cx="5564" cy="291.5" fill="#ADD1B2" rx="11" ry="11" style="stroke:#181818;stroke-width:1;"/><path d="M5566.9688,297.1406 Q5566.3906,297.4375 5565.75,297.5781 Q5565.1094,297.7344 5564.4063,297.7344 Q5561.9063,297.7344 5560.5781,296.0938 Q5559.2656,294.4375 5559.2656,291.3125 Q5559.2656,288.1875 5560.5781,286.5313 Q5561.9063,284.875 5564.4063,284.875 Q5565.1094,284.875 5565.75,285.0313 Q5566.4063,285.1875 5566.9688,285.4844 L5566.9688,288.2031 Q5566.3438,287.625 5565.75,287.3594 Q5565.1563,287.0781 5564.5313,287.0781 Q5563.1875,287.0781 5562.5,288.1563 Q5561.8125,289.2188 5561.8125,291.3125 Q5561.8125,293.4063 5562.5,294.4844 Q5563.1875,295.5469 5564.5313,295.5469 Q5565.1563,295.5469 5565.75,295.2813 Q5566.3438,295 5566.9688,294.4219 L5566.9688,297.1406 Z " fill="#000000"/><text fill="#000000" font-family="sans-serif" font-size="14" lengthAdjust="spacing" textLength="253.4492" x="5578" y="296.3467">comp_arc_sta__baselibs__filesystem</text><line style="stroke:#181818;stroke-width:0.5;" x1="5550" x2="5833.4492" y1="307.5" y2="307.5"/></g><!--class logic_arc_int__baselibs__filesystem--><g id="elem_logic_arc_int__baselibs__filesystem"><rect fill="#F1F1F1" height="40" id="logic_arc_int__baselibs__filesystem" rx="2.5" ry="2.5" style="stroke:#181818;stroke-width:0.5;" width="276.4805" x="5553.5" y="158.5"/><ellipse cx="5568.5" cy="174.5" fill="#ADD1B2" rx="11" ry="11" style="stroke:#181818;stroke-width:1;"/><path d="M5571.4688,180.1406 Q5570.8906,180.4375 5570.25,180.5781 Q5569.6094,180.7344 5568.9063,180.7344 Q5566.4063,180.7344 5565.0781,179.0938 Q5563.7656,177.4375 5563.7656,174.3125 Q5563.7656,171.1875 5565.0781,169.5313 Q5566.4063,167.875 5568.9063,167.875 Q5569.6094,167.875 5570.25,168.0313 Q5570.9063,168.1875 5571.4688,168.4844 L5571.4688,171.2031 Q5570.8438,170.625 5570.25,170.3594 Q5569.6563,170.0781 5569.0313,170.0781 Q5567.6875,170.0781 5567,171.1563 Q5566.3125,172.2188 5566.3125,174.3125 Q5566.3125,176.4063 5567,177.4844 Q5567.6875,178.5469 5569.0313,178.5469 Q5569.6563,178.5469 5570.25,178.2813 Q5570.8438,178 5571.4688,177.4219 L5571.4688,180.1406 Z " fill="#000000"/><text fill="#000000" font-family="sans-serif" font-size="14" lengthAdjust="spacing" textLength="244.4805" x="5582.5" y="179.3467">logic_arc_int__baselibs__filesystem</text><line style="stroke:#181818;stroke-width:0.5;" x1="5554.5" x2="5828.9805" y1="190.5" y2="190.5"/></g><!--class comp_arc_sta__baselibs__json--><g id="elem_comp_arc_sta__baselibs__json"><rect fill="#F1F1F1" height="40" id="comp_arc_sta__baselibs__json" rx="2.5" ry="2.5" style="stroke:#181818;stroke-width:0.5;" width="242.1367" x="5271.5" y="275.5"/><ellipse cx="5286.5" cy="291.5" fill="#ADD1B2" rx="11" ry="11" style="stroke:#181818;stroke-width:1;"/><path d="M5289.4688,297.1406 Q5288.8906,297.4375 5288.25,297.5781 Q5287.6094,297.7344 5286.9063,297.7344 Q5284.4063,297.7344 5283.0781,296.0938 Q5281.7656,294.4375 5281.7656,291.3125 Q5281.7656,288.1875 5283.0781,286.5313 Q5284.4063,284.875 5286.9063,284.875 Q5287.6094,284.875 5288.25,285.0313 Q5288.9063,285.1875 5289.4688,285.4844 L5289.4688,288.2031 Q5288.8438,287.625 5288.25,287.3594 Q5287.6563,287.0781 5287.0313,287.0781 Q5285.6875,287.0781 5285,288.1563 Q5284.3125,289.2188 5284.3125,291.3125 Q5284.3125,293.4063 5285,294.4844 Q5285.6875,295.5469 5287.0313,295.5469 Q5287.6563,295.5469 5288.25,295.2813 Q5288.8438,295 5289.4688,294.4219 L5289.4688,297.1406 Z " fill="#000000"/><text fill="#000000" font-family="sans-serif" font-size="14" lengthAdjust="spacing" textLength="210.1367" x="5300.5" y="296.3467">comp_arc_sta__baselibs__json</text><line style="stroke:#181818;stroke-width:0.5;" x1="5272.5" x2="5512.6367" y1="307.5" y2="307.5"/></g><!--class logic_arc_int__baselibs__json--><g id="elem_logic_arc_int__baselibs__json"><rect fill="#F1F1F1" height="40" id="logic_arc_int__baselibs__json" rx="2.5" ry="2.5" style="stroke:#181818;stroke-width:0.5;" width="233.168" x="5285" y="158.5"/><ellipse cx="5300" cy="174.5" fill="#ADD1B2" rx="11" ry="11" style="stroke:#181818;stroke-width:1;"/><path d="M5302.9688,180.1406 Q5302.3906,180.4375 5301.75,180.5781 Q5301.1094,180.7344 5300.4063,180.7344 Q5297.9063,180.7344 5296.5781,179.0938 Q5295.2656,177.4375 5295.2656,174.3125 Q5295.2656,171.1875 5296.5781,169.5313 Q5297.9063,167.875 5300.4063,167.875 Q5301.1094,167.875 5301.75,168.0313 Q5302.4063,168.1875 5302.9688,168.4844 L5302.9688,171.2031 Q5302.3438,170.625 5301.75,170.3594 Q5301.1563,170.0781 5300.5313,170.0781 Q5299.1875,170.0781 5298.5,171.1563 Q5297.8125,172.2188 5297.8125,174.3125 Q5297.8125,176.4063 5298.5,177.4844 Q5299.1875,178.5469 5300.5313,178.5469 Q5301.1563,178.5469 5301.75,178.2813 Q5302.3438,178 5302.9688,177.4219 L5302.9688,180.1406 Z " fill="#000000"/><text fill="#000000" font-family="sans-serif" font-size="14" lengthAdjust="spacing" textLength="201.168" x="5314" y="179.3467">logic_arc_int__baselibs__json</text><line style="stroke:#181818;stroke-width:0.5;" x1="5286" x2="5517.168" y1="190.5" y2="190.5"/></g><!--class logic_arc_int__baselibs__executor--><g id="elem_logic_arc_int__baselibs__executor"><rect fill="#F1F1F1" height="40" id="logic_arc_int__baselibs__executor" rx="2.5" ry="2.5" style="stroke:#181818;stroke-width:0.5;" width="266.4385" x="3337.5" y="158.5"/><ellipse cx="3352.5" cy="174.5" fill="#ADD1B2" rx="11" ry="11" style="stroke:#181818;stroke-width:1;"/><path d="M3355.4688,180.1406 Q3354.8906,180.4375 3354.25,180.5781 Q3353.6094,180.7344 3352.9063,180.7344 Q3350.4063,180.7344 3349.0781,179.0938 Q3347.7656,177.4375 3347.7656,174.3125 Q3347.7656,171.1875 3349.0781,169.5313 Q3350.4063,167.875 3352.9063,167.875 Q3353.6094,167.875 3354.25,168.0313 Q3354.9063,168.1875 3355.4688,168.4844 L3355.4688,171.2031 Q3354.8438,170.625 3354.25,170.3594 Q3353.6563,170.0781 3353.0313,170.0781 Q3351.6875,170.0781 3351,171.1563 Q3350.3125,172.2188 3350.3125,174.3125 Q3350.3125,176.4063 3351,177.4844 Q3351.6875,178.5469 3353.0313,178.5469 Q3353.6563,178.5469 3354.25,178.2813 Q3354.8438,178 3355.4688,177.4219 L3355.4688,180.1406 Z " fill="#000000"/><text fill="#000000" font-family="sans-serif" font-size="14" lengthAdjust="spacing" textLength="234.4385" x="3366.5" y="179.3467">logic_arc_int__baselibs__executor</text><line style="stroke:#181818;stroke-width:0.5;" x1="3338.5" x2="3602.9385" y1="190.5" y2="190.5"/></g><!--class comp_arc_sta__baselibs__utils--><g id="elem_comp_arc_sta__baselibs__utils"><rect fill="#F1F1F1" height="40" id="comp_arc_sta__baselibs__utils" rx="2.5" ry="2.5" style="stroke:#181818;stroke-width:0.5;" width="242.9502" x="1533" y="275.5"/><ellipse cx="1548" cy="291.5" fill="#ADD1B2" rx="11" ry="11" style="stroke:#181818;stroke-width:1;"/><path d="M1550.9688,297.1406 Q1550.3906,297.4375 1549.75,297.5781 Q1549.1094,297.7344 1548.4063,297.7344 Q1545.9063,297.7344 1544.5781,296.0938 Q1543.2656,294.4375 1543.2656,291.3125 Q1543.2656,288.1875 1544.5781,286.5313 Q1545.9063,284.875 1548.4063,284.875 Q1549.1094,284.875 1549.75,285.0313 Q1550.4063,285.1875 1550.9688,285.4844 L1550.9688,288.2031 Q1550.3438,287.625 1549.75,287.3594 Q1549.1563,287.0781 1548.5313,287.0781 Q1547.1875,287.0781 1546.5,288.1563 Q1545.8125,289.2188 1545.8125,291.3125 Q1545.8125,293.4063 1546.5,294.4844 Q1547.1875,295.5469 1548.5313,295.5469 Q1549.1563,295.5469 1549.75,295.2813 Q1550.3438,295 1550.9688,294.4219 L1550.9688,297.1406 Z " fill="#000000"/><text fill="#000000" font-family="sans-serif" font-size="14" lengthAdjust="spacing" textLength="210.9502" x="1562" y="296.3467">comp_arc_sta__baselibs__utils</text><line style="stroke:#181818;stroke-width:0.5;" x1="1534" x2="1774.9502" y1="307.5" y2="307.5"/></g><!--class logic_arc_int__baselibs__utils_scoped_op--><g id="elem_logic_arc_int__baselibs__utils_scoped_op"><rect fill="#F1F1F1" height="40" id="logic_arc_int__baselibs__utils_scoped_op" rx="2.5" ry="2.5" style="stroke:#181818;stroke-width:0.5;" width="315.377" x="1382" y="158.5"/><ellipse cx="1397" cy="174.5" fill="#ADD1B2" rx="11" ry="11" style="stroke:#181818;stroke-width:1;"/><path d="M1399.9688,180.1406 Q1399.3906,180.4375 1398.75,180.5781 Q1398.1094,180.7344 1397.4063,180.7344 Q1394.9063,180.7344 1393.5781,179.0938 Q1392.2656,177.4375 1392.2656,174.3125 Q1392.2656,171.1875 1393.5781,169.5313 Q1394.9063,167.875 1397.4063,167.875 Q1398.1094,167.875 1398.75,168.0313 Q1399.4063,168.1875 1399.9688,168.4844 L1399.9688,171.2031 Q1399.3438,170.625 1398.75,170.3594 Q1398.1563,170.0781 1397.5313,170.0781 Q1396.1875,170.0781 1395.5,171.1563 Q1394.8125,172.2188 1394.8125,174.3125 Q1394.8125,176.4063 1395.5,177.4844 Q1396.1875,178.5469 1397.5313,178.5469 Q1398.1563,178.5469 1398.75,178.2813 Q1399.3438,178 1399.9688,177.4219 L1399.9688,180.1406 Z " fill="#000000"/><text fill="#000000" font-family="sans-serif" font-size="14" lengthAdjust="spacing" textLength="283.377" x="1411" y="179.3467">logic_arc_int__baselibs__utils_scoped_op</text><line style="stroke:#181818;stroke-width:0.5;" x1="1383" x2="1696.377" y1="190.5" y2="190.5"/></g><!--class logic_arc_int__baselibs__task--><g id="elem_logic_arc_int__baselibs__task"><rect fill="#F1F1F1" height="40" id="logic_arc_int__baselibs__task" rx="2.5" ry="2.5" style="stroke:#181818;stroke-width:0.5;" width="234.0156" x="3068.5" y="158.5"/><ellipse cx="3083.5" cy="174.5" fill="#ADD1B2" rx="11" ry="11" style="stroke:#181818;stroke-width:1;"/><path d="M3086.4688,180.1406 Q3085.8906,180.4375 3085.25,180.5781 Q3084.6094,180.7344 3083.9063,180.7344 Q3081.4063,180.7344 3080.0781,179.0938 Q3078.7656,177.4375 3078.7656,174.3125 Q3078.7656,171.1875 3080.0781,169.5313 Q3081.4063,167.875 3083.9063,167.875 Q3084.6094,167.875 3085.25,168.0313 Q3085.9063,168.1875 3086.4688,168.4844 L3086.4688,171.2031 Q3085.8438,170.625 3085.25,170.3594 Q3084.6563,170.0781 3084.0313,170.0781 Q3082.6875,170.0781 3082,171.1563 Q3081.3125,172.2188 3081.3125,174.3125 Q3081.3125,176.4063 3082,177.4844 Q3082.6875,178.5469 3084.0313,178.5469 Q3084.6563,178.5469 3085.25,178.2813 Q3085.8438,178 3086.4688,177.4219 L3086.4688,180.1406 Z " fill="#000000"/><text fill="#000000" font-family="sans-serif" font-size="14" lengthAdjust="spacing" textLength="202.0156" x="3097.5" y="179.3467">logic_arc_int__baselibs__task</text><line style="stroke:#181818;stroke-width:0.5;" x1="3069.5" x2="3301.5156" y1="190.5" y2="190.5"/></g><!--class logic_arc_int__baselibs__synchronized_queue--><g id="elem_logic_arc_int__baselibs__synchronized_queue"><rect fill="#F1F1F1" height="40" id="logic_arc_int__baselibs__synchronized_queue" rx="2.5" ry="2.5" style="stroke:#181818;stroke-width:0.5;" width="348.3604" x="3935.5" y="158.5"/><ellipse cx="3950.5" cy="174.5" fill="#ADD1B2" rx="11" ry="11" style="stroke:#181818;stroke-width:1;"/><path d="M3953.4688,180.1406 Q3952.8906,180.4375 3952.25,180.5781 Q3951.6094,180.7344 3950.9063,180.7344 Q3948.4063,180.7344 3947.0781,179.0938 Q3945.7656,177.4375 3945.7656,174.3125 Q3945.7656,171.1875 3947.0781,169.5313 Q3948.4063,167.875 3950.9063,167.875 Q3951.6094,167.875 3952.25,168.0313 Q3952.9063,168.1875 3953.4688,168.4844 L3953.4688,171.2031 Q3952.8438,170.625 3952.25,170.3594 Q3951.6563,170.0781 3951.0313,170.0781 Q3949.6875,170.0781 3949,171.1563 Q3948.3125,172.2188 3948.3125,174.3125 Q3948.3125,176.4063 3949,177.4844 Q3949.6875,178.5469 3951.0313,178.5469 Q3951.6563,178.5469 3952.25,178.2813 Q3952.8438,178 3953.4688,177.4219 L3953.4688,180.1406 Z " fill="#000000"/><text fill="#000000" font-family="sans-serif" font-size="14" lengthAdjust="spacing" textLength="316.3604" x="3964.5" y="179.3467">logic_arc_int__baselibs__synchronized_queue</text><line style="stroke:#181818;stroke-width:0.5;" x1="3936.5" x2="4282.8604" y1="190.5" y2="190.5"/></g><!--class logic_arc_int__baselibs__bit_manipulation--><g id="elem_logic_arc_int__baselibs__bit_manipulation"><rect fill="#F1F1F1" height="40" id="logic_arc_int__baselibs__bit_manipulation" rx="2.5" ry="2.5" style="stroke:#181818;stroke-width:0.5;" width="321.8369" x="661.5" y="158.5"/><ellipse cx="676.5" cy="174.5" fill="#ADD1B2" rx="11" ry="11" style="stroke:#181818;stroke-width:1;"/><path d="M679.4688,180.1406 Q678.8906,180.4375 678.25,180.5781 Q677.6094,180.7344 676.9063,180.7344 Q674.4063,180.7344 673.0781,179.0938 Q671.7656,177.4375 671.7656,174.3125 Q671.7656,171.1875 673.0781,169.5313 Q674.4063,167.875 676.9063,167.875 Q677.6094,167.875 678.25,168.0313 Q678.9063,168.1875 679.4688,168.4844 L679.4688,171.2031 Q678.8438,170.625 678.25,170.3594 Q677.6563,170.0781 677.0313,170.0781 Q675.6875,170.0781 675,171.1563 Q674.3125,172.2188 674.3125,174.3125 Q674.3125,176.4063 675,177.4844 Q675.6875,178.5469 677.0313,178.5469 Q677.6563,178.5469 678.25,178.2813 Q678.8438,178 679.4688,177.4219 L679.4688,180.1406 Z " fill="#000000"/><text fill="#000000" font-family="sans-serif" font-size="14" lengthAdjust="spacing" textLength="289.8369" x="690.5" y="179.3467">logic_arc_int__baselibs__bit_manipulation</text><line style="stroke:#181818;stroke-width:0.5;" x1="662.5" x2="982.3369" y1="190.5" y2="190.5"/></g><!--class logic_arc_int__baselibs__message_passing--><g id="elem_logic_arc_int__baselibs__message_passing"><rect fill="#F1F1F1" height="40" id="logic_arc_int__baselibs__message_passing" rx="2.5" ry="2.5" style="stroke:#181818;stroke-width:0.5;" width="328.167" x="1018.5" y="158.5"/><ellipse cx="1033.5" cy="174.5" fill="#ADD1B2" rx="11" ry="11" style="stroke:#181818;stroke-width:1;"/><path d="M1036.4688,180.1406 Q1035.8906,180.4375 1035.25,180.5781 Q1034.6094,180.7344 1033.9063,180.7344 Q1031.4063,180.7344 1030.0781,179.0938 Q1028.7656,177.4375 1028.7656,174.3125 Q1028.7656,171.1875 1030.0781,169.5313 Q1031.4063,167.875 1033.9063,167.875 Q1034.6094,167.875 1035.25,168.0313 Q1035.9063,168.1875 1036.4688,168.4844 L1036.4688,171.2031 Q1035.8438,170.625 1035.25,170.3594 Q1034.6563,170.0781 1034.0313,170.0781 Q1032.6875,170.0781 1032,171.1563 Q1031.3125,172.2188 1031.3125,174.3125 Q1031.3125,176.4063 1032,177.4844 Q1032.6875,178.5469 1034.0313,178.5469 Q1034.6563,178.5469 1035.25,178.2813 Q1035.8438,178 1036.4688,177.4219 L1036.4688,180.1406 Z " fill="#000000"/><text fill="#000000" font-family="sans-serif" font-size="14" lengthAdjust="spacing" textLength="296.167" x="1047.5" y="179.3467">logic_arc_int__baselibs__message_passing</text><line style="stroke:#181818;stroke-width:0.5;" x1="1019.5" x2="1345.667" y1="190.5" y2="190.5"/></g><!--class logic_arc_int__baselibs__result--><g id="elem_logic_arc_int__baselibs__result"><rect fill="#F1F1F1" height="40" id="logic_arc_int__baselibs__result" rx="2.5" ry="2.5" style="stroke:#181818;stroke-width:0.5;" width="244.4609" x="11.5" y="158.5"/><ellipse cx="26.5" cy="174.5" fill="#ADD1B2" rx="11" ry="11" style="stroke:#181818;stroke-width:1;"/><path d="M29.4688,180.1406 Q28.8906,180.4375 28.25,180.5781 Q27.6094,180.7344 26.9063,180.7344 Q24.4063,180.7344 23.0781,179.0938 Q21.7656,177.4375 21.7656,174.3125 Q21.7656,171.1875 23.0781,169.5313 Q24.4063,167.875 26.9063,167.875 Q27.6094,167.875 28.25,168.0313 Q28.9063,168.1875 29.4688,168.4844 L29.4688,171.2031 Q28.8438,170.625 28.25,170.3594 Q27.6563,170.0781 27.0313,170.0781 Q25.6875,170.0781 25,171.1563 Q24.3125,172.2188 24.3125,174.3125 Q24.3125,176.4063 25,177.4844 Q25.6875,178.5469 27.0313,178.5469 Q27.6563,178.5469 28.25,178.2813 Q28.8438,178 29.4688,177.4219 L29.4688,180.1406 Z " fill="#000000"/><text fill="#000000" font-family="sans-serif" font-size="14" lengthAdjust="spacing" textLength="212.4609" x="40.5" y="179.3467">logic_arc_int__baselibs__result</text><line style="stroke:#181818;stroke-width:0.5;" x1="12.5" x2="254.9609" y1="190.5" y2="190.5"/></g><!--class logic_arc_int__baselibs__utils_base64--><g id="elem_logic_arc_int__baselibs__utils_base64"><rect fill="#F1F1F1" height="40" id="logic_arc_int__baselibs__utils_base64" rx="2.5" ry="2.5" style="stroke:#181818;stroke-width:0.5;" width="292.1689" x="1732.5" y="158.5"/><ellipse cx="1747.5" cy="174.5" fill="#ADD1B2" rx="11" ry="11" style="stroke:#181818;stroke-width:1;"/><path d="M1750.4688,180.1406 Q1749.8906,180.4375 1749.25,180.5781 Q1748.6094,180.7344 1747.9063,180.7344 Q1745.4063,180.7344 1744.0781,179.0938 Q1742.7656,177.4375 1742.7656,174.3125 Q1742.7656,171.1875 1744.0781,169.5313 Q1745.4063,167.875 1747.9063,167.875 Q1748.6094,167.875 1749.25,168.0313 Q1749.9063,168.1875 1750.4688,168.4844 L1750.4688,171.2031 Q1749.8438,170.625 1749.25,170.3594 Q1748.6563,170.0781 1748.0313,170.0781 Q1746.6875,170.0781 1746,171.1563 Q1745.3125,172.2188 1745.3125,174.3125 Q1745.3125,176.4063 1746,177.4844 Q1746.6875,178.5469 1748.0313,178.5469 Q1748.6563,178.5469 1749.25,178.2813 Q1749.8438,178 1750.4688,177.4219 L1750.4688,180.1406 Z " fill="#000000"/><text fill="#000000" font-family="sans-serif" font-size="14" lengthAdjust="spacing" textLength="260.1689" x="1761.5" y="179.3467">logic_arc_int__baselibs__utils_base64</text><line style="stroke:#181818;stroke-width:0.5;" x1="1733.5" x2="2023.6689" y1="190.5" y2="190.5"/></g><!--class logic_arc_int__baselibs__promise--><g id="elem_logic_arc_int__baselibs__promise"><rect fill="#F1F1F1" height="40" id="logic_arc_int__baselibs__promise" rx="2.5" ry="2.5" style="stroke:#181818;stroke-width:0.5;" width="261.1885" x="3639" y="158.5"/><ellipse cx="3654" cy="174.5" fill="#ADD1B2" rx="11" ry="11" style="stroke:#181818;stroke-width:1;"/><path d="M3656.9688,180.1406 Q3656.3906,180.4375 3655.75,180.5781 Q3655.1094,180.7344 3654.4063,180.7344 Q3651.9063,180.7344 3650.5781,179.0938 Q3649.2656,177.4375 3649.2656,174.3125 Q3649.2656,171.1875 3650.5781,169.5313 Q3651.9063,167.875 3654.4063,167.875 Q3655.1094,167.875 3655.75,168.0313 Q3656.4063,168.1875 3656.9688,168.4844 L3656.9688,171.2031 Q3656.3438,170.625 3655.75,170.3594 Q3655.1563,170.0781 3654.5313,170.0781 Q3653.1875,170.0781 3652.5,171.1563 Q3651.8125,172.2188 3651.8125,174.3125 Q3651.8125,176.4063 3652.5,177.4844 Q3653.1875,178.5469 3654.5313,178.5469 Q3655.1563,178.5469 3655.75,178.2813 Q3656.3438,178 3656.9688,177.4219 L3656.9688,180.1406 Z " fill="#000000"/><text fill="#000000" font-family="sans-serif" font-size="14" lengthAdjust="spacing" textLength="229.1885" x="3668" y="179.3467">logic_arc_int__baselibs__promise</text><line style="stroke:#181818;stroke-width:0.5;" x1="3640" x2="3899.1885" y1="190.5" y2="190.5"/></g><!--class logic_arc_int__baselibs__shared_future--><g id="elem_logic_arc_int__baselibs__shared_future"><rect fill="#F1F1F1" height="40" id="logic_arc_int__baselibs__shared_future" rx="2.5" ry="2.5" style="stroke:#181818;stroke-width:0.5;" width="302.0811" x="2731.5" y="158.5"/><ellipse cx="2746.5" cy="174.5" fill="#ADD1B2" rx="11" ry="11" style="stroke:#181818;stroke-width:1;"/><path d="M2749.4688,180.1406 Q2748.8906,180.4375 2748.25,180.5781 Q2747.6094,180.7344 2746.9063,180.7344 Q2744.4063,180.7344 2743.0781,179.0938 Q2741.7656,177.4375 2741.7656,174.3125 Q2741.7656,171.1875 2743.0781,169.5313 Q2744.4063,167.875 2746.9063,167.875 Q2747.6094,167.875 2748.25,168.0313 Q2748.9063,168.1875 2749.4688,168.4844 L2749.4688,171.2031 Q2748.8438,170.625 2748.25,170.3594 Q2747.6563,170.0781 2747.0313,170.0781 Q2745.6875,170.0781 2745,171.1563 Q2744.3125,172.2188 2744.3125,174.3125 Q2744.3125,176.4063 2745,177.4844 Q2745.6875,178.5469 2747.0313,178.5469 Q2747.6563,178.5469 2748.25,178.2813 Q2748.8438,178 2749.4688,177.4219 L2749.4688,180.1406 Z " fill="#000000"/><text fill="#000000" font-family="sans-serif" font-size="14" lengthAdjust="spacing" textLength="270.0811" x="2760.5" y="179.3467">logic_arc_int__baselibs__shared_future</text><line style="stroke:#181818;stroke-width:0.5;" x1="2732.5" x2="3032.5811" y1="190.5" y2="190.5"/></g><!--class logic_arc_int__baselibs__dynamic_array--><g id="elem_logic_arc_int__baselibs__dynamic_array"><rect fill="#F1F1F1" height="40" id="logic_arc_int__baselibs__dynamic_array" rx="2.5" ry="2.5" style="stroke:#181818;stroke-width:0.5;" width="308.3496" x="2388.5" y="158.5"/><ellipse cx="2403.5" cy="174.5" fill="#ADD1B2" rx="11" ry="11" style="stroke:#181818;stroke-width:1;"/><path d="M2406.4688,180.1406 Q2405.8906,180.4375 2405.25,180.5781 Q2404.6094,180.7344 2403.9063,180.7344 Q2401.4063,180.7344 2400.0781,179.0938 Q2398.7656,177.4375 2398.7656,174.3125 Q2398.7656,171.1875 2400.0781,169.5313 Q2401.4063,167.875 2403.9063,167.875 Q2404.6094,167.875 2405.25,168.0313 Q2405.9063,168.1875 2406.4688,168.4844 L2406.4688,171.2031 Q2405.8438,170.625 2405.25,170.3594 Q2404.6563,170.0781 2404.0313,170.0781 Q2402.6875,170.0781 2402,171.1563 Q2401.3125,172.2188 2401.3125,174.3125 Q2401.3125,176.4063 2402,177.4844 Q2402.6875,178.5469 2404.0313,178.5469 Q2404.6563,178.5469 2405.25,178.2813 Q2405.8438,178 2406.4688,177.4219 L2406.4688,180.1406 Z " fill="#000000"/><text fill="#000000" font-family="sans-serif" font-size="14" lengthAdjust="spacing" textLength="276.3496" x="2417.5" y="179.3467">logic_arc_int__baselibs__dynamic_array</text><line style="stroke:#181818;stroke-width:0.5;" x1="2389.5" x2="2695.8496" y1="190.5" y2="190.5"/></g><!--class logic_arc_int__baselibs__condition_variable--><g id="elem_logic_arc_int__baselibs__condition_variable"><rect fill="#F1F1F1" height="40" id="logic_arc_int__baselibs__condition_variable" rx="2.5" ry="2.5" style="stroke:#181818;stroke-width:0.5;" width="332.7539" x="4917" y="158.5"/><ellipse cx="4932" cy="174.5" fill="#ADD1B2" rx="11" ry="11" style="stroke:#181818;stroke-width:1;"/><path d="M4934.9688,180.1406 Q4934.3906,180.4375 4933.75,180.5781 Q4933.1094,180.7344 4932.4063,180.7344 Q4929.9063,180.7344 4928.5781,179.0938 Q4927.2656,177.4375 4927.2656,174.3125 Q4927.2656,171.1875 4928.5781,169.5313 Q4929.9063,167.875 4932.4063,167.875 Q4933.1094,167.875 4933.75,168.0313 Q4934.4063,168.1875 4934.9688,168.4844 L4934.9688,171.2031 Q4934.3438,170.625 4933.75,170.3594 Q4933.1563,170.0781 4932.5313,170.0781 Q4931.1875,170.0781 4930.5,171.1563 Q4929.8125,172.2188 4929.8125,174.3125 Q4929.8125,176.4063 4930.5,177.4844 Q4931.1875,178.5469 4932.5313,178.5469 Q4933.1563,178.5469 4933.75,178.2813 Q4934.3438,178 4934.9688,177.4219 L4934.9688,180.1406 Z " fill="#000000"/><text fill="#000000" font-family="sans-serif" font-size="14" lengthAdjust="spacing" textLength="300.7539" x="4946" y="179.3467">logic_arc_int__baselibs__condition_variable</text><line style="stroke:#181818;stroke-width:0.5;" x1="4918" x2="5248.7539" y1="190.5" y2="190.5"/></g><!--class comp_arc_sta__baselibs__bit_manipulation--><g id="elem_comp_arc_sta__baselibs__bit_manipulation"><rect fill="#F1F1F1" height="40" id="comp_arc_sta__baselibs__bit_manipulation" rx="2.5" ry="2.5" style="stroke:#181818;stroke-width:0.5;" width="330.8057" x="472" y="275.5"/><ellipse cx="487" cy="291.5" fill="#ADD1B2" rx="11" ry="11" style="stroke:#181818;stroke-width:1;"/><path d="M489.9688,297.1406 Q489.3906,297.4375 488.75,297.5781 Q488.1094,297.7344 487.4063,297.7344 Q484.9063,297.7344 483.5781,296.0938 Q482.2656,294.4375 482.2656,291.3125 Q482.2656,288.1875 483.5781,286.5313 Q484.9063,284.875 487.4063,284.875 Q488.1094,284.875 488.75,285.0313 Q489.4063,285.1875 489.9688,285.4844 L489.9688,288.2031 Q489.3438,287.625 488.75,287.3594 Q488.1563,287.0781 487.5313,287.0781 Q486.1875,287.0781 485.5,288.1563 Q484.8125,289.2188 484.8125,291.3125 Q484.8125,293.4063 485.5,294.4844 Q486.1875,295.5469 487.5313,295.5469 Q488.1563,295.5469 488.75,295.2813 Q489.3438,295 489.9688,294.4219 L489.9688,297.1406 Z " fill="#000000"/><text fill="#000000" font-family="sans-serif" font-size="14" lengthAdjust="spacing" textLength="298.8057" x="501" y="296.3467">comp_arc_sta__baselibs__bit_manipulation</text><line style="stroke:#181818;stroke-width:0.5;" x1="473" x2="801.8057" y1="307.5" y2="307.5"/></g><!--class logic_arc_int__baselibs__bit_mask_operator--><g id="elem_logic_arc_int__baselibs__bit_mask_operator"><rect fill="#F1F1F1" height="40" id="logic_arc_int__baselibs__bit_mask_operator" rx="2.5" ry="2.5" style="stroke:#181818;stroke-width:0.5;" width="334.6406" x="291" y="158.5"/><ellipse cx="306" cy="174.5" fill="#ADD1B2" rx="11" ry="11" style="stroke:#181818;stroke-width:1;"/><path d="M308.9688,180.1406 Q308.3906,180.4375 307.75,180.5781 Q307.1094,180.7344 306.4063,180.7344 Q303.9063,180.7344 302.5781,179.0938 Q301.2656,177.4375 301.2656,174.3125 Q301.2656,171.1875 302.5781,169.5313 Q303.9063,167.875 306.4063,167.875 Q307.1094,167.875 307.75,168.0313 Q308.4063,168.1875 308.9688,168.4844 L308.9688,171.2031 Q308.3438,170.625 307.75,170.3594 Q307.1563,170.0781 306.5313,170.0781 Q305.1875,170.0781 304.5,171.1563 Q303.8125,172.2188 303.8125,174.3125 Q303.8125,176.4063 304.5,177.4844 Q305.1875,178.5469 306.5313,178.5469 Q307.1563,178.5469 307.75,178.2813 Q308.3438,178 308.9688,177.4219 L308.9688,180.1406 Z " fill="#000000"/><text fill="#000000" font-family="sans-serif" font-size="14" lengthAdjust="spacing" textLength="302.6406" x="320" y="179.3467">logic_arc_int__baselibs__bit_mask_operator</text><line style="stroke:#181818;stroke-width:0.5;" x1="292" x2="624.6406" y1="190.5" y2="190.5"/></g><!--class comp_arc_sta__baselibs__message_passing--><g id="elem_comp_arc_sta__baselibs__message_passing"><rect fill="#F1F1F1" height="40" id="comp_arc_sta__baselibs__message_passing" rx="2.5" ry="2.5" style="stroke:#181818;stroke-width:0.5;" width="337.1357" x="1014" y="275.5"/><ellipse cx="1029" cy="291.5" fill="#ADD1B2" rx="11" ry="11" style="stroke:#181818;stroke-width:1;"/><path d="M1031.9688,297.1406 Q1031.3906,297.4375 1030.75,297.5781 Q1030.1094,297.7344 1029.4063,297.7344 Q1026.9063,297.7344 1025.5781,296.0938 Q1024.2656,294.4375 1024.2656,291.3125 Q1024.2656,288.1875 1025.5781,286.5313 Q1026.9063,284.875 1029.4063,284.875 Q1030.1094,284.875 1030.75,285.0313 Q1031.4063,285.1875 1031.9688,285.4844 L1031.9688,288.2031 Q1031.3438,287.625 1030.75,287.3594 Q1030.1563,287.0781 1029.5313,287.0781 Q1028.1875,287.0781 1027.5,288.1563 Q1026.8125,289.2188 1026.8125,291.3125 Q1026.8125,293.4063 1027.5,294.4844 Q1028.1875,295.5469 1029.5313,295.5469 Q1030.1563,295.5469 1030.75,295.2813 Q1031.3438,295 1031.9688,294.4219 L1031.9688,297.1406 Z " fill="#000000"/><text fill="#000000" font-family="sans-serif" font-size="14" lengthAdjust="spacing" textLength="305.1357" x="1043" y="296.3467">comp_arc_sta__baselibs__message_passing</text><line style="stroke:#181818;stroke-width:0.5;" x1="1015" x2="1350.1357" y1="307.5" y2="307.5"/></g><!--class comp_arc_sta__baselibs__result--><g id="elem_comp_arc_sta__baselibs__result"><rect fill="#F1F1F1" height="40" id="comp_arc_sta__baselibs__result" rx="2.5" ry="2.5" style="stroke:#181818;stroke-width:0.5;" width="253.4297" x="7" y="275.5"/><ellipse cx="22" cy="291.5" fill="#ADD1B2" rx="11" ry="11" style="stroke:#181818;stroke-width:1;"/><path d="M24.9688,297.1406 Q24.3906,297.4375 23.75,297.5781 Q23.1094,297.7344 22.4063,297.7344 Q19.9063,297.7344 18.5781,296.0938 Q17.2656,294.4375 17.2656,291.3125 Q17.2656,288.1875 18.5781,286.5313 Q19.9063,284.875 22.4063,284.875 Q23.1094,284.875 23.75,285.0313 Q24.4063,285.1875 24.9688,285.4844 L24.9688,288.2031 Q24.3438,287.625 23.75,287.3594 Q23.1563,287.0781 22.5313,287.0781 Q21.1875,287.0781 20.5,288.1563 Q19.8125,289.2188 19.8125,291.3125 Q19.8125,293.4063 20.5,294.4844 Q21.1875,295.5469 22.5313,295.5469 Q23.1563,295.5469 23.75,295.2813 Q24.3438,295 24.9688,294.4219 L24.9688,297.1406 Z " fill="#000000"/><text fill="#000000" font-family="sans-serif" font-size="14" lengthAdjust="spacing" textLength="221.4297" x="36" y="296.3467">comp_arc_sta__baselibs__result</text><line style="stroke:#181818;stroke-width:0.5;" x1="8" x2="259.4297" y1="307.5" y2="307.5"/></g><!--reverse link logic_arc_int__baselibs__memory_shared to comp_arc_sta__baselibs__memory_shared--><g id="link_logic_arc_int__baselibs__memory_shared_comp_arc_sta__baselibs__memory_shared"><path codeLine="15" d="M6029.379,204.7464 C6030.119,225.9764 6031.09,253.94 6031.83,275.19 " fill="transparent" id="logic_arc_int__baselibs__memory_shared-backto-comp_arc_sta__baselibs__memory_shared" style="stroke:#181818;stroke-width:1;"/><polygon fill="#181818" points="6029.17,198.75,6025.4859,207.8839,6029.3442,203.747,6033.4811,207.6052,6029.17,198.75" style="stroke:#181818;stroke-width:1;"/><text fill="#000000" font-family="sans-serif" font-size="13" lengthAdjust="spacing" textLength="76.9082" x="6032.5" y="241.5669">implements</text></g><!--reverse link logic_arc_int__baselibs__intrusive_list to comp_arc_sta__baselibs__containers--><g id="link_logic_arc_int__baselibs__intrusive_list_comp_arc_sta__baselibs__containers"><path codeLine="16" d="M2229.8035,203.0117 C2250.8435,224.2417 2280.29,253.94 2301.36,275.19 " fill="transparent" id="logic_arc_int__baselibs__intrusive_list-backto-comp_arc_sta__baselibs__containers" style="stroke:#181818;stroke-width:1;"/><polygon fill="#181818" points="2225.58,198.75,2229.0742,207.9582,2229.0996,202.3014,2234.7564,202.3268,2225.58,198.75" style="stroke:#181818;stroke-width:1;"/><text fill="#000000" font-family="sans-serif" font-size="13" lengthAdjust="spacing" textLength="76.9082" x="2271.5" y="241.5669">implements</text></g><!--reverse link logic_arc_int__baselibs__future to comp_arc_sta__baselibs__concurrency--><g id="link_logic_arc_int__baselibs__future_comp_arc_sta__baselibs__concurrency"><path codeLine="17" d="M4629.0326,198.5847 C4535.1726,212.2547 4408.76,230.29 4292.5,245.5 C4207.26,256.65 4111.87,268.16 4034.77,277.22 " fill="transparent" id="logic_arc_int__baselibs__future-backto-comp_arc_sta__baselibs__concurrency" style="stroke:#181818;stroke-width:1;"/><polygon fill="#181818" points="4634.97,197.72,4625.4875,195.0589,4630.0222,198.4406,4626.6404,202.9753,4634.97,197.72" style="stroke:#181818;stroke-width:1;"/><text fill="#000000" font-family="sans-serif" font-size="13" lengthAdjust="spacing" textLength="76.9082" x="4409.5" y="241.5669">implements</text></g><!--reverse link logic_arc_int__baselibs__task_result to comp_arc_sta__baselibs__concurrency--><g id="link_logic_arc_int__baselibs__task_result_comp_arc_sta__baselibs__concurrency"><path codeLine="18" d="M4358.3465,199.7268 C4251.9065,221.0168 4086.47,254.11 3979.96,275.41 " fill="transparent" id="logic_arc_int__baselibs__task_result-backto-comp_arc_sta__baselibs__concurrency" style="stroke:#181818;stroke-width:1;"/><polygon fill="#181818" points="4364.23,198.55,4354.6203,196.3929,4359.3271,199.5307,4356.1893,204.2375,4364.23,198.55" style="stroke:#181818;stroke-width:1;"/><text fill="#000000" font-family="sans-serif" font-size="13" lengthAdjust="spacing" textLength="76.9082" x="4207.5" y="241.5669">implements</text></g><!--reverse link logic_arc_int__baselibs__filesystem to comp_arc_sta__baselibs__filesystem--><g id="link_logic_arc_int__baselibs__filesystem_comp_arc_sta__baselibs__filesystem"><path codeLine="19" d="M5691.5,204.75 C5691.5,225.98 5691.5,253.94 5691.5,275.19 " fill="transparent" id="logic_arc_int__baselibs__filesystem-backto-comp_arc_sta__baselibs__filesystem" style="stroke:#181818;stroke-width:1;"/><polygon fill="#181818" points="5691.5,198.75,5687.5,207.75,5691.5,203.75,5695.5,207.75,5691.5,198.75" style="stroke:#181818;stroke-width:1;"/><text fill="#000000" font-family="sans-serif" font-size="13" lengthAdjust="spacing" textLength="76.9082" x="5692.5" y="241.5669">implements</text></g><!--reverse link logic_arc_int__baselibs__json to comp_arc_sta__baselibs__json--><g id="link_logic_arc_int__baselibs__json_comp_arc_sta__baselibs__json"><path codeLine="20" d="M5399.5223,204.7317 C5397.8623,225.9617 5395.67,253.94 5394.01,275.19 " fill="transparent" id="logic_arc_int__baselibs__json-backto-comp_arc_sta__baselibs__json" style="stroke:#181818;stroke-width:1;"/><polygon fill="#181818" points="5399.99,198.75,5395.3006,207.4108,5399.6002,203.7348,5403.2762,208.0344,5399.99,198.75" style="stroke:#181818;stroke-width:1;"/><text fill="#000000" font-family="sans-serif" font-size="13" lengthAdjust="spacing" textLength="76.9082" x="5399.5" y="241.5669">implements</text></g><!--reverse link logic_arc_int__baselibs__executor to comp_arc_sta__baselibs__concurrency--><g id="link_logic_arc_int__baselibs__executor_comp_arc_sta__baselibs__concurrency"><path codeLine="21" d="M3545.1111,200.2259 C3621.7911,221.5259 3739.24,254.15 3815.85,275.43 " fill="transparent" id="logic_arc_int__baselibs__executor-backto-comp_arc_sta__baselibs__concurrency" style="stroke:#181818;stroke-width:1;"/><polygon fill="#181818" points="3539.33,198.62,3546.9311,204.8829,3544.1476,199.9582,3549.0722,197.1747,3539.33,198.62" style="stroke:#181818;stroke-width:1;"/><text fill="#000000" font-family="sans-serif" font-size="13" lengthAdjust="spacing" textLength="76.9082" x="3703.5" y="241.5669">implements</text></g><!--link Feature_User to logic_arc_int__baselibs__future--><g id="link_Feature_User_logic_arc_int__baselibs__future"><path codeLine="22" d="M3230.73,47.2 C3408.01,57.97 4072.57,100.12 4617.5,158.5 C4623.15,159.11 4622.9616,159.0448 4628.7916,159.7348 " fill="transparent" id="Feature_User-to-logic_arc_int__baselibs__future" style="stroke:#181818;stroke-width:1;"/><polygon fill="#181818" points="4634.75,160.44,4626.2825,155.4099,4629.7847,159.8523,4625.3422,163.3545,4634.75,160.44" style="stroke:#181818;stroke-width:1;"/><text fill="#000000" font-family="sans-serif" font-size="13" lengthAdjust="spacing" textLength="23.0103" x="4305.5" y="124.5669">use</text></g><!--reverse link logic_arc_int__baselibs__utils_scoped_op to comp_arc_sta__baselibs__utils--><g id="link_logic_arc_int__baselibs__utils_scoped_op_comp_arc_sta__baselibs__utils"><path codeLine="23" d="M1562.9926,202.9926 C1584.2226,224.2226 1613.94,253.94 1635.19,275.19 " fill="transparent" id="logic_arc_int__baselibs__utils_scoped_op-backto-comp_arc_sta__baselibs__utils" style="stroke:#181818;stroke-width:1;"/><polygon fill="#181818" points="1558.75,198.75,1562.2855,207.9424,1562.2855,202.2855,1567.9424,202.2855,1558.75,198.75" style="stroke:#181818;stroke-width:1;"/><text fill="#000000" font-family="sans-serif" font-size="13" lengthAdjust="spacing" textLength="76.9082" x="1605.5" y="241.5669">implements</text></g><!--reverse link logic_arc_int__baselibs__task to comp_arc_sta__baselibs__concurrency--><g id="link_logic_arc_int__baselibs__task_comp_arc_sta__baselibs__concurrency"><path codeLine="24" d="M3298.7591,199.6103 C3375.2691,213.0803 3474.68,230.31 3567.5,245.5 C3630.15,255.75 3699.87,266.59 3757.93,275.46 " fill="transparent" id="logic_arc_int__baselibs__task-backto-comp_arc_sta__baselibs__concurrency" style="stroke:#181818;stroke-width:1;"/><polygon fill="#181818" points="3292.85,198.57,3301.0201,204.0699,3297.7743,199.4369,3302.4072,196.1911,3292.85,198.57" style="stroke:#181818;stroke-width:1;"/><text fill="#000000" font-family="sans-serif" font-size="13" lengthAdjust="spacing" textLength="76.9082" x="3568.5" y="241.5669">implements</text></g><!--link Feature_User to logic_arc_int__baselibs__synchronized_queue--><g id="link_Feature_User_logic_arc_int__baselibs__synchronized_queue"><path codeLine="25" d="M3230.69,51 C3365.21,70.37 3760.7612,127.3052 3971.3312,157.6152 " fill="transparent" id="Feature_User-to-logic_arc_int__baselibs__synchronized_queue" style="stroke:#181818;stroke-width:1;"/><polygon fill="#181818" points="3977.27,158.47,3968.9317,153.2285,3972.321,157.7576,3967.7919,161.1469,3977.27,158.47" style="stroke:#181818;stroke-width:1;"/><text fill="#000000" font-family="sans-serif" font-size="13" lengthAdjust="spacing" textLength="23.0103" x="3758.5" y="124.5669">use</text></g><!--link Feature_User to logic_arc_int__baselibs__bit_manipulation--><g id="link_Feature_User_logic_arc_int__baselibs__bit_manipulation"><path codeLine="26" d="M3140.43,45.74 C2911.99,52.25 1859.16,85.06 1000.5,158.5 C994.93,158.98 995.2354,158.9377 989.5054,159.4577 " fill="transparent" id="Feature_User-to-logic_arc_int__baselibs__bit_manipulation" style="stroke:#181818;stroke-width:1;"/><polygon fill="#181818" points="983.53,160,992.8547,163.1702,988.5095,159.5481,992.1317,155.203,983.53,160" style="stroke:#181818;stroke-width:1;"/><text fill="#000000" font-family="sans-serif" font-size="13" lengthAdjust="spacing" textLength="23.0103" x="1601.5" y="124.5669">use</text></g><!--link Feature_User to logic_arc_int__baselibs__message_passing--><g id="link_Feature_User_logic_arc_int__baselibs__message_passing"><path codeLine="27" d="M3140.39,46.52 C2935.43,55.89 2071.4,97.19 1364.5,158.5 C1358.64,159.01 1358.6651,158.9941 1352.6451,159.5441 " fill="transparent" id="Feature_User-to-logic_arc_int__baselibs__message_passing" style="stroke:#181818;stroke-width:1;"/><polygon fill="#181818" points="1346.67,160.09,1355.9966,163.2546,1351.6493,159.6351,1355.2687,155.2877,1346.67,160.09" style="stroke:#181818;stroke-width:1;"/><text fill="#000000" font-family="sans-serif" font-size="13" lengthAdjust="spacing" textLength="23.0103" x="1966.5" y="124.5669">use</text></g><!--link Feature_User to logic_arc_int__baselibs__intrusive_list--><g id="link_Feature_User_logic_arc_int__baselibs__intrusive_list"><path codeLine="28" d="M3140.24,50.65 C3000.35,69.65 2576.7654,127.2023 2352.3254,157.6923 " fill="transparent" id="Feature_User-to-logic_arc_int__baselibs__intrusive_list" style="stroke:#181818;stroke-width:1;"/><polygon fill="#181818" points="2346.38,158.5,2355.8365,161.2521,2351.3345,157.8269,2354.7596,153.3249,2346.38,158.5" style="stroke:#181818;stroke-width:1;"/><text fill="#000000" font-family="sans-serif" font-size="13" lengthAdjust="spacing" textLength="23.0103" x="2668.5" y="124.5669">use</text></g><!--link Feature_User to logic_arc_int__baselibs__result--><g id="link_Feature_User_logic_arc_int__baselibs__result"><path codeLine="29" d="M3140.38,45.39 C2913.91,49.95 1878.48,72.08 1031.5,111.5 C694.33,127.19 609.4,125.34 273.5,158.5 C267.64,159.08 267.6134,159.0585 261.5734,159.7285 " fill="transparent" id="Feature_User-to-logic_arc_int__baselibs__result" style="stroke:#181818;stroke-width:1;"/><polygon fill="#181818" points="255.61,160.39,264.9961,163.3734,260.5795,159.8387,264.1141,155.4221,255.61,160.39" style="stroke:#181818;stroke-width:1;"/><text fill="#000000" font-family="sans-serif" font-size="13" lengthAdjust="spacing" textLength="23.0103" x="1032.5" y="124.5669">use</text></g><!--link Feature_User to logic_arc_int__baselibs__utils_base64--><g id="link_Feature_User_logic_arc_int__baselibs__utils_base64"><path codeLine="30" d="M3140.28,48.75 C2986.45,63.26 2469.28,112.5 2042.5,158.5 C2036.66,159.13 2036.6643,159.1261 2030.6443,159.7861 " fill="transparent" id="Feature_User-to-logic_arc_int__baselibs__utils_base64" style="stroke:#181818;stroke-width:1;"/><polygon fill="#181818" points="2024.68,160.44,2034.0623,163.4353,2029.6502,159.8951,2033.1905,155.483,2024.68,160.44" style="stroke:#181818;stroke-width:1;"/><text fill="#000000" font-family="sans-serif" font-size="13" lengthAdjust="spacing" textLength="23.0103" x="2483.5" y="124.5669">use</text></g><!--link Feature_User to logic_arc_int__baselibs__promise--><g id="link_Feature_User_logic_arc_int__baselibs__promise"><path codeLine="31" d="M3230.84,54.83 C3328.66,77.1 3554.9098,128.6276 3680.1298,157.1476 " fill="transparent" id="Feature_User-to-logic_arc_int__baselibs__promise" style="stroke:#181818;stroke-width:1;"/><polygon fill="#181818" points="3685.98,158.48,3678.093,152.5812,3681.1048,157.3696,3676.3164,160.3815,3685.98,158.48" style="stroke:#181818;stroke-width:1;"/><text fill="#000000" font-family="sans-serif" font-size="13" lengthAdjust="spacing" textLength="23.0103" x="3548.5" y="124.5669">use</text></g><!--reverse link logic_arc_int__baselibs__shared_future to comp_arc_sta__baselibs__concurrency--><g id="link_logic_arc_int__baselibs__shared_future_comp_arc_sta__baselibs__concurrency"><path codeLine="32" d="M3024.9449,199.3415 C3126.4749,213.2015 3262.54,231.18 3387.5,245.5 C3503.79,258.83 3635.64,271.73 3734.3,280.94 " fill="transparent" id="logic_arc_int__baselibs__shared_future-backto-comp_arc_sta__baselibs__concurrency" style="stroke:#181818;stroke-width:1;"/><polygon fill="#181818" points="3019,198.53,3027.3763,203.7106,3023.9541,199.2063,3028.4583,195.7841,3019,198.53" style="stroke:#181818;stroke-width:1;"/><text fill="#000000" font-family="sans-serif" font-size="13" lengthAdjust="spacing" textLength="76.9082" x="3388.5" y="241.5669">implements</text></g><!--link Feature_User to logic_arc_int__baselibs__memory_shared--><g id="link_Feature_User_logic_arc_int__baselibs__memory_shared"><path codeLine="33" d="M3230.57,45.24 C3450.31,49.02 4431.16,67.64 5233.5,111.5 C5506.34,126.42 5574.37,133.87 5846.5,158.5 C5853.94,159.17 5855.5677,159.3045 5863.2477,160.0445 " fill="transparent" id="Feature_User-to-logic_arc_int__baselibs__memory_shared" style="stroke:#181818;stroke-width:1;"/><polygon fill="#181818" points="5869.22,160.62,5860.6451,155.7753,5864.243,160.1405,5859.8778,163.7384,5869.22,160.62" style="stroke:#181818;stroke-width:1;"/><text fill="#000000" font-family="sans-serif" font-size="13" lengthAdjust="spacing" textLength="23.0103" x="5500.5" y="124.5669">use</text></g><!--link Feature_User to logic_arc_int__baselibs__dynamic_array--><g id="link_Feature_User_logic_arc_int__baselibs__dynamic_array"><path codeLine="34" d="M3140.29,53.85 C3035.52,75.52 2780.3157,128.3148 2640.3857,157.2548 " fill="transparent" id="Feature_User-to-logic_arc_int__baselibs__dynamic_array" style="stroke:#181818;stroke-width:1;"/><polygon fill="#181818" points="2634.51,158.47,2644.1336,160.5643,2639.4064,157.4573,2642.5134,152.7301,2634.51,158.47" style="stroke:#181818;stroke-width:1;"/><text fill="#000000" font-family="sans-serif" font-size="13" lengthAdjust="spacing" textLength="23.0103" x="2846.5" y="124.5669">use</text></g><!--link Feature_User to logic_arc_int__baselibs__condition_variable--><g id="link_Feature_User_logic_arc_int__baselibs__condition_variable"><path codeLine="35" d="M3230.54,46.71 C3384.91,54.36 3906.85,80.97 4337.5,111.5 C4587.52,129.22 4649.94,135.18 4899.5,158.5 C4905.1,159.02 4904.8184,158.9774 4910.5584,159.5374 " fill="transparent" id="Feature_User-to-logic_arc_int__baselibs__condition_variable" style="stroke:#181818;stroke-width:1;"/><polygon fill="#181818" points="4916.53,160.12,4907.9609,155.265,4911.5536,159.6345,4907.1841,163.2272,4916.53,160.12" style="stroke:#181818;stroke-width:1;"/><text fill="#000000" font-family="sans-serif" font-size="13" lengthAdjust="spacing" textLength="23.0103" x="4563.5" y="124.5669">use</text></g><!--reverse link logic_arc_int__baselibs__bit_mask_operator to comp_arc_sta__baselibs__bit_manipulation--><g id="link_logic_arc_int__baselibs__bit_mask_operator_comp_arc_sta__baselibs__bit_manipulation"><path codeLine="36" d="M493.5081,201.993 C526.6481,223.283 574.68,254.14 607.74,275.38 " fill="transparent" id="logic_arc_int__baselibs__bit_mask_operator-backto-comp_arc_sta__baselibs__bit_manipulation" style="stroke:#181818;stroke-width:1;"/><polygon fill="#181818" points="488.46,198.75,493.8701,206.9799,492.6667,201.4525,498.1941,200.2491,488.46,198.75" style="stroke:#181818;stroke-width:1;"/><text fill="#000000" font-family="sans-serif" font-size="13" lengthAdjust="spacing" textLength="76.9082" x="560.5" y="241.5669">implements</text></g><!--reverse link logic_arc_int__baselibs__condition_variable to comp_arc_sta__baselibs__concurrency--><g id="link_logic_arc_int__baselibs__condition_variable_comp_arc_sta__baselibs__concurrency"><path codeLine="37" d="M4919.8712,199.2323 C4801.3412,213.2023 4640.84,231.43 4494.5,245.5 C4337.85,260.56 4158.25,274.6 4034.71,283.76 " fill="transparent" id="logic_arc_int__baselibs__condition_variable-backto-comp_arc_sta__baselibs__concurrency" style="stroke:#181818;stroke-width:1;"/><polygon fill="#181818" points="4925.83,198.53,4916.4237,195.6109,4920.8644,199.1153,4917.3601,203.556,4925.83,198.53" style="stroke:#181818;stroke-width:1;"/><text fill="#000000" font-family="sans-serif" font-size="13" lengthAdjust="spacing" textLength="76.9082" x="4657.5" y="241.5669">implements</text></g><!--link Feature_User to logic_arc_int__baselibs__utils_scoped_op--><g id="link_Feature_User_logic_arc_int__baselibs__utils_scoped_op"><path codeLine="38" d="M3140.32,47.49 C2960.23,59.52 2276.24,106.25 1714.5,158.5 C1708.87,159.02 1709.1111,158.9822 1703.3211,159.5522 " fill="transparent" id="Feature_User-to-logic_arc_int__baselibs__utils_scoped_op" style="stroke:#181818;stroke-width:1;"/><polygon fill="#181818" points="1697.35,160.14,1706.6986,163.239,1702.3259,159.6501,1705.9148,155.2775,1697.35,160.14" style="stroke:#181818;stroke-width:1;"/><text fill="#000000" font-family="sans-serif" font-size="13" lengthAdjust="spacing" textLength="23.0103" x="2241.5" y="124.5669">use</text></g><!--link Feature_User to logic_arc_int__baselibs__json--><g id="link_Feature_User_logic_arc_int__baselibs__json"><path codeLine="39" d="M3230.57,46.27 C3405.78,53.25 4058.5,79.97 4595.5,111.5 C4894.38,129.05 4969.76,127.02 5267.5,158.5 C5273.22,159.11 5273.1216,159.0643 5279.0316,159.7643 " fill="transparent" id="Feature_User-to-logic_arc_int__baselibs__json" style="stroke:#181818;stroke-width:1;"/><polygon fill="#181818" points="5284.99,160.47,5276.523,155.4392,5280.0247,159.8819,5275.582,163.3836,5284.99,160.47" style="stroke:#181818;stroke-width:1;"/><text fill="#000000" font-family="sans-serif" font-size="13" lengthAdjust="spacing" textLength="23.0103" x="4910.5" y="124.5669">use</text></g><!--link Feature_User to logic_arc_int__baselibs__filesystem--><g id="link_Feature_User_logic_arc_int__baselibs__filesystem"><path codeLine="40" d="M3230.67,45.54 C3431.3,50.31 4261.8,71.56 4942.5,111.5 C5206.43,126.98 5272.44,132.07 5535.5,158.5 C5541.34,159.09 5541.3247,159.0659 5547.3447,159.7159 " fill="transparent" id="Feature_User-to-logic_arc_int__baselibs__filesystem" style="stroke:#181818;stroke-width:1;"/><polygon fill="#181818" points="5553.31,160.36,5544.7914,155.417,5548.3389,159.8233,5543.9326,163.3707,5553.31,160.36" style="stroke:#181818;stroke-width:1;"/><text fill="#000000" font-family="sans-serif" font-size="13" lengthAdjust="spacing" textLength="23.0103" x="5201.5" y="124.5669">use</text></g><!--link Feature_User to logic_arc_int__baselibs__bit_mask_operator--><g id="link_Feature_User_logic_arc_int__baselibs__bit_mask_operator"><path codeLine="41" d="M3140.27,45.75 C2936.62,51.47 2084.32,76.37 1385.5,111.5 C1055.48,128.09 972.81,131.17 643.5,158.5 C637.87,158.97 638.1168,158.9326 632.3368,159.4426 " fill="transparent" id="Feature_User-to-logic_arc_int__baselibs__bit_mask_operator" style="stroke:#181818;stroke-width:1;"/><polygon fill="#181818" points="626.36,159.97,635.6767,163.1635,631.3406,159.5305,634.9736,155.1944,626.36,159.97" style="stroke:#181818;stroke-width:1;"/><text fill="#000000" font-family="sans-serif" font-size="13" lengthAdjust="spacing" textLength="23.0103" x="1386.5" y="124.5669">use</text></g><!--reverse link logic_arc_int__baselibs__message_passing to comp_arc_sta__baselibs__message_passing--><g id="link_logic_arc_int__baselibs__message_passing_comp_arc_sta__baselibs__message_passing"><path codeLine="42" d="M1182.5,204.75 C1182.5,225.98 1182.5,253.94 1182.5,275.19 " fill="transparent" id="logic_arc_int__baselibs__message_passing-backto-comp_arc_sta__baselibs__message_passing" style="stroke:#181818;stroke-width:1;"/><polygon fill="#181818" points="1182.5,198.75,1178.5,207.75,1182.5,203.75,1186.5,207.75,1182.5,198.75" style="stroke:#181818;stroke-width:1;"/><text fill="#000000" font-family="sans-serif" font-size="13" lengthAdjust="spacing" textLength="76.9082" x="1183.5" y="241.5669">implements</text></g><!--link Feature_User to logic_arc_int__baselibs__shared_future--><g id="link_Feature_User_logic_arc_int__baselibs__shared_future"><path codeLine="43" d="M3140.47,64.27 C3082.6,89.67 2988.334,131.0483 2931.314,156.0783 " fill="transparent" id="Feature_User-to-logic_arc_int__baselibs__shared_future" style="stroke:#181818;stroke-width:1;"/><polygon fill="#181818" points="2925.82,158.49,2935.6688,158.5351,2930.3983,156.4803,2932.4532,151.2098,2925.82,158.49" style="stroke:#181818;stroke-width:1;"/><text fill="#000000" font-family="sans-serif" font-size="13" lengthAdjust="spacing" textLength="23.0103" x="3026.5" y="124.5669">use</text></g><!--link Feature_User to logic_arc_int__baselibs__task_result--><g id="link_Feature_User_logic_arc_int__baselibs__task_result"><path codeLine="44" d="M3230.67,48.84 C3382.03,63.44 3885.17,112.46 4300.5,158.5 C4306.44,159.16 4306.5489,159.1582 4312.6689,159.8582 " fill="transparent" id="Feature_User-to-logic_arc_int__baselibs__task_result" style="stroke:#181818;stroke-width:1;"/><polygon fill="#181818" points="4318.63,160.54,4310.1429,155.5432,4313.6624,159.9718,4309.2337,163.4913,4318.63,160.54" style="stroke:#181818;stroke-width:1;"/><text fill="#000000" font-family="sans-serif" font-size="13" lengthAdjust="spacing" textLength="23.0103" x="3995.5" y="124.5669">use</text></g><!--reverse link logic_arc_int__baselibs__utils_base64 to comp_arc_sta__baselibs__utils--><g id="link_logic_arc_int__baselibs__utils_base64_comp_arc_sta__baselibs__utils"><path codeLine="45" d="M1835.9223,201.3603 C1794.4923,222.6303 1733.29,254.05 1691.83,275.34 " fill="transparent" id="logic_arc_int__baselibs__utils_base64-backto-comp_arc_sta__baselibs__utils" style="stroke:#181818;stroke-width:1;"/><polygon fill="#181818" points="1841.26,198.62,1831.4266,199.1721,1836.812,200.9036,1835.0804,206.2889,1841.26,198.62" style="stroke:#181818;stroke-width:1;"/><text fill="#000000" font-family="sans-serif" font-size="13" lengthAdjust="spacing" textLength="76.9082" x="1781.5" y="241.5669">implements</text></g><!--reverse link logic_arc_int__baselibs__synchronized_queue to comp_arc_sta__baselibs__concurrency--><g id="link_logic_arc_int__baselibs__synchronized_queue_comp_arc_sta__baselibs__concurrency"><path codeLine="46" d="M4066.7475,201.3509 C4025.1375,222.6209 3963.64,254.05 3922,275.34 " fill="transparent" id="logic_arc_int__baselibs__synchronized_queue-backto-comp_arc_sta__baselibs__concurrency" style="stroke:#181818;stroke-width:1;"/><polygon fill="#181818" points="4072.09,198.62,4062.2557,199.1548,4067.6379,200.8958,4065.8969,206.2781,4072.09,198.62" style="stroke:#181818;stroke-width:1;"/><text fill="#000000" font-family="sans-serif" font-size="13" lengthAdjust="spacing" textLength="76.9082" x="4011.5" y="241.5669">implements</text></g><!--reverse link logic_arc_int__baselibs__bit_manipulation to comp_arc_sta__baselibs__bit_manipulation--><g id="link_logic_arc_int__baselibs__bit_manipulation_comp_arc_sta__baselibs__bit_manipulation"><path codeLine="47" d="M786.4438,201.9169 C752.1838,223.2069 702.43,254.14 668.26,275.38 " fill="transparent" id="logic_arc_int__baselibs__bit_manipulation-backto-comp_arc_sta__baselibs__bit_manipulation" style="stroke:#181818;stroke-width:1;"/><polygon fill="#181818" points="791.54,198.75,781.7845,200.1029,787.2932,201.3891,786.007,206.8978,791.54,198.75" style="stroke:#181818;stroke-width:1;"/><text fill="#000000" font-family="sans-serif" font-size="13" lengthAdjust="spacing" textLength="76.9082" x="742.5" y="241.5669">implements</text></g><!--reverse link logic_arc_int__baselibs__promise to comp_arc_sta__baselibs__concurrency--><g id="link_logic_arc_int__baselibs__promise_comp_arc_sta__baselibs__concurrency"><path codeLine="48" d="M3792.9926,202.9926 C3814.2226,224.2226 3843.94,253.94 3865.19,275.19 " fill="transparent" id="logic_arc_int__baselibs__promise-backto-comp_arc_sta__baselibs__concurrency" style="stroke:#181818;stroke-width:1;"/><polygon fill="#181818" points="3788.75,198.75,3792.2855,207.9424,3792.2855,202.2855,3797.9424,202.2855,3788.75,198.75" style="stroke:#181818;stroke-width:1;"/><text fill="#000000" font-family="sans-serif" font-size="13" lengthAdjust="spacing" textLength="76.9082" x="3835.5" y="241.5669">implements</text></g><!--reverse link logic_arc_int__baselibs__result to comp_arc_sta__baselibs__result--><g id="link_logic_arc_int__baselibs__result_comp_arc_sta__baselibs__result"><path codeLine="49" d="M133.5,204.75 C133.5,225.98 133.5,253.94 133.5,275.19 " fill="transparent" id="logic_arc_int__baselibs__result-backto-comp_arc_sta__baselibs__result" style="stroke:#181818;stroke-width:1;"/><polygon fill="#181818" points="133.5,198.75,129.5,207.75,133.5,203.75,137.5,207.75,133.5,198.75" style="stroke:#181818;stroke-width:1;"/><text fill="#000000" font-family="sans-serif" font-size="13" lengthAdjust="spacing" textLength="76.9082" x="134.5" y="241.5669">implements</text></g><!--reverse link logic_arc_int__baselibs__dynamic_array to comp_arc_sta__baselibs__containers--><g id="link_logic_arc_int__baselibs__dynamic_array_comp_arc_sta__baselibs__containers"><path codeLine="50" d="M2500.2627,201.3803 C2459.2127,222.6503 2398.59,254.05 2357.5,275.34 " fill="transparent" id="logic_arc_int__baselibs__dynamic_array-backto-comp_arc_sta__baselibs__containers" style="stroke:#181818;stroke-width:1;"/><polygon fill="#181818" points="2505.59,198.62,2495.7588,199.209,2501.1506,200.9203,2499.4392,206.3121,2505.59,198.62" style="stroke:#181818;stroke-width:1;"/><text fill="#000000" font-family="sans-serif" font-size="13" lengthAdjust="spacing" textLength="76.9082" x="2446.5" y="241.5669">implements</text></g><!--link Feature_User to logic_arc_int__baselibs__task--><g id="link_Feature_User_logic_arc_int__baselibs__task"><path codeLine="51" d="M3185.5,81.55 C3185.5,106.45 3185.5,132.26 3185.5,152.26 " fill="transparent" id="Feature_User-to-logic_arc_int__baselibs__task" style="stroke:#181818;stroke-width:1;"/><polygon fill="#181818" points="3185.5,158.26,3189.5,149.26,3185.5,153.26,3181.5,149.26,3185.5,158.26" style="stroke:#181818;stroke-width:1;"/><text fill="#000000" font-family="sans-serif" font-size="13" lengthAdjust="spacing" textLength="23.0103" x="3186.5" y="124.5669">use</text></g><!--link Feature_User to logic_arc_int__baselibs__executor--><g id="link_Feature_User_logic_arc_int__baselibs__executor"><path codeLine="52" d="M3230.66,65.57 C3285.44,91.14 3371.5426,131.3233 3424.2726,155.9233 " fill="transparent" id="Feature_User-to-logic_arc_int__baselibs__executor" style="stroke:#181818;stroke-width:1;"/><polygon fill="#181818" points="3429.71,158.46,3423.245,151.03,3425.1788,156.3461,3419.8628,158.2799,3429.71,158.46" style="stroke:#181818;stroke-width:1;"/><text fill="#000000" font-family="sans-serif" font-size="13" lengthAdjust="spacing" textLength="23.0103" x="3363.5" y="124.5669">use</text></g><!--SRC=[jLPDRzGm4BtdLrYzRq4Lue2gNf0uSOIpDN6ckqFzaNh6fG7ntt6IRccskoGEoz7EpCjyl7bZi3PyruuUoMyh2QsIeEeW4fngAA8H2hxQKOEA1IC6wLeSp-XQwHI8HAgJ85VNB9t5c-eIc6ojVbQVoUF7O4DK4PlXz6L7viuZixgwV5lzggxVFFbKO2JRNNn2a1HHVMMC5mfOFLte_a9LbGckrH2DPW6jQs2qLBFM3bs8dUOTv5-fJThSA1ksP0PRydBIzeCYrrfqw8NLINWJl42EF_8CTZx6nFI0sXBBOd2JOaHlkXdqszJNujoe0dod8tAo2mE-9OlSPJwukNYV3PS1V-FWPo1xatCN01_Hf4o_AUw4UPjcILyIu-buaf2TeyzWezc45XiTsl_HwTL9SkVDBWPFFt9izmdJFk42Z9f4E_3K9WkzifGZk2mUi4NT0dEMh7A0mmajzTyFIgdVsDh-_FvTkNSRWoEUezXo9epYTrHGYfenKTBIf9hEWni-HUZAtNEs3VKiqWyG2MexLvv3zitKQ3JFsfYdCS8hVVZt9XnBO6KdNWb7QJ57NItrUYdmwxHWKjw_TkzWycUN_85Eh5MzwQ2K9ZdPhMTQ3tiDEIyPZydxaZ-i6ggN6-2yQJmBvHBOiJ4pY2KleyNln0FfMqdESP-NSlBFSsVm_0q0]--></g></svg>