<svg xmlns="http://www.w3.org/2000/svg" xmlns:xlink="http://www.w3.org/1999/xlink" contentStyleType="text/css" data-diagram-type="CLASS" height="268.75px" preserveAspectRatio="none" style="width:377px;height:268px;" version="1.1" viewBox="0 0 377 268" width="377.0833px" zoomAndPan="magnify"><defs><linearGradient id="g1hsh4nqkmloy40" x1="50%" x2="50%" y1="0%" y2="100%"><stop offset="0%" stop-color="#85CECB"/><stop offset="100%" stop-color="#45ADA8"/></linearGradient><filter height="300%" id="f1hsh4nqkmloy4" width="300%" x="-1" y="-1"><feGaussianBlur result="blurOut" stdDeviation="2.0833"/><feColorMatrix in="blurOut" result="blurOut2" type="matrix" values="0 0 0 0 0 0 0 0 0 0 0 0 0 0 0 0 0 0 .4 0"/><feOffset dx="4.1667" dy="4.1667" in="blurOut2" result="blurOut3"/><feBlend in="SourceGraphic" in2="blurOut3" mode="normal"/></filter></defs><g><g id="elem_static"><rect fill="url(#g1hsh4nqkmloy40)" filter="url(#f1hsh4nqkmloy4)" height="36.2549" rx="4.1667" ry="4.1667" style="stroke:#45ADA8;stroke-width:1.0417;" width="133.2586" x="128.6458" y="17.7083"/><path d="M132.8125,17.7083 L257.7377,17.7083 A4.1667,4.1667 0 0 1 261.9044,21.875 L261.9044,37.2965 L128.6458,37.2965 L128.6458,21.875 A4.1667,4.1667 0 0 1 132.8125,17.7083 " fill="url(#g1hsh4nqkmloy40)" style="stroke:#45ADA8;stroke-width:1.0417;"/><text fill="#0E2322" font-family="Arial" font-size="11.4583" lengthAdjust="spacing" textLength="116.5919" x="136.9792" y="31.4692">Static Code Analysis</text><line style="stroke:#45ADA8;stroke-width:1.0417;" x1="129.6875" x2="260.8627" y1="37.2965" y2="37.2965"/></g><g id="elem_ct"><rect fill="url(#g1hsh4nqkmloy40)" filter="url(#f1hsh4nqkmloy4)" height="36.2549" rx="4.1667" ry="4.1667" style="stroke:#45ADA8;stroke-width:1.0417;" width="77.7796" x="17.7083" y="116.6667"/><path d="M21.875,116.6667 L91.3213,116.6667 A4.1667,4.1667 0 0 1 95.488,120.8333 L95.488,136.2549 L17.7083,136.2549 L17.7083,120.8333 A4.1667,4.1667 0 0 1 21.875,116.6667 " fill="url(#g1hsh4nqkmloy40)" style="stroke:#45ADA8;stroke-width:1.0417;"/><text fill="#0E2322" font-family="Arial" font-size="11.4583" lengthAdjust="spacing" textLength="61.113" x="26.0417" y="130.4276">Clang-Tidy</text><line style="stroke:#45ADA8;stroke-width:1.0417;" x1="18.75" x2="94.4463" y1="136.2549" y2="136.2549"/></g><g id="elem_cw"><rect fill="url(#g1hsh4nqkmloy40)" filter="url(#f1hsh4nqkmloy4)" height="36.2549" rx="4.1667" ry="4.1667" style="stroke:#45ADA8;stroke-width:1.0417;" width="125.8957" x="132.2917" y="116.6667"/><path d="M136.4583,116.6667 L254.0207,116.6667 A4.1667,4.1667 0 0 1 258.1874,120.8333 L258.1874,136.2549 L132.2917,136.2549 L132.2917,120.8333 A4.1667,4.1667 0 0 1 136.4583,116.6667 " fill="url(#g1hsh4nqkmloy40)" style="stroke:#45ADA8;stroke-width:1.0417;"/><text fill="#0E2322" font-family="Arial" font-size="11.4583" lengthAdjust="spacing" textLength="109.229" x="140.625" y="130.4276">Compiler Warnings</text><line style="stroke:#45ADA8;stroke-width:1.0417;" x1="133.3333" x2="257.1457" y1="136.2549" y2="136.2549"/></g><g id="elem_gcc"><rect fill="url(#g1hsh4nqkmloy40)" filter="url(#f1hsh4nqkmloy4)" height="36.2549" rx="4.1667" ry="4.1667" style="stroke:#45ADA8;stroke-width:1.0417;" width="36.5397" x="137.5" y="215.625"/><path d="M141.6667,215.625 L169.873,215.625 A4.1667,4.1667 0 0 1 174.0397,219.7917 L174.0397,235.2132 L137.5,235.2132 L137.5,219.7917 A4.1667,4.1667 0 0 1 141.6667,215.625 " fill="url(#g1hsh4nqkmloy40)" style="stroke:#45ADA8;stroke-width:1.0417;"/><text fill="#0E2322" font-family="Arial" font-size="11.4583" lengthAdjust="spacing" textLength="19.873" x="145.8333" y="229.3859">gcc</text><line style="stroke:#45ADA8;stroke-width:1.0417;" x1="138.5417" x2="172.998" y1="235.2132" y2="235.2132"/></g><g id="elem_clang"><rect fill="url(#g1hsh4nqkmloy40)" filter="url(#f1hsh4nqkmloy4)" height="36.2549" rx="4.1667" ry="4.1667" style="stroke:#45ADA8;stroke-width:1.0417;" width="47.7071" x="210.9375" y="215.625"/><path d="M215.1042,215.625 L254.4779,215.625 A4.1667,4.1667 0 0 1 258.6446,219.7917 L258.6446,235.2132 L210.9375,235.2132 L210.9375,219.7917 A4.1667,4.1667 0 0 1 215.1042,215.625 " fill="url(#g1hsh4nqkmloy40)" style="stroke:#45ADA8;stroke-width:1.0417;"/><text fill="#0E2322" font-family="Arial" font-size="11.4583" lengthAdjust="spacing" textLength="31.0404" x="219.2708" y="229.3859">clang</text><line style="stroke:#45ADA8;stroke-width:1.0417;" x1="211.9792" x2="257.6029" y1="235.2132" y2="235.2132"/></g><g id="elem_cov"><rect fill="url(#g1hsh4nqkmloy40)" filter="url(#f1hsh4nqkmloy4)" height="36.2549" rx="4.1667" ry="4.1667" style="stroke:#45ADA8;stroke-width:1.0417;" width="64.6764" x="295.3125" y="116.6667"/><path d="M299.4792,116.6667 L355.8222,116.6667 A4.1667,4.1667 0 0 1 359.9889,120.8333 L359.9889,136.2549 L295.3125,136.2549 L295.3125,120.8333 A4.1667,4.1667 0 0 1 299.4792,116.6667 " fill="url(#g1hsh4nqkmloy40)" style="stroke:#45ADA8;stroke-width:1.0417;"/><text fill="#0E2322" font-family="Arial" font-size="11.4583" lengthAdjust="spacing" textLength="48.0097" x="303.6458" y="130.4276">Coverity</text><line style="stroke:#45ADA8;stroke-width:1.0417;" x1="296.3542" x2="358.9472" y1="136.2549" y2="136.2549"/></g><!--link static to ct--><g id="link_static_ct"><path codeLine="10" d="M170.5417,54.3021 C145.4792,71.8229 112.0706,95.1903 86.9144,112.7736 " fill="transparent" id="static-to-ct" style="stroke:#45ADA8;stroke-width:1.0417;"/><polygon fill="#45ADA8" points="81.7917,116.3542,91.8628,114.3984,86.0606,113.3704,87.0886,107.5682,81.7917,116.3542" style="stroke:#45ADA8;stroke-width:1.0417;"/></g><!--link static to cw--><g id="link_static_cw"><path codeLine="11" d="M195.3125,54.3021 C195.3125,71.8229 195.3125,92.5208 195.3125,110.1042 " fill="transparent" id="static-to-cw" style="stroke:#45ADA8;stroke-width:1.0417;"/><polygon fill="#45ADA8" points="195.3125,116.3542,199.4792,106.9792,195.3125,111.1458,191.1458,106.9792,195.3125,116.3542" style="stroke:#45ADA8;stroke-width:1.0417;"/></g><!--link cw to gcc--><g id="link_cw_gcc"><path codeLine="12" d="M188.2396,153.2604 C181.0729,170.7813 172.4274,191.9438 165.2399,209.5272 " fill="transparent" id="cw-to-gcc" style="stroke:#45ADA8;stroke-width:1.0417;"/><polygon fill="#45ADA8" points="162.875,215.3125,170.2792,208.2111,164.8457,210.4914,162.5654,205.0579,162.875,215.3125" style="stroke:#45ADA8;stroke-width:1.0417;"/></g><!--link cw to clang--><g id="link_cw_clang"><path codeLine="13" d="M202.3854,153.2604 C209.5521,170.7813 218.1976,191.9438 225.3851,209.5272 " fill="transparent" id="cw-to-clang" style="stroke:#45ADA8;stroke-width:1.0417;"/><polygon fill="#45ADA8" points="227.75,215.3125,228.0596,205.0579,225.7793,210.4914,220.3458,208.2111,227.75,215.3125" style="stroke:#45ADA8;stroke-width:1.0417;"/></g><!--link static to cov--><g id="link_static_cov"><path codeLine="14" d="M218.9688,54.3021 C242.8958,71.8229 274.6555,95.0781 298.6659,112.6615 " fill="transparent" id="static-to-cov" style="stroke:#45ADA8;stroke-width:1.0417;"/><polygon fill="#45ADA8" points="303.7083,116.3542,298.6064,107.4535,299.5063,113.2769,293.6828,114.1768,303.7083,116.3542" style="stroke:#45ADA8;stroke-width:1.0417;"/></g><!--SRC=[JOx1RiCW38RlUGhME-7UmwIfZx19ErRKyGWRc0YReBxz0kcwt8o____CYoS8PK8rYonyDYRREZelSxaLnWo914b6ID7ys52q9SEGCbwtJIpamOfFP39-iPdHJcoM4iDLPeou9qsifjKdPE-eOzsnxdXiYo7TlX54dTvbyu6wfEr7RsJ3dJsVb6N57Jnpbs39wGy_tJi5-ISfBZvWLfysaoUtrw7-1HmyBT0aX-AAsSj3cDPXs6yghL_RWUEh3b3xr6oFSRSTKsdz1G00]--></g></svg>