<svg xmlns="http://www.w3.org/2000/svg" xmlns:xlink="http://www.w3.org/1999/xlink" contentStyleType="text/css" data-diagram-type="CLASS" height="306.25px" preserveAspectRatio="none" style="width:343px;height:306px;" version="1.1" viewBox="0 0 343 306" width="343.75px" zoomAndPan="magnify"><defs><linearGradient id="gv1sze0ovttw10" x1="50%" x2="50%" y1="0%" y2="100%"><stop offset="0%" stop-color="#FFFFFF"/><stop offset="100%" stop-color="#CAEAE8"/></linearGradient><filter height="300%" id="fv1sze0ovttw1" width="300%" x="-1" y="-1"><feGaussianBlur result="blurOut" stdDeviation="2.0833"/><feColorMatrix in="blurOut" result="blurOut2" type="matrix" values="0 0 0 0 0 0 0 0 0 0 0 0 0 0 0 0 0 0 .4 0"/><feOffset dx="4.1667" dy="4.1667" in="blurOut2" result="blurOut3"/><feBlend in="SourceGraphic" in2="blurOut3" mode="normal"/></filter><linearGradient id="gv1sze0ovttw11" x1="50%" x2="50%" y1="0%" y2="100%"><stop offset="0%" stop-color="#85CECB"/><stop offset="100%" stop-color="#45ADA8"/></linearGradient></defs><g><!--cluster Consumer--><g id="cluster_Consumer"><rect fill="url(#gv1sze0ovttw10)" filter="url(#fv1sze0ovttw1)" height="270.8333" rx="4.1667" ry="4.1667" style="stroke:#45ADA8;stroke-width:2.0833;" width="133.3333" x="192.7083" y="17.7083"/><text fill="#45ADA8" font-family="Arial" font-size="12.5" font-weight="bold" lengthAdjust="spacing" textLength="70.6665" x="224.0417" y="32.4361">Consumer</text></g><!--cluster Frontend--><g id="cluster_Frontend"><rect fill="#D5E8D4" filter="url(#fv1sze0ovttw1)" height="88.5417" rx="4.1667" ry="4.1667" style="stroke:#85CECB;stroke-width:2.0833;" width="83.3333" x="217.7083" y="61.4583"/><path d="M294.6981,61.4583 L294.6981,70.8008 L284.2814,81.2174 L217.7083,81.2174 " fill="transparent" style="stroke:#85CECB;stroke-width:2.0833;"/><text fill="#85CECB" font-family="Arial" font-size="12.5" font-weight="bold" lengthAdjust="spacing" textLength="64.4897" x="221.875" y="75.1444">Frontend</text></g><!--cluster Binding--><g id="cluster_Binding"><rect fill="#DAE8FC" filter="url(#fv1sze0ovttw1)" height="88.5417" rx="4.1667" ry="4.1667" style="stroke:#85CECB;stroke-width:2.0833;" width="83.3333" x="217.7083" y="175"/><path d="M283.9986,175 L283.9986,184.3424 L273.5819,194.7591 L217.7083,194.7591 " fill="transparent" style="stroke:#85CECB;stroke-width:2.0833;"/><text fill="#85CECB" font-family="Arial" font-size="12.5" font-weight="bold" lengthAdjust="spacing" textLength="53.7903" x="221.875" y="188.6861">Binding</text></g><!--cluster Producer--><g id="cluster_Producer"><rect fill="url(#gv1sze0ovttw10)" filter="url(#fv1sze0ovttw1)" height="270.8333" rx="4.1667" ry="4.1667" style="stroke:#45ADA8;stroke-width:2.0833;" width="150" x="17.7083" y="17.7083"/><text fill="#45ADA8" font-family="Arial" font-size="12.5" font-weight="bold" lengthAdjust="spacing" textLength="63.8123" x="60.8022" y="32.4361">Producer</text></g><!--cluster Frontend--><g id="cluster_Frontend"><rect fill="#D5E8D4" filter="url(#fv1sze0ovttw1)" height="88.5417" rx="4.1667" ry="4.1667" style="stroke:#85CECB;stroke-width:2.0833;" width="100" x="42.7083" y="61.4583"/><path d="M119.6981,61.4583 L119.6981,70.8008 L109.2814,81.2174 L42.7083,81.2174 " fill="transparent" style="stroke:#85CECB;stroke-width:2.0833;"/><text fill="#85CECB" font-family="Arial" font-size="12.5" font-weight="bold" lengthAdjust="spacing" textLength="64.4897" x="46.875" y="75.1444">Frontend</text></g><!--cluster Binding--><g id="cluster_Binding"><rect fill="#DAE8FC" filter="url(#fv1sze0ovttw1)" height="88.5417" rx="4.1667" ry="4.1667" style="stroke:#85CECB;stroke-width:2.0833;" width="100" x="42.7083" y="175"/><path d="M108.9986,175 L108.9986,184.3424 L98.5819,194.7591 L42.7083,194.7591 " fill="transparent" style="stroke:#85CECB;stroke-width:2.0833;"/><text fill="#85CECB" font-family="Arial" font-size="12.5" font-weight="bold" lengthAdjust="spacing" textLength="53.7903" x="46.875" y="188.6861">Binding</text></g><g id="elem_proxy_t"><rect fill="url(#gv1sze0ovttw11)" filter="url(#fv1sze0ovttw1)" height="36.2549" rx="4.1667" ry="4.1667" style="stroke:#45ADA8;stroke-width:1.0417;" width="48.8597" x="234.8958" y="96.875"/><path d="M239.0625,96.875 L279.5888,96.875 A4.1667,4.1667 0 0 1 283.7555,101.0417 L283.7555,116.4632 L234.8958,116.4632 L234.8958,101.0417 A4.1667,4.1667 0 0 1 239.0625,96.875 " fill="url(#gv1sze0ovttw11)" style="stroke:#45ADA8;stroke-width:1.0417;"/><text fill="#0E2322" font-family="Arial" font-size="11.4583" lengthAdjust="spacing" textLength="32.193" x="243.2292" y="110.6359">Proxy</text><line style="stroke:#45ADA8;stroke-width:1.0417;" x1="235.9375" x2="282.7138" y1="116.4632" y2="116.4632"/></g><g id="elem_proxy_b"><rect fill="url(#gv1sze0ovttw11)" filter="url(#fv1sze0ovttw1)" height="36.2549" rx="4.1667" ry="4.1667" style="stroke:#45ADA8;stroke-width:1.0417;" width="48.8597" x="234.8958" y="210.4167"/><path d="M239.0625,210.4167 L279.5888,210.4167 A4.1667,4.1667 0 0 1 283.7555,214.5833 L283.7555,230.0049 L234.8958,230.0049 L234.8958,214.5833 A4.1667,4.1667 0 0 1 239.0625,210.4167 " fill="url(#gv1sze0ovttw11)" style="stroke:#45ADA8;stroke-width:1.0417;"/><text fill="#0E2322" font-family="Arial" font-size="11.4583" lengthAdjust="spacing" textLength="32.193" x="243.2292" y="224.1776">Proxy</text><line style="stroke:#45ADA8;stroke-width:1.0417;" x1="235.9375" x2="282.7138" y1="230.0049" y2="230.0049"/></g><g id="elem_skeleton_t"><rect fill="url(#gv1sze0ovttw11)" filter="url(#fv1sze0ovttw1)" height="36.2549" rx="4.1667" ry="4.1667" style="stroke:#45ADA8;stroke-width:1.0417;" width="66.6234" x="59.375" y="96.875"/><path d="M63.5417,96.875 L121.8318,96.875 A4.1667,4.1667 0 0 1 125.9984,101.0417 L125.9984,116.4632 L59.375,116.4632 L59.375,101.0417 A4.1667,4.1667 0 0 1 63.5417,96.875 " fill="url(#gv1sze0ovttw11)" style="stroke:#45ADA8;stroke-width:1.0417;"/><text fill="#0E2322" font-family="Arial" font-size="11.4583" lengthAdjust="spacing" textLength="49.9568" x="67.7083" y="110.6359">Skeleton</text><line style="stroke:#45ADA8;stroke-width:1.0417;" x1="60.4167" x2="124.9568" y1="116.4632" y2="116.4632"/></g><g id="elem_skeleton_b"><rect fill="url(#gv1sze0ovttw11)" filter="url(#fv1sze0ovttw1)" height="36.2549" rx="4.1667" ry="4.1667" style="stroke:#45ADA8;stroke-width:1.0417;" width="66.6234" x="59.375" y="210.4167"/><path d="M63.5417,210.4167 L121.8318,210.4167 A4.1667,4.1667 0 0 1 125.9984,214.5833 L125.9984,230.0049 L59.375,230.0049 L59.375,214.5833 A4.1667,4.1667 0 0 1 63.5417,210.4167 " fill="url(#gv1sze0ovttw11)" style="stroke:#45ADA8;stroke-width:1.0417;"/><text fill="#0E2322" font-family="Arial" font-size="11.4583" lengthAdjust="spacing" textLength="49.9568" x="67.7083" y="224.1776">Skeleton</text><line style="stroke:#45ADA8;stroke-width:1.0417;" x1="60.4167" x2="124.9568" y1="230.0049" y2="230.0049"/></g><!--link skeleton_t to skeleton_b--><g id="link_skeleton_t_skeleton_b"><path codeLine="20" d="M92.7083,133.5625 C92.7083,154.5 92.7083,183.1771 92.7083,204.0625 " fill="transparent" id="skeleton_t-to-skeleton_b" style="stroke:#45ADA8;stroke-width:1.0417;"/><polygon fill="#45ADA8" points="92.7083,210.3125,96.875,200.9375,92.7083,205.1042,88.5417,200.9375,92.7083,210.3125" style="stroke:#45ADA8;stroke-width:1.0417;"/></g><!--link proxy_t to proxy_b--><g id="link_proxy_t_proxy_b"><path codeLine="21" d="M259.375,133.5625 C259.375,154.5 259.375,183.1771 259.375,204.0625 " fill="transparent" id="proxy_t-to-proxy_b" style="stroke:#45ADA8;stroke-width:1.0417;"/><polygon fill="#45ADA8" points="259.375,210.3125,263.5417,200.9375,259.375,205.1042,255.2083,200.9375,259.375,210.3125" style="stroke:#45ADA8;stroke-width:1.0417;"/></g><!--link skeleton_b to proxy_b--><g id="link_skeleton_b_proxy_b"><path codeLine="22" d="M126.2396,228.6458 C162.2917,228.6458 198.3542,228.6458 234.4167,228.6458 " fill="transparent" id="skeleton_b-proxy_b" style="stroke:#45ADA8;stroke-width:1.0417;"/><path d="M187.6899,236.0115 A10.4167,10.4167 0 0 0 187.6899 221.2801" fill="transparent" style="stroke:#45ADA8;stroke-width:1.5625;"/><ellipse cx="180.3242" cy="228.6458" fill="transparent" rx="6.25" ry="6.25" style="stroke:#45ADA8;stroke-width:1.5625;"/></g><!--SRC=[fP1DJiCm48NtEOK96pQEMO1KeQeIjCqQmG4Ynvuc9lOuyeyAGhqxYHjeAf2Gm1lRyxvvu-SBXK972QGDeVTtZ3c-BneLsbX73qvO382X4DQmZkj8EJ8lh8Dgg9Y8Il2WB387EyzQuDApFXfTXHOC74bczcnib-1LWqccIQP9BiP2rdFHyGP8lhReem6Na-No2KJWs6XOhSXxHeRrXPKkFKoEMEcu6P7BpUrsiRcPK5k_3EqaVtJszIqdt9D-F5KXgOTpkmU5Kc5pxdQ_NPJhNzpgoUsGdI8CZ8pYUuI_PtZkG4Emc0RxwVBF93zxplASvX0gwMhEJ3zvh7z-nBGJgg-kwOp-0000]--></g></svg>