<svg xmlns="http://www.w3.org/2000/svg" xmlns:xlink="http://www.w3.org/1999/xlink" contentStyleType="text/css" data-diagram-type="CLASS" height="322px" preserveAspectRatio="none" style="width:3650px;height:322px;background:#FFFFFF;" version="1.1" viewBox="0 0 3650 322" width="3650px" zoomAndPan="magnify"><defs/><g><!--entity Feature_User--><g id="elem_Feature_User"><ellipse cx="1794.6685" cy="14" fill="#F1F1F1" rx="8" ry="8" style="stroke:#181818;stroke-width:0.5;"/><path d="M1794.6685,22 L1794.6685,49 M1781.6685,30 L1807.6685,30 M1794.6685,49 L1781.6685,64 M1794.6685,49 L1807.6685,64 " fill="transparent" style="stroke:#181818;stroke-width:0.5;"/><text fill="#000000" font-family="sans-serif" font-size="14" lengthAdjust="spacing" textLength="90.3369" x="1749.5" y="78.4951">Feature User</text></g><!--class logic_arc_int__baselibs__utils_scoped_op--><g id="elem_logic_arc_int__baselibs__utils_scoped_op"><rect fill="#F1F1F1" height="40" id="logic_arc_int__baselibs__utils_scoped_op" rx="2.5" ry="2.5" style="stroke:#181818;stroke-width:0.5;" width="315.377" x="2316" y="158.5"/><ellipse cx="2331" cy="174.5" fill="#ADD1B2" rx="11" ry="11" style="stroke:#181818;stroke-width:1;"/><path d="M2333.9688,180.1406 Q2333.3906,180.4375 2332.75,180.5781 Q2332.1094,180.7344 2331.4063,180.7344 Q2328.9063,180.7344 2327.5781,179.0938 Q2326.2656,177.4375 2326.2656,174.3125 Q2326.2656,171.1875 2327.5781,169.5313 Q2328.9063,167.875 2331.4063,167.875 Q2332.1094,167.875 2332.75,168.0313 Q2333.4063,168.1875 2333.9688,168.4844 L2333.9688,171.2031 Q2333.3438,170.625 2332.75,170.3594 Q2332.1563,170.0781 2331.5313,170.0781 Q2330.1875,170.0781 2329.5,171.1563 Q2328.8125,172.2188 2328.8125,174.3125 Q2328.8125,176.4063 2329.5,177.4844 Q2330.1875,178.5469 2331.5313,178.5469 Q2332.1563,178.5469 2332.75,178.2813 Q2333.3438,178 2333.9688,177.4219 L2333.9688,180.1406 Z " fill="#000000"/><text fill="#000000" font-family="sans-serif" font-size="14" lengthAdjust="spacing" textLength="283.377" x="2345" y="179.3467">logic_arc_int__baselibs__utils_scoped_op</text><line style="stroke:#181818;stroke-width:0.5;" x1="2317" x2="2630.377" y1="190.5" y2="190.5"/></g><!--class logic_arc_int__baselibs__bit_mask_operator--><g id="elem_logic_arc_int__baselibs__bit_mask_operator"><rect fill="#F1F1F1" height="40" id="logic_arc_int__baselibs__bit_mask_operator" rx="2.5" ry="2.5" style="stroke:#181818;stroke-width:0.5;" width="334.6406" x="3024" y="158.5"/><ellipse cx="3039" cy="174.5" fill="#ADD1B2" rx="11" ry="11" style="stroke:#181818;stroke-width:1;"/><path d="M3041.9688,180.1406 Q3041.3906,180.4375 3040.75,180.5781 Q3040.1094,180.7344 3039.4063,180.7344 Q3036.9063,180.7344 3035.5781,179.0938 Q3034.2656,177.4375 3034.2656,174.3125 Q3034.2656,171.1875 3035.5781,169.5313 Q3036.9063,167.875 3039.4063,167.875 Q3040.1094,167.875 3040.75,168.0313 Q3041.4063,168.1875 3041.9688,168.4844 L3041.9688,171.2031 Q3041.3438,170.625 3040.75,170.3594 Q3040.1563,170.0781 3039.5313,170.0781 Q3038.1875,170.0781 3037.5,171.1563 Q3036.8125,172.2188 3036.8125,174.3125 Q3036.8125,176.4063 3037.5,177.4844 Q3038.1875,178.5469 3039.5313,178.5469 Q3040.1563,178.5469 3040.75,178.2813 Q3041.3438,178 3041.9688,177.4219 L3041.9688,180.1406 Z " fill="#000000"/><text fill="#000000" font-family="sans-serif" font-size="14" lengthAdjust="spacing" textLength="302.6406" x="3053" y="179.3467">logic_arc_int__baselibs__bit_mask_operator</text><line style="stroke:#181818;stroke-width:0.5;" x1="3025" x2="3357.6406" y1="190.5" y2="190.5"/></g><!--class comp_arc_sta__baselibs__result--><g id="elem_comp_arc_sta__baselibs__result"><rect fill="#F1F1F1" height="40" id="comp_arc_sta__baselibs__result" rx="2.5" ry="2.5" style="stroke:#181818;stroke-width:0.5;" width="253.4297" x="3390" y="275.5"/><ellipse cx="3405" cy="291.5" fill="#ADD1B2" rx="11" ry="11" style="stroke:#181818;stroke-width:1;"/><path d="M3407.9688,297.1406 Q3407.3906,297.4375 3406.75,297.5781 Q3406.1094,297.7344 3405.4063,297.7344 Q3402.9063,297.7344 3401.5781,296.0938 Q3400.2656,294.4375 3400.2656,291.3125 Q3400.2656,288.1875 3401.5781,286.5313 Q3402.9063,284.875 3405.4063,284.875 Q3406.1094,284.875 3406.75,285.0313 Q3407.4063,285.1875 3407.9688,285.4844 L3407.9688,288.2031 Q3407.3438,287.625 3406.75,287.3594 Q3406.1563,287.0781 3405.5313,287.0781 Q3404.1875,287.0781 3403.5,288.1563 Q3402.8125,289.2188 3402.8125,291.3125 Q3402.8125,293.4063 3403.5,294.4844 Q3404.1875,295.5469 3405.5313,295.5469 Q3406.1563,295.5469 3406.75,295.2813 Q3407.3438,295 3407.9688,294.4219 L3407.9688,297.1406 Z " fill="#000000"/><text fill="#000000" font-family="sans-serif" font-size="14" lengthAdjust="spacing" textLength="221.4297" x="3419" y="296.3467">comp_arc_sta__baselibs__result</text><line style="stroke:#181818;stroke-width:0.5;" x1="3391" x2="3642.4297" y1="307.5" y2="307.5"/></g><!--class logic_arc_int__baselibs__result--><g id="elem_logic_arc_int__baselibs__result"><rect fill="#F1F1F1" height="40" id="logic_arc_int__baselibs__result" rx="2.5" ry="2.5" style="stroke:#181818;stroke-width:0.5;" width="244.4609" x="3394.5" y="158.5"/><ellipse cx="3409.5" cy="174.5" fill="#ADD1B2" rx="11" ry="11" style="stroke:#181818;stroke-width:1;"/><path d="M3412.4688,180.1406 Q3411.8906,180.4375 3411.25,180.5781 Q3410.6094,180.7344 3409.9063,180.7344 Q3407.4063,180.7344 3406.0781,179.0938 Q3404.7656,177.4375 3404.7656,174.3125 Q3404.7656,171.1875 3406.0781,169.5313 Q3407.4063,167.875 3409.9063,167.875 Q3410.6094,167.875 3411.25,168.0313 Q3411.9063,168.1875 3412.4688,168.4844 L3412.4688,171.2031 Q3411.8438,170.625 3411.25,170.3594 Q3410.6563,170.0781 3410.0313,170.0781 Q3408.6875,170.0781 3408,171.1563 Q3407.3125,172.2188 3407.3125,174.3125 Q3407.3125,176.4063 3408,177.4844 Q3408.6875,178.5469 3410.0313,178.5469 Q3410.6563,178.5469 3411.25,178.2813 Q3411.8438,178 3412.4688,177.4219 L3412.4688,180.1406 Z " fill="#000000"/><text fill="#000000" font-family="sans-serif" font-size="14" lengthAdjust="spacing" textLength="212.4609" x="3423.5" y="179.3467">logic_arc_int__baselibs__result</text><line style="stroke:#181818;stroke-width:0.5;" x1="3395.5" x2="3637.9609" y1="190.5" y2="190.5"/></g><!--class logic_arc_int__baselibs__memory_shared--><g id="elem_logic_arc_int__baselibs__memory_shared"><rect fill="#F1F1F1" height="40" id="logic_arc_int__baselibs__memory_shared" rx="2.5" ry="2.5" style="stroke:#181818;stroke-width:0.5;" width="318.043" x="1635.5" y="158.5"/><ellipse cx="1650.5" cy="174.5" fill="#ADD1B2" rx="11" ry="11" style="stroke:#181818;stroke-width:1;"/><path d="M1653.4688,180.1406 Q1652.8906,180.4375 1652.25,180.5781 Q1651.6094,180.7344 1650.9063,180.7344 Q1648.4063,180.7344 1647.0781,179.0938 Q1645.7656,177.4375 1645.7656,174.3125 Q1645.7656,171.1875 1647.0781,169.5313 Q1648.4063,167.875 1650.9063,167.875 Q1651.6094,167.875 1652.25,168.0313 Q1652.9063,168.1875 1653.4688,168.4844 L1653.4688,171.2031 Q1652.8438,170.625 1652.25,170.3594 Q1651.6563,170.0781 1651.0313,170.0781 Q1649.6875,170.0781 1649,171.1563 Q1648.3125,172.2188 1648.3125,174.3125 Q1648.3125,176.4063 1649,177.4844 Q1649.6875,178.5469 1651.0313,178.5469 Q1651.6563,178.5469 1652.25,178.2813 Q1652.8438,178 1653.4688,177.4219 L1653.4688,180.1406 Z " fill="#000000"/><text fill="#000000" font-family="sans-serif" font-size="14" lengthAdjust="spacing" textLength="286.043" x="1664.5" y="179.3467">logic_arc_int__baselibs__memory_shared</text><line style="stroke:#181818;stroke-width:0.5;" x1="1636.5" x2="1952.543" y1="190.5" y2="190.5"/></g><!--class comp_arc_sta__baselibs__bit_manipulation--><g id="elem_comp_arc_sta__baselibs__bit_manipulation"><rect fill="#F1F1F1" height="40" id="comp_arc_sta__baselibs__bit_manipulation" rx="2.5" ry="2.5" style="stroke:#181818;stroke-width:0.5;" width="330.8057" x="2842" y="275.5"/><ellipse cx="2857" cy="291.5" fill="#ADD1B2" rx="11" ry="11" style="stroke:#181818;stroke-width:1;"/><path d="M2859.9688,297.1406 Q2859.3906,297.4375 2858.75,297.5781 Q2858.1094,297.7344 2857.4063,297.7344 Q2854.9063,297.7344 2853.5781,296.0938 Q2852.2656,294.4375 2852.2656,291.3125 Q2852.2656,288.1875 2853.5781,286.5313 Q2854.9063,284.875 2857.4063,284.875 Q2858.1094,284.875 2858.75,285.0313 Q2859.4063,285.1875 2859.9688,285.4844 L2859.9688,288.2031 Q2859.3438,287.625 2858.75,287.3594 Q2858.1563,287.0781 2857.5313,287.0781 Q2856.1875,287.0781 2855.5,288.1563 Q2854.8125,289.2188 2854.8125,291.3125 Q2854.8125,293.4063 2855.5,294.4844 Q2856.1875,295.5469 2857.5313,295.5469 Q2858.1563,295.5469 2858.75,295.2813 Q2859.3438,295 2859.9688,294.4219 L2859.9688,297.1406 Z " fill="#000000"/><text fill="#000000" font-family="sans-serif" font-size="14" lengthAdjust="spacing" textLength="298.8057" x="2871" y="296.3467">comp_arc_sta__baselibs__bit_manipulation</text><line style="stroke:#181818;stroke-width:0.5;" x1="2843" x2="3171.8057" y1="307.5" y2="307.5"/></g><!--class logic_arc_int__baselibs__bit_manipulation--><g id="elem_logic_arc_int__baselibs__bit_manipulation"><rect fill="#F1F1F1" height="40" id="logic_arc_int__baselibs__bit_manipulation" rx="2.5" ry="2.5" style="stroke:#181818;stroke-width:0.5;" width="321.8369" x="2666.5" y="158.5"/><ellipse cx="2681.5" cy="174.5" fill="#ADD1B2" rx="11" ry="11" style="stroke:#181818;stroke-width:1;"/><path d="M2684.4688,180.1406 Q2683.8906,180.4375 2683.25,180.5781 Q2682.6094,180.7344 2681.9063,180.7344 Q2679.4063,180.7344 2678.0781,179.0938 Q2676.7656,177.4375 2676.7656,174.3125 Q2676.7656,171.1875 2678.0781,169.5313 Q2679.4063,167.875 2681.9063,167.875 Q2682.6094,167.875 2683.25,168.0313 Q2683.9063,168.1875 2684.4688,168.4844 L2684.4688,171.2031 Q2683.8438,170.625 2683.25,170.3594 Q2682.6563,170.0781 2682.0313,170.0781 Q2680.6875,170.0781 2680,171.1563 Q2679.3125,172.2188 2679.3125,174.3125 Q2679.3125,176.4063 2680,177.4844 Q2680.6875,178.5469 2682.0313,178.5469 Q2682.6563,178.5469 2683.25,178.2813 Q2683.8438,178 2684.4688,177.4219 L2684.4688,180.1406 Z " fill="#000000"/><text fill="#000000" font-family="sans-serif" font-size="14" lengthAdjust="spacing" textLength="289.8369" x="2695.5" y="179.3467">logic_arc_int__baselibs__bit_manipulation</text><line style="stroke:#181818;stroke-width:0.5;" x1="2667.5" x2="2987.3369" y1="190.5" y2="190.5"/></g><!--class logic_arc_int__baselibs__filesystem--><g id="elem_logic_arc_int__baselibs__filesystem"><rect fill="#F1F1F1" height="40" id="logic_arc_int__baselibs__filesystem" rx="2.5" ry="2.5" style="stroke:#181818;stroke-width:0.5;" width="276.4805" x="383.5" y="158.5"/><ellipse cx="398.5" cy="174.5" fill="#ADD1B2" rx="11" ry="11" style="stroke:#181818;stroke-width:1;"/><path d="M401.4688,180.1406 Q400.8906,180.4375 400.25,180.5781 Q399.6094,180.7344 398.9063,180.7344 Q396.4063,180.7344 395.0781,179.0938 Q393.7656,177.4375 393.7656,174.3125 Q393.7656,171.1875 395.0781,169.5313 Q396.4063,167.875 398.9063,167.875 Q399.6094,167.875 400.25,168.0313 Q400.9063,168.1875 401.4688,168.4844 L401.4688,171.2031 Q400.8438,170.625 400.25,170.3594 Q399.6563,170.0781 399.0313,170.0781 Q397.6875,170.0781 397,171.1563 Q396.3125,172.2188 396.3125,174.3125 Q396.3125,176.4063 397,177.4844 Q397.6875,178.5469 399.0313,178.5469 Q399.6563,178.5469 400.25,178.2813 Q400.8438,178 401.4688,177.4219 L401.4688,180.1406 Z " fill="#000000"/><text fill="#000000" font-family="sans-serif" font-size="14" lengthAdjust="spacing" textLength="244.4805" x="412.5" y="179.3467">logic_arc_int__baselibs__filesystem</text><line style="stroke:#181818;stroke-width:0.5;" x1="384.5" x2="658.9805" y1="190.5" y2="190.5"/></g><!--class comp_arc_sta__baselibs__utils--><g id="elem_comp_arc_sta__baselibs__utils"><rect fill="#F1F1F1" height="40" id="comp_arc_sta__baselibs__utils" rx="2.5" ry="2.5" style="stroke:#181818;stroke-width:0.5;" width="242.9502" x="2155" y="275.5"/><ellipse cx="2170" cy="291.5" fill="#ADD1B2" rx="11" ry="11" style="stroke:#181818;stroke-width:1;"/><path d="M2172.9688,297.1406 Q2172.3906,297.4375 2171.75,297.5781 Q2171.1094,297.7344 2170.4063,297.7344 Q2167.9063,297.7344 2166.5781,296.0938 Q2165.2656,294.4375 2165.2656,291.3125 Q2165.2656,288.1875 2166.5781,286.5313 Q2167.9063,284.875 2170.4063,284.875 Q2171.1094,284.875 2171.75,285.0313 Q2172.4063,285.1875 2172.9688,285.4844 L2172.9688,288.2031 Q2172.3438,287.625 2171.75,287.3594 Q2171.1563,287.0781 2170.5313,287.0781 Q2169.1875,287.0781 2168.5,288.1563 Q2167.8125,289.2188 2167.8125,291.3125 Q2167.8125,293.4063 2168.5,294.4844 Q2169.1875,295.5469 2170.5313,295.5469 Q2171.1563,295.5469 2171.75,295.2813 Q2172.3438,295 2172.9688,294.4219 L2172.9688,297.1406 Z " fill="#000000"/><text fill="#000000" font-family="sans-serif" font-size="14" lengthAdjust="spacing" textLength="210.9502" x="2184" y="296.3467">comp_arc_sta__baselibs__utils</text><line style="stroke:#181818;stroke-width:0.5;" x1="2156" x2="2396.9502" y1="307.5" y2="307.5"/></g><!--class logic_arc_int__baselibs__json--><g id="elem_logic_arc_int__baselibs__json"><rect fill="#F1F1F1" height="40" id="logic_arc_int__baselibs__json" rx="2.5" ry="2.5" style="stroke:#181818;stroke-width:0.5;" width="233.168" x="695" y="158.5"/><ellipse cx="710" cy="174.5" fill="#ADD1B2" rx="11" ry="11" style="stroke:#181818;stroke-width:1;"/><path d="M712.9688,180.1406 Q712.3906,180.4375 711.75,180.5781 Q711.1094,180.7344 710.4063,180.7344 Q707.9063,180.7344 706.5781,179.0938 Q705.2656,177.4375 705.2656,174.3125 Q705.2656,171.1875 706.5781,169.5313 Q707.9063,167.875 710.4063,167.875 Q711.1094,167.875 711.75,168.0313 Q712.4063,168.1875 712.9688,168.4844 L712.9688,171.2031 Q712.3438,170.625 711.75,170.3594 Q711.1563,170.0781 710.5313,170.0781 Q709.1875,170.0781 708.5,171.1563 Q707.8125,172.2188 707.8125,174.3125 Q707.8125,176.4063 708.5,177.4844 Q709.1875,178.5469 710.5313,178.5469 Q711.1563,178.5469 711.75,178.2813 Q712.3438,178 712.9688,177.4219 L712.9688,180.1406 Z " fill="#000000"/><text fill="#000000" font-family="sans-serif" font-size="14" lengthAdjust="spacing" textLength="201.168" x="724" y="179.3467">logic_arc_int__baselibs__json</text><line style="stroke:#181818;stroke-width:0.5;" x1="696" x2="927.168" y1="190.5" y2="190.5"/></g><!--class comp_arc_sta__baselibs__containers--><g id="elem_comp_arc_sta__baselibs__containers"><rect fill="#F1F1F1" height="40" id="comp_arc_sta__baselibs__containers" rx="2.5" ry="2.5" style="stroke:#181818;stroke-width:0.5;" width="287.1445" x="1143" y="275.5"/><ellipse cx="1158" cy="291.5" fill="#ADD1B2" rx="11" ry="11" style="stroke:#181818;stroke-width:1;"/><path d="M1160.9688,297.1406 Q1160.3906,297.4375 1159.75,297.5781 Q1159.1094,297.7344 1158.4063,297.7344 Q1155.9063,297.7344 1154.5781,296.0938 Q1153.2656,294.4375 1153.2656,291.3125 Q1153.2656,288.1875 1154.5781,286.5313 Q1155.9063,284.875 1158.4063,284.875 Q1159.1094,284.875 1159.75,285.0313 Q1160.4063,285.1875 1160.9688,285.4844 L1160.9688,288.2031 Q1160.3438,287.625 1159.75,287.3594 Q1159.1563,287.0781 1158.5313,287.0781 Q1157.1875,287.0781 1156.5,288.1563 Q1155.8125,289.2188 1155.8125,291.3125 Q1155.8125,293.4063 1156.5,294.4844 Q1157.1875,295.5469 1158.5313,295.5469 Q1159.1563,295.5469 1159.75,295.2813 Q1160.3438,295 1160.9688,294.4219 L1160.9688,297.1406 Z " fill="#000000"/><text fill="#000000" font-family="sans-serif" font-size="14" lengthAdjust="spacing" textLength="255.1445" x="1172" y="296.3467">comp_arc_sta__baselibs__containers</text><line style="stroke:#181818;stroke-width:0.5;" x1="1144" x2="1429.1445" y1="307.5" y2="307.5"/></g><!--class logic_arc_int__baselibs__dynamic_array--><g id="elem_logic_arc_int__baselibs__dynamic_array"><rect fill="#F1F1F1" height="40" id="logic_arc_int__baselibs__dynamic_array" rx="2.5" ry="2.5" style="stroke:#181818;stroke-width:0.5;" width="308.3496" x="963.5" y="158.5"/><ellipse cx="978.5" cy="174.5" fill="#ADD1B2" rx="11" ry="11" style="stroke:#181818;stroke-width:1;"/><path d="M981.4688,180.1406 Q980.8906,180.4375 980.25,180.5781 Q979.6094,180.7344 978.9063,180.7344 Q976.4063,180.7344 975.0781,179.0938 Q973.7656,177.4375 973.7656,174.3125 Q973.7656,171.1875 975.0781,169.5313 Q976.4063,167.875 978.9063,167.875 Q979.6094,167.875 980.25,168.0313 Q980.9063,168.1875 981.4688,168.4844 L981.4688,171.2031 Q980.8438,170.625 980.25,170.3594 Q979.6563,170.0781 979.0313,170.0781 Q977.6875,170.0781 977,171.1563 Q976.3125,172.2188 976.3125,174.3125 Q976.3125,176.4063 977,177.4844 Q977.6875,178.5469 979.0313,178.5469 Q979.6563,178.5469 980.25,178.2813 Q980.8438,178 981.4688,177.4219 L981.4688,180.1406 Z " fill="#000000"/><text fill="#000000" font-family="sans-serif" font-size="14" lengthAdjust="spacing" textLength="276.3496" x="992.5" y="179.3467">logic_arc_int__baselibs__dynamic_array</text><line style="stroke:#181818;stroke-width:0.5;" x1="964.5" x2="1270.8496" y1="190.5" y2="190.5"/></g><!--class logic_arc_int__baselibs__utils_base64--><g id="elem_logic_arc_int__baselibs__utils_base64"><rect fill="#F1F1F1" height="40" id="logic_arc_int__baselibs__utils_base64" rx="2.5" ry="2.5" style="stroke:#181818;stroke-width:0.5;" width="292.1689" x="1988.5" y="158.5"/><ellipse cx="2003.5" cy="174.5" fill="#ADD1B2" rx="11" ry="11" style="stroke:#181818;stroke-width:1;"/><path d="M2006.4688,180.1406 Q2005.8906,180.4375 2005.25,180.5781 Q2004.6094,180.7344 2003.9063,180.7344 Q2001.4063,180.7344 2000.0781,179.0938 Q1998.7656,177.4375 1998.7656,174.3125 Q1998.7656,171.1875 2000.0781,169.5313 Q2001.4063,167.875 2003.9063,167.875 Q2004.6094,167.875 2005.25,168.0313 Q2005.9063,168.1875 2006.4688,168.4844 L2006.4688,171.2031 Q2005.8438,170.625 2005.25,170.3594 Q2004.6563,170.0781 2004.0313,170.0781 Q2002.6875,170.0781 2002,171.1563 Q2001.3125,172.2188 2001.3125,174.3125 Q2001.3125,176.4063 2002,177.4844 Q2002.6875,178.5469 2004.0313,178.5469 Q2004.6563,178.5469 2005.25,178.2813 Q2005.8438,178 2006.4688,177.4219 L2006.4688,180.1406 Z " fill="#000000"/><text fill="#000000" font-family="sans-serif" font-size="14" lengthAdjust="spacing" textLength="260.1689" x="2017.5" y="179.3467">logic_arc_int__baselibs__utils_base64</text><line style="stroke:#181818;stroke-width:0.5;" x1="1989.5" x2="2279.6689" y1="190.5" y2="190.5"/></g><!--class comp_arc_sta__baselibs__memory_shared--><g id="elem_comp_arc_sta__baselibs__memory_shared"><rect fill="#F1F1F1" height="40" id="comp_arc_sta__baselibs__memory_shared" rx="2.5" ry="2.5" style="stroke:#181818;stroke-width:0.5;" width="327.0117" x="1631" y="275.5"/><ellipse cx="1646" cy="291.5" fill="#ADD1B2" rx="11" ry="11" style="stroke:#181818;stroke-width:1;"/><path d="M1648.9688,297.1406 Q1648.3906,297.4375 1647.75,297.5781 Q1647.1094,297.7344 1646.4063,297.7344 Q1643.9063,297.7344 1642.5781,296.0938 Q1641.2656,294.4375 1641.2656,291.3125 Q1641.2656,288.1875 1642.5781,286.5313 Q1643.9063,284.875 1646.4063,284.875 Q1647.1094,284.875 1647.75,285.0313 Q1648.4063,285.1875 1648.9688,285.4844 L1648.9688,288.2031 Q1648.3438,287.625 1647.75,287.3594 Q1647.1563,287.0781 1646.5313,287.0781 Q1645.1875,287.0781 1644.5,288.1563 Q1643.8125,289.2188 1643.8125,291.3125 Q1643.8125,293.4063 1644.5,294.4844 Q1645.1875,295.5469 1646.5313,295.5469 Q1647.1563,295.5469 1647.75,295.2813 Q1648.3438,295 1648.9688,294.4219 L1648.9688,297.1406 Z " fill="#000000"/><text fill="#000000" font-family="sans-serif" font-size="14" lengthAdjust="spacing" textLength="295.0117" x="1660" y="296.3467">comp_arc_sta__baselibs__memory_shared</text><line style="stroke:#181818;stroke-width:0.5;" x1="1632" x2="1957.0117" y1="307.5" y2="307.5"/></g><!--class comp_arc_sta__baselibs__json--><g id="elem_comp_arc_sta__baselibs__json"><rect fill="#F1F1F1" height="40" id="comp_arc_sta__baselibs__json" rx="2.5" ry="2.5" style="stroke:#181818;stroke-width:0.5;" width="242.1367" x="699.5" y="275.5"/><ellipse cx="714.5" cy="291.5" fill="#ADD1B2" rx="11" ry="11" style="stroke:#181818;stroke-width:1;"/><path d="M717.4688,297.1406 Q716.8906,297.4375 716.25,297.5781 Q715.6094,297.7344 714.9063,297.7344 Q712.4063,297.7344 711.0781,296.0938 Q709.7656,294.4375 709.7656,291.3125 Q709.7656,288.1875 711.0781,286.5313 Q712.4063,284.875 714.9063,284.875 Q715.6094,284.875 716.25,285.0313 Q716.9063,285.1875 717.4688,285.4844 L717.4688,288.2031 Q716.8438,287.625 716.25,287.3594 Q715.6563,287.0781 715.0313,287.0781 Q713.6875,287.0781 713,288.1563 Q712.3125,289.2188 712.3125,291.3125 Q712.3125,293.4063 713,294.4844 Q713.6875,295.5469 715.0313,295.5469 Q715.6563,295.5469 716.25,295.2813 Q716.8438,295 717.4688,294.4219 L717.4688,297.1406 Z " fill="#000000"/><text fill="#000000" font-family="sans-serif" font-size="14" lengthAdjust="spacing" textLength="210.1367" x="728.5" y="296.3467">comp_arc_sta__baselibs__json</text><line style="stroke:#181818;stroke-width:0.5;" x1="700.5" x2="940.6367" y1="307.5" y2="307.5"/></g><!--class logic_arc_int__baselibs__intrusive_list--><g id="elem_logic_arc_int__baselibs__intrusive_list"><rect fill="#F1F1F1" height="40" id="logic_arc_int__baselibs__intrusive_list" rx="2.5" ry="2.5" style="stroke:#181818;stroke-width:0.5;" width="293.0713" x="1307" y="158.5"/><ellipse cx="1322" cy="174.5" fill="#ADD1B2" rx="11" ry="11" style="stroke:#181818;stroke-width:1;"/><path d="M1324.9688,180.1406 Q1324.3906,180.4375 1323.75,180.5781 Q1323.1094,180.7344 1322.4063,180.7344 Q1319.9063,180.7344 1318.5781,179.0938 Q1317.2656,177.4375 1317.2656,174.3125 Q1317.2656,171.1875 1318.5781,169.5313 Q1319.9063,167.875 1322.4063,167.875 Q1323.1094,167.875 1323.75,168.0313 Q1324.4063,168.1875 1324.9688,168.4844 L1324.9688,171.2031 Q1324.3438,170.625 1323.75,170.3594 Q1323.1563,170.0781 1322.5313,170.0781 Q1321.1875,170.0781 1320.5,171.1563 Q1319.8125,172.2188 1319.8125,174.3125 Q1319.8125,176.4063 1320.5,177.4844 Q1321.1875,178.5469 1322.5313,178.5469 Q1323.1563,178.5469 1323.75,178.2813 Q1324.3438,178 1324.9688,177.4219 L1324.9688,180.1406 Z " fill="#000000"/><text fill="#000000" font-family="sans-serif" font-size="14" lengthAdjust="spacing" textLength="261.0713" x="1336" y="179.3467">logic_arc_int__baselibs__intrusive_list</text><line style="stroke:#181818;stroke-width:0.5;" x1="1308" x2="1599.0713" y1="190.5" y2="190.5"/></g><!--class logic_arc_int__baselibs__message_passing--><g id="elem_logic_arc_int__baselibs__message_passing"><rect fill="#F1F1F1" height="40" id="logic_arc_int__baselibs__message_passing" rx="2.5" ry="2.5" style="stroke:#181818;stroke-width:0.5;" width="328.167" x="16.5" y="158.5"/><ellipse cx="31.5" cy="174.5" fill="#ADD1B2" rx="11" ry="11" style="stroke:#181818;stroke-width:1;"/><path d="M34.4688,180.1406 Q33.8906,180.4375 33.25,180.5781 Q32.6094,180.7344 31.9063,180.7344 Q29.4063,180.7344 28.0781,179.0938 Q26.7656,177.4375 26.7656,174.3125 Q26.7656,171.1875 28.0781,169.5313 Q29.4063,167.875 31.9063,167.875 Q32.6094,167.875 33.25,168.0313 Q33.9063,168.1875 34.4688,168.4844 L34.4688,171.2031 Q33.8438,170.625 33.25,170.3594 Q32.6563,170.0781 32.0313,170.0781 Q30.6875,170.0781 30,171.1563 Q29.3125,172.2188 29.3125,174.3125 Q29.3125,176.4063 30,177.4844 Q30.6875,178.5469 32.0313,178.5469 Q32.6563,178.5469 33.25,178.2813 Q33.8438,178 34.4688,177.4219 L34.4688,180.1406 Z " fill="#000000"/><text fill="#000000" font-family="sans-serif" font-size="14" lengthAdjust="spacing" textLength="296.167" x="45.5" y="179.3467">logic_arc_int__baselibs__message_passing</text><line style="stroke:#181818;stroke-width:0.5;" x1="17.5" x2="343.667" y1="190.5" y2="190.5"/></g><!--class comp_arc_sta__baselibs__filesystem--><g id="elem_comp_arc_sta__baselibs__filesystem"><rect fill="#F1F1F1" height="40" id="comp_arc_sta__baselibs__filesystem" rx="2.5" ry="2.5" style="stroke:#181818;stroke-width:0.5;" width="285.4492" x="379" y="275.5"/><ellipse cx="394" cy="291.5" fill="#ADD1B2" rx="11" ry="11" style="stroke:#181818;stroke-width:1;"/><path d="M396.9688,297.1406 Q396.3906,297.4375 395.75,297.5781 Q395.1094,297.7344 394.4063,297.7344 Q391.9063,297.7344 390.5781,296.0938 Q389.2656,294.4375 389.2656,291.3125 Q389.2656,288.1875 390.5781,286.5313 Q391.9063,284.875 394.4063,284.875 Q395.1094,284.875 395.75,285.0313 Q396.4063,285.1875 396.9688,285.4844 L396.9688,288.2031 Q396.3438,287.625 395.75,287.3594 Q395.1563,287.0781 394.5313,287.0781 Q393.1875,287.0781 392.5,288.1563 Q391.8125,289.2188 391.8125,291.3125 Q391.8125,293.4063 392.5,294.4844 Q393.1875,295.5469 394.5313,295.5469 Q395.1563,295.5469 395.75,295.2813 Q396.3438,295 396.9688,294.4219 L396.9688,297.1406 Z " fill="#000000"/><text fill="#000000" font-family="sans-serif" font-size="14" lengthAdjust="spacing" textLength="253.4492" x="408" y="296.3467">comp_arc_sta__baselibs__filesystem</text><line style="stroke:#181818;stroke-width:0.5;" x1="380" x2="663.4492" y1="307.5" y2="307.5"/></g><!--class comp_arc_sta__baselibs__message_passing--><g id="elem_comp_arc_sta__baselibs__message_passing"><rect fill="#F1F1F1" height="40" id="comp_arc_sta__baselibs__message_passing" rx="2.5" ry="2.5" style="stroke:#181818;stroke-width:0.5;" width="337.1357" x="7" y="275.5"/><ellipse cx="22" cy="291.5" fill="#ADD1B2" rx="11" ry="11" style="stroke:#181818;stroke-width:1;"/><path d="M24.9688,297.1406 Q24.3906,297.4375 23.75,297.5781 Q23.1094,297.7344 22.4063,297.7344 Q19.9063,297.7344 18.5781,296.0938 Q17.2656,294.4375 17.2656,291.3125 Q17.2656,288.1875 18.5781,286.5313 Q19.9063,284.875 22.4063,284.875 Q23.1094,284.875 23.75,285.0313 Q24.4063,285.1875 24.9688,285.4844 L24.9688,288.2031 Q24.3438,287.625 23.75,287.3594 Q23.1563,287.0781 22.5313,287.0781 Q21.1875,287.0781 20.5,288.1563 Q19.8125,289.2188 19.8125,291.3125 Q19.8125,293.4063 20.5,294.4844 Q21.1875,295.5469 22.5313,295.5469 Q23.1563,295.5469 23.75,295.2813 Q24.3438,295 24.9688,294.4219 L24.9688,297.1406 Z " fill="#000000"/><text fill="#000000" font-family="sans-serif" font-size="14" lengthAdjust="spacing" textLength="305.1357" x="36" y="296.3467">comp_arc_sta__baselibs__message_passing</text><line style="stroke:#181818;stroke-width:0.5;" x1="8" x2="343.1357" y1="307.5" y2="307.5"/></g><!--link Feature_User to logic_arc_int__baselibs__utils_scoped_op--><g id="link_Feature_User_logic_arc_int__baselibs__utils_scoped_op"><path codeLine="15" d="M1839.58,53.33 C1948.35,74.64 2221.3519,128.1064 2370.3419,157.2964 " fill="transparent" id="Feature_User-to-logic_arc_int__baselibs__utils_scoped_op" style="stroke:#181818;stroke-width:1;"/><polygon fill="#181818" points="2376.23,158.45,2368.167,152.7943,2371.3233,157.4887,2366.6289,160.645,2376.23,158.45" style="stroke:#181818;stroke-width:1;"/><text fill="#000000" font-family="sans-serif" font-size="13" lengthAdjust="spacing" textLength="23.0103" x="2216.5" y="124.5669">use</text></g><!--link Feature_User to logic_arc_int__baselibs__bit_mask_operator--><g id="link_Feature_User_logic_arc_int__baselibs__bit_mask_operator"><path codeLine="16" d="M1839.6,48.62 C1998.97,63.19 2550.5,113.85 3005.5,158.5 C3011.48,159.09 3011.5894,159.0968 3017.7294,159.7068 " fill="transparent" id="Feature_User-to-logic_arc_int__baselibs__bit_mask_operator" style="stroke:#181818;stroke-width:1;"/><polygon fill="#181818" points="3023.7,160.3,3015.1395,155.4298,3018.7245,159.8057,3014.3486,163.3906,3023.7,160.3" style="stroke:#181818;stroke-width:1;"/><text fill="#000000" font-family="sans-serif" font-size="13" lengthAdjust="spacing" textLength="23.0103" x="2674.5" y="124.5669">use</text></g><!--reverse link logic_arc_int__baselibs__result to comp_arc_sta__baselibs__result--><g id="link_logic_arc_int__baselibs__result_comp_arc_sta__baselibs__result"><path codeLine="17" d="M3516.5,204.75 C3516.5,225.98 3516.5,253.94 3516.5,275.19 " fill="transparent" id="logic_arc_int__baselibs__result-backto-comp_arc_sta__baselibs__result" style="stroke:#181818;stroke-width:1;"/><polygon fill="#181818" points="3516.5,198.75,3512.5,207.75,3516.5,203.75,3520.5,207.75,3516.5,198.75" style="stroke:#181818;stroke-width:1;"/><text fill="#000000" font-family="sans-serif" font-size="13" lengthAdjust="spacing" textLength="76.9082" x="3517.5" y="241.5669">implements</text></g><!--link Feature_User to logic_arc_int__baselibs__memory_shared--><g id="link_Feature_User_logic_arc_int__baselibs__memory_shared"><path codeLine="18" d="M1794.5,81.55 C1794.5,106.45 1794.5,132.26 1794.5,152.26 " fill="transparent" id="Feature_User-to-logic_arc_int__baselibs__memory_shared" style="stroke:#181818;stroke-width:1;"/><polygon fill="#181818" points="1794.5,158.26,1798.5,149.26,1794.5,153.26,1790.5,149.26,1794.5,158.26" style="stroke:#181818;stroke-width:1;"/><text fill="#000000" font-family="sans-serif" font-size="13" lengthAdjust="spacing" textLength="23.0103" x="1795.5" y="124.5669">use</text></g><!--reverse link logic_arc_int__baselibs__bit_manipulation to comp_arc_sta__baselibs__bit_manipulation--><g id="link_logic_arc_int__baselibs__bit_manipulation_comp_arc_sta__baselibs__bit_manipulation"><path codeLine="19" d="M2862.6865,201.9799 C2896.0165,223.2699 2944.33,254.14 2977.57,275.38 " fill="transparent" id="logic_arc_int__baselibs__bit_manipulation-backto-comp_arc_sta__baselibs__bit_manipulation" style="stroke:#181818;stroke-width:1;"/><polygon fill="#181818" points="2857.63,198.75,2863.0614,206.9658,2861.8437,201.4416,2867.368,200.2239,2857.63,198.75" style="stroke:#181818;stroke-width:1;"/><text fill="#000000" font-family="sans-serif" font-size="13" lengthAdjust="spacing" textLength="76.9082" x="2929.5" y="241.5669">implements</text></g><!--link Feature_User to logic_arc_int__baselibs__filesystem--><g id="link_Feature_User_logic_arc_int__baselibs__filesystem"><path codeLine="20" d="M1749.25,48.8 C1597.6,63.27 1093.52,111.94 677.5,158.5 C671.67,159.15 671.6808,159.1456 665.6708,159.8356 " fill="transparent" id="Feature_User-to-logic_arc_int__baselibs__filesystem" style="stroke:#181818;stroke-width:1;"/><polygon fill="#181818" points="659.71,160.52,669.1075,163.4674,664.6774,159.9497,668.195,155.5196,659.71,160.52" style="stroke:#181818;stroke-width:1;"/><text fill="#000000" font-family="sans-serif" font-size="13" lengthAdjust="spacing" textLength="23.0103" x="1108.5" y="124.5669">use</text></g><!--reverse link logic_arc_int__baselibs__utils_scoped_op to comp_arc_sta__baselibs__utils--><g id="link_logic_arc_int__baselibs__utils_scoped_op_comp_arc_sta__baselibs__utils"><path codeLine="21" d="M2435.3479,201.7743 C2398.8679,223.0643 2345.64,254.14 2309.25,275.38 " fill="transparent" id="logic_arc_int__baselibs__utils_scoped_op-backto-comp_arc_sta__baselibs__utils" style="stroke:#181818;stroke-width:1;"/><polygon fill="#181818" points="2440.53,198.75,2430.7407,199.8317,2436.2116,201.2702,2434.7731,206.7411,2440.53,198.75" style="stroke:#181818;stroke-width:1;"/><text fill="#000000" font-family="sans-serif" font-size="13" lengthAdjust="spacing" textLength="76.9082" x="2388.5" y="241.5669">implements</text></g><!--link Feature_User to logic_arc_int__baselibs__json--><g id="link_Feature_User_logic_arc_int__baselibs__json"><path codeLine="22" d="M1749.38,50.44 C1622.66,67.15 1252.67,116.1 945.5,158.5 C939.8,159.29 939.9029,159.274 934.0029,160.094 " fill="transparent" id="Feature_User-to-logic_arc_int__baselibs__json" style="stroke:#181818;stroke-width:1;"/><polygon fill="#181818" points="928.06,160.92,937.525,163.643,933.0124,160.2317,936.4237,155.7191,928.06,160.92" style="stroke:#181818;stroke-width:1;"/><text fill="#000000" font-family="sans-serif" font-size="13" lengthAdjust="spacing" textLength="23.0103" x="1273.5" y="124.5669">use</text></g><!--reverse link logic_arc_int__baselibs__bit_mask_operator to comp_arc_sta__baselibs__bit_manipulation--><g id="link_logic_arc_int__baselibs__bit_mask_operator_comp_arc_sta__baselibs__bit_manipulation"><path codeLine="23" d="M3155.6118,201.9296 C3121.5418,223.2196 3072.08,254.14 3038.09,275.38 " fill="transparent" id="logic_arc_int__baselibs__bit_mask_operator-backto-comp_arc_sta__baselibs__bit_manipulation" style="stroke:#181818;stroke-width:1;"/><polygon fill="#181818" points="3160.7,198.75,3150.9479,200.1272,3156.4598,201.3997,3155.1874,206.9115,3160.7,198.75" style="stroke:#181818;stroke-width:1;"/><text fill="#000000" font-family="sans-serif" font-size="13" lengthAdjust="spacing" textLength="76.9082" x="3112.5" y="241.5669">implements</text></g><!--reverse link logic_arc_int__baselibs__dynamic_array to comp_arc_sta__baselibs__containers--><g id="link_logic_arc_int__baselibs__dynamic_array_comp_arc_sta__baselibs__containers"><path codeLine="24" d="M1150.7506,202.1252 C1182.0406,223.4152 1227.19,254.14 1258.4,275.38 " fill="transparent" id="logic_arc_int__baselibs__dynamic_array-backto-comp_arc_sta__baselibs__containers" style="stroke:#181818;stroke-width:1;"/><polygon fill="#181818" points="1145.79,198.75,1150.9808,207.1199,1149.9238,201.5627,1155.4811,200.5058,1145.79,198.75" style="stroke:#181818;stroke-width:1;"/><text fill="#000000" font-family="sans-serif" font-size="13" lengthAdjust="spacing" textLength="76.9082" x="1213.5" y="241.5669">implements</text></g><!--link Feature_User to logic_arc_int__baselibs__result--><g id="link_Feature_User_logic_arc_int__baselibs__result"><path codeLine="25" d="M1839.58,46.71 C2027.81,56.14 2769.48,95.5 3376.5,158.5 C3382.36,159.11 3382.3798,159.0804 3388.4298,159.7804 " fill="transparent" id="Feature_User-to-logic_arc_int__baselibs__result" style="stroke:#181818;stroke-width:1;"/><polygon fill="#181818" points="3394.39,160.47,3385.9094,155.4621,3389.4231,159.8953,3384.9899,163.4091,3394.39,160.47" style="stroke:#181818;stroke-width:1;"/><text fill="#000000" font-family="sans-serif" font-size="13" lengthAdjust="spacing" textLength="23.0103" x="3031.5" y="124.5669">use</text></g><!--reverse link logic_arc_int__baselibs__utils_base64 to comp_arc_sta__baselibs__utils--><g id="link_logic_arc_int__baselibs__utils_base64_comp_arc_sta__baselibs__utils"><path codeLine="26" d="M2162.9324,202.5265 C2189.1424,223.7565 2226.41,253.94 2252.65,275.19 " fill="transparent" id="logic_arc_int__baselibs__utils_base64-backto-comp_arc_sta__baselibs__utils" style="stroke:#181818;stroke-width:1;"/><polygon fill="#181818" points="2158.27,198.75,2162.7459,207.523,2162.1553,201.8971,2167.7813,201.3065,2158.27,198.75" style="stroke:#181818;stroke-width:1;"/><text fill="#000000" font-family="sans-serif" font-size="13" lengthAdjust="spacing" textLength="76.9082" x="2215.5" y="241.5669">implements</text></g><!--link Feature_User to logic_arc_int__baselibs__utils_base64--><g id="link_Feature_User_logic_arc_int__baselibs__utils_base64"><path codeLine="27" d="M1839.65,62.16 C1903.6,87.18 2014.4821,130.5546 2080.2721,156.2846 " fill="transparent" id="Feature_User-to-logic_arc_int__baselibs__utils_base64" style="stroke:#181818;stroke-width:1;"/><polygon fill="#181818" points="2085.86,158.47,2078.9351,151.4667,2081.2035,156.6489,2076.0213,158.9172,2085.86,158.47" style="stroke:#181818;stroke-width:1;"/><text fill="#000000" font-family="sans-serif" font-size="13" lengthAdjust="spacing" textLength="23.0103" x="2006.5" y="124.5669">use</text></g><!--link Feature_User to logic_arc_int__baselibs__dynamic_array--><g id="link_Feature_User_logic_arc_int__baselibs__dynamic_array"><path codeLine="28" d="M1749.29,53.38 C1640.62,74.73 1368.6774,128.1532 1220.2674,157.3132 " fill="transparent" id="Feature_User-to-logic_arc_int__baselibs__dynamic_array" style="stroke:#181818;stroke-width:1;"/><polygon fill="#181818" points="1214.38,158.47,1223.9823,160.6598,1219.2862,157.506,1222.44,152.8099,1214.38,158.47" style="stroke:#181818;stroke-width:1;"/><text fill="#000000" font-family="sans-serif" font-size="13" lengthAdjust="spacing" textLength="23.0103" x="1437.5" y="124.5669">use</text></g><!--reverse link logic_arc_int__baselibs__memory_shared to comp_arc_sta__baselibs__memory_shared--><g id="link_logic_arc_int__baselibs__memory_shared_comp_arc_sta__baselibs__memory_shared"><path codeLine="29" d="M1794.5,204.75 C1794.5,225.98 1794.5,253.94 1794.5,275.19 " fill="transparent" id="logic_arc_int__baselibs__memory_shared-backto-comp_arc_sta__baselibs__memory_shared" style="stroke:#181818;stroke-width:1;"/><polygon fill="#181818" points="1794.5,198.75,1790.5,207.75,1794.5,203.75,1798.5,207.75,1794.5,198.75" style="stroke:#181818;stroke-width:1;"/><text fill="#000000" font-family="sans-serif" font-size="13" lengthAdjust="spacing" textLength="76.9082" x="1795.5" y="241.5669">implements</text></g><!--reverse link logic_arc_int__baselibs__json to comp_arc_sta__baselibs__json--><g id="link_logic_arc_int__baselibs__json_comp_arc_sta__baselibs__json"><path codeLine="30" d="M813.4777,204.7317 C815.1377,225.9617 817.33,253.94 818.99,275.19 " fill="transparent" id="logic_arc_int__baselibs__json-backto-comp_arc_sta__baselibs__json" style="stroke:#181818;stroke-width:1;"/><polygon fill="#181818" points="813.01,198.75,809.7238,208.0344,813.3998,203.7348,817.6994,207.4108,813.01,198.75" style="stroke:#181818;stroke-width:1;"/><text fill="#000000" font-family="sans-serif" font-size="13" lengthAdjust="spacing" textLength="76.9082" x="818.5" y="241.5669">implements</text></g><!--reverse link logic_arc_int__baselibs__intrusive_list to comp_arc_sta__baselibs__containers--><g id="link_logic_arc_int__baselibs__intrusive_list_comp_arc_sta__baselibs__containers"><path codeLine="31" d="M1420.6082,202.1527 C1389.6882,223.4427 1345.11,254.14 1314.26,275.38 " fill="transparent" id="logic_arc_int__baselibs__intrusive_list-backto-comp_arc_sta__baselibs__containers" style="stroke:#181818;stroke-width:1;"/><polygon fill="#181818" points="1425.55,198.75,1415.8688,200.5595,1421.4318,201.5856,1420.4057,207.1486,1425.55,198.75" style="stroke:#181818;stroke-width:1;"/><text fill="#000000" font-family="sans-serif" font-size="13" lengthAdjust="spacing" textLength="76.9082" x="1381.5" y="241.5669">implements</text></g><!--link Feature_User to logic_arc_int__baselibs__bit_manipulation--><g id="link_Feature_User_logic_arc_int__baselibs__bit_manipulation"><path codeLine="32" d="M1839.55,50.3 C1984.2,68.92 2435.3591,127.0138 2673.7091,157.7038 " fill="transparent" id="Feature_User-to-logic_arc_int__baselibs__bit_manipulation" style="stroke:#181818;stroke-width:1;"/><polygon fill="#181818" points="2679.66,158.47,2671.2445,153.3534,2674.7009,157.8315,2670.2229,161.2879,2679.66,158.47" style="stroke:#181818;stroke-width:1;"/><text fill="#000000" font-family="sans-serif" font-size="13" lengthAdjust="spacing" textLength="23.0103" x="2435.5" y="124.5669">use</text></g><!--link Feature_User to logic_arc_int__baselibs__message_passing--><g id="link_Feature_User_logic_arc_int__baselibs__message_passing"><path codeLine="33" d="M1749.42,47.71 C1572.7,60.39 910.14,108.7 365.5,158.5 C358.75,159.12 357.8332,159.1936 350.8732,159.8536 " fill="transparent" id="Feature_User-to-logic_arc_int__baselibs__message_passing" style="stroke:#181818;stroke-width:1;"/><polygon fill="#181818" points="344.9,160.42,354.2374,163.5525,349.8777,159.948,353.4822,155.5882,344.9,160.42" style="stroke:#181818;stroke-width:1;"/><text fill="#000000" font-family="sans-serif" font-size="13" lengthAdjust="spacing" textLength="23.0103" x="877.5" y="124.5669">use</text></g><!--reverse link logic_arc_int__baselibs__filesystem to comp_arc_sta__baselibs__filesystem--><g id="link_logic_arc_int__baselibs__filesystem_comp_arc_sta__baselibs__filesystem"><path codeLine="34" d="M521.5,204.75 C521.5,225.98 521.5,253.94 521.5,275.19 " fill="transparent" id="logic_arc_int__baselibs__filesystem-backto-comp_arc_sta__baselibs__filesystem" style="stroke:#181818;stroke-width:1;"/><polygon fill="#181818" points="521.5,198.75,517.5,207.75,521.5,203.75,525.5,207.75,521.5,198.75" style="stroke:#181818;stroke-width:1;"/><text fill="#000000" font-family="sans-serif" font-size="13" lengthAdjust="spacing" textLength="76.9082" x="522.5" y="241.5669">implements</text></g><!--reverse link logic_arc_int__baselibs__message_passing to comp_arc_sta__baselibs__message_passing--><g id="link_logic_arc_int__baselibs__message_passing_comp_arc_sta__baselibs__message_passing"><path codeLine="35" d="M179.4002,204.7444 C178.4802,225.9744 177.26,253.94 176.34,275.19 " fill="transparent" id="logic_arc_int__baselibs__message_passing-backto-comp_arc_sta__baselibs__message_passing" style="stroke:#181818;stroke-width:1;"/><polygon fill="#181818" points="179.66,198.75,175.2741,207.5684,179.4435,203.7453,183.2666,207.9147,179.66,198.75" style="stroke:#181818;stroke-width:1;"/><text fill="#000000" font-family="sans-serif" font-size="13" lengthAdjust="spacing" textLength="76.9082" x="179.5" y="241.5669">implements</text></g><!--link Feature_User to logic_arc_int__baselibs__intrusive_list--><g id="link_Feature_User_logic_arc_int__baselibs__intrusive_list"><path codeLine="36" d="M1749.22,62.16 C1685.08,87.18 1573.8601,130.5604 1507.8701,156.2904 " fill="transparent" id="Feature_User-to-logic_arc_int__baselibs__intrusive_list" style="stroke:#181818;stroke-width:1;"/><polygon fill="#181818" points="1502.28,158.47,1512.1182,158.9273,1506.9384,156.6536,1509.2121,151.4738,1502.28,158.47" style="stroke:#181818;stroke-width:1;"/><text fill="#000000" font-family="sans-serif" font-size="13" lengthAdjust="spacing" textLength="23.0103" x="1615.5" y="124.5669">use</text></g><!--SRC=[hLLDJ-Gm3BtdLrZS1rPenG4XBaXxuiYU8xSrCuPyANPtgH3_dRGpgvqfWZ3L79qwxdj-pmuw5_zQpoySraPZ0etGHDNeeUDChN8CPiCTWIXbYZeasiRaamw0gfcRNadCZUZWwDQSex1huDNSSw2xw6A6JDqKFMouVGua0fVdFyoRkRdOtJ7OQiax-qMeVIRuBPJF00Ls1tOy06CEmbMtkWKNrznQpAtbeDOsAEIu4MjxPITMsfYeip5TGoy4nnHeMAr7UIwNAME1jolHHf-cV57SpyyalLDOzLyLtIPT0_lao5DGEGgJ9n_pO6M3fQKLF5lyWLFlS9InWcoUlXZZ8pkIeTZ5Lm1E2bLGVL1n8QWd6HcTlby7zjZ7zjbVsXWKooZa6lDk2EYdJnc7nRp_-Ur4GepnrS_5Q0wB73kGiuvyIUbWK2hKPaFr7HL7ErMgRXrtKakKCFV2VyWwbkLBvEEa7wk4BoiSrsGJYfI7ewB5_uLGuRU_ERxJk1cCgimpq0lRDrTXuluE]--></g></svg>