<svg xmlns="http://www.w3.org/2000/svg" xmlns:xlink="http://www.w3.org/1999/xlink" contentStyleType="text/css" data-diagram-type="CLASS" height="322px" preserveAspectRatio="none" style="width:6194px;height:322px;background:#FFFFFF;" version="1.1" viewBox="0 0 6194 322" width="6194px" zoomAndPan="magnify"><defs/><g><!--entity Feature_User--><g id="elem_Feature_User"><ellipse cx="2948.6685" cy="14" fill="#F1F1F1" rx="8" ry="8" style="stroke:#181818;stroke-width:0.5;"/><path d="M2948.6685,22 L2948.6685,49 M2935.6685,30 L2961.6685,30 M2948.6685,49 L2935.6685,64 M2948.6685,49 L2961.6685,64 " fill="transparent" style="stroke:#181818;stroke-width:0.5;"/><text fill="#000000" font-family="sans-serif" font-size="14" lengthAdjust="spacing" textLength="90.3369" x="2903.5" y="78.4951">Feature User</text></g><!--class comp_arc_sta__baselibs__concurrency--><g id="elem_comp_arc_sta__baselibs__concurrency"><rect fill="#F1F1F1" height="40" id="comp_arc_sta__baselibs__concurrency" rx="2.5" ry="2.5" style="stroke:#181818;stroke-width:0.5;" width="300.2012" x="2317.5" y="275.5"/><ellipse cx="2332.5" cy="291.5" fill="#ADD1B2" rx="11" ry="11" style="stroke:#181818;stroke-width:1;"/><path d="M2335.4688,297.1406 Q2334.8906,297.4375 2334.25,297.5781 Q2333.6094,297.7344 2332.9063,297.7344 Q2330.4063,297.7344 2329.0781,296.0938 Q2327.7656,294.4375 2327.7656,291.3125 Q2327.7656,288.1875 2329.0781,286.5313 Q2330.4063,284.875 2332.9063,284.875 Q2333.6094,284.875 2334.25,285.0313 Q2334.9063,285.1875 2335.4688,285.4844 L2335.4688,288.2031 Q2334.8438,287.625 2334.25,287.3594 Q2333.6563,287.0781 2333.0313,287.0781 Q2331.6875,287.0781 2331,288.1563 Q2330.3125,289.2188 2330.3125,291.3125 Q2330.3125,293.4063 2331,294.4844 Q2331.6875,295.5469 2333.0313,295.5469 Q2333.6563,295.5469 2334.25,295.2813 Q2334.8438,295 2335.4688,294.4219 L2335.4688,297.1406 Z " fill="#000000"/><text fill="#000000" font-family="sans-serif" font-size="14" lengthAdjust="spacing" textLength="268.2012" x="2346.5" y="296.3467">comp_arc_sta__baselibs__concurrency</text><line style="stroke:#181818;stroke-width:0.5;" x1="2318.5" x2="2616.7012" y1="307.5" y2="307.5"/></g><!--class logic_arc_int__baselibs__promise--><g id="elem_logic_arc_int__baselibs__promise"><rect fill="#F1F1F1" height="40" id="logic_arc_int__baselibs__promise" rx="2.5" ry="2.5" style="stroke:#181818;stroke-width:0.5;" width="261.1885" x="2216" y="158.5"/><ellipse cx="2231" cy="174.5" fill="#ADD1B2" rx="11" ry="11" style="stroke:#181818;stroke-width:1;"/><path d="M2233.9688,180.1406 Q2233.3906,180.4375 2232.75,180.5781 Q2232.1094,180.7344 2231.4063,180.7344 Q2228.9063,180.7344 2227.5781,179.0938 Q2226.2656,177.4375 2226.2656,174.3125 Q2226.2656,171.1875 2227.5781,169.5313 Q2228.9063,167.875 2231.4063,167.875 Q2232.1094,167.875 2232.75,168.0313 Q2233.4063,168.1875 2233.9688,168.4844 L2233.9688,171.2031 Q2233.3438,170.625 2232.75,170.3594 Q2232.1563,170.0781 2231.5313,170.0781 Q2230.1875,170.0781 2229.5,171.1563 Q2228.8125,172.2188 2228.8125,174.3125 Q2228.8125,176.4063 2229.5,177.4844 Q2230.1875,178.5469 2231.5313,178.5469 Q2232.1563,178.5469 2232.75,178.2813 Q2233.3438,178 2233.9688,177.4219 L2233.9688,180.1406 Z " fill="#000000"/><text fill="#000000" font-family="sans-serif" font-size="14" lengthAdjust="spacing" textLength="229.1885" x="2245" y="179.3467">logic_arc_int__baselibs__promise</text><line style="stroke:#181818;stroke-width:0.5;" x1="2217" x2="2476.1885" y1="190.5" y2="190.5"/></g><!--class logic_arc_int__baselibs__json--><g id="elem_logic_arc_int__baselibs__json"><rect fill="#F1F1F1" height="40" id="logic_arc_int__baselibs__json" rx="2.5" ry="2.5" style="stroke:#181818;stroke-width:0.5;" width="233.168" x="5950" y="158.5"/><ellipse cx="5965" cy="174.5" fill="#ADD1B2" rx="11" ry="11" style="stroke:#181818;stroke-width:1;"/><path d="M5967.9688,180.1406 Q5967.3906,180.4375 5966.75,180.5781 Q5966.1094,180.7344 5965.4063,180.7344 Q5962.9063,180.7344 5961.5781,179.0938 Q5960.2656,177.4375 5960.2656,174.3125 Q5960.2656,171.1875 5961.5781,169.5313 Q5962.9063,167.875 5965.4063,167.875 Q5966.1094,167.875 5966.75,168.0313 Q5967.4063,168.1875 5967.9688,168.4844 L5967.9688,171.2031 Q5967.3438,170.625 5966.75,170.3594 Q5966.1563,170.0781 5965.5313,170.0781 Q5964.1875,170.0781 5963.5,171.1563 Q5962.8125,172.2188 5962.8125,174.3125 Q5962.8125,176.4063 5963.5,177.4844 Q5964.1875,178.5469 5965.5313,178.5469 Q5966.1563,178.5469 5966.75,178.2813 Q5967.3438,178 5967.9688,177.4219 L5967.9688,180.1406 Z " fill="#000000"/><text fill="#000000" font-family="sans-serif" font-size="14" lengthAdjust="spacing" textLength="201.168" x="5979" y="179.3467">logic_arc_int__baselibs__json</text><line style="stroke:#181818;stroke-width:0.5;" x1="5951" x2="6182.168" y1="190.5" y2="190.5"/></g><!--class logic_arc_int__baselibs__future--><g id="elem_logic_arc_int__baselibs__future"><rect fill="#F1F1F1" height="40" id="logic_arc_int__baselibs__future" rx="2.5" ry="2.5" style="stroke:#181818;stroke-width:0.5;" width="247.0791" x="1934" y="158.5"/><ellipse cx="1949" cy="174.5" fill="#ADD1B2" rx="11" ry="11" style="stroke:#181818;stroke-width:1;"/><path d="M1951.9688,180.1406 Q1951.3906,180.4375 1950.75,180.5781 Q1950.1094,180.7344 1949.4063,180.7344 Q1946.9063,180.7344 1945.5781,179.0938 Q1944.2656,177.4375 1944.2656,174.3125 Q1944.2656,171.1875 1945.5781,169.5313 Q1946.9063,167.875 1949.4063,167.875 Q1950.1094,167.875 1950.75,168.0313 Q1951.4063,168.1875 1951.9688,168.4844 L1951.9688,171.2031 Q1951.3438,170.625 1950.75,170.3594 Q1950.1563,170.0781 1949.5313,170.0781 Q1948.1875,170.0781 1947.5,171.1563 Q1946.8125,172.2188 1946.8125,174.3125 Q1946.8125,176.4063 1947.5,177.4844 Q1948.1875,178.5469 1949.5313,178.5469 Q1950.1563,178.5469 1950.75,178.2813 Q1951.3438,178 1951.9688,177.4219 L1951.9688,180.1406 Z " fill="#000000"/><text fill="#000000" font-family="sans-serif" font-size="14" lengthAdjust="spacing" textLength="215.0791" x="1963" y="179.3467">logic_arc_int__baselibs__future</text><line style="stroke:#181818;stroke-width:0.5;" x1="1935" x2="2180.0791" y1="190.5" y2="190.5"/></g><!--class comp_arc_sta__baselibs__utils--><g id="elem_comp_arc_sta__baselibs__utils"><rect fill="#F1F1F1" height="40" id="comp_arc_sta__baselibs__utils" rx="2.5" ry="2.5" style="stroke:#181818;stroke-width:0.5;" width="242.9502" x="5439" y="275.5"/><ellipse cx="5454" cy="291.5" fill="#ADD1B2" rx="11" ry="11" style="stroke:#181818;stroke-width:1;"/><path d="M5456.9688,297.1406 Q5456.3906,297.4375 5455.75,297.5781 Q5455.1094,297.7344 5454.4063,297.7344 Q5451.9063,297.7344 5450.5781,296.0938 Q5449.2656,294.4375 5449.2656,291.3125 Q5449.2656,288.1875 5450.5781,286.5313 Q5451.9063,284.875 5454.4063,284.875 Q5455.1094,284.875 5455.75,285.0313 Q5456.4063,285.1875 5456.9688,285.4844 L5456.9688,288.2031 Q5456.3438,287.625 5455.75,287.3594 Q5455.1563,287.0781 5454.5313,287.0781 Q5453.1875,287.0781 5452.5,288.1563 Q5451.8125,289.2188 5451.8125,291.3125 Q5451.8125,293.4063 5452.5,294.4844 Q5453.1875,295.5469 5454.5313,295.5469 Q5455.1563,295.5469 5455.75,295.2813 Q5456.3438,295 5456.9688,294.4219 L5456.9688,297.1406 Z " fill="#000000"/><text fill="#000000" font-family="sans-serif" font-size="14" lengthAdjust="spacing" textLength="210.9502" x="5468" y="296.3467">comp_arc_sta__baselibs__utils</text><line style="stroke:#181818;stroke-width:0.5;" x1="5440" x2="5680.9502" y1="307.5" y2="307.5"/></g><!--class logic_arc_int__baselibs__utils_scoped_op--><g id="elem_logic_arc_int__baselibs__utils_scoped_op"><rect fill="#F1F1F1" height="40" id="logic_arc_int__baselibs__utils_scoped_op" rx="2.5" ry="2.5" style="stroke:#181818;stroke-width:0.5;" width="315.377" x="5600" y="158.5"/><ellipse cx="5615" cy="174.5" fill="#ADD1B2" rx="11" ry="11" style="stroke:#181818;stroke-width:1;"/><path d="M5617.9688,180.1406 Q5617.3906,180.4375 5616.75,180.5781 Q5616.1094,180.7344 5615.4063,180.7344 Q5612.9063,180.7344 5611.5781,179.0938 Q5610.2656,177.4375 5610.2656,174.3125 Q5610.2656,171.1875 5611.5781,169.5313 Q5612.9063,167.875 5615.4063,167.875 Q5616.1094,167.875 5616.75,168.0313 Q5617.4063,168.1875 5617.9688,168.4844 L5617.9688,171.2031 Q5617.3438,170.625 5616.75,170.3594 Q5616.1563,170.0781 5615.5313,170.0781 Q5614.1875,170.0781 5613.5,171.1563 Q5612.8125,172.2188 5612.8125,174.3125 Q5612.8125,176.4063 5613.5,177.4844 Q5614.1875,178.5469 5615.5313,178.5469 Q5616.1563,178.5469 5616.75,178.2813 Q5617.3438,178 5617.9688,177.4219 L5617.9688,180.1406 Z " fill="#000000"/><text fill="#000000" font-family="sans-serif" font-size="14" lengthAdjust="spacing" textLength="283.377" x="5629" y="179.3467">logic_arc_int__baselibs__utils_scoped_op</text><line style="stroke:#181818;stroke-width:0.5;" x1="5601" x2="5914.377" y1="190.5" y2="190.5"/></g><!--class logic_arc_int__baselibs__memory_shared--><g id="elem_logic_arc_int__baselibs__memory_shared"><rect fill="#F1F1F1" height="40" id="logic_arc_int__baselibs__memory_shared" rx="2.5" ry="2.5" style="stroke:#181818;stroke-width:0.5;" width="318.043" x="962.5" y="158.5"/><ellipse cx="977.5" cy="174.5" fill="#ADD1B2" rx="11" ry="11" style="stroke:#181818;stroke-width:1;"/><path d="M980.4688,180.1406 Q979.8906,180.4375 979.25,180.5781 Q978.6094,180.7344 977.9063,180.7344 Q975.4063,180.7344 974.0781,179.0938 Q972.7656,177.4375 972.7656,174.3125 Q972.7656,171.1875 974.0781,169.5313 Q975.4063,167.875 977.9063,167.875 Q978.6094,167.875 979.25,168.0313 Q979.9063,168.1875 980.4688,168.4844 L980.4688,171.2031 Q979.8438,170.625 979.25,170.3594 Q978.6563,170.0781 978.0313,170.0781 Q976.6875,170.0781 976,171.1563 Q975.3125,172.2188 975.3125,174.3125 Q975.3125,176.4063 976,177.4844 Q976.6875,178.5469 978.0313,178.5469 Q978.6563,178.5469 979.25,178.2813 Q979.8438,178 980.4688,177.4219 L980.4688,180.1406 Z " fill="#000000"/><text fill="#000000" font-family="sans-serif" font-size="14" lengthAdjust="spacing" textLength="286.043" x="991.5" y="179.3467">logic_arc_int__baselibs__memory_shared</text><line style="stroke:#181818;stroke-width:0.5;" x1="963.5" x2="1279.543" y1="190.5" y2="190.5"/></g><!--class comp_arc_sta__baselibs__json--><g id="elem_comp_arc_sta__baselibs__json"><rect fill="#F1F1F1" height="40" id="comp_arc_sta__baselibs__json" rx="2.5" ry="2.5" style="stroke:#181818;stroke-width:0.5;" width="242.1367" x="5945.5" y="275.5"/><ellipse cx="5960.5" cy="291.5" fill="#ADD1B2" rx="11" ry="11" style="stroke:#181818;stroke-width:1;"/><path d="M5963.4688,297.1406 Q5962.8906,297.4375 5962.25,297.5781 Q5961.6094,297.7344 5960.9063,297.7344 Q5958.4063,297.7344 5957.0781,296.0938 Q5955.7656,294.4375 5955.7656,291.3125 Q5955.7656,288.1875 5957.0781,286.5313 Q5958.4063,284.875 5960.9063,284.875 Q5961.6094,284.875 5962.25,285.0313 Q5962.9063,285.1875 5963.4688,285.4844 L5963.4688,288.2031 Q5962.8438,287.625 5962.25,287.3594 Q5961.6563,287.0781 5961.0313,287.0781 Q5959.6875,287.0781 5959,288.1563 Q5958.3125,289.2188 5958.3125,291.3125 Q5958.3125,293.4063 5959,294.4844 Q5959.6875,295.5469 5961.0313,295.5469 Q5961.6563,295.5469 5962.25,295.2813 Q5962.8438,295 5963.4688,294.4219 L5963.4688,297.1406 Z " fill="#000000"/><text fill="#000000" font-family="sans-serif" font-size="14" lengthAdjust="spacing" textLength="210.1367" x="5974.5" y="296.3467">comp_arc_sta__baselibs__json</text><line style="stroke:#181818;stroke-width:0.5;" x1="5946.5" x2="6186.6367" y1="307.5" y2="307.5"/></g><!--class comp_arc_sta__baselibs__bit_manipulation--><g id="elem_comp_arc_sta__baselibs__bit_manipulation"><rect fill="#F1F1F1" height="40" id="comp_arc_sta__baselibs__bit_manipulation" rx="2.5" ry="2.5" style="stroke:#181818;stroke-width:0.5;" width="330.8057" x="4024" y="275.5"/><ellipse cx="4039" cy="291.5" fill="#ADD1B2" rx="11" ry="11" style="stroke:#181818;stroke-width:1;"/><path d="M4041.9688,297.1406 Q4041.3906,297.4375 4040.75,297.5781 Q4040.1094,297.7344 4039.4063,297.7344 Q4036.9063,297.7344 4035.5781,296.0938 Q4034.2656,294.4375 4034.2656,291.3125 Q4034.2656,288.1875 4035.5781,286.5313 Q4036.9063,284.875 4039.4063,284.875 Q4040.1094,284.875 4040.75,285.0313 Q4041.4063,285.1875 4041.9688,285.4844 L4041.9688,288.2031 Q4041.3438,287.625 4040.75,287.3594 Q4040.1563,287.0781 4039.5313,287.0781 Q4038.1875,287.0781 4037.5,288.1563 Q4036.8125,289.2188 4036.8125,291.3125 Q4036.8125,293.4063 4037.5,294.4844 Q4038.1875,295.5469 4039.5313,295.5469 Q4040.1563,295.5469 4040.75,295.2813 Q4041.3438,295 4041.9688,294.4219 L4041.9688,297.1406 Z " fill="#000000"/><text fill="#000000" font-family="sans-serif" font-size="14" lengthAdjust="spacing" textLength="298.8057" x="4053" y="296.3467">comp_arc_sta__baselibs__bit_manipulation</text><line style="stroke:#181818;stroke-width:0.5;" x1="4025" x2="4353.8057" y1="307.5" y2="307.5"/></g><!--class logic_arc_int__baselibs__bit_manipulation--><g id="elem_logic_arc_int__baselibs__bit_manipulation"><rect fill="#F1F1F1" height="40" id="logic_arc_int__baselibs__bit_manipulation" rx="2.5" ry="2.5" style="stroke:#181818;stroke-width:0.5;" width="321.8369" x="4241.5" y="158.5"/><ellipse cx="4256.5" cy="174.5" fill="#ADD1B2" rx="11" ry="11" style="stroke:#181818;stroke-width:1;"/><path d="M4259.4688,180.1406 Q4258.8906,180.4375 4258.25,180.5781 Q4257.6094,180.7344 4256.9063,180.7344 Q4254.4063,180.7344 4253.0781,179.0938 Q4251.7656,177.4375 4251.7656,174.3125 Q4251.7656,171.1875 4253.0781,169.5313 Q4254.4063,167.875 4256.9063,167.875 Q4257.6094,167.875 4258.25,168.0313 Q4258.9063,168.1875 4259.4688,168.4844 L4259.4688,171.2031 Q4258.8438,170.625 4258.25,170.3594 Q4257.6563,170.0781 4257.0313,170.0781 Q4255.6875,170.0781 4255,171.1563 Q4254.3125,172.2188 4254.3125,174.3125 Q4254.3125,176.4063 4255,177.4844 Q4255.6875,178.5469 4257.0313,178.5469 Q4257.6563,178.5469 4258.25,178.2813 Q4258.8438,178 4259.4688,177.4219 L4259.4688,180.1406 Z " fill="#000000"/><text fill="#000000" font-family="sans-serif" font-size="14" lengthAdjust="spacing" textLength="289.8369" x="4270.5" y="179.3467">logic_arc_int__baselibs__bit_manipulation</text><line style="stroke:#181818;stroke-width:0.5;" x1="4242.5" x2="4562.3369" y1="190.5" y2="190.5"/></g><!--class logic_arc_int__baselibs__filesystem--><g id="elem_logic_arc_int__baselibs__filesystem"><rect fill="#F1F1F1" height="40" id="logic_arc_int__baselibs__filesystem" rx="2.5" ry="2.5" style="stroke:#181818;stroke-width:0.5;" width="276.4805" x="4598.5" y="158.5"/><ellipse cx="4613.5" cy="174.5" fill="#ADD1B2" rx="11" ry="11" style="stroke:#181818;stroke-width:1;"/><path d="M4616.4688,180.1406 Q4615.8906,180.4375 4615.25,180.5781 Q4614.6094,180.7344 4613.9063,180.7344 Q4611.4063,180.7344 4610.0781,179.0938 Q4608.7656,177.4375 4608.7656,174.3125 Q4608.7656,171.1875 4610.0781,169.5313 Q4611.4063,167.875 4613.9063,167.875 Q4614.6094,167.875 4615.25,168.0313 Q4615.9063,168.1875 4616.4688,168.4844 L4616.4688,171.2031 Q4615.8438,170.625 4615.25,170.3594 Q4614.6563,170.0781 4614.0313,170.0781 Q4612.6875,170.0781 4612,171.1563 Q4611.3125,172.2188 4611.3125,174.3125 Q4611.3125,176.4063 4612,177.4844 Q4612.6875,178.5469 4614.0313,178.5469 Q4614.6563,178.5469 4615.25,178.2813 Q4615.8438,178 4616.4688,177.4219 L4616.4688,180.1406 Z " fill="#000000"/><text fill="#000000" font-family="sans-serif" font-size="14" lengthAdjust="spacing" textLength="244.4805" x="4627.5" y="179.3467">logic_arc_int__baselibs__filesystem</text><line style="stroke:#181818;stroke-width:0.5;" x1="4599.5" x2="4873.9805" y1="190.5" y2="190.5"/></g><!--class logic_arc_int__baselibs__task--><g id="elem_logic_arc_int__baselibs__task"><rect fill="#F1F1F1" height="40" id="logic_arc_int__baselibs__task" rx="2.5" ry="2.5" style="stroke:#181818;stroke-width:0.5;" width="234.0156" x="2512.5" y="158.5"/><ellipse cx="2527.5" cy="174.5" fill="#ADD1B2" rx="11" ry="11" style="stroke:#181818;stroke-width:1;"/><path d="M2530.4688,180.1406 Q2529.8906,180.4375 2529.25,180.5781 Q2528.6094,180.7344 2527.9063,180.7344 Q2525.4063,180.7344 2524.0781,179.0938 Q2522.7656,177.4375 2522.7656,174.3125 Q2522.7656,171.1875 2524.0781,169.5313 Q2525.4063,167.875 2527.9063,167.875 Q2528.6094,167.875 2529.25,168.0313 Q2529.9063,168.1875 2530.4688,168.4844 L2530.4688,171.2031 Q2529.8438,170.625 2529.25,170.3594 Q2528.6563,170.0781 2528.0313,170.0781 Q2526.6875,170.0781 2526,171.1563 Q2525.3125,172.2188 2525.3125,174.3125 Q2525.3125,176.4063 2526,177.4844 Q2526.6875,178.5469 2528.0313,178.5469 Q2528.6563,178.5469 2529.25,178.2813 Q2529.8438,178 2530.4688,177.4219 L2530.4688,180.1406 Z " fill="#000000"/><text fill="#000000" font-family="sans-serif" font-size="14" lengthAdjust="spacing" textLength="202.0156" x="2541.5" y="179.3467">logic_arc_int__baselibs__task</text><line style="stroke:#181818;stroke-width:0.5;" x1="2513.5" x2="2745.5156" y1="190.5" y2="190.5"/></g><!--class logic_arc_int__baselibs__task_result--><g id="elem_logic_arc_int__baselibs__task_result"><rect fill="#F1F1F1" height="40" id="logic_arc_int__baselibs__task_result" rx="2.5" ry="2.5" style="stroke:#181818;stroke-width:0.5;" width="280.9307" x="1316" y="158.5"/><ellipse cx="1331" cy="174.5" fill="#ADD1B2" rx="11" ry="11" style="stroke:#181818;stroke-width:1;"/><path d="M1333.9688,180.1406 Q1333.3906,180.4375 1332.75,180.5781 Q1332.1094,180.7344 1331.4063,180.7344 Q1328.9063,180.7344 1327.5781,179.0938 Q1326.2656,177.4375 1326.2656,174.3125 Q1326.2656,171.1875 1327.5781,169.5313 Q1328.9063,167.875 1331.4063,167.875 Q1332.1094,167.875 1332.75,168.0313 Q1333.4063,168.1875 1333.9688,168.4844 L1333.9688,171.2031 Q1333.3438,170.625 1332.75,170.3594 Q1332.1563,170.0781 1331.5313,170.0781 Q1330.1875,170.0781 1329.5,171.1563 Q1328.8125,172.2188 1328.8125,174.3125 Q1328.8125,176.4063 1329.5,177.4844 Q1330.1875,178.5469 1331.5313,178.5469 Q1332.1563,178.5469 1332.75,178.2813 Q1333.3438,178 1333.9688,177.4219 L1333.9688,180.1406 Z " fill="#000000"/><text fill="#000000" font-family="sans-serif" font-size="14" lengthAdjust="spacing" textLength="248.9307" x="1345" y="179.3467">logic_arc_int__baselibs__task_result</text><line style="stroke:#181818;stroke-width:0.5;" x1="1317" x2="1595.9307" y1="190.5" y2="190.5"/></g><!--class comp_arc_sta__baselibs__message_passing--><g id="elem_comp_arc_sta__baselibs__message_passing"><rect fill="#F1F1F1" height="40" id="comp_arc_sta__baselibs__message_passing" rx="2.5" ry="2.5" style="stroke:#181818;stroke-width:0.5;" width="337.1357" x="4909" y="275.5"/><ellipse cx="4924" cy="291.5" fill="#ADD1B2" rx="11" ry="11" style="stroke:#181818;stroke-width:1;"/><path d="M4926.9688,297.1406 Q4926.3906,297.4375 4925.75,297.5781 Q4925.1094,297.7344 4924.4063,297.7344 Q4921.9063,297.7344 4920.5781,296.0938 Q4919.2656,294.4375 4919.2656,291.3125 Q4919.2656,288.1875 4920.5781,286.5313 Q4921.9063,284.875 4924.4063,284.875 Q4925.1094,284.875 4925.75,285.0313 Q4926.4063,285.1875 4926.9688,285.4844 L4926.9688,288.2031 Q4926.3438,287.625 4925.75,287.3594 Q4925.1563,287.0781 4924.5313,287.0781 Q4923.1875,287.0781 4922.5,288.1563 Q4921.8125,289.2188 4921.8125,291.3125 Q4921.8125,293.4063 4922.5,294.4844 Q4923.1875,295.5469 4924.5313,295.5469 Q4925.1563,295.5469 4925.75,295.2813 Q4926.3438,295 4926.9688,294.4219 L4926.9688,297.1406 Z " fill="#000000"/><text fill="#000000" font-family="sans-serif" font-size="14" lengthAdjust="spacing" textLength="305.1357" x="4938" y="296.3467">comp_arc_sta__baselibs__message_passing</text><line style="stroke:#181818;stroke-width:0.5;" x1="4910" x2="5245.1357" y1="307.5" y2="307.5"/></g><!--class logic_arc_int__baselibs__message_passing--><g id="elem_logic_arc_int__baselibs__message_passing"><rect fill="#F1F1F1" height="40" id="logic_arc_int__baselibs__message_passing" rx="2.5" ry="2.5" style="stroke:#181818;stroke-width:0.5;" width="328.167" x="4909.5" y="158.5"/><ellipse cx="4924.5" cy="174.5" fill="#ADD1B2" rx="11" ry="11" style="stroke:#181818;stroke-width:1;"/><path d="M4927.4688,180.1406 Q4926.8906,180.4375 4926.25,180.5781 Q4925.6094,180.7344 4924.9063,180.7344 Q4922.4063,180.7344 4921.0781,179.0938 Q4919.7656,177.4375 4919.7656,174.3125 Q4919.7656,171.1875 4921.0781,169.5313 Q4922.4063,167.875 4924.9063,167.875 Q4925.6094,167.875 4926.25,168.0313 Q4926.9063,168.1875 4927.4688,168.4844 L4927.4688,171.2031 Q4926.8438,170.625 4926.25,170.3594 Q4925.6563,170.0781 4925.0313,170.0781 Q4923.6875,170.0781 4923,171.1563 Q4922.3125,172.2188 4922.3125,174.3125 Q4922.3125,176.4063 4923,177.4844 Q4923.6875,178.5469 4925.0313,178.5469 Q4925.6563,178.5469 4926.25,178.2813 Q4926.8438,178 4927.4688,177.4219 L4927.4688,180.1406 Z " fill="#000000"/><text fill="#000000" font-family="sans-serif" font-size="14" lengthAdjust="spacing" textLength="296.167" x="4938.5" y="179.3467">logic_arc_int__baselibs__message_passing</text><line style="stroke:#181818;stroke-width:0.5;" x1="4910.5" x2="5236.667" y1="190.5" y2="190.5"/></g><!--class logic_arc_int__baselibs__condition_variable--><g id="elem_logic_arc_int__baselibs__condition_variable"><rect fill="#F1F1F1" height="40" id="logic_arc_int__baselibs__condition_variable" rx="2.5" ry="2.5" style="stroke:#181818;stroke-width:0.5;" width="332.7539" x="2782" y="158.5"/><ellipse cx="2797" cy="174.5" fill="#ADD1B2" rx="11" ry="11" style="stroke:#181818;stroke-width:1;"/><path d="M2799.9688,180.1406 Q2799.3906,180.4375 2798.75,180.5781 Q2798.1094,180.7344 2797.4063,180.7344 Q2794.9063,180.7344 2793.5781,179.0938 Q2792.2656,177.4375 2792.2656,174.3125 Q2792.2656,171.1875 2793.5781,169.5313 Q2794.9063,167.875 2797.4063,167.875 Q2798.1094,167.875 2798.75,168.0313 Q2799.4063,168.1875 2799.9688,168.4844 L2799.9688,171.2031 Q2799.3438,170.625 2798.75,170.3594 Q2798.1563,170.0781 2797.5313,170.0781 Q2796.1875,170.0781 2795.5,171.1563 Q2794.8125,172.2188 2794.8125,174.3125 Q2794.8125,176.4063 2795.5,177.4844 Q2796.1875,178.5469 2797.5313,178.5469 Q2798.1563,178.5469 2798.75,178.2813 Q2799.3438,178 2799.9688,177.4219 L2799.9688,180.1406 Z " fill="#000000"/><text fill="#000000" font-family="sans-serif" font-size="14" lengthAdjust="spacing" textLength="300.7539" x="2811" y="179.3467">logic_arc_int__baselibs__condition_variable</text><line style="stroke:#181818;stroke-width:0.5;" x1="2783" x2="3113.7539" y1="190.5" y2="190.5"/></g><!--class logic_arc_int__baselibs__executor--><g id="elem_logic_arc_int__baselibs__executor"><rect fill="#F1F1F1" height="40" id="logic_arc_int__baselibs__executor" rx="2.5" ry="2.5" style="stroke:#181818;stroke-width:0.5;" width="266.4385" x="1632.5" y="158.5"/><ellipse cx="1647.5" cy="174.5" fill="#ADD1B2" rx="11" ry="11" style="stroke:#181818;stroke-width:1;"/><path d="M1650.4688,180.1406 Q1649.8906,180.4375 1649.25,180.5781 Q1648.6094,180.7344 1647.9063,180.7344 Q1645.4063,180.7344 1644.0781,179.0938 Q1642.7656,177.4375 1642.7656,174.3125 Q1642.7656,171.1875 1644.0781,169.5313 Q1645.4063,167.875 1647.9063,167.875 Q1648.6094,167.875 1649.25,168.0313 Q1649.9063,168.1875 1650.4688,168.4844 L1650.4688,171.2031 Q1649.8438,170.625 1649.25,170.3594 Q1648.6563,170.0781 1648.0313,170.0781 Q1646.6875,170.0781 1646,171.1563 Q1645.3125,172.2188 1645.3125,174.3125 Q1645.3125,176.4063 1646,177.4844 Q1646.6875,178.5469 1648.0313,178.5469 Q1648.6563,178.5469 1649.25,178.2813 Q1649.8438,178 1650.4688,177.4219 L1650.4688,180.1406 Z " fill="#000000"/><text fill="#000000" font-family="sans-serif" font-size="14" lengthAdjust="spacing" textLength="234.4385" x="1661.5" y="179.3467">logic_arc_int__baselibs__executor</text><line style="stroke:#181818;stroke-width:0.5;" x1="1633.5" x2="1897.9385" y1="190.5" y2="190.5"/></g><!--class logic_arc_int__baselibs__utils_base64--><g id="elem_logic_arc_int__baselibs__utils_base64"><rect fill="#F1F1F1" height="40" id="logic_arc_int__baselibs__utils_base64" rx="2.5" ry="2.5" style="stroke:#181818;stroke-width:0.5;" width="292.1689" x="5272.5" y="158.5"/><ellipse cx="5287.5" cy="174.5" fill="#ADD1B2" rx="11" ry="11" style="stroke:#181818;stroke-width:1;"/><path d="M5290.4688,180.1406 Q5289.8906,180.4375 5289.25,180.5781 Q5288.6094,180.7344 5287.9063,180.7344 Q5285.4063,180.7344 5284.0781,179.0938 Q5282.7656,177.4375 5282.7656,174.3125 Q5282.7656,171.1875 5284.0781,169.5313 Q5285.4063,167.875 5287.9063,167.875 Q5288.6094,167.875 5289.25,168.0313 Q5289.9063,168.1875 5290.4688,168.4844 L5290.4688,171.2031 Q5289.8438,170.625 5289.25,170.3594 Q5288.6563,170.0781 5288.0313,170.0781 Q5286.6875,170.0781 5286,171.1563 Q5285.3125,172.2188 5285.3125,174.3125 Q5285.3125,176.4063 5286,177.4844 Q5286.6875,178.5469 5288.0313,178.5469 Q5288.6563,178.5469 5289.25,178.2813 Q5289.8438,178 5290.4688,177.4219 L5290.4688,180.1406 Z " fill="#000000"/><text fill="#000000" font-family="sans-serif" font-size="14" lengthAdjust="spacing" textLength="260.1689" x="5301.5" y="179.3467">logic_arc_int__baselibs__utils_base64</text><line style="stroke:#181818;stroke-width:0.5;" x1="5273.5" x2="5563.6689" y1="190.5" y2="190.5"/></g><!--class comp_arc_sta__baselibs__filesystem--><g id="elem_comp_arc_sta__baselibs__filesystem"><rect fill="#F1F1F1" height="40" id="comp_arc_sta__baselibs__filesystem" rx="2.5" ry="2.5" style="stroke:#181818;stroke-width:0.5;" width="285.4492" x="4589" y="275.5"/><ellipse cx="4604" cy="291.5" fill="#ADD1B2" rx="11" ry="11" style="stroke:#181818;stroke-width:1;"/><path d="M4606.9688,297.1406 Q4606.3906,297.4375 4605.75,297.5781 Q4605.1094,297.7344 4604.4063,297.7344 Q4601.9063,297.7344 4600.5781,296.0938 Q4599.2656,294.4375 4599.2656,291.3125 Q4599.2656,288.1875 4600.5781,286.5313 Q4601.9063,284.875 4604.4063,284.875 Q4605.1094,284.875 4605.75,285.0313 Q4606.4063,285.1875 4606.9688,285.4844 L4606.9688,288.2031 Q4606.3438,287.625 4605.75,287.3594 Q4605.1563,287.0781 4604.5313,287.0781 Q4603.1875,287.0781 4602.5,288.1563 Q4601.8125,289.2188 4601.8125,291.3125 Q4601.8125,293.4063 4602.5,294.4844 Q4603.1875,295.5469 4604.5313,295.5469 Q4605.1563,295.5469 4605.75,295.2813 Q4606.3438,295 4606.9688,294.4219 L4606.9688,297.1406 Z " fill="#000000"/><text fill="#000000" font-family="sans-serif" font-size="14" lengthAdjust="spacing" textLength="253.4492" x="4618" y="296.3467">comp_arc_sta__baselibs__filesystem</text><line style="stroke:#181818;stroke-width:0.5;" x1="4590" x2="4873.4492" y1="307.5" y2="307.5"/></g><!--class logic_arc_int__baselibs__shared_future--><g id="elem_logic_arc_int__baselibs__shared_future"><rect fill="#F1F1F1" height="40" id="logic_arc_int__baselibs__shared_future" rx="2.5" ry="2.5" style="stroke:#181818;stroke-width:0.5;" width="302.0811" x="3150.5" y="158.5"/><ellipse cx="3165.5" cy="174.5" fill="#ADD1B2" rx="11" ry="11" style="stroke:#181818;stroke-width:1;"/><path d="M3168.4688,180.1406 Q3167.8906,180.4375 3167.25,180.5781 Q3166.6094,180.7344 3165.9063,180.7344 Q3163.4063,180.7344 3162.0781,179.0938 Q3160.7656,177.4375 3160.7656,174.3125 Q3160.7656,171.1875 3162.0781,169.5313 Q3163.4063,167.875 3165.9063,167.875 Q3166.6094,167.875 3167.25,168.0313 Q3167.9063,168.1875 3168.4688,168.4844 L3168.4688,171.2031 Q3167.8438,170.625 3167.25,170.3594 Q3166.6563,170.0781 3166.0313,170.0781 Q3164.6875,170.0781 3164,171.1563 Q3163.3125,172.2188 3163.3125,174.3125 Q3163.3125,176.4063 3164,177.4844 Q3164.6875,178.5469 3166.0313,178.5469 Q3166.6563,178.5469 3167.25,178.2813 Q3167.8438,178 3168.4688,177.4219 L3168.4688,180.1406 Z " fill="#000000"/><text fill="#000000" font-family="sans-serif" font-size="14" lengthAdjust="spacing" textLength="270.0811" x="3179.5" y="179.3467">logic_arc_int__baselibs__shared_future</text><line style="stroke:#181818;stroke-width:0.5;" x1="3151.5" x2="3451.5811" y1="190.5" y2="190.5"/></g><!--class logic_arc_int__baselibs__synchronized_queue--><g id="elem_logic_arc_int__baselibs__synchronized_queue"><rect fill="#F1F1F1" height="40" id="logic_arc_int__baselibs__synchronized_queue" rx="2.5" ry="2.5" style="stroke:#181818;stroke-width:0.5;" width="348.3604" x="3487.5" y="158.5"/><ellipse cx="3502.5" cy="174.5" fill="#ADD1B2" rx="11" ry="11" style="stroke:#181818;stroke-width:1;"/><path d="M3505.4688,180.1406 Q3504.8906,180.4375 3504.25,180.5781 Q3503.6094,180.7344 3502.9063,180.7344 Q3500.4063,180.7344 3499.0781,179.0938 Q3497.7656,177.4375 3497.7656,174.3125 Q3497.7656,171.1875 3499.0781,169.5313 Q3500.4063,167.875 3502.9063,167.875 Q3503.6094,167.875 3504.25,168.0313 Q3504.9063,168.1875 3505.4688,168.4844 L3505.4688,171.2031 Q3504.8438,170.625 3504.25,170.3594 Q3503.6563,170.0781 3503.0313,170.0781 Q3501.6875,170.0781 3501,171.1563 Q3500.3125,172.2188 3500.3125,174.3125 Q3500.3125,176.4063 3501,177.4844 Q3501.6875,178.5469 3503.0313,178.5469 Q3503.6563,178.5469 3504.25,178.2813 Q3504.8438,178 3505.4688,177.4219 L3505.4688,180.1406 Z " fill="#000000"/><text fill="#000000" font-family="sans-serif" font-size="14" lengthAdjust="spacing" textLength="316.3604" x="3516.5" y="179.3467">logic_arc_int__baselibs__synchronized_queue</text><line style="stroke:#181818;stroke-width:0.5;" x1="3488.5" x2="3834.8604" y1="190.5" y2="190.5"/></g><!--class comp_arc_sta__baselibs__memory_shared--><g id="elem_comp_arc_sta__baselibs__memory_shared"><rect fill="#F1F1F1" height="40" id="comp_arc_sta__baselibs__memory_shared" rx="2.5" ry="2.5" style="stroke:#181818;stroke-width:0.5;" width="327.0117" x="958" y="275.5"/><ellipse cx="973" cy="291.5" fill="#ADD1B2" rx="11" ry="11" style="stroke:#181818;stroke-width:1;"/><path d="M975.9688,297.1406 Q975.3906,297.4375 974.75,297.5781 Q974.1094,297.7344 973.4063,297.7344 Q970.9063,297.7344 969.5781,296.0938 Q968.2656,294.4375 968.2656,291.3125 Q968.2656,288.1875 969.5781,286.5313 Q970.9063,284.875 973.4063,284.875 Q974.1094,284.875 974.75,285.0313 Q975.4063,285.1875 975.9688,285.4844 L975.9688,288.2031 Q975.3438,287.625 974.75,287.3594 Q974.1563,287.0781 973.5313,287.0781 Q972.1875,287.0781 971.5,288.1563 Q970.8125,289.2188 970.8125,291.3125 Q970.8125,293.4063 971.5,294.4844 Q972.1875,295.5469 973.5313,295.5469 Q974.1563,295.5469 974.75,295.2813 Q975.3438,295 975.9688,294.4219 L975.9688,297.1406 Z " fill="#000000"/><text fill="#000000" font-family="sans-serif" font-size="14" lengthAdjust="spacing" textLength="295.0117" x="987" y="296.3467">comp_arc_sta__baselibs__memory_shared</text><line style="stroke:#181818;stroke-width:0.5;" x1="959" x2="1284.0117" y1="307.5" y2="307.5"/></g><!--class logic_arc_int__baselibs__bit_mask_operator--><g id="elem_logic_arc_int__baselibs__bit_mask_operator"><rect fill="#F1F1F1" height="40" id="logic_arc_int__baselibs__bit_mask_operator" rx="2.5" ry="2.5" style="stroke:#181818;stroke-width:0.5;" width="334.6406" x="3871" y="158.5"/><ellipse cx="3886" cy="174.5" fill="#ADD1B2" rx="11" ry="11" style="stroke:#181818;stroke-width:1;"/><path d="M3888.9688,180.1406 Q3888.3906,180.4375 3887.75,180.5781 Q3887.1094,180.7344 3886.4063,180.7344 Q3883.9063,180.7344 3882.5781,179.0938 Q3881.2656,177.4375 3881.2656,174.3125 Q3881.2656,171.1875 3882.5781,169.5313 Q3883.9063,167.875 3886.4063,167.875 Q3887.1094,167.875 3887.75,168.0313 Q3888.4063,168.1875 3888.9688,168.4844 L3888.9688,171.2031 Q3888.3438,170.625 3887.75,170.3594 Q3887.1563,170.0781 3886.5313,170.0781 Q3885.1875,170.0781 3884.5,171.1563 Q3883.8125,172.2188 3883.8125,174.3125 Q3883.8125,176.4063 3884.5,177.4844 Q3885.1875,178.5469 3886.5313,178.5469 Q3887.1563,178.5469 3887.75,178.2813 Q3888.3438,178 3888.9688,177.4219 L3888.9688,180.1406 Z " fill="#000000"/><text fill="#000000" font-family="sans-serif" font-size="14" lengthAdjust="spacing" textLength="302.6406" x="3900" y="179.3467">logic_arc_int__baselibs__bit_mask_operator</text><line style="stroke:#181818;stroke-width:0.5;" x1="3872" x2="4204.6406" y1="190.5" y2="190.5"/></g><!--class logic_arc_int__baselibs__intrusive_list--><g id="elem_logic_arc_int__baselibs__intrusive_list"><rect fill="#F1F1F1" height="40" id="logic_arc_int__baselibs__intrusive_list" rx="2.5" ry="2.5" style="stroke:#181818;stroke-width:0.5;" width="293.0713" x="634" y="158.5"/><ellipse cx="649" cy="174.5" fill="#ADD1B2" rx="11" ry="11" style="stroke:#181818;stroke-width:1;"/><path d="M651.9688,180.1406 Q651.3906,180.4375 650.75,180.5781 Q650.1094,180.7344 649.4063,180.7344 Q646.9063,180.7344 645.5781,179.0938 Q644.2656,177.4375 644.2656,174.3125 Q644.2656,171.1875 645.5781,169.5313 Q646.9063,167.875 649.4063,167.875 Q650.1094,167.875 650.75,168.0313 Q651.4063,168.1875 651.9688,168.4844 L651.9688,171.2031 Q651.3438,170.625 650.75,170.3594 Q650.1563,170.0781 649.5313,170.0781 Q648.1875,170.0781 647.5,171.1563 Q646.8125,172.2188 646.8125,174.3125 Q646.8125,176.4063 647.5,177.4844 Q648.1875,178.5469 649.5313,178.5469 Q650.1563,178.5469 650.75,178.2813 Q651.3438,178 651.9688,177.4219 L651.9688,180.1406 Z " fill="#000000"/><text fill="#000000" font-family="sans-serif" font-size="14" lengthAdjust="spacing" textLength="261.0713" x="663" y="179.3467">logic_arc_int__baselibs__intrusive_list</text><line style="stroke:#181818;stroke-width:0.5;" x1="635" x2="926.0713" y1="190.5" y2="190.5"/></g><!--class logic_arc_int__baselibs__dynamic_array--><g id="elem_logic_arc_int__baselibs__dynamic_array"><rect fill="#F1F1F1" height="40" id="logic_arc_int__baselibs__dynamic_array" rx="2.5" ry="2.5" style="stroke:#181818;stroke-width:0.5;" width="308.3496" x="290.5" y="158.5"/><ellipse cx="305.5" cy="174.5" fill="#ADD1B2" rx="11" ry="11" style="stroke:#181818;stroke-width:1;"/><path d="M308.4688,180.1406 Q307.8906,180.4375 307.25,180.5781 Q306.6094,180.7344 305.9063,180.7344 Q303.4063,180.7344 302.0781,179.0938 Q300.7656,177.4375 300.7656,174.3125 Q300.7656,171.1875 302.0781,169.5313 Q303.4063,167.875 305.9063,167.875 Q306.6094,167.875 307.25,168.0313 Q307.9063,168.1875 308.4688,168.4844 L308.4688,171.2031 Q307.8438,170.625 307.25,170.3594 Q306.6563,170.0781 306.0313,170.0781 Q304.6875,170.0781 304,171.1563 Q303.3125,172.2188 303.3125,174.3125 Q303.3125,176.4063 304,177.4844 Q304.6875,178.5469 306.0313,178.5469 Q306.6563,178.5469 307.25,178.2813 Q307.8438,178 308.4688,177.4219 L308.4688,180.1406 Z " fill="#000000"/><text fill="#000000" font-family="sans-serif" font-size="14" lengthAdjust="spacing" textLength="276.3496" x="319.5" y="179.3467">logic_arc_int__baselibs__dynamic_array</text><line style="stroke:#181818;stroke-width:0.5;" x1="291.5" x2="597.8496" y1="190.5" y2="190.5"/></g><!--class comp_arc_sta__baselibs__containers--><g id="elem_comp_arc_sta__baselibs__containers"><rect fill="#F1F1F1" height="40" id="comp_arc_sta__baselibs__containers" rx="2.5" ry="2.5" style="stroke:#181818;stroke-width:0.5;" width="287.1445" x="468" y="275.5"/><ellipse cx="483" cy="291.5" fill="#ADD1B2" rx="11" ry="11" style="stroke:#181818;stroke-width:1;"/><path d="M485.9688,297.1406 Q485.3906,297.4375 484.75,297.5781 Q484.1094,297.7344 483.4063,297.7344 Q480.9063,297.7344 479.5781,296.0938 Q478.2656,294.4375 478.2656,291.3125 Q478.2656,288.1875 479.5781,286.5313 Q480.9063,284.875 483.4063,284.875 Q484.1094,284.875 484.75,285.0313 Q485.4063,285.1875 485.9688,285.4844 L485.9688,288.2031 Q485.3438,287.625 484.75,287.3594 Q484.1563,287.0781 483.5313,287.0781 Q482.1875,287.0781 481.5,288.1563 Q480.8125,289.2188 480.8125,291.3125 Q480.8125,293.4063 481.5,294.4844 Q482.1875,295.5469 483.5313,295.5469 Q484.1563,295.5469 484.75,295.2813 Q485.3438,295 485.9688,294.4219 L485.9688,297.1406 Z " fill="#000000"/><text fill="#000000" font-family="sans-serif" font-size="14" lengthAdjust="spacing" textLength="255.1445" x="497" y="296.3467">comp_arc_sta__baselibs__containers</text><line style="stroke:#181818;stroke-width:0.5;" x1="469" x2="754.1445" y1="307.5" y2="307.5"/></g><!--class logic_arc_int__baselibs__result--><g id="elem_logic_arc_int__baselibs__result"><rect fill="#F1F1F1" height="40" id="logic_arc_int__baselibs__result" rx="2.5" ry="2.5" style="stroke:#181818;stroke-width:0.5;" width="244.4609" x="11.5" y="158.5"/><ellipse cx="26.5" cy="174.5" fill="#ADD1B2" rx="11" ry="11" style="stroke:#181818;stroke-width:1;"/><path d="M29.4688,180.1406 Q28.8906,180.4375 28.25,180.5781 Q27.6094,180.7344 26.9063,180.7344 Q24.4063,180.7344 23.0781,179.0938 Q21.7656,177.4375 21.7656,174.3125 Q21.7656,171.1875 23.0781,169.5313 Q24.4063,167.875 26.9063,167.875 Q27.6094,167.875 28.25,168.0313 Q28.9063,168.1875 29.4688,168.4844 L29.4688,171.2031 Q28.8438,170.625 28.25,170.3594 Q27.6563,170.0781 27.0313,170.0781 Q25.6875,170.0781 25,171.1563 Q24.3125,172.2188 24.3125,174.3125 Q24.3125,176.4063 25,177.4844 Q25.6875,178.5469 27.0313,178.5469 Q27.6563,178.5469 28.25,178.2813 Q28.8438,178 29.4688,177.4219 L29.4688,180.1406 Z " fill="#000000"/><text fill="#000000" font-family="sans-serif" font-size="14" lengthAdjust="spacing" textLength="212.4609" x="40.5" y="179.3467">logic_arc_int__baselibs__result</text><line style="stroke:#181818;stroke-width:0.5;" x1="12.5" x2="254.9609" y1="190.5" y2="190.5"/></g><!--class comp_arc_sta__baselibs__result--><g id="elem_comp_arc_sta__baselibs__result"><rect fill="#F1F1F1" height="40" id="comp_arc_sta__baselibs__result" rx="2.5" ry="2.5" style="stroke:#181818;stroke-width:0.5;" width="253.4297" x="7" y="275.5"/><ellipse cx="22" cy="291.5" fill="#ADD1B2" rx="11" ry="11" style="stroke:#181818;stroke-width:1;"/><path d="M24.9688,297.1406 Q24.3906,297.4375 23.75,297.5781 Q23.1094,297.7344 22.4063,297.7344 Q19.9063,297.7344 18.5781,296.0938 Q17.2656,294.4375 17.2656,291.3125 Q17.2656,288.1875 18.5781,286.5313 Q19.9063,284.875 22.4063,284.875 Q23.1094,284.875 23.75,285.0313 Q24.4063,285.1875 24.9688,285.4844 L24.9688,288.2031 Q24.3438,287.625 23.75,287.3594 Q23.1563,287.0781 22.5313,287.0781 Q21.1875,287.0781 20.5,288.1563 Q19.8125,289.2188 19.8125,291.3125 Q19.8125,293.4063 20.5,294.4844 Q21.1875,295.5469 22.5313,295.5469 Q23.1563,295.5469 23.75,295.2813 Q24.3438,295 24.9688,294.4219 L24.9688,297.1406 Z " fill="#000000"/><text fill="#000000" font-family="sans-serif" font-size="14" lengthAdjust="spacing" textLength="221.4297" x="36" y="296.3467">comp_arc_sta__baselibs__result</text><line style="stroke:#181818;stroke-width:0.5;" x1="8" x2="259.4297" y1="307.5" y2="307.5"/></g><!--reverse link logic_arc_int__baselibs__promise to comp_arc_sta__baselibs__concurrency--><g id="link_logic_arc_int__baselibs__promise_comp_arc_sta__baselibs__concurrency"><path codeLine="15" d="M2371.0993,202.8832 C2393.4393,224.1132 2424.82,253.94 2447.18,275.19 " fill="transparent" id="logic_arc_int__baselibs__promise-backto-comp_arc_sta__baselibs__concurrency" style="stroke:#181818;stroke-width:1;"/><polygon fill="#181818" points="2366.75,198.75,2370.5185,207.8494,2370.3744,202.1943,2376.0294,202.0503,2366.75,198.75" style="stroke:#181818;stroke-width:1;"/><text fill="#000000" font-family="sans-serif" font-size="13" lengthAdjust="spacing" textLength="76.9082" x="2415.5" y="241.5669">implements</text></g><!--link Feature_User to logic_arc_int__baselibs__json--><g id="link_Feature_User_logic_arc_int__baselibs__json"><path codeLine="16" d="M2993.85,45.21 C3228.38,49.02 4327.3,68.44 5225.5,111.5 C5540.05,126.58 5619.27,125.93 5932.5,158.5 C5938.23,159.1 5938.1216,159.0443 5944.0316,159.7443 " fill="transparent" id="Feature_User-to-logic_arc_int__baselibs__json" style="stroke:#181818;stroke-width:1;"/><polygon fill="#181818" points="5949.99,160.45,5941.523,155.4192,5945.0247,159.8619,5940.582,163.3636,5949.99,160.45" style="stroke:#181818;stroke-width:1;"/><text fill="#000000" font-family="sans-serif" font-size="13" lengthAdjust="spacing" textLength="23.0103" x="5580.5" y="124.5669">use</text></g><!--reverse link logic_arc_int__baselibs__future to comp_arc_sta__baselibs__concurrency--><g id="link_logic_arc_int__baselibs__future_comp_arc_sta__baselibs__concurrency"><path codeLine="17" d="M2131.4371,200.2404 C2207.3771,221.5404 2323.65,254.15 2399.52,275.43 " fill="transparent" id="logic_arc_int__baselibs__future-backto-comp_arc_sta__baselibs__concurrency" style="stroke:#181818;stroke-width:1;"/><polygon fill="#181818" points="2125.66,198.62,2133.2453,204.9019,2130.4742,199.9703,2135.4058,197.1992,2125.66,198.62" style="stroke:#181818;stroke-width:1;"/><text fill="#000000" font-family="sans-serif" font-size="13" lengthAdjust="spacing" textLength="76.9082" x="2288.5" y="241.5669">implements</text></g><!--reverse link logic_arc_int__baselibs__utils_scoped_op to comp_arc_sta__baselibs__utils--><g id="link_logic_arc_int__baselibs__utils_scoped_op_comp_arc_sta__baselibs__utils"><path codeLine="18" d="M5719.3479,201.7743 C5682.8679,223.0643 5629.64,254.14 5593.25,275.38 " fill="transparent" id="logic_arc_int__baselibs__utils_scoped_op-backto-comp_arc_sta__baselibs__utils" style="stroke:#181818;stroke-width:1;"/><polygon fill="#181818" points="5724.53,198.75,5714.7407,199.8317,5720.2116,201.2702,5718.7731,206.7411,5724.53,198.75" style="stroke:#181818;stroke-width:1;"/><text fill="#000000" font-family="sans-serif" font-size="13" lengthAdjust="spacing" textLength="76.9082" x="5672.5" y="241.5669">implements</text></g><!--link Feature_User to logic_arc_int__baselibs__memory_shared--><g id="link_Feature_User_logic_arc_int__baselibs__memory_shared"><path codeLine="19" d="M2903.49,46.86 C2710.55,57.12 1934.35,100.01 1298.5,158.5 C1292.65,159.04 1292.6723,159.0246 1286.6523,159.6046 " fill="transparent" id="Feature_User-to-logic_arc_int__baselibs__memory_shared" style="stroke:#181818;stroke-width:1;"/><polygon fill="#181818" points="1280.68,160.18,1290.0221,163.2985,1285.657,159.7005,1289.2549,155.3353,1280.68,160.18" style="stroke:#181818;stroke-width:1;"/><text fill="#000000" font-family="sans-serif" font-size="13" lengthAdjust="spacing" textLength="23.0103" x="1843.5" y="124.5669">use</text></g><!--reverse link logic_arc_int__baselibs__json to comp_arc_sta__baselibs__json--><g id="link_logic_arc_int__baselibs__json_comp_arc_sta__baselibs__json"><path codeLine="20" d="M6066.5,204.75 C6066.5,225.98 6066.5,253.94 6066.5,275.19 " fill="transparent" id="logic_arc_int__baselibs__json-backto-comp_arc_sta__baselibs__json" style="stroke:#181818;stroke-width:1;"/><polygon fill="#181818" points="6066.5,198.75,6062.5,207.75,6066.5,203.75,6070.5,207.75,6066.5,198.75" style="stroke:#181818;stroke-width:1;"/><text fill="#000000" font-family="sans-serif" font-size="13" lengthAdjust="spacing" textLength="76.9082" x="6067.5" y="241.5669">implements</text></g><!--reverse link logic_arc_int__baselibs__bit_manipulation to comp_arc_sta__baselibs__bit_manipulation--><g id="link_logic_arc_int__baselibs__bit_manipulation_comp_arc_sta__baselibs__bit_manipulation"><path codeLine="21" d="M4361.5701,201.6001 C4322.1301,222.8901 4264.25,254.14 4224.91,275.38 " fill="transparent" id="logic_arc_int__baselibs__bit_manipulation-backto-comp_arc_sta__baselibs__bit_manipulation" style="stroke:#181818;stroke-width:1;"/><polygon fill="#181818" points="4366.85,198.75,4357.0301,199.5053,4362.4501,201.1251,4360.8303,206.5451,4366.85,198.75" style="stroke:#181818;stroke-width:1;"/><text fill="#000000" font-family="sans-serif" font-size="13" lengthAdjust="spacing" textLength="76.9082" x="4310.5" y="241.5669">implements</text></g><!--link Feature_User to logic_arc_int__baselibs__filesystem--><g id="link_Feature_User_logic_arc_int__baselibs__filesystem"><path codeLine="22" d="M2993.68,46.8 C3185.63,56.76 3952.49,98.36 4580.5,158.5 C4586.34,159.06 4586.3327,159.0345 4592.3427,159.6645 " fill="transparent" id="Feature_User-to-logic_arc_int__baselibs__filesystem" style="stroke:#181818;stroke-width:1;"/><polygon fill="#181818" points="4598.31,160.29,4589.7761,155.3735,4593.3372,159.7687,4588.942,163.3299,4598.31,160.29" style="stroke:#181818;stroke-width:1;"/><text fill="#000000" font-family="sans-serif" font-size="13" lengthAdjust="spacing" textLength="23.0103" x="4224.5" y="124.5669">use</text></g><!--link Feature_User to logic_arc_int__baselibs__task--><g id="link_Feature_User_logic_arc_int__baselibs__task"><path codeLine="23" d="M2903.47,63.27 C2842.93,88.51 2741.4279,130.8309 2680.6079,156.1909 " fill="transparent" id="Feature_User-to-logic_arc_int__baselibs__task" style="stroke:#181818;stroke-width:1;"/><polygon fill="#181818" points="2675.07,158.5,2684.9162,158.7282,2679.6849,156.5757,2681.8374,151.3444,2675.07,158.5" style="stroke:#181818;stroke-width:1;"/><text fill="#000000" font-family="sans-serif" font-size="13" lengthAdjust="spacing" textLength="23.0103" x="2780.5" y="124.5669">use</text></g><!--link Feature_User to logic_arc_int__baselibs__task_result--><g id="link_Feature_User_logic_arc_int__baselibs__task_result"><path codeLine="24" d="M2903.24,47.8 C2733.61,60.29 2119.43,106.58 1614.5,158.5 C1608.87,159.08 1609.0849,159.0421 1603.2849,159.6721 " fill="transparent" id="Feature_User-to-logic_arc_int__baselibs__task_result" style="stroke:#181818;stroke-width:1;"/><polygon fill="#181818" points="1597.32,160.32,1606.6993,163.3247,1602.2908,159.7801,1605.8354,155.3715,1597.32,160.32" style="stroke:#181818;stroke-width:1;"/><text fill="#000000" font-family="sans-serif" font-size="13" lengthAdjust="spacing" textLength="23.0103" x="2092.5" y="124.5669">use</text></g><!--reverse link logic_arc_int__baselibs__message_passing to comp_arc_sta__baselibs__message_passing--><g id="link_logic_arc_int__baselibs__message_passing_comp_arc_sta__baselibs__message_passing"><path codeLine="25" d="M5074.379,204.7464 C5075.119,225.9764 5076.09,253.94 5076.83,275.19 " fill="transparent" id="logic_arc_int__baselibs__message_passing-backto-comp_arc_sta__baselibs__message_passing" style="stroke:#181818;stroke-width:1;"/><polygon fill="#181818" points="5074.17,198.75,5070.4859,207.8839,5074.3442,203.747,5078.4811,207.6052,5074.17,198.75" style="stroke:#181818;stroke-width:1;"/><text fill="#000000" font-family="sans-serif" font-size="13" lengthAdjust="spacing" textLength="76.9082" x="5077.5" y="241.5669">implements</text></g><!--reverse link logic_arc_int__baselibs__condition_variable to comp_arc_sta__baselibs__concurrency--><g id="link_logic_arc_int__baselibs__condition_variable_comp_arc_sta__baselibs__concurrency"><path codeLine="26" d="M2862.9645,199.9453 C2773.9245,221.2353 2636.45,254.11 2547.35,275.41 " fill="transparent" id="logic_arc_int__baselibs__condition_variable-backto-comp_arc_sta__baselibs__concurrency" style="stroke:#181818;stroke-width:1;"/><polygon fill="#181818" points="2868.8,198.55,2859.1165,196.7526,2863.9371,199.7128,2860.9769,204.5333,2868.8,198.55" style="stroke:#181818;stroke-width:1;"/><text fill="#000000" font-family="sans-serif" font-size="13" lengthAdjust="spacing" textLength="76.9082" x="2738.5" y="241.5669">implements</text></g><!--link Feature_User to logic_arc_int__baselibs__future--><g id="link_Feature_User_logic_arc_int__baselibs__future"><path codeLine="27" d="M2903.4,51.23 C2771.36,70.94 2388.2142,128.1342 2187.0442,158.1642 " fill="transparent" id="Feature_User-to-logic_arc_int__baselibs__future" style="stroke:#181818;stroke-width:1;"/><polygon fill="#181818" points="2181.11,159.05,2190.6019,161.6774,2186.0552,158.3118,2189.4208,153.7651,2181.11,159.05" style="stroke:#181818;stroke-width:1;"/><text fill="#000000" font-family="sans-serif" font-size="13" lengthAdjust="spacing" textLength="23.0103" x="2477.5" y="124.5669">use</text></g><!--link Feature_User to logic_arc_int__baselibs__executor--><g id="link_Feature_User_logic_arc_int__baselibs__executor"><path codeLine="28" d="M2903.46,49.23 C2759.56,64.39 2298.02,113.43 1916.5,158.5 C1910.73,159.18 1910.7865,159.1692 1904.8365,159.8892 " fill="transparent" id="Feature_User-to-logic_arc_int__baselibs__executor" style="stroke:#181818;stroke-width:1;"/><polygon fill="#181818" points="1898.88,160.61,1908.2953,163.4998,1903.8438,160.0093,1907.3343,155.5578,1898.88,160.61" style="stroke:#181818;stroke-width:1;"/><text fill="#000000" font-family="sans-serif" font-size="13" lengthAdjust="spacing" textLength="23.0103" x="2314.5" y="124.5669">use</text></g><!--reverse link logic_arc_int__baselibs__utils_base64 to comp_arc_sta__baselibs__utils--><g id="link_logic_arc_int__baselibs__utils_base64_comp_arc_sta__baselibs__utils"><path codeLine="29" d="M5446.9324,202.5265 C5473.1424,223.7565 5510.41,253.94 5536.65,275.19 " fill="transparent" id="logic_arc_int__baselibs__utils_base64-backto-comp_arc_sta__baselibs__utils" style="stroke:#181818;stroke-width:1;"/><polygon fill="#181818" points="5442.27,198.75,5446.7459,207.523,5446.1553,201.8971,5451.7813,201.3065,5442.27,198.75" style="stroke:#181818;stroke-width:1;"/><text fill="#000000" font-family="sans-serif" font-size="13" lengthAdjust="spacing" textLength="76.9082" x="5499.5" y="241.5669">implements</text></g><!--reverse link logic_arc_int__baselibs__filesystem to comp_arc_sta__baselibs__filesystem--><g id="link_logic_arc_int__baselibs__filesystem_comp_arc_sta__baselibs__filesystem"><path codeLine="30" d="M4735.4002,204.7444 C4734.4802,225.9744 4733.26,253.94 4732.34,275.19 " fill="transparent" id="logic_arc_int__baselibs__filesystem-backto-comp_arc_sta__baselibs__filesystem" style="stroke:#181818;stroke-width:1;"/><polygon fill="#181818" points="4735.66,198.75,4731.2741,207.5684,4735.4435,203.7453,4739.2666,207.9147,4735.66,198.75" style="stroke:#181818;stroke-width:1;"/><text fill="#000000" font-family="sans-serif" font-size="13" lengthAdjust="spacing" textLength="76.9082" x="4735.5" y="241.5669">implements</text></g><!--reverse link logic_arc_int__baselibs__task_result to comp_arc_sta__baselibs__concurrency--><g id="link_logic_arc_int__baselibs__task_result_comp_arc_sta__baselibs__concurrency"><path codeLine="31" d="M1602.2072,199.314 C1705.7172,213.134 1844.32,231.07 1971.5,245.5 C2087.46,258.66 2218.91,271.55 2317.34,280.81 " fill="transparent" id="logic_arc_int__baselibs__task_result-backto-comp_arc_sta__baselibs__concurrency" style="stroke:#181818;stroke-width:1;"/><polygon fill="#181818" points="1596.26,198.52,1604.6515,203.6759,1601.216,199.1817,1605.7102,195.7462,1596.26,198.52" style="stroke:#181818;stroke-width:1;"/><text fill="#000000" font-family="sans-serif" font-size="13" lengthAdjust="spacing" textLength="76.9082" x="1972.5" y="241.5669">implements</text></g><!--link Feature_User to logic_arc_int__baselibs__shared_future--><g id="link_Feature_User_logic_arc_int__baselibs__shared_future"><path codeLine="32" d="M2993.57,61.48 C3059.55,86.34 3176.4554,130.3842 3245.3954,156.3642 " fill="transparent" id="Feature_User-to-logic_arc_int__baselibs__shared_future" style="stroke:#181818;stroke-width:1;"/><polygon fill="#181818" points="3251.01,158.48,3243.9987,151.5632,3246.3312,156.7168,3241.1776,159.0493,3251.01,158.48" style="stroke:#181818;stroke-width:1;"/><text fill="#000000" font-family="sans-serif" font-size="13" lengthAdjust="spacing" textLength="23.0103" x="3168.5" y="124.5669">use</text></g><!--reverse link logic_arc_int__baselibs__synchronized_queue to comp_arc_sta__baselibs__concurrency--><g id="link_logic_arc_int__baselibs__synchronized_queue_comp_arc_sta__baselibs__concurrency"><path codeLine="33" d="M3481.3142,199.1002 C3354.2042,212.7402 3183.72,230.63 3028.5,245.5 C2889.33,258.83 2730.59,272.56 2617.57,282.08 " fill="transparent" id="logic_arc_int__baselibs__synchronized_queue-backto-comp_arc_sta__baselibs__concurrency" style="stroke:#181818;stroke-width:1;"/><polygon fill="#181818" points="3487.28,198.46,3477.9046,195.4431,3482.3085,198.9935,3478.7582,203.3974,3487.28,198.46" style="stroke:#181818;stroke-width:1;"/><text fill="#000000" font-family="sans-serif" font-size="13" lengthAdjust="spacing" textLength="76.9082" x="3186.5" y="241.5669">implements</text></g><!--link Feature_User to logic_arc_int__baselibs__utils_base64--><g id="link_Feature_User_logic_arc_int__baselibs__utils_base64"><path codeLine="34" d="M2993.56,46.13 C3179.33,52.93 3904.01,80.11 4499.5,111.5 C4835.24,129.2 4919.62,128.7 5254.5,158.5 C5260.35,159.02 5260.3485,158.9957 5266.3785,159.5857 " fill="transparent" id="Feature_User-to-logic_arc_int__baselibs__utils_base64" style="stroke:#181818;stroke-width:1;"/><polygon fill="#181818" points="5272.35,160.17,5263.7823,155.3126,5267.3738,159.6831,5263.0033,163.2746,5272.35,160.17" style="stroke:#181818;stroke-width:1;"/><text fill="#000000" font-family="sans-serif" font-size="13" lengthAdjust="spacing" textLength="23.0103" x="4840.5" y="124.5669">use</text></g><!--link Feature_User to logic_arc_int__baselibs__bit_manipulation--><g id="link_Feature_User_logic_arc_int__baselibs__bit_manipulation"><path codeLine="35" d="M2993.7,48.27 C3158.46,62.06 3742.43,111.46 4223.5,158.5 C4229.25,159.06 4229.1406,159.035 4235.0606,159.635 " fill="transparent" id="Feature_User-to-logic_arc_int__baselibs__bit_manipulation" style="stroke:#181818;stroke-width:1;"/><polygon fill="#181818" points="4241.03,160.24,4232.4792,155.3529,4236.0555,159.7358,4231.6725,163.3121,4241.03,160.24" style="stroke:#181818;stroke-width:1;"/><text fill="#000000" font-family="sans-serif" font-size="13" lengthAdjust="spacing" textLength="23.0103" x="3874.5" y="124.5669">use</text></g><!--reverse link logic_arc_int__baselibs__memory_shared to comp_arc_sta__baselibs__memory_shared--><g id="link_logic_arc_int__baselibs__memory_shared_comp_arc_sta__baselibs__memory_shared"><path codeLine="36" d="M1121.5,204.75 C1121.5,225.98 1121.5,253.94 1121.5,275.19 " fill="transparent" id="logic_arc_int__baselibs__memory_shared-backto-comp_arc_sta__baselibs__memory_shared" style="stroke:#181818;stroke-width:1;"/><polygon fill="#181818" points="1121.5,198.75,1117.5,207.75,1121.5,203.75,1125.5,207.75,1121.5,198.75" style="stroke:#181818;stroke-width:1;"/><text fill="#000000" font-family="sans-serif" font-size="13" lengthAdjust="spacing" textLength="76.9082" x="1122.5" y="241.5669">implements</text></g><!--link Feature_User to logic_arc_int__baselibs__bit_mask_operator--><g id="link_Feature_User_logic_arc_int__baselibs__bit_mask_operator"><path codeLine="37" d="M2993.6,50 C3143.51,68.29 3623.9042,126.9132 3876.7142,157.7632 " fill="transparent" id="Feature_User-to-logic_arc_int__baselibs__bit_mask_operator" style="stroke:#181818;stroke-width:1;"/><polygon fill="#181818" points="3882.67,158.49,3874.2208,153.4293,3877.7068,157.8844,3873.2518,161.3704,3882.67,158.49" style="stroke:#181818;stroke-width:1;"/><text fill="#000000" font-family="sans-serif" font-size="13" lengthAdjust="spacing" textLength="23.0103" x="3624.5" y="124.5669">use</text></g><!--reverse link logic_arc_int__baselibs__shared_future to comp_arc_sta__baselibs__concurrency--><g id="link_logic_arc_int__baselibs__shared_future_comp_arc_sta__baselibs__concurrency"><path codeLine="38" d="M3158.0264,199.3307 C3062.5064,212.5207 2938.23,229.68 2823.5,245.5 C2751.65,255.4 2671.65,266.42 2605.71,275.49 " fill="transparent" id="logic_arc_int__baselibs__shared_future-backto-comp_arc_sta__baselibs__concurrency" style="stroke:#181818;stroke-width:1;"/><polygon fill="#181818" points="3163.97,198.51,3154.5074,195.7787,3159.017,199.1939,3155.6018,203.7035,3163.97,198.51" style="stroke:#181818;stroke-width:1;"/><text fill="#000000" font-family="sans-serif" font-size="13" lengthAdjust="spacing" textLength="76.9082" x="2943.5" y="241.5669">implements</text></g><!--link Feature_User to logic_arc_int__baselibs__synchronized_queue--><g id="link_Feature_User_logic_arc_int__baselibs__synchronized_queue"><path codeLine="39" d="M2993.64,52.92 C3106.29,73.93 3396.1218,127.9997 3553.5618,157.3697 " fill="transparent" id="Feature_User-to-logic_arc_int__baselibs__synchronized_queue" style="stroke:#181818;stroke-width:1;"/><polygon fill="#181818" points="3559.46,158.47,3551.3462,152.8874,3554.5448,157.5531,3549.8791,160.7517,3559.46,158.47" style="stroke:#181818;stroke-width:1;"/><text fill="#000000" font-family="sans-serif" font-size="13" lengthAdjust="spacing" textLength="23.0103" x="3391.5" y="124.5669">use</text></g><!--reverse link logic_arc_int__baselibs__bit_mask_operator to comp_arc_sta__baselibs__bit_manipulation--><g id="link_logic_arc_int__baselibs__bit_mask_operator_comp_arc_sta__baselibs__bit_manipulation"><path codeLine="40" d="M4068.5436,202.3849 C4096.5036,223.6749 4136.51,254.14 4164.4,275.38 " fill="transparent" id="logic_arc_int__baselibs__bit_mask_operator-backto-comp_arc_sta__baselibs__bit_manipulation" style="stroke:#181818;stroke-width:1;"/><polygon fill="#181818" points="4063.77,198.75,4068.5072,207.3847,4067.748,201.7791,4073.3537,201.0199,4063.77,198.75" style="stroke:#181818;stroke-width:1;"/><text fill="#000000" font-family="sans-serif" font-size="13" lengthAdjust="spacing" textLength="76.9082" x="4124.5" y="241.5669">implements</text></g><!--link Feature_User to logic_arc_int__baselibs__intrusive_list--><g id="link_Feature_User_logic_arc_int__baselibs__intrusive_list"><path codeLine="41" d="M2903.26,45.89 C2685.88,52.84 1727,86.29 944.5,158.5 C938.79,159.03 938.9409,159 933.0709,159.58 " fill="transparent" id="Feature_User-to-logic_arc_int__baselibs__intrusive_list" style="stroke:#181818;stroke-width:1;"/><polygon fill="#181818" points="927.1,160.17,936.4497,163.2657,932.0758,159.6784,935.6631,155.3044,927.1,160.17" style="stroke:#181818;stroke-width:1;"/><text fill="#000000" font-family="sans-serif" font-size="13" lengthAdjust="spacing" textLength="23.0103" x="1495.5" y="124.5669">use</text></g><!--link Feature_User to logic_arc_int__baselibs__dynamic_array--><g id="link_Feature_User_logic_arc_int__baselibs__dynamic_array"><path codeLine="42" d="M2903.42,45.85 C2710.17,51.74 1932.62,76.47 1294.5,111.5 C992.9,128.06 917.34,131.47 616.5,158.5 C610.67,159.02 610.6922,159.0027 604.6922,159.5827 " fill="transparent" id="Feature_User-to-logic_arc_int__baselibs__dynamic_array" style="stroke:#181818;stroke-width:1;"/><polygon fill="#181818" points="598.72,160.16,608.0631,163.2755,603.6968,159.6789,607.2934,155.3126,598.72,160.16" style="stroke:#181818;stroke-width:1;"/><text fill="#000000" font-family="sans-serif" font-size="13" lengthAdjust="spacing" textLength="23.0103" x="1295.5" y="124.5669">use</text></g><!--reverse link logic_arc_int__baselibs__executor to comp_arc_sta__baselibs__concurrency--><g id="link_logic_arc_int__baselibs__executor_comp_arc_sta__baselibs__concurrency"><path codeLine="43" d="M1880.602,199.584 C1958.082,213.004 2058.66,230.2 2152.5,245.5 C2215.04,255.7 2284.66,266.58 2342.5,275.48 " fill="transparent" id="logic_arc_int__baselibs__executor-backto-comp_arc_sta__baselibs__concurrency" style="stroke:#181818;stroke-width:1;"/><polygon fill="#181818" points="1874.69,198.56,1882.8753,204.0373,1879.6166,199.4133,1884.2406,196.1547,1874.69,198.56" style="stroke:#181818;stroke-width:1;"/><text fill="#000000" font-family="sans-serif" font-size="13" lengthAdjust="spacing" textLength="76.9082" x="2153.5" y="241.5669">implements</text></g><!--link Feature_User to logic_arc_int__baselibs__utils_scoped_op--><g id="link_Feature_User_logic_arc_int__baselibs__utils_scoped_op"><path codeLine="44" d="M2993.62,45.55 C3205.38,50.58 4121.86,73.56 4872.5,111.5 C5187.9,127.44 5266.89,131.1 5581.5,158.5 C5587.47,159.02 5587.5766,159.0057 5593.7166,159.5857 " fill="transparent" id="Feature_User-to-logic_arc_int__baselibs__utils_scoped_op" style="stroke:#181818;stroke-width:1;"/><polygon fill="#181818" points="5599.69,160.15,5591.1061,155.3213,5594.7122,159.6798,5590.3537,163.2859,5599.69,160.15" style="stroke:#181818;stroke-width:1;"/><text fill="#000000" font-family="sans-serif" font-size="13" lengthAdjust="spacing" textLength="23.0103" x="5193.5" y="124.5669">use</text></g><!--reverse link logic_arc_int__baselibs__intrusive_list to comp_arc_sta__baselibs__containers--><g id="link_logic_arc_int__baselibs__intrusive_list_comp_arc_sta__baselibs__containers"><path codeLine="45" d="M747.2494,202.1252 C715.9594,223.4152 670.81,254.14 639.6,275.38 " fill="transparent" id="logic_arc_int__baselibs__intrusive_list-backto-comp_arc_sta__baselibs__containers" style="stroke:#181818;stroke-width:1;"/><polygon fill="#181818" points="752.21,198.75,742.5189,200.5058,748.0762,201.5627,747.0192,207.1199,752.21,198.75" style="stroke:#181818;stroke-width:1;"/><text fill="#000000" font-family="sans-serif" font-size="13" lengthAdjust="spacing" textLength="76.9082" x="707.5" y="241.5669">implements</text></g><!--link Feature_User to logic_arc_int__baselibs__result--><g id="link_Feature_User_logic_arc_int__baselibs__result"><path codeLine="46" d="M2903.15,45.47 C2687.28,50.21 1742.25,72.29 968.5,111.5 C658.86,127.19 580.94,127.04 272.5,158.5 C267.05,159.06 267.4415,158.9811 261.8215,159.6211 " fill="transparent" id="Feature_User-to-logic_arc_int__baselibs__result" style="stroke:#181818;stroke-width:1;"/><polygon fill="#181818" points="255.86,160.3,265.2548,163.256,260.8279,159.7343,264.3496,155.3074,255.86,160.3" style="stroke:#181818;stroke-width:1;"/><text fill="#000000" font-family="sans-serif" font-size="13" lengthAdjust="spacing" textLength="23.0103" x="969.5" y="124.5669">use</text></g><!--reverse link logic_arc_int__baselibs__dynamic_array to comp_arc_sta__baselibs__containers--><g id="link_logic_arc_int__baselibs__dynamic_array_comp_arc_sta__baselibs__containers"><path codeLine="47" d="M477.3918,202.1527 C508.3118,223.4427 552.89,254.14 583.74,275.38 " fill="transparent" id="logic_arc_int__baselibs__dynamic_array-backto-comp_arc_sta__baselibs__containers" style="stroke:#181818;stroke-width:1;"/><polygon fill="#181818" points="472.45,198.75,477.5943,207.1486,476.5682,201.5856,482.1312,200.5595,472.45,198.75" style="stroke:#181818;stroke-width:1;"/><text fill="#000000" font-family="sans-serif" font-size="13" lengthAdjust="spacing" textLength="76.9082" x="539.5" y="241.5669">implements</text></g><!--link Feature_User to logic_arc_int__baselibs__condition_variable--><g id="link_Feature_User_logic_arc_int__baselibs__condition_variable"><path codeLine="48" d="M2948.5,81.55 C2948.5,106.45 2948.5,132.26 2948.5,152.26 " fill="transparent" id="Feature_User-to-logic_arc_int__baselibs__condition_variable" style="stroke:#181818;stroke-width:1;"/><polygon fill="#181818" points="2948.5,158.26,2952.5,149.26,2948.5,153.26,2944.5,149.26,2948.5,158.26" style="stroke:#181818;stroke-width:1;"/><text fill="#000000" font-family="sans-serif" font-size="13" lengthAdjust="spacing" textLength="23.0103" x="2949.5" y="124.5669">use</text></g><!--link Feature_User to logic_arc_int__baselibs__promise--><g id="link_Feature_User_logic_arc_int__baselibs__promise"><path codeLine="49" d="M2903.25,54.5 C2803.31,76.58 2568.1888,128.526 2438.4688,157.176 " fill="transparent" id="Feature_User-to-logic_arc_int__baselibs__promise" style="stroke:#181818;stroke-width:1;"/><polygon fill="#181818" points="2432.61,158.47,2442.2609,160.4349,2437.4923,157.3917,2440.5356,152.6232,2432.61,158.47" style="stroke:#181818;stroke-width:1;"/><text fill="#000000" font-family="sans-serif" font-size="13" lengthAdjust="spacing" textLength="23.0103" x="2630.5" y="124.5669">use</text></g><!--link Feature_User to logic_arc_int__baselibs__message_passing--><g id="link_Feature_User_logic_arc_int__baselibs__message_passing"><path codeLine="50" d="M2993.76,46.14 C3207.17,54.08 4134.22,90.96 4891.5,158.5 C4897.35,159.02 4897.3358,159.0143 4903.3558,159.5743 " fill="transparent" id="Feature_User-to-logic_arc_int__baselibs__message_passing" style="stroke:#181818;stroke-width:1;"/><polygon fill="#181818" points="4909.33,160.13,4900.7392,155.3136,4904.3515,159.6669,4899.9982,163.2792,4909.33,160.13" style="stroke:#181818;stroke-width:1;"/><text fill="#000000" font-family="sans-serif" font-size="13" lengthAdjust="spacing" textLength="23.0103" x="4467.5" y="124.5669">use</text></g><!--reverse link logic_arc_int__baselibs__task to comp_arc_sta__baselibs__concurrency--><g id="link_logic_arc_int__baselibs__task_comp_arc_sta__baselibs__concurrency"><path codeLine="51" d="M2597.4875,202.2232 C2567.4975,223.5132 2524.35,254.14 2494.43,275.38 " fill="transparent" id="logic_arc_int__baselibs__task-backto-comp_arc_sta__baselibs__concurrency" style="stroke:#181818;stroke-width:1;"/><polygon fill="#181818" points="2602.38,198.75,2592.7257,200.6981,2598.3029,201.6443,2597.3567,207.2215,2602.38,198.75" style="stroke:#181818;stroke-width:1;"/><text fill="#000000" font-family="sans-serif" font-size="13" lengthAdjust="spacing" textLength="76.9082" x="2559.5" y="241.5669">implements</text></g><!--reverse link logic_arc_int__baselibs__result to comp_arc_sta__baselibs__result--><g id="link_logic_arc_int__baselibs__result_comp_arc_sta__baselibs__result"><path codeLine="52" d="M133.5,204.75 C133.5,225.98 133.5,253.94 133.5,275.19 " fill="transparent" id="logic_arc_int__baselibs__result-backto-comp_arc_sta__baselibs__result" style="stroke:#181818;stroke-width:1;"/><polygon fill="#181818" points="133.5,198.75,129.5,207.75,133.5,203.75,137.5,207.75,133.5,198.75" style="stroke:#181818;stroke-width:1;"/><text fill="#000000" font-family="sans-serif" font-size="13" lengthAdjust="spacing" textLength="76.9082" x="134.5" y="241.5669">implements</text></g><!--SRC=[hLPDRzGm4BtxLrYzRq48SQYgNf0uSOIpvJZJxb1_uHcN1iH_nzaiTBDTwiJTevsny-QzDpFMreOVok4Z-Zl18KeEiWlCmSaU4nZ6uCKMUv34a23m465QWuiyICsSiCiC9Aw91mitub8Jsax-4f_HmyTWGv89-jtgonRDlGSY-UxohVWjhj_ipmXjkCHTV0BDEO7yIf0kf2Qvtr3ZXXJ211ULJaOHQwKwJM2n8wLCy2Qd1DuCSfCtDzA6EpIxIFHy61bJS4Xm9T552muyanIplspwbyv_e-2lP2QGPm1pcyVVph7yxzRCQAbotov6aGaHUXLYSv8EN4Y3egqkobMo7Gcfm9euMv9aXwoSzXYprQFrAXSVXpSdV8iMQ2WMT_jiLvnbJVTjfrG2ofOh1BjIB_eELDH4fKehb1n5BwDzkMDBP8yZrUf19zITRQ-al-PVonmyWicbMrHeMrulu_h3-sLCFHcbLje7ZZgl13FdD78_LVPSWjSZey6RRGeUVvQxlsV8xUQOAxFM8i_xGgN23jfTjRvchR4nlGbWqR5qwgJhPbwXmLpPLd-SKF95W4sDUvP_8zAoJ9dm0PH5ulLMwGUltUvJqiFPL7ZgKQ_o_y4ahm5ZNTvNgTRmZjbgHBTeRYq6TIH18wPJascj6Vuz3jSUV3Prp-IZwMsnP7vCabIkEpKr_W00]--></g></svg>