<svg xmlns="http://www.w3.org/2000/svg" xmlns:xlink="http://www.w3.org/1999/xlink" contentStyleType="text/css" data-diagram-type="CLASS" height="322px" preserveAspectRatio="none" style="width:6206px;height:322px;background:#FFFFFF;" version="1.1" viewBox="0 0 6206 322" width="6206px" zoomAndPan="magnify"><defs/><g><!--entity Feature_User--><g id="elem_Feature_User"><ellipse cx="3193.6685" cy="14" fill="#F1F1F1" rx="8" ry="8" style="stroke:#181818;stroke-width:0.5;"/><path d="M3193.6685,22 L3193.6685,49 M3180.6685,30 L3206.6685,30 M3193.6685,49 L3180.6685,64 M3193.6685,49 L3206.6685,64 " fill="transparent" style="stroke:#181818;stroke-width:0.5;"/><text fill="#000000" font-family="sans-serif" font-size="14" lengthAdjust="spacing" textLength="90.3369" x="3148.5" y="78.4951">Feature User</text></g><!--class logic_arc_int__baselibs__task_result--><g id="elem_logic_arc_int__baselibs__task_result"><rect fill="#F1F1F1" height="40" id="logic_arc_int__baselibs__task_result" rx="2.5" ry="2.5" style="stroke:#181818;stroke-width:0.5;" width="280.9307" x="3346" y="158.5"/><ellipse cx="3361" cy="174.5" fill="#ADD1B2" rx="11" ry="11" style="stroke:#181818;stroke-width:1;"/><path d="M3363.9688,180.1406 Q3363.3906,180.4375 3362.75,180.5781 Q3362.1094,180.7344 3361.4063,180.7344 Q3358.9063,180.7344 3357.5781,179.0938 Q3356.2656,177.4375 3356.2656,174.3125 Q3356.2656,171.1875 3357.5781,169.5313 Q3358.9063,167.875 3361.4063,167.875 Q3362.1094,167.875 3362.75,168.0313 Q3363.4063,168.1875 3363.9688,168.4844 L3363.9688,171.2031 Q3363.3438,170.625 3362.75,170.3594 Q3362.1563,170.0781 3361.5313,170.0781 Q3360.1875,170.0781 3359.5,171.1563 Q3358.8125,172.2188 3358.8125,174.3125 Q3358.8125,176.4063 3359.5,177.4844 Q3360.1875,178.5469 3361.5313,178.5469 Q3362.1563,178.5469 3362.75,178.2813 Q3363.3438,178 3363.9688,177.4219 L3363.9688,180.1406 Z " fill="#000000"/><text fill="#000000" font-family="sans-serif" font-size="14" lengthAdjust="spacing" textLength="248.9307" x="3375" y="179.3467">logic_arc_int__baselibs__task_result</text><line style="stroke:#181818;stroke-width:0.5;" x1="3347" x2="3625.9307" y1="190.5" y2="190.5"/></g><!--class logic_arc_int__baselibs__bit_manipulation--><g id="elem_logic_arc_int__baselibs__bit_manipulation"><rect fill="#F1F1F1" height="40" id="logic_arc_int__baselibs__bit_manipulation" rx="2.5" ry="2.5" style="stroke:#181818;stroke-width:0.5;" width="321.8369" x="5192.5" y="158.5"/><ellipse cx="5207.5" cy="174.5" fill="#ADD1B2" rx="11" ry="11" style="stroke:#181818;stroke-width:1;"/><path d="M5210.4688,180.1406 Q5209.8906,180.4375 5209.25,180.5781 Q5208.6094,180.7344 5207.9063,180.7344 Q5205.4063,180.7344 5204.0781,179.0938 Q5202.7656,177.4375 5202.7656,174.3125 Q5202.7656,171.1875 5204.0781,169.5313 Q5205.4063,167.875 5207.9063,167.875 Q5208.6094,167.875 5209.25,168.0313 Q5209.9063,168.1875 5210.4688,168.4844 L5210.4688,171.2031 Q5209.8438,170.625 5209.25,170.3594 Q5208.6563,170.0781 5208.0313,170.0781 Q5206.6875,170.0781 5206,171.1563 Q5205.3125,172.2188 5205.3125,174.3125 Q5205.3125,176.4063 5206,177.4844 Q5206.6875,178.5469 5208.0313,178.5469 Q5208.6563,178.5469 5209.25,178.2813 Q5209.8438,178 5210.4688,177.4219 L5210.4688,180.1406 Z " fill="#000000"/><text fill="#000000" font-family="sans-serif" font-size="14" lengthAdjust="spacing" textLength="289.8369" x="5221.5" y="179.3467">logic_arc_int__baselibs__bit_manipulation</text><line style="stroke:#181818;stroke-width:0.5;" x1="5193.5" x2="5513.3369" y1="190.5" y2="190.5"/></g><!--class logic_arc_int__baselibs__synchronized_queue--><g id="elem_logic_arc_int__baselibs__synchronized_queue"><rect fill="#F1F1F1" height="40" id="logic_arc_int__baselibs__synchronized_queue" rx="2.5" ry="2.5" style="stroke:#181818;stroke-width:0.5;" width="348.3604" x="1987.5" y="158.5"/><ellipse cx="2002.5" cy="174.5" fill="#ADD1B2" rx="11" ry="11" style="stroke:#181818;stroke-width:1;"/><path d="M2005.4688,180.1406 Q2004.8906,180.4375 2004.25,180.5781 Q2003.6094,180.7344 2002.9063,180.7344 Q2000.4063,180.7344 1999.0781,179.0938 Q1997.7656,177.4375 1997.7656,174.3125 Q1997.7656,171.1875 1999.0781,169.5313 Q2000.4063,167.875 2002.9063,167.875 Q2003.6094,167.875 2004.25,168.0313 Q2004.9063,168.1875 2005.4688,168.4844 L2005.4688,171.2031 Q2004.8438,170.625 2004.25,170.3594 Q2003.6563,170.0781 2003.0313,170.0781 Q2001.6875,170.0781 2001,171.1563 Q2000.3125,172.2188 2000.3125,174.3125 Q2000.3125,176.4063 2001,177.4844 Q2001.6875,178.5469 2003.0313,178.5469 Q2003.6563,178.5469 2004.25,178.2813 Q2004.8438,178 2005.4688,177.4219 L2005.4688,180.1406 Z " fill="#000000"/><text fill="#000000" font-family="sans-serif" font-size="14" lengthAdjust="spacing" textLength="316.3604" x="2016.5" y="179.3467">logic_arc_int__baselibs__synchronized_queue</text><line style="stroke:#181818;stroke-width:0.5;" x1="1988.5" x2="2334.8604" y1="190.5" y2="190.5"/></g><!--class comp_arc_sta__baselibs__filesystem--><g id="elem_comp_arc_sta__baselibs__filesystem"><rect fill="#F1F1F1" height="40" id="comp_arc_sta__baselibs__filesystem" rx="2.5" ry="2.5" style="stroke:#181818;stroke-width:0.5;" width="285.4492" x="5914" y="275.5"/><ellipse cx="5929" cy="291.5" fill="#ADD1B2" rx="11" ry="11" style="stroke:#181818;stroke-width:1;"/><path d="M5931.9688,297.1406 Q5931.3906,297.4375 5930.75,297.5781 Q5930.1094,297.7344 5929.4063,297.7344 Q5926.9063,297.7344 5925.5781,296.0938 Q5924.2656,294.4375 5924.2656,291.3125 Q5924.2656,288.1875 5925.5781,286.5313 Q5926.9063,284.875 5929.4063,284.875 Q5930.1094,284.875 5930.75,285.0313 Q5931.4063,285.1875 5931.9688,285.4844 L5931.9688,288.2031 Q5931.3438,287.625 5930.75,287.3594 Q5930.1563,287.0781 5929.5313,287.0781 Q5928.1875,287.0781 5927.5,288.1563 Q5926.8125,289.2188 5926.8125,291.3125 Q5926.8125,293.4063 5927.5,294.4844 Q5928.1875,295.5469 5929.5313,295.5469 Q5930.1563,295.5469 5930.75,295.2813 Q5931.3438,295 5931.9688,294.4219 L5931.9688,297.1406 Z " fill="#000000"/><text fill="#000000" font-family="sans-serif" font-size="14" lengthAdjust="spacing" textLength="253.4492" x="5943" y="296.3467">comp_arc_sta__baselibs__filesystem</text><line style="stroke:#181818;stroke-width:0.5;" x1="5915" x2="6198.4492" y1="307.5" y2="307.5"/></g><!--class logic_arc_int__baselibs__filesystem--><g id="elem_logic_arc_int__baselibs__filesystem"><rect fill="#F1F1F1" height="40" id="logic_arc_int__baselibs__filesystem" rx="2.5" ry="2.5" style="stroke:#181818;stroke-width:0.5;" width="276.4805" x="5916.5" y="158.5"/><ellipse cx="5931.5" cy="174.5" fill="#ADD1B2" rx="11" ry="11" style="stroke:#181818;stroke-width:1;"/><path d="M5934.4688,180.1406 Q5933.8906,180.4375 5933.25,180.5781 Q5932.6094,180.7344 5931.9063,180.7344 Q5929.4063,180.7344 5928.0781,179.0938 Q5926.7656,177.4375 5926.7656,174.3125 Q5926.7656,171.1875 5928.0781,169.5313 Q5929.4063,167.875 5931.9063,167.875 Q5932.6094,167.875 5933.25,168.0313 Q5933.9063,168.1875 5934.4688,168.4844 L5934.4688,171.2031 Q5933.8438,170.625 5933.25,170.3594 Q5932.6563,170.0781 5932.0313,170.0781 Q5930.6875,170.0781 5930,171.1563 Q5929.3125,172.2188 5929.3125,174.3125 Q5929.3125,176.4063 5930,177.4844 Q5930.6875,178.5469 5932.0313,178.5469 Q5932.6563,178.5469 5933.25,178.2813 Q5933.8438,178 5934.4688,177.4219 L5934.4688,180.1406 Z " fill="#000000"/><text fill="#000000" font-family="sans-serif" font-size="14" lengthAdjust="spacing" textLength="244.4805" x="5945.5" y="179.3467">logic_arc_int__baselibs__filesystem</text><line style="stroke:#181818;stroke-width:0.5;" x1="5917.5" x2="6191.9805" y1="190.5" y2="190.5"/></g><!--class logic_arc_int__baselibs__task--><g id="elem_logic_arc_int__baselibs__task"><rect fill="#F1F1F1" height="40" id="logic_arc_int__baselibs__task" rx="2.5" ry="2.5" style="stroke:#181818;stroke-width:0.5;" width="234.0156" x="3076.5" y="158.5"/><ellipse cx="3091.5" cy="174.5" fill="#ADD1B2" rx="11" ry="11" style="stroke:#181818;stroke-width:1;"/><path d="M3094.4688,180.1406 Q3093.8906,180.4375 3093.25,180.5781 Q3092.6094,180.7344 3091.9063,180.7344 Q3089.4063,180.7344 3088.0781,179.0938 Q3086.7656,177.4375 3086.7656,174.3125 Q3086.7656,171.1875 3088.0781,169.5313 Q3089.4063,167.875 3091.9063,167.875 Q3092.6094,167.875 3093.25,168.0313 Q3093.9063,168.1875 3094.4688,168.4844 L3094.4688,171.2031 Q3093.8438,170.625 3093.25,170.3594 Q3092.6563,170.0781 3092.0313,170.0781 Q3090.6875,170.0781 3090,171.1563 Q3089.3125,172.2188 3089.3125,174.3125 Q3089.3125,176.4063 3090,177.4844 Q3090.6875,178.5469 3092.0313,178.5469 Q3092.6563,178.5469 3093.25,178.2813 Q3093.8438,178 3094.4688,177.4219 L3094.4688,180.1406 Z " fill="#000000"/><text fill="#000000" font-family="sans-serif" font-size="14" lengthAdjust="spacing" textLength="202.0156" x="3105.5" y="179.3467">logic_arc_int__baselibs__task</text><line style="stroke:#181818;stroke-width:0.5;" x1="3077.5" x2="3309.5156" y1="190.5" y2="190.5"/></g><!--class logic_arc_int__baselibs__memory_shared--><g id="elem_logic_arc_int__baselibs__memory_shared"><rect fill="#F1F1F1" height="40" id="logic_arc_int__baselibs__memory_shared" rx="2.5" ry="2.5" style="stroke:#181818;stroke-width:0.5;" width="318.043" x="15.5" y="158.5"/><ellipse cx="30.5" cy="174.5" fill="#ADD1B2" rx="11" ry="11" style="stroke:#181818;stroke-width:1;"/><path d="M33.4688,180.1406 Q32.8906,180.4375 32.25,180.5781 Q31.6094,180.7344 30.9063,180.7344 Q28.4063,180.7344 27.0781,179.0938 Q25.7656,177.4375 25.7656,174.3125 Q25.7656,171.1875 27.0781,169.5313 Q28.4063,167.875 30.9063,167.875 Q31.6094,167.875 32.25,168.0313 Q32.9063,168.1875 33.4688,168.4844 L33.4688,171.2031 Q32.8438,170.625 32.25,170.3594 Q31.6563,170.0781 31.0313,170.0781 Q29.6875,170.0781 29,171.1563 Q28.3125,172.2188 28.3125,174.3125 Q28.3125,176.4063 29,177.4844 Q29.6875,178.5469 31.0313,178.5469 Q31.6563,178.5469 32.25,178.2813 Q32.8438,178 33.4688,177.4219 L33.4688,180.1406 Z " fill="#000000"/><text fill="#000000" font-family="sans-serif" font-size="14" lengthAdjust="spacing" textLength="286.043" x="44.5" y="179.3467">logic_arc_int__baselibs__memory_shared</text><line style="stroke:#181818;stroke-width:0.5;" x1="16.5" x2="332.543" y1="190.5" y2="190.5"/></g><!--class logic_arc_int__baselibs__json--><g id="elem_logic_arc_int__baselibs__json"><rect fill="#F1F1F1" height="40" id="logic_arc_int__baselibs__json" rx="2.5" ry="2.5" style="stroke:#181818;stroke-width:0.5;" width="233.168" x="370" y="158.5"/><ellipse cx="385" cy="174.5" fill="#ADD1B2" rx="11" ry="11" style="stroke:#181818;stroke-width:1;"/><path d="M387.9688,180.1406 Q387.3906,180.4375 386.75,180.5781 Q386.1094,180.7344 385.4063,180.7344 Q382.9063,180.7344 381.5781,179.0938 Q380.2656,177.4375 380.2656,174.3125 Q380.2656,171.1875 381.5781,169.5313 Q382.9063,167.875 385.4063,167.875 Q386.1094,167.875 386.75,168.0313 Q387.4063,168.1875 387.9688,168.4844 L387.9688,171.2031 Q387.3438,170.625 386.75,170.3594 Q386.1563,170.0781 385.5313,170.0781 Q384.1875,170.0781 383.5,171.1563 Q382.8125,172.2188 382.8125,174.3125 Q382.8125,176.4063 383.5,177.4844 Q384.1875,178.5469 385.5313,178.5469 Q386.1563,178.5469 386.75,178.2813 Q387.3438,178 387.9688,177.4219 L387.9688,180.1406 Z " fill="#000000"/><text fill="#000000" font-family="sans-serif" font-size="14" lengthAdjust="spacing" textLength="201.168" x="399" y="179.3467">logic_arc_int__baselibs__json</text><line style="stroke:#181818;stroke-width:0.5;" x1="371" x2="602.168" y1="190.5" y2="190.5"/></g><!--class comp_arc_sta__baselibs__message_passing--><g id="elem_comp_arc_sta__baselibs__message_passing"><rect fill="#F1F1F1" height="40" id="comp_arc_sta__baselibs__message_passing" rx="2.5" ry="2.5" style="stroke:#181818;stroke-width:0.5;" width="337.1357" x="5542" y="275.5"/><ellipse cx="5557" cy="291.5" fill="#ADD1B2" rx="11" ry="11" style="stroke:#181818;stroke-width:1;"/><path d="M5559.9688,297.1406 Q5559.3906,297.4375 5558.75,297.5781 Q5558.1094,297.7344 5557.4063,297.7344 Q5554.9063,297.7344 5553.5781,296.0938 Q5552.2656,294.4375 5552.2656,291.3125 Q5552.2656,288.1875 5553.5781,286.5313 Q5554.9063,284.875 5557.4063,284.875 Q5558.1094,284.875 5558.75,285.0313 Q5559.4063,285.1875 5559.9688,285.4844 L5559.9688,288.2031 Q5559.3438,287.625 5558.75,287.3594 Q5558.1563,287.0781 5557.5313,287.0781 Q5556.1875,287.0781 5555.5,288.1563 Q5554.8125,289.2188 5554.8125,291.3125 Q5554.8125,293.4063 5555.5,294.4844 Q5556.1875,295.5469 5557.5313,295.5469 Q5558.1563,295.5469 5558.75,295.2813 Q5559.3438,295 5559.9688,294.4219 L5559.9688,297.1406 Z " fill="#000000"/><text fill="#000000" font-family="sans-serif" font-size="14" lengthAdjust="spacing" textLength="305.1357" x="5571" y="296.3467">comp_arc_sta__baselibs__message_passing</text><line style="stroke:#181818;stroke-width:0.5;" x1="5543" x2="5878.1357" y1="307.5" y2="307.5"/></g><!--class logic_arc_int__baselibs__message_passing--><g id="elem_logic_arc_int__baselibs__message_passing"><rect fill="#F1F1F1" height="40" id="logic_arc_int__baselibs__message_passing" rx="2.5" ry="2.5" style="stroke:#181818;stroke-width:0.5;" width="328.167" x="5549.5" y="158.5"/><ellipse cx="5564.5" cy="174.5" fill="#ADD1B2" rx="11" ry="11" style="stroke:#181818;stroke-width:1;"/><path d="M5567.4688,180.1406 Q5566.8906,180.4375 5566.25,180.5781 Q5565.6094,180.7344 5564.9063,180.7344 Q5562.4063,180.7344 5561.0781,179.0938 Q5559.7656,177.4375 5559.7656,174.3125 Q5559.7656,171.1875 5561.0781,169.5313 Q5562.4063,167.875 5564.9063,167.875 Q5565.6094,167.875 5566.25,168.0313 Q5566.9063,168.1875 5567.4688,168.4844 L5567.4688,171.2031 Q5566.8438,170.625 5566.25,170.3594 Q5565.6563,170.0781 5565.0313,170.0781 Q5563.6875,170.0781 5563,171.1563 Q5562.3125,172.2188 5562.3125,174.3125 Q5562.3125,176.4063 5563,177.4844 Q5563.6875,178.5469 5565.0313,178.5469 Q5565.6563,178.5469 5566.25,178.2813 Q5566.8438,178 5567.4688,177.4219 L5567.4688,180.1406 Z " fill="#000000"/><text fill="#000000" font-family="sans-serif" font-size="14" lengthAdjust="spacing" textLength="296.167" x="5578.5" y="179.3467">logic_arc_int__baselibs__message_passing</text><line style="stroke:#181818;stroke-width:0.5;" x1="5550.5" x2="5876.667" y1="190.5" y2="190.5"/></g><!--class logic_arc_int__baselibs__shared_future--><g id="elem_logic_arc_int__baselibs__shared_future"><rect fill="#F1F1F1" height="40" id="logic_arc_int__baselibs__shared_future" rx="2.5" ry="2.5" style="stroke:#181818;stroke-width:0.5;" width="302.0811" x="2739.5" y="158.5"/><ellipse cx="2754.5" cy="174.5" fill="#ADD1B2" rx="11" ry="11" style="stroke:#181818;stroke-width:1;"/><path d="M2757.4688,180.1406 Q2756.8906,180.4375 2756.25,180.5781 Q2755.6094,180.7344 2754.9063,180.7344 Q2752.4063,180.7344 2751.0781,179.0938 Q2749.7656,177.4375 2749.7656,174.3125 Q2749.7656,171.1875 2751.0781,169.5313 Q2752.4063,167.875 2754.9063,167.875 Q2755.6094,167.875 2756.25,168.0313 Q2756.9063,168.1875 2757.4688,168.4844 L2757.4688,171.2031 Q2756.8438,170.625 2756.25,170.3594 Q2755.6563,170.0781 2755.0313,170.0781 Q2753.6875,170.0781 2753,171.1563 Q2752.3125,172.2188 2752.3125,174.3125 Q2752.3125,176.4063 2753,177.4844 Q2753.6875,178.5469 2755.0313,178.5469 Q2755.6563,178.5469 2756.25,178.2813 Q2756.8438,178 2757.4688,177.4219 L2757.4688,180.1406 Z " fill="#000000"/><text fill="#000000" font-family="sans-serif" font-size="14" lengthAdjust="spacing" textLength="270.0811" x="2768.5" y="179.3467">logic_arc_int__baselibs__shared_future</text><line style="stroke:#181818;stroke-width:0.5;" x1="2740.5" x2="3040.5811" y1="190.5" y2="190.5"/></g><!--class comp_arc_sta__baselibs__concurrency--><g id="elem_comp_arc_sta__baselibs__concurrency"><rect fill="#F1F1F1" height="40" id="comp_arc_sta__baselibs__concurrency" rx="2.5" ry="2.5" style="stroke:#181818;stroke-width:0.5;" width="300.2012" x="3146.5" y="275.5"/><ellipse cx="3161.5" cy="291.5" fill="#ADD1B2" rx="11" ry="11" style="stroke:#181818;stroke-width:1;"/><path d="M3164.4688,297.1406 Q3163.8906,297.4375 3163.25,297.5781 Q3162.6094,297.7344 3161.9063,297.7344 Q3159.4063,297.7344 3158.0781,296.0938 Q3156.7656,294.4375 3156.7656,291.3125 Q3156.7656,288.1875 3158.0781,286.5313 Q3159.4063,284.875 3161.9063,284.875 Q3162.6094,284.875 3163.25,285.0313 Q3163.9063,285.1875 3164.4688,285.4844 L3164.4688,288.2031 Q3163.8438,287.625 3163.25,287.3594 Q3162.6563,287.0781 3162.0313,287.0781 Q3160.6875,287.0781 3160,288.1563 Q3159.3125,289.2188 3159.3125,291.3125 Q3159.3125,293.4063 3160,294.4844 Q3160.6875,295.5469 3162.0313,295.5469 Q3162.6563,295.5469 3163.25,295.2813 Q3163.8438,295 3164.4688,294.4219 L3164.4688,297.1406 Z " fill="#000000"/><text fill="#000000" font-family="sans-serif" font-size="14" lengthAdjust="spacing" textLength="268.2012" x="3175.5" y="296.3467">comp_arc_sta__baselibs__concurrency</text><line style="stroke:#181818;stroke-width:0.5;" x1="3147.5" x2="3445.7012" y1="307.5" y2="307.5"/></g><!--class logic_arc_int__baselibs__promise--><g id="elem_logic_arc_int__baselibs__promise"><rect fill="#F1F1F1" height="40" id="logic_arc_int__baselibs__promise" rx="2.5" ry="2.5" style="stroke:#181818;stroke-width:0.5;" width="261.1885" x="4246" y="158.5"/><ellipse cx="4261" cy="174.5" fill="#ADD1B2" rx="11" ry="11" style="stroke:#181818;stroke-width:1;"/><path d="M4263.9688,180.1406 Q4263.3906,180.4375 4262.75,180.5781 Q4262.1094,180.7344 4261.4063,180.7344 Q4258.9063,180.7344 4257.5781,179.0938 Q4256.2656,177.4375 4256.2656,174.3125 Q4256.2656,171.1875 4257.5781,169.5313 Q4258.9063,167.875 4261.4063,167.875 Q4262.1094,167.875 4262.75,168.0313 Q4263.4063,168.1875 4263.9688,168.4844 L4263.9688,171.2031 Q4263.3438,170.625 4262.75,170.3594 Q4262.1563,170.0781 4261.5313,170.0781 Q4260.1875,170.0781 4259.5,171.1563 Q4258.8125,172.2188 4258.8125,174.3125 Q4258.8125,176.4063 4259.5,177.4844 Q4260.1875,178.5469 4261.5313,178.5469 Q4262.1563,178.5469 4262.75,178.2813 Q4263.3438,178 4263.9688,177.4219 L4263.9688,180.1406 Z " fill="#000000"/><text fill="#000000" font-family="sans-serif" font-size="14" lengthAdjust="spacing" textLength="229.1885" x="4275" y="179.3467">logic_arc_int__baselibs__promise</text><line style="stroke:#181818;stroke-width:0.5;" x1="4247" x2="4506.1885" y1="190.5" y2="190.5"/></g><!--class logic_arc_int__baselibs__utils_scoped_op--><g id="elem_logic_arc_int__baselibs__utils_scoped_op"><rect fill="#F1F1F1" height="40" id="logic_arc_int__baselibs__utils_scoped_op" rx="2.5" ry="2.5" style="stroke:#181818;stroke-width:0.5;" width="315.377" x="966" y="158.5"/><ellipse cx="981" cy="174.5" fill="#ADD1B2" rx="11" ry="11" style="stroke:#181818;stroke-width:1;"/><path d="M983.9688,180.1406 Q983.3906,180.4375 982.75,180.5781 Q982.1094,180.7344 981.4063,180.7344 Q978.9063,180.7344 977.5781,179.0938 Q976.2656,177.4375 976.2656,174.3125 Q976.2656,171.1875 977.5781,169.5313 Q978.9063,167.875 981.4063,167.875 Q982.1094,167.875 982.75,168.0313 Q983.4063,168.1875 983.9688,168.4844 L983.9688,171.2031 Q983.3438,170.625 982.75,170.3594 Q982.1563,170.0781 981.5313,170.0781 Q980.1875,170.0781 979.5,171.1563 Q978.8125,172.2188 978.8125,174.3125 Q978.8125,176.4063 979.5,177.4844 Q980.1875,178.5469 981.5313,178.5469 Q982.1563,178.5469 982.75,178.2813 Q983.3438,178 983.9688,177.4219 L983.9688,180.1406 Z " fill="#000000"/><text fill="#000000" font-family="sans-serif" font-size="14" lengthAdjust="spacing" textLength="283.377" x="995" y="179.3467">logic_arc_int__baselibs__utils_scoped_op</text><line style="stroke:#181818;stroke-width:0.5;" x1="967" x2="1280.377" y1="190.5" y2="190.5"/></g><!--class comp_arc_sta__baselibs__bit_manipulation--><g id="elem_comp_arc_sta__baselibs__bit_manipulation"><rect fill="#F1F1F1" height="40" id="comp_arc_sta__baselibs__bit_manipulation" rx="2.5" ry="2.5" style="stroke:#181818;stroke-width:0.5;" width="330.8057" x="5002" y="275.5"/><ellipse cx="5017" cy="291.5" fill="#ADD1B2" rx="11" ry="11" style="stroke:#181818;stroke-width:1;"/><path d="M5019.9688,297.1406 Q5019.3906,297.4375 5018.75,297.5781 Q5018.1094,297.7344 5017.4063,297.7344 Q5014.9063,297.7344 5013.5781,296.0938 Q5012.2656,294.4375 5012.2656,291.3125 Q5012.2656,288.1875 5013.5781,286.5313 Q5014.9063,284.875 5017.4063,284.875 Q5018.1094,284.875 5018.75,285.0313 Q5019.4063,285.1875 5019.9688,285.4844 L5019.9688,288.2031 Q5019.3438,287.625 5018.75,287.3594 Q5018.1563,287.0781 5017.5313,287.0781 Q5016.1875,287.0781 5015.5,288.1563 Q5014.8125,289.2188 5014.8125,291.3125 Q5014.8125,293.4063 5015.5,294.4844 Q5016.1875,295.5469 5017.5313,295.5469 Q5018.1563,295.5469 5018.75,295.2813 Q5019.3438,295 5019.9688,294.4219 L5019.9688,297.1406 Z " fill="#000000"/><text fill="#000000" font-family="sans-serif" font-size="14" lengthAdjust="spacing" textLength="298.8057" x="5031" y="296.3467">comp_arc_sta__baselibs__bit_manipulation</text><line style="stroke:#181818;stroke-width:0.5;" x1="5003" x2="5331.8057" y1="307.5" y2="307.5"/></g><!--class logic_arc_int__baselibs__bit_mask_operator--><g id="elem_logic_arc_int__baselibs__bit_mask_operator"><rect fill="#F1F1F1" height="40" id="logic_arc_int__baselibs__bit_mask_operator" rx="2.5" ry="2.5" style="stroke:#181818;stroke-width:0.5;" width="334.6406" x="4822" y="158.5"/><ellipse cx="4837" cy="174.5" fill="#ADD1B2" rx="11" ry="11" style="stroke:#181818;stroke-width:1;"/><path d="M4839.9688,180.1406 Q4839.3906,180.4375 4838.75,180.5781 Q4838.1094,180.7344 4837.4063,180.7344 Q4834.9063,180.7344 4833.5781,179.0938 Q4832.2656,177.4375 4832.2656,174.3125 Q4832.2656,171.1875 4833.5781,169.5313 Q4834.9063,167.875 4837.4063,167.875 Q4838.1094,167.875 4838.75,168.0313 Q4839.4063,168.1875 4839.9688,168.4844 L4839.9688,171.2031 Q4839.3438,170.625 4838.75,170.3594 Q4838.1563,170.0781 4837.5313,170.0781 Q4836.1875,170.0781 4835.5,171.1563 Q4834.8125,172.2188 4834.8125,174.3125 Q4834.8125,176.4063 4835.5,177.4844 Q4836.1875,178.5469 4837.5313,178.5469 Q4838.1563,178.5469 4838.75,178.2813 Q4839.3438,178 4839.9688,177.4219 L4839.9688,180.1406 Z " fill="#000000"/><text fill="#000000" font-family="sans-serif" font-size="14" lengthAdjust="spacing" textLength="302.6406" x="4851" y="179.3467">logic_arc_int__baselibs__bit_mask_operator</text><line style="stroke:#181818;stroke-width:0.5;" x1="4823" x2="5155.6406" y1="190.5" y2="190.5"/></g><!--class logic_arc_int__baselibs__dynamic_array--><g id="elem_logic_arc_int__baselibs__dynamic_array"><rect fill="#F1F1F1" height="40" id="logic_arc_int__baselibs__dynamic_array" rx="2.5" ry="2.5" style="stroke:#181818;stroke-width:0.5;" width="308.3496" x="1644.5" y="158.5"/><ellipse cx="1659.5" cy="174.5" fill="#ADD1B2" rx="11" ry="11" style="stroke:#181818;stroke-width:1;"/><path d="M1662.4688,180.1406 Q1661.8906,180.4375 1661.25,180.5781 Q1660.6094,180.7344 1659.9063,180.7344 Q1657.4063,180.7344 1656.0781,179.0938 Q1654.7656,177.4375 1654.7656,174.3125 Q1654.7656,171.1875 1656.0781,169.5313 Q1657.4063,167.875 1659.9063,167.875 Q1660.6094,167.875 1661.25,168.0313 Q1661.9063,168.1875 1662.4688,168.4844 L1662.4688,171.2031 Q1661.8438,170.625 1661.25,170.3594 Q1660.6563,170.0781 1660.0313,170.0781 Q1658.6875,170.0781 1658,171.1563 Q1657.3125,172.2188 1657.3125,174.3125 Q1657.3125,176.4063 1658,177.4844 Q1658.6875,178.5469 1660.0313,178.5469 Q1660.6563,178.5469 1661.25,178.2813 Q1661.8438,178 1662.4688,177.4219 L1662.4688,180.1406 Z " fill="#000000"/><text fill="#000000" font-family="sans-serif" font-size="14" lengthAdjust="spacing" textLength="276.3496" x="1673.5" y="179.3467">logic_arc_int__baselibs__dynamic_array</text><line style="stroke:#181818;stroke-width:0.5;" x1="1645.5" x2="1951.8496" y1="190.5" y2="190.5"/></g><!--class logic_arc_int__baselibs__future--><g id="elem_logic_arc_int__baselibs__future"><rect fill="#F1F1F1" height="40" id="logic_arc_int__baselibs__future" rx="2.5" ry="2.5" style="stroke:#181818;stroke-width:0.5;" width="247.0791" x="3662" y="158.5"/><ellipse cx="3677" cy="174.5" fill="#ADD1B2" rx="11" ry="11" style="stroke:#181818;stroke-width:1;"/><path d="M3679.9688,180.1406 Q3679.3906,180.4375 3678.75,180.5781 Q3678.1094,180.7344 3677.4063,180.7344 Q3674.9063,180.7344 3673.5781,179.0938 Q3672.2656,177.4375 3672.2656,174.3125 Q3672.2656,171.1875 3673.5781,169.5313 Q3674.9063,167.875 3677.4063,167.875 Q3678.1094,167.875 3678.75,168.0313 Q3679.4063,168.1875 3679.9688,168.4844 L3679.9688,171.2031 Q3679.3438,170.625 3678.75,170.3594 Q3678.1563,170.0781 3677.5313,170.0781 Q3676.1875,170.0781 3675.5,171.1563 Q3674.8125,172.2188 3674.8125,174.3125 Q3674.8125,176.4063 3675.5,177.4844 Q3676.1875,178.5469 3677.5313,178.5469 Q3678.1563,178.5469 3678.75,178.2813 Q3679.3438,178 3679.9688,177.4219 L3679.9688,180.1406 Z " fill="#000000"/><text fill="#000000" font-family="sans-serif" font-size="14" lengthAdjust="spacing" textLength="215.0791" x="3691" y="179.3467">logic_arc_int__baselibs__future</text><line style="stroke:#181818;stroke-width:0.5;" x1="3663" x2="3908.0791" y1="190.5" y2="190.5"/></g><!--class comp_arc_sta__baselibs__utils--><g id="elem_comp_arc_sta__baselibs__utils"><rect fill="#F1F1F1" height="40" id="comp_arc_sta__baselibs__utils" rx="2.5" ry="2.5" style="stroke:#181818;stroke-width:0.5;" width="242.9502" x="778" y="275.5"/><ellipse cx="793" cy="291.5" fill="#ADD1B2" rx="11" ry="11" style="stroke:#181818;stroke-width:1;"/><path d="M795.9688,297.1406 Q795.3906,297.4375 794.75,297.5781 Q794.1094,297.7344 793.4063,297.7344 Q790.9063,297.7344 789.5781,296.0938 Q788.2656,294.4375 788.2656,291.3125 Q788.2656,288.1875 789.5781,286.5313 Q790.9063,284.875 793.4063,284.875 Q794.1094,284.875 794.75,285.0313 Q795.4063,285.1875 795.9688,285.4844 L795.9688,288.2031 Q795.3438,287.625 794.75,287.3594 Q794.1563,287.0781 793.5313,287.0781 Q792.1875,287.0781 791.5,288.1563 Q790.8125,289.2188 790.8125,291.3125 Q790.8125,293.4063 791.5,294.4844 Q792.1875,295.5469 793.5313,295.5469 Q794.1563,295.5469 794.75,295.2813 Q795.3438,295 795.9688,294.4219 L795.9688,297.1406 Z " fill="#000000"/><text fill="#000000" font-family="sans-serif" font-size="14" lengthAdjust="spacing" textLength="210.9502" x="807" y="296.3467">comp_arc_sta__baselibs__utils</text><line style="stroke:#181818;stroke-width:0.5;" x1="779" x2="1019.9502" y1="307.5" y2="307.5"/></g><!--class logic_arc_int__baselibs__utils_base64--><g id="elem_logic_arc_int__baselibs__utils_base64"><rect fill="#F1F1F1" height="40" id="logic_arc_int__baselibs__utils_base64" rx="2.5" ry="2.5" style="stroke:#181818;stroke-width:0.5;" width="292.1689" x="638.5" y="158.5"/><ellipse cx="653.5" cy="174.5" fill="#ADD1B2" rx="11" ry="11" style="stroke:#181818;stroke-width:1;"/><path d="M656.4688,180.1406 Q655.8906,180.4375 655.25,180.5781 Q654.6094,180.7344 653.9063,180.7344 Q651.4063,180.7344 650.0781,179.0938 Q648.7656,177.4375 648.7656,174.3125 Q648.7656,171.1875 650.0781,169.5313 Q651.4063,167.875 653.9063,167.875 Q654.6094,167.875 655.25,168.0313 Q655.9063,168.1875 656.4688,168.4844 L656.4688,171.2031 Q655.8438,170.625 655.25,170.3594 Q654.6563,170.0781 654.0313,170.0781 Q652.6875,170.0781 652,171.1563 Q651.3125,172.2188 651.3125,174.3125 Q651.3125,176.4063 652,177.4844 Q652.6875,178.5469 654.0313,178.5469 Q654.6563,178.5469 655.25,178.2813 Q655.8438,178 656.4688,177.4219 L656.4688,180.1406 Z " fill="#000000"/><text fill="#000000" font-family="sans-serif" font-size="14" lengthAdjust="spacing" textLength="260.1689" x="667.5" y="179.3467">logic_arc_int__baselibs__utils_base64</text><line style="stroke:#181818;stroke-width:0.5;" x1="639.5" x2="929.6689" y1="190.5" y2="190.5"/></g><!--class logic_arc_int__baselibs__result--><g id="elem_logic_arc_int__baselibs__result"><rect fill="#F1F1F1" height="40" id="logic_arc_int__baselibs__result" rx="2.5" ry="2.5" style="stroke:#181818;stroke-width:0.5;" width="244.4609" x="4542.5" y="158.5"/><ellipse cx="4557.5" cy="174.5" fill="#ADD1B2" rx="11" ry="11" style="stroke:#181818;stroke-width:1;"/><path d="M4560.4688,180.1406 Q4559.8906,180.4375 4559.25,180.5781 Q4558.6094,180.7344 4557.9063,180.7344 Q4555.4063,180.7344 4554.0781,179.0938 Q4552.7656,177.4375 4552.7656,174.3125 Q4552.7656,171.1875 4554.0781,169.5313 Q4555.4063,167.875 4557.9063,167.875 Q4558.6094,167.875 4559.25,168.0313 Q4559.9063,168.1875 4560.4688,168.4844 L4560.4688,171.2031 Q4559.8438,170.625 4559.25,170.3594 Q4558.6563,170.0781 4558.0313,170.0781 Q4556.6875,170.0781 4556,171.1563 Q4555.3125,172.2188 4555.3125,174.3125 Q4555.3125,176.4063 4556,177.4844 Q4556.6875,178.5469 4558.0313,178.5469 Q4558.6563,178.5469 4559.25,178.2813 Q4559.8438,178 4560.4688,177.4219 L4560.4688,180.1406 Z " fill="#000000"/><text fill="#000000" font-family="sans-serif" font-size="14" lengthAdjust="spacing" textLength="212.4609" x="4571.5" y="179.3467">logic_arc_int__baselibs__result</text><line style="stroke:#181818;stroke-width:0.5;" x1="4543.5" x2="4785.9609" y1="190.5" y2="190.5"/></g><!--class comp_arc_sta__baselibs__containers--><g id="elem_comp_arc_sta__baselibs__containers"><rect fill="#F1F1F1" height="40" id="comp_arc_sta__baselibs__containers" rx="2.5" ry="2.5" style="stroke:#181818;stroke-width:0.5;" width="287.1445" x="1460" y="275.5"/><ellipse cx="1475" cy="291.5" fill="#ADD1B2" rx="11" ry="11" style="stroke:#181818;stroke-width:1;"/><path d="M1477.9688,297.1406 Q1477.3906,297.4375 1476.75,297.5781 Q1476.1094,297.7344 1475.4063,297.7344 Q1472.9063,297.7344 1471.5781,296.0938 Q1470.2656,294.4375 1470.2656,291.3125 Q1470.2656,288.1875 1471.5781,286.5313 Q1472.9063,284.875 1475.4063,284.875 Q1476.1094,284.875 1476.75,285.0313 Q1477.4063,285.1875 1477.9688,285.4844 L1477.9688,288.2031 Q1477.3438,287.625 1476.75,287.3594 Q1476.1563,287.0781 1475.5313,287.0781 Q1474.1875,287.0781 1473.5,288.1563 Q1472.8125,289.2188 1472.8125,291.3125 Q1472.8125,293.4063 1473.5,294.4844 Q1474.1875,295.5469 1475.5313,295.5469 Q1476.1563,295.5469 1476.75,295.2813 Q1477.3438,295 1477.9688,294.4219 L1477.9688,297.1406 Z " fill="#000000"/><text fill="#000000" font-family="sans-serif" font-size="14" lengthAdjust="spacing" textLength="255.1445" x="1489" y="296.3467">comp_arc_sta__baselibs__containers</text><line style="stroke:#181818;stroke-width:0.5;" x1="1461" x2="1746.1445" y1="307.5" y2="307.5"/></g><!--class comp_arc_sta__baselibs__result--><g id="elem_comp_arc_sta__baselibs__result"><rect fill="#F1F1F1" height="40" id="comp_arc_sta__baselibs__result" rx="2.5" ry="2.5" style="stroke:#181818;stroke-width:0.5;" width="253.4297" x="4538" y="275.5"/><ellipse cx="4553" cy="291.5" fill="#ADD1B2" rx="11" ry="11" style="stroke:#181818;stroke-width:1;"/><path d="M4555.9688,297.1406 Q4555.3906,297.4375 4554.75,297.5781 Q4554.1094,297.7344 4553.4063,297.7344 Q4550.9063,297.7344 4549.5781,296.0938 Q4548.2656,294.4375 4548.2656,291.3125 Q4548.2656,288.1875 4549.5781,286.5313 Q4550.9063,284.875 4553.4063,284.875 Q4554.1094,284.875 4554.75,285.0313 Q4555.4063,285.1875 4555.9688,285.4844 L4555.9688,288.2031 Q4555.3438,287.625 4554.75,287.3594 Q4554.1563,287.0781 4553.5313,287.0781 Q4552.1875,287.0781 4551.5,288.1563 Q4550.8125,289.2188 4550.8125,291.3125 Q4550.8125,293.4063 4551.5,294.4844 Q4552.1875,295.5469 4553.5313,295.5469 Q4554.1563,295.5469 4554.75,295.2813 Q4555.3438,295 4555.9688,294.4219 L4555.9688,297.1406 Z " fill="#000000"/><text fill="#000000" font-family="sans-serif" font-size="14" lengthAdjust="spacing" textLength="221.4297" x="4567" y="296.3467">comp_arc_sta__baselibs__result</text><line style="stroke:#181818;stroke-width:0.5;" x1="4539" x2="4790.4297" y1="307.5" y2="307.5"/></g><!--class logic_arc_int__baselibs__intrusive_list--><g id="elem_logic_arc_int__baselibs__intrusive_list"><rect fill="#F1F1F1" height="40" id="logic_arc_int__baselibs__intrusive_list" rx="2.5" ry="2.5" style="stroke:#181818;stroke-width:0.5;" width="293.0713" x="1316" y="158.5"/><ellipse cx="1331" cy="174.5" fill="#ADD1B2" rx="11" ry="11" style="stroke:#181818;stroke-width:1;"/><path d="M1333.9688,180.1406 Q1333.3906,180.4375 1332.75,180.5781 Q1332.1094,180.7344 1331.4063,180.7344 Q1328.9063,180.7344 1327.5781,179.0938 Q1326.2656,177.4375 1326.2656,174.3125 Q1326.2656,171.1875 1327.5781,169.5313 Q1328.9063,167.875 1331.4063,167.875 Q1332.1094,167.875 1332.75,168.0313 Q1333.4063,168.1875 1333.9688,168.4844 L1333.9688,171.2031 Q1333.3438,170.625 1332.75,170.3594 Q1332.1563,170.0781 1331.5313,170.0781 Q1330.1875,170.0781 1329.5,171.1563 Q1328.8125,172.2188 1328.8125,174.3125 Q1328.8125,176.4063 1329.5,177.4844 Q1330.1875,178.5469 1331.5313,178.5469 Q1332.1563,178.5469 1332.75,178.2813 Q1333.3438,178 1333.9688,177.4219 L1333.9688,180.1406 Z " fill="#000000"/><text fill="#000000" font-family="sans-serif" font-size="14" lengthAdjust="spacing" textLength="261.0713" x="1345" y="179.3467">logic_arc_int__baselibs__intrusive_list</text><line style="stroke:#181818;stroke-width:0.5;" x1="1317" x2="1608.0713" y1="190.5" y2="190.5"/></g><!--class logic_arc_int__baselibs__condition_variable--><g id="elem_logic_arc_int__baselibs__condition_variable"><rect fill="#F1F1F1" height="40" id="logic_arc_int__baselibs__condition_variable" rx="2.5" ry="2.5" style="stroke:#181818;stroke-width:0.5;" width="332.7539" x="2371" y="158.5"/><ellipse cx="2386" cy="174.5" fill="#ADD1B2" rx="11" ry="11" style="stroke:#181818;stroke-width:1;"/><path d="M2388.9688,180.1406 Q2388.3906,180.4375 2387.75,180.5781 Q2387.1094,180.7344 2386.4063,180.7344 Q2383.9063,180.7344 2382.5781,179.0938 Q2381.2656,177.4375 2381.2656,174.3125 Q2381.2656,171.1875 2382.5781,169.5313 Q2383.9063,167.875 2386.4063,167.875 Q2387.1094,167.875 2387.75,168.0313 Q2388.4063,168.1875 2388.9688,168.4844 L2388.9688,171.2031 Q2388.3438,170.625 2387.75,170.3594 Q2387.1563,170.0781 2386.5313,170.0781 Q2385.1875,170.0781 2384.5,171.1563 Q2383.8125,172.2188 2383.8125,174.3125 Q2383.8125,176.4063 2384.5,177.4844 Q2385.1875,178.5469 2386.5313,178.5469 Q2387.1563,178.5469 2387.75,178.2813 Q2388.3438,178 2388.9688,177.4219 L2388.9688,180.1406 Z " fill="#000000"/><text fill="#000000" font-family="sans-serif" font-size="14" lengthAdjust="spacing" textLength="300.7539" x="2400" y="179.3467">logic_arc_int__baselibs__condition_variable</text><line style="stroke:#181818;stroke-width:0.5;" x1="2372" x2="2702.7539" y1="190.5" y2="190.5"/></g><!--class logic_arc_int__baselibs__executor--><g id="elem_logic_arc_int__baselibs__executor"><rect fill="#F1F1F1" height="40" id="logic_arc_int__baselibs__executor" rx="2.5" ry="2.5" style="stroke:#181818;stroke-width:0.5;" width="266.4385" x="3944.5" y="158.5"/><ellipse cx="3959.5" cy="174.5" fill="#ADD1B2" rx="11" ry="11" style="stroke:#181818;stroke-width:1;"/><path d="M3962.4688,180.1406 Q3961.8906,180.4375 3961.25,180.5781 Q3960.6094,180.7344 3959.9063,180.7344 Q3957.4063,180.7344 3956.0781,179.0938 Q3954.7656,177.4375 3954.7656,174.3125 Q3954.7656,171.1875 3956.0781,169.5313 Q3957.4063,167.875 3959.9063,167.875 Q3960.6094,167.875 3961.25,168.0313 Q3961.9063,168.1875 3962.4688,168.4844 L3962.4688,171.2031 Q3961.8438,170.625 3961.25,170.3594 Q3960.6563,170.0781 3960.0313,170.0781 Q3958.6875,170.0781 3958,171.1563 Q3957.3125,172.2188 3957.3125,174.3125 Q3957.3125,176.4063 3958,177.4844 Q3958.6875,178.5469 3960.0313,178.5469 Q3960.6563,178.5469 3961.25,178.2813 Q3961.8438,178 3962.4688,177.4219 L3962.4688,180.1406 Z " fill="#000000"/><text fill="#000000" font-family="sans-serif" font-size="14" lengthAdjust="spacing" textLength="234.4385" x="3973.5" y="179.3467">logic_arc_int__baselibs__executor</text><line style="stroke:#181818;stroke-width:0.5;" x1="3945.5" x2="4209.9385" y1="190.5" y2="190.5"/></g><!--class comp_arc_sta__baselibs__json--><g id="elem_comp_arc_sta__baselibs__json"><rect fill="#F1F1F1" height="40" id="comp_arc_sta__baselibs__json" rx="2.5" ry="2.5" style="stroke:#181818;stroke-width:0.5;" width="242.1367" x="368.5" y="275.5"/><ellipse cx="383.5" cy="291.5" fill="#ADD1B2" rx="11" ry="11" style="stroke:#181818;stroke-width:1;"/><path d="M386.4688,297.1406 Q385.8906,297.4375 385.25,297.5781 Q384.6094,297.7344 383.9063,297.7344 Q381.4063,297.7344 380.0781,296.0938 Q378.7656,294.4375 378.7656,291.3125 Q378.7656,288.1875 380.0781,286.5313 Q381.4063,284.875 383.9063,284.875 Q384.6094,284.875 385.25,285.0313 Q385.9063,285.1875 386.4688,285.4844 L386.4688,288.2031 Q385.8438,287.625 385.25,287.3594 Q384.6563,287.0781 384.0313,287.0781 Q382.6875,287.0781 382,288.1563 Q381.3125,289.2188 381.3125,291.3125 Q381.3125,293.4063 382,294.4844 Q382.6875,295.5469 384.0313,295.5469 Q384.6563,295.5469 385.25,295.2813 Q385.8438,295 386.4688,294.4219 L386.4688,297.1406 Z " fill="#000000"/><text fill="#000000" font-family="sans-serif" font-size="14" lengthAdjust="spacing" textLength="210.1367" x="397.5" y="296.3467">comp_arc_sta__baselibs__json</text><line style="stroke:#181818;stroke-width:0.5;" x1="369.5" x2="609.6367" y1="307.5" y2="307.5"/></g><!--class comp_arc_sta__baselibs__memory_shared--><g id="elem_comp_arc_sta__baselibs__memory_shared"><rect fill="#F1F1F1" height="40" id="comp_arc_sta__baselibs__memory_shared" rx="2.5" ry="2.5" style="stroke:#181818;stroke-width:0.5;" width="327.0117" x="7" y="275.5"/><ellipse cx="22" cy="291.5" fill="#ADD1B2" rx="11" ry="11" style="stroke:#181818;stroke-width:1;"/><path d="M24.9688,297.1406 Q24.3906,297.4375 23.75,297.5781 Q23.1094,297.7344 22.4063,297.7344 Q19.9063,297.7344 18.5781,296.0938 Q17.2656,294.4375 17.2656,291.3125 Q17.2656,288.1875 18.5781,286.5313 Q19.9063,284.875 22.4063,284.875 Q23.1094,284.875 23.75,285.0313 Q24.4063,285.1875 24.9688,285.4844 L24.9688,288.2031 Q24.3438,287.625 23.75,287.3594 Q23.1563,287.0781 22.5313,287.0781 Q21.1875,287.0781 20.5,288.1563 Q19.8125,289.2188 19.8125,291.3125 Q19.8125,293.4063 20.5,294.4844 Q21.1875,295.5469 22.5313,295.5469 Q23.1563,295.5469 23.75,295.2813 Q24.3438,295 24.9688,294.4219 L24.9688,297.1406 Z " fill="#000000"/><text fill="#000000" font-family="sans-serif" font-size="14" lengthAdjust="spacing" textLength="295.0117" x="36" y="296.3467">comp_arc_sta__baselibs__memory_shared</text><line style="stroke:#181818;stroke-width:0.5;" x1="8" x2="333.0117" y1="307.5" y2="307.5"/></g><!--link Feature_User to logic_arc_int__baselibs__task_result--><g id="link_Feature_User_logic_arc_int__baselibs__task_result"><path codeLine="14" d="M3238.64,64.99 C3294.82,90.49 3384.5569,131.2191 3439.1669,156.0191 " fill="transparent" id="Feature_User-to-logic_arc_int__baselibs__task_result" style="stroke:#181818;stroke-width:1;"/><polygon fill="#181818" points="3444.63,158.5,3438.0894,151.1366,3440.0775,156.4326,3434.7815,158.4206,3444.63,158.5" style="stroke:#181818;stroke-width:1;"/><text fill="#000000" font-family="sans-serif" font-size="13" lengthAdjust="spacing" textLength="23.0103" x="3376.5" y="124.5669">use</text></g><!--link Feature_User to logic_arc_int__baselibs__bit_manipulation--><g id="link_Feature_User_logic_arc_int__baselibs__bit_manipulation"><path codeLine="16" d="M3238.56,46.11 C3454.06,54.03 4401.03,91.13 5174.5,158.5 C5180.26,159 5180.1457,158.975 5186.0657,159.525 " fill="transparent" id="Feature_User-to-logic_arc_int__baselibs__bit_manipulation" style="stroke:#181818;stroke-width:1;"/><polygon fill="#181818" points="5192.04,160.08,5183.4486,155.2646,5187.0614,159.6175,5182.7086,163.2303,5192.04,160.08" style="stroke:#181818;stroke-width:1;"/><text fill="#000000" font-family="sans-serif" font-size="13" lengthAdjust="spacing" textLength="23.0103" x="4742.5" y="124.5669">use</text></g><!--link Feature_User to logic_arc_int__baselibs__synchronized_queue--><g id="link_Feature_User_logic_arc_int__baselibs__synchronized_queue"><path codeLine="17" d="M3148.49,50.3 C3003.98,68.92 2553.2708,127.013 2315.1508,157.703 " fill="transparent" id="Feature_User-to-logic_arc_int__baselibs__synchronized_queue" style="stroke:#181818;stroke-width:1;"/><polygon fill="#181818" points="2309.2,158.47,2318.6375,161.2867,2314.159,157.8309,2317.6149,153.3524,2309.2,158.47" style="stroke:#181818;stroke-width:1;"/><text fill="#000000" font-family="sans-serif" font-size="13" lengthAdjust="spacing" textLength="23.0103" x="2648.5" y="124.5669">use</text></g><!--reverse link logic_arc_int__baselibs__filesystem to comp_arc_sta__baselibs__filesystem--><g id="link_logic_arc_int__baselibs__filesystem_comp_arc_sta__baselibs__filesystem"><path codeLine="18" d="M6054.9346,204.7491 C6055.3046,225.9791 6055.79,253.94 6056.16,275.19 " fill="transparent" id="logic_arc_int__baselibs__filesystem-backto-comp_arc_sta__baselibs__filesystem" style="stroke:#181818;stroke-width:1;"/><polygon fill="#181818" points="6054.83,198.75,6050.9874,207.8183,6054.9171,203.7492,6058.9862,207.6789,6054.83,198.75" style="stroke:#181818;stroke-width:1;"/><text fill="#000000" font-family="sans-serif" font-size="13" lengthAdjust="spacing" textLength="76.9082" x="6056.5" y="241.5669">implements</text></g><!--link Feature_User to logic_arc_int__baselibs__task--><g id="link_Feature_User_logic_arc_int__baselibs__task"><path codeLine="19" d="M3193.5,81.55 C3193.5,106.45 3193.5,132.26 3193.5,152.26 " fill="transparent" id="Feature_User-to-logic_arc_int__baselibs__task" style="stroke:#181818;stroke-width:1;"/><polygon fill="#181818" points="3193.5,158.26,3197.5,149.26,3193.5,153.26,3189.5,149.26,3193.5,158.26" style="stroke:#181818;stroke-width:1;"/><text fill="#000000" font-family="sans-serif" font-size="13" lengthAdjust="spacing" textLength="23.0103" x="3194.5" y="124.5669">use</text></g><!--link Feature_User to logic_arc_int__baselibs__memory_shared--><g id="link_Feature_User_logic_arc_int__baselibs__memory_shared"><path codeLine="20" d="M3148.13,45.05 C2915.86,48.02 1836.48,63.9 954.5,111.5 C686.52,125.96 619.73,133.81 352.5,158.5 C346.31,159.07 345.9718,159.0888 339.6018,159.7088 " fill="transparent" id="Feature_User-to-logic_arc_int__baselibs__memory_shared" style="stroke:#181818;stroke-width:1;"/><polygon fill="#181818" points="333.63,160.29,342.9752,163.3993,338.6065,159.8056,342.2002,155.437,333.63,160.29" style="stroke:#181818;stroke-width:1;"/><text fill="#000000" font-family="sans-serif" font-size="13" lengthAdjust="spacing" textLength="23.0103" x="955.5" y="124.5669">use</text></g><!--link Feature_User to logic_arc_int__baselibs__json--><g id="link_Feature_User_logic_arc_int__baselibs__json"><path codeLine="21" d="M3148.43,45.62 C2940.82,50.88 2055.74,74.46 1330.5,111.5 C1014.67,127.63 935.05,125.83 620.5,158.5 C614.77,159.09 614.8784,159.0443 608.9684,159.7443 " fill="transparent" id="Feature_User-to-logic_arc_int__baselibs__json" style="stroke:#181818;stroke-width:1;"/><polygon fill="#181818" points="603.01,160.45,612.418,163.3636,607.9753,159.8619,611.477,155.4192,603.01,160.45" style="stroke:#181818;stroke-width:1;"/><text fill="#000000" font-family="sans-serif" font-size="13" lengthAdjust="spacing" textLength="23.0103" x="1331.5" y="124.5669">use</text></g><!--reverse link logic_arc_int__baselibs__message_passing to comp_arc_sta__baselibs__message_passing--><g id="link_logic_arc_int__baselibs__message_passing_comp_arc_sta__baselibs__message_passing"><path codeLine="22" d="M5712.8418,204.7479 C5712.2818,225.9779 5711.56,253.94 5711,275.19 " fill="transparent" id="logic_arc_int__baselibs__message_passing-backto-comp_arc_sta__baselibs__message_passing" style="stroke:#181818;stroke-width:1;"/><polygon fill="#181818" points="5713,198.75,5708.7641,207.6414,5712.8682,203.7483,5716.7613,207.8523,5713,198.75" style="stroke:#181818;stroke-width:1;"/><text fill="#000000" font-family="sans-serif" font-size="13" lengthAdjust="spacing" textLength="76.9082" x="5713.5" y="241.5669">implements</text></g><!--link Feature_User to logic_arc_int__baselibs__shared_future--><g id="link_Feature_User_logic_arc_int__baselibs__shared_future"><path codeLine="23" d="M3148.47,64.27 C3090.6,89.67 2996.334,131.0483 2939.314,156.0783 " fill="transparent" id="Feature_User-to-logic_arc_int__baselibs__shared_future" style="stroke:#181818;stroke-width:1;"/><polygon fill="#181818" points="2933.82,158.49,2943.6688,158.5351,2938.3983,156.4803,2940.4532,151.2098,2933.82,158.49" style="stroke:#181818;stroke-width:1;"/><text fill="#000000" font-family="sans-serif" font-size="13" lengthAdjust="spacing" textLength="23.0103" x="3034.5" y="124.5669">use</text></g><!--reverse link logic_arc_int__baselibs__promise to comp_arc_sta__baselibs__concurrency--><g id="link_logic_arc_int__baselibs__promise_comp_arc_sta__baselibs__concurrency"><path codeLine="24" d="M4239.7278,196.9661 C4233.5878,197.7461 4233.45,197.75 4227.5,198.5 C4058.65,219.71 4016.72,227.52 3847.5,245.5 C3712.01,259.9 3557.46,273.39 3446.6,282.55 " fill="transparent" id="logic_arc_int__baselibs__promise-backto-comp_arc_sta__baselibs__concurrency" style="stroke:#181818;stroke-width:1;"/><polygon fill="#181818" points="4245.68,196.21,4236.2477,193.3761,4240.7199,196.8401,4237.2558,201.3123,4245.68,196.21" style="stroke:#181818;stroke-width:1;"/><text fill="#000000" font-family="sans-serif" font-size="13" lengthAdjust="spacing" textLength="76.9082" x="3994.5" y="241.5669">implements</text></g><!--link Feature_User to logic_arc_int__baselibs__utils_scoped_op--><g id="link_Feature_User_logic_arc_int__baselibs__utils_scoped_op"><path codeLine="25" d="M3148.31,46.19 C2938.19,54.27 2035.78,91.34 1298.5,158.5 C1292.87,159.01 1293.1121,158.9724 1287.3221,159.5324 " fill="transparent" id="Feature_User-to-logic_arc_int__baselibs__utils_scoped_op" style="stroke:#181818;stroke-width:1;"/><polygon fill="#181818" points="1281.35,160.11,1290.6933,163.225,1286.3268,159.6287,1289.9231,155.2622,1281.35,160.11" style="stroke:#181818;stroke-width:1;"/><text fill="#000000" font-family="sans-serif" font-size="13" lengthAdjust="spacing" textLength="23.0103" x="1872.5" y="124.5669">use</text></g><!--reverse link logic_arc_int__baselibs__bit_mask_operator to comp_arc_sta__baselibs__bit_manipulation--><g id="link_logic_arc_int__baselibs__bit_mask_operator_comp_arc_sta__baselibs__bit_manipulation"><path codeLine="26" d="M5024.33,202.0055 C5057.29,223.2955 5105.03,254.14 5137.91,275.38 " fill="transparent" id="logic_arc_int__baselibs__bit_mask_operator-backto-comp_arc_sta__baselibs__bit_manipulation" style="stroke:#181818;stroke-width:1;"/><polygon fill="#181818" points="5019.29,198.75,5024.6797,206.9933,5023.49,201.4629,5029.0203,200.2733,5019.29,198.75" style="stroke:#181818;stroke-width:1;"/><text fill="#000000" font-family="sans-serif" font-size="13" lengthAdjust="spacing" textLength="76.9082" x="5090.5" y="241.5669">implements</text></g><!--link Feature_User to logic_arc_int__baselibs__dynamic_array--><g id="link_Feature_User_logic_arc_int__baselibs__dynamic_array"><path codeLine="27" d="M3148.46,48.4 C2988.06,62.37 2429.69,111.51 1969.5,158.5 C1964,159.06 1964.3776,159.0168 1958.7276,159.6068 " fill="transparent" id="Feature_User-to-logic_arc_int__baselibs__dynamic_array" style="stroke:#181818;stroke-width:1;"/><polygon fill="#181818" points="1952.76,160.23,1962.1268,163.2736,1957.733,159.7107,1961.2959,155.3169,1952.76,160.23" style="stroke:#181818;stroke-width:1;"/><text fill="#000000" font-family="sans-serif" font-size="13" lengthAdjust="spacing" textLength="23.0103" x="2441.5" y="124.5669">use</text></g><!--reverse link logic_arc_int__baselibs__future to comp_arc_sta__baselibs__concurrency--><g id="link_logic_arc_int__baselibs__future_comp_arc_sta__baselibs__concurrency"><path codeLine="28" d="M3698.6394,199.9237 C3608.1194,221.2137 3468.26,254.11 3377.68,275.41 " fill="transparent" id="logic_arc_int__baselibs__future-backto-comp_arc_sta__baselibs__concurrency" style="stroke:#181818;stroke-width:1;"/><polygon fill="#181818" points="3704.48,198.55,3694.8033,196.7168,3699.6128,199.6947,3696.6349,204.5043,3704.48,198.55" style="stroke:#181818;stroke-width:1;"/><text fill="#000000" font-family="sans-serif" font-size="13" lengthAdjust="spacing" textLength="76.9082" x="3571.5" y="241.5669">implements</text></g><!--reverse link logic_arc_int__baselibs__utils_base64 to comp_arc_sta__baselibs__utils--><g id="link_logic_arc_int__baselibs__utils_base64_comp_arc_sta__baselibs__utils"><path codeLine="29" d="M807.9926,202.9926 C829.2226,224.2226 858.94,253.94 880.19,275.19 " fill="transparent" id="logic_arc_int__baselibs__utils_base64-backto-comp_arc_sta__baselibs__utils" style="stroke:#181818;stroke-width:1;"/><polygon fill="#181818" points="803.75,198.75,807.2855,207.9424,807.2855,202.2855,812.9424,202.2855,803.75,198.75" style="stroke:#181818;stroke-width:1;"/><text fill="#000000" font-family="sans-serif" font-size="13" lengthAdjust="spacing" textLength="76.9082" x="850.5" y="241.5669">implements</text></g><!--link Feature_User to logic_arc_int__baselibs__result--><g id="link_Feature_User_logic_arc_int__baselibs__result"><path codeLine="30" d="M3238.68,47.55 C3408.02,59.16 4021.12,102.75 4524.5,158.5 C4530.35,159.15 4530.3833,159.1201 4536.4233,159.8501 " fill="transparent" id="Feature_User-to-logic_arc_int__baselibs__result" style="stroke:#181818;stroke-width:1;"/><polygon fill="#181818" points="4542.38,160.57,4533.925,155.519,4537.4161,159.9701,4532.9651,163.4612,4542.38,160.57" style="stroke:#181818;stroke-width:1;"/><text fill="#000000" font-family="sans-serif" font-size="13" lengthAdjust="spacing" textLength="23.0103" x="4197.5" y="124.5669">use</text></g><!--reverse link logic_arc_int__baselibs__task_result to comp_arc_sta__baselibs__concurrency--><g id="link_logic_arc_int__baselibs__task_result_comp_arc_sta__baselibs__concurrency"><path codeLine="31" d="M3449.5668,201.8565 C3414.3868,223.1465 3363.18,254.14 3328.09,275.38 " fill="transparent" id="logic_arc_int__baselibs__task_result-backto-comp_arc_sta__baselibs__concurrency" style="stroke:#181818;stroke-width:1;"/><polygon fill="#181818" points="3454.7,198.75,3444.9292,199.9876,3450.4223,201.3387,3449.0712,206.8319,3454.7,198.75" style="stroke:#181818;stroke-width:1;"/><text fill="#000000" font-family="sans-serif" font-size="13" lengthAdjust="spacing" textLength="76.9082" x="3404.5" y="241.5669">implements</text></g><!--reverse link logic_arc_int__baselibs__dynamic_array to comp_arc_sta__baselibs__containers--><g id="link_logic_arc_int__baselibs__dynamic_array_comp_arc_sta__baselibs__containers"><path codeLine="32" d="M1760.6918,201.7979 C1724.5918,223.0879 1671.94,254.14 1635.92,275.38 " fill="transparent" id="logic_arc_int__baselibs__dynamic_array-backto-comp_arc_sta__baselibs__containers" style="stroke:#181818;stroke-width:1;"/><polygon fill="#181818" points="1765.86,198.75,1756.0758,199.8765,1761.5532,201.2899,1760.1397,206.7674,1765.86,198.75" style="stroke:#181818;stroke-width:1;"/><text fill="#000000" font-family="sans-serif" font-size="13" lengthAdjust="spacing" textLength="76.9082" x="1714.5" y="241.5669">implements</text></g><!--reverse link logic_arc_int__baselibs__result to comp_arc_sta__baselibs__result--><g id="link_logic_arc_int__baselibs__result_comp_arc_sta__baselibs__result"><path codeLine="33" d="M4664.5,204.75 C4664.5,225.98 4664.5,253.94 4664.5,275.19 " fill="transparent" id="logic_arc_int__baselibs__result-backto-comp_arc_sta__baselibs__result" style="stroke:#181818;stroke-width:1;"/><polygon fill="#181818" points="4664.5,198.75,4660.5,207.75,4664.5,203.75,4668.5,207.75,4664.5,198.75" style="stroke:#181818;stroke-width:1;"/><text fill="#000000" font-family="sans-serif" font-size="13" lengthAdjust="spacing" textLength="76.9082" x="4665.5" y="241.5669">implements</text></g><!--link Feature_User to logic_arc_int__baselibs__intrusive_list--><g id="link_Feature_User_logic_arc_int__baselibs__intrusive_list"><path codeLine="34" d="M3148.25,47.08 C2960.9,57.92 2227.67,101.83 1626.5,158.5 C1620.79,159.04 1620.95,159.011 1615.07,159.601 " fill="transparent" id="Feature_User-to-logic_arc_int__baselibs__intrusive_list" style="stroke:#181818;stroke-width:1;"/><polygon fill="#181818" points="1609.1,160.2,1618.4544,163.2815,1614.075,159.7008,1617.6557,155.3214,1609.1,160.2" style="stroke:#181818;stroke-width:1;"/><text fill="#000000" font-family="sans-serif" font-size="13" lengthAdjust="spacing" textLength="23.0103" x="2144.5" y="124.5669">use</text></g><!--link Feature_User to logic_arc_int__baselibs__promise--><g id="link_Feature_User_logic_arc_int__baselibs__promise"><path codeLine="35" d="M3238.63,49.2 C3382.82,64.27 3845.28,113.06 4227.5,158.5 C4233.46,159.21 4233.5841,159.2137 4239.7341,159.9637 " fill="transparent" id="Feature_User-to-logic_arc_int__baselibs__promise" style="stroke:#181818;stroke-width:1;"/><polygon fill="#181818" points="4245.69,160.69,4237.2404,155.6299,4240.7268,160.0847,4236.272,163.5711,4245.69,160.69" style="stroke:#181818;stroke-width:1;"/><text fill="#000000" font-family="sans-serif" font-size="13" lengthAdjust="spacing" textLength="23.0103" x="3945.5" y="124.5669">use</text></g><!--reverse link logic_arc_int__baselibs__shared_future to comp_arc_sta__baselibs__concurrency--><g id="link_logic_arc_int__baselibs__shared_future_comp_arc_sta__baselibs__concurrency"><path codeLine="36" d="M2963.7729,200.2551 C3038.9729,221.5551 3154.05,254.15 3229.18,275.43 " fill="transparent" id="logic_arc_int__baselibs__shared_future-backto-comp_arc_sta__baselibs__concurrency" style="stroke:#181818;stroke-width:1;"/><polygon fill="#181818" points="2958,198.62,2965.5692,204.9213,2962.8107,199.9826,2967.7494,197.2241,2958,198.62" style="stroke:#181818;stroke-width:1;"/><text fill="#000000" font-family="sans-serif" font-size="13" lengthAdjust="spacing" textLength="76.9082" x="3119.5" y="241.5669">implements</text></g><!--link Feature_User to logic_arc_int__baselibs__condition_variable--><g id="link_Feature_User_logic_arc_int__baselibs__condition_variable"><path codeLine="37" d="M3148.41,53.64 C3042.25,75.17 2780.6004,128.2179 2637.3504,157.2579 " fill="transparent" id="Feature_User-to-logic_arc_int__baselibs__condition_variable" style="stroke:#181818;stroke-width:1;"/><polygon fill="#181818" points="2631.47,158.45,2641.0853,160.5821,2636.3703,157.4566,2639.4959,152.7416,2631.47,158.45" style="stroke:#181818;stroke-width:1;"/><text fill="#000000" font-family="sans-serif" font-size="13" lengthAdjust="spacing" textLength="23.0103" x="2847.5" y="124.5669">use</text></g><!--reverse link logic_arc_int__baselibs__condition_variable to comp_arc_sta__baselibs__concurrency--><g id="link_logic_arc_int__baselibs__condition_variable_comp_arc_sta__baselibs__concurrency"><path codeLine="38" d="M2669.1923,199.4491 C2809.8023,220.7591 3030.24,254.16 3170.81,275.46 " fill="transparent" id="logic_arc_int__baselibs__condition_variable-backto-comp_arc_sta__baselibs__concurrency" style="stroke:#181818;stroke-width:1;"/><polygon fill="#181818" points="2663.26,198.55,2671.559,203.8534,2668.2035,199.2992,2672.7578,195.9437,2663.26,198.55" style="stroke:#181818;stroke-width:1;"/><text fill="#000000" font-family="sans-serif" font-size="13" lengthAdjust="spacing" textLength="76.9082" x="2963.5" y="241.5669">implements</text></g><!--link Feature_User to logic_arc_int__baselibs__message_passing--><g id="link_Feature_User_logic_arc_int__baselibs__message_passing"><path codeLine="39" d="M3238.79,46.09 C3427.12,52.79 4166.81,79.76 4774.5,111.5 C5111.13,129.08 5195.57,130.55 5531.5,158.5 C5537.36,158.99 5537.344,158.9639 5543.364,159.5039 " fill="transparent" id="Feature_User-to-logic_arc_int__baselibs__message_passing" style="stroke:#181818;stroke-width:1;"/><polygon fill="#181818" points="5549.34,160.04,5540.7334,155.2519,5544.36,159.5933,5540.0186,163.2199,5549.34,160.04" style="stroke:#181818;stroke-width:1;"/><text fill="#000000" font-family="sans-serif" font-size="13" lengthAdjust="spacing" textLength="23.0103" x="5104.5" y="124.5669">use</text></g><!--reverse link logic_arc_int__baselibs__bit_manipulation to comp_arc_sta__baselibs__bit_manipulation--><g id="link_logic_arc_int__baselibs__bit_manipulation_comp_arc_sta__baselibs__bit_manipulation"><path codeLine="40" d="M5317.2664,201.9049 C5282.8264,223.1949 5232.78,254.14 5198.42,275.38 " fill="transparent" id="logic_arc_int__baselibs__bit_manipulation-backto-comp_arc_sta__baselibs__bit_manipulation" style="stroke:#181818;stroke-width:1;"/><polygon fill="#181818" points="5322.37,198.75,5312.6114,200.08,5318.117,201.3791,5316.8179,206.8848,5322.37,198.75" style="stroke:#181818;stroke-width:1;"/><text fill="#000000" font-family="sans-serif" font-size="13" lengthAdjust="spacing" textLength="76.9082" x="5273.5" y="241.5669">implements</text></g><!--reverse link logic_arc_int__baselibs__intrusive_list to comp_arc_sta__baselibs__containers--><g id="link_logic_arc_int__baselibs__intrusive_list_comp_arc_sta__baselibs__containers"><path codeLine="41" d="M1490.7496,202.5422 C1516.7796,223.7722 1553.76,253.94 1579.82,275.19 " fill="transparent" id="logic_arc_int__baselibs__intrusive_list-backto-comp_arc_sta__baselibs__containers" style="stroke:#181818;stroke-width:1;"/><polygon fill="#181818" points="1486.1,198.75,1490.5463,207.5381,1489.9747,201.9102,1495.6026,201.3386,1486.1,198.75" style="stroke:#181818;stroke-width:1;"/><text fill="#000000" font-family="sans-serif" font-size="13" lengthAdjust="spacing" textLength="76.9082" x="1542.5" y="241.5669">implements</text></g><!--reverse link logic_arc_int__baselibs__executor to comp_arc_sta__baselibs__concurrency--><g id="link_logic_arc_int__baselibs__executor_comp_arc_sta__baselibs__concurrency"><path codeLine="42" d="M3954.1658,199.5105 C3869.7758,213.0505 3759.17,230.47 3656.5,245.5 C3585.66,255.87 3506.88,266.68 3441.11,275.5 " fill="transparent" id="logic_arc_int__baselibs__executor-backto-comp_arc_sta__baselibs__concurrency" style="stroke:#181818;stroke-width:1;"/><polygon fill="#181818" points="3960.09,198.56,3950.57,196.0363,3955.1531,199.3521,3951.8373,203.9353,3960.09,198.56" style="stroke:#181818;stroke-width:1;"/><text fill="#000000" font-family="sans-serif" font-size="13" lengthAdjust="spacing" textLength="76.9082" x="3762.5" y="241.5669">implements</text></g><!--reverse link logic_arc_int__baselibs__json to comp_arc_sta__baselibs__json--><g id="link_logic_arc_int__baselibs__json_comp_arc_sta__baselibs__json"><path codeLine="43" d="M487.1582,204.7479 C487.7182,225.9779 488.44,253.94 489,275.19 " fill="transparent" id="logic_arc_int__baselibs__json-backto-comp_arc_sta__baselibs__json" style="stroke:#181818;stroke-width:1;"/><polygon fill="#181818" points="487,198.75,483.2387,207.8523,487.1318,203.7483,491.2359,207.6414,487,198.75" style="stroke:#181818;stroke-width:1;"/><text fill="#000000" font-family="sans-serif" font-size="13" lengthAdjust="spacing" textLength="76.9082" x="489.5" y="241.5669">implements</text></g><!--link Feature_User to logic_arc_int__baselibs__filesystem--><g id="link_Feature_User_logic_arc_int__baselibs__filesystem"><path codeLine="44" d="M3238.7,45.6 C3451.87,50.88 4377.95,74.91 5136.5,111.5 C5473.64,127.76 5558.33,128.14 5894.5,158.5 C5901.6,159.14 5902.9111,159.2301 5910.2511,159.9801 " fill="transparent" id="Feature_User-to-logic_arc_int__baselibs__filesystem" style="stroke:#181818;stroke-width:1;"/><polygon fill="#181818" points="5916.22,160.59,5907.6732,155.6959,5911.2459,160.0817,5906.86,163.6544,5916.22,160.59" style="stroke:#181818;stroke-width:1;"/><text fill="#000000" font-family="sans-serif" font-size="13" lengthAdjust="spacing" textLength="23.0103" x="5492.5" y="124.5669">use</text></g><!--link Feature_User to logic_arc_int__baselibs__bit_mask_operator--><g id="link_Feature_User_logic_arc_int__baselibs__bit_mask_operator"><path codeLine="45" d="M3238.69,47 C3429.06,57.68 4184.39,101.54 4803.5,158.5 C4809.48,159.05 4809.5966,159.0557 4815.7366,159.6357 " fill="transparent" id="Feature_User-to-logic_arc_int__baselibs__bit_mask_operator" style="stroke:#181818;stroke-width:1;"/><polygon fill="#181818" points="4821.71,160.2,4813.1261,155.3713,4816.7322,159.7298,4812.3737,163.3359,4821.71,160.2" style="stroke:#181818;stroke-width:1;"/><text fill="#000000" font-family="sans-serif" font-size="13" lengthAdjust="spacing" textLength="23.0103" x="4452.5" y="124.5669">use</text></g><!--reverse link logic_arc_int__baselibs__task to comp_arc_sta__baselibs__concurrency--><g id="link_logic_arc_int__baselibs__task_comp_arc_sta__baselibs__concurrency"><path codeLine="46" d="M3214.7425,203.2199 C3233.7525,224.4499 3260.17,253.94 3279.2,275.19 " fill="transparent" id="logic_arc_int__baselibs__task-backto-comp_arc_sta__baselibs__concurrency" style="stroke:#181818;stroke-width:1;"/><polygon fill="#181818" points="3210.74,198.75,3213.7638,208.1232,3214.0754,202.4749,3219.7237,202.7865,3210.74,198.75" style="stroke:#181818;stroke-width:1;"/><text fill="#000000" font-family="sans-serif" font-size="13" lengthAdjust="spacing" textLength="76.9082" x="3252.5" y="241.5669">implements</text></g><!--reverse link logic_arc_int__baselibs__memory_shared to comp_arc_sta__baselibs__memory_shared--><g id="link_logic_arc_int__baselibs__memory_shared_comp_arc_sta__baselibs__memory_shared"><path codeLine="47" d="M173.621,204.7464 C172.881,225.9764 171.91,253.94 171.17,275.19 " fill="transparent" id="logic_arc_int__baselibs__memory_shared-backto-comp_arc_sta__baselibs__memory_shared" style="stroke:#181818;stroke-width:1;"/><polygon fill="#181818" points="173.83,198.75,169.5189,207.6052,173.6558,203.747,177.5141,207.8839,173.83,198.75" style="stroke:#181818;stroke-width:1;"/><text fill="#000000" font-family="sans-serif" font-size="13" lengthAdjust="spacing" textLength="76.9082" x="174.5" y="241.5669">implements</text></g><!--link Feature_User to logic_arc_int__baselibs__future--><g id="link_Feature_User_logic_arc_int__baselibs__future"><path codeLine="48" d="M3238.97,54.72 C3337.86,76.93 3567.9359,128.6248 3695.0559,157.1848 " fill="transparent" id="Feature_User-to-logic_arc_int__baselibs__future" style="stroke:#181818;stroke-width:1;"/><polygon fill="#181818" points="3700.91,158.5,3693.0057,152.6244,3696.0316,157.404,3691.2521,160.4299,3700.91,158.5" style="stroke:#181818;stroke-width:1;"/><text fill="#000000" font-family="sans-serif" font-size="13" lengthAdjust="spacing" textLength="23.0103" x="3561.5" y="124.5669">use</text></g><!--link Feature_User to logic_arc_int__baselibs__utils_base64--><g id="link_Feature_User_logic_arc_int__baselibs__utils_base64"><path codeLine="49" d="M3148.31,46.17 C2965.13,53.02 2260.07,80.06 1680.5,111.5 C1354.98,129.16 1273.19,129.29 948.5,158.5 C942.65,159.03 942.6514,159.0048 936.6314,159.5948 " fill="transparent" id="Feature_User-to-logic_arc_int__baselibs__utils_base64" style="stroke:#181818;stroke-width:1;"/><polygon fill="#181818" points="930.66,160.18,940.0072,163.2831,935.6362,159.6923,939.2269,155.3212,930.66,160.18" style="stroke:#181818;stroke-width:1;"/><text fill="#000000" font-family="sans-serif" font-size="13" lengthAdjust="spacing" textLength="23.0103" x="1681.5" y="124.5669">use</text></g><!--reverse link logic_arc_int__baselibs__synchronized_queue to comp_arc_sta__baselibs__concurrency--><g id="link_logic_arc_int__baselibs__synchronized_queue_comp_arc_sta__baselibs__concurrency"><path codeLine="50" d="M2341.5258,198.9696 C2466.8858,212.4096 2634.11,230.13 2786.5,245.5 C2907.52,257.7 3044.78,270.85 3146.39,280.45 " fill="transparent" id="logic_arc_int__baselibs__synchronized_queue-backto-comp_arc_sta__baselibs__concurrency" style="stroke:#181818;stroke-width:1;"/><polygon fill="#181818" points="2335.56,198.33,2344.0823,203.2666,2340.5315,198.863,2344.9351,195.3122,2335.56,198.33" style="stroke:#181818;stroke-width:1;"/><text fill="#000000" font-family="sans-serif" font-size="13" lengthAdjust="spacing" textLength="76.9082" x="2787.5" y="241.5669">implements</text></g><!--link Feature_User to logic_arc_int__baselibs__executor--><g id="link_Feature_User_logic_arc_int__baselibs__executor"><path codeLine="51" d="M3238.55,51.28 C3369,70.9 3744.4968,127.3973 3945.0268,157.5673 " fill="transparent" id="Feature_User-to-logic_arc_int__baselibs__executor" style="stroke:#181818;stroke-width:1;"/><polygon fill="#181818" points="3950.96,158.46,3942.6553,153.1655,3946.0156,157.7161,3941.4651,161.0765,3950.96,158.46" style="stroke:#181818;stroke-width:1;"/><text fill="#000000" font-family="sans-serif" font-size="13" lengthAdjust="spacing" textLength="23.0103" x="3742.5" y="124.5669">use</text></g><!--reverse link logic_arc_int__baselibs__utils_scoped_op to comp_arc_sta__baselibs__utils--><g id="link_logic_arc_int__baselibs__utils_scoped_op_comp_arc_sta__baselibs__utils"><path codeLine="52" d="M1080.9223,201.3603 C1039.4923,222.6303 978.29,254.05 936.83,275.34 " fill="transparent" id="logic_arc_int__baselibs__utils_scoped_op-backto-comp_arc_sta__baselibs__utils" style="stroke:#181818;stroke-width:1;"/><polygon fill="#181818" points="1086.26,198.62,1076.4266,199.1721,1081.812,200.9036,1080.0804,206.2889,1086.26,198.62" style="stroke:#181818;stroke-width:1;"/><text fill="#000000" font-family="sans-serif" font-size="13" lengthAdjust="spacing" textLength="76.9082" x="1026.5" y="241.5669">implements</text></g><!--SRC=[hLPDRzim3BtxLmYzfnk6OOUYw6N0JZkkPu6MsOIhFboHwkeD- - -JuxIrqwJ-c8zon9V7H_9HO6tufHqzaTyM4cebGPL193XLKKGZ57onemeL2qOCqjJOdT7LqYWGYLGcGIwkMHgBDyKbCDbI_Ic-ayUlmOQe8bRxquyTcNkFpEhJvSVYRt7zuH1JW95yx-8RWgI8wfOnNYXWTVYWsm-g69msrUP6sR0beo4QJLwqBe7HKibQ2_2zZiZ9ofLAZAgO4rsIQ0UUwcIXbU00CGE16szsCNZwZPL-I9ZmW662g_S1BD0Fk2EBt6ILdTgazv1VBrufShL5XrvujZZpKtBeGcmqxo3NStxuJtxHyPm6BhS6R57Nm9mRSaI8ezkBrUWIqdUf3HXXQ88tAKRqfXbXLyVWY74ngoHaMRC9TUOMwX5UnmqxGgwxdYSaeqV8exUOPjLuSFkV8ZIhYVTSYpwfSwXxeKRmEZ7RyvVFYrCTkCd_vpXmg2c9PcY1xA9nBDkZcap1xdYCu9uYEqE_V8o9wH6r9PRv1l8oKIiLu6Zk5sQL_w-YTkJq8qI2qgv7y1JqGfPll79zD-blorNR-RXl9e9F51cVqAGt3dWEjrrY8u3TdbjOf_vodpiV9qnzHQkQfi_WZJ2wlmVlYQMAzTVsxFtwl1BMifGJhxw5URtsvRlSfc-_tbEYJ-aV]--></g></svg>