<svg xmlns="http://www.w3.org/2000/svg" xmlns:xlink="http://www.w3.org/1999/xlink" contentStyleType="text/css" data-diagram-type="CLASS" height="322px" preserveAspectRatio="none" style="width:6206px;height:322px;background:#FFFFFF;" version="1.1" viewBox="0 0 6206 322" width="6206px" zoomAndPan="magnify"><defs/><g><!--entity Feature_User--><g id="elem_Feature_User"><ellipse cx="3119.6685" cy="14" fill="#F1F1F1" rx="8" ry="8" style="stroke:#181818;stroke-width:0.5;"/><path d="M3119.6685,22 L3119.6685,49 M3106.6685,30 L3132.6685,30 M3119.6685,49 L3106.6685,64 M3119.6685,49 L3132.6685,64 " fill="transparent" style="stroke:#181818;stroke-width:0.5;"/><text fill="#000000" font-family="sans-serif" font-size="14" lengthAdjust="spacing" textLength="90.3369" x="3074.5" y="78.4951">Feature User</text></g><!--class logic_arc_int__baselibs__future--><g id="elem_logic_arc_int__baselibs__future"><rect fill="#F1F1F1" height="40" id="logic_arc_int__baselibs__future" rx="2.5" ry="2.5" style="stroke:#181818;stroke-width:0.5;" width="247.0791" x="2671" y="158.5"/><ellipse cx="2686" cy="174.5" fill="#ADD1B2" rx="11" ry="11" style="stroke:#181818;stroke-width:1;"/><path d="M2688.9688,180.1406 Q2688.3906,180.4375 2687.75,180.5781 Q2687.1094,180.7344 2686.4063,180.7344 Q2683.9063,180.7344 2682.5781,179.0938 Q2681.2656,177.4375 2681.2656,174.3125 Q2681.2656,171.1875 2682.5781,169.5313 Q2683.9063,167.875 2686.4063,167.875 Q2687.1094,167.875 2687.75,168.0313 Q2688.4063,168.1875 2688.9688,168.4844 L2688.9688,171.2031 Q2688.3438,170.625 2687.75,170.3594 Q2687.1563,170.0781 2686.5313,170.0781 Q2685.1875,170.0781 2684.5,171.1563 Q2683.8125,172.2188 2683.8125,174.3125 Q2683.8125,176.4063 2684.5,177.4844 Q2685.1875,178.5469 2686.5313,178.5469 Q2687.1563,178.5469 2687.75,178.2813 Q2688.3438,178 2688.9688,177.4219 L2688.9688,180.1406 Z " fill="#000000"/><text fill="#000000" font-family="sans-serif" font-size="14" lengthAdjust="spacing" textLength="215.0791" x="2700" y="179.3467">logic_arc_int__baselibs__future</text><line style="stroke:#181818;stroke-width:0.5;" x1="2672" x2="2917.0791" y1="190.5" y2="190.5"/></g><!--class logic_arc_int__baselibs__shared_future--><g id="elem_logic_arc_int__baselibs__shared_future"><rect fill="#F1F1F1" height="40" id="logic_arc_int__baselibs__shared_future" rx="2.5" ry="2.5" style="stroke:#181818;stroke-width:0.5;" width="302.0811" x="2333.5" y="158.5"/><ellipse cx="2348.5" cy="174.5" fill="#ADD1B2" rx="11" ry="11" style="stroke:#181818;stroke-width:1;"/><path d="M2351.4688,180.1406 Q2350.8906,180.4375 2350.25,180.5781 Q2349.6094,180.7344 2348.9063,180.7344 Q2346.4063,180.7344 2345.0781,179.0938 Q2343.7656,177.4375 2343.7656,174.3125 Q2343.7656,171.1875 2345.0781,169.5313 Q2346.4063,167.875 2348.9063,167.875 Q2349.6094,167.875 2350.25,168.0313 Q2350.9063,168.1875 2351.4688,168.4844 L2351.4688,171.2031 Q2350.8438,170.625 2350.25,170.3594 Q2349.6563,170.0781 2349.0313,170.0781 Q2347.6875,170.0781 2347,171.1563 Q2346.3125,172.2188 2346.3125,174.3125 Q2346.3125,176.4063 2347,177.4844 Q2347.6875,178.5469 2349.0313,178.5469 Q2349.6563,178.5469 2350.25,178.2813 Q2350.8438,178 2351.4688,177.4219 L2351.4688,180.1406 Z " fill="#000000"/><text fill="#000000" font-family="sans-serif" font-size="14" lengthAdjust="spacing" textLength="270.0811" x="2362.5" y="179.3467">logic_arc_int__baselibs__shared_future</text><line style="stroke:#181818;stroke-width:0.5;" x1="2334.5" x2="2634.5811" y1="190.5" y2="190.5"/></g><!--class logic_arc_int__baselibs__memory_shared--><g id="elem_logic_arc_int__baselibs__memory_shared"><rect fill="#F1F1F1" height="40" id="logic_arc_int__baselibs__memory_shared" rx="2.5" ry="2.5" style="stroke:#181818;stroke-width:0.5;" width="318.043" x="4645.5" y="158.5"/><ellipse cx="4660.5" cy="174.5" fill="#ADD1B2" rx="11" ry="11" style="stroke:#181818;stroke-width:1;"/><path d="M4663.4688,180.1406 Q4662.8906,180.4375 4662.25,180.5781 Q4661.6094,180.7344 4660.9063,180.7344 Q4658.4063,180.7344 4657.0781,179.0938 Q4655.7656,177.4375 4655.7656,174.3125 Q4655.7656,171.1875 4657.0781,169.5313 Q4658.4063,167.875 4660.9063,167.875 Q4661.6094,167.875 4662.25,168.0313 Q4662.9063,168.1875 4663.4688,168.4844 L4663.4688,171.2031 Q4662.8438,170.625 4662.25,170.3594 Q4661.6563,170.0781 4661.0313,170.0781 Q4659.6875,170.0781 4659,171.1563 Q4658.3125,172.2188 4658.3125,174.3125 Q4658.3125,176.4063 4659,177.4844 Q4659.6875,178.5469 4661.0313,178.5469 Q4661.6563,178.5469 4662.25,178.2813 Q4662.8438,178 4663.4688,177.4219 L4663.4688,180.1406 Z " fill="#000000"/><text fill="#000000" font-family="sans-serif" font-size="14" lengthAdjust="spacing" textLength="286.043" x="4674.5" y="179.3467">logic_arc_int__baselibs__memory_shared</text><line style="stroke:#181818;stroke-width:0.5;" x1="4646.5" x2="4962.543" y1="190.5" y2="190.5"/></g><!--class logic_arc_int__baselibs__filesystem--><g id="elem_logic_arc_int__baselibs__filesystem"><rect fill="#F1F1F1" height="40" id="logic_arc_int__baselibs__filesystem" rx="2.5" ry="2.5" style="stroke:#181818;stroke-width:0.5;" width="276.4805" x="15.5" y="158.5"/><ellipse cx="30.5" cy="174.5" fill="#ADD1B2" rx="11" ry="11" style="stroke:#181818;stroke-width:1;"/><path d="M33.4688,180.1406 Q32.8906,180.4375 32.25,180.5781 Q31.6094,180.7344 30.9063,180.7344 Q28.4063,180.7344 27.0781,179.0938 Q25.7656,177.4375 25.7656,174.3125 Q25.7656,171.1875 27.0781,169.5313 Q28.4063,167.875 30.9063,167.875 Q31.6094,167.875 32.25,168.0313 Q32.9063,168.1875 33.4688,168.4844 L33.4688,171.2031 Q32.8438,170.625 32.25,170.3594 Q31.6563,170.0781 31.0313,170.0781 Q29.6875,170.0781 29,171.1563 Q28.3125,172.2188 28.3125,174.3125 Q28.3125,176.4063 29,177.4844 Q29.6875,178.5469 31.0313,178.5469 Q31.6563,178.5469 32.25,178.2813 Q32.8438,178 33.4688,177.4219 L33.4688,180.1406 Z " fill="#000000"/><text fill="#000000" font-family="sans-serif" font-size="14" lengthAdjust="spacing" textLength="244.4805" x="44.5" y="179.3467">logic_arc_int__baselibs__filesystem</text><line style="stroke:#181818;stroke-width:0.5;" x1="16.5" x2="290.9805" y1="190.5" y2="190.5"/></g><!--class logic_arc_int__baselibs__bit_mask_operator--><g id="elem_logic_arc_int__baselibs__bit_mask_operator"><rect fill="#F1F1F1" height="40" id="logic_arc_int__baselibs__bit_mask_operator" rx="2.5" ry="2.5" style="stroke:#181818;stroke-width:0.5;" width="334.6406" x="692" y="158.5"/><ellipse cx="707" cy="174.5" fill="#ADD1B2" rx="11" ry="11" style="stroke:#181818;stroke-width:1;"/><path d="M709.9688,180.1406 Q709.3906,180.4375 708.75,180.5781 Q708.1094,180.7344 707.4063,180.7344 Q704.9063,180.7344 703.5781,179.0938 Q702.2656,177.4375 702.2656,174.3125 Q702.2656,171.1875 703.5781,169.5313 Q704.9063,167.875 707.4063,167.875 Q708.1094,167.875 708.75,168.0313 Q709.4063,168.1875 709.9688,168.4844 L709.9688,171.2031 Q709.3438,170.625 708.75,170.3594 Q708.1563,170.0781 707.5313,170.0781 Q706.1875,170.0781 705.5,171.1563 Q704.8125,172.2188 704.8125,174.3125 Q704.8125,176.4063 705.5,177.4844 Q706.1875,178.5469 707.5313,178.5469 Q708.1563,178.5469 708.75,178.2813 Q709.3438,178 709.9688,177.4219 L709.9688,180.1406 Z " fill="#000000"/><text fill="#000000" font-family="sans-serif" font-size="14" lengthAdjust="spacing" textLength="302.6406" x="721" y="179.3467">logic_arc_int__baselibs__bit_mask_operator</text><line style="stroke:#181818;stroke-width:0.5;" x1="693" x2="1025.6406" y1="190.5" y2="190.5"/></g><!--class comp_arc_sta__baselibs__concurrency--><g id="elem_comp_arc_sta__baselibs__concurrency"><rect fill="#F1F1F1" height="40" id="comp_arc_sta__baselibs__concurrency" rx="2.5" ry="2.5" style="stroke:#181818;stroke-width:0.5;" width="300.2012" x="2441.5" y="275.5"/><ellipse cx="2456.5" cy="291.5" fill="#ADD1B2" rx="11" ry="11" style="stroke:#181818;stroke-width:1;"/><path d="M2459.4688,297.1406 Q2458.8906,297.4375 2458.25,297.5781 Q2457.6094,297.7344 2456.9063,297.7344 Q2454.4063,297.7344 2453.0781,296.0938 Q2451.7656,294.4375 2451.7656,291.3125 Q2451.7656,288.1875 2453.0781,286.5313 Q2454.4063,284.875 2456.9063,284.875 Q2457.6094,284.875 2458.25,285.0313 Q2458.9063,285.1875 2459.4688,285.4844 L2459.4688,288.2031 Q2458.8438,287.625 2458.25,287.3594 Q2457.6563,287.0781 2457.0313,287.0781 Q2455.6875,287.0781 2455,288.1563 Q2454.3125,289.2188 2454.3125,291.3125 Q2454.3125,293.4063 2455,294.4844 Q2455.6875,295.5469 2457.0313,295.5469 Q2457.6563,295.5469 2458.25,295.2813 Q2458.8438,295 2459.4688,294.4219 L2459.4688,297.1406 Z " fill="#000000"/><text fill="#000000" font-family="sans-serif" font-size="14" lengthAdjust="spacing" textLength="268.2012" x="2470.5" y="296.3467">comp_arc_sta__baselibs__concurrency</text><line style="stroke:#181818;stroke-width:0.5;" x1="2442.5" x2="2740.7012" y1="307.5" y2="307.5"/></g><!--class logic_arc_int__baselibs__synchronized_queue--><g id="elem_logic_arc_int__baselibs__synchronized_queue"><rect fill="#F1F1F1" height="40" id="logic_arc_int__baselibs__synchronized_queue" rx="2.5" ry="2.5" style="stroke:#181818;stroke-width:0.5;" width="348.3604" x="3590.5" y="158.5"/><ellipse cx="3605.5" cy="174.5" fill="#ADD1B2" rx="11" ry="11" style="stroke:#181818;stroke-width:1;"/><path d="M3608.4688,180.1406 Q3607.8906,180.4375 3607.25,180.5781 Q3606.6094,180.7344 3605.9063,180.7344 Q3603.4063,180.7344 3602.0781,179.0938 Q3600.7656,177.4375 3600.7656,174.3125 Q3600.7656,171.1875 3602.0781,169.5313 Q3603.4063,167.875 3605.9063,167.875 Q3606.6094,167.875 3607.25,168.0313 Q3607.9063,168.1875 3608.4688,168.4844 L3608.4688,171.2031 Q3607.8438,170.625 3607.25,170.3594 Q3606.6563,170.0781 3606.0313,170.0781 Q3604.6875,170.0781 3604,171.1563 Q3603.3125,172.2188 3603.3125,174.3125 Q3603.3125,176.4063 3604,177.4844 Q3604.6875,178.5469 3606.0313,178.5469 Q3606.6563,178.5469 3607.25,178.2813 Q3607.8438,178 3608.4688,177.4219 L3608.4688,180.1406 Z " fill="#000000"/><text fill="#000000" font-family="sans-serif" font-size="14" lengthAdjust="spacing" textLength="316.3604" x="3619.5" y="179.3467">logic_arc_int__baselibs__synchronized_queue</text><line style="stroke:#181818;stroke-width:0.5;" x1="3591.5" x2="3937.8604" y1="190.5" y2="190.5"/></g><!--class logic_arc_int__baselibs__bit_manipulation--><g id="elem_logic_arc_int__baselibs__bit_manipulation"><rect fill="#F1F1F1" height="40" id="logic_arc_int__baselibs__bit_manipulation" rx="2.5" ry="2.5" style="stroke:#181818;stroke-width:0.5;" width="321.8369" x="1062.5" y="158.5"/><ellipse cx="1077.5" cy="174.5" fill="#ADD1B2" rx="11" ry="11" style="stroke:#181818;stroke-width:1;"/><path d="M1080.4688,180.1406 Q1079.8906,180.4375 1079.25,180.5781 Q1078.6094,180.7344 1077.9063,180.7344 Q1075.4063,180.7344 1074.0781,179.0938 Q1072.7656,177.4375 1072.7656,174.3125 Q1072.7656,171.1875 1074.0781,169.5313 Q1075.4063,167.875 1077.9063,167.875 Q1078.6094,167.875 1079.25,168.0313 Q1079.9063,168.1875 1080.4688,168.4844 L1080.4688,171.2031 Q1079.8438,170.625 1079.25,170.3594 Q1078.6563,170.0781 1078.0313,170.0781 Q1076.6875,170.0781 1076,171.1563 Q1075.3125,172.2188 1075.3125,174.3125 Q1075.3125,176.4063 1076,177.4844 Q1076.6875,178.5469 1078.0313,178.5469 Q1078.6563,178.5469 1079.25,178.2813 Q1079.8438,178 1080.4688,177.4219 L1080.4688,180.1406 Z " fill="#000000"/><text fill="#000000" font-family="sans-serif" font-size="14" lengthAdjust="spacing" textLength="289.8369" x="1091.5" y="179.3467">logic_arc_int__baselibs__bit_manipulation</text><line style="stroke:#181818;stroke-width:0.5;" x1="1063.5" x2="1383.3369" y1="190.5" y2="190.5"/></g><!--class logic_arc_int__baselibs__task_result--><g id="elem_logic_arc_int__baselibs__task_result"><rect fill="#F1F1F1" height="40" id="logic_arc_int__baselibs__task_result" rx="2.5" ry="2.5" style="stroke:#181818;stroke-width:0.5;" width="280.9307" x="2017" y="158.5"/><ellipse cx="2032" cy="174.5" fill="#ADD1B2" rx="11" ry="11" style="stroke:#181818;stroke-width:1;"/><path d="M2034.9688,180.1406 Q2034.3906,180.4375 2033.75,180.5781 Q2033.1094,180.7344 2032.4063,180.7344 Q2029.9063,180.7344 2028.5781,179.0938 Q2027.2656,177.4375 2027.2656,174.3125 Q2027.2656,171.1875 2028.5781,169.5313 Q2029.9063,167.875 2032.4063,167.875 Q2033.1094,167.875 2033.75,168.0313 Q2034.4063,168.1875 2034.9688,168.4844 L2034.9688,171.2031 Q2034.3438,170.625 2033.75,170.3594 Q2033.1563,170.0781 2032.5313,170.0781 Q2031.1875,170.0781 2030.5,171.1563 Q2029.8125,172.2188 2029.8125,174.3125 Q2029.8125,176.4063 2030.5,177.4844 Q2031.1875,178.5469 2032.5313,178.5469 Q2033.1563,178.5469 2033.75,178.2813 Q2034.3438,178 2034.9688,177.4219 L2034.9688,180.1406 Z " fill="#000000"/><text fill="#000000" font-family="sans-serif" font-size="14" lengthAdjust="spacing" textLength="248.9307" x="2046" y="179.3467">logic_arc_int__baselibs__task_result</text><line style="stroke:#181818;stroke-width:0.5;" x1="2018" x2="2296.9307" y1="190.5" y2="190.5"/></g><!--class comp_arc_sta__baselibs__json--><g id="elem_comp_arc_sta__baselibs__json"><rect fill="#F1F1F1" height="40" id="comp_arc_sta__baselibs__json" rx="2.5" ry="2.5" style="stroke:#181818;stroke-width:0.5;" width="242.1367" x="5957.5" y="275.5"/><ellipse cx="5972.5" cy="291.5" fill="#ADD1B2" rx="11" ry="11" style="stroke:#181818;stroke-width:1;"/><path d="M5975.4688,297.1406 Q5974.8906,297.4375 5974.25,297.5781 Q5973.6094,297.7344 5972.9063,297.7344 Q5970.4063,297.7344 5969.0781,296.0938 Q5967.7656,294.4375 5967.7656,291.3125 Q5967.7656,288.1875 5969.0781,286.5313 Q5970.4063,284.875 5972.9063,284.875 Q5973.6094,284.875 5974.25,285.0313 Q5974.9063,285.1875 5975.4688,285.4844 L5975.4688,288.2031 Q5974.8438,287.625 5974.25,287.3594 Q5973.6563,287.0781 5973.0313,287.0781 Q5971.6875,287.0781 5971,288.1563 Q5970.3125,289.2188 5970.3125,291.3125 Q5970.3125,293.4063 5971,294.4844 Q5971.6875,295.5469 5973.0313,295.5469 Q5973.6563,295.5469 5974.25,295.2813 Q5974.8438,295 5975.4688,294.4219 L5975.4688,297.1406 Z " fill="#000000"/><text fill="#000000" font-family="sans-serif" font-size="14" lengthAdjust="spacing" textLength="210.1367" x="5986.5" y="296.3467">comp_arc_sta__baselibs__json</text><line style="stroke:#181818;stroke-width:0.5;" x1="5958.5" x2="6198.6367" y1="307.5" y2="307.5"/></g><!--class logic_arc_int__baselibs__json--><g id="elem_logic_arc_int__baselibs__json"><rect fill="#F1F1F1" height="40" id="logic_arc_int__baselibs__json" rx="2.5" ry="2.5" style="stroke:#181818;stroke-width:0.5;" width="233.168" x="5960" y="158.5"/><ellipse cx="5975" cy="174.5" fill="#ADD1B2" rx="11" ry="11" style="stroke:#181818;stroke-width:1;"/><path d="M5977.9688,180.1406 Q5977.3906,180.4375 5976.75,180.5781 Q5976.1094,180.7344 5975.4063,180.7344 Q5972.9063,180.7344 5971.5781,179.0938 Q5970.2656,177.4375 5970.2656,174.3125 Q5970.2656,171.1875 5971.5781,169.5313 Q5972.9063,167.875 5975.4063,167.875 Q5976.1094,167.875 5976.75,168.0313 Q5977.4063,168.1875 5977.9688,168.4844 L5977.9688,171.2031 Q5977.3438,170.625 5976.75,170.3594 Q5976.1563,170.0781 5975.5313,170.0781 Q5974.1875,170.0781 5973.5,171.1563 Q5972.8125,172.2188 5972.8125,174.3125 Q5972.8125,176.4063 5973.5,177.4844 Q5974.1875,178.5469 5975.5313,178.5469 Q5976.1563,178.5469 5976.75,178.2813 Q5977.3438,178 5977.9688,177.4219 L5977.9688,180.1406 Z " fill="#000000"/><text fill="#000000" font-family="sans-serif" font-size="14" lengthAdjust="spacing" textLength="201.168" x="5989" y="179.3467">logic_arc_int__baselibs__json</text><line style="stroke:#181818;stroke-width:0.5;" x1="5961" x2="6192.168" y1="190.5" y2="190.5"/></g><!--class comp_arc_sta__baselibs__result--><g id="elem_comp_arc_sta__baselibs__result"><rect fill="#F1F1F1" height="40" id="comp_arc_sta__baselibs__result" rx="2.5" ry="2.5" style="stroke:#181818;stroke-width:0.5;" width="253.4297" x="5669" y="275.5"/><ellipse cx="5684" cy="291.5" fill="#ADD1B2" rx="11" ry="11" style="stroke:#181818;stroke-width:1;"/><path d="M5686.9688,297.1406 Q5686.3906,297.4375 5685.75,297.5781 Q5685.1094,297.7344 5684.4063,297.7344 Q5681.9063,297.7344 5680.5781,296.0938 Q5679.2656,294.4375 5679.2656,291.3125 Q5679.2656,288.1875 5680.5781,286.5313 Q5681.9063,284.875 5684.4063,284.875 Q5685.1094,284.875 5685.75,285.0313 Q5686.4063,285.1875 5686.9688,285.4844 L5686.9688,288.2031 Q5686.3438,287.625 5685.75,287.3594 Q5685.1563,287.0781 5684.5313,287.0781 Q5683.1875,287.0781 5682.5,288.1563 Q5681.8125,289.2188 5681.8125,291.3125 Q5681.8125,293.4063 5682.5,294.4844 Q5683.1875,295.5469 5684.5313,295.5469 Q5685.1563,295.5469 5685.75,295.2813 Q5686.3438,295 5686.9688,294.4219 L5686.9688,297.1406 Z " fill="#000000"/><text fill="#000000" font-family="sans-serif" font-size="14" lengthAdjust="spacing" textLength="221.4297" x="5698" y="296.3467">comp_arc_sta__baselibs__result</text><line style="stroke:#181818;stroke-width:0.5;" x1="5670" x2="5921.4297" y1="307.5" y2="307.5"/></g><!--class logic_arc_int__baselibs__result--><g id="elem_logic_arc_int__baselibs__result"><rect fill="#F1F1F1" height="40" id="logic_arc_int__baselibs__result" rx="2.5" ry="2.5" style="stroke:#181818;stroke-width:0.5;" width="244.4609" x="5676.5" y="158.5"/><ellipse cx="5691.5" cy="174.5" fill="#ADD1B2" rx="11" ry="11" style="stroke:#181818;stroke-width:1;"/><path d="M5694.4688,180.1406 Q5693.8906,180.4375 5693.25,180.5781 Q5692.6094,180.7344 5691.9063,180.7344 Q5689.4063,180.7344 5688.0781,179.0938 Q5686.7656,177.4375 5686.7656,174.3125 Q5686.7656,171.1875 5688.0781,169.5313 Q5689.4063,167.875 5691.9063,167.875 Q5692.6094,167.875 5693.25,168.0313 Q5693.9063,168.1875 5694.4688,168.4844 L5694.4688,171.2031 Q5693.8438,170.625 5693.25,170.3594 Q5692.6563,170.0781 5692.0313,170.0781 Q5690.6875,170.0781 5690,171.1563 Q5689.3125,172.2188 5689.3125,174.3125 Q5689.3125,176.4063 5690,177.4844 Q5690.6875,178.5469 5692.0313,178.5469 Q5692.6563,178.5469 5693.25,178.2813 Q5693.8438,178 5694.4688,177.4219 L5694.4688,180.1406 Z " fill="#000000"/><text fill="#000000" font-family="sans-serif" font-size="14" lengthAdjust="spacing" textLength="212.4609" x="5705.5" y="179.3467">logic_arc_int__baselibs__result</text><line style="stroke:#181818;stroke-width:0.5;" x1="5677.5" x2="5919.9609" y1="190.5" y2="190.5"/></g><!--class comp_arc_sta__baselibs__utils--><g id="elem_comp_arc_sta__baselibs__utils"><rect fill="#F1F1F1" height="40" id="comp_arc_sta__baselibs__utils" rx="2.5" ry="2.5" style="stroke:#181818;stroke-width:0.5;" width="242.9502" x="5204" y="275.5"/><ellipse cx="5219" cy="291.5" fill="#ADD1B2" rx="11" ry="11" style="stroke:#181818;stroke-width:1;"/><path d="M5221.9688,297.1406 Q5221.3906,297.4375 5220.75,297.5781 Q5220.1094,297.7344 5219.4063,297.7344 Q5216.9063,297.7344 5215.5781,296.0938 Q5214.2656,294.4375 5214.2656,291.3125 Q5214.2656,288.1875 5215.5781,286.5313 Q5216.9063,284.875 5219.4063,284.875 Q5220.1094,284.875 5220.75,285.0313 Q5221.4063,285.1875 5221.9688,285.4844 L5221.9688,288.2031 Q5221.3438,287.625 5220.75,287.3594 Q5220.1563,287.0781 5219.5313,287.0781 Q5218.1875,287.0781 5217.5,288.1563 Q5216.8125,289.2188 5216.8125,291.3125 Q5216.8125,293.4063 5217.5,294.4844 Q5218.1875,295.5469 5219.5313,295.5469 Q5220.1563,295.5469 5220.75,295.2813 Q5221.3438,295 5221.9688,294.4219 L5221.9688,297.1406 Z " fill="#000000"/><text fill="#000000" font-family="sans-serif" font-size="14" lengthAdjust="spacing" textLength="210.9502" x="5233" y="296.3467">comp_arc_sta__baselibs__utils</text><line style="stroke:#181818;stroke-width:0.5;" x1="5205" x2="5445.9502" y1="307.5" y2="307.5"/></g><!--class logic_arc_int__baselibs__utils_scoped_op--><g id="elem_logic_arc_int__baselibs__utils_scoped_op"><rect fill="#F1F1F1" height="40" id="logic_arc_int__baselibs__utils_scoped_op" rx="2.5" ry="2.5" style="stroke:#181818;stroke-width:0.5;" width="315.377" x="4999" y="158.5"/><ellipse cx="5014" cy="174.5" fill="#ADD1B2" rx="11" ry="11" style="stroke:#181818;stroke-width:1;"/><path d="M5016.9688,180.1406 Q5016.3906,180.4375 5015.75,180.5781 Q5015.1094,180.7344 5014.4063,180.7344 Q5011.9063,180.7344 5010.5781,179.0938 Q5009.2656,177.4375 5009.2656,174.3125 Q5009.2656,171.1875 5010.5781,169.5313 Q5011.9063,167.875 5014.4063,167.875 Q5015.1094,167.875 5015.75,168.0313 Q5016.4063,168.1875 5016.9688,168.4844 L5016.9688,171.2031 Q5016.3438,170.625 5015.75,170.3594 Q5015.1563,170.0781 5014.5313,170.0781 Q5013.1875,170.0781 5012.5,171.1563 Q5011.8125,172.2188 5011.8125,174.3125 Q5011.8125,176.4063 5012.5,177.4844 Q5013.1875,178.5469 5014.5313,178.5469 Q5015.1563,178.5469 5015.75,178.2813 Q5016.3438,178 5016.9688,177.4219 L5016.9688,180.1406 Z " fill="#000000"/><text fill="#000000" font-family="sans-serif" font-size="14" lengthAdjust="spacing" textLength="283.377" x="5028" y="179.3467">logic_arc_int__baselibs__utils_scoped_op</text><line style="stroke:#181818;stroke-width:0.5;" x1="5000" x2="5313.377" y1="190.5" y2="190.5"/></g><!--class comp_arc_sta__baselibs__containers--><g id="elem_comp_arc_sta__baselibs__containers"><rect fill="#F1F1F1" height="40" id="comp_arc_sta__baselibs__containers" rx="2.5" ry="2.5" style="stroke:#181818;stroke-width:0.5;" width="287.1445" x="4144" y="275.5"/><ellipse cx="4159" cy="291.5" fill="#ADD1B2" rx="11" ry="11" style="stroke:#181818;stroke-width:1;"/><path d="M4161.9688,297.1406 Q4161.3906,297.4375 4160.75,297.5781 Q4160.1094,297.7344 4159.4063,297.7344 Q4156.9063,297.7344 4155.5781,296.0938 Q4154.2656,294.4375 4154.2656,291.3125 Q4154.2656,288.1875 4155.5781,286.5313 Q4156.9063,284.875 4159.4063,284.875 Q4160.1094,284.875 4160.75,285.0313 Q4161.4063,285.1875 4161.9688,285.4844 L4161.9688,288.2031 Q4161.3438,287.625 4160.75,287.3594 Q4160.1563,287.0781 4159.5313,287.0781 Q4158.1875,287.0781 4157.5,288.1563 Q4156.8125,289.2188 4156.8125,291.3125 Q4156.8125,293.4063 4157.5,294.4844 Q4158.1875,295.5469 4159.5313,295.5469 Q4160.1563,295.5469 4160.75,295.2813 Q4161.3438,295 4161.9688,294.4219 L4161.9688,297.1406 Z " fill="#000000"/><text fill="#000000" font-family="sans-serif" font-size="14" lengthAdjust="spacing" textLength="255.1445" x="4173" y="296.3467">comp_arc_sta__baselibs__containers</text><line style="stroke:#181818;stroke-width:0.5;" x1="4145" x2="4430.1445" y1="307.5" y2="307.5"/></g><!--class logic_arc_int__baselibs__intrusive_list--><g id="elem_logic_arc_int__baselibs__intrusive_list"><rect fill="#F1F1F1" height="40" id="logic_arc_int__baselibs__intrusive_list" rx="2.5" ry="2.5" style="stroke:#181818;stroke-width:0.5;" width="293.0713" x="3974" y="158.5"/><ellipse cx="3989" cy="174.5" fill="#ADD1B2" rx="11" ry="11" style="stroke:#181818;stroke-width:1;"/><path d="M3991.9688,180.1406 Q3991.3906,180.4375 3990.75,180.5781 Q3990.1094,180.7344 3989.4063,180.7344 Q3986.9063,180.7344 3985.5781,179.0938 Q3984.2656,177.4375 3984.2656,174.3125 Q3984.2656,171.1875 3985.5781,169.5313 Q3986.9063,167.875 3989.4063,167.875 Q3990.1094,167.875 3990.75,168.0313 Q3991.4063,168.1875 3991.9688,168.4844 L3991.9688,171.2031 Q3991.3438,170.625 3990.75,170.3594 Q3990.1563,170.0781 3989.5313,170.0781 Q3988.1875,170.0781 3987.5,171.1563 Q3986.8125,172.2188 3986.8125,174.3125 Q3986.8125,176.4063 3987.5,177.4844 Q3988.1875,178.5469 3989.5313,178.5469 Q3990.1563,178.5469 3990.75,178.2813 Q3991.3438,178 3991.9688,177.4219 L3991.9688,180.1406 Z " fill="#000000"/><text fill="#000000" font-family="sans-serif" font-size="14" lengthAdjust="spacing" textLength="261.0713" x="4003" y="179.3467">logic_arc_int__baselibs__intrusive_list</text><line style="stroke:#181818;stroke-width:0.5;" x1="3975" x2="4266.0713" y1="190.5" y2="190.5"/></g><!--class logic_arc_int__baselibs__condition_variable--><g id="elem_logic_arc_int__baselibs__condition_variable"><rect fill="#F1F1F1" height="40" id="logic_arc_int__baselibs__condition_variable" rx="2.5" ry="2.5" style="stroke:#181818;stroke-width:0.5;" width="332.7539" x="2953" y="158.5"/><ellipse cx="2968" cy="174.5" fill="#ADD1B2" rx="11" ry="11" style="stroke:#181818;stroke-width:1;"/><path d="M2970.9688,180.1406 Q2970.3906,180.4375 2969.75,180.5781 Q2969.1094,180.7344 2968.4063,180.7344 Q2965.9063,180.7344 2964.5781,179.0938 Q2963.2656,177.4375 2963.2656,174.3125 Q2963.2656,171.1875 2964.5781,169.5313 Q2965.9063,167.875 2968.4063,167.875 Q2969.1094,167.875 2969.75,168.0313 Q2970.4063,168.1875 2970.9688,168.4844 L2970.9688,171.2031 Q2970.3438,170.625 2969.75,170.3594 Q2969.1563,170.0781 2968.5313,170.0781 Q2967.1875,170.0781 2966.5,171.1563 Q2965.8125,172.2188 2965.8125,174.3125 Q2965.8125,176.4063 2966.5,177.4844 Q2967.1875,178.5469 2968.5313,178.5469 Q2969.1563,178.5469 2969.75,178.2813 Q2970.3438,178 2970.9688,177.4219 L2970.9688,180.1406 Z " fill="#000000"/><text fill="#000000" font-family="sans-serif" font-size="14" lengthAdjust="spacing" textLength="300.7539" x="2982" y="179.3467">logic_arc_int__baselibs__condition_variable</text><line style="stroke:#181818;stroke-width:0.5;" x1="2954" x2="3284.7539" y1="190.5" y2="190.5"/></g><!--class comp_arc_sta__baselibs__memory_shared--><g id="elem_comp_arc_sta__baselibs__memory_shared"><rect fill="#F1F1F1" height="40" id="comp_arc_sta__baselibs__memory_shared" rx="2.5" ry="2.5" style="stroke:#181818;stroke-width:0.5;" width="327.0117" x="4641" y="275.5"/><ellipse cx="4656" cy="291.5" fill="#ADD1B2" rx="11" ry="11" style="stroke:#181818;stroke-width:1;"/><path d="M4658.9688,297.1406 Q4658.3906,297.4375 4657.75,297.5781 Q4657.1094,297.7344 4656.4063,297.7344 Q4653.9063,297.7344 4652.5781,296.0938 Q4651.2656,294.4375 4651.2656,291.3125 Q4651.2656,288.1875 4652.5781,286.5313 Q4653.9063,284.875 4656.4063,284.875 Q4657.1094,284.875 4657.75,285.0313 Q4658.4063,285.1875 4658.9688,285.4844 L4658.9688,288.2031 Q4658.3438,287.625 4657.75,287.3594 Q4657.1563,287.0781 4656.5313,287.0781 Q4655.1875,287.0781 4654.5,288.1563 Q4653.8125,289.2188 4653.8125,291.3125 Q4653.8125,293.4063 4654.5,294.4844 Q4655.1875,295.5469 4656.5313,295.5469 Q4657.1563,295.5469 4657.75,295.2813 Q4658.3438,295 4658.9688,294.4219 L4658.9688,297.1406 Z " fill="#000000"/><text fill="#000000" font-family="sans-serif" font-size="14" lengthAdjust="spacing" textLength="295.0117" x="4670" y="296.3467">comp_arc_sta__baselibs__memory_shared</text><line style="stroke:#181818;stroke-width:0.5;" x1="4642" x2="4967.0117" y1="307.5" y2="307.5"/></g><!--class logic_arc_int__baselibs__utils_base64--><g id="elem_logic_arc_int__baselibs__utils_base64"><rect fill="#F1F1F1" height="40" id="logic_arc_int__baselibs__utils_base64" rx="2.5" ry="2.5" style="stroke:#181818;stroke-width:0.5;" width="292.1689" x="5349.5" y="158.5"/><ellipse cx="5364.5" cy="174.5" fill="#ADD1B2" rx="11" ry="11" style="stroke:#181818;stroke-width:1;"/><path d="M5367.4688,180.1406 Q5366.8906,180.4375 5366.25,180.5781 Q5365.6094,180.7344 5364.9063,180.7344 Q5362.4063,180.7344 5361.0781,179.0938 Q5359.7656,177.4375 5359.7656,174.3125 Q5359.7656,171.1875 5361.0781,169.5313 Q5362.4063,167.875 5364.9063,167.875 Q5365.6094,167.875 5366.25,168.0313 Q5366.9063,168.1875 5367.4688,168.4844 L5367.4688,171.2031 Q5366.8438,170.625 5366.25,170.3594 Q5365.6563,170.0781 5365.0313,170.0781 Q5363.6875,170.0781 5363,171.1563 Q5362.3125,172.2188 5362.3125,174.3125 Q5362.3125,176.4063 5363,177.4844 Q5363.6875,178.5469 5365.0313,178.5469 Q5365.6563,178.5469 5366.25,178.2813 Q5366.8438,178 5367.4688,177.4219 L5367.4688,180.1406 Z " fill="#000000"/><text fill="#000000" font-family="sans-serif" font-size="14" lengthAdjust="spacing" textLength="260.1689" x="5378.5" y="179.3467">logic_arc_int__baselibs__utils_base64</text><line style="stroke:#181818;stroke-width:0.5;" x1="5350.5" x2="5640.6689" y1="190.5" y2="190.5"/></g><!--class comp_arc_sta__baselibs__bit_manipulation--><g id="elem_comp_arc_sta__baselibs__bit_manipulation"><rect fill="#F1F1F1" height="40" id="comp_arc_sta__baselibs__bit_manipulation" rx="2.5" ry="2.5" style="stroke:#181818;stroke-width:0.5;" width="330.8057" x="817" y="275.5"/><ellipse cx="832" cy="291.5" fill="#ADD1B2" rx="11" ry="11" style="stroke:#181818;stroke-width:1;"/><path d="M834.9688,297.1406 Q834.3906,297.4375 833.75,297.5781 Q833.1094,297.7344 832.4063,297.7344 Q829.9063,297.7344 828.5781,296.0938 Q827.2656,294.4375 827.2656,291.3125 Q827.2656,288.1875 828.5781,286.5313 Q829.9063,284.875 832.4063,284.875 Q833.1094,284.875 833.75,285.0313 Q834.4063,285.1875 834.9688,285.4844 L834.9688,288.2031 Q834.3438,287.625 833.75,287.3594 Q833.1563,287.0781 832.5313,287.0781 Q831.1875,287.0781 830.5,288.1563 Q829.8125,289.2188 829.8125,291.3125 Q829.8125,293.4063 830.5,294.4844 Q831.1875,295.5469 832.5313,295.5469 Q833.1563,295.5469 833.75,295.2813 Q834.3438,295 834.9688,294.4219 L834.9688,297.1406 Z " fill="#000000"/><text fill="#000000" font-family="sans-serif" font-size="14" lengthAdjust="spacing" textLength="298.8057" x="846" y="296.3467">comp_arc_sta__baselibs__bit_manipulation</text><line style="stroke:#181818;stroke-width:0.5;" x1="818" x2="1146.8057" y1="307.5" y2="307.5"/></g><!--class logic_arc_int__baselibs__promise--><g id="elem_logic_arc_int__baselibs__promise"><rect fill="#F1F1F1" height="40" id="logic_arc_int__baselibs__promise" rx="2.5" ry="2.5" style="stroke:#181818;stroke-width:0.5;" width="261.1885" x="1721" y="158.5"/><ellipse cx="1736" cy="174.5" fill="#ADD1B2" rx="11" ry="11" style="stroke:#181818;stroke-width:1;"/><path d="M1738.9688,180.1406 Q1738.3906,180.4375 1737.75,180.5781 Q1737.1094,180.7344 1736.4063,180.7344 Q1733.9063,180.7344 1732.5781,179.0938 Q1731.2656,177.4375 1731.2656,174.3125 Q1731.2656,171.1875 1732.5781,169.5313 Q1733.9063,167.875 1736.4063,167.875 Q1737.1094,167.875 1737.75,168.0313 Q1738.4063,168.1875 1738.9688,168.4844 L1738.9688,171.2031 Q1738.3438,170.625 1737.75,170.3594 Q1737.1563,170.0781 1736.5313,170.0781 Q1735.1875,170.0781 1734.5,171.1563 Q1733.8125,172.2188 1733.8125,174.3125 Q1733.8125,176.4063 1734.5,177.4844 Q1735.1875,178.5469 1736.5313,178.5469 Q1737.1563,178.5469 1737.75,178.2813 Q1738.3438,178 1738.9688,177.4219 L1738.9688,180.1406 Z " fill="#000000"/><text fill="#000000" font-family="sans-serif" font-size="14" lengthAdjust="spacing" textLength="229.1885" x="1750" y="179.3467">logic_arc_int__baselibs__promise</text><line style="stroke:#181818;stroke-width:0.5;" x1="1722" x2="1981.1885" y1="190.5" y2="190.5"/></g><!--class logic_arc_int__baselibs__executor--><g id="elem_logic_arc_int__baselibs__executor"><rect fill="#F1F1F1" height="40" id="logic_arc_int__baselibs__executor" rx="2.5" ry="2.5" style="stroke:#181818;stroke-width:0.5;" width="266.4385" x="1419.5" y="158.5"/><ellipse cx="1434.5" cy="174.5" fill="#ADD1B2" rx="11" ry="11" style="stroke:#181818;stroke-width:1;"/><path d="M1437.4688,180.1406 Q1436.8906,180.4375 1436.25,180.5781 Q1435.6094,180.7344 1434.9063,180.7344 Q1432.4063,180.7344 1431.0781,179.0938 Q1429.7656,177.4375 1429.7656,174.3125 Q1429.7656,171.1875 1431.0781,169.5313 Q1432.4063,167.875 1434.9063,167.875 Q1435.6094,167.875 1436.25,168.0313 Q1436.9063,168.1875 1437.4688,168.4844 L1437.4688,171.2031 Q1436.8438,170.625 1436.25,170.3594 Q1435.6563,170.0781 1435.0313,170.0781 Q1433.6875,170.0781 1433,171.1563 Q1432.3125,172.2188 1432.3125,174.3125 Q1432.3125,176.4063 1433,177.4844 Q1433.6875,178.5469 1435.0313,178.5469 Q1435.6563,178.5469 1436.25,178.2813 Q1436.8438,178 1437.4688,177.4219 L1437.4688,180.1406 Z " fill="#000000"/><text fill="#000000" font-family="sans-serif" font-size="14" lengthAdjust="spacing" textLength="234.4385" x="1448.5" y="179.3467">logic_arc_int__baselibs__executor</text><line style="stroke:#181818;stroke-width:0.5;" x1="1420.5" x2="1684.9385" y1="190.5" y2="190.5"/></g><!--class logic_arc_int__baselibs__dynamic_array--><g id="elem_logic_arc_int__baselibs__dynamic_array"><rect fill="#F1F1F1" height="40" id="logic_arc_int__baselibs__dynamic_array" rx="2.5" ry="2.5" style="stroke:#181818;stroke-width:0.5;" width="308.3496" x="4302.5" y="158.5"/><ellipse cx="4317.5" cy="174.5" fill="#ADD1B2" rx="11" ry="11" style="stroke:#181818;stroke-width:1;"/><path d="M4320.4688,180.1406 Q4319.8906,180.4375 4319.25,180.5781 Q4318.6094,180.7344 4317.9063,180.7344 Q4315.4063,180.7344 4314.0781,179.0938 Q4312.7656,177.4375 4312.7656,174.3125 Q4312.7656,171.1875 4314.0781,169.5313 Q4315.4063,167.875 4317.9063,167.875 Q4318.6094,167.875 4319.25,168.0313 Q4319.9063,168.1875 4320.4688,168.4844 L4320.4688,171.2031 Q4319.8438,170.625 4319.25,170.3594 Q4318.6563,170.0781 4318.0313,170.0781 Q4316.6875,170.0781 4316,171.1563 Q4315.3125,172.2188 4315.3125,174.3125 Q4315.3125,176.4063 4316,177.4844 Q4316.6875,178.5469 4318.0313,178.5469 Q4318.6563,178.5469 4319.25,178.2813 Q4319.8438,178 4320.4688,177.4219 L4320.4688,180.1406 Z " fill="#000000"/><text fill="#000000" font-family="sans-serif" font-size="14" lengthAdjust="spacing" textLength="276.3496" x="4331.5" y="179.3467">logic_arc_int__baselibs__dynamic_array</text><line style="stroke:#181818;stroke-width:0.5;" x1="4303.5" x2="4609.8496" y1="190.5" y2="190.5"/></g><!--class logic_arc_int__baselibs__task--><g id="elem_logic_arc_int__baselibs__task"><rect fill="#F1F1F1" height="40" id="logic_arc_int__baselibs__task" rx="2.5" ry="2.5" style="stroke:#181818;stroke-width:0.5;" width="234.0156" x="3321.5" y="158.5"/><ellipse cx="3336.5" cy="174.5" fill="#ADD1B2" rx="11" ry="11" style="stroke:#181818;stroke-width:1;"/><path d="M3339.4688,180.1406 Q3338.8906,180.4375 3338.25,180.5781 Q3337.6094,180.7344 3336.9063,180.7344 Q3334.4063,180.7344 3333.0781,179.0938 Q3331.7656,177.4375 3331.7656,174.3125 Q3331.7656,171.1875 3333.0781,169.5313 Q3334.4063,167.875 3336.9063,167.875 Q3337.6094,167.875 3338.25,168.0313 Q3338.9063,168.1875 3339.4688,168.4844 L3339.4688,171.2031 Q3338.8438,170.625 3338.25,170.3594 Q3337.6563,170.0781 3337.0313,170.0781 Q3335.6875,170.0781 3335,171.1563 Q3334.3125,172.2188 3334.3125,174.3125 Q3334.3125,176.4063 3335,177.4844 Q3335.6875,178.5469 3337.0313,178.5469 Q3337.6563,178.5469 3338.25,178.2813 Q3338.8438,178 3339.4688,177.4219 L3339.4688,180.1406 Z " fill="#000000"/><text fill="#000000" font-family="sans-serif" font-size="14" lengthAdjust="spacing" textLength="202.0156" x="3350.5" y="179.3467">logic_arc_int__baselibs__task</text><line style="stroke:#181818;stroke-width:0.5;" x1="3322.5" x2="3554.5156" y1="190.5" y2="190.5"/></g><!--class comp_arc_sta__baselibs__message_passing--><g id="elem_comp_arc_sta__baselibs__message_passing"><rect fill="#F1F1F1" height="40" id="comp_arc_sta__baselibs__message_passing" rx="2.5" ry="2.5" style="stroke:#181818;stroke-width:0.5;" width="337.1357" x="327" y="275.5"/><ellipse cx="342" cy="291.5" fill="#ADD1B2" rx="11" ry="11" style="stroke:#181818;stroke-width:1;"/><path d="M344.9688,297.1406 Q344.3906,297.4375 343.75,297.5781 Q343.1094,297.7344 342.4063,297.7344 Q339.9063,297.7344 338.5781,296.0938 Q337.2656,294.4375 337.2656,291.3125 Q337.2656,288.1875 338.5781,286.5313 Q339.9063,284.875 342.4063,284.875 Q343.1094,284.875 343.75,285.0313 Q344.4063,285.1875 344.9688,285.4844 L344.9688,288.2031 Q344.3438,287.625 343.75,287.3594 Q343.1563,287.0781 342.5313,287.0781 Q341.1875,287.0781 340.5,288.1563 Q339.8125,289.2188 339.8125,291.3125 Q339.8125,293.4063 340.5,294.4844 Q341.1875,295.5469 342.5313,295.5469 Q343.1563,295.5469 343.75,295.2813 Q344.3438,295 344.9688,294.4219 L344.9688,297.1406 Z " fill="#000000"/><text fill="#000000" font-family="sans-serif" font-size="14" lengthAdjust="spacing" textLength="305.1357" x="356" y="296.3467">comp_arc_sta__baselibs__message_passing</text><line style="stroke:#181818;stroke-width:0.5;" x1="328" x2="663.1357" y1="307.5" y2="307.5"/></g><!--class logic_arc_int__baselibs__message_passing--><g id="elem_logic_arc_int__baselibs__message_passing"><rect fill="#F1F1F1" height="40" id="logic_arc_int__baselibs__message_passing" rx="2.5" ry="2.5" style="stroke:#181818;stroke-width:0.5;" width="328.167" x="328.5" y="158.5"/><ellipse cx="343.5" cy="174.5" fill="#ADD1B2" rx="11" ry="11" style="stroke:#181818;stroke-width:1;"/><path d="M346.4688,180.1406 Q345.8906,180.4375 345.25,180.5781 Q344.6094,180.7344 343.9063,180.7344 Q341.4063,180.7344 340.0781,179.0938 Q338.7656,177.4375 338.7656,174.3125 Q338.7656,171.1875 340.0781,169.5313 Q341.4063,167.875 343.9063,167.875 Q344.6094,167.875 345.25,168.0313 Q345.9063,168.1875 346.4688,168.4844 L346.4688,171.2031 Q345.8438,170.625 345.25,170.3594 Q344.6563,170.0781 344.0313,170.0781 Q342.6875,170.0781 342,171.1563 Q341.3125,172.2188 341.3125,174.3125 Q341.3125,176.4063 342,177.4844 Q342.6875,178.5469 344.0313,178.5469 Q344.6563,178.5469 345.25,178.2813 Q345.8438,178 346.4688,177.4219 L346.4688,180.1406 Z " fill="#000000"/><text fill="#000000" font-family="sans-serif" font-size="14" lengthAdjust="spacing" textLength="296.167" x="357.5" y="179.3467">logic_arc_int__baselibs__message_passing</text><line style="stroke:#181818;stroke-width:0.5;" x1="329.5" x2="655.667" y1="190.5" y2="190.5"/></g><!--class comp_arc_sta__baselibs__filesystem--><g id="elem_comp_arc_sta__baselibs__filesystem"><rect fill="#F1F1F1" height="40" id="comp_arc_sta__baselibs__filesystem" rx="2.5" ry="2.5" style="stroke:#181818;stroke-width:0.5;" width="285.4492" x="7" y="275.5"/><ellipse cx="22" cy="291.5" fill="#ADD1B2" rx="11" ry="11" style="stroke:#181818;stroke-width:1;"/><path d="M24.9688,297.1406 Q24.3906,297.4375 23.75,297.5781 Q23.1094,297.7344 22.4063,297.7344 Q19.9063,297.7344 18.5781,296.0938 Q17.2656,294.4375 17.2656,291.3125 Q17.2656,288.1875 18.5781,286.5313 Q19.9063,284.875 22.4063,284.875 Q23.1094,284.875 23.75,285.0313 Q24.4063,285.1875 24.9688,285.4844 L24.9688,288.2031 Q24.3438,287.625 23.75,287.3594 Q23.1563,287.0781 22.5313,287.0781 Q21.1875,287.0781 20.5,288.1563 Q19.8125,289.2188 19.8125,291.3125 Q19.8125,293.4063 20.5,294.4844 Q21.1875,295.5469 22.5313,295.5469 Q23.1563,295.5469 23.75,295.2813 Q24.3438,295 24.9688,294.4219 L24.9688,297.1406 Z " fill="#000000"/><text fill="#000000" font-family="sans-serif" font-size="14" lengthAdjust="spacing" textLength="253.4492" x="36" y="296.3467">comp_arc_sta__baselibs__filesystem</text><line style="stroke:#181818;stroke-width:0.5;" x1="8" x2="291.4492" y1="307.5" y2="307.5"/></g><!--link Feature_User to logic_arc_int__baselibs__future--><g id="link_Feature_User_logic_arc_int__baselibs__future"><path codeLine="14" d="M3074.31,62.99 C3012.83,88.15 2908.9231,130.6777 2846.7031,156.1377 " fill="transparent" id="Feature_User-to-logic_arc_int__baselibs__future" style="stroke:#181818;stroke-width:1;"/><polygon fill="#181818" points="2841.15,158.41,2850.9945,158.7036,2845.7776,156.5164,2847.9648,151.2995,2841.15,158.41" style="stroke:#181818;stroke-width:1;"/><text fill="#000000" font-family="sans-serif" font-size="13" lengthAdjust="spacing" textLength="23.0103" x="2948.5" y="124.5669">use</text></g><!--link Feature_User to logic_arc_int__baselibs__shared_future--><g id="link_Feature_User_logic_arc_int__baselibs__shared_future"><path codeLine="15" d="M3074.34,53.96 C2970.57,75.69 2719.3126,128.3201 2581.3226,157.2201 " fill="transparent" id="Feature_User-to-logic_arc_int__baselibs__shared_future" style="stroke:#181818;stroke-width:1;"/><polygon fill="#181818" points="2575.45,158.45,2585.0788,160.5202,2580.3438,157.4251,2583.4389,152.6901,2575.45,158.45" style="stroke:#181818;stroke-width:1;"/><text fill="#000000" font-family="sans-serif" font-size="13" lengthAdjust="spacing" textLength="23.0103" x="2784.5" y="124.5669">use</text></g><!--link Feature_User to logic_arc_int__baselibs__memory_shared--><g id="link_Feature_User_logic_arc_int__baselibs__memory_shared"><path codeLine="16" d="M3164.57,47.39 C3347.25,59.2 4050.32,105.72 4627.5,158.5 C4633.35,159.03 4633.3277,159.0146 4639.3477,159.5946 " fill="transparent" id="Feature_User-to-logic_arc_int__baselibs__memory_shared" style="stroke:#181818;stroke-width:1;"/><polygon fill="#181818" points="4645.32,160.17,4636.7451,155.3253,4640.343,159.6905,4635.9779,163.2885,4645.32,160.17" style="stroke:#181818;stroke-width:1;"/><text fill="#000000" font-family="sans-serif" font-size="13" lengthAdjust="spacing" textLength="23.0103" x="4256.5" y="124.5669">use</text></g><!--link Feature_User to logic_arc_int__baselibs__filesystem--><g id="link_Feature_User_logic_arc_int__baselibs__filesystem"><path codeLine="18" d="M3074.5,45.46 C2854.04,50.24 1866.06,72.94 1057.5,111.5 C725.22,127.35 641.76,128.06 310.5,158.5 C304.35,159.07 304.0388,159.069 297.6888,159.719 " fill="transparent" id="Feature_User-to-logic_arc_int__baselibs__filesystem" style="stroke:#181818;stroke-width:1;"/><polygon fill="#181818" points="291.72,160.33,301.0805,163.3927,296.694,159.8208,300.2659,155.4343,291.72,160.33" style="stroke:#181818;stroke-width:1;"/><text fill="#000000" font-family="sans-serif" font-size="13" lengthAdjust="spacing" textLength="23.0103" x="1058.5" y="124.5669">use</text></g><!--link Feature_User to logic_arc_int__baselibs__bit_mask_operator--><g id="link_Feature_User_logic_arc_int__baselibs__bit_mask_operator"><path codeLine="19" d="M3074.16,45.99 C2852.09,53.49 1856.95,89.53 1044.5,158.5 C1038.87,158.98 1039.1259,158.9424 1033.3459,159.4624 " fill="transparent" id="Feature_User-to-logic_arc_int__baselibs__bit_mask_operator" style="stroke:#181818;stroke-width:1;"/><polygon fill="#181818" points="1027.37,160,1036.6922,163.1775,1032.3499,159.552,1035.9754,155.2097,1027.37,160" style="stroke:#181818;stroke-width:1;"/><text fill="#000000" font-family="sans-serif" font-size="13" lengthAdjust="spacing" textLength="23.0103" x="1672.5" y="124.5669">use</text></g><!--reverse link logic_arc_int__baselibs__shared_future to comp_arc_sta__baselibs__concurrency--><g id="link_logic_arc_int__baselibs__shared_future_comp_arc_sta__baselibs__concurrency"><path codeLine="20" d="M2506.4968,203.143 C2526.2468,224.373 2553.76,253.94 2573.53,275.19 " fill="transparent" id="logic_arc_int__baselibs__shared_future-backto-comp_arc_sta__baselibs__concurrency" style="stroke:#181818;stroke-width:1;"/><polygon fill="#181818" points="2502.41,198.75,2505.6115,208.064,2505.8156,202.4108,2511.4688,202.615,2502.41,198.75" style="stroke:#181818;stroke-width:1;"/><text fill="#000000" font-family="sans-serif" font-size="13" lengthAdjust="spacing" textLength="76.9082" x="2545.5" y="241.5669">implements</text></g><!--link Feature_User to logic_arc_int__baselibs__synchronized_queue--><g id="link_Feature_User_logic_arc_int__baselibs__synchronized_queue"><path codeLine="21" d="M3164.6,53.8 C3269.5,75.43 3525.7336,128.2683 3666.2336,157.2383 " fill="transparent" id="Feature_User-to-logic_arc_int__baselibs__synchronized_queue" style="stroke:#181818;stroke-width:1;"/><polygon fill="#181818" points="3672.11,158.45,3664.1032,152.7149,3667.213,157.4403,3662.4877,160.5501,3672.11,158.45" style="stroke:#181818;stroke-width:1;"/><text fill="#000000" font-family="sans-serif" font-size="13" lengthAdjust="spacing" textLength="23.0103" x="3520.5" y="124.5669">use</text></g><!--link Feature_User to logic_arc_int__baselibs__bit_manipulation--><g id="link_Feature_User_logic_arc_int__baselibs__bit_manipulation"><path codeLine="22" d="M3074.3,46.59 C2876.23,55.92 2065.17,96.15 1401.5,158.5 C1395.93,159.02 1396.2315,158.9854 1390.5115,159.5454 " fill="transparent" id="Feature_User-to-logic_arc_int__baselibs__bit_manipulation" style="stroke:#181818;stroke-width:1;"/><polygon fill="#181818" points="1384.54,160.13,1393.8869,163.234,1389.5162,159.6428,1393.1074,155.2721,1384.54,160.13" style="stroke:#181818;stroke-width:1;"/><text fill="#000000" font-family="sans-serif" font-size="13" lengthAdjust="spacing" textLength="23.0103" x="1969.5" y="124.5669">use</text></g><!--reverse link logic_arc_int__baselibs__task_result to comp_arc_sta__baselibs__concurrency--><g id="link_logic_arc_int__baselibs__task_result_comp_arc_sta__baselibs__concurrency"><path codeLine="23" d="M2235.4499,200.1567 C2315.8399,221.4567 2439.23,254.15 2519.54,275.43 " fill="transparent" id="logic_arc_int__baselibs__task_result-backto-comp_arc_sta__baselibs__concurrency" style="stroke:#181818;stroke-width:1;"/><polygon fill="#181818" points="2229.65,198.62,2237.3253,204.7917,2234.4832,199.9006,2239.3743,197.0585,2229.65,198.62" style="stroke:#181818;stroke-width:1;"/><text fill="#000000" font-family="sans-serif" font-size="13" lengthAdjust="spacing" textLength="76.9082" x="2401.5" y="241.5669">implements</text></g><!--reverse link logic_arc_int__baselibs__json to comp_arc_sta__baselibs__json--><g id="link_logic_arc_int__baselibs__json_comp_arc_sta__baselibs__json"><path codeLine="24" d="M6076.9346,204.7491 C6077.3046,225.9791 6077.79,253.94 6078.16,275.19 " fill="transparent" id="logic_arc_int__baselibs__json-backto-comp_arc_sta__baselibs__json" style="stroke:#181818;stroke-width:1;"/><polygon fill="#181818" points="6076.83,198.75,6072.9874,207.8183,6076.9171,203.7492,6080.9862,207.6789,6076.83,198.75" style="stroke:#181818;stroke-width:1;"/><text fill="#000000" font-family="sans-serif" font-size="13" lengthAdjust="spacing" textLength="76.9082" x="6078.5" y="241.5669">implements</text></g><!--reverse link logic_arc_int__baselibs__result to comp_arc_sta__baselibs__result--><g id="link_logic_arc_int__baselibs__result_comp_arc_sta__baselibs__result"><path codeLine="25" d="M5797.8418,204.7479 C5797.2818,225.9779 5796.56,253.94 5796,275.19 " fill="transparent" id="logic_arc_int__baselibs__result-backto-comp_arc_sta__baselibs__result" style="stroke:#181818;stroke-width:1;"/><polygon fill="#181818" points="5798,198.75,5793.7641,207.6414,5797.8682,203.7483,5801.7613,207.8523,5798,198.75" style="stroke:#181818;stroke-width:1;"/><text fill="#000000" font-family="sans-serif" font-size="13" lengthAdjust="spacing" textLength="76.9082" x="5798.5" y="241.5669">implements</text></g><!--link Feature_User to logic_arc_int__baselibs__result--><g id="link_Feature_User_logic_arc_int__baselibs__result"><path codeLine="26" d="M3164.57,45.64 C3370.32,50.97 4240.97,74.66 4954.5,111.5 C5267.67,127.67 5346.51,126.95 5658.5,158.5 C5664.36,159.09 5664.3888,159.059 5670.4288,159.749 " fill="transparent" id="Feature_User-to-logic_arc_int__baselibs__result" style="stroke:#181818;stroke-width:1;"/><polygon fill="#181818" points="5676.39,160.43,5667.9022,155.4343,5671.4223,159.8625,5666.9942,163.3827,5676.39,160.43" style="stroke:#181818;stroke-width:1;"/><text fill="#000000" font-family="sans-serif" font-size="13" lengthAdjust="spacing" textLength="23.0103" x="5284.5" y="124.5669">use</text></g><!--reverse link logic_arc_int__baselibs__utils_scoped_op to comp_arc_sta__baselibs__utils--><g id="link_logic_arc_int__baselibs__utils_scoped_op_comp_arc_sta__baselibs__utils"><path codeLine="27" d="M5189.7506,202.1252 C5221.0406,223.4152 5266.19,254.14 5297.4,275.38 " fill="transparent" id="logic_arc_int__baselibs__utils_scoped_op-backto-comp_arc_sta__baselibs__utils" style="stroke:#181818;stroke-width:1;"/><polygon fill="#181818" points="5184.79,198.75,5189.9808,207.1199,5188.9238,201.5627,5194.4811,200.5058,5184.79,198.75" style="stroke:#181818;stroke-width:1;"/><text fill="#000000" font-family="sans-serif" font-size="13" lengthAdjust="spacing" textLength="76.9082" x="5252.5" y="241.5669">implements</text></g><!--reverse link logic_arc_int__baselibs__intrusive_list to comp_arc_sta__baselibs__containers--><g id="link_logic_arc_int__baselibs__intrusive_list_comp_arc_sta__baselibs__containers"><path codeLine="28" d="M4153.3918,202.1527 C4184.3118,223.4427 4228.89,254.14 4259.74,275.38 " fill="transparent" id="logic_arc_int__baselibs__intrusive_list-backto-comp_arc_sta__baselibs__containers" style="stroke:#181818;stroke-width:1;"/><polygon fill="#181818" points="4148.45,198.75,4153.5943,207.1486,4152.5682,201.5856,4158.1312,200.5595,4148.45,198.75" style="stroke:#181818;stroke-width:1;"/><text fill="#000000" font-family="sans-serif" font-size="13" lengthAdjust="spacing" textLength="76.9082" x="4215.5" y="241.5669">implements</text></g><!--link Feature_User to logic_arc_int__baselibs__utils_scoped_op--><g id="link_Feature_User_logic_arc_int__baselibs__utils_scoped_op"><path codeLine="29" d="M3164.56,46.38 C3372.14,55.21 4257,94.9 4980.5,158.5 C4986.47,159.02 4986.5766,159.0157 4992.7166,159.5957 " fill="transparent" id="Feature_User-to-logic_arc_int__baselibs__utils_scoped_op" style="stroke:#181818;stroke-width:1;"/><polygon fill="#181818" points="4998.69,160.16,4990.1061,155.3313,4993.7122,159.6898,4989.3537,163.2959,4998.69,160.16" style="stroke:#181818;stroke-width:1;"/><text fill="#000000" font-family="sans-serif" font-size="13" lengthAdjust="spacing" textLength="23.0103" x="4574.5" y="124.5669">use</text></g><!--reverse link logic_arc_int__baselibs__condition_variable to comp_arc_sta__baselibs__concurrency--><g id="link_logic_arc_int__baselibs__condition_variable_comp_arc_sta__baselibs__concurrency"><path codeLine="30" d="M3026.1575,199.827 C2928.4175,221.117 2776.96,254.11 2679.15,275.41 " fill="transparent" id="logic_arc_int__baselibs__condition_variable-backto-comp_arc_sta__baselibs__concurrency" style="stroke:#181818;stroke-width:1;"/><polygon fill="#181818" points="3032.02,198.55,3022.3749,196.5571,3027.1346,199.6142,3024.0775,204.3738,3032.02,198.55" style="stroke:#181818;stroke-width:1;"/><text fill="#000000" font-family="sans-serif" font-size="13" lengthAdjust="spacing" textLength="76.9082" x="2888.5" y="241.5669">implements</text></g><!--reverse link logic_arc_int__baselibs__memory_shared to comp_arc_sta__baselibs__memory_shared--><g id="link_logic_arc_int__baselibs__memory_shared_comp_arc_sta__baselibs__memory_shared"><path codeLine="31" d="M4804.5,204.75 C4804.5,225.98 4804.5,253.94 4804.5,275.19 " fill="transparent" id="logic_arc_int__baselibs__memory_shared-backto-comp_arc_sta__baselibs__memory_shared" style="stroke:#181818;stroke-width:1;"/><polygon fill="#181818" points="4804.5,198.75,4800.5,207.75,4804.5,203.75,4808.5,207.75,4804.5,198.75" style="stroke:#181818;stroke-width:1;"/><text fill="#000000" font-family="sans-serif" font-size="13" lengthAdjust="spacing" textLength="76.9082" x="4805.5" y="241.5669">implements</text></g><!--link Feature_User to logic_arc_int__baselibs__intrusive_list--><g id="link_Feature_User_logic_arc_int__baselibs__intrusive_list"><path codeLine="32" d="M3164.78,50.52 C3306.78,69.38 3741.5423,127.1498 3971.5523,157.7098 " fill="transparent" id="Feature_User-to-logic_arc_int__baselibs__intrusive_list" style="stroke:#181818;stroke-width:1;"/><polygon fill="#181818" points="3977.5,158.5,3969.1052,153.3495,3972.5436,157.8415,3968.0516,161.2798,3977.5,158.5" style="stroke:#181818;stroke-width:1;"/><text fill="#000000" font-family="sans-serif" font-size="13" lengthAdjust="spacing" textLength="23.0103" x="3740.5" y="124.5669">use</text></g><!--reverse link logic_arc_int__baselibs__utils_base64 to comp_arc_sta__baselibs__utils--><g id="link_logic_arc_int__baselibs__utils_base64_comp_arc_sta__baselibs__utils"><path codeLine="33" d="M5462.0799,202.1113 C5430.5999,223.4013 5385.16,254.14 5353.76,275.38 " fill="transparent" id="logic_arc_int__baselibs__utils_base64-backto-comp_arc_sta__baselibs__utils" style="stroke:#181818;stroke-width:1;"/><polygon fill="#181818" points="5467.05,198.75,5457.354,200.4785,5462.9083,201.5511,5461.8357,207.1053,5467.05,198.75" style="stroke:#181818;stroke-width:1;"/><text fill="#000000" font-family="sans-serif" font-size="13" lengthAdjust="spacing" textLength="76.9082" x="5422.5" y="241.5669">implements</text></g><!--reverse link logic_arc_int__baselibs__bit_mask_operator to comp_arc_sta__baselibs__bit_manipulation--><g id="link_logic_arc_int__baselibs__bit_mask_operator_comp_arc_sta__baselibs__bit_manipulation"><path codeLine="34" d="M884.4722,202.8484 C907.1722,224.0784 939.11,253.94 961.85,275.19 " fill="transparent" id="logic_arc_int__baselibs__bit_mask_operator-backto-comp_arc_sta__baselibs__bit_manipulation" style="stroke:#181818;stroke-width:1;"/><polygon fill="#181818" points="880.09,198.75,883.931,207.819,883.7418,202.1653,889.3955,201.9761,880.09,198.75" style="stroke:#181818;stroke-width:1;"/><text fill="#000000" font-family="sans-serif" font-size="13" lengthAdjust="spacing" textLength="76.9082" x="929.5" y="241.5669">implements</text></g><!--link Feature_User to logic_arc_int__baselibs__promise--><g id="link_Feature_User_logic_arc_int__baselibs__promise"><path codeLine="35" d="M3074.38,48.66 C2922.61,62.76 2416.72,110.49 1999.5,158.5 C1993.84,159.15 1994.0174,159.1159 1988.1774,159.8159 " fill="transparent" id="Feature_User-to-logic_arc_int__baselibs__promise" style="stroke:#181818;stroke-width:1;"/><polygon fill="#181818" points="1982.22,160.53,1991.6321,163.4305,1987.1845,159.9349,1990.68,155.4873,1982.22,160.53" style="stroke:#181818;stroke-width:1;"/><text fill="#000000" font-family="sans-serif" font-size="13" lengthAdjust="spacing" textLength="23.0103" x="2431.5" y="124.5669">use</text></g><!--reverse link logic_arc_int__baselibs__executor to comp_arc_sta__baselibs__concurrency--><g id="link_logic_arc_int__baselibs__executor_comp_arc_sta__baselibs__concurrency"><path codeLine="36" d="M1691.5785,198.1847 C1797.4085,212.1447 1943.33,230.78 2076.5,245.5 C2199.13,259.05 2338.45,272.17 2441.24,281.42 " fill="transparent" id="logic_arc_int__baselibs__executor-backto-comp_arc_sta__baselibs__concurrency" style="stroke:#181818;stroke-width:1;"/><polygon fill="#181818" points="1685.63,197.4,1694.0296,202.5426,1690.5871,198.0539,1695.0758,194.6113,1685.63,197.4" style="stroke:#181818;stroke-width:1;"/><text fill="#000000" font-family="sans-serif" font-size="13" lengthAdjust="spacing" textLength="76.9082" x="2077.5" y="241.5669">implements</text></g><!--reverse link logic_arc_int__baselibs__synchronized_queue to comp_arc_sta__baselibs__concurrency--><g id="link_logic_arc_int__baselibs__synchronized_queue_comp_arc_sta__baselibs__concurrency"><path codeLine="37" d="M3599.3406,199.207 C3480.6706,213.087 3320.55,231.2 3174.5,245.5 C3027.54,259.89 2859.49,273.74 2741.68,283.02 " fill="transparent" id="logic_arc_int__baselibs__synchronized_queue-backto-comp_arc_sta__baselibs__concurrency" style="stroke:#181818;stroke-width:1;"/><polygon fill="#181818" points="3605.3,198.51,3595.8963,195.5826,3600.3339,199.0909,3596.8256,203.5285,3605.3,198.51" style="stroke:#181818;stroke-width:1;"/><text fill="#000000" font-family="sans-serif" font-size="13" lengthAdjust="spacing" textLength="76.9082" x="3338.5" y="241.5669">implements</text></g><!--link Feature_User to logic_arc_int__baselibs__dynamic_array--><g id="link_Feature_User_logic_arc_int__baselibs__dynamic_array"><path codeLine="38" d="M3164.5,48.7 C3319.91,63.25 3848.41,113.08 4284.5,158.5 C4290.33,159.11 4290.2938,159.0936 4296.2938,159.7336 " fill="transparent" id="Feature_User-to-logic_arc_int__baselibs__dynamic_array" style="stroke:#181818;stroke-width:1;"/><polygon fill="#181818" points="4302.26,160.37,4293.735,155.438,4297.2882,159.8397,4292.8865,163.3929,4302.26,160.37" style="stroke:#181818;stroke-width:1;"/><text fill="#000000" font-family="sans-serif" font-size="13" lengthAdjust="spacing" textLength="23.0103" x="3966.5" y="124.5669">use</text></g><!--link Feature_User to logic_arc_int__baselibs__condition_variable--><g id="link_Feature_User_logic_arc_int__baselibs__condition_variable"><path codeLine="39" d="M3119.5,81.55 C3119.5,106.45 3119.5,132.26 3119.5,152.26 " fill="transparent" id="Feature_User-to-logic_arc_int__baselibs__condition_variable" style="stroke:#181818;stroke-width:1;"/><polygon fill="#181818" points="3119.5,158.26,3123.5,149.26,3119.5,153.26,3115.5,149.26,3119.5,158.26" style="stroke:#181818;stroke-width:1;"/><text fill="#000000" font-family="sans-serif" font-size="13" lengthAdjust="spacing" textLength="23.0103" x="3120.5" y="124.5669">use</text></g><!--reverse link logic_arc_int__baselibs__task to comp_arc_sta__baselibs__concurrency--><g id="link_logic_arc_int__baselibs__task_comp_arc_sta__baselibs__concurrency"><path codeLine="40" d="M3315.0917,197.4781 C3221.1117,211.0581 3091.88,229.51 2973.5,245.5 C2897.13,255.82 2812.11,266.78 2741.69,275.71 " fill="transparent" id="logic_arc_int__baselibs__task-backto-comp_arc_sta__baselibs__concurrency" style="stroke:#181818;stroke-width:1;"/><polygon fill="#181818" points="3321.03,196.62,3311.5505,193.9482,3316.0814,197.3351,3312.6946,201.866,3321.03,196.62" style="stroke:#181818;stroke-width:1;"/><text fill="#000000" font-family="sans-serif" font-size="13" lengthAdjust="spacing" textLength="76.9082" x="3089.5" y="241.5669">implements</text></g><!--reverse link logic_arc_int__baselibs__dynamic_array to comp_arc_sta__baselibs__containers--><g id="link_logic_arc_int__baselibs__dynamic_array_comp_arc_sta__baselibs__containers"><path codeLine="41" d="M4423.2494,202.1252 C4391.9594,223.4152 4346.81,254.14 4315.6,275.38 " fill="transparent" id="logic_arc_int__baselibs__dynamic_array-backto-comp_arc_sta__baselibs__containers" style="stroke:#181818;stroke-width:1;"/><polygon fill="#181818" points="4428.21,198.75,4418.5189,200.5058,4424.0762,201.5627,4423.0192,207.1199,4428.21,198.75" style="stroke:#181818;stroke-width:1;"/><text fill="#000000" font-family="sans-serif" font-size="13" lengthAdjust="spacing" textLength="76.9082" x="4383.5" y="241.5669">implements</text></g><!--link Feature_User to logic_arc_int__baselibs__task_result--><g id="link_Feature_User_logic_arc_int__baselibs__task_result"><path codeLine="42" d="M3074.39,50.74 C2936.3,69.83 2521.3135,127.1983 2301.0635,157.6483 " fill="transparent" id="Feature_User-to-logic_arc_int__baselibs__task_result" style="stroke:#181818;stroke-width:1;"/><polygon fill="#181818" points="2295.12,158.47,2304.583,161.1998,2300.0729,157.7853,2303.4874,153.2751,2295.12,158.47" style="stroke:#181818;stroke-width:1;"/><text fill="#000000" font-family="sans-serif" font-size="13" lengthAdjust="spacing" textLength="23.0103" x="2611.5" y="124.5669">use</text></g><!--reverse link logic_arc_int__baselibs__bit_manipulation to comp_arc_sta__baselibs__bit_manipulation--><g id="link_logic_arc_int__baselibs__bit_manipulation_comp_arc_sta__baselibs__bit_manipulation"><path codeLine="43" d="M1178.015,201.2042 C1133.445,222.4742 1067.27,254.05 1022.66,275.34 " fill="transparent" id="logic_arc_int__baselibs__bit_manipulation-backto-comp_arc_sta__baselibs__bit_manipulation" style="stroke:#181818;stroke-width:1;"/><polygon fill="#181818" points="1183.43,198.62,1173.5847,198.8863,1178.9175,200.7735,1177.0303,206.1063,1183.43,198.62" style="stroke:#181818;stroke-width:1;"/><text fill="#000000" font-family="sans-serif" font-size="13" lengthAdjust="spacing" textLength="76.9082" x="1118.5" y="241.5669">implements</text></g><!--reverse link logic_arc_int__baselibs__promise to comp_arc_sta__baselibs__concurrency--><g id="link_logic_arc_int__baselibs__promise_comp_arc_sta__baselibs__concurrency"><path codeLine="44" d="M1974.1327,199.4902 C2056.6027,212.8602 2163.81,230.07 2263.5,245.5 C2328.93,255.63 2401.77,266.55 2462.15,275.5 " fill="transparent" id="logic_arc_int__baselibs__promise-backto-comp_arc_sta__baselibs__concurrency" style="stroke:#181818;stroke-width:1;"/><polygon fill="#181818" points="1968.21,198.53,1976.4539,203.9187,1973.1456,199.3302,1977.7341,196.0218,1968.21,198.53" style="stroke:#181818;stroke-width:1;"/><text fill="#000000" font-family="sans-serif" font-size="13" lengthAdjust="spacing" textLength="76.9082" x="2264.5" y="241.5669">implements</text></g><!--link Feature_User to logic_arc_int__baselibs__executor--><g id="link_Feature_User_logic_arc_int__baselibs__executor"><path codeLine="45" d="M3074.48,47.28 C2898.75,58.31 2242.12,101.19 1703.5,158.5 C1697.72,159.11 1697.7813,159.0798 1691.8213,159.7598 " fill="transparent" id="Feature_User-to-logic_arc_int__baselibs__executor" style="stroke:#181818;stroke-width:1;"/><polygon fill="#181818" points="1685.86,160.44,1695.2554,163.394,1690.8278,159.8732,1694.3486,155.4456,1685.86,160.44" style="stroke:#181818;stroke-width:1;"/><text fill="#000000" font-family="sans-serif" font-size="13" lengthAdjust="spacing" textLength="23.0103" x="2171.5" y="124.5669">use</text></g><!--reverse link logic_arc_int__baselibs__message_passing to comp_arc_sta__baselibs__message_passing--><g id="link_logic_arc_int__baselibs__message_passing_comp_arc_sta__baselibs__message_passing"><path codeLine="46" d="M493.1582,204.7479 C493.7182,225.9779 494.44,253.94 495,275.19 " fill="transparent" id="logic_arc_int__baselibs__message_passing-backto-comp_arc_sta__baselibs__message_passing" style="stroke:#181818;stroke-width:1;"/><polygon fill="#181818" points="493,198.75,489.2387,207.8523,493.1318,203.7483,497.2359,207.6414,493,198.75" style="stroke:#181818;stroke-width:1;"/><text fill="#000000" font-family="sans-serif" font-size="13" lengthAdjust="spacing" textLength="76.9082" x="495.5" y="241.5669">implements</text></g><!--link Feature_User to logic_arc_int__baselibs__task--><g id="link_Feature_User_logic_arc_int__baselibs__task"><path codeLine="47" d="M3164.53,63.27 C3225.07,88.51 3326.5721,130.8309 3387.3921,156.1909 " fill="transparent" id="Feature_User-to-logic_arc_int__baselibs__task" style="stroke:#181818;stroke-width:1;"/><polygon fill="#181818" points="3392.93,158.5,3386.1626,151.3444,3388.3151,156.5757,3383.0838,158.7282,3392.93,158.5" style="stroke:#181818;stroke-width:1;"/><text fill="#000000" font-family="sans-serif" font-size="13" lengthAdjust="spacing" textLength="23.0103" x="3318.5" y="124.5669">use</text></g><!--link Feature_User to logic_arc_int__baselibs__message_passing--><g id="link_Feature_User_logic_arc_int__baselibs__message_passing"><path codeLine="48" d="M3074.21,45.86 C2876.59,51.88 2070.17,77.37 1408.5,111.5 C1082.04,128.34 1000.24,131.08 674.5,158.5 C668.64,158.99 668.6551,158.9641 662.6351,159.5141 " fill="transparent" id="Feature_User-to-logic_arc_int__baselibs__message_passing" style="stroke:#181818;stroke-width:1;"/><polygon fill="#181818" points="656.66,160.06,665.9866,163.2246,661.6393,159.6051,665.2587,155.2577,656.66,160.06" style="stroke:#181818;stroke-width:1;"/><text fill="#000000" font-family="sans-serif" font-size="13" lengthAdjust="spacing" textLength="23.0103" x="1409.5" y="124.5669">use</text></g><!--link Feature_User to logic_arc_int__baselibs__utils_base64--><g id="link_Feature_User_logic_arc_int__baselibs__utils_base64"><path codeLine="49" d="M3164.53,46.2 C3345.52,53.12 4037.54,80.24 4606.5,111.5 C4928.91,129.21 5009.91,129.47 5331.5,158.5 C5337.35,159.03 5337.3496,158.9949 5343.3696,159.5949 " fill="transparent" id="Feature_User-to-logic_arc_int__baselibs__utils_base64" style="stroke:#181818;stroke-width:1;"/><polygon fill="#181818" points="5349.34,160.19,5340.7811,155.3171,5344.3647,159.6941,5339.9877,163.2777,5349.34,160.19" style="stroke:#181818;stroke-width:1;"/><text fill="#000000" font-family="sans-serif" font-size="13" lengthAdjust="spacing" textLength="23.0103" x="4922.5" y="124.5669">use</text></g><!--link Feature_User to logic_arc_int__baselibs__json--><g id="link_Feature_User_logic_arc_int__baselibs__json"><path codeLine="50" d="M3164.77,45.12 C3394.25,48.44 4451.96,65.62 5316.5,111.5 C5592.9,126.17 5662.26,129.3 5937.5,158.5 C5944.77,159.27 5946.2824,159.4079 5953.8124,160.3079 " fill="transparent" id="Feature_User-to-logic_arc_int__baselibs__json" style="stroke:#181818;stroke-width:1;"/><polygon fill="#181818" points="5959.77,161.02,5951.3083,155.9802,5954.8053,160.4266,5950.3589,163.9236,5959.77,161.02" style="stroke:#181818;stroke-width:1;"/><text fill="#000000" font-family="sans-serif" font-size="13" lengthAdjust="spacing" textLength="23.0103" x="5608.5" y="124.5669">use</text></g><!--reverse link logic_arc_int__baselibs__future to comp_arc_sta__baselibs__concurrency--><g id="link_logic_arc_int__baselibs__future_comp_arc_sta__baselibs__concurrency"><path codeLine="51" d="M2755.2995,201.7075 C2717.7195,222.9975 2662.74,254.14 2625.25,275.38 " fill="transparent" id="logic_arc_int__baselibs__future-backto-comp_arc_sta__baselibs__concurrency" style="stroke:#181818;stroke-width:1;"/><polygon fill="#181818" points="2760.52,198.75,2750.7176,199.706,2756.1696,201.2146,2754.661,206.6666,2760.52,198.75" style="stroke:#181818;stroke-width:1;"/><text fill="#000000" font-family="sans-serif" font-size="13" lengthAdjust="spacing" textLength="76.9082" x="2706.5" y="241.5669">implements</text></g><!--reverse link logic_arc_int__baselibs__filesystem to comp_arc_sta__baselibs__filesystem--><g id="link_logic_arc_int__baselibs__filesystem_comp_arc_sta__baselibs__filesystem"><path codeLine="52" d="M152.621,204.7464 C151.881,225.9764 150.91,253.94 150.17,275.19 " fill="transparent" id="logic_arc_int__baselibs__filesystem-backto-comp_arc_sta__baselibs__filesystem" style="stroke:#181818;stroke-width:1;"/><polygon fill="#181818" points="152.83,198.75,148.5189,207.6052,152.6558,203.747,156.5141,207.8839,152.83,198.75" style="stroke:#181818;stroke-width:1;"/><text fill="#000000" font-family="sans-serif" font-size="13" lengthAdjust="spacing" textLength="76.9082" x="153.5" y="241.5669">implements</text></g><!--SRC=[hLPDSzGm3BtdLtXwty8m30Ucqmipd3ZIiqTnnAweFr9BBWqC_nrdDz3DDjriJ8vEf2Sz-UL5O6tueHqzaTzM4bebGTL193ZLK4GZ57oremOL2qOCqhLuEADhfLCW4gbEWbpTi7GMRwjhOBAr-bLz8O-VWWrHHMpsfwyxClSUcTMxwxVLx-hcpP1JWP4ST_KPGL94TSSOhnIm6Xxe_e6gHgTDixbLDcp9Q8X6anUjQs2qLBFMtr8V-L4bnaLvl8FSRN6wGnTYDw0CwOlQ9elSvLcxvRLh4ks0xtLeCKAUvm1XWcltyInm76-2Dob6zAPJcxHWAEHQYmwzyBBHTjxiOl3qCsCz94nOoj5JcopqsboDelI3YyZ9ofZWQz3VEVWPp3xaCh13uHcugUuMZEvl-jc19I7BCttiOpIRBBCcQ-qoXlac1B85n3dqV8o9wH6r9Ivd-wB9bNII8nlgbQSV8HBK5Y_ZFpA6cHed9b8uWTD1hdJl_Vd3-yj8dtwjCmKc3AoGUnk38yRLRXsVqAGN3QrWh1EMM4YvwJou_Qi8tN9ZdTBrYjQwiacSa2qSsSZppv8j4lBnNsfTsVoJTo7nPpcVPUtofWPRr2qmv_rmrhL6qVzrAoMBrqdrfG1ZTrkQVVZLh_J1JErPhw4-Bunpe4URvJ7m7m00]--></g></svg>