<svg xmlns="http://www.w3.org/2000/svg" xmlns:xlink="http://www.w3.org/1999/xlink" contentStyleType="text/css" data-diagram-type="CLASS" height="322px" preserveAspectRatio="none" style="width:6207px;height:322px;background:#FFFFFF;" version="1.1" viewBox="0 0 6207 322" width="6207px" zoomAndPan="magnify"><defs/><g><!--entity Feature_User--><g id="elem_Feature_User"><ellipse cx="2989.6685" cy="14" fill="#F1F1F1" rx="8" ry="8" style="stroke:#181818;stroke-width:0.5;"/><path d="M2989.6685,22 L2989.6685,49 M2976.6685,30 L3002.6685,30 M2989.6685,49 L2976.6685,64 M2989.6685,49 L3002.6685,64 " fill="transparent" style="stroke:#181818;stroke-width:0.5;"/><text fill="#000000" font-family="sans-serif" font-size="14" lengthAdjust="spacing" textLength="90.3369" x="2944.5" y="78.4951">Feature User</text></g><!--class logic_arc_int__baselibs__dynamic_array--><g id="elem_logic_arc_int__baselibs__dynamic_array"><rect fill="#F1F1F1" height="40" id="logic_arc_int__baselibs__dynamic_array" rx="2.5" ry="2.5" style="stroke:#181818;stroke-width:0.5;" width="308.3496" x="3849.5" y="158.5"/><ellipse cx="3864.5" cy="174.5" fill="#ADD1B2" rx="11" ry="11" style="stroke:#181818;stroke-width:1;"/><path d="M3867.4688,180.1406 Q3866.8906,180.4375 3866.25,180.5781 Q3865.6094,180.7344 3864.9063,180.7344 Q3862.4063,180.7344 3861.0781,179.0938 Q3859.7656,177.4375 3859.7656,174.3125 Q3859.7656,171.1875 3861.0781,169.5313 Q3862.4063,167.875 3864.9063,167.875 Q3865.6094,167.875 3866.25,168.0313 Q3866.9063,168.1875 3867.4688,168.4844 L3867.4688,171.2031 Q3866.8438,170.625 3866.25,170.3594 Q3865.6563,170.0781 3865.0313,170.0781 Q3863.6875,170.0781 3863,171.1563 Q3862.3125,172.2188 3862.3125,174.3125 Q3862.3125,176.4063 3863,177.4844 Q3863.6875,178.5469 3865.0313,178.5469 Q3865.6563,178.5469 3866.25,178.2813 Q3866.8438,178 3867.4688,177.4219 L3867.4688,180.1406 Z " fill="#000000"/><text fill="#000000" font-family="sans-serif" font-size="14" lengthAdjust="spacing" textLength="276.3496" x="3878.5" y="179.3467">logic_arc_int__baselibs__dynamic_array</text><line style="stroke:#181818;stroke-width:0.5;" x1="3850.5" x2="4156.8496" y1="190.5" y2="190.5"/></g><!--class logic_arc_int__baselibs__filesystem--><g id="elem_logic_arc_int__baselibs__filesystem"><rect fill="#F1F1F1" height="40" id="logic_arc_int__baselibs__filesystem" rx="2.5" ry="2.5" style="stroke:#181818;stroke-width:0.5;" width="276.4805" x="5188.5" y="158.5"/><ellipse cx="5203.5" cy="174.5" fill="#ADD1B2" rx="11" ry="11" style="stroke:#181818;stroke-width:1;"/><path d="M5206.4688,180.1406 Q5205.8906,180.4375 5205.25,180.5781 Q5204.6094,180.7344 5203.9063,180.7344 Q5201.4063,180.7344 5200.0781,179.0938 Q5198.7656,177.4375 5198.7656,174.3125 Q5198.7656,171.1875 5200.0781,169.5313 Q5201.4063,167.875 5203.9063,167.875 Q5204.6094,167.875 5205.25,168.0313 Q5205.9063,168.1875 5206.4688,168.4844 L5206.4688,171.2031 Q5205.8438,170.625 5205.25,170.3594 Q5204.6563,170.0781 5204.0313,170.0781 Q5202.6875,170.0781 5202,171.1563 Q5201.3125,172.2188 5201.3125,174.3125 Q5201.3125,176.4063 5202,177.4844 Q5202.6875,178.5469 5204.0313,178.5469 Q5204.6563,178.5469 5205.25,178.2813 Q5205.8438,178 5206.4688,177.4219 L5206.4688,180.1406 Z " fill="#000000"/><text fill="#000000" font-family="sans-serif" font-size="14" lengthAdjust="spacing" textLength="244.4805" x="5217.5" y="179.3467">logic_arc_int__baselibs__filesystem</text><line style="stroke:#181818;stroke-width:0.5;" x1="5189.5" x2="5463.9805" y1="190.5" y2="190.5"/></g><!--class logic_arc_int__baselibs__utils_scoped_op--><g id="elem_logic_arc_int__baselibs__utils_scoped_op"><rect fill="#F1F1F1" height="40" id="logic_arc_int__baselibs__utils_scoped_op" rx="2.5" ry="2.5" style="stroke:#181818;stroke-width:0.5;" width="315.377" x="3171" y="158.5"/><ellipse cx="3186" cy="174.5" fill="#ADD1B2" rx="11" ry="11" style="stroke:#181818;stroke-width:1;"/><path d="M3188.9688,180.1406 Q3188.3906,180.4375 3187.75,180.5781 Q3187.1094,180.7344 3186.4063,180.7344 Q3183.9063,180.7344 3182.5781,179.0938 Q3181.2656,177.4375 3181.2656,174.3125 Q3181.2656,171.1875 3182.5781,169.5313 Q3183.9063,167.875 3186.4063,167.875 Q3187.1094,167.875 3187.75,168.0313 Q3188.4063,168.1875 3188.9688,168.4844 L3188.9688,171.2031 Q3188.3438,170.625 3187.75,170.3594 Q3187.1563,170.0781 3186.5313,170.0781 Q3185.1875,170.0781 3184.5,171.1563 Q3183.8125,172.2188 3183.8125,174.3125 Q3183.8125,176.4063 3184.5,177.4844 Q3185.1875,178.5469 3186.5313,178.5469 Q3187.1563,178.5469 3187.75,178.2813 Q3188.3438,178 3188.9688,177.4219 L3188.9688,180.1406 Z " fill="#000000"/><text fill="#000000" font-family="sans-serif" font-size="14" lengthAdjust="spacing" textLength="283.377" x="3200" y="179.3467">logic_arc_int__baselibs__utils_scoped_op</text><line style="stroke:#181818;stroke-width:0.5;" x1="3172" x2="3485.377" y1="190.5" y2="190.5"/></g><!--class comp_arc_sta__baselibs__concurrency--><g id="elem_comp_arc_sta__baselibs__concurrency"><rect fill="#F1F1F1" height="40" id="comp_arc_sta__baselibs__concurrency" rx="2.5" ry="2.5" style="stroke:#181818;stroke-width:0.5;" width="300.2012" x="1421.5" y="275.5"/><ellipse cx="1436.5" cy="291.5" fill="#ADD1B2" rx="11" ry="11" style="stroke:#181818;stroke-width:1;"/><path d="M1439.4688,297.1406 Q1438.8906,297.4375 1438.25,297.5781 Q1437.6094,297.7344 1436.9063,297.7344 Q1434.4063,297.7344 1433.0781,296.0938 Q1431.7656,294.4375 1431.7656,291.3125 Q1431.7656,288.1875 1433.0781,286.5313 Q1434.4063,284.875 1436.9063,284.875 Q1437.6094,284.875 1438.25,285.0313 Q1438.9063,285.1875 1439.4688,285.4844 L1439.4688,288.2031 Q1438.8438,287.625 1438.25,287.3594 Q1437.6563,287.0781 1437.0313,287.0781 Q1435.6875,287.0781 1435,288.1563 Q1434.3125,289.2188 1434.3125,291.3125 Q1434.3125,293.4063 1435,294.4844 Q1435.6875,295.5469 1437.0313,295.5469 Q1437.6563,295.5469 1438.25,295.2813 Q1438.8438,295 1439.4688,294.4219 L1439.4688,297.1406 Z " fill="#000000"/><text fill="#000000" font-family="sans-serif" font-size="14" lengthAdjust="spacing" textLength="268.2012" x="1450.5" y="296.3467">comp_arc_sta__baselibs__concurrency</text><line style="stroke:#181818;stroke-width:0.5;" x1="1422.5" x2="1720.7012" y1="307.5" y2="307.5"/></g><!--class logic_arc_int__baselibs__task_result--><g id="elem_logic_arc_int__baselibs__task_result"><rect fill="#F1F1F1" height="40" id="logic_arc_int__baselibs__task_result" rx="2.5" ry="2.5" style="stroke:#181818;stroke-width:0.5;" width="280.9307" x="2231" y="158.5"/><ellipse cx="2246" cy="174.5" fill="#ADD1B2" rx="11" ry="11" style="stroke:#181818;stroke-width:1;"/><path d="M2248.9688,180.1406 Q2248.3906,180.4375 2247.75,180.5781 Q2247.1094,180.7344 2246.4063,180.7344 Q2243.9063,180.7344 2242.5781,179.0938 Q2241.2656,177.4375 2241.2656,174.3125 Q2241.2656,171.1875 2242.5781,169.5313 Q2243.9063,167.875 2246.4063,167.875 Q2247.1094,167.875 2247.75,168.0313 Q2248.4063,168.1875 2248.9688,168.4844 L2248.9688,171.2031 Q2248.3438,170.625 2247.75,170.3594 Q2247.1563,170.0781 2246.5313,170.0781 Q2245.1875,170.0781 2244.5,171.1563 Q2243.8125,172.2188 2243.8125,174.3125 Q2243.8125,176.4063 2244.5,177.4844 Q2245.1875,178.5469 2246.5313,178.5469 Q2247.1563,178.5469 2247.75,178.2813 Q2248.3438,178 2248.9688,177.4219 L2248.9688,180.1406 Z " fill="#000000"/><text fill="#000000" font-family="sans-serif" font-size="14" lengthAdjust="spacing" textLength="248.9307" x="2260" y="179.3467">logic_arc_int__baselibs__task_result</text><line style="stroke:#181818;stroke-width:0.5;" x1="2232" x2="2510.9307" y1="190.5" y2="190.5"/></g><!--class logic_arc_int__baselibs__future--><g id="elem_logic_arc_int__baselibs__future"><rect fill="#F1F1F1" height="40" id="logic_arc_int__baselibs__future" rx="2.5" ry="2.5" style="stroke:#181818;stroke-width:0.5;" width="247.0791" x="1949" y="158.5"/><ellipse cx="1964" cy="174.5" fill="#ADD1B2" rx="11" ry="11" style="stroke:#181818;stroke-width:1;"/><path d="M1966.9688,180.1406 Q1966.3906,180.4375 1965.75,180.5781 Q1965.1094,180.7344 1964.4063,180.7344 Q1961.9063,180.7344 1960.5781,179.0938 Q1959.2656,177.4375 1959.2656,174.3125 Q1959.2656,171.1875 1960.5781,169.5313 Q1961.9063,167.875 1964.4063,167.875 Q1965.1094,167.875 1965.75,168.0313 Q1966.4063,168.1875 1966.9688,168.4844 L1966.9688,171.2031 Q1966.3438,170.625 1965.75,170.3594 Q1965.1563,170.0781 1964.5313,170.0781 Q1963.1875,170.0781 1962.5,171.1563 Q1961.8125,172.2188 1961.8125,174.3125 Q1961.8125,176.4063 1962.5,177.4844 Q1963.1875,178.5469 1964.5313,178.5469 Q1965.1563,178.5469 1965.75,178.2813 Q1966.3438,178 1966.9688,177.4219 L1966.9688,180.1406 Z " fill="#000000"/><text fill="#000000" font-family="sans-serif" font-size="14" lengthAdjust="spacing" textLength="215.0791" x="1978" y="179.3467">logic_arc_int__baselibs__future</text><line style="stroke:#181818;stroke-width:0.5;" x1="1950" x2="2195.0791" y1="190.5" y2="190.5"/></g><!--class logic_arc_int__baselibs__json--><g id="elem_logic_arc_int__baselibs__json"><rect fill="#F1F1F1" height="40" id="logic_arc_int__baselibs__json" rx="2.5" ry="2.5" style="stroke:#181818;stroke-width:0.5;" width="233.168" x="4920" y="158.5"/><ellipse cx="4935" cy="174.5" fill="#ADD1B2" rx="11" ry="11" style="stroke:#181818;stroke-width:1;"/><path d="M4937.9688,180.1406 Q4937.3906,180.4375 4936.75,180.5781 Q4936.1094,180.7344 4935.4063,180.7344 Q4932.9063,180.7344 4931.5781,179.0938 Q4930.2656,177.4375 4930.2656,174.3125 Q4930.2656,171.1875 4931.5781,169.5313 Q4932.9063,167.875 4935.4063,167.875 Q4936.1094,167.875 4936.75,168.0313 Q4937.4063,168.1875 4937.9688,168.4844 L4937.9688,171.2031 Q4937.3438,170.625 4936.75,170.3594 Q4936.1563,170.0781 4935.5313,170.0781 Q4934.1875,170.0781 4933.5,171.1563 Q4932.8125,172.2188 4932.8125,174.3125 Q4932.8125,176.4063 4933.5,177.4844 Q4934.1875,178.5469 4935.5313,178.5469 Q4936.1563,178.5469 4936.75,178.2813 Q4937.3438,178 4937.9688,177.4219 L4937.9688,180.1406 Z " fill="#000000"/><text fill="#000000" font-family="sans-serif" font-size="14" lengthAdjust="spacing" textLength="201.168" x="4949" y="179.3467">logic_arc_int__baselibs__json</text><line style="stroke:#181818;stroke-width:0.5;" x1="4921" x2="5152.168" y1="190.5" y2="190.5"/></g><!--class comp_arc_sta__baselibs__message_passing--><g id="elem_comp_arc_sta__baselibs__message_passing"><rect fill="#F1F1F1" height="40" id="comp_arc_sta__baselibs__message_passing" rx="2.5" ry="2.5" style="stroke:#181818;stroke-width:0.5;" width="337.1357" x="5863" y="275.5"/><ellipse cx="5878" cy="291.5" fill="#ADD1B2" rx="11" ry="11" style="stroke:#181818;stroke-width:1;"/><path d="M5880.9688,297.1406 Q5880.3906,297.4375 5879.75,297.5781 Q5879.1094,297.7344 5878.4063,297.7344 Q5875.9063,297.7344 5874.5781,296.0938 Q5873.2656,294.4375 5873.2656,291.3125 Q5873.2656,288.1875 5874.5781,286.5313 Q5875.9063,284.875 5878.4063,284.875 Q5879.1094,284.875 5879.75,285.0313 Q5880.4063,285.1875 5880.9688,285.4844 L5880.9688,288.2031 Q5880.3438,287.625 5879.75,287.3594 Q5879.1563,287.0781 5878.5313,287.0781 Q5877.1875,287.0781 5876.5,288.1563 Q5875.8125,289.2188 5875.8125,291.3125 Q5875.8125,293.4063 5876.5,294.4844 Q5877.1875,295.5469 5878.5313,295.5469 Q5879.1563,295.5469 5879.75,295.2813 Q5880.3438,295 5880.9688,294.4219 L5880.9688,297.1406 Z " fill="#000000"/><text fill="#000000" font-family="sans-serif" font-size="14" lengthAdjust="spacing" textLength="305.1357" x="5892" y="296.3467">comp_arc_sta__baselibs__message_passing</text><line style="stroke:#181818;stroke-width:0.5;" x1="5864" x2="6199.1357" y1="307.5" y2="307.5"/></g><!--class logic_arc_int__baselibs__message_passing--><g id="elem_logic_arc_int__baselibs__message_passing"><rect fill="#F1F1F1" height="40" id="logic_arc_int__baselibs__message_passing" rx="2.5" ry="2.5" style="stroke:#181818;stroke-width:0.5;" width="328.167" x="5862.5" y="158.5"/><ellipse cx="5877.5" cy="174.5" fill="#ADD1B2" rx="11" ry="11" style="stroke:#181818;stroke-width:1;"/><path d="M5880.4688,180.1406 Q5879.8906,180.4375 5879.25,180.5781 Q5878.6094,180.7344 5877.9063,180.7344 Q5875.4063,180.7344 5874.0781,179.0938 Q5872.7656,177.4375 5872.7656,174.3125 Q5872.7656,171.1875 5874.0781,169.5313 Q5875.4063,167.875 5877.9063,167.875 Q5878.6094,167.875 5879.25,168.0313 Q5879.9063,168.1875 5880.4688,168.4844 L5880.4688,171.2031 Q5879.8438,170.625 5879.25,170.3594 Q5878.6563,170.0781 5878.0313,170.0781 Q5876.6875,170.0781 5876,171.1563 Q5875.3125,172.2188 5875.3125,174.3125 Q5875.3125,176.4063 5876,177.4844 Q5876.6875,178.5469 5878.0313,178.5469 Q5878.6563,178.5469 5879.25,178.2813 Q5879.8438,178 5880.4688,177.4219 L5880.4688,180.1406 Z " fill="#000000"/><text fill="#000000" font-family="sans-serif" font-size="14" lengthAdjust="spacing" textLength="296.167" x="5891.5" y="179.3467">logic_arc_int__baselibs__message_passing</text><line style="stroke:#181818;stroke-width:0.5;" x1="5863.5" x2="6189.667" y1="190.5" y2="190.5"/></g><!--class logic_arc_int__baselibs__shared_future--><g id="elem_logic_arc_int__baselibs__shared_future"><rect fill="#F1F1F1" height="40" id="logic_arc_int__baselibs__shared_future" rx="2.5" ry="2.5" style="stroke:#181818;stroke-width:0.5;" width="302.0811" x="1243.5" y="158.5"/><ellipse cx="1258.5" cy="174.5" fill="#ADD1B2" rx="11" ry="11" style="stroke:#181818;stroke-width:1;"/><path d="M1261.4688,180.1406 Q1260.8906,180.4375 1260.25,180.5781 Q1259.6094,180.7344 1258.9063,180.7344 Q1256.4063,180.7344 1255.0781,179.0938 Q1253.7656,177.4375 1253.7656,174.3125 Q1253.7656,171.1875 1255.0781,169.5313 Q1256.4063,167.875 1258.9063,167.875 Q1259.6094,167.875 1260.25,168.0313 Q1260.9063,168.1875 1261.4688,168.4844 L1261.4688,171.2031 Q1260.8438,170.625 1260.25,170.3594 Q1259.6563,170.0781 1259.0313,170.0781 Q1257.6875,170.0781 1257,171.1563 Q1256.3125,172.2188 1256.3125,174.3125 Q1256.3125,176.4063 1257,177.4844 Q1257.6875,178.5469 1259.0313,178.5469 Q1259.6563,178.5469 1260.25,178.2813 Q1260.8438,178 1261.4688,177.4219 L1261.4688,180.1406 Z " fill="#000000"/><text fill="#000000" font-family="sans-serif" font-size="14" lengthAdjust="spacing" textLength="270.0811" x="1272.5" y="179.3467">logic_arc_int__baselibs__shared_future</text><line style="stroke:#181818;stroke-width:0.5;" x1="1244.5" x2="1544.5811" y1="190.5" y2="190.5"/></g><!--class comp_arc_sta__baselibs__memory_shared--><g id="elem_comp_arc_sta__baselibs__memory_shared"><rect fill="#F1F1F1" height="40" id="comp_arc_sta__baselibs__memory_shared" rx="2.5" ry="2.5" style="stroke:#181818;stroke-width:0.5;" width="327.0117" x="5501" y="275.5"/><ellipse cx="5516" cy="291.5" fill="#ADD1B2" rx="11" ry="11" style="stroke:#181818;stroke-width:1;"/><path d="M5518.9688,297.1406 Q5518.3906,297.4375 5517.75,297.5781 Q5517.1094,297.7344 5516.4063,297.7344 Q5513.9063,297.7344 5512.5781,296.0938 Q5511.2656,294.4375 5511.2656,291.3125 Q5511.2656,288.1875 5512.5781,286.5313 Q5513.9063,284.875 5516.4063,284.875 Q5517.1094,284.875 5517.75,285.0313 Q5518.4063,285.1875 5518.9688,285.4844 L5518.9688,288.2031 Q5518.3438,287.625 5517.75,287.3594 Q5517.1563,287.0781 5516.5313,287.0781 Q5515.1875,287.0781 5514.5,288.1563 Q5513.8125,289.2188 5513.8125,291.3125 Q5513.8125,293.4063 5514.5,294.4844 Q5515.1875,295.5469 5516.5313,295.5469 Q5517.1563,295.5469 5517.75,295.2813 Q5518.3438,295 5518.9688,294.4219 L5518.9688,297.1406 Z " fill="#000000"/><text fill="#000000" font-family="sans-serif" font-size="14" lengthAdjust="spacing" textLength="295.0117" x="5530" y="296.3467">comp_arc_sta__baselibs__memory_shared</text><line style="stroke:#181818;stroke-width:0.5;" x1="5502" x2="5827.0117" y1="307.5" y2="307.5"/></g><!--class logic_arc_int__baselibs__memory_shared--><g id="elem_logic_arc_int__baselibs__memory_shared"><rect fill="#F1F1F1" height="40" id="logic_arc_int__baselibs__memory_shared" rx="2.5" ry="2.5" style="stroke:#181818;stroke-width:0.5;" width="318.043" x="5503.5" y="158.5"/><ellipse cx="5518.5" cy="174.5" fill="#ADD1B2" rx="11" ry="11" style="stroke:#181818;stroke-width:1;"/><path d="M5521.4688,180.1406 Q5520.8906,180.4375 5520.25,180.5781 Q5519.6094,180.7344 5518.9063,180.7344 Q5516.4063,180.7344 5515.0781,179.0938 Q5513.7656,177.4375 5513.7656,174.3125 Q5513.7656,171.1875 5515.0781,169.5313 Q5516.4063,167.875 5518.9063,167.875 Q5519.6094,167.875 5520.25,168.0313 Q5520.9063,168.1875 5521.4688,168.4844 L5521.4688,171.2031 Q5520.8438,170.625 5520.25,170.3594 Q5519.6563,170.0781 5519.0313,170.0781 Q5517.6875,170.0781 5517,171.1563 Q5516.3125,172.2188 5516.3125,174.3125 Q5516.3125,176.4063 5517,177.4844 Q5517.6875,178.5469 5519.0313,178.5469 Q5519.6563,178.5469 5520.25,178.2813 Q5520.8438,178 5521.4688,177.4219 L5521.4688,180.1406 Z " fill="#000000"/><text fill="#000000" font-family="sans-serif" font-size="14" lengthAdjust="spacing" textLength="286.043" x="5532.5" y="179.3467">logic_arc_int__baselibs__memory_shared</text><line style="stroke:#181818;stroke-width:0.5;" x1="5504.5" x2="5820.543" y1="190.5" y2="190.5"/></g><!--class logic_arc_int__baselibs__bit_manipulation--><g id="elem_logic_arc_int__baselibs__bit_manipulation"><rect fill="#F1F1F1" height="40" id="logic_arc_int__baselibs__bit_manipulation" rx="2.5" ry="2.5" style="stroke:#181818;stroke-width:0.5;" width="321.8369" x="4192.5" y="158.5"/><ellipse cx="4207.5" cy="174.5" fill="#ADD1B2" rx="11" ry="11" style="stroke:#181818;stroke-width:1;"/><path d="M4210.4688,180.1406 Q4209.8906,180.4375 4209.25,180.5781 Q4208.6094,180.7344 4207.9063,180.7344 Q4205.4063,180.7344 4204.0781,179.0938 Q4202.7656,177.4375 4202.7656,174.3125 Q4202.7656,171.1875 4204.0781,169.5313 Q4205.4063,167.875 4207.9063,167.875 Q4208.6094,167.875 4209.25,168.0313 Q4209.9063,168.1875 4210.4688,168.4844 L4210.4688,171.2031 Q4209.8438,170.625 4209.25,170.3594 Q4208.6563,170.0781 4208.0313,170.0781 Q4206.6875,170.0781 4206,171.1563 Q4205.3125,172.2188 4205.3125,174.3125 Q4205.3125,176.4063 4206,177.4844 Q4206.6875,178.5469 4208.0313,178.5469 Q4208.6563,178.5469 4209.25,178.2813 Q4209.8438,178 4210.4688,177.4219 L4210.4688,180.1406 Z " fill="#000000"/><text fill="#000000" font-family="sans-serif" font-size="14" lengthAdjust="spacing" textLength="289.8369" x="4221.5" y="179.3467">logic_arc_int__baselibs__bit_manipulation</text><line style="stroke:#181818;stroke-width:0.5;" x1="4193.5" x2="4513.3369" y1="190.5" y2="190.5"/></g><!--class comp_arc_sta__baselibs__containers--><g id="elem_comp_arc_sta__baselibs__containers"><rect fill="#F1F1F1" height="40" id="comp_arc_sta__baselibs__containers" rx="2.5" ry="2.5" style="stroke:#181818;stroke-width:0.5;" width="287.1445" x="3691" y="275.5"/><ellipse cx="3706" cy="291.5" fill="#ADD1B2" rx="11" ry="11" style="stroke:#181818;stroke-width:1;"/><path d="M3708.9688,297.1406 Q3708.3906,297.4375 3707.75,297.5781 Q3707.1094,297.7344 3706.4063,297.7344 Q3703.9063,297.7344 3702.5781,296.0938 Q3701.2656,294.4375 3701.2656,291.3125 Q3701.2656,288.1875 3702.5781,286.5313 Q3703.9063,284.875 3706.4063,284.875 Q3707.1094,284.875 3707.75,285.0313 Q3708.4063,285.1875 3708.9688,285.4844 L3708.9688,288.2031 Q3708.3438,287.625 3707.75,287.3594 Q3707.1563,287.0781 3706.5313,287.0781 Q3705.1875,287.0781 3704.5,288.1563 Q3703.8125,289.2188 3703.8125,291.3125 Q3703.8125,293.4063 3704.5,294.4844 Q3705.1875,295.5469 3706.5313,295.5469 Q3707.1563,295.5469 3707.75,295.2813 Q3708.3438,295 3708.9688,294.4219 L3708.9688,297.1406 Z " fill="#000000"/><text fill="#000000" font-family="sans-serif" font-size="14" lengthAdjust="spacing" textLength="255.1445" x="3720" y="296.3467">comp_arc_sta__baselibs__containers</text><line style="stroke:#181818;stroke-width:0.5;" x1="3692" x2="3977.1445" y1="307.5" y2="307.5"/></g><!--class logic_arc_int__baselibs__intrusive_list--><g id="elem_logic_arc_int__baselibs__intrusive_list"><rect fill="#F1F1F1" height="40" id="logic_arc_int__baselibs__intrusive_list" rx="2.5" ry="2.5" style="stroke:#181818;stroke-width:0.5;" width="293.0713" x="3521" y="158.5"/><ellipse cx="3536" cy="174.5" fill="#ADD1B2" rx="11" ry="11" style="stroke:#181818;stroke-width:1;"/><path d="M3538.9688,180.1406 Q3538.3906,180.4375 3537.75,180.5781 Q3537.1094,180.7344 3536.4063,180.7344 Q3533.9063,180.7344 3532.5781,179.0938 Q3531.2656,177.4375 3531.2656,174.3125 Q3531.2656,171.1875 3532.5781,169.5313 Q3533.9063,167.875 3536.4063,167.875 Q3537.1094,167.875 3537.75,168.0313 Q3538.4063,168.1875 3538.9688,168.4844 L3538.9688,171.2031 Q3538.3438,170.625 3537.75,170.3594 Q3537.1563,170.0781 3536.5313,170.0781 Q3535.1875,170.0781 3534.5,171.1563 Q3533.8125,172.2188 3533.8125,174.3125 Q3533.8125,176.4063 3534.5,177.4844 Q3535.1875,178.5469 3536.5313,178.5469 Q3537.1563,178.5469 3537.75,178.2813 Q3538.3438,178 3538.9688,177.4219 L3538.9688,180.1406 Z " fill="#000000"/><text fill="#000000" font-family="sans-serif" font-size="14" lengthAdjust="spacing" textLength="261.0713" x="3550" y="179.3467">logic_arc_int__baselibs__intrusive_list</text><line style="stroke:#181818;stroke-width:0.5;" x1="3522" x2="3813.0713" y1="190.5" y2="190.5"/></g><!--class logic_arc_int__baselibs__result--><g id="elem_logic_arc_int__baselibs__result"><rect fill="#F1F1F1" height="40" id="logic_arc_int__baselibs__result" rx="2.5" ry="2.5" style="stroke:#181818;stroke-width:0.5;" width="244.4609" x="11.5" y="158.5"/><ellipse cx="26.5" cy="174.5" fill="#ADD1B2" rx="11" ry="11" style="stroke:#181818;stroke-width:1;"/><path d="M29.4688,180.1406 Q28.8906,180.4375 28.25,180.5781 Q27.6094,180.7344 26.9063,180.7344 Q24.4063,180.7344 23.0781,179.0938 Q21.7656,177.4375 21.7656,174.3125 Q21.7656,171.1875 23.0781,169.5313 Q24.4063,167.875 26.9063,167.875 Q27.6094,167.875 28.25,168.0313 Q28.9063,168.1875 29.4688,168.4844 L29.4688,171.2031 Q28.8438,170.625 28.25,170.3594 Q27.6563,170.0781 27.0313,170.0781 Q25.6875,170.0781 25,171.1563 Q24.3125,172.2188 24.3125,174.3125 Q24.3125,176.4063 25,177.4844 Q25.6875,178.5469 27.0313,178.5469 Q27.6563,178.5469 28.25,178.2813 Q28.8438,178 29.4688,177.4219 L29.4688,180.1406 Z " fill="#000000"/><text fill="#000000" font-family="sans-serif" font-size="14" lengthAdjust="spacing" textLength="212.4609" x="40.5" y="179.3467">logic_arc_int__baselibs__result</text><line style="stroke:#181818;stroke-width:0.5;" x1="12.5" x2="254.9609" y1="190.5" y2="190.5"/></g><!--class logic_arc_int__baselibs__task--><g id="elem_logic_arc_int__baselibs__task"><rect fill="#F1F1F1" height="40" id="logic_arc_int__baselibs__task" rx="2.5" ry="2.5" style="stroke:#181818;stroke-width:0.5;" width="234.0156" x="673.5" y="158.5"/><ellipse cx="688.5" cy="174.5" fill="#ADD1B2" rx="11" ry="11" style="stroke:#181818;stroke-width:1;"/><path d="M691.4688,180.1406 Q690.8906,180.4375 690.25,180.5781 Q689.6094,180.7344 688.9063,180.7344 Q686.4063,180.7344 685.0781,179.0938 Q683.7656,177.4375 683.7656,174.3125 Q683.7656,171.1875 685.0781,169.5313 Q686.4063,167.875 688.9063,167.875 Q689.6094,167.875 690.25,168.0313 Q690.9063,168.1875 691.4688,168.4844 L691.4688,171.2031 Q690.8438,170.625 690.25,170.3594 Q689.6563,170.0781 689.0313,170.0781 Q687.6875,170.0781 687,171.1563 Q686.3125,172.2188 686.3125,174.3125 Q686.3125,176.4063 687,177.4844 Q687.6875,178.5469 689.0313,178.5469 Q689.6563,178.5469 690.25,178.2813 Q690.8438,178 691.4688,177.4219 L691.4688,180.1406 Z " fill="#000000"/><text fill="#000000" font-family="sans-serif" font-size="14" lengthAdjust="spacing" textLength="202.0156" x="702.5" y="179.3467">logic_arc_int__baselibs__task</text><line style="stroke:#181818;stroke-width:0.5;" x1="674.5" x2="906.5156" y1="190.5" y2="190.5"/></g><!--class comp_arc_sta__baselibs__filesystem--><g id="elem_comp_arc_sta__baselibs__filesystem"><rect fill="#F1F1F1" height="40" id="comp_arc_sta__baselibs__filesystem" rx="2.5" ry="2.5" style="stroke:#181818;stroke-width:0.5;" width="285.4492" x="5181" y="275.5"/><ellipse cx="5196" cy="291.5" fill="#ADD1B2" rx="11" ry="11" style="stroke:#181818;stroke-width:1;"/><path d="M5198.9688,297.1406 Q5198.3906,297.4375 5197.75,297.5781 Q5197.1094,297.7344 5196.4063,297.7344 Q5193.9063,297.7344 5192.5781,296.0938 Q5191.2656,294.4375 5191.2656,291.3125 Q5191.2656,288.1875 5192.5781,286.5313 Q5193.9063,284.875 5196.4063,284.875 Q5197.1094,284.875 5197.75,285.0313 Q5198.4063,285.1875 5198.9688,285.4844 L5198.9688,288.2031 Q5198.3438,287.625 5197.75,287.3594 Q5197.1563,287.0781 5196.5313,287.0781 Q5195.1875,287.0781 5194.5,288.1563 Q5193.8125,289.2188 5193.8125,291.3125 Q5193.8125,293.4063 5194.5,294.4844 Q5195.1875,295.5469 5196.5313,295.5469 Q5197.1563,295.5469 5197.75,295.2813 Q5198.3438,295 5198.9688,294.4219 L5198.9688,297.1406 Z " fill="#000000"/><text fill="#000000" font-family="sans-serif" font-size="14" lengthAdjust="spacing" textLength="253.4492" x="5210" y="296.3467">comp_arc_sta__baselibs__filesystem</text><line style="stroke:#181818;stroke-width:0.5;" x1="5182" x2="5465.4492" y1="307.5" y2="307.5"/></g><!--class comp_arc_sta__baselibs__json--><g id="elem_comp_arc_sta__baselibs__json"><rect fill="#F1F1F1" height="40" id="comp_arc_sta__baselibs__json" rx="2.5" ry="2.5" style="stroke:#181818;stroke-width:0.5;" width="242.1367" x="4903.5" y="275.5"/><ellipse cx="4918.5" cy="291.5" fill="#ADD1B2" rx="11" ry="11" style="stroke:#181818;stroke-width:1;"/><path d="M4921.4688,297.1406 Q4920.8906,297.4375 4920.25,297.5781 Q4919.6094,297.7344 4918.9063,297.7344 Q4916.4063,297.7344 4915.0781,296.0938 Q4913.7656,294.4375 4913.7656,291.3125 Q4913.7656,288.1875 4915.0781,286.5313 Q4916.4063,284.875 4918.9063,284.875 Q4919.6094,284.875 4920.25,285.0313 Q4920.9063,285.1875 4921.4688,285.4844 L4921.4688,288.2031 Q4920.8438,287.625 4920.25,287.3594 Q4919.6563,287.0781 4919.0313,287.0781 Q4917.6875,287.0781 4917,288.1563 Q4916.3125,289.2188 4916.3125,291.3125 Q4916.3125,293.4063 4917,294.4844 Q4917.6875,295.5469 4919.0313,295.5469 Q4919.6563,295.5469 4920.25,295.2813 Q4920.8438,295 4921.4688,294.4219 L4921.4688,297.1406 Z " fill="#000000"/><text fill="#000000" font-family="sans-serif" font-size="14" lengthAdjust="spacing" textLength="210.1367" x="4932.5" y="296.3467">comp_arc_sta__baselibs__json</text><line style="stroke:#181818;stroke-width:0.5;" x1="4904.5" x2="5144.6367" y1="307.5" y2="307.5"/></g><!--class logic_arc_int__baselibs__bit_mask_operator--><g id="elem_logic_arc_int__baselibs__bit_mask_operator"><rect fill="#F1F1F1" height="40" id="logic_arc_int__baselibs__bit_mask_operator" rx="2.5" ry="2.5" style="stroke:#181818;stroke-width:0.5;" width="334.6406" x="4550" y="158.5"/><ellipse cx="4565" cy="174.5" fill="#ADD1B2" rx="11" ry="11" style="stroke:#181818;stroke-width:1;"/><path d="M4567.9688,180.1406 Q4567.3906,180.4375 4566.75,180.5781 Q4566.1094,180.7344 4565.4063,180.7344 Q4562.9063,180.7344 4561.5781,179.0938 Q4560.2656,177.4375 4560.2656,174.3125 Q4560.2656,171.1875 4561.5781,169.5313 Q4562.9063,167.875 4565.4063,167.875 Q4566.1094,167.875 4566.75,168.0313 Q4567.4063,168.1875 4567.9688,168.4844 L4567.9688,171.2031 Q4567.3438,170.625 4566.75,170.3594 Q4566.1563,170.0781 4565.5313,170.0781 Q4564.1875,170.0781 4563.5,171.1563 Q4562.8125,172.2188 4562.8125,174.3125 Q4562.8125,176.4063 4563.5,177.4844 Q4564.1875,178.5469 4565.5313,178.5469 Q4566.1563,178.5469 4566.75,178.2813 Q4567.3438,178 4567.9688,177.4219 L4567.9688,180.1406 Z " fill="#000000"/><text fill="#000000" font-family="sans-serif" font-size="14" lengthAdjust="spacing" textLength="302.6406" x="4579" y="179.3467">logic_arc_int__baselibs__bit_mask_operator</text><line style="stroke:#181818;stroke-width:0.5;" x1="4551" x2="4883.6406" y1="190.5" y2="190.5"/></g><!--class logic_arc_int__baselibs__synchronized_queue--><g id="elem_logic_arc_int__baselibs__synchronized_queue"><rect fill="#F1F1F1" height="40" id="logic_arc_int__baselibs__synchronized_queue" rx="2.5" ry="2.5" style="stroke:#181818;stroke-width:0.5;" width="348.3604" x="290.5" y="158.5"/><ellipse cx="305.5" cy="174.5" fill="#ADD1B2" rx="11" ry="11" style="stroke:#181818;stroke-width:1;"/><path d="M308.4688,180.1406 Q307.8906,180.4375 307.25,180.5781 Q306.6094,180.7344 305.9063,180.7344 Q303.4063,180.7344 302.0781,179.0938 Q300.7656,177.4375 300.7656,174.3125 Q300.7656,171.1875 302.0781,169.5313 Q303.4063,167.875 305.9063,167.875 Q306.6094,167.875 307.25,168.0313 Q307.9063,168.1875 308.4688,168.4844 L308.4688,171.2031 Q307.8438,170.625 307.25,170.3594 Q306.6563,170.0781 306.0313,170.0781 Q304.6875,170.0781 304,171.1563 Q303.3125,172.2188 303.3125,174.3125 Q303.3125,176.4063 304,177.4844 Q304.6875,178.5469 306.0313,178.5469 Q306.6563,178.5469 307.25,178.2813 Q307.8438,178 308.4688,177.4219 L308.4688,180.1406 Z " fill="#000000"/><text fill="#000000" font-family="sans-serif" font-size="14" lengthAdjust="spacing" textLength="316.3604" x="319.5" y="179.3467">logic_arc_int__baselibs__synchronized_queue</text><line style="stroke:#181818;stroke-width:0.5;" x1="291.5" x2="637.8604" y1="190.5" y2="190.5"/></g><!--class logic_arc_int__baselibs__condition_variable--><g id="elem_logic_arc_int__baselibs__condition_variable"><rect fill="#F1F1F1" height="40" id="logic_arc_int__baselibs__condition_variable" rx="2.5" ry="2.5" style="stroke:#181818;stroke-width:0.5;" width="332.7539" x="1581" y="158.5"/><ellipse cx="1596" cy="174.5" fill="#ADD1B2" rx="11" ry="11" style="stroke:#181818;stroke-width:1;"/><path d="M1598.9688,180.1406 Q1598.3906,180.4375 1597.75,180.5781 Q1597.1094,180.7344 1596.4063,180.7344 Q1593.9063,180.7344 1592.5781,179.0938 Q1591.2656,177.4375 1591.2656,174.3125 Q1591.2656,171.1875 1592.5781,169.5313 Q1593.9063,167.875 1596.4063,167.875 Q1597.1094,167.875 1597.75,168.0313 Q1598.4063,168.1875 1598.9688,168.4844 L1598.9688,171.2031 Q1598.3438,170.625 1597.75,170.3594 Q1597.1563,170.0781 1596.5313,170.0781 Q1595.1875,170.0781 1594.5,171.1563 Q1593.8125,172.2188 1593.8125,174.3125 Q1593.8125,176.4063 1594.5,177.4844 Q1595.1875,178.5469 1596.5313,178.5469 Q1597.1563,178.5469 1597.75,178.2813 Q1598.3438,178 1598.9688,177.4219 L1598.9688,180.1406 Z " fill="#000000"/><text fill="#000000" font-family="sans-serif" font-size="14" lengthAdjust="spacing" textLength="300.7539" x="1610" y="179.3467">logic_arc_int__baselibs__condition_variable</text><line style="stroke:#181818;stroke-width:0.5;" x1="1582" x2="1912.7539" y1="190.5" y2="190.5"/></g><!--class comp_arc_sta__baselibs__bit_manipulation--><g id="elem_comp_arc_sta__baselibs__bit_manipulation"><rect fill="#F1F1F1" height="40" id="comp_arc_sta__baselibs__bit_manipulation" rx="2.5" ry="2.5" style="stroke:#181818;stroke-width:0.5;" width="330.8057" x="4368" y="275.5"/><ellipse cx="4383" cy="291.5" fill="#ADD1B2" rx="11" ry="11" style="stroke:#181818;stroke-width:1;"/><path d="M4385.9688,297.1406 Q4385.3906,297.4375 4384.75,297.5781 Q4384.1094,297.7344 4383.4063,297.7344 Q4380.9063,297.7344 4379.5781,296.0938 Q4378.2656,294.4375 4378.2656,291.3125 Q4378.2656,288.1875 4379.5781,286.5313 Q4380.9063,284.875 4383.4063,284.875 Q4384.1094,284.875 4384.75,285.0313 Q4385.4063,285.1875 4385.9688,285.4844 L4385.9688,288.2031 Q4385.3438,287.625 4384.75,287.3594 Q4384.1563,287.0781 4383.5313,287.0781 Q4382.1875,287.0781 4381.5,288.1563 Q4380.8125,289.2188 4380.8125,291.3125 Q4380.8125,293.4063 4381.5,294.4844 Q4382.1875,295.5469 4383.5313,295.5469 Q4384.1563,295.5469 4384.75,295.2813 Q4385.3438,295 4385.9688,294.4219 L4385.9688,297.1406 Z " fill="#000000"/><text fill="#000000" font-family="sans-serif" font-size="14" lengthAdjust="spacing" textLength="298.8057" x="4397" y="296.3467">comp_arc_sta__baselibs__bit_manipulation</text><line style="stroke:#181818;stroke-width:0.5;" x1="4369" x2="4697.8057" y1="307.5" y2="307.5"/></g><!--class comp_arc_sta__baselibs__utils--><g id="elem_comp_arc_sta__baselibs__utils"><rect fill="#F1F1F1" height="40" id="comp_arc_sta__baselibs__utils" rx="2.5" ry="2.5" style="stroke:#181818;stroke-width:0.5;" width="242.9502" x="3010" y="275.5"/><ellipse cx="3025" cy="291.5" fill="#ADD1B2" rx="11" ry="11" style="stroke:#181818;stroke-width:1;"/><path d="M3027.9688,297.1406 Q3027.3906,297.4375 3026.75,297.5781 Q3026.1094,297.7344 3025.4063,297.7344 Q3022.9063,297.7344 3021.5781,296.0938 Q3020.2656,294.4375 3020.2656,291.3125 Q3020.2656,288.1875 3021.5781,286.5313 Q3022.9063,284.875 3025.4063,284.875 Q3026.1094,284.875 3026.75,285.0313 Q3027.4063,285.1875 3027.9688,285.4844 L3027.9688,288.2031 Q3027.3438,287.625 3026.75,287.3594 Q3026.1563,287.0781 3025.5313,287.0781 Q3024.1875,287.0781 3023.5,288.1563 Q3022.8125,289.2188 3022.8125,291.3125 Q3022.8125,293.4063 3023.5,294.4844 Q3024.1875,295.5469 3025.5313,295.5469 Q3026.1563,295.5469 3026.75,295.2813 Q3027.3438,295 3027.9688,294.4219 L3027.9688,297.1406 Z " fill="#000000"/><text fill="#000000" font-family="sans-serif" font-size="14" lengthAdjust="spacing" textLength="210.9502" x="3039" y="296.3467">comp_arc_sta__baselibs__utils</text><line style="stroke:#181818;stroke-width:0.5;" x1="3011" x2="3251.9502" y1="307.5" y2="307.5"/></g><!--class logic_arc_int__baselibs__promise--><g id="elem_logic_arc_int__baselibs__promise"><rect fill="#F1F1F1" height="40" id="logic_arc_int__baselibs__promise" rx="2.5" ry="2.5" style="stroke:#181818;stroke-width:0.5;" width="261.1885" x="2547" y="158.5"/><ellipse cx="2562" cy="174.5" fill="#ADD1B2" rx="11" ry="11" style="stroke:#181818;stroke-width:1;"/><path d="M2564.9688,180.1406 Q2564.3906,180.4375 2563.75,180.5781 Q2563.1094,180.7344 2562.4063,180.7344 Q2559.9063,180.7344 2558.5781,179.0938 Q2557.2656,177.4375 2557.2656,174.3125 Q2557.2656,171.1875 2558.5781,169.5313 Q2559.9063,167.875 2562.4063,167.875 Q2563.1094,167.875 2563.75,168.0313 Q2564.4063,168.1875 2564.9688,168.4844 L2564.9688,171.2031 Q2564.3438,170.625 2563.75,170.3594 Q2563.1563,170.0781 2562.5313,170.0781 Q2561.1875,170.0781 2560.5,171.1563 Q2559.8125,172.2188 2559.8125,174.3125 Q2559.8125,176.4063 2560.5,177.4844 Q2561.1875,178.5469 2562.5313,178.5469 Q2563.1563,178.5469 2563.75,178.2813 Q2564.3438,178 2564.9688,177.4219 L2564.9688,180.1406 Z " fill="#000000"/><text fill="#000000" font-family="sans-serif" font-size="14" lengthAdjust="spacing" textLength="229.1885" x="2576" y="179.3467">logic_arc_int__baselibs__promise</text><line style="stroke:#181818;stroke-width:0.5;" x1="2548" x2="2807.1885" y1="190.5" y2="190.5"/></g><!--class logic_arc_int__baselibs__utils_base64--><g id="elem_logic_arc_int__baselibs__utils_base64"><rect fill="#F1F1F1" height="40" id="logic_arc_int__baselibs__utils_base64" rx="2.5" ry="2.5" style="stroke:#181818;stroke-width:0.5;" width="292.1689" x="2843.5" y="158.5"/><ellipse cx="2858.5" cy="174.5" fill="#ADD1B2" rx="11" ry="11" style="stroke:#181818;stroke-width:1;"/><path d="M2861.4688,180.1406 Q2860.8906,180.4375 2860.25,180.5781 Q2859.6094,180.7344 2858.9063,180.7344 Q2856.4063,180.7344 2855.0781,179.0938 Q2853.7656,177.4375 2853.7656,174.3125 Q2853.7656,171.1875 2855.0781,169.5313 Q2856.4063,167.875 2858.9063,167.875 Q2859.6094,167.875 2860.25,168.0313 Q2860.9063,168.1875 2861.4688,168.4844 L2861.4688,171.2031 Q2860.8438,170.625 2860.25,170.3594 Q2859.6563,170.0781 2859.0313,170.0781 Q2857.6875,170.0781 2857,171.1563 Q2856.3125,172.2188 2856.3125,174.3125 Q2856.3125,176.4063 2857,177.4844 Q2857.6875,178.5469 2859.0313,178.5469 Q2859.6563,178.5469 2860.25,178.2813 Q2860.8438,178 2861.4688,177.4219 L2861.4688,180.1406 Z " fill="#000000"/><text fill="#000000" font-family="sans-serif" font-size="14" lengthAdjust="spacing" textLength="260.1689" x="2872.5" y="179.3467">logic_arc_int__baselibs__utils_base64</text><line style="stroke:#181818;stroke-width:0.5;" x1="2844.5" x2="3134.6689" y1="190.5" y2="190.5"/></g><!--class comp_arc_sta__baselibs__result--><g id="elem_comp_arc_sta__baselibs__result"><rect fill="#F1F1F1" height="40" id="comp_arc_sta__baselibs__result" rx="2.5" ry="2.5" style="stroke:#181818;stroke-width:0.5;" width="253.4297" x="7" y="275.5"/><ellipse cx="22" cy="291.5" fill="#ADD1B2" rx="11" ry="11" style="stroke:#181818;stroke-width:1;"/><path d="M24.9688,297.1406 Q24.3906,297.4375 23.75,297.5781 Q23.1094,297.7344 22.4063,297.7344 Q19.9063,297.7344 18.5781,296.0938 Q17.2656,294.4375 17.2656,291.3125 Q17.2656,288.1875 18.5781,286.5313 Q19.9063,284.875 22.4063,284.875 Q23.1094,284.875 23.75,285.0313 Q24.4063,285.1875 24.9688,285.4844 L24.9688,288.2031 Q24.3438,287.625 23.75,287.3594 Q23.1563,287.0781 22.5313,287.0781 Q21.1875,287.0781 20.5,288.1563 Q19.8125,289.2188 19.8125,291.3125 Q19.8125,293.4063 20.5,294.4844 Q21.1875,295.5469 22.5313,295.5469 Q23.1563,295.5469 23.75,295.2813 Q24.3438,295 24.9688,294.4219 L24.9688,297.1406 Z " fill="#000000"/><text fill="#000000" font-family="sans-serif" font-size="14" lengthAdjust="spacing" textLength="221.4297" x="36" y="296.3467">comp_arc_sta__baselibs__result</text><line style="stroke:#181818;stroke-width:0.5;" x1="8" x2="259.4297" y1="307.5" y2="307.5"/></g><!--class logic_arc_int__baselibs__executor--><g id="elem_logic_arc_int__baselibs__executor"><rect fill="#F1F1F1" height="40" id="logic_arc_int__baselibs__executor" rx="2.5" ry="2.5" style="stroke:#181818;stroke-width:0.5;" width="266.4385" x="942.5" y="158.5"/><ellipse cx="957.5" cy="174.5" fill="#ADD1B2" rx="11" ry="11" style="stroke:#181818;stroke-width:1;"/><path d="M960.4688,180.1406 Q959.8906,180.4375 959.25,180.5781 Q958.6094,180.7344 957.9063,180.7344 Q955.4063,180.7344 954.0781,179.0938 Q952.7656,177.4375 952.7656,174.3125 Q952.7656,171.1875 954.0781,169.5313 Q955.4063,167.875 957.9063,167.875 Q958.6094,167.875 959.25,168.0313 Q959.9063,168.1875 960.4688,168.4844 L960.4688,171.2031 Q959.8438,170.625 959.25,170.3594 Q958.6563,170.0781 958.0313,170.0781 Q956.6875,170.0781 956,171.1563 Q955.3125,172.2188 955.3125,174.3125 Q955.3125,176.4063 956,177.4844 Q956.6875,178.5469 958.0313,178.5469 Q958.6563,178.5469 959.25,178.2813 Q959.8438,178 960.4688,177.4219 L960.4688,180.1406 Z " fill="#000000"/><text fill="#000000" font-family="sans-serif" font-size="14" lengthAdjust="spacing" textLength="234.4385" x="971.5" y="179.3467">logic_arc_int__baselibs__executor</text><line style="stroke:#181818;stroke-width:0.5;" x1="943.5" x2="1207.9385" y1="190.5" y2="190.5"/></g><!--link Feature_User to logic_arc_int__baselibs__dynamic_array--><g id="link_Feature_User_logic_arc_int__baselibs__dynamic_array"><path codeLine="15" d="M3034.71,50.43 C3177.77,69.19 3618.961,127.0597 3852.401,157.6797 " fill="transparent" id="Feature_User-to-logic_arc_int__baselibs__dynamic_array" style="stroke:#181818;stroke-width:1;"/><polygon fill="#181818" points="3858.35,158.46,3849.9467,153.3235,3853.3925,157.8097,3848.9062,161.2555,3858.35,158.46" style="stroke:#181818;stroke-width:1;"/><text fill="#000000" font-family="sans-serif" font-size="13" lengthAdjust="spacing" textLength="23.0103" x="3617.5" y="124.5669">use</text></g><!--link Feature_User to logic_arc_int__baselibs__filesystem--><g id="link_Feature_User_logic_arc_int__baselibs__filesystem"><path codeLine="16" d="M3034.78,45.83 C3223.05,51.48 3962.47,74.91 4569.5,111.5 C4836.94,127.62 4903.9,131.85 5170.5,158.5 C5176.34,159.08 5176.3247,159.0559 5182.3447,159.7059 " fill="transparent" id="Feature_User-to-logic_arc_int__baselibs__filesystem" style="stroke:#181818;stroke-width:1;"/><polygon fill="#181818" points="5188.31,160.35,5179.7914,155.407,5183.3389,159.8133,5178.9326,163.3607,5188.31,160.35" style="stroke:#181818;stroke-width:1;"/><text fill="#000000" font-family="sans-serif" font-size="13" lengthAdjust="spacing" textLength="23.0103" x="4830.5" y="124.5669">use</text></g><!--link Feature_User to logic_arc_int__baselibs__utils_scoped_op--><g id="link_Feature_User_logic_arc_int__baselibs__utils_scoped_op"><path codeLine="17" d="M3034.52,62.16 C3098.27,87.18 3208.8142,130.5494 3274.4242,156.2794 " fill="transparent" id="Feature_User-to-logic_arc_int__baselibs__utils_scoped_op" style="stroke:#181818;stroke-width:1;"/><polygon fill="#181818" points="3280.01,158.47,3273.0916,151.4603,3275.3551,156.6445,3270.1709,158.908,3280.01,158.47" style="stroke:#181818;stroke-width:1;"/><text fill="#000000" font-family="sans-serif" font-size="13" lengthAdjust="spacing" textLength="23.0103" x="3199.5" y="124.5669">use</text></g><!--reverse link logic_arc_int__baselibs__task_result to comp_arc_sta__baselibs__concurrency--><g id="link_logic_arc_int__baselibs__task_result_comp_arc_sta__baselibs__concurrency"><path codeLine="18" d="M2244.8115,199.4433 C2158.0015,212.9633 2044.08,230.41 1938.5,245.5 C1866.28,255.82 1785.95,266.63 1718.91,275.45 " fill="transparent" id="logic_arc_int__baselibs__task_result-backto-comp_arc_sta__baselibs__concurrency" style="stroke:#181818;stroke-width:1;"/><polygon fill="#181818" points="2250.74,198.52,2241.2317,195.9526,2245.7996,199.2894,2242.4628,203.8573,2250.74,198.52" style="stroke:#181818;stroke-width:1;"/><text fill="#000000" font-family="sans-serif" font-size="13" lengthAdjust="spacing" textLength="76.9082" x="2047.5" y="241.5669">implements</text></g><!--link Feature_User to logic_arc_int__baselibs__future--><g id="link_Feature_User_logic_arc_int__baselibs__future"><path codeLine="19" d="M2944.34,51.05 C2808.89,70.7 2408.6178,128.7486 2202.0178,158.7186 " fill="transparent" id="Feature_User-to-logic_arc_int__baselibs__future" style="stroke:#181818;stroke-width:1;"/><polygon fill="#181818" points="2196.08,159.58,2205.561,162.2465,2201.0282,158.8622,2204.4125,154.3294,2196.08,159.58" style="stroke:#181818;stroke-width:1;"/><text fill="#000000" font-family="sans-serif" font-size="13" lengthAdjust="spacing" textLength="23.0103" x="2504.5" y="124.5669">use</text></g><!--link Feature_User to logic_arc_int__baselibs__json--><g id="link_Feature_User_logic_arc_int__baselibs__json"><path codeLine="20" d="M3034.81,45.74 C3246.45,51.84 4158.71,81.54 4902.5,158.5 C4908.23,159.09 4908.1205,159.0542 4914.0305,159.7442 " fill="transparent" id="Feature_User-to-logic_arc_int__baselibs__json" style="stroke:#181818;stroke-width:1;"/><polygon fill="#181818" points="4919.99,160.44,4911.5146,155.4233,4915.0237,159.8602,4910.5869,163.3693,4919.99,160.44" style="stroke:#181818;stroke-width:1;"/><text fill="#000000" font-family="sans-serif" font-size="13" lengthAdjust="spacing" textLength="23.0103" x="4537.5" y="124.5669">use</text></g><!--reverse link logic_arc_int__baselibs__future to comp_arc_sta__baselibs__concurrency--><g id="link_logic_arc_int__baselibs__future_comp_arc_sta__baselibs__concurrency"><path codeLine="21" d="M1983.6421,199.8925 C1890.9021,221.1825 1747.48,254.11 1654.67,275.41 " fill="transparent" id="logic_arc_int__baselibs__future-backto-comp_arc_sta__baselibs__concurrency" style="stroke:#181818;stroke-width:1;"/><polygon fill="#181818" points="1989.49,198.55,1979.8232,196.6651,1984.6168,199.6687,1981.6132,204.4623,1989.49,198.55" style="stroke:#181818;stroke-width:1;"/><text fill="#000000" font-family="sans-serif" font-size="13" lengthAdjust="spacing" textLength="76.9082" x="1853.5" y="241.5669">implements</text></g><!--reverse link logic_arc_int__baselibs__message_passing to comp_arc_sta__baselibs__message_passing--><g id="link_logic_arc_int__baselibs__message_passing_comp_arc_sta__baselibs__message_passing"><path codeLine="22" d="M6027.5998,204.7444 C6028.5198,225.9744 6029.74,253.94 6030.66,275.19 " fill="transparent" id="logic_arc_int__baselibs__message_passing-backto-comp_arc_sta__baselibs__message_passing" style="stroke:#181818;stroke-width:1;"/><polygon fill="#181818" points="6027.34,198.75,6023.7334,207.9147,6027.5565,203.7453,6031.7259,207.5684,6027.34,198.75" style="stroke:#181818;stroke-width:1;"/><text fill="#000000" font-family="sans-serif" font-size="13" lengthAdjust="spacing" textLength="76.9082" x="6029.5" y="241.5669">implements</text></g><!--reverse link logic_arc_int__baselibs__shared_future to comp_arc_sta__baselibs__concurrency--><g id="link_logic_arc_int__baselibs__shared_future_comp_arc_sta__baselibs__concurrency"><path codeLine="23" d="M1429.1614,202.0188 C1461.9314,223.3088 1509.38,254.14 1542.07,275.38 " fill="transparent" id="logic_arc_int__baselibs__shared_future-backto-comp_arc_sta__baselibs__concurrency" style="stroke:#181818;stroke-width:1;"/><polygon fill="#181818" points="1424.13,198.75,1429.4979,207.0075,1428.3228,201.474,1433.8563,200.2989,1424.13,198.75" style="stroke:#181818;stroke-width:1;"/><text fill="#000000" font-family="sans-serif" font-size="13" lengthAdjust="spacing" textLength="76.9082" x="1495.5" y="241.5669">implements</text></g><!--reverse link logic_arc_int__baselibs__memory_shared to comp_arc_sta__baselibs__memory_shared--><g id="link_logic_arc_int__baselibs__memory_shared_comp_arc_sta__baselibs__memory_shared"><path codeLine="24" d="M5662.9346,204.7491 C5663.3046,225.9791 5663.79,253.94 5664.16,275.19 " fill="transparent" id="logic_arc_int__baselibs__memory_shared-backto-comp_arc_sta__baselibs__memory_shared" style="stroke:#181818;stroke-width:1;"/><polygon fill="#181818" points="5662.83,198.75,5658.9874,207.8183,5662.9171,203.7492,5666.9862,207.6789,5662.83,198.75" style="stroke:#181818;stroke-width:1;"/><text fill="#000000" font-family="sans-serif" font-size="13" lengthAdjust="spacing" textLength="76.9082" x="5664.5" y="241.5669">implements</text></g><!--link Feature_User to logic_arc_int__baselibs__bit_manipulation--><g id="link_Feature_User_logic_arc_int__baselibs__bit_manipulation"><path codeLine="25" d="M3034.76,48.68 C3192.26,63.25 3730.98,113.41 4175.5,158.5 C4181.07,159.06 4180.7617,159.0244 4186.4817,159.6144 " fill="transparent" id="Feature_User-to-logic_arc_int__baselibs__bit_manipulation" style="stroke:#181818;stroke-width:1;"/><polygon fill="#181818" points="4192.45,160.23,4183.9079,155.3277,4187.4764,159.717,4183.0871,163.2855,4192.45,160.23" style="stroke:#181818;stroke-width:1;"/><text fill="#000000" font-family="sans-serif" font-size="13" lengthAdjust="spacing" textLength="23.0103" x="3850.5" y="124.5669">use</text></g><!--reverse link logic_arc_int__baselibs__intrusive_list to comp_arc_sta__baselibs__containers--><g id="link_logic_arc_int__baselibs__intrusive_list_comp_arc_sta__baselibs__containers"><path codeLine="26" d="M3700.3918,202.1527 C3731.3118,223.4427 3775.89,254.14 3806.74,275.38 " fill="transparent" id="logic_arc_int__baselibs__intrusive_list-backto-comp_arc_sta__baselibs__containers" style="stroke:#181818;stroke-width:1;"/><polygon fill="#181818" points="3695.45,198.75,3700.5943,207.1486,3699.5682,201.5856,3705.1312,200.5595,3695.45,198.75" style="stroke:#181818;stroke-width:1;"/><text fill="#000000" font-family="sans-serif" font-size="13" lengthAdjust="spacing" textLength="76.9082" x="3761.5" y="241.5669">implements</text></g><!--link Feature_User to logic_arc_int__baselibs__result--><g id="link_Feature_User_logic_arc_int__baselibs__result"><path codeLine="27" d="M2944.15,45.41 C2725.17,49.92 1755.31,71.33 961.5,111.5 C654.96,127.01 577.84,127.25 272.5,158.5 C267.05,159.06 267.4403,158.9706 261.8203,159.6206 " fill="transparent" id="Feature_User-to-logic_arc_int__baselibs__result" style="stroke:#181818;stroke-width:1;"/><polygon fill="#181818" points="255.86,160.31,265.26,163.2495,260.8269,159.7355,264.3408,155.3025,255.86,160.31" style="stroke:#181818;stroke-width:1;"/><text fill="#000000" font-family="sans-serif" font-size="13" lengthAdjust="spacing" textLength="23.0103" x="962.5" y="124.5669">use</text></g><!--link Feature_User to logic_arc_int__baselibs__task_result--><g id="link_Feature_User_logic_arc_int__baselibs__task_result"><path codeLine="28" d="M2944.31,54.23 C2842.47,76.14 2599.3857,128.4578 2465.6857,157.2278 " fill="transparent" id="Feature_User-to-logic_arc_int__baselibs__task_result" style="stroke:#181818;stroke-width:1;"/><polygon fill="#181818" points="2459.82,158.49,2469.4601,160.5072,2464.7081,157.4382,2467.7771,152.6862,2459.82,158.49" style="stroke:#181818;stroke-width:1;"/><text fill="#000000" font-family="sans-serif" font-size="13" lengthAdjust="spacing" textLength="23.0103" x="2662.5" y="124.5669">use</text></g><!--link Feature_User to logic_arc_int__baselibs__task--><g id="link_Feature_User_logic_arc_int__baselibs__task"><path codeLine="29" d="M2944.36,46.05 C2765.22,52.31 2086.98,77.06 1529.5,111.5 C1260.31,128.13 1192.59,129.11 924.5,158.5 C919.01,159.1 919.3559,159.0239 913.6959,159.7139 " fill="transparent" id="Feature_User-to-logic_arc_int__baselibs__task" style="stroke:#181818;stroke-width:1;"/><polygon fill="#181818" points="907.74,160.44,917.1579,163.3215,912.7033,159.8349,916.1898,155.3803,907.74,160.44" style="stroke:#181818;stroke-width:1;"/><text fill="#000000" font-family="sans-serif" font-size="13" lengthAdjust="spacing" textLength="23.0103" x="1530.5" y="124.5669">use</text></g><!--reverse link logic_arc_int__baselibs__filesystem to comp_arc_sta__baselibs__filesystem--><g id="link_logic_arc_int__baselibs__filesystem_comp_arc_sta__baselibs__filesystem"><path codeLine="30" d="M5325.8418,204.7479 C5325.2818,225.9779 5324.56,253.94 5324,275.19 " fill="transparent" id="logic_arc_int__baselibs__filesystem-backto-comp_arc_sta__baselibs__filesystem" style="stroke:#181818;stroke-width:1;"/><polygon fill="#181818" points="5326,198.75,5321.7641,207.6414,5325.8682,203.7483,5329.7613,207.8523,5326,198.75" style="stroke:#181818;stroke-width:1;"/><text fill="#000000" font-family="sans-serif" font-size="13" lengthAdjust="spacing" textLength="76.9082" x="5325.5" y="241.5669">implements</text></g><!--reverse link logic_arc_int__baselibs__json to comp_arc_sta__baselibs__json--><g id="link_logic_arc_int__baselibs__json_comp_arc_sta__baselibs__json"><path codeLine="31" d="M5033.8688,204.7178 C5031.6588,225.9478 5028.73,253.94 5026.52,275.19 " fill="transparent" id="logic_arc_int__baselibs__json-backto-comp_arc_sta__baselibs__json" style="stroke:#181818;stroke-width:1;"/><polygon fill="#181818" points="5034.49,198.75,5029.5797,207.2875,5033.9723,203.7231,5037.5367,208.1158,5034.49,198.75" style="stroke:#181818;stroke-width:1;"/><text fill="#000000" font-family="sans-serif" font-size="13" lengthAdjust="spacing" textLength="76.9082" x="5031.5" y="241.5669">implements</text></g><!--link Feature_User to logic_arc_int__baselibs__bit_mask_operator--><g id="link_Feature_User_logic_arc_int__baselibs__bit_mask_operator"><path codeLine="32" d="M3034.66,47.36 C3220.06,59.21 3940.83,106.27 4532.5,158.5 C4538.13,159 4537.876,158.9519 4543.656,159.4919 " fill="transparent" id="Feature_User-to-logic_arc_int__baselibs__bit_mask_operator" style="stroke:#181818;stroke-width:1;"/><polygon fill="#181818" points="4549.63,160.05,4541.0411,155.2302,4544.6517,159.5849,4540.2969,163.1955,4549.63,160.05" style="stroke:#181818;stroke-width:1;"/><text fill="#000000" font-family="sans-serif" font-size="13" lengthAdjust="spacing" textLength="23.0103" x="4152.5" y="124.5669">use</text></g><!--link Feature_User to logic_arc_int__baselibs__shared_future--><g id="link_Feature_User_logic_arc_int__baselibs__shared_future"><path codeLine="33" d="M2944.5,47.57 C2768.1,59.7 2106.76,106.26 1563.5,158.5 C1557.62,159.07 1557.5997,159.0581 1551.5497,159.6681 " fill="transparent" id="Feature_User-to-logic_arc_int__baselibs__shared_future" style="stroke:#181818;stroke-width:1;"/><polygon fill="#181818" points="1545.58,160.27,1554.9359,163.347,1550.5548,159.7684,1554.1333,155.3873,1545.58,160.27" style="stroke:#181818;stroke-width:1;"/><text fill="#000000" font-family="sans-serif" font-size="13" lengthAdjust="spacing" textLength="23.0103" x="2074.5" y="124.5669">use</text></g><!--link Feature_User to logic_arc_int__baselibs__synchronized_queue--><g id="link_Feature_User_logic_arc_int__baselibs__synchronized_queue"><path codeLine="34" d="M2944.46,45.47 C2743.5,49.97 1908.61,70.28 1224.5,111.5 C1023.22,123.63 798.5114,144.0853 644.6014,159.1553 " fill="transparent" id="Feature_User-to-logic_arc_int__baselibs__synchronized_queue" style="stroke:#181818;stroke-width:1;"/><polygon fill="#181818" points="638.63,159.74,647.977,162.8439,643.6062,159.2528,647.1974,154.882,638.63,159.74" style="stroke:#181818;stroke-width:1;"/><text fill="#000000" font-family="sans-serif" font-size="13" lengthAdjust="spacing" textLength="23.0103" x="1225.5" y="124.5669">use</text></g><!--link Feature_User to logic_arc_int__baselibs__condition_variable--><g id="link_Feature_User_logic_arc_int__baselibs__condition_variable"><path codeLine="35" d="M2944.19,49.35 C2778.79,67.06 2208.1559,128.1711 1920.0059,159.0311 " fill="transparent" id="Feature_User-to-logic_arc_int__baselibs__condition_variable" style="stroke:#181818;stroke-width:1;"/><polygon fill="#181818" points="1914.04,159.67,1923.4148,162.6889,1919.0116,159.1376,1922.5629,154.7344,1914.04,159.67" style="stroke:#181818;stroke-width:1;"/><text fill="#000000" font-family="sans-serif" font-size="13" lengthAdjust="spacing" textLength="23.0103" x="2331.5" y="124.5669">use</text></g><!--reverse link logic_arc_int__baselibs__bit_manipulation to comp_arc_sta__baselibs__bit_manipulation--><g id="link_logic_arc_int__baselibs__bit_manipulation_comp_arc_sta__baselibs__bit_manipulation"><path codeLine="36" d="M4388.6865,201.9799 C4422.0165,223.2699 4470.33,254.14 4503.57,275.38 " fill="transparent" id="logic_arc_int__baselibs__bit_manipulation-backto-comp_arc_sta__baselibs__bit_manipulation" style="stroke:#181818;stroke-width:1;"/><polygon fill="#181818" points="4383.63,198.75,4389.0614,206.9658,4387.8437,201.4416,4393.368,200.2239,4383.63,198.75" style="stroke:#181818;stroke-width:1;"/><text fill="#000000" font-family="sans-serif" font-size="13" lengthAdjust="spacing" textLength="76.9082" x="4454.5" y="241.5669">implements</text></g><!--reverse link logic_arc_int__baselibs__bit_mask_operator to comp_arc_sta__baselibs__bit_manipulation--><g id="link_logic_arc_int__baselibs__bit_mask_operator_comp_arc_sta__baselibs__bit_manipulation"><path codeLine="37" d="M4681.6118,201.9296 C4647.5418,223.2196 4598.08,254.14 4564.09,275.38 " fill="transparent" id="logic_arc_int__baselibs__bit_mask_operator-backto-comp_arc_sta__baselibs__bit_manipulation" style="stroke:#181818;stroke-width:1;"/><polygon fill="#181818" points="4686.7,198.75,4676.9479,200.1272,4682.4598,201.3997,4681.1874,206.9115,4686.7,198.75" style="stroke:#181818;stroke-width:1;"/><text fill="#000000" font-family="sans-serif" font-size="13" lengthAdjust="spacing" textLength="76.9082" x="4637.5" y="241.5669">implements</text></g><!--link Feature_User to logic_arc_int__baselibs__message_passing--><g id="link_Feature_User_logic_arc_int__baselibs__message_passing"><path codeLine="38" d="M3034.67,45.24 C3262.5,49.13 4308.34,68.61 5163.5,111.5 C5464.29,126.59 5539.43,132.83 5839.5,158.5 C5846.98,159.14 5848.6445,159.2782 5856.3645,159.9782 " fill="transparent" id="Feature_User-to-logic_arc_int__baselibs__message_passing" style="stroke:#181818;stroke-width:1;"/><polygon fill="#181818" points="5862.34,160.52,5853.738,155.7236,5857.3604,160.0685,5853.0156,163.6909,5862.34,160.52" style="stroke:#181818;stroke-width:1;"/><text fill="#000000" font-family="sans-serif" font-size="13" lengthAdjust="spacing" textLength="23.0103" x="5456.5" y="124.5669">use</text></g><!--reverse link logic_arc_int__baselibs__utils_scoped_op to comp_arc_sta__baselibs__utils--><g id="link_logic_arc_int__baselibs__utils_scoped_op_comp_arc_sta__baselibs__utils"><path codeLine="39" d="M3290.3479,201.7743 C3253.8679,223.0643 3200.64,254.14 3164.25,275.38 " fill="transparent" id="logic_arc_int__baselibs__utils_scoped_op-backto-comp_arc_sta__baselibs__utils" style="stroke:#181818;stroke-width:1;"/><polygon fill="#181818" points="3295.53,198.75,3285.7407,199.8317,3291.2116,201.2702,3289.7731,206.7411,3295.53,198.75" style="stroke:#181818;stroke-width:1;"/><text fill="#000000" font-family="sans-serif" font-size="13" lengthAdjust="spacing" textLength="76.9082" x="3242.5" y="241.5669">implements</text></g><!--link Feature_User to logic_arc_int__baselibs__promise--><g id="link_Feature_User_logic_arc_int__baselibs__promise"><path codeLine="40" d="M2944.47,63.7 C2885.15,88.98 2786.9693,130.837 2727.7893,156.067 " fill="transparent" id="Feature_User-to-logic_arc_int__baselibs__promise" style="stroke:#181818;stroke-width:1;"/><polygon fill="#181818" points="2722.27,158.42,2732.1177,158.57,2726.8695,156.4591,2728.9803,151.2109,2722.27,158.42" style="stroke:#181818;stroke-width:1;"/><text fill="#000000" font-family="sans-serif" font-size="13" lengthAdjust="spacing" textLength="23.0103" x="2824.5" y="124.5669">use</text></g><!--reverse link logic_arc_int__baselibs__synchronized_queue to comp_arc_sta__baselibs__concurrency--><g id="link_logic_arc_int__baselibs__synchronized_queue_comp_arc_sta__baselibs__concurrency"><path codeLine="41" d="M620.1941,199.2709 C731.8141,213.1609 882.09,231.23 1019.5,245.5 C1155.39,259.61 1310.36,273.14 1421.44,282.4 " fill="transparent" id="logic_arc_int__baselibs__synchronized_queue-backto-comp_arc_sta__baselibs__concurrency" style="stroke:#181818;stroke-width:1;"/><polygon fill="#181818" points="614.24,198.53,622.6772,203.6108,619.2017,199.1474,623.6651,195.672,614.24,198.53" style="stroke:#181818;stroke-width:1;"/><text fill="#000000" font-family="sans-serif" font-size="13" lengthAdjust="spacing" textLength="76.9082" x="1020.5" y="241.5669">implements</text></g><!--reverse link logic_arc_int__baselibs__promise to comp_arc_sta__baselibs__concurrency--><g id="link_logic_arc_int__baselibs__promise_comp_arc_sta__baselibs__concurrency"><path codeLine="42" d="M2540.8163,197.0942 C2534.9763,197.8242 2535.16,197.8 2529.5,198.5 C2353.16,220.26 2309.24,227.32 2132.5,245.5 C1993.43,259.8 1834.68,273.42 1721.63,282.65 " fill="transparent" id="logic_arc_int__baselibs__promise-backto-comp_arc_sta__baselibs__concurrency" style="stroke:#181818;stroke-width:1;"/><polygon fill="#181818" points="2546.77,196.35,2537.3434,193.4972,2541.8086,196.9702,2538.3356,201.4354,2546.77,196.35" style="stroke:#181818;stroke-width:1;"/><text fill="#000000" font-family="sans-serif" font-size="13" lengthAdjust="spacing" textLength="76.9082" x="2284.5" y="241.5669">implements</text></g><!--reverse link logic_arc_int__baselibs__utils_base64 to comp_arc_sta__baselibs__utils--><g id="link_logic_arc_int__baselibs__utils_base64_comp_arc_sta__baselibs__utils"><path codeLine="43" d="M3017.9324,202.5265 C3044.1424,223.7565 3081.41,253.94 3107.65,275.19 " fill="transparent" id="logic_arc_int__baselibs__utils_base64-backto-comp_arc_sta__baselibs__utils" style="stroke:#181818;stroke-width:1;"/><polygon fill="#181818" points="3013.27,198.75,3017.7459,207.523,3017.1553,201.8971,3022.7813,201.3065,3013.27,198.75" style="stroke:#181818;stroke-width:1;"/><text fill="#000000" font-family="sans-serif" font-size="13" lengthAdjust="spacing" textLength="76.9082" x="3069.5" y="241.5669">implements</text></g><!--link Feature_User to logic_arc_int__baselibs__intrusive_list--><g id="link_Feature_User_logic_arc_int__baselibs__intrusive_list"><path codeLine="44" d="M3034.51,53.33 C3143.13,74.64 3415.7123,128.1048 3564.4823,157.2948 " fill="transparent" id="Feature_User-to-logic_arc_int__baselibs__intrusive_list" style="stroke:#181818;stroke-width:1;"/><polygon fill="#181818" points="3570.37,158.45,3562.3085,152.792,3565.4636,157.4873,3560.7682,160.6423,3570.37,158.45" style="stroke:#181818;stroke-width:1;"/><text fill="#000000" font-family="sans-serif" font-size="13" lengthAdjust="spacing" textLength="23.0103" x="3409.5" y="124.5669">use</text></g><!--reverse link logic_arc_int__baselibs__result to comp_arc_sta__baselibs__result--><g id="link_logic_arc_int__baselibs__result_comp_arc_sta__baselibs__result"><path codeLine="45" d="M133.5,204.75 C133.5,225.98 133.5,253.94 133.5,275.19 " fill="transparent" id="logic_arc_int__baselibs__result-backto-comp_arc_sta__baselibs__result" style="stroke:#181818;stroke-width:1;"/><polygon fill="#181818" points="133.5,198.75,129.5,207.75,133.5,203.75,137.5,207.75,133.5,198.75" style="stroke:#181818;stroke-width:1;"/><text fill="#000000" font-family="sans-serif" font-size="13" lengthAdjust="spacing" textLength="76.9082" x="134.5" y="241.5669">implements</text></g><!--link Feature_User to logic_arc_int__baselibs__executor--><g id="link_Feature_User_logic_arc_int__baselibs__executor"><path codeLine="46" d="M2944.43,46.28 C2743.35,54.45 1908.06,90.91 1225.5,158.5 C1220.01,159.04 1220.3853,158.986 1214.7353,159.596 " fill="transparent" id="Feature_User-to-logic_arc_int__baselibs__executor" style="stroke:#181818;stroke-width:1;"/><polygon fill="#181818" points="1208.77,160.24,1218.1474,163.2508,1213.7411,159.7033,1217.2886,155.297,1208.77,160.24" style="stroke:#181818;stroke-width:1;"/><text fill="#000000" font-family="sans-serif" font-size="13" lengthAdjust="spacing" textLength="23.0103" x="1759.5" y="124.5669">use</text></g><!--link Feature_User to logic_arc_int__baselibs__memory_shared--><g id="link_Feature_User_logic_arc_int__baselibs__memory_shared"><path codeLine="47" d="M3034.82,45.45 C3243.58,49.99 4133.56,70.85 4862.5,111.5 C5138.42,126.89 5207.28,133.55 5482.5,158.5 C5489.23,159.11 5490.1278,159.1726 5497.0578,159.8426 " fill="transparent" id="Feature_User-to-logic_arc_int__baselibs__memory_shared" style="stroke:#181818;stroke-width:1;"/><polygon fill="#181818" points="5503.03,160.42,5494.4567,155.5725,5498.0532,159.9388,5493.6868,163.5353,5503.03,160.42" style="stroke:#181818;stroke-width:1;"/><text fill="#000000" font-family="sans-serif" font-size="13" lengthAdjust="spacing" textLength="23.0103" x="5131.5" y="124.5669">use</text></g><!--link Feature_User to logic_arc_int__baselibs__utils_base64--><g id="link_Feature_User_logic_arc_int__baselibs__utils_base64"><path codeLine="48" d="M2989.5,81.55 C2989.5,106.45 2989.5,132.26 2989.5,152.26 " fill="transparent" id="Feature_User-to-logic_arc_int__baselibs__utils_base64" style="stroke:#181818;stroke-width:1;"/><polygon fill="#181818" points="2989.5,158.26,2993.5,149.26,2989.5,153.26,2985.5,149.26,2989.5,158.26" style="stroke:#181818;stroke-width:1;"/><text fill="#000000" font-family="sans-serif" font-size="13" lengthAdjust="spacing" textLength="23.0103" x="2990.5" y="124.5669">use</text></g><!--reverse link logic_arc_int__baselibs__executor to comp_arc_sta__baselibs__concurrency--><g id="link_logic_arc_int__baselibs__executor_comp_arc_sta__baselibs__concurrency"><path codeLine="49" d="M1163.5249,199.9052 C1255.3449,221.1952 1397.28,254.11 1489.16,275.41 " fill="transparent" id="logic_arc_int__baselibs__executor-backto-comp_arc_sta__baselibs__concurrency" style="stroke:#181818;stroke-width:1;"/><polygon fill="#181818" points="1157.68,198.55,1165.5439,204.4795,1162.5508,199.6794,1167.3509,196.6862,1157.68,198.55" style="stroke:#181818;stroke-width:1;"/><text fill="#000000" font-family="sans-serif" font-size="13" lengthAdjust="spacing" textLength="76.9082" x="1354.5" y="241.5669">implements</text></g><!--reverse link logic_arc_int__baselibs__task to comp_arc_sta__baselibs__concurrency--><g id="link_logic_arc_int__baselibs__task_comp_arc_sta__baselibs__concurrency"><path codeLine="50" d="M912.5328,199.5096 C996.3528,213.0896 1106.37,230.55 1208.5,245.5 C1279.6,255.91 1358.66,266.68 1424.8,275.46 " fill="transparent" id="logic_arc_int__baselibs__task-backto-comp_arc_sta__baselibs__concurrency" style="stroke:#181818;stroke-width:1;"/><polygon fill="#181818" points="906.61,198.55,914.8544,203.9379,911.5456,199.3496,916.1339,196.0408,906.61,198.55" style="stroke:#181818;stroke-width:1;"/><text fill="#000000" font-family="sans-serif" font-size="13" lengthAdjust="spacing" textLength="76.9082" x="1209.5" y="241.5669">implements</text></g><!--reverse link logic_arc_int__baselibs__dynamic_array to comp_arc_sta__baselibs__containers--><g id="link_logic_arc_int__baselibs__dynamic_array_comp_arc_sta__baselibs__containers"><path codeLine="51" d="M3970.2494,202.1252 C3938.9594,223.4152 3893.81,254.14 3862.6,275.38 " fill="transparent" id="logic_arc_int__baselibs__dynamic_array-backto-comp_arc_sta__baselibs__containers" style="stroke:#181818;stroke-width:1;"/><polygon fill="#181818" points="3975.21,198.75,3965.5189,200.5058,3971.0762,201.5627,3970.0192,207.1199,3975.21,198.75" style="stroke:#181818;stroke-width:1;"/><text fill="#000000" font-family="sans-serif" font-size="13" lengthAdjust="spacing" textLength="76.9082" x="3929.5" y="241.5669">implements</text></g><!--reverse link logic_arc_int__baselibs__condition_variable to comp_arc_sta__baselibs__concurrency--><g id="link_logic_arc_int__baselibs__condition_variable_comp_arc_sta__baselibs__concurrency"><path codeLine="52" d="M1713.0173,202.0322 C1680.4373,223.3222 1633.27,254.14 1600.76,275.38 " fill="transparent" id="logic_arc_int__baselibs__condition_variable-backto-comp_arc_sta__baselibs__concurrency" style="stroke:#181818;stroke-width:1;"/><polygon fill="#181818" points="1718.04,198.75,1708.3179,200.3248,1713.8544,201.4851,1712.6941,207.0217,1718.04,198.75" style="stroke:#181818;stroke-width:1;"/><text fill="#000000" font-family="sans-serif" font-size="13" lengthAdjust="spacing" textLength="76.9082" x="1671.5" y="241.5669">implements</text></g><!--SRC=[hLOzRzmm3DtzAuJibnP5q248iXJerB6P1LfcxzZemnMfD6xH_rxvFfexNtgo7O-oIUhnyP4KM1j-QaVFvDULX5P9K7KG2Kur5D481Lzjg475WX63T2tkpkXQwHI8HAgJ85TtB9t5- -eQc6ojVbTVoEEdO4DK4PljwUk6pAD7PlNX-dtrfxfxj_Ufm4Ysk_gC82cYUc2CLmfOxJ_e_eEggfFZgbdTAnlMP3H4eycBrZKmMgfPwwRpuBQ_8dItAZ6gAUxVo29tEMattJS9MTPiGekD3kq-W0cktLgpmB6r2Twa6D6RJgtIfRW2_AWZSh9ogyYr5XrwuMbvfTvoUaxVEVZ54Zc0ECxXVr5TbWkiKRV0d4LQY3om7dV5UE2yWQpbYVXTYDtUiuZ-o7PsYMiIxS1Jcopq_Likcq1kpiW5TFaO4zCJQaiyNu470KzLu8dwvpWNU7Zf-99wZqR360NqhLC8kUkkDzKxavFdJOGyHwVJCz3rPFVEcqqCddxb83yIfXaniWmRwkMgdo0Ir1OBzHhAl43nULUCgTsiIqvACREePuFi8XVRZLF0ThQLPY9hOt34kDWoU4qyoqxjVuZ7X1rFPN_-U3ERn-4ulKZdRkuLOBtnQO3FQDAiyJ7OM_FUImSw5vBLIpRBYcctIKR67BTO1q_LPV6-DbUFR_WB]--></g></svg>