<svg xmlns="http://www.w3.org/2000/svg" xmlns:xlink="http://www.w3.org/1999/xlink" contentStyleType="text/css" data-diagram-type="CLASS" height="942px" preserveAspectRatio="none" style="width:979px;height:942px;background:#FFFFFF;" version="1.1" viewBox="0 0 979 942" width="979px" zoomAndPan="magnify"><defs/><g><!--cluster S-Core Repo--><g id="cluster_S-Core Repo"><path d="M300.5,130 L398.4746,130 A3.75,3.75 0 0 1 400.9746,132.5 L407.9746,152.2969 L602.5,152.2969 A2.5,2.5 0 0 1 605,154.7969 L605,323.5 A2.5,2.5 0 0 1 602.5,326 L300.5,326 A2.5,2.5 0 0 1 298,323.5 L298,132.5 A2.5,2.5 0 0 1 300.5,130 " fill="transparent" style="stroke:#000000;stroke-width:1.5;"/><line style="stroke:#000000;stroke-width:1.5;" x1="298" x2="407.9746" y1="152.2969" y2="152.2969"/><text fill="#000000" font-family="sans-serif" font-size="14" font-weight="bold" lengthAdjust="spacing" textLength="96.9746" x="302" y="144.9951">S-Core Repo</text></g><!--cluster Feature Repo--><g id="cluster_Feature Repo"><path d="M327.5,367 L434.8535,367 A3.75,3.75 0 0 1 437.3535,369.5 L444.3535,389.2969 L594.5,389.2969 A2.5,2.5 0 0 1 597,391.7969 L597,561.5 A2.5,2.5 0 0 1 594.5,564 L327.5,564 A2.5,2.5 0 0 1 325,561.5 L325,369.5 A2.5,2.5 0 0 1 327.5,367 " fill="transparent" style="stroke:#000000;stroke-width:1.5;"/><line style="stroke:#000000;stroke-width:1.5;" x1="325" x2="444.3535" y1="389.2969" y2="389.2969"/><text fill="#000000" font-family="sans-serif" font-size="14" font-weight="bold" lengthAdjust="spacing" textLength="106.3535" x="329" y="381.9951">Feature Repo</text></g><!--cluster FeatureImplRepo1--><g id="cluster_FeatureImplRepo1"><path d="M8.5,597 L160.6631,597 A3.75,3.75 0 0 1 163.1631,599.5 L170.1631,619.2969 L475.5,619.2969 A2.5,2.5 0 0 1 478,621.7969 L478,932.5 A2.5,2.5 0 0 1 475.5,935 L8.5,935 A2.5,2.5 0 0 1 6,932.5 L6,599.5 A2.5,2.5 0 0 1 8.5,597 " fill="transparent" style="stroke:#000000;stroke-width:1.5;"/><line style="stroke:#000000;stroke-width:1.5;" x1="6" x2="170.1631" y1="619.2969" y2="619.2969"/><text fill="#000000" font-family="sans-serif" font-size="14" font-weight="bold" lengthAdjust="spacing" textLength="151.1631" x="10" y="611.9951">Feature Impl. Repo</text></g><!--cluster FeatureImplRepo2--><g id="cluster_FeatureImplRepo2"><path d="M504.5,597 L656.6631,597 A3.75,3.75 0 0 1 659.1631,599.5 L666.1631,619.2969 L969.5,619.2969 A2.5,2.5 0 0 1 972,621.7969 L972,932.5 A2.5,2.5 0 0 1 969.5,935 L504.5,935 A2.5,2.5 0 0 1 502,932.5 L502,599.5 A2.5,2.5 0 0 1 504.5,597 " fill="transparent" style="stroke:#000000;stroke-width:1.5;"/><line style="stroke:#000000;stroke-width:1.5;" x1="502" x2="666.1631" y1="619.2969" y2="619.2969"/><text fill="#000000" font-family="sans-serif" font-size="14" font-weight="bold" lengthAdjust="spacing" textLength="151.1631" x="506" y="611.9951">Feature Impl. Repo</text></g><!--class Platform--><g id="elem_Platform"><rect codeLine="3" fill="#F1F1F1" height="129.4844" id="Platform" rx="2.5" ry="2.5" style="stroke:#181818;stroke-width:0.5;" width="240.3682" x="341" y="173"/><ellipse cx="427.29" cy="189" fill="#ADD1B2" rx="11" ry="11" style="stroke:#181818;stroke-width:1;"/><path d="M430.2588,194.6406 Q429.6807,194.9375 429.04,195.0781 Q428.3994,195.2344 427.6963,195.2344 Q425.1963,195.2344 423.8682,193.5938 Q422.5557,191.9375 422.5557,188.8125 Q422.5557,185.6875 423.8682,184.0313 Q425.1963,182.375 427.6963,182.375 Q428.3994,182.375 429.04,182.5313 Q429.6963,182.6875 430.2588,182.9844 L430.2588,185.7031 Q429.6338,185.125 429.04,184.8594 Q428.4463,184.5781 427.8213,184.5781 Q426.4775,184.5781 425.79,185.6563 Q425.1025,186.7188 425.1025,188.8125 Q425.1025,190.9063 425.79,191.9844 Q426.4775,193.0469 427.8213,193.0469 Q428.4463,193.0469 429.04,192.7813 Q429.6338,192.5 430.2588,191.9219 L430.2588,194.6406 Z " fill="#000000"/><text fill="#000000" font-family="sans-serif" font-size="14" lengthAdjust="spacing" textLength="59.2881" x="447.79" y="193.8467">Platform</text><line style="stroke:#181818;stroke-width:0.5;" x1="342" x2="580.3682" y1="205" y2="205"/><ellipse cx="352" cy="218.6484" fill="transparent" rx="3" ry="3" style="stroke:#038048;stroke-width:1;"/><text fill="#000000" font-family="sans-serif" font-size="14" lengthAdjust="spacing" textLength="83.7129" x="361" y="221.9951">SEooC: bool</text><line style="stroke:#181818;stroke-width:1;" x1="342" x2="580.3682" y1="229.2969" y2="229.2969"/><text fill="#000000" font-family="sans-serif" font-size="14" lengthAdjust="spacing" textLength="73.6777" x="347" y="246.292">Objectives</text><text fill="#000000" font-family="sans-serif" font-size="14" lengthAdjust="spacing" textLength="186.9766" x="347" y="262.5889">Stakeholder Requirements</text><text fill="#000000" font-family="sans-serif" font-size="14" lengthAdjust="spacing" textLength="228.3682" x="347" y="278.8857">SW-Platform Assumptions of use</text><text fill="#000000" font-family="sans-serif" font-size="14" lengthAdjust="spacing" textLength="182.5742" x="347" y="295.1826">Platform Integration Tests</text></g><!--class Feature--><g id="elem_Feature"><rect codeLine="14" fill="#F1F1F1" height="145.7813" id="Feature" rx="2.5" ry="2.5" style="stroke:#181818;stroke-width:0.5;" width="239.5479" x="341" y="402"/><ellipse cx="429.5356" cy="418" fill="#ADD1B2" rx="11" ry="11" style="stroke:#181818;stroke-width:1;"/><path d="M432.5044,423.6406 Q431.9263,423.9375 431.2856,424.0781 Q430.645,424.2344 429.9419,424.2344 Q427.4419,424.2344 426.1138,422.5938 Q424.8013,420.9375 424.8013,417.8125 Q424.8013,414.6875 426.1138,413.0313 Q427.4419,411.375 429.9419,411.375 Q430.645,411.375 431.2856,411.5313 Q431.9419,411.6875 432.5044,411.9844 L432.5044,414.7031 Q431.8794,414.125 431.2856,413.8594 Q430.6919,413.5781 430.0669,413.5781 Q428.7231,413.5781 428.0356,414.6563 Q427.3481,415.7188 427.3481,417.8125 Q427.3481,419.9063 428.0356,420.9844 Q428.7231,422.0469 430.0669,422.0469 Q430.6919,422.0469 431.2856,421.7813 Q431.8794,421.5 432.5044,420.9219 L432.5044,423.6406 Z " fill="#000000"/><text fill="#000000" font-family="sans-serif" font-size="14" lengthAdjust="spacing" textLength="53.9766" x="450.0356" y="422.8467">Feature</text><line style="stroke:#181818;stroke-width:0.5;" x1="342" x2="579.5479" y1="434" y2="434"/><ellipse cx="352" cy="447.6484" fill="transparent" rx="3" ry="3" style="stroke:#038048;stroke-width:1;"/><text fill="#000000" font-family="sans-serif" font-size="14" lengthAdjust="spacing" textLength="83.7129" x="361" y="450.9951">SEooC: bool</text><line style="stroke:#181818;stroke-width:1;" x1="342" x2="579.5479" y1="458.2969" y2="458.2969"/><text fill="#000000" font-family="sans-serif" font-size="14" lengthAdjust="spacing" textLength="156.6934" x="347" y="475.292">Feature Requirements</text><text fill="#000000" font-family="sans-serif" font-size="14" lengthAdjust="spacing" textLength="144.751" x="347" y="491.5889">Feature Architecture</text><text fill="#000000" font-family="sans-serif" font-size="14" lengthAdjust="spacing" textLength="177.2627" x="347" y="507.8857">Feature Integration Tests</text><text fill="#000000" font-family="sans-serif" font-size="14" lengthAdjust="spacing" textLength="227.5479" x="347" y="524.1826">Feature Safety/Security Analysis</text><text fill="#000000" font-family="sans-serif" font-size="14" lengthAdjust="spacing" textLength="195.2754" x="347" y="540.4795">Feature Assumptions of use</text></g><g id="elem_N1"><path d="M410,684 L410,709.1328 L461.8623,709.1328 L461.8623,694 L451.8623,684 L410,684 " fill="#FEFFDD" style="stroke:#181818;stroke-width:0.5;"/><path d="M451.8623,684 L451.8623,694 L461.8623,694 L451.8623,684 " fill="#FEFFDD" style="stroke:#181818;stroke-width:1;"/><text fill="#000000" font-family="sans-serif" font-size="13" lengthAdjust="spacing" textLength="30.8623" x="416" y="701.0669">C++</text></g><!--class ComponentCpp--><g id="elem_ComponentCpp"><rect codeLine="30" fill="#F1F1F1" height="129.4844" id="ComponentCpp" rx="2.5" ry="2.5" style="stroke:#181818;stroke-width:0.5;" width="266.8506" x="22.5" y="632"/><ellipse cx="111.0356" cy="648" fill="#ADD1B2" rx="11" ry="11" style="stroke:#181818;stroke-width:1;"/><path d="M114.0044,653.6406 Q113.4263,653.9375 112.7856,654.0781 Q112.145,654.2344 111.4419,654.2344 Q108.9419,654.2344 107.6138,652.5938 Q106.3013,650.9375 106.3013,647.8125 Q106.3013,644.6875 107.6138,643.0313 Q108.9419,641.375 111.4419,641.375 Q112.145,641.375 112.7856,641.5313 Q113.4419,641.6875 114.0044,641.9844 L114.0044,644.7031 Q113.3794,644.125 112.7856,643.8594 Q112.1919,643.5781 111.5669,643.5781 Q110.2231,643.5781 109.5356,644.6563 Q108.8481,645.7188 108.8481,647.8125 Q108.8481,649.9063 109.5356,650.9844 Q110.2231,652.0469 111.5669,652.0469 Q112.1919,652.0469 112.7856,651.7813 Q113.3794,651.5 114.0044,650.9219 L114.0044,653.6406 Z " fill="#000000"/><text fill="#000000" font-family="sans-serif" font-size="14" lengthAdjust="spacing" textLength="81.2793" x="131.5356" y="652.8467">Component</text><line style="stroke:#181818;stroke-width:0.5;" x1="23.5" x2="288.3506" y1="664" y2="664"/><line style="stroke:#181818;stroke-width:1;" x1="23.5" x2="288.3506" y1="672" y2="672"/><text fill="#000000" font-family="sans-serif" font-size="14" lengthAdjust="spacing" textLength="183.9961" x="28.5" y="688.9951">Component Requirements</text><text fill="#000000" font-family="sans-serif" font-size="14" lengthAdjust="spacing" textLength="172.0537" x="28.5" y="705.292">Component Architecture</text><text fill="#000000" font-family="sans-serif" font-size="14" lengthAdjust="spacing" textLength="204.5654" x="28.5" y="721.5889">Component Integration Tests</text><text fill="#000000" font-family="sans-serif" font-size="14" lengthAdjust="spacing" textLength="254.8506" x="28.5" y="737.8857">Component Safety/Security Analysis</text><text fill="#000000" font-family="sans-serif" font-size="14" lengthAdjust="spacing" textLength="215.2842" x="28.5" y="754.1826">Component Assumption of use</text></g><!--class UnitCpp--><g id="elem_UnitCpp"><rect codeLine="39" fill="#F1F1F1" height="96.8906" id="UnitCpp" rx="2.5" ry="2.5" style="stroke:#181818;stroke-width:0.5;" width="123.5283" x="94" y="822"/><ellipse cx="137.3632" cy="838" fill="#ADD1B2" rx="11" ry="11" style="stroke:#181818;stroke-width:1;"/><path d="M140.3319,843.6406 Q139.7538,843.9375 139.1132,844.0781 Q138.4726,844.2344 137.7694,844.2344 Q135.2694,844.2344 133.9413,842.5938 Q132.6288,840.9375 132.6288,837.8125 Q132.6288,834.6875 133.9413,833.0313 Q135.2694,831.375 137.7694,831.375 Q138.4726,831.375 139.1132,831.5313 Q139.7694,831.6875 140.3319,831.9844 L140.3319,834.7031 Q139.7069,834.125 139.1132,833.8594 Q138.5194,833.5781 137.8944,833.5781 Q136.5507,833.5781 135.8632,834.6563 Q135.1757,835.7188 135.1757,837.8125 Q135.1757,839.9063 135.8632,840.9844 Q136.5507,842.0469 137.8944,842.0469 Q138.5194,842.0469 139.1132,841.7813 Q139.7069,841.5 140.3319,840.9219 L140.3319,843.6406 Z " fill="#000000"/><text fill="#000000" font-family="sans-serif" font-size="14" lengthAdjust="spacing" textLength="28.499" x="157.6661" y="842.8467">Unit</text><line style="stroke:#181818;stroke-width:0.5;" x1="95" x2="216.5283" y1="854" y2="854"/><line style="stroke:#181818;stroke-width:1;" x1="95" x2="216.5283" y1="862" y2="862"/><text fill="#000000" font-family="sans-serif" font-size="14" lengthAdjust="spacing" textLength="111.5283" x="100" y="878.9951">Detailed Design</text><text fill="#000000" font-family="sans-serif" font-size="14" lengthAdjust="spacing" textLength="88.6826" x="100" y="895.292">Source Code</text><text fill="#000000" font-family="sans-serif" font-size="14" lengthAdjust="spacing" textLength="62.8975" x="100" y="911.5889">Unit Test</text></g><g id="elem_N2"><path d="M906,684 L906,709.1328 L956.1421,709.1328 L956.1421,694 L946.1421,684 L906,684 " fill="#FEFFDD" style="stroke:#181818;stroke-width:0.5;"/><path d="M946.1421,684 L946.1421,694 L956.1421,694 L946.1421,684 " fill="#FEFFDD" style="stroke:#181818;stroke-width:1;"/><text fill="#000000" font-family="sans-serif" font-size="13" lengthAdjust="spacing" textLength="29.1421" x="912" y="701.0669">Rust</text></g><!--class ComponentRust--><g id="elem_ComponentRust"><rect codeLine="52" fill="#F1F1F1" height="129.4844" id="ComponentRust" rx="2.5" ry="2.5" style="stroke:#181818;stroke-width:0.5;" width="266.8506" x="518.5" y="632"/><ellipse cx="607.0356" cy="648" fill="#ADD1B2" rx="11" ry="11" style="stroke:#181818;stroke-width:1;"/><path d="M610.0044,653.6406 Q609.4263,653.9375 608.7856,654.0781 Q608.145,654.2344 607.4419,654.2344 Q604.9419,654.2344 603.6138,652.5938 Q602.3013,650.9375 602.3013,647.8125 Q602.3013,644.6875 603.6138,643.0313 Q604.9419,641.375 607.4419,641.375 Q608.145,641.375 608.7856,641.5313 Q609.4419,641.6875 610.0044,641.9844 L610.0044,644.7031 Q609.3794,644.125 608.7856,643.8594 Q608.1919,643.5781 607.5669,643.5781 Q606.2231,643.5781 605.5356,644.6563 Q604.8481,645.7188 604.8481,647.8125 Q604.8481,649.9063 605.5356,650.9844 Q606.2231,652.0469 607.5669,652.0469 Q608.1919,652.0469 608.7856,651.7813 Q609.3794,651.5 610.0044,650.9219 L610.0044,653.6406 Z " fill="#000000"/><text fill="#000000" font-family="sans-serif" font-size="14" lengthAdjust="spacing" textLength="81.2793" x="627.5356" y="652.8467">Component</text><line style="stroke:#181818;stroke-width:0.5;" x1="519.5" x2="784.3506" y1="664" y2="664"/><line style="stroke:#181818;stroke-width:1;" x1="519.5" x2="784.3506" y1="672" y2="672"/><text fill="#000000" font-family="sans-serif" font-size="14" lengthAdjust="spacing" textLength="183.9961" x="524.5" y="688.9951">Component Requirements</text><text fill="#000000" font-family="sans-serif" font-size="14" lengthAdjust="spacing" textLength="172.0537" x="524.5" y="705.292">Component Architecture</text><text fill="#000000" font-family="sans-serif" font-size="14" lengthAdjust="spacing" textLength="204.5654" x="524.5" y="721.5889">Component Integration Tests</text><text fill="#000000" font-family="sans-serif" font-size="14" lengthAdjust="spacing" textLength="254.8506" x="524.5" y="737.8857">Component Safety/Security Analysis</text><text fill="#000000" font-family="sans-serif" font-size="14" lengthAdjust="spacing" textLength="215.2842" x="524.5" y="754.1826">Component Assumption of use</text></g><!--class UnitRust--><g id="elem_UnitRust"><rect codeLine="61" fill="#F1F1F1" height="96.8906" id="UnitRust" rx="2.5" ry="2.5" style="stroke:#181818;stroke-width:0.5;" width="123.5283" x="590" y="822"/><ellipse cx="633.3632" cy="838" fill="#ADD1B2" rx="11" ry="11" style="stroke:#181818;stroke-width:1;"/><path d="M636.3319,843.6406 Q635.7538,843.9375 635.1132,844.0781 Q634.4726,844.2344 633.7694,844.2344 Q631.2694,844.2344 629.9413,842.5938 Q628.6288,840.9375 628.6288,837.8125 Q628.6288,834.6875 629.9413,833.0313 Q631.2694,831.375 633.7694,831.375 Q634.4726,831.375 635.1132,831.5313 Q635.7694,831.6875 636.3319,831.9844 L636.3319,834.7031 Q635.7069,834.125 635.1132,833.8594 Q634.5194,833.5781 633.8944,833.5781 Q632.5507,833.5781 631.8632,834.6563 Q631.1757,835.7188 631.1757,837.8125 Q631.1757,839.9063 631.8632,840.9844 Q632.5507,842.0469 633.8944,842.0469 Q634.5194,842.0469 635.1132,841.7813 Q635.7069,841.5 636.3319,840.9219 L636.3319,843.6406 Z " fill="#000000"/><text fill="#000000" font-family="sans-serif" font-size="14" lengthAdjust="spacing" textLength="28.499" x="653.6661" y="842.8467">Unit</text><line style="stroke:#181818;stroke-width:0.5;" x1="591" x2="712.5283" y1="854" y2="854"/><line style="stroke:#181818;stroke-width:1;" x1="591" x2="712.5283" y1="862" y2="862"/><text fill="#000000" font-family="sans-serif" font-size="14" lengthAdjust="spacing" textLength="111.5283" x="596" y="878.9951">Detailed Design</text><text fill="#000000" font-family="sans-serif" font-size="14" lengthAdjust="spacing" textLength="88.6826" x="596" y="895.292">Source Code</text><text fill="#000000" font-family="sans-serif" font-size="14" lengthAdjust="spacing" textLength="62.8975" x="596" y="911.5889">Unit Test</text></g><path d="M231.5,6 L366.1016,6 A3.75,3.75 0 0 1 368.6016,8.5 L375.6016,28.2969 L380.1016,28.2969 A2.5,2.5 0 0 1 382.6016,30.7969 L382.6016,56.0938 A2.5,2.5 0 0 1 380.1016,58.5938 L231.5,58.5938 A2.5,2.5 0 0 1 229,56.0938 L229,8.5 A2.5,2.5 0 0 1 231.5,6 " fill="#F1F1F1" style="stroke:#181818;stroke-width:0.5;"/><line style="stroke:#181818;stroke-width:0.5;" x1="229" x2="375.6016" y1="28.2969" y2="28.2969"/><text fill="#000000" font-family="sans-serif" font-size="14" font-weight="bold" lengthAdjust="spacing" textLength="133.6016" x="233" y="20.9951">Integration Repo</text><!--link Integration Repo to S-Core Repo--><g id="link_Integration Repo_S-Core Repo"><path codeLine="73" d="M306,59.21 C306,72.6525 306,90.2156 306,109.0572 C306,113.7676 306,118.5579 306,123.3837 C306,124.5901 306,125.7988 306,127.009 C306,127.6141 306,128.2195 306,128.8253 C306,129.1282 306,123.4311 306,123.7342 " fill="transparent" id="Integration Repo-to-S-Core Repo" style="stroke:#181818;stroke-width:1;stroke-dasharray:7.0,7.0;"/><polygon fill="#181818" points="306,129.7342,310,120.7342,306,124.7342,302,120.7342,306,129.7342" style="stroke:#181818;stroke-width:1;"/><text fill="#000000" font-family="sans-serif" font-size="13" lengthAdjust="spacing" textLength="82.3418" x="307" y="102.0669">derives from</text></g><!--reverse link Platform to Feature--><g id="link_Platform_Feature"><path codeLine="81" d="M461,314.23 C461,345.02 461,370.09 461,401.9 " fill="transparent" id="Platform-backto-Feature" style="stroke:#181818;stroke-width:1;"/><polygon fill="#181818" points="461,302.23,457,308.23,461,314.23,465,308.23,461,302.23" style="stroke:#181818;stroke-width:1;"/><text fill="#000000" font-family="sans-serif" font-size="13" lengthAdjust="spacing" textLength="8.271" x="452.5319" y="322.6282">1</text><text fill="#000000" font-family="sans-serif" font-size="13" lengthAdjust="spacing" textLength="8.2393" x="452.6403" y="391.0501">n</text></g><!--reverse link Feature to ComponentCpp--><g id="link_Feature_ComponentCpp"><path codeLine="82" d="M350.9698,555.1891 C313.3798,582.2391 280.72,605.74 244.29,631.96 " fill="transparent" id="Feature-backto-ComponentCpp" style="stroke:#181818;stroke-width:1;"/><polygon fill="transparent" points="360.71,548.18,353.5035,548.4378,350.9698,555.1891,358.1763,554.9313,360.71,548.18" style="stroke:#181818;stroke-width:1;"/><text fill="#000000" font-family="sans-serif" font-size="13" lengthAdjust="spacing" textLength="8.271" x="342.8043" y="567.9535">1</text><text fill="#000000" font-family="sans-serif" font-size="13" lengthAdjust="spacing" textLength="8.2393" x="245.5305" y="621.1283">n</text></g><!--reverse link Feature to ComponentRust--><g id="link_Feature_ComponentRust"><path codeLine="83" d="M531.6861,557.2335 C555.1661,584.2235 573.78,605.6 596.55,631.78 " fill="transparent" id="Feature-backto-ComponentRust" style="stroke:#181818;stroke-width:1;"/><polygon fill="transparent" points="523.81,548.18,524.7302,555.3321,531.6861,557.2335,530.7659,550.0814,523.81,548.18" style="stroke:#181818;stroke-width:1;"/><text fill="#000000" font-family="sans-serif" font-size="13" lengthAdjust="spacing" textLength="8.271" x="521.4498" y="567.9535">1</text><text fill="#000000" font-family="sans-serif" font-size="13" lengthAdjust="spacing" textLength="8.2393" x="582.0689" y="620.9286">n</text></g><!--reverse link ComponentCpp to ComponentCpp--><g id="link_ComponentCpp_ComponentCpp"><path codeLine="84" d="M301.7476,681.7938 C322.3776,684.2238 324.5,688.19 324.5,696.5 C324.5,704.81 310.46,710.18 289.83,712.61 " fill="transparent" id="ComponentCpp-backto-ComponentCpp" style="stroke:#181818;stroke-width:1;"/><polygon fill="transparent" points="289.83,680.39,295.3209,685.0644,301.7476,681.7938,296.2567,677.1193,289.83,680.39" style="stroke:#181818;stroke-width:1;"/><text fill="#000000" font-family="sans-serif" font-size="13" lengthAdjust="spacing" textLength="55.0278" x="330.5" y="701.0669">contains</text><text fill="#000000" font-family="sans-serif" font-size="13" lengthAdjust="spacing" textLength="8.271" x="297.3791" y="676.1561">1</text><text fill="#000000" font-family="sans-serif" font-size="13" lengthAdjust="spacing" textLength="8.2393" x="297.3782" y="710.1381">n</text></g><!--reverse link ComponentRust to ComponentRust--><g id="link_ComponentRust_ComponentRust"><path codeLine="85" d="M797.7476,681.7938 C818.3776,684.2238 820.5,688.19 820.5,696.5 C820.5,704.81 806.46,710.18 785.83,712.61 " fill="transparent" id="ComponentRust-backto-ComponentRust" style="stroke:#181818;stroke-width:1;"/><polygon fill="transparent" points="785.83,680.39,791.3209,685.0644,797.7476,681.7938,792.2567,677.1193,785.83,680.39" style="stroke:#181818;stroke-width:1;"/><text fill="#000000" font-family="sans-serif" font-size="13" lengthAdjust="spacing" textLength="55.0278" x="826.5" y="701.0669">contains</text><text fill="#000000" font-family="sans-serif" font-size="13" lengthAdjust="spacing" textLength="8.271" x="793.3791" y="676.1561">1</text><text fill="#000000" font-family="sans-serif" font-size="13" lengthAdjust="spacing" textLength="8.2393" x="793.3782" y="710.1381">n</text></g><!--reverse link ComponentCpp to UnitCpp--><g id="link_ComponentCpp_UnitCpp"><path codeLine="86" d="M156,773.06 C156,793.15 156,803.01 156,821.8 " fill="transparent" id="ComponentCpp-backto-UnitCpp" style="stroke:#181818;stroke-width:1;"/><polygon fill="transparent" points="156,761.06,152,767.06,156,773.06,160,767.06,156,761.06" style="stroke:#181818;stroke-width:1;"/><text fill="#000000" font-family="sans-serif" font-size="13" lengthAdjust="spacing" textLength="8.271" x="147.5618" y="781.4385">1</text><text fill="#000000" font-family="sans-serif" font-size="13" lengthAdjust="spacing" textLength="8.2393" x="147.4875" y="810.9808">n</text></g><!--reverse link ComponentRust to UnitRust--><g id="link_ComponentRust_UnitRust"><path codeLine="87" d="M652,773.06 C652,793.15 652,803.01 652,821.8 " fill="transparent" id="ComponentRust-backto-UnitRust" style="stroke:#181818;stroke-width:1;"/><polygon fill="transparent" points="652,761.06,648,767.06,652,773.06,656,767.06,652,761.06" style="stroke:#181818;stroke-width:1;"/><text fill="#000000" font-family="sans-serif" font-size="13" lengthAdjust="spacing" textLength="8.271" x="643.5618" y="781.4385">1</text><text fill="#000000" font-family="sans-serif" font-size="13" lengthAdjust="spacing" textLength="8.2393" x="643.4875" y="810.9808">n</text></g><!--SRC=[rLHDJ-Cm4BtdLunoGQ9AKNliOQKgi18NG0s8mseF9fcsNXAFiHsa2l7ViTryDccfTazxYkqtysRUSpoIfQziWn0cKKmAOOMIGlW80DASQGqFEJDhKeK_0fX0SaCKB-25AFSdKUG_zoz_C3Ny7RNV9eQzufRo39MbV2kvmWA5gS3dgA5TQbqMqd0I6cWDfKOVqk2tmk16CHS0ZwWzmsVm6GIoRlmdCbEET5wVVzDuctxGPGqiLRhbnegpcnumrbgB9coDPdULO5egRdQm52pVQNx0FQP-NDvj8VDf9P8rwjofEvjvcO8CEl1kvgl4audzeiWy43JEX34LaeHLwgcQNInbvLRbJOCCtMcXWJyjDEvGYv_qg5EXSQbhKYldIV2z4hSOYBX6mtYEcLrelX7xFv1AbQ8jaUrRTec-mx-qVzwtV-v9LwNdEzz_b_3_Ny1GnR_TG5T3_SOjVW4FLSGASu_gBPSw68cVJdySpBS5sC7aXXMi5HMMwqZMu9Kjd7fzTiAyaz2VKqVOkLrNbtnEodoGqfCP_ThoB4FnEui6nPo3VUUQcHlEGhYC8WX5MAS5TIiEemhh3exJ0VufzERCCHuhA2LX_nUXW_x3E4eycjBMoFOfrMmO9Us4-4w_0000]--></g></svg>