<svg xmlns="http://www.w3.org/2000/svg" xmlns:xlink="http://www.w3.org/1999/xlink" contentStyleType="text/css" data-diagram-type="CLASS" height="322px" preserveAspectRatio="none" style="width:6195px;height:322px;background:#FFFFFF;" version="1.1" viewBox="0 0 6195 322" width="6195px" zoomAndPan="magnify"><defs/><g><!--entity Feature_User--><g id="elem_Feature_User"><ellipse cx="3158.6685" cy="14" fill="#F1F1F1" rx="8" ry="8" style="stroke:#181818;stroke-width:0.5;"/><path d="M3158.6685,22 L3158.6685,49 M3145.6685,30 L3171.6685,30 M3158.6685,49 L3145.6685,64 M3158.6685,49 L3171.6685,64 " fill="transparent" style="stroke:#181818;stroke-width:0.5;"/><text fill="#000000" font-family="sans-serif" font-size="14" lengthAdjust="spacing" textLength="90.3369" x="3113.5" y="78.4951">Feature User</text></g><!--class logic_arc_int__baselibs__condition_variable--><g id="elem_logic_arc_int__baselibs__condition_variable"><rect fill="#F1F1F1" height="40" id="logic_arc_int__baselibs__condition_variable" rx="2.5" ry="2.5" style="stroke:#181818;stroke-width:0.5;" width="332.7539" x="2992" y="158.5"/><ellipse cx="3007" cy="174.5" fill="#ADD1B2" rx="11" ry="11" style="stroke:#181818;stroke-width:1;"/><path d="M3009.9688,180.1406 Q3009.3906,180.4375 3008.75,180.5781 Q3008.1094,180.7344 3007.4063,180.7344 Q3004.9063,180.7344 3003.5781,179.0938 Q3002.2656,177.4375 3002.2656,174.3125 Q3002.2656,171.1875 3003.5781,169.5313 Q3004.9063,167.875 3007.4063,167.875 Q3008.1094,167.875 3008.75,168.0313 Q3009.4063,168.1875 3009.9688,168.4844 L3009.9688,171.2031 Q3009.3438,170.625 3008.75,170.3594 Q3008.1563,170.0781 3007.5313,170.0781 Q3006.1875,170.0781 3005.5,171.1563 Q3004.8125,172.2188 3004.8125,174.3125 Q3004.8125,176.4063 3005.5,177.4844 Q3006.1875,178.5469 3007.5313,178.5469 Q3008.1563,178.5469 3008.75,178.2813 Q3009.3438,178 3009.9688,177.4219 L3009.9688,180.1406 Z " fill="#000000"/><text fill="#000000" font-family="sans-serif" font-size="14" lengthAdjust="spacing" textLength="300.7539" x="3021" y="179.3467">logic_arc_int__baselibs__condition_variable</text><line style="stroke:#181818;stroke-width:0.5;" x1="2993" x2="3323.7539" y1="190.5" y2="190.5"/></g><!--class logic_arc_int__baselibs__message_passing--><g id="elem_logic_arc_int__baselibs__message_passing"><rect fill="#F1F1F1" height="40" id="logic_arc_int__baselibs__message_passing" rx="2.5" ry="2.5" style="stroke:#181818;stroke-width:0.5;" width="328.167" x="2628.5" y="158.5"/><ellipse cx="2643.5" cy="174.5" fill="#ADD1B2" rx="11" ry="11" style="stroke:#181818;stroke-width:1;"/><path d="M2646.4688,180.1406 Q2645.8906,180.4375 2645.25,180.5781 Q2644.6094,180.7344 2643.9063,180.7344 Q2641.4063,180.7344 2640.0781,179.0938 Q2638.7656,177.4375 2638.7656,174.3125 Q2638.7656,171.1875 2640.0781,169.5313 Q2641.4063,167.875 2643.9063,167.875 Q2644.6094,167.875 2645.25,168.0313 Q2645.9063,168.1875 2646.4688,168.4844 L2646.4688,171.2031 Q2645.8438,170.625 2645.25,170.3594 Q2644.6563,170.0781 2644.0313,170.0781 Q2642.6875,170.0781 2642,171.1563 Q2641.3125,172.2188 2641.3125,174.3125 Q2641.3125,176.4063 2642,177.4844 Q2642.6875,178.5469 2644.0313,178.5469 Q2644.6563,178.5469 2645.25,178.2813 Q2645.8438,178 2646.4688,177.4219 L2646.4688,180.1406 Z " fill="#000000"/><text fill="#000000" font-family="sans-serif" font-size="14" lengthAdjust="spacing" textLength="296.167" x="2657.5" y="179.3467">logic_arc_int__baselibs__message_passing</text><line style="stroke:#181818;stroke-width:0.5;" x1="2629.5" x2="2955.667" y1="190.5" y2="190.5"/></g><!--class comp_arc_sta__baselibs__utils--><g id="elem_comp_arc_sta__baselibs__utils"><rect fill="#F1F1F1" height="40" id="comp_arc_sta__baselibs__utils" rx="2.5" ry="2.5" style="stroke:#181818;stroke-width:0.5;" width="242.9502" x="5751" y="275.5"/><ellipse cx="5766" cy="291.5" fill="#ADD1B2" rx="11" ry="11" style="stroke:#181818;stroke-width:1;"/><path d="M5768.9688,297.1406 Q5768.3906,297.4375 5767.75,297.5781 Q5767.1094,297.7344 5766.4063,297.7344 Q5763.9063,297.7344 5762.5781,296.0938 Q5761.2656,294.4375 5761.2656,291.3125 Q5761.2656,288.1875 5762.5781,286.5313 Q5763.9063,284.875 5766.4063,284.875 Q5767.1094,284.875 5767.75,285.0313 Q5768.4063,285.1875 5768.9688,285.4844 L5768.9688,288.2031 Q5768.3438,287.625 5767.75,287.3594 Q5767.1563,287.0781 5766.5313,287.0781 Q5765.1875,287.0781 5764.5,288.1563 Q5763.8125,289.2188 5763.8125,291.3125 Q5763.8125,293.4063 5764.5,294.4844 Q5765.1875,295.5469 5766.5313,295.5469 Q5767.1563,295.5469 5767.75,295.2813 Q5768.3438,295 5768.9688,294.4219 L5768.9688,297.1406 Z " fill="#000000"/><text fill="#000000" font-family="sans-serif" font-size="14" lengthAdjust="spacing" textLength="210.9502" x="5780" y="296.3467">comp_arc_sta__baselibs__utils</text><line style="stroke:#181818;stroke-width:0.5;" x1="5752" x2="5992.9502" y1="307.5" y2="307.5"/></g><!--class logic_arc_int__baselibs__utils_scoped_op--><g id="elem_logic_arc_int__baselibs__utils_scoped_op"><rect fill="#F1F1F1" height="40" id="logic_arc_int__baselibs__utils_scoped_op" rx="2.5" ry="2.5" style="stroke:#181818;stroke-width:0.5;" width="315.377" x="5546" y="158.5"/><ellipse cx="5561" cy="174.5" fill="#ADD1B2" rx="11" ry="11" style="stroke:#181818;stroke-width:1;"/><path d="M5563.9688,180.1406 Q5563.3906,180.4375 5562.75,180.5781 Q5562.1094,180.7344 5561.4063,180.7344 Q5558.9063,180.7344 5557.5781,179.0938 Q5556.2656,177.4375 5556.2656,174.3125 Q5556.2656,171.1875 5557.5781,169.5313 Q5558.9063,167.875 5561.4063,167.875 Q5562.1094,167.875 5562.75,168.0313 Q5563.4063,168.1875 5563.9688,168.4844 L5563.9688,171.2031 Q5563.3438,170.625 5562.75,170.3594 Q5562.1563,170.0781 5561.5313,170.0781 Q5560.1875,170.0781 5559.5,171.1563 Q5558.8125,172.2188 5558.8125,174.3125 Q5558.8125,176.4063 5559.5,177.4844 Q5560.1875,178.5469 5561.5313,178.5469 Q5562.1563,178.5469 5562.75,178.2813 Q5563.3438,178 5563.9688,177.4219 L5563.9688,180.1406 Z " fill="#000000"/><text fill="#000000" font-family="sans-serif" font-size="14" lengthAdjust="spacing" textLength="283.377" x="5575" y="179.3467">logic_arc_int__baselibs__utils_scoped_op</text><line style="stroke:#181818;stroke-width:0.5;" x1="5547" x2="5860.377" y1="190.5" y2="190.5"/></g><!--class logic_arc_int__baselibs__synchronized_queue--><g id="elem_logic_arc_int__baselibs__synchronized_queue"><rect fill="#F1F1F1" height="40" id="logic_arc_int__baselibs__synchronized_queue" rx="2.5" ry="2.5" style="stroke:#181818;stroke-width:0.5;" width="348.3604" x="3697.5" y="158.5"/><ellipse cx="3712.5" cy="174.5" fill="#ADD1B2" rx="11" ry="11" style="stroke:#181818;stroke-width:1;"/><path d="M3715.4688,180.1406 Q3714.8906,180.4375 3714.25,180.5781 Q3713.6094,180.7344 3712.9063,180.7344 Q3710.4063,180.7344 3709.0781,179.0938 Q3707.7656,177.4375 3707.7656,174.3125 Q3707.7656,171.1875 3709.0781,169.5313 Q3710.4063,167.875 3712.9063,167.875 Q3713.6094,167.875 3714.25,168.0313 Q3714.9063,168.1875 3715.4688,168.4844 L3715.4688,171.2031 Q3714.8438,170.625 3714.25,170.3594 Q3713.6563,170.0781 3713.0313,170.0781 Q3711.6875,170.0781 3711,171.1563 Q3710.3125,172.2188 3710.3125,174.3125 Q3710.3125,176.4063 3711,177.4844 Q3711.6875,178.5469 3713.0313,178.5469 Q3713.6563,178.5469 3714.25,178.2813 Q3714.8438,178 3715.4688,177.4219 L3715.4688,180.1406 Z " fill="#000000"/><text fill="#000000" font-family="sans-serif" font-size="14" lengthAdjust="spacing" textLength="316.3604" x="3726.5" y="179.3467">logic_arc_int__baselibs__synchronized_queue</text><line style="stroke:#181818;stroke-width:0.5;" x1="3698.5" x2="4044.8604" y1="190.5" y2="190.5"/></g><!--class comp_arc_sta__baselibs__concurrency--><g id="elem_comp_arc_sta__baselibs__concurrency"><rect fill="#F1F1F1" height="40" id="comp_arc_sta__baselibs__concurrency" rx="2.5" ry="2.5" style="stroke:#181818;stroke-width:0.5;" width="300.2012" x="4172.5" y="275.5"/><ellipse cx="4187.5" cy="291.5" fill="#ADD1B2" rx="11" ry="11" style="stroke:#181818;stroke-width:1;"/><path d="M4190.4688,297.1406 Q4189.8906,297.4375 4189.25,297.5781 Q4188.6094,297.7344 4187.9063,297.7344 Q4185.4063,297.7344 4184.0781,296.0938 Q4182.7656,294.4375 4182.7656,291.3125 Q4182.7656,288.1875 4184.0781,286.5313 Q4185.4063,284.875 4187.9063,284.875 Q4188.6094,284.875 4189.25,285.0313 Q4189.9063,285.1875 4190.4688,285.4844 L4190.4688,288.2031 Q4189.8438,287.625 4189.25,287.3594 Q4188.6563,287.0781 4188.0313,287.0781 Q4186.6875,287.0781 4186,288.1563 Q4185.3125,289.2188 4185.3125,291.3125 Q4185.3125,293.4063 4186,294.4844 Q4186.6875,295.5469 4188.0313,295.5469 Q4188.6563,295.5469 4189.25,295.2813 Q4189.8438,295 4190.4688,294.4219 L4190.4688,297.1406 Z " fill="#000000"/><text fill="#000000" font-family="sans-serif" font-size="14" lengthAdjust="spacing" textLength="268.2012" x="4201.5" y="296.3467">comp_arc_sta__baselibs__concurrency</text><line style="stroke:#181818;stroke-width:0.5;" x1="4173.5" x2="4471.7012" y1="307.5" y2="307.5"/></g><!--class logic_arc_int__baselibs__executor--><g id="elem_logic_arc_int__baselibs__executor"><rect fill="#F1F1F1" height="40" id="logic_arc_int__baselibs__executor" rx="2.5" ry="2.5" style="stroke:#181818;stroke-width:0.5;" width="266.4385" x="4632.5" y="158.5"/><ellipse cx="4647.5" cy="174.5" fill="#ADD1B2" rx="11" ry="11" style="stroke:#181818;stroke-width:1;"/><path d="M4650.4688,180.1406 Q4649.8906,180.4375 4649.25,180.5781 Q4648.6094,180.7344 4647.9063,180.7344 Q4645.4063,180.7344 4644.0781,179.0938 Q4642.7656,177.4375 4642.7656,174.3125 Q4642.7656,171.1875 4644.0781,169.5313 Q4645.4063,167.875 4647.9063,167.875 Q4648.6094,167.875 4649.25,168.0313 Q4649.9063,168.1875 4650.4688,168.4844 L4650.4688,171.2031 Q4649.8438,170.625 4649.25,170.3594 Q4648.6563,170.0781 4648.0313,170.0781 Q4646.6875,170.0781 4646,171.1563 Q4645.3125,172.2188 4645.3125,174.3125 Q4645.3125,176.4063 4646,177.4844 Q4646.6875,178.5469 4648.0313,178.5469 Q4648.6563,178.5469 4649.25,178.2813 Q4649.8438,178 4650.4688,177.4219 L4650.4688,180.1406 Z " fill="#000000"/><text fill="#000000" font-family="sans-serif" font-size="14" lengthAdjust="spacing" textLength="234.4385" x="4661.5" y="179.3467">logic_arc_int__baselibs__executor</text><line style="stroke:#181818;stroke-width:0.5;" x1="4633.5" x2="4897.9385" y1="190.5" y2="190.5"/></g><!--class logic_arc_int__baselibs__task--><g id="elem_logic_arc_int__baselibs__task"><rect fill="#F1F1F1" height="40" id="logic_arc_int__baselibs__task" rx="2.5" ry="2.5" style="stroke:#181818;stroke-width:0.5;" width="234.0156" x="4363.5" y="158.5"/><ellipse cx="4378.5" cy="174.5" fill="#ADD1B2" rx="11" ry="11" style="stroke:#181818;stroke-width:1;"/><path d="M4381.4688,180.1406 Q4380.8906,180.4375 4380.25,180.5781 Q4379.6094,180.7344 4378.9063,180.7344 Q4376.4063,180.7344 4375.0781,179.0938 Q4373.7656,177.4375 4373.7656,174.3125 Q4373.7656,171.1875 4375.0781,169.5313 Q4376.4063,167.875 4378.9063,167.875 Q4379.6094,167.875 4380.25,168.0313 Q4380.9063,168.1875 4381.4688,168.4844 L4381.4688,171.2031 Q4380.8438,170.625 4380.25,170.3594 Q4379.6563,170.0781 4379.0313,170.0781 Q4377.6875,170.0781 4377,171.1563 Q4376.3125,172.2188 4376.3125,174.3125 Q4376.3125,176.4063 4377,177.4844 Q4377.6875,178.5469 4379.0313,178.5469 Q4379.6563,178.5469 4380.25,178.2813 Q4380.8438,178 4381.4688,177.4219 L4381.4688,180.1406 Z " fill="#000000"/><text fill="#000000" font-family="sans-serif" font-size="14" lengthAdjust="spacing" textLength="202.0156" x="4392.5" y="179.3467">logic_arc_int__baselibs__task</text><line style="stroke:#181818;stroke-width:0.5;" x1="4364.5" x2="4596.5156" y1="190.5" y2="190.5"/></g><!--class logic_arc_int__baselibs__intrusive_list--><g id="elem_logic_arc_int__baselibs__intrusive_list"><rect fill="#F1F1F1" height="40" id="logic_arc_int__baselibs__intrusive_list" rx="2.5" ry="2.5" style="stroke:#181818;stroke-width:0.5;" width="293.0713" x="1678" y="158.5"/><ellipse cx="1693" cy="174.5" fill="#ADD1B2" rx="11" ry="11" style="stroke:#181818;stroke-width:1;"/><path d="M1695.9688,180.1406 Q1695.3906,180.4375 1694.75,180.5781 Q1694.1094,180.7344 1693.4063,180.7344 Q1690.9063,180.7344 1689.5781,179.0938 Q1688.2656,177.4375 1688.2656,174.3125 Q1688.2656,171.1875 1689.5781,169.5313 Q1690.9063,167.875 1693.4063,167.875 Q1694.1094,167.875 1694.75,168.0313 Q1695.4063,168.1875 1695.9688,168.4844 L1695.9688,171.2031 Q1695.3438,170.625 1694.75,170.3594 Q1694.1563,170.0781 1693.5313,170.0781 Q1692.1875,170.0781 1691.5,171.1563 Q1690.8125,172.2188 1690.8125,174.3125 Q1690.8125,176.4063 1691.5,177.4844 Q1692.1875,178.5469 1693.5313,178.5469 Q1694.1563,178.5469 1694.75,178.2813 Q1695.3438,178 1695.9688,177.4219 L1695.9688,180.1406 Z " fill="#000000"/><text fill="#000000" font-family="sans-serif" font-size="14" lengthAdjust="spacing" textLength="261.0713" x="1707" y="179.3467">logic_arc_int__baselibs__intrusive_list</text><line style="stroke:#181818;stroke-width:0.5;" x1="1679" x2="1970.0713" y1="190.5" y2="190.5"/></g><!--class logic_arc_int__baselibs__future--><g id="elem_logic_arc_int__baselibs__future"><rect fill="#F1F1F1" height="40" id="logic_arc_int__baselibs__future" rx="2.5" ry="2.5" style="stroke:#181818;stroke-width:0.5;" width="247.0791" x="4081" y="158.5"/><ellipse cx="4096" cy="174.5" fill="#ADD1B2" rx="11" ry="11" style="stroke:#181818;stroke-width:1;"/><path d="M4098.9688,180.1406 Q4098.3906,180.4375 4097.75,180.5781 Q4097.1094,180.7344 4096.4063,180.7344 Q4093.9063,180.7344 4092.5781,179.0938 Q4091.2656,177.4375 4091.2656,174.3125 Q4091.2656,171.1875 4092.5781,169.5313 Q4093.9063,167.875 4096.4063,167.875 Q4097.1094,167.875 4097.75,168.0313 Q4098.4063,168.1875 4098.9688,168.4844 L4098.9688,171.2031 Q4098.3438,170.625 4097.75,170.3594 Q4097.1563,170.0781 4096.5313,170.0781 Q4095.1875,170.0781 4094.5,171.1563 Q4093.8125,172.2188 4093.8125,174.3125 Q4093.8125,176.4063 4094.5,177.4844 Q4095.1875,178.5469 4096.5313,178.5469 Q4097.1563,178.5469 4097.75,178.2813 Q4098.3438,178 4098.9688,177.4219 L4098.9688,180.1406 Z " fill="#000000"/><text fill="#000000" font-family="sans-serif" font-size="14" lengthAdjust="spacing" textLength="215.0791" x="4110" y="179.3467">logic_arc_int__baselibs__future</text><line style="stroke:#181818;stroke-width:0.5;" x1="4082" x2="4327.0791" y1="190.5" y2="190.5"/></g><!--class logic_arc_int__baselibs__utils_base64--><g id="elem_logic_arc_int__baselibs__utils_base64"><rect fill="#F1F1F1" height="40" id="logic_arc_int__baselibs__utils_base64" rx="2.5" ry="2.5" style="stroke:#181818;stroke-width:0.5;" width="292.1689" x="5896.5" y="158.5"/><ellipse cx="5911.5" cy="174.5" fill="#ADD1B2" rx="11" ry="11" style="stroke:#181818;stroke-width:1;"/><path d="M5914.4688,180.1406 Q5913.8906,180.4375 5913.25,180.5781 Q5912.6094,180.7344 5911.9063,180.7344 Q5909.4063,180.7344 5908.0781,179.0938 Q5906.7656,177.4375 5906.7656,174.3125 Q5906.7656,171.1875 5908.0781,169.5313 Q5909.4063,167.875 5911.9063,167.875 Q5912.6094,167.875 5913.25,168.0313 Q5913.9063,168.1875 5914.4688,168.4844 L5914.4688,171.2031 Q5913.8438,170.625 5913.25,170.3594 Q5912.6563,170.0781 5912.0313,170.0781 Q5910.6875,170.0781 5910,171.1563 Q5909.3125,172.2188 5909.3125,174.3125 Q5909.3125,176.4063 5910,177.4844 Q5910.6875,178.5469 5912.0313,178.5469 Q5912.6563,178.5469 5913.25,178.2813 Q5913.8438,178 5914.4688,177.4219 L5914.4688,180.1406 Z " fill="#000000"/><text fill="#000000" font-family="sans-serif" font-size="14" lengthAdjust="spacing" textLength="260.1689" x="5925.5" y="179.3467">logic_arc_int__baselibs__utils_base64</text><line style="stroke:#181818;stroke-width:0.5;" x1="5897.5" x2="6187.6689" y1="190.5" y2="190.5"/></g><!--class logic_arc_int__baselibs__task_result--><g id="elem_logic_arc_int__baselibs__task_result"><rect fill="#F1F1F1" height="40" id="logic_arc_int__baselibs__task_result" rx="2.5" ry="2.5" style="stroke:#181818;stroke-width:0.5;" width="280.9307" x="5230" y="158.5"/><ellipse cx="5245" cy="174.5" fill="#ADD1B2" rx="11" ry="11" style="stroke:#181818;stroke-width:1;"/><path d="M5247.9688,180.1406 Q5247.3906,180.4375 5246.75,180.5781 Q5246.1094,180.7344 5245.4063,180.7344 Q5242.9063,180.7344 5241.5781,179.0938 Q5240.2656,177.4375 5240.2656,174.3125 Q5240.2656,171.1875 5241.5781,169.5313 Q5242.9063,167.875 5245.4063,167.875 Q5246.1094,167.875 5246.75,168.0313 Q5247.4063,168.1875 5247.9688,168.4844 L5247.9688,171.2031 Q5247.3438,170.625 5246.75,170.3594 Q5246.1563,170.0781 5245.5313,170.0781 Q5244.1875,170.0781 5243.5,171.1563 Q5242.8125,172.2188 5242.8125,174.3125 Q5242.8125,176.4063 5243.5,177.4844 Q5244.1875,178.5469 5245.5313,178.5469 Q5246.1563,178.5469 5246.75,178.2813 Q5247.3438,178 5247.9688,177.4219 L5247.9688,180.1406 Z " fill="#000000"/><text fill="#000000" font-family="sans-serif" font-size="14" lengthAdjust="spacing" textLength="248.9307" x="5259" y="179.3467">logic_arc_int__baselibs__task_result</text><line style="stroke:#181818;stroke-width:0.5;" x1="5231" x2="5509.9307" y1="190.5" y2="190.5"/></g><!--class logic_arc_int__baselibs__filesystem--><g id="elem_logic_arc_int__baselibs__filesystem"><rect fill="#F1F1F1" height="40" id="logic_arc_int__baselibs__filesystem" rx="2.5" ry="2.5" style="stroke:#181818;stroke-width:0.5;" width="276.4805" x="1366.5" y="158.5"/><ellipse cx="1381.5" cy="174.5" fill="#ADD1B2" rx="11" ry="11" style="stroke:#181818;stroke-width:1;"/><path d="M1384.4688,180.1406 Q1383.8906,180.4375 1383.25,180.5781 Q1382.6094,180.7344 1381.9063,180.7344 Q1379.4063,180.7344 1378.0781,179.0938 Q1376.7656,177.4375 1376.7656,174.3125 Q1376.7656,171.1875 1378.0781,169.5313 Q1379.4063,167.875 1381.9063,167.875 Q1382.6094,167.875 1383.25,168.0313 Q1383.9063,168.1875 1384.4688,168.4844 L1384.4688,171.2031 Q1383.8438,170.625 1383.25,170.3594 Q1382.6563,170.0781 1382.0313,170.0781 Q1380.6875,170.0781 1380,171.1563 Q1379.3125,172.2188 1379.3125,174.3125 Q1379.3125,176.4063 1380,177.4844 Q1380.6875,178.5469 1382.0313,178.5469 Q1382.6563,178.5469 1383.25,178.2813 Q1383.8438,178 1384.4688,177.4219 L1384.4688,180.1406 Z " fill="#000000"/><text fill="#000000" font-family="sans-serif" font-size="14" lengthAdjust="spacing" textLength="244.4805" x="1395.5" y="179.3467">logic_arc_int__baselibs__filesystem</text><line style="stroke:#181818;stroke-width:0.5;" x1="1367.5" x2="1641.9805" y1="190.5" y2="190.5"/></g><!--class comp_arc_sta__baselibs__message_passing--><g id="elem_comp_arc_sta__baselibs__message_passing"><rect fill="#F1F1F1" height="40" id="comp_arc_sta__baselibs__message_passing" rx="2.5" ry="2.5" style="stroke:#181818;stroke-width:0.5;" width="337.1357" x="2628" y="275.5"/><ellipse cx="2643" cy="291.5" fill="#ADD1B2" rx="11" ry="11" style="stroke:#181818;stroke-width:1;"/><path d="M2645.9688,297.1406 Q2645.3906,297.4375 2644.75,297.5781 Q2644.1094,297.7344 2643.4063,297.7344 Q2640.9063,297.7344 2639.5781,296.0938 Q2638.2656,294.4375 2638.2656,291.3125 Q2638.2656,288.1875 2639.5781,286.5313 Q2640.9063,284.875 2643.4063,284.875 Q2644.1094,284.875 2644.75,285.0313 Q2645.4063,285.1875 2645.9688,285.4844 L2645.9688,288.2031 Q2645.3438,287.625 2644.75,287.3594 Q2644.1563,287.0781 2643.5313,287.0781 Q2642.1875,287.0781 2641.5,288.1563 Q2640.8125,289.2188 2640.8125,291.3125 Q2640.8125,293.4063 2641.5,294.4844 Q2642.1875,295.5469 2643.5313,295.5469 Q2644.1563,295.5469 2644.75,295.2813 Q2645.3438,295 2645.9688,294.4219 L2645.9688,297.1406 Z " fill="#000000"/><text fill="#000000" font-family="sans-serif" font-size="14" lengthAdjust="spacing" textLength="305.1357" x="2657" y="296.3467">comp_arc_sta__baselibs__message_passing</text><line style="stroke:#181818;stroke-width:0.5;" x1="2629" x2="2964.1357" y1="307.5" y2="307.5"/></g><!--class logic_arc_int__baselibs__result--><g id="elem_logic_arc_int__baselibs__result"><rect fill="#F1F1F1" height="40" id="logic_arc_int__baselibs__result" rx="2.5" ry="2.5" style="stroke:#181818;stroke-width:0.5;" width="244.4609" x="2349.5" y="158.5"/><ellipse cx="2364.5" cy="174.5" fill="#ADD1B2" rx="11" ry="11" style="stroke:#181818;stroke-width:1;"/><path d="M2367.4688,180.1406 Q2366.8906,180.4375 2366.25,180.5781 Q2365.6094,180.7344 2364.9063,180.7344 Q2362.4063,180.7344 2361.0781,179.0938 Q2359.7656,177.4375 2359.7656,174.3125 Q2359.7656,171.1875 2361.0781,169.5313 Q2362.4063,167.875 2364.9063,167.875 Q2365.6094,167.875 2366.25,168.0313 Q2366.9063,168.1875 2367.4688,168.4844 L2367.4688,171.2031 Q2366.8438,170.625 2366.25,170.3594 Q2365.6563,170.0781 2365.0313,170.0781 Q2363.6875,170.0781 2363,171.1563 Q2362.3125,172.2188 2362.3125,174.3125 Q2362.3125,176.4063 2363,177.4844 Q2363.6875,178.5469 2365.0313,178.5469 Q2365.6563,178.5469 2366.25,178.2813 Q2366.8438,178 2367.4688,177.4219 L2367.4688,180.1406 Z " fill="#000000"/><text fill="#000000" font-family="sans-serif" font-size="14" lengthAdjust="spacing" textLength="212.4609" x="2378.5" y="179.3467">logic_arc_int__baselibs__result</text><line style="stroke:#181818;stroke-width:0.5;" x1="2350.5" x2="2592.9609" y1="190.5" y2="190.5"/></g><!--class comp_arc_sta__baselibs__result--><g id="elem_comp_arc_sta__baselibs__result"><rect fill="#F1F1F1" height="40" id="comp_arc_sta__baselibs__result" rx="2.5" ry="2.5" style="stroke:#181818;stroke-width:0.5;" width="253.4297" x="2340" y="275.5"/><ellipse cx="2355" cy="291.5" fill="#ADD1B2" rx="11" ry="11" style="stroke:#181818;stroke-width:1;"/><path d="M2357.9688,297.1406 Q2357.3906,297.4375 2356.75,297.5781 Q2356.1094,297.7344 2355.4063,297.7344 Q2352.9063,297.7344 2351.5781,296.0938 Q2350.2656,294.4375 2350.2656,291.3125 Q2350.2656,288.1875 2351.5781,286.5313 Q2352.9063,284.875 2355.4063,284.875 Q2356.1094,284.875 2356.75,285.0313 Q2357.4063,285.1875 2357.9688,285.4844 L2357.9688,288.2031 Q2357.3438,287.625 2356.75,287.3594 Q2356.1563,287.0781 2355.5313,287.0781 Q2354.1875,287.0781 2353.5,288.1563 Q2352.8125,289.2188 2352.8125,291.3125 Q2352.8125,293.4063 2353.5,294.4844 Q2354.1875,295.5469 2355.5313,295.5469 Q2356.1563,295.5469 2356.75,295.2813 Q2357.3438,295 2357.9688,294.4219 L2357.9688,297.1406 Z " fill="#000000"/><text fill="#000000" font-family="sans-serif" font-size="14" lengthAdjust="spacing" textLength="221.4297" x="2369" y="296.3467">comp_arc_sta__baselibs__result</text><line style="stroke:#181818;stroke-width:0.5;" x1="2341" x2="2592.4297" y1="307.5" y2="307.5"/></g><!--class logic_arc_int__baselibs__promise--><g id="elem_logic_arc_int__baselibs__promise"><rect fill="#F1F1F1" height="40" id="logic_arc_int__baselibs__promise" rx="2.5" ry="2.5" style="stroke:#181818;stroke-width:0.5;" width="261.1885" x="4934" y="158.5"/><ellipse cx="4949" cy="174.5" fill="#ADD1B2" rx="11" ry="11" style="stroke:#181818;stroke-width:1;"/><path d="M4951.9688,180.1406 Q4951.3906,180.4375 4950.75,180.5781 Q4950.1094,180.7344 4949.4063,180.7344 Q4946.9063,180.7344 4945.5781,179.0938 Q4944.2656,177.4375 4944.2656,174.3125 Q4944.2656,171.1875 4945.5781,169.5313 Q4946.9063,167.875 4949.4063,167.875 Q4950.1094,167.875 4950.75,168.0313 Q4951.4063,168.1875 4951.9688,168.4844 L4951.9688,171.2031 Q4951.3438,170.625 4950.75,170.3594 Q4950.1563,170.0781 4949.5313,170.0781 Q4948.1875,170.0781 4947.5,171.1563 Q4946.8125,172.2188 4946.8125,174.3125 Q4946.8125,176.4063 4947.5,177.4844 Q4948.1875,178.5469 4949.5313,178.5469 Q4950.1563,178.5469 4950.75,178.2813 Q4951.3438,178 4951.9688,177.4219 L4951.9688,180.1406 Z " fill="#000000"/><text fill="#000000" font-family="sans-serif" font-size="14" lengthAdjust="spacing" textLength="229.1885" x="4963" y="179.3467">logic_arc_int__baselibs__promise</text><line style="stroke:#181818;stroke-width:0.5;" x1="4935" x2="5194.1885" y1="190.5" y2="190.5"/></g><!--class comp_arc_sta__baselibs__bit_manipulation--><g id="elem_comp_arc_sta__baselibs__bit_manipulation"><rect fill="#F1F1F1" height="40" id="comp_arc_sta__baselibs__bit_manipulation" rx="2.5" ry="2.5" style="stroke:#181818;stroke-width:0.5;" width="330.8057" x="821" y="275.5"/><ellipse cx="836" cy="291.5" fill="#ADD1B2" rx="11" ry="11" style="stroke:#181818;stroke-width:1;"/><path d="M838.9688,297.1406 Q838.3906,297.4375 837.75,297.5781 Q837.1094,297.7344 836.4063,297.7344 Q833.9063,297.7344 832.5781,296.0938 Q831.2656,294.4375 831.2656,291.3125 Q831.2656,288.1875 832.5781,286.5313 Q833.9063,284.875 836.4063,284.875 Q837.1094,284.875 837.75,285.0313 Q838.4063,285.1875 838.9688,285.4844 L838.9688,288.2031 Q838.3438,287.625 837.75,287.3594 Q837.1563,287.0781 836.5313,287.0781 Q835.1875,287.0781 834.5,288.1563 Q833.8125,289.2188 833.8125,291.3125 Q833.8125,293.4063 834.5,294.4844 Q835.1875,295.5469 836.5313,295.5469 Q837.1563,295.5469 837.75,295.2813 Q838.3438,295 838.9688,294.4219 L838.9688,297.1406 Z " fill="#000000"/><text fill="#000000" font-family="sans-serif" font-size="14" lengthAdjust="spacing" textLength="298.8057" x="850" y="296.3467">comp_arc_sta__baselibs__bit_manipulation</text><line style="stroke:#181818;stroke-width:0.5;" x1="822" x2="1150.8057" y1="307.5" y2="307.5"/></g><!--class logic_arc_int__baselibs__bit_manipulation--><g id="elem_logic_arc_int__baselibs__bit_manipulation"><rect fill="#F1F1F1" height="40" id="logic_arc_int__baselibs__bit_manipulation" rx="2.5" ry="2.5" style="stroke:#181818;stroke-width:0.5;" width="321.8369" x="638.5" y="158.5"/><ellipse cx="653.5" cy="174.5" fill="#ADD1B2" rx="11" ry="11" style="stroke:#181818;stroke-width:1;"/><path d="M656.4688,180.1406 Q655.8906,180.4375 655.25,180.5781 Q654.6094,180.7344 653.9063,180.7344 Q651.4063,180.7344 650.0781,179.0938 Q648.7656,177.4375 648.7656,174.3125 Q648.7656,171.1875 650.0781,169.5313 Q651.4063,167.875 653.9063,167.875 Q654.6094,167.875 655.25,168.0313 Q655.9063,168.1875 656.4688,168.4844 L656.4688,171.2031 Q655.8438,170.625 655.25,170.3594 Q654.6563,170.0781 654.0313,170.0781 Q652.6875,170.0781 652,171.1563 Q651.3125,172.2188 651.3125,174.3125 Q651.3125,176.4063 652,177.4844 Q652.6875,178.5469 654.0313,178.5469 Q654.6563,178.5469 655.25,178.2813 Q655.8438,178 656.4688,177.4219 L656.4688,180.1406 Z " fill="#000000"/><text fill="#000000" font-family="sans-serif" font-size="14" lengthAdjust="spacing" textLength="289.8369" x="667.5" y="179.3467">logic_arc_int__baselibs__bit_manipulation</text><line style="stroke:#181818;stroke-width:0.5;" x1="639.5" x2="959.3369" y1="190.5" y2="190.5"/></g><!--class comp_arc_sta__baselibs__containers--><g id="elem_comp_arc_sta__baselibs__containers"><rect fill="#F1F1F1" height="40" id="comp_arc_sta__baselibs__containers" rx="2.5" ry="2.5" style="stroke:#181818;stroke-width:0.5;" width="287.1445" x="1852" y="275.5"/><ellipse cx="1867" cy="291.5" fill="#ADD1B2" rx="11" ry="11" style="stroke:#181818;stroke-width:1;"/><path d="M1869.9688,297.1406 Q1869.3906,297.4375 1868.75,297.5781 Q1868.1094,297.7344 1867.4063,297.7344 Q1864.9063,297.7344 1863.5781,296.0938 Q1862.2656,294.4375 1862.2656,291.3125 Q1862.2656,288.1875 1863.5781,286.5313 Q1864.9063,284.875 1867.4063,284.875 Q1868.1094,284.875 1868.75,285.0313 Q1869.4063,285.1875 1869.9688,285.4844 L1869.9688,288.2031 Q1869.3438,287.625 1868.75,287.3594 Q1868.1563,287.0781 1867.5313,287.0781 Q1866.1875,287.0781 1865.5,288.1563 Q1864.8125,289.2188 1864.8125,291.3125 Q1864.8125,293.4063 1865.5,294.4844 Q1866.1875,295.5469 1867.5313,295.5469 Q1868.1563,295.5469 1868.75,295.2813 Q1869.3438,295 1869.9688,294.4219 L1869.9688,297.1406 Z " fill="#000000"/><text fill="#000000" font-family="sans-serif" font-size="14" lengthAdjust="spacing" textLength="255.1445" x="1881" y="296.3467">comp_arc_sta__baselibs__containers</text><line style="stroke:#181818;stroke-width:0.5;" x1="1853" x2="2138.1445" y1="307.5" y2="307.5"/></g><!--class logic_arc_int__baselibs__dynamic_array--><g id="elem_logic_arc_int__baselibs__dynamic_array"><rect fill="#F1F1F1" height="40" id="logic_arc_int__baselibs__dynamic_array" rx="2.5" ry="2.5" style="stroke:#181818;stroke-width:0.5;" width="308.3496" x="2006.5" y="158.5"/><ellipse cx="2021.5" cy="174.5" fill="#ADD1B2" rx="11" ry="11" style="stroke:#181818;stroke-width:1;"/><path d="M2024.4688,180.1406 Q2023.8906,180.4375 2023.25,180.5781 Q2022.6094,180.7344 2021.9063,180.7344 Q2019.4063,180.7344 2018.0781,179.0938 Q2016.7656,177.4375 2016.7656,174.3125 Q2016.7656,171.1875 2018.0781,169.5313 Q2019.4063,167.875 2021.9063,167.875 Q2022.6094,167.875 2023.25,168.0313 Q2023.9063,168.1875 2024.4688,168.4844 L2024.4688,171.2031 Q2023.8438,170.625 2023.25,170.3594 Q2022.6563,170.0781 2022.0313,170.0781 Q2020.6875,170.0781 2020,171.1563 Q2019.3125,172.2188 2019.3125,174.3125 Q2019.3125,176.4063 2020,177.4844 Q2020.6875,178.5469 2022.0313,178.5469 Q2022.6563,178.5469 2023.25,178.2813 Q2023.8438,178 2024.4688,177.4219 L2024.4688,180.1406 Z " fill="#000000"/><text fill="#000000" font-family="sans-serif" font-size="14" lengthAdjust="spacing" textLength="276.3496" x="2035.5" y="179.3467">logic_arc_int__baselibs__dynamic_array</text><line style="stroke:#181818;stroke-width:0.5;" x1="2007.5" x2="2313.8496" y1="190.5" y2="190.5"/></g><!--class logic_arc_int__baselibs__shared_future--><g id="elem_logic_arc_int__baselibs__shared_future"><rect fill="#F1F1F1" height="40" id="logic_arc_int__baselibs__shared_future" rx="2.5" ry="2.5" style="stroke:#181818;stroke-width:0.5;" width="302.0811" x="3360.5" y="158.5"/><ellipse cx="3375.5" cy="174.5" fill="#ADD1B2" rx="11" ry="11" style="stroke:#181818;stroke-width:1;"/><path d="M3378.4688,180.1406 Q3377.8906,180.4375 3377.25,180.5781 Q3376.6094,180.7344 3375.9063,180.7344 Q3373.4063,180.7344 3372.0781,179.0938 Q3370.7656,177.4375 3370.7656,174.3125 Q3370.7656,171.1875 3372.0781,169.5313 Q3373.4063,167.875 3375.9063,167.875 Q3376.6094,167.875 3377.25,168.0313 Q3377.9063,168.1875 3378.4688,168.4844 L3378.4688,171.2031 Q3377.8438,170.625 3377.25,170.3594 Q3376.6563,170.0781 3376.0313,170.0781 Q3374.6875,170.0781 3374,171.1563 Q3373.3125,172.2188 3373.3125,174.3125 Q3373.3125,176.4063 3374,177.4844 Q3374.6875,178.5469 3376.0313,178.5469 Q3376.6563,178.5469 3377.25,178.2813 Q3377.8438,178 3378.4688,177.4219 L3378.4688,180.1406 Z " fill="#000000"/><text fill="#000000" font-family="sans-serif" font-size="14" lengthAdjust="spacing" textLength="270.0811" x="3389.5" y="179.3467">logic_arc_int__baselibs__shared_future</text><line style="stroke:#181818;stroke-width:0.5;" x1="3361.5" x2="3661.5811" y1="190.5" y2="190.5"/></g><!--class comp_arc_sta__baselibs__filesystem--><g id="elem_comp_arc_sta__baselibs__filesystem"><rect fill="#F1F1F1" height="40" id="comp_arc_sta__baselibs__filesystem" rx="2.5" ry="2.5" style="stroke:#181818;stroke-width:0.5;" width="285.4492" x="1362" y="275.5"/><ellipse cx="1377" cy="291.5" fill="#ADD1B2" rx="11" ry="11" style="stroke:#181818;stroke-width:1;"/><path d="M1379.9688,297.1406 Q1379.3906,297.4375 1378.75,297.5781 Q1378.1094,297.7344 1377.4063,297.7344 Q1374.9063,297.7344 1373.5781,296.0938 Q1372.2656,294.4375 1372.2656,291.3125 Q1372.2656,288.1875 1373.5781,286.5313 Q1374.9063,284.875 1377.4063,284.875 Q1378.1094,284.875 1378.75,285.0313 Q1379.4063,285.1875 1379.9688,285.4844 L1379.9688,288.2031 Q1379.3438,287.625 1378.75,287.3594 Q1378.1563,287.0781 1377.5313,287.0781 Q1376.1875,287.0781 1375.5,288.1563 Q1374.8125,289.2188 1374.8125,291.3125 Q1374.8125,293.4063 1375.5,294.4844 Q1376.1875,295.5469 1377.5313,295.5469 Q1378.1563,295.5469 1378.75,295.2813 Q1379.3438,295 1379.9688,294.4219 L1379.9688,297.1406 Z " fill="#000000"/><text fill="#000000" font-family="sans-serif" font-size="14" lengthAdjust="spacing" textLength="253.4492" x="1391" y="296.3467">comp_arc_sta__baselibs__filesystem</text><line style="stroke:#181818;stroke-width:0.5;" x1="1363" x2="1646.4492" y1="307.5" y2="307.5"/></g><!--class logic_arc_int__baselibs__json--><g id="elem_logic_arc_int__baselibs__json"><rect fill="#F1F1F1" height="40" id="logic_arc_int__baselibs__json" rx="2.5" ry="2.5" style="stroke:#181818;stroke-width:0.5;" width="233.168" x="370" y="158.5"/><ellipse cx="385" cy="174.5" fill="#ADD1B2" rx="11" ry="11" style="stroke:#181818;stroke-width:1;"/><path d="M387.9688,180.1406 Q387.3906,180.4375 386.75,180.5781 Q386.1094,180.7344 385.4063,180.7344 Q382.9063,180.7344 381.5781,179.0938 Q380.2656,177.4375 380.2656,174.3125 Q380.2656,171.1875 381.5781,169.5313 Q382.9063,167.875 385.4063,167.875 Q386.1094,167.875 386.75,168.0313 Q387.4063,168.1875 387.9688,168.4844 L387.9688,171.2031 Q387.3438,170.625 386.75,170.3594 Q386.1563,170.0781 385.5313,170.0781 Q384.1875,170.0781 383.5,171.1563 Q382.8125,172.2188 382.8125,174.3125 Q382.8125,176.4063 383.5,177.4844 Q384.1875,178.5469 385.5313,178.5469 Q386.1563,178.5469 386.75,178.2813 Q387.3438,178 387.9688,177.4219 L387.9688,180.1406 Z " fill="#000000"/><text fill="#000000" font-family="sans-serif" font-size="14" lengthAdjust="spacing" textLength="201.168" x="399" y="179.3467">logic_arc_int__baselibs__json</text><line style="stroke:#181818;stroke-width:0.5;" x1="371" x2="602.168" y1="190.5" y2="190.5"/></g><!--class logic_arc_int__baselibs__bit_mask_operator--><g id="elem_logic_arc_int__baselibs__bit_mask_operator"><rect fill="#F1F1F1" height="40" id="logic_arc_int__baselibs__bit_mask_operator" rx="2.5" ry="2.5" style="stroke:#181818;stroke-width:0.5;" width="334.6406" x="996" y="158.5"/><ellipse cx="1011" cy="174.5" fill="#ADD1B2" rx="11" ry="11" style="stroke:#181818;stroke-width:1;"/><path d="M1013.9688,180.1406 Q1013.3906,180.4375 1012.75,180.5781 Q1012.1094,180.7344 1011.4063,180.7344 Q1008.9063,180.7344 1007.5781,179.0938 Q1006.2656,177.4375 1006.2656,174.3125 Q1006.2656,171.1875 1007.5781,169.5313 Q1008.9063,167.875 1011.4063,167.875 Q1012.1094,167.875 1012.75,168.0313 Q1013.4063,168.1875 1013.9688,168.4844 L1013.9688,171.2031 Q1013.3438,170.625 1012.75,170.3594 Q1012.1563,170.0781 1011.5313,170.0781 Q1010.1875,170.0781 1009.5,171.1563 Q1008.8125,172.2188 1008.8125,174.3125 Q1008.8125,176.4063 1009.5,177.4844 Q1010.1875,178.5469 1011.5313,178.5469 Q1012.1563,178.5469 1012.75,178.2813 Q1013.3438,178 1013.9688,177.4219 L1013.9688,180.1406 Z " fill="#000000"/><text fill="#000000" font-family="sans-serif" font-size="14" lengthAdjust="spacing" textLength="302.6406" x="1025" y="179.3467">logic_arc_int__baselibs__bit_mask_operator</text><line style="stroke:#181818;stroke-width:0.5;" x1="997" x2="1329.6406" y1="190.5" y2="190.5"/></g><!--class logic_arc_int__baselibs__memory_shared--><g id="elem_logic_arc_int__baselibs__memory_shared"><rect fill="#F1F1F1" height="40" id="logic_arc_int__baselibs__memory_shared" rx="2.5" ry="2.5" style="stroke:#181818;stroke-width:0.5;" width="318.043" x="15.5" y="158.5"/><ellipse cx="30.5" cy="174.5" fill="#ADD1B2" rx="11" ry="11" style="stroke:#181818;stroke-width:1;"/><path d="M33.4688,180.1406 Q32.8906,180.4375 32.25,180.5781 Q31.6094,180.7344 30.9063,180.7344 Q28.4063,180.7344 27.0781,179.0938 Q25.7656,177.4375 25.7656,174.3125 Q25.7656,171.1875 27.0781,169.5313 Q28.4063,167.875 30.9063,167.875 Q31.6094,167.875 32.25,168.0313 Q32.9063,168.1875 33.4688,168.4844 L33.4688,171.2031 Q32.8438,170.625 32.25,170.3594 Q31.6563,170.0781 31.0313,170.0781 Q29.6875,170.0781 29,171.1563 Q28.3125,172.2188 28.3125,174.3125 Q28.3125,176.4063 29,177.4844 Q29.6875,178.5469 31.0313,178.5469 Q31.6563,178.5469 32.25,178.2813 Q32.8438,178 33.4688,177.4219 L33.4688,180.1406 Z " fill="#000000"/><text fill="#000000" font-family="sans-serif" font-size="14" lengthAdjust="spacing" textLength="286.043" x="44.5" y="179.3467">logic_arc_int__baselibs__memory_shared</text><line style="stroke:#181818;stroke-width:0.5;" x1="16.5" x2="332.543" y1="190.5" y2="190.5"/></g><!--class comp_arc_sta__baselibs__json--><g id="elem_comp_arc_sta__baselibs__json"><rect fill="#F1F1F1" height="40" id="comp_arc_sta__baselibs__json" rx="2.5" ry="2.5" style="stroke:#181818;stroke-width:0.5;" width="242.1367" x="368.5" y="275.5"/><ellipse cx="383.5" cy="291.5" fill="#ADD1B2" rx="11" ry="11" style="stroke:#181818;stroke-width:1;"/><path d="M386.4688,297.1406 Q385.8906,297.4375 385.25,297.5781 Q384.6094,297.7344 383.9063,297.7344 Q381.4063,297.7344 380.0781,296.0938 Q378.7656,294.4375 378.7656,291.3125 Q378.7656,288.1875 380.0781,286.5313 Q381.4063,284.875 383.9063,284.875 Q384.6094,284.875 385.25,285.0313 Q385.9063,285.1875 386.4688,285.4844 L386.4688,288.2031 Q385.8438,287.625 385.25,287.3594 Q384.6563,287.0781 384.0313,287.0781 Q382.6875,287.0781 382,288.1563 Q381.3125,289.2188 381.3125,291.3125 Q381.3125,293.4063 382,294.4844 Q382.6875,295.5469 384.0313,295.5469 Q384.6563,295.5469 385.25,295.2813 Q385.8438,295 386.4688,294.4219 L386.4688,297.1406 Z " fill="#000000"/><text fill="#000000" font-family="sans-serif" font-size="14" lengthAdjust="spacing" textLength="210.1367" x="397.5" y="296.3467">comp_arc_sta__baselibs__json</text><line style="stroke:#181818;stroke-width:0.5;" x1="369.5" x2="609.6367" y1="307.5" y2="307.5"/></g><!--class comp_arc_sta__baselibs__memory_shared--><g id="elem_comp_arc_sta__baselibs__memory_shared"><rect fill="#F1F1F1" height="40" id="comp_arc_sta__baselibs__memory_shared" rx="2.5" ry="2.5" style="stroke:#181818;stroke-width:0.5;" width="327.0117" x="7" y="275.5"/><ellipse cx="22" cy="291.5" fill="#ADD1B2" rx="11" ry="11" style="stroke:#181818;stroke-width:1;"/><path d="M24.9688,297.1406 Q24.3906,297.4375 23.75,297.5781 Q23.1094,297.7344 22.4063,297.7344 Q19.9063,297.7344 18.5781,296.0938 Q17.2656,294.4375 17.2656,291.3125 Q17.2656,288.1875 18.5781,286.5313 Q19.9063,284.875 22.4063,284.875 Q23.1094,284.875 23.75,285.0313 Q24.4063,285.1875 24.9688,285.4844 L24.9688,288.2031 Q24.3438,287.625 23.75,287.3594 Q23.1563,287.0781 22.5313,287.0781 Q21.1875,287.0781 20.5,288.1563 Q19.8125,289.2188 19.8125,291.3125 Q19.8125,293.4063 20.5,294.4844 Q21.1875,295.5469 22.5313,295.5469 Q23.1563,295.5469 23.75,295.2813 Q24.3438,295 24.9688,294.4219 L24.9688,297.1406 Z " fill="#000000"/><text fill="#000000" font-family="sans-serif" font-size="14" lengthAdjust="spacing" textLength="295.0117" x="36" y="296.3467">comp_arc_sta__baselibs__memory_shared</text><line style="stroke:#181818;stroke-width:0.5;" x1="8" x2="333.0117" y1="307.5" y2="307.5"/></g><!--link Feature_User to logic_arc_int__baselibs__condition_variable--><g id="link_Feature_User_logic_arc_int__baselibs__condition_variable"><path codeLine="14" d="M3158.5,81.55 C3158.5,106.45 3158.5,132.26 3158.5,152.26 " fill="transparent" id="Feature_User-to-logic_arc_int__baselibs__condition_variable" style="stroke:#181818;stroke-width:1;"/><polygon fill="#181818" points="3158.5,158.26,3162.5,149.26,3158.5,153.26,3154.5,149.26,3158.5,158.26" style="stroke:#181818;stroke-width:1;"/><text fill="#000000" font-family="sans-serif" font-size="13" lengthAdjust="spacing" textLength="23.0103" x="3159.5" y="124.5669">use</text></g><!--link Feature_User to logic_arc_int__baselibs__message_passing--><g id="link_Feature_User_logic_arc_int__baselibs__message_passing"><path codeLine="16" d="M3113.25,60.94 C3045.26,85.65 2922.6892,130.1909 2850.6692,156.3609 " fill="transparent" id="Feature_User-to-logic_arc_int__baselibs__message_passing" style="stroke:#181818;stroke-width:1;"/><polygon fill="#181818" points="2845.03,158.41,2854.855,159.0958,2849.7294,156.7024,2852.1228,151.5768,2845.03,158.41" style="stroke:#181818;stroke-width:1;"/><text fill="#000000" font-family="sans-serif" font-size="13" lengthAdjust="spacing" textLength="23.0103" x="2966.5" y="124.5669">use</text></g><!--reverse link logic_arc_int__baselibs__utils_scoped_op to comp_arc_sta__baselibs__utils--><g id="link_logic_arc_int__baselibs__utils_scoped_op_comp_arc_sta__baselibs__utils"><path codeLine="17" d="M5736.7506,202.1252 C5768.0406,223.4152 5813.19,254.14 5844.4,275.38 " fill="transparent" id="logic_arc_int__baselibs__utils_scoped_op-backto-comp_arc_sta__baselibs__utils" style="stroke:#181818;stroke-width:1;"/><polygon fill="#181818" points="5731.79,198.75,5736.9808,207.1199,5735.9238,201.5627,5741.4811,200.5058,5731.79,198.75" style="stroke:#181818;stroke-width:1;"/><text fill="#000000" font-family="sans-serif" font-size="13" lengthAdjust="spacing" textLength="76.9082" x="5799.5" y="241.5669">implements</text></g><!--link Feature_User to logic_arc_int__baselibs__synchronized_queue--><g id="link_Feature_User_logic_arc_int__baselibs__synchronized_queue"><path codeLine="18" d="M3203.64,52.92 C3316.29,73.93 3606.1218,127.9997 3763.5618,157.3697 " fill="transparent" id="Feature_User-to-logic_arc_int__baselibs__synchronized_queue" style="stroke:#181818;stroke-width:1;"/><polygon fill="#181818" points="3769.46,158.47,3761.3462,152.8874,3764.5448,157.5531,3759.8791,160.7517,3769.46,158.47" style="stroke:#181818;stroke-width:1;"/><text fill="#000000" font-family="sans-serif" font-size="13" lengthAdjust="spacing" textLength="23.0103" x="3601.5" y="124.5669">use</text></g><!--reverse link logic_arc_int__baselibs__executor to comp_arc_sta__baselibs__concurrency--><g id="link_logic_arc_int__baselibs__executor_comp_arc_sta__baselibs__concurrency"><path codeLine="19" d="M4686.0425,200.1276 C4603.9925,221.4276 4477.93,254.15 4395.96,275.43 " fill="transparent" id="logic_arc_int__baselibs__executor-backto-comp_arc_sta__baselibs__concurrency" style="stroke:#181818;stroke-width:1;"/><polygon fill="#181818" points="4691.85,198.62,4682.1337,197.0098,4687.0104,199.8763,4684.1438,204.7531,4691.85,198.62" style="stroke:#181818;stroke-width:1;"/><text fill="#000000" font-family="sans-serif" font-size="13" lengthAdjust="spacing" textLength="76.9082" x="4572.5" y="241.5669">implements</text></g><!--link Feature_User to logic_arc_int__baselibs__utils_scoped_op--><g id="link_Feature_User_logic_arc_int__baselibs__utils_scoped_op"><path codeLine="20" d="M3203.77,45.62 C3403.94,50.69 4229.6,72.97 4906.5,111.5 C5183.28,127.26 5252.43,133.09 5528.5,158.5 C5534.13,159.02 5533.8879,158.9824 5539.6779,159.5424 " fill="transparent" id="Feature_User-to-logic_arc_int__baselibs__utils_scoped_op" style="stroke:#181818;stroke-width:1;"/><polygon fill="#181818" points="5545.65,160.12,5537.0769,155.2722,5540.6732,159.6387,5536.3067,163.235,5545.65,160.12" style="stroke:#181818;stroke-width:1;"/><text fill="#000000" font-family="sans-serif" font-size="13" lengthAdjust="spacing" textLength="23.0103" x="5177.5" y="124.5669">use</text></g><!--reverse link logic_arc_int__baselibs__task to comp_arc_sta__baselibs__concurrency--><g id="link_logic_arc_int__baselibs__task_comp_arc_sta__baselibs__concurrency"><path codeLine="21" d="M4449.1989,202.2809 C4419.9489,223.5709 4377.95,254.14 4348.77,275.38 " fill="transparent" id="logic_arc_int__baselibs__task-backto-comp_arc_sta__baselibs__concurrency" style="stroke:#181818;stroke-width:1;"/><polygon fill="#181818" points="4454.05,198.75,4444.4195,200.8123,4450.0075,201.6924,4449.1274,207.2804,4454.05,198.75" style="stroke:#181818;stroke-width:1;"/><text fill="#000000" font-family="sans-serif" font-size="13" lengthAdjust="spacing" textLength="76.9082" x="4412.5" y="241.5669">implements</text></g><!--link Feature_User to logic_arc_int__baselibs__intrusive_list--><g id="link_Feature_User_logic_arc_int__baselibs__intrusive_list"><path codeLine="22" d="M3113.3,48.61 C2957.19,62.85 2426.34,111.81 1988.5,158.5 C1982.8,159.11 1982.9547,159.0897 1977.0847,159.7297 " fill="transparent" id="Feature_User-to-logic_arc_int__baselibs__intrusive_list" style="stroke:#181818;stroke-width:1;"/><polygon fill="#181818" points="1971.12,160.38,1980.5005,163.381,1976.0905,159.8381,1979.6334,155.4281,1971.12,160.38" style="stroke:#181818;stroke-width:1;"/><text fill="#000000" font-family="sans-serif" font-size="13" lengthAdjust="spacing" textLength="23.0103" x="2440.5" y="124.5669">use</text></g><!--reverse link logic_arc_int__baselibs__future to comp_arc_sta__baselibs__concurrency--><g id="link_logic_arc_int__baselibs__future_comp_arc_sta__baselibs__concurrency"><path codeLine="23" d="M4228.5465,202.938 C4250.3265,224.168 4280.88,253.94 4302.69,275.19 " fill="transparent" id="logic_arc_int__baselibs__future-backto-comp_arc_sta__baselibs__concurrency" style="stroke:#181818;stroke-width:1;"/><polygon fill="#181818" points="4224.25,198.75,4227.9028,207.8964,4227.8305,202.24,4233.4868,202.1677,4224.25,198.75" style="stroke:#181818;stroke-width:1;"/><text fill="#000000" font-family="sans-serif" font-size="13" lengthAdjust="spacing" textLength="76.9082" x="4272.5" y="241.5669">implements</text></g><!--reverse link logic_arc_int__baselibs__synchronized_queue to comp_arc_sta__baselibs__concurrency--><g id="link_logic_arc_int__baselibs__synchronized_queue_comp_arc_sta__baselibs__concurrency"><path codeLine="24" d="M3952.0439,200.0327 C4035.5239,221.3227 4164.08,254.11 4247.63,275.41 " fill="transparent" id="logic_arc_int__baselibs__synchronized_queue-backto-comp_arc_sta__baselibs__concurrency" style="stroke:#181818;stroke-width:1;"/><polygon fill="#181818" points="3946.23,198.55,3953.9624,204.65,3951.0749,199.7856,3955.9393,196.8982,3946.23,198.55" style="stroke:#181818;stroke-width:1;"/><text fill="#000000" font-family="sans-serif" font-size="13" lengthAdjust="spacing" textLength="76.9082" x="4125.5" y="241.5669">implements</text></g><!--link Feature_User to logic_arc_int__baselibs__executor--><g id="link_Feature_User_logic_arc_int__baselibs__executor"><path codeLine="25" d="M3203.57,47.08 C3382.45,57.51 4059.56,98.91 4614.5,158.5 C4620.28,159.12 4620.2187,159.0898 4626.1787,159.7698 " fill="transparent" id="Feature_User-to-logic_arc_int__baselibs__executor" style="stroke:#181818;stroke-width:1;"/><polygon fill="#181818" points="4632.14,160.45,4623.6514,155.4556,4627.1722,159.8832,4622.7446,163.404,4632.14,160.45" style="stroke:#181818;stroke-width:1;"/><text fill="#000000" font-family="sans-serif" font-size="13" lengthAdjust="spacing" textLength="23.0103" x="4297.5" y="124.5669">use</text></g><!--link Feature_User to logic_arc_int__baselibs__utils_base64--><g id="link_Feature_User_logic_arc_int__baselibs__utils_base64"><path codeLine="26" d="M3203.63,45.35 C3423.66,49.61 4405.85,70.16 5209.5,111.5 C5507.17,126.81 5581.71,130.9 5878.5,158.5 C5884.35,159.04 5884.3506,159.0151 5890.3706,159.6251 " fill="transparent" id="Feature_User-to-logic_arc_int__baselibs__utils_base64" style="stroke:#181818;stroke-width:1;"/><polygon fill="#181818" points="5896.34,160.23,5887.7891,155.3431,5891.3655,159.7259,5886.9826,163.3023,5896.34,160.23" style="stroke:#181818;stroke-width:1;"/><text fill="#000000" font-family="sans-serif" font-size="13" lengthAdjust="spacing" textLength="23.0103" x="5512.5" y="124.5669">use</text></g><!--link Feature_User to logic_arc_int__baselibs__task_result--><g id="link_Feature_User_logic_arc_int__baselibs__task_result"><path codeLine="27" d="M3203.79,46.05 C3382.78,52.3 4058.26,76.94 4613.5,111.5 C4880.02,128.09 4946.77,132.11 5212.5,158.5 C5218.14,159.06 5217.9139,159.0133 5223.7239,159.6333 " fill="transparent" id="Feature_User-to-logic_arc_int__baselibs__task_result" style="stroke:#181818;stroke-width:1;"/><polygon fill="#181818" points="5229.69,160.27,5221.1653,155.3376,5224.7182,159.7394,5220.3164,163.2924,5229.69,160.27" style="stroke:#181818;stroke-width:1;"/><text fill="#000000" font-family="sans-serif" font-size="13" lengthAdjust="spacing" textLength="23.0103" x="4874.5" y="124.5669">use</text></g><!--link Feature_User to logic_arc_int__baselibs__filesystem--><g id="link_Feature_User_logic_arc_int__baselibs__filesystem"><path codeLine="28" d="M3113.4,47.18 C2931.37,58.17 2233.14,101.85 1660.5,158.5 C1654.66,159.08 1654.6764,159.0557 1648.6564,159.6957 " fill="transparent" id="Feature_User-to-logic_arc_int__baselibs__filesystem" style="stroke:#181818;stroke-width:1;"/><polygon fill="#181818" points="1642.69,160.33,1652.0624,163.3561,1647.662,159.8014,1651.2167,155.401,1642.69,160.33" style="stroke:#181818;stroke-width:1;"/><text fill="#000000" font-family="sans-serif" font-size="13" lengthAdjust="spacing" textLength="23.0103" x="2155.5" y="124.5669">use</text></g><!--link Feature_User to logic_arc_int__baselibs__future--><g id="link_Feature_User_logic_arc_int__baselibs__future"><path codeLine="29" d="M3203.67,50.07 C3335.8,66.4 3733.08,115.69 4062.5,158.5 C4068.54,159.29 4068.7822,159.3001 4075.0322,160.1301 " fill="transparent" id="Feature_User-to-logic_arc_int__baselibs__future" style="stroke:#181818;stroke-width:1;"/><polygon fill="#181818" points="4080.98,160.92,4072.5849,155.77,4076.0235,160.2618,4071.5317,163.7004,4080.98,160.92" style="stroke:#181818;stroke-width:1;"/><text fill="#000000" font-family="sans-serif" font-size="13" lengthAdjust="spacing" textLength="23.0103" x="3815.5" y="124.5669">use</text></g><!--reverse link logic_arc_int__baselibs__utils_base64 to comp_arc_sta__baselibs__utils--><g id="link_logic_arc_int__baselibs__utils_base64_comp_arc_sta__baselibs__utils"><path codeLine="30" d="M6009.0799,202.1113 C5977.5999,223.4013 5932.16,254.14 5900.76,275.38 " fill="transparent" id="logic_arc_int__baselibs__utils_base64-backto-comp_arc_sta__baselibs__utils" style="stroke:#181818;stroke-width:1;"/><polygon fill="#181818" points="6014.05,198.75,6004.354,200.4785,6009.9083,201.5511,6008.8357,207.1053,6014.05,198.75" style="stroke:#181818;stroke-width:1;"/><text fill="#000000" font-family="sans-serif" font-size="13" lengthAdjust="spacing" textLength="76.9082" x="5969.5" y="241.5669">implements</text></g><!--reverse link logic_arc_int__baselibs__condition_variable to comp_arc_sta__baselibs__concurrency--><g id="link_logic_arc_int__baselibs__condition_variable_comp_arc_sta__baselibs__concurrency"><path codeLine="31" d="M3331.255,198.4676 C3456.895,212.1076 3627.47,230.27 3782.5,245.5 C3914.13,258.43 4063.93,271.93 4172.3,281.47 " fill="transparent" id="logic_arc_int__baselibs__condition_variable-backto-comp_arc_sta__baselibs__concurrency" style="stroke:#181818;stroke-width:1;"/><polygon fill="#181818" points="3325.29,197.82,3333.8057,202.768,3330.2608,198.3596,3334.6691,194.8147,3325.29,197.82" style="stroke:#181818;stroke-width:1;"/><text fill="#000000" font-family="sans-serif" font-size="13" lengthAdjust="spacing" textLength="76.9082" x="3783.5" y="241.5669">implements</text></g><!--reverse link logic_arc_int__baselibs__message_passing to comp_arc_sta__baselibs__message_passing--><g id="link_logic_arc_int__baselibs__message_passing_comp_arc_sta__baselibs__message_passing"><path codeLine="32" d="M2793.379,204.7464 C2794.119,225.9764 2795.09,253.94 2795.83,275.19 " fill="transparent" id="logic_arc_int__baselibs__message_passing-backto-comp_arc_sta__baselibs__message_passing" style="stroke:#181818;stroke-width:1;"/><polygon fill="#181818" points="2793.17,198.75,2789.4859,207.8839,2793.3442,203.747,2797.4811,207.6052,2793.17,198.75" style="stroke:#181818;stroke-width:1;"/><text fill="#000000" font-family="sans-serif" font-size="13" lengthAdjust="spacing" textLength="76.9082" x="2796.5" y="241.5669">implements</text></g><!--link Feature_User to logic_arc_int__baselibs__result--><g id="link_Feature_User_logic_arc_int__baselibs__result"><path codeLine="33" d="M3113.42,53.23 C3003.72,74.46 2726.6706,128.0994 2575.7106,157.3294 " fill="transparent" id="Feature_User-to-logic_arc_int__baselibs__result" style="stroke:#181818;stroke-width:1;"/><polygon fill="#181818" points="2569.82,158.47,2579.4163,160.6862,2574.7288,157.5195,2577.8955,152.8321,2569.82,158.47" style="stroke:#181818;stroke-width:1;"/><text fill="#000000" font-family="sans-serif" font-size="13" lengthAdjust="spacing" textLength="23.0103" x="2795.5" y="124.5669">use</text></g><!--link Feature_User to logic_arc_int__baselibs__task--><g id="link_Feature_User_logic_arc_int__baselibs__task"><path codeLine="34" d="M3203.58,48.11 C3361.06,60.87 3901.17,105.92 4345.5,158.5 C4351.38,159.2 4351.4377,159.1849 4357.5077,159.9549 " fill="transparent" id="Feature_User-to-logic_arc_int__baselibs__task" style="stroke:#181818;stroke-width:1;"/><polygon fill="#181818" points="4363.46,160.71,4355.0349,155.6092,4358.4998,160.0808,4354.0282,163.5456,4363.46,160.71" style="stroke:#181818;stroke-width:1;"/><text fill="#000000" font-family="sans-serif" font-size="13" lengthAdjust="spacing" textLength="23.0103" x="4054.5" y="124.5669">use</text></g><!--reverse link logic_arc_int__baselibs__result to comp_arc_sta__baselibs__result--><g id="link_logic_arc_int__baselibs__result_comp_arc_sta__baselibs__result"><path codeLine="35" d="M2470.4002,204.7444 C2469.4802,225.9744 2468.26,253.94 2467.34,275.19 " fill="transparent" id="logic_arc_int__baselibs__result-backto-comp_arc_sta__baselibs__result" style="stroke:#181818;stroke-width:1;"/><polygon fill="#181818" points="2470.66,198.75,2466.2741,207.5684,2470.4435,203.7453,2474.2666,207.9147,2470.66,198.75" style="stroke:#181818;stroke-width:1;"/><text fill="#000000" font-family="sans-serif" font-size="13" lengthAdjust="spacing" textLength="76.9082" x="2470.5" y="241.5669">implements</text></g><!--link Feature_User to logic_arc_int__baselibs__promise--><g id="link_Feature_User_logic_arc_int__baselibs__promise"><path codeLine="36" d="M3203.74,46.15 C3404.69,53.74 4236.35,88 4915.5,158.5 C4921.47,159.12 4921.5973,159.1121 4927.7573,159.8021 " fill="transparent" id="Feature_User-to-logic_arc_int__baselibs__promise" style="stroke:#181818;stroke-width:1;"/><polygon fill="#181818" points="4933.72,160.47,4925.2212,155.493,4928.7511,159.9134,4924.3307,163.4433,4933.72,160.47" style="stroke:#181818;stroke-width:1;"/><text fill="#000000" font-family="sans-serif" font-size="13" lengthAdjust="spacing" textLength="23.0103" x="4581.5" y="124.5669">use</text></g><!--reverse link logic_arc_int__baselibs__bit_manipulation to comp_arc_sta__baselibs__bit_manipulation--><g id="link_logic_arc_int__baselibs__bit_manipulation_comp_arc_sta__baselibs__bit_manipulation"><path codeLine="37" d="M835.9109,201.893 C870.5309,223.183 920.87,254.14 955.41,275.38 " fill="transparent" id="logic_arc_int__baselibs__bit_manipulation-backto-comp_arc_sta__baselibs__bit_manipulation" style="stroke:#181818;stroke-width:1;"/><polygon fill="#181818" points="830.8,198.75,836.371,206.8718,835.0591,201.3692,840.5617,200.0573,830.8,198.75" style="stroke:#181818;stroke-width:1;"/><text fill="#000000" font-family="sans-serif" font-size="13" lengthAdjust="spacing" textLength="76.9082" x="905.5" y="241.5669">implements</text></g><!--reverse link logic_arc_int__baselibs__dynamic_array to comp_arc_sta__baselibs__containers--><g id="link_logic_arc_int__baselibs__dynamic_array_comp_arc_sta__baselibs__containers"><path codeLine="38" d="M2127.9574,202.1805 C2097.4074,223.4705 2053.41,254.14 2022.93,275.38 " fill="transparent" id="logic_arc_int__baselibs__dynamic_array-backto-comp_arc_sta__baselibs__containers" style="stroke:#181818;stroke-width:1;"/><polygon fill="#181818" points="2132.88,198.75,2123.2091,200.614,2128.7779,201.6087,2127.7831,207.1775,2132.88,198.75" style="stroke:#181818;stroke-width:1;"/><text fill="#000000" font-family="sans-serif" font-size="13" lengthAdjust="spacing" textLength="76.9082" x="2089.5" y="241.5669">implements</text></g><!--link Feature_User to logic_arc_int__baselibs__shared_future--><g id="link_Feature_User_logic_arc_int__baselibs__shared_future"><path codeLine="39" d="M3203.57,61.48 C3269.55,86.34 3386.4554,130.3842 3455.3954,156.3642 " fill="transparent" id="Feature_User-to-logic_arc_int__baselibs__shared_future" style="stroke:#181818;stroke-width:1;"/><polygon fill="#181818" points="3461.01,158.48,3453.9987,151.5632,3456.3312,156.7168,3451.1776,159.0493,3461.01,158.48" style="stroke:#181818;stroke-width:1;"/><text fill="#000000" font-family="sans-serif" font-size="13" lengthAdjust="spacing" textLength="23.0103" x="3378.5" y="124.5669">use</text></g><!--reverse link logic_arc_int__baselibs__filesystem to comp_arc_sta__baselibs__filesystem--><g id="link_logic_arc_int__baselibs__filesystem_comp_arc_sta__baselibs__filesystem"><path codeLine="40" d="M1504.5,204.75 C1504.5,225.98 1504.5,253.94 1504.5,275.19 " fill="transparent" id="logic_arc_int__baselibs__filesystem-backto-comp_arc_sta__baselibs__filesystem" style="stroke:#181818;stroke-width:1;"/><polygon fill="#181818" points="1504.5,198.75,1500.5,207.75,1504.5,203.75,1508.5,207.75,1504.5,198.75" style="stroke:#181818;stroke-width:1;"/><text fill="#000000" font-family="sans-serif" font-size="13" lengthAdjust="spacing" textLength="76.9082" x="1505.5" y="241.5669">implements</text></g><!--link Feature_User to logic_arc_int__baselibs__json--><g id="link_Feature_User_logic_arc_int__baselibs__json"><path codeLine="41" d="M3113.37,45.75 C2910.17,51.48 2059.77,76.42 1362.5,111.5 C1032.48,128.11 949.22,124.84 620.5,158.5 C614.77,159.09 614.8785,159.0254 608.9585,159.7254 " fill="transparent" id="Feature_User-to-logic_arc_int__baselibs__json" style="stroke:#181818;stroke-width:1;"/><polygon fill="#181818" points="603,160.43,612.4074,163.3455,607.9654,159.8429,611.468,155.4008,603,160.43" style="stroke:#181818;stroke-width:1;"/><text fill="#000000" font-family="sans-serif" font-size="13" lengthAdjust="spacing" textLength="23.0103" x="1363.5" y="124.5669">use</text></g><!--reverse link logic_arc_int__baselibs__intrusive_list to comp_arc_sta__baselibs__containers--><g id="link_logic_arc_int__baselibs__intrusive_list_comp_arc_sta__baselibs__containers"><path codeLine="42" d="M1858.099,202.0981 C1889.759,223.3881 1935.49,254.14 1967.07,275.38 " fill="transparent" id="logic_arc_int__baselibs__intrusive_list-backto-comp_arc_sta__baselibs__containers" style="stroke:#181818;stroke-width:1;"/><polygon fill="#181818" points="1853.12,198.75,1858.3563,207.0915,1857.2691,201.5401,1862.8205,200.4529,1853.12,198.75" style="stroke:#181818;stroke-width:1;"/><text fill="#000000" font-family="sans-serif" font-size="13" lengthAdjust="spacing" textLength="76.9082" x="1921.5" y="241.5669">implements</text></g><!--link Feature_User to logic_arc_int__baselibs__bit_mask_operator--><g id="link_Feature_User_logic_arc_int__baselibs__bit_mask_operator"><path codeLine="43" d="M3113.31,46.45 C2908.93,55.45 2050.55,95.28 1348.5,158.5 C1342.87,159.01 1343.124,158.9719 1337.344,159.5119 " fill="transparent" id="Feature_User-to-logic_arc_int__baselibs__bit_mask_operator" style="stroke:#181818;stroke-width:1;"/><polygon fill="#181818" points="1331.37,160.07,1340.7031,163.2155,1336.3483,159.6049,1339.9589,155.2502,1331.37,160.07" style="stroke:#181818;stroke-width:1;"/><text fill="#000000" font-family="sans-serif" font-size="13" lengthAdjust="spacing" textLength="23.0103" x="1946.5" y="124.5669">use</text></g><!--reverse link logic_arc_int__baselibs__task_result to comp_arc_sta__baselibs__concurrency--><g id="link_logic_arc_int__baselibs__task_result_comp_arc_sta__baselibs__concurrency"><path codeLine="44" d="M5224.0411,199.1211 C5118.1711,213.0211 4975.33,231.16 4844.5,245.5 C4719.3,259.23 4576.93,272.43 4472.54,281.67 " fill="transparent" id="logic_arc_int__baselibs__task_result-backto-comp_arc_sta__baselibs__concurrency" style="stroke:#181818;stroke-width:1;"/><polygon fill="#181818" points="5229.99,198.34,5220.5459,195.5456,5225.0325,198.9909,5221.5873,203.4775,5229.99,198.34" style="stroke:#181818;stroke-width:1;"/><text fill="#000000" font-family="sans-serif" font-size="13" lengthAdjust="spacing" textLength="76.9082" x="4990.5" y="241.5669">implements</text></g><!--link Feature_User to logic_arc_int__baselibs__memory_shared--><g id="link_Feature_User_logic_arc_int__baselibs__memory_shared"><path codeLine="45" d="M3113.42,45.12 C2884.87,48.43 1831.49,65.6 970.5,111.5 C695.43,126.16 626.82,133.43 352.5,158.5 C346.31,159.07 345.9727,159.088 339.6027,159.698 " fill="transparent" id="Feature_User-to-logic_arc_int__baselibs__memory_shared" style="stroke:#181818;stroke-width:1;"/><polygon fill="#181818" points="333.63,160.27,342.9703,163.3939,338.6072,159.7934,342.2077,155.4303,333.63,160.27" style="stroke:#181818;stroke-width:1;"/><text fill="#000000" font-family="sans-serif" font-size="13" lengthAdjust="spacing" textLength="23.0103" x="971.5" y="124.5669">use</text></g><!--reverse link logic_arc_int__baselibs__json to comp_arc_sta__baselibs__json--><g id="link_logic_arc_int__baselibs__json_comp_arc_sta__baselibs__json"><path codeLine="46" d="M487.1582,204.7479 C487.7182,225.9779 488.44,253.94 489,275.19 " fill="transparent" id="logic_arc_int__baselibs__json-backto-comp_arc_sta__baselibs__json" style="stroke:#181818;stroke-width:1;"/><polygon fill="#181818" points="487,198.75,483.2387,207.8523,487.1318,203.7483,491.2359,207.6414,487,198.75" style="stroke:#181818;stroke-width:1;"/><text fill="#000000" font-family="sans-serif" font-size="13" lengthAdjust="spacing" textLength="76.9082" x="489.5" y="241.5669">implements</text></g><!--link Feature_User to logic_arc_int__baselibs__dynamic_array--><g id="link_Feature_User_logic_arc_int__baselibs__dynamic_array"><path codeLine="47" d="M3113.35,50.52 C2971.78,69.38 2538.3374,127.1474 2309.0174,157.7074 " fill="transparent" id="Feature_User-to-logic_arc_int__baselibs__dynamic_array" style="stroke:#181818;stroke-width:1;"/><polygon fill="#181818" points="2303.07,158.5,2312.5195,161.2761,2308.0262,157.8395,2311.4627,153.3462,2303.07,158.5" style="stroke:#181818;stroke-width:1;"/><text fill="#000000" font-family="sans-serif" font-size="13" lengthAdjust="spacing" textLength="23.0103" x="2631.5" y="124.5669">use</text></g><!--reverse link logic_arc_int__baselibs__promise to comp_arc_sta__baselibs__concurrency--><g id="link_logic_arc_int__baselibs__promise_comp_arc_sta__baselibs__concurrency"><path codeLine="48" d="M4944.18,199.5167 C4862.66,212.9667 4756.37,230.25 4657.5,245.5 C4591.13,255.73 4517.28,266.59 4455.84,275.48 " fill="transparent" id="logic_arc_int__baselibs__promise-backto-comp_arc_sta__baselibs__concurrency" style="stroke:#181818;stroke-width:1;"/><polygon fill="#181818" points="4950.1,198.54,4940.5689,196.0585,4945.1667,199.3539,4941.8712,203.9517,4950.1,198.54" style="stroke:#181818;stroke-width:1;"/><text fill="#000000" font-family="sans-serif" font-size="13" lengthAdjust="spacing" textLength="76.9082" x="4759.5" y="241.5669">implements</text></g><!--reverse link logic_arc_int__baselibs__shared_future to comp_arc_sta__baselibs__concurrency--><g id="link_logic_arc_int__baselibs__shared_future_comp_arc_sta__baselibs__concurrency"><path codeLine="49" d="M3651.8205,199.3927 C3802.0505,220.7027 4037.99,254.16 4188.2,275.46 " fill="transparent" id="logic_arc_int__baselibs__shared_future-backto-comp_arc_sta__baselibs__concurrency" style="stroke:#181818;stroke-width:1;"/><polygon fill="#181818" points="3645.88,198.55,3654.229,203.7743,3650.8304,199.2522,3655.3526,195.8536,3645.88,198.55" style="stroke:#181818;stroke-width:1;"/><text fill="#000000" font-family="sans-serif" font-size="13" lengthAdjust="spacing" textLength="76.9082" x="3967.5" y="241.5669">implements</text></g><!--link Feature_User to logic_arc_int__baselibs__bit_manipulation--><g id="link_Feature_User_logic_arc_int__baselibs__bit_manipulation"><path codeLine="50" d="M3113.16,45.77 C2884.47,52.42 1834.77,85.67 978.5,158.5 C972.74,158.99 972.8552,158.965 966.9352,159.505 " fill="transparent" id="Feature_User-to-logic_arc_int__baselibs__bit_manipulation" style="stroke:#181818;stroke-width:1;"/><polygon fill="#181818" points="960.96,160.05,970.2861,163.2159,965.9393,159.5958,969.5594,155.249,960.96,160.05" style="stroke:#181818;stroke-width:1;"/><text fill="#000000" font-family="sans-serif" font-size="13" lengthAdjust="spacing" textLength="23.0103" x="1577.5" y="124.5669">use</text></g><!--reverse link logic_arc_int__baselibs__memory_shared to comp_arc_sta__baselibs__memory_shared--><g id="link_logic_arc_int__baselibs__memory_shared_comp_arc_sta__baselibs__memory_shared"><path codeLine="51" d="M173.621,204.7464 C172.881,225.9764 171.91,253.94 171.17,275.19 " fill="transparent" id="logic_arc_int__baselibs__memory_shared-backto-comp_arc_sta__baselibs__memory_shared" style="stroke:#181818;stroke-width:1;"/><polygon fill="#181818" points="173.83,198.75,169.5189,207.6052,173.6558,203.747,177.5141,207.8839,173.83,198.75" style="stroke:#181818;stroke-width:1;"/><text fill="#000000" font-family="sans-serif" font-size="13" lengthAdjust="spacing" textLength="76.9082" x="174.5" y="241.5669">implements</text></g><!--reverse link logic_arc_int__baselibs__bit_mask_operator to comp_arc_sta__baselibs__bit_manipulation--><g id="link_logic_arc_int__baselibs__bit_mask_operator_comp_arc_sta__baselibs__bit_manipulation"><path codeLine="52" d="M1128.8386,202.0188 C1096.0686,223.3088 1048.62,254.14 1015.93,275.38 " fill="transparent" id="logic_arc_int__baselibs__bit_mask_operator-backto-comp_arc_sta__baselibs__bit_manipulation" style="stroke:#181818;stroke-width:1;"/><polygon fill="#181818" points="1133.87,198.75,1124.1437,200.2989,1129.6772,201.474,1128.5021,207.0075,1133.87,198.75" style="stroke:#181818;stroke-width:1;"/><text fill="#000000" font-family="sans-serif" font-size="13" lengthAdjust="spacing" textLength="76.9082" x="1087.5" y="241.5669">implements</text></g><!--SRC=[hLLDRzim3BtxLmYzfnk6OeUYw6N0JZkkPu6MsOIhFZoHwkeD- - -JatI9qo9A51zfazGZ7_a8rePVsj4B-MKZeLSIL1j4WbCTHJH2mJShwb2nOCGWGuyR6rqlWmAHI6qIvEQEPR1utrm3astLd-ORUVmIR8WgOhUslg_8F7baLf-kFpP_cxiFsvW6Z6I_gwy8aYAg1yPufO3LzeCUFwXcOYswnRsoOKb6GpIQl6ZT0gEbbhKsmNSqejVF40bQYxSgCQhcd2GkGuKbwXwOSuEs6Knm_TgR1VQzav1bjKZ7CgvzD9lGOwT3Vwl8zHOTUk6pokF1crKCddxdF3yJ9Yo0o_qmAKRqPYX0n1SqARDHZUrDZJC14-2dQb3PZ8df6RKbbjamFQOHm1JLvLdVOxUoxXsRwuhFfd6qFz-S7psIfIDoid9-y2DPv24hZgk8tJ8oqwg-rZylmU-fqoal70XIuPKtybKvGxKqRXRsA16Rr8KwNj-lXD_7u8XB8z6IQ0UU-cHXPAQ0wT3zv0aHo8SmbeQl6pouzQy8G_sLM44-lQUjn6xdIfAtjvoLk7xmsB2I19_MgKDXhuIquJDhLhvQ4NQ2ES_PkdI47ReGXosV1MHZSmkGDlsln78mcZDrwV-Ipdn9fnjmqN3iB_lHgYTi5JLwmkmfrLSfrMIozr_v1m00]--></g></svg>