<svg xmlns="http://www.w3.org/2000/svg" xmlns:xlink="http://www.w3.org/1999/xlink" contentStyleType="text/css" data-diagram-type="ACTIVITY" height="553px" preserveAspectRatio="none" style="width:540px;height:553px;background:#FFFFFF;" version="1.1" viewBox="0 0 540 553" width="540px" zoomAndPan="magnify"><title>State Diagram: Work Package Workflow</title><defs/><g><text fill="#000000" font-family="sans-serif" font-size="14" font-weight="bold" lengthAdjust="spacing" textLength="316.6064" x="104.9819" y="22.9951">State Diagram: Work Package Workflow</text><ellipse cx="190" cy="53.2969" fill="#222222" rx="10" ry="10" style="stroke:#222222;stroke-width:1;"/><rect fill="#F1F1F1" height="33.9688" rx="12.5" ry="12.5" style="stroke:#181818;stroke-width:0.5;" width="46.1738" x="167" y="104.2969"/><text fill="#000000" font-family="sans-serif" font-size="12" lengthAdjust="spacing" textLength="26.1738" x="177" y="125.4355">New</text><rect fill="#F1F1F1" height="33.9688" rx="12.5" ry="12.5" style="stroke:#181818;stroke-width:0.5;" width="67.2852" x="388.5" y="179.2969"/><text fill="#000000" font-family="sans-serif" font-size="12" lengthAdjust="spacing" textLength="47.2852" x="398.5" y="200.4355">Analyze</text><rect fill="#F1F1F1" height="33.9688" rx="12.5" ry="12.5" style="stroke:#181818;stroke-width:0.5;" width="67.4551" x="388.5" y="277.2969"/><text fill="#000000" font-family="sans-serif" font-size="12" lengthAdjust="spacing" textLength="47.4551" x="398.5" y="298.4355">Blocked</text><rect fill="#F1F1F1" height="33.9688" rx="12.5" ry="12.5" style="stroke:#181818;stroke-width:0.5;" width="51.5703" x="483" y="450.2969"/><text fill="#000000" font-family="sans-serif" font-size="12" lengthAdjust="spacing" textLength="31.5703" x="493" y="471.4355">Done</text><rect fill="#F1F1F1" height="33.9688" rx="12.5" ry="12.5" style="stroke:#181818;stroke-width:0.5;" width="86.9082" x="378.5" y="375.2969"/><text fill="#000000" font-family="sans-serif" font-size="12" lengthAdjust="spacing" textLength="66.9082" x="388.5" y="396.4355">In Progress</text><ellipse cx="509" cy="536.2969" fill="transparent" rx="11" ry="11" style="stroke:#222222;stroke-width:1;"/><ellipse cx="509" cy="536.2969" fill="#222222" rx="6" ry="6" style="stroke:#222222;stroke-width:1;"/><!--link start to New--><g id="link_start_New"><path d="M190,63.4769 C190,73.9569 190,85.3169 190,98.0869 " fill="transparent" id="start-to-New" style="stroke:#181818;stroke-width:1;"/><polygon fill="#181818" points="190,104.0869,194,95.0869,190,99.0869,186,95.0869,190,104.0869" style="stroke:#181818;stroke-width:1;"/></g><!--link New to Analyze--><g id="link_New_Analyze"><path d="M213.09,129.5669 C254.24,142.5069 334.6668,167.8156 382.4868,182.8656 " fill="transparent" id="New-to-Analyze" style="stroke:#181818;stroke-width:1;"/><polygon fill="#181818" points="388.21,184.6669,380.8259,178.1495,383.4406,183.1658,378.4243,185.7805,388.21,184.6669" style="stroke:#181818;stroke-width:1;"/></g><!--link New to Blocked--><g id="link_New_Blocked"><path d="M213.17,135.9469 C250.66,158.4969 326.26,205.8669 384,254.2969 C392.26,261.2269 396.601,265.3353 403.421,272.6253 " fill="transparent" id="New-to-Blocked" style="stroke:#181818;stroke-width:1;"/><polygon fill="#181818" points="407.52,277.0069,404.2925,267.7019,404.1041,273.3556,398.4504,273.1673,407.52,277.0069" style="stroke:#181818;stroke-width:1;"/></g><!--link New to Done--><g id="link_New_Done"><path d="M166.7,121.3669 C117.18,120.7269 6,126.9069 6,195.2969 C6,195.2969 6,195.2969 6,393.2969 C6,441.9369 373.1752,460.6961 476.6652,465.0261 " fill="transparent" id="New-to-Done" style="stroke:#181818;stroke-width:1;"/><polygon fill="#181818" points="482.66,465.2769,473.8351,460.9041,477.6644,465.0679,473.5007,468.8971,482.66,465.2769" style="stroke:#181818;stroke-width:1;"/><path d="M11,274.2969 L11,314.2969 L172,314.2969 L172,284.2969 L162,274.2969 L11,274.2969 " fill="#FEFFDD" style="stroke:#181818;stroke-width:0.5;"/><path d="M162,274.2969 L162,284.2969 L172,284.2969 L162,274.2969 " fill="#FEFFDD" style="stroke:#181818;stroke-width:0.5;"/><text fill="#000000" font-family="sans-serif" font-size="13" lengthAdjust="spacing" textLength="140.7021" x="17" y="291.3638">in case work package</text><text fill="#000000" font-family="sans-serif" font-size="13" lengthAdjust="spacing" textLength="70.1543" x="17" y="306.4966">is obsolete</text></g><!--link Analyze to In Progress--><g id="link_Analyze_In Progress"><path d="M439.22,213.4669 C449.14,224.0169 460.67,238.6769 466,254.2969 C477.48,287.9469 477.48,300.6469 466,334.2969 C460.67,349.9169 453.2501,360.2057 443.3301,370.7557 " fill="transparent" id="Analyze-to-In Progress" style="stroke:#181818;stroke-width:1;"/><polygon fill="#181818" points="439.22,375.1269,448.2993,371.3102,442.6451,371.4843,442.4711,365.8301,439.22,375.1269" style="stroke:#181818;stroke-width:1;"/></g><!--link In Progress to Analyze--><g id="link_In Progress_Analyze"><path d="M378.44,384.6469 C326.97,375.7869 246.04,358.3969 228,334.2969 C206.69,305.8269 206.69,282.7669 228,254.2969 C247.25,228.5769 332.1887,211.4753 382.4487,203.2553 " fill="transparent" id="In Progress-to-Analyze" style="stroke:#181818;stroke-width:1;"/><polygon fill="#181818" points="388.37,202.2869,378.8424,199.792,383.4356,203.0939,380.1336,207.6871,388.37,202.2869" style="stroke:#181818;stroke-width:1;"/><path d="M233,259.2969 L233,329.2969 L374,329.2969 L374,269.2969 L364,259.2969 L233,259.2969 " fill="#FEFFDD" style="stroke:#181818;stroke-width:0.5;"/><path d="M364,259.2969 L364,269.2969 L374,269.2969 L364,259.2969 " fill="#FEFFDD" style="stroke:#181818;stroke-width:0.5;"/><text fill="#000000" font-family="sans-serif" font-size="13" lengthAdjust="spacing" textLength="76.8701" x="239" y="276.3638">in case new</text><text fill="#000000" font-family="sans-serif" font-size="13" lengthAdjust="spacing" textLength="119.1836" x="239" y="291.4966">information forces</text><text fill="#000000" font-family="sans-serif" font-size="13" lengthAdjust="spacing" textLength="116.1685" x="239" y="306.6294">the work package</text><text fill="#000000" font-family="sans-serif" font-size="13" lengthAdjust="spacing" textLength="120.4214" x="239" y="321.7622">to be re-evaluated</text></g><!--link Analyze to Blocked--><g id="link_Analyze_Blocked"><path d="M416.2,213.5869 C413.92,231.3469 413.1555,253.6371 415.4555,271.3071 " fill="transparent" id="Analyze-to-Blocked" style="stroke:#181818;stroke-width:1;"/><polygon fill="#181818" points="416.23,277.2569,419.0349,267.8159,415.5846,272.2987,411.1018,268.8485,416.23,277.2569" style="stroke:#181818;stroke-width:1;"/></g><!--link Blocked to Analyze--><g id="link_Blocked_Analyze"><path d="M427.77,277.2569 C430.07,259.5869 430.844,237.298 428.564,219.538 " fill="transparent" id="Blocked-to-Analyze" style="stroke:#181818;stroke-width:1;"/><polygon fill="#181818" points="427.8,213.5869,424.9786,223.0229,428.4367,218.5462,432.9134,222.0043,427.8,213.5869" style="stroke:#181818;stroke-width:1;"/></g><!--link Analyze to Done--><g id="link_Analyze_Done"><path d="M441.39,213.3769 C454.21,223.1469 469.43,237.0569 476,254.2969 C502.37,323.4869 501.061,407.9794 504.211,444.2594 " fill="transparent" id="Analyze-to-Done" style="stroke:#181818;stroke-width:1;"/><polygon fill="#181818" points="504.73,450.2369,507.9365,440.9246,504.2975,445.2556,499.9665,441.6166,504.73,450.2369" style="stroke:#181818;stroke-width:1;"/></g><!--link Done to Analyze--><g id="link_Done_Analyze"><path d="M515.2,450.2369 C521.58,413.9569 522.37,323.4869 496,254.2969 C488.95,235.8069 477.0718,224.2721 460.9618,214.4421 " fill="transparent" id="Done-to-Analyze" style="stroke:#181818;stroke-width:1;"/><polygon fill="#181818" points="455.84,211.3169,461.4392,219.4193,460.1082,213.9212,465.6062,212.5902,455.84,211.3169" style="stroke:#181818;stroke-width:1;"/></g><!--link In Progress to Blocked--><g id="link_In Progress_Blocked"><path d="M427.77,375.2569 C430.07,357.5869 430.844,335.298 428.564,317.538 " fill="transparent" id="In Progress-to-Blocked" style="stroke:#181818;stroke-width:1;"/><polygon fill="#181818" points="427.8,311.5869,424.9786,321.0229,428.4367,316.5462,432.9134,320.0043,427.8,311.5869" style="stroke:#181818;stroke-width:1;"/></g><!--link Blocked to In Progress--><g id="link_Blocked_In Progress"><path d="M416.2,311.5869 C413.92,329.3469 413.1555,351.6371 415.4555,369.3071 " fill="transparent" id="Blocked-to-In Progress" style="stroke:#181818;stroke-width:1;"/><polygon fill="#181818" points="416.23,375.2569,419.0349,365.8159,415.5846,370.2987,411.1018,366.8485,416.23,375.2569" style="stroke:#181818;stroke-width:1;"/></g><!--link In Progress to Done--><g id="link_In Progress_Done"><path d="M441.31,409.4969 C455.73,421.5969 470.7419,434.2023 485.1519,446.2823 " fill="transparent" id="In Progress-to-Done" style="stroke:#181818;stroke-width:1;"/><polygon fill="#181818" points="489.75,450.1369,485.4226,441.2896,485.9183,446.9247,480.2832,447.4204,489.75,450.1369" style="stroke:#181818;stroke-width:1;"/></g><!--link Done to end--><g id="link_Done_end"><path d="M509,484.5169 C509,497.2169 509,508.4869 509,519.2569 " fill="transparent" id="Done-to-end" style="stroke:#181818;stroke-width:1;"/><polygon fill="#181818" points="509,525.2569,513,516.2569,509,520.2569,505,516.2569,509,525.2569" style="stroke:#181818;stroke-width:1;"/></g><!--SRC=[XL8nRiCm3Dpr2i9BqWB-G8O2AR9qAG9qoApOZ2jO8GD9ZT6-lhGKnPRRebfitP77Ezh118lm5dH0s1dTENtUm85T3tlTzBh3U3bP7fHQFpv0NJz1zOf3fTGAv9bQLOGIkILjFx-mccFFbfiUsmBRCKaHo26MuKnW3VKH68yXQBH764Olb-Hb8ZtmqRF5a32aDggCfcxpix5i9mrz8TWxxXnwNosvoMI99wEYF6lEwdEzHVn_an4EC-p4xgo3aM9vQz3VgV3-nn82mn71OOrNRJ_4JblkuXTpKyIVt3tchIX7p3tBhrlYnM95P5JB2b5vsJw1ybkfRm00]--></g></svg>