<svg xmlns="http://www.w3.org/2000/svg" xmlns:xlink="http://www.w3.org/1999/xlink" contentStyleType="text/css" data-diagram-type="ACTIVITY" height="422px" preserveAspectRatio="none" style="width:469px;height:422px;background:#FFFFFF;" version="1.1" viewBox="0 0 469 422" width="469px" zoomAndPan="magnify"><defs/><g><ellipse cx="322.5" cy="16" fill="#222222" rx="10" ry="10" style="stroke:#222222;stroke-width:1;"/><rect fill="#F1F1F1" height="33.9688" rx="12.5" ry="12.5" style="stroke:#181818;stroke-width:0.5;" width="46.1738" x="299.5" y="66"/><text fill="#000000" font-family="sans-serif" font-size="12" lengthAdjust="spacing" textLength="26.1738" x="309.5" y="87.1387">New</text><rect fill="#F1F1F1" height="33.9688" rx="12.5" ry="12.5" style="stroke:#181818;stroke-width:0.5;" width="67.2852" x="312" y="224.5"/><text fill="#000000" font-family="sans-serif" font-size="12" lengthAdjust="spacing" textLength="47.2852" x="322" y="245.6387">Analyze</text><rect fill="#F1F1F1" height="33.9688" rx="12.5" ry="12.5" style="stroke:#181818;stroke-width:0.5;" width="67.4551" x="299" y="383"/><text fill="#000000" font-family="sans-serif" font-size="12" lengthAdjust="spacing" textLength="47.4551" x="309" y="404.1387">Blocked</text><rect fill="#F1F1F1" height="33.9688" rx="12.5" ry="12.5" style="stroke:#181818;stroke-width:0.5;" width="51.5703" x="353.5" y="140"/><text fill="#000000" font-family="sans-serif" font-size="12" lengthAdjust="spacing" textLength="31.5703" x="363.5" y="161.1387">Done</text><g id="elem_GMN11"><path d="M6,144.5 L6,169.6328 A0,0 0 0 0 6,169.6328 L248.7617,169.6328 A0,0 0 0 0 248.7617,169.6328 L248.7617,162.5 L353.26,157 L248.7617,154.5 L248.7617,154.5 L238.7617,144.5 L6,144.5 A0,0 0 0 0 6,144.5 " fill="#FEFFDD" style="stroke:#181818;stroke-width:0.5;"/><path d="M238.7617,144.5 L238.7617,154.5 L248.7617,154.5 L238.7617,144.5 " fill="#FEFFDD" style="stroke:#181818;stroke-width:0.5;"/><text fill="#000000" font-family="sans-serif" font-size="13" lengthAdjust="spacing" textLength="221.7617" x="12" y="161.5669">in case work packages is obsolete</text></g><rect fill="#F1F1F1" height="33.9688" rx="12.5" ry="12.5" style="stroke:#181818;stroke-width:0.5;" width="86.9082" x="374" y="309"/><text fill="#000000" font-family="sans-serif" font-size="12" lengthAdjust="spacing" textLength="66.9082" x="384" y="330.1387">In Progress</text><g id="elem_GMN19"><path d="M51.5,214 L51.5,269.3984 A0,0 0 0 0 51.5,269.3984 L249.7773,269.3984 A0,0 0 0 0 249.7773,269.3984 L249.7773,245.5 L311.76,241.5 L249.7773,237.5 L249.7773,224 L239.7773,214 L51.5,214 A0,0 0 0 0 51.5,214 " fill="#FEFFDD" style="stroke:#181818;stroke-width:0.5;"/><path d="M239.7773,214 L239.7773,224 L249.7773,224 L239.7773,214 " fill="#FEFFDD" style="stroke:#181818;stroke-width:0.5;"/><text fill="#000000" font-family="sans-serif" font-size="13" lengthAdjust="spacing" textLength="156.2603" x="57.5" y="231.0669">in case new information</text><text fill="#000000" font-family="sans-serif" font-size="13" lengthAdjust="spacing" textLength="177.2773" x="57.5" y="246.1997">forces the work package to</text><text fill="#000000" font-family="sans-serif" font-size="13" lengthAdjust="spacing" textLength="103.2383" x="57.5" y="261.3325">be re-evaluated</text></g><ellipse cx="452.5" cy="241.5" fill="transparent" rx="11" ry="11" style="stroke:#222222;stroke-width:1;"/><ellipse cx="452.5" cy="241.5" fill="#222222" rx="6" ry="6" style="stroke:#222222;stroke-width:1;"/><!--link start to New--><g id="link_start_New"><path d="M322.5,26.04 C322.5,36.29 322.5,47.22 322.5,59.78 " fill="transparent" id="start-to-New" style="stroke:#181818;stroke-width:1;"/><polygon fill="#181818" points="322.5,65.78,326.5,56.78,322.5,60.78,318.5,56.78,322.5,65.78" style="stroke:#181818;stroke-width:1;"/></g><!--link New to Analyze--><g id="link_New_Analyze"><path d="M324.87,100.16 C329.28,130.15 337.808,188.1637 342.228,218.2537 " fill="transparent" id="New-to-Analyze" style="stroke:#181818;stroke-width:1;"/><polygon fill="#181818" points="343.1,224.19,345.7495,214.7042,342.3733,219.2431,337.8345,215.8669,343.1,224.19" style="stroke:#181818;stroke-width:1;"/></g><!--link New to Blocked--><g id="link_New_Blocked"><path d="M318.3,100.34 C310.55,132.6 295.41,206.73 302.5,269 C307.24,310.66 318.5754,352.6372 325.8054,377.0372 " fill="transparent" id="New-to-Blocked" style="stroke:#181818;stroke-width:1;"/><polygon fill="#181818" points="327.51,382.79,328.7883,373.0244,326.0895,377.996,321.1179,375.2973,327.51,382.79" style="stroke:#181818;stroke-width:1;"/></g><!--link New to Done--><g id="link_New_Done"><path d="M335.43,100.34 C344.76,112.12 353.5753,123.2561 362.8953,135.0261 " fill="transparent" id="New-to-Done" style="stroke:#181818;stroke-width:1;"/><polygon fill="#181818" points="366.62,139.73,364.1688,130.191,363.5161,135.8101,357.897,135.1573,366.62,139.73" style="stroke:#181818;stroke-width:1;"/></g><!--link Analyze to In Progress--><g id="link_Analyze_In Progress"><path d="M353.61,258.8 C364.38,273.26 378.4859,290.0388 392.9459,304.4888 " fill="transparent" id="Analyze-to-In Progress" style="stroke:#181818;stroke-width:1;"/><polygon fill="#181818" points="397.19,308.73,393.6513,299.5388,393.6532,305.1957,387.9964,305.1976,397.19,308.73" style="stroke:#181818;stroke-width:1;"/></g><!--link In Progress to Analyze--><g id="link_In Progress_Analyze"><path d="M409.42,308.73 C398.65,294.28 384.5541,277.5012 370.0841,263.0412 " fill="transparent" id="In Progress-to-Analyze" style="stroke:#181818;stroke-width:1;"/><polygon fill="#181818" points="365.84,258.8,369.3787,267.9912,369.3768,262.3343,375.0336,262.3324,365.84,258.8" style="stroke:#181818;stroke-width:1;"/></g><!--link Analyze to Blocked--><g id="link_Analyze_Blocked"><path d="M339.37,258.66 C333.27,288.65 327.7308,346.604 328.8308,376.694 " fill="transparent" id="Analyze-to-Blocked" style="stroke:#181818;stroke-width:1;"/><polygon fill="#181818" points="329.05,382.69,332.7185,373.5499,328.8673,377.6933,324.7239,373.8421,329.05,382.69" style="stroke:#181818;stroke-width:1;"/></g><!--link Blocked to Analyze--><g id="link_Blocked_Analyze"><path d="M338.66,382.69 C344.76,352.6 350.2959,294.6457 349.1659,264.6557 " fill="transparent" id="Blocked-to-Analyze" style="stroke:#181818;stroke-width:1;"/><polygon fill="#181818" points="348.94,258.66,345.2817,267.8042,349.1283,263.6565,353.276,267.503,348.94,258.66" style="stroke:#181818;stroke-width:1;"/></g><!--link Analyze to Done--><g id="link_Analyze_Done"><path d="M358.31,224.23 C366.12,209.78 373.1496,194.5314 377.2596,180.0714 " fill="transparent" id="Analyze-to-Done" style="stroke:#181818;stroke-width:1;"/><polygon fill="#181818" points="378.9,174.3,372.5918,181.8635,377.533,179.1095,380.287,184.0507,378.9,174.3" style="stroke:#181818;stroke-width:1;"/></g><!--link Done to Analyze--><g id="link_Done_Analyze"><path d="M366.67,174.3 C358.86,188.76 351.8415,204.0089 347.7315,218.4589 " fill="transparent" id="Done-to-Analyze" style="stroke:#181818;stroke-width:1;"/><polygon fill="#181818" points="346.09,224.23,352.3996,216.6677,347.4579,219.4208,344.7048,214.479,346.09,224.23" style="stroke:#181818;stroke-width:1;"/></g><!--link In Progress to Blocked--><g id="link_In Progress_Blocked"><path d="M391.81,343.34 C376.32,355.2 361.8199,367.0474 349.4099,378.8374 " fill="transparent" id="In Progress-to-Blocked" style="stroke:#181818;stroke-width:1;"/><polygon fill="#181818" points="345.06,382.97,354.3399,379.6711,348.6849,379.5262,348.8298,373.8712,345.06,382.97" style="stroke:#181818;stroke-width:1;"/></g><!--link Blocked to In Progress--><g id="link_Blocked_In Progress"><path d="M357.78,382.97 C373.21,371.18 387.7225,359.3245 400.2525,347.4645 " fill="transparent" id="Blocked-to-In Progress" style="stroke:#181818;stroke-width:1;"/><polygon fill="#181818" points="404.61,343.34,395.324,346.6218,400.9787,346.7771,400.8234,352.4318,404.61,343.34" style="stroke:#181818;stroke-width:1;"/></g><!--link In Progress to Done--><g id="link_In Progress_Done"><path d="M413.81,308.79 C406.53,276.79 391.7221,211.7003 384.4721,179.8603 " fill="transparent" id="In Progress-to-Done" style="stroke:#181818;stroke-width:1;"/><polygon fill="#181818" points="383.14,174.01,381.238,183.6735,384.2501,178.8852,389.0383,181.8973,383.14,174.01" style="stroke:#181818;stroke-width:1;"/></g><!--link Done to end--><g id="link_Done_end"><path d="M393.92,174.3 C409.55,191.96 429.8349,214.8857 441.6249,228.2157 " fill="transparent" id="Done-to-end" style="stroke:#181818;stroke-width:1;"/><polygon fill="#181818" points="445.6,232.71,442.6336,223.3185,442.2874,228.9647,436.6412,228.6186,445.6,232.71" style="stroke:#181818;stroke-width:1;"/></g><!--SRC=[XL91Ri8m4Bpd5IDV2aZvGYKGbrwgIhp090j4SNUHRK3jwt620pO9mgTuPZmxEme0p1PUZdEKvQVwfeigYe3X0-4R6wyzzVUUwZHGIzRcxv_KCxuoKhLKZ_2rS1HtXyKJ3Ety7G4QHgKTuIAsnL5NhTwJG-CWMoU6OeJk4DUzmn0oPac33l5kmxyOFrRsbfnJKtmUEkTkmUEan2YTblfFrFDkOmubDxmJ-wjz8vme0bQ54lmXhmLU4j6MOAcaipQdaAWUr_GYOxxrcCysZ-9qw-7zr0-HSrd_qR1pJztwQLDM3sAsc1TN]--></g></svg>