<svg xmlns="http://www.w3.org/2000/svg" xmlns:xlink="http://www.w3.org/1999/xlink" contentStyleType="text/css" data-diagram-type="CLASS" height="493px" preserveAspectRatio="none" style="width:453px;height:493px;background:#FFFFFF;" version="1.1" viewBox="0 0 453 493" width="453px" zoomAndPan="magnify"><defs/><g><!--cluster mod_view_sta__log__logging--><a href="../features/analysis-infra/logging/modules/logging/index.html#mod_view_sta__log__logging" target="_top" title="../features/analysis-infra/logging/modules/logging/index.html#mod_view_sta__log__logging" xlink:actuate="onRequest" xlink:href="../features/analysis-infra/logging/modules/logging/index.html#mod_view_sta__log__logging" xlink:show="new" xlink:title="../features/analysis-infra/logging/modules/logging/index.html#mod_view_sta__log__logging" xlink:type="simple"><path d="M10.5,110 L74.8691,110 A3.75,3.75 0 0 1 77.3691,112.5 L84.3691,132.2969 L353.5,132.2969 A2.5,2.5 0 0 1 356,134.7969 L356,204.5 A2.5,2.5 0 0 1 353.5,207 L10.5,207 A2.5,2.5 0 0 1 8,204.5 L8,112.5 A2.5,2.5 0 0 1 10.5,110 " fill="transparent" style="stroke:#000000;stroke-width:1.5;"/><line style="stroke:#000000;stroke-width:1.5;" x1="8" x2="84.3691" y1="132.2969" y2="132.2969"/><text fill="#000000" font-family="sans-serif" font-size="14" font-weight="bold" lengthAdjust="spacing" textLength="63.3691" x="12" y="124.9951">Logging</text></a><!--cluster mod_view_sta__osal__osal--><a href="../features/analysis-infra/logging/modules/osal/index.html#mod_view_sta__osal__osal" target="_top" title="../features/analysis-infra/logging/modules/osal/index.html#mod_view_sta__osal__osal" xlink:actuate="onRequest" xlink:href="../features/analysis-infra/logging/modules/osal/index.html#mod_view_sta__osal__osal" xlink:show="new" xlink:title="../features/analysis-infra/logging/modules/osal/index.html#mod_view_sta__osal__osal" xlink:type="simple"><path d="M8.5,389 L51.2402,389 A3.75,3.75 0 0 1 53.7402,391.5 L60.7402,411.2969 L113.5,411.2969 A2.5,2.5 0 0 1 116,413.7969 L116,483.5 A2.5,2.5 0 0 1 113.5,486 L8.5,486 A2.5,2.5 0 0 1 6,483.5 L6,391.5 A2.5,2.5 0 0 1 8.5,389 " fill="transparent" style="stroke:#000000;stroke-width:1.5;"/><line style="stroke:#000000;stroke-width:1.5;" x1="6" x2="60.7402" y1="411.2969" y2="411.2969"/><text fill="#000000" font-family="sans-serif" font-size="14" font-weight="bold" lengthAdjust="spacing" textLength="41.7402" x="10" y="403.9951">OSAL</text></a><!--cluster mod_view_sta__baselibs__baselibs--><a href="../features/communication/modules/baselibs/index.html#mod_view_sta__baselibs__baselibs" target="_top" title="../features/communication/modules/baselibs/index.html#mod_view_sta__baselibs__baselibs" xlink:actuate="onRequest" xlink:href="../features/communication/modules/baselibs/index.html#mod_view_sta__baselibs__baselibs" xlink:show="new" xlink:title="../features/communication/modules/baselibs/index.html#mod_view_sta__baselibs__baselibs" xlink:type="simple"><path d="M142.5,389 L209.3984,389 A3.75,3.75 0 0 1 211.8984,391.5 L218.8984,411.2969 L243.5,411.2969 A2.5,2.5 0 0 1 246,413.7969 L246,483.5 A2.5,2.5 0 0 1 243.5,486 L142.5,486 A2.5,2.5 0 0 1 140,483.5 L140,391.5 A2.5,2.5 0 0 1 142.5,389 " fill="transparent" style="stroke:#000000;stroke-width:1.5;"/><line style="stroke:#000000;stroke-width:1.5;" x1="140" x2="218.8984" y1="411.2969" y2="411.2969"/><text fill="#000000" font-family="sans-serif" font-size="14" font-weight="bold" lengthAdjust="spacing" textLength="65.8984" x="144" y="403.9951">Baselibs</text></a><!--cluster mod_view_sta__iam__iam--><a href="../features/analysis-infra/logging/modules/iam/index.html#mod_view_sta__iam__iam" target="_top" title="../features/analysis-infra/logging/modules/iam/index.html#mod_view_sta__iam__iam" xlink:actuate="onRequest" xlink:href="../features/analysis-infra/logging/modules/iam/index.html#mod_view_sta__iam__iam" xlink:show="new" xlink:title="../features/analysis-infra/logging/modules/iam/index.html#mod_view_sta__iam__iam" xlink:type="simple"><path d="M272.5,389 L389.8408,389 A3.75,3.75 0 0 1 392.3408,391.5 L399.3408,411.2969 L443.5,411.2969 A2.5,2.5 0 0 1 446,413.7969 L446,483.5 A2.5,2.5 0 0 1 443.5,486 L272.5,486 A2.5,2.5 0 0 1 270,483.5 L270,391.5 A2.5,2.5 0 0 1 272.5,389 " fill="transparent" style="stroke:#000000;stroke-width:1.5;"/><line style="stroke:#000000;stroke-width:1.5;" x1="270" x2="399.3408" y1="411.2969" y2="411.2969"/><text fill="#000000" font-family="sans-serif" font-size="14" font-weight="bold" lengthAdjust="spacing" textLength="116.3408" x="274" y="403.9951">Access Control</text></a><!--entity comp_arc_sta__log__logging--><a href="../features/analysis-infra/logging/modules/logging/index.html#comp_arc_sta__log__logging" target="_top" title="../features/analysis-infra/logging/modules/logging/index.html#comp_arc_sta__log__logging" xlink:actuate="onRequest" xlink:href="../features/analysis-infra/logging/modules/logging/index.html#comp_arc_sta__log__logging" xlink:show="new" xlink:title="../features/analysis-infra/logging/modules/logging/index.html#comp_arc_sta__log__logging" xlink:type="simple"><rect fill="#F1F1F1" height="46.2969" rx="2.5" ry="2.5" style="stroke:#0000FF;stroke-width:2;" width="122.3867" x="24" y="145"/><rect fill="#F1F1F1" height="10" style="stroke:#0000FF;stroke-width:2;" width="15" x="126.3867" y="150"/><rect fill="#F1F1F1" height="2" style="stroke:#0000FF;stroke-width:2;" width="4" x="124.3867" y="152"/><rect fill="#F1F1F1" height="2" style="stroke:#0000FF;stroke-width:2;" width="4" x="124.3867" y="156"/><text fill="#000000" font-family="sans-serif" font-size="14" lengthAdjust="spacing" textLength="82.3867" x="39" y="177.9951">Logging API</text></a><!--entity comp_arc_sta__log__daemon--><a href="../features/analysis-infra/logging/modules/logging/index.html#comp_arc_sta__log__daemon" target="_top" title="../features/analysis-infra/logging/modules/logging/index.html#comp_arc_sta__log__daemon" xlink:actuate="onRequest" xlink:href="../features/analysis-infra/logging/modules/logging/index.html#comp_arc_sta__log__daemon" xlink:show="new" xlink:title="../features/analysis-infra/logging/modules/logging/index.html#comp_arc_sta__log__daemon" xlink:type="simple"><rect fill="#F1F1F1" height="46.2969" rx="2.5" ry="2.5" style="stroke:#0000FF;stroke-width:2;" width="159.2871" x="181.5" y="145"/><rect fill="#F1F1F1" height="10" style="stroke:#0000FF;stroke-width:2;" width="15" x="320.7871" y="150"/><rect fill="#F1F1F1" height="2" style="stroke:#0000FF;stroke-width:2;" width="4" x="318.7871" y="152"/><rect fill="#F1F1F1" height="2" style="stroke:#0000FF;stroke-width:2;" width="4" x="318.7871" y="156"/><text fill="#000000" font-family="sans-serif" font-size="14" lengthAdjust="spacing" textLength="119.2871" x="196.5" y="177.9951">Logging Daemon</text></a><!--entity comp_arc_sta__osal__osal--><a href="../features/analysis-infra/logging/modules/osal/index.html#comp_arc_sta__osal__osal" target="_top" title="../features/analysis-infra/logging/modules/osal/index.html#comp_arc_sta__osal__osal" xlink:actuate="onRequest" xlink:href="../features/analysis-infra/logging/modules/osal/index.html#comp_arc_sta__osal__osal" xlink:show="new" xlink:title="../features/analysis-infra/logging/modules/osal/index.html#comp_arc_sta__osal__osal" xlink:type="simple"><rect fill="#F1F1F1" height="46.2969" rx="2.5" ry="2.5" style="stroke:#0000FF;stroke-width:2;" width="77.2832" x="22.5" y="424"/><rect fill="#F1F1F1" height="10" style="stroke:#0000FF;stroke-width:2;" width="15" x="79.7832" y="429"/><rect fill="#F1F1F1" height="2" style="stroke:#0000FF;stroke-width:2;" width="4" x="77.7832" y="431"/><rect fill="#F1F1F1" height="2" style="stroke:#0000FF;stroke-width:2;" width="4" x="77.7832" y="435"/><text fill="#000000" font-family="sans-serif" font-size="14" lengthAdjust="spacing" textLength="37.2832" x="37.5" y="456.9951">OSAL</text></a><!--entity comp_arc_sta__baselibs__json--><a href="../features/communication/modules/baselibs/json_component_architecture.html#comp_arc_sta__baselibs__json" target="_top" title="../features/communication/modules/baselibs/json_component_architecture.html#comp_arc_sta__baselibs__json" xlink:actuate="onRequest" xlink:href="../features/communication/modules/baselibs/json_component_architecture.html#comp_arc_sta__baselibs__json" xlink:show="new" xlink:title="../features/communication/modules/baselibs/json_component_architecture.html#comp_arc_sta__baselibs__json" xlink:type="simple"><rect fill="#F1F1F1" height="46.2969" rx="2.5" ry="2.5" style="stroke:#0000FF;stroke-width:2;" width="74.5078" x="155.5" y="424"/><rect fill="#F1F1F1" height="10" style="stroke:#0000FF;stroke-width:2;" width="15" x="210.0078" y="429"/><rect fill="#F1F1F1" height="2" style="stroke:#0000FF;stroke-width:2;" width="4" x="208.0078" y="431"/><rect fill="#F1F1F1" height="2" style="stroke:#0000FF;stroke-width:2;" width="4" x="208.0078" y="435"/><text fill="#000000" font-family="sans-serif" font-size="14" lengthAdjust="spacing" textLength="34.5078" x="170.5" y="456.9951">JSON</text></a><!--entity comp_arc_sta__iam__iam--><a href="../features/analysis-infra/logging/modules/iam/index.html#comp_arc_sta__iam__iam" target="_top" title="../features/analysis-infra/logging/modules/iam/index.html#comp_arc_sta__iam__iam" xlink:actuate="onRequest" xlink:href="../features/analysis-infra/logging/modules/iam/index.html#comp_arc_sta__iam__iam" xlink:show="new" xlink:title="../features/analysis-infra/logging/modules/iam/index.html#comp_arc_sta__iam__iam" xlink:type="simple"><rect fill="#F1F1F1" height="46.2969" rx="2.5" ry="2.5" style="stroke:#0000FF;stroke-width:2;" width="143.5371" x="286" y="424"/><rect fill="#F1F1F1" height="10" style="stroke:#0000FF;stroke-width:2;" width="15" x="409.5371" y="429"/><rect fill="#F1F1F1" height="2" style="stroke:#0000FF;stroke-width:2;" width="4" x="407.5371" y="431"/><rect fill="#F1F1F1" height="2" style="stroke:#0000FF;stroke-width:2;" width="4" x="407.5371" y="435"/><text fill="#000000" font-family="sans-serif" font-size="14" lengthAdjust="spacing" textLength="103.5371" x="301" y="456.9951">Access Control</text></a><!--class logic_arc_int__log__daemon--><a href="../features/analysis-infra/logging/modules/logging/index.html#logic_arc_int__log__daemon" target="_top" title="../features/analysis-infra/logging/modules/logging/index.html#logic_arc_int__log__daemon" xlink:actuate="onRequest" xlink:href="../features/analysis-infra/logging/modules/logging/index.html#logic_arc_int__log__daemon" xlink:show="new" xlink:title="../features/analysis-infra/logging/modules/logging/index.html#logic_arc_int__log__daemon" xlink:type="simple"><g id="elem_logic_arc_int__log__daemon"><rect codeLine="13" fill="#F1F1F1" height="40" id="logic_arc_int__log__daemon" rx="2.5" ry="2.5" style="stroke:#181818;stroke-width:0.5;" width="151.2871" x="185.5" y="7"/><ellipse cx="200.5" cy="23" fill="#B4A7E5" rx="11" ry="11" style="stroke:#181818;stroke-width:1;"/><path d="M196.4219,18.7656 L196.4219,16.6094 L203.8125,16.6094 L203.8125,18.7656 L201.3438,18.7656 L201.3438,26.8438 L203.8125,26.8438 L203.8125,29 L196.4219,29 L196.4219,26.8438 L198.8906,26.8438 L198.8906,18.7656 L196.4219,18.7656 Z " fill="#000000"/><text fill="#000000" font-family="sans-serif" font-size="14" font-style="italic" lengthAdjust="spacing" textLength="119.2871" x="214.5" y="27.8467">Logging Daemon</text><line style="stroke:#181818;stroke-width:0.5;" x1="186.5" x2="335.7871" y1="39" y2="39"/></g></a><!--class logic_arc_int__log__logging--><a href="../features/analysis-infra/logging/modules/logging/index.html#logic_arc_int__log__logging" target="_top" title="../features/analysis-infra/logging/modules/logging/index.html#logic_arc_int__log__logging" xlink:actuate="onRequest" xlink:href="../features/analysis-infra/logging/modules/logging/index.html#logic_arc_int__log__logging" xlink:show="new" xlink:title="../features/analysis-infra/logging/modules/logging/index.html#logic_arc_int__log__logging" xlink:type="simple"><g id="elem_logic_arc_int__log__logging"><rect codeLine="18" fill="#F1F1F1" height="40" id="logic_arc_int__log__logging" rx="2.5" ry="2.5" style="stroke:#181818;stroke-width:0.5;" width="87.7881" x="41" y="7"/><ellipse cx="56" cy="23" fill="#B4A7E5" rx="11" ry="11" style="stroke:#181818;stroke-width:1;"/><path d="M51.9219,18.7656 L51.9219,16.6094 L59.3125,16.6094 L59.3125,18.7656 L56.8438,18.7656 L56.8438,26.8438 L59.3125,26.8438 L59.3125,29 L51.9219,29 L51.9219,26.8438 L54.3906,26.8438 L54.3906,18.7656 L51.9219,18.7656 Z " fill="#000000"/><text fill="#000000" font-family="sans-serif" font-size="14" font-style="italic" lengthAdjust="spacing" textLength="55.7881" x="70" y="27.8467">Logging</text><line style="stroke:#181818;stroke-width:0.5;" x1="42" x2="127.7881" y1="39" y2="39"/></g></a><!--class logic_arc_int__osal__osal--><a href="../features/analysis-infra/logging/modules/osal/index.html#logic_arc_int__osal__osal" target="_top" title="../features/analysis-infra/logging/modules/osal/index.html#logic_arc_int__osal__osal" xlink:actuate="onRequest" xlink:href="../features/analysis-infra/logging/modules/osal/index.html#logic_arc_int__osal__osal" xlink:show="new" xlink:title="../features/analysis-infra/logging/modules/osal/index.html#logic_arc_int__osal__osal" xlink:type="simple"><g id="elem_logic_arc_int__osal__osal"><rect codeLine="38" fill="#F1F1F1" height="56.2969" id="logic_arc_int__osal__osal" rx="2.5" ry="2.5" style="stroke:#181818;stroke-width:0.5;" width="78.6572" x="21.5" y="270"/><ellipse cx="40.7183" cy="286" fill="#B4A7E5" rx="11" ry="11" style="stroke:#181818;stroke-width:1;"/><path d="M36.6402,281.7656 L36.6402,279.6094 L44.0308,279.6094 L44.0308,281.7656 L41.5621,281.7656 L41.5621,289.8438 L44.0308,289.8438 L44.0308,292 L36.6402,292 L36.6402,289.8438 L39.1089,289.8438 L39.1089,281.7656 L36.6402,281.7656 Z " fill="#000000"/><text fill="#000000" font-family="sans-serif" font-size="14" font-style="italic" lengthAdjust="spacing" textLength="37.2832" x="55.6557" y="290.8467">OSAL</text><line style="stroke:#181818;stroke-width:0.5;" x1="22.5" x2="99.1572" y1="302" y2="302"/></g><a href="../features/analysis-infra/logging/modules/osal/index.html#logic_arc_int_op__osal__isenabled" target="_top" title="../features/analysis-infra/logging/modules/osal/index.html#logic_arc_int_op__osal__isenabled" xlink:actuate="onRequest" xlink:href="../features/analysis-infra/logging/modules/osal/index.html#logic_arc_int_op__osal__isenabled" xlink:show="new" xlink:title="../features/analysis-infra/logging/modules/osal/index.html#logic_arc_int_op__osal__isenabled" xlink:type="simple"><rect fill="#F1F1F1" height="10" style="stroke:transparent;stroke-width:1;" width="20" x="27.5" y="310.6484"/><ellipse cx="32.5" cy="315.6484" fill="#84BE84" rx="3" ry="3" style="stroke:#038048;stroke-width:1;"/></a></a><a href="../features/analysis-infra/logging/modules/osal/index.html#logic_arc_int_op__osal__isenabled" target="_top" title="../features/analysis-infra/logging/modules/osal/index.html#logic_arc_int_op__osal__isenabled" xlink:actuate="onRequest" xlink:href="../features/analysis-infra/logging/modules/osal/index.html#logic_arc_int_op__osal__isenabled" xlink:show="new" xlink:title="../features/analysis-infra/logging/modules/osal/index.html#logic_arc_int_op__osal__isenabled" xlink:type="simple"><text fill="#000000" font-family="sans-serif" font-size="14" lengthAdjust="spacing" textLength="52.6572" x="41.5" y="318.9951">OSAL ()</text></a><!--class logic_arc_int__baselibs__json--><a href="../features/communication/modules/baselibs/json_component_architecture.html#logic_arc_int__baselibs__json" target="_top" title="../features/communication/modules/baselibs/json_component_architecture.html#logic_arc_int__baselibs__json" xlink:actuate="onRequest" xlink:href="../features/communication/modules/baselibs/json_component_architecture.html#logic_arc_int__baselibs__json" xlink:show="new" xlink:title="../features/communication/modules/baselibs/json_component_architecture.html#logic_arc_int__baselibs__json" xlink:type="simple"><g id="elem_logic_arc_int__baselibs__json"><rect codeLine="50" fill="#F1F1F1" height="56.2969" id="logic_arc_int__baselibs__json" rx="2.5" ry="2.5" style="stroke:#181818;stroke-width:0.5;" width="115.3984" x="135.5" y="270"/><ellipse cx="150.5" cy="286" fill="#B4A7E5" rx="11" ry="11" style="stroke:#181818;stroke-width:1;"/><path d="M146.4219,281.7656 L146.4219,279.6094 L153.8125,279.6094 L153.8125,281.7656 L151.3438,281.7656 L151.3438,289.8438 L153.8125,289.8438 L153.8125,292 L146.4219,292 L146.4219,289.8438 L148.8906,289.8438 L148.8906,281.7656 L146.4219,281.7656 Z " fill="#000000"/><text fill="#000000" font-family="sans-serif" font-size="14" font-style="italic" lengthAdjust="spacing" textLength="83.3984" x="164.5" y="290.8467">JSON Parser</text><line style="stroke:#181818;stroke-width:0.5;" x1="136.5" x2="249.8984" y1="302" y2="302"/></g><a href="../features/communication/modules/baselibs/json_component_architecture.html#logic_arc_int_op__baselibs__fromfile" target="_top" title="../features/communication/modules/baselibs/json_component_architecture.html#logic_arc_int_op__baselibs__fromfile" xlink:actuate="onRequest" xlink:href="../features/communication/modules/baselibs/json_component_architecture.html#logic_arc_int_op__baselibs__fromfile" xlink:show="new" xlink:title="../features/communication/modules/baselibs/json_component_architecture.html#logic_arc_int_op__baselibs__fromfile" xlink:type="simple"><rect fill="#F1F1F1" height="10" style="stroke:transparent;stroke-width:1;" width="20" x="141.5" y="310.6484"/><ellipse cx="146.5" cy="315.6484" fill="#84BE84" rx="3" ry="3" style="stroke:#038048;stroke-width:1;"/></a></a><a href="../features/communication/modules/baselibs/json_component_architecture.html#logic_arc_int_op__baselibs__fromfile" target="_top" title="../features/communication/modules/baselibs/json_component_architecture.html#logic_arc_int_op__baselibs__fromfile" xlink:actuate="onRequest" xlink:href="../features/communication/modules/baselibs/json_component_architecture.html#logic_arc_int_op__baselibs__fromfile" xlink:show="new" xlink:title="../features/communication/modules/baselibs/json_component_architecture.html#logic_arc_int_op__baselibs__fromfile" xlink:type="simple"><text fill="#000000" font-family="sans-serif" font-size="14" lengthAdjust="spacing" textLength="54.0586" x="155.5" y="318.9951">Parse ()</text></a><!--class logic_arc_int__iam__iam--><a href="../features/analysis-infra/logging/modules/iam/index.html#logic_arc_int__iam__iam" target="_top" title="../features/analysis-infra/logging/modules/iam/index.html#logic_arc_int__iam__iam" xlink:actuate="onRequest" xlink:href="../features/analysis-infra/logging/modules/iam/index.html#logic_arc_int__iam__iam" xlink:show="new" xlink:title="../features/analysis-infra/logging/modules/iam/index.html#logic_arc_int__iam__iam" xlink:type="simple"><g id="elem_logic_arc_int__iam__iam"><rect codeLine="62" fill="#F1F1F1" height="40" id="logic_arc_int__iam__iam" rx="2.5" ry="2.5" style="stroke:#181818;stroke-width:0.5;" width="135.5371" x="288" y="278"/><ellipse cx="303" cy="294" fill="#B4A7E5" rx="11" ry="11" style="stroke:#181818;stroke-width:1;"/><path d="M298.9219,289.7656 L298.9219,287.6094 L306.3125,287.6094 L306.3125,289.7656 L303.8438,289.7656 L303.8438,297.8438 L306.3125,297.8438 L306.3125,300 L298.9219,300 L298.9219,297.8438 L301.3906,297.8438 L301.3906,289.7656 L298.9219,289.7656 Z " fill="#000000"/><text fill="#000000" font-family="sans-serif" font-size="14" font-style="italic" lengthAdjust="spacing" textLength="103.5371" x="317" y="298.8467">Access Control</text><line style="stroke:#181818;stroke-width:0.5;" x1="289" x2="422.5371" y1="310" y2="310"/></g></a><!--link comp_arc_sta__log__logging to logic_arc_int__osal__osal--><g id="link_comp_arc_sta__log__logging_logic_arc_int__osal__osal"><path codeLine="67" d="M80.87,191 C76.77,212.88 71.5876,240.5731 67.1776,264.0531 " fill="transparent" id="comp_arc_sta__log__logging-to-logic_arc_int__osal__osal" style="stroke:#008000;stroke-width:1;"/><polygon fill="#008000" points="66.07,269.95,71.6626,261.843,66.993,265.0359,63.8001,260.3663,66.07,269.95" style="stroke:#008000;stroke-width:1;"/><text fill="#000000" font-family="sans-serif" font-size="13" lengthAdjust="spacing" textLength="29.7832" x="76" y="236.0669">uses</text></g><!--reverse link logic_arc_int__baselibs__json to comp_arc_sta__baselibs__json--><g id="link_logic_arc_int__baselibs__json_comp_arc_sta__baselibs__json"><path codeLine="69" d="M193,332.31 C193,360.37 193,397.54 193,423.65 " fill="transparent" id="logic_arc_int__baselibs__json-backto-comp_arc_sta__baselibs__json" style="stroke:#181818;stroke-width:1;"/><polygon fill="#181818" points="193,326.31,189,335.31,193,331.31,197,335.31,193,326.31" style="stroke:#181818;stroke-width:1;"/><text fill="#000000" font-family="sans-serif" font-size="13" lengthAdjust="spacing" textLength="76.9082" x="194" y="369.0669">implements</text></g><!--reverse link logic_arc_int__osal__osal to comp_arc_sta__osal__osal--><g id="link_logic_arc_int__osal__osal_comp_arc_sta__osal__osal"><path codeLine="70" d="M61,332.31 C61,360.37 61,397.54 61,423.65 " fill="transparent" id="logic_arc_int__osal__osal-backto-comp_arc_sta__osal__osal" style="stroke:#181818;stroke-width:1;"/><polygon fill="#181818" points="61,326.31,57,335.31,61,331.31,65,335.31,61,326.31" style="stroke:#181818;stroke-width:1;"/><text fill="#000000" font-family="sans-serif" font-size="13" lengthAdjust="spacing" textLength="76.9082" x="62" y="369.0669">implements</text></g><!--link comp_arc_sta__log__logging to logic_arc_int__baselibs__json--><g id="link_comp_arc_sta__log__logging_logic_arc_int__baselibs__json"><path codeLine="71" d="M103.57,191 C122.02,212.88 146.4898,241.8851 166.3098,265.3651 " fill="transparent" id="comp_arc_sta__log__logging-to-logic_arc_int__baselibs__json" style="stroke:#008000;stroke-width:1;"/><polygon fill="#008000" points="170.18,269.95,167.4313,260.4925,166.9548,266.1292,161.3181,265.6528,170.18,269.95" style="stroke:#008000;stroke-width:1;"/><text fill="#000000" font-family="sans-serif" font-size="13" lengthAdjust="spacing" textLength="29.7832" x="144" y="236.0669">uses</text></g><!--link comp_arc_sta__log__daemon to logic_arc_int__osal__osal--><g id="link_comp_arc_sta__log__daemon_logic_arc_int__osal__osal"><path codeLine="72" d="M239.97,191.06 C224.82,206.13 203.37,225.84 182,240 C155.81,257.35 146.42,256.61 118,270 C112.35,272.66 111.8228,272.9023 105.9728,275.6723 " fill="transparent" id="comp_arc_sta__log__daemon-to-logic_arc_int__osal__osal" style="stroke:#008000;stroke-width:1;"/><polygon fill="#008000" points="100.55,278.24,110.396,278.0036,105.069,276.1002,106.9724,270.7732,100.55,278.24" style="stroke:#008000;stroke-width:1;"/><text fill="#000000" font-family="sans-serif" font-size="13" lengthAdjust="spacing" textLength="29.7832" x="204" y="236.0669">uses</text></g><!--reverse link logic_arc_int__iam__iam to comp_arc_sta__iam__iam--><g id="link_logic_arc_int__iam__iam_comp_arc_sta__iam__iam"><path codeLine="73" d="M356.3415,324.2194 C356.7115,351.4594 357.31,395.17 357.7,423.9 " fill="transparent" id="logic_arc_int__iam__iam-backto-comp_arc_sta__iam__iam" style="stroke:#181818;stroke-width:1;"/><polygon fill="#181818" points="356.26,318.22,352.3826,327.2735,356.3279,323.2195,360.3819,327.1648,356.26,318.22" style="stroke:#181818;stroke-width:1;"/><text fill="#000000" font-family="sans-serif" font-size="13" lengthAdjust="spacing" textLength="76.9082" x="358" y="369.0669">implements</text></g><!--link comp_arc_sta__log__daemon to logic_arc_int__iam__iam--><g id="link_comp_arc_sta__log__daemon_logic_arc_int__iam__iam"><path codeLine="74" d="M277.33,191 C295.47,215.45 320.9046,249.7117 338.1646,272.9717 " fill="transparent" id="comp_arc_sta__log__daemon-to-logic_arc_int__iam__iam" style="stroke:#008000;stroke-width:1;"/><polygon fill="#008000" points="341.74,277.79,339.5891,268.1789,338.7605,273.7747,333.1646,272.9461,341.74,277.79" style="stroke:#008000;stroke-width:1;"/><text fill="#000000" font-family="sans-serif" font-size="13" lengthAdjust="spacing" textLength="29.7832" x="312" y="236.0669">uses</text></g><!--reverse link logic_arc_int__log__daemon to comp_arc_sta__log__daemon--><g id="link_logic_arc_int__log__daemon_comp_arc_sta__log__daemon"><path codeLine="75" d="M261,53.04 C261,78.61 261,117.97 261,144.99 " fill="transparent" id="logic_arc_int__log__daemon-backto-comp_arc_sta__log__daemon" style="stroke:#181818;stroke-width:1;"/><polygon fill="#181818" points="261,47.04,257,56.04,261,52.04,265,56.04,261,47.04" style="stroke:#181818;stroke-width:1;"/><text fill="#000000" font-family="sans-serif" font-size="13" lengthAdjust="spacing" textLength="76.9082" x="262" y="90.0669">implements</text></g><!--reverse link logic_arc_int__log__logging to comp_arc_sta__log__logging--><g id="link_logic_arc_int__log__logging_comp_arc_sta__log__logging"><path codeLine="76" d="M85,53.04 C85,78.61 85,117.97 85,144.99 " fill="transparent" id="logic_arc_int__log__logging-backto-comp_arc_sta__log__logging" style="stroke:#181818;stroke-width:1;"/><polygon fill="#181818" points="85,47.04,81,56.04,85,52.04,89,56.04,85,47.04" style="stroke:#181818;stroke-width:1;"/><text fill="#000000" font-family="sans-serif" font-size="13" lengthAdjust="spacing" textLength="76.9082" x="86" y="90.0669">implements</text></g><!--SRC=[jPPTRvim58Rl-HLMUz5DKyAqoogAb7KtcwArKdSN8MJWX7Zr1y9cRJJrlyz000DsFZfwWu9iltxEuN40KogUGqPU24yz9JAa18g4KeAXXEGGAoAujoC98AaW1w7s6TJtm3ArHrYfd4I50kajfDfJM7fpB0cDq5zlJJZS2Ifo5D42gjjVEn8_SP0IVPb_zbwzXNzOv16kyxSu1dIr5ccgST0t34pmAuGbeY8bSOZpEDJpmb3VXc5I3IEqsSpd_XQmAdAGFkQOxYMHCyAtEVPfdUKpaHHK3pVtX2VmCjyfHg_TsK6Wg_2yL-JVe3uKkl6HZTa9UzZtVMWFqsou5MU6uoUS3YZr7k4V0i-XL7XgI7UsPjIGiM2PuC1Lzx1N3zyhh7AeAc-CjLXKPYsN_ytdtgJcwxLGazLjj50RYbeo3uQ-AtThwX3R5FM84lUFgxN51o4nhQyNsb0kSQlGnOv4Q47wHHeWR-pZaCYLR_ImP34wrzqQ9xxb7Pp8oJhdpAtF-QSQwyD7lSjqsuYisOb8u3YYa0H1CEf3gyzNB86II5eKYWv3tQzXG_IJO0KdCIxVCYrWCzjjqJXvPDEFn_kV5fkwbR_baPDv0gnS6xQRbUaxelIxKg-rATRVrD2iX3GqQtevKgsQzu1p2RdDk45H4zToTBD6nGhEukAqcvToTljlSy6sX4Bdfz6dWQQhE2u_Eku4LxcW5ba9PjNbmZEhLxWrRJ97Sbfe-iQqD6_yonjWsSCD4Vj0XfAs0KDCIo43NQRfgoFK_E2naHxvbfWbc-iq1-31REd-1xz5XGGvIXeSk5anpkXFkKM4PHIOVlewpVc2imMPCEwGisiRSjNrkRzTBkkJms9RNStWoQhE0EcoJfPZ8J76ps-nA-SmeH_q3m00]--></g></svg>