<svg xmlns="http://www.w3.org/2000/svg" xmlns:xlink="http://www.w3.org/1999/xlink" contentStyleType="text/css" data-diagram-type="CLASS" height="1031px" preserveAspectRatio="none" style="width:1069px;height:1031px;background:#FFFFFF;" version="1.1" viewBox="0 0 1069 1031" width="1069px" zoomAndPan="magnify"><defs/><g><!--cluster S-CORE Repo--><g id="cluster_S-CORE Repo"><path d="M176.319,130 L280.5211,130 A3.75,3.75 0 0 1 283.0211,132.5 L290.0211,152.2969 L478.319,152.2969 A2.5,2.5 0 0 1 480.819,154.7969 L480.819,340.5 A2.5,2.5 0 0 1 478.319,343 L176.319,343 A2.5,2.5 0 0 1 173.819,340.5 L173.819,132.5 A2.5,2.5 0 0 1 176.319,130 " fill="transparent" style="stroke:#000000;stroke-width:1.5;"/><line style="stroke:#000000;stroke-width:1.5;" x1="173.819" x2="290.0211" y1="152.2969" y2="152.2969"/><text fill="#000000" font-family="sans-serif" font-size="14" font-weight="bold" lengthAdjust="spacing" textLength="103.2021" x="177.819" y="144.9951">S-CORE Repo</text></g><!--cluster Feature Repo--><g id="cluster_Feature Repo"><path d="M231.319,408 L338.6725,408 A3.75,3.75 0 0 1 341.1725,410.5 L348.1725,430.2969 L533.319,430.2969 A2.5,2.5 0 0 1 535.819,432.7969 L535.819,618.5 A2.5,2.5 0 0 1 533.319,621 L231.319,621 A2.5,2.5 0 0 1 228.819,618.5 L228.819,410.5 A2.5,2.5 0 0 1 231.319,408 " fill="transparent" style="stroke:#000000;stroke-width:1.5;"/><line style="stroke:#000000;stroke-width:1.5;" x1="228.819" x2="348.1725" y1="430.2969" y2="430.2969"/><text fill="#000000" font-family="sans-serif" font-size="14" font-weight="bold" lengthAdjust="spacing" textLength="106.3535" x="232.819" y="422.9951">Feature Repo</text></g><!--cluster FeatureImplRepo1--><g id="cluster_FeatureImplRepo1"><path d="M13.319,670 L148.276,670 A3.75,3.75 0 0 1 150.776,672.5 L157.776,692.2969 L515.319,692.2969 A2.5,2.5 0 0 1 517.819,694.7969 L517.819,1021.5 A2.5,2.5 0 0 1 515.319,1024 L13.319,1024 A2.5,2.5 0 0 1 10.819,1021.5 L10.819,672.5 A2.5,2.5 0 0 1 13.319,670 " fill="transparent" style="stroke:#000000;stroke-width:1.5;"/><line style="stroke:#000000;stroke-width:1.5;" x1="10.819" x2="157.776" y1="692.2969" y2="692.2969"/><text fill="#000000" font-family="sans-serif" font-size="14" font-weight="bold" lengthAdjust="spacing" textLength="133.957" x="14.819" y="684.9951">SW-Module Repo</text></g><!--cluster FeatureImplRepo2--><g id="cluster_FeatureImplRepo2"><path d="M560.319,670 L695.276,670 A3.75,3.75 0 0 1 697.776,672.5 L704.776,692.2969 L1060.319,692.2969 A2.5,2.5 0 0 1 1062.819,694.7969 L1062.819,1021.5 A2.5,2.5 0 0 1 1060.319,1024 L560.319,1024 A2.5,2.5 0 0 1 557.819,1021.5 L557.819,672.5 A2.5,2.5 0 0 1 560.319,670 " fill="transparent" style="stroke:#000000;stroke-width:1.5;"/><line style="stroke:#000000;stroke-width:1.5;" x1="557.819" x2="704.776" y1="692.2969" y2="692.2969"/><text fill="#000000" font-family="sans-serif" font-size="14" font-weight="bold" lengthAdjust="spacing" textLength="133.957" x="561.819" y="684.9951">SW-Module Repo</text></g><!--class Platform--><g id="elem_Platform"><rect codeLine="3" fill="#F1F1F1" height="145.7813" id="Platform" rx="2.5" ry="2.5" style="stroke:#181818;stroke-width:0.5;" width="240.3682" x="216.819" y="173"/><ellipse cx="303.109" cy="189" fill="#ADD1B2" rx="11" ry="11" style="stroke:#181818;stroke-width:1;"/><path d="M306.0778,194.6406 Q305.4996,194.9375 304.859,195.0781 Q304.2184,195.2344 303.5153,195.2344 Q301.0153,195.2344 299.6871,193.5938 Q298.3746,191.9375 298.3746,188.8125 Q298.3746,185.6875 299.6871,184.0313 Q301.0153,182.375 303.5153,182.375 Q304.2184,182.375 304.859,182.5313 Q305.5153,182.6875 306.0778,182.9844 L306.0778,185.7031 Q305.4528,185.125 304.859,184.8594 Q304.2653,184.5781 303.6403,184.5781 Q302.2965,184.5781 301.609,185.6563 Q300.9215,186.7188 300.9215,188.8125 Q300.9215,190.9063 301.609,191.9844 Q302.2965,193.0469 303.6403,193.0469 Q304.2653,193.0469 304.859,192.7813 Q305.4528,192.5 306.0778,191.9219 L306.0778,194.6406 Z " fill="#000000"/><text fill="#000000" font-family="sans-serif" font-size="14" lengthAdjust="spacing" textLength="59.2881" x="323.609" y="193.8467">Platform</text><line style="stroke:#181818;stroke-width:0.5;" x1="217.819" x2="456.1871" y1="205" y2="205"/><ellipse cx="227.819" cy="218.6484" fill="transparent" rx="3" ry="3" style="stroke:#038048;stroke-width:1;"/><text fill="#000000" font-family="sans-serif" font-size="14" lengthAdjust="spacing" textLength="83.7129" x="236.819" y="221.9951">SEooC: bool</text><line style="stroke:#181818;stroke-width:1;" x1="217.819" x2="456.1871" y1="229.2969" y2="229.2969"/><text fill="#000000" font-family="sans-serif" font-size="14" lengthAdjust="spacing" textLength="73.6777" x="222.819" y="246.292">Objectives</text><text fill="#000000" font-family="sans-serif" font-size="14" lengthAdjust="spacing" textLength="186.9766" x="222.819" y="262.5889">Stakeholder Requirements</text><text fill="#000000" font-family="sans-serif" font-size="14" lengthAdjust="spacing" textLength="150.0625" x="222.819" y="278.8857">Platform Architecture</text><text fill="#000000" font-family="sans-serif" font-size="14" lengthAdjust="spacing" textLength="228.3682" x="222.819" y="295.1826">SW-Platform Assumptions of use</text><text fill="#000000" font-family="sans-serif" font-size="14" lengthAdjust="spacing" textLength="182.5742" x="222.819" y="311.4795">Platform Integration Tests</text></g><!--class Feature--><g id="elem_Feature"><rect codeLine="15" fill="#F1F1F1" height="145.7813" id="Feature" rx="2.5" ry="2.5" style="stroke:#181818;stroke-width:0.5;" width="239.5479" x="252.819" y="451"/><ellipse cx="341.3546" cy="467" fill="#ADD1B2" rx="11" ry="11" style="stroke:#181818;stroke-width:1;"/><path d="M344.3234,472.6406 Q343.7453,472.9375 343.1046,473.0781 Q342.464,473.2344 341.7609,473.2344 Q339.2609,473.2344 337.9328,471.5938 Q336.6203,469.9375 336.6203,466.8125 Q336.6203,463.6875 337.9328,462.0313 Q339.2609,460.375 341.7609,460.375 Q342.464,460.375 343.1046,460.5313 Q343.7609,460.6875 344.3234,460.9844 L344.3234,463.7031 Q343.6984,463.125 343.1046,462.8594 Q342.5109,462.5781 341.8859,462.5781 Q340.5421,462.5781 339.8546,463.6563 Q339.1671,464.7188 339.1671,466.8125 Q339.1671,468.9063 339.8546,469.9844 Q340.5421,471.0469 341.8859,471.0469 Q342.5109,471.0469 343.1046,470.7813 Q343.6984,470.5 344.3234,469.9219 L344.3234,472.6406 Z " fill="#000000"/><text fill="#000000" font-family="sans-serif" font-size="14" lengthAdjust="spacing" textLength="53.9766" x="361.8546" y="471.8467">Feature</text><line style="stroke:#181818;stroke-width:0.5;" x1="253.819" x2="491.3668" y1="483" y2="483"/><ellipse cx="263.819" cy="496.6484" fill="transparent" rx="3" ry="3" style="stroke:#038048;stroke-width:1;"/><text fill="#000000" font-family="sans-serif" font-size="14" lengthAdjust="spacing" textLength="83.7129" x="272.819" y="499.9951">SEooC: bool</text><line style="stroke:#181818;stroke-width:1;" x1="253.819" x2="491.3668" y1="507.2969" y2="507.2969"/><text fill="#000000" font-family="sans-serif" font-size="14" lengthAdjust="spacing" textLength="156.6934" x="258.819" y="524.292">Feature Requirements</text><text fill="#000000" font-family="sans-serif" font-size="14" lengthAdjust="spacing" textLength="144.751" x="258.819" y="540.5889">Feature Architecture</text><text fill="#000000" font-family="sans-serif" font-size="14" lengthAdjust="spacing" textLength="177.2627" x="258.819" y="556.8857">Feature Integration Tests</text><text fill="#000000" font-family="sans-serif" font-size="14" lengthAdjust="spacing" textLength="227.5479" x="258.819" y="573.1826">Feature Safety/Security Analysis</text><text fill="#000000" font-family="sans-serif" font-size="14" lengthAdjust="spacing" textLength="195.2754" x="258.819" y="589.4795">Feature Assumptions of use</text></g><g id="elem_N1"><path d="M441.819,765 L441.819,790.1328 L493.6813,790.1328 L493.6813,775 L483.6813,765 L441.819,765 " fill="#FEFFDD" style="stroke:#181818;stroke-width:0.5;"/><path d="M483.6813,765 L483.6813,775 L493.6813,775 L483.6813,765 " fill="#FEFFDD" style="stroke:#181818;stroke-width:1;"/><text fill="#000000" font-family="sans-serif" font-size="13" lengthAdjust="spacing" textLength="30.8623" x="447.819" y="782.0669">C++</text></g><!--class ComponentCpp--><g id="elem_ComponentCpp"><rect codeLine="31" fill="#F1F1F1" height="129.4844" id="ComponentCpp" rx="2.5" ry="2.5" style="stroke:#181818;stroke-width:0.5;" width="266.8506" x="54.319" y="713"/><ellipse cx="142.8546" cy="729" fill="#ADD1B2" rx="11" ry="11" style="stroke:#181818;stroke-width:1;"/><path d="M145.8234,734.6406 Q145.2453,734.9375 144.6046,735.0781 Q143.964,735.2344 143.2609,735.2344 Q140.7609,735.2344 139.4328,733.5938 Q138.1203,731.9375 138.1203,728.8125 Q138.1203,725.6875 139.4328,724.0313 Q140.7609,722.375 143.2609,722.375 Q143.964,722.375 144.6046,722.5313 Q145.2609,722.6875 145.8234,722.9844 L145.8234,725.7031 Q145.1984,725.125 144.6046,724.8594 Q144.0109,724.5781 143.3859,724.5781 Q142.0421,724.5781 141.3546,725.6563 Q140.6671,726.7188 140.6671,728.8125 Q140.6671,730.9063 141.3546,731.9844 Q142.0421,733.0469 143.3859,733.0469 Q144.0109,733.0469 144.6046,732.7813 Q145.1984,732.5 145.8234,731.9219 L145.8234,734.6406 Z " fill="#000000"/><text fill="#000000" font-family="sans-serif" font-size="14" lengthAdjust="spacing" textLength="81.2793" x="163.3546" y="733.8467">Component</text><line style="stroke:#181818;stroke-width:0.5;" x1="55.319" x2="320.1696" y1="745" y2="745"/><line style="stroke:#181818;stroke-width:1;" x1="55.319" x2="320.1696" y1="753" y2="753"/><text fill="#000000" font-family="sans-serif" font-size="14" lengthAdjust="spacing" textLength="183.9961" x="60.319" y="769.9951">Component Requirements</text><text fill="#000000" font-family="sans-serif" font-size="14" lengthAdjust="spacing" textLength="172.0537" x="60.319" y="786.292">Component Architecture</text><text fill="#000000" font-family="sans-serif" font-size="14" lengthAdjust="spacing" textLength="204.5654" x="60.319" y="802.5889">Component Integration Tests</text><text fill="#000000" font-family="sans-serif" font-size="14" lengthAdjust="spacing" textLength="254.8506" x="60.319" y="818.8857">Component Safety/Security Analysis</text><text fill="#000000" font-family="sans-serif" font-size="14" lengthAdjust="spacing" textLength="215.2842" x="60.319" y="835.1826">Component Assumption of use</text></g><!--class UnitCpp--><g id="elem_UnitCpp"><rect codeLine="40" fill="#F1F1F1" height="96.8906" id="UnitCpp" rx="2.5" ry="2.5" style="stroke:#181818;stroke-width:0.5;" width="123.5283" x="125.819" y="903"/><ellipse cx="169.1822" cy="919" fill="#ADD1B2" rx="11" ry="11" style="stroke:#181818;stroke-width:1;"/><path d="M172.1509,924.6406 Q171.5728,924.9375 170.9322,925.0781 Q170.2915,925.2344 169.5884,925.2344 Q167.0884,925.2344 165.7603,923.5938 Q164.4478,921.9375 164.4478,918.8125 Q164.4478,915.6875 165.7603,914.0313 Q167.0884,912.375 169.5884,912.375 Q170.2915,912.375 170.9322,912.5313 Q171.5884,912.6875 172.1509,912.9844 L172.1509,915.7031 Q171.5259,915.125 170.9322,914.8594 Q170.3384,914.5781 169.7134,914.5781 Q168.3697,914.5781 167.6822,915.6563 Q166.9947,916.7188 166.9947,918.8125 Q166.9947,920.9063 167.6822,921.9844 Q168.3697,923.0469 169.7134,923.0469 Q170.3384,923.0469 170.9322,922.7813 Q171.5259,922.5 172.1509,921.9219 L172.1509,924.6406 Z " fill="#000000"/><text fill="#000000" font-family="sans-serif" font-size="14" lengthAdjust="spacing" textLength="28.499" x="189.4851" y="923.8467">Unit</text><line style="stroke:#181818;stroke-width:0.5;" x1="126.819" x2="248.3473" y1="935" y2="935"/><line style="stroke:#181818;stroke-width:1;" x1="126.819" x2="248.3473" y1="943" y2="943"/><text fill="#000000" font-family="sans-serif" font-size="14" lengthAdjust="spacing" textLength="111.5283" x="131.819" y="959.9951">Detailed Design</text><text fill="#000000" font-family="sans-serif" font-size="14" lengthAdjust="spacing" textLength="88.6826" x="131.819" y="976.292">Source Code</text><text fill="#000000" font-family="sans-serif" font-size="14" lengthAdjust="spacing" textLength="62.8975" x="131.819" y="992.5889">Unit Test</text></g><g id="elem_N2"><path d="M969.819,765 L969.819,790.1328 L1019.9611,790.1328 L1019.9611,775 L1009.9611,765 L969.819,765 " fill="#FEFFDD" style="stroke:#181818;stroke-width:0.5;"/><path d="M1009.9611,765 L1009.9611,775 L1019.9611,775 L1009.9611,765 " fill="#FEFFDD" style="stroke:#181818;stroke-width:1;"/><text fill="#000000" font-family="sans-serif" font-size="13" lengthAdjust="spacing" textLength="29.1421" x="975.819" y="782.0669">Rust</text></g><!--class ComponentRust--><g id="elem_ComponentRust"><rect codeLine="53" fill="#F1F1F1" height="129.4844" id="ComponentRust" rx="2.5" ry="2.5" style="stroke:#181818;stroke-width:0.5;" width="266.8506" x="582.319" y="713"/><ellipse cx="670.8546" cy="729" fill="#ADD1B2" rx="11" ry="11" style="stroke:#181818;stroke-width:1;"/><path d="M673.8234,734.6406 Q673.2453,734.9375 672.6046,735.0781 Q671.964,735.2344 671.2609,735.2344 Q668.7609,735.2344 667.4328,733.5938 Q666.1203,731.9375 666.1203,728.8125 Q666.1203,725.6875 667.4328,724.0313 Q668.7609,722.375 671.2609,722.375 Q671.964,722.375 672.6046,722.5313 Q673.2609,722.6875 673.8234,722.9844 L673.8234,725.7031 Q673.1984,725.125 672.6046,724.8594 Q672.0109,724.5781 671.3859,724.5781 Q670.0421,724.5781 669.3546,725.6563 Q668.6671,726.7188 668.6671,728.8125 Q668.6671,730.9063 669.3546,731.9844 Q670.0421,733.0469 671.3859,733.0469 Q672.0109,733.0469 672.6046,732.7813 Q673.1984,732.5 673.8234,731.9219 L673.8234,734.6406 Z " fill="#000000"/><text fill="#000000" font-family="sans-serif" font-size="14" lengthAdjust="spacing" textLength="81.2793" x="691.3546" y="733.8467">Component</text><line style="stroke:#181818;stroke-width:0.5;" x1="583.319" x2="848.1696" y1="745" y2="745"/><line style="stroke:#181818;stroke-width:1;" x1="583.319" x2="848.1696" y1="753" y2="753"/><text fill="#000000" font-family="sans-serif" font-size="14" lengthAdjust="spacing" textLength="183.9961" x="588.319" y="769.9951">Component Requirements</text><text fill="#000000" font-family="sans-serif" font-size="14" lengthAdjust="spacing" textLength="172.0537" x="588.319" y="786.292">Component Architecture</text><text fill="#000000" font-family="sans-serif" font-size="14" lengthAdjust="spacing" textLength="204.5654" x="588.319" y="802.5889">Component Integration Tests</text><text fill="#000000" font-family="sans-serif" font-size="14" lengthAdjust="spacing" textLength="254.8506" x="588.319" y="818.8857">Component Safety/Security Analysis</text><text fill="#000000" font-family="sans-serif" font-size="14" lengthAdjust="spacing" textLength="215.2842" x="588.319" y="835.1826">Component Assumption of use</text></g><!--class UnitRust--><g id="elem_UnitRust"><rect codeLine="62" fill="#F1F1F1" height="96.8906" id="UnitRust" rx="2.5" ry="2.5" style="stroke:#181818;stroke-width:0.5;" width="123.5283" x="653.819" y="903"/><ellipse cx="697.1822" cy="919" fill="#ADD1B2" rx="11" ry="11" style="stroke:#181818;stroke-width:1;"/><path d="M700.1509,924.6406 Q699.5728,924.9375 698.9322,925.0781 Q698.2915,925.2344 697.5884,925.2344 Q695.0884,925.2344 693.7603,923.5938 Q692.4478,921.9375 692.4478,918.8125 Q692.4478,915.6875 693.7603,914.0313 Q695.0884,912.375 697.5884,912.375 Q698.2915,912.375 698.9322,912.5313 Q699.5884,912.6875 700.1509,912.9844 L700.1509,915.7031 Q699.5259,915.125 698.9322,914.8594 Q698.3384,914.5781 697.7134,914.5781 Q696.3697,914.5781 695.6822,915.6563 Q694.9947,916.7188 694.9947,918.8125 Q694.9947,920.9063 695.6822,921.9844 Q696.3697,923.0469 697.7134,923.0469 Q698.3384,923.0469 698.9322,922.7813 Q699.5259,922.5 700.1509,921.9219 L700.1509,924.6406 Z " fill="#000000"/><text fill="#000000" font-family="sans-serif" font-size="14" lengthAdjust="spacing" textLength="28.499" x="717.4851" y="923.8467">Unit</text><line style="stroke:#181818;stroke-width:0.5;" x1="654.819" x2="776.3473" y1="935" y2="935"/><line style="stroke:#181818;stroke-width:1;" x1="654.819" x2="776.3473" y1="943" y2="943"/><text fill="#000000" font-family="sans-serif" font-size="14" lengthAdjust="spacing" textLength="111.5283" x="659.819" y="959.9951">Detailed Design</text><text fill="#000000" font-family="sans-serif" font-size="14" lengthAdjust="spacing" textLength="88.6826" x="659.819" y="976.292">Source Code</text><text fill="#000000" font-family="sans-serif" font-size="14" lengthAdjust="spacing" textLength="62.8975" x="659.819" y="992.5889">Unit Test</text></g><path d="M330.319,6 L464.9205,6 A3.75,3.75 0 0 1 467.4205,8.5 L474.4205,28.2969 L478.9205,28.2969 A2.5,2.5 0 0 1 481.4205,30.7969 L481.4205,56.0938 A2.5,2.5 0 0 1 478.9205,58.5938 L330.319,58.5938 A2.5,2.5 0 0 1 327.819,56.0938 L327.819,8.5 A2.5,2.5 0 0 1 330.319,6 " fill="#F1F1F1" style="stroke:#181818;stroke-width:0.5;"/><line style="stroke:#181818;stroke-width:0.5;" x1="327.819" x2="474.4205" y1="28.2969" y2="28.2969"/><text fill="#000000" font-family="sans-serif" font-size="14" font-weight="bold" lengthAdjust="spacing" textLength="133.6016" x="331.819" y="20.9951">Integration Repo</text><!--link Integration Repo to S-CORE Repo--><g id="link_Integration Repo_S-CORE Repo"><path codeLine="74" d="M327.789,44.54 C283.859,54.96 231.599,75.11 200.819,114 C198.5727,116.8381 196.531,119.8229 194.677,122.9255 C193.7501,124.4768 192.8701,126.0576 192.0349,127.6642 C191.8262,128.0659 191.6202,128.4692 191.417,128.874 C191.3154,129.0764 193.8686,123.8982 193.7684,124.1014 " fill="transparent" id="Integration Repo-to-S-CORE Repo" style="stroke:#181818;stroke-width:1;stroke-dasharray:7.0,7.0;"/><polygon fill="#181818" points="191.1143,129.4824,198.6828,123.1803,193.326,124.9982,191.5081,119.6414,191.1143,129.4824" style="stroke:#181818;stroke-width:1;"/><text fill="#000000" font-family="sans-serif" font-size="13" lengthAdjust="spacing" textLength="82.3418" x="225.819" y="102.0669">derives from</text></g><!--link Integration Repo to Feature Repo--><g id="link_Integration Repo_Feature Repo"><path codeLine="75" d="M433.079,59.1 C447.379,73.73 463.619,93.26 472.819,114 C509.719,197.175 523.544,298.4825 528.1065,379.4625 C528.3916,384.5237 528.6406,389.5056 528.8568,394.3986 C528.9649,396.8452 529.0647,399.2695 529.1568,401.6705 C529.2029,402.8709 529.247,404.0656 529.2892,405.2542 C529.3103,405.8485 529.1264,422.7417 529.1466,423.333 " fill="transparent" id="Integration Repo-to-Feature Repo" style="stroke:#181818;stroke-width:1;stroke-dasharray:7.0,7.0;"/><polygon fill="#181818" points="529.3511,429.3295,533.042,420.1984,529.1807,424.3324,525.0467,420.4711,529.3511,429.3295" style="stroke:#181818;stroke-width:1;"/><text fill="#000000" font-family="sans-serif" font-size="13" lengthAdjust="spacing" textLength="29.7832" x="526.819" y="250.5669">uses</text></g><!--link Integration Repo to FeatureImplRepo1--><g id="link_Integration Repo_FeatureImplRepo1"><path codeLine="76" d="M327.589,36.05 C271.889,42.53 200.619,61.43 165.819,114 C83.229,238.765 46.4065,402.7875 30.2677,536.4113 C26.233,569.8172 23.4911,601.3232 21.6499,629.8409 C21.1896,636.9703 20.7857,643.913 20.4318,650.6519 C20.2549,654.0213 20.0906,657.3398 19.938,660.6053 C19.8617,662.238 19.7884,663.8574 19.7179,665.4633 C19.6826,666.2663 19.9028,661.0713 19.869,661.8674 " fill="transparent" id="Integration Repo-to-FeatureImplRepo1" style="stroke:#181818;stroke-width:1;stroke-dasharray:7.0,7.0;"/><polygon fill="#181818" points="19.6142,667.862,23.9928,659.04,19.8265,662.8665,16,658.7003,19.6142,667.862" style="stroke:#181818;stroke-width:1;"/><text fill="#000000" font-family="sans-serif" font-size="13" lengthAdjust="spacing" textLength="29.7832" x="61.819" y="380.0669">uses</text></g><!--link Integration Repo to FeatureImplRepo2--><g id="link_Integration Repo_FeatureImplRepo2"><path codeLine="77" d="M469.289,59.02 C499.879,72.81 535.949,91.6 564.819,114 C816.439,309.22 901.449,365.27 1035.819,654 C1037.249,657.0731 1038.575,660.2318 1039.8043,663.4539 C1040.419,665.0649 1041.0095,666.6918 1041.5767,668.3317 C1041.7186,668.7417 1039.94,685.7645 1040.0789,686.1761 " fill="transparent" id="Integration Repo-to-FeatureImplRepo2" style="stroke:#181818;stroke-width:1;stroke-dasharray:7.0,7.0;"/><polygon fill="#181818" points="1041.9979,691.861,1042.9094,682.0544,1040.3988,687.1236,1035.3296,684.6129,1041.9979,691.861" style="stroke:#181818;stroke-width:1;"/><text fill="#000000" font-family="sans-serif" font-size="13" lengthAdjust="spacing" textLength="29.7832" x="874.819" y="380.0669">uses</text></g><!--reverse link Platform to Feature--><g id="link_Platform_Feature"><path codeLine="80" d="M347.7809,331.0592 C353.0709,371.6192 358.109,410.21 363.399,450.79 " fill="transparent" id="Platform-backto-Feature" style="stroke:#181818;stroke-width:1;"/><polygon fill="#181818" points="346.229,319.16,343.0385,325.6269,347.7809,331.0592,350.9714,324.5923,346.229,319.16" style="stroke:#181818;stroke-width:1;"/><text fill="#000000" font-family="sans-serif" font-size="13" lengthAdjust="spacing" textLength="8.271" x="338.74" y="338.9316">1</text><text fill="#000000" font-family="sans-serif" font-size="13" lengthAdjust="spacing" textLength="8.2393" x="354.112" y="439.9293">n</text></g><!--reverse link Feature to ComponentCpp--><g id="link_Feature_ComponentCpp"><path codeLine="81" d="M312.6981,606.7362 C285.7881,643.3162 260.509,677.69 234.539,712.98 " fill="transparent" id="Feature-backto-ComponentCpp" style="stroke:#181818;stroke-width:1;"/><polygon fill="transparent" points="319.809,597.07,313.0315,599.5328,312.6981,606.7362,319.4756,604.2734,319.809,597.07" style="stroke:#181818;stroke-width:1;"/><text fill="#000000" font-family="sans-serif" font-size="13" lengthAdjust="spacing" textLength="8.271" x="306.4097" y="616.833">1</text><text fill="#000000" font-family="sans-serif" font-size="13" lengthAdjust="spacing" textLength="8.2393" x="231.2327" y="702.1505">n</text></g><!--reverse link Feature to ComponentRust--><g id="link_Feature_ComponentRust"><path codeLine="82" d="M457.8209,605.2164 C473.3009,618.8964 480.779,624.78 496.819,637 C531.789,663.63 571.879,690.21 608.129,712.92 " fill="transparent" id="Feature-backto-ComponentRust" style="stroke:#181818;stroke-width:1;"/><polygon fill="transparent" points="448.829,597.27,450.6762,604.2405,457.8209,605.2164,455.9737,598.2459,448.829,597.27" style="stroke:#181818;stroke-width:1;"/><text fill="#000000" font-family="sans-serif" font-size="13" lengthAdjust="spacing" textLength="8.271" x="447.5007" y="616.7991">1</text><text fill="#000000" font-family="sans-serif" font-size="13" lengthAdjust="spacing" textLength="8.2393" x="587.9341" y="702.0839">n</text></g><!--reverse link ComponentCpp to ComponentCpp--><g id="link_ComponentCpp_ComponentCpp"><path codeLine="83" d="M333.5666,762.7938 C354.1966,765.2238 356.319,769.19 356.319,777.5 C356.319,785.81 342.279,791.18 321.649,793.61 " fill="transparent" id="ComponentCpp-backto-ComponentCpp" style="stroke:#181818;stroke-width:1;"/><polygon fill="transparent" points="321.649,761.39,327.1399,766.0644,333.5666,762.7938,328.0757,758.1193,321.649,761.39" style="stroke:#181818;stroke-width:1;"/><text fill="#000000" font-family="sans-serif" font-size="13" lengthAdjust="spacing" textLength="55.0278" x="362.319" y="782.0669">contains</text><text fill="#000000" font-family="sans-serif" font-size="13" lengthAdjust="spacing" textLength="8.271" x="329.1981" y="757.1561">1</text><text fill="#000000" font-family="sans-serif" font-size="13" lengthAdjust="spacing" textLength="8.2393" x="329.1972" y="791.1381">n</text></g><!--reverse link ComponentRust to ComponentRust--><g id="link_ComponentRust_ComponentRust"><path codeLine="84" d="M861.5666,762.7938 C882.1966,765.2238 884.319,769.19 884.319,777.5 C884.319,785.81 870.279,791.18 849.649,793.61 " fill="transparent" id="ComponentRust-backto-ComponentRust" style="stroke:#181818;stroke-width:1;"/><polygon fill="transparent" points="849.649,761.39,855.1399,766.0644,861.5666,762.7938,856.0757,758.1193,849.649,761.39" style="stroke:#181818;stroke-width:1;"/><text fill="#000000" font-family="sans-serif" font-size="13" lengthAdjust="spacing" textLength="55.0278" x="890.319" y="782.0669">contains</text><text fill="#000000" font-family="sans-serif" font-size="13" lengthAdjust="spacing" textLength="8.271" x="857.1981" y="757.1561">1</text><text fill="#000000" font-family="sans-serif" font-size="13" lengthAdjust="spacing" textLength="8.2393" x="857.1972" y="791.1381">n</text></g><!--reverse link ComponentCpp to UnitCpp--><g id="link_ComponentCpp_UnitCpp"><path codeLine="85" d="M187.819,854.06 C187.819,874.15 187.819,884.01 187.819,902.8 " fill="transparent" id="ComponentCpp-backto-UnitCpp" style="stroke:#181818;stroke-width:1;"/><polygon fill="transparent" points="187.819,842.06,183.819,848.06,187.819,854.06,191.819,848.06,187.819,842.06" style="stroke:#181818;stroke-width:1;"/><text fill="#000000" font-family="sans-serif" font-size="13" lengthAdjust="spacing" textLength="8.271" x="179.3808" y="862.4385">1</text><text fill="#000000" font-family="sans-serif" font-size="13" lengthAdjust="spacing" textLength="8.2393" x="179.3065" y="891.9808">n</text></g><!--reverse link ComponentRust to UnitRust--><g id="link_ComponentRust_UnitRust"><path codeLine="86" d="M715.819,854.06 C715.819,874.15 715.819,884.01 715.819,902.8 " fill="transparent" id="ComponentRust-backto-UnitRust" style="stroke:#181818;stroke-width:1;"/><polygon fill="transparent" points="715.819,842.06,711.819,848.06,715.819,854.06,719.819,848.06,715.819,842.06" style="stroke:#181818;stroke-width:1;"/><text fill="#000000" font-family="sans-serif" font-size="13" lengthAdjust="spacing" textLength="8.271" x="707.3808" y="862.4385">1</text><text fill="#000000" font-family="sans-serif" font-size="13" lengthAdjust="spacing" textLength="8.2393" x="707.3065" y="891.9808">n</text></g><!--SRC=[rLHDRzim3BtxLn2-35ZW3ianXm65rm8zR2tY3JkhDfDebKLDaWS4G__x9DdoH-nqNwUUREkHZtpF8XKhdzW18Iso_7vt0pjKbCBF1A0Kp1Xu4CpkITVX2605nGrHleL78X5EiYmyxX-_OMdv3pJXix3i2OyaAjIEydl3DTOeRGlsdDUwF7BhyXgDRThNR02DQMfbEKa3j8V6u3JvJbeyQEO3u3EQmFsSF2U9Yf9kaNdccQPu_Xj9G_fP_n6OjH-1fTO6j61xjATt1PQDvlO4rvA9a-5dt4lgf_ASMH-fQaGKo7fbTxKI_cmT94gowC5Fwr0XNwtS4sKLWAHt9SsfLYIToa3LV-LATKvrllJ8t9a1cdapGClk3FYB_emgz0wD3HhaV96yLU9VPY8-e6LSOELU33_8zlPHeqjq9QgsPPyOElm7wpTJwpU1SDS4hZ_ttYUyVlFdAlxF_R66EDiEVmCFNSGEHK3DaIkJBCHVNRq_stXRSAlAho_OQwelvanNojOhlrXWDen_5Rw9uKxNL4-_0TDr2c-p35APnkmaDkWnwh3nAByS42xePF8lyRZkIfBkBqgJJA_hHUB5bA56rQPqqxf8EWe9dVu2]--></g></svg>