<svg xmlns="http://www.w3.org/2000/svg" xmlns:xlink="http://www.w3.org/1999/xlink" contentStyleType="text/css" data-diagram-type="CLASS" height="322px" preserveAspectRatio="none" style="width:6203px;height:322px;background:#FFFFFF;" version="1.1" viewBox="0 0 6203 322" width="6203px" zoomAndPan="magnify"><defs/><g><!--entity Feature_User--><g id="elem_Feature_User"><ellipse cx="3033.1685" cy="14" fill="#F1F1F1" rx="8" ry="8" style="stroke:#181818;stroke-width:0.5;"/><path d="M3033.1685,22 L3033.1685,49 M3020.1685,30 L3046.1685,30 M3033.1685,49 L3020.1685,64 M3033.1685,49 L3046.1685,64 " fill="transparent" style="stroke:#181818;stroke-width:0.5;"/><text fill="#000000" font-family="sans-serif" font-size="14" lengthAdjust="spacing" textLength="90.3369" x="2988" y="78.4951">Feature User</text></g><!--class comp_arc_sta__baselibs__containers--><g id="elem_comp_arc_sta__baselibs__containers"><rect fill="#F1F1F1" height="40" id="comp_arc_sta__baselibs__containers" rx="2.5" ry="2.5" style="stroke:#181818;stroke-width:0.5;" width="287.1445" x="4696.5" y="275.5"/><ellipse cx="4711.5" cy="291.5" fill="#ADD1B2" rx="11" ry="11" style="stroke:#181818;stroke-width:1;"/><path d="M4714.4688,297.1406 Q4713.8906,297.4375 4713.25,297.5781 Q4712.6094,297.7344 4711.9063,297.7344 Q4709.4063,297.7344 4708.0781,296.0938 Q4706.7656,294.4375 4706.7656,291.3125 Q4706.7656,288.1875 4708.0781,286.5313 Q4709.4063,284.875 4711.9063,284.875 Q4712.6094,284.875 4713.25,285.0313 Q4713.9063,285.1875 4714.4688,285.4844 L4714.4688,288.2031 Q4713.8438,287.625 4713.25,287.3594 Q4712.6563,287.0781 4712.0313,287.0781 Q4710.6875,287.0781 4710,288.1563 Q4709.3125,289.2188 4709.3125,291.3125 Q4709.3125,293.4063 4710,294.4844 Q4710.6875,295.5469 4712.0313,295.5469 Q4712.6563,295.5469 4713.25,295.2813 Q4713.8438,295 4714.4688,294.4219 L4714.4688,297.1406 Z " fill="#000000"/><text fill="#000000" font-family="sans-serif" font-size="14" lengthAdjust="spacing" textLength="255.1445" x="4725.5" y="296.3467">comp_arc_sta__baselibs__containers</text><line style="stroke:#181818;stroke-width:0.5;" x1="4697.5" x2="4982.6445" y1="307.5" y2="307.5"/></g><!--class logic_arc_int__baselibs__dynamic_array--><g id="elem_logic_arc_int__baselibs__dynamic_array"><rect fill="#F1F1F1" height="40" id="logic_arc_int__baselibs__dynamic_array" rx="2.5" ry="2.5" style="stroke:#181818;stroke-width:0.5;" width="308.3496" x="4853" y="158.5"/><ellipse cx="4868" cy="174.5" fill="#ADD1B2" rx="11" ry="11" style="stroke:#181818;stroke-width:1;"/><path d="M4870.9688,180.1406 Q4870.3906,180.4375 4869.75,180.5781 Q4869.1094,180.7344 4868.4063,180.7344 Q4865.9063,180.7344 4864.5781,179.0938 Q4863.2656,177.4375 4863.2656,174.3125 Q4863.2656,171.1875 4864.5781,169.5313 Q4865.9063,167.875 4868.4063,167.875 Q4869.1094,167.875 4869.75,168.0313 Q4870.4063,168.1875 4870.9688,168.4844 L4870.9688,171.2031 Q4870.3438,170.625 4869.75,170.3594 Q4869.1563,170.0781 4868.5313,170.0781 Q4867.1875,170.0781 4866.5,171.1563 Q4865.8125,172.2188 4865.8125,174.3125 Q4865.8125,176.4063 4866.5,177.4844 Q4867.1875,178.5469 4868.5313,178.5469 Q4869.1563,178.5469 4869.75,178.2813 Q4870.3438,178 4870.9688,177.4219 L4870.9688,180.1406 Z " fill="#000000"/><text fill="#000000" font-family="sans-serif" font-size="14" lengthAdjust="spacing" textLength="276.3496" x="4882" y="179.3467">logic_arc_int__baselibs__dynamic_array</text><line style="stroke:#181818;stroke-width:0.5;" x1="4854" x2="5160.3496" y1="190.5" y2="190.5"/></g><!--class comp_arc_sta__baselibs__utils--><g id="elem_comp_arc_sta__baselibs__utils"><rect fill="#F1F1F1" height="40" id="comp_arc_sta__baselibs__utils" rx="2.5" ry="2.5" style="stroke:#181818;stroke-width:0.5;" width="242.9502" x="5335.5" y="275.5"/><ellipse cx="5350.5" cy="291.5" fill="#ADD1B2" rx="11" ry="11" style="stroke:#181818;stroke-width:1;"/><path d="M5353.4688,297.1406 Q5352.8906,297.4375 5352.25,297.5781 Q5351.6094,297.7344 5350.9063,297.7344 Q5348.4063,297.7344 5347.0781,296.0938 Q5345.7656,294.4375 5345.7656,291.3125 Q5345.7656,288.1875 5347.0781,286.5313 Q5348.4063,284.875 5350.9063,284.875 Q5351.6094,284.875 5352.25,285.0313 Q5352.9063,285.1875 5353.4688,285.4844 L5353.4688,288.2031 Q5352.8438,287.625 5352.25,287.3594 Q5351.6563,287.0781 5351.0313,287.0781 Q5349.6875,287.0781 5349,288.1563 Q5348.3125,289.2188 5348.3125,291.3125 Q5348.3125,293.4063 5349,294.4844 Q5349.6875,295.5469 5351.0313,295.5469 Q5351.6563,295.5469 5352.25,295.2813 Q5352.8438,295 5353.4688,294.4219 L5353.4688,297.1406 Z " fill="#000000"/><text fill="#000000" font-family="sans-serif" font-size="14" lengthAdjust="spacing" textLength="210.9502" x="5364.5" y="296.3467">comp_arc_sta__baselibs__utils</text><line style="stroke:#181818;stroke-width:0.5;" x1="5336.5" x2="5577.4502" y1="307.5" y2="307.5"/></g><!--class logic_arc_int__baselibs__utils_scoped_op--><g id="elem_logic_arc_int__baselibs__utils_scoped_op"><rect fill="#F1F1F1" height="40" id="logic_arc_int__baselibs__utils_scoped_op" rx="2.5" ry="2.5" style="stroke:#181818;stroke-width:0.5;" width="315.377" x="5523.5" y="158.5"/><ellipse cx="5538.5" cy="174.5" fill="#ADD1B2" rx="11" ry="11" style="stroke:#181818;stroke-width:1;"/><path d="M5541.4688,180.1406 Q5540.8906,180.4375 5540.25,180.5781 Q5539.6094,180.7344 5538.9063,180.7344 Q5536.4063,180.7344 5535.0781,179.0938 Q5533.7656,177.4375 5533.7656,174.3125 Q5533.7656,171.1875 5535.0781,169.5313 Q5536.4063,167.875 5538.9063,167.875 Q5539.6094,167.875 5540.25,168.0313 Q5540.9063,168.1875 5541.4688,168.4844 L5541.4688,171.2031 Q5540.8438,170.625 5540.25,170.3594 Q5539.6563,170.0781 5539.0313,170.0781 Q5537.6875,170.0781 5537,171.1563 Q5536.3125,172.2188 5536.3125,174.3125 Q5536.3125,176.4063 5537,177.4844 Q5537.6875,178.5469 5539.0313,178.5469 Q5539.6563,178.5469 5540.25,178.2813 Q5540.8438,178 5541.4688,177.4219 L5541.4688,180.1406 Z " fill="#000000"/><text fill="#000000" font-family="sans-serif" font-size="14" lengthAdjust="spacing" textLength="283.377" x="5552.5" y="179.3467">logic_arc_int__baselibs__utils_scoped_op</text><line style="stroke:#181818;stroke-width:0.5;" x1="5524.5" x2="5837.877" y1="190.5" y2="190.5"/></g><!--class logic_arc_int__baselibs__task_result--><g id="elem_logic_arc_int__baselibs__task_result"><rect fill="#F1F1F1" height="40" id="logic_arc_int__baselibs__task_result" rx="2.5" ry="2.5" style="stroke:#181818;stroke-width:0.5;" width="280.9307" x="1916.5" y="158.5"/><ellipse cx="1931.5" cy="174.5" fill="#ADD1B2" rx="11" ry="11" style="stroke:#181818;stroke-width:1;"/><path d="M1934.4688,180.1406 Q1933.8906,180.4375 1933.25,180.5781 Q1932.6094,180.7344 1931.9063,180.7344 Q1929.4063,180.7344 1928.0781,179.0938 Q1926.7656,177.4375 1926.7656,174.3125 Q1926.7656,171.1875 1928.0781,169.5313 Q1929.4063,167.875 1931.9063,167.875 Q1932.6094,167.875 1933.25,168.0313 Q1933.9063,168.1875 1934.4688,168.4844 L1934.4688,171.2031 Q1933.8438,170.625 1933.25,170.3594 Q1932.6563,170.0781 1932.0313,170.0781 Q1930.6875,170.0781 1930,171.1563 Q1929.3125,172.2188 1929.3125,174.3125 Q1929.3125,176.4063 1930,177.4844 Q1930.6875,178.5469 1932.0313,178.5469 Q1932.6563,178.5469 1933.25,178.2813 Q1933.8438,178 1934.4688,177.4219 L1934.4688,180.1406 Z " fill="#000000"/><text fill="#000000" font-family="sans-serif" font-size="14" lengthAdjust="spacing" textLength="248.9307" x="1945.5" y="179.3467">logic_arc_int__baselibs__task_result</text><line style="stroke:#181818;stroke-width:0.5;" x1="1917.5" x2="2196.4307" y1="190.5" y2="190.5"/></g><!--class logic_arc_int__baselibs__bit_mask_operator--><g id="elem_logic_arc_int__baselibs__bit_mask_operator"><rect fill="#F1F1F1" height="40" id="logic_arc_int__baselibs__bit_mask_operator" rx="2.5" ry="2.5" style="stroke:#181818;stroke-width:0.5;" width="334.6406" x="3874.5" y="158.5"/><ellipse cx="3889.5" cy="174.5" fill="#ADD1B2" rx="11" ry="11" style="stroke:#181818;stroke-width:1;"/><path d="M3892.4688,180.1406 Q3891.8906,180.4375 3891.25,180.5781 Q3890.6094,180.7344 3889.9063,180.7344 Q3887.4063,180.7344 3886.0781,179.0938 Q3884.7656,177.4375 3884.7656,174.3125 Q3884.7656,171.1875 3886.0781,169.5313 Q3887.4063,167.875 3889.9063,167.875 Q3890.6094,167.875 3891.25,168.0313 Q3891.9063,168.1875 3892.4688,168.4844 L3892.4688,171.2031 Q3891.8438,170.625 3891.25,170.3594 Q3890.6563,170.0781 3890.0313,170.0781 Q3888.6875,170.0781 3888,171.1563 Q3887.3125,172.2188 3887.3125,174.3125 Q3887.3125,176.4063 3888,177.4844 Q3888.6875,178.5469 3890.0313,178.5469 Q3890.6563,178.5469 3891.25,178.2813 Q3891.8438,178 3892.4688,177.4219 L3892.4688,180.1406 Z " fill="#000000"/><text fill="#000000" font-family="sans-serif" font-size="14" lengthAdjust="spacing" textLength="302.6406" x="3903.5" y="179.3467">logic_arc_int__baselibs__bit_mask_operator</text><line style="stroke:#181818;stroke-width:0.5;" x1="3875.5" x2="4208.1406" y1="190.5" y2="190.5"/></g><!--class logic_arc_int__baselibs__executor--><g id="elem_logic_arc_int__baselibs__executor"><rect fill="#F1F1F1" height="40" id="logic_arc_int__baselibs__executor" rx="2.5" ry="2.5" style="stroke:#181818;stroke-width:0.5;" width="266.4385" x="1615" y="158.5"/><ellipse cx="1630" cy="174.5" fill="#ADD1B2" rx="11" ry="11" style="stroke:#181818;stroke-width:1;"/><path d="M1632.9688,180.1406 Q1632.3906,180.4375 1631.75,180.5781 Q1631.1094,180.7344 1630.4063,180.7344 Q1627.9063,180.7344 1626.5781,179.0938 Q1625.2656,177.4375 1625.2656,174.3125 Q1625.2656,171.1875 1626.5781,169.5313 Q1627.9063,167.875 1630.4063,167.875 Q1631.1094,167.875 1631.75,168.0313 Q1632.4063,168.1875 1632.9688,168.4844 L1632.9688,171.2031 Q1632.3438,170.625 1631.75,170.3594 Q1631.1563,170.0781 1630.5313,170.0781 Q1629.1875,170.0781 1628.5,171.1563 Q1627.8125,172.2188 1627.8125,174.3125 Q1627.8125,176.4063 1628.5,177.4844 Q1629.1875,178.5469 1630.5313,178.5469 Q1631.1563,178.5469 1631.75,178.2813 Q1632.3438,178 1632.9688,177.4219 L1632.9688,180.1406 Z " fill="#000000"/><text fill="#000000" font-family="sans-serif" font-size="14" lengthAdjust="spacing" textLength="234.4385" x="1644" y="179.3467">logic_arc_int__baselibs__executor</text><line style="stroke:#181818;stroke-width:0.5;" x1="1616" x2="1880.4385" y1="190.5" y2="190.5"/></g><!--class comp_arc_sta__baselibs__bit_manipulation--><g id="elem_comp_arc_sta__baselibs__bit_manipulation"><rect fill="#F1F1F1" height="40" id="comp_arc_sta__baselibs__bit_manipulation" rx="2.5" ry="2.5" style="stroke:#181818;stroke-width:0.5;" width="330.8057" x="3693.5" y="275.5"/><ellipse cx="3708.5" cy="291.5" fill="#ADD1B2" rx="11" ry="11" style="stroke:#181818;stroke-width:1;"/><path d="M3711.4688,297.1406 Q3710.8906,297.4375 3710.25,297.5781 Q3709.6094,297.7344 3708.9063,297.7344 Q3706.4063,297.7344 3705.0781,296.0938 Q3703.7656,294.4375 3703.7656,291.3125 Q3703.7656,288.1875 3705.0781,286.5313 Q3706.4063,284.875 3708.9063,284.875 Q3709.6094,284.875 3710.25,285.0313 Q3710.9063,285.1875 3711.4688,285.4844 L3711.4688,288.2031 Q3710.8438,287.625 3710.25,287.3594 Q3709.6563,287.0781 3709.0313,287.0781 Q3707.6875,287.0781 3707,288.1563 Q3706.3125,289.2188 3706.3125,291.3125 Q3706.3125,293.4063 3707,294.4844 Q3707.6875,295.5469 3709.0313,295.5469 Q3709.6563,295.5469 3710.25,295.2813 Q3710.8438,295 3711.4688,294.4219 L3711.4688,297.1406 Z " fill="#000000"/><text fill="#000000" font-family="sans-serif" font-size="14" lengthAdjust="spacing" textLength="298.8057" x="3722.5" y="296.3467">comp_arc_sta__baselibs__bit_manipulation</text><line style="stroke:#181818;stroke-width:0.5;" x1="3694.5" x2="4023.3057" y1="307.5" y2="307.5"/></g><!--class logic_arc_int__baselibs__bit_manipulation--><g id="elem_logic_arc_int__baselibs__bit_manipulation"><rect fill="#F1F1F1" height="40" id="logic_arc_int__baselibs__bit_manipulation" rx="2.5" ry="2.5" style="stroke:#181818;stroke-width:0.5;" width="321.8369" x="3517" y="158.5"/><ellipse cx="3532" cy="174.5" fill="#ADD1B2" rx="11" ry="11" style="stroke:#181818;stroke-width:1;"/><path d="M3534.9688,180.1406 Q3534.3906,180.4375 3533.75,180.5781 Q3533.1094,180.7344 3532.4063,180.7344 Q3529.9063,180.7344 3528.5781,179.0938 Q3527.2656,177.4375 3527.2656,174.3125 Q3527.2656,171.1875 3528.5781,169.5313 Q3529.9063,167.875 3532.4063,167.875 Q3533.1094,167.875 3533.75,168.0313 Q3534.4063,168.1875 3534.9688,168.4844 L3534.9688,171.2031 Q3534.3438,170.625 3533.75,170.3594 Q3533.1563,170.0781 3532.5313,170.0781 Q3531.1875,170.0781 3530.5,171.1563 Q3529.8125,172.2188 3529.8125,174.3125 Q3529.8125,176.4063 3530.5,177.4844 Q3531.1875,178.5469 3532.5313,178.5469 Q3533.1563,178.5469 3533.75,178.2813 Q3534.3438,178 3534.9688,177.4219 L3534.9688,180.1406 Z " fill="#000000"/><text fill="#000000" font-family="sans-serif" font-size="14" lengthAdjust="spacing" textLength="289.8369" x="3546" y="179.3467">logic_arc_int__baselibs__bit_manipulation</text><line style="stroke:#181818;stroke-width:0.5;" x1="3518" x2="3837.8369" y1="190.5" y2="190.5"/></g><!--class comp_arc_sta__baselibs__memory_shared--><g id="elem_comp_arc_sta__baselibs__memory_shared"><rect fill="#F1F1F1" height="40" id="comp_arc_sta__baselibs__memory_shared" rx="2.5" ry="2.5" style="stroke:#181818;stroke-width:0.5;" width="327.0117" x="5869.5" y="275.5"/><ellipse cx="5884.5" cy="291.5" fill="#ADD1B2" rx="11" ry="11" style="stroke:#181818;stroke-width:1;"/><path d="M5887.4688,297.1406 Q5886.8906,297.4375 5886.25,297.5781 Q5885.6094,297.7344 5884.9063,297.7344 Q5882.4063,297.7344 5881.0781,296.0938 Q5879.7656,294.4375 5879.7656,291.3125 Q5879.7656,288.1875 5881.0781,286.5313 Q5882.4063,284.875 5884.9063,284.875 Q5885.6094,284.875 5886.25,285.0313 Q5886.9063,285.1875 5887.4688,285.4844 L5887.4688,288.2031 Q5886.8438,287.625 5886.25,287.3594 Q5885.6563,287.0781 5885.0313,287.0781 Q5883.6875,287.0781 5883,288.1563 Q5882.3125,289.2188 5882.3125,291.3125 Q5882.3125,293.4063 5883,294.4844 Q5883.6875,295.5469 5885.0313,295.5469 Q5885.6563,295.5469 5886.25,295.2813 Q5886.8438,295 5887.4688,294.4219 L5887.4688,297.1406 Z " fill="#000000"/><text fill="#000000" font-family="sans-serif" font-size="14" lengthAdjust="spacing" textLength="295.0117" x="5898.5" y="296.3467">comp_arc_sta__baselibs__memory_shared</text><line style="stroke:#181818;stroke-width:0.5;" x1="5870.5" x2="6195.5117" y1="307.5" y2="307.5"/></g><!--class logic_arc_int__baselibs__memory_shared--><g id="elem_logic_arc_int__baselibs__memory_shared"><rect fill="#F1F1F1" height="40" id="logic_arc_int__baselibs__memory_shared" rx="2.5" ry="2.5" style="stroke:#181818;stroke-width:0.5;" width="318.043" x="5874" y="158.5"/><ellipse cx="5889" cy="174.5" fill="#ADD1B2" rx="11" ry="11" style="stroke:#181818;stroke-width:1;"/><path d="M5891.9688,180.1406 Q5891.3906,180.4375 5890.75,180.5781 Q5890.1094,180.7344 5889.4063,180.7344 Q5886.9063,180.7344 5885.5781,179.0938 Q5884.2656,177.4375 5884.2656,174.3125 Q5884.2656,171.1875 5885.5781,169.5313 Q5886.9063,167.875 5889.4063,167.875 Q5890.1094,167.875 5890.75,168.0313 Q5891.4063,168.1875 5891.9688,168.4844 L5891.9688,171.2031 Q5891.3438,170.625 5890.75,170.3594 Q5890.1563,170.0781 5889.5313,170.0781 Q5888.1875,170.0781 5887.5,171.1563 Q5886.8125,172.2188 5886.8125,174.3125 Q5886.8125,176.4063 5887.5,177.4844 Q5888.1875,178.5469 5889.5313,178.5469 Q5890.1563,178.5469 5890.75,178.2813 Q5891.3438,178 5891.9688,177.4219 L5891.9688,180.1406 Z " fill="#000000"/><text fill="#000000" font-family="sans-serif" font-size="14" lengthAdjust="spacing" textLength="286.043" x="5903" y="179.3467">logic_arc_int__baselibs__memory_shared</text><line style="stroke:#181818;stroke-width:0.5;" x1="5875" x2="6191.043" y1="190.5" y2="190.5"/></g><!--class comp_arc_sta__baselibs__concurrency--><g id="elem_comp_arc_sta__baselibs__concurrency"><rect fill="#F1F1F1" height="40" id="comp_arc_sta__baselibs__concurrency" rx="2.5" ry="2.5" style="stroke:#181818;stroke-width:0.5;" width="300.2012" x="2019" y="275.5"/><ellipse cx="2034" cy="291.5" fill="#ADD1B2" rx="11" ry="11" style="stroke:#181818;stroke-width:1;"/><path d="M2036.9688,297.1406 Q2036.3906,297.4375 2035.75,297.5781 Q2035.1094,297.7344 2034.4063,297.7344 Q2031.9063,297.7344 2030.5781,296.0938 Q2029.2656,294.4375 2029.2656,291.3125 Q2029.2656,288.1875 2030.5781,286.5313 Q2031.9063,284.875 2034.4063,284.875 Q2035.1094,284.875 2035.75,285.0313 Q2036.4063,285.1875 2036.9688,285.4844 L2036.9688,288.2031 Q2036.3438,287.625 2035.75,287.3594 Q2035.1563,287.0781 2034.5313,287.0781 Q2033.1875,287.0781 2032.5,288.1563 Q2031.8125,289.2188 2031.8125,291.3125 Q2031.8125,293.4063 2032.5,294.4844 Q2033.1875,295.5469 2034.5313,295.5469 Q2035.1563,295.5469 2035.75,295.2813 Q2036.3438,295 2036.9688,294.4219 L2036.9688,297.1406 Z " fill="#000000"/><text fill="#000000" font-family="sans-serif" font-size="14" lengthAdjust="spacing" textLength="268.2012" x="2048" y="296.3467">comp_arc_sta__baselibs__concurrency</text><line style="stroke:#181818;stroke-width:0.5;" x1="2020" x2="2318.2012" y1="307.5" y2="307.5"/></g><!--class logic_arc_int__baselibs__synchronized_queue--><g id="elem_logic_arc_int__baselibs__synchronized_queue"><rect fill="#F1F1F1" height="40" id="logic_arc_int__baselibs__synchronized_queue" rx="2.5" ry="2.5" style="stroke:#181818;stroke-width:0.5;" width="348.3604" x="963" y="158.5"/><ellipse cx="978" cy="174.5" fill="#ADD1B2" rx="11" ry="11" style="stroke:#181818;stroke-width:1;"/><path d="M980.9688,180.1406 Q980.3906,180.4375 979.75,180.5781 Q979.1094,180.7344 978.4063,180.7344 Q975.9063,180.7344 974.5781,179.0938 Q973.2656,177.4375 973.2656,174.3125 Q973.2656,171.1875 974.5781,169.5313 Q975.9063,167.875 978.4063,167.875 Q979.1094,167.875 979.75,168.0313 Q980.4063,168.1875 980.9688,168.4844 L980.9688,171.2031 Q980.3438,170.625 979.75,170.3594 Q979.1563,170.0781 978.5313,170.0781 Q977.1875,170.0781 976.5,171.1563 Q975.8125,172.2188 975.8125,174.3125 Q975.8125,176.4063 976.5,177.4844 Q977.1875,178.5469 978.5313,178.5469 Q979.1563,178.5469 979.75,178.2813 Q980.3438,178 980.9688,177.4219 L980.9688,180.1406 Z " fill="#000000"/><text fill="#000000" font-family="sans-serif" font-size="14" lengthAdjust="spacing" textLength="316.3604" x="992" y="179.3467">logic_arc_int__baselibs__synchronized_queue</text><line style="stroke:#181818;stroke-width:0.5;" x1="964" x2="1310.3604" y1="190.5" y2="190.5"/></g><!--class logic_arc_int__baselibs__promise--><g id="elem_logic_arc_int__baselibs__promise"><rect fill="#F1F1F1" height="40" id="logic_arc_int__baselibs__promise" rx="2.5" ry="2.5" style="stroke:#181818;stroke-width:0.5;" width="261.1885" x="2570.5" y="158.5"/><ellipse cx="2585.5" cy="174.5" fill="#ADD1B2" rx="11" ry="11" style="stroke:#181818;stroke-width:1;"/><path d="M2588.4688,180.1406 Q2587.8906,180.4375 2587.25,180.5781 Q2586.6094,180.7344 2585.9063,180.7344 Q2583.4063,180.7344 2582.0781,179.0938 Q2580.7656,177.4375 2580.7656,174.3125 Q2580.7656,171.1875 2582.0781,169.5313 Q2583.4063,167.875 2585.9063,167.875 Q2586.6094,167.875 2587.25,168.0313 Q2587.9063,168.1875 2588.4688,168.4844 L2588.4688,171.2031 Q2587.8438,170.625 2587.25,170.3594 Q2586.6563,170.0781 2586.0313,170.0781 Q2584.6875,170.0781 2584,171.1563 Q2583.3125,172.2188 2583.3125,174.3125 Q2583.3125,176.4063 2584,177.4844 Q2584.6875,178.5469 2586.0313,178.5469 Q2586.6563,178.5469 2587.25,178.2813 Q2587.8438,178 2588.4688,177.4219 L2588.4688,180.1406 Z " fill="#000000"/><text fill="#000000" font-family="sans-serif" font-size="14" lengthAdjust="spacing" textLength="229.1885" x="2599.5" y="179.3467">logic_arc_int__baselibs__promise</text><line style="stroke:#181818;stroke-width:0.5;" x1="2571.5" x2="2830.6885" y1="190.5" y2="190.5"/></g><!--class logic_arc_int__baselibs__future--><g id="elem_logic_arc_int__baselibs__future"><rect fill="#F1F1F1" height="40" id="logic_arc_int__baselibs__future" rx="2.5" ry="2.5" style="stroke:#181818;stroke-width:0.5;" width="247.0791" x="3234.5" y="158.5"/><ellipse cx="3249.5" cy="174.5" fill="#ADD1B2" rx="11" ry="11" style="stroke:#181818;stroke-width:1;"/><path d="M3252.4688,180.1406 Q3251.8906,180.4375 3251.25,180.5781 Q3250.6094,180.7344 3249.9063,180.7344 Q3247.4063,180.7344 3246.0781,179.0938 Q3244.7656,177.4375 3244.7656,174.3125 Q3244.7656,171.1875 3246.0781,169.5313 Q3247.4063,167.875 3249.9063,167.875 Q3250.6094,167.875 3251.25,168.0313 Q3251.9063,168.1875 3252.4688,168.4844 L3252.4688,171.2031 Q3251.8438,170.625 3251.25,170.3594 Q3250.6563,170.0781 3250.0313,170.0781 Q3248.6875,170.0781 3248,171.1563 Q3247.3125,172.2188 3247.3125,174.3125 Q3247.3125,176.4063 3248,177.4844 Q3248.6875,178.5469 3250.0313,178.5469 Q3250.6563,178.5469 3251.25,178.2813 Q3251.8438,178 3252.4688,177.4219 L3252.4688,180.1406 Z " fill="#000000"/><text fill="#000000" font-family="sans-serif" font-size="14" lengthAdjust="spacing" textLength="215.0791" x="3263.5" y="179.3467">logic_arc_int__baselibs__future</text><line style="stroke:#181818;stroke-width:0.5;" x1="3235.5" x2="3480.5791" y1="190.5" y2="190.5"/></g><!--class logic_arc_int__baselibs__task--><g id="elem_logic_arc_int__baselibs__task"><rect fill="#F1F1F1" height="40" id="logic_arc_int__baselibs__task" rx="2.5" ry="2.5" style="stroke:#181818;stroke-width:0.5;" width="234.0156" x="1346" y="158.5"/><ellipse cx="1361" cy="174.5" fill="#ADD1B2" rx="11" ry="11" style="stroke:#181818;stroke-width:1;"/><path d="M1363.9688,180.1406 Q1363.3906,180.4375 1362.75,180.5781 Q1362.1094,180.7344 1361.4063,180.7344 Q1358.9063,180.7344 1357.5781,179.0938 Q1356.2656,177.4375 1356.2656,174.3125 Q1356.2656,171.1875 1357.5781,169.5313 Q1358.9063,167.875 1361.4063,167.875 Q1362.1094,167.875 1362.75,168.0313 Q1363.4063,168.1875 1363.9688,168.4844 L1363.9688,171.2031 Q1363.3438,170.625 1362.75,170.3594 Q1362.1563,170.0781 1361.5313,170.0781 Q1360.1875,170.0781 1359.5,171.1563 Q1358.8125,172.2188 1358.8125,174.3125 Q1358.8125,176.4063 1359.5,177.4844 Q1360.1875,178.5469 1361.5313,178.5469 Q1362.1563,178.5469 1362.75,178.2813 Q1363.3438,178 1363.9688,177.4219 L1363.9688,180.1406 Z " fill="#000000"/><text fill="#000000" font-family="sans-serif" font-size="14" lengthAdjust="spacing" textLength="202.0156" x="1375" y="179.3467">logic_arc_int__baselibs__task</text><line style="stroke:#181818;stroke-width:0.5;" x1="1347" x2="1579.0156" y1="190.5" y2="190.5"/></g><!--class logic_arc_int__baselibs__utils_base64--><g id="elem_logic_arc_int__baselibs__utils_base64"><rect fill="#F1F1F1" height="40" id="logic_arc_int__baselibs__utils_base64" rx="2.5" ry="2.5" style="stroke:#181818;stroke-width:0.5;" width="292.1689" x="5196" y="158.5"/><ellipse cx="5211" cy="174.5" fill="#ADD1B2" rx="11" ry="11" style="stroke:#181818;stroke-width:1;"/><path d="M5213.9688,180.1406 Q5213.3906,180.4375 5212.75,180.5781 Q5212.1094,180.7344 5211.4063,180.7344 Q5208.9063,180.7344 5207.5781,179.0938 Q5206.2656,177.4375 5206.2656,174.3125 Q5206.2656,171.1875 5207.5781,169.5313 Q5208.9063,167.875 5211.4063,167.875 Q5212.1094,167.875 5212.75,168.0313 Q5213.4063,168.1875 5213.9688,168.4844 L5213.9688,171.2031 Q5213.3438,170.625 5212.75,170.3594 Q5212.1563,170.0781 5211.5313,170.0781 Q5210.1875,170.0781 5209.5,171.1563 Q5208.8125,172.2188 5208.8125,174.3125 Q5208.8125,176.4063 5209.5,177.4844 Q5210.1875,178.5469 5211.5313,178.5469 Q5212.1563,178.5469 5212.75,178.2813 Q5213.3438,178 5213.9688,177.4219 L5213.9688,180.1406 Z " fill="#000000"/><text fill="#000000" font-family="sans-serif" font-size="14" lengthAdjust="spacing" textLength="260.1689" x="5225" y="179.3467">logic_arc_int__baselibs__utils_base64</text><line style="stroke:#181818;stroke-width:0.5;" x1="5197" x2="5487.1689" y1="190.5" y2="190.5"/></g><!--class logic_arc_int__baselibs__filesystem--><g id="elem_logic_arc_int__baselibs__filesystem"><rect fill="#F1F1F1" height="40" id="logic_arc_int__baselibs__filesystem" rx="2.5" ry="2.5" style="stroke:#181818;stroke-width:0.5;" width="276.4805" x="652" y="158.5"/><ellipse cx="667" cy="174.5" fill="#ADD1B2" rx="11" ry="11" style="stroke:#181818;stroke-width:1;"/><path d="M669.9688,180.1406 Q669.3906,180.4375 668.75,180.5781 Q668.1094,180.7344 667.4063,180.7344 Q664.9063,180.7344 663.5781,179.0938 Q662.2656,177.4375 662.2656,174.3125 Q662.2656,171.1875 663.5781,169.5313 Q664.9063,167.875 667.4063,167.875 Q668.1094,167.875 668.75,168.0313 Q669.4063,168.1875 669.9688,168.4844 L669.9688,171.2031 Q669.3438,170.625 668.75,170.3594 Q668.1563,170.0781 667.5313,170.0781 Q666.1875,170.0781 665.5,171.1563 Q664.8125,172.2188 664.8125,174.3125 Q664.8125,176.4063 665.5,177.4844 Q666.1875,178.5469 667.5313,178.5469 Q668.1563,178.5469 668.75,178.2813 Q669.3438,178 669.9688,177.4219 L669.9688,180.1406 Z " fill="#000000"/><text fill="#000000" font-family="sans-serif" font-size="14" lengthAdjust="spacing" textLength="244.4805" x="681" y="179.3467">logic_arc_int__baselibs__filesystem</text><line style="stroke:#181818;stroke-width:0.5;" x1="653" x2="927.4805" y1="190.5" y2="190.5"/></g><!--class comp_arc_sta__baselibs__result--><g id="elem_comp_arc_sta__baselibs__result"><rect fill="#F1F1F1" height="40" id="comp_arc_sta__baselibs__result" rx="2.5" ry="2.5" style="stroke:#181818;stroke-width:0.5;" width="253.4297" x="4240.5" y="275.5"/><ellipse cx="4255.5" cy="291.5" fill="#ADD1B2" rx="11" ry="11" style="stroke:#181818;stroke-width:1;"/><path d="M4258.4688,297.1406 Q4257.8906,297.4375 4257.25,297.5781 Q4256.6094,297.7344 4255.9063,297.7344 Q4253.4063,297.7344 4252.0781,296.0938 Q4250.7656,294.4375 4250.7656,291.3125 Q4250.7656,288.1875 4252.0781,286.5313 Q4253.4063,284.875 4255.9063,284.875 Q4256.6094,284.875 4257.25,285.0313 Q4257.9063,285.1875 4258.4688,285.4844 L4258.4688,288.2031 Q4257.8438,287.625 4257.25,287.3594 Q4256.6563,287.0781 4256.0313,287.0781 Q4254.6875,287.0781 4254,288.1563 Q4253.3125,289.2188 4253.3125,291.3125 Q4253.3125,293.4063 4254,294.4844 Q4254.6875,295.5469 4256.0313,295.5469 Q4256.6563,295.5469 4257.25,295.2813 Q4257.8438,295 4258.4688,294.4219 L4258.4688,297.1406 Z " fill="#000000"/><text fill="#000000" font-family="sans-serif" font-size="14" lengthAdjust="spacing" textLength="221.4297" x="4269.5" y="296.3467">comp_arc_sta__baselibs__result</text><line style="stroke:#181818;stroke-width:0.5;" x1="4241.5" x2="4492.9297" y1="307.5" y2="307.5"/></g><!--class logic_arc_int__baselibs__result--><g id="elem_logic_arc_int__baselibs__result"><rect fill="#F1F1F1" height="40" id="logic_arc_int__baselibs__result" rx="2.5" ry="2.5" style="stroke:#181818;stroke-width:0.5;" width="244.4609" x="4245" y="158.5"/><ellipse cx="4260" cy="174.5" fill="#ADD1B2" rx="11" ry="11" style="stroke:#181818;stroke-width:1;"/><path d="M4262.9688,180.1406 Q4262.3906,180.4375 4261.75,180.5781 Q4261.1094,180.7344 4260.4063,180.7344 Q4257.9063,180.7344 4256.5781,179.0938 Q4255.2656,177.4375 4255.2656,174.3125 Q4255.2656,171.1875 4256.5781,169.5313 Q4257.9063,167.875 4260.4063,167.875 Q4261.1094,167.875 4261.75,168.0313 Q4262.4063,168.1875 4262.9688,168.4844 L4262.9688,171.2031 Q4262.3438,170.625 4261.75,170.3594 Q4261.1563,170.0781 4260.5313,170.0781 Q4259.1875,170.0781 4258.5,171.1563 Q4257.8125,172.2188 4257.8125,174.3125 Q4257.8125,176.4063 4258.5,177.4844 Q4259.1875,178.5469 4260.5313,178.5469 Q4261.1563,178.5469 4261.75,178.2813 Q4262.3438,178 4262.9688,177.4219 L4262.9688,180.1406 Z " fill="#000000"/><text fill="#000000" font-family="sans-serif" font-size="14" lengthAdjust="spacing" textLength="212.4609" x="4274" y="179.3467">logic_arc_int__baselibs__result</text><line style="stroke:#181818;stroke-width:0.5;" x1="4246" x2="4488.4609" y1="190.5" y2="190.5"/></g><!--class logic_arc_int__baselibs__intrusive_list--><g id="elem_logic_arc_int__baselibs__intrusive_list"><rect fill="#F1F1F1" height="40" id="logic_arc_int__baselibs__intrusive_list" rx="2.5" ry="2.5" style="stroke:#181818;stroke-width:0.5;" width="293.0713" x="4524.5" y="158.5"/><ellipse cx="4539.5" cy="174.5" fill="#ADD1B2" rx="11" ry="11" style="stroke:#181818;stroke-width:1;"/><path d="M4542.4688,180.1406 Q4541.8906,180.4375 4541.25,180.5781 Q4540.6094,180.7344 4539.9063,180.7344 Q4537.4063,180.7344 4536.0781,179.0938 Q4534.7656,177.4375 4534.7656,174.3125 Q4534.7656,171.1875 4536.0781,169.5313 Q4537.4063,167.875 4539.9063,167.875 Q4540.6094,167.875 4541.25,168.0313 Q4541.9063,168.1875 4542.4688,168.4844 L4542.4688,171.2031 Q4541.8438,170.625 4541.25,170.3594 Q4540.6563,170.0781 4540.0313,170.0781 Q4538.6875,170.0781 4538,171.1563 Q4537.3125,172.2188 4537.3125,174.3125 Q4537.3125,176.4063 4538,177.4844 Q4538.6875,178.5469 4540.0313,178.5469 Q4540.6563,178.5469 4541.25,178.2813 Q4541.8438,178 4542.4688,177.4219 L4542.4688,180.1406 Z " fill="#000000"/><text fill="#000000" font-family="sans-serif" font-size="14" lengthAdjust="spacing" textLength="261.0713" x="4553.5" y="179.3467">logic_arc_int__baselibs__intrusive_list</text><line style="stroke:#181818;stroke-width:0.5;" x1="4525.5" x2="4816.5713" y1="190.5" y2="190.5"/></g><!--class logic_arc_int__baselibs__shared_future--><g id="elem_logic_arc_int__baselibs__shared_future"><rect fill="#F1F1F1" height="40" id="logic_arc_int__baselibs__shared_future" rx="2.5" ry="2.5" style="stroke:#181818;stroke-width:0.5;" width="302.0811" x="2233" y="158.5"/><ellipse cx="2248" cy="174.5" fill="#ADD1B2" rx="11" ry="11" style="stroke:#181818;stroke-width:1;"/><path d="M2250.9688,180.1406 Q2250.3906,180.4375 2249.75,180.5781 Q2249.1094,180.7344 2248.4063,180.7344 Q2245.9063,180.7344 2244.5781,179.0938 Q2243.2656,177.4375 2243.2656,174.3125 Q2243.2656,171.1875 2244.5781,169.5313 Q2245.9063,167.875 2248.4063,167.875 Q2249.1094,167.875 2249.75,168.0313 Q2250.4063,168.1875 2250.9688,168.4844 L2250.9688,171.2031 Q2250.3438,170.625 2249.75,170.3594 Q2249.1563,170.0781 2248.5313,170.0781 Q2247.1875,170.0781 2246.5,171.1563 Q2245.8125,172.2188 2245.8125,174.3125 Q2245.8125,176.4063 2246.5,177.4844 Q2247.1875,178.5469 2248.5313,178.5469 Q2249.1563,178.5469 2249.75,178.2813 Q2250.3438,178 2250.9688,177.4219 L2250.9688,180.1406 Z " fill="#000000"/><text fill="#000000" font-family="sans-serif" font-size="14" lengthAdjust="spacing" textLength="270.0811" x="2262" y="179.3467">logic_arc_int__baselibs__shared_future</text><line style="stroke:#181818;stroke-width:0.5;" x1="2234" x2="2534.0811" y1="190.5" y2="190.5"/></g><!--class logic_arc_int__baselibs__message_passing--><g id="elem_logic_arc_int__baselibs__message_passing"><rect fill="#F1F1F1" height="40" id="logic_arc_int__baselibs__message_passing" rx="2.5" ry="2.5" style="stroke:#181818;stroke-width:0.5;" width="328.167" x="289" y="158.5"/><ellipse cx="304" cy="174.5" fill="#ADD1B2" rx="11" ry="11" style="stroke:#181818;stroke-width:1;"/><path d="M306.9688,180.1406 Q306.3906,180.4375 305.75,180.5781 Q305.1094,180.7344 304.4063,180.7344 Q301.9063,180.7344 300.5781,179.0938 Q299.2656,177.4375 299.2656,174.3125 Q299.2656,171.1875 300.5781,169.5313 Q301.9063,167.875 304.4063,167.875 Q305.1094,167.875 305.75,168.0313 Q306.4063,168.1875 306.9688,168.4844 L306.9688,171.2031 Q306.3438,170.625 305.75,170.3594 Q305.1563,170.0781 304.5313,170.0781 Q303.1875,170.0781 302.5,171.1563 Q301.8125,172.2188 301.8125,174.3125 Q301.8125,176.4063 302.5,177.4844 Q303.1875,178.5469 304.5313,178.5469 Q305.1563,178.5469 305.75,178.2813 Q306.3438,178 306.9688,177.4219 L306.9688,180.1406 Z " fill="#000000"/><text fill="#000000" font-family="sans-serif" font-size="14" lengthAdjust="spacing" textLength="296.167" x="318" y="179.3467">logic_arc_int__baselibs__message_passing</text><line style="stroke:#181818;stroke-width:0.5;" x1="290" x2="616.167" y1="190.5" y2="190.5"/></g><!--class comp_arc_sta__baselibs__filesystem--><g id="elem_comp_arc_sta__baselibs__filesystem"><rect fill="#F1F1F1" height="40" id="comp_arc_sta__baselibs__filesystem" rx="2.5" ry="2.5" style="stroke:#181818;stroke-width:0.5;" width="285.4492" x="656.5" y="275.5"/><ellipse cx="671.5" cy="291.5" fill="#ADD1B2" rx="11" ry="11" style="stroke:#181818;stroke-width:1;"/><path d="M674.4688,297.1406 Q673.8906,297.4375 673.25,297.5781 Q672.6094,297.7344 671.9063,297.7344 Q669.4063,297.7344 668.0781,296.0938 Q666.7656,294.4375 666.7656,291.3125 Q666.7656,288.1875 668.0781,286.5313 Q669.4063,284.875 671.9063,284.875 Q672.6094,284.875 673.25,285.0313 Q673.9063,285.1875 674.4688,285.4844 L674.4688,288.2031 Q673.8438,287.625 673.25,287.3594 Q672.6563,287.0781 672.0313,287.0781 Q670.6875,287.0781 670,288.1563 Q669.3125,289.2188 669.3125,291.3125 Q669.3125,293.4063 670,294.4844 Q670.6875,295.5469 672.0313,295.5469 Q672.6563,295.5469 673.25,295.2813 Q673.8438,295 674.4688,294.4219 L674.4688,297.1406 Z " fill="#000000"/><text fill="#000000" font-family="sans-serif" font-size="14" lengthAdjust="spacing" textLength="253.4492" x="685.5" y="296.3467">comp_arc_sta__baselibs__filesystem</text><line style="stroke:#181818;stroke-width:0.5;" x1="657.5" x2="940.9492" y1="307.5" y2="307.5"/></g><!--class logic_arc_int__baselibs__condition_variable--><g id="elem_logic_arc_int__baselibs__condition_variable"><rect fill="#F1F1F1" height="40" id="logic_arc_int__baselibs__condition_variable" rx="2.5" ry="2.5" style="stroke:#181818;stroke-width:0.5;" width="332.7539" x="2866.5" y="158.5"/><ellipse cx="2881.5" cy="174.5" fill="#ADD1B2" rx="11" ry="11" style="stroke:#181818;stroke-width:1;"/><path d="M2884.4688,180.1406 Q2883.8906,180.4375 2883.25,180.5781 Q2882.6094,180.7344 2881.9063,180.7344 Q2879.4063,180.7344 2878.0781,179.0938 Q2876.7656,177.4375 2876.7656,174.3125 Q2876.7656,171.1875 2878.0781,169.5313 Q2879.4063,167.875 2881.9063,167.875 Q2882.6094,167.875 2883.25,168.0313 Q2883.9063,168.1875 2884.4688,168.4844 L2884.4688,171.2031 Q2883.8438,170.625 2883.25,170.3594 Q2882.6563,170.0781 2882.0313,170.0781 Q2880.6875,170.0781 2880,171.1563 Q2879.3125,172.2188 2879.3125,174.3125 Q2879.3125,176.4063 2880,177.4844 Q2880.6875,178.5469 2882.0313,178.5469 Q2882.6563,178.5469 2883.25,178.2813 Q2883.8438,178 2884.4688,177.4219 L2884.4688,180.1406 Z " fill="#000000"/><text fill="#000000" font-family="sans-serif" font-size="14" lengthAdjust="spacing" textLength="300.7539" x="2895.5" y="179.3467">logic_arc_int__baselibs__condition_variable</text><line style="stroke:#181818;stroke-width:0.5;" x1="2867.5" x2="3198.2539" y1="190.5" y2="190.5"/></g><!--class comp_arc_sta__baselibs__message_passing--><g id="elem_comp_arc_sta__baselibs__message_passing"><rect fill="#F1F1F1" height="40" id="comp_arc_sta__baselibs__message_passing" rx="2.5" ry="2.5" style="stroke:#181818;stroke-width:0.5;" width="337.1357" x="284.5" y="275.5"/><ellipse cx="299.5" cy="291.5" fill="#ADD1B2" rx="11" ry="11" style="stroke:#181818;stroke-width:1;"/><path d="M302.4688,297.1406 Q301.8906,297.4375 301.25,297.5781 Q300.6094,297.7344 299.9063,297.7344 Q297.4063,297.7344 296.0781,296.0938 Q294.7656,294.4375 294.7656,291.3125 Q294.7656,288.1875 296.0781,286.5313 Q297.4063,284.875 299.9063,284.875 Q300.6094,284.875 301.25,285.0313 Q301.9063,285.1875 302.4688,285.4844 L302.4688,288.2031 Q301.8438,287.625 301.25,287.3594 Q300.6563,287.0781 300.0313,287.0781 Q298.6875,287.0781 298,288.1563 Q297.3125,289.2188 297.3125,291.3125 Q297.3125,293.4063 298,294.4844 Q298.6875,295.5469 300.0313,295.5469 Q300.6563,295.5469 301.25,295.2813 Q301.8438,295 302.4688,294.4219 L302.4688,297.1406 Z " fill="#000000"/><text fill="#000000" font-family="sans-serif" font-size="14" lengthAdjust="spacing" textLength="305.1357" x="313.5" y="296.3467">comp_arc_sta__baselibs__message_passing</text><line style="stroke:#181818;stroke-width:0.5;" x1="285.5" x2="620.6357" y1="307.5" y2="307.5"/></g><!--class logic_arc_int__baselibs__json--><g id="elem_logic_arc_int__baselibs__json"><rect fill="#F1F1F1" height="40" id="logic_arc_int__baselibs__json" rx="2.5" ry="2.5" style="stroke:#181818;stroke-width:0.5;" width="233.168" x="16.5" y="158.5"/><ellipse cx="31.5" cy="174.5" fill="#ADD1B2" rx="11" ry="11" style="stroke:#181818;stroke-width:1;"/><path d="M34.4688,180.1406 Q33.8906,180.4375 33.25,180.5781 Q32.6094,180.7344 31.9063,180.7344 Q29.4063,180.7344 28.0781,179.0938 Q26.7656,177.4375 26.7656,174.3125 Q26.7656,171.1875 28.0781,169.5313 Q29.4063,167.875 31.9063,167.875 Q32.6094,167.875 33.25,168.0313 Q33.9063,168.1875 34.4688,168.4844 L34.4688,171.2031 Q33.8438,170.625 33.25,170.3594 Q32.6563,170.0781 32.0313,170.0781 Q30.6875,170.0781 30,171.1563 Q29.3125,172.2188 29.3125,174.3125 Q29.3125,176.4063 30,177.4844 Q30.6875,178.5469 32.0313,178.5469 Q32.6563,178.5469 33.25,178.2813 Q33.8438,178 34.4688,177.4219 L34.4688,180.1406 Z " fill="#000000"/><text fill="#000000" font-family="sans-serif" font-size="14" lengthAdjust="spacing" textLength="201.168" x="45.5" y="179.3467">logic_arc_int__baselibs__json</text><line style="stroke:#181818;stroke-width:0.5;" x1="17.5" x2="248.668" y1="190.5" y2="190.5"/></g><!--class comp_arc_sta__baselibs__json--><g id="elem_comp_arc_sta__baselibs__json"><rect fill="#F1F1F1" height="40" id="comp_arc_sta__baselibs__json" rx="2.5" ry="2.5" style="stroke:#181818;stroke-width:0.5;" width="242.1367" x="7" y="275.5"/><ellipse cx="22" cy="291.5" fill="#ADD1B2" rx="11" ry="11" style="stroke:#181818;stroke-width:1;"/><path d="M24.9688,297.1406 Q24.3906,297.4375 23.75,297.5781 Q23.1094,297.7344 22.4063,297.7344 Q19.9063,297.7344 18.5781,296.0938 Q17.2656,294.4375 17.2656,291.3125 Q17.2656,288.1875 18.5781,286.5313 Q19.9063,284.875 22.4063,284.875 Q23.1094,284.875 23.75,285.0313 Q24.4063,285.1875 24.9688,285.4844 L24.9688,288.2031 Q24.3438,287.625 23.75,287.3594 Q23.1563,287.0781 22.5313,287.0781 Q21.1875,287.0781 20.5,288.1563 Q19.8125,289.2188 19.8125,291.3125 Q19.8125,293.4063 20.5,294.4844 Q21.1875,295.5469 22.5313,295.5469 Q23.1563,295.5469 23.75,295.2813 Q24.3438,295 24.9688,294.4219 L24.9688,297.1406 Z " fill="#000000"/><text fill="#000000" font-family="sans-serif" font-size="14" lengthAdjust="spacing" textLength="210.1367" x="36" y="296.3467">comp_arc_sta__baselibs__json</text><line style="stroke:#181818;stroke-width:0.5;" x1="8" x2="248.1367" y1="307.5" y2="307.5"/></g><!--reverse link logic_arc_int__baselibs__dynamic_array to comp_arc_sta__baselibs__containers--><g id="link_logic_arc_int__baselibs__dynamic_array_comp_arc_sta__baselibs__containers"><path codeLine="14" d="M4974.1082,202.1527 C4943.1882,223.4427 4898.61,254.14 4867.76,275.38 " fill="transparent" id="logic_arc_int__baselibs__dynamic_array-backto-comp_arc_sta__baselibs__containers" style="stroke:#181818;stroke-width:1;"/><polygon fill="#181818" points="4979.05,198.75,4969.3688,200.5595,4974.9318,201.5856,4973.9057,207.1486,4979.05,198.75" style="stroke:#181818;stroke-width:1;"/><text fill="#000000" font-family="sans-serif" font-size="13" lengthAdjust="spacing" textLength="76.9082" x="4935" y="241.5669">implements</text></g><!--reverse link logic_arc_int__baselibs__utils_scoped_op to comp_arc_sta__baselibs__utils--><g id="link_logic_arc_int__baselibs__utils_scoped_op_comp_arc_sta__baselibs__utils"><path codeLine="16" d="M5638.4223,201.3603 C5596.9923,222.6303 5535.79,254.05 5494.33,275.34 " fill="transparent" id="logic_arc_int__baselibs__utils_scoped_op-backto-comp_arc_sta__baselibs__utils" style="stroke:#181818;stroke-width:1;"/><polygon fill="#181818" points="5643.76,198.62,5633.9266,199.1721,5639.312,200.9036,5637.5804,206.2889,5643.76,198.62" style="stroke:#181818;stroke-width:1;"/><text fill="#000000" font-family="sans-serif" font-size="13" lengthAdjust="spacing" textLength="76.9082" x="5584" y="241.5669">implements</text></g><!--link Feature_User to logic_arc_int__baselibs__utils_scoped_op--><g id="link_Feature_User_logic_arc_int__baselibs__utils_scoped_op"><path codeLine="17" d="M3078.07,45.7 C3280.08,51.16 4122.41,75.06 4813,111.5 C5120.84,127.74 5197.92,131.51 5505,158.5 C5510.97,159.02 5511.0766,159.0157 5517.2166,159.5957 " fill="transparent" id="Feature_User-to-logic_arc_int__baselibs__utils_scoped_op" style="stroke:#181818;stroke-width:1;"/><polygon fill="#181818" points="5523.19,160.16,5514.6061,155.3313,5518.2122,159.6898,5513.8537,163.2959,5523.19,160.16" style="stroke:#181818;stroke-width:1;"/><text fill="#000000" font-family="sans-serif" font-size="13" lengthAdjust="spacing" textLength="23.0103" x="5114" y="124.5669">use</text></g><!--link Feature_User to logic_arc_int__baselibs__task_result--><g id="link_Feature_User_logic_arc_int__baselibs__task_result"><path codeLine="18" d="M2987.88,50.65 C2848.42,69.65 2426.1551,127.1999 2202.4051,157.6899 " fill="transparent" id="Feature_User-to-logic_arc_int__baselibs__task_result" style="stroke:#181818;stroke-width:1;"/><polygon fill="#181818" points="2196.46,158.5,2205.9177,161.2482,2201.4142,157.8249,2204.8375,153.3214,2196.46,158.5" style="stroke:#181818;stroke-width:1;"/><text fill="#000000" font-family="sans-serif" font-size="13" lengthAdjust="spacing" textLength="23.0103" x="2517" y="124.5669">use</text></g><!--link Feature_User to logic_arc_int__baselibs__bit_mask_operator--><g id="link_Feature_User_logic_arc_int__baselibs__bit_mask_operator"><path codeLine="19" d="M3078.31,50.47 C3221.06,69.29 3659.7015,127.1059 3891.7615,157.6959 " fill="transparent" id="Feature_User-to-logic_arc_int__baselibs__bit_mask_operator" style="stroke:#181818;stroke-width:1;"/><polygon fill="#181818" points="3897.71,158.48,3889.3099,153.3381,3892.7529,157.8266,3888.2644,161.2695,3897.71,158.48" style="stroke:#181818;stroke-width:1;"/><text fill="#000000" font-family="sans-serif" font-size="13" lengthAdjust="spacing" textLength="23.0103" x="3659" y="124.5669">use</text></g><!--link Feature_User to logic_arc_int__baselibs__executor--><g id="link_Feature_User_logic_arc_int__baselibs__executor"><path codeLine="20" d="M2987.85,48.63 C2834.85,62.71 2321.96,110.64 1899,158.5 C1893.22,159.15 1893.289,159.1401 1887.329,159.8401 " fill="transparent" id="Feature_User-to-logic_arc_int__baselibs__executor" style="stroke:#181818;stroke-width:1;"/><polygon fill="#181818" points="1881.37,160.54,1890.7752,163.4629,1886.3359,159.9568,1889.842,155.5175,1881.37,160.54" style="stroke:#181818;stroke-width:1;"/><text fill="#000000" font-family="sans-serif" font-size="13" lengthAdjust="spacing" textLength="23.0103" x="2337" y="124.5669">use</text></g><!--reverse link logic_arc_int__baselibs__bit_manipulation to comp_arc_sta__baselibs__bit_manipulation--><g id="link_logic_arc_int__baselibs__bit_manipulation_comp_arc_sta__baselibs__bit_manipulation"><path codeLine="21" d="M3713.3643,201.9675 C3746.8743,223.2575 3795.48,254.14 3828.91,275.38 " fill="transparent" id="logic_arc_int__baselibs__bit_manipulation-backto-comp_arc_sta__baselibs__bit_manipulation" style="stroke:#181818;stroke-width:1;"/><polygon fill="#181818" points="3708.3,198.75,3713.7515,206.9525,3712.5203,201.4313,3718.0415,200.2001,3708.3,198.75" style="stroke:#181818;stroke-width:1;"/><text fill="#000000" font-family="sans-serif" font-size="13" lengthAdjust="spacing" textLength="76.9082" x="3781" y="241.5669">implements</text></g><!--reverse link logic_arc_int__baselibs__memory_shared to comp_arc_sta__baselibs__memory_shared--><g id="link_logic_arc_int__baselibs__memory_shared_comp_arc_sta__baselibs__memory_shared"><path codeLine="22" d="M6033,204.75 C6033,225.98 6033,253.94 6033,275.19 " fill="transparent" id="logic_arc_int__baselibs__memory_shared-backto-comp_arc_sta__baselibs__memory_shared" style="stroke:#181818;stroke-width:1;"/><polygon fill="#181818" points="6033,198.75,6029,207.75,6033,203.75,6037,207.75,6033,198.75" style="stroke:#181818;stroke-width:1;"/><text fill="#000000" font-family="sans-serif" font-size="13" lengthAdjust="spacing" textLength="76.9082" x="6034" y="241.5669">implements</text></g><!--reverse link logic_arc_int__baselibs__synchronized_queue to comp_arc_sta__baselibs__concurrency--><g id="link_logic_arc_int__baselibs__synchronized_queue_comp_arc_sta__baselibs__concurrency"><path codeLine="23" d="M1287.3603,199.3005 C1393.8503,213.0905 1536.37,230.99 1667,245.5 C1785.15,258.62 1919.15,271.6 2018.97,280.91 " fill="transparent" id="logic_arc_int__baselibs__synchronized_queue-backto-comp_arc_sta__baselibs__concurrency" style="stroke:#181818;stroke-width:1;"/><polygon fill="#181818" points="1281.41,198.53,1289.8218,203.6527,1286.3686,199.1721,1290.8492,195.7189,1281.41,198.53" style="stroke:#181818;stroke-width:1;"/><text fill="#000000" font-family="sans-serif" font-size="13" lengthAdjust="spacing" textLength="76.9082" x="1668" y="241.5669">implements</text></g><!--link Feature_User to logic_arc_int__baselibs__promise--><g id="link_Feature_User_logic_arc_int__baselibs__promise"><path codeLine="24" d="M2987.88,62.58 C2925.21,87.68 2817.8894,130.668 2754.0094,156.268 " fill="transparent" id="Feature_User-to-logic_arc_int__baselibs__promise" style="stroke:#181818;stroke-width:1;"/><polygon fill="#181818" points="2748.44,158.5,2758.2821,158.865,2753.0812,156.64,2755.3062,151.4391,2748.44,158.5" style="stroke:#181818;stroke-width:1;"/><text fill="#000000" font-family="sans-serif" font-size="13" lengthAdjust="spacing" textLength="23.0103" x="2859" y="124.5669">use</text></g><!--reverse link logic_arc_int__baselibs__future to comp_arc_sta__baselibs__concurrency--><g id="link_logic_arc_int__baselibs__future_comp_arc_sta__baselibs__concurrency"><path codeLine="25" d="M3228.2754,197.1467 C3222.4554,197.8667 3222.64,197.83 3217,198.5 C2898.13,236.3 2523.14,267.45 2319.38,283.26 " fill="transparent" id="logic_arc_int__baselibs__future-backto-comp_arc_sta__baselibs__concurrency" style="stroke:#181818;stroke-width:1;"/><polygon fill="#181818" points="3234.23,196.41,3224.807,193.5452,3229.2678,197.0239,3225.7892,201.4847,3234.23,196.41" style="stroke:#181818;stroke-width:1;"/><text fill="#000000" font-family="sans-serif" font-size="13" lengthAdjust="spacing" textLength="76.9082" x="2931" y="241.5669">implements</text></g><!--link Feature_User to logic_arc_int__baselibs__task--><g id="link_Feature_User_logic_arc_int__baselibs__task"><path codeLine="26" d="M2987.92,46.96 C2810.52,56.88 2143.37,96.43 1597,158.5 C1591.51,159.12 1591.8648,159.0548 1586.1948,159.7548 " fill="transparent" id="Feature_User-to-logic_arc_int__baselibs__task" style="stroke:#181818;stroke-width:1;"/><polygon fill="#181818" points="1580.24,160.49,1589.6623,163.3571,1585.2023,159.8774,1588.6821,155.4174,1580.24,160.49" style="stroke:#181818;stroke-width:1;"/><text fill="#000000" font-family="sans-serif" font-size="13" lengthAdjust="spacing" textLength="23.0103" x="2071" y="124.5669">use</text></g><!--reverse link logic_arc_int__baselibs__utils_base64 to comp_arc_sta__baselibs__utils--><g id="link_logic_arc_int__baselibs__utils_base64_comp_arc_sta__baselibs__utils"><path codeLine="27" d="M5365.4926,202.9926 C5386.7226,224.2226 5416.44,253.94 5437.69,275.19 " fill="transparent" id="logic_arc_int__baselibs__utils_base64-backto-comp_arc_sta__baselibs__utils" style="stroke:#181818;stroke-width:1;"/><polygon fill="#181818" points="5361.25,198.75,5364.7855,207.9424,5364.7855,202.2855,5370.4424,202.2855,5361.25,198.75" style="stroke:#181818;stroke-width:1;"/><text fill="#000000" font-family="sans-serif" font-size="13" lengthAdjust="spacing" textLength="76.9082" x="5408" y="241.5669">implements</text></g><!--link Feature_User to logic_arc_int__baselibs__filesystem--><g id="link_Feature_User_logic_arc_int__baselibs__filesystem"><path codeLine="28" d="M2987.73,46.3 C2812.45,53.36 2161.57,80.27 1626,111.5 C1323.13,129.16 1247.01,129.59 945,158.5 C939.47,159.03 939.7981,158.9822 934.0981,159.5722 " fill="transparent" id="Feature_User-to-logic_arc_int__baselibs__filesystem" style="stroke:#181818;stroke-width:1;"/><polygon fill="#181818" points="928.13,160.19,937.494,163.2421,933.1034,159.6752,936.6703,155.2846,928.13,160.19" style="stroke:#181818;stroke-width:1;"/><text fill="#000000" font-family="sans-serif" font-size="13" lengthAdjust="spacing" textLength="23.0103" x="1627" y="124.5669">use</text></g><!--reverse link logic_arc_int__baselibs__promise to comp_arc_sta__baselibs__concurrency--><g id="link_logic_arc_int__baselibs__promise_comp_arc_sta__baselibs__concurrency"><path codeLine="29" d="M2606.9855,199.8178 C2508.5055,221.1078 2355.87,254.11 2257.32,275.41 " fill="transparent" id="logic_arc_int__baselibs__promise-backto-comp_arc_sta__baselibs__concurrency" style="stroke:#181818;stroke-width:1;"/><polygon fill="#181818" points="2612.85,198.55,2603.208,196.5421,2607.9629,199.6065,2604.8984,204.3614,2612.85,198.55" style="stroke:#181818;stroke-width:1;"/><text fill="#000000" font-family="sans-serif" font-size="13" lengthAdjust="spacing" textLength="76.9082" x="2468" y="241.5669">implements</text></g><!--reverse link logic_arc_int__baselibs__result to comp_arc_sta__baselibs__result--><g id="link_logic_arc_int__baselibs__result_comp_arc_sta__baselibs__result"><path codeLine="30" d="M4367,204.75 C4367,225.98 4367,253.94 4367,275.19 " fill="transparent" id="logic_arc_int__baselibs__result-backto-comp_arc_sta__baselibs__result" style="stroke:#181818;stroke-width:1;"/><polygon fill="#181818" points="4367,198.75,4363,207.75,4367,203.75,4371,207.75,4367,198.75" style="stroke:#181818;stroke-width:1;"/><text fill="#000000" font-family="sans-serif" font-size="13" lengthAdjust="spacing" textLength="76.9082" x="4368" y="241.5669">implements</text></g><!--reverse link logic_arc_int__baselibs__task_result to comp_arc_sta__baselibs__concurrency--><g id="link_logic_arc_int__baselibs__task_result_comp_arc_sta__baselibs__concurrency"><path codeLine="31" d="M2079.9356,203.049 C2100.6056,224.279 2129.49,253.94 2150.19,275.19 " fill="transparent" id="logic_arc_int__baselibs__task_result-backto-comp_arc_sta__baselibs__concurrency" style="stroke:#181818;stroke-width:1;"/><polygon fill="#181818" points="2075.75,198.75,2079.1624,207.9888,2079.238,202.3325,2084.8943,202.4081,2075.75,198.75" style="stroke:#181818;stroke-width:1;"/><text fill="#000000" font-family="sans-serif" font-size="13" lengthAdjust="spacing" textLength="76.9082" x="2121" y="241.5669">implements</text></g><!--link Feature_User to logic_arc_int__baselibs__intrusive_list--><g id="link_Feature_User_logic_arc_int__baselibs__intrusive_list"><path codeLine="32" d="M3078.27,47.22 C3258.7,58.25 3943.94,101.69 4506,158.5 C4512.02,159.11 4512.2026,159.1254 4518.4126,159.7754 " fill="transparent" id="Feature_User-to-logic_arc_int__baselibs__intrusive_list" style="stroke:#181818;stroke-width:1;"/><polygon fill="#181818" points="4524.38,160.4,4515.8453,155.4848,4519.4072,159.8795,4515.0125,163.4414,4524.38,160.4" style="stroke:#181818;stroke-width:1;"/><text fill="#000000" font-family="sans-serif" font-size="13" lengthAdjust="spacing" textLength="23.0103" x="4185" y="124.5669">use</text></g><!--link Feature_User to logic_arc_int__baselibs__future--><g id="link_Feature_User_logic_arc_int__baselibs__future"><path codeLine="33" d="M3078.19,62.99 C3139.67,88.15 3243.5769,130.6777 3305.7969,156.1377 " fill="transparent" id="Feature_User-to-logic_arc_int__baselibs__future" style="stroke:#181818;stroke-width:1;"/><polygon fill="#181818" points="3311.35,158.41,3304.5352,151.2995,3306.7224,156.5164,3301.5055,158.7036,3311.35,158.41" style="stroke:#181818;stroke-width:1;"/><text fill="#000000" font-family="sans-serif" font-size="13" lengthAdjust="spacing" textLength="23.0103" x="3236" y="124.5669">use</text></g><!--link Feature_User to logic_arc_int__baselibs__shared_future--><g id="link_Feature_User_logic_arc_int__baselibs__shared_future"><path codeLine="34" d="M2987.88,53.75 C2882.45,75.35 2624.0878,128.2953 2482.6478,157.2853 " fill="transparent" id="Feature_User-to-logic_arc_int__baselibs__shared_future" style="stroke:#181818;stroke-width:1;"/><polygon fill="#181818" points="2476.77,158.49,2486.3899,160.6014,2481.6682,157.4861,2484.7836,152.7644,2476.77,158.49" style="stroke:#181818;stroke-width:1;"/><text fill="#000000" font-family="sans-serif" font-size="13" lengthAdjust="spacing" textLength="23.0103" x="2691" y="124.5669">use</text></g><!--reverse link logic_arc_int__baselibs__executor to comp_arc_sta__baselibs__concurrency--><g id="link_logic_arc_int__baselibs__executor_comp_arc_sta__baselibs__concurrency"><path codeLine="35" d="M1823.778,200.201 C1901.758,221.501 2021.29,254.15 2099.19,275.43 " fill="transparent" id="logic_arc_int__baselibs__executor-backto-comp_arc_sta__baselibs__concurrency" style="stroke:#181818;stroke-width:1;"/><polygon fill="#181818" points="1817.99,198.62,1825.618,204.8501,1822.8133,199.9375,1827.7259,197.1328,1817.99,198.62" style="stroke:#181818;stroke-width:1;"/><text fill="#000000" font-family="sans-serif" font-size="13" lengthAdjust="spacing" textLength="76.9082" x="1985" y="241.5669">implements</text></g><!--reverse link logic_arc_int__baselibs__intrusive_list to comp_arc_sta__baselibs__containers--><g id="link_logic_arc_int__baselibs__intrusive_list_comp_arc_sta__baselibs__containers"><path codeLine="36" d="M4704.2506,202.1252 C4735.5406,223.4152 4780.69,254.14 4811.9,275.38 " fill="transparent" id="logic_arc_int__baselibs__intrusive_list-backto-comp_arc_sta__baselibs__containers" style="stroke:#181818;stroke-width:1;"/><polygon fill="#181818" points="4699.29,198.75,4704.4808,207.1199,4703.4238,201.5627,4708.9811,200.5058,4699.29,198.75" style="stroke:#181818;stroke-width:1;"/><text fill="#000000" font-family="sans-serif" font-size="13" lengthAdjust="spacing" textLength="76.9082" x="4767" y="241.5669">implements</text></g><!--link Feature_User to logic_arc_int__baselibs__utils_base64--><g id="link_Feature_User_logic_arc_int__baselibs__utils_base64"><path codeLine="37" d="M3078.14,46.27 C3255.83,53.29 3924.22,80.37 4474,111.5 C4787.08,129.23 4865.71,130 5178,158.5 C5183.85,159.03 5183.8496,159.0049 5189.8696,159.6049 " fill="transparent" id="Feature_User-to-logic_arc_int__baselibs__utils_base64" style="stroke:#181818;stroke-width:1;"/><polygon fill="#181818" points="5195.84,160.2,5187.2811,155.3271,5190.8647,159.7041,5186.4877,163.2877,5195.84,160.2" style="stroke:#181818;stroke-width:1;"/><text fill="#000000" font-family="sans-serif" font-size="13" lengthAdjust="spacing" textLength="23.0103" x="4781" y="124.5669">use</text></g><!--link Feature_User to logic_arc_int__baselibs__message_passing--><g id="link_Feature_User_logic_arc_int__baselibs__message_passing"><path codeLine="38" d="M2987.74,45.71 C2788.49,51.17 1969.58,74.77 1298,111.5 C1002.59,127.65 928.71,132.61 634,158.5 C628.49,158.98 628.8647,158.9401 623.2147,159.4601 " fill="transparent" id="Feature_User-to-logic_arc_int__baselibs__message_passing" style="stroke:#181818;stroke-width:1;"/><polygon fill="#181818" points="617.24,160.01,626.5687,163.1683,622.219,159.5518,625.8355,155.202,617.24,160.01" style="stroke:#181818;stroke-width:1;"/><text fill="#000000" font-family="sans-serif" font-size="13" lengthAdjust="spacing" textLength="23.0103" x="1299" y="124.5669">use</text></g><!--reverse link logic_arc_int__baselibs__filesystem to comp_arc_sta__baselibs__filesystem--><g id="link_logic_arc_int__baselibs__filesystem_comp_arc_sta__baselibs__filesystem"><path codeLine="39" d="M791.9777,204.7317 C793.6377,225.9617 795.83,253.94 797.49,275.19 " fill="transparent" id="logic_arc_int__baselibs__filesystem-backto-comp_arc_sta__baselibs__filesystem" style="stroke:#181818;stroke-width:1;"/><polygon fill="#181818" points="791.51,198.75,788.2238,208.0344,791.8998,203.7348,796.1994,207.4108,791.51,198.75" style="stroke:#181818;stroke-width:1;"/><text fill="#000000" font-family="sans-serif" font-size="13" lengthAdjust="spacing" textLength="76.9082" x="797" y="241.5669">implements</text></g><!--reverse link logic_arc_int__baselibs__condition_variable to comp_arc_sta__baselibs__concurrency--><g id="link_logic_arc_int__baselibs__condition_variable_comp_arc_sta__baselibs__concurrency"><path codeLine="40" d="M2891.3273,199.3474 C2795.2273,212.7274 2669.22,230.09 2553,245.5 C2475.88,255.72 2390,266.72 2319.04,275.7 " fill="transparent" id="logic_arc_int__baselibs__condition_variable-backto-comp_arc_sta__baselibs__concurrency" style="stroke:#181818;stroke-width:1;"/><polygon fill="#181818" points="2897.27,198.52,2887.8044,195.7993,2892.3178,199.2095,2888.9076,203.7229,2897.27,198.52" style="stroke:#181818;stroke-width:1;"/><text fill="#000000" font-family="sans-serif" font-size="13" lengthAdjust="spacing" textLength="76.9082" x="2673" y="241.5669">implements</text></g><!--link Feature_User to logic_arc_int__baselibs__memory_shared--><g id="link_Feature_User_logic_arc_int__baselibs__memory_shared"><path codeLine="41" d="M3078,45.35 C3301.68,49.71 4316.14,70.89 5146,111.5 C5461.87,126.96 5540.94,131.17 5856,158.5 C5861.85,159.01 5861.8359,158.9833 5867.8459,159.5433 " fill="transparent" id="Feature_User-to-logic_arc_int__baselibs__memory_shared" style="stroke:#181818;stroke-width:1;"/><polygon fill="#181818" points="5873.82,160.1,5865.2299,155.2823,5868.8416,159.6361,5864.4877,163.2478,5873.82,160.1" style="stroke:#181818;stroke-width:1;"/><text fill="#000000" font-family="sans-serif" font-size="13" lengthAdjust="spacing" textLength="23.0103" x="5467" y="124.5669">use</text></g><!--link Feature_User to logic_arc_int__baselibs__condition_variable--><g id="link_Feature_User_logic_arc_int__baselibs__condition_variable"><path codeLine="42" d="M3033,81.55 C3033,106.45 3033,132.26 3033,152.26 " fill="transparent" id="Feature_User-to-logic_arc_int__baselibs__condition_variable" style="stroke:#181818;stroke-width:1;"/><polygon fill="#181818" points="3033,158.26,3037,149.26,3033,153.26,3029,149.26,3033,158.26" style="stroke:#181818;stroke-width:1;"/><text fill="#000000" font-family="sans-serif" font-size="13" lengthAdjust="spacing" textLength="23.0103" x="3034" y="124.5669">use</text></g><!--reverse link logic_arc_int__baselibs__message_passing to comp_arc_sta__baselibs__message_passing--><g id="link_logic_arc_int__baselibs__message_passing_comp_arc_sta__baselibs__message_passing"><path codeLine="43" d="M453,204.75 C453,225.98 453,253.94 453,275.19 " fill="transparent" id="logic_arc_int__baselibs__message_passing-backto-comp_arc_sta__baselibs__message_passing" style="stroke:#181818;stroke-width:1;"/><polygon fill="#181818" points="453,198.75,449,207.75,453,203.75,457,207.75,453,198.75" style="stroke:#181818;stroke-width:1;"/><text fill="#000000" font-family="sans-serif" font-size="13" lengthAdjust="spacing" textLength="76.9082" x="454" y="241.5669">implements</text></g><!--link Feature_User to logic_arc_int__baselibs__json--><g id="link_Feature_User_logic_arc_int__baselibs__json"><path codeLine="44" d="M2987.78,45.41 C2767.34,49.95 1783.3,71.62 978,111.5 C663.47,127.08 584.29,126.56 271,158.5 C264.02,159.21 262.8199,159.3176 255.5899,160.1576 " fill="transparent" id="Feature_User-to-logic_arc_int__baselibs__json" style="stroke:#181818;stroke-width:1;"/><polygon fill="#181818" points="249.63,160.85,259.0315,163.7846,254.5966,160.273,258.1082,155.8381,249.63,160.85" style="stroke:#181818;stroke-width:1;"/><text fill="#000000" font-family="sans-serif" font-size="13" lengthAdjust="spacing" textLength="23.0103" x="979" y="124.5669">use</text></g><!--reverse link logic_arc_int__baselibs__json to comp_arc_sta__baselibs__json--><g id="link_logic_arc_int__baselibs__json_comp_arc_sta__baselibs__json"><path codeLine="45" d="M131.9002,204.7444 C130.9802,225.9744 129.76,253.94 128.84,275.19 " fill="transparent" id="logic_arc_int__baselibs__json-backto-comp_arc_sta__baselibs__json" style="stroke:#181818;stroke-width:1;"/><polygon fill="#181818" points="132.16,198.75,127.7741,207.5684,131.9435,203.7453,135.7666,207.9147,132.16,198.75" style="stroke:#181818;stroke-width:1;"/><text fill="#000000" font-family="sans-serif" font-size="13" lengthAdjust="spacing" textLength="76.9082" x="132" y="241.5669">implements</text></g><!--reverse link logic_arc_int__baselibs__shared_future to comp_arc_sta__baselibs__concurrency--><g id="link_logic_arc_int__baselibs__shared_future_comp_arc_sta__baselibs__concurrency"><path codeLine="46" d="M2342.7194,201.5801 C2302.9194,222.8701 2244.46,254.14 2204.75,275.38 " fill="transparent" id="logic_arc_int__baselibs__shared_future-backto-comp_arc_sta__baselibs__concurrency" style="stroke:#181818;stroke-width:1;"/><polygon fill="#181818" points="2348.01,198.75,2338.1874,199.468,2343.6012,201.1084,2341.9608,206.5222,2348.01,198.75" style="stroke:#181818;stroke-width:1;"/><text fill="#000000" font-family="sans-serif" font-size="13" lengthAdjust="spacing" textLength="76.9082" x="2291" y="241.5669">implements</text></g><!--link Feature_User to logic_arc_int__baselibs__bit_manipulation--><g id="link_Feature_User_logic_arc_int__baselibs__bit_manipulation"><path codeLine="47" d="M3078.1,53.8 C3183,75.43 3439.2336,128.2683 3579.7336,157.2383 " fill="transparent" id="Feature_User-to-logic_arc_int__baselibs__bit_manipulation" style="stroke:#181818;stroke-width:1;"/><polygon fill="#181818" points="3585.61,158.45,3577.6032,152.7149,3580.713,157.4403,3575.9877,160.5501,3585.61,158.45" style="stroke:#181818;stroke-width:1;"/><text fill="#000000" font-family="sans-serif" font-size="13" lengthAdjust="spacing" textLength="23.0103" x="3434" y="124.5669">use</text></g><!--link Feature_User to logic_arc_int__baselibs__result--><g id="link_Feature_User_logic_arc_int__baselibs__result"><path codeLine="48" d="M3078.07,48.15 C3236.09,61.1 3779.67,106.81 4227,158.5 C4232.85,159.18 4232.8745,159.1604 4238.9145,159.9004 " fill="transparent" id="Feature_User-to-logic_arc_int__baselibs__result" style="stroke:#181818;stroke-width:1;"/><polygon fill="#181818" points="4244.87,160.63,4236.4232,155.5652,4239.9071,160.022,4235.4504,163.5058,4244.87,160.63" style="stroke:#181818;stroke-width:1;"/><text fill="#000000" font-family="sans-serif" font-size="13" lengthAdjust="spacing" textLength="23.0103" x="3934" y="124.5669">use</text></g><!--reverse link logic_arc_int__baselibs__bit_mask_operator to comp_arc_sta__baselibs__bit_manipulation--><g id="link_logic_arc_int__baselibs__bit_mask_operator_comp_arc_sta__baselibs__bit_manipulation"><path codeLine="49" d="M4006.2898,201.9424 C3972.4098,223.2324 3923.22,254.14 3889.42,275.38 " fill="transparent" id="logic_arc_int__baselibs__bit_mask_operator-backto-comp_arc_sta__baselibs__bit_manipulation" style="stroke:#181818;stroke-width:1;"/><polygon fill="#181818" points="4011.37,198.75,4001.6214,200.1518,4007.1365,201.4103,4005.8779,206.9254,4011.37,198.75" style="stroke:#181818;stroke-width:1;"/><text fill="#000000" font-family="sans-serif" font-size="13" lengthAdjust="spacing" textLength="76.9082" x="3963" y="241.5669">implements</text></g><!--link Feature_User to logic_arc_int__baselibs__dynamic_array--><g id="link_Feature_User_logic_arc_int__baselibs__dynamic_array"><path codeLine="50" d="M3078.34,46.37 C3282.47,55.01 4136.63,93.39 4835,158.5 C4840.83,159.04 4840.8088,159.0328 4846.8088,159.6228 " fill="transparent" id="Feature_User-to-logic_arc_int__baselibs__dynamic_array" style="stroke:#181818;stroke-width:1;"/><polygon fill="#181818" points="4852.78,160.21,4844.2146,155.3484,4847.804,159.7207,4843.4318,163.31,4852.78,160.21" style="stroke:#181818;stroke-width:1;"/><text fill="#000000" font-family="sans-serif" font-size="13" lengthAdjust="spacing" textLength="23.0103" x="4442" y="124.5669">use</text></g><!--link Feature_User to logic_arc_int__baselibs__synchronized_queue--><g id="link_Feature_User_logic_arc_int__baselibs__synchronized_queue"><path codeLine="51" d="M2987.84,46.68 C2833.06,54.23 2309.74,80.54 1878,111.5 C1633.29,129.05 1572.29,135.91 1328,158.5 C1322.44,159.01 1322.7633,158.9741 1317.0633,159.5141 " fill="transparent" id="Feature_User-to-logic_arc_int__baselibs__synchronized_queue" style="stroke:#181818;stroke-width:1;"/><polygon fill="#181818" points="1311.09,160.08,1320.4271,163.2133,1316.0677,159.6084,1319.6726,155.249,1311.09,160.08" style="stroke:#181818;stroke-width:1;"/><text fill="#000000" font-family="sans-serif" font-size="13" lengthAdjust="spacing" textLength="23.0103" x="1879" y="124.5669">use</text></g><!--reverse link logic_arc_int__baselibs__task to comp_arc_sta__baselibs__concurrency--><g id="link_logic_arc_int__baselibs__task_comp_arc_sta__baselibs__concurrency"><path codeLine="52" d="M1576.6904,199.5528 C1653.8304,213.0328 1754.28,230.32 1848,245.5 C1911.44,255.78 1982.03,266.62 2040.83,275.48 " fill="transparent" id="logic_arc_int__baselibs__task-backto-comp_arc_sta__baselibs__concurrency" style="stroke:#181818;stroke-width:1;"/><polygon fill="#181818" points="1570.78,198.52,1578.9571,204.0095,1575.7054,199.3807,1580.3342,196.129,1570.78,198.52" style="stroke:#181818;stroke-width:1;"/><text fill="#000000" font-family="sans-serif" font-size="13" lengthAdjust="spacing" textLength="76.9082" x="1849" y="241.5669">implements</text></g><!--SRC=[hLOzRzmm3DtzAuJibnP5qQ48iXJerB6T1LbcxjZegoALnWdwtoEVSxcpcujinwDiyebyUlnGnlY_qk8zkct5FWZselRCtee68sX6xweTDY288OBdDa1_1Xku5OevOfqOgBeYRWrSLvUAqDJYiVg13hvvuwE8qEnFFtUeRnqGYK-N7wj_rTM7PvzAQSvs5zz1SOeWVX742w58F7-GtGTHQM-3L55BOYLbhGWCrYIbzevLneyaDcbpBOpVejuRekDJmwProkv_HTL-5MY30GkEILHdmHEZAU7kRIHf7w2HFWoH1pbicbauYM0M02kwbH4e6PxlN2DBsm7awwFA3p8V0kv1fwFdEKxxcno6P5GdiGAzO_CXl-SkiM1zR2NjLDPVuOQ1xJJuB3gTOWIdsm8ujKxledVua5_rJu84YmKIehT8KA1tUcWtgRjvSJYTt0gnJ2-Vxlpby-9ORj00jRbDsTNOUM5xYXxwgYiW7afpNO4DgduXVVaO4-4TI8Eqe7aSb3JNho-veVlx6JdseObCJviVOvBUrUOFUf_BcCq3L6r11aMKntQ1isDPb5h1IVsiAyzisM3Nj-MTYgXgixpXZFhqNEfUY-HDzaPS5wV8w6KMPlcRkXdtPc2TII6Q7cNbKJQireNv_J_FvpxaOCLPTSiOh3yBynkjcRDRuYlxmafziH_Ofsaz0G00]--></g></svg>