<svg xmlns="http://www.w3.org/2000/svg" xmlns:xlink="http://www.w3.org/1999/xlink" contentStyleType="text/css" data-diagram-type="CLASS" height="322px" preserveAspectRatio="none" style="width:6190px;height:322px;background:#FFFFFF;" version="1.1" viewBox="0 0 6190 322" width="6190px" zoomAndPan="magnify"><defs/><g><!--entity Feature_User--><g id="elem_Feature_User"><ellipse cx="3288.6685" cy="14" fill="#F1F1F1" rx="8" ry="8" style="stroke:#181818;stroke-width:0.5;"/><path d="M3288.6685,22 L3288.6685,49 M3275.6685,30 L3301.6685,30 M3288.6685,49 L3275.6685,64 M3288.6685,49 L3301.6685,64 " fill="transparent" style="stroke:#181818;stroke-width:0.5;"/><text fill="#000000" font-family="sans-serif" font-size="14" lengthAdjust="spacing" textLength="90.3369" x="3243.5" y="78.4951">Feature User</text></g><!--class logic_arc_int__baselibs__json--><g id="elem_logic_arc_int__baselibs__json"><rect fill="#F1F1F1" height="40" id="logic_arc_int__baselibs__json" rx="2.5" ry="2.5" style="stroke:#181818;stroke-width:0.5;" width="233.168" x="5279" y="158.5"/><ellipse cx="5294" cy="174.5" fill="#ADD1B2" rx="11" ry="11" style="stroke:#181818;stroke-width:1;"/><path d="M5296.9688,180.1406 Q5296.3906,180.4375 5295.75,180.5781 Q5295.1094,180.7344 5294.4063,180.7344 Q5291.9063,180.7344 5290.5781,179.0938 Q5289.2656,177.4375 5289.2656,174.3125 Q5289.2656,171.1875 5290.5781,169.5313 Q5291.9063,167.875 5294.4063,167.875 Q5295.1094,167.875 5295.75,168.0313 Q5296.4063,168.1875 5296.9688,168.4844 L5296.9688,171.2031 Q5296.3438,170.625 5295.75,170.3594 Q5295.1563,170.0781 5294.5313,170.0781 Q5293.1875,170.0781 5292.5,171.1563 Q5291.8125,172.2188 5291.8125,174.3125 Q5291.8125,176.4063 5292.5,177.4844 Q5293.1875,178.5469 5294.5313,178.5469 Q5295.1563,178.5469 5295.75,178.2813 Q5296.3438,178 5296.9688,177.4219 L5296.9688,180.1406 Z " fill="#000000"/><text fill="#000000" font-family="sans-serif" font-size="14" lengthAdjust="spacing" textLength="201.168" x="5308" y="179.3467">logic_arc_int__baselibs__json</text><line style="stroke:#181818;stroke-width:0.5;" x1="5280" x2="5511.168" y1="190.5" y2="190.5"/></g><!--class logic_arc_int__baselibs__message_passing--><g id="elem_logic_arc_int__baselibs__message_passing"><rect fill="#F1F1F1" height="40" id="logic_arc_int__baselibs__message_passing" rx="2.5" ry="2.5" style="stroke:#181818;stroke-width:0.5;" width="328.167" x="1353.5" y="158.5"/><ellipse cx="1368.5" cy="174.5" fill="#ADD1B2" rx="11" ry="11" style="stroke:#181818;stroke-width:1;"/><path d="M1371.4688,180.1406 Q1370.8906,180.4375 1370.25,180.5781 Q1369.6094,180.7344 1368.9063,180.7344 Q1366.4063,180.7344 1365.0781,179.0938 Q1363.7656,177.4375 1363.7656,174.3125 Q1363.7656,171.1875 1365.0781,169.5313 Q1366.4063,167.875 1368.9063,167.875 Q1369.6094,167.875 1370.25,168.0313 Q1370.9063,168.1875 1371.4688,168.4844 L1371.4688,171.2031 Q1370.8438,170.625 1370.25,170.3594 Q1369.6563,170.0781 1369.0313,170.0781 Q1367.6875,170.0781 1367,171.1563 Q1366.3125,172.2188 1366.3125,174.3125 Q1366.3125,176.4063 1367,177.4844 Q1367.6875,178.5469 1369.0313,178.5469 Q1369.6563,178.5469 1370.25,178.2813 Q1370.8438,178 1371.4688,177.4219 L1371.4688,180.1406 Z " fill="#000000"/><text fill="#000000" font-family="sans-serif" font-size="14" lengthAdjust="spacing" textLength="296.167" x="1382.5" y="179.3467">logic_arc_int__baselibs__message_passing</text><line style="stroke:#181818;stroke-width:0.5;" x1="1354.5" x2="1680.667" y1="190.5" y2="190.5"/></g><!--class logic_arc_int__baselibs__result--><g id="elem_logic_arc_int__baselibs__result"><rect fill="#F1F1F1" height="40" id="logic_arc_int__baselibs__result" rx="2.5" ry="2.5" style="stroke:#181818;stroke-width:0.5;" width="244.4609" x="4999.5" y="158.5"/><ellipse cx="5014.5" cy="174.5" fill="#ADD1B2" rx="11" ry="11" style="stroke:#181818;stroke-width:1;"/><path d="M5017.4688,180.1406 Q5016.8906,180.4375 5016.25,180.5781 Q5015.6094,180.7344 5014.9063,180.7344 Q5012.4063,180.7344 5011.0781,179.0938 Q5009.7656,177.4375 5009.7656,174.3125 Q5009.7656,171.1875 5011.0781,169.5313 Q5012.4063,167.875 5014.9063,167.875 Q5015.6094,167.875 5016.25,168.0313 Q5016.9063,168.1875 5017.4688,168.4844 L5017.4688,171.2031 Q5016.8438,170.625 5016.25,170.3594 Q5015.6563,170.0781 5015.0313,170.0781 Q5013.6875,170.0781 5013,171.1563 Q5012.3125,172.2188 5012.3125,174.3125 Q5012.3125,176.4063 5013,177.4844 Q5013.6875,178.5469 5015.0313,178.5469 Q5015.6563,178.5469 5016.25,178.2813 Q5016.8438,178 5017.4688,177.4219 L5017.4688,180.1406 Z " fill="#000000"/><text fill="#000000" font-family="sans-serif" font-size="14" lengthAdjust="spacing" textLength="212.4609" x="5028.5" y="179.3467">logic_arc_int__baselibs__result</text><line style="stroke:#181818;stroke-width:0.5;" x1="5000.5" x2="5242.9609" y1="190.5" y2="190.5"/></g><!--class logic_arc_int__baselibs__utils_scoped_op--><g id="elem_logic_arc_int__baselibs__utils_scoped_op"><rect fill="#F1F1F1" height="40" id="logic_arc_int__baselibs__utils_scoped_op" rx="2.5" ry="2.5" style="stroke:#181818;stroke-width:0.5;" width="315.377" x="365" y="158.5"/><ellipse cx="380" cy="174.5" fill="#ADD1B2" rx="11" ry="11" style="stroke:#181818;stroke-width:1;"/><path d="M382.9688,180.1406 Q382.3906,180.4375 381.75,180.5781 Q381.1094,180.7344 380.4063,180.7344 Q377.9063,180.7344 376.5781,179.0938 Q375.2656,177.4375 375.2656,174.3125 Q375.2656,171.1875 376.5781,169.5313 Q377.9063,167.875 380.4063,167.875 Q381.1094,167.875 381.75,168.0313 Q382.4063,168.1875 382.9688,168.4844 L382.9688,171.2031 Q382.3438,170.625 381.75,170.3594 Q381.1563,170.0781 380.5313,170.0781 Q379.1875,170.0781 378.5,171.1563 Q377.8125,172.2188 377.8125,174.3125 Q377.8125,176.4063 378.5,177.4844 Q379.1875,178.5469 380.5313,178.5469 Q381.1563,178.5469 381.75,178.2813 Q382.3438,178 382.9688,177.4219 L382.9688,180.1406 Z " fill="#000000"/><text fill="#000000" font-family="sans-serif" font-size="14" lengthAdjust="spacing" textLength="283.377" x="394" y="179.3467">logic_arc_int__baselibs__utils_scoped_op</text><line style="stroke:#181818;stroke-width:0.5;" x1="366" x2="679.377" y1="190.5" y2="190.5"/></g><!--class comp_arc_sta__baselibs__concurrency--><g id="elem_comp_arc_sta__baselibs__concurrency"><rect fill="#F1F1F1" height="40" id="comp_arc_sta__baselibs__concurrency" rx="2.5" ry="2.5" style="stroke:#181818;stroke-width:0.5;" width="300.2012" x="3570.5" y="275.5"/><ellipse cx="3585.5" cy="291.5" fill="#ADD1B2" rx="11" ry="11" style="stroke:#181818;stroke-width:1;"/><path d="M3588.4688,297.1406 Q3587.8906,297.4375 3587.25,297.5781 Q3586.6094,297.7344 3585.9063,297.7344 Q3583.4063,297.7344 3582.0781,296.0938 Q3580.7656,294.4375 3580.7656,291.3125 Q3580.7656,288.1875 3582.0781,286.5313 Q3583.4063,284.875 3585.9063,284.875 Q3586.6094,284.875 3587.25,285.0313 Q3587.9063,285.1875 3588.4688,285.4844 L3588.4688,288.2031 Q3587.8438,287.625 3587.25,287.3594 Q3586.6563,287.0781 3586.0313,287.0781 Q3584.6875,287.0781 3584,288.1563 Q3583.3125,289.2188 3583.3125,291.3125 Q3583.3125,293.4063 3584,294.4844 Q3584.6875,295.5469 3586.0313,295.5469 Q3586.6563,295.5469 3587.25,295.2813 Q3587.8438,295 3588.4688,294.4219 L3588.4688,297.1406 Z " fill="#000000"/><text fill="#000000" font-family="sans-serif" font-size="14" lengthAdjust="spacing" textLength="268.2012" x="3599.5" y="296.3467">comp_arc_sta__baselibs__concurrency</text><line style="stroke:#181818;stroke-width:0.5;" x1="3571.5" x2="3869.7012" y1="307.5" y2="307.5"/></g><!--class logic_arc_int__baselibs__condition_variable--><g id="elem_logic_arc_int__baselibs__condition_variable"><rect fill="#F1F1F1" height="40" id="logic_arc_int__baselibs__condition_variable" rx="2.5" ry="2.5" style="stroke:#181818;stroke-width:0.5;" width="332.7539" x="2445" y="158.5"/><ellipse cx="2460" cy="174.5" fill="#ADD1B2" rx="11" ry="11" style="stroke:#181818;stroke-width:1;"/><path d="M2462.9688,180.1406 Q2462.3906,180.4375 2461.75,180.5781 Q2461.1094,180.7344 2460.4063,180.7344 Q2457.9063,180.7344 2456.5781,179.0938 Q2455.2656,177.4375 2455.2656,174.3125 Q2455.2656,171.1875 2456.5781,169.5313 Q2457.9063,167.875 2460.4063,167.875 Q2461.1094,167.875 2461.75,168.0313 Q2462.4063,168.1875 2462.9688,168.4844 L2462.9688,171.2031 Q2462.3438,170.625 2461.75,170.3594 Q2461.1563,170.0781 2460.5313,170.0781 Q2459.1875,170.0781 2458.5,171.1563 Q2457.8125,172.2188 2457.8125,174.3125 Q2457.8125,176.4063 2458.5,177.4844 Q2459.1875,178.5469 2460.5313,178.5469 Q2461.1563,178.5469 2461.75,178.2813 Q2462.3438,178 2462.9688,177.4219 L2462.9688,180.1406 Z " fill="#000000"/><text fill="#000000" font-family="sans-serif" font-size="14" lengthAdjust="spacing" textLength="300.7539" x="2474" y="179.3467">logic_arc_int__baselibs__condition_variable</text><line style="stroke:#181818;stroke-width:0.5;" x1="2446" x2="2776.7539" y1="190.5" y2="190.5"/></g><!--class comp_arc_sta__baselibs__containers--><g id="elem_comp_arc_sta__baselibs__containers"><rect fill="#F1F1F1" height="40" id="comp_arc_sta__baselibs__containers" rx="2.5" ry="2.5" style="stroke:#181818;stroke-width:0.5;" width="287.1445" x="5719" y="275.5"/><ellipse cx="5734" cy="291.5" fill="#ADD1B2" rx="11" ry="11" style="stroke:#181818;stroke-width:1;"/><path d="M5736.9688,297.1406 Q5736.3906,297.4375 5735.75,297.5781 Q5735.1094,297.7344 5734.4063,297.7344 Q5731.9063,297.7344 5730.5781,296.0938 Q5729.2656,294.4375 5729.2656,291.3125 Q5729.2656,288.1875 5730.5781,286.5313 Q5731.9063,284.875 5734.4063,284.875 Q5735.1094,284.875 5735.75,285.0313 Q5736.4063,285.1875 5736.9688,285.4844 L5736.9688,288.2031 Q5736.3438,287.625 5735.75,287.3594 Q5735.1563,287.0781 5734.5313,287.0781 Q5733.1875,287.0781 5732.5,288.1563 Q5731.8125,289.2188 5731.8125,291.3125 Q5731.8125,293.4063 5732.5,294.4844 Q5733.1875,295.5469 5734.5313,295.5469 Q5735.1563,295.5469 5735.75,295.2813 Q5736.3438,295 5736.9688,294.4219 L5736.9688,297.1406 Z " fill="#000000"/><text fill="#000000" font-family="sans-serif" font-size="14" lengthAdjust="spacing" textLength="255.1445" x="5748" y="296.3467">comp_arc_sta__baselibs__containers</text><line style="stroke:#181818;stroke-width:0.5;" x1="5720" x2="6005.1445" y1="307.5" y2="307.5"/></g><!--class logic_arc_int__baselibs__intrusive_list--><g id="elem_logic_arc_int__baselibs__intrusive_list"><rect fill="#F1F1F1" height="40" id="logic_arc_int__baselibs__intrusive_list" rx="2.5" ry="2.5" style="stroke:#181818;stroke-width:0.5;" width="293.0713" x="5547" y="158.5"/><ellipse cx="5562" cy="174.5" fill="#ADD1B2" rx="11" ry="11" style="stroke:#181818;stroke-width:1;"/><path d="M5564.9688,180.1406 Q5564.3906,180.4375 5563.75,180.5781 Q5563.1094,180.7344 5562.4063,180.7344 Q5559.9063,180.7344 5558.5781,179.0938 Q5557.2656,177.4375 5557.2656,174.3125 Q5557.2656,171.1875 5558.5781,169.5313 Q5559.9063,167.875 5562.4063,167.875 Q5563.1094,167.875 5563.75,168.0313 Q5564.4063,168.1875 5564.9688,168.4844 L5564.9688,171.2031 Q5564.3438,170.625 5563.75,170.3594 Q5563.1563,170.0781 5562.5313,170.0781 Q5561.1875,170.0781 5560.5,171.1563 Q5559.8125,172.2188 5559.8125,174.3125 Q5559.8125,176.4063 5560.5,177.4844 Q5561.1875,178.5469 5562.5313,178.5469 Q5563.1563,178.5469 5563.75,178.2813 Q5564.3438,178 5564.9688,177.4219 L5564.9688,180.1406 Z " fill="#000000"/><text fill="#000000" font-family="sans-serif" font-size="14" lengthAdjust="spacing" textLength="261.0713" x="5576" y="179.3467">logic_arc_int__baselibs__intrusive_list</text><line style="stroke:#181818;stroke-width:0.5;" x1="5548" x2="5839.0713" y1="190.5" y2="190.5"/></g><!--class logic_arc_int__baselibs__memory_shared--><g id="elem_logic_arc_int__baselibs__memory_shared"><rect fill="#F1F1F1" height="40" id="logic_arc_int__baselibs__memory_shared" rx="2.5" ry="2.5" style="stroke:#181818;stroke-width:0.5;" width="318.043" x="11.5" y="158.5"/><ellipse cx="26.5" cy="174.5" fill="#ADD1B2" rx="11" ry="11" style="stroke:#181818;stroke-width:1;"/><path d="M29.4688,180.1406 Q28.8906,180.4375 28.25,180.5781 Q27.6094,180.7344 26.9063,180.7344 Q24.4063,180.7344 23.0781,179.0938 Q21.7656,177.4375 21.7656,174.3125 Q21.7656,171.1875 23.0781,169.5313 Q24.4063,167.875 26.9063,167.875 Q27.6094,167.875 28.25,168.0313 Q28.9063,168.1875 29.4688,168.4844 L29.4688,171.2031 Q28.8438,170.625 28.25,170.3594 Q27.6563,170.0781 27.0313,170.0781 Q25.6875,170.0781 25,171.1563 Q24.3125,172.2188 24.3125,174.3125 Q24.3125,176.4063 25,177.4844 Q25.6875,178.5469 27.0313,178.5469 Q27.6563,178.5469 28.25,178.2813 Q28.8438,178 29.4688,177.4219 L29.4688,180.1406 Z " fill="#000000"/><text fill="#000000" font-family="sans-serif" font-size="14" lengthAdjust="spacing" textLength="286.043" x="40.5" y="179.3467">logic_arc_int__baselibs__memory_shared</text><line style="stroke:#181818;stroke-width:0.5;" x1="12.5" x2="328.543" y1="190.5" y2="190.5"/></g><!--class logic_arc_int__baselibs__synchronized_queue--><g id="elem_logic_arc_int__baselibs__synchronized_queue"><rect fill="#F1F1F1" height="40" id="logic_arc_int__baselibs__synchronized_queue" rx="2.5" ry="2.5" style="stroke:#181818;stroke-width:0.5;" width="348.3604" x="3114.5" y="158.5"/><ellipse cx="3129.5" cy="174.5" fill="#ADD1B2" rx="11" ry="11" style="stroke:#181818;stroke-width:1;"/><path d="M3132.4688,180.1406 Q3131.8906,180.4375 3131.25,180.5781 Q3130.6094,180.7344 3129.9063,180.7344 Q3127.4063,180.7344 3126.0781,179.0938 Q3124.7656,177.4375 3124.7656,174.3125 Q3124.7656,171.1875 3126.0781,169.5313 Q3127.4063,167.875 3129.9063,167.875 Q3130.6094,167.875 3131.25,168.0313 Q3131.9063,168.1875 3132.4688,168.4844 L3132.4688,171.2031 Q3131.8438,170.625 3131.25,170.3594 Q3130.6563,170.0781 3130.0313,170.0781 Q3128.6875,170.0781 3128,171.1563 Q3127.3125,172.2188 3127.3125,174.3125 Q3127.3125,176.4063 3128,177.4844 Q3128.6875,178.5469 3130.0313,178.5469 Q3130.6563,178.5469 3131.25,178.2813 Q3131.8438,178 3132.4688,177.4219 L3132.4688,180.1406 Z " fill="#000000"/><text fill="#000000" font-family="sans-serif" font-size="14" lengthAdjust="spacing" textLength="316.3604" x="3143.5" y="179.3467">logic_arc_int__baselibs__synchronized_queue</text><line style="stroke:#181818;stroke-width:0.5;" x1="3115.5" x2="3461.8604" y1="190.5" y2="190.5"/></g><!--class logic_arc_int__baselibs__shared_future--><g id="elem_logic_arc_int__baselibs__shared_future"><rect fill="#F1F1F1" height="40" id="logic_arc_int__baselibs__shared_future" rx="2.5" ry="2.5" style="stroke:#181818;stroke-width:0.5;" width="302.0811" x="4049.5" y="158.5"/><ellipse cx="4064.5" cy="174.5" fill="#ADD1B2" rx="11" ry="11" style="stroke:#181818;stroke-width:1;"/><path d="M4067.4688,180.1406 Q4066.8906,180.4375 4066.25,180.5781 Q4065.6094,180.7344 4064.9063,180.7344 Q4062.4063,180.7344 4061.0781,179.0938 Q4059.7656,177.4375 4059.7656,174.3125 Q4059.7656,171.1875 4061.0781,169.5313 Q4062.4063,167.875 4064.9063,167.875 Q4065.6094,167.875 4066.25,168.0313 Q4066.9063,168.1875 4067.4688,168.4844 L4067.4688,171.2031 Q4066.8438,170.625 4066.25,170.3594 Q4065.6563,170.0781 4065.0313,170.0781 Q4063.6875,170.0781 4063,171.1563 Q4062.3125,172.2188 4062.3125,174.3125 Q4062.3125,176.4063 4063,177.4844 Q4063.6875,178.5469 4065.0313,178.5469 Q4065.6563,178.5469 4066.25,178.2813 Q4066.8438,178 4067.4688,177.4219 L4067.4688,180.1406 Z " fill="#000000"/><text fill="#000000" font-family="sans-serif" font-size="14" lengthAdjust="spacing" textLength="270.0811" x="4078.5" y="179.3467">logic_arc_int__baselibs__shared_future</text><line style="stroke:#181818;stroke-width:0.5;" x1="4050.5" x2="4350.5811" y1="190.5" y2="190.5"/></g><!--class comp_arc_sta__baselibs__json--><g id="elem_comp_arc_sta__baselibs__json"><rect fill="#F1F1F1" height="40" id="comp_arc_sta__baselibs__json" rx="2.5" ry="2.5" style="stroke:#181818;stroke-width:0.5;" width="242.1367" x="5278.5" y="275.5"/><ellipse cx="5293.5" cy="291.5" fill="#ADD1B2" rx="11" ry="11" style="stroke:#181818;stroke-width:1;"/><path d="M5296.4688,297.1406 Q5295.8906,297.4375 5295.25,297.5781 Q5294.6094,297.7344 5293.9063,297.7344 Q5291.4063,297.7344 5290.0781,296.0938 Q5288.7656,294.4375 5288.7656,291.3125 Q5288.7656,288.1875 5290.0781,286.5313 Q5291.4063,284.875 5293.9063,284.875 Q5294.6094,284.875 5295.25,285.0313 Q5295.9063,285.1875 5296.4688,285.4844 L5296.4688,288.2031 Q5295.8438,287.625 5295.25,287.3594 Q5294.6563,287.0781 5294.0313,287.0781 Q5292.6875,287.0781 5292,288.1563 Q5291.3125,289.2188 5291.3125,291.3125 Q5291.3125,293.4063 5292,294.4844 Q5292.6875,295.5469 5294.0313,295.5469 Q5294.6563,295.5469 5295.25,295.2813 Q5295.8438,295 5296.4688,294.4219 L5296.4688,297.1406 Z " fill="#000000"/><text fill="#000000" font-family="sans-serif" font-size="14" lengthAdjust="spacing" textLength="210.1367" x="5307.5" y="296.3467">comp_arc_sta__baselibs__json</text><line style="stroke:#181818;stroke-width:0.5;" x1="5279.5" x2="5519.6367" y1="307.5" y2="307.5"/></g><!--class logic_arc_int__baselibs__dynamic_array--><g id="elem_logic_arc_int__baselibs__dynamic_array"><rect fill="#F1F1F1" height="40" id="logic_arc_int__baselibs__dynamic_array" rx="2.5" ry="2.5" style="stroke:#181818;stroke-width:0.5;" width="308.3496" x="5875.5" y="158.5"/><ellipse cx="5890.5" cy="174.5" fill="#ADD1B2" rx="11" ry="11" style="stroke:#181818;stroke-width:1;"/><path d="M5893.4688,180.1406 Q5892.8906,180.4375 5892.25,180.5781 Q5891.6094,180.7344 5890.9063,180.7344 Q5888.4063,180.7344 5887.0781,179.0938 Q5885.7656,177.4375 5885.7656,174.3125 Q5885.7656,171.1875 5887.0781,169.5313 Q5888.4063,167.875 5890.9063,167.875 Q5891.6094,167.875 5892.25,168.0313 Q5892.9063,168.1875 5893.4688,168.4844 L5893.4688,171.2031 Q5892.8438,170.625 5892.25,170.3594 Q5891.6563,170.0781 5891.0313,170.0781 Q5889.6875,170.0781 5889,171.1563 Q5888.3125,172.2188 5888.3125,174.3125 Q5888.3125,176.4063 5889,177.4844 Q5889.6875,178.5469 5891.0313,178.5469 Q5891.6563,178.5469 5892.25,178.2813 Q5892.8438,178 5893.4688,177.4219 L5893.4688,180.1406 Z " fill="#000000"/><text fill="#000000" font-family="sans-serif" font-size="14" lengthAdjust="spacing" textLength="276.3496" x="5904.5" y="179.3467">logic_arc_int__baselibs__dynamic_array</text><line style="stroke:#181818;stroke-width:0.5;" x1="5876.5" x2="6182.8496" y1="190.5" y2="190.5"/></g><!--class logic_arc_int__baselibs__task--><g id="elem_logic_arc_int__baselibs__task"><rect fill="#F1F1F1" height="40" id="logic_arc_int__baselibs__task" rx="2.5" ry="2.5" style="stroke:#181818;stroke-width:0.5;" width="234.0156" x="3780.5" y="158.5"/><ellipse cx="3795.5" cy="174.5" fill="#ADD1B2" rx="11" ry="11" style="stroke:#181818;stroke-width:1;"/><path d="M3798.4688,180.1406 Q3797.8906,180.4375 3797.25,180.5781 Q3796.6094,180.7344 3795.9063,180.7344 Q3793.4063,180.7344 3792.0781,179.0938 Q3790.7656,177.4375 3790.7656,174.3125 Q3790.7656,171.1875 3792.0781,169.5313 Q3793.4063,167.875 3795.9063,167.875 Q3796.6094,167.875 3797.25,168.0313 Q3797.9063,168.1875 3798.4688,168.4844 L3798.4688,171.2031 Q3797.8438,170.625 3797.25,170.3594 Q3796.6563,170.0781 3796.0313,170.0781 Q3794.6875,170.0781 3794,171.1563 Q3793.3125,172.2188 3793.3125,174.3125 Q3793.3125,176.4063 3794,177.4844 Q3794.6875,178.5469 3796.0313,178.5469 Q3796.6563,178.5469 3797.25,178.2813 Q3797.8438,178 3798.4688,177.4219 L3798.4688,180.1406 Z " fill="#000000"/><text fill="#000000" font-family="sans-serif" font-size="14" lengthAdjust="spacing" textLength="202.0156" x="3809.5" y="179.3467">logic_arc_int__baselibs__task</text><line style="stroke:#181818;stroke-width:0.5;" x1="3781.5" x2="4013.5156" y1="190.5" y2="190.5"/></g><!--class logic_arc_int__baselibs__future--><g id="elem_logic_arc_int__baselibs__future"><rect fill="#F1F1F1" height="40" id="logic_arc_int__baselibs__future" rx="2.5" ry="2.5" style="stroke:#181818;stroke-width:0.5;" width="247.0791" x="3498" y="158.5"/><ellipse cx="3513" cy="174.5" fill="#ADD1B2" rx="11" ry="11" style="stroke:#181818;stroke-width:1;"/><path d="M3515.9688,180.1406 Q3515.3906,180.4375 3514.75,180.5781 Q3514.1094,180.7344 3513.4063,180.7344 Q3510.9063,180.7344 3509.5781,179.0938 Q3508.2656,177.4375 3508.2656,174.3125 Q3508.2656,171.1875 3509.5781,169.5313 Q3510.9063,167.875 3513.4063,167.875 Q3514.1094,167.875 3514.75,168.0313 Q3515.4063,168.1875 3515.9688,168.4844 L3515.9688,171.2031 Q3515.3438,170.625 3514.75,170.3594 Q3514.1563,170.0781 3513.5313,170.0781 Q3512.1875,170.0781 3511.5,171.1563 Q3510.8125,172.2188 3510.8125,174.3125 Q3510.8125,176.4063 3511.5,177.4844 Q3512.1875,178.5469 3513.5313,178.5469 Q3514.1563,178.5469 3514.75,178.2813 Q3515.3438,178 3515.9688,177.4219 L3515.9688,180.1406 Z " fill="#000000"/><text fill="#000000" font-family="sans-serif" font-size="14" lengthAdjust="spacing" textLength="215.0791" x="3527" y="179.3467">logic_arc_int__baselibs__future</text><line style="stroke:#181818;stroke-width:0.5;" x1="3499" x2="3744.0791" y1="190.5" y2="190.5"/></g><!--class logic_arc_int__baselibs__utils_base64--><g id="elem_logic_arc_int__baselibs__utils_base64"><rect fill="#F1F1F1" height="40" id="logic_arc_int__baselibs__utils_base64" rx="2.5" ry="2.5" style="stroke:#181818;stroke-width:0.5;" width="292.1689" x="715.5" y="158.5"/><ellipse cx="730.5" cy="174.5" fill="#ADD1B2" rx="11" ry="11" style="stroke:#181818;stroke-width:1;"/><path d="M733.4688,180.1406 Q732.8906,180.4375 732.25,180.5781 Q731.6094,180.7344 730.9063,180.7344 Q728.4063,180.7344 727.0781,179.0938 Q725.7656,177.4375 725.7656,174.3125 Q725.7656,171.1875 727.0781,169.5313 Q728.4063,167.875 730.9063,167.875 Q731.6094,167.875 732.25,168.0313 Q732.9063,168.1875 733.4688,168.4844 L733.4688,171.2031 Q732.8438,170.625 732.25,170.3594 Q731.6563,170.0781 731.0313,170.0781 Q729.6875,170.0781 729,171.1563 Q728.3125,172.2188 728.3125,174.3125 Q728.3125,176.4063 729,177.4844 Q729.6875,178.5469 731.0313,178.5469 Q731.6563,178.5469 732.25,178.2813 Q732.8438,178 733.4688,177.4219 L733.4688,180.1406 Z " fill="#000000"/><text fill="#000000" font-family="sans-serif" font-size="14" lengthAdjust="spacing" textLength="260.1689" x="744.5" y="179.3467">logic_arc_int__baselibs__utils_base64</text><line style="stroke:#181818;stroke-width:0.5;" x1="716.5" x2="1006.6689" y1="190.5" y2="190.5"/></g><!--class comp_arc_sta__baselibs__result--><g id="elem_comp_arc_sta__baselibs__result"><rect fill="#F1F1F1" height="40" id="comp_arc_sta__baselibs__result" rx="2.5" ry="2.5" style="stroke:#181818;stroke-width:0.5;" width="253.4297" x="4990" y="275.5"/><ellipse cx="5005" cy="291.5" fill="#ADD1B2" rx="11" ry="11" style="stroke:#181818;stroke-width:1;"/><path d="M5007.9688,297.1406 Q5007.3906,297.4375 5006.75,297.5781 Q5006.1094,297.7344 5005.4063,297.7344 Q5002.9063,297.7344 5001.5781,296.0938 Q5000.2656,294.4375 5000.2656,291.3125 Q5000.2656,288.1875 5001.5781,286.5313 Q5002.9063,284.875 5005.4063,284.875 Q5006.1094,284.875 5006.75,285.0313 Q5007.4063,285.1875 5007.9688,285.4844 L5007.9688,288.2031 Q5007.3438,287.625 5006.75,287.3594 Q5006.1563,287.0781 5005.5313,287.0781 Q5004.1875,287.0781 5003.5,288.1563 Q5002.8125,289.2188 5002.8125,291.3125 Q5002.8125,293.4063 5003.5,294.4844 Q5004.1875,295.5469 5005.5313,295.5469 Q5006.1563,295.5469 5006.75,295.2813 Q5007.3438,295 5007.9688,294.4219 L5007.9688,297.1406 Z " fill="#000000"/><text fill="#000000" font-family="sans-serif" font-size="14" lengthAdjust="spacing" textLength="221.4297" x="5019" y="296.3467">comp_arc_sta__baselibs__result</text><line style="stroke:#181818;stroke-width:0.5;" x1="4991" x2="5242.4297" y1="307.5" y2="307.5"/></g><!--class comp_arc_sta__baselibs__bit_manipulation--><g id="elem_comp_arc_sta__baselibs__bit_manipulation"><rect fill="#F1F1F1" height="40" id="comp_arc_sta__baselibs__bit_manipulation" rx="2.5" ry="2.5" style="stroke:#181818;stroke-width:0.5;" width="330.8057" x="1841" y="275.5"/><ellipse cx="1856" cy="291.5" fill="#ADD1B2" rx="11" ry="11" style="stroke:#181818;stroke-width:1;"/><path d="M1858.9688,297.1406 Q1858.3906,297.4375 1857.75,297.5781 Q1857.1094,297.7344 1856.4063,297.7344 Q1853.9063,297.7344 1852.5781,296.0938 Q1851.2656,294.4375 1851.2656,291.3125 Q1851.2656,288.1875 1852.5781,286.5313 Q1853.9063,284.875 1856.4063,284.875 Q1857.1094,284.875 1857.75,285.0313 Q1858.4063,285.1875 1858.9688,285.4844 L1858.9688,288.2031 Q1858.3438,287.625 1857.75,287.3594 Q1857.1563,287.0781 1856.5313,287.0781 Q1855.1875,287.0781 1854.5,288.1563 Q1853.8125,289.2188 1853.8125,291.3125 Q1853.8125,293.4063 1854.5,294.4844 Q1855.1875,295.5469 1856.5313,295.5469 Q1857.1563,295.5469 1857.75,295.2813 Q1858.3438,295 1858.9688,294.4219 L1858.9688,297.1406 Z " fill="#000000"/><text fill="#000000" font-family="sans-serif" font-size="14" lengthAdjust="spacing" textLength="298.8057" x="1870" y="296.3467">comp_arc_sta__baselibs__bit_manipulation</text><line style="stroke:#181818;stroke-width:0.5;" x1="1842" x2="2170.8057" y1="307.5" y2="307.5"/></g><!--class logic_arc_int__baselibs__bit_mask_operator--><g id="elem_logic_arc_int__baselibs__bit_mask_operator"><rect fill="#F1F1F1" height="40" id="logic_arc_int__baselibs__bit_mask_operator" rx="2.5" ry="2.5" style="stroke:#181818;stroke-width:0.5;" width="334.6406" x="1717" y="158.5"/><ellipse cx="1732" cy="174.5" fill="#ADD1B2" rx="11" ry="11" style="stroke:#181818;stroke-width:1;"/><path d="M1734.9688,180.1406 Q1734.3906,180.4375 1733.75,180.5781 Q1733.1094,180.7344 1732.4063,180.7344 Q1729.9063,180.7344 1728.5781,179.0938 Q1727.2656,177.4375 1727.2656,174.3125 Q1727.2656,171.1875 1728.5781,169.5313 Q1729.9063,167.875 1732.4063,167.875 Q1733.1094,167.875 1733.75,168.0313 Q1734.4063,168.1875 1734.9688,168.4844 L1734.9688,171.2031 Q1734.3438,170.625 1733.75,170.3594 Q1733.1563,170.0781 1732.5313,170.0781 Q1731.1875,170.0781 1730.5,171.1563 Q1729.8125,172.2188 1729.8125,174.3125 Q1729.8125,176.4063 1730.5,177.4844 Q1731.1875,178.5469 1732.5313,178.5469 Q1733.1563,178.5469 1733.75,178.2813 Q1734.3438,178 1734.9688,177.4219 L1734.9688,180.1406 Z " fill="#000000"/><text fill="#000000" font-family="sans-serif" font-size="14" lengthAdjust="spacing" textLength="302.6406" x="1746" y="179.3467">logic_arc_int__baselibs__bit_mask_operator</text><line style="stroke:#181818;stroke-width:0.5;" x1="1718" x2="2050.6406" y1="190.5" y2="190.5"/></g><!--class logic_arc_int__baselibs__task_result--><g id="elem_logic_arc_int__baselibs__task_result"><rect fill="#F1F1F1" height="40" id="logic_arc_int__baselibs__task_result" rx="2.5" ry="2.5" style="stroke:#181818;stroke-width:0.5;" width="280.9307" x="4683" y="158.5"/><ellipse cx="4698" cy="174.5" fill="#ADD1B2" rx="11" ry="11" style="stroke:#181818;stroke-width:1;"/><path d="M4700.9688,180.1406 Q4700.3906,180.4375 4699.75,180.5781 Q4699.1094,180.7344 4698.4063,180.7344 Q4695.9063,180.7344 4694.5781,179.0938 Q4693.2656,177.4375 4693.2656,174.3125 Q4693.2656,171.1875 4694.5781,169.5313 Q4695.9063,167.875 4698.4063,167.875 Q4699.1094,167.875 4699.75,168.0313 Q4700.4063,168.1875 4700.9688,168.4844 L4700.9688,171.2031 Q4700.3438,170.625 4699.75,170.3594 Q4699.1563,170.0781 4698.5313,170.0781 Q4697.1875,170.0781 4696.5,171.1563 Q4695.8125,172.2188 4695.8125,174.3125 Q4695.8125,176.4063 4696.5,177.4844 Q4697.1875,178.5469 4698.5313,178.5469 Q4699.1563,178.5469 4699.75,178.2813 Q4700.3438,178 4700.9688,177.4219 L4700.9688,180.1406 Z " fill="#000000"/><text fill="#000000" font-family="sans-serif" font-size="14" lengthAdjust="spacing" textLength="248.9307" x="4712" y="179.3467">logic_arc_int__baselibs__task_result</text><line style="stroke:#181818;stroke-width:0.5;" x1="4684" x2="4962.9307" y1="190.5" y2="190.5"/></g><!--class comp_arc_sta__baselibs__message_passing--><g id="elem_comp_arc_sta__baselibs__message_passing"><rect fill="#F1F1F1" height="40" id="comp_arc_sta__baselibs__message_passing" rx="2.5" ry="2.5" style="stroke:#181818;stroke-width:0.5;" width="337.1357" x="1353" y="275.5"/><ellipse cx="1368" cy="291.5" fill="#ADD1B2" rx="11" ry="11" style="stroke:#181818;stroke-width:1;"/><path d="M1370.9688,297.1406 Q1370.3906,297.4375 1369.75,297.5781 Q1369.1094,297.7344 1368.4063,297.7344 Q1365.9063,297.7344 1364.5781,296.0938 Q1363.2656,294.4375 1363.2656,291.3125 Q1363.2656,288.1875 1364.5781,286.5313 Q1365.9063,284.875 1368.4063,284.875 Q1369.1094,284.875 1369.75,285.0313 Q1370.4063,285.1875 1370.9688,285.4844 L1370.9688,288.2031 Q1370.3438,287.625 1369.75,287.3594 Q1369.1563,287.0781 1368.5313,287.0781 Q1367.1875,287.0781 1366.5,288.1563 Q1365.8125,289.2188 1365.8125,291.3125 Q1365.8125,293.4063 1366.5,294.4844 Q1367.1875,295.5469 1368.5313,295.5469 Q1369.1563,295.5469 1369.75,295.2813 Q1370.3438,295 1370.9688,294.4219 L1370.9688,297.1406 Z " fill="#000000"/><text fill="#000000" font-family="sans-serif" font-size="14" lengthAdjust="spacing" textLength="305.1357" x="1382" y="296.3467">comp_arc_sta__baselibs__message_passing</text><line style="stroke:#181818;stroke-width:0.5;" x1="1354" x2="1689.1357" y1="307.5" y2="307.5"/></g><!--class logic_arc_int__baselibs__promise--><g id="elem_logic_arc_int__baselibs__promise"><rect fill="#F1F1F1" height="40" id="logic_arc_int__baselibs__promise" rx="2.5" ry="2.5" style="stroke:#181818;stroke-width:0.5;" width="261.1885" x="4387" y="158.5"/><ellipse cx="4402" cy="174.5" fill="#ADD1B2" rx="11" ry="11" style="stroke:#181818;stroke-width:1;"/><path d="M4404.9688,180.1406 Q4404.3906,180.4375 4403.75,180.5781 Q4403.1094,180.7344 4402.4063,180.7344 Q4399.9063,180.7344 4398.5781,179.0938 Q4397.2656,177.4375 4397.2656,174.3125 Q4397.2656,171.1875 4398.5781,169.5313 Q4399.9063,167.875 4402.4063,167.875 Q4403.1094,167.875 4403.75,168.0313 Q4404.4063,168.1875 4404.9688,168.4844 L4404.9688,171.2031 Q4404.3438,170.625 4403.75,170.3594 Q4403.1563,170.0781 4402.5313,170.0781 Q4401.1875,170.0781 4400.5,171.1563 Q4399.8125,172.2188 4399.8125,174.3125 Q4399.8125,176.4063 4400.5,177.4844 Q4401.1875,178.5469 4402.5313,178.5469 Q4403.1563,178.5469 4403.75,178.2813 Q4404.3438,178 4404.9688,177.4219 L4404.9688,180.1406 Z " fill="#000000"/><text fill="#000000" font-family="sans-serif" font-size="14" lengthAdjust="spacing" textLength="229.1885" x="4416" y="179.3467">logic_arc_int__baselibs__promise</text><line style="stroke:#181818;stroke-width:0.5;" x1="4388" x2="4647.1885" y1="190.5" y2="190.5"/></g><!--class logic_arc_int__baselibs__executor--><g id="elem_logic_arc_int__baselibs__executor"><rect fill="#F1F1F1" height="40" id="logic_arc_int__baselibs__executor" rx="2.5" ry="2.5" style="stroke:#181818;stroke-width:0.5;" width="266.4385" x="2813.5" y="158.5"/><ellipse cx="2828.5" cy="174.5" fill="#ADD1B2" rx="11" ry="11" style="stroke:#181818;stroke-width:1;"/><path d="M2831.4688,180.1406 Q2830.8906,180.4375 2830.25,180.5781 Q2829.6094,180.7344 2828.9063,180.7344 Q2826.4063,180.7344 2825.0781,179.0938 Q2823.7656,177.4375 2823.7656,174.3125 Q2823.7656,171.1875 2825.0781,169.5313 Q2826.4063,167.875 2828.9063,167.875 Q2829.6094,167.875 2830.25,168.0313 Q2830.9063,168.1875 2831.4688,168.4844 L2831.4688,171.2031 Q2830.8438,170.625 2830.25,170.3594 Q2829.6563,170.0781 2829.0313,170.0781 Q2827.6875,170.0781 2827,171.1563 Q2826.3125,172.2188 2826.3125,174.3125 Q2826.3125,176.4063 2827,177.4844 Q2827.6875,178.5469 2829.0313,178.5469 Q2829.6563,178.5469 2830.25,178.2813 Q2830.8438,178 2831.4688,177.4219 L2831.4688,180.1406 Z " fill="#000000"/><text fill="#000000" font-family="sans-serif" font-size="14" lengthAdjust="spacing" textLength="234.4385" x="2842.5" y="179.3467">logic_arc_int__baselibs__executor</text><line style="stroke:#181818;stroke-width:0.5;" x1="2814.5" x2="3078.9385" y1="190.5" y2="190.5"/></g><!--class logic_arc_int__baselibs__bit_manipulation--><g id="elem_logic_arc_int__baselibs__bit_manipulation"><rect fill="#F1F1F1" height="40" id="logic_arc_int__baselibs__bit_manipulation" rx="2.5" ry="2.5" style="stroke:#181818;stroke-width:0.5;" width="321.8369" x="2087.5" y="158.5"/><ellipse cx="2102.5" cy="174.5" fill="#ADD1B2" rx="11" ry="11" style="stroke:#181818;stroke-width:1;"/><path d="M2105.4688,180.1406 Q2104.8906,180.4375 2104.25,180.5781 Q2103.6094,180.7344 2102.9063,180.7344 Q2100.4063,180.7344 2099.0781,179.0938 Q2097.7656,177.4375 2097.7656,174.3125 Q2097.7656,171.1875 2099.0781,169.5313 Q2100.4063,167.875 2102.9063,167.875 Q2103.6094,167.875 2104.25,168.0313 Q2104.9063,168.1875 2105.4688,168.4844 L2105.4688,171.2031 Q2104.8438,170.625 2104.25,170.3594 Q2103.6563,170.0781 2103.0313,170.0781 Q2101.6875,170.0781 2101,171.1563 Q2100.3125,172.2188 2100.3125,174.3125 Q2100.3125,176.4063 2101,177.4844 Q2101.6875,178.5469 2103.0313,178.5469 Q2103.6563,178.5469 2104.25,178.2813 Q2104.8438,178 2105.4688,177.4219 L2105.4688,180.1406 Z " fill="#000000"/><text fill="#000000" font-family="sans-serif" font-size="14" lengthAdjust="spacing" textLength="289.8369" x="2116.5" y="179.3467">logic_arc_int__baselibs__bit_manipulation</text><line style="stroke:#181818;stroke-width:0.5;" x1="2088.5" x2="2408.3369" y1="190.5" y2="190.5"/></g><!--class logic_arc_int__baselibs__filesystem--><g id="elem_logic_arc_int__baselibs__filesystem"><rect fill="#F1F1F1" height="40" id="logic_arc_int__baselibs__filesystem" rx="2.5" ry="2.5" style="stroke:#181818;stroke-width:0.5;" width="276.4805" x="1042.5" y="158.5"/><ellipse cx="1057.5" cy="174.5" fill="#ADD1B2" rx="11" ry="11" style="stroke:#181818;stroke-width:1;"/><path d="M1060.4688,180.1406 Q1059.8906,180.4375 1059.25,180.5781 Q1058.6094,180.7344 1057.9063,180.7344 Q1055.4063,180.7344 1054.0781,179.0938 Q1052.7656,177.4375 1052.7656,174.3125 Q1052.7656,171.1875 1054.0781,169.5313 Q1055.4063,167.875 1057.9063,167.875 Q1058.6094,167.875 1059.25,168.0313 Q1059.9063,168.1875 1060.4688,168.4844 L1060.4688,171.2031 Q1059.8438,170.625 1059.25,170.3594 Q1058.6563,170.0781 1058.0313,170.0781 Q1056.6875,170.0781 1056,171.1563 Q1055.3125,172.2188 1055.3125,174.3125 Q1055.3125,176.4063 1056,177.4844 Q1056.6875,178.5469 1058.0313,178.5469 Q1058.6563,178.5469 1059.25,178.2813 Q1059.8438,178 1060.4688,177.4219 L1060.4688,180.1406 Z " fill="#000000"/><text fill="#000000" font-family="sans-serif" font-size="14" lengthAdjust="spacing" textLength="244.4805" x="1071.5" y="179.3467">logic_arc_int__baselibs__filesystem</text><line style="stroke:#181818;stroke-width:0.5;" x1="1043.5" x2="1317.9805" y1="190.5" y2="190.5"/></g><!--class comp_arc_sta__baselibs__utils--><g id="elem_comp_arc_sta__baselibs__utils"><rect fill="#F1F1F1" height="40" id="comp_arc_sta__baselibs__utils" rx="2.5" ry="2.5" style="stroke:#181818;stroke-width:0.5;" width="242.9502" x="543" y="275.5"/><ellipse cx="558" cy="291.5" fill="#ADD1B2" rx="11" ry="11" style="stroke:#181818;stroke-width:1;"/><path d="M560.9688,297.1406 Q560.3906,297.4375 559.75,297.5781 Q559.1094,297.7344 558.4063,297.7344 Q555.9063,297.7344 554.5781,296.0938 Q553.2656,294.4375 553.2656,291.3125 Q553.2656,288.1875 554.5781,286.5313 Q555.9063,284.875 558.4063,284.875 Q559.1094,284.875 559.75,285.0313 Q560.4063,285.1875 560.9688,285.4844 L560.9688,288.2031 Q560.3438,287.625 559.75,287.3594 Q559.1563,287.0781 558.5313,287.0781 Q557.1875,287.0781 556.5,288.1563 Q555.8125,289.2188 555.8125,291.3125 Q555.8125,293.4063 556.5,294.4844 Q557.1875,295.5469 558.5313,295.5469 Q559.1563,295.5469 559.75,295.2813 Q560.3438,295 560.9688,294.4219 L560.9688,297.1406 Z " fill="#000000"/><text fill="#000000" font-family="sans-serif" font-size="14" lengthAdjust="spacing" textLength="210.9502" x="572" y="296.3467">comp_arc_sta__baselibs__utils</text><line style="stroke:#181818;stroke-width:0.5;" x1="544" x2="784.9502" y1="307.5" y2="307.5"/></g><!--class comp_arc_sta__baselibs__filesystem--><g id="elem_comp_arc_sta__baselibs__filesystem"><rect fill="#F1F1F1" height="40" id="comp_arc_sta__baselibs__filesystem" rx="2.5" ry="2.5" style="stroke:#181818;stroke-width:0.5;" width="285.4492" x="1033" y="275.5"/><ellipse cx="1048" cy="291.5" fill="#ADD1B2" rx="11" ry="11" style="stroke:#181818;stroke-width:1;"/><path d="M1050.9688,297.1406 Q1050.3906,297.4375 1049.75,297.5781 Q1049.1094,297.7344 1048.4063,297.7344 Q1045.9063,297.7344 1044.5781,296.0938 Q1043.2656,294.4375 1043.2656,291.3125 Q1043.2656,288.1875 1044.5781,286.5313 Q1045.9063,284.875 1048.4063,284.875 Q1049.1094,284.875 1049.75,285.0313 Q1050.4063,285.1875 1050.9688,285.4844 L1050.9688,288.2031 Q1050.3438,287.625 1049.75,287.3594 Q1049.1563,287.0781 1048.5313,287.0781 Q1047.1875,287.0781 1046.5,288.1563 Q1045.8125,289.2188 1045.8125,291.3125 Q1045.8125,293.4063 1046.5,294.4844 Q1047.1875,295.5469 1048.5313,295.5469 Q1049.1563,295.5469 1049.75,295.2813 Q1050.3438,295 1050.9688,294.4219 L1050.9688,297.1406 Z " fill="#000000"/><text fill="#000000" font-family="sans-serif" font-size="14" lengthAdjust="spacing" textLength="253.4492" x="1062" y="296.3467">comp_arc_sta__baselibs__filesystem</text><line style="stroke:#181818;stroke-width:0.5;" x1="1034" x2="1317.4492" y1="307.5" y2="307.5"/></g><!--class comp_arc_sta__baselibs__memory_shared--><g id="elem_comp_arc_sta__baselibs__memory_shared"><rect fill="#F1F1F1" height="40" id="comp_arc_sta__baselibs__memory_shared" rx="2.5" ry="2.5" style="stroke:#181818;stroke-width:0.5;" width="327.0117" x="7" y="275.5"/><ellipse cx="22" cy="291.5" fill="#ADD1B2" rx="11" ry="11" style="stroke:#181818;stroke-width:1;"/><path d="M24.9688,297.1406 Q24.3906,297.4375 23.75,297.5781 Q23.1094,297.7344 22.4063,297.7344 Q19.9063,297.7344 18.5781,296.0938 Q17.2656,294.4375 17.2656,291.3125 Q17.2656,288.1875 18.5781,286.5313 Q19.9063,284.875 22.4063,284.875 Q23.1094,284.875 23.75,285.0313 Q24.4063,285.1875 24.9688,285.4844 L24.9688,288.2031 Q24.3438,287.625 23.75,287.3594 Q23.1563,287.0781 22.5313,287.0781 Q21.1875,287.0781 20.5,288.1563 Q19.8125,289.2188 19.8125,291.3125 Q19.8125,293.4063 20.5,294.4844 Q21.1875,295.5469 22.5313,295.5469 Q23.1563,295.5469 23.75,295.2813 Q24.3438,295 24.9688,294.4219 L24.9688,297.1406 Z " fill="#000000"/><text fill="#000000" font-family="sans-serif" font-size="14" lengthAdjust="spacing" textLength="295.0117" x="36" y="296.3467">comp_arc_sta__baselibs__memory_shared</text><line style="stroke:#181818;stroke-width:0.5;" x1="8" x2="333.0117" y1="307.5" y2="307.5"/></g><!--link Feature_User to logic_arc_int__baselibs__json--><g id="link_Feature_User_logic_arc_int__baselibs__json"><path codeLine="15" d="M3333.65,46.09 C3508.48,52.35 4157.68,76.72 4691.5,111.5 C4944.71,128 5008.31,130.36 5260.5,158.5 C5266.5,159.17 5266.6857,159.1505 5272.8857,159.9205 " fill="transparent" id="Feature_User-to-logic_arc_int__baselibs__json" style="stroke:#181818;stroke-width:1;"/><polygon fill="#181818" points="5278.84,160.66,5270.4016,155.5813,5273.8781,160.0438,5269.4156,163.5203,5278.84,160.66" style="stroke:#181818;stroke-width:1;"/><text fill="#000000" font-family="sans-serif" font-size="13" lengthAdjust="spacing" textLength="23.0103" x="4949.5" y="124.5669">use</text></g><!--link Feature_User to logic_arc_int__baselibs__message_passing--><g id="link_Feature_User_logic_arc_int__baselibs__message_passing"><path codeLine="16" d="M3243.27,47.21 C3054.4,58.62 2310.1,104.74 1699.5,158.5 C1693.65,159.02 1693.6651,159.0141 1687.6451,159.5641 " fill="transparent" id="Feature_User-to-logic_arc_int__baselibs__message_passing" style="stroke:#181818;stroke-width:1;"/><polygon fill="#181818" points="1681.67,160.11,1690.9966,163.2746,1686.6493,159.6551,1690.2687,155.3077,1681.67,160.11" style="stroke:#181818;stroke-width:1;"/><text fill="#000000" font-family="sans-serif" font-size="13" lengthAdjust="spacing" textLength="23.0103" x="2268.5" y="124.5669">use</text></g><!--link Feature_User to logic_arc_int__baselibs__result--><g id="link_Feature_User_logic_arc_int__baselibs__result"><path codeLine="17" d="M3333.74,46.28 C3530.21,54.3 4328.93,89.62 4981.5,158.5 C4987.35,159.12 4987.3799,159.0993 4993.4199,159.7993 " fill="transparent" id="Feature_User-to-logic_arc_int__baselibs__result" style="stroke:#181818;stroke-width:1;"/><polygon fill="#181818" points="4999.38,160.49,4990.9003,155.4805,4994.4132,159.9144,4989.9793,163.4273,4999.38,160.49" style="stroke:#181818;stroke-width:1;"/><text fill="#000000" font-family="sans-serif" font-size="13" lengthAdjust="spacing" textLength="23.0103" x="4659.5" y="124.5669">use</text></g><!--link Feature_User to logic_arc_int__baselibs__utils_scoped_op--><g id="link_Feature_User_logic_arc_int__baselibs__utils_scoped_op"><path codeLine="18" d="M3243.31,45.47 C3031.2,50.16 2113.23,71.84 1361.5,111.5 C1066.06,127.09 992.17,132.08 697.5,158.5 C691.87,159 692.1131,158.9726 686.3231,159.5226 " fill="transparent" id="Feature_User-to-logic_arc_int__baselibs__utils_scoped_op" style="stroke:#181818;stroke-width:1;"/><polygon fill="#181818" points="680.35,160.09,689.6879,163.221,685.3276,159.6172,688.9314,155.2568,680.35,160.09" style="stroke:#181818;stroke-width:1;"/><text fill="#000000" font-family="sans-serif" font-size="13" lengthAdjust="spacing" textLength="23.0103" x="1362.5" y="124.5669">use</text></g><!--reverse link logic_arc_int__baselibs__condition_variable to comp_arc_sta__baselibs__concurrency--><g id="link_logic_arc_int__baselibs__condition_variable_comp_arc_sta__baselibs__concurrency"><path codeLine="19" d="M2780.4707,199.1856 C2898.8907,212.8056 3057.07,230.6 3201.5,245.5 C3325.63,258.3 3466.59,271.53 3570.25,281.01 " fill="transparent" id="logic_arc_int__baselibs__condition_variable-backto-comp_arc_sta__baselibs__concurrency" style="stroke:#181818;stroke-width:1;"/><polygon fill="#181818" points="2774.51,198.5,2782.994,203.5022,2779.4773,199.0713,2783.9081,195.5545,2774.51,198.5" style="stroke:#181818;stroke-width:1;"/><text fill="#000000" font-family="sans-serif" font-size="13" lengthAdjust="spacing" textLength="76.9082" x="3202.5" y="241.5669">implements</text></g><!--reverse link logic_arc_int__baselibs__intrusive_list to comp_arc_sta__baselibs__containers--><g id="link_logic_arc_int__baselibs__intrusive_list_comp_arc_sta__baselibs__containers"><path codeLine="20" d="M5726.7506,202.1252 C5758.0406,223.4152 5803.19,254.14 5834.4,275.38 " fill="transparent" id="logic_arc_int__baselibs__intrusive_list-backto-comp_arc_sta__baselibs__containers" style="stroke:#181818;stroke-width:1;"/><polygon fill="#181818" points="5721.79,198.75,5726.9808,207.1199,5725.9238,201.5627,5731.4811,200.5058,5721.79,198.75" style="stroke:#181818;stroke-width:1;"/><text fill="#000000" font-family="sans-serif" font-size="13" lengthAdjust="spacing" textLength="76.9082" x="5788.5" y="241.5669">implements</text></g><!--link Feature_User to logic_arc_int__baselibs__memory_shared--><g id="link_Feature_User_logic_arc_int__baselibs__memory_shared"><path codeLine="21" d="M3243.36,45.21 C3011.11,49 1927.35,68.31 1041.5,111.5 C732.72,126.55 655.47,131.55 347.5,158.5 C341.65,159.01 341.6641,158.9933 335.6541,159.5533 " fill="transparent" id="Feature_User-to-logic_arc_int__baselibs__memory_shared" style="stroke:#181818;stroke-width:1;"/><polygon fill="#181818" points="329.68,160.11,339.0123,163.2578,334.6584,159.6461,338.2701,155.2923,329.68,160.11" style="stroke:#181818;stroke-width:1;"/><text fill="#000000" font-family="sans-serif" font-size="13" lengthAdjust="spacing" textLength="23.0103" x="1042.5" y="124.5669">use</text></g><!--link Feature_User to logic_arc_int__baselibs__synchronized_queue--><g id="link_Feature_User_logic_arc_int__baselibs__synchronized_queue"><path codeLine="22" d="M3288.5,81.55 C3288.5,106.45 3288.5,132.26 3288.5,152.26 " fill="transparent" id="Feature_User-to-logic_arc_int__baselibs__synchronized_queue" style="stroke:#181818;stroke-width:1;"/><polygon fill="#181818" points="3288.5,158.26,3292.5,149.26,3288.5,153.26,3284.5,149.26,3288.5,158.26" style="stroke:#181818;stroke-width:1;"/><text fill="#000000" font-family="sans-serif" font-size="13" lengthAdjust="spacing" textLength="23.0103" x="3289.5" y="124.5669">use</text></g><!--link Feature_User to logic_arc_int__baselibs__shared_future--><g id="link_Feature_User_logic_arc_int__baselibs__shared_future"><path codeLine="23" d="M3333.73,51.1 C3467.07,70.54 3856.3428,127.3144 4063.9028,157.5744 " fill="transparent" id="Feature_User-to-logic_arc_int__baselibs__shared_future" style="stroke:#181818;stroke-width:1;"/><polygon fill="#181818" points="4069.84,158.44,4061.5112,153.1835,4064.8923,157.7187,4060.3571,161.0998,4069.84,158.44" style="stroke:#181818;stroke-width:1;"/><text fill="#000000" font-family="sans-serif" font-size="13" lengthAdjust="spacing" textLength="23.0103" x="3854.5" y="124.5669">use</text></g><!--reverse link logic_arc_int__baselibs__json to comp_arc_sta__baselibs__json--><g id="link_logic_arc_int__baselibs__json_comp_arc_sta__baselibs__json"><path codeLine="24" d="M5396.379,204.7464 C5397.119,225.9764 5398.09,253.94 5398.83,275.19 " fill="transparent" id="logic_arc_int__baselibs__json-backto-comp_arc_sta__baselibs__json" style="stroke:#181818;stroke-width:1;"/><polygon fill="#181818" points="5396.17,198.75,5392.4859,207.8839,5396.3442,203.747,5400.4811,207.6052,5396.17,198.75" style="stroke:#181818;stroke-width:1;"/><text fill="#000000" font-family="sans-serif" font-size="13" lengthAdjust="spacing" textLength="76.9082" x="5399.5" y="241.5669">implements</text></g><!--link Feature_User to logic_arc_int__baselibs__dynamic_array--><g id="link_Feature_User_logic_arc_int__baselibs__dynamic_array"><path codeLine="25" d="M3333.85,45.32 C3548.69,49.35 4485.64,68.65 5252.5,111.5 C5521.78,126.55 5588.99,133.25 5857.5,158.5 C5863.33,159.05 5863.2997,159.024 5869.3097,159.624 " fill="transparent" id="Feature_User-to-logic_arc_int__baselibs__dynamic_array" style="stroke:#181818;stroke-width:1;"/><polygon fill="#181818" points="5875.28,160.22,5866.7219,155.3457,5870.3047,159.7233,5865.9272,163.3062,5875.28,160.22" style="stroke:#181818;stroke-width:1;"/><text fill="#000000" font-family="sans-serif" font-size="13" lengthAdjust="spacing" textLength="23.0103" x="5515.5" y="124.5669">use</text></g><!--reverse link logic_arc_int__baselibs__dynamic_array to comp_arc_sta__baselibs__containers--><g id="link_logic_arc_int__baselibs__dynamic_array_comp_arc_sta__baselibs__containers"><path codeLine="26" d="M5996.6082,202.1527 C5965.6882,223.4427 5921.11,254.14 5890.26,275.38 " fill="transparent" id="logic_arc_int__baselibs__dynamic_array-backto-comp_arc_sta__baselibs__containers" style="stroke:#181818;stroke-width:1;"/><polygon fill="#181818" points="6001.55,198.75,5991.8688,200.5595,5997.4318,201.5856,5996.4057,207.1486,6001.55,198.75" style="stroke:#181818;stroke-width:1;"/><text fill="#000000" font-family="sans-serif" font-size="13" lengthAdjust="spacing" textLength="76.9082" x="5956.5" y="241.5669">implements</text></g><!--reverse link logic_arc_int__baselibs__task to comp_arc_sta__baselibs__concurrency--><g id="link_logic_arc_int__baselibs__task_comp_arc_sta__baselibs__concurrency"><path codeLine="27" d="M3862.8386,202.0188 C3830.0686,223.3088 3782.62,254.14 3749.93,275.38 " fill="transparent" id="logic_arc_int__baselibs__task-backto-comp_arc_sta__baselibs__concurrency" style="stroke:#181818;stroke-width:1;"/><polygon fill="#181818" points="3867.87,198.75,3858.1437,200.2989,3863.6772,201.474,3862.5021,207.0075,3867.87,198.75" style="stroke:#181818;stroke-width:1;"/><text fill="#000000" font-family="sans-serif" font-size="13" lengthAdjust="spacing" textLength="76.9082" x="3821.5" y="241.5669">implements</text></g><!--reverse link logic_arc_int__baselibs__future to comp_arc_sta__baselibs__concurrency--><g id="link_logic_arc_int__baselibs__future_comp_arc_sta__baselibs__concurrency"><path codeLine="28" d="M3641.985,203.2968 C3660.265,224.5268 3685.58,253.94 3703.88,275.19 " fill="transparent" id="logic_arc_int__baselibs__future-backto-comp_arc_sta__baselibs__concurrency" style="stroke:#181818;stroke-width:1;"/><polygon fill="#181818" points="3638.07,198.75,3640.9113,208.1801,3641.3325,202.539,3646.9736,202.9602,3638.07,198.75" style="stroke:#181818;stroke-width:1;"/><text fill="#000000" font-family="sans-serif" font-size="13" lengthAdjust="spacing" textLength="76.9082" x="3678.5" y="241.5669">implements</text></g><!--reverse link logic_arc_int__baselibs__synchronized_queue to comp_arc_sta__baselibs__concurrency--><g id="link_logic_arc_int__baselibs__synchronized_queue_comp_arc_sta__baselibs__concurrency"><path codeLine="29" d="M3366.1181,200.1634 C3446.1381,221.4634 3568.93,254.15 3648.87,275.43 " fill="transparent" id="logic_arc_int__baselibs__synchronized_queue-backto-comp_arc_sta__baselibs__concurrency" style="stroke:#181818;stroke-width:1;"/><polygon fill="#181818" points="3360.32,198.62,3367.9883,204.8004,3365.1518,199.9061,3370.0461,197.0696,3360.32,198.62" style="stroke:#181818;stroke-width:1;"/><text fill="#000000" font-family="sans-serif" font-size="13" lengthAdjust="spacing" textLength="76.9082" x="3531.5" y="241.5669">implements</text></g><!--link Feature_User to logic_arc_int__baselibs__utils_base64--><g id="link_Feature_User_logic_arc_int__baselibs__utils_base64"><path codeLine="30" d="M3243.28,45.88 C3052.8,51.77 2296.98,76.25 1676.5,111.5 C1386.44,127.98 1313.75,131.23 1024.5,158.5 C1018.97,159.02 1019.299,158.9605 1013.619,159.5405 " fill="transparent" id="Feature_User-to-logic_arc_int__baselibs__utils_base64" style="stroke:#181818;stroke-width:1;"/><polygon fill="#181818" points="1007.65,160.15,1017.0098,163.215,1012.6241,159.6421,1016.1971,155.2564,1007.65,160.15" style="stroke:#181818;stroke-width:1;"/><text fill="#000000" font-family="sans-serif" font-size="13" lengthAdjust="spacing" textLength="23.0103" x="1677.5" y="124.5669">use</text></g><!--link Feature_User to logic_arc_int__baselibs__intrusive_list--><g id="link_Feature_User_logic_arc_int__baselibs__intrusive_list"><path codeLine="31" d="M3333.67,45.52 C3529.85,50.13 4327.55,70.54 4981.5,111.5 C5225.47,126.78 5286.28,133.99 5529.5,158.5 C5535.2,159.07 5535.0532,159.0498 5540.9232,159.6698 " fill="transparent" id="Feature_User-to-logic_arc_int__baselibs__intrusive_list" style="stroke:#181818;stroke-width:1;"/><polygon fill="#181818" points="5546.89,160.3,5538.3599,155.3768,5541.9177,159.7748,5537.5196,163.3325,5546.89,160.3" style="stroke:#181818;stroke-width:1;"/><text fill="#000000" font-family="sans-serif" font-size="13" lengthAdjust="spacing" textLength="23.0103" x="5220.5" y="124.5669">use</text></g><!--reverse link logic_arc_int__baselibs__result to comp_arc_sta__baselibs__result--><g id="link_logic_arc_int__baselibs__result_comp_arc_sta__baselibs__result"><path codeLine="32" d="M5120.4002,204.7444 C5119.4802,225.9744 5118.26,253.94 5117.34,275.19 " fill="transparent" id="logic_arc_int__baselibs__result-backto-comp_arc_sta__baselibs__result" style="stroke:#181818;stroke-width:1;"/><polygon fill="#181818" points="5120.66,198.75,5116.2741,207.5684,5120.4435,203.7453,5124.2666,207.9147,5120.66,198.75" style="stroke:#181818;stroke-width:1;"/><text fill="#000000" font-family="sans-serif" font-size="13" lengthAdjust="spacing" textLength="76.9082" x="5120.5" y="241.5669">implements</text></g><!--reverse link logic_arc_int__baselibs__bit_mask_operator to comp_arc_sta__baselibs__bit_manipulation--><g id="link_logic_arc_int__baselibs__bit_mask_operator_comp_arc_sta__baselibs__bit_manipulation"><path codeLine="33" d="M1909.2858,202.8658 C1931.8058,224.0958 1963.47,253.94 1986.01,275.19 " fill="transparent" id="logic_arc_int__baselibs__bit_mask_operator-backto-comp_arc_sta__baselibs__bit_manipulation" style="stroke:#181818;stroke-width:1;"/><polygon fill="#181818" points="1904.92,198.75,1908.7249,207.8342,1908.5582,202.1798,1914.2126,202.0131,1904.92,198.75" style="stroke:#181818;stroke-width:1;"/><text fill="#000000" font-family="sans-serif" font-size="13" lengthAdjust="spacing" textLength="76.9082" x="1954.5" y="241.5669">implements</text></g><!--reverse link logic_arc_int__baselibs__task_result to comp_arc_sta__baselibs__concurrency--><g id="link_logic_arc_int__baselibs__task_result_comp_arc_sta__baselibs__concurrency"><path codeLine="34" d="M4676.6934,197.1601 C4670.9034,197.8601 4671.12,197.83 4665.5,198.5 C4490.4,219.47 4446.91,227.24 4271.5,245.5 C4135.98,259.61 3981.44,273.13 3870.58,282.38 " fill="transparent" id="logic_arc_int__baselibs__task_result-backto-comp_arc_sta__baselibs__concurrency" style="stroke:#181818;stroke-width:1;"/><polygon fill="#181818" points="4682.65,196.44,4673.235,193.5491,4677.6861,197.0401,4674.1952,201.4913,4682.65,196.44" style="stroke:#181818;stroke-width:1;"/><text fill="#000000" font-family="sans-serif" font-size="13" lengthAdjust="spacing" textLength="76.9082" x="4423.5" y="241.5669">implements</text></g><!--reverse link logic_arc_int__baselibs__message_passing to comp_arc_sta__baselibs__message_passing--><g id="link_logic_arc_int__baselibs__message_passing_comp_arc_sta__baselibs__message_passing"><path codeLine="35" d="M1518.379,204.7464 C1519.119,225.9764 1520.09,253.94 1520.83,275.19 " fill="transparent" id="logic_arc_int__baselibs__message_passing-backto-comp_arc_sta__baselibs__message_passing" style="stroke:#181818;stroke-width:1;"/><polygon fill="#181818" points="1518.17,198.75,1514.4859,207.8839,1518.3442,203.747,1522.4811,207.6052,1518.17,198.75" style="stroke:#181818;stroke-width:1;"/><text fill="#000000" font-family="sans-serif" font-size="13" lengthAdjust="spacing" textLength="76.9082" x="1521.5" y="241.5669">implements</text></g><!--link Feature_User to logic_arc_int__baselibs__task--><g id="link_Feature_User_logic_arc_int__baselibs__task"><path codeLine="36" d="M3333.78,54.39 C3434.6,76.41 3673.1882,128.5099 3804.6082,157.2099 " fill="transparent" id="Feature_User-to-logic_arc_int__baselibs__task" style="stroke:#181818;stroke-width:1;"/><polygon fill="#181818" points="3810.47,158.49,3802.5306,152.6619,3805.5851,157.4232,3800.8238,160.4777,3810.47,158.49" style="stroke:#181818;stroke-width:1;"/><text fill="#000000" font-family="sans-serif" font-size="13" lengthAdjust="spacing" textLength="23.0103" x="3666.5" y="124.5669">use</text></g><!--link Feature_User to logic_arc_int__baselibs__promise--><g id="link_Feature_User_logic_arc_int__baselibs__promise"><path codeLine="37" d="M3333.55,48.9 C3481.74,63.46 3967.5,111.77 4368.5,158.5 C4374.46,159.19 4374.593,159.2032 4380.743,159.9432 " fill="transparent" id="Feature_User-to-logic_arc_int__baselibs__promise" style="stroke:#181818;stroke-width:1;"/><polygon fill="#181818" points="4386.7,160.66,4378.2423,155.6135,4381.7358,160.0627,4377.2866,163.5562,4386.7,160.66" style="stroke:#181818;stroke-width:1;"/><text fill="#000000" font-family="sans-serif" font-size="13" lengthAdjust="spacing" textLength="23.0103" x="4103.5" y="124.5669">use</text></g><!--link Feature_User to logic_arc_int__baselibs__executor--><g id="link_Feature_User_logic_arc_int__baselibs__executor"><path codeLine="38" d="M3243.44,62.02 C3179.23,86.99 3067.4521,130.4654 3001.1321,156.2554 " fill="transparent" id="Feature_User-to-logic_arc_int__baselibs__executor" style="stroke:#181818;stroke-width:1;"/><polygon fill="#181818" points="2995.54,158.43,3005.3778,158.8961,3000.2,156.6178,3002.4784,151.4401,2995.54,158.43" style="stroke:#181818;stroke-width:1;"/><text fill="#000000" font-family="sans-serif" font-size="13" lengthAdjust="spacing" textLength="23.0103" x="3108.5" y="124.5669">use</text></g><!--link Feature_User to logic_arc_int__baselibs__bit_manipulation--><g id="link_Feature_User_logic_arc_int__baselibs__bit_manipulation"><path codeLine="39" d="M3243.48,50.26 C3098.25,68.83 2643.6315,126.9688 2403.4415,157.6888 " fill="transparent" id="Feature_User-to-logic_arc_int__baselibs__bit_manipulation" style="stroke:#181818;stroke-width:1;"/><polygon fill="#181818" points="2397.49,158.45,2406.9247,161.2759,2402.4496,157.8157,2405.9098,153.3405,2397.49,158.45" style="stroke:#181818;stroke-width:1;"/><text fill="#000000" font-family="sans-serif" font-size="13" lengthAdjust="spacing" textLength="23.0103" x="2738.5" y="124.5669">use</text></g><!--link Feature_User to logic_arc_int__baselibs__filesystem--><g id="link_Feature_User_logic_arc_int__baselibs__filesystem"><path codeLine="40" d="M3243.35,45.96 C3029.45,53.14 2096.78,87.19 1335.5,158.5 C1329.97,159.02 1330.2992,158.9726 1324.5992,159.5526 " fill="transparent" id="Feature_User-to-logic_arc_int__baselibs__filesystem" style="stroke:#181818;stroke-width:1;"/><polygon fill="#181818" points="1318.63,160.16,1327.9887,163.2284,1323.6043,159.6538,1327.1788,155.2695,1318.63,160.16" style="stroke:#181818;stroke-width:1;"/><text fill="#000000" font-family="sans-serif" font-size="13" lengthAdjust="spacing" textLength="23.0103" x="1926.5" y="124.5669">use</text></g><!--reverse link logic_arc_int__baselibs__bit_manipulation to comp_arc_sta__baselibs__bit_manipulation--><g id="link_logic_arc_int__baselibs__bit_manipulation_comp_arc_sta__baselibs__bit_manipulation"><path codeLine="41" d="M2202.8508,201.1952 C2158.0908,222.4652 2091.62,254.05 2046.83,275.34 " fill="transparent" id="logic_arc_int__baselibs__bit_manipulation-backto-comp_arc_sta__baselibs__bit_manipulation" style="stroke:#181818;stroke-width:1;"/><polygon fill="#181818" points="2208.27,198.62,2198.4243,198.87,2203.754,200.766,2201.858,206.0957,2208.27,198.62" style="stroke:#181818;stroke-width:1;"/><text fill="#000000" font-family="sans-serif" font-size="13" lengthAdjust="spacing" textLength="76.9082" x="2143.5" y="241.5669">implements</text></g><!--reverse link logic_arc_int__baselibs__utils_scoped_op to comp_arc_sta__baselibs__utils--><g id="link_logic_arc_int__baselibs__utils_scoped_op_comp_arc_sta__baselibs__utils"><path codeLine="42" d="M550.9324,202.5265 C577.1424,223.7565 614.41,253.94 640.65,275.19 " fill="transparent" id="logic_arc_int__baselibs__utils_scoped_op-backto-comp_arc_sta__baselibs__utils" style="stroke:#181818;stroke-width:1;"/><polygon fill="#181818" points="546.27,198.75,550.7459,207.523,550.1553,201.8971,555.7813,201.3065,546.27,198.75" style="stroke:#181818;stroke-width:1;"/><text fill="#000000" font-family="sans-serif" font-size="13" lengthAdjust="spacing" textLength="76.9082" x="603.5" y="241.5669">implements</text></g><!--reverse link logic_arc_int__baselibs__filesystem to comp_arc_sta__baselibs__filesystem--><g id="link_logic_arc_int__baselibs__filesystem_comp_arc_sta__baselibs__filesystem"><path codeLine="43" d="M1179.4002,204.7444 C1178.4802,225.9744 1177.26,253.94 1176.34,275.19 " fill="transparent" id="logic_arc_int__baselibs__filesystem-backto-comp_arc_sta__baselibs__filesystem" style="stroke:#181818;stroke-width:1;"/><polygon fill="#181818" points="1179.66,198.75,1175.2741,207.5684,1179.4435,203.7453,1183.2666,207.9147,1179.66,198.75" style="stroke:#181818;stroke-width:1;"/><text fill="#000000" font-family="sans-serif" font-size="13" lengthAdjust="spacing" textLength="76.9082" x="1179.5" y="241.5669">implements</text></g><!--link Feature_User to logic_arc_int__baselibs__future--><g id="link_Feature_User_logic_arc_int__baselibs__future"><path codeLine="44" d="M3333.76,62.58 C3396.62,87.68 3504.2682,130.6741 3568.3482,156.2741 " fill="transparent" id="Feature_User-to-logic_arc_int__baselibs__future" style="stroke:#181818;stroke-width:1;"/><polygon fill="#181818" points="3573.92,158.5,3567.0462,151.4465,3569.2768,156.645,3564.0783,158.8756,3573.92,158.5" style="stroke:#181818;stroke-width:1;"/><text fill="#000000" font-family="sans-serif" font-size="13" lengthAdjust="spacing" textLength="23.0103" x="3496.5" y="124.5669">use</text></g><!--link Feature_User to logic_arc_int__baselibs__bit_mask_operator--><g id="link_Feature_User_logic_arc_int__baselibs__bit_mask_operator"><path codeLine="45" d="M3243.38,48.57 C3083.32,63.04 2527.75,113.54 2069.5,158.5 C2063.88,159.05 2064.131,159.0312 2058.351,159.6012 " fill="transparent" id="Feature_User-to-logic_arc_int__baselibs__bit_mask_operator" style="stroke:#181818;stroke-width:1;"/><polygon fill="#181818" points="2052.38,160.19,2061.7291,163.2874,2057.3559,159.6993,2060.944,155.3261,2052.38,160.19" style="stroke:#181818;stroke-width:1;"/><text fill="#000000" font-family="sans-serif" font-size="13" lengthAdjust="spacing" textLength="23.0103" x="2540.5" y="124.5669">use</text></g><!--link Feature_User to logic_arc_int__baselibs__task_result--><g id="link_Feature_User_logic_arc_int__baselibs__task_result"><path codeLine="46" d="M3333.74,47.54 C3506.74,59.3 4143,103.93 4665.5,158.5 C4671.13,159.09 4670.9162,159.0419 4676.7162,159.6819 " fill="transparent" id="Feature_User-to-logic_arc_int__baselibs__task_result" style="stroke:#181818;stroke-width:1;"/><polygon fill="#181818" points="4682.68,160.34,4674.173,155.377,4677.7102,159.7916,4673.2956,163.3288,4682.68,160.34" style="stroke:#181818;stroke-width:1;"/><text fill="#000000" font-family="sans-serif" font-size="13" lengthAdjust="spacing" textLength="23.0103" x="4327.5" y="124.5669">use</text></g><!--reverse link logic_arc_int__baselibs__promise to comp_arc_sta__baselibs__concurrency--><g id="link_logic_arc_int__baselibs__promise_comp_arc_sta__baselibs__concurrency"><path codeLine="47" d="M4386.8275,199.3976 C4298.3275,212.7876 4182.63,230.11 4075.5,245.5 C4004.83,255.65 3926.19,266.55 3860.92,275.48 " fill="transparent" id="logic_arc_int__baselibs__promise-backto-comp_arc_sta__baselibs__concurrency" style="stroke:#181818;stroke-width:1;"/><polygon fill="#181818" points="4392.76,198.5,4383.2629,195.8914,4387.8163,199.248,4384.4597,203.8014,4392.76,198.5" style="stroke:#181818;stroke-width:1;"/><text fill="#000000" font-family="sans-serif" font-size="13" lengthAdjust="spacing" textLength="76.9082" x="4186.5" y="241.5669">implements</text></g><!--link Feature_User to logic_arc_int__baselibs__condition_variable--><g id="link_Feature_User_logic_arc_int__baselibs__condition_variable"><path codeLine="48" d="M3243.29,53.38 C3134.62,74.73 2862.6774,128.1532 2714.2674,157.3132 " fill="transparent" id="Feature_User-to-logic_arc_int__baselibs__condition_variable" style="stroke:#181818;stroke-width:1;"/><polygon fill="#181818" points="2708.38,158.47,2717.9823,160.6598,2713.2862,157.506,2716.44,152.8099,2708.38,158.47" style="stroke:#181818;stroke-width:1;"/><text fill="#000000" font-family="sans-serif" font-size="13" lengthAdjust="spacing" textLength="23.0103" x="2931.5" y="124.5669">use</text></g><!--reverse link logic_arc_int__baselibs__memory_shared to comp_arc_sta__baselibs__memory_shared--><g id="link_logic_arc_int__baselibs__memory_shared_comp_arc_sta__baselibs__memory_shared"><path codeLine="49" d="M170.5,204.75 C170.5,225.98 170.5,253.94 170.5,275.19 " fill="transparent" id="logic_arc_int__baselibs__memory_shared-backto-comp_arc_sta__baselibs__memory_shared" style="stroke:#181818;stroke-width:1;"/><polygon fill="#181818" points="170.5,198.75,166.5,207.75,170.5,203.75,174.5,207.75,170.5,198.75" style="stroke:#181818;stroke-width:1;"/><text fill="#000000" font-family="sans-serif" font-size="13" lengthAdjust="spacing" textLength="76.9082" x="171.5" y="241.5669">implements</text></g><!--reverse link logic_arc_int__baselibs__shared_future to comp_arc_sta__baselibs__concurrency--><g id="link_logic_arc_int__baselibs__shared_future_comp_arc_sta__baselibs__concurrency"><path codeLine="50" d="M4115.1351,199.948 C4026.2751,221.238 3889.1,254.11 3800.19,275.41 " fill="transparent" id="logic_arc_int__baselibs__shared_future-backto-comp_arc_sta__baselibs__concurrency" style="stroke:#181818;stroke-width:1;"/><polygon fill="#181818" points="4120.97,198.55,4111.2857,196.7571,4116.1076,199.715,4113.1497,204.5369,4120.97,198.55" style="stroke:#181818;stroke-width:1;"/><text fill="#000000" font-family="sans-serif" font-size="13" lengthAdjust="spacing" textLength="76.9082" x="3990.5" y="241.5669">implements</text></g><!--reverse link logic_arc_int__baselibs__executor to comp_arc_sta__baselibs__concurrency--><g id="link_logic_arc_int__baselibs__executor_comp_arc_sta__baselibs__concurrency"><path codeLine="51" d="M3080.6748,199.432 C3224.0648,220.742 3448.97,254.16 3592.33,275.46 " fill="transparent" id="logic_arc_int__baselibs__executor-backto-comp_arc_sta__baselibs__concurrency" style="stroke:#181818;stroke-width:1;"/><polygon fill="#181818" points="3074.74,198.55,3083.0542,203.8296,3079.6857,199.285,3084.2302,195.9165,3074.74,198.55" style="stroke:#181818;stroke-width:1;"/><text fill="#000000" font-family="sans-serif" font-size="13" lengthAdjust="spacing" textLength="76.9082" x="3381.5" y="241.5669">implements</text></g><!--reverse link logic_arc_int__baselibs__utils_base64 to comp_arc_sta__baselibs__utils--><g id="link_logic_arc_int__baselibs__utils_base64_comp_arc_sta__baselibs__utils"><path codeLine="52" d="M823.3479,201.7743 C786.8679,223.0643 733.64,254.14 697.25,275.38 " fill="transparent" id="logic_arc_int__baselibs__utils_base64-backto-comp_arc_sta__baselibs__utils" style="stroke:#181818;stroke-width:1;"/><polygon fill="#181818" points="828.53,198.75,818.7407,199.8317,824.2116,201.2702,822.7731,206.7411,828.53,198.75" style="stroke:#181818;stroke-width:1;"/><text fill="#000000" font-family="sans-serif" font-size="13" lengthAdjust="spacing" textLength="76.9082" x="776.5" y="241.5669">implements</text></g><!--SRC=[jLPDRzim3BtxLmYzfnk6OeUYw6N0JZskPq6MsOIBFZoHwkeD- - -JxMIDqoAo3Ez8ctoI-1u_b37-fxJuWcvRiMy5Ur5xPcz5Wm4qetVL3XiGn130SzV2Q8DjkHEAEM0T6QYw8-uCt5VNYj3KudVrW0w-UEE32D0CrhSTwhq38l7f-cFrfxhxS8YfbERaT_KL5CS0uf4WN0b5ul11zXz4LKtCJREv5yPlKKiLj4J7KjQAm61DKdudxsv5910bKJPTJcr1jeeefQGS8015m-LnaT6G9ErRQAHl3m3QstRm9bQdtjex7KC0fpknYPTmasU3FOloMGLKjO5RWROrOC4nNJo1LQ8iKEQ0P8P8-0pI8F4Kl2ZnreTEqaubiPIdZpgdTy4x_9NIzoD2X0KOmzdoAVO16G9wTMKICmfmOJgQpYax_0ggoujX7bLde3DbC5Deh6Y_DkQHYdLHtzFAGfh6gktjppVbWZildOiiZuqbyxHZzvcJi1fPMkMmZKRr3I83FRhJFZKd22frw_yXeA87dFNg3FoRphwGyb7dfLItmLka1Kq9Na378TkbaUVybYCyeG7gqk2t6MqkajBfpURGFTHQ1ldD59q3_FhCN3iwoST2zKo6Ip6Pa-ehXPZKrqhRnJzPBqp7Uzl9nQjDreHinKzMYfM7o7HPM1VyjUZNBOpZe3f5_Gi0]--></g></svg>