<svg xmlns="http://www.w3.org/2000/svg" xmlns:xlink="http://www.w3.org/1999/xlink" contentStyleType="text/css" data-diagram-type="CLASS" height="322px" preserveAspectRatio="none" style="width:6203px;height:322px;background:#FFFFFF;" version="1.1" viewBox="0 0 6203 322" width="6203px" zoomAndPan="magnify"><defs/><g><!--entity Feature_User--><g id="elem_Feature_User"><ellipse cx="3060.1685" cy="14" fill="#F1F1F1" rx="8" ry="8" style="stroke:#181818;stroke-width:0.5;"/><path d="M3060.1685,22 L3060.1685,49 M3047.1685,30 L3073.1685,30 M3060.1685,49 L3047.1685,64 M3060.1685,49 L3073.1685,64 " fill="transparent" style="stroke:#181818;stroke-width:0.5;"/><text fill="#000000" font-family="sans-serif" font-size="14" lengthAdjust="spacing" textLength="90.3369" x="3015" y="78.4951">Feature User</text></g><!--class comp_arc_sta__baselibs__concurrency--><g id="elem_comp_arc_sta__baselibs__concurrency"><rect fill="#F1F1F1" height="40" id="comp_arc_sta__baselibs__concurrency" rx="2.5" ry="2.5" style="stroke:#181818;stroke-width:0.5;" width="300.2012" x="2455" y="275.5"/><ellipse cx="2470" cy="291.5" fill="#ADD1B2" rx="11" ry="11" style="stroke:#181818;stroke-width:1;"/><path d="M2472.9688,297.1406 Q2472.3906,297.4375 2471.75,297.5781 Q2471.1094,297.7344 2470.4063,297.7344 Q2467.9063,297.7344 2466.5781,296.0938 Q2465.2656,294.4375 2465.2656,291.3125 Q2465.2656,288.1875 2466.5781,286.5313 Q2467.9063,284.875 2470.4063,284.875 Q2471.1094,284.875 2471.75,285.0313 Q2472.4063,285.1875 2472.9688,285.4844 L2472.9688,288.2031 Q2472.3438,287.625 2471.75,287.3594 Q2471.1563,287.0781 2470.5313,287.0781 Q2469.1875,287.0781 2468.5,288.1563 Q2467.8125,289.2188 2467.8125,291.3125 Q2467.8125,293.4063 2468.5,294.4844 Q2469.1875,295.5469 2470.5313,295.5469 Q2471.1563,295.5469 2471.75,295.2813 Q2472.3438,295 2472.9688,294.4219 L2472.9688,297.1406 Z " fill="#000000"/><text fill="#000000" font-family="sans-serif" font-size="14" lengthAdjust="spacing" textLength="268.2012" x="2484" y="296.3467">comp_arc_sta__baselibs__concurrency</text><line style="stroke:#181818;stroke-width:0.5;" x1="2456" x2="2754.2012" y1="307.5" y2="307.5"/></g><!--class logic_arc_int__baselibs__synchronized_queue--><g id="elem_logic_arc_int__baselibs__synchronized_queue"><rect fill="#F1F1F1" height="40" id="logic_arc_int__baselibs__synchronized_queue" rx="2.5" ry="2.5" style="stroke:#181818;stroke-width:0.5;" width="348.3604" x="2264" y="158.5"/><ellipse cx="2279" cy="174.5" fill="#ADD1B2" rx="11" ry="11" style="stroke:#181818;stroke-width:1;"/><path d="M2281.9688,180.1406 Q2281.3906,180.4375 2280.75,180.5781 Q2280.1094,180.7344 2279.4063,180.7344 Q2276.9063,180.7344 2275.5781,179.0938 Q2274.2656,177.4375 2274.2656,174.3125 Q2274.2656,171.1875 2275.5781,169.5313 Q2276.9063,167.875 2279.4063,167.875 Q2280.1094,167.875 2280.75,168.0313 Q2281.4063,168.1875 2281.9688,168.4844 L2281.9688,171.2031 Q2281.3438,170.625 2280.75,170.3594 Q2280.1563,170.0781 2279.5313,170.0781 Q2278.1875,170.0781 2277.5,171.1563 Q2276.8125,172.2188 2276.8125,174.3125 Q2276.8125,176.4063 2277.5,177.4844 Q2278.1875,178.5469 2279.5313,178.5469 Q2280.1563,178.5469 2280.75,178.2813 Q2281.3438,178 2281.9688,177.4219 L2281.9688,180.1406 Z " fill="#000000"/><text fill="#000000" font-family="sans-serif" font-size="14" lengthAdjust="spacing" textLength="316.3604" x="2293" y="179.3467">logic_arc_int__baselibs__synchronized_queue</text><line style="stroke:#181818;stroke-width:0.5;" x1="2265" x2="2611.3604" y1="190.5" y2="190.5"/></g><!--class logic_arc_int__baselibs__task--><g id="elem_logic_arc_int__baselibs__task"><rect fill="#F1F1F1" height="40" id="logic_arc_int__baselibs__task" rx="2.5" ry="2.5" style="stroke:#181818;stroke-width:0.5;" width="234.0156" x="1658" y="158.5"/><ellipse cx="1673" cy="174.5" fill="#ADD1B2" rx="11" ry="11" style="stroke:#181818;stroke-width:1;"/><path d="M1675.9688,180.1406 Q1675.3906,180.4375 1674.75,180.5781 Q1674.1094,180.7344 1673.4063,180.7344 Q1670.9063,180.7344 1669.5781,179.0938 Q1668.2656,177.4375 1668.2656,174.3125 Q1668.2656,171.1875 1669.5781,169.5313 Q1670.9063,167.875 1673.4063,167.875 Q1674.1094,167.875 1674.75,168.0313 Q1675.4063,168.1875 1675.9688,168.4844 L1675.9688,171.2031 Q1675.3438,170.625 1674.75,170.3594 Q1674.1563,170.0781 1673.5313,170.0781 Q1672.1875,170.0781 1671.5,171.1563 Q1670.8125,172.2188 1670.8125,174.3125 Q1670.8125,176.4063 1671.5,177.4844 Q1672.1875,178.5469 1673.5313,178.5469 Q1674.1563,178.5469 1674.75,178.2813 Q1675.3438,178 1675.9688,177.4219 L1675.9688,180.1406 Z " fill="#000000"/><text fill="#000000" font-family="sans-serif" font-size="14" lengthAdjust="spacing" textLength="202.0156" x="1687" y="179.3467">logic_arc_int__baselibs__task</text><line style="stroke:#181818;stroke-width:0.5;" x1="1659" x2="1891.0156" y1="190.5" y2="190.5"/></g><!--class logic_arc_int__baselibs__utils_scoped_op--><g id="elem_logic_arc_int__baselibs__utils_scoped_op"><rect fill="#F1F1F1" height="40" id="logic_arc_int__baselibs__utils_scoped_op" rx="2.5" ry="2.5" style="stroke:#181818;stroke-width:0.5;" width="315.377" x="334.5" y="158.5"/><ellipse cx="349.5" cy="174.5" fill="#ADD1B2" rx="11" ry="11" style="stroke:#181818;stroke-width:1;"/><path d="M352.4688,180.1406 Q351.8906,180.4375 351.25,180.5781 Q350.6094,180.7344 349.9063,180.7344 Q347.4063,180.7344 346.0781,179.0938 Q344.7656,177.4375 344.7656,174.3125 Q344.7656,171.1875 346.0781,169.5313 Q347.4063,167.875 349.9063,167.875 Q350.6094,167.875 351.25,168.0313 Q351.9063,168.1875 352.4688,168.4844 L352.4688,171.2031 Q351.8438,170.625 351.25,170.3594 Q350.6563,170.0781 350.0313,170.0781 Q348.6875,170.0781 348,171.1563 Q347.3125,172.2188 347.3125,174.3125 Q347.3125,176.4063 348,177.4844 Q348.6875,178.5469 350.0313,178.5469 Q350.6563,178.5469 351.25,178.2813 Q351.8438,178 352.4688,177.4219 L352.4688,180.1406 Z " fill="#000000"/><text fill="#000000" font-family="sans-serif" font-size="14" lengthAdjust="spacing" textLength="283.377" x="363.5" y="179.3467">logic_arc_int__baselibs__utils_scoped_op</text><line style="stroke:#181818;stroke-width:0.5;" x1="335.5" x2="648.877" y1="190.5" y2="190.5"/></g><!--class comp_arc_sta__baselibs__message_passing--><g id="elem_comp_arc_sta__baselibs__message_passing"><rect fill="#F1F1F1" height="40" id="comp_arc_sta__baselibs__message_passing" rx="2.5" ry="2.5" style="stroke:#181818;stroke-width:0.5;" width="337.1357" x="5859.5" y="275.5"/><ellipse cx="5874.5" cy="291.5" fill="#ADD1B2" rx="11" ry="11" style="stroke:#181818;stroke-width:1;"/><path d="M5877.4688,297.1406 Q5876.8906,297.4375 5876.25,297.5781 Q5875.6094,297.7344 5874.9063,297.7344 Q5872.4063,297.7344 5871.0781,296.0938 Q5869.7656,294.4375 5869.7656,291.3125 Q5869.7656,288.1875 5871.0781,286.5313 Q5872.4063,284.875 5874.9063,284.875 Q5875.6094,284.875 5876.25,285.0313 Q5876.9063,285.1875 5877.4688,285.4844 L5877.4688,288.2031 Q5876.8438,287.625 5876.25,287.3594 Q5875.6563,287.0781 5875.0313,287.0781 Q5873.6875,287.0781 5873,288.1563 Q5872.3125,289.2188 5872.3125,291.3125 Q5872.3125,293.4063 5873,294.4844 Q5873.6875,295.5469 5875.0313,295.5469 Q5875.6563,295.5469 5876.25,295.2813 Q5876.8438,295 5877.4688,294.4219 L5877.4688,297.1406 Z " fill="#000000"/><text fill="#000000" font-family="sans-serif" font-size="14" lengthAdjust="spacing" textLength="305.1357" x="5888.5" y="296.3467">comp_arc_sta__baselibs__message_passing</text><line style="stroke:#181818;stroke-width:0.5;" x1="5860.5" x2="6195.6357" y1="307.5" y2="307.5"/></g><!--class logic_arc_int__baselibs__message_passing--><g id="elem_logic_arc_int__baselibs__message_passing"><rect fill="#F1F1F1" height="40" id="logic_arc_int__baselibs__message_passing" rx="2.5" ry="2.5" style="stroke:#181818;stroke-width:0.5;" width="328.167" x="5859" y="158.5"/><ellipse cx="5874" cy="174.5" fill="#ADD1B2" rx="11" ry="11" style="stroke:#181818;stroke-width:1;"/><path d="M5876.9688,180.1406 Q5876.3906,180.4375 5875.75,180.5781 Q5875.1094,180.7344 5874.4063,180.7344 Q5871.9063,180.7344 5870.5781,179.0938 Q5869.2656,177.4375 5869.2656,174.3125 Q5869.2656,171.1875 5870.5781,169.5313 Q5871.9063,167.875 5874.4063,167.875 Q5875.1094,167.875 5875.75,168.0313 Q5876.4063,168.1875 5876.9688,168.4844 L5876.9688,171.2031 Q5876.3438,170.625 5875.75,170.3594 Q5875.1563,170.0781 5874.5313,170.0781 Q5873.1875,170.0781 5872.5,171.1563 Q5871.8125,172.2188 5871.8125,174.3125 Q5871.8125,176.4063 5872.5,177.4844 Q5873.1875,178.5469 5874.5313,178.5469 Q5875.1563,178.5469 5875.75,178.2813 Q5876.3438,178 5876.9688,177.4219 L5876.9688,180.1406 Z " fill="#000000"/><text fill="#000000" font-family="sans-serif" font-size="14" lengthAdjust="spacing" textLength="296.167" x="5888" y="179.3467">logic_arc_int__baselibs__message_passing</text><line style="stroke:#181818;stroke-width:0.5;" x1="5860" x2="6186.167" y1="190.5" y2="190.5"/></g><!--class logic_arc_int__baselibs__intrusive_list--><g id="elem_logic_arc_int__baselibs__intrusive_list"><rect fill="#F1F1F1" height="40" id="logic_arc_int__baselibs__intrusive_list" rx="2.5" ry="2.5" style="stroke:#181818;stroke-width:0.5;" width="293.0713" x="1028.5" y="158.5"/><ellipse cx="1043.5" cy="174.5" fill="#ADD1B2" rx="11" ry="11" style="stroke:#181818;stroke-width:1;"/><path d="M1046.4688,180.1406 Q1045.8906,180.4375 1045.25,180.5781 Q1044.6094,180.7344 1043.9063,180.7344 Q1041.4063,180.7344 1040.0781,179.0938 Q1038.7656,177.4375 1038.7656,174.3125 Q1038.7656,171.1875 1040.0781,169.5313 Q1041.4063,167.875 1043.9063,167.875 Q1044.6094,167.875 1045.25,168.0313 Q1045.9063,168.1875 1046.4688,168.4844 L1046.4688,171.2031 Q1045.8438,170.625 1045.25,170.3594 Q1044.6563,170.0781 1044.0313,170.0781 Q1042.6875,170.0781 1042,171.1563 Q1041.3125,172.2188 1041.3125,174.3125 Q1041.3125,176.4063 1042,177.4844 Q1042.6875,178.5469 1044.0313,178.5469 Q1044.6563,178.5469 1045.25,178.2813 Q1045.8438,178 1046.4688,177.4219 L1046.4688,180.1406 Z " fill="#000000"/><text fill="#000000" font-family="sans-serif" font-size="14" lengthAdjust="spacing" textLength="261.0713" x="1057.5" y="179.3467">logic_arc_int__baselibs__intrusive_list</text><line style="stroke:#181818;stroke-width:0.5;" x1="1029.5" x2="1320.5713" y1="190.5" y2="190.5"/></g><!--class comp_arc_sta__baselibs__filesystem--><g id="elem_comp_arc_sta__baselibs__filesystem"><rect fill="#F1F1F1" height="40" id="comp_arc_sta__baselibs__filesystem" rx="2.5" ry="2.5" style="stroke:#181818;stroke-width:0.5;" width="285.4492" x="5539.5" y="275.5"/><ellipse cx="5554.5" cy="291.5" fill="#ADD1B2" rx="11" ry="11" style="stroke:#181818;stroke-width:1;"/><path d="M5557.4688,297.1406 Q5556.8906,297.4375 5556.25,297.5781 Q5555.6094,297.7344 5554.9063,297.7344 Q5552.4063,297.7344 5551.0781,296.0938 Q5549.7656,294.4375 5549.7656,291.3125 Q5549.7656,288.1875 5551.0781,286.5313 Q5552.4063,284.875 5554.9063,284.875 Q5555.6094,284.875 5556.25,285.0313 Q5556.9063,285.1875 5557.4688,285.4844 L5557.4688,288.2031 Q5556.8438,287.625 5556.25,287.3594 Q5555.6563,287.0781 5555.0313,287.0781 Q5553.6875,287.0781 5553,288.1563 Q5552.3125,289.2188 5552.3125,291.3125 Q5552.3125,293.4063 5553,294.4844 Q5553.6875,295.5469 5555.0313,295.5469 Q5555.6563,295.5469 5556.25,295.2813 Q5556.8438,295 5557.4688,294.4219 L5557.4688,297.1406 Z " fill="#000000"/><text fill="#000000" font-family="sans-serif" font-size="14" lengthAdjust="spacing" textLength="253.4492" x="5568.5" y="296.3467">comp_arc_sta__baselibs__filesystem</text><line style="stroke:#181818;stroke-width:0.5;" x1="5540.5" x2="5823.9492" y1="307.5" y2="307.5"/></g><!--class logic_arc_int__baselibs__filesystem--><g id="elem_logic_arc_int__baselibs__filesystem"><rect fill="#F1F1F1" height="40" id="logic_arc_int__baselibs__filesystem" rx="2.5" ry="2.5" style="stroke:#181818;stroke-width:0.5;" width="276.4805" x="5542" y="158.5"/><ellipse cx="5557" cy="174.5" fill="#ADD1B2" rx="11" ry="11" style="stroke:#181818;stroke-width:1;"/><path d="M5559.9688,180.1406 Q5559.3906,180.4375 5558.75,180.5781 Q5558.1094,180.7344 5557.4063,180.7344 Q5554.9063,180.7344 5553.5781,179.0938 Q5552.2656,177.4375 5552.2656,174.3125 Q5552.2656,171.1875 5553.5781,169.5313 Q5554.9063,167.875 5557.4063,167.875 Q5558.1094,167.875 5558.75,168.0313 Q5559.4063,168.1875 5559.9688,168.4844 L5559.9688,171.2031 Q5559.3438,170.625 5558.75,170.3594 Q5558.1563,170.0781 5557.5313,170.0781 Q5556.1875,170.0781 5555.5,171.1563 Q5554.8125,172.2188 5554.8125,174.3125 Q5554.8125,176.4063 5555.5,177.4844 Q5556.1875,178.5469 5557.5313,178.5469 Q5558.1563,178.5469 5558.75,178.2813 Q5559.3438,178 5559.9688,177.4219 L5559.9688,180.1406 Z " fill="#000000"/><text fill="#000000" font-family="sans-serif" font-size="14" lengthAdjust="spacing" textLength="244.4805" x="5571" y="179.3467">logic_arc_int__baselibs__filesystem</text><line style="stroke:#181818;stroke-width:0.5;" x1="5543" x2="5817.4805" y1="190.5" y2="190.5"/></g><!--class logic_arc_int__baselibs__condition_variable--><g id="elem_logic_arc_int__baselibs__condition_variable"><rect fill="#F1F1F1" height="40" id="logic_arc_int__baselibs__condition_variable" rx="2.5" ry="2.5" style="stroke:#181818;stroke-width:0.5;" width="332.7539" x="3225.5" y="158.5"/><ellipse cx="3240.5" cy="174.5" fill="#ADD1B2" rx="11" ry="11" style="stroke:#181818;stroke-width:1;"/><path d="M3243.4688,180.1406 Q3242.8906,180.4375 3242.25,180.5781 Q3241.6094,180.7344 3240.9063,180.7344 Q3238.4063,180.7344 3237.0781,179.0938 Q3235.7656,177.4375 3235.7656,174.3125 Q3235.7656,171.1875 3237.0781,169.5313 Q3238.4063,167.875 3240.9063,167.875 Q3241.6094,167.875 3242.25,168.0313 Q3242.9063,168.1875 3243.4688,168.4844 L3243.4688,171.2031 Q3242.8438,170.625 3242.25,170.3594 Q3241.6563,170.0781 3241.0313,170.0781 Q3239.6875,170.0781 3239,171.1563 Q3238.3125,172.2188 3238.3125,174.3125 Q3238.3125,176.4063 3239,177.4844 Q3239.6875,178.5469 3241.0313,178.5469 Q3241.6563,178.5469 3242.25,178.2813 Q3242.8438,178 3243.4688,177.4219 L3243.4688,180.1406 Z " fill="#000000"/><text fill="#000000" font-family="sans-serif" font-size="14" lengthAdjust="spacing" textLength="300.7539" x="3254.5" y="179.3467">logic_arc_int__baselibs__condition_variable</text><line style="stroke:#181818;stroke-width:0.5;" x1="3226.5" x2="3557.2539" y1="190.5" y2="190.5"/></g><!--class logic_arc_int__baselibs__executor--><g id="elem_logic_arc_int__baselibs__executor"><rect fill="#F1F1F1" height="40" id="logic_arc_int__baselibs__executor" rx="2.5" ry="2.5" style="stroke:#181818;stroke-width:0.5;" width="266.4385" x="1357" y="158.5"/><ellipse cx="1372" cy="174.5" fill="#ADD1B2" rx="11" ry="11" style="stroke:#181818;stroke-width:1;"/><path d="M1374.9688,180.1406 Q1374.3906,180.4375 1373.75,180.5781 Q1373.1094,180.7344 1372.4063,180.7344 Q1369.9063,180.7344 1368.5781,179.0938 Q1367.2656,177.4375 1367.2656,174.3125 Q1367.2656,171.1875 1368.5781,169.5313 Q1369.9063,167.875 1372.4063,167.875 Q1373.1094,167.875 1373.75,168.0313 Q1374.4063,168.1875 1374.9688,168.4844 L1374.9688,171.2031 Q1374.3438,170.625 1373.75,170.3594 Q1373.1563,170.0781 1372.5313,170.0781 Q1371.1875,170.0781 1370.5,171.1563 Q1369.8125,172.2188 1369.8125,174.3125 Q1369.8125,176.4063 1370.5,177.4844 Q1371.1875,178.5469 1372.5313,178.5469 Q1373.1563,178.5469 1373.75,178.2813 Q1374.3438,178 1374.9688,177.4219 L1374.9688,180.1406 Z " fill="#000000"/><text fill="#000000" font-family="sans-serif" font-size="14" lengthAdjust="spacing" textLength="234.4385" x="1386" y="179.3467">logic_arc_int__baselibs__executor</text><line style="stroke:#181818;stroke-width:0.5;" x1="1358" x2="1622.4385" y1="190.5" y2="190.5"/></g><!--class logic_arc_int__baselibs__result--><g id="elem_logic_arc_int__baselibs__result"><rect fill="#F1F1F1" height="40" id="logic_arc_int__baselibs__result" rx="2.5" ry="2.5" style="stroke:#181818;stroke-width:0.5;" width="244.4609" x="3910" y="158.5"/><ellipse cx="3925" cy="174.5" fill="#ADD1B2" rx="11" ry="11" style="stroke:#181818;stroke-width:1;"/><path d="M3927.9688,180.1406 Q3927.3906,180.4375 3926.75,180.5781 Q3926.1094,180.7344 3925.4063,180.7344 Q3922.9063,180.7344 3921.5781,179.0938 Q3920.2656,177.4375 3920.2656,174.3125 Q3920.2656,171.1875 3921.5781,169.5313 Q3922.9063,167.875 3925.4063,167.875 Q3926.1094,167.875 3926.75,168.0313 Q3927.4063,168.1875 3927.9688,168.4844 L3927.9688,171.2031 Q3927.3438,170.625 3926.75,170.3594 Q3926.1563,170.0781 3925.5313,170.0781 Q3924.1875,170.0781 3923.5,171.1563 Q3922.8125,172.2188 3922.8125,174.3125 Q3922.8125,176.4063 3923.5,177.4844 Q3924.1875,178.5469 3925.5313,178.5469 Q3926.1563,178.5469 3926.75,178.2813 Q3927.3438,178 3927.9688,177.4219 L3927.9688,180.1406 Z " fill="#000000"/><text fill="#000000" font-family="sans-serif" font-size="14" lengthAdjust="spacing" textLength="212.4609" x="3939" y="179.3467">logic_arc_int__baselibs__result</text><line style="stroke:#181818;stroke-width:0.5;" x1="3911" x2="4153.4609" y1="190.5" y2="190.5"/></g><!--class comp_arc_sta__baselibs__json--><g id="elem_comp_arc_sta__baselibs__json"><rect fill="#F1F1F1" height="40" id="comp_arc_sta__baselibs__json" rx="2.5" ry="2.5" style="stroke:#181818;stroke-width:0.5;" width="242.1367" x="5262" y="275.5"/><ellipse cx="5277" cy="291.5" fill="#ADD1B2" rx="11" ry="11" style="stroke:#181818;stroke-width:1;"/><path d="M5279.9688,297.1406 Q5279.3906,297.4375 5278.75,297.5781 Q5278.1094,297.7344 5277.4063,297.7344 Q5274.9063,297.7344 5273.5781,296.0938 Q5272.2656,294.4375 5272.2656,291.3125 Q5272.2656,288.1875 5273.5781,286.5313 Q5274.9063,284.875 5277.4063,284.875 Q5278.1094,284.875 5278.75,285.0313 Q5279.4063,285.1875 5279.9688,285.4844 L5279.9688,288.2031 Q5279.3438,287.625 5278.75,287.3594 Q5278.1563,287.0781 5277.5313,287.0781 Q5276.1875,287.0781 5275.5,288.1563 Q5274.8125,289.2188 5274.8125,291.3125 Q5274.8125,293.4063 5275.5,294.4844 Q5276.1875,295.5469 5277.5313,295.5469 Q5278.1563,295.5469 5278.75,295.2813 Q5279.3438,295 5279.9688,294.4219 L5279.9688,297.1406 Z " fill="#000000"/><text fill="#000000" font-family="sans-serif" font-size="14" lengthAdjust="spacing" textLength="210.1367" x="5291" y="296.3467">comp_arc_sta__baselibs__json</text><line style="stroke:#181818;stroke-width:0.5;" x1="5263" x2="5503.1367" y1="307.5" y2="307.5"/></g><!--class logic_arc_int__baselibs__json--><g id="elem_logic_arc_int__baselibs__json"><rect fill="#F1F1F1" height="40" id="logic_arc_int__baselibs__json" rx="2.5" ry="2.5" style="stroke:#181818;stroke-width:0.5;" width="233.168" x="5269.5" y="158.5"/><ellipse cx="5284.5" cy="174.5" fill="#ADD1B2" rx="11" ry="11" style="stroke:#181818;stroke-width:1;"/><path d="M5287.4688,180.1406 Q5286.8906,180.4375 5286.25,180.5781 Q5285.6094,180.7344 5284.9063,180.7344 Q5282.4063,180.7344 5281.0781,179.0938 Q5279.7656,177.4375 5279.7656,174.3125 Q5279.7656,171.1875 5281.0781,169.5313 Q5282.4063,167.875 5284.9063,167.875 Q5285.6094,167.875 5286.25,168.0313 Q5286.9063,168.1875 5287.4688,168.4844 L5287.4688,171.2031 Q5286.8438,170.625 5286.25,170.3594 Q5285.6563,170.0781 5285.0313,170.0781 Q5283.6875,170.0781 5283,171.1563 Q5282.3125,172.2188 5282.3125,174.3125 Q5282.3125,176.4063 5283,177.4844 Q5283.6875,178.5469 5285.0313,178.5469 Q5285.6563,178.5469 5286.25,178.2813 Q5286.8438,178 5287.4688,177.4219 L5287.4688,180.1406 Z " fill="#000000"/><text fill="#000000" font-family="sans-serif" font-size="14" lengthAdjust="spacing" textLength="201.168" x="5298.5" y="179.3467">logic_arc_int__baselibs__json</text><line style="stroke:#181818;stroke-width:0.5;" x1="5270.5" x2="5501.668" y1="190.5" y2="190.5"/></g><!--class comp_arc_sta__baselibs__containers--><g id="elem_comp_arc_sta__baselibs__containers"><rect fill="#F1F1F1" height="40" id="comp_arc_sta__baselibs__containers" rx="2.5" ry="2.5" style="stroke:#181818;stroke-width:0.5;" width="287.1445" x="947.5" y="275.5"/><ellipse cx="962.5" cy="291.5" fill="#ADD1B2" rx="11" ry="11" style="stroke:#181818;stroke-width:1;"/><path d="M965.4688,297.1406 Q964.8906,297.4375 964.25,297.5781 Q963.6094,297.7344 962.9063,297.7344 Q960.4063,297.7344 959.0781,296.0938 Q957.7656,294.4375 957.7656,291.3125 Q957.7656,288.1875 959.0781,286.5313 Q960.4063,284.875 962.9063,284.875 Q963.6094,284.875 964.25,285.0313 Q964.9063,285.1875 965.4688,285.4844 L965.4688,288.2031 Q964.8438,287.625 964.25,287.3594 Q963.6563,287.0781 963.0313,287.0781 Q961.6875,287.0781 961,288.1563 Q960.3125,289.2188 960.3125,291.3125 Q960.3125,293.4063 961,294.4844 Q961.6875,295.5469 963.0313,295.5469 Q963.6563,295.5469 964.25,295.2813 Q964.8438,295 965.4688,294.4219 L965.4688,297.1406 Z " fill="#000000"/><text fill="#000000" font-family="sans-serif" font-size="14" lengthAdjust="spacing" textLength="255.1445" x="976.5" y="296.3467">comp_arc_sta__baselibs__containers</text><line style="stroke:#181818;stroke-width:0.5;" x1="948.5" x2="1233.6445" y1="307.5" y2="307.5"/></g><!--class logic_arc_int__baselibs__dynamic_array--><g id="elem_logic_arc_int__baselibs__dynamic_array"><rect fill="#F1F1F1" height="40" id="logic_arc_int__baselibs__dynamic_array" rx="2.5" ry="2.5" style="stroke:#181818;stroke-width:0.5;" width="308.3496" x="685" y="158.5"/><ellipse cx="700" cy="174.5" fill="#ADD1B2" rx="11" ry="11" style="stroke:#181818;stroke-width:1;"/><path d="M702.9688,180.1406 Q702.3906,180.4375 701.75,180.5781 Q701.1094,180.7344 700.4063,180.7344 Q697.9063,180.7344 696.5781,179.0938 Q695.2656,177.4375 695.2656,174.3125 Q695.2656,171.1875 696.5781,169.5313 Q697.9063,167.875 700.4063,167.875 Q701.1094,167.875 701.75,168.0313 Q702.4063,168.1875 702.9688,168.4844 L702.9688,171.2031 Q702.3438,170.625 701.75,170.3594 Q701.1563,170.0781 700.5313,170.0781 Q699.1875,170.0781 698.5,171.1563 Q697.8125,172.2188 697.8125,174.3125 Q697.8125,176.4063 698.5,177.4844 Q699.1875,178.5469 700.5313,178.5469 Q701.1563,178.5469 701.75,178.2813 Q702.3438,178 702.9688,177.4219 L702.9688,180.1406 Z " fill="#000000"/><text fill="#000000" font-family="sans-serif" font-size="14" lengthAdjust="spacing" textLength="276.3496" x="714" y="179.3467">logic_arc_int__baselibs__dynamic_array</text><line style="stroke:#181818;stroke-width:0.5;" x1="686" x2="992.3496" y1="190.5" y2="190.5"/></g><!--class logic_arc_int__baselibs__shared_future--><g id="elem_logic_arc_int__baselibs__shared_future"><rect fill="#F1F1F1" height="40" id="logic_arc_int__baselibs__shared_future" rx="2.5" ry="2.5" style="stroke:#181818;stroke-width:0.5;" width="302.0811" x="1927" y="158.5"/><ellipse cx="1942" cy="174.5" fill="#ADD1B2" rx="11" ry="11" style="stroke:#181818;stroke-width:1;"/><path d="M1944.9688,180.1406 Q1944.3906,180.4375 1943.75,180.5781 Q1943.1094,180.7344 1942.4063,180.7344 Q1939.9063,180.7344 1938.5781,179.0938 Q1937.2656,177.4375 1937.2656,174.3125 Q1937.2656,171.1875 1938.5781,169.5313 Q1939.9063,167.875 1942.4063,167.875 Q1943.1094,167.875 1943.75,168.0313 Q1944.4063,168.1875 1944.9688,168.4844 L1944.9688,171.2031 Q1944.3438,170.625 1943.75,170.3594 Q1943.1563,170.0781 1942.5313,170.0781 Q1941.1875,170.0781 1940.5,171.1563 Q1939.8125,172.2188 1939.8125,174.3125 Q1939.8125,176.4063 1940.5,177.4844 Q1941.1875,178.5469 1942.5313,178.5469 Q1943.1563,178.5469 1943.75,178.2813 Q1944.3438,178 1944.9688,177.4219 L1944.9688,180.1406 Z " fill="#000000"/><text fill="#000000" font-family="sans-serif" font-size="14" lengthAdjust="spacing" textLength="270.0811" x="1956" y="179.3467">logic_arc_int__baselibs__shared_future</text><line style="stroke:#181818;stroke-width:0.5;" x1="1928" x2="2228.0811" y1="190.5" y2="190.5"/></g><!--class logic_arc_int__baselibs__promise--><g id="elem_logic_arc_int__baselibs__promise"><rect fill="#F1F1F1" height="40" id="logic_arc_int__baselibs__promise" rx="2.5" ry="2.5" style="stroke:#181818;stroke-width:0.5;" width="261.1885" x="2929.5" y="158.5"/><ellipse cx="2944.5" cy="174.5" fill="#ADD1B2" rx="11" ry="11" style="stroke:#181818;stroke-width:1;"/><path d="M2947.4688,180.1406 Q2946.8906,180.4375 2946.25,180.5781 Q2945.6094,180.7344 2944.9063,180.7344 Q2942.4063,180.7344 2941.0781,179.0938 Q2939.7656,177.4375 2939.7656,174.3125 Q2939.7656,171.1875 2941.0781,169.5313 Q2942.4063,167.875 2944.9063,167.875 Q2945.6094,167.875 2946.25,168.0313 Q2946.9063,168.1875 2947.4688,168.4844 L2947.4688,171.2031 Q2946.8438,170.625 2946.25,170.3594 Q2945.6563,170.0781 2945.0313,170.0781 Q2943.6875,170.0781 2943,171.1563 Q2942.3125,172.2188 2942.3125,174.3125 Q2942.3125,176.4063 2943,177.4844 Q2943.6875,178.5469 2945.0313,178.5469 Q2945.6563,178.5469 2946.25,178.2813 Q2946.8438,178 2947.4688,177.4219 L2947.4688,180.1406 Z " fill="#000000"/><text fill="#000000" font-family="sans-serif" font-size="14" lengthAdjust="spacing" textLength="229.1885" x="2958.5" y="179.3467">logic_arc_int__baselibs__promise</text><line style="stroke:#181818;stroke-width:0.5;" x1="2930.5" x2="3189.6885" y1="190.5" y2="190.5"/></g><!--class comp_arc_sta__baselibs__bit_manipulation--><g id="elem_comp_arc_sta__baselibs__bit_manipulation"><rect fill="#F1F1F1" height="40" id="comp_arc_sta__baselibs__bit_manipulation" rx="2.5" ry="2.5" style="stroke:#181818;stroke-width:0.5;" width="330.8057" x="4371.5" y="275.5"/><ellipse cx="4386.5" cy="291.5" fill="#ADD1B2" rx="11" ry="11" style="stroke:#181818;stroke-width:1;"/><path d="M4389.4688,297.1406 Q4388.8906,297.4375 4388.25,297.5781 Q4387.6094,297.7344 4386.9063,297.7344 Q4384.4063,297.7344 4383.0781,296.0938 Q4381.7656,294.4375 4381.7656,291.3125 Q4381.7656,288.1875 4383.0781,286.5313 Q4384.4063,284.875 4386.9063,284.875 Q4387.6094,284.875 4388.25,285.0313 Q4388.9063,285.1875 4389.4688,285.4844 L4389.4688,288.2031 Q4388.8438,287.625 4388.25,287.3594 Q4387.6563,287.0781 4387.0313,287.0781 Q4385.6875,287.0781 4385,288.1563 Q4384.3125,289.2188 4384.3125,291.3125 Q4384.3125,293.4063 4385,294.4844 Q4385.6875,295.5469 4387.0313,295.5469 Q4387.6563,295.5469 4388.25,295.2813 Q4388.8438,295 4389.4688,294.4219 L4389.4688,297.1406 Z " fill="#000000"/><text fill="#000000" font-family="sans-serif" font-size="14" lengthAdjust="spacing" textLength="298.8057" x="4400.5" y="296.3467">comp_arc_sta__baselibs__bit_manipulation</text><line style="stroke:#181818;stroke-width:0.5;" x1="4372.5" x2="4701.3057" y1="307.5" y2="307.5"/></g><!--class logic_arc_int__baselibs__bit_mask_operator--><g id="elem_logic_arc_int__baselibs__bit_mask_operator"><rect fill="#F1F1F1" height="40" id="logic_arc_int__baselibs__bit_mask_operator" rx="2.5" ry="2.5" style="stroke:#181818;stroke-width:0.5;" width="334.6406" x="4546.5" y="158.5"/><ellipse cx="4561.5" cy="174.5" fill="#ADD1B2" rx="11" ry="11" style="stroke:#181818;stroke-width:1;"/><path d="M4564.4688,180.1406 Q4563.8906,180.4375 4563.25,180.5781 Q4562.6094,180.7344 4561.9063,180.7344 Q4559.4063,180.7344 4558.0781,179.0938 Q4556.7656,177.4375 4556.7656,174.3125 Q4556.7656,171.1875 4558.0781,169.5313 Q4559.4063,167.875 4561.9063,167.875 Q4562.6094,167.875 4563.25,168.0313 Q4563.9063,168.1875 4564.4688,168.4844 L4564.4688,171.2031 Q4563.8438,170.625 4563.25,170.3594 Q4562.6563,170.0781 4562.0313,170.0781 Q4560.6875,170.0781 4560,171.1563 Q4559.3125,172.2188 4559.3125,174.3125 Q4559.3125,176.4063 4560,177.4844 Q4560.6875,178.5469 4562.0313,178.5469 Q4562.6563,178.5469 4563.25,178.2813 Q4563.8438,178 4564.4688,177.4219 L4564.4688,180.1406 Z " fill="#000000"/><text fill="#000000" font-family="sans-serif" font-size="14" lengthAdjust="spacing" textLength="302.6406" x="4575.5" y="179.3467">logic_arc_int__baselibs__bit_mask_operator</text><line style="stroke:#181818;stroke-width:0.5;" x1="4547.5" x2="4880.1406" y1="190.5" y2="190.5"/></g><!--class comp_arc_sta__baselibs__utils--><g id="elem_comp_arc_sta__baselibs__utils"><rect fill="#F1F1F1" height="40" id="comp_arc_sta__baselibs__utils" rx="2.5" ry="2.5" style="stroke:#181818;stroke-width:0.5;" width="242.9502" x="174.5" y="275.5"/><ellipse cx="189.5" cy="291.5" fill="#ADD1B2" rx="11" ry="11" style="stroke:#181818;stroke-width:1;"/><path d="M192.4688,297.1406 Q191.8906,297.4375 191.25,297.5781 Q190.6094,297.7344 189.9063,297.7344 Q187.4063,297.7344 186.0781,296.0938 Q184.7656,294.4375 184.7656,291.3125 Q184.7656,288.1875 186.0781,286.5313 Q187.4063,284.875 189.9063,284.875 Q190.6094,284.875 191.25,285.0313 Q191.9063,285.1875 192.4688,285.4844 L192.4688,288.2031 Q191.8438,287.625 191.25,287.3594 Q190.6563,287.0781 190.0313,287.0781 Q188.6875,287.0781 188,288.1563 Q187.3125,289.2188 187.3125,291.3125 Q187.3125,293.4063 188,294.4844 Q188.6875,295.5469 190.0313,295.5469 Q190.6563,295.5469 191.25,295.2813 Q191.8438,295 192.4688,294.4219 L192.4688,297.1406 Z " fill="#000000"/><text fill="#000000" font-family="sans-serif" font-size="14" lengthAdjust="spacing" textLength="210.9502" x="203.5" y="296.3467">comp_arc_sta__baselibs__utils</text><line style="stroke:#181818;stroke-width:0.5;" x1="175.5" x2="416.4502" y1="307.5" y2="307.5"/></g><!--class comp_arc_sta__baselibs__memory_shared--><g id="elem_comp_arc_sta__baselibs__memory_shared"><rect fill="#F1F1F1" height="40" id="comp_arc_sta__baselibs__memory_shared" rx="2.5" ry="2.5" style="stroke:#181818;stroke-width:0.5;" width="327.0117" x="4900.5" y="275.5"/><ellipse cx="4915.5" cy="291.5" fill="#ADD1B2" rx="11" ry="11" style="stroke:#181818;stroke-width:1;"/><path d="M4918.4688,297.1406 Q4917.8906,297.4375 4917.25,297.5781 Q4916.6094,297.7344 4915.9063,297.7344 Q4913.4063,297.7344 4912.0781,296.0938 Q4910.7656,294.4375 4910.7656,291.3125 Q4910.7656,288.1875 4912.0781,286.5313 Q4913.4063,284.875 4915.9063,284.875 Q4916.6094,284.875 4917.25,285.0313 Q4917.9063,285.1875 4918.4688,285.4844 L4918.4688,288.2031 Q4917.8438,287.625 4917.25,287.3594 Q4916.6563,287.0781 4916.0313,287.0781 Q4914.6875,287.0781 4914,288.1563 Q4913.3125,289.2188 4913.3125,291.3125 Q4913.3125,293.4063 4914,294.4844 Q4914.6875,295.5469 4916.0313,295.5469 Q4916.6563,295.5469 4917.25,295.2813 Q4917.8438,295 4918.4688,294.4219 L4918.4688,297.1406 Z " fill="#000000"/><text fill="#000000" font-family="sans-serif" font-size="14" lengthAdjust="spacing" textLength="295.0117" x="4929.5" y="296.3467">comp_arc_sta__baselibs__memory_shared</text><line style="stroke:#181818;stroke-width:0.5;" x1="4901.5" x2="5226.5117" y1="307.5" y2="307.5"/></g><!--class logic_arc_int__baselibs__memory_shared--><g id="elem_logic_arc_int__baselibs__memory_shared"><rect fill="#F1F1F1" height="40" id="logic_arc_int__baselibs__memory_shared" rx="2.5" ry="2.5" style="stroke:#181818;stroke-width:0.5;" width="318.043" x="4917" y="158.5"/><ellipse cx="4932" cy="174.5" fill="#ADD1B2" rx="11" ry="11" style="stroke:#181818;stroke-width:1;"/><path d="M4934.9688,180.1406 Q4934.3906,180.4375 4933.75,180.5781 Q4933.1094,180.7344 4932.4063,180.7344 Q4929.9063,180.7344 4928.5781,179.0938 Q4927.2656,177.4375 4927.2656,174.3125 Q4927.2656,171.1875 4928.5781,169.5313 Q4929.9063,167.875 4932.4063,167.875 Q4933.1094,167.875 4933.75,168.0313 Q4934.4063,168.1875 4934.9688,168.4844 L4934.9688,171.2031 Q4934.3438,170.625 4933.75,170.3594 Q4933.1563,170.0781 4932.5313,170.0781 Q4931.1875,170.0781 4930.5,171.1563 Q4929.8125,172.2188 4929.8125,174.3125 Q4929.8125,176.4063 4930.5,177.4844 Q4931.1875,178.5469 4932.5313,178.5469 Q4933.1563,178.5469 4933.75,178.2813 Q4934.3438,178 4934.9688,177.4219 L4934.9688,180.1406 Z " fill="#000000"/><text fill="#000000" font-family="sans-serif" font-size="14" lengthAdjust="spacing" textLength="286.043" x="4946" y="179.3467">logic_arc_int__baselibs__memory_shared</text><line style="stroke:#181818;stroke-width:0.5;" x1="4918" x2="5234.043" y1="190.5" y2="190.5"/></g><!--class logic_arc_int__baselibs__future--><g id="elem_logic_arc_int__baselibs__future"><rect fill="#F1F1F1" height="40" id="logic_arc_int__baselibs__future" rx="2.5" ry="2.5" style="stroke:#181818;stroke-width:0.5;" width="247.0791" x="2647.5" y="158.5"/><ellipse cx="2662.5" cy="174.5" fill="#ADD1B2" rx="11" ry="11" style="stroke:#181818;stroke-width:1;"/><path d="M2665.4688,180.1406 Q2664.8906,180.4375 2664.25,180.5781 Q2663.6094,180.7344 2662.9063,180.7344 Q2660.4063,180.7344 2659.0781,179.0938 Q2657.7656,177.4375 2657.7656,174.3125 Q2657.7656,171.1875 2659.0781,169.5313 Q2660.4063,167.875 2662.9063,167.875 Q2663.6094,167.875 2664.25,168.0313 Q2664.9063,168.1875 2665.4688,168.4844 L2665.4688,171.2031 Q2664.8438,170.625 2664.25,170.3594 Q2663.6563,170.0781 2663.0313,170.0781 Q2661.6875,170.0781 2661,171.1563 Q2660.3125,172.2188 2660.3125,174.3125 Q2660.3125,176.4063 2661,177.4844 Q2661.6875,178.5469 2663.0313,178.5469 Q2663.6563,178.5469 2664.25,178.2813 Q2664.8438,178 2665.4688,177.4219 L2665.4688,180.1406 Z " fill="#000000"/><text fill="#000000" font-family="sans-serif" font-size="14" lengthAdjust="spacing" textLength="215.0791" x="2676.5" y="179.3467">logic_arc_int__baselibs__future</text><line style="stroke:#181818;stroke-width:0.5;" x1="2648.5" x2="2893.5791" y1="190.5" y2="190.5"/></g><!--class comp_arc_sta__baselibs__result--><g id="elem_comp_arc_sta__baselibs__result"><rect fill="#F1F1F1" height="40" id="comp_arc_sta__baselibs__result" rx="2.5" ry="2.5" style="stroke:#181818;stroke-width:0.5;" width="253.4297" x="3905.5" y="275.5"/><ellipse cx="3920.5" cy="291.5" fill="#ADD1B2" rx="11" ry="11" style="stroke:#181818;stroke-width:1;"/><path d="M3923.4688,297.1406 Q3922.8906,297.4375 3922.25,297.5781 Q3921.6094,297.7344 3920.9063,297.7344 Q3918.4063,297.7344 3917.0781,296.0938 Q3915.7656,294.4375 3915.7656,291.3125 Q3915.7656,288.1875 3917.0781,286.5313 Q3918.4063,284.875 3920.9063,284.875 Q3921.6094,284.875 3922.25,285.0313 Q3922.9063,285.1875 3923.4688,285.4844 L3923.4688,288.2031 Q3922.8438,287.625 3922.25,287.3594 Q3921.6563,287.0781 3921.0313,287.0781 Q3919.6875,287.0781 3919,288.1563 Q3918.3125,289.2188 3918.3125,291.3125 Q3918.3125,293.4063 3919,294.4844 Q3919.6875,295.5469 3921.0313,295.5469 Q3921.6563,295.5469 3922.25,295.2813 Q3922.8438,295 3923.4688,294.4219 L3923.4688,297.1406 Z " fill="#000000"/><text fill="#000000" font-family="sans-serif" font-size="14" lengthAdjust="spacing" textLength="221.4297" x="3934.5" y="296.3467">comp_arc_sta__baselibs__result</text><line style="stroke:#181818;stroke-width:0.5;" x1="3906.5" x2="4157.9297" y1="307.5" y2="307.5"/></g><!--class logic_arc_int__baselibs__bit_manipulation--><g id="elem_logic_arc_int__baselibs__bit_manipulation"><rect fill="#F1F1F1" height="40" id="logic_arc_int__baselibs__bit_manipulation" rx="2.5" ry="2.5" style="stroke:#181818;stroke-width:0.5;" width="321.8369" x="4189" y="158.5"/><ellipse cx="4204" cy="174.5" fill="#ADD1B2" rx="11" ry="11" style="stroke:#181818;stroke-width:1;"/><path d="M4206.9688,180.1406 Q4206.3906,180.4375 4205.75,180.5781 Q4205.1094,180.7344 4204.4063,180.7344 Q4201.9063,180.7344 4200.5781,179.0938 Q4199.2656,177.4375 4199.2656,174.3125 Q4199.2656,171.1875 4200.5781,169.5313 Q4201.9063,167.875 4204.4063,167.875 Q4205.1094,167.875 4205.75,168.0313 Q4206.4063,168.1875 4206.9688,168.4844 L4206.9688,171.2031 Q4206.3438,170.625 4205.75,170.3594 Q4205.1563,170.0781 4204.5313,170.0781 Q4203.1875,170.0781 4202.5,171.1563 Q4201.8125,172.2188 4201.8125,174.3125 Q4201.8125,176.4063 4202.5,177.4844 Q4203.1875,178.5469 4204.5313,178.5469 Q4205.1563,178.5469 4205.75,178.2813 Q4206.3438,178 4206.9688,177.4219 L4206.9688,180.1406 Z " fill="#000000"/><text fill="#000000" font-family="sans-serif" font-size="14" lengthAdjust="spacing" textLength="289.8369" x="4218" y="179.3467">logic_arc_int__baselibs__bit_manipulation</text><line style="stroke:#181818;stroke-width:0.5;" x1="4190" x2="4509.8369" y1="190.5" y2="190.5"/></g><!--class logic_arc_int__baselibs__task_result--><g id="elem_logic_arc_int__baselibs__task_result"><rect fill="#F1F1F1" height="40" id="logic_arc_int__baselibs__task_result" rx="2.5" ry="2.5" style="stroke:#181818;stroke-width:0.5;" width="280.9307" x="3593.5" y="158.5"/><ellipse cx="3608.5" cy="174.5" fill="#ADD1B2" rx="11" ry="11" style="stroke:#181818;stroke-width:1;"/><path d="M3611.4688,180.1406 Q3610.8906,180.4375 3610.25,180.5781 Q3609.6094,180.7344 3608.9063,180.7344 Q3606.4063,180.7344 3605.0781,179.0938 Q3603.7656,177.4375 3603.7656,174.3125 Q3603.7656,171.1875 3605.0781,169.5313 Q3606.4063,167.875 3608.9063,167.875 Q3609.6094,167.875 3610.25,168.0313 Q3610.9063,168.1875 3611.4688,168.4844 L3611.4688,171.2031 Q3610.8438,170.625 3610.25,170.3594 Q3609.6563,170.0781 3609.0313,170.0781 Q3607.6875,170.0781 3607,171.1563 Q3606.3125,172.2188 3606.3125,174.3125 Q3606.3125,176.4063 3607,177.4844 Q3607.6875,178.5469 3609.0313,178.5469 Q3609.6563,178.5469 3610.25,178.2813 Q3610.8438,178 3611.4688,177.4219 L3611.4688,180.1406 Z " fill="#000000"/><text fill="#000000" font-family="sans-serif" font-size="14" lengthAdjust="spacing" textLength="248.9307" x="3622.5" y="179.3467">logic_arc_int__baselibs__task_result</text><line style="stroke:#181818;stroke-width:0.5;" x1="3594.5" x2="3873.4307" y1="190.5" y2="190.5"/></g><!--class logic_arc_int__baselibs__utils_base64--><g id="elem_logic_arc_int__baselibs__utils_base64"><rect fill="#F1F1F1" height="40" id="logic_arc_int__baselibs__utils_base64" rx="2.5" ry="2.5" style="stroke:#181818;stroke-width:0.5;" width="292.1689" x="7" y="158.5"/><ellipse cx="22" cy="174.5" fill="#ADD1B2" rx="11" ry="11" style="stroke:#181818;stroke-width:1;"/><path d="M24.9688,180.1406 Q24.3906,180.4375 23.75,180.5781 Q23.1094,180.7344 22.4063,180.7344 Q19.9063,180.7344 18.5781,179.0938 Q17.2656,177.4375 17.2656,174.3125 Q17.2656,171.1875 18.5781,169.5313 Q19.9063,167.875 22.4063,167.875 Q23.1094,167.875 23.75,168.0313 Q24.4063,168.1875 24.9688,168.4844 L24.9688,171.2031 Q24.3438,170.625 23.75,170.3594 Q23.1563,170.0781 22.5313,170.0781 Q21.1875,170.0781 20.5,171.1563 Q19.8125,172.2188 19.8125,174.3125 Q19.8125,176.4063 20.5,177.4844 Q21.1875,178.5469 22.5313,178.5469 Q23.1563,178.5469 23.75,178.2813 Q24.3438,178 24.9688,177.4219 L24.9688,180.1406 Z " fill="#000000"/><text fill="#000000" font-family="sans-serif" font-size="14" lengthAdjust="spacing" textLength="260.1689" x="36" y="179.3467">logic_arc_int__baselibs__utils_base64</text><line style="stroke:#181818;stroke-width:0.5;" x1="8" x2="298.1689" y1="190.5" y2="190.5"/></g><!--reverse link logic_arc_int__baselibs__synchronized_queue to comp_arc_sta__baselibs__concurrency--><g id="link_logic_arc_int__baselibs__synchronized_queue_comp_arc_sta__baselibs__concurrency"><path codeLine="15" d="M2470.8918,202.1527 C2501.8118,223.4427 2546.39,254.14 2577.24,275.38 " fill="transparent" id="logic_arc_int__baselibs__synchronized_queue-backto-comp_arc_sta__baselibs__concurrency" style="stroke:#181818;stroke-width:1;"/><polygon fill="#181818" points="2465.95,198.75,2471.0943,207.1486,2470.0682,201.5856,2475.6312,200.5595,2465.95,198.75" style="stroke:#181818;stroke-width:1;"/><text fill="#000000" font-family="sans-serif" font-size="13" lengthAdjust="spacing" textLength="76.9082" x="2533" y="241.5669">implements</text></g><!--link Feature_User to logic_arc_int__baselibs__task--><g id="link_Feature_User_logic_arc_int__baselibs__task"><path codeLine="16" d="M3014.95,48.27 C2860.56,61.36 2338.63,106.79 1909,158.5 C1903.52,159.16 1903.862,159.1029 1898.202,159.8229 " fill="transparent" id="Feature_User-to-logic_arc_int__baselibs__task" style="stroke:#181818;stroke-width:1;"/><polygon fill="#181818" points="1892.25,160.58,1901.6828,163.4123,1897.21,159.949,1900.6733,155.4763,1892.25,160.58" style="stroke:#181818;stroke-width:1;"/><text fill="#000000" font-family="sans-serif" font-size="13" lengthAdjust="spacing" textLength="23.0103" x="2321" y="124.5669">use</text></g><!--link Feature_User to logic_arc_int__baselibs__utils_scoped_op--><g id="link_Feature_User_logic_arc_int__baselibs__utils_scoped_op"><path codeLine="17" d="M3014.93,45.84 C2819.17,51.74 2023.14,76.73 1370,111.5 C1057.3,128.15 978.95,131.15 667,158.5 C661.37,158.99 661.6141,158.9628 655.8241,159.5028 " fill="transparent" id="Feature_User-to-logic_arc_int__baselibs__utils_scoped_op" style="stroke:#181818;stroke-width:1;"/><polygon fill="#181818" points="649.85,160.06,659.1826,163.207,654.8284,159.5957,658.4397,155.2415,649.85,160.06" style="stroke:#181818;stroke-width:1;"/><text fill="#000000" font-family="sans-serif" font-size="13" lengthAdjust="spacing" textLength="23.0103" x="1371" y="124.5669">use</text></g><!--reverse link logic_arc_int__baselibs__message_passing to comp_arc_sta__baselibs__message_passing--><g id="link_logic_arc_int__baselibs__message_passing_comp_arc_sta__baselibs__message_passing"><path codeLine="18" d="M6024.0998,204.7444 C6025.0198,225.9744 6026.24,253.94 6027.16,275.19 " fill="transparent" id="logic_arc_int__baselibs__message_passing-backto-comp_arc_sta__baselibs__message_passing" style="stroke:#181818;stroke-width:1;"/><polygon fill="#181818" points="6023.84,198.75,6020.2334,207.9147,6024.0565,203.7453,6028.2259,207.5684,6023.84,198.75" style="stroke:#181818;stroke-width:1;"/><text fill="#000000" font-family="sans-serif" font-size="13" lengthAdjust="spacing" textLength="76.9082" x="6027" y="241.5669">implements</text></g><!--link Feature_User to logic_arc_int__baselibs__intrusive_list--><g id="link_Feature_User_logic_arc_int__baselibs__intrusive_list"><path codeLine="19" d="M3014.71,46.43 C2816.23,55.12 2003.54,93.05 1339,158.5 C1333.3,159.06 1333.4479,159.0298 1327.5779,159.6398 " fill="transparent" id="Feature_User-to-logic_arc_int__baselibs__intrusive_list" style="stroke:#181818;stroke-width:1;"/><polygon fill="#181818" points="1321.61,160.26,1330.9752,163.3083,1326.5832,159.7432,1330.1483,155.3512,1321.61,160.26" style="stroke:#181818;stroke-width:1;"/><text fill="#000000" font-family="sans-serif" font-size="13" lengthAdjust="spacing" textLength="23.0103" x="1860" y="124.5669">use</text></g><!--reverse link logic_arc_int__baselibs__filesystem to comp_arc_sta__baselibs__filesystem--><g id="link_logic_arc_int__baselibs__filesystem_comp_arc_sta__baselibs__filesystem"><path codeLine="20" d="M5680.4346,204.7491 C5680.8046,225.9791 5681.29,253.94 5681.66,275.19 " fill="transparent" id="logic_arc_int__baselibs__filesystem-backto-comp_arc_sta__baselibs__filesystem" style="stroke:#181818;stroke-width:1;"/><polygon fill="#181818" points="5680.33,198.75,5676.4874,207.8183,5680.4171,203.7492,5684.4862,207.6789,5680.33,198.75" style="stroke:#181818;stroke-width:1;"/><text fill="#000000" font-family="sans-serif" font-size="13" lengthAdjust="spacing" textLength="76.9082" x="5683" y="241.5669">implements</text></g><!--link Feature_User to logic_arc_int__baselibs__condition_variable--><g id="link_Feature_User_logic_arc_int__baselibs__condition_variable"><path codeLine="21" d="M3105.12,62.58 C3167.79,87.68 3275.1106,130.668 3338.9906,156.268 " fill="transparent" id="Feature_User-to-logic_arc_int__baselibs__condition_variable" style="stroke:#181818;stroke-width:1;"/><polygon fill="#181818" points="3344.56,158.5,3337.6938,151.4391,3339.9188,156.64,3334.7179,158.865,3344.56,158.5" style="stroke:#181818;stroke-width:1;"/><text fill="#000000" font-family="sans-serif" font-size="13" lengthAdjust="spacing" textLength="23.0103" x="3267" y="124.5669">use</text></g><!--reverse link logic_arc_int__baselibs__executor to comp_arc_sta__baselibs__concurrency--><g id="link_logic_arc_int__baselibs__executor_comp_arc_sta__baselibs__concurrency"><path codeLine="22" d="M1629.263,197.1694 C1634.903,197.8794 1634.53,197.82 1640,198.5 C1812.39,219.86 1855.21,227.7 2028,245.5 C2172.76,260.41 2338.29,274.12 2454.82,283.23 " fill="transparent" id="logic_arc_int__baselibs__executor-backto-comp_arc_sta__baselibs__concurrency" style="stroke:#181818;stroke-width:1;"/><polygon fill="#181818" points="1623.31,196.42,1631.7399,201.5128,1628.2708,197.0445,1632.7391,193.5754,1623.31,196.42" style="stroke:#181818;stroke-width:1;"/><text fill="#000000" font-family="sans-serif" font-size="13" lengthAdjust="spacing" textLength="76.9082" x="2029" y="241.5669">implements</text></g><!--link Feature_User to logic_arc_int__baselibs__message_passing--><g id="link_Feature_User_logic_arc_int__baselibs__message_passing"><path codeLine="23" d="M3105.27,45.19 C3331.4,48.81 4361.07,67.05 5203,111.5 C5484.27,126.35 5554.41,133.89 5835,158.5 C5842.84,159.19 5844.8956,159.3568 5852.9956,160.1068 " fill="transparent" id="Feature_User-to-logic_arc_int__baselibs__message_passing" style="stroke:#181818;stroke-width:1;"/><polygon fill="#181818" points="5858.97,160.66,5850.3771,155.8473,5853.9913,160.199,5849.6395,163.8132,5858.97,160.66" style="stroke:#181818;stroke-width:1;"/><text fill="#000000" font-family="sans-serif" font-size="13" lengthAdjust="spacing" textLength="23.0103" x="5478" y="124.5669">use</text></g><!--link Feature_User to logic_arc_int__baselibs__result--><g id="link_Feature_User_logic_arc_int__baselibs__result"><path codeLine="24" d="M3105.25,50.69 C3248.07,70.23 3686.6354,130.2468 3903.9654,159.9768 " fill="transparent" id="Feature_User-to-logic_arc_int__baselibs__result" style="stroke:#181818;stroke-width:1;"/><polygon fill="#181818" points="3909.91,160.79,3901.5352,155.6071,3904.9561,160.1123,3900.4509,163.5333,3909.91,160.79" style="stroke:#181818;stroke-width:1;"/><text fill="#000000" font-family="sans-serif" font-size="13" lengthAdjust="spacing" textLength="23.0103" x="3663" y="124.5669">use</text></g><!--reverse link logic_arc_int__baselibs__json to comp_arc_sta__baselibs__json--><g id="link_logic_arc_int__baselibs__json_comp_arc_sta__baselibs__json"><path codeLine="25" d="M5385.3418,204.7479 C5384.7818,225.9779 5384.06,253.94 5383.5,275.19 " fill="transparent" id="logic_arc_int__baselibs__json-backto-comp_arc_sta__baselibs__json" style="stroke:#181818;stroke-width:1;"/><polygon fill="#181818" points="5385.5,198.75,5381.2641,207.6414,5385.3682,203.7483,5389.2613,207.8523,5385.5,198.75" style="stroke:#181818;stroke-width:1;"/><text fill="#000000" font-family="sans-serif" font-size="13" lengthAdjust="spacing" textLength="76.9082" x="5386" y="241.5669">implements</text></g><!--reverse link logic_arc_int__baselibs__dynamic_array to comp_arc_sta__baselibs__containers--><g id="link_logic_arc_int__baselibs__dynamic_array_comp_arc_sta__baselibs__containers"><path codeLine="26" d="M886.3583,201.1114 C932.9583,222.3814 1002.36,254.05 1049,275.34 " fill="transparent" id="logic_arc_int__baselibs__dynamic_array-backto-comp_arc_sta__baselibs__containers" style="stroke:#181818;stroke-width:1;"/><polygon fill="#181818" points="880.9,198.62,887.4265,205.9959,885.4486,200.6961,890.7484,198.7182,880.9,198.62" style="stroke:#181818;stroke-width:1;"/><text fill="#000000" font-family="sans-serif" font-size="13" lengthAdjust="spacing" textLength="76.9082" x="982" y="241.5669">implements</text></g><!--link Feature_User to logic_arc_int__baselibs__filesystem--><g id="link_Feature_User_logic_arc_int__baselibs__filesystem"><path codeLine="27" d="M3105.23,45.49 C3311.69,50.14 4185.31,71.32 4901,111.5 C5176.47,126.96 5245.39,131.78 5520,158.5 C5527.1,159.19 5528.4036,159.296 5535.7436,160.076 " fill="transparent" id="Feature_User-to-logic_arc_int__baselibs__filesystem" style="stroke:#181818;stroke-width:1;"/><polygon fill="#181818" points="5541.71,160.71,5533.1831,155.7813,5536.738,160.1816,5532.3377,163.7366,5541.71,160.71" style="stroke:#181818;stroke-width:1;"/><text fill="#000000" font-family="sans-serif" font-size="13" lengthAdjust="spacing" textLength="23.0103" x="5171" y="124.5669">use</text></g><!--link Feature_User to logic_arc_int__baselibs__shared_future--><g id="link_Feature_User_logic_arc_int__baselibs__shared_future"><path codeLine="28" d="M3014.93,50.6 C2874.98,69.56 2449.7457,127.1547 2224.4057,157.6747 " fill="transparent" id="Feature_User-to-logic_arc_int__baselibs__shared_future" style="stroke:#181818;stroke-width:1;"/><polygon fill="#181818" points="2218.46,158.48,2227.9154,161.2359,2223.4148,157.8089,2226.8417,153.3083,2218.46,158.48" style="stroke:#181818;stroke-width:1;"/><text fill="#000000" font-family="sans-serif" font-size="13" lengthAdjust="spacing" textLength="23.0103" x="2541" y="124.5669">use</text></g><!--link Feature_User to logic_arc_int__baselibs__promise--><g id="link_Feature_User_logic_arc_int__baselibs__promise"><path codeLine="29" d="M3060,81.55 C3060,106.45 3060,132.26 3060,152.26 " fill="transparent" id="Feature_User-to-logic_arc_int__baselibs__promise" style="stroke:#181818;stroke-width:1;"/><polygon fill="#181818" points="3060,158.26,3064,149.26,3060,153.26,3056,149.26,3060,158.26" style="stroke:#181818;stroke-width:1;"/><text fill="#000000" font-family="sans-serif" font-size="13" lengthAdjust="spacing" textLength="23.0103" x="3061" y="124.5669">use</text></g><!--link Feature_User to logic_arc_int__baselibs__json--><g id="link_Feature_User_logic_arc_int__baselibs__json"><path codeLine="30" d="M3105.13,46.24 C3284.98,53.22 3968.18,80.41 4530,111.5 C4851.08,129.27 4932.13,125.46 5252,158.5 C5257.73,159.09 5257.6216,159.0343 5263.5316,159.7343 " fill="transparent" id="Feature_User-to-logic_arc_int__baselibs__json" style="stroke:#181818;stroke-width:1;"/><polygon fill="#181818" points="5269.49,160.44,5261.023,155.4092,5264.5247,159.8519,5260.082,163.3536,5269.49,160.44" style="stroke:#181818;stroke-width:1;"/><text fill="#000000" font-family="sans-serif" font-size="13" lengthAdjust="spacing" textLength="23.0103" x="4869" y="124.5669">use</text></g><!--reverse link logic_arc_int__baselibs__condition_variable to comp_arc_sta__baselibs__concurrency--><g id="link_logic_arc_int__baselibs__condition_variable_comp_arc_sta__baselibs__concurrency"><path codeLine="31" d="M3258.2453,199.4426 C3169.0853,212.7026 3053.27,229.86 2946,245.5 C2877.5,255.49 2801.23,266.46 2738.22,275.49 " fill="transparent" id="logic_arc_int__baselibs__condition_variable-backto-comp_arc_sta__baselibs__concurrency" style="stroke:#181818;stroke-width:1;"/><polygon fill="#181818" points="3264.18,198.56,3254.6895,195.9274,3259.2344,199.2955,3255.8663,203.8404,3264.18,198.56" style="stroke:#181818;stroke-width:1;"/><text fill="#000000" font-family="sans-serif" font-size="13" lengthAdjust="spacing" textLength="76.9082" x="3058" y="241.5669">implements</text></g><!--reverse link logic_arc_int__baselibs__bit_mask_operator to comp_arc_sta__baselibs__bit_manipulation--><g id="link_logic_arc_int__baselibs__bit_mask_operator_comp_arc_sta__baselibs__bit_manipulation"><path codeLine="32" d="M4679.3386,202.0188 C4646.5686,223.3088 4599.12,254.14 4566.43,275.38 " fill="transparent" id="logic_arc_int__baselibs__bit_mask_operator-backto-comp_arc_sta__baselibs__bit_manipulation" style="stroke:#181818;stroke-width:1;"/><polygon fill="#181818" points="4684.37,198.75,4674.6437,200.2989,4680.1772,201.474,4679.0021,207.0075,4684.37,198.75" style="stroke:#181818;stroke-width:1;"/><text fill="#000000" font-family="sans-serif" font-size="13" lengthAdjust="spacing" textLength="76.9082" x="4638" y="241.5669">implements</text></g><!--reverse link logic_arc_int__baselibs__utils_scoped_op to comp_arc_sta__baselibs__utils--><g id="link_logic_arc_int__baselibs__utils_scoped_op_comp_arc_sta__baselibs__utils"><path codeLine="33" d="M454.0148,201.7861 C417.7248,223.0761 364.79,254.14 328.59,275.38 " fill="transparent" id="logic_arc_int__baselibs__utils_scoped_op-backto-comp_arc_sta__baselibs__utils" style="stroke:#181818;stroke-width:1;"/><polygon fill="#181818" points="459.19,198.75,449.4032,199.854,454.8774,201.2801,453.4513,206.7542,459.19,198.75" style="stroke:#181818;stroke-width:1;"/><text fill="#000000" font-family="sans-serif" font-size="13" lengthAdjust="spacing" textLength="76.9082" x="407" y="241.5669">implements</text></g><!--reverse link logic_arc_int__baselibs__memory_shared to comp_arc_sta__baselibs__memory_shared--><g id="link_logic_arc_int__baselibs__memory_shared_comp_arc_sta__baselibs__memory_shared"><path codeLine="34" d="M5073.3688,204.7178 C5071.1588,225.9478 5068.23,253.94 5066.02,275.19 " fill="transparent" id="logic_arc_int__baselibs__memory_shared-backto-comp_arc_sta__baselibs__memory_shared" style="stroke:#181818;stroke-width:1;"/><polygon fill="#181818" points="5073.99,198.75,5069.0797,207.2875,5073.4723,203.7231,5077.0367,208.1158,5073.99,198.75" style="stroke:#181818;stroke-width:1;"/><text fill="#000000" font-family="sans-serif" font-size="13" lengthAdjust="spacing" textLength="76.9082" x="5072" y="241.5669">implements</text></g><!--link Feature_User to logic_arc_int__baselibs__memory_shared--><g id="link_Feature_User_logic_arc_int__baselibs__memory_shared"><path codeLine="35" d="M3105.21,46.47 C3311.58,55.61 4184.77,96.21 4899,158.5 C4904.85,159.01 4904.8359,158.9933 4910.8459,159.5533 " fill="transparent" id="Feature_User-to-logic_arc_int__baselibs__memory_shared" style="stroke:#181818;stroke-width:1;"/><polygon fill="#181818" points="4916.82,160.11,4908.2299,155.2923,4911.8416,159.6461,4907.4877,163.2578,4916.82,160.11" style="stroke:#181818;stroke-width:1;"/><text fill="#000000" font-family="sans-serif" font-size="13" lengthAdjust="spacing" textLength="23.0103" x="4498" y="124.5669">use</text></g><!--link Feature_User to logic_arc_int__baselibs__future--><g id="link_Feature_User_logic_arc_int__baselibs__future"><path codeLine="36" d="M3014.84,65.28 C2959.44,90.78 2871.7208,131.1523 2818.0108,155.8623 " fill="transparent" id="Feature_User-to-logic_arc_int__baselibs__future" style="stroke:#181818;stroke-width:1;"/><polygon fill="#181818" points="2812.56,158.37,2822.408,158.2423,2817.1023,156.2802,2819.0644,150.9745,2812.56,158.37" style="stroke:#181818;stroke-width:1;"/><text fill="#000000" font-family="sans-serif" font-size="13" lengthAdjust="spacing" textLength="23.0103" x="2908" y="124.5669">use</text></g><!--reverse link logic_arc_int__baselibs__shared_future to comp_arc_sta__baselibs__concurrency--><g id="link_logic_arc_int__baselibs__shared_future_comp_arc_sta__baselibs__concurrency"><path codeLine="37" d="M2171.182,199.8294 C2268.732,221.1194 2419.89,254.11 2517.51,275.41 " fill="transparent" id="logic_arc_int__baselibs__shared_future-backto-comp_arc_sta__baselibs__concurrency" style="stroke:#181818;stroke-width:1;"/><polygon fill="#181818" points="2165.32,198.55,2173.2601,204.3771,2170.205,199.6161,2174.9659,196.561,2165.32,198.55" style="stroke:#181818;stroke-width:1;"/><text fill="#000000" font-family="sans-serif" font-size="13" lengthAdjust="spacing" textLength="76.9082" x="2375" y="241.5669">implements</text></g><!--reverse link logic_arc_int__baselibs__result to comp_arc_sta__baselibs__result--><g id="link_logic_arc_int__baselibs__result_comp_arc_sta__baselibs__result"><path codeLine="38" d="M4032,204.75 C4032,225.98 4032,253.94 4032,275.19 " fill="transparent" id="logic_arc_int__baselibs__result-backto-comp_arc_sta__baselibs__result" style="stroke:#181818;stroke-width:1;"/><polygon fill="#181818" points="4032,198.75,4028,207.75,4032,203.75,4036,207.75,4032,198.75" style="stroke:#181818;stroke-width:1;"/><text fill="#000000" font-family="sans-serif" font-size="13" lengthAdjust="spacing" textLength="76.9082" x="4033" y="241.5669">implements</text></g><!--reverse link logic_arc_int__baselibs__bit_manipulation to comp_arc_sta__baselibs__bit_manipulation--><g id="link_logic_arc_int__baselibs__bit_manipulation_comp_arc_sta__baselibs__bit_manipulation"><path codeLine="39" d="M4386.4109,201.893 C4421.0309,223.183 4471.37,254.14 4505.91,275.38 " fill="transparent" id="logic_arc_int__baselibs__bit_manipulation-backto-comp_arc_sta__baselibs__bit_manipulation" style="stroke:#181818;stroke-width:1;"/><polygon fill="#181818" points="4381.3,198.75,4386.871,206.8718,4385.5591,201.3692,4391.0617,200.0573,4381.3,198.75" style="stroke:#181818;stroke-width:1;"/><text fill="#000000" font-family="sans-serif" font-size="13" lengthAdjust="spacing" textLength="76.9082" x="4456" y="241.5669">implements</text></g><!--reverse link logic_arc_int__baselibs__promise to comp_arc_sta__baselibs__concurrency--><g id="link_logic_arc_int__baselibs__promise_comp_arc_sta__baselibs__concurrency"><path codeLine="40" d="M2978.7929,200.0203 C2894.5629,221.3103 2764.82,254.11 2680.54,275.41 " fill="transparent" id="logic_arc_int__baselibs__promise-backto-comp_arc_sta__baselibs__concurrency" style="stroke:#181818;stroke-width:1;"/><polygon fill="#181818" points="2984.61,198.55,2974.9042,196.8774,2979.7625,199.7753,2976.8646,204.6335,2984.61,198.55" style="stroke:#181818;stroke-width:1;"/><text fill="#000000" font-family="sans-serif" font-size="13" lengthAdjust="spacing" textLength="76.9082" x="2861" y="241.5669">implements</text></g><!--link Feature_User to logic_arc_int__baselibs__synchronized_queue--><g id="link_Feature_User_logic_arc_int__baselibs__synchronized_queue"><path codeLine="41" d="M3014.77,54.17 C2912.45,76.05 2667.5474,128.4154 2532.8574,157.2154 " fill="transparent" id="Feature_User-to-logic_arc_int__baselibs__synchronized_queue" style="stroke:#181818;stroke-width:1;"/><polygon fill="#181818" points="2526.99,158.47,2536.6274,160.4997,2531.8795,157.4245,2534.9547,152.6765,2526.99,158.47" style="stroke:#181818;stroke-width:1;"/><text fill="#000000" font-family="sans-serif" font-size="13" lengthAdjust="spacing" textLength="23.0103" x="2732" y="124.5669">use</text></g><!--link Feature_User to logic_arc_int__baselibs__task_result--><g id="link_Feature_User_logic_arc_int__baselibs__task_result"><path codeLine="42" d="M3105.01,53.38 C3213.19,74.73 3483.9035,128.1483 3631.6635,157.3083 " fill="transparent" id="Feature_User-to-logic_arc_int__baselibs__task_result" style="stroke:#181818;stroke-width:1;"/><polygon fill="#181818" points="3637.55,158.47,3629.4947,152.8032,3632.6446,157.5019,3627.9458,160.6518,3637.55,158.47" style="stroke:#181818;stroke-width:1;"/><text fill="#000000" font-family="sans-serif" font-size="13" lengthAdjust="spacing" textLength="23.0103" x="3479" y="124.5669">use</text></g><!--link Feature_User to logic_arc_int__baselibs__bit_mask_operator--><g id="link_Feature_User_logic_arc_int__baselibs__bit_mask_operator"><path codeLine="43" d="M3105.08,47.6 C3284.76,60.04 3967.24,108.09 4528,158.5 C4533.98,159.04 4534.0956,159.0463 4540.2456,159.6163 " fill="transparent" id="Feature_User-to-logic_arc_int__baselibs__bit_mask_operator" style="stroke:#181818;stroke-width:1;"/><polygon fill="#181818" points="4546.22,160.17,4537.6276,155.3565,4541.2413,159.7086,4536.8893,163.3223,4546.22,160.17" style="stroke:#181818;stroke-width:1;"/><text fill="#000000" font-family="sans-serif" font-size="13" lengthAdjust="spacing" textLength="23.0103" x="4167" y="124.5669">use</text></g><!--link Feature_User to logic_arc_int__baselibs__utils_base64--><g id="link_Feature_User_logic_arc_int__baselibs__utils_base64"><path codeLine="44" d="M3014.67,45.45 C2795.81,50.17 1826.46,72.35 1033,111.5 C714.48,127.21 634.6,129.7 317,158.5 C311.15,159.03 311.1514,159.0148 305.1314,159.6048 " fill="transparent" id="Feature_User-to-logic_arc_int__baselibs__utils_base64" style="stroke:#181818;stroke-width:1;"/><polygon fill="#181818" points="299.16,160.19,308.5072,163.2931,304.1362,159.7023,307.7269,155.3312,299.16,160.19" style="stroke:#181818;stroke-width:1;"/><text fill="#000000" font-family="sans-serif" font-size="13" lengthAdjust="spacing" textLength="23.0103" x="1034" y="124.5669">use</text></g><!--link Feature_User to logic_arc_int__baselibs__dynamic_array--><g id="link_Feature_User_logic_arc_int__baselibs__dynamic_array"><path codeLine="45" d="M3014.85,45.86 C2794.77,52.74 1812.49,86.23 1011,158.5 C1005.17,159.03 1005.1922,159.0027 999.1922,159.5827 " fill="transparent" id="Feature_User-to-logic_arc_int__baselibs__dynamic_array" style="stroke:#181818;stroke-width:1;"/><polygon fill="#181818" points="993.22,160.16,1002.5631,163.2755,998.1968,159.6789,1001.7934,155.3126,993.22,160.16" style="stroke:#181818;stroke-width:1;"/><text fill="#000000" font-family="sans-serif" font-size="13" lengthAdjust="spacing" textLength="23.0103" x="1574" y="124.5669">use</text></g><!--reverse link logic_arc_int__baselibs__future to comp_arc_sta__baselibs__concurrency--><g id="link_logic_arc_int__baselibs__future_comp_arc_sta__baselibs__concurrency"><path codeLine="46" d="M2738.2875,202.1662 C2707.5475,223.4562 2663.26,254.14 2632.6,275.38 " fill="transparent" id="logic_arc_int__baselibs__future-backto-comp_arc_sta__baselibs__concurrency" style="stroke:#181818;stroke-width:1;"/><polygon fill="#181818" points="2743.22,198.75,2733.5438,200.5859,2739.1096,201.5968,2738.0987,207.1626,2743.22,198.75" style="stroke:#181818;stroke-width:1;"/><text fill="#000000" font-family="sans-serif" font-size="13" lengthAdjust="spacing" textLength="76.9082" x="2699" y="241.5669">implements</text></g><!--reverse link logic_arc_int__baselibs__utils_base64 to comp_arc_sta__baselibs__utils--><g id="link_logic_arc_int__baselibs__utils_base64_comp_arc_sta__baselibs__utils"><path codeLine="47" d="M181.6057,202.51 C208.0057,223.74 245.56,253.94 271.99,275.19 " fill="transparent" id="logic_arc_int__baselibs__utils_base64-backto-comp_arc_sta__baselibs__utils" style="stroke:#181818;stroke-width:1;"/><polygon fill="#181818" points="176.93,198.75,181.4368,207.5072,180.8264,201.8834,186.4502,201.2729,176.93,198.75" style="stroke:#181818;stroke-width:1;"/><text fill="#000000" font-family="sans-serif" font-size="13" lengthAdjust="spacing" textLength="76.9082" x="235" y="241.5669">implements</text></g><!--reverse link logic_arc_int__baselibs__task to comp_arc_sta__baselibs__concurrency--><g id="link_logic_arc_int__baselibs__task_comp_arc_sta__baselibs__concurrency"><path codeLine="48" d="M1898.0833,198.2024 C1988.6333,211.8224 2111.22,229.96 2224,245.5 C2299.98,255.97 2384.58,266.92 2454.72,275.81 " fill="transparent" id="logic_arc_int__baselibs__task-backto-comp_arc_sta__baselibs__concurrency" style="stroke:#181818;stroke-width:1;"/><polygon fill="#181818" points="1892.15,197.31,1900.4549,202.6042,1897.0944,198.0537,1901.6448,194.6932,1892.15,197.31" style="stroke:#181818;stroke-width:1;"/><text fill="#000000" font-family="sans-serif" font-size="13" lengthAdjust="spacing" textLength="76.9082" x="2225" y="241.5669">implements</text></g><!--link Feature_User to logic_arc_int__baselibs__executor--><g id="link_Feature_User_logic_arc_int__baselibs__executor"><path codeLine="49" d="M3014.85,47.2 C2838.59,57.95 2180.01,99.91 1640,158.5 C1634.52,159.09 1634.8907,159.0343 1629.2407,159.6843 " fill="transparent" id="Feature_User-to-logic_arc_int__baselibs__executor" style="stroke:#181818;stroke-width:1;"/><polygon fill="#181818" points="1623.28,160.37,1632.6782,163.3152,1628.2472,159.7985,1631.7639,155.3676,1623.28,160.37" style="stroke:#181818;stroke-width:1;"/><text fill="#000000" font-family="sans-serif" font-size="13" lengthAdjust="spacing" textLength="23.0103" x="2109" y="124.5669">use</text></g><!--reverse link logic_arc_int__baselibs__task_result to comp_arc_sta__baselibs__concurrency--><g id="link_logic_arc_int__baselibs__task_result_comp_arc_sta__baselibs__concurrency"><path codeLine="50" d="M3587.1998,197.2097 C3581.4098,197.8797 3581.63,197.86 3576,198.5 C3383.68,220.5 3335.62,226.28 3143,245.5 C3012.11,258.56 2863.16,272.02 2755.23,281.52 " fill="transparent" id="logic_arc_int__baselibs__task_result-backto-comp_arc_sta__baselibs__concurrency" style="stroke:#181818;stroke-width:1;"/><polygon fill="#181818" points="3593.16,196.52,3583.7599,193.5811,3588.1931,197.0947,3584.6795,201.528,3593.16,196.52" style="stroke:#181818;stroke-width:1;"/><text fill="#000000" font-family="sans-serif" font-size="13" lengthAdjust="spacing" textLength="76.9082" x="3310" y="241.5669">implements</text></g><!--reverse link logic_arc_int__baselibs__intrusive_list to comp_arc_sta__baselibs__containers--><g id="link_logic_arc_int__baselibs__intrusive_list_comp_arc_sta__baselibs__containers"><path codeLine="51" d="M1157.4005,203.5948 C1141.8905,224.8248 1120.63,253.94 1105.11,275.19 " fill="transparent" id="logic_arc_int__baselibs__intrusive_list-backto-comp_arc_sta__baselibs__containers" style="stroke:#181818;stroke-width:1;"/><polygon fill="#181818" points="1160.94,198.75,1152.4009,203.6576,1157.9904,202.7873,1158.8607,208.3769,1160.94,198.75" style="stroke:#181818;stroke-width:1;"/><text fill="#000000" font-family="sans-serif" font-size="13" lengthAdjust="spacing" textLength="76.9082" x="1140" y="241.5669">implements</text></g><!--link Feature_User to logic_arc_int__baselibs__bit_manipulation--><g id="link_Feature_User_logic_arc_int__baselibs__bit_manipulation"><path codeLine="52" d="M3105.25,49.09 C3256.31,64.41 3757.1,115.3 4171,158.5 C4176.91,159.12 4176.952,159.1316 4183.032,159.7616 " fill="transparent" id="Feature_User-to-logic_arc_int__baselibs__bit_manipulation" style="stroke:#181818;stroke-width:1;"/><polygon fill="#181818" points="4189,160.38,4180.4602,155.4737,4184.0266,159.8647,4179.6357,163.4311,4189,160.38" style="stroke:#181818;stroke-width:1;"/><text fill="#000000" font-family="sans-serif" font-size="13" lengthAdjust="spacing" textLength="23.0103" x="3867" y="124.5669">use</text></g><!--SRC=[jLPDRzim3BthLmYzfnkAOOUYw6N0JZjkPq6MsOIBFboHwkeD- - -JutI9axIoFUyecwJ8nyT7QMl33-Nm6VrQS6Wa1ra5vk1aZH4CO_1YWpL8OeWGk6sWFuDhk9MQEMAL64ZS4RSMxiMr9hIL_2M-e8TFmOOe8zIxqzSDcgq78dbp_Lxy5dVlzZv26yvsLvz1SueWln74Awb9xZ-exeCKmWJNA1sD8jPALPh0OaLAcU1DYX6yQUKghUwb3MiqEqlqV6n9hJUR63p-X5ez9aXmAz4r5Xnu9Ya65wxgjqAnfksjJ0IJl1AZ9KKcD3c1qEm3l5QOos3fDQX64-KM5OexiPvTMJx6HFW4oY9n8SK7j41jfeShP7Smd9rOxdED7IVLauweAmk5vCOJ0vx1f4p2sRcTWJ-L6H4esHBQtoduGYMToR2ADz1XdUSoKY5atNhjTh-YRcSZT4o0gU3GHcSLKG-fSvZktiJWa6Ouzc0knB5Bz1tJfmfPEUsnILPtxeLhUdFQPdc1gCyu_TejEsKgX3vJhp617RWGstqBYn9sPFiFipY8ChNf0vOji7E6t1q3MQy5XRWlWl7VA7Gm7wqd8o7vEuyp6tnfZK_jShU_Xw8xmVd2ZCrx2NJdZn-cUvz8ya9KdSBHyNhnKkEo7EhVNpC9T5Zt2o4tODEYo_VqDJQpulEHtbN-1m00]--></g></svg>