<svg xmlns="http://www.w3.org/2000/svg" xmlns:xlink="http://www.w3.org/1999/xlink" contentStyleType="text/css" data-diagram-type="CLASS" height="943px" preserveAspectRatio="none" style="width:437px;height:943px;background:#FFFFFF;" version="1.1" viewBox="0 0 437 943" width="437px" zoomAndPan="magnify"><defs/><g><!--cluster S-Core Repo--><g id="cluster_S-Core Repo"><path d="M24.3347,130 L122.3093,130 A3.75,3.75 0 0 1 124.8093,132.5 L131.8093,152.2969 L326.3347,152.2969 A2.5,2.5 0 0 1 328.8347,154.7969 L328.8347,323.5 A2.5,2.5 0 0 1 326.3347,326 L24.3347,326 A2.5,2.5 0 0 1 21.8347,323.5 L21.8347,132.5 A2.5,2.5 0 0 1 24.3347,130 " fill="transparent" style="stroke:#000000;stroke-width:1.5;"/><line style="stroke:#000000;stroke-width:1.5;" x1="21.8347" x2="131.8093" y1="152.2969" y2="152.2969"/><text fill="#000000" font-family="sans-serif" font-size="14" font-weight="bold" lengthAdjust="spacing" textLength="96.9746" x="25.8347" y="144.9951">S-Core Repo</text></g><!--cluster Feature Repo--><g id="cluster_Feature Repo"><path d="M24.3347,375 L131.6882,375 A3.75,3.75 0 0 1 134.1882,377.5 L141.1882,397.2969 L428.3347,397.2969 A2.5,2.5 0 0 1 430.8347,399.7969 L430.8347,933.5 A2.5,2.5 0 0 1 428.3347,936 L24.3347,936 A2.5,2.5 0 0 1 21.8347,933.5 L21.8347,377.5 A2.5,2.5 0 0 1 24.3347,375 " fill="transparent" style="stroke:#000000;stroke-width:1.5;"/><line style="stroke:#000000;stroke-width:1.5;" x1="21.8347" x2="141.1882" y1="397.2969" y2="397.2969"/><text fill="#000000" font-family="sans-serif" font-size="14" font-weight="bold" lengthAdjust="spacing" textLength="106.3535" x="25.8347" y="389.9951">Feature Repo</text></g><!--class Platform--><g id="elem_Platform"><rect codeLine="3" fill="#F1F1F1" height="129.4844" id="Platform" rx="2.5" ry="2.5" style="stroke:#181818;stroke-width:0.5;" width="240.3682" x="64.8347" y="173"/><ellipse cx="151.1247" cy="189" fill="#ADD1B2" rx="11" ry="11" style="stroke:#181818;stroke-width:1;"/><path d="M154.0935,194.6406 Q153.5154,194.9375 152.8747,195.0781 Q152.2341,195.2344 151.531,195.2344 Q149.031,195.2344 147.7029,193.5938 Q146.3904,191.9375 146.3904,188.8125 Q146.3904,185.6875 147.7029,184.0313 Q149.031,182.375 151.531,182.375 Q152.2341,182.375 152.8747,182.5313 Q153.531,182.6875 154.0935,182.9844 L154.0935,185.7031 Q153.4685,185.125 152.8747,184.8594 Q152.281,184.5781 151.656,184.5781 Q150.3122,184.5781 149.6247,185.6563 Q148.9372,186.7188 148.9372,188.8125 Q148.9372,190.9063 149.6247,191.9844 Q150.3122,193.0469 151.656,193.0469 Q152.281,193.0469 152.8747,192.7813 Q153.4685,192.5 154.0935,191.9219 L154.0935,194.6406 Z " fill="#000000"/><text fill="#000000" font-family="sans-serif" font-size="14" lengthAdjust="spacing" textLength="59.2881" x="171.6247" y="193.8467">Platform</text><line style="stroke:#181818;stroke-width:0.5;" x1="65.8347" x2="304.2029" y1="205" y2="205"/><ellipse cx="75.8347" cy="218.6484" fill="transparent" rx="3" ry="3" style="stroke:#038048;stroke-width:1;"/><text fill="#000000" font-family="sans-serif" font-size="14" lengthAdjust="spacing" textLength="83.7129" x="84.8347" y="221.9951">SEooC: bool</text><line style="stroke:#181818;stroke-width:1;" x1="65.8347" x2="304.2029" y1="229.2969" y2="229.2969"/><text fill="#000000" font-family="sans-serif" font-size="14" lengthAdjust="spacing" textLength="73.6777" x="70.8347" y="246.292">Objectives</text><text fill="#000000" font-family="sans-serif" font-size="14" lengthAdjust="spacing" textLength="186.9766" x="70.8347" y="262.5889">Stakeholder Requirements</text><text fill="#000000" font-family="sans-serif" font-size="14" lengthAdjust="spacing" textLength="228.3682" x="70.8347" y="278.8857">SW-Platform Assumptions of use</text><text fill="#000000" font-family="sans-serif" font-size="14" lengthAdjust="spacing" textLength="182.5742" x="70.8347" y="295.1826">Platform Integration Tests</text></g><!--class Feature--><g id="elem_Feature"><rect codeLine="14" fill="#F1F1F1" height="145.7813" id="Feature" rx="2.5" ry="2.5" style="stroke:#181818;stroke-width:0.5;" width="239.5479" x="65.8347" y="418"/><ellipse cx="154.3703" cy="434" fill="#ADD1B2" rx="11" ry="11" style="stroke:#181818;stroke-width:1;"/><path d="M157.3391,439.6406 Q156.761,439.9375 156.1203,440.0781 Q155.4797,440.2344 154.7766,440.2344 Q152.2766,440.2344 150.9485,438.5938 Q149.636,436.9375 149.636,433.8125 Q149.636,430.6875 150.9485,429.0313 Q152.2766,427.375 154.7766,427.375 Q155.4797,427.375 156.1203,427.5313 Q156.7766,427.6875 157.3391,427.9844 L157.3391,430.7031 Q156.7141,430.125 156.1203,429.8594 Q155.5266,429.5781 154.9016,429.5781 Q153.5578,429.5781 152.8703,430.6563 Q152.1828,431.7188 152.1828,433.8125 Q152.1828,435.9063 152.8703,436.9844 Q153.5578,438.0469 154.9016,438.0469 Q155.5266,438.0469 156.1203,437.7813 Q156.7141,437.5 157.3391,436.9219 L157.3391,439.6406 Z " fill="#000000"/><text fill="#000000" font-family="sans-serif" font-size="14" lengthAdjust="spacing" textLength="53.9766" x="174.8703" y="438.8467">Feature</text><line style="stroke:#181818;stroke-width:0.5;" x1="66.8347" x2="304.3826" y1="450" y2="450"/><ellipse cx="76.8347" cy="463.6484" fill="transparent" rx="3" ry="3" style="stroke:#038048;stroke-width:1;"/><text fill="#000000" font-family="sans-serif" font-size="14" lengthAdjust="spacing" textLength="83.7129" x="85.8347" y="466.9951">SEooC: bool</text><line style="stroke:#181818;stroke-width:1;" x1="66.8347" x2="304.3826" y1="474.2969" y2="474.2969"/><text fill="#000000" font-family="sans-serif" font-size="14" lengthAdjust="spacing" textLength="156.6934" x="71.8347" y="491.292">Feature Requirements</text><text fill="#000000" font-family="sans-serif" font-size="14" lengthAdjust="spacing" textLength="144.751" x="71.8347" y="507.5889">Feature Architecture</text><text fill="#000000" font-family="sans-serif" font-size="14" lengthAdjust="spacing" textLength="177.2627" x="71.8347" y="523.8857">Feature Integration Tests</text><text fill="#000000" font-family="sans-serif" font-size="14" lengthAdjust="spacing" textLength="227.5479" x="71.8347" y="540.1826">Feature Safety/Security Analysis</text><text fill="#000000" font-family="sans-serif" font-size="14" lengthAdjust="spacing" textLength="195.2754" x="71.8347" y="556.4795">Feature Assumptions of use</text></g><!--class Component--><g id="elem_Component"><rect codeLine="24" fill="#F1F1F1" height="129.4844" id="Component" rx="2.5" ry="2.5" style="stroke:#181818;stroke-width:0.5;" width="266.8506" x="54.3347" y="625"/><ellipse cx="142.8703" cy="641" fill="#ADD1B2" rx="11" ry="11" style="stroke:#181818;stroke-width:1;"/><path d="M145.8391,646.6406 Q145.261,646.9375 144.6203,647.0781 Q143.9797,647.2344 143.2766,647.2344 Q140.7766,647.2344 139.4485,645.5938 Q138.136,643.9375 138.136,640.8125 Q138.136,637.6875 139.4485,636.0313 Q140.7766,634.375 143.2766,634.375 Q143.9797,634.375 144.6203,634.5313 Q145.2766,634.6875 145.8391,634.9844 L145.8391,637.7031 Q145.2141,637.125 144.6203,636.8594 Q144.0266,636.5781 143.4016,636.5781 Q142.0578,636.5781 141.3703,637.6563 Q140.6828,638.7188 140.6828,640.8125 Q140.6828,642.9063 141.3703,643.9844 Q142.0578,645.0469 143.4016,645.0469 Q144.0266,645.0469 144.6203,644.7813 Q145.2141,644.5 145.8391,643.9219 L145.8391,646.6406 Z " fill="#000000"/><text fill="#000000" font-family="sans-serif" font-size="14" lengthAdjust="spacing" textLength="81.2793" x="163.3703" y="645.8467">Component</text><line style="stroke:#181818;stroke-width:0.5;" x1="55.3347" x2="320.1853" y1="657" y2="657"/><line style="stroke:#181818;stroke-width:1;" x1="55.3347" x2="320.1853" y1="665" y2="665"/><text fill="#000000" font-family="sans-serif" font-size="14" lengthAdjust="spacing" textLength="183.9961" x="60.3347" y="681.9951">Component Requirements</text><text fill="#000000" font-family="sans-serif" font-size="14" lengthAdjust="spacing" textLength="172.0537" x="60.3347" y="698.292">Component Architecture</text><text fill="#000000" font-family="sans-serif" font-size="14" lengthAdjust="spacing" textLength="204.5654" x="60.3347" y="714.5889">Component Integration Tests</text><text fill="#000000" font-family="sans-serif" font-size="14" lengthAdjust="spacing" textLength="254.8506" x="60.3347" y="730.8857">Component Safety/Security Analysis</text><text fill="#000000" font-family="sans-serif" font-size="14" lengthAdjust="spacing" textLength="215.2842" x="60.3347" y="747.1826">Component Assumption of use</text></g><!--class Unit--><g id="elem_Unit"><rect codeLine="33" fill="#F1F1F1" height="96.8906" id="Unit" rx="2.5" ry="2.5" style="stroke:#181818;stroke-width:0.5;" width="123.5283" x="125.8347" y="815"/><ellipse cx="169.1979" cy="831" fill="#ADD1B2" rx="11" ry="11" style="stroke:#181818;stroke-width:1;"/><path d="M172.1666,836.6406 Q171.5885,836.9375 170.9479,837.0781 Q170.3073,837.2344 169.6041,837.2344 Q167.1041,837.2344 165.776,835.5938 Q164.4635,833.9375 164.4635,830.8125 Q164.4635,827.6875 165.776,826.0313 Q167.1041,824.375 169.6041,824.375 Q170.3073,824.375 170.9479,824.5313 Q171.6041,824.6875 172.1666,824.9844 L172.1666,827.7031 Q171.5416,827.125 170.9479,826.8594 Q170.3541,826.5781 169.7291,826.5781 Q168.3854,826.5781 167.6979,827.6563 Q167.0104,828.7188 167.0104,830.8125 Q167.0104,832.9063 167.6979,833.9844 Q168.3854,835.0469 169.7291,835.0469 Q170.3541,835.0469 170.9479,834.7813 Q171.5416,834.5 172.1666,833.9219 L172.1666,836.6406 Z " fill="#000000"/><text fill="#000000" font-family="sans-serif" font-size="14" lengthAdjust="spacing" textLength="28.499" x="189.5008" y="835.8467">Unit</text><line style="stroke:#181818;stroke-width:0.5;" x1="126.8347" x2="248.363" y1="847" y2="847"/><line style="stroke:#181818;stroke-width:1;" x1="126.8347" x2="248.363" y1="855" y2="855"/><text fill="#000000" font-family="sans-serif" font-size="14" lengthAdjust="spacing" textLength="111.5283" x="131.8347" y="871.9951">Detailed Design</text><text fill="#000000" font-family="sans-serif" font-size="14" lengthAdjust="spacing" textLength="88.6826" x="131.8347" y="888.292">Source Code</text><text fill="#000000" font-family="sans-serif" font-size="14" lengthAdjust="spacing" textLength="62.8975" x="131.8347" y="904.5889">Unit Test</text></g><path d="M134.3347,6 L268.9363,6 A3.75,3.75 0 0 1 271.4363,8.5 L278.4363,28.2969 L282.9363,28.2969 A2.5,2.5 0 0 1 285.4363,30.7969 L285.4363,56.0938 A2.5,2.5 0 0 1 282.9363,58.5938 L134.3347,58.5938 A2.5,2.5 0 0 1 131.8347,56.0938 L131.8347,8.5 A2.5,2.5 0 0 1 134.3347,6 " fill="#F1F1F1" style="stroke:#181818;stroke-width:0.5;"/><line style="stroke:#181818;stroke-width:0.5;" x1="131.8347" x2="278.4363" y1="28.2969" y2="28.2969"/><text fill="#000000" font-family="sans-serif" font-size="14" font-weight="bold" lengthAdjust="spacing" textLength="133.6016" x="135.8347" y="20.9951">Integration Repo</text><!--link Integration Repo to S-Core Repo--><g id="link_Integration Repo_S-Core Repo"><path codeLine="45" d="M131.7147,55.2 C101.3347,67.6 68.9647,86.35 48.8347,114 C46.8397,116.7406 45.0183,119.6077 43.3566,122.5753 C42.5257,124.0591 41.7348,125.568 40.9821,127.0988 C40.6058,127.8642 40.239,128.6351 39.8815,129.411 C39.7921,129.605 42.1801,124.3344 42.0919,124.529 " fill="transparent" id="Integration Repo-to-S-Core Repo" style="stroke:#181818;stroke-width:1;stroke-dasharray:7.0,7.0;"/><polygon fill="#181818" points="39.6152,129.9939,46.9736,123.4477,41.6791,125.4398,39.687,120.1453,39.6152,129.9939" style="stroke:#181818;stroke-width:1;"/><text fill="#000000" font-family="sans-serif" font-size="13" lengthAdjust="spacing" textLength="82.3418" x="72.8347" y="102.0669">derives from</text></g><!--link Integration Repo to Feature Repo--><g id="link_Integration Repo_Feature Repo"><path codeLine="46" d="M264.5447,59.14 C286.2447,72.24 308.7647,90.45 320.8347,114 C367.0747,204.17 390.3047,268.23 320.8347,342 C299.2347,364.93 60.1247,336.74 37.8347,359 C17.5247,379.29 15.2697,411.3425 18.2172,438.6625 C18.9541,445.4925 20.0161,452.0267 21.2025,458.0074 C21.3508,458.755 21.501,459.4939 21.6528,460.2237 C21.6907,460.4062 20.4937,454.7165 20.5319,454.8978 " fill="transparent" id="Integration Repo-to-Feature Repo" style="stroke:#181818;stroke-width:1;stroke-dasharray:7.0,7.0;"/><polygon fill="#181818" points="21.7669,460.7694,23.8287,451.1387,20.7377,455.8764,16,452.7855,21.7669,460.7694" style="stroke:#181818;stroke-width:1;"/><text fill="#000000" font-family="sans-serif" font-size="13" lengthAdjust="spacing" textLength="29.7832" x="364.8347" y="242.0669">uses</text></g><!--link S-Core Repo to Feature Repo--><!--reverse link Platform to Feature--><g id="link_Platform_Feature"><path codeLine="50" d="M185.1324,314.2899 C185.2724,349.5099 185.4047,381.37 185.5447,417.83 " fill="transparent" id="Platform-backto-Feature" style="stroke:#181818;stroke-width:1;"/><polygon fill="#181818" points="185.0847,302.29,181.1086,308.3059,185.1324,314.2899,189.1085,308.2741,185.0847,302.29" style="stroke:#181818;stroke-width:1;"/><text fill="#000000" font-family="sans-serif" font-size="13" lengthAdjust="spacing" textLength="8.271" x="176.6455" y="322.6951">1</text><text fill="#000000" font-family="sans-serif" font-size="13" lengthAdjust="spacing" textLength="8.2393" x="177.1564" y="406.9732">n</text></g><!--reverse link Feature to Component--><g id="link_Feature_Component"><path codeLine="51" d="M186.6911,576.0493 C186.9011,595.9893 186.9847,605.48 187.1847,624.89 " fill="transparent" id="Feature-backto-Component" style="stroke:#181818;stroke-width:1;"/><polygon fill="transparent" points="186.5647,564.05,182.6281,570.0918,186.6911,576.0493,190.6277,570.0075,186.5647,564.05" style="stroke:#181818;stroke-width:1;"/><text fill="#000000" font-family="sans-serif" font-size="13" lengthAdjust="spacing" textLength="8.271" x="178.2875" y="583.8111">1</text><text fill="#000000" font-family="sans-serif" font-size="13" lengthAdjust="spacing" textLength="8.2393" x="178.6974" y="614.0506">n</text></g><!--reverse link Component to Component--><g id="link_Component_Component"><path codeLine="52" d="M333.5823,674.7938 C354.2123,677.2238 356.3347,681.19 356.3347,689.5 C356.3347,697.81 342.2947,703.18 321.6647,705.61 " fill="transparent" id="Component-backto-Component" style="stroke:#181818;stroke-width:1;"/><polygon fill="transparent" points="321.6647,673.39,327.1556,678.0644,333.5823,674.7938,328.0914,670.1193,321.6647,673.39" style="stroke:#181818;stroke-width:1;"/><text fill="#000000" font-family="sans-serif" font-size="13" lengthAdjust="spacing" textLength="55.0278" x="362.3347" y="694.0669">contains</text><text fill="#000000" font-family="sans-serif" font-size="13" lengthAdjust="spacing" textLength="8.271" x="329.2138" y="669.1561">1</text><text fill="#000000" font-family="sans-serif" font-size="13" lengthAdjust="spacing" textLength="8.2393" x="329.2129" y="703.1381">n</text></g><!--reverse link Component to Unit--><g id="link_Component_Unit"><path codeLine="53" d="M187.8347,766.06 C187.8347,786.15 187.8347,796.01 187.8347,814.8 " fill="transparent" id="Component-backto-Unit" style="stroke:#181818;stroke-width:1;"/><polygon fill="transparent" points="187.8347,754.06,183.8347,760.06,187.8347,766.06,191.8347,760.06,187.8347,754.06" style="stroke:#181818;stroke-width:1;"/><text fill="#000000" font-family="sans-serif" font-size="13" lengthAdjust="spacing" textLength="8.271" x="179.3965" y="774.4385">1</text><text fill="#000000" font-family="sans-serif" font-size="13" lengthAdjust="spacing" textLength="8.2393" x="179.3222" y="803.9808">n</text></g><!--SRC=[XP9DJyCm38Rl-HLMBqYW3d7j0MaQ875YMa4S48SiTTUmDYv9YZIX_NVIh1_h1t1guzTs7ZjloSMUxn22E5oHHjXWIG5yCm2HSsDWdNERaYvy2E0AudkYLGHRejn7mj1_dhOVAApyGkEFiULxp2XFKBkMdvNKMA2oZVWQTcsNnbH5QIKf0vH2PT2dTFgZihZJl4w0PpI-mv4T6IjRy0VajfeXR-F_WFVb8yfMM6gHIUk6SuU1C8VMgp5FqHwkOnILblO0IyNpWv6ZtdFJk-7Q6LPKbAGSKZD5mzo79zIzDE7kfNdoNl-J_Uo6ZduM_aN94VSTMYvpJDoFaJjrCWDLMg3hcfmeVLKDDNdeS-hsiPr-0UicOuEvLqqcIyDcyXUBsv7H8t0EhLqBgQRYrvgXnw9wLdV1e5FubiaaGVMUXAFy6d68rhaxk0dWCdG5AcWzmThQMgD6wtRE-ktFwevDa79RLcQIcfnowmMp7m00]--></g></svg>