<svg xmlns="http://www.w3.org/2000/svg" xmlns:xlink="http://www.w3.org/1999/xlink" contentStyleType="text/css" data-diagram-type="CLASS" height="976px" preserveAspectRatio="none" style="width:476px;height:976px;background:#FFFFFF;" version="1.1" viewBox="0 0 476 976" width="476px" zoomAndPan="magnify"><defs/><g><!--cluster S-Core Repo--><g id="cluster_S-Core Repo"><path d="M22.5,130 L120.4746,130 A3.75,3.75 0 0 1 122.9746,132.5 L129.9746,152.2969 L324.5,152.2969 A2.5,2.5 0 0 1 327,154.7969 L327,546.5 A2.5,2.5 0 0 1 324.5,549 L22.5,549 A2.5,2.5 0 0 1 20,546.5 L20,132.5 A2.5,2.5 0 0 1 22.5,130 " fill="transparent" style="stroke:#000000;stroke-width:1.5;"/><line style="stroke:#000000;stroke-width:1.5;" x1="20" x2="129.9746" y1="152.2969" y2="152.2969"/><text fill="#000000" font-family="sans-serif" font-size="14" font-weight="bold" lengthAdjust="spacing" textLength="96.9746" x="24" y="144.9951">S-Core Repo</text></g><!--cluster SW-Module Repo--><g id="cluster_SW-Module Repo"><path d="M8.5,598 L143.457,598 A3.75,3.75 0 0 1 145.957,600.5 L152.957,620.2969 L423.5,620.2969 A2.5,2.5 0 0 1 426,622.7969 L426,966.5 A2.5,2.5 0 0 1 423.5,969 L8.5,969 A2.5,2.5 0 0 1 6,966.5 L6,600.5 A2.5,2.5 0 0 1 8.5,598 " fill="transparent" style="stroke:#000000;stroke-width:1.5;"/><line style="stroke:#000000;stroke-width:1.5;" x1="6" x2="152.957" y1="620.2969" y2="620.2969"/><text fill="#000000" font-family="sans-serif" font-size="14" font-weight="bold" lengthAdjust="spacing" textLength="133.957" x="10" y="612.9951">SW-Module Repo</text></g><!--class Platform--><g id="elem_Platform"><rect codeLine="3" fill="#F1F1F1" height="145.7813" id="Platform" rx="2.5" ry="2.5" style="stroke:#181818;stroke-width:0.5;" width="240.3682" x="44" y="173"/><ellipse cx="130.29" cy="189" fill="#ADD1B2" rx="11" ry="11" style="stroke:#181818;stroke-width:1;"/><path d="M133.2588,194.6406 Q132.6807,194.9375 132.04,195.0781 Q131.3994,195.2344 130.6963,195.2344 Q128.1963,195.2344 126.8682,193.5938 Q125.5557,191.9375 125.5557,188.8125 Q125.5557,185.6875 126.8682,184.0313 Q128.1963,182.375 130.6963,182.375 Q131.3994,182.375 132.04,182.5313 Q132.6963,182.6875 133.2588,182.9844 L133.2588,185.7031 Q132.6338,185.125 132.04,184.8594 Q131.4463,184.5781 130.8213,184.5781 Q129.4775,184.5781 128.79,185.6563 Q128.1025,186.7188 128.1025,188.8125 Q128.1025,190.9063 128.79,191.9844 Q129.4775,193.0469 130.8213,193.0469 Q131.4463,193.0469 132.04,192.7813 Q132.6338,192.5 133.2588,191.9219 L133.2588,194.6406 Z " fill="#000000"/><text fill="#000000" font-family="sans-serif" font-size="14" lengthAdjust="spacing" textLength="59.2881" x="150.79" y="193.8467">Platform</text><line style="stroke:#181818;stroke-width:0.5;" x1="45" x2="283.3682" y1="205" y2="205"/><ellipse cx="55" cy="218.6484" fill="transparent" rx="3" ry="3" style="stroke:#038048;stroke-width:1;"/><text fill="#000000" font-family="sans-serif" font-size="14" lengthAdjust="spacing" textLength="83.7129" x="64" y="221.9951">SEooC: bool</text><line style="stroke:#181818;stroke-width:1;" x1="45" x2="283.3682" y1="229.2969" y2="229.2969"/><text fill="#000000" font-family="sans-serif" font-size="14" lengthAdjust="spacing" textLength="73.6777" x="50" y="246.292">Objectives</text><text fill="#000000" font-family="sans-serif" font-size="14" lengthAdjust="spacing" textLength="186.9766" x="50" y="262.5889">Stakeholder Requirements</text><text fill="#000000" font-family="sans-serif" font-size="14" lengthAdjust="spacing" textLength="150.0625" x="50" y="278.8857">Platform Architecture</text><text fill="#000000" font-family="sans-serif" font-size="14" lengthAdjust="spacing" textLength="228.3682" x="50" y="295.1826">SW-Platform Assumptions of use</text><text fill="#000000" font-family="sans-serif" font-size="14" lengthAdjust="spacing" textLength="182.5742" x="50" y="311.4795">Platform Integration Tests</text></g><!--class Feature--><g id="elem_Feature"><rect codeLine="13" fill="#F1F1F1" height="129.4844" id="Feature" rx="2.5" ry="2.5" style="stroke:#181818;stroke-width:0.5;" width="239.5479" x="44" y="396"/><ellipse cx="132.5356" cy="412" fill="#ADD1B2" rx="11" ry="11" style="stroke:#181818;stroke-width:1;"/><path d="M135.5044,417.6406 Q134.9263,417.9375 134.2856,418.0781 Q133.645,418.2344 132.9419,418.2344 Q130.4419,418.2344 129.1138,416.5938 Q127.8013,414.9375 127.8013,411.8125 Q127.8013,408.6875 129.1138,407.0313 Q130.4419,405.375 132.9419,405.375 Q133.645,405.375 134.2856,405.5313 Q134.9419,405.6875 135.5044,405.9844 L135.5044,408.7031 Q134.8794,408.125 134.2856,407.8594 Q133.6919,407.5781 133.0669,407.5781 Q131.7231,407.5781 131.0356,408.6563 Q130.3481,409.7188 130.3481,411.8125 Q130.3481,413.9063 131.0356,414.9844 Q131.7231,416.0469 133.0669,416.0469 Q133.6919,416.0469 134.2856,415.7813 Q134.8794,415.5 135.5044,414.9219 L135.5044,417.6406 Z " fill="#000000"/><text fill="#000000" font-family="sans-serif" font-size="14" lengthAdjust="spacing" textLength="53.9766" x="153.0356" y="416.8467">Feature</text><line style="stroke:#181818;stroke-width:0.5;" x1="45" x2="282.5479" y1="428" y2="428"/><line style="stroke:#181818;stroke-width:1;" x1="45" x2="282.5479" y1="436" y2="436"/><text fill="#000000" font-family="sans-serif" font-size="14" lengthAdjust="spacing" textLength="156.6934" x="50" y="452.9951">Feature Requirements</text><text fill="#000000" font-family="sans-serif" font-size="14" lengthAdjust="spacing" textLength="144.751" x="50" y="469.292">Feature Architecture</text><text fill="#000000" font-family="sans-serif" font-size="14" lengthAdjust="spacing" textLength="177.2627" x="50" y="485.5889">Feature Integration Tests</text><text fill="#000000" font-family="sans-serif" font-size="14" lengthAdjust="spacing" textLength="227.5479" x="50" y="501.8857">Feature Safety/Security Analysis</text><text fill="#000000" font-family="sans-serif" font-size="14" lengthAdjust="spacing" textLength="195.2754" x="50" y="518.1826">Feature Assumptions of use</text></g><!--class Component--><g id="elem_Component"><rect codeLine="24" fill="#F1F1F1" height="145.7813" id="Component" rx="2.5" ry="2.5" style="stroke:#181818;stroke-width:0.5;" width="266.8506" x="30.5" y="641"/><ellipse cx="119.0356" cy="657" fill="#ADD1B2" rx="11" ry="11" style="stroke:#181818;stroke-width:1;"/><path d="M122.0044,662.6406 Q121.4263,662.9375 120.7856,663.0781 Q120.145,663.2344 119.4419,663.2344 Q116.9419,663.2344 115.6138,661.5938 Q114.3013,659.9375 114.3013,656.8125 Q114.3013,653.6875 115.6138,652.0313 Q116.9419,650.375 119.4419,650.375 Q120.145,650.375 120.7856,650.5313 Q121.4419,650.6875 122.0044,650.9844 L122.0044,653.7031 Q121.3794,653.125 120.7856,652.8594 Q120.1919,652.5781 119.5669,652.5781 Q118.2231,652.5781 117.5356,653.6563 Q116.8481,654.7188 116.8481,656.8125 Q116.8481,658.9063 117.5356,659.9844 Q118.2231,661.0469 119.5669,661.0469 Q120.1919,661.0469 120.7856,660.7813 Q121.3794,660.5 122.0044,659.9219 L122.0044,662.6406 Z " fill="#000000"/><text fill="#000000" font-family="sans-serif" font-size="14" lengthAdjust="spacing" textLength="81.2793" x="139.5356" y="661.8467">Component</text><line style="stroke:#181818;stroke-width:0.5;" x1="31.5" x2="296.3506" y1="673" y2="673"/><ellipse cx="41.5" cy="686.6484" fill="transparent" rx="3" ry="3" style="stroke:#038048;stroke-width:1;"/><text fill="#000000" font-family="sans-serif" font-size="14" lengthAdjust="spacing" textLength="83.7129" x="50.5" y="689.9951">SEooC: bool</text><line style="stroke:#181818;stroke-width:1;" x1="31.5" x2="296.3506" y1="697.2969" y2="697.2969"/><text fill="#000000" font-family="sans-serif" font-size="14" lengthAdjust="spacing" textLength="183.9961" x="36.5" y="714.292">Component Requirements</text><text fill="#000000" font-family="sans-serif" font-size="14" lengthAdjust="spacing" textLength="172.0537" x="36.5" y="730.5889">Component Architecture</text><text fill="#000000" font-family="sans-serif" font-size="14" lengthAdjust="spacing" textLength="204.5654" x="36.5" y="746.8857">Component Integration Tests</text><text fill="#000000" font-family="sans-serif" font-size="14" lengthAdjust="spacing" textLength="254.8506" x="36.5" y="763.1826">Component Safety/Security Analysis</text><text fill="#000000" font-family="sans-serif" font-size="14" lengthAdjust="spacing" textLength="215.2842" x="36.5" y="779.4795">Component Assumption of use</text></g><!--class Unit--><g id="elem_Unit"><rect codeLine="34" fill="#F1F1F1" height="96.8906" id="Unit" rx="2.5" ry="2.5" style="stroke:#181818;stroke-width:0.5;" width="123.5283" x="102" y="848"/><ellipse cx="145.3632" cy="864" fill="#ADD1B2" rx="11" ry="11" style="stroke:#181818;stroke-width:1;"/><path d="M148.3319,869.6406 Q147.7538,869.9375 147.1132,870.0781 Q146.4726,870.2344 145.7694,870.2344 Q143.2694,870.2344 141.9413,868.5938 Q140.6288,866.9375 140.6288,863.8125 Q140.6288,860.6875 141.9413,859.0313 Q143.2694,857.375 145.7694,857.375 Q146.4726,857.375 147.1132,857.5313 Q147.7694,857.6875 148.3319,857.9844 L148.3319,860.7031 Q147.7069,860.125 147.1132,859.8594 Q146.5194,859.5781 145.8944,859.5781 Q144.5507,859.5781 143.8632,860.6563 Q143.1757,861.7188 143.1757,863.8125 Q143.1757,865.9063 143.8632,866.9844 Q144.5507,868.0469 145.8944,868.0469 Q146.5194,868.0469 147.1132,867.7813 Q147.7069,867.5 148.3319,866.9219 L148.3319,869.6406 Z " fill="#000000"/><text fill="#000000" font-family="sans-serif" font-size="14" lengthAdjust="spacing" textLength="28.499" x="165.6661" y="868.8467">Unit</text><line style="stroke:#181818;stroke-width:0.5;" x1="103" x2="224.5283" y1="880" y2="880"/><line style="stroke:#181818;stroke-width:1;" x1="103" x2="224.5283" y1="888" y2="888"/><text fill="#000000" font-family="sans-serif" font-size="14" lengthAdjust="spacing" textLength="111.5283" x="108" y="904.9951">Detailed Design</text><text fill="#000000" font-family="sans-serif" font-size="14" lengthAdjust="spacing" textLength="88.6826" x="108" y="921.292">Source Code</text><text fill="#000000" font-family="sans-serif" font-size="14" lengthAdjust="spacing" textLength="62.8975" x="108" y="937.5889">Unit Test</text></g><path d="M293.5,6 L428.1016,6 A3.75,3.75 0 0 1 430.6016,8.5 L437.6016,28.2969 L442.1016,28.2969 A2.5,2.5 0 0 1 444.6016,30.7969 L444.6016,56.0938 A2.5,2.5 0 0 1 442.1016,58.5938 L293.5,58.5938 A2.5,2.5 0 0 1 291,56.0938 L291,8.5 A2.5,2.5 0 0 1 293.5,6 " fill="#F1F1F1" style="stroke:#181818;stroke-width:0.5;"/><line style="stroke:#181818;stroke-width:0.5;" x1="291" x2="437.6016" y1="28.2969" y2="28.2969"/><text fill="#000000" font-family="sans-serif" font-size="14" font-weight="bold" lengthAdjust="spacing" textLength="133.6016" x="295" y="20.9951">Integration Repo</text><!--link Integration Repo to S-Core Repo--><g id="link_Integration Repo_S-Core Repo"><path codeLine="46" d="M333.58,59.18 C324.88,67.62 316.69,77.76 312,89 C308.7138,96.8825 306.3422,105.187 304.71,113.6904 C303.8939,117.9421 303.2626,122.2435 302.7943,126.5667 C302.6772,127.6474 303.1058,145.0504 303.0088,146.1335 " fill="transparent" id="Integration Repo-to-S-Core Repo" style="stroke:#181818;stroke-width:1;stroke-dasharray:7.0,7.0;"/><polygon fill="#181818" points="302.4732,152.1096,307.2606,143.5025,302.9195,147.1295,299.2925,142.7885,302.4732,152.1096" style="stroke:#181818;stroke-width:1;"/><text fill="#000000" font-family="sans-serif" font-size="13" lengthAdjust="spacing" textLength="82.3418" x="313" y="102.0669">derives from</text></g><!--link Integration Repo to SW-Module Repo--><g id="link_Integration Repo_SW-Module Repo"><path codeLine="47" d="M386.3,59.12 C391.75,68.14 397.06,78.62 400,89 C437.5,221.435 442.2225,376.0425 437.46,498.2288 C435.0788,559.3219 430.9863,606.3461 426.7741,644.4044 " fill="transparent" id="Integration Repo-to-SW-Module Repo" style="stroke:#181818;stroke-width:1;stroke-dasharray:7.0,7.0;"/><polygon fill="#181818" points="426.1141,650.368,431.0798,641.8626,426.6641,645.3983,423.1284,640.9826,426.1141,650.368" style="stroke:#181818;stroke-width:1;"/><text fill="#000000" font-family="sans-serif" font-size="13" lengthAdjust="spacing" textLength="29.7832" x="439" y="362.0669">uses</text></g><!--link S-Core Repo to SW-Module Repo--><!--reverse link Platform to Feature--><g id="link_Platform_Feature"><path codeLine="51" d="M164,331.24 C164,356.15 164,371.84 164,396 " fill="transparent" id="Platform-backto-Feature" style="stroke:#181818;stroke-width:1;"/><polygon fill="#181818" points="164,319.24,160,325.24,164,331.24,168,325.24,164,319.24" style="stroke:#181818;stroke-width:1;"/><text fill="#000000" font-family="sans-serif" font-size="13" lengthAdjust="spacing" textLength="8.271" x="155.6268" y="338.7663">1</text><text fill="#000000" font-family="sans-serif" font-size="13" lengthAdjust="spacing" textLength="8.2393" x="155.5775" y="384.7216">n</text></g><!--reverse link Feature to Component--><g id="link_Feature_Component"><path codeLine="52" d="M164,537.29 C164,572.51 164,604.37 164,640.83 " fill="transparent" id="Feature-backto-Component" style="stroke:#181818;stroke-width:1;"/><polygon fill="transparent" points="164,525.29,160,531.29,164,537.29,168,531.29,164,525.29" style="stroke:#181818;stroke-width:1;"/><text fill="#000000" font-family="sans-serif" font-size="13" lengthAdjust="spacing" textLength="8.271" x="155.5793" y="545.6951">1</text><text fill="#000000" font-family="sans-serif" font-size="13" lengthAdjust="spacing" textLength="8.2393" x="155.6254" y="629.9732">n</text></g><!--reverse link Component to Component--><g id="link_Component_Component"><path codeLine="53" d="M309.7329,698.0432 C330.3629,700.6832 332.5,704.99 332.5,714 C332.5,723.01 318.46,728.84 297.83,731.48 " fill="transparent" id="Component-backto-Component" style="stroke:#181818;stroke-width:1;"/><polygon fill="transparent" points="297.83,696.52,303.2737,701.2492,309.7329,698.0432,304.2892,693.314,297.83,696.52" style="stroke:#181818;stroke-width:1;"/><text fill="#000000" font-family="sans-serif" font-size="13" lengthAdjust="spacing" textLength="55.0278" x="338.5" y="718.5669">contains</text><text fill="#000000" font-family="sans-serif" font-size="13" lengthAdjust="spacing" textLength="8.271" x="305.3791" y="692.2304">1</text><text fill="#000000" font-family="sans-serif" font-size="13" lengthAdjust="spacing" textLength="8.2393" x="305.3782" y="729.1023">n</text></g><!--reverse link Component to Unit--><g id="link_Component_Unit"><path codeLine="54" d="M164,799.12 C164,819.54 164,829.26 164,847.85 " fill="transparent" id="Component-backto-Unit" style="stroke:#181818;stroke-width:1;"/><polygon fill="transparent" points="164,787.12,160,793.12,164,799.12,168,793.12,164,787.12" style="stroke:#181818;stroke-width:1;"/><text fill="#000000" font-family="sans-serif" font-size="13" lengthAdjust="spacing" textLength="8.271" x="155.6388" y="806.8877">1</text><text fill="#000000" font-family="sans-serif" font-size="13" lengthAdjust="spacing" textLength="8.2393" x="155.4875" y="837.0378">n</text></g><!--SRC=[XLFBJiCm4BpdArQv885InBK7fAg0n05HDQ0U40SttZIcZZVO3bA5-k_OUJPDW5CIpyvuPdTJi6JFTWXX72r98wone12-0u14CcDW9PbDIUVL4S0LnFT4opbiYMHr4aNLutdxWOaLNsYgpzYoFMOaEMed-LaAZJagMuETva8dcR2ELsgiQPke1uqfyy8AKWOeXTBWaFoeBEuqymNmWgRIFWQTyGTaNhRntRXi3qUMMc3ag0McRklHcALe3zSn9gKMzW0BnUJ1Y3FjgK37m7akkY5ieYVYfHpFOKbvGShv_MyGVU4eP0-DOlRGTD0U_pFgoGrTsDEiNPnN9UnmD7TecP38tOiHErMl0vKwGQVAQvSLoviQDUxKTTiwXr_0ggbOewnGaud211FrizdjsKym1xUzVgCXrPJ_pZcRsTodTLSCjAAtJ72Ewfr78uQtERJNxNXu4y9bv2WgRDSeQDV9OzHWNT-3VWAJk7ENa7ATLcPKokjQt-JW1m00]--></g></svg>