<svg xmlns="http://www.w3.org/2000/svg" xmlns:xlink="http://www.w3.org/1999/xlink" contentStyleType="text/css" data-diagram-type="CLASS" height="322px" preserveAspectRatio="none" style="width:6205px;height:322px;background:#FFFFFF;" version="1.1" viewBox="0 0 6205 322" width="6205px" zoomAndPan="magnify"><defs/><g><!--entity Feature_User--><g id="elem_Feature_User"><ellipse cx="3132.1685" cy="14" fill="#F1F1F1" rx="8" ry="8" style="stroke:#181818;stroke-width:0.5;"/><path d="M3132.1685,22 L3132.1685,49 M3119.1685,30 L3145.1685,30 M3132.1685,49 L3119.1685,64 M3132.1685,49 L3145.1685,64 " fill="transparent" style="stroke:#181818;stroke-width:0.5;"/><text fill="#000000" font-family="sans-serif" font-size="14" lengthAdjust="spacing" textLength="90.3369" x="3087" y="78.4951">Feature User</text></g><!--class comp_arc_sta__baselibs__filesystem--><g id="elem_comp_arc_sta__baselibs__filesystem"><rect fill="#F1F1F1" height="40" id="comp_arc_sta__baselibs__filesystem" rx="2.5" ry="2.5" style="stroke:#181818;stroke-width:0.5;" width="285.4492" x="5913.5" y="275.5"/><ellipse cx="5928.5" cy="291.5" fill="#ADD1B2" rx="11" ry="11" style="stroke:#181818;stroke-width:1;"/><path d="M5931.4688,297.1406 Q5930.8906,297.4375 5930.25,297.5781 Q5929.6094,297.7344 5928.9063,297.7344 Q5926.4063,297.7344 5925.0781,296.0938 Q5923.7656,294.4375 5923.7656,291.3125 Q5923.7656,288.1875 5925.0781,286.5313 Q5926.4063,284.875 5928.9063,284.875 Q5929.6094,284.875 5930.25,285.0313 Q5930.9063,285.1875 5931.4688,285.4844 L5931.4688,288.2031 Q5930.8438,287.625 5930.25,287.3594 Q5929.6563,287.0781 5929.0313,287.0781 Q5927.6875,287.0781 5927,288.1563 Q5926.3125,289.2188 5926.3125,291.3125 Q5926.3125,293.4063 5927,294.4844 Q5927.6875,295.5469 5929.0313,295.5469 Q5929.6563,295.5469 5930.25,295.2813 Q5930.8438,295 5931.4688,294.4219 L5931.4688,297.1406 Z " fill="#000000"/><text fill="#000000" font-family="sans-serif" font-size="14" lengthAdjust="spacing" textLength="253.4492" x="5942.5" y="296.3467">comp_arc_sta__baselibs__filesystem</text><line style="stroke:#181818;stroke-width:0.5;" x1="5914.5" x2="6197.9492" y1="307.5" y2="307.5"/></g><!--class logic_arc_int__baselibs__filesystem--><g id="elem_logic_arc_int__baselibs__filesystem"><rect fill="#F1F1F1" height="40" id="logic_arc_int__baselibs__filesystem" rx="2.5" ry="2.5" style="stroke:#181818;stroke-width:0.5;" width="276.4805" x="5913" y="158.5"/><ellipse cx="5928" cy="174.5" fill="#ADD1B2" rx="11" ry="11" style="stroke:#181818;stroke-width:1;"/><path d="M5930.9688,180.1406 Q5930.3906,180.4375 5929.75,180.5781 Q5929.1094,180.7344 5928.4063,180.7344 Q5925.9063,180.7344 5924.5781,179.0938 Q5923.2656,177.4375 5923.2656,174.3125 Q5923.2656,171.1875 5924.5781,169.5313 Q5925.9063,167.875 5928.4063,167.875 Q5929.1094,167.875 5929.75,168.0313 Q5930.4063,168.1875 5930.9688,168.4844 L5930.9688,171.2031 Q5930.3438,170.625 5929.75,170.3594 Q5929.1563,170.0781 5928.5313,170.0781 Q5927.1875,170.0781 5926.5,171.1563 Q5925.8125,172.2188 5925.8125,174.3125 Q5925.8125,176.4063 5926.5,177.4844 Q5927.1875,178.5469 5928.5313,178.5469 Q5929.1563,178.5469 5929.75,178.2813 Q5930.3438,178 5930.9688,177.4219 L5930.9688,180.1406 Z " fill="#000000"/><text fill="#000000" font-family="sans-serif" font-size="14" lengthAdjust="spacing" textLength="244.4805" x="5942" y="179.3467">logic_arc_int__baselibs__filesystem</text><line style="stroke:#181818;stroke-width:0.5;" x1="5914" x2="6188.4805" y1="190.5" y2="190.5"/></g><!--class logic_arc_int__baselibs__task_result--><g id="elem_logic_arc_int__baselibs__task_result"><rect fill="#F1F1F1" height="40" id="logic_arc_int__baselibs__task_result" rx="2.5" ry="2.5" style="stroke:#181818;stroke-width:0.5;" width="280.9307" x="2664.5" y="158.5"/><ellipse cx="2679.5" cy="174.5" fill="#ADD1B2" rx="11" ry="11" style="stroke:#181818;stroke-width:1;"/><path d="M2682.4688,180.1406 Q2681.8906,180.4375 2681.25,180.5781 Q2680.6094,180.7344 2679.9063,180.7344 Q2677.4063,180.7344 2676.0781,179.0938 Q2674.7656,177.4375 2674.7656,174.3125 Q2674.7656,171.1875 2676.0781,169.5313 Q2677.4063,167.875 2679.9063,167.875 Q2680.6094,167.875 2681.25,168.0313 Q2681.9063,168.1875 2682.4688,168.4844 L2682.4688,171.2031 Q2681.8438,170.625 2681.25,170.3594 Q2680.6563,170.0781 2680.0313,170.0781 Q2678.6875,170.0781 2678,171.1563 Q2677.3125,172.2188 2677.3125,174.3125 Q2677.3125,176.4063 2678,177.4844 Q2678.6875,178.5469 2680.0313,178.5469 Q2680.6563,178.5469 2681.25,178.2813 Q2681.8438,178 2682.4688,177.4219 L2682.4688,180.1406 Z " fill="#000000"/><text fill="#000000" font-family="sans-serif" font-size="14" lengthAdjust="spacing" textLength="248.9307" x="2693.5" y="179.3467">logic_arc_int__baselibs__task_result</text><line style="stroke:#181818;stroke-width:0.5;" x1="2665.5" x2="2944.4307" y1="190.5" y2="190.5"/></g><!--class logic_arc_int__baselibs__synchronized_queue--><g id="elem_logic_arc_int__baselibs__synchronized_queue"><rect fill="#F1F1F1" height="40" id="logic_arc_int__baselibs__synchronized_queue" rx="2.5" ry="2.5" style="stroke:#181818;stroke-width:0.5;" width="348.3604" x="4535" y="158.5"/><ellipse cx="4550" cy="174.5" fill="#ADD1B2" rx="11" ry="11" style="stroke:#181818;stroke-width:1;"/><path d="M4552.9688,180.1406 Q4552.3906,180.4375 4551.75,180.5781 Q4551.1094,180.7344 4550.4063,180.7344 Q4547.9063,180.7344 4546.5781,179.0938 Q4545.2656,177.4375 4545.2656,174.3125 Q4545.2656,171.1875 4546.5781,169.5313 Q4547.9063,167.875 4550.4063,167.875 Q4551.1094,167.875 4551.75,168.0313 Q4552.4063,168.1875 4552.9688,168.4844 L4552.9688,171.2031 Q4552.3438,170.625 4551.75,170.3594 Q4551.1563,170.0781 4550.5313,170.0781 Q4549.1875,170.0781 4548.5,171.1563 Q4547.8125,172.2188 4547.8125,174.3125 Q4547.8125,176.4063 4548.5,177.4844 Q4549.1875,178.5469 4550.5313,178.5469 Q4551.1563,178.5469 4551.75,178.2813 Q4552.3438,178 4552.9688,177.4219 L4552.9688,180.1406 Z " fill="#000000"/><text fill="#000000" font-family="sans-serif" font-size="14" lengthAdjust="spacing" textLength="316.3604" x="4564" y="179.3467">logic_arc_int__baselibs__synchronized_queue</text><line style="stroke:#181818;stroke-width:0.5;" x1="4536" x2="4882.3604" y1="190.5" y2="190.5"/></g><!--class comp_arc_sta__baselibs__concurrency--><g id="elem_comp_arc_sta__baselibs__concurrency"><rect fill="#F1F1F1" height="40" id="comp_arc_sta__baselibs__concurrency" rx="2.5" ry="2.5" style="stroke:#181818;stroke-width:0.5;" width="300.2012" x="3446" y="275.5"/><ellipse cx="3461" cy="291.5" fill="#ADD1B2" rx="11" ry="11" style="stroke:#181818;stroke-width:1;"/><path d="M3463.9688,297.1406 Q3463.3906,297.4375 3462.75,297.5781 Q3462.1094,297.7344 3461.4063,297.7344 Q3458.9063,297.7344 3457.5781,296.0938 Q3456.2656,294.4375 3456.2656,291.3125 Q3456.2656,288.1875 3457.5781,286.5313 Q3458.9063,284.875 3461.4063,284.875 Q3462.1094,284.875 3462.75,285.0313 Q3463.4063,285.1875 3463.9688,285.4844 L3463.9688,288.2031 Q3463.3438,287.625 3462.75,287.3594 Q3462.1563,287.0781 3461.5313,287.0781 Q3460.1875,287.0781 3459.5,288.1563 Q3458.8125,289.2188 3458.8125,291.3125 Q3458.8125,293.4063 3459.5,294.4844 Q3460.1875,295.5469 3461.5313,295.5469 Q3462.1563,295.5469 3462.75,295.2813 Q3463.3438,295 3463.9688,294.4219 L3463.9688,297.1406 Z " fill="#000000"/><text fill="#000000" font-family="sans-serif" font-size="14" lengthAdjust="spacing" textLength="268.2012" x="3475" y="296.3467">comp_arc_sta__baselibs__concurrency</text><line style="stroke:#181818;stroke-width:0.5;" x1="3447" x2="3745.2012" y1="307.5" y2="307.5"/></g><!--class comp_arc_sta__baselibs__bit_manipulation--><g id="elem_comp_arc_sta__baselibs__bit_manipulation"><rect fill="#F1F1F1" height="40" id="comp_arc_sta__baselibs__bit_manipulation" rx="2.5" ry="2.5" style="stroke:#181818;stroke-width:0.5;" width="330.8057" x="1755.5" y="275.5"/><ellipse cx="1770.5" cy="291.5" fill="#ADD1B2" rx="11" ry="11" style="stroke:#181818;stroke-width:1;"/><path d="M1773.4688,297.1406 Q1772.8906,297.4375 1772.25,297.5781 Q1771.6094,297.7344 1770.9063,297.7344 Q1768.4063,297.7344 1767.0781,296.0938 Q1765.7656,294.4375 1765.7656,291.3125 Q1765.7656,288.1875 1767.0781,286.5313 Q1768.4063,284.875 1770.9063,284.875 Q1771.6094,284.875 1772.25,285.0313 Q1772.9063,285.1875 1773.4688,285.4844 L1773.4688,288.2031 Q1772.8438,287.625 1772.25,287.3594 Q1771.6563,287.0781 1771.0313,287.0781 Q1769.6875,287.0781 1769,288.1563 Q1768.3125,289.2188 1768.3125,291.3125 Q1768.3125,293.4063 1769,294.4844 Q1769.6875,295.5469 1771.0313,295.5469 Q1771.6563,295.5469 1772.25,295.2813 Q1772.8438,295 1773.4688,294.4219 L1773.4688,297.1406 Z " fill="#000000"/><text fill="#000000" font-family="sans-serif" font-size="14" lengthAdjust="spacing" textLength="298.8057" x="1784.5" y="296.3467">comp_arc_sta__baselibs__bit_manipulation</text><line style="stroke:#181818;stroke-width:0.5;" x1="1756.5" x2="2085.3057" y1="307.5" y2="307.5"/></g><!--class logic_arc_int__baselibs__bit_manipulation--><g id="elem_logic_arc_int__baselibs__bit_manipulation"><rect fill="#F1F1F1" height="40" id="logic_arc_int__baselibs__bit_manipulation" rx="2.5" ry="2.5" style="stroke:#181818;stroke-width:0.5;" width="321.8369" x="1635" y="158.5"/><ellipse cx="1650" cy="174.5" fill="#ADD1B2" rx="11" ry="11" style="stroke:#181818;stroke-width:1;"/><path d="M1652.9688,180.1406 Q1652.3906,180.4375 1651.75,180.5781 Q1651.1094,180.7344 1650.4063,180.7344 Q1647.9063,180.7344 1646.5781,179.0938 Q1645.2656,177.4375 1645.2656,174.3125 Q1645.2656,171.1875 1646.5781,169.5313 Q1647.9063,167.875 1650.4063,167.875 Q1651.1094,167.875 1651.75,168.0313 Q1652.4063,168.1875 1652.9688,168.4844 L1652.9688,171.2031 Q1652.3438,170.625 1651.75,170.3594 Q1651.1563,170.0781 1650.5313,170.0781 Q1649.1875,170.0781 1648.5,171.1563 Q1647.8125,172.2188 1647.8125,174.3125 Q1647.8125,176.4063 1648.5,177.4844 Q1649.1875,178.5469 1650.5313,178.5469 Q1651.1563,178.5469 1651.75,178.2813 Q1652.3438,178 1652.9688,177.4219 L1652.9688,180.1406 Z " fill="#000000"/><text fill="#000000" font-family="sans-serif" font-size="14" lengthAdjust="spacing" textLength="289.8369" x="1664" y="179.3467">logic_arc_int__baselibs__bit_manipulation</text><line style="stroke:#181818;stroke-width:0.5;" x1="1636" x2="1955.8369" y1="190.5" y2="190.5"/></g><!--class logic_arc_int__baselibs__utils_scoped_op--><g id="elem_logic_arc_int__baselibs__utils_scoped_op"><rect fill="#F1F1F1" height="40" id="logic_arc_int__baselibs__utils_scoped_op" rx="2.5" ry="2.5" style="stroke:#181818;stroke-width:0.5;" width="315.377" x="334.5" y="158.5"/><ellipse cx="349.5" cy="174.5" fill="#ADD1B2" rx="11" ry="11" style="stroke:#181818;stroke-width:1;"/><path d="M352.4688,180.1406 Q351.8906,180.4375 351.25,180.5781 Q350.6094,180.7344 349.9063,180.7344 Q347.4063,180.7344 346.0781,179.0938 Q344.7656,177.4375 344.7656,174.3125 Q344.7656,171.1875 346.0781,169.5313 Q347.4063,167.875 349.9063,167.875 Q350.6094,167.875 351.25,168.0313 Q351.9063,168.1875 352.4688,168.4844 L352.4688,171.2031 Q351.8438,170.625 351.25,170.3594 Q350.6563,170.0781 350.0313,170.0781 Q348.6875,170.0781 348,171.1563 Q347.3125,172.2188 347.3125,174.3125 Q347.3125,176.4063 348,177.4844 Q348.6875,178.5469 350.0313,178.5469 Q350.6563,178.5469 351.25,178.2813 Q351.8438,178 352.4688,177.4219 L352.4688,180.1406 Z " fill="#000000"/><text fill="#000000" font-family="sans-serif" font-size="14" lengthAdjust="spacing" textLength="283.377" x="363.5" y="179.3467">logic_arc_int__baselibs__utils_scoped_op</text><line style="stroke:#181818;stroke-width:0.5;" x1="335.5" x2="648.877" y1="190.5" y2="190.5"/></g><!--class comp_arc_sta__baselibs__message_passing--><g id="elem_comp_arc_sta__baselibs__message_passing"><rect fill="#F1F1F1" height="40" id="comp_arc_sta__baselibs__message_passing" rx="2.5" ry="2.5" style="stroke:#181818;stroke-width:0.5;" width="337.1357" x="5541.5" y="275.5"/><ellipse cx="5556.5" cy="291.5" fill="#ADD1B2" rx="11" ry="11" style="stroke:#181818;stroke-width:1;"/><path d="M5559.4688,297.1406 Q5558.8906,297.4375 5558.25,297.5781 Q5557.6094,297.7344 5556.9063,297.7344 Q5554.4063,297.7344 5553.0781,296.0938 Q5551.7656,294.4375 5551.7656,291.3125 Q5551.7656,288.1875 5553.0781,286.5313 Q5554.4063,284.875 5556.9063,284.875 Q5557.6094,284.875 5558.25,285.0313 Q5558.9063,285.1875 5559.4688,285.4844 L5559.4688,288.2031 Q5558.8438,287.625 5558.25,287.3594 Q5557.6563,287.0781 5557.0313,287.0781 Q5555.6875,287.0781 5555,288.1563 Q5554.3125,289.2188 5554.3125,291.3125 Q5554.3125,293.4063 5555,294.4844 Q5555.6875,295.5469 5557.0313,295.5469 Q5557.6563,295.5469 5558.25,295.2813 Q5558.8438,295 5559.4688,294.4219 L5559.4688,297.1406 Z " fill="#000000"/><text fill="#000000" font-family="sans-serif" font-size="14" lengthAdjust="spacing" textLength="305.1357" x="5570.5" y="296.3467">comp_arc_sta__baselibs__message_passing</text><line style="stroke:#181818;stroke-width:0.5;" x1="5542.5" x2="5877.6357" y1="307.5" y2="307.5"/></g><!--class logic_arc_int__baselibs__message_passing--><g id="elem_logic_arc_int__baselibs__message_passing"><rect fill="#F1F1F1" height="40" id="logic_arc_int__baselibs__message_passing" rx="2.5" ry="2.5" style="stroke:#181818;stroke-width:0.5;" width="328.167" x="5544" y="158.5"/><ellipse cx="5559" cy="174.5" fill="#ADD1B2" rx="11" ry="11" style="stroke:#181818;stroke-width:1;"/><path d="M5561.9688,180.1406 Q5561.3906,180.4375 5560.75,180.5781 Q5560.1094,180.7344 5559.4063,180.7344 Q5556.9063,180.7344 5555.5781,179.0938 Q5554.2656,177.4375 5554.2656,174.3125 Q5554.2656,171.1875 5555.5781,169.5313 Q5556.9063,167.875 5559.4063,167.875 Q5560.1094,167.875 5560.75,168.0313 Q5561.4063,168.1875 5561.9688,168.4844 L5561.9688,171.2031 Q5561.3438,170.625 5560.75,170.3594 Q5560.1563,170.0781 5559.5313,170.0781 Q5558.1875,170.0781 5557.5,171.1563 Q5556.8125,172.2188 5556.8125,174.3125 Q5556.8125,176.4063 5557.5,177.4844 Q5558.1875,178.5469 5559.5313,178.5469 Q5560.1563,178.5469 5560.75,178.2813 Q5561.3438,178 5561.9688,177.4219 L5561.9688,180.1406 Z " fill="#000000"/><text fill="#000000" font-family="sans-serif" font-size="14" lengthAdjust="spacing" textLength="296.167" x="5573" y="179.3467">logic_arc_int__baselibs__message_passing</text><line style="stroke:#181818;stroke-width:0.5;" x1="5545" x2="5871.167" y1="190.5" y2="190.5"/></g><!--class comp_arc_sta__baselibs__memory_shared--><g id="elem_comp_arc_sta__baselibs__memory_shared"><rect fill="#F1F1F1" height="40" id="comp_arc_sta__baselibs__memory_shared" rx="2.5" ry="2.5" style="stroke:#181818;stroke-width:0.5;" width="327.0117" x="5179.5" y="275.5"/><ellipse cx="5194.5" cy="291.5" fill="#ADD1B2" rx="11" ry="11" style="stroke:#181818;stroke-width:1;"/><path d="M5197.4688,297.1406 Q5196.8906,297.4375 5196.25,297.5781 Q5195.6094,297.7344 5194.9063,297.7344 Q5192.4063,297.7344 5191.0781,296.0938 Q5189.7656,294.4375 5189.7656,291.3125 Q5189.7656,288.1875 5191.0781,286.5313 Q5192.4063,284.875 5194.9063,284.875 Q5195.6094,284.875 5196.25,285.0313 Q5196.9063,285.1875 5197.4688,285.4844 L5197.4688,288.2031 Q5196.8438,287.625 5196.25,287.3594 Q5195.6563,287.0781 5195.0313,287.0781 Q5193.6875,287.0781 5193,288.1563 Q5192.3125,289.2188 5192.3125,291.3125 Q5192.3125,293.4063 5193,294.4844 Q5193.6875,295.5469 5195.0313,295.5469 Q5195.6563,295.5469 5196.25,295.2813 Q5196.8438,295 5197.4688,294.4219 L5197.4688,297.1406 Z " fill="#000000"/><text fill="#000000" font-family="sans-serif" font-size="14" lengthAdjust="spacing" textLength="295.0117" x="5208.5" y="296.3467">comp_arc_sta__baselibs__memory_shared</text><line style="stroke:#181818;stroke-width:0.5;" x1="5180.5" x2="5505.5117" y1="307.5" y2="307.5"/></g><!--class logic_arc_int__baselibs__memory_shared--><g id="elem_logic_arc_int__baselibs__memory_shared"><rect fill="#F1F1F1" height="40" id="logic_arc_int__baselibs__memory_shared" rx="2.5" ry="2.5" style="stroke:#181818;stroke-width:0.5;" width="318.043" x="5187" y="158.5"/><ellipse cx="5202" cy="174.5" fill="#ADD1B2" rx="11" ry="11" style="stroke:#181818;stroke-width:1;"/><path d="M5204.9688,180.1406 Q5204.3906,180.4375 5203.75,180.5781 Q5203.1094,180.7344 5202.4063,180.7344 Q5199.9063,180.7344 5198.5781,179.0938 Q5197.2656,177.4375 5197.2656,174.3125 Q5197.2656,171.1875 5198.5781,169.5313 Q5199.9063,167.875 5202.4063,167.875 Q5203.1094,167.875 5203.75,168.0313 Q5204.4063,168.1875 5204.9688,168.4844 L5204.9688,171.2031 Q5204.3438,170.625 5203.75,170.3594 Q5203.1563,170.0781 5202.5313,170.0781 Q5201.1875,170.0781 5200.5,171.1563 Q5199.8125,172.2188 5199.8125,174.3125 Q5199.8125,176.4063 5200.5,177.4844 Q5201.1875,178.5469 5202.5313,178.5469 Q5203.1563,178.5469 5203.75,178.2813 Q5204.3438,178 5204.9688,177.4219 L5204.9688,180.1406 Z " fill="#000000"/><text fill="#000000" font-family="sans-serif" font-size="14" lengthAdjust="spacing" textLength="286.043" x="5216" y="179.3467">logic_arc_int__baselibs__memory_shared</text><line style="stroke:#181818;stroke-width:0.5;" x1="5188" x2="5504.043" y1="190.5" y2="190.5"/></g><!--class logic_arc_int__baselibs__condition_variable--><g id="elem_logic_arc_int__baselibs__condition_variable"><rect fill="#F1F1F1" height="40" id="logic_arc_int__baselibs__condition_variable" rx="2.5" ry="2.5" style="stroke:#181818;stroke-width:0.5;" width="332.7539" x="3318.5" y="158.5"/><ellipse cx="3333.5" cy="174.5" fill="#ADD1B2" rx="11" ry="11" style="stroke:#181818;stroke-width:1;"/><path d="M3336.4688,180.1406 Q3335.8906,180.4375 3335.25,180.5781 Q3334.6094,180.7344 3333.9063,180.7344 Q3331.4063,180.7344 3330.0781,179.0938 Q3328.7656,177.4375 3328.7656,174.3125 Q3328.7656,171.1875 3330.0781,169.5313 Q3331.4063,167.875 3333.9063,167.875 Q3334.6094,167.875 3335.25,168.0313 Q3335.9063,168.1875 3336.4688,168.4844 L3336.4688,171.2031 Q3335.8438,170.625 3335.25,170.3594 Q3334.6563,170.0781 3334.0313,170.0781 Q3332.6875,170.0781 3332,171.1563 Q3331.3125,172.2188 3331.3125,174.3125 Q3331.3125,176.4063 3332,177.4844 Q3332.6875,178.5469 3334.0313,178.5469 Q3334.6563,178.5469 3335.25,178.2813 Q3335.8438,178 3336.4688,177.4219 L3336.4688,180.1406 Z " fill="#000000"/><text fill="#000000" font-family="sans-serif" font-size="14" lengthAdjust="spacing" textLength="300.7539" x="3347.5" y="179.3467">logic_arc_int__baselibs__condition_variable</text><line style="stroke:#181818;stroke-width:0.5;" x1="3319.5" x2="3650.2539" y1="190.5" y2="190.5"/></g><!--class logic_arc_int__baselibs__json--><g id="elem_logic_arc_int__baselibs__json"><rect fill="#F1F1F1" height="40" id="logic_arc_int__baselibs__json" rx="2.5" ry="2.5" style="stroke:#181818;stroke-width:0.5;" width="233.168" x="4918.5" y="158.5"/><ellipse cx="4933.5" cy="174.5" fill="#ADD1B2" rx="11" ry="11" style="stroke:#181818;stroke-width:1;"/><path d="M4936.4688,180.1406 Q4935.8906,180.4375 4935.25,180.5781 Q4934.6094,180.7344 4933.9063,180.7344 Q4931.4063,180.7344 4930.0781,179.0938 Q4928.7656,177.4375 4928.7656,174.3125 Q4928.7656,171.1875 4930.0781,169.5313 Q4931.4063,167.875 4933.9063,167.875 Q4934.6094,167.875 4935.25,168.0313 Q4935.9063,168.1875 4936.4688,168.4844 L4936.4688,171.2031 Q4935.8438,170.625 4935.25,170.3594 Q4934.6563,170.0781 4934.0313,170.0781 Q4932.6875,170.0781 4932,171.1563 Q4931.3125,172.2188 4931.3125,174.3125 Q4931.3125,176.4063 4932,177.4844 Q4932.6875,178.5469 4934.0313,178.5469 Q4934.6563,178.5469 4935.25,178.2813 Q4935.8438,178 4936.4688,177.4219 L4936.4688,180.1406 Z " fill="#000000"/><text fill="#000000" font-family="sans-serif" font-size="14" lengthAdjust="spacing" textLength="201.168" x="4947.5" y="179.3467">logic_arc_int__baselibs__json</text><line style="stroke:#181818;stroke-width:0.5;" x1="4919.5" x2="5150.668" y1="190.5" y2="190.5"/></g><!--class logic_arc_int__baselibs__result--><g id="elem_logic_arc_int__baselibs__result"><rect fill="#F1F1F1" height="40" id="logic_arc_int__baselibs__result" rx="2.5" ry="2.5" style="stroke:#181818;stroke-width:0.5;" width="244.4609" x="1356" y="158.5"/><ellipse cx="1371" cy="174.5" fill="#ADD1B2" rx="11" ry="11" style="stroke:#181818;stroke-width:1;"/><path d="M1373.9688,180.1406 Q1373.3906,180.4375 1372.75,180.5781 Q1372.1094,180.7344 1371.4063,180.7344 Q1368.9063,180.7344 1367.5781,179.0938 Q1366.2656,177.4375 1366.2656,174.3125 Q1366.2656,171.1875 1367.5781,169.5313 Q1368.9063,167.875 1371.4063,167.875 Q1372.1094,167.875 1372.75,168.0313 Q1373.4063,168.1875 1373.9688,168.4844 L1373.9688,171.2031 Q1373.3438,170.625 1372.75,170.3594 Q1372.1563,170.0781 1371.5313,170.0781 Q1370.1875,170.0781 1369.5,171.1563 Q1368.8125,172.2188 1368.8125,174.3125 Q1368.8125,176.4063 1369.5,177.4844 Q1370.1875,178.5469 1371.5313,178.5469 Q1372.1563,178.5469 1372.75,178.2813 Q1373.3438,178 1373.9688,177.4219 L1373.9688,180.1406 Z " fill="#000000"/><text fill="#000000" font-family="sans-serif" font-size="14" lengthAdjust="spacing" textLength="212.4609" x="1385" y="179.3467">logic_arc_int__baselibs__result</text><line style="stroke:#181818;stroke-width:0.5;" x1="1357" x2="1599.4609" y1="190.5" y2="190.5"/></g><!--class logic_arc_int__baselibs__shared_future--><g id="elem_logic_arc_int__baselibs__shared_future"><rect fill="#F1F1F1" height="40" id="logic_arc_int__baselibs__shared_future" rx="2.5" ry="2.5" style="stroke:#181818;stroke-width:0.5;" width="302.0811" x="2981" y="158.5"/><ellipse cx="2996" cy="174.5" fill="#ADD1B2" rx="11" ry="11" style="stroke:#181818;stroke-width:1;"/><path d="M2998.9688,180.1406 Q2998.3906,180.4375 2997.75,180.5781 Q2997.1094,180.7344 2996.4063,180.7344 Q2993.9063,180.7344 2992.5781,179.0938 Q2991.2656,177.4375 2991.2656,174.3125 Q2991.2656,171.1875 2992.5781,169.5313 Q2993.9063,167.875 2996.4063,167.875 Q2997.1094,167.875 2997.75,168.0313 Q2998.4063,168.1875 2998.9688,168.4844 L2998.9688,171.2031 Q2998.3438,170.625 2997.75,170.3594 Q2997.1563,170.0781 2996.5313,170.0781 Q2995.1875,170.0781 2994.5,171.1563 Q2993.8125,172.2188 2993.8125,174.3125 Q2993.8125,176.4063 2994.5,177.4844 Q2995.1875,178.5469 2996.5313,178.5469 Q2997.1563,178.5469 2997.75,178.2813 Q2998.3438,178 2998.9688,177.4219 L2998.9688,180.1406 Z " fill="#000000"/><text fill="#000000" font-family="sans-serif" font-size="14" lengthAdjust="spacing" textLength="270.0811" x="3010" y="179.3467">logic_arc_int__baselibs__shared_future</text><line style="stroke:#181818;stroke-width:0.5;" x1="2982" x2="3282.0811" y1="190.5" y2="190.5"/></g><!--class logic_arc_int__baselibs__future--><g id="elem_logic_arc_int__baselibs__future"><rect fill="#F1F1F1" height="40" id="logic_arc_int__baselibs__future" rx="2.5" ry="2.5" style="stroke:#181818;stroke-width:0.5;" width="247.0791" x="3686.5" y="158.5"/><ellipse cx="3701.5" cy="174.5" fill="#ADD1B2" rx="11" ry="11" style="stroke:#181818;stroke-width:1;"/><path d="M3704.4688,180.1406 Q3703.8906,180.4375 3703.25,180.5781 Q3702.6094,180.7344 3701.9063,180.7344 Q3699.4063,180.7344 3698.0781,179.0938 Q3696.7656,177.4375 3696.7656,174.3125 Q3696.7656,171.1875 3698.0781,169.5313 Q3699.4063,167.875 3701.9063,167.875 Q3702.6094,167.875 3703.25,168.0313 Q3703.9063,168.1875 3704.4688,168.4844 L3704.4688,171.2031 Q3703.8438,170.625 3703.25,170.3594 Q3702.6563,170.0781 3702.0313,170.0781 Q3700.6875,170.0781 3700,171.1563 Q3699.3125,172.2188 3699.3125,174.3125 Q3699.3125,176.4063 3700,177.4844 Q3700.6875,178.5469 3702.0313,178.5469 Q3702.6563,178.5469 3703.25,178.2813 Q3703.8438,178 3704.4688,177.4219 L3704.4688,180.1406 Z " fill="#000000"/><text fill="#000000" font-family="sans-serif" font-size="14" lengthAdjust="spacing" textLength="215.0791" x="3715.5" y="179.3467">logic_arc_int__baselibs__future</text><line style="stroke:#181818;stroke-width:0.5;" x1="3687.5" x2="3932.5791" y1="190.5" y2="190.5"/></g><!--class comp_arc_sta__baselibs__json--><g id="elem_comp_arc_sta__baselibs__json"><rect fill="#F1F1F1" height="40" id="comp_arc_sta__baselibs__json" rx="2.5" ry="2.5" style="stroke:#181818;stroke-width:0.5;" width="242.1367" x="4902" y="275.5"/><ellipse cx="4917" cy="291.5" fill="#ADD1B2" rx="11" ry="11" style="stroke:#181818;stroke-width:1;"/><path d="M4919.9688,297.1406 Q4919.3906,297.4375 4918.75,297.5781 Q4918.1094,297.7344 4917.4063,297.7344 Q4914.9063,297.7344 4913.5781,296.0938 Q4912.2656,294.4375 4912.2656,291.3125 Q4912.2656,288.1875 4913.5781,286.5313 Q4914.9063,284.875 4917.4063,284.875 Q4918.1094,284.875 4918.75,285.0313 Q4919.4063,285.1875 4919.9688,285.4844 L4919.9688,288.2031 Q4919.3438,287.625 4918.75,287.3594 Q4918.1563,287.0781 4917.5313,287.0781 Q4916.1875,287.0781 4915.5,288.1563 Q4914.8125,289.2188 4914.8125,291.3125 Q4914.8125,293.4063 4915.5,294.4844 Q4916.1875,295.5469 4917.5313,295.5469 Q4918.1563,295.5469 4918.75,295.2813 Q4919.3438,295 4919.9688,294.4219 L4919.9688,297.1406 Z " fill="#000000"/><text fill="#000000" font-family="sans-serif" font-size="14" lengthAdjust="spacing" textLength="210.1367" x="4931" y="296.3467">comp_arc_sta__baselibs__json</text><line style="stroke:#181818;stroke-width:0.5;" x1="4903" x2="5143.1367" y1="307.5" y2="307.5"/></g><!--class logic_arc_int__baselibs__intrusive_list--><g id="elem_logic_arc_int__baselibs__intrusive_list"><rect fill="#F1F1F1" height="40" id="logic_arc_int__baselibs__intrusive_list" rx="2.5" ry="2.5" style="stroke:#181818;stroke-width:0.5;" width="293.0713" x="684.5" y="158.5"/><ellipse cx="699.5" cy="174.5" fill="#ADD1B2" rx="11" ry="11" style="stroke:#181818;stroke-width:1;"/><path d="M702.4688,180.1406 Q701.8906,180.4375 701.25,180.5781 Q700.6094,180.7344 699.9063,180.7344 Q697.4063,180.7344 696.0781,179.0938 Q694.7656,177.4375 694.7656,174.3125 Q694.7656,171.1875 696.0781,169.5313 Q697.4063,167.875 699.9063,167.875 Q700.6094,167.875 701.25,168.0313 Q701.9063,168.1875 702.4688,168.4844 L702.4688,171.2031 Q701.8438,170.625 701.25,170.3594 Q700.6563,170.0781 700.0313,170.0781 Q698.6875,170.0781 698,171.1563 Q697.3125,172.2188 697.3125,174.3125 Q697.3125,176.4063 698,177.4844 Q698.6875,178.5469 700.0313,178.5469 Q700.6563,178.5469 701.25,178.2813 Q701.8438,178 702.4688,177.4219 L702.4688,180.1406 Z " fill="#000000"/><text fill="#000000" font-family="sans-serif" font-size="14" lengthAdjust="spacing" textLength="261.0713" x="713.5" y="179.3467">logic_arc_int__baselibs__intrusive_list</text><line style="stroke:#181818;stroke-width:0.5;" x1="685.5" x2="976.5713" y1="190.5" y2="190.5"/></g><!--class logic_arc_int__baselibs__executor--><g id="elem_logic_arc_int__baselibs__executor"><rect fill="#F1F1F1" height="40" id="logic_arc_int__baselibs__executor" rx="2.5" ry="2.5" style="stroke:#181818;stroke-width:0.5;" width="266.4385" x="2363" y="158.5"/><ellipse cx="2378" cy="174.5" fill="#ADD1B2" rx="11" ry="11" style="stroke:#181818;stroke-width:1;"/><path d="M2380.9688,180.1406 Q2380.3906,180.4375 2379.75,180.5781 Q2379.1094,180.7344 2378.4063,180.7344 Q2375.9063,180.7344 2374.5781,179.0938 Q2373.2656,177.4375 2373.2656,174.3125 Q2373.2656,171.1875 2374.5781,169.5313 Q2375.9063,167.875 2378.4063,167.875 Q2379.1094,167.875 2379.75,168.0313 Q2380.4063,168.1875 2380.9688,168.4844 L2380.9688,171.2031 Q2380.3438,170.625 2379.75,170.3594 Q2379.1563,170.0781 2378.5313,170.0781 Q2377.1875,170.0781 2376.5,171.1563 Q2375.8125,172.2188 2375.8125,174.3125 Q2375.8125,176.4063 2376.5,177.4844 Q2377.1875,178.5469 2378.5313,178.5469 Q2379.1563,178.5469 2379.75,178.2813 Q2380.3438,178 2380.9688,177.4219 L2380.9688,180.1406 Z " fill="#000000"/><text fill="#000000" font-family="sans-serif" font-size="14" lengthAdjust="spacing" textLength="234.4385" x="2392" y="179.3467">logic_arc_int__baselibs__executor</text><line style="stroke:#181818;stroke-width:0.5;" x1="2364" x2="2628.4385" y1="190.5" y2="190.5"/></g><!--class comp_arc_sta__baselibs__result--><g id="elem_comp_arc_sta__baselibs__result"><rect fill="#F1F1F1" height="40" id="comp_arc_sta__baselibs__result" rx="2.5" ry="2.5" style="stroke:#181818;stroke-width:0.5;" width="253.4297" x="1351.5" y="275.5"/><ellipse cx="1366.5" cy="291.5" fill="#ADD1B2" rx="11" ry="11" style="stroke:#181818;stroke-width:1;"/><path d="M1369.4688,297.1406 Q1368.8906,297.4375 1368.25,297.5781 Q1367.6094,297.7344 1366.9063,297.7344 Q1364.4063,297.7344 1363.0781,296.0938 Q1361.7656,294.4375 1361.7656,291.3125 Q1361.7656,288.1875 1363.0781,286.5313 Q1364.4063,284.875 1366.9063,284.875 Q1367.6094,284.875 1368.25,285.0313 Q1368.9063,285.1875 1369.4688,285.4844 L1369.4688,288.2031 Q1368.8438,287.625 1368.25,287.3594 Q1367.6563,287.0781 1367.0313,287.0781 Q1365.6875,287.0781 1365,288.1563 Q1364.3125,289.2188 1364.3125,291.3125 Q1364.3125,293.4063 1365,294.4844 Q1365.6875,295.5469 1367.0313,295.5469 Q1367.6563,295.5469 1368.25,295.2813 Q1368.8438,295 1369.4688,294.4219 L1369.4688,297.1406 Z " fill="#000000"/><text fill="#000000" font-family="sans-serif" font-size="14" lengthAdjust="spacing" textLength="221.4297" x="1380.5" y="296.3467">comp_arc_sta__baselibs__result</text><line style="stroke:#181818;stroke-width:0.5;" x1="1352.5" x2="1603.9297" y1="307.5" y2="307.5"/></g><!--class logic_arc_int__baselibs__bit_mask_operator--><g id="elem_logic_arc_int__baselibs__bit_mask_operator"><rect fill="#F1F1F1" height="40" id="logic_arc_int__baselibs__bit_mask_operator" rx="2.5" ry="2.5" style="stroke:#181818;stroke-width:0.5;" width="334.6406" x="1992.5" y="158.5"/><ellipse cx="2007.5" cy="174.5" fill="#ADD1B2" rx="11" ry="11" style="stroke:#181818;stroke-width:1;"/><path d="M2010.4688,180.1406 Q2009.8906,180.4375 2009.25,180.5781 Q2008.6094,180.7344 2007.9063,180.7344 Q2005.4063,180.7344 2004.0781,179.0938 Q2002.7656,177.4375 2002.7656,174.3125 Q2002.7656,171.1875 2004.0781,169.5313 Q2005.4063,167.875 2007.9063,167.875 Q2008.6094,167.875 2009.25,168.0313 Q2009.9063,168.1875 2010.4688,168.4844 L2010.4688,171.2031 Q2009.8438,170.625 2009.25,170.3594 Q2008.6563,170.0781 2008.0313,170.0781 Q2006.6875,170.0781 2006,171.1563 Q2005.3125,172.2188 2005.3125,174.3125 Q2005.3125,176.4063 2006,177.4844 Q2006.6875,178.5469 2008.0313,178.5469 Q2008.6563,178.5469 2009.25,178.2813 Q2009.8438,178 2010.4688,177.4219 L2010.4688,180.1406 Z " fill="#000000"/><text fill="#000000" font-family="sans-serif" font-size="14" lengthAdjust="spacing" textLength="302.6406" x="2021.5" y="179.3467">logic_arc_int__baselibs__bit_mask_operator</text><line style="stroke:#181818;stroke-width:0.5;" x1="1993.5" x2="2326.1406" y1="190.5" y2="190.5"/></g><!--class logic_arc_int__baselibs__promise--><g id="elem_logic_arc_int__baselibs__promise"><rect fill="#F1F1F1" height="40" id="logic_arc_int__baselibs__promise" rx="2.5" ry="2.5" style="stroke:#181818;stroke-width:0.5;" width="261.1885" x="4238.5" y="158.5"/><ellipse cx="4253.5" cy="174.5" fill="#ADD1B2" rx="11" ry="11" style="stroke:#181818;stroke-width:1;"/><path d="M4256.4688,180.1406 Q4255.8906,180.4375 4255.25,180.5781 Q4254.6094,180.7344 4253.9063,180.7344 Q4251.4063,180.7344 4250.0781,179.0938 Q4248.7656,177.4375 4248.7656,174.3125 Q4248.7656,171.1875 4250.0781,169.5313 Q4251.4063,167.875 4253.9063,167.875 Q4254.6094,167.875 4255.25,168.0313 Q4255.9063,168.1875 4256.4688,168.4844 L4256.4688,171.2031 Q4255.8438,170.625 4255.25,170.3594 Q4254.6563,170.0781 4254.0313,170.0781 Q4252.6875,170.0781 4252,171.1563 Q4251.3125,172.2188 4251.3125,174.3125 Q4251.3125,176.4063 4252,177.4844 Q4252.6875,178.5469 4254.0313,178.5469 Q4254.6563,178.5469 4255.25,178.2813 Q4255.8438,178 4256.4688,177.4219 L4256.4688,180.1406 Z " fill="#000000"/><text fill="#000000" font-family="sans-serif" font-size="14" lengthAdjust="spacing" textLength="229.1885" x="4267.5" y="179.3467">logic_arc_int__baselibs__promise</text><line style="stroke:#181818;stroke-width:0.5;" x1="4239.5" x2="4498.6885" y1="190.5" y2="190.5"/></g><!--class comp_arc_sta__baselibs__containers--><g id="elem_comp_arc_sta__baselibs__containers"><rect fill="#F1F1F1" height="40" id="comp_arc_sta__baselibs__containers" rx="2.5" ry="2.5" style="stroke:#181818;stroke-width:0.5;" width="287.1445" x="854.5" y="275.5"/><ellipse cx="869.5" cy="291.5" fill="#ADD1B2" rx="11" ry="11" style="stroke:#181818;stroke-width:1;"/><path d="M872.4688,297.1406 Q871.8906,297.4375 871.25,297.5781 Q870.6094,297.7344 869.9063,297.7344 Q867.4063,297.7344 866.0781,296.0938 Q864.7656,294.4375 864.7656,291.3125 Q864.7656,288.1875 866.0781,286.5313 Q867.4063,284.875 869.9063,284.875 Q870.6094,284.875 871.25,285.0313 Q871.9063,285.1875 872.4688,285.4844 L872.4688,288.2031 Q871.8438,287.625 871.25,287.3594 Q870.6563,287.0781 870.0313,287.0781 Q868.6875,287.0781 868,288.1563 Q867.3125,289.2188 867.3125,291.3125 Q867.3125,293.4063 868,294.4844 Q868.6875,295.5469 870.0313,295.5469 Q870.6563,295.5469 871.25,295.2813 Q871.8438,295 872.4688,294.4219 L872.4688,297.1406 Z " fill="#000000"/><text fill="#000000" font-family="sans-serif" font-size="14" lengthAdjust="spacing" textLength="255.1445" x="883.5" y="296.3467">comp_arc_sta__baselibs__containers</text><line style="stroke:#181818;stroke-width:0.5;" x1="855.5" x2="1140.6445" y1="307.5" y2="307.5"/></g><!--class logic_arc_int__baselibs__dynamic_array--><g id="elem_logic_arc_int__baselibs__dynamic_array"><rect fill="#F1F1F1" height="40" id="logic_arc_int__baselibs__dynamic_array" rx="2.5" ry="2.5" style="stroke:#181818;stroke-width:0.5;" width="308.3496" x="1013" y="158.5"/><ellipse cx="1028" cy="174.5" fill="#ADD1B2" rx="11" ry="11" style="stroke:#181818;stroke-width:1;"/><path d="M1030.9688,180.1406 Q1030.3906,180.4375 1029.75,180.5781 Q1029.1094,180.7344 1028.4063,180.7344 Q1025.9063,180.7344 1024.5781,179.0938 Q1023.2656,177.4375 1023.2656,174.3125 Q1023.2656,171.1875 1024.5781,169.5313 Q1025.9063,167.875 1028.4063,167.875 Q1029.1094,167.875 1029.75,168.0313 Q1030.4063,168.1875 1030.9688,168.4844 L1030.9688,171.2031 Q1030.3438,170.625 1029.75,170.3594 Q1029.1563,170.0781 1028.5313,170.0781 Q1027.1875,170.0781 1026.5,171.1563 Q1025.8125,172.2188 1025.8125,174.3125 Q1025.8125,176.4063 1026.5,177.4844 Q1027.1875,178.5469 1028.5313,178.5469 Q1029.1563,178.5469 1029.75,178.2813 Q1030.3438,178 1030.9688,177.4219 L1030.9688,180.1406 Z " fill="#000000"/><text fill="#000000" font-family="sans-serif" font-size="14" lengthAdjust="spacing" textLength="276.3496" x="1042" y="179.3467">logic_arc_int__baselibs__dynamic_array</text><line style="stroke:#181818;stroke-width:0.5;" x1="1014" x2="1320.3496" y1="190.5" y2="190.5"/></g><!--class logic_arc_int__baselibs__utils_base64--><g id="elem_logic_arc_int__baselibs__utils_base64"><rect fill="#F1F1F1" height="40" id="logic_arc_int__baselibs__utils_base64" rx="2.5" ry="2.5" style="stroke:#181818;stroke-width:0.5;" width="292.1689" x="7" y="158.5"/><ellipse cx="22" cy="174.5" fill="#ADD1B2" rx="11" ry="11" style="stroke:#181818;stroke-width:1;"/><path d="M24.9688,180.1406 Q24.3906,180.4375 23.75,180.5781 Q23.1094,180.7344 22.4063,180.7344 Q19.9063,180.7344 18.5781,179.0938 Q17.2656,177.4375 17.2656,174.3125 Q17.2656,171.1875 18.5781,169.5313 Q19.9063,167.875 22.4063,167.875 Q23.1094,167.875 23.75,168.0313 Q24.4063,168.1875 24.9688,168.4844 L24.9688,171.2031 Q24.3438,170.625 23.75,170.3594 Q23.1563,170.0781 22.5313,170.0781 Q21.1875,170.0781 20.5,171.1563 Q19.8125,172.2188 19.8125,174.3125 Q19.8125,176.4063 20.5,177.4844 Q21.1875,178.5469 22.5313,178.5469 Q23.1563,178.5469 23.75,178.2813 Q24.3438,178 24.9688,177.4219 L24.9688,180.1406 Z " fill="#000000"/><text fill="#000000" font-family="sans-serif" font-size="14" lengthAdjust="spacing" textLength="260.1689" x="36" y="179.3467">logic_arc_int__baselibs__utils_base64</text><line style="stroke:#181818;stroke-width:0.5;" x1="8" x2="298.1689" y1="190.5" y2="190.5"/></g><!--class logic_arc_int__baselibs__task--><g id="elem_logic_arc_int__baselibs__task"><rect fill="#F1F1F1" height="40" id="logic_arc_int__baselibs__task" rx="2.5" ry="2.5" style="stroke:#181818;stroke-width:0.5;" width="234.0156" x="3969" y="158.5"/><ellipse cx="3984" cy="174.5" fill="#ADD1B2" rx="11" ry="11" style="stroke:#181818;stroke-width:1;"/><path d="M3986.9688,180.1406 Q3986.3906,180.4375 3985.75,180.5781 Q3985.1094,180.7344 3984.4063,180.7344 Q3981.9063,180.7344 3980.5781,179.0938 Q3979.2656,177.4375 3979.2656,174.3125 Q3979.2656,171.1875 3980.5781,169.5313 Q3981.9063,167.875 3984.4063,167.875 Q3985.1094,167.875 3985.75,168.0313 Q3986.4063,168.1875 3986.9688,168.4844 L3986.9688,171.2031 Q3986.3438,170.625 3985.75,170.3594 Q3985.1563,170.0781 3984.5313,170.0781 Q3983.1875,170.0781 3982.5,171.1563 Q3981.8125,172.2188 3981.8125,174.3125 Q3981.8125,176.4063 3982.5,177.4844 Q3983.1875,178.5469 3984.5313,178.5469 Q3985.1563,178.5469 3985.75,178.2813 Q3986.3438,178 3986.9688,177.4219 L3986.9688,180.1406 Z " fill="#000000"/><text fill="#000000" font-family="sans-serif" font-size="14" lengthAdjust="spacing" textLength="202.0156" x="3998" y="179.3467">logic_arc_int__baselibs__task</text><line style="stroke:#181818;stroke-width:0.5;" x1="3970" x2="4202.0156" y1="190.5" y2="190.5"/></g><!--class comp_arc_sta__baselibs__utils--><g id="elem_comp_arc_sta__baselibs__utils"><rect fill="#F1F1F1" height="40" id="comp_arc_sta__baselibs__utils" rx="2.5" ry="2.5" style="stroke:#181818;stroke-width:0.5;" width="242.9502" x="201.5" y="275.5"/><ellipse cx="216.5" cy="291.5" fill="#ADD1B2" rx="11" ry="11" style="stroke:#181818;stroke-width:1;"/><path d="M219.4688,297.1406 Q218.8906,297.4375 218.25,297.5781 Q217.6094,297.7344 216.9063,297.7344 Q214.4063,297.7344 213.0781,296.0938 Q211.7656,294.4375 211.7656,291.3125 Q211.7656,288.1875 213.0781,286.5313 Q214.4063,284.875 216.9063,284.875 Q217.6094,284.875 218.25,285.0313 Q218.9063,285.1875 219.4688,285.4844 L219.4688,288.2031 Q218.8438,287.625 218.25,287.3594 Q217.6563,287.0781 217.0313,287.0781 Q215.6875,287.0781 215,288.1563 Q214.3125,289.2188 214.3125,291.3125 Q214.3125,293.4063 215,294.4844 Q215.6875,295.5469 217.0313,295.5469 Q217.6563,295.5469 218.25,295.2813 Q218.8438,295 219.4688,294.4219 L219.4688,297.1406 Z " fill="#000000"/><text fill="#000000" font-family="sans-serif" font-size="14" lengthAdjust="spacing" textLength="210.9502" x="230.5" y="296.3467">comp_arc_sta__baselibs__utils</text><line style="stroke:#181818;stroke-width:0.5;" x1="202.5" x2="443.4502" y1="307.5" y2="307.5"/></g><!--reverse link logic_arc_int__baselibs__filesystem to comp_arc_sta__baselibs__filesystem--><g id="link_logic_arc_int__baselibs__filesystem_comp_arc_sta__baselibs__filesystem"><path codeLine="15" d="M6052.0998,204.7444 C6053.0198,225.9744 6054.24,253.94 6055.16,275.19 " fill="transparent" id="logic_arc_int__baselibs__filesystem-backto-comp_arc_sta__baselibs__filesystem" style="stroke:#181818;stroke-width:1;"/><polygon fill="#181818" points="6051.84,198.75,6048.2334,207.9147,6052.0565,203.7453,6056.2259,207.5684,6051.84,198.75" style="stroke:#181818;stroke-width:1;"/><text fill="#000000" font-family="sans-serif" font-size="13" lengthAdjust="spacing" textLength="76.9082" x="6055" y="241.5669">implements</text></g><!--link Feature_User to logic_arc_int__baselibs__task_result--><g id="link_Feature_User_logic_arc_int__baselibs__task_result"><path codeLine="16" d="M3086.88,62.85 C3025.03,88.01 2920.0276,130.7088 2857.3276,156.2188 " fill="transparent" id="Feature_User-to-logic_arc_int__baselibs__task_result" style="stroke:#181818;stroke-width:1;"/><polygon fill="#181818" points="2851.77,158.48,2861.6139,158.7933,2856.4014,156.5957,2858.599,151.3832,2851.77,158.48" style="stroke:#181818;stroke-width:1;"/><text fill="#000000" font-family="sans-serif" font-size="13" lengthAdjust="spacing" textLength="23.0103" x="2960" y="124.5669">use</text></g><!--link Feature_User to logic_arc_int__baselibs__synchronized_queue--><g id="link_Feature_User_logic_arc_int__baselibs__synchronized_queue"><path codeLine="17" d="M3177.32,47.9 C3304.64,57.5 3676.35,85.75 3985,111.5 C4221.54,131.24 4280.67,136.37 4517,158.5 C4522.84,159.05 4522.7969,159.0426 4528.7969,159.6126 " fill="transparent" id="Feature_User-to-logic_arc_int__baselibs__synchronized_queue" style="stroke:#181818;stroke-width:1;"/><polygon fill="#181818" points="4534.77,160.18,4526.1886,155.3468,4529.7924,159.7071,4525.432,163.3109,4534.77,160.18" style="stroke:#181818;stroke-width:1;"/><text fill="#000000" font-family="sans-serif" font-size="13" lengthAdjust="spacing" textLength="23.0103" x="4180" y="124.5669">use</text></g><!--reverse link logic_arc_int__baselibs__synchronized_queue to comp_arc_sta__baselibs__concurrency--><g id="link_logic_arc_int__baselibs__synchronized_queue_comp_arc_sta__baselibs__concurrency"><path codeLine="18" d="M4550.2642,199.2569 C4436.8742,213.0969 4284.37,231.13 4145,245.5 C4010.19,259.4 3856.52,272.92 3746.11,282.22 " fill="transparent" id="logic_arc_int__baselibs__synchronized_queue-backto-comp_arc_sta__baselibs__concurrency" style="stroke:#181818;stroke-width:1;"/><polygon fill="#181818" points="4556.22,198.53,4546.8017,195.6499,4551.2568,199.1358,4547.7709,203.591,4556.22,198.53" style="stroke:#181818;stroke-width:1;"/><text fill="#000000" font-family="sans-serif" font-size="13" lengthAdjust="spacing" textLength="76.9082" x="4302" y="241.5669">implements</text></g><!--reverse link logic_arc_int__baselibs__bit_manipulation to comp_arc_sta__baselibs__bit_manipulation--><g id="link_logic_arc_int__baselibs__bit_manipulation_comp_arc_sta__baselibs__bit_manipulation"><path codeLine="19" d="M1821.3359,202.812 C1844.4159,224.042 1876.91,253.94 1900.01,275.19 " fill="transparent" id="logic_arc_int__baselibs__bit_manipulation-backto-comp_arc_sta__baselibs__bit_manipulation" style="stroke:#181818;stroke-width:1;"/><polygon fill="#181818" points="1816.92,198.75,1820.8359,207.7869,1820.5999,202.135,1826.2519,201.899,1816.92,198.75" style="stroke:#181818;stroke-width:1;"/><text fill="#000000" font-family="sans-serif" font-size="13" lengthAdjust="spacing" textLength="76.9082" x="1867" y="241.5669">implements</text></g><!--link Feature_User to logic_arc_int__baselibs__utils_scoped_op--><g id="link_Feature_User_logic_arc_int__baselibs__utils_scoped_op"><path codeLine="20" d="M3086.82,45.71 C2885.24,51.23 2047.72,75.26 1361,111.5 C1052.28,127.79 974.96,131.37 667,158.5 C661.37,159 661.6141,158.9628 655.8241,159.5028 " fill="transparent" id="Feature_User-to-logic_arc_int__baselibs__utils_scoped_op" style="stroke:#181818;stroke-width:1;"/><polygon fill="#181818" points="649.85,160.06,659.1826,163.207,654.8284,159.5957,658.4397,155.2415,649.85,160.06" style="stroke:#181818;stroke-width:1;"/><text fill="#000000" font-family="sans-serif" font-size="13" lengthAdjust="spacing" textLength="23.0103" x="1362" y="124.5669">use</text></g><!--reverse link logic_arc_int__baselibs__message_passing to comp_arc_sta__baselibs__message_passing--><g id="link_logic_arc_int__baselibs__message_passing_comp_arc_sta__baselibs__message_passing"><path codeLine="21" d="M5708.4346,204.7491 C5708.8046,225.9791 5709.29,253.94 5709.66,275.19 " fill="transparent" id="logic_arc_int__baselibs__message_passing-backto-comp_arc_sta__baselibs__message_passing" style="stroke:#181818;stroke-width:1;"/><polygon fill="#181818" points="5708.33,198.75,5704.4874,207.8183,5708.4171,203.7492,5712.4862,207.6789,5708.33,198.75" style="stroke:#181818;stroke-width:1;"/><text fill="#000000" font-family="sans-serif" font-size="13" lengthAdjust="spacing" textLength="76.9082" x="5711" y="241.5669">implements</text></g><!--reverse link logic_arc_int__baselibs__memory_shared to comp_arc_sta__baselibs__memory_shared--><g id="link_logic_arc_int__baselibs__memory_shared_comp_arc_sta__baselibs__memory_shared"><path codeLine="22" d="M5345.3418,204.7479 C5344.7818,225.9779 5344.06,253.94 5343.5,275.19 " fill="transparent" id="logic_arc_int__baselibs__memory_shared-backto-comp_arc_sta__baselibs__memory_shared" style="stroke:#181818;stroke-width:1;"/><polygon fill="#181818" points="5345.5,198.75,5341.2641,207.6414,5345.3682,203.7483,5349.2613,207.8523,5345.5,198.75" style="stroke:#181818;stroke-width:1;"/><text fill="#000000" font-family="sans-serif" font-size="13" lengthAdjust="spacing" textLength="76.9082" x="5346" y="241.5669">implements</text></g><!--link Feature_User to logic_arc_int__baselibs__bit_manipulation--><g id="link_Feature_User_logic_arc_int__baselibs__bit_manipulation"><path codeLine="23" d="M3086.78,48.83 C2931.79,63.71 2407.71,114.22 1975,158.5 C1969.09,159.1 1969.048,159.1016 1962.968,159.7316 " fill="transparent" id="Feature_User-to-logic_arc_int__baselibs__bit_manipulation" style="stroke:#181818;stroke-width:1;"/><polygon fill="#181818" points="1957,160.35,1966.3643,163.4011,1961.9734,159.8347,1965.5398,155.4437,1957,160.35" style="stroke:#181818;stroke-width:1;"/><text fill="#000000" font-family="sans-serif" font-size="13" lengthAdjust="spacing" textLength="23.0103" x="2422" y="124.5669">use</text></g><!--link Feature_User to logic_arc_int__baselibs__condition_variable--><g id="link_Feature_User_logic_arc_int__baselibs__condition_variable"><path codeLine="24" d="M3177.07,61.48 C3243.05,86.34 3359.9554,130.3842 3428.8954,156.3642 " fill="transparent" id="Feature_User-to-logic_arc_int__baselibs__condition_variable" style="stroke:#181818;stroke-width:1;"/><polygon fill="#181818" points="3434.51,158.48,3427.4987,151.5632,3429.8312,156.7168,3424.6776,159.0493,3434.51,158.48" style="stroke:#181818;stroke-width:1;"/><text fill="#000000" font-family="sans-serif" font-size="13" lengthAdjust="spacing" textLength="23.0103" x="3352" y="124.5669">use</text></g><!--link Feature_User to logic_arc_int__baselibs__memory_shared--><g id="link_Feature_User_logic_arc_int__baselibs__memory_shared"><path codeLine="25" d="M3177.26,45.98 C3356.92,51.96 4037.07,75.8 4596,111.5 C4851,127.79 4914.62,134.42 5169,158.5 C5174.85,159.05 5174.8287,159.0438 5180.8387,159.6338 " fill="transparent" id="Feature_User-to-logic_arc_int__baselibs__memory_shared" style="stroke:#181818;stroke-width:1;"/><polygon fill="#181818" points="5186.81,160.22,5178.2439,155.3598,5181.8339,159.7315,5177.4623,163.3216,5186.81,160.22" style="stroke:#181818;stroke-width:1;"/><text fill="#000000" font-family="sans-serif" font-size="13" lengthAdjust="spacing" textLength="23.0103" x="4836" y="124.5669">use</text></g><!--link Feature_User to logic_arc_int__baselibs__json--><g id="link_Feature_User_logic_arc_int__baselibs__json"><path codeLine="26" d="M3177.19,46.09 C3378.81,53.49 4216.27,87.12 4900,158.5 C4906,159.13 4906.1912,159.1184 4912.3912,159.8484 " fill="transparent" id="Feature_User-to-logic_arc_int__baselibs__json" style="stroke:#181818;stroke-width:1;"/><polygon fill="#181818" points="4918.35,160.55,4909.8795,155.525,4913.3843,159.9653,4908.944,163.4702,4918.35,160.55" style="stroke:#181818;stroke-width:1;"/><text fill="#000000" font-family="sans-serif" font-size="13" lengthAdjust="spacing" textLength="23.0103" x="4564" y="124.5669">use</text></g><!--link Feature_User to logic_arc_int__baselibs__result--><g id="link_Feature_User_logic_arc_int__baselibs__result"><path codeLine="27" d="M3086.98,46.89 C2903.77,56.81 2196.35,97.16 1617,158.5 C1611.55,159.08 1611.9401,159.0094 1606.3301,159.6594 " fill="transparent" id="Feature_User-to-logic_arc_int__baselibs__result" style="stroke:#181818;stroke-width:1;"/><polygon fill="#181818" points="1600.37,160.35,1609.7706,163.2876,1605.3368,159.7745,1608.8498,155.3407,1600.37,160.35" style="stroke:#181818;stroke-width:1;"/><text fill="#000000" font-family="sans-serif" font-size="13" lengthAdjust="spacing" textLength="23.0103" x="2118" y="124.5669">use</text></g><!--link Feature_User to logic_arc_int__baselibs__shared_future--><g id="link_Feature_User_logic_arc_int__baselibs__shared_future"><path codeLine="28" d="M3132,81.55 C3132,106.45 3132,132.26 3132,152.26 " fill="transparent" id="Feature_User-to-logic_arc_int__baselibs__shared_future" style="stroke:#181818;stroke-width:1;"/><polygon fill="#181818" points="3132,158.26,3136,149.26,3132,153.26,3128,149.26,3132,158.26" style="stroke:#181818;stroke-width:1;"/><text fill="#000000" font-family="sans-serif" font-size="13" lengthAdjust="spacing" textLength="23.0103" x="3133" y="124.5669">use</text></g><!--reverse link logic_arc_int__baselibs__future to comp_arc_sta__baselibs__concurrency--><g id="link_logic_arc_int__baselibs__future_comp_arc_sta__baselibs__concurrency"><path codeLine="29" d="M3768.8947,201.5901 C3729.2747,222.8801 3671.1,254.14 3631.58,275.38 " fill="transparent" id="logic_arc_int__baselibs__future-backto-comp_arc_sta__baselibs__concurrency" style="stroke:#181818;stroke-width:1;"/><polygon fill="#181818" points="3774.18,198.75,3764.3587,199.4866,3769.7756,201.1167,3768.1455,206.5336,3774.18,198.75" style="stroke:#181818;stroke-width:1;"/><text fill="#000000" font-family="sans-serif" font-size="13" lengthAdjust="spacing" textLength="76.9082" x="3717" y="241.5669">implements</text></g><!--reverse link logic_arc_int__baselibs__json to comp_arc_sta__baselibs__json--><g id="link_logic_arc_int__baselibs__json_comp_arc_sta__baselibs__json"><path codeLine="30" d="M5032.3688,204.7178 C5030.1588,225.9478 5027.23,253.94 5025.02,275.19 " fill="transparent" id="logic_arc_int__baselibs__json-backto-comp_arc_sta__baselibs__json" style="stroke:#181818;stroke-width:1;"/><polygon fill="#181818" points="5032.99,198.75,5028.0797,207.2875,5032.4723,203.7231,5036.0367,208.1158,5032.99,198.75" style="stroke:#181818;stroke-width:1;"/><text fill="#000000" font-family="sans-serif" font-size="13" lengthAdjust="spacing" textLength="76.9082" x="5031" y="241.5669">implements</text></g><!--link Feature_User to logic_arc_int__baselibs__intrusive_list--><g id="link_Feature_User_logic_arc_int__baselibs__intrusive_list"><path codeLine="31" d="M3086.78,46.28 C2909.5,53.34 2244.8,80.45 1698,111.5 C1385.36,129.25 1306.84,130.03 995,158.5 C989.29,159.02 989.4409,158.99 983.5709,159.57 " fill="transparent" id="Feature_User-to-logic_arc_int__baselibs__intrusive_list" style="stroke:#181818;stroke-width:1;"/><polygon fill="#181818" points="977.6,160.16,986.9497,163.2557,982.5758,159.6684,986.1631,155.2944,977.6,160.16" style="stroke:#181818;stroke-width:1;"/><text fill="#000000" font-family="sans-serif" font-size="13" lengthAdjust="spacing" textLength="23.0103" x="1699" y="124.5669">use</text></g><!--link Feature_User to logic_arc_int__baselibs__executor--><g id="link_Feature_User_logic_arc_int__baselibs__executor"><path codeLine="32" d="M3086.77,53.96 C2982.83,75.69 2731.173,128.3219 2592.973,157.2219 " fill="transparent" id="Feature_User-to-logic_arc_int__baselibs__executor" style="stroke:#181818;stroke-width:1;"/><polygon fill="#181818" points="2587.1,158.45,2596.7282,160.5231,2591.9941,157.4266,2595.0907,152.6925,2587.1,158.45" style="stroke:#181818;stroke-width:1;"/><text fill="#000000" font-family="sans-serif" font-size="13" lengthAdjust="spacing" textLength="23.0103" x="2796" y="124.5669">use</text></g><!--reverse link logic_arc_int__baselibs__shared_future to comp_arc_sta__baselibs__concurrency--><g id="link_logic_arc_int__baselibs__shared_future_comp_arc_sta__baselibs__concurrency"><path codeLine="33" d="M3214.7038,199.9936 C3300.5938,221.2836 3433.02,254.11 3518.97,275.41 " fill="transparent" id="logic_arc_int__baselibs__shared_future-backto-comp_arc_sta__baselibs__concurrency" style="stroke:#181818;stroke-width:1;"/><polygon fill="#181818" points="3208.88,198.55,3216.6533,204.5978,3213.7331,199.753,3218.578,196.8328,3208.88,198.55" style="stroke:#181818;stroke-width:1;"/><text fill="#000000" font-family="sans-serif" font-size="13" lengthAdjust="spacing" textLength="76.9082" x="3393" y="241.5669">implements</text></g><!--reverse link logic_arc_int__baselibs__task_result to comp_arc_sta__baselibs__concurrency--><g id="link_logic_arc_int__baselibs__task_result_comp_arc_sta__baselibs__concurrency"><path codeLine="34" d="M2938.2644,199.4248 C3027.4644,212.7248 3143.52,229.91 3251,245.5 C3320.15,255.53 3397.13,266.48 3460.8,275.48 " fill="transparent" id="logic_arc_int__baselibs__task_result-backto-comp_arc_sta__baselibs__concurrency" style="stroke:#181818;stroke-width:1;"/><polygon fill="#181818" points="2932.33,198.54,2940.6417,203.8235,2937.2753,199.2774,2941.8215,195.911,2932.33,198.54" style="stroke:#181818;stroke-width:1;"/><text fill="#000000" font-family="sans-serif" font-size="13" lengthAdjust="spacing" textLength="76.9082" x="3252" y="241.5669">implements</text></g><!--reverse link logic_arc_int__baselibs__executor to comp_arc_sta__baselibs__concurrency--><g id="link_logic_arc_int__baselibs__executor_comp_arc_sta__baselibs__concurrency"><path codeLine="35" d="M2635.3353,197.0907 C2641.2853,197.8207 2641.23,197.8 2647,198.5 C2828.22,220.34 2873.43,226.82 3055,245.5 C3186.92,259.07 3337.16,272.52 3445.78,281.88 " fill="transparent" id="logic_arc_int__baselibs__executor-backto-comp_arc_sta__baselibs__concurrency" style="stroke:#181818;stroke-width:1;"/><polygon fill="#181818" points="2629.38,196.36,2637.8259,201.4262,2634.3428,196.9689,2638.8001,193.4858,2629.38,196.36" style="stroke:#181818;stroke-width:1;"/><text fill="#000000" font-family="sans-serif" font-size="13" lengthAdjust="spacing" textLength="76.9082" x="3056" y="241.5669">implements</text></g><!--reverse link logic_arc_int__baselibs__result to comp_arc_sta__baselibs__result--><g id="link_logic_arc_int__baselibs__result_comp_arc_sta__baselibs__result"><path codeLine="36" d="M1478,204.75 C1478,225.98 1478,253.94 1478,275.19 " fill="transparent" id="logic_arc_int__baselibs__result-backto-comp_arc_sta__baselibs__result" style="stroke:#181818;stroke-width:1;"/><polygon fill="#181818" points="1478,198.75,1474,207.75,1478,203.75,1482,207.75,1478,198.75" style="stroke:#181818;stroke-width:1;"/><text fill="#000000" font-family="sans-serif" font-size="13" lengthAdjust="spacing" textLength="76.9082" x="1479" y="241.5669">implements</text></g><!--link Feature_User to logic_arc_int__baselibs__bit_mask_operator--><g id="link_Feature_User_logic_arc_int__baselibs__bit_mask_operator"><path codeLine="37" d="M3086.75,50.69 C2947.58,69.73 2527.8846,127.1668 2305.1346,157.6368 " fill="transparent" id="Feature_User-to-logic_arc_int__baselibs__bit_mask_operator" style="stroke:#181818;stroke-width:1;"/><polygon fill="#181818" points="2299.19,158.45,2308.6491,161.1933,2304.1439,157.7724,2307.5648,153.2672,2299.19,158.45" style="stroke:#181818;stroke-width:1;"/><text fill="#000000" font-family="sans-serif" font-size="13" lengthAdjust="spacing" textLength="23.0103" x="2618" y="124.5669">use</text></g><!--link Feature_User to logic_arc_int__baselibs__filesystem--><g id="link_Feature_User_logic_arc_int__baselibs__filesystem"><path codeLine="38" d="M3177.17,45.4 C3397.41,49.93 4380.49,71.53 5185,111.5 C5498.2,127.06 5576.73,129.78 5889,158.5 C5896.75,159.21 5898.7418,159.3731 5906.7718,160.2031 " fill="transparent" id="Feature_User-to-logic_arc_int__baselibs__filesystem" style="stroke:#181818;stroke-width:1;"/><polygon fill="#181818" points="5912.74,160.82,5904.199,155.9159,5907.7665,160.3059,5903.3764,163.8735,5912.74,160.82" style="stroke:#181818;stroke-width:1;"/><text fill="#000000" font-family="sans-serif" font-size="13" lengthAdjust="spacing" textLength="23.0103" x="5504" y="124.5669">use</text></g><!--reverse link logic_arc_int__baselibs__promise to comp_arc_sta__baselibs__concurrency--><g id="link_logic_arc_int__baselibs__promise_comp_arc_sta__baselibs__concurrency"><path codeLine="39" d="M4249.0796,199.4843 C4166.4396,213.0843 4057.86,230.58 3957,245.5 C3886.46,255.94 3808.02,266.68 3742.34,275.45 " fill="transparent" id="logic_arc_int__baselibs__promise-backto-comp_arc_sta__baselibs__concurrency" style="stroke:#181818;stroke-width:1;"/><polygon fill="#181818" points="4255,198.51,4245.4699,196.0246,4250.0664,199.3219,4246.769,203.9184,4255,198.51" style="stroke:#181818;stroke-width:1;"/><text fill="#000000" font-family="sans-serif" font-size="13" lengthAdjust="spacing" textLength="76.9082" x="4060" y="241.5669">implements</text></g><!--reverse link logic_arc_int__baselibs__dynamic_array to comp_arc_sta__baselibs__containers--><g id="link_logic_arc_int__baselibs__dynamic_array_comp_arc_sta__baselibs__containers"><path codeLine="40" d="M1133.7494,202.1252 C1102.4594,223.4152 1057.31,254.14 1026.1,275.38 " fill="transparent" id="logic_arc_int__baselibs__dynamic_array-backto-comp_arc_sta__baselibs__containers" style="stroke:#181818;stroke-width:1;"/><polygon fill="#181818" points="1138.71,198.75,1129.0189,200.5058,1134.5762,201.5627,1133.5192,207.1199,1138.71,198.75" style="stroke:#181818;stroke-width:1;"/><text fill="#000000" font-family="sans-serif" font-size="13" lengthAdjust="spacing" textLength="76.9082" x="1094" y="241.5669">implements</text></g><!--link Feature_User to logic_arc_int__baselibs__utils_base64--><g id="link_Feature_User_logic_arc_int__baselibs__utils_base64"><path codeLine="41" d="M3086.82,45.37 C2863.35,49.77 1853.87,71.07 1028,111.5 C711.69,126.99 632.39,129.82 317,158.5 C311.15,159.03 311.1504,159.0049 305.1304,159.6049 " fill="transparent" id="Feature_User-to-logic_arc_int__baselibs__utils_base64" style="stroke:#181818;stroke-width:1;"/><polygon fill="#181818" points="299.16,160.2,308.5123,163.2877,304.1353,159.7041,307.7189,155.3271,299.16,160.2" style="stroke:#181818;stroke-width:1;"/><text fill="#000000" font-family="sans-serif" font-size="13" lengthAdjust="spacing" textLength="23.0103" x="1029" y="124.5669">use</text></g><!--reverse link logic_arc_int__baselibs__intrusive_list to comp_arc_sta__baselibs__containers--><g id="link_logic_arc_int__baselibs__intrusive_list_comp_arc_sta__baselibs__containers"><path codeLine="42" d="M863.8918,202.1527 C894.8118,223.4427 939.39,254.14 970.24,275.38 " fill="transparent" id="logic_arc_int__baselibs__intrusive_list-backto-comp_arc_sta__baselibs__containers" style="stroke:#181818;stroke-width:1;"/><polygon fill="#181818" points="858.95,198.75,864.0943,207.1486,863.0682,201.5856,868.6312,200.5595,858.95,198.75" style="stroke:#181818;stroke-width:1;"/><text fill="#000000" font-family="sans-serif" font-size="13" lengthAdjust="spacing" textLength="76.9082" x="926" y="241.5669">implements</text></g><!--reverse link logic_arc_int__baselibs__task to comp_arc_sta__baselibs__concurrency--><g id="link_logic_arc_int__baselibs__task_comp_arc_sta__baselibs__concurrency"><path codeLine="43" d="M3998.9688,199.9211 C3908.2688,221.2111 3768.12,254.11 3677.35,275.41 " fill="transparent" id="logic_arc_int__baselibs__task-backto-comp_arc_sta__baselibs__concurrency" style="stroke:#181818;stroke-width:1;"/><polygon fill="#181818" points="4004.81,198.55,3995.1341,196.7125,3999.9423,199.6926,3996.9622,204.5008,4004.81,198.55" style="stroke:#181818;stroke-width:1;"/><text fill="#000000" font-family="sans-serif" font-size="13" lengthAdjust="spacing" textLength="76.9082" x="3872" y="241.5669">implements</text></g><!--reverse link logic_arc_int__baselibs__utils_base64 to comp_arc_sta__baselibs__utils--><g id="link_logic_arc_int__baselibs__utils_base64_comp_arc_sta__baselibs__utils"><path codeLine="44" d="M186.4201,202.1113 C217.9001,223.4013 263.34,254.14 294.74,275.38 " fill="transparent" id="logic_arc_int__baselibs__utils_base64-backto-comp_arc_sta__baselibs__utils" style="stroke:#181818;stroke-width:1;"/><polygon fill="#181818" points="181.45,198.75,186.6643,207.1053,185.5917,201.5511,191.146,200.4785,181.45,198.75" style="stroke:#181818;stroke-width:1;"/><text fill="#000000" font-family="sans-serif" font-size="13" lengthAdjust="spacing" textLength="76.9082" x="250" y="241.5669">implements</text></g><!--link Feature_User to logic_arc_int__baselibs__promise--><g id="link_Feature_User_logic_arc_int__baselibs__promise"><path codeLine="45" d="M3177.12,48.86 C3326.1,63.34 3815.81,111.56 4220,158.5 C4225.96,159.19 4226.093,159.1932 4232.243,159.9332 " fill="transparent" id="Feature_User-to-logic_arc_int__baselibs__promise" style="stroke:#181818;stroke-width:1;"/><polygon fill="#181818" points="4238.2,160.65,4229.7423,155.6035,4233.2358,160.0527,4228.7866,163.5462,4238.2,160.65" style="stroke:#181818;stroke-width:1;"/><text fill="#000000" font-family="sans-serif" font-size="13" lengthAdjust="spacing" textLength="23.0103" x="3953" y="124.5669">use</text></g><!--link Feature_User to logic_arc_int__baselibs__task--><g id="link_Feature_User_logic_arc_int__baselibs__task"><path codeLine="46" d="M3177.28,50.78 C3301.15,67.96 3655.99,117.21 3951,158.5 C3956.86,159.32 3956.9182,159.3266 3962.9782,160.1766 " fill="transparent" id="Feature_User-to-logic_arc_int__baselibs__task" style="stroke:#181818;stroke-width:1;"/><polygon fill="#181818" points="3968.92,161.01,3960.5629,155.7986,3963.9685,160.3155,3959.4516,163.7211,3968.92,161.01" style="stroke:#181818;stroke-width:1;"/><text fill="#000000" font-family="sans-serif" font-size="13" lengthAdjust="spacing" textLength="23.0103" x="3728" y="124.5669">use</text></g><!--link Feature_User to logic_arc_int__baselibs__message_passing--><g id="link_Feature_User_logic_arc_int__baselibs__message_passing"><path codeLine="47" d="M3177.29,45.7 C3376.66,51.07 4196.05,74.4 4868,111.5 C5158.97,127.57 5231.68,133.25 5522,158.5 C5529.2,159.13 5530.565,159.2432 5537.995,159.9232 " fill="transparent" id="Feature_User-to-logic_arc_int__baselibs__message_passing" style="stroke:#181818;stroke-width:1;"/><polygon fill="#181818" points="5543.97,160.47,5535.372,155.6664,5538.9908,160.0143,5534.6429,163.6331,5543.97,160.47" style="stroke:#181818;stroke-width:1;"/><text fill="#000000" font-family="sans-serif" font-size="13" lengthAdjust="spacing" textLength="23.0103" x="5153" y="124.5669">use</text></g><!--reverse link logic_arc_int__baselibs__bit_mask_operator to comp_arc_sta__baselibs__bit_manipulation--><g id="link_logic_arc_int__baselibs__bit_mask_operator_comp_arc_sta__baselibs__bit_manipulation"><path codeLine="48" d="M2114.8632,201.2213 C2070.6532,222.4913 2005.07,254.05 1960.83,275.34 " fill="transparent" id="logic_arc_int__baselibs__bit_mask_operator-backto-comp_arc_sta__baselibs__bit_manipulation" style="stroke:#181818;stroke-width:1;"/><polygon fill="#181818" points="2120.27,198.62,2110.4256,198.9174,2115.7643,200.7877,2113.894,206.1264,2120.27,198.62" style="stroke:#181818;stroke-width:1;"/><text fill="#000000" font-family="sans-serif" font-size="13" lengthAdjust="spacing" textLength="76.9082" x="2056" y="241.5669">implements</text></g><!--link Feature_User to logic_arc_int__baselibs__future--><g id="link_Feature_User_logic_arc_int__baselibs__future"><path codeLine="49" d="M3177.01,53.33 C3285.63,74.64 3558.2123,128.1048 3706.9823,157.2948 " fill="transparent" id="Feature_User-to-logic_arc_int__baselibs__future" style="stroke:#181818;stroke-width:1;"/><polygon fill="#181818" points="3712.87,158.45,3704.8085,152.792,3707.9636,157.4873,3703.2682,160.6423,3712.87,158.45" style="stroke:#181818;stroke-width:1;"/><text fill="#000000" font-family="sans-serif" font-size="13" lengthAdjust="spacing" textLength="23.0103" x="3553" y="124.5669">use</text></g><!--reverse link logic_arc_int__baselibs__condition_variable to comp_arc_sta__baselibs__concurrency--><g id="link_logic_arc_int__baselibs__condition_variable_comp_arc_sta__baselibs__concurrency"><path codeLine="50" d="M3507.7467,203.0672 C3528.2367,224.2972 3556.85,253.94 3577.36,275.19 " fill="transparent" id="logic_arc_int__baselibs__condition_variable-backto-comp_arc_sta__baselibs__concurrency" style="stroke:#181818;stroke-width:1;"/><polygon fill="#181818" points="3503.58,198.75,3506.952,208.0036,3507.0523,202.3477,3512.7082,202.448,3503.58,198.75" style="stroke:#181818;stroke-width:1;"/><text fill="#000000" font-family="sans-serif" font-size="13" lengthAdjust="spacing" textLength="76.9082" x="3549" y="241.5669">implements</text></g><!--link Feature_User to logic_arc_int__baselibs__dynamic_array--><g id="link_Feature_User_logic_arc_int__baselibs__dynamic_array"><path codeLine="51" d="M3086.85,46.29 C2883.6,54.57 2033.09,91.64 1338,158.5 C1332.5,159.03 1332.8697,158.9777 1327.2197,159.5477 " fill="transparent" id="Feature_User-to-logic_arc_int__baselibs__dynamic_array" style="stroke:#181818;stroke-width:1;"/><polygon fill="#181818" points="1321.25,160.15,1330.606,163.2264,1326.2247,159.6481,1329.803,155.2668,1321.25,160.15" style="stroke:#181818;stroke-width:1;"/><text fill="#000000" font-family="sans-serif" font-size="13" lengthAdjust="spacing" textLength="23.0103" x="1881" y="124.5669">use</text></g><!--reverse link logic_arc_int__baselibs__utils_scoped_op to comp_arc_sta__baselibs__utils--><g id="link_logic_arc_int__baselibs__utils_scoped_op_comp_arc_sta__baselibs__utils"><path codeLine="52" d="M458.7494,202.1252 C427.4594,223.4152 382.31,254.14 351.1,275.38 " fill="transparent" id="logic_arc_int__baselibs__utils_scoped_op-backto-comp_arc_sta__baselibs__utils" style="stroke:#181818;stroke-width:1;"/><polygon fill="#181818" points="463.71,198.75,454.0189,200.5058,459.5762,201.5627,458.5192,207.1199,463.71,198.75" style="stroke:#181818;stroke-width:1;"/><text fill="#000000" font-family="sans-serif" font-size="13" lengthAdjust="spacing" textLength="76.9082" x="419" y="241.5669">implements</text></g><!--SRC=[hLPDRzGm4BtxLrYzRq48SQYgNf0uzGXdQ-9CTuVw8tZ6fG7ntt6o2zqDsyq7EJePFx_tPiPZS2v-DvwUAMoLn4PBr5KKYLxNbD0AnQ1sLADcmOHHsWRtQ_IDj1f44bLPaDKjI-lmJbq3awlqJtLF0Jz65vDEMFUhppkoZm6PzRlhj-gNkdrpsAF0Iecx-eGWEQ7-mfYkDB0-V33T1wsKZRunaAnX0MCgO7HKiJ4Fv93RGj7hJTxSQHUtPFj02d8-y4QJRnnw3C9QdPopgIz12F2ZISZPoOtEZBCsSnliBiL0Fx0stp9cF62yfip6O7DA66mx8kqSzB74rqweI8o7G4rsqALxv9XX-68Viv1ZmpOsXMziHdpmfMfWYwO1vbAh8oG7qTECyEXZQWtleDJhw057iOij-DVBkVLKogEcRgjvWaHGEPoFCT0oT_jNNa9ySGFrBCr3xZQirZj_uAQKIQTt16vloSAYACkKcPxGEE853k4psbnkq_KkbbFBftWq7VpaDbqN-iM8ARXx3YEGvuZExlSYkDnv2LvoD0FYU82jbDycHKyyFRC2PPGd7a6jsm2-_vMW_SyXqQq_l1yNF8tPiC7MB-XfcBss4RHJ_GjD_9lWkSMsrp9_dWo6xyMqBNf-dBJGGbTM7Y7d9l52PeFMkKXmUX4TlRIEUVq6]--></g></svg>