<svg xmlns="http://www.w3.org/2000/svg" xmlns:xlink="http://www.w3.org/1999/xlink" contentStyleType="text/css" data-diagram-type="CLASS" height="322px" preserveAspectRatio="none" style="width:6199px;height:322px;background:#FFFFFF;" version="1.1" viewBox="0 0 6199 322" width="6199px" zoomAndPan="magnify"><defs/><g><!--entity Feature_User--><g id="elem_Feature_User"><ellipse cx="3080.1685" cy="14" fill="#F1F1F1" rx="8" ry="8" style="stroke:#181818;stroke-width:0.5;"/><path d="M3080.1685,22 L3080.1685,49 M3067.1685,30 L3093.1685,30 M3080.1685,49 L3067.1685,64 M3080.1685,49 L3093.1685,64 " fill="transparent" style="stroke:#181818;stroke-width:0.5;"/><text fill="#000000" font-family="sans-serif" font-size="14" lengthAdjust="spacing" textLength="90.3369" x="3035" y="78.4951">Feature User</text></g><!--class logic_arc_int__baselibs__intrusive_list--><g id="elem_logic_arc_int__baselibs__intrusive_list"><rect fill="#F1F1F1" height="40" id="logic_arc_int__baselibs__intrusive_list" rx="2.5" ry="2.5" style="stroke:#181818;stroke-width:0.5;" width="293.0713" x="4556.5" y="158.5"/><ellipse cx="4571.5" cy="174.5" fill="#ADD1B2" rx="11" ry="11" style="stroke:#181818;stroke-width:1;"/><path d="M4574.4688,180.1406 Q4573.8906,180.4375 4573.25,180.5781 Q4572.6094,180.7344 4571.9063,180.7344 Q4569.4063,180.7344 4568.0781,179.0938 Q4566.7656,177.4375 4566.7656,174.3125 Q4566.7656,171.1875 4568.0781,169.5313 Q4569.4063,167.875 4571.9063,167.875 Q4572.6094,167.875 4573.25,168.0313 Q4573.9063,168.1875 4574.4688,168.4844 L4574.4688,171.2031 Q4573.8438,170.625 4573.25,170.3594 Q4572.6563,170.0781 4572.0313,170.0781 Q4570.6875,170.0781 4570,171.1563 Q4569.3125,172.2188 4569.3125,174.3125 Q4569.3125,176.4063 4570,177.4844 Q4570.6875,178.5469 4572.0313,178.5469 Q4572.6563,178.5469 4573.25,178.2813 Q4573.8438,178 4574.4688,177.4219 L4574.4688,180.1406 Z " fill="#000000"/><text fill="#000000" font-family="sans-serif" font-size="14" lengthAdjust="spacing" textLength="261.0713" x="4585.5" y="179.3467">logic_arc_int__baselibs__intrusive_list</text><line style="stroke:#181818;stroke-width:0.5;" x1="4557.5" x2="4848.5713" y1="190.5" y2="190.5"/></g><!--class comp_arc_sta__baselibs__concurrency--><g id="elem_comp_arc_sta__baselibs__concurrency"><rect fill="#F1F1F1" height="40" id="comp_arc_sta__baselibs__concurrency" rx="2.5" ry="2.5" style="stroke:#181818;stroke-width:0.5;" width="300.2012" x="2753" y="275.5"/><ellipse cx="2768" cy="291.5" fill="#ADD1B2" rx="11" ry="11" style="stroke:#181818;stroke-width:1;"/><path d="M2770.9688,297.1406 Q2770.3906,297.4375 2769.75,297.5781 Q2769.1094,297.7344 2768.4063,297.7344 Q2765.9063,297.7344 2764.5781,296.0938 Q2763.2656,294.4375 2763.2656,291.3125 Q2763.2656,288.1875 2764.5781,286.5313 Q2765.9063,284.875 2768.4063,284.875 Q2769.1094,284.875 2769.75,285.0313 Q2770.4063,285.1875 2770.9688,285.4844 L2770.9688,288.2031 Q2770.3438,287.625 2769.75,287.3594 Q2769.1563,287.0781 2768.5313,287.0781 Q2767.1875,287.0781 2766.5,288.1563 Q2765.8125,289.2188 2765.8125,291.3125 Q2765.8125,293.4063 2766.5,294.4844 Q2767.1875,295.5469 2768.5313,295.5469 Q2769.1563,295.5469 2769.75,295.2813 Q2770.3438,295 2770.9688,294.4219 L2770.9688,297.1406 Z " fill="#000000"/><text fill="#000000" font-family="sans-serif" font-size="14" lengthAdjust="spacing" textLength="268.2012" x="2782" y="296.3467">comp_arc_sta__baselibs__concurrency</text><line style="stroke:#181818;stroke-width:0.5;" x1="2754" x2="3052.2012" y1="307.5" y2="307.5"/></g><!--class logic_arc_int__baselibs__shared_future--><g id="elem_logic_arc_int__baselibs__shared_future"><rect fill="#F1F1F1" height="40" id="logic_arc_int__baselibs__shared_future" rx="2.5" ry="2.5" style="stroke:#181818;stroke-width:0.5;" width="302.0811" x="2343" y="158.5"/><ellipse cx="2358" cy="174.5" fill="#ADD1B2" rx="11" ry="11" style="stroke:#181818;stroke-width:1;"/><path d="M2360.9688,180.1406 Q2360.3906,180.4375 2359.75,180.5781 Q2359.1094,180.7344 2358.4063,180.7344 Q2355.9063,180.7344 2354.5781,179.0938 Q2353.2656,177.4375 2353.2656,174.3125 Q2353.2656,171.1875 2354.5781,169.5313 Q2355.9063,167.875 2358.4063,167.875 Q2359.1094,167.875 2359.75,168.0313 Q2360.4063,168.1875 2360.9688,168.4844 L2360.9688,171.2031 Q2360.3438,170.625 2359.75,170.3594 Q2359.1563,170.0781 2358.5313,170.0781 Q2357.1875,170.0781 2356.5,171.1563 Q2355.8125,172.2188 2355.8125,174.3125 Q2355.8125,176.4063 2356.5,177.4844 Q2357.1875,178.5469 2358.5313,178.5469 Q2359.1563,178.5469 2359.75,178.2813 Q2360.3438,178 2360.9688,177.4219 L2360.9688,180.1406 Z " fill="#000000"/><text fill="#000000" font-family="sans-serif" font-size="14" lengthAdjust="spacing" textLength="270.0811" x="2372" y="179.3467">logic_arc_int__baselibs__shared_future</text><line style="stroke:#181818;stroke-width:0.5;" x1="2344" x2="2644.0811" y1="190.5" y2="190.5"/></g><!--class logic_arc_int__baselibs__task_result--><g id="elem_logic_arc_int__baselibs__task_result"><rect fill="#F1F1F1" height="40" id="logic_arc_int__baselibs__task_result" rx="2.5" ry="2.5" style="stroke:#181818;stroke-width:0.5;" width="280.9307" x="2026.5" y="158.5"/><ellipse cx="2041.5" cy="174.5" fill="#ADD1B2" rx="11" ry="11" style="stroke:#181818;stroke-width:1;"/><path d="M2044.4688,180.1406 Q2043.8906,180.4375 2043.25,180.5781 Q2042.6094,180.7344 2041.9063,180.7344 Q2039.4063,180.7344 2038.0781,179.0938 Q2036.7656,177.4375 2036.7656,174.3125 Q2036.7656,171.1875 2038.0781,169.5313 Q2039.4063,167.875 2041.9063,167.875 Q2042.6094,167.875 2043.25,168.0313 Q2043.9063,168.1875 2044.4688,168.4844 L2044.4688,171.2031 Q2043.8438,170.625 2043.25,170.3594 Q2042.6563,170.0781 2042.0313,170.0781 Q2040.6875,170.0781 2040,171.1563 Q2039.3125,172.2188 2039.3125,174.3125 Q2039.3125,176.4063 2040,177.4844 Q2040.6875,178.5469 2042.0313,178.5469 Q2042.6563,178.5469 2043.25,178.2813 Q2043.8438,178 2044.4688,177.4219 L2044.4688,180.1406 Z " fill="#000000"/><text fill="#000000" font-family="sans-serif" font-size="14" lengthAdjust="spacing" textLength="248.9307" x="2055.5" y="179.3467">logic_arc_int__baselibs__task_result</text><line style="stroke:#181818;stroke-width:0.5;" x1="2027.5" x2="2306.4307" y1="190.5" y2="190.5"/></g><!--class comp_arc_sta__baselibs__containers--><g id="elem_comp_arc_sta__baselibs__containers"><rect fill="#F1F1F1" height="40" id="comp_arc_sta__baselibs__containers" rx="2.5" ry="2.5" style="stroke:#181818;stroke-width:0.5;" width="287.1445" x="4363.5" y="275.5"/><ellipse cx="4378.5" cy="291.5" fill="#ADD1B2" rx="11" ry="11" style="stroke:#181818;stroke-width:1;"/><path d="M4381.4688,297.1406 Q4380.8906,297.4375 4380.25,297.5781 Q4379.6094,297.7344 4378.9063,297.7344 Q4376.4063,297.7344 4375.0781,296.0938 Q4373.7656,294.4375 4373.7656,291.3125 Q4373.7656,288.1875 4375.0781,286.5313 Q4376.4063,284.875 4378.9063,284.875 Q4379.6094,284.875 4380.25,285.0313 Q4380.9063,285.1875 4381.4688,285.4844 L4381.4688,288.2031 Q4380.8438,287.625 4380.25,287.3594 Q4379.6563,287.0781 4379.0313,287.0781 Q4377.6875,287.0781 4377,288.1563 Q4376.3125,289.2188 4376.3125,291.3125 Q4376.3125,293.4063 4377,294.4844 Q4377.6875,295.5469 4379.0313,295.5469 Q4379.6563,295.5469 4380.25,295.2813 Q4380.8438,295 4381.4688,294.4219 L4381.4688,297.1406 Z " fill="#000000"/><text fill="#000000" font-family="sans-serif" font-size="14" lengthAdjust="spacing" textLength="255.1445" x="4392.5" y="296.3467">comp_arc_sta__baselibs__containers</text><line style="stroke:#181818;stroke-width:0.5;" x1="4364.5" x2="4649.6445" y1="307.5" y2="307.5"/></g><!--class logic_arc_int__baselibs__dynamic_array--><g id="elem_logic_arc_int__baselibs__dynamic_array"><rect fill="#F1F1F1" height="40" id="logic_arc_int__baselibs__dynamic_array" rx="2.5" ry="2.5" style="stroke:#181818;stroke-width:0.5;" width="308.3496" x="4213" y="158.5"/><ellipse cx="4228" cy="174.5" fill="#ADD1B2" rx="11" ry="11" style="stroke:#181818;stroke-width:1;"/><path d="M4230.9688,180.1406 Q4230.3906,180.4375 4229.75,180.5781 Q4229.1094,180.7344 4228.4063,180.7344 Q4225.9063,180.7344 4224.5781,179.0938 Q4223.2656,177.4375 4223.2656,174.3125 Q4223.2656,171.1875 4224.5781,169.5313 Q4225.9063,167.875 4228.4063,167.875 Q4229.1094,167.875 4229.75,168.0313 Q4230.4063,168.1875 4230.9688,168.4844 L4230.9688,171.2031 Q4230.3438,170.625 4229.75,170.3594 Q4229.1563,170.0781 4228.5313,170.0781 Q4227.1875,170.0781 4226.5,171.1563 Q4225.8125,172.2188 4225.8125,174.3125 Q4225.8125,176.4063 4226.5,177.4844 Q4227.1875,178.5469 4228.5313,178.5469 Q4229.1563,178.5469 4229.75,178.2813 Q4230.3438,178 4230.9688,177.4219 L4230.9688,180.1406 Z " fill="#000000"/><text fill="#000000" font-family="sans-serif" font-size="14" lengthAdjust="spacing" textLength="276.3496" x="4242" y="179.3467">logic_arc_int__baselibs__dynamic_array</text><line style="stroke:#181818;stroke-width:0.5;" x1="4214" x2="4520.3496" y1="190.5" y2="190.5"/></g><!--class comp_arc_sta__baselibs__utils--><g id="elem_comp_arc_sta__baselibs__utils"><rect fill="#F1F1F1" height="40" id="comp_arc_sta__baselibs__utils" rx="2.5" ry="2.5" style="stroke:#181818;stroke-width:0.5;" width="242.9502" x="5754.5" y="275.5"/><ellipse cx="5769.5" cy="291.5" fill="#ADD1B2" rx="11" ry="11" style="stroke:#181818;stroke-width:1;"/><path d="M5772.4688,297.1406 Q5771.8906,297.4375 5771.25,297.5781 Q5770.6094,297.7344 5769.9063,297.7344 Q5767.4063,297.7344 5766.0781,296.0938 Q5764.7656,294.4375 5764.7656,291.3125 Q5764.7656,288.1875 5766.0781,286.5313 Q5767.4063,284.875 5769.9063,284.875 Q5770.6094,284.875 5771.25,285.0313 Q5771.9063,285.1875 5772.4688,285.4844 L5772.4688,288.2031 Q5771.8438,287.625 5771.25,287.3594 Q5770.6563,287.0781 5770.0313,287.0781 Q5768.6875,287.0781 5768,288.1563 Q5767.3125,289.2188 5767.3125,291.3125 Q5767.3125,293.4063 5768,294.4844 Q5768.6875,295.5469 5770.0313,295.5469 Q5770.6563,295.5469 5771.25,295.2813 Q5771.8438,295 5772.4688,294.4219 L5772.4688,297.1406 Z " fill="#000000"/><text fill="#000000" font-family="sans-serif" font-size="14" lengthAdjust="spacing" textLength="210.9502" x="5783.5" y="296.3467">comp_arc_sta__baselibs__utils</text><line style="stroke:#181818;stroke-width:0.5;" x1="5755.5" x2="5996.4502" y1="307.5" y2="307.5"/></g><!--class logic_arc_int__baselibs__utils_scoped_op--><g id="elem_logic_arc_int__baselibs__utils_scoped_op"><rect fill="#F1F1F1" height="40" id="logic_arc_int__baselibs__utils_scoped_op" rx="2.5" ry="2.5" style="stroke:#181818;stroke-width:0.5;" width="315.377" x="5549.5" y="158.5"/><ellipse cx="5564.5" cy="174.5" fill="#ADD1B2" rx="11" ry="11" style="stroke:#181818;stroke-width:1;"/><path d="M5567.4688,180.1406 Q5566.8906,180.4375 5566.25,180.5781 Q5565.6094,180.7344 5564.9063,180.7344 Q5562.4063,180.7344 5561.0781,179.0938 Q5559.7656,177.4375 5559.7656,174.3125 Q5559.7656,171.1875 5561.0781,169.5313 Q5562.4063,167.875 5564.9063,167.875 Q5565.6094,167.875 5566.25,168.0313 Q5566.9063,168.1875 5567.4688,168.4844 L5567.4688,171.2031 Q5566.8438,170.625 5566.25,170.3594 Q5565.6563,170.0781 5565.0313,170.0781 Q5563.6875,170.0781 5563,171.1563 Q5562.3125,172.2188 5562.3125,174.3125 Q5562.3125,176.4063 5563,177.4844 Q5563.6875,178.5469 5565.0313,178.5469 Q5565.6563,178.5469 5566.25,178.2813 Q5566.8438,178 5567.4688,177.4219 L5567.4688,180.1406 Z " fill="#000000"/><text fill="#000000" font-family="sans-serif" font-size="14" lengthAdjust="spacing" textLength="283.377" x="5578.5" y="179.3467">logic_arc_int__baselibs__utils_scoped_op</text><line style="stroke:#181818;stroke-width:0.5;" x1="5550.5" x2="5863.877" y1="190.5" y2="190.5"/></g><!--class logic_arc_int__baselibs__bit_manipulation--><g id="elem_logic_arc_int__baselibs__bit_manipulation"><rect fill="#F1F1F1" height="40" id="logic_arc_int__baselibs__bit_manipulation" rx="2.5" ry="2.5" style="stroke:#181818;stroke-width:0.5;" width="321.8369" x="931" y="158.5"/><ellipse cx="946" cy="174.5" fill="#ADD1B2" rx="11" ry="11" style="stroke:#181818;stroke-width:1;"/><path d="M948.9688,180.1406 Q948.3906,180.4375 947.75,180.5781 Q947.1094,180.7344 946.4063,180.7344 Q943.9063,180.7344 942.5781,179.0938 Q941.2656,177.4375 941.2656,174.3125 Q941.2656,171.1875 942.5781,169.5313 Q943.9063,167.875 946.4063,167.875 Q947.1094,167.875 947.75,168.0313 Q948.4063,168.1875 948.9688,168.4844 L948.9688,171.2031 Q948.3438,170.625 947.75,170.3594 Q947.1563,170.0781 946.5313,170.0781 Q945.1875,170.0781 944.5,171.1563 Q943.8125,172.2188 943.8125,174.3125 Q943.8125,176.4063 944.5,177.4844 Q945.1875,178.5469 946.5313,178.5469 Q947.1563,178.5469 947.75,178.2813 Q948.3438,178 948.9688,177.4219 L948.9688,180.1406 Z " fill="#000000"/><text fill="#000000" font-family="sans-serif" font-size="14" lengthAdjust="spacing" textLength="289.8369" x="960" y="179.3467">logic_arc_int__baselibs__bit_manipulation</text><line style="stroke:#181818;stroke-width:0.5;" x1="932" x2="1251.8369" y1="190.5" y2="190.5"/></g><!--class logic_arc_int__baselibs__promise--><g id="elem_logic_arc_int__baselibs__promise"><rect fill="#F1F1F1" height="40" id="logic_arc_int__baselibs__promise" rx="2.5" ry="2.5" style="stroke:#181818;stroke-width:0.5;" width="261.1885" x="3615.5" y="158.5"/><ellipse cx="3630.5" cy="174.5" fill="#ADD1B2" rx="11" ry="11" style="stroke:#181818;stroke-width:1;"/><path d="M3633.4688,180.1406 Q3632.8906,180.4375 3632.25,180.5781 Q3631.6094,180.7344 3630.9063,180.7344 Q3628.4063,180.7344 3627.0781,179.0938 Q3625.7656,177.4375 3625.7656,174.3125 Q3625.7656,171.1875 3627.0781,169.5313 Q3628.4063,167.875 3630.9063,167.875 Q3631.6094,167.875 3632.25,168.0313 Q3632.9063,168.1875 3633.4688,168.4844 L3633.4688,171.2031 Q3632.8438,170.625 3632.25,170.3594 Q3631.6563,170.0781 3631.0313,170.0781 Q3629.6875,170.0781 3629,171.1563 Q3628.3125,172.2188 3628.3125,174.3125 Q3628.3125,176.4063 3629,177.4844 Q3629.6875,178.5469 3631.0313,178.5469 Q3631.6563,178.5469 3632.25,178.2813 Q3632.8438,178 3633.4688,177.4219 L3633.4688,180.1406 Z " fill="#000000"/><text fill="#000000" font-family="sans-serif" font-size="14" lengthAdjust="spacing" textLength="229.1885" x="3644.5" y="179.3467">logic_arc_int__baselibs__promise</text><line style="stroke:#181818;stroke-width:0.5;" x1="3616.5" x2="3875.6885" y1="190.5" y2="190.5"/></g><!--class comp_arc_sta__baselibs__memory_shared--><g id="elem_comp_arc_sta__baselibs__memory_shared"><rect fill="#F1F1F1" height="40" id="comp_arc_sta__baselibs__memory_shared" rx="2.5" ry="2.5" style="stroke:#181818;stroke-width:0.5;" width="327.0117" x="5195.5" y="275.5"/><ellipse cx="5210.5" cy="291.5" fill="#ADD1B2" rx="11" ry="11" style="stroke:#181818;stroke-width:1;"/><path d="M5213.4688,297.1406 Q5212.8906,297.4375 5212.25,297.5781 Q5211.6094,297.7344 5210.9063,297.7344 Q5208.4063,297.7344 5207.0781,296.0938 Q5205.7656,294.4375 5205.7656,291.3125 Q5205.7656,288.1875 5207.0781,286.5313 Q5208.4063,284.875 5210.9063,284.875 Q5211.6094,284.875 5212.25,285.0313 Q5212.9063,285.1875 5213.4688,285.4844 L5213.4688,288.2031 Q5212.8438,287.625 5212.25,287.3594 Q5211.6563,287.0781 5211.0313,287.0781 Q5209.6875,287.0781 5209,288.1563 Q5208.3125,289.2188 5208.3125,291.3125 Q5208.3125,293.4063 5209,294.4844 Q5209.6875,295.5469 5211.0313,295.5469 Q5211.6563,295.5469 5212.25,295.2813 Q5212.8438,295 5213.4688,294.4219 L5213.4688,297.1406 Z " fill="#000000"/><text fill="#000000" font-family="sans-serif" font-size="14" lengthAdjust="spacing" textLength="295.0117" x="5224.5" y="296.3467">comp_arc_sta__baselibs__memory_shared</text><line style="stroke:#181818;stroke-width:0.5;" x1="5196.5" x2="5521.5117" y1="307.5" y2="307.5"/></g><!--class logic_arc_int__baselibs__memory_shared--><g id="elem_logic_arc_int__baselibs__memory_shared"><rect fill="#F1F1F1" height="40" id="logic_arc_int__baselibs__memory_shared" rx="2.5" ry="2.5" style="stroke:#181818;stroke-width:0.5;" width="318.043" x="5196" y="158.5"/><ellipse cx="5211" cy="174.5" fill="#ADD1B2" rx="11" ry="11" style="stroke:#181818;stroke-width:1;"/><path d="M5213.9688,180.1406 Q5213.3906,180.4375 5212.75,180.5781 Q5212.1094,180.7344 5211.4063,180.7344 Q5208.9063,180.7344 5207.5781,179.0938 Q5206.2656,177.4375 5206.2656,174.3125 Q5206.2656,171.1875 5207.5781,169.5313 Q5208.9063,167.875 5211.4063,167.875 Q5212.1094,167.875 5212.75,168.0313 Q5213.4063,168.1875 5213.9688,168.4844 L5213.9688,171.2031 Q5213.3438,170.625 5212.75,170.3594 Q5212.1563,170.0781 5211.5313,170.0781 Q5210.1875,170.0781 5209.5,171.1563 Q5208.8125,172.2188 5208.8125,174.3125 Q5208.8125,176.4063 5209.5,177.4844 Q5210.1875,178.5469 5211.5313,178.5469 Q5212.1563,178.5469 5212.75,178.2813 Q5213.3438,178 5213.9688,177.4219 L5213.9688,180.1406 Z " fill="#000000"/><text fill="#000000" font-family="sans-serif" font-size="14" lengthAdjust="spacing" textLength="286.043" x="5225" y="179.3467">logic_arc_int__baselibs__memory_shared</text><line style="stroke:#181818;stroke-width:0.5;" x1="5197" x2="5513.043" y1="190.5" y2="190.5"/></g><!--class logic_arc_int__baselibs__utils_base64--><g id="elem_logic_arc_int__baselibs__utils_base64"><rect fill="#F1F1F1" height="40" id="logic_arc_int__baselibs__utils_base64" rx="2.5" ry="2.5" style="stroke:#181818;stroke-width:0.5;" width="292.1689" x="5900" y="158.5"/><ellipse cx="5915" cy="174.5" fill="#ADD1B2" rx="11" ry="11" style="stroke:#181818;stroke-width:1;"/><path d="M5917.9688,180.1406 Q5917.3906,180.4375 5916.75,180.5781 Q5916.1094,180.7344 5915.4063,180.7344 Q5912.9063,180.7344 5911.5781,179.0938 Q5910.2656,177.4375 5910.2656,174.3125 Q5910.2656,171.1875 5911.5781,169.5313 Q5912.9063,167.875 5915.4063,167.875 Q5916.1094,167.875 5916.75,168.0313 Q5917.4063,168.1875 5917.9688,168.4844 L5917.9688,171.2031 Q5917.3438,170.625 5916.75,170.3594 Q5916.1563,170.0781 5915.5313,170.0781 Q5914.1875,170.0781 5913.5,171.1563 Q5912.8125,172.2188 5912.8125,174.3125 Q5912.8125,176.4063 5913.5,177.4844 Q5914.1875,178.5469 5915.5313,178.5469 Q5916.1563,178.5469 5916.75,178.2813 Q5917.3438,178 5917.9688,177.4219 L5917.9688,180.1406 Z " fill="#000000"/><text fill="#000000" font-family="sans-serif" font-size="14" lengthAdjust="spacing" textLength="260.1689" x="5929" y="179.3467">logic_arc_int__baselibs__utils_base64</text><line style="stroke:#181818;stroke-width:0.5;" x1="5901" x2="6191.1689" y1="190.5" y2="190.5"/></g><!--class comp_arc_sta__baselibs__filesystem--><g id="elem_comp_arc_sta__baselibs__filesystem"><rect fill="#F1F1F1" height="40" id="comp_arc_sta__baselibs__filesystem" rx="2.5" ry="2.5" style="stroke:#181818;stroke-width:0.5;" width="285.4492" x="4875.5" y="275.5"/><ellipse cx="4890.5" cy="291.5" fill="#ADD1B2" rx="11" ry="11" style="stroke:#181818;stroke-width:1;"/><path d="M4893.4688,297.1406 Q4892.8906,297.4375 4892.25,297.5781 Q4891.6094,297.7344 4890.9063,297.7344 Q4888.4063,297.7344 4887.0781,296.0938 Q4885.7656,294.4375 4885.7656,291.3125 Q4885.7656,288.1875 4887.0781,286.5313 Q4888.4063,284.875 4890.9063,284.875 Q4891.6094,284.875 4892.25,285.0313 Q4892.9063,285.1875 4893.4688,285.4844 L4893.4688,288.2031 Q4892.8438,287.625 4892.25,287.3594 Q4891.6563,287.0781 4891.0313,287.0781 Q4889.6875,287.0781 4889,288.1563 Q4888.3125,289.2188 4888.3125,291.3125 Q4888.3125,293.4063 4889,294.4844 Q4889.6875,295.5469 4891.0313,295.5469 Q4891.6563,295.5469 4892.25,295.2813 Q4892.8438,295 4893.4688,294.4219 L4893.4688,297.1406 Z " fill="#000000"/><text fill="#000000" font-family="sans-serif" font-size="14" lengthAdjust="spacing" textLength="253.4492" x="4904.5" y="296.3467">comp_arc_sta__baselibs__filesystem</text><line style="stroke:#181818;stroke-width:0.5;" x1="4876.5" x2="5159.9492" y1="307.5" y2="307.5"/></g><!--class logic_arc_int__baselibs__filesystem--><g id="elem_logic_arc_int__baselibs__filesystem"><rect fill="#F1F1F1" height="40" id="logic_arc_int__baselibs__filesystem" rx="2.5" ry="2.5" style="stroke:#181818;stroke-width:0.5;" width="276.4805" x="4885" y="158.5"/><ellipse cx="4900" cy="174.5" fill="#ADD1B2" rx="11" ry="11" style="stroke:#181818;stroke-width:1;"/><path d="M4902.9688,180.1406 Q4902.3906,180.4375 4901.75,180.5781 Q4901.1094,180.7344 4900.4063,180.7344 Q4897.9063,180.7344 4896.5781,179.0938 Q4895.2656,177.4375 4895.2656,174.3125 Q4895.2656,171.1875 4896.5781,169.5313 Q4897.9063,167.875 4900.4063,167.875 Q4901.1094,167.875 4901.75,168.0313 Q4902.4063,168.1875 4902.9688,168.4844 L4902.9688,171.2031 Q4902.3438,170.625 4901.75,170.3594 Q4901.1563,170.0781 4900.5313,170.0781 Q4899.1875,170.0781 4898.5,171.1563 Q4897.8125,172.2188 4897.8125,174.3125 Q4897.8125,176.4063 4898.5,177.4844 Q4899.1875,178.5469 4900.5313,178.5469 Q4901.1563,178.5469 4901.75,178.2813 Q4902.3438,178 4902.9688,177.4219 L4902.9688,180.1406 Z " fill="#000000"/><text fill="#000000" font-family="sans-serif" font-size="14" lengthAdjust="spacing" textLength="244.4805" x="4914" y="179.3467">logic_arc_int__baselibs__filesystem</text><line style="stroke:#181818;stroke-width:0.5;" x1="4886" x2="5160.4805" y1="190.5" y2="190.5"/></g><!--class logic_arc_int__baselibs__future--><g id="elem_logic_arc_int__baselibs__future"><rect fill="#F1F1F1" height="40" id="logic_arc_int__baselibs__future" rx="2.5" ry="2.5" style="stroke:#181818;stroke-width:0.5;" width="247.0791" x="2680.5" y="158.5"/><ellipse cx="2695.5" cy="174.5" fill="#ADD1B2" rx="11" ry="11" style="stroke:#181818;stroke-width:1;"/><path d="M2698.4688,180.1406 Q2697.8906,180.4375 2697.25,180.5781 Q2696.6094,180.7344 2695.9063,180.7344 Q2693.4063,180.7344 2692.0781,179.0938 Q2690.7656,177.4375 2690.7656,174.3125 Q2690.7656,171.1875 2692.0781,169.5313 Q2693.4063,167.875 2695.9063,167.875 Q2696.6094,167.875 2697.25,168.0313 Q2697.9063,168.1875 2698.4688,168.4844 L2698.4688,171.2031 Q2697.8438,170.625 2697.25,170.3594 Q2696.6563,170.0781 2696.0313,170.0781 Q2694.6875,170.0781 2694,171.1563 Q2693.3125,172.2188 2693.3125,174.3125 Q2693.3125,176.4063 2694,177.4844 Q2694.6875,178.5469 2696.0313,178.5469 Q2696.6563,178.5469 2697.25,178.2813 Q2697.8438,178 2698.4688,177.4219 L2698.4688,180.1406 Z " fill="#000000"/><text fill="#000000" font-family="sans-serif" font-size="14" lengthAdjust="spacing" textLength="215.0791" x="2709.5" y="179.3467">logic_arc_int__baselibs__future</text><line style="stroke:#181818;stroke-width:0.5;" x1="2681.5" x2="2926.5791" y1="190.5" y2="190.5"/></g><!--class logic_arc_int__baselibs__task--><g id="elem_logic_arc_int__baselibs__task"><rect fill="#F1F1F1" height="40" id="logic_arc_int__baselibs__task" rx="2.5" ry="2.5" style="stroke:#181818;stroke-width:0.5;" width="234.0156" x="2963" y="158.5"/><ellipse cx="2978" cy="174.5" fill="#ADD1B2" rx="11" ry="11" style="stroke:#181818;stroke-width:1;"/><path d="M2980.9688,180.1406 Q2980.3906,180.4375 2979.75,180.5781 Q2979.1094,180.7344 2978.4063,180.7344 Q2975.9063,180.7344 2974.5781,179.0938 Q2973.2656,177.4375 2973.2656,174.3125 Q2973.2656,171.1875 2974.5781,169.5313 Q2975.9063,167.875 2978.4063,167.875 Q2979.1094,167.875 2979.75,168.0313 Q2980.4063,168.1875 2980.9688,168.4844 L2980.9688,171.2031 Q2980.3438,170.625 2979.75,170.3594 Q2979.1563,170.0781 2978.5313,170.0781 Q2977.1875,170.0781 2976.5,171.1563 Q2975.8125,172.2188 2975.8125,174.3125 Q2975.8125,176.4063 2976.5,177.4844 Q2977.1875,178.5469 2978.5313,178.5469 Q2979.1563,178.5469 2979.75,178.2813 Q2980.3438,178 2980.9688,177.4219 L2980.9688,180.1406 Z " fill="#000000"/><text fill="#000000" font-family="sans-serif" font-size="14" lengthAdjust="spacing" textLength="202.0156" x="2992" y="179.3467">logic_arc_int__baselibs__task</text><line style="stroke:#181818;stroke-width:0.5;" x1="2964" x2="3196.0156" y1="190.5" y2="190.5"/></g><!--class logic_arc_int__baselibs__condition_variable--><g id="elem_logic_arc_int__baselibs__condition_variable"><rect fill="#F1F1F1" height="40" id="logic_arc_int__baselibs__condition_variable" rx="2.5" ry="2.5" style="stroke:#181818;stroke-width:0.5;" width="332.7539" x="1658.5" y="158.5"/><ellipse cx="1673.5" cy="174.5" fill="#ADD1B2" rx="11" ry="11" style="stroke:#181818;stroke-width:1;"/><path d="M1676.4688,180.1406 Q1675.8906,180.4375 1675.25,180.5781 Q1674.6094,180.7344 1673.9063,180.7344 Q1671.4063,180.7344 1670.0781,179.0938 Q1668.7656,177.4375 1668.7656,174.3125 Q1668.7656,171.1875 1670.0781,169.5313 Q1671.4063,167.875 1673.9063,167.875 Q1674.6094,167.875 1675.25,168.0313 Q1675.9063,168.1875 1676.4688,168.4844 L1676.4688,171.2031 Q1675.8438,170.625 1675.25,170.3594 Q1674.6563,170.0781 1674.0313,170.0781 Q1672.6875,170.0781 1672,171.1563 Q1671.3125,172.2188 1671.3125,174.3125 Q1671.3125,176.4063 1672,177.4844 Q1672.6875,178.5469 1674.0313,178.5469 Q1674.6563,178.5469 1675.25,178.2813 Q1675.8438,178 1676.4688,177.4219 L1676.4688,180.1406 Z " fill="#000000"/><text fill="#000000" font-family="sans-serif" font-size="14" lengthAdjust="spacing" textLength="300.7539" x="1687.5" y="179.3467">logic_arc_int__baselibs__condition_variable</text><line style="stroke:#181818;stroke-width:0.5;" x1="1659.5" x2="1990.2539" y1="190.5" y2="190.5"/></g><!--class logic_arc_int__baselibs__executor--><g id="elem_logic_arc_int__baselibs__executor"><rect fill="#F1F1F1" height="40" id="logic_arc_int__baselibs__executor" rx="2.5" ry="2.5" style="stroke:#181818;stroke-width:0.5;" width="266.4385" x="3912" y="158.5"/><ellipse cx="3927" cy="174.5" fill="#ADD1B2" rx="11" ry="11" style="stroke:#181818;stroke-width:1;"/><path d="M3929.9688,180.1406 Q3929.3906,180.4375 3928.75,180.5781 Q3928.1094,180.7344 3927.4063,180.7344 Q3924.9063,180.7344 3923.5781,179.0938 Q3922.2656,177.4375 3922.2656,174.3125 Q3922.2656,171.1875 3923.5781,169.5313 Q3924.9063,167.875 3927.4063,167.875 Q3928.1094,167.875 3928.75,168.0313 Q3929.4063,168.1875 3929.9688,168.4844 L3929.9688,171.2031 Q3929.3438,170.625 3928.75,170.3594 Q3928.1563,170.0781 3927.5313,170.0781 Q3926.1875,170.0781 3925.5,171.1563 Q3924.8125,172.2188 3924.8125,174.3125 Q3924.8125,176.4063 3925.5,177.4844 Q3926.1875,178.5469 3927.5313,178.5469 Q3928.1563,178.5469 3928.75,178.2813 Q3929.3438,178 3929.9688,177.4219 L3929.9688,180.1406 Z " fill="#000000"/><text fill="#000000" font-family="sans-serif" font-size="14" lengthAdjust="spacing" textLength="234.4385" x="3941" y="179.3467">logic_arc_int__baselibs__executor</text><line style="stroke:#181818;stroke-width:0.5;" x1="3913" x2="4177.4385" y1="190.5" y2="190.5"/></g><!--class logic_arc_int__baselibs__synchronized_queue--><g id="elem_logic_arc_int__baselibs__synchronized_queue"><rect fill="#F1F1F1" height="40" id="logic_arc_int__baselibs__synchronized_queue" rx="2.5" ry="2.5" style="stroke:#181818;stroke-width:0.5;" width="348.3604" x="3232" y="158.5"/><ellipse cx="3247" cy="174.5" fill="#ADD1B2" rx="11" ry="11" style="stroke:#181818;stroke-width:1;"/><path d="M3249.9688,180.1406 Q3249.3906,180.4375 3248.75,180.5781 Q3248.1094,180.7344 3247.4063,180.7344 Q3244.9063,180.7344 3243.5781,179.0938 Q3242.2656,177.4375 3242.2656,174.3125 Q3242.2656,171.1875 3243.5781,169.5313 Q3244.9063,167.875 3247.4063,167.875 Q3248.1094,167.875 3248.75,168.0313 Q3249.4063,168.1875 3249.9688,168.4844 L3249.9688,171.2031 Q3249.3438,170.625 3248.75,170.3594 Q3248.1563,170.0781 3247.5313,170.0781 Q3246.1875,170.0781 3245.5,171.1563 Q3244.8125,172.2188 3244.8125,174.3125 Q3244.8125,176.4063 3245.5,177.4844 Q3246.1875,178.5469 3247.5313,178.5469 Q3248.1563,178.5469 3248.75,178.2813 Q3249.3438,178 3249.9688,177.4219 L3249.9688,180.1406 Z " fill="#000000"/><text fill="#000000" font-family="sans-serif" font-size="14" lengthAdjust="spacing" textLength="316.3604" x="3261" y="179.3467">logic_arc_int__baselibs__synchronized_queue</text><line style="stroke:#181818;stroke-width:0.5;" x1="3233" x2="3579.3604" y1="190.5" y2="190.5"/></g><!--class logic_arc_int__baselibs__bit_mask_operator--><g id="elem_logic_arc_int__baselibs__bit_mask_operator"><rect fill="#F1F1F1" height="40" id="logic_arc_int__baselibs__bit_mask_operator" rx="2.5" ry="2.5" style="stroke:#181818;stroke-width:0.5;" width="334.6406" x="1288.5" y="158.5"/><ellipse cx="1303.5" cy="174.5" fill="#ADD1B2" rx="11" ry="11" style="stroke:#181818;stroke-width:1;"/><path d="M1306.4688,180.1406 Q1305.8906,180.4375 1305.25,180.5781 Q1304.6094,180.7344 1303.9063,180.7344 Q1301.4063,180.7344 1300.0781,179.0938 Q1298.7656,177.4375 1298.7656,174.3125 Q1298.7656,171.1875 1300.0781,169.5313 Q1301.4063,167.875 1303.9063,167.875 Q1304.6094,167.875 1305.25,168.0313 Q1305.9063,168.1875 1306.4688,168.4844 L1306.4688,171.2031 Q1305.8438,170.625 1305.25,170.3594 Q1304.6563,170.0781 1304.0313,170.0781 Q1302.6875,170.0781 1302,171.1563 Q1301.3125,172.2188 1301.3125,174.3125 Q1301.3125,176.4063 1302,177.4844 Q1302.6875,178.5469 1304.0313,178.5469 Q1304.6563,178.5469 1305.25,178.2813 Q1305.8438,178 1306.4688,177.4219 L1306.4688,180.1406 Z " fill="#000000"/><text fill="#000000" font-family="sans-serif" font-size="14" lengthAdjust="spacing" textLength="302.6406" x="1317.5" y="179.3467">logic_arc_int__baselibs__bit_mask_operator</text><line style="stroke:#181818;stroke-width:0.5;" x1="1289.5" x2="1622.1406" y1="190.5" y2="190.5"/></g><!--class comp_arc_sta__baselibs__bit_manipulation--><g id="elem_comp_arc_sta__baselibs__bit_manipulation"><rect fill="#F1F1F1" height="40" id="comp_arc_sta__baselibs__bit_manipulation" rx="2.5" ry="2.5" style="stroke:#181818;stroke-width:0.5;" width="330.8057" x="1077.5" y="275.5"/><ellipse cx="1092.5" cy="291.5" fill="#ADD1B2" rx="11" ry="11" style="stroke:#181818;stroke-width:1;"/><path d="M1095.4688,297.1406 Q1094.8906,297.4375 1094.25,297.5781 Q1093.6094,297.7344 1092.9063,297.7344 Q1090.4063,297.7344 1089.0781,296.0938 Q1087.7656,294.4375 1087.7656,291.3125 Q1087.7656,288.1875 1089.0781,286.5313 Q1090.4063,284.875 1092.9063,284.875 Q1093.6094,284.875 1094.25,285.0313 Q1094.9063,285.1875 1095.4688,285.4844 L1095.4688,288.2031 Q1094.8438,287.625 1094.25,287.3594 Q1093.6563,287.0781 1093.0313,287.0781 Q1091.6875,287.0781 1091,288.1563 Q1090.3125,289.2188 1090.3125,291.3125 Q1090.3125,293.4063 1091,294.4844 Q1091.6875,295.5469 1093.0313,295.5469 Q1093.6563,295.5469 1094.25,295.2813 Q1094.8438,295 1095.4688,294.4219 L1095.4688,297.1406 Z " fill="#000000"/><text fill="#000000" font-family="sans-serif" font-size="14" lengthAdjust="spacing" textLength="298.8057" x="1106.5" y="296.3467">comp_arc_sta__baselibs__bit_manipulation</text><line style="stroke:#181818;stroke-width:0.5;" x1="1078.5" x2="1407.3057" y1="307.5" y2="307.5"/></g><!--class comp_arc_sta__baselibs__message_passing--><g id="elem_comp_arc_sta__baselibs__message_passing"><rect fill="#F1F1F1" height="40" id="comp_arc_sta__baselibs__message_passing" rx="2.5" ry="2.5" style="stroke:#181818;stroke-width:0.5;" width="337.1357" x="572.5" y="275.5"/><ellipse cx="587.5" cy="291.5" fill="#ADD1B2" rx="11" ry="11" style="stroke:#181818;stroke-width:1;"/><path d="M590.4688,297.1406 Q589.8906,297.4375 589.25,297.5781 Q588.6094,297.7344 587.9063,297.7344 Q585.4063,297.7344 584.0781,296.0938 Q582.7656,294.4375 582.7656,291.3125 Q582.7656,288.1875 584.0781,286.5313 Q585.4063,284.875 587.9063,284.875 Q588.6094,284.875 589.25,285.0313 Q589.9063,285.1875 590.4688,285.4844 L590.4688,288.2031 Q589.8438,287.625 589.25,287.3594 Q588.6563,287.0781 588.0313,287.0781 Q586.6875,287.0781 586,288.1563 Q585.3125,289.2188 585.3125,291.3125 Q585.3125,293.4063 586,294.4844 Q586.6875,295.5469 588.0313,295.5469 Q588.6563,295.5469 589.25,295.2813 Q589.8438,295 590.4688,294.4219 L590.4688,297.1406 Z " fill="#000000"/><text fill="#000000" font-family="sans-serif" font-size="14" lengthAdjust="spacing" textLength="305.1357" x="601.5" y="296.3467">comp_arc_sta__baselibs__message_passing</text><line style="stroke:#181818;stroke-width:0.5;" x1="573.5" x2="908.6357" y1="307.5" y2="307.5"/></g><!--class logic_arc_int__baselibs__message_passing--><g id="elem_logic_arc_int__baselibs__message_passing"><rect fill="#F1F1F1" height="40" id="logic_arc_int__baselibs__message_passing" rx="2.5" ry="2.5" style="stroke:#181818;stroke-width:0.5;" width="328.167" x="568" y="158.5"/><ellipse cx="583" cy="174.5" fill="#ADD1B2" rx="11" ry="11" style="stroke:#181818;stroke-width:1;"/><path d="M585.9688,180.1406 Q585.3906,180.4375 584.75,180.5781 Q584.1094,180.7344 583.4063,180.7344 Q580.9063,180.7344 579.5781,179.0938 Q578.2656,177.4375 578.2656,174.3125 Q578.2656,171.1875 579.5781,169.5313 Q580.9063,167.875 583.4063,167.875 Q584.1094,167.875 584.75,168.0313 Q585.4063,168.1875 585.9688,168.4844 L585.9688,171.2031 Q585.3438,170.625 584.75,170.3594 Q584.1563,170.0781 583.5313,170.0781 Q582.1875,170.0781 581.5,171.1563 Q580.8125,172.2188 580.8125,174.3125 Q580.8125,176.4063 581.5,177.4844 Q582.1875,178.5469 583.5313,178.5469 Q584.1563,178.5469 584.75,178.2813 Q585.3438,178 585.9688,177.4219 L585.9688,180.1406 Z " fill="#000000"/><text fill="#000000" font-family="sans-serif" font-size="14" lengthAdjust="spacing" textLength="296.167" x="597" y="179.3467">logic_arc_int__baselibs__message_passing</text><line style="stroke:#181818;stroke-width:0.5;" x1="569" x2="895.167" y1="190.5" y2="190.5"/></g><!--class logic_arc_int__baselibs__result--><g id="elem_logic_arc_int__baselibs__result"><rect fill="#F1F1F1" height="40" id="logic_arc_int__baselibs__result" rx="2.5" ry="2.5" style="stroke:#181818;stroke-width:0.5;" width="244.4609" x="289" y="158.5"/><ellipse cx="304" cy="174.5" fill="#ADD1B2" rx="11" ry="11" style="stroke:#181818;stroke-width:1;"/><path d="M306.9688,180.1406 Q306.3906,180.4375 305.75,180.5781 Q305.1094,180.7344 304.4063,180.7344 Q301.9063,180.7344 300.5781,179.0938 Q299.2656,177.4375 299.2656,174.3125 Q299.2656,171.1875 300.5781,169.5313 Q301.9063,167.875 304.4063,167.875 Q305.1094,167.875 305.75,168.0313 Q306.4063,168.1875 306.9688,168.4844 L306.9688,171.2031 Q306.3438,170.625 305.75,170.3594 Q305.1563,170.0781 304.5313,170.0781 Q303.1875,170.0781 302.5,171.1563 Q301.8125,172.2188 301.8125,174.3125 Q301.8125,176.4063 302.5,177.4844 Q303.1875,178.5469 304.5313,178.5469 Q305.1563,178.5469 305.75,178.2813 Q306.3438,178 306.9688,177.4219 L306.9688,180.1406 Z " fill="#000000"/><text fill="#000000" font-family="sans-serif" font-size="14" lengthAdjust="spacing" textLength="212.4609" x="318" y="179.3467">logic_arc_int__baselibs__result</text><line style="stroke:#181818;stroke-width:0.5;" x1="290" x2="532.4609" y1="190.5" y2="190.5"/></g><!--class logic_arc_int__baselibs__json--><g id="elem_logic_arc_int__baselibs__json"><rect fill="#F1F1F1" height="40" id="logic_arc_int__baselibs__json" rx="2.5" ry="2.5" style="stroke:#181818;stroke-width:0.5;" width="233.168" x="16.5" y="158.5"/><ellipse cx="31.5" cy="174.5" fill="#ADD1B2" rx="11" ry="11" style="stroke:#181818;stroke-width:1;"/><path d="M34.4688,180.1406 Q33.8906,180.4375 33.25,180.5781 Q32.6094,180.7344 31.9063,180.7344 Q29.4063,180.7344 28.0781,179.0938 Q26.7656,177.4375 26.7656,174.3125 Q26.7656,171.1875 28.0781,169.5313 Q29.4063,167.875 31.9063,167.875 Q32.6094,167.875 33.25,168.0313 Q33.9063,168.1875 34.4688,168.4844 L34.4688,171.2031 Q33.8438,170.625 33.25,170.3594 Q32.6563,170.0781 32.0313,170.0781 Q30.6875,170.0781 30,171.1563 Q29.3125,172.2188 29.3125,174.3125 Q29.3125,176.4063 30,177.4844 Q30.6875,178.5469 32.0313,178.5469 Q32.6563,178.5469 33.25,178.2813 Q33.8438,178 34.4688,177.4219 L34.4688,180.1406 Z " fill="#000000"/><text fill="#000000" font-family="sans-serif" font-size="14" lengthAdjust="spacing" textLength="201.168" x="45.5" y="179.3467">logic_arc_int__baselibs__json</text><line style="stroke:#181818;stroke-width:0.5;" x1="17.5" x2="248.668" y1="190.5" y2="190.5"/></g><!--class comp_arc_sta__baselibs__result--><g id="elem_comp_arc_sta__baselibs__result"><rect fill="#F1F1F1" height="40" id="comp_arc_sta__baselibs__result" rx="2.5" ry="2.5" style="stroke:#181818;stroke-width:0.5;" width="253.4297" x="284.5" y="275.5"/><ellipse cx="299.5" cy="291.5" fill="#ADD1B2" rx="11" ry="11" style="stroke:#181818;stroke-width:1;"/><path d="M302.4688,297.1406 Q301.8906,297.4375 301.25,297.5781 Q300.6094,297.7344 299.9063,297.7344 Q297.4063,297.7344 296.0781,296.0938 Q294.7656,294.4375 294.7656,291.3125 Q294.7656,288.1875 296.0781,286.5313 Q297.4063,284.875 299.9063,284.875 Q300.6094,284.875 301.25,285.0313 Q301.9063,285.1875 302.4688,285.4844 L302.4688,288.2031 Q301.8438,287.625 301.25,287.3594 Q300.6563,287.0781 300.0313,287.0781 Q298.6875,287.0781 298,288.1563 Q297.3125,289.2188 297.3125,291.3125 Q297.3125,293.4063 298,294.4844 Q298.6875,295.5469 300.0313,295.5469 Q300.6563,295.5469 301.25,295.2813 Q301.8438,295 302.4688,294.4219 L302.4688,297.1406 Z " fill="#000000"/><text fill="#000000" font-family="sans-serif" font-size="14" lengthAdjust="spacing" textLength="221.4297" x="313.5" y="296.3467">comp_arc_sta__baselibs__result</text><line style="stroke:#181818;stroke-width:0.5;" x1="285.5" x2="536.9297" y1="307.5" y2="307.5"/></g><!--class comp_arc_sta__baselibs__json--><g id="elem_comp_arc_sta__baselibs__json"><rect fill="#F1F1F1" height="40" id="comp_arc_sta__baselibs__json" rx="2.5" ry="2.5" style="stroke:#181818;stroke-width:0.5;" width="242.1367" x="7" y="275.5"/><ellipse cx="22" cy="291.5" fill="#ADD1B2" rx="11" ry="11" style="stroke:#181818;stroke-width:1;"/><path d="M24.9688,297.1406 Q24.3906,297.4375 23.75,297.5781 Q23.1094,297.7344 22.4063,297.7344 Q19.9063,297.7344 18.5781,296.0938 Q17.2656,294.4375 17.2656,291.3125 Q17.2656,288.1875 18.5781,286.5313 Q19.9063,284.875 22.4063,284.875 Q23.1094,284.875 23.75,285.0313 Q24.4063,285.1875 24.9688,285.4844 L24.9688,288.2031 Q24.3438,287.625 23.75,287.3594 Q23.1563,287.0781 22.5313,287.0781 Q21.1875,287.0781 20.5,288.1563 Q19.8125,289.2188 19.8125,291.3125 Q19.8125,293.4063 20.5,294.4844 Q21.1875,295.5469 22.5313,295.5469 Q23.1563,295.5469 23.75,295.2813 Q24.3438,295 24.9688,294.4219 L24.9688,297.1406 Z " fill="#000000"/><text fill="#000000" font-family="sans-serif" font-size="14" lengthAdjust="spacing" textLength="210.1367" x="36" y="296.3467">comp_arc_sta__baselibs__json</text><line style="stroke:#181818;stroke-width:0.5;" x1="8" x2="248.1367" y1="307.5" y2="307.5"/></g><!--link Feature_User to logic_arc_int__baselibs__intrusive_list--><g id="link_Feature_User_logic_arc_int__baselibs__intrusive_list"><path codeLine="15" d="M3125.13,47.41 C3304.25,59.08 3982.34,104.53 4539,158.5 C4544.71,159.05 4544.5511,159.0299 4550.4211,159.6299 " fill="transparent" id="Feature_User-to-logic_arc_int__baselibs__intrusive_list" style="stroke:#181818;stroke-width:1;"/><polygon fill="#181818" points="4556.39,160.24,4547.8434,155.3456,4551.4159,159.7316,4547.0299,163.3041,4556.39,160.24" style="stroke:#181818;stroke-width:1;"/><text fill="#000000" font-family="sans-serif" font-size="13" lengthAdjust="spacing" textLength="23.0103" x="4180" y="124.5669">use</text></g><!--reverse link logic_arc_int__baselibs__shared_future to comp_arc_sta__baselibs__concurrency--><g id="link_logic_arc_int__baselibs__shared_future_comp_arc_sta__baselibs__concurrency"><path codeLine="16" d="M2567.776,200.2441 C2643.526,221.5441 2759.5,254.15 2835.18,275.43 " fill="transparent" id="logic_arc_int__baselibs__shared_future-backto-comp_arc_sta__baselibs__concurrency" style="stroke:#181818;stroke-width:1;"/><polygon fill="#181818" points="2562,198.62,2569.5812,204.9069,2566.8133,199.9735,2571.7468,197.2055,2562,198.62" style="stroke:#181818;stroke-width:1;"/><text fill="#000000" font-family="sans-serif" font-size="13" lengthAdjust="spacing" textLength="76.9082" x="2723" y="241.5669">implements</text></g><!--reverse link logic_arc_int__baselibs__task_result to comp_arc_sta__baselibs__concurrency--><g id="link_logic_arc_int__baselibs__task_result_comp_arc_sta__baselibs__concurrency"><path codeLine="17" d="M2294.0575,199.4601 C2378.1775,212.6601 2486.94,229.72 2588,245.5 C2651.43,255.41 2722.05,266.4 2780.33,275.45 " fill="transparent" id="logic_arc_int__baselibs__task_result-backto-comp_arc_sta__baselibs__concurrency" style="stroke:#181818;stroke-width:1;"/><polygon fill="#181818" points="2288.13,198.53,2296.4011,203.8768,2293.0696,199.3051,2297.6413,195.9736,2288.13,198.53" style="stroke:#181818;stroke-width:1;"/><text fill="#000000" font-family="sans-serif" font-size="13" lengthAdjust="spacing" textLength="76.9082" x="2589" y="241.5669">implements</text></g><!--reverse link logic_arc_int__baselibs__dynamic_array to comp_arc_sta__baselibs__containers--><g id="link_logic_arc_int__baselibs__dynamic_array_comp_arc_sta__baselibs__containers"><path codeLine="18" d="M4395.0667,202.558 C4420.9167,223.788 4457.62,253.94 4483.49,275.19 " fill="transparent" id="logic_arc_int__baselibs__dynamic_array-backto-comp_arc_sta__baselibs__containers" style="stroke:#181818;stroke-width:1;"/><polygon fill="#181818" points="4390.43,198.75,4394.8464,207.5532,4394.2939,201.9233,4399.9237,201.3709,4390.43,198.75" style="stroke:#181818;stroke-width:1;"/><text fill="#000000" font-family="sans-serif" font-size="13" lengthAdjust="spacing" textLength="76.9082" x="4446" y="241.5669">implements</text></g><!--reverse link logic_arc_int__baselibs__utils_scoped_op to comp_arc_sta__baselibs__utils--><g id="link_logic_arc_int__baselibs__utils_scoped_op_comp_arc_sta__baselibs__utils"><path codeLine="19" d="M5740.2506,202.1252 C5771.5406,223.4152 5816.69,254.14 5847.9,275.38 " fill="transparent" id="logic_arc_int__baselibs__utils_scoped_op-backto-comp_arc_sta__baselibs__utils" style="stroke:#181818;stroke-width:1;"/><polygon fill="#181818" points="5735.29,198.75,5740.4808,207.1199,5739.4238,201.5627,5744.9811,200.5058,5735.29,198.75" style="stroke:#181818;stroke-width:1;"/><text fill="#000000" font-family="sans-serif" font-size="13" lengthAdjust="spacing" textLength="76.9082" x="5802" y="241.5669">implements</text></g><!--link Feature_User to logic_arc_int__baselibs__shared_future--><g id="link_Feature_User_logic_arc_int__baselibs__shared_future"><path codeLine="20" d="M3034.99,54.72 C2937.1,76.93 2709.4112,128.6119 2583.5812,157.1719 " fill="transparent" id="Feature_User-to-logic_arc_int__baselibs__shared_future" style="stroke:#181818;stroke-width:1;"/><polygon fill="#181818" points="2577.73,158.5,2587.3921,160.4087,2582.606,157.3933,2585.6214,152.6071,2577.73,158.5" style="stroke:#181818;stroke-width:1;"/><text fill="#000000" font-family="sans-serif" font-size="13" lengthAdjust="spacing" textLength="23.0103" x="2770" y="124.5669">use</text></g><!--link Feature_User to logic_arc_int__baselibs__bit_manipulation--><g id="link_Feature_User_logic_arc_int__baselibs__bit_manipulation"><path codeLine="21" d="M3034.85,46.55 C2830.62,56 1972.85,97.47 1271,158.5 C1265.24,159 1265.3543,158.975 1259.4343,159.525 " fill="transparent" id="Feature_User-to-logic_arc_int__baselibs__bit_manipulation" style="stroke:#181818;stroke-width:1;"/><polygon fill="#181818" points="1253.46,160.08,1262.7914,163.2303,1258.4386,159.6175,1262.0514,155.2646,1253.46,160.08" style="stroke:#181818;stroke-width:1;"/><text fill="#000000" font-family="sans-serif" font-size="13" lengthAdjust="spacing" textLength="23.0103" x="1869" y="124.5669">use</text></g><!--reverse link logic_arc_int__baselibs__promise to comp_arc_sta__baselibs__concurrency--><g id="link_logic_arc_int__baselibs__promise_comp_arc_sta__baselibs__concurrency"><path codeLine="22" d="M3609.5176,198.6096 C3513.8876,211.9596 3386.87,229.6 3270,245.5 C3196.43,255.51 3114.54,266.46 3046.82,275.47 " fill="transparent" id="logic_arc_int__baselibs__promise-backto-comp_arc_sta__baselibs__concurrency" style="stroke:#181818;stroke-width:1;"/><polygon fill="#181818" points="3615.46,197.78,3605.9934,195.0628,3610.508,198.4713,3607.0995,202.9859,3615.46,197.78" style="stroke:#181818;stroke-width:1;"/><text fill="#000000" font-family="sans-serif" font-size="13" lengthAdjust="spacing" textLength="76.9082" x="3388" y="241.5669">implements</text></g><!--reverse link logic_arc_int__baselibs__memory_shared to comp_arc_sta__baselibs__memory_shared--><g id="link_logic_arc_int__baselibs__memory_shared_comp_arc_sta__baselibs__memory_shared"><path codeLine="23" d="M5355.879,204.7464 C5356.619,225.9764 5357.59,253.94 5358.33,275.19 " fill="transparent" id="logic_arc_int__baselibs__memory_shared-backto-comp_arc_sta__baselibs__memory_shared" style="stroke:#181818;stroke-width:1;"/><polygon fill="#181818" points="5355.67,198.75,5351.9859,207.8839,5355.8442,203.747,5359.9811,207.6052,5355.67,198.75" style="stroke:#181818;stroke-width:1;"/><text fill="#000000" font-family="sans-serif" font-size="13" lengthAdjust="spacing" textLength="76.9082" x="5358" y="241.5669">implements</text></g><!--link Feature_User to logic_arc_int__baselibs__dynamic_array--><g id="link_Feature_User_logic_arc_int__baselibs__dynamic_array"><path codeLine="24" d="M3125.2,48.97 C3276.65,63.99 3780.11,114.15 4196,158.5 C4201.49,159.09 4201.1247,159.046 4206.7747,159.656 " fill="transparent" id="Feature_User-to-logic_arc_int__baselibs__dynamic_array" style="stroke:#181818;stroke-width:1;"/><polygon fill="#181818" points="4212.74,160.3,4204.2214,155.357,4207.7689,159.7633,4203.3626,163.3108,4212.74,160.3" style="stroke:#181818;stroke-width:1;"/><text fill="#000000" font-family="sans-serif" font-size="13" lengthAdjust="spacing" textLength="23.0103" x="3890" y="124.5669">use</text></g><!--reverse link logic_arc_int__baselibs__utils_base64 to comp_arc_sta__baselibs__utils--><g id="link_logic_arc_int__baselibs__utils_base64_comp_arc_sta__baselibs__utils"><path codeLine="25" d="M6012.5799,202.1113 C5981.0999,223.4013 5935.66,254.14 5904.26,275.38 " fill="transparent" id="logic_arc_int__baselibs__utils_base64-backto-comp_arc_sta__baselibs__utils" style="stroke:#181818;stroke-width:1;"/><polygon fill="#181818" points="6017.55,198.75,6007.854,200.4785,6013.4083,201.5511,6012.3357,207.1053,6017.55,198.75" style="stroke:#181818;stroke-width:1;"/><text fill="#000000" font-family="sans-serif" font-size="13" lengthAdjust="spacing" textLength="76.9082" x="5972" y="241.5669">implements</text></g><!--reverse link logic_arc_int__baselibs__filesystem to comp_arc_sta__baselibs__filesystem--><g id="link_logic_arc_int__baselibs__filesystem_comp_arc_sta__baselibs__filesystem"><path codeLine="26" d="M5021.9002,204.7444 C5020.9802,225.9744 5019.76,253.94 5018.84,275.19 " fill="transparent" id="logic_arc_int__baselibs__filesystem-backto-comp_arc_sta__baselibs__filesystem" style="stroke:#181818;stroke-width:1;"/><polygon fill="#181818" points="5022.16,198.75,5017.7741,207.5684,5021.9435,203.7453,5025.7666,207.9147,5022.16,198.75" style="stroke:#181818;stroke-width:1;"/><text fill="#000000" font-family="sans-serif" font-size="13" lengthAdjust="spacing" textLength="76.9082" x="5021" y="241.5669">implements</text></g><!--link Feature_User to logic_arc_int__baselibs__future--><g id="link_Feature_User_logic_arc_int__baselibs__future"><path codeLine="27" d="M3034.73,66.31 C2981.51,91.96 2899.4553,131.5057 2848.8753,155.8757 " fill="transparent" id="Feature_User-to-logic_arc_int__baselibs__future" style="stroke:#181818;stroke-width:1;"/><polygon fill="#181818" points="2843.47,158.48,2853.3142,158.177,2847.9744,156.3097,2849.8417,150.9699,2843.47,158.48" style="stroke:#181818;stroke-width:1;"/><text fill="#000000" font-family="sans-serif" font-size="13" lengthAdjust="spacing" textLength="23.0103" x="2934" y="124.5669">use</text></g><!--link Feature_User to logic_arc_int__baselibs__task--><g id="link_Feature_User_logic_arc_int__baselibs__task"><path codeLine="28" d="M3080,81.55 C3080,106.45 3080,132.26 3080,152.26 " fill="transparent" id="Feature_User-to-logic_arc_int__baselibs__task" style="stroke:#181818;stroke-width:1;"/><polygon fill="#181818" points="3080,158.26,3084,149.26,3080,153.26,3076,149.26,3080,158.26" style="stroke:#181818;stroke-width:1;"/><text fill="#000000" font-family="sans-serif" font-size="13" lengthAdjust="spacing" textLength="23.0103" x="3081" y="124.5669">use</text></g><!--reverse link logic_arc_int__baselibs__condition_variable to comp_arc_sta__baselibs__concurrency--><g id="link_logic_arc_int__baselibs__condition_variable_comp_arc_sta__baselibs__concurrency"><path codeLine="29" d="M1989.8486,199.234 C2105.0386,212.844 2258.6,230.6 2399,245.5 C2517.89,258.11 2652.71,271.15 2752.97,280.61 " fill="transparent" id="logic_arc_int__baselibs__condition_variable-backto-comp_arc_sta__baselibs__concurrency" style="stroke:#181818;stroke-width:1;"/><polygon fill="#181818" points="1983.89,198.53,1992.3585,203.5584,1988.8555,199.1167,1993.2972,195.6137,1983.89,198.53" style="stroke:#181818;stroke-width:1;"/><text fill="#000000" font-family="sans-serif" font-size="13" lengthAdjust="spacing" textLength="76.9082" x="2400" y="241.5669">implements</text></g><!--reverse link logic_arc_int__baselibs__executor to comp_arc_sta__baselibs__concurrency--><g id="link_logic_arc_int__baselibs__executor_comp_arc_sta__baselibs__concurrency"><path codeLine="30" d="M3905.6635,197.1108 C3899.7135,197.8308 3899.77,197.81 3894,198.5 C3707.04,220.7 3660.36,226.99 3473,245.5 C3330.67,259.56 3168.11,273.31 3053.11,282.64 " fill="transparent" id="logic_arc_int__baselibs__executor-backto-comp_arc_sta__baselibs__concurrency" style="stroke:#181818;stroke-width:1;"/><polygon fill="#181818" points="3911.62,196.39,3902.2047,193.5002,3906.6562,196.9907,3903.1657,201.4422,3911.62,196.39" style="stroke:#181818;stroke-width:1;"/><text fill="#000000" font-family="sans-serif" font-size="13" lengthAdjust="spacing" textLength="76.9082" x="3634" y="241.5669">implements</text></g><!--link Feature_User to logic_arc_int__baselibs__synchronized_queue--><g id="link_Feature_User_logic_arc_int__baselibs__synchronized_queue"><path codeLine="31" d="M3125.33,62.99 C3187,88.15 3291.2344,130.684 3353.6544,156.144 " fill="transparent" id="Feature_User-to-logic_arc_int__baselibs__synchronized_queue" style="stroke:#181818;stroke-width:1;"/><polygon fill="#181818" points="3359.21,158.41,3352.3872,151.3072,3354.5803,156.5216,3349.3659,158.7147,3359.21,158.41" style="stroke:#181818;stroke-width:1;"/><text fill="#000000" font-family="sans-serif" font-size="13" lengthAdjust="spacing" textLength="23.0103" x="3282" y="124.5669">use</text></g><!--reverse link logic_arc_int__baselibs__synchronized_queue to comp_arc_sta__baselibs__concurrency--><g id="link_logic_arc_int__baselibs__synchronized_queue_comp_arc_sta__baselibs__concurrency"><path codeLine="32" d="M3316.811,199.8874 C3223.701,221.1774 3079.68,254.11 2986.5,275.41 " fill="transparent" id="logic_arc_int__baselibs__synchronized_queue-backto-comp_arc_sta__baselibs__concurrency" style="stroke:#181818;stroke-width:1;"/><polygon fill="#181818" points="3322.66,198.55,3312.9948,196.6568,3317.7858,199.6645,3314.778,204.4555,3322.66,198.55" style="stroke:#181818;stroke-width:1;"/><text fill="#000000" font-family="sans-serif" font-size="13" lengthAdjust="spacing" textLength="76.9082" x="3185" y="241.5669">implements</text></g><!--link Feature_User to logic_arc_int__baselibs__bit_mask_operator--><g id="link_Feature_User_logic_arc_int__baselibs__bit_mask_operator"><path codeLine="33" d="M3034.91,47.69 C2857.41,60.32 2189.76,108.59 1641,158.5 C1635.37,159.01 1635.623,158.9716 1629.843,159.5216 " fill="transparent" id="Feature_User-to-logic_arc_int__baselibs__bit_mask_operator" style="stroke:#181818;stroke-width:1;"/><polygon fill="#181818" points="1623.87,160.09,1633.2084,163.2195,1628.8475,159.6164,1632.4506,155.2554,1623.87,160.09" style="stroke:#181818;stroke-width:1;"/><text fill="#000000" font-family="sans-serif" font-size="13" lengthAdjust="spacing" textLength="23.0103" x="2157" y="124.5669">use</text></g><!--reverse link logic_arc_int__baselibs__bit_mask_operator to comp_arc_sta__baselibs__bit_manipulation--><g id="link_logic_arc_int__baselibs__bit_mask_operator_comp_arc_sta__baselibs__bit_manipulation"><path codeLine="34" d="M1415.0701,201.6001 C1375.6301,222.8901 1317.75,254.14 1278.41,275.38 " fill="transparent" id="logic_arc_int__baselibs__bit_mask_operator-backto-comp_arc_sta__baselibs__bit_manipulation" style="stroke:#181818;stroke-width:1;"/><polygon fill="#181818" points="1420.35,198.75,1410.5301,199.5053,1415.9501,201.1251,1414.3303,206.5451,1420.35,198.75" style="stroke:#181818;stroke-width:1;"/><text fill="#000000" font-family="sans-serif" font-size="13" lengthAdjust="spacing" textLength="76.9082" x="1364" y="241.5669">implements</text></g><!--link Feature_User to logic_arc_int__baselibs__utils_scoped_op--><g id="link_Feature_User_logic_arc_int__baselibs__utils_scoped_op"><path codeLine="35" d="M3125.15,45.81 C3323.92,51.66 4140.86,76.69 4811,111.5 C5131.69,128.16 5212.08,130.72 5532,158.5 C5537.63,158.99 5537.3859,158.9528 5543.1759,159.4928 " fill="transparent" id="Feature_User-to-logic_arc_int__baselibs__utils_scoped_op" style="stroke:#181818;stroke-width:1;"/><polygon fill="#181818" points="5549.15,160.05,5540.5603,155.2315,5544.1716,159.5857,5539.8174,163.197,5549.15,160.05" style="stroke:#181818;stroke-width:1;"/><text fill="#000000" font-family="sans-serif" font-size="13" lengthAdjust="spacing" textLength="23.0103" x="5124" y="124.5669">use</text></g><!--reverse link logic_arc_int__baselibs__message_passing to comp_arc_sta__baselibs__message_passing--><g id="link_logic_arc_int__baselibs__message_passing_comp_arc_sta__baselibs__message_passing"><path codeLine="36" d="M733.9777,204.7317 C735.6377,225.9617 737.83,253.94 739.49,275.19 " fill="transparent" id="logic_arc_int__baselibs__message_passing-backto-comp_arc_sta__baselibs__message_passing" style="stroke:#181818;stroke-width:1;"/><polygon fill="#181818" points="733.51,198.75,730.2238,208.0344,733.8998,203.7348,738.1994,207.4108,733.51,198.75" style="stroke:#181818;stroke-width:1;"/><text fill="#000000" font-family="sans-serif" font-size="13" lengthAdjust="spacing" textLength="76.9082" x="739" y="241.5669">implements</text></g><!--link Feature_User to logic_arc_int__baselibs__result--><g id="link_Feature_User_logic_arc_int__baselibs__result"><path codeLine="37" d="M3034.81,45.77 C2832.25,51.56 1987.62,76.66 1295,111.5 C963.65,128.17 880.13,125.57 550,158.5 C544.55,159.04 544.9427,158.9716 539.3227,159.6016 " fill="transparent" id="Feature_User-to-logic_arc_int__baselibs__result" style="stroke:#181818;stroke-width:1;"/><polygon fill="#181818" points="533.36,160.27,542.7496,163.2425,538.3289,159.713,541.8584,155.2923,533.36,160.27" style="stroke:#181818;stroke-width:1;"/><text fill="#000000" font-family="sans-serif" font-size="13" lengthAdjust="spacing" textLength="23.0103" x="1296" y="124.5669">use</text></g><!--reverse link logic_arc_int__baselibs__bit_manipulation to comp_arc_sta__baselibs__bit_manipulation--><g id="link_logic_arc_int__baselibs__bit_manipulation_comp_arc_sta__baselibs__bit_manipulation"><path codeLine="38" d="M1122.0436,202.3849 C1150.0036,223.6749 1190.01,254.14 1217.9,275.38 " fill="transparent" id="logic_arc_int__baselibs__bit_manipulation-backto-comp_arc_sta__baselibs__bit_manipulation" style="stroke:#181818;stroke-width:1;"/><polygon fill="#181818" points="1117.27,198.75,1122.0072,207.3847,1121.248,201.7791,1126.8537,201.0199,1117.27,198.75" style="stroke:#181818;stroke-width:1;"/><text fill="#000000" font-family="sans-serif" font-size="13" lengthAdjust="spacing" textLength="76.9082" x="1178" y="241.5669">implements</text></g><!--link Feature_User to logic_arc_int__baselibs__task_result--><g id="link_Feature_User_logic_arc_int__baselibs__task_result"><path codeLine="39" d="M3034.72,51.1 C2901.23,70.54 2511.5274,127.3153 2303.7474,157.5753 " fill="transparent" id="Feature_User-to-logic_arc_int__baselibs__task_result" style="stroke:#181818;stroke-width:1;"/><polygon fill="#181818" points="2297.81,158.44,2307.2925,161.1012,2302.7578,157.7194,2306.1396,153.1847,2297.81,158.44" style="stroke:#181818;stroke-width:1;"/><text fill="#000000" font-family="sans-serif" font-size="13" lengthAdjust="spacing" textLength="23.0103" x="2598" y="124.5669">use</text></g><!--link Feature_User to logic_arc_int__baselibs__json--><g id="link_Feature_User_logic_arc_int__baselibs__json"><path codeLine="40" d="M3034.75,45.16 C2806.48,48.64 1758.62,66.44 902,111.5 C621.17,126.27 550.66,128.86 271,158.5 C264.03,159.24 262.8169,159.3322 255.5969,160.2022 " fill="transparent" id="Feature_User-to-logic_arc_int__baselibs__json" style="stroke:#181818;stroke-width:1;"/><polygon fill="#181818" points="249.64,160.92,259.0539,163.8146,254.6041,160.3218,258.0968,155.872,249.64,160.92" style="stroke:#181818;stroke-width:1;"/><text fill="#000000" font-family="sans-serif" font-size="13" lengthAdjust="spacing" textLength="23.0103" x="903" y="124.5669">use</text></g><!--link Feature_User to logic_arc_int__baselibs__utils_base64--><g id="link_Feature_User_logic_arc_int__baselibs__utils_base64"><path codeLine="41" d="M3125.31,45.42 C3347.27,50.03 4341.99,72.03 5156,111.5 C5478.96,127.16 5559.97,129.44 5882,158.5 C5887.85,159.03 5887.8496,158.9949 5893.8696,159.5949 " fill="transparent" id="Feature_User-to-logic_arc_int__baselibs__utils_base64" style="stroke:#181818;stroke-width:1;"/><polygon fill="#181818" points="5899.84,160.19,5891.2811,155.3171,5894.8647,159.6941,5890.4877,163.2777,5899.84,160.19" style="stroke:#181818;stroke-width:1;"/><text fill="#000000" font-family="sans-serif" font-size="13" lengthAdjust="spacing" textLength="23.0103" x="5483" y="124.5669">use</text></g><!--link Feature_User to logic_arc_int__baselibs__condition_variable--><g id="link_Feature_User_logic_arc_int__baselibs__condition_variable"><path codeLine="42" d="M3034.96,49.27 C2868.51,66.91 2288.5966,128.3677 1997.5766,159.2077 " fill="transparent" id="Feature_User-to-logic_arc_int__baselibs__condition_variable" style="stroke:#181818;stroke-width:1;"/><polygon fill="#181818" points="1991.61,159.84,2000.9814,162.8693,1996.5822,159.3131,2000.1384,154.9138,1991.61,159.84" style="stroke:#181818;stroke-width:1;"/><text fill="#000000" font-family="sans-serif" font-size="13" lengthAdjust="spacing" textLength="23.0103" x="2416" y="124.5669">use</text></g><!--reverse link logic_arc_int__baselibs__intrusive_list to comp_arc_sta__baselibs__containers--><g id="link_logic_arc_int__baselibs__intrusive_list_comp_arc_sta__baselibs__containers"><path codeLine="43" d="M4665.0148,201.7861 C4628.7248,223.0761 4575.79,254.14 4539.59,275.38 " fill="transparent" id="logic_arc_int__baselibs__intrusive_list-backto-comp_arc_sta__baselibs__containers" style="stroke:#181818;stroke-width:1;"/><polygon fill="#181818" points="4670.19,198.75,4660.4032,199.854,4665.8774,201.2801,4664.4513,206.7542,4670.19,198.75" style="stroke:#181818;stroke-width:1;"/><text fill="#000000" font-family="sans-serif" font-size="13" lengthAdjust="spacing" textLength="76.9082" x="4617" y="241.5669">implements</text></g><!--link Feature_User to logic_arc_int__baselibs__memory_shared--><g id="link_Feature_User_logic_arc_int__baselibs__memory_shared"><path codeLine="44" d="M3125.13,45.79 C3348.35,52.44 4356.56,85.29 5179,158.5 C5184.51,158.99 5184.1461,158.9506 5189.8061,159.4806 " fill="transparent" id="Feature_User-to-logic_arc_int__baselibs__memory_shared" style="stroke:#181818;stroke-width:1;"/><polygon fill="#181818" points="5195.78,160.04,5187.1921,155.2183,5190.8018,159.5738,5186.4463,163.1835,5195.78,160.04" style="stroke:#181818;stroke-width:1;"/><text fill="#000000" font-family="sans-serif" font-size="13" lengthAdjust="spacing" textLength="23.0103" x="4779" y="124.5669">use</text></g><!--reverse link logic_arc_int__baselibs__result to comp_arc_sta__baselibs__result--><g id="link_logic_arc_int__baselibs__result_comp_arc_sta__baselibs__result"><path codeLine="45" d="M411,204.75 C411,225.98 411,253.94 411,275.19 " fill="transparent" id="logic_arc_int__baselibs__result-backto-comp_arc_sta__baselibs__result" style="stroke:#181818;stroke-width:1;"/><polygon fill="#181818" points="411,198.75,407,207.75,411,203.75,415,207.75,411,198.75" style="stroke:#181818;stroke-width:1;"/><text fill="#000000" font-family="sans-serif" font-size="13" lengthAdjust="spacing" textLength="76.9082" x="412" y="241.5669">implements</text></g><!--link Feature_User to logic_arc_int__baselibs__message_passing--><g id="link_Feature_User_logic_arc_int__baselibs__message_passing"><path codeLine="46" d="M3034.93,45.79 C2807.6,52.52 1764.18,86.11 913,158.5 C907.49,158.97 907.8658,158.9215 902.2058,159.4315 " fill="transparent" id="Feature_User-to-logic_arc_int__baselibs__message_passing" style="stroke:#181818;stroke-width:1;"/><polygon fill="#181818" points="896.23,159.97,905.5527,163.1462,901.2098,159.5213,904.8347,155.1785,896.23,159.97" style="stroke:#181818;stroke-width:1;"/><text fill="#000000" font-family="sans-serif" font-size="13" lengthAdjust="spacing" textLength="23.0103" x="1569" y="124.5669">use</text></g><!--link Feature_User to logic_arc_int__baselibs__filesystem--><g id="link_Feature_User_logic_arc_int__baselibs__filesystem"><path codeLine="47" d="M3125.31,46.3 C3328.39,54.58 4175.04,91.58 4867,158.5 C4872.84,159.06 4872.8327,159.0445 4878.8427,159.6745 " fill="transparent" id="Feature_User-to-logic_arc_int__baselibs__filesystem" style="stroke:#181818;stroke-width:1;"/><polygon fill="#181818" points="4884.81,160.3,4876.2761,155.3835,4879.8372,159.7787,4875.442,163.3399,4884.81,160.3" style="stroke:#181818;stroke-width:1;"/><text fill="#000000" font-family="sans-serif" font-size="13" lengthAdjust="spacing" textLength="23.0103" x="4477" y="124.5669">use</text></g><!--reverse link logic_arc_int__baselibs__future to comp_arc_sta__baselibs__concurrency--><g id="link_logic_arc_int__baselibs__future_comp_arc_sta__baselibs__concurrency"><path codeLine="48" d="M2824.485,203.2968 C2842.765,224.5268 2868.08,253.94 2886.38,275.19 " fill="transparent" id="logic_arc_int__baselibs__future-backto-comp_arc_sta__baselibs__concurrency" style="stroke:#181818;stroke-width:1;"/><polygon fill="#181818" points="2820.57,198.75,2823.4113,208.1801,2823.8325,202.539,2829.4736,202.9602,2820.57,198.75" style="stroke:#181818;stroke-width:1;"/><text fill="#000000" font-family="sans-serif" font-size="13" lengthAdjust="spacing" textLength="76.9082" x="2860" y="241.5669">implements</text></g><!--reverse link logic_arc_int__baselibs__json to comp_arc_sta__baselibs__json--><g id="link_logic_arc_int__baselibs__json_comp_arc_sta__baselibs__json"><path codeLine="49" d="M131.9002,204.7444 C130.9802,225.9744 129.76,253.94 128.84,275.19 " fill="transparent" id="logic_arc_int__baselibs__json-backto-comp_arc_sta__baselibs__json" style="stroke:#181818;stroke-width:1;"/><polygon fill="#181818" points="132.16,198.75,127.7741,207.5684,131.9435,203.7453,135.7666,207.9147,132.16,198.75" style="stroke:#181818;stroke-width:1;"/><text fill="#000000" font-family="sans-serif" font-size="13" lengthAdjust="spacing" textLength="76.9082" x="132" y="241.5669">implements</text></g><!--reverse link logic_arc_int__baselibs__task to comp_arc_sta__baselibs__concurrency--><g id="link_logic_arc_int__baselibs__task_comp_arc_sta__baselibs__concurrency"><path codeLine="50" d="M3045.3386,202.0188 C3012.5686,223.3088 2965.12,254.14 2932.43,275.38 " fill="transparent" id="logic_arc_int__baselibs__task-backto-comp_arc_sta__baselibs__concurrency" style="stroke:#181818;stroke-width:1;"/><polygon fill="#181818" points="3050.37,198.75,3040.6437,200.2989,3046.1772,201.474,3045.0021,207.0075,3050.37,198.75" style="stroke:#181818;stroke-width:1;"/><text fill="#000000" font-family="sans-serif" font-size="13" lengthAdjust="spacing" textLength="76.9082" x="3003" y="241.5669">implements</text></g><!--link Feature_User to logic_arc_int__baselibs__promise--><g id="link_Feature_User_logic_arc_int__baselibs__promise"><path codeLine="51" d="M3125.25,53.54 C3232.7,74.99 3499.1662,128.2048 3644.8062,157.2948 " fill="transparent" id="Feature_User-to-logic_arc_int__baselibs__promise" style="stroke:#181818;stroke-width:1;"/><polygon fill="#181818" points="3650.69,158.47,3642.6478,152.7846,3645.7869,157.4906,3641.0809,160.6297,3650.69,158.47" style="stroke:#181818;stroke-width:1;"/><text fill="#000000" font-family="sans-serif" font-size="13" lengthAdjust="spacing" textLength="23.0103" x="3493" y="124.5669">use</text></g><!--link Feature_User to logic_arc_int__baselibs__executor--><g id="link_Feature_User_logic_arc_int__baselibs__executor"><path codeLine="52" d="M3125.25,50.74 C3264.8,69.97 3686.3362,128.071 3905.8762,158.321 " fill="transparent" id="Feature_User-to-logic_arc_int__baselibs__executor" style="stroke:#181818;stroke-width:1;"/><polygon fill="#181818" points="3911.82,159.14,3903.4502,153.949,3906.8668,158.4575,3902.3582,161.8741,3911.82,159.14" style="stroke:#181818;stroke-width:1;"/><text fill="#000000" font-family="sans-serif" font-size="13" lengthAdjust="spacing" textLength="23.0103" x="3678" y="124.5669">use</text></g><!--SRC=[hLPBRzim3BxhLmYzfnk6OeUYw6N0JZkkPu6MsOIh7fv8TVM6_VV9JjecNX0_u2DjwiF7rqU2S_6NyVH2OQiaDbgYhg98zBgcX5Oe1hMZ6ZKB9epIDhYtqJVIQX19L6L1LdSihSDxTGrChj9_r3SA-2Mwc7J2khU-xyW-1MJMdwu_gh_gxiFXZG8hnU_gAuBaXFg1CLrfO7tuOBeFMgaJSrDlxhMBMx86aZKKn9WA61rLR3epPQPdD8vORdLcrCf6t_JEB73iR6EmEIKCjjMRV0cMTr2YCO-vut6hoJSEFGRXDS05-CaavEnaChH0IMpY4UIw3U3xNmdQQTXPo8t1zZw6RMnAJc9p2ZoZM8EizhMQyRmYCHu2DTb1rx6hLRj9qHDFhBD77rDxY6K4-CHtSTe6LRqOzFHoTlRdcsanFv93Reis-17eTyV5qIxjZcwgLkk8ubbJrsFc6H91vLON0Nn1cuiQBX-cDjXTYe5-bv7wcJ7ZUkft1deXo_tC5hqhsf6WZ_SYoU6CZp0z0x-Gw7yQTv6cBziDjcWQO2uxTLG6JhmNStpT6Ujdy5XK5v8xsMfpX_S7lydvx9gz2jdSr-TcV6o0fgtXuL6oCAE3xN6Hspxn8xpEtHop-0pQU6x6ZxV3Ib8rvqBhccm4Rj-7wvzxYtF-TfhCpVNxVkbV_WC0]--></g></svg>