<svg xmlns="http://www.w3.org/2000/svg" xmlns:xlink="http://www.w3.org/1999/xlink" contentStyleType="text/css" data-diagram-type="CLASS" height="542px" preserveAspectRatio="none" style="width:777px;height:542px;background:#FFFFFF;" version="1.1" viewBox="0 0 777 542" width="777px" zoomAndPan="magnify"><defs/><g><!--cluster mod_view_sta__orch__orchestration--><a href="../features/orchestration/modules/orchestration/index.html#mod_view_sta__orch__orchestration" target="_top" title="../features/orchestration/modules/orchestration/index.html#mod_view_sta__orch__orchestration" xlink:actuate="onRequest" xlink:href="../features/orchestration/modules/orchestration/index.html#mod_view_sta__orch__orchestration" xlink:show="new" xlink:title="../features/orchestration/modules/orchestration/index.html#mod_view_sta__orch__orchestration" xlink:type="simple"><path d="M211.5,159 L321.5195,159 A3.75,3.75 0 0 1 324.0195,161.5 L331.0195,181.2969 L502.5,181.2969 A2.5,2.5 0 0 1 505,183.7969 L505,253.5 A2.5,2.5 0 0 1 502.5,256 L211.5,256 A2.5,2.5 0 0 1 209,253.5 L209,161.5 A2.5,2.5 0 0 1 211.5,159 " fill="transparent" style="stroke:#000000;stroke-width:1.5;"/><line style="stroke:#000000;stroke-width:1.5;" x1="209" x2="331.0195" y1="181.2969" y2="181.2969"/><text fill="#000000" font-family="sans-serif" font-size="14" font-weight="bold" lengthAdjust="spacing" textLength="109.0195" x="213" y="173.9951">Orchestration</text></a><!--cluster mod_view_sta__logging__logging--><a href="../features/communication/modules/logging/index.html#mod_view_sta__logging__logging" target="_top" title="../features/communication/modules/logging/index.html#mod_view_sta__logging__logging" xlink:actuate="onRequest" xlink:href="../features/communication/modules/logging/index.html#mod_view_sta__logging__logging" xlink:show="new" xlink:title="../features/communication/modules/logging/index.html#mod_view_sta__logging__logging" xlink:type="simple"><path d="M157.5,438 L221.8691,438 A3.75,3.75 0 0 1 224.3691,440.5 L231.3691,460.2969 L280.5,460.2969 A2.5,2.5 0 0 1 283,462.7969 L283,532.5 A2.5,2.5 0 0 1 280.5,535 L157.5,535 A2.5,2.5 0 0 1 155,532.5 L155,440.5 A2.5,2.5 0 0 1 157.5,438 " fill="transparent" style="stroke:#000000;stroke-width:1.5;"/><line style="stroke:#000000;stroke-width:1.5;" x1="155" x2="231.3691" y1="460.2969" y2="460.2969"/><text fill="#000000" font-family="sans-serif" font-size="14" font-weight="bold" lengthAdjust="spacing" textLength="63.3691" x="159" y="452.9951">Logging</text></a><!--cluster mod_view_sta__tracing__tracing--><a href="../features/communication/modules/tracing/index.html#mod_view_sta__tracing__tracing" target="_top" title="../features/communication/modules/tracing/index.html#mod_view_sta__tracing__tracing" xlink:actuate="onRequest" xlink:href="../features/communication/modules/tracing/index.html#mod_view_sta__tracing__tracing" xlink:show="new" xlink:title="../features/communication/modules/tracing/index.html#mod_view_sta__tracing__tracing" xlink:type="simple"><path d="M8.5,438 L68.4873,438 A3.75,3.75 0 0 1 70.9873,440.5 L77.9873,460.2969 L127.5,460.2969 A2.5,2.5 0 0 1 130,462.7969 L130,532.5 A2.5,2.5 0 0 1 127.5,535 L8.5,535 A2.5,2.5 0 0 1 6,532.5 L6,440.5 A2.5,2.5 0 0 1 8.5,438 " fill="transparent" style="stroke:#000000;stroke-width:1.5;"/><line style="stroke:#000000;stroke-width:1.5;" x1="6" x2="77.9873" y1="460.2969" y2="460.2969"/><text fill="#000000" font-family="sans-serif" font-size="14" font-weight="bold" lengthAdjust="spacing" textLength="58.9873" x="10" y="452.9951">Tracing</text></a><!--cluster mod_view_sta__baselibs___baselibsrust--><a href="../features/orchestration/modules/baselibs/index.html#mod_view_sta__baselibs___baselibsrust" target="_top" title="../features/orchestration/modules/baselibs/index.html#mod_view_sta__baselibs___baselibsrust" xlink:actuate="onRequest" xlink:href="../features/orchestration/modules/baselibs/index.html#mod_view_sta__baselibs___baselibsrust" xlink:show="new" xlink:title="../features/orchestration/modules/baselibs/index.html#mod_view_sta__baselibs___baselibsrust" xlink:type="simple"><path d="M311.5,438 L421.1709,438 A3.75,3.75 0 0 1 423.6709,440.5 L430.6709,460.2969 L563.5,460.2969 A2.5,2.5 0 0 1 566,462.7969 L566,532.5 A2.5,2.5 0 0 1 563.5,535 L311.5,535 A2.5,2.5 0 0 1 309,532.5 L309,440.5 A2.5,2.5 0 0 1 311.5,438 " fill="transparent" style="stroke:#000000;stroke-width:1.5;"/><line style="stroke:#000000;stroke-width:1.5;" x1="309" x2="430.6709" y1="460.2969" y2="460.2969"/><text fill="#000000" font-family="sans-serif" font-size="14" font-weight="bold" lengthAdjust="spacing" textLength="108.6709" x="313" y="452.9951">Baselibs_Rust</text></a><!--cluster mod_view_sta__com___commm--><a href="../features/orchestration/modules/communication/index.html#mod_view_sta__com___commm" target="_top" title="../features/orchestration/modules/communication/index.html#mod_view_sta__com___commm" xlink:actuate="onRequest" xlink:href="../features/orchestration/modules/communication/index.html#mod_view_sta__com___commm" xlink:show="new" xlink:title="../features/orchestration/modules/communication/index.html#mod_view_sta__com___commm" xlink:type="simple"><path d="M592.5,438 L716.123,438 A3.75,3.75 0 0 1 718.623,440.5 L725.623,460.2969 L767.5,460.2969 A2.5,2.5 0 0 1 770,462.7969 L770,532.5 A2.5,2.5 0 0 1 767.5,535 L592.5,535 A2.5,2.5 0 0 1 590,532.5 L590,440.5 A2.5,2.5 0 0 1 592.5,438 " fill="transparent" style="stroke:#000000;stroke-width:1.5;"/><line style="stroke:#000000;stroke-width:1.5;" x1="590" x2="725.623" y1="460.2969" y2="460.2969"/><text fill="#000000" font-family="sans-serif" font-size="14" font-weight="bold" lengthAdjust="spacing" textLength="122.623" x="594" y="452.9951">Communication</text></a><!--entity comp_arc_sta__orch__orchestration--><a href="../features/orchestration/modules/orchestration/orchestration.html#comp_arc_sta__orch__orchestration" target="_top" title="../features/orchestration/modules/orchestration/orchestration.html#comp_arc_sta__orch__orchestration" xlink:actuate="onRequest" xlink:href="../features/orchestration/modules/orchestration/orchestration.html#comp_arc_sta__orch__orchestration" xlink:show="new" xlink:title="../features/orchestration/modules/orchestration/orchestration.html#comp_arc_sta__orch__orchestration" xlink:type="simple"><rect fill="#F1F1F1" height="46.2969" rx="2.5" ry="2.5" style="stroke:#0000FF;stroke-width:2;" width="133.4404" x="355.5" y="194"/><rect fill="#F1F1F1" height="10" style="stroke:#0000FF;stroke-width:2;" width="15" x="468.9404" y="199"/><rect fill="#F1F1F1" height="2" style="stroke:#0000FF;stroke-width:2;" width="4" x="466.9404" y="201"/><rect fill="#F1F1F1" height="2" style="stroke:#0000FF;stroke-width:2;" width="4" x="466.9404" y="205"/><text fill="#000000" font-family="sans-serif" font-size="14" lengthAdjust="spacing" textLength="93.4404" x="370.5" y="226.9951">orchestration</text></a><!--entity comp_arc_sta__orch__runtime--><a href="../features/orchestration/modules/orchestration/runtime.html#comp_arc_sta__orch__runtime" target="_top" title="../features/orchestration/modules/orchestration/runtime.html#comp_arc_sta__orch__runtime" xlink:actuate="onRequest" xlink:href="../features/orchestration/modules/orchestration/runtime.html#comp_arc_sta__orch__runtime" xlink:show="new" xlink:title="../features/orchestration/modules/orchestration/runtime.html#comp_arc_sta__orch__runtime" xlink:type="simple"><rect fill="#F1F1F1" height="46.2969" rx="2.5" ry="2.5" style="stroke:#0000FF;stroke-width:2;" width="95.1318" x="225.5" y="194"/><rect fill="#F1F1F1" height="10" style="stroke:#0000FF;stroke-width:2;" width="15" x="300.6318" y="199"/><rect fill="#F1F1F1" height="2" style="stroke:#0000FF;stroke-width:2;" width="4" x="298.6318" y="201"/><rect fill="#F1F1F1" height="2" style="stroke:#0000FF;stroke-width:2;" width="4" x="298.6318" y="205"/><text fill="#000000" font-family="sans-serif" font-size="14" lengthAdjust="spacing" textLength="55.1318" x="240.5" y="226.9951">runtime</text></a><!--entity comp_arc_sta__logging__logging--><a href="../features/communication/modules/logging/index.html#comp_arc_sta__logging__logging" target="_top" title="../features/communication/modules/logging/index.html#comp_arc_sta__logging__logging" xlink:actuate="onRequest" xlink:href="../features/communication/modules/logging/index.html#comp_arc_sta__logging__logging" xlink:show="new" xlink:title="../features/communication/modules/logging/index.html#comp_arc_sta__logging__logging" xlink:type="simple"><rect fill="#F1F1F1" height="46.2969" rx="2.5" ry="2.5" style="stroke:#0000FF;stroke-width:2;" width="95.7881" x="171" y="473"/><rect fill="#F1F1F1" height="10" style="stroke:#0000FF;stroke-width:2;" width="15" x="246.7881" y="478"/><rect fill="#F1F1F1" height="2" style="stroke:#0000FF;stroke-width:2;" width="4" x="244.7881" y="480"/><rect fill="#F1F1F1" height="2" style="stroke:#0000FF;stroke-width:2;" width="4" x="244.7881" y="484"/><text fill="#000000" font-family="sans-serif" font-size="14" lengthAdjust="spacing" textLength="55.7881" x="186" y="505.9951">Logging</text></a><!--entity comp_arc_sta__tracing__tracing--><a href="../features/communication/modules/tracing/index.html#comp_arc_sta__tracing__tracing" target="_top" title="../features/communication/modules/tracing/index.html#comp_arc_sta__tracing__tracing" xlink:actuate="onRequest" xlink:href="../features/communication/modules/tracing/index.html#comp_arc_sta__tracing__tracing" xlink:show="new" xlink:title="../features/communication/modules/tracing/index.html#comp_arc_sta__tracing__tracing" xlink:type="simple"><rect fill="#F1F1F1" height="46.2969" rx="2.5" ry="2.5" style="stroke:#0000FF;stroke-width:2;" width="92.2334" x="22" y="473"/><rect fill="#F1F1F1" height="10" style="stroke:#0000FF;stroke-width:2;" width="15" x="94.2334" y="478"/><rect fill="#F1F1F1" height="2" style="stroke:#0000FF;stroke-width:2;" width="4" x="92.2334" y="480"/><rect fill="#F1F1F1" height="2" style="stroke:#0000FF;stroke-width:2;" width="4" x="92.2334" y="484"/><text fill="#000000" font-family="sans-serif" font-size="14" lengthAdjust="spacing" textLength="52.2334" x="37" y="505.9951">Tracing</text></a><!--entity comp_arc_sta__baselibs__containers--><a href="../features/orchestration/modules/baselibs/containers.html#comp_arc_sta__baselibs__containers" target="_top" title="../features/orchestration/modules/baselibs/containers.html#comp_arc_sta__baselibs__containers" xlink:actuate="onRequest" xlink:href="../features/orchestration/modules/baselibs/containers.html#comp_arc_sta__baselibs__containers" xlink:show="new" xlink:title="../features/orchestration/modules/baselibs/containers.html#comp_arc_sta__baselibs__containers" xlink:type="simple"><rect fill="#F1F1F1" height="46.2969" rx="2.5" ry="2.5" style="stroke:#0000FF;stroke-width:2;" width="115.708" x="434" y="473"/><rect fill="#F1F1F1" height="10" style="stroke:#0000FF;stroke-width:2;" width="15" x="529.708" y="478"/><rect fill="#F1F1F1" height="2" style="stroke:#0000FF;stroke-width:2;" width="4" x="527.708" y="480"/><rect fill="#F1F1F1" height="2" style="stroke:#0000FF;stroke-width:2;" width="4" x="527.708" y="484"/><text fill="#000000" font-family="sans-serif" font-size="14" lengthAdjust="spacing" textLength="75.708" x="449" y="505.9951">Containers</text></a><!--entity comp_arc_sta__baselibs__sync--><a href="../features/orchestration/modules/baselibs/sync.html#comp_arc_sta__baselibs__sync" target="_top" title="../features/orchestration/modules/baselibs/sync.html#comp_arc_sta__baselibs__sync" xlink:actuate="onRequest" xlink:href="../features/orchestration/modules/baselibs/sync.html#comp_arc_sta__baselibs__sync" xlink:show="new" xlink:title="../features/orchestration/modules/baselibs/sync.html#comp_arc_sta__baselibs__sync" xlink:type="simple"><rect fill="#F1F1F1" height="46.2969" rx="2.5" ry="2.5" style="stroke:#0000FF;stroke-width:2;" width="73.7422" x="325" y="473"/><rect fill="#F1F1F1" height="10" style="stroke:#0000FF;stroke-width:2;" width="15" x="378.7422" y="478"/><rect fill="#F1F1F1" height="2" style="stroke:#0000FF;stroke-width:2;" width="4" x="376.7422" y="480"/><rect fill="#F1F1F1" height="2" style="stroke:#0000FF;stroke-width:2;" width="4" x="376.7422" y="484"/><text fill="#000000" font-family="sans-serif" font-size="14" lengthAdjust="spacing" textLength="33.7422" x="340" y="505.9951">Sync</text></a><!--entity comp_arc_sta__communication__com--><a href="../features/orchestration/modules/communication/com.html#comp_arc_sta__communication__com" target="_top" title="../features/orchestration/modules/communication/com.html#comp_arc_sta__communication__com" xlink:actuate="onRequest" xlink:href="../features/orchestration/modules/communication/com.html#comp_arc_sta__communication__com" xlink:show="new" xlink:title="../features/orchestration/modules/communication/com.html#comp_arc_sta__communication__com" xlink:type="simple"><rect fill="#F1F1F1" height="46.2969" rx="2.5" ry="2.5" style="stroke:#0000FF;stroke-width:2;" width="148.2676" x="606" y="473"/><rect fill="#F1F1F1" height="10" style="stroke:#0000FF;stroke-width:2;" width="15" x="734.2676" y="478"/><rect fill="#F1F1F1" height="2" style="stroke:#0000FF;stroke-width:2;" width="4" x="732.2676" y="480"/><rect fill="#F1F1F1" height="2" style="stroke:#0000FF;stroke-width:2;" width="4" x="732.2676" y="484"/><text fill="#000000" font-family="sans-serif" font-size="14" lengthAdjust="spacing" textLength="108.2676" x="621" y="505.9951">communication</text></a><!--class logic_arc_int__orchestration__user--><a href="../features/orchestration/docs/architecture/index.html#logic_arc_int__orchestration__user" target="_top" title="../features/orchestration/docs/architecture/index.html#logic_arc_int__orchestration__user" xlink:actuate="onRequest" xlink:href="../features/orchestration/docs/architecture/index.html#logic_arc_int__orchestration__user" xlink:show="new" xlink:title="../features/orchestration/docs/architecture/index.html#logic_arc_int__orchestration__user" xlink:type="simple"><g id="elem_logic_arc_int__orchestration__user"><rect codeLine="13" fill="#F1F1F1" height="88.8906" id="logic_arc_int__orchestration__user" rx="2.5" ry="2.5" style="stroke:#181818;stroke-width:0.5;" width="195.0234" x="324.5" y="7"/><ellipse cx="339.5" cy="23" fill="#B4A7E5" rx="11" ry="11" style="stroke:#181818;stroke-width:1;"/><path d="M335.4219,18.7656 L335.4219,16.6094 L342.8125,16.6094 L342.8125,18.7656 L340.3438,18.7656 L340.3438,26.8438 L342.8125,26.8438 L342.8125,29 L335.4219,29 L335.4219,26.8438 L337.8906,26.8438 L337.8906,18.7656 L335.4219,18.7656 Z " fill="#000000"/><text fill="#000000" font-family="sans-serif" font-size="14" font-style="italic" lengthAdjust="spacing" textLength="163.0234" x="353.5" y="27.8467">Orchestration Interface</text><line style="stroke:#181818;stroke-width:0.5;" x1="325.5" x2="518.5234" y1="39" y2="39"/></g><a href="../features/orchestration/modules/orchestration/orchestration.html#logic_arc_int_op__orch__register_func" target="_top" title="../features/orchestration/modules/orchestration/orchestration.html#logic_arc_int_op__orch__register_func" xlink:actuate="onRequest" xlink:href="../features/orchestration/modules/orchestration/orchestration.html#logic_arc_int_op__orch__register_func" xlink:show="new" xlink:title="../features/orchestration/modules/orchestration/orchestration.html#logic_arc_int_op__orch__register_func" xlink:type="simple"><rect fill="#F1F1F1" height="10" style="stroke:transparent;stroke-width:1;" width="20" x="330.5" y="47.6484"/><ellipse cx="335.5" cy="52.6484" fill="#84BE84" rx="3" ry="3" style="stroke:#038048;stroke-width:1;"/></a></a><a href="../features/orchestration/modules/orchestration/orchestration.html#logic_arc_int_op__orch__register_func" target="_top" title="../features/orchestration/modules/orchestration/orchestration.html#logic_arc_int_op__orch__register_func" xlink:actuate="onRequest" xlink:href="../features/orchestration/modules/orchestration/orchestration.html#logic_arc_int_op__orch__register_func" xlink:show="new" xlink:title="../features/orchestration/modules/orchestration/orchestration.html#logic_arc_int_op__orch__register_func" xlink:type="simple"><text fill="#000000" font-family="sans-serif" font-size="14" lengthAdjust="spacing" textLength="131.3115" x="344.5" y="55.9951">register function ()</text></a><a href="../features/orchestration/modules/orchestration/orchestration.html#logic_arc_int_op__orch__register_event" target="_top" title="../features/orchestration/modules/orchestration/orchestration.html#logic_arc_int_op__orch__register_event" xlink:actuate="onRequest" xlink:href="../features/orchestration/modules/orchestration/orchestration.html#logic_arc_int_op__orch__register_event" xlink:show="new" xlink:title="../features/orchestration/modules/orchestration/orchestration.html#logic_arc_int_op__orch__register_event" xlink:type="simple"><rect fill="#F1F1F1" height="10" style="stroke:transparent;stroke-width:1;" width="20" x="330.5" y="63.9453"/><ellipse cx="335.5" cy="68.9453" fill="#84BE84" rx="3" ry="3" style="stroke:#038048;stroke-width:1;"/></a><a href="../features/orchestration/modules/orchestration/orchestration.html#logic_arc_int_op__orch__register_event" target="_top" title="../features/orchestration/modules/orchestration/orchestration.html#logic_arc_int_op__orch__register_event" xlink:actuate="onRequest" xlink:href="../features/orchestration/modules/orchestration/orchestration.html#logic_arc_int_op__orch__register_event" xlink:show="new" xlink:title="../features/orchestration/modules/orchestration/orchestration.html#logic_arc_int_op__orch__register_event" xlink:type="simple"><text fill="#000000" font-family="sans-serif" font-size="14" lengthAdjust="spacing" textLength="113.9961" x="344.5" y="72.292">register event ()</text></a><a href="../features/orchestration/modules/orchestration/orchestration.html#logic_arc_int_op__orch__add_program" target="_top" title="../features/orchestration/modules/orchestration/orchestration.html#logic_arc_int_op__orch__add_program" xlink:actuate="onRequest" xlink:href="../features/orchestration/modules/orchestration/orchestration.html#logic_arc_int_op__orch__add_program" xlink:show="new" xlink:title="../features/orchestration/modules/orchestration/orchestration.html#logic_arc_int_op__orch__add_program" xlink:type="simple"><rect fill="#F1F1F1" height="10" style="stroke:transparent;stroke-width:1;" width="20" x="330.5" y="80.2422"/><ellipse cx="335.5" cy="85.2422" fill="#84BE84" rx="3" ry="3" style="stroke:#038048;stroke-width:1;"/></a><a href="../features/orchestration/modules/orchestration/orchestration.html#logic_arc_int_op__orch__add_program" target="_top" title="../features/orchestration/modules/orchestration/orchestration.html#logic_arc_int_op__orch__add_program" xlink:actuate="onRequest" xlink:href="../features/orchestration/modules/orchestration/orchestration.html#logic_arc_int_op__orch__add_program" xlink:show="new" xlink:title="../features/orchestration/modules/orchestration/orchestration.html#logic_arc_int_op__orch__add_program" xlink:type="simple"><text fill="#000000" font-family="sans-serif" font-size="14" lengthAdjust="spacing" textLength="106.2441" x="344.5" y="88.5889">add program ()</text></a><!--class logic_arc_int__logging__logging--><a href="../features/communication/modules/logging/index.html#logic_arc_int__logging__logging" target="_top" title="../features/communication/modules/logging/index.html#logic_arc_int__logging__logging" xlink:actuate="onRequest" xlink:href="../features/communication/modules/logging/index.html#logic_arc_int__logging__logging" xlink:show="new" xlink:title="../features/communication/modules/logging/index.html#logic_arc_int__logging__logging" xlink:type="simple"><g id="elem_logic_arc_int__logging__logging"><rect codeLine="36" fill="#F1F1F1" height="56.2969" id="logic_arc_int__logging__logging" rx="2.5" ry="2.5" style="stroke:#181818;stroke-width:0.5;" width="87.7881" x="175" y="319"/><ellipse cx="190" cy="335" fill="#B4A7E5" rx="11" ry="11" style="stroke:#181818;stroke-width:1;"/><path d="M185.9219,330.7656 L185.9219,328.6094 L193.3125,328.6094 L193.3125,330.7656 L190.8438,330.7656 L190.8438,338.8438 L193.3125,338.8438 L193.3125,341 L185.9219,341 L185.9219,338.8438 L188.3906,338.8438 L188.3906,330.7656 L185.9219,330.7656 Z " fill="#000000"/><text fill="#000000" font-family="sans-serif" font-size="14" font-style="italic" lengthAdjust="spacing" textLength="55.7881" x="204" y="339.8467">Logging</text><line style="stroke:#181818;stroke-width:0.5;" x1="176" x2="261.7881" y1="351" y2="351"/></g><a href="../features/communication/modules/logging/index.html#logic_arc_int_op__logging__isenabled" target="_top" title="../features/communication/modules/logging/index.html#logic_arc_int_op__logging__isenabled" xlink:actuate="onRequest" xlink:href="../features/communication/modules/logging/index.html#logic_arc_int_op__logging__isenabled" xlink:show="new" xlink:title="../features/communication/modules/logging/index.html#logic_arc_int_op__logging__isenabled" xlink:type="simple"><rect fill="#F1F1F1" height="10" style="stroke:transparent;stroke-width:1;" width="20" x="181" y="359.6484"/><ellipse cx="186" cy="364.6484" fill="#84BE84" rx="3" ry="3" style="stroke:#038048;stroke-width:1;"/></a></a><a href="../features/communication/modules/logging/index.html#logic_arc_int_op__logging__isenabled" target="_top" title="../features/communication/modules/logging/index.html#logic_arc_int_op__logging__isenabled" xlink:actuate="onRequest" xlink:href="../features/communication/modules/logging/index.html#logic_arc_int_op__logging__isenabled" xlink:show="new" xlink:title="../features/communication/modules/logging/index.html#logic_arc_int_op__logging__isenabled" xlink:type="simple"><text fill="#000000" font-family="sans-serif" font-size="14" lengthAdjust="spacing" textLength="40.626" x="195" y="367.9951">Log ()</text></a><!--class logic_arc_int__tracing__tracing--><a href="../features/communication/modules/tracing/index.html#logic_arc_int__tracing__tracing" target="_top" title="../features/communication/modules/tracing/index.html#logic_arc_int__tracing__tracing" xlink:actuate="onRequest" xlink:href="../features/communication/modules/tracing/index.html#logic_arc_int__tracing__tracing" xlink:show="new" xlink:title="../features/communication/modules/tracing/index.html#logic_arc_int__tracing__tracing" xlink:type="simple"><g id="elem_logic_arc_int__tracing__tracing"><rect codeLine="48" fill="#F1F1F1" height="56.2969" id="logic_arc_int__tracing__tracing" rx="2.5" ry="2.5" style="stroke:#181818;stroke-width:0.5;" width="84.2334" x="26" y="319"/><ellipse cx="41" cy="335" fill="#B4A7E5" rx="11" ry="11" style="stroke:#181818;stroke-width:1;"/><path d="M36.9219,330.7656 L36.9219,328.6094 L44.3125,328.6094 L44.3125,330.7656 L41.8438,330.7656 L41.8438,338.8438 L44.3125,338.8438 L44.3125,341 L36.9219,341 L36.9219,338.8438 L39.3906,338.8438 L39.3906,330.7656 L36.9219,330.7656 Z " fill="#000000"/><text fill="#000000" font-family="sans-serif" font-size="14" font-style="italic" lengthAdjust="spacing" textLength="52.2334" x="55" y="339.8467">Tracing</text><line style="stroke:#181818;stroke-width:0.5;" x1="27" x2="109.2334" y1="351" y2="351"/></g><a href="../features/communication/modules/tracing/index.html#logic_arc_int_op__tracing__trace" target="_top" title="../features/communication/modules/tracing/index.html#logic_arc_int_op__tracing__trace" xlink:actuate="onRequest" xlink:href="../features/communication/modules/tracing/index.html#logic_arc_int_op__tracing__trace" xlink:show="new" xlink:title="../features/communication/modules/tracing/index.html#logic_arc_int_op__tracing__trace" xlink:type="simple"><rect fill="#F1F1F1" height="10" style="stroke:transparent;stroke-width:1;" width="20" x="32" y="359.6484"/><ellipse cx="37" cy="364.6484" fill="#84BE84" rx="3" ry="3" style="stroke:#038048;stroke-width:1;"/></a></a><a href="../features/communication/modules/tracing/index.html#logic_arc_int_op__tracing__trace" target="_top" title="../features/communication/modules/tracing/index.html#logic_arc_int_op__tracing__trace" xlink:actuate="onRequest" xlink:href="../features/communication/modules/tracing/index.html#logic_arc_int_op__tracing__trace" xlink:show="new" xlink:title="../features/communication/modules/tracing/index.html#logic_arc_int_op__tracing__trace" xlink:type="simple"><text fill="#000000" font-family="sans-serif" font-size="14" lengthAdjust="spacing" textLength="54.5713" x="46" y="367.9951">Trace ()</text></a><!--class logic_arc_int__baselibs__cont--><a href="../features/orchestration/modules/baselibs/containers.html#logic_arc_int__baselibs__cont" target="_top" title="../features/orchestration/modules/baselibs/containers.html#logic_arc_int__baselibs__cont" xlink:actuate="onRequest" xlink:href="../features/orchestration/modules/baselibs/containers.html#logic_arc_int__baselibs__cont" xlink:show="new" xlink:title="../features/orchestration/modules/baselibs/containers.html#logic_arc_int__baselibs__cont" xlink:type="simple"><g id="elem_logic_arc_int__baselibs__cont"><rect codeLine="60" fill="#F1F1F1" height="40" id="logic_arc_int__baselibs__cont" rx="2.5" ry="2.5" style="stroke:#181818;stroke-width:0.5;" width="107.708" x="439" y="327"/><ellipse cx="454" cy="343" fill="#B4A7E5" rx="11" ry="11" style="stroke:#181818;stroke-width:1;"/><path d="M449.9219,338.7656 L449.9219,336.6094 L457.3125,336.6094 L457.3125,338.7656 L454.8438,338.7656 L454.8438,346.8438 L457.3125,346.8438 L457.3125,349 L449.9219,349 L449.9219,346.8438 L452.3906,346.8438 L452.3906,338.7656 L449.9219,338.7656 Z " fill="#000000"/><text fill="#000000" font-family="sans-serif" font-size="14" font-style="italic" lengthAdjust="spacing" textLength="75.708" x="468" y="347.8467">Containers</text><line style="stroke:#181818;stroke-width:0.5;" x1="440" x2="545.708" y1="359" y2="359"/></g></a><!--class logic_arc_int__baselibs__sync--><a href="../features/orchestration/modules/baselibs/sync.html#logic_arc_int__baselibs__sync" target="_top" title="../features/orchestration/modules/baselibs/sync.html#logic_arc_int__baselibs__sync" xlink:actuate="onRequest" xlink:href="../features/orchestration/modules/baselibs/sync.html#logic_arc_int__baselibs__sync" xlink:show="new" xlink:title="../features/orchestration/modules/baselibs/sync.html#logic_arc_int__baselibs__sync" xlink:type="simple"><g id="elem_logic_arc_int__baselibs__sync"><rect codeLine="71" fill="#F1F1F1" height="40" id="logic_arc_int__baselibs__sync" rx="2.5" ry="2.5" style="stroke:#181818;stroke-width:0.5;" width="65.7422" x="329" y="327"/><ellipse cx="344" cy="343" fill="#B4A7E5" rx="11" ry="11" style="stroke:#181818;stroke-width:1;"/><path d="M339.9219,338.7656 L339.9219,336.6094 L347.3125,336.6094 L347.3125,338.7656 L344.8438,338.7656 L344.8438,346.8438 L347.3125,346.8438 L347.3125,349 L339.9219,349 L339.9219,346.8438 L342.3906,346.8438 L342.3906,338.7656 L339.9219,338.7656 Z " fill="#000000"/><text fill="#000000" font-family="sans-serif" font-size="14" font-style="italic" lengthAdjust="spacing" textLength="33.7422" x="358" y="347.8467">Sync</text><line style="stroke:#181818;stroke-width:0.5;" x1="330" x2="393.7422" y1="359" y2="359"/></g></a><!--class logic_arc_int__communication__com--><a href="../features/orchestration/modules/communication/com.html#logic_arc_int__communication__com" target="_top" title="../features/orchestration/modules/communication/com.html#logic_arc_int__communication__com" xlink:actuate="onRequest" xlink:href="../features/orchestration/modules/communication/com.html#logic_arc_int__communication__com" xlink:show="new" xlink:title="../features/orchestration/modules/communication/com.html#logic_arc_int__communication__com" xlink:type="simple"><g id="elem_logic_arc_int__communication__com"><rect codeLine="82" fill="#F1F1F1" height="40" id="logic_arc_int__communication__com" rx="2.5" ry="2.5" style="stroke:#181818;stroke-width:0.5;" width="140.2676" x="596" y="327"/><ellipse cx="611" cy="343" fill="#B4A7E5" rx="11" ry="11" style="stroke:#181818;stroke-width:1;"/><path d="M606.9219,338.7656 L606.9219,336.6094 L614.3125,336.6094 L614.3125,338.7656 L611.8438,338.7656 L611.8438,346.8438 L614.3125,346.8438 L614.3125,349 L606.9219,349 L606.9219,346.8438 L609.3906,346.8438 L609.3906,338.7656 L606.9219,338.7656 Z " fill="#000000"/><text fill="#000000" font-family="sans-serif" font-size="14" font-style="italic" lengthAdjust="spacing" textLength="108.2676" x="625" y="347.8467">communication</text><line style="stroke:#181818;stroke-width:0.5;" x1="597" x2="735.2676" y1="359" y2="359"/></g></a><!--reverse link logic_arc_int__orchestration__user to comp_arc_sta__orch__orchestration--><g id="link_logic_arc_int__orchestration__user_comp_arc_sta__orch__orchestration"><path codeLine="88" d="M422,102.31 C422,133.72 422,168.72 422,193.67 " fill="transparent" id="logic_arc_int__orchestration__user-backto-comp_arc_sta__orch__orchestration" style="stroke:#181818;stroke-width:1;"/><polygon fill="#181818" points="422,96.31,418,105.31,422,101.31,426,105.31,422,96.31" style="stroke:#181818;stroke-width:1;"/><text fill="#000000" font-family="sans-serif" font-size="13" lengthAdjust="spacing" textLength="76.9082" x="423" y="139.0669">implements</text></g><!--link comp_arc_sta__orch__orchestration to logic_arc_int__communication__com--><g id="link_comp_arc_sta__orch__orchestration_logic_arc_int__communication__com"><path codeLine="89" d="M488.84,238.11 C514.35,246.96 543.22,258.45 568,272 C596.43,287.55 621.0864,306.8247 640.1364,323.0847 " fill="transparent" id="comp_arc_sta__orch__orchestration-to-logic_arc_int__communication__com" style="stroke:#008000;stroke-width:1;"/><polygon fill="#008000" points="644.7,326.98,640.4514,318.0947,640.897,323.7339,635.2577,324.1795,644.7,326.98" style="stroke:#008000;stroke-width:1;"/><text fill="#000000" font-family="sans-serif" font-size="13" lengthAdjust="spacing" textLength="29.7832" x="594" y="285.0669">uses</text></g><!--link comp_arc_sta__orch__orchestration to logic_arc_int__tracing__tracing--><g id="link_comp_arc_sta__orch__orchestration_logic_arc_int__tracing__tracing"><path codeLine="90" d="M389.98,240.03 C374.9,249.2 356.25,258.88 338,264 C300.73,274.45 200.34,258.68 164,272 C137.13,281.85 116.0824,298.0112 98.1624,314.8512 " fill="transparent" id="comp_arc_sta__orch__orchestration-to-logic_arc_int__tracing__tracing" style="stroke:#008000;stroke-width:1;"/><polygon fill="#008000" points="93.79,318.96,103.0878,315.7116,97.4336,315.536,97.6093,309.8818,93.79,318.96" style="stroke:#008000;stroke-width:1;"/><text fill="#000000" font-family="sans-serif" font-size="13" lengthAdjust="spacing" textLength="29.7832" x="165" y="285.0669">uses</text></g><!--reverse link logic_arc_int__baselibs__sync to comp_arc_sta__baselibs__sync--><g id="link_logic_arc_int__baselibs__sync_comp_arc_sta__baselibs__sync"><path codeLine="91" d="M362,373.22 C362,400.46 362,444.17 362,472.9 " fill="transparent" id="logic_arc_int__baselibs__sync-backto-comp_arc_sta__baselibs__sync" style="stroke:#181818;stroke-width:1;"/><polygon fill="#181818" points="362,367.22,358,376.22,362,372.22,366,376.22,362,367.22" style="stroke:#181818;stroke-width:1;"/><text fill="#000000" font-family="sans-serif" font-size="13" lengthAdjust="spacing" textLength="76.9082" x="363" y="418.0669">implements</text></g><!--link comp_arc_sta__orch__orchestration to logic_arc_int__logging__logging--><g id="link_comp_arc_sta__orch__orchestration_logic_arc_int__logging__logging"><path codeLine="92" d="M388.59,240.11 C373.69,248.94 355.57,258.34 338,264 C310.3,272.93 298.09,257.25 273,272 C254.63,282.8 243.6025,297.3243 234.5025,313.7143 " fill="transparent" id="comp_arc_sta__orch__orchestration-to-logic_arc_int__logging__logging" style="stroke:#008000;stroke-width:1;"/><polygon fill="#008000" points="231.59,318.96,239.4559,313.0331,234.0171,314.5886,232.4616,309.1498,231.59,318.96" style="stroke:#008000;stroke-width:1;"/><text fill="#000000" font-family="sans-serif" font-size="13" lengthAdjust="spacing" textLength="29.7832" x="274" y="285.0669">uses</text></g><!--reverse link logic_arc_int__communication__com to comp_arc_sta__communication__com--><g id="link_logic_arc_int__communication__com_comp_arc_sta__communication__com"><path codeLine="93" d="M668.3979,373.1931 C670.9879,400.4331 675.16,444.17 677.9,472.9 " fill="transparent" id="logic_arc_int__communication__com-backto-comp_arc_sta__communication__com" style="stroke:#181818;stroke-width:1;"/><polygon fill="#181818" points="667.83,367.22,664.6998,376.5582,668.3033,372.1976,672.6639,375.801,667.83,367.22" style="stroke:#181818;stroke-width:1;"/><text fill="#000000" font-family="sans-serif" font-size="13" lengthAdjust="spacing" textLength="76.9082" x="674" y="418.0669">implements</text></g><!--reverse link logic_arc_int__baselibs__cont to comp_arc_sta__baselibs__containers--><g id="link_logic_arc_int__baselibs__cont_comp_arc_sta__baselibs__containers"><path codeLine="94" d="M492.8282,373.2199 C492.6382,400.4599 492.35,444.17 492.15,472.9 " fill="transparent" id="logic_arc_int__baselibs__cont-backto-comp_arc_sta__baselibs__containers" style="stroke:#181818;stroke-width:1;"/><polygon fill="#181818" points="492.87,367.22,488.8073,376.1919,492.8351,372.2199,496.8071,376.2477,492.87,367.22" style="stroke:#181818;stroke-width:1;"/><text fill="#000000" font-family="sans-serif" font-size="13" lengthAdjust="spacing" textLength="76.9082" x="493" y="418.0669">implements</text></g><!--link comp_arc_sta__orch__orchestration to logic_arc_int__baselibs__cont--><g id="link_comp_arc_sta__orch__orchestration_logic_arc_int__baselibs__cont"><path codeLine="95" d="M488.73,239.58 C503.12,247.46 516.54,258.01 525,272 C535.65,289.61 527.263,306.7006 515.003,322.0606 " fill="transparent" id="comp_arc_sta__orch__orchestration-to-logic_arc_int__baselibs__cont" style="stroke:#008000;stroke-width:1;"/><polygon fill="#008000" points="511.26,326.75,520.0007,322.2112,514.3791,322.8422,513.7482,317.2206,511.26,326.75" style="stroke:#008000;stroke-width:1;"/><text fill="#000000" font-family="sans-serif" font-size="13" lengthAdjust="spacing" textLength="29.7832" x="530" y="285.0669">uses</text></g><!--link comp_arc_sta__orch__runtime to logic_arc_int__tracing__tracing--><g id="link_comp_arc_sta__orch__runtime_logic_arc_int__tracing__tracing"><path codeLine="96" d="M225.18,223.59 C169.77,231.17 83.56,246.74 64,272 C53.92,285.02 53.5706,297.6737 57.0906,312.9237 " fill="transparent" id="comp_arc_sta__orch__runtime-to-logic_arc_int__tracing__tracing" style="stroke:#008000;stroke-width:1;"/><polygon fill="#008000" points="58.44,318.77,60.3134,309.101,57.3155,313.8981,52.5183,310.9002,58.44,318.77" style="stroke:#008000;stroke-width:1;"/><text fill="#000000" font-family="sans-serif" font-size="13" lengthAdjust="spacing" textLength="29.7832" x="65" y="285.0669">uses</text></g><!--reverse link logic_arc_int__logging__logging to comp_arc_sta__logging__logging--><g id="link_logic_arc_int__logging__logging_comp_arc_sta__logging__logging"><path codeLine="97" d="M219,381.31 C219,409.37 219,446.54 219,472.65 " fill="transparent" id="logic_arc_int__logging__logging-backto-comp_arc_sta__logging__logging" style="stroke:#181818;stroke-width:1;"/><polygon fill="#181818" points="219,375.31,215,384.31,219,380.31,223,384.31,219,375.31" style="stroke:#181818;stroke-width:1;"/><text fill="#000000" font-family="sans-serif" font-size="13" lengthAdjust="spacing" textLength="76.9082" x="220" y="418.0669">implements</text></g><!--link comp_arc_sta__orch__orchestration to logic_arc_int__baselibs__sync--><g id="link_comp_arc_sta__orch__orchestration_logic_arc_int__baselibs__sync"><path codeLine="98" d="M411.69,240 C400.23,264.45 384.456,298.097 373.556,321.357 " fill="transparent" id="comp_arc_sta__orch__orchestration-to-logic_arc_int__baselibs__sync" style="stroke:#008000;stroke-width:1;"/><polygon fill="#008000" points="371.01,326.79,378.451,320.3378,373.1317,322.2625,371.207,316.9431,371.01,326.79" style="stroke:#008000;stroke-width:1;"/><text fill="#000000" font-family="sans-serif" font-size="13" lengthAdjust="spacing" textLength="29.7832" x="396" y="285.0669">uses</text></g><!--link comp_arc_sta__orch__runtime to logic_arc_int__logging__logging--><g id="link_comp_arc_sta__orch__runtime_logic_arc_int__logging__logging"><path codeLine="99" d="M234.1,240.02 C222.93,248.46 212.12,259.2 206,272 C199.02,286.59 199.9703,298.712 204.7503,313.202 " fill="transparent" id="comp_arc_sta__orch__runtime-to-logic_arc_int__logging__logging" style="stroke:#008000;stroke-width:1;"/><polygon fill="#008000" points="206.63,318.9,207.6092,309.0999,205.0636,314.1517,200.0119,311.6062,206.63,318.9" style="stroke:#008000;stroke-width:1;"/><text fill="#000000" font-family="sans-serif" font-size="13" lengthAdjust="spacing" textLength="29.7832" x="207" y="285.0669">uses</text></g><!--link comp_arc_sta__orch__runtime to logic_arc_int__baselibs__sync--><g id="link_comp_arc_sta__orch__runtime_logic_arc_int__baselibs__sync"><path codeLine="100" d="M289.29,240.22 C296.34,249.93 304.65,261.48 312,272 C324.88,290.43 335.8818,306.7277 345.8818,321.7277 " fill="transparent" id="comp_arc_sta__orch__runtime-to-logic_arc_int__baselibs__sync" style="stroke:#008000;stroke-width:1;"/><polygon fill="#008000" points="349.21,326.72,347.5459,317.0127,346.4365,322.5597,340.8895,321.4503,349.21,326.72" style="stroke:#008000;stroke-width:1;"/><text fill="#000000" font-family="sans-serif" font-size="13" lengthAdjust="spacing" textLength="29.7832" x="324" y="285.0669">uses</text></g><!--reverse link logic_arc_int__tracing__tracing to comp_arc_sta__tracing__tracing--><g id="link_logic_arc_int__tracing__tracing_comp_arc_sta__tracing__tracing"><path codeLine="101" d="M68,381.31 C68,409.37 68,446.54 68,472.65 " fill="transparent" id="logic_arc_int__tracing__tracing-backto-comp_arc_sta__tracing__tracing" style="stroke:#181818;stroke-width:1;"/><polygon fill="#181818" points="68,375.31,64,384.31,68,380.31,72,384.31,68,375.31" style="stroke:#181818;stroke-width:1;"/><text fill="#000000" font-family="sans-serif" font-size="13" lengthAdjust="spacing" textLength="76.9082" x="69" y="418.0669">implements</text></g><!--link comp_arc_sta__orch__runtime to logic_arc_int__baselibs__cont--><g id="link_comp_arc_sta__orch__runtime_logic_arc_int__baselibs__cont"><path codeLine="102" d="M297.45,240.02 C308.94,249.06 323.32,258.65 338,264 C378.23,278.66 396.23,251.83 434,272 C456.76,284.15 470.8754,303.9855 480.6454,321.5655 " fill="transparent" id="comp_arc_sta__orch__runtime-to-logic_arc_int__baselibs__cont" style="stroke:#008000;stroke-width:1;"/><polygon fill="#008000" points="483.56,326.81,482.6844,317.0001,481.1312,322.4396,475.6917,320.8863,483.56,326.81" style="stroke:#008000;stroke-width:1;"/><text fill="#000000" font-family="sans-serif" font-size="13" lengthAdjust="spacing" textLength="29.7832" x="455" y="285.0669">uses</text></g><!--SRC=[rPTTQzim58Rl_Ij4Uz6DqNZiieHSB5U3mc3hNGb2iKySKLioajmsZFxtoP-HBFaZJJhOJR2ju_UyvvmdiatIbB_WZBvIbWIAvqXnjELAyGp5L42aA6V1diQ0f081N1rogCyXozK14QK4tHOAPB2Kwf32AbWGITCj-XFSKmPhddA1jca1rUd3daPF3AH4tnPVWxTW6JOt1PHf_Hs905tz5D4Uf1AaJ8v-j0jNY4YKyeH6c8W8wnimvcOeneK4WT3Zus8Hxe2eGe0ChP0mvf4CzUrxgdHnEY2aB8RNnLvbwVMq-6QZwmg-8049BHk2TWMhUeG-VTPvHn9dF2vIvwfrvZF1yze7ncrANARSR3Qc2tW6flwXXIfVxO74CSe5JmJ9Fjw0JeQRP6Nsu0s5DsW05tGJeY38IVH4aZvK5KhQ3Nwcy8Ab8cq2oyiuIVvY39eczJLCcgQ8PpbdvVokkEEnNApwCEXnkQp-RgiLkaZd9nFMfgl6sqQgTXl5Y88fci5W6StwMGKq6iFMcm33T9ksiklXnwRcdYU9tXazlAJrIdVGXqMxoGf68zj-4poCIL_MOSHqP5ViE1hgx6nhu_f6KnjJHbEjAyRURjhlRRSNw-Y4Rhk7QokU7UkTMSezgaj49J2oJI4-Rb9MFpgy7WI9_7YfUgKxcDUC9dWOhxwiWvVfo1w_u-Wql3pMnlKDl1fJ1bxM5GClqtuFWujrT4AtnQkq0hC1cynJ0cQbWYDSLZSwkBuJ2IdTIlohaCg3sBPTFnuA7JdlgTVUCOpQWBn3t9epHVIheP0Uw8uYKHTsuXEZStfKyE7dosGWU7HfK6Xrs66nLrWF6piVEg-KKUqQI7yP_niilmyi6iL4we3t0bBUEuv66M50KRgPZKDdVN1ObVVtMXvLDH4uckw6lpQt9C_mTJjmzPjby_pPUzpWr0rTPzAHuyaUYhLUdPuuTjkZFlEDtirYZDzQD3XOkzSD3jp2UgFpL7PEGPFg9XoUaeBfRv3RudOruyly3j4iJo7JyvLeZcpyU9q80BPnvTqoxf3ESRPk_sdkL-tzPttrso6NBBt_FkktwA78PzFNns6htiVnUFLbu2MhxoiF3xtzqZj_tCwNYQzaTomVKNGDqtb5pmDeljuSTyxRjw-5xZIcMdYQFPEOlm00]--></g></svg>