<svg xmlns="http://www.w3.org/2000/svg" xmlns:xlink="http://www.w3.org/1999/xlink" contentStyleType="text/css" data-diagram-type="CLASS" height="693px" preserveAspectRatio="none" style="width:797px;height:693px;background:#FFFFFF;" version="1.1" viewBox="0 0 797 693" width="797px" zoomAndPan="magnify"><defs/><g><!--cluster mod_view_sta__orch__orchestration--><a href="../features/orchestration/modules/orchestration/index.html#mod_view_sta__orch__orchestration" target="_top" title="../features/orchestration/modules/orchestration/index.html#mod_view_sta__orch__orchestration" xlink:actuate="onRequest" xlink:href="../features/orchestration/modules/orchestration/index.html#mod_view_sta__orch__orchestration" xlink:show="new" xlink:title="../features/orchestration/modules/orchestration/index.html#mod_view_sta__orch__orchestration" xlink:type="simple"><path d="M267.5,310.5 L377.5195,310.5 A3.75,3.75 0 0 1 380.0195,313 L387.0195,332.7969 L558.5,332.7969 A2.5,2.5 0 0 1 561,335.2969 L561,405 A2.5,2.5 0 0 1 558.5,407.5 L267.5,407.5 A2.5,2.5 0 0 1 265,405 L265,313 A2.5,2.5 0 0 1 267.5,310.5 " fill="transparent" style="stroke:#000000;stroke-width:1.5;"/><line style="stroke:#000000;stroke-width:1.5;" x1="265" x2="387.0195" y1="332.7969" y2="332.7969"/><text fill="#000000" font-family="sans-serif" font-size="14" font-weight="bold" lengthAdjust="spacing" textLength="109.0195" x="269" y="325.4951">Orchestration</text></a><!--cluster mod_view_sta__logging__logging--><a href="../features/communication/modules/logging/index.html#mod_view_sta__logging__logging" target="_top" title="../features/communication/modules/logging/index.html#mod_view_sta__logging__logging" xlink:actuate="onRequest" xlink:href="../features/communication/modules/logging/index.html#mod_view_sta__logging__logging" xlink:show="new" xlink:title="../features/communication/modules/logging/index.html#mod_view_sta__logging__logging" xlink:type="simple"><path d="M360.5,589.5 L424.8691,589.5 A3.75,3.75 0 0 1 427.3691,592 L434.3691,611.7969 L483.5,611.7969 A2.5,2.5 0 0 1 486,614.2969 L486,684 A2.5,2.5 0 0 1 483.5,686.5 L360.5,686.5 A2.5,2.5 0 0 1 358,684 L358,592 A2.5,2.5 0 0 1 360.5,589.5 " fill="transparent" style="stroke:#000000;stroke-width:1.5;"/><line style="stroke:#000000;stroke-width:1.5;" x1="358" x2="434.3691" y1="611.7969" y2="611.7969"/><text fill="#000000" font-family="sans-serif" font-size="14" font-weight="bold" lengthAdjust="spacing" textLength="63.3691" x="362" y="604.4951">Logging</text></a><!--cluster mod_view_sta__tracing__tracing--><a href="../features/communication/modules/tracing/index.html#mod_view_sta__tracing__tracing" target="_top" title="../features/communication/modules/tracing/index.html#mod_view_sta__tracing__tracing" xlink:actuate="onRequest" xlink:href="../features/communication/modules/tracing/index.html#mod_view_sta__tracing__tracing" xlink:show="new" xlink:title="../features/communication/modules/tracing/index.html#mod_view_sta__tracing__tracing" xlink:type="simple"><path d="M8.5,589.5 L68.4873,589.5 A3.75,3.75 0 0 1 70.9873,592 L77.9873,611.7969 L127.5,611.7969 A2.5,2.5 0 0 1 130,614.2969 L130,684 A2.5,2.5 0 0 1 127.5,686.5 L8.5,686.5 A2.5,2.5 0 0 1 6,684 L6,592 A2.5,2.5 0 0 1 8.5,589.5 " fill="transparent" style="stroke:#000000;stroke-width:1.5;"/><line style="stroke:#000000;stroke-width:1.5;" x1="6" x2="77.9873" y1="611.7969" y2="611.7969"/><text fill="#000000" font-family="sans-serif" font-size="14" font-weight="bold" lengthAdjust="spacing" textLength="58.9873" x="10" y="604.4951">Tracing</text></a><!--cluster mod_view_sta__baselibs___baselibsrust--><a href="../features/orchestration/modules/baselibs/index.html#mod_view_sta__baselibs___baselibsrust" target="_top" title="../features/orchestration/modules/baselibs/index.html#mod_view_sta__baselibs___baselibsrust" xlink:actuate="onRequest" xlink:href="../features/orchestration/modules/baselibs/index.html#mod_view_sta__baselibs___baselibsrust" xlink:show="new" xlink:title="../features/orchestration/modules/baselibs/index.html#mod_view_sta__baselibs___baselibsrust" xlink:type="simple"><path d="M512.5,589.5 L622.1709,589.5 A3.75,3.75 0 0 1 624.6709,592 L631.6709,611.7969 L764.5,611.7969 A2.5,2.5 0 0 1 767,614.2969 L767,684 A2.5,2.5 0 0 1 764.5,686.5 L512.5,686.5 A2.5,2.5 0 0 1 510,684 L510,592 A2.5,2.5 0 0 1 512.5,589.5 " fill="transparent" style="stroke:#000000;stroke-width:1.5;"/><line style="stroke:#000000;stroke-width:1.5;" x1="510" x2="631.6709" y1="611.7969" y2="611.7969"/><text fill="#000000" font-family="sans-serif" font-size="14" font-weight="bold" lengthAdjust="spacing" textLength="108.6709" x="514" y="604.4951">Baselibs_Rust</text></a><!--cluster mod_view_sta__com___commm--><a href="../features/orchestration/modules/communication/index.html#mod_view_sta__com___commm" target="_top" title="../features/orchestration/modules/communication/index.html#mod_view_sta__com___commm" xlink:actuate="onRequest" xlink:href="../features/orchestration/modules/communication/index.html#mod_view_sta__com___commm" xlink:show="new" xlink:title="../features/orchestration/modules/communication/index.html#mod_view_sta__com___commm" xlink:type="simple"><path d="M156.5,589.5 L280.123,589.5 A3.75,3.75 0 0 1 282.623,592 L289.623,611.7969 L331.5,611.7969 A2.5,2.5 0 0 1 334,614.2969 L334,684 A2.5,2.5 0 0 1 331.5,686.5 L156.5,686.5 A2.5,2.5 0 0 1 154,684 L154,592 A2.5,2.5 0 0 1 156.5,589.5 " fill="transparent" style="stroke:#000000;stroke-width:1.5;"/><line style="stroke:#000000;stroke-width:1.5;" x1="154" x2="289.623" y1="611.7969" y2="611.7969"/><text fill="#000000" font-family="sans-serif" font-size="14" font-weight="bold" lengthAdjust="spacing" textLength="122.623" x="158" y="604.4951">Communication</text></a><!--entity comp_arc_sta__orch__orchestration--><a href="../features/orchestration/modules/orchestration/orchestration.html#comp_arc_sta__orch__orchestration" target="_top" title="../features/orchestration/modules/orchestration/orchestration.html#comp_arc_sta__orch__orchestration" xlink:actuate="onRequest" xlink:href="../features/orchestration/modules/orchestration/orchestration.html#comp_arc_sta__orch__orchestration" xlink:show="new" xlink:title="../features/orchestration/modules/orchestration/orchestration.html#comp_arc_sta__orch__orchestration" xlink:type="simple"><rect fill="#F1F1F1" height="46.2969" rx="2.5" ry="2.5" style="stroke:#0000FF;stroke-width:2;" width="133.4404" x="281.5" y="345.5"/><rect fill="#F1F1F1" height="10" style="stroke:#0000FF;stroke-width:2;" width="15" x="394.9404" y="350.5"/><rect fill="#F1F1F1" height="2" style="stroke:#0000FF;stroke-width:2;" width="4" x="392.9404" y="352.5"/><rect fill="#F1F1F1" height="2" style="stroke:#0000FF;stroke-width:2;" width="4" x="392.9404" y="356.5"/><text fill="#000000" font-family="sans-serif" font-size="14" lengthAdjust="spacing" textLength="93.4404" x="296.5" y="378.4951">orchestration</text></a><!--entity comp_arc_sta__orch__runtime--><a href="../features/orchestration/modules/orchestration/runtime.html#comp_arc_sta__orch__runtime" target="_top" title="../features/orchestration/modules/orchestration/runtime.html#comp_arc_sta__orch__runtime" xlink:actuate="onRequest" xlink:href="../features/orchestration/modules/orchestration/runtime.html#comp_arc_sta__orch__runtime" xlink:show="new" xlink:title="../features/orchestration/modules/orchestration/runtime.html#comp_arc_sta__orch__runtime" xlink:type="simple"><rect fill="#F1F1F1" height="46.2969" rx="2.5" ry="2.5" style="stroke:#0000FF;stroke-width:2;" width="95.1318" x="449.5" y="345.5"/><rect fill="#F1F1F1" height="10" style="stroke:#0000FF;stroke-width:2;" width="15" x="524.6318" y="350.5"/><rect fill="#F1F1F1" height="2" style="stroke:#0000FF;stroke-width:2;" width="4" x="522.6318" y="352.5"/><rect fill="#F1F1F1" height="2" style="stroke:#0000FF;stroke-width:2;" width="4" x="522.6318" y="356.5"/><text fill="#000000" font-family="sans-serif" font-size="14" lengthAdjust="spacing" textLength="55.1318" x="464.5" y="378.4951">runtime</text></a><!--entity comp_arc_sta__logging__logging--><a href="../features/communication/modules/logging/index.html#comp_arc_sta__logging__logging" target="_top" title="../features/communication/modules/logging/index.html#comp_arc_sta__logging__logging" xlink:actuate="onRequest" xlink:href="../features/communication/modules/logging/index.html#comp_arc_sta__logging__logging" xlink:show="new" xlink:title="../features/communication/modules/logging/index.html#comp_arc_sta__logging__logging" xlink:type="simple"><rect fill="#F1F1F1" height="46.2969" rx="2.5" ry="2.5" style="stroke:#0000FF;stroke-width:2;" width="95.7881" x="374" y="624.5"/><rect fill="#F1F1F1" height="10" style="stroke:#0000FF;stroke-width:2;" width="15" x="449.7881" y="629.5"/><rect fill="#F1F1F1" height="2" style="stroke:#0000FF;stroke-width:2;" width="4" x="447.7881" y="631.5"/><rect fill="#F1F1F1" height="2" style="stroke:#0000FF;stroke-width:2;" width="4" x="447.7881" y="635.5"/><text fill="#000000" font-family="sans-serif" font-size="14" lengthAdjust="spacing" textLength="55.7881" x="389" y="657.4951">Logging</text></a><!--entity comp_arc_sta__tracing__tracing--><a href="../features/communication/modules/tracing/index.html#comp_arc_sta__tracing__tracing" target="_top" title="../features/communication/modules/tracing/index.html#comp_arc_sta__tracing__tracing" xlink:actuate="onRequest" xlink:href="../features/communication/modules/tracing/index.html#comp_arc_sta__tracing__tracing" xlink:show="new" xlink:title="../features/communication/modules/tracing/index.html#comp_arc_sta__tracing__tracing" xlink:type="simple"><rect fill="#F1F1F1" height="46.2969" rx="2.5" ry="2.5" style="stroke:#0000FF;stroke-width:2;" width="92.2334" x="22" y="624.5"/><rect fill="#F1F1F1" height="10" style="stroke:#0000FF;stroke-width:2;" width="15" x="94.2334" y="629.5"/><rect fill="#F1F1F1" height="2" style="stroke:#0000FF;stroke-width:2;" width="4" x="92.2334" y="631.5"/><rect fill="#F1F1F1" height="2" style="stroke:#0000FF;stroke-width:2;" width="4" x="92.2334" y="635.5"/><text fill="#000000" font-family="sans-serif" font-size="14" lengthAdjust="spacing" textLength="52.2334" x="37" y="657.4951">Tracing</text></a><!--entity comp_arc_sta__baselibs__containers--><a href="../features/orchestration/modules/baselibs/containers.html#comp_arc_sta__baselibs__containers" target="_top" title="../features/orchestration/modules/baselibs/containers.html#comp_arc_sta__baselibs__containers" xlink:actuate="onRequest" xlink:href="../features/orchestration/modules/baselibs/containers.html#comp_arc_sta__baselibs__containers" xlink:show="new" xlink:title="../features/orchestration/modules/baselibs/containers.html#comp_arc_sta__baselibs__containers" xlink:type="simple"><rect fill="#F1F1F1" height="46.2969" rx="2.5" ry="2.5" style="stroke:#0000FF;stroke-width:2;" width="115.708" x="526" y="624.5"/><rect fill="#F1F1F1" height="10" style="stroke:#0000FF;stroke-width:2;" width="15" x="621.708" y="629.5"/><rect fill="#F1F1F1" height="2" style="stroke:#0000FF;stroke-width:2;" width="4" x="619.708" y="631.5"/><rect fill="#F1F1F1" height="2" style="stroke:#0000FF;stroke-width:2;" width="4" x="619.708" y="635.5"/><text fill="#000000" font-family="sans-serif" font-size="14" lengthAdjust="spacing" textLength="75.708" x="541" y="657.4951">Containers</text></a><!--entity comp_arc_sta__baselibs__sync--><a href="../features/orchestration/modules/baselibs/sync.html#comp_arc_sta__baselibs__sync" target="_top" title="../features/orchestration/modules/baselibs/sync.html#comp_arc_sta__baselibs__sync" xlink:actuate="onRequest" xlink:href="../features/orchestration/modules/baselibs/sync.html#comp_arc_sta__baselibs__sync" xlink:show="new" xlink:title="../features/orchestration/modules/baselibs/sync.html#comp_arc_sta__baselibs__sync" xlink:type="simple"><rect fill="#F1F1F1" height="46.2969" rx="2.5" ry="2.5" style="stroke:#0000FF;stroke-width:2;" width="73.7422" x="677" y="624.5"/><rect fill="#F1F1F1" height="10" style="stroke:#0000FF;stroke-width:2;" width="15" x="730.7422" y="629.5"/><rect fill="#F1F1F1" height="2" style="stroke:#0000FF;stroke-width:2;" width="4" x="728.7422" y="631.5"/><rect fill="#F1F1F1" height="2" style="stroke:#0000FF;stroke-width:2;" width="4" x="728.7422" y="635.5"/><text fill="#000000" font-family="sans-serif" font-size="14" lengthAdjust="spacing" textLength="33.7422" x="692" y="657.4951">Sync</text></a><!--entity comp_arc_sta__communication__com--><a href="../features/orchestration/modules/communication/com.html#comp_arc_sta__communication__com" target="_top" title="../features/orchestration/modules/communication/com.html#comp_arc_sta__communication__com" xlink:actuate="onRequest" xlink:href="../features/orchestration/modules/communication/com.html#comp_arc_sta__communication__com" xlink:show="new" xlink:title="../features/orchestration/modules/communication/com.html#comp_arc_sta__communication__com" xlink:type="simple"><rect fill="#F1F1F1" height="46.2969" rx="2.5" ry="2.5" style="stroke:#0000FF;stroke-width:2;" width="148.2676" x="170" y="624.5"/><rect fill="#F1F1F1" height="10" style="stroke:#0000FF;stroke-width:2;" width="15" x="298.2676" y="629.5"/><rect fill="#F1F1F1" height="2" style="stroke:#0000FF;stroke-width:2;" width="4" x="296.2676" y="631.5"/><rect fill="#F1F1F1" height="2" style="stroke:#0000FF;stroke-width:2;" width="4" x="296.2676" y="635.5"/><text fill="#000000" font-family="sans-serif" font-size="14" lengthAdjust="spacing" textLength="108.2676" x="185" y="657.4951">communication</text></a><!--entity Feature_User--><g id="elem_Feature_User"><ellipse cx="348.1685" cy="14" fill="#F1F1F1" rx="8" ry="8" style="stroke:#181818;stroke-width:0.5;"/><path d="M348.1685,22 L348.1685,49 M335.1685,30 L361.1685,30 M348.1685,49 L335.1685,64 M348.1685,49 L361.1685,64 " fill="transparent" style="stroke:#181818;stroke-width:0.5;"/><text fill="#000000" font-family="sans-serif" font-size="14" lengthAdjust="spacing" textLength="90.3369" x="303" y="78.4951">Feature User</text></g><!--class logic_arc_int__orchestration__user--><a href="../features/orchestration/docs/architecture/index.html#logic_arc_int__orchestration__user" target="_top" title="../features/orchestration/docs/architecture/index.html#logic_arc_int__orchestration__user" xlink:actuate="onRequest" xlink:href="../features/orchestration/docs/architecture/index.html#logic_arc_int__orchestration__user" xlink:show="new" xlink:title="../features/orchestration/docs/architecture/index.html#logic_arc_int__orchestration__user" xlink:type="simple"><g id="elem_logic_arc_int__orchestration__user"><rect codeLine="14" fill="#F1F1F1" height="88.8906" id="logic_arc_int__orchestration__user" rx="2.5" ry="2.5" style="stroke:#181818;stroke-width:0.5;" width="195.0234" x="250.5" y="158.5"/><ellipse cx="265.5" cy="174.5" fill="#B4A7E5" rx="11" ry="11" style="stroke:#181818;stroke-width:1;"/><path d="M261.4219,170.2656 L261.4219,168.1094 L268.8125,168.1094 L268.8125,170.2656 L266.3438,170.2656 L266.3438,178.3438 L268.8125,178.3438 L268.8125,180.5 L261.4219,180.5 L261.4219,178.3438 L263.8906,178.3438 L263.8906,170.2656 L261.4219,170.2656 Z " fill="#000000"/><text fill="#000000" font-family="sans-serif" font-size="14" font-style="italic" lengthAdjust="spacing" textLength="163.0234" x="279.5" y="179.3467">Orchestration Interface</text><line style="stroke:#181818;stroke-width:0.5;" x1="251.5" x2="444.5234" y1="190.5" y2="190.5"/></g><a href="../features/orchestration/modules/orchestration/orchestration.html#logic_arc_int_op__orch__register_func" target="_top" title="../features/orchestration/modules/orchestration/orchestration.html#logic_arc_int_op__orch__register_func" xlink:actuate="onRequest" xlink:href="../features/orchestration/modules/orchestration/orchestration.html#logic_arc_int_op__orch__register_func" xlink:show="new" xlink:title="../features/orchestration/modules/orchestration/orchestration.html#logic_arc_int_op__orch__register_func" xlink:type="simple"><rect fill="#F1F1F1" height="10" style="stroke:transparent;stroke-width:1;" width="20" x="256.5" y="199.1484"/><ellipse cx="261.5" cy="204.1484" fill="#84BE84" rx="3" ry="3" style="stroke:#038048;stroke-width:1;"/></a></a><a href="../features/orchestration/modules/orchestration/orchestration.html#logic_arc_int_op__orch__register_func" target="_top" title="../features/orchestration/modules/orchestration/orchestration.html#logic_arc_int_op__orch__register_func" xlink:actuate="onRequest" xlink:href="../features/orchestration/modules/orchestration/orchestration.html#logic_arc_int_op__orch__register_func" xlink:show="new" xlink:title="../features/orchestration/modules/orchestration/orchestration.html#logic_arc_int_op__orch__register_func" xlink:type="simple"><text fill="#000000" font-family="sans-serif" font-size="14" lengthAdjust="spacing" textLength="131.3115" x="270.5" y="207.4951">register function ()</text></a><a href="../features/orchestration/modules/orchestration/orchestration.html#logic_arc_int_op__orch__register_event" target="_top" title="../features/orchestration/modules/orchestration/orchestration.html#logic_arc_int_op__orch__register_event" xlink:actuate="onRequest" xlink:href="../features/orchestration/modules/orchestration/orchestration.html#logic_arc_int_op__orch__register_event" xlink:show="new" xlink:title="../features/orchestration/modules/orchestration/orchestration.html#logic_arc_int_op__orch__register_event" xlink:type="simple"><rect fill="#F1F1F1" height="10" style="stroke:transparent;stroke-width:1;" width="20" x="256.5" y="215.4453"/><ellipse cx="261.5" cy="220.4453" fill="#84BE84" rx="3" ry="3" style="stroke:#038048;stroke-width:1;"/></a><a href="../features/orchestration/modules/orchestration/orchestration.html#logic_arc_int_op__orch__register_event" target="_top" title="../features/orchestration/modules/orchestration/orchestration.html#logic_arc_int_op__orch__register_event" xlink:actuate="onRequest" xlink:href="../features/orchestration/modules/orchestration/orchestration.html#logic_arc_int_op__orch__register_event" xlink:show="new" xlink:title="../features/orchestration/modules/orchestration/orchestration.html#logic_arc_int_op__orch__register_event" xlink:type="simple"><text fill="#000000" font-family="sans-serif" font-size="14" lengthAdjust="spacing" textLength="113.9961" x="270.5" y="223.792">register event ()</text></a><a href="../features/orchestration/modules/orchestration/orchestration.html#logic_arc_int_op__orch__add_program" target="_top" title="../features/orchestration/modules/orchestration/orchestration.html#logic_arc_int_op__orch__add_program" xlink:actuate="onRequest" xlink:href="../features/orchestration/modules/orchestration/orchestration.html#logic_arc_int_op__orch__add_program" xlink:show="new" xlink:title="../features/orchestration/modules/orchestration/orchestration.html#logic_arc_int_op__orch__add_program" xlink:type="simple"><rect fill="#F1F1F1" height="10" style="stroke:transparent;stroke-width:1;" width="20" x="256.5" y="231.7422"/><ellipse cx="261.5" cy="236.7422" fill="#84BE84" rx="3" ry="3" style="stroke:#038048;stroke-width:1;"/></a><a href="../features/orchestration/modules/orchestration/orchestration.html#logic_arc_int_op__orch__add_program" target="_top" title="../features/orchestration/modules/orchestration/orchestration.html#logic_arc_int_op__orch__add_program" xlink:actuate="onRequest" xlink:href="../features/orchestration/modules/orchestration/orchestration.html#logic_arc_int_op__orch__add_program" xlink:show="new" xlink:title="../features/orchestration/modules/orchestration/orchestration.html#logic_arc_int_op__orch__add_program" xlink:type="simple"><text fill="#000000" font-family="sans-serif" font-size="14" lengthAdjust="spacing" textLength="106.2441" x="270.5" y="240.0889">add program ()</text></a><!--class logic_arc_int__logging__logging--><a href="../features/communication/modules/logging/index.html#logic_arc_int__logging__logging" target="_top" title="../features/communication/modules/logging/index.html#logic_arc_int__logging__logging" xlink:actuate="onRequest" xlink:href="../features/communication/modules/logging/index.html#logic_arc_int__logging__logging" xlink:show="new" xlink:title="../features/communication/modules/logging/index.html#logic_arc_int__logging__logging" xlink:type="simple"><g id="elem_logic_arc_int__logging__logging"><rect codeLine="37" fill="#F1F1F1" height="56.2969" id="logic_arc_int__logging__logging" rx="2.5" ry="2.5" style="stroke:#181818;stroke-width:0.5;" width="87.7881" x="378" y="470.5"/><ellipse cx="393" cy="486.5" fill="#B4A7E5" rx="11" ry="11" style="stroke:#181818;stroke-width:1;"/><path d="M388.9219,482.2656 L388.9219,480.1094 L396.3125,480.1094 L396.3125,482.2656 L393.8438,482.2656 L393.8438,490.3438 L396.3125,490.3438 L396.3125,492.5 L388.9219,492.5 L388.9219,490.3438 L391.3906,490.3438 L391.3906,482.2656 L388.9219,482.2656 Z " fill="#000000"/><text fill="#000000" font-family="sans-serif" font-size="14" font-style="italic" lengthAdjust="spacing" textLength="55.7881" x="407" y="491.3467">Logging</text><line style="stroke:#181818;stroke-width:0.5;" x1="379" x2="464.7881" y1="502.5" y2="502.5"/></g><a href="../features/communication/modules/logging/index.html#logic_arc_int_op__logging__isenabled" target="_top" title="../features/communication/modules/logging/index.html#logic_arc_int_op__logging__isenabled" xlink:actuate="onRequest" xlink:href="../features/communication/modules/logging/index.html#logic_arc_int_op__logging__isenabled" xlink:show="new" xlink:title="../features/communication/modules/logging/index.html#logic_arc_int_op__logging__isenabled" xlink:type="simple"><rect fill="#F1F1F1" height="10" style="stroke:transparent;stroke-width:1;" width="20" x="384" y="511.1484"/><ellipse cx="389" cy="516.1484" fill="#84BE84" rx="3" ry="3" style="stroke:#038048;stroke-width:1;"/></a></a><a href="../features/communication/modules/logging/index.html#logic_arc_int_op__logging__isenabled" target="_top" title="../features/communication/modules/logging/index.html#logic_arc_int_op__logging__isenabled" xlink:actuate="onRequest" xlink:href="../features/communication/modules/logging/index.html#logic_arc_int_op__logging__isenabled" xlink:show="new" xlink:title="../features/communication/modules/logging/index.html#logic_arc_int_op__logging__isenabled" xlink:type="simple"><text fill="#000000" font-family="sans-serif" font-size="14" lengthAdjust="spacing" textLength="40.626" x="398" y="519.4951">Log ()</text></a><!--class logic_arc_int__tracing__tracing--><a href="../features/communication/modules/tracing/index.html#logic_arc_int__tracing__tracing" target="_top" title="../features/communication/modules/tracing/index.html#logic_arc_int__tracing__tracing" xlink:actuate="onRequest" xlink:href="../features/communication/modules/tracing/index.html#logic_arc_int__tracing__tracing" xlink:show="new" xlink:title="../features/communication/modules/tracing/index.html#logic_arc_int__tracing__tracing" xlink:type="simple"><g id="elem_logic_arc_int__tracing__tracing"><rect codeLine="49" fill="#F1F1F1" height="56.2969" id="logic_arc_int__tracing__tracing" rx="2.5" ry="2.5" style="stroke:#181818;stroke-width:0.5;" width="84.2334" x="55" y="470.5"/><ellipse cx="70" cy="486.5" fill="#B4A7E5" rx="11" ry="11" style="stroke:#181818;stroke-width:1;"/><path d="M65.9219,482.2656 L65.9219,480.1094 L73.3125,480.1094 L73.3125,482.2656 L70.8438,482.2656 L70.8438,490.3438 L73.3125,490.3438 L73.3125,492.5 L65.9219,492.5 L65.9219,490.3438 L68.3906,490.3438 L68.3906,482.2656 L65.9219,482.2656 Z " fill="#000000"/><text fill="#000000" font-family="sans-serif" font-size="14" font-style="italic" lengthAdjust="spacing" textLength="52.2334" x="84" y="491.3467">Tracing</text><line style="stroke:#181818;stroke-width:0.5;" x1="56" x2="138.2334" y1="502.5" y2="502.5"/></g><a href="../features/communication/modules/tracing/index.html#logic_arc_int_op__tracing__trace" target="_top" title="../features/communication/modules/tracing/index.html#logic_arc_int_op__tracing__trace" xlink:actuate="onRequest" xlink:href="../features/communication/modules/tracing/index.html#logic_arc_int_op__tracing__trace" xlink:show="new" xlink:title="../features/communication/modules/tracing/index.html#logic_arc_int_op__tracing__trace" xlink:type="simple"><rect fill="#F1F1F1" height="10" style="stroke:transparent;stroke-width:1;" width="20" x="61" y="511.1484"/><ellipse cx="66" cy="516.1484" fill="#84BE84" rx="3" ry="3" style="stroke:#038048;stroke-width:1;"/></a></a><a href="../features/communication/modules/tracing/index.html#logic_arc_int_op__tracing__trace" target="_top" title="../features/communication/modules/tracing/index.html#logic_arc_int_op__tracing__trace" xlink:actuate="onRequest" xlink:href="../features/communication/modules/tracing/index.html#logic_arc_int_op__tracing__trace" xlink:show="new" xlink:title="../features/communication/modules/tracing/index.html#logic_arc_int_op__tracing__trace" xlink:type="simple"><text fill="#000000" font-family="sans-serif" font-size="14" lengthAdjust="spacing" textLength="54.5713" x="75" y="519.4951">Trace ()</text></a><!--class logic_arc_int__baselibs__cont--><a href="../features/orchestration/modules/baselibs/containers.html#logic_arc_int__baselibs__cont" target="_top" title="../features/orchestration/modules/baselibs/containers.html#logic_arc_int__baselibs__cont" xlink:actuate="onRequest" xlink:href="../features/orchestration/modules/baselibs/containers.html#logic_arc_int__baselibs__cont" xlink:show="new" xlink:title="../features/orchestration/modules/baselibs/containers.html#logic_arc_int__baselibs__cont" xlink:type="simple"><g id="elem_logic_arc_int__baselibs__cont"><rect codeLine="61" fill="#F1F1F1" height="40" id="logic_arc_int__baselibs__cont" rx="2.5" ry="2.5" style="stroke:#181818;stroke-width:0.5;" width="107.708" x="530" y="478.5"/><ellipse cx="545" cy="494.5" fill="#B4A7E5" rx="11" ry="11" style="stroke:#181818;stroke-width:1;"/><path d="M540.9219,490.2656 L540.9219,488.1094 L548.3125,488.1094 L548.3125,490.2656 L545.8438,490.2656 L545.8438,498.3438 L548.3125,498.3438 L548.3125,500.5 L540.9219,500.5 L540.9219,498.3438 L543.3906,498.3438 L543.3906,490.2656 L540.9219,490.2656 Z " fill="#000000"/><text fill="#000000" font-family="sans-serif" font-size="14" font-style="italic" lengthAdjust="spacing" textLength="75.708" x="559" y="499.3467">Containers</text><line style="stroke:#181818;stroke-width:0.5;" x1="531" x2="636.708" y1="510.5" y2="510.5"/></g></a><!--class logic_arc_int__baselibs__sync--><a href="../features/orchestration/modules/baselibs/sync.html#logic_arc_int__baselibs__sync" target="_top" title="../features/orchestration/modules/baselibs/sync.html#logic_arc_int__baselibs__sync" xlink:actuate="onRequest" xlink:href="../features/orchestration/modules/baselibs/sync.html#logic_arc_int__baselibs__sync" xlink:show="new" xlink:title="../features/orchestration/modules/baselibs/sync.html#logic_arc_int__baselibs__sync" xlink:type="simple"><g id="elem_logic_arc_int__baselibs__sync"><rect codeLine="72" fill="#F1F1F1" height="40" id="logic_arc_int__baselibs__sync" rx="2.5" ry="2.5" style="stroke:#181818;stroke-width:0.5;" width="65.7422" x="677" y="478.5"/><ellipse cx="692" cy="494.5" fill="#B4A7E5" rx="11" ry="11" style="stroke:#181818;stroke-width:1;"/><path d="M687.9219,490.2656 L687.9219,488.1094 L695.3125,488.1094 L695.3125,490.2656 L692.8438,490.2656 L692.8438,498.3438 L695.3125,498.3438 L695.3125,500.5 L687.9219,500.5 L687.9219,498.3438 L690.3906,498.3438 L690.3906,490.2656 L687.9219,490.2656 Z " fill="#000000"/><text fill="#000000" font-family="sans-serif" font-size="14" font-style="italic" lengthAdjust="spacing" textLength="33.7422" x="706" y="499.3467">Sync</text><line style="stroke:#181818;stroke-width:0.5;" x1="678" x2="741.7422" y1="510.5" y2="510.5"/></g></a><!--class logic_arc_int__communication__com--><a href="../features/orchestration/modules/communication/com.html#logic_arc_int__communication__com" target="_top" title="../features/orchestration/modules/communication/com.html#logic_arc_int__communication__com" xlink:actuate="onRequest" xlink:href="../features/orchestration/modules/communication/com.html#logic_arc_int__communication__com" xlink:show="new" xlink:title="../features/orchestration/modules/communication/com.html#logic_arc_int__communication__com" xlink:type="simple"><g id="elem_logic_arc_int__communication__com"><rect codeLine="83" fill="#F1F1F1" height="40" id="logic_arc_int__communication__com" rx="2.5" ry="2.5" style="stroke:#181818;stroke-width:0.5;" width="140.2676" x="174" y="478.5"/><ellipse cx="189" cy="494.5" fill="#B4A7E5" rx="11" ry="11" style="stroke:#181818;stroke-width:1;"/><path d="M184.9219,490.2656 L184.9219,488.1094 L192.3125,488.1094 L192.3125,490.2656 L189.8438,490.2656 L189.8438,498.3438 L192.3125,498.3438 L192.3125,500.5 L184.9219,500.5 L184.9219,498.3438 L187.3906,498.3438 L187.3906,490.2656 L184.9219,490.2656 Z " fill="#000000"/><text fill="#000000" font-family="sans-serif" font-size="14" font-style="italic" lengthAdjust="spacing" textLength="108.2676" x="203" y="499.3467">communication</text><line style="stroke:#181818;stroke-width:0.5;" x1="175" x2="313.2676" y1="510.5" y2="510.5"/></g></a><!--reverse link logic_arc_int__orchestration__user to comp_arc_sta__orch__orchestration--><g id="link_logic_arc_int__orchestration__user_comp_arc_sta__orch__orchestration"><path codeLine="89" d="M348,253.81 C348,285.22 348,320.22 348,345.17 " fill="transparent" id="logic_arc_int__orchestration__user-backto-comp_arc_sta__orch__orchestration" style="stroke:#181818;stroke-width:1;"/><polygon fill="#181818" points="348,247.81,344,256.81,348,252.81,352,256.81,348,247.81" style="stroke:#181818;stroke-width:1;"/><text fill="#000000" font-family="sans-serif" font-size="13" lengthAdjust="spacing" textLength="76.9082" x="349" y="290.5669">implements</text></g><!--link comp_arc_sta__orch__orchestration to logic_arc_int__communication__com--><g id="link_comp_arc_sta__orch__orchestration_logic_arc_int__communication__com"><path codeLine="90" d="M281.41,387.54 C263.98,395.62 247.23,407.15 237,423.5 C226.73,439.91 229.0306,456.7986 234.2406,472.6886 " fill="transparent" id="comp_arc_sta__orch__orchestration-to-logic_arc_int__communication__com" style="stroke:#008000;stroke-width:1;"/><polygon fill="#008000" points="236.11,478.39,237.1069,468.5917,234.5522,473.6389,229.5051,471.0842,236.11,478.39" style="stroke:#008000;stroke-width:1;"/><text fill="#000000" font-family="sans-serif" font-size="13" lengthAdjust="spacing" textLength="29.7832" x="238" y="436.5669">uses</text></g><!--link Feature_User to logic_arc_int__orchestration__user--><g id="link_Feature_User_logic_arc_int__orchestration__user"><path codeLine="91" d="M348,81.83 C348,104.75 348,128.22 348,152.24 " fill="transparent" id="Feature_User-to-logic_arc_int__orchestration__user" style="stroke:#181818;stroke-width:1;"/><polygon fill="#181818" points="348,158.24,352,149.24,348,153.24,344,149.24,348,158.24" style="stroke:#181818;stroke-width:1;"/><text fill="#000000" font-family="sans-serif" font-size="13" lengthAdjust="spacing" textLength="23.0103" x="349" y="124.5669">use</text></g><!--reverse link logic_arc_int__baselibs__sync to comp_arc_sta__baselibs__sync--><g id="link_logic_arc_int__baselibs__sync_comp_arc_sta__baselibs__sync"><path codeLine="92" d="M710.6829,524.7178 C711.4229,551.9578 712.62,595.67 713.4,624.4 " fill="transparent" id="logic_arc_int__baselibs__sync-backto-comp_arc_sta__baselibs__sync" style="stroke:#181818;stroke-width:1;"/><polygon fill="#181818" points="710.52,518.72,706.7659,527.8253,710.6558,523.7182,714.7629,527.6081,710.52,518.72" style="stroke:#181818;stroke-width:1;"/><text fill="#000000" font-family="sans-serif" font-size="13" lengthAdjust="spacing" textLength="76.9082" x="713" y="569.5669">implements</text></g><!--link comp_arc_sta__orch__orchestration to logic_arc_int__tracing__tracing--><g id="link_comp_arc_sta__orch__orchestration_logic_arc_int__tracing__tracing"><path codeLine="93" d="M281.46,387.24 C253,396.15 219.96,408.32 192,423.5 C168.3,436.37 148.9119,451.1511 131.0019,466.5311 " fill="transparent" id="comp_arc_sta__orch__orchestration-to-logic_arc_int__tracing__tracing" style="stroke:#008000;stroke-width:1;"/><polygon fill="#008000" points="126.45,470.44,135.8839,467.6112,130.2433,467.1826,130.672,461.542,126.45,470.44" style="stroke:#008000;stroke-width:1;"/><text fill="#000000" font-family="sans-serif" font-size="13" lengthAdjust="spacing" textLength="29.7832" x="193" y="436.5669">uses</text></g><!--link comp_arc_sta__orch__orchestration to logic_arc_int__logging__logging--><g id="link_comp_arc_sta__orch__orchestration_logic_arc_int__logging__logging"><path codeLine="94" d="M305.4,391.51 C285.62,404.76 268.87,422.51 281,440.5 C292.33,457.3 335.0204,472.7346 371.9904,483.7646 " fill="transparent" id="comp_arc_sta__orch__orchestration-to-logic_arc_int__logging__logging" style="stroke:#008000;stroke-width:1;"/><polygon fill="#008000" points="377.74,485.48,370.2592,479.0739,372.9487,484.0505,367.9721,486.74,377.74,485.48" style="stroke:#008000;stroke-width:1;"/><text fill="#000000" font-family="sans-serif" font-size="13" lengthAdjust="spacing" textLength="29.7832" x="282" y="436.5669">uses</text></g><!--link comp_arc_sta__orch__runtime to logic_arc_int__baselibs__cont--><g id="link_comp_arc_sta__orch__runtime_logic_arc_int__baselibs__cont"><path codeLine="95" d="M544.58,382.2 C565.4,390.38 587.83,403.37 600,423.5 C610.14,440.26 605.6852,457.1897 597.9952,472.9197 " fill="transparent" id="comp_arc_sta__orch__runtime-to-logic_arc_int__baselibs__cont" style="stroke:#008000;stroke-width:1;"/><polygon fill="#008000" points="595.36,478.31,602.9064,471.9813,597.556,473.8181,595.7192,468.4677,595.36,478.31" style="stroke:#008000;stroke-width:1;"/><text fill="#000000" font-family="sans-serif" font-size="13" lengthAdjust="spacing" textLength="29.7832" x="605" y="436.5669">uses</text></g><!--reverse link logic_arc_int__baselibs__cont to comp_arc_sta__baselibs__containers--><g id="link_logic_arc_int__baselibs__cont_comp_arc_sta__baselibs__containers"><path codeLine="96" d="M584,524.72 C584,551.96 584,595.67 584,624.4 " fill="transparent" id="logic_arc_int__baselibs__cont-backto-comp_arc_sta__baselibs__containers" style="stroke:#181818;stroke-width:1;"/><polygon fill="#181818" points="584,518.72,580,527.72,584,523.72,588,527.72,584,518.72" style="stroke:#181818;stroke-width:1;"/><text fill="#000000" font-family="sans-serif" font-size="13" lengthAdjust="spacing" textLength="76.9082" x="585" y="569.5669">implements</text></g><!--link comp_arc_sta__orch__orchestration to logic_arc_int__baselibs__cont--><g id="link_comp_arc_sta__orch__orchestration_logic_arc_int__baselibs__cont"><path codeLine="97" d="M365.5,391.72 C378.74,407.25 398.16,427.46 419,440.5 C437.82,452.27 483.4019,467.4867 523.8519,479.8467 " fill="transparent" id="comp_arc_sta__orch__orchestration-to-logic_arc_int__baselibs__cont" style="stroke:#008000;stroke-width:1;"/><polygon fill="#008000" points="529.59,481.6,522.1518,475.1446,524.8083,480.1389,519.814,482.7954,529.59,481.6" style="stroke:#008000;stroke-width:1;"/><text fill="#000000" font-family="sans-serif" font-size="13" lengthAdjust="spacing" textLength="29.7832" x="420" y="436.5669">uses</text></g><!--link comp_arc_sta__orch__runtime to logic_arc_int__tracing__tracing--><g id="link_comp_arc_sta__orch__runtime_logic_arc_int__tracing__tracing"><path codeLine="98" d="M472.18,391.59 C460.73,400.53 446.48,410.02 432,415.5 C401.06,427.21 390.08,415.44 358,423.5 C338.47,428.41 335.32,434.83 316,440.5 C247,460.76 225.6,448.93 157,470.5 C151.12,472.35 150.5892,472.3383 144.6792,474.7683 " fill="transparent" id="comp_arc_sta__orch__runtime-to-logic_arc_int__tracing__tracing" style="stroke:#008000;stroke-width:1;"/><polygon fill="#008000" points="139.13,477.05,148.975,477.327,143.7544,475.1486,145.9327,469.928,139.13,477.05" style="stroke:#008000;stroke-width:1;"/><text fill="#000000" font-family="sans-serif" font-size="13" lengthAdjust="spacing" textLength="29.7832" x="359" y="436.5669">uses</text></g><!--reverse link logic_arc_int__logging__logging to comp_arc_sta__logging__logging--><g id="link_logic_arc_int__logging__logging_comp_arc_sta__logging__logging"><path codeLine="99" d="M422,532.81 C422,560.87 422,598.04 422,624.15 " fill="transparent" id="logic_arc_int__logging__logging-backto-comp_arc_sta__logging__logging" style="stroke:#181818;stroke-width:1;"/><polygon fill="#181818" points="422,526.81,418,535.81,422,531.81,426,535.81,422,526.81" style="stroke:#181818;stroke-width:1;"/><text fill="#000000" font-family="sans-serif" font-size="13" lengthAdjust="spacing" textLength="76.9082" x="423" y="569.5669">implements</text></g><!--link comp_arc_sta__orch__runtime to logic_arc_int__logging__logging--><g id="link_comp_arc_sta__orch__runtime_logic_arc_int__logging__logging"><path codeLine="100" d="M485.22,391.76 C477.66,405.85 467.5,424.39 458,440.5 C452.17,450.38 448.7506,455.9876 442.7706,465.3876 " fill="transparent" id="comp_arc_sta__orch__runtime-to-logic_arc_int__logging__logging" style="stroke:#008000;stroke-width:1;"/><polygon fill="#008000" points="439.55,470.45,447.7558,465.0034,442.2338,466.2313,441.0059,460.7093,439.55,470.45" style="stroke:#008000;stroke-width:1;"/><text fill="#000000" font-family="sans-serif" font-size="13" lengthAdjust="spacing" textLength="29.7832" x="467" y="436.5669">uses</text></g><!--reverse link logic_arc_int__communication__com to comp_arc_sta__communication__com--><g id="link_logic_arc_int__communication__com_comp_arc_sta__communication__com"><path codeLine="101" d="M244,524.72 C244,551.96 244,595.67 244,624.4 " fill="transparent" id="logic_arc_int__communication__com-backto-comp_arc_sta__communication__com" style="stroke:#181818;stroke-width:1;"/><polygon fill="#181818" points="244,518.72,240,527.72,244,523.72,248,527.72,244,518.72" style="stroke:#181818;stroke-width:1;"/><text fill="#000000" font-family="sans-serif" font-size="13" lengthAdjust="spacing" textLength="76.9082" x="245" y="569.5669">implements</text></g><!--reverse link logic_arc_int__tracing__tracing to comp_arc_sta__tracing__tracing--><g id="link_logic_arc_int__tracing__tracing_comp_arc_sta__tracing__tracing"><path codeLine="102" d="M90.4498,532.6968 C84.9198,560.7568 77.56,598.04 72.41,624.15 " fill="transparent" id="logic_arc_int__tracing__tracing-backto-comp_arc_sta__tracing__tracing" style="stroke:#181818;stroke-width:1;"/><polygon fill="#181818" points="91.61,526.81,85.9453,534.8667,90.6432,531.7156,93.7943,536.4136,91.61,526.81" style="stroke:#181818;stroke-width:1;"/><text fill="#000000" font-family="sans-serif" font-size="13" lengthAdjust="spacing" textLength="76.9082" x="87" y="569.5669">implements</text></g><!--link comp_arc_sta__orch__orchestration to logic_arc_int__baselibs__sync--><g id="link_comp_arc_sta__orch__orchestration_logic_arc_int__baselibs__sync"><path codeLine="103" d="M381.38,391.72 C396.27,400.57 414.4,409.96 432,415.5 C463.13,425.3 473.05,416.84 505,423.5 C509.3,424.4 651.92,468.86 656,470.5 C662.9,473.28 664.7385,473.9573 671.5785,477.2973 " fill="transparent" id="comp_arc_sta__orch__orchestration-to-logic_arc_int__baselibs__sync" style="stroke:#008000;stroke-width:1;"/><polygon fill="#008000" points="676.97,479.93,670.6378,472.3866,672.477,477.7361,667.1275,479.5753,676.97,479.93" style="stroke:#008000;stroke-width:1;"/><text fill="#000000" font-family="sans-serif" font-size="13" lengthAdjust="spacing" textLength="29.7832" x="559" y="436.5669">uses</text></g><!--link comp_arc_sta__orch__runtime to logic_arc_int__baselibs__sync--><g id="link_comp_arc_sta__orch__runtime_logic_arc_int__baselibs__sync"><path codeLine="104" d="M544.77,380.88 C574.69,389.47 613.11,403.29 643,423.5 C664.96,438.35 681.0376,457.0694 693.2876,473.5994 " fill="transparent" id="comp_arc_sta__orch__runtime-to-logic_arc_int__baselibs__sync" style="stroke:#008000;stroke-width:1;"/><polygon fill="#008000" points="696.86,478.42,694.7151,468.8075,693.883,474.4029,688.2877,473.5708,696.86,478.42" style="stroke:#008000;stroke-width:1;"/><text fill="#000000" font-family="sans-serif" font-size="13" lengthAdjust="spacing" textLength="29.7832" x="663" y="436.5669">uses</text></g><!--SRC=[rPXTQzim58Rl_Ij4Uj6DqNZiieHSB30O50PRTrM2KEHJHzIsZ2It3QF_VV9d94l-Q9CETXDiINxFUyvvBDiXISAVSCgUMHO7YkT8SRJZIl4KHKm0LOndmPv5WAG20LmTSgZF8StL0H6b1DiL2cImakgGm3fO4icI7VeJtB0CDZpX0ksI0ghJspsZ3nb8YRuiFmSlmIfiBWe8LNhXuXiGLGX0loM81I8IDGEu7401oxIBUq81BNu8kWUf12ajek_jH7LHmcD6CH4KwmimvkPIZ8jI2jtTBPVXVQqkGsj9674gGttvdYbT0hqWP5a4pykzIfEBQV7jLcSVV482ObQM3TqNMLL9zE6ZZZiIEELHaJYZrfdF1Czh7nYt8N4PShlTcYxW4JBr3orKyMeF98fGBdWiIFh-1dGmt0GhemSlABn40xYWon05GKxe0udxK5KeQJVuaS4Jbegq0ImluoJvap5ecjJNC6cQA4zpdfNzMt37OpbPrM7GusfLtPJhDJfBvIS3rgQhmjj6gd8RoOWYKoo5mJIQ-PCIQ3I6hJSB3DDjsCgkXn-RcXiUnth_zF2Ir3FTGHyMxIOjCaPj-ytYOKpwiWuZfYCxOyVHK6LdMnlNDuhQc3AAQeqOUxjflxVTdgsY4xhj7gwjU7QiDqOfzwWk49EGaLq2qN6JikhHuNKh2FNZfUgPxc1UCPh5mtZrPHsyJ4Ts-nr7hyFBOsrSty2hCMNWPOqOU9dsUnYShQ8JkYrUfHMO3TXad18mAnGSuRAgqS7rbKX8s4xYduLK7iHsxVpnKEYLyvvwxHN3g0t8EyHjUAQ8Ve4KqWFTKOHsorxvnEYS7XLy-FaY6GWUNHeKMXLsMEmbriF6ZeTEIsLKkmRIdyR_1iklGqP7CP5wmLi1AQyTHwDSOK1HkfcDGsTzi5cLzxTQ7bKr4JYQxfg_CRSaJ_DrEN3rcwRp_Dbxt63N3LsdqzJnP3V5cgzENzbsswC-yxNUZMAqtveqEDYuumO7RcAzrdaoEoMXINKJ3azAmVGto5LnjPxnPNwDM9edaEh-IZH7DhgxY0L0jdNbtJIkaOwXTQs_5QwYcSxqRzzIxyRq9MalEMT-_RUADhlJLFklmcEgxOVIc9xzeF6hUH_XuyMinSvNp3asvoSzhpNErumlPRSVKqdFCJYlovvjncVHTwCDctHUidsIRW7VezNr7Naklasrlm00]--></g></svg>