<svg xmlns="http://www.w3.org/2000/svg" xmlns:xlink="http://www.w3.org/1999/xlink" contentStyleType="text/css" data-diagram-type="CLASS" height="322px" preserveAspectRatio="none" style="width:6205px;height:322px;background:#FFFFFF;" version="1.1" viewBox="0 0 6205 322" width="6205px" zoomAndPan="magnify"><defs/><g><!--entity Feature_User--><g id="elem_Feature_User"><ellipse cx="3073.1685" cy="14" fill="#F1F1F1" rx="8" ry="8" style="stroke:#181818;stroke-width:0.5;"/><path d="M3073.1685,22 L3073.1685,49 M3060.1685,30 L3086.1685,30 M3073.1685,49 L3060.1685,64 M3073.1685,49 L3086.1685,64 " fill="transparent" style="stroke:#181818;stroke-width:0.5;"/><text fill="#000000" font-family="sans-serif" font-size="14" lengthAdjust="spacing" textLength="90.3369" x="3028" y="78.4951">Feature User</text></g><!--class comp_arc_sta__baselibs__memory_shared--><g id="elem_comp_arc_sta__baselibs__memory_shared"><rect fill="#F1F1F1" height="40" id="comp_arc_sta__baselibs__memory_shared" rx="2.5" ry="2.5" style="stroke:#181818;stroke-width:0.5;" width="327.0117" x="5871.5" y="275.5"/><ellipse cx="5886.5" cy="291.5" fill="#ADD1B2" rx="11" ry="11" style="stroke:#181818;stroke-width:1;"/><path d="M5889.4688,297.1406 Q5888.8906,297.4375 5888.25,297.5781 Q5887.6094,297.7344 5886.9063,297.7344 Q5884.4063,297.7344 5883.0781,296.0938 Q5881.7656,294.4375 5881.7656,291.3125 Q5881.7656,288.1875 5883.0781,286.5313 Q5884.4063,284.875 5886.9063,284.875 Q5887.6094,284.875 5888.25,285.0313 Q5888.9063,285.1875 5889.4688,285.4844 L5889.4688,288.2031 Q5888.8438,287.625 5888.25,287.3594 Q5887.6563,287.0781 5887.0313,287.0781 Q5885.6875,287.0781 5885,288.1563 Q5884.3125,289.2188 5884.3125,291.3125 Q5884.3125,293.4063 5885,294.4844 Q5885.6875,295.5469 5887.0313,295.5469 Q5887.6563,295.5469 5888.25,295.2813 Q5888.8438,295 5889.4688,294.4219 L5889.4688,297.1406 Z " fill="#000000"/><text fill="#000000" font-family="sans-serif" font-size="14" lengthAdjust="spacing" textLength="295.0117" x="5900.5" y="296.3467">comp_arc_sta__baselibs__memory_shared</text><line style="stroke:#181818;stroke-width:0.5;" x1="5872.5" x2="6197.5117" y1="307.5" y2="307.5"/></g><!--class logic_arc_int__baselibs__memory_shared--><g id="elem_logic_arc_int__baselibs__memory_shared"><rect fill="#F1F1F1" height="40" id="logic_arc_int__baselibs__memory_shared" rx="2.5" ry="2.5" style="stroke:#181818;stroke-width:0.5;" width="318.043" x="5871" y="158.5"/><ellipse cx="5886" cy="174.5" fill="#ADD1B2" rx="11" ry="11" style="stroke:#181818;stroke-width:1;"/><path d="M5888.9688,180.1406 Q5888.3906,180.4375 5887.75,180.5781 Q5887.1094,180.7344 5886.4063,180.7344 Q5883.9063,180.7344 5882.5781,179.0938 Q5881.2656,177.4375 5881.2656,174.3125 Q5881.2656,171.1875 5882.5781,169.5313 Q5883.9063,167.875 5886.4063,167.875 Q5887.1094,167.875 5887.75,168.0313 Q5888.4063,168.1875 5888.9688,168.4844 L5888.9688,171.2031 Q5888.3438,170.625 5887.75,170.3594 Q5887.1563,170.0781 5886.5313,170.0781 Q5885.1875,170.0781 5884.5,171.1563 Q5883.8125,172.2188 5883.8125,174.3125 Q5883.8125,176.4063 5884.5,177.4844 Q5885.1875,178.5469 5886.5313,178.5469 Q5887.1563,178.5469 5887.75,178.2813 Q5888.3438,178 5888.9688,177.4219 L5888.9688,180.1406 Z " fill="#000000"/><text fill="#000000" font-family="sans-serif" font-size="14" lengthAdjust="spacing" textLength="286.043" x="5900" y="179.3467">logic_arc_int__baselibs__memory_shared</text><line style="stroke:#181818;stroke-width:0.5;" x1="5872" x2="6188.043" y1="190.5" y2="190.5"/></g><!--class logic_arc_int__baselibs__intrusive_list--><g id="elem_logic_arc_int__baselibs__intrusive_list"><rect fill="#F1F1F1" height="40" id="logic_arc_int__baselibs__intrusive_list" rx="2.5" ry="2.5" style="stroke:#181818;stroke-width:0.5;" width="293.0713" x="4278.5" y="158.5"/><ellipse cx="4293.5" cy="174.5" fill="#ADD1B2" rx="11" ry="11" style="stroke:#181818;stroke-width:1;"/><path d="M4296.4688,180.1406 Q4295.8906,180.4375 4295.25,180.5781 Q4294.6094,180.7344 4293.9063,180.7344 Q4291.4063,180.7344 4290.0781,179.0938 Q4288.7656,177.4375 4288.7656,174.3125 Q4288.7656,171.1875 4290.0781,169.5313 Q4291.4063,167.875 4293.9063,167.875 Q4294.6094,167.875 4295.25,168.0313 Q4295.9063,168.1875 4296.4688,168.4844 L4296.4688,171.2031 Q4295.8438,170.625 4295.25,170.3594 Q4294.6563,170.0781 4294.0313,170.0781 Q4292.6875,170.0781 4292,171.1563 Q4291.3125,172.2188 4291.3125,174.3125 Q4291.3125,176.4063 4292,177.4844 Q4292.6875,178.5469 4294.0313,178.5469 Q4294.6563,178.5469 4295.25,178.2813 Q4295.8438,178 4296.4688,177.4219 L4296.4688,180.1406 Z " fill="#000000"/><text fill="#000000" font-family="sans-serif" font-size="14" lengthAdjust="spacing" textLength="261.0713" x="4307.5" y="179.3467">logic_arc_int__baselibs__intrusive_list</text><line style="stroke:#181818;stroke-width:0.5;" x1="4279.5" x2="4570.5713" y1="190.5" y2="190.5"/></g><!--class logic_arc_int__baselibs__json--><g id="elem_logic_arc_int__baselibs__json"><rect fill="#F1F1F1" height="40" id="logic_arc_int__baselibs__json" rx="2.5" ry="2.5" style="stroke:#181818;stroke-width:0.5;" width="233.168" x="5596.5" y="158.5"/><ellipse cx="5611.5" cy="174.5" fill="#ADD1B2" rx="11" ry="11" style="stroke:#181818;stroke-width:1;"/><path d="M5614.4688,180.1406 Q5613.8906,180.4375 5613.25,180.5781 Q5612.6094,180.7344 5611.9063,180.7344 Q5609.4063,180.7344 5608.0781,179.0938 Q5606.7656,177.4375 5606.7656,174.3125 Q5606.7656,171.1875 5608.0781,169.5313 Q5609.4063,167.875 5611.9063,167.875 Q5612.6094,167.875 5613.25,168.0313 Q5613.9063,168.1875 5614.4688,168.4844 L5614.4688,171.2031 Q5613.8438,170.625 5613.25,170.3594 Q5612.6563,170.0781 5612.0313,170.0781 Q5610.6875,170.0781 5610,171.1563 Q5609.3125,172.2188 5609.3125,174.3125 Q5609.3125,176.4063 5610,177.4844 Q5610.6875,178.5469 5612.0313,178.5469 Q5612.6563,178.5469 5613.25,178.2813 Q5613.8438,178 5614.4688,177.4219 L5614.4688,180.1406 Z " fill="#000000"/><text fill="#000000" font-family="sans-serif" font-size="14" lengthAdjust="spacing" textLength="201.168" x="5625.5" y="179.3467">logic_arc_int__baselibs__json</text><line style="stroke:#181818;stroke-width:0.5;" x1="5597.5" x2="5828.668" y1="190.5" y2="190.5"/></g><!--class logic_arc_int__baselibs__filesystem--><g id="elem_logic_arc_int__baselibs__filesystem"><rect fill="#F1F1F1" height="40" id="logic_arc_int__baselibs__filesystem" rx="2.5" ry="2.5" style="stroke:#181818;stroke-width:0.5;" width="276.4805" x="3967" y="158.5"/><ellipse cx="3982" cy="174.5" fill="#ADD1B2" rx="11" ry="11" style="stroke:#181818;stroke-width:1;"/><path d="M3984.9688,180.1406 Q3984.3906,180.4375 3983.75,180.5781 Q3983.1094,180.7344 3982.4063,180.7344 Q3979.9063,180.7344 3978.5781,179.0938 Q3977.2656,177.4375 3977.2656,174.3125 Q3977.2656,171.1875 3978.5781,169.5313 Q3979.9063,167.875 3982.4063,167.875 Q3983.1094,167.875 3983.75,168.0313 Q3984.4063,168.1875 3984.9688,168.4844 L3984.9688,171.2031 Q3984.3438,170.625 3983.75,170.3594 Q3983.1563,170.0781 3982.5313,170.0781 Q3981.1875,170.0781 3980.5,171.1563 Q3979.8125,172.2188 3979.8125,174.3125 Q3979.8125,176.4063 3980.5,177.4844 Q3981.1875,178.5469 3982.5313,178.5469 Q3983.1563,178.5469 3983.75,178.2813 Q3984.3438,178 3984.9688,177.4219 L3984.9688,180.1406 Z " fill="#000000"/><text fill="#000000" font-family="sans-serif" font-size="14" lengthAdjust="spacing" textLength="244.4805" x="3996" y="179.3467">logic_arc_int__baselibs__filesystem</text><line style="stroke:#181818;stroke-width:0.5;" x1="3968" x2="4242.4805" y1="190.5" y2="190.5"/></g><!--class logic_arc_int__baselibs__condition_variable--><g id="elem_logic_arc_int__baselibs__condition_variable"><rect fill="#F1F1F1" height="40" id="logic_arc_int__baselibs__condition_variable" rx="2.5" ry="2.5" style="stroke:#181818;stroke-width:0.5;" width="332.7539" x="1874.5" y="158.5"/><ellipse cx="1889.5" cy="174.5" fill="#ADD1B2" rx="11" ry="11" style="stroke:#181818;stroke-width:1;"/><path d="M1892.4688,180.1406 Q1891.8906,180.4375 1891.25,180.5781 Q1890.6094,180.7344 1889.9063,180.7344 Q1887.4063,180.7344 1886.0781,179.0938 Q1884.7656,177.4375 1884.7656,174.3125 Q1884.7656,171.1875 1886.0781,169.5313 Q1887.4063,167.875 1889.9063,167.875 Q1890.6094,167.875 1891.25,168.0313 Q1891.9063,168.1875 1892.4688,168.4844 L1892.4688,171.2031 Q1891.8438,170.625 1891.25,170.3594 Q1890.6563,170.0781 1890.0313,170.0781 Q1888.6875,170.0781 1888,171.1563 Q1887.3125,172.2188 1887.3125,174.3125 Q1887.3125,176.4063 1888,177.4844 Q1888.6875,178.5469 1890.0313,178.5469 Q1890.6563,178.5469 1891.25,178.2813 Q1891.8438,178 1892.4688,177.4219 L1892.4688,180.1406 Z " fill="#000000"/><text fill="#000000" font-family="sans-serif" font-size="14" lengthAdjust="spacing" textLength="300.7539" x="1903.5" y="179.3467">logic_arc_int__baselibs__condition_variable</text><line style="stroke:#181818;stroke-width:0.5;" x1="1875.5" x2="2206.2539" y1="190.5" y2="190.5"/></g><!--class comp_arc_sta__baselibs__json--><g id="elem_comp_arc_sta__baselibs__json"><rect fill="#F1F1F1" height="40" id="comp_arc_sta__baselibs__json" rx="2.5" ry="2.5" style="stroke:#181818;stroke-width:0.5;" width="242.1367" x="5594" y="275.5"/><ellipse cx="5609" cy="291.5" fill="#ADD1B2" rx="11" ry="11" style="stroke:#181818;stroke-width:1;"/><path d="M5611.9688,297.1406 Q5611.3906,297.4375 5610.75,297.5781 Q5610.1094,297.7344 5609.4063,297.7344 Q5606.9063,297.7344 5605.5781,296.0938 Q5604.2656,294.4375 5604.2656,291.3125 Q5604.2656,288.1875 5605.5781,286.5313 Q5606.9063,284.875 5609.4063,284.875 Q5610.1094,284.875 5610.75,285.0313 Q5611.4063,285.1875 5611.9688,285.4844 L5611.9688,288.2031 Q5611.3438,287.625 5610.75,287.3594 Q5610.1563,287.0781 5609.5313,287.0781 Q5608.1875,287.0781 5607.5,288.1563 Q5606.8125,289.2188 5606.8125,291.3125 Q5606.8125,293.4063 5607.5,294.4844 Q5608.1875,295.5469 5609.5313,295.5469 Q5610.1563,295.5469 5610.75,295.2813 Q5611.3438,295 5611.9688,294.4219 L5611.9688,297.1406 Z " fill="#000000"/><text fill="#000000" font-family="sans-serif" font-size="14" lengthAdjust="spacing" textLength="210.1367" x="5623" y="296.3467">comp_arc_sta__baselibs__json</text><line style="stroke:#181818;stroke-width:0.5;" x1="5595" x2="5835.1367" y1="307.5" y2="307.5"/></g><!--class logic_arc_int__baselibs__dynamic_array--><g id="elem_logic_arc_int__baselibs__dynamic_array"><rect fill="#F1F1F1" height="40" id="logic_arc_int__baselibs__dynamic_array" rx="2.5" ry="2.5" style="stroke:#181818;stroke-width:0.5;" width="308.3496" x="4607" y="158.5"/><ellipse cx="4622" cy="174.5" fill="#ADD1B2" rx="11" ry="11" style="stroke:#181818;stroke-width:1;"/><path d="M4624.9688,180.1406 Q4624.3906,180.4375 4623.75,180.5781 Q4623.1094,180.7344 4622.4063,180.7344 Q4619.9063,180.7344 4618.5781,179.0938 Q4617.2656,177.4375 4617.2656,174.3125 Q4617.2656,171.1875 4618.5781,169.5313 Q4619.9063,167.875 4622.4063,167.875 Q4623.1094,167.875 4623.75,168.0313 Q4624.4063,168.1875 4624.9688,168.4844 L4624.9688,171.2031 Q4624.3438,170.625 4623.75,170.3594 Q4623.1563,170.0781 4622.5313,170.0781 Q4621.1875,170.0781 4620.5,171.1563 Q4619.8125,172.2188 4619.8125,174.3125 Q4619.8125,176.4063 4620.5,177.4844 Q4621.1875,178.5469 4622.5313,178.5469 Q4623.1563,178.5469 4623.75,178.2813 Q4624.3438,178 4624.9688,177.4219 L4624.9688,180.1406 Z " fill="#000000"/><text fill="#000000" font-family="sans-serif" font-size="14" lengthAdjust="spacing" textLength="276.3496" x="4636" y="179.3467">logic_arc_int__baselibs__dynamic_array</text><line style="stroke:#181818;stroke-width:0.5;" x1="4608" x2="4914.3496" y1="190.5" y2="190.5"/></g><!--class logic_arc_int__baselibs__executor--><g id="elem_logic_arc_int__baselibs__executor"><rect fill="#F1F1F1" height="40" id="logic_arc_int__baselibs__executor" rx="2.5" ry="2.5" style="stroke:#181818;stroke-width:0.5;" width="266.4385" x="1291" y="158.5"/><ellipse cx="1306" cy="174.5" fill="#ADD1B2" rx="11" ry="11" style="stroke:#181818;stroke-width:1;"/><path d="M1308.9688,180.1406 Q1308.3906,180.4375 1307.75,180.5781 Q1307.1094,180.7344 1306.4063,180.7344 Q1303.9063,180.7344 1302.5781,179.0938 Q1301.2656,177.4375 1301.2656,174.3125 Q1301.2656,171.1875 1302.5781,169.5313 Q1303.9063,167.875 1306.4063,167.875 Q1307.1094,167.875 1307.75,168.0313 Q1308.4063,168.1875 1308.9688,168.4844 L1308.9688,171.2031 Q1308.3438,170.625 1307.75,170.3594 Q1307.1563,170.0781 1306.5313,170.0781 Q1305.1875,170.0781 1304.5,171.1563 Q1303.8125,172.2188 1303.8125,174.3125 Q1303.8125,176.4063 1304.5,177.4844 Q1305.1875,178.5469 1306.5313,178.5469 Q1307.1563,178.5469 1307.75,178.2813 Q1308.3438,178 1308.9688,177.4219 L1308.9688,180.1406 Z " fill="#000000"/><text fill="#000000" font-family="sans-serif" font-size="14" lengthAdjust="spacing" textLength="234.4385" x="1320" y="179.3467">logic_arc_int__baselibs__executor</text><line style="stroke:#181818;stroke-width:0.5;" x1="1292" x2="1556.4385" y1="190.5" y2="190.5"/></g><!--class logic_arc_int__baselibs__result--><g id="elem_logic_arc_int__baselibs__result"><rect fill="#F1F1F1" height="40" id="logic_arc_int__baselibs__result" rx="2.5" ry="2.5" style="stroke:#181818;stroke-width:0.5;" width="244.4609" x="4950" y="158.5"/><ellipse cx="4965" cy="174.5" fill="#ADD1B2" rx="11" ry="11" style="stroke:#181818;stroke-width:1;"/><path d="M4967.9688,180.1406 Q4967.3906,180.4375 4966.75,180.5781 Q4966.1094,180.7344 4965.4063,180.7344 Q4962.9063,180.7344 4961.5781,179.0938 Q4960.2656,177.4375 4960.2656,174.3125 Q4960.2656,171.1875 4961.5781,169.5313 Q4962.9063,167.875 4965.4063,167.875 Q4966.1094,167.875 4966.75,168.0313 Q4967.4063,168.1875 4967.9688,168.4844 L4967.9688,171.2031 Q4967.3438,170.625 4966.75,170.3594 Q4966.1563,170.0781 4965.5313,170.0781 Q4964.1875,170.0781 4963.5,171.1563 Q4962.8125,172.2188 4962.8125,174.3125 Q4962.8125,176.4063 4963.5,177.4844 Q4964.1875,178.5469 4965.5313,178.5469 Q4966.1563,178.5469 4966.75,178.2813 Q4967.3438,178 4967.9688,177.4219 L4967.9688,180.1406 Z " fill="#000000"/><text fill="#000000" font-family="sans-serif" font-size="14" lengthAdjust="spacing" textLength="212.4609" x="4979" y="179.3467">logic_arc_int__baselibs__result</text><line style="stroke:#181818;stroke-width:0.5;" x1="4951" x2="5193.4609" y1="190.5" y2="190.5"/></g><!--class comp_arc_sta__baselibs__message_passing--><g id="elem_comp_arc_sta__baselibs__message_passing"><rect fill="#F1F1F1" height="40" id="comp_arc_sta__baselibs__message_passing" rx="2.5" ry="2.5" style="stroke:#181818;stroke-width:0.5;" width="337.1357" x="5221.5" y="275.5"/><ellipse cx="5236.5" cy="291.5" fill="#ADD1B2" rx="11" ry="11" style="stroke:#181818;stroke-width:1;"/><path d="M5239.4688,297.1406 Q5238.8906,297.4375 5238.25,297.5781 Q5237.6094,297.7344 5236.9063,297.7344 Q5234.4063,297.7344 5233.0781,296.0938 Q5231.7656,294.4375 5231.7656,291.3125 Q5231.7656,288.1875 5233.0781,286.5313 Q5234.4063,284.875 5236.9063,284.875 Q5237.6094,284.875 5238.25,285.0313 Q5238.9063,285.1875 5239.4688,285.4844 L5239.4688,288.2031 Q5238.8438,287.625 5238.25,287.3594 Q5237.6563,287.0781 5237.0313,287.0781 Q5235.6875,287.0781 5235,288.1563 Q5234.3125,289.2188 5234.3125,291.3125 Q5234.3125,293.4063 5235,294.4844 Q5235.6875,295.5469 5237.0313,295.5469 Q5237.6563,295.5469 5238.25,295.2813 Q5238.8438,295 5239.4688,294.4219 L5239.4688,297.1406 Z " fill="#000000"/><text fill="#000000" font-family="sans-serif" font-size="14" lengthAdjust="spacing" textLength="305.1357" x="5250.5" y="296.3467">comp_arc_sta__baselibs__message_passing</text><line style="stroke:#181818;stroke-width:0.5;" x1="5222.5" x2="5557.6357" y1="307.5" y2="307.5"/></g><!--class logic_arc_int__baselibs__message_passing--><g id="elem_logic_arc_int__baselibs__message_passing"><rect fill="#F1F1F1" height="40" id="logic_arc_int__baselibs__message_passing" rx="2.5" ry="2.5" style="stroke:#181818;stroke-width:0.5;" width="328.167" x="5229" y="158.5"/><ellipse cx="5244" cy="174.5" fill="#ADD1B2" rx="11" ry="11" style="stroke:#181818;stroke-width:1;"/><path d="M5246.9688,180.1406 Q5246.3906,180.4375 5245.75,180.5781 Q5245.1094,180.7344 5244.4063,180.7344 Q5241.9063,180.7344 5240.5781,179.0938 Q5239.2656,177.4375 5239.2656,174.3125 Q5239.2656,171.1875 5240.5781,169.5313 Q5241.9063,167.875 5244.4063,167.875 Q5245.1094,167.875 5245.75,168.0313 Q5246.4063,168.1875 5246.9688,168.4844 L5246.9688,171.2031 Q5246.3438,170.625 5245.75,170.3594 Q5245.1563,170.0781 5244.5313,170.0781 Q5243.1875,170.0781 5242.5,171.1563 Q5241.8125,172.2188 5241.8125,174.3125 Q5241.8125,176.4063 5242.5,177.4844 Q5243.1875,178.5469 5244.5313,178.5469 Q5245.1563,178.5469 5245.75,178.2813 Q5246.3438,178 5246.9688,177.4219 L5246.9688,180.1406 Z " fill="#000000"/><text fill="#000000" font-family="sans-serif" font-size="14" lengthAdjust="spacing" textLength="296.167" x="5258" y="179.3467">logic_arc_int__baselibs__message_passing</text><line style="stroke:#181818;stroke-width:0.5;" x1="5230" x2="5556.167" y1="190.5" y2="190.5"/></g><!--class logic_arc_int__baselibs__bit_manipulation--><g id="elem_logic_arc_int__baselibs__bit_manipulation"><rect fill="#F1F1F1" height="40" id="logic_arc_int__baselibs__bit_manipulation" rx="2.5" ry="2.5" style="stroke:#181818;stroke-width:0.5;" width="321.8369" x="3239" y="158.5"/><ellipse cx="3254" cy="174.5" fill="#ADD1B2" rx="11" ry="11" style="stroke:#181818;stroke-width:1;"/><path d="M3256.9688,180.1406 Q3256.3906,180.4375 3255.75,180.5781 Q3255.1094,180.7344 3254.4063,180.7344 Q3251.9063,180.7344 3250.5781,179.0938 Q3249.2656,177.4375 3249.2656,174.3125 Q3249.2656,171.1875 3250.5781,169.5313 Q3251.9063,167.875 3254.4063,167.875 Q3255.1094,167.875 3255.75,168.0313 Q3256.4063,168.1875 3256.9688,168.4844 L3256.9688,171.2031 Q3256.3438,170.625 3255.75,170.3594 Q3255.1563,170.0781 3254.5313,170.0781 Q3253.1875,170.0781 3252.5,171.1563 Q3251.8125,172.2188 3251.8125,174.3125 Q3251.8125,176.4063 3252.5,177.4844 Q3253.1875,178.5469 3254.5313,178.5469 Q3255.1563,178.5469 3255.75,178.2813 Q3256.3438,178 3256.9688,177.4219 L3256.9688,180.1406 Z " fill="#000000"/><text fill="#000000" font-family="sans-serif" font-size="14" lengthAdjust="spacing" textLength="289.8369" x="3268" y="179.3467">logic_arc_int__baselibs__bit_manipulation</text><line style="stroke:#181818;stroke-width:0.5;" x1="3240" x2="3559.8369" y1="190.5" y2="190.5"/></g><!--class logic_arc_int__baselibs__utils_scoped_op--><g id="elem_logic_arc_int__baselibs__utils_scoped_op"><rect fill="#F1F1F1" height="40" id="logic_arc_int__baselibs__utils_scoped_op" rx="2.5" ry="2.5" style="stroke:#181818;stroke-width:0.5;" width="315.377" x="334.5" y="158.5"/><ellipse cx="349.5" cy="174.5" fill="#ADD1B2" rx="11" ry="11" style="stroke:#181818;stroke-width:1;"/><path d="M352.4688,180.1406 Q351.8906,180.4375 351.25,180.5781 Q350.6094,180.7344 349.9063,180.7344 Q347.4063,180.7344 346.0781,179.0938 Q344.7656,177.4375 344.7656,174.3125 Q344.7656,171.1875 346.0781,169.5313 Q347.4063,167.875 349.9063,167.875 Q350.6094,167.875 351.25,168.0313 Q351.9063,168.1875 352.4688,168.4844 L352.4688,171.2031 Q351.8438,170.625 351.25,170.3594 Q350.6563,170.0781 350.0313,170.0781 Q348.6875,170.0781 348,171.1563 Q347.3125,172.2188 347.3125,174.3125 Q347.3125,176.4063 348,177.4844 Q348.6875,178.5469 350.0313,178.5469 Q350.6563,178.5469 351.25,178.2813 Q351.8438,178 352.4688,177.4219 L352.4688,180.1406 Z " fill="#000000"/><text fill="#000000" font-family="sans-serif" font-size="14" lengthAdjust="spacing" textLength="283.377" x="363.5" y="179.3467">logic_arc_int__baselibs__utils_scoped_op</text><line style="stroke:#181818;stroke-width:0.5;" x1="335.5" x2="648.877" y1="190.5" y2="190.5"/></g><!--class comp_arc_sta__baselibs__concurrency--><g id="elem_comp_arc_sta__baselibs__concurrency"><rect fill="#F1F1F1" height="40" id="comp_arc_sta__baselibs__concurrency" rx="2.5" ry="2.5" style="stroke:#181818;stroke-width:0.5;" width="300.2012" x="1703" y="275.5"/><ellipse cx="1718" cy="291.5" fill="#ADD1B2" rx="11" ry="11" style="stroke:#181818;stroke-width:1;"/><path d="M1720.9688,297.1406 Q1720.3906,297.4375 1719.75,297.5781 Q1719.1094,297.7344 1718.4063,297.7344 Q1715.9063,297.7344 1714.5781,296.0938 Q1713.2656,294.4375 1713.2656,291.3125 Q1713.2656,288.1875 1714.5781,286.5313 Q1715.9063,284.875 1718.4063,284.875 Q1719.1094,284.875 1719.75,285.0313 Q1720.4063,285.1875 1720.9688,285.4844 L1720.9688,288.2031 Q1720.3438,287.625 1719.75,287.3594 Q1719.1563,287.0781 1718.5313,287.0781 Q1717.1875,287.0781 1716.5,288.1563 Q1715.8125,289.2188 1715.8125,291.3125 Q1715.8125,293.4063 1716.5,294.4844 Q1717.1875,295.5469 1718.5313,295.5469 Q1719.1563,295.5469 1719.75,295.2813 Q1720.3438,295 1720.9688,294.4219 L1720.9688,297.1406 Z " fill="#000000"/><text fill="#000000" font-family="sans-serif" font-size="14" lengthAdjust="spacing" textLength="268.2012" x="1732" y="296.3467">comp_arc_sta__baselibs__concurrency</text><line style="stroke:#181818;stroke-width:0.5;" x1="1704" x2="2002.2012" y1="307.5" y2="307.5"/></g><!--class logic_arc_int__baselibs__task--><g id="elem_logic_arc_int__baselibs__task"><rect fill="#F1F1F1" height="40" id="logic_arc_int__baselibs__task" rx="2.5" ry="2.5" style="stroke:#181818;stroke-width:0.5;" width="234.0156" x="1022" y="158.5"/><ellipse cx="1037" cy="174.5" fill="#ADD1B2" rx="11" ry="11" style="stroke:#181818;stroke-width:1;"/><path d="M1039.9688,180.1406 Q1039.3906,180.4375 1038.75,180.5781 Q1038.1094,180.7344 1037.4063,180.7344 Q1034.9063,180.7344 1033.5781,179.0938 Q1032.2656,177.4375 1032.2656,174.3125 Q1032.2656,171.1875 1033.5781,169.5313 Q1034.9063,167.875 1037.4063,167.875 Q1038.1094,167.875 1038.75,168.0313 Q1039.4063,168.1875 1039.9688,168.4844 L1039.9688,171.2031 Q1039.3438,170.625 1038.75,170.3594 Q1038.1563,170.0781 1037.5313,170.0781 Q1036.1875,170.0781 1035.5,171.1563 Q1034.8125,172.2188 1034.8125,174.3125 Q1034.8125,176.4063 1035.5,177.4844 Q1036.1875,178.5469 1037.5313,178.5469 Q1038.1563,178.5469 1038.75,178.2813 Q1039.3438,178 1039.9688,177.4219 L1039.9688,180.1406 Z " fill="#000000"/><text fill="#000000" font-family="sans-serif" font-size="14" lengthAdjust="spacing" textLength="202.0156" x="1051" y="179.3467">logic_arc_int__baselibs__task</text><line style="stroke:#181818;stroke-width:0.5;" x1="1023" x2="1255.0156" y1="190.5" y2="190.5"/></g><!--class logic_arc_int__baselibs__utils_base64--><g id="elem_logic_arc_int__baselibs__utils_base64"><rect fill="#F1F1F1" height="40" id="logic_arc_int__baselibs__utils_base64" rx="2.5" ry="2.5" style="stroke:#181818;stroke-width:0.5;" width="292.1689" x="7" y="158.5"/><ellipse cx="22" cy="174.5" fill="#ADD1B2" rx="11" ry="11" style="stroke:#181818;stroke-width:1;"/><path d="M24.9688,180.1406 Q24.3906,180.4375 23.75,180.5781 Q23.1094,180.7344 22.4063,180.7344 Q19.9063,180.7344 18.5781,179.0938 Q17.2656,177.4375 17.2656,174.3125 Q17.2656,171.1875 18.5781,169.5313 Q19.9063,167.875 22.4063,167.875 Q23.1094,167.875 23.75,168.0313 Q24.4063,168.1875 24.9688,168.4844 L24.9688,171.2031 Q24.3438,170.625 23.75,170.3594 Q23.1563,170.0781 22.5313,170.0781 Q21.1875,170.0781 20.5,171.1563 Q19.8125,172.2188 19.8125,174.3125 Q19.8125,176.4063 20.5,177.4844 Q21.1875,178.5469 22.5313,178.5469 Q23.1563,178.5469 23.75,178.2813 Q24.3438,178 24.9688,177.4219 L24.9688,180.1406 Z " fill="#000000"/><text fill="#000000" font-family="sans-serif" font-size="14" lengthAdjust="spacing" textLength="260.1689" x="36" y="179.3467">logic_arc_int__baselibs__utils_base64</text><line style="stroke:#181818;stroke-width:0.5;" x1="8" x2="298.1689" y1="190.5" y2="190.5"/></g><!--class logic_arc_int__baselibs__shared_future--><g id="elem_logic_arc_int__baselibs__shared_future"><rect fill="#F1F1F1" height="40" id="logic_arc_int__baselibs__shared_future" rx="2.5" ry="2.5" style="stroke:#181818;stroke-width:0.5;" width="302.0811" x="685" y="158.5"/><ellipse cx="700" cy="174.5" fill="#ADD1B2" rx="11" ry="11" style="stroke:#181818;stroke-width:1;"/><path d="M702.9688,180.1406 Q702.3906,180.4375 701.75,180.5781 Q701.1094,180.7344 700.4063,180.7344 Q697.9063,180.7344 696.5781,179.0938 Q695.2656,177.4375 695.2656,174.3125 Q695.2656,171.1875 696.5781,169.5313 Q697.9063,167.875 700.4063,167.875 Q701.1094,167.875 701.75,168.0313 Q702.4063,168.1875 702.9688,168.4844 L702.9688,171.2031 Q702.3438,170.625 701.75,170.3594 Q701.1563,170.0781 700.5313,170.0781 Q699.1875,170.0781 698.5,171.1563 Q697.8125,172.2188 697.8125,174.3125 Q697.8125,176.4063 698.5,177.4844 Q699.1875,178.5469 700.5313,178.5469 Q701.1563,178.5469 701.75,178.2813 Q702.3438,178 702.9688,177.4219 L702.9688,180.1406 Z " fill="#000000"/><text fill="#000000" font-family="sans-serif" font-size="14" lengthAdjust="spacing" textLength="270.0811" x="714" y="179.3467">logic_arc_int__baselibs__shared_future</text><line style="stroke:#181818;stroke-width:0.5;" x1="686" x2="986.0811" y1="190.5" y2="190.5"/></g><!--class comp_arc_sta__baselibs__containers--><g id="elem_comp_arc_sta__baselibs__containers"><rect fill="#F1F1F1" height="40" id="comp_arc_sta__baselibs__containers" rx="2.5" ry="2.5" style="stroke:#181818;stroke-width:0.5;" width="287.1445" x="4423.5" y="275.5"/><ellipse cx="4438.5" cy="291.5" fill="#ADD1B2" rx="11" ry="11" style="stroke:#181818;stroke-width:1;"/><path d="M4441.4688,297.1406 Q4440.8906,297.4375 4440.25,297.5781 Q4439.6094,297.7344 4438.9063,297.7344 Q4436.4063,297.7344 4435.0781,296.0938 Q4433.7656,294.4375 4433.7656,291.3125 Q4433.7656,288.1875 4435.0781,286.5313 Q4436.4063,284.875 4438.9063,284.875 Q4439.6094,284.875 4440.25,285.0313 Q4440.9063,285.1875 4441.4688,285.4844 L4441.4688,288.2031 Q4440.8438,287.625 4440.25,287.3594 Q4439.6563,287.0781 4439.0313,287.0781 Q4437.6875,287.0781 4437,288.1563 Q4436.3125,289.2188 4436.3125,291.3125 Q4436.3125,293.4063 4437,294.4844 Q4437.6875,295.5469 4439.0313,295.5469 Q4439.6563,295.5469 4440.25,295.2813 Q4440.8438,295 4441.4688,294.4219 L4441.4688,297.1406 Z " fill="#000000"/><text fill="#000000" font-family="sans-serif" font-size="14" lengthAdjust="spacing" textLength="255.1445" x="4452.5" y="296.3467">comp_arc_sta__baselibs__containers</text><line style="stroke:#181818;stroke-width:0.5;" x1="4424.5" x2="4709.6445" y1="307.5" y2="307.5"/></g><!--class comp_arc_sta__baselibs__result--><g id="elem_comp_arc_sta__baselibs__result"><rect fill="#F1F1F1" height="40" id="comp_arc_sta__baselibs__result" rx="2.5" ry="2.5" style="stroke:#181818;stroke-width:0.5;" width="253.4297" x="4933.5" y="275.5"/><ellipse cx="4948.5" cy="291.5" fill="#ADD1B2" rx="11" ry="11" style="stroke:#181818;stroke-width:1;"/><path d="M4951.4688,297.1406 Q4950.8906,297.4375 4950.25,297.5781 Q4949.6094,297.7344 4948.9063,297.7344 Q4946.4063,297.7344 4945.0781,296.0938 Q4943.7656,294.4375 4943.7656,291.3125 Q4943.7656,288.1875 4945.0781,286.5313 Q4946.4063,284.875 4948.9063,284.875 Q4949.6094,284.875 4950.25,285.0313 Q4950.9063,285.1875 4951.4688,285.4844 L4951.4688,288.2031 Q4950.8438,287.625 4950.25,287.3594 Q4949.6563,287.0781 4949.0313,287.0781 Q4947.6875,287.0781 4947,288.1563 Q4946.3125,289.2188 4946.3125,291.3125 Q4946.3125,293.4063 4947,294.4844 Q4947.6875,295.5469 4949.0313,295.5469 Q4949.6563,295.5469 4950.25,295.2813 Q4950.8438,295 4951.4688,294.4219 L4951.4688,297.1406 Z " fill="#000000"/><text fill="#000000" font-family="sans-serif" font-size="14" lengthAdjust="spacing" textLength="221.4297" x="4962.5" y="296.3467">comp_arc_sta__baselibs__result</text><line style="stroke:#181818;stroke-width:0.5;" x1="4934.5" x2="5185.9297" y1="307.5" y2="307.5"/></g><!--class comp_arc_sta__baselibs__bit_manipulation--><g id="elem_comp_arc_sta__baselibs__bit_manipulation"><rect fill="#F1F1F1" height="40" id="comp_arc_sta__baselibs__bit_manipulation" rx="2.5" ry="2.5" style="stroke:#181818;stroke-width:0.5;" width="330.8057" x="3414.5" y="275.5"/><ellipse cx="3429.5" cy="291.5" fill="#ADD1B2" rx="11" ry="11" style="stroke:#181818;stroke-width:1;"/><path d="M3432.4688,297.1406 Q3431.8906,297.4375 3431.25,297.5781 Q3430.6094,297.7344 3429.9063,297.7344 Q3427.4063,297.7344 3426.0781,296.0938 Q3424.7656,294.4375 3424.7656,291.3125 Q3424.7656,288.1875 3426.0781,286.5313 Q3427.4063,284.875 3429.9063,284.875 Q3430.6094,284.875 3431.25,285.0313 Q3431.9063,285.1875 3432.4688,285.4844 L3432.4688,288.2031 Q3431.8438,287.625 3431.25,287.3594 Q3430.6563,287.0781 3430.0313,287.0781 Q3428.6875,287.0781 3428,288.1563 Q3427.3125,289.2188 3427.3125,291.3125 Q3427.3125,293.4063 3428,294.4844 Q3428.6875,295.5469 3430.0313,295.5469 Q3430.6563,295.5469 3431.25,295.2813 Q3431.8438,295 3432.4688,294.4219 L3432.4688,297.1406 Z " fill="#000000"/><text fill="#000000" font-family="sans-serif" font-size="14" lengthAdjust="spacing" textLength="298.8057" x="3443.5" y="296.3467">comp_arc_sta__baselibs__bit_manipulation</text><line style="stroke:#181818;stroke-width:0.5;" x1="3415.5" x2="3744.3057" y1="307.5" y2="307.5"/></g><!--class comp_arc_sta__baselibs__filesystem--><g id="elem_comp_arc_sta__baselibs__filesystem"><rect fill="#F1F1F1" height="40" id="comp_arc_sta__baselibs__filesystem" rx="2.5" ry="2.5" style="stroke:#181818;stroke-width:0.5;" width="285.4492" x="3962.5" y="275.5"/><ellipse cx="3977.5" cy="291.5" fill="#ADD1B2" rx="11" ry="11" style="stroke:#181818;stroke-width:1;"/><path d="M3980.4688,297.1406 Q3979.8906,297.4375 3979.25,297.5781 Q3978.6094,297.7344 3977.9063,297.7344 Q3975.4063,297.7344 3974.0781,296.0938 Q3972.7656,294.4375 3972.7656,291.3125 Q3972.7656,288.1875 3974.0781,286.5313 Q3975.4063,284.875 3977.9063,284.875 Q3978.6094,284.875 3979.25,285.0313 Q3979.9063,285.1875 3980.4688,285.4844 L3980.4688,288.2031 Q3979.8438,287.625 3979.25,287.3594 Q3978.6563,287.0781 3978.0313,287.0781 Q3976.6875,287.0781 3976,288.1563 Q3975.3125,289.2188 3975.3125,291.3125 Q3975.3125,293.4063 3976,294.4844 Q3976.6875,295.5469 3978.0313,295.5469 Q3978.6563,295.5469 3979.25,295.2813 Q3979.8438,295 3980.4688,294.4219 L3980.4688,297.1406 Z " fill="#000000"/><text fill="#000000" font-family="sans-serif" font-size="14" lengthAdjust="spacing" textLength="253.4492" x="3991.5" y="296.3467">comp_arc_sta__baselibs__filesystem</text><line style="stroke:#181818;stroke-width:0.5;" x1="3963.5" x2="4246.9492" y1="307.5" y2="307.5"/></g><!--class logic_arc_int__baselibs__synchronized_queue--><g id="elem_logic_arc_int__baselibs__synchronized_queue"><rect fill="#F1F1F1" height="40" id="logic_arc_int__baselibs__synchronized_queue" rx="2.5" ry="2.5" style="stroke:#181818;stroke-width:0.5;" width="348.3604" x="2243" y="158.5"/><ellipse cx="2258" cy="174.5" fill="#ADD1B2" rx="11" ry="11" style="stroke:#181818;stroke-width:1;"/><path d="M2260.9688,180.1406 Q2260.3906,180.4375 2259.75,180.5781 Q2259.1094,180.7344 2258.4063,180.7344 Q2255.9063,180.7344 2254.5781,179.0938 Q2253.2656,177.4375 2253.2656,174.3125 Q2253.2656,171.1875 2254.5781,169.5313 Q2255.9063,167.875 2258.4063,167.875 Q2259.1094,167.875 2259.75,168.0313 Q2260.4063,168.1875 2260.9688,168.4844 L2260.9688,171.2031 Q2260.3438,170.625 2259.75,170.3594 Q2259.1563,170.0781 2258.5313,170.0781 Q2257.1875,170.0781 2256.5,171.1563 Q2255.8125,172.2188 2255.8125,174.3125 Q2255.8125,176.4063 2256.5,177.4844 Q2257.1875,178.5469 2258.5313,178.5469 Q2259.1563,178.5469 2259.75,178.2813 Q2260.3438,178 2260.9688,177.4219 L2260.9688,180.1406 Z " fill="#000000"/><text fill="#000000" font-family="sans-serif" font-size="14" lengthAdjust="spacing" textLength="316.3604" x="2272" y="179.3467">logic_arc_int__baselibs__synchronized_queue</text><line style="stroke:#181818;stroke-width:0.5;" x1="2244" x2="2590.3604" y1="190.5" y2="190.5"/></g><!--class logic_arc_int__baselibs__future--><g id="elem_logic_arc_int__baselibs__future"><rect fill="#F1F1F1" height="40" id="logic_arc_int__baselibs__future" rx="2.5" ry="2.5" style="stroke:#181818;stroke-width:0.5;" width="247.0791" x="1592.5" y="158.5"/><ellipse cx="1607.5" cy="174.5" fill="#ADD1B2" rx="11" ry="11" style="stroke:#181818;stroke-width:1;"/><path d="M1610.4688,180.1406 Q1609.8906,180.4375 1609.25,180.5781 Q1608.6094,180.7344 1607.9063,180.7344 Q1605.4063,180.7344 1604.0781,179.0938 Q1602.7656,177.4375 1602.7656,174.3125 Q1602.7656,171.1875 1604.0781,169.5313 Q1605.4063,167.875 1607.9063,167.875 Q1608.6094,167.875 1609.25,168.0313 Q1609.9063,168.1875 1610.4688,168.4844 L1610.4688,171.2031 Q1609.8438,170.625 1609.25,170.3594 Q1608.6563,170.0781 1608.0313,170.0781 Q1606.6875,170.0781 1606,171.1563 Q1605.3125,172.2188 1605.3125,174.3125 Q1605.3125,176.4063 1606,177.4844 Q1606.6875,178.5469 1608.0313,178.5469 Q1608.6563,178.5469 1609.25,178.2813 Q1609.8438,178 1610.4688,177.4219 L1610.4688,180.1406 Z " fill="#000000"/><text fill="#000000" font-family="sans-serif" font-size="14" lengthAdjust="spacing" textLength="215.0791" x="1621.5" y="179.3467">logic_arc_int__baselibs__future</text><line style="stroke:#181818;stroke-width:0.5;" x1="1593.5" x2="1838.5791" y1="190.5" y2="190.5"/></g><!--class logic_arc_int__baselibs__task_result--><g id="elem_logic_arc_int__baselibs__task_result"><rect fill="#F1F1F1" height="40" id="logic_arc_int__baselibs__task_result" rx="2.5" ry="2.5" style="stroke:#181818;stroke-width:0.5;" width="280.9307" x="2626.5" y="158.5"/><ellipse cx="2641.5" cy="174.5" fill="#ADD1B2" rx="11" ry="11" style="stroke:#181818;stroke-width:1;"/><path d="M2644.4688,180.1406 Q2643.8906,180.4375 2643.25,180.5781 Q2642.6094,180.7344 2641.9063,180.7344 Q2639.4063,180.7344 2638.0781,179.0938 Q2636.7656,177.4375 2636.7656,174.3125 Q2636.7656,171.1875 2638.0781,169.5313 Q2639.4063,167.875 2641.9063,167.875 Q2642.6094,167.875 2643.25,168.0313 Q2643.9063,168.1875 2644.4688,168.4844 L2644.4688,171.2031 Q2643.8438,170.625 2643.25,170.3594 Q2642.6563,170.0781 2642.0313,170.0781 Q2640.6875,170.0781 2640,171.1563 Q2639.3125,172.2188 2639.3125,174.3125 Q2639.3125,176.4063 2640,177.4844 Q2640.6875,178.5469 2642.0313,178.5469 Q2642.6563,178.5469 2643.25,178.2813 Q2643.8438,178 2644.4688,177.4219 L2644.4688,180.1406 Z " fill="#000000"/><text fill="#000000" font-family="sans-serif" font-size="14" lengthAdjust="spacing" textLength="248.9307" x="2655.5" y="179.3467">logic_arc_int__baselibs__task_result</text><line style="stroke:#181818;stroke-width:0.5;" x1="2627.5" x2="2906.4307" y1="190.5" y2="190.5"/></g><!--class logic_arc_int__baselibs__bit_mask_operator--><g id="elem_logic_arc_int__baselibs__bit_mask_operator"><rect fill="#F1F1F1" height="40" id="logic_arc_int__baselibs__bit_mask_operator" rx="2.5" ry="2.5" style="stroke:#181818;stroke-width:0.5;" width="334.6406" x="3596.5" y="158.5"/><ellipse cx="3611.5" cy="174.5" fill="#ADD1B2" rx="11" ry="11" style="stroke:#181818;stroke-width:1;"/><path d="M3614.4688,180.1406 Q3613.8906,180.4375 3613.25,180.5781 Q3612.6094,180.7344 3611.9063,180.7344 Q3609.4063,180.7344 3608.0781,179.0938 Q3606.7656,177.4375 3606.7656,174.3125 Q3606.7656,171.1875 3608.0781,169.5313 Q3609.4063,167.875 3611.9063,167.875 Q3612.6094,167.875 3613.25,168.0313 Q3613.9063,168.1875 3614.4688,168.4844 L3614.4688,171.2031 Q3613.8438,170.625 3613.25,170.3594 Q3612.6563,170.0781 3612.0313,170.0781 Q3610.6875,170.0781 3610,171.1563 Q3609.3125,172.2188 3609.3125,174.3125 Q3609.3125,176.4063 3610,177.4844 Q3610.6875,178.5469 3612.0313,178.5469 Q3612.6563,178.5469 3613.25,178.2813 Q3613.8438,178 3614.4688,177.4219 L3614.4688,180.1406 Z " fill="#000000"/><text fill="#000000" font-family="sans-serif" font-size="14" lengthAdjust="spacing" textLength="302.6406" x="3625.5" y="179.3467">logic_arc_int__baselibs__bit_mask_operator</text><line style="stroke:#181818;stroke-width:0.5;" x1="3597.5" x2="3930.1406" y1="190.5" y2="190.5"/></g><!--class logic_arc_int__baselibs__promise--><g id="elem_logic_arc_int__baselibs__promise"><rect fill="#F1F1F1" height="40" id="logic_arc_int__baselibs__promise" rx="2.5" ry="2.5" style="stroke:#181818;stroke-width:0.5;" width="261.1885" x="2942.5" y="158.5"/><ellipse cx="2957.5" cy="174.5" fill="#ADD1B2" rx="11" ry="11" style="stroke:#181818;stroke-width:1;"/><path d="M2960.4688,180.1406 Q2959.8906,180.4375 2959.25,180.5781 Q2958.6094,180.7344 2957.9063,180.7344 Q2955.4063,180.7344 2954.0781,179.0938 Q2952.7656,177.4375 2952.7656,174.3125 Q2952.7656,171.1875 2954.0781,169.5313 Q2955.4063,167.875 2957.9063,167.875 Q2958.6094,167.875 2959.25,168.0313 Q2959.9063,168.1875 2960.4688,168.4844 L2960.4688,171.2031 Q2959.8438,170.625 2959.25,170.3594 Q2958.6563,170.0781 2958.0313,170.0781 Q2956.6875,170.0781 2956,171.1563 Q2955.3125,172.2188 2955.3125,174.3125 Q2955.3125,176.4063 2956,177.4844 Q2956.6875,178.5469 2958.0313,178.5469 Q2958.6563,178.5469 2959.25,178.2813 Q2959.8438,178 2960.4688,177.4219 L2960.4688,180.1406 Z " fill="#000000"/><text fill="#000000" font-family="sans-serif" font-size="14" lengthAdjust="spacing" textLength="229.1885" x="2971.5" y="179.3467">logic_arc_int__baselibs__promise</text><line style="stroke:#181818;stroke-width:0.5;" x1="2943.5" x2="3202.6885" y1="190.5" y2="190.5"/></g><!--class comp_arc_sta__baselibs__utils--><g id="elem_comp_arc_sta__baselibs__utils"><rect fill="#F1F1F1" height="40" id="comp_arc_sta__baselibs__utils" rx="2.5" ry="2.5" style="stroke:#181818;stroke-width:0.5;" width="242.9502" x="174.5" y="275.5"/><ellipse cx="189.5" cy="291.5" fill="#ADD1B2" rx="11" ry="11" style="stroke:#181818;stroke-width:1;"/><path d="M192.4688,297.1406 Q191.8906,297.4375 191.25,297.5781 Q190.6094,297.7344 189.9063,297.7344 Q187.4063,297.7344 186.0781,296.0938 Q184.7656,294.4375 184.7656,291.3125 Q184.7656,288.1875 186.0781,286.5313 Q187.4063,284.875 189.9063,284.875 Q190.6094,284.875 191.25,285.0313 Q191.9063,285.1875 192.4688,285.4844 L192.4688,288.2031 Q191.8438,287.625 191.25,287.3594 Q190.6563,287.0781 190.0313,287.0781 Q188.6875,287.0781 188,288.1563 Q187.3125,289.2188 187.3125,291.3125 Q187.3125,293.4063 188,294.4844 Q188.6875,295.5469 190.0313,295.5469 Q190.6563,295.5469 191.25,295.2813 Q191.8438,295 192.4688,294.4219 L192.4688,297.1406 Z " fill="#000000"/><text fill="#000000" font-family="sans-serif" font-size="14" lengthAdjust="spacing" textLength="210.9502" x="203.5" y="296.3467">comp_arc_sta__baselibs__utils</text><line style="stroke:#181818;stroke-width:0.5;" x1="175.5" x2="416.4502" y1="307.5" y2="307.5"/></g><!--reverse link logic_arc_int__baselibs__memory_shared to comp_arc_sta__baselibs__memory_shared--><g id="link_logic_arc_int__baselibs__memory_shared_comp_arc_sta__baselibs__memory_shared"><path codeLine="15" d="M6031.0998,204.7444 C6032.0198,225.9744 6033.24,253.94 6034.16,275.19 " fill="transparent" id="logic_arc_int__baselibs__memory_shared-backto-comp_arc_sta__baselibs__memory_shared" style="stroke:#181818;stroke-width:1;"/><polygon fill="#181818" points="6030.84,198.75,6027.2334,207.9147,6031.0565,203.7453,6035.2259,207.5684,6030.84,198.75" style="stroke:#181818;stroke-width:1;"/><text fill="#000000" font-family="sans-serif" font-size="13" lengthAdjust="spacing" textLength="76.9082" x="6034" y="241.5669">implements</text></g><!--link Feature_User to logic_arc_int__baselibs__intrusive_list--><g id="link_Feature_User_logic_arc_int__baselibs__intrusive_list"><path codeLine="16" d="M3118.04,48.52 C3275.36,62.61 3815.04,111.52 4260,158.5 C4266.02,159.14 4266.2047,159.1554 4272.4047,159.8254 " fill="transparent" id="Feature_User-to-logic_arc_int__baselibs__intrusive_list" style="stroke:#181818;stroke-width:1;"/><polygon fill="#181818" points="4278.37,160.47,4269.8519,155.5262,4273.3989,159.9328,4268.9923,163.4799,4278.37,160.47" style="stroke:#181818;stroke-width:1;"/><text fill="#000000" font-family="sans-serif" font-size="13" lengthAdjust="spacing" textLength="23.0103" x="3936" y="124.5669">use</text></g><!--link Feature_User to logic_arc_int__baselibs__json--><g id="link_Feature_User_logic_arc_int__baselibs__json"><path codeLine="17" d="M3118.07,45.62 C3322.88,50.84 4186.35,74.04 4894,111.5 C5196.52,127.52 5272.64,127.52 5574,158.5 C5581.27,159.25 5582.7815,159.3757 5590.3115,160.2657 " fill="transparent" id="Feature_User-to-logic_arc_int__baselibs__json" style="stroke:#181818;stroke-width:1;"/><polygon fill="#181818" points="5596.27,160.97,5587.8017,155.9413,5591.3046,160.3831,5586.8627,163.886,5596.27,160.97" style="stroke:#181818;stroke-width:1;"/><text fill="#000000" font-family="sans-serif" font-size="13" lengthAdjust="spacing" textLength="23.0103" x="5213" y="124.5669">use</text></g><!--link Feature_User to logic_arc_int__baselibs__filesystem--><g id="link_Feature_User_logic_arc_int__baselibs__filesystem"><path codeLine="18" d="M3118.01,50.3 C3264.46,69.17 3725.5492,128.5929 3960.8192,158.9229 " fill="transparent" id="Feature_User-to-logic_arc_int__baselibs__filesystem" style="stroke:#181818;stroke-width:1;"/><polygon fill="#181818" points="3966.77,159.69,3958.3553,154.5721,3961.811,159.0507,3957.3324,162.5065,3966.77,159.69" style="stroke:#181818;stroke-width:1;"/><text fill="#000000" font-family="sans-serif" font-size="13" lengthAdjust="spacing" textLength="23.0103" x="3713" y="124.5669">use</text></g><!--link Feature_User to logic_arc_int__baselibs__condition_variable--><g id="link_Feature_User_logic_arc_int__baselibs__condition_variable"><path codeLine="19" d="M3027.99,50.3 C2883.48,68.92 2432.7708,127.013 2194.6508,157.703 " fill="transparent" id="Feature_User-to-logic_arc_int__baselibs__condition_variable" style="stroke:#181818;stroke-width:1;"/><polygon fill="#181818" points="2188.7,158.47,2198.1375,161.2867,2193.659,157.8309,2197.1149,153.3524,2188.7,158.47" style="stroke:#181818;stroke-width:1;"/><text fill="#000000" font-family="sans-serif" font-size="13" lengthAdjust="spacing" textLength="23.0103" x="2528" y="124.5669">use</text></g><!--reverse link logic_arc_int__baselibs__json to comp_arc_sta__baselibs__json--><g id="link_logic_arc_int__baselibs__json_comp_arc_sta__baselibs__json"><path codeLine="20" d="M5713.4346,204.7491 C5713.8046,225.9791 5714.29,253.94 5714.66,275.19 " fill="transparent" id="logic_arc_int__baselibs__json-backto-comp_arc_sta__baselibs__json" style="stroke:#181818;stroke-width:1;"/><polygon fill="#181818" points="5713.33,198.75,5709.4874,207.8183,5713.4171,203.7492,5717.4862,207.6789,5713.33,198.75" style="stroke:#181818;stroke-width:1;"/><text fill="#000000" font-family="sans-serif" font-size="13" lengthAdjust="spacing" textLength="76.9082" x="5716" y="241.5669">implements</text></g><!--link Feature_User to logic_arc_int__baselibs__dynamic_array--><g id="link_Feature_User_logic_arc_int__baselibs__dynamic_array"><path codeLine="21" d="M3118,47.3 C3301.18,58.82 4008.54,104.49 4589,158.5 C4594.83,159.04 4594.8088,159.0228 4600.8088,159.6128 " fill="transparent" id="Feature_User-to-logic_arc_int__baselibs__dynamic_array" style="stroke:#181818;stroke-width:1;"/><polygon fill="#181818" points="4606.78,160.2,4598.2146,155.3384,4601.804,159.7107,4597.4318,163.3,4606.78,160.2" style="stroke:#181818;stroke-width:1;"/><text fill="#000000" font-family="sans-serif" font-size="13" lengthAdjust="spacing" textLength="23.0103" x="4217" y="124.5669">use</text></g><!--link Feature_User to logic_arc_int__baselibs__executor--><g id="link_Feature_User_logic_arc_int__baselibs__executor"><path codeLine="22" d="M3027.87,46.96 C2845.76,57.12 2147.25,98.03 1575,158.5 C1569.22,159.11 1569.2824,159.0897 1563.3224,159.7597 " fill="transparent" id="Feature_User-to-logic_arc_int__baselibs__executor" style="stroke:#181818;stroke-width:1;"/><polygon fill="#181818" points="1557.36,160.43,1566.7505,163.3996,1562.3287,159.8714,1565.8568,155.4496,1557.36,160.43" style="stroke:#181818;stroke-width:1;"/><text fill="#000000" font-family="sans-serif" font-size="13" lengthAdjust="spacing" textLength="23.0103" x="2070" y="124.5669">use</text></g><!--link Feature_User to logic_arc_int__baselibs__result--><g id="link_Feature_User_logic_arc_int__baselibs__result"><path codeLine="23" d="M3118.06,45.91 C3325.61,52.71 4210.24,84.77 4932,158.5 C4937.86,159.1 4937.8888,159.069 4943.9288,159.759 " fill="transparent" id="Feature_User-to-logic_arc_int__baselibs__result" style="stroke:#181818;stroke-width:1;"/><polygon fill="#181818" points="4949.89,160.44,4941.4022,155.4443,4944.9223,159.8725,4940.4942,163.3927,4949.89,160.44" style="stroke:#181818;stroke-width:1;"/><text fill="#000000" font-family="sans-serif" font-size="13" lengthAdjust="spacing" textLength="23.0103" x="4579" y="124.5669">use</text></g><!--reverse link logic_arc_int__baselibs__message_passing to comp_arc_sta__baselibs__message_passing--><g id="link_logic_arc_int__baselibs__message_passing_comp_arc_sta__baselibs__message_passing"><path codeLine="24" d="M5392.3418,204.7479 C5391.7818,225.9779 5391.06,253.94 5390.5,275.19 " fill="transparent" id="logic_arc_int__baselibs__message_passing-backto-comp_arc_sta__baselibs__message_passing" style="stroke:#181818;stroke-width:1;"/><polygon fill="#181818" points="5392.5,198.75,5388.2641,207.6414,5392.3682,203.7483,5396.2613,207.8523,5392.5,198.75" style="stroke:#181818;stroke-width:1;"/><text fill="#000000" font-family="sans-serif" font-size="13" lengthAdjust="spacing" textLength="76.9082" x="5393" y="241.5669">implements</text></g><!--link Feature_User to logic_arc_int__baselibs__bit_manipulation--><g id="link_Feature_User_logic_arc_int__baselibs__bit_manipulation"><path codeLine="25" d="M3118.12,62.85 C3179.97,88.01 3284.9724,130.7088 3347.6724,156.2188 " fill="transparent" id="Feature_User-to-logic_arc_int__baselibs__bit_manipulation" style="stroke:#181818;stroke-width:1;"/><polygon fill="#181818" points="3353.23,158.48,3346.401,151.3832,3348.5986,156.5957,3343.3861,158.7933,3353.23,158.48" style="stroke:#181818;stroke-width:1;"/><text fill="#000000" font-family="sans-serif" font-size="13" lengthAdjust="spacing" textLength="23.0103" x="3277" y="124.5669">use</text></g><!--link Feature_User to logic_arc_int__baselibs__utils_scoped_op--><g id="link_Feature_User_logic_arc_int__baselibs__utils_scoped_op"><path codeLine="26" d="M3027.94,45.62 C2826.91,50.75 1991.68,73.38 1307,111.5 C1022.23,127.35 951.04,132.66 667,158.5 C661.37,159.01 661.6121,158.9724 655.8221,159.5324 " fill="transparent" id="Feature_User-to-logic_arc_int__baselibs__utils_scoped_op" style="stroke:#181818;stroke-width:1;"/><polygon fill="#181818" points="649.85,160.11,659.1933,163.225,654.8268,159.6287,658.4231,155.2622,649.85,160.11" style="stroke:#181818;stroke-width:1;"/><text fill="#000000" font-family="sans-serif" font-size="13" lengthAdjust="spacing" textLength="23.0103" x="1308" y="124.5669">use</text></g><!--reverse link logic_arc_int__baselibs__executor to comp_arc_sta__baselibs__concurrency--><g id="link_logic_arc_int__baselibs__executor_comp_arc_sta__baselibs__concurrency"><path codeLine="27" d="M1501.1154,200.1735 C1580.5754,221.4735 1702.48,254.15 1781.86,275.43 " fill="transparent" id="logic_arc_int__baselibs__executor-backto-comp_arc_sta__baselibs__concurrency" style="stroke:#181818;stroke-width:1;"/><polygon fill="#181818" points="1495.32,198.62,1502.9774,204.8139,1500.1495,199.9146,1505.0488,197.0867,1495.32,198.62" style="stroke:#181818;stroke-width:1;"/><text fill="#000000" font-family="sans-serif" font-size="13" lengthAdjust="spacing" textLength="76.9082" x="1666" y="241.5669">implements</text></g><!--reverse link logic_arc_int__baselibs__task to comp_arc_sta__baselibs__concurrency--><g id="link_logic_arc_int__baselibs__task_comp_arc_sta__baselibs__concurrency"><path codeLine="28" d="M1253.5315,199.5766 C1331.2715,213.0766 1432.54,230.37 1527,245.5 C1591.28,255.8 1662.8,266.62 1722.44,275.46 " fill="transparent" id="logic_arc_int__baselibs__task-backto-comp_arc_sta__baselibs__concurrency" style="stroke:#181818;stroke-width:1;"/><polygon fill="#181818" points="1247.62,198.55,1255.8029,204.0309,1252.5463,199.4055,1257.1717,196.1488,1247.62,198.55" style="stroke:#181818;stroke-width:1;"/><text fill="#000000" font-family="sans-serif" font-size="13" lengthAdjust="spacing" textLength="76.9082" x="1528" y="241.5669">implements</text></g><!--link Feature_User to logic_arc_int__baselibs__utils_base64--><g id="link_Feature_User_logic_arc_int__baselibs__utils_base64"><path codeLine="29" d="M3027.69,45.35 C2805.71,49.62 1810.92,70.25 997,111.5 C694.45,126.83 618.66,130.62 317,158.5 C311.15,159.04 311.1504,159.0249 305.1304,159.6249 " fill="transparent" id="Feature_User-to-logic_arc_int__baselibs__utils_base64" style="stroke:#181818;stroke-width:1;"/><polygon fill="#181818" points="299.16,160.22,308.5123,163.3077,304.1353,159.7241,307.7189,155.3471,299.16,160.22" style="stroke:#181818;stroke-width:1;"/><text fill="#000000" font-family="sans-serif" font-size="13" lengthAdjust="spacing" textLength="23.0103" x="998" y="124.5669">use</text></g><!--reverse link logic_arc_int__baselibs__shared_future to comp_arc_sta__baselibs__concurrency--><g id="link_logic_arc_int__baselibs__shared_future_comp_arc_sta__baselibs__concurrency"><path codeLine="30" d="M979.5257,199.3353 C1082.0757,213.2253 1219.69,231.23 1346,245.5 C1465.84,259.04 1601.87,272.06 1702.84,281.27 " fill="transparent" id="logic_arc_int__baselibs__shared_future-backto-comp_arc_sta__baselibs__concurrency" style="stroke:#181818;stroke-width:1;"/><polygon fill="#181818" points="973.58,198.53,981.9617,203.7018,978.5348,199.2011,983.0354,195.7742,973.58,198.53" style="stroke:#181818;stroke-width:1;"/><text fill="#000000" font-family="sans-serif" font-size="13" lengthAdjust="spacing" textLength="76.9082" x="1347" y="241.5669">implements</text></g><!--reverse link logic_arc_int__baselibs__dynamic_array to comp_arc_sta__baselibs__containers--><g id="link_logic_arc_int__baselibs__dynamic_array_comp_arc_sta__baselibs__containers"><path codeLine="31" d="M4723.3685,201.8092 C4687.4485,223.0992 4635.09,254.14 4599.25,275.38 " fill="transparent" id="logic_arc_int__baselibs__dynamic_array-backto-comp_arc_sta__baselibs__containers" style="stroke:#181818;stroke-width:1;"/><polygon fill="#181818" points="4728.53,198.75,4718.7483,199.8979,4724.2288,201.2994,4722.8273,206.7799,4728.53,198.75" style="stroke:#181818;stroke-width:1;"/><text fill="#000000" font-family="sans-serif" font-size="13" lengthAdjust="spacing" textLength="76.9082" x="4677" y="241.5669">implements</text></g><!--reverse link logic_arc_int__baselibs__result to comp_arc_sta__baselibs__result--><g id="link_logic_arc_int__baselibs__result_comp_arc_sta__baselibs__result"><path codeLine="32" d="M5069.3688,204.7178 C5067.1588,225.9478 5064.23,253.94 5062.02,275.19 " fill="transparent" id="logic_arc_int__baselibs__result-backto-comp_arc_sta__baselibs__result" style="stroke:#181818;stroke-width:1;"/><polygon fill="#181818" points="5069.99,198.75,5065.0797,207.2875,5069.4723,203.7231,5073.0367,208.1158,5069.99,198.75" style="stroke:#181818;stroke-width:1;"/><text fill="#000000" font-family="sans-serif" font-size="13" lengthAdjust="spacing" textLength="76.9082" x="5068" y="241.5669">implements</text></g><!--reverse link logic_arc_int__baselibs__bit_manipulation to comp_arc_sta__baselibs__bit_manipulation--><g id="link_logic_arc_int__baselibs__bit_manipulation_comp_arc_sta__baselibs__bit_manipulation"><path codeLine="33" d="M3435.1865,201.9799 C3468.5165,223.2699 3516.83,254.14 3550.07,275.38 " fill="transparent" id="logic_arc_int__baselibs__bit_manipulation-backto-comp_arc_sta__baselibs__bit_manipulation" style="stroke:#181818;stroke-width:1;"/><polygon fill="#181818" points="3430.13,198.75,3435.5614,206.9658,3434.3437,201.4416,3439.868,200.2239,3430.13,198.75" style="stroke:#181818;stroke-width:1;"/><text fill="#000000" font-family="sans-serif" font-size="13" lengthAdjust="spacing" textLength="76.9082" x="3502" y="241.5669">implements</text></g><!--reverse link logic_arc_int__baselibs__filesystem to comp_arc_sta__baselibs__filesystem--><g id="link_logic_arc_int__baselibs__filesystem_comp_arc_sta__baselibs__filesystem"><path codeLine="34" d="M4105,204.75 C4105,225.98 4105,253.94 4105,275.19 " fill="transparent" id="logic_arc_int__baselibs__filesystem-backto-comp_arc_sta__baselibs__filesystem" style="stroke:#181818;stroke-width:1;"/><polygon fill="#181818" points="4105,198.75,4101,207.75,4105,203.75,4109,207.75,4105,198.75" style="stroke:#181818;stroke-width:1;"/><text fill="#000000" font-family="sans-serif" font-size="13" lengthAdjust="spacing" textLength="76.9082" x="4106" y="241.5669">implements</text></g><!--link Feature_User to logic_arc_int__baselibs__shared_future--><g id="link_Feature_User_logic_arc_int__baselibs__shared_future"><path codeLine="35" d="M3027.74,45.92 C2845.84,51.77 2150.35,75.35 1579,111.5 C1323.1,127.69 1259.2,133.65 1004,158.5 C998.45,159.04 998.7693,159.0037 993.0593,159.5837 " fill="transparent" id="Feature_User-to-logic_arc_int__baselibs__shared_future" style="stroke:#181818;stroke-width:1;"/><polygon fill="#181818" points="987.09,160.19,996.4482,163.26,992.0644,159.6847,995.6397,155.301,987.09,160.19" style="stroke:#181818;stroke-width:1;"/><text fill="#000000" font-family="sans-serif" font-size="13" lengthAdjust="spacing" textLength="23.0103" x="1580" y="124.5669">use</text></g><!--link Feature_User to logic_arc_int__baselibs__synchronized_queue--><g id="link_Feature_User_logic_arc_int__baselibs__synchronized_queue"><path codeLine="36" d="M3027.91,53.64 C2921.75,75.17 2660.1004,128.2179 2516.8504,157.2579 " fill="transparent" id="Feature_User-to-logic_arc_int__baselibs__synchronized_queue" style="stroke:#181818;stroke-width:1;"/><polygon fill="#181818" points="2510.97,158.45,2520.5853,160.5821,2515.8703,157.4566,2518.9959,152.7416,2510.97,158.45" style="stroke:#181818;stroke-width:1;"/><text fill="#000000" font-family="sans-serif" font-size="13" lengthAdjust="spacing" textLength="23.0103" x="2727" y="124.5669">use</text></g><!--reverse link logic_arc_int__baselibs__future to comp_arc_sta__baselibs__concurrency--><g id="link_logic_arc_int__baselibs__future_comp_arc_sta__baselibs__concurrency"><path codeLine="37" d="M1743.5254,202.6077 C1768.8154,223.8377 1804.68,253.94 1829.99,275.19 " fill="transparent" id="logic_arc_int__baselibs__future-backto-comp_arc_sta__baselibs__concurrency" style="stroke:#181818;stroke-width:1;"/><polygon fill="#181818" points="1738.93,198.75,1743.2514,207.6002,1742.7595,201.9648,1748.395,201.4729,1738.93,198.75" style="stroke:#181818;stroke-width:1;"/><text fill="#000000" font-family="sans-serif" font-size="13" lengthAdjust="spacing" textLength="76.9082" x="1794" y="241.5669">implements</text></g><!--reverse link logic_arc_int__baselibs__intrusive_list to comp_arc_sta__baselibs__containers--><g id="link_logic_arc_int__baselibs__intrusive_list_comp_arc_sta__baselibs__containers"><path codeLine="38" d="M4453.4324,202.5265 C4479.6424,223.7565 4516.91,253.94 4543.15,275.19 " fill="transparent" id="logic_arc_int__baselibs__intrusive_list-backto-comp_arc_sta__baselibs__containers" style="stroke:#181818;stroke-width:1;"/><polygon fill="#181818" points="4448.77,198.75,4453.2459,207.523,4452.6553,201.8971,4458.2813,201.3065,4448.77,198.75" style="stroke:#181818;stroke-width:1;"/><text fill="#000000" font-family="sans-serif" font-size="13" lengthAdjust="spacing" textLength="76.9082" x="4506" y="241.5669">implements</text></g><!--reverse link logic_arc_int__baselibs__task_result to comp_arc_sta__baselibs__concurrency--><g id="link_logic_arc_int__baselibs__task_result_comp_arc_sta__baselibs__concurrency"><path codeLine="39" d="M2620.3702,198.6747 C2517.5302,212.0647 2380.61,229.75 2255,245.5 C2171.81,255.93 2078.89,267.28 2003.36,276.42 " fill="transparent" id="logic_arc_int__baselibs__task_result-backto-comp_arc_sta__baselibs__concurrency" style="stroke:#181818;stroke-width:1;"/><polygon fill="#181818" points="2626.32,197.9,2616.8789,195.0955,2621.3619,198.5456,2617.9118,203.0285,2626.32,197.9" style="stroke:#181818;stroke-width:1;"/><text fill="#000000" font-family="sans-serif" font-size="13" lengthAdjust="spacing" textLength="76.9082" x="2383" y="241.5669">implements</text></g><!--reverse link logic_arc_int__baselibs__bit_mask_operator to comp_arc_sta__baselibs__bit_manipulation--><g id="link_logic_arc_int__baselibs__bit_mask_operator_comp_arc_sta__baselibs__bit_manipulation"><path codeLine="40" d="M3728.1118,201.9296 C3694.0418,223.2196 3644.58,254.14 3610.59,275.38 " fill="transparent" id="logic_arc_int__baselibs__bit_mask_operator-backto-comp_arc_sta__baselibs__bit_manipulation" style="stroke:#181818;stroke-width:1;"/><polygon fill="#181818" points="3733.2,198.75,3723.4479,200.1272,3728.9598,201.3997,3727.6874,206.9115,3733.2,198.75" style="stroke:#181818;stroke-width:1;"/><text fill="#000000" font-family="sans-serif" font-size="13" lengthAdjust="spacing" textLength="76.9082" x="3685" y="241.5669">implements</text></g><!--link Feature_User to logic_arc_int__baselibs__promise--><g id="link_Feature_User_logic_arc_int__baselibs__promise"><path codeLine="41" d="M3073,81.55 C3073,106.45 3073,132.26 3073,152.26 " fill="transparent" id="Feature_User-to-logic_arc_int__baselibs__promise" style="stroke:#181818;stroke-width:1;"/><polygon fill="#181818" points="3073,158.26,3077,149.26,3073,153.26,3069,149.26,3073,158.26" style="stroke:#181818;stroke-width:1;"/><text fill="#000000" font-family="sans-serif" font-size="13" lengthAdjust="spacing" textLength="23.0103" x="3074" y="124.5669">use</text></g><!--link Feature_User to logic_arc_int__baselibs__bit_mask_operator--><g id="link_Feature_User_logic_arc_int__baselibs__bit_mask_operator"><path codeLine="42" d="M3118.07,53.18 C3228.2,74.37 3507.1182,128.0558 3659.1182,157.3158 " fill="transparent" id="Feature_User-to-logic_arc_int__baselibs__bit_mask_operator" style="stroke:#181818;stroke-width:1;"/><polygon fill="#181818" points="3665.01,158.45,3656.9284,152.8208,3660.1001,157.5049,3655.4161,160.6766,3665.01,158.45" style="stroke:#181818;stroke-width:1;"/><text fill="#000000" font-family="sans-serif" font-size="13" lengthAdjust="spacing" textLength="23.0103" x="3502" y="124.5669">use</text></g><!--reverse link logic_arc_int__baselibs__condition_variable to comp_arc_sta__baselibs__concurrency--><g id="link_logic_arc_int__baselibs__condition_variable_comp_arc_sta__baselibs__concurrency"><path codeLine="43" d="M2004.4114,201.8805 C1969.6014,223.1705 1918.98,254.14 1884.26,275.38 " fill="transparent" id="logic_arc_int__baselibs__condition_variable-backto-comp_arc_sta__baselibs__concurrency" style="stroke:#181818;stroke-width:1;"/><polygon fill="#181818" points="2009.53,198.75,1999.7651,200.0334,2005.2645,201.3588,2003.9392,206.8582,2009.53,198.75" style="stroke:#181818;stroke-width:1;"/><text fill="#000000" font-family="sans-serif" font-size="13" lengthAdjust="spacing" textLength="76.9082" x="1960" y="241.5669">implements</text></g><!--link Feature_User to logic_arc_int__baselibs__memory_shared--><g id="link_Feature_User_logic_arc_int__baselibs__memory_shared"><path codeLine="44" d="M3118.13,45.1 C3345.79,48.31 4390.82,65.01 5245,111.5 C5512.97,126.09 5579.73,134.2 5847,158.5 C5854.79,159.21 5856.7972,159.3894 5864.8572,160.1594 " fill="transparent" id="Feature_User-to-logic_arc_int__baselibs__memory_shared" style="stroke:#181818;stroke-width:1;"/><polygon fill="#181818" points="5870.83,160.73,5862.2512,155.8922,5865.8527,160.2545,5861.4904,163.856,5870.83,160.73" style="stroke:#181818;stroke-width:1;"/><text fill="#000000" font-family="sans-serif" font-size="13" lengthAdjust="spacing" textLength="23.0103" x="5507" y="124.5669">use</text></g><!--reverse link logic_arc_int__baselibs__utils_base64 to comp_arc_sta__baselibs__utils--><g id="link_logic_arc_int__baselibs__utils_base64_comp_arc_sta__baselibs__utils"><path codeLine="45" d="M181.6057,202.51 C208.0057,223.74 245.56,253.94 271.99,275.19 " fill="transparent" id="logic_arc_int__baselibs__utils_base64-backto-comp_arc_sta__baselibs__utils" style="stroke:#181818;stroke-width:1;"/><polygon fill="#181818" points="176.93,198.75,181.4368,207.5072,180.8264,201.8834,186.4502,201.2729,176.93,198.75" style="stroke:#181818;stroke-width:1;"/><text fill="#000000" font-family="sans-serif" font-size="13" lengthAdjust="spacing" textLength="76.9082" x="235" y="241.5669">implements</text></g><!--link Feature_User to logic_arc_int__baselibs__future--><g id="link_Feature_User_logic_arc_int__baselibs__future"><path codeLine="46" d="M3027.94,48.06 C2868.09,60.84 2313.36,106.38 1857,158.5 C1851.36,159.14 1851.5472,159.1147 1845.7172,159.8147 " fill="transparent" id="Feature_User-to-logic_arc_int__baselibs__future" style="stroke:#181818;stroke-width:1;"/><polygon fill="#181818" points="1839.76,160.53,1849.1727,163.4286,1844.7243,159.9339,1848.219,155.4856,1839.76,160.53" style="stroke:#181818;stroke-width:1;"/><text fill="#000000" font-family="sans-serif" font-size="13" lengthAdjust="spacing" textLength="23.0103" x="2293" y="124.5669">use</text></g><!--link Feature_User to logic_arc_int__baselibs__task--><g id="link_Feature_User_logic_arc_int__baselibs__task"><path codeLine="47" d="M3027.91,46.64 C2869.21,54.24 2321.59,81.15 1870,111.5 C1604.44,129.35 1537.55,129.36 1273,158.5 C1267.51,159.1 1267.8559,159.0339 1262.1959,159.7239 " fill="transparent" id="Feature_User-to-logic_arc_int__baselibs__task" style="stroke:#181818;stroke-width:1;"/><polygon fill="#181818" points="1256.24,160.45,1265.6579,163.3315,1261.2033,159.8449,1264.6898,155.3903,1256.24,160.45" style="stroke:#181818;stroke-width:1;"/><text fill="#000000" font-family="sans-serif" font-size="13" lengthAdjust="spacing" textLength="23.0103" x="1871" y="124.5669">use</text></g><!--link Feature_User to logic_arc_int__baselibs__task_result--><g id="link_Feature_User_logic_arc_int__baselibs__task_result"><path codeLine="48" d="M3027.85,64.12 C2969.5,89.49 2874.0628,130.9685 2816.3528,156.0485 " fill="transparent" id="Feature_User-to-logic_arc_int__baselibs__task_result" style="stroke:#181818;stroke-width:1;"/><polygon fill="#181818" points="2810.85,158.44,2820.6985,158.5214,2815.4357,156.4471,2817.5099,151.1843,2810.85,158.44" style="stroke:#181818;stroke-width:1;"/><text fill="#000000" font-family="sans-serif" font-size="13" lengthAdjust="spacing" textLength="23.0103" x="2912" y="124.5669">use</text></g><!--reverse link logic_arc_int__baselibs__promise to comp_arc_sta__baselibs__concurrency--><g id="link_logic_arc_int__baselibs__promise_comp_arc_sta__baselibs__concurrency"><path codeLine="49" d="M2936.3226,197.1741 C2930.4826,197.8741 2930.66,197.85 2925,198.5 C2722.17,221.95 2671.34,226.95 2468,245.5 C2309.47,259.97 2127.72,274.15 2003.15,283.5 " fill="transparent" id="logic_arc_int__baselibs__promise-backto-comp_arc_sta__baselibs__concurrency" style="stroke:#181818;stroke-width:1;"/><polygon fill="#181818" points="2942.28,196.46,2932.8679,193.5595,2937.3155,197.0551,2933.82,201.5027,2942.28,196.46" style="stroke:#181818;stroke-width:1;"/><text fill="#000000" font-family="sans-serif" font-size="13" lengthAdjust="spacing" textLength="76.9082" x="2644" y="241.5669">implements</text></g><!--reverse link logic_arc_int__baselibs__utils_scoped_op to comp_arc_sta__baselibs__utils--><g id="link_logic_arc_int__baselibs__utils_scoped_op_comp_arc_sta__baselibs__utils"><path codeLine="50" d="M454.0148,201.7861 C417.7248,223.0761 364.79,254.14 328.59,275.38 " fill="transparent" id="logic_arc_int__baselibs__utils_scoped_op-backto-comp_arc_sta__baselibs__utils" style="stroke:#181818;stroke-width:1;"/><polygon fill="#181818" points="459.19,198.75,449.4032,199.854,454.8774,201.2801,453.4513,206.7542,459.19,198.75" style="stroke:#181818;stroke-width:1;"/><text fill="#000000" font-family="sans-serif" font-size="13" lengthAdjust="spacing" textLength="76.9082" x="407" y="241.5669">implements</text></g><!--link Feature_User to logic_arc_int__baselibs__message_passing--><g id="link_Feature_User_logic_arc_int__baselibs__message_passing"><path codeLine="51" d="M3118.01,45.89 C3302.78,51.72 4021.1,75.56 4611,111.5 C4877.99,127.77 4944.63,134.17 5211,158.5 C5216.85,159.03 5216.8367,159.0244 5222.8567,159.5944 " fill="transparent" id="Feature_User-to-logic_arc_int__baselibs__message_passing" style="stroke:#181818;stroke-width:1;"/><polygon fill="#181818" points="5228.83,160.16,5220.2471,155.3294,5223.8523,159.6887,5219.493,163.2938,5228.83,160.16" style="stroke:#181818;stroke-width:1;"/><text fill="#000000" font-family="sans-serif" font-size="13" lengthAdjust="spacing" textLength="23.0103" x="4862" y="124.5669">use</text></g><!--reverse link logic_arc_int__baselibs__synchronized_queue to comp_arc_sta__baselibs__concurrency--><g id="link_logic_arc_int__baselibs__synchronized_queue_comp_arc_sta__baselibs__concurrency"><path codeLine="52" d="M2317.671,199.7489 C2213.271,221.0389 2051.11,254.11 1946.63,275.41 " fill="transparent" id="logic_arc_int__baselibs__synchronized_queue-backto-comp_arc_sta__baselibs__concurrency" style="stroke:#181818;stroke-width:1;"/><polygon fill="#181818" points="2323.55,198.55,2313.9322,196.429,2318.6508,199.5491,2315.5308,204.2677,2323.55,198.55" style="stroke:#181818;stroke-width:1;"/><text fill="#000000" font-family="sans-serif" font-size="13" lengthAdjust="spacing" textLength="76.9082" x="2170" y="241.5669">implements</text></g><!--SRC=[jLPDRzGm4BtxLrYzRq48SQYgNf0uSOIpDN6ckqFz4JpZqe3uxpYRXUwcs-Q3zEZ4ypnlvlcDmRdumtXweB1L4XijKLTH97fTKq8h58FQKOsQ1HD6QHlir-WRQJM89Ago8AjhbjRXZRe49bVfN-ep1VmONKmwORrVVTcHlGl8hDzTlbM_rVMRGum2AsNVnIS4oGdrLyPqeO7ruOFfFcYbRFIDWMGD2nXJ0QEZYetnw6Dg3U-W7AKtUNEZNToItU-b8C_klTBa6uSUWx1M9wTjwfTGoZ9bfdiqZbYkT6QS5V-DOvWVTKiEkIsjyFDZRGmrTVqqzv08AeS7ZEUAsgKuKikUnS8Ircq0l_-Le9tF1n_GvgAQ-P49EJiPOU-BJ66BfW7cSZb6HNMoUt5DAXBZ8L2J7NIzcayk2pasR6E3jOdD2CiY2fjJmc3R4OQFvJwczl-u0dotk5mzsMxzuVrgJ7jdCBUvos8oNO5YS8b7i0UQduBTgtK4zw-afm0EDJO2_LIIKmvvTAeH-6DBMwY2GSFctXXkWzsb6EXd0VcUCUDgKdeL3Gr7p_htyVNbLCue1fNWYQ7Cw5kJeYTUqF0pAQpKxtCpTY6xmJFbnGJtDZYIsgbLBangwHNhJNv9rBHXFRr3_qGpHThJwteqRnVtU_22M6kQdN6tunJ_0000]--></g></svg>