<svg xmlns="http://www.w3.org/2000/svg" xmlns:xlink="http://www.w3.org/1999/xlink" contentStyleType="text/css" data-diagram-type="CLASS" height="322px" preserveAspectRatio="none" style="width:6205px;height:322px;background:#FFFFFF;" version="1.1" viewBox="0 0 6205 322" width="6205px" zoomAndPan="magnify"><defs/><g><!--entity Feature_User--><g id="elem_Feature_User"><ellipse cx="3089.6685" cy="14" fill="#F1F1F1" rx="8" ry="8" style="stroke:#181818;stroke-width:0.5;"/><path d="M3089.6685,22 L3089.6685,49 M3076.6685,30 L3102.6685,30 M3089.6685,49 L3076.6685,64 M3089.6685,49 L3102.6685,64 " fill="transparent" style="stroke:#181818;stroke-width:0.5;"/><text fill="#000000" font-family="sans-serif" font-size="14" lengthAdjust="spacing" textLength="90.3369" x="3044.5" y="78.4951">Feature User</text></g><!--class logic_arc_int__baselibs__task_result--><g id="elem_logic_arc_int__baselibs__task_result"><rect fill="#F1F1F1" height="40" id="logic_arc_int__baselibs__task_result" rx="2.5" ry="2.5" style="stroke:#181818;stroke-width:0.5;" width="280.9307" x="2949" y="158.5"/><ellipse cx="2964" cy="174.5" fill="#ADD1B2" rx="11" ry="11" style="stroke:#181818;stroke-width:1;"/><path d="M2966.9688,180.1406 Q2966.3906,180.4375 2965.75,180.5781 Q2965.1094,180.7344 2964.4063,180.7344 Q2961.9063,180.7344 2960.5781,179.0938 Q2959.2656,177.4375 2959.2656,174.3125 Q2959.2656,171.1875 2960.5781,169.5313 Q2961.9063,167.875 2964.4063,167.875 Q2965.1094,167.875 2965.75,168.0313 Q2966.4063,168.1875 2966.9688,168.4844 L2966.9688,171.2031 Q2966.3438,170.625 2965.75,170.3594 Q2965.1563,170.0781 2964.5313,170.0781 Q2963.1875,170.0781 2962.5,171.1563 Q2961.8125,172.2188 2961.8125,174.3125 Q2961.8125,176.4063 2962.5,177.4844 Q2963.1875,178.5469 2964.5313,178.5469 Q2965.1563,178.5469 2965.75,178.2813 Q2966.3438,178 2966.9688,177.4219 L2966.9688,180.1406 Z " fill="#000000"/><text fill="#000000" font-family="sans-serif" font-size="14" lengthAdjust="spacing" textLength="248.9307" x="2978" y="179.3467">logic_arc_int__baselibs__task_result</text><line style="stroke:#181818;stroke-width:0.5;" x1="2950" x2="3228.9307" y1="190.5" y2="190.5"/></g><!--class logic_arc_int__baselibs__result--><g id="elem_logic_arc_int__baselibs__result"><rect fill="#F1F1F1" height="40" id="logic_arc_int__baselibs__result" rx="2.5" ry="2.5" style="stroke:#181818;stroke-width:0.5;" width="244.4609" x="5949.5" y="158.5"/><ellipse cx="5964.5" cy="174.5" fill="#ADD1B2" rx="11" ry="11" style="stroke:#181818;stroke-width:1;"/><path d="M5967.4688,180.1406 Q5966.8906,180.4375 5966.25,180.5781 Q5965.6094,180.7344 5964.9063,180.7344 Q5962.4063,180.7344 5961.0781,179.0938 Q5959.7656,177.4375 5959.7656,174.3125 Q5959.7656,171.1875 5961.0781,169.5313 Q5962.4063,167.875 5964.9063,167.875 Q5965.6094,167.875 5966.25,168.0313 Q5966.9063,168.1875 5967.4688,168.4844 L5967.4688,171.2031 Q5966.8438,170.625 5966.25,170.3594 Q5965.6563,170.0781 5965.0313,170.0781 Q5963.6875,170.0781 5963,171.1563 Q5962.3125,172.2188 5962.3125,174.3125 Q5962.3125,176.4063 5963,177.4844 Q5963.6875,178.5469 5965.0313,178.5469 Q5965.6563,178.5469 5966.25,178.2813 Q5966.8438,178 5967.4688,177.4219 L5967.4688,180.1406 Z " fill="#000000"/><text fill="#000000" font-family="sans-serif" font-size="14" lengthAdjust="spacing" textLength="212.4609" x="5978.5" y="179.3467">logic_arc_int__baselibs__result</text><line style="stroke:#181818;stroke-width:0.5;" x1="5950.5" x2="6192.9609" y1="190.5" y2="190.5"/></g><!--class logic_arc_int__baselibs__shared_future--><g id="elem_logic_arc_int__baselibs__shared_future"><rect fill="#F1F1F1" height="40" id="logic_arc_int__baselibs__shared_future" rx="2.5" ry="2.5" style="stroke:#181818;stroke-width:0.5;" width="302.0811" x="3935.5" y="158.5"/><ellipse cx="3950.5" cy="174.5" fill="#ADD1B2" rx="11" ry="11" style="stroke:#181818;stroke-width:1;"/><path d="M3953.4688,180.1406 Q3952.8906,180.4375 3952.25,180.5781 Q3951.6094,180.7344 3950.9063,180.7344 Q3948.4063,180.7344 3947.0781,179.0938 Q3945.7656,177.4375 3945.7656,174.3125 Q3945.7656,171.1875 3947.0781,169.5313 Q3948.4063,167.875 3950.9063,167.875 Q3951.6094,167.875 3952.25,168.0313 Q3952.9063,168.1875 3953.4688,168.4844 L3953.4688,171.2031 Q3952.8438,170.625 3952.25,170.3594 Q3951.6563,170.0781 3951.0313,170.0781 Q3949.6875,170.0781 3949,171.1563 Q3948.3125,172.2188 3948.3125,174.3125 Q3948.3125,176.4063 3949,177.4844 Q3949.6875,178.5469 3951.0313,178.5469 Q3951.6563,178.5469 3952.25,178.2813 Q3952.8438,178 3953.4688,177.4219 L3953.4688,180.1406 Z " fill="#000000"/><text fill="#000000" font-family="sans-serif" font-size="14" lengthAdjust="spacing" textLength="270.0811" x="3964.5" y="179.3467">logic_arc_int__baselibs__shared_future</text><line style="stroke:#181818;stroke-width:0.5;" x1="3936.5" x2="4236.5811" y1="190.5" y2="190.5"/></g><!--class comp_arc_sta__baselibs__bit_manipulation--><g id="elem_comp_arc_sta__baselibs__bit_manipulation"><rect fill="#F1F1F1" height="40" id="comp_arc_sta__baselibs__bit_manipulation" rx="2.5" ry="2.5" style="stroke:#181818;stroke-width:0.5;" width="330.8057" x="5397" y="275.5"/><ellipse cx="5412" cy="291.5" fill="#ADD1B2" rx="11" ry="11" style="stroke:#181818;stroke-width:1;"/><path d="M5414.9688,297.1406 Q5414.3906,297.4375 5413.75,297.5781 Q5413.1094,297.7344 5412.4063,297.7344 Q5409.9063,297.7344 5408.5781,296.0938 Q5407.2656,294.4375 5407.2656,291.3125 Q5407.2656,288.1875 5408.5781,286.5313 Q5409.9063,284.875 5412.4063,284.875 Q5413.1094,284.875 5413.75,285.0313 Q5414.4063,285.1875 5414.9688,285.4844 L5414.9688,288.2031 Q5414.3438,287.625 5413.75,287.3594 Q5413.1563,287.0781 5412.5313,287.0781 Q5411.1875,287.0781 5410.5,288.1563 Q5409.8125,289.2188 5409.8125,291.3125 Q5409.8125,293.4063 5410.5,294.4844 Q5411.1875,295.5469 5412.5313,295.5469 Q5413.1563,295.5469 5413.75,295.2813 Q5414.3438,295 5414.9688,294.4219 L5414.9688,297.1406 Z " fill="#000000"/><text fill="#000000" font-family="sans-serif" font-size="14" lengthAdjust="spacing" textLength="298.8057" x="5426" y="296.3467">comp_arc_sta__baselibs__bit_manipulation</text><line style="stroke:#181818;stroke-width:0.5;" x1="5398" x2="5726.8057" y1="307.5" y2="307.5"/></g><!--class logic_arc_int__baselibs__bit_mask_operator--><g id="elem_logic_arc_int__baselibs__bit_mask_operator"><rect fill="#F1F1F1" height="40" id="logic_arc_int__baselibs__bit_mask_operator" rx="2.5" ry="2.5" style="stroke:#181818;stroke-width:0.5;" width="334.6406" x="5579" y="158.5"/><ellipse cx="5594" cy="174.5" fill="#ADD1B2" rx="11" ry="11" style="stroke:#181818;stroke-width:1;"/><path d="M5596.9688,180.1406 Q5596.3906,180.4375 5595.75,180.5781 Q5595.1094,180.7344 5594.4063,180.7344 Q5591.9063,180.7344 5590.5781,179.0938 Q5589.2656,177.4375 5589.2656,174.3125 Q5589.2656,171.1875 5590.5781,169.5313 Q5591.9063,167.875 5594.4063,167.875 Q5595.1094,167.875 5595.75,168.0313 Q5596.4063,168.1875 5596.9688,168.4844 L5596.9688,171.2031 Q5596.3438,170.625 5595.75,170.3594 Q5595.1563,170.0781 5594.5313,170.0781 Q5593.1875,170.0781 5592.5,171.1563 Q5591.8125,172.2188 5591.8125,174.3125 Q5591.8125,176.4063 5592.5,177.4844 Q5593.1875,178.5469 5594.5313,178.5469 Q5595.1563,178.5469 5595.75,178.2813 Q5596.3438,178 5596.9688,177.4219 L5596.9688,180.1406 Z " fill="#000000"/><text fill="#000000" font-family="sans-serif" font-size="14" lengthAdjust="spacing" textLength="302.6406" x="5608" y="179.3467">logic_arc_int__baselibs__bit_mask_operator</text><line style="stroke:#181818;stroke-width:0.5;" x1="5580" x2="5912.6406" y1="190.5" y2="190.5"/></g><!--class comp_arc_sta__baselibs__result--><g id="elem_comp_arc_sta__baselibs__result"><rect fill="#F1F1F1" height="40" id="comp_arc_sta__baselibs__result" rx="2.5" ry="2.5" style="stroke:#181818;stroke-width:0.5;" width="253.4297" x="5945" y="275.5"/><ellipse cx="5960" cy="291.5" fill="#ADD1B2" rx="11" ry="11" style="stroke:#181818;stroke-width:1;"/><path d="M5962.9688,297.1406 Q5962.3906,297.4375 5961.75,297.5781 Q5961.1094,297.7344 5960.4063,297.7344 Q5957.9063,297.7344 5956.5781,296.0938 Q5955.2656,294.4375 5955.2656,291.3125 Q5955.2656,288.1875 5956.5781,286.5313 Q5957.9063,284.875 5960.4063,284.875 Q5961.1094,284.875 5961.75,285.0313 Q5962.4063,285.1875 5962.9688,285.4844 L5962.9688,288.2031 Q5962.3438,287.625 5961.75,287.3594 Q5961.1563,287.0781 5960.5313,287.0781 Q5959.1875,287.0781 5958.5,288.1563 Q5957.8125,289.2188 5957.8125,291.3125 Q5957.8125,293.4063 5958.5,294.4844 Q5959.1875,295.5469 5960.5313,295.5469 Q5961.1563,295.5469 5961.75,295.2813 Q5962.3438,295 5962.9688,294.4219 L5962.9688,297.1406 Z " fill="#000000"/><text fill="#000000" font-family="sans-serif" font-size="14" lengthAdjust="spacing" textLength="221.4297" x="5974" y="296.3467">comp_arc_sta__baselibs__result</text><line style="stroke:#181818;stroke-width:0.5;" x1="5946" x2="6197.4297" y1="307.5" y2="307.5"/></g><!--class logic_arc_int__baselibs__memory_shared--><g id="elem_logic_arc_int__baselibs__memory_shared"><rect fill="#F1F1F1" height="40" id="logic_arc_int__baselibs__memory_shared" rx="2.5" ry="2.5" style="stroke:#181818;stroke-width:0.5;" width="318.043" x="1635.5" y="158.5"/><ellipse cx="1650.5" cy="174.5" fill="#ADD1B2" rx="11" ry="11" style="stroke:#181818;stroke-width:1;"/><path d="M1653.4688,180.1406 Q1652.8906,180.4375 1652.25,180.5781 Q1651.6094,180.7344 1650.9063,180.7344 Q1648.4063,180.7344 1647.0781,179.0938 Q1645.7656,177.4375 1645.7656,174.3125 Q1645.7656,171.1875 1647.0781,169.5313 Q1648.4063,167.875 1650.9063,167.875 Q1651.6094,167.875 1652.25,168.0313 Q1652.9063,168.1875 1653.4688,168.4844 L1653.4688,171.2031 Q1652.8438,170.625 1652.25,170.3594 Q1651.6563,170.0781 1651.0313,170.0781 Q1649.6875,170.0781 1649,171.1563 Q1648.3125,172.2188 1648.3125,174.3125 Q1648.3125,176.4063 1649,177.4844 Q1649.6875,178.5469 1651.0313,178.5469 Q1651.6563,178.5469 1652.25,178.2813 Q1652.8438,178 1653.4688,177.4219 L1653.4688,180.1406 Z " fill="#000000"/><text fill="#000000" font-family="sans-serif" font-size="14" lengthAdjust="spacing" textLength="286.043" x="1664.5" y="179.3467">logic_arc_int__baselibs__memory_shared</text><line style="stroke:#181818;stroke-width:0.5;" x1="1636.5" x2="1952.543" y1="190.5" y2="190.5"/></g><!--class logic_arc_int__baselibs__dynamic_array--><g id="elem_logic_arc_int__baselibs__dynamic_array"><rect fill="#F1F1F1" height="40" id="logic_arc_int__baselibs__dynamic_array" rx="2.5" ry="2.5" style="stroke:#181818;stroke-width:0.5;" width="308.3496" x="1292.5" y="158.5"/><ellipse cx="1307.5" cy="174.5" fill="#ADD1B2" rx="11" ry="11" style="stroke:#181818;stroke-width:1;"/><path d="M1310.4688,180.1406 Q1309.8906,180.4375 1309.25,180.5781 Q1308.6094,180.7344 1307.9063,180.7344 Q1305.4063,180.7344 1304.0781,179.0938 Q1302.7656,177.4375 1302.7656,174.3125 Q1302.7656,171.1875 1304.0781,169.5313 Q1305.4063,167.875 1307.9063,167.875 Q1308.6094,167.875 1309.25,168.0313 Q1309.9063,168.1875 1310.4688,168.4844 L1310.4688,171.2031 Q1309.8438,170.625 1309.25,170.3594 Q1308.6563,170.0781 1308.0313,170.0781 Q1306.6875,170.0781 1306,171.1563 Q1305.3125,172.2188 1305.3125,174.3125 Q1305.3125,176.4063 1306,177.4844 Q1306.6875,178.5469 1308.0313,178.5469 Q1308.6563,178.5469 1309.25,178.2813 Q1309.8438,178 1310.4688,177.4219 L1310.4688,180.1406 Z " fill="#000000"/><text fill="#000000" font-family="sans-serif" font-size="14" lengthAdjust="spacing" textLength="276.3496" x="1321.5" y="179.3467">logic_arc_int__baselibs__dynamic_array</text><line style="stroke:#181818;stroke-width:0.5;" x1="1293.5" x2="1599.8496" y1="190.5" y2="190.5"/></g><!--class comp_arc_sta__baselibs__concurrency--><g id="elem_comp_arc_sta__baselibs__concurrency"><rect fill="#F1F1F1" height="40" id="comp_arc_sta__baselibs__concurrency" rx="2.5" ry="2.5" style="stroke:#181818;stroke-width:0.5;" width="300.2012" x="3731.5" y="275.5"/><ellipse cx="3746.5" cy="291.5" fill="#ADD1B2" rx="11" ry="11" style="stroke:#181818;stroke-width:1;"/><path d="M3749.4688,297.1406 Q3748.8906,297.4375 3748.25,297.5781 Q3747.6094,297.7344 3746.9063,297.7344 Q3744.4063,297.7344 3743.0781,296.0938 Q3741.7656,294.4375 3741.7656,291.3125 Q3741.7656,288.1875 3743.0781,286.5313 Q3744.4063,284.875 3746.9063,284.875 Q3747.6094,284.875 3748.25,285.0313 Q3748.9063,285.1875 3749.4688,285.4844 L3749.4688,288.2031 Q3748.8438,287.625 3748.25,287.3594 Q3747.6563,287.0781 3747.0313,287.0781 Q3745.6875,287.0781 3745,288.1563 Q3744.3125,289.2188 3744.3125,291.3125 Q3744.3125,293.4063 3745,294.4844 Q3745.6875,295.5469 3747.0313,295.5469 Q3747.6563,295.5469 3748.25,295.2813 Q3748.8438,295 3749.4688,294.4219 L3749.4688,297.1406 Z " fill="#000000"/><text fill="#000000" font-family="sans-serif" font-size="14" lengthAdjust="spacing" textLength="268.2012" x="3760.5" y="296.3467">comp_arc_sta__baselibs__concurrency</text><line style="stroke:#181818;stroke-width:0.5;" x1="3732.5" x2="4030.7012" y1="307.5" y2="307.5"/></g><!--class logic_arc_int__baselibs__task--><g id="elem_logic_arc_int__baselibs__task"><rect fill="#F1F1F1" height="40" id="logic_arc_int__baselibs__task" rx="2.5" ry="2.5" style="stroke:#181818;stroke-width:0.5;" width="234.0156" x="4272.5" y="158.5"/><ellipse cx="4287.5" cy="174.5" fill="#ADD1B2" rx="11" ry="11" style="stroke:#181818;stroke-width:1;"/><path d="M4290.4688,180.1406 Q4289.8906,180.4375 4289.25,180.5781 Q4288.6094,180.7344 4287.9063,180.7344 Q4285.4063,180.7344 4284.0781,179.0938 Q4282.7656,177.4375 4282.7656,174.3125 Q4282.7656,171.1875 4284.0781,169.5313 Q4285.4063,167.875 4287.9063,167.875 Q4288.6094,167.875 4289.25,168.0313 Q4289.9063,168.1875 4290.4688,168.4844 L4290.4688,171.2031 Q4289.8438,170.625 4289.25,170.3594 Q4288.6563,170.0781 4288.0313,170.0781 Q4286.6875,170.0781 4286,171.1563 Q4285.3125,172.2188 4285.3125,174.3125 Q4285.3125,176.4063 4286,177.4844 Q4286.6875,178.5469 4288.0313,178.5469 Q4288.6563,178.5469 4289.25,178.2813 Q4289.8438,178 4290.4688,177.4219 L4290.4688,180.1406 Z " fill="#000000"/><text fill="#000000" font-family="sans-serif" font-size="14" lengthAdjust="spacing" textLength="202.0156" x="4301.5" y="179.3467">logic_arc_int__baselibs__task</text><line style="stroke:#181818;stroke-width:0.5;" x1="4273.5" x2="4505.5156" y1="190.5" y2="190.5"/></g><!--class logic_arc_int__baselibs__utils_base64--><g id="elem_logic_arc_int__baselibs__utils_base64"><rect fill="#F1F1F1" height="40" id="logic_arc_int__baselibs__utils_base64" rx="2.5" ry="2.5" style="stroke:#181818;stroke-width:0.5;" width="292.1689" x="2339.5" y="158.5"/><ellipse cx="2354.5" cy="174.5" fill="#ADD1B2" rx="11" ry="11" style="stroke:#181818;stroke-width:1;"/><path d="M2357.4688,180.1406 Q2356.8906,180.4375 2356.25,180.5781 Q2355.6094,180.7344 2354.9063,180.7344 Q2352.4063,180.7344 2351.0781,179.0938 Q2349.7656,177.4375 2349.7656,174.3125 Q2349.7656,171.1875 2351.0781,169.5313 Q2352.4063,167.875 2354.9063,167.875 Q2355.6094,167.875 2356.25,168.0313 Q2356.9063,168.1875 2357.4688,168.4844 L2357.4688,171.2031 Q2356.8438,170.625 2356.25,170.3594 Q2355.6563,170.0781 2355.0313,170.0781 Q2353.6875,170.0781 2353,171.1563 Q2352.3125,172.2188 2352.3125,174.3125 Q2352.3125,176.4063 2353,177.4844 Q2353.6875,178.5469 2355.0313,178.5469 Q2355.6563,178.5469 2356.25,178.2813 Q2356.8438,178 2357.4688,177.4219 L2357.4688,180.1406 Z " fill="#000000"/><text fill="#000000" font-family="sans-serif" font-size="14" lengthAdjust="spacing" textLength="260.1689" x="2368.5" y="179.3467">logic_arc_int__baselibs__utils_base64</text><line style="stroke:#181818;stroke-width:0.5;" x1="2340.5" x2="2630.6689" y1="190.5" y2="190.5"/></g><!--class logic_arc_int__baselibs__bit_manipulation--><g id="elem_logic_arc_int__baselibs__bit_manipulation"><rect fill="#F1F1F1" height="40" id="logic_arc_int__baselibs__bit_manipulation" rx="2.5" ry="2.5" style="stroke:#181818;stroke-width:0.5;" width="321.8369" x="5221.5" y="158.5"/><ellipse cx="5236.5" cy="174.5" fill="#ADD1B2" rx="11" ry="11" style="stroke:#181818;stroke-width:1;"/><path d="M5239.4688,180.1406 Q5238.8906,180.4375 5238.25,180.5781 Q5237.6094,180.7344 5236.9063,180.7344 Q5234.4063,180.7344 5233.0781,179.0938 Q5231.7656,177.4375 5231.7656,174.3125 Q5231.7656,171.1875 5233.0781,169.5313 Q5234.4063,167.875 5236.9063,167.875 Q5237.6094,167.875 5238.25,168.0313 Q5238.9063,168.1875 5239.4688,168.4844 L5239.4688,171.2031 Q5238.8438,170.625 5238.25,170.3594 Q5237.6563,170.0781 5237.0313,170.0781 Q5235.6875,170.0781 5235,171.1563 Q5234.3125,172.2188 5234.3125,174.3125 Q5234.3125,176.4063 5235,177.4844 Q5235.6875,178.5469 5237.0313,178.5469 Q5237.6563,178.5469 5238.25,178.2813 Q5238.8438,178 5239.4688,177.4219 L5239.4688,180.1406 Z " fill="#000000"/><text fill="#000000" font-family="sans-serif" font-size="14" lengthAdjust="spacing" textLength="289.8369" x="5250.5" y="179.3467">logic_arc_int__baselibs__bit_manipulation</text><line style="stroke:#181818;stroke-width:0.5;" x1="5222.5" x2="5542.3369" y1="190.5" y2="190.5"/></g><!--class logic_arc_int__baselibs__executor--><g id="elem_logic_arc_int__baselibs__executor"><rect fill="#F1F1F1" height="40" id="logic_arc_int__baselibs__executor" rx="2.5" ry="2.5" style="stroke:#181818;stroke-width:0.5;" width="266.4385" x="3265.5" y="158.5"/><ellipse cx="3280.5" cy="174.5" fill="#ADD1B2" rx="11" ry="11" style="stroke:#181818;stroke-width:1;"/><path d="M3283.4688,180.1406 Q3282.8906,180.4375 3282.25,180.5781 Q3281.6094,180.7344 3280.9063,180.7344 Q3278.4063,180.7344 3277.0781,179.0938 Q3275.7656,177.4375 3275.7656,174.3125 Q3275.7656,171.1875 3277.0781,169.5313 Q3278.4063,167.875 3280.9063,167.875 Q3281.6094,167.875 3282.25,168.0313 Q3282.9063,168.1875 3283.4688,168.4844 L3283.4688,171.2031 Q3282.8438,170.625 3282.25,170.3594 Q3281.6563,170.0781 3281.0313,170.0781 Q3279.6875,170.0781 3279,171.1563 Q3278.3125,172.2188 3278.3125,174.3125 Q3278.3125,176.4063 3279,177.4844 Q3279.6875,178.5469 3281.0313,178.5469 Q3281.6563,178.5469 3282.25,178.2813 Q3282.8438,178 3283.4688,177.4219 L3283.4688,180.1406 Z " fill="#000000"/><text fill="#000000" font-family="sans-serif" font-size="14" lengthAdjust="spacing" textLength="234.4385" x="3294.5" y="179.3467">logic_arc_int__baselibs__executor</text><line style="stroke:#181818;stroke-width:0.5;" x1="3266.5" x2="3530.9385" y1="190.5" y2="190.5"/></g><!--class comp_arc_sta__baselibs__utils--><g id="elem_comp_arc_sta__baselibs__utils"><rect fill="#F1F1F1" height="40" id="comp_arc_sta__baselibs__utils" rx="2.5" ry="2.5" style="stroke:#181818;stroke-width:0.5;" width="242.9502" x="2167" y="275.5"/><ellipse cx="2182" cy="291.5" fill="#ADD1B2" rx="11" ry="11" style="stroke:#181818;stroke-width:1;"/><path d="M2184.9688,297.1406 Q2184.3906,297.4375 2183.75,297.5781 Q2183.1094,297.7344 2182.4063,297.7344 Q2179.9063,297.7344 2178.5781,296.0938 Q2177.2656,294.4375 2177.2656,291.3125 Q2177.2656,288.1875 2178.5781,286.5313 Q2179.9063,284.875 2182.4063,284.875 Q2183.1094,284.875 2183.75,285.0313 Q2184.4063,285.1875 2184.9688,285.4844 L2184.9688,288.2031 Q2184.3438,287.625 2183.75,287.3594 Q2183.1563,287.0781 2182.5313,287.0781 Q2181.1875,287.0781 2180.5,288.1563 Q2179.8125,289.2188 2179.8125,291.3125 Q2179.8125,293.4063 2180.5,294.4844 Q2181.1875,295.5469 2182.5313,295.5469 Q2183.1563,295.5469 2183.75,295.2813 Q2184.3438,295 2184.9688,294.4219 L2184.9688,297.1406 Z " fill="#000000"/><text fill="#000000" font-family="sans-serif" font-size="14" lengthAdjust="spacing" textLength="210.9502" x="2196" y="296.3467">comp_arc_sta__baselibs__utils</text><line style="stroke:#181818;stroke-width:0.5;" x1="2168" x2="2408.9502" y1="307.5" y2="307.5"/></g><!--class comp_arc_sta__baselibs__containers--><g id="elem_comp_arc_sta__baselibs__containers"><rect fill="#F1F1F1" height="40" id="comp_arc_sta__baselibs__containers" rx="2.5" ry="2.5" style="stroke:#181818;stroke-width:0.5;" width="287.1445" x="1059" y="275.5"/><ellipse cx="1074" cy="291.5" fill="#ADD1B2" rx="11" ry="11" style="stroke:#181818;stroke-width:1;"/><path d="M1076.9688,297.1406 Q1076.3906,297.4375 1075.75,297.5781 Q1075.1094,297.7344 1074.4063,297.7344 Q1071.9063,297.7344 1070.5781,296.0938 Q1069.2656,294.4375 1069.2656,291.3125 Q1069.2656,288.1875 1070.5781,286.5313 Q1071.9063,284.875 1074.4063,284.875 Q1075.1094,284.875 1075.75,285.0313 Q1076.4063,285.1875 1076.9688,285.4844 L1076.9688,288.2031 Q1076.3438,287.625 1075.75,287.3594 Q1075.1563,287.0781 1074.5313,287.0781 Q1073.1875,287.0781 1072.5,288.1563 Q1071.8125,289.2188 1071.8125,291.3125 Q1071.8125,293.4063 1072.5,294.4844 Q1073.1875,295.5469 1074.5313,295.5469 Q1075.1563,295.5469 1075.75,295.2813 Q1076.3438,295 1076.9688,294.4219 L1076.9688,297.1406 Z " fill="#000000"/><text fill="#000000" font-family="sans-serif" font-size="14" lengthAdjust="spacing" textLength="255.1445" x="1088" y="296.3467">comp_arc_sta__baselibs__containers</text><line style="stroke:#181818;stroke-width:0.5;" x1="1060" x2="1345.1445" y1="307.5" y2="307.5"/></g><!--class logic_arc_int__baselibs__json--><g id="elem_logic_arc_int__baselibs__json"><rect fill="#F1F1F1" height="40" id="logic_arc_int__baselibs__json" rx="2.5" ry="2.5" style="stroke:#181818;stroke-width:0.5;" width="233.168" x="384" y="158.5"/><ellipse cx="399" cy="174.5" fill="#ADD1B2" rx="11" ry="11" style="stroke:#181818;stroke-width:1;"/><path d="M401.9688,180.1406 Q401.3906,180.4375 400.75,180.5781 Q400.1094,180.7344 399.4063,180.7344 Q396.9063,180.7344 395.5781,179.0938 Q394.2656,177.4375 394.2656,174.3125 Q394.2656,171.1875 395.5781,169.5313 Q396.9063,167.875 399.4063,167.875 Q400.1094,167.875 400.75,168.0313 Q401.4063,168.1875 401.9688,168.4844 L401.9688,171.2031 Q401.3438,170.625 400.75,170.3594 Q400.1563,170.0781 399.5313,170.0781 Q398.1875,170.0781 397.5,171.1563 Q396.8125,172.2188 396.8125,174.3125 Q396.8125,176.4063 397.5,177.4844 Q398.1875,178.5469 399.5313,178.5469 Q400.1563,178.5469 400.75,178.2813 Q401.3438,178 401.9688,177.4219 L401.9688,180.1406 Z " fill="#000000"/><text fill="#000000" font-family="sans-serif" font-size="14" lengthAdjust="spacing" textLength="201.168" x="413" y="179.3467">logic_arc_int__baselibs__json</text><line style="stroke:#181818;stroke-width:0.5;" x1="385" x2="616.168" y1="190.5" y2="190.5"/></g><!--class logic_arc_int__baselibs__intrusive_list--><g id="elem_logic_arc_int__baselibs__intrusive_list"><rect fill="#F1F1F1" height="40" id="logic_arc_int__baselibs__intrusive_list" rx="2.5" ry="2.5" style="stroke:#181818;stroke-width:0.5;" width="293.0713" x="964" y="158.5"/><ellipse cx="979" cy="174.5" fill="#ADD1B2" rx="11" ry="11" style="stroke:#181818;stroke-width:1;"/><path d="M981.9688,180.1406 Q981.3906,180.4375 980.75,180.5781 Q980.1094,180.7344 979.4063,180.7344 Q976.9063,180.7344 975.5781,179.0938 Q974.2656,177.4375 974.2656,174.3125 Q974.2656,171.1875 975.5781,169.5313 Q976.9063,167.875 979.4063,167.875 Q980.1094,167.875 980.75,168.0313 Q981.4063,168.1875 981.9688,168.4844 L981.9688,171.2031 Q981.3438,170.625 980.75,170.3594 Q980.1563,170.0781 979.5313,170.0781 Q978.1875,170.0781 977.5,171.1563 Q976.8125,172.2188 976.8125,174.3125 Q976.8125,176.4063 977.5,177.4844 Q978.1875,178.5469 979.5313,178.5469 Q980.1563,178.5469 980.75,178.2813 Q981.3438,178 981.9688,177.4219 L981.9688,180.1406 Z " fill="#000000"/><text fill="#000000" font-family="sans-serif" font-size="14" lengthAdjust="spacing" textLength="261.0713" x="993" y="179.3467">logic_arc_int__baselibs__intrusive_list</text><line style="stroke:#181818;stroke-width:0.5;" x1="965" x2="1256.0713" y1="190.5" y2="190.5"/></g><!--class logic_arc_int__baselibs__future--><g id="elem_logic_arc_int__baselibs__future"><rect fill="#F1F1F1" height="40" id="logic_arc_int__baselibs__future" rx="2.5" ry="2.5" style="stroke:#181818;stroke-width:0.5;" width="247.0791" x="2667" y="158.5"/><ellipse cx="2682" cy="174.5" fill="#ADD1B2" rx="11" ry="11" style="stroke:#181818;stroke-width:1;"/><path d="M2684.9688,180.1406 Q2684.3906,180.4375 2683.75,180.5781 Q2683.1094,180.7344 2682.4063,180.7344 Q2679.9063,180.7344 2678.5781,179.0938 Q2677.2656,177.4375 2677.2656,174.3125 Q2677.2656,171.1875 2678.5781,169.5313 Q2679.9063,167.875 2682.4063,167.875 Q2683.1094,167.875 2683.75,168.0313 Q2684.4063,168.1875 2684.9688,168.4844 L2684.9688,171.2031 Q2684.3438,170.625 2683.75,170.3594 Q2683.1563,170.0781 2682.5313,170.0781 Q2681.1875,170.0781 2680.5,171.1563 Q2679.8125,172.2188 2679.8125,174.3125 Q2679.8125,176.4063 2680.5,177.4844 Q2681.1875,178.5469 2682.5313,178.5469 Q2683.1563,178.5469 2683.75,178.2813 Q2684.3438,178 2684.9688,177.4219 L2684.9688,180.1406 Z " fill="#000000"/><text fill="#000000" font-family="sans-serif" font-size="14" lengthAdjust="spacing" textLength="215.0791" x="2696" y="179.3467">logic_arc_int__baselibs__future</text><line style="stroke:#181818;stroke-width:0.5;" x1="2668" x2="2913.0791" y1="190.5" y2="190.5"/></g><!--class logic_arc_int__baselibs__condition_variable--><g id="elem_logic_arc_int__baselibs__condition_variable"><rect fill="#F1F1F1" height="40" id="logic_arc_int__baselibs__condition_variable" rx="2.5" ry="2.5" style="stroke:#181818;stroke-width:0.5;" width="332.7539" x="3567" y="158.5"/><ellipse cx="3582" cy="174.5" fill="#ADD1B2" rx="11" ry="11" style="stroke:#181818;stroke-width:1;"/><path d="M3584.9688,180.1406 Q3584.3906,180.4375 3583.75,180.5781 Q3583.1094,180.7344 3582.4063,180.7344 Q3579.9063,180.7344 3578.5781,179.0938 Q3577.2656,177.4375 3577.2656,174.3125 Q3577.2656,171.1875 3578.5781,169.5313 Q3579.9063,167.875 3582.4063,167.875 Q3583.1094,167.875 3583.75,168.0313 Q3584.4063,168.1875 3584.9688,168.4844 L3584.9688,171.2031 Q3584.3438,170.625 3583.75,170.3594 Q3583.1563,170.0781 3582.5313,170.0781 Q3581.1875,170.0781 3580.5,171.1563 Q3579.8125,172.2188 3579.8125,174.3125 Q3579.8125,176.4063 3580.5,177.4844 Q3581.1875,178.5469 3582.5313,178.5469 Q3583.1563,178.5469 3583.75,178.2813 Q3584.3438,178 3584.9688,177.4219 L3584.9688,180.1406 Z " fill="#000000"/><text fill="#000000" font-family="sans-serif" font-size="14" lengthAdjust="spacing" textLength="300.7539" x="3596" y="179.3467">logic_arc_int__baselibs__condition_variable</text><line style="stroke:#181818;stroke-width:0.5;" x1="3568" x2="3898.7539" y1="190.5" y2="190.5"/></g><!--class comp_arc_sta__baselibs__memory_shared--><g id="elem_comp_arc_sta__baselibs__memory_shared"><rect fill="#F1F1F1" height="40" id="comp_arc_sta__baselibs__memory_shared" rx="2.5" ry="2.5" style="stroke:#181818;stroke-width:0.5;" width="327.0117" x="1631" y="275.5"/><ellipse cx="1646" cy="291.5" fill="#ADD1B2" rx="11" ry="11" style="stroke:#181818;stroke-width:1;"/><path d="M1648.9688,297.1406 Q1648.3906,297.4375 1647.75,297.5781 Q1647.1094,297.7344 1646.4063,297.7344 Q1643.9063,297.7344 1642.5781,296.0938 Q1641.2656,294.4375 1641.2656,291.3125 Q1641.2656,288.1875 1642.5781,286.5313 Q1643.9063,284.875 1646.4063,284.875 Q1647.1094,284.875 1647.75,285.0313 Q1648.4063,285.1875 1648.9688,285.4844 L1648.9688,288.2031 Q1648.3438,287.625 1647.75,287.3594 Q1647.1563,287.0781 1646.5313,287.0781 Q1645.1875,287.0781 1644.5,288.1563 Q1643.8125,289.2188 1643.8125,291.3125 Q1643.8125,293.4063 1644.5,294.4844 Q1645.1875,295.5469 1646.5313,295.5469 Q1647.1563,295.5469 1647.75,295.2813 Q1648.3438,295 1648.9688,294.4219 L1648.9688,297.1406 Z " fill="#000000"/><text fill="#000000" font-family="sans-serif" font-size="14" lengthAdjust="spacing" textLength="295.0117" x="1660" y="296.3467">comp_arc_sta__baselibs__memory_shared</text><line style="stroke:#181818;stroke-width:0.5;" x1="1632" x2="1957.0117" y1="307.5" y2="307.5"/></g><!--class comp_arc_sta__baselibs__filesystem--><g id="elem_comp_arc_sta__baselibs__filesystem"><rect fill="#F1F1F1" height="40" id="comp_arc_sta__baselibs__filesystem" rx="2.5" ry="2.5" style="stroke:#181818;stroke-width:0.5;" width="285.4492" x="657" y="275.5"/><ellipse cx="672" cy="291.5" fill="#ADD1B2" rx="11" ry="11" style="stroke:#181818;stroke-width:1;"/><path d="M674.9688,297.1406 Q674.3906,297.4375 673.75,297.5781 Q673.1094,297.7344 672.4063,297.7344 Q669.9063,297.7344 668.5781,296.0938 Q667.2656,294.4375 667.2656,291.3125 Q667.2656,288.1875 668.5781,286.5313 Q669.9063,284.875 672.4063,284.875 Q673.1094,284.875 673.75,285.0313 Q674.4063,285.1875 674.9688,285.4844 L674.9688,288.2031 Q674.3438,287.625 673.75,287.3594 Q673.1563,287.0781 672.5313,287.0781 Q671.1875,287.0781 670.5,288.1563 Q669.8125,289.2188 669.8125,291.3125 Q669.8125,293.4063 670.5,294.4844 Q671.1875,295.5469 672.5313,295.5469 Q673.1563,295.5469 673.75,295.2813 Q674.3438,295 674.9688,294.4219 L674.9688,297.1406 Z " fill="#000000"/><text fill="#000000" font-family="sans-serif" font-size="14" lengthAdjust="spacing" textLength="253.4492" x="686" y="296.3467">comp_arc_sta__baselibs__filesystem</text><line style="stroke:#181818;stroke-width:0.5;" x1="658" x2="941.4492" y1="307.5" y2="307.5"/></g><!--class logic_arc_int__baselibs__filesystem--><g id="elem_logic_arc_int__baselibs__filesystem"><rect fill="#F1F1F1" height="40" id="logic_arc_int__baselibs__filesystem" rx="2.5" ry="2.5" style="stroke:#181818;stroke-width:0.5;" width="276.4805" x="652.5" y="158.5"/><ellipse cx="667.5" cy="174.5" fill="#ADD1B2" rx="11" ry="11" style="stroke:#181818;stroke-width:1;"/><path d="M670.4688,180.1406 Q669.8906,180.4375 669.25,180.5781 Q668.6094,180.7344 667.9063,180.7344 Q665.4063,180.7344 664.0781,179.0938 Q662.7656,177.4375 662.7656,174.3125 Q662.7656,171.1875 664.0781,169.5313 Q665.4063,167.875 667.9063,167.875 Q668.6094,167.875 669.25,168.0313 Q669.9063,168.1875 670.4688,168.4844 L670.4688,171.2031 Q669.8438,170.625 669.25,170.3594 Q668.6563,170.0781 668.0313,170.0781 Q666.6875,170.0781 666,171.1563 Q665.3125,172.2188 665.3125,174.3125 Q665.3125,176.4063 666,177.4844 Q666.6875,178.5469 668.0313,178.5469 Q668.6563,178.5469 669.25,178.2813 Q669.8438,178 670.4688,177.4219 L670.4688,180.1406 Z " fill="#000000"/><text fill="#000000" font-family="sans-serif" font-size="14" lengthAdjust="spacing" textLength="244.4805" x="681.5" y="179.3467">logic_arc_int__baselibs__filesystem</text><line style="stroke:#181818;stroke-width:0.5;" x1="653.5" x2="927.9805" y1="190.5" y2="190.5"/></g><!--class comp_arc_sta__baselibs__json--><g id="elem_comp_arc_sta__baselibs__json"><rect fill="#F1F1F1" height="40" id="comp_arc_sta__baselibs__json" rx="2.5" ry="2.5" style="stroke:#181818;stroke-width:0.5;" width="242.1367" x="379.5" y="275.5"/><ellipse cx="394.5" cy="291.5" fill="#ADD1B2" rx="11" ry="11" style="stroke:#181818;stroke-width:1;"/><path d="M397.4688,297.1406 Q396.8906,297.4375 396.25,297.5781 Q395.6094,297.7344 394.9063,297.7344 Q392.4063,297.7344 391.0781,296.0938 Q389.7656,294.4375 389.7656,291.3125 Q389.7656,288.1875 391.0781,286.5313 Q392.4063,284.875 394.9063,284.875 Q395.6094,284.875 396.25,285.0313 Q396.9063,285.1875 397.4688,285.4844 L397.4688,288.2031 Q396.8438,287.625 396.25,287.3594 Q395.6563,287.0781 395.0313,287.0781 Q393.6875,287.0781 393,288.1563 Q392.3125,289.2188 392.3125,291.3125 Q392.3125,293.4063 393,294.4844 Q393.6875,295.5469 395.0313,295.5469 Q395.6563,295.5469 396.25,295.2813 Q396.8438,295 397.4688,294.4219 L397.4688,297.1406 Z " fill="#000000"/><text fill="#000000" font-family="sans-serif" font-size="14" lengthAdjust="spacing" textLength="210.1367" x="408.5" y="296.3467">comp_arc_sta__baselibs__json</text><line style="stroke:#181818;stroke-width:0.5;" x1="380.5" x2="620.6367" y1="307.5" y2="307.5"/></g><!--class logic_arc_int__baselibs__utils_scoped_op--><g id="elem_logic_arc_int__baselibs__utils_scoped_op"><rect fill="#F1F1F1" height="40" id="logic_arc_int__baselibs__utils_scoped_op" rx="2.5" ry="2.5" style="stroke:#181818;stroke-width:0.5;" width="315.377" x="1989" y="158.5"/><ellipse cx="2004" cy="174.5" fill="#ADD1B2" rx="11" ry="11" style="stroke:#181818;stroke-width:1;"/><path d="M2006.9688,180.1406 Q2006.3906,180.4375 2005.75,180.5781 Q2005.1094,180.7344 2004.4063,180.7344 Q2001.9063,180.7344 2000.5781,179.0938 Q1999.2656,177.4375 1999.2656,174.3125 Q1999.2656,171.1875 2000.5781,169.5313 Q2001.9063,167.875 2004.4063,167.875 Q2005.1094,167.875 2005.75,168.0313 Q2006.4063,168.1875 2006.9688,168.4844 L2006.9688,171.2031 Q2006.3438,170.625 2005.75,170.3594 Q2005.1563,170.0781 2004.5313,170.0781 Q2003.1875,170.0781 2002.5,171.1563 Q2001.8125,172.2188 2001.8125,174.3125 Q2001.8125,176.4063 2002.5,177.4844 Q2003.1875,178.5469 2004.5313,178.5469 Q2005.1563,178.5469 2005.75,178.2813 Q2006.3438,178 2006.9688,177.4219 L2006.9688,180.1406 Z " fill="#000000"/><text fill="#000000" font-family="sans-serif" font-size="14" lengthAdjust="spacing" textLength="283.377" x="2018" y="179.3467">logic_arc_int__baselibs__utils_scoped_op</text><line style="stroke:#181818;stroke-width:0.5;" x1="1990" x2="2303.377" y1="190.5" y2="190.5"/></g><!--class logic_arc_int__baselibs__message_passing--><g id="elem_logic_arc_int__baselibs__message_passing"><rect fill="#F1F1F1" height="40" id="logic_arc_int__baselibs__message_passing" rx="2.5" ry="2.5" style="stroke:#181818;stroke-width:0.5;" width="328.167" x="16.5" y="158.5"/><ellipse cx="31.5" cy="174.5" fill="#ADD1B2" rx="11" ry="11" style="stroke:#181818;stroke-width:1;"/><path d="M34.4688,180.1406 Q33.8906,180.4375 33.25,180.5781 Q32.6094,180.7344 31.9063,180.7344 Q29.4063,180.7344 28.0781,179.0938 Q26.7656,177.4375 26.7656,174.3125 Q26.7656,171.1875 28.0781,169.5313 Q29.4063,167.875 31.9063,167.875 Q32.6094,167.875 33.25,168.0313 Q33.9063,168.1875 34.4688,168.4844 L34.4688,171.2031 Q33.8438,170.625 33.25,170.3594 Q32.6563,170.0781 32.0313,170.0781 Q30.6875,170.0781 30,171.1563 Q29.3125,172.2188 29.3125,174.3125 Q29.3125,176.4063 30,177.4844 Q30.6875,178.5469 32.0313,178.5469 Q32.6563,178.5469 33.25,178.2813 Q33.8438,178 34.4688,177.4219 L34.4688,180.1406 Z " fill="#000000"/><text fill="#000000" font-family="sans-serif" font-size="14" lengthAdjust="spacing" textLength="296.167" x="45.5" y="179.3467">logic_arc_int__baselibs__message_passing</text><line style="stroke:#181818;stroke-width:0.5;" x1="17.5" x2="343.667" y1="190.5" y2="190.5"/></g><!--class logic_arc_int__baselibs__promise--><g id="elem_logic_arc_int__baselibs__promise"><rect fill="#F1F1F1" height="40" id="logic_arc_int__baselibs__promise" rx="2.5" ry="2.5" style="stroke:#181818;stroke-width:0.5;" width="261.1885" x="4925" y="158.5"/><ellipse cx="4940" cy="174.5" fill="#ADD1B2" rx="11" ry="11" style="stroke:#181818;stroke-width:1;"/><path d="M4942.9688,180.1406 Q4942.3906,180.4375 4941.75,180.5781 Q4941.1094,180.7344 4940.4063,180.7344 Q4937.9063,180.7344 4936.5781,179.0938 Q4935.2656,177.4375 4935.2656,174.3125 Q4935.2656,171.1875 4936.5781,169.5313 Q4937.9063,167.875 4940.4063,167.875 Q4941.1094,167.875 4941.75,168.0313 Q4942.4063,168.1875 4942.9688,168.4844 L4942.9688,171.2031 Q4942.3438,170.625 4941.75,170.3594 Q4941.1563,170.0781 4940.5313,170.0781 Q4939.1875,170.0781 4938.5,171.1563 Q4937.8125,172.2188 4937.8125,174.3125 Q4937.8125,176.4063 4938.5,177.4844 Q4939.1875,178.5469 4940.5313,178.5469 Q4941.1563,178.5469 4941.75,178.2813 Q4942.3438,178 4942.9688,177.4219 L4942.9688,180.1406 Z " fill="#000000"/><text fill="#000000" font-family="sans-serif" font-size="14" lengthAdjust="spacing" textLength="229.1885" x="4954" y="179.3467">logic_arc_int__baselibs__promise</text><line style="stroke:#181818;stroke-width:0.5;" x1="4926" x2="5185.1885" y1="190.5" y2="190.5"/></g><!--class logic_arc_int__baselibs__synchronized_queue--><g id="elem_logic_arc_int__baselibs__synchronized_queue"><rect fill="#F1F1F1" height="40" id="logic_arc_int__baselibs__synchronized_queue" rx="2.5" ry="2.5" style="stroke:#181818;stroke-width:0.5;" width="348.3604" x="4541.5" y="158.5"/><ellipse cx="4556.5" cy="174.5" fill="#ADD1B2" rx="11" ry="11" style="stroke:#181818;stroke-width:1;"/><path d="M4559.4688,180.1406 Q4558.8906,180.4375 4558.25,180.5781 Q4557.6094,180.7344 4556.9063,180.7344 Q4554.4063,180.7344 4553.0781,179.0938 Q4551.7656,177.4375 4551.7656,174.3125 Q4551.7656,171.1875 4553.0781,169.5313 Q4554.4063,167.875 4556.9063,167.875 Q4557.6094,167.875 4558.25,168.0313 Q4558.9063,168.1875 4559.4688,168.4844 L4559.4688,171.2031 Q4558.8438,170.625 4558.25,170.3594 Q4557.6563,170.0781 4557.0313,170.0781 Q4555.6875,170.0781 4555,171.1563 Q4554.3125,172.2188 4554.3125,174.3125 Q4554.3125,176.4063 4555,177.4844 Q4555.6875,178.5469 4557.0313,178.5469 Q4557.6563,178.5469 4558.25,178.2813 Q4558.8438,178 4559.4688,177.4219 L4559.4688,180.1406 Z " fill="#000000"/><text fill="#000000" font-family="sans-serif" font-size="14" lengthAdjust="spacing" textLength="316.3604" x="4570.5" y="179.3467">logic_arc_int__baselibs__synchronized_queue</text><line style="stroke:#181818;stroke-width:0.5;" x1="4542.5" x2="4888.8604" y1="190.5" y2="190.5"/></g><!--class comp_arc_sta__baselibs__message_passing--><g id="elem_comp_arc_sta__baselibs__message_passing"><rect fill="#F1F1F1" height="40" id="comp_arc_sta__baselibs__message_passing" rx="2.5" ry="2.5" style="stroke:#181818;stroke-width:0.5;" width="337.1357" x="7" y="275.5"/><ellipse cx="22" cy="291.5" fill="#ADD1B2" rx="11" ry="11" style="stroke:#181818;stroke-width:1;"/><path d="M24.9688,297.1406 Q24.3906,297.4375 23.75,297.5781 Q23.1094,297.7344 22.4063,297.7344 Q19.9063,297.7344 18.5781,296.0938 Q17.2656,294.4375 17.2656,291.3125 Q17.2656,288.1875 18.5781,286.5313 Q19.9063,284.875 22.4063,284.875 Q23.1094,284.875 23.75,285.0313 Q24.4063,285.1875 24.9688,285.4844 L24.9688,288.2031 Q24.3438,287.625 23.75,287.3594 Q23.1563,287.0781 22.5313,287.0781 Q21.1875,287.0781 20.5,288.1563 Q19.8125,289.2188 19.8125,291.3125 Q19.8125,293.4063 20.5,294.4844 Q21.1875,295.5469 22.5313,295.5469 Q23.1563,295.5469 23.75,295.2813 Q24.3438,295 24.9688,294.4219 L24.9688,297.1406 Z " fill="#000000"/><text fill="#000000" font-family="sans-serif" font-size="14" lengthAdjust="spacing" textLength="305.1357" x="36" y="296.3467">comp_arc_sta__baselibs__message_passing</text><line style="stroke:#181818;stroke-width:0.5;" x1="8" x2="343.1357" y1="307.5" y2="307.5"/></g><!--link Feature_User to logic_arc_int__baselibs__task_result--><g id="link_Feature_User_logic_arc_int__baselibs__task_result"><path codeLine="15" d="M3089.5,81.55 C3089.5,106.45 3089.5,132.26 3089.5,152.26 " fill="transparent" id="Feature_User-to-logic_arc_int__baselibs__task_result" style="stroke:#181818;stroke-width:1;"/><polygon fill="#181818" points="3089.5,158.26,3093.5,149.26,3089.5,153.26,3085.5,149.26,3089.5,158.26" style="stroke:#181818;stroke-width:1;"/><text fill="#000000" font-family="sans-serif" font-size="13" lengthAdjust="spacing" textLength="23.0103" x="3090.5" y="124.5669">use</text></g><!--link Feature_User to logic_arc_int__baselibs__result--><g id="link_Feature_User_logic_arc_int__baselibs__result"><path codeLine="16" d="M3134.63,45.37 C3358.94,49.81 4376.26,71.3 5208.5,111.5 C5530.14,127.03 5611.09,126.38 5931.5,158.5 C5937.36,159.09 5937.3888,159.049 5943.4288,159.739 " fill="transparent" id="Feature_User-to-logic_arc_int__baselibs__result" style="stroke:#181818;stroke-width:1;"/><polygon fill="#181818" points="5949.39,160.42,5940.9022,155.4243,5944.4223,159.8525,5939.9942,163.3727,5949.39,160.42" style="stroke:#181818;stroke-width:1;"/><text fill="#000000" font-family="sans-serif" font-size="13" lengthAdjust="spacing" textLength="23.0103" x="5559.5" y="124.5669">use</text></g><!--link Feature_User to logic_arc_int__baselibs__shared_future--><g id="link_Feature_User_logic_arc_int__baselibs__shared_future"><path codeLine="17" d="M3134.6,50.52 C3276.03,69.38 3709.0327,127.1466 3938.1227,157.7066 " fill="transparent" id="Feature_User-to-logic_arc_int__baselibs__shared_future" style="stroke:#181818;stroke-width:1;"/><polygon fill="#181818" points="3944.07,158.5,3935.6779,153.3451,3939.1139,157.8389,3934.6201,161.2748,3944.07,158.5" style="stroke:#181818;stroke-width:1;"/><text fill="#000000" font-family="sans-serif" font-size="13" lengthAdjust="spacing" textLength="23.0103" x="3708.5" y="124.5669">use</text></g><!--reverse link logic_arc_int__baselibs__bit_mask_operator to comp_arc_sta__baselibs__bit_manipulation--><g id="link_logic_arc_int__baselibs__bit_mask_operator_comp_arc_sta__baselibs__bit_manipulation"><path codeLine="18" d="M5710.6118,201.9296 C5676.5418,223.2196 5627.08,254.14 5593.09,275.38 " fill="transparent" id="logic_arc_int__baselibs__bit_mask_operator-backto-comp_arc_sta__baselibs__bit_manipulation" style="stroke:#181818;stroke-width:1;"/><polygon fill="#181818" points="5715.7,198.75,5705.9479,200.1272,5711.4598,201.3997,5710.1874,206.9115,5715.7,198.75" style="stroke:#181818;stroke-width:1;"/><text fill="#000000" font-family="sans-serif" font-size="13" lengthAdjust="spacing" textLength="76.9082" x="5667.5" y="241.5669">implements</text></g><!--reverse link logic_arc_int__baselibs__result to comp_arc_sta__baselibs__result--><g id="link_logic_arc_int__baselibs__result_comp_arc_sta__baselibs__result"><path codeLine="19" d="M6071.5,204.75 C6071.5,225.98 6071.5,253.94 6071.5,275.19 " fill="transparent" id="logic_arc_int__baselibs__result-backto-comp_arc_sta__baselibs__result" style="stroke:#181818;stroke-width:1;"/><polygon fill="#181818" points="6071.5,198.75,6067.5,207.75,6071.5,203.75,6075.5,207.75,6071.5,198.75" style="stroke:#181818;stroke-width:1;"/><text fill="#000000" font-family="sans-serif" font-size="13" lengthAdjust="spacing" textLength="76.9082" x="6072.5" y="241.5669">implements</text></g><!--link Feature_User to logic_arc_int__baselibs__memory_shared--><g id="link_Feature_User_logic_arc_int__baselibs__memory_shared"><path codeLine="20" d="M3044.49,49 C2893.11,64.17 2388.45,114.86 1971.5,158.5 C1965.66,159.11 1965.6773,159.1145 1959.6673,159.7445 " fill="transparent" id="Feature_User-to-logic_arc_int__baselibs__memory_shared" style="stroke:#181818;stroke-width:1;"/><polygon fill="#181818" points="1953.7,160.37,1963.068,163.4099,1958.6728,159.8487,1962.2339,155.4535,1953.7,160.37" style="stroke:#181818;stroke-width:1;"/><text fill="#000000" font-family="sans-serif" font-size="13" lengthAdjust="spacing" textLength="23.0103" x="2403.5" y="124.5669">use</text></g><!--link Feature_User to logic_arc_int__baselibs__dynamic_array--><g id="link_Feature_User_logic_arc_int__baselibs__dynamic_array"><path codeLine="21" d="M3044.28,47.45 C2864.06,59.32 2179.56,105.53 1617.5,158.5 C1612,159.02 1612.3708,158.9692 1606.7108,159.5292 " fill="transparent" id="Feature_User-to-logic_arc_int__baselibs__dynamic_array" style="stroke:#181818;stroke-width:1;"/><polygon fill="#181818" points="1600.74,160.12,1610.0901,163.2144,1605.7157,159.6277,1609.3024,155.2533,1600.74,160.12" style="stroke:#181818;stroke-width:1;"/><text fill="#000000" font-family="sans-serif" font-size="13" lengthAdjust="spacing" textLength="23.0103" x="2144.5" y="124.5669">use</text></g><!--reverse link logic_arc_int__baselibs__task to comp_arc_sta__baselibs__concurrency--><g id="link_logic_arc_int__baselibs__task_comp_arc_sta__baselibs__concurrency"><path codeLine="22" d="M4299.4781,199.8748 C4205.4381,221.1648 4059.94,254.11 3965.83,275.41 " fill="transparent" id="logic_arc_int__baselibs__task-backto-comp_arc_sta__baselibs__concurrency" style="stroke:#181818;stroke-width:1;"/><polygon fill="#181818" points="4305.33,198.55,4295.6689,196.636,4300.4534,199.654,4297.4354,204.4385,4305.33,198.55" style="stroke:#181818;stroke-width:1;"/><text fill="#000000" font-family="sans-serif" font-size="13" lengthAdjust="spacing" textLength="76.9082" x="4167.5" y="241.5669">implements</text></g><!--link Feature_User to logic_arc_int__baselibs__utils_base64--><g id="link_Feature_User_logic_arc_int__baselibs__utils_base64"><path codeLine="23" d="M3044.1,54.5 C2943.83,76.58 2707.9097,128.5301 2577.7597,157.1801 " fill="transparent" id="Feature_User-to-logic_arc_int__baselibs__utils_base64" style="stroke:#181818;stroke-width:1;"/><polygon fill="#181818" points="2571.9,158.47,2581.5495,160.4416,2576.7831,157.3951,2579.8296,152.6287,2571.9,158.47" style="stroke:#181818;stroke-width:1;"/><text fill="#000000" font-family="sans-serif" font-size="13" lengthAdjust="spacing" textLength="23.0103" x="2770.5" y="124.5669">use</text></g><!--link Feature_User to logic_arc_int__baselibs__bit_mask_operator--><g id="link_Feature_User_logic_arc_int__baselibs__bit_mask_operator"><path codeLine="24" d="M3134.51,45.66 C3337.16,50.99 4185.28,74.48 4880.5,111.5 C5183.01,127.61 5258.66,132.66 5560.5,158.5 C5566.48,159.01 5566.5947,159.0059 5572.7447,159.5659 " fill="transparent" id="Feature_User-to-logic_arc_int__baselibs__bit_mask_operator" style="stroke:#181818;stroke-width:1;"/><polygon fill="#181818" points="5578.72,160.11,5570.1198,155.3103,5573.7406,159.6566,5569.3944,163.2774,5578.72,160.11" style="stroke:#181818;stroke-width:1;"/><text fill="#000000" font-family="sans-serif" font-size="13" lengthAdjust="spacing" textLength="23.0103" x="5176.5" y="124.5669">use</text></g><!--reverse link logic_arc_int__baselibs__shared_future to comp_arc_sta__baselibs__concurrency--><g id="link_logic_arc_int__baselibs__shared_future_comp_arc_sta__baselibs__concurrency"><path codeLine="25" d="M4046.9569,201.685 C4008.9969,222.975 3953.45,254.14 3915.58,275.38 " fill="transparent" id="logic_arc_int__baselibs__shared_future-backto-comp_arc_sta__baselibs__concurrency" style="stroke:#181818;stroke-width:1;"/><polygon fill="#181818" points="4052.19,198.75,4042.3836,199.6638,4047.8291,201.1958,4046.297,206.6413,4052.19,198.75" style="stroke:#181818;stroke-width:1;"/><text fill="#000000" font-family="sans-serif" font-size="13" lengthAdjust="spacing" textLength="76.9082" x="3997.5" y="241.5669">implements</text></g><!--reverse link logic_arc_int__baselibs__bit_manipulation to comp_arc_sta__baselibs__bit_manipulation--><g id="link_logic_arc_int__baselibs__bit_manipulation_comp_arc_sta__baselibs__bit_manipulation"><path codeLine="26" d="M5417.6865,201.9799 C5451.0165,223.2699 5499.33,254.14 5532.57,275.38 " fill="transparent" id="logic_arc_int__baselibs__bit_manipulation-backto-comp_arc_sta__baselibs__bit_manipulation" style="stroke:#181818;stroke-width:1;"/><polygon fill="#181818" points="5412.63,198.75,5418.0614,206.9658,5416.8437,201.4416,5422.368,200.2239,5412.63,198.75" style="stroke:#181818;stroke-width:1;"/><text fill="#000000" font-family="sans-serif" font-size="13" lengthAdjust="spacing" textLength="76.9082" x="5484.5" y="241.5669">implements</text></g><!--reverse link logic_arc_int__baselibs__executor to comp_arc_sta__baselibs__concurrency--><g id="link_logic_arc_int__baselibs__executor_comp_arc_sta__baselibs__concurrency"><path codeLine="27" d="M3484.3668,199.9398 C3573.7768,221.2298 3711.84,254.11 3801.32,275.41 " fill="transparent" id="logic_arc_int__baselibs__executor-backto-comp_arc_sta__baselibs__concurrency" style="stroke:#181818;stroke-width:1;"/><polygon fill="#181818" points="3478.53,198.55,3486.3587,204.526,3483.394,199.7082,3488.2118,196.7436,3478.53,198.55" style="stroke:#181818;stroke-width:1;"/><text fill="#000000" font-family="sans-serif" font-size="13" lengthAdjust="spacing" textLength="76.9082" x="3670.5" y="241.5669">implements</text></g><!--reverse link logic_arc_int__baselibs__utils_base64 to comp_arc_sta__baselibs__utils--><g id="link_logic_arc_int__baselibs__utils_base64_comp_arc_sta__baselibs__utils"><path codeLine="28" d="M2447.3479,201.7743 C2410.8679,223.0643 2357.64,254.14 2321.25,275.38 " fill="transparent" id="logic_arc_int__baselibs__utils_base64-backto-comp_arc_sta__baselibs__utils" style="stroke:#181818;stroke-width:1;"/><polygon fill="#181818" points="2452.53,198.75,2442.7407,199.8317,2448.2116,201.2702,2446.7731,206.7411,2452.53,198.75" style="stroke:#181818;stroke-width:1;"/><text fill="#000000" font-family="sans-serif" font-size="13" lengthAdjust="spacing" textLength="76.9082" x="2400.5" y="241.5669">implements</text></g><!--reverse link logic_arc_int__baselibs__dynamic_array to comp_arc_sta__baselibs__containers--><g id="link_logic_arc_int__baselibs__dynamic_array_comp_arc_sta__baselibs__containers"><path codeLine="29" d="M1400.5028,201.1784 C1355.3828,222.4484 1288.33,254.05 1243.16,275.34 " fill="transparent" id="logic_arc_int__baselibs__dynamic_array-backto-comp_arc_sta__baselibs__containers" style="stroke:#181818;stroke-width:1;"/><polygon fill="#181818" points="1405.93,198.62,1396.0836,198.8395,1401.4073,200.752,1399.4948,206.0758,1405.93,198.62" style="stroke:#181818;stroke-width:1;"/><text fill="#000000" font-family="sans-serif" font-size="13" lengthAdjust="spacing" textLength="76.9082" x="1340.5" y="241.5669">implements</text></g><!--link Feature_User to logic_arc_int__baselibs__json--><g id="link_Feature_User_logic_arc_int__baselibs__json"><path codeLine="30" d="M3044.35,45.66 C2842,50.97 1998.22,74.32 1306.5,111.5 C1007.54,127.57 932.24,127.02 634.5,158.5 C628.78,159.11 628.8784,159.0643 622.9684,159.7643 " fill="transparent" id="Feature_User-to-logic_arc_int__baselibs__json" style="stroke:#181818;stroke-width:1;"/><polygon fill="#181818" points="617.01,160.47,626.418,163.3836,621.9753,159.8819,625.477,155.4392,617.01,160.47" style="stroke:#181818;stroke-width:1;"/><text fill="#000000" font-family="sans-serif" font-size="13" lengthAdjust="spacing" textLength="23.0103" x="1307.5" y="124.5669">use</text></g><!--link Feature_User to logic_arc_int__baselibs__task--><g id="link_Feature_User_logic_arc_int__baselibs__task"><path codeLine="31" d="M3134.55,48.22 C3290.14,61.2 3819.13,106.59 4254.5,158.5 C4260.38,159.2 4260.4377,159.1949 4266.5077,159.9649 " fill="transparent" id="Feature_User-to-logic_arc_int__baselibs__task" style="stroke:#181818;stroke-width:1;"/><polygon fill="#181818" points="4272.46,160.72,4264.0349,155.6192,4267.4998,160.0908,4263.0282,163.5556,4272.46,160.72" style="stroke:#181818;stroke-width:1;"/><text fill="#000000" font-family="sans-serif" font-size="13" lengthAdjust="spacing" textLength="23.0103" x="3968.5" y="124.5669">use</text></g><!--link Feature_User to logic_arc_int__baselibs__intrusive_list--><g id="link_Feature_User_logic_arc_int__baselibs__intrusive_list"><path codeLine="32" d="M3044.18,46.35 C2839.2,54.93 1978.31,93.23 1274.5,158.5 C1268.79,159.03 1268.9399,158.99 1263.0699,159.58 " fill="transparent" id="Feature_User-to-logic_arc_int__baselibs__intrusive_list" style="stroke:#181818;stroke-width:1;"/><polygon fill="#181818" points="1257.1,160.18,1266.4549,163.2599,1262.0749,159.68,1265.6549,155.3,1257.1,160.18" style="stroke:#181818;stroke-width:1;"/><text fill="#000000" font-family="sans-serif" font-size="13" lengthAdjust="spacing" textLength="23.0103" x="1824.5" y="124.5669">use</text></g><!--reverse link logic_arc_int__baselibs__task_result to comp_arc_sta__baselibs__concurrency--><g id="link_logic_arc_int__baselibs__task_result_comp_arc_sta__baselibs__concurrency"><path codeLine="33" d="M3217.9902,199.4125 C3305.3302,212.8525 3419.61,230.2 3525.5,245.5 C3596.05,255.69 3674.53,266.55 3739.82,275.44 " fill="transparent" id="logic_arc_int__baselibs__task_result-backto-comp_arc_sta__baselibs__concurrency" style="stroke:#181818;stroke-width:1;"/><polygon fill="#181818" points="3212.06,198.5,3220.3469,203.8223,3217.0018,199.2605,3221.5637,195.9154,3212.06,198.5" style="stroke:#181818;stroke-width:1;"/><text fill="#000000" font-family="sans-serif" font-size="13" lengthAdjust="spacing" textLength="76.9082" x="3526.5" y="241.5669">implements</text></g><!--reverse link logic_arc_int__baselibs__future to comp_arc_sta__baselibs__concurrency--><g id="link_logic_arc_int__baselibs__future_comp_arc_sta__baselibs__concurrency"><path codeLine="34" d="M2920.2308,197.0669 C2926.0508,197.8169 2925.86,197.79 2931.5,198.5 C3109.54,220.93 3154.01,227.08 3332.5,245.5 C3467.31,259.41 3620.98,272.93 3731.39,282.23 " fill="transparent" id="logic_arc_int__baselibs__future-backto-comp_arc_sta__baselibs__concurrency" style="stroke:#181818;stroke-width:1;"/><polygon fill="#181818" points="2914.28,196.3,2922.695,201.4175,2919.239,196.939,2923.7174,193.4831,2914.28,196.3" style="stroke:#181818;stroke-width:1;"/><text fill="#000000" font-family="sans-serif" font-size="13" lengthAdjust="spacing" textLength="76.9082" x="3333.5" y="241.5669">implements</text></g><!--link Feature_User to logic_arc_int__baselibs__condition_variable--><g id="link_Feature_User_logic_arc_int__baselibs__condition_variable"><path codeLine="35" d="M3134.53,53.8 C3239.27,75.43 3495.094,128.2665 3635.374,157.2365 " fill="transparent" id="Feature_User-to-logic_arc_int__baselibs__condition_variable" style="stroke:#181818;stroke-width:1;"/><polygon fill="#181818" points="3641.25,158.45,3633.245,152.7124,3636.3533,157.4388,3631.627,160.5471,3641.25,158.45" style="stroke:#181818;stroke-width:1;"/><text fill="#000000" font-family="sans-serif" font-size="13" lengthAdjust="spacing" textLength="23.0103" x="3489.5" y="124.5669">use</text></g><!--reverse link logic_arc_int__baselibs__memory_shared to comp_arc_sta__baselibs__memory_shared--><g id="link_logic_arc_int__baselibs__memory_shared_comp_arc_sta__baselibs__memory_shared"><path codeLine="36" d="M1794.5,204.75 C1794.5,225.98 1794.5,253.94 1794.5,275.19 " fill="transparent" id="logic_arc_int__baselibs__memory_shared-backto-comp_arc_sta__baselibs__memory_shared" style="stroke:#181818;stroke-width:1;"/><polygon fill="#181818" points="1794.5,198.75,1790.5,207.75,1794.5,203.75,1798.5,207.75,1794.5,198.75" style="stroke:#181818;stroke-width:1;"/><text fill="#000000" font-family="sans-serif" font-size="13" lengthAdjust="spacing" textLength="76.9082" x="1795.5" y="241.5669">implements</text></g><!--reverse link logic_arc_int__baselibs__filesystem to comp_arc_sta__baselibs__filesystem--><g id="link_logic_arc_int__baselibs__filesystem_comp_arc_sta__baselibs__filesystem"><path codeLine="37" d="M792.4777,204.7317 C794.1377,225.9617 796.33,253.94 797.99,275.19 " fill="transparent" id="logic_arc_int__baselibs__filesystem-backto-comp_arc_sta__baselibs__filesystem" style="stroke:#181818;stroke-width:1;"/><polygon fill="#181818" points="792.01,198.75,788.7238,208.0344,792.3998,203.7348,796.6994,207.4108,792.01,198.75" style="stroke:#181818;stroke-width:1;"/><text fill="#000000" font-family="sans-serif" font-size="13" lengthAdjust="spacing" textLength="76.9082" x="797.5" y="241.5669">implements</text></g><!--reverse link logic_arc_int__baselibs__json to comp_arc_sta__baselibs__json--><g id="link_logic_arc_int__baselibs__json_comp_arc_sta__baselibs__json"><path codeLine="38" d="M500.5,204.75 C500.5,225.98 500.5,253.94 500.5,275.19 " fill="transparent" id="logic_arc_int__baselibs__json-backto-comp_arc_sta__baselibs__json" style="stroke:#181818;stroke-width:1;"/><polygon fill="#181818" points="500.5,198.75,496.5,207.75,500.5,203.75,504.5,207.75,500.5,198.75" style="stroke:#181818;stroke-width:1;"/><text fill="#000000" font-family="sans-serif" font-size="13" lengthAdjust="spacing" textLength="76.9082" x="501.5" y="241.5669">implements</text></g><!--reverse link logic_arc_int__baselibs__utils_scoped_op to comp_arc_sta__baselibs__utils--><g id="link_logic_arc_int__baselibs__utils_scoped_op_comp_arc_sta__baselibs__utils"><path codeLine="39" d="M2174.9324,202.5265 C2201.1424,223.7565 2238.41,253.94 2264.65,275.19 " fill="transparent" id="logic_arc_int__baselibs__utils_scoped_op-backto-comp_arc_sta__baselibs__utils" style="stroke:#181818;stroke-width:1;"/><polygon fill="#181818" points="2170.27,198.75,2174.7459,207.523,2174.1553,201.8971,2179.7813,201.3065,2170.27,198.75" style="stroke:#181818;stroke-width:1;"/><text fill="#000000" font-family="sans-serif" font-size="13" lengthAdjust="spacing" textLength="76.9082" x="2227.5" y="241.5669">implements</text></g><!--reverse link logic_arc_int__baselibs__intrusive_list to comp_arc_sta__baselibs__containers--><g id="link_logic_arc_int__baselibs__intrusive_list_comp_arc_sta__baselibs__containers"><path codeLine="40" d="M1129.6476,203.4356 C1146.6276,224.6656 1170.05,253.94 1187.05,275.19 " fill="transparent" id="logic_arc_int__baselibs__intrusive_list-backto-comp_arc_sta__baselibs__containers" style="stroke:#181818;stroke-width:1;"/><polygon fill="#181818" points="1125.9,198.75,1128.3977,208.2769,1129.023,202.6547,1134.6452,203.28,1125.9,198.75" style="stroke:#181818;stroke-width:1;"/><text fill="#000000" font-family="sans-serif" font-size="13" lengthAdjust="spacing" textLength="76.9082" x="1163.5" y="241.5669">implements</text></g><!--link Feature_User to logic_arc_int__baselibs__message_passing--><g id="link_Feature_User_logic_arc_int__baselibs__message_passing"><path codeLine="41" d="M3044.5,45.12 C2819.72,48.38 1796.21,65.21 959.5,111.5 C695.52,126.1 629.8,134.62 366.5,158.5 C359.31,159.15 357.9327,159.2585 350.5127,159.9685 " fill="transparent" id="Feature_User-to-logic_arc_int__baselibs__message_passing" style="stroke:#181818;stroke-width:1;"/><polygon fill="#181818" points="344.54,160.54,353.8801,163.6645,349.5173,160.0637,353.1181,155.7009,344.54,160.54" style="stroke:#181818;stroke-width:1;"/><text fill="#000000" font-family="sans-serif" font-size="13" lengthAdjust="spacing" textLength="23.0103" x="960.5" y="124.5669">use</text></g><!--reverse link logic_arc_int__baselibs__promise to comp_arc_sta__baselibs__concurrency--><g id="link_logic_arc_int__baselibs__promise_comp_arc_sta__baselibs__concurrency"><path codeLine="42" d="M4918.7418,197.0672 C4912.5918,197.7972 4912.46,197.81 4906.5,198.5 C4705.43,221.75 4655.01,226.42 4453.5,245.5 C4310.37,259.05 4146.93,272.89 4031.51,282.39 " fill="transparent" id="logic_arc_int__baselibs__promise-backto-comp_arc_sta__baselibs__concurrency" style="stroke:#181818;stroke-width:1;"/><polygon fill="#181818" points="4924.7,196.36,4915.2913,193.4487,4919.7349,196.9494,4916.2342,201.393,4924.7,196.36" style="stroke:#181818;stroke-width:1;"/><text fill="#000000" font-family="sans-serif" font-size="13" lengthAdjust="spacing" textLength="76.9082" x="4627.5" y="241.5669">implements</text></g><!--link Feature_User to logic_arc_int__baselibs__future--><g id="link_Feature_User_logic_arc_int__baselibs__future"><path codeLine="43" d="M3044.41,64.56 C2987.31,89.95 2895.1124,130.9722 2839.0024,155.9222 " fill="transparent" id="Feature_User-to-logic_arc_int__baselibs__future" style="stroke:#181818;stroke-width:1;"/><polygon fill="#181818" points="2833.52,158.36,2843.3689,158.3582,2838.0887,156.3285,2840.1184,151.0483,2833.52,158.36" style="stroke:#181818;stroke-width:1;"/><text fill="#000000" font-family="sans-serif" font-size="13" lengthAdjust="spacing" textLength="23.0103" x="2932.5" y="124.5669">use</text></g><!--reverse link logic_arc_int__baselibs__synchronized_queue to comp_arc_sta__baselibs__concurrency--><g id="link_logic_arc_int__baselibs__synchronized_queue_comp_arc_sta__baselibs__concurrency"><path codeLine="44" d="M4578.3916,199.4174 C4485.7216,212.7974 4364.51,230.12 4252.5,245.5 C4178.64,255.64 4096.45,266.54 4028.24,275.47 " fill="transparent" id="logic_arc_int__baselibs__synchronized_queue-backto-comp_arc_sta__baselibs__concurrency" style="stroke:#181818;stroke-width:1;"/><polygon fill="#181818" points="4584.33,198.56,4574.8508,195.8872,4579.3813,199.2745,4575.994,203.8051,4584.33,198.56" style="stroke:#181818;stroke-width:1;"/><text fill="#000000" font-family="sans-serif" font-size="13" lengthAdjust="spacing" textLength="76.9082" x="4368.5" y="241.5669">implements</text></g><!--link Feature_User to logic_arc_int__baselibs__promise--><g id="link_Feature_User_logic_arc_int__baselibs__promise"><path codeLine="45" d="M3134.55,46.14 C3339.21,53.85 4201.92,89.03 4906.5,158.5 C4912.47,159.09 4912.6062,159.0617 4918.7662,159.7417 " fill="transparent" id="Feature_User-to-logic_arc_int__baselibs__promise" style="stroke:#181818;stroke-width:1;"/><polygon fill="#181818" points="4924.73,160.4,4916.2232,155.4366,4919.7602,159.8514,4915.3454,163.3883,4924.73,160.4" style="stroke:#181818;stroke-width:1;"/><text fill="#000000" font-family="sans-serif" font-size="13" lengthAdjust="spacing" textLength="23.0103" x="4560.5" y="124.5669">use</text></g><!--reverse link logic_arc_int__baselibs__message_passing to comp_arc_sta__baselibs__message_passing--><g id="link_logic_arc_int__baselibs__message_passing_comp_arc_sta__baselibs__message_passing"><path codeLine="46" d="M179.4002,204.7444 C178.4802,225.9744 177.26,253.94 176.34,275.19 " fill="transparent" id="logic_arc_int__baselibs__message_passing-backto-comp_arc_sta__baselibs__message_passing" style="stroke:#181818;stroke-width:1;"/><polygon fill="#181818" points="179.66,198.75,175.2741,207.5684,179.4435,203.7453,183.2666,207.9147,179.66,198.75" style="stroke:#181818;stroke-width:1;"/><text fill="#000000" font-family="sans-serif" font-size="13" lengthAdjust="spacing" textLength="76.9082" x="179.5" y="241.5669">implements</text></g><!--link Feature_User to logic_arc_int__baselibs__executor--><g id="link_Feature_User_logic_arc_int__baselibs__executor"><path codeLine="47" d="M3134.76,63.98 C3193.6,89.31 3290.2089,130.8876 3348.6089,156.0276 " fill="transparent" id="Feature_User-to-logic_arc_int__baselibs__executor" style="stroke:#181818;stroke-width:1;"/><polygon fill="#181818" points="3354.12,158.4,3347.435,151.1674,3349.5275,156.423,3344.2718,158.5154,3354.12,158.4" style="stroke:#181818;stroke-width:1;"/><text fill="#000000" font-family="sans-serif" font-size="13" lengthAdjust="spacing" textLength="23.0103" x="3282.5" y="124.5669">use</text></g><!--link Feature_User to logic_arc_int__baselibs__synchronized_queue--><g id="link_Feature_User_logic_arc_int__baselibs__synchronized_queue"><path codeLine="48" d="M3134.55,47.55 C3267.24,56.6 3668.18,84.35 4000.5,111.5 C4233.11,130.5 4291.15,136.56 4523.5,158.5 C4529.34,159.05 4529.297,159.0516 4535.287,159.6216 " fill="transparent" id="Feature_User-to-logic_arc_int__baselibs__synchronized_queue" style="stroke:#181818;stroke-width:1;"/><polygon fill="#181818" points="4541.26,160.19,4532.6794,155.3554,4536.2825,159.7163,4531.9216,163.3194,4541.26,160.19" style="stroke:#181818;stroke-width:1;"/><text fill="#000000" font-family="sans-serif" font-size="13" lengthAdjust="spacing" textLength="23.0103" x="4201.5" y="124.5669">use</text></g><!--link Feature_User to logic_arc_int__baselibs__utils_scoped_op--><g id="link_Feature_User_logic_arc_int__baselibs__utils_scoped_op"><path codeLine="49" d="M3044.33,50.87 C2908.01,70.1 2502.7712,127.2521 2287.3712,157.6321 " fill="transparent" id="Feature_User-to-logic_arc_int__baselibs__utils_scoped_op" style="stroke:#181818;stroke-width:1;"/><polygon fill="#181818" points="2281.43,158.47,2290.9004,161.1739,2286.381,157.7717,2289.7832,153.2523,2281.43,158.47" style="stroke:#181818;stroke-width:1;"/><text fill="#000000" font-family="sans-serif" font-size="13" lengthAdjust="spacing" textLength="23.0103" x="2591.5" y="124.5669">use</text></g><!--link Feature_User to logic_arc_int__baselibs__filesystem--><g id="link_Feature_User_logic_arc_int__baselibs__filesystem"><path codeLine="50" d="M3044.38,46.23 C2866.04,53.14 2193.01,79.95 1639.5,111.5 C1331.29,129.07 1253.83,129.38 946.5,158.5 C940.66,159.05 940.6684,159.0353 934.6484,159.6553 " fill="transparent" id="Feature_User-to-logic_arc_int__baselibs__filesystem" style="stroke:#181818;stroke-width:1;"/><polygon fill="#181818" points="928.68,160.27,938.0424,163.3269,933.6537,159.7578,937.2229,155.369,928.68,160.27" style="stroke:#181818;stroke-width:1;"/><text fill="#000000" font-family="sans-serif" font-size="13" lengthAdjust="spacing" textLength="23.0103" x="1640.5" y="124.5669">use</text></g><!--link Feature_User to logic_arc_int__baselibs__bit_manipulation--><g id="link_Feature_User_logic_arc_int__baselibs__bit_manipulation"><path codeLine="51" d="M3134.72,45.98 C3317.21,52.08 4017.29,76.57 4592.5,111.5 C4864.36,128.01 4932.28,133.68 5203.5,158.5 C5209.26,159.03 5209.1467,159.015 5215.0667,159.575 " fill="transparent" id="Feature_User-to-logic_arc_int__baselibs__bit_manipulation" style="stroke:#181818;stroke-width:1;"/><polygon fill="#181818" points="5221.04,160.14,5212.4567,155.3102,5216.0622,159.6691,5211.7033,163.2747,5221.04,160.14" style="stroke:#181818;stroke-width:1;"/><text fill="#000000" font-family="sans-serif" font-size="13" lengthAdjust="spacing" textLength="23.0103" x="4848.5" y="124.5669">use</text></g><!--reverse link logic_arc_int__baselibs__condition_variable to comp_arc_sta__baselibs__concurrency--><g id="link_logic_arc_int__baselibs__condition_variable_comp_arc_sta__baselibs__concurrency"><path codeLine="52" d="M3763.0077,202.4316 C3790.3277,223.6616 3829.3,253.94 3856.65,275.19 " fill="transparent" id="logic_arc_int__baselibs__condition_variable-backto-comp_arc_sta__baselibs__concurrency" style="stroke:#181818;stroke-width:1;"/><polygon fill="#181818" points="3758.27,198.75,3762.9221,207.4309,3762.2181,201.818,3767.831,201.1139,3758.27,198.75" style="stroke:#181818;stroke-width:1;"/><text fill="#000000" font-family="sans-serif" font-size="13" lengthAdjust="spacing" textLength="76.9082" x="3817.5" y="241.5669">implements</text></g><!--SRC=[hLPDSzGm3BtdLtXwty8m38TEfnTcE764iqTnr5rHVmHBBWqC_nrdTsbtmuBZaACIwTbFUf85rePlsj4J-MqZeLSIL1j4WbCTHJH2mJSxwb2nOCGWGuy76rqlWmAHI6qIvEQMPR1urrm3astLZ-OZUNmVR8WgOhUtFkt8F7XaLc-kNpS_czjNnvW6Z6I_gmy8aYAgpupnIW6humSzVb1DSsPkkisTic5BHaCqchnetGAZfPQr5k077P6JbHkL65LDyD8uta7cgk_J670CDy7rUryMEFLjIRG3JtsoCAPPRTA_e0_kcLFeCKBEreqYrrjqw8N_Vig1IG7xDzrJm0hM3bs8mv5yVTAwmOFR_uem599cWZSfHlHcA70Qwx-OKHAolBVVlQqdTA5KAv6Qw6kE01R9xCLztY7p6U0JcZHRlViw513FQpNpjW9v7CKIz4IP2yNqXSSqreheeD_Qg6p6nFI8sXBBgirqSKhyF_GbBLSGpWTrD0fLFq8aQ6rfx9uDgyBT9eDj3l5xiiX3VYnTYVUpuppWKKK5o8FGrkqhDdc8TNcIhTnQKw4kVdgOOOkw1-Qymgmc-3u6HxnSbhCsW8gvFtYpYy7JzroBhmdJyfizCojqoLbUYtqogSB2kxqy3jMBruK4rMBy8VXQWDEMNhOpdBwxAqddqe0yBSyl]--></g></svg>