<svg xmlns="http://www.w3.org/2000/svg" xmlns:xlink="http://www.w3.org/1999/xlink" contentStyleType="text/css" data-diagram-type="CLASS" height="960px" preserveAspectRatio="none" style="width:437px;height:960px;background:#FFFFFF;" version="1.1" viewBox="0 0 437 960" width="437px" zoomAndPan="magnify"><defs/><g><!--cluster S-Core Repo--><g id="cluster_S-Core Repo"><path d="M24.3347,130 L122.3093,130 A3.75,3.75 0 0 1 124.8093,132.5 L131.8093,152.2969 L326.3347,152.2969 A2.5,2.5 0 0 1 328.8347,154.7969 L328.8347,340.5 A2.5,2.5 0 0 1 326.3347,343 L24.3347,343 A2.5,2.5 0 0 1 21.8347,340.5 L21.8347,132.5 A2.5,2.5 0 0 1 24.3347,130 " fill="transparent" style="stroke:#000000;stroke-width:1.5;"/><line style="stroke:#000000;stroke-width:1.5;" x1="21.8347" x2="131.8093" y1="152.2969" y2="152.2969"/><text fill="#000000" font-family="sans-serif" font-size="14" font-weight="bold" lengthAdjust="spacing" textLength="96.9746" x="25.8347" y="144.9951">S-Core Repo</text></g><!--cluster SW-Module Repo--><g id="cluster_SW-Module Repo"><path d="M24.3347,392 L159.2917,392 A3.75,3.75 0 0 1 161.7917,394.5 L168.7917,414.2969 L428.3347,414.2969 A2.5,2.5 0 0 1 430.8347,416.7969 L430.8347,950.5 A2.5,2.5 0 0 1 428.3347,953 L24.3347,953 A2.5,2.5 0 0 1 21.8347,950.5 L21.8347,394.5 A2.5,2.5 0 0 1 24.3347,392 " fill="transparent" style="stroke:#000000;stroke-width:1.5;"/><line style="stroke:#000000;stroke-width:1.5;" x1="21.8347" x2="168.7917" y1="414.2969" y2="414.2969"/><text fill="#000000" font-family="sans-serif" font-size="14" font-weight="bold" lengthAdjust="spacing" textLength="133.957" x="25.8347" y="406.9951">SW-Module Repo</text></g><!--class Platform--><g id="elem_Platform"><rect codeLine="3" fill="#F1F1F1" height="145.7813" id="Platform" rx="2.5" ry="2.5" style="stroke:#181818;stroke-width:0.5;" width="240.3682" x="64.8347" y="173"/><ellipse cx="151.1247" cy="189" fill="#ADD1B2" rx="11" ry="11" style="stroke:#181818;stroke-width:1;"/><path d="M154.0935,194.6406 Q153.5154,194.9375 152.8747,195.0781 Q152.2341,195.2344 151.531,195.2344 Q149.031,195.2344 147.7029,193.5938 Q146.3904,191.9375 146.3904,188.8125 Q146.3904,185.6875 147.7029,184.0313 Q149.031,182.375 151.531,182.375 Q152.2341,182.375 152.8747,182.5313 Q153.531,182.6875 154.0935,182.9844 L154.0935,185.7031 Q153.4685,185.125 152.8747,184.8594 Q152.281,184.5781 151.656,184.5781 Q150.3122,184.5781 149.6247,185.6563 Q148.9372,186.7188 148.9372,188.8125 Q148.9372,190.9063 149.6247,191.9844 Q150.3122,193.0469 151.656,193.0469 Q152.281,193.0469 152.8747,192.7813 Q153.4685,192.5 154.0935,191.9219 L154.0935,194.6406 Z " fill="#000000"/><text fill="#000000" font-family="sans-serif" font-size="14" lengthAdjust="spacing" textLength="59.2881" x="171.6247" y="193.8467">Platform</text><line style="stroke:#181818;stroke-width:0.5;" x1="65.8347" x2="304.2029" y1="205" y2="205"/><ellipse cx="75.8347" cy="218.6484" fill="transparent" rx="3" ry="3" style="stroke:#038048;stroke-width:1;"/><text fill="#000000" font-family="sans-serif" font-size="14" lengthAdjust="spacing" textLength="83.7129" x="84.8347" y="221.9951">SEooC: bool</text><line style="stroke:#181818;stroke-width:1;" x1="65.8347" x2="304.2029" y1="229.2969" y2="229.2969"/><text fill="#000000" font-family="sans-serif" font-size="14" lengthAdjust="spacing" textLength="73.6777" x="70.8347" y="246.292">Objectives</text><text fill="#000000" font-family="sans-serif" font-size="14" lengthAdjust="spacing" textLength="186.9766" x="70.8347" y="262.5889">Stakeholder Requirements</text><text fill="#000000" font-family="sans-serif" font-size="14" lengthAdjust="spacing" textLength="150.0625" x="70.8347" y="278.8857">Platform Architecture</text><text fill="#000000" font-family="sans-serif" font-size="14" lengthAdjust="spacing" textLength="228.3682" x="70.8347" y="295.1826">SW-Platform Assumptions of use</text><text fill="#000000" font-family="sans-serif" font-size="14" lengthAdjust="spacing" textLength="182.5742" x="70.8347" y="311.4795">Platform Integration Tests</text></g><!--class Feature--><g id="elem_Feature"><rect codeLine="15" fill="#F1F1F1" height="145.7813" id="Feature" rx="2.5" ry="2.5" style="stroke:#181818;stroke-width:0.5;" width="239.5479" x="65.8347" y="435"/><ellipse cx="154.3703" cy="451" fill="#ADD1B2" rx="11" ry="11" style="stroke:#181818;stroke-width:1;"/><path d="M157.3391,456.6406 Q156.761,456.9375 156.1203,457.0781 Q155.4797,457.2344 154.7766,457.2344 Q152.2766,457.2344 150.9485,455.5938 Q149.636,453.9375 149.636,450.8125 Q149.636,447.6875 150.9485,446.0313 Q152.2766,444.375 154.7766,444.375 Q155.4797,444.375 156.1203,444.5313 Q156.7766,444.6875 157.3391,444.9844 L157.3391,447.7031 Q156.7141,447.125 156.1203,446.8594 Q155.5266,446.5781 154.9016,446.5781 Q153.5578,446.5781 152.8703,447.6563 Q152.1828,448.7188 152.1828,450.8125 Q152.1828,452.9063 152.8703,453.9844 Q153.5578,455.0469 154.9016,455.0469 Q155.5266,455.0469 156.1203,454.7813 Q156.7141,454.5 157.3391,453.9219 L157.3391,456.6406 Z " fill="#000000"/><text fill="#000000" font-family="sans-serif" font-size="14" lengthAdjust="spacing" textLength="53.9766" x="174.8703" y="455.8467">Feature</text><line style="stroke:#181818;stroke-width:0.5;" x1="66.8347" x2="304.3826" y1="467" y2="467"/><ellipse cx="76.8347" cy="480.6484" fill="transparent" rx="3" ry="3" style="stroke:#038048;stroke-width:1;"/><text fill="#000000" font-family="sans-serif" font-size="14" lengthAdjust="spacing" textLength="83.7129" x="85.8347" y="483.9951">SEooC: bool</text><line style="stroke:#181818;stroke-width:1;" x1="66.8347" x2="304.3826" y1="491.2969" y2="491.2969"/><text fill="#000000" font-family="sans-serif" font-size="14" lengthAdjust="spacing" textLength="156.6934" x="71.8347" y="508.292">Feature Requirements</text><text fill="#000000" font-family="sans-serif" font-size="14" lengthAdjust="spacing" textLength="144.751" x="71.8347" y="524.5889">Feature Architecture</text><text fill="#000000" font-family="sans-serif" font-size="14" lengthAdjust="spacing" textLength="177.2627" x="71.8347" y="540.8857">Feature Integration Tests</text><text fill="#000000" font-family="sans-serif" font-size="14" lengthAdjust="spacing" textLength="227.5479" x="71.8347" y="557.1826">Feature Safety/Security Analysis</text><text fill="#000000" font-family="sans-serif" font-size="14" lengthAdjust="spacing" textLength="195.2754" x="71.8347" y="573.4795">Feature Assumptions of use</text></g><!--class Component--><g id="elem_Component"><rect codeLine="25" fill="#F1F1F1" height="129.4844" id="Component" rx="2.5" ry="2.5" style="stroke:#181818;stroke-width:0.5;" width="266.8506" x="54.3347" y="642"/><ellipse cx="142.8703" cy="658" fill="#ADD1B2" rx="11" ry="11" style="stroke:#181818;stroke-width:1;"/><path d="M145.8391,663.6406 Q145.261,663.9375 144.6203,664.0781 Q143.9797,664.2344 143.2766,664.2344 Q140.7766,664.2344 139.4485,662.5938 Q138.136,660.9375 138.136,657.8125 Q138.136,654.6875 139.4485,653.0313 Q140.7766,651.375 143.2766,651.375 Q143.9797,651.375 144.6203,651.5313 Q145.2766,651.6875 145.8391,651.9844 L145.8391,654.7031 Q145.2141,654.125 144.6203,653.8594 Q144.0266,653.5781 143.4016,653.5781 Q142.0578,653.5781 141.3703,654.6563 Q140.6828,655.7188 140.6828,657.8125 Q140.6828,659.9063 141.3703,660.9844 Q142.0578,662.0469 143.4016,662.0469 Q144.0266,662.0469 144.6203,661.7813 Q145.2141,661.5 145.8391,660.9219 L145.8391,663.6406 Z " fill="#000000"/><text fill="#000000" font-family="sans-serif" font-size="14" lengthAdjust="spacing" textLength="81.2793" x="163.3703" y="662.8467">Component</text><line style="stroke:#181818;stroke-width:0.5;" x1="55.3347" x2="320.1853" y1="674" y2="674"/><line style="stroke:#181818;stroke-width:1;" x1="55.3347" x2="320.1853" y1="682" y2="682"/><text fill="#000000" font-family="sans-serif" font-size="14" lengthAdjust="spacing" textLength="183.9961" x="60.3347" y="698.9951">Component Requirements</text><text fill="#000000" font-family="sans-serif" font-size="14" lengthAdjust="spacing" textLength="172.0537" x="60.3347" y="715.292">Component Architecture</text><text fill="#000000" font-family="sans-serif" font-size="14" lengthAdjust="spacing" textLength="204.5654" x="60.3347" y="731.5889">Component Integration Tests</text><text fill="#000000" font-family="sans-serif" font-size="14" lengthAdjust="spacing" textLength="254.8506" x="60.3347" y="747.8857">Component Safety/Security Analysis</text><text fill="#000000" font-family="sans-serif" font-size="14" lengthAdjust="spacing" textLength="215.2842" x="60.3347" y="764.1826">Component Assumption of use</text></g><!--class Unit--><g id="elem_Unit"><rect codeLine="34" fill="#F1F1F1" height="96.8906" id="Unit" rx="2.5" ry="2.5" style="stroke:#181818;stroke-width:0.5;" width="123.5283" x="125.8347" y="832"/><ellipse cx="169.1979" cy="848" fill="#ADD1B2" rx="11" ry="11" style="stroke:#181818;stroke-width:1;"/><path d="M172.1666,853.6406 Q171.5885,853.9375 170.9479,854.0781 Q170.3073,854.2344 169.6041,854.2344 Q167.1041,854.2344 165.776,852.5938 Q164.4635,850.9375 164.4635,847.8125 Q164.4635,844.6875 165.776,843.0313 Q167.1041,841.375 169.6041,841.375 Q170.3073,841.375 170.9479,841.5313 Q171.6041,841.6875 172.1666,841.9844 L172.1666,844.7031 Q171.5416,844.125 170.9479,843.8594 Q170.3541,843.5781 169.7291,843.5781 Q168.3854,843.5781 167.6979,844.6563 Q167.0104,845.7188 167.0104,847.8125 Q167.0104,849.9063 167.6979,850.9844 Q168.3854,852.0469 169.7291,852.0469 Q170.3541,852.0469 170.9479,851.7813 Q171.5416,851.5 172.1666,850.9219 L172.1666,853.6406 Z " fill="#000000"/><text fill="#000000" font-family="sans-serif" font-size="14" lengthAdjust="spacing" textLength="28.499" x="189.5008" y="852.8467">Unit</text><line style="stroke:#181818;stroke-width:0.5;" x1="126.8347" x2="248.363" y1="864" y2="864"/><line style="stroke:#181818;stroke-width:1;" x1="126.8347" x2="248.363" y1="872" y2="872"/><text fill="#000000" font-family="sans-serif" font-size="14" lengthAdjust="spacing" textLength="111.5283" x="131.8347" y="888.9951">Detailed Design</text><text fill="#000000" font-family="sans-serif" font-size="14" lengthAdjust="spacing" textLength="88.6826" x="131.8347" y="905.292">Source Code</text><text fill="#000000" font-family="sans-serif" font-size="14" lengthAdjust="spacing" textLength="62.8975" x="131.8347" y="921.5889">Unit Test</text></g><path d="M134.3347,6 L268.9363,6 A3.75,3.75 0 0 1 271.4363,8.5 L278.4363,28.2969 L282.9363,28.2969 A2.5,2.5 0 0 1 285.4363,30.7969 L285.4363,56.0938 A2.5,2.5 0 0 1 282.9363,58.5938 L134.3347,58.5938 A2.5,2.5 0 0 1 131.8347,56.0938 L131.8347,8.5 A2.5,2.5 0 0 1 134.3347,6 " fill="#F1F1F1" style="stroke:#181818;stroke-width:0.5;"/><line style="stroke:#181818;stroke-width:0.5;" x1="131.8347" x2="278.4363" y1="28.2969" y2="28.2969"/><text fill="#000000" font-family="sans-serif" font-size="14" font-weight="bold" lengthAdjust="spacing" textLength="133.6016" x="135.8347" y="20.9951">Integration Repo</text><!--link Integration Repo to S-Core Repo--><g id="link_Integration Repo_S-Core Repo"><path codeLine="46" d="M131.5847,55.1 C101.1847,67.48 68.8247,86.25 48.8347,114 C46.7191,116.9369 44.7919,120.0082 43.0379,123.1864 C42.1609,124.7755 41.3272,126.3913 40.5349,128.0304 C40.3368,128.4401 40.1413,128.8514 39.9484,129.264 C39.8519,129.4703 42.2628,124.2257 42.1676,124.4327 " fill="transparent" id="Integration Repo-to-S-Core Repo" style="stroke:#181818;stroke-width:1;stroke-dasharray:7.0,7.0;"/><polygon fill="#181818" points="39.6609,129.8839,47.0552,123.3782,41.7498,125.3412,39.7868,120.0359,39.6609,129.8839" style="stroke:#181818;stroke-width:1;"/><text fill="#000000" font-family="sans-serif" font-size="13" lengthAdjust="spacing" textLength="82.3418" x="71.8347" y="102.0669">derives from</text></g><!--link Integration Repo to SW-Module Repo--><g id="link_Integration Repo_SW-Module Repo"><path codeLine="47" d="M264.5447,59.14 C286.2447,72.24 308.7647,90.45 320.8347,114 C370.5147,210.89 395.4847,279.73 320.8347,359 C299.2347,381.93 60.1247,353.74 37.8347,376 C17.5247,396.29 15.2697,428.3425 18.2172,455.6625 C18.9541,462.4925 20.0161,469.0267 21.2025,475.0074 C21.3508,475.755 21.501,476.4939 21.6528,477.2237 C21.6907,477.4062 20.4937,471.7165 20.5319,471.8978 " fill="transparent" id="Integration Repo-to-SW-Module Repo" style="stroke:#181818;stroke-width:1;stroke-dasharray:7.0,7.0;"/><polygon fill="#181818" points="21.7669,477.7694,23.8287,468.1387,20.7377,472.8764,16,469.7855,21.7669,477.7694" style="stroke:#181818;stroke-width:1;"/><text fill="#000000" font-family="sans-serif" font-size="13" lengthAdjust="spacing" textLength="29.7832" x="368.8347" y="250.5669">uses</text></g><!--link S-Core Repo to SW-Module Repo--><!--reverse link Platform to Feature--><g id="link_Platform_Feature"><path codeLine="51" d="M185.1613,331.0799 C185.3013,367.1499 185.4147,398.69 185.5547,434.78 " fill="transparent" id="Platform-backto-Feature" style="stroke:#181818;stroke-width:1;"/><polygon fill="#181818" points="185.1147,319.08,181.138,325.0955,185.1613,331.0799,189.138,325.0644,185.1147,319.08" style="stroke:#181818;stroke-width:1;"/><text fill="#000000" font-family="sans-serif" font-size="13" lengthAdjust="spacing" textLength="8.271" x="176.7555" y="338.8439">1</text><text fill="#000000" font-family="sans-serif" font-size="13" lengthAdjust="spacing" textLength="8.2393" x="177.1674" y="423.9183">n</text></g><!--reverse link Feature to Component--><g id="link_Feature_Component"><path codeLine="52" d="M186.6911,593.0493 C186.9011,612.9893 186.9847,622.48 187.1847,641.89 " fill="transparent" id="Feature-backto-Component" style="stroke:#181818;stroke-width:1;"/><polygon fill="transparent" points="186.5647,581.05,182.6281,587.0918,186.6911,593.0493,190.6277,587.0075,186.5647,581.05" style="stroke:#181818;stroke-width:1;"/><text fill="#000000" font-family="sans-serif" font-size="13" lengthAdjust="spacing" textLength="8.271" x="178.2875" y="600.8111">1</text><text fill="#000000" font-family="sans-serif" font-size="13" lengthAdjust="spacing" textLength="8.2393" x="178.6974" y="631.0506">n</text></g><!--reverse link Component to Component--><g id="link_Component_Component"><path codeLine="53" d="M333.5823,691.7938 C354.2123,694.2238 356.3347,698.19 356.3347,706.5 C356.3347,714.81 342.2947,720.18 321.6647,722.61 " fill="transparent" id="Component-backto-Component" style="stroke:#181818;stroke-width:1;"/><polygon fill="transparent" points="321.6647,690.39,327.1556,695.0644,333.5823,691.7938,328.0914,687.1193,321.6647,690.39" style="stroke:#181818;stroke-width:1;"/><text fill="#000000" font-family="sans-serif" font-size="13" lengthAdjust="spacing" textLength="55.0278" x="362.3347" y="711.0669">contains</text><text fill="#000000" font-family="sans-serif" font-size="13" lengthAdjust="spacing" textLength="8.271" x="329.2138" y="686.1561">1</text><text fill="#000000" font-family="sans-serif" font-size="13" lengthAdjust="spacing" textLength="8.2393" x="329.2129" y="720.1381">n</text></g><!--reverse link Component to Unit--><g id="link_Component_Unit"><path codeLine="54" d="M187.8347,783.06 C187.8347,803.15 187.8347,813.01 187.8347,831.8 " fill="transparent" id="Component-backto-Unit" style="stroke:#181818;stroke-width:1;"/><polygon fill="transparent" points="187.8347,771.06,183.8347,777.06,187.8347,783.06,191.8347,777.06,187.8347,771.06" style="stroke:#181818;stroke-width:1;"/><text fill="#000000" font-family="sans-serif" font-size="13" lengthAdjust="spacing" textLength="8.271" x="179.3965" y="791.4385">1</text><text fill="#000000" font-family="sans-serif" font-size="13" lengthAdjust="spacing" textLength="8.2393" x="179.3222" y="820.9808">n</text></g><!--SRC=[XPC_JyCm4CNtV8fJ5YIGYrWx85K590P4rO0w80OtkJIcZY_O3bA5-jrn_hTnW2c9tztvz-oNWiTxlaC88xOaZR36WaBu3W1YoOs1bUGs9PtNIm1N4DqJBUUm9PBr2cFrutdxWR4LNsZgpyZoFMOa4zHkv6SfDEQeR2FsCnSwpeHrVQN6fct31j6OCY-i86M0KYWDdZS_AeixpQi2U45Jppu6no0eUaiRzaH9ANrN3yYhFVyprPLv3Zh1Cz09Kt236l4KxU4wmhZKmXvWeRWy636QFUNVsUiyB2alI3caraNBF2nxr8FaSG_IDFcW_yb-iaDFFmd_giI8-muj5n8JzsB4JZLne5B7wAOc3MNTLK5vLtrAtLssqozWrLQiKTQgoKHXWedwsUnsz1FCmQMtIZIaclBVUqOfcrTktHPdizXR9f84rNl2l8uAynolptXu4y8bSoqgx78HTFceD6gr_jo3uGOcTKSNat8dhOnNcZIrrI47Fm00]--></g></svg>