<?xml version="1.0" encoding="UTF-8"?>
<!-- Do not edit: generated by gen_integration_svg.py -->
<svg xmlns="http://www.w3.org/2000/svg" width="820" height="1418" viewBox="0 0 820 1418">
<defs>
  <marker id="arr" markerWidth="10" markerHeight="7" refX="9" refY="3.5" orient="auto">
    <polygon points="0 0, 10 3.5, 0 7" fill="#888"/>
  </marker>
</defs>
<rect width="820" height="1418" fill="#F5F6F8"/>
<rect x="0" y="0" width="820" height="52" fill="#2D1942"/>
<text x="410" y="33" font-family="Arial,Helvetica,sans-serif" font-size="18" font-weight="bold" fill="white" text-anchor="middle">Integration Process</text>
<text x="410" y="79" font-family="Arial,Helvetica,sans-serif" font-size="10.5" fill="#999" text-anchor="middle" font-style="italic" letter-spacing="0.5">— Software Module Level —</text>
<rect x="42" y="90" width="740" height="106" rx="8" fill="#00000018"/>
<rect x="40" y="88" width="740" height="106" rx="8" fill="#EEEEF8" stroke="#3A3A8A" stroke-width="1.5"/>
<rect x="40" y="88" width="740" height="32" rx="8" fill="#3A3A8A"/>
<rect x="40" y="96" width="740" height="24" fill="#3A3A8A"/>
<text x="410" y="109" font-family="Arial,Helvetica,sans-serif" font-size="13" font-weight="bold" fill="white" text-anchor="middle">① Software Module Development</text>
<text x="58" y="136" font-family="Arial,Helvetica,sans-serif" font-size="11" fill="#2D2D2D">• Iterative development on the module&#x27;s main branch</text>
<text x="58" y="154" font-family="Arial,Helvetica,sans-serif" font-size="11" fill="#2D2D2D">• Each module is maintained in its own GitHub repository</text>
<text x="58" y="172" font-family="Arial,Helvetica,sans-serif" font-size="11" fill="#2D2D2D">• Modules are encouraged to follow the S-CORE development process from the start</text>
<line x1="410" y1="206" x2="410" y2="228" stroke="#888" stroke-width="2" marker-end="url(#arr)"/>
<rect x="42" y="242" width="740" height="160" rx="8" fill="#00000018"/>
<rect x="40" y="240" width="740" height="160" rx="8" fill="#E3F0FF" stroke="#1565C0" stroke-width="1.5"/>
<rect x="40" y="240" width="740" height="32" rx="8" fill="#1565C0"/>
<rect x="40" y="248" width="740" height="24" fill="#1565C0"/>
<text x="410" y="261" font-family="Arial,Helvetica,sans-serif" font-size="13" font-weight="bold" fill="white" text-anchor="middle">② Automated Integration Gate  (module level)</text>
<text x="58" y="288" font-family="Arial,Helvetica,sans-serif" font-size="11" fill="#2D2D2D">• Compilation with gcc and qcc toolchains</text>
<text x="58" y="306" font-family="Arial,Helvetica,sans-serif" font-size="11" fill="#2D2D2D">• Unit test execution</text>
<text x="58" y="324" font-family="Arial,Helvetica,sans-serif" font-size="11" fill="#2D2D2D">• Detailed design and requirements checks</text>
<text x="58" y="342" font-family="Arial,Helvetica,sans-serif" font-size="11" fill="#2D2D2D">• Static and dynamic analysis</text>
<text x="58" y="360" font-family="Arial,Helvetica,sans-serif" font-size="11" fill="#2D2D2D">• Component integration tests</text>
<text x="58" y="378" font-family="Arial,Helvetica,sans-serif" font-size="11" fill="#2D2D2D">✔  Release tag is created automatically once all checks pass</text>
<line x1="410" y1="412" x2="410" y2="434" stroke="#888" stroke-width="2" marker-end="url(#arr)"/>
<rect x="42" y="448" width="740" height="88" rx="8" fill="#00000018"/>
<rect x="40" y="446" width="740" height="88" rx="8" fill="#FFF8E1" stroke="#5D4037" stroke-width="1.5"/>
<rect x="40" y="446" width="740" height="32" rx="8" fill="#5D4037"/>
<rect x="40" y="454" width="740" height="24" fill="#5D4037"/>
<text x="410" y="467" font-family="Arial,Helvetica,sans-serif" font-size="13" font-weight="bold" fill="white" text-anchor="middle">③ PR to Bazel Registry</text>
<text x="58" y="494" font-family="Arial,Helvetica,sans-serif" font-size="11" fill="#2D2D2D">• Committer creates a pull request to add the new module version to the Bazel registry</text>
<text x="58" y="512" font-family="Arial,Helvetica,sans-serif" font-size="11" fill="#2D2D2D">• This makes the module a candidate for S-CORE-wide integration</text>
<line x1="410" y1="546" x2="410" y2="568" stroke="#888" stroke-width="2" marker-end="url(#arr)"/>
<text x="410" y="593" font-family="Arial,Helvetica,sans-serif" font-size="10.5" fill="#999" text-anchor="middle" font-style="italic" letter-spacing="0.5">— Manual Review —</text>
<rect x="42" y="604" width="740" height="148" rx="8" fill="#00000018"/>
<rect x="40" y="602" width="740" height="148" rx="8" fill="#FFF3E0" stroke="#B34700" stroke-width="1.5"/>
<rect x="40" y="602" width="740" height="32" rx="8" fill="#B34700"/>
<rect x="40" y="610" width="740" height="24" fill="#B34700"/>
<text x="410" y="623" font-family="Arial,Helvetica,sans-serif" font-size="13" font-weight="bold" fill="white" text-anchor="middle">④ Manual Reviews</text>
<text x="58" y="650" font-family="Arial,Helvetica,sans-serif" font-size="11" fill="#2D2D2D">• Architecture Review Checklist</text>
<text x="58" y="668" font-family="Arial,Helvetica,sans-serif" font-size="11" fill="#2D2D2D">• Requirements Review Checklist</text>
<text x="58" y="686" font-family="Arial,Helvetica,sans-serif" font-size="11" fill="#2D2D2D">• Detailed Design Review Checklist</text>
<text x="58" y="704" font-family="Arial,Helvetica,sans-serif" font-size="11" fill="#2D2D2D">• Safety Analysis</text>
<text x="58" y="728" font-family="Arial,Helvetica,sans-serif" font-size="10" fill="#666" font-style="italic">Approvers: Safety Manager · Security Manager · Quality Manager · Project Lead (TL)</text>
<line x1="410" y1="762" x2="410" y2="784" stroke="#888" stroke-width="2" marker-end="url(#arr)"/>
<text x="410" y="809" font-family="Arial,Helvetica,sans-serif" font-size="10.5" fill="#999" text-anchor="middle" font-style="italic" letter-spacing="0.5">— Integration Level —</text>
<rect x="42" y="820" width="740" height="88" rx="8" fill="#00000018"/>
<rect x="40" y="818" width="740" height="88" rx="8" fill="#E8F5E9" stroke="#1B5E20" stroke-width="1.5"/>
<rect x="40" y="818" width="740" height="32" rx="8" fill="#1B5E20"/>
<rect x="40" y="826" width="740" height="24" fill="#1B5E20"/>
<text x="410" y="839" font-family="Arial,Helvetica,sans-serif" font-size="13" font-weight="bold" fill="white" text-anchor="middle">⑤ Bazel Registry Updated</text>
<text x="58" y="866" font-family="Arial,Helvetica,sans-serif" font-size="11" fill="#2D2D2D">• PR is approved and merged into the Bazel registry</text>
<text x="58" y="884" font-family="Arial,Helvetica,sans-serif" font-size="11" fill="#2D2D2D">• New module version is now available to all S-CORE projects</text>
<line x1="410" y1="918" x2="410" y2="940" stroke="#888" stroke-width="2" marker-end="url(#arr)"/>
<rect x="42" y="954" width="740" height="112" rx="8" fill="#00000018"/>
<rect x="40" y="952" width="740" height="112" rx="8" fill="#FFF8E1" stroke="#5D4037" stroke-width="1.5"/>
<rect x="40" y="952" width="740" height="32" rx="8" fill="#5D4037"/>
<rect x="40" y="960" width="740" height="24" fill="#5D4037"/>
<text x="410" y="973" font-family="Arial,Helvetica,sans-serif" font-size="13" font-weight="bold" fill="white" text-anchor="middle">⑥ PR to Reference Integration</text>
<text x="58" y="1000" font-family="Arial,Helvetica,sans-serif" font-size="11" fill="#2D2D2D">• Committer creates a PR in the Reference Integration repository</text>
<text x="58" y="1018" font-family="Arial,Helvetica,sans-serif" font-size="11" fill="#2D2D2D">• Module is tested together with all other S-CORE modules on reference images</text>
<text x="58" y="1042" font-family="Arial,Helvetica,sans-serif" font-size="10" fill="#666" font-style="italic">Approver: S-CORE Project Lead (TL)</text>
<line x1="410" y1="1076" x2="410" y2="1098" stroke="#888" stroke-width="2" marker-end="url(#arr)"/>
<rect x="42" y="1112" width="740" height="106" rx="8" fill="#00000018"/>
<rect x="40" y="1110" width="740" height="106" rx="8" fill="#E3F0FF" stroke="#1565C0" stroke-width="1.5"/>
<rect x="40" y="1110" width="740" height="32" rx="8" fill="#1565C0"/>
<rect x="40" y="1118" width="740" height="24" fill="#1565C0"/>
<text x="410" y="1131" font-family="Arial,Helvetica,sans-serif" font-size="13" font-weight="bold" fill="white" text-anchor="middle">⑦ Automated Integration Gate  (feature level)</text>
<text x="58" y="1158" font-family="Arial,Helvetica,sans-serif" font-size="11" fill="#2D2D2D">• Feature integration tests executed on reference images (QNX x86, ...)</text>
<text x="58" y="1176" font-family="Arial,Helvetica,sans-serif" font-size="11" fill="#2D2D2D">• Module dependencies are taken from the reference integration repository</text>
<text x="58" y="1194" font-family="Arial,Helvetica,sans-serif" font-size="11" fill="#2D2D2D">• Validates correct implementation of all feature requirements</text>
<line x1="410" y1="1228" x2="410" y2="1250" stroke="#888" stroke-width="2" marker-end="url(#arr)"/>
<text x="410" y="1275" font-family="Arial,Helvetica,sans-serif" font-size="10.5" fill="#999" text-anchor="middle" font-style="italic" letter-spacing="0.5">— Release —</text>
<rect x="42" y="1286" width="740" height="106" rx="8" fill="#00000018"/>
<rect x="40" y="1284" width="740" height="106" rx="8" fill="#EDE8F5" stroke="#2D1942" stroke-width="1.5"/>
<rect x="40" y="1284" width="740" height="32" rx="8" fill="#2D1942"/>
<rect x="40" y="1292" width="740" height="24" fill="#2D1942"/>
<text x="410" y="1305" font-family="Arial,Helvetica,sans-serif" font-size="13" font-weight="bold" fill="white" text-anchor="middle">⑧ S-CORE Release</text>
<text x="58" y="1332" font-family="Arial,Helvetica,sans-serif" font-size="11" fill="#2D2D2D">• Release documentation created by the Project Lead</text>
<text x="58" y="1350" font-family="Arial,Helvetica,sans-serif" font-size="11" fill="#2D2D2D">• Sign-off by Safety Manager, Security Manager, and Quality Manager</text>
<text x="58" y="1368" font-family="Arial,Helvetica,sans-serif" font-size="11" fill="#2D2D2D">• New S-CORE platform version is published</text>
</svg>