<svg xmlns="http://www.w3.org/2000/svg" xmlns:xlink="http://www.w3.org/1999/xlink" contentStyleType="text/css" data-diagram-type="CLASS" height="322px" preserveAspectRatio="none" style="width:6188px;height:322px;background:#FFFFFF;" version="1.1" viewBox="0 0 6188 322" width="6188px" zoomAndPan="magnify"><defs/><g><!--entity Feature_User--><g id="elem_Feature_User"><ellipse cx="3073.1685" cy="14" fill="#F1F1F1" rx="8" ry="8" style="stroke:#181818;stroke-width:0.5;"/><path d="M3073.1685,22 L3073.1685,49 M3060.1685,30 L3086.1685,30 M3073.1685,49 L3060.1685,64 M3073.1685,49 L3086.1685,64 " fill="transparent" style="stroke:#181818;stroke-width:0.5;"/><text fill="#000000" font-family="sans-serif" font-size="14" lengthAdjust="spacing" textLength="90.3369" x="3028" y="78.4951">Feature User</text></g><!--class logic_arc_int__baselibs__condition_variable--><g id="elem_logic_arc_int__baselibs__condition_variable"><rect fill="#F1F1F1" height="40" id="logic_arc_int__baselibs__condition_variable" rx="2.5" ry="2.5" style="stroke:#181818;stroke-width:0.5;" width="332.7539" x="678.5" y="158.5"/><ellipse cx="693.5" cy="174.5" fill="#ADD1B2" rx="11" ry="11" style="stroke:#181818;stroke-width:1;"/><path d="M696.4688,180.1406 Q695.8906,180.4375 695.25,180.5781 Q694.6094,180.7344 693.9063,180.7344 Q691.4063,180.7344 690.0781,179.0938 Q688.7656,177.4375 688.7656,174.3125 Q688.7656,171.1875 690.0781,169.5313 Q691.4063,167.875 693.9063,167.875 Q694.6094,167.875 695.25,168.0313 Q695.9063,168.1875 696.4688,168.4844 L696.4688,171.2031 Q695.8438,170.625 695.25,170.3594 Q694.6563,170.0781 694.0313,170.0781 Q692.6875,170.0781 692,171.1563 Q691.3125,172.2188 691.3125,174.3125 Q691.3125,176.4063 692,177.4844 Q692.6875,178.5469 694.0313,178.5469 Q694.6563,178.5469 695.25,178.2813 Q695.8438,178 696.4688,177.4219 L696.4688,180.1406 Z " fill="#000000"/><text fill="#000000" font-family="sans-serif" font-size="14" lengthAdjust="spacing" textLength="300.7539" x="707.5" y="179.3467">logic_arc_int__baselibs__condition_variable</text><line style="stroke:#181818;stroke-width:0.5;" x1="679.5" x2="1010.2539" y1="190.5" y2="190.5"/></g><!--class comp_arc_sta__baselibs__utils--><g id="elem_comp_arc_sta__baselibs__utils"><rect fill="#F1F1F1" height="40" id="comp_arc_sta__baselibs__utils" rx="2.5" ry="2.5" style="stroke:#181818;stroke-width:0.5;" width="242.9502" x="4380.5" y="275.5"/><ellipse cx="4395.5" cy="291.5" fill="#ADD1B2" rx="11" ry="11" style="stroke:#181818;stroke-width:1;"/><path d="M4398.4688,297.1406 Q4397.8906,297.4375 4397.25,297.5781 Q4396.6094,297.7344 4395.9063,297.7344 Q4393.4063,297.7344 4392.0781,296.0938 Q4390.7656,294.4375 4390.7656,291.3125 Q4390.7656,288.1875 4392.0781,286.5313 Q4393.4063,284.875 4395.9063,284.875 Q4396.6094,284.875 4397.25,285.0313 Q4397.9063,285.1875 4398.4688,285.4844 L4398.4688,288.2031 Q4397.8438,287.625 4397.25,287.3594 Q4396.6563,287.0781 4396.0313,287.0781 Q4394.6875,287.0781 4394,288.1563 Q4393.3125,289.2188 4393.3125,291.3125 Q4393.3125,293.4063 4394,294.4844 Q4394.6875,295.5469 4396.0313,295.5469 Q4396.6563,295.5469 4397.25,295.2813 Q4397.8438,295 4398.4688,294.4219 L4398.4688,297.1406 Z " fill="#000000"/><text fill="#000000" font-family="sans-serif" font-size="14" lengthAdjust="spacing" textLength="210.9502" x="4409.5" y="296.3467">comp_arc_sta__baselibs__utils</text><line style="stroke:#181818;stroke-width:0.5;" x1="4381.5" x2="4622.4502" y1="307.5" y2="307.5"/></g><!--class logic_arc_int__baselibs__utils_scoped_op--><g id="elem_logic_arc_int__baselibs__utils_scoped_op"><rect fill="#F1F1F1" height="40" id="logic_arc_int__baselibs__utils_scoped_op" rx="2.5" ry="2.5" style="stroke:#181818;stroke-width:0.5;" width="315.377" x="4175.5" y="158.5"/><ellipse cx="4190.5" cy="174.5" fill="#ADD1B2" rx="11" ry="11" style="stroke:#181818;stroke-width:1;"/><path d="M4193.4688,180.1406 Q4192.8906,180.4375 4192.25,180.5781 Q4191.6094,180.7344 4190.9063,180.7344 Q4188.4063,180.7344 4187.0781,179.0938 Q4185.7656,177.4375 4185.7656,174.3125 Q4185.7656,171.1875 4187.0781,169.5313 Q4188.4063,167.875 4190.9063,167.875 Q4191.6094,167.875 4192.25,168.0313 Q4192.9063,168.1875 4193.4688,168.4844 L4193.4688,171.2031 Q4192.8438,170.625 4192.25,170.3594 Q4191.6563,170.0781 4191.0313,170.0781 Q4189.6875,170.0781 4189,171.1563 Q4188.3125,172.2188 4188.3125,174.3125 Q4188.3125,176.4063 4189,177.4844 Q4189.6875,178.5469 4191.0313,178.5469 Q4191.6563,178.5469 4192.25,178.2813 Q4192.8438,178 4193.4688,177.4219 L4193.4688,180.1406 Z " fill="#000000"/><text fill="#000000" font-family="sans-serif" font-size="14" lengthAdjust="spacing" textLength="283.377" x="4204.5" y="179.3467">logic_arc_int__baselibs__utils_scoped_op</text><line style="stroke:#181818;stroke-width:0.5;" x1="4176.5" x2="4489.877" y1="190.5" y2="190.5"/></g><!--class logic_arc_int__baselibs__utils_base64--><g id="elem_logic_arc_int__baselibs__utils_base64"><rect fill="#F1F1F1" height="40" id="logic_arc_int__baselibs__utils_base64" rx="2.5" ry="2.5" style="stroke:#181818;stroke-width:0.5;" width="292.1689" x="4526" y="158.5"/><ellipse cx="4541" cy="174.5" fill="#ADD1B2" rx="11" ry="11" style="stroke:#181818;stroke-width:1;"/><path d="M4543.9688,180.1406 Q4543.3906,180.4375 4542.75,180.5781 Q4542.1094,180.7344 4541.4063,180.7344 Q4538.9063,180.7344 4537.5781,179.0938 Q4536.2656,177.4375 4536.2656,174.3125 Q4536.2656,171.1875 4537.5781,169.5313 Q4538.9063,167.875 4541.4063,167.875 Q4542.1094,167.875 4542.75,168.0313 Q4543.4063,168.1875 4543.9688,168.4844 L4543.9688,171.2031 Q4543.3438,170.625 4542.75,170.3594 Q4542.1563,170.0781 4541.5313,170.0781 Q4540.1875,170.0781 4539.5,171.1563 Q4538.8125,172.2188 4538.8125,174.3125 Q4538.8125,176.4063 4539.5,177.4844 Q4540.1875,178.5469 4541.5313,178.5469 Q4542.1563,178.5469 4542.75,178.2813 Q4543.3438,178 4543.9688,177.4219 L4543.9688,180.1406 Z " fill="#000000"/><text fill="#000000" font-family="sans-serif" font-size="14" lengthAdjust="spacing" textLength="260.1689" x="4555" y="179.3467">logic_arc_int__baselibs__utils_base64</text><line style="stroke:#181818;stroke-width:0.5;" x1="4527" x2="4817.1689" y1="190.5" y2="190.5"/></g><!--class logic_arc_int__baselibs__synchronized_queue--><g id="elem_logic_arc_int__baselibs__synchronized_queue"><rect fill="#F1F1F1" height="40" id="logic_arc_int__baselibs__synchronized_queue" rx="2.5" ry="2.5" style="stroke:#181818;stroke-width:0.5;" width="348.3604" x="2250" y="158.5"/><ellipse cx="2265" cy="174.5" fill="#ADD1B2" rx="11" ry="11" style="stroke:#181818;stroke-width:1;"/><path d="M2267.9688,180.1406 Q2267.3906,180.4375 2266.75,180.5781 Q2266.1094,180.7344 2265.4063,180.7344 Q2262.9063,180.7344 2261.5781,179.0938 Q2260.2656,177.4375 2260.2656,174.3125 Q2260.2656,171.1875 2261.5781,169.5313 Q2262.9063,167.875 2265.4063,167.875 Q2266.1094,167.875 2266.75,168.0313 Q2267.4063,168.1875 2267.9688,168.4844 L2267.9688,171.2031 Q2267.3438,170.625 2266.75,170.3594 Q2266.1563,170.0781 2265.5313,170.0781 Q2264.1875,170.0781 2263.5,171.1563 Q2262.8125,172.2188 2262.8125,174.3125 Q2262.8125,176.4063 2263.5,177.4844 Q2264.1875,178.5469 2265.5313,178.5469 Q2266.1563,178.5469 2266.75,178.2813 Q2267.3438,178 2267.9688,177.4219 L2267.9688,180.1406 Z " fill="#000000"/><text fill="#000000" font-family="sans-serif" font-size="14" lengthAdjust="spacing" textLength="316.3604" x="2279" y="179.3467">logic_arc_int__baselibs__synchronized_queue</text><line style="stroke:#181818;stroke-width:0.5;" x1="2251" x2="2597.3604" y1="190.5" y2="190.5"/></g><!--class logic_arc_int__baselibs__bit_mask_operator--><g id="elem_logic_arc_int__baselibs__bit_mask_operator"><rect fill="#F1F1F1" height="40" id="logic_arc_int__baselibs__bit_mask_operator" rx="2.5" ry="2.5" style="stroke:#181818;stroke-width:0.5;" width="334.6406" x="5573.5" y="158.5"/><ellipse cx="5588.5" cy="174.5" fill="#ADD1B2" rx="11" ry="11" style="stroke:#181818;stroke-width:1;"/><path d="M5591.4688,180.1406 Q5590.8906,180.4375 5590.25,180.5781 Q5589.6094,180.7344 5588.9063,180.7344 Q5586.4063,180.7344 5585.0781,179.0938 Q5583.7656,177.4375 5583.7656,174.3125 Q5583.7656,171.1875 5585.0781,169.5313 Q5586.4063,167.875 5588.9063,167.875 Q5589.6094,167.875 5590.25,168.0313 Q5590.9063,168.1875 5591.4688,168.4844 L5591.4688,171.2031 Q5590.8438,170.625 5590.25,170.3594 Q5589.6563,170.0781 5589.0313,170.0781 Q5587.6875,170.0781 5587,171.1563 Q5586.3125,172.2188 5586.3125,174.3125 Q5586.3125,176.4063 5587,177.4844 Q5587.6875,178.5469 5589.0313,178.5469 Q5589.6563,178.5469 5590.25,178.2813 Q5590.8438,178 5591.4688,177.4219 L5591.4688,180.1406 Z " fill="#000000"/><text fill="#000000" font-family="sans-serif" font-size="14" lengthAdjust="spacing" textLength="302.6406" x="5602.5" y="179.3467">logic_arc_int__baselibs__bit_mask_operator</text><line style="stroke:#181818;stroke-width:0.5;" x1="5574.5" x2="5907.1406" y1="190.5" y2="190.5"/></g><!--class logic_arc_int__baselibs__intrusive_list--><g id="elem_logic_arc_int__baselibs__intrusive_list"><rect fill="#F1F1F1" height="40" id="logic_arc_int__baselibs__intrusive_list" rx="2.5" ry="2.5" style="stroke:#181818;stroke-width:0.5;" width="293.0713" x="350.5" y="158.5"/><ellipse cx="365.5" cy="174.5" fill="#ADD1B2" rx="11" ry="11" style="stroke:#181818;stroke-width:1;"/><path d="M368.4688,180.1406 Q367.8906,180.4375 367.25,180.5781 Q366.6094,180.7344 365.9063,180.7344 Q363.4063,180.7344 362.0781,179.0938 Q360.7656,177.4375 360.7656,174.3125 Q360.7656,171.1875 362.0781,169.5313 Q363.4063,167.875 365.9063,167.875 Q366.6094,167.875 367.25,168.0313 Q367.9063,168.1875 368.4688,168.4844 L368.4688,171.2031 Q367.8438,170.625 367.25,170.3594 Q366.6563,170.0781 366.0313,170.0781 Q364.6875,170.0781 364,171.1563 Q363.3125,172.2188 363.3125,174.3125 Q363.3125,176.4063 364,177.4844 Q364.6875,178.5469 366.0313,178.5469 Q366.6563,178.5469 367.25,178.2813 Q367.8438,178 368.4688,177.4219 L368.4688,180.1406 Z " fill="#000000"/><text fill="#000000" font-family="sans-serif" font-size="14" lengthAdjust="spacing" textLength="261.0713" x="379.5" y="179.3467">logic_arc_int__baselibs__intrusive_list</text><line style="stroke:#181818;stroke-width:0.5;" x1="351.5" x2="642.5713" y1="190.5" y2="190.5"/></g><!--class comp_arc_sta__baselibs__bit_manipulation--><g id="elem_comp_arc_sta__baselibs__bit_manipulation"><rect fill="#F1F1F1" height="40" id="comp_arc_sta__baselibs__bit_manipulation" rx="2.5" ry="2.5" style="stroke:#181818;stroke-width:0.5;" width="330.8057" x="5368.5" y="275.5"/><ellipse cx="5383.5" cy="291.5" fill="#ADD1B2" rx="11" ry="11" style="stroke:#181818;stroke-width:1;"/><path d="M5386.4688,297.1406 Q5385.8906,297.4375 5385.25,297.5781 Q5384.6094,297.7344 5383.9063,297.7344 Q5381.4063,297.7344 5380.0781,296.0938 Q5378.7656,294.4375 5378.7656,291.3125 Q5378.7656,288.1875 5380.0781,286.5313 Q5381.4063,284.875 5383.9063,284.875 Q5384.6094,284.875 5385.25,285.0313 Q5385.9063,285.1875 5386.4688,285.4844 L5386.4688,288.2031 Q5385.8438,287.625 5385.25,287.3594 Q5384.6563,287.0781 5384.0313,287.0781 Q5382.6875,287.0781 5382,288.1563 Q5381.3125,289.2188 5381.3125,291.3125 Q5381.3125,293.4063 5382,294.4844 Q5382.6875,295.5469 5384.0313,295.5469 Q5384.6563,295.5469 5385.25,295.2813 Q5385.8438,295 5386.4688,294.4219 L5386.4688,297.1406 Z " fill="#000000"/><text fill="#000000" font-family="sans-serif" font-size="14" lengthAdjust="spacing" textLength="298.8057" x="5397.5" y="296.3467">comp_arc_sta__baselibs__bit_manipulation</text><line style="stroke:#181818;stroke-width:0.5;" x1="5369.5" x2="5698.3057" y1="307.5" y2="307.5"/></g><!--class comp_arc_sta__baselibs__concurrency--><g id="elem_comp_arc_sta__baselibs__concurrency"><rect fill="#F1F1F1" height="40" id="comp_arc_sta__baselibs__concurrency" rx="2.5" ry="2.5" style="stroke:#181818;stroke-width:0.5;" width="300.2012" x="1806" y="275.5"/><ellipse cx="1821" cy="291.5" fill="#ADD1B2" rx="11" ry="11" style="stroke:#181818;stroke-width:1;"/><path d="M1823.9688,297.1406 Q1823.3906,297.4375 1822.75,297.5781 Q1822.1094,297.7344 1821.4063,297.7344 Q1818.9063,297.7344 1817.5781,296.0938 Q1816.2656,294.4375 1816.2656,291.3125 Q1816.2656,288.1875 1817.5781,286.5313 Q1818.9063,284.875 1821.4063,284.875 Q1822.1094,284.875 1822.75,285.0313 Q1823.4063,285.1875 1823.9688,285.4844 L1823.9688,288.2031 Q1823.3438,287.625 1822.75,287.3594 Q1822.1563,287.0781 1821.5313,287.0781 Q1820.1875,287.0781 1819.5,288.1563 Q1818.8125,289.2188 1818.8125,291.3125 Q1818.8125,293.4063 1819.5,294.4844 Q1820.1875,295.5469 1821.5313,295.5469 Q1822.1563,295.5469 1822.75,295.2813 Q1823.3438,295 1823.9688,294.4219 L1823.9688,297.1406 Z " fill="#000000"/><text fill="#000000" font-family="sans-serif" font-size="14" lengthAdjust="spacing" textLength="268.2012" x="1835" y="296.3467">comp_arc_sta__baselibs__concurrency</text><line style="stroke:#181818;stroke-width:0.5;" x1="1807" x2="2105.2012" y1="307.5" y2="307.5"/></g><!--class logic_arc_int__baselibs__executor--><g id="elem_logic_arc_int__baselibs__executor"><rect fill="#F1F1F1" height="40" id="logic_arc_int__baselibs__executor" rx="2.5" ry="2.5" style="stroke:#181818;stroke-width:0.5;" width="266.4385" x="1680" y="158.5"/><ellipse cx="1695" cy="174.5" fill="#ADD1B2" rx="11" ry="11" style="stroke:#181818;stroke-width:1;"/><path d="M1697.9688,180.1406 Q1697.3906,180.4375 1696.75,180.5781 Q1696.1094,180.7344 1695.4063,180.7344 Q1692.9063,180.7344 1691.5781,179.0938 Q1690.2656,177.4375 1690.2656,174.3125 Q1690.2656,171.1875 1691.5781,169.5313 Q1692.9063,167.875 1695.4063,167.875 Q1696.1094,167.875 1696.75,168.0313 Q1697.4063,168.1875 1697.9688,168.4844 L1697.9688,171.2031 Q1697.3438,170.625 1696.75,170.3594 Q1696.1563,170.0781 1695.5313,170.0781 Q1694.1875,170.0781 1693.5,171.1563 Q1692.8125,172.2188 1692.8125,174.3125 Q1692.8125,176.4063 1693.5,177.4844 Q1694.1875,178.5469 1695.5313,178.5469 Q1696.1563,178.5469 1696.75,178.2813 Q1697.3438,178 1697.9688,177.4219 L1697.9688,180.1406 Z " fill="#000000"/><text fill="#000000" font-family="sans-serif" font-size="14" lengthAdjust="spacing" textLength="234.4385" x="1709" y="179.3467">logic_arc_int__baselibs__executor</text><line style="stroke:#181818;stroke-width:0.5;" x1="1681" x2="1945.4385" y1="190.5" y2="190.5"/></g><!--class logic_arc_int__baselibs__result--><g id="elem_logic_arc_int__baselibs__result"><rect fill="#F1F1F1" height="40" id="logic_arc_int__baselibs__result" rx="2.5" ry="2.5" style="stroke:#181818;stroke-width:0.5;" width="244.4609" x="3585" y="158.5"/><ellipse cx="3600" cy="174.5" fill="#ADD1B2" rx="11" ry="11" style="stroke:#181818;stroke-width:1;"/><path d="M3602.9688,180.1406 Q3602.3906,180.4375 3601.75,180.5781 Q3601.1094,180.7344 3600.4063,180.7344 Q3597.9063,180.7344 3596.5781,179.0938 Q3595.2656,177.4375 3595.2656,174.3125 Q3595.2656,171.1875 3596.5781,169.5313 Q3597.9063,167.875 3600.4063,167.875 Q3601.1094,167.875 3601.75,168.0313 Q3602.4063,168.1875 3602.9688,168.4844 L3602.9688,171.2031 Q3602.3438,170.625 3601.75,170.3594 Q3601.1563,170.0781 3600.5313,170.0781 Q3599.1875,170.0781 3598.5,171.1563 Q3597.8125,172.2188 3597.8125,174.3125 Q3597.8125,176.4063 3598.5,177.4844 Q3599.1875,178.5469 3600.5313,178.5469 Q3601.1563,178.5469 3601.75,178.2813 Q3602.3438,178 3602.9688,177.4219 L3602.9688,180.1406 Z " fill="#000000"/><text fill="#000000" font-family="sans-serif" font-size="14" lengthAdjust="spacing" textLength="212.4609" x="3614" y="179.3467">logic_arc_int__baselibs__result</text><line style="stroke:#181818;stroke-width:0.5;" x1="3586" x2="3828.4609" y1="190.5" y2="190.5"/></g><!--class logic_arc_int__baselibs__shared_future--><g id="elem_logic_arc_int__baselibs__shared_future"><rect fill="#F1F1F1" height="40" id="logic_arc_int__baselibs__shared_future" rx="2.5" ry="2.5" style="stroke:#181818;stroke-width:0.5;" width="302.0811" x="1343" y="158.5"/><ellipse cx="1358" cy="174.5" fill="#ADD1B2" rx="11" ry="11" style="stroke:#181818;stroke-width:1;"/><path d="M1360.9688,180.1406 Q1360.3906,180.4375 1359.75,180.5781 Q1359.1094,180.7344 1358.4063,180.7344 Q1355.9063,180.7344 1354.5781,179.0938 Q1353.2656,177.4375 1353.2656,174.3125 Q1353.2656,171.1875 1354.5781,169.5313 Q1355.9063,167.875 1358.4063,167.875 Q1359.1094,167.875 1359.75,168.0313 Q1360.4063,168.1875 1360.9688,168.4844 L1360.9688,171.2031 Q1360.3438,170.625 1359.75,170.3594 Q1359.1563,170.0781 1358.5313,170.0781 Q1357.1875,170.0781 1356.5,171.1563 Q1355.8125,172.2188 1355.8125,174.3125 Q1355.8125,176.4063 1356.5,177.4844 Q1357.1875,178.5469 1358.5313,178.5469 Q1359.1563,178.5469 1359.75,178.2813 Q1360.3438,178 1360.9688,177.4219 L1360.9688,180.1406 Z " fill="#000000"/><text fill="#000000" font-family="sans-serif" font-size="14" lengthAdjust="spacing" textLength="270.0811" x="1372" y="179.3467">logic_arc_int__baselibs__shared_future</text><line style="stroke:#181818;stroke-width:0.5;" x1="1344" x2="1644.0811" y1="190.5" y2="190.5"/></g><!--class comp_arc_sta__baselibs__json--><g id="elem_comp_arc_sta__baselibs__json"><rect fill="#F1F1F1" height="40" id="comp_arc_sta__baselibs__json" rx="2.5" ry="2.5" style="stroke:#181818;stroke-width:0.5;" width="242.1367" x="5939" y="275.5"/><ellipse cx="5954" cy="291.5" fill="#ADD1B2" rx="11" ry="11" style="stroke:#181818;stroke-width:1;"/><path d="M5956.9688,297.1406 Q5956.3906,297.4375 5955.75,297.5781 Q5955.1094,297.7344 5954.4063,297.7344 Q5951.9063,297.7344 5950.5781,296.0938 Q5949.2656,294.4375 5949.2656,291.3125 Q5949.2656,288.1875 5950.5781,286.5313 Q5951.9063,284.875 5954.4063,284.875 Q5955.1094,284.875 5955.75,285.0313 Q5956.4063,285.1875 5956.9688,285.4844 L5956.9688,288.2031 Q5956.3438,287.625 5955.75,287.3594 Q5955.1563,287.0781 5954.5313,287.0781 Q5953.1875,287.0781 5952.5,288.1563 Q5951.8125,289.2188 5951.8125,291.3125 Q5951.8125,293.4063 5952.5,294.4844 Q5953.1875,295.5469 5954.5313,295.5469 Q5955.1563,295.5469 5955.75,295.2813 Q5956.3438,295 5956.9688,294.4219 L5956.9688,297.1406 Z " fill="#000000"/><text fill="#000000" font-family="sans-serif" font-size="14" lengthAdjust="spacing" textLength="210.1367" x="5968" y="296.3467">comp_arc_sta__baselibs__json</text><line style="stroke:#181818;stroke-width:0.5;" x1="5940" x2="6180.1367" y1="307.5" y2="307.5"/></g><!--class logic_arc_int__baselibs__json--><g id="elem_logic_arc_int__baselibs__json"><rect fill="#F1F1F1" height="40" id="logic_arc_int__baselibs__json" rx="2.5" ry="2.5" style="stroke:#181818;stroke-width:0.5;" width="233.168" x="5943.5" y="158.5"/><ellipse cx="5958.5" cy="174.5" fill="#ADD1B2" rx="11" ry="11" style="stroke:#181818;stroke-width:1;"/><path d="M5961.4688,180.1406 Q5960.8906,180.4375 5960.25,180.5781 Q5959.6094,180.7344 5958.9063,180.7344 Q5956.4063,180.7344 5955.0781,179.0938 Q5953.7656,177.4375 5953.7656,174.3125 Q5953.7656,171.1875 5955.0781,169.5313 Q5956.4063,167.875 5958.9063,167.875 Q5959.6094,167.875 5960.25,168.0313 Q5960.9063,168.1875 5961.4688,168.4844 L5961.4688,171.2031 Q5960.8438,170.625 5960.25,170.3594 Q5959.6563,170.0781 5959.0313,170.0781 Q5957.6875,170.0781 5957,171.1563 Q5956.3125,172.2188 5956.3125,174.3125 Q5956.3125,176.4063 5957,177.4844 Q5957.6875,178.5469 5959.0313,178.5469 Q5959.6563,178.5469 5960.25,178.2813 Q5960.8438,178 5961.4688,177.4219 L5961.4688,180.1406 Z " fill="#000000"/><text fill="#000000" font-family="sans-serif" font-size="14" lengthAdjust="spacing" textLength="201.168" x="5972.5" y="179.3467">logic_arc_int__baselibs__json</text><line style="stroke:#181818;stroke-width:0.5;" x1="5944.5" x2="6175.668" y1="190.5" y2="190.5"/></g><!--class logic_arc_int__baselibs__future--><g id="elem_logic_arc_int__baselibs__future"><rect fill="#F1F1F1" height="40" id="logic_arc_int__baselibs__future" rx="2.5" ry="2.5" style="stroke:#181818;stroke-width:0.5;" width="247.0791" x="2949.5" y="158.5"/><ellipse cx="2964.5" cy="174.5" fill="#ADD1B2" rx="11" ry="11" style="stroke:#181818;stroke-width:1;"/><path d="M2967.4688,180.1406 Q2966.8906,180.4375 2966.25,180.5781 Q2965.6094,180.7344 2964.9063,180.7344 Q2962.4063,180.7344 2961.0781,179.0938 Q2959.7656,177.4375 2959.7656,174.3125 Q2959.7656,171.1875 2961.0781,169.5313 Q2962.4063,167.875 2964.9063,167.875 Q2965.6094,167.875 2966.25,168.0313 Q2966.9063,168.1875 2967.4688,168.4844 L2967.4688,171.2031 Q2966.8438,170.625 2966.25,170.3594 Q2965.6563,170.0781 2965.0313,170.0781 Q2963.6875,170.0781 2963,171.1563 Q2962.3125,172.2188 2962.3125,174.3125 Q2962.3125,176.4063 2963,177.4844 Q2963.6875,178.5469 2965.0313,178.5469 Q2965.6563,178.5469 2966.25,178.2813 Q2966.8438,178 2967.4688,177.4219 L2967.4688,180.1406 Z " fill="#000000"/><text fill="#000000" font-family="sans-serif" font-size="14" lengthAdjust="spacing" textLength="215.0791" x="2978.5" y="179.3467">logic_arc_int__baselibs__future</text><line style="stroke:#181818;stroke-width:0.5;" x1="2950.5" x2="3195.5791" y1="190.5" y2="190.5"/></g><!--class logic_arc_int__baselibs__bit_manipulation--><g id="elem_logic_arc_int__baselibs__bit_manipulation"><rect fill="#F1F1F1" height="40" id="logic_arc_int__baselibs__bit_manipulation" rx="2.5" ry="2.5" style="stroke:#181818;stroke-width:0.5;" width="321.8369" x="5216" y="158.5"/><ellipse cx="5231" cy="174.5" fill="#ADD1B2" rx="11" ry="11" style="stroke:#181818;stroke-width:1;"/><path d="M5233.9688,180.1406 Q5233.3906,180.4375 5232.75,180.5781 Q5232.1094,180.7344 5231.4063,180.7344 Q5228.9063,180.7344 5227.5781,179.0938 Q5226.2656,177.4375 5226.2656,174.3125 Q5226.2656,171.1875 5227.5781,169.5313 Q5228.9063,167.875 5231.4063,167.875 Q5232.1094,167.875 5232.75,168.0313 Q5233.4063,168.1875 5233.9688,168.4844 L5233.9688,171.2031 Q5233.3438,170.625 5232.75,170.3594 Q5232.1563,170.0781 5231.5313,170.0781 Q5230.1875,170.0781 5229.5,171.1563 Q5228.8125,172.2188 5228.8125,174.3125 Q5228.8125,176.4063 5229.5,177.4844 Q5230.1875,178.5469 5231.5313,178.5469 Q5232.1563,178.5469 5232.75,178.2813 Q5233.3438,178 5233.9688,177.4219 L5233.9688,180.1406 Z " fill="#000000"/><text fill="#000000" font-family="sans-serif" font-size="14" lengthAdjust="spacing" textLength="289.8369" x="5245" y="179.3467">logic_arc_int__baselibs__bit_manipulation</text><line style="stroke:#181818;stroke-width:0.5;" x1="5217" x2="5536.8369" y1="190.5" y2="190.5"/></g><!--class logic_arc_int__baselibs__memory_shared--><g id="elem_logic_arc_int__baselibs__memory_shared"><rect fill="#F1F1F1" height="40" id="logic_arc_int__baselibs__memory_shared" rx="2.5" ry="2.5" style="stroke:#181818;stroke-width:0.5;" width="318.043" x="3232" y="158.5"/><ellipse cx="3247" cy="174.5" fill="#ADD1B2" rx="11" ry="11" style="stroke:#181818;stroke-width:1;"/><path d="M3249.9688,180.1406 Q3249.3906,180.4375 3248.75,180.5781 Q3248.1094,180.7344 3247.4063,180.7344 Q3244.9063,180.7344 3243.5781,179.0938 Q3242.2656,177.4375 3242.2656,174.3125 Q3242.2656,171.1875 3243.5781,169.5313 Q3244.9063,167.875 3247.4063,167.875 Q3248.1094,167.875 3248.75,168.0313 Q3249.4063,168.1875 3249.9688,168.4844 L3249.9688,171.2031 Q3249.3438,170.625 3248.75,170.3594 Q3248.1563,170.0781 3247.5313,170.0781 Q3246.1875,170.0781 3245.5,171.1563 Q3244.8125,172.2188 3244.8125,174.3125 Q3244.8125,176.4063 3245.5,177.4844 Q3246.1875,178.5469 3247.5313,178.5469 Q3248.1563,178.5469 3248.75,178.2813 Q3249.3438,178 3249.9688,177.4219 L3249.9688,180.1406 Z " fill="#000000"/><text fill="#000000" font-family="sans-serif" font-size="14" lengthAdjust="spacing" textLength="286.043" x="3261" y="179.3467">logic_arc_int__baselibs__memory_shared</text><line style="stroke:#181818;stroke-width:0.5;" x1="3233" x2="3549.043" y1="190.5" y2="190.5"/></g><!--class comp_arc_sta__baselibs__message_passing--><g id="elem_comp_arc_sta__baselibs__message_passing"><rect fill="#F1F1F1" height="40" id="comp_arc_sta__baselibs__message_passing" rx="2.5" ry="2.5" style="stroke:#181818;stroke-width:0.5;" width="337.1357" x="4848.5" y="275.5"/><ellipse cx="4863.5" cy="291.5" fill="#ADD1B2" rx="11" ry="11" style="stroke:#181818;stroke-width:1;"/><path d="M4866.4688,297.1406 Q4865.8906,297.4375 4865.25,297.5781 Q4864.6094,297.7344 4863.9063,297.7344 Q4861.4063,297.7344 4860.0781,296.0938 Q4858.7656,294.4375 4858.7656,291.3125 Q4858.7656,288.1875 4860.0781,286.5313 Q4861.4063,284.875 4863.9063,284.875 Q4864.6094,284.875 4865.25,285.0313 Q4865.9063,285.1875 4866.4688,285.4844 L4866.4688,288.2031 Q4865.8438,287.625 4865.25,287.3594 Q4864.6563,287.0781 4864.0313,287.0781 Q4862.6875,287.0781 4862,288.1563 Q4861.3125,289.2188 4861.3125,291.3125 Q4861.3125,293.4063 4862,294.4844 Q4862.6875,295.5469 4864.0313,295.5469 Q4864.6563,295.5469 4865.25,295.2813 Q4865.8438,295 4866.4688,294.4219 L4866.4688,297.1406 Z " fill="#000000"/><text fill="#000000" font-family="sans-serif" font-size="14" lengthAdjust="spacing" textLength="305.1357" x="4877.5" y="296.3467">comp_arc_sta__baselibs__message_passing</text><line style="stroke:#181818;stroke-width:0.5;" x1="4849.5" x2="5184.6357" y1="307.5" y2="307.5"/></g><!--class logic_arc_int__baselibs__message_passing--><g id="elem_logic_arc_int__baselibs__message_passing"><rect fill="#F1F1F1" height="40" id="logic_arc_int__baselibs__message_passing" rx="2.5" ry="2.5" style="stroke:#181818;stroke-width:0.5;" width="328.167" x="4853" y="158.5"/><ellipse cx="4868" cy="174.5" fill="#ADD1B2" rx="11" ry="11" style="stroke:#181818;stroke-width:1;"/><path d="M4870.9688,180.1406 Q4870.3906,180.4375 4869.75,180.5781 Q4869.1094,180.7344 4868.4063,180.7344 Q4865.9063,180.7344 4864.5781,179.0938 Q4863.2656,177.4375 4863.2656,174.3125 Q4863.2656,171.1875 4864.5781,169.5313 Q4865.9063,167.875 4868.4063,167.875 Q4869.1094,167.875 4869.75,168.0313 Q4870.4063,168.1875 4870.9688,168.4844 L4870.9688,171.2031 Q4870.3438,170.625 4869.75,170.3594 Q4869.1563,170.0781 4868.5313,170.0781 Q4867.1875,170.0781 4866.5,171.1563 Q4865.8125,172.2188 4865.8125,174.3125 Q4865.8125,176.4063 4866.5,177.4844 Q4867.1875,178.5469 4868.5313,178.5469 Q4869.1563,178.5469 4869.75,178.2813 Q4870.3438,178 4870.9688,177.4219 L4870.9688,180.1406 Z " fill="#000000"/><text fill="#000000" font-family="sans-serif" font-size="14" lengthAdjust="spacing" textLength="296.167" x="4882" y="179.3467">logic_arc_int__baselibs__message_passing</text><line style="stroke:#181818;stroke-width:0.5;" x1="4854" x2="5180.167" y1="190.5" y2="190.5"/></g><!--class comp_arc_sta__baselibs__containers--><g id="elem_comp_arc_sta__baselibs__containers"><rect fill="#F1F1F1" height="40" id="comp_arc_sta__baselibs__containers" rx="2.5" ry="2.5" style="stroke:#181818;stroke-width:0.5;" width="287.1445" x="158.5" y="275.5"/><ellipse cx="173.5" cy="291.5" fill="#ADD1B2" rx="11" ry="11" style="stroke:#181818;stroke-width:1;"/><path d="M176.4688,297.1406 Q175.8906,297.4375 175.25,297.5781 Q174.6094,297.7344 173.9063,297.7344 Q171.4063,297.7344 170.0781,296.0938 Q168.7656,294.4375 168.7656,291.3125 Q168.7656,288.1875 170.0781,286.5313 Q171.4063,284.875 173.9063,284.875 Q174.6094,284.875 175.25,285.0313 Q175.9063,285.1875 176.4688,285.4844 L176.4688,288.2031 Q175.8438,287.625 175.25,287.3594 Q174.6563,287.0781 174.0313,287.0781 Q172.6875,287.0781 172,288.1563 Q171.3125,289.2188 171.3125,291.3125 Q171.3125,293.4063 172,294.4844 Q172.6875,295.5469 174.0313,295.5469 Q174.6563,295.5469 175.25,295.2813 Q175.8438,295 176.4688,294.4219 L176.4688,297.1406 Z " fill="#000000"/><text fill="#000000" font-family="sans-serif" font-size="14" lengthAdjust="spacing" textLength="255.1445" x="187.5" y="296.3467">comp_arc_sta__baselibs__containers</text><line style="stroke:#181818;stroke-width:0.5;" x1="159.5" x2="444.6445" y1="307.5" y2="307.5"/></g><!--class logic_arc_int__baselibs__dynamic_array--><g id="elem_logic_arc_int__baselibs__dynamic_array"><rect fill="#F1F1F1" height="40" id="logic_arc_int__baselibs__dynamic_array" rx="2.5" ry="2.5" style="stroke:#181818;stroke-width:0.5;" width="308.3496" x="7" y="158.5"/><ellipse cx="22" cy="174.5" fill="#ADD1B2" rx="11" ry="11" style="stroke:#181818;stroke-width:1;"/><path d="M24.9688,180.1406 Q24.3906,180.4375 23.75,180.5781 Q23.1094,180.7344 22.4063,180.7344 Q19.9063,180.7344 18.5781,179.0938 Q17.2656,177.4375 17.2656,174.3125 Q17.2656,171.1875 18.5781,169.5313 Q19.9063,167.875 22.4063,167.875 Q23.1094,167.875 23.75,168.0313 Q24.4063,168.1875 24.9688,168.4844 L24.9688,171.2031 Q24.3438,170.625 23.75,170.3594 Q23.1563,170.0781 22.5313,170.0781 Q21.1875,170.0781 20.5,171.1563 Q19.8125,172.2188 19.8125,174.3125 Q19.8125,176.4063 20.5,177.4844 Q21.1875,178.5469 22.5313,178.5469 Q23.1563,178.5469 23.75,178.2813 Q24.3438,178 24.9688,177.4219 L24.9688,180.1406 Z " fill="#000000"/><text fill="#000000" font-family="sans-serif" font-size="14" lengthAdjust="spacing" textLength="276.3496" x="36" y="179.3467">logic_arc_int__baselibs__dynamic_array</text><line style="stroke:#181818;stroke-width:0.5;" x1="8" x2="314.3496" y1="190.5" y2="190.5"/></g><!--class comp_arc_sta__baselibs__filesystem--><g id="elem_comp_arc_sta__baselibs__filesystem"><rect fill="#F1F1F1" height="40" id="comp_arc_sta__baselibs__filesystem" rx="2.5" ry="2.5" style="stroke:#181818;stroke-width:0.5;" width="285.4492" x="3868.5" y="275.5"/><ellipse cx="3883.5" cy="291.5" fill="#ADD1B2" rx="11" ry="11" style="stroke:#181818;stroke-width:1;"/><path d="M3886.4688,297.1406 Q3885.8906,297.4375 3885.25,297.5781 Q3884.6094,297.7344 3883.9063,297.7344 Q3881.4063,297.7344 3880.0781,296.0938 Q3878.7656,294.4375 3878.7656,291.3125 Q3878.7656,288.1875 3880.0781,286.5313 Q3881.4063,284.875 3883.9063,284.875 Q3884.6094,284.875 3885.25,285.0313 Q3885.9063,285.1875 3886.4688,285.4844 L3886.4688,288.2031 Q3885.8438,287.625 3885.25,287.3594 Q3884.6563,287.0781 3884.0313,287.0781 Q3882.6875,287.0781 3882,288.1563 Q3881.3125,289.2188 3881.3125,291.3125 Q3881.3125,293.4063 3882,294.4844 Q3882.6875,295.5469 3884.0313,295.5469 Q3884.6563,295.5469 3885.25,295.2813 Q3885.8438,295 3886.4688,294.4219 L3886.4688,297.1406 Z " fill="#000000"/><text fill="#000000" font-family="sans-serif" font-size="14" lengthAdjust="spacing" textLength="253.4492" x="3897.5" y="296.3467">comp_arc_sta__baselibs__filesystem</text><line style="stroke:#181818;stroke-width:0.5;" x1="3869.5" x2="4152.9492" y1="307.5" y2="307.5"/></g><!--class logic_arc_int__baselibs__filesystem--><g id="elem_logic_arc_int__baselibs__filesystem"><rect fill="#F1F1F1" height="40" id="logic_arc_int__baselibs__filesystem" rx="2.5" ry="2.5" style="stroke:#181818;stroke-width:0.5;" width="276.4805" x="3864" y="158.5"/><ellipse cx="3879" cy="174.5" fill="#ADD1B2" rx="11" ry="11" style="stroke:#181818;stroke-width:1;"/><path d="M3881.9688,180.1406 Q3881.3906,180.4375 3880.75,180.5781 Q3880.1094,180.7344 3879.4063,180.7344 Q3876.9063,180.7344 3875.5781,179.0938 Q3874.2656,177.4375 3874.2656,174.3125 Q3874.2656,171.1875 3875.5781,169.5313 Q3876.9063,167.875 3879.4063,167.875 Q3880.1094,167.875 3880.75,168.0313 Q3881.4063,168.1875 3881.9688,168.4844 L3881.9688,171.2031 Q3881.3438,170.625 3880.75,170.3594 Q3880.1563,170.0781 3879.5313,170.0781 Q3878.1875,170.0781 3877.5,171.1563 Q3876.8125,172.2188 3876.8125,174.3125 Q3876.8125,176.4063 3877.5,177.4844 Q3878.1875,178.5469 3879.5313,178.5469 Q3880.1563,178.5469 3880.75,178.2813 Q3881.3438,178 3881.9688,177.4219 L3881.9688,180.1406 Z " fill="#000000"/><text fill="#000000" font-family="sans-serif" font-size="14" lengthAdjust="spacing" textLength="244.4805" x="3893" y="179.3467">logic_arc_int__baselibs__filesystem</text><line style="stroke:#181818;stroke-width:0.5;" x1="3865" x2="4139.4805" y1="190.5" y2="190.5"/></g><!--class comp_arc_sta__baselibs__result--><g id="elem_comp_arc_sta__baselibs__result"><rect fill="#F1F1F1" height="40" id="comp_arc_sta__baselibs__result" rx="2.5" ry="2.5" style="stroke:#181818;stroke-width:0.5;" width="253.4297" x="3580.5" y="275.5"/><ellipse cx="3595.5" cy="291.5" fill="#ADD1B2" rx="11" ry="11" style="stroke:#181818;stroke-width:1;"/><path d="M3598.4688,297.1406 Q3597.8906,297.4375 3597.25,297.5781 Q3596.6094,297.7344 3595.9063,297.7344 Q3593.4063,297.7344 3592.0781,296.0938 Q3590.7656,294.4375 3590.7656,291.3125 Q3590.7656,288.1875 3592.0781,286.5313 Q3593.4063,284.875 3595.9063,284.875 Q3596.6094,284.875 3597.25,285.0313 Q3597.9063,285.1875 3598.4688,285.4844 L3598.4688,288.2031 Q3597.8438,287.625 3597.25,287.3594 Q3596.6563,287.0781 3596.0313,287.0781 Q3594.6875,287.0781 3594,288.1563 Q3593.3125,289.2188 3593.3125,291.3125 Q3593.3125,293.4063 3594,294.4844 Q3594.6875,295.5469 3596.0313,295.5469 Q3596.6563,295.5469 3597.25,295.2813 Q3597.8438,295 3598.4688,294.4219 L3598.4688,297.1406 Z " fill="#000000"/><text fill="#000000" font-family="sans-serif" font-size="14" lengthAdjust="spacing" textLength="221.4297" x="3609.5" y="296.3467">comp_arc_sta__baselibs__result</text><line style="stroke:#181818;stroke-width:0.5;" x1="3581.5" x2="3832.9297" y1="307.5" y2="307.5"/></g><!--class comp_arc_sta__baselibs__memory_shared--><g id="elem_comp_arc_sta__baselibs__memory_shared"><rect fill="#F1F1F1" height="40" id="comp_arc_sta__baselibs__memory_shared" rx="2.5" ry="2.5" style="stroke:#181818;stroke-width:0.5;" width="327.0117" x="3218.5" y="275.5"/><ellipse cx="3233.5" cy="291.5" fill="#ADD1B2" rx="11" ry="11" style="stroke:#181818;stroke-width:1;"/><path d="M3236.4688,297.1406 Q3235.8906,297.4375 3235.25,297.5781 Q3234.6094,297.7344 3233.9063,297.7344 Q3231.4063,297.7344 3230.0781,296.0938 Q3228.7656,294.4375 3228.7656,291.3125 Q3228.7656,288.1875 3230.0781,286.5313 Q3231.4063,284.875 3233.9063,284.875 Q3234.6094,284.875 3235.25,285.0313 Q3235.9063,285.1875 3236.4688,285.4844 L3236.4688,288.2031 Q3235.8438,287.625 3235.25,287.3594 Q3234.6563,287.0781 3234.0313,287.0781 Q3232.6875,287.0781 3232,288.1563 Q3231.3125,289.2188 3231.3125,291.3125 Q3231.3125,293.4063 3232,294.4844 Q3232.6875,295.5469 3234.0313,295.5469 Q3234.6563,295.5469 3235.25,295.2813 Q3235.8438,295 3236.4688,294.4219 L3236.4688,297.1406 Z " fill="#000000"/><text fill="#000000" font-family="sans-serif" font-size="14" lengthAdjust="spacing" textLength="295.0117" x="3247.5" y="296.3467">comp_arc_sta__baselibs__memory_shared</text><line style="stroke:#181818;stroke-width:0.5;" x1="3219.5" x2="3544.5117" y1="307.5" y2="307.5"/></g><!--class logic_arc_int__baselibs__task_result--><g id="elem_logic_arc_int__baselibs__task_result"><rect fill="#F1F1F1" height="40" id="logic_arc_int__baselibs__task_result" rx="2.5" ry="2.5" style="stroke:#181818;stroke-width:0.5;" width="280.9307" x="2633.5" y="158.5"/><ellipse cx="2648.5" cy="174.5" fill="#ADD1B2" rx="11" ry="11" style="stroke:#181818;stroke-width:1;"/><path d="M2651.4688,180.1406 Q2650.8906,180.4375 2650.25,180.5781 Q2649.6094,180.7344 2648.9063,180.7344 Q2646.4063,180.7344 2645.0781,179.0938 Q2643.7656,177.4375 2643.7656,174.3125 Q2643.7656,171.1875 2645.0781,169.5313 Q2646.4063,167.875 2648.9063,167.875 Q2649.6094,167.875 2650.25,168.0313 Q2650.9063,168.1875 2651.4688,168.4844 L2651.4688,171.2031 Q2650.8438,170.625 2650.25,170.3594 Q2649.6563,170.0781 2649.0313,170.0781 Q2647.6875,170.0781 2647,171.1563 Q2646.3125,172.2188 2646.3125,174.3125 Q2646.3125,176.4063 2647,177.4844 Q2647.6875,178.5469 2649.0313,178.5469 Q2649.6563,178.5469 2650.25,178.2813 Q2650.8438,178 2651.4688,177.4219 L2651.4688,180.1406 Z " fill="#000000"/><text fill="#000000" font-family="sans-serif" font-size="14" lengthAdjust="spacing" textLength="248.9307" x="2662.5" y="179.3467">logic_arc_int__baselibs__task_result</text><line style="stroke:#181818;stroke-width:0.5;" x1="2634.5" x2="2913.4307" y1="190.5" y2="190.5"/></g><!--class logic_arc_int__baselibs__task--><g id="elem_logic_arc_int__baselibs__task"><rect fill="#F1F1F1" height="40" id="logic_arc_int__baselibs__task" rx="2.5" ry="2.5" style="stroke:#181818;stroke-width:0.5;" width="234.0156" x="1981" y="158.5"/><ellipse cx="1996" cy="174.5" fill="#ADD1B2" rx="11" ry="11" style="stroke:#181818;stroke-width:1;"/><path d="M1998.9688,180.1406 Q1998.3906,180.4375 1997.75,180.5781 Q1997.1094,180.7344 1996.4063,180.7344 Q1993.9063,180.7344 1992.5781,179.0938 Q1991.2656,177.4375 1991.2656,174.3125 Q1991.2656,171.1875 1992.5781,169.5313 Q1993.9063,167.875 1996.4063,167.875 Q1997.1094,167.875 1997.75,168.0313 Q1998.4063,168.1875 1998.9688,168.4844 L1998.9688,171.2031 Q1998.3438,170.625 1997.75,170.3594 Q1997.1563,170.0781 1996.5313,170.0781 Q1995.1875,170.0781 1994.5,171.1563 Q1993.8125,172.2188 1993.8125,174.3125 Q1993.8125,176.4063 1994.5,177.4844 Q1995.1875,178.5469 1996.5313,178.5469 Q1997.1563,178.5469 1997.75,178.2813 Q1998.3438,178 1998.9688,177.4219 L1998.9688,180.1406 Z " fill="#000000"/><text fill="#000000" font-family="sans-serif" font-size="14" lengthAdjust="spacing" textLength="202.0156" x="2010" y="179.3467">logic_arc_int__baselibs__task</text><line style="stroke:#181818;stroke-width:0.5;" x1="1982" x2="2214.0156" y1="190.5" y2="190.5"/></g><!--class logic_arc_int__baselibs__promise--><g id="elem_logic_arc_int__baselibs__promise"><rect fill="#F1F1F1" height="40" id="logic_arc_int__baselibs__promise" rx="2.5" ry="2.5" style="stroke:#181818;stroke-width:0.5;" width="261.1885" x="1046.5" y="158.5"/><ellipse cx="1061.5" cy="174.5" fill="#ADD1B2" rx="11" ry="11" style="stroke:#181818;stroke-width:1;"/><path d="M1064.4688,180.1406 Q1063.8906,180.4375 1063.25,180.5781 Q1062.6094,180.7344 1061.9063,180.7344 Q1059.4063,180.7344 1058.0781,179.0938 Q1056.7656,177.4375 1056.7656,174.3125 Q1056.7656,171.1875 1058.0781,169.5313 Q1059.4063,167.875 1061.9063,167.875 Q1062.6094,167.875 1063.25,168.0313 Q1063.9063,168.1875 1064.4688,168.4844 L1064.4688,171.2031 Q1063.8438,170.625 1063.25,170.3594 Q1062.6563,170.0781 1062.0313,170.0781 Q1060.6875,170.0781 1060,171.1563 Q1059.3125,172.2188 1059.3125,174.3125 Q1059.3125,176.4063 1060,177.4844 Q1060.6875,178.5469 1062.0313,178.5469 Q1062.6563,178.5469 1063.25,178.2813 Q1063.8438,178 1064.4688,177.4219 L1064.4688,180.1406 Z " fill="#000000"/><text fill="#000000" font-family="sans-serif" font-size="14" lengthAdjust="spacing" textLength="229.1885" x="1075.5" y="179.3467">logic_arc_int__baselibs__promise</text><line style="stroke:#181818;stroke-width:0.5;" x1="1047.5" x2="1306.6885" y1="190.5" y2="190.5"/></g><!--link Feature_User to logic_arc_int__baselibs__condition_variable--><g id="link_Feature_User_logic_arc_int__baselibs__condition_variable"><path codeLine="14" d="M3027.96,46.05 C2849.95,52.31 2178.19,76.99 1626,111.5 C1360.36,128.1 1294.06,134.38 1029,158.5 C1023.4,159.01 1023.6837,158.979 1017.9337,159.519 " fill="transparent" id="Feature_User-to-logic_arc_int__baselibs__condition_variable" style="stroke:#181818;stroke-width:1;"/><polygon fill="#181818" points="1011.96,160.08,1021.2946,163.221,1016.9381,159.6125,1020.5466,155.256,1011.96,160.08" style="stroke:#181818;stroke-width:1;"/><text fill="#000000" font-family="sans-serif" font-size="13" lengthAdjust="spacing" textLength="23.0103" x="1627" y="124.5669">use</text></g><!--reverse link logic_arc_int__baselibs__utils_scoped_op to comp_arc_sta__baselibs__utils--><g id="link_logic_arc_int__baselibs__utils_scoped_op_comp_arc_sta__baselibs__utils"><path codeLine="16" d="M4366.2506,202.1252 C4397.5406,223.4152 4442.69,254.14 4473.9,275.38 " fill="transparent" id="logic_arc_int__baselibs__utils_scoped_op-backto-comp_arc_sta__baselibs__utils" style="stroke:#181818;stroke-width:1;"/><polygon fill="#181818" points="4361.29,198.75,4366.4808,207.1199,4365.4238,201.5627,4370.9811,200.5058,4361.29,198.75" style="stroke:#181818;stroke-width:1;"/><text fill="#000000" font-family="sans-serif" font-size="13" lengthAdjust="spacing" textLength="76.9082" x="4428" y="241.5669">implements</text></g><!--link Feature_User to logic_arc_int__baselibs__utils_base64--><g id="link_Feature_User_logic_arc_int__baselibs__utils_base64"><path codeLine="17" d="M3118.29,47.5 C3295.83,59.39 3961.41,105.14 4508,158.5 C4513.85,159.07 4513.8426,159.0455 4519.8626,159.6755 " fill="transparent" id="Feature_User-to-logic_arc_int__baselibs__utils_base64" style="stroke:#181818;stroke-width:1;"/><polygon fill="#181818" points="4525.83,160.3,4517.2952,155.385,4520.8572,159.7796,4516.4626,163.3415,4525.83,160.3" style="stroke:#181818;stroke-width:1;"/><text fill="#000000" font-family="sans-serif" font-size="13" lengthAdjust="spacing" textLength="23.0103" x="4155" y="124.5669">use</text></g><!--link Feature_User to logic_arc_int__baselibs__synchronized_queue--><g id="link_Feature_User_logic_arc_int__baselibs__synchronized_queue"><path codeLine="18" d="M3027.88,53.75 C2922.45,75.35 2664.0878,128.2953 2522.6478,157.2853 " fill="transparent" id="Feature_User-to-logic_arc_int__baselibs__synchronized_queue" style="stroke:#181818;stroke-width:1;"/><polygon fill="#181818" points="2516.77,158.49,2526.3899,160.6014,2521.6682,157.4861,2524.7836,152.7644,2516.77,158.49" style="stroke:#181818;stroke-width:1;"/><text fill="#000000" font-family="sans-serif" font-size="13" lengthAdjust="spacing" textLength="23.0103" x="2730" y="124.5669">use</text></g><!--link Feature_User to logic_arc_int__baselibs__bit_mask_operator--><g id="link_Feature_User_logic_arc_int__baselibs__bit_mask_operator"><path codeLine="19" d="M3118.03,45.79 C3318.02,51.62 4145.96,76.69 4825,111.5 C5150.13,128.17 5231.57,131.42 5556,158.5 C5561.63,158.97 5561.3841,158.9224 5567.1641,159.4424 " fill="transparent" id="Feature_User-to-logic_arc_int__baselibs__bit_mask_operator" style="stroke:#181818;stroke-width:1;"/><polygon fill="#181818" points="5573.14,159.98,5564.5346,155.1897,5568.1601,159.532,5563.8178,163.1575,5573.14,159.98" style="stroke:#181818;stroke-width:1;"/><text fill="#000000" font-family="sans-serif" font-size="13" lengthAdjust="spacing" textLength="23.0103" x="5142" y="124.5669">use</text></g><!--link Feature_User to logic_arc_int__baselibs__intrusive_list--><g id="link_Feature_User_logic_arc_int__baselibs__intrusive_list"><path codeLine="20" d="M3027.92,45.75 C2829.49,51.37 2013.91,75.56 1345,111.5 C1040.72,127.85 964.43,130.51 661,158.5 C655.29,159.03 655.4409,159 649.5709,159.58 " fill="transparent" id="Feature_User-to-logic_arc_int__baselibs__intrusive_list" style="stroke:#181818;stroke-width:1;"/><polygon fill="#181818" points="643.6,160.17,652.9497,163.2657,648.5758,159.6784,652.1631,155.3044,643.6,160.17" style="stroke:#181818;stroke-width:1;"/><text fill="#000000" font-family="sans-serif" font-size="13" lengthAdjust="spacing" textLength="23.0103" x="1346" y="124.5669">use</text></g><!--reverse link logic_arc_int__baselibs__bit_mask_operator to comp_arc_sta__baselibs__bit_manipulation--><g id="link_logic_arc_int__baselibs__bit_mask_operator_comp_arc_sta__baselibs__bit_manipulation"><path codeLine="21" d="M5701.1051,201.664 C5662.7851,222.954 5606.65,254.14 5568.42,275.38 " fill="transparent" id="logic_arc_int__baselibs__bit_mask_operator-backto-comp_arc_sta__baselibs__bit_manipulation" style="stroke:#181818;stroke-width:1;"/><polygon fill="#181818" points="5706.35,198.75,5696.54,199.6244,5701.9793,201.1783,5700.4253,206.6175,5706.35,198.75" style="stroke:#181818;stroke-width:1;"/><text fill="#000000" font-family="sans-serif" font-size="13" lengthAdjust="spacing" textLength="76.9082" x="5650" y="241.5669">implements</text></g><!--reverse link logic_arc_int__baselibs__executor to comp_arc_sta__baselibs__concurrency--><g id="link_logic_arc_int__baselibs__executor_comp_arc_sta__baselibs__concurrency"><path codeLine="22" d="M1841.6057,202.51 C1868.0057,223.74 1905.56,253.94 1931.99,275.19 " fill="transparent" id="logic_arc_int__baselibs__executor-backto-comp_arc_sta__baselibs__concurrency" style="stroke:#181818;stroke-width:1;"/><polygon fill="#181818" points="1836.93,198.75,1841.4368,207.5072,1840.8264,201.8834,1846.4502,201.2729,1836.93,198.75" style="stroke:#181818;stroke-width:1;"/><text fill="#000000" font-family="sans-serif" font-size="13" lengthAdjust="spacing" textLength="76.9082" x="1895" y="241.5669">implements</text></g><!--link Feature_User to logic_arc_int__baselibs__result--><g id="link_Feature_User_logic_arc_int__baselibs__result"><path codeLine="23" d="M3118.09,53.96 C3221.7,75.69 3472.5478,128.3182 3610.3178,157.2182 " fill="transparent" id="Feature_User-to-logic_arc_int__baselibs__result" style="stroke:#181818;stroke-width:1;"/><polygon fill="#181818" points="3616.19,158.45,3608.2029,152.6875,3611.2965,157.4235,3606.5605,160.5171,3616.19,158.45" style="stroke:#181818;stroke-width:1;"/><text fill="#000000" font-family="sans-serif" font-size="13" lengthAdjust="spacing" textLength="23.0103" x="3466" y="124.5669">use</text></g><!--reverse link logic_arc_int__baselibs__shared_future to comp_arc_sta__baselibs__concurrency--><g id="link_logic_arc_int__baselibs__shared_future_comp_arc_sta__baselibs__concurrency"><path codeLine="24" d="M1576.3723,199.9994 C1661.8923,221.2894 1793.72,254.11 1879.3,275.41 " fill="transparent" id="logic_arc_int__baselibs__shared_future-backto-comp_arc_sta__baselibs__concurrency" style="stroke:#181818;stroke-width:1;"/><polygon fill="#181818" points="1570.55,198.55,1578.3171,204.6057,1575.4019,199.7579,1580.2497,196.8426,1570.55,198.55" style="stroke:#181818;stroke-width:1;"/><text fill="#000000" font-family="sans-serif" font-size="13" lengthAdjust="spacing" textLength="76.9082" x="1754" y="241.5669">implements</text></g><!--reverse link logic_arc_int__baselibs__json to comp_arc_sta__baselibs__json--><g id="link_logic_arc_int__baselibs__json_comp_arc_sta__baselibs__json"><path codeLine="25" d="M6060,204.75 C6060,225.98 6060,253.94 6060,275.19 " fill="transparent" id="logic_arc_int__baselibs__json-backto-comp_arc_sta__baselibs__json" style="stroke:#181818;stroke-width:1;"/><polygon fill="#181818" points="6060,198.75,6056,207.75,6060,203.75,6064,207.75,6060,198.75" style="stroke:#181818;stroke-width:1;"/><text fill="#000000" font-family="sans-serif" font-size="13" lengthAdjust="spacing" textLength="76.9082" x="6061" y="241.5669">implements</text></g><!--link Feature_User to logic_arc_int__baselibs__json--><g id="link_Feature_User_logic_arc_int__baselibs__json"><path codeLine="26" d="M3118.11,45.43 C3341.25,50.12 4349.24,72.58 5174,111.5 C5508.5,127.28 5592.85,124.52 5926,158.5 C5931.73,159.08 5931.6305,159.0342 5937.5405,159.7242 " fill="transparent" id="Feature_User-to-logic_arc_int__baselibs__json" style="stroke:#181818;stroke-width:1;"/><polygon fill="#181818" points="5943.5,160.42,5935.0246,155.4033,5938.5337,159.8402,5934.0969,163.3493,5943.5,160.42" style="stroke:#181818;stroke-width:1;"/><text fill="#000000" font-family="sans-serif" font-size="13" lengthAdjust="spacing" textLength="23.0103" x="5551" y="124.5669">use</text></g><!--link Feature_User to logic_arc_int__baselibs__future--><g id="link_Feature_User_logic_arc_int__baselibs__future"><path codeLine="27" d="M3073,81.55 C3073,106.45 3073,132.26 3073,152.26 " fill="transparent" id="Feature_User-to-logic_arc_int__baselibs__future" style="stroke:#181818;stroke-width:1;"/><polygon fill="#181818" points="3073,158.26,3077,149.26,3073,153.26,3069,149.26,3073,158.26" style="stroke:#181818;stroke-width:1;"/><text fill="#000000" font-family="sans-serif" font-size="13" lengthAdjust="spacing" textLength="23.0103" x="3074" y="124.5669">use</text></g><!--link Feature_User to logic_arc_int__baselibs__bit_manipulation--><g id="link_Feature_User_logic_arc_int__baselibs__bit_manipulation"><path codeLine="28" d="M3118.33,45.84 C3343.64,52.73 4365.34,86.68 5199,158.5 C5204.57,158.98 5204.2646,158.9477 5209.9946,159.4677 " fill="transparent" id="Feature_User-to-logic_arc_int__baselibs__bit_manipulation" style="stroke:#181818;stroke-width:1;"/><polygon fill="#181818" points="5215.97,160.01,5207.3683,155.213,5210.9905,159.5581,5206.6453,163.1802,5215.97,160.01" style="stroke:#181818;stroke-width:1;"/><text fill="#000000" font-family="sans-serif" font-size="13" lengthAdjust="spacing" textLength="23.0103" x="4793" y="124.5669">use</text></g><!--reverse link logic_arc_int__baselibs__condition_variable to comp_arc_sta__baselibs__concurrency--><g id="link_logic_arc_int__baselibs__condition_variable_comp_arc_sta__baselibs__concurrency"><path codeLine="29" d="M1007.6878,199.2404 C1123.0078,212.9904 1277.69,230.93 1419,245.5 C1549.49,258.95 1698.02,272.36 1805.74,281.74 " fill="transparent" id="logic_arc_int__baselibs__condition_variable-backto-comp_arc_sta__baselibs__concurrency" style="stroke:#181818;stroke-width:1;"/><polygon fill="#181818" points="1001.73,198.53,1010.1931,203.5674,1006.6948,199.122,1011.1403,195.6237,1001.73,198.53" style="stroke:#181818;stroke-width:1;"/><text fill="#000000" font-family="sans-serif" font-size="13" lengthAdjust="spacing" textLength="76.9082" x="1420" y="241.5669">implements</text></g><!--link Feature_User to logic_arc_int__baselibs__memory_shared--><g id="link_Feature_User_logic_arc_int__baselibs__memory_shared"><path codeLine="30" d="M3118.22,63.41 C3178.58,88.66 3279.3446,130.8049 3339.8846,156.1249 " fill="transparent" id="Feature_User-to-logic_arc_int__baselibs__memory_shared" style="stroke:#181818;stroke-width:1;"/><polygon fill="#181818" points="3345.42,158.44,3338.6603,151.2771,3340.8072,156.5108,3335.5735,158.6576,3345.42,158.44" style="stroke:#181818;stroke-width:1;"/><text fill="#000000" font-family="sans-serif" font-size="13" lengthAdjust="spacing" textLength="23.0103" x="3270" y="124.5669">use</text></g><!--link Feature_User to logic_arc_int__baselibs__executor--><g id="link_Feature_User_logic_arc_int__baselibs__executor"><path codeLine="31" d="M3027.76,48.76 C2876.72,63.06 2376.07,111.13 1963,158.5 C1957.52,159.13 1957.8983,159.0734 1952.2483,159.7434 " fill="transparent" id="Feature_User-to-logic_arc_int__baselibs__executor" style="stroke:#181818;stroke-width:1;"/><polygon fill="#181818" points="1946.29,160.45,1955.6984,163.3623,1951.2552,159.8612,1954.7563,155.418,1946.29,160.45" style="stroke:#181818;stroke-width:1;"/><text fill="#000000" font-family="sans-serif" font-size="13" lengthAdjust="spacing" textLength="23.0103" x="2390" y="124.5669">use</text></g><!--reverse link logic_arc_int__baselibs__message_passing to comp_arc_sta__baselibs__message_passing--><g id="link_logic_arc_int__baselibs__message_passing_comp_arc_sta__baselibs__message_passing"><path codeLine="32" d="M5017,204.75 C5017,225.98 5017,253.94 5017,275.19 " fill="transparent" id="logic_arc_int__baselibs__message_passing-backto-comp_arc_sta__baselibs__message_passing" style="stroke:#181818;stroke-width:1;"/><polygon fill="#181818" points="5017,198.75,5013,207.75,5017,203.75,5021,207.75,5017,198.75" style="stroke:#181818;stroke-width:1;"/><text fill="#000000" font-family="sans-serif" font-size="13" lengthAdjust="spacing" textLength="76.9082" x="5018" y="241.5669">implements</text></g><!--reverse link logic_arc_int__baselibs__dynamic_array to comp_arc_sta__baselibs__containers--><g id="link_logic_arc_int__baselibs__dynamic_array_comp_arc_sta__baselibs__containers"><path codeLine="33" d="M189.2496,202.5422 C215.2796,223.7722 252.26,253.94 278.32,275.19 " fill="transparent" id="logic_arc_int__baselibs__dynamic_array-backto-comp_arc_sta__baselibs__containers" style="stroke:#181818;stroke-width:1;"/><polygon fill="#181818" points="184.6,198.75,189.0463,207.5381,188.4747,201.9102,194.1026,201.3386,184.6,198.75" style="stroke:#181818;stroke-width:1;"/><text fill="#000000" font-family="sans-serif" font-size="13" lengthAdjust="spacing" textLength="76.9082" x="241" y="241.5669">implements</text></g><!--link Feature_User to logic_arc_int__baselibs__utils_scoped_op--><g id="link_Feature_User_logic_arc_int__baselibs__utils_scoped_op"><path codeLine="34" d="M3118.22,49.2 C3267,64.65 3754.73,115.42 4158,158.5 C4163.62,159.1 4163.3741,159.0712 4169.1641,159.6912 " fill="transparent" id="Feature_User-to-logic_arc_int__baselibs__utils_scoped_op" style="stroke:#181818;stroke-width:1;"/><polygon fill="#181818" points="4175.13,160.33,4166.607,155.3945,4170.1584,159.7976,4165.7553,163.349,4175.13,160.33" style="stroke:#181818;stroke-width:1;"/><text fill="#000000" font-family="sans-serif" font-size="13" lengthAdjust="spacing" textLength="23.0103" x="3861" y="124.5669">use</text></g><!--reverse link logic_arc_int__baselibs__filesystem to comp_arc_sta__baselibs__filesystem--><g id="link_logic_arc_int__baselibs__filesystem_comp_arc_sta__baselibs__filesystem"><path codeLine="35" d="M4003.9777,204.7317 C4005.6377,225.9617 4007.83,253.94 4009.49,275.19 " fill="transparent" id="logic_arc_int__baselibs__filesystem-backto-comp_arc_sta__baselibs__filesystem" style="stroke:#181818;stroke-width:1;"/><polygon fill="#181818" points="4003.51,198.75,4000.2238,208.0344,4003.8998,203.7348,4008.1994,207.4108,4003.51,198.75" style="stroke:#181818;stroke-width:1;"/><text fill="#000000" font-family="sans-serif" font-size="13" lengthAdjust="spacing" textLength="76.9082" x="4008" y="241.5669">implements</text></g><!--reverse link logic_arc_int__baselibs__result to comp_arc_sta__baselibs__result--><g id="link_logic_arc_int__baselibs__result_comp_arc_sta__baselibs__result"><path codeLine="36" d="M3707,204.75 C3707,225.98 3707,253.94 3707,275.19 " fill="transparent" id="logic_arc_int__baselibs__result-backto-comp_arc_sta__baselibs__result" style="stroke:#181818;stroke-width:1;"/><polygon fill="#181818" points="3707,198.75,3703,207.75,3707,203.75,3711,207.75,3707,198.75" style="stroke:#181818;stroke-width:1;"/><text fill="#000000" font-family="sans-serif" font-size="13" lengthAdjust="spacing" textLength="76.9082" x="3708" y="241.5669">implements</text></g><!--reverse link logic_arc_int__baselibs__bit_manipulation to comp_arc_sta__baselibs__bit_manipulation--><g id="link_logic_arc_int__baselibs__bit_manipulation_comp_arc_sta__baselibs__bit_manipulation"><path codeLine="37" d="M5408.1207,202.2951 C5437.1907,223.5851 5478.9,254.14 5507.9,275.38 " fill="transparent" id="logic_arc_int__baselibs__bit_manipulation-backto-comp_arc_sta__baselibs__bit_manipulation" style="stroke:#181818;stroke-width:1;"/><polygon fill="#181818" points="5403.28,198.75,5408.1775,207.2948,5407.3139,201.7043,5412.9044,200.8406,5403.28,198.75" style="stroke:#181818;stroke-width:1;"/><text fill="#000000" font-family="sans-serif" font-size="13" lengthAdjust="spacing" textLength="76.9082" x="5465" y="241.5669">implements</text></g><!--reverse link logic_arc_int__baselibs__memory_shared to comp_arc_sta__baselibs__memory_shared--><g id="link_logic_arc_int__baselibs__memory_shared_comp_arc_sta__baselibs__memory_shared"><path codeLine="38" d="M3389.0223,204.7317 C3387.3623,225.9617 3385.17,253.94 3383.51,275.19 " fill="transparent" id="logic_arc_int__baselibs__memory_shared-backto-comp_arc_sta__baselibs__memory_shared" style="stroke:#181818;stroke-width:1;"/><polygon fill="#181818" points="3389.49,198.75,3384.8006,207.4108,3389.1002,203.7348,3392.7762,208.0344,3389.49,198.75" style="stroke:#181818;stroke-width:1;"/><text fill="#000000" font-family="sans-serif" font-size="13" lengthAdjust="spacing" textLength="76.9082" x="3388" y="241.5669">implements</text></g><!--reverse link logic_arc_int__baselibs__future to comp_arc_sta__baselibs__concurrency--><g id="link_logic_arc_int__baselibs__future_comp_arc_sta__baselibs__concurrency"><path codeLine="39" d="M2943.2778,197.1155 C2937.4478,197.8555 2937.64,197.81 2932,198.5 C2640.24,233.99 2298.16,265.27 2106.3,281.88 " fill="transparent" id="logic_arc_int__baselibs__future-backto-comp_arc_sta__baselibs__concurrency" style="stroke:#181818;stroke-width:1;"/><polygon fill="#181818" points="2949.23,196.36,2939.798,193.5251,2944.2698,196.9896,2940.8053,201.4614,2949.23,196.36" style="stroke:#181818;stroke-width:1;"/><text fill="#000000" font-family="sans-serif" font-size="13" lengthAdjust="spacing" textLength="76.9082" x="2665" y="241.5669">implements</text></g><!--reverse link logic_arc_int__baselibs__task_result to comp_arc_sta__baselibs__concurrency--><g id="link_logic_arc_int__baselibs__task_result_comp_arc_sta__baselibs__concurrency"><path codeLine="40" d="M2632.5285,199.3855 C2480.9885,220.6955 2242.96,254.16 2091.46,275.46 " fill="transparent" id="logic_arc_int__baselibs__task_result-backto-comp_arc_sta__baselibs__concurrency" style="stroke:#181818;stroke-width:1;"/><polygon fill="#181818" points="2638.47,198.55,2629.0007,195.8422,2633.5187,199.2463,2630.1147,203.7643,2638.47,198.55" style="stroke:#181818;stroke-width:1;"/><text fill="#000000" font-family="sans-serif" font-size="13" lengthAdjust="spacing" textLength="76.9082" x="2414" y="241.5669">implements</text></g><!--reverse link logic_arc_int__baselibs__utils_base64 to comp_arc_sta__baselibs__utils--><g id="link_logic_arc_int__baselibs__utils_base64_comp_arc_sta__baselibs__utils"><path codeLine="41" d="M4638.5799,202.1113 C4607.0999,223.4013 4561.66,254.14 4530.26,275.38 " fill="transparent" id="logic_arc_int__baselibs__utils_base64-backto-comp_arc_sta__baselibs__utils" style="stroke:#181818;stroke-width:1;"/><polygon fill="#181818" points="4643.55,198.75,4633.854,200.4785,4639.4083,201.5511,4638.3357,207.1053,4643.55,198.75" style="stroke:#181818;stroke-width:1;"/><text fill="#000000" font-family="sans-serif" font-size="13" lengthAdjust="spacing" textLength="76.9082" x="4598" y="241.5669">implements</text></g><!--reverse link logic_arc_int__baselibs__task to comp_arc_sta__baselibs__concurrency--><g id="link_logic_arc_int__baselibs__task_comp_arc_sta__baselibs__concurrency"><path codeLine="42" d="M2069.5676,202.5265 C2043.3576,223.7565 2006.09,253.94 1979.85,275.19 " fill="transparent" id="logic_arc_int__baselibs__task-backto-comp_arc_sta__baselibs__concurrency" style="stroke:#181818;stroke-width:1;"/><polygon fill="#181818" points="2074.23,198.75,2064.7187,201.3065,2070.3447,201.8971,2069.7541,207.523,2074.23,198.75" style="stroke:#181818;stroke-width:1;"/><text fill="#000000" font-family="sans-serif" font-size="13" lengthAdjust="spacing" textLength="76.9082" x="2037" y="241.5669">implements</text></g><!--link Feature_User to logic_arc_int__baselibs__task--><g id="link_Feature_User_logic_arc_int__baselibs__task"><path codeLine="43" d="M3027.92,50.54 C2902.12,67.41 2536.6,116.54 2233,158.5 C2227.14,159.31 2227.0718,159.3066 2221.0118,160.1566 " fill="transparent" id="Feature_User-to-logic_arc_int__baselibs__task" style="stroke:#181818;stroke-width:1;"/><polygon fill="#181818" points="2215.07,160.99,2224.5384,163.7011,2220.0215,160.2955,2223.4271,155.7786,2215.07,160.99" style="stroke:#181818;stroke-width:1;"/><text fill="#000000" font-family="sans-serif" font-size="13" lengthAdjust="spacing" textLength="23.0103" x="2557" y="124.5669">use</text></g><!--link Feature_User to logic_arc_int__baselibs__task_result--><g id="link_Feature_User_logic_arc_int__baselibs__task_result"><path codeLine="44" d="M3027.91,64.56 C2970.81,89.95 2878.6124,130.9722 2822.5024,155.9222 " fill="transparent" id="Feature_User-to-logic_arc_int__baselibs__task_result" style="stroke:#181818;stroke-width:1;"/><polygon fill="#181818" points="2817.02,158.36,2826.8689,158.3582,2821.5887,156.3285,2823.6184,151.0483,2817.02,158.36" style="stroke:#181818;stroke-width:1;"/><text fill="#000000" font-family="sans-serif" font-size="13" lengthAdjust="spacing" textLength="23.0103" x="2915" y="124.5669">use</text></g><!--link Feature_User to logic_arc_int__baselibs__shared_future--><g id="link_Feature_User_logic_arc_int__baselibs__shared_future"><path codeLine="45" d="M3027.86,47.52 C2852.39,59.39 2198.78,104.84 1662,158.5 C1656.45,159.05 1656.7682,159.0133 1651.0582,159.6033 " fill="transparent" id="Feature_User-to-logic_arc_int__baselibs__shared_future" style="stroke:#181818;stroke-width:1;"/><polygon fill="#181818" points="1645.09,160.22,1654.4535,163.2738,1650.0635,159.7061,1653.6312,155.3162,1645.09,160.22" style="stroke:#181818;stroke-width:1;"/><text fill="#000000" font-family="sans-serif" font-size="13" lengthAdjust="spacing" textLength="23.0103" x="2166" y="124.5669">use</text></g><!--link Feature_User to logic_arc_int__baselibs__filesystem--><g id="link_Feature_User_logic_arc_int__baselibs__filesystem"><path codeLine="46" d="M3118.12,50.96 C3253.02,70.27 3651.0606,127.2597 3862.9806,157.5997 " fill="transparent" id="Feature_User-to-logic_arc_int__baselibs__filesystem" style="stroke:#181818;stroke-width:1;"/><polygon fill="#181818" points="3868.92,158.45,3860.5777,153.2149,3863.9705,157.7414,3859.444,161.1341,3868.92,158.45" style="stroke:#181818;stroke-width:1;"/><text fill="#000000" font-family="sans-serif" font-size="13" lengthAdjust="spacing" textLength="23.0103" x="3649" y="124.5669">use</text></g><!--link Feature_User to logic_arc_int__baselibs__dynamic_array--><g id="link_Feature_User_logic_arc_int__baselibs__dynamic_array"><path codeLine="47" d="M3027.84,45.33 C2806.61,49.55 1815.16,69.97 1004,111.5 C705.44,126.79 630.74,131.64 333,158.5 C327.17,159.03 327.1922,159.0027 321.1922,159.5827 " fill="transparent" id="Feature_User-to-logic_arc_int__baselibs__dynamic_array" style="stroke:#181818;stroke-width:1;"/><polygon fill="#181818" points="315.22,160.16,324.5631,163.2755,320.1968,159.6789,323.7934,155.3126,315.22,160.16" style="stroke:#181818;stroke-width:1;"/><text fill="#000000" font-family="sans-serif" font-size="13" lengthAdjust="spacing" textLength="23.0103" x="1005" y="124.5669">use</text></g><!--link Feature_User to logic_arc_int__baselibs__promise--><g id="link_Feature_User_logic_arc_int__baselibs__promise"><path codeLine="48" d="M3027.67,46.3 C2827.22,54.5 2000.56,90.88 1325,158.5 C1319.33,159.07 1319.5044,159.0275 1313.6544,159.6675 " fill="transparent" id="Feature_User-to-logic_arc_int__baselibs__promise" style="stroke:#181818;stroke-width:1;"/><polygon fill="#181818" points="1307.69,160.32,1317.0716,163.3175,1312.6603,159.7762,1316.2016,155.3649,1307.69,160.32" style="stroke:#181818;stroke-width:1;"/><text fill="#000000" font-family="sans-serif" font-size="13" lengthAdjust="spacing" textLength="23.0103" x="1854" y="124.5669">use</text></g><!--reverse link logic_arc_int__baselibs__intrusive_list to comp_arc_sta__baselibs__containers--><g id="link_logic_arc_int__baselibs__intrusive_list_comp_arc_sta__baselibs__containers"><path codeLine="49" d="M459.1918,201.7979 C423.0918,223.0879 370.44,254.14 334.42,275.38 " fill="transparent" id="logic_arc_int__baselibs__intrusive_list-backto-comp_arc_sta__baselibs__containers" style="stroke:#181818;stroke-width:1;"/><polygon fill="#181818" points="464.36,198.75,454.5758,199.8765,460.0532,201.2899,458.6397,206.7674,464.36,198.75" style="stroke:#181818;stroke-width:1;"/><text fill="#000000" font-family="sans-serif" font-size="13" lengthAdjust="spacing" textLength="76.9082" x="413" y="241.5669">implements</text></g><!--reverse link logic_arc_int__baselibs__promise to comp_arc_sta__baselibs__concurrency--><g id="link_logic_arc_int__baselibs__promise_comp_arc_sta__baselibs__concurrency"><path codeLine="50" d="M1306.1707,199.4093 C1393.2407,212.7593 1506.77,230.02 1612,245.5 C1680.64,255.59 1757.02,266.51 1820.35,275.47 " fill="transparent" id="logic_arc_int__baselibs__promise-backto-comp_arc_sta__baselibs__concurrency" style="stroke:#181818;stroke-width:1;"/><polygon fill="#181818" points="1300.24,198.5,1308.5298,203.8178,1305.1822,199.2578,1309.7423,195.9102,1300.24,198.5" style="stroke:#181818;stroke-width:1;"/><text fill="#000000" font-family="sans-serif" font-size="13" lengthAdjust="spacing" textLength="76.9082" x="1613" y="241.5669">implements</text></g><!--reverse link logic_arc_int__baselibs__synchronized_queue to comp_arc_sta__baselibs__concurrency--><g id="link_logic_arc_int__baselibs__synchronized_queue_comp_arc_sta__baselibs__concurrency"><path codeLine="51" d="M2340.6333,199.9818 C2253.9933,221.2718 2120.39,254.11 2033.69,275.41 " fill="transparent" id="logic_arc_int__baselibs__synchronized_queue-backto-comp_arc_sta__baselibs__concurrency" style="stroke:#181818;stroke-width:1;"/><polygon fill="#181818" points="2346.46,198.55,2336.7655,196.8132,2341.6044,199.7432,2338.6745,204.5821,2346.46,198.55" style="stroke:#181818;stroke-width:1;"/><text fill="#000000" font-family="sans-serif" font-size="13" lengthAdjust="spacing" textLength="76.9082" x="2219" y="241.5669">implements</text></g><!--link Feature_User to logic_arc_int__baselibs__message_passing--><g id="link_Feature_User_logic_arc_int__baselibs__message_passing"><path codeLine="52" d="M3118.01,46.62 C3318.85,56.23 4153.17,97.95 4836,158.5 C4841.51,158.99 4841.1362,158.9396 4846.7862,159.4696 " fill="transparent" id="Feature_User-to-logic_arc_int__baselibs__message_passing" style="stroke:#181818;stroke-width:1;"/><polygon fill="#181818" points="4852.76,160.03,4844.1729,155.2069,4847.7819,159.563,4843.4258,163.172,4852.76,160.03" style="stroke:#181818;stroke-width:1;"/><text fill="#000000" font-family="sans-serif" font-size="13" lengthAdjust="spacing" textLength="23.0103" x="4451" y="124.5669">use</text></g><!--SRC=[hLPDZzCm4BtxLrXxxu8Guh1QxGM94qSuMuupsmxhZ-0PBniG_nsdIMbJkaqSSdGoN-zvvesrjU67SlY2VYiuD9A3h09pSBB628OnUB736YGnH0ZSDj2VmJNSIiqSiKeC9Ew9MmiFubOJsah-4f_HmyTWGvGHwltfomxDamSY-UxshVWjxjyCFa8RpdOtdq1pYY2_4iGRgKaE7rJtGOhHQLDl7gGDMpHAHwFGirAL9h1OaL8c-1gxwjMpZgWh2tSo4KWXJ73DteDOdteaHajoawv5tTieCg61MeNcJg9hB3ZmJ4NLzN6wyuVtGrq5tjHwiul1uyzSnVS42SfZLCZAQNhAA23gJ7vvY7oCYV0Pb4NYmVyrTljy7fjaTNSj4qHVAE-KwjUov5itAKRmffr802zWqZzn2z17e6IdKC-lXtOwJubwJ5t-UM2_qIIDdSbYXBrpQLSS42nho6E3hCRi9ILOo8W35s8xt5Kvn6FFNONcia3gBQX64sLPde1tPZrxJbXdGOvJWbUtNhlzhwZR_vIx4zcyYlyHBL2RzusRAEveE0zrFx8JGGzpFIVW8b4xRV4vIKPDDzaCemPTLp9Bj6b-LEvKleJq-Nlwi5_NBtZn9FJEfS8nugZujJ3UBCLwVZ9afRvdwb7gtiJWa61w4ypJilFtohfjyRVOTSDUUkijtbvdcs9Fwny0]--></g></svg>