<svg xmlns="http://www.w3.org/2000/svg" xmlns:xlink="http://www.w3.org/1999/xlink" contentStyleType="text/css" data-diagram-type="DESCRIPTION" height="70px" preserveAspectRatio="none" style="width:595px;height:70px;background:#FFFFFF;" version="1.1" viewBox="0 0 595 70" width="595px" zoomAndPan="magnify"><defs/><g><!--entity ModuleRepo--><g id="elem_ModuleRepo"><polygon fill="#F1F1F1" points="16,17.3608,26,7.3608,147.1504,7.3608,147.1504,43.6577,137.1504,53.6577,16,53.6577,16,17.3608" style="stroke:#181818;stroke-width:0.5;"/><line style="stroke:#181818;stroke-width:0.5;" x1="137.1504" x2="147.1504" y1="17.3608" y2="7.3608"/><line style="stroke:#181818;stroke-width:0.5;" x1="16" x2="137.1504" y1="17.3608" y2="17.3608"/><line style="stroke:#181818;stroke-width:0.5;" x1="137.1504" x2="137.1504" y1="17.3608" y2="53.6577"/><text fill="#000000" font-family="sans-serif" font-size="14" lengthAdjust="spacing" textLength="91.1504" x="31" y="40.3559">Module Repo</text></g><!--entity gh_pages--><g id="elem_gh_pages"><polygon fill="#F1F1F1" points="215,17.3608,225,7.3608,379.585,7.3608,379.585,43.6577,369.585,53.6577,215,53.6577,215,17.3608" style="stroke:#181818;stroke-width:0.5;"/><line style="stroke:#181818;stroke-width:0.5;" x1="369.585" x2="379.585" y1="17.3608" y2="7.3608"/><line style="stroke:#181818;stroke-width:0.5;" x1="215" x2="369.585" y1="17.3608" y2="17.3608"/><line style="stroke:#181818;stroke-width:0.5;" x1="369.585" x2="369.585" y1="17.3608" y2="53.6577"/><text fill="#000000" font-family="sans-serif" font-size="14" lengthAdjust="spacing" textLength="124.585" x="230" y="40.3559">.gh_pages branch</text></g><!--entity GitHubPages--><g id="elem_GitHubPages"><path d="M471.9187,16.7729 C475.9307,10.7204 482.5776,9.8787 486.6813,16.6674 C488.952,10.4821 494.7697,7.6075 499.7486,13.8109 C503.2307,8.3718 508.808,7.94 512.477,13.5964 C517.6232,6.9138 522.5317,6 527.3293,13.9503 C530.8837,7.1813 536.8022,7.3776 540.7194,13.5756 C545.6411,8.9819 549.5557,9.2721 552.6577,15.5702 C557.7462,9.4648 562.2868,7.417 567.6389,15.2877 C572.969,9.7334 577.9006,10.8531 581.2521,17.4959 C587.6907,21.233 588.7011,26.8633 582.0413,31.3468 C588.0988,36.1558 588.0061,41.468 581.8227,46.0956 C578.1599,53.8591 571.1572,54.0961 567.179,46.3943 C563.2164,53.8545 559.1326,53.4951 554.1285,47.3968 C550.7607,54.0616 543.723,54.3729 539.3131,48.6424 C535.9113,54.46 531.6012,55.0563 526.7904,50.3132 C521.226,55.4263 516.6068,55.2895 512.887,48.2098 C508.9999,54.3689 503.8989,55.9165 499.2087,49.0534 C494.3914,55.9528 488.2115,54.8762 485.161,47.3347 C481.4281,53.1013 475.8053,54.0922 472.3049,47.1003 C462.057,44.9972 460.1782,39.2472 465.1069,30.5454 C460.6152,23.1532 463.206,17.6343 471.9187,16.7729 " fill="#F1F1F1" style="stroke:#181818;stroke-width:0.5;"/><text fill="#000000" font-family="sans-serif" font-size="14" lengthAdjust="spacing" textLength="94.7803" x="478" y="35.3559">GitHub Pages</text></g><!--link ModuleRepo to gh_pages--><g id="link_ModuleRepo_gh_pages"><path d="M147.19,30.3608 C168.54,30.3608 186.5,30.3608 208.92,30.3608 " fill="transparent" id="ModuleRepo-to-gh_pages" style="stroke:#181818;stroke-width:1;"/><polygon fill="#181818" points="214.92,30.3608,205.92,26.3608,209.92,30.3608,205.92,34.3608,214.92,30.3608" style="stroke:#181818;stroke-width:1;"/><text fill="#000000" font-family="sans-serif" font-size="13" lengthAdjust="spacing" textLength="31.9668" x="165.5" y="23.4277">build</text></g><!--link gh_pages to GitHubPages--><g id="link_gh_pages_GitHubPages"><path d="M380.14,30.3608 C407.41,30.3608 431.28,30.3608 456.81,30.3608 " fill="transparent" id="gh_pages-to-GitHubPages" style="stroke:#181818;stroke-width:1;"/><polygon fill="#181818" points="462.81,30.3608,453.81,26.3608,457.81,30.3608,453.81,34.3608,462.81,30.3608" style="stroke:#181818;stroke-width:1;"/><text fill="#000000" font-family="sans-serif" font-size="13" lengthAdjust="spacing" textLength="46.979" x="398.5" y="23.4277">publish</text></g><!--SRC=[JOmn3eGW44NxESNFz7e0YstNniJi1Gm84H82P77kxuBHjNnltf-OZ0LFoKYm-DYS6AhWv8eKMz1lRibgimNwg-BgMdKvMaCI0txxVHIDkReMdA8nqVydkjUznG3MueDXkjNl_5ZM8eiElZW-0000]--></g></svg>