<svg xmlns="http://www.w3.org/2000/svg" xmlns:xlink="http://www.w3.org/1999/xlink" contentStyleType="text/css" data-diagram-type="DESCRIPTION" height="65px" preserveAspectRatio="none" style="width:373px;height:65px;background:#FFFFFF;" version="1.1" viewBox="0 0 373 65" width="373px" zoomAndPan="magnify"><defs/><g><!--entity ModuleRepo--><g id="elem_ModuleRepo"><rect fill="#F1F1F1" height="32.2969" rx="2.5" ry="2.5" style="stroke:#181818;stroke-width:0.5;" width="114.4443" x="11" y="16.66"/><rect fill="#F1F1F1" height="32.2969" rx="2.5" ry="2.5" style="stroke:#181818;stroke-width:0.5;" width="114.4443" x="7" y="12.66"/><text fill="#000000" font-family="sans-serif" font-size="14" lengthAdjust="spacing" textLength="98.4443" x="15" y="33.6551">Module Repos</text></g><!--entity webspace--><g id="elem_webspace"><path d="M269.0308,17.2114 C271.6679,11.6491 276.8628,10.209 281.3103,15.0808 C285.4377,7.856 290.7493,9.2792 295.0592,14.8853 C299.5149,6 305.0219,7.0293 310.8357,13.4889 C315.1351,8.6389 320.8579,9.3592 323.2663,15.607 C327.7804,9.46 334.721,10.1519 338.2147,16.7993 C342.0172,9.5598 349.2772,9.0103 353.068,16.8109 C362.7287,16.7802 364.7873,24.3185 361.0519,31.5462 C366.1657,40.2161 363.4037,47.6192 352.3786,47.5335 C349.5903,55.3016 342.9208,56.0555 338.2777,49.3393 C335.077,56.8547 328.6377,57.2773 324.5302,50.1933 C321.2998,57.1604 315.208,57.7653 310.0606,52.4521 C305.0571,57.9001 299.0688,58.2112 296.2591,50.2022 C290.5927,55.7378 285.6388,56.0396 281.7167,48.2924 C277.3251,54.2027 270.8403,53.2843 267.5053,47.0554 C258.2022,45.2459 254.0759,41.2421 259.7028,31.7977 C255.7983,23.4603 260.4409,17.5586 269.0308,17.2114 " fill="#F1F1F1" style="stroke:#181818;stroke-width:0.5;"/><text fill="#000000" font-family="sans-serif" font-size="14" lengthAdjust="spacing" textLength="70.0205" x="274" y="35.6551">webspace</text></g><!--link ModuleRepo to webspace--><g id="link_ModuleRepo_webspace"><path d="M125.13,30.66 C166.02,30.66 213.82,30.66 252.65,30.66 " fill="transparent" id="ModuleRepo-to-webspace" style="stroke:#181818;stroke-width:1;"/><polygon fill="#181818" points="258.65,30.66,249.65,26.66,253.65,30.66,249.65,34.66,258.65,30.66" style="stroke:#181818;stroke-width:1;"/><text fill="#000000" font-family="sans-serif" font-size="13" lengthAdjust="spacing" textLength="97.3477" x="143.5" y="23.7268">build &amp; publish</text></g><!--SRC=[IyxFoKbDBidCpojMKFBDJodDILK8IYt8BrPII2nMW0Y0-5p9EVcbAGhbgKd51Od9gLnS22a5NJkuk8ALWb9IQMPEYeAQGa5fKavcSOOI0000]--></g></svg>