<svg xmlns="http://www.w3.org/2000/svg" xmlns:xlink="http://www.w3.org/1999/xlink" contentStyleType="text/css" data-diagram-type="CLASS" height="322px" preserveAspectRatio="none" style="width:6201px;height:322px;background:#FFFFFF;" version="1.1" viewBox="0 0 6201 322" width="6201px" zoomAndPan="magnify"><defs/><g><!--entity Feature_User--><g id="elem_Feature_User"><ellipse cx="3058.6685" cy="14" fill="#F1F1F1" rx="8" ry="8" style="stroke:#181818;stroke-width:0.5;"/><path d="M3058.6685,22 L3058.6685,49 M3045.6685,30 L3071.6685,30 M3058.6685,49 L3045.6685,64 M3058.6685,49 L3071.6685,64 " fill="transparent" style="stroke:#181818;stroke-width:0.5;"/><text fill="#000000" font-family="sans-serif" font-size="14" lengthAdjust="spacing" textLength="90.3369" x="3013.5" y="78.4951">Feature User</text></g><!--class logic_arc_int__baselibs__bit_mask_operator--><g id="elem_logic_arc_int__baselibs__bit_mask_operator"><rect fill="#F1F1F1" height="40" id="logic_arc_int__baselibs__bit_mask_operator" rx="2.5" ry="2.5" style="stroke:#181818;stroke-width:0.5;" width="334.6406" x="4177" y="158.5"/><ellipse cx="4192" cy="174.5" fill="#ADD1B2" rx="11" ry="11" style="stroke:#181818;stroke-width:1;"/><path d="M4194.9688,180.1406 Q4194.3906,180.4375 4193.75,180.5781 Q4193.1094,180.7344 4192.4063,180.7344 Q4189.9063,180.7344 4188.5781,179.0938 Q4187.2656,177.4375 4187.2656,174.3125 Q4187.2656,171.1875 4188.5781,169.5313 Q4189.9063,167.875 4192.4063,167.875 Q4193.1094,167.875 4193.75,168.0313 Q4194.4063,168.1875 4194.9688,168.4844 L4194.9688,171.2031 Q4194.3438,170.625 4193.75,170.3594 Q4193.1563,170.0781 4192.5313,170.0781 Q4191.1875,170.0781 4190.5,171.1563 Q4189.8125,172.2188 4189.8125,174.3125 Q4189.8125,176.4063 4190.5,177.4844 Q4191.1875,178.5469 4192.5313,178.5469 Q4193.1563,178.5469 4193.75,178.2813 Q4194.3438,178 4194.9688,177.4219 L4194.9688,180.1406 Z " fill="#000000"/><text fill="#000000" font-family="sans-serif" font-size="14" lengthAdjust="spacing" textLength="302.6406" x="4206" y="179.3467">logic_arc_int__baselibs__bit_mask_operator</text><line style="stroke:#181818;stroke-width:0.5;" x1="4178" x2="4510.6406" y1="190.5" y2="190.5"/></g><!--class logic_arc_int__baselibs__shared_future--><g id="elem_logic_arc_int__baselibs__shared_future"><rect fill="#F1F1F1" height="40" id="logic_arc_int__baselibs__shared_future" rx="2.5" ry="2.5" style="stroke:#181818;stroke-width:0.5;" width="302.0811" x="2004.5" y="158.5"/><ellipse cx="2019.5" cy="174.5" fill="#ADD1B2" rx="11" ry="11" style="stroke:#181818;stroke-width:1;"/><path d="M2022.4688,180.1406 Q2021.8906,180.4375 2021.25,180.5781 Q2020.6094,180.7344 2019.9063,180.7344 Q2017.4063,180.7344 2016.0781,179.0938 Q2014.7656,177.4375 2014.7656,174.3125 Q2014.7656,171.1875 2016.0781,169.5313 Q2017.4063,167.875 2019.9063,167.875 Q2020.6094,167.875 2021.25,168.0313 Q2021.9063,168.1875 2022.4688,168.4844 L2022.4688,171.2031 Q2021.8438,170.625 2021.25,170.3594 Q2020.6563,170.0781 2020.0313,170.0781 Q2018.6875,170.0781 2018,171.1563 Q2017.3125,172.2188 2017.3125,174.3125 Q2017.3125,176.4063 2018,177.4844 Q2018.6875,178.5469 2020.0313,178.5469 Q2020.6563,178.5469 2021.25,178.2813 Q2021.8438,178 2022.4688,177.4219 L2022.4688,180.1406 Z " fill="#000000"/><text fill="#000000" font-family="sans-serif" font-size="14" lengthAdjust="spacing" textLength="270.0811" x="2033.5" y="179.3467">logic_arc_int__baselibs__shared_future</text><line style="stroke:#181818;stroke-width:0.5;" x1="2005.5" x2="2305.5811" y1="190.5" y2="190.5"/></g><!--class logic_arc_int__baselibs__executor--><g id="elem_logic_arc_int__baselibs__executor"><rect fill="#F1F1F1" height="40" id="logic_arc_int__baselibs__executor" rx="2.5" ry="2.5" style="stroke:#181818;stroke-width:0.5;" width="266.4385" x="3607.5" y="158.5"/><ellipse cx="3622.5" cy="174.5" fill="#ADD1B2" rx="11" ry="11" style="stroke:#181818;stroke-width:1;"/><path d="M3625.4688,180.1406 Q3624.8906,180.4375 3624.25,180.5781 Q3623.6094,180.7344 3622.9063,180.7344 Q3620.4063,180.7344 3619.0781,179.0938 Q3617.7656,177.4375 3617.7656,174.3125 Q3617.7656,171.1875 3619.0781,169.5313 Q3620.4063,167.875 3622.9063,167.875 Q3623.6094,167.875 3624.25,168.0313 Q3624.9063,168.1875 3625.4688,168.4844 L3625.4688,171.2031 Q3624.8438,170.625 3624.25,170.3594 Q3623.6563,170.0781 3623.0313,170.0781 Q3621.6875,170.0781 3621,171.1563 Q3620.3125,172.2188 3620.3125,174.3125 Q3620.3125,176.4063 3621,177.4844 Q3621.6875,178.5469 3623.0313,178.5469 Q3623.6563,178.5469 3624.25,178.2813 Q3624.8438,178 3625.4688,177.4219 L3625.4688,180.1406 Z " fill="#000000"/><text fill="#000000" font-family="sans-serif" font-size="14" lengthAdjust="spacing" textLength="234.4385" x="3636.5" y="179.3467">logic_arc_int__baselibs__executor</text><line style="stroke:#181818;stroke-width:0.5;" x1="3608.5" x2="3872.9385" y1="190.5" y2="190.5"/></g><!--class logic_arc_int__baselibs__promise--><g id="elem_logic_arc_int__baselibs__promise"><rect fill="#F1F1F1" height="40" id="logic_arc_int__baselibs__promise" rx="2.5" ry="2.5" style="stroke:#181818;stroke-width:0.5;" width="261.1885" x="2928" y="158.5"/><ellipse cx="2943" cy="174.5" fill="#ADD1B2" rx="11" ry="11" style="stroke:#181818;stroke-width:1;"/><path d="M2945.9688,180.1406 Q2945.3906,180.4375 2944.75,180.5781 Q2944.1094,180.7344 2943.4063,180.7344 Q2940.9063,180.7344 2939.5781,179.0938 Q2938.2656,177.4375 2938.2656,174.3125 Q2938.2656,171.1875 2939.5781,169.5313 Q2940.9063,167.875 2943.4063,167.875 Q2944.1094,167.875 2944.75,168.0313 Q2945.4063,168.1875 2945.9688,168.4844 L2945.9688,171.2031 Q2945.3438,170.625 2944.75,170.3594 Q2944.1563,170.0781 2943.5313,170.0781 Q2942.1875,170.0781 2941.5,171.1563 Q2940.8125,172.2188 2940.8125,174.3125 Q2940.8125,176.4063 2941.5,177.4844 Q2942.1875,178.5469 2943.5313,178.5469 Q2944.1563,178.5469 2944.75,178.2813 Q2945.3438,178 2945.9688,177.4219 L2945.9688,180.1406 Z " fill="#000000"/><text fill="#000000" font-family="sans-serif" font-size="14" lengthAdjust="spacing" textLength="229.1885" x="2957" y="179.3467">logic_arc_int__baselibs__promise</text><line style="stroke:#181818;stroke-width:0.5;" x1="2929" x2="3188.1885" y1="190.5" y2="190.5"/></g><!--class logic_arc_int__baselibs__utils_base64--><g id="elem_logic_arc_int__baselibs__utils_base64"><rect fill="#F1F1F1" height="40" id="logic_arc_int__baselibs__utils_base64" rx="2.5" ry="2.5" style="stroke:#181818;stroke-width:0.5;" width="292.1689" x="673.5" y="158.5"/><ellipse cx="688.5" cy="174.5" fill="#ADD1B2" rx="11" ry="11" style="stroke:#181818;stroke-width:1;"/><path d="M691.4688,180.1406 Q690.8906,180.4375 690.25,180.5781 Q689.6094,180.7344 688.9063,180.7344 Q686.4063,180.7344 685.0781,179.0938 Q683.7656,177.4375 683.7656,174.3125 Q683.7656,171.1875 685.0781,169.5313 Q686.4063,167.875 688.9063,167.875 Q689.6094,167.875 690.25,168.0313 Q690.9063,168.1875 691.4688,168.4844 L691.4688,171.2031 Q690.8438,170.625 690.25,170.3594 Q689.6563,170.0781 689.0313,170.0781 Q687.6875,170.0781 687,171.1563 Q686.3125,172.2188 686.3125,174.3125 Q686.3125,176.4063 687,177.4844 Q687.6875,178.5469 689.0313,178.5469 Q689.6563,178.5469 690.25,178.2813 Q690.8438,178 691.4688,177.4219 L691.4688,180.1406 Z " fill="#000000"/><text fill="#000000" font-family="sans-serif" font-size="14" lengthAdjust="spacing" textLength="260.1689" x="702.5" y="179.3467">logic_arc_int__baselibs__utils_base64</text><line style="stroke:#181818;stroke-width:0.5;" x1="674.5" x2="964.6689" y1="190.5" y2="190.5"/></g><!--class comp_arc_sta__baselibs__message_passing--><g id="elem_comp_arc_sta__baselibs__message_passing"><rect fill="#F1F1F1" height="40" id="comp_arc_sta__baselibs__message_passing" rx="2.5" ry="2.5" style="stroke:#181818;stroke-width:0.5;" width="337.1357" x="5857" y="275.5"/><ellipse cx="5872" cy="291.5" fill="#ADD1B2" rx="11" ry="11" style="stroke:#181818;stroke-width:1;"/><path d="M5874.9688,297.1406 Q5874.3906,297.4375 5873.75,297.5781 Q5873.1094,297.7344 5872.4063,297.7344 Q5869.9063,297.7344 5868.5781,296.0938 Q5867.2656,294.4375 5867.2656,291.3125 Q5867.2656,288.1875 5868.5781,286.5313 Q5869.9063,284.875 5872.4063,284.875 Q5873.1094,284.875 5873.75,285.0313 Q5874.4063,285.1875 5874.9688,285.4844 L5874.9688,288.2031 Q5874.3438,287.625 5873.75,287.3594 Q5873.1563,287.0781 5872.5313,287.0781 Q5871.1875,287.0781 5870.5,288.1563 Q5869.8125,289.2188 5869.8125,291.3125 Q5869.8125,293.4063 5870.5,294.4844 Q5871.1875,295.5469 5872.5313,295.5469 Q5873.1563,295.5469 5873.75,295.2813 Q5874.3438,295 5874.9688,294.4219 L5874.9688,297.1406 Z " fill="#000000"/><text fill="#000000" font-family="sans-serif" font-size="14" lengthAdjust="spacing" textLength="305.1357" x="5886" y="296.3467">comp_arc_sta__baselibs__message_passing</text><line style="stroke:#181818;stroke-width:0.5;" x1="5858" x2="6193.1357" y1="307.5" y2="307.5"/></g><!--class logic_arc_int__baselibs__message_passing--><g id="elem_logic_arc_int__baselibs__message_passing"><rect fill="#F1F1F1" height="40" id="logic_arc_int__baselibs__message_passing" rx="2.5" ry="2.5" style="stroke:#181818;stroke-width:0.5;" width="328.167" x="5859.5" y="158.5"/><ellipse cx="5874.5" cy="174.5" fill="#ADD1B2" rx="11" ry="11" style="stroke:#181818;stroke-width:1;"/><path d="M5877.4688,180.1406 Q5876.8906,180.4375 5876.25,180.5781 Q5875.6094,180.7344 5874.9063,180.7344 Q5872.4063,180.7344 5871.0781,179.0938 Q5869.7656,177.4375 5869.7656,174.3125 Q5869.7656,171.1875 5871.0781,169.5313 Q5872.4063,167.875 5874.9063,167.875 Q5875.6094,167.875 5876.25,168.0313 Q5876.9063,168.1875 5877.4688,168.4844 L5877.4688,171.2031 Q5876.8438,170.625 5876.25,170.3594 Q5875.6563,170.0781 5875.0313,170.0781 Q5873.6875,170.0781 5873,171.1563 Q5872.3125,172.2188 5872.3125,174.3125 Q5872.3125,176.4063 5873,177.4844 Q5873.6875,178.5469 5875.0313,178.5469 Q5875.6563,178.5469 5876.25,178.2813 Q5876.8438,178 5877.4688,177.4219 L5877.4688,180.1406 Z " fill="#000000"/><text fill="#000000" font-family="sans-serif" font-size="14" lengthAdjust="spacing" textLength="296.167" x="5888.5" y="179.3467">logic_arc_int__baselibs__message_passing</text><line style="stroke:#181818;stroke-width:0.5;" x1="5860.5" x2="6186.667" y1="190.5" y2="190.5"/></g><!--class logic_arc_int__baselibs__future--><g id="elem_logic_arc_int__baselibs__future"><rect fill="#F1F1F1" height="40" id="logic_arc_int__baselibs__future" rx="2.5" ry="2.5" style="stroke:#181818;stroke-width:0.5;" width="247.0791" x="1354" y="158.5"/><ellipse cx="1369" cy="174.5" fill="#ADD1B2" rx="11" ry="11" style="stroke:#181818;stroke-width:1;"/><path d="M1371.9688,180.1406 Q1371.3906,180.4375 1370.75,180.5781 Q1370.1094,180.7344 1369.4063,180.7344 Q1366.9063,180.7344 1365.5781,179.0938 Q1364.2656,177.4375 1364.2656,174.3125 Q1364.2656,171.1875 1365.5781,169.5313 Q1366.9063,167.875 1369.4063,167.875 Q1370.1094,167.875 1370.75,168.0313 Q1371.4063,168.1875 1371.9688,168.4844 L1371.9688,171.2031 Q1371.3438,170.625 1370.75,170.3594 Q1370.1563,170.0781 1369.5313,170.0781 Q1368.1875,170.0781 1367.5,171.1563 Q1366.8125,172.2188 1366.8125,174.3125 Q1366.8125,176.4063 1367.5,177.4844 Q1368.1875,178.5469 1369.5313,178.5469 Q1370.1563,178.5469 1370.75,178.2813 Q1371.3438,178 1371.9688,177.4219 L1371.9688,180.1406 Z " fill="#000000"/><text fill="#000000" font-family="sans-serif" font-size="14" lengthAdjust="spacing" textLength="215.0791" x="1383" y="179.3467">logic_arc_int__baselibs__future</text><line style="stroke:#181818;stroke-width:0.5;" x1="1355" x2="1600.0791" y1="190.5" y2="190.5"/></g><!--class comp_arc_sta__baselibs__concurrency--><g id="elem_comp_arc_sta__baselibs__concurrency"><rect fill="#F1F1F1" height="40" id="comp_arc_sta__baselibs__concurrency" rx="2.5" ry="2.5" style="stroke:#181818;stroke-width:0.5;" width="300.2012" x="2435.5" y="275.5"/><ellipse cx="2450.5" cy="291.5" fill="#ADD1B2" rx="11" ry="11" style="stroke:#181818;stroke-width:1;"/><path d="M2453.4688,297.1406 Q2452.8906,297.4375 2452.25,297.5781 Q2451.6094,297.7344 2450.9063,297.7344 Q2448.4063,297.7344 2447.0781,296.0938 Q2445.7656,294.4375 2445.7656,291.3125 Q2445.7656,288.1875 2447.0781,286.5313 Q2448.4063,284.875 2450.9063,284.875 Q2451.6094,284.875 2452.25,285.0313 Q2452.9063,285.1875 2453.4688,285.4844 L2453.4688,288.2031 Q2452.8438,287.625 2452.25,287.3594 Q2451.6563,287.0781 2451.0313,287.0781 Q2449.6875,287.0781 2449,288.1563 Q2448.3125,289.2188 2448.3125,291.3125 Q2448.3125,293.4063 2449,294.4844 Q2449.6875,295.5469 2451.0313,295.5469 Q2451.6563,295.5469 2452.25,295.2813 Q2452.8438,295 2453.4688,294.4219 L2453.4688,297.1406 Z " fill="#000000"/><text fill="#000000" font-family="sans-serif" font-size="14" lengthAdjust="spacing" textLength="268.2012" x="2464.5" y="296.3467">comp_arc_sta__baselibs__concurrency</text><line style="stroke:#181818;stroke-width:0.5;" x1="2436.5" x2="2734.7012" y1="307.5" y2="307.5"/></g><!--class logic_arc_int__baselibs__condition_variable--><g id="elem_logic_arc_int__baselibs__condition_variable"><rect fill="#F1F1F1" height="40" id="logic_arc_int__baselibs__condition_variable" rx="2.5" ry="2.5" style="stroke:#181818;stroke-width:0.5;" width="332.7539" x="1636" y="158.5"/><ellipse cx="1651" cy="174.5" fill="#ADD1B2" rx="11" ry="11" style="stroke:#181818;stroke-width:1;"/><path d="M1653.9688,180.1406 Q1653.3906,180.4375 1652.75,180.5781 Q1652.1094,180.7344 1651.4063,180.7344 Q1648.9063,180.7344 1647.5781,179.0938 Q1646.2656,177.4375 1646.2656,174.3125 Q1646.2656,171.1875 1647.5781,169.5313 Q1648.9063,167.875 1651.4063,167.875 Q1652.1094,167.875 1652.75,168.0313 Q1653.4063,168.1875 1653.9688,168.4844 L1653.9688,171.2031 Q1653.3438,170.625 1652.75,170.3594 Q1652.1563,170.0781 1651.5313,170.0781 Q1650.1875,170.0781 1649.5,171.1563 Q1648.8125,172.2188 1648.8125,174.3125 Q1648.8125,176.4063 1649.5,177.4844 Q1650.1875,178.5469 1651.5313,178.5469 Q1652.1563,178.5469 1652.75,178.2813 Q1653.3438,178 1653.9688,177.4219 L1653.9688,180.1406 Z " fill="#000000"/><text fill="#000000" font-family="sans-serif" font-size="14" lengthAdjust="spacing" textLength="300.7539" x="1665" y="179.3467">logic_arc_int__baselibs__condition_variable</text><line style="stroke:#181818;stroke-width:0.5;" x1="1637" x2="1967.7539" y1="190.5" y2="190.5"/></g><!--class comp_arc_sta__baselibs__bit_manipulation--><g id="elem_comp_arc_sta__baselibs__bit_manipulation"><rect fill="#F1F1F1" height="40" id="comp_arc_sta__baselibs__bit_manipulation" rx="2.5" ry="2.5" style="stroke:#181818;stroke-width:0.5;" width="330.8057" x="4332" y="275.5"/><ellipse cx="4347" cy="291.5" fill="#ADD1B2" rx="11" ry="11" style="stroke:#181818;stroke-width:1;"/><path d="M4349.9688,297.1406 Q4349.3906,297.4375 4348.75,297.5781 Q4348.1094,297.7344 4347.4063,297.7344 Q4344.9063,297.7344 4343.5781,296.0938 Q4342.2656,294.4375 4342.2656,291.3125 Q4342.2656,288.1875 4343.5781,286.5313 Q4344.9063,284.875 4347.4063,284.875 Q4348.1094,284.875 4348.75,285.0313 Q4349.4063,285.1875 4349.9688,285.4844 L4349.9688,288.2031 Q4349.3438,287.625 4348.75,287.3594 Q4348.1563,287.0781 4347.5313,287.0781 Q4346.1875,287.0781 4345.5,288.1563 Q4344.8125,289.2188 4344.8125,291.3125 Q4344.8125,293.4063 4345.5,294.4844 Q4346.1875,295.5469 4347.5313,295.5469 Q4348.1563,295.5469 4348.75,295.2813 Q4349.3438,295 4349.9688,294.4219 L4349.9688,297.1406 Z " fill="#000000"/><text fill="#000000" font-family="sans-serif" font-size="14" lengthAdjust="spacing" textLength="298.8057" x="4361" y="296.3467">comp_arc_sta__baselibs__bit_manipulation</text><line style="stroke:#181818;stroke-width:0.5;" x1="4333" x2="4661.8057" y1="307.5" y2="307.5"/></g><!--class logic_arc_int__baselibs__bit_manipulation--><g id="elem_logic_arc_int__baselibs__bit_manipulation"><rect fill="#F1F1F1" height="40" id="logic_arc_int__baselibs__bit_manipulation" rx="2.5" ry="2.5" style="stroke:#181818;stroke-width:0.5;" width="321.8369" x="4547.5" y="158.5"/><ellipse cx="4562.5" cy="174.5" fill="#ADD1B2" rx="11" ry="11" style="stroke:#181818;stroke-width:1;"/><path d="M4565.4688,180.1406 Q4564.8906,180.4375 4564.25,180.5781 Q4563.6094,180.7344 4562.9063,180.7344 Q4560.4063,180.7344 4559.0781,179.0938 Q4557.7656,177.4375 4557.7656,174.3125 Q4557.7656,171.1875 4559.0781,169.5313 Q4560.4063,167.875 4562.9063,167.875 Q4563.6094,167.875 4564.25,168.0313 Q4564.9063,168.1875 4565.4688,168.4844 L4565.4688,171.2031 Q4564.8438,170.625 4564.25,170.3594 Q4563.6563,170.0781 4563.0313,170.0781 Q4561.6875,170.0781 4561,171.1563 Q4560.3125,172.2188 4560.3125,174.3125 Q4560.3125,176.4063 4561,177.4844 Q4561.6875,178.5469 4563.0313,178.5469 Q4563.6563,178.5469 4564.25,178.2813 Q4564.8438,178 4565.4688,177.4219 L4565.4688,180.1406 Z " fill="#000000"/><text fill="#000000" font-family="sans-serif" font-size="14" lengthAdjust="spacing" textLength="289.8369" x="4576.5" y="179.3467">logic_arc_int__baselibs__bit_manipulation</text><line style="stroke:#181818;stroke-width:0.5;" x1="4548.5" x2="4868.3369" y1="190.5" y2="190.5"/></g><!--class logic_arc_int__baselibs__synchronized_queue--><g id="elem_logic_arc_int__baselibs__synchronized_queue"><rect fill="#F1F1F1" height="40" id="logic_arc_int__baselibs__synchronized_queue" rx="2.5" ry="2.5" style="stroke:#181818;stroke-width:0.5;" width="348.3604" x="3224.5" y="158.5"/><ellipse cx="3239.5" cy="174.5" fill="#ADD1B2" rx="11" ry="11" style="stroke:#181818;stroke-width:1;"/><path d="M3242.4688,180.1406 Q3241.8906,180.4375 3241.25,180.5781 Q3240.6094,180.7344 3239.9063,180.7344 Q3237.4063,180.7344 3236.0781,179.0938 Q3234.7656,177.4375 3234.7656,174.3125 Q3234.7656,171.1875 3236.0781,169.5313 Q3237.4063,167.875 3239.9063,167.875 Q3240.6094,167.875 3241.25,168.0313 Q3241.9063,168.1875 3242.4688,168.4844 L3242.4688,171.2031 Q3241.8438,170.625 3241.25,170.3594 Q3240.6563,170.0781 3240.0313,170.0781 Q3238.6875,170.0781 3238,171.1563 Q3237.3125,172.2188 3237.3125,174.3125 Q3237.3125,176.4063 3238,177.4844 Q3238.6875,178.5469 3240.0313,178.5469 Q3240.6563,178.5469 3241.25,178.2813 Q3241.8438,178 3242.4688,177.4219 L3242.4688,180.1406 Z " fill="#000000"/><text fill="#000000" font-family="sans-serif" font-size="14" lengthAdjust="spacing" textLength="316.3604" x="3253.5" y="179.3467">logic_arc_int__baselibs__synchronized_queue</text><line style="stroke:#181818;stroke-width:0.5;" x1="3225.5" x2="3571.8604" y1="190.5" y2="190.5"/></g><!--class comp_arc_sta__baselibs__result--><g id="elem_comp_arc_sta__baselibs__result"><rect fill="#F1F1F1" height="40" id="comp_arc_sta__baselibs__result" rx="2.5" ry="2.5" style="stroke:#181818;stroke-width:0.5;" width="253.4297" x="5569" y="275.5"/><ellipse cx="5584" cy="291.5" fill="#ADD1B2" rx="11" ry="11" style="stroke:#181818;stroke-width:1;"/><path d="M5586.9688,297.1406 Q5586.3906,297.4375 5585.75,297.5781 Q5585.1094,297.7344 5584.4063,297.7344 Q5581.9063,297.7344 5580.5781,296.0938 Q5579.2656,294.4375 5579.2656,291.3125 Q5579.2656,288.1875 5580.5781,286.5313 Q5581.9063,284.875 5584.4063,284.875 Q5585.1094,284.875 5585.75,285.0313 Q5586.4063,285.1875 5586.9688,285.4844 L5586.9688,288.2031 Q5586.3438,287.625 5585.75,287.3594 Q5585.1563,287.0781 5584.5313,287.0781 Q5583.1875,287.0781 5582.5,288.1563 Q5581.8125,289.2188 5581.8125,291.3125 Q5581.8125,293.4063 5582.5,294.4844 Q5583.1875,295.5469 5584.5313,295.5469 Q5585.1563,295.5469 5585.75,295.2813 Q5586.3438,295 5586.9688,294.4219 L5586.9688,297.1406 Z " fill="#000000"/><text fill="#000000" font-family="sans-serif" font-size="14" lengthAdjust="spacing" textLength="221.4297" x="5598" y="296.3467">comp_arc_sta__baselibs__result</text><line style="stroke:#181818;stroke-width:0.5;" x1="5570" x2="5821.4297" y1="307.5" y2="307.5"/></g><!--class logic_arc_int__baselibs__result--><g id="elem_logic_arc_int__baselibs__result"><rect fill="#F1F1F1" height="40" id="logic_arc_int__baselibs__result" rx="2.5" ry="2.5" style="stroke:#181818;stroke-width:0.5;" width="244.4609" x="5576.5" y="158.5"/><ellipse cx="5591.5" cy="174.5" fill="#ADD1B2" rx="11" ry="11" style="stroke:#181818;stroke-width:1;"/><path d="M5594.4688,180.1406 Q5593.8906,180.4375 5593.25,180.5781 Q5592.6094,180.7344 5591.9063,180.7344 Q5589.4063,180.7344 5588.0781,179.0938 Q5586.7656,177.4375 5586.7656,174.3125 Q5586.7656,171.1875 5588.0781,169.5313 Q5589.4063,167.875 5591.9063,167.875 Q5592.6094,167.875 5593.25,168.0313 Q5593.9063,168.1875 5594.4688,168.4844 L5594.4688,171.2031 Q5593.8438,170.625 5593.25,170.3594 Q5592.6563,170.0781 5592.0313,170.0781 Q5590.6875,170.0781 5590,171.1563 Q5589.3125,172.2188 5589.3125,174.3125 Q5589.3125,176.4063 5590,177.4844 Q5590.6875,178.5469 5592.0313,178.5469 Q5592.6563,178.5469 5593.25,178.2813 Q5593.8438,178 5594.4688,177.4219 L5594.4688,180.1406 Z " fill="#000000"/><text fill="#000000" font-family="sans-serif" font-size="14" lengthAdjust="spacing" textLength="212.4609" x="5605.5" y="179.3467">logic_arc_int__baselibs__result</text><line style="stroke:#181818;stroke-width:0.5;" x1="5577.5" x2="5819.9609" y1="190.5" y2="190.5"/></g><!--class logic_arc_int__baselibs__memory_shared--><g id="elem_logic_arc_int__baselibs__memory_shared"><rect fill="#F1F1F1" height="40" id="logic_arc_int__baselibs__memory_shared" rx="2.5" ry="2.5" style="stroke:#181818;stroke-width:0.5;" width="318.043" x="1000.5" y="158.5"/><ellipse cx="1015.5" cy="174.5" fill="#ADD1B2" rx="11" ry="11" style="stroke:#181818;stroke-width:1;"/><path d="M1018.4688,180.1406 Q1017.8906,180.4375 1017.25,180.5781 Q1016.6094,180.7344 1015.9063,180.7344 Q1013.4063,180.7344 1012.0781,179.0938 Q1010.7656,177.4375 1010.7656,174.3125 Q1010.7656,171.1875 1012.0781,169.5313 Q1013.4063,167.875 1015.9063,167.875 Q1016.6094,167.875 1017.25,168.0313 Q1017.9063,168.1875 1018.4688,168.4844 L1018.4688,171.2031 Q1017.8438,170.625 1017.25,170.3594 Q1016.6563,170.0781 1016.0313,170.0781 Q1014.6875,170.0781 1014,171.1563 Q1013.3125,172.2188 1013.3125,174.3125 Q1013.3125,176.4063 1014,177.4844 Q1014.6875,178.5469 1016.0313,178.5469 Q1016.6563,178.5469 1017.25,178.2813 Q1017.8438,178 1018.4688,177.4219 L1018.4688,180.1406 Z " fill="#000000"/><text fill="#000000" font-family="sans-serif" font-size="14" lengthAdjust="spacing" textLength="286.043" x="1029.5" y="179.3467">logic_arc_int__baselibs__memory_shared</text><line style="stroke:#181818;stroke-width:0.5;" x1="1001.5" x2="1317.543" y1="190.5" y2="190.5"/></g><!--class comp_arc_sta__baselibs__containers--><g id="elem_comp_arc_sta__baselibs__containers"><rect fill="#F1F1F1" height="40" id="comp_arc_sta__baselibs__containers" rx="2.5" ry="2.5" style="stroke:#181818;stroke-width:0.5;" width="287.1445" x="5075" y="275.5"/><ellipse cx="5090" cy="291.5" fill="#ADD1B2" rx="11" ry="11" style="stroke:#181818;stroke-width:1;"/><path d="M5092.9688,297.1406 Q5092.3906,297.4375 5091.75,297.5781 Q5091.1094,297.7344 5090.4063,297.7344 Q5087.9063,297.7344 5086.5781,296.0938 Q5085.2656,294.4375 5085.2656,291.3125 Q5085.2656,288.1875 5086.5781,286.5313 Q5087.9063,284.875 5090.4063,284.875 Q5091.1094,284.875 5091.75,285.0313 Q5092.4063,285.1875 5092.9688,285.4844 L5092.9688,288.2031 Q5092.3438,287.625 5091.75,287.3594 Q5091.1563,287.0781 5090.5313,287.0781 Q5089.1875,287.0781 5088.5,288.1563 Q5087.8125,289.2188 5087.8125,291.3125 Q5087.8125,293.4063 5088.5,294.4844 Q5089.1875,295.5469 5090.5313,295.5469 Q5091.1563,295.5469 5091.75,295.2813 Q5092.3438,295 5092.9688,294.4219 L5092.9688,297.1406 Z " fill="#000000"/><text fill="#000000" font-family="sans-serif" font-size="14" lengthAdjust="spacing" textLength="255.1445" x="5104" y="296.3467">comp_arc_sta__baselibs__containers</text><line style="stroke:#181818;stroke-width:0.5;" x1="5076" x2="5361.1445" y1="307.5" y2="307.5"/></g><!--class logic_arc_int__baselibs__intrusive_list--><g id="elem_logic_arc_int__baselibs__intrusive_list"><rect fill="#F1F1F1" height="40" id="logic_arc_int__baselibs__intrusive_list" rx="2.5" ry="2.5" style="stroke:#181818;stroke-width:0.5;" width="293.0713" x="4905" y="158.5"/><ellipse cx="4920" cy="174.5" fill="#ADD1B2" rx="11" ry="11" style="stroke:#181818;stroke-width:1;"/><path d="M4922.9688,180.1406 Q4922.3906,180.4375 4921.75,180.5781 Q4921.1094,180.7344 4920.4063,180.7344 Q4917.9063,180.7344 4916.5781,179.0938 Q4915.2656,177.4375 4915.2656,174.3125 Q4915.2656,171.1875 4916.5781,169.5313 Q4917.9063,167.875 4920.4063,167.875 Q4921.1094,167.875 4921.75,168.0313 Q4922.4063,168.1875 4922.9688,168.4844 L4922.9688,171.2031 Q4922.3438,170.625 4921.75,170.3594 Q4921.1563,170.0781 4920.5313,170.0781 Q4919.1875,170.0781 4918.5,171.1563 Q4917.8125,172.2188 4917.8125,174.3125 Q4917.8125,176.4063 4918.5,177.4844 Q4919.1875,178.5469 4920.5313,178.5469 Q4921.1563,178.5469 4921.75,178.2813 Q4922.3438,178 4922.9688,177.4219 L4922.9688,180.1406 Z " fill="#000000"/><text fill="#000000" font-family="sans-serif" font-size="14" lengthAdjust="spacing" textLength="261.0713" x="4934" y="179.3467">logic_arc_int__baselibs__intrusive_list</text><line style="stroke:#181818;stroke-width:0.5;" x1="4906" x2="5197.0713" y1="190.5" y2="190.5"/></g><!--class logic_arc_int__baselibs__utils_scoped_op--><g id="elem_logic_arc_int__baselibs__utils_scoped_op"><rect fill="#F1F1F1" height="40" id="logic_arc_int__baselibs__utils_scoped_op" rx="2.5" ry="2.5" style="stroke:#181818;stroke-width:0.5;" width="315.377" x="323" y="158.5"/><ellipse cx="338" cy="174.5" fill="#ADD1B2" rx="11" ry="11" style="stroke:#181818;stroke-width:1;"/><path d="M340.9688,180.1406 Q340.3906,180.4375 339.75,180.5781 Q339.1094,180.7344 338.4063,180.7344 Q335.9063,180.7344 334.5781,179.0938 Q333.2656,177.4375 333.2656,174.3125 Q333.2656,171.1875 334.5781,169.5313 Q335.9063,167.875 338.4063,167.875 Q339.1094,167.875 339.75,168.0313 Q340.4063,168.1875 340.9688,168.4844 L340.9688,171.2031 Q340.3438,170.625 339.75,170.3594 Q339.1563,170.0781 338.5313,170.0781 Q337.1875,170.0781 336.5,171.1563 Q335.8125,172.2188 335.8125,174.3125 Q335.8125,176.4063 336.5,177.4844 Q337.1875,178.5469 338.5313,178.5469 Q339.1563,178.5469 339.75,178.2813 Q340.3438,178 340.9688,177.4219 L340.9688,180.1406 Z " fill="#000000"/><text fill="#000000" font-family="sans-serif" font-size="14" lengthAdjust="spacing" textLength="283.377" x="352" y="179.3467">logic_arc_int__baselibs__utils_scoped_op</text><line style="stroke:#181818;stroke-width:0.5;" x1="324" x2="637.377" y1="190.5" y2="190.5"/></g><!--class logic_arc_int__baselibs__task_result--><g id="elem_logic_arc_int__baselibs__task_result"><rect fill="#F1F1F1" height="40" id="logic_arc_int__baselibs__task_result" rx="2.5" ry="2.5" style="stroke:#181818;stroke-width:0.5;" width="280.9307" x="2342" y="158.5"/><ellipse cx="2357" cy="174.5" fill="#ADD1B2" rx="11" ry="11" style="stroke:#181818;stroke-width:1;"/><path d="M2359.9688,180.1406 Q2359.3906,180.4375 2358.75,180.5781 Q2358.1094,180.7344 2357.4063,180.7344 Q2354.9063,180.7344 2353.5781,179.0938 Q2352.2656,177.4375 2352.2656,174.3125 Q2352.2656,171.1875 2353.5781,169.5313 Q2354.9063,167.875 2357.4063,167.875 Q2358.1094,167.875 2358.75,168.0313 Q2359.4063,168.1875 2359.9688,168.4844 L2359.9688,171.2031 Q2359.3438,170.625 2358.75,170.3594 Q2358.1563,170.0781 2357.5313,170.0781 Q2356.1875,170.0781 2355.5,171.1563 Q2354.8125,172.2188 2354.8125,174.3125 Q2354.8125,176.4063 2355.5,177.4844 Q2356.1875,178.5469 2357.5313,178.5469 Q2358.1563,178.5469 2358.75,178.2813 Q2359.3438,178 2359.9688,177.4219 L2359.9688,180.1406 Z " fill="#000000"/><text fill="#000000" font-family="sans-serif" font-size="14" lengthAdjust="spacing" textLength="248.9307" x="2371" y="179.3467">logic_arc_int__baselibs__task_result</text><line style="stroke:#181818;stroke-width:0.5;" x1="2343" x2="2621.9307" y1="190.5" y2="190.5"/></g><!--class logic_arc_int__baselibs__dynamic_array--><g id="elem_logic_arc_int__baselibs__dynamic_array"><rect fill="#F1F1F1" height="40" id="logic_arc_int__baselibs__dynamic_array" rx="2.5" ry="2.5" style="stroke:#181818;stroke-width:0.5;" width="308.3496" x="5233.5" y="158.5"/><ellipse cx="5248.5" cy="174.5" fill="#ADD1B2" rx="11" ry="11" style="stroke:#181818;stroke-width:1;"/><path d="M5251.4688,180.1406 Q5250.8906,180.4375 5250.25,180.5781 Q5249.6094,180.7344 5248.9063,180.7344 Q5246.4063,180.7344 5245.0781,179.0938 Q5243.7656,177.4375 5243.7656,174.3125 Q5243.7656,171.1875 5245.0781,169.5313 Q5246.4063,167.875 5248.9063,167.875 Q5249.6094,167.875 5250.25,168.0313 Q5250.9063,168.1875 5251.4688,168.4844 L5251.4688,171.2031 Q5250.8438,170.625 5250.25,170.3594 Q5249.6563,170.0781 5249.0313,170.0781 Q5247.6875,170.0781 5247,171.1563 Q5246.3125,172.2188 5246.3125,174.3125 Q5246.3125,176.4063 5247,177.4844 Q5247.6875,178.5469 5249.0313,178.5469 Q5249.6563,178.5469 5250.25,178.2813 Q5250.8438,178 5251.4688,177.4219 L5251.4688,180.1406 Z " fill="#000000"/><text fill="#000000" font-family="sans-serif" font-size="14" lengthAdjust="spacing" textLength="276.3496" x="5262.5" y="179.3467">logic_arc_int__baselibs__dynamic_array</text><line style="stroke:#181818;stroke-width:0.5;" x1="5234.5" x2="5540.8496" y1="190.5" y2="190.5"/></g><!--class logic_arc_int__baselibs__filesystem--><g id="elem_logic_arc_int__baselibs__filesystem"><rect fill="#F1F1F1" height="40" id="logic_arc_int__baselibs__filesystem" rx="2.5" ry="2.5" style="stroke:#181818;stroke-width:0.5;" width="276.4805" x="11.5" y="158.5"/><ellipse cx="26.5" cy="174.5" fill="#ADD1B2" rx="11" ry="11" style="stroke:#181818;stroke-width:1;"/><path d="M29.4688,180.1406 Q28.8906,180.4375 28.25,180.5781 Q27.6094,180.7344 26.9063,180.7344 Q24.4063,180.7344 23.0781,179.0938 Q21.7656,177.4375 21.7656,174.3125 Q21.7656,171.1875 23.0781,169.5313 Q24.4063,167.875 26.9063,167.875 Q27.6094,167.875 28.25,168.0313 Q28.9063,168.1875 29.4688,168.4844 L29.4688,171.2031 Q28.8438,170.625 28.25,170.3594 Q27.6563,170.0781 27.0313,170.0781 Q25.6875,170.0781 25,171.1563 Q24.3125,172.2188 24.3125,174.3125 Q24.3125,176.4063 25,177.4844 Q25.6875,178.5469 27.0313,178.5469 Q27.6563,178.5469 28.25,178.2813 Q28.8438,178 29.4688,177.4219 L29.4688,180.1406 Z " fill="#000000"/><text fill="#000000" font-family="sans-serif" font-size="14" lengthAdjust="spacing" textLength="244.4805" x="40.5" y="179.3467">logic_arc_int__baselibs__filesystem</text><line style="stroke:#181818;stroke-width:0.5;" x1="12.5" x2="286.9805" y1="190.5" y2="190.5"/></g><!--class comp_arc_sta__baselibs__utils--><g id="elem_comp_arc_sta__baselibs__utils"><rect fill="#F1F1F1" height="40" id="comp_arc_sta__baselibs__utils" rx="2.5" ry="2.5" style="stroke:#181818;stroke-width:0.5;" width="242.9502" x="501" y="275.5"/><ellipse cx="516" cy="291.5" fill="#ADD1B2" rx="11" ry="11" style="stroke:#181818;stroke-width:1;"/><path d="M518.9688,297.1406 Q518.3906,297.4375 517.75,297.5781 Q517.1094,297.7344 516.4063,297.7344 Q513.9063,297.7344 512.5781,296.0938 Q511.2656,294.4375 511.2656,291.3125 Q511.2656,288.1875 512.5781,286.5313 Q513.9063,284.875 516.4063,284.875 Q517.1094,284.875 517.75,285.0313 Q518.4063,285.1875 518.9688,285.4844 L518.9688,288.2031 Q518.3438,287.625 517.75,287.3594 Q517.1563,287.0781 516.5313,287.0781 Q515.1875,287.0781 514.5,288.1563 Q513.8125,289.2188 513.8125,291.3125 Q513.8125,293.4063 514.5,294.4844 Q515.1875,295.5469 516.5313,295.5469 Q517.1563,295.5469 517.75,295.2813 Q518.3438,295 518.9688,294.4219 L518.9688,297.1406 Z " fill="#000000"/><text fill="#000000" font-family="sans-serif" font-size="14" lengthAdjust="spacing" textLength="210.9502" x="530" y="296.3467">comp_arc_sta__baselibs__utils</text><line style="stroke:#181818;stroke-width:0.5;" x1="502" x2="742.9502" y1="307.5" y2="307.5"/></g><!--class comp_arc_sta__baselibs__json--><g id="elem_comp_arc_sta__baselibs__json"><rect fill="#F1F1F1" height="40" id="comp_arc_sta__baselibs__json" rx="2.5" ry="2.5" style="stroke:#181818;stroke-width:0.5;" width="242.1367" x="3904.5" y="275.5"/><ellipse cx="3919.5" cy="291.5" fill="#ADD1B2" rx="11" ry="11" style="stroke:#181818;stroke-width:1;"/><path d="M3922.4688,297.1406 Q3921.8906,297.4375 3921.25,297.5781 Q3920.6094,297.7344 3919.9063,297.7344 Q3917.4063,297.7344 3916.0781,296.0938 Q3914.7656,294.4375 3914.7656,291.3125 Q3914.7656,288.1875 3916.0781,286.5313 Q3917.4063,284.875 3919.9063,284.875 Q3920.6094,284.875 3921.25,285.0313 Q3921.9063,285.1875 3922.4688,285.4844 L3922.4688,288.2031 Q3921.8438,287.625 3921.25,287.3594 Q3920.6563,287.0781 3920.0313,287.0781 Q3918.6875,287.0781 3918,288.1563 Q3917.3125,289.2188 3917.3125,291.3125 Q3917.3125,293.4063 3918,294.4844 Q3918.6875,295.5469 3920.0313,295.5469 Q3920.6563,295.5469 3921.25,295.2813 Q3921.8438,295 3922.4688,294.4219 L3922.4688,297.1406 Z " fill="#000000"/><text fill="#000000" font-family="sans-serif" font-size="14" lengthAdjust="spacing" textLength="210.1367" x="3933.5" y="296.3467">comp_arc_sta__baselibs__json</text><line style="stroke:#181818;stroke-width:0.5;" x1="3905.5" x2="4145.6367" y1="307.5" y2="307.5"/></g><!--class logic_arc_int__baselibs__json--><g id="elem_logic_arc_int__baselibs__json"><rect fill="#F1F1F1" height="40" id="logic_arc_int__baselibs__json" rx="2.5" ry="2.5" style="stroke:#181818;stroke-width:0.5;" width="233.168" x="3909" y="158.5"/><ellipse cx="3924" cy="174.5" fill="#ADD1B2" rx="11" ry="11" style="stroke:#181818;stroke-width:1;"/><path d="M3926.9688,180.1406 Q3926.3906,180.4375 3925.75,180.5781 Q3925.1094,180.7344 3924.4063,180.7344 Q3921.9063,180.7344 3920.5781,179.0938 Q3919.2656,177.4375 3919.2656,174.3125 Q3919.2656,171.1875 3920.5781,169.5313 Q3921.9063,167.875 3924.4063,167.875 Q3925.1094,167.875 3925.75,168.0313 Q3926.4063,168.1875 3926.9688,168.4844 L3926.9688,171.2031 Q3926.3438,170.625 3925.75,170.3594 Q3925.1563,170.0781 3924.5313,170.0781 Q3923.1875,170.0781 3922.5,171.1563 Q3921.8125,172.2188 3921.8125,174.3125 Q3921.8125,176.4063 3922.5,177.4844 Q3923.1875,178.5469 3924.5313,178.5469 Q3925.1563,178.5469 3925.75,178.2813 Q3926.3438,178 3926.9688,177.4219 L3926.9688,180.1406 Z " fill="#000000"/><text fill="#000000" font-family="sans-serif" font-size="14" lengthAdjust="spacing" textLength="201.168" x="3938" y="179.3467">logic_arc_int__baselibs__json</text><line style="stroke:#181818;stroke-width:0.5;" x1="3910" x2="4141.168" y1="190.5" y2="190.5"/></g><!--class comp_arc_sta__baselibs__memory_shared--><g id="elem_comp_arc_sta__baselibs__memory_shared"><rect fill="#F1F1F1" height="40" id="comp_arc_sta__baselibs__memory_shared" rx="2.5" ry="2.5" style="stroke:#181818;stroke-width:0.5;" width="327.0117" x="996" y="275.5"/><ellipse cx="1011" cy="291.5" fill="#ADD1B2" rx="11" ry="11" style="stroke:#181818;stroke-width:1;"/><path d="M1013.9688,297.1406 Q1013.3906,297.4375 1012.75,297.5781 Q1012.1094,297.7344 1011.4063,297.7344 Q1008.9063,297.7344 1007.5781,296.0938 Q1006.2656,294.4375 1006.2656,291.3125 Q1006.2656,288.1875 1007.5781,286.5313 Q1008.9063,284.875 1011.4063,284.875 Q1012.1094,284.875 1012.75,285.0313 Q1013.4063,285.1875 1013.9688,285.4844 L1013.9688,288.2031 Q1013.3438,287.625 1012.75,287.3594 Q1012.1563,287.0781 1011.5313,287.0781 Q1010.1875,287.0781 1009.5,288.1563 Q1008.8125,289.2188 1008.8125,291.3125 Q1008.8125,293.4063 1009.5,294.4844 Q1010.1875,295.5469 1011.5313,295.5469 Q1012.1563,295.5469 1012.75,295.2813 Q1013.3438,295 1013.9688,294.4219 L1013.9688,297.1406 Z " fill="#000000"/><text fill="#000000" font-family="sans-serif" font-size="14" lengthAdjust="spacing" textLength="295.0117" x="1025" y="296.3467">comp_arc_sta__baselibs__memory_shared</text><line style="stroke:#181818;stroke-width:0.5;" x1="997" x2="1322.0117" y1="307.5" y2="307.5"/></g><!--class logic_arc_int__baselibs__task--><g id="elem_logic_arc_int__baselibs__task"><rect fill="#F1F1F1" height="40" id="logic_arc_int__baselibs__task" rx="2.5" ry="2.5" style="stroke:#181818;stroke-width:0.5;" width="234.0156" x="2658.5" y="158.5"/><ellipse cx="2673.5" cy="174.5" fill="#ADD1B2" rx="11" ry="11" style="stroke:#181818;stroke-width:1;"/><path d="M2676.4688,180.1406 Q2675.8906,180.4375 2675.25,180.5781 Q2674.6094,180.7344 2673.9063,180.7344 Q2671.4063,180.7344 2670.0781,179.0938 Q2668.7656,177.4375 2668.7656,174.3125 Q2668.7656,171.1875 2670.0781,169.5313 Q2671.4063,167.875 2673.9063,167.875 Q2674.6094,167.875 2675.25,168.0313 Q2675.9063,168.1875 2676.4688,168.4844 L2676.4688,171.2031 Q2675.8438,170.625 2675.25,170.3594 Q2674.6563,170.0781 2674.0313,170.0781 Q2672.6875,170.0781 2672,171.1563 Q2671.3125,172.2188 2671.3125,174.3125 Q2671.3125,176.4063 2672,177.4844 Q2672.6875,178.5469 2674.0313,178.5469 Q2674.6563,178.5469 2675.25,178.2813 Q2675.8438,178 2676.4688,177.4219 L2676.4688,180.1406 Z " fill="#000000"/><text fill="#000000" font-family="sans-serif" font-size="14" lengthAdjust="spacing" textLength="202.0156" x="2687.5" y="179.3467">logic_arc_int__baselibs__task</text><line style="stroke:#181818;stroke-width:0.5;" x1="2659.5" x2="2891.5156" y1="190.5" y2="190.5"/></g><!--class comp_arc_sta__baselibs__filesystem--><g id="elem_comp_arc_sta__baselibs__filesystem"><rect fill="#F1F1F1" height="40" id="comp_arc_sta__baselibs__filesystem" rx="2.5" ry="2.5" style="stroke:#181818;stroke-width:0.5;" width="285.4492" x="7" y="275.5"/><ellipse cx="22" cy="291.5" fill="#ADD1B2" rx="11" ry="11" style="stroke:#181818;stroke-width:1;"/><path d="M24.9688,297.1406 Q24.3906,297.4375 23.75,297.5781 Q23.1094,297.7344 22.4063,297.7344 Q19.9063,297.7344 18.5781,296.0938 Q17.2656,294.4375 17.2656,291.3125 Q17.2656,288.1875 18.5781,286.5313 Q19.9063,284.875 22.4063,284.875 Q23.1094,284.875 23.75,285.0313 Q24.4063,285.1875 24.9688,285.4844 L24.9688,288.2031 Q24.3438,287.625 23.75,287.3594 Q23.1563,287.0781 22.5313,287.0781 Q21.1875,287.0781 20.5,288.1563 Q19.8125,289.2188 19.8125,291.3125 Q19.8125,293.4063 20.5,294.4844 Q21.1875,295.5469 22.5313,295.5469 Q23.1563,295.5469 23.75,295.2813 Q24.3438,295 24.9688,294.4219 L24.9688,297.1406 Z " fill="#000000"/><text fill="#000000" font-family="sans-serif" font-size="14" lengthAdjust="spacing" textLength="253.4492" x="36" y="296.3467">comp_arc_sta__baselibs__filesystem</text><line style="stroke:#181818;stroke-width:0.5;" x1="8" x2="291.4492" y1="307.5" y2="307.5"/></g><!--link Feature_User to logic_arc_int__baselibs__bit_mask_operator--><g id="link_Feature_User_logic_arc_int__baselibs__bit_mask_operator"><path codeLine="14" d="M3103.52,49.16 C3273.11,66.7 3872.9918,128.7326 4170.8218,159.5426 " fill="transparent" id="Feature_User-to-logic_arc_int__baselibs__bit_mask_operator" style="stroke:#181818;stroke-width:1;"/><polygon fill="#181818" points="4176.79,160.16,4168.2494,155.2551,4171.8165,159.6455,4167.4262,163.2127,4176.79,160.16" style="stroke:#181818;stroke-width:1;"/><text fill="#000000" font-family="sans-serif" font-size="13" lengthAdjust="spacing" textLength="23.0103" x="3856.5" y="124.5669">use</text></g><!--link Feature_User to logic_arc_int__baselibs__shared_future--><g id="link_Feature_User_logic_arc_int__baselibs__shared_future"><path codeLine="16" d="M3013.41,51.14 C2881.05,70.64 2495.996,127.3457 2290.676,157.5857 " fill="transparent" id="Feature_User-to-logic_arc_int__baselibs__shared_future" style="stroke:#181818;stroke-width:1;"/><polygon fill="#181818" points="2284.74,158.46,2294.2268,161.1059,2289.6866,157.7314,2293.0611,153.1913,2284.74,158.46" style="stroke:#181818;stroke-width:1;"/><text fill="#000000" font-family="sans-serif" font-size="13" lengthAdjust="spacing" textLength="23.0103" x="2581.5" y="124.5669">use</text></g><!--link Feature_User to logic_arc_int__baselibs__executor--><g id="link_Feature_User_logic_arc_int__baselibs__executor"><path codeLine="17" d="M3103.51,53.28 C3212.63,74.56 3487.391,128.1415 3637.111,157.3415 " fill="transparent" id="Feature_User-to-logic_arc_int__baselibs__executor" style="stroke:#181818;stroke-width:1;"/><polygon fill="#181818" points="3643,158.49,3634.9321,152.8412,3638.0925,157.5329,3633.4007,160.6932,3643,158.49" style="stroke:#181818;stroke-width:1;"/><text fill="#000000" font-family="sans-serif" font-size="13" lengthAdjust="spacing" textLength="23.0103" x="3482.5" y="124.5669">use</text></g><!--link Feature_User to logic_arc_int__baselibs__promise--><g id="link_Feature_User_logic_arc_int__baselibs__promise"><path codeLine="18" d="M3058.5,81.55 C3058.5,106.45 3058.5,132.26 3058.5,152.26 " fill="transparent" id="Feature_User-to-logic_arc_int__baselibs__promise" style="stroke:#181818;stroke-width:1;"/><polygon fill="#181818" points="3058.5,158.26,3062.5,149.26,3058.5,153.26,3054.5,149.26,3058.5,158.26" style="stroke:#181818;stroke-width:1;"/><text fill="#000000" font-family="sans-serif" font-size="13" lengthAdjust="spacing" textLength="23.0103" x="3059.5" y="124.5669">use</text></g><!--link Feature_User to logic_arc_int__baselibs__utils_base64--><g id="link_Feature_User_logic_arc_int__baselibs__utils_base64"><path codeLine="19" d="M3013.27,46.25 C2837.43,53.14 2182.38,79.59 1643.5,111.5 C1349.5,128.91 1275.73,131 982.5,158.5 C976.97,159.02 977.3001,158.9719 971.6101,159.5419 " fill="transparent" id="Feature_User-to-logic_arc_int__baselibs__utils_base64" style="stroke:#181818;stroke-width:1;"/><polygon fill="#181818" points="965.64,160.14,974.9939,163.223,970.6151,159.6416,974.1965,155.2628,965.64,160.14" style="stroke:#181818;stroke-width:1;"/><text fill="#000000" font-family="sans-serif" font-size="13" lengthAdjust="spacing" textLength="23.0103" x="1644.5" y="124.5669">use</text></g><!--reverse link logic_arc_int__baselibs__message_passing to comp_arc_sta__baselibs__message_passing--><g id="link_logic_arc_int__baselibs__message_passing_comp_arc_sta__baselibs__message_passing"><path codeLine="20" d="M6023.9346,204.7491 C6024.3046,225.9791 6024.79,253.94 6025.16,275.19 " fill="transparent" id="logic_arc_int__baselibs__message_passing-backto-comp_arc_sta__baselibs__message_passing" style="stroke:#181818;stroke-width:1;"/><polygon fill="#181818" points="6023.83,198.75,6019.9874,207.8183,6023.9171,203.7492,6027.9862,207.6789,6023.83,198.75" style="stroke:#181818;stroke-width:1;"/><text fill="#000000" font-family="sans-serif" font-size="13" lengthAdjust="spacing" textLength="76.9082" x="6025.5" y="241.5669">implements</text></g><!--link Feature_User to logic_arc_int__baselibs__future--><g id="link_Feature_User_logic_arc_int__baselibs__future"><path codeLine="21" d="M3013.32,47.17 C2835.51,57.87 2166.78,99.9 1618.5,158.5 C1612.85,159.1 1613.0396,159.0549 1607.2096,159.7349 " fill="transparent" id="Feature_User-to-logic_arc_int__baselibs__future" style="stroke:#181818;stroke-width:1;"/><polygon fill="#181818" points="1601.25,160.43,1610.6528,163.3604,1606.2163,159.8507,1609.726,155.4143,1601.25,160.43" style="stroke:#181818;stroke-width:1;"/><text fill="#000000" font-family="sans-serif" font-size="13" lengthAdjust="spacing" textLength="23.0103" x="2094.5" y="124.5669">use</text></g><!--reverse link logic_arc_int__baselibs__shared_future to comp_arc_sta__baselibs__concurrency--><g id="link_logic_arc_int__baselibs__shared_future_comp_arc_sta__baselibs__concurrency"><path codeLine="22" d="M2232.7863,200.1702 C2312.4263,221.4702 2434.63,254.15 2514.2,275.43 " fill="transparent" id="logic_arc_int__baselibs__shared_future-backto-comp_arc_sta__baselibs__concurrency" style="stroke:#181818;stroke-width:1;"/><polygon fill="#181818" points="2226.99,198.62,2234.6509,204.8095,2231.8202,199.9119,2236.7179,197.0812,2226.99,198.62" style="stroke:#181818;stroke-width:1;"/><text fill="#000000" font-family="sans-serif" font-size="13" lengthAdjust="spacing" textLength="76.9082" x="2397.5" y="241.5669">implements</text></g><!--reverse link logic_arc_int__baselibs__condition_variable to comp_arc_sta__baselibs__concurrency--><g id="link_logic_arc_int__baselibs__condition_variable_comp_arc_sta__baselibs__concurrency"><path codeLine="23" d="M1938.1763,199.4221 C2083.2263,220.7321 2310.82,254.16 2455.84,275.46 " fill="transparent" id="logic_arc_int__baselibs__condition_variable-backto-comp_arc_sta__baselibs__concurrency" style="stroke:#181818;stroke-width:1;"/><polygon fill="#181818" points="1932.24,198.55,1940.563,203.8157,1937.1869,199.2768,1941.7258,195.9007,1932.24,198.55" style="stroke:#181818;stroke-width:1;"/><text fill="#000000" font-family="sans-serif" font-size="13" lengthAdjust="spacing" textLength="76.9082" x="2242.5" y="241.5669">implements</text></g><!--reverse link logic_arc_int__baselibs__bit_manipulation to comp_arc_sta__baselibs__bit_manipulation--><g id="link_logic_arc_int__baselibs__bit_manipulation_comp_arc_sta__baselibs__bit_manipulation"><path codeLine="24" d="M4667.9118,201.6215 C4628.8518,222.9115 4571.55,254.14 4532.58,275.38 " fill="transparent" id="logic_arc_int__baselibs__bit_manipulation-backto-comp_arc_sta__baselibs__bit_manipulation" style="stroke:#181818;stroke-width:1;"/><polygon fill="#181818" points="4673.18,198.75,4663.3633,199.5451,4668.7898,201.1429,4667.192,206.5694,4673.18,198.75" style="stroke:#181818;stroke-width:1;"/><text fill="#000000" font-family="sans-serif" font-size="13" lengthAdjust="spacing" textLength="76.9082" x="4617.5" y="241.5669">implements</text></g><!--link Feature_User to logic_arc_int__baselibs__synchronized_queue--><g id="link_Feature_User_logic_arc_int__baselibs__synchronized_queue"><path codeLine="25" d="M3103.65,62.16 C3167.6,87.18 3278.4821,130.5546 3344.2721,156.2846 " fill="transparent" id="Feature_User-to-logic_arc_int__baselibs__synchronized_queue" style="stroke:#181818;stroke-width:1;"/><polygon fill="#181818" points="3349.86,158.47,3342.9351,151.4667,3345.2035,156.6489,3340.0213,158.9172,3349.86,158.47" style="stroke:#181818;stroke-width:1;"/><text fill="#000000" font-family="sans-serif" font-size="13" lengthAdjust="spacing" textLength="23.0103" x="3270.5" y="124.5669">use</text></g><!--reverse link logic_arc_int__baselibs__result to comp_arc_sta__baselibs__result--><g id="link_logic_arc_int__baselibs__result_comp_arc_sta__baselibs__result"><path codeLine="26" d="M5697.8418,204.7479 C5697.2818,225.9779 5696.56,253.94 5696,275.19 " fill="transparent" id="logic_arc_int__baselibs__result-backto-comp_arc_sta__baselibs__result" style="stroke:#181818;stroke-width:1;"/><polygon fill="#181818" points="5698,198.75,5693.7641,207.6414,5697.8682,203.7483,5701.7613,207.8523,5698,198.75" style="stroke:#181818;stroke-width:1;"/><text fill="#000000" font-family="sans-serif" font-size="13" lengthAdjust="spacing" textLength="76.9082" x="5698.5" y="241.5669">implements</text></g><!--link Feature_User to logic_arc_int__baselibs__memory_shared--><g id="link_Feature_User_logic_arc_int__baselibs__memory_shared"><path codeLine="27" d="M3013.27,46.71 C2858.23,54.37 2334.02,80.99 1901.5,111.5 C1650.15,129.23 1587.34,134.61 1336.5,158.5 C1330.65,159.06 1330.6713,159.0538 1324.6613,159.6438 " fill="transparent" id="Feature_User-to-logic_arc_int__baselibs__memory_shared" style="stroke:#181818;stroke-width:1;"/><polygon fill="#181818" points="1318.69,160.23,1328.0377,163.3316,1323.6661,159.7415,1327.2561,155.3698,1318.69,160.23" style="stroke:#181818;stroke-width:1;"/><text fill="#000000" font-family="sans-serif" font-size="13" lengthAdjust="spacing" textLength="23.0103" x="1902.5" y="124.5669">use</text></g><!--reverse link logic_arc_int__baselibs__intrusive_list to comp_arc_sta__baselibs__containers--><g id="link_logic_arc_int__baselibs__intrusive_list_comp_arc_sta__baselibs__containers"><path codeLine="28" d="M5084.3918,202.1527 C5115.3118,223.4427 5159.89,254.14 5190.74,275.38 " fill="transparent" id="logic_arc_int__baselibs__intrusive_list-backto-comp_arc_sta__baselibs__containers" style="stroke:#181818;stroke-width:1;"/><polygon fill="#181818" points="5079.45,198.75,5084.5943,207.1486,5083.5682,201.5856,5089.1312,200.5595,5079.45,198.75" style="stroke:#181818;stroke-width:1;"/><text fill="#000000" font-family="sans-serif" font-size="13" lengthAdjust="spacing" textLength="76.9082" x="5146.5" y="241.5669">implements</text></g><!--link Feature_User to logic_arc_int__baselibs__utils_scoped_op--><g id="link_Feature_User_logic_arc_int__baselibs__utils_scoped_op"><path codeLine="29" d="M3013.26,45.72 C2814.13,51.22 1995.71,74.96 1324.5,111.5 C1026.87,127.7 952.38,131.96 655.5,158.5 C649.87,159 650.1131,158.9626 644.3231,159.5126 " fill="transparent" id="Feature_User-to-logic_arc_int__baselibs__utils_scoped_op" style="stroke:#181818;stroke-width:1;"/><polygon fill="#181818" points="638.35,160.08,647.6879,163.211,643.3276,159.6072,646.9314,155.2468,638.35,160.08" style="stroke:#181818;stroke-width:1;"/><text fill="#000000" font-family="sans-serif" font-size="13" lengthAdjust="spacing" textLength="23.0103" x="1325.5" y="124.5669">use</text></g><!--link Feature_User to logic_arc_int__baselibs__task_result--><g id="link_Feature_User_logic_arc_int__baselibs__task_result"><path codeLine="30" d="M3013.3,54.94 C2916.57,77.27 2694.1162,128.6403 2570.7962,157.1103 " fill="transparent" id="Feature_User-to-logic_arc_int__baselibs__task_result" style="stroke:#181818;stroke-width:1;"/><polygon fill="#181818" points="2564.95,158.46,2574.6191,160.333,2569.8219,157.3353,2572.8196,152.538,2564.95,158.46" style="stroke:#181818;stroke-width:1;"/><text fill="#000000" font-family="sans-serif" font-size="13" lengthAdjust="spacing" textLength="23.0103" x="2754.5" y="124.5669">use</text></g><!--link Feature_User to logic_arc_int__baselibs__condition_variable--><g id="link_Feature_User_logic_arc_int__baselibs__condition_variable"><path codeLine="31" d="M3013.43,49.27 C2846.84,66.91 2266.4666,128.3682 1975.2066,159.2082 " fill="transparent" id="Feature_User-to-logic_arc_int__baselibs__condition_variable" style="stroke:#181818;stroke-width:1;"/><polygon fill="#181818" points="1969.24,159.84,1978.6112,162.8701,1974.2122,159.3135,1977.7688,154.9146,1969.24,159.84" style="stroke:#181818;stroke-width:1;"/><text fill="#000000" font-family="sans-serif" font-size="13" lengthAdjust="spacing" textLength="23.0103" x="2394.5" y="124.5669">use</text></g><!--reverse link logic_arc_int__baselibs__promise to comp_arc_sta__baselibs__concurrency--><g id="link_logic_arc_int__baselibs__promise_comp_arc_sta__baselibs__concurrency"><path codeLine="32" d="M2974.2999,199.9676 C2886.7399,221.2576 2751.64,254.11 2664.02,275.41 " fill="transparent" id="logic_arc_int__baselibs__promise-backto-comp_arc_sta__baselibs__concurrency" style="stroke:#181818;stroke-width:1;"/><polygon fill="#181818" points="2980.13,198.55,2970.4397,196.7896,2975.2716,199.7313,2972.3299,204.5631,2980.13,198.55" style="stroke:#181818;stroke-width:1;"/><text fill="#000000" font-family="sans-serif" font-size="13" lengthAdjust="spacing" textLength="76.9082" x="2851.5" y="241.5669">implements</text></g><!--reverse link logic_arc_int__baselibs__dynamic_array to comp_arc_sta__baselibs__containers--><g id="link_logic_arc_int__baselibs__dynamic_array_comp_arc_sta__baselibs__containers"><path codeLine="33" d="M5354.2494,202.1252 C5322.9594,223.4152 5277.81,254.14 5246.6,275.38 " fill="transparent" id="logic_arc_int__baselibs__dynamic_array-backto-comp_arc_sta__baselibs__containers" style="stroke:#181818;stroke-width:1;"/><polygon fill="#181818" points="5359.21,198.75,5349.5189,200.5058,5355.0762,201.5627,5354.0192,207.1199,5359.21,198.75" style="stroke:#181818;stroke-width:1;"/><text fill="#000000" font-family="sans-serif" font-size="13" lengthAdjust="spacing" textLength="76.9082" x="5314.5" y="241.5669">implements</text></g><!--reverse link logic_arc_int__baselibs__task_result to comp_arc_sta__baselibs__concurrency--><g id="link_logic_arc_int__baselibs__task_result_comp_arc_sta__baselibs__concurrency"><path codeLine="34" d="M2503.7425,203.2199 C2522.7525,224.4499 2549.17,253.94 2568.2,275.19 " fill="transparent" id="logic_arc_int__baselibs__task_result-backto-comp_arc_sta__baselibs__concurrency" style="stroke:#181818;stroke-width:1;"/><polygon fill="#181818" points="2499.74,198.75,2502.7638,208.1232,2503.0754,202.4749,2508.7237,202.7865,2499.74,198.75" style="stroke:#181818;stroke-width:1;"/><text fill="#000000" font-family="sans-serif" font-size="13" lengthAdjust="spacing" textLength="76.9082" x="2541.5" y="241.5669">implements</text></g><!--link Feature_User to logic_arc_int__baselibs__filesystem--><g id="link_Feature_User_logic_arc_int__baselibs__filesystem"><path codeLine="35" d="M3013.26,45.39 C2792.7,49.86 1808.17,71.22 1002.5,111.5 C692.41,127 614.6,129.28 305.5,158.5 C299.66,159.05 299.6684,159.0353 293.6484,159.6553 " fill="transparent" id="Feature_User-to-logic_arc_int__baselibs__filesystem" style="stroke:#181818;stroke-width:1;"/><polygon fill="#181818" points="287.68,160.27,297.0424,163.3269,292.6537,159.7578,296.2229,155.369,287.68,160.27" style="stroke:#181818;stroke-width:1;"/><text fill="#000000" font-family="sans-serif" font-size="13" lengthAdjust="spacing" textLength="23.0103" x="1003.5" y="124.5669">use</text></g><!--link Feature_User to logic_arc_int__baselibs__message_passing--><g id="link_Feature_User_logic_arc_int__baselibs__message_passing"><path codeLine="36" d="M3103.74,45.15 C3330.79,48.6 4368.85,66.19 5217.5,111.5 C5493.45,126.23 5562.24,134.01 5837.5,158.5 C5844.69,159.14 5846.0665,159.2465 5853.4865,159.9465 " fill="transparent" id="Feature_User-to-logic_arc_int__baselibs__message_passing" style="stroke:#181818;stroke-width:1;"/><polygon fill="#181818" points="5859.46,160.51,5850.8755,155.6824,5854.4821,160.0404,5850.1241,163.647,5859.46,160.51" style="stroke:#181818;stroke-width:1;"/><text fill="#000000" font-family="sans-serif" font-size="13" lengthAdjust="spacing" textLength="23.0103" x="5487.5" y="124.5669">use</text></g><!--link Feature_User to logic_arc_int__baselibs__result--><g id="link_Feature_User_logic_arc_int__baselibs__result"><path codeLine="37" d="M3103.66,45.69 C3306.98,51.17 4157.91,75.18 4855.5,111.5 C5168.22,127.78 5246.95,126.98 5558.5,158.5 C5564.36,159.09 5564.3888,159.059 5570.4288,159.749 " fill="transparent" id="Feature_User-to-logic_arc_int__baselibs__result" style="stroke:#181818;stroke-width:1;"/><polygon fill="#181818" points="5576.39,160.43,5567.9022,155.4343,5571.4223,159.8625,5566.9942,163.3827,5576.39,160.43" style="stroke:#181818;stroke-width:1;"/><text fill="#000000" font-family="sans-serif" font-size="13" lengthAdjust="spacing" textLength="23.0103" x="5185.5" y="124.5669">use</text></g><!--reverse link logic_arc_int__baselibs__utils_base64 to comp_arc_sta__baselibs__utils--><g id="link_logic_arc_int__baselibs__utils_base64_comp_arc_sta__baselibs__utils"><path codeLine="38" d="M781.3479,201.7743 C744.8679,223.0643 691.64,254.14 655.25,275.38 " fill="transparent" id="logic_arc_int__baselibs__utils_base64-backto-comp_arc_sta__baselibs__utils" style="stroke:#181818;stroke-width:1;"/><polygon fill="#181818" points="786.53,198.75,776.7407,199.8317,782.2116,201.2702,780.7731,206.7411,786.53,198.75" style="stroke:#181818;stroke-width:1;"/><text fill="#000000" font-family="sans-serif" font-size="13" lengthAdjust="spacing" textLength="76.9082" x="734.5" y="241.5669">implements</text></g><!--reverse link logic_arc_int__baselibs__json to comp_arc_sta__baselibs__json--><g id="link_logic_arc_int__baselibs__json_comp_arc_sta__baselibs__json"><path codeLine="39" d="M4025.5,204.75 C4025.5,225.98 4025.5,253.94 4025.5,275.19 " fill="transparent" id="logic_arc_int__baselibs__json-backto-comp_arc_sta__baselibs__json" style="stroke:#181818;stroke-width:1;"/><polygon fill="#181818" points="4025.5,198.75,4021.5,207.75,4025.5,203.75,4029.5,207.75,4025.5,198.75" style="stroke:#181818;stroke-width:1;"/><text fill="#000000" font-family="sans-serif" font-size="13" lengthAdjust="spacing" textLength="76.9082" x="4026.5" y="241.5669">implements</text></g><!--reverse link logic_arc_int__baselibs__memory_shared to comp_arc_sta__baselibs__memory_shared--><g id="link_logic_arc_int__baselibs__memory_shared_comp_arc_sta__baselibs__memory_shared"><path codeLine="40" d="M1159.5,204.75 C1159.5,225.98 1159.5,253.94 1159.5,275.19 " fill="transparent" id="logic_arc_int__baselibs__memory_shared-backto-comp_arc_sta__baselibs__memory_shared" style="stroke:#181818;stroke-width:1;"/><polygon fill="#181818" points="1159.5,198.75,1155.5,207.75,1159.5,203.75,1163.5,207.75,1159.5,198.75" style="stroke:#181818;stroke-width:1;"/><text fill="#000000" font-family="sans-serif" font-size="13" lengthAdjust="spacing" textLength="76.9082" x="1160.5" y="241.5669">implements</text></g><!--link Feature_User to logic_arc_int__baselibs__intrusive_list--><g id="link_Feature_User_logic_arc_int__baselibs__intrusive_list"><path codeLine="41" d="M3103.8,46.35 C3309.62,54.94 4177.21,93.4 4886.5,158.5 C4892.53,159.05 4892.7097,159.0439 4898.9197,159.6639 " fill="transparent" id="Feature_User-to-logic_arc_int__baselibs__intrusive_list" style="stroke:#181818;stroke-width:1;"/><polygon fill="#181818" points="4904.89,160.26,4896.3319,155.3857,4899.9147,159.7633,4895.5371,163.3461,4904.89,160.26" style="stroke:#181818;stroke-width:1;"/><text fill="#000000" font-family="sans-serif" font-size="13" lengthAdjust="spacing" textLength="23.0103" x="4488.5" y="124.5669">use</text></g><!--link Feature_User to logic_arc_int__baselibs__task--><g id="link_Feature_User_logic_arc_int__baselibs__task"><path codeLine="42" d="M3013.34,65.72 C2959.04,91.24 2874.1102,131.1579 2821.7902,155.7479 " fill="transparent" id="Feature_User-to-logic_arc_int__baselibs__task" style="stroke:#181818;stroke-width:1;"/><polygon fill="#181818" points="2816.36,158.3,2826.2067,158.0919,2820.8851,156.1732,2822.8038,150.8517,2816.36,158.3" style="stroke:#181818;stroke-width:1;"/><text fill="#000000" font-family="sans-serif" font-size="13" lengthAdjust="spacing" textLength="23.0103" x="2910.5" y="124.5669">use</text></g><!--link Feature_User to logic_arc_int__baselibs__bit_manipulation--><g id="link_Feature_User_logic_arc_int__baselibs__bit_manipulation"><path codeLine="43" d="M3103.68,47.53 C3283.75,59.71 3967.7,106.92 4529.5,158.5 C4535.26,159.03 4535.1477,159.004 4541.0577,159.574 " fill="transparent" id="Feature_User-to-logic_arc_int__baselibs__bit_manipulation" style="stroke:#181818;stroke-width:1;"/><polygon fill="#181818" points="4547.03,160.15,4538.4556,155.3045,4542.0531,159.67,4537.6876,163.2675,4547.03,160.15" style="stroke:#181818;stroke-width:1;"/><text fill="#000000" font-family="sans-serif" font-size="13" lengthAdjust="spacing" textLength="23.0103" x="4168.5" y="124.5669">use</text></g><!--reverse link logic_arc_int__baselibs__executor to comp_arc_sta__baselibs__concurrency--><g id="link_logic_arc_int__baselibs__executor_comp_arc_sta__baselibs__concurrency"><path codeLine="44" d="M3601.1721,197.1497 C3595.2121,197.8597 3595.27,197.84 3589.5,198.5 C3287.03,233.25 2932.28,265.08 2735.8,281.93 " fill="transparent" id="logic_arc_int__baselibs__executor-backto-comp_arc_sta__baselibs__concurrency" style="stroke:#181818;stroke-width:1;"/><polygon fill="#181818" points="3607.13,196.44,3597.72,193.5327,3602.1651,197.0315,3598.6664,201.4765,3607.13,196.44" style="stroke:#181818;stroke-width:1;"/><text fill="#000000" font-family="sans-serif" font-size="13" lengthAdjust="spacing" textLength="76.9082" x="3287.5" y="241.5669">implements</text></g><!--link Feature_User to logic_arc_int__baselibs__dynamic_array--><g id="link_Feature_User_logic_arc_int__baselibs__dynamic_array"><path codeLine="45" d="M3103.69,46.21 C3283.04,53.09 3962.09,79.83 4520.5,111.5 C4829.6,129.03 4907.12,131.05 5215.5,158.5 C5221.34,159.02 5221.3069,159.0026 5227.3069,159.5726 " fill="transparent" id="Feature_User-to-logic_arc_int__baselibs__dynamic_array" style="stroke:#181818;stroke-width:1;"/><polygon fill="#181818" points="5233.28,160.14,5224.6986,155.3068,5228.3024,159.6671,5223.942,163.2709,5233.28,160.14" style="stroke:#181818;stroke-width:1;"/><text fill="#000000" font-family="sans-serif" font-size="13" lengthAdjust="spacing" textLength="23.0103" x="4823.5" y="124.5669">use</text></g><!--reverse link logic_arc_int__baselibs__synchronized_queue to comp_arc_sta__baselibs__concurrency--><g id="link_logic_arc_int__baselibs__synchronized_queue_comp_arc_sta__baselibs__concurrency"><path codeLine="46" d="M3260.1408,199.3821 C3167.7908,212.6321 3047.61,229.81 2936.5,245.5 C2865.98,255.46 2787.47,266.43 2722.62,275.46 " fill="transparent" id="logic_arc_int__baselibs__synchronized_queue-backto-comp_arc_sta__baselibs__concurrency" style="stroke:#181818;stroke-width:1;"/><polygon fill="#181818" points="3266.08,198.53,3256.6031,195.8487,3261.1307,199.2401,3257.7393,203.7676,3266.08,198.53" style="stroke:#181818;stroke-width:1;"/><text fill="#000000" font-family="sans-serif" font-size="13" lengthAdjust="spacing" textLength="76.9082" x="3052.5" y="241.5669">implements</text></g><!--reverse link logic_arc_int__baselibs__utils_scoped_op to comp_arc_sta__baselibs__utils--><g id="link_logic_arc_int__baselibs__utils_scoped_op_comp_arc_sta__baselibs__utils"><path codeLine="47" d="M508.9324,202.5265 C535.1424,223.7565 572.41,253.94 598.65,275.19 " fill="transparent" id="logic_arc_int__baselibs__utils_scoped_op-backto-comp_arc_sta__baselibs__utils" style="stroke:#181818;stroke-width:1;"/><polygon fill="#181818" points="504.27,198.75,508.7459,207.523,508.1553,201.8971,513.7813,201.3065,504.27,198.75" style="stroke:#181818;stroke-width:1;"/><text fill="#000000" font-family="sans-serif" font-size="13" lengthAdjust="spacing" textLength="76.9082" x="561.5" y="241.5669">implements</text></g><!--link Feature_User to logic_arc_int__baselibs__json--><g id="link_Feature_User_logic_arc_int__baselibs__json"><path codeLine="48" d="M3103.6,50.62 C3228.61,67.6 3590.13,116.78 3890.5,158.5 C3896.48,159.33 3896.6584,159.3449 3902.8484,160.2149 " fill="transparent" id="Feature_User-to-logic_arc_int__baselibs__json" style="stroke:#181818;stroke-width:1;"/><polygon fill="#181818" points="3908.79,161.05,3900.4343,155.8363,3903.8387,160.3541,3899.3209,163.7584,3908.79,161.05" style="stroke:#181818;stroke-width:1;"/><text fill="#000000" font-family="sans-serif" font-size="13" lengthAdjust="spacing" textLength="23.0103" x="3663.5" y="124.5669">use</text></g><!--reverse link logic_arc_int__baselibs__bit_mask_operator to comp_arc_sta__baselibs__bit_manipulation--><g id="link_logic_arc_int__baselibs__bit_mask_operator_comp_arc_sta__baselibs__bit_manipulation"><path codeLine="49" d="M4374.9065,202.3546 C4403.2365,223.6446 4443.8,254.14 4472.06,275.38 " fill="transparent" id="logic_arc_int__baselibs__bit_mask_operator-backto-comp_arc_sta__baselibs__bit_manipulation" style="stroke:#181818;stroke-width:1;"/><polygon fill="#181818" points="4370.11,198.75,4374.9017,207.3546,4374.1071,201.7538,4379.7079,200.9592,4370.11,198.75" style="stroke:#181818;stroke-width:1;"/><text fill="#000000" font-family="sans-serif" font-size="13" lengthAdjust="spacing" textLength="76.9082" x="4431.5" y="241.5669">implements</text></g><!--reverse link logic_arc_int__baselibs__future to comp_arc_sta__baselibs__concurrency--><g id="link_logic_arc_int__baselibs__future_comp_arc_sta__baselibs__concurrency"><path codeLine="50" d="M1607.2234,197.1267 C1613.0434,197.8567 1612.86,197.82 1618.5,198.5 C1907.01,233.24 2245.06,264.69 2435.37,281.55 " fill="transparent" id="logic_arc_int__baselibs__future-backto-comp_arc_sta__baselibs__concurrency" style="stroke:#181818;stroke-width:1;"/><polygon fill="#181818" points="1601.27,196.38,1609.7022,201.469,1606.2311,197.0023,1610.6978,193.5312,1601.27,196.38" style="stroke:#181818;stroke-width:1;"/><text fill="#000000" font-family="sans-serif" font-size="13" lengthAdjust="spacing" textLength="76.9082" x="2044.5" y="241.5669">implements</text></g><!--reverse link logic_arc_int__baselibs__task to comp_arc_sta__baselibs__concurrency--><g id="link_logic_arc_int__baselibs__task_comp_arc_sta__baselibs__concurrency"><path codeLine="51" d="M2738.5668,201.8565 C2703.3868,223.1465 2652.18,254.14 2617.09,275.38 " fill="transparent" id="logic_arc_int__baselibs__task-backto-comp_arc_sta__baselibs__concurrency" style="stroke:#181818;stroke-width:1;"/><polygon fill="#181818" points="2743.7,198.75,2733.9292,199.9876,2739.4223,201.3387,2738.0712,206.8319,2743.7,198.75" style="stroke:#181818;stroke-width:1;"/><text fill="#000000" font-family="sans-serif" font-size="13" lengthAdjust="spacing" textLength="76.9082" x="2693.5" y="241.5669">implements</text></g><!--reverse link logic_arc_int__baselibs__filesystem to comp_arc_sta__baselibs__filesystem--><g id="link_logic_arc_int__baselibs__filesystem_comp_arc_sta__baselibs__filesystem"><path codeLine="52" d="M149.5,204.75 C149.5,225.98 149.5,253.94 149.5,275.19 " fill="transparent" id="logic_arc_int__baselibs__filesystem-backto-comp_arc_sta__baselibs__filesystem" style="stroke:#181818;stroke-width:1;"/><polygon fill="#181818" points="149.5,198.75,145.5,207.75,149.5,203.75,153.5,207.75,149.5,198.75" style="stroke:#181818;stroke-width:1;"/><text fill="#000000" font-family="sans-serif" font-size="13" lengthAdjust="spacing" textLength="76.9082" x="150.5" y="241.5669">implements</text></g><!--SRC=[jLPDRzGm4BtdLrYzRq4Lub1LlI1nuWXdot66tQ7-I3tZqe3uxpWVi4dwaSI4spexCtvvC-zDb37-kxJuYEvOiAy5Ur5wPcz5XG4qetV52IiGn130SrD3VmPRSoCKSy0oCb1nGzmOk2qk5Q4fnS_Y4phuu8qF8a3LdJwVKDyv819Nbs-BNyNDco6dK9fJtCL7K1m3Y2y4uK8e4iC3sJuGnUHqg0wtmlWZQgc2bkXOob8H62mf_KAMLj6Tz3K4bOfVYqWWYYqrwAGISlarjWb3_ePqU0GTppTloAo3jqWPLqP6Gztv_RiXMtjRTw74QXngKnlK4MIjY5BpnI6-LdWMVItGrWOiEAPD02TSlWHDUwTZ2E1qim1hrg4ng7yldY8hR0KW7rH0LPgLD_IZvx2EHhNf2zVCmxEvfSRfK_0EVoHAxYF49Pu3K3Iy0AyFoWPbmVhG38rQxZkhP1E15Z2bOuY43o0DKZwsNYsaaqLKoIUsourRW_b3qDRavyPh9rdyzO-LWbZ7UjKuPRk_Wchs5jk4obnpGGFKf4LbjtVZYS5jBJ0PWvVuw2PkWOcfXwzX-HijcamRigxOHB2BMs4YxiospTMSeyBjMKzjToVndTT-9XypdUsrAf_P3clcOVt8ZemqyytxANtrXREMw-GpS5_V-Z-V7lr8hwbvzhmbe2Dp71V-3G00]--></g></svg>