<svg xmlns="http://www.w3.org/2000/svg" xmlns:xlink="http://www.w3.org/1999/xlink" contentStyleType="text/css" data-diagram-type="CLASS" height="322px" preserveAspectRatio="none" style="width:6208px;height:322px;background:#FFFFFF;" version="1.1" viewBox="0 0 6208 322" width="6208px" zoomAndPan="magnify"><defs/><g><!--entity Feature_User--><g id="elem_Feature_User"><ellipse cx="3051.1685" cy="14" fill="#F1F1F1" rx="8" ry="8" style="stroke:#181818;stroke-width:0.5;"/><path d="M3051.1685,22 L3051.1685,49 M3038.1685,30 L3064.1685,30 M3051.1685,49 L3038.1685,64 M3051.1685,49 L3064.1685,64 " fill="transparent" style="stroke:#181818;stroke-width:0.5;"/><text fill="#000000" font-family="sans-serif" font-size="14" lengthAdjust="spacing" textLength="90.3369" x="3006" y="78.4951">Feature User</text></g><!--class comp_arc_sta__baselibs__filesystem--><g id="elem_comp_arc_sta__baselibs__filesystem"><rect fill="#F1F1F1" height="40" id="comp_arc_sta__baselibs__filesystem" rx="2.5" ry="2.5" style="stroke:#181818;stroke-width:0.5;" width="285.4492" x="5916.5" y="275.5"/><ellipse cx="5931.5" cy="291.5" fill="#ADD1B2" rx="11" ry="11" style="stroke:#181818;stroke-width:1;"/><path d="M5934.4688,297.1406 Q5933.8906,297.4375 5933.25,297.5781 Q5932.6094,297.7344 5931.9063,297.7344 Q5929.4063,297.7344 5928.0781,296.0938 Q5926.7656,294.4375 5926.7656,291.3125 Q5926.7656,288.1875 5928.0781,286.5313 Q5929.4063,284.875 5931.9063,284.875 Q5932.6094,284.875 5933.25,285.0313 Q5933.9063,285.1875 5934.4688,285.4844 L5934.4688,288.2031 Q5933.8438,287.625 5933.25,287.3594 Q5932.6563,287.0781 5932.0313,287.0781 Q5930.6875,287.0781 5930,288.1563 Q5929.3125,289.2188 5929.3125,291.3125 Q5929.3125,293.4063 5930,294.4844 Q5930.6875,295.5469 5932.0313,295.5469 Q5932.6563,295.5469 5933.25,295.2813 Q5933.8438,295 5934.4688,294.4219 L5934.4688,297.1406 Z " fill="#000000"/><text fill="#000000" font-family="sans-serif" font-size="14" lengthAdjust="spacing" textLength="253.4492" x="5945.5" y="296.3467">comp_arc_sta__baselibs__filesystem</text><line style="stroke:#181818;stroke-width:0.5;" x1="5917.5" x2="6200.9492" y1="307.5" y2="307.5"/></g><!--class logic_arc_int__baselibs__filesystem--><g id="elem_logic_arc_int__baselibs__filesystem"><rect fill="#F1F1F1" height="40" id="logic_arc_int__baselibs__filesystem" rx="2.5" ry="2.5" style="stroke:#181818;stroke-width:0.5;" width="276.4805" x="5917" y="158.5"/><ellipse cx="5932" cy="174.5" fill="#ADD1B2" rx="11" ry="11" style="stroke:#181818;stroke-width:1;"/><path d="M5934.9688,180.1406 Q5934.3906,180.4375 5933.75,180.5781 Q5933.1094,180.7344 5932.4063,180.7344 Q5929.9063,180.7344 5928.5781,179.0938 Q5927.2656,177.4375 5927.2656,174.3125 Q5927.2656,171.1875 5928.5781,169.5313 Q5929.9063,167.875 5932.4063,167.875 Q5933.1094,167.875 5933.75,168.0313 Q5934.4063,168.1875 5934.9688,168.4844 L5934.9688,171.2031 Q5934.3438,170.625 5933.75,170.3594 Q5933.1563,170.0781 5932.5313,170.0781 Q5931.1875,170.0781 5930.5,171.1563 Q5929.8125,172.2188 5929.8125,174.3125 Q5929.8125,176.4063 5930.5,177.4844 Q5931.1875,178.5469 5932.5313,178.5469 Q5933.1563,178.5469 5933.75,178.2813 Q5934.3438,178 5934.9688,177.4219 L5934.9688,180.1406 Z " fill="#000000"/><text fill="#000000" font-family="sans-serif" font-size="14" lengthAdjust="spacing" textLength="244.4805" x="5946" y="179.3467">logic_arc_int__baselibs__filesystem</text><line style="stroke:#181818;stroke-width:0.5;" x1="5918" x2="6192.4805" y1="190.5" y2="190.5"/></g><!--class comp_arc_sta__baselibs__result--><g id="elem_comp_arc_sta__baselibs__result"><rect fill="#F1F1F1" height="40" id="comp_arc_sta__baselibs__result" rx="2.5" ry="2.5" style="stroke:#181818;stroke-width:0.5;" width="253.4297" x="5628.5" y="275.5"/><ellipse cx="5643.5" cy="291.5" fill="#ADD1B2" rx="11" ry="11" style="stroke:#181818;stroke-width:1;"/><path d="M5646.4688,297.1406 Q5645.8906,297.4375 5645.25,297.5781 Q5644.6094,297.7344 5643.9063,297.7344 Q5641.4063,297.7344 5640.0781,296.0938 Q5638.7656,294.4375 5638.7656,291.3125 Q5638.7656,288.1875 5640.0781,286.5313 Q5641.4063,284.875 5643.9063,284.875 Q5644.6094,284.875 5645.25,285.0313 Q5645.9063,285.1875 5646.4688,285.4844 L5646.4688,288.2031 Q5645.8438,287.625 5645.25,287.3594 Q5644.6563,287.0781 5644.0313,287.0781 Q5642.6875,287.0781 5642,288.1563 Q5641.3125,289.2188 5641.3125,291.3125 Q5641.3125,293.4063 5642,294.4844 Q5642.6875,295.5469 5644.0313,295.5469 Q5644.6563,295.5469 5645.25,295.2813 Q5645.8438,295 5646.4688,294.4219 L5646.4688,297.1406 Z " fill="#000000"/><text fill="#000000" font-family="sans-serif" font-size="14" lengthAdjust="spacing" textLength="221.4297" x="5657.5" y="296.3467">comp_arc_sta__baselibs__result</text><line style="stroke:#181818;stroke-width:0.5;" x1="5629.5" x2="5880.9297" y1="307.5" y2="307.5"/></g><!--class logic_arc_int__baselibs__result--><g id="elem_logic_arc_int__baselibs__result"><rect fill="#F1F1F1" height="40" id="logic_arc_int__baselibs__result" rx="2.5" ry="2.5" style="stroke:#181818;stroke-width:0.5;" width="244.4609" x="5633" y="158.5"/><ellipse cx="5648" cy="174.5" fill="#ADD1B2" rx="11" ry="11" style="stroke:#181818;stroke-width:1;"/><path d="M5650.9688,180.1406 Q5650.3906,180.4375 5649.75,180.5781 Q5649.1094,180.7344 5648.4063,180.7344 Q5645.9063,180.7344 5644.5781,179.0938 Q5643.2656,177.4375 5643.2656,174.3125 Q5643.2656,171.1875 5644.5781,169.5313 Q5645.9063,167.875 5648.4063,167.875 Q5649.1094,167.875 5649.75,168.0313 Q5650.4063,168.1875 5650.9688,168.4844 L5650.9688,171.2031 Q5650.3438,170.625 5649.75,170.3594 Q5649.1563,170.0781 5648.5313,170.0781 Q5647.1875,170.0781 5646.5,171.1563 Q5645.8125,172.2188 5645.8125,174.3125 Q5645.8125,176.4063 5646.5,177.4844 Q5647.1875,178.5469 5648.5313,178.5469 Q5649.1563,178.5469 5649.75,178.2813 Q5650.3438,178 5650.9688,177.4219 L5650.9688,180.1406 Z " fill="#000000"/><text fill="#000000" font-family="sans-serif" font-size="14" lengthAdjust="spacing" textLength="212.4609" x="5662" y="179.3467">logic_arc_int__baselibs__result</text><line style="stroke:#181818;stroke-width:0.5;" x1="5634" x2="5876.4609" y1="190.5" y2="190.5"/></g><!--class logic_arc_int__baselibs__executor--><g id="elem_logic_arc_int__baselibs__executor"><rect fill="#F1F1F1" height="40" id="logic_arc_int__baselibs__executor" rx="2.5" ry="2.5" style="stroke:#181818;stroke-width:0.5;" width="266.4385" x="649" y="158.5"/><ellipse cx="664" cy="174.5" fill="#ADD1B2" rx="11" ry="11" style="stroke:#181818;stroke-width:1;"/><path d="M666.9688,180.1406 Q666.3906,180.4375 665.75,180.5781 Q665.1094,180.7344 664.4063,180.7344 Q661.9063,180.7344 660.5781,179.0938 Q659.2656,177.4375 659.2656,174.3125 Q659.2656,171.1875 660.5781,169.5313 Q661.9063,167.875 664.4063,167.875 Q665.1094,167.875 665.75,168.0313 Q666.4063,168.1875 666.9688,168.4844 L666.9688,171.2031 Q666.3438,170.625 665.75,170.3594 Q665.1563,170.0781 664.5313,170.0781 Q663.1875,170.0781 662.5,171.1563 Q661.8125,172.2188 661.8125,174.3125 Q661.8125,176.4063 662.5,177.4844 Q663.1875,178.5469 664.5313,178.5469 Q665.1563,178.5469 665.75,178.2813 Q666.3438,178 666.9688,177.4219 L666.9688,180.1406 Z " fill="#000000"/><text fill="#000000" font-family="sans-serif" font-size="14" lengthAdjust="spacing" textLength="234.4385" x="678" y="179.3467">logic_arc_int__baselibs__executor</text><line style="stroke:#181818;stroke-width:0.5;" x1="650" x2="914.4385" y1="190.5" y2="190.5"/></g><!--class comp_arc_sta__baselibs__memory_shared--><g id="elem_comp_arc_sta__baselibs__memory_shared"><rect fill="#F1F1F1" height="40" id="comp_arc_sta__baselibs__memory_shared" rx="2.5" ry="2.5" style="stroke:#181818;stroke-width:0.5;" width="327.0117" x="5266.5" y="275.5"/><ellipse cx="5281.5" cy="291.5" fill="#ADD1B2" rx="11" ry="11" style="stroke:#181818;stroke-width:1;"/><path d="M5284.4688,297.1406 Q5283.8906,297.4375 5283.25,297.5781 Q5282.6094,297.7344 5281.9063,297.7344 Q5279.4063,297.7344 5278.0781,296.0938 Q5276.7656,294.4375 5276.7656,291.3125 Q5276.7656,288.1875 5278.0781,286.5313 Q5279.4063,284.875 5281.9063,284.875 Q5282.6094,284.875 5283.25,285.0313 Q5283.9063,285.1875 5284.4688,285.4844 L5284.4688,288.2031 Q5283.8438,287.625 5283.25,287.3594 Q5282.6563,287.0781 5282.0313,287.0781 Q5280.6875,287.0781 5280,288.1563 Q5279.3125,289.2188 5279.3125,291.3125 Q5279.3125,293.4063 5280,294.4844 Q5280.6875,295.5469 5282.0313,295.5469 Q5282.6563,295.5469 5283.25,295.2813 Q5283.8438,295 5284.4688,294.4219 L5284.4688,297.1406 Z " fill="#000000"/><text fill="#000000" font-family="sans-serif" font-size="14" lengthAdjust="spacing" textLength="295.0117" x="5295.5" y="296.3467">comp_arc_sta__baselibs__memory_shared</text><line style="stroke:#181818;stroke-width:0.5;" x1="5267.5" x2="5592.5117" y1="307.5" y2="307.5"/></g><!--class logic_arc_int__baselibs__memory_shared--><g id="elem_logic_arc_int__baselibs__memory_shared"><rect fill="#F1F1F1" height="40" id="logic_arc_int__baselibs__memory_shared" rx="2.5" ry="2.5" style="stroke:#181818;stroke-width:0.5;" width="318.043" x="5280" y="158.5"/><ellipse cx="5295" cy="174.5" fill="#ADD1B2" rx="11" ry="11" style="stroke:#181818;stroke-width:1;"/><path d="M5297.9688,180.1406 Q5297.3906,180.4375 5296.75,180.5781 Q5296.1094,180.7344 5295.4063,180.7344 Q5292.9063,180.7344 5291.5781,179.0938 Q5290.2656,177.4375 5290.2656,174.3125 Q5290.2656,171.1875 5291.5781,169.5313 Q5292.9063,167.875 5295.4063,167.875 Q5296.1094,167.875 5296.75,168.0313 Q5297.4063,168.1875 5297.9688,168.4844 L5297.9688,171.2031 Q5297.3438,170.625 5296.75,170.3594 Q5296.1563,170.0781 5295.5313,170.0781 Q5294.1875,170.0781 5293.5,171.1563 Q5292.8125,172.2188 5292.8125,174.3125 Q5292.8125,176.4063 5293.5,177.4844 Q5294.1875,178.5469 5295.5313,178.5469 Q5296.1563,178.5469 5296.75,178.2813 Q5297.3438,178 5297.9688,177.4219 L5297.9688,180.1406 Z " fill="#000000"/><text fill="#000000" font-family="sans-serif" font-size="14" lengthAdjust="spacing" textLength="286.043" x="5309" y="179.3467">logic_arc_int__baselibs__memory_shared</text><line style="stroke:#181818;stroke-width:0.5;" x1="5281" x2="5597.043" y1="190.5" y2="190.5"/></g><!--class comp_arc_sta__baselibs__concurrency--><g id="elem_comp_arc_sta__baselibs__concurrency"><rect fill="#F1F1F1" height="40" id="comp_arc_sta__baselibs__concurrency" rx="2.5" ry="2.5" style="stroke:#181818;stroke-width:0.5;" width="300.2012" x="1722" y="275.5"/><ellipse cx="1737" cy="291.5" fill="#ADD1B2" rx="11" ry="11" style="stroke:#181818;stroke-width:1;"/><path d="M1739.9688,297.1406 Q1739.3906,297.4375 1738.75,297.5781 Q1738.1094,297.7344 1737.4063,297.7344 Q1734.9063,297.7344 1733.5781,296.0938 Q1732.2656,294.4375 1732.2656,291.3125 Q1732.2656,288.1875 1733.5781,286.5313 Q1734.9063,284.875 1737.4063,284.875 Q1738.1094,284.875 1738.75,285.0313 Q1739.4063,285.1875 1739.9688,285.4844 L1739.9688,288.2031 Q1739.3438,287.625 1738.75,287.3594 Q1738.1563,287.0781 1737.5313,287.0781 Q1736.1875,287.0781 1735.5,288.1563 Q1734.8125,289.2188 1734.8125,291.3125 Q1734.8125,293.4063 1735.5,294.4844 Q1736.1875,295.5469 1737.5313,295.5469 Q1738.1563,295.5469 1738.75,295.2813 Q1739.3438,295 1739.9688,294.4219 L1739.9688,297.1406 Z " fill="#000000"/><text fill="#000000" font-family="sans-serif" font-size="14" lengthAdjust="spacing" textLength="268.2012" x="1751" y="296.3467">comp_arc_sta__baselibs__concurrency</text><line style="stroke:#181818;stroke-width:0.5;" x1="1723" x2="2021.2012" y1="307.5" y2="307.5"/></g><!--class logic_arc_int__baselibs__promise--><g id="elem_logic_arc_int__baselibs__promise"><rect fill="#F1F1F1" height="40" id="logic_arc_int__baselibs__promise" rx="2.5" ry="2.5" style="stroke:#181818;stroke-width:0.5;" width="261.1885" x="1232.5" y="158.5"/><ellipse cx="1247.5" cy="174.5" fill="#ADD1B2" rx="11" ry="11" style="stroke:#181818;stroke-width:1;"/><path d="M1250.4688,180.1406 Q1249.8906,180.4375 1249.25,180.5781 Q1248.6094,180.7344 1247.9063,180.7344 Q1245.4063,180.7344 1244.0781,179.0938 Q1242.7656,177.4375 1242.7656,174.3125 Q1242.7656,171.1875 1244.0781,169.5313 Q1245.4063,167.875 1247.9063,167.875 Q1248.6094,167.875 1249.25,168.0313 Q1249.9063,168.1875 1250.4688,168.4844 L1250.4688,171.2031 Q1249.8438,170.625 1249.25,170.3594 Q1248.6563,170.0781 1248.0313,170.0781 Q1246.6875,170.0781 1246,171.1563 Q1245.3125,172.2188 1245.3125,174.3125 Q1245.3125,176.4063 1246,177.4844 Q1246.6875,178.5469 1248.0313,178.5469 Q1248.6563,178.5469 1249.25,178.2813 Q1249.8438,178 1250.4688,177.4219 L1250.4688,180.1406 Z " fill="#000000"/><text fill="#000000" font-family="sans-serif" font-size="14" lengthAdjust="spacing" textLength="229.1885" x="1261.5" y="179.3467">logic_arc_int__baselibs__promise</text><line style="stroke:#181818;stroke-width:0.5;" x1="1233.5" x2="1492.6885" y1="190.5" y2="190.5"/></g><!--class logic_arc_int__baselibs__message_passing--><g id="elem_logic_arc_int__baselibs__message_passing"><rect fill="#F1F1F1" height="40" id="logic_arc_int__baselibs__message_passing" rx="2.5" ry="2.5" style="stroke:#181818;stroke-width:0.5;" width="328.167" x="286" y="158.5"/><ellipse cx="301" cy="174.5" fill="#ADD1B2" rx="11" ry="11" style="stroke:#181818;stroke-width:1;"/><path d="M303.9688,180.1406 Q303.3906,180.4375 302.75,180.5781 Q302.1094,180.7344 301.4063,180.7344 Q298.9063,180.7344 297.5781,179.0938 Q296.2656,177.4375 296.2656,174.3125 Q296.2656,171.1875 297.5781,169.5313 Q298.9063,167.875 301.4063,167.875 Q302.1094,167.875 302.75,168.0313 Q303.4063,168.1875 303.9688,168.4844 L303.9688,171.2031 Q303.3438,170.625 302.75,170.3594 Q302.1563,170.0781 301.5313,170.0781 Q300.1875,170.0781 299.5,171.1563 Q298.8125,172.2188 298.8125,174.3125 Q298.8125,176.4063 299.5,177.4844 Q300.1875,178.5469 301.5313,178.5469 Q302.1563,178.5469 302.75,178.2813 Q303.3438,178 303.9688,177.4219 L303.9688,180.1406 Z " fill="#000000"/><text fill="#000000" font-family="sans-serif" font-size="14" lengthAdjust="spacing" textLength="296.167" x="315" y="179.3467">logic_arc_int__baselibs__message_passing</text><line style="stroke:#181818;stroke-width:0.5;" x1="287" x2="613.167" y1="190.5" y2="190.5"/></g><!--class logic_arc_int__baselibs__synchronized_queue--><g id="elem_logic_arc_int__baselibs__synchronized_queue"><rect fill="#F1F1F1" height="40" id="logic_arc_int__baselibs__synchronized_queue" rx="2.5" ry="2.5" style="stroke:#181818;stroke-width:0.5;" width="348.3604" x="2234" y="158.5"/><ellipse cx="2249" cy="174.5" fill="#ADD1B2" rx="11" ry="11" style="stroke:#181818;stroke-width:1;"/><path d="M2251.9688,180.1406 Q2251.3906,180.4375 2250.75,180.5781 Q2250.1094,180.7344 2249.4063,180.7344 Q2246.9063,180.7344 2245.5781,179.0938 Q2244.2656,177.4375 2244.2656,174.3125 Q2244.2656,171.1875 2245.5781,169.5313 Q2246.9063,167.875 2249.4063,167.875 Q2250.1094,167.875 2250.75,168.0313 Q2251.4063,168.1875 2251.9688,168.4844 L2251.9688,171.2031 Q2251.3438,170.625 2250.75,170.3594 Q2250.1563,170.0781 2249.5313,170.0781 Q2248.1875,170.0781 2247.5,171.1563 Q2246.8125,172.2188 2246.8125,174.3125 Q2246.8125,176.4063 2247.5,177.4844 Q2248.1875,178.5469 2249.5313,178.5469 Q2250.1563,178.5469 2250.75,178.2813 Q2251.3438,178 2251.9688,177.4219 L2251.9688,180.1406 Z " fill="#000000"/><text fill="#000000" font-family="sans-serif" font-size="14" lengthAdjust="spacing" textLength="316.3604" x="2263" y="179.3467">logic_arc_int__baselibs__synchronized_queue</text><line style="stroke:#181818;stroke-width:0.5;" x1="2235" x2="2581.3604" y1="190.5" y2="190.5"/></g><!--class comp_arc_sta__baselibs__utils--><g id="elem_comp_arc_sta__baselibs__utils"><rect fill="#F1F1F1" height="40" id="comp_arc_sta__baselibs__utils" rx="2.5" ry="2.5" style="stroke:#181818;stroke-width:0.5;" width="242.9502" x="4068.5" y="275.5"/><ellipse cx="4083.5" cy="291.5" fill="#ADD1B2" rx="11" ry="11" style="stroke:#181818;stroke-width:1;"/><path d="M4086.4688,297.1406 Q4085.8906,297.4375 4085.25,297.5781 Q4084.6094,297.7344 4083.9063,297.7344 Q4081.4063,297.7344 4080.0781,296.0938 Q4078.7656,294.4375 4078.7656,291.3125 Q4078.7656,288.1875 4080.0781,286.5313 Q4081.4063,284.875 4083.9063,284.875 Q4084.6094,284.875 4085.25,285.0313 Q4085.9063,285.1875 4086.4688,285.4844 L4086.4688,288.2031 Q4085.8438,287.625 4085.25,287.3594 Q4084.6563,287.0781 4084.0313,287.0781 Q4082.6875,287.0781 4082,288.1563 Q4081.3125,289.2188 4081.3125,291.3125 Q4081.3125,293.4063 4082,294.4844 Q4082.6875,295.5469 4084.0313,295.5469 Q4084.6563,295.5469 4085.25,295.2813 Q4085.8438,295 4086.4688,294.4219 L4086.4688,297.1406 Z " fill="#000000"/><text fill="#000000" font-family="sans-serif" font-size="14" lengthAdjust="spacing" textLength="210.9502" x="4097.5" y="296.3467">comp_arc_sta__baselibs__utils</text><line style="stroke:#181818;stroke-width:0.5;" x1="4069.5" x2="4310.4502" y1="307.5" y2="307.5"/></g><!--class logic_arc_int__baselibs__utils_base64--><g id="elem_logic_arc_int__baselibs__utils_base64"><rect fill="#F1F1F1" height="40" id="logic_arc_int__baselibs__utils_base64" rx="2.5" ry="2.5" style="stroke:#181818;stroke-width:0.5;" width="292.1689" x="3875" y="158.5"/><ellipse cx="3890" cy="174.5" fill="#ADD1B2" rx="11" ry="11" style="stroke:#181818;stroke-width:1;"/><path d="M3892.9688,180.1406 Q3892.3906,180.4375 3891.75,180.5781 Q3891.1094,180.7344 3890.4063,180.7344 Q3887.9063,180.7344 3886.5781,179.0938 Q3885.2656,177.4375 3885.2656,174.3125 Q3885.2656,171.1875 3886.5781,169.5313 Q3887.9063,167.875 3890.4063,167.875 Q3891.1094,167.875 3891.75,168.0313 Q3892.4063,168.1875 3892.9688,168.4844 L3892.9688,171.2031 Q3892.3438,170.625 3891.75,170.3594 Q3891.1563,170.0781 3890.5313,170.0781 Q3889.1875,170.0781 3888.5,171.1563 Q3887.8125,172.2188 3887.8125,174.3125 Q3887.8125,176.4063 3888.5,177.4844 Q3889.1875,178.5469 3890.5313,178.5469 Q3891.1563,178.5469 3891.75,178.2813 Q3892.3438,178 3892.9688,177.4219 L3892.9688,180.1406 Z " fill="#000000"/><text fill="#000000" font-family="sans-serif" font-size="14" lengthAdjust="spacing" textLength="260.1689" x="3904" y="179.3467">logic_arc_int__baselibs__utils_base64</text><line style="stroke:#181818;stroke-width:0.5;" x1="3876" x2="4166.1689" y1="190.5" y2="190.5"/></g><!--class comp_arc_sta__baselibs__bit_manipulation--><g id="elem_comp_arc_sta__baselibs__bit_manipulation"><rect fill="#F1F1F1" height="40" id="comp_arc_sta__baselibs__bit_manipulation" rx="2.5" ry="2.5" style="stroke:#181818;stroke-width:0.5;" width="330.8057" x="4734.5" y="275.5"/><ellipse cx="4749.5" cy="291.5" fill="#ADD1B2" rx="11" ry="11" style="stroke:#181818;stroke-width:1;"/><path d="M4752.4688,297.1406 Q4751.8906,297.4375 4751.25,297.5781 Q4750.6094,297.7344 4749.9063,297.7344 Q4747.4063,297.7344 4746.0781,296.0938 Q4744.7656,294.4375 4744.7656,291.3125 Q4744.7656,288.1875 4746.0781,286.5313 Q4747.4063,284.875 4749.9063,284.875 Q4750.6094,284.875 4751.25,285.0313 Q4751.9063,285.1875 4752.4688,285.4844 L4752.4688,288.2031 Q4751.8438,287.625 4751.25,287.3594 Q4750.6563,287.0781 4750.0313,287.0781 Q4748.6875,287.0781 4748,288.1563 Q4747.3125,289.2188 4747.3125,291.3125 Q4747.3125,293.4063 4748,294.4844 Q4748.6875,295.5469 4750.0313,295.5469 Q4750.6563,295.5469 4751.25,295.2813 Q4751.8438,295 4752.4688,294.4219 L4752.4688,297.1406 Z " fill="#000000"/><text fill="#000000" font-family="sans-serif" font-size="14" lengthAdjust="spacing" textLength="298.8057" x="4763.5" y="296.3467">comp_arc_sta__baselibs__bit_manipulation</text><line style="stroke:#181818;stroke-width:0.5;" x1="4735.5" x2="5064.3057" y1="307.5" y2="307.5"/></g><!--class logic_arc_int__baselibs__bit_mask_operator--><g id="elem_logic_arc_int__baselibs__bit_mask_operator"><rect fill="#F1F1F1" height="40" id="logic_arc_int__baselibs__bit_mask_operator" rx="2.5" ry="2.5" style="stroke:#181818;stroke-width:0.5;" width="334.6406" x="4552.5" y="158.5"/><ellipse cx="4567.5" cy="174.5" fill="#ADD1B2" rx="11" ry="11" style="stroke:#181818;stroke-width:1;"/><path d="M4570.4688,180.1406 Q4569.8906,180.4375 4569.25,180.5781 Q4568.6094,180.7344 4567.9063,180.7344 Q4565.4063,180.7344 4564.0781,179.0938 Q4562.7656,177.4375 4562.7656,174.3125 Q4562.7656,171.1875 4564.0781,169.5313 Q4565.4063,167.875 4567.9063,167.875 Q4568.6094,167.875 4569.25,168.0313 Q4569.9063,168.1875 4570.4688,168.4844 L4570.4688,171.2031 Q4569.8438,170.625 4569.25,170.3594 Q4568.6563,170.0781 4568.0313,170.0781 Q4566.6875,170.0781 4566,171.1563 Q4565.3125,172.2188 4565.3125,174.3125 Q4565.3125,176.4063 4566,177.4844 Q4566.6875,178.5469 4568.0313,178.5469 Q4568.6563,178.5469 4569.25,178.2813 Q4569.8438,178 4570.4688,177.4219 L4570.4688,180.1406 Z " fill="#000000"/><text fill="#000000" font-family="sans-serif" font-size="14" lengthAdjust="spacing" textLength="302.6406" x="4581.5" y="179.3467">logic_arc_int__baselibs__bit_mask_operator</text><line style="stroke:#181818;stroke-width:0.5;" x1="4553.5" x2="4886.1406" y1="190.5" y2="190.5"/></g><!--class comp_arc_sta__baselibs__containers--><g id="elem_comp_arc_sta__baselibs__containers"><rect fill="#F1F1F1" height="40" id="comp_arc_sta__baselibs__containers" rx="2.5" ry="2.5" style="stroke:#181818;stroke-width:0.5;" width="287.1445" x="3373.5" y="275.5"/><ellipse cx="3388.5" cy="291.5" fill="#ADD1B2" rx="11" ry="11" style="stroke:#181818;stroke-width:1;"/><path d="M3391.4688,297.1406 Q3390.8906,297.4375 3390.25,297.5781 Q3389.6094,297.7344 3388.9063,297.7344 Q3386.4063,297.7344 3385.0781,296.0938 Q3383.7656,294.4375 3383.7656,291.3125 Q3383.7656,288.1875 3385.0781,286.5313 Q3386.4063,284.875 3388.9063,284.875 Q3389.6094,284.875 3390.25,285.0313 Q3390.9063,285.1875 3391.4688,285.4844 L3391.4688,288.2031 Q3390.8438,287.625 3390.25,287.3594 Q3389.6563,287.0781 3389.0313,287.0781 Q3387.6875,287.0781 3387,288.1563 Q3386.3125,289.2188 3386.3125,291.3125 Q3386.3125,293.4063 3387,294.4844 Q3387.6875,295.5469 3389.0313,295.5469 Q3389.6563,295.5469 3390.25,295.2813 Q3390.8438,295 3391.4688,294.4219 L3391.4688,297.1406 Z " fill="#000000"/><text fill="#000000" font-family="sans-serif" font-size="14" lengthAdjust="spacing" textLength="255.1445" x="3402.5" y="296.3467">comp_arc_sta__baselibs__containers</text><line style="stroke:#181818;stroke-width:0.5;" x1="3374.5" x2="3659.6445" y1="307.5" y2="307.5"/></g><!--class logic_arc_int__baselibs__intrusive_list--><g id="elem_logic_arc_int__baselibs__intrusive_list"><rect fill="#F1F1F1" height="40" id="logic_arc_int__baselibs__intrusive_list" rx="2.5" ry="2.5" style="stroke:#181818;stroke-width:0.5;" width="293.0713" x="3203.5" y="158.5"/><ellipse cx="3218.5" cy="174.5" fill="#ADD1B2" rx="11" ry="11" style="stroke:#181818;stroke-width:1;"/><path d="M3221.4688,180.1406 Q3220.8906,180.4375 3220.25,180.5781 Q3219.6094,180.7344 3218.9063,180.7344 Q3216.4063,180.7344 3215.0781,179.0938 Q3213.7656,177.4375 3213.7656,174.3125 Q3213.7656,171.1875 3215.0781,169.5313 Q3216.4063,167.875 3218.9063,167.875 Q3219.6094,167.875 3220.25,168.0313 Q3220.9063,168.1875 3221.4688,168.4844 L3221.4688,171.2031 Q3220.8438,170.625 3220.25,170.3594 Q3219.6563,170.0781 3219.0313,170.0781 Q3217.6875,170.0781 3217,171.1563 Q3216.3125,172.2188 3216.3125,174.3125 Q3216.3125,176.4063 3217,177.4844 Q3217.6875,178.5469 3219.0313,178.5469 Q3219.6563,178.5469 3220.25,178.2813 Q3220.8438,178 3221.4688,177.4219 L3221.4688,180.1406 Z " fill="#000000"/><text fill="#000000" font-family="sans-serif" font-size="14" lengthAdjust="spacing" textLength="261.0713" x="3232.5" y="179.3467">logic_arc_int__baselibs__intrusive_list</text><line style="stroke:#181818;stroke-width:0.5;" x1="3204.5" x2="3495.5713" y1="190.5" y2="190.5"/></g><!--class logic_arc_int__baselibs__task_result--><g id="elem_logic_arc_int__baselibs__task_result"><rect fill="#F1F1F1" height="40" id="logic_arc_int__baselibs__task_result" rx="2.5" ry="2.5" style="stroke:#181818;stroke-width:0.5;" width="280.9307" x="2617.5" y="158.5"/><ellipse cx="2632.5" cy="174.5" fill="#ADD1B2" rx="11" ry="11" style="stroke:#181818;stroke-width:1;"/><path d="M2635.4688,180.1406 Q2634.8906,180.4375 2634.25,180.5781 Q2633.6094,180.7344 2632.9063,180.7344 Q2630.4063,180.7344 2629.0781,179.0938 Q2627.7656,177.4375 2627.7656,174.3125 Q2627.7656,171.1875 2629.0781,169.5313 Q2630.4063,167.875 2632.9063,167.875 Q2633.6094,167.875 2634.25,168.0313 Q2634.9063,168.1875 2635.4688,168.4844 L2635.4688,171.2031 Q2634.8438,170.625 2634.25,170.3594 Q2633.6563,170.0781 2633.0313,170.0781 Q2631.6875,170.0781 2631,171.1563 Q2630.3125,172.2188 2630.3125,174.3125 Q2630.3125,176.4063 2631,177.4844 Q2631.6875,178.5469 2633.0313,178.5469 Q2633.6563,178.5469 2634.25,178.2813 Q2634.8438,178 2635.4688,177.4219 L2635.4688,180.1406 Z " fill="#000000"/><text fill="#000000" font-family="sans-serif" font-size="14" lengthAdjust="spacing" textLength="248.9307" x="2646.5" y="179.3467">logic_arc_int__baselibs__task_result</text><line style="stroke:#181818;stroke-width:0.5;" x1="2618.5" x2="2897.4307" y1="190.5" y2="190.5"/></g><!--class logic_arc_int__baselibs__task--><g id="elem_logic_arc_int__baselibs__task"><rect fill="#F1F1F1" height="40" id="logic_arc_int__baselibs__task" rx="2.5" ry="2.5" style="stroke:#181818;stroke-width:0.5;" width="234.0156" x="2934" y="158.5"/><ellipse cx="2949" cy="174.5" fill="#ADD1B2" rx="11" ry="11" style="stroke:#181818;stroke-width:1;"/><path d="M2951.9688,180.1406 Q2951.3906,180.4375 2950.75,180.5781 Q2950.1094,180.7344 2949.4063,180.7344 Q2946.9063,180.7344 2945.5781,179.0938 Q2944.2656,177.4375 2944.2656,174.3125 Q2944.2656,171.1875 2945.5781,169.5313 Q2946.9063,167.875 2949.4063,167.875 Q2950.1094,167.875 2950.75,168.0313 Q2951.4063,168.1875 2951.9688,168.4844 L2951.9688,171.2031 Q2951.3438,170.625 2950.75,170.3594 Q2950.1563,170.0781 2949.5313,170.0781 Q2948.1875,170.0781 2947.5,171.1563 Q2946.8125,172.2188 2946.8125,174.3125 Q2946.8125,176.4063 2947.5,177.4844 Q2948.1875,178.5469 2949.5313,178.5469 Q2950.1563,178.5469 2950.75,178.2813 Q2951.3438,178 2951.9688,177.4219 L2951.9688,180.1406 Z " fill="#000000"/><text fill="#000000" font-family="sans-serif" font-size="14" lengthAdjust="spacing" textLength="202.0156" x="2963" y="179.3467">logic_arc_int__baselibs__task</text><line style="stroke:#181818;stroke-width:0.5;" x1="2935" x2="3167.0156" y1="190.5" y2="190.5"/></g><!--class logic_arc_int__baselibs__condition_variable--><g id="elem_logic_arc_int__baselibs__condition_variable"><rect fill="#F1F1F1" height="40" id="logic_arc_int__baselibs__condition_variable" rx="2.5" ry="2.5" style="stroke:#181818;stroke-width:0.5;" width="332.7539" x="1528.5" y="158.5"/><ellipse cx="1543.5" cy="174.5" fill="#ADD1B2" rx="11" ry="11" style="stroke:#181818;stroke-width:1;"/><path d="M1546.4688,180.1406 Q1545.8906,180.4375 1545.25,180.5781 Q1544.6094,180.7344 1543.9063,180.7344 Q1541.4063,180.7344 1540.0781,179.0938 Q1538.7656,177.4375 1538.7656,174.3125 Q1538.7656,171.1875 1540.0781,169.5313 Q1541.4063,167.875 1543.9063,167.875 Q1544.6094,167.875 1545.25,168.0313 Q1545.9063,168.1875 1546.4688,168.4844 L1546.4688,171.2031 Q1545.8438,170.625 1545.25,170.3594 Q1544.6563,170.0781 1544.0313,170.0781 Q1542.6875,170.0781 1542,171.1563 Q1541.3125,172.2188 1541.3125,174.3125 Q1541.3125,176.4063 1542,177.4844 Q1542.6875,178.5469 1544.0313,178.5469 Q1544.6563,178.5469 1545.25,178.2813 Q1545.8438,178 1546.4688,177.4219 L1546.4688,180.1406 Z " fill="#000000"/><text fill="#000000" font-family="sans-serif" font-size="14" lengthAdjust="spacing" textLength="300.7539" x="1557.5" y="179.3467">logic_arc_int__baselibs__condition_variable</text><line style="stroke:#181818;stroke-width:0.5;" x1="1529.5" x2="1860.2539" y1="190.5" y2="190.5"/></g><!--class logic_arc_int__baselibs__bit_manipulation--><g id="elem_logic_arc_int__baselibs__bit_manipulation"><rect fill="#F1F1F1" height="40" id="logic_arc_int__baselibs__bit_manipulation" rx="2.5" ry="2.5" style="stroke:#181818;stroke-width:0.5;" width="321.8369" x="4923" y="158.5"/><ellipse cx="4938" cy="174.5" fill="#ADD1B2" rx="11" ry="11" style="stroke:#181818;stroke-width:1;"/><path d="M4940.9688,180.1406 Q4940.3906,180.4375 4939.75,180.5781 Q4939.1094,180.7344 4938.4063,180.7344 Q4935.9063,180.7344 4934.5781,179.0938 Q4933.2656,177.4375 4933.2656,174.3125 Q4933.2656,171.1875 4934.5781,169.5313 Q4935.9063,167.875 4938.4063,167.875 Q4939.1094,167.875 4939.75,168.0313 Q4940.4063,168.1875 4940.9688,168.4844 L4940.9688,171.2031 Q4940.3438,170.625 4939.75,170.3594 Q4939.1563,170.0781 4938.5313,170.0781 Q4937.1875,170.0781 4936.5,171.1563 Q4935.8125,172.2188 4935.8125,174.3125 Q4935.8125,176.4063 4936.5,177.4844 Q4937.1875,178.5469 4938.5313,178.5469 Q4939.1563,178.5469 4939.75,178.2813 Q4940.3438,178 4940.9688,177.4219 L4940.9688,180.1406 Z " fill="#000000"/><text fill="#000000" font-family="sans-serif" font-size="14" lengthAdjust="spacing" textLength="289.8369" x="4952" y="179.3467">logic_arc_int__baselibs__bit_manipulation</text><line style="stroke:#181818;stroke-width:0.5;" x1="4924" x2="5243.8369" y1="190.5" y2="190.5"/></g><!--class logic_arc_int__baselibs__dynamic_array--><g id="elem_logic_arc_int__baselibs__dynamic_array"><rect fill="#F1F1F1" height="40" id="logic_arc_int__baselibs__dynamic_array" rx="2.5" ry="2.5" style="stroke:#181818;stroke-width:0.5;" width="308.3496" x="3532" y="158.5"/><ellipse cx="3547" cy="174.5" fill="#ADD1B2" rx="11" ry="11" style="stroke:#181818;stroke-width:1;"/><path d="M3549.9688,180.1406 Q3549.3906,180.4375 3548.75,180.5781 Q3548.1094,180.7344 3547.4063,180.7344 Q3544.9063,180.7344 3543.5781,179.0938 Q3542.2656,177.4375 3542.2656,174.3125 Q3542.2656,171.1875 3543.5781,169.5313 Q3544.9063,167.875 3547.4063,167.875 Q3548.1094,167.875 3548.75,168.0313 Q3549.4063,168.1875 3549.9688,168.4844 L3549.9688,171.2031 Q3549.3438,170.625 3548.75,170.3594 Q3548.1563,170.0781 3547.5313,170.0781 Q3546.1875,170.0781 3545.5,171.1563 Q3544.8125,172.2188 3544.8125,174.3125 Q3544.8125,176.4063 3545.5,177.4844 Q3546.1875,178.5469 3547.5313,178.5469 Q3548.1563,178.5469 3548.75,178.2813 Q3549.3438,178 3549.9688,177.4219 L3549.9688,180.1406 Z " fill="#000000"/><text fill="#000000" font-family="sans-serif" font-size="14" lengthAdjust="spacing" textLength="276.3496" x="3561" y="179.3467">logic_arc_int__baselibs__dynamic_array</text><line style="stroke:#181818;stroke-width:0.5;" x1="3533" x2="3839.3496" y1="190.5" y2="190.5"/></g><!--class logic_arc_int__baselibs__future--><g id="elem_logic_arc_int__baselibs__future"><rect fill="#F1F1F1" height="40" id="logic_arc_int__baselibs__future" rx="2.5" ry="2.5" style="stroke:#181818;stroke-width:0.5;" width="247.0791" x="950.5" y="158.5"/><ellipse cx="965.5" cy="174.5" fill="#ADD1B2" rx="11" ry="11" style="stroke:#181818;stroke-width:1;"/><path d="M968.4688,180.1406 Q967.8906,180.4375 967.25,180.5781 Q966.6094,180.7344 965.9063,180.7344 Q963.4063,180.7344 962.0781,179.0938 Q960.7656,177.4375 960.7656,174.3125 Q960.7656,171.1875 962.0781,169.5313 Q963.4063,167.875 965.9063,167.875 Q966.6094,167.875 967.25,168.0313 Q967.9063,168.1875 968.4688,168.4844 L968.4688,171.2031 Q967.8438,170.625 967.25,170.3594 Q966.6563,170.0781 966.0313,170.0781 Q964.6875,170.0781 964,171.1563 Q963.3125,172.2188 963.3125,174.3125 Q963.3125,176.4063 964,177.4844 Q964.6875,178.5469 966.0313,178.5469 Q966.6563,178.5469 967.25,178.2813 Q967.8438,178 968.4688,177.4219 L968.4688,180.1406 Z " fill="#000000"/><text fill="#000000" font-family="sans-serif" font-size="14" lengthAdjust="spacing" textLength="215.0791" x="979.5" y="179.3467">logic_arc_int__baselibs__future</text><line style="stroke:#181818;stroke-width:0.5;" x1="951.5" x2="1196.5791" y1="190.5" y2="190.5"/></g><!--class logic_arc_int__baselibs__json--><g id="elem_logic_arc_int__baselibs__json"><rect fill="#F1F1F1" height="40" id="logic_arc_int__baselibs__json" rx="2.5" ry="2.5" style="stroke:#181818;stroke-width:0.5;" width="233.168" x="15.5" y="158.5"/><ellipse cx="30.5" cy="174.5" fill="#ADD1B2" rx="11" ry="11" style="stroke:#181818;stroke-width:1;"/><path d="M33.4688,180.1406 Q32.8906,180.4375 32.25,180.5781 Q31.6094,180.7344 30.9063,180.7344 Q28.4063,180.7344 27.0781,179.0938 Q25.7656,177.4375 25.7656,174.3125 Q25.7656,171.1875 27.0781,169.5313 Q28.4063,167.875 30.9063,167.875 Q31.6094,167.875 32.25,168.0313 Q32.9063,168.1875 33.4688,168.4844 L33.4688,171.2031 Q32.8438,170.625 32.25,170.3594 Q31.6563,170.0781 31.0313,170.0781 Q29.6875,170.0781 29,171.1563 Q28.3125,172.2188 28.3125,174.3125 Q28.3125,176.4063 29,177.4844 Q29.6875,178.5469 31.0313,178.5469 Q31.6563,178.5469 32.25,178.2813 Q32.8438,178 33.4688,177.4219 L33.4688,180.1406 Z " fill="#000000"/><text fill="#000000" font-family="sans-serif" font-size="14" lengthAdjust="spacing" textLength="201.168" x="44.5" y="179.3467">logic_arc_int__baselibs__json</text><line style="stroke:#181818;stroke-width:0.5;" x1="16.5" x2="247.668" y1="190.5" y2="190.5"/></g><!--class logic_arc_int__baselibs__utils_scoped_op--><g id="elem_logic_arc_int__baselibs__utils_scoped_op"><rect fill="#F1F1F1" height="40" id="logic_arc_int__baselibs__utils_scoped_op" rx="2.5" ry="2.5" style="stroke:#181818;stroke-width:0.5;" width="315.377" x="4202.5" y="158.5"/><ellipse cx="4217.5" cy="174.5" fill="#ADD1B2" rx="11" ry="11" style="stroke:#181818;stroke-width:1;"/><path d="M4220.4688,180.1406 Q4219.8906,180.4375 4219.25,180.5781 Q4218.6094,180.7344 4217.9063,180.7344 Q4215.4063,180.7344 4214.0781,179.0938 Q4212.7656,177.4375 4212.7656,174.3125 Q4212.7656,171.1875 4214.0781,169.5313 Q4215.4063,167.875 4217.9063,167.875 Q4218.6094,167.875 4219.25,168.0313 Q4219.9063,168.1875 4220.4688,168.4844 L4220.4688,171.2031 Q4219.8438,170.625 4219.25,170.3594 Q4218.6563,170.0781 4218.0313,170.0781 Q4216.6875,170.0781 4216,171.1563 Q4215.3125,172.2188 4215.3125,174.3125 Q4215.3125,176.4063 4216,177.4844 Q4216.6875,178.5469 4218.0313,178.5469 Q4218.6563,178.5469 4219.25,178.2813 Q4219.8438,178 4220.4688,177.4219 L4220.4688,180.1406 Z " fill="#000000"/><text fill="#000000" font-family="sans-serif" font-size="14" lengthAdjust="spacing" textLength="283.377" x="4231.5" y="179.3467">logic_arc_int__baselibs__utils_scoped_op</text><line style="stroke:#181818;stroke-width:0.5;" x1="4203.5" x2="4516.877" y1="190.5" y2="190.5"/></g><!--class logic_arc_int__baselibs__shared_future--><g id="elem_logic_arc_int__baselibs__shared_future"><rect fill="#F1F1F1" height="40" id="logic_arc_int__baselibs__shared_future" rx="2.5" ry="2.5" style="stroke:#181818;stroke-width:0.5;" width="302.0811" x="1897" y="158.5"/><ellipse cx="1912" cy="174.5" fill="#ADD1B2" rx="11" ry="11" style="stroke:#181818;stroke-width:1;"/><path d="M1914.9688,180.1406 Q1914.3906,180.4375 1913.75,180.5781 Q1913.1094,180.7344 1912.4063,180.7344 Q1909.9063,180.7344 1908.5781,179.0938 Q1907.2656,177.4375 1907.2656,174.3125 Q1907.2656,171.1875 1908.5781,169.5313 Q1909.9063,167.875 1912.4063,167.875 Q1913.1094,167.875 1913.75,168.0313 Q1914.4063,168.1875 1914.9688,168.4844 L1914.9688,171.2031 Q1914.3438,170.625 1913.75,170.3594 Q1913.1563,170.0781 1912.5313,170.0781 Q1911.1875,170.0781 1910.5,171.1563 Q1909.8125,172.2188 1909.8125,174.3125 Q1909.8125,176.4063 1910.5,177.4844 Q1911.1875,178.5469 1912.5313,178.5469 Q1913.1563,178.5469 1913.75,178.2813 Q1914.3438,178 1914.9688,177.4219 L1914.9688,180.1406 Z " fill="#000000"/><text fill="#000000" font-family="sans-serif" font-size="14" lengthAdjust="spacing" textLength="270.0811" x="1926" y="179.3467">logic_arc_int__baselibs__shared_future</text><line style="stroke:#181818;stroke-width:0.5;" x1="1898" x2="2198.0811" y1="190.5" y2="190.5"/></g><!--class comp_arc_sta__baselibs__message_passing--><g id="elem_comp_arc_sta__baselibs__message_passing"><rect fill="#F1F1F1" height="40" id="comp_arc_sta__baselibs__message_passing" rx="2.5" ry="2.5" style="stroke:#181818;stroke-width:0.5;" width="337.1357" x="284.5" y="275.5"/><ellipse cx="299.5" cy="291.5" fill="#ADD1B2" rx="11" ry="11" style="stroke:#181818;stroke-width:1;"/><path d="M302.4688,297.1406 Q301.8906,297.4375 301.25,297.5781 Q300.6094,297.7344 299.9063,297.7344 Q297.4063,297.7344 296.0781,296.0938 Q294.7656,294.4375 294.7656,291.3125 Q294.7656,288.1875 296.0781,286.5313 Q297.4063,284.875 299.9063,284.875 Q300.6094,284.875 301.25,285.0313 Q301.9063,285.1875 302.4688,285.4844 L302.4688,288.2031 Q301.8438,287.625 301.25,287.3594 Q300.6563,287.0781 300.0313,287.0781 Q298.6875,287.0781 298,288.1563 Q297.3125,289.2188 297.3125,291.3125 Q297.3125,293.4063 298,294.4844 Q298.6875,295.5469 300.0313,295.5469 Q300.6563,295.5469 301.25,295.2813 Q301.8438,295 302.4688,294.4219 L302.4688,297.1406 Z " fill="#000000"/><text fill="#000000" font-family="sans-serif" font-size="14" lengthAdjust="spacing" textLength="305.1357" x="313.5" y="296.3467">comp_arc_sta__baselibs__message_passing</text><line style="stroke:#181818;stroke-width:0.5;" x1="285.5" x2="620.6357" y1="307.5" y2="307.5"/></g><!--class comp_arc_sta__baselibs__json--><g id="elem_comp_arc_sta__baselibs__json"><rect fill="#F1F1F1" height="40" id="comp_arc_sta__baselibs__json" rx="2.5" ry="2.5" style="stroke:#181818;stroke-width:0.5;" width="242.1367" x="7" y="275.5"/><ellipse cx="22" cy="291.5" fill="#ADD1B2" rx="11" ry="11" style="stroke:#181818;stroke-width:1;"/><path d="M24.9688,297.1406 Q24.3906,297.4375 23.75,297.5781 Q23.1094,297.7344 22.4063,297.7344 Q19.9063,297.7344 18.5781,296.0938 Q17.2656,294.4375 17.2656,291.3125 Q17.2656,288.1875 18.5781,286.5313 Q19.9063,284.875 22.4063,284.875 Q23.1094,284.875 23.75,285.0313 Q24.4063,285.1875 24.9688,285.4844 L24.9688,288.2031 Q24.3438,287.625 23.75,287.3594 Q23.1563,287.0781 22.5313,287.0781 Q21.1875,287.0781 20.5,288.1563 Q19.8125,289.2188 19.8125,291.3125 Q19.8125,293.4063 20.5,294.4844 Q21.1875,295.5469 22.5313,295.5469 Q23.1563,295.5469 23.75,295.2813 Q24.3438,295 24.9688,294.4219 L24.9688,297.1406 Z " fill="#000000"/><text fill="#000000" font-family="sans-serif" font-size="14" lengthAdjust="spacing" textLength="210.1367" x="36" y="296.3467">comp_arc_sta__baselibs__json</text><line style="stroke:#181818;stroke-width:0.5;" x1="8" x2="248.1367" y1="307.5" y2="307.5"/></g><!--reverse link logic_arc_int__baselibs__filesystem to comp_arc_sta__baselibs__filesystem--><g id="link_logic_arc_int__baselibs__filesystem_comp_arc_sta__baselibs__filesystem"><path codeLine="15" d="M6055.879,204.7464 C6056.619,225.9764 6057.59,253.94 6058.33,275.19 " fill="transparent" id="logic_arc_int__baselibs__filesystem-backto-comp_arc_sta__baselibs__filesystem" style="stroke:#181818;stroke-width:1;"/><polygon fill="#181818" points="6055.67,198.75,6051.9859,207.8839,6055.8442,203.747,6059.9811,207.6052,6055.67,198.75" style="stroke:#181818;stroke-width:1;"/><text fill="#000000" font-family="sans-serif" font-size="13" lengthAdjust="spacing" textLength="76.9082" x="6059" y="241.5669">implements</text></g><!--reverse link logic_arc_int__baselibs__result to comp_arc_sta__baselibs__result--><g id="link_logic_arc_int__baselibs__result_comp_arc_sta__baselibs__result"><path codeLine="16" d="M5755,204.75 C5755,225.98 5755,253.94 5755,275.19 " fill="transparent" id="logic_arc_int__baselibs__result-backto-comp_arc_sta__baselibs__result" style="stroke:#181818;stroke-width:1;"/><polygon fill="#181818" points="5755,198.75,5751,207.75,5755,203.75,5759,207.75,5755,198.75" style="stroke:#181818;stroke-width:1;"/><text fill="#000000" font-family="sans-serif" font-size="13" lengthAdjust="spacing" textLength="76.9082" x="5756" y="241.5669">implements</text></g><!--link Feature_User to logic_arc_int__baselibs__executor--><g id="link_Feature_User_logic_arc_int__baselibs__executor"><path codeLine="17" d="M3005.94,45.88 C2821.75,51.67 2108.09,75.29 1522,111.5 C1259.89,127.7 1194.23,131.66 933,158.5 C927.22,159.09 927.2735,159.0696 921.3135,159.7296 " fill="transparent" id="Feature_User-to-logic_arc_int__baselibs__executor" style="stroke:#181818;stroke-width:1;"/><polygon fill="#181818" points="915.35,160.39,924.7356,163.3751,920.3196,159.8397,923.8551,155.4237,915.35,160.39" style="stroke:#181818;stroke-width:1;"/><text fill="#000000" font-family="sans-serif" font-size="13" lengthAdjust="spacing" textLength="23.0103" x="1523" y="124.5669">use</text></g><!--reverse link logic_arc_int__baselibs__memory_shared to comp_arc_sta__baselibs__memory_shared--><g id="link_logic_arc_int__baselibs__memory_shared_comp_arc_sta__baselibs__memory_shared"><path codeLine="18" d="M5437.0223,204.7317 C5435.3623,225.9617 5433.17,253.94 5431.51,275.19 " fill="transparent" id="logic_arc_int__baselibs__memory_shared-backto-comp_arc_sta__baselibs__memory_shared" style="stroke:#181818;stroke-width:1;"/><polygon fill="#181818" points="5437.49,198.75,5432.8006,207.4108,5437.1002,203.7348,5440.7762,208.0344,5437.49,198.75" style="stroke:#181818;stroke-width:1;"/><text fill="#000000" font-family="sans-serif" font-size="13" lengthAdjust="spacing" textLength="76.9082" x="5437" y="241.5669">implements</text></g><!--reverse link logic_arc_int__baselibs__promise to comp_arc_sta__baselibs__concurrency--><g id="link_logic_arc_int__baselibs__promise_comp_arc_sta__baselibs__concurrency"><path codeLine="19" d="M1453.1925,199.8724 C1547.4125,221.1624 1693.21,254.11 1787.5,275.41 " fill="transparent" id="logic_arc_int__baselibs__promise-backto-comp_arc_sta__baselibs__concurrency" style="stroke:#181818;stroke-width:1;"/><polygon fill="#181818" points="1447.34,198.55,1455.2371,204.4353,1452.217,199.652,1457.0003,196.632,1447.34,198.55" style="stroke:#181818;stroke-width:1;"/><text fill="#000000" font-family="sans-serif" font-size="13" lengthAdjust="spacing" textLength="76.9082" x="1649" y="241.5669">implements</text></g><!--link Feature_User to logic_arc_int__baselibs__message_passing--><g id="link_Feature_User_logic_arc_int__baselibs__message_passing"><path codeLine="20" d="M3005.67,45.49 C2800.66,50.1 1939.54,71.01 1234,111.5 C965.63,126.9 898.7,134.02 631,158.5 C625.49,159 625.8628,158.9591 620.2128,159.4991 " fill="transparent" id="Feature_User-to-logic_arc_int__baselibs__message_passing" style="stroke:#181818;stroke-width:1;"/><polygon fill="#181818" points="614.24,160.07,623.5797,163.1956,619.2173,159.5943,622.8186,155.2319,614.24,160.07" style="stroke:#181818;stroke-width:1;"/><text fill="#000000" font-family="sans-serif" font-size="13" lengthAdjust="spacing" textLength="23.0103" x="1235" y="124.5669">use</text></g><!--link Feature_User to logic_arc_int__baselibs__synchronized_queue--><g id="link_Feature_User_logic_arc_int__baselibs__synchronized_queue"><path codeLine="21" d="M3005.79,53.85 C2901.02,75.52 2645.8157,128.3148 2505.8857,157.2548 " fill="transparent" id="Feature_User-to-logic_arc_int__baselibs__synchronized_queue" style="stroke:#181818;stroke-width:1;"/><polygon fill="#181818" points="2500.01,158.47,2509.6336,160.5643,2504.9064,157.4573,2508.0134,152.7301,2500.01,158.47" style="stroke:#181818;stroke-width:1;"/><text fill="#000000" font-family="sans-serif" font-size="13" lengthAdjust="spacing" textLength="23.0103" x="2712" y="124.5669">use</text></g><!--reverse link logic_arc_int__baselibs__utils_base64 to comp_arc_sta__baselibs__utils--><g id="link_logic_arc_int__baselibs__utils_base64_comp_arc_sta__baselibs__utils"><path codeLine="22" d="M4054.2506,202.1252 C4085.5406,223.4152 4130.69,254.14 4161.9,275.38 " fill="transparent" id="logic_arc_int__baselibs__utils_base64-backto-comp_arc_sta__baselibs__utils" style="stroke:#181818;stroke-width:1;"/><polygon fill="#181818" points="4049.29,198.75,4054.4808,207.1199,4053.4238,201.5627,4058.9811,200.5058,4049.29,198.75" style="stroke:#181818;stroke-width:1;"/><text fill="#000000" font-family="sans-serif" font-size="13" lengthAdjust="spacing" textLength="76.9082" x="4117" y="241.5669">implements</text></g><!--reverse link logic_arc_int__baselibs__bit_mask_operator to comp_arc_sta__baselibs__bit_manipulation--><g id="link_logic_arc_int__baselibs__bit_mask_operator_comp_arc_sta__baselibs__bit_manipulation"><path codeLine="23" d="M4755.1865,201.9799 C4788.5165,223.2699 4836.83,254.14 4870.07,275.38 " fill="transparent" id="logic_arc_int__baselibs__bit_mask_operator-backto-comp_arc_sta__baselibs__bit_manipulation" style="stroke:#181818;stroke-width:1;"/><polygon fill="#181818" points="4750.13,198.75,4755.5614,206.9658,4754.3437,201.4416,4759.868,200.2239,4750.13,198.75" style="stroke:#181818;stroke-width:1;"/><text fill="#000000" font-family="sans-serif" font-size="13" lengthAdjust="spacing" textLength="76.9082" x="4822" y="241.5669">implements</text></g><!--reverse link logic_arc_int__baselibs__intrusive_list to comp_arc_sta__baselibs__containers--><g id="link_logic_arc_int__baselibs__intrusive_list_comp_arc_sta__baselibs__containers"><path codeLine="24" d="M3382.8918,202.1527 C3413.8118,223.4427 3458.39,254.14 3489.24,275.38 " fill="transparent" id="logic_arc_int__baselibs__intrusive_list-backto-comp_arc_sta__baselibs__containers" style="stroke:#181818;stroke-width:1;"/><polygon fill="#181818" points="3377.95,198.75,3383.0943,207.1486,3382.0682,201.5856,3387.6312,200.5595,3377.95,198.75" style="stroke:#181818;stroke-width:1;"/><text fill="#000000" font-family="sans-serif" font-size="13" lengthAdjust="spacing" textLength="76.9082" x="3445" y="241.5669">implements</text></g><!--link Feature_User to logic_arc_int__baselibs__intrusive_list--><g id="link_Feature_User_logic_arc_int__baselibs__intrusive_list"><path codeLine="25" d="M3096.09,64.56 C3153.19,89.95 3245.3876,130.9722 3301.4976,155.9222 " fill="transparent" id="Feature_User-to-logic_arc_int__baselibs__intrusive_list" style="stroke:#181818;stroke-width:1;"/><polygon fill="#181818" points="3306.98,158.36,3300.3816,151.0483,3302.4113,156.3285,3297.1311,158.3582,3306.98,158.36" style="stroke:#181818;stroke-width:1;"/><text fill="#000000" font-family="sans-serif" font-size="13" lengthAdjust="spacing" textLength="23.0103" x="3238" y="124.5669">use</text></g><!--reverse link logic_arc_int__baselibs__task_result to comp_arc_sta__baselibs__concurrency--><g id="link_logic_arc_int__baselibs__task_result_comp_arc_sta__baselibs__concurrency"><path codeLine="26" d="M2611.4626,199.1025 C2511.5026,212.4225 2380,229.84 2259,245.5 C2180.92,255.61 2093.95,266.64 2022.27,275.67 " fill="transparent" id="logic_arc_int__baselibs__task_result-backto-comp_arc_sta__baselibs__concurrency" style="stroke:#181818;stroke-width:1;"/><polygon fill="#181818" points="2617.41,198.31,2607.9605,195.5338,2612.4538,198.9704,2609.0172,203.4637,2617.41,198.31" style="stroke:#181818;stroke-width:1;"/><text fill="#000000" font-family="sans-serif" font-size="13" lengthAdjust="spacing" textLength="76.9082" x="2384" y="241.5669">implements</text></g><!--reverse link logic_arc_int__baselibs__synchronized_queue to comp_arc_sta__baselibs__concurrency--><g id="link_logic_arc_int__baselibs__synchronized_queue_comp_arc_sta__baselibs__concurrency"><path codeLine="27" d="M2313.3235,199.8088 C2214.1035,221.0988 2060.27,254.11 1960.98,275.41 " fill="transparent" id="logic_arc_int__baselibs__synchronized_queue-backto-comp_arc_sta__baselibs__concurrency" style="stroke:#181818;stroke-width:1;"/><polygon fill="#181818" points="2319.19,198.55,2309.5511,196.5272,2314.3013,199.599,2311.2295,204.3492,2319.19,198.55" style="stroke:#181818;stroke-width:1;"/><text fill="#000000" font-family="sans-serif" font-size="13" lengthAdjust="spacing" textLength="76.9082" x="2174" y="241.5669">implements</text></g><!--link Feature_User to logic_arc_int__baselibs__filesystem--><g id="link_Feature_User_logic_arc_int__baselibs__filesystem"><path codeLine="28" d="M3096.26,45.12 C3326.82,48.44 4393.88,65.7 5266,111.5 C5545.51,126.18 5615.4,131.65 5894,158.5 C5901.42,159.22 5903.0723,159.3684 5910.7523,160.1684 " fill="transparent" id="Feature_User-to-logic_arc_int__baselibs__filesystem" style="stroke:#181818;stroke-width:1;"/><polygon fill="#181818" points="5916.72,160.79,5908.1829,155.8791,5911.7469,160.272,5907.354,163.836,5916.72,160.79" style="stroke:#181818;stroke-width:1;"/><text fill="#000000" font-family="sans-serif" font-size="13" lengthAdjust="spacing" textLength="23.0103" x="5550" y="124.5669">use</text></g><!--link Feature_User to logic_arc_int__baselibs__task--><g id="link_Feature_User_logic_arc_int__baselibs__task"><path codeLine="29" d="M3051,81.55 C3051,106.45 3051,132.26 3051,152.26 " fill="transparent" id="Feature_User-to-logic_arc_int__baselibs__task" style="stroke:#181818;stroke-width:1;"/><polygon fill="#181818" points="3051,158.26,3055,149.26,3051,153.26,3047,149.26,3051,158.26" style="stroke:#181818;stroke-width:1;"/><text fill="#000000" font-family="sans-serif" font-size="13" lengthAdjust="spacing" textLength="23.0103" x="3052" y="124.5669">use</text></g><!--link Feature_User to logic_arc_int__baselibs__bit_mask_operator--><g id="link_Feature_User_logic_arc_int__baselibs__bit_mask_operator"><path codeLine="30" d="M3096.27,47.55 C3277.44,59.85 3967.83,107.6 4535,158.5 C4540.63,159.01 4540.376,158.9719 4546.156,159.5119 " fill="transparent" id="Feature_User-to-logic_arc_int__baselibs__bit_mask_operator" style="stroke:#181818;stroke-width:1;"/><polygon fill="#181818" points="4552.13,160.07,4543.5411,155.2502,4547.1517,159.6049,4542.7969,163.2155,4552.13,160.07" style="stroke:#181818;stroke-width:1;"/><text fill="#000000" font-family="sans-serif" font-size="13" lengthAdjust="spacing" textLength="23.0103" x="4170" y="124.5669">use</text></g><!--link Feature_User to logic_arc_int__baselibs__condition_variable--><g id="link_Feature_User_logic_arc_int__baselibs__condition_variable"><path codeLine="31" d="M3005.74,48.8 C2849.43,63.69 2317.86,114.5 1879,158.5 C1873.41,159.06 1873.6896,159.0268 1867.9496,159.6068 " fill="transparent" id="Feature_User-to-logic_arc_int__baselibs__condition_variable" style="stroke:#181818;stroke-width:1;"/><polygon fill="#181818" points="1861.98,160.21,1871.3365,163.2849,1866.9547,159.7073,1870.5323,155.3255,1861.98,160.21" style="stroke:#181818;stroke-width:1;"/><text fill="#000000" font-family="sans-serif" font-size="13" lengthAdjust="spacing" textLength="23.0103" x="2331" y="124.5669">use</text></g><!--reverse link logic_arc_int__baselibs__bit_manipulation to comp_arc_sta__baselibs__bit_manipulation--><g id="link_logic_arc_int__baselibs__bit_manipulation_comp_arc_sta__baselibs__bit_manipulation"><path codeLine="32" d="M5048.1118,201.9296 C5014.0418,223.2196 4964.58,254.14 4930.59,275.38 " fill="transparent" id="logic_arc_int__baselibs__bit_manipulation-backto-comp_arc_sta__baselibs__bit_manipulation" style="stroke:#181818;stroke-width:1;"/><polygon fill="#181818" points="5053.2,198.75,5043.4479,200.1272,5048.9598,201.3997,5047.6874,206.9115,5053.2,198.75" style="stroke:#181818;stroke-width:1;"/><text fill="#000000" font-family="sans-serif" font-size="13" lengthAdjust="spacing" textLength="76.9082" x="5005" y="241.5669">implements</text></g><!--reverse link logic_arc_int__baselibs__condition_variable to comp_arc_sta__baselibs__concurrency--><g id="link_logic_arc_int__baselibs__condition_variable_comp_arc_sta__baselibs__concurrency"><path codeLine="33" d="M1729.6614,202.0188 C1762.4314,223.3088 1809.88,254.14 1842.57,275.38 " fill="transparent" id="logic_arc_int__baselibs__condition_variable-backto-comp_arc_sta__baselibs__concurrency" style="stroke:#181818;stroke-width:1;"/><polygon fill="#181818" points="1724.63,198.75,1729.9979,207.0075,1728.8228,201.474,1734.3563,200.2989,1724.63,198.75" style="stroke:#181818;stroke-width:1;"/><text fill="#000000" font-family="sans-serif" font-size="13" lengthAdjust="spacing" textLength="76.9082" x="1796" y="241.5669">implements</text></g><!--link Feature_User to logic_arc_int__baselibs__dynamic_array--><g id="link_Feature_User_logic_arc_int__baselibs__dynamic_array"><path codeLine="34" d="M3096.16,53.96 C3199.93,75.69 3451.1874,128.3201 3589.1774,157.2201 " fill="transparent" id="Feature_User-to-logic_arc_int__baselibs__dynamic_array" style="stroke:#181818;stroke-width:1;"/><polygon fill="#181818" points="3595.05,158.45,3587.0611,152.6901,3590.1562,157.4251,3585.4212,160.5202,3595.05,158.45" style="stroke:#181818;stroke-width:1;"/><text fill="#000000" font-family="sans-serif" font-size="13" lengthAdjust="spacing" textLength="23.0103" x="3446" y="124.5669">use</text></g><!--reverse link logic_arc_int__baselibs__future to comp_arc_sta__baselibs__concurrency--><g id="link_logic_arc_int__baselibs__future_comp_arc_sta__baselibs__concurrency"><path codeLine="35" d="M1198.8264,199.467 C1284.6564,213.037 1397.43,230.52 1502,245.5 C1574.64,255.91 1655.42,266.7 1722.92,275.49 " fill="transparent" id="logic_arc_int__baselibs__future-backto-comp_arc_sta__baselibs__concurrency" style="stroke:#181818;stroke-width:1;"/><polygon fill="#181818" points="1192.9,198.53,1201.1649,203.8864,1197.8387,199.3108,1202.4142,195.9845,1192.9,198.53" style="stroke:#181818;stroke-width:1;"/><text fill="#000000" font-family="sans-serif" font-size="13" lengthAdjust="spacing" textLength="76.9082" x="1503" y="241.5669">implements</text></g><!--link Feature_User to logic_arc_int__baselibs__json--><g id="link_Feature_User_logic_arc_int__baselibs__json"><path codeLine="36" d="M3005.67,45.3 C2781.44,49.38 1768.54,69.39 940,111.5 C640.99,126.7 565.77,127.32 268,158.5 C261.72,159.16 261.2383,159.1742 254.7383,159.9442 " fill="transparent" id="Feature_User-to-logic_arc_int__baselibs__json" style="stroke:#181818;stroke-width:1;"/><polygon fill="#181818" points="248.78,160.65,258.1881,163.5635,253.7453,160.0618,257.247,155.619,248.78,160.65" style="stroke:#181818;stroke-width:1;"/><text fill="#000000" font-family="sans-serif" font-size="13" lengthAdjust="spacing" textLength="23.0103" x="941" y="124.5669">use</text></g><!--reverse link logic_arc_int__baselibs__executor to comp_arc_sta__baselibs__concurrency--><g id="link_logic_arc_int__baselibs__executor_comp_arc_sta__baselibs__concurrency"><path codeLine="37" d="M921.3429,197.0404 C927.2929,197.7904 927.23,197.78 933,198.5 C1100.98,219.51 1142.65,227.69 1311,245.5 C1450.03,260.21 1608.78,273.78 1721.85,282.89 " fill="transparent" id="logic_arc_int__baselibs__executor-backto-comp_arc_sta__baselibs__concurrency" style="stroke:#181818;stroke-width:1;"/><polygon fill="#181818" points="915.39,196.29,923.8191,201.3841,920.3507,196.9153,924.8196,193.447,915.39,196.29" style="stroke:#181818;stroke-width:1;"/><text fill="#000000" font-family="sans-serif" font-size="13" lengthAdjust="spacing" textLength="76.9082" x="1312" y="241.5669">implements</text></g><!--link Feature_User to logic_arc_int__baselibs__utils_scoped_op--><g id="link_Feature_User_logic_arc_int__baselibs__utils_scoped_op"><path codeLine="38" d="M3096.08,48.92 C3248.85,63.91 3761,114.39 4184,158.5 C4189.96,159.12 4190.0633,159.1284 4196.2033,159.7784 " fill="transparent" id="Feature_User-to-logic_arc_int__baselibs__utils_scoped_op" style="stroke:#181818;stroke-width:1;"/><polygon fill="#181818" points="4202.17,160.41,4193.6411,155.4848,4197.1978,159.8836,4192.7989,163.4403,4202.17,160.41" style="stroke:#181818;stroke-width:1;"/><text fill="#000000" font-family="sans-serif" font-size="13" lengthAdjust="spacing" textLength="23.0103" x="3874" y="124.5669">use</text></g><!--link Feature_User to logic_arc_int__baselibs__task_result--><g id="link_Feature_User_logic_arc_int__baselibs__task_result"><path codeLine="39" d="M3005.86,64.99 C2949.68,90.49 2859.9431,131.2191 2805.3331,156.0191 " fill="transparent" id="Feature_User-to-logic_arc_int__baselibs__task_result" style="stroke:#181818;stroke-width:1;"/><polygon fill="#181818" points="2799.87,158.5,2809.7185,158.4206,2804.4225,156.4326,2806.4106,151.1366,2799.87,158.5" style="stroke:#181818;stroke-width:1;"/><text fill="#000000" font-family="sans-serif" font-size="13" lengthAdjust="spacing" textLength="23.0103" x="2897" y="124.5669">use</text></g><!--reverse link logic_arc_int__baselibs__dynamic_array to comp_arc_sta__baselibs__containers--><g id="link_logic_arc_int__baselibs__dynamic_array_comp_arc_sta__baselibs__containers"><path codeLine="40" d="M3652.7494,202.1252 C3621.4594,223.4152 3576.31,254.14 3545.1,275.38 " fill="transparent" id="logic_arc_int__baselibs__dynamic_array-backto-comp_arc_sta__baselibs__containers" style="stroke:#181818;stroke-width:1;"/><polygon fill="#181818" points="3657.71,198.75,3648.0189,200.5058,3653.5762,201.5627,3652.5192,207.1199,3657.71,198.75" style="stroke:#181818;stroke-width:1;"/><text fill="#000000" font-family="sans-serif" font-size="13" lengthAdjust="spacing" textLength="76.9082" x="3613" y="241.5669">implements</text></g><!--reverse link logic_arc_int__baselibs__utils_scoped_op to comp_arc_sta__baselibs__utils--><g id="link_logic_arc_int__baselibs__utils_scoped_op_comp_arc_sta__baselibs__utils"><path codeLine="41" d="M4326.5799,202.1113 C4295.0999,223.4013 4249.66,254.14 4218.26,275.38 " fill="transparent" id="logic_arc_int__baselibs__utils_scoped_op-backto-comp_arc_sta__baselibs__utils" style="stroke:#181818;stroke-width:1;"/><polygon fill="#181818" points="4331.55,198.75,4321.854,200.4785,4327.4083,201.5511,4326.3357,207.1053,4331.55,198.75" style="stroke:#181818;stroke-width:1;"/><text fill="#000000" font-family="sans-serif" font-size="13" lengthAdjust="spacing" textLength="76.9082" x="4287" y="241.5669">implements</text></g><!--link Feature_User to logic_arc_int__baselibs__promise--><g id="link_Feature_User_logic_arc_int__baselibs__promise"><path codeLine="42" d="M3005.88,46.95 C2820.69,57.19 2100.81,98.85 1511,158.5 C1505.33,159.07 1505.5043,159.0364 1499.6643,159.6764 " fill="transparent" id="Feature_User-to-logic_arc_int__baselibs__promise" style="stroke:#181818;stroke-width:1;"/><polygon fill="#181818" points="1493.7,160.33,1503.0822,163.3258,1498.6702,159.7853,1502.2107,155.3734,1493.7,160.33" style="stroke:#181818;stroke-width:1;"/><text fill="#000000" font-family="sans-serif" font-size="13" lengthAdjust="spacing" textLength="23.0103" x="2020" y="124.5669">use</text></g><!--reverse link logic_arc_int__baselibs__task to comp_arc_sta__baselibs__concurrency--><g id="link_logic_arc_int__baselibs__task_comp_arc_sta__baselibs__concurrency"><path codeLine="43" d="M2928.0102,197.0044 C2921.9402,197.7944 2921.87,197.78 2916,198.5 C2598.72,237.49 2225.42,268.17 2022.29,283.58 " fill="transparent" id="logic_arc_int__baselibs__task-backto-comp_arc_sta__baselibs__concurrency" style="stroke:#181818;stroke-width:1;"/><polygon fill="#181818" points="2933.96,196.23,2924.519,193.425,2929.0018,196.8753,2925.5515,201.3581,2933.96,196.23" style="stroke:#181818;stroke-width:1;"/><text fill="#000000" font-family="sans-serif" font-size="13" lengthAdjust="spacing" textLength="76.9082" x="2631" y="241.5669">implements</text></g><!--link Feature_User to logic_arc_int__baselibs__utils_base64--><g id="link_Feature_User_logic_arc_int__baselibs__utils_base64"><path codeLine="44" d="M3096.16,50.69 C3235.04,69.73 3653.8656,127.1651 3876.1456,157.6351 " fill="transparent" id="Feature_User-to-logic_arc_int__baselibs__utils_base64" style="stroke:#181818;stroke-width:1;"/><polygon fill="#181818" points="3882.09,158.45,3873.7166,153.2648,3877.1363,157.771,3872.6301,161.1907,3882.09,158.45" style="stroke:#181818;stroke-width:1;"/><text fill="#000000" font-family="sans-serif" font-size="13" lengthAdjust="spacing" textLength="23.0103" x="3653" y="124.5669">use</text></g><!--link Feature_User to logic_arc_int__baselibs__shared_future--><g id="link_Feature_User_logic_arc_int__baselibs__shared_future"><path codeLine="45" d="M3005.95,50.47 C2864.06,69.29 2428.0679,127.1013 2197.3779,157.6913 " fill="transparent" id="Feature_User-to-logic_arc_int__baselibs__shared_future" style="stroke:#181818;stroke-width:1;"/><polygon fill="#181818" points="2191.43,158.48,2200.8777,161.2622,2196.3866,157.8227,2199.8261,153.3316,2191.43,158.48" style="stroke:#181818;stroke-width:1;"/><text fill="#000000" font-family="sans-serif" font-size="13" lengthAdjust="spacing" textLength="23.0103" x="2521" y="124.5669">use</text></g><!--link Feature_User to logic_arc_int__baselibs__bit_manipulation--><g id="link_Feature_User_logic_arc_int__baselibs__bit_manipulation"><path codeLine="46" d="M3096.23,46.45 C3303.65,55.57 4184.52,96.2 4905,158.5 C4910.76,159 4910.6457,158.965 4916.5657,159.515 " fill="transparent" id="Feature_User-to-logic_arc_int__baselibs__bit_manipulation" style="stroke:#181818;stroke-width:1;"/><polygon fill="#181818" points="4922.54,160.07,4913.9486,155.2546,4917.5614,159.6075,4913.2086,163.2203,4922.54,160.07" style="stroke:#181818;stroke-width:1;"/><text fill="#000000" font-family="sans-serif" font-size="13" lengthAdjust="spacing" textLength="23.0103" x="4501" y="124.5669">use</text></g><!--reverse link logic_arc_int__baselibs__message_passing to comp_arc_sta__baselibs__message_passing--><g id="link_logic_arc_int__baselibs__message_passing_comp_arc_sta__baselibs__message_passing"><path codeLine="47" d="M450.6582,204.7479 C451.2182,225.9779 451.94,253.94 452.5,275.19 " fill="transparent" id="logic_arc_int__baselibs__message_passing-backto-comp_arc_sta__baselibs__message_passing" style="stroke:#181818;stroke-width:1;"/><polygon fill="#181818" points="450.5,198.75,446.7387,207.8523,450.6318,203.7483,454.7359,207.6414,450.5,198.75" style="stroke:#181818;stroke-width:1;"/><text fill="#000000" font-family="sans-serif" font-size="13" lengthAdjust="spacing" textLength="76.9082" x="453" y="241.5669">implements</text></g><!--reverse link logic_arc_int__baselibs__shared_future to comp_arc_sta__baselibs__concurrency--><g id="link_logic_arc_int__baselibs__shared_future_comp_arc_sta__baselibs__concurrency"><path codeLine="48" d="M2013.5173,202.0322 C1980.9373,223.3222 1933.77,254.14 1901.26,275.38 " fill="transparent" id="logic_arc_int__baselibs__shared_future-backto-comp_arc_sta__baselibs__concurrency" style="stroke:#181818;stroke-width:1;"/><polygon fill="#181818" points="2018.54,198.75,2008.8179,200.3248,2014.3544,201.4851,2013.1941,207.0217,2018.54,198.75" style="stroke:#181818;stroke-width:1;"/><text fill="#000000" font-family="sans-serif" font-size="13" lengthAdjust="spacing" textLength="76.9082" x="1972" y="241.5669">implements</text></g><!--reverse link logic_arc_int__baselibs__json to comp_arc_sta__baselibs__json--><g id="link_logic_arc_int__baselibs__json_comp_arc_sta__baselibs__json"><path codeLine="49" d="M131.121,204.7464 C130.381,225.9764 129.41,253.94 128.67,275.19 " fill="transparent" id="logic_arc_int__baselibs__json-backto-comp_arc_sta__baselibs__json" style="stroke:#181818;stroke-width:1;"/><polygon fill="#181818" points="131.33,198.75,127.0189,207.6052,131.1558,203.747,135.0141,207.8839,131.33,198.75" style="stroke:#181818;stroke-width:1;"/><text fill="#000000" font-family="sans-serif" font-size="13" lengthAdjust="spacing" textLength="76.9082" x="132" y="241.5669">implements</text></g><!--link Feature_User to logic_arc_int__baselibs__memory_shared--><g id="link_Feature_User_logic_arc_int__baselibs__memory_shared"><path codeLine="50" d="M3096.22,45.68 C3326.6,51.95 4392.69,83.85 5262,158.5 C5267.85,159 5267.8359,158.9733 5273.8459,159.5333 " fill="transparent" id="Feature_User-to-logic_arc_int__baselibs__memory_shared" style="stroke:#181818;stroke-width:1;"/><polygon fill="#181818" points="5279.82,160.09,5271.2299,155.2723,5274.8416,159.6261,5270.4877,163.2378,5279.82,160.09" style="stroke:#181818;stroke-width:1;"/><text fill="#000000" font-family="sans-serif" font-size="13" lengthAdjust="spacing" textLength="23.0103" x="4841" y="124.5669">use</text></g><!--link Feature_User to logic_arc_int__baselibs__future--><g id="link_Feature_User_logic_arc_int__baselibs__future"><path codeLine="51" d="M3005.8,46.56 C2844.22,54 2280.04,80.69 1815,111.5 C1548.1,129.18 1480.98,130.18 1215,158.5 C1209.35,159.1 1209.5396,159.0549 1203.7096,159.7349 " fill="transparent" id="Feature_User-to-logic_arc_int__baselibs__future" style="stroke:#181818;stroke-width:1;"/><polygon fill="#181818" points="1197.75,160.43,1207.1528,163.3604,1202.7163,159.8507,1206.226,155.4143,1197.75,160.43" style="stroke:#181818;stroke-width:1;"/><text fill="#000000" font-family="sans-serif" font-size="13" lengthAdjust="spacing" textLength="23.0103" x="1816" y="124.5669">use</text></g><!--link Feature_User to logic_arc_int__baselibs__result--><g id="link_Feature_User_logic_arc_int__baselibs__result"><path codeLine="52" d="M3096.09,45.72 C3300.99,51.34 4164.85,76.06 4873,111.5 C5203.03,128.02 5286.18,125.82 5615,158.5 C5620.86,159.08 5620.8877,159.0487 5626.9277,159.7287 " fill="transparent" id="Feature_User-to-logic_arc_int__baselibs__result" style="stroke:#181818;stroke-width:1;"/><polygon fill="#181818" points="5632.89,160.4,5624.394,155.4182,5627.9214,159.8406,5623.499,163.368,5632.89,160.4" style="stroke:#181818;stroke-width:1;"/><text fill="#000000" font-family="sans-serif" font-size="13" lengthAdjust="spacing" textLength="23.0103" x="5234" y="124.5669">use</text></g><!--SRC=[hLPDRzGm4BtdLrYzRq48SQYgNf0uSOIpvJZJtQ7-29vnQK3yTvnasMvMQPsuETePlyoRUVEXZF6_fCKdTFkAVIlOYzepUoiQ3A0PlQiEs80WXW2UknR6CzYMEw6O0zQHWQfRuix0NNMj24qj_bHVqS5dRtmG0PhXzEs0-i41aVXm_RxwMzs-ExwfbEPaT_K55CS0uZj1k1AAnF52zXUYghIthLH1Is8bPQq83DOavJqQe2wvQCKkxkw4yNlKWo4wdZUy4MXR0nOSatWHE015mndGqMWAE75yrxps79v0nqJ_HaI2brsnO7te91rK2cV6eudjCgRQEnr30AUx37WRl4M2Ohus2K3jGRQAACdkI7i507LE7u9t-1iQ-JD2X4pe8gEX3Al1PZX_-hWiOZMojCfX6utgwoJpWz6S7gHl8QWXtmlpmYhLJiWHICSG2Hz16gHoDLx2l1hOvQBXdlbSeRmTUauEXUJFsyDQLVOCrx-QKSLQY1If1di1oaSLKDKcLmv5mdqstpf_S_uNvg_fdBB3fw2wpRHx7_l_5plrW_gORUJByx0ez6RiSwIJtfeakZATdoevnsfPwxf8sn9vBM_fPrGBGtOQU1lsmZVcx_-SMZqwXutWfEYoRdNU2Z8hosJIPvUMYxrWup4nfRu4lA_S3EfOtCMRq6HDMvkDqYnEYlSV]--></g></svg>