<svg xmlns="http://www.w3.org/2000/svg" xmlns:xlink="http://www.w3.org/1999/xlink" contentStyleType="text/css" data-diagram-type="CLASS" height="322px" preserveAspectRatio="none" style="width:6209px;height:322px;background:#FFFFFF;" version="1.1" viewBox="0 0 6209 322" width="6209px" zoomAndPan="magnify"><defs/><g><!--entity Feature_User--><g id="elem_Feature_User"><ellipse cx="3038.6685" cy="14" fill="#F1F1F1" rx="8" ry="8" style="stroke:#181818;stroke-width:0.5;"/><path d="M3038.6685,22 L3038.6685,49 M3025.6685,30 L3051.6685,30 M3038.6685,49 L3025.6685,64 M3038.6685,49 L3051.6685,64 " fill="transparent" style="stroke:#181818;stroke-width:0.5;"/><text fill="#000000" font-family="sans-serif" font-size="14" lengthAdjust="spacing" textLength="90.3369" x="2993.5" y="78.4951">Feature User</text></g><!--class logic_arc_int__baselibs__promise--><g id="elem_logic_arc_int__baselibs__promise"><rect fill="#F1F1F1" height="40" id="logic_arc_int__baselibs__promise" rx="2.5" ry="2.5" style="stroke:#181818;stroke-width:0.5;" width="261.1885" x="2908" y="158.5"/><ellipse cx="2923" cy="174.5" fill="#ADD1B2" rx="11" ry="11" style="stroke:#181818;stroke-width:1;"/><path d="M2925.9688,180.1406 Q2925.3906,180.4375 2924.75,180.5781 Q2924.1094,180.7344 2923.4063,180.7344 Q2920.9063,180.7344 2919.5781,179.0938 Q2918.2656,177.4375 2918.2656,174.3125 Q2918.2656,171.1875 2919.5781,169.5313 Q2920.9063,167.875 2923.4063,167.875 Q2924.1094,167.875 2924.75,168.0313 Q2925.4063,168.1875 2925.9688,168.4844 L2925.9688,171.2031 Q2925.3438,170.625 2924.75,170.3594 Q2924.1563,170.0781 2923.5313,170.0781 Q2922.1875,170.0781 2921.5,171.1563 Q2920.8125,172.2188 2920.8125,174.3125 Q2920.8125,176.4063 2921.5,177.4844 Q2922.1875,178.5469 2923.5313,178.5469 Q2924.1563,178.5469 2924.75,178.2813 Q2925.3438,178 2925.9688,177.4219 L2925.9688,180.1406 Z " fill="#000000"/><text fill="#000000" font-family="sans-serif" font-size="14" lengthAdjust="spacing" textLength="229.1885" x="2937" y="179.3467">logic_arc_int__baselibs__promise</text><line style="stroke:#181818;stroke-width:0.5;" x1="2909" x2="3168.1885" y1="190.5" y2="190.5"/></g><!--class comp_arc_sta__baselibs__concurrency--><g id="elem_comp_arc_sta__baselibs__concurrency"><rect fill="#F1F1F1" height="40" id="comp_arc_sta__baselibs__concurrency" rx="2.5" ry="2.5" style="stroke:#181818;stroke-width:0.5;" width="300.2012" x="1700.5" y="275.5"/><ellipse cx="1715.5" cy="291.5" fill="#ADD1B2" rx="11" ry="11" style="stroke:#181818;stroke-width:1;"/><path d="M1718.4688,297.1406 Q1717.8906,297.4375 1717.25,297.5781 Q1716.6094,297.7344 1715.9063,297.7344 Q1713.4063,297.7344 1712.0781,296.0938 Q1710.7656,294.4375 1710.7656,291.3125 Q1710.7656,288.1875 1712.0781,286.5313 Q1713.4063,284.875 1715.9063,284.875 Q1716.6094,284.875 1717.25,285.0313 Q1717.9063,285.1875 1718.4688,285.4844 L1718.4688,288.2031 Q1717.8438,287.625 1717.25,287.3594 Q1716.6563,287.0781 1716.0313,287.0781 Q1714.6875,287.0781 1714,288.1563 Q1713.3125,289.2188 1713.3125,291.3125 Q1713.3125,293.4063 1714,294.4844 Q1714.6875,295.5469 1716.0313,295.5469 Q1716.6563,295.5469 1717.25,295.2813 Q1717.8438,295 1718.4688,294.4219 L1718.4688,297.1406 Z " fill="#000000"/><text fill="#000000" font-family="sans-serif" font-size="14" lengthAdjust="spacing" textLength="268.2012" x="1729.5" y="296.3467">comp_arc_sta__baselibs__concurrency</text><line style="stroke:#181818;stroke-width:0.5;" x1="1701.5" x2="1999.7012" y1="307.5" y2="307.5"/></g><!--class logic_arc_int__baselibs__executor--><g id="elem_logic_arc_int__baselibs__executor"><rect fill="#F1F1F1" height="40" id="logic_arc_int__baselibs__executor" rx="2.5" ry="2.5" style="stroke:#181818;stroke-width:0.5;" width="266.4385" x="2223.5" y="158.5"/><ellipse cx="2238.5" cy="174.5" fill="#ADD1B2" rx="11" ry="11" style="stroke:#181818;stroke-width:1;"/><path d="M2241.4688,180.1406 Q2240.8906,180.4375 2240.25,180.5781 Q2239.6094,180.7344 2238.9063,180.7344 Q2236.4063,180.7344 2235.0781,179.0938 Q2233.7656,177.4375 2233.7656,174.3125 Q2233.7656,171.1875 2235.0781,169.5313 Q2236.4063,167.875 2238.9063,167.875 Q2239.6094,167.875 2240.25,168.0313 Q2240.9063,168.1875 2241.4688,168.4844 L2241.4688,171.2031 Q2240.8438,170.625 2240.25,170.3594 Q2239.6563,170.0781 2239.0313,170.0781 Q2237.6875,170.0781 2237,171.1563 Q2236.3125,172.2188 2236.3125,174.3125 Q2236.3125,176.4063 2237,177.4844 Q2237.6875,178.5469 2239.0313,178.5469 Q2239.6563,178.5469 2240.25,178.2813 Q2240.8438,178 2241.4688,177.4219 L2241.4688,180.1406 Z " fill="#000000"/><text fill="#000000" font-family="sans-serif" font-size="14" lengthAdjust="spacing" textLength="234.4385" x="2252.5" y="179.3467">logic_arc_int__baselibs__executor</text><line style="stroke:#181818;stroke-width:0.5;" x1="2224.5" x2="2488.9385" y1="190.5" y2="190.5"/></g><!--class logic_arc_int__baselibs__task--><g id="elem_logic_arc_int__baselibs__task"><rect fill="#F1F1F1" height="40" id="logic_arc_int__baselibs__task" rx="2.5" ry="2.5" style="stroke:#181818;stroke-width:0.5;" width="234.0156" x="1303.5" y="158.5"/><ellipse cx="1318.5" cy="174.5" fill="#ADD1B2" rx="11" ry="11" style="stroke:#181818;stroke-width:1;"/><path d="M1321.4688,180.1406 Q1320.8906,180.4375 1320.25,180.5781 Q1319.6094,180.7344 1318.9063,180.7344 Q1316.4063,180.7344 1315.0781,179.0938 Q1313.7656,177.4375 1313.7656,174.3125 Q1313.7656,171.1875 1315.0781,169.5313 Q1316.4063,167.875 1318.9063,167.875 Q1319.6094,167.875 1320.25,168.0313 Q1320.9063,168.1875 1321.4688,168.4844 L1321.4688,171.2031 Q1320.8438,170.625 1320.25,170.3594 Q1319.6563,170.0781 1319.0313,170.0781 Q1317.6875,170.0781 1317,171.1563 Q1316.3125,172.2188 1316.3125,174.3125 Q1316.3125,176.4063 1317,177.4844 Q1317.6875,178.5469 1319.0313,178.5469 Q1319.6563,178.5469 1320.25,178.2813 Q1320.8438,178 1321.4688,177.4219 L1321.4688,180.1406 Z " fill="#000000"/><text fill="#000000" font-family="sans-serif" font-size="14" lengthAdjust="spacing" textLength="202.0156" x="1332.5" y="179.3467">logic_arc_int__baselibs__task</text><line style="stroke:#181818;stroke-width:0.5;" x1="1304.5" x2="1536.5156" y1="190.5" y2="190.5"/></g><!--class logic_arc_int__baselibs__shared_future--><g id="elem_logic_arc_int__baselibs__shared_future"><rect fill="#F1F1F1" height="40" id="logic_arc_int__baselibs__shared_future" rx="2.5" ry="2.5" style="stroke:#181818;stroke-width:0.5;" width="302.0811" x="966.5" y="158.5"/><ellipse cx="981.5" cy="174.5" fill="#ADD1B2" rx="11" ry="11" style="stroke:#181818;stroke-width:1;"/><path d="M984.4688,180.1406 Q983.8906,180.4375 983.25,180.5781 Q982.6094,180.7344 981.9063,180.7344 Q979.4063,180.7344 978.0781,179.0938 Q976.7656,177.4375 976.7656,174.3125 Q976.7656,171.1875 978.0781,169.5313 Q979.4063,167.875 981.9063,167.875 Q982.6094,167.875 983.25,168.0313 Q983.9063,168.1875 984.4688,168.4844 L984.4688,171.2031 Q983.8438,170.625 983.25,170.3594 Q982.6563,170.0781 982.0313,170.0781 Q980.6875,170.0781 980,171.1563 Q979.3125,172.2188 979.3125,174.3125 Q979.3125,176.4063 980,177.4844 Q980.6875,178.5469 982.0313,178.5469 Q982.6563,178.5469 983.25,178.2813 Q983.8438,178 984.4688,177.4219 L984.4688,180.1406 Z " fill="#000000"/><text fill="#000000" font-family="sans-serif" font-size="14" lengthAdjust="spacing" textLength="270.0811" x="995.5" y="179.3467">logic_arc_int__baselibs__shared_future</text><line style="stroke:#181818;stroke-width:0.5;" x1="967.5" x2="1267.5811" y1="190.5" y2="190.5"/></g><!--class logic_arc_int__baselibs__future--><g id="elem_logic_arc_int__baselibs__future"><rect fill="#F1F1F1" height="40" id="logic_arc_int__baselibs__future" rx="2.5" ry="2.5" style="stroke:#181818;stroke-width:0.5;" width="247.0791" x="1941" y="158.5"/><ellipse cx="1956" cy="174.5" fill="#ADD1B2" rx="11" ry="11" style="stroke:#181818;stroke-width:1;"/><path d="M1958.9688,180.1406 Q1958.3906,180.4375 1957.75,180.5781 Q1957.1094,180.7344 1956.4063,180.7344 Q1953.9063,180.7344 1952.5781,179.0938 Q1951.2656,177.4375 1951.2656,174.3125 Q1951.2656,171.1875 1952.5781,169.5313 Q1953.9063,167.875 1956.4063,167.875 Q1957.1094,167.875 1957.75,168.0313 Q1958.4063,168.1875 1958.9688,168.4844 L1958.9688,171.2031 Q1958.3438,170.625 1957.75,170.3594 Q1957.1563,170.0781 1956.5313,170.0781 Q1955.1875,170.0781 1954.5,171.1563 Q1953.8125,172.2188 1953.8125,174.3125 Q1953.8125,176.4063 1954.5,177.4844 Q1955.1875,178.5469 1956.5313,178.5469 Q1957.1563,178.5469 1957.75,178.2813 Q1958.3438,178 1958.9688,177.4219 L1958.9688,180.1406 Z " fill="#000000"/><text fill="#000000" font-family="sans-serif" font-size="14" lengthAdjust="spacing" textLength="215.0791" x="1970" y="179.3467">logic_arc_int__baselibs__future</text><line style="stroke:#181818;stroke-width:0.5;" x1="1942" x2="2187.0791" y1="190.5" y2="190.5"/></g><!--class comp_arc_sta__baselibs__json--><g id="elem_comp_arc_sta__baselibs__json"><rect fill="#F1F1F1" height="40" id="comp_arc_sta__baselibs__json" rx="2.5" ry="2.5" style="stroke:#181818;stroke-width:0.5;" width="242.1367" x="5960.5" y="275.5"/><ellipse cx="5975.5" cy="291.5" fill="#ADD1B2" rx="11" ry="11" style="stroke:#181818;stroke-width:1;"/><path d="M5978.4688,297.1406 Q5977.8906,297.4375 5977.25,297.5781 Q5976.6094,297.7344 5975.9063,297.7344 Q5973.4063,297.7344 5972.0781,296.0938 Q5970.7656,294.4375 5970.7656,291.3125 Q5970.7656,288.1875 5972.0781,286.5313 Q5973.4063,284.875 5975.9063,284.875 Q5976.6094,284.875 5977.25,285.0313 Q5977.9063,285.1875 5978.4688,285.4844 L5978.4688,288.2031 Q5977.8438,287.625 5977.25,287.3594 Q5976.6563,287.0781 5976.0313,287.0781 Q5974.6875,287.0781 5974,288.1563 Q5973.3125,289.2188 5973.3125,291.3125 Q5973.3125,293.4063 5974,294.4844 Q5974.6875,295.5469 5976.0313,295.5469 Q5976.6563,295.5469 5977.25,295.2813 Q5977.8438,295 5978.4688,294.4219 L5978.4688,297.1406 Z " fill="#000000"/><text fill="#000000" font-family="sans-serif" font-size="14" lengthAdjust="spacing" textLength="210.1367" x="5989.5" y="296.3467">comp_arc_sta__baselibs__json</text><line style="stroke:#181818;stroke-width:0.5;" x1="5961.5" x2="6201.6367" y1="307.5" y2="307.5"/></g><!--class logic_arc_int__baselibs__json--><g id="elem_logic_arc_int__baselibs__json"><rect fill="#F1F1F1" height="40" id="logic_arc_int__baselibs__json" rx="2.5" ry="2.5" style="stroke:#181818;stroke-width:0.5;" width="233.168" x="5961" y="158.5"/><ellipse cx="5976" cy="174.5" fill="#ADD1B2" rx="11" ry="11" style="stroke:#181818;stroke-width:1;"/><path d="M5978.9688,180.1406 Q5978.3906,180.4375 5977.75,180.5781 Q5977.1094,180.7344 5976.4063,180.7344 Q5973.9063,180.7344 5972.5781,179.0938 Q5971.2656,177.4375 5971.2656,174.3125 Q5971.2656,171.1875 5972.5781,169.5313 Q5973.9063,167.875 5976.4063,167.875 Q5977.1094,167.875 5977.75,168.0313 Q5978.4063,168.1875 5978.9688,168.4844 L5978.9688,171.2031 Q5978.3438,170.625 5977.75,170.3594 Q5977.1563,170.0781 5976.5313,170.0781 Q5975.1875,170.0781 5974.5,171.1563 Q5973.8125,172.2188 5973.8125,174.3125 Q5973.8125,176.4063 5974.5,177.4844 Q5975.1875,178.5469 5976.5313,178.5469 Q5977.1563,178.5469 5977.75,178.2813 Q5978.3438,178 5978.9688,177.4219 L5978.9688,180.1406 Z " fill="#000000"/><text fill="#000000" font-family="sans-serif" font-size="14" lengthAdjust="spacing" textLength="201.168" x="5990" y="179.3467">logic_arc_int__baselibs__json</text><line style="stroke:#181818;stroke-width:0.5;" x1="5962" x2="6193.168" y1="190.5" y2="190.5"/></g><!--class logic_arc_int__baselibs__utils_scoped_op--><g id="elem_logic_arc_int__baselibs__utils_scoped_op"><rect fill="#F1F1F1" height="40" id="logic_arc_int__baselibs__utils_scoped_op" rx="2.5" ry="2.5" style="stroke:#181818;stroke-width:0.5;" width="315.377" x="3932" y="158.5"/><ellipse cx="3947" cy="174.5" fill="#ADD1B2" rx="11" ry="11" style="stroke:#181818;stroke-width:1;"/><path d="M3949.9688,180.1406 Q3949.3906,180.4375 3948.75,180.5781 Q3948.1094,180.7344 3947.4063,180.7344 Q3944.9063,180.7344 3943.5781,179.0938 Q3942.2656,177.4375 3942.2656,174.3125 Q3942.2656,171.1875 3943.5781,169.5313 Q3944.9063,167.875 3947.4063,167.875 Q3948.1094,167.875 3948.75,168.0313 Q3949.4063,168.1875 3949.9688,168.4844 L3949.9688,171.2031 Q3949.3438,170.625 3948.75,170.3594 Q3948.1563,170.0781 3947.5313,170.0781 Q3946.1875,170.0781 3945.5,171.1563 Q3944.8125,172.2188 3944.8125,174.3125 Q3944.8125,176.4063 3945.5,177.4844 Q3946.1875,178.5469 3947.5313,178.5469 Q3948.1563,178.5469 3948.75,178.2813 Q3949.3438,178 3949.9688,177.4219 L3949.9688,180.1406 Z " fill="#000000"/><text fill="#000000" font-family="sans-serif" font-size="14" lengthAdjust="spacing" textLength="283.377" x="3961" y="179.3467">logic_arc_int__baselibs__utils_scoped_op</text><line style="stroke:#181818;stroke-width:0.5;" x1="3933" x2="4246.377" y1="190.5" y2="190.5"/></g><!--class comp_arc_sta__baselibs__filesystem--><g id="elem_comp_arc_sta__baselibs__filesystem"><rect fill="#F1F1F1" height="40" id="comp_arc_sta__baselibs__filesystem" rx="2.5" ry="2.5" style="stroke:#181818;stroke-width:0.5;" width="285.4492" x="5640" y="275.5"/><ellipse cx="5655" cy="291.5" fill="#ADD1B2" rx="11" ry="11" style="stroke:#181818;stroke-width:1;"/><path d="M5657.9688,297.1406 Q5657.3906,297.4375 5656.75,297.5781 Q5656.1094,297.7344 5655.4063,297.7344 Q5652.9063,297.7344 5651.5781,296.0938 Q5650.2656,294.4375 5650.2656,291.3125 Q5650.2656,288.1875 5651.5781,286.5313 Q5652.9063,284.875 5655.4063,284.875 Q5656.1094,284.875 5656.75,285.0313 Q5657.4063,285.1875 5657.9688,285.4844 L5657.9688,288.2031 Q5657.3438,287.625 5656.75,287.3594 Q5656.1563,287.0781 5655.5313,287.0781 Q5654.1875,287.0781 5653.5,288.1563 Q5652.8125,289.2188 5652.8125,291.3125 Q5652.8125,293.4063 5653.5,294.4844 Q5654.1875,295.5469 5655.5313,295.5469 Q5656.1563,295.5469 5656.75,295.2813 Q5657.3438,295 5657.9688,294.4219 L5657.9688,297.1406 Z " fill="#000000"/><text fill="#000000" font-family="sans-serif" font-size="14" lengthAdjust="spacing" textLength="253.4492" x="5669" y="296.3467">comp_arc_sta__baselibs__filesystem</text><line style="stroke:#181818;stroke-width:0.5;" x1="5641" x2="5924.4492" y1="307.5" y2="307.5"/></g><!--class logic_arc_int__baselibs__filesystem--><g id="elem_logic_arc_int__baselibs__filesystem"><rect fill="#F1F1F1" height="40" id="logic_arc_int__baselibs__filesystem" rx="2.5" ry="2.5" style="stroke:#181818;stroke-width:0.5;" width="276.4805" x="5644.5" y="158.5"/><ellipse cx="5659.5" cy="174.5" fill="#ADD1B2" rx="11" ry="11" style="stroke:#181818;stroke-width:1;"/><path d="M5662.4688,180.1406 Q5661.8906,180.4375 5661.25,180.5781 Q5660.6094,180.7344 5659.9063,180.7344 Q5657.4063,180.7344 5656.0781,179.0938 Q5654.7656,177.4375 5654.7656,174.3125 Q5654.7656,171.1875 5656.0781,169.5313 Q5657.4063,167.875 5659.9063,167.875 Q5660.6094,167.875 5661.25,168.0313 Q5661.9063,168.1875 5662.4688,168.4844 L5662.4688,171.2031 Q5661.8438,170.625 5661.25,170.3594 Q5660.6563,170.0781 5660.0313,170.0781 Q5658.6875,170.0781 5658,171.1563 Q5657.3125,172.2188 5657.3125,174.3125 Q5657.3125,176.4063 5658,177.4844 Q5658.6875,178.5469 5660.0313,178.5469 Q5660.6563,178.5469 5661.25,178.2813 Q5661.8438,178 5662.4688,177.4219 L5662.4688,180.1406 Z " fill="#000000"/><text fill="#000000" font-family="sans-serif" font-size="14" lengthAdjust="spacing" textLength="244.4805" x="5673.5" y="179.3467">logic_arc_int__baselibs__filesystem</text><line style="stroke:#181818;stroke-width:0.5;" x1="5645.5" x2="5919.9805" y1="190.5" y2="190.5"/></g><!--class comp_arc_sta__baselibs__message_passing--><g id="elem_comp_arc_sta__baselibs__message_passing"><rect fill="#F1F1F1" height="40" id="comp_arc_sta__baselibs__message_passing" rx="2.5" ry="2.5" style="stroke:#181818;stroke-width:0.5;" width="337.1357" x="5268" y="275.5"/><ellipse cx="5283" cy="291.5" fill="#ADD1B2" rx="11" ry="11" style="stroke:#181818;stroke-width:1;"/><path d="M5285.9688,297.1406 Q5285.3906,297.4375 5284.75,297.5781 Q5284.1094,297.7344 5283.4063,297.7344 Q5280.9063,297.7344 5279.5781,296.0938 Q5278.2656,294.4375 5278.2656,291.3125 Q5278.2656,288.1875 5279.5781,286.5313 Q5280.9063,284.875 5283.4063,284.875 Q5284.1094,284.875 5284.75,285.0313 Q5285.4063,285.1875 5285.9688,285.4844 L5285.9688,288.2031 Q5285.3438,287.625 5284.75,287.3594 Q5284.1563,287.0781 5283.5313,287.0781 Q5282.1875,287.0781 5281.5,288.1563 Q5280.8125,289.2188 5280.8125,291.3125 Q5280.8125,293.4063 5281.5,294.4844 Q5282.1875,295.5469 5283.5313,295.5469 Q5284.1563,295.5469 5284.75,295.2813 Q5285.3438,295 5285.9688,294.4219 L5285.9688,297.1406 Z " fill="#000000"/><text fill="#000000" font-family="sans-serif" font-size="14" lengthAdjust="spacing" textLength="305.1357" x="5297" y="296.3467">comp_arc_sta__baselibs__message_passing</text><line style="stroke:#181818;stroke-width:0.5;" x1="5269" x2="5604.1357" y1="307.5" y2="307.5"/></g><!--class logic_arc_int__baselibs__message_passing--><g id="elem_logic_arc_int__baselibs__message_passing"><rect fill="#F1F1F1" height="40" id="logic_arc_int__baselibs__message_passing" rx="2.5" ry="2.5" style="stroke:#181818;stroke-width:0.5;" width="328.167" x="5281.5" y="158.5"/><ellipse cx="5296.5" cy="174.5" fill="#ADD1B2" rx="11" ry="11" style="stroke:#181818;stroke-width:1;"/><path d="M5299.4688,180.1406 Q5298.8906,180.4375 5298.25,180.5781 Q5297.6094,180.7344 5296.9063,180.7344 Q5294.4063,180.7344 5293.0781,179.0938 Q5291.7656,177.4375 5291.7656,174.3125 Q5291.7656,171.1875 5293.0781,169.5313 Q5294.4063,167.875 5296.9063,167.875 Q5297.6094,167.875 5298.25,168.0313 Q5298.9063,168.1875 5299.4688,168.4844 L5299.4688,171.2031 Q5298.8438,170.625 5298.25,170.3594 Q5297.6563,170.0781 5297.0313,170.0781 Q5295.6875,170.0781 5295,171.1563 Q5294.3125,172.2188 5294.3125,174.3125 Q5294.3125,176.4063 5295,177.4844 Q5295.6875,178.5469 5297.0313,178.5469 Q5297.6563,178.5469 5298.25,178.2813 Q5298.8438,178 5299.4688,177.4219 L5299.4688,180.1406 Z " fill="#000000"/><text fill="#000000" font-family="sans-serif" font-size="14" lengthAdjust="spacing" textLength="296.167" x="5310.5" y="179.3467">logic_arc_int__baselibs__message_passing</text><line style="stroke:#181818;stroke-width:0.5;" x1="5282.5" x2="5608.667" y1="190.5" y2="190.5"/></g><!--class logic_arc_int__baselibs__memory_shared--><g id="elem_logic_arc_int__baselibs__memory_shared"><rect fill="#F1F1F1" height="40" id="logic_arc_int__baselibs__memory_shared" rx="2.5" ry="2.5" style="stroke:#181818;stroke-width:0.5;" width="318.043" x="15.5" y="158.5"/><ellipse cx="30.5" cy="174.5" fill="#ADD1B2" rx="11" ry="11" style="stroke:#181818;stroke-width:1;"/><path d="M33.4688,180.1406 Q32.8906,180.4375 32.25,180.5781 Q31.6094,180.7344 30.9063,180.7344 Q28.4063,180.7344 27.0781,179.0938 Q25.7656,177.4375 25.7656,174.3125 Q25.7656,171.1875 27.0781,169.5313 Q28.4063,167.875 30.9063,167.875 Q31.6094,167.875 32.25,168.0313 Q32.9063,168.1875 33.4688,168.4844 L33.4688,171.2031 Q32.8438,170.625 32.25,170.3594 Q31.6563,170.0781 31.0313,170.0781 Q29.6875,170.0781 29,171.1563 Q28.3125,172.2188 28.3125,174.3125 Q28.3125,176.4063 29,177.4844 Q29.6875,178.5469 31.0313,178.5469 Q31.6563,178.5469 32.25,178.2813 Q32.8438,178 33.4688,177.4219 L33.4688,180.1406 Z " fill="#000000"/><text fill="#000000" font-family="sans-serif" font-size="14" lengthAdjust="spacing" textLength="286.043" x="44.5" y="179.3467">logic_arc_int__baselibs__memory_shared</text><line style="stroke:#181818;stroke-width:0.5;" x1="16.5" x2="332.543" y1="190.5" y2="190.5"/></g><!--class logic_arc_int__baselibs__bit_mask_operator--><g id="elem_logic_arc_int__baselibs__bit_mask_operator"><rect fill="#F1F1F1" height="40" id="logic_arc_int__baselibs__bit_mask_operator" rx="2.5" ry="2.5" style="stroke:#181818;stroke-width:0.5;" width="334.6406" x="3204" y="158.5"/><ellipse cx="3219" cy="174.5" fill="#ADD1B2" rx="11" ry="11" style="stroke:#181818;stroke-width:1;"/><path d="M3221.9688,180.1406 Q3221.3906,180.4375 3220.75,180.5781 Q3220.1094,180.7344 3219.4063,180.7344 Q3216.9063,180.7344 3215.5781,179.0938 Q3214.2656,177.4375 3214.2656,174.3125 Q3214.2656,171.1875 3215.5781,169.5313 Q3216.9063,167.875 3219.4063,167.875 Q3220.1094,167.875 3220.75,168.0313 Q3221.4063,168.1875 3221.9688,168.4844 L3221.9688,171.2031 Q3221.3438,170.625 3220.75,170.3594 Q3220.1563,170.0781 3219.5313,170.0781 Q3218.1875,170.0781 3217.5,171.1563 Q3216.8125,172.2188 3216.8125,174.3125 Q3216.8125,176.4063 3217.5,177.4844 Q3218.1875,178.5469 3219.5313,178.5469 Q3220.1563,178.5469 3220.75,178.2813 Q3221.3438,178 3221.9688,177.4219 L3221.9688,180.1406 Z " fill="#000000"/><text fill="#000000" font-family="sans-serif" font-size="14" lengthAdjust="spacing" textLength="302.6406" x="3233" y="179.3467">logic_arc_int__baselibs__bit_mask_operator</text><line style="stroke:#181818;stroke-width:0.5;" x1="3205" x2="3537.6406" y1="190.5" y2="190.5"/></g><!--class comp_arc_sta__baselibs__containers--><g id="elem_comp_arc_sta__baselibs__containers"><rect fill="#F1F1F1" height="40" id="comp_arc_sta__baselibs__containers" rx="2.5" ry="2.5" style="stroke:#181818;stroke-width:0.5;" width="287.1445" x="4787" y="275.5"/><ellipse cx="4802" cy="291.5" fill="#ADD1B2" rx="11" ry="11" style="stroke:#181818;stroke-width:1;"/><path d="M4804.9688,297.1406 Q4804.3906,297.4375 4803.75,297.5781 Q4803.1094,297.7344 4802.4063,297.7344 Q4799.9063,297.7344 4798.5781,296.0938 Q4797.2656,294.4375 4797.2656,291.3125 Q4797.2656,288.1875 4798.5781,286.5313 Q4799.9063,284.875 4802.4063,284.875 Q4803.1094,284.875 4803.75,285.0313 Q4804.4063,285.1875 4804.9688,285.4844 L4804.9688,288.2031 Q4804.3438,287.625 4803.75,287.3594 Q4803.1563,287.0781 4802.5313,287.0781 Q4801.1875,287.0781 4800.5,288.1563 Q4799.8125,289.2188 4799.8125,291.3125 Q4799.8125,293.4063 4800.5,294.4844 Q4801.1875,295.5469 4802.5313,295.5469 Q4803.1563,295.5469 4803.75,295.2813 Q4804.3438,295 4804.9688,294.4219 L4804.9688,297.1406 Z " fill="#000000"/><text fill="#000000" font-family="sans-serif" font-size="14" lengthAdjust="spacing" textLength="255.1445" x="4816" y="296.3467">comp_arc_sta__baselibs__containers</text><line style="stroke:#181818;stroke-width:0.5;" x1="4788" x2="5073.1445" y1="307.5" y2="307.5"/></g><!--class logic_arc_int__baselibs__dynamic_array--><g id="elem_logic_arc_int__baselibs__dynamic_array"><rect fill="#F1F1F1" height="40" id="logic_arc_int__baselibs__dynamic_array" rx="2.5" ry="2.5" style="stroke:#181818;stroke-width:0.5;" width="308.3496" x="4609.5" y="158.5"/><ellipse cx="4624.5" cy="174.5" fill="#ADD1B2" rx="11" ry="11" style="stroke:#181818;stroke-width:1;"/><path d="M4627.4688,180.1406 Q4626.8906,180.4375 4626.25,180.5781 Q4625.6094,180.7344 4624.9063,180.7344 Q4622.4063,180.7344 4621.0781,179.0938 Q4619.7656,177.4375 4619.7656,174.3125 Q4619.7656,171.1875 4621.0781,169.5313 Q4622.4063,167.875 4624.9063,167.875 Q4625.6094,167.875 4626.25,168.0313 Q4626.9063,168.1875 4627.4688,168.4844 L4627.4688,171.2031 Q4626.8438,170.625 4626.25,170.3594 Q4625.6563,170.0781 4625.0313,170.0781 Q4623.6875,170.0781 4623,171.1563 Q4622.3125,172.2188 4622.3125,174.3125 Q4622.3125,176.4063 4623,177.4844 Q4623.6875,178.5469 4625.0313,178.5469 Q4625.6563,178.5469 4626.25,178.2813 Q4626.8438,178 4627.4688,177.4219 L4627.4688,180.1406 Z " fill="#000000"/><text fill="#000000" font-family="sans-serif" font-size="14" lengthAdjust="spacing" textLength="276.3496" x="4638.5" y="179.3467">logic_arc_int__baselibs__dynamic_array</text><line style="stroke:#181818;stroke-width:0.5;" x1="4610.5" x2="4916.8496" y1="190.5" y2="190.5"/></g><!--class logic_arc_int__baselibs__task_result--><g id="elem_logic_arc_int__baselibs__task_result"><rect fill="#F1F1F1" height="40" id="logic_arc_int__baselibs__task_result" rx="2.5" ry="2.5" style="stroke:#181818;stroke-width:0.5;" width="280.9307" x="650" y="158.5"/><ellipse cx="665" cy="174.5" fill="#ADD1B2" rx="11" ry="11" style="stroke:#181818;stroke-width:1;"/><path d="M667.9688,180.1406 Q667.3906,180.4375 666.75,180.5781 Q666.1094,180.7344 665.4063,180.7344 Q662.9063,180.7344 661.5781,179.0938 Q660.2656,177.4375 660.2656,174.3125 Q660.2656,171.1875 661.5781,169.5313 Q662.9063,167.875 665.4063,167.875 Q666.1094,167.875 666.75,168.0313 Q667.4063,168.1875 667.9688,168.4844 L667.9688,171.2031 Q667.3438,170.625 666.75,170.3594 Q666.1563,170.0781 665.5313,170.0781 Q664.1875,170.0781 663.5,171.1563 Q662.8125,172.2188 662.8125,174.3125 Q662.8125,176.4063 663.5,177.4844 Q664.1875,178.5469 665.5313,178.5469 Q666.1563,178.5469 666.75,178.2813 Q667.3438,178 667.9688,177.4219 L667.9688,180.1406 Z " fill="#000000"/><text fill="#000000" font-family="sans-serif" font-size="14" lengthAdjust="spacing" textLength="248.9307" x="679" y="179.3467">logic_arc_int__baselibs__task_result</text><line style="stroke:#181818;stroke-width:0.5;" x1="651" x2="929.9307" y1="190.5" y2="190.5"/></g><!--class comp_arc_sta__baselibs__utils--><g id="elem_comp_arc_sta__baselibs__utils"><rect fill="#F1F1F1" height="40" id="comp_arc_sta__baselibs__utils" rx="2.5" ry="2.5" style="stroke:#181818;stroke-width:0.5;" width="242.9502" x="4110" y="275.5"/><ellipse cx="4125" cy="291.5" fill="#ADD1B2" rx="11" ry="11" style="stroke:#181818;stroke-width:1;"/><path d="M4127.9688,297.1406 Q4127.3906,297.4375 4126.75,297.5781 Q4126.1094,297.7344 4125.4063,297.7344 Q4122.9063,297.7344 4121.5781,296.0938 Q4120.2656,294.4375 4120.2656,291.3125 Q4120.2656,288.1875 4121.5781,286.5313 Q4122.9063,284.875 4125.4063,284.875 Q4126.1094,284.875 4126.75,285.0313 Q4127.4063,285.1875 4127.9688,285.4844 L4127.9688,288.2031 Q4127.3438,287.625 4126.75,287.3594 Q4126.1563,287.0781 4125.5313,287.0781 Q4124.1875,287.0781 4123.5,288.1563 Q4122.8125,289.2188 4122.8125,291.3125 Q4122.8125,293.4063 4123.5,294.4844 Q4124.1875,295.5469 4125.5313,295.5469 Q4126.1563,295.5469 4126.75,295.2813 Q4127.3438,295 4127.9688,294.4219 L4127.9688,297.1406 Z " fill="#000000"/><text fill="#000000" font-family="sans-serif" font-size="14" lengthAdjust="spacing" textLength="210.9502" x="4139" y="296.3467">comp_arc_sta__baselibs__utils</text><line style="stroke:#181818;stroke-width:0.5;" x1="4111" x2="4351.9502" y1="307.5" y2="307.5"/></g><!--class logic_arc_int__baselibs__utils_base64--><g id="elem_logic_arc_int__baselibs__utils_base64"><rect fill="#F1F1F1" height="40" id="logic_arc_int__baselibs__utils_base64" rx="2.5" ry="2.5" style="stroke:#181818;stroke-width:0.5;" width="292.1689" x="4282.5" y="158.5"/><ellipse cx="4297.5" cy="174.5" fill="#ADD1B2" rx="11" ry="11" style="stroke:#181818;stroke-width:1;"/><path d="M4300.4688,180.1406 Q4299.8906,180.4375 4299.25,180.5781 Q4298.6094,180.7344 4297.9063,180.7344 Q4295.4063,180.7344 4294.0781,179.0938 Q4292.7656,177.4375 4292.7656,174.3125 Q4292.7656,171.1875 4294.0781,169.5313 Q4295.4063,167.875 4297.9063,167.875 Q4298.6094,167.875 4299.25,168.0313 Q4299.9063,168.1875 4300.4688,168.4844 L4300.4688,171.2031 Q4299.8438,170.625 4299.25,170.3594 Q4298.6563,170.0781 4298.0313,170.0781 Q4296.6875,170.0781 4296,171.1563 Q4295.3125,172.2188 4295.3125,174.3125 Q4295.3125,176.4063 4296,177.4844 Q4296.6875,178.5469 4298.0313,178.5469 Q4298.6563,178.5469 4299.25,178.2813 Q4299.8438,178 4300.4688,177.4219 L4300.4688,180.1406 Z " fill="#000000"/><text fill="#000000" font-family="sans-serif" font-size="14" lengthAdjust="spacing" textLength="260.1689" x="4311.5" y="179.3467">logic_arc_int__baselibs__utils_base64</text><line style="stroke:#181818;stroke-width:0.5;" x1="4283.5" x2="4573.6689" y1="190.5" y2="190.5"/></g><!--class logic_arc_int__baselibs__synchronized_queue--><g id="elem_logic_arc_int__baselibs__synchronized_queue"><rect fill="#F1F1F1" height="40" id="logic_arc_int__baselibs__synchronized_queue" rx="2.5" ry="2.5" style="stroke:#181818;stroke-width:0.5;" width="348.3604" x="2524.5" y="158.5"/><ellipse cx="2539.5" cy="174.5" fill="#ADD1B2" rx="11" ry="11" style="stroke:#181818;stroke-width:1;"/><path d="M2542.4688,180.1406 Q2541.8906,180.4375 2541.25,180.5781 Q2540.6094,180.7344 2539.9063,180.7344 Q2537.4063,180.7344 2536.0781,179.0938 Q2534.7656,177.4375 2534.7656,174.3125 Q2534.7656,171.1875 2536.0781,169.5313 Q2537.4063,167.875 2539.9063,167.875 Q2540.6094,167.875 2541.25,168.0313 Q2541.9063,168.1875 2542.4688,168.4844 L2542.4688,171.2031 Q2541.8438,170.625 2541.25,170.3594 Q2540.6563,170.0781 2540.0313,170.0781 Q2538.6875,170.0781 2538,171.1563 Q2537.3125,172.2188 2537.3125,174.3125 Q2537.3125,176.4063 2538,177.4844 Q2538.6875,178.5469 2540.0313,178.5469 Q2540.6563,178.5469 2541.25,178.2813 Q2541.8438,178 2542.4688,177.4219 L2542.4688,180.1406 Z " fill="#000000"/><text fill="#000000" font-family="sans-serif" font-size="14" lengthAdjust="spacing" textLength="316.3604" x="2553.5" y="179.3467">logic_arc_int__baselibs__synchronized_queue</text><line style="stroke:#181818;stroke-width:0.5;" x1="2525.5" x2="2871.8604" y1="190.5" y2="190.5"/></g><!--class logic_arc_int__baselibs__intrusive_list--><g id="elem_logic_arc_int__baselibs__intrusive_list"><rect fill="#F1F1F1" height="40" id="logic_arc_int__baselibs__intrusive_list" rx="2.5" ry="2.5" style="stroke:#181818;stroke-width:0.5;" width="293.0713" x="4953" y="158.5"/><ellipse cx="4968" cy="174.5" fill="#ADD1B2" rx="11" ry="11" style="stroke:#181818;stroke-width:1;"/><path d="M4970.9688,180.1406 Q4970.3906,180.4375 4969.75,180.5781 Q4969.1094,180.7344 4968.4063,180.7344 Q4965.9063,180.7344 4964.5781,179.0938 Q4963.2656,177.4375 4963.2656,174.3125 Q4963.2656,171.1875 4964.5781,169.5313 Q4965.9063,167.875 4968.4063,167.875 Q4969.1094,167.875 4969.75,168.0313 Q4970.4063,168.1875 4970.9688,168.4844 L4970.9688,171.2031 Q4970.3438,170.625 4969.75,170.3594 Q4969.1563,170.0781 4968.5313,170.0781 Q4967.1875,170.0781 4966.5,171.1563 Q4965.8125,172.2188 4965.8125,174.3125 Q4965.8125,176.4063 4966.5,177.4844 Q4967.1875,178.5469 4968.5313,178.5469 Q4969.1563,178.5469 4969.75,178.2813 Q4970.3438,178 4970.9688,177.4219 L4970.9688,180.1406 Z " fill="#000000"/><text fill="#000000" font-family="sans-serif" font-size="14" lengthAdjust="spacing" textLength="261.0713" x="4982" y="179.3467">logic_arc_int__baselibs__intrusive_list</text><line style="stroke:#181818;stroke-width:0.5;" x1="4954" x2="5245.0713" y1="190.5" y2="190.5"/></g><!--class comp_arc_sta__baselibs__bit_manipulation--><g id="elem_comp_arc_sta__baselibs__bit_manipulation"><rect fill="#F1F1F1" height="40" id="comp_arc_sta__baselibs__bit_manipulation" rx="2.5" ry="2.5" style="stroke:#181818;stroke-width:0.5;" width="330.8057" x="3386" y="275.5"/><ellipse cx="3401" cy="291.5" fill="#ADD1B2" rx="11" ry="11" style="stroke:#181818;stroke-width:1;"/><path d="M3403.9688,297.1406 Q3403.3906,297.4375 3402.75,297.5781 Q3402.1094,297.7344 3401.4063,297.7344 Q3398.9063,297.7344 3397.5781,296.0938 Q3396.2656,294.4375 3396.2656,291.3125 Q3396.2656,288.1875 3397.5781,286.5313 Q3398.9063,284.875 3401.4063,284.875 Q3402.1094,284.875 3402.75,285.0313 Q3403.4063,285.1875 3403.9688,285.4844 L3403.9688,288.2031 Q3403.3438,287.625 3402.75,287.3594 Q3402.1563,287.0781 3401.5313,287.0781 Q3400.1875,287.0781 3399.5,288.1563 Q3398.8125,289.2188 3398.8125,291.3125 Q3398.8125,293.4063 3399.5,294.4844 Q3400.1875,295.5469 3401.5313,295.5469 Q3402.1563,295.5469 3402.75,295.2813 Q3403.3438,295 3403.9688,294.4219 L3403.9688,297.1406 Z " fill="#000000"/><text fill="#000000" font-family="sans-serif" font-size="14" lengthAdjust="spacing" textLength="298.8057" x="3415" y="296.3467">comp_arc_sta__baselibs__bit_manipulation</text><line style="stroke:#181818;stroke-width:0.5;" x1="3387" x2="3715.8057" y1="307.5" y2="307.5"/></g><!--class logic_arc_int__baselibs__condition_variable--><g id="elem_logic_arc_int__baselibs__condition_variable"><rect fill="#F1F1F1" height="40" id="logic_arc_int__baselibs__condition_variable" rx="2.5" ry="2.5" style="stroke:#181818;stroke-width:0.5;" width="332.7539" x="1573" y="158.5"/><ellipse cx="1588" cy="174.5" fill="#ADD1B2" rx="11" ry="11" style="stroke:#181818;stroke-width:1;"/><path d="M1590.9688,180.1406 Q1590.3906,180.4375 1589.75,180.5781 Q1589.1094,180.7344 1588.4063,180.7344 Q1585.9063,180.7344 1584.5781,179.0938 Q1583.2656,177.4375 1583.2656,174.3125 Q1583.2656,171.1875 1584.5781,169.5313 Q1585.9063,167.875 1588.4063,167.875 Q1589.1094,167.875 1589.75,168.0313 Q1590.4063,168.1875 1590.9688,168.4844 L1590.9688,171.2031 Q1590.3438,170.625 1589.75,170.3594 Q1589.1563,170.0781 1588.5313,170.0781 Q1587.1875,170.0781 1586.5,171.1563 Q1585.8125,172.2188 1585.8125,174.3125 Q1585.8125,176.4063 1586.5,177.4844 Q1587.1875,178.5469 1588.5313,178.5469 Q1589.1563,178.5469 1589.75,178.2813 Q1590.3438,178 1590.9688,177.4219 L1590.9688,180.1406 Z " fill="#000000"/><text fill="#000000" font-family="sans-serif" font-size="14" lengthAdjust="spacing" textLength="300.7539" x="1602" y="179.3467">logic_arc_int__baselibs__condition_variable</text><line style="stroke:#181818;stroke-width:0.5;" x1="1574" x2="1904.7539" y1="190.5" y2="190.5"/></g><!--class logic_arc_int__baselibs__bit_manipulation--><g id="elem_logic_arc_int__baselibs__bit_manipulation"><rect fill="#F1F1F1" height="40" id="logic_arc_int__baselibs__bit_manipulation" rx="2.5" ry="2.5" style="stroke:#181818;stroke-width:0.5;" width="321.8369" x="3574.5" y="158.5"/><ellipse cx="3589.5" cy="174.5" fill="#ADD1B2" rx="11" ry="11" style="stroke:#181818;stroke-width:1;"/><path d="M3592.4688,180.1406 Q3591.8906,180.4375 3591.25,180.5781 Q3590.6094,180.7344 3589.9063,180.7344 Q3587.4063,180.7344 3586.0781,179.0938 Q3584.7656,177.4375 3584.7656,174.3125 Q3584.7656,171.1875 3586.0781,169.5313 Q3587.4063,167.875 3589.9063,167.875 Q3590.6094,167.875 3591.25,168.0313 Q3591.9063,168.1875 3592.4688,168.4844 L3592.4688,171.2031 Q3591.8438,170.625 3591.25,170.3594 Q3590.6563,170.0781 3590.0313,170.0781 Q3588.6875,170.0781 3588,171.1563 Q3587.3125,172.2188 3587.3125,174.3125 Q3587.3125,176.4063 3588,177.4844 Q3588.6875,178.5469 3590.0313,178.5469 Q3590.6563,178.5469 3591.25,178.2813 Q3591.8438,178 3592.4688,177.4219 L3592.4688,180.1406 Z " fill="#000000"/><text fill="#000000" font-family="sans-serif" font-size="14" lengthAdjust="spacing" textLength="289.8369" x="3603.5" y="179.3467">logic_arc_int__baselibs__bit_manipulation</text><line style="stroke:#181818;stroke-width:0.5;" x1="3575.5" x2="3895.3369" y1="190.5" y2="190.5"/></g><!--class comp_arc_sta__baselibs__result--><g id="elem_comp_arc_sta__baselibs__result"><rect fill="#F1F1F1" height="40" id="comp_arc_sta__baselibs__result" rx="2.5" ry="2.5" style="stroke:#181818;stroke-width:0.5;" width="253.4297" x="369" y="275.5"/><ellipse cx="384" cy="291.5" fill="#ADD1B2" rx="11" ry="11" style="stroke:#181818;stroke-width:1;"/><path d="M386.9688,297.1406 Q386.3906,297.4375 385.75,297.5781 Q385.1094,297.7344 384.4063,297.7344 Q381.9063,297.7344 380.5781,296.0938 Q379.2656,294.4375 379.2656,291.3125 Q379.2656,288.1875 380.5781,286.5313 Q381.9063,284.875 384.4063,284.875 Q385.1094,284.875 385.75,285.0313 Q386.4063,285.1875 386.9688,285.4844 L386.9688,288.2031 Q386.3438,287.625 385.75,287.3594 Q385.1563,287.0781 384.5313,287.0781 Q383.1875,287.0781 382.5,288.1563 Q381.8125,289.2188 381.8125,291.3125 Q381.8125,293.4063 382.5,294.4844 Q383.1875,295.5469 384.5313,295.5469 Q385.1563,295.5469 385.75,295.2813 Q386.3438,295 386.9688,294.4219 L386.9688,297.1406 Z " fill="#000000"/><text fill="#000000" font-family="sans-serif" font-size="14" lengthAdjust="spacing" textLength="221.4297" x="398" y="296.3467">comp_arc_sta__baselibs__result</text><line style="stroke:#181818;stroke-width:0.5;" x1="370" x2="621.4297" y1="307.5" y2="307.5"/></g><!--class logic_arc_int__baselibs__result--><g id="elem_logic_arc_int__baselibs__result"><rect fill="#F1F1F1" height="40" id="logic_arc_int__baselibs__result" rx="2.5" ry="2.5" style="stroke:#181818;stroke-width:0.5;" width="244.4609" x="370.5" y="158.5"/><ellipse cx="385.5" cy="174.5" fill="#ADD1B2" rx="11" ry="11" style="stroke:#181818;stroke-width:1;"/><path d="M388.4688,180.1406 Q387.8906,180.4375 387.25,180.5781 Q386.6094,180.7344 385.9063,180.7344 Q383.4063,180.7344 382.0781,179.0938 Q380.7656,177.4375 380.7656,174.3125 Q380.7656,171.1875 382.0781,169.5313 Q383.4063,167.875 385.9063,167.875 Q386.6094,167.875 387.25,168.0313 Q387.9063,168.1875 388.4688,168.4844 L388.4688,171.2031 Q387.8438,170.625 387.25,170.3594 Q386.6563,170.0781 386.0313,170.0781 Q384.6875,170.0781 384,171.1563 Q383.3125,172.2188 383.3125,174.3125 Q383.3125,176.4063 384,177.4844 Q384.6875,178.5469 386.0313,178.5469 Q386.6563,178.5469 387.25,178.2813 Q387.8438,178 388.4688,177.4219 L388.4688,180.1406 Z " fill="#000000"/><text fill="#000000" font-family="sans-serif" font-size="14" lengthAdjust="spacing" textLength="212.4609" x="399.5" y="179.3467">logic_arc_int__baselibs__result</text><line style="stroke:#181818;stroke-width:0.5;" x1="371.5" x2="613.9609" y1="190.5" y2="190.5"/></g><!--class comp_arc_sta__baselibs__memory_shared--><g id="elem_comp_arc_sta__baselibs__memory_shared"><rect fill="#F1F1F1" height="40" id="comp_arc_sta__baselibs__memory_shared" rx="2.5" ry="2.5" style="stroke:#181818;stroke-width:0.5;" width="327.0117" x="7" y="275.5"/><ellipse cx="22" cy="291.5" fill="#ADD1B2" rx="11" ry="11" style="stroke:#181818;stroke-width:1;"/><path d="M24.9688,297.1406 Q24.3906,297.4375 23.75,297.5781 Q23.1094,297.7344 22.4063,297.7344 Q19.9063,297.7344 18.5781,296.0938 Q17.2656,294.4375 17.2656,291.3125 Q17.2656,288.1875 18.5781,286.5313 Q19.9063,284.875 22.4063,284.875 Q23.1094,284.875 23.75,285.0313 Q24.4063,285.1875 24.9688,285.4844 L24.9688,288.2031 Q24.3438,287.625 23.75,287.3594 Q23.1563,287.0781 22.5313,287.0781 Q21.1875,287.0781 20.5,288.1563 Q19.8125,289.2188 19.8125,291.3125 Q19.8125,293.4063 20.5,294.4844 Q21.1875,295.5469 22.5313,295.5469 Q23.1563,295.5469 23.75,295.2813 Q24.3438,295 24.9688,294.4219 L24.9688,297.1406 Z " fill="#000000"/><text fill="#000000" font-family="sans-serif" font-size="14" lengthAdjust="spacing" textLength="295.0117" x="36" y="296.3467">comp_arc_sta__baselibs__memory_shared</text><line style="stroke:#181818;stroke-width:0.5;" x1="8" x2="333.0117" y1="307.5" y2="307.5"/></g><!--link Feature_User to logic_arc_int__baselibs__promise--><g id="link_Feature_User_logic_arc_int__baselibs__promise"><path codeLine="15" d="M3038.5,81.55 C3038.5,106.45 3038.5,132.26 3038.5,152.26 " fill="transparent" id="Feature_User-to-logic_arc_int__baselibs__promise" style="stroke:#181818;stroke-width:1;"/><polygon fill="#181818" points="3038.5,158.26,3042.5,149.26,3038.5,153.26,3034.5,149.26,3038.5,158.26" style="stroke:#181818;stroke-width:1;"/><text fill="#000000" font-family="sans-serif" font-size="13" lengthAdjust="spacing" textLength="23.0103" x="3039.5" y="124.5669">use</text></g><!--reverse link logic_arc_int__baselibs__executor to comp_arc_sta__baselibs__concurrency--><g id="link_logic_arc_int__baselibs__executor_comp_arc_sta__baselibs__concurrency"><path codeLine="16" d="M2266.8092,199.8798 C2173.1392,221.1698 2028.24,254.11 1934.5,275.41 " fill="transparent" id="logic_arc_int__baselibs__executor-backto-comp_arc_sta__baselibs__concurrency" style="stroke:#181818;stroke-width:1;"/><polygon fill="#181818" points="2272.66,198.55,2262.9973,196.6442,2267.7844,199.6582,2264.7704,204.4452,2272.66,198.55" style="stroke:#181818;stroke-width:1;"/><text fill="#000000" font-family="sans-serif" font-size="13" lengthAdjust="spacing" textLength="76.9082" x="2134.5" y="241.5669">implements</text></g><!--link Feature_User to logic_arc_int__baselibs__task--><g id="link_Feature_User_logic_arc_int__baselibs__task"><path codeLine="17" d="M2993.2,46.94 C2811.92,56.91 2121.23,97.01 1555.5,158.5 C1549.62,159.14 1549.5572,159.1247 1543.4772,159.8547 " fill="transparent" id="Feature_User-to-logic_arc_int__baselibs__task" style="stroke:#181818;stroke-width:1;"/><polygon fill="#181818" points="1537.52,160.57,1546.9327,163.4686,1542.4843,159.974,1545.979,155.5256,1537.52,160.57" style="stroke:#181818;stroke-width:1;"/><text fill="#000000" font-family="sans-serif" font-size="13" lengthAdjust="spacing" textLength="23.0103" x="2044.5" y="124.5669">use</text></g><!--link Feature_User to logic_arc_int__baselibs__shared_future--><g id="link_Feature_User_logic_arc_int__baselibs__shared_future"><path codeLine="18" d="M2993.38,46.33 C2792.97,54.71 1963.49,91.83 1285.5,158.5 C1279.95,159.05 1280.2693,159.0137 1274.5593,159.5937 " fill="transparent" id="Feature_User-to-logic_arc_int__baselibs__shared_future" style="stroke:#181818;stroke-width:1;"/><polygon fill="#181818" points="1268.59,160.2,1277.9482,163.27,1273.5644,159.6947,1277.1397,155.311,1268.59,160.2" style="stroke:#181818;stroke-width:1;"/><text fill="#000000" font-family="sans-serif" font-size="13" lengthAdjust="spacing" textLength="23.0103" x="1816.5" y="124.5669">use</text></g><!--reverse link logic_arc_int__baselibs__future to comp_arc_sta__baselibs__concurrency--><g id="link_logic_arc_int__baselibs__future_comp_arc_sta__baselibs__concurrency"><path codeLine="19" d="M2023.3947,201.5901 C1983.7747,222.8801 1925.6,254.14 1886.08,275.38 " fill="transparent" id="logic_arc_int__baselibs__future-backto-comp_arc_sta__baselibs__concurrency" style="stroke:#181818;stroke-width:1;"/><polygon fill="#181818" points="2028.68,198.75,2018.8587,199.4866,2024.2756,201.1167,2022.6455,206.5336,2028.68,198.75" style="stroke:#181818;stroke-width:1;"/><text fill="#000000" font-family="sans-serif" font-size="13" lengthAdjust="spacing" textLength="76.9082" x="1971.5" y="241.5669">implements</text></g><!--reverse link logic_arc_int__baselibs__json to comp_arc_sta__baselibs__json--><g id="link_logic_arc_int__baselibs__json_comp_arc_sta__baselibs__json"><path codeLine="20" d="M6078.379,204.7464 C6079.119,225.9764 6080.09,253.94 6080.83,275.19 " fill="transparent" id="logic_arc_int__baselibs__json-backto-comp_arc_sta__baselibs__json" style="stroke:#181818;stroke-width:1;"/><polygon fill="#181818" points="6078.17,198.75,6074.4859,207.8839,6078.3442,203.747,6082.4811,207.6052,6078.17,198.75" style="stroke:#181818;stroke-width:1;"/><text fill="#000000" font-family="sans-serif" font-size="13" lengthAdjust="spacing" textLength="76.9082" x="6080.5" y="241.5669">implements</text></g><!--reverse link logic_arc_int__baselibs__task to comp_arc_sta__baselibs__concurrency--><g id="link_logic_arc_int__baselibs__task_comp_arc_sta__baselibs__concurrency"><path codeLine="21" d="M1497.7863,200.1702 C1577.4263,221.4702 1699.63,254.15 1779.2,275.43 " fill="transparent" id="logic_arc_int__baselibs__task-backto-comp_arc_sta__baselibs__concurrency" style="stroke:#181818;stroke-width:1;"/><polygon fill="#181818" points="1491.99,198.62,1499.6509,204.8095,1496.8202,199.9119,1501.7179,197.0812,1491.99,198.62" style="stroke:#181818;stroke-width:1;"/><text fill="#000000" font-family="sans-serif" font-size="13" lengthAdjust="spacing" textLength="76.9082" x="1662.5" y="241.5669">implements</text></g><!--link Feature_User to logic_arc_int__baselibs__utils_scoped_op--><g id="link_Feature_User_logic_arc_int__baselibs__utils_scoped_op"><path codeLine="22" d="M3083.66,50.21 C3230.12,68.75 3690.4875,127.0067 3933.3175,157.7367 " fill="transparent" id="Feature_User-to-logic_arc_int__baselibs__utils_scoped_op" style="stroke:#181818;stroke-width:1;"/><polygon fill="#181818" points="3939.27,158.49,3930.8434,153.3917,3934.3096,157.8623,3929.839,161.3284,3939.27,158.49" style="stroke:#181818;stroke-width:1;"/><text fill="#000000" font-family="sans-serif" font-size="13" lengthAdjust="spacing" textLength="23.0103" x="3689.5" y="124.5669">use</text></g><!--reverse link logic_arc_int__baselibs__filesystem to comp_arc_sta__baselibs__filesystem--><g id="link_logic_arc_int__baselibs__filesystem_comp_arc_sta__baselibs__filesystem"><path codeLine="23" d="M5782.5,204.75 C5782.5,225.98 5782.5,253.94 5782.5,275.19 " fill="transparent" id="logic_arc_int__baselibs__filesystem-backto-comp_arc_sta__baselibs__filesystem" style="stroke:#181818;stroke-width:1;"/><polygon fill="#181818" points="5782.5,198.75,5778.5,207.75,5782.5,203.75,5786.5,207.75,5782.5,198.75" style="stroke:#181818;stroke-width:1;"/><text fill="#000000" font-family="sans-serif" font-size="13" lengthAdjust="spacing" textLength="76.9082" x="5783.5" y="241.5669">implements</text></g><!--reverse link logic_arc_int__baselibs__message_passing to comp_arc_sta__baselibs__message_passing--><g id="link_logic_arc_int__baselibs__message_passing_comp_arc_sta__baselibs__message_passing"><path codeLine="24" d="M5443.5223,204.7317 C5441.8623,225.9617 5439.67,253.94 5438.01,275.19 " fill="transparent" id="logic_arc_int__baselibs__message_passing-backto-comp_arc_sta__baselibs__message_passing" style="stroke:#181818;stroke-width:1;"/><polygon fill="#181818" points="5443.99,198.75,5439.3006,207.4108,5443.6002,203.7348,5447.2762,208.0344,5443.99,198.75" style="stroke:#181818;stroke-width:1;"/><text fill="#000000" font-family="sans-serif" font-size="13" lengthAdjust="spacing" textLength="76.9082" x="5442.5" y="241.5669">implements</text></g><!--link Feature_User to logic_arc_int__baselibs__memory_shared--><g id="link_Feature_User_logic_arc_int__baselibs__memory_shared"><path codeLine="25" d="M2993.46,45.2 C2771.76,48.78 1774.26,66.75 958.5,111.5 C688.76,126.3 621.5,133.72 352.5,158.5 C346.31,159.07 345.9727,159.098 339.6027,159.708 " fill="transparent" id="Feature_User-to-logic_arc_int__baselibs__memory_shared" style="stroke:#181818;stroke-width:1;"/><polygon fill="#181818" points="333.63,160.28,342.9703,163.4039,338.6072,159.8034,342.2077,155.4403,333.63,160.28" style="stroke:#181818;stroke-width:1;"/><text fill="#000000" font-family="sans-serif" font-size="13" lengthAdjust="spacing" textLength="23.0103" x="959.5" y="124.5669">use</text></g><!--link Feature_User to logic_arc_int__baselibs__bit_mask_operator--><g id="link_Feature_User_logic_arc_int__baselibs__bit_mask_operator"><path codeLine="26" d="M3083.76,62.58 C3146.62,87.68 3254.2682,130.6741 3318.3482,156.2741 " fill="transparent" id="Feature_User-to-logic_arc_int__baselibs__bit_mask_operator" style="stroke:#181818;stroke-width:1;"/><polygon fill="#181818" points="3323.92,158.5,3317.0462,151.4465,3319.2768,156.645,3314.0783,158.8756,3323.92,158.5" style="stroke:#181818;stroke-width:1;"/><text fill="#000000" font-family="sans-serif" font-size="13" lengthAdjust="spacing" textLength="23.0103" x="3245.5" y="124.5669">use</text></g><!--reverse link logic_arc_int__baselibs__dynamic_array to comp_arc_sta__baselibs__containers--><g id="link_logic_arc_int__baselibs__dynamic_array_comp_arc_sta__baselibs__containers"><path codeLine="27" d="M4796.3918,202.1527 C4827.3118,223.4427 4871.89,254.14 4902.74,275.38 " fill="transparent" id="logic_arc_int__baselibs__dynamic_array-backto-comp_arc_sta__baselibs__containers" style="stroke:#181818;stroke-width:1;"/><polygon fill="#181818" points="4791.45,198.75,4796.5943,207.1486,4795.5682,201.5856,4801.1312,200.5595,4791.45,198.75" style="stroke:#181818;stroke-width:1;"/><text fill="#000000" font-family="sans-serif" font-size="13" lengthAdjust="spacing" textLength="76.9082" x="4857.5" y="241.5669">implements</text></g><!--link Feature_User to logic_arc_int__baselibs__executor--><g id="link_Feature_User_logic_arc_int__baselibs__executor"><path codeLine="28" d="M2993.49,53.28 C2884.37,74.56 2609.609,128.1415 2459.889,157.3415 " fill="transparent" id="Feature_User-to-logic_arc_int__baselibs__executor" style="stroke:#181818;stroke-width:1;"/><polygon fill="#181818" points="2454,158.49,2463.5993,160.6932,2458.9075,157.5329,2462.0679,152.8412,2454,158.49" style="stroke:#181818;stroke-width:1;"/><text fill="#000000" font-family="sans-serif" font-size="13" lengthAdjust="spacing" textLength="23.0103" x="2677.5" y="124.5669">use</text></g><!--link Feature_User to logic_arc_int__baselibs__task_result--><g id="link_Feature_User_logic_arc_int__baselibs__task_result"><path codeLine="29" d="M2993.39,46.32 C2818.74,53.44 2170.18,80.52 1636.5,111.5 C1330.52,129.26 1253.64,129.75 948.5,158.5 C942.86,159.03 943.0792,158.9928 937.2792,159.5828 " fill="transparent" id="Feature_User-to-logic_arc_int__baselibs__task_result" style="stroke:#181818;stroke-width:1;"/><polygon fill="#181818" points="931.31,160.19,940.6686,163.2586,936.2843,159.684,939.859,155.2997,931.31,160.19" style="stroke:#181818;stroke-width:1;"/><text fill="#000000" font-family="sans-serif" font-size="13" lengthAdjust="spacing" textLength="23.0103" x="1637.5" y="124.5669">use</text></g><!--link Feature_User to logic_arc_int__baselibs__message_passing--><g id="link_Feature_User_logic_arc_int__baselibs__message_passing"><path codeLine="30" d="M3083.72,45.96 C3270.92,52.11 4003.68,77.15 4605.5,111.5 C4898.21,128.21 4971.44,132.83 5263.5,158.5 C5269.35,159.01 5269.3358,158.9943 5275.3558,159.5543 " fill="transparent" id="Feature_User-to-logic_arc_int__baselibs__message_passing" style="stroke:#181818;stroke-width:1;"/><polygon fill="#181818" points="5281.33,160.11,5272.7392,155.2936,5276.3515,159.6469,5271.9982,163.2592,5281.33,160.11" style="stroke:#181818;stroke-width:1;"/><text fill="#000000" font-family="sans-serif" font-size="13" lengthAdjust="spacing" textLength="23.0103" x="4879.5" y="124.5669">use</text></g><!--reverse link logic_arc_int__baselibs__utils_base64 to comp_arc_sta__baselibs__utils--><g id="link_logic_arc_int__baselibs__utils_base64_comp_arc_sta__baselibs__utils"><path codeLine="31" d="M4390.3479,201.7743 C4353.8679,223.0643 4300.64,254.14 4264.25,275.38 " fill="transparent" id="logic_arc_int__baselibs__utils_base64-backto-comp_arc_sta__baselibs__utils" style="stroke:#181818;stroke-width:1;"/><polygon fill="#181818" points="4395.53,198.75,4385.7407,199.8317,4391.2116,201.2702,4389.7731,206.7411,4395.53,198.75" style="stroke:#181818;stroke-width:1;"/><text fill="#000000" font-family="sans-serif" font-size="13" lengthAdjust="spacing" textLength="76.9082" x="4342.5" y="241.5669">implements</text></g><!--link Feature_User to logic_arc_int__baselibs__synchronized_queue--><g id="link_Feature_User_logic_arc_int__baselibs__synchronized_queue"><path codeLine="32" d="M2993.35,62.16 C2929.4,87.18 2818.5179,130.5546 2752.7279,156.2846 " fill="transparent" id="Feature_User-to-logic_arc_int__baselibs__synchronized_queue" style="stroke:#181818;stroke-width:1;"/><polygon fill="#181818" points="2747.14,158.47,2756.9787,158.9172,2751.7965,156.6489,2754.0649,151.4667,2747.14,158.47" style="stroke:#181818;stroke-width:1;"/><text fill="#000000" font-family="sans-serif" font-size="13" lengthAdjust="spacing" textLength="23.0103" x="2858.5" y="124.5669">use</text></g><!--reverse link logic_arc_int__baselibs__utils_scoped_op to comp_arc_sta__baselibs__utils--><g id="link_logic_arc_int__baselibs__utils_scoped_op_comp_arc_sta__baselibs__utils"><path codeLine="33" d="M4117.9324,202.5265 C4144.1424,223.7565 4181.41,253.94 4207.65,275.19 " fill="transparent" id="logic_arc_int__baselibs__utils_scoped_op-backto-comp_arc_sta__baselibs__utils" style="stroke:#181818;stroke-width:1;"/><polygon fill="#181818" points="4113.27,198.75,4117.7459,207.523,4117.1553,201.8971,4122.7813,201.3065,4113.27,198.75" style="stroke:#181818;stroke-width:1;"/><text fill="#000000" font-family="sans-serif" font-size="13" lengthAdjust="spacing" textLength="76.9082" x="4169.5" y="241.5669">implements</text></g><!--reverse link logic_arc_int__baselibs__intrusive_list to comp_arc_sta__baselibs__containers--><g id="link_logic_arc_int__baselibs__intrusive_list_comp_arc_sta__baselibs__containers"><path codeLine="34" d="M5066.2494,202.1252 C5034.9594,223.4152 4989.81,254.14 4958.6,275.38 " fill="transparent" id="logic_arc_int__baselibs__intrusive_list-backto-comp_arc_sta__baselibs__containers" style="stroke:#181818;stroke-width:1;"/><polygon fill="#181818" points="5071.21,198.75,5061.5189,200.5058,5067.0762,201.5627,5066.0192,207.1199,5071.21,198.75" style="stroke:#181818;stroke-width:1;"/><text fill="#000000" font-family="sans-serif" font-size="13" lengthAdjust="spacing" textLength="76.9082" x="5025.5" y="241.5669">implements</text></g><!--link Feature_User to logic_arc_int__baselibs__json--><g id="link_Feature_User_logic_arc_int__baselibs__json"><path codeLine="35" d="M3083.88,45.16 C3316.23,48.7 4395.97,66.9 5278.5,111.5 C5572.2,126.34 5646,128.13 5938.5,158.5 C5945.77,159.25 5947.2824,159.3779 5954.8124,160.2779 " fill="transparent" id="Feature_User-to-logic_arc_int__baselibs__json" style="stroke:#181818;stroke-width:1;"/><polygon fill="#181818" points="5960.77,160.99,5952.3083,155.9502,5955.8053,160.3966,5951.3589,163.8936,5960.77,160.99" style="stroke:#181818;stroke-width:1;"/><text fill="#000000" font-family="sans-serif" font-size="13" lengthAdjust="spacing" textLength="23.0103" x="5598.5" y="124.5669">use</text></g><!--reverse link logic_arc_int__baselibs__bit_mask_operator to comp_arc_sta__baselibs__bit_manipulation--><g id="link_logic_arc_int__baselibs__bit_mask_operator_comp_arc_sta__baselibs__bit_manipulation"><path codeLine="36" d="M3406.6865,201.9799 C3440.0165,223.2699 3488.33,254.14 3521.57,275.38 " fill="transparent" id="logic_arc_int__baselibs__bit_mask_operator-backto-comp_arc_sta__baselibs__bit_manipulation" style="stroke:#181818;stroke-width:1;"/><polygon fill="#181818" points="3401.63,198.75,3407.0614,206.9658,3405.8437,201.4416,3411.368,200.2239,3401.63,198.75" style="stroke:#181818;stroke-width:1;"/><text fill="#000000" font-family="sans-serif" font-size="13" lengthAdjust="spacing" textLength="76.9082" x="3472.5" y="241.5669">implements</text></g><!--link Feature_User to logic_arc_int__baselibs__future--><g id="link_Feature_User_logic_arc_int__baselibs__future"><path codeLine="37" d="M2993.48,50.65 C2851.02,70.1 2412.6448,129.9582 2194.2048,159.7882 " fill="transparent" id="Feature_User-to-logic_arc_int__baselibs__future" style="stroke:#181818;stroke-width:1;"/><polygon fill="#181818" points="2188.26,160.6,2197.7185,163.3455,2193.214,159.9235,2196.636,155.4191,2188.26,160.6" style="stroke:#181818;stroke-width:1;"/><text fill="#000000" font-family="sans-serif" font-size="13" lengthAdjust="spacing" textLength="23.0103" x="2522.5" y="124.5669">use</text></g><!--reverse link logic_arc_int__baselibs__promise to comp_arc_sta__baselibs__concurrency--><g id="link_logic_arc_int__baselibs__promise_comp_arc_sta__baselibs__concurrency"><path codeLine="38" d="M2901.8214,197.184 C2895.9814,197.874 2896.16,197.85 2890.5,198.5 C2574.34,234.7 2202.89,266.38 2000.55,282.73 " fill="transparent" id="logic_arc_int__baselibs__promise-backto-comp_arc_sta__baselibs__concurrency" style="stroke:#181818;stroke-width:1;"/><polygon fill="#181818" points="2907.78,196.48,2898.3728,193.5636,2902.8145,197.0667,2899.3115,201.5084,2907.78,196.48" style="stroke:#181818;stroke-width:1;"/><text fill="#000000" font-family="sans-serif" font-size="13" lengthAdjust="spacing" textLength="76.9082" x="2605.5" y="241.5669">implements</text></g><!--link Feature_User to logic_arc_int__baselibs__condition_variable--><g id="link_Feature_User_logic_arc_int__baselibs__condition_variable"><path codeLine="39" d="M2993.36,49.1 C2842.08,64.51 2339.18,115.79 1923.5,158.5 C1917.91,159.07 1918.1886,159.0465 1912.4486,159.6365 " fill="transparent" id="Feature_User-to-logic_arc_int__baselibs__condition_variable" style="stroke:#181818;stroke-width:1;"/><polygon fill="#181818" points="1906.48,160.25,1915.8418,163.3088,1911.4538,159.7388,1915.0238,155.3507,1906.48,160.25" style="stroke:#181818;stroke-width:1;"/><text fill="#000000" font-family="sans-serif" font-size="13" lengthAdjust="spacing" textLength="23.0103" x="2353.5" y="124.5669">use</text></g><!--reverse link logic_arc_int__baselibs__synchronized_queue to comp_arc_sta__baselibs__concurrency--><g id="link_logic_arc_int__baselibs__synchronized_queue_comp_arc_sta__baselibs__concurrency"><path codeLine="40" d="M2555.7968,199.3539 C2459.9968,212.6339 2334.92,229.88 2219.5,245.5 C2145.53,255.51 2063.2,266.46 1995.1,275.47 " fill="transparent" id="logic_arc_int__baselibs__synchronized_queue-backto-comp_arc_sta__baselibs__concurrency" style="stroke:#181818;stroke-width:1;"/><polygon fill="#181818" points="2561.74,198.53,2552.276,195.8037,2556.7874,199.2165,2553.3745,203.7279,2561.74,198.53" style="stroke:#181818;stroke-width:1;"/><text fill="#000000" font-family="sans-serif" font-size="13" lengthAdjust="spacing" textLength="76.9082" x="2338.5" y="241.5669">implements</text></g><!--reverse link logic_arc_int__baselibs__bit_manipulation to comp_arc_sta__baselibs__bit_manipulation--><g id="link_logic_arc_int__baselibs__bit_manipulation_comp_arc_sta__baselibs__bit_manipulation"><path codeLine="41" d="M3699.6118,201.9296 C3665.5418,223.2196 3616.08,254.14 3582.09,275.38 " fill="transparent" id="logic_arc_int__baselibs__bit_manipulation-backto-comp_arc_sta__baselibs__bit_manipulation" style="stroke:#181818;stroke-width:1;"/><polygon fill="#181818" points="3704.7,198.75,3694.9479,200.1272,3700.4598,201.3997,3699.1874,206.9115,3704.7,198.75" style="stroke:#181818;stroke-width:1;"/><text fill="#000000" font-family="sans-serif" font-size="13" lengthAdjust="spacing" textLength="76.9082" x="3655.5" y="241.5669">implements</text></g><!--reverse link logic_arc_int__baselibs__result to comp_arc_sta__baselibs__result--><g id="link_logic_arc_int__baselibs__result_comp_arc_sta__baselibs__result"><path codeLine="42" d="M493.1582,204.7479 C493.7182,225.9779 494.44,253.94 495,275.19 " fill="transparent" id="logic_arc_int__baselibs__result-backto-comp_arc_sta__baselibs__result" style="stroke:#181818;stroke-width:1;"/><polygon fill="#181818" points="493,198.75,489.2387,207.8523,493.1318,203.7483,497.2359,207.6414,493,198.75" style="stroke:#181818;stroke-width:1;"/><text fill="#000000" font-family="sans-serif" font-size="13" lengthAdjust="spacing" textLength="76.9082" x="495.5" y="241.5669">implements</text></g><!--reverse link logic_arc_int__baselibs__shared_future to comp_arc_sta__baselibs__concurrency--><g id="link_logic_arc_int__baselibs__shared_future_comp_arc_sta__baselibs__concurrency"><path codeLine="43" d="M1238.7107,199.5325 C1320.1707,212.9125 1426.02,230.11 1524.5,245.5 C1589.39,255.64 1661.6,266.53 1721.54,275.47 " fill="transparent" id="logic_arc_int__baselibs__shared_future-backto-comp_arc_sta__baselibs__concurrency" style="stroke:#181818;stroke-width:1;"/><polygon fill="#181818" points="1232.79,198.56,1241.0227,203.9658,1237.7239,199.3704,1242.3193,196.0716,1232.79,198.56" style="stroke:#181818;stroke-width:1;"/><text fill="#000000" font-family="sans-serif" font-size="13" lengthAdjust="spacing" textLength="76.9082" x="1525.5" y="241.5669">implements</text></g><!--link Feature_User to logic_arc_int__baselibs__bit_manipulation--><g id="link_Feature_User_logic_arc_int__baselibs__bit_manipulation"><path codeLine="44" d="M3083.7,53.12 C3194.63,74.29 3476.5763,128.0954 3629.9663,157.3654 " fill="transparent" id="Feature_User-to-logic_arc_int__baselibs__bit_manipulation" style="stroke:#181818;stroke-width:1;"/><polygon fill="#181818" points="3635.86,158.49,3627.7693,152.8739,3630.9486,157.5528,3626.2698,160.7322,3635.86,158.49" style="stroke:#181818;stroke-width:1;"/><text fill="#000000" font-family="sans-serif" font-size="13" lengthAdjust="spacing" textLength="23.0103" x="3470.5" y="124.5669">use</text></g><!--reverse link logic_arc_int__baselibs__memory_shared to comp_arc_sta__baselibs__memory_shared--><g id="link_logic_arc_int__baselibs__memory_shared_comp_arc_sta__baselibs__memory_shared"><path codeLine="45" d="M173.621,204.7464 C172.881,225.9764 171.91,253.94 171.17,275.19 " fill="transparent" id="logic_arc_int__baselibs__memory_shared-backto-comp_arc_sta__baselibs__memory_shared" style="stroke:#181818;stroke-width:1;"/><polygon fill="#181818" points="173.83,198.75,169.5189,207.6052,173.6558,203.747,177.5141,207.8839,173.83,198.75" style="stroke:#181818;stroke-width:1;"/><text fill="#000000" font-family="sans-serif" font-size="13" lengthAdjust="spacing" textLength="76.9082" x="174.5" y="241.5669">implements</text></g><!--link Feature_User to logic_arc_int__baselibs__filesystem--><g id="link_Feature_User_logic_arc_int__baselibs__filesystem"><path codeLine="46" d="M3083.81,45.62 C3292.53,50.9 4182.36,74.54 4911.5,111.5 C5230,127.65 5309.99,128.64 5627.5,158.5 C5633.03,159.02 5632.7019,158.9622 5638.4019,159.5522 " fill="transparent" id="Feature_User-to-logic_arc_int__baselibs__filesystem" style="stroke:#181818;stroke-width:1;"/><polygon fill="#181818" points="5644.37,160.17,5635.8297,155.2646,5639.3966,159.6552,5635.006,163.2221,5644.37,160.17" style="stroke:#181818;stroke-width:1;"/><text fill="#000000" font-family="sans-serif" font-size="13" lengthAdjust="spacing" textLength="23.0103" x="5246.5" y="124.5669">use</text></g><!--link Feature_User to logic_arc_int__baselibs__utils_base64--><g id="link_Feature_User_logic_arc_int__baselibs__utils_base64"><path codeLine="47" d="M3083.62,48.32 C3244.31,62.02 3803.67,110.39 4264.5,158.5 C4270.34,159.11 4270.3357,159.0861 4276.3557,159.7461 " fill="transparent" id="Feature_User-to-logic_arc_int__baselibs__utils_base64" style="stroke:#181818;stroke-width:1;"/><polygon fill="#181818" points="4282.32,160.4,4273.8095,155.443,4277.3498,159.8551,4272.9377,163.3953,4282.32,160.4" style="stroke:#181818;stroke-width:1;"/><text fill="#000000" font-family="sans-serif" font-size="13" lengthAdjust="spacing" textLength="23.0103" x="3962.5" y="124.5669">use</text></g><!--link Feature_User to logic_arc_int__baselibs__intrusive_list--><g id="link_Feature_User_logic_arc_int__baselibs__intrusive_list"><path codeLine="48" d="M3083.74,46.17 C3294.09,54.14 4197.48,90.8 4935.5,158.5 C4941.21,159.02 4941.0591,158.99 4946.9291,159.57 " fill="transparent" id="Feature_User-to-logic_arc_int__baselibs__intrusive_list" style="stroke:#181818;stroke-width:1;"/><polygon fill="#181818" points="4952.9,160.16,4944.3369,155.2944,4947.9242,159.6684,4943.5503,163.2557,4952.9,160.16" style="stroke:#181818;stroke-width:1;"/><text fill="#000000" font-family="sans-serif" font-size="13" lengthAdjust="spacing" textLength="23.0103" x="4573.5" y="124.5669">use</text></g><!--link Feature_User to logic_arc_int__baselibs__result--><g id="link_Feature_User_logic_arc_int__baselibs__result"><path codeLine="49" d="M2993.29,45.73 C2794.28,51.26 1976.33,75.12 1305.5,111.5 C1006.1,127.74 930.77,127.88 632.5,158.5 C626.64,159.1 626.6214,159.0801 620.5714,159.7701 " fill="transparent" id="Feature_User-to-logic_arc_int__baselibs__result" style="stroke:#181818;stroke-width:1;"/><polygon fill="#181818" points="614.61,160.45,624.0053,163.4044,619.5778,159.8834,623.0988,155.4559,614.61,160.45" style="stroke:#181818;stroke-width:1;"/><text fill="#000000" font-family="sans-serif" font-size="13" lengthAdjust="spacing" textLength="23.0103" x="1306.5" y="124.5669">use</text></g><!--reverse link logic_arc_int__baselibs__task_result to comp_arc_sta__baselibs__concurrency--><g id="link_logic_arc_int__baselibs__task_result_comp_arc_sta__baselibs__concurrency"><path codeLine="50" d="M937.1335,198.1453 C1047.7635,211.9953 1199.88,230.52 1338.5,245.5 C1460.13,258.64 1598.21,271.75 1700.3,281.1 " fill="transparent" id="logic_arc_int__baselibs__task_result-backto-comp_arc_sta__baselibs__concurrency" style="stroke:#181818;stroke-width:1;"/><polygon fill="#181818" points="931.18,197.4,939.6134,202.487,936.1413,198.0211,940.6072,194.549,931.18,197.4" style="stroke:#181818;stroke-width:1;"/><text fill="#000000" font-family="sans-serif" font-size="13" lengthAdjust="spacing" textLength="76.9082" x="1339.5" y="241.5669">implements</text></g><!--link Feature_User to logic_arc_int__baselibs__dynamic_array--><g id="link_Feature_User_logic_arc_int__baselibs__dynamic_array"><path codeLine="51" d="M3083.69,47.11 C3269.99,58.01 3996.65,102 4592.5,158.5 C4598,159.02 4597.6293,158.9782 4603.2793,159.5382 " fill="transparent" id="Feature_User-to-logic_arc_int__baselibs__dynamic_array" style="stroke:#181818;stroke-width:1;"/><polygon fill="#181818" points="4609.25,160.13,4600.6884,155.2618,4604.2744,159.6368,4599.8994,163.2228,4609.25,160.13" style="stroke:#181818;stroke-width:1;"/><text fill="#000000" font-family="sans-serif" font-size="13" lengthAdjust="spacing" textLength="23.0103" x="4209.5" y="124.5669">use</text></g><!--reverse link logic_arc_int__baselibs__condition_variable to comp_arc_sta__baselibs__concurrency--><g id="link_logic_arc_int__baselibs__condition_variable_comp_arc_sta__baselibs__concurrency"><path codeLine="52" d="M1762.2467,203.0672 C1782.7367,224.2972 1811.35,253.94 1831.86,275.19 " fill="transparent" id="logic_arc_int__baselibs__condition_variable-backto-comp_arc_sta__baselibs__concurrency" style="stroke:#181818;stroke-width:1;"/><polygon fill="#181818" points="1758.08,198.75,1761.452,208.0036,1761.5523,202.3477,1767.2082,202.448,1758.08,198.75" style="stroke:#181818;stroke-width:1;"/><text fill="#000000" font-family="sans-serif" font-size="13" lengthAdjust="spacing" textLength="76.9082" x="1803.5" y="241.5669">implements</text></g><!--SRC=[hLRBRjmm3BphAuJSDosAeeSWoAL0JpssPq6McLqsUbMaqhX5_xsolKdipNRzW8-oINfcD2IjhGs_bCCdz7l18KeEiWhCmSaQ4nZ6uCK1Qv34a21m4w4_WulSICsSiCeC96w96mjtubeJsah-4L_Hm-TWGv89wkxqxO3cmGEH_73zNlmLj- -EEK8RBd5NNq1pJY2_4wGhgKaU7wZsWHHYTDpLkpjfmnwDqiaezAnKfGaiLgHKJC4XmOtC15AOu68NHQo7KIPuarC2RngvovVgmHEON43UI7JHWWFF99S0OaqFHpGBikYWYthgFhS9cv5vBZUayh-gFoZuYN9joBnYyo7sSgtKEZDQKcH2BDg5EA7RFLgWfXZSJSds4ZYFhIjMrtjGKHEL1fkeVXAzchm35r9pTCvonrN8oXNnYswGTEVuATUnBisTQ89VtNZjkbT9DwlPlVRXKcAjerG2ofQN9x-vd8kQTFwRaAFtQ7l-z76r6jHuSqZ1u-zYz9yPCco6RD0zCpjxdWtACMN2Hr0MYLSpxsVEHQwzapt6R7Mxo2Q0dJ7-IcmRJ-kNLROIJlbIZQq0wb4dr9NT3jev_yrnowghUGsVzv6-roTAFm-4RRVNoTfUUN5lQL-yjj7WdrmseoMnrkY3XRXqeexdtzBiqocoD7-q1xRvMpbhfGMGJlRZHiZEDVyGu3y0]--></g></svg>