<svg xmlns="http://www.w3.org/2000/svg" xmlns:xlink="http://www.w3.org/1999/xlink" contentStyleType="text/css" data-diagram-type="DESCRIPTION" height="189px" preserveAspectRatio="none" style="width:567px;height:189px;background:#FFFFFF;" version="1.1" viewBox="0 0 567 189" width="567px" zoomAndPan="magnify"><defs/><g><!--cluster process_description--><g id="cluster_process_description"><path d="M6,16 C6,6 92,6 92,6 C92,6 178,6 178,16 L178,137 C178,147 92,147 92,147 C92,147 6,147 6,137 L6,16 " fill="transparent" style="stroke:#181818;stroke-width:1;"/><path d="M6,16 C6,26 92,26 92,26 C92,26 178,26 178,16 " fill="transparent" style="stroke:#181818;stroke-width:1;"/><text fill="#000000" font-family="sans-serif" font-size="14" font-weight="bold" lengthAdjust="spacing" textLength="156.9531" x="13.5234" y="40.9951">process_description</text></g><!--cluster docs_as_code--><g id="cluster_docs_as_code"><path d="M353,30 C353,20 451.5,20 451.5,20 C451.5,20 550,20 550,30 L550,151 C550,161 451.5,161 451.5,161 C451.5,161 353,161 353,151 L353,30 " fill="transparent" style="stroke:#181818;stroke-width:1;"/><path d="M353,30 C353,40 451.5,40 451.5,40 C451.5,40 550,40 550,30 " fill="transparent" style="stroke:#181818;stroke-width:1;"/><text fill="#000000" font-family="sans-serif" font-size="14" font-weight="bold" lengthAdjust="spacing" textLength="105.4854" x="398.7573" y="54.9951">docs_as_code</text></g><!--entity examples--><g id="elem_examples"><rect fill="#F1F1F1" height="39.2969" rx="2.5" ry="2.5" style="stroke:#181818;stroke-width:0.5;" width="97.7988" x="43" y="64.5"/><polygon fill="#F1F1F1" points="123.7988,69.5,123.7988,83.5,135.7988,83.5,135.7988,75.5,129.7988,69.5,123.7988,69.5" style="stroke:#181818;stroke-width:0.5;"/><line style="stroke:#181818;stroke-width:0.5;" x1="129.7988" x2="129.7988" y1="69.5" y2="75.5"/><line style="stroke:#181818;stroke-width:0.5;" x1="135.7988" x2="129.7988" y1="75.5" y2="75.5"/><text fill="#000000" font-family="sans-serif" font-size="14" lengthAdjust="spacing" textLength="67.7988" x="53" y="90.4951">examples</text></g><!--entity yaml--><g id="elem_yaml"><rect fill="#F1F1F1" height="39.2969" rx="2.5" ry="2.5" style="stroke:#181818;stroke-width:0.5;" width="148.7539" x="377" y="78.5"/><polygon fill="#F1F1F1" points="508.7539,83.5,508.7539,97.5,520.7539,97.5,520.7539,89.5,514.7539,83.5,508.7539,83.5" style="stroke:#181818;stroke-width:0.5;"/><line style="stroke:#181818;stroke-width:0.5;" x1="514.7539" x2="514.7539" y1="83.5" y2="89.5"/><line style="stroke:#181818;stroke-width:0.5;" x1="520.7539" x2="514.7539" y1="89.5" y2="89.5"/><text fill="#000000" font-family="sans-serif" font-size="14" lengthAdjust="spacing" textLength="118.7539" x="387" y="104.4951">metamodel.yaml</text></g><!--link process_description to docs_as_code--><g id="link_process_description_docs_as_code"><path d="M179.0664,142.3723 C179.664,142.3957 180.2635,142.4192 180.8648,142.4427 C182.0675,142.4899 183.2777,142.5373 184.4951,142.585 C186.9298,142.6804 189.3932,142.7769 191.8825,142.8744 C196.8612,143.0695 201.944,143.2686 207.11,143.471 C227.7741,144.2805 249.7703,145.1422 271.7663,146.0038 C293.7622,146.8653 315.7579,147.7268 336.4211,148.536 C341.5869,148.7383 346.6694,148.9374 351.6478,149.1324 C351.9589,149.1445 346.2743,148.9219 346.5846,148.9341 " fill="transparent" id="process_description-to-docs_as_code" style="stroke:#181818;stroke-width:1;"/><polygon fill="#181818" points="352.58,149.1689,343.7434,144.8197,347.5839,148.9732,343.4304,152.8136,352.58,149.1689" style="stroke:#181818;stroke-width:1;"/><text fill="#000000" font-family="sans-serif" font-size="13" lengthAdjust="spacing" textLength="125.7852" x="203" y="140.0669">defines metamodel</text></g><!--link docs_as_code to process_description--><g id="link_docs_as_code_process_description"><path d="M415.893,161.1217 C414.8222,161.3467 413.7309,161.574 412.6195,161.8031 C408.1741,162.7197 403.4087,163.6663 398.3626,164.6212 C388.2704,166.531 377.0553,168.4741 365.0313,170.2763 C316.935,177.485 255.895,182.44 202,174 C177.26,170.125 150.4675,161.585 129.6363,153.9113 C124.4284,151.9928 119.5932,150.1285 115.2558,148.4048 C114.1714,147.9739 118.6816,149.7986 117.6614,149.3865 " fill="transparent" id="docs_as_code-to-process_description" style="stroke:#181818;stroke-width:1;"/><polygon fill="#181818" points="112.098,147.1397,118.9452,154.2189,116.7342,149.0121,121.941,146.801,112.098,147.1397" style="stroke:#181818;stroke-width:1;"/><text fill="#000000" font-family="sans-serif" font-size="13" lengthAdjust="spacing" textLength="123.1699" x="204" y="170.0669">checks metamodel</text></g><!--SRC=[ROr13i8m30JlUSL-e3oW1xuI6SUX4KaJnJw047-dEPMYdYpjxeopH8DLz7HV325rOKjrTO6CRgI2rYkBgW-Yt5CR9TuE07LBaTWWJoejYxhFJeNAwaazro1_yo96POlpvKKbWnJZRh0xUpLDrwDiHf2OLj5Tv0w3GPoPPl0Y_FZXlW00]--></g></svg>