<svg xmlns="http://www.w3.org/2000/svg" xmlns:xlink="http://www.w3.org/1999/xlink" contentStyleType="text/css" data-diagram-type="CLASS" height="322px" preserveAspectRatio="none" style="width:6197px;height:322px;background:#FFFFFF;" version="1.1" viewBox="0 0 6197 322" width="6197px" zoomAndPan="magnify"><defs/><g><!--entity Feature_User--><g id="elem_Feature_User"><ellipse cx="3102.6685" cy="14" fill="#F1F1F1" rx="8" ry="8" style="stroke:#181818;stroke-width:0.5;"/><path d="M3102.6685,22 L3102.6685,49 M3089.6685,30 L3115.6685,30 M3102.6685,49 L3089.6685,64 M3102.6685,49 L3115.6685,64 " fill="transparent" style="stroke:#181818;stroke-width:0.5;"/><text fill="#000000" font-family="sans-serif" font-size="14" lengthAdjust="spacing" textLength="90.3369" x="3057.5" y="78.4951">Feature User</text></g><!--class logic_arc_int__baselibs__json--><g id="elem_logic_arc_int__baselibs__json"><rect fill="#F1F1F1" height="40" id="logic_arc_int__baselibs__json" rx="2.5" ry="2.5" style="stroke:#181818;stroke-width:0.5;" width="233.168" x="4278" y="158.5"/><ellipse cx="4293" cy="174.5" fill="#ADD1B2" rx="11" ry="11" style="stroke:#181818;stroke-width:1;"/><path d="M4295.9688,180.1406 Q4295.3906,180.4375 4294.75,180.5781 Q4294.1094,180.7344 4293.4063,180.7344 Q4290.9063,180.7344 4289.5781,179.0938 Q4288.2656,177.4375 4288.2656,174.3125 Q4288.2656,171.1875 4289.5781,169.5313 Q4290.9063,167.875 4293.4063,167.875 Q4294.1094,167.875 4294.75,168.0313 Q4295.4063,168.1875 4295.9688,168.4844 L4295.9688,171.2031 Q4295.3438,170.625 4294.75,170.3594 Q4294.1563,170.0781 4293.5313,170.0781 Q4292.1875,170.0781 4291.5,171.1563 Q4290.8125,172.2188 4290.8125,174.3125 Q4290.8125,176.4063 4291.5,177.4844 Q4292.1875,178.5469 4293.5313,178.5469 Q4294.1563,178.5469 4294.75,178.2813 Q4295.3438,178 4295.9688,177.4219 L4295.9688,180.1406 Z " fill="#000000"/><text fill="#000000" font-family="sans-serif" font-size="14" lengthAdjust="spacing" textLength="201.168" x="4307" y="179.3467">logic_arc_int__baselibs__json</text><line style="stroke:#181818;stroke-width:0.5;" x1="4279" x2="4510.168" y1="190.5" y2="190.5"/></g><!--class comp_arc_sta__baselibs__concurrency--><g id="elem_comp_arc_sta__baselibs__concurrency"><rect fill="#F1F1F1" height="40" id="comp_arc_sta__baselibs__concurrency" rx="2.5" ry="2.5" style="stroke:#181818;stroke-width:0.5;" width="300.2012" x="1870.5" y="275.5"/><ellipse cx="1885.5" cy="291.5" fill="#ADD1B2" rx="11" ry="11" style="stroke:#181818;stroke-width:1;"/><path d="M1888.4688,297.1406 Q1887.8906,297.4375 1887.25,297.5781 Q1886.6094,297.7344 1885.9063,297.7344 Q1883.4063,297.7344 1882.0781,296.0938 Q1880.7656,294.4375 1880.7656,291.3125 Q1880.7656,288.1875 1882.0781,286.5313 Q1883.4063,284.875 1885.9063,284.875 Q1886.6094,284.875 1887.25,285.0313 Q1887.9063,285.1875 1888.4688,285.4844 L1888.4688,288.2031 Q1887.8438,287.625 1887.25,287.3594 Q1886.6563,287.0781 1886.0313,287.0781 Q1884.6875,287.0781 1884,288.1563 Q1883.3125,289.2188 1883.3125,291.3125 Q1883.3125,293.4063 1884,294.4844 Q1884.6875,295.5469 1886.0313,295.5469 Q1886.6563,295.5469 1887.25,295.2813 Q1887.8438,295 1888.4688,294.4219 L1888.4688,297.1406 Z " fill="#000000"/><text fill="#000000" font-family="sans-serif" font-size="14" lengthAdjust="spacing" textLength="268.2012" x="1899.5" y="296.3467">comp_arc_sta__baselibs__concurrency</text><line style="stroke:#181818;stroke-width:0.5;" x1="1871.5" x2="2169.7012" y1="307.5" y2="307.5"/></g><!--class logic_arc_int__baselibs__promise--><g id="elem_logic_arc_int__baselibs__promise"><rect fill="#F1F1F1" height="40" id="logic_arc_int__baselibs__promise" rx="2.5" ry="2.5" style="stroke:#181818;stroke-width:0.5;" width="261.1885" x="2373" y="158.5"/><ellipse cx="2388" cy="174.5" fill="#ADD1B2" rx="11" ry="11" style="stroke:#181818;stroke-width:1;"/><path d="M2390.9688,180.1406 Q2390.3906,180.4375 2389.75,180.5781 Q2389.1094,180.7344 2388.4063,180.7344 Q2385.9063,180.7344 2384.5781,179.0938 Q2383.2656,177.4375 2383.2656,174.3125 Q2383.2656,171.1875 2384.5781,169.5313 Q2385.9063,167.875 2388.4063,167.875 Q2389.1094,167.875 2389.75,168.0313 Q2390.4063,168.1875 2390.9688,168.4844 L2390.9688,171.2031 Q2390.3438,170.625 2389.75,170.3594 Q2389.1563,170.0781 2388.5313,170.0781 Q2387.1875,170.0781 2386.5,171.1563 Q2385.8125,172.2188 2385.8125,174.3125 Q2385.8125,176.4063 2386.5,177.4844 Q2387.1875,178.5469 2388.5313,178.5469 Q2389.1563,178.5469 2389.75,178.2813 Q2390.3438,178 2390.9688,177.4219 L2390.9688,180.1406 Z " fill="#000000"/><text fill="#000000" font-family="sans-serif" font-size="14" lengthAdjust="spacing" textLength="229.1885" x="2402" y="179.3467">logic_arc_int__baselibs__promise</text><line style="stroke:#181818;stroke-width:0.5;" x1="2374" x2="2633.1885" y1="190.5" y2="190.5"/></g><!--class comp_arc_sta__baselibs__bit_manipulation--><g id="elem_comp_arc_sta__baselibs__bit_manipulation"><rect fill="#F1F1F1" height="40" id="comp_arc_sta__baselibs__bit_manipulation" rx="2.5" ry="2.5" style="stroke:#181818;stroke-width:0.5;" width="330.8057" x="5683" y="275.5"/><ellipse cx="5698" cy="291.5" fill="#ADD1B2" rx="11" ry="11" style="stroke:#181818;stroke-width:1;"/><path d="M5700.9688,297.1406 Q5700.3906,297.4375 5699.75,297.5781 Q5699.1094,297.7344 5698.4063,297.7344 Q5695.9063,297.7344 5694.5781,296.0938 Q5693.2656,294.4375 5693.2656,291.3125 Q5693.2656,288.1875 5694.5781,286.5313 Q5695.9063,284.875 5698.4063,284.875 Q5699.1094,284.875 5699.75,285.0313 Q5700.4063,285.1875 5700.9688,285.4844 L5700.9688,288.2031 Q5700.3438,287.625 5699.75,287.3594 Q5699.1563,287.0781 5698.5313,287.0781 Q5697.1875,287.0781 5696.5,288.1563 Q5695.8125,289.2188 5695.8125,291.3125 Q5695.8125,293.4063 5696.5,294.4844 Q5697.1875,295.5469 5698.5313,295.5469 Q5699.1563,295.5469 5699.75,295.2813 Q5700.3438,295 5700.9688,294.4219 L5700.9688,297.1406 Z " fill="#000000"/><text fill="#000000" font-family="sans-serif" font-size="14" lengthAdjust="spacing" textLength="298.8057" x="5712" y="296.3467">comp_arc_sta__baselibs__bit_manipulation</text><line style="stroke:#181818;stroke-width:0.5;" x1="5684" x2="6012.8057" y1="307.5" y2="307.5"/></g><!--class logic_arc_int__baselibs__bit_mask_operator--><g id="elem_logic_arc_int__baselibs__bit_mask_operator"><rect fill="#F1F1F1" height="40" id="logic_arc_int__baselibs__bit_mask_operator" rx="2.5" ry="2.5" style="stroke:#181818;stroke-width:0.5;" width="334.6406" x="5498" y="158.5"/><ellipse cx="5513" cy="174.5" fill="#ADD1B2" rx="11" ry="11" style="stroke:#181818;stroke-width:1;"/><path d="M5515.9688,180.1406 Q5515.3906,180.4375 5514.75,180.5781 Q5514.1094,180.7344 5513.4063,180.7344 Q5510.9063,180.7344 5509.5781,179.0938 Q5508.2656,177.4375 5508.2656,174.3125 Q5508.2656,171.1875 5509.5781,169.5313 Q5510.9063,167.875 5513.4063,167.875 Q5514.1094,167.875 5514.75,168.0313 Q5515.4063,168.1875 5515.9688,168.4844 L5515.9688,171.2031 Q5515.3438,170.625 5514.75,170.3594 Q5514.1563,170.0781 5513.5313,170.0781 Q5512.1875,170.0781 5511.5,171.1563 Q5510.8125,172.2188 5510.8125,174.3125 Q5510.8125,176.4063 5511.5,177.4844 Q5512.1875,178.5469 5513.5313,178.5469 Q5514.1563,178.5469 5514.75,178.2813 Q5515.3438,178 5515.9688,177.4219 L5515.9688,180.1406 Z " fill="#000000"/><text fill="#000000" font-family="sans-serif" font-size="14" lengthAdjust="spacing" textLength="302.6406" x="5527" y="179.3467">logic_arc_int__baselibs__bit_mask_operator</text><line style="stroke:#181818;stroke-width:0.5;" x1="5499" x2="5831.6406" y1="190.5" y2="190.5"/></g><!--class comp_arc_sta__baselibs__containers--><g id="elem_comp_arc_sta__baselibs__containers"><rect fill="#F1F1F1" height="40" id="comp_arc_sta__baselibs__containers" rx="2.5" ry="2.5" style="stroke:#181818;stroke-width:0.5;" width="287.1445" x="4724" y="275.5"/><ellipse cx="4739" cy="291.5" fill="#ADD1B2" rx="11" ry="11" style="stroke:#181818;stroke-width:1;"/><path d="M4741.9688,297.1406 Q4741.3906,297.4375 4740.75,297.5781 Q4740.1094,297.7344 4739.4063,297.7344 Q4736.9063,297.7344 4735.5781,296.0938 Q4734.2656,294.4375 4734.2656,291.3125 Q4734.2656,288.1875 4735.5781,286.5313 Q4736.9063,284.875 4739.4063,284.875 Q4740.1094,284.875 4740.75,285.0313 Q4741.4063,285.1875 4741.9688,285.4844 L4741.9688,288.2031 Q4741.3438,287.625 4740.75,287.3594 Q4740.1563,287.0781 4739.5313,287.0781 Q4738.1875,287.0781 4737.5,288.1563 Q4736.8125,289.2188 4736.8125,291.3125 Q4736.8125,293.4063 4737.5,294.4844 Q4738.1875,295.5469 4739.5313,295.5469 Q4740.1563,295.5469 4740.75,295.2813 Q4741.3438,295 4741.9688,294.4219 L4741.9688,297.1406 Z " fill="#000000"/><text fill="#000000" font-family="sans-serif" font-size="14" lengthAdjust="spacing" textLength="255.1445" x="4753" y="296.3467">comp_arc_sta__baselibs__containers</text><line style="stroke:#181818;stroke-width:0.5;" x1="4725" x2="5010.1445" y1="307.5" y2="307.5"/></g><!--class logic_arc_int__baselibs__dynamic_array--><g id="elem_logic_arc_int__baselibs__dynamic_array"><rect fill="#F1F1F1" height="40" id="logic_arc_int__baselibs__dynamic_array" rx="2.5" ry="2.5" style="stroke:#181818;stroke-width:0.5;" width="308.3496" x="4546.5" y="158.5"/><ellipse cx="4561.5" cy="174.5" fill="#ADD1B2" rx="11" ry="11" style="stroke:#181818;stroke-width:1;"/><path d="M4564.4688,180.1406 Q4563.8906,180.4375 4563.25,180.5781 Q4562.6094,180.7344 4561.9063,180.7344 Q4559.4063,180.7344 4558.0781,179.0938 Q4556.7656,177.4375 4556.7656,174.3125 Q4556.7656,171.1875 4558.0781,169.5313 Q4559.4063,167.875 4561.9063,167.875 Q4562.6094,167.875 4563.25,168.0313 Q4563.9063,168.1875 4564.4688,168.4844 L4564.4688,171.2031 Q4563.8438,170.625 4563.25,170.3594 Q4562.6563,170.0781 4562.0313,170.0781 Q4560.6875,170.0781 4560,171.1563 Q4559.3125,172.2188 4559.3125,174.3125 Q4559.3125,176.4063 4560,177.4844 Q4560.6875,178.5469 4562.0313,178.5469 Q4562.6563,178.5469 4563.25,178.2813 Q4563.8438,178 4564.4688,177.4219 L4564.4688,180.1406 Z " fill="#000000"/><text fill="#000000" font-family="sans-serif" font-size="14" lengthAdjust="spacing" textLength="276.3496" x="4575.5" y="179.3467">logic_arc_int__baselibs__dynamic_array</text><line style="stroke:#181818;stroke-width:0.5;" x1="4547.5" x2="4853.8496" y1="190.5" y2="190.5"/></g><!--class logic_arc_int__baselibs__task_result--><g id="elem_logic_arc_int__baselibs__task_result"><rect fill="#F1F1F1" height="40" id="logic_arc_int__baselibs__task_result" rx="2.5" ry="2.5" style="stroke:#181818;stroke-width:0.5;" width="280.9307" x="1486" y="158.5"/><ellipse cx="1501" cy="174.5" fill="#ADD1B2" rx="11" ry="11" style="stroke:#181818;stroke-width:1;"/><path d="M1503.9688,180.1406 Q1503.3906,180.4375 1502.75,180.5781 Q1502.1094,180.7344 1501.4063,180.7344 Q1498.9063,180.7344 1497.5781,179.0938 Q1496.2656,177.4375 1496.2656,174.3125 Q1496.2656,171.1875 1497.5781,169.5313 Q1498.9063,167.875 1501.4063,167.875 Q1502.1094,167.875 1502.75,168.0313 Q1503.4063,168.1875 1503.9688,168.4844 L1503.9688,171.2031 Q1503.3438,170.625 1502.75,170.3594 Q1502.1563,170.0781 1501.5313,170.0781 Q1500.1875,170.0781 1499.5,171.1563 Q1498.8125,172.2188 1498.8125,174.3125 Q1498.8125,176.4063 1499.5,177.4844 Q1500.1875,178.5469 1501.5313,178.5469 Q1502.1563,178.5469 1502.75,178.2813 Q1503.3438,178 1503.9688,177.4219 L1503.9688,180.1406 Z " fill="#000000"/><text fill="#000000" font-family="sans-serif" font-size="14" lengthAdjust="spacing" textLength="248.9307" x="1515" y="179.3467">logic_arc_int__baselibs__task_result</text><line style="stroke:#181818;stroke-width:0.5;" x1="1487" x2="1765.9307" y1="190.5" y2="190.5"/></g><!--class comp_arc_sta__baselibs__result--><g id="elem_comp_arc_sta__baselibs__result"><rect fill="#F1F1F1" height="40" id="comp_arc_sta__baselibs__result" rx="2.5" ry="2.5" style="stroke:#181818;stroke-width:0.5;" width="253.4297" x="5214" y="275.5"/><ellipse cx="5229" cy="291.5" fill="#ADD1B2" rx="11" ry="11" style="stroke:#181818;stroke-width:1;"/><path d="M5231.9688,297.1406 Q5231.3906,297.4375 5230.75,297.5781 Q5230.1094,297.7344 5229.4063,297.7344 Q5226.9063,297.7344 5225.5781,296.0938 Q5224.2656,294.4375 5224.2656,291.3125 Q5224.2656,288.1875 5225.5781,286.5313 Q5226.9063,284.875 5229.4063,284.875 Q5230.1094,284.875 5230.75,285.0313 Q5231.4063,285.1875 5231.9688,285.4844 L5231.9688,288.2031 Q5231.3438,287.625 5230.75,287.3594 Q5230.1563,287.0781 5229.5313,287.0781 Q5228.1875,287.0781 5227.5,288.1563 Q5226.8125,289.2188 5226.8125,291.3125 Q5226.8125,293.4063 5227.5,294.4844 Q5228.1875,295.5469 5229.5313,295.5469 Q5230.1563,295.5469 5230.75,295.2813 Q5231.3438,295 5231.9688,294.4219 L5231.9688,297.1406 Z " fill="#000000"/><text fill="#000000" font-family="sans-serif" font-size="14" lengthAdjust="spacing" textLength="221.4297" x="5243" y="296.3467">comp_arc_sta__baselibs__result</text><line style="stroke:#181818;stroke-width:0.5;" x1="5215" x2="5466.4297" y1="307.5" y2="307.5"/></g><!--class logic_arc_int__baselibs__result--><g id="elem_logic_arc_int__baselibs__result"><rect fill="#F1F1F1" height="40" id="logic_arc_int__baselibs__result" rx="2.5" ry="2.5" style="stroke:#181818;stroke-width:0.5;" width="244.4609" x="5218.5" y="158.5"/><ellipse cx="5233.5" cy="174.5" fill="#ADD1B2" rx="11" ry="11" style="stroke:#181818;stroke-width:1;"/><path d="M5236.4688,180.1406 Q5235.8906,180.4375 5235.25,180.5781 Q5234.6094,180.7344 5233.9063,180.7344 Q5231.4063,180.7344 5230.0781,179.0938 Q5228.7656,177.4375 5228.7656,174.3125 Q5228.7656,171.1875 5230.0781,169.5313 Q5231.4063,167.875 5233.9063,167.875 Q5234.6094,167.875 5235.25,168.0313 Q5235.9063,168.1875 5236.4688,168.4844 L5236.4688,171.2031 Q5235.8438,170.625 5235.25,170.3594 Q5234.6563,170.0781 5234.0313,170.0781 Q5232.6875,170.0781 5232,171.1563 Q5231.3125,172.2188 5231.3125,174.3125 Q5231.3125,176.4063 5232,177.4844 Q5232.6875,178.5469 5234.0313,178.5469 Q5234.6563,178.5469 5235.25,178.2813 Q5235.8438,178 5236.4688,177.4219 L5236.4688,180.1406 Z " fill="#000000"/><text fill="#000000" font-family="sans-serif" font-size="14" lengthAdjust="spacing" textLength="212.4609" x="5247.5" y="179.3467">logic_arc_int__baselibs__result</text><line style="stroke:#181818;stroke-width:0.5;" x1="5219.5" x2="5461.9609" y1="190.5" y2="190.5"/></g><!--class logic_arc_int__baselibs__bit_manipulation--><g id="elem_logic_arc_int__baselibs__bit_manipulation"><rect fill="#F1F1F1" height="40" id="logic_arc_int__baselibs__bit_manipulation" rx="2.5" ry="2.5" style="stroke:#181818;stroke-width:0.5;" width="321.8369" x="5868.5" y="158.5"/><ellipse cx="5883.5" cy="174.5" fill="#ADD1B2" rx="11" ry="11" style="stroke:#181818;stroke-width:1;"/><path d="M5886.4688,180.1406 Q5885.8906,180.4375 5885.25,180.5781 Q5884.6094,180.7344 5883.9063,180.7344 Q5881.4063,180.7344 5880.0781,179.0938 Q5878.7656,177.4375 5878.7656,174.3125 Q5878.7656,171.1875 5880.0781,169.5313 Q5881.4063,167.875 5883.9063,167.875 Q5884.6094,167.875 5885.25,168.0313 Q5885.9063,168.1875 5886.4688,168.4844 L5886.4688,171.2031 Q5885.8438,170.625 5885.25,170.3594 Q5884.6563,170.0781 5884.0313,170.0781 Q5882.6875,170.0781 5882,171.1563 Q5881.3125,172.2188 5881.3125,174.3125 Q5881.3125,176.4063 5882,177.4844 Q5882.6875,178.5469 5884.0313,178.5469 Q5884.6563,178.5469 5885.25,178.2813 Q5885.8438,178 5886.4688,177.4219 L5886.4688,180.1406 Z " fill="#000000"/><text fill="#000000" font-family="sans-serif" font-size="14" lengthAdjust="spacing" textLength="289.8369" x="5897.5" y="179.3467">logic_arc_int__baselibs__bit_manipulation</text><line style="stroke:#181818;stroke-width:0.5;" x1="5869.5" x2="6189.3369" y1="190.5" y2="190.5"/></g><!--class logic_arc_int__baselibs__shared_future--><g id="elem_logic_arc_int__baselibs__shared_future"><rect fill="#F1F1F1" height="40" id="logic_arc_int__baselibs__shared_future" rx="2.5" ry="2.5" style="stroke:#181818;stroke-width:0.5;" width="302.0811" x="2951.5" y="158.5"/><ellipse cx="2966.5" cy="174.5" fill="#ADD1B2" rx="11" ry="11" style="stroke:#181818;stroke-width:1;"/><path d="M2969.4688,180.1406 Q2968.8906,180.4375 2968.25,180.5781 Q2967.6094,180.7344 2966.9063,180.7344 Q2964.4063,180.7344 2963.0781,179.0938 Q2961.7656,177.4375 2961.7656,174.3125 Q2961.7656,171.1875 2963.0781,169.5313 Q2964.4063,167.875 2966.9063,167.875 Q2967.6094,167.875 2968.25,168.0313 Q2968.9063,168.1875 2969.4688,168.4844 L2969.4688,171.2031 Q2968.8438,170.625 2968.25,170.3594 Q2967.6563,170.0781 2967.0313,170.0781 Q2965.6875,170.0781 2965,171.1563 Q2964.3125,172.2188 2964.3125,174.3125 Q2964.3125,176.4063 2965,177.4844 Q2965.6875,178.5469 2967.0313,178.5469 Q2967.6563,178.5469 2968.25,178.2813 Q2968.8438,178 2969.4688,177.4219 L2969.4688,180.1406 Z " fill="#000000"/><text fill="#000000" font-family="sans-serif" font-size="14" lengthAdjust="spacing" textLength="270.0811" x="2980.5" y="179.3467">logic_arc_int__baselibs__shared_future</text><line style="stroke:#181818;stroke-width:0.5;" x1="2952.5" x2="3252.5811" y1="190.5" y2="190.5"/></g><!--class logic_arc_int__baselibs__utils_base64--><g id="elem_logic_arc_int__baselibs__utils_base64"><rect fill="#F1F1F1" height="40" id="logic_arc_int__baselibs__utils_base64" rx="2.5" ry="2.5" style="stroke:#181818;stroke-width:0.5;" width="292.1689" x="3950.5" y="158.5"/><ellipse cx="3965.5" cy="174.5" fill="#ADD1B2" rx="11" ry="11" style="stroke:#181818;stroke-width:1;"/><path d="M3968.4688,180.1406 Q3967.8906,180.4375 3967.25,180.5781 Q3966.6094,180.7344 3965.9063,180.7344 Q3963.4063,180.7344 3962.0781,179.0938 Q3960.7656,177.4375 3960.7656,174.3125 Q3960.7656,171.1875 3962.0781,169.5313 Q3963.4063,167.875 3965.9063,167.875 Q3966.6094,167.875 3967.25,168.0313 Q3967.9063,168.1875 3968.4688,168.4844 L3968.4688,171.2031 Q3967.8438,170.625 3967.25,170.3594 Q3966.6563,170.0781 3966.0313,170.0781 Q3964.6875,170.0781 3964,171.1563 Q3963.3125,172.2188 3963.3125,174.3125 Q3963.3125,176.4063 3964,177.4844 Q3964.6875,178.5469 3966.0313,178.5469 Q3966.6563,178.5469 3967.25,178.2813 Q3967.8438,178 3968.4688,177.4219 L3968.4688,180.1406 Z " fill="#000000"/><text fill="#000000" font-family="sans-serif" font-size="14" lengthAdjust="spacing" textLength="260.1689" x="3979.5" y="179.3467">logic_arc_int__baselibs__utils_base64</text><line style="stroke:#181818;stroke-width:0.5;" x1="3951.5" x2="4241.6689" y1="190.5" y2="190.5"/></g><!--class comp_arc_sta__baselibs__utils--><g id="elem_comp_arc_sta__baselibs__utils"><rect fill="#F1F1F1" height="40" id="comp_arc_sta__baselibs__utils" rx="2.5" ry="2.5" style="stroke:#181818;stroke-width:0.5;" width="242.9502" x="3805" y="275.5"/><ellipse cx="3820" cy="291.5" fill="#ADD1B2" rx="11" ry="11" style="stroke:#181818;stroke-width:1;"/><path d="M3822.9688,297.1406 Q3822.3906,297.4375 3821.75,297.5781 Q3821.1094,297.7344 3820.4063,297.7344 Q3817.9063,297.7344 3816.5781,296.0938 Q3815.2656,294.4375 3815.2656,291.3125 Q3815.2656,288.1875 3816.5781,286.5313 Q3817.9063,284.875 3820.4063,284.875 Q3821.1094,284.875 3821.75,285.0313 Q3822.4063,285.1875 3822.9688,285.4844 L3822.9688,288.2031 Q3822.3438,287.625 3821.75,287.3594 Q3821.1563,287.0781 3820.5313,287.0781 Q3819.1875,287.0781 3818.5,288.1563 Q3817.8125,289.2188 3817.8125,291.3125 Q3817.8125,293.4063 3818.5,294.4844 Q3819.1875,295.5469 3820.5313,295.5469 Q3821.1563,295.5469 3821.75,295.2813 Q3822.3438,295 3822.9688,294.4219 L3822.9688,297.1406 Z " fill="#000000"/><text fill="#000000" font-family="sans-serif" font-size="14" lengthAdjust="spacing" textLength="210.9502" x="3834" y="296.3467">comp_arc_sta__baselibs__utils</text><line style="stroke:#181818;stroke-width:0.5;" x1="3806" x2="4046.9502" y1="307.5" y2="307.5"/></g><!--class logic_arc_int__baselibs__utils_scoped_op--><g id="elem_logic_arc_int__baselibs__utils_scoped_op"><rect fill="#F1F1F1" height="40" id="logic_arc_int__baselibs__utils_scoped_op" rx="2.5" ry="2.5" style="stroke:#181818;stroke-width:0.5;" width="315.377" x="3600" y="158.5"/><ellipse cx="3615" cy="174.5" fill="#ADD1B2" rx="11" ry="11" style="stroke:#181818;stroke-width:1;"/><path d="M3617.9688,180.1406 Q3617.3906,180.4375 3616.75,180.5781 Q3616.1094,180.7344 3615.4063,180.7344 Q3612.9063,180.7344 3611.5781,179.0938 Q3610.2656,177.4375 3610.2656,174.3125 Q3610.2656,171.1875 3611.5781,169.5313 Q3612.9063,167.875 3615.4063,167.875 Q3616.1094,167.875 3616.75,168.0313 Q3617.4063,168.1875 3617.9688,168.4844 L3617.9688,171.2031 Q3617.3438,170.625 3616.75,170.3594 Q3616.1563,170.0781 3615.5313,170.0781 Q3614.1875,170.0781 3613.5,171.1563 Q3612.8125,172.2188 3612.8125,174.3125 Q3612.8125,176.4063 3613.5,177.4844 Q3614.1875,178.5469 3615.5313,178.5469 Q3616.1563,178.5469 3616.75,178.2813 Q3617.3438,178 3617.9688,177.4219 L3617.9688,180.1406 Z " fill="#000000"/><text fill="#000000" font-family="sans-serif" font-size="14" lengthAdjust="spacing" textLength="283.377" x="3629" y="179.3467">logic_arc_int__baselibs__utils_scoped_op</text><line style="stroke:#181818;stroke-width:0.5;" x1="3601" x2="3914.377" y1="190.5" y2="190.5"/></g><!--class logic_arc_int__baselibs__future--><g id="elem_logic_arc_int__baselibs__future"><rect fill="#F1F1F1" height="40" id="logic_arc_int__baselibs__future" rx="2.5" ry="2.5" style="stroke:#181818;stroke-width:0.5;" width="247.0791" x="2669" y="158.5"/><ellipse cx="2684" cy="174.5" fill="#ADD1B2" rx="11" ry="11" style="stroke:#181818;stroke-width:1;"/><path d="M2686.9688,180.1406 Q2686.3906,180.4375 2685.75,180.5781 Q2685.1094,180.7344 2684.4063,180.7344 Q2681.9063,180.7344 2680.5781,179.0938 Q2679.2656,177.4375 2679.2656,174.3125 Q2679.2656,171.1875 2680.5781,169.5313 Q2681.9063,167.875 2684.4063,167.875 Q2685.1094,167.875 2685.75,168.0313 Q2686.4063,168.1875 2686.9688,168.4844 L2686.9688,171.2031 Q2686.3438,170.625 2685.75,170.3594 Q2685.1563,170.0781 2684.5313,170.0781 Q2683.1875,170.0781 2682.5,171.1563 Q2681.8125,172.2188 2681.8125,174.3125 Q2681.8125,176.4063 2682.5,177.4844 Q2683.1875,178.5469 2684.5313,178.5469 Q2685.1563,178.5469 2685.75,178.2813 Q2686.3438,178 2686.9688,177.4219 L2686.9688,180.1406 Z " fill="#000000"/><text fill="#000000" font-family="sans-serif" font-size="14" lengthAdjust="spacing" textLength="215.0791" x="2698" y="179.3467">logic_arc_int__baselibs__future</text><line style="stroke:#181818;stroke-width:0.5;" x1="2670" x2="2915.0791" y1="190.5" y2="190.5"/></g><!--class logic_arc_int__baselibs__filesystem--><g id="elem_logic_arc_int__baselibs__filesystem"><rect fill="#F1F1F1" height="40" id="logic_arc_int__baselibs__filesystem" rx="2.5" ry="2.5" style="stroke:#181818;stroke-width:0.5;" width="276.4805" x="3288.5" y="158.5"/><ellipse cx="3303.5" cy="174.5" fill="#ADD1B2" rx="11" ry="11" style="stroke:#181818;stroke-width:1;"/><path d="M3306.4688,180.1406 Q3305.8906,180.4375 3305.25,180.5781 Q3304.6094,180.7344 3303.9063,180.7344 Q3301.4063,180.7344 3300.0781,179.0938 Q3298.7656,177.4375 3298.7656,174.3125 Q3298.7656,171.1875 3300.0781,169.5313 Q3301.4063,167.875 3303.9063,167.875 Q3304.6094,167.875 3305.25,168.0313 Q3305.9063,168.1875 3306.4688,168.4844 L3306.4688,171.2031 Q3305.8438,170.625 3305.25,170.3594 Q3304.6563,170.0781 3304.0313,170.0781 Q3302.6875,170.0781 3302,171.1563 Q3301.3125,172.2188 3301.3125,174.3125 Q3301.3125,176.4063 3302,177.4844 Q3302.6875,178.5469 3304.0313,178.5469 Q3304.6563,178.5469 3305.25,178.2813 Q3305.8438,178 3306.4688,177.4219 L3306.4688,180.1406 Z " fill="#000000"/><text fill="#000000" font-family="sans-serif" font-size="14" lengthAdjust="spacing" textLength="244.4805" x="3317.5" y="179.3467">logic_arc_int__baselibs__filesystem</text><line style="stroke:#181818;stroke-width:0.5;" x1="3289.5" x2="3563.9805" y1="190.5" y2="190.5"/></g><!--class comp_arc_sta__baselibs__json--><g id="elem_comp_arc_sta__baselibs__json"><rect fill="#F1F1F1" height="40" id="comp_arc_sta__baselibs__json" rx="2.5" ry="2.5" style="stroke:#181818;stroke-width:0.5;" width="242.1367" x="4273.5" y="275.5"/><ellipse cx="4288.5" cy="291.5" fill="#ADD1B2" rx="11" ry="11" style="stroke:#181818;stroke-width:1;"/><path d="M4291.4688,297.1406 Q4290.8906,297.4375 4290.25,297.5781 Q4289.6094,297.7344 4288.9063,297.7344 Q4286.4063,297.7344 4285.0781,296.0938 Q4283.7656,294.4375 4283.7656,291.3125 Q4283.7656,288.1875 4285.0781,286.5313 Q4286.4063,284.875 4288.9063,284.875 Q4289.6094,284.875 4290.25,285.0313 Q4290.9063,285.1875 4291.4688,285.4844 L4291.4688,288.2031 Q4290.8438,287.625 4290.25,287.3594 Q4289.6563,287.0781 4289.0313,287.0781 Q4287.6875,287.0781 4287,288.1563 Q4286.3125,289.2188 4286.3125,291.3125 Q4286.3125,293.4063 4287,294.4844 Q4287.6875,295.5469 4289.0313,295.5469 Q4289.6563,295.5469 4290.25,295.2813 Q4290.8438,295 4291.4688,294.4219 L4291.4688,297.1406 Z " fill="#000000"/><text fill="#000000" font-family="sans-serif" font-size="14" lengthAdjust="spacing" textLength="210.1367" x="4302.5" y="296.3467">comp_arc_sta__baselibs__json</text><line style="stroke:#181818;stroke-width:0.5;" x1="4274.5" x2="4514.6367" y1="307.5" y2="307.5"/></g><!--class logic_arc_int__baselibs__task--><g id="elem_logic_arc_int__baselibs__task"><rect fill="#F1F1F1" height="40" id="logic_arc_int__baselibs__task" rx="2.5" ry="2.5" style="stroke:#181818;stroke-width:0.5;" width="234.0156" x="1802.5" y="158.5"/><ellipse cx="1817.5" cy="174.5" fill="#ADD1B2" rx="11" ry="11" style="stroke:#181818;stroke-width:1;"/><path d="M1820.4688,180.1406 Q1819.8906,180.4375 1819.25,180.5781 Q1818.6094,180.7344 1817.9063,180.7344 Q1815.4063,180.7344 1814.0781,179.0938 Q1812.7656,177.4375 1812.7656,174.3125 Q1812.7656,171.1875 1814.0781,169.5313 Q1815.4063,167.875 1817.9063,167.875 Q1818.6094,167.875 1819.25,168.0313 Q1819.9063,168.1875 1820.4688,168.4844 L1820.4688,171.2031 Q1819.8438,170.625 1819.25,170.3594 Q1818.6563,170.0781 1818.0313,170.0781 Q1816.6875,170.0781 1816,171.1563 Q1815.3125,172.2188 1815.3125,174.3125 Q1815.3125,176.4063 1816,177.4844 Q1816.6875,178.5469 1818.0313,178.5469 Q1818.6563,178.5469 1819.25,178.2813 Q1819.8438,178 1820.4688,177.4219 L1820.4688,180.1406 Z " fill="#000000"/><text fill="#000000" font-family="sans-serif" font-size="14" lengthAdjust="spacing" textLength="202.0156" x="1831.5" y="179.3467">logic_arc_int__baselibs__task</text><line style="stroke:#181818;stroke-width:0.5;" x1="1803.5" x2="2035.5156" y1="190.5" y2="190.5"/></g><!--class comp_arc_sta__baselibs__filesystem--><g id="elem_comp_arc_sta__baselibs__filesystem"><rect fill="#F1F1F1" height="40" id="comp_arc_sta__baselibs__filesystem" rx="2.5" ry="2.5" style="stroke:#181818;stroke-width:0.5;" width="285.4492" x="3284" y="275.5"/><ellipse cx="3299" cy="291.5" fill="#ADD1B2" rx="11" ry="11" style="stroke:#181818;stroke-width:1;"/><path d="M3301.9688,297.1406 Q3301.3906,297.4375 3300.75,297.5781 Q3300.1094,297.7344 3299.4063,297.7344 Q3296.9063,297.7344 3295.5781,296.0938 Q3294.2656,294.4375 3294.2656,291.3125 Q3294.2656,288.1875 3295.5781,286.5313 Q3296.9063,284.875 3299.4063,284.875 Q3300.1094,284.875 3300.75,285.0313 Q3301.4063,285.1875 3301.9688,285.4844 L3301.9688,288.2031 Q3301.3438,287.625 3300.75,287.3594 Q3300.1563,287.0781 3299.5313,287.0781 Q3298.1875,287.0781 3297.5,288.1563 Q3296.8125,289.2188 3296.8125,291.3125 Q3296.8125,293.4063 3297.5,294.4844 Q3298.1875,295.5469 3299.5313,295.5469 Q3300.1563,295.5469 3300.75,295.2813 Q3301.3438,295 3301.9688,294.4219 L3301.9688,297.1406 Z " fill="#000000"/><text fill="#000000" font-family="sans-serif" font-size="14" lengthAdjust="spacing" textLength="253.4492" x="3313" y="296.3467">comp_arc_sta__baselibs__filesystem</text><line style="stroke:#181818;stroke-width:0.5;" x1="3285" x2="3568.4492" y1="307.5" y2="307.5"/></g><!--class logic_arc_int__baselibs__synchronized_queue--><g id="elem_logic_arc_int__baselibs__synchronized_queue"><rect fill="#F1F1F1" height="40" id="logic_arc_int__baselibs__synchronized_queue" rx="2.5" ry="2.5" style="stroke:#181818;stroke-width:0.5;" width="348.3604" x="1102.5" y="158.5"/><ellipse cx="1117.5" cy="174.5" fill="#ADD1B2" rx="11" ry="11" style="stroke:#181818;stroke-width:1;"/><path d="M1120.4688,180.1406 Q1119.8906,180.4375 1119.25,180.5781 Q1118.6094,180.7344 1117.9063,180.7344 Q1115.4063,180.7344 1114.0781,179.0938 Q1112.7656,177.4375 1112.7656,174.3125 Q1112.7656,171.1875 1114.0781,169.5313 Q1115.4063,167.875 1117.9063,167.875 Q1118.6094,167.875 1119.25,168.0313 Q1119.9063,168.1875 1120.4688,168.4844 L1120.4688,171.2031 Q1119.8438,170.625 1119.25,170.3594 Q1118.6563,170.0781 1118.0313,170.0781 Q1116.6875,170.0781 1116,171.1563 Q1115.3125,172.2188 1115.3125,174.3125 Q1115.3125,176.4063 1116,177.4844 Q1116.6875,178.5469 1118.0313,178.5469 Q1118.6563,178.5469 1119.25,178.2813 Q1119.8438,178 1120.4688,177.4219 L1120.4688,180.1406 Z " fill="#000000"/><text fill="#000000" font-family="sans-serif" font-size="14" lengthAdjust="spacing" textLength="316.3604" x="1131.5" y="179.3467">logic_arc_int__baselibs__synchronized_queue</text><line style="stroke:#181818;stroke-width:0.5;" x1="1103.5" x2="1449.8604" y1="190.5" y2="190.5"/></g><!--class logic_arc_int__baselibs__intrusive_list--><g id="elem_logic_arc_int__baselibs__intrusive_list"><rect fill="#F1F1F1" height="40" id="logic_arc_int__baselibs__intrusive_list" rx="2.5" ry="2.5" style="stroke:#181818;stroke-width:0.5;" width="293.0713" x="4890" y="158.5"/><ellipse cx="4905" cy="174.5" fill="#ADD1B2" rx="11" ry="11" style="stroke:#181818;stroke-width:1;"/><path d="M4907.9688,180.1406 Q4907.3906,180.4375 4906.75,180.5781 Q4906.1094,180.7344 4905.4063,180.7344 Q4902.9063,180.7344 4901.5781,179.0938 Q4900.2656,177.4375 4900.2656,174.3125 Q4900.2656,171.1875 4901.5781,169.5313 Q4902.9063,167.875 4905.4063,167.875 Q4906.1094,167.875 4906.75,168.0313 Q4907.4063,168.1875 4907.9688,168.4844 L4907.9688,171.2031 Q4907.3438,170.625 4906.75,170.3594 Q4906.1563,170.0781 4905.5313,170.0781 Q4904.1875,170.0781 4903.5,171.1563 Q4902.8125,172.2188 4902.8125,174.3125 Q4902.8125,176.4063 4903.5,177.4844 Q4904.1875,178.5469 4905.5313,178.5469 Q4906.1563,178.5469 4906.75,178.2813 Q4907.3438,178 4907.9688,177.4219 L4907.9688,180.1406 Z " fill="#000000"/><text fill="#000000" font-family="sans-serif" font-size="14" lengthAdjust="spacing" textLength="261.0713" x="4919" y="179.3467">logic_arc_int__baselibs__intrusive_list</text><line style="stroke:#181818;stroke-width:0.5;" x1="4891" x2="5182.0713" y1="190.5" y2="190.5"/></g><!--class comp_arc_sta__baselibs__message_passing--><g id="elem_comp_arc_sta__baselibs__message_passing"><rect fill="#F1F1F1" height="40" id="comp_arc_sta__baselibs__message_passing" rx="2.5" ry="2.5" style="stroke:#181818;stroke-width:0.5;" width="337.1357" x="369" y="275.5"/><ellipse cx="384" cy="291.5" fill="#ADD1B2" rx="11" ry="11" style="stroke:#181818;stroke-width:1;"/><path d="M386.9688,297.1406 Q386.3906,297.4375 385.75,297.5781 Q385.1094,297.7344 384.4063,297.7344 Q381.9063,297.7344 380.5781,296.0938 Q379.2656,294.4375 379.2656,291.3125 Q379.2656,288.1875 380.5781,286.5313 Q381.9063,284.875 384.4063,284.875 Q385.1094,284.875 385.75,285.0313 Q386.4063,285.1875 386.9688,285.4844 L386.9688,288.2031 Q386.3438,287.625 385.75,287.3594 Q385.1563,287.0781 384.5313,287.0781 Q383.1875,287.0781 382.5,288.1563 Q381.8125,289.2188 381.8125,291.3125 Q381.8125,293.4063 382.5,294.4844 Q383.1875,295.5469 384.5313,295.5469 Q385.1563,295.5469 385.75,295.2813 Q386.3438,295 386.9688,294.4219 L386.9688,297.1406 Z " fill="#000000"/><text fill="#000000" font-family="sans-serif" font-size="14" lengthAdjust="spacing" textLength="305.1357" x="398" y="296.3467">comp_arc_sta__baselibs__message_passing</text><line style="stroke:#181818;stroke-width:0.5;" x1="370" x2="705.1357" y1="307.5" y2="307.5"/></g><!--class logic_arc_int__baselibs__message_passing--><g id="elem_logic_arc_int__baselibs__message_passing"><rect fill="#F1F1F1" height="40" id="logic_arc_int__baselibs__message_passing" rx="2.5" ry="2.5" style="stroke:#181818;stroke-width:0.5;" width="328.167" x="370.5" y="158.5"/><ellipse cx="385.5" cy="174.5" fill="#ADD1B2" rx="11" ry="11" style="stroke:#181818;stroke-width:1;"/><path d="M388.4688,180.1406 Q387.8906,180.4375 387.25,180.5781 Q386.6094,180.7344 385.9063,180.7344 Q383.4063,180.7344 382.0781,179.0938 Q380.7656,177.4375 380.7656,174.3125 Q380.7656,171.1875 382.0781,169.5313 Q383.4063,167.875 385.9063,167.875 Q386.6094,167.875 387.25,168.0313 Q387.9063,168.1875 388.4688,168.4844 L388.4688,171.2031 Q387.8438,170.625 387.25,170.3594 Q386.6563,170.0781 386.0313,170.0781 Q384.6875,170.0781 384,171.1563 Q383.3125,172.2188 383.3125,174.3125 Q383.3125,176.4063 384,177.4844 Q384.6875,178.5469 386.0313,178.5469 Q386.6563,178.5469 387.25,178.2813 Q387.8438,178 388.4688,177.4219 L388.4688,180.1406 Z " fill="#000000"/><text fill="#000000" font-family="sans-serif" font-size="14" lengthAdjust="spacing" textLength="296.167" x="399.5" y="179.3467">logic_arc_int__baselibs__message_passing</text><line style="stroke:#181818;stroke-width:0.5;" x1="371.5" x2="697.667" y1="190.5" y2="190.5"/></g><!--class logic_arc_int__baselibs__executor--><g id="elem_logic_arc_int__baselibs__executor"><rect fill="#F1F1F1" height="40" id="logic_arc_int__baselibs__executor" rx="2.5" ry="2.5" style="stroke:#181818;stroke-width:0.5;" width="266.4385" x="2071.5" y="158.5"/><ellipse cx="2086.5" cy="174.5" fill="#ADD1B2" rx="11" ry="11" style="stroke:#181818;stroke-width:1;"/><path d="M2089.4688,180.1406 Q2088.8906,180.4375 2088.25,180.5781 Q2087.6094,180.7344 2086.9063,180.7344 Q2084.4063,180.7344 2083.0781,179.0938 Q2081.7656,177.4375 2081.7656,174.3125 Q2081.7656,171.1875 2083.0781,169.5313 Q2084.4063,167.875 2086.9063,167.875 Q2087.6094,167.875 2088.25,168.0313 Q2088.9063,168.1875 2089.4688,168.4844 L2089.4688,171.2031 Q2088.8438,170.625 2088.25,170.3594 Q2087.6563,170.0781 2087.0313,170.0781 Q2085.6875,170.0781 2085,171.1563 Q2084.3125,172.2188 2084.3125,174.3125 Q2084.3125,176.4063 2085,177.4844 Q2085.6875,178.5469 2087.0313,178.5469 Q2087.6563,178.5469 2088.25,178.2813 Q2088.8438,178 2089.4688,177.4219 L2089.4688,180.1406 Z " fill="#000000"/><text fill="#000000" font-family="sans-serif" font-size="14" lengthAdjust="spacing" textLength="234.4385" x="2100.5" y="179.3467">logic_arc_int__baselibs__executor</text><line style="stroke:#181818;stroke-width:0.5;" x1="2072.5" x2="2336.9385" y1="190.5" y2="190.5"/></g><!--class logic_arc_int__baselibs__condition_variable--><g id="elem_logic_arc_int__baselibs__condition_variable"><rect fill="#F1F1F1" height="40" id="logic_arc_int__baselibs__condition_variable" rx="2.5" ry="2.5" style="stroke:#181818;stroke-width:0.5;" width="332.7539" x="734" y="158.5"/><ellipse cx="749" cy="174.5" fill="#ADD1B2" rx="11" ry="11" style="stroke:#181818;stroke-width:1;"/><path d="M751.9688,180.1406 Q751.3906,180.4375 750.75,180.5781 Q750.1094,180.7344 749.4063,180.7344 Q746.9063,180.7344 745.5781,179.0938 Q744.2656,177.4375 744.2656,174.3125 Q744.2656,171.1875 745.5781,169.5313 Q746.9063,167.875 749.4063,167.875 Q750.1094,167.875 750.75,168.0313 Q751.4063,168.1875 751.9688,168.4844 L751.9688,171.2031 Q751.3438,170.625 750.75,170.3594 Q750.1563,170.0781 749.5313,170.0781 Q748.1875,170.0781 747.5,171.1563 Q746.8125,172.2188 746.8125,174.3125 Q746.8125,176.4063 747.5,177.4844 Q748.1875,178.5469 749.5313,178.5469 Q750.1563,178.5469 750.75,178.2813 Q751.3438,178 751.9688,177.4219 L751.9688,180.1406 Z " fill="#000000"/><text fill="#000000" font-family="sans-serif" font-size="14" lengthAdjust="spacing" textLength="300.7539" x="763" y="179.3467">logic_arc_int__baselibs__condition_variable</text><line style="stroke:#181818;stroke-width:0.5;" x1="735" x2="1065.7539" y1="190.5" y2="190.5"/></g><!--class comp_arc_sta__baselibs__memory_shared--><g id="elem_comp_arc_sta__baselibs__memory_shared"><rect fill="#F1F1F1" height="40" id="comp_arc_sta__baselibs__memory_shared" rx="2.5" ry="2.5" style="stroke:#181818;stroke-width:0.5;" width="327.0117" x="7" y="275.5"/><ellipse cx="22" cy="291.5" fill="#ADD1B2" rx="11" ry="11" style="stroke:#181818;stroke-width:1;"/><path d="M24.9688,297.1406 Q24.3906,297.4375 23.75,297.5781 Q23.1094,297.7344 22.4063,297.7344 Q19.9063,297.7344 18.5781,296.0938 Q17.2656,294.4375 17.2656,291.3125 Q17.2656,288.1875 18.5781,286.5313 Q19.9063,284.875 22.4063,284.875 Q23.1094,284.875 23.75,285.0313 Q24.4063,285.1875 24.9688,285.4844 L24.9688,288.2031 Q24.3438,287.625 23.75,287.3594 Q23.1563,287.0781 22.5313,287.0781 Q21.1875,287.0781 20.5,288.1563 Q19.8125,289.2188 19.8125,291.3125 Q19.8125,293.4063 20.5,294.4844 Q21.1875,295.5469 22.5313,295.5469 Q23.1563,295.5469 23.75,295.2813 Q24.3438,295 24.9688,294.4219 L24.9688,297.1406 Z " fill="#000000"/><text fill="#000000" font-family="sans-serif" font-size="14" lengthAdjust="spacing" textLength="295.0117" x="36" y="296.3467">comp_arc_sta__baselibs__memory_shared</text><line style="stroke:#181818;stroke-width:0.5;" x1="8" x2="333.0117" y1="307.5" y2="307.5"/></g><!--class logic_arc_int__baselibs__memory_shared--><g id="elem_logic_arc_int__baselibs__memory_shared"><rect fill="#F1F1F1" height="40" id="logic_arc_int__baselibs__memory_shared" rx="2.5" ry="2.5" style="stroke:#181818;stroke-width:0.5;" width="318.043" x="15.5" y="158.5"/><ellipse cx="30.5" cy="174.5" fill="#ADD1B2" rx="11" ry="11" style="stroke:#181818;stroke-width:1;"/><path d="M33.4688,180.1406 Q32.8906,180.4375 32.25,180.5781 Q31.6094,180.7344 30.9063,180.7344 Q28.4063,180.7344 27.0781,179.0938 Q25.7656,177.4375 25.7656,174.3125 Q25.7656,171.1875 27.0781,169.5313 Q28.4063,167.875 30.9063,167.875 Q31.6094,167.875 32.25,168.0313 Q32.9063,168.1875 33.4688,168.4844 L33.4688,171.2031 Q32.8438,170.625 32.25,170.3594 Q31.6563,170.0781 31.0313,170.0781 Q29.6875,170.0781 29,171.1563 Q28.3125,172.2188 28.3125,174.3125 Q28.3125,176.4063 29,177.4844 Q29.6875,178.5469 31.0313,178.5469 Q31.6563,178.5469 32.25,178.2813 Q32.8438,178 33.4688,177.4219 L33.4688,180.1406 Z " fill="#000000"/><text fill="#000000" font-family="sans-serif" font-size="14" lengthAdjust="spacing" textLength="286.043" x="44.5" y="179.3467">logic_arc_int__baselibs__memory_shared</text><line style="stroke:#181818;stroke-width:0.5;" x1="16.5" x2="332.543" y1="190.5" y2="190.5"/></g><!--link Feature_User to logic_arc_int__baselibs__json--><g id="link_Feature_User_logic_arc_int__baselibs__json"><path codeLine="15" d="M3147.55,48.24 C3302.54,61.24 3828.01,106.57 4260.5,158.5 C4266.22,159.19 4266.1077,159.1646 4272.0177,159.9146 " fill="transparent" id="Feature_User-to-logic_arc_int__baselibs__json" style="stroke:#181818;stroke-width:1;"/><polygon fill="#181818" points="4277.97,160.67,4269.5452,155.5688,4273.0098,160.0405,4268.538,163.5051,4277.97,160.67" style="stroke:#181818;stroke-width:1;"/><text fill="#000000" font-family="sans-serif" font-size="13" lengthAdjust="spacing" textLength="23.0103" x="3975.5" y="124.5669">use</text></g><!--reverse link logic_arc_int__baselibs__promise to comp_arc_sta__baselibs__concurrency--><g id="link_logic_arc_int__baselibs__promise_comp_arc_sta__baselibs__concurrency"><path codeLine="16" d="M2417.6332,199.9398 C2328.2232,221.2298 2190.16,254.11 2100.68,275.41 " fill="transparent" id="logic_arc_int__baselibs__promise-backto-comp_arc_sta__baselibs__concurrency" style="stroke:#181818;stroke-width:1;"/><polygon fill="#181818" points="2423.47,198.55,2413.7882,196.7436,2418.606,199.7082,2415.6413,204.526,2423.47,198.55" style="stroke:#181818;stroke-width:1;"/><text fill="#000000" font-family="sans-serif" font-size="13" lengthAdjust="spacing" textLength="76.9082" x="2291.5" y="241.5669">implements</text></g><!--reverse link logic_arc_int__baselibs__bit_mask_operator to comp_arc_sta__baselibs__bit_manipulation--><g id="link_logic_arc_int__baselibs__bit_mask_operator_comp_arc_sta__baselibs__bit_manipulation"><path codeLine="17" d="M5701.2102,201.9424 C5735.0902,223.2324 5784.28,254.14 5818.08,275.38 " fill="transparent" id="logic_arc_int__baselibs__bit_mask_operator-backto-comp_arc_sta__baselibs__bit_manipulation" style="stroke:#181818;stroke-width:1;"/><polygon fill="#181818" points="5696.13,198.75,5701.6221,206.9254,5700.3635,201.4103,5705.8786,200.1518,5696.13,198.75" style="stroke:#181818;stroke-width:1;"/><text fill="#000000" font-family="sans-serif" font-size="13" lengthAdjust="spacing" textLength="76.9082" x="5768.5" y="241.5669">implements</text></g><!--reverse link logic_arc_int__baselibs__dynamic_array to comp_arc_sta__baselibs__containers--><g id="link_logic_arc_int__baselibs__dynamic_array_comp_arc_sta__baselibs__containers"><path codeLine="18" d="M4733.3918,202.1527 C4764.3118,223.4427 4808.89,254.14 4839.74,275.38 " fill="transparent" id="logic_arc_int__baselibs__dynamic_array-backto-comp_arc_sta__baselibs__containers" style="stroke:#181818;stroke-width:1;"/><polygon fill="#181818" points="4728.45,198.75,4733.5943,207.1486,4732.5682,201.5856,4738.1312,200.5595,4728.45,198.75" style="stroke:#181818;stroke-width:1;"/><text fill="#000000" font-family="sans-serif" font-size="13" lengthAdjust="spacing" textLength="76.9082" x="4794.5" y="241.5669">implements</text></g><!--reverse link logic_arc_int__baselibs__task_result to comp_arc_sta__baselibs__concurrency--><g id="link_logic_arc_int__baselibs__task_result_comp_arc_sta__baselibs__concurrency"><path codeLine="19" d="M1697.7597,200.301 C1770.7397,221.601 1882.26,254.15 1955.17,275.43 " fill="transparent" id="logic_arc_int__baselibs__task_result-backto-comp_arc_sta__baselibs__concurrency" style="stroke:#181818;stroke-width:1;"/><polygon fill="#181818" points="1692,198.62,1699.5189,204.9813,1696.7997,200.0209,1701.7602,197.3017,1692,198.62" style="stroke:#181818;stroke-width:1;"/><text fill="#000000" font-family="sans-serif" font-size="13" lengthAdjust="spacing" textLength="76.9082" x="1848.5" y="241.5669">implements</text></g><!--reverse link logic_arc_int__baselibs__result to comp_arc_sta__baselibs__result--><g id="link_logic_arc_int__baselibs__result_comp_arc_sta__baselibs__result"><path codeLine="20" d="M5340.5,204.75 C5340.5,225.98 5340.5,253.94 5340.5,275.19 " fill="transparent" id="logic_arc_int__baselibs__result-backto-comp_arc_sta__baselibs__result" style="stroke:#181818;stroke-width:1;"/><polygon fill="#181818" points="5340.5,198.75,5336.5,207.75,5340.5,203.75,5344.5,207.75,5340.5,198.75" style="stroke:#181818;stroke-width:1;"/><text fill="#000000" font-family="sans-serif" font-size="13" lengthAdjust="spacing" textLength="76.9082" x="5341.5" y="241.5669">implements</text></g><!--link Feature_User to logic_arc_int__baselibs__bit_manipulation--><g id="link_Feature_User_logic_arc_int__baselibs__bit_manipulation"><path codeLine="21" d="M3147.54,45.4 C3367.13,49.93 4347.35,71.49 5149.5,111.5 C5461.37,127.05 5539.41,131.57 5850.5,158.5 C5856.26,159 5856.1457,158.965 5862.0657,159.515 " fill="transparent" id="Feature_User-to-logic_arc_int__baselibs__bit_manipulation" style="stroke:#181818;stroke-width:1;"/><polygon fill="#181818" points="5868.04,160.07,5859.4486,155.2546,5863.0614,159.6075,5858.7086,163.2203,5868.04,160.07" style="stroke:#181818;stroke-width:1;"/><text fill="#000000" font-family="sans-serif" font-size="13" lengthAdjust="spacing" textLength="23.0103" x="5465.5" y="124.5669">use</text></g><!--link Feature_User to logic_arc_int__baselibs__dynamic_array--><g id="link_Feature_User_logic_arc_int__baselibs__dynamic_array"><path codeLine="22" d="M3147.51,47.43 C3323.96,59.07 3985.46,104.02 4528.5,158.5 C4534.33,159.08 4534.3018,159.0733 4540.3018,159.6933 " fill="transparent" id="Feature_User-to-logic_arc_int__baselibs__dynamic_array" style="stroke:#181818;stroke-width:1;"/><polygon fill="#181818" points="4546.27,160.31,4537.7288,155.4061,4541.2965,159.7961,4536.9065,163.3637,4546.27,160.31" style="stroke:#181818;stroke-width:1;"/><text fill="#000000" font-family="sans-serif" font-size="13" lengthAdjust="spacing" textLength="23.0103" x="4177.5" y="124.5669">use</text></g><!--reverse link logic_arc_int__baselibs__bit_manipulation to comp_arc_sta__baselibs__bit_manipulation--><g id="link_logic_arc_int__baselibs__bit_manipulation_comp_arc_sta__baselibs__bit_manipulation"><path codeLine="23" d="M5994.1357,201.9675 C5960.6257,223.2575 5912.02,254.14 5878.59,275.38 " fill="transparent" id="logic_arc_int__baselibs__bit_manipulation-backto-comp_arc_sta__baselibs__bit_manipulation" style="stroke:#181818;stroke-width:1;"/><polygon fill="#181818" points="5999.2,198.75,5989.4585,200.2001,5994.9797,201.4313,5993.7485,206.9525,5999.2,198.75" style="stroke:#181818;stroke-width:1;"/><text fill="#000000" font-family="sans-serif" font-size="13" lengthAdjust="spacing" textLength="76.9082" x="5950.5" y="241.5669">implements</text></g><!--reverse link logic_arc_int__baselibs__shared_future to comp_arc_sta__baselibs__concurrency--><g id="link_logic_arc_int__baselibs__shared_future_comp_arc_sta__baselibs__concurrency"><path codeLine="24" d="M2951.979,199.2854 C2843.749,213.2054 2697.96,231.31 2564.5,245.5 C2431.54,259.64 2280.02,273.07 2170.71,282.28 " fill="transparent" id="logic_arc_int__baselibs__shared_future-backto-comp_arc_sta__baselibs__concurrency" style="stroke:#181818;stroke-width:1;"/><polygon fill="#181818" points="2957.93,198.52,2948.4933,195.7008,2952.9708,199.1578,2949.5138,203.6354,2957.93,198.52" style="stroke:#181818;stroke-width:1;"/><text fill="#000000" font-family="sans-serif" font-size="13" lengthAdjust="spacing" textLength="76.9082" x="2712.5" y="241.5669">implements</text></g><!--link Feature_User to logic_arc_int__baselibs__utils_base64--><g id="link_Feature_User_logic_arc_int__baselibs__utils_base64"><path codeLine="25" d="M3147.79,50.56 C3289.08,69.46 3719.923,127.1142 3948.233,157.6642 " fill="transparent" id="Feature_User-to-logic_arc_int__baselibs__utils_base64" style="stroke:#181818;stroke-width:1;"/><polygon fill="#181818" points="3954.18,158.46,3945.79,153.3017,3949.2242,157.7969,3944.729,161.231,3954.18,158.46" style="stroke:#181818;stroke-width:1;"/><text fill="#000000" font-family="sans-serif" font-size="13" lengthAdjust="spacing" textLength="23.0103" x="3718.5" y="124.5669">use</text></g><!--reverse link logic_arc_int__baselibs__utils_scoped_op to comp_arc_sta__baselibs__utils--><g id="link_logic_arc_int__baselibs__utils_scoped_op_comp_arc_sta__baselibs__utils"><path codeLine="26" d="M3790.7506,202.1252 C3822.0406,223.4152 3867.19,254.14 3898.4,275.38 " fill="transparent" id="logic_arc_int__baselibs__utils_scoped_op-backto-comp_arc_sta__baselibs__utils" style="stroke:#181818;stroke-width:1;"/><polygon fill="#181818" points="3785.79,198.75,3790.9808,207.1199,3789.9238,201.5627,3795.4811,200.5058,3785.79,198.75" style="stroke:#181818;stroke-width:1;"/><text fill="#000000" font-family="sans-serif" font-size="13" lengthAdjust="spacing" textLength="76.9082" x="3852.5" y="241.5669">implements</text></g><!--link Feature_User to logic_arc_int__baselibs__result--><g id="link_Feature_User_logic_arc_int__baselibs__result"><path codeLine="27" d="M3147.73,46.29 C3323.56,53.32 3978.58,80.2 4517.5,111.5 C4821.26,129.14 4897.8,127.58 5200.5,158.5 C5206.36,159.1 5206.3888,159.069 5212.4288,159.759 " fill="transparent" id="Feature_User-to-logic_arc_int__baselibs__result" style="stroke:#181818;stroke-width:1;"/><polygon fill="#181818" points="5218.39,160.44,5209.9022,155.4443,5213.4223,159.8725,5208.9942,163.3927,5218.39,160.44" style="stroke:#181818;stroke-width:1;"/><text fill="#000000" font-family="sans-serif" font-size="13" lengthAdjust="spacing" textLength="23.0103" x="4825.5" y="124.5669">use</text></g><!--link Feature_User to logic_arc_int__baselibs__future--><g id="link_Feature_User_logic_arc_int__baselibs__future"><path codeLine="28" d="M3057.42,63.84 C2998.4,89.16 2901.064,130.9244 2842.394,156.0944 " fill="transparent" id="Feature_User-to-logic_arc_int__baselibs__future" style="stroke:#181818;stroke-width:1;"/><polygon fill="#181818" points="2836.88,158.46,2846.728,158.5877,2841.475,156.4887,2843.574,151.2357,2836.88,158.46" style="stroke:#181818;stroke-width:1;"/><text fill="#000000" font-family="sans-serif" font-size="13" lengthAdjust="spacing" textLength="23.0103" x="2938.5" y="124.5669">use</text></g><!--link Feature_User to logic_arc_int__baselibs__task_result--><g id="link_Feature_User_logic_arc_int__baselibs__task_result"><path codeLine="29" d="M3057.49,47.7 C2889.44,59.81 2282.88,104.83 1784.5,158.5 C1778.87,159.11 1779.0927,159.0718 1773.2927,159.7218 " fill="transparent" id="Feature_User-to-logic_arc_int__baselibs__task_result" style="stroke:#181818;stroke-width:1;"/><polygon fill="#181818" points="1767.33,160.39,1776.7195,163.3628,1772.2989,159.8331,1775.8285,155.4125,1767.33,160.39" style="stroke:#181818;stroke-width:1;"/><text fill="#000000" font-family="sans-serif" font-size="13" lengthAdjust="spacing" textLength="23.0103" x="2255.5" y="124.5669">use</text></g><!--link Feature_User to logic_arc_int__baselibs__filesystem--><g id="link_Feature_User_logic_arc_int__baselibs__filesystem"><path codeLine="30" d="M3147.55,62.99 C3208.84,88.15 3312.4092,130.6721 3374.4492,156.1321 " fill="transparent" id="Feature_User-to-logic_arc_int__baselibs__filesystem" style="stroke:#181818;stroke-width:1;"/><polygon fill="#181818" points="3380,158.41,3373.1925,151.2926,3375.3744,156.5117,3370.1552,158.6936,3380,158.41" style="stroke:#181818;stroke-width:1;"/><text fill="#000000" font-family="sans-serif" font-size="13" lengthAdjust="spacing" textLength="23.0103" x="3303.5" y="124.5669">use</text></g><!--reverse link logic_arc_int__baselibs__json to comp_arc_sta__baselibs__json--><g id="link_logic_arc_int__baselibs__json_comp_arc_sta__baselibs__json"><path codeLine="31" d="M4394.5,204.75 C4394.5,225.98 4394.5,253.94 4394.5,275.19 " fill="transparent" id="logic_arc_int__baselibs__json-backto-comp_arc_sta__baselibs__json" style="stroke:#181818;stroke-width:1;"/><polygon fill="#181818" points="4394.5,198.75,4390.5,207.75,4394.5,203.75,4398.5,207.75,4394.5,198.75" style="stroke:#181818;stroke-width:1;"/><text fill="#000000" font-family="sans-serif" font-size="13" lengthAdjust="spacing" textLength="76.9082" x="4395.5" y="241.5669">implements</text></g><!--reverse link logic_arc_int__baselibs__task to comp_arc_sta__baselibs__concurrency--><g id="link_logic_arc_int__baselibs__task_comp_arc_sta__baselibs__concurrency"><path codeLine="32" d="M1940.3687,203.2587 C1959.0087,224.4887 1984.87,253.94 2003.54,275.19 " fill="transparent" id="logic_arc_int__baselibs__task-backto-comp_arc_sta__baselibs__concurrency" style="stroke:#181818;stroke-width:1;"/><polygon fill="#181818" points="1936.41,198.75,1939.3422,208.1522,1939.7089,202.5073,1945.3539,202.874,1936.41,198.75" style="stroke:#181818;stroke-width:1;"/><text fill="#000000" font-family="sans-serif" font-size="13" lengthAdjust="spacing" textLength="76.9082" x="1977.5" y="241.5669">implements</text></g><!--link Feature_User to logic_arc_int__baselibs__bit_mask_operator--><g id="link_Feature_User_logic_arc_int__baselibs__bit_mask_operator"><path codeLine="33" d="M3147.61,45.61 C3348,50.65 4177.5,72.88 4857.5,111.5 C5134.73,127.24 5203.92,133.87 5480.5,158.5 C5486.13,159 5485.876,158.9619 5491.656,159.5019 " fill="transparent" id="Feature_User-to-logic_arc_int__baselibs__bit_mask_operator" style="stroke:#181818;stroke-width:1;"/><polygon fill="#181818" points="5497.63,160.06,5489.0411,155.2402,5492.6517,159.5949,5488.2969,163.2055,5497.63,160.06" style="stroke:#181818;stroke-width:1;"/><text fill="#000000" font-family="sans-serif" font-size="13" lengthAdjust="spacing" textLength="23.0103" x="5117.5" y="124.5669">use</text></g><!--link Feature_User to logic_arc_int__baselibs__shared_future--><g id="link_Feature_User_logic_arc_int__baselibs__shared_future"><path codeLine="34" d="M3102.5,81.55 C3102.5,106.45 3102.5,132.26 3102.5,152.26 " fill="transparent" id="Feature_User-to-logic_arc_int__baselibs__shared_future" style="stroke:#181818;stroke-width:1;"/><polygon fill="#181818" points="3102.5,158.26,3106.5,149.26,3102.5,153.26,3098.5,149.26,3102.5,158.26" style="stroke:#181818;stroke-width:1;"/><text fill="#000000" font-family="sans-serif" font-size="13" lengthAdjust="spacing" textLength="23.0103" x="3103.5" y="124.5669">use</text></g><!--link Feature_User to logic_arc_int__baselibs__task--><g id="link_Feature_User_logic_arc_int__baselibs__task"><path codeLine="35" d="M3057.45,48.87 C2911.97,63.08 2441.58,109.91 2053.5,158.5 C2048.02,159.19 2048.3694,159.1322 2042.7094,159.8722 " fill="transparent" id="Feature_User-to-logic_arc_int__baselibs__task" style="stroke:#181818;stroke-width:1;"/><polygon fill="#181818" points="2036.76,160.65,2046.2026,163.4495,2041.7178,160.0018,2045.1655,155.517,2036.76,160.65" style="stroke:#181818;stroke-width:1;"/><text fill="#000000" font-family="sans-serif" font-size="13" lengthAdjust="spacing" textLength="23.0103" x="2428.5" y="124.5669">use</text></g><!--reverse link logic_arc_int__baselibs__filesystem to comp_arc_sta__baselibs__filesystem--><g id="link_logic_arc_int__baselibs__filesystem_comp_arc_sta__baselibs__filesystem"><path codeLine="36" d="M3426.5,204.75 C3426.5,225.98 3426.5,253.94 3426.5,275.19 " fill="transparent" id="logic_arc_int__baselibs__filesystem-backto-comp_arc_sta__baselibs__filesystem" style="stroke:#181818;stroke-width:1;"/><polygon fill="#181818" points="3426.5,198.75,3422.5,207.75,3426.5,203.75,3430.5,207.75,3426.5,198.75" style="stroke:#181818;stroke-width:1;"/><text fill="#000000" font-family="sans-serif" font-size="13" lengthAdjust="spacing" textLength="76.9082" x="3427.5" y="241.5669">implements</text></g><!--link Feature_User to logic_arc_int__baselibs__synchronized_queue--><g id="link_Feature_User_logic_arc_int__baselibs__synchronized_queue"><path codeLine="37" d="M3057.29,47.05 C2865.2,58 2097.72,103.05 1468.5,158.5 C1462.66,159.01 1462.6958,159.0113 1456.7058,159.5513 " fill="transparent" id="Feature_User-to-logic_arc_int__baselibs__synchronized_queue" style="stroke:#181818;stroke-width:1;"/><polygon fill="#181818" points="1450.73,160.09,1460.0528,163.2658,1455.7098,159.6411,1459.3345,155.2981,1450.73,160.09" style="stroke:#181818;stroke-width:1;"/><text fill="#000000" font-family="sans-serif" font-size="13" lengthAdjust="spacing" textLength="23.0103" x="2053.5" y="124.5669">use</text></g><!--link Feature_User to logic_arc_int__baselibs__intrusive_list--><g id="link_Feature_User_logic_arc_int__baselibs__intrusive_list"><path codeLine="38" d="M3147.71,46.45 C3349.4,55.37 4187.26,94.55 4872.5,158.5 C4878.21,159.03 4878.05,159.001 4883.93,159.591 " fill="transparent" id="Feature_User-to-logic_arc_int__baselibs__intrusive_list" style="stroke:#181818;stroke-width:1;"/><polygon fill="#181818" points="4889.9,160.19,4881.3443,155.3114,4884.925,159.6908,4880.5456,163.2715,4889.9,160.19" style="stroke:#181818;stroke-width:1;"/><text fill="#000000" font-family="sans-serif" font-size="13" lengthAdjust="spacing" textLength="23.0103" x="4485.5" y="124.5669">use</text></g><!--reverse link logic_arc_int__baselibs__utils_base64 to comp_arc_sta__baselibs__utils--><g id="link_logic_arc_int__baselibs__utils_base64_comp_arc_sta__baselibs__utils"><path codeLine="39" d="M4063.0799,202.1113 C4031.5999,223.4013 3986.16,254.14 3954.76,275.38 " fill="transparent" id="logic_arc_int__baselibs__utils_base64-backto-comp_arc_sta__baselibs__utils" style="stroke:#181818;stroke-width:1;"/><polygon fill="#181818" points="4068.05,198.75,4058.354,200.4785,4063.9083,201.5511,4062.8357,207.1053,4068.05,198.75" style="stroke:#181818;stroke-width:1;"/><text fill="#000000" font-family="sans-serif" font-size="13" lengthAdjust="spacing" textLength="76.9082" x="4022.5" y="241.5669">implements</text></g><!--reverse link logic_arc_int__baselibs__intrusive_list to comp_arc_sta__baselibs__containers--><g id="link_logic_arc_int__baselibs__intrusive_list_comp_arc_sta__baselibs__containers"><path codeLine="40" d="M5003.2494,202.1252 C4971.9594,223.4152 4926.81,254.14 4895.6,275.38 " fill="transparent" id="logic_arc_int__baselibs__intrusive_list-backto-comp_arc_sta__baselibs__containers" style="stroke:#181818;stroke-width:1;"/><polygon fill="#181818" points="5008.21,198.75,4998.5189,200.5058,5004.0762,201.5627,5003.0192,207.1199,5008.21,198.75" style="stroke:#181818;stroke-width:1;"/><text fill="#000000" font-family="sans-serif" font-size="13" lengthAdjust="spacing" textLength="76.9082" x="4962.5" y="241.5669">implements</text></g><!--reverse link logic_arc_int__baselibs__message_passing to comp_arc_sta__baselibs__message_passing--><g id="link_logic_arc_int__baselibs__message_passing_comp_arc_sta__baselibs__message_passing"><path codeLine="41" d="M535.1582,204.7479 C535.7182,225.9779 536.44,253.94 537,275.19 " fill="transparent" id="logic_arc_int__baselibs__message_passing-backto-comp_arc_sta__baselibs__message_passing" style="stroke:#181818;stroke-width:1;"/><polygon fill="#181818" points="535,198.75,531.2387,207.8523,535.1318,203.7483,539.2359,207.6414,535,198.75" style="stroke:#181818;stroke-width:1;"/><text fill="#000000" font-family="sans-serif" font-size="13" lengthAdjust="spacing" textLength="76.9082" x="537.5" y="241.5669">implements</text></g><!--reverse link logic_arc_int__baselibs__executor to comp_arc_sta__baselibs__concurrency--><g id="link_logic_arc_int__baselibs__executor_comp_arc_sta__baselibs__concurrency"><path codeLine="42" d="M2168.6118,201.9296 C2134.5418,223.2196 2085.08,254.14 2051.09,275.38 " fill="transparent" id="logic_arc_int__baselibs__executor-backto-comp_arc_sta__baselibs__concurrency" style="stroke:#181818;stroke-width:1;"/><polygon fill="#181818" points="2173.7,198.75,2163.9479,200.1272,2169.4598,201.3997,2168.1874,206.9115,2173.7,198.75" style="stroke:#181818;stroke-width:1;"/><text fill="#000000" font-family="sans-serif" font-size="13" lengthAdjust="spacing" textLength="76.9082" x="2125.5" y="241.5669">implements</text></g><!--link Feature_User to logic_arc_int__baselibs__condition_variable--><g id="link_Feature_User_logic_arc_int__baselibs__condition_variable"><path codeLine="43" d="M3057.34,46.18 C2839.27,54.46 1873.54,93.23 1084.5,158.5 C1078.9,158.96 1079.1765,158.9199 1073.4265,159.4299 " fill="transparent" id="Feature_User-to-logic_arc_int__baselibs__condition_variable" style="stroke:#181818;stroke-width:1;"/><polygon fill="#181818" points="1067.45,159.96,1076.7682,163.1492,1072.4304,159.5183,1076.0614,155.1805,1067.45,159.96" style="stroke:#181818;stroke-width:1;"/><text fill="#000000" font-family="sans-serif" font-size="13" lengthAdjust="spacing" textLength="23.0103" x="1695.5" y="124.5669">use</text></g><!--link Feature_User to logic_arc_int__baselibs__promise--><g id="link_Feature_User_logic_arc_int__baselibs__promise"><path codeLine="44" d="M3057.48,54.5 C2958.03,76.58 2724.1174,128.5198 2595.0474,157.1698 " fill="transparent" id="Feature_User-to-logic_arc_int__baselibs__promise" style="stroke:#181818;stroke-width:1;"/><polygon fill="#181818" points="2589.19,158.47,2598.8429,160.4247,2594.0712,157.3865,2597.1094,152.6148,2589.19,158.47" style="stroke:#181818;stroke-width:1;"/><text fill="#000000" font-family="sans-serif" font-size="13" lengthAdjust="spacing" textLength="23.0103" x="2785.5" y="124.5669">use</text></g><!--link Feature_User to logic_arc_int__baselibs__executor--><g id="link_Feature_User_logic_arc_int__baselibs__executor"><path codeLine="45" d="M3057.35,51.19 C2925.4,70.73 2542.8153,127.391 2338.8253,157.601 " fill="transparent" id="Feature_User-to-logic_arc_int__baselibs__executor" style="stroke:#181818;stroke-width:1;"/><polygon fill="#181818" points="2332.89,158.48,2342.3789,161.1184,2337.8361,157.7475,2341.2069,153.2047,2332.89,158.48" style="stroke:#181818;stroke-width:1;"/><text fill="#000000" font-family="sans-serif" font-size="13" lengthAdjust="spacing" textLength="23.0103" x="2627.5" y="124.5669">use</text></g><!--reverse link logic_arc_int__baselibs__memory_shared to comp_arc_sta__baselibs__memory_shared--><g id="link_logic_arc_int__baselibs__memory_shared_comp_arc_sta__baselibs__memory_shared"><path codeLine="46" d="M173.621,204.7464 C172.881,225.9764 171.91,253.94 171.17,275.19 " fill="transparent" id="logic_arc_int__baselibs__memory_shared-backto-comp_arc_sta__baselibs__memory_shared" style="stroke:#181818;stroke-width:1;"/><polygon fill="#181818" points="173.83,198.75,169.5189,207.6052,173.6558,203.747,177.5141,207.8839,173.83,198.75" style="stroke:#181818;stroke-width:1;"/><text fill="#000000" font-family="sans-serif" font-size="13" lengthAdjust="spacing" textLength="76.9082" x="174.5" y="241.5669">implements</text></g><!--link Feature_User to logic_arc_int__baselibs__message_passing--><g id="link_Feature_User_logic_arc_int__baselibs__message_passing"><path codeLine="47" d="M3057.38,46.07 C2867.29,52.74 2113.02,79.87 1493.5,111.5 C1147.99,129.14 1061.3,130.09 716.5,158.5 C710.64,158.98 710.656,158.9539 704.636,159.4939 " fill="transparent" id="Feature_User-to-logic_arc_int__baselibs__message_passing" style="stroke:#181818;stroke-width:1;"/><polygon fill="#181818" points="698.66,160.03,707.9814,163.2099,703.64,159.5833,707.2666,155.2419,698.66,160.03" style="stroke:#181818;stroke-width:1;"/><text fill="#000000" font-family="sans-serif" font-size="13" lengthAdjust="spacing" textLength="23.0103" x="1494.5" y="124.5669">use</text></g><!--link Feature_User to logic_arc_int__baselibs__memory_shared--><g id="link_Feature_User_logic_arc_int__baselibs__memory_shared"><path codeLine="48" d="M3057.2,45.58 C2841.58,50.83 1897.59,74.88 1124.5,111.5 C781.14,127.76 695.05,129.81 352.5,158.5 C346.31,159.02 345.9653,159.0259 339.5953,159.6059 " fill="transparent" id="Feature_User-to-logic_arc_int__baselibs__memory_shared" style="stroke:#181818;stroke-width:1;"/><polygon fill="#181818" points="333.62,160.15,342.9456,163.3174,338.5994,159.6966,342.2202,155.3504,333.62,160.15" style="stroke:#181818;stroke-width:1;"/><text fill="#000000" font-family="sans-serif" font-size="13" lengthAdjust="spacing" textLength="23.0103" x="1125.5" y="124.5669">use</text></g><!--reverse link logic_arc_int__baselibs__synchronized_queue to comp_arc_sta__baselibs__concurrency--><g id="link_logic_arc_int__baselibs__synchronized_queue_comp_arc_sta__baselibs__concurrency"><path codeLine="49" d="M1405.6995,199.4668 C1543.5295,220.7768 1759.5,254.16 1897.3,275.46 " fill="transparent" id="logic_arc_int__baselibs__synchronized_queue-backto-comp_arc_sta__baselibs__concurrency" style="stroke:#181818;stroke-width:1;"/><polygon fill="#181818" points="1399.77,198.55,1408.0531,203.8782,1404.7113,199.314,1409.2755,195.9721,1399.77,198.55" style="stroke:#181818;stroke-width:1;"/><text fill="#000000" font-family="sans-serif" font-size="13" lengthAdjust="spacing" textLength="76.9082" x="1694.5" y="241.5669">implements</text></g><!--reverse link logic_arc_int__baselibs__condition_variable to comp_arc_sta__baselibs__concurrency--><g id="link_logic_arc_int__baselibs__condition_variable_comp_arc_sta__baselibs__concurrency"><path codeLine="50" d="M1072.985,198.3471 C1197.345,211.8371 1365.54,229.87 1518.5,245.5 C1636.65,257.57 1770.51,270.61 1870.27,280.2 " fill="transparent" id="logic_arc_int__baselibs__condition_variable-backto-comp_arc_sta__baselibs__concurrency" style="stroke:#181818;stroke-width:1;"/><polygon fill="#181818" points="1067.02,197.7,1075.5361,202.6473,1071.9908,198.2392,1076.3989,194.6939,1067.02,197.7" style="stroke:#181818;stroke-width:1;"/><text fill="#000000" font-family="sans-serif" font-size="13" lengthAdjust="spacing" textLength="76.9082" x="1519.5" y="241.5669">implements</text></g><!--reverse link logic_arc_int__baselibs__future to comp_arc_sta__baselibs__concurrency--><g id="link_logic_arc_int__baselibs__future_comp_arc_sta__baselibs__concurrency"><path codeLine="51" d="M2670.5676,199.5216 C2587.1776,213.0616 2477.95,230.47 2376.5,245.5 C2306.45,255.88 2228.54,266.68 2163.51,275.5 " fill="transparent" id="logic_arc_int__baselibs__future-backto-comp_arc_sta__baselibs__concurrency" style="stroke:#181818;stroke-width:1;"/><polygon fill="#181818" points="2676.49,198.56,2666.9653,196.0541,2671.5546,199.3614,2668.2474,203.9507,2676.49,198.56" style="stroke:#181818;stroke-width:1;"/><text fill="#000000" font-family="sans-serif" font-size="13" lengthAdjust="spacing" textLength="76.9082" x="2479.5" y="241.5669">implements</text></g><!--link Feature_User to logic_arc_int__baselibs__utils_scoped_op--><g id="link_Feature_User_logic_arc_int__baselibs__utils_scoped_op"><path codeLine="52" d="M3147.52,53.64 C3253.52,75.17 3514.76,128.2162 3657.79,157.2562 " fill="transparent" id="Feature_User-to-logic_arc_int__baselibs__utils_scoped_op" style="stroke:#181818;stroke-width:1;"/><polygon fill="#181818" points="3663.67,158.45,3655.6459,152.7392,3658.77,157.4551,3654.0541,160.5792,3663.67,158.45" style="stroke:#181818;stroke-width:1;"/><text fill="#000000" font-family="sans-serif" font-size="13" lengthAdjust="spacing" textLength="23.0103" x="3508.5" y="124.5669">use</text></g><!--SRC=[hLPDRzim3BthLmYzfnk6OeUYw6N0JZskPq6MkOIhFZoHwkeD- - -JxMHDt2ooFHzfKu_KUu-IjBNXXtBuWduhE3IIWwm2St2onWY6CNYnmneaCKG8t3OmnE0QRgLcZbWb1X9tnAs5Ut6j2MqbVua7zF0fs11bXBgFlkpGF7aWaX-ktulVukxTVetGXdFUrMVGd2B8Hu9u9JN9_GVLVP12d8IRUdClRTYYKJeQXPwLgZI1nOgK-aR1tyf488K9hkbJYFLnYWdUf1Z1crPkqYMm9WQ71BSINMF1WMVwDso5h9pss2IhE_uAs4CwFQdGGDIPXcbLSlEiCwUH2lXrwxNhVqNTJiQUI0ntZKUWP7aQz91RG3q7E4FwiG1x6yn0675sqKMBv3vkRbr5QAVpkAclgTlhOWeJewK-_dXJs7-VMcXgW2EJBLvddozkws2CkNeUs9YxxiJUiukY1MhpkUaA37P7LO70uJHRVtR_SyPEJgsv_8oSkaIR0h6l2XIeE9Pg8I7KUhEBmUFFlAVl2TA2BUKm9i9dK1Q9LvkxmnYlUgsCUvq2xlBLhxUW6asK7no52gFijUqFBs3Ic-jsXbgvL8tT4QwUTKHTsGMA_trOp5tuslr5apXm8RRxKIloVPIxc9KtgitTsQYDbLvmvyPpNJ-TiyEw5LQvquykuPxQFm00]--></g></svg>