<svg xmlns="http://www.w3.org/2000/svg" xmlns:xlink="http://www.w3.org/1999/xlink" contentStyleType="text/css" data-diagram-type="DESCRIPTION" height="178px" preserveAspectRatio="none" style="width:885px;height:178px;background:#FFFFFF;" version="1.1" viewBox="0 0 885 178" width="885px" zoomAndPan="magnify"><defs/><g><!--cluster docs_as_code--><g id="cluster_docs_as_code"><path d="M346,16 C346,6 444.5,6 444.5,6 C444.5,6 543,6 543,16 L543,137 C543,147 444.5,147 444.5,147 C444.5,147 346,147 346,137 L346,16 " fill="transparent" style="stroke:#181818;stroke-width:1;"/><path d="M346,16 C346,26 444.5,26 444.5,26 C444.5,26 543,26 543,16 " fill="transparent" style="stroke:#181818;stroke-width:1;"/><text fill="#000000" font-family="sans-serif" font-size="14" font-weight="bold" lengthAdjust="spacing" textLength="105.4854" x="391.7573" y="40.9951">docs_as_code</text></g><!--cluster module_template--><g id="cluster_module_template"><path d="M716,16 C716,6 792,6 792,6 C792,6 868,6 868,16 L868,137 C868,147 792,147 792,147 C792,147 716,147 716,137 L716,16 " fill="transparent" style="stroke:#181818;stroke-width:1;"/><path d="M716,16 C716,26 792,26 792,26 C792,26 868,26 868,16 " fill="transparent" style="stroke:#181818;stroke-width:1;"/><text fill="#000000" font-family="sans-serif" font-size="14" font-weight="bold" lengthAdjust="spacing" textLength="136.7188" x="723.6406" y="40.9951">module_template</text></g><!--entity process_description--><g id="elem_process_description"><path d="M6,126.5 C6,116.5 85.4736,116.5 85.4736,116.5 C85.4736,116.5 164.9473,116.5 164.9473,126.5 L164.9473,151.7969 C164.9473,161.7969 85.4736,161.7969 85.4736,161.7969 C85.4736,161.7969 6,161.7969 6,151.7969 L6,126.5 " fill="#F1F1F1" style="stroke:#181818;stroke-width:0.5;"/><path d="M6,126.5 C6,136.5 85.4736,136.5 85.4736,136.5 C85.4736,136.5 164.9473,136.5 164.9473,126.5 " fill="transparent" style="stroke:#181818;stroke-width:0.5;"/><text fill="#000000" font-family="sans-serif" font-size="14" lengthAdjust="spacing" textLength="138.9473" x="16" y="153.4951">process_description</text></g><!--entity yaml--><g id="elem_yaml"><rect fill="#F1F1F1" height="39.2969" rx="2.5" ry="2.5" style="stroke:#181818;stroke-width:0.5;" width="148.7539" x="370" y="64.5"/><polygon fill="#F1F1F1" points="501.7539,69.5,501.7539,83.5,513.7539,83.5,513.7539,75.5,507.7539,69.5,501.7539,69.5" style="stroke:#181818;stroke-width:0.5;"/><line style="stroke:#181818;stroke-width:0.5;" x1="507.7539" x2="507.7539" y1="69.5" y2="75.5"/><line style="stroke:#181818;stroke-width:0.5;" x1="513.7539" x2="507.7539" y1="75.5" y2="75.5"/><text fill="#000000" font-family="sans-serif" font-size="14" lengthAdjust="spacing" textLength="118.7539" x="380" y="90.4951">metamodel.yaml</text></g><!--entity examples--><g id="elem_examples"><rect fill="#F1F1F1" height="39.2969" rx="2.5" ry="2.5" style="stroke:#181818;stroke-width:0.5;" width="97.7988" x="743" y="64.5"/><polygon fill="#F1F1F1" points="823.7988,69.5,823.7988,83.5,835.7988,83.5,835.7988,75.5,829.7988,69.5,823.7988,69.5" style="stroke:#181818;stroke-width:0.5;"/><line style="stroke:#181818;stroke-width:0.5;" x1="829.7988" x2="829.7988" y1="69.5" y2="75.5"/><line style="stroke:#181818;stroke-width:0.5;" x1="835.7988" x2="829.7988" y1="75.5" y2="75.5"/><text fill="#000000" font-family="sans-serif" font-size="14" lengthAdjust="spacing" textLength="67.7988" x="753" y="90.4951">examples</text></g><!--link process_description to docs_as_code--><g id="link_process_description_docs_as_code"><path d="M165.29,139 C217.035,139 285.24,139 341.1663,139 C342.0401,139 342.9109,139 343.7787,139 C344.2126,139 338.6457,139 339.078,139 " fill="transparent" id="process_description-to-docs_as_code" style="stroke:#181818;stroke-width:1;"/><polygon fill="#181818" points="345.078,139,336.078,135,340.078,139,336.078,143,345.078,139" style="stroke:#181818;stroke-width:1;"/><text fill="#000000" font-family="sans-serif" font-size="13" lengthAdjust="spacing" textLength="125.7852" x="196" y="135.0669">defines metamodel</text></g><!--link docs_as_code to module_template--><g id="link_docs_as_code_module_template"><path d="M544.6922,139 C545.9074,139 547.1286,139 548.3554,139 C550.8091,139 553.2853,139 555.7817,139 C575.7527,139 597.0109,139 618.2688,139 C639.5266,139 660.784,139 680.7535,139 C690.7382,139 700.4009,139 709.5808,139 C710.7282,139 711.8682,139 713.0002,139 C713.5663,139 714.1303,139 714.6924,139 C714.9734,139 709.254,139 709.534,139 " fill="transparent" id="docs_as_code-to-module_template" style="stroke:#181818;stroke-width:1;"/><polygon fill="#181818" points="715.534,139,706.534,135,710.534,139,706.534,143,715.534,139" style="stroke:#181818;stroke-width:1;"/><text fill="#000000" font-family="sans-serif" font-size="13" lengthAdjust="spacing" textLength="123.1699" x="568" y="135.0669">checks metamodel</text></g><!--SRC=[ROvB3i8m34JtEOKlK0xG1LU9Z3Eb4KbJnKO28UvEikf7h2pDpDDpmcHaXMgypqOXLeZ5ihZ0nZTMq5gBGDK7gDIuzf8-xhiDGX7rh5vAG6k8YAl5YSKempYtE5tUd1EnKhzxkBNF16_8Qs8xytXnow6DSF_-68RhKJzIm1GNwAPsXq4dpiwHP8OyTimF]--></g></svg>