<svg xmlns="http://www.w3.org/2000/svg" xmlns:xlink="http://www.w3.org/1999/xlink" contentStyleType="text/css" data-diagram-type="CLASS" height="322px" preserveAspectRatio="none" style="width:6202px;height:322px;background:#FFFFFF;" version="1.1" viewBox="0 0 6202 322" width="6202px" zoomAndPan="magnify"><defs/><g><!--entity Feature_User--><g id="elem_Feature_User"><ellipse cx="3046.6685" cy="14" fill="#F1F1F1" rx="8" ry="8" style="stroke:#181818;stroke-width:0.5;"/><path d="M3046.6685,22 L3046.6685,49 M3033.6685,30 L3059.6685,30 M3046.6685,49 L3033.6685,64 M3046.6685,49 L3059.6685,64 " fill="transparent" style="stroke:#181818;stroke-width:0.5;"/><text fill="#000000" font-family="sans-serif" font-size="14" lengthAdjust="spacing" textLength="90.3369" x="3001.5" y="78.4951">Feature User</text></g><!--class logic_arc_int__baselibs__condition_variable--><g id="elem_logic_arc_int__baselibs__condition_variable"><rect fill="#F1F1F1" height="40" id="logic_arc_int__baselibs__condition_variable" rx="2.5" ry="2.5" style="stroke:#181818;stroke-width:0.5;" width="332.7539" x="1342" y="158.5"/><ellipse cx="1357" cy="174.5" fill="#ADD1B2" rx="11" ry="11" style="stroke:#181818;stroke-width:1;"/><path d="M1359.9688,180.1406 Q1359.3906,180.4375 1358.75,180.5781 Q1358.1094,180.7344 1357.4063,180.7344 Q1354.9063,180.7344 1353.5781,179.0938 Q1352.2656,177.4375 1352.2656,174.3125 Q1352.2656,171.1875 1353.5781,169.5313 Q1354.9063,167.875 1357.4063,167.875 Q1358.1094,167.875 1358.75,168.0313 Q1359.4063,168.1875 1359.9688,168.4844 L1359.9688,171.2031 Q1359.3438,170.625 1358.75,170.3594 Q1358.1563,170.0781 1357.5313,170.0781 Q1356.1875,170.0781 1355.5,171.1563 Q1354.8125,172.2188 1354.8125,174.3125 Q1354.8125,176.4063 1355.5,177.4844 Q1356.1875,178.5469 1357.5313,178.5469 Q1358.1563,178.5469 1358.75,178.2813 Q1359.3438,178 1359.9688,177.4219 L1359.9688,180.1406 Z " fill="#000000"/><text fill="#000000" font-family="sans-serif" font-size="14" lengthAdjust="spacing" textLength="300.7539" x="1371" y="179.3467">logic_arc_int__baselibs__condition_variable</text><line style="stroke:#181818;stroke-width:0.5;" x1="1343" x2="1673.7539" y1="190.5" y2="190.5"/></g><!--class logic_arc_int__baselibs__utils_base64--><g id="elem_logic_arc_int__baselibs__utils_base64"><rect fill="#F1F1F1" height="40" id="logic_arc_int__baselibs__utils_base64" rx="2.5" ry="2.5" style="stroke:#181818;stroke-width:0.5;" width="292.1689" x="3902.5" y="158.5"/><ellipse cx="3917.5" cy="174.5" fill="#ADD1B2" rx="11" ry="11" style="stroke:#181818;stroke-width:1;"/><path d="M3920.4688,180.1406 Q3919.8906,180.4375 3919.25,180.5781 Q3918.6094,180.7344 3917.9063,180.7344 Q3915.4063,180.7344 3914.0781,179.0938 Q3912.7656,177.4375 3912.7656,174.3125 Q3912.7656,171.1875 3914.0781,169.5313 Q3915.4063,167.875 3917.9063,167.875 Q3918.6094,167.875 3919.25,168.0313 Q3919.9063,168.1875 3920.4688,168.4844 L3920.4688,171.2031 Q3919.8438,170.625 3919.25,170.3594 Q3918.6563,170.0781 3918.0313,170.0781 Q3916.6875,170.0781 3916,171.1563 Q3915.3125,172.2188 3915.3125,174.3125 Q3915.3125,176.4063 3916,177.4844 Q3916.6875,178.5469 3918.0313,178.5469 Q3918.6563,178.5469 3919.25,178.2813 Q3919.8438,178 3920.4688,177.4219 L3920.4688,180.1406 Z " fill="#000000"/><text fill="#000000" font-family="sans-serif" font-size="14" lengthAdjust="spacing" textLength="260.1689" x="3931.5" y="179.3467">logic_arc_int__baselibs__utils_base64</text><line style="stroke:#181818;stroke-width:0.5;" x1="3903.5" x2="4193.6689" y1="190.5" y2="190.5"/></g><!--class comp_arc_sta__baselibs__containers--><g id="elem_comp_arc_sta__baselibs__containers"><rect fill="#F1F1F1" height="40" id="comp_arc_sta__baselibs__containers" rx="2.5" ry="2.5" style="stroke:#181818;stroke-width:0.5;" width="287.1445" x="5128" y="275.5"/><ellipse cx="5143" cy="291.5" fill="#ADD1B2" rx="11" ry="11" style="stroke:#181818;stroke-width:1;"/><path d="M5145.9688,297.1406 Q5145.3906,297.4375 5144.75,297.5781 Q5144.1094,297.7344 5143.4063,297.7344 Q5140.9063,297.7344 5139.5781,296.0938 Q5138.2656,294.4375 5138.2656,291.3125 Q5138.2656,288.1875 5139.5781,286.5313 Q5140.9063,284.875 5143.4063,284.875 Q5144.1094,284.875 5144.75,285.0313 Q5145.4063,285.1875 5145.9688,285.4844 L5145.9688,288.2031 Q5145.3438,287.625 5144.75,287.3594 Q5144.1563,287.0781 5143.5313,287.0781 Q5142.1875,287.0781 5141.5,288.1563 Q5140.8125,289.2188 5140.8125,291.3125 Q5140.8125,293.4063 5141.5,294.4844 Q5142.1875,295.5469 5143.5313,295.5469 Q5144.1563,295.5469 5144.75,295.2813 Q5145.3438,295 5145.9688,294.4219 L5145.9688,297.1406 Z " fill="#000000"/><text fill="#000000" font-family="sans-serif" font-size="14" lengthAdjust="spacing" textLength="255.1445" x="5157" y="296.3467">comp_arc_sta__baselibs__containers</text><line style="stroke:#181818;stroke-width:0.5;" x1="5129" x2="5414.1445" y1="307.5" y2="307.5"/></g><!--class logic_arc_int__baselibs__intrusive_list--><g id="elem_logic_arc_int__baselibs__intrusive_list"><rect fill="#F1F1F1" height="40" id="logic_arc_int__baselibs__intrusive_list" rx="2.5" ry="2.5" style="stroke:#181818;stroke-width:0.5;" width="293.0713" x="4958" y="158.5"/><ellipse cx="4973" cy="174.5" fill="#ADD1B2" rx="11" ry="11" style="stroke:#181818;stroke-width:1;"/><path d="M4975.9688,180.1406 Q4975.3906,180.4375 4974.75,180.5781 Q4974.1094,180.7344 4973.4063,180.7344 Q4970.9063,180.7344 4969.5781,179.0938 Q4968.2656,177.4375 4968.2656,174.3125 Q4968.2656,171.1875 4969.5781,169.5313 Q4970.9063,167.875 4973.4063,167.875 Q4974.1094,167.875 4974.75,168.0313 Q4975.4063,168.1875 4975.9688,168.4844 L4975.9688,171.2031 Q4975.3438,170.625 4974.75,170.3594 Q4974.1563,170.0781 4973.5313,170.0781 Q4972.1875,170.0781 4971.5,171.1563 Q4970.8125,172.2188 4970.8125,174.3125 Q4970.8125,176.4063 4971.5,177.4844 Q4972.1875,178.5469 4973.5313,178.5469 Q4974.1563,178.5469 4974.75,178.2813 Q4975.3438,178 4975.9688,177.4219 L4975.9688,180.1406 Z " fill="#000000"/><text fill="#000000" font-family="sans-serif" font-size="14" lengthAdjust="spacing" textLength="261.0713" x="4987" y="179.3467">logic_arc_int__baselibs__intrusive_list</text><line style="stroke:#181818;stroke-width:0.5;" x1="4959" x2="5250.0713" y1="190.5" y2="190.5"/></g><!--class comp_arc_sta__baselibs__filesystem--><g id="elem_comp_arc_sta__baselibs__filesystem"><rect fill="#F1F1F1" height="40" id="comp_arc_sta__baselibs__filesystem" rx="2.5" ry="2.5" style="stroke:#181818;stroke-width:0.5;" width="285.4492" x="5910" y="275.5"/><ellipse cx="5925" cy="291.5" fill="#ADD1B2" rx="11" ry="11" style="stroke:#181818;stroke-width:1;"/><path d="M5927.9688,297.1406 Q5927.3906,297.4375 5926.75,297.5781 Q5926.1094,297.7344 5925.4063,297.7344 Q5922.9063,297.7344 5921.5781,296.0938 Q5920.2656,294.4375 5920.2656,291.3125 Q5920.2656,288.1875 5921.5781,286.5313 Q5922.9063,284.875 5925.4063,284.875 Q5926.1094,284.875 5926.75,285.0313 Q5927.4063,285.1875 5927.9688,285.4844 L5927.9688,288.2031 Q5927.3438,287.625 5926.75,287.3594 Q5926.1563,287.0781 5925.5313,287.0781 Q5924.1875,287.0781 5923.5,288.1563 Q5922.8125,289.2188 5922.8125,291.3125 Q5922.8125,293.4063 5923.5,294.4844 Q5924.1875,295.5469 5925.5313,295.5469 Q5926.1563,295.5469 5926.75,295.2813 Q5927.3438,295 5927.9688,294.4219 L5927.9688,297.1406 Z " fill="#000000"/><text fill="#000000" font-family="sans-serif" font-size="14" lengthAdjust="spacing" textLength="253.4492" x="5939" y="296.3467">comp_arc_sta__baselibs__filesystem</text><line style="stroke:#181818;stroke-width:0.5;" x1="5911" x2="6194.4492" y1="307.5" y2="307.5"/></g><!--class logic_arc_int__baselibs__filesystem--><g id="elem_logic_arc_int__baselibs__filesystem"><rect fill="#F1F1F1" height="40" id="logic_arc_int__baselibs__filesystem" rx="2.5" ry="2.5" style="stroke:#181818;stroke-width:0.5;" width="276.4805" x="5912.5" y="158.5"/><ellipse cx="5927.5" cy="174.5" fill="#ADD1B2" rx="11" ry="11" style="stroke:#181818;stroke-width:1;"/><path d="M5930.4688,180.1406 Q5929.8906,180.4375 5929.25,180.5781 Q5928.6094,180.7344 5927.9063,180.7344 Q5925.4063,180.7344 5924.0781,179.0938 Q5922.7656,177.4375 5922.7656,174.3125 Q5922.7656,171.1875 5924.0781,169.5313 Q5925.4063,167.875 5927.9063,167.875 Q5928.6094,167.875 5929.25,168.0313 Q5929.9063,168.1875 5930.4688,168.4844 L5930.4688,171.2031 Q5929.8438,170.625 5929.25,170.3594 Q5928.6563,170.0781 5928.0313,170.0781 Q5926.6875,170.0781 5926,171.1563 Q5925.3125,172.2188 5925.3125,174.3125 Q5925.3125,176.4063 5926,177.4844 Q5926.6875,178.5469 5928.0313,178.5469 Q5928.6563,178.5469 5929.25,178.2813 Q5929.8438,178 5930.4688,177.4219 L5930.4688,180.1406 Z " fill="#000000"/><text fill="#000000" font-family="sans-serif" font-size="14" lengthAdjust="spacing" textLength="244.4805" x="5941.5" y="179.3467">logic_arc_int__baselibs__filesystem</text><line style="stroke:#181818;stroke-width:0.5;" x1="5913.5" x2="6187.9805" y1="190.5" y2="190.5"/></g><!--class comp_arc_sta__baselibs__result--><g id="elem_comp_arc_sta__baselibs__result"><rect fill="#F1F1F1" height="40" id="comp_arc_sta__baselibs__result" rx="2.5" ry="2.5" style="stroke:#181818;stroke-width:0.5;" width="253.4297" x="5622" y="275.5"/><ellipse cx="5637" cy="291.5" fill="#ADD1B2" rx="11" ry="11" style="stroke:#181818;stroke-width:1;"/><path d="M5639.9688,297.1406 Q5639.3906,297.4375 5638.75,297.5781 Q5638.1094,297.7344 5637.4063,297.7344 Q5634.9063,297.7344 5633.5781,296.0938 Q5632.2656,294.4375 5632.2656,291.3125 Q5632.2656,288.1875 5633.5781,286.5313 Q5634.9063,284.875 5637.4063,284.875 Q5638.1094,284.875 5638.75,285.0313 Q5639.4063,285.1875 5639.9688,285.4844 L5639.9688,288.2031 Q5639.3438,287.625 5638.75,287.3594 Q5638.1563,287.0781 5637.5313,287.0781 Q5636.1875,287.0781 5635.5,288.1563 Q5634.8125,289.2188 5634.8125,291.3125 Q5634.8125,293.4063 5635.5,294.4844 Q5636.1875,295.5469 5637.5313,295.5469 Q5638.1563,295.5469 5638.75,295.2813 Q5639.3438,295 5639.9688,294.4219 L5639.9688,297.1406 Z " fill="#000000"/><text fill="#000000" font-family="sans-serif" font-size="14" lengthAdjust="spacing" textLength="221.4297" x="5651" y="296.3467">comp_arc_sta__baselibs__result</text><line style="stroke:#181818;stroke-width:0.5;" x1="5623" x2="5874.4297" y1="307.5" y2="307.5"/></g><!--class logic_arc_int__baselibs__result--><g id="elem_logic_arc_int__baselibs__result"><rect fill="#F1F1F1" height="40" id="logic_arc_int__baselibs__result" rx="2.5" ry="2.5" style="stroke:#181818;stroke-width:0.5;" width="244.4609" x="5629.5" y="158.5"/><ellipse cx="5644.5" cy="174.5" fill="#ADD1B2" rx="11" ry="11" style="stroke:#181818;stroke-width:1;"/><path d="M5647.4688,180.1406 Q5646.8906,180.4375 5646.25,180.5781 Q5645.6094,180.7344 5644.9063,180.7344 Q5642.4063,180.7344 5641.0781,179.0938 Q5639.7656,177.4375 5639.7656,174.3125 Q5639.7656,171.1875 5641.0781,169.5313 Q5642.4063,167.875 5644.9063,167.875 Q5645.6094,167.875 5646.25,168.0313 Q5646.9063,168.1875 5647.4688,168.4844 L5647.4688,171.2031 Q5646.8438,170.625 5646.25,170.3594 Q5645.6563,170.0781 5645.0313,170.0781 Q5643.6875,170.0781 5643,171.1563 Q5642.3125,172.2188 5642.3125,174.3125 Q5642.3125,176.4063 5643,177.4844 Q5643.6875,178.5469 5645.0313,178.5469 Q5645.6563,178.5469 5646.25,178.2813 Q5646.8438,178 5647.4688,177.4219 L5647.4688,180.1406 Z " fill="#000000"/><text fill="#000000" font-family="sans-serif" font-size="14" lengthAdjust="spacing" textLength="212.4609" x="5658.5" y="179.3467">logic_arc_int__baselibs__result</text><line style="stroke:#181818;stroke-width:0.5;" x1="5630.5" x2="5872.9609" y1="190.5" y2="190.5"/></g><!--class logic_arc_int__baselibs__message_passing--><g id="elem_logic_arc_int__baselibs__message_passing"><rect fill="#F1F1F1" height="40" id="logic_arc_int__baselibs__message_passing" rx="2.5" ry="2.5" style="stroke:#181818;stroke-width:0.5;" width="328.167" x="11.5" y="158.5"/><ellipse cx="26.5" cy="174.5" fill="#ADD1B2" rx="11" ry="11" style="stroke:#181818;stroke-width:1;"/><path d="M29.4688,180.1406 Q28.8906,180.4375 28.25,180.5781 Q27.6094,180.7344 26.9063,180.7344 Q24.4063,180.7344 23.0781,179.0938 Q21.7656,177.4375 21.7656,174.3125 Q21.7656,171.1875 23.0781,169.5313 Q24.4063,167.875 26.9063,167.875 Q27.6094,167.875 28.25,168.0313 Q28.9063,168.1875 29.4688,168.4844 L29.4688,171.2031 Q28.8438,170.625 28.25,170.3594 Q27.6563,170.0781 27.0313,170.0781 Q25.6875,170.0781 25,171.1563 Q24.3125,172.2188 24.3125,174.3125 Q24.3125,176.4063 25,177.4844 Q25.6875,178.5469 27.0313,178.5469 Q27.6563,178.5469 28.25,178.2813 Q28.8438,178 29.4688,177.4219 L29.4688,180.1406 Z " fill="#000000"/><text fill="#000000" font-family="sans-serif" font-size="14" lengthAdjust="spacing" textLength="296.167" x="40.5" y="179.3467">logic_arc_int__baselibs__message_passing</text><line style="stroke:#181818;stroke-width:0.5;" x1="12.5" x2="338.667" y1="190.5" y2="190.5"/></g><!--class comp_arc_sta__baselibs__utils--><g id="elem_comp_arc_sta__baselibs__utils"><rect fill="#F1F1F1" height="40" id="comp_arc_sta__baselibs__utils" rx="2.5" ry="2.5" style="stroke:#181818;stroke-width:0.5;" width="242.9502" x="3757" y="275.5"/><ellipse cx="3772" cy="291.5" fill="#ADD1B2" rx="11" ry="11" style="stroke:#181818;stroke-width:1;"/><path d="M3774.9688,297.1406 Q3774.3906,297.4375 3773.75,297.5781 Q3773.1094,297.7344 3772.4063,297.7344 Q3769.9063,297.7344 3768.5781,296.0938 Q3767.2656,294.4375 3767.2656,291.3125 Q3767.2656,288.1875 3768.5781,286.5313 Q3769.9063,284.875 3772.4063,284.875 Q3773.1094,284.875 3773.75,285.0313 Q3774.4063,285.1875 3774.9688,285.4844 L3774.9688,288.2031 Q3774.3438,287.625 3773.75,287.3594 Q3773.1563,287.0781 3772.5313,287.0781 Q3771.1875,287.0781 3770.5,288.1563 Q3769.8125,289.2188 3769.8125,291.3125 Q3769.8125,293.4063 3770.5,294.4844 Q3771.1875,295.5469 3772.5313,295.5469 Q3773.1563,295.5469 3773.75,295.2813 Q3774.3438,295 3774.9688,294.4219 L3774.9688,297.1406 Z " fill="#000000"/><text fill="#000000" font-family="sans-serif" font-size="14" lengthAdjust="spacing" textLength="210.9502" x="3786" y="296.3467">comp_arc_sta__baselibs__utils</text><line style="stroke:#181818;stroke-width:0.5;" x1="3758" x2="3998.9502" y1="307.5" y2="307.5"/></g><!--class comp_arc_sta__baselibs__concurrency--><g id="elem_comp_arc_sta__baselibs__concurrency"><rect fill="#F1F1F1" height="40" id="comp_arc_sta__baselibs__concurrency" rx="2.5" ry="2.5" style="stroke:#181818;stroke-width:0.5;" width="300.2012" x="1535.5" y="275.5"/><ellipse cx="1550.5" cy="291.5" fill="#ADD1B2" rx="11" ry="11" style="stroke:#181818;stroke-width:1;"/><path d="M1553.4688,297.1406 Q1552.8906,297.4375 1552.25,297.5781 Q1551.6094,297.7344 1550.9063,297.7344 Q1548.4063,297.7344 1547.0781,296.0938 Q1545.7656,294.4375 1545.7656,291.3125 Q1545.7656,288.1875 1547.0781,286.5313 Q1548.4063,284.875 1550.9063,284.875 Q1551.6094,284.875 1552.25,285.0313 Q1552.9063,285.1875 1553.4688,285.4844 L1553.4688,288.2031 Q1552.8438,287.625 1552.25,287.3594 Q1551.6563,287.0781 1551.0313,287.0781 Q1549.6875,287.0781 1549,288.1563 Q1548.3125,289.2188 1548.3125,291.3125 Q1548.3125,293.4063 1549,294.4844 Q1549.6875,295.5469 1551.0313,295.5469 Q1551.6563,295.5469 1552.25,295.2813 Q1552.8438,295 1553.4688,294.4219 L1553.4688,297.1406 Z " fill="#000000"/><text fill="#000000" font-family="sans-serif" font-size="14" lengthAdjust="spacing" textLength="268.2012" x="1564.5" y="296.3467">comp_arc_sta__baselibs__concurrency</text><line style="stroke:#181818;stroke-width:0.5;" x1="1536.5" x2="1834.7012" y1="307.5" y2="307.5"/></g><!--class logic_arc_int__baselibs__synchronized_queue--><g id="elem_logic_arc_int__baselibs__synchronized_queue"><rect fill="#F1F1F1" height="40" id="logic_arc_int__baselibs__synchronized_queue" rx="2.5" ry="2.5" style="stroke:#181818;stroke-width:0.5;" width="348.3604" x="958.5" y="158.5"/><ellipse cx="973.5" cy="174.5" fill="#ADD1B2" rx="11" ry="11" style="stroke:#181818;stroke-width:1;"/><path d="M976.4688,180.1406 Q975.8906,180.4375 975.25,180.5781 Q974.6094,180.7344 973.9063,180.7344 Q971.4063,180.7344 970.0781,179.0938 Q968.7656,177.4375 968.7656,174.3125 Q968.7656,171.1875 970.0781,169.5313 Q971.4063,167.875 973.9063,167.875 Q974.6094,167.875 975.25,168.0313 Q975.9063,168.1875 976.4688,168.4844 L976.4688,171.2031 Q975.8438,170.625 975.25,170.3594 Q974.6563,170.0781 974.0313,170.0781 Q972.6875,170.0781 972,171.1563 Q971.3125,172.2188 971.3125,174.3125 Q971.3125,176.4063 972,177.4844 Q972.6875,178.5469 974.0313,178.5469 Q974.6563,178.5469 975.25,178.2813 Q975.8438,178 976.4688,177.4219 L976.4688,180.1406 Z " fill="#000000"/><text fill="#000000" font-family="sans-serif" font-size="14" lengthAdjust="spacing" textLength="316.3604" x="987.5" y="179.3467">logic_arc_int__baselibs__synchronized_queue</text><line style="stroke:#181818;stroke-width:0.5;" x1="959.5" x2="1305.8604" y1="190.5" y2="190.5"/></g><!--class logic_arc_int__baselibs__shared_future--><g id="elem_logic_arc_int__baselibs__shared_future"><rect fill="#F1F1F1" height="40" id="logic_arc_int__baselibs__shared_future" rx="2.5" ry="2.5" style="stroke:#181818;stroke-width:0.5;" width="302.0811" x="1710.5" y="158.5"/><ellipse cx="1725.5" cy="174.5" fill="#ADD1B2" rx="11" ry="11" style="stroke:#181818;stroke-width:1;"/><path d="M1728.4688,180.1406 Q1727.8906,180.4375 1727.25,180.5781 Q1726.6094,180.7344 1725.9063,180.7344 Q1723.4063,180.7344 1722.0781,179.0938 Q1720.7656,177.4375 1720.7656,174.3125 Q1720.7656,171.1875 1722.0781,169.5313 Q1723.4063,167.875 1725.9063,167.875 Q1726.6094,167.875 1727.25,168.0313 Q1727.9063,168.1875 1728.4688,168.4844 L1728.4688,171.2031 Q1727.8438,170.625 1727.25,170.3594 Q1726.6563,170.0781 1726.0313,170.0781 Q1724.6875,170.0781 1724,171.1563 Q1723.3125,172.2188 1723.3125,174.3125 Q1723.3125,176.4063 1724,177.4844 Q1724.6875,178.5469 1726.0313,178.5469 Q1726.6563,178.5469 1727.25,178.2813 Q1727.8438,178 1728.4688,177.4219 L1728.4688,180.1406 Z " fill="#000000"/><text fill="#000000" font-family="sans-serif" font-size="14" lengthAdjust="spacing" textLength="270.0811" x="1739.5" y="179.3467">logic_arc_int__baselibs__shared_future</text><line style="stroke:#181818;stroke-width:0.5;" x1="1711.5" x2="2011.5811" y1="190.5" y2="190.5"/></g><!--class logic_arc_int__baselibs__executor--><g id="elem_logic_arc_int__baselibs__executor"><rect fill="#F1F1F1" height="40" id="logic_arc_int__baselibs__executor" rx="2.5" ry="2.5" style="stroke:#181818;stroke-width:0.5;" width="266.4385" x="657.5" y="158.5"/><ellipse cx="672.5" cy="174.5" fill="#ADD1B2" rx="11" ry="11" style="stroke:#181818;stroke-width:1;"/><path d="M675.4688,180.1406 Q674.8906,180.4375 674.25,180.5781 Q673.6094,180.7344 672.9063,180.7344 Q670.4063,180.7344 669.0781,179.0938 Q667.7656,177.4375 667.7656,174.3125 Q667.7656,171.1875 669.0781,169.5313 Q670.4063,167.875 672.9063,167.875 Q673.6094,167.875 674.25,168.0313 Q674.9063,168.1875 675.4688,168.4844 L675.4688,171.2031 Q674.8438,170.625 674.25,170.3594 Q673.6563,170.0781 673.0313,170.0781 Q671.6875,170.0781 671,171.1563 Q670.3125,172.2188 670.3125,174.3125 Q670.3125,176.4063 671,177.4844 Q671.6875,178.5469 673.0313,178.5469 Q673.6563,178.5469 674.25,178.2813 Q674.8438,178 675.4688,177.4219 L675.4688,180.1406 Z " fill="#000000"/><text fill="#000000" font-family="sans-serif" font-size="14" lengthAdjust="spacing" textLength="234.4385" x="686.5" y="179.3467">logic_arc_int__baselibs__executor</text><line style="stroke:#181818;stroke-width:0.5;" x1="658.5" x2="922.9385" y1="190.5" y2="190.5"/></g><!--class comp_arc_sta__baselibs__bit_manipulation--><g id="elem_comp_arc_sta__baselibs__bit_manipulation"><rect fill="#F1F1F1" height="40" id="comp_arc_sta__baselibs__bit_manipulation" rx="2.5" ry="2.5" style="stroke:#181818;stroke-width:0.5;" width="330.8057" x="4383" y="275.5"/><ellipse cx="4398" cy="291.5" fill="#ADD1B2" rx="11" ry="11" style="stroke:#181818;stroke-width:1;"/><path d="M4400.9688,297.1406 Q4400.3906,297.4375 4399.75,297.5781 Q4399.1094,297.7344 4398.4063,297.7344 Q4395.9063,297.7344 4394.5781,296.0938 Q4393.2656,294.4375 4393.2656,291.3125 Q4393.2656,288.1875 4394.5781,286.5313 Q4395.9063,284.875 4398.4063,284.875 Q4399.1094,284.875 4399.75,285.0313 Q4400.4063,285.1875 4400.9688,285.4844 L4400.9688,288.2031 Q4400.3438,287.625 4399.75,287.3594 Q4399.1563,287.0781 4398.5313,287.0781 Q4397.1875,287.0781 4396.5,288.1563 Q4395.8125,289.2188 4395.8125,291.3125 Q4395.8125,293.4063 4396.5,294.4844 Q4397.1875,295.5469 4398.5313,295.5469 Q4399.1563,295.5469 4399.75,295.2813 Q4400.3438,295 4400.9688,294.4219 L4400.9688,297.1406 Z " fill="#000000"/><text fill="#000000" font-family="sans-serif" font-size="14" lengthAdjust="spacing" textLength="298.8057" x="4412" y="296.3467">comp_arc_sta__baselibs__bit_manipulation</text><line style="stroke:#181818;stroke-width:0.5;" x1="4384" x2="4712.8057" y1="307.5" y2="307.5"/></g><!--class logic_arc_int__baselibs__bit_manipulation--><g id="elem_logic_arc_int__baselibs__bit_manipulation"><rect fill="#F1F1F1" height="40" id="logic_arc_int__baselibs__bit_manipulation" rx="2.5" ry="2.5" style="stroke:#181818;stroke-width:0.5;" width="321.8369" x="4600.5" y="158.5"/><ellipse cx="4615.5" cy="174.5" fill="#ADD1B2" rx="11" ry="11" style="stroke:#181818;stroke-width:1;"/><path d="M4618.4688,180.1406 Q4617.8906,180.4375 4617.25,180.5781 Q4616.6094,180.7344 4615.9063,180.7344 Q4613.4063,180.7344 4612.0781,179.0938 Q4610.7656,177.4375 4610.7656,174.3125 Q4610.7656,171.1875 4612.0781,169.5313 Q4613.4063,167.875 4615.9063,167.875 Q4616.6094,167.875 4617.25,168.0313 Q4617.9063,168.1875 4618.4688,168.4844 L4618.4688,171.2031 Q4617.8438,170.625 4617.25,170.3594 Q4616.6563,170.0781 4616.0313,170.0781 Q4614.6875,170.0781 4614,171.1563 Q4613.3125,172.2188 4613.3125,174.3125 Q4613.3125,176.4063 4614,177.4844 Q4614.6875,178.5469 4616.0313,178.5469 Q4616.6563,178.5469 4617.25,178.2813 Q4617.8438,178 4618.4688,177.4219 L4618.4688,180.1406 Z " fill="#000000"/><text fill="#000000" font-family="sans-serif" font-size="14" lengthAdjust="spacing" textLength="289.8369" x="4629.5" y="179.3467">logic_arc_int__baselibs__bit_manipulation</text><line style="stroke:#181818;stroke-width:0.5;" x1="4601.5" x2="4921.3369" y1="190.5" y2="190.5"/></g><!--class logic_arc_int__baselibs__promise--><g id="elem_logic_arc_int__baselibs__promise"><rect fill="#F1F1F1" height="40" id="logic_arc_int__baselibs__promise" rx="2.5" ry="2.5" style="stroke:#181818;stroke-width:0.5;" width="261.1885" x="2634" y="158.5"/><ellipse cx="2649" cy="174.5" fill="#ADD1B2" rx="11" ry="11" style="stroke:#181818;stroke-width:1;"/><path d="M2651.9688,180.1406 Q2651.3906,180.4375 2650.75,180.5781 Q2650.1094,180.7344 2649.4063,180.7344 Q2646.9063,180.7344 2645.5781,179.0938 Q2644.2656,177.4375 2644.2656,174.3125 Q2644.2656,171.1875 2645.5781,169.5313 Q2646.9063,167.875 2649.4063,167.875 Q2650.1094,167.875 2650.75,168.0313 Q2651.4063,168.1875 2651.9688,168.4844 L2651.9688,171.2031 Q2651.3438,170.625 2650.75,170.3594 Q2650.1563,170.0781 2649.5313,170.0781 Q2648.1875,170.0781 2647.5,171.1563 Q2646.8125,172.2188 2646.8125,174.3125 Q2646.8125,176.4063 2647.5,177.4844 Q2648.1875,178.5469 2649.5313,178.5469 Q2650.1563,178.5469 2650.75,178.2813 Q2651.3438,178 2651.9688,177.4219 L2651.9688,180.1406 Z " fill="#000000"/><text fill="#000000" font-family="sans-serif" font-size="14" lengthAdjust="spacing" textLength="229.1885" x="2663" y="179.3467">logic_arc_int__baselibs__promise</text><line style="stroke:#181818;stroke-width:0.5;" x1="2635" x2="2894.1885" y1="190.5" y2="190.5"/></g><!--class logic_arc_int__baselibs__future--><g id="elem_logic_arc_int__baselibs__future"><rect fill="#F1F1F1" height="40" id="logic_arc_int__baselibs__future" rx="2.5" ry="2.5" style="stroke:#181818;stroke-width:0.5;" width="247.0791" x="375" y="158.5"/><ellipse cx="390" cy="174.5" fill="#ADD1B2" rx="11" ry="11" style="stroke:#181818;stroke-width:1;"/><path d="M392.9688,180.1406 Q392.3906,180.4375 391.75,180.5781 Q391.1094,180.7344 390.4063,180.7344 Q387.9063,180.7344 386.5781,179.0938 Q385.2656,177.4375 385.2656,174.3125 Q385.2656,171.1875 386.5781,169.5313 Q387.9063,167.875 390.4063,167.875 Q391.1094,167.875 391.75,168.0313 Q392.4063,168.1875 392.9688,168.4844 L392.9688,171.2031 Q392.3438,170.625 391.75,170.3594 Q391.1563,170.0781 390.5313,170.0781 Q389.1875,170.0781 388.5,171.1563 Q387.8125,172.2188 387.8125,174.3125 Q387.8125,176.4063 388.5,177.4844 Q389.1875,178.5469 390.5313,178.5469 Q391.1563,178.5469 391.75,178.2813 Q392.3438,178 392.9688,177.4219 L392.9688,180.1406 Z " fill="#000000"/><text fill="#000000" font-family="sans-serif" font-size="14" lengthAdjust="spacing" textLength="215.0791" x="404" y="179.3467">logic_arc_int__baselibs__future</text><line style="stroke:#181818;stroke-width:0.5;" x1="376" x2="621.0791" y1="190.5" y2="190.5"/></g><!--class logic_arc_int__baselibs__dynamic_array--><g id="elem_logic_arc_int__baselibs__dynamic_array"><rect fill="#F1F1F1" height="40" id="logic_arc_int__baselibs__dynamic_array" rx="2.5" ry="2.5" style="stroke:#181818;stroke-width:0.5;" width="308.3496" x="5286.5" y="158.5"/><ellipse cx="5301.5" cy="174.5" fill="#ADD1B2" rx="11" ry="11" style="stroke:#181818;stroke-width:1;"/><path d="M5304.4688,180.1406 Q5303.8906,180.4375 5303.25,180.5781 Q5302.6094,180.7344 5301.9063,180.7344 Q5299.4063,180.7344 5298.0781,179.0938 Q5296.7656,177.4375 5296.7656,174.3125 Q5296.7656,171.1875 5298.0781,169.5313 Q5299.4063,167.875 5301.9063,167.875 Q5302.6094,167.875 5303.25,168.0313 Q5303.9063,168.1875 5304.4688,168.4844 L5304.4688,171.2031 Q5303.8438,170.625 5303.25,170.3594 Q5302.6563,170.0781 5302.0313,170.0781 Q5300.6875,170.0781 5300,171.1563 Q5299.3125,172.2188 5299.3125,174.3125 Q5299.3125,176.4063 5300,177.4844 Q5300.6875,178.5469 5302.0313,178.5469 Q5302.6563,178.5469 5303.25,178.2813 Q5303.8438,178 5304.4688,177.4219 L5304.4688,180.1406 Z " fill="#000000"/><text fill="#000000" font-family="sans-serif" font-size="14" lengthAdjust="spacing" textLength="276.3496" x="5315.5" y="179.3467">logic_arc_int__baselibs__dynamic_array</text><line style="stroke:#181818;stroke-width:0.5;" x1="5287.5" x2="5593.8496" y1="190.5" y2="190.5"/></g><!--class logic_arc_int__baselibs__utils_scoped_op--><g id="elem_logic_arc_int__baselibs__utils_scoped_op"><rect fill="#F1F1F1" height="40" id="logic_arc_int__baselibs__utils_scoped_op" rx="2.5" ry="2.5" style="stroke:#181818;stroke-width:0.5;" width="315.377" x="3552" y="158.5"/><ellipse cx="3567" cy="174.5" fill="#ADD1B2" rx="11" ry="11" style="stroke:#181818;stroke-width:1;"/><path d="M3569.9688,180.1406 Q3569.3906,180.4375 3568.75,180.5781 Q3568.1094,180.7344 3567.4063,180.7344 Q3564.9063,180.7344 3563.5781,179.0938 Q3562.2656,177.4375 3562.2656,174.3125 Q3562.2656,171.1875 3563.5781,169.5313 Q3564.9063,167.875 3567.4063,167.875 Q3568.1094,167.875 3568.75,168.0313 Q3569.4063,168.1875 3569.9688,168.4844 L3569.9688,171.2031 Q3569.3438,170.625 3568.75,170.3594 Q3568.1563,170.0781 3567.5313,170.0781 Q3566.1875,170.0781 3565.5,171.1563 Q3564.8125,172.2188 3564.8125,174.3125 Q3564.8125,176.4063 3565.5,177.4844 Q3566.1875,178.5469 3567.5313,178.5469 Q3568.1563,178.5469 3568.75,178.2813 Q3569.3438,178 3569.9688,177.4219 L3569.9688,180.1406 Z " fill="#000000"/><text fill="#000000" font-family="sans-serif" font-size="14" lengthAdjust="spacing" textLength="283.377" x="3581" y="179.3467">logic_arc_int__baselibs__utils_scoped_op</text><line style="stroke:#181818;stroke-width:0.5;" x1="3553" x2="3866.377" y1="190.5" y2="190.5"/></g><!--class comp_arc_sta__baselibs__memory_shared--><g id="elem_comp_arc_sta__baselibs__memory_shared"><rect fill="#F1F1F1" height="40" id="comp_arc_sta__baselibs__memory_shared" rx="2.5" ry="2.5" style="stroke:#181818;stroke-width:0.5;" width="327.0117" x="3198" y="275.5"/><ellipse cx="3213" cy="291.5" fill="#ADD1B2" rx="11" ry="11" style="stroke:#181818;stroke-width:1;"/><path d="M3215.9688,297.1406 Q3215.3906,297.4375 3214.75,297.5781 Q3214.1094,297.7344 3213.4063,297.7344 Q3210.9063,297.7344 3209.5781,296.0938 Q3208.2656,294.4375 3208.2656,291.3125 Q3208.2656,288.1875 3209.5781,286.5313 Q3210.9063,284.875 3213.4063,284.875 Q3214.1094,284.875 3214.75,285.0313 Q3215.4063,285.1875 3215.9688,285.4844 L3215.9688,288.2031 Q3215.3438,287.625 3214.75,287.3594 Q3214.1563,287.0781 3213.5313,287.0781 Q3212.1875,287.0781 3211.5,288.1563 Q3210.8125,289.2188 3210.8125,291.3125 Q3210.8125,293.4063 3211.5,294.4844 Q3212.1875,295.5469 3213.5313,295.5469 Q3214.1563,295.5469 3214.75,295.2813 Q3215.3438,295 3215.9688,294.4219 L3215.9688,297.1406 Z " fill="#000000"/><text fill="#000000" font-family="sans-serif" font-size="14" lengthAdjust="spacing" textLength="295.0117" x="3227" y="296.3467">comp_arc_sta__baselibs__memory_shared</text><line style="stroke:#181818;stroke-width:0.5;" x1="3199" x2="3524.0117" y1="307.5" y2="307.5"/></g><!--class logic_arc_int__baselibs__memory_shared--><g id="elem_logic_arc_int__baselibs__memory_shared"><rect fill="#F1F1F1" height="40" id="logic_arc_int__baselibs__memory_shared" rx="2.5" ry="2.5" style="stroke:#181818;stroke-width:0.5;" width="318.043" x="3198.5" y="158.5"/><ellipse cx="3213.5" cy="174.5" fill="#ADD1B2" rx="11" ry="11" style="stroke:#181818;stroke-width:1;"/><path d="M3216.4688,180.1406 Q3215.8906,180.4375 3215.25,180.5781 Q3214.6094,180.7344 3213.9063,180.7344 Q3211.4063,180.7344 3210.0781,179.0938 Q3208.7656,177.4375 3208.7656,174.3125 Q3208.7656,171.1875 3210.0781,169.5313 Q3211.4063,167.875 3213.9063,167.875 Q3214.6094,167.875 3215.25,168.0313 Q3215.9063,168.1875 3216.4688,168.4844 L3216.4688,171.2031 Q3215.8438,170.625 3215.25,170.3594 Q3214.6563,170.0781 3214.0313,170.0781 Q3212.6875,170.0781 3212,171.1563 Q3211.3125,172.2188 3211.3125,174.3125 Q3211.3125,176.4063 3212,177.4844 Q3212.6875,178.5469 3214.0313,178.5469 Q3214.6563,178.5469 3215.25,178.2813 Q3215.8438,178 3216.4688,177.4219 L3216.4688,180.1406 Z " fill="#000000"/><text fill="#000000" font-family="sans-serif" font-size="14" lengthAdjust="spacing" textLength="286.043" x="3227.5" y="179.3467">logic_arc_int__baselibs__memory_shared</text><line style="stroke:#181818;stroke-width:0.5;" x1="3199.5" x2="3515.543" y1="190.5" y2="190.5"/></g><!--class logic_arc_int__baselibs__task_result--><g id="elem_logic_arc_int__baselibs__task_result"><rect fill="#F1F1F1" height="40" id="logic_arc_int__baselibs__task_result" rx="2.5" ry="2.5" style="stroke:#181818;stroke-width:0.5;" width="280.9307" x="2048" y="158.5"/><ellipse cx="2063" cy="174.5" fill="#ADD1B2" rx="11" ry="11" style="stroke:#181818;stroke-width:1;"/><path d="M2065.9688,180.1406 Q2065.3906,180.4375 2064.75,180.5781 Q2064.1094,180.7344 2063.4063,180.7344 Q2060.9063,180.7344 2059.5781,179.0938 Q2058.2656,177.4375 2058.2656,174.3125 Q2058.2656,171.1875 2059.5781,169.5313 Q2060.9063,167.875 2063.4063,167.875 Q2064.1094,167.875 2064.75,168.0313 Q2065.4063,168.1875 2065.9688,168.4844 L2065.9688,171.2031 Q2065.3438,170.625 2064.75,170.3594 Q2064.1563,170.0781 2063.5313,170.0781 Q2062.1875,170.0781 2061.5,171.1563 Q2060.8125,172.2188 2060.8125,174.3125 Q2060.8125,176.4063 2061.5,177.4844 Q2062.1875,178.5469 2063.5313,178.5469 Q2064.1563,178.5469 2064.75,178.2813 Q2065.3438,178 2065.9688,177.4219 L2065.9688,180.1406 Z " fill="#000000"/><text fill="#000000" font-family="sans-serif" font-size="14" lengthAdjust="spacing" textLength="248.9307" x="2077" y="179.3467">logic_arc_int__baselibs__task_result</text><line style="stroke:#181818;stroke-width:0.5;" x1="2049" x2="2327.9307" y1="190.5" y2="190.5"/></g><!--class logic_arc_int__baselibs__bit_mask_operator--><g id="elem_logic_arc_int__baselibs__bit_mask_operator"><rect fill="#F1F1F1" height="40" id="logic_arc_int__baselibs__bit_mask_operator" rx="2.5" ry="2.5" style="stroke:#181818;stroke-width:0.5;" width="334.6406" x="4230" y="158.5"/><ellipse cx="4245" cy="174.5" fill="#ADD1B2" rx="11" ry="11" style="stroke:#181818;stroke-width:1;"/><path d="M4247.9688,180.1406 Q4247.3906,180.4375 4246.75,180.5781 Q4246.1094,180.7344 4245.4063,180.7344 Q4242.9063,180.7344 4241.5781,179.0938 Q4240.2656,177.4375 4240.2656,174.3125 Q4240.2656,171.1875 4241.5781,169.5313 Q4242.9063,167.875 4245.4063,167.875 Q4246.1094,167.875 4246.75,168.0313 Q4247.4063,168.1875 4247.9688,168.4844 L4247.9688,171.2031 Q4247.3438,170.625 4246.75,170.3594 Q4246.1563,170.0781 4245.5313,170.0781 Q4244.1875,170.0781 4243.5,171.1563 Q4242.8125,172.2188 4242.8125,174.3125 Q4242.8125,176.4063 4243.5,177.4844 Q4244.1875,178.5469 4245.5313,178.5469 Q4246.1563,178.5469 4246.75,178.2813 Q4247.3438,178 4247.9688,177.4219 L4247.9688,180.1406 Z " fill="#000000"/><text fill="#000000" font-family="sans-serif" font-size="14" lengthAdjust="spacing" textLength="302.6406" x="4259" y="179.3467">logic_arc_int__baselibs__bit_mask_operator</text><line style="stroke:#181818;stroke-width:0.5;" x1="4231" x2="4563.6406" y1="190.5" y2="190.5"/></g><!--class comp_arc_sta__baselibs__json--><g id="elem_comp_arc_sta__baselibs__json"><rect fill="#F1F1F1" height="40" id="comp_arc_sta__baselibs__json" rx="2.5" ry="2.5" style="stroke:#181818;stroke-width:0.5;" width="242.1367" x="2920.5" y="275.5"/><ellipse cx="2935.5" cy="291.5" fill="#ADD1B2" rx="11" ry="11" style="stroke:#181818;stroke-width:1;"/><path d="M2938.4688,297.1406 Q2937.8906,297.4375 2937.25,297.5781 Q2936.6094,297.7344 2935.9063,297.7344 Q2933.4063,297.7344 2932.0781,296.0938 Q2930.7656,294.4375 2930.7656,291.3125 Q2930.7656,288.1875 2932.0781,286.5313 Q2933.4063,284.875 2935.9063,284.875 Q2936.6094,284.875 2937.25,285.0313 Q2937.9063,285.1875 2938.4688,285.4844 L2938.4688,288.2031 Q2937.8438,287.625 2937.25,287.3594 Q2936.6563,287.0781 2936.0313,287.0781 Q2934.6875,287.0781 2934,288.1563 Q2933.3125,289.2188 2933.3125,291.3125 Q2933.3125,293.4063 2934,294.4844 Q2934.6875,295.5469 2936.0313,295.5469 Q2936.6563,295.5469 2937.25,295.2813 Q2937.8438,295 2938.4688,294.4219 L2938.4688,297.1406 Z " fill="#000000"/><text fill="#000000" font-family="sans-serif" font-size="14" lengthAdjust="spacing" textLength="210.1367" x="2949.5" y="296.3467">comp_arc_sta__baselibs__json</text><line style="stroke:#181818;stroke-width:0.5;" x1="2921.5" x2="3161.6367" y1="307.5" y2="307.5"/></g><!--class logic_arc_int__baselibs__json--><g id="elem_logic_arc_int__baselibs__json"><rect fill="#F1F1F1" height="40" id="logic_arc_int__baselibs__json" rx="2.5" ry="2.5" style="stroke:#181818;stroke-width:0.5;" width="233.168" x="2930" y="158.5"/><ellipse cx="2945" cy="174.5" fill="#ADD1B2" rx="11" ry="11" style="stroke:#181818;stroke-width:1;"/><path d="M2947.9688,180.1406 Q2947.3906,180.4375 2946.75,180.5781 Q2946.1094,180.7344 2945.4063,180.7344 Q2942.9063,180.7344 2941.5781,179.0938 Q2940.2656,177.4375 2940.2656,174.3125 Q2940.2656,171.1875 2941.5781,169.5313 Q2942.9063,167.875 2945.4063,167.875 Q2946.1094,167.875 2946.75,168.0313 Q2947.4063,168.1875 2947.9688,168.4844 L2947.9688,171.2031 Q2947.3438,170.625 2946.75,170.3594 Q2946.1563,170.0781 2945.5313,170.0781 Q2944.1875,170.0781 2943.5,171.1563 Q2942.8125,172.2188 2942.8125,174.3125 Q2942.8125,176.4063 2943.5,177.4844 Q2944.1875,178.5469 2945.5313,178.5469 Q2946.1563,178.5469 2946.75,178.2813 Q2947.3438,178 2947.9688,177.4219 L2947.9688,180.1406 Z " fill="#000000"/><text fill="#000000" font-family="sans-serif" font-size="14" lengthAdjust="spacing" textLength="201.168" x="2959" y="179.3467">logic_arc_int__baselibs__json</text><line style="stroke:#181818;stroke-width:0.5;" x1="2931" x2="3162.168" y1="190.5" y2="190.5"/></g><!--class logic_arc_int__baselibs__task--><g id="elem_logic_arc_int__baselibs__task"><rect fill="#F1F1F1" height="40" id="logic_arc_int__baselibs__task" rx="2.5" ry="2.5" style="stroke:#181818;stroke-width:0.5;" width="234.0156" x="2364.5" y="158.5"/><ellipse cx="2379.5" cy="174.5" fill="#ADD1B2" rx="11" ry="11" style="stroke:#181818;stroke-width:1;"/><path d="M2382.4688,180.1406 Q2381.8906,180.4375 2381.25,180.5781 Q2380.6094,180.7344 2379.9063,180.7344 Q2377.4063,180.7344 2376.0781,179.0938 Q2374.7656,177.4375 2374.7656,174.3125 Q2374.7656,171.1875 2376.0781,169.5313 Q2377.4063,167.875 2379.9063,167.875 Q2380.6094,167.875 2381.25,168.0313 Q2381.9063,168.1875 2382.4688,168.4844 L2382.4688,171.2031 Q2381.8438,170.625 2381.25,170.3594 Q2380.6563,170.0781 2380.0313,170.0781 Q2378.6875,170.0781 2378,171.1563 Q2377.3125,172.2188 2377.3125,174.3125 Q2377.3125,176.4063 2378,177.4844 Q2378.6875,178.5469 2380.0313,178.5469 Q2380.6563,178.5469 2381.25,178.2813 Q2381.8438,178 2382.4688,177.4219 L2382.4688,180.1406 Z " fill="#000000"/><text fill="#000000" font-family="sans-serif" font-size="14" lengthAdjust="spacing" textLength="202.0156" x="2393.5" y="179.3467">logic_arc_int__baselibs__task</text><line style="stroke:#181818;stroke-width:0.5;" x1="2365.5" x2="2597.5156" y1="190.5" y2="190.5"/></g><!--class comp_arc_sta__baselibs__message_passing--><g id="elem_comp_arc_sta__baselibs__message_passing"><rect fill="#F1F1F1" height="40" id="comp_arc_sta__baselibs__message_passing" rx="2.5" ry="2.5" style="stroke:#181818;stroke-width:0.5;" width="337.1357" x="7" y="275.5"/><ellipse cx="22" cy="291.5" fill="#ADD1B2" rx="11" ry="11" style="stroke:#181818;stroke-width:1;"/><path d="M24.9688,297.1406 Q24.3906,297.4375 23.75,297.5781 Q23.1094,297.7344 22.4063,297.7344 Q19.9063,297.7344 18.5781,296.0938 Q17.2656,294.4375 17.2656,291.3125 Q17.2656,288.1875 18.5781,286.5313 Q19.9063,284.875 22.4063,284.875 Q23.1094,284.875 23.75,285.0313 Q24.4063,285.1875 24.9688,285.4844 L24.9688,288.2031 Q24.3438,287.625 23.75,287.3594 Q23.1563,287.0781 22.5313,287.0781 Q21.1875,287.0781 20.5,288.1563 Q19.8125,289.2188 19.8125,291.3125 Q19.8125,293.4063 20.5,294.4844 Q21.1875,295.5469 22.5313,295.5469 Q23.1563,295.5469 23.75,295.2813 Q24.3438,295 24.9688,294.4219 L24.9688,297.1406 Z " fill="#000000"/><text fill="#000000" font-family="sans-serif" font-size="14" lengthAdjust="spacing" textLength="305.1357" x="36" y="296.3467">comp_arc_sta__baselibs__message_passing</text><line style="stroke:#181818;stroke-width:0.5;" x1="8" x2="343.1357" y1="307.5" y2="307.5"/></g><!--link Feature_User to logic_arc_int__baselibs__condition_variable--><g id="link_Feature_User_logic_arc_int__baselibs__condition_variable"><path codeLine="15" d="M3001.47,47.98 C2830.65,61.25 2206.28,110.35 1692.5,158.5 C1686.9,159.02 1687.1826,158.9977 1681.4426,159.5477 " fill="transparent" id="Feature_User-to-logic_arc_int__baselibs__condition_variable" style="stroke:#181818;stroke-width:1;"/><polygon fill="#181818" points="1675.47,160.12,1684.8105,163.2433,1680.4472,159.6431,1684.0474,155.2798,1675.47,160.12" style="stroke:#181818;stroke-width:1;"/><text fill="#000000" font-family="sans-serif" font-size="13" lengthAdjust="spacing" textLength="23.0103" x="2214.5" y="124.5669">use</text></g><!--link Feature_User to logic_arc_int__baselibs__utils_base64--><g id="link_Feature_User_logic_arc_int__baselibs__utils_base64"><path codeLine="16" d="M3091.5,50.47 C3233.25,69.29 3668.8122,127.1005 3899.2622,157.6905 " fill="transparent" id="Feature_User-to-logic_arc_int__baselibs__utils_base64" style="stroke:#181818;stroke-width:1;"/><polygon fill="#181818" points="3905.21,158.48,3896.8146,153.3305,3900.2535,157.8221,3895.7619,161.2609,3905.21,158.48" style="stroke:#181818;stroke-width:1;"/><text fill="#000000" font-family="sans-serif" font-size="13" lengthAdjust="spacing" textLength="23.0103" x="3668.5" y="124.5669">use</text></g><!--reverse link logic_arc_int__baselibs__intrusive_list to comp_arc_sta__baselibs__containers--><g id="link_logic_arc_int__baselibs__intrusive_list_comp_arc_sta__baselibs__containers"><path codeLine="17" d="M5137.3918,202.1527 C5168.3118,223.4427 5212.89,254.14 5243.74,275.38 " fill="transparent" id="logic_arc_int__baselibs__intrusive_list-backto-comp_arc_sta__baselibs__containers" style="stroke:#181818;stroke-width:1;"/><polygon fill="#181818" points="5132.45,198.75,5137.5943,207.1486,5136.5682,201.5856,5142.1312,200.5595,5132.45,198.75" style="stroke:#181818;stroke-width:1;"/><text fill="#000000" font-family="sans-serif" font-size="13" lengthAdjust="spacing" textLength="76.9082" x="5199.5" y="241.5669">implements</text></g><!--reverse link logic_arc_int__baselibs__filesystem to comp_arc_sta__baselibs__filesystem--><g id="link_logic_arc_int__baselibs__filesystem_comp_arc_sta__baselibs__filesystem"><path codeLine="18" d="M6050.9346,204.7491 C6051.3046,225.9791 6051.79,253.94 6052.16,275.19 " fill="transparent" id="logic_arc_int__baselibs__filesystem-backto-comp_arc_sta__baselibs__filesystem" style="stroke:#181818;stroke-width:1;"/><polygon fill="#181818" points="6050.83,198.75,6046.9874,207.8183,6050.9171,203.7492,6054.9862,207.6789,6050.83,198.75" style="stroke:#181818;stroke-width:1;"/><text fill="#000000" font-family="sans-serif" font-size="13" lengthAdjust="spacing" textLength="76.9082" x="6052.5" y="241.5669">implements</text></g><!--link Feature_User to logic_arc_int__baselibs__intrusive_list--><g id="link_Feature_User_logic_arc_int__baselibs__intrusive_list"><path codeLine="19" d="M3091.64,46.2 C3301.54,54.3 4202.99,91.48 4939.5,158.5 C4945.53,159.05 4945.7087,159.0535 4951.9187,159.6635 " fill="transparent" id="Feature_User-to-logic_arc_int__baselibs__intrusive_list" style="stroke:#181818;stroke-width:1;"/><polygon fill="#181818" points="4957.89,160.25,4949.3241,155.3893,4952.9139,159.7612,4948.5421,163.351,4957.89,160.25" style="stroke:#181818;stroke-width:1;"/><text fill="#000000" font-family="sans-serif" font-size="13" lengthAdjust="spacing" textLength="23.0103" x="4526.5" y="124.5669">use</text></g><!--reverse link logic_arc_int__baselibs__result to comp_arc_sta__baselibs__result--><g id="link_logic_arc_int__baselibs__result_comp_arc_sta__baselibs__result"><path codeLine="20" d="M5750.8418,204.7479 C5750.2818,225.9779 5749.56,253.94 5749,275.19 " fill="transparent" id="logic_arc_int__baselibs__result-backto-comp_arc_sta__baselibs__result" style="stroke:#181818;stroke-width:1;"/><polygon fill="#181818" points="5751,198.75,5746.7641,207.6414,5750.8682,203.7483,5754.7613,207.8523,5751,198.75" style="stroke:#181818;stroke-width:1;"/><text fill="#000000" font-family="sans-serif" font-size="13" lengthAdjust="spacing" textLength="76.9082" x="5751.5" y="241.5669">implements</text></g><!--link Feature_User to logic_arc_int__baselibs__message_passing--><g id="link_Feature_User_logic_arc_int__baselibs__message_passing"><path codeLine="21" d="M3001.42,45.2 C2779.5,48.79 1781.05,66.77 964.5,111.5 C694.32,126.3 626.97,134.01 357.5,158.5 C351.65,159.03 351.6633,159.0244 345.6433,159.5944 " fill="transparent" id="Feature_User-to-logic_arc_int__baselibs__message_passing" style="stroke:#181818;stroke-width:1;"/><polygon fill="#181818" points="339.67,160.16,349.007,163.2938,344.6477,159.6887,348.2529,155.3294,339.67,160.16" style="stroke:#181818;stroke-width:1;"/><text fill="#000000" font-family="sans-serif" font-size="13" lengthAdjust="spacing" textLength="23.0103" x="965.5" y="124.5669">use</text></g><!--reverse link logic_arc_int__baselibs__utils_base64 to comp_arc_sta__baselibs__utils--><g id="link_logic_arc_int__baselibs__utils_base64_comp_arc_sta__baselibs__utils"><path codeLine="22" d="M4015.0799,202.1113 C3983.5999,223.4013 3938.16,254.14 3906.76,275.38 " fill="transparent" id="logic_arc_int__baselibs__utils_base64-backto-comp_arc_sta__baselibs__utils" style="stroke:#181818;stroke-width:1;"/><polygon fill="#181818" points="4020.05,198.75,4010.354,200.4785,4015.9083,201.5511,4014.8357,207.1053,4020.05,198.75" style="stroke:#181818;stroke-width:1;"/><text fill="#000000" font-family="sans-serif" font-size="13" lengthAdjust="spacing" textLength="76.9082" x="3975.5" y="241.5669">implements</text></g><!--reverse link logic_arc_int__baselibs__synchronized_queue to comp_arc_sta__baselibs__concurrency--><g id="link_logic_arc_int__baselibs__synchronized_queue_comp_arc_sta__baselibs__concurrency"><path codeLine="23" d="M1230.0043,199.7718 C1332.3643,221.0618 1491.26,254.11 1593.7,275.41 " fill="transparent" id="logic_arc_int__baselibs__synchronized_queue-backto-comp_arc_sta__baselibs__concurrency" style="stroke:#181818;stroke-width:1;"/><polygon fill="#181818" points="1224.13,198.55,1232.1269,204.2989,1229.0252,199.5682,1233.756,196.4665,1224.13,198.55" style="stroke:#181818;stroke-width:1;"/><text fill="#000000" font-family="sans-serif" font-size="13" lengthAdjust="spacing" textLength="76.9082" x="1443.5" y="241.5669">implements</text></g><!--link Feature_User to logic_arc_int__baselibs__shared_future--><g id="link_Feature_User_logic_arc_int__baselibs__shared_future"><path codeLine="24" d="M3001.43,49.55 C2859,65.52 2405.76,116.35 2030.5,158.5 C2024.63,159.16 2024.6123,159.1587 2018.5723,159.8387 " fill="transparent" id="Feature_User-to-logic_arc_int__baselibs__shared_future" style="stroke:#181818;stroke-width:1;"/><polygon fill="#181818" points="2012.61,160.51,2022.001,163.478,2017.5786,159.9506,2021.106,155.5282,2012.61,160.51" style="stroke:#181818;stroke-width:1;"/><text fill="#000000" font-family="sans-serif" font-size="13" lengthAdjust="spacing" textLength="23.0103" x="2450.5" y="124.5669">use</text></g><!--reverse link logic_arc_int__baselibs__executor to comp_arc_sta__baselibs__concurrency--><g id="link_logic_arc_int__baselibs__executor_comp_arc_sta__baselibs__concurrency"><path codeLine="25" d="M929.5773,198.1536 C1030.2973,211.5936 1166.09,229.57 1290.5,245.5 C1371.38,255.85 1461.62,267.07 1535.41,276.16 " fill="transparent" id="logic_arc_int__baselibs__executor-backto-comp_arc_sta__baselibs__concurrency" style="stroke:#181818;stroke-width:1;"/><polygon fill="#181818" points="923.63,197.36,932.0219,202.5153,928.5861,198.0213,933.08,194.5855,923.63,197.36" style="stroke:#181818;stroke-width:1;"/><text fill="#000000" font-family="sans-serif" font-size="13" lengthAdjust="spacing" textLength="76.9082" x="1291.5" y="241.5669">implements</text></g><!--link Feature_User to logic_arc_int__baselibs__filesystem--><g id="link_Feature_User_logic_arc_int__baselibs__filesystem"><path codeLine="26" d="M3091.7,45.08 C3323.14,48.19 4398.64,64.64 5277.5,111.5 C5550.36,126.05 5618.55,131.94 5890.5,158.5 C5897.6,159.19 5898.9027,159.314 5906.2427,160.084 " fill="transparent" id="Feature_User-to-logic_arc_int__baselibs__filesystem" style="stroke:#181818;stroke-width:1;"/><polygon fill="#181818" points="5912.21,160.71,5903.6764,155.7928,5907.2373,160.1883,5902.8418,163.7492,5912.21,160.71" style="stroke:#181818;stroke-width:1;"/><text fill="#000000" font-family="sans-serif" font-size="13" lengthAdjust="spacing" textLength="23.0103" x="5555.5" y="124.5669">use</text></g><!--link Feature_User to logic_arc_int__baselibs__synchronized_queue--><g id="link_Feature_User_logic_arc_int__baselibs__synchronized_queue"><path codeLine="27" d="M3001.22,46.89 C2802.8,57.49 1990.26,102.22 1324.5,158.5 C1318.66,158.99 1318.6967,158.9821 1312.6967,159.5121 " fill="transparent" id="Feature_User-to-logic_arc_int__baselibs__synchronized_queue" style="stroke:#181818;stroke-width:1;"/><polygon fill="#181818" points="1306.72,160.04,1316.0371,163.2326,1311.7006,159.6,1315.3331,155.2636,1306.72,160.04" style="stroke:#181818;stroke-width:1;"/><text fill="#000000" font-family="sans-serif" font-size="13" lengthAdjust="spacing" textLength="23.0103" x="1941.5" y="124.5669">use</text></g><!--reverse link logic_arc_int__baselibs__bit_manipulation to comp_arc_sta__baselibs__bit_manipulation--><g id="link_logic_arc_int__baselibs__bit_manipulation_comp_arc_sta__baselibs__bit_manipulation"><path codeLine="28" d="M4720.5701,201.6001 C4681.1301,222.8901 4623.25,254.14 4583.91,275.38 " fill="transparent" id="logic_arc_int__baselibs__bit_manipulation-backto-comp_arc_sta__baselibs__bit_manipulation" style="stroke:#181818;stroke-width:1;"/><polygon fill="#181818" points="4725.85,198.75,4716.0301,199.5053,4721.4501,201.1251,4719.8303,206.5451,4725.85,198.75" style="stroke:#181818;stroke-width:1;"/><text fill="#000000" font-family="sans-serif" font-size="13" lengthAdjust="spacing" textLength="76.9082" x="4669.5" y="241.5669">implements</text></g><!--reverse link logic_arc_int__baselibs__promise to comp_arc_sta__baselibs__concurrency--><g id="link_logic_arc_int__baselibs__promise_comp_arc_sta__baselibs__concurrency"><path codeLine="29" d="M2627.7277,196.9449 C2621.5777,197.7249 2621.45,197.74 2615.5,198.5 C2451.06,219.43 2410.32,227.83 2245.5,245.5 C2106.86,260.37 1948.54,273.9 1835.69,282.96 " fill="transparent" id="logic_arc_int__baselibs__promise-backto-comp_arc_sta__baselibs__concurrency" style="stroke:#181818;stroke-width:1;"/><polygon fill="#181818" points="2633.68,196.19,2624.2482,193.3542,2628.7197,196.8191,2625.2548,201.2906,2633.68,196.19" style="stroke:#181818;stroke-width:1;"/><text fill="#000000" font-family="sans-serif" font-size="13" lengthAdjust="spacing" textLength="76.9082" x="2388.5" y="241.5669">implements</text></g><!--link Feature_User to logic_arc_int__baselibs__future--><g id="link_Feature_User_logic_arc_int__baselibs__future"><path codeLine="30" d="M3001.21,45.73 C2801.85,51.23 1982.48,75.01 1310.5,111.5 C1011.99,127.71 936.9,128.08 639.5,158.5 C633.85,159.08 634.0319,159.0351 628.2019,159.6951 " fill="transparent" id="Feature_User-to-logic_arc_int__baselibs__future" style="stroke:#181818;stroke-width:1;"/><polygon fill="#181818" points="622.24,160.37,631.6328,163.3322,627.2083,159.8076,630.7329,155.383,622.24,160.37" style="stroke:#181818;stroke-width:1;"/><text fill="#000000" font-family="sans-serif" font-size="13" lengthAdjust="spacing" textLength="23.0103" x="1311.5" y="124.5669">use</text></g><!--reverse link logic_arc_int__baselibs__dynamic_array to comp_arc_sta__baselibs__containers--><g id="link_logic_arc_int__baselibs__dynamic_array_comp_arc_sta__baselibs__containers"><path codeLine="31" d="M5407.2494,202.1252 C5375.9594,223.4152 5330.81,254.14 5299.6,275.38 " fill="transparent" id="logic_arc_int__baselibs__dynamic_array-backto-comp_arc_sta__baselibs__containers" style="stroke:#181818;stroke-width:1;"/><polygon fill="#181818" points="5412.21,198.75,5402.5189,200.5058,5408.0762,201.5627,5407.0192,207.1199,5412.21,198.75" style="stroke:#181818;stroke-width:1;"/><text fill="#000000" font-family="sans-serif" font-size="13" lengthAdjust="spacing" textLength="76.9082" x="5367.5" y="241.5669">implements</text></g><!--link Feature_User to logic_arc_int__baselibs__utils_scoped_op--><g id="link_Feature_User_logic_arc_int__baselibs__utils_scoped_op"><path codeLine="32" d="M3091.55,53.54 C3198.51,74.99 3463.7573,128.1996 3608.7373,157.2896 " fill="transparent" id="Feature_User-to-logic_arc_int__baselibs__utils_scoped_op" style="stroke:#181818;stroke-width:1;"/><polygon fill="#181818" points="3614.62,158.47,3606.5828,152.7776,3609.7177,157.4864,3605.009,160.6213,3614.62,158.47" style="stroke:#181818;stroke-width:1;"/><text fill="#000000" font-family="sans-serif" font-size="13" lengthAdjust="spacing" textLength="23.0103" x="3458.5" y="124.5669">use</text></g><!--reverse link logic_arc_int__baselibs__memory_shared to comp_arc_sta__baselibs__memory_shared--><g id="link_logic_arc_int__baselibs__memory_shared_comp_arc_sta__baselibs__memory_shared"><path codeLine="33" d="M3358.379,204.7464 C3359.119,225.9764 3360.09,253.94 3360.83,275.19 " fill="transparent" id="logic_arc_int__baselibs__memory_shared-backto-comp_arc_sta__baselibs__memory_shared" style="stroke:#181818;stroke-width:1;"/><polygon fill="#181818" points="3358.17,198.75,3354.4859,207.8839,3358.3442,203.747,3362.4811,207.6052,3358.17,198.75" style="stroke:#181818;stroke-width:1;"/><text fill="#000000" font-family="sans-serif" font-size="13" lengthAdjust="spacing" textLength="76.9082" x="3361.5" y="241.5669">implements</text></g><!--link Feature_User to logic_arc_int__baselibs__task_result--><g id="link_Feature_User_logic_arc_int__baselibs__task_result"><path codeLine="34" d="M3001.28,51.51 C2873.22,71.36 2510.8192,127.541 2317.0092,157.581 " fill="transparent" id="Feature_User-to-logic_arc_int__baselibs__task_result" style="stroke:#181818;stroke-width:1;"/><polygon fill="#181818" points="2311.08,158.5,2320.5865,161.0743,2316.021,157.7342,2319.3611,153.1687,2311.08,158.5" style="stroke:#181818;stroke-width:1;"/><text fill="#000000" font-family="sans-serif" font-size="13" lengthAdjust="spacing" textLength="23.0103" x="2593.5" y="124.5669">use</text></g><!--reverse link logic_arc_int__baselibs__bit_mask_operator to comp_arc_sta__baselibs__bit_manipulation--><g id="link_logic_arc_int__baselibs__bit_mask_operator_comp_arc_sta__baselibs__bit_manipulation"><path codeLine="35" d="M4427.5436,202.3849 C4455.5036,223.6749 4495.51,254.14 4523.4,275.38 " fill="transparent" id="logic_arc_int__baselibs__bit_mask_operator-backto-comp_arc_sta__baselibs__bit_manipulation" style="stroke:#181818;stroke-width:1;"/><polygon fill="#181818" points="4422.77,198.75,4427.5072,207.3847,4426.748,201.7791,4432.3537,201.0199,4422.77,198.75" style="stroke:#181818;stroke-width:1;"/><text fill="#000000" font-family="sans-serif" font-size="13" lengthAdjust="spacing" textLength="76.9082" x="4483.5" y="241.5669">implements</text></g><!--link Feature_User to logic_arc_int__baselibs__promise--><g id="link_Feature_User_logic_arc_int__baselibs__promise"><path codeLine="36" d="M3001.19,65.87 C2947.01,91.42 2862.5669,131.2509 2810.5469,155.7809 " fill="transparent" id="Feature_User-to-logic_arc_int__baselibs__promise" style="stroke:#181818;stroke-width:1;"/><polygon fill="#181818" points="2805.12,158.34,2814.9664,158.1194,2809.6424,156.2075,2811.5543,150.8835,2805.12,158.34" style="stroke:#181818;stroke-width:1;"/><text fill="#000000" font-family="sans-serif" font-size="13" lengthAdjust="spacing" textLength="23.0103" x="2898.5" y="124.5669">use</text></g><!--reverse link logic_arc_int__baselibs__json to comp_arc_sta__baselibs__json--><g id="link_logic_arc_int__baselibs__json_comp_arc_sta__baselibs__json"><path codeLine="37" d="M3045.4002,204.7444 C3044.4802,225.9744 3043.26,253.94 3042.34,275.19 " fill="transparent" id="logic_arc_int__baselibs__json-backto-comp_arc_sta__baselibs__json" style="stroke:#181818;stroke-width:1;"/><polygon fill="#181818" points="3045.66,198.75,3041.2741,207.5684,3045.4435,203.7453,3049.2666,207.9147,3045.66,198.75" style="stroke:#181818;stroke-width:1;"/><text fill="#000000" font-family="sans-serif" font-size="13" lengthAdjust="spacing" textLength="76.9082" x="3045.5" y="241.5669">implements</text></g><!--reverse link logic_arc_int__baselibs__future to comp_arc_sta__baselibs__concurrency--><g id="link_logic_arc_int__baselibs__future_comp_arc_sta__baselibs__concurrency"><path codeLine="38" d="M628.2234,197.1267 C634.0434,197.8567 633.86,197.82 639.5,198.5 C835.63,222.14 884.81,227.07 1081.5,245.5 C1236,259.98 1412.98,274.04 1535.24,283.36 " fill="transparent" id="logic_arc_int__baselibs__future-backto-comp_arc_sta__baselibs__concurrency" style="stroke:#181818;stroke-width:1;"/><polygon fill="#181818" points="622.27,196.38,630.7022,201.469,627.2311,197.0023,631.6978,193.5312,622.27,196.38" style="stroke:#181818;stroke-width:1;"/><text fill="#000000" font-family="sans-serif" font-size="13" lengthAdjust="spacing" textLength="76.9082" x="1082.5" y="241.5669">implements</text></g><!--link Feature_User to logic_arc_int__baselibs__dynamic_array--><g id="link_Feature_User_logic_arc_int__baselibs__dynamic_array"><path codeLine="39" d="M3091.67,46.14 C3274.73,52.87 3979.35,79.5 4558.5,111.5 C4874.26,128.95 4953.48,130.69 5268.5,158.5 C5274.34,159.02 5274.3069,158.9926 5280.3069,159.5626 " fill="transparent" id="Feature_User-to-logic_arc_int__baselibs__dynamic_array" style="stroke:#181818;stroke-width:1;"/><polygon fill="#181818" points="5286.28,160.13,5277.6986,155.2968,5281.3024,159.6571,5276.942,163.2609,5286.28,160.13" style="stroke:#181818;stroke-width:1;"/><text fill="#000000" font-family="sans-serif" font-size="13" lengthAdjust="spacing" textLength="23.0103" x="4867.5" y="124.5669">use</text></g><!--link Feature_User to logic_arc_int__baselibs__memory_shared--><g id="link_Feature_User_logic_arc_int__baselibs__memory_shared"><path codeLine="40" d="M3091.72,63.84 C3150.94,89.16 3248.5931,130.9312 3307.4631,156.1012 " fill="transparent" id="Feature_User-to-logic_arc_int__baselibs__memory_shared" style="stroke:#181818;stroke-width:1;"/><polygon fill="#181818" points="3312.98,158.46,3306.2772,151.2439,3308.3826,156.4944,3303.1321,158.5998,3312.98,158.46" style="stroke:#181818;stroke-width:1;"/><text fill="#000000" font-family="sans-serif" font-size="13" lengthAdjust="spacing" textLength="23.0103" x="3240.5" y="124.5669">use</text></g><!--link Feature_User to logic_arc_int__baselibs__json--><g id="link_Feature_User_logic_arc_int__baselibs__json"><path codeLine="41" d="M3046.5,81.55 C3046.5,106.45 3046.5,132.26 3046.5,152.26 " fill="transparent" id="Feature_User-to-logic_arc_int__baselibs__json" style="stroke:#181818;stroke-width:1;"/><polygon fill="#181818" points="3046.5,158.26,3050.5,149.26,3046.5,153.26,3042.5,149.26,3046.5,158.26" style="stroke:#181818;stroke-width:1;"/><text fill="#000000" font-family="sans-serif" font-size="13" lengthAdjust="spacing" textLength="23.0103" x="3047.5" y="124.5669">use</text></g><!--reverse link logic_arc_int__baselibs__task to comp_arc_sta__baselibs__concurrency--><g id="link_logic_arc_int__baselibs__task_comp_arc_sta__baselibs__concurrency"><path codeLine="42" d="M2358.5035,199.1562 C2272.5335,212.7362 2158.8,230.37 2053.5,245.5 C1981.25,255.88 1900.9,266.67 1833.77,275.47 " fill="transparent" id="logic_arc_int__baselibs__task-backto-comp_arc_sta__baselibs__concurrency" style="stroke:#181818;stroke-width:1;"/><polygon fill="#181818" points="2364.43,198.22,2354.9161,195.6732,2359.4912,199.0001,2356.1643,203.5753,2364.43,198.22" style="stroke:#181818;stroke-width:1;"/><text fill="#000000" font-family="sans-serif" font-size="13" lengthAdjust="spacing" textLength="76.9082" x="2160.5" y="241.5669">implements</text></g><!--reverse link logic_arc_int__baselibs__utils_scoped_op to comp_arc_sta__baselibs__utils--><g id="link_logic_arc_int__baselibs__utils_scoped_op_comp_arc_sta__baselibs__utils"><path codeLine="43" d="M3742.7506,202.1252 C3774.0406,223.4152 3819.19,254.14 3850.4,275.38 " fill="transparent" id="logic_arc_int__baselibs__utils_scoped_op-backto-comp_arc_sta__baselibs__utils" style="stroke:#181818;stroke-width:1;"/><polygon fill="#181818" points="3737.79,198.75,3742.9808,207.1199,3741.9238,201.5627,3747.4811,200.5058,3737.79,198.75" style="stroke:#181818;stroke-width:1;"/><text fill="#000000" font-family="sans-serif" font-size="13" lengthAdjust="spacing" textLength="76.9082" x="3805.5" y="241.5669">implements</text></g><!--reverse link logic_arc_int__baselibs__shared_future to comp_arc_sta__baselibs__concurrency--><g id="link_logic_arc_int__baselibs__shared_future_comp_arc_sta__baselibs__concurrency"><path codeLine="44" d="M1827.0173,202.0322 C1794.4373,223.3222 1747.27,254.14 1714.76,275.38 " fill="transparent" id="logic_arc_int__baselibs__shared_future-backto-comp_arc_sta__baselibs__concurrency" style="stroke:#181818;stroke-width:1;"/><polygon fill="#181818" points="1832.04,198.75,1822.3179,200.3248,1827.8544,201.4851,1826.6941,207.0217,1832.04,198.75" style="stroke:#181818;stroke-width:1;"/><text fill="#000000" font-family="sans-serif" font-size="13" lengthAdjust="spacing" textLength="76.9082" x="1785.5" y="241.5669">implements</text></g><!--link Feature_User to logic_arc_int__baselibs__executor--><g id="link_Feature_User_logic_arc_int__baselibs__executor"><path codeLine="45" d="M3001.2,45.64 C2777.17,51.53 1765.34,81.36 940.5,158.5 C935.01,159.01 935.3776,158.9468 929.7276,159.5368 " fill="transparent" id="Feature_User-to-logic_arc_int__baselibs__executor" style="stroke:#181818;stroke-width:1;"/><polygon fill="#181818" points="923.76,160.16,933.1268,163.2036,928.733,159.6407,932.2959,155.2469,923.76,160.16" style="stroke:#181818;stroke-width:1;"/><text fill="#000000" font-family="sans-serif" font-size="13" lengthAdjust="spacing" textLength="23.0103" x="1519.5" y="124.5669">use</text></g><!--link Feature_User to logic_arc_int__baselibs__result--><g id="link_Feature_User_logic_arc_int__baselibs__result"><path codeLine="46" d="M3091.67,45.64 C3298.8,50.96 4178.55,74.68 4899.5,111.5 C5216.22,127.68 5295.96,126.71 5611.5,158.5 C5617.36,159.09 5617.3877,159.0687 5623.4277,159.7487 " fill="transparent" id="Feature_User-to-logic_arc_int__baselibs__result" style="stroke:#181818;stroke-width:1;"/><polygon fill="#181818" points="5629.39,160.42,5620.894,155.4382,5624.4214,159.8606,5619.999,163.388,5629.39,160.42" style="stroke:#181818;stroke-width:1;"/><text fill="#000000" font-family="sans-serif" font-size="13" lengthAdjust="spacing" textLength="23.0103" x="5245.5" y="124.5669">use</text></g><!--reverse link logic_arc_int__baselibs__condition_variable to comp_arc_sta__baselibs__concurrency--><g id="link_logic_arc_int__baselibs__condition_variable_comp_arc_sta__baselibs__concurrency"><path codeLine="47" d="M1543.1614,202.0188 C1575.9314,223.3088 1623.38,254.14 1656.07,275.38 " fill="transparent" id="logic_arc_int__baselibs__condition_variable-backto-comp_arc_sta__baselibs__concurrency" style="stroke:#181818;stroke-width:1;"/><polygon fill="#181818" points="1538.13,198.75,1543.4979,207.0075,1542.3228,201.474,1547.8563,200.2989,1538.13,198.75" style="stroke:#181818;stroke-width:1;"/><text fill="#000000" font-family="sans-serif" font-size="13" lengthAdjust="spacing" textLength="76.9082" x="1609.5" y="241.5669">implements</text></g><!--reverse link logic_arc_int__baselibs__task_result to comp_arc_sta__baselibs__concurrency--><g id="link_logic_arc_int__baselibs__task_result_comp_arc_sta__baselibs__concurrency"><path codeLine="48" d="M2099.311,199.8874 C2006.201,221.1774 1862.18,254.11 1769,275.41 " fill="transparent" id="logic_arc_int__baselibs__task_result-backto-comp_arc_sta__baselibs__concurrency" style="stroke:#181818;stroke-width:1;"/><polygon fill="#181818" points="2105.16,198.55,2095.4948,196.6568,2100.2858,199.6645,2097.278,204.4555,2105.16,198.55" style="stroke:#181818;stroke-width:1;"/><text fill="#000000" font-family="sans-serif" font-size="13" lengthAdjust="spacing" textLength="76.9082" x="1968.5" y="241.5669">implements</text></g><!--reverse link logic_arc_int__baselibs__message_passing to comp_arc_sta__baselibs__message_passing--><g id="link_logic_arc_int__baselibs__message_passing_comp_arc_sta__baselibs__message_passing"><path codeLine="49" d="M175.5,204.75 C175.5,225.98 175.5,253.94 175.5,275.19 " fill="transparent" id="logic_arc_int__baselibs__message_passing-backto-comp_arc_sta__baselibs__message_passing" style="stroke:#181818;stroke-width:1;"/><polygon fill="#181818" points="175.5,198.75,171.5,207.75,175.5,203.75,179.5,207.75,175.5,198.75" style="stroke:#181818;stroke-width:1;"/><text fill="#000000" font-family="sans-serif" font-size="13" lengthAdjust="spacing" textLength="76.9082" x="176.5" y="241.5669">implements</text></g><!--link Feature_User to logic_arc_int__baselibs__task--><g id="link_Feature_User_logic_arc_int__baselibs__task"><path codeLine="50" d="M3001.22,55.16 C2905.77,77.63 2688.6604,128.7354 2568.1204,157.1054 " fill="transparent" id="Feature_User-to-logic_arc_int__baselibs__task" style="stroke:#181818;stroke-width:1;"/><polygon fill="#181818" points="2562.28,158.48,2571.957,160.3117,2567.147,157.3345,2570.1242,152.5245,2562.28,158.48" style="stroke:#181818;stroke-width:1;"/><text fill="#000000" font-family="sans-serif" font-size="13" lengthAdjust="spacing" textLength="23.0103" x="2748.5" y="124.5669">use</text></g><!--link Feature_User to logic_arc_int__baselibs__bit_manipulation--><g id="link_Feature_User_logic_arc_int__baselibs__bit_manipulation"><path codeLine="51" d="M3091.78,47.33 C3276.85,59.03 3993.93,105.44 4582.5,158.5 C4588.26,159.02 4588.1467,158.995 4594.0667,159.555 " fill="transparent" id="Feature_User-to-logic_arc_int__baselibs__bit_manipulation" style="stroke:#181818;stroke-width:1;"/><polygon fill="#181818" points="4600.04,160.12,4591.4567,155.2902,4595.0622,159.6491,4590.7033,163.2547,4600.04,160.12" style="stroke:#181818;stroke-width:1;"/><text fill="#000000" font-family="sans-serif" font-size="13" lengthAdjust="spacing" textLength="23.0103" x="4205.5" y="124.5669">use</text></g><!--link Feature_User to logic_arc_int__baselibs__bit_mask_operator--><g id="link_Feature_User_logic_arc_int__baselibs__bit_mask_operator"><path codeLine="52" d="M3091.76,48.86 C3247.46,63.87 3775.48,114.9 4211.5,158.5 C4217.48,159.1 4217.5904,159.1072 4223.7304,159.7272 " fill="transparent" id="Feature_User-to-logic_arc_int__baselibs__bit_mask_operator" style="stroke:#181818;stroke-width:1;"/><polygon fill="#181818" points="4229.7,160.33,4221.1474,155.446,4224.7253,159.8277,4220.3437,163.4056,4229.7,160.33" style="stroke:#181818;stroke-width:1;"/><text fill="#000000" font-family="sans-serif" font-size="13" lengthAdjust="spacing" textLength="23.0103" x="3893.5" y="124.5669">use</text></g><!--SRC=[hLPDSzGm3BtdLtXwty8m38TEfnTcE764iqTnr5rHVmHBBWqC_nqdkxHDAEiapL5P-UsJtfDii3Ryq8uUoEyh2QsIeEeW4fngAA8H2huwK8EA1IC6wLeynkXQwHI8HAgJ85VNB9t5c-eIc6ojVbMVoUF7O4DK4PiX-d8WS-UHMRsxV5lzhgxVdCvKO2JdNNn2a1HHVMMC5mfOdJxe_eEggb6uQtOtoeOz6GtHQFAYTGsCbchMsWJVK4zVtqCag2rUgSIebc0a8Sj3_E7zwRG9hXrIMM3oTmAvnCXgbyvXvZ0cfdlKbbYk5BdMeaCl_7_mMxB8NLR05S2V4iV02sgUyZjRTKHELWgaZach2Rdi5zYZRe4vkxJ0Q92iG6Wiwnm1ihecnOZUT0LixhmvnE3f9pRwUyA4gmld0-J1qRUfFr2stqo2-80cvM5RJUkvnvOEr4lTELjNJQ8TU6gJXNwO2yLDqxTMjut14Q-NTAwMyrP9qtbmmqyHkjMSZjF09hHPaz0Mo3bq8NOdRnRuZN9NynFWkySTihrPCdYkFC9hHkBH5cVfVUCYfJvbQy_-zTpAsYOcMphn4myiFNvio4QhhtVIlExElqMUpSt65ybu-wzKxsdRB-tyh8cRNyvBpx5j6pRQ4tEW9m-BuZARF4DUiSwMg_7lnROEORJj1eW_]--></g></svg>