<svg xmlns="http://www.w3.org/2000/svg" xmlns:xlink="http://www.w3.org/1999/xlink" contentStyleType="text/css" data-diagram-type="DESCRIPTION" height="252px" preserveAspectRatio="none" style="width:560px;height:252px;background:#FFFFFF;" version="1.1" viewBox="0 0 560 252" width="560px" zoomAndPan="magnify"><defs/><g><!--cluster docs_as_code--><g id="cluster_docs_as_code"><path d="M346,16 C346,6 444.5,6 444.5,6 C444.5,6 543,6 543,16 L543,211 C543,221 444.5,221 444.5,221 C444.5,221 346,221 346,211 L346,16 " fill="transparent" style="stroke:#181818;stroke-width:1;"/><path d="M346,16 C346,26 444.5,26 444.5,26 C444.5,26 543,26 543,16 " fill="transparent" style="stroke:#181818;stroke-width:1;"/><text fill="#000000" font-family="sans-serif" font-size="14" font-weight="bold" lengthAdjust="spacing" textLength="105.4854" x="391.7573" y="40.9951">docs_as_code</text></g><!--entity process_description--><g id="elem_process_description"><path d="M6,200.5 C6,190.5 85.4736,190.5 85.4736,190.5 C85.4736,190.5 164.9473,190.5 164.9473,200.5 L164.9473,225.7969 C164.9473,235.7969 85.4736,235.7969 85.4736,235.7969 C85.4736,235.7969 6,235.7969 6,225.7969 L6,200.5 " fill="#F1F1F1" style="stroke:#181818;stroke-width:0.5;"/><path d="M6,200.5 C6,210.5 85.4736,210.5 85.4736,210.5 C85.4736,210.5 164.9473,210.5 164.9473,200.5 " fill="transparent" style="stroke:#181818;stroke-width:0.5;"/><text fill="#000000" font-family="sans-serif" font-size="14" lengthAdjust="spacing" textLength="138.9473" x="16" y="227.4951">process_description</text></g><!--entity examples--><g id="elem_examples"><rect fill="#F1F1F1" height="39.2969" rx="2.5" ry="2.5" style="stroke:#181818;stroke-width:0.5;" width="97.7988" x="395.5" y="64.5"/><polygon fill="#F1F1F1" points="476.2988,69.5,476.2988,83.5,488.2988,83.5,488.2988,75.5,482.2988,69.5,476.2988,69.5" style="stroke:#181818;stroke-width:0.5;"/><line style="stroke:#181818;stroke-width:0.5;" x1="482.2988" x2="482.2988" y1="69.5" y2="75.5"/><line style="stroke:#181818;stroke-width:0.5;" x1="488.2988" x2="482.2988" y1="75.5" y2="75.5"/><text fill="#000000" font-family="sans-serif" font-size="14" lengthAdjust="spacing" textLength="67.7988" x="405.5" y="90.4951">examples</text></g><!--entity yaml--><g id="elem_yaml"><rect fill="#F1F1F1" height="39.2969" rx="2.5" ry="2.5" style="stroke:#181818;stroke-width:0.5;" width="148.7539" x="370" y="138.5"/><polygon fill="#F1F1F1" points="501.7539,143.5,501.7539,157.5,513.7539,157.5,513.7539,149.5,507.7539,143.5,501.7539,143.5" style="stroke:#181818;stroke-width:0.5;"/><line style="stroke:#181818;stroke-width:0.5;" x1="507.7539" x2="507.7539" y1="143.5" y2="149.5"/><line style="stroke:#181818;stroke-width:0.5;" x1="513.7539" x2="507.7539" y1="149.5" y2="149.5"/><text fill="#000000" font-family="sans-serif" font-size="14" lengthAdjust="spacing" textLength="118.7539" x="380" y="164.4951">metamodel.yaml</text></g><!--link process_description to docs_as_code--><g id="link_process_description_docs_as_code"><path d="M165.29,213 C217.035,213 285.24,213 341.1663,213 C342.0401,213 342.9109,213 343.7787,213 C344.2126,213 338.6457,213 339.078,213 " fill="transparent" id="process_description-to-docs_as_code" style="stroke:#181818;stroke-width:1;"/><polygon fill="#181818" points="345.078,213,336.078,209,340.078,213,336.078,217,345.078,213" style="stroke:#181818;stroke-width:1;"/><text fill="#000000" font-family="sans-serif" font-size="13" lengthAdjust="spacing" textLength="125.7852" x="196" y="209.0669">defines metamodel</text></g><!--SRC=[ROr12iCm30JlViL-87r03_rAK2Mv5TYniNHeAVrxdLC8zBImiymMpO5e6FPu1iI6SbZRab3GdLpHHsDrNqMTX_KTufE-nq0Q-qg-SXET102Di4mSq1VLNjHFPTMWEhVbygPQG8uzfp7zkrgMs_dX2j5ic_eX-W40]--></g></svg>