<svg xmlns="http://www.w3.org/2000/svg" xmlns:xlink="http://www.w3.org/1999/xlink" contentStyleType="text/css" data-diagram-type="CLASS" height="322px" preserveAspectRatio="none" style="width:6200px;height:322px;background:#FFFFFF;" version="1.1" viewBox="0 0 6200 322" width="6200px" zoomAndPan="magnify"><defs/><g><!--entity Feature_User--><g id="elem_Feature_User"><ellipse cx="3039.6685" cy="14" fill="#F1F1F1" rx="8" ry="8" style="stroke:#181818;stroke-width:0.5;"/><path d="M3039.6685,22 L3039.6685,49 M3026.6685,30 L3052.6685,30 M3039.6685,49 L3026.6685,64 M3039.6685,49 L3052.6685,64 " fill="transparent" style="stroke:#181818;stroke-width:0.5;"/><text fill="#000000" font-family="sans-serif" font-size="14" lengthAdjust="spacing" textLength="90.3369" x="2994.5" y="78.4951">Feature User</text></g><!--class logic_arc_int__baselibs__message_passing--><g id="elem_logic_arc_int__baselibs__message_passing"><rect fill="#F1F1F1" height="40" id="logic_arc_int__baselibs__message_passing" rx="2.5" ry="2.5" style="stroke:#181818;stroke-width:0.5;" width="328.167" x="5586.5" y="158.5"/><ellipse cx="5601.5" cy="174.5" fill="#ADD1B2" rx="11" ry="11" style="stroke:#181818;stroke-width:1;"/><path d="M5604.4688,180.1406 Q5603.8906,180.4375 5603.25,180.5781 Q5602.6094,180.7344 5601.9063,180.7344 Q5599.4063,180.7344 5598.0781,179.0938 Q5596.7656,177.4375 5596.7656,174.3125 Q5596.7656,171.1875 5598.0781,169.5313 Q5599.4063,167.875 5601.9063,167.875 Q5602.6094,167.875 5603.25,168.0313 Q5603.9063,168.1875 5604.4688,168.4844 L5604.4688,171.2031 Q5603.8438,170.625 5603.25,170.3594 Q5602.6563,170.0781 5602.0313,170.0781 Q5600.6875,170.0781 5600,171.1563 Q5599.3125,172.2188 5599.3125,174.3125 Q5599.3125,176.4063 5600,177.4844 Q5600.6875,178.5469 5602.0313,178.5469 Q5602.6563,178.5469 5603.25,178.2813 Q5603.8438,178 5604.4688,177.4219 L5604.4688,180.1406 Z " fill="#000000"/><text fill="#000000" font-family="sans-serif" font-size="14" lengthAdjust="spacing" textLength="296.167" x="5615.5" y="179.3467">logic_arc_int__baselibs__message_passing</text><line style="stroke:#181818;stroke-width:0.5;" x1="5587.5" x2="5913.667" y1="190.5" y2="190.5"/></g><!--class logic_arc_int__baselibs__utils_base64--><g id="elem_logic_arc_int__baselibs__utils_base64"><rect fill="#F1F1F1" height="40" id="logic_arc_int__baselibs__utils_base64" rx="2.5" ry="2.5" style="stroke:#181818;stroke-width:0.5;" width="292.1689" x="715.5" y="158.5"/><ellipse cx="730.5" cy="174.5" fill="#ADD1B2" rx="11" ry="11" style="stroke:#181818;stroke-width:1;"/><path d="M733.4688,180.1406 Q732.8906,180.4375 732.25,180.5781 Q731.6094,180.7344 730.9063,180.7344 Q728.4063,180.7344 727.0781,179.0938 Q725.7656,177.4375 725.7656,174.3125 Q725.7656,171.1875 727.0781,169.5313 Q728.4063,167.875 730.9063,167.875 Q731.6094,167.875 732.25,168.0313 Q732.9063,168.1875 733.4688,168.4844 L733.4688,171.2031 Q732.8438,170.625 732.25,170.3594 Q731.6563,170.0781 731.0313,170.0781 Q729.6875,170.0781 729,171.1563 Q728.3125,172.2188 728.3125,174.3125 Q728.3125,176.4063 729,177.4844 Q729.6875,178.5469 731.0313,178.5469 Q731.6563,178.5469 732.25,178.2813 Q732.8438,178 733.4688,177.4219 L733.4688,180.1406 Z " fill="#000000"/><text fill="#000000" font-family="sans-serif" font-size="14" lengthAdjust="spacing" textLength="260.1689" x="744.5" y="179.3467">logic_arc_int__baselibs__utils_base64</text><line style="stroke:#181818;stroke-width:0.5;" x1="716.5" x2="1006.6689" y1="190.5" y2="190.5"/></g><!--class comp_arc_sta__baselibs__concurrency--><g id="elem_comp_arc_sta__baselibs__concurrency"><rect fill="#F1F1F1" height="40" id="comp_arc_sta__baselibs__concurrency" rx="2.5" ry="2.5" style="stroke:#181818;stroke-width:0.5;" width="300.2012" x="3007.5" y="275.5"/><ellipse cx="3022.5" cy="291.5" fill="#ADD1B2" rx="11" ry="11" style="stroke:#181818;stroke-width:1;"/><path d="M3025.4688,297.1406 Q3024.8906,297.4375 3024.25,297.5781 Q3023.6094,297.7344 3022.9063,297.7344 Q3020.4063,297.7344 3019.0781,296.0938 Q3017.7656,294.4375 3017.7656,291.3125 Q3017.7656,288.1875 3019.0781,286.5313 Q3020.4063,284.875 3022.9063,284.875 Q3023.6094,284.875 3024.25,285.0313 Q3024.9063,285.1875 3025.4688,285.4844 L3025.4688,288.2031 Q3024.8438,287.625 3024.25,287.3594 Q3023.6563,287.0781 3023.0313,287.0781 Q3021.6875,287.0781 3021,288.1563 Q3020.3125,289.2188 3020.3125,291.3125 Q3020.3125,293.4063 3021,294.4844 Q3021.6875,295.5469 3023.0313,295.5469 Q3023.6563,295.5469 3024.25,295.2813 Q3024.8438,295 3025.4688,294.4219 L3025.4688,297.1406 Z " fill="#000000"/><text fill="#000000" font-family="sans-serif" font-size="14" lengthAdjust="spacing" textLength="268.2012" x="3036.5" y="296.3467">comp_arc_sta__baselibs__concurrency</text><line style="stroke:#181818;stroke-width:0.5;" x1="3008.5" x2="3306.7012" y1="307.5" y2="307.5"/></g><!--class logic_arc_int__baselibs__promise--><g id="elem_logic_arc_int__baselibs__promise"><rect fill="#F1F1F1" height="40" id="logic_arc_int__baselibs__promise" rx="2.5" ry="2.5" style="stroke:#181818;stroke-width:0.5;" width="261.1885" x="2310" y="158.5"/><ellipse cx="2325" cy="174.5" fill="#ADD1B2" rx="11" ry="11" style="stroke:#181818;stroke-width:1;"/><path d="M2327.9688,180.1406 Q2327.3906,180.4375 2326.75,180.5781 Q2326.1094,180.7344 2325.4063,180.7344 Q2322.9063,180.7344 2321.5781,179.0938 Q2320.2656,177.4375 2320.2656,174.3125 Q2320.2656,171.1875 2321.5781,169.5313 Q2322.9063,167.875 2325.4063,167.875 Q2326.1094,167.875 2326.75,168.0313 Q2327.4063,168.1875 2327.9688,168.4844 L2327.9688,171.2031 Q2327.3438,170.625 2326.75,170.3594 Q2326.1563,170.0781 2325.5313,170.0781 Q2324.1875,170.0781 2323.5,171.1563 Q2322.8125,172.2188 2322.8125,174.3125 Q2322.8125,176.4063 2323.5,177.4844 Q2324.1875,178.5469 2325.5313,178.5469 Q2326.1563,178.5469 2326.75,178.2813 Q2327.3438,178 2327.9688,177.4219 L2327.9688,180.1406 Z " fill="#000000"/><text fill="#000000" font-family="sans-serif" font-size="14" lengthAdjust="spacing" textLength="229.1885" x="2339" y="179.3467">logic_arc_int__baselibs__promise</text><line style="stroke:#181818;stroke-width:0.5;" x1="2311" x2="2570.1885" y1="190.5" y2="190.5"/></g><!--class logic_arc_int__baselibs__task_result--><g id="elem_logic_arc_int__baselibs__task_result"><rect fill="#F1F1F1" height="40" id="logic_arc_int__baselibs__task_result" rx="2.5" ry="2.5" style="stroke:#181818;stroke-width:0.5;" width="280.9307" x="1994" y="158.5"/><ellipse cx="2009" cy="174.5" fill="#ADD1B2" rx="11" ry="11" style="stroke:#181818;stroke-width:1;"/><path d="M2011.9688,180.1406 Q2011.3906,180.4375 2010.75,180.5781 Q2010.1094,180.7344 2009.4063,180.7344 Q2006.9063,180.7344 2005.5781,179.0938 Q2004.2656,177.4375 2004.2656,174.3125 Q2004.2656,171.1875 2005.5781,169.5313 Q2006.9063,167.875 2009.4063,167.875 Q2010.1094,167.875 2010.75,168.0313 Q2011.4063,168.1875 2011.9688,168.4844 L2011.9688,171.2031 Q2011.3438,170.625 2010.75,170.3594 Q2010.1563,170.0781 2009.5313,170.0781 Q2008.1875,170.0781 2007.5,171.1563 Q2006.8125,172.2188 2006.8125,174.3125 Q2006.8125,176.4063 2007.5,177.4844 Q2008.1875,178.5469 2009.5313,178.5469 Q2010.1563,178.5469 2010.75,178.2813 Q2011.3438,178 2011.9688,177.4219 L2011.9688,180.1406 Z " fill="#000000"/><text fill="#000000" font-family="sans-serif" font-size="14" lengthAdjust="spacing" textLength="248.9307" x="2023" y="179.3467">logic_arc_int__baselibs__task_result</text><line style="stroke:#181818;stroke-width:0.5;" x1="1995" x2="2273.9307" y1="190.5" y2="190.5"/></g><!--class logic_arc_int__baselibs__condition_variable--><g id="elem_logic_arc_int__baselibs__condition_variable"><rect fill="#F1F1F1" height="40" id="logic_arc_int__baselibs__condition_variable" rx="2.5" ry="2.5" style="stroke:#181818;stroke-width:0.5;" width="332.7539" x="3226" y="158.5"/><ellipse cx="3241" cy="174.5" fill="#ADD1B2" rx="11" ry="11" style="stroke:#181818;stroke-width:1;"/><path d="M3243.9688,180.1406 Q3243.3906,180.4375 3242.75,180.5781 Q3242.1094,180.7344 3241.4063,180.7344 Q3238.9063,180.7344 3237.5781,179.0938 Q3236.2656,177.4375 3236.2656,174.3125 Q3236.2656,171.1875 3237.5781,169.5313 Q3238.9063,167.875 3241.4063,167.875 Q3242.1094,167.875 3242.75,168.0313 Q3243.4063,168.1875 3243.9688,168.4844 L3243.9688,171.2031 Q3243.3438,170.625 3242.75,170.3594 Q3242.1563,170.0781 3241.5313,170.0781 Q3240.1875,170.0781 3239.5,171.1563 Q3238.8125,172.2188 3238.8125,174.3125 Q3238.8125,176.4063 3239.5,177.4844 Q3240.1875,178.5469 3241.5313,178.5469 Q3242.1563,178.5469 3242.75,178.2813 Q3243.3438,178 3243.9688,177.4219 L3243.9688,180.1406 Z " fill="#000000"/><text fill="#000000" font-family="sans-serif" font-size="14" lengthAdjust="spacing" textLength="300.7539" x="3255" y="179.3467">logic_arc_int__baselibs__condition_variable</text><line style="stroke:#181818;stroke-width:0.5;" x1="3227" x2="3557.7539" y1="190.5" y2="190.5"/></g><!--class comp_arc_sta__baselibs__json--><g id="elem_comp_arc_sta__baselibs__json"><rect fill="#F1F1F1" height="40" id="comp_arc_sta__baselibs__json" rx="2.5" ry="2.5" style="stroke:#181818;stroke-width:0.5;" width="242.1367" x="5951.5" y="275.5"/><ellipse cx="5966.5" cy="291.5" fill="#ADD1B2" rx="11" ry="11" style="stroke:#181818;stroke-width:1;"/><path d="M5969.4688,297.1406 Q5968.8906,297.4375 5968.25,297.5781 Q5967.6094,297.7344 5966.9063,297.7344 Q5964.4063,297.7344 5963.0781,296.0938 Q5961.7656,294.4375 5961.7656,291.3125 Q5961.7656,288.1875 5963.0781,286.5313 Q5964.4063,284.875 5966.9063,284.875 Q5967.6094,284.875 5968.25,285.0313 Q5968.9063,285.1875 5969.4688,285.4844 L5969.4688,288.2031 Q5968.8438,287.625 5968.25,287.3594 Q5967.6563,287.0781 5967.0313,287.0781 Q5965.6875,287.0781 5965,288.1563 Q5964.3125,289.2188 5964.3125,291.3125 Q5964.3125,293.4063 5965,294.4844 Q5965.6875,295.5469 5967.0313,295.5469 Q5967.6563,295.5469 5968.25,295.2813 Q5968.8438,295 5969.4688,294.4219 L5969.4688,297.1406 Z " fill="#000000"/><text fill="#000000" font-family="sans-serif" font-size="14" lengthAdjust="spacing" textLength="210.1367" x="5980.5" y="296.3467">comp_arc_sta__baselibs__json</text><line style="stroke:#181818;stroke-width:0.5;" x1="5952.5" x2="6192.6367" y1="307.5" y2="307.5"/></g><!--class logic_arc_int__baselibs__json--><g id="elem_logic_arc_int__baselibs__json"><rect fill="#F1F1F1" height="40" id="logic_arc_int__baselibs__json" rx="2.5" ry="2.5" style="stroke:#181818;stroke-width:0.5;" width="233.168" x="5954" y="158.5"/><ellipse cx="5969" cy="174.5" fill="#ADD1B2" rx="11" ry="11" style="stroke:#181818;stroke-width:1;"/><path d="M5971.9688,180.1406 Q5971.3906,180.4375 5970.75,180.5781 Q5970.1094,180.7344 5969.4063,180.7344 Q5966.9063,180.7344 5965.5781,179.0938 Q5964.2656,177.4375 5964.2656,174.3125 Q5964.2656,171.1875 5965.5781,169.5313 Q5966.9063,167.875 5969.4063,167.875 Q5970.1094,167.875 5970.75,168.0313 Q5971.4063,168.1875 5971.9688,168.4844 L5971.9688,171.2031 Q5971.3438,170.625 5970.75,170.3594 Q5970.1563,170.0781 5969.5313,170.0781 Q5968.1875,170.0781 5967.5,171.1563 Q5966.8125,172.2188 5966.8125,174.3125 Q5966.8125,176.4063 5967.5,177.4844 Q5968.1875,178.5469 5969.5313,178.5469 Q5970.1563,178.5469 5970.75,178.2813 Q5971.3438,178 5971.9688,177.4219 L5971.9688,180.1406 Z " fill="#000000"/><text fill="#000000" font-family="sans-serif" font-size="14" lengthAdjust="spacing" textLength="201.168" x="5983" y="179.3467">logic_arc_int__baselibs__json</text><line style="stroke:#181818;stroke-width:0.5;" x1="5955" x2="6186.168" y1="190.5" y2="190.5"/></g><!--class logic_arc_int__baselibs__dynamic_array--><g id="elem_logic_arc_int__baselibs__dynamic_array"><rect fill="#F1F1F1" height="40" id="logic_arc_int__baselibs__dynamic_array" rx="2.5" ry="2.5" style="stroke:#181818;stroke-width:0.5;" width="308.3496" x="1650.5" y="158.5"/><ellipse cx="1665.5" cy="174.5" fill="#ADD1B2" rx="11" ry="11" style="stroke:#181818;stroke-width:1;"/><path d="M1668.4688,180.1406 Q1667.8906,180.4375 1667.25,180.5781 Q1666.6094,180.7344 1665.9063,180.7344 Q1663.4063,180.7344 1662.0781,179.0938 Q1660.7656,177.4375 1660.7656,174.3125 Q1660.7656,171.1875 1662.0781,169.5313 Q1663.4063,167.875 1665.9063,167.875 Q1666.6094,167.875 1667.25,168.0313 Q1667.9063,168.1875 1668.4688,168.4844 L1668.4688,171.2031 Q1667.8438,170.625 1667.25,170.3594 Q1666.6563,170.0781 1666.0313,170.0781 Q1664.6875,170.0781 1664,171.1563 Q1663.3125,172.2188 1663.3125,174.3125 Q1663.3125,176.4063 1664,177.4844 Q1664.6875,178.5469 1666.0313,178.5469 Q1666.6563,178.5469 1667.25,178.2813 Q1667.8438,178 1668.4688,177.4219 L1668.4688,180.1406 Z " fill="#000000"/><text fill="#000000" font-family="sans-serif" font-size="14" lengthAdjust="spacing" textLength="276.3496" x="1679.5" y="179.3467">logic_arc_int__baselibs__dynamic_array</text><line style="stroke:#181818;stroke-width:0.5;" x1="1651.5" x2="1957.8496" y1="190.5" y2="190.5"/></g><!--class comp_arc_sta__baselibs__bit_manipulation--><g id="elem_comp_arc_sta__baselibs__bit_manipulation"><rect fill="#F1F1F1" height="40" id="comp_arc_sta__baselibs__bit_manipulation" rx="2.5" ry="2.5" style="stroke:#181818;stroke-width:0.5;" width="330.8057" x="5041" y="275.5"/><ellipse cx="5056" cy="291.5" fill="#ADD1B2" rx="11" ry="11" style="stroke:#181818;stroke-width:1;"/><path d="M5058.9688,297.1406 Q5058.3906,297.4375 5057.75,297.5781 Q5057.1094,297.7344 5056.4063,297.7344 Q5053.9063,297.7344 5052.5781,296.0938 Q5051.2656,294.4375 5051.2656,291.3125 Q5051.2656,288.1875 5052.5781,286.5313 Q5053.9063,284.875 5056.4063,284.875 Q5057.1094,284.875 5057.75,285.0313 Q5058.4063,285.1875 5058.9688,285.4844 L5058.9688,288.2031 Q5058.3438,287.625 5057.75,287.3594 Q5057.1563,287.0781 5056.5313,287.0781 Q5055.1875,287.0781 5054.5,288.1563 Q5053.8125,289.2188 5053.8125,291.3125 Q5053.8125,293.4063 5054.5,294.4844 Q5055.1875,295.5469 5056.5313,295.5469 Q5057.1563,295.5469 5057.75,295.2813 Q5058.3438,295 5058.9688,294.4219 L5058.9688,297.1406 Z " fill="#000000"/><text fill="#000000" font-family="sans-serif" font-size="14" lengthAdjust="spacing" textLength="298.8057" x="5070" y="296.3467">comp_arc_sta__baselibs__bit_manipulation</text><line style="stroke:#181818;stroke-width:0.5;" x1="5042" x2="5370.8057" y1="307.5" y2="307.5"/></g><!--class logic_arc_int__baselibs__bit_manipulation--><g id="elem_logic_arc_int__baselibs__bit_manipulation"><rect fill="#F1F1F1" height="40" id="logic_arc_int__baselibs__bit_manipulation" rx="2.5" ry="2.5" style="stroke:#181818;stroke-width:0.5;" width="321.8369" x="5229.5" y="158.5"/><ellipse cx="5244.5" cy="174.5" fill="#ADD1B2" rx="11" ry="11" style="stroke:#181818;stroke-width:1;"/><path d="M5247.4688,180.1406 Q5246.8906,180.4375 5246.25,180.5781 Q5245.6094,180.7344 5244.9063,180.7344 Q5242.4063,180.7344 5241.0781,179.0938 Q5239.7656,177.4375 5239.7656,174.3125 Q5239.7656,171.1875 5241.0781,169.5313 Q5242.4063,167.875 5244.9063,167.875 Q5245.6094,167.875 5246.25,168.0313 Q5246.9063,168.1875 5247.4688,168.4844 L5247.4688,171.2031 Q5246.8438,170.625 5246.25,170.3594 Q5245.6563,170.0781 5245.0313,170.0781 Q5243.6875,170.0781 5243,171.1563 Q5242.3125,172.2188 5242.3125,174.3125 Q5242.3125,176.4063 5243,177.4844 Q5243.6875,178.5469 5245.0313,178.5469 Q5245.6563,178.5469 5246.25,178.2813 Q5246.8438,178 5247.4688,177.4219 L5247.4688,180.1406 Z " fill="#000000"/><text fill="#000000" font-family="sans-serif" font-size="14" lengthAdjust="spacing" textLength="289.8369" x="5258.5" y="179.3467">logic_arc_int__baselibs__bit_manipulation</text><line style="stroke:#181818;stroke-width:0.5;" x1="5230.5" x2="5550.3369" y1="190.5" y2="190.5"/></g><!--class comp_arc_sta__baselibs__message_passing--><g id="elem_comp_arc_sta__baselibs__message_passing"><rect fill="#F1F1F1" height="40" id="comp_arc_sta__baselibs__message_passing" rx="2.5" ry="2.5" style="stroke:#181818;stroke-width:0.5;" width="337.1357" x="5579" y="275.5"/><ellipse cx="5594" cy="291.5" fill="#ADD1B2" rx="11" ry="11" style="stroke:#181818;stroke-width:1;"/><path d="M5596.9688,297.1406 Q5596.3906,297.4375 5595.75,297.5781 Q5595.1094,297.7344 5594.4063,297.7344 Q5591.9063,297.7344 5590.5781,296.0938 Q5589.2656,294.4375 5589.2656,291.3125 Q5589.2656,288.1875 5590.5781,286.5313 Q5591.9063,284.875 5594.4063,284.875 Q5595.1094,284.875 5595.75,285.0313 Q5596.4063,285.1875 5596.9688,285.4844 L5596.9688,288.2031 Q5596.3438,287.625 5595.75,287.3594 Q5595.1563,287.0781 5594.5313,287.0781 Q5593.1875,287.0781 5592.5,288.1563 Q5591.8125,289.2188 5591.8125,291.3125 Q5591.8125,293.4063 5592.5,294.4844 Q5593.1875,295.5469 5594.5313,295.5469 Q5595.1563,295.5469 5595.75,295.2813 Q5596.3438,295 5596.9688,294.4219 L5596.9688,297.1406 Z " fill="#000000"/><text fill="#000000" font-family="sans-serif" font-size="14" lengthAdjust="spacing" textLength="305.1357" x="5608" y="296.3467">comp_arc_sta__baselibs__message_passing</text><line style="stroke:#181818;stroke-width:0.5;" x1="5580" x2="5915.1357" y1="307.5" y2="307.5"/></g><!--class logic_arc_int__baselibs__task--><g id="elem_logic_arc_int__baselibs__task"><rect fill="#F1F1F1" height="40" id="logic_arc_int__baselibs__task" rx="2.5" ry="2.5" style="stroke:#181818;stroke-width:0.5;" width="234.0156" x="3594.5" y="158.5"/><ellipse cx="3609.5" cy="174.5" fill="#ADD1B2" rx="11" ry="11" style="stroke:#181818;stroke-width:1;"/><path d="M3612.4688,180.1406 Q3611.8906,180.4375 3611.25,180.5781 Q3610.6094,180.7344 3609.9063,180.7344 Q3607.4063,180.7344 3606.0781,179.0938 Q3604.7656,177.4375 3604.7656,174.3125 Q3604.7656,171.1875 3606.0781,169.5313 Q3607.4063,167.875 3609.9063,167.875 Q3610.6094,167.875 3611.25,168.0313 Q3611.9063,168.1875 3612.4688,168.4844 L3612.4688,171.2031 Q3611.8438,170.625 3611.25,170.3594 Q3610.6563,170.0781 3610.0313,170.0781 Q3608.6875,170.0781 3608,171.1563 Q3607.3125,172.2188 3607.3125,174.3125 Q3607.3125,176.4063 3608,177.4844 Q3608.6875,178.5469 3610.0313,178.5469 Q3610.6563,178.5469 3611.25,178.2813 Q3611.8438,178 3612.4688,177.4219 L3612.4688,180.1406 Z " fill="#000000"/><text fill="#000000" font-family="sans-serif" font-size="14" lengthAdjust="spacing" textLength="202.0156" x="3623.5" y="179.3467">logic_arc_int__baselibs__task</text><line style="stroke:#181818;stroke-width:0.5;" x1="3595.5" x2="3827.5156" y1="190.5" y2="190.5"/></g><!--class comp_arc_sta__baselibs__filesystem--><g id="elem_comp_arc_sta__baselibs__filesystem"><rect fill="#F1F1F1" height="40" id="comp_arc_sta__baselibs__filesystem" rx="2.5" ry="2.5" style="stroke:#181818;stroke-width:0.5;" width="285.4492" x="4543" y="275.5"/><ellipse cx="4558" cy="291.5" fill="#ADD1B2" rx="11" ry="11" style="stroke:#181818;stroke-width:1;"/><path d="M4560.9688,297.1406 Q4560.3906,297.4375 4559.75,297.5781 Q4559.1094,297.7344 4558.4063,297.7344 Q4555.9063,297.7344 4554.5781,296.0938 Q4553.2656,294.4375 4553.2656,291.3125 Q4553.2656,288.1875 4554.5781,286.5313 Q4555.9063,284.875 4558.4063,284.875 Q4559.1094,284.875 4559.75,285.0313 Q4560.4063,285.1875 4560.9688,285.4844 L4560.9688,288.2031 Q4560.3438,287.625 4559.75,287.3594 Q4559.1563,287.0781 4558.5313,287.0781 Q4557.1875,287.0781 4556.5,288.1563 Q4555.8125,289.2188 4555.8125,291.3125 Q4555.8125,293.4063 4556.5,294.4844 Q4557.1875,295.5469 4558.5313,295.5469 Q4559.1563,295.5469 4559.75,295.2813 Q4560.3438,295 4560.9688,294.4219 L4560.9688,297.1406 Z " fill="#000000"/><text fill="#000000" font-family="sans-serif" font-size="14" lengthAdjust="spacing" textLength="253.4492" x="4572" y="296.3467">comp_arc_sta__baselibs__filesystem</text><line style="stroke:#181818;stroke-width:0.5;" x1="4544" x2="4827.4492" y1="307.5" y2="307.5"/></g><!--class logic_arc_int__baselibs__filesystem--><g id="elem_logic_arc_int__baselibs__filesystem"><rect fill="#F1F1F1" height="40" id="logic_arc_int__baselibs__filesystem" rx="2.5" ry="2.5" style="stroke:#181818;stroke-width:0.5;" width="276.4805" x="4547.5" y="158.5"/><ellipse cx="4562.5" cy="174.5" fill="#ADD1B2" rx="11" ry="11" style="stroke:#181818;stroke-width:1;"/><path d="M4565.4688,180.1406 Q4564.8906,180.4375 4564.25,180.5781 Q4563.6094,180.7344 4562.9063,180.7344 Q4560.4063,180.7344 4559.0781,179.0938 Q4557.7656,177.4375 4557.7656,174.3125 Q4557.7656,171.1875 4559.0781,169.5313 Q4560.4063,167.875 4562.9063,167.875 Q4563.6094,167.875 4564.25,168.0313 Q4564.9063,168.1875 4565.4688,168.4844 L4565.4688,171.2031 Q4564.8438,170.625 4564.25,170.3594 Q4563.6563,170.0781 4563.0313,170.0781 Q4561.6875,170.0781 4561,171.1563 Q4560.3125,172.2188 4560.3125,174.3125 Q4560.3125,176.4063 4561,177.4844 Q4561.6875,178.5469 4563.0313,178.5469 Q4563.6563,178.5469 4564.25,178.2813 Q4564.8438,178 4565.4688,177.4219 L4565.4688,180.1406 Z " fill="#000000"/><text fill="#000000" font-family="sans-serif" font-size="14" lengthAdjust="spacing" textLength="244.4805" x="4576.5" y="179.3467">logic_arc_int__baselibs__filesystem</text><line style="stroke:#181818;stroke-width:0.5;" x1="4548.5" x2="4822.9805" y1="190.5" y2="190.5"/></g><!--class logic_arc_int__baselibs__intrusive_list--><g id="elem_logic_arc_int__baselibs__intrusive_list"><rect fill="#F1F1F1" height="40" id="logic_arc_int__baselibs__intrusive_list" rx="2.5" ry="2.5" style="stroke:#181818;stroke-width:0.5;" width="293.0713" x="1322" y="158.5"/><ellipse cx="1337" cy="174.5" fill="#ADD1B2" rx="11" ry="11" style="stroke:#181818;stroke-width:1;"/><path d="M1339.9688,180.1406 Q1339.3906,180.4375 1338.75,180.5781 Q1338.1094,180.7344 1337.4063,180.7344 Q1334.9063,180.7344 1333.5781,179.0938 Q1332.2656,177.4375 1332.2656,174.3125 Q1332.2656,171.1875 1333.5781,169.5313 Q1334.9063,167.875 1337.4063,167.875 Q1338.1094,167.875 1338.75,168.0313 Q1339.4063,168.1875 1339.9688,168.4844 L1339.9688,171.2031 Q1339.3438,170.625 1338.75,170.3594 Q1338.1563,170.0781 1337.5313,170.0781 Q1336.1875,170.0781 1335.5,171.1563 Q1334.8125,172.2188 1334.8125,174.3125 Q1334.8125,176.4063 1335.5,177.4844 Q1336.1875,178.5469 1337.5313,178.5469 Q1338.1563,178.5469 1338.75,178.2813 Q1339.3438,178 1339.9688,177.4219 L1339.9688,180.1406 Z " fill="#000000"/><text fill="#000000" font-family="sans-serif" font-size="14" lengthAdjust="spacing" textLength="261.0713" x="1351" y="179.3467">logic_arc_int__baselibs__intrusive_list</text><line style="stroke:#181818;stroke-width:0.5;" x1="1323" x2="1614.0713" y1="190.5" y2="190.5"/></g><!--class logic_arc_int__baselibs__future--><g id="elem_logic_arc_int__baselibs__future"><rect fill="#F1F1F1" height="40" id="logic_arc_int__baselibs__future" rx="2.5" ry="2.5" style="stroke:#181818;stroke-width:0.5;" width="247.0791" x="2606" y="158.5"/><ellipse cx="2621" cy="174.5" fill="#ADD1B2" rx="11" ry="11" style="stroke:#181818;stroke-width:1;"/><path d="M2623.9688,180.1406 Q2623.3906,180.4375 2622.75,180.5781 Q2622.1094,180.7344 2621.4063,180.7344 Q2618.9063,180.7344 2617.5781,179.0938 Q2616.2656,177.4375 2616.2656,174.3125 Q2616.2656,171.1875 2617.5781,169.5313 Q2618.9063,167.875 2621.4063,167.875 Q2622.1094,167.875 2622.75,168.0313 Q2623.4063,168.1875 2623.9688,168.4844 L2623.9688,171.2031 Q2623.3438,170.625 2622.75,170.3594 Q2622.1563,170.0781 2621.5313,170.0781 Q2620.1875,170.0781 2619.5,171.1563 Q2618.8125,172.2188 2618.8125,174.3125 Q2618.8125,176.4063 2619.5,177.4844 Q2620.1875,178.5469 2621.5313,178.5469 Q2622.1563,178.5469 2622.75,178.2813 Q2623.3438,178 2623.9688,177.4219 L2623.9688,180.1406 Z " fill="#000000"/><text fill="#000000" font-family="sans-serif" font-size="14" lengthAdjust="spacing" textLength="215.0791" x="2635" y="179.3467">logic_arc_int__baselibs__future</text><line style="stroke:#181818;stroke-width:0.5;" x1="2607" x2="2852.0791" y1="190.5" y2="190.5"/></g><!--class logic_arc_int__baselibs__shared_future--><g id="elem_logic_arc_int__baselibs__shared_future"><rect fill="#F1F1F1" height="40" id="logic_arc_int__baselibs__shared_future" rx="2.5" ry="2.5" style="stroke:#181818;stroke-width:0.5;" width="302.0811" x="2888.5" y="158.5"/><ellipse cx="2903.5" cy="174.5" fill="#ADD1B2" rx="11" ry="11" style="stroke:#181818;stroke-width:1;"/><path d="M2906.4688,180.1406 Q2905.8906,180.4375 2905.25,180.5781 Q2904.6094,180.7344 2903.9063,180.7344 Q2901.4063,180.7344 2900.0781,179.0938 Q2898.7656,177.4375 2898.7656,174.3125 Q2898.7656,171.1875 2900.0781,169.5313 Q2901.4063,167.875 2903.9063,167.875 Q2904.6094,167.875 2905.25,168.0313 Q2905.9063,168.1875 2906.4688,168.4844 L2906.4688,171.2031 Q2905.8438,170.625 2905.25,170.3594 Q2904.6563,170.0781 2904.0313,170.0781 Q2902.6875,170.0781 2902,171.1563 Q2901.3125,172.2188 2901.3125,174.3125 Q2901.3125,176.4063 2902,177.4844 Q2902.6875,178.5469 2904.0313,178.5469 Q2904.6563,178.5469 2905.25,178.2813 Q2905.8438,178 2906.4688,177.4219 L2906.4688,180.1406 Z " fill="#000000"/><text fill="#000000" font-family="sans-serif" font-size="14" lengthAdjust="spacing" textLength="270.0811" x="2917.5" y="179.3467">logic_arc_int__baselibs__shared_future</text><line style="stroke:#181818;stroke-width:0.5;" x1="2889.5" x2="3189.5811" y1="190.5" y2="190.5"/></g><!--class logic_arc_int__baselibs__bit_mask_operator--><g id="elem_logic_arc_int__baselibs__bit_mask_operator"><rect fill="#F1F1F1" height="40" id="logic_arc_int__baselibs__bit_mask_operator" rx="2.5" ry="2.5" style="stroke:#181818;stroke-width:0.5;" width="334.6406" x="4859" y="158.5"/><ellipse cx="4874" cy="174.5" fill="#ADD1B2" rx="11" ry="11" style="stroke:#181818;stroke-width:1;"/><path d="M4876.9688,180.1406 Q4876.3906,180.4375 4875.75,180.5781 Q4875.1094,180.7344 4874.4063,180.7344 Q4871.9063,180.7344 4870.5781,179.0938 Q4869.2656,177.4375 4869.2656,174.3125 Q4869.2656,171.1875 4870.5781,169.5313 Q4871.9063,167.875 4874.4063,167.875 Q4875.1094,167.875 4875.75,168.0313 Q4876.4063,168.1875 4876.9688,168.4844 L4876.9688,171.2031 Q4876.3438,170.625 4875.75,170.3594 Q4875.1563,170.0781 4874.5313,170.0781 Q4873.1875,170.0781 4872.5,171.1563 Q4871.8125,172.2188 4871.8125,174.3125 Q4871.8125,176.4063 4872.5,177.4844 Q4873.1875,178.5469 4874.5313,178.5469 Q4875.1563,178.5469 4875.75,178.2813 Q4876.3438,178 4876.9688,177.4219 L4876.9688,180.1406 Z " fill="#000000"/><text fill="#000000" font-family="sans-serif" font-size="14" lengthAdjust="spacing" textLength="302.6406" x="4888" y="179.3467">logic_arc_int__baselibs__bit_mask_operator</text><line style="stroke:#181818;stroke-width:0.5;" x1="4860" x2="5192.6406" y1="190.5" y2="190.5"/></g><!--class logic_arc_int__baselibs__memory_shared--><g id="elem_logic_arc_int__baselibs__memory_shared"><rect fill="#F1F1F1" height="40" id="logic_arc_int__baselibs__memory_shared" rx="2.5" ry="2.5" style="stroke:#181818;stroke-width:0.5;" width="318.043" x="11.5" y="158.5"/><ellipse cx="26.5" cy="174.5" fill="#ADD1B2" rx="11" ry="11" style="stroke:#181818;stroke-width:1;"/><path d="M29.4688,180.1406 Q28.8906,180.4375 28.25,180.5781 Q27.6094,180.7344 26.9063,180.7344 Q24.4063,180.7344 23.0781,179.0938 Q21.7656,177.4375 21.7656,174.3125 Q21.7656,171.1875 23.0781,169.5313 Q24.4063,167.875 26.9063,167.875 Q27.6094,167.875 28.25,168.0313 Q28.9063,168.1875 29.4688,168.4844 L29.4688,171.2031 Q28.8438,170.625 28.25,170.3594 Q27.6563,170.0781 27.0313,170.0781 Q25.6875,170.0781 25,171.1563 Q24.3125,172.2188 24.3125,174.3125 Q24.3125,176.4063 25,177.4844 Q25.6875,178.5469 27.0313,178.5469 Q27.6563,178.5469 28.25,178.2813 Q28.8438,178 29.4688,177.4219 L29.4688,180.1406 Z " fill="#000000"/><text fill="#000000" font-family="sans-serif" font-size="14" lengthAdjust="spacing" textLength="286.043" x="40.5" y="179.3467">logic_arc_int__baselibs__memory_shared</text><line style="stroke:#181818;stroke-width:0.5;" x1="12.5" x2="328.543" y1="190.5" y2="190.5"/></g><!--class comp_arc_sta__baselibs__containers--><g id="elem_comp_arc_sta__baselibs__containers"><rect fill="#F1F1F1" height="40" id="comp_arc_sta__baselibs__containers" rx="2.5" ry="2.5" style="stroke:#181818;stroke-width:0.5;" width="287.1445" x="1439" y="275.5"/><ellipse cx="1454" cy="291.5" fill="#ADD1B2" rx="11" ry="11" style="stroke:#181818;stroke-width:1;"/><path d="M1456.9688,297.1406 Q1456.3906,297.4375 1455.75,297.5781 Q1455.1094,297.7344 1454.4063,297.7344 Q1451.9063,297.7344 1450.5781,296.0938 Q1449.2656,294.4375 1449.2656,291.3125 Q1449.2656,288.1875 1450.5781,286.5313 Q1451.9063,284.875 1454.4063,284.875 Q1455.1094,284.875 1455.75,285.0313 Q1456.4063,285.1875 1456.9688,285.4844 L1456.9688,288.2031 Q1456.3438,287.625 1455.75,287.3594 Q1455.1563,287.0781 1454.5313,287.0781 Q1453.1875,287.0781 1452.5,288.1563 Q1451.8125,289.2188 1451.8125,291.3125 Q1451.8125,293.4063 1452.5,294.4844 Q1453.1875,295.5469 1454.5313,295.5469 Q1455.1563,295.5469 1455.75,295.2813 Q1456.3438,295 1456.9688,294.4219 L1456.9688,297.1406 Z " fill="#000000"/><text fill="#000000" font-family="sans-serif" font-size="14" lengthAdjust="spacing" textLength="255.1445" x="1468" y="296.3467">comp_arc_sta__baselibs__containers</text><line style="stroke:#181818;stroke-width:0.5;" x1="1440" x2="1725.1445" y1="307.5" y2="307.5"/></g><!--class logic_arc_int__baselibs__synchronized_queue--><g id="elem_logic_arc_int__baselibs__synchronized_queue"><rect fill="#F1F1F1" height="40" id="logic_arc_int__baselibs__synchronized_queue" rx="2.5" ry="2.5" style="stroke:#181818;stroke-width:0.5;" width="348.3604" x="4164.5" y="158.5"/><ellipse cx="4179.5" cy="174.5" fill="#ADD1B2" rx="11" ry="11" style="stroke:#181818;stroke-width:1;"/><path d="M4182.4688,180.1406 Q4181.8906,180.4375 4181.25,180.5781 Q4180.6094,180.7344 4179.9063,180.7344 Q4177.4063,180.7344 4176.0781,179.0938 Q4174.7656,177.4375 4174.7656,174.3125 Q4174.7656,171.1875 4176.0781,169.5313 Q4177.4063,167.875 4179.9063,167.875 Q4180.6094,167.875 4181.25,168.0313 Q4181.9063,168.1875 4182.4688,168.4844 L4182.4688,171.2031 Q4181.8438,170.625 4181.25,170.3594 Q4180.6563,170.0781 4180.0313,170.0781 Q4178.6875,170.0781 4178,171.1563 Q4177.3125,172.2188 4177.3125,174.3125 Q4177.3125,176.4063 4178,177.4844 Q4178.6875,178.5469 4180.0313,178.5469 Q4180.6563,178.5469 4181.25,178.2813 Q4181.8438,178 4182.4688,177.4219 L4182.4688,180.1406 Z " fill="#000000"/><text fill="#000000" font-family="sans-serif" font-size="14" lengthAdjust="spacing" textLength="316.3604" x="4193.5" y="179.3467">logic_arc_int__baselibs__synchronized_queue</text><line style="stroke:#181818;stroke-width:0.5;" x1="4165.5" x2="4511.8604" y1="190.5" y2="190.5"/></g><!--class comp_arc_sta__baselibs__result--><g id="elem_comp_arc_sta__baselibs__result"><rect fill="#F1F1F1" height="40" id="comp_arc_sta__baselibs__result" rx="2.5" ry="2.5" style="stroke:#181818;stroke-width:0.5;" width="253.4297" x="1038" y="275.5"/><ellipse cx="1053" cy="291.5" fill="#ADD1B2" rx="11" ry="11" style="stroke:#181818;stroke-width:1;"/><path d="M1055.9688,297.1406 Q1055.3906,297.4375 1054.75,297.5781 Q1054.1094,297.7344 1053.4063,297.7344 Q1050.9063,297.7344 1049.5781,296.0938 Q1048.2656,294.4375 1048.2656,291.3125 Q1048.2656,288.1875 1049.5781,286.5313 Q1050.9063,284.875 1053.4063,284.875 Q1054.1094,284.875 1054.75,285.0313 Q1055.4063,285.1875 1055.9688,285.4844 L1055.9688,288.2031 Q1055.3438,287.625 1054.75,287.3594 Q1054.1563,287.0781 1053.5313,287.0781 Q1052.1875,287.0781 1051.5,288.1563 Q1050.8125,289.2188 1050.8125,291.3125 Q1050.8125,293.4063 1051.5,294.4844 Q1052.1875,295.5469 1053.5313,295.5469 Q1054.1563,295.5469 1054.75,295.2813 Q1055.3438,295 1055.9688,294.4219 L1055.9688,297.1406 Z " fill="#000000"/><text fill="#000000" font-family="sans-serif" font-size="14" lengthAdjust="spacing" textLength="221.4297" x="1067" y="296.3467">comp_arc_sta__baselibs__result</text><line style="stroke:#181818;stroke-width:0.5;" x1="1039" x2="1290.4297" y1="307.5" y2="307.5"/></g><!--class logic_arc_int__baselibs__result--><g id="elem_logic_arc_int__baselibs__result"><rect fill="#F1F1F1" height="40" id="logic_arc_int__baselibs__result" rx="2.5" ry="2.5" style="stroke:#181818;stroke-width:0.5;" width="244.4609" x="1042.5" y="158.5"/><ellipse cx="1057.5" cy="174.5" fill="#ADD1B2" rx="11" ry="11" style="stroke:#181818;stroke-width:1;"/><path d="M1060.4688,180.1406 Q1059.8906,180.4375 1059.25,180.5781 Q1058.6094,180.7344 1057.9063,180.7344 Q1055.4063,180.7344 1054.0781,179.0938 Q1052.7656,177.4375 1052.7656,174.3125 Q1052.7656,171.1875 1054.0781,169.5313 Q1055.4063,167.875 1057.9063,167.875 Q1058.6094,167.875 1059.25,168.0313 Q1059.9063,168.1875 1060.4688,168.4844 L1060.4688,171.2031 Q1059.8438,170.625 1059.25,170.3594 Q1058.6563,170.0781 1058.0313,170.0781 Q1056.6875,170.0781 1056,171.1563 Q1055.3125,172.2188 1055.3125,174.3125 Q1055.3125,176.4063 1056,177.4844 Q1056.6875,178.5469 1058.0313,178.5469 Q1058.6563,178.5469 1059.25,178.2813 Q1059.8438,178 1060.4688,177.4219 L1060.4688,180.1406 Z " fill="#000000"/><text fill="#000000" font-family="sans-serif" font-size="14" lengthAdjust="spacing" textLength="212.4609" x="1071.5" y="179.3467">logic_arc_int__baselibs__result</text><line style="stroke:#181818;stroke-width:0.5;" x1="1043.5" x2="1285.9609" y1="190.5" y2="190.5"/></g><!--class logic_arc_int__baselibs__executor--><g id="elem_logic_arc_int__baselibs__executor"><rect fill="#F1F1F1" height="40" id="logic_arc_int__baselibs__executor" rx="2.5" ry="2.5" style="stroke:#181818;stroke-width:0.5;" width="266.4385" x="3863.5" y="158.5"/><ellipse cx="3878.5" cy="174.5" fill="#ADD1B2" rx="11" ry="11" style="stroke:#181818;stroke-width:1;"/><path d="M3881.4688,180.1406 Q3880.8906,180.4375 3880.25,180.5781 Q3879.6094,180.7344 3878.9063,180.7344 Q3876.4063,180.7344 3875.0781,179.0938 Q3873.7656,177.4375 3873.7656,174.3125 Q3873.7656,171.1875 3875.0781,169.5313 Q3876.4063,167.875 3878.9063,167.875 Q3879.6094,167.875 3880.25,168.0313 Q3880.9063,168.1875 3881.4688,168.4844 L3881.4688,171.2031 Q3880.8438,170.625 3880.25,170.3594 Q3879.6563,170.0781 3879.0313,170.0781 Q3877.6875,170.0781 3877,171.1563 Q3876.3125,172.2188 3876.3125,174.3125 Q3876.3125,176.4063 3877,177.4844 Q3877.6875,178.5469 3879.0313,178.5469 Q3879.6563,178.5469 3880.25,178.2813 Q3880.8438,178 3881.4688,177.4219 L3881.4688,180.1406 Z " fill="#000000"/><text fill="#000000" font-family="sans-serif" font-size="14" lengthAdjust="spacing" textLength="234.4385" x="3892.5" y="179.3467">logic_arc_int__baselibs__executor</text><line style="stroke:#181818;stroke-width:0.5;" x1="3864.5" x2="4128.9385" y1="190.5" y2="190.5"/></g><!--class logic_arc_int__baselibs__utils_scoped_op--><g id="elem_logic_arc_int__baselibs__utils_scoped_op"><rect fill="#F1F1F1" height="40" id="logic_arc_int__baselibs__utils_scoped_op" rx="2.5" ry="2.5" style="stroke:#181818;stroke-width:0.5;" width="315.377" x="365" y="158.5"/><ellipse cx="380" cy="174.5" fill="#ADD1B2" rx="11" ry="11" style="stroke:#181818;stroke-width:1;"/><path d="M382.9688,180.1406 Q382.3906,180.4375 381.75,180.5781 Q381.1094,180.7344 380.4063,180.7344 Q377.9063,180.7344 376.5781,179.0938 Q375.2656,177.4375 375.2656,174.3125 Q375.2656,171.1875 376.5781,169.5313 Q377.9063,167.875 380.4063,167.875 Q381.1094,167.875 381.75,168.0313 Q382.4063,168.1875 382.9688,168.4844 L382.9688,171.2031 Q382.3438,170.625 381.75,170.3594 Q381.1563,170.0781 380.5313,170.0781 Q379.1875,170.0781 378.5,171.1563 Q377.8125,172.2188 377.8125,174.3125 Q377.8125,176.4063 378.5,177.4844 Q379.1875,178.5469 380.5313,178.5469 Q381.1563,178.5469 381.75,178.2813 Q382.3438,178 382.9688,177.4219 L382.9688,180.1406 Z " fill="#000000"/><text fill="#000000" font-family="sans-serif" font-size="14" lengthAdjust="spacing" textLength="283.377" x="394" y="179.3467">logic_arc_int__baselibs__utils_scoped_op</text><line style="stroke:#181818;stroke-width:0.5;" x1="366" x2="679.377" y1="190.5" y2="190.5"/></g><!--class comp_arc_sta__baselibs__utils--><g id="elem_comp_arc_sta__baselibs__utils"><rect fill="#F1F1F1" height="40" id="comp_arc_sta__baselibs__utils" rx="2.5" ry="2.5" style="stroke:#181818;stroke-width:0.5;" width="242.9502" x="570" y="275.5"/><ellipse cx="585" cy="291.5" fill="#ADD1B2" rx="11" ry="11" style="stroke:#181818;stroke-width:1;"/><path d="M587.9688,297.1406 Q587.3906,297.4375 586.75,297.5781 Q586.1094,297.7344 585.4063,297.7344 Q582.9063,297.7344 581.5781,296.0938 Q580.2656,294.4375 580.2656,291.3125 Q580.2656,288.1875 581.5781,286.5313 Q582.9063,284.875 585.4063,284.875 Q586.1094,284.875 586.75,285.0313 Q587.4063,285.1875 587.9688,285.4844 L587.9688,288.2031 Q587.3438,287.625 586.75,287.3594 Q586.1563,287.0781 585.5313,287.0781 Q584.1875,287.0781 583.5,288.1563 Q582.8125,289.2188 582.8125,291.3125 Q582.8125,293.4063 583.5,294.4844 Q584.1875,295.5469 585.5313,295.5469 Q586.1563,295.5469 586.75,295.2813 Q587.3438,295 587.9688,294.4219 L587.9688,297.1406 Z " fill="#000000"/><text fill="#000000" font-family="sans-serif" font-size="14" lengthAdjust="spacing" textLength="210.9502" x="599" y="296.3467">comp_arc_sta__baselibs__utils</text><line style="stroke:#181818;stroke-width:0.5;" x1="571" x2="811.9502" y1="307.5" y2="307.5"/></g><!--class comp_arc_sta__baselibs__memory_shared--><g id="elem_comp_arc_sta__baselibs__memory_shared"><rect fill="#F1F1F1" height="40" id="comp_arc_sta__baselibs__memory_shared" rx="2.5" ry="2.5" style="stroke:#181818;stroke-width:0.5;" width="327.0117" x="7" y="275.5"/><ellipse cx="22" cy="291.5" fill="#ADD1B2" rx="11" ry="11" style="stroke:#181818;stroke-width:1;"/><path d="M24.9688,297.1406 Q24.3906,297.4375 23.75,297.5781 Q23.1094,297.7344 22.4063,297.7344 Q19.9063,297.7344 18.5781,296.0938 Q17.2656,294.4375 17.2656,291.3125 Q17.2656,288.1875 18.5781,286.5313 Q19.9063,284.875 22.4063,284.875 Q23.1094,284.875 23.75,285.0313 Q24.4063,285.1875 24.9688,285.4844 L24.9688,288.2031 Q24.3438,287.625 23.75,287.3594 Q23.1563,287.0781 22.5313,287.0781 Q21.1875,287.0781 20.5,288.1563 Q19.8125,289.2188 19.8125,291.3125 Q19.8125,293.4063 20.5,294.4844 Q21.1875,295.5469 22.5313,295.5469 Q23.1563,295.5469 23.75,295.2813 Q24.3438,295 24.9688,294.4219 L24.9688,297.1406 Z " fill="#000000"/><text fill="#000000" font-family="sans-serif" font-size="14" lengthAdjust="spacing" textLength="295.0117" x="36" y="296.3467">comp_arc_sta__baselibs__memory_shared</text><line style="stroke:#181818;stroke-width:0.5;" x1="8" x2="333.0117" y1="307.5" y2="307.5"/></g><!--link Feature_User to logic_arc_int__baselibs__message_passing--><g id="link_Feature_User_logic_arc_int__baselibs__message_passing"><path codeLine="15" d="M3084.5,45.75 C3287.14,51.46 4135.18,76.36 4830.5,111.5 C5158.75,128.09 5240.99,130.99 5568.5,158.5 C5574.36,158.99 5574.344,158.9739 5580.364,159.5139 " fill="transparent" id="Feature_User-to-logic_arc_int__baselibs__message_passing" style="stroke:#181818;stroke-width:1;"/><polygon fill="#181818" points="5586.34,160.05,5577.7334,155.2619,5581.36,159.6033,5577.0186,163.2299,5586.34,160.05" style="stroke:#181818;stroke-width:1;"/><text fill="#000000" font-family="sans-serif" font-size="13" lengthAdjust="spacing" textLength="23.0103" x="5151.5" y="124.5669">use</text></g><!--link Feature_User to logic_arc_int__baselibs__utils_base64--><g id="link_Feature_User_logic_arc_int__baselibs__utils_base64"><path codeLine="16" d="M2994.2,46.05 C2816.62,52.23 2150.83,76.53 1603.5,111.5 C1345.85,127.96 1281.43,133.11 1024.5,158.5 C1018.97,159.05 1019.308,159.0012 1013.618,159.5912 " fill="transparent" id="Feature_User-to-logic_arc_int__baselibs__utils_base64" style="stroke:#181818;stroke-width:1;"/><polygon fill="#181818" points="1007.65,160.21,1017.0146,163.2604,1012.6233,159.6943,1016.1895,155.3031,1007.65,160.21" style="stroke:#181818;stroke-width:1;"/><text fill="#000000" font-family="sans-serif" font-size="13" lengthAdjust="spacing" textLength="23.0103" x="1604.5" y="124.5669">use</text></g><!--reverse link logic_arc_int__baselibs__promise to comp_arc_sta__baselibs__concurrency--><g id="link_logic_arc_int__baselibs__promise_comp_arc_sta__baselibs__concurrency"><path codeLine="17" d="M2556.5837,199.5839 C2635.0937,213.0439 2737.26,230.3 2832.5,245.5 C2896.74,255.75 2968.21,266.59 3027.74,275.46 " fill="transparent" id="logic_arc_int__baselibs__promise-backto-comp_arc_sta__baselibs__concurrency" style="stroke:#181818;stroke-width:1;"/><polygon fill="#181818" points="2550.67,198.57,2558.8647,204.0333,2555.5981,199.4149,2560.2165,196.1483,2550.67,198.57" style="stroke:#181818;stroke-width:1;"/><text fill="#000000" font-family="sans-serif" font-size="13" lengthAdjust="spacing" textLength="76.9082" x="2833.5" y="241.5669">implements</text></g><!--link Feature_User to logic_arc_int__baselibs__task_result--><g id="link_Feature_User_logic_arc_int__baselibs__task_result"><path codeLine="18" d="M2994.31,51.14 C2861.66,70.64 2475.7362,127.3476 2269.9662,157.5876 " fill="transparent" id="Feature_User-to-logic_arc_int__baselibs__task_result" style="stroke:#181818;stroke-width:1;"/><polygon fill="#181818" points="2264.03,158.46,2273.516,161.1089,2268.9769,157.733,2272.3528,153.1939,2264.03,158.46" style="stroke:#181818;stroke-width:1;"/><text fill="#000000" font-family="sans-serif" font-size="13" lengthAdjust="spacing" textLength="23.0103" x="2561.5" y="124.5669">use</text></g><!--link Feature_User to logic_arc_int__baselibs__condition_variable--><g id="link_Feature_User_logic_arc_int__baselibs__condition_variable"><path codeLine="19" d="M3084.57,61.48 C3150.55,86.34 3267.4554,130.3842 3336.3954,156.3642 " fill="transparent" id="Feature_User-to-logic_arc_int__baselibs__condition_variable" style="stroke:#181818;stroke-width:1;"/><polygon fill="#181818" points="3342.01,158.48,3334.9987,151.5632,3337.3312,156.7168,3332.1776,159.0493,3342.01,158.48" style="stroke:#181818;stroke-width:1;"/><text fill="#000000" font-family="sans-serif" font-size="13" lengthAdjust="spacing" textLength="23.0103" x="3259.5" y="124.5669">use</text></g><!--reverse link logic_arc_int__baselibs__json to comp_arc_sta__baselibs__json--><g id="link_logic_arc_int__baselibs__json_comp_arc_sta__baselibs__json"><path codeLine="20" d="M6070.9346,204.7491 C6071.3046,225.9791 6071.79,253.94 6072.16,275.19 " fill="transparent" id="logic_arc_int__baselibs__json-backto-comp_arc_sta__baselibs__json" style="stroke:#181818;stroke-width:1;"/><polygon fill="#181818" points="6070.83,198.75,6066.9874,207.8183,6070.9171,203.7492,6074.9862,207.6789,6070.83,198.75" style="stroke:#181818;stroke-width:1;"/><text fill="#000000" font-family="sans-serif" font-size="13" lengthAdjust="spacing" textLength="76.9082" x="6072.5" y="241.5669">implements</text></g><!--link Feature_User to logic_arc_int__baselibs__dynamic_array--><g id="link_Feature_User_logic_arc_int__baselibs__dynamic_array"><path codeLine="21" d="M2994.42,49.28 C2847.77,64.85 2370.9,115.57 1976.5,158.5 C1970.68,159.13 1970.7039,159.1229 1964.7139,159.7829 " fill="transparent" id="Feature_User-to-logic_arc_int__baselibs__dynamic_array" style="stroke:#181818;stroke-width:1;"/><polygon fill="#181818" points="1958.75,160.44,1968.1339,163.4303,1963.7199,159.8924,1967.2578,155.4784,1958.75,160.44" style="stroke:#181818;stroke-width:1;"/><text fill="#000000" font-family="sans-serif" font-size="13" lengthAdjust="spacing" textLength="23.0103" x="2387.5" y="124.5669">use</text></g><!--reverse link logic_arc_int__baselibs__bit_manipulation to comp_arc_sta__baselibs__bit_manipulation--><g id="link_logic_arc_int__baselibs__bit_manipulation_comp_arc_sta__baselibs__bit_manipulation"><path codeLine="22" d="M5354.6118,201.9296 C5320.5418,223.2196 5271.08,254.14 5237.09,275.38 " fill="transparent" id="logic_arc_int__baselibs__bit_manipulation-backto-comp_arc_sta__baselibs__bit_manipulation" style="stroke:#181818;stroke-width:1;"/><polygon fill="#181818" points="5359.7,198.75,5349.9479,200.1272,5355.4598,201.3997,5354.1874,206.9115,5359.7,198.75" style="stroke:#181818;stroke-width:1;"/><text fill="#000000" font-family="sans-serif" font-size="13" lengthAdjust="spacing" textLength="76.9082" x="5311.5" y="241.5669">implements</text></g><!--reverse link logic_arc_int__baselibs__message_passing to comp_arc_sta__baselibs__message_passing--><g id="link_logic_arc_int__baselibs__message_passing_comp_arc_sta__baselibs__message_passing"><path codeLine="23" d="M5749.8418,204.7479 C5749.2818,225.9779 5748.56,253.94 5748,275.19 " fill="transparent" id="logic_arc_int__baselibs__message_passing-backto-comp_arc_sta__baselibs__message_passing" style="stroke:#181818;stroke-width:1;"/><polygon fill="#181818" points="5750,198.75,5745.7641,207.6414,5749.8682,203.7483,5753.7613,207.8523,5750,198.75" style="stroke:#181818;stroke-width:1;"/><text fill="#000000" font-family="sans-serif" font-size="13" lengthAdjust="spacing" textLength="76.9082" x="5750.5" y="241.5669">implements</text></g><!--reverse link logic_arc_int__baselibs__task to comp_arc_sta__baselibs__concurrency--><g id="link_logic_arc_int__baselibs__task_comp_arc_sta__baselibs__concurrency"><path codeLine="24" d="M3613.8352,199.7695 C3511.2752,221.0595 3352.1,254.11 3249.47,275.41 " fill="transparent" id="logic_arc_int__baselibs__task-backto-comp_arc_sta__baselibs__concurrency" style="stroke:#181818;stroke-width:1;"/><polygon fill="#181818" points="3619.71,198.55,3610.0849,196.4628,3614.8144,199.5663,3611.7109,204.2958,3619.71,198.55" style="stroke:#181818;stroke-width:1;"/><text fill="#000000" font-family="sans-serif" font-size="13" lengthAdjust="spacing" textLength="76.9082" x="3469.5" y="241.5669">implements</text></g><!--reverse link logic_arc_int__baselibs__filesystem to comp_arc_sta__baselibs__filesystem--><g id="link_logic_arc_int__baselibs__filesystem_comp_arc_sta__baselibs__filesystem"><path codeLine="25" d="M4685.5,204.75 C4685.5,225.98 4685.5,253.94 4685.5,275.19 " fill="transparent" id="logic_arc_int__baselibs__filesystem-backto-comp_arc_sta__baselibs__filesystem" style="stroke:#181818;stroke-width:1;"/><polygon fill="#181818" points="4685.5,198.75,4681.5,207.75,4685.5,203.75,4689.5,207.75,4685.5,198.75" style="stroke:#181818;stroke-width:1;"/><text fill="#000000" font-family="sans-serif" font-size="13" lengthAdjust="spacing" textLength="76.9082" x="4686.5" y="241.5669">implements</text></g><!--link Feature_User to logic_arc_int__baselibs__intrusive_list--><g id="link_Feature_User_logic_arc_int__baselibs__intrusive_list"><path codeLine="26" d="M2994.5,47.58 C2819.54,59.67 2167.85,105.82 1632.5,158.5 C1626.8,159.06 1626.9479,159.0298 1621.0779,159.6398 " fill="transparent" id="Feature_User-to-logic_arc_int__baselibs__intrusive_list" style="stroke:#181818;stroke-width:1;"/><polygon fill="#181818" points="1615.11,160.26,1624.4752,163.3083,1620.0832,159.7432,1623.6483,155.3512,1615.11,160.26" style="stroke:#181818;stroke-width:1;"/><text fill="#000000" font-family="sans-serif" font-size="13" lengthAdjust="spacing" textLength="23.0103" x="2136.5" y="124.5669">use</text></g><!--link Feature_User to logic_arc_int__baselibs__future--><g id="link_Feature_User_logic_arc_int__baselibs__future"><path codeLine="27" d="M2994.42,63.84 C2935.4,89.16 2838.064,130.9244 2779.394,156.0944 " fill="transparent" id="Feature_User-to-logic_arc_int__baselibs__future" style="stroke:#181818;stroke-width:1;"/><polygon fill="#181818" points="2773.88,158.46,2783.728,158.5877,2778.475,156.4887,2780.574,151.2357,2773.88,158.46" style="stroke:#181818;stroke-width:1;"/><text fill="#000000" font-family="sans-serif" font-size="13" lengthAdjust="spacing" textLength="23.0103" x="2876.5" y="124.5669">use</text></g><!--link Feature_User to logic_arc_int__baselibs__json--><g id="link_Feature_User_logic_arc_int__baselibs__json"><path codeLine="28" d="M3084.78,45.39 C3310.97,49.92 4340.94,71.87 5183.5,111.5 C5516.23,127.15 5600.04,125.48 5931.5,158.5 C5938.77,159.22 5940.2906,159.3435 5947.8206,160.2235 " fill="transparent" id="Feature_User-to-logic_arc_int__baselibs__json" style="stroke:#181818;stroke-width:1;"/><polygon fill="#181818" points="5953.78,160.92,5945.3051,155.9024,5948.8138,160.3396,5944.3765,163.8483,5953.78,160.92" style="stroke:#181818;stroke-width:1;"/><text fill="#000000" font-family="sans-serif" font-size="13" lengthAdjust="spacing" textLength="23.0103" x="5559.5" y="124.5669">use</text></g><!--reverse link logic_arc_int__baselibs__shared_future to comp_arc_sta__baselibs__concurrency--><g id="link_logic_arc_int__baselibs__shared_future_comp_arc_sta__baselibs__concurrency"><path codeLine="29" d="M3063.5465,202.938 C3085.3265,224.168 3115.88,253.94 3137.69,275.19 " fill="transparent" id="logic_arc_int__baselibs__shared_future-backto-comp_arc_sta__baselibs__concurrency" style="stroke:#181818;stroke-width:1;"/><polygon fill="#181818" points="3059.25,198.75,3062.9028,207.8964,3062.8305,202.24,3068.4868,202.1677,3059.25,198.75" style="stroke:#181818;stroke-width:1;"/><text fill="#000000" font-family="sans-serif" font-size="13" lengthAdjust="spacing" textLength="76.9082" x="3107.5" y="241.5669">implements</text></g><!--reverse link logic_arc_int__baselibs__bit_mask_operator to comp_arc_sta__baselibs__bit_manipulation--><g id="link_logic_arc_int__baselibs__bit_mask_operator_comp_arc_sta__baselibs__bit_manipulation"><path codeLine="30" d="M5061.6865,201.9799 C5095.0165,223.2699 5143.33,254.14 5176.57,275.38 " fill="transparent" id="logic_arc_int__baselibs__bit_mask_operator-backto-comp_arc_sta__baselibs__bit_manipulation" style="stroke:#181818;stroke-width:1;"/><polygon fill="#181818" points="5056.63,198.75,5062.0614,206.9658,5060.8437,201.4416,5066.368,200.2239,5056.63,198.75" style="stroke:#181818;stroke-width:1;"/><text fill="#000000" font-family="sans-serif" font-size="13" lengthAdjust="spacing" textLength="76.9082" x="5128.5" y="241.5669">implements</text></g><!--link Feature_User to logic_arc_int__baselibs__memory_shared--><g id="link_Feature_User_logic_arc_int__baselibs__memory_shared"><path codeLine="31" d="M2994.42,45.39 C2776.73,49.84 1812.58,70.97 1023.5,111.5 C722.73,126.95 647.5,131.98 347.5,158.5 C341.65,159.02 341.6632,158.9935 335.6532,159.5635 " fill="transparent" id="Feature_User-to-logic_arc_int__baselibs__memory_shared" style="stroke:#181818;stroke-width:1;"/><polygon fill="#181818" points="329.68,160.13,339.0175,163.2624,334.6577,159.6579,338.2621,155.2981,329.68,160.13" style="stroke:#181818;stroke-width:1;"/><text fill="#000000" font-family="sans-serif" font-size="13" lengthAdjust="spacing" textLength="23.0103" x="1024.5" y="124.5669">use</text></g><!--reverse link logic_arc_int__baselibs__task_result to comp_arc_sta__baselibs__concurrency--><g id="link_logic_arc_int__baselibs__task_result_comp_arc_sta__baselibs__concurrency"><path codeLine="32" d="M2279.9271,199.3151 C2383.6671,213.1851 2522.83,231.17 2650.5,245.5 C2770.35,258.95 2906.38,271.98 3007.35,281.21 " fill="transparent" id="logic_arc_int__baselibs__task_result-backto-comp_arc_sta__baselibs__concurrency" style="stroke:#181818;stroke-width:1;"/><polygon fill="#181818" points="2273.98,198.52,2282.3705,203.6774,2278.9359,199.1826,2283.4307,195.748,2273.98,198.52" style="stroke:#181818;stroke-width:1;"/><text fill="#000000" font-family="sans-serif" font-size="13" lengthAdjust="spacing" textLength="76.9082" x="2651.5" y="241.5669">implements</text></g><!--reverse link logic_arc_int__baselibs__intrusive_list to comp_arc_sta__baselibs__containers--><g id="link_logic_arc_int__baselibs__intrusive_list_comp_arc_sta__baselibs__containers"><path codeLine="33" d="M1491.8035,203.0117 C1512.8435,224.2417 1542.29,253.94 1563.36,275.19 " fill="transparent" id="logic_arc_int__baselibs__intrusive_list-backto-comp_arc_sta__baselibs__containers" style="stroke:#181818;stroke-width:1;"/><polygon fill="#181818" points="1487.58,198.75,1491.0742,207.9582,1491.0996,202.3014,1496.7564,202.3268,1487.58,198.75" style="stroke:#181818;stroke-width:1;"/><text fill="#000000" font-family="sans-serif" font-size="13" lengthAdjust="spacing" textLength="76.9082" x="1533.5" y="241.5669">implements</text></g><!--reverse link logic_arc_int__baselibs__synchronized_queue to comp_arc_sta__baselibs__concurrency--><g id="link_logic_arc_int__baselibs__synchronized_queue_comp_arc_sta__baselibs__concurrency"><path codeLine="34" d="M4174.5111,199.2112 C4056.2111,213.1312 3896.32,231.29 3750.5,245.5 C3600,260.16 3427.74,274.08 3307.8,283.3 " fill="transparent" id="logic_arc_int__baselibs__synchronized_queue-backto-comp_arc_sta__baselibs__concurrency" style="stroke:#181818;stroke-width:1;"/><polygon fill="#181818" points="4180.47,198.51,4171.0642,195.5892,4175.5043,199.0943,4171.9991,203.5343,4180.47,198.51" style="stroke:#181818;stroke-width:1;"/><text fill="#000000" font-family="sans-serif" font-size="13" lengthAdjust="spacing" textLength="76.9082" x="3913.5" y="241.5669">implements</text></g><!--link Feature_User to logic_arc_int__baselibs__promise--><g id="link_Feature_User_logic_arc_int__baselibs__promise"><path codeLine="35" d="M2994.48,54.5 C2895.03,76.58 2661.1174,128.5198 2532.0474,157.1698 " fill="transparent" id="Feature_User-to-logic_arc_int__baselibs__promise" style="stroke:#181818;stroke-width:1;"/><polygon fill="#181818" points="2526.19,158.47,2535.8429,160.4247,2531.0712,157.3865,2534.1094,152.6148,2526.19,158.47" style="stroke:#181818;stroke-width:1;"/><text fill="#000000" font-family="sans-serif" font-size="13" lengthAdjust="spacing" textLength="23.0103" x="2723.5" y="124.5669">use</text></g><!--reverse link logic_arc_int__baselibs__result to comp_arc_sta__baselibs__result--><g id="link_logic_arc_int__baselibs__result_comp_arc_sta__baselibs__result"><path codeLine="36" d="M1164.5,204.75 C1164.5,225.98 1164.5,253.94 1164.5,275.19 " fill="transparent" id="logic_arc_int__baselibs__result-backto-comp_arc_sta__baselibs__result" style="stroke:#181818;stroke-width:1;"/><polygon fill="#181818" points="1164.5,198.75,1160.5,207.75,1164.5,203.75,1168.5,207.75,1164.5,198.75" style="stroke:#181818;stroke-width:1;"/><text fill="#000000" font-family="sans-serif" font-size="13" lengthAdjust="spacing" textLength="76.9082" x="1165.5" y="241.5669">implements</text></g><!--reverse link logic_arc_int__baselibs__dynamic_array to comp_arc_sta__baselibs__containers--><g id="link_logic_arc_int__baselibs__dynamic_array_comp_arc_sta__baselibs__containers"><path codeLine="37" d="M1762.2627,201.3803 C1721.2127,222.6503 1660.59,254.05 1619.5,275.34 " fill="transparent" id="logic_arc_int__baselibs__dynamic_array-backto-comp_arc_sta__baselibs__containers" style="stroke:#181818;stroke-width:1;"/><polygon fill="#181818" points="1767.59,198.62,1757.7588,199.209,1763.1506,200.9203,1761.4392,206.3121,1767.59,198.62" style="stroke:#181818;stroke-width:1;"/><text fill="#000000" font-family="sans-serif" font-size="13" lengthAdjust="spacing" textLength="76.9082" x="1708.5" y="241.5669">implements</text></g><!--link Feature_User to logic_arc_int__baselibs__shared_future--><g id="link_Feature_User_logic_arc_int__baselibs__shared_future"><path codeLine="38" d="M3039.5,81.55 C3039.5,106.45 3039.5,132.26 3039.5,152.26 " fill="transparent" id="Feature_User-to-logic_arc_int__baselibs__shared_future" style="stroke:#181818;stroke-width:1;"/><polygon fill="#181818" points="3039.5,158.26,3043.5,149.26,3039.5,153.26,3035.5,149.26,3039.5,158.26" style="stroke:#181818;stroke-width:1;"/><text fill="#000000" font-family="sans-serif" font-size="13" lengthAdjust="spacing" textLength="23.0103" x="3040.5" y="124.5669">use</text></g><!--reverse link logic_arc_int__baselibs__executor to comp_arc_sta__baselibs__concurrency--><g id="link_logic_arc_int__baselibs__executor_comp_arc_sta__baselibs__concurrency"><path codeLine="39" d="M3868.7399,199.4532 C3780.0399,213.1132 3662.89,230.72 3554.5,245.5 C3473.13,256.59 3382.23,267.89 3307.96,276.84 " fill="transparent" id="logic_arc_int__baselibs__executor-backto-comp_arc_sta__baselibs__concurrency" style="stroke:#181818;stroke-width:1;"/><polygon fill="#181818" points="3874.67,198.54,3865.166,195.9565,3869.7283,199.301,3866.3837,203.8633,3874.67,198.54" style="stroke:#181818;stroke-width:1;"/><text fill="#000000" font-family="sans-serif" font-size="13" lengthAdjust="spacing" textLength="76.9082" x="3665.5" y="241.5669">implements</text></g><!--link Feature_User to logic_arc_int__baselibs__utils_scoped_op--><g id="link_Feature_User_logic_arc_int__baselibs__utils_scoped_op"><path codeLine="40" d="M2994.22,45.69 C2796.69,51.01 1990.6,73.98 1329.5,111.5 C1048.29,127.46 977.99,132.85 697.5,158.5 C691.87,159.01 692.1121,158.9724 686.3221,159.5324 " fill="transparent" id="Feature_User-to-logic_arc_int__baselibs__utils_scoped_op" style="stroke:#181818;stroke-width:1;"/><polygon fill="#181818" points="680.35,160.11,689.6933,163.225,685.3268,159.6287,688.9231,155.2622,680.35,160.11" style="stroke:#181818;stroke-width:1;"/><text fill="#000000" font-family="sans-serif" font-size="13" lengthAdjust="spacing" textLength="23.0103" x="1330.5" y="124.5669">use</text></g><!--reverse link logic_arc_int__baselibs__utils_scoped_op to comp_arc_sta__baselibs__utils--><g id="link_logic_arc_int__baselibs__utils_scoped_op_comp_arc_sta__baselibs__utils"><path codeLine="41" d="M555.7506,202.1252 C587.0406,223.4152 632.19,254.14 663.4,275.38 " fill="transparent" id="logic_arc_int__baselibs__utils_scoped_op-backto-comp_arc_sta__baselibs__utils" style="stroke:#181818;stroke-width:1;"/><polygon fill="#181818" points="550.79,198.75,555.9808,207.1199,554.9238,201.5627,560.4811,200.5058,550.79,198.75" style="stroke:#181818;stroke-width:1;"/><text fill="#000000" font-family="sans-serif" font-size="13" lengthAdjust="spacing" textLength="76.9082" x="618.5" y="241.5669">implements</text></g><!--reverse link logic_arc_int__baselibs__condition_variable to comp_arc_sta__baselibs__concurrency--><g id="link_logic_arc_int__baselibs__condition_variable_comp_arc_sta__baselibs__concurrency"><path codeLine="42" d="M3348.0408,201.2576 C3304.5808,222.5276 3240.16,254.05 3196.66,275.34 " fill="transparent" id="logic_arc_int__baselibs__condition_variable-backto-comp_arc_sta__baselibs__concurrency" style="stroke:#181818;stroke-width:1;"/><polygon fill="#181818" points="3353.43,198.62,3343.5879,198.9835,3348.939,200.818,3347.1046,206.1691,3353.43,198.62" style="stroke:#181818;stroke-width:1;"/><text fill="#000000" font-family="sans-serif" font-size="13" lengthAdjust="spacing" textLength="76.9082" x="3290.5" y="241.5669">implements</text></g><!--link Feature_User to logic_arc_int__baselibs__filesystem--><g id="link_Feature_User_logic_arc_int__baselibs__filesystem"><path codeLine="43" d="M3084.67,47.21 C3266.21,58.28 3960.23,102.08 4529.5,158.5 C4535.34,159.08 4535.3247,159.0459 4541.3447,159.6959 " fill="transparent" id="Feature_User-to-logic_arc_int__baselibs__filesystem" style="stroke:#181818;stroke-width:1;"/><polygon fill="#181818" points="4547.31,160.34,4538.7914,155.397,4542.3389,159.8033,4537.9326,163.3507,4547.31,160.34" style="stroke:#181818;stroke-width:1;"/><text fill="#000000" font-family="sans-serif" font-size="13" lengthAdjust="spacing" textLength="23.0103" x="4204.5" y="124.5669">use</text></g><!--link Feature_User to logic_arc_int__baselibs__task--><g id="link_Feature_User_logic_arc_int__baselibs__task"><path codeLine="44" d="M3084.64,53.43 C3192.71,74.82 3462.3742,128.195 3609.5442,157.325 " fill="transparent" id="Feature_User-to-logic_arc_int__baselibs__task" style="stroke:#181818;stroke-width:1;"/><polygon fill="#181818" points="3615.43,158.49,3607.378,152.8186,3610.5252,157.5192,3605.8246,160.6664,3615.43,158.49" style="stroke:#181818;stroke-width:1;"/><text fill="#000000" font-family="sans-serif" font-size="13" lengthAdjust="spacing" textLength="23.0103" x="3456.5" y="124.5669">use</text></g><!--link Feature_User to logic_arc_int__baselibs__result--><g id="link_Feature_User_logic_arc_int__baselibs__result"><path codeLine="45" d="M2994.49,46.19 C2795.48,53.91 1974.78,88.59 1304.5,158.5 C1298.64,159.11 1298.6202,159.0804 1292.5702,159.7804 " fill="transparent" id="Feature_User-to-logic_arc_int__baselibs__result" style="stroke:#181818;stroke-width:1;"/><polygon fill="#181818" points="1286.61,160.47,1296.0101,163.4091,1291.5769,159.8953,1295.0906,155.4621,1286.61,160.47" style="stroke:#181818;stroke-width:1;"/><text fill="#000000" font-family="sans-serif" font-size="13" lengthAdjust="spacing" textLength="23.0103" x="1829.5" y="124.5669">use</text></g><!--link Feature_User to logic_arc_int__baselibs__bit_manipulation--><g id="link_Feature_User_logic_arc_int__baselibs__bit_manipulation"><path codeLine="46" d="M3084.67,45.78 C3312.53,52.46 4358.37,85.87 5211.5,158.5 C5217.26,158.99 5217.1448,158.965 5223.0648,159.505 " fill="transparent" id="Feature_User-to-logic_arc_int__baselibs__bit_manipulation" style="stroke:#181818;stroke-width:1;"/><polygon fill="#181818" points="5229.04,160.05,5220.4406,155.249,5224.0607,159.5958,5219.7139,163.2159,5229.04,160.05" style="stroke:#181818;stroke-width:1;"/><text fill="#000000" font-family="sans-serif" font-size="13" lengthAdjust="spacing" textLength="23.0103" x="4798.5" y="124.5669">use</text></g><!--link Feature_User to logic_arc_int__baselibs__bit_mask_operator--><g id="link_Feature_User_logic_arc_int__baselibs__bit_mask_operator"><path codeLine="47" d="M3084.8,46.48 C3288.78,55.59 4142.31,95.68 4840.5,158.5 C4846.48,159.04 4846.5956,159.0463 4852.7456,159.6163 " fill="transparent" id="Feature_User-to-logic_arc_int__baselibs__bit_mask_operator" style="stroke:#181818;stroke-width:1;"/><polygon fill="#181818" points="4858.72,160.17,4850.1276,155.3565,4853.7413,159.7086,4849.3893,163.3223,4858.72,160.17" style="stroke:#181818;stroke-width:1;"/><text fill="#000000" font-family="sans-serif" font-size="13" lengthAdjust="spacing" textLength="23.0103" x="4447.5" y="124.5669">use</text></g><!--link Feature_User to logic_arc_int__baselibs__synchronized_queue--><g id="link_Feature_User_logic_arc_int__baselibs__synchronized_queue"><path codeLine="48" d="M3084.59,49.12 C3254.51,66.51 3855.8312,128.0788 4158.4912,159.0688 " fill="transparent" id="Feature_User-to-logic_arc_int__baselibs__synchronized_queue" style="stroke:#181818;stroke-width:1;"/><polygon fill="#181818" points="4164.46,159.68,4155.9142,154.7841,4159.486,159.1707,4155.0994,162.7425,4164.46,159.68" style="stroke:#181818;stroke-width:1;"/><text fill="#000000" font-family="sans-serif" font-size="13" lengthAdjust="spacing" textLength="23.0103" x="3845.5" y="124.5669">use</text></g><!--reverse link logic_arc_int__baselibs__utils_base64 to comp_arc_sta__baselibs__utils--><g id="link_logic_arc_int__baselibs__utils_base64_comp_arc_sta__baselibs__utils"><path codeLine="49" d="M828.0799,202.1113 C796.5999,223.4013 751.16,254.14 719.76,275.38 " fill="transparent" id="logic_arc_int__baselibs__utils_base64-backto-comp_arc_sta__baselibs__utils" style="stroke:#181818;stroke-width:1;"/><polygon fill="#181818" points="833.05,198.75,823.354,200.4785,828.9083,201.5511,827.8357,207.1053,833.05,198.75" style="stroke:#181818;stroke-width:1;"/><text fill="#000000" font-family="sans-serif" font-size="13" lengthAdjust="spacing" textLength="76.9082" x="788.5" y="241.5669">implements</text></g><!--reverse link logic_arc_int__baselibs__future to comp_arc_sta__baselibs__concurrency--><g id="link_logic_arc_int__baselibs__future_comp_arc_sta__baselibs__concurrency"><path codeLine="50" d="M2806.4545,200.177 C2885.7245,221.477 3007.33,254.15 3086.53,275.43 " fill="transparent" id="logic_arc_int__baselibs__future-backto-comp_arc_sta__baselibs__concurrency" style="stroke:#181818;stroke-width:1;"/><polygon fill="#181818" points="2800.66,198.62,2808.3137,204.8185,2805.4887,199.9175,2810.3897,197.0925,2800.66,198.62" style="stroke:#181818;stroke-width:1;"/><text fill="#000000" font-family="sans-serif" font-size="13" lengthAdjust="spacing" textLength="76.9082" x="2970.5" y="241.5669">implements</text></g><!--reverse link logic_arc_int__baselibs__memory_shared to comp_arc_sta__baselibs__memory_shared--><g id="link_logic_arc_int__baselibs__memory_shared_comp_arc_sta__baselibs__memory_shared"><path codeLine="51" d="M170.5,204.75 C170.5,225.98 170.5,253.94 170.5,275.19 " fill="transparent" id="logic_arc_int__baselibs__memory_shared-backto-comp_arc_sta__baselibs__memory_shared" style="stroke:#181818;stroke-width:1;"/><polygon fill="#181818" points="170.5,198.75,166.5,207.75,170.5,203.75,174.5,207.75,170.5,198.75" style="stroke:#181818;stroke-width:1;"/><text fill="#000000" font-family="sans-serif" font-size="13" lengthAdjust="spacing" textLength="76.9082" x="171.5" y="241.5669">implements</text></g><!--link Feature_User to logic_arc_int__baselibs__executor--><g id="link_Feature_User_logic_arc_int__baselibs__executor"><path codeLine="52" d="M3084.69,50.78 C3223.17,70.03 3639.4071,127.8742 3857.3071,158.1542 " fill="transparent" id="Feature_User-to-logic_arc_int__baselibs__executor" style="stroke:#181818;stroke-width:1;"/><polygon fill="#181818" points="3863.25,158.98,3854.8862,153.7793,3858.2976,158.2918,3853.7851,161.7032,3863.25,158.98" style="stroke:#181818;stroke-width:1;"/><text fill="#000000" font-family="sans-serif" font-size="13" lengthAdjust="spacing" textLength="23.0103" x="3633.5" y="124.5669">use</text></g><!--SRC=[jLPDSzGm3BtdLtXwty8m38TEfnTcEFK8Pu_YgBkY_WYMN1eO_ZjETccRRQat9XoLoFAJzFHai3PyruxkoMyR2RsIeDeW4fpgAA8H2hxPKOUA1IC66NhSs-Xw6HI8H6gJ83UNB8F5g-OSc6ohVZRNvF5Zi26gYDraVTwHkVN8hDwTlsr-DPTl3cSQC9BzpZuXI8gelZ36CmMi3X_q-44rpSpST9ihPSEMZ8PeD7dHkWL6IorhxV8ri4NT0tDExa8bHhKaG1AoFDaVtXzEc-3woPK5dhgQu4sA4RqPr2Qz5hIFmH7ZXIBNMtJeXHU14k1R7P6JbUKPPPWTZHtLTn09Mek5lBvoy8M4HfVgRBh1Wvj-HHWAM5eIxS1JdooCEHHm7RlFCVxjaYFI5EvuHh5JhZYTAsElJujvGnPvo1Fg2Y4V7QjxbisOcEvGM-8A4jwaqNFvkJtHLXf3ta7Mf0SifzIuYdzvM4EF4RAuLHVSeGjnE41UhG8p8JcHjm9PmoCN8XyJPDsXuC6RNGoUVkJ-VKkOwhNqGOjVBUc-HWLK_wMGH-fOcUKHrLUY3zwZIV_2wlrsPPF7eyipKW0sUHSWFOkuBl5UMfwLkJzLuQKok5yAIq_LlXYURz6w23CTN1hYfP5VYIr_NdVhKcN9MfcfU_6zCTi4bUnx7DsfYBy1]--></g></svg>