<svg xmlns="http://www.w3.org/2000/svg" xmlns:xlink="http://www.w3.org/1999/xlink" contentStyleType="text/css" data-diagram-type="DESCRIPTION" height="219px" preserveAspectRatio="none" style="width:204px;height:219px;background:#FFFFFF;" version="1.1" viewBox="0 0 204 219" width="204px" zoomAndPan="magnify"><defs/><g><!--cluster process_description\n+ docs_as_code--><g id="cluster_process_description\n+ docs_as_code"><path d="M6,16 C6,6 96.5,6 96.5,6 C96.5,6 187,6 187,16 L187,192 C187,202 96.5,202 96.5,202 C96.5,202 6,202 6,192 L6,16 " fill="transparent" style="stroke:#181818;stroke-width:1;"/><path d="M6,16 C6,26 96.5,26 96.5,26 C96.5,26 187,26 187,16 " fill="transparent" style="stroke:#181818;stroke-width:1;"/><text fill="#000000" font-family="sans-serif" font-size="14" font-weight="bold" lengthAdjust="spacing" textLength="156.9531" x="18.0234" y="40.9951">process_description</text><text fill="#000000" font-family="sans-serif" font-size="14" font-weight="bold" lengthAdjust="spacing" textLength="122.0898" x="35.4551" y="57.292">+ docs_as_code</text></g><!--entity yaml--><g id="elem_yaml"><rect fill="#F1F1F1" height="39.2969" rx="2.5" ry="2.5" style="stroke:#181818;stroke-width:0.5;" width="148.7539" x="22" y="72.5"/><polygon fill="#F1F1F1" points="153.7539,77.5,153.7539,91.5,165.7539,91.5,165.7539,83.5,159.7539,77.5,153.7539,77.5" style="stroke:#181818;stroke-width:0.5;"/><line style="stroke:#181818;stroke-width:0.5;" x1="159.7539" x2="159.7539" y1="77.5" y2="83.5"/><line style="stroke:#181818;stroke-width:0.5;" x1="165.7539" x2="159.7539" y1="83.5" y2="83.5"/><text fill="#000000" font-family="sans-serif" font-size="14" lengthAdjust="spacing" textLength="118.7539" x="32" y="98.4951">metamodel.yaml</text></g><!--entity examples--><g id="elem_examples"><rect fill="#F1F1F1" height="39.2969" rx="2.5" ry="2.5" style="stroke:#181818;stroke-width:0.5;" width="97.7988" x="47.5" y="146.5"/><polygon fill="#F1F1F1" points="128.2988,151.5,128.2988,165.5,140.2988,165.5,140.2988,157.5,134.2988,151.5,128.2988,151.5" style="stroke:#181818;stroke-width:0.5;"/><line style="stroke:#181818;stroke-width:0.5;" x1="134.2988" x2="134.2988" y1="151.5" y2="157.5"/><line style="stroke:#181818;stroke-width:0.5;" x1="140.2988" x2="134.2988" y1="157.5" y2="157.5"/><text fill="#000000" font-family="sans-serif" font-size="14" lengthAdjust="spacing" textLength="67.7988" x="57.5" y="172.4951">examples</text></g><!--SRC=[LOgn2iCm30LtVyKZQo5VL32ghBG2EpAIXfJIVsypPZgukovR8WskprUYgGkdsbuQ9Jqe1CjqOuceJO9Tvrdl-mtDE2f5PMkou5C0aATkn8aXIUFl-_gcqK61avT53XgpIvJl3m00]--></g></svg>