<svg width="1793" height="2399" xmlns="http://www.w3.org/2000/svg" xmlns:xlink="http://www.w3.org/1999/xlink" xml:space="preserve" overflow="hidden"><g transform="translate(-218 -35)"><rect x="250.5" y="1243.5" width="1757" height="1157" stroke="#042433" stroke-width="6.875" stroke-miterlimit="8" fill="#FFFFFF"/><text font-family="Aptos,Aptos_MSFontService,sans-serif" font-weight="400" font-size="83" transform="matrix(1 0 0 1 268.052 2361)">SOME/IP Network </text><text font-family="Aptos,Aptos_MSFontService,sans-serif" font-weight="400" font-size="83" transform="matrix(1 0 0 1 916.365 2361)">Daemon</text><text font-family="Aptos,Aptos_MSFontService,sans-serif" font-weight="400" font-size="83" transform="matrix(1 0 0 1 1238.25 2361)">(QM)</text><rect x="494.5" y="1810.5" width="1287" height="346" stroke="#042433" stroke-width="6.875" stroke-miterlimit="8" fill="#156082"/><text fill="#FFFFFF" font-family="Aptos,Aptos_MSFontService,sans-serif" font-weight="700" font-size="83" transform="matrix(1 0 0 1 972.571 2009)">vSomeIP</text><rect x="250.5" y="45.4999" width="1757" height="887" stroke="#042433" stroke-width="6.875" stroke-miterlimit="8" fill="#FFFFFF"/><path d="M447.5 870.5 643.5 674.5 839.5 870.5 741.5 870.5 741.5 1364.5 839.5 1364.5 643.5 1560.5 447.5 1364.5 545.5 1364.5 545.5 870.5Z" stroke="#410C3B" stroke-width="6.875" stroke-miterlimit="8" fill="#A02B93" fill-rule="evenodd"/><text fill="#FFFFFF" font-family="Aptos,Aptos_MSFontService,sans-serif" font-weight="700" font-size="83" transform="matrix(6.12323e-17 -1 1 6.12323e-17 669.349 1306)">DATA Path</text><path d="M1491.5 853.5 1687.5 657.5 1883.5 853.5 1785.5 853.5 1785.5 1347.5 1883.5 1347.5 1687.5 1543.5 1491.5 1347.5 1589.5 1347.5 1589.5 853.5Z" stroke="#024059" stroke-width="6.875" stroke-miterlimit="8" fill="#0F9ED5" fill-rule="evenodd"/><text fill="#FFFFFF" font-family="Aptos,Aptos_MSFontService,sans-serif" font-weight="700" font-size="83" transform="matrix(6.12323e-17 -1 1 6.12323e-17 1713.63 1380)">CONTROL Path</text><text font-family="Aptos,Aptos_MSFontService,sans-serif" font-weight="400" font-size="83" transform="matrix(1 0 0 1 282.633 136)">SOME/IP Gateway | S</text><text font-family="Aptos,Aptos_MSFontService,sans-serif" font-weight="400" font-size="83" transform="matrix(1 0 0 1 1028.11 136)">-</text><text font-family="Aptos,Aptos_MSFontService,sans-serif" font-weight="400" font-size="83" transform="matrix(1 0 0 1 1056.18 136)">CORE App</text><rect x="526.5" y="469.5" width="1287" height="174" stroke="#622C0F" stroke-width="6.875" stroke-miterlimit="8" fill="#E97132"/><text fill="#FFFFFF" font-family="Aptos,Aptos_MSFontService,sans-serif" font-weight="700" font-size="83" transform="matrix(1 0 0 1 772.269 583)">Network </text><text fill="#FFFFFF" font-family="Aptos,Aptos_MSFontService,sans-serif" font-weight="700" font-size="83" transform="matrix(1 0 0 1 1107.77 583)">Deamon</text><text fill="#FFFFFF" font-family="Aptos,Aptos_MSFontService,sans-serif" font-weight="700" font-size="83" transform="matrix(1 0 0 1 1442.35 583)">API</text><rect x="495.5" y="1637.5" width="1287" height="173" stroke="#622C0F" stroke-width="6.875" stroke-miterlimit="8" fill="#E97132"/><text fill="#FFFFFF" font-family="Aptos,Aptos_MSFontService,sans-serif" font-weight="700" font-size="83" transform="matrix(1 0 0 1 684.238 1750)">vSomeIP</text><text fill="#FFFFFF" font-family="Aptos,Aptos_MSFontService,sans-serif" font-weight="700" font-size="83" transform="matrix(1 0 0 1 1031.43 1750)">Adaption Layer</text></g></svg>