<svg xmlns="http://www.w3.org/2000/svg" xmlns:xlink="http://www.w3.org/1999/xlink" contentStyleType="text/css" data-diagram-type="CLASS" height="322px" preserveAspectRatio="none" style="width:6206px;height:322px;background:#FFFFFF;" version="1.1" viewBox="0 0 6206 322" width="6206px" zoomAndPan="magnify"><defs/><g><!--entity Feature_User--><g id="elem_Feature_User"><ellipse cx="3083.6685" cy="14" fill="#F1F1F1" rx="8" ry="8" style="stroke:#181818;stroke-width:0.5;"/><path d="M3083.6685,22 L3083.6685,49 M3070.6685,30 L3096.6685,30 M3083.6685,49 L3070.6685,64 M3083.6685,49 L3096.6685,64 " fill="transparent" style="stroke:#181818;stroke-width:0.5;"/><text fill="#000000" font-family="sans-serif" font-size="14" lengthAdjust="spacing" textLength="90.3369" x="3038.5" y="78.4951">Feature User</text></g><!--class logic_arc_int__baselibs__condition_variable--><g id="elem_logic_arc_int__baselibs__condition_variable"><rect fill="#F1F1F1" height="40" id="logic_arc_int__baselibs__condition_variable" rx="2.5" ry="2.5" style="stroke:#181818;stroke-width:0.5;" width="332.7539" x="1381" y="158.5"/><ellipse cx="1396" cy="174.5" fill="#ADD1B2" rx="11" ry="11" style="stroke:#181818;stroke-width:1;"/><path d="M1398.9688,180.1406 Q1398.3906,180.4375 1397.75,180.5781 Q1397.1094,180.7344 1396.4063,180.7344 Q1393.9063,180.7344 1392.5781,179.0938 Q1391.2656,177.4375 1391.2656,174.3125 Q1391.2656,171.1875 1392.5781,169.5313 Q1393.9063,167.875 1396.4063,167.875 Q1397.1094,167.875 1397.75,168.0313 Q1398.4063,168.1875 1398.9688,168.4844 L1398.9688,171.2031 Q1398.3438,170.625 1397.75,170.3594 Q1397.1563,170.0781 1396.5313,170.0781 Q1395.1875,170.0781 1394.5,171.1563 Q1393.8125,172.2188 1393.8125,174.3125 Q1393.8125,176.4063 1394.5,177.4844 Q1395.1875,178.5469 1396.5313,178.5469 Q1397.1563,178.5469 1397.75,178.2813 Q1398.3438,178 1398.9688,177.4219 L1398.9688,180.1406 Z " fill="#000000"/><text fill="#000000" font-family="sans-serif" font-size="14" lengthAdjust="spacing" textLength="300.7539" x="1410" y="179.3467">logic_arc_int__baselibs__condition_variable</text><line style="stroke:#181818;stroke-width:0.5;" x1="1382" x2="1712.7539" y1="190.5" y2="190.5"/></g><!--class logic_arc_int__baselibs__future--><g id="elem_logic_arc_int__baselibs__future"><rect fill="#F1F1F1" height="40" id="logic_arc_int__baselibs__future" rx="2.5" ry="2.5" style="stroke:#181818;stroke-width:0.5;" width="247.0791" x="2051" y="158.5"/><ellipse cx="2066" cy="174.5" fill="#ADD1B2" rx="11" ry="11" style="stroke:#181818;stroke-width:1;"/><path d="M2068.9688,180.1406 Q2068.3906,180.4375 2067.75,180.5781 Q2067.1094,180.7344 2066.4063,180.7344 Q2063.9063,180.7344 2062.5781,179.0938 Q2061.2656,177.4375 2061.2656,174.3125 Q2061.2656,171.1875 2062.5781,169.5313 Q2063.9063,167.875 2066.4063,167.875 Q2067.1094,167.875 2067.75,168.0313 Q2068.4063,168.1875 2068.9688,168.4844 L2068.9688,171.2031 Q2068.3438,170.625 2067.75,170.3594 Q2067.1563,170.0781 2066.5313,170.0781 Q2065.1875,170.0781 2064.5,171.1563 Q2063.8125,172.2188 2063.8125,174.3125 Q2063.8125,176.4063 2064.5,177.4844 Q2065.1875,178.5469 2066.5313,178.5469 Q2067.1563,178.5469 2067.75,178.2813 Q2068.3438,178 2068.9688,177.4219 L2068.9688,180.1406 Z " fill="#000000"/><text fill="#000000" font-family="sans-serif" font-size="14" lengthAdjust="spacing" textLength="215.0791" x="2080" y="179.3467">logic_arc_int__baselibs__future</text><line style="stroke:#181818;stroke-width:0.5;" x1="2052" x2="2297.0791" y1="190.5" y2="190.5"/></g><!--class comp_arc_sta__baselibs__result--><g id="elem_comp_arc_sta__baselibs__result"><rect fill="#F1F1F1" height="40" id="comp_arc_sta__baselibs__result" rx="2.5" ry="2.5" style="stroke:#181818;stroke-width:0.5;" width="253.4297" x="5946" y="275.5"/><ellipse cx="5961" cy="291.5" fill="#ADD1B2" rx="11" ry="11" style="stroke:#181818;stroke-width:1;"/><path d="M5963.9688,297.1406 Q5963.3906,297.4375 5962.75,297.5781 Q5962.1094,297.7344 5961.4063,297.7344 Q5958.9063,297.7344 5957.5781,296.0938 Q5956.2656,294.4375 5956.2656,291.3125 Q5956.2656,288.1875 5957.5781,286.5313 Q5958.9063,284.875 5961.4063,284.875 Q5962.1094,284.875 5962.75,285.0313 Q5963.4063,285.1875 5963.9688,285.4844 L5963.9688,288.2031 Q5963.3438,287.625 5962.75,287.3594 Q5962.1563,287.0781 5961.5313,287.0781 Q5960.1875,287.0781 5959.5,288.1563 Q5958.8125,289.2188 5958.8125,291.3125 Q5958.8125,293.4063 5959.5,294.4844 Q5960.1875,295.5469 5961.5313,295.5469 Q5962.1563,295.5469 5962.75,295.2813 Q5963.3438,295 5963.9688,294.4219 L5963.9688,297.1406 Z " fill="#000000"/><text fill="#000000" font-family="sans-serif" font-size="14" lengthAdjust="spacing" textLength="221.4297" x="5975" y="296.3467">comp_arc_sta__baselibs__result</text><line style="stroke:#181818;stroke-width:0.5;" x1="5947" x2="6198.4297" y1="307.5" y2="307.5"/></g><!--class logic_arc_int__baselibs__result--><g id="elem_logic_arc_int__baselibs__result"><rect fill="#F1F1F1" height="40" id="logic_arc_int__baselibs__result" rx="2.5" ry="2.5" style="stroke:#181818;stroke-width:0.5;" width="244.4609" x="5948.5" y="158.5"/><ellipse cx="5963.5" cy="174.5" fill="#ADD1B2" rx="11" ry="11" style="stroke:#181818;stroke-width:1;"/><path d="M5966.4688,180.1406 Q5965.8906,180.4375 5965.25,180.5781 Q5964.6094,180.7344 5963.9063,180.7344 Q5961.4063,180.7344 5960.0781,179.0938 Q5958.7656,177.4375 5958.7656,174.3125 Q5958.7656,171.1875 5960.0781,169.5313 Q5961.4063,167.875 5963.9063,167.875 Q5964.6094,167.875 5965.25,168.0313 Q5965.9063,168.1875 5966.4688,168.4844 L5966.4688,171.2031 Q5965.8438,170.625 5965.25,170.3594 Q5964.6563,170.0781 5964.0313,170.0781 Q5962.6875,170.0781 5962,171.1563 Q5961.3125,172.2188 5961.3125,174.3125 Q5961.3125,176.4063 5962,177.4844 Q5962.6875,178.5469 5964.0313,178.5469 Q5964.6563,178.5469 5965.25,178.2813 Q5965.8438,178 5966.4688,177.4219 L5966.4688,180.1406 Z " fill="#000000"/><text fill="#000000" font-family="sans-serif" font-size="14" lengthAdjust="spacing" textLength="212.4609" x="5977.5" y="179.3467">logic_arc_int__baselibs__result</text><line style="stroke:#181818;stroke-width:0.5;" x1="5949.5" x2="6191.9609" y1="190.5" y2="190.5"/></g><!--class comp_arc_sta__baselibs__bit_manipulation--><g id="elem_comp_arc_sta__baselibs__bit_manipulation"><rect fill="#F1F1F1" height="40" id="comp_arc_sta__baselibs__bit_manipulation" rx="2.5" ry="2.5" style="stroke:#181818;stroke-width:0.5;" width="330.8057" x="4089" y="275.5"/><ellipse cx="4104" cy="291.5" fill="#ADD1B2" rx="11" ry="11" style="stroke:#181818;stroke-width:1;"/><path d="M4106.9688,297.1406 Q4106.3906,297.4375 4105.75,297.5781 Q4105.1094,297.7344 4104.4063,297.7344 Q4101.9063,297.7344 4100.5781,296.0938 Q4099.2656,294.4375 4099.2656,291.3125 Q4099.2656,288.1875 4100.5781,286.5313 Q4101.9063,284.875 4104.4063,284.875 Q4105.1094,284.875 4105.75,285.0313 Q4106.4063,285.1875 4106.9688,285.4844 L4106.9688,288.2031 Q4106.3438,287.625 4105.75,287.3594 Q4105.1563,287.0781 4104.5313,287.0781 Q4103.1875,287.0781 4102.5,288.1563 Q4101.8125,289.2188 4101.8125,291.3125 Q4101.8125,293.4063 4102.5,294.4844 Q4103.1875,295.5469 4104.5313,295.5469 Q4105.1563,295.5469 4105.75,295.2813 Q4106.3438,295 4106.9688,294.4219 L4106.9688,297.1406 Z " fill="#000000"/><text fill="#000000" font-family="sans-serif" font-size="14" lengthAdjust="spacing" textLength="298.8057" x="4118" y="296.3467">comp_arc_sta__baselibs__bit_manipulation</text><line style="stroke:#181818;stroke-width:0.5;" x1="4090" x2="4418.8057" y1="307.5" y2="307.5"/></g><!--class logic_arc_int__baselibs__bit_manipulation--><g id="elem_logic_arc_int__baselibs__bit_manipulation"><rect fill="#F1F1F1" height="40" id="logic_arc_int__baselibs__bit_manipulation" rx="2.5" ry="2.5" style="stroke:#181818;stroke-width:0.5;" width="321.8369" x="3913.5" y="158.5"/><ellipse cx="3928.5" cy="174.5" fill="#ADD1B2" rx="11" ry="11" style="stroke:#181818;stroke-width:1;"/><path d="M3931.4688,180.1406 Q3930.8906,180.4375 3930.25,180.5781 Q3929.6094,180.7344 3928.9063,180.7344 Q3926.4063,180.7344 3925.0781,179.0938 Q3923.7656,177.4375 3923.7656,174.3125 Q3923.7656,171.1875 3925.0781,169.5313 Q3926.4063,167.875 3928.9063,167.875 Q3929.6094,167.875 3930.25,168.0313 Q3930.9063,168.1875 3931.4688,168.4844 L3931.4688,171.2031 Q3930.8438,170.625 3930.25,170.3594 Q3929.6563,170.0781 3929.0313,170.0781 Q3927.6875,170.0781 3927,171.1563 Q3926.3125,172.2188 3926.3125,174.3125 Q3926.3125,176.4063 3927,177.4844 Q3927.6875,178.5469 3929.0313,178.5469 Q3929.6563,178.5469 3930.25,178.2813 Q3930.8438,178 3931.4688,177.4219 L3931.4688,180.1406 Z " fill="#000000"/><text fill="#000000" font-family="sans-serif" font-size="14" lengthAdjust="spacing" textLength="289.8369" x="3942.5" y="179.3467">logic_arc_int__baselibs__bit_manipulation</text><line style="stroke:#181818;stroke-width:0.5;" x1="3914.5" x2="4234.3369" y1="190.5" y2="190.5"/></g><!--class comp_arc_sta__baselibs__message_passing--><g id="elem_comp_arc_sta__baselibs__message_passing"><rect fill="#F1F1F1" height="40" id="comp_arc_sta__baselibs__message_passing" rx="2.5" ry="2.5" style="stroke:#181818;stroke-width:0.5;" width="337.1357" x="5574" y="275.5"/><ellipse cx="5589" cy="291.5" fill="#ADD1B2" rx="11" ry="11" style="stroke:#181818;stroke-width:1;"/><path d="M5591.9688,297.1406 Q5591.3906,297.4375 5590.75,297.5781 Q5590.1094,297.7344 5589.4063,297.7344 Q5586.9063,297.7344 5585.5781,296.0938 Q5584.2656,294.4375 5584.2656,291.3125 Q5584.2656,288.1875 5585.5781,286.5313 Q5586.9063,284.875 5589.4063,284.875 Q5590.1094,284.875 5590.75,285.0313 Q5591.4063,285.1875 5591.9688,285.4844 L5591.9688,288.2031 Q5591.3438,287.625 5590.75,287.3594 Q5590.1563,287.0781 5589.5313,287.0781 Q5588.1875,287.0781 5587.5,288.1563 Q5586.8125,289.2188 5586.8125,291.3125 Q5586.8125,293.4063 5587.5,294.4844 Q5588.1875,295.5469 5589.5313,295.5469 Q5590.1563,295.5469 5590.75,295.2813 Q5591.3438,295 5591.9688,294.4219 L5591.9688,297.1406 Z " fill="#000000"/><text fill="#000000" font-family="sans-serif" font-size="14" lengthAdjust="spacing" textLength="305.1357" x="5603" y="296.3467">comp_arc_sta__baselibs__message_passing</text><line style="stroke:#181818;stroke-width:0.5;" x1="5575" x2="5910.1357" y1="307.5" y2="307.5"/></g><!--class logic_arc_int__baselibs__message_passing--><g id="elem_logic_arc_int__baselibs__message_passing"><rect fill="#F1F1F1" height="40" id="logic_arc_int__baselibs__message_passing" rx="2.5" ry="2.5" style="stroke:#181818;stroke-width:0.5;" width="328.167" x="5581.5" y="158.5"/><ellipse cx="5596.5" cy="174.5" fill="#ADD1B2" rx="11" ry="11" style="stroke:#181818;stroke-width:1;"/><path d="M5599.4688,180.1406 Q5598.8906,180.4375 5598.25,180.5781 Q5597.6094,180.7344 5596.9063,180.7344 Q5594.4063,180.7344 5593.0781,179.0938 Q5591.7656,177.4375 5591.7656,174.3125 Q5591.7656,171.1875 5593.0781,169.5313 Q5594.4063,167.875 5596.9063,167.875 Q5597.6094,167.875 5598.25,168.0313 Q5598.9063,168.1875 5599.4688,168.4844 L5599.4688,171.2031 Q5598.8438,170.625 5598.25,170.3594 Q5597.6563,170.0781 5597.0313,170.0781 Q5595.6875,170.0781 5595,171.1563 Q5594.3125,172.2188 5594.3125,174.3125 Q5594.3125,176.4063 5595,177.4844 Q5595.6875,178.5469 5597.0313,178.5469 Q5597.6563,178.5469 5598.25,178.2813 Q5598.8438,178 5599.4688,177.4219 L5599.4688,180.1406 Z " fill="#000000"/><text fill="#000000" font-family="sans-serif" font-size="14" lengthAdjust="spacing" textLength="296.167" x="5610.5" y="179.3467">logic_arc_int__baselibs__message_passing</text><line style="stroke:#181818;stroke-width:0.5;" x1="5582.5" x2="5908.667" y1="190.5" y2="190.5"/></g><!--class comp_arc_sta__baselibs__containers--><g id="elem_comp_arc_sta__baselibs__containers"><rect fill="#F1F1F1" height="40" id="comp_arc_sta__baselibs__containers" rx="2.5" ry="2.5" style="stroke:#181818;stroke-width:0.5;" width="287.1445" x="5087" y="275.5"/><ellipse cx="5102" cy="291.5" fill="#ADD1B2" rx="11" ry="11" style="stroke:#181818;stroke-width:1;"/><path d="M5104.9688,297.1406 Q5104.3906,297.4375 5103.75,297.5781 Q5103.1094,297.7344 5102.4063,297.7344 Q5099.9063,297.7344 5098.5781,296.0938 Q5097.2656,294.4375 5097.2656,291.3125 Q5097.2656,288.1875 5098.5781,286.5313 Q5099.9063,284.875 5102.4063,284.875 Q5103.1094,284.875 5103.75,285.0313 Q5104.4063,285.1875 5104.9688,285.4844 L5104.9688,288.2031 Q5104.3438,287.625 5103.75,287.3594 Q5103.1563,287.0781 5102.5313,287.0781 Q5101.1875,287.0781 5100.5,288.1563 Q5099.8125,289.2188 5099.8125,291.3125 Q5099.8125,293.4063 5100.5,294.4844 Q5101.1875,295.5469 5102.5313,295.5469 Q5103.1563,295.5469 5103.75,295.2813 Q5104.3438,295 5104.9688,294.4219 L5104.9688,297.1406 Z " fill="#000000"/><text fill="#000000" font-family="sans-serif" font-size="14" lengthAdjust="spacing" textLength="255.1445" x="5116" y="296.3467">comp_arc_sta__baselibs__containers</text><line style="stroke:#181818;stroke-width:0.5;" x1="5088" x2="5373.1445" y1="307.5" y2="307.5"/></g><!--class logic_arc_int__baselibs__dynamic_array--><g id="elem_logic_arc_int__baselibs__dynamic_array"><rect fill="#F1F1F1" height="40" id="logic_arc_int__baselibs__dynamic_array" rx="2.5" ry="2.5" style="stroke:#181818;stroke-width:0.5;" width="308.3496" x="4909.5" y="158.5"/><ellipse cx="4924.5" cy="174.5" fill="#ADD1B2" rx="11" ry="11" style="stroke:#181818;stroke-width:1;"/><path d="M4927.4688,180.1406 Q4926.8906,180.4375 4926.25,180.5781 Q4925.6094,180.7344 4924.9063,180.7344 Q4922.4063,180.7344 4921.0781,179.0938 Q4919.7656,177.4375 4919.7656,174.3125 Q4919.7656,171.1875 4921.0781,169.5313 Q4922.4063,167.875 4924.9063,167.875 Q4925.6094,167.875 4926.25,168.0313 Q4926.9063,168.1875 4927.4688,168.4844 L4927.4688,171.2031 Q4926.8438,170.625 4926.25,170.3594 Q4925.6563,170.0781 4925.0313,170.0781 Q4923.6875,170.0781 4923,171.1563 Q4922.3125,172.2188 4922.3125,174.3125 Q4922.3125,176.4063 4923,177.4844 Q4923.6875,178.5469 4925.0313,178.5469 Q4925.6563,178.5469 4926.25,178.2813 Q4926.8438,178 4927.4688,177.4219 L4927.4688,180.1406 Z " fill="#000000"/><text fill="#000000" font-family="sans-serif" font-size="14" lengthAdjust="spacing" textLength="276.3496" x="4938.5" y="179.3467">logic_arc_int__baselibs__dynamic_array</text><line style="stroke:#181818;stroke-width:0.5;" x1="4910.5" x2="5216.8496" y1="190.5" y2="190.5"/></g><!--class comp_arc_sta__baselibs__json--><g id="elem_comp_arc_sta__baselibs__json"><rect fill="#F1F1F1" height="40" id="comp_arc_sta__baselibs__json" rx="2.5" ry="2.5" style="stroke:#181818;stroke-width:0.5;" width="242.1367" x="4636.5" y="275.5"/><ellipse cx="4651.5" cy="291.5" fill="#ADD1B2" rx="11" ry="11" style="stroke:#181818;stroke-width:1;"/><path d="M4654.4688,297.1406 Q4653.8906,297.4375 4653.25,297.5781 Q4652.6094,297.7344 4651.9063,297.7344 Q4649.4063,297.7344 4648.0781,296.0938 Q4646.7656,294.4375 4646.7656,291.3125 Q4646.7656,288.1875 4648.0781,286.5313 Q4649.4063,284.875 4651.9063,284.875 Q4652.6094,284.875 4653.25,285.0313 Q4653.9063,285.1875 4654.4688,285.4844 L4654.4688,288.2031 Q4653.8438,287.625 4653.25,287.3594 Q4652.6563,287.0781 4652.0313,287.0781 Q4650.6875,287.0781 4650,288.1563 Q4649.3125,289.2188 4649.3125,291.3125 Q4649.3125,293.4063 4650,294.4844 Q4650.6875,295.5469 4652.0313,295.5469 Q4652.6563,295.5469 4653.25,295.2813 Q4653.8438,295 4654.4688,294.4219 L4654.4688,297.1406 Z " fill="#000000"/><text fill="#000000" font-family="sans-serif" font-size="14" lengthAdjust="spacing" textLength="210.1367" x="4665.5" y="296.3467">comp_arc_sta__baselibs__json</text><line style="stroke:#181818;stroke-width:0.5;" x1="4637.5" x2="4877.6367" y1="307.5" y2="307.5"/></g><!--class logic_arc_int__baselibs__json--><g id="elem_logic_arc_int__baselibs__json"><rect fill="#F1F1F1" height="40" id="logic_arc_int__baselibs__json" rx="2.5" ry="2.5" style="stroke:#181818;stroke-width:0.5;" width="233.168" x="4641" y="158.5"/><ellipse cx="4656" cy="174.5" fill="#ADD1B2" rx="11" ry="11" style="stroke:#181818;stroke-width:1;"/><path d="M4658.9688,180.1406 Q4658.3906,180.4375 4657.75,180.5781 Q4657.1094,180.7344 4656.4063,180.7344 Q4653.9063,180.7344 4652.5781,179.0938 Q4651.2656,177.4375 4651.2656,174.3125 Q4651.2656,171.1875 4652.5781,169.5313 Q4653.9063,167.875 4656.4063,167.875 Q4657.1094,167.875 4657.75,168.0313 Q4658.4063,168.1875 4658.9688,168.4844 L4658.9688,171.2031 Q4658.3438,170.625 4657.75,170.3594 Q4657.1563,170.0781 4656.5313,170.0781 Q4655.1875,170.0781 4654.5,171.1563 Q4653.8125,172.2188 4653.8125,174.3125 Q4653.8125,176.4063 4654.5,177.4844 Q4655.1875,178.5469 4656.5313,178.5469 Q4657.1563,178.5469 4657.75,178.2813 Q4658.3438,178 4658.9688,177.4219 L4658.9688,180.1406 Z " fill="#000000"/><text fill="#000000" font-family="sans-serif" font-size="14" lengthAdjust="spacing" textLength="201.168" x="4670" y="179.3467">logic_arc_int__baselibs__json</text><line style="stroke:#181818;stroke-width:0.5;" x1="4642" x2="4873.168" y1="190.5" y2="190.5"/></g><!--class logic_arc_int__baselibs__intrusive_list--><g id="elem_logic_arc_int__baselibs__intrusive_list"><rect fill="#F1F1F1" height="40" id="logic_arc_int__baselibs__intrusive_list" rx="2.5" ry="2.5" style="stroke:#181818;stroke-width:0.5;" width="293.0713" x="5253" y="158.5"/><ellipse cx="5268" cy="174.5" fill="#ADD1B2" rx="11" ry="11" style="stroke:#181818;stroke-width:1;"/><path d="M5270.9688,180.1406 Q5270.3906,180.4375 5269.75,180.5781 Q5269.1094,180.7344 5268.4063,180.7344 Q5265.9063,180.7344 5264.5781,179.0938 Q5263.2656,177.4375 5263.2656,174.3125 Q5263.2656,171.1875 5264.5781,169.5313 Q5265.9063,167.875 5268.4063,167.875 Q5269.1094,167.875 5269.75,168.0313 Q5270.4063,168.1875 5270.9688,168.4844 L5270.9688,171.2031 Q5270.3438,170.625 5269.75,170.3594 Q5269.1563,170.0781 5268.5313,170.0781 Q5267.1875,170.0781 5266.5,171.1563 Q5265.8125,172.2188 5265.8125,174.3125 Q5265.8125,176.4063 5266.5,177.4844 Q5267.1875,178.5469 5268.5313,178.5469 Q5269.1563,178.5469 5269.75,178.2813 Q5270.3438,178 5270.9688,177.4219 L5270.9688,180.1406 Z " fill="#000000"/><text fill="#000000" font-family="sans-serif" font-size="14" lengthAdjust="spacing" textLength="261.0713" x="5282" y="179.3467">logic_arc_int__baselibs__intrusive_list</text><line style="stroke:#181818;stroke-width:0.5;" x1="5254" x2="5545.0713" y1="190.5" y2="190.5"/></g><!--class comp_arc_sta__baselibs__concurrency--><g id="elem_comp_arc_sta__baselibs__concurrency"><rect fill="#F1F1F1" height="40" id="comp_arc_sta__baselibs__concurrency" rx="2.5" ry="2.5" style="stroke:#181818;stroke-width:0.5;" width="300.2012" x="1835.5" y="275.5"/><ellipse cx="1850.5" cy="291.5" fill="#ADD1B2" rx="11" ry="11" style="stroke:#181818;stroke-width:1;"/><path d="M1853.4688,297.1406 Q1852.8906,297.4375 1852.25,297.5781 Q1851.6094,297.7344 1850.9063,297.7344 Q1848.4063,297.7344 1847.0781,296.0938 Q1845.7656,294.4375 1845.7656,291.3125 Q1845.7656,288.1875 1847.0781,286.5313 Q1848.4063,284.875 1850.9063,284.875 Q1851.6094,284.875 1852.25,285.0313 Q1852.9063,285.1875 1853.4688,285.4844 L1853.4688,288.2031 Q1852.8438,287.625 1852.25,287.3594 Q1851.6563,287.0781 1851.0313,287.0781 Q1849.6875,287.0781 1849,288.1563 Q1848.3125,289.2188 1848.3125,291.3125 Q1848.3125,293.4063 1849,294.4844 Q1849.6875,295.5469 1851.0313,295.5469 Q1851.6563,295.5469 1852.25,295.2813 Q1852.8438,295 1853.4688,294.4219 L1853.4688,297.1406 Z " fill="#000000"/><text fill="#000000" font-family="sans-serif" font-size="14" lengthAdjust="spacing" textLength="268.2012" x="1864.5" y="296.3467">comp_arc_sta__baselibs__concurrency</text><line style="stroke:#181818;stroke-width:0.5;" x1="1836.5" x2="2134.7012" y1="307.5" y2="307.5"/></g><!--class logic_arc_int__baselibs__task--><g id="elem_logic_arc_int__baselibs__task"><rect fill="#F1F1F1" height="40" id="logic_arc_int__baselibs__task" rx="2.5" ry="2.5" style="stroke:#181818;stroke-width:0.5;" width="234.0156" x="2966.5" y="158.5"/><ellipse cx="2981.5" cy="174.5" fill="#ADD1B2" rx="11" ry="11" style="stroke:#181818;stroke-width:1;"/><path d="M2984.4688,180.1406 Q2983.8906,180.4375 2983.25,180.5781 Q2982.6094,180.7344 2981.9063,180.7344 Q2979.4063,180.7344 2978.0781,179.0938 Q2976.7656,177.4375 2976.7656,174.3125 Q2976.7656,171.1875 2978.0781,169.5313 Q2979.4063,167.875 2981.9063,167.875 Q2982.6094,167.875 2983.25,168.0313 Q2983.9063,168.1875 2984.4688,168.4844 L2984.4688,171.2031 Q2983.8438,170.625 2983.25,170.3594 Q2982.6563,170.0781 2982.0313,170.0781 Q2980.6875,170.0781 2980,171.1563 Q2979.3125,172.2188 2979.3125,174.3125 Q2979.3125,176.4063 2980,177.4844 Q2980.6875,178.5469 2982.0313,178.5469 Q2982.6563,178.5469 2983.25,178.2813 Q2983.8438,178 2984.4688,177.4219 L2984.4688,180.1406 Z " fill="#000000"/><text fill="#000000" font-family="sans-serif" font-size="14" lengthAdjust="spacing" textLength="202.0156" x="2995.5" y="179.3467">logic_arc_int__baselibs__task</text><line style="stroke:#181818;stroke-width:0.5;" x1="2967.5" x2="3199.5156" y1="190.5" y2="190.5"/></g><!--class comp_arc_sta__baselibs__utils--><g id="elem_comp_arc_sta__baselibs__utils"><rect fill="#F1F1F1" height="40" id="comp_arc_sta__baselibs__utils" rx="2.5" ry="2.5" style="stroke:#181818;stroke-width:0.5;" width="242.9502" x="3414" y="275.5"/><ellipse cx="3429" cy="291.5" fill="#ADD1B2" rx="11" ry="11" style="stroke:#181818;stroke-width:1;"/><path d="M3431.9688,297.1406 Q3431.3906,297.4375 3430.75,297.5781 Q3430.1094,297.7344 3429.4063,297.7344 Q3426.9063,297.7344 3425.5781,296.0938 Q3424.2656,294.4375 3424.2656,291.3125 Q3424.2656,288.1875 3425.5781,286.5313 Q3426.9063,284.875 3429.4063,284.875 Q3430.1094,284.875 3430.75,285.0313 Q3431.4063,285.1875 3431.9688,285.4844 L3431.9688,288.2031 Q3431.3438,287.625 3430.75,287.3594 Q3430.1563,287.0781 3429.5313,287.0781 Q3428.1875,287.0781 3427.5,288.1563 Q3426.8125,289.2188 3426.8125,291.3125 Q3426.8125,293.4063 3427.5,294.4844 Q3428.1875,295.5469 3429.5313,295.5469 Q3430.1563,295.5469 3430.75,295.2813 Q3431.3438,295 3431.9688,294.4219 L3431.9688,297.1406 Z " fill="#000000"/><text fill="#000000" font-family="sans-serif" font-size="14" lengthAdjust="spacing" textLength="210.9502" x="3443" y="296.3467">comp_arc_sta__baselibs__utils</text><line style="stroke:#181818;stroke-width:0.5;" x1="3415" x2="3655.9502" y1="307.5" y2="307.5"/></g><!--class logic_arc_int__baselibs__utils_base64--><g id="elem_logic_arc_int__baselibs__utils_base64"><rect fill="#F1F1F1" height="40" id="logic_arc_int__baselibs__utils_base64" rx="2.5" ry="2.5" style="stroke:#181818;stroke-width:0.5;" width="292.1689" x="3586.5" y="158.5"/><ellipse cx="3601.5" cy="174.5" fill="#ADD1B2" rx="11" ry="11" style="stroke:#181818;stroke-width:1;"/><path d="M3604.4688,180.1406 Q3603.8906,180.4375 3603.25,180.5781 Q3602.6094,180.7344 3601.9063,180.7344 Q3599.4063,180.7344 3598.0781,179.0938 Q3596.7656,177.4375 3596.7656,174.3125 Q3596.7656,171.1875 3598.0781,169.5313 Q3599.4063,167.875 3601.9063,167.875 Q3602.6094,167.875 3603.25,168.0313 Q3603.9063,168.1875 3604.4688,168.4844 L3604.4688,171.2031 Q3603.8438,170.625 3603.25,170.3594 Q3602.6563,170.0781 3602.0313,170.0781 Q3600.6875,170.0781 3600,171.1563 Q3599.3125,172.2188 3599.3125,174.3125 Q3599.3125,176.4063 3600,177.4844 Q3600.6875,178.5469 3602.0313,178.5469 Q3602.6563,178.5469 3603.25,178.2813 Q3603.8438,178 3604.4688,177.4219 L3604.4688,180.1406 Z " fill="#000000"/><text fill="#000000" font-family="sans-serif" font-size="14" lengthAdjust="spacing" textLength="260.1689" x="3615.5" y="179.3467">logic_arc_int__baselibs__utils_base64</text><line style="stroke:#181818;stroke-width:0.5;" x1="3587.5" x2="3877.6689" y1="190.5" y2="190.5"/></g><!--class logic_arc_int__baselibs__task_result--><g id="elem_logic_arc_int__baselibs__task_result"><rect fill="#F1F1F1" height="40" id="logic_arc_int__baselibs__task_result" rx="2.5" ry="2.5" style="stroke:#181818;stroke-width:0.5;" width="280.9307" x="1065" y="158.5"/><ellipse cx="1080" cy="174.5" fill="#ADD1B2" rx="11" ry="11" style="stroke:#181818;stroke-width:1;"/><path d="M1082.9688,180.1406 Q1082.3906,180.4375 1081.75,180.5781 Q1081.1094,180.7344 1080.4063,180.7344 Q1077.9063,180.7344 1076.5781,179.0938 Q1075.2656,177.4375 1075.2656,174.3125 Q1075.2656,171.1875 1076.5781,169.5313 Q1077.9063,167.875 1080.4063,167.875 Q1081.1094,167.875 1081.75,168.0313 Q1082.4063,168.1875 1082.9688,168.4844 L1082.9688,171.2031 Q1082.3438,170.625 1081.75,170.3594 Q1081.1563,170.0781 1080.5313,170.0781 Q1079.1875,170.0781 1078.5,171.1563 Q1077.8125,172.2188 1077.8125,174.3125 Q1077.8125,176.4063 1078.5,177.4844 Q1079.1875,178.5469 1080.5313,178.5469 Q1081.1563,178.5469 1081.75,178.2813 Q1082.3438,178 1082.9688,177.4219 L1082.9688,180.1406 Z " fill="#000000"/><text fill="#000000" font-family="sans-serif" font-size="14" lengthAdjust="spacing" textLength="248.9307" x="1094" y="179.3467">logic_arc_int__baselibs__task_result</text><line style="stroke:#181818;stroke-width:0.5;" x1="1066" x2="1344.9307" y1="190.5" y2="190.5"/></g><!--class logic_arc_int__baselibs__promise--><g id="elem_logic_arc_int__baselibs__promise"><rect fill="#F1F1F1" height="40" id="logic_arc_int__baselibs__promise" rx="2.5" ry="2.5" style="stroke:#181818;stroke-width:0.5;" width="261.1885" x="2333" y="158.5"/><ellipse cx="2348" cy="174.5" fill="#ADD1B2" rx="11" ry="11" style="stroke:#181818;stroke-width:1;"/><path d="M2350.9688,180.1406 Q2350.3906,180.4375 2349.75,180.5781 Q2349.1094,180.7344 2348.4063,180.7344 Q2345.9063,180.7344 2344.5781,179.0938 Q2343.2656,177.4375 2343.2656,174.3125 Q2343.2656,171.1875 2344.5781,169.5313 Q2345.9063,167.875 2348.4063,167.875 Q2349.1094,167.875 2349.75,168.0313 Q2350.4063,168.1875 2350.9688,168.4844 L2350.9688,171.2031 Q2350.3438,170.625 2349.75,170.3594 Q2349.1563,170.0781 2348.5313,170.0781 Q2347.1875,170.0781 2346.5,171.1563 Q2345.8125,172.2188 2345.8125,174.3125 Q2345.8125,176.4063 2346.5,177.4844 Q2347.1875,178.5469 2348.5313,178.5469 Q2349.1563,178.5469 2349.75,178.2813 Q2350.3438,178 2350.9688,177.4219 L2350.9688,180.1406 Z " fill="#000000"/><text fill="#000000" font-family="sans-serif" font-size="14" lengthAdjust="spacing" textLength="229.1885" x="2362" y="179.3467">logic_arc_int__baselibs__promise</text><line style="stroke:#181818;stroke-width:0.5;" x1="2334" x2="2593.1885" y1="190.5" y2="190.5"/></g><!--class logic_arc_int__baselibs__memory_shared--><g id="elem_logic_arc_int__baselibs__memory_shared"><rect fill="#F1F1F1" height="40" id="logic_arc_int__baselibs__memory_shared" rx="2.5" ry="2.5" style="stroke:#181818;stroke-width:0.5;" width="318.043" x="15.5" y="158.5"/><ellipse cx="30.5" cy="174.5" fill="#ADD1B2" rx="11" ry="11" style="stroke:#181818;stroke-width:1;"/><path d="M33.4688,180.1406 Q32.8906,180.4375 32.25,180.5781 Q31.6094,180.7344 30.9063,180.7344 Q28.4063,180.7344 27.0781,179.0938 Q25.7656,177.4375 25.7656,174.3125 Q25.7656,171.1875 27.0781,169.5313 Q28.4063,167.875 30.9063,167.875 Q31.6094,167.875 32.25,168.0313 Q32.9063,168.1875 33.4688,168.4844 L33.4688,171.2031 Q32.8438,170.625 32.25,170.3594 Q31.6563,170.0781 31.0313,170.0781 Q29.6875,170.0781 29,171.1563 Q28.3125,172.2188 28.3125,174.3125 Q28.3125,176.4063 29,177.4844 Q29.6875,178.5469 31.0313,178.5469 Q31.6563,178.5469 32.25,178.2813 Q32.8438,178 33.4688,177.4219 L33.4688,180.1406 Z " fill="#000000"/><text fill="#000000" font-family="sans-serif" font-size="14" lengthAdjust="spacing" textLength="286.043" x="44.5" y="179.3467">logic_arc_int__baselibs__memory_shared</text><line style="stroke:#181818;stroke-width:0.5;" x1="16.5" x2="332.543" y1="190.5" y2="190.5"/></g><!--class logic_arc_int__baselibs__executor--><g id="elem_logic_arc_int__baselibs__executor"><rect fill="#F1F1F1" height="40" id="logic_arc_int__baselibs__executor" rx="2.5" ry="2.5" style="stroke:#181818;stroke-width:0.5;" width="266.4385" x="1749.5" y="158.5"/><ellipse cx="1764.5" cy="174.5" fill="#ADD1B2" rx="11" ry="11" style="stroke:#181818;stroke-width:1;"/><path d="M1767.4688,180.1406 Q1766.8906,180.4375 1766.25,180.5781 Q1765.6094,180.7344 1764.9063,180.7344 Q1762.4063,180.7344 1761.0781,179.0938 Q1759.7656,177.4375 1759.7656,174.3125 Q1759.7656,171.1875 1761.0781,169.5313 Q1762.4063,167.875 1764.9063,167.875 Q1765.6094,167.875 1766.25,168.0313 Q1766.9063,168.1875 1767.4688,168.4844 L1767.4688,171.2031 Q1766.8438,170.625 1766.25,170.3594 Q1765.6563,170.0781 1765.0313,170.0781 Q1763.6875,170.0781 1763,171.1563 Q1762.3125,172.2188 1762.3125,174.3125 Q1762.3125,176.4063 1763,177.4844 Q1763.6875,178.5469 1765.0313,178.5469 Q1765.6563,178.5469 1766.25,178.2813 Q1766.8438,178 1767.4688,177.4219 L1767.4688,180.1406 Z " fill="#000000"/><text fill="#000000" font-family="sans-serif" font-size="14" lengthAdjust="spacing" textLength="234.4385" x="1778.5" y="179.3467">logic_arc_int__baselibs__executor</text><line style="stroke:#181818;stroke-width:0.5;" x1="1750.5" x2="2014.9385" y1="190.5" y2="190.5"/></g><!--class logic_arc_int__baselibs__utils_scoped_op--><g id="elem_logic_arc_int__baselibs__utils_scoped_op"><rect fill="#F1F1F1" height="40" id="logic_arc_int__baselibs__utils_scoped_op" rx="2.5" ry="2.5" style="stroke:#181818;stroke-width:0.5;" width="315.377" x="3236" y="158.5"/><ellipse cx="3251" cy="174.5" fill="#ADD1B2" rx="11" ry="11" style="stroke:#181818;stroke-width:1;"/><path d="M3253.9688,180.1406 Q3253.3906,180.4375 3252.75,180.5781 Q3252.1094,180.7344 3251.4063,180.7344 Q3248.9063,180.7344 3247.5781,179.0938 Q3246.2656,177.4375 3246.2656,174.3125 Q3246.2656,171.1875 3247.5781,169.5313 Q3248.9063,167.875 3251.4063,167.875 Q3252.1094,167.875 3252.75,168.0313 Q3253.4063,168.1875 3253.9688,168.4844 L3253.9688,171.2031 Q3253.3438,170.625 3252.75,170.3594 Q3252.1563,170.0781 3251.5313,170.0781 Q3250.1875,170.0781 3249.5,171.1563 Q3248.8125,172.2188 3248.8125,174.3125 Q3248.8125,176.4063 3249.5,177.4844 Q3250.1875,178.5469 3251.5313,178.5469 Q3252.1563,178.5469 3252.75,178.2813 Q3253.3438,178 3253.9688,177.4219 L3253.9688,180.1406 Z " fill="#000000"/><text fill="#000000" font-family="sans-serif" font-size="14" lengthAdjust="spacing" textLength="283.377" x="3265" y="179.3467">logic_arc_int__baselibs__utils_scoped_op</text><line style="stroke:#181818;stroke-width:0.5;" x1="3237" x2="3550.377" y1="190.5" y2="190.5"/></g><!--class logic_arc_int__baselibs__bit_mask_operator--><g id="elem_logic_arc_int__baselibs__bit_mask_operator"><rect fill="#F1F1F1" height="40" id="logic_arc_int__baselibs__bit_mask_operator" rx="2.5" ry="2.5" style="stroke:#181818;stroke-width:0.5;" width="334.6406" x="4271" y="158.5"/><ellipse cx="4286" cy="174.5" fill="#ADD1B2" rx="11" ry="11" style="stroke:#181818;stroke-width:1;"/><path d="M4288.9688,180.1406 Q4288.3906,180.4375 4287.75,180.5781 Q4287.1094,180.7344 4286.4063,180.7344 Q4283.9063,180.7344 4282.5781,179.0938 Q4281.2656,177.4375 4281.2656,174.3125 Q4281.2656,171.1875 4282.5781,169.5313 Q4283.9063,167.875 4286.4063,167.875 Q4287.1094,167.875 4287.75,168.0313 Q4288.4063,168.1875 4288.9688,168.4844 L4288.9688,171.2031 Q4288.3438,170.625 4287.75,170.3594 Q4287.1563,170.0781 4286.5313,170.0781 Q4285.1875,170.0781 4284.5,171.1563 Q4283.8125,172.2188 4283.8125,174.3125 Q4283.8125,176.4063 4284.5,177.4844 Q4285.1875,178.5469 4286.5313,178.5469 Q4287.1563,178.5469 4287.75,178.2813 Q4288.3438,178 4288.9688,177.4219 L4288.9688,180.1406 Z " fill="#000000"/><text fill="#000000" font-family="sans-serif" font-size="14" lengthAdjust="spacing" textLength="302.6406" x="4300" y="179.3467">logic_arc_int__baselibs__bit_mask_operator</text><line style="stroke:#181818;stroke-width:0.5;" x1="4272" x2="4604.6406" y1="190.5" y2="190.5"/></g><!--class comp_arc_sta__baselibs__filesystem--><g id="elem_comp_arc_sta__baselibs__filesystem"><rect fill="#F1F1F1" height="40" id="comp_arc_sta__baselibs__filesystem" rx="2.5" ry="2.5" style="stroke:#181818;stroke-width:0.5;" width="285.4492" x="369" y="275.5"/><ellipse cx="384" cy="291.5" fill="#ADD1B2" rx="11" ry="11" style="stroke:#181818;stroke-width:1;"/><path d="M386.9688,297.1406 Q386.3906,297.4375 385.75,297.5781 Q385.1094,297.7344 384.4063,297.7344 Q381.9063,297.7344 380.5781,296.0938 Q379.2656,294.4375 379.2656,291.3125 Q379.2656,288.1875 380.5781,286.5313 Q381.9063,284.875 384.4063,284.875 Q385.1094,284.875 385.75,285.0313 Q386.4063,285.1875 386.9688,285.4844 L386.9688,288.2031 Q386.3438,287.625 385.75,287.3594 Q385.1563,287.0781 384.5313,287.0781 Q383.1875,287.0781 382.5,288.1563 Q381.8125,289.2188 381.8125,291.3125 Q381.8125,293.4063 382.5,294.4844 Q383.1875,295.5469 384.5313,295.5469 Q385.1563,295.5469 385.75,295.2813 Q386.3438,295 386.9688,294.4219 L386.9688,297.1406 Z " fill="#000000"/><text fill="#000000" font-family="sans-serif" font-size="14" lengthAdjust="spacing" textLength="253.4492" x="398" y="296.3467">comp_arc_sta__baselibs__filesystem</text><line style="stroke:#181818;stroke-width:0.5;" x1="370" x2="653.4492" y1="307.5" y2="307.5"/></g><!--class logic_arc_int__baselibs__filesystem--><g id="elem_logic_arc_int__baselibs__filesystem"><rect fill="#F1F1F1" height="40" id="logic_arc_int__baselibs__filesystem" rx="2.5" ry="2.5" style="stroke:#181818;stroke-width:0.5;" width="276.4805" x="370.5" y="158.5"/><ellipse cx="385.5" cy="174.5" fill="#ADD1B2" rx="11" ry="11" style="stroke:#181818;stroke-width:1;"/><path d="M388.4688,180.1406 Q387.8906,180.4375 387.25,180.5781 Q386.6094,180.7344 385.9063,180.7344 Q383.4063,180.7344 382.0781,179.0938 Q380.7656,177.4375 380.7656,174.3125 Q380.7656,171.1875 382.0781,169.5313 Q383.4063,167.875 385.9063,167.875 Q386.6094,167.875 387.25,168.0313 Q387.9063,168.1875 388.4688,168.4844 L388.4688,171.2031 Q387.8438,170.625 387.25,170.3594 Q386.6563,170.0781 386.0313,170.0781 Q384.6875,170.0781 384,171.1563 Q383.3125,172.2188 383.3125,174.3125 Q383.3125,176.4063 384,177.4844 Q384.6875,178.5469 386.0313,178.5469 Q386.6563,178.5469 387.25,178.2813 Q387.8438,178 388.4688,177.4219 L388.4688,180.1406 Z " fill="#000000"/><text fill="#000000" font-family="sans-serif" font-size="14" lengthAdjust="spacing" textLength="244.4805" x="399.5" y="179.3467">logic_arc_int__baselibs__filesystem</text><line style="stroke:#181818;stroke-width:0.5;" x1="371.5" x2="645.9805" y1="190.5" y2="190.5"/></g><!--class logic_arc_int__baselibs__synchronized_queue--><g id="elem_logic_arc_int__baselibs__synchronized_queue"><rect fill="#F1F1F1" height="40" id="logic_arc_int__baselibs__synchronized_queue" rx="2.5" ry="2.5" style="stroke:#181818;stroke-width:0.5;" width="348.3604" x="681.5" y="158.5"/><ellipse cx="696.5" cy="174.5" fill="#ADD1B2" rx="11" ry="11" style="stroke:#181818;stroke-width:1;"/><path d="M699.4688,180.1406 Q698.8906,180.4375 698.25,180.5781 Q697.6094,180.7344 696.9063,180.7344 Q694.4063,180.7344 693.0781,179.0938 Q691.7656,177.4375 691.7656,174.3125 Q691.7656,171.1875 693.0781,169.5313 Q694.4063,167.875 696.9063,167.875 Q697.6094,167.875 698.25,168.0313 Q698.9063,168.1875 699.4688,168.4844 L699.4688,171.2031 Q698.8438,170.625 698.25,170.3594 Q697.6563,170.0781 697.0313,170.0781 Q695.6875,170.0781 695,171.1563 Q694.3125,172.2188 694.3125,174.3125 Q694.3125,176.4063 695,177.4844 Q695.6875,178.5469 697.0313,178.5469 Q697.6563,178.5469 698.25,178.2813 Q698.8438,178 699.4688,177.4219 L699.4688,180.1406 Z " fill="#000000"/><text fill="#000000" font-family="sans-serif" font-size="14" lengthAdjust="spacing" textLength="316.3604" x="710.5" y="179.3467">logic_arc_int__baselibs__synchronized_queue</text><line style="stroke:#181818;stroke-width:0.5;" x1="682.5" x2="1028.8604" y1="190.5" y2="190.5"/></g><!--class logic_arc_int__baselibs__shared_future--><g id="elem_logic_arc_int__baselibs__shared_future"><rect fill="#F1F1F1" height="40" id="logic_arc_int__baselibs__shared_future" rx="2.5" ry="2.5" style="stroke:#181818;stroke-width:0.5;" width="302.0811" x="2629.5" y="158.5"/><ellipse cx="2644.5" cy="174.5" fill="#ADD1B2" rx="11" ry="11" style="stroke:#181818;stroke-width:1;"/><path d="M2647.4688,180.1406 Q2646.8906,180.4375 2646.25,180.5781 Q2645.6094,180.7344 2644.9063,180.7344 Q2642.4063,180.7344 2641.0781,179.0938 Q2639.7656,177.4375 2639.7656,174.3125 Q2639.7656,171.1875 2641.0781,169.5313 Q2642.4063,167.875 2644.9063,167.875 Q2645.6094,167.875 2646.25,168.0313 Q2646.9063,168.1875 2647.4688,168.4844 L2647.4688,171.2031 Q2646.8438,170.625 2646.25,170.3594 Q2645.6563,170.0781 2645.0313,170.0781 Q2643.6875,170.0781 2643,171.1563 Q2642.3125,172.2188 2642.3125,174.3125 Q2642.3125,176.4063 2643,177.4844 Q2643.6875,178.5469 2645.0313,178.5469 Q2645.6563,178.5469 2646.25,178.2813 Q2646.8438,178 2647.4688,177.4219 L2647.4688,180.1406 Z " fill="#000000"/><text fill="#000000" font-family="sans-serif" font-size="14" lengthAdjust="spacing" textLength="270.0811" x="2658.5" y="179.3467">logic_arc_int__baselibs__shared_future</text><line style="stroke:#181818;stroke-width:0.5;" x1="2630.5" x2="2930.5811" y1="190.5" y2="190.5"/></g><!--class comp_arc_sta__baselibs__memory_shared--><g id="elem_comp_arc_sta__baselibs__memory_shared"><rect fill="#F1F1F1" height="40" id="comp_arc_sta__baselibs__memory_shared" rx="2.5" ry="2.5" style="stroke:#181818;stroke-width:0.5;" width="327.0117" x="7" y="275.5"/><ellipse cx="22" cy="291.5" fill="#ADD1B2" rx="11" ry="11" style="stroke:#181818;stroke-width:1;"/><path d="M24.9688,297.1406 Q24.3906,297.4375 23.75,297.5781 Q23.1094,297.7344 22.4063,297.7344 Q19.9063,297.7344 18.5781,296.0938 Q17.2656,294.4375 17.2656,291.3125 Q17.2656,288.1875 18.5781,286.5313 Q19.9063,284.875 22.4063,284.875 Q23.1094,284.875 23.75,285.0313 Q24.4063,285.1875 24.9688,285.4844 L24.9688,288.2031 Q24.3438,287.625 23.75,287.3594 Q23.1563,287.0781 22.5313,287.0781 Q21.1875,287.0781 20.5,288.1563 Q19.8125,289.2188 19.8125,291.3125 Q19.8125,293.4063 20.5,294.4844 Q21.1875,295.5469 22.5313,295.5469 Q23.1563,295.5469 23.75,295.2813 Q24.3438,295 24.9688,294.4219 L24.9688,297.1406 Z " fill="#000000"/><text fill="#000000" font-family="sans-serif" font-size="14" lengthAdjust="spacing" textLength="295.0117" x="36" y="296.3467">comp_arc_sta__baselibs__memory_shared</text><line style="stroke:#181818;stroke-width:0.5;" x1="8" x2="333.0117" y1="307.5" y2="307.5"/></g><!--link Feature_User to logic_arc_int__baselibs__condition_variable--><g id="link_Feature_User_logic_arc_int__baselibs__condition_variable"><path codeLine="15" d="M3038.25,48.01 C2867.26,61.32 2244.23,110.41 1731.5,158.5 C1725.9,159.02 1726.1826,158.9977 1720.4426,159.5477 " fill="transparent" id="Feature_User-to-logic_arc_int__baselibs__condition_variable" style="stroke:#181818;stroke-width:1;"/><polygon fill="#181818" points="1714.47,160.12,1723.8105,163.2433,1719.4472,159.6431,1723.0474,155.2798,1714.47,160.12" style="stroke:#181818;stroke-width:1;"/><text fill="#000000" font-family="sans-serif" font-size="13" lengthAdjust="spacing" textLength="23.0103" x="2253.5" y="124.5669">use</text></g><!--link Feature_User to logic_arc_int__baselibs__future--><g id="link_Feature_User_logic_arc_int__baselibs__future"><path codeLine="16" d="M3038.42,51.1 C2904.08,70.75 2509.0268,128.5514 2304.0468,158.5414 " fill="transparent" id="Feature_User-to-logic_arc_int__baselibs__future" style="stroke:#181818;stroke-width:1;"/><polygon fill="#181818" points="2298.11,159.41,2307.5943,162.065,2303.0573,158.6862,2306.4361,154.1492,2298.11,159.41" style="stroke:#181818;stroke-width:1;"/><text fill="#000000" font-family="sans-serif" font-size="13" lengthAdjust="spacing" textLength="23.0103" x="2603.5" y="124.5669">use</text></g><!--reverse link logic_arc_int__baselibs__result to comp_arc_sta__baselibs__result--><g id="link_logic_arc_int__baselibs__result_comp_arc_sta__baselibs__result"><path codeLine="17" d="M6070.9346,204.7491 C6071.3046,225.9791 6071.79,253.94 6072.16,275.19 " fill="transparent" id="logic_arc_int__baselibs__result-backto-comp_arc_sta__baselibs__result" style="stroke:#181818;stroke-width:1;"/><polygon fill="#181818" points="6070.83,198.75,6066.9874,207.8183,6070.9171,203.7492,6074.9862,207.6789,6070.83,198.75" style="stroke:#181818;stroke-width:1;"/><text fill="#000000" font-family="sans-serif" font-size="13" lengthAdjust="spacing" textLength="76.9082" x="6072.5" y="241.5669">implements</text></g><!--reverse link logic_arc_int__baselibs__bit_manipulation to comp_arc_sta__baselibs__bit_manipulation--><g id="link_logic_arc_int__baselibs__bit_manipulation_comp_arc_sta__baselibs__bit_manipulation"><path codeLine="18" d="M4109.6865,201.9799 C4143.0165,223.2699 4191.33,254.14 4224.57,275.38 " fill="transparent" id="logic_arc_int__baselibs__bit_manipulation-backto-comp_arc_sta__baselibs__bit_manipulation" style="stroke:#181818;stroke-width:1;"/><polygon fill="#181818" points="4104.63,198.75,4110.0614,206.9658,4108.8437,201.4416,4114.368,200.2239,4104.63,198.75" style="stroke:#181818;stroke-width:1;"/><text fill="#000000" font-family="sans-serif" font-size="13" lengthAdjust="spacing" textLength="76.9082" x="4176.5" y="241.5669">implements</text></g><!--reverse link logic_arc_int__baselibs__message_passing to comp_arc_sta__baselibs__message_passing--><g id="link_logic_arc_int__baselibs__message_passing_comp_arc_sta__baselibs__message_passing"><path codeLine="19" d="M5744.8418,204.7479 C5744.2818,225.9779 5743.56,253.94 5743,275.19 " fill="transparent" id="logic_arc_int__baselibs__message_passing-backto-comp_arc_sta__baselibs__message_passing" style="stroke:#181818;stroke-width:1;"/><polygon fill="#181818" points="5745,198.75,5740.7641,207.6414,5744.8682,203.7483,5748.7613,207.8523,5745,198.75" style="stroke:#181818;stroke-width:1;"/><text fill="#000000" font-family="sans-serif" font-size="13" lengthAdjust="spacing" textLength="76.9082" x="5745.5" y="241.5669">implements</text></g><!--reverse link logic_arc_int__baselibs__dynamic_array to comp_arc_sta__baselibs__containers--><g id="link_logic_arc_int__baselibs__dynamic_array_comp_arc_sta__baselibs__containers"><path codeLine="20" d="M5096.3918,202.1527 C5127.3118,223.4427 5171.89,254.14 5202.74,275.38 " fill="transparent" id="logic_arc_int__baselibs__dynamic_array-backto-comp_arc_sta__baselibs__containers" style="stroke:#181818;stroke-width:1;"/><polygon fill="#181818" points="5091.45,198.75,5096.5943,207.1486,5095.5682,201.5856,5101.1312,200.5595,5091.45,198.75" style="stroke:#181818;stroke-width:1;"/><text fill="#000000" font-family="sans-serif" font-size="13" lengthAdjust="spacing" textLength="76.9082" x="5158.5" y="241.5669">implements</text></g><!--reverse link logic_arc_int__baselibs__json to comp_arc_sta__baselibs__json--><g id="link_logic_arc_int__baselibs__json_comp_arc_sta__baselibs__json"><path codeLine="21" d="M4757.5,204.75 C4757.5,225.98 4757.5,253.94 4757.5,275.19 " fill="transparent" id="logic_arc_int__baselibs__json-backto-comp_arc_sta__baselibs__json" style="stroke:#181818;stroke-width:1;"/><polygon fill="#181818" points="4757.5,198.75,4753.5,207.75,4757.5,203.75,4761.5,207.75,4757.5,198.75" style="stroke:#181818;stroke-width:1;"/><text fill="#000000" font-family="sans-serif" font-size="13" lengthAdjust="spacing" textLength="76.9082" x="4758.5" y="241.5669">implements</text></g><!--reverse link logic_arc_int__baselibs__intrusive_list to comp_arc_sta__baselibs__containers--><g id="link_logic_arc_int__baselibs__intrusive_list_comp_arc_sta__baselibs__containers"><path codeLine="22" d="M5366.2494,202.1252 C5334.9594,223.4152 5289.81,254.14 5258.6,275.38 " fill="transparent" id="logic_arc_int__baselibs__intrusive_list-backto-comp_arc_sta__baselibs__containers" style="stroke:#181818;stroke-width:1;"/><polygon fill="#181818" points="5371.21,198.75,5361.5189,200.5058,5367.0762,201.5627,5366.0192,207.1199,5371.21,198.75" style="stroke:#181818;stroke-width:1;"/><text fill="#000000" font-family="sans-serif" font-size="13" lengthAdjust="spacing" textLength="76.9082" x="5326.5" y="241.5669">implements</text></g><!--reverse link logic_arc_int__baselibs__task to comp_arc_sta__baselibs__concurrency--><g id="link_logic_arc_int__baselibs__task_comp_arc_sta__baselibs__concurrency"><path codeLine="23" d="M2960.5014,196.954 C2954.4314,197.754 2954.37,197.75 2948.5,198.5 C2764.8,221.85 2718.74,226.82 2534.5,245.5 C2399.67,259.17 2246,272.71 2135.6,282.08 " fill="transparent" id="logic_arc_int__baselibs__task-backto-comp_arc_sta__baselibs__concurrency" style="stroke:#181818;stroke-width:1;"/><polygon fill="#181818" points="2966.45,196.17,2957.0045,193.3803,2961.4929,196.8233,2958.0498,201.3117,2966.45,196.17" style="stroke:#181818;stroke-width:1;"/><text fill="#000000" font-family="sans-serif" font-size="13" lengthAdjust="spacing" textLength="76.9082" x="2694.5" y="241.5669">implements</text></g><!--reverse link logic_arc_int__baselibs__utils_base64 to comp_arc_sta__baselibs__utils--><g id="link_logic_arc_int__baselibs__utils_base64_comp_arc_sta__baselibs__utils"><path codeLine="24" d="M3694.3479,201.7743 C3657.8679,223.0643 3604.64,254.14 3568.25,275.38 " fill="transparent" id="logic_arc_int__baselibs__utils_base64-backto-comp_arc_sta__baselibs__utils" style="stroke:#181818;stroke-width:1;"/><polygon fill="#181818" points="3699.53,198.75,3689.7407,199.8317,3695.2116,201.2702,3693.7731,206.7411,3699.53,198.75" style="stroke:#181818;stroke-width:1;"/><text fill="#000000" font-family="sans-serif" font-size="13" lengthAdjust="spacing" textLength="76.9082" x="3647.5" y="241.5669">implements</text></g><!--link Feature_User to logic_arc_int__baselibs__intrusive_list--><g id="link_Feature_User_logic_arc_int__baselibs__intrusive_list"><path codeLine="25" d="M3128.55,46.03 C3311.16,52.34 4013.99,77.57 4591.5,111.5 C4877.55,128.31 4949.22,131.66 5234.5,158.5 C5240.53,159.07 5240.7106,159.0644 5246.9206,159.6944 " fill="transparent" id="Feature_User-to-logic_arc_int__baselibs__intrusive_list" style="stroke:#181818;stroke-width:1;"/><polygon fill="#181818" points="5252.89,160.3,5244.3397,155.412,5247.9155,159.7953,5243.5322,163.3712,5252.89,160.3" style="stroke:#181818;stroke-width:1;"/><text fill="#000000" font-family="sans-serif" font-size="13" lengthAdjust="spacing" textLength="23.0103" x="4871.5" y="124.5669">use</text></g><!--link Feature_User to logic_arc_int__baselibs__task_result--><g id="link_Feature_User_logic_arc_int__baselibs__task_result"><path codeLine="26" d="M3038.24,46.54 C2839.92,55.69 2027.86,95.26 1363.5,158.5 C1357.86,159.04 1358.0782,158.9926 1352.2782,159.5926 " fill="transparent" id="Feature_User-to-logic_arc_int__baselibs__task_result" style="stroke:#181818;stroke-width:1;"/><polygon fill="#181818" points="1346.31,160.21,1355.6738,163.2627,1351.2835,159.6955,1354.8506,155.3051,1346.31,160.21" style="stroke:#181818;stroke-width:1;"/><text fill="#000000" font-family="sans-serif" font-size="13" lengthAdjust="spacing" textLength="23.0103" x="1931.5" y="124.5669">use</text></g><!--link Feature_User to logic_arc_int__baselibs__result--><g id="link_Feature_User_logic_arc_int__baselibs__result"><path codeLine="27" d="M3128.7,45.32 C3354.48,49.54 4382.59,70.24 5223.5,111.5 C5536.27,126.85 5614.89,127.56 5926.5,158.5 C5933.65,159.21 5935.0383,159.3233 5942.4383,160.1633 " fill="transparent" id="Feature_User-to-logic_arc_int__baselibs__result" style="stroke:#181818;stroke-width:1;"/><polygon fill="#181818" points="5948.4,160.84,5939.9086,155.8504,5943.4319,160.2761,5939.0063,163.7994,5948.4,160.84" style="stroke:#181818;stroke-width:1;"/><text fill="#000000" font-family="sans-serif" font-size="13" lengthAdjust="spacing" textLength="23.0103" x="5565.5" y="124.5669">use</text></g><!--reverse link logic_arc_int__baselibs__promise to comp_arc_sta__baselibs__concurrency--><g id="link_logic_arc_int__baselibs__promise_comp_arc_sta__baselibs__concurrency"><path codeLine="28" d="M2378.4665,199.9537 C2289.9865,221.2437 2153.4,254.11 2064.85,275.41 " fill="transparent" id="logic_arc_int__baselibs__promise-backto-comp_arc_sta__baselibs__concurrency" style="stroke:#181818;stroke-width:1;"/><polygon fill="#181818" points="2384.3,198.55,2374.614,196.7665,2379.4387,199.7197,2376.4855,204.5445,2384.3,198.55" style="stroke:#181818;stroke-width:1;"/><text fill="#000000" font-family="sans-serif" font-size="13" lengthAdjust="spacing" textLength="76.9082" x="2254.5" y="241.5669">implements</text></g><!--link Feature_User to logic_arc_int__baselibs__memory_shared--><g id="link_Feature_User_logic_arc_int__baselibs__memory_shared"><path codeLine="29" d="M3038.15,45.43 C2819.18,50.05 1849.33,71.86 1055.5,111.5 C742.75,127.12 664.47,131.43 352.5,158.5 C346.31,159.04 345.9745,159.0575 339.5945,159.6475 " fill="transparent" id="Feature_User-to-logic_arc_int__baselibs__memory_shared" style="stroke:#181818;stroke-width:1;"/><polygon fill="#181818" points="333.62,160.2,342.9501,163.3543,338.5988,159.7396,342.2134,155.3882,333.62,160.2" style="stroke:#181818;stroke-width:1;"/><text fill="#000000" font-family="sans-serif" font-size="13" lengthAdjust="spacing" textLength="23.0103" x="1056.5" y="124.5669">use</text></g><!--reverse link logic_arc_int__baselibs__future to comp_arc_sta__baselibs__concurrency--><g id="link_logic_arc_int__baselibs__future_comp_arc_sta__baselibs__concurrency"><path codeLine="30" d="M2137.7439,201.8681 C2102.7439,223.1581 2051.83,254.14 2016.92,275.38 " fill="transparent" id="logic_arc_int__baselibs__future-backto-comp_arc_sta__baselibs__concurrency" style="stroke:#181818;stroke-width:1;"/><polygon fill="#181818" points="2142.87,198.75,2133.102,200.0098,2138.5982,201.3485,2137.2596,206.8446,2142.87,198.75" style="stroke:#181818;stroke-width:1;"/><text fill="#000000" font-family="sans-serif" font-size="13" lengthAdjust="spacing" textLength="76.9082" x="2092.5" y="241.5669">implements</text></g><!--link Feature_User to logic_arc_int__baselibs__executor--><g id="link_Feature_User_logic_arc_int__baselibs__executor"><path codeLine="31" d="M3038.44,49.12 C2892.91,64.08 2422.32,112.93 2033.5,158.5 C2027.73,159.18 2027.7877,159.1691 2021.8377,159.8791 " fill="transparent" id="Feature_User-to-logic_arc_int__baselibs__executor" style="stroke:#181818;stroke-width:1;"/><polygon fill="#181818" points="2015.88,160.59,2025.2905,163.4954,2020.8448,159.9976,2024.3427,155.5518,2015.88,160.59" style="stroke:#181818;stroke-width:1;"/><text fill="#000000" font-family="sans-serif" font-size="13" lengthAdjust="spacing" textLength="23.0103" x="2438.5" y="124.5669">use</text></g><!--reverse link logic_arc_int__baselibs__utils_scoped_op to comp_arc_sta__baselibs__utils--><g id="link_logic_arc_int__baselibs__utils_scoped_op_comp_arc_sta__baselibs__utils"><path codeLine="32" d="M3421.9324,202.5265 C3448.1424,223.7565 3485.41,253.94 3511.65,275.19 " fill="transparent" id="logic_arc_int__baselibs__utils_scoped_op-backto-comp_arc_sta__baselibs__utils" style="stroke:#181818;stroke-width:1;"/><polygon fill="#181818" points="3417.27,198.75,3421.7459,207.523,3421.1553,201.8971,3426.7813,201.3065,3417.27,198.75" style="stroke:#181818;stroke-width:1;"/><text fill="#000000" font-family="sans-serif" font-size="13" lengthAdjust="spacing" textLength="76.9082" x="3474.5" y="241.5669">implements</text></g><!--reverse link logic_arc_int__baselibs__condition_variable to comp_arc_sta__baselibs__concurrency--><g id="link_logic_arc_int__baselibs__condition_variable_comp_arc_sta__baselibs__concurrency"><path codeLine="33" d="M1626.1233,200.1438 C1707.2433,221.4438 1831.82,254.15 1912.87,275.43 " fill="transparent" id="logic_arc_int__baselibs__condition_variable-backto-comp_arc_sta__baselibs__concurrency" style="stroke:#181818;stroke-width:1;"/><polygon fill="#181818" points="1620.32,198.62,1628.0091,204.7745,1625.1561,199.8898,1630.0408,197.0368,1620.32,198.62" style="stroke:#181818;stroke-width:1;"/><text fill="#000000" font-family="sans-serif" font-size="13" lengthAdjust="spacing" textLength="76.9082" x="1794.5" y="241.5669">implements</text></g><!--reverse link logic_arc_int__baselibs__bit_mask_operator to comp_arc_sta__baselibs__bit_manipulation--><g id="link_logic_arc_int__baselibs__bit_mask_operator_comp_arc_sta__baselibs__bit_manipulation"><path codeLine="34" d="M4402.6118,201.9296 C4368.5418,223.2196 4319.08,254.14 4285.09,275.38 " fill="transparent" id="logic_arc_int__baselibs__bit_mask_operator-backto-comp_arc_sta__baselibs__bit_manipulation" style="stroke:#181818;stroke-width:1;"/><polygon fill="#181818" points="4407.7,198.75,4397.9479,200.1272,4403.4598,201.3997,4402.1874,206.9115,4407.7,198.75" style="stroke:#181818;stroke-width:1;"/><text fill="#000000" font-family="sans-serif" font-size="13" lengthAdjust="spacing" textLength="76.9082" x="4359.5" y="241.5669">implements</text></g><!--link Feature_User to logic_arc_int__baselibs__bit_mask_operator--><g id="link_Feature_User_logic_arc_int__baselibs__bit_mask_operator"><path codeLine="35" d="M3128.64,48.83 C3284.54,63.79 3814.73,114.8 4252.5,158.5 C4258.48,159.1 4258.5894,159.1168 4264.7294,159.7268 " fill="transparent" id="Feature_User-to-logic_arc_int__baselibs__bit_mask_operator" style="stroke:#181818;stroke-width:1;"/><polygon fill="#181818" points="4270.7,160.32,4262.1395,155.4498,4265.7245,159.8257,4261.3486,163.4106,4270.7,160.32" style="stroke:#181818;stroke-width:1;"/><text fill="#000000" font-family="sans-serif" font-size="13" lengthAdjust="spacing" textLength="23.0103" x="3932.5" y="124.5669">use</text></g><!--link Feature_User to logic_arc_int__baselibs__json--><g id="link_Feature_User_logic_arc_int__baselibs__json"><path codeLine="36" d="M3128.64,46.73 C3313.92,56.14 4034.09,94.97 4623.5,158.5 C4629.22,159.12 4629.1228,159.0743 4635.0328,159.7843 " fill="transparent" id="Feature_User-to-logic_arc_int__baselibs__json" style="stroke:#181818;stroke-width:1;"/><polygon fill="#181818" points="4640.99,160.5,4632.5314,155.4551,4636.0257,159.9036,4631.5771,163.3979,4640.99,160.5" style="stroke:#181818;stroke-width:1;"/><text fill="#000000" font-family="sans-serif" font-size="13" lengthAdjust="spacing" textLength="23.0103" x="4288.5" y="124.5669">use</text></g><!--link Feature_User to logic_arc_int__baselibs__utils_base64--><g id="link_Feature_User_logic_arc_int__baselibs__utils_base64"><path codeLine="37" d="M3128.62,53.75 C3234.05,75.35 3492.4122,128.2953 3633.8522,157.2853 " fill="transparent" id="Feature_User-to-logic_arc_int__baselibs__utils_base64" style="stroke:#181818;stroke-width:1;"/><polygon fill="#181818" points="3639.73,158.49,3631.7164,152.7644,3634.8318,157.4861,3630.1101,160.6014,3639.73,158.49" style="stroke:#181818;stroke-width:1;"/><text fill="#000000" font-family="sans-serif" font-size="13" lengthAdjust="spacing" textLength="23.0103" x="3486.5" y="124.5669">use</text></g><!--reverse link logic_arc_int__baselibs__filesystem to comp_arc_sta__baselibs__filesystem--><g id="link_logic_arc_int__baselibs__filesystem_comp_arc_sta__baselibs__filesystem"><path codeLine="38" d="M509.1582,204.7479 C509.7182,225.9779 510.44,253.94 511,275.19 " fill="transparent" id="logic_arc_int__baselibs__filesystem-backto-comp_arc_sta__baselibs__filesystem" style="stroke:#181818;stroke-width:1;"/><polygon fill="#181818" points="509,198.75,505.2387,207.8523,509.1318,203.7483,513.2359,207.6414,509,198.75" style="stroke:#181818;stroke-width:1;"/><text fill="#000000" font-family="sans-serif" font-size="13" lengthAdjust="spacing" textLength="76.9082" x="511.5" y="241.5669">implements</text></g><!--reverse link logic_arc_int__baselibs__synchronized_queue to comp_arc_sta__baselibs__concurrency--><g id="link_logic_arc_int__baselibs__synchronized_queue_comp_arc_sta__baselibs__concurrency"><path codeLine="39" d="M1030.4433,199.173 C1152.4033,212.733 1315.08,230.48 1463.5,245.5 C1588.7,258.17 1730.91,271.45 1835.25,280.98 " fill="transparent" id="logic_arc_int__baselibs__synchronized_queue-backto-comp_arc_sta__baselibs__concurrency" style="stroke:#181818;stroke-width:1;"/><polygon fill="#181818" points="1024.48,198.51,1032.9829,203.48,1029.4494,199.0625,1033.8669,195.529,1024.48,198.51" style="stroke:#181818;stroke-width:1;"/><text fill="#000000" font-family="sans-serif" font-size="13" lengthAdjust="spacing" textLength="76.9082" x="1464.5" y="241.5669">implements</text></g><!--link Feature_User to logic_arc_int__baselibs__shared_future--><g id="link_Feature_User_logic_arc_int__baselibs__shared_future"><path codeLine="40" d="M3038.47,64.27 C2980.6,89.67 2886.334,131.0483 2829.314,156.0783 " fill="transparent" id="Feature_User-to-logic_arc_int__baselibs__shared_future" style="stroke:#181818;stroke-width:1;"/><polygon fill="#181818" points="2823.82,158.49,2833.6688,158.5351,2828.3983,156.4803,2830.4532,151.2098,2823.82,158.49" style="stroke:#181818;stroke-width:1;"/><text fill="#000000" font-family="sans-serif" font-size="13" lengthAdjust="spacing" textLength="23.0103" x="2924.5" y="124.5669">use</text></g><!--reverse link logic_arc_int__baselibs__shared_future to comp_arc_sta__baselibs__concurrency--><g id="link_logic_arc_int__baselibs__shared_future_comp_arc_sta__baselibs__concurrency"><path codeLine="41" d="M2649.6378,199.4692 C2561.3678,212.8492 2446.2,230.13 2339.5,245.5 C2269.03,255.65 2190.61,266.55 2125.53,275.48 " fill="transparent" id="logic_arc_int__baselibs__shared_future-backto-comp_arc_sta__baselibs__concurrency" style="stroke:#181818;stroke-width:1;"/><polygon fill="#181818" points="2655.57,198.57,2646.0722,195.964,2650.6265,199.3193,2647.2711,203.8736,2655.57,198.57" style="stroke:#181818;stroke-width:1;"/><text fill="#000000" font-family="sans-serif" font-size="13" lengthAdjust="spacing" textLength="76.9082" x="2449.5" y="241.5669">implements</text></g><!--link Feature_User to logic_arc_int__baselibs__message_passing--><g id="link_Feature_User_logic_arc_int__baselibs__message_passing"><path codeLine="42" d="M3128.55,45.59 C3333.26,50.66 4196.27,73.31 4903.5,111.5 C5197.15,127.36 5270.55,132.78 5563.5,158.5 C5569.35,159.01 5569.3358,158.9943 5575.3558,159.5543 " fill="transparent" id="Feature_User-to-logic_arc_int__baselibs__message_passing" style="stroke:#181818;stroke-width:1;"/><polygon fill="#181818" points="5581.33,160.11,5572.7392,155.2936,5576.3515,159.6469,5571.9982,163.2592,5581.33,160.11" style="stroke:#181818;stroke-width:1;"/><text fill="#000000" font-family="sans-serif" font-size="13" lengthAdjust="spacing" textLength="23.0103" x="5191.5" y="124.5669">use</text></g><!--link Feature_User to logic_arc_int__baselibs__synchronized_queue--><g id="link_Feature_User_logic_arc_int__baselibs__synchronized_queue"><path codeLine="43" d="M3038.29,46.06 C2818.96,53.84 1843.84,90.76 1047.5,158.5 C1041.66,159 1041.6958,158.9722 1035.6958,159.5122 " fill="transparent" id="Feature_User-to-logic_arc_int__baselibs__synchronized_queue" style="stroke:#181818;stroke-width:1;"/><polygon fill="#181818" points="1029.72,160.05,1039.0423,163.2272,1034.6999,159.6018,1038.3252,155.2594,1029.72,160.05" style="stroke:#181818;stroke-width:1;"/><text fill="#000000" font-family="sans-serif" font-size="13" lengthAdjust="spacing" textLength="23.0103" x="1663.5" y="124.5669">use</text></g><!--reverse link logic_arc_int__baselibs__memory_shared to comp_arc_sta__baselibs__memory_shared--><g id="link_logic_arc_int__baselibs__memory_shared_comp_arc_sta__baselibs__memory_shared"><path codeLine="44" d="M173.621,204.7464 C172.881,225.9764 171.91,253.94 171.17,275.19 " fill="transparent" id="logic_arc_int__baselibs__memory_shared-backto-comp_arc_sta__baselibs__memory_shared" style="stroke:#181818;stroke-width:1;"/><polygon fill="#181818" points="173.83,198.75,169.5189,207.6052,173.6558,203.747,177.5141,207.8839,173.83,198.75" style="stroke:#181818;stroke-width:1;"/><text fill="#000000" font-family="sans-serif" font-size="13" lengthAdjust="spacing" textLength="76.9082" x="174.5" y="241.5669">implements</text></g><!--link Feature_User to logic_arc_int__baselibs__dynamic_array--><g id="link_Feature_User_logic_arc_int__baselibs__dynamic_array"><path codeLine="45" d="M3128.74,46.49 C3290.47,53.71 3855.14,79.75 4320.5,111.5 C4574.55,128.83 4638.04,134.07 4891.5,158.5 C4897.33,159.06 4897.2998,159.053 4903.2998,159.653 " fill="transparent" id="Feature_User-to-logic_arc_int__baselibs__dynamic_array" style="stroke:#181818;stroke-width:1;"/><polygon fill="#181818" points="4909.27,160.25,4900.7127,155.3743,4904.2948,159.7525,4899.9167,163.3346,4909.27,160.25" style="stroke:#181818;stroke-width:1;"/><text fill="#000000" font-family="sans-serif" font-size="13" lengthAdjust="spacing" textLength="23.0103" x="4559.5" y="124.5669">use</text></g><!--link Feature_User to logic_arc_int__baselibs__task--><g id="link_Feature_User_logic_arc_int__baselibs__task"><path codeLine="46" d="M3083.5,81.55 C3083.5,106.45 3083.5,132.26 3083.5,152.26 " fill="transparent" id="Feature_User-to-logic_arc_int__baselibs__task" style="stroke:#181818;stroke-width:1;"/><polygon fill="#181818" points="3083.5,158.26,3087.5,149.26,3083.5,153.26,3079.5,149.26,3083.5,158.26" style="stroke:#181818;stroke-width:1;"/><text fill="#000000" font-family="sans-serif" font-size="13" lengthAdjust="spacing" textLength="23.0103" x="3084.5" y="124.5669">use</text></g><!--link Feature_User to logic_arc_int__baselibs__filesystem--><g id="link_Feature_User_logic_arc_int__baselibs__filesystem"><path codeLine="47" d="M3038.31,46.07 C2847.11,52.79 2085.78,80.16 1460.5,111.5 C1106.11,129.26 1016.89,126.45 663.5,158.5 C657.96,159 658.2901,158.9519 652.6001,159.5219 " fill="transparent" id="Feature_User-to-logic_arc_int__baselibs__filesystem" style="stroke:#181818;stroke-width:1;"/><polygon fill="#181818" points="646.63,160.12,655.9839,163.203,651.6051,159.6216,655.1865,155.2428,646.63,160.12" style="stroke:#181818;stroke-width:1;"/><text fill="#000000" font-family="sans-serif" font-size="13" lengthAdjust="spacing" textLength="23.0103" x="1461.5" y="124.5669">use</text></g><!--link Feature_User to logic_arc_int__baselibs__promise--><g id="link_Feature_User_logic_arc_int__baselibs__promise"><path codeLine="48" d="M3038.41,54.17 C2936.42,76.05 2692.3366,128.4117 2558.0666,157.2117 " fill="transparent" id="Feature_User-to-logic_arc_int__baselibs__promise" style="stroke:#181818;stroke-width:1;"/><polygon fill="#181818" points="2552.2,158.47,2561.8387,160.4935,2557.0888,157.4214,2560.161,152.6714,2552.2,158.47" style="stroke:#181818;stroke-width:1;"/><text fill="#000000" font-family="sans-serif" font-size="13" lengthAdjust="spacing" textLength="23.0103" x="2756.5" y="124.5669">use</text></g><!--reverse link logic_arc_int__baselibs__executor to comp_arc_sta__baselibs__concurrency--><g id="link_logic_arc_int__baselibs__executor_comp_arc_sta__baselibs__concurrency"><path codeLine="49" d="M1903.7425,203.2199 C1922.7525,224.4499 1949.17,253.94 1968.2,275.19 " fill="transparent" id="logic_arc_int__baselibs__executor-backto-comp_arc_sta__baselibs__concurrency" style="stroke:#181818;stroke-width:1;"/><polygon fill="#181818" points="1899.74,198.75,1902.7638,208.1232,1903.0754,202.4749,1908.7237,202.7865,1899.74,198.75" style="stroke:#181818;stroke-width:1;"/><text fill="#000000" font-family="sans-serif" font-size="13" lengthAdjust="spacing" textLength="76.9082" x="1941.5" y="241.5669">implements</text></g><!--link Feature_User to logic_arc_int__baselibs__utils_scoped_op--><g id="link_Feature_User_logic_arc_int__baselibs__utils_scoped_op"><path codeLine="50" d="M3128.58,63.84 C3187.6,89.16 3284.936,130.9244 3343.606,156.0944 " fill="transparent" id="Feature_User-to-logic_arc_int__baselibs__utils_scoped_op" style="stroke:#181818;stroke-width:1;"/><polygon fill="#181818" points="3349.12,158.46,3342.426,151.2357,3344.525,156.4887,3339.272,158.5877,3349.12,158.46" style="stroke:#181818;stroke-width:1;"/><text fill="#000000" font-family="sans-serif" font-size="13" lengthAdjust="spacing" textLength="23.0103" x="3276.5" y="124.5669">use</text></g><!--link Feature_User to logic_arc_int__baselibs__bit_manipulation--><g id="link_Feature_User_logic_arc_int__baselibs__bit_manipulation"><path codeLine="51" d="M3128.66,50.56 C3269.51,69.46 3699.0433,127.1119 3926.6633,157.6619 " fill="transparent" id="Feature_User-to-logic_arc_int__baselibs__bit_manipulation" style="stroke:#181818;stroke-width:1;"/><polygon fill="#181818" points="3932.61,158.46,3924.2221,153.2983,3927.6544,157.7949,3923.1579,161.2273,3932.61,158.46" style="stroke:#181818;stroke-width:1;"/><text fill="#000000" font-family="sans-serif" font-size="13" lengthAdjust="spacing" textLength="23.0103" x="3698.5" y="124.5669">use</text></g><!--reverse link logic_arc_int__baselibs__task_result to comp_arc_sta__baselibs__concurrency--><g id="link_logic_arc_int__baselibs__task_result_comp_arc_sta__baselibs__concurrency"><path codeLine="52" d="M1340.6758,199.4254 C1485.1758,220.7354 1711.87,254.16 1856.34,275.46 " fill="transparent" id="logic_arc_int__baselibs__task_result-backto-comp_arc_sta__baselibs__concurrency" style="stroke:#181818;stroke-width:1;"/><polygon fill="#181818" points="1334.74,198.55,1343.0601,203.8203,1339.6865,199.2795,1344.2273,195.9059,1334.74,198.55" style="stroke:#181818;stroke-width:1;"/><text fill="#000000" font-family="sans-serif" font-size="13" lengthAdjust="spacing" textLength="76.9082" x="1643.5" y="241.5669">implements</text></g><!--SRC=[jLPBRzGm4BxdLrYzRq4Lub1LlI1nuWXdQ-9CTuVwaNh6fG7ntt6oox99bys3S7JopUTvVcEmDdpJZbx8Rmi9jPAWoY0IdAeeeX4AljXHXOe58mPfQjoVqTNIA129L2P1BkvO6eltnJKmsLBzA3wHnm_1XgWYLjtfyuxCeqTcTNFzjlXPtBqvs1HW9EEkFY98YgY-CCOh1QmE7tJxGHL5xxYfDlVAXYqP3T5eyg9r2OoMIjRQ15zHwxv-XaXGMhnLYL7DuNX8BV9WPuAhEn0Bd88YShAYDkaIqnvqgyZL5XrwuRyJbYJQWQSwMMW36A4UmgTTud8LO8kw1kPS-v4x1kXfL-GA2EIgHnvXhneFhliLePd6_PL7yz92LdOq7sDYUaPjYMKokKaneZVD2Bi0FqxZJ49spDSEqvtVl-kppXY0OS1p1wWDwTZxSurxTl-UtZe6HuoBS-7GXTXeta6MizMy-Yqn2vt25pGfI-U8FzCRXaseiTAXNhkxp-dnVrF3t7KvZ0XTPXQczWpJt0xUIz1Sg_xaNgph0rda9gzcDzPcH-3QTUN6crqCdhxdjdbAc9OtytwqfctT6GxsMHTF_s03pgtgkJnTZB2dDwFxkQTD2sCSxE4bOh_WZNNIcNDjZvA-KglyKTE56NobeNCZUlsOMocqtYO-ZUuN]--></g></svg>