<svg xmlns="http://www.w3.org/2000/svg" xmlns:xlink="http://www.w3.org/1999/xlink" contentStyleType="text/css" data-diagram-type="CLASS" height="322px" preserveAspectRatio="none" style="width:6200px;height:322px;background:#FFFFFF;" version="1.1" viewBox="0 0 6200 322" width="6200px" zoomAndPan="magnify"><defs/><g><!--entity Feature_User--><g id="elem_Feature_User"><ellipse cx="2961.6685" cy="14" fill="#F1F1F1" rx="8" ry="8" style="stroke:#181818;stroke-width:0.5;"/><path d="M2961.6685,22 L2961.6685,49 M2948.6685,30 L2974.6685,30 M2961.6685,49 L2948.6685,64 M2961.6685,49 L2974.6685,64 " fill="transparent" style="stroke:#181818;stroke-width:0.5;"/><text fill="#000000" font-family="sans-serif" font-size="14" lengthAdjust="spacing" textLength="90.3369" x="2916.5" y="78.4951">Feature User</text></g><!--class logic_arc_int__baselibs__result--><g id="elem_logic_arc_int__baselibs__result"><rect fill="#F1F1F1" height="40" id="logic_arc_int__baselibs__result" rx="2.5" ry="2.5" style="stroke:#181818;stroke-width:0.5;" width="244.4609" x="11.5" y="158.5"/><ellipse cx="26.5" cy="174.5" fill="#ADD1B2" rx="11" ry="11" style="stroke:#181818;stroke-width:1;"/><path d="M29.4688,180.1406 Q28.8906,180.4375 28.25,180.5781 Q27.6094,180.7344 26.9063,180.7344 Q24.4063,180.7344 23.0781,179.0938 Q21.7656,177.4375 21.7656,174.3125 Q21.7656,171.1875 23.0781,169.5313 Q24.4063,167.875 26.9063,167.875 Q27.6094,167.875 28.25,168.0313 Q28.9063,168.1875 29.4688,168.4844 L29.4688,171.2031 Q28.8438,170.625 28.25,170.3594 Q27.6563,170.0781 27.0313,170.0781 Q25.6875,170.0781 25,171.1563 Q24.3125,172.2188 24.3125,174.3125 Q24.3125,176.4063 25,177.4844 Q25.6875,178.5469 27.0313,178.5469 Q27.6563,178.5469 28.25,178.2813 Q28.8438,178 29.4688,177.4219 L29.4688,180.1406 Z " fill="#000000"/><text fill="#000000" font-family="sans-serif" font-size="14" lengthAdjust="spacing" textLength="212.4609" x="40.5" y="179.3467">logic_arc_int__baselibs__result</text><line style="stroke:#181818;stroke-width:0.5;" x1="12.5" x2="254.9609" y1="190.5" y2="190.5"/></g><!--class logic_arc_int__baselibs__json--><g id="elem_logic_arc_int__baselibs__json"><rect fill="#F1F1F1" height="40" id="logic_arc_int__baselibs__json" rx="2.5" ry="2.5" style="stroke:#181818;stroke-width:0.5;" width="233.168" x="2845" y="158.5"/><ellipse cx="2860" cy="174.5" fill="#ADD1B2" rx="11" ry="11" style="stroke:#181818;stroke-width:1;"/><path d="M2862.9688,180.1406 Q2862.3906,180.4375 2861.75,180.5781 Q2861.1094,180.7344 2860.4063,180.7344 Q2857.9063,180.7344 2856.5781,179.0938 Q2855.2656,177.4375 2855.2656,174.3125 Q2855.2656,171.1875 2856.5781,169.5313 Q2857.9063,167.875 2860.4063,167.875 Q2861.1094,167.875 2861.75,168.0313 Q2862.4063,168.1875 2862.9688,168.4844 L2862.9688,171.2031 Q2862.3438,170.625 2861.75,170.3594 Q2861.1563,170.0781 2860.5313,170.0781 Q2859.1875,170.0781 2858.5,171.1563 Q2857.8125,172.2188 2857.8125,174.3125 Q2857.8125,176.4063 2858.5,177.4844 Q2859.1875,178.5469 2860.5313,178.5469 Q2861.1563,178.5469 2861.75,178.2813 Q2862.3438,178 2862.9688,177.4219 L2862.9688,180.1406 Z " fill="#000000"/><text fill="#000000" font-family="sans-serif" font-size="14" lengthAdjust="spacing" textLength="201.168" x="2874" y="179.3467">logic_arc_int__baselibs__json</text><line style="stroke:#181818;stroke-width:0.5;" x1="2846" x2="3077.168" y1="190.5" y2="190.5"/></g><!--class comp_arc_sta__baselibs__utils--><g id="elem_comp_arc_sta__baselibs__utils"><rect fill="#F1F1F1" height="40" id="comp_arc_sta__baselibs__utils" rx="2.5" ry="2.5" style="stroke:#181818;stroke-width:0.5;" width="242.9502" x="3280" y="275.5"/><ellipse cx="3295" cy="291.5" fill="#ADD1B2" rx="11" ry="11" style="stroke:#181818;stroke-width:1;"/><path d="M3297.9688,297.1406 Q3297.3906,297.4375 3296.75,297.5781 Q3296.1094,297.7344 3295.4063,297.7344 Q3292.9063,297.7344 3291.5781,296.0938 Q3290.2656,294.4375 3290.2656,291.3125 Q3290.2656,288.1875 3291.5781,286.5313 Q3292.9063,284.875 3295.4063,284.875 Q3296.1094,284.875 3296.75,285.0313 Q3297.4063,285.1875 3297.9688,285.4844 L3297.9688,288.2031 Q3297.3438,287.625 3296.75,287.3594 Q3296.1563,287.0781 3295.5313,287.0781 Q3294.1875,287.0781 3293.5,288.1563 Q3292.8125,289.2188 3292.8125,291.3125 Q3292.8125,293.4063 3293.5,294.4844 Q3294.1875,295.5469 3295.5313,295.5469 Q3296.1563,295.5469 3296.75,295.2813 Q3297.3438,295 3297.9688,294.4219 L3297.9688,297.1406 Z " fill="#000000"/><text fill="#000000" font-family="sans-serif" font-size="14" lengthAdjust="spacing" textLength="210.9502" x="3309" y="296.3467">comp_arc_sta__baselibs__utils</text><line style="stroke:#181818;stroke-width:0.5;" x1="3281" x2="3521.9502" y1="307.5" y2="307.5"/></g><!--class logic_arc_int__baselibs__utils_scoped_op--><g id="elem_logic_arc_int__baselibs__utils_scoped_op"><rect fill="#F1F1F1" height="40" id="logic_arc_int__baselibs__utils_scoped_op" rx="2.5" ry="2.5" style="stroke:#181818;stroke-width:0.5;" width="315.377" x="3441" y="158.5"/><ellipse cx="3456" cy="174.5" fill="#ADD1B2" rx="11" ry="11" style="stroke:#181818;stroke-width:1;"/><path d="M3458.9688,180.1406 Q3458.3906,180.4375 3457.75,180.5781 Q3457.1094,180.7344 3456.4063,180.7344 Q3453.9063,180.7344 3452.5781,179.0938 Q3451.2656,177.4375 3451.2656,174.3125 Q3451.2656,171.1875 3452.5781,169.5313 Q3453.9063,167.875 3456.4063,167.875 Q3457.1094,167.875 3457.75,168.0313 Q3458.4063,168.1875 3458.9688,168.4844 L3458.9688,171.2031 Q3458.3438,170.625 3457.75,170.3594 Q3457.1563,170.0781 3456.5313,170.0781 Q3455.1875,170.0781 3454.5,171.1563 Q3453.8125,172.2188 3453.8125,174.3125 Q3453.8125,176.4063 3454.5,177.4844 Q3455.1875,178.5469 3456.5313,178.5469 Q3457.1563,178.5469 3457.75,178.2813 Q3458.3438,178 3458.9688,177.4219 L3458.9688,180.1406 Z " fill="#000000"/><text fill="#000000" font-family="sans-serif" font-size="14" lengthAdjust="spacing" textLength="283.377" x="3470" y="179.3467">logic_arc_int__baselibs__utils_scoped_op</text><line style="stroke:#181818;stroke-width:0.5;" x1="3442" x2="3755.377" y1="190.5" y2="190.5"/></g><!--class comp_arc_sta__baselibs__containers--><g id="elem_comp_arc_sta__baselibs__containers"><rect fill="#F1F1F1" height="40" id="comp_arc_sta__baselibs__containers" rx="2.5" ry="2.5" style="stroke:#181818;stroke-width:0.5;" width="287.1445" x="5059" y="275.5"/><ellipse cx="5074" cy="291.5" fill="#ADD1B2" rx="11" ry="11" style="stroke:#181818;stroke-width:1;"/><path d="M5076.9688,297.1406 Q5076.3906,297.4375 5075.75,297.5781 Q5075.1094,297.7344 5074.4063,297.7344 Q5071.9063,297.7344 5070.5781,296.0938 Q5069.2656,294.4375 5069.2656,291.3125 Q5069.2656,288.1875 5070.5781,286.5313 Q5071.9063,284.875 5074.4063,284.875 Q5075.1094,284.875 5075.75,285.0313 Q5076.4063,285.1875 5076.9688,285.4844 L5076.9688,288.2031 Q5076.3438,287.625 5075.75,287.3594 Q5075.1563,287.0781 5074.5313,287.0781 Q5073.1875,287.0781 5072.5,288.1563 Q5071.8125,289.2188 5071.8125,291.3125 Q5071.8125,293.4063 5072.5,294.4844 Q5073.1875,295.5469 5074.5313,295.5469 Q5075.1563,295.5469 5075.75,295.2813 Q5076.3438,295 5076.9688,294.4219 L5076.9688,297.1406 Z " fill="#000000"/><text fill="#000000" font-family="sans-serif" font-size="14" lengthAdjust="spacing" textLength="255.1445" x="5088" y="296.3467">comp_arc_sta__baselibs__containers</text><line style="stroke:#181818;stroke-width:0.5;" x1="5060" x2="5345.1445" y1="307.5" y2="307.5"/></g><!--class logic_arc_int__baselibs__dynamic_array--><g id="elem_logic_arc_int__baselibs__dynamic_array"><rect fill="#F1F1F1" height="40" id="logic_arc_int__baselibs__dynamic_array" rx="2.5" ry="2.5" style="stroke:#181818;stroke-width:0.5;" width="308.3496" x="4881.5" y="158.5"/><ellipse cx="4896.5" cy="174.5" fill="#ADD1B2" rx="11" ry="11" style="stroke:#181818;stroke-width:1;"/><path d="M4899.4688,180.1406 Q4898.8906,180.4375 4898.25,180.5781 Q4897.6094,180.7344 4896.9063,180.7344 Q4894.4063,180.7344 4893.0781,179.0938 Q4891.7656,177.4375 4891.7656,174.3125 Q4891.7656,171.1875 4893.0781,169.5313 Q4894.4063,167.875 4896.9063,167.875 Q4897.6094,167.875 4898.25,168.0313 Q4898.9063,168.1875 4899.4688,168.4844 L4899.4688,171.2031 Q4898.8438,170.625 4898.25,170.3594 Q4897.6563,170.0781 4897.0313,170.0781 Q4895.6875,170.0781 4895,171.1563 Q4894.3125,172.2188 4894.3125,174.3125 Q4894.3125,176.4063 4895,177.4844 Q4895.6875,178.5469 4897.0313,178.5469 Q4897.6563,178.5469 4898.25,178.2813 Q4898.8438,178 4899.4688,177.4219 L4899.4688,180.1406 Z " fill="#000000"/><text fill="#000000" font-family="sans-serif" font-size="14" lengthAdjust="spacing" textLength="276.3496" x="4910.5" y="179.3467">logic_arc_int__baselibs__dynamic_array</text><line style="stroke:#181818;stroke-width:0.5;" x1="4882.5" x2="5188.8496" y1="190.5" y2="190.5"/></g><!--class comp_arc_sta__baselibs__filesystem--><g id="elem_comp_arc_sta__baselibs__filesystem"><rect fill="#F1F1F1" height="40" id="comp_arc_sta__baselibs__filesystem" rx="2.5" ry="2.5" style="stroke:#181818;stroke-width:0.5;" width="285.4492" x="5908" y="275.5"/><ellipse cx="5923" cy="291.5" fill="#ADD1B2" rx="11" ry="11" style="stroke:#181818;stroke-width:1;"/><path d="M5925.9688,297.1406 Q5925.3906,297.4375 5924.75,297.5781 Q5924.1094,297.7344 5923.4063,297.7344 Q5920.9063,297.7344 5919.5781,296.0938 Q5918.2656,294.4375 5918.2656,291.3125 Q5918.2656,288.1875 5919.5781,286.5313 Q5920.9063,284.875 5923.4063,284.875 Q5924.1094,284.875 5924.75,285.0313 Q5925.4063,285.1875 5925.9688,285.4844 L5925.9688,288.2031 Q5925.3438,287.625 5924.75,287.3594 Q5924.1563,287.0781 5923.5313,287.0781 Q5922.1875,287.0781 5921.5,288.1563 Q5920.8125,289.2188 5920.8125,291.3125 Q5920.8125,293.4063 5921.5,294.4844 Q5922.1875,295.5469 5923.5313,295.5469 Q5924.1563,295.5469 5924.75,295.2813 Q5925.3438,295 5925.9688,294.4219 L5925.9688,297.1406 Z " fill="#000000"/><text fill="#000000" font-family="sans-serif" font-size="14" lengthAdjust="spacing" textLength="253.4492" x="5937" y="296.3467">comp_arc_sta__baselibs__filesystem</text><line style="stroke:#181818;stroke-width:0.5;" x1="5909" x2="6192.4492" y1="307.5" y2="307.5"/></g><!--class logic_arc_int__baselibs__filesystem--><g id="elem_logic_arc_int__baselibs__filesystem"><rect fill="#F1F1F1" height="40" id="logic_arc_int__baselibs__filesystem" rx="2.5" ry="2.5" style="stroke:#181818;stroke-width:0.5;" width="276.4805" x="5910.5" y="158.5"/><ellipse cx="5925.5" cy="174.5" fill="#ADD1B2" rx="11" ry="11" style="stroke:#181818;stroke-width:1;"/><path d="M5928.4688,180.1406 Q5927.8906,180.4375 5927.25,180.5781 Q5926.6094,180.7344 5925.9063,180.7344 Q5923.4063,180.7344 5922.0781,179.0938 Q5920.7656,177.4375 5920.7656,174.3125 Q5920.7656,171.1875 5922.0781,169.5313 Q5923.4063,167.875 5925.9063,167.875 Q5926.6094,167.875 5927.25,168.0313 Q5927.9063,168.1875 5928.4688,168.4844 L5928.4688,171.2031 Q5927.8438,170.625 5927.25,170.3594 Q5926.6563,170.0781 5926.0313,170.0781 Q5924.6875,170.0781 5924,171.1563 Q5923.3125,172.2188 5923.3125,174.3125 Q5923.3125,176.4063 5924,177.4844 Q5924.6875,178.5469 5926.0313,178.5469 Q5926.6563,178.5469 5927.25,178.2813 Q5927.8438,178 5928.4688,177.4219 L5928.4688,180.1406 Z " fill="#000000"/><text fill="#000000" font-family="sans-serif" font-size="14" lengthAdjust="spacing" textLength="244.4805" x="5939.5" y="179.3467">logic_arc_int__baselibs__filesystem</text><line style="stroke:#181818;stroke-width:0.5;" x1="5911.5" x2="6185.9805" y1="190.5" y2="190.5"/></g><!--class comp_arc_sta__baselibs__memory_shared--><g id="elem_comp_arc_sta__baselibs__memory_shared"><rect fill="#F1F1F1" height="40" id="comp_arc_sta__baselibs__memory_shared" rx="2.5" ry="2.5" style="stroke:#181818;stroke-width:0.5;" width="327.0117" x="5546" y="275.5"/><ellipse cx="5561" cy="291.5" fill="#ADD1B2" rx="11" ry="11" style="stroke:#181818;stroke-width:1;"/><path d="M5563.9688,297.1406 Q5563.3906,297.4375 5562.75,297.5781 Q5562.1094,297.7344 5561.4063,297.7344 Q5558.9063,297.7344 5557.5781,296.0938 Q5556.2656,294.4375 5556.2656,291.3125 Q5556.2656,288.1875 5557.5781,286.5313 Q5558.9063,284.875 5561.4063,284.875 Q5562.1094,284.875 5562.75,285.0313 Q5563.4063,285.1875 5563.9688,285.4844 L5563.9688,288.2031 Q5563.3438,287.625 5562.75,287.3594 Q5562.1563,287.0781 5561.5313,287.0781 Q5560.1875,287.0781 5559.5,288.1563 Q5558.8125,289.2188 5558.8125,291.3125 Q5558.8125,293.4063 5559.5,294.4844 Q5560.1875,295.5469 5561.5313,295.5469 Q5562.1563,295.5469 5562.75,295.2813 Q5563.3438,295 5563.9688,294.4219 L5563.9688,297.1406 Z " fill="#000000"/><text fill="#000000" font-family="sans-serif" font-size="14" lengthAdjust="spacing" textLength="295.0117" x="5575" y="296.3467">comp_arc_sta__baselibs__memory_shared</text><line style="stroke:#181818;stroke-width:0.5;" x1="5547" x2="5872.0117" y1="307.5" y2="307.5"/></g><!--class logic_arc_int__baselibs__memory_shared--><g id="elem_logic_arc_int__baselibs__memory_shared"><rect fill="#F1F1F1" height="40" id="logic_arc_int__baselibs__memory_shared" rx="2.5" ry="2.5" style="stroke:#181818;stroke-width:0.5;" width="318.043" x="5553.5" y="158.5"/><ellipse cx="5568.5" cy="174.5" fill="#ADD1B2" rx="11" ry="11" style="stroke:#181818;stroke-width:1;"/><path d="M5571.4688,180.1406 Q5570.8906,180.4375 5570.25,180.5781 Q5569.6094,180.7344 5568.9063,180.7344 Q5566.4063,180.7344 5565.0781,179.0938 Q5563.7656,177.4375 5563.7656,174.3125 Q5563.7656,171.1875 5565.0781,169.5313 Q5566.4063,167.875 5568.9063,167.875 Q5569.6094,167.875 5570.25,168.0313 Q5570.9063,168.1875 5571.4688,168.4844 L5571.4688,171.2031 Q5570.8438,170.625 5570.25,170.3594 Q5569.6563,170.0781 5569.0313,170.0781 Q5567.6875,170.0781 5567,171.1563 Q5566.3125,172.2188 5566.3125,174.3125 Q5566.3125,176.4063 5567,177.4844 Q5567.6875,178.5469 5569.0313,178.5469 Q5569.6563,178.5469 5570.25,178.2813 Q5570.8438,178 5571.4688,177.4219 L5571.4688,180.1406 Z " fill="#000000"/><text fill="#000000" font-family="sans-serif" font-size="14" lengthAdjust="spacing" textLength="286.043" x="5582.5" y="179.3467">logic_arc_int__baselibs__memory_shared</text><line style="stroke:#181818;stroke-width:0.5;" x1="5554.5" x2="5870.543" y1="190.5" y2="190.5"/></g><!--class logic_arc_int__baselibs__bit_mask_operator--><g id="elem_logic_arc_int__baselibs__bit_mask_operator"><rect fill="#F1F1F1" height="40" id="logic_arc_int__baselibs__bit_mask_operator" rx="2.5" ry="2.5" style="stroke:#181818;stroke-width:0.5;" width="334.6406" x="3791" y="158.5"/><ellipse cx="3806" cy="174.5" fill="#ADD1B2" rx="11" ry="11" style="stroke:#181818;stroke-width:1;"/><path d="M3808.9688,180.1406 Q3808.3906,180.4375 3807.75,180.5781 Q3807.1094,180.7344 3806.4063,180.7344 Q3803.9063,180.7344 3802.5781,179.0938 Q3801.2656,177.4375 3801.2656,174.3125 Q3801.2656,171.1875 3802.5781,169.5313 Q3803.9063,167.875 3806.4063,167.875 Q3807.1094,167.875 3807.75,168.0313 Q3808.4063,168.1875 3808.9688,168.4844 L3808.9688,171.2031 Q3808.3438,170.625 3807.75,170.3594 Q3807.1563,170.0781 3806.5313,170.0781 Q3805.1875,170.0781 3804.5,171.1563 Q3803.8125,172.2188 3803.8125,174.3125 Q3803.8125,176.4063 3804.5,177.4844 Q3805.1875,178.5469 3806.5313,178.5469 Q3807.1563,178.5469 3807.75,178.2813 Q3808.3438,178 3808.9688,177.4219 L3808.9688,180.1406 Z " fill="#000000"/><text fill="#000000" font-family="sans-serif" font-size="14" lengthAdjust="spacing" textLength="302.6406" x="3820" y="179.3467">logic_arc_int__baselibs__bit_mask_operator</text><line style="stroke:#181818;stroke-width:0.5;" x1="3792" x2="4124.6406" y1="190.5" y2="190.5"/></g><!--class logic_arc_int__baselibs__utils_base64--><g id="elem_logic_arc_int__baselibs__utils_base64"><rect fill="#F1F1F1" height="40" id="logic_arc_int__baselibs__utils_base64" rx="2.5" ry="2.5" style="stroke:#181818;stroke-width:0.5;" width="292.1689" x="3113.5" y="158.5"/><ellipse cx="3128.5" cy="174.5" fill="#ADD1B2" rx="11" ry="11" style="stroke:#181818;stroke-width:1;"/><path d="M3131.4688,180.1406 Q3130.8906,180.4375 3130.25,180.5781 Q3129.6094,180.7344 3128.9063,180.7344 Q3126.4063,180.7344 3125.0781,179.0938 Q3123.7656,177.4375 3123.7656,174.3125 Q3123.7656,171.1875 3125.0781,169.5313 Q3126.4063,167.875 3128.9063,167.875 Q3129.6094,167.875 3130.25,168.0313 Q3130.9063,168.1875 3131.4688,168.4844 L3131.4688,171.2031 Q3130.8438,170.625 3130.25,170.3594 Q3129.6563,170.0781 3129.0313,170.0781 Q3127.6875,170.0781 3127,171.1563 Q3126.3125,172.2188 3126.3125,174.3125 Q3126.3125,176.4063 3127,177.4844 Q3127.6875,178.5469 3129.0313,178.5469 Q3129.6563,178.5469 3130.25,178.2813 Q3130.8438,178 3131.4688,177.4219 L3131.4688,180.1406 Z " fill="#000000"/><text fill="#000000" font-family="sans-serif" font-size="14" lengthAdjust="spacing" textLength="260.1689" x="3142.5" y="179.3467">logic_arc_int__baselibs__utils_base64</text><line style="stroke:#181818;stroke-width:0.5;" x1="3114.5" x2="3404.6689" y1="190.5" y2="190.5"/></g><!--class comp_arc_sta__baselibs__concurrency--><g id="elem_comp_arc_sta__baselibs__concurrency"><rect fill="#F1F1F1" height="40" id="comp_arc_sta__baselibs__concurrency" rx="2.5" ry="2.5" style="stroke:#181818;stroke-width:0.5;" width="300.2012" x="1363.5" y="275.5"/><ellipse cx="1378.5" cy="291.5" fill="#ADD1B2" rx="11" ry="11" style="stroke:#181818;stroke-width:1;"/><path d="M1381.4688,297.1406 Q1380.8906,297.4375 1380.25,297.5781 Q1379.6094,297.7344 1378.9063,297.7344 Q1376.4063,297.7344 1375.0781,296.0938 Q1373.7656,294.4375 1373.7656,291.3125 Q1373.7656,288.1875 1375.0781,286.5313 Q1376.4063,284.875 1378.9063,284.875 Q1379.6094,284.875 1380.25,285.0313 Q1380.9063,285.1875 1381.4688,285.4844 L1381.4688,288.2031 Q1380.8438,287.625 1380.25,287.3594 Q1379.6563,287.0781 1379.0313,287.0781 Q1377.6875,287.0781 1377,288.1563 Q1376.3125,289.2188 1376.3125,291.3125 Q1376.3125,293.4063 1377,294.4844 Q1377.6875,295.5469 1379.0313,295.5469 Q1379.6563,295.5469 1380.25,295.2813 Q1380.8438,295 1381.4688,294.4219 L1381.4688,297.1406 Z " fill="#000000"/><text fill="#000000" font-family="sans-serif" font-size="14" lengthAdjust="spacing" textLength="268.2012" x="1392.5" y="296.3467">comp_arc_sta__baselibs__concurrency</text><line style="stroke:#181818;stroke-width:0.5;" x1="1364.5" x2="1662.7012" y1="307.5" y2="307.5"/></g><!--class logic_arc_int__baselibs__task--><g id="elem_logic_arc_int__baselibs__task"><rect fill="#F1F1F1" height="40" id="logic_arc_int__baselibs__task" rx="2.5" ry="2.5" style="stroke:#181818;stroke-width:0.5;" width="234.0156" x="944.5" y="158.5"/><ellipse cx="959.5" cy="174.5" fill="#ADD1B2" rx="11" ry="11" style="stroke:#181818;stroke-width:1;"/><path d="M962.4688,180.1406 Q961.8906,180.4375 961.25,180.5781 Q960.6094,180.7344 959.9063,180.7344 Q957.4063,180.7344 956.0781,179.0938 Q954.7656,177.4375 954.7656,174.3125 Q954.7656,171.1875 956.0781,169.5313 Q957.4063,167.875 959.9063,167.875 Q960.6094,167.875 961.25,168.0313 Q961.9063,168.1875 962.4688,168.4844 L962.4688,171.2031 Q961.8438,170.625 961.25,170.3594 Q960.6563,170.0781 960.0313,170.0781 Q958.6875,170.0781 958,171.1563 Q957.3125,172.2188 957.3125,174.3125 Q957.3125,176.4063 958,177.4844 Q958.6875,178.5469 960.0313,178.5469 Q960.6563,178.5469 961.25,178.2813 Q961.8438,178 962.4688,177.4219 L962.4688,180.1406 Z " fill="#000000"/><text fill="#000000" font-family="sans-serif" font-size="14" lengthAdjust="spacing" textLength="202.0156" x="973.5" y="179.3467">logic_arc_int__baselibs__task</text><line style="stroke:#181818;stroke-width:0.5;" x1="945.5" x2="1177.5156" y1="190.5" y2="190.5"/></g><!--class logic_arc_int__baselibs__task_result--><g id="elem_logic_arc_int__baselibs__task_result"><rect fill="#F1F1F1" height="40" id="logic_arc_int__baselibs__task_result" rx="2.5" ry="2.5" style="stroke:#181818;stroke-width:0.5;" width="280.9307" x="628" y="158.5"/><ellipse cx="643" cy="174.5" fill="#ADD1B2" rx="11" ry="11" style="stroke:#181818;stroke-width:1;"/><path d="M645.9688,180.1406 Q645.3906,180.4375 644.75,180.5781 Q644.1094,180.7344 643.4063,180.7344 Q640.9063,180.7344 639.5781,179.0938 Q638.2656,177.4375 638.2656,174.3125 Q638.2656,171.1875 639.5781,169.5313 Q640.9063,167.875 643.4063,167.875 Q644.1094,167.875 644.75,168.0313 Q645.4063,168.1875 645.9688,168.4844 L645.9688,171.2031 Q645.3438,170.625 644.75,170.3594 Q644.1563,170.0781 643.5313,170.0781 Q642.1875,170.0781 641.5,171.1563 Q640.8125,172.2188 640.8125,174.3125 Q640.8125,176.4063 641.5,177.4844 Q642.1875,178.5469 643.5313,178.5469 Q644.1563,178.5469 644.75,178.2813 Q645.3438,178 645.9688,177.4219 L645.9688,180.1406 Z " fill="#000000"/><text fill="#000000" font-family="sans-serif" font-size="14" lengthAdjust="spacing" textLength="248.9307" x="657" y="179.3467">logic_arc_int__baselibs__task_result</text><line style="stroke:#181818;stroke-width:0.5;" x1="629" x2="907.9307" y1="190.5" y2="190.5"/></g><!--class comp_arc_sta__baselibs__message_passing--><g id="elem_comp_arc_sta__baselibs__message_passing"><rect fill="#F1F1F1" height="40" id="comp_arc_sta__baselibs__message_passing" rx="2.5" ry="2.5" style="stroke:#181818;stroke-width:0.5;" width="337.1357" x="4514" y="275.5"/><ellipse cx="4529" cy="291.5" fill="#ADD1B2" rx="11" ry="11" style="stroke:#181818;stroke-width:1;"/><path d="M4531.9688,297.1406 Q4531.3906,297.4375 4530.75,297.5781 Q4530.1094,297.7344 4529.4063,297.7344 Q4526.9063,297.7344 4525.5781,296.0938 Q4524.2656,294.4375 4524.2656,291.3125 Q4524.2656,288.1875 4525.5781,286.5313 Q4526.9063,284.875 4529.4063,284.875 Q4530.1094,284.875 4530.75,285.0313 Q4531.4063,285.1875 4531.9688,285.4844 L4531.9688,288.2031 Q4531.3438,287.625 4530.75,287.3594 Q4530.1563,287.0781 4529.5313,287.0781 Q4528.1875,287.0781 4527.5,288.1563 Q4526.8125,289.2188 4526.8125,291.3125 Q4526.8125,293.4063 4527.5,294.4844 Q4528.1875,295.5469 4529.5313,295.5469 Q4530.1563,295.5469 4530.75,295.2813 Q4531.3438,295 4531.9688,294.4219 L4531.9688,297.1406 Z " fill="#000000"/><text fill="#000000" font-family="sans-serif" font-size="14" lengthAdjust="spacing" textLength="305.1357" x="4543" y="296.3467">comp_arc_sta__baselibs__message_passing</text><line style="stroke:#181818;stroke-width:0.5;" x1="4515" x2="4850.1357" y1="307.5" y2="307.5"/></g><!--class logic_arc_int__baselibs__message_passing--><g id="elem_logic_arc_int__baselibs__message_passing"><rect fill="#F1F1F1" height="40" id="logic_arc_int__baselibs__message_passing" rx="2.5" ry="2.5" style="stroke:#181818;stroke-width:0.5;" width="328.167" x="4518.5" y="158.5"/><ellipse cx="4533.5" cy="174.5" fill="#ADD1B2" rx="11" ry="11" style="stroke:#181818;stroke-width:1;"/><path d="M4536.4688,180.1406 Q4535.8906,180.4375 4535.25,180.5781 Q4534.6094,180.7344 4533.9063,180.7344 Q4531.4063,180.7344 4530.0781,179.0938 Q4528.7656,177.4375 4528.7656,174.3125 Q4528.7656,171.1875 4530.0781,169.5313 Q4531.4063,167.875 4533.9063,167.875 Q4534.6094,167.875 4535.25,168.0313 Q4535.9063,168.1875 4536.4688,168.4844 L4536.4688,171.2031 Q4535.8438,170.625 4535.25,170.3594 Q4534.6563,170.0781 4534.0313,170.0781 Q4532.6875,170.0781 4532,171.1563 Q4531.3125,172.2188 4531.3125,174.3125 Q4531.3125,176.4063 4532,177.4844 Q4532.6875,178.5469 4534.0313,178.5469 Q4534.6563,178.5469 4535.25,178.2813 Q4535.8438,178 4536.4688,177.4219 L4536.4688,180.1406 Z " fill="#000000"/><text fill="#000000" font-family="sans-serif" font-size="14" lengthAdjust="spacing" textLength="296.167" x="4547.5" y="179.3467">logic_arc_int__baselibs__message_passing</text><line style="stroke:#181818;stroke-width:0.5;" x1="4519.5" x2="4845.667" y1="190.5" y2="190.5"/></g><!--class logic_arc_int__baselibs__bit_manipulation--><g id="elem_logic_arc_int__baselibs__bit_manipulation"><rect fill="#F1F1F1" height="40" id="logic_arc_int__baselibs__bit_manipulation" rx="2.5" ry="2.5" style="stroke:#181818;stroke-width:0.5;" width="321.8369" x="4161.5" y="158.5"/><ellipse cx="4176.5" cy="174.5" fill="#ADD1B2" rx="11" ry="11" style="stroke:#181818;stroke-width:1;"/><path d="M4179.4688,180.1406 Q4178.8906,180.4375 4178.25,180.5781 Q4177.6094,180.7344 4176.9063,180.7344 Q4174.4063,180.7344 4173.0781,179.0938 Q4171.7656,177.4375 4171.7656,174.3125 Q4171.7656,171.1875 4173.0781,169.5313 Q4174.4063,167.875 4176.9063,167.875 Q4177.6094,167.875 4178.25,168.0313 Q4178.9063,168.1875 4179.4688,168.4844 L4179.4688,171.2031 Q4178.8438,170.625 4178.25,170.3594 Q4177.6563,170.0781 4177.0313,170.0781 Q4175.6875,170.0781 4175,171.1563 Q4174.3125,172.2188 4174.3125,174.3125 Q4174.3125,176.4063 4175,177.4844 Q4175.6875,178.5469 4177.0313,178.5469 Q4177.6563,178.5469 4178.25,178.2813 Q4178.8438,178 4179.4688,177.4219 L4179.4688,180.1406 Z " fill="#000000"/><text fill="#000000" font-family="sans-serif" font-size="14" lengthAdjust="spacing" textLength="289.8369" x="4190.5" y="179.3467">logic_arc_int__baselibs__bit_manipulation</text><line style="stroke:#181818;stroke-width:0.5;" x1="4162.5" x2="4482.3369" y1="190.5" y2="190.5"/></g><!--class comp_arc_sta__baselibs__bit_manipulation--><g id="elem_comp_arc_sta__baselibs__bit_manipulation"><rect fill="#F1F1F1" height="40" id="comp_arc_sta__baselibs__bit_manipulation" rx="2.5" ry="2.5" style="stroke:#181818;stroke-width:0.5;" width="330.8057" x="3944" y="275.5"/><ellipse cx="3959" cy="291.5" fill="#ADD1B2" rx="11" ry="11" style="stroke:#181818;stroke-width:1;"/><path d="M3961.9688,297.1406 Q3961.3906,297.4375 3960.75,297.5781 Q3960.1094,297.7344 3959.4063,297.7344 Q3956.9063,297.7344 3955.5781,296.0938 Q3954.2656,294.4375 3954.2656,291.3125 Q3954.2656,288.1875 3955.5781,286.5313 Q3956.9063,284.875 3959.4063,284.875 Q3960.1094,284.875 3960.75,285.0313 Q3961.4063,285.1875 3961.9688,285.4844 L3961.9688,288.2031 Q3961.3438,287.625 3960.75,287.3594 Q3960.1563,287.0781 3959.5313,287.0781 Q3958.1875,287.0781 3957.5,288.1563 Q3956.8125,289.2188 3956.8125,291.3125 Q3956.8125,293.4063 3957.5,294.4844 Q3958.1875,295.5469 3959.5313,295.5469 Q3960.1563,295.5469 3960.75,295.2813 Q3961.3438,295 3961.9688,294.4219 L3961.9688,297.1406 Z " fill="#000000"/><text fill="#000000" font-family="sans-serif" font-size="14" lengthAdjust="spacing" textLength="298.8057" x="3973" y="296.3467">comp_arc_sta__baselibs__bit_manipulation</text><line style="stroke:#181818;stroke-width:0.5;" x1="3945" x2="4273.8057" y1="307.5" y2="307.5"/></g><!--class logic_arc_int__baselibs__shared_future--><g id="elem_logic_arc_int__baselibs__shared_future"><rect fill="#F1F1F1" height="40" id="logic_arc_int__baselibs__shared_future" rx="2.5" ry="2.5" style="stroke:#181818;stroke-width:0.5;" width="302.0811" x="290.5" y="158.5"/><ellipse cx="305.5" cy="174.5" fill="#ADD1B2" rx="11" ry="11" style="stroke:#181818;stroke-width:1;"/><path d="M308.4688,180.1406 Q307.8906,180.4375 307.25,180.5781 Q306.6094,180.7344 305.9063,180.7344 Q303.4063,180.7344 302.0781,179.0938 Q300.7656,177.4375 300.7656,174.3125 Q300.7656,171.1875 302.0781,169.5313 Q303.4063,167.875 305.9063,167.875 Q306.6094,167.875 307.25,168.0313 Q307.9063,168.1875 308.4688,168.4844 L308.4688,171.2031 Q307.8438,170.625 307.25,170.3594 Q306.6563,170.0781 306.0313,170.0781 Q304.6875,170.0781 304,171.1563 Q303.3125,172.2188 303.3125,174.3125 Q303.3125,176.4063 304,177.4844 Q304.6875,178.5469 306.0313,178.5469 Q306.6563,178.5469 307.25,178.2813 Q307.8438,178 308.4688,177.4219 L308.4688,180.1406 Z " fill="#000000"/><text fill="#000000" font-family="sans-serif" font-size="14" lengthAdjust="spacing" textLength="270.0811" x="319.5" y="179.3467">logic_arc_int__baselibs__shared_future</text><line style="stroke:#181818;stroke-width:0.5;" x1="291.5" x2="591.5811" y1="190.5" y2="190.5"/></g><!--class logic_arc_int__baselibs__condition_variable--><g id="elem_logic_arc_int__baselibs__condition_variable"><rect fill="#F1F1F1" height="40" id="logic_arc_int__baselibs__condition_variable" rx="2.5" ry="2.5" style="stroke:#181818;stroke-width:0.5;" width="332.7539" x="2195" y="158.5"/><ellipse cx="2210" cy="174.5" fill="#ADD1B2" rx="11" ry="11" style="stroke:#181818;stroke-width:1;"/><path d="M2212.9688,180.1406 Q2212.3906,180.4375 2211.75,180.5781 Q2211.1094,180.7344 2210.4063,180.7344 Q2207.9063,180.7344 2206.5781,179.0938 Q2205.2656,177.4375 2205.2656,174.3125 Q2205.2656,171.1875 2206.5781,169.5313 Q2207.9063,167.875 2210.4063,167.875 Q2211.1094,167.875 2211.75,168.0313 Q2212.4063,168.1875 2212.9688,168.4844 L2212.9688,171.2031 Q2212.3438,170.625 2211.75,170.3594 Q2211.1563,170.0781 2210.5313,170.0781 Q2209.1875,170.0781 2208.5,171.1563 Q2207.8125,172.2188 2207.8125,174.3125 Q2207.8125,176.4063 2208.5,177.4844 Q2209.1875,178.5469 2210.5313,178.5469 Q2211.1563,178.5469 2211.75,178.2813 Q2212.3438,178 2212.9688,177.4219 L2212.9688,180.1406 Z " fill="#000000"/><text fill="#000000" font-family="sans-serif" font-size="14" lengthAdjust="spacing" textLength="300.7539" x="2224" y="179.3467">logic_arc_int__baselibs__condition_variable</text><line style="stroke:#181818;stroke-width:0.5;" x1="2196" x2="2526.7539" y1="190.5" y2="190.5"/></g><!--class logic_arc_int__baselibs__intrusive_list--><g id="elem_logic_arc_int__baselibs__intrusive_list"><rect fill="#F1F1F1" height="40" id="logic_arc_int__baselibs__intrusive_list" rx="2.5" ry="2.5" style="stroke:#181818;stroke-width:0.5;" width="293.0713" x="5225" y="158.5"/><ellipse cx="5240" cy="174.5" fill="#ADD1B2" rx="11" ry="11" style="stroke:#181818;stroke-width:1;"/><path d="M5242.9688,180.1406 Q5242.3906,180.4375 5241.75,180.5781 Q5241.1094,180.7344 5240.4063,180.7344 Q5237.9063,180.7344 5236.5781,179.0938 Q5235.2656,177.4375 5235.2656,174.3125 Q5235.2656,171.1875 5236.5781,169.5313 Q5237.9063,167.875 5240.4063,167.875 Q5241.1094,167.875 5241.75,168.0313 Q5242.4063,168.1875 5242.9688,168.4844 L5242.9688,171.2031 Q5242.3438,170.625 5241.75,170.3594 Q5241.1563,170.0781 5240.5313,170.0781 Q5239.1875,170.0781 5238.5,171.1563 Q5237.8125,172.2188 5237.8125,174.3125 Q5237.8125,176.4063 5238.5,177.4844 Q5239.1875,178.5469 5240.5313,178.5469 Q5241.1563,178.5469 5241.75,178.2813 Q5242.3438,178 5242.9688,177.4219 L5242.9688,180.1406 Z " fill="#000000"/><text fill="#000000" font-family="sans-serif" font-size="14" lengthAdjust="spacing" textLength="261.0713" x="5254" y="179.3467">logic_arc_int__baselibs__intrusive_list</text><line style="stroke:#181818;stroke-width:0.5;" x1="5226" x2="5517.0713" y1="190.5" y2="190.5"/></g><!--class logic_arc_int__baselibs__promise--><g id="elem_logic_arc_int__baselibs__promise"><rect fill="#F1F1F1" height="40" id="logic_arc_int__baselibs__promise" rx="2.5" ry="2.5" style="stroke:#181818;stroke-width:0.5;" width="261.1885" x="1214" y="158.5"/><ellipse cx="1229" cy="174.5" fill="#ADD1B2" rx="11" ry="11" style="stroke:#181818;stroke-width:1;"/><path d="M1231.9688,180.1406 Q1231.3906,180.4375 1230.75,180.5781 Q1230.1094,180.7344 1229.4063,180.7344 Q1226.9063,180.7344 1225.5781,179.0938 Q1224.2656,177.4375 1224.2656,174.3125 Q1224.2656,171.1875 1225.5781,169.5313 Q1226.9063,167.875 1229.4063,167.875 Q1230.1094,167.875 1230.75,168.0313 Q1231.4063,168.1875 1231.9688,168.4844 L1231.9688,171.2031 Q1231.3438,170.625 1230.75,170.3594 Q1230.1563,170.0781 1229.5313,170.0781 Q1228.1875,170.0781 1227.5,171.1563 Q1226.8125,172.2188 1226.8125,174.3125 Q1226.8125,176.4063 1227.5,177.4844 Q1228.1875,178.5469 1229.5313,178.5469 Q1230.1563,178.5469 1230.75,178.2813 Q1231.3438,178 1231.9688,177.4219 L1231.9688,180.1406 Z " fill="#000000"/><text fill="#000000" font-family="sans-serif" font-size="14" lengthAdjust="spacing" textLength="229.1885" x="1243" y="179.3467">logic_arc_int__baselibs__promise</text><line style="stroke:#181818;stroke-width:0.5;" x1="1215" x2="1474.1885" y1="190.5" y2="190.5"/></g><!--class comp_arc_sta__baselibs__json--><g id="elem_comp_arc_sta__baselibs__json"><rect fill="#F1F1F1" height="40" id="comp_arc_sta__baselibs__json" rx="2.5" ry="2.5" style="stroke:#181818;stroke-width:0.5;" width="242.1367" x="2840.5" y="275.5"/><ellipse cx="2855.5" cy="291.5" fill="#ADD1B2" rx="11" ry="11" style="stroke:#181818;stroke-width:1;"/><path d="M2858.4688,297.1406 Q2857.8906,297.4375 2857.25,297.5781 Q2856.6094,297.7344 2855.9063,297.7344 Q2853.4063,297.7344 2852.0781,296.0938 Q2850.7656,294.4375 2850.7656,291.3125 Q2850.7656,288.1875 2852.0781,286.5313 Q2853.4063,284.875 2855.9063,284.875 Q2856.6094,284.875 2857.25,285.0313 Q2857.9063,285.1875 2858.4688,285.4844 L2858.4688,288.2031 Q2857.8438,287.625 2857.25,287.3594 Q2856.6563,287.0781 2856.0313,287.0781 Q2854.6875,287.0781 2854,288.1563 Q2853.3125,289.2188 2853.3125,291.3125 Q2853.3125,293.4063 2854,294.4844 Q2854.6875,295.5469 2856.0313,295.5469 Q2856.6563,295.5469 2857.25,295.2813 Q2857.8438,295 2858.4688,294.4219 L2858.4688,297.1406 Z " fill="#000000"/><text fill="#000000" font-family="sans-serif" font-size="14" lengthAdjust="spacing" textLength="210.1367" x="2869.5" y="296.3467">comp_arc_sta__baselibs__json</text><line style="stroke:#181818;stroke-width:0.5;" x1="2841.5" x2="3081.6367" y1="307.5" y2="307.5"/></g><!--class logic_arc_int__baselibs__future--><g id="elem_logic_arc_int__baselibs__future"><rect fill="#F1F1F1" height="40" id="logic_arc_int__baselibs__future" rx="2.5" ry="2.5" style="stroke:#181818;stroke-width:0.5;" width="247.0791" x="2563" y="158.5"/><ellipse cx="2578" cy="174.5" fill="#ADD1B2" rx="11" ry="11" style="stroke:#181818;stroke-width:1;"/><path d="M2580.9688,180.1406 Q2580.3906,180.4375 2579.75,180.5781 Q2579.1094,180.7344 2578.4063,180.7344 Q2575.9063,180.7344 2574.5781,179.0938 Q2573.2656,177.4375 2573.2656,174.3125 Q2573.2656,171.1875 2574.5781,169.5313 Q2575.9063,167.875 2578.4063,167.875 Q2579.1094,167.875 2579.75,168.0313 Q2580.4063,168.1875 2580.9688,168.4844 L2580.9688,171.2031 Q2580.3438,170.625 2579.75,170.3594 Q2579.1563,170.0781 2578.5313,170.0781 Q2577.1875,170.0781 2576.5,171.1563 Q2575.8125,172.2188 2575.8125,174.3125 Q2575.8125,176.4063 2576.5,177.4844 Q2577.1875,178.5469 2578.5313,178.5469 Q2579.1563,178.5469 2579.75,178.2813 Q2580.3438,178 2580.9688,177.4219 L2580.9688,180.1406 Z " fill="#000000"/><text fill="#000000" font-family="sans-serif" font-size="14" lengthAdjust="spacing" textLength="215.0791" x="2592" y="179.3467">logic_arc_int__baselibs__future</text><line style="stroke:#181818;stroke-width:0.5;" x1="2564" x2="2809.0791" y1="190.5" y2="190.5"/></g><!--class logic_arc_int__baselibs__executor--><g id="elem_logic_arc_int__baselibs__executor"><rect fill="#F1F1F1" height="40" id="logic_arc_int__baselibs__executor" rx="2.5" ry="2.5" style="stroke:#181818;stroke-width:0.5;" width="266.4385" x="1893.5" y="158.5"/><ellipse cx="1908.5" cy="174.5" fill="#ADD1B2" rx="11" ry="11" style="stroke:#181818;stroke-width:1;"/><path d="M1911.4688,180.1406 Q1910.8906,180.4375 1910.25,180.5781 Q1909.6094,180.7344 1908.9063,180.7344 Q1906.4063,180.7344 1905.0781,179.0938 Q1903.7656,177.4375 1903.7656,174.3125 Q1903.7656,171.1875 1905.0781,169.5313 Q1906.4063,167.875 1908.9063,167.875 Q1909.6094,167.875 1910.25,168.0313 Q1910.9063,168.1875 1911.4688,168.4844 L1911.4688,171.2031 Q1910.8438,170.625 1910.25,170.3594 Q1909.6563,170.0781 1909.0313,170.0781 Q1907.6875,170.0781 1907,171.1563 Q1906.3125,172.2188 1906.3125,174.3125 Q1906.3125,176.4063 1907,177.4844 Q1907.6875,178.5469 1909.0313,178.5469 Q1909.6563,178.5469 1910.25,178.2813 Q1910.8438,178 1911.4688,177.4219 L1911.4688,180.1406 Z " fill="#000000"/><text fill="#000000" font-family="sans-serif" font-size="14" lengthAdjust="spacing" textLength="234.4385" x="1922.5" y="179.3467">logic_arc_int__baselibs__executor</text><line style="stroke:#181818;stroke-width:0.5;" x1="1894.5" x2="2158.9385" y1="190.5" y2="190.5"/></g><!--class logic_arc_int__baselibs__synchronized_queue--><g id="elem_logic_arc_int__baselibs__synchronized_queue"><rect fill="#F1F1F1" height="40" id="logic_arc_int__baselibs__synchronized_queue" rx="2.5" ry="2.5" style="stroke:#181818;stroke-width:0.5;" width="348.3604" x="1510.5" y="158.5"/><ellipse cx="1525.5" cy="174.5" fill="#ADD1B2" rx="11" ry="11" style="stroke:#181818;stroke-width:1;"/><path d="M1528.4688,180.1406 Q1527.8906,180.4375 1527.25,180.5781 Q1526.6094,180.7344 1525.9063,180.7344 Q1523.4063,180.7344 1522.0781,179.0938 Q1520.7656,177.4375 1520.7656,174.3125 Q1520.7656,171.1875 1522.0781,169.5313 Q1523.4063,167.875 1525.9063,167.875 Q1526.6094,167.875 1527.25,168.0313 Q1527.9063,168.1875 1528.4688,168.4844 L1528.4688,171.2031 Q1527.8438,170.625 1527.25,170.3594 Q1526.6563,170.0781 1526.0313,170.0781 Q1524.6875,170.0781 1524,171.1563 Q1523.3125,172.2188 1523.3125,174.3125 Q1523.3125,176.4063 1524,177.4844 Q1524.6875,178.5469 1526.0313,178.5469 Q1526.6563,178.5469 1527.25,178.2813 Q1527.8438,178 1528.4688,177.4219 L1528.4688,180.1406 Z " fill="#000000"/><text fill="#000000" font-family="sans-serif" font-size="14" lengthAdjust="spacing" textLength="316.3604" x="1539.5" y="179.3467">logic_arc_int__baselibs__synchronized_queue</text><line style="stroke:#181818;stroke-width:0.5;" x1="1511.5" x2="1857.8604" y1="190.5" y2="190.5"/></g><!--class comp_arc_sta__baselibs__result--><g id="elem_comp_arc_sta__baselibs__result"><rect fill="#F1F1F1" height="40" id="comp_arc_sta__baselibs__result" rx="2.5" ry="2.5" style="stroke:#181818;stroke-width:0.5;" width="253.4297" x="7" y="275.5"/><ellipse cx="22" cy="291.5" fill="#ADD1B2" rx="11" ry="11" style="stroke:#181818;stroke-width:1;"/><path d="M24.9688,297.1406 Q24.3906,297.4375 23.75,297.5781 Q23.1094,297.7344 22.4063,297.7344 Q19.9063,297.7344 18.5781,296.0938 Q17.2656,294.4375 17.2656,291.3125 Q17.2656,288.1875 18.5781,286.5313 Q19.9063,284.875 22.4063,284.875 Q23.1094,284.875 23.75,285.0313 Q24.4063,285.1875 24.9688,285.4844 L24.9688,288.2031 Q24.3438,287.625 23.75,287.3594 Q23.1563,287.0781 22.5313,287.0781 Q21.1875,287.0781 20.5,288.1563 Q19.8125,289.2188 19.8125,291.3125 Q19.8125,293.4063 20.5,294.4844 Q21.1875,295.5469 22.5313,295.5469 Q23.1563,295.5469 23.75,295.2813 Q24.3438,295 24.9688,294.4219 L24.9688,297.1406 Z " fill="#000000"/><text fill="#000000" font-family="sans-serif" font-size="14" lengthAdjust="spacing" textLength="221.4297" x="36" y="296.3467">comp_arc_sta__baselibs__result</text><line style="stroke:#181818;stroke-width:0.5;" x1="8" x2="259.4297" y1="307.5" y2="307.5"/></g><!--link Feature_User to logic_arc_int__baselibs__result--><g id="link_Feature_User_logic_arc_int__baselibs__result"><path codeLine="14" d="M2916.24,45.32 C2696.67,49.47 1720.36,69.47 921.5,111.5 C632.7,126.69 560.14,128.46 272.5,158.5 C267.05,159.07 267.4403,159.0006 261.8203,159.6506 " fill="transparent" id="Feature_User-to-logic_arc_int__baselibs__result" style="stroke:#181818;stroke-width:1;"/><polygon fill="#181818" points="255.86,160.34,265.26,163.2795,260.8269,159.7655,264.3408,155.3325,255.86,160.34" style="stroke:#181818;stroke-width:1;"/><text fill="#000000" font-family="sans-serif" font-size="13" lengthAdjust="spacing" textLength="23.0103" x="922.5" y="124.5669">use</text></g><!--link Feature_User to logic_arc_int__baselibs__json--><g id="link_Feature_User_logic_arc_int__baselibs__json"><path codeLine="16" d="M2961.5,81.55 C2961.5,106.45 2961.5,132.26 2961.5,152.26 " fill="transparent" id="Feature_User-to-logic_arc_int__baselibs__json" style="stroke:#181818;stroke-width:1;"/><polygon fill="#181818" points="2961.5,158.26,2965.5,149.26,2961.5,153.26,2957.5,149.26,2961.5,158.26" style="stroke:#181818;stroke-width:1;"/><text fill="#000000" font-family="sans-serif" font-size="13" lengthAdjust="spacing" textLength="23.0103" x="2962.5" y="124.5669">use</text></g><!--reverse link logic_arc_int__baselibs__utils_scoped_op to comp_arc_sta__baselibs__utils--><g id="link_logic_arc_int__baselibs__utils_scoped_op_comp_arc_sta__baselibs__utils"><path codeLine="17" d="M3560.3479,201.7743 C3523.8679,223.0643 3470.64,254.14 3434.25,275.38 " fill="transparent" id="logic_arc_int__baselibs__utils_scoped_op-backto-comp_arc_sta__baselibs__utils" style="stroke:#181818;stroke-width:1;"/><polygon fill="#181818" points="3565.53,198.75,3555.7407,199.8317,3561.2116,201.2702,3559.7731,206.7411,3565.53,198.75" style="stroke:#181818;stroke-width:1;"/><text fill="#000000" font-family="sans-serif" font-size="13" lengthAdjust="spacing" textLength="76.9082" x="3513.5" y="241.5669">implements</text></g><!--reverse link logic_arc_int__baselibs__dynamic_array to comp_arc_sta__baselibs__containers--><g id="link_logic_arc_int__baselibs__dynamic_array_comp_arc_sta__baselibs__containers"><path codeLine="18" d="M5068.3918,202.1527 C5099.3118,223.4427 5143.89,254.14 5174.74,275.38 " fill="transparent" id="logic_arc_int__baselibs__dynamic_array-backto-comp_arc_sta__baselibs__containers" style="stroke:#181818;stroke-width:1;"/><polygon fill="#181818" points="5063.45,198.75,5068.5943,207.1486,5067.5682,201.5856,5073.1312,200.5595,5063.45,198.75" style="stroke:#181818;stroke-width:1;"/><text fill="#000000" font-family="sans-serif" font-size="13" lengthAdjust="spacing" textLength="76.9082" x="5130.5" y="241.5669">implements</text></g><!--link Feature_User to logic_arc_int__baselibs__dynamic_array--><g id="link_Feature_User_logic_arc_int__baselibs__dynamic_array"><path codeLine="19" d="M3006.85,46.27 C3217.71,54.7 4123.32,93.12 4863.5,158.5 C4869.34,159.02 4869.3069,158.9926 4875.3069,159.5626 " fill="transparent" id="Feature_User-to-logic_arc_int__baselibs__dynamic_array" style="stroke:#181818;stroke-width:1;"/><polygon fill="#181818" points="4881.28,160.13,4872.6986,155.2968,4876.3024,159.6571,4871.942,163.2609,4881.28,160.13" style="stroke:#181818;stroke-width:1;"/><text fill="#000000" font-family="sans-serif" font-size="13" lengthAdjust="spacing" textLength="23.0103" x="4448.5" y="124.5669">use</text></g><!--reverse link logic_arc_int__baselibs__filesystem to comp_arc_sta__baselibs__filesystem--><g id="link_logic_arc_int__baselibs__filesystem_comp_arc_sta__baselibs__filesystem"><path codeLine="20" d="M6048.9346,204.7491 C6049.3046,225.9791 6049.79,253.94 6050.16,275.19 " fill="transparent" id="logic_arc_int__baselibs__filesystem-backto-comp_arc_sta__baselibs__filesystem" style="stroke:#181818;stroke-width:1;"/><polygon fill="#181818" points="6048.83,198.75,6044.9874,207.8183,6048.9171,203.7492,6052.9862,207.6789,6048.83,198.75" style="stroke:#181818;stroke-width:1;"/><text fill="#000000" font-family="sans-serif" font-size="13" lengthAdjust="spacing" textLength="76.9082" x="6050.5" y="241.5669">implements</text></g><!--reverse link logic_arc_int__baselibs__memory_shared to comp_arc_sta__baselibs__memory_shared--><g id="link_logic_arc_int__baselibs__memory_shared_comp_arc_sta__baselibs__memory_shared"><path codeLine="21" d="M5711.8418,204.7479 C5711.2818,225.9779 5710.56,253.94 5710,275.19 " fill="transparent" id="logic_arc_int__baselibs__memory_shared-backto-comp_arc_sta__baselibs__memory_shared" style="stroke:#181818;stroke-width:1;"/><polygon fill="#181818" points="5712,198.75,5707.7641,207.6414,5711.8682,203.7483,5715.7613,207.8523,5712,198.75" style="stroke:#181818;stroke-width:1;"/><text fill="#000000" font-family="sans-serif" font-size="13" lengthAdjust="spacing" textLength="76.9082" x="5712.5" y="241.5669">implements</text></g><!--link Feature_User to logic_arc_int__baselibs__bit_mask_operator--><g id="link_Feature_User_logic_arc_int__baselibs__bit_mask_operator"><path codeLine="22" d="M3006.6,50.52 C3148.03,69.38 3581.0327,127.1466 3810.1227,157.7066 " fill="transparent" id="Feature_User-to-logic_arc_int__baselibs__bit_mask_operator" style="stroke:#181818;stroke-width:1;"/><polygon fill="#181818" points="3816.07,158.5,3807.6779,153.3451,3811.1139,157.8389,3806.6201,161.2748,3816.07,158.5" style="stroke:#181818;stroke-width:1;"/><text fill="#000000" font-family="sans-serif" font-size="13" lengthAdjust="spacing" textLength="23.0103" x="3580.5" y="124.5669">use</text></g><!--link Feature_User to logic_arc_int__baselibs__utils_base64--><g id="link_Feature_User_logic_arc_int__baselibs__utils_base64"><path codeLine="23" d="M3006.76,64.7 C3063.75,90.13 3155.4509,131.0646 3211.2409,155.9646 " fill="transparent" id="Feature_User-to-logic_arc_int__baselibs__utils_base64" style="stroke:#181818;stroke-width:1;"/><polygon fill="#181818" points="3216.72,158.41,3210.1317,151.0892,3212.1541,156.3722,3206.8712,158.3946,3216.72,158.41" style="stroke:#181818;stroke-width:1;"/><text fill="#000000" font-family="sans-serif" font-size="13" lengthAdjust="spacing" textLength="23.0103" x="3147.5" y="124.5669">use</text></g><!--reverse link logic_arc_int__baselibs__task to comp_arc_sta__baselibs__concurrency--><g id="link_logic_arc_int__baselibs__task_comp_arc_sta__baselibs__concurrency"><path codeLine="24" d="M1142.2047,200.0296 C1225.8747,221.3196 1354.73,254.11 1438.46,275.41 " fill="transparent" id="logic_arc_int__baselibs__task-backto-comp_arc_sta__baselibs__concurrency" style="stroke:#181818;stroke-width:1;"/><polygon fill="#181818" points="1136.39,198.55,1144.1257,204.6458,1141.2356,199.783,1146.0984,196.8929,1136.39,198.55" style="stroke:#181818;stroke-width:1;"/><text fill="#000000" font-family="sans-serif" font-size="13" lengthAdjust="spacing" textLength="76.9082" x="1316.5" y="241.5669">implements</text></g><!--reverse link logic_arc_int__baselibs__task_result to comp_arc_sta__baselibs__concurrency--><g id="link_logic_arc_int__baselibs__task_result_comp_arc_sta__baselibs__concurrency"><path codeLine="25" d="M888.0893,199.5108 C969.4393,212.9908 1075.68,230.33 1174.5,245.5 C1241.51,255.79 1316.06,266.63 1378.15,275.49 " fill="transparent" id="logic_arc_int__baselibs__task_result-backto-comp_arc_sta__baselibs__concurrency" style="stroke:#181818;stroke-width:1;"/><polygon fill="#181818" points="882.17,198.53,890.395,203.9475,887.1027,199.3474,891.7028,196.0551,882.17,198.53" style="stroke:#181818;stroke-width:1;"/><text fill="#000000" font-family="sans-serif" font-size="13" lengthAdjust="spacing" textLength="76.9082" x="1175.5" y="241.5669">implements</text></g><!--link Feature_User to logic_arc_int__baselibs__memory_shared--><g id="link_Feature_User_logic_arc_int__baselibs__memory_shared"><path codeLine="26" d="M3006.66,45.61 C3214.72,50.84 4101.71,74.31 4828.5,111.5 C5143,127.59 5221.77,131.24 5535.5,158.5 C5541.35,159.01 5541.3359,158.9933 5547.3459,159.5533 " fill="transparent" id="Feature_User-to-logic_arc_int__baselibs__memory_shared" style="stroke:#181818;stroke-width:1;"/><polygon fill="#181818" points="5553.32,160.11,5544.7299,155.2923,5548.3416,159.6461,5543.9877,163.2578,5553.32,160.11" style="stroke:#181818;stroke-width:1;"/><text fill="#000000" font-family="sans-serif" font-size="13" lengthAdjust="spacing" textLength="23.0103" x="5136.5" y="124.5669">use</text></g><!--reverse link logic_arc_int__baselibs__message_passing to comp_arc_sta__baselibs__message_passing--><g id="link_logic_arc_int__baselibs__message_passing_comp_arc_sta__baselibs__message_passing"><path codeLine="27" d="M4682.5,204.75 C4682.5,225.98 4682.5,253.94 4682.5,275.19 " fill="transparent" id="logic_arc_int__baselibs__message_passing-backto-comp_arc_sta__baselibs__message_passing" style="stroke:#181818;stroke-width:1;"/><polygon fill="#181818" points="4682.5,198.75,4678.5,207.75,4682.5,203.75,4686.5,207.75,4682.5,198.75" style="stroke:#181818;stroke-width:1;"/><text fill="#000000" font-family="sans-serif" font-size="13" lengthAdjust="spacing" textLength="76.9082" x="4683.5" y="241.5669">implements</text></g><!--link Feature_User to logic_arc_int__baselibs__bit_manipulation--><g id="link_Feature_User_logic_arc_int__baselibs__bit_manipulation"><path codeLine="28" d="M3006.61,48.69 C3163.57,63.32 3700.46,113.62 4143.5,158.5 C4149.25,159.08 4149.1417,159.064 4155.0517,159.674 " fill="transparent" id="Feature_User-to-logic_arc_int__baselibs__bit_manipulation" style="stroke:#181818;stroke-width:1;"/><polygon fill="#181818" points="4161.02,160.29,4152.4782,155.3871,4156.0464,159.7767,4151.6569,163.3448,4161.02,160.29" style="stroke:#181818;stroke-width:1;"/><text fill="#000000" font-family="sans-serif" font-size="13" lengthAdjust="spacing" textLength="23.0103" x="3820.5" y="124.5669">use</text></g><!--reverse link logic_arc_int__baselibs__bit_manipulation to comp_arc_sta__baselibs__bit_manipulation--><g id="link_logic_arc_int__baselibs__bit_manipulation_comp_arc_sta__baselibs__bit_manipulation"><path codeLine="29" d="M4281.5701,201.6001 C4242.1301,222.8901 4184.25,254.14 4144.91,275.38 " fill="transparent" id="logic_arc_int__baselibs__bit_manipulation-backto-comp_arc_sta__baselibs__bit_manipulation" style="stroke:#181818;stroke-width:1;"/><polygon fill="#181818" points="4286.85,198.75,4277.0301,199.5053,4282.4501,201.1251,4280.8303,206.5451,4286.85,198.75" style="stroke:#181818;stroke-width:1;"/><text fill="#000000" font-family="sans-serif" font-size="13" lengthAdjust="spacing" textLength="76.9082" x="4230.5" y="241.5669">implements</text></g><!--link Feature_User to logic_arc_int__baselibs__message_passing--><g id="link_Feature_User_logic_arc_int__baselibs__message_passing"><path codeLine="30" d="M3006.55,47.34 C3191.48,59.1 3910.41,105.86 4500.5,158.5 C4506.35,159.02 4506.3358,159.0143 4512.3558,159.5743 " fill="transparent" id="Feature_User-to-logic_arc_int__baselibs__message_passing" style="stroke:#181818;stroke-width:1;"/><polygon fill="#181818" points="4518.33,160.13,4509.7392,155.3136,4513.3515,159.6669,4508.9982,163.2792,4518.33,160.13" style="stroke:#181818;stroke-width:1;"/><text fill="#000000" font-family="sans-serif" font-size="13" lengthAdjust="spacing" textLength="23.0103" x="4122.5" y="124.5669">use</text></g><!--link Feature_User to logic_arc_int__baselibs__shared_future--><g id="link_Feature_User_logic_arc_int__baselibs__shared_future"><path codeLine="31" d="M2916.31,45.59 C2716.47,50.53 1892.2,72.34 1216.5,111.5 C946.81,127.13 879.43,132.96 610.5,158.5 C604.62,159.06 604.6007,159.0579 598.5507,159.6579 " fill="transparent" id="Feature_User-to-logic_arc_int__baselibs__shared_future" style="stroke:#181818;stroke-width:1;"/><polygon fill="#181818" points="592.58,160.25,601.9308,163.3423,597.5556,159.7566,601.1413,155.3813,592.58,160.25" style="stroke:#181818;stroke-width:1;"/><text fill="#000000" font-family="sans-serif" font-size="13" lengthAdjust="spacing" textLength="23.0103" x="1217.5" y="124.5669">use</text></g><!--reverse link logic_arc_int__baselibs__condition_variable to comp_arc_sta__baselibs__concurrency--><g id="link_logic_arc_int__baselibs__condition_variable_comp_arc_sta__baselibs__concurrency"><path codeLine="32" d="M2221.0085,199.3655 C2126.1485,212.7055 2002.05,230.02 1887.5,245.5 C1812.87,255.58 1729.82,266.5 1660.97,275.46 " fill="transparent" id="logic_arc_int__baselibs__condition_variable-backto-comp_arc_sta__baselibs__concurrency" style="stroke:#181818;stroke-width:1;"/><polygon fill="#181818" points="2226.95,198.53,2217.4807,195.8223,2221.9987,199.2263,2218.5947,203.7443,2226.95,198.53" style="stroke:#181818;stroke-width:1;"/><text fill="#000000" font-family="sans-serif" font-size="13" lengthAdjust="spacing" textLength="76.9082" x="2006.5" y="241.5669">implements</text></g><!--link Feature_User to logic_arc_int__baselibs__task--><g id="link_Feature_User_logic_arc_int__baselibs__task"><path codeLine="33" d="M2916.46,46.68 C2759.74,54.33 2223.67,81.19 1781.5,111.5 C1521.27,129.34 1455.76,129.87 1196.5,158.5 C1190.62,159.15 1190.556,159.1251 1184.476,159.8651 " fill="transparent" id="Feature_User-to-logic_arc_int__baselibs__task" style="stroke:#181818;stroke-width:1;"/><polygon fill="#181818" points="1178.52,160.59,1187.9373,163.4733,1183.4834,159.9859,1186.9708,155.5319,1178.52,160.59" style="stroke:#181818;stroke-width:1;"/><text fill="#000000" font-family="sans-serif" font-size="13" lengthAdjust="spacing" textLength="23.0103" x="1782.5" y="124.5669">use</text></g><!--reverse link logic_arc_int__baselibs__intrusive_list to comp_arc_sta__baselibs__containers--><g id="link_logic_arc_int__baselibs__intrusive_list_comp_arc_sta__baselibs__containers"><path codeLine="34" d="M5338.2494,202.1252 C5306.9594,223.4152 5261.81,254.14 5230.6,275.38 " fill="transparent" id="logic_arc_int__baselibs__intrusive_list-backto-comp_arc_sta__baselibs__containers" style="stroke:#181818;stroke-width:1;"/><polygon fill="#181818" points="5343.21,198.75,5333.5189,200.5058,5339.0762,201.5627,5338.0192,207.1199,5343.21,198.75" style="stroke:#181818;stroke-width:1;"/><text fill="#000000" font-family="sans-serif" font-size="13" lengthAdjust="spacing" textLength="76.9082" x="5298.5" y="241.5669">implements</text></g><!--link Feature_User to logic_arc_int__baselibs__promise--><g id="link_Feature_User_logic_arc_int__baselibs__promise"><path codeLine="35" d="M2916.35,47.17 C2736.39,58.01 2052.94,100.82 1492.5,158.5 C1486.83,159.08 1487.0032,159.0463 1481.1632,159.6963 " fill="transparent" id="Feature_User-to-logic_arc_int__baselibs__promise" style="stroke:#181818;stroke-width:1;"/><polygon fill="#181818" points="1475.2,160.36,1484.5872,163.3399,1480.1693,159.8069,1483.7023,155.389,1475.2,160.36" style="stroke:#181818;stroke-width:1;"/><text fill="#000000" font-family="sans-serif" font-size="13" lengthAdjust="spacing" textLength="23.0103" x="1978.5" y="124.5669">use</text></g><!--reverse link logic_arc_int__baselibs__bit_mask_operator to comp_arc_sta__baselibs__bit_manipulation--><g id="link_logic_arc_int__baselibs__bit_mask_operator_comp_arc_sta__baselibs__bit_manipulation"><path codeLine="36" d="M3988.5436,202.3849 C4016.5036,223.6749 4056.51,254.14 4084.4,275.38 " fill="transparent" id="logic_arc_int__baselibs__bit_mask_operator-backto-comp_arc_sta__baselibs__bit_manipulation" style="stroke:#181818;stroke-width:1;"/><polygon fill="#181818" points="3983.77,198.75,3988.5072,207.3847,3987.748,201.7791,3993.3537,201.0199,3983.77,198.75" style="stroke:#181818;stroke-width:1;"/><text fill="#000000" font-family="sans-serif" font-size="13" lengthAdjust="spacing" textLength="76.9082" x="4044.5" y="241.5669">implements</text></g><!--reverse link logic_arc_int__baselibs__promise to comp_arc_sta__baselibs__concurrency--><g id="link_logic_arc_int__baselibs__promise_comp_arc_sta__baselibs__concurrency"><path codeLine="37" d="M1377.7506,202.1252 C1409.0406,223.4152 1454.19,254.14 1485.4,275.38 " fill="transparent" id="logic_arc_int__baselibs__promise-backto-comp_arc_sta__baselibs__concurrency" style="stroke:#181818;stroke-width:1;"/><polygon fill="#181818" points="1372.79,198.75,1377.9808,207.1199,1376.9238,201.5627,1382.4811,200.5058,1372.79,198.75" style="stroke:#181818;stroke-width:1;"/><text fill="#000000" font-family="sans-serif" font-size="13" lengthAdjust="spacing" textLength="76.9082" x="1440.5" y="241.5669">implements</text></g><!--reverse link logic_arc_int__baselibs__json to comp_arc_sta__baselibs__json--><g id="link_logic_arc_int__baselibs__json_comp_arc_sta__baselibs__json"><path codeLine="38" d="M2961.5,204.75 C2961.5,225.98 2961.5,253.94 2961.5,275.19 " fill="transparent" id="logic_arc_int__baselibs__json-backto-comp_arc_sta__baselibs__json" style="stroke:#181818;stroke-width:1;"/><polygon fill="#181818" points="2961.5,198.75,2957.5,207.75,2961.5,203.75,2965.5,207.75,2961.5,198.75" style="stroke:#181818;stroke-width:1;"/><text fill="#000000" font-family="sans-serif" font-size="13" lengthAdjust="spacing" textLength="76.9082" x="2962.5" y="241.5669">implements</text></g><!--link Feature_User to logic_arc_int__baselibs__condition_variable--><g id="link_Feature_User_logic_arc_int__baselibs__condition_variable"><path codeLine="39" d="M2916.4,54.5 C2816.79,76.58 2582.4779,128.5219 2453.1879,157.1719 " fill="transparent" id="Feature_User-to-logic_arc_int__baselibs__condition_variable" style="stroke:#181818;stroke-width:1;"/><polygon fill="#181818" points="2447.33,158.47,2456.9822,160.4281,2452.2116,157.3883,2455.2515,152.6176,2447.33,158.47" style="stroke:#181818;stroke-width:1;"/><text fill="#000000" font-family="sans-serif" font-size="13" lengthAdjust="spacing" textLength="23.0103" x="2645.5" y="124.5669">use</text></g><!--reverse link logic_arc_int__baselibs__future to comp_arc_sta__baselibs__concurrency--><g id="link_logic_arc_int__baselibs__future_comp_arc_sta__baselibs__concurrency"><path codeLine="40" d="M2556.7754,197.1367 C2550.9554,197.8567 2551.14,197.83 2545.5,198.5 C2232.59,235.77 1864.85,266.97 1663.73,282.97 " fill="transparent" id="logic_arc_int__baselibs__future-backto-comp_arc_sta__baselibs__concurrency" style="stroke:#181818;stroke-width:1;"/><polygon fill="#181818" points="2562.73,196.4,2553.307,193.5352,2557.7678,197.0139,2554.2892,201.4747,2562.73,196.4" style="stroke:#181818;stroke-width:1;"/><text fill="#000000" font-family="sans-serif" font-size="13" lengthAdjust="spacing" textLength="76.9082" x="2264.5" y="241.5669">implements</text></g><!--reverse link logic_arc_int__baselibs__executor to comp_arc_sta__baselibs__concurrency--><g id="link_logic_arc_int__baselibs__executor_comp_arc_sta__baselibs__concurrency"><path codeLine="41" d="M1935.6453,199.8626 C1840.6853,221.1526 1693.69,254.11 1598.66,275.41 " fill="transparent" id="logic_arc_int__baselibs__executor-backto-comp_arc_sta__baselibs__concurrency" style="stroke:#181818;stroke-width:1;"/><polygon fill="#181818" points="1941.5,198.55,1931.8429,196.6158,1936.6211,199.6438,1933.5931,204.422,1941.5,198.55" style="stroke:#181818;stroke-width:1;"/><text fill="#000000" font-family="sans-serif" font-size="13" lengthAdjust="spacing" textLength="76.9082" x="1802.5" y="241.5669">implements</text></g><!--reverse link logic_arc_int__baselibs__synchronized_queue to comp_arc_sta__baselibs__concurrency--><g id="link_logic_arc_int__baselibs__synchronized_queue_comp_arc_sta__baselibs__concurrency"><path codeLine="42" d="M1650.901,202.0981 C1619.241,223.3881 1573.51,254.14 1541.93,275.38 " fill="transparent" id="logic_arc_int__baselibs__synchronized_queue-backto-comp_arc_sta__baselibs__concurrency" style="stroke:#181818;stroke-width:1;"/><polygon fill="#181818" points="1655.88,198.75,1646.1795,200.4529,1651.7309,201.5401,1650.6437,207.0915,1655.88,198.75" style="stroke:#181818;stroke-width:1;"/><text fill="#000000" font-family="sans-serif" font-size="13" lengthAdjust="spacing" textLength="76.9082" x="1610.5" y="241.5669">implements</text></g><!--reverse link logic_arc_int__baselibs__shared_future to comp_arc_sta__baselibs__concurrency--><g id="link_logic_arc_int__baselibs__shared_future_comp_arc_sta__baselibs__concurrency"><path codeLine="43" d="M595.9132,199.2583 C705.8632,213.0783 853.44,231.05 988.5,245.5 C1114.79,259.01 1258.41,272.27 1363.47,281.58 " fill="transparent" id="logic_arc_int__baselibs__shared_future-backto-comp_arc_sta__baselibs__concurrency" style="stroke:#181818;stroke-width:1;"/><polygon fill="#181818" points="589.96,198.51,598.3909,203.6012,594.921,199.1336,599.3886,195.6636,589.96,198.51" style="stroke:#181818;stroke-width:1;"/><text fill="#000000" font-family="sans-serif" font-size="13" lengthAdjust="spacing" textLength="76.9082" x="989.5" y="241.5669">implements</text></g><!--reverse link logic_arc_int__baselibs__result to comp_arc_sta__baselibs__result--><g id="link_logic_arc_int__baselibs__result_comp_arc_sta__baselibs__result"><path codeLine="44" d="M133.5,204.75 C133.5,225.98 133.5,253.94 133.5,275.19 " fill="transparent" id="logic_arc_int__baselibs__result-backto-comp_arc_sta__baselibs__result" style="stroke:#181818;stroke-width:1;"/><polygon fill="#181818" points="133.5,198.75,129.5,207.75,133.5,203.75,137.5,207.75,133.5,198.75" style="stroke:#181818;stroke-width:1;"/><text fill="#000000" font-family="sans-serif" font-size="13" lengthAdjust="spacing" textLength="76.9082" x="134.5" y="241.5669">implements</text></g><!--link Feature_User to logic_arc_int__baselibs__executor--><g id="link_Feature_User_logic_arc_int__baselibs__executor"><path codeLine="45" d="M2916.4,50.91 C2780.79,70.2 2378.9102,127.3752 2165.6502,157.7052 " fill="transparent" id="Feature_User-to-logic_arc_int__baselibs__executor" style="stroke:#181818;stroke-width:1;"/><polygon fill="#181818" points="2159.71,158.55,2169.1836,161.2429,2164.6602,157.846,2168.0571,153.3226,2159.71,158.55" style="stroke:#181818;stroke-width:1;"/><text fill="#000000" font-family="sans-serif" font-size="13" lengthAdjust="spacing" textLength="23.0103" x="2467.5" y="124.5669">use</text></g><!--link Feature_User to logic_arc_int__baselibs__task_result--><g id="link_Feature_User_logic_arc_int__baselibs__task_result"><path codeLine="46" d="M2916.48,45.95 C2737.05,51.88 2055.5,75.59 1495.5,111.5 C1242.27,127.74 1178.96,132.9 926.5,158.5 C920.87,159.07 921.0849,159.0221 915.2849,159.6521 " fill="transparent" id="Feature_User-to-logic_arc_int__baselibs__task_result" style="stroke:#181818;stroke-width:1;"/><polygon fill="#181818" points="909.32,160.3,918.6993,163.3047,914.2908,159.7601,917.8354,155.3515,909.32,160.3" style="stroke:#181818;stroke-width:1;"/><text fill="#000000" font-family="sans-serif" font-size="13" lengthAdjust="spacing" textLength="23.0103" x="1496.5" y="124.5669">use</text></g><!--link Feature_User to logic_arc_int__baselibs__utils_scoped_op--><g id="link_Feature_User_logic_arc_int__baselibs__utils_scoped_op"><path codeLine="47" d="M3006.55,53.91 C3110.53,75.62 3363.0867,128.3435 3501.5767,157.2635 " fill="transparent" id="Feature_User-to-logic_arc_int__baselibs__utils_scoped_op" style="stroke:#181818;stroke-width:1;"/><polygon fill="#181818" points="3507.45,158.49,3499.4577,152.7347,3502.5556,157.4679,3497.8224,160.5658,3507.45,158.49" style="stroke:#181818;stroke-width:1;"/><text fill="#000000" font-family="sans-serif" font-size="13" lengthAdjust="spacing" textLength="23.0103" x="3357.5" y="124.5669">use</text></g><!--reverse link logic_arc_int__baselibs__utils_base64 to comp_arc_sta__baselibs__utils--><g id="link_logic_arc_int__baselibs__utils_base64_comp_arc_sta__baselibs__utils"><path codeLine="48" d="M3287.9324,202.5265 C3314.1424,223.7565 3351.41,253.94 3377.65,275.19 " fill="transparent" id="logic_arc_int__baselibs__utils_base64-backto-comp_arc_sta__baselibs__utils" style="stroke:#181818;stroke-width:1;"/><polygon fill="#181818" points="3283.27,198.75,3287.7459,207.523,3287.1553,201.8971,3292.7813,201.3065,3283.27,198.75" style="stroke:#181818;stroke-width:1;"/><text fill="#000000" font-family="sans-serif" font-size="13" lengthAdjust="spacing" textLength="76.9082" x="3340.5" y="241.5669">implements</text></g><!--link Feature_User to logic_arc_int__baselibs__future--><g id="link_Feature_User_logic_arc_int__baselibs__future"><path codeLine="49" d="M2916.4,66.31 C2863.37,91.96 2781.6215,131.4977 2731.2315,155.8677 " fill="transparent" id="Feature_User-to-logic_arc_int__baselibs__future" style="stroke:#181818;stroke-width:1;"/><polygon fill="#181818" points="2725.83,158.48,2735.6737,158.1625,2730.3312,156.3031,2732.1907,150.9606,2725.83,158.48" style="stroke:#181818;stroke-width:1;"/><text fill="#000000" font-family="sans-serif" font-size="13" lengthAdjust="spacing" textLength="23.0103" x="2817.5" y="124.5669">use</text></g><!--link Feature_User to logic_arc_int__baselibs__intrusive_list--><g id="link_Feature_User_logic_arc_int__baselibs__intrusive_list"><path codeLine="50" d="M3006.56,46.15 C3189.98,52.93 3898.31,79.82 4480.5,111.5 C4803.36,129.07 4884.46,129.55 5206.5,158.5 C5212.53,159.04 5212.7086,159.0344 5218.9286,159.6444 " fill="transparent" id="Feature_User-to-logic_arc_int__baselibs__intrusive_list" style="stroke:#181818;stroke-width:1;"/><polygon fill="#181818" points="5224.9,160.23,5216.3334,155.3707,5219.9239,159.742,5215.5526,163.3325,5224.9,160.23" style="stroke:#181818;stroke-width:1;"/><text fill="#000000" font-family="sans-serif" font-size="13" lengthAdjust="spacing" textLength="23.0103" x="4796.5" y="124.5669">use</text></g><!--link Feature_User to logic_arc_int__baselibs__filesystem--><g id="link_Feature_User_logic_arc_int__baselibs__filesystem"><path codeLine="51" d="M3006.59,45.28 C3236.28,49.41 4299.32,69.95 5168.5,111.5 C5488.82,126.81 5569.17,129.14 5888.5,158.5 C5895.6,159.15 5896.9119,159.2421 5904.2519,160.0021 " fill="transparent" id="Feature_User-to-logic_arc_int__baselibs__filesystem" style="stroke:#181818;stroke-width:1;"/><polygon fill="#181818" points="5910.22,160.62,5901.6798,155.7143,5905.2466,160.105,5900.8559,163.6718,5910.22,160.62" style="stroke:#181818;stroke-width:1;"/><text fill="#000000" font-family="sans-serif" font-size="13" lengthAdjust="spacing" textLength="23.0103" x="5506.5" y="124.5669">use</text></g><!--link Feature_User to logic_arc_int__baselibs__synchronized_queue--><g id="link_Feature_User_logic_arc_int__baselibs__synchronized_queue"><path codeLine="52" d="M2916.43,49.19 C2748.96,66.64 2162.8977,127.6785 1864.7477,158.7285 " fill="transparent" id="Feature_User-to-logic_arc_int__baselibs__synchronized_queue" style="stroke:#181818;stroke-width:1;"/><polygon fill="#181818" points="1858.78,159.35,1868.1459,162.3962,1863.7531,158.8321,1867.3173,154.4393,1858.78,159.35" style="stroke:#181818;stroke-width:1;"/><text fill="#000000" font-family="sans-serif" font-size="13" lengthAdjust="spacing" textLength="23.0103" x="2286.5" y="124.5669">use</text></g><!--SRC=[jLOzRzmm3DtzAuJibnP5qI48iXJebB6P1LbcxjZeAoALnYtwtokVBydPJK-suuoqoGS-yf6KCiR_b1OVqMqhza6m5xLdzbOq644pUbVji051314yjm5w6spWLYZcY7LYeEgIk3LmLPqhGbEBtzKrElZgZOyYGhEtlkzGtpaW4f_EFrP_giiFXvXAQSv-Pzz0SOeWRWZYcL0a3Xzazq5K0slJRAw4yLlKKaKjqR6KjI8mM9EK4IWPlX29G5Hp0d-GTuSmxMtOkn2hOvV4Q4XiqYcOlOyaxGCqqeSBWJOOiE2O_W-ilMELwnHBw4thbDt_YgeTOi-WEa8voVaM3L2RHM0BgRquJkDimVhOIjgfh982zi1tCUqQMLf5Txaj45NMtO7w38Y-kvtzvNEXSBcdEiK8JhS5TfnpcgoJ6PZFix2mNgEgdsHhyt2hBSYWYF9AAVPpuFt6ZZeCoQXkOnMI7BiNilmNVN4XHtJdogvlWRnDNS1gkikU3NR4v8EAg6e3Ynds4YxbDMt7PJCcmWUG1ccvUaFq5WdUGnA35RBkt3vdFGMsEra5lFwgBIpXQm9PINjFKbwtUl08Ehr3LwXrUXUzmrzv2kyJfDKp7qtu5F1-knTmttW2NWewTsKD3j2oCtlqY5hfMVPqk1TMOx1_PyIDDzhS-EEdrUpJyOfqznX_0G00]--></g></svg>