<svg xmlns="http://www.w3.org/2000/svg" xmlns:xlink="http://www.w3.org/1999/xlink" contentStyleType="text/css" data-diagram-type="CLASS" height="322px" preserveAspectRatio="none" style="width:6189px;height:322px;background:#FFFFFF;" version="1.1" viewBox="0 0 6189 322" width="6189px" zoomAndPan="magnify"><defs/><g><!--entity Feature_User--><g id="elem_Feature_User"><ellipse cx="3143.6685" cy="14" fill="#F1F1F1" rx="8" ry="8" style="stroke:#181818;stroke-width:0.5;"/><path d="M3143.6685,22 L3143.6685,49 M3130.6685,30 L3156.6685,30 M3143.6685,49 L3130.6685,64 M3143.6685,49 L3156.6685,64 " fill="transparent" style="stroke:#181818;stroke-width:0.5;"/><text fill="#000000" font-family="sans-serif" font-size="14" lengthAdjust="spacing" textLength="90.3369" x="3098.5" y="78.4951">Feature User</text></g><!--class comp_arc_sta__baselibs__concurrency--><g id="elem_comp_arc_sta__baselibs__concurrency"><rect fill="#F1F1F1" height="40" id="comp_arc_sta__baselibs__concurrency" rx="2.5" ry="2.5" style="stroke:#181818;stroke-width:0.5;" width="300.2012" x="2119.5" y="275.5"/><ellipse cx="2134.5" cy="291.5" fill="#ADD1B2" rx="11" ry="11" style="stroke:#181818;stroke-width:1;"/><path d="M2137.4688,297.1406 Q2136.8906,297.4375 2136.25,297.5781 Q2135.6094,297.7344 2134.9063,297.7344 Q2132.4063,297.7344 2131.0781,296.0938 Q2129.7656,294.4375 2129.7656,291.3125 Q2129.7656,288.1875 2131.0781,286.5313 Q2132.4063,284.875 2134.9063,284.875 Q2135.6094,284.875 2136.25,285.0313 Q2136.9063,285.1875 2137.4688,285.4844 L2137.4688,288.2031 Q2136.8438,287.625 2136.25,287.3594 Q2135.6563,287.0781 2135.0313,287.0781 Q2133.6875,287.0781 2133,288.1563 Q2132.3125,289.2188 2132.3125,291.3125 Q2132.3125,293.4063 2133,294.4844 Q2133.6875,295.5469 2135.0313,295.5469 Q2135.6563,295.5469 2136.25,295.2813 Q2136.8438,295 2137.4688,294.4219 L2137.4688,297.1406 Z " fill="#000000"/><text fill="#000000" font-family="sans-serif" font-size="14" lengthAdjust="spacing" textLength="268.2012" x="2148.5" y="296.3467">comp_arc_sta__baselibs__concurrency</text><line style="stroke:#181818;stroke-width:0.5;" x1="2120.5" x2="2418.7012" y1="307.5" y2="307.5"/></g><!--class logic_arc_int__baselibs__synchronized_queue--><g id="elem_logic_arc_int__baselibs__synchronized_queue"><rect fill="#F1F1F1" height="40" id="logic_arc_int__baselibs__synchronized_queue" rx="2.5" ry="2.5" style="stroke:#181818;stroke-width:0.5;" width="348.3604" x="2347.5" y="158.5"/><ellipse cx="2362.5" cy="174.5" fill="#ADD1B2" rx="11" ry="11" style="stroke:#181818;stroke-width:1;"/><path d="M2365.4688,180.1406 Q2364.8906,180.4375 2364.25,180.5781 Q2363.6094,180.7344 2362.9063,180.7344 Q2360.4063,180.7344 2359.0781,179.0938 Q2357.7656,177.4375 2357.7656,174.3125 Q2357.7656,171.1875 2359.0781,169.5313 Q2360.4063,167.875 2362.9063,167.875 Q2363.6094,167.875 2364.25,168.0313 Q2364.9063,168.1875 2365.4688,168.4844 L2365.4688,171.2031 Q2364.8438,170.625 2364.25,170.3594 Q2363.6563,170.0781 2363.0313,170.0781 Q2361.6875,170.0781 2361,171.1563 Q2360.3125,172.2188 2360.3125,174.3125 Q2360.3125,176.4063 2361,177.4844 Q2361.6875,178.5469 2363.0313,178.5469 Q2363.6563,178.5469 2364.25,178.2813 Q2364.8438,178 2365.4688,177.4219 L2365.4688,180.1406 Z " fill="#000000"/><text fill="#000000" font-family="sans-serif" font-size="14" lengthAdjust="spacing" textLength="316.3604" x="2376.5" y="179.3467">logic_arc_int__baselibs__synchronized_queue</text><line style="stroke:#181818;stroke-width:0.5;" x1="2348.5" x2="2694.8604" y1="190.5" y2="190.5"/></g><!--class logic_arc_int__baselibs__intrusive_list--><g id="elem_logic_arc_int__baselibs__intrusive_list"><rect fill="#F1F1F1" height="40" id="logic_arc_int__baselibs__intrusive_list" rx="2.5" ry="2.5" style="stroke:#181818;stroke-width:0.5;" width="293.0713" x="5546" y="158.5"/><ellipse cx="5561" cy="174.5" fill="#ADD1B2" rx="11" ry="11" style="stroke:#181818;stroke-width:1;"/><path d="M5563.9688,180.1406 Q5563.3906,180.4375 5562.75,180.5781 Q5562.1094,180.7344 5561.4063,180.7344 Q5558.9063,180.7344 5557.5781,179.0938 Q5556.2656,177.4375 5556.2656,174.3125 Q5556.2656,171.1875 5557.5781,169.5313 Q5558.9063,167.875 5561.4063,167.875 Q5562.1094,167.875 5562.75,168.0313 Q5563.4063,168.1875 5563.9688,168.4844 L5563.9688,171.2031 Q5563.3438,170.625 5562.75,170.3594 Q5562.1563,170.0781 5561.5313,170.0781 Q5560.1875,170.0781 5559.5,171.1563 Q5558.8125,172.2188 5558.8125,174.3125 Q5558.8125,176.4063 5559.5,177.4844 Q5560.1875,178.5469 5561.5313,178.5469 Q5562.1563,178.5469 5562.75,178.2813 Q5563.3438,178 5563.9688,177.4219 L5563.9688,180.1406 Z " fill="#000000"/><text fill="#000000" font-family="sans-serif" font-size="14" lengthAdjust="spacing" textLength="261.0713" x="5575" y="179.3467">logic_arc_int__baselibs__intrusive_list</text><line style="stroke:#181818;stroke-width:0.5;" x1="5547" x2="5838.0713" y1="190.5" y2="190.5"/></g><!--class logic_arc_int__baselibs__condition_variable--><g id="elem_logic_arc_int__baselibs__condition_variable"><rect fill="#F1F1F1" height="40" id="logic_arc_int__baselibs__condition_variable" rx="2.5" ry="2.5" style="stroke:#181818;stroke-width:0.5;" width="332.7539" x="1979" y="158.5"/><ellipse cx="1994" cy="174.5" fill="#ADD1B2" rx="11" ry="11" style="stroke:#181818;stroke-width:1;"/><path d="M1996.9688,180.1406 Q1996.3906,180.4375 1995.75,180.5781 Q1995.1094,180.7344 1994.4063,180.7344 Q1991.9063,180.7344 1990.5781,179.0938 Q1989.2656,177.4375 1989.2656,174.3125 Q1989.2656,171.1875 1990.5781,169.5313 Q1991.9063,167.875 1994.4063,167.875 Q1995.1094,167.875 1995.75,168.0313 Q1996.4063,168.1875 1996.9688,168.4844 L1996.9688,171.2031 Q1996.3438,170.625 1995.75,170.3594 Q1995.1563,170.0781 1994.5313,170.0781 Q1993.1875,170.0781 1992.5,171.1563 Q1991.8125,172.2188 1991.8125,174.3125 Q1991.8125,176.4063 1992.5,177.4844 Q1993.1875,178.5469 1994.5313,178.5469 Q1995.1563,178.5469 1995.75,178.2813 Q1996.3438,178 1996.9688,177.4219 L1996.9688,180.1406 Z " fill="#000000"/><text fill="#000000" font-family="sans-serif" font-size="14" lengthAdjust="spacing" textLength="300.7539" x="2008" y="179.3467">logic_arc_int__baselibs__condition_variable</text><line style="stroke:#181818;stroke-width:0.5;" x1="1980" x2="2310.7539" y1="190.5" y2="190.5"/></g><!--class comp_arc_sta__baselibs__utils--><g id="elem_comp_arc_sta__baselibs__utils"><rect fill="#F1F1F1" height="40" id="comp_arc_sta__baselibs__utils" rx="2.5" ry="2.5" style="stroke:#181818;stroke-width:0.5;" width="242.9502" x="4767" y="275.5"/><ellipse cx="4782" cy="291.5" fill="#ADD1B2" rx="11" ry="11" style="stroke:#181818;stroke-width:1;"/><path d="M4784.9688,297.1406 Q4784.3906,297.4375 4783.75,297.5781 Q4783.1094,297.7344 4782.4063,297.7344 Q4779.9063,297.7344 4778.5781,296.0938 Q4777.2656,294.4375 4777.2656,291.3125 Q4777.2656,288.1875 4778.5781,286.5313 Q4779.9063,284.875 4782.4063,284.875 Q4783.1094,284.875 4783.75,285.0313 Q4784.4063,285.1875 4784.9688,285.4844 L4784.9688,288.2031 Q4784.3438,287.625 4783.75,287.3594 Q4783.1563,287.0781 4782.5313,287.0781 Q4781.1875,287.0781 4780.5,288.1563 Q4779.8125,289.2188 4779.8125,291.3125 Q4779.8125,293.4063 4780.5,294.4844 Q4781.1875,295.5469 4782.5313,295.5469 Q4783.1563,295.5469 4783.75,295.2813 Q4784.3438,295 4784.9688,294.4219 L4784.9688,297.1406 Z " fill="#000000"/><text fill="#000000" font-family="sans-serif" font-size="14" lengthAdjust="spacing" textLength="210.9502" x="4796" y="296.3467">comp_arc_sta__baselibs__utils</text><line style="stroke:#181818;stroke-width:0.5;" x1="4768" x2="5008.9502" y1="307.5" y2="307.5"/></g><!--class logic_arc_int__baselibs__utils_base64--><g id="elem_logic_arc_int__baselibs__utils_base64"><rect fill="#F1F1F1" height="40" id="logic_arc_int__baselibs__utils_base64" rx="2.5" ry="2.5" style="stroke:#181818;stroke-width:0.5;" width="292.1689" x="4939.5" y="158.5"/><ellipse cx="4954.5" cy="174.5" fill="#ADD1B2" rx="11" ry="11" style="stroke:#181818;stroke-width:1;"/><path d="M4957.4688,180.1406 Q4956.8906,180.4375 4956.25,180.5781 Q4955.6094,180.7344 4954.9063,180.7344 Q4952.4063,180.7344 4951.0781,179.0938 Q4949.7656,177.4375 4949.7656,174.3125 Q4949.7656,171.1875 4951.0781,169.5313 Q4952.4063,167.875 4954.9063,167.875 Q4955.6094,167.875 4956.25,168.0313 Q4956.9063,168.1875 4957.4688,168.4844 L4957.4688,171.2031 Q4956.8438,170.625 4956.25,170.3594 Q4955.6563,170.0781 4955.0313,170.0781 Q4953.6875,170.0781 4953,171.1563 Q4952.3125,172.2188 4952.3125,174.3125 Q4952.3125,176.4063 4953,177.4844 Q4953.6875,178.5469 4955.0313,178.5469 Q4955.6563,178.5469 4956.25,178.2813 Q4956.8438,178 4957.4688,177.4219 L4957.4688,180.1406 Z " fill="#000000"/><text fill="#000000" font-family="sans-serif" font-size="14" lengthAdjust="spacing" textLength="260.1689" x="4968.5" y="179.3467">logic_arc_int__baselibs__utils_base64</text><line style="stroke:#181818;stroke-width:0.5;" x1="4940.5" x2="5230.6689" y1="190.5" y2="190.5"/></g><!--class comp_arc_sta__baselibs__containers--><g id="elem_comp_arc_sta__baselibs__containers"><rect fill="#F1F1F1" height="40" id="comp_arc_sta__baselibs__containers" rx="2.5" ry="2.5" style="stroke:#181818;stroke-width:0.5;" width="287.1445" x="5717" y="275.5"/><ellipse cx="5732" cy="291.5" fill="#ADD1B2" rx="11" ry="11" style="stroke:#181818;stroke-width:1;"/><path d="M5734.9688,297.1406 Q5734.3906,297.4375 5733.75,297.5781 Q5733.1094,297.7344 5732.4063,297.7344 Q5729.9063,297.7344 5728.5781,296.0938 Q5727.2656,294.4375 5727.2656,291.3125 Q5727.2656,288.1875 5728.5781,286.5313 Q5729.9063,284.875 5732.4063,284.875 Q5733.1094,284.875 5733.75,285.0313 Q5734.4063,285.1875 5734.9688,285.4844 L5734.9688,288.2031 Q5734.3438,287.625 5733.75,287.3594 Q5733.1563,287.0781 5732.5313,287.0781 Q5731.1875,287.0781 5730.5,288.1563 Q5729.8125,289.2188 5729.8125,291.3125 Q5729.8125,293.4063 5730.5,294.4844 Q5731.1875,295.5469 5732.5313,295.5469 Q5733.1563,295.5469 5733.75,295.2813 Q5734.3438,295 5734.9688,294.4219 L5734.9688,297.1406 Z " fill="#000000"/><text fill="#000000" font-family="sans-serif" font-size="14" lengthAdjust="spacing" textLength="255.1445" x="5746" y="296.3467">comp_arc_sta__baselibs__containers</text><line style="stroke:#181818;stroke-width:0.5;" x1="5718" x2="6003.1445" y1="307.5" y2="307.5"/></g><!--class logic_arc_int__baselibs__task--><g id="elem_logic_arc_int__baselibs__task"><rect fill="#F1F1F1" height="40" id="logic_arc_int__baselibs__task" rx="2.5" ry="2.5" style="stroke:#181818;stroke-width:0.5;" width="234.0156" x="1709.5" y="158.5"/><ellipse cx="1724.5" cy="174.5" fill="#ADD1B2" rx="11" ry="11" style="stroke:#181818;stroke-width:1;"/><path d="M1727.4688,180.1406 Q1726.8906,180.4375 1726.25,180.5781 Q1725.6094,180.7344 1724.9063,180.7344 Q1722.4063,180.7344 1721.0781,179.0938 Q1719.7656,177.4375 1719.7656,174.3125 Q1719.7656,171.1875 1721.0781,169.5313 Q1722.4063,167.875 1724.9063,167.875 Q1725.6094,167.875 1726.25,168.0313 Q1726.9063,168.1875 1727.4688,168.4844 L1727.4688,171.2031 Q1726.8438,170.625 1726.25,170.3594 Q1725.6563,170.0781 1725.0313,170.0781 Q1723.6875,170.0781 1723,171.1563 Q1722.3125,172.2188 1722.3125,174.3125 Q1722.3125,176.4063 1723,177.4844 Q1723.6875,178.5469 1725.0313,178.5469 Q1725.6563,178.5469 1726.25,178.2813 Q1726.8438,178 1727.4688,177.4219 L1727.4688,180.1406 Z " fill="#000000"/><text fill="#000000" font-family="sans-serif" font-size="14" lengthAdjust="spacing" textLength="202.0156" x="1738.5" y="179.3467">logic_arc_int__baselibs__task</text><line style="stroke:#181818;stroke-width:0.5;" x1="1710.5" x2="1942.5156" y1="190.5" y2="190.5"/></g><!--class logic_arc_int__baselibs__dynamic_array--><g id="elem_logic_arc_int__baselibs__dynamic_array"><rect fill="#F1F1F1" height="40" id="logic_arc_int__baselibs__dynamic_array" rx="2.5" ry="2.5" style="stroke:#181818;stroke-width:0.5;" width="308.3496" x="5874.5" y="158.5"/><ellipse cx="5889.5" cy="174.5" fill="#ADD1B2" rx="11" ry="11" style="stroke:#181818;stroke-width:1;"/><path d="M5892.4688,180.1406 Q5891.8906,180.4375 5891.25,180.5781 Q5890.6094,180.7344 5889.9063,180.7344 Q5887.4063,180.7344 5886.0781,179.0938 Q5884.7656,177.4375 5884.7656,174.3125 Q5884.7656,171.1875 5886.0781,169.5313 Q5887.4063,167.875 5889.9063,167.875 Q5890.6094,167.875 5891.25,168.0313 Q5891.9063,168.1875 5892.4688,168.4844 L5892.4688,171.2031 Q5891.8438,170.625 5891.25,170.3594 Q5890.6563,170.0781 5890.0313,170.0781 Q5888.6875,170.0781 5888,171.1563 Q5887.3125,172.2188 5887.3125,174.3125 Q5887.3125,176.4063 5888,177.4844 Q5888.6875,178.5469 5890.0313,178.5469 Q5890.6563,178.5469 5891.25,178.2813 Q5891.8438,178 5892.4688,177.4219 L5892.4688,180.1406 Z " fill="#000000"/><text fill="#000000" font-family="sans-serif" font-size="14" lengthAdjust="spacing" textLength="276.3496" x="5903.5" y="179.3467">logic_arc_int__baselibs__dynamic_array</text><line style="stroke:#181818;stroke-width:0.5;" x1="5875.5" x2="6181.8496" y1="190.5" y2="190.5"/></g><!--class logic_arc_int__baselibs__memory_shared--><g id="elem_logic_arc_int__baselibs__memory_shared"><rect fill="#F1F1F1" height="40" id="logic_arc_int__baselibs__memory_shared" rx="2.5" ry="2.5" style="stroke:#181818;stroke-width:0.5;" width="318.043" x="11.5" y="158.5"/><ellipse cx="26.5" cy="174.5" fill="#ADD1B2" rx="11" ry="11" style="stroke:#181818;stroke-width:1;"/><path d="M29.4688,180.1406 Q28.8906,180.4375 28.25,180.5781 Q27.6094,180.7344 26.9063,180.7344 Q24.4063,180.7344 23.0781,179.0938 Q21.7656,177.4375 21.7656,174.3125 Q21.7656,171.1875 23.0781,169.5313 Q24.4063,167.875 26.9063,167.875 Q27.6094,167.875 28.25,168.0313 Q28.9063,168.1875 29.4688,168.4844 L29.4688,171.2031 Q28.8438,170.625 28.25,170.3594 Q27.6563,170.0781 27.0313,170.0781 Q25.6875,170.0781 25,171.1563 Q24.3125,172.2188 24.3125,174.3125 Q24.3125,176.4063 25,177.4844 Q25.6875,178.5469 27.0313,178.5469 Q27.6563,178.5469 28.25,178.2813 Q28.8438,178 29.4688,177.4219 L29.4688,180.1406 Z " fill="#000000"/><text fill="#000000" font-family="sans-serif" font-size="14" lengthAdjust="spacing" textLength="286.043" x="40.5" y="179.3467">logic_arc_int__baselibs__memory_shared</text><line style="stroke:#181818;stroke-width:0.5;" x1="12.5" x2="328.543" y1="190.5" y2="190.5"/></g><!--class comp_arc_sta__baselibs__result--><g id="elem_comp_arc_sta__baselibs__result"><rect fill="#F1F1F1" height="40" id="comp_arc_sta__baselibs__result" rx="2.5" ry="2.5" style="stroke:#181818;stroke-width:0.5;" width="253.4297" x="5262" y="275.5"/><ellipse cx="5277" cy="291.5" fill="#ADD1B2" rx="11" ry="11" style="stroke:#181818;stroke-width:1;"/><path d="M5279.9688,297.1406 Q5279.3906,297.4375 5278.75,297.5781 Q5278.1094,297.7344 5277.4063,297.7344 Q5274.9063,297.7344 5273.5781,296.0938 Q5272.2656,294.4375 5272.2656,291.3125 Q5272.2656,288.1875 5273.5781,286.5313 Q5274.9063,284.875 5277.4063,284.875 Q5278.1094,284.875 5278.75,285.0313 Q5279.4063,285.1875 5279.9688,285.4844 L5279.9688,288.2031 Q5279.3438,287.625 5278.75,287.3594 Q5278.1563,287.0781 5277.5313,287.0781 Q5276.1875,287.0781 5275.5,288.1563 Q5274.8125,289.2188 5274.8125,291.3125 Q5274.8125,293.4063 5275.5,294.4844 Q5276.1875,295.5469 5277.5313,295.5469 Q5278.1563,295.5469 5278.75,295.2813 Q5279.3438,295 5279.9688,294.4219 L5279.9688,297.1406 Z " fill="#000000"/><text fill="#000000" font-family="sans-serif" font-size="14" lengthAdjust="spacing" textLength="221.4297" x="5291" y="296.3467">comp_arc_sta__baselibs__result</text><line style="stroke:#181818;stroke-width:0.5;" x1="5263" x2="5514.4297" y1="307.5" y2="307.5"/></g><!--class logic_arc_int__baselibs__result--><g id="elem_logic_arc_int__baselibs__result"><rect fill="#F1F1F1" height="40" id="logic_arc_int__baselibs__result" rx="2.5" ry="2.5" style="stroke:#181818;stroke-width:0.5;" width="244.4609" x="5266.5" y="158.5"/><ellipse cx="5281.5" cy="174.5" fill="#ADD1B2" rx="11" ry="11" style="stroke:#181818;stroke-width:1;"/><path d="M5284.4688,180.1406 Q5283.8906,180.4375 5283.25,180.5781 Q5282.6094,180.7344 5281.9063,180.7344 Q5279.4063,180.7344 5278.0781,179.0938 Q5276.7656,177.4375 5276.7656,174.3125 Q5276.7656,171.1875 5278.0781,169.5313 Q5279.4063,167.875 5281.9063,167.875 Q5282.6094,167.875 5283.25,168.0313 Q5283.9063,168.1875 5284.4688,168.4844 L5284.4688,171.2031 Q5283.8438,170.625 5283.25,170.3594 Q5282.6563,170.0781 5282.0313,170.0781 Q5280.6875,170.0781 5280,171.1563 Q5279.3125,172.2188 5279.3125,174.3125 Q5279.3125,176.4063 5280,177.4844 Q5280.6875,178.5469 5282.0313,178.5469 Q5282.6563,178.5469 5283.25,178.2813 Q5283.8438,178 5284.4688,177.4219 L5284.4688,180.1406 Z " fill="#000000"/><text fill="#000000" font-family="sans-serif" font-size="14" lengthAdjust="spacing" textLength="212.4609" x="5295.5" y="179.3467">logic_arc_int__baselibs__result</text><line style="stroke:#181818;stroke-width:0.5;" x1="5267.5" x2="5509.9609" y1="190.5" y2="190.5"/></g><!--class logic_arc_int__baselibs__filesystem--><g id="elem_logic_arc_int__baselibs__filesystem"><rect fill="#F1F1F1" height="40" id="logic_arc_int__baselibs__filesystem" rx="2.5" ry="2.5" style="stroke:#181818;stroke-width:0.5;" width="276.4805" x="3646.5" y="158.5"/><ellipse cx="3661.5" cy="174.5" fill="#ADD1B2" rx="11" ry="11" style="stroke:#181818;stroke-width:1;"/><path d="M3664.4688,180.1406 Q3663.8906,180.4375 3663.25,180.5781 Q3662.6094,180.7344 3661.9063,180.7344 Q3659.4063,180.7344 3658.0781,179.0938 Q3656.7656,177.4375 3656.7656,174.3125 Q3656.7656,171.1875 3658.0781,169.5313 Q3659.4063,167.875 3661.9063,167.875 Q3662.6094,167.875 3663.25,168.0313 Q3663.9063,168.1875 3664.4688,168.4844 L3664.4688,171.2031 Q3663.8438,170.625 3663.25,170.3594 Q3662.6563,170.0781 3662.0313,170.0781 Q3660.6875,170.0781 3660,171.1563 Q3659.3125,172.2188 3659.3125,174.3125 Q3659.3125,176.4063 3660,177.4844 Q3660.6875,178.5469 3662.0313,178.5469 Q3662.6563,178.5469 3663.25,178.2813 Q3663.8438,178 3664.4688,177.4219 L3664.4688,180.1406 Z " fill="#000000"/><text fill="#000000" font-family="sans-serif" font-size="14" lengthAdjust="spacing" textLength="244.4805" x="3675.5" y="179.3467">logic_arc_int__baselibs__filesystem</text><line style="stroke:#181818;stroke-width:0.5;" x1="3647.5" x2="3921.9805" y1="190.5" y2="190.5"/></g><!--class logic_arc_int__baselibs__promise--><g id="elem_logic_arc_int__baselibs__promise"><rect fill="#F1F1F1" height="40" id="logic_arc_int__baselibs__promise" rx="2.5" ry="2.5" style="stroke:#181818;stroke-width:0.5;" width="261.1885" x="3013" y="158.5"/><ellipse cx="3028" cy="174.5" fill="#ADD1B2" rx="11" ry="11" style="stroke:#181818;stroke-width:1;"/><path d="M3030.9688,180.1406 Q3030.3906,180.4375 3029.75,180.5781 Q3029.1094,180.7344 3028.4063,180.7344 Q3025.9063,180.7344 3024.5781,179.0938 Q3023.2656,177.4375 3023.2656,174.3125 Q3023.2656,171.1875 3024.5781,169.5313 Q3025.9063,167.875 3028.4063,167.875 Q3029.1094,167.875 3029.75,168.0313 Q3030.4063,168.1875 3030.9688,168.4844 L3030.9688,171.2031 Q3030.3438,170.625 3029.75,170.3594 Q3029.1563,170.0781 3028.5313,170.0781 Q3027.1875,170.0781 3026.5,171.1563 Q3025.8125,172.2188 3025.8125,174.3125 Q3025.8125,176.4063 3026.5,177.4844 Q3027.1875,178.5469 3028.5313,178.5469 Q3029.1563,178.5469 3029.75,178.2813 Q3030.3438,178 3030.9688,177.4219 L3030.9688,180.1406 Z " fill="#000000"/><text fill="#000000" font-family="sans-serif" font-size="14" lengthAdjust="spacing" textLength="229.1885" x="3042" y="179.3467">logic_arc_int__baselibs__promise</text><line style="stroke:#181818;stroke-width:0.5;" x1="3014" x2="3273.1885" y1="190.5" y2="190.5"/></g><!--class logic_arc_int__baselibs__json--><g id="elem_logic_arc_int__baselibs__json"><rect fill="#F1F1F1" height="40" id="logic_arc_int__baselibs__json" rx="2.5" ry="2.5" style="stroke:#181818;stroke-width:0.5;" width="233.168" x="4321" y="158.5"/><ellipse cx="4336" cy="174.5" fill="#ADD1B2" rx="11" ry="11" style="stroke:#181818;stroke-width:1;"/><path d="M4338.9688,180.1406 Q4338.3906,180.4375 4337.75,180.5781 Q4337.1094,180.7344 4336.4063,180.7344 Q4333.9063,180.7344 4332.5781,179.0938 Q4331.2656,177.4375 4331.2656,174.3125 Q4331.2656,171.1875 4332.5781,169.5313 Q4333.9063,167.875 4336.4063,167.875 Q4337.1094,167.875 4337.75,168.0313 Q4338.4063,168.1875 4338.9688,168.4844 L4338.9688,171.2031 Q4338.3438,170.625 4337.75,170.3594 Q4337.1563,170.0781 4336.5313,170.0781 Q4335.1875,170.0781 4334.5,171.1563 Q4333.8125,172.2188 4333.8125,174.3125 Q4333.8125,176.4063 4334.5,177.4844 Q4335.1875,178.5469 4336.5313,178.5469 Q4337.1563,178.5469 4337.75,178.2813 Q4338.3438,178 4338.9688,177.4219 L4338.9688,180.1406 Z " fill="#000000"/><text fill="#000000" font-family="sans-serif" font-size="14" lengthAdjust="spacing" textLength="201.168" x="4350" y="179.3467">logic_arc_int__baselibs__json</text><line style="stroke:#181818;stroke-width:0.5;" x1="4322" x2="4553.168" y1="190.5" y2="190.5"/></g><!--class logic_arc_int__baselibs__bit_manipulation--><g id="elem_logic_arc_int__baselibs__bit_manipulation"><rect fill="#F1F1F1" height="40" id="logic_arc_int__baselibs__bit_manipulation" rx="2.5" ry="2.5" style="stroke:#181818;stroke-width:0.5;" width="321.8369" x="364.5" y="158.5"/><ellipse cx="379.5" cy="174.5" fill="#ADD1B2" rx="11" ry="11" style="stroke:#181818;stroke-width:1;"/><path d="M382.4688,180.1406 Q381.8906,180.4375 381.25,180.5781 Q380.6094,180.7344 379.9063,180.7344 Q377.4063,180.7344 376.0781,179.0938 Q374.7656,177.4375 374.7656,174.3125 Q374.7656,171.1875 376.0781,169.5313 Q377.4063,167.875 379.9063,167.875 Q380.6094,167.875 381.25,168.0313 Q381.9063,168.1875 382.4688,168.4844 L382.4688,171.2031 Q381.8438,170.625 381.25,170.3594 Q380.6563,170.0781 380.0313,170.0781 Q378.6875,170.0781 378,171.1563 Q377.3125,172.2188 377.3125,174.3125 Q377.3125,176.4063 378,177.4844 Q378.6875,178.5469 380.0313,178.5469 Q380.6563,178.5469 381.25,178.2813 Q381.8438,178 382.4688,177.4219 L382.4688,180.1406 Z " fill="#000000"/><text fill="#000000" font-family="sans-serif" font-size="14" lengthAdjust="spacing" textLength="289.8369" x="393.5" y="179.3467">logic_arc_int__baselibs__bit_manipulation</text><line style="stroke:#181818;stroke-width:0.5;" x1="365.5" x2="685.3369" y1="190.5" y2="190.5"/></g><!--class comp_arc_sta__baselibs__json--><g id="elem_comp_arc_sta__baselibs__json"><rect fill="#F1F1F1" height="40" id="comp_arc_sta__baselibs__json" rx="2.5" ry="2.5" style="stroke:#181818;stroke-width:0.5;" width="242.1367" x="4325.5" y="275.5"/><ellipse cx="4340.5" cy="291.5" fill="#ADD1B2" rx="11" ry="11" style="stroke:#181818;stroke-width:1;"/><path d="M4343.4688,297.1406 Q4342.8906,297.4375 4342.25,297.5781 Q4341.6094,297.7344 4340.9063,297.7344 Q4338.4063,297.7344 4337.0781,296.0938 Q4335.7656,294.4375 4335.7656,291.3125 Q4335.7656,288.1875 4337.0781,286.5313 Q4338.4063,284.875 4340.9063,284.875 Q4341.6094,284.875 4342.25,285.0313 Q4342.9063,285.1875 4343.4688,285.4844 L4343.4688,288.2031 Q4342.8438,287.625 4342.25,287.3594 Q4341.6563,287.0781 4341.0313,287.0781 Q4339.6875,287.0781 4339,288.1563 Q4338.3125,289.2188 4338.3125,291.3125 Q4338.3125,293.4063 4339,294.4844 Q4339.6875,295.5469 4341.0313,295.5469 Q4341.6563,295.5469 4342.25,295.2813 Q4342.8438,295 4343.4688,294.4219 L4343.4688,297.1406 Z " fill="#000000"/><text fill="#000000" font-family="sans-serif" font-size="14" lengthAdjust="spacing" textLength="210.1367" x="4354.5" y="296.3467">comp_arc_sta__baselibs__json</text><line style="stroke:#181818;stroke-width:0.5;" x1="4326.5" x2="4566.6367" y1="307.5" y2="307.5"/></g><!--class logic_arc_int__baselibs__executor--><g id="elem_logic_arc_int__baselibs__executor"><rect fill="#F1F1F1" height="40" id="logic_arc_int__baselibs__executor" rx="2.5" ry="2.5" style="stroke:#181818;stroke-width:0.5;" width="266.4385" x="1408.5" y="158.5"/><ellipse cx="1423.5" cy="174.5" fill="#ADD1B2" rx="11" ry="11" style="stroke:#181818;stroke-width:1;"/><path d="M1426.4688,180.1406 Q1425.8906,180.4375 1425.25,180.5781 Q1424.6094,180.7344 1423.9063,180.7344 Q1421.4063,180.7344 1420.0781,179.0938 Q1418.7656,177.4375 1418.7656,174.3125 Q1418.7656,171.1875 1420.0781,169.5313 Q1421.4063,167.875 1423.9063,167.875 Q1424.6094,167.875 1425.25,168.0313 Q1425.9063,168.1875 1426.4688,168.4844 L1426.4688,171.2031 Q1425.8438,170.625 1425.25,170.3594 Q1424.6563,170.0781 1424.0313,170.0781 Q1422.6875,170.0781 1422,171.1563 Q1421.3125,172.2188 1421.3125,174.3125 Q1421.3125,176.4063 1422,177.4844 Q1422.6875,178.5469 1424.0313,178.5469 Q1424.6563,178.5469 1425.25,178.2813 Q1425.8438,178 1426.4688,177.4219 L1426.4688,180.1406 Z " fill="#000000"/><text fill="#000000" font-family="sans-serif" font-size="14" lengthAdjust="spacing" textLength="234.4385" x="1437.5" y="179.3467">logic_arc_int__baselibs__executor</text><line style="stroke:#181818;stroke-width:0.5;" x1="1409.5" x2="1673.9385" y1="190.5" y2="190.5"/></g><!--class logic_arc_int__baselibs__utils_scoped_op--><g id="elem_logic_arc_int__baselibs__utils_scoped_op"><rect fill="#F1F1F1" height="40" id="logic_arc_int__baselibs__utils_scoped_op" rx="2.5" ry="2.5" style="stroke:#181818;stroke-width:0.5;" width="315.377" x="4589" y="158.5"/><ellipse cx="4604" cy="174.5" fill="#ADD1B2" rx="11" ry="11" style="stroke:#181818;stroke-width:1;"/><path d="M4606.9688,180.1406 Q4606.3906,180.4375 4605.75,180.5781 Q4605.1094,180.7344 4604.4063,180.7344 Q4601.9063,180.7344 4600.5781,179.0938 Q4599.2656,177.4375 4599.2656,174.3125 Q4599.2656,171.1875 4600.5781,169.5313 Q4601.9063,167.875 4604.4063,167.875 Q4605.1094,167.875 4605.75,168.0313 Q4606.4063,168.1875 4606.9688,168.4844 L4606.9688,171.2031 Q4606.3438,170.625 4605.75,170.3594 Q4605.1563,170.0781 4604.5313,170.0781 Q4603.1875,170.0781 4602.5,171.1563 Q4601.8125,172.2188 4601.8125,174.3125 Q4601.8125,176.4063 4602.5,177.4844 Q4603.1875,178.5469 4604.5313,178.5469 Q4605.1563,178.5469 4605.75,178.2813 Q4606.3438,178 4606.9688,177.4219 L4606.9688,180.1406 Z " fill="#000000"/><text fill="#000000" font-family="sans-serif" font-size="14" lengthAdjust="spacing" textLength="283.377" x="4618" y="179.3467">logic_arc_int__baselibs__utils_scoped_op</text><line style="stroke:#181818;stroke-width:0.5;" x1="4590" x2="4903.377" y1="190.5" y2="190.5"/></g><!--class comp_arc_sta__baselibs__message_passing--><g id="elem_comp_arc_sta__baselibs__message_passing"><rect fill="#F1F1F1" height="40" id="comp_arc_sta__baselibs__message_passing" rx="2.5" ry="2.5" style="stroke:#181818;stroke-width:0.5;" width="337.1357" x="3953" y="275.5"/><ellipse cx="3968" cy="291.5" fill="#ADD1B2" rx="11" ry="11" style="stroke:#181818;stroke-width:1;"/><path d="M3970.9688,297.1406 Q3970.3906,297.4375 3969.75,297.5781 Q3969.1094,297.7344 3968.4063,297.7344 Q3965.9063,297.7344 3964.5781,296.0938 Q3963.2656,294.4375 3963.2656,291.3125 Q3963.2656,288.1875 3964.5781,286.5313 Q3965.9063,284.875 3968.4063,284.875 Q3969.1094,284.875 3969.75,285.0313 Q3970.4063,285.1875 3970.9688,285.4844 L3970.9688,288.2031 Q3970.3438,287.625 3969.75,287.3594 Q3969.1563,287.0781 3968.5313,287.0781 Q3967.1875,287.0781 3966.5,288.1563 Q3965.8125,289.2188 3965.8125,291.3125 Q3965.8125,293.4063 3966.5,294.4844 Q3967.1875,295.5469 3968.5313,295.5469 Q3969.1563,295.5469 3969.75,295.2813 Q3970.3438,295 3970.9688,294.4219 L3970.9688,297.1406 Z " fill="#000000"/><text fill="#000000" font-family="sans-serif" font-size="14" lengthAdjust="spacing" textLength="305.1357" x="3982" y="296.3467">comp_arc_sta__baselibs__message_passing</text><line style="stroke:#181818;stroke-width:0.5;" x1="3954" x2="4289.1357" y1="307.5" y2="307.5"/></g><!--class logic_arc_int__baselibs__message_passing--><g id="elem_logic_arc_int__baselibs__message_passing"><rect fill="#F1F1F1" height="40" id="logic_arc_int__baselibs__message_passing" rx="2.5" ry="2.5" style="stroke:#181818;stroke-width:0.5;" width="328.167" x="3957.5" y="158.5"/><ellipse cx="3972.5" cy="174.5" fill="#ADD1B2" rx="11" ry="11" style="stroke:#181818;stroke-width:1;"/><path d="M3975.4688,180.1406 Q3974.8906,180.4375 3974.25,180.5781 Q3973.6094,180.7344 3972.9063,180.7344 Q3970.4063,180.7344 3969.0781,179.0938 Q3967.7656,177.4375 3967.7656,174.3125 Q3967.7656,171.1875 3969.0781,169.5313 Q3970.4063,167.875 3972.9063,167.875 Q3973.6094,167.875 3974.25,168.0313 Q3974.9063,168.1875 3975.4688,168.4844 L3975.4688,171.2031 Q3974.8438,170.625 3974.25,170.3594 Q3973.6563,170.0781 3973.0313,170.0781 Q3971.6875,170.0781 3971,171.1563 Q3970.3125,172.2188 3970.3125,174.3125 Q3970.3125,176.4063 3971,177.4844 Q3971.6875,178.5469 3973.0313,178.5469 Q3973.6563,178.5469 3974.25,178.2813 Q3974.8438,178 3975.4688,177.4219 L3975.4688,180.1406 Z " fill="#000000"/><text fill="#000000" font-family="sans-serif" font-size="14" lengthAdjust="spacing" textLength="296.167" x="3986.5" y="179.3467">logic_arc_int__baselibs__message_passing</text><line style="stroke:#181818;stroke-width:0.5;" x1="3958.5" x2="4284.667" y1="190.5" y2="190.5"/></g><!--class comp_arc_sta__baselibs__filesystem--><g id="elem_comp_arc_sta__baselibs__filesystem"><rect fill="#F1F1F1" height="40" id="comp_arc_sta__baselibs__filesystem" rx="2.5" ry="2.5" style="stroke:#181818;stroke-width:0.5;" width="285.4492" x="3633" y="275.5"/><ellipse cx="3648" cy="291.5" fill="#ADD1B2" rx="11" ry="11" style="stroke:#181818;stroke-width:1;"/><path d="M3650.9688,297.1406 Q3650.3906,297.4375 3649.75,297.5781 Q3649.1094,297.7344 3648.4063,297.7344 Q3645.9063,297.7344 3644.5781,296.0938 Q3643.2656,294.4375 3643.2656,291.3125 Q3643.2656,288.1875 3644.5781,286.5313 Q3645.9063,284.875 3648.4063,284.875 Q3649.1094,284.875 3649.75,285.0313 Q3650.4063,285.1875 3650.9688,285.4844 L3650.9688,288.2031 Q3650.3438,287.625 3649.75,287.3594 Q3649.1563,287.0781 3648.5313,287.0781 Q3647.1875,287.0781 3646.5,288.1563 Q3645.8125,289.2188 3645.8125,291.3125 Q3645.8125,293.4063 3646.5,294.4844 Q3647.1875,295.5469 3648.5313,295.5469 Q3649.1563,295.5469 3649.75,295.2813 Q3650.3438,295 3650.9688,294.4219 L3650.9688,297.1406 Z " fill="#000000"/><text fill="#000000" font-family="sans-serif" font-size="14" lengthAdjust="spacing" textLength="253.4492" x="3662" y="296.3467">comp_arc_sta__baselibs__filesystem</text><line style="stroke:#181818;stroke-width:0.5;" x1="3634" x2="3917.4492" y1="307.5" y2="307.5"/></g><!--class comp_arc_sta__baselibs__bit_manipulation--><g id="elem_comp_arc_sta__baselibs__bit_manipulation"><rect fill="#F1F1F1" height="40" id="comp_arc_sta__baselibs__bit_manipulation" rx="2.5" ry="2.5" style="stroke:#181818;stroke-width:0.5;" width="330.8057" x="511" y="275.5"/><ellipse cx="526" cy="291.5" fill="#ADD1B2" rx="11" ry="11" style="stroke:#181818;stroke-width:1;"/><path d="M528.9688,297.1406 Q528.3906,297.4375 527.75,297.5781 Q527.1094,297.7344 526.4063,297.7344 Q523.9063,297.7344 522.5781,296.0938 Q521.2656,294.4375 521.2656,291.3125 Q521.2656,288.1875 522.5781,286.5313 Q523.9063,284.875 526.4063,284.875 Q527.1094,284.875 527.75,285.0313 Q528.4063,285.1875 528.9688,285.4844 L528.9688,288.2031 Q528.3438,287.625 527.75,287.3594 Q527.1563,287.0781 526.5313,287.0781 Q525.1875,287.0781 524.5,288.1563 Q523.8125,289.2188 523.8125,291.3125 Q523.8125,293.4063 524.5,294.4844 Q525.1875,295.5469 526.5313,295.5469 Q527.1563,295.5469 527.75,295.2813 Q528.3438,295 528.9688,294.4219 L528.9688,297.1406 Z " fill="#000000"/><text fill="#000000" font-family="sans-serif" font-size="14" lengthAdjust="spacing" textLength="298.8057" x="540" y="296.3467">comp_arc_sta__baselibs__bit_manipulation</text><line style="stroke:#181818;stroke-width:0.5;" x1="512" x2="840.8057" y1="307.5" y2="307.5"/></g><!--class logic_arc_int__baselibs__bit_mask_operator--><g id="elem_logic_arc_int__baselibs__bit_mask_operator"><rect fill="#F1F1F1" height="40" id="logic_arc_int__baselibs__bit_mask_operator" rx="2.5" ry="2.5" style="stroke:#181818;stroke-width:0.5;" width="334.6406" x="722" y="158.5"/><ellipse cx="737" cy="174.5" fill="#ADD1B2" rx="11" ry="11" style="stroke:#181818;stroke-width:1;"/><path d="M739.9688,180.1406 Q739.3906,180.4375 738.75,180.5781 Q738.1094,180.7344 737.4063,180.7344 Q734.9063,180.7344 733.5781,179.0938 Q732.2656,177.4375 732.2656,174.3125 Q732.2656,171.1875 733.5781,169.5313 Q734.9063,167.875 737.4063,167.875 Q738.1094,167.875 738.75,168.0313 Q739.4063,168.1875 739.9688,168.4844 L739.9688,171.2031 Q739.3438,170.625 738.75,170.3594 Q738.1563,170.0781 737.5313,170.0781 Q736.1875,170.0781 735.5,171.1563 Q734.8125,172.2188 734.8125,174.3125 Q734.8125,176.4063 735.5,177.4844 Q736.1875,178.5469 737.5313,178.5469 Q738.1563,178.5469 738.75,178.2813 Q739.3438,178 739.9688,177.4219 L739.9688,180.1406 Z " fill="#000000"/><text fill="#000000" font-family="sans-serif" font-size="14" lengthAdjust="spacing" textLength="302.6406" x="751" y="179.3467">logic_arc_int__baselibs__bit_mask_operator</text><line style="stroke:#181818;stroke-width:0.5;" x1="723" x2="1055.6406" y1="190.5" y2="190.5"/></g><!--class logic_arc_int__baselibs__task_result--><g id="elem_logic_arc_int__baselibs__task_result"><rect fill="#F1F1F1" height="40" id="logic_arc_int__baselibs__task_result" rx="2.5" ry="2.5" style="stroke:#181818;stroke-width:0.5;" width="280.9307" x="1092" y="158.5"/><ellipse cx="1107" cy="174.5" fill="#ADD1B2" rx="11" ry="11" style="stroke:#181818;stroke-width:1;"/><path d="M1109.9688,180.1406 Q1109.3906,180.4375 1108.75,180.5781 Q1108.1094,180.7344 1107.4063,180.7344 Q1104.9063,180.7344 1103.5781,179.0938 Q1102.2656,177.4375 1102.2656,174.3125 Q1102.2656,171.1875 1103.5781,169.5313 Q1104.9063,167.875 1107.4063,167.875 Q1108.1094,167.875 1108.75,168.0313 Q1109.4063,168.1875 1109.9688,168.4844 L1109.9688,171.2031 Q1109.3438,170.625 1108.75,170.3594 Q1108.1563,170.0781 1107.5313,170.0781 Q1106.1875,170.0781 1105.5,171.1563 Q1104.8125,172.2188 1104.8125,174.3125 Q1104.8125,176.4063 1105.5,177.4844 Q1106.1875,178.5469 1107.5313,178.5469 Q1108.1563,178.5469 1108.75,178.2813 Q1109.3438,178 1109.9688,177.4219 L1109.9688,180.1406 Z " fill="#000000"/><text fill="#000000" font-family="sans-serif" font-size="14" lengthAdjust="spacing" textLength="248.9307" x="1121" y="179.3467">logic_arc_int__baselibs__task_result</text><line style="stroke:#181818;stroke-width:0.5;" x1="1093" x2="1371.9307" y1="190.5" y2="190.5"/></g><!--class logic_arc_int__baselibs__future--><g id="elem_logic_arc_int__baselibs__future"><rect fill="#F1F1F1" height="40" id="logic_arc_int__baselibs__future" rx="2.5" ry="2.5" style="stroke:#181818;stroke-width:0.5;" width="247.0791" x="2731" y="158.5"/><ellipse cx="2746" cy="174.5" fill="#ADD1B2" rx="11" ry="11" style="stroke:#181818;stroke-width:1;"/><path d="M2748.9688,180.1406 Q2748.3906,180.4375 2747.75,180.5781 Q2747.1094,180.7344 2746.4063,180.7344 Q2743.9063,180.7344 2742.5781,179.0938 Q2741.2656,177.4375 2741.2656,174.3125 Q2741.2656,171.1875 2742.5781,169.5313 Q2743.9063,167.875 2746.4063,167.875 Q2747.1094,167.875 2747.75,168.0313 Q2748.4063,168.1875 2748.9688,168.4844 L2748.9688,171.2031 Q2748.3438,170.625 2747.75,170.3594 Q2747.1563,170.0781 2746.5313,170.0781 Q2745.1875,170.0781 2744.5,171.1563 Q2743.8125,172.2188 2743.8125,174.3125 Q2743.8125,176.4063 2744.5,177.4844 Q2745.1875,178.5469 2746.5313,178.5469 Q2747.1563,178.5469 2747.75,178.2813 Q2748.3438,178 2748.9688,177.4219 L2748.9688,180.1406 Z " fill="#000000"/><text fill="#000000" font-family="sans-serif" font-size="14" lengthAdjust="spacing" textLength="215.0791" x="2760" y="179.3467">logic_arc_int__baselibs__future</text><line style="stroke:#181818;stroke-width:0.5;" x1="2732" x2="2977.0791" y1="190.5" y2="190.5"/></g><!--class logic_arc_int__baselibs__shared_future--><g id="elem_logic_arc_int__baselibs__shared_future"><rect fill="#F1F1F1" height="40" id="logic_arc_int__baselibs__shared_future" rx="2.5" ry="2.5" style="stroke:#181818;stroke-width:0.5;" width="302.0811" x="3309.5" y="158.5"/><ellipse cx="3324.5" cy="174.5" fill="#ADD1B2" rx="11" ry="11" style="stroke:#181818;stroke-width:1;"/><path d="M3327.4688,180.1406 Q3326.8906,180.4375 3326.25,180.5781 Q3325.6094,180.7344 3324.9063,180.7344 Q3322.4063,180.7344 3321.0781,179.0938 Q3319.7656,177.4375 3319.7656,174.3125 Q3319.7656,171.1875 3321.0781,169.5313 Q3322.4063,167.875 3324.9063,167.875 Q3325.6094,167.875 3326.25,168.0313 Q3326.9063,168.1875 3327.4688,168.4844 L3327.4688,171.2031 Q3326.8438,170.625 3326.25,170.3594 Q3325.6563,170.0781 3325.0313,170.0781 Q3323.6875,170.0781 3323,171.1563 Q3322.3125,172.2188 3322.3125,174.3125 Q3322.3125,176.4063 3323,177.4844 Q3323.6875,178.5469 3325.0313,178.5469 Q3325.6563,178.5469 3326.25,178.2813 Q3326.8438,178 3327.4688,177.4219 L3327.4688,180.1406 Z " fill="#000000"/><text fill="#000000" font-family="sans-serif" font-size="14" lengthAdjust="spacing" textLength="270.0811" x="3338.5" y="179.3467">logic_arc_int__baselibs__shared_future</text><line style="stroke:#181818;stroke-width:0.5;" x1="3310.5" x2="3610.5811" y1="190.5" y2="190.5"/></g><!--class comp_arc_sta__baselibs__memory_shared--><g id="elem_comp_arc_sta__baselibs__memory_shared"><rect fill="#F1F1F1" height="40" id="comp_arc_sta__baselibs__memory_shared" rx="2.5" ry="2.5" style="stroke:#181818;stroke-width:0.5;" width="327.0117" x="7" y="275.5"/><ellipse cx="22" cy="291.5" fill="#ADD1B2" rx="11" ry="11" style="stroke:#181818;stroke-width:1;"/><path d="M24.9688,297.1406 Q24.3906,297.4375 23.75,297.5781 Q23.1094,297.7344 22.4063,297.7344 Q19.9063,297.7344 18.5781,296.0938 Q17.2656,294.4375 17.2656,291.3125 Q17.2656,288.1875 18.5781,286.5313 Q19.9063,284.875 22.4063,284.875 Q23.1094,284.875 23.75,285.0313 Q24.4063,285.1875 24.9688,285.4844 L24.9688,288.2031 Q24.3438,287.625 23.75,287.3594 Q23.1563,287.0781 22.5313,287.0781 Q21.1875,287.0781 20.5,288.1563 Q19.8125,289.2188 19.8125,291.3125 Q19.8125,293.4063 20.5,294.4844 Q21.1875,295.5469 22.5313,295.5469 Q23.1563,295.5469 23.75,295.2813 Q24.3438,295 24.9688,294.4219 L24.9688,297.1406 Z " fill="#000000"/><text fill="#000000" font-family="sans-serif" font-size="14" lengthAdjust="spacing" textLength="295.0117" x="36" y="296.3467">comp_arc_sta__baselibs__memory_shared</text><line style="stroke:#181818;stroke-width:0.5;" x1="8" x2="333.0117" y1="307.5" y2="307.5"/></g><!--reverse link logic_arc_int__baselibs__synchronized_queue to comp_arc_sta__baselibs__concurrency--><g id="link_logic_arc_int__baselibs__synchronized_queue_comp_arc_sta__baselibs__concurrency"><path codeLine="14" d="M2474.1417,201.1114 C2427.5417,222.3814 2358.14,254.05 2311.5,275.34 " fill="transparent" id="logic_arc_int__baselibs__synchronized_queue-backto-comp_arc_sta__baselibs__concurrency" style="stroke:#181818;stroke-width:1;"/><polygon fill="#181818" points="2479.6,198.62,2469.7516,198.7182,2475.0514,200.6961,2473.0735,205.9959,2479.6,198.62" style="stroke:#181818;stroke-width:1;"/><text fill="#000000" font-family="sans-serif" font-size="13" lengthAdjust="spacing" textLength="76.9082" x="2411.5" y="241.5669">implements</text></g><!--link Feature_User to logic_arc_int__baselibs__intrusive_list--><g id="link_Feature_User_logic_arc_int__baselibs__intrusive_list"><path codeLine="16" d="M3188.82,45.6 C3390.12,50.61 4223.41,72.73 4906.5,111.5 C5183.29,127.21 5252.53,132.1 5528.5,158.5 C5534.21,159.05 5534.051,159.0109 5539.931,159.6109 " fill="transparent" id="Feature_User-to-logic_arc_int__baselibs__intrusive_list" style="stroke:#181818;stroke-width:1;"/><polygon fill="#181818" points="5545.9,160.22,5537.3525,155.327,5540.9258,159.7124,5536.5404,163.2857,5545.9,160.22" style="stroke:#181818;stroke-width:1;"/><text fill="#000000" font-family="sans-serif" font-size="13" lengthAdjust="spacing" textLength="23.0103" x="5176.5" y="124.5669">use</text></g><!--reverse link logic_arc_int__baselibs__condition_variable to comp_arc_sta__baselibs__concurrency--><g id="link_logic_arc_int__baselibs__condition_variable_comp_arc_sta__baselibs__concurrency"><path codeLine="17" d="M2170.6492,202.8301 C2193.5392,224.0601 2225.76,253.94 2248.68,275.19 " fill="transparent" id="logic_arc_int__baselibs__condition_variable-backto-comp_arc_sta__baselibs__concurrency" style="stroke:#181818;stroke-width:1;"/><polygon fill="#181818" points="2166.25,198.75,2170.1287,207.803,2169.916,202.1501,2175.5688,201.9374,2166.25,198.75" style="stroke:#181818;stroke-width:1;"/><text fill="#000000" font-family="sans-serif" font-size="13" lengthAdjust="spacing" textLength="76.9082" x="2216.5" y="241.5669">implements</text></g><!--reverse link logic_arc_int__baselibs__utils_base64 to comp_arc_sta__baselibs__utils--><g id="link_logic_arc_int__baselibs__utils_base64_comp_arc_sta__baselibs__utils"><path codeLine="18" d="M5047.3479,201.7743 C5010.8679,223.0643 4957.64,254.14 4921.25,275.38 " fill="transparent" id="logic_arc_int__baselibs__utils_base64-backto-comp_arc_sta__baselibs__utils" style="stroke:#181818;stroke-width:1;"/><polygon fill="#181818" points="5052.53,198.75,5042.7407,199.8317,5048.2116,201.2702,5046.7731,206.7411,5052.53,198.75" style="stroke:#181818;stroke-width:1;"/><text fill="#000000" font-family="sans-serif" font-size="13" lengthAdjust="spacing" textLength="76.9082" x="4999.5" y="241.5669">implements</text></g><!--reverse link logic_arc_int__baselibs__intrusive_list to comp_arc_sta__baselibs__containers--><g id="link_logic_arc_int__baselibs__intrusive_list_comp_arc_sta__baselibs__containers"><path codeLine="19" d="M5725.571,202.1393 C5756.671,223.4293 5801.54,254.14 5832.57,275.38 " fill="transparent" id="logic_arc_int__baselibs__intrusive_list-backto-comp_arc_sta__baselibs__containers" style="stroke:#181818;stroke-width:1;"/><polygon fill="#181818" points="5720.62,198.75,5725.787,207.1346,5724.7459,201.5744,5730.3061,200.5333,5720.62,198.75" style="stroke:#181818;stroke-width:1;"/><text fill="#000000" font-family="sans-serif" font-size="13" lengthAdjust="spacing" textLength="76.9082" x="5787.5" y="241.5669">implements</text></g><!--link Feature_User to logic_arc_int__baselibs__task--><g id="link_Feature_User_logic_arc_int__baselibs__task"><path codeLine="20" d="M3098.33,48.14 C2941.17,60.96 2403.71,106.08 1961.5,158.5 C1955.62,159.2 1955.5623,159.1849 1949.4923,159.9549 " fill="transparent" id="Feature_User-to-logic_arc_int__baselibs__task" style="stroke:#181818;stroke-width:1;"/><polygon fill="#181818" points="1943.54,160.71,1952.9718,163.5456,1948.5002,160.0808,1951.9651,155.6092,1943.54,160.71" style="stroke:#181818;stroke-width:1;"/><text fill="#000000" font-family="sans-serif" font-size="13" lengthAdjust="spacing" textLength="23.0103" x="2384.5" y="124.5669">use</text></g><!--link Feature_User to logic_arc_int__baselibs__condition_variable--><g id="link_Feature_User_logic_arc_int__baselibs__condition_variable"><path codeLine="21" d="M3098.35,50.52 C2956.78,69.38 2523.3374,127.1474 2294.0174,157.7074 " fill="transparent" id="Feature_User-to-logic_arc_int__baselibs__condition_variable" style="stroke:#181818;stroke-width:1;"/><polygon fill="#181818" points="2288.07,158.5,2297.5195,161.2761,2293.0262,157.8395,2296.4627,153.3462,2288.07,158.5" style="stroke:#181818;stroke-width:1;"/><text fill="#000000" font-family="sans-serif" font-size="13" lengthAdjust="spacing" textLength="23.0103" x="2615.5" y="124.5669">use</text></g><!--reverse link logic_arc_int__baselibs__dynamic_array to comp_arc_sta__baselibs__containers--><g id="link_logic_arc_int__baselibs__dynamic_array_comp_arc_sta__baselibs__containers"><path codeLine="22" d="M5995.429,202.1393 C5964.329,223.4293 5919.46,254.14 5888.43,275.38 " fill="transparent" id="logic_arc_int__baselibs__dynamic_array-backto-comp_arc_sta__baselibs__containers" style="stroke:#181818;stroke-width:1;"/><polygon fill="#181818" points="6000.38,198.75,5990.6939,200.5333,5996.2541,201.5744,5995.213,207.1346,6000.38,198.75" style="stroke:#181818;stroke-width:1;"/><text fill="#000000" font-family="sans-serif" font-size="13" lengthAdjust="spacing" textLength="76.9082" x="5955.5" y="241.5669">implements</text></g><!--link Feature_User to logic_arc_int__baselibs__memory_shared--><g id="link_Feature_User_logic_arc_int__baselibs__memory_shared"><path codeLine="23" d="M3098.19,45.41 C2876.23,49.99 1881.5,71.84 1067.5,111.5 C746.76,127.13 666.43,130.82 346.5,158.5 C340.99,158.98 341.3539,158.9206 335.6939,159.4506 " fill="transparent" id="Feature_User-to-logic_arc_int__baselibs__memory_shared" style="stroke:#181818;stroke-width:1;"/><polygon fill="#181818" points="329.72,160.01,339.0537,163.1535,334.6982,159.5438,338.3079,155.1883,329.72,160.01" style="stroke:#181818;stroke-width:1;"/><text fill="#000000" font-family="sans-serif" font-size="13" lengthAdjust="spacing" textLength="23.0103" x="1068.5" y="124.5669">use</text></g><!--link Feature_User to logic_arc_int__baselibs__dynamic_array--><g id="link_Feature_User_logic_arc_int__baselibs__dynamic_array"><path codeLine="24" d="M3188.58,45.29 C3409.39,49.33 4398.96,69.03 5208.5,111.5 C5496.86,126.63 5568.94,132.2 5856.5,158.5 C5862.33,159.03 5862.3078,159.0227 5868.3078,159.6027 " fill="transparent" id="Feature_User-to-logic_arc_int__baselibs__dynamic_array" style="stroke:#181818;stroke-width:1;"/><polygon fill="#181818" points="5874.28,160.18,5865.7066,155.3326,5869.3032,159.6989,5864.9369,163.2955,5874.28,160.18" style="stroke:#181818;stroke-width:1;"/><text fill="#000000" font-family="sans-serif" font-size="13" lengthAdjust="spacing" textLength="23.0103" x="5500.5" y="124.5669">use</text></g><!--reverse link logic_arc_int__baselibs__result to comp_arc_sta__baselibs__result--><g id="link_logic_arc_int__baselibs__result_comp_arc_sta__baselibs__result"><path codeLine="25" d="M5388.5,204.75 C5388.5,225.98 5388.5,253.94 5388.5,275.19 " fill="transparent" id="logic_arc_int__baselibs__result-backto-comp_arc_sta__baselibs__result" style="stroke:#181818;stroke-width:1;"/><polygon fill="#181818" points="5388.5,198.75,5384.5,207.75,5388.5,203.75,5392.5,207.75,5388.5,198.75" style="stroke:#181818;stroke-width:1;"/><text fill="#000000" font-family="sans-serif" font-size="13" lengthAdjust="spacing" textLength="76.9082" x="5389.5" y="241.5669">implements</text></g><!--link Feature_User to logic_arc_int__baselibs__filesystem--><g id="link_Feature_User_logic_arc_int__baselibs__filesystem"><path codeLine="26" d="M3188.57,53.85 C3293.02,75.52 3547.4151,128.3111 3686.9051,157.2511 " fill="transparent" id="Feature_User-to-logic_arc_int__baselibs__filesystem" style="stroke:#181818;stroke-width:1;"/><polygon fill="#181818" points="3692.78,158.47,3684.7802,152.7251,3687.8843,157.4543,3683.1551,160.5583,3692.78,158.47" style="stroke:#181818;stroke-width:1;"/><text fill="#000000" font-family="sans-serif" font-size="13" lengthAdjust="spacing" textLength="23.0103" x="3540.5" y="124.5669">use</text></g><!--reverse link logic_arc_int__baselibs__promise to comp_arc_sta__baselibs__concurrency--><g id="link_logic_arc_int__baselibs__promise_comp_arc_sta__baselibs__concurrency"><path codeLine="27" d="M3010.4943,199.4063 C2917.9643,213.0663 2795.54,230.71 2682.5,245.5 C2595.51,256.89 2498.07,268.5 2419.68,277.56 " fill="transparent" id="logic_arc_int__baselibs__promise-backto-comp_arc_sta__baselibs__concurrency" style="stroke:#181818;stroke-width:1;"/><polygon fill="#181818" points="3016.43,198.53,3006.9423,195.8873,3011.4836,199.2602,3008.1107,203.8015,3016.43,198.53" style="stroke:#181818;stroke-width:1;"/><text fill="#000000" font-family="sans-serif" font-size="13" lengthAdjust="spacing" textLength="76.9082" x="2796.5" y="241.5669">implements</text></g><!--link Feature_User to logic_arc_int__baselibs__synchronized_queue--><g id="link_Feature_User_logic_arc_int__baselibs__synchronized_queue"><path codeLine="28" d="M3098.27,54.17 C2995.95,76.05 2751.0474,128.4154 2616.3574,157.2154 " fill="transparent" id="Feature_User-to-logic_arc_int__baselibs__synchronized_queue" style="stroke:#181818;stroke-width:1;"/><polygon fill="#181818" points="2610.49,158.47,2620.1274,160.4997,2615.3795,157.4245,2618.4547,152.6765,2610.49,158.47" style="stroke:#181818;stroke-width:1;"/><text fill="#000000" font-family="sans-serif" font-size="13" lengthAdjust="spacing" textLength="23.0103" x="2814.5" y="124.5669">use</text></g><!--link Feature_User to logic_arc_int__baselibs__json--><g id="link_Feature_User_logic_arc_int__baselibs__json"><path codeLine="29" d="M3188.63,48.23 C3343.89,61.23 3870.27,106.52 4303.5,158.5 C4309.22,159.19 4309.109,159.1447 4315.019,159.9047 " fill="transparent" id="Feature_User-to-logic_arc_int__baselibs__json" style="stroke:#181818;stroke-width:1;"/><polygon fill="#181818" points="4320.97,160.67,4312.5537,155.5548,4316.0108,160.0323,4311.5333,163.4894,4320.97,160.67" style="stroke:#181818;stroke-width:1;"/><text fill="#000000" font-family="sans-serif" font-size="13" lengthAdjust="spacing" textLength="23.0103" x="4018.5" y="124.5669">use</text></g><!--link Feature_User to logic_arc_int__baselibs__bit_manipulation--><g id="link_Feature_User_logic_arc_int__baselibs__bit_manipulation"><path codeLine="30" d="M3098.42,45.76 C2899.08,51.42 2076.85,75.83 1402.5,111.5 C1092.01,127.92 1014.26,131.64 704.5,158.5 C698.74,159 698.8552,158.985 692.9352,159.525 " fill="transparent" id="Feature_User-to-logic_arc_int__baselibs__bit_manipulation" style="stroke:#181818;stroke-width:1;"/><polygon fill="#181818" points="686.96,160.07,696.2861,163.2359,691.9393,159.6158,695.5594,155.269,686.96,160.07" style="stroke:#181818;stroke-width:1;"/><text fill="#000000" font-family="sans-serif" font-size="13" lengthAdjust="spacing" textLength="23.0103" x="1403.5" y="124.5669">use</text></g><!--link Feature_User to logic_arc_int__baselibs__promise--><g id="link_Feature_User_logic_arc_int__baselibs__promise"><path codeLine="31" d="M3143.5,81.55 C3143.5,106.45 3143.5,132.26 3143.5,152.26 " fill="transparent" id="Feature_User-to-logic_arc_int__baselibs__promise" style="stroke:#181818;stroke-width:1;"/><polygon fill="#181818" points="3143.5,158.26,3147.5,149.26,3143.5,153.26,3139.5,149.26,3143.5,158.26" style="stroke:#181818;stroke-width:1;"/><text fill="#000000" font-family="sans-serif" font-size="13" lengthAdjust="spacing" textLength="23.0103" x="3144.5" y="124.5669">use</text></g><!--reverse link logic_arc_int__baselibs__json to comp_arc_sta__baselibs__json--><g id="link_logic_arc_int__baselibs__json_comp_arc_sta__baselibs__json"><path codeLine="32" d="M4439.4777,204.7317 C4441.1377,225.9617 4443.33,253.94 4444.99,275.19 " fill="transparent" id="logic_arc_int__baselibs__json-backto-comp_arc_sta__baselibs__json" style="stroke:#181818;stroke-width:1;"/><polygon fill="#181818" points="4439.01,198.75,4435.7238,208.0344,4439.3998,203.7348,4443.6994,207.4108,4439.01,198.75" style="stroke:#181818;stroke-width:1;"/><text fill="#000000" font-family="sans-serif" font-size="13" lengthAdjust="spacing" textLength="76.9082" x="4443.5" y="241.5669">implements</text></g><!--reverse link logic_arc_int__baselibs__task to comp_arc_sta__baselibs__concurrency--><g id="link_logic_arc_int__baselibs__task_comp_arc_sta__baselibs__concurrency"><path codeLine="33" d="M1905.9575,200.1276 C1988.0075,221.4276 2114.07,254.15 2196.04,275.43 " fill="transparent" id="logic_arc_int__baselibs__task-backto-comp_arc_sta__baselibs__concurrency" style="stroke:#181818;stroke-width:1;"/><polygon fill="#181818" points="1900.15,198.62,1907.8562,204.7531,1904.9896,199.8763,1909.8663,197.0098,1900.15,198.62" style="stroke:#181818;stroke-width:1;"/><text fill="#000000" font-family="sans-serif" font-size="13" lengthAdjust="spacing" textLength="76.9082" x="2076.5" y="241.5669">implements</text></g><!--link Feature_User to logic_arc_int__baselibs__executor--><g id="link_Feature_User_logic_arc_int__baselibs__executor"><path codeLine="34" d="M3098.25,47.09 C2919.4,57.55 2244.59,98.92 1691.5,158.5 C1686.02,159.09 1686.3907,159.0243 1680.7407,159.6743 " fill="transparent" id="Feature_User-to-logic_arc_int__baselibs__executor" style="stroke:#181818;stroke-width:1;"/><polygon fill="#181818" points="1674.78,160.36,1684.1782,163.3052,1679.7472,159.7885,1683.2639,155.3576,1674.78,160.36" style="stroke:#181818;stroke-width:1;"/><text fill="#000000" font-family="sans-serif" font-size="13" lengthAdjust="spacing" textLength="23.0103" x="2171.5" y="124.5669">use</text></g><!--link Feature_User to logic_arc_int__baselibs__utils_scoped_op--><g id="link_Feature_User_logic_arc_int__baselibs__utils_scoped_op"><path codeLine="35" d="M3188.82,47.59 C3321.41,56.67 3720.03,84.39 4050.5,111.5 C4282.22,130.51 4340.14,135.51 4571.5,158.5 C4577.13,159.06 4576.8809,159.0318 4582.6709,159.6218 " fill="transparent" id="Feature_User-to-logic_arc_int__baselibs__utils_scoped_op" style="stroke:#181818;stroke-width:1;"/><polygon fill="#181818" points="4588.64,160.23,4580.0919,155.3382,4583.6658,159.7231,4579.2809,163.297,4588.64,160.23" style="stroke:#181818;stroke-width:1;"/><text fill="#000000" font-family="sans-serif" font-size="13" lengthAdjust="spacing" textLength="23.0103" x="4249.5" y="124.5669">use</text></g><!--reverse link logic_arc_int__baselibs__message_passing to comp_arc_sta__baselibs__message_passing--><g id="link_logic_arc_int__baselibs__message_passing_comp_arc_sta__baselibs__message_passing"><path codeLine="36" d="M4121.5,204.75 C4121.5,225.98 4121.5,253.94 4121.5,275.19 " fill="transparent" id="logic_arc_int__baselibs__message_passing-backto-comp_arc_sta__baselibs__message_passing" style="stroke:#181818;stroke-width:1;"/><polygon fill="#181818" points="4121.5,198.75,4117.5,207.75,4121.5,203.75,4125.5,207.75,4121.5,198.75" style="stroke:#181818;stroke-width:1;"/><text fill="#000000" font-family="sans-serif" font-size="13" lengthAdjust="spacing" textLength="76.9082" x="4122.5" y="241.5669">implements</text></g><!--link Feature_User to logic_arc_int__baselibs__result--><g id="link_Feature_User_logic_arc_int__baselibs__result"><path codeLine="37" d="M3188.65,46.27 C3364.9,53.27 4023.61,80.12 4565.5,111.5 C4869.71,129.12 4946.37,127.4 5249.5,158.5 C5254.95,159.06 5254.5585,158.9911 5260.1785,159.6311 " fill="transparent" id="Feature_User-to-logic_arc_int__baselibs__result" style="stroke:#181818;stroke-width:1;"/><polygon fill="#181818" points="5266.14,160.31,5257.6504,155.3174,5261.1721,159.7443,5256.7452,163.266,5266.14,160.31" style="stroke:#181818;stroke-width:1;"/><text fill="#000000" font-family="sans-serif" font-size="13" lengthAdjust="spacing" textLength="23.0103" x="4874.5" y="124.5669">use</text></g><!--reverse link logic_arc_int__baselibs__filesystem to comp_arc_sta__baselibs__filesystem--><g id="link_logic_arc_int__baselibs__filesystem_comp_arc_sta__baselibs__filesystem"><path codeLine="38" d="M3782.5223,204.7317 C3780.8623,225.9617 3778.67,253.94 3777.01,275.19 " fill="transparent" id="logic_arc_int__baselibs__filesystem-backto-comp_arc_sta__baselibs__filesystem" style="stroke:#181818;stroke-width:1;"/><polygon fill="#181818" points="3782.99,198.75,3778.3006,207.4108,3782.6002,203.7348,3786.2762,208.0344,3782.99,198.75" style="stroke:#181818;stroke-width:1;"/><text fill="#000000" font-family="sans-serif" font-size="13" lengthAdjust="spacing" textLength="76.9082" x="3781.5" y="241.5669">implements</text></g><!--reverse link logic_arc_int__baselibs__bit_mask_operator to comp_arc_sta__baselibs__bit_manipulation--><g id="link_logic_arc_int__baselibs__bit_mask_operator_comp_arc_sta__baselibs__bit_manipulation"><path codeLine="39" d="M848.5701,201.6001 C809.1301,222.8901 751.25,254.14 711.91,275.38 " fill="transparent" id="logic_arc_int__baselibs__bit_mask_operator-backto-comp_arc_sta__baselibs__bit_manipulation" style="stroke:#181818;stroke-width:1;"/><polygon fill="#181818" points="853.85,198.75,844.0301,199.5053,849.4501,201.1251,847.8303,206.5451,853.85,198.75" style="stroke:#181818;stroke-width:1;"/><text fill="#000000" font-family="sans-serif" font-size="13" lengthAdjust="spacing" textLength="76.9082" x="797.5" y="241.5669">implements</text></g><!--reverse link logic_arc_int__baselibs__utils_scoped_op to comp_arc_sta__baselibs__utils--><g id="link_logic_arc_int__baselibs__utils_scoped_op_comp_arc_sta__baselibs__utils"><path codeLine="40" d="M4774.9324,202.5265 C4801.1424,223.7565 4838.41,253.94 4864.65,275.19 " fill="transparent" id="logic_arc_int__baselibs__utils_scoped_op-backto-comp_arc_sta__baselibs__utils" style="stroke:#181818;stroke-width:1;"/><polygon fill="#181818" points="4770.27,198.75,4774.7459,207.523,4774.1553,201.8971,4779.7813,201.3065,4770.27,198.75" style="stroke:#181818;stroke-width:1;"/><text fill="#000000" font-family="sans-serif" font-size="13" lengthAdjust="spacing" textLength="76.9082" x="4826.5" y="241.5669">implements</text></g><!--reverse link logic_arc_int__baselibs__bit_manipulation to comp_arc_sta__baselibs__bit_manipulation--><g id="link_logic_arc_int__baselibs__bit_manipulation_comp_arc_sta__baselibs__bit_manipulation"><path codeLine="41" d="M555.5436,202.3849 C583.5036,223.6749 623.51,254.14 651.4,275.38 " fill="transparent" id="logic_arc_int__baselibs__bit_manipulation-backto-comp_arc_sta__baselibs__bit_manipulation" style="stroke:#181818;stroke-width:1;"/><polygon fill="#181818" points="550.77,198.75,555.5072,207.3847,554.748,201.7791,560.3537,201.0199,550.77,198.75" style="stroke:#181818;stroke-width:1;"/><text fill="#000000" font-family="sans-serif" font-size="13" lengthAdjust="spacing" textLength="76.9082" x="611.5" y="241.5669">implements</text></g><!--link Feature_User to logic_arc_int__baselibs__task_result--><g id="link_Feature_User_logic_arc_int__baselibs__task_result"><path codeLine="42" d="M3098.37,46.27 C2897.94,54.39 2068.36,90.59 1390.5,158.5 C1384.86,159.06 1385.086,159.0223 1379.286,159.6423 " fill="transparent" id="Feature_User-to-logic_arc_int__baselibs__task_result" style="stroke:#181818;stroke-width:1;"/><polygon fill="#181818" points="1373.32,160.28,1382.6942,163.3007,1378.2917,159.7485,1381.8439,155.346,1373.32,160.28" style="stroke:#181818;stroke-width:1;"/><text fill="#000000" font-family="sans-serif" font-size="13" lengthAdjust="spacing" textLength="23.0103" x="1921.5" y="124.5669">use</text></g><!--link Feature_User to logic_arc_int__baselibs__utils_base64--><g id="link_Feature_User_logic_arc_int__baselibs__utils_base64"><path codeLine="43" d="M3188.58,46.38 C3390.6,55.03 4232.87,93.35 4921.5,158.5 C4927.35,159.05 4927.3405,159.0361 4933.3705,159.6461 " fill="transparent" id="Feature_User-to-logic_arc_int__baselibs__utils_base64" style="stroke:#181818;stroke-width:1;"/><polygon fill="#181818" points="4939.34,160.25,4930.7883,155.3645,4934.3654,159.7468,4929.9831,163.3239,4939.34,160.25" style="stroke:#181818;stroke-width:1;"/><text fill="#000000" font-family="sans-serif" font-size="13" lengthAdjust="spacing" textLength="23.0103" x="4533.5" y="124.5669">use</text></g><!--reverse link logic_arc_int__baselibs__future to comp_arc_sta__baselibs__concurrency--><g id="link_logic_arc_int__baselibs__future_comp_arc_sta__baselibs__concurrency"><path codeLine="44" d="M2751.6827,199.7075 C2643.3927,220.9975 2474.98,254.11 2366.62,275.41 " fill="transparent" id="logic_arc_int__baselibs__future-backto-comp_arc_sta__baselibs__concurrency" style="stroke:#181818;stroke-width:1;"/><polygon fill="#181818" points="2757.57,198.55,2747.9674,196.3613,2752.6639,199.5145,2749.5107,204.211,2757.57,198.55" style="stroke:#181818;stroke-width:1;"/><text fill="#000000" font-family="sans-serif" font-size="13" lengthAdjust="spacing" textLength="76.9082" x="2597.5" y="241.5669">implements</text></g><!--link Feature_User to logic_arc_int__baselibs__shared_future--><g id="link_Feature_User_logic_arc_int__baselibs__shared_future"><path codeLine="45" d="M3188.58,63.41 C3248.75,88.66 3349.1772,130.7987 3409.5272,156.1187 " fill="transparent" id="Feature_User-to-logic_arc_int__baselibs__shared_future" style="stroke:#181818;stroke-width:1;"/><polygon fill="#181818" points="3415.06,158.44,3408.3084,151.2695,3410.4494,156.5056,3405.2133,158.6466,3415.06,158.44" style="stroke:#181818;stroke-width:1;"/><text fill="#000000" font-family="sans-serif" font-size="13" lengthAdjust="spacing" textLength="23.0103" x="3340.5" y="124.5669">use</text></g><!--link Feature_User to logic_arc_int__baselibs__future--><g id="link_Feature_User_logic_arc_int__baselibs__future"><path codeLine="46" d="M3098.34,65.28 C3042.94,90.78 2955.2208,131.1523 2901.5108,155.8623 " fill="transparent" id="Feature_User-to-logic_arc_int__baselibs__future" style="stroke:#181818;stroke-width:1;"/><polygon fill="#181818" points="2896.06,158.37,2905.908,158.2423,2900.6023,156.2802,2902.5644,150.9745,2896.06,158.37" style="stroke:#181818;stroke-width:1;"/><text fill="#000000" font-family="sans-serif" font-size="13" lengthAdjust="spacing" textLength="23.0103" x="2990.5" y="124.5669">use</text></g><!--reverse link logic_arc_int__baselibs__executor to comp_arc_sta__baselibs__concurrency--><g id="link_logic_arc_int__baselibs__executor_comp_arc_sta__baselibs__concurrency"><path codeLine="47" d="M1657.284,199.5324 C1736.264,213.0524 1839.41,230.4 1935.5,245.5 C2001.21,255.82 2074.31,266.62 2135.33,275.45 " fill="transparent" id="logic_arc_int__baselibs__executor-backto-comp_arc_sta__baselibs__concurrency" style="stroke:#181818;stroke-width:1;"/><polygon fill="#181818" points="1651.37,198.52,1659.5661,203.9812,1656.2983,199.3636,1660.9159,196.0959,1651.37,198.52" style="stroke:#181818;stroke-width:1;"/><text fill="#000000" font-family="sans-serif" font-size="13" lengthAdjust="spacing" textLength="76.9082" x="1936.5" y="241.5669">implements</text></g><!--link Feature_User to logic_arc_int__baselibs__bit_mask_operator--><g id="link_Feature_User_logic_arc_int__baselibs__bit_mask_operator"><path codeLine="48" d="M3098.34,46.09 C2919.85,52.5 2246.26,77.67 1692.5,111.5 C1417.55,128.3 1348.87,133.98 1074.5,158.5 C1068.87,159 1069.1249,158.9821 1063.3449,159.5121 " fill="transparent" id="Feature_User-to-logic_arc_int__baselibs__bit_mask_operator" style="stroke:#181818;stroke-width:1;"/><polygon fill="#181818" points="1057.37,160.06,1066.6977,163.2215,1062.3491,159.6034,1065.9672,155.2549,1057.37,160.06" style="stroke:#181818;stroke-width:1;"/><text fill="#000000" font-family="sans-serif" font-size="13" lengthAdjust="spacing" textLength="23.0103" x="1693.5" y="124.5669">use</text></g><!--reverse link logic_arc_int__baselibs__memory_shared to comp_arc_sta__baselibs__memory_shared--><g id="link_logic_arc_int__baselibs__memory_shared_comp_arc_sta__baselibs__memory_shared"><path codeLine="49" d="M170.5,204.75 C170.5,225.98 170.5,253.94 170.5,275.19 " fill="transparent" id="logic_arc_int__baselibs__memory_shared-backto-comp_arc_sta__baselibs__memory_shared" style="stroke:#181818;stroke-width:1;"/><polygon fill="#181818" points="170.5,198.75,166.5,207.75,170.5,203.75,174.5,207.75,170.5,198.75" style="stroke:#181818;stroke-width:1;"/><text fill="#000000" font-family="sans-serif" font-size="13" lengthAdjust="spacing" textLength="76.9082" x="171.5" y="241.5669">implements</text></g><!--reverse link logic_arc_int__baselibs__task_result to comp_arc_sta__baselibs__concurrency--><g id="link_logic_arc_int__baselibs__task_result_comp_arc_sta__baselibs__concurrency"><path codeLine="50" d="M1378.7278,199.32 C1483.2978,213.21 1623.72,231.23 1752.5,245.5 C1875.94,259.18 2016.23,272.32 2119.49,281.55 " fill="transparent" id="logic_arc_int__baselibs__task_result-backto-comp_arc_sta__baselibs__concurrency" style="stroke:#181818;stroke-width:1;"/><polygon fill="#181818" points="1372.78,198.53,1381.1749,203.6802,1377.7365,199.1884,1382.2283,195.7499,1372.78,198.53" style="stroke:#181818;stroke-width:1;"/><text fill="#000000" font-family="sans-serif" font-size="13" lengthAdjust="spacing" textLength="76.9082" x="1753.5" y="241.5669">implements</text></g><!--link Feature_User to logic_arc_int__baselibs__message_passing--><g id="link_Feature_User_logic_arc_int__baselibs__message_passing"><path codeLine="51" d="M3188.71,50.65 C3328.46,69.65 3751.6047,127.2015 3975.8147,157.6915 " fill="transparent" id="Feature_User-to-logic_arc_int__baselibs__message_passing" style="stroke:#181818;stroke-width:1;"/><polygon fill="#181818" points="3981.76,158.5,3973.3811,153.3237,3976.8056,157.8263,3972.3031,161.2508,3981.76,158.5" style="stroke:#181818;stroke-width:1;"/><text fill="#000000" font-family="sans-serif" font-size="13" lengthAdjust="spacing" textLength="23.0103" x="3749.5" y="124.5669">use</text></g><!--reverse link logic_arc_int__baselibs__shared_future to comp_arc_sta__baselibs__concurrency--><g id="link_logic_arc_int__baselibs__shared_future_comp_arc_sta__baselibs__concurrency"><path codeLine="52" d="M3303.523,198.8374 C3186.773,212.8974 3027.01,231.39 2881.5,245.5 C2724.09,260.77 2543.56,274.8 2419.59,283.9 " fill="transparent" id="logic_arc_int__baselibs__shared_future-backto-comp_arc_sta__baselibs__concurrency" style="stroke:#181818;stroke-width:1;"/><polygon fill="#181818" points="3309.48,198.12,3300.0663,195.2248,3304.5159,198.7178,3301.0228,203.1674,3309.48,198.12" style="stroke:#181818;stroke-width:1;"/><text fill="#000000" font-family="sans-serif" font-size="13" lengthAdjust="spacing" textLength="76.9082" x="3041.5" y="241.5669">implements</text></g><!--SRC=[jLLDRzim3BthLmYzfnk6OOUYw6N0JZkkPq6MsOIBFboHwkeD- -zJxBHrl2oA7UyecwBUU-GZjRNXXtBuZ7ujE3IIWwm2St2onWY6CNYnmHeaCKG8t3RGdy4rt4hD7B5A32HkYLiBT-9Q4zfA_X9VqSFdO4EK4Uhkz6s3Pkk1I7wuVYz-Yzjt-pj26yvnLrz0SueWxmdYbTGazn_KxeCK9hX6wMWKiLQgqWGMArBA16zIZE1DArTfTITjMAFf8j7pC99QRpOnUFm9jNfCaE16eciiEF1CKeY31rVrgLpv61FX4oYBn3So4Im1CKVMkDDTFUc8kh8ZYFzw8J5QAkJkOhhpfu_dPSreMEVInLBgiHh3v1D4PKtRlPGJRXtJh5IEysZLhTUk-nLrEvkL0nTYgsYZinMcqnk1ECai0YNB1LPzq6mw3sY1sZmHt69TtyJWa60sf6F6dYhpTmf- -gqAMJdjiKbMxrfmUePNxYUrtA4hYDWJEDFMPnQcD-JCgi0pc9Gd-tHD-ab59ZIvdg4fQEFoJj5hK8qcofkiG6aKFPlTYujEGdlpIW7Lq5Jdb73STuNqVJXjivWGTLUJPRVAe5R_3VxGPHSicCFAJUxAb_svqEXxIBldvq- -RgcyPfbAwU3UvMJU73-Jpf4-BLX_i5gBnZzOmyiFoaiNwr-JQQ6gZ7faYEuF]--></g></svg>