<svg xmlns="http://www.w3.org/2000/svg" xmlns:xlink="http://www.w3.org/1999/xlink" contentStyleType="text/css" data-diagram-type="CLASS" height="322px" preserveAspectRatio="none" style="width:6198px;height:322px;background:#FFFFFF;" version="1.1" viewBox="0 0 6198 322" width="6198px" zoomAndPan="magnify"><defs/><g><!--entity Feature_User--><g id="elem_Feature_User"><ellipse cx="2939.1685" cy="14" fill="#F1F1F1" rx="8" ry="8" style="stroke:#181818;stroke-width:0.5;"/><path d="M2939.1685,22 L2939.1685,49 M2926.1685,30 L2952.1685,30 M2939.1685,49 L2926.1685,64 M2939.1685,49 L2952.1685,64 " fill="transparent" style="stroke:#181818;stroke-width:0.5;"/><text fill="#000000" font-family="sans-serif" font-size="14" lengthAdjust="spacing" textLength="90.3369" x="2894" y="78.4951">Feature User</text></g><!--class logic_arc_int__baselibs__bit_manipulation--><g id="elem_logic_arc_int__baselibs__bit_manipulation"><rect fill="#F1F1F1" height="40" id="logic_arc_int__baselibs__bit_manipulation" rx="2.5" ry="2.5" style="stroke:#181818;stroke-width:0.5;" width="321.8369" x="5499" y="158.5"/><ellipse cx="5514" cy="174.5" fill="#ADD1B2" rx="11" ry="11" style="stroke:#181818;stroke-width:1;"/><path d="M5516.9688,180.1406 Q5516.3906,180.4375 5515.75,180.5781 Q5515.1094,180.7344 5514.4063,180.7344 Q5511.9063,180.7344 5510.5781,179.0938 Q5509.2656,177.4375 5509.2656,174.3125 Q5509.2656,171.1875 5510.5781,169.5313 Q5511.9063,167.875 5514.4063,167.875 Q5515.1094,167.875 5515.75,168.0313 Q5516.4063,168.1875 5516.9688,168.4844 L5516.9688,171.2031 Q5516.3438,170.625 5515.75,170.3594 Q5515.1563,170.0781 5514.5313,170.0781 Q5513.1875,170.0781 5512.5,171.1563 Q5511.8125,172.2188 5511.8125,174.3125 Q5511.8125,176.4063 5512.5,177.4844 Q5513.1875,178.5469 5514.5313,178.5469 Q5515.1563,178.5469 5515.75,178.2813 Q5516.3438,178 5516.9688,177.4219 L5516.9688,180.1406 Z " fill="#000000"/><text fill="#000000" font-family="sans-serif" font-size="14" lengthAdjust="spacing" textLength="289.8369" x="5528" y="179.3467">logic_arc_int__baselibs__bit_manipulation</text><line style="stroke:#181818;stroke-width:0.5;" x1="5500" x2="5819.8369" y1="190.5" y2="190.5"/></g><!--class comp_arc_sta__baselibs__bit_manipulation--><g id="elem_comp_arc_sta__baselibs__bit_manipulation"><rect fill="#F1F1F1" height="40" id="comp_arc_sta__baselibs__bit_manipulation" rx="2.5" ry="2.5" style="stroke:#181818;stroke-width:0.5;" width="330.8057" x="5676.5" y="275.5"/><ellipse cx="5691.5" cy="291.5" fill="#ADD1B2" rx="11" ry="11" style="stroke:#181818;stroke-width:1;"/><path d="M5694.4688,297.1406 Q5693.8906,297.4375 5693.25,297.5781 Q5692.6094,297.7344 5691.9063,297.7344 Q5689.4063,297.7344 5688.0781,296.0938 Q5686.7656,294.4375 5686.7656,291.3125 Q5686.7656,288.1875 5688.0781,286.5313 Q5689.4063,284.875 5691.9063,284.875 Q5692.6094,284.875 5693.25,285.0313 Q5693.9063,285.1875 5694.4688,285.4844 L5694.4688,288.2031 Q5693.8438,287.625 5693.25,287.3594 Q5692.6563,287.0781 5692.0313,287.0781 Q5690.6875,287.0781 5690,288.1563 Q5689.3125,289.2188 5689.3125,291.3125 Q5689.3125,293.4063 5690,294.4844 Q5690.6875,295.5469 5692.0313,295.5469 Q5692.6563,295.5469 5693.25,295.2813 Q5693.8438,295 5694.4688,294.4219 L5694.4688,297.1406 Z " fill="#000000"/><text fill="#000000" font-family="sans-serif" font-size="14" lengthAdjust="spacing" textLength="298.8057" x="5705.5" y="296.3467">comp_arc_sta__baselibs__bit_manipulation</text><line style="stroke:#181818;stroke-width:0.5;" x1="5677.5" x2="6006.3057" y1="307.5" y2="307.5"/></g><!--class comp_arc_sta__baselibs__utils--><g id="elem_comp_arc_sta__baselibs__utils"><rect fill="#F1F1F1" height="40" id="comp_arc_sta__baselibs__utils" rx="2.5" ry="2.5" style="stroke:#181818;stroke-width:0.5;" width="242.9502" x="4960.5" y="275.5"/><ellipse cx="4975.5" cy="291.5" fill="#ADD1B2" rx="11" ry="11" style="stroke:#181818;stroke-width:1;"/><path d="M4978.4688,297.1406 Q4977.8906,297.4375 4977.25,297.5781 Q4976.6094,297.7344 4975.9063,297.7344 Q4973.4063,297.7344 4972.0781,296.0938 Q4970.7656,294.4375 4970.7656,291.3125 Q4970.7656,288.1875 4972.0781,286.5313 Q4973.4063,284.875 4975.9063,284.875 Q4976.6094,284.875 4977.25,285.0313 Q4977.9063,285.1875 4978.4688,285.4844 L4978.4688,288.2031 Q4977.8438,287.625 4977.25,287.3594 Q4976.6563,287.0781 4976.0313,287.0781 Q4974.6875,287.0781 4974,288.1563 Q4973.3125,289.2188 4973.3125,291.3125 Q4973.3125,293.4063 4974,294.4844 Q4974.6875,295.5469 4976.0313,295.5469 Q4976.6563,295.5469 4977.25,295.2813 Q4977.8438,295 4978.4688,294.4219 L4978.4688,297.1406 Z " fill="#000000"/><text fill="#000000" font-family="sans-serif" font-size="14" lengthAdjust="spacing" textLength="210.9502" x="4989.5" y="296.3467">comp_arc_sta__baselibs__utils</text><line style="stroke:#181818;stroke-width:0.5;" x1="4961.5" x2="5202.4502" y1="307.5" y2="307.5"/></g><!--class logic_arc_int__baselibs__utils_scoped_op--><g id="elem_logic_arc_int__baselibs__utils_scoped_op"><rect fill="#F1F1F1" height="40" id="logic_arc_int__baselibs__utils_scoped_op" rx="2.5" ry="2.5" style="stroke:#181818;stroke-width:0.5;" width="315.377" x="5148.5" y="158.5"/><ellipse cx="5163.5" cy="174.5" fill="#ADD1B2" rx="11" ry="11" style="stroke:#181818;stroke-width:1;"/><path d="M5166.4688,180.1406 Q5165.8906,180.4375 5165.25,180.5781 Q5164.6094,180.7344 5163.9063,180.7344 Q5161.4063,180.7344 5160.0781,179.0938 Q5158.7656,177.4375 5158.7656,174.3125 Q5158.7656,171.1875 5160.0781,169.5313 Q5161.4063,167.875 5163.9063,167.875 Q5164.6094,167.875 5165.25,168.0313 Q5165.9063,168.1875 5166.4688,168.4844 L5166.4688,171.2031 Q5165.8438,170.625 5165.25,170.3594 Q5164.6563,170.0781 5164.0313,170.0781 Q5162.6875,170.0781 5162,171.1563 Q5161.3125,172.2188 5161.3125,174.3125 Q5161.3125,176.4063 5162,177.4844 Q5162.6875,178.5469 5164.0313,178.5469 Q5164.6563,178.5469 5165.25,178.2813 Q5165.8438,178 5166.4688,177.4219 L5166.4688,180.1406 Z " fill="#000000"/><text fill="#000000" font-family="sans-serif" font-size="14" lengthAdjust="spacing" textLength="283.377" x="5177.5" y="179.3467">logic_arc_int__baselibs__utils_scoped_op</text><line style="stroke:#181818;stroke-width:0.5;" x1="5149.5" x2="5462.877" y1="190.5" y2="190.5"/></g><!--class logic_arc_int__baselibs__utils_base64--><g id="elem_logic_arc_int__baselibs__utils_base64"><rect fill="#F1F1F1" height="40" id="logic_arc_int__baselibs__utils_base64" rx="2.5" ry="2.5" style="stroke:#181818;stroke-width:0.5;" width="292.1689" x="4821" y="158.5"/><ellipse cx="4836" cy="174.5" fill="#ADD1B2" rx="11" ry="11" style="stroke:#181818;stroke-width:1;"/><path d="M4838.9688,180.1406 Q4838.3906,180.4375 4837.75,180.5781 Q4837.1094,180.7344 4836.4063,180.7344 Q4833.9063,180.7344 4832.5781,179.0938 Q4831.2656,177.4375 4831.2656,174.3125 Q4831.2656,171.1875 4832.5781,169.5313 Q4833.9063,167.875 4836.4063,167.875 Q4837.1094,167.875 4837.75,168.0313 Q4838.4063,168.1875 4838.9688,168.4844 L4838.9688,171.2031 Q4838.3438,170.625 4837.75,170.3594 Q4837.1563,170.0781 4836.5313,170.0781 Q4835.1875,170.0781 4834.5,171.1563 Q4833.8125,172.2188 4833.8125,174.3125 Q4833.8125,176.4063 4834.5,177.4844 Q4835.1875,178.5469 4836.5313,178.5469 Q4837.1563,178.5469 4837.75,178.2813 Q4838.3438,178 4838.9688,177.4219 L4838.9688,180.1406 Z " fill="#000000"/><text fill="#000000" font-family="sans-serif" font-size="14" lengthAdjust="spacing" textLength="260.1689" x="4850" y="179.3467">logic_arc_int__baselibs__utils_base64</text><line style="stroke:#181818;stroke-width:0.5;" x1="4822" x2="5112.1689" y1="190.5" y2="190.5"/></g><!--class logic_arc_int__baselibs__promise--><g id="elem_logic_arc_int__baselibs__promise"><rect fill="#F1F1F1" height="40" id="logic_arc_int__baselibs__promise" rx="2.5" ry="2.5" style="stroke:#181818;stroke-width:0.5;" width="261.1885" x="1527.5" y="158.5"/><ellipse cx="1542.5" cy="174.5" fill="#ADD1B2" rx="11" ry="11" style="stroke:#181818;stroke-width:1;"/><path d="M1545.4688,180.1406 Q1544.8906,180.4375 1544.25,180.5781 Q1543.6094,180.7344 1542.9063,180.7344 Q1540.4063,180.7344 1539.0781,179.0938 Q1537.7656,177.4375 1537.7656,174.3125 Q1537.7656,171.1875 1539.0781,169.5313 Q1540.4063,167.875 1542.9063,167.875 Q1543.6094,167.875 1544.25,168.0313 Q1544.9063,168.1875 1545.4688,168.4844 L1545.4688,171.2031 Q1544.8438,170.625 1544.25,170.3594 Q1543.6563,170.0781 1543.0313,170.0781 Q1541.6875,170.0781 1541,171.1563 Q1540.3125,172.2188 1540.3125,174.3125 Q1540.3125,176.4063 1541,177.4844 Q1541.6875,178.5469 1543.0313,178.5469 Q1543.6563,178.5469 1544.25,178.2813 Q1544.8438,178 1545.4688,177.4219 L1545.4688,180.1406 Z " fill="#000000"/><text fill="#000000" font-family="sans-serif" font-size="14" lengthAdjust="spacing" textLength="229.1885" x="1556.5" y="179.3467">logic_arc_int__baselibs__promise</text><line style="stroke:#181818;stroke-width:0.5;" x1="1528.5" x2="1787.6885" y1="190.5" y2="190.5"/></g><!--class comp_arc_sta__baselibs__concurrency--><g id="elem_comp_arc_sta__baselibs__concurrency"><rect fill="#F1F1F1" height="40" id="comp_arc_sta__baselibs__concurrency" rx="2.5" ry="2.5" style="stroke:#181818;stroke-width:0.5;" width="300.2012" x="2005" y="275.5"/><ellipse cx="2020" cy="291.5" fill="#ADD1B2" rx="11" ry="11" style="stroke:#181818;stroke-width:1;"/><path d="M2022.9688,297.1406 Q2022.3906,297.4375 2021.75,297.5781 Q2021.1094,297.7344 2020.4063,297.7344 Q2017.9063,297.7344 2016.5781,296.0938 Q2015.2656,294.4375 2015.2656,291.3125 Q2015.2656,288.1875 2016.5781,286.5313 Q2017.9063,284.875 2020.4063,284.875 Q2021.1094,284.875 2021.75,285.0313 Q2022.4063,285.1875 2022.9688,285.4844 L2022.9688,288.2031 Q2022.3438,287.625 2021.75,287.3594 Q2021.1563,287.0781 2020.5313,287.0781 Q2019.1875,287.0781 2018.5,288.1563 Q2017.8125,289.2188 2017.8125,291.3125 Q2017.8125,293.4063 2018.5,294.4844 Q2019.1875,295.5469 2020.5313,295.5469 Q2021.1563,295.5469 2021.75,295.2813 Q2022.3438,295 2022.9688,294.4219 L2022.9688,297.1406 Z " fill="#000000"/><text fill="#000000" font-family="sans-serif" font-size="14" lengthAdjust="spacing" textLength="268.2012" x="2034" y="296.3467">comp_arc_sta__baselibs__concurrency</text><line style="stroke:#181818;stroke-width:0.5;" x1="2006" x2="2304.2012" y1="307.5" y2="307.5"/></g><!--class logic_arc_int__baselibs__condition_variable--><g id="elem_logic_arc_int__baselibs__condition_variable"><rect fill="#F1F1F1" height="40" id="logic_arc_int__baselibs__condition_variable" rx="2.5" ry="2.5" style="stroke:#181818;stroke-width:0.5;" width="332.7539" x="3107.5" y="158.5"/><ellipse cx="3122.5" cy="174.5" fill="#ADD1B2" rx="11" ry="11" style="stroke:#181818;stroke-width:1;"/><path d="M3125.4688,180.1406 Q3124.8906,180.4375 3124.25,180.5781 Q3123.6094,180.7344 3122.9063,180.7344 Q3120.4063,180.7344 3119.0781,179.0938 Q3117.7656,177.4375 3117.7656,174.3125 Q3117.7656,171.1875 3119.0781,169.5313 Q3120.4063,167.875 3122.9063,167.875 Q3123.6094,167.875 3124.25,168.0313 Q3124.9063,168.1875 3125.4688,168.4844 L3125.4688,171.2031 Q3124.8438,170.625 3124.25,170.3594 Q3123.6563,170.0781 3123.0313,170.0781 Q3121.6875,170.0781 3121,171.1563 Q3120.3125,172.2188 3120.3125,174.3125 Q3120.3125,176.4063 3121,177.4844 Q3121.6875,178.5469 3123.0313,178.5469 Q3123.6563,178.5469 3124.25,178.2813 Q3124.8438,178 3125.4688,177.4219 L3125.4688,180.1406 Z " fill="#000000"/><text fill="#000000" font-family="sans-serif" font-size="14" lengthAdjust="spacing" textLength="300.7539" x="3136.5" y="179.3467">logic_arc_int__baselibs__condition_variable</text><line style="stroke:#181818;stroke-width:0.5;" x1="3108.5" x2="3439.2539" y1="190.5" y2="190.5"/></g><!--class logic_arc_int__baselibs__future--><g id="elem_logic_arc_int__baselibs__future"><rect fill="#F1F1F1" height="40" id="logic_arc_int__baselibs__future" rx="2.5" ry="2.5" style="stroke:#181818;stroke-width:0.5;" width="247.0791" x="1823.5" y="158.5"/><ellipse cx="1838.5" cy="174.5" fill="#ADD1B2" rx="11" ry="11" style="stroke:#181818;stroke-width:1;"/><path d="M1841.4688,180.1406 Q1840.8906,180.4375 1840.25,180.5781 Q1839.6094,180.7344 1838.9063,180.7344 Q1836.4063,180.7344 1835.0781,179.0938 Q1833.7656,177.4375 1833.7656,174.3125 Q1833.7656,171.1875 1835.0781,169.5313 Q1836.4063,167.875 1838.9063,167.875 Q1839.6094,167.875 1840.25,168.0313 Q1840.9063,168.1875 1841.4688,168.4844 L1841.4688,171.2031 Q1840.8438,170.625 1840.25,170.3594 Q1839.6563,170.0781 1839.0313,170.0781 Q1837.6875,170.0781 1837,171.1563 Q1836.3125,172.2188 1836.3125,174.3125 Q1836.3125,176.4063 1837,177.4844 Q1837.6875,178.5469 1839.0313,178.5469 Q1839.6563,178.5469 1840.25,178.2813 Q1840.8438,178 1841.4688,177.4219 L1841.4688,180.1406 Z " fill="#000000"/><text fill="#000000" font-family="sans-serif" font-size="14" lengthAdjust="spacing" textLength="215.0791" x="1852.5" y="179.3467">logic_arc_int__baselibs__future</text><line style="stroke:#181818;stroke-width:0.5;" x1="1824.5" x2="2069.5791" y1="190.5" y2="190.5"/></g><!--class logic_arc_int__baselibs__task--><g id="elem_logic_arc_int__baselibs__task"><rect fill="#F1F1F1" height="40" id="logic_arc_int__baselibs__task" rx="2.5" ry="2.5" style="stroke:#181818;stroke-width:0.5;" width="234.0156" x="921" y="158.5"/><ellipse cx="936" cy="174.5" fill="#ADD1B2" rx="11" ry="11" style="stroke:#181818;stroke-width:1;"/><path d="M938.9688,180.1406 Q938.3906,180.4375 937.75,180.5781 Q937.1094,180.7344 936.4063,180.7344 Q933.9063,180.7344 932.5781,179.0938 Q931.2656,177.4375 931.2656,174.3125 Q931.2656,171.1875 932.5781,169.5313 Q933.9063,167.875 936.4063,167.875 Q937.1094,167.875 937.75,168.0313 Q938.4063,168.1875 938.9688,168.4844 L938.9688,171.2031 Q938.3438,170.625 937.75,170.3594 Q937.1563,170.0781 936.5313,170.0781 Q935.1875,170.0781 934.5,171.1563 Q933.8125,172.2188 933.8125,174.3125 Q933.8125,176.4063 934.5,177.4844 Q935.1875,178.5469 936.5313,178.5469 Q937.1563,178.5469 937.75,178.2813 Q938.3438,178 938.9688,177.4219 L938.9688,180.1406 Z " fill="#000000"/><text fill="#000000" font-family="sans-serif" font-size="14" lengthAdjust="spacing" textLength="202.0156" x="950" y="179.3467">logic_arc_int__baselibs__task</text><line style="stroke:#181818;stroke-width:0.5;" x1="922" x2="1154.0156" y1="190.5" y2="190.5"/></g><!--class logic_arc_int__baselibs__shared_future--><g id="elem_logic_arc_int__baselibs__shared_future"><rect fill="#F1F1F1" height="40" id="logic_arc_int__baselibs__shared_future" rx="2.5" ry="2.5" style="stroke:#181818;stroke-width:0.5;" width="302.0811" x="1190" y="158.5"/><ellipse cx="1205" cy="174.5" fill="#ADD1B2" rx="11" ry="11" style="stroke:#181818;stroke-width:1;"/><path d="M1207.9688,180.1406 Q1207.3906,180.4375 1206.75,180.5781 Q1206.1094,180.7344 1205.4063,180.7344 Q1202.9063,180.7344 1201.5781,179.0938 Q1200.2656,177.4375 1200.2656,174.3125 Q1200.2656,171.1875 1201.5781,169.5313 Q1202.9063,167.875 1205.4063,167.875 Q1206.1094,167.875 1206.75,168.0313 Q1207.4063,168.1875 1207.9688,168.4844 L1207.9688,171.2031 Q1207.3438,170.625 1206.75,170.3594 Q1206.1563,170.0781 1205.5313,170.0781 Q1204.1875,170.0781 1203.5,171.1563 Q1202.8125,172.2188 1202.8125,174.3125 Q1202.8125,176.4063 1203.5,177.4844 Q1204.1875,178.5469 1205.5313,178.5469 Q1206.1563,178.5469 1206.75,178.2813 Q1207.3438,178 1207.9688,177.4219 L1207.9688,180.1406 Z " fill="#000000"/><text fill="#000000" font-family="sans-serif" font-size="14" lengthAdjust="spacing" textLength="270.0811" x="1219" y="179.3467">logic_arc_int__baselibs__shared_future</text><line style="stroke:#181818;stroke-width:0.5;" x1="1191" x2="1491.0811" y1="190.5" y2="190.5"/></g><!--class logic_arc_int__baselibs__intrusive_list--><g id="elem_logic_arc_int__baselibs__intrusive_list"><rect fill="#F1F1F1" height="40" id="logic_arc_int__baselibs__intrusive_list" rx="2.5" ry="2.5" style="stroke:#181818;stroke-width:0.5;" width="293.0713" x="3475.5" y="158.5"/><ellipse cx="3490.5" cy="174.5" fill="#ADD1B2" rx="11" ry="11" style="stroke:#181818;stroke-width:1;"/><path d="M3493.4688,180.1406 Q3492.8906,180.4375 3492.25,180.5781 Q3491.6094,180.7344 3490.9063,180.7344 Q3488.4063,180.7344 3487.0781,179.0938 Q3485.7656,177.4375 3485.7656,174.3125 Q3485.7656,171.1875 3487.0781,169.5313 Q3488.4063,167.875 3490.9063,167.875 Q3491.6094,167.875 3492.25,168.0313 Q3492.9063,168.1875 3493.4688,168.4844 L3493.4688,171.2031 Q3492.8438,170.625 3492.25,170.3594 Q3491.6563,170.0781 3491.0313,170.0781 Q3489.6875,170.0781 3489,171.1563 Q3488.3125,172.2188 3488.3125,174.3125 Q3488.3125,176.4063 3489,177.4844 Q3489.6875,178.5469 3491.0313,178.5469 Q3491.6563,178.5469 3492.25,178.2813 Q3492.8438,178 3493.4688,177.4219 L3493.4688,180.1406 Z " fill="#000000"/><text fill="#000000" font-family="sans-serif" font-size="14" lengthAdjust="spacing" textLength="261.0713" x="3504.5" y="179.3467">logic_arc_int__baselibs__intrusive_list</text><line style="stroke:#181818;stroke-width:0.5;" x1="3476.5" x2="3767.5713" y1="190.5" y2="190.5"/></g><!--class logic_arc_int__baselibs__message_passing--><g id="elem_logic_arc_int__baselibs__message_passing"><rect fill="#F1F1F1" height="40" id="logic_arc_int__baselibs__message_passing" rx="2.5" ry="2.5" style="stroke:#181818;stroke-width:0.5;" width="328.167" x="4458" y="158.5"/><ellipse cx="4473" cy="174.5" fill="#ADD1B2" rx="11" ry="11" style="stroke:#181818;stroke-width:1;"/><path d="M4475.9688,180.1406 Q4475.3906,180.4375 4474.75,180.5781 Q4474.1094,180.7344 4473.4063,180.7344 Q4470.9063,180.7344 4469.5781,179.0938 Q4468.2656,177.4375 4468.2656,174.3125 Q4468.2656,171.1875 4469.5781,169.5313 Q4470.9063,167.875 4473.4063,167.875 Q4474.1094,167.875 4474.75,168.0313 Q4475.4063,168.1875 4475.9688,168.4844 L4475.9688,171.2031 Q4475.3438,170.625 4474.75,170.3594 Q4474.1563,170.0781 4473.5313,170.0781 Q4472.1875,170.0781 4471.5,171.1563 Q4470.8125,172.2188 4470.8125,174.3125 Q4470.8125,176.4063 4471.5,177.4844 Q4472.1875,178.5469 4473.5313,178.5469 Q4474.1563,178.5469 4474.75,178.2813 Q4475.3438,178 4475.9688,177.4219 L4475.9688,180.1406 Z " fill="#000000"/><text fill="#000000" font-family="sans-serif" font-size="14" lengthAdjust="spacing" textLength="296.167" x="4487" y="179.3467">logic_arc_int__baselibs__message_passing</text><line style="stroke:#181818;stroke-width:0.5;" x1="4459" x2="4785.167" y1="190.5" y2="190.5"/></g><!--class logic_arc_int__baselibs__memory_shared--><g id="elem_logic_arc_int__baselibs__memory_shared"><rect fill="#F1F1F1" height="40" id="logic_arc_int__baselibs__memory_shared" rx="2.5" ry="2.5" style="stroke:#181818;stroke-width:0.5;" width="318.043" x="289" y="158.5"/><ellipse cx="304" cy="174.5" fill="#ADD1B2" rx="11" ry="11" style="stroke:#181818;stroke-width:1;"/><path d="M306.9688,180.1406 Q306.3906,180.4375 305.75,180.5781 Q305.1094,180.7344 304.4063,180.7344 Q301.9063,180.7344 300.5781,179.0938 Q299.2656,177.4375 299.2656,174.3125 Q299.2656,171.1875 300.5781,169.5313 Q301.9063,167.875 304.4063,167.875 Q305.1094,167.875 305.75,168.0313 Q306.4063,168.1875 306.9688,168.4844 L306.9688,171.2031 Q306.3438,170.625 305.75,170.3594 Q305.1563,170.0781 304.5313,170.0781 Q303.1875,170.0781 302.5,171.1563 Q301.8125,172.2188 301.8125,174.3125 Q301.8125,176.4063 302.5,177.4844 Q303.1875,178.5469 304.5313,178.5469 Q305.1563,178.5469 305.75,178.2813 Q306.3438,178 306.9688,177.4219 L306.9688,180.1406 Z " fill="#000000"/><text fill="#000000" font-family="sans-serif" font-size="14" lengthAdjust="spacing" textLength="286.043" x="318" y="179.3467">logic_arc_int__baselibs__memory_shared</text><line style="stroke:#181818;stroke-width:0.5;" x1="290" x2="606.043" y1="190.5" y2="190.5"/></g><!--class logic_arc_int__baselibs__synchronized_queue--><g id="elem_logic_arc_int__baselibs__synchronized_queue"><rect fill="#F1F1F1" height="40" id="logic_arc_int__baselibs__synchronized_queue" rx="2.5" ry="2.5" style="stroke:#181818;stroke-width:0.5;" width="348.3604" x="2106" y="158.5"/><ellipse cx="2121" cy="174.5" fill="#ADD1B2" rx="11" ry="11" style="stroke:#181818;stroke-width:1;"/><path d="M2123.9688,180.1406 Q2123.3906,180.4375 2122.75,180.5781 Q2122.1094,180.7344 2121.4063,180.7344 Q2118.9063,180.7344 2117.5781,179.0938 Q2116.2656,177.4375 2116.2656,174.3125 Q2116.2656,171.1875 2117.5781,169.5313 Q2118.9063,167.875 2121.4063,167.875 Q2122.1094,167.875 2122.75,168.0313 Q2123.4063,168.1875 2123.9688,168.4844 L2123.9688,171.2031 Q2123.3438,170.625 2122.75,170.3594 Q2122.1563,170.0781 2121.5313,170.0781 Q2120.1875,170.0781 2119.5,171.1563 Q2118.8125,172.2188 2118.8125,174.3125 Q2118.8125,176.4063 2119.5,177.4844 Q2120.1875,178.5469 2121.5313,178.5469 Q2122.1563,178.5469 2122.75,178.2813 Q2123.3438,178 2123.9688,177.4219 L2123.9688,180.1406 Z " fill="#000000"/><text fill="#000000" font-family="sans-serif" font-size="14" lengthAdjust="spacing" textLength="316.3604" x="2135" y="179.3467">logic_arc_int__baselibs__synchronized_queue</text><line style="stroke:#181818;stroke-width:0.5;" x1="2107" x2="2453.3604" y1="190.5" y2="190.5"/></g><!--class logic_arc_int__baselibs__result--><g id="elem_logic_arc_int__baselibs__result"><rect fill="#F1F1F1" height="40" id="logic_arc_int__baselibs__result" rx="2.5" ry="2.5" style="stroke:#181818;stroke-width:0.5;" width="244.4609" x="642" y="158.5"/><ellipse cx="657" cy="174.5" fill="#ADD1B2" rx="11" ry="11" style="stroke:#181818;stroke-width:1;"/><path d="M659.9688,180.1406 Q659.3906,180.4375 658.75,180.5781 Q658.1094,180.7344 657.4063,180.7344 Q654.9063,180.7344 653.5781,179.0938 Q652.2656,177.4375 652.2656,174.3125 Q652.2656,171.1875 653.5781,169.5313 Q654.9063,167.875 657.4063,167.875 Q658.1094,167.875 658.75,168.0313 Q659.4063,168.1875 659.9688,168.4844 L659.9688,171.2031 Q659.3438,170.625 658.75,170.3594 Q658.1563,170.0781 657.5313,170.0781 Q656.1875,170.0781 655.5,171.1563 Q654.8125,172.2188 654.8125,174.3125 Q654.8125,176.4063 655.5,177.4844 Q656.1875,178.5469 657.5313,178.5469 Q658.1563,178.5469 658.75,178.2813 Q659.3438,178 659.9688,177.4219 L659.9688,180.1406 Z " fill="#000000"/><text fill="#000000" font-family="sans-serif" font-size="14" lengthAdjust="spacing" textLength="212.4609" x="671" y="179.3467">logic_arc_int__baselibs__result</text><line style="stroke:#181818;stroke-width:0.5;" x1="643" x2="885.4609" y1="190.5" y2="190.5"/></g><!--class comp_arc_sta__baselibs__containers--><g id="elem_comp_arc_sta__baselibs__containers"><rect fill="#F1F1F1" height="40" id="comp_arc_sta__baselibs__containers" rx="2.5" ry="2.5" style="stroke:#181818;stroke-width:0.5;" width="287.1445" x="3645.5" y="275.5"/><ellipse cx="3660.5" cy="291.5" fill="#ADD1B2" rx="11" ry="11" style="stroke:#181818;stroke-width:1;"/><path d="M3663.4688,297.1406 Q3662.8906,297.4375 3662.25,297.5781 Q3661.6094,297.7344 3660.9063,297.7344 Q3658.4063,297.7344 3657.0781,296.0938 Q3655.7656,294.4375 3655.7656,291.3125 Q3655.7656,288.1875 3657.0781,286.5313 Q3658.4063,284.875 3660.9063,284.875 Q3661.6094,284.875 3662.25,285.0313 Q3662.9063,285.1875 3663.4688,285.4844 L3663.4688,288.2031 Q3662.8438,287.625 3662.25,287.3594 Q3661.6563,287.0781 3661.0313,287.0781 Q3659.6875,287.0781 3659,288.1563 Q3658.3125,289.2188 3658.3125,291.3125 Q3658.3125,293.4063 3659,294.4844 Q3659.6875,295.5469 3661.0313,295.5469 Q3661.6563,295.5469 3662.25,295.2813 Q3662.8438,295 3663.4688,294.4219 L3663.4688,297.1406 Z " fill="#000000"/><text fill="#000000" font-family="sans-serif" font-size="14" lengthAdjust="spacing" textLength="255.1445" x="3674.5" y="296.3467">comp_arc_sta__baselibs__containers</text><line style="stroke:#181818;stroke-width:0.5;" x1="3646.5" x2="3931.6445" y1="307.5" y2="307.5"/></g><!--class logic_arc_int__baselibs__bit_mask_operator--><g id="elem_logic_arc_int__baselibs__bit_mask_operator"><rect fill="#F1F1F1" height="40" id="logic_arc_int__baselibs__bit_mask_operator" rx="2.5" ry="2.5" style="stroke:#181818;stroke-width:0.5;" width="334.6406" x="5856.5" y="158.5"/><ellipse cx="5871.5" cy="174.5" fill="#ADD1B2" rx="11" ry="11" style="stroke:#181818;stroke-width:1;"/><path d="M5874.4688,180.1406 Q5873.8906,180.4375 5873.25,180.5781 Q5872.6094,180.7344 5871.9063,180.7344 Q5869.4063,180.7344 5868.0781,179.0938 Q5866.7656,177.4375 5866.7656,174.3125 Q5866.7656,171.1875 5868.0781,169.5313 Q5869.4063,167.875 5871.9063,167.875 Q5872.6094,167.875 5873.25,168.0313 Q5873.9063,168.1875 5874.4688,168.4844 L5874.4688,171.2031 Q5873.8438,170.625 5873.25,170.3594 Q5872.6563,170.0781 5872.0313,170.0781 Q5870.6875,170.0781 5870,171.1563 Q5869.3125,172.2188 5869.3125,174.3125 Q5869.3125,176.4063 5870,177.4844 Q5870.6875,178.5469 5872.0313,178.5469 Q5872.6563,178.5469 5873.25,178.2813 Q5873.8438,178 5874.4688,177.4219 L5874.4688,180.1406 Z " fill="#000000"/><text fill="#000000" font-family="sans-serif" font-size="14" lengthAdjust="spacing" textLength="302.6406" x="5885.5" y="179.3467">logic_arc_int__baselibs__bit_mask_operator</text><line style="stroke:#181818;stroke-width:0.5;" x1="5857.5" x2="6190.1406" y1="190.5" y2="190.5"/></g><!--class logic_arc_int__baselibs__executor--><g id="elem_logic_arc_int__baselibs__executor"><rect fill="#F1F1F1" height="40" id="logic_arc_int__baselibs__executor" rx="2.5" ry="2.5" style="stroke:#181818;stroke-width:0.5;" width="266.4385" x="2806" y="158.5"/><ellipse cx="2821" cy="174.5" fill="#ADD1B2" rx="11" ry="11" style="stroke:#181818;stroke-width:1;"/><path d="M2823.9688,180.1406 Q2823.3906,180.4375 2822.75,180.5781 Q2822.1094,180.7344 2821.4063,180.7344 Q2818.9063,180.7344 2817.5781,179.0938 Q2816.2656,177.4375 2816.2656,174.3125 Q2816.2656,171.1875 2817.5781,169.5313 Q2818.9063,167.875 2821.4063,167.875 Q2822.1094,167.875 2822.75,168.0313 Q2823.4063,168.1875 2823.9688,168.4844 L2823.9688,171.2031 Q2823.3438,170.625 2822.75,170.3594 Q2822.1563,170.0781 2821.5313,170.0781 Q2820.1875,170.0781 2819.5,171.1563 Q2818.8125,172.2188 2818.8125,174.3125 Q2818.8125,176.4063 2819.5,177.4844 Q2820.1875,178.5469 2821.5313,178.5469 Q2822.1563,178.5469 2822.75,178.2813 Q2823.3438,178 2823.9688,177.4219 L2823.9688,180.1406 Z " fill="#000000"/><text fill="#000000" font-family="sans-serif" font-size="14" lengthAdjust="spacing" textLength="234.4385" x="2835" y="179.3467">logic_arc_int__baselibs__executor</text><line style="stroke:#181818;stroke-width:0.5;" x1="2807" x2="3071.4385" y1="190.5" y2="190.5"/></g><!--class comp_arc_sta__baselibs__message_passing--><g id="elem_comp_arc_sta__baselibs__message_passing"><rect fill="#F1F1F1" height="40" id="comp_arc_sta__baselibs__message_passing" rx="2.5" ry="2.5" style="stroke:#181818;stroke-width:0.5;" width="337.1357" x="4457.5" y="275.5"/><ellipse cx="4472.5" cy="291.5" fill="#ADD1B2" rx="11" ry="11" style="stroke:#181818;stroke-width:1;"/><path d="M4475.4688,297.1406 Q4474.8906,297.4375 4474.25,297.5781 Q4473.6094,297.7344 4472.9063,297.7344 Q4470.4063,297.7344 4469.0781,296.0938 Q4467.7656,294.4375 4467.7656,291.3125 Q4467.7656,288.1875 4469.0781,286.5313 Q4470.4063,284.875 4472.9063,284.875 Q4473.6094,284.875 4474.25,285.0313 Q4474.9063,285.1875 4475.4688,285.4844 L4475.4688,288.2031 Q4474.8438,287.625 4474.25,287.3594 Q4473.6563,287.0781 4473.0313,287.0781 Q4471.6875,287.0781 4471,288.1563 Q4470.3125,289.2188 4470.3125,291.3125 Q4470.3125,293.4063 4471,294.4844 Q4471.6875,295.5469 4473.0313,295.5469 Q4473.6563,295.5469 4474.25,295.2813 Q4474.8438,295 4475.4688,294.4219 L4475.4688,297.1406 Z " fill="#000000"/><text fill="#000000" font-family="sans-serif" font-size="14" lengthAdjust="spacing" textLength="305.1357" x="4486.5" y="296.3467">comp_arc_sta__baselibs__message_passing</text><line style="stroke:#181818;stroke-width:0.5;" x1="4458.5" x2="4793.6357" y1="307.5" y2="307.5"/></g><!--class logic_arc_int__baselibs__json--><g id="elem_logic_arc_int__baselibs__json"><rect fill="#F1F1F1" height="40" id="logic_arc_int__baselibs__json" rx="2.5" ry="2.5" style="stroke:#181818;stroke-width:0.5;" width="233.168" x="16.5" y="158.5"/><ellipse cx="31.5" cy="174.5" fill="#ADD1B2" rx="11" ry="11" style="stroke:#181818;stroke-width:1;"/><path d="M34.4688,180.1406 Q33.8906,180.4375 33.25,180.5781 Q32.6094,180.7344 31.9063,180.7344 Q29.4063,180.7344 28.0781,179.0938 Q26.7656,177.4375 26.7656,174.3125 Q26.7656,171.1875 28.0781,169.5313 Q29.4063,167.875 31.9063,167.875 Q32.6094,167.875 33.25,168.0313 Q33.9063,168.1875 34.4688,168.4844 L34.4688,171.2031 Q33.8438,170.625 33.25,170.3594 Q32.6563,170.0781 32.0313,170.0781 Q30.6875,170.0781 30,171.1563 Q29.3125,172.2188 29.3125,174.3125 Q29.3125,176.4063 30,177.4844 Q30.6875,178.5469 32.0313,178.5469 Q32.6563,178.5469 33.25,178.2813 Q33.8438,178 34.4688,177.4219 L34.4688,180.1406 Z " fill="#000000"/><text fill="#000000" font-family="sans-serif" font-size="14" lengthAdjust="spacing" textLength="201.168" x="45.5" y="179.3467">logic_arc_int__baselibs__json</text><line style="stroke:#181818;stroke-width:0.5;" x1="17.5" x2="248.668" y1="190.5" y2="190.5"/></g><!--class comp_arc_sta__baselibs__filesystem--><g id="elem_comp_arc_sta__baselibs__filesystem"><rect fill="#F1F1F1" height="40" id="comp_arc_sta__baselibs__filesystem" rx="2.5" ry="2.5" style="stroke:#181818;stroke-width:0.5;" width="285.4492" x="4137.5" y="275.5"/><ellipse cx="4152.5" cy="291.5" fill="#ADD1B2" rx="11" ry="11" style="stroke:#181818;stroke-width:1;"/><path d="M4155.4688,297.1406 Q4154.8906,297.4375 4154.25,297.5781 Q4153.6094,297.7344 4152.9063,297.7344 Q4150.4063,297.7344 4149.0781,296.0938 Q4147.7656,294.4375 4147.7656,291.3125 Q4147.7656,288.1875 4149.0781,286.5313 Q4150.4063,284.875 4152.9063,284.875 Q4153.6094,284.875 4154.25,285.0313 Q4154.9063,285.1875 4155.4688,285.4844 L4155.4688,288.2031 Q4154.8438,287.625 4154.25,287.3594 Q4153.6563,287.0781 4153.0313,287.0781 Q4151.6875,287.0781 4151,288.1563 Q4150.3125,289.2188 4150.3125,291.3125 Q4150.3125,293.4063 4151,294.4844 Q4151.6875,295.5469 4153.0313,295.5469 Q4153.6563,295.5469 4154.25,295.2813 Q4154.8438,295 4155.4688,294.4219 L4155.4688,297.1406 Z " fill="#000000"/><text fill="#000000" font-family="sans-serif" font-size="14" lengthAdjust="spacing" textLength="253.4492" x="4166.5" y="296.3467">comp_arc_sta__baselibs__filesystem</text><line style="stroke:#181818;stroke-width:0.5;" x1="4138.5" x2="4421.9492" y1="307.5" y2="307.5"/></g><!--class logic_arc_int__baselibs__filesystem--><g id="elem_logic_arc_int__baselibs__filesystem"><rect fill="#F1F1F1" height="40" id="logic_arc_int__baselibs__filesystem" rx="2.5" ry="2.5" style="stroke:#181818;stroke-width:0.5;" width="276.4805" x="4147" y="158.5"/><ellipse cx="4162" cy="174.5" fill="#ADD1B2" rx="11" ry="11" style="stroke:#181818;stroke-width:1;"/><path d="M4164.9688,180.1406 Q4164.3906,180.4375 4163.75,180.5781 Q4163.1094,180.7344 4162.4063,180.7344 Q4159.9063,180.7344 4158.5781,179.0938 Q4157.2656,177.4375 4157.2656,174.3125 Q4157.2656,171.1875 4158.5781,169.5313 Q4159.9063,167.875 4162.4063,167.875 Q4163.1094,167.875 4163.75,168.0313 Q4164.4063,168.1875 4164.9688,168.4844 L4164.9688,171.2031 Q4164.3438,170.625 4163.75,170.3594 Q4163.1563,170.0781 4162.5313,170.0781 Q4161.1875,170.0781 4160.5,171.1563 Q4159.8125,172.2188 4159.8125,174.3125 Q4159.8125,176.4063 4160.5,177.4844 Q4161.1875,178.5469 4162.5313,178.5469 Q4163.1563,178.5469 4163.75,178.2813 Q4164.3438,178 4164.9688,177.4219 L4164.9688,180.1406 Z " fill="#000000"/><text fill="#000000" font-family="sans-serif" font-size="14" lengthAdjust="spacing" textLength="244.4805" x="4176" y="179.3467">logic_arc_int__baselibs__filesystem</text><line style="stroke:#181818;stroke-width:0.5;" x1="4148" x2="4422.4805" y1="190.5" y2="190.5"/></g><!--class comp_arc_sta__baselibs__result--><g id="elem_comp_arc_sta__baselibs__result"><rect fill="#F1F1F1" height="40" id="comp_arc_sta__baselibs__result" rx="2.5" ry="2.5" style="stroke:#181818;stroke-width:0.5;" width="253.4297" x="646.5" y="275.5"/><ellipse cx="661.5" cy="291.5" fill="#ADD1B2" rx="11" ry="11" style="stroke:#181818;stroke-width:1;"/><path d="M664.4688,297.1406 Q663.8906,297.4375 663.25,297.5781 Q662.6094,297.7344 661.9063,297.7344 Q659.4063,297.7344 658.0781,296.0938 Q656.7656,294.4375 656.7656,291.3125 Q656.7656,288.1875 658.0781,286.5313 Q659.4063,284.875 661.9063,284.875 Q662.6094,284.875 663.25,285.0313 Q663.9063,285.1875 664.4688,285.4844 L664.4688,288.2031 Q663.8438,287.625 663.25,287.3594 Q662.6563,287.0781 662.0313,287.0781 Q660.6875,287.0781 660,288.1563 Q659.3125,289.2188 659.3125,291.3125 Q659.3125,293.4063 660,294.4844 Q660.6875,295.5469 662.0313,295.5469 Q662.6563,295.5469 663.25,295.2813 Q663.8438,295 664.4688,294.4219 L664.4688,297.1406 Z " fill="#000000"/><text fill="#000000" font-family="sans-serif" font-size="14" lengthAdjust="spacing" textLength="221.4297" x="675.5" y="296.3467">comp_arc_sta__baselibs__result</text><line style="stroke:#181818;stroke-width:0.5;" x1="647.5" x2="898.9297" y1="307.5" y2="307.5"/></g><!--class logic_arc_int__baselibs__task_result--><g id="elem_logic_arc_int__baselibs__task_result"><rect fill="#F1F1F1" height="40" id="logic_arc_int__baselibs__task_result" rx="2.5" ry="2.5" style="stroke:#181818;stroke-width:0.5;" width="280.9307" x="2489.5" y="158.5"/><ellipse cx="2504.5" cy="174.5" fill="#ADD1B2" rx="11" ry="11" style="stroke:#181818;stroke-width:1;"/><path d="M2507.4688,180.1406 Q2506.8906,180.4375 2506.25,180.5781 Q2505.6094,180.7344 2504.9063,180.7344 Q2502.4063,180.7344 2501.0781,179.0938 Q2499.7656,177.4375 2499.7656,174.3125 Q2499.7656,171.1875 2501.0781,169.5313 Q2502.4063,167.875 2504.9063,167.875 Q2505.6094,167.875 2506.25,168.0313 Q2506.9063,168.1875 2507.4688,168.4844 L2507.4688,171.2031 Q2506.8438,170.625 2506.25,170.3594 Q2505.6563,170.0781 2505.0313,170.0781 Q2503.6875,170.0781 2503,171.1563 Q2502.3125,172.2188 2502.3125,174.3125 Q2502.3125,176.4063 2503,177.4844 Q2503.6875,178.5469 2505.0313,178.5469 Q2505.6563,178.5469 2506.25,178.2813 Q2506.8438,178 2507.4688,177.4219 L2507.4688,180.1406 Z " fill="#000000"/><text fill="#000000" font-family="sans-serif" font-size="14" lengthAdjust="spacing" textLength="248.9307" x="2518.5" y="179.3467">logic_arc_int__baselibs__task_result</text><line style="stroke:#181818;stroke-width:0.5;" x1="2490.5" x2="2769.4307" y1="190.5" y2="190.5"/></g><!--class logic_arc_int__baselibs__dynamic_array--><g id="elem_logic_arc_int__baselibs__dynamic_array"><rect fill="#F1F1F1" height="40" id="logic_arc_int__baselibs__dynamic_array" rx="2.5" ry="2.5" style="stroke:#181818;stroke-width:0.5;" width="308.3496" x="3804" y="158.5"/><ellipse cx="3819" cy="174.5" fill="#ADD1B2" rx="11" ry="11" style="stroke:#181818;stroke-width:1;"/><path d="M3821.9688,180.1406 Q3821.3906,180.4375 3820.75,180.5781 Q3820.1094,180.7344 3819.4063,180.7344 Q3816.9063,180.7344 3815.5781,179.0938 Q3814.2656,177.4375 3814.2656,174.3125 Q3814.2656,171.1875 3815.5781,169.5313 Q3816.9063,167.875 3819.4063,167.875 Q3820.1094,167.875 3820.75,168.0313 Q3821.4063,168.1875 3821.9688,168.4844 L3821.9688,171.2031 Q3821.3438,170.625 3820.75,170.3594 Q3820.1563,170.0781 3819.5313,170.0781 Q3818.1875,170.0781 3817.5,171.1563 Q3816.8125,172.2188 3816.8125,174.3125 Q3816.8125,176.4063 3817.5,177.4844 Q3818.1875,178.5469 3819.5313,178.5469 Q3820.1563,178.5469 3820.75,178.2813 Q3821.3438,178 3821.9688,177.4219 L3821.9688,180.1406 Z " fill="#000000"/><text fill="#000000" font-family="sans-serif" font-size="14" lengthAdjust="spacing" textLength="276.3496" x="3833" y="179.3467">logic_arc_int__baselibs__dynamic_array</text><line style="stroke:#181818;stroke-width:0.5;" x1="3805" x2="4111.3496" y1="190.5" y2="190.5"/></g><!--class comp_arc_sta__baselibs__memory_shared--><g id="elem_comp_arc_sta__baselibs__memory_shared"><rect fill="#F1F1F1" height="40" id="comp_arc_sta__baselibs__memory_shared" rx="2.5" ry="2.5" style="stroke:#181818;stroke-width:0.5;" width="327.0117" x="284.5" y="275.5"/><ellipse cx="299.5" cy="291.5" fill="#ADD1B2" rx="11" ry="11" style="stroke:#181818;stroke-width:1;"/><path d="M302.4688,297.1406 Q301.8906,297.4375 301.25,297.5781 Q300.6094,297.7344 299.9063,297.7344 Q297.4063,297.7344 296.0781,296.0938 Q294.7656,294.4375 294.7656,291.3125 Q294.7656,288.1875 296.0781,286.5313 Q297.4063,284.875 299.9063,284.875 Q300.6094,284.875 301.25,285.0313 Q301.9063,285.1875 302.4688,285.4844 L302.4688,288.2031 Q301.8438,287.625 301.25,287.3594 Q300.6563,287.0781 300.0313,287.0781 Q298.6875,287.0781 298,288.1563 Q297.3125,289.2188 297.3125,291.3125 Q297.3125,293.4063 298,294.4844 Q298.6875,295.5469 300.0313,295.5469 Q300.6563,295.5469 301.25,295.2813 Q301.8438,295 302.4688,294.4219 L302.4688,297.1406 Z " fill="#000000"/><text fill="#000000" font-family="sans-serif" font-size="14" lengthAdjust="spacing" textLength="295.0117" x="313.5" y="296.3467">comp_arc_sta__baselibs__memory_shared</text><line style="stroke:#181818;stroke-width:0.5;" x1="285.5" x2="610.5117" y1="307.5" y2="307.5"/></g><!--class comp_arc_sta__baselibs__json--><g id="elem_comp_arc_sta__baselibs__json"><rect fill="#F1F1F1" height="40" id="comp_arc_sta__baselibs__json" rx="2.5" ry="2.5" style="stroke:#181818;stroke-width:0.5;" width="242.1367" x="7" y="275.5"/><ellipse cx="22" cy="291.5" fill="#ADD1B2" rx="11" ry="11" style="stroke:#181818;stroke-width:1;"/><path d="M24.9688,297.1406 Q24.3906,297.4375 23.75,297.5781 Q23.1094,297.7344 22.4063,297.7344 Q19.9063,297.7344 18.5781,296.0938 Q17.2656,294.4375 17.2656,291.3125 Q17.2656,288.1875 18.5781,286.5313 Q19.9063,284.875 22.4063,284.875 Q23.1094,284.875 23.75,285.0313 Q24.4063,285.1875 24.9688,285.4844 L24.9688,288.2031 Q24.3438,287.625 23.75,287.3594 Q23.1563,287.0781 22.5313,287.0781 Q21.1875,287.0781 20.5,288.1563 Q19.8125,289.2188 19.8125,291.3125 Q19.8125,293.4063 20.5,294.4844 Q21.1875,295.5469 22.5313,295.5469 Q23.1563,295.5469 23.75,295.2813 Q24.3438,295 24.9688,294.4219 L24.9688,297.1406 Z " fill="#000000"/><text fill="#000000" font-family="sans-serif" font-size="14" lengthAdjust="spacing" textLength="210.1367" x="36" y="296.3467">comp_arc_sta__baselibs__json</text><line style="stroke:#181818;stroke-width:0.5;" x1="8" x2="248.1367" y1="307.5" y2="307.5"/></g><!--link Feature_User to logic_arc_int__baselibs__bit_manipulation--><g id="link_Feature_User_logic_arc_int__baselibs__bit_manipulation"><path codeLine="14" d="M2984.22,45.68 C3189.69,51.12 4055.95,75.15 4766,111.5 C5084.05,127.78 5163.71,131.24 5481,158.5 C5486.76,158.99 5486.6448,158.975 5492.5648,159.515 " fill="transparent" id="Feature_User-to-logic_arc_int__baselibs__bit_manipulation" style="stroke:#181818;stroke-width:1;"/><polygon fill="#181818" points="5498.54,160.06,5489.9406,155.259,5493.5607,159.6058,5489.2139,163.2259,5498.54,160.06" style="stroke:#181818;stroke-width:1;"/><text fill="#000000" font-family="sans-serif" font-size="13" lengthAdjust="spacing" textLength="23.0103" x="5077" y="124.5669">use</text></g><!--reverse link logic_arc_int__baselibs__bit_manipulation to comp_arc_sta__baselibs__bit_manipulation--><g id="link_logic_arc_int__baselibs__bit_manipulation_comp_arc_sta__baselibs__bit_manipulation"><path codeLine="16" d="M5695.5325,201.9546 C5729.2325,223.2446 5778.13,254.14 5811.74,275.38 " fill="transparent" id="logic_arc_int__baselibs__bit_manipulation-backto-comp_arc_sta__baselibs__bit_manipulation" style="stroke:#181818;stroke-width:1;"/><polygon fill="#181818" points="5690.46,198.75,5695.9324,206.9386,5694.6871,201.4205,5700.2052,200.1752,5690.46,198.75" style="stroke:#181818;stroke-width:1;"/><text fill="#000000" font-family="sans-serif" font-size="13" lengthAdjust="spacing" textLength="76.9082" x="5763" y="241.5669">implements</text></g><!--reverse link logic_arc_int__baselibs__utils_scoped_op to comp_arc_sta__baselibs__utils--><g id="link_logic_arc_int__baselibs__utils_scoped_op_comp_arc_sta__baselibs__utils"><path codeLine="17" d="M5263.4223,201.3603 C5221.9923,222.6303 5160.79,254.05 5119.33,275.34 " fill="transparent" id="logic_arc_int__baselibs__utils_scoped_op-backto-comp_arc_sta__baselibs__utils" style="stroke:#181818;stroke-width:1;"/><polygon fill="#181818" points="5268.76,198.62,5258.9266,199.1721,5264.312,200.9036,5262.5804,206.2889,5268.76,198.62" style="stroke:#181818;stroke-width:1;"/><text fill="#000000" font-family="sans-serif" font-size="13" lengthAdjust="spacing" textLength="76.9082" x="5209" y="241.5669">implements</text></g><!--link Feature_User to logic_arc_int__baselibs__utils_base64--><g id="link_Feature_User_logic_arc_int__baselibs__utils_base64"><path codeLine="18" d="M2984.14,46.26 C3192.11,54.56 4078.56,92.25 4803,158.5 C4808.85,159.04 4808.8486,159.0248 4814.8686,159.6148 " fill="transparent" id="Feature_User-to-logic_arc_int__baselibs__utils_base64" style="stroke:#181818;stroke-width:1;"/><polygon fill="#181818" points="4820.84,160.2,4812.2731,155.3412,4815.8638,159.7123,4811.4928,163.3031,4820.84,160.2" style="stroke:#181818;stroke-width:1;"/><text fill="#000000" font-family="sans-serif" font-size="13" lengthAdjust="spacing" textLength="23.0103" x="4397" y="124.5669">use</text></g><!--link Feature_User to logic_arc_int__baselibs__promise--><g id="link_Feature_User_logic_arc_int__baselibs__promise"><path codeLine="19" d="M2893.89,48.59 C2741.01,62.55 2228.53,110.13 1806,158.5 C1800.34,159.15 1800.5186,159.126 1794.6786,159.816 " fill="transparent" id="Feature_User-to-logic_arc_int__baselibs__promise" style="stroke:#181818;stroke-width:1;"/><polygon fill="#181818" points="1788.72,160.52,1798.1272,163.4364,1793.6855,159.9333,1797.1885,155.4916,1788.72,160.52" style="stroke:#181818;stroke-width:1;"/><text fill="#000000" font-family="sans-serif" font-size="13" lengthAdjust="spacing" textLength="23.0103" x="2243" y="124.5669">use</text></g><!--reverse link logic_arc_int__baselibs__promise to comp_arc_sta__baselibs__concurrency--><g id="link_logic_arc_int__baselibs__promise_comp_arc_sta__baselibs__concurrency"><path codeLine="20" d="M1746.1955,199.9027 C1838.1955,221.1927 1980.43,254.11 2072.49,275.41 " fill="transparent" id="logic_arc_int__baselibs__promise-backto-comp_arc_sta__baselibs__concurrency" style="stroke:#181818;stroke-width:1;"/><polygon fill="#181818" points="1740.35,198.55,1748.2165,204.4761,1745.2213,199.6773,1750.0201,196.6821,1740.35,198.55" style="stroke:#181818;stroke-width:1;"/><text fill="#000000" font-family="sans-serif" font-size="13" lengthAdjust="spacing" textLength="76.9082" x="1938" y="241.5669">implements</text></g><!--link Feature_User to logic_arc_int__baselibs__condition_variable--><g id="link_Feature_User_logic_arc_int__baselibs__condition_variable"><path codeLine="21" d="M2984.18,62.44 C3047.31,87.5 3155.8432,130.5965 3220.4432,156.2365 " fill="transparent" id="Feature_User-to-logic_arc_int__baselibs__condition_variable" style="stroke:#181818;stroke-width:1;"/><polygon fill="#181818" points="3226.02,158.45,3219.1304,151.412,3221.3727,156.6055,3216.1792,158.8477,3226.02,158.45" style="stroke:#181818;stroke-width:1;"/><text fill="#000000" font-family="sans-serif" font-size="13" lengthAdjust="spacing" textLength="23.0103" x="3148" y="124.5669">use</text></g><!--link Feature_User to logic_arc_int__baselibs__future--><g id="link_Feature_User_logic_arc_int__baselibs__future"><path codeLine="22" d="M2893.79,50.54 C2766.8,67.52 2396.03,117.11 2088,158.5 C2082.37,159.26 2082.5566,159.2317 2076.7466,160.0117 " fill="transparent" id="Feature_User-to-logic_arc_int__baselibs__future" style="stroke:#181818;stroke-width:1;"/><polygon fill="#181818" points="2070.8,160.81,2080.2522,163.5769,2075.7555,160.1447,2079.1877,155.648,2070.8,160.81" style="stroke:#181818;stroke-width:1;"/><text fill="#000000" font-family="sans-serif" font-size="13" lengthAdjust="spacing" textLength="23.0103" x="2417" y="124.5669">use</text></g><!--link Feature_User to logic_arc_int__baselibs__task--><g id="link_Feature_User_logic_arc_int__baselibs__task"><path codeLine="23" d="M2893.83,46.03 C2692.29,53.14 1855.2,85.75 1172,158.5 C1166.51,159.08 1166.8573,159.0055 1161.1873,159.6855 " fill="transparent" id="Feature_User-to-logic_arc_int__baselibs__task" style="stroke:#181818;stroke-width:1;"/><polygon fill="#181818" points="1155.23,160.4,1164.6423,163.2999,1160.1944,159.8046,1163.6897,155.3568,1155.23,160.4" style="stroke:#181818;stroke-width:1;"/><text fill="#000000" font-family="sans-serif" font-size="13" lengthAdjust="spacing" textLength="23.0103" x="1658" y="124.5669">use</text></g><!--reverse link logic_arc_int__baselibs__shared_future to comp_arc_sta__baselibs__concurrency--><g id="link_logic_arc_int__baselibs__shared_future_comp_arc_sta__baselibs__concurrency"><path codeLine="24" d="M1473.9246,199.4132 C1564.0346,212.8232 1681.92,230.16 1791,245.5 C1863.3,255.67 1943.74,266.54 2010.58,275.46 " fill="transparent" id="logic_arc_int__baselibs__shared_future-backto-comp_arc_sta__baselibs__concurrency" style="stroke:#181818;stroke-width:1;"/><polygon fill="#181818" points="1467.99,198.53,1476.3032,203.8112,1472.9355,199.266,1477.4808,195.8983,1467.99,198.53" style="stroke:#181818;stroke-width:1;"/><text fill="#000000" font-family="sans-serif" font-size="13" lengthAdjust="spacing" textLength="76.9082" x="1792" y="241.5669">implements</text></g><!--link Feature_User to logic_arc_int__baselibs__intrusive_list--><g id="link_Feature_User_logic_arc_int__baselibs__intrusive_list"><path codeLine="25" d="M2984.08,53.28 C3093.36,74.56 3368.5306,128.1431 3518.4706,157.3431 " fill="transparent" id="Feature_User-to-logic_arc_int__baselibs__intrusive_list" style="stroke:#181818;stroke-width:1;"/><polygon fill="#181818" points="3524.36,158.49,3516.2906,152.8434,3519.4522,157.5342,3514.7613,160.6959,3524.36,158.49" style="stroke:#181818;stroke-width:1;"/><text fill="#000000" font-family="sans-serif" font-size="13" lengthAdjust="spacing" textLength="23.0103" x="3363" y="124.5669">use</text></g><!--link Feature_User to logic_arc_int__baselibs__message_passing--><g id="link_Feature_User_logic_arc_int__baselibs__message_passing"><path codeLine="26" d="M2984.18,47.36 C3166.51,59.02 3865.91,104.91 4440,158.5 C4445.85,159.05 4445.8377,159.0336 4451.8477,159.6136 " fill="transparent" id="Feature_User-to-logic_arc_int__baselibs__message_passing" style="stroke:#181818;stroke-width:1;"/><polygon fill="#181818" points="4457.82,160.19,4449.2459,155.344,4452.8431,159.7097,4448.4774,163.307,4457.82,160.19" style="stroke:#181818;stroke-width:1;"/><text fill="#000000" font-family="sans-serif" font-size="13" lengthAdjust="spacing" textLength="23.0103" x="4071" y="124.5669">use</text></g><!--link Feature_User to logic_arc_int__baselibs__memory_shared--><g id="link_Feature_User_logic_arc_int__baselibs__memory_shared"><path codeLine="27" d="M2893.85,45.51 C2694.23,50.14 1870.84,70.82 1196,111.5 C941.38,126.85 877.93,134.36 624,158.5 C618.49,159.02 618.8608,158.9792 613.2008,159.5392 " fill="transparent" id="Feature_User-to-logic_arc_int__baselibs__memory_shared" style="stroke:#181818;stroke-width:1;"/><polygon fill="#181818" points="607.23,160.13,616.5801,163.2244,612.2057,159.6377,615.7924,155.2633,607.23,160.13" style="stroke:#181818;stroke-width:1;"/><text fill="#000000" font-family="sans-serif" font-size="13" lengthAdjust="spacing" textLength="23.0103" x="1197" y="124.5669">use</text></g><!--link Feature_User to logic_arc_int__baselibs__synchronized_queue--><g id="link_Feature_User_logic_arc_int__baselibs__synchronized_queue"><path codeLine="28" d="M2893.96,53.59 C2787.44,75.09 2524.0614,128.2429 2380.0914,157.3029 " fill="transparent" id="Feature_User-to-logic_arc_int__baselibs__synchronized_queue" style="stroke:#181818;stroke-width:1;"/><polygon fill="#181818" points="2374.21,158.49,2383.8235,160.6302,2379.1112,157.5007,2382.2406,152.7884,2374.21,158.49" style="stroke:#181818;stroke-width:1;"/><text fill="#000000" font-family="sans-serif" font-size="13" lengthAdjust="spacing" textLength="23.0103" x="2591" y="124.5669">use</text></g><!--link Feature_User to logic_arc_int__baselibs__result--><g id="link_Feature_User_logic_arc_int__baselibs__result"><path codeLine="29" d="M2893.8,45.98 C2714.39,51.98 2035.17,75.87 1477,111.5 C1221.56,127.81 1157.45,130.71 903,158.5 C897.55,159.09 897.9478,159.0197 892.3278,159.6897 " fill="transparent" id="Feature_User-to-logic_arc_int__baselibs__result" style="stroke:#181818;stroke-width:1;"/><polygon fill="#181818" points="886.37,160.4,895.7802,163.3065,891.3348,159.8081,894.8332,155.3627,886.37,160.4" style="stroke:#181818;stroke-width:1;"/><text fill="#000000" font-family="sans-serif" font-size="13" lengthAdjust="spacing" textLength="23.0103" x="1478" y="124.5669">use</text></g><!--link Feature_User to logic_arc_int__baselibs__shared_future--><g id="link_Feature_User_logic_arc_int__baselibs__shared_future"><path codeLine="30" d="M2893.89,47.45 C2717.08,59.17 2054.22,104.36 1510,158.5 C1504.12,159.08 1504.0976,159.0675 1498.0576,159.6975 " fill="transparent" id="Feature_User-to-logic_arc_int__baselibs__shared_future" style="stroke:#181818;stroke-width:1;"/><polygon fill="#181818" points="1492.09,160.32,1501.4564,163.3647,1497.063,159.8013,1500.6265,155.4079,1492.09,160.32" style="stroke:#181818;stroke-width:1;"/><text fill="#000000" font-family="sans-serif" font-size="13" lengthAdjust="spacing" textLength="23.0103" x="2022" y="124.5669">use</text></g><!--reverse link logic_arc_int__baselibs__intrusive_list to comp_arc_sta__baselibs__containers--><g id="link_logic_arc_int__baselibs__intrusive_list_comp_arc_sta__baselibs__containers"><path codeLine="31" d="M3654.8918,202.1527 C3685.8118,223.4427 3730.39,254.14 3761.24,275.38 " fill="transparent" id="logic_arc_int__baselibs__intrusive_list-backto-comp_arc_sta__baselibs__containers" style="stroke:#181818;stroke-width:1;"/><polygon fill="#181818" points="3649.95,198.75,3655.0943,207.1486,3654.0682,201.5856,3659.6312,200.5595,3649.95,198.75" style="stroke:#181818;stroke-width:1;"/><text fill="#000000" font-family="sans-serif" font-size="13" lengthAdjust="spacing" textLength="76.9082" x="3717" y="241.5669">implements</text></g><!--reverse link logic_arc_int__baselibs__bit_mask_operator to comp_arc_sta__baselibs__bit_manipulation--><g id="link_logic_arc_int__baselibs__bit_mask_operator_comp_arc_sta__baselibs__bit_manipulation"><path codeLine="32" d="M5988.4675,201.9546 C5954.7675,223.2446 5905.87,254.14 5872.26,275.38 " fill="transparent" id="logic_arc_int__baselibs__bit_mask_operator-backto-comp_arc_sta__baselibs__bit_manipulation" style="stroke:#181818;stroke-width:1;"/><polygon fill="#181818" points="5993.54,198.75,5983.7948,200.1752,5989.3129,201.4205,5988.0676,206.9386,5993.54,198.75" style="stroke:#181818;stroke-width:1;"/><text fill="#000000" font-family="sans-serif" font-size="13" lengthAdjust="spacing" textLength="76.9082" x="5945" y="241.5669">implements</text></g><!--reverse link logic_arc_int__baselibs__executor to comp_arc_sta__baselibs__concurrency--><g id="link_logic_arc_int__baselibs__executor_comp_arc_sta__baselibs__concurrency"><path codeLine="33" d="M2811.1709,199.4899 C2724.6709,212.9099 2611.73,230.21 2507,245.5 C2437.09,255.71 2359.3,266.58 2294.67,275.49 " fill="transparent" id="logic_arc_int__baselibs__executor-backto-comp_arc_sta__baselibs__concurrency" style="stroke:#181818;stroke-width:1;"/><polygon fill="#181818" points="2817.1,198.57,2807.5932,195.9971,2812.1591,199.3366,2808.8196,203.9025,2817.1,198.57" style="stroke:#181818;stroke-width:1;"/><text fill="#000000" font-family="sans-serif" font-size="13" lengthAdjust="spacing" textLength="76.9082" x="2615" y="241.5669">implements</text></g><!--reverse link logic_arc_int__baselibs__message_passing to comp_arc_sta__baselibs__message_passing--><g id="link_logic_arc_int__baselibs__message_passing_comp_arc_sta__baselibs__message_passing"><path codeLine="34" d="M4622.879,204.7464 C4623.619,225.9764 4624.59,253.94 4625.33,275.19 " fill="transparent" id="logic_arc_int__baselibs__message_passing-backto-comp_arc_sta__baselibs__message_passing" style="stroke:#181818;stroke-width:1;"/><polygon fill="#181818" points="4622.67,198.75,4618.9859,207.8839,4622.8442,203.747,4626.9811,207.6052,4622.67,198.75" style="stroke:#181818;stroke-width:1;"/><text fill="#000000" font-family="sans-serif" font-size="13" lengthAdjust="spacing" textLength="76.9082" x="4626" y="241.5669">implements</text></g><!--reverse link logic_arc_int__baselibs__synchronized_queue to comp_arc_sta__baselibs__concurrency--><g id="link_logic_arc_int__baselibs__synchronized_queue_comp_arc_sta__baselibs__concurrency"><path codeLine="35" d="M2254.6641,202.812 C2231.5841,224.042 2199.09,253.94 2175.99,275.19 " fill="transparent" id="logic_arc_int__baselibs__synchronized_queue-backto-comp_arc_sta__baselibs__concurrency" style="stroke:#181818;stroke-width:1;"/><polygon fill="#181818" points="2259.08,198.75,2249.7481,201.899,2255.4001,202.135,2255.1641,207.7869,2259.08,198.75" style="stroke:#181818;stroke-width:1;"/><text fill="#000000" font-family="sans-serif" font-size="13" lengthAdjust="spacing" textLength="76.9082" x="2226" y="241.5669">implements</text></g><!--link Feature_User to logic_arc_int__baselibs__json--><g id="link_Feature_User_logic_arc_int__baselibs__json"><path codeLine="36" d="M2893.96,45.36 C2676.48,49.63 1713.25,70.08 925,111.5 C633.99,126.79 560.83,128.17 271,158.5 C264.02,159.23 262.818,159.3313 255.588,160.1913 " fill="transparent" id="Feature_User-to-logic_arc_int__baselibs__json" style="stroke:#181818;stroke-width:1;"/><polygon fill="#181818" points="249.63,160.9,259.0395,163.809,254.595,160.3094,258.0945,155.865,249.63,160.9" style="stroke:#181818;stroke-width:1;"/><text fill="#000000" font-family="sans-serif" font-size="13" lengthAdjust="spacing" textLength="23.0103" x="926" y="124.5669">use</text></g><!--reverse link logic_arc_int__baselibs__filesystem to comp_arc_sta__baselibs__filesystem--><g id="link_logic_arc_int__baselibs__filesystem_comp_arc_sta__baselibs__filesystem"><path codeLine="37" d="M4283.9002,204.7444 C4282.9802,225.9744 4281.76,253.94 4280.84,275.19 " fill="transparent" id="logic_arc_int__baselibs__filesystem-backto-comp_arc_sta__baselibs__filesystem" style="stroke:#181818;stroke-width:1;"/><polygon fill="#181818" points="4284.16,198.75,4279.7741,207.5684,4283.9435,203.7453,4287.7666,207.9147,4284.16,198.75" style="stroke:#181818;stroke-width:1;"/><text fill="#000000" font-family="sans-serif" font-size="13" lengthAdjust="spacing" textLength="76.9082" x="4284" y="241.5669">implements</text></g><!--link Feature_User to logic_arc_int__baselibs__filesystem--><g id="link_Feature_User_logic_arc_int__baselibs__filesystem"><path codeLine="38" d="M2984.16,48.41 C3141.93,62.14 3683.08,109.99 4129,158.5 C4134.83,159.13 4134.8179,159.1265 4140.8379,159.8065 " fill="transparent" id="Feature_User-to-logic_arc_int__baselibs__filesystem" style="stroke:#181818;stroke-width:1;"/><polygon fill="#181818" points="4146.8,160.48,4138.3058,155.4951,4141.8316,159.9188,4137.4079,163.4445,4146.8,160.48" style="stroke:#181818;stroke-width:1;"/><text fill="#000000" font-family="sans-serif" font-size="13" lengthAdjust="spacing" textLength="23.0103" x="3837" y="124.5669">use</text></g><!--reverse link logic_arc_int__baselibs__utils_base64 to comp_arc_sta__baselibs__utils--><g id="link_logic_arc_int__baselibs__utils_base64_comp_arc_sta__baselibs__utils"><path codeLine="39" d="M4990.4926,202.9926 C5011.7226,224.2226 5041.44,253.94 5062.69,275.19 " fill="transparent" id="logic_arc_int__baselibs__utils_base64-backto-comp_arc_sta__baselibs__utils" style="stroke:#181818;stroke-width:1;"/><polygon fill="#181818" points="4986.25,198.75,4989.7855,207.9424,4989.7855,202.2855,4995.4424,202.2855,4986.25,198.75" style="stroke:#181818;stroke-width:1;"/><text fill="#000000" font-family="sans-serif" font-size="13" lengthAdjust="spacing" textLength="76.9082" x="5033" y="241.5669">implements</text></g><!--link Feature_User to logic_arc_int__baselibs__utils_scoped_op--><g id="link_Feature_User_logic_arc_int__baselibs__utils_scoped_op"><path codeLine="40" d="M2984.12,46.17 C3165.48,52.94 3858.93,79.58 4429,111.5 C4740.77,128.96 4818.93,131.29 5130,158.5 C5135.97,159.02 5136.0757,159.0254 5142.2157,159.5954 " fill="transparent" id="Feature_User-to-logic_arc_int__baselibs__utils_scoped_op" style="stroke:#181818;stroke-width:1;"/><polygon fill="#181818" points="5148.19,160.15,5139.5983,155.3352,5143.2114,159.6878,5138.8588,163.3009,5148.19,160.15" style="stroke:#181818;stroke-width:1;"/><text fill="#000000" font-family="sans-serif" font-size="13" lengthAdjust="spacing" textLength="23.0103" x="4734" y="124.5669">use</text></g><!--reverse link logic_arc_int__baselibs__condition_variable to comp_arc_sta__baselibs__concurrency--><g id="link_logic_arc_int__baselibs__condition_variable_comp_arc_sta__baselibs__concurrency"><path codeLine="41" d="M3111.9324,199.2221 C2996.5624,213.0121 2841.57,231 2700,245.5 C2566.63,259.16 2414.68,272.65 2305.17,282.01 " fill="transparent" id="logic_arc_int__baselibs__condition_variable-backto-comp_arc_sta__baselibs__concurrency" style="stroke:#181818;stroke-width:1;"/><polygon fill="#181818" points="3117.89,198.51,3108.4789,195.6064,3112.9253,199.1034,3109.4283,203.5499,3117.89,198.51" style="stroke:#181818;stroke-width:1;"/><text fill="#000000" font-family="sans-serif" font-size="13" lengthAdjust="spacing" textLength="76.9082" x="2859" y="241.5669">implements</text></g><!--reverse link logic_arc_int__baselibs__result to comp_arc_sta__baselibs__result--><g id="link_logic_arc_int__baselibs__result_comp_arc_sta__baselibs__result"><path codeLine="42" d="M765.9777,204.7317 C767.6377,225.9617 769.83,253.94 771.49,275.19 " fill="transparent" id="logic_arc_int__baselibs__result-backto-comp_arc_sta__baselibs__result" style="stroke:#181818;stroke-width:1;"/><polygon fill="#181818" points="765.51,198.75,762.2238,208.0344,765.8998,203.7348,770.1994,207.4108,765.51,198.75" style="stroke:#181818;stroke-width:1;"/><text fill="#000000" font-family="sans-serif" font-size="13" lengthAdjust="spacing" textLength="76.9082" x="771" y="241.5669">implements</text></g><!--reverse link logic_arc_int__baselibs__task_result to comp_arc_sta__baselibs__concurrency--><g id="link_logic_arc_int__baselibs__task_result_comp_arc_sta__baselibs__concurrency"><path codeLine="43" d="M2545.4685,199.9619 C2457.5385,221.2519 2321.85,254.11 2233.86,275.41 " fill="transparent" id="logic_arc_int__baselibs__task_result-backto-comp_arc_sta__baselibs__concurrency" style="stroke:#181818;stroke-width:1;"/><polygon fill="#181818" points="2551.3,198.55,2541.6114,196.7803,2546.4404,199.7266,2543.494,204.5556,2551.3,198.55" style="stroke:#181818;stroke-width:1;"/><text fill="#000000" font-family="sans-serif" font-size="13" lengthAdjust="spacing" textLength="76.9082" x="2422" y="241.5669">implements</text></g><!--link Feature_User to logic_arc_int__baselibs__task_result--><g id="link_Feature_User_logic_arc_int__baselibs__task_result"><path codeLine="44" d="M2893.74,63.98 C2834.9,89.31 2738.2911,130.8876 2679.8911,156.0276 " fill="transparent" id="Feature_User-to-logic_arc_int__baselibs__task_result" style="stroke:#181818;stroke-width:1;"/><polygon fill="#181818" points="2674.38,158.4,2684.2282,158.5154,2678.9725,156.423,2681.065,151.1674,2674.38,158.4" style="stroke:#181818;stroke-width:1;"/><text fill="#000000" font-family="sans-serif" font-size="13" lengthAdjust="spacing" textLength="23.0103" x="2777" y="124.5669">use</text></g><!--reverse link logic_arc_int__baselibs__dynamic_array to comp_arc_sta__baselibs__containers--><g id="link_logic_arc_int__baselibs__dynamic_array_comp_arc_sta__baselibs__containers"><path codeLine="45" d="M3924.7494,202.1252 C3893.4594,223.4152 3848.31,254.14 3817.1,275.38 " fill="transparent" id="logic_arc_int__baselibs__dynamic_array-backto-comp_arc_sta__baselibs__containers" style="stroke:#181818;stroke-width:1;"/><polygon fill="#181818" points="3929.71,198.75,3920.0189,200.5058,3925.5762,201.5627,3924.5192,207.1199,3929.71,198.75" style="stroke:#181818;stroke-width:1;"/><text fill="#000000" font-family="sans-serif" font-size="13" lengthAdjust="spacing" textLength="76.9082" x="3885" y="241.5669">implements</text></g><!--link Feature_User to logic_arc_int__baselibs__executor--><g id="link_Feature_User_logic_arc_int__baselibs__executor"><path codeLine="46" d="M2939,81.55 C2939,106.45 2939,132.26 2939,152.26 " fill="transparent" id="Feature_User-to-logic_arc_int__baselibs__executor" style="stroke:#181818;stroke-width:1;"/><polygon fill="#181818" points="2939,158.26,2943,149.26,2939,153.26,2935,149.26,2939,158.26" style="stroke:#181818;stroke-width:1;"/><text fill="#000000" font-family="sans-serif" font-size="13" lengthAdjust="spacing" textLength="23.0103" x="2940" y="124.5669">use</text></g><!--reverse link logic_arc_int__baselibs__task to comp_arc_sta__baselibs__concurrency--><g id="link_logic_arc_int__baselibs__task_comp_arc_sta__baselibs__concurrency"><path codeLine="47" d="M1161.208,197.1182 C1166.868,197.8682 1166.52,197.81 1172,198.5 C1359.22,222.19 1406.21,226.84 1594,245.5 C1733.12,259.32 1891.87,272.99 2004.9,282.37 " fill="transparent" id="logic_arc_int__baselibs__task-backto-comp_arc_sta__baselibs__concurrency" style="stroke:#181818;stroke-width:1;"/><polygon fill="#181818" points="1155.26,196.33,1163.6566,201.4776,1160.2167,196.9868,1164.7075,193.5469,1155.26,196.33" style="stroke:#181818;stroke-width:1;"/><text fill="#000000" font-family="sans-serif" font-size="13" lengthAdjust="spacing" textLength="76.9082" x="1595" y="241.5669">implements</text></g><!--reverse link logic_arc_int__baselibs__future to comp_arc_sta__baselibs__concurrency--><g id="link_logic_arc_int__baselibs__future_comp_arc_sta__baselibs__concurrency"><path codeLine="48" d="M1987.0613,201.6524 C2025.5813,222.9424 2082,254.14 2120.42,275.38 " fill="transparent" id="logic_arc_int__baselibs__future-backto-comp_arc_sta__baselibs__concurrency" style="stroke:#181818;stroke-width:1;"/><polygon fill="#181818" points="1981.81,198.75,1987.752,206.6045,1986.1861,201.1687,1991.6219,199.6027,1981.81,198.75" style="stroke:#181818;stroke-width:1;"/><text fill="#000000" font-family="sans-serif" font-size="13" lengthAdjust="spacing" textLength="76.9082" x="2065" y="241.5669">implements</text></g><!--link Feature_User to logic_arc_int__baselibs__bit_mask_operator--><g id="link_Feature_User_logic_arc_int__baselibs__bit_mask_operator"><path codeLine="49" d="M2984.08,45.33 C3211.47,49.64 4255.31,70.81 5109,111.5 C5433.3,126.96 5514.45,131.55 5838,158.5 C5843.98,159 5844.1039,158.9855 5850.2539,159.5355 " fill="transparent" id="Feature_User-to-logic_arc_int__baselibs__bit_mask_operator" style="stroke:#181818;stroke-width:1;"/><polygon fill="#181818" points="5856.23,160.07,5847.6221,155.2842,5851.2499,159.6246,5846.9095,163.2524,5856.23,160.07" style="stroke:#181818;stroke-width:1;"/><text fill="#000000" font-family="sans-serif" font-size="13" lengthAdjust="spacing" textLength="23.0103" x="5439" y="124.5669">use</text></g><!--reverse link logic_arc_int__baselibs__memory_shared to comp_arc_sta__baselibs__memory_shared--><g id="link_logic_arc_int__baselibs__memory_shared_comp_arc_sta__baselibs__memory_shared"><path codeLine="50" d="M448,204.75 C448,225.98 448,253.94 448,275.19 " fill="transparent" id="logic_arc_int__baselibs__memory_shared-backto-comp_arc_sta__baselibs__memory_shared" style="stroke:#181818;stroke-width:1;"/><polygon fill="#181818" points="448,198.75,444,207.75,448,203.75,452,207.75,448,198.75" style="stroke:#181818;stroke-width:1;"/><text fill="#000000" font-family="sans-serif" font-size="13" lengthAdjust="spacing" textLength="76.9082" x="449" y="241.5669">implements</text></g><!--reverse link logic_arc_int__baselibs__json to comp_arc_sta__baselibs__json--><g id="link_logic_arc_int__baselibs__json_comp_arc_sta__baselibs__json"><path codeLine="51" d="M131.9002,204.7444 C130.9802,225.9744 129.76,253.94 128.84,275.19 " fill="transparent" id="logic_arc_int__baselibs__json-backto-comp_arc_sta__baselibs__json" style="stroke:#181818;stroke-width:1;"/><polygon fill="#181818" points="132.16,198.75,127.7741,207.5684,131.9435,203.7453,135.7666,207.9147,132.16,198.75" style="stroke:#181818;stroke-width:1;"/><text fill="#000000" font-family="sans-serif" font-size="13" lengthAdjust="spacing" textLength="76.9082" x="132" y="241.5669">implements</text></g><!--link Feature_User to logic_arc_int__baselibs__dynamic_array--><g id="link_Feature_User_logic_arc_int__baselibs__dynamic_array"><path codeLine="52" d="M2984.1,50.39 C3127.48,69.1 3571.2305,127.0134 3806.0305,157.6634 " fill="transparent" id="Feature_User-to-logic_arc_int__baselibs__dynamic_array" style="stroke:#181818;stroke-width:1;"/><polygon fill="#181818" points="3811.98,158.44,3803.5735,153.3087,3807.0221,157.7928,3802.538,161.2414,3811.98,158.44" style="stroke:#181818;stroke-width:1;"/><text fill="#000000" font-family="sans-serif" font-size="13" lengthAdjust="spacing" textLength="23.0103" x="3571" y="124.5669">use</text></g><!--SRC=[hLNBRXin3BphAuJSdHP5qKCHv5AWfnpRiy3LCZPhFROYbMPRzD-hjHqdTctlmtkprkI88v8pu5pyPJmzKrWgYOsMgAie4hskAQ4LYa6jg4RDWWcZj0rkp-WRQJM89Ago8AixbjRXlRe59bVfF-g10dw9BYQTiDwSlgt8hWCowm-txzLVTVTkbwF0Iecx-OeWEQ7-pfXkDB3UVJ3T1wqEJejwSQzTN98raAoX8CPKmEYeulABn7W8r6G77OdFEZDgfMpqpIQU1Ix5wqKU1q- -SUWn2EkpbsGXnpt8cnZ3DZPOczWS0ezuW2rET_xqSKT-H7QJeYV6NU8vFZO6crF2ODiULdkyYMpAJJLr3ssU815K3iTpUinTvFWy0LxFzX2yWh8D-recFaSvfipqXCOHotXAlkmWBD4qm5msVmg0ZwdTiHcVpcsmgnG3_IvlyJDZdj2MX9pT1Ev77UZhgq0HhjItjSSD6Q86aoI7rqKKC46Hos6t31zDV4QR1-CUZL0Fzdy3Ds_ff-PfuchzuBrPdAlhaHnoMmpHzvJr6ZYvdBSG5uiQxYqldd2LiRmng9cKyPJ43vcIhGxqWB-8nRnZrpd3IUYHxdAePLUBKTq6y9k_4hIJ2tkLWvaQlFNHUJjmfO-UqDIBP0zihrVo3Yno2EzEUtfGj_8qaUxHO6oe_WC0]--></g></svg>