<svg xmlns="http://www.w3.org/2000/svg" xmlns:xlink="http://www.w3.org/1999/xlink" contentStyleType="text/css" data-diagram-type="CLASS" height="322px" preserveAspectRatio="none" style="width:6200px;height:322px;background:#FFFFFF;" version="1.1" viewBox="0 0 6200 322" width="6200px" zoomAndPan="magnify"><defs/><g><!--entity Feature_User--><g id="elem_Feature_User"><ellipse cx="3030.6685" cy="14" fill="#F1F1F1" rx="8" ry="8" style="stroke:#181818;stroke-width:0.5;"/><path d="M3030.6685,22 L3030.6685,49 M3017.6685,30 L3043.6685,30 M3030.6685,49 L3017.6685,64 M3030.6685,49 L3043.6685,64 " fill="transparent" style="stroke:#181818;stroke-width:0.5;"/><text fill="#000000" font-family="sans-serif" font-size="14" lengthAdjust="spacing" textLength="90.3369" x="2985.5" y="78.4951">Feature User</text></g><!--class logic_arc_int__baselibs__message_passing--><g id="elem_logic_arc_int__baselibs__message_passing"><rect fill="#F1F1F1" height="40" id="logic_arc_int__baselibs__message_passing" rx="2.5" ry="2.5" style="stroke:#181818;stroke-width:0.5;" width="328.167" x="3548.5" y="158.5"/><ellipse cx="3563.5" cy="174.5" fill="#ADD1B2" rx="11" ry="11" style="stroke:#181818;stroke-width:1;"/><path d="M3566.4688,180.1406 Q3565.8906,180.4375 3565.25,180.5781 Q3564.6094,180.7344 3563.9063,180.7344 Q3561.4063,180.7344 3560.0781,179.0938 Q3558.7656,177.4375 3558.7656,174.3125 Q3558.7656,171.1875 3560.0781,169.5313 Q3561.4063,167.875 3563.9063,167.875 Q3564.6094,167.875 3565.25,168.0313 Q3565.9063,168.1875 3566.4688,168.4844 L3566.4688,171.2031 Q3565.8438,170.625 3565.25,170.3594 Q3564.6563,170.0781 3564.0313,170.0781 Q3562.6875,170.0781 3562,171.1563 Q3561.3125,172.2188 3561.3125,174.3125 Q3561.3125,176.4063 3562,177.4844 Q3562.6875,178.5469 3564.0313,178.5469 Q3564.6563,178.5469 3565.25,178.2813 Q3565.8438,178 3566.4688,177.4219 L3566.4688,180.1406 Z " fill="#000000"/><text fill="#000000" font-family="sans-serif" font-size="14" lengthAdjust="spacing" textLength="296.167" x="3577.5" y="179.3467">logic_arc_int__baselibs__message_passing</text><line style="stroke:#181818;stroke-width:0.5;" x1="3549.5" x2="3875.667" y1="190.5" y2="190.5"/></g><!--class comp_arc_sta__baselibs__json--><g id="elem_comp_arc_sta__baselibs__json"><rect fill="#F1F1F1" height="40" id="comp_arc_sta__baselibs__json" rx="2.5" ry="2.5" style="stroke:#181818;stroke-width:0.5;" width="242.1367" x="5951.5" y="275.5"/><ellipse cx="5966.5" cy="291.5" fill="#ADD1B2" rx="11" ry="11" style="stroke:#181818;stroke-width:1;"/><path d="M5969.4688,297.1406 Q5968.8906,297.4375 5968.25,297.5781 Q5967.6094,297.7344 5966.9063,297.7344 Q5964.4063,297.7344 5963.0781,296.0938 Q5961.7656,294.4375 5961.7656,291.3125 Q5961.7656,288.1875 5963.0781,286.5313 Q5964.4063,284.875 5966.9063,284.875 Q5967.6094,284.875 5968.25,285.0313 Q5968.9063,285.1875 5969.4688,285.4844 L5969.4688,288.2031 Q5968.8438,287.625 5968.25,287.3594 Q5967.6563,287.0781 5967.0313,287.0781 Q5965.6875,287.0781 5965,288.1563 Q5964.3125,289.2188 5964.3125,291.3125 Q5964.3125,293.4063 5965,294.4844 Q5965.6875,295.5469 5967.0313,295.5469 Q5967.6563,295.5469 5968.25,295.2813 Q5968.8438,295 5969.4688,294.4219 L5969.4688,297.1406 Z " fill="#000000"/><text fill="#000000" font-family="sans-serif" font-size="14" lengthAdjust="spacing" textLength="210.1367" x="5980.5" y="296.3467">comp_arc_sta__baselibs__json</text><line style="stroke:#181818;stroke-width:0.5;" x1="5952.5" x2="6192.6367" y1="307.5" y2="307.5"/></g><!--class logic_arc_int__baselibs__json--><g id="elem_logic_arc_int__baselibs__json"><rect fill="#F1F1F1" height="40" id="logic_arc_int__baselibs__json" rx="2.5" ry="2.5" style="stroke:#181818;stroke-width:0.5;" width="233.168" x="5954" y="158.5"/><ellipse cx="5969" cy="174.5" fill="#ADD1B2" rx="11" ry="11" style="stroke:#181818;stroke-width:1;"/><path d="M5971.9688,180.1406 Q5971.3906,180.4375 5970.75,180.5781 Q5970.1094,180.7344 5969.4063,180.7344 Q5966.9063,180.7344 5965.5781,179.0938 Q5964.2656,177.4375 5964.2656,174.3125 Q5964.2656,171.1875 5965.5781,169.5313 Q5966.9063,167.875 5969.4063,167.875 Q5970.1094,167.875 5970.75,168.0313 Q5971.4063,168.1875 5971.9688,168.4844 L5971.9688,171.2031 Q5971.3438,170.625 5970.75,170.3594 Q5970.1563,170.0781 5969.5313,170.0781 Q5968.1875,170.0781 5967.5,171.1563 Q5966.8125,172.2188 5966.8125,174.3125 Q5966.8125,176.4063 5967.5,177.4844 Q5968.1875,178.5469 5969.5313,178.5469 Q5970.1563,178.5469 5970.75,178.2813 Q5971.3438,178 5971.9688,177.4219 L5971.9688,180.1406 Z " fill="#000000"/><text fill="#000000" font-family="sans-serif" font-size="14" lengthAdjust="spacing" textLength="201.168" x="5983" y="179.3467">logic_arc_int__baselibs__json</text><line style="stroke:#181818;stroke-width:0.5;" x1="5955" x2="6186.168" y1="190.5" y2="190.5"/></g><!--class comp_arc_sta__baselibs__bit_manipulation--><g id="elem_comp_arc_sta__baselibs__bit_manipulation"><rect fill="#F1F1F1" height="40" id="comp_arc_sta__baselibs__bit_manipulation" rx="2.5" ry="2.5" style="stroke:#181818;stroke-width:0.5;" width="330.8057" x="5119" y="275.5"/><ellipse cx="5134" cy="291.5" fill="#ADD1B2" rx="11" ry="11" style="stroke:#181818;stroke-width:1;"/><path d="M5136.9688,297.1406 Q5136.3906,297.4375 5135.75,297.5781 Q5135.1094,297.7344 5134.4063,297.7344 Q5131.9063,297.7344 5130.5781,296.0938 Q5129.2656,294.4375 5129.2656,291.3125 Q5129.2656,288.1875 5130.5781,286.5313 Q5131.9063,284.875 5134.4063,284.875 Q5135.1094,284.875 5135.75,285.0313 Q5136.4063,285.1875 5136.9688,285.4844 L5136.9688,288.2031 Q5136.3438,287.625 5135.75,287.3594 Q5135.1563,287.0781 5134.5313,287.0781 Q5133.1875,287.0781 5132.5,288.1563 Q5131.8125,289.2188 5131.8125,291.3125 Q5131.8125,293.4063 5132.5,294.4844 Q5133.1875,295.5469 5134.5313,295.5469 Q5135.1563,295.5469 5135.75,295.2813 Q5136.3438,295 5136.9688,294.4219 L5136.9688,297.1406 Z " fill="#000000"/><text fill="#000000" font-family="sans-serif" font-size="14" lengthAdjust="spacing" textLength="298.8057" x="5148" y="296.3467">comp_arc_sta__baselibs__bit_manipulation</text><line style="stroke:#181818;stroke-width:0.5;" x1="5120" x2="5448.8057" y1="307.5" y2="307.5"/></g><!--class logic_arc_int__baselibs__bit_mask_operator--><g id="elem_logic_arc_int__baselibs__bit_mask_operator"><rect fill="#F1F1F1" height="40" id="logic_arc_int__baselibs__bit_mask_operator" rx="2.5" ry="2.5" style="stroke:#181818;stroke-width:0.5;" width="334.6406" x="5300" y="158.5"/><ellipse cx="5315" cy="174.5" fill="#ADD1B2" rx="11" ry="11" style="stroke:#181818;stroke-width:1;"/><path d="M5317.9688,180.1406 Q5317.3906,180.4375 5316.75,180.5781 Q5316.1094,180.7344 5315.4063,180.7344 Q5312.9063,180.7344 5311.5781,179.0938 Q5310.2656,177.4375 5310.2656,174.3125 Q5310.2656,171.1875 5311.5781,169.5313 Q5312.9063,167.875 5315.4063,167.875 Q5316.1094,167.875 5316.75,168.0313 Q5317.4063,168.1875 5317.9688,168.4844 L5317.9688,171.2031 Q5317.3438,170.625 5316.75,170.3594 Q5316.1563,170.0781 5315.5313,170.0781 Q5314.1875,170.0781 5313.5,171.1563 Q5312.8125,172.2188 5312.8125,174.3125 Q5312.8125,176.4063 5313.5,177.4844 Q5314.1875,178.5469 5315.5313,178.5469 Q5316.1563,178.5469 5316.75,178.2813 Q5317.3438,178 5317.9688,177.4219 L5317.9688,180.1406 Z " fill="#000000"/><text fill="#000000" font-family="sans-serif" font-size="14" lengthAdjust="spacing" textLength="302.6406" x="5329" y="179.3467">logic_arc_int__baselibs__bit_mask_operator</text><line style="stroke:#181818;stroke-width:0.5;" x1="5301" x2="5633.6406" y1="190.5" y2="190.5"/></g><!--class comp_arc_sta__baselibs__containers--><g id="elem_comp_arc_sta__baselibs__containers"><rect fill="#F1F1F1" height="40" id="comp_arc_sta__baselibs__containers" rx="2.5" ry="2.5" style="stroke:#181818;stroke-width:0.5;" width="287.1445" x="3054" y="275.5"/><ellipse cx="3069" cy="291.5" fill="#ADD1B2" rx="11" ry="11" style="stroke:#181818;stroke-width:1;"/><path d="M3071.9688,297.1406 Q3071.3906,297.4375 3070.75,297.5781 Q3070.1094,297.7344 3069.4063,297.7344 Q3066.9063,297.7344 3065.5781,296.0938 Q3064.2656,294.4375 3064.2656,291.3125 Q3064.2656,288.1875 3065.5781,286.5313 Q3066.9063,284.875 3069.4063,284.875 Q3070.1094,284.875 3070.75,285.0313 Q3071.4063,285.1875 3071.9688,285.4844 L3071.9688,288.2031 Q3071.3438,287.625 3070.75,287.3594 Q3070.1563,287.0781 3069.5313,287.0781 Q3068.1875,287.0781 3067.5,288.1563 Q3066.8125,289.2188 3066.8125,291.3125 Q3066.8125,293.4063 3067.5,294.4844 Q3068.1875,295.5469 3069.5313,295.5469 Q3070.1563,295.5469 3070.75,295.2813 Q3071.3438,295 3071.9688,294.4219 L3071.9688,297.1406 Z " fill="#000000"/><text fill="#000000" font-family="sans-serif" font-size="14" lengthAdjust="spacing" textLength="255.1445" x="3083" y="296.3467">comp_arc_sta__baselibs__containers</text><line style="stroke:#181818;stroke-width:0.5;" x1="3055" x2="3340.1445" y1="307.5" y2="307.5"/></g><!--class logic_arc_int__baselibs__dynamic_array--><g id="elem_logic_arc_int__baselibs__dynamic_array"><rect fill="#F1F1F1" height="40" id="logic_arc_int__baselibs__dynamic_array" rx="2.5" ry="2.5" style="stroke:#181818;stroke-width:0.5;" width="308.3496" x="2876.5" y="158.5"/><ellipse cx="2891.5" cy="174.5" fill="#ADD1B2" rx="11" ry="11" style="stroke:#181818;stroke-width:1;"/><path d="M2894.4688,180.1406 Q2893.8906,180.4375 2893.25,180.5781 Q2892.6094,180.7344 2891.9063,180.7344 Q2889.4063,180.7344 2888.0781,179.0938 Q2886.7656,177.4375 2886.7656,174.3125 Q2886.7656,171.1875 2888.0781,169.5313 Q2889.4063,167.875 2891.9063,167.875 Q2892.6094,167.875 2893.25,168.0313 Q2893.9063,168.1875 2894.4688,168.4844 L2894.4688,171.2031 Q2893.8438,170.625 2893.25,170.3594 Q2892.6563,170.0781 2892.0313,170.0781 Q2890.6875,170.0781 2890,171.1563 Q2889.3125,172.2188 2889.3125,174.3125 Q2889.3125,176.4063 2890,177.4844 Q2890.6875,178.5469 2892.0313,178.5469 Q2892.6563,178.5469 2893.25,178.2813 Q2893.8438,178 2894.4688,177.4219 L2894.4688,180.1406 Z " fill="#000000"/><text fill="#000000" font-family="sans-serif" font-size="14" lengthAdjust="spacing" textLength="276.3496" x="2905.5" y="179.3467">logic_arc_int__baselibs__dynamic_array</text><line style="stroke:#181818;stroke-width:0.5;" x1="2877.5" x2="3183.8496" y1="190.5" y2="190.5"/></g><!--class comp_arc_sta__baselibs__result--><g id="elem_comp_arc_sta__baselibs__result"><rect fill="#F1F1F1" height="40" id="comp_arc_sta__baselibs__result" rx="2.5" ry="2.5" style="stroke:#181818;stroke-width:0.5;" width="253.4297" x="5663" y="275.5"/><ellipse cx="5678" cy="291.5" fill="#ADD1B2" rx="11" ry="11" style="stroke:#181818;stroke-width:1;"/><path d="M5680.9688,297.1406 Q5680.3906,297.4375 5679.75,297.5781 Q5679.1094,297.7344 5678.4063,297.7344 Q5675.9063,297.7344 5674.5781,296.0938 Q5673.2656,294.4375 5673.2656,291.3125 Q5673.2656,288.1875 5674.5781,286.5313 Q5675.9063,284.875 5678.4063,284.875 Q5679.1094,284.875 5679.75,285.0313 Q5680.4063,285.1875 5680.9688,285.4844 L5680.9688,288.2031 Q5680.3438,287.625 5679.75,287.3594 Q5679.1563,287.0781 5678.5313,287.0781 Q5677.1875,287.0781 5676.5,288.1563 Q5675.8125,289.2188 5675.8125,291.3125 Q5675.8125,293.4063 5676.5,294.4844 Q5677.1875,295.5469 5678.5313,295.5469 Q5679.1563,295.5469 5679.75,295.2813 Q5680.3438,295 5680.9688,294.4219 L5680.9688,297.1406 Z " fill="#000000"/><text fill="#000000" font-family="sans-serif" font-size="14" lengthAdjust="spacing" textLength="221.4297" x="5692" y="296.3467">comp_arc_sta__baselibs__result</text><line style="stroke:#181818;stroke-width:0.5;" x1="5664" x2="5915.4297" y1="307.5" y2="307.5"/></g><!--class logic_arc_int__baselibs__result--><g id="elem_logic_arc_int__baselibs__result"><rect fill="#F1F1F1" height="40" id="logic_arc_int__baselibs__result" rx="2.5" ry="2.5" style="stroke:#181818;stroke-width:0.5;" width="244.4609" x="5670.5" y="158.5"/><ellipse cx="5685.5" cy="174.5" fill="#ADD1B2" rx="11" ry="11" style="stroke:#181818;stroke-width:1;"/><path d="M5688.4688,180.1406 Q5687.8906,180.4375 5687.25,180.5781 Q5686.6094,180.7344 5685.9063,180.7344 Q5683.4063,180.7344 5682.0781,179.0938 Q5680.7656,177.4375 5680.7656,174.3125 Q5680.7656,171.1875 5682.0781,169.5313 Q5683.4063,167.875 5685.9063,167.875 Q5686.6094,167.875 5687.25,168.0313 Q5687.9063,168.1875 5688.4688,168.4844 L5688.4688,171.2031 Q5687.8438,170.625 5687.25,170.3594 Q5686.6563,170.0781 5686.0313,170.0781 Q5684.6875,170.0781 5684,171.1563 Q5683.3125,172.2188 5683.3125,174.3125 Q5683.3125,176.4063 5684,177.4844 Q5684.6875,178.5469 5686.0313,178.5469 Q5686.6563,178.5469 5687.25,178.2813 Q5687.8438,178 5688.4688,177.4219 L5688.4688,180.1406 Z " fill="#000000"/><text fill="#000000" font-family="sans-serif" font-size="14" lengthAdjust="spacing" textLength="212.4609" x="5699.5" y="179.3467">logic_arc_int__baselibs__result</text><line style="stroke:#181818;stroke-width:0.5;" x1="5671.5" x2="5913.9609" y1="190.5" y2="190.5"/></g><!--class comp_arc_sta__baselibs__concurrency--><g id="elem_comp_arc_sta__baselibs__concurrency"><rect fill="#F1F1F1" height="40" id="comp_arc_sta__baselibs__concurrency" rx="2.5" ry="2.5" style="stroke:#181818;stroke-width:0.5;" width="300.2012" x="1424.5" y="275.5"/><ellipse cx="1439.5" cy="291.5" fill="#ADD1B2" rx="11" ry="11" style="stroke:#181818;stroke-width:1;"/><path d="M1442.4688,297.1406 Q1441.8906,297.4375 1441.25,297.5781 Q1440.6094,297.7344 1439.9063,297.7344 Q1437.4063,297.7344 1436.0781,296.0938 Q1434.7656,294.4375 1434.7656,291.3125 Q1434.7656,288.1875 1436.0781,286.5313 Q1437.4063,284.875 1439.9063,284.875 Q1440.6094,284.875 1441.25,285.0313 Q1441.9063,285.1875 1442.4688,285.4844 L1442.4688,288.2031 Q1441.8438,287.625 1441.25,287.3594 Q1440.6563,287.0781 1440.0313,287.0781 Q1438.6875,287.0781 1438,288.1563 Q1437.3125,289.2188 1437.3125,291.3125 Q1437.3125,293.4063 1438,294.4844 Q1438.6875,295.5469 1440.0313,295.5469 Q1440.6563,295.5469 1441.25,295.2813 Q1441.8438,295 1442.4688,294.4219 L1442.4688,297.1406 Z " fill="#000000"/><text fill="#000000" font-family="sans-serif" font-size="14" lengthAdjust="spacing" textLength="268.2012" x="1453.5" y="296.3467">comp_arc_sta__baselibs__concurrency</text><line style="stroke:#181818;stroke-width:0.5;" x1="1425.5" x2="1723.7012" y1="307.5" y2="307.5"/></g><!--class logic_arc_int__baselibs__future--><g id="elem_logic_arc_int__baselibs__future"><rect fill="#F1F1F1" height="40" id="logic_arc_int__baselibs__future" rx="2.5" ry="2.5" style="stroke:#181818;stroke-width:0.5;" width="247.0791" x="1007" y="158.5"/><ellipse cx="1022" cy="174.5" fill="#ADD1B2" rx="11" ry="11" style="stroke:#181818;stroke-width:1;"/><path d="M1024.9688,180.1406 Q1024.3906,180.4375 1023.75,180.5781 Q1023.1094,180.7344 1022.4063,180.7344 Q1019.9063,180.7344 1018.5781,179.0938 Q1017.2656,177.4375 1017.2656,174.3125 Q1017.2656,171.1875 1018.5781,169.5313 Q1019.9063,167.875 1022.4063,167.875 Q1023.1094,167.875 1023.75,168.0313 Q1024.4063,168.1875 1024.9688,168.4844 L1024.9688,171.2031 Q1024.3438,170.625 1023.75,170.3594 Q1023.1563,170.0781 1022.5313,170.0781 Q1021.1875,170.0781 1020.5,171.1563 Q1019.8125,172.2188 1019.8125,174.3125 Q1019.8125,176.4063 1020.5,177.4844 Q1021.1875,178.5469 1022.5313,178.5469 Q1023.1563,178.5469 1023.75,178.2813 Q1024.3438,178 1024.9688,177.4219 L1024.9688,180.1406 Z " fill="#000000"/><text fill="#000000" font-family="sans-serif" font-size="14" lengthAdjust="spacing" textLength="215.0791" x="1036" y="179.3467">logic_arc_int__baselibs__future</text><line style="stroke:#181818;stroke-width:0.5;" x1="1008" x2="1253.0791" y1="190.5" y2="190.5"/></g><!--class comp_arc_sta__baselibs__utils--><g id="elem_comp_arc_sta__baselibs__utils"><rect fill="#F1F1F1" height="40" id="comp_arc_sta__baselibs__utils" rx="2.5" ry="2.5" style="stroke:#181818;stroke-width:0.5;" width="242.9502" x="4431" y="275.5"/><ellipse cx="4446" cy="291.5" fill="#ADD1B2" rx="11" ry="11" style="stroke:#181818;stroke-width:1;"/><path d="M4448.9688,297.1406 Q4448.3906,297.4375 4447.75,297.5781 Q4447.1094,297.7344 4446.4063,297.7344 Q4443.9063,297.7344 4442.5781,296.0938 Q4441.2656,294.4375 4441.2656,291.3125 Q4441.2656,288.1875 4442.5781,286.5313 Q4443.9063,284.875 4446.4063,284.875 Q4447.1094,284.875 4447.75,285.0313 Q4448.4063,285.1875 4448.9688,285.4844 L4448.9688,288.2031 Q4448.3438,287.625 4447.75,287.3594 Q4447.1563,287.0781 4446.5313,287.0781 Q4445.1875,287.0781 4444.5,288.1563 Q4443.8125,289.2188 4443.8125,291.3125 Q4443.8125,293.4063 4444.5,294.4844 Q4445.1875,295.5469 4446.5313,295.5469 Q4447.1563,295.5469 4447.75,295.2813 Q4448.3438,295 4448.9688,294.4219 L4448.9688,297.1406 Z " fill="#000000"/><text fill="#000000" font-family="sans-serif" font-size="14" lengthAdjust="spacing" textLength="210.9502" x="4460" y="296.3467">comp_arc_sta__baselibs__utils</text><line style="stroke:#181818;stroke-width:0.5;" x1="4432" x2="4672.9502" y1="307.5" y2="307.5"/></g><!--class logic_arc_int__baselibs__utils_scoped_op--><g id="elem_logic_arc_int__baselibs__utils_scoped_op"><rect fill="#F1F1F1" height="40" id="logic_arc_int__baselibs__utils_scoped_op" rx="2.5" ry="2.5" style="stroke:#181818;stroke-width:0.5;" width="315.377" x="4592" y="158.5"/><ellipse cx="4607" cy="174.5" fill="#ADD1B2" rx="11" ry="11" style="stroke:#181818;stroke-width:1;"/><path d="M4609.9688,180.1406 Q4609.3906,180.4375 4608.75,180.5781 Q4608.1094,180.7344 4607.4063,180.7344 Q4604.9063,180.7344 4603.5781,179.0938 Q4602.2656,177.4375 4602.2656,174.3125 Q4602.2656,171.1875 4603.5781,169.5313 Q4604.9063,167.875 4607.4063,167.875 Q4608.1094,167.875 4608.75,168.0313 Q4609.4063,168.1875 4609.9688,168.4844 L4609.9688,171.2031 Q4609.3438,170.625 4608.75,170.3594 Q4608.1563,170.0781 4607.5313,170.0781 Q4606.1875,170.0781 4605.5,171.1563 Q4604.8125,172.2188 4604.8125,174.3125 Q4604.8125,176.4063 4605.5,177.4844 Q4606.1875,178.5469 4607.5313,178.5469 Q4608.1563,178.5469 4608.75,178.2813 Q4609.3438,178 4609.9688,177.4219 L4609.9688,180.1406 Z " fill="#000000"/><text fill="#000000" font-family="sans-serif" font-size="14" lengthAdjust="spacing" textLength="283.377" x="4621" y="179.3467">logic_arc_int__baselibs__utils_scoped_op</text><line style="stroke:#181818;stroke-width:0.5;" x1="4593" x2="4906.377" y1="190.5" y2="190.5"/></g><!--class logic_arc_int__baselibs__shared_future--><g id="elem_logic_arc_int__baselibs__shared_future"><rect fill="#F1F1F1" height="40" id="logic_arc_int__baselibs__shared_future" rx="2.5" ry="2.5" style="stroke:#181818;stroke-width:0.5;" width="302.0811" x="1289.5" y="158.5"/><ellipse cx="1304.5" cy="174.5" fill="#ADD1B2" rx="11" ry="11" style="stroke:#181818;stroke-width:1;"/><path d="M1307.4688,180.1406 Q1306.8906,180.4375 1306.25,180.5781 Q1305.6094,180.7344 1304.9063,180.7344 Q1302.4063,180.7344 1301.0781,179.0938 Q1299.7656,177.4375 1299.7656,174.3125 Q1299.7656,171.1875 1301.0781,169.5313 Q1302.4063,167.875 1304.9063,167.875 Q1305.6094,167.875 1306.25,168.0313 Q1306.9063,168.1875 1307.4688,168.4844 L1307.4688,171.2031 Q1306.8438,170.625 1306.25,170.3594 Q1305.6563,170.0781 1305.0313,170.0781 Q1303.6875,170.0781 1303,171.1563 Q1302.3125,172.2188 1302.3125,174.3125 Q1302.3125,176.4063 1303,177.4844 Q1303.6875,178.5469 1305.0313,178.5469 Q1305.6563,178.5469 1306.25,178.2813 Q1306.8438,178 1307.4688,177.4219 L1307.4688,180.1406 Z " fill="#000000"/><text fill="#000000" font-family="sans-serif" font-size="14" lengthAdjust="spacing" textLength="270.0811" x="1318.5" y="179.3467">logic_arc_int__baselibs__shared_future</text><line style="stroke:#181818;stroke-width:0.5;" x1="1290.5" x2="1590.5811" y1="190.5" y2="190.5"/></g><!--class logic_arc_int__baselibs__condition_variable--><g id="elem_logic_arc_int__baselibs__condition_variable"><rect fill="#F1F1F1" height="40" id="logic_arc_int__baselibs__condition_variable" rx="2.5" ry="2.5" style="stroke:#181818;stroke-width:0.5;" width="332.7539" x="323" y="158.5"/><ellipse cx="338" cy="174.5" fill="#ADD1B2" rx="11" ry="11" style="stroke:#181818;stroke-width:1;"/><path d="M340.9688,180.1406 Q340.3906,180.4375 339.75,180.5781 Q339.1094,180.7344 338.4063,180.7344 Q335.9063,180.7344 334.5781,179.0938 Q333.2656,177.4375 333.2656,174.3125 Q333.2656,171.1875 334.5781,169.5313 Q335.9063,167.875 338.4063,167.875 Q339.1094,167.875 339.75,168.0313 Q340.4063,168.1875 340.9688,168.4844 L340.9688,171.2031 Q340.3438,170.625 339.75,170.3594 Q339.1563,170.0781 338.5313,170.0781 Q337.1875,170.0781 336.5,171.1563 Q335.8125,172.2188 335.8125,174.3125 Q335.8125,176.4063 336.5,177.4844 Q337.1875,178.5469 338.5313,178.5469 Q339.1563,178.5469 339.75,178.2813 Q340.3438,178 340.9688,177.4219 L340.9688,180.1406 Z " fill="#000000"/><text fill="#000000" font-family="sans-serif" font-size="14" lengthAdjust="spacing" textLength="300.7539" x="352" y="179.3467">logic_arc_int__baselibs__condition_variable</text><line style="stroke:#181818;stroke-width:0.5;" x1="324" x2="654.7539" y1="190.5" y2="190.5"/></g><!--class logic_arc_int__baselibs__bit_manipulation--><g id="elem_logic_arc_int__baselibs__bit_manipulation"><rect fill="#F1F1F1" height="40" id="logic_arc_int__baselibs__bit_manipulation" rx="2.5" ry="2.5" style="stroke:#181818;stroke-width:0.5;" width="321.8369" x="4942.5" y="158.5"/><ellipse cx="4957.5" cy="174.5" fill="#ADD1B2" rx="11" ry="11" style="stroke:#181818;stroke-width:1;"/><path d="M4960.4688,180.1406 Q4959.8906,180.4375 4959.25,180.5781 Q4958.6094,180.7344 4957.9063,180.7344 Q4955.4063,180.7344 4954.0781,179.0938 Q4952.7656,177.4375 4952.7656,174.3125 Q4952.7656,171.1875 4954.0781,169.5313 Q4955.4063,167.875 4957.9063,167.875 Q4958.6094,167.875 4959.25,168.0313 Q4959.9063,168.1875 4960.4688,168.4844 L4960.4688,171.2031 Q4959.8438,170.625 4959.25,170.3594 Q4958.6563,170.0781 4958.0313,170.0781 Q4956.6875,170.0781 4956,171.1563 Q4955.3125,172.2188 4955.3125,174.3125 Q4955.3125,176.4063 4956,177.4844 Q4956.6875,178.5469 4958.0313,178.5469 Q4958.6563,178.5469 4959.25,178.2813 Q4959.8438,178 4960.4688,177.4219 L4960.4688,180.1406 Z " fill="#000000"/><text fill="#000000" font-family="sans-serif" font-size="14" lengthAdjust="spacing" textLength="289.8369" x="4971.5" y="179.3467">logic_arc_int__baselibs__bit_manipulation</text><line style="stroke:#181818;stroke-width:0.5;" x1="4943.5" x2="5263.3369" y1="190.5" y2="190.5"/></g><!--class logic_arc_int__baselibs__intrusive_list--><g id="elem_logic_arc_int__baselibs__intrusive_list"><rect fill="#F1F1F1" height="40" id="logic_arc_int__baselibs__intrusive_list" rx="2.5" ry="2.5" style="stroke:#181818;stroke-width:0.5;" width="293.0713" x="3220" y="158.5"/><ellipse cx="3235" cy="174.5" fill="#ADD1B2" rx="11" ry="11" style="stroke:#181818;stroke-width:1;"/><path d="M3237.9688,180.1406 Q3237.3906,180.4375 3236.75,180.5781 Q3236.1094,180.7344 3235.4063,180.7344 Q3232.9063,180.7344 3231.5781,179.0938 Q3230.2656,177.4375 3230.2656,174.3125 Q3230.2656,171.1875 3231.5781,169.5313 Q3232.9063,167.875 3235.4063,167.875 Q3236.1094,167.875 3236.75,168.0313 Q3237.4063,168.1875 3237.9688,168.4844 L3237.9688,171.2031 Q3237.3438,170.625 3236.75,170.3594 Q3236.1563,170.0781 3235.5313,170.0781 Q3234.1875,170.0781 3233.5,171.1563 Q3232.8125,172.2188 3232.8125,174.3125 Q3232.8125,176.4063 3233.5,177.4844 Q3234.1875,178.5469 3235.5313,178.5469 Q3236.1563,178.5469 3236.75,178.2813 Q3237.3438,178 3237.9688,177.4219 L3237.9688,180.1406 Z " fill="#000000"/><text fill="#000000" font-family="sans-serif" font-size="14" lengthAdjust="spacing" textLength="261.0713" x="3249" y="179.3467">logic_arc_int__baselibs__intrusive_list</text><line style="stroke:#181818;stroke-width:0.5;" x1="3221" x2="3512.0713" y1="190.5" y2="190.5"/></g><!--class comp_arc_sta__baselibs__memory_shared--><g id="elem_comp_arc_sta__baselibs__memory_shared"><rect fill="#F1F1F1" height="40" id="comp_arc_sta__baselibs__memory_shared" rx="2.5" ry="2.5" style="stroke:#181818;stroke-width:0.5;" width="327.0117" x="3911" y="275.5"/><ellipse cx="3926" cy="291.5" fill="#ADD1B2" rx="11" ry="11" style="stroke:#181818;stroke-width:1;"/><path d="M3928.9688,297.1406 Q3928.3906,297.4375 3927.75,297.5781 Q3927.1094,297.7344 3926.4063,297.7344 Q3923.9063,297.7344 3922.5781,296.0938 Q3921.2656,294.4375 3921.2656,291.3125 Q3921.2656,288.1875 3922.5781,286.5313 Q3923.9063,284.875 3926.4063,284.875 Q3927.1094,284.875 3927.75,285.0313 Q3928.4063,285.1875 3928.9688,285.4844 L3928.9688,288.2031 Q3928.3438,287.625 3927.75,287.3594 Q3927.1563,287.0781 3926.5313,287.0781 Q3925.1875,287.0781 3924.5,288.1563 Q3923.8125,289.2188 3923.8125,291.3125 Q3923.8125,293.4063 3924.5,294.4844 Q3925.1875,295.5469 3926.5313,295.5469 Q3927.1563,295.5469 3927.75,295.2813 Q3928.3438,295 3928.9688,294.4219 L3928.9688,297.1406 Z " fill="#000000"/><text fill="#000000" font-family="sans-serif" font-size="14" lengthAdjust="spacing" textLength="295.0117" x="3940" y="296.3467">comp_arc_sta__baselibs__memory_shared</text><line style="stroke:#181818;stroke-width:0.5;" x1="3912" x2="4237.0117" y1="307.5" y2="307.5"/></g><!--class logic_arc_int__baselibs__memory_shared--><g id="elem_logic_arc_int__baselibs__memory_shared"><rect fill="#F1F1F1" height="40" id="logic_arc_int__baselibs__memory_shared" rx="2.5" ry="2.5" style="stroke:#181818;stroke-width:0.5;" width="318.043" x="3911.5" y="158.5"/><ellipse cx="3926.5" cy="174.5" fill="#ADD1B2" rx="11" ry="11" style="stroke:#181818;stroke-width:1;"/><path d="M3929.4688,180.1406 Q3928.8906,180.4375 3928.25,180.5781 Q3927.6094,180.7344 3926.9063,180.7344 Q3924.4063,180.7344 3923.0781,179.0938 Q3921.7656,177.4375 3921.7656,174.3125 Q3921.7656,171.1875 3923.0781,169.5313 Q3924.4063,167.875 3926.9063,167.875 Q3927.6094,167.875 3928.25,168.0313 Q3928.9063,168.1875 3929.4688,168.4844 L3929.4688,171.2031 Q3928.8438,170.625 3928.25,170.3594 Q3927.6563,170.0781 3927.0313,170.0781 Q3925.6875,170.0781 3925,171.1563 Q3924.3125,172.2188 3924.3125,174.3125 Q3924.3125,176.4063 3925,177.4844 Q3925.6875,178.5469 3927.0313,178.5469 Q3927.6563,178.5469 3928.25,178.2813 Q3928.8438,178 3929.4688,177.4219 L3929.4688,180.1406 Z " fill="#000000"/><text fill="#000000" font-family="sans-serif" font-size="14" lengthAdjust="spacing" textLength="286.043" x="3940.5" y="179.3467">logic_arc_int__baselibs__memory_shared</text><line style="stroke:#181818;stroke-width:0.5;" x1="3912.5" x2="4228.543" y1="190.5" y2="190.5"/></g><!--class comp_arc_sta__baselibs__message_passing--><g id="elem_comp_arc_sta__baselibs__message_passing"><rect fill="#F1F1F1" height="40" id="comp_arc_sta__baselibs__message_passing" rx="2.5" ry="2.5" style="stroke:#181818;stroke-width:0.5;" width="337.1357" x="3539" y="275.5"/><ellipse cx="3554" cy="291.5" fill="#ADD1B2" rx="11" ry="11" style="stroke:#181818;stroke-width:1;"/><path d="M3556.9688,297.1406 Q3556.3906,297.4375 3555.75,297.5781 Q3555.1094,297.7344 3554.4063,297.7344 Q3551.9063,297.7344 3550.5781,296.0938 Q3549.2656,294.4375 3549.2656,291.3125 Q3549.2656,288.1875 3550.5781,286.5313 Q3551.9063,284.875 3554.4063,284.875 Q3555.1094,284.875 3555.75,285.0313 Q3556.4063,285.1875 3556.9688,285.4844 L3556.9688,288.2031 Q3556.3438,287.625 3555.75,287.3594 Q3555.1563,287.0781 3554.5313,287.0781 Q3553.1875,287.0781 3552.5,288.1563 Q3551.8125,289.2188 3551.8125,291.3125 Q3551.8125,293.4063 3552.5,294.4844 Q3553.1875,295.5469 3554.5313,295.5469 Q3555.1563,295.5469 3555.75,295.2813 Q3556.3438,295 3556.9688,294.4219 L3556.9688,297.1406 Z " fill="#000000"/><text fill="#000000" font-family="sans-serif" font-size="14" lengthAdjust="spacing" textLength="305.1357" x="3568" y="296.3467">comp_arc_sta__baselibs__message_passing</text><line style="stroke:#181818;stroke-width:0.5;" x1="3540" x2="3875.1357" y1="307.5" y2="307.5"/></g><!--class logic_arc_int__baselibs__utils_base64--><g id="elem_logic_arc_int__baselibs__utils_base64"><rect fill="#F1F1F1" height="40" id="logic_arc_int__baselibs__utils_base64" rx="2.5" ry="2.5" style="stroke:#181818;stroke-width:0.5;" width="292.1689" x="4264.5" y="158.5"/><ellipse cx="4279.5" cy="174.5" fill="#ADD1B2" rx="11" ry="11" style="stroke:#181818;stroke-width:1;"/><path d="M4282.4688,180.1406 Q4281.8906,180.4375 4281.25,180.5781 Q4280.6094,180.7344 4279.9063,180.7344 Q4277.4063,180.7344 4276.0781,179.0938 Q4274.7656,177.4375 4274.7656,174.3125 Q4274.7656,171.1875 4276.0781,169.5313 Q4277.4063,167.875 4279.9063,167.875 Q4280.6094,167.875 4281.25,168.0313 Q4281.9063,168.1875 4282.4688,168.4844 L4282.4688,171.2031 Q4281.8438,170.625 4281.25,170.3594 Q4280.6563,170.0781 4280.0313,170.0781 Q4278.6875,170.0781 4278,171.1563 Q4277.3125,172.2188 4277.3125,174.3125 Q4277.3125,176.4063 4278,177.4844 Q4278.6875,178.5469 4280.0313,178.5469 Q4280.6563,178.5469 4281.25,178.2813 Q4281.8438,178 4282.4688,177.4219 L4282.4688,180.1406 Z " fill="#000000"/><text fill="#000000" font-family="sans-serif" font-size="14" lengthAdjust="spacing" textLength="260.1689" x="4293.5" y="179.3467">logic_arc_int__baselibs__utils_base64</text><line style="stroke:#181818;stroke-width:0.5;" x1="4265.5" x2="4555.6689" y1="190.5" y2="190.5"/></g><!--class logic_arc_int__baselibs__promise--><g id="elem_logic_arc_int__baselibs__promise"><rect fill="#F1F1F1" height="40" id="logic_arc_int__baselibs__promise" rx="2.5" ry="2.5" style="stroke:#181818;stroke-width:0.5;" width="261.1885" x="1928" y="158.5"/><ellipse cx="1943" cy="174.5" fill="#ADD1B2" rx="11" ry="11" style="stroke:#181818;stroke-width:1;"/><path d="M1945.9688,180.1406 Q1945.3906,180.4375 1944.75,180.5781 Q1944.1094,180.7344 1943.4063,180.7344 Q1940.9063,180.7344 1939.5781,179.0938 Q1938.2656,177.4375 1938.2656,174.3125 Q1938.2656,171.1875 1939.5781,169.5313 Q1940.9063,167.875 1943.4063,167.875 Q1944.1094,167.875 1944.75,168.0313 Q1945.4063,168.1875 1945.9688,168.4844 L1945.9688,171.2031 Q1945.3438,170.625 1944.75,170.3594 Q1944.1563,170.0781 1943.5313,170.0781 Q1942.1875,170.0781 1941.5,171.1563 Q1940.8125,172.2188 1940.8125,174.3125 Q1940.8125,176.4063 1941.5,177.4844 Q1942.1875,178.5469 1943.5313,178.5469 Q1944.1563,178.5469 1944.75,178.2813 Q1945.3438,178 1945.9688,177.4219 L1945.9688,180.1406 Z " fill="#000000"/><text fill="#000000" font-family="sans-serif" font-size="14" lengthAdjust="spacing" textLength="229.1885" x="1957" y="179.3467">logic_arc_int__baselibs__promise</text><line style="stroke:#181818;stroke-width:0.5;" x1="1929" x2="2188.1885" y1="190.5" y2="190.5"/></g><!--class logic_arc_int__baselibs__task--><g id="elem_logic_arc_int__baselibs__task"><rect fill="#F1F1F1" height="40" id="logic_arc_int__baselibs__task" rx="2.5" ry="2.5" style="stroke:#181818;stroke-width:0.5;" width="234.0156" x="2607.5" y="158.5"/><ellipse cx="2622.5" cy="174.5" fill="#ADD1B2" rx="11" ry="11" style="stroke:#181818;stroke-width:1;"/><path d="M2625.4688,180.1406 Q2624.8906,180.4375 2624.25,180.5781 Q2623.6094,180.7344 2622.9063,180.7344 Q2620.4063,180.7344 2619.0781,179.0938 Q2617.7656,177.4375 2617.7656,174.3125 Q2617.7656,171.1875 2619.0781,169.5313 Q2620.4063,167.875 2622.9063,167.875 Q2623.6094,167.875 2624.25,168.0313 Q2624.9063,168.1875 2625.4688,168.4844 L2625.4688,171.2031 Q2624.8438,170.625 2624.25,170.3594 Q2623.6563,170.0781 2623.0313,170.0781 Q2621.6875,170.0781 2621,171.1563 Q2620.3125,172.2188 2620.3125,174.3125 Q2620.3125,176.4063 2621,177.4844 Q2621.6875,178.5469 2623.0313,178.5469 Q2623.6563,178.5469 2624.25,178.2813 Q2624.8438,178 2625.4688,177.4219 L2625.4688,180.1406 Z " fill="#000000"/><text fill="#000000" font-family="sans-serif" font-size="14" lengthAdjust="spacing" textLength="202.0156" x="2636.5" y="179.3467">logic_arc_int__baselibs__task</text><line style="stroke:#181818;stroke-width:0.5;" x1="2608.5" x2="2840.5156" y1="190.5" y2="190.5"/></g><!--class logic_arc_int__baselibs__filesystem--><g id="elem_logic_arc_int__baselibs__filesystem"><rect fill="#F1F1F1" height="40" id="logic_arc_int__baselibs__filesystem" rx="2.5" ry="2.5" style="stroke:#181818;stroke-width:0.5;" width="276.4805" x="11.5" y="158.5"/><ellipse cx="26.5" cy="174.5" fill="#ADD1B2" rx="11" ry="11" style="stroke:#181818;stroke-width:1;"/><path d="M29.4688,180.1406 Q28.8906,180.4375 28.25,180.5781 Q27.6094,180.7344 26.9063,180.7344 Q24.4063,180.7344 23.0781,179.0938 Q21.7656,177.4375 21.7656,174.3125 Q21.7656,171.1875 23.0781,169.5313 Q24.4063,167.875 26.9063,167.875 Q27.6094,167.875 28.25,168.0313 Q28.9063,168.1875 29.4688,168.4844 L29.4688,171.2031 Q28.8438,170.625 28.25,170.3594 Q27.6563,170.0781 27.0313,170.0781 Q25.6875,170.0781 25,171.1563 Q24.3125,172.2188 24.3125,174.3125 Q24.3125,176.4063 25,177.4844 Q25.6875,178.5469 27.0313,178.5469 Q27.6563,178.5469 28.25,178.2813 Q28.8438,178 29.4688,177.4219 L29.4688,180.1406 Z " fill="#000000"/><text fill="#000000" font-family="sans-serif" font-size="14" lengthAdjust="spacing" textLength="244.4805" x="40.5" y="179.3467">logic_arc_int__baselibs__filesystem</text><line style="stroke:#181818;stroke-width:0.5;" x1="12.5" x2="286.9805" y1="190.5" y2="190.5"/></g><!--class logic_arc_int__baselibs__task_result--><g id="elem_logic_arc_int__baselibs__task_result"><rect fill="#F1F1F1" height="40" id="logic_arc_int__baselibs__task_result" rx="2.5" ry="2.5" style="stroke:#181818;stroke-width:0.5;" width="280.9307" x="691" y="158.5"/><ellipse cx="706" cy="174.5" fill="#ADD1B2" rx="11" ry="11" style="stroke:#181818;stroke-width:1;"/><path d="M708.9688,180.1406 Q708.3906,180.4375 707.75,180.5781 Q707.1094,180.7344 706.4063,180.7344 Q703.9063,180.7344 702.5781,179.0938 Q701.2656,177.4375 701.2656,174.3125 Q701.2656,171.1875 702.5781,169.5313 Q703.9063,167.875 706.4063,167.875 Q707.1094,167.875 707.75,168.0313 Q708.4063,168.1875 708.9688,168.4844 L708.9688,171.2031 Q708.3438,170.625 707.75,170.3594 Q707.1563,170.0781 706.5313,170.0781 Q705.1875,170.0781 704.5,171.1563 Q703.8125,172.2188 703.8125,174.3125 Q703.8125,176.4063 704.5,177.4844 Q705.1875,178.5469 706.5313,178.5469 Q707.1563,178.5469 707.75,178.2813 Q708.3438,178 708.9688,177.4219 L708.9688,180.1406 Z " fill="#000000"/><text fill="#000000" font-family="sans-serif" font-size="14" lengthAdjust="spacing" textLength="248.9307" x="720" y="179.3467">logic_arc_int__baselibs__task_result</text><line style="stroke:#181818;stroke-width:0.5;" x1="692" x2="970.9307" y1="190.5" y2="190.5"/></g><!--class logic_arc_int__baselibs__synchronized_queue--><g id="elem_logic_arc_int__baselibs__synchronized_queue"><rect fill="#F1F1F1" height="40" id="logic_arc_int__baselibs__synchronized_queue" rx="2.5" ry="2.5" style="stroke:#181818;stroke-width:0.5;" width="348.3604" x="2224.5" y="158.5"/><ellipse cx="2239.5" cy="174.5" fill="#ADD1B2" rx="11" ry="11" style="stroke:#181818;stroke-width:1;"/><path d="M2242.4688,180.1406 Q2241.8906,180.4375 2241.25,180.5781 Q2240.6094,180.7344 2239.9063,180.7344 Q2237.4063,180.7344 2236.0781,179.0938 Q2234.7656,177.4375 2234.7656,174.3125 Q2234.7656,171.1875 2236.0781,169.5313 Q2237.4063,167.875 2239.9063,167.875 Q2240.6094,167.875 2241.25,168.0313 Q2241.9063,168.1875 2242.4688,168.4844 L2242.4688,171.2031 Q2241.8438,170.625 2241.25,170.3594 Q2240.6563,170.0781 2240.0313,170.0781 Q2238.6875,170.0781 2238,171.1563 Q2237.3125,172.2188 2237.3125,174.3125 Q2237.3125,176.4063 2238,177.4844 Q2238.6875,178.5469 2240.0313,178.5469 Q2240.6563,178.5469 2241.25,178.2813 Q2241.8438,178 2242.4688,177.4219 L2242.4688,180.1406 Z " fill="#000000"/><text fill="#000000" font-family="sans-serif" font-size="14" lengthAdjust="spacing" textLength="316.3604" x="2253.5" y="179.3467">logic_arc_int__baselibs__synchronized_queue</text><line style="stroke:#181818;stroke-width:0.5;" x1="2225.5" x2="2571.8604" y1="190.5" y2="190.5"/></g><!--class comp_arc_sta__baselibs__filesystem--><g id="elem_comp_arc_sta__baselibs__filesystem"><rect fill="#F1F1F1" height="40" id="comp_arc_sta__baselibs__filesystem" rx="2.5" ry="2.5" style="stroke:#181818;stroke-width:0.5;" width="285.4492" x="7" y="275.5"/><ellipse cx="22" cy="291.5" fill="#ADD1B2" rx="11" ry="11" style="stroke:#181818;stroke-width:1;"/><path d="M24.9688,297.1406 Q24.3906,297.4375 23.75,297.5781 Q23.1094,297.7344 22.4063,297.7344 Q19.9063,297.7344 18.5781,296.0938 Q17.2656,294.4375 17.2656,291.3125 Q17.2656,288.1875 18.5781,286.5313 Q19.9063,284.875 22.4063,284.875 Q23.1094,284.875 23.75,285.0313 Q24.4063,285.1875 24.9688,285.4844 L24.9688,288.2031 Q24.3438,287.625 23.75,287.3594 Q23.1563,287.0781 22.5313,287.0781 Q21.1875,287.0781 20.5,288.1563 Q19.8125,289.2188 19.8125,291.3125 Q19.8125,293.4063 20.5,294.4844 Q21.1875,295.5469 22.5313,295.5469 Q23.1563,295.5469 23.75,295.2813 Q24.3438,295 24.9688,294.4219 L24.9688,297.1406 Z " fill="#000000"/><text fill="#000000" font-family="sans-serif" font-size="14" lengthAdjust="spacing" textLength="253.4492" x="36" y="296.3467">comp_arc_sta__baselibs__filesystem</text><line style="stroke:#181818;stroke-width:0.5;" x1="8" x2="291.4492" y1="307.5" y2="307.5"/></g><!--class logic_arc_int__baselibs__executor--><g id="elem_logic_arc_int__baselibs__executor"><rect fill="#F1F1F1" height="40" id="logic_arc_int__baselibs__executor" rx="2.5" ry="2.5" style="stroke:#181818;stroke-width:0.5;" width="266.4385" x="1626.5" y="158.5"/><ellipse cx="1641.5" cy="174.5" fill="#ADD1B2" rx="11" ry="11" style="stroke:#181818;stroke-width:1;"/><path d="M1644.4688,180.1406 Q1643.8906,180.4375 1643.25,180.5781 Q1642.6094,180.7344 1641.9063,180.7344 Q1639.4063,180.7344 1638.0781,179.0938 Q1636.7656,177.4375 1636.7656,174.3125 Q1636.7656,171.1875 1638.0781,169.5313 Q1639.4063,167.875 1641.9063,167.875 Q1642.6094,167.875 1643.25,168.0313 Q1643.9063,168.1875 1644.4688,168.4844 L1644.4688,171.2031 Q1643.8438,170.625 1643.25,170.3594 Q1642.6563,170.0781 1642.0313,170.0781 Q1640.6875,170.0781 1640,171.1563 Q1639.3125,172.2188 1639.3125,174.3125 Q1639.3125,176.4063 1640,177.4844 Q1640.6875,178.5469 1642.0313,178.5469 Q1642.6563,178.5469 1643.25,178.2813 Q1643.8438,178 1644.4688,177.4219 L1644.4688,180.1406 Z " fill="#000000"/><text fill="#000000" font-family="sans-serif" font-size="14" lengthAdjust="spacing" textLength="234.4385" x="1655.5" y="179.3467">logic_arc_int__baselibs__executor</text><line style="stroke:#181818;stroke-width:0.5;" x1="1627.5" x2="1891.9385" y1="190.5" y2="190.5"/></g><!--link Feature_User to logic_arc_int__baselibs__message_passing--><g id="link_Feature_User_logic_arc_int__baselibs__message_passing"><path codeLine="15" d="M3075.51,53.28 C3184.63,74.56 3459.391,128.1415 3609.111,157.3415 " fill="transparent" id="Feature_User-to-logic_arc_int__baselibs__message_passing" style="stroke:#181818;stroke-width:1;"/><polygon fill="#181818" points="3615,158.49,3606.9321,152.8412,3610.0925,157.5329,3605.4007,160.6932,3615,158.49" style="stroke:#181818;stroke-width:1;"/><text fill="#000000" font-family="sans-serif" font-size="13" lengthAdjust="spacing" textLength="23.0103" x="3454.5" y="124.5669">use</text></g><!--reverse link logic_arc_int__baselibs__json to comp_arc_sta__baselibs__json--><g id="link_logic_arc_int__baselibs__json_comp_arc_sta__baselibs__json"><path codeLine="16" d="M6070.9346,204.7491 C6071.3046,225.9791 6071.79,253.94 6072.16,275.19 " fill="transparent" id="logic_arc_int__baselibs__json-backto-comp_arc_sta__baselibs__json" style="stroke:#181818;stroke-width:1;"/><polygon fill="#181818" points="6070.83,198.75,6066.9874,207.8183,6070.9171,203.7492,6074.9862,207.6789,6070.83,198.75" style="stroke:#181818;stroke-width:1;"/><text fill="#000000" font-family="sans-serif" font-size="13" lengthAdjust="spacing" textLength="76.9082" x="6072.5" y="241.5669">implements</text></g><!--reverse link logic_arc_int__baselibs__bit_mask_operator to comp_arc_sta__baselibs__bit_manipulation--><g id="link_logic_arc_int__baselibs__bit_mask_operator_comp_arc_sta__baselibs__bit_manipulation"><path codeLine="17" d="M5431.7898,201.9424 C5397.9098,223.2324 5348.72,254.14 5314.92,275.38 " fill="transparent" id="logic_arc_int__baselibs__bit_mask_operator-backto-comp_arc_sta__baselibs__bit_manipulation" style="stroke:#181818;stroke-width:1;"/><polygon fill="#181818" points="5436.87,198.75,5427.1214,200.1518,5432.6365,201.4103,5431.3779,206.9254,5436.87,198.75" style="stroke:#181818;stroke-width:1;"/><text fill="#000000" font-family="sans-serif" font-size="13" lengthAdjust="spacing" textLength="76.9082" x="5388.5" y="241.5669">implements</text></g><!--reverse link logic_arc_int__baselibs__dynamic_array to comp_arc_sta__baselibs__containers--><g id="link_logic_arc_int__baselibs__dynamic_array_comp_arc_sta__baselibs__containers"><path codeLine="18" d="M3063.3918,202.1527 C3094.3118,223.4427 3138.89,254.14 3169.74,275.38 " fill="transparent" id="logic_arc_int__baselibs__dynamic_array-backto-comp_arc_sta__baselibs__containers" style="stroke:#181818;stroke-width:1;"/><polygon fill="#181818" points="3058.45,198.75,3063.5943,207.1486,3062.5682,201.5856,3068.1312,200.5595,3058.45,198.75" style="stroke:#181818;stroke-width:1;"/><text fill="#000000" font-family="sans-serif" font-size="13" lengthAdjust="spacing" textLength="76.9082" x="3125.5" y="241.5669">implements</text></g><!--reverse link logic_arc_int__baselibs__result to comp_arc_sta__baselibs__result--><g id="link_logic_arc_int__baselibs__result_comp_arc_sta__baselibs__result"><path codeLine="19" d="M5791.8418,204.7479 C5791.2818,225.9779 5790.56,253.94 5790,275.19 " fill="transparent" id="logic_arc_int__baselibs__result-backto-comp_arc_sta__baselibs__result" style="stroke:#181818;stroke-width:1;"/><polygon fill="#181818" points="5792,198.75,5787.7641,207.6414,5791.8682,203.7483,5795.7613,207.8523,5792,198.75" style="stroke:#181818;stroke-width:1;"/><text fill="#000000" font-family="sans-serif" font-size="13" lengthAdjust="spacing" textLength="76.9082" x="5792.5" y="241.5669">implements</text></g><!--reverse link logic_arc_int__baselibs__future to comp_arc_sta__baselibs__concurrency--><g id="link_logic_arc_int__baselibs__future_comp_arc_sta__baselibs__concurrency"><path codeLine="20" d="M1210.1283,200.1245 C1292.3583,221.4245 1418.72,254.15 1500.88,275.43 " fill="transparent" id="logic_arc_int__baselibs__future-backto-comp_arc_sta__baselibs__concurrency" style="stroke:#181818;stroke-width:1;"/><polygon fill="#181818" points="1204.32,198.62,1212.0294,204.749,1209.1603,199.8738,1214.0355,197.0046,1204.32,198.62" style="stroke:#181818;stroke-width:1;"/><text fill="#000000" font-family="sans-serif" font-size="13" lengthAdjust="spacing" textLength="76.9082" x="1380.5" y="241.5669">implements</text></g><!--reverse link logic_arc_int__baselibs__utils_scoped_op to comp_arc_sta__baselibs__utils--><g id="link_logic_arc_int__baselibs__utils_scoped_op_comp_arc_sta__baselibs__utils"><path codeLine="21" d="M4711.3479,201.7743 C4674.8679,223.0643 4621.64,254.14 4585.25,275.38 " fill="transparent" id="logic_arc_int__baselibs__utils_scoped_op-backto-comp_arc_sta__baselibs__utils" style="stroke:#181818;stroke-width:1;"/><polygon fill="#181818" points="4716.53,198.75,4706.7407,199.8317,4712.2116,201.2702,4710.7731,206.7411,4716.53,198.75" style="stroke:#181818;stroke-width:1;"/><text fill="#000000" font-family="sans-serif" font-size="13" lengthAdjust="spacing" textLength="76.9082" x="4664.5" y="241.5669">implements</text></g><!--link Feature_User to logic_arc_int__baselibs__shared_future--><g id="link_Feature_User_logic_arc_int__baselibs__shared_future"><path codeLine="22" d="M2985.31,47.49 C2808.92,59.28 2149.76,104.61 1608.5,158.5 C1602.95,159.05 1603.2682,159.0133 1597.5582,159.6033 " fill="transparent" id="Feature_User-to-logic_arc_int__baselibs__shared_future" style="stroke:#181818;stroke-width:1;"/><polygon fill="#181818" points="1591.59,160.22,1600.9535,163.2738,1596.5635,159.7061,1600.1312,155.3162,1591.59,160.22" style="stroke:#181818;stroke-width:1;"/><text fill="#000000" font-family="sans-serif" font-size="13" lengthAdjust="spacing" textLength="23.0103" x="2117.5" y="124.5669">use</text></g><!--reverse link logic_arc_int__baselibs__condition_variable to comp_arc_sta__baselibs__concurrency--><g id="link_logic_arc_int__baselibs__condition_variable_comp_arc_sta__baselibs__concurrency"><path codeLine="23" d="M649.7564,199.2319 C763.0464,212.9619 914.77,230.86 1053.5,245.5 C1178.29,258.67 1320.09,271.89 1424.22,281.28 " fill="transparent" id="logic_arc_int__baselibs__condition_variable-backto-comp_arc_sta__baselibs__concurrency" style="stroke:#181818;stroke-width:1;"/><polygon fill="#181818" points="643.8,198.51,652.2534,203.5638,648.7637,199.1116,653.2159,195.6219,643.8,198.51" style="stroke:#181818;stroke-width:1;"/><text fill="#000000" font-family="sans-serif" font-size="13" lengthAdjust="spacing" textLength="76.9082" x="1054.5" y="241.5669">implements</text></g><!--reverse link logic_arc_int__baselibs__bit_manipulation to comp_arc_sta__baselibs__bit_manipulation--><g id="link_logic_arc_int__baselibs__bit_manipulation_comp_arc_sta__baselibs__bit_manipulation"><path codeLine="24" d="M5138.8643,201.9675 C5172.3743,223.2575 5220.98,254.14 5254.41,275.38 " fill="transparent" id="logic_arc_int__baselibs__bit_manipulation-backto-comp_arc_sta__baselibs__bit_manipulation" style="stroke:#181818;stroke-width:1;"/><polygon fill="#181818" points="5133.8,198.75,5139.2515,206.9525,5138.0203,201.4313,5143.5415,200.2001,5133.8,198.75" style="stroke:#181818;stroke-width:1;"/><text fill="#000000" font-family="sans-serif" font-size="13" lengthAdjust="spacing" textLength="76.9082" x="5206.5" y="241.5669">implements</text></g><!--link Feature_User to logic_arc_int__baselibs__dynamic_array--><g id="link_Feature_User_logic_arc_int__baselibs__dynamic_array"><path codeLine="25" d="M3030.5,81.55 C3030.5,106.45 3030.5,132.26 3030.5,152.26 " fill="transparent" id="Feature_User-to-logic_arc_int__baselibs__dynamic_array" style="stroke:#181818;stroke-width:1;"/><polygon fill="#181818" points="3030.5,158.26,3034.5,149.26,3030.5,153.26,3026.5,149.26,3030.5,158.26" style="stroke:#181818;stroke-width:1;"/><text fill="#000000" font-family="sans-serif" font-size="13" lengthAdjust="spacing" textLength="23.0103" x="3031.5" y="124.5669">use</text></g><!--link Feature_User to logic_arc_int__baselibs__intrusive_list--><g id="link_Feature_User_logic_arc_int__baselibs__intrusive_list"><path codeLine="26" d="M3075.81,62.44 C3139.14,87.5 3248.011,130.6022 3312.801,156.2422 " fill="transparent" id="Feature_User-to-logic_arc_int__baselibs__intrusive_list" style="stroke:#181818;stroke-width:1;"/><polygon fill="#181818" points="3318.38,158.45,3311.4834,151.4189,3313.7308,156.6101,3308.5396,158.8576,3318.38,158.45" style="stroke:#181818;stroke-width:1;"/><text fill="#000000" font-family="sans-serif" font-size="13" lengthAdjust="spacing" textLength="23.0103" x="3239.5" y="124.5669">use</text></g><!--reverse link logic_arc_int__baselibs__memory_shared to comp_arc_sta__baselibs__memory_shared--><g id="link_logic_arc_int__baselibs__memory_shared_comp_arc_sta__baselibs__memory_shared"><path codeLine="27" d="M4071.379,204.7464 C4072.119,225.9764 4073.09,253.94 4073.83,275.19 " fill="transparent" id="logic_arc_int__baselibs__memory_shared-backto-comp_arc_sta__baselibs__memory_shared" style="stroke:#181818;stroke-width:1;"/><polygon fill="#181818" points="4071.17,198.75,4067.4859,207.8839,4071.3442,203.747,4075.4811,207.6052,4071.17,198.75" style="stroke:#181818;stroke-width:1;"/><text fill="#000000" font-family="sans-serif" font-size="13" lengthAdjust="spacing" textLength="76.9082" x="4074.5" y="241.5669">implements</text></g><!--reverse link logic_arc_int__baselibs__message_passing to comp_arc_sta__baselibs__message_passing--><g id="link_logic_arc_int__baselibs__message_passing_comp_arc_sta__baselibs__message_passing"><path codeLine="28" d="M3711.4002,204.7444 C3710.4802,225.9744 3709.26,253.94 3708.34,275.19 " fill="transparent" id="logic_arc_int__baselibs__message_passing-backto-comp_arc_sta__baselibs__message_passing" style="stroke:#181818;stroke-width:1;"/><polygon fill="#181818" points="3711.66,198.75,3707.2741,207.5684,3711.4435,203.7453,3715.2666,207.9147,3711.66,198.75" style="stroke:#181818;stroke-width:1;"/><text fill="#000000" font-family="sans-serif" font-size="13" lengthAdjust="spacing" textLength="76.9082" x="3711.5" y="241.5669">implements</text></g><!--reverse link logic_arc_int__baselibs__utils_base64 to comp_arc_sta__baselibs__utils--><g id="link_logic_arc_int__baselibs__utils_base64_comp_arc_sta__baselibs__utils"><path codeLine="29" d="M4438.9324,202.5265 C4465.1424,223.7565 4502.41,253.94 4528.65,275.19 " fill="transparent" id="logic_arc_int__baselibs__utils_base64-backto-comp_arc_sta__baselibs__utils" style="stroke:#181818;stroke-width:1;"/><polygon fill="#181818" points="4434.27,198.75,4438.7459,207.523,4438.1553,201.8971,4443.7813,201.3065,4434.27,198.75" style="stroke:#181818;stroke-width:1;"/><text fill="#000000" font-family="sans-serif" font-size="13" lengthAdjust="spacing" textLength="76.9082" x="4491.5" y="241.5669">implements</text></g><!--link Feature_User to logic_arc_int__baselibs__bit_manipulation--><g id="link_Feature_User_logic_arc_int__baselibs__bit_manipulation"><path codeLine="30" d="M3075.66,46.34 C3285.61,55.06 4187.32,94.58 4924.5,158.5 C4930.26,159 4930.1448,158.985 4936.0648,159.525 " fill="transparent" id="Feature_User-to-logic_arc_int__baselibs__bit_manipulation" style="stroke:#181818;stroke-width:1;"/><polygon fill="#181818" points="4942.04,160.07,4933.4406,155.269,4937.0607,159.6158,4932.7139,163.2359,4942.04,160.07" style="stroke:#181818;stroke-width:1;"/><text fill="#000000" font-family="sans-serif" font-size="13" lengthAdjust="spacing" textLength="23.0103" x="4511.5" y="124.5669">use</text></g><!--link Feature_User to logic_arc_int__baselibs__condition_variable--><g id="link_Feature_User_logic_arc_int__baselibs__condition_variable"><path codeLine="31" d="M2985.39,45.61 C2785.9,50.64 1963.06,72.77 1288.5,111.5 C1014.82,127.22 946.53,133.97 673.5,158.5 C667.9,159 668.1847,158.9793 662.4347,159.5093 " fill="transparent" id="Feature_User-to-logic_arc_int__baselibs__condition_variable" style="stroke:#181818;stroke-width:1;"/><polygon fill="#181818" points="656.46,160.06,665.7891,163.2171,661.4389,159.6011,665.0549,155.2508,656.46,160.06" style="stroke:#181818;stroke-width:1;"/><text fill="#000000" font-family="sans-serif" font-size="13" lengthAdjust="spacing" textLength="23.0103" x="1289.5" y="124.5669">use</text></g><!--reverse link logic_arc_int__baselibs__shared_future to comp_arc_sta__baselibs__concurrency--><g id="link_logic_arc_int__baselibs__shared_future_comp_arc_sta__baselibs__concurrency"><path codeLine="32" d="M1467.4825,202.6582 C1492.2125,223.8882 1527.23,253.94 1552,275.19 " fill="transparent" id="logic_arc_int__baselibs__shared_future-backto-comp_arc_sta__baselibs__concurrency" style="stroke:#181818;stroke-width:1;"/><polygon fill="#181818" points="1462.93,198.75,1467.1533,207.6474,1466.7238,202.0069,1472.3643,201.5773,1462.93,198.75" style="stroke:#181818;stroke-width:1;"/><text fill="#000000" font-family="sans-serif" font-size="13" lengthAdjust="spacing" textLength="76.9082" x="1517.5" y="241.5669">implements</text></g><!--link Feature_User to logic_arc_int__baselibs__promise--><g id="link_Feature_User_logic_arc_int__baselibs__promise"><path codeLine="33" d="M2985.25,50.69 C2844.3,69.98 2415.4646,128.6566 2195.1946,158.7966 " fill="transparent" id="Feature_User-to-logic_arc_int__baselibs__promise" style="stroke:#181818;stroke-width:1;"/><polygon fill="#181818" points="2189.25,159.61,2198.7092,162.353,2194.2038,158.9322,2197.6246,154.4268,2189.25,159.61" style="stroke:#181818;stroke-width:1;"/><text fill="#000000" font-family="sans-serif" font-size="13" lengthAdjust="spacing" textLength="23.0103" x="2516.5" y="124.5669">use</text></g><!--link Feature_User to logic_arc_int__baselibs__json--><g id="link_Feature_User_logic_arc_int__baselibs__json"><path codeLine="34" d="M3075.88,45.11 C3309.4,48.42 4399.04,65.72 5289.5,111.5 C5575.22,126.19 5646.96,128.67 5931.5,158.5 C5938.77,159.26 5940.2815,159.4057 5947.8115,160.2957 " fill="transparent" id="Feature_User-to-logic_arc_int__baselibs__json" style="stroke:#181818;stroke-width:1;"/><polygon fill="#181818" points="5953.77,161,5945.3017,155.9713,5948.8046,160.4131,5944.3627,163.916,5953.77,161" style="stroke:#181818;stroke-width:1;"/><text fill="#000000" font-family="sans-serif" font-size="13" lengthAdjust="spacing" textLength="23.0103" x="5591.5" y="124.5669">use</text></g><!--link Feature_User to logic_arc_int__baselibs__task--><g id="link_Feature_User_logic_arc_int__baselibs__task"><path codeLine="35" d="M2985.35,64.12 C2927,89.49 2831.5628,130.9685 2773.8528,156.0485 " fill="transparent" id="Feature_User-to-logic_arc_int__baselibs__task" style="stroke:#181818;stroke-width:1;"/><polygon fill="#181818" points="2768.35,158.44,2778.1985,158.5214,2772.9357,156.4471,2775.0099,151.1843,2768.35,158.44" style="stroke:#181818;stroke-width:1;"/><text fill="#000000" font-family="sans-serif" font-size="13" lengthAdjust="spacing" textLength="23.0103" x="2869.5" y="124.5669">use</text></g><!--link Feature_User to logic_arc_int__baselibs__filesystem--><g id="link_Feature_User_logic_arc_int__baselibs__filesystem"><path codeLine="36" d="M2985.45,45.41 C2766.86,49.94 1794.93,71.46 999.5,111.5 C690.74,127.04 613.27,129.36 305.5,158.5 C299.66,159.05 299.6684,159.0353 293.6484,159.6553 " fill="transparent" id="Feature_User-to-logic_arc_int__baselibs__filesystem" style="stroke:#181818;stroke-width:1;"/><polygon fill="#181818" points="287.68,160.27,297.0424,163.3269,292.6537,159.7578,296.2229,155.369,287.68,160.27" style="stroke:#181818;stroke-width:1;"/><text fill="#000000" font-family="sans-serif" font-size="13" lengthAdjust="spacing" textLength="23.0103" x="1000.5" y="124.5669">use</text></g><!--link Feature_User to logic_arc_int__baselibs__utils_base64--><g id="link_Feature_User_logic_arc_int__baselibs__utils_base64"><path codeLine="37" d="M3075.53,48.36 C3235.27,62.15 3789.68,110.63 4246.5,158.5 C4252.34,159.11 4252.3347,159.1059 4258.3547,159.7559 " fill="transparent" id="Feature_User-to-logic_arc_int__baselibs__utils_base64" style="stroke:#181818;stroke-width:1;"/><polygon fill="#181818" points="4264.32,160.4,4255.8014,155.457,4259.3489,159.8633,4254.9426,163.4107,4264.32,160.4" style="stroke:#181818;stroke-width:1;"/><text fill="#000000" font-family="sans-serif" font-size="13" lengthAdjust="spacing" textLength="23.0103" x="3947.5" y="124.5669">use</text></g><!--link Feature_User to logic_arc_int__baselibs__task_result--><g id="link_Feature_User_logic_arc_int__baselibs__task_result"><path codeLine="38" d="M2985.49,46.01 C2806.82,52.12 2130.41,76.39 1574.5,111.5 C1314.18,127.94 1249.04,132.48 989.5,158.5 C983.86,159.07 984.086,159.0223 978.286,159.6423 " fill="transparent" id="Feature_User-to-logic_arc_int__baselibs__task_result" style="stroke:#181818;stroke-width:1;"/><polygon fill="#181818" points="972.32,160.28,981.6942,163.3007,977.2917,159.7485,980.8439,155.346,972.32,160.28" style="stroke:#181818;stroke-width:1;"/><text fill="#000000" font-family="sans-serif" font-size="13" lengthAdjust="spacing" textLength="23.0103" x="1575.5" y="124.5669">use</text></g><!--reverse link logic_arc_int__baselibs__task_result to comp_arc_sta__baselibs__concurrency--><g id="link_logic_arc_int__baselibs__task_result_comp_arc_sta__baselibs__concurrency"><path codeLine="39" d="M952.381,199.4706 C1034.311,212.9006 1141.16,230.2 1240.5,245.5 C1306.68,255.69 1380.31,266.55 1441.56,275.44 " fill="transparent" id="logic_arc_int__baselibs__task_result-backto-comp_arc_sta__baselibs__concurrency" style="stroke:#181818;stroke-width:1;"/><polygon fill="#181818" points="946.46,198.5,954.6944,203.9032,951.3941,199.3088,955.9885,196.0085,946.46,198.5" style="stroke:#181818;stroke-width:1;"/><text fill="#000000" font-family="sans-serif" font-size="13" lengthAdjust="spacing" textLength="76.9082" x="1241.5" y="241.5669">implements</text></g><!--link Feature_User to logic_arc_int__baselibs__memory_shared--><g id="link_Feature_User_logic_arc_int__baselibs__memory_shared"><path codeLine="40" d="M3075.52,50.26 C3220.75,68.83 3675.3685,126.9688 3915.5585,157.6888 " fill="transparent" id="Feature_User-to-logic_arc_int__baselibs__memory_shared" style="stroke:#181818;stroke-width:1;"/><polygon fill="#181818" points="3921.51,158.45,3913.0902,153.3405,3916.5504,157.8157,3912.0753,161.2759,3921.51,158.45" style="stroke:#181818;stroke-width:1;"/><text fill="#000000" font-family="sans-serif" font-size="13" lengthAdjust="spacing" textLength="23.0103" x="3675.5" y="124.5669">use</text></g><!--reverse link logic_arc_int__baselibs__task to comp_arc_sta__baselibs__concurrency--><g id="link_logic_arc_int__baselibs__task_comp_arc_sta__baselibs__concurrency"><path codeLine="41" d="M2601.5102,197.0144 C2595.4402,197.8044 2595.37,197.78 2589.5,198.5 C2283.12,235.84 1923.19,266.85 1724.82,282.83 " fill="transparent" id="logic_arc_int__baselibs__task-backto-comp_arc_sta__baselibs__concurrency" style="stroke:#181818;stroke-width:1;"/><polygon fill="#181818" points="2607.46,196.24,2598.019,193.435,2602.5018,196.8853,2599.0515,201.3681,2607.46,196.24" style="stroke:#181818;stroke-width:1;"/><text fill="#000000" font-family="sans-serif" font-size="13" lengthAdjust="spacing" textLength="76.9082" x="2312.5" y="241.5669">implements</text></g><!--reverse link logic_arc_int__baselibs__synchronized_queue to comp_arc_sta__baselibs__concurrency--><g id="link_logic_arc_int__baselibs__synchronized_queue_comp_arc_sta__baselibs__concurrency"><path codeLine="42" d="M2258.9697,199.3642 C2165.5897,212.6342 2043.92,229.84 1931.5,245.5 C1859.78,255.49 1779.93,266.46 1713.97,275.49 " fill="transparent" id="logic_arc_int__baselibs__synchronized_queue-backto-comp_arc_sta__baselibs__concurrency" style="stroke:#181818;stroke-width:1;"/><polygon fill="#181818" points="2264.91,198.52,2255.4367,195.826,2259.9597,199.2235,2256.5623,203.7465,2264.91,198.52" style="stroke:#181818;stroke-width:1;"/><text fill="#000000" font-family="sans-serif" font-size="13" lengthAdjust="spacing" textLength="76.9082" x="2048.5" y="241.5669">implements</text></g><!--reverse link logic_arc_int__baselibs__promise to comp_arc_sta__baselibs__concurrency--><g id="link_logic_arc_int__baselibs__promise_comp_arc_sta__baselibs__concurrency"><path codeLine="43" d="M1972.4725,199.9371 C1882.8725,221.2271 1744.51,254.11 1654.85,275.41 " fill="transparent" id="logic_arc_int__baselibs__promise-backto-comp_arc_sta__baselibs__concurrency" style="stroke:#181818;stroke-width:1;"/><polygon fill="#181818" points="1978.31,198.55,1968.6291,196.7389,1973.4454,199.7059,1970.4785,204.5222,1978.31,198.55" style="stroke:#181818;stroke-width:1;"/><text fill="#000000" font-family="sans-serif" font-size="13" lengthAdjust="spacing" textLength="76.9082" x="1846.5" y="241.5669">implements</text></g><!--link Feature_User to logic_arc_int__baselibs__future--><g id="link_Feature_User_logic_arc_int__baselibs__future"><path codeLine="44" d="M2985.21,46.17 C2784.04,53.83 1951.47,88.36 1271.5,158.5 C1265.85,159.08 1266.0408,159.025 1260.2108,159.695 " fill="transparent" id="Feature_User-to-logic_arc_int__baselibs__future" style="stroke:#181818;stroke-width:1;"/><polygon fill="#181818" points="1254.25,160.38,1263.6478,163.3263,1259.2173,159.8091,1262.7345,155.3786,1254.25,160.38" style="stroke:#181818;stroke-width:1;"/><text fill="#000000" font-family="sans-serif" font-size="13" lengthAdjust="spacing" textLength="23.0103" x="1803.5" y="124.5669">use</text></g><!--reverse link logic_arc_int__baselibs__intrusive_list to comp_arc_sta__baselibs__containers--><g id="link_logic_arc_int__baselibs__intrusive_list_comp_arc_sta__baselibs__containers"><path codeLine="45" d="M3333.2494,202.1252 C3301.9594,223.4152 3256.81,254.14 3225.6,275.38 " fill="transparent" id="logic_arc_int__baselibs__intrusive_list-backto-comp_arc_sta__baselibs__containers" style="stroke:#181818;stroke-width:1;"/><polygon fill="#181818" points="3338.21,198.75,3328.5189,200.5058,3334.0762,201.5627,3333.0192,207.1199,3338.21,198.75" style="stroke:#181818;stroke-width:1;"/><text fill="#000000" font-family="sans-serif" font-size="13" lengthAdjust="spacing" textLength="76.9082" x="3293.5" y="241.5669">implements</text></g><!--reverse link logic_arc_int__baselibs__filesystem to comp_arc_sta__baselibs__filesystem--><g id="link_logic_arc_int__baselibs__filesystem_comp_arc_sta__baselibs__filesystem"><path codeLine="46" d="M149.5,204.75 C149.5,225.98 149.5,253.94 149.5,275.19 " fill="transparent" id="logic_arc_int__baselibs__filesystem-backto-comp_arc_sta__baselibs__filesystem" style="stroke:#181818;stroke-width:1;"/><polygon fill="#181818" points="149.5,198.75,145.5,207.75,149.5,203.75,153.5,207.75,149.5,198.75" style="stroke:#181818;stroke-width:1;"/><text fill="#000000" font-family="sans-serif" font-size="13" lengthAdjust="spacing" textLength="76.9082" x="150.5" y="241.5669">implements</text></g><!--link Feature_User to logic_arc_int__baselibs__synchronized_queue--><g id="link_Feature_User_logic_arc_int__baselibs__synchronized_queue"><path codeLine="47" d="M2985.3,54.01 C2881.83,75.79 2631.9914,128.3644 2494.8014,157.2344 " fill="transparent" id="Feature_User-to-logic_arc_int__baselibs__synchronized_queue" style="stroke:#181818;stroke-width:1;"/><polygon fill="#181818" points="2488.93,158.47,2498.5608,160.5309,2493.8228,157.4404,2496.9134,152.7024,2488.93,158.47" style="stroke:#181818;stroke-width:1;"/><text fill="#000000" font-family="sans-serif" font-size="13" lengthAdjust="spacing" textLength="23.0103" x="2697.5" y="124.5669">use</text></g><!--link Feature_User to logic_arc_int__baselibs__executor--><g id="link_Feature_User_logic_arc_int__baselibs__executor"><path codeLine="48" d="M2985.38,48.7 C2833.63,62.93 2327.78,111.02 1910.5,158.5 C1904.72,159.16 1904.789,159.1401 1898.829,159.8401 " fill="transparent" id="Feature_User-to-logic_arc_int__baselibs__executor" style="stroke:#181818;stroke-width:1;"/><polygon fill="#181818" points="1892.87,160.54,1902.2752,163.4629,1897.8359,159.9568,1901.342,155.5175,1892.87,160.54" style="stroke:#181818;stroke-width:1;"/><text fill="#000000" font-family="sans-serif" font-size="13" lengthAdjust="spacing" textLength="23.0103" x="2342.5" y="124.5669">use</text></g><!--reverse link logic_arc_int__baselibs__executor to comp_arc_sta__baselibs__concurrency--><g id="link_logic_arc_int__baselibs__executor_comp_arc_sta__baselibs__concurrency"><path codeLine="49" d="M1723.4438,201.9169 C1689.1838,223.2069 1639.43,254.14 1605.26,275.38 " fill="transparent" id="logic_arc_int__baselibs__executor-backto-comp_arc_sta__baselibs__concurrency" style="stroke:#181818;stroke-width:1;"/><polygon fill="#181818" points="1728.54,198.75,1718.7845,200.1029,1724.2932,201.3891,1723.007,206.8978,1728.54,198.75" style="stroke:#181818;stroke-width:1;"/><text fill="#000000" font-family="sans-serif" font-size="13" lengthAdjust="spacing" textLength="76.9082" x="1679.5" y="241.5669">implements</text></g><!--link Feature_User to logic_arc_int__baselibs__utils_scoped_op--><g id="link_Feature_User_logic_arc_int__baselibs__utils_scoped_op"><path codeLine="50" d="M3075.68,47.19 C3261.14,58.38 3982.11,103.19 4573.5,158.5 C4579.47,159.06 4579.5784,159.0565 4585.7184,159.6565 " fill="transparent" id="Feature_User-to-logic_arc_int__baselibs__utils_scoped_op" style="stroke:#181818;stroke-width:1;"/><polygon fill="#181818" points="4591.69,160.24,4583.1217,155.3837,4586.7137,159.7537,4582.3436,163.3457,4591.69,160.24" style="stroke:#181818;stroke-width:1;"/><text fill="#000000" font-family="sans-serif" font-size="13" lengthAdjust="spacing" textLength="23.0103" x="4194.5" y="124.5669">use</text></g><!--link Feature_User to logic_arc_int__baselibs__result--><g id="link_Feature_User_logic_arc_int__baselibs__result"><path codeLine="51" d="M3075.69,45.72 C3282.91,51.38 4163.08,76.4 4884.5,111.5 C5226.07,128.12 5312.17,125.04 5652.5,158.5 C5658.36,159.08 5658.3875,159.0398 5664.4375,159.7198 " fill="transparent" id="Feature_User-to-logic_arc_int__baselibs__result" style="stroke:#181818;stroke-width:1;"/><polygon fill="#181818" points="5670.4,160.39,5661.9031,155.4098,5665.4313,159.8315,5661.0095,163.3597,5670.4,160.39" style="stroke:#181818;stroke-width:1;"/><text fill="#000000" font-family="sans-serif" font-size="13" lengthAdjust="spacing" textLength="23.0103" x="5257.5" y="124.5669">use</text></g><!--link Feature_User to logic_arc_int__baselibs__bit_mask_operator--><g id="link_Feature_User_logic_arc_int__baselibs__bit_mask_operator"><path codeLine="52" d="M3075.76,45.71 C3308.66,52.17 4395.31,85.05 5281.5,158.5 C5287.48,159 5287.603,158.9952 5293.753,159.5352 " fill="transparent" id="Feature_User-to-logic_arc_int__baselibs__bit_mask_operator" style="stroke:#181818;stroke-width:1;"/><polygon fill="#181818" points="5299.73,160.06,5291.1144,155.2881,5294.7492,159.6227,5290.4146,163.2575,5299.73,160.06" style="stroke:#181818;stroke-width:1;"/><text fill="#000000" font-family="sans-serif" font-size="13" lengthAdjust="spacing" textLength="23.0103" x="4852.5" y="124.5669">use</text></g><!--SRC=[jLOzRzmm3DtrAuJibnP5qI48iXJebB6T1LfcxjZemnMfD6xH_rxPTxZ4JXf_m1rfaq_YuoCfS2x-D9uUAUoLn4PBr5KKYLxNbD0AnQ0ELADcmOHHsWQFDlf6MWqYYQeioEgQfNLueow1oLNwjxgbW9-ZYqadh7lhwu7iVK1c_U7olVgZhj-TOXHOANuNNn0a9zJV6DE51jQd3wRxe9KQcBjwTwDTt9CraAoX8CPKmEYeOcDyEGRsQ1fWBibTwSoebOs-wRrPuBdtTuv1x_9RW9tBbIRVEFGOXFyDLf4O3u6QxA0ZS0BuwCxt9ZQOeF0mxnGRWq0XDV44Vjq6yFsl1Eqyx8ISdKpW7frcNzRcb33OTWBrBdSLdeUQXTnKzhsFOLl8hGl3G-05Uk8351cVh_UcckPdMpnhwZHY7Y0HL0x_eyIUt5UpCD9IpyA2y6AcpFI0nX7B18iUVKpjYVY910U-yoWS3OZ90qRZP5jzTlQdZwlByhA-IolpcX0tqlYeSrQcsAJeYN5vPiUvlJHAoa1U7dL73hajgz8lZnqAOSrzpnDvey8DC5UMRTIO6zviwyN3RR2750FzAcBzaJ7ZrYUS9RoIoxcxPzwpO3oBv-JwfE-fBVwi4TOkt5VgiRGhy15jxbzK6mdl2N1bLY-U8qjJ6lJuuXKnU6Ns47y1]--></g></svg>