<svg xmlns="http://www.w3.org/2000/svg" xmlns:xlink="http://www.w3.org/1999/xlink" contentStyleType="text/css" data-diagram-type="CLASS" height="322px" preserveAspectRatio="none" style="width:6190px;height:322px;background:#FFFFFF;" version="1.1" viewBox="0 0 6190 322" width="6190px" zoomAndPan="magnify"><defs/><g><!--entity Feature_User--><g id="elem_Feature_User"><ellipse cx="3171.1685" cy="14" fill="#F1F1F1" rx="8" ry="8" style="stroke:#181818;stroke-width:0.5;"/><path d="M3171.1685,22 L3171.1685,49 M3158.1685,30 L3184.1685,30 M3171.1685,49 L3158.1685,64 M3171.1685,49 L3184.1685,64 " fill="transparent" style="stroke:#181818;stroke-width:0.5;"/><text fill="#000000" font-family="sans-serif" font-size="14" lengthAdjust="spacing" textLength="90.3369" x="3126" y="78.4951">Feature User</text></g><!--class logic_arc_int__baselibs__future--><g id="elem_logic_arc_int__baselibs__future"><rect fill="#F1F1F1" height="40" id="logic_arc_int__baselibs__future" rx="2.5" ry="2.5" style="stroke:#181818;stroke-width:0.5;" width="247.0791" x="3974.5" y="158.5"/><ellipse cx="3989.5" cy="174.5" fill="#ADD1B2" rx="11" ry="11" style="stroke:#181818;stroke-width:1;"/><path d="M3992.4688,180.1406 Q3991.8906,180.4375 3991.25,180.5781 Q3990.6094,180.7344 3989.9063,180.7344 Q3987.4063,180.7344 3986.0781,179.0938 Q3984.7656,177.4375 3984.7656,174.3125 Q3984.7656,171.1875 3986.0781,169.5313 Q3987.4063,167.875 3989.9063,167.875 Q3990.6094,167.875 3991.25,168.0313 Q3991.9063,168.1875 3992.4688,168.4844 L3992.4688,171.2031 Q3991.8438,170.625 3991.25,170.3594 Q3990.6563,170.0781 3990.0313,170.0781 Q3988.6875,170.0781 3988,171.1563 Q3987.3125,172.2188 3987.3125,174.3125 Q3987.3125,176.4063 3988,177.4844 Q3988.6875,178.5469 3990.0313,178.5469 Q3990.6563,178.5469 3991.25,178.2813 Q3991.8438,178 3992.4688,177.4219 L3992.4688,180.1406 Z " fill="#000000"/><text fill="#000000" font-family="sans-serif" font-size="14" lengthAdjust="spacing" textLength="215.0791" x="4003.5" y="179.3467">logic_arc_int__baselibs__future</text><line style="stroke:#181818;stroke-width:0.5;" x1="3975.5" x2="4220.5791" y1="190.5" y2="190.5"/></g><!--class comp_arc_sta__baselibs__concurrency--><g id="elem_comp_arc_sta__baselibs__concurrency"><rect fill="#F1F1F1" height="40" id="comp_arc_sta__baselibs__concurrency" rx="2.5" ry="2.5" style="stroke:#181818;stroke-width:0.5;" width="300.2012" x="3142" y="275.5"/><ellipse cx="3157" cy="291.5" fill="#ADD1B2" rx="11" ry="11" style="stroke:#181818;stroke-width:1;"/><path d="M3159.9688,297.1406 Q3159.3906,297.4375 3158.75,297.5781 Q3158.1094,297.7344 3157.4063,297.7344 Q3154.9063,297.7344 3153.5781,296.0938 Q3152.2656,294.4375 3152.2656,291.3125 Q3152.2656,288.1875 3153.5781,286.5313 Q3154.9063,284.875 3157.4063,284.875 Q3158.1094,284.875 3158.75,285.0313 Q3159.4063,285.1875 3159.9688,285.4844 L3159.9688,288.2031 Q3159.3438,287.625 3158.75,287.3594 Q3158.1563,287.0781 3157.5313,287.0781 Q3156.1875,287.0781 3155.5,288.1563 Q3154.8125,289.2188 3154.8125,291.3125 Q3154.8125,293.4063 3155.5,294.4844 Q3156.1875,295.5469 3157.5313,295.5469 Q3158.1563,295.5469 3158.75,295.2813 Q3159.3438,295 3159.9688,294.4219 L3159.9688,297.1406 Z " fill="#000000"/><text fill="#000000" font-family="sans-serif" font-size="14" lengthAdjust="spacing" textLength="268.2012" x="3171" y="296.3467">comp_arc_sta__baselibs__concurrency</text><line style="stroke:#181818;stroke-width:0.5;" x1="3143" x2="3441.2012" y1="307.5" y2="307.5"/></g><!--class logic_arc_int__baselibs__shared_future--><g id="elem_logic_arc_int__baselibs__shared_future"><rect fill="#F1F1F1" height="40" id="logic_arc_int__baselibs__shared_future" rx="2.5" ry="2.5" style="stroke:#181818;stroke-width:0.5;" width="302.0811" x="2320" y="158.5"/><ellipse cx="2335" cy="174.5" fill="#ADD1B2" rx="11" ry="11" style="stroke:#181818;stroke-width:1;"/><path d="M2337.9688,180.1406 Q2337.3906,180.4375 2336.75,180.5781 Q2336.1094,180.7344 2335.4063,180.7344 Q2332.9063,180.7344 2331.5781,179.0938 Q2330.2656,177.4375 2330.2656,174.3125 Q2330.2656,171.1875 2331.5781,169.5313 Q2332.9063,167.875 2335.4063,167.875 Q2336.1094,167.875 2336.75,168.0313 Q2337.4063,168.1875 2337.9688,168.4844 L2337.9688,171.2031 Q2337.3438,170.625 2336.75,170.3594 Q2336.1563,170.0781 2335.5313,170.0781 Q2334.1875,170.0781 2333.5,171.1563 Q2332.8125,172.2188 2332.8125,174.3125 Q2332.8125,176.4063 2333.5,177.4844 Q2334.1875,178.5469 2335.5313,178.5469 Q2336.1563,178.5469 2336.75,178.2813 Q2337.3438,178 2337.9688,177.4219 L2337.9688,180.1406 Z " fill="#000000"/><text fill="#000000" font-family="sans-serif" font-size="14" lengthAdjust="spacing" textLength="270.0811" x="2349" y="179.3467">logic_arc_int__baselibs__shared_future</text><line style="stroke:#181818;stroke-width:0.5;" x1="2321" x2="2621.0811" y1="190.5" y2="190.5"/></g><!--class logic_arc_int__baselibs__json--><g id="elem_logic_arc_int__baselibs__json"><rect fill="#F1F1F1" height="40" id="logic_arc_int__baselibs__json" rx="2.5" ry="2.5" style="stroke:#181818;stroke-width:0.5;" width="233.168" x="11.5" y="158.5"/><ellipse cx="26.5" cy="174.5" fill="#ADD1B2" rx="11" ry="11" style="stroke:#181818;stroke-width:1;"/><path d="M29.4688,180.1406 Q28.8906,180.4375 28.25,180.5781 Q27.6094,180.7344 26.9063,180.7344 Q24.4063,180.7344 23.0781,179.0938 Q21.7656,177.4375 21.7656,174.3125 Q21.7656,171.1875 23.0781,169.5313 Q24.4063,167.875 26.9063,167.875 Q27.6094,167.875 28.25,168.0313 Q28.9063,168.1875 29.4688,168.4844 L29.4688,171.2031 Q28.8438,170.625 28.25,170.3594 Q27.6563,170.0781 27.0313,170.0781 Q25.6875,170.0781 25,171.1563 Q24.3125,172.2188 24.3125,174.3125 Q24.3125,176.4063 25,177.4844 Q25.6875,178.5469 27.0313,178.5469 Q27.6563,178.5469 28.25,178.2813 Q28.8438,178 29.4688,177.4219 L29.4688,180.1406 Z " fill="#000000"/><text fill="#000000" font-family="sans-serif" font-size="14" lengthAdjust="spacing" textLength="201.168" x="40.5" y="179.3467">logic_arc_int__baselibs__json</text><line style="stroke:#181818;stroke-width:0.5;" x1="12.5" x2="243.668" y1="190.5" y2="190.5"/></g><!--class comp_arc_sta__baselibs__utils--><g id="elem_comp_arc_sta__baselibs__utils"><rect fill="#F1F1F1" height="40" id="comp_arc_sta__baselibs__utils" rx="2.5" ry="2.5" style="stroke:#181818;stroke-width:0.5;" width="242.9502" x="5734.5" y="275.5"/><ellipse cx="5749.5" cy="291.5" fill="#ADD1B2" rx="11" ry="11" style="stroke:#181818;stroke-width:1;"/><path d="M5752.4688,297.1406 Q5751.8906,297.4375 5751.25,297.5781 Q5750.6094,297.7344 5749.9063,297.7344 Q5747.4063,297.7344 5746.0781,296.0938 Q5744.7656,294.4375 5744.7656,291.3125 Q5744.7656,288.1875 5746.0781,286.5313 Q5747.4063,284.875 5749.9063,284.875 Q5750.6094,284.875 5751.25,285.0313 Q5751.9063,285.1875 5752.4688,285.4844 L5752.4688,288.2031 Q5751.8438,287.625 5751.25,287.3594 Q5750.6563,287.0781 5750.0313,287.0781 Q5748.6875,287.0781 5748,288.1563 Q5747.3125,289.2188 5747.3125,291.3125 Q5747.3125,293.4063 5748,294.4844 Q5748.6875,295.5469 5750.0313,295.5469 Q5750.6563,295.5469 5751.25,295.2813 Q5751.8438,295 5752.4688,294.4219 L5752.4688,297.1406 Z " fill="#000000"/><text fill="#000000" font-family="sans-serif" font-size="14" lengthAdjust="spacing" textLength="210.9502" x="5763.5" y="296.3467">comp_arc_sta__baselibs__utils</text><line style="stroke:#181818;stroke-width:0.5;" x1="5735.5" x2="5976.4502" y1="307.5" y2="307.5"/></g><!--class logic_arc_int__baselibs__utils_base64--><g id="elem_logic_arc_int__baselibs__utils_base64"><rect fill="#F1F1F1" height="40" id="logic_arc_int__baselibs__utils_base64" rx="2.5" ry="2.5" style="stroke:#181818;stroke-width:0.5;" width="292.1689" x="5541" y="158.5"/><ellipse cx="5556" cy="174.5" fill="#ADD1B2" rx="11" ry="11" style="stroke:#181818;stroke-width:1;"/><path d="M5558.9688,180.1406 Q5558.3906,180.4375 5557.75,180.5781 Q5557.1094,180.7344 5556.4063,180.7344 Q5553.9063,180.7344 5552.5781,179.0938 Q5551.2656,177.4375 5551.2656,174.3125 Q5551.2656,171.1875 5552.5781,169.5313 Q5553.9063,167.875 5556.4063,167.875 Q5557.1094,167.875 5557.75,168.0313 Q5558.4063,168.1875 5558.9688,168.4844 L5558.9688,171.2031 Q5558.3438,170.625 5557.75,170.3594 Q5557.1563,170.0781 5556.5313,170.0781 Q5555.1875,170.0781 5554.5,171.1563 Q5553.8125,172.2188 5553.8125,174.3125 Q5553.8125,176.4063 5554.5,177.4844 Q5555.1875,178.5469 5556.5313,178.5469 Q5557.1563,178.5469 5557.75,178.2813 Q5558.3438,178 5558.9688,177.4219 L5558.9688,180.1406 Z " fill="#000000"/><text fill="#000000" font-family="sans-serif" font-size="14" lengthAdjust="spacing" textLength="260.1689" x="5570" y="179.3467">logic_arc_int__baselibs__utils_base64</text><line style="stroke:#181818;stroke-width:0.5;" x1="5542" x2="5832.1689" y1="190.5" y2="190.5"/></g><!--class comp_arc_sta__baselibs__filesystem--><g id="elem_comp_arc_sta__baselibs__filesystem"><rect fill="#F1F1F1" height="40" id="comp_arc_sta__baselibs__filesystem" rx="2.5" ry="2.5" style="stroke:#181818;stroke-width:0.5;" width="285.4492" x="5225.5" y="275.5"/><ellipse cx="5240.5" cy="291.5" fill="#ADD1B2" rx="11" ry="11" style="stroke:#181818;stroke-width:1;"/><path d="M5243.4688,297.1406 Q5242.8906,297.4375 5242.25,297.5781 Q5241.6094,297.7344 5240.9063,297.7344 Q5238.4063,297.7344 5237.0781,296.0938 Q5235.7656,294.4375 5235.7656,291.3125 Q5235.7656,288.1875 5237.0781,286.5313 Q5238.4063,284.875 5240.9063,284.875 Q5241.6094,284.875 5242.25,285.0313 Q5242.9063,285.1875 5243.4688,285.4844 L5243.4688,288.2031 Q5242.8438,287.625 5242.25,287.3594 Q5241.6563,287.0781 5241.0313,287.0781 Q5239.6875,287.0781 5239,288.1563 Q5238.3125,289.2188 5238.3125,291.3125 Q5238.3125,293.4063 5239,294.4844 Q5239.6875,295.5469 5241.0313,295.5469 Q5241.6563,295.5469 5242.25,295.2813 Q5242.8438,295 5243.4688,294.4219 L5243.4688,297.1406 Z " fill="#000000"/><text fill="#000000" font-family="sans-serif" font-size="14" lengthAdjust="spacing" textLength="253.4492" x="5254.5" y="296.3467">comp_arc_sta__baselibs__filesystem</text><line style="stroke:#181818;stroke-width:0.5;" x1="5226.5" x2="5509.9492" y1="307.5" y2="307.5"/></g><!--class logic_arc_int__baselibs__filesystem--><g id="elem_logic_arc_int__baselibs__filesystem"><rect fill="#F1F1F1" height="40" id="logic_arc_int__baselibs__filesystem" rx="2.5" ry="2.5" style="stroke:#181818;stroke-width:0.5;" width="276.4805" x="5230" y="158.5"/><ellipse cx="5245" cy="174.5" fill="#ADD1B2" rx="11" ry="11" style="stroke:#181818;stroke-width:1;"/><path d="M5247.9688,180.1406 Q5247.3906,180.4375 5246.75,180.5781 Q5246.1094,180.7344 5245.4063,180.7344 Q5242.9063,180.7344 5241.5781,179.0938 Q5240.2656,177.4375 5240.2656,174.3125 Q5240.2656,171.1875 5241.5781,169.5313 Q5242.9063,167.875 5245.4063,167.875 Q5246.1094,167.875 5246.75,168.0313 Q5247.4063,168.1875 5247.9688,168.4844 L5247.9688,171.2031 Q5247.3438,170.625 5246.75,170.3594 Q5246.1563,170.0781 5245.5313,170.0781 Q5244.1875,170.0781 5243.5,171.1563 Q5242.8125,172.2188 5242.8125,174.3125 Q5242.8125,176.4063 5243.5,177.4844 Q5244.1875,178.5469 5245.5313,178.5469 Q5246.1563,178.5469 5246.75,178.2813 Q5247.3438,178 5247.9688,177.4219 L5247.9688,180.1406 Z " fill="#000000"/><text fill="#000000" font-family="sans-serif" font-size="14" lengthAdjust="spacing" textLength="244.4805" x="5259" y="179.3467">logic_arc_int__baselibs__filesystem</text><line style="stroke:#181818;stroke-width:0.5;" x1="5231" x2="5505.4805" y1="190.5" y2="190.5"/></g><!--class logic_arc_int__baselibs__utils_scoped_op--><g id="elem_logic_arc_int__baselibs__utils_scoped_op"><rect fill="#F1F1F1" height="40" id="logic_arc_int__baselibs__utils_scoped_op" rx="2.5" ry="2.5" style="stroke:#181818;stroke-width:0.5;" width="315.377" x="5868.5" y="158.5"/><ellipse cx="5883.5" cy="174.5" fill="#ADD1B2" rx="11" ry="11" style="stroke:#181818;stroke-width:1;"/><path d="M5886.4688,180.1406 Q5885.8906,180.4375 5885.25,180.5781 Q5884.6094,180.7344 5883.9063,180.7344 Q5881.4063,180.7344 5880.0781,179.0938 Q5878.7656,177.4375 5878.7656,174.3125 Q5878.7656,171.1875 5880.0781,169.5313 Q5881.4063,167.875 5883.9063,167.875 Q5884.6094,167.875 5885.25,168.0313 Q5885.9063,168.1875 5886.4688,168.4844 L5886.4688,171.2031 Q5885.8438,170.625 5885.25,170.3594 Q5884.6563,170.0781 5884.0313,170.0781 Q5882.6875,170.0781 5882,171.1563 Q5881.3125,172.2188 5881.3125,174.3125 Q5881.3125,176.4063 5882,177.4844 Q5882.6875,178.5469 5884.0313,178.5469 Q5884.6563,178.5469 5885.25,178.2813 Q5885.8438,178 5886.4688,177.4219 L5886.4688,180.1406 Z " fill="#000000"/><text fill="#000000" font-family="sans-serif" font-size="14" lengthAdjust="spacing" textLength="283.377" x="5897.5" y="179.3467">logic_arc_int__baselibs__utils_scoped_op</text><line style="stroke:#181818;stroke-width:0.5;" x1="5869.5" x2="6182.877" y1="190.5" y2="190.5"/></g><!--class logic_arc_int__baselibs__memory_shared--><g id="elem_logic_arc_int__baselibs__memory_shared"><rect fill="#F1F1F1" height="40" id="logic_arc_int__baselibs__memory_shared" rx="2.5" ry="2.5" style="stroke:#181818;stroke-width:0.5;" width="318.043" x="1287" y="158.5"/><ellipse cx="1302" cy="174.5" fill="#ADD1B2" rx="11" ry="11" style="stroke:#181818;stroke-width:1;"/><path d="M1304.9688,180.1406 Q1304.3906,180.4375 1303.75,180.5781 Q1303.1094,180.7344 1302.4063,180.7344 Q1299.9063,180.7344 1298.5781,179.0938 Q1297.2656,177.4375 1297.2656,174.3125 Q1297.2656,171.1875 1298.5781,169.5313 Q1299.9063,167.875 1302.4063,167.875 Q1303.1094,167.875 1303.75,168.0313 Q1304.4063,168.1875 1304.9688,168.4844 L1304.9688,171.2031 Q1304.3438,170.625 1303.75,170.3594 Q1303.1563,170.0781 1302.5313,170.0781 Q1301.1875,170.0781 1300.5,171.1563 Q1299.8125,172.2188 1299.8125,174.3125 Q1299.8125,176.4063 1300.5,177.4844 Q1301.1875,178.5469 1302.5313,178.5469 Q1303.1563,178.5469 1303.75,178.2813 Q1304.3438,178 1304.9688,177.4219 L1304.9688,180.1406 Z " fill="#000000"/><text fill="#000000" font-family="sans-serif" font-size="14" lengthAdjust="spacing" textLength="286.043" x="1316" y="179.3467">logic_arc_int__baselibs__memory_shared</text><line style="stroke:#181818;stroke-width:0.5;" x1="1288" x2="1604.043" y1="190.5" y2="190.5"/></g><!--class logic_arc_int__baselibs__condition_variable--><g id="elem_logic_arc_int__baselibs__condition_variable"><rect fill="#F1F1F1" height="40" id="logic_arc_int__baselibs__condition_variable" rx="2.5" ry="2.5" style="stroke:#181818;stroke-width:0.5;" width="332.7539" x="3606.5" y="158.5"/><ellipse cx="3621.5" cy="174.5" fill="#ADD1B2" rx="11" ry="11" style="stroke:#181818;stroke-width:1;"/><path d="M3624.4688,180.1406 Q3623.8906,180.4375 3623.25,180.5781 Q3622.6094,180.7344 3621.9063,180.7344 Q3619.4063,180.7344 3618.0781,179.0938 Q3616.7656,177.4375 3616.7656,174.3125 Q3616.7656,171.1875 3618.0781,169.5313 Q3619.4063,167.875 3621.9063,167.875 Q3622.6094,167.875 3623.25,168.0313 Q3623.9063,168.1875 3624.4688,168.4844 L3624.4688,171.2031 Q3623.8438,170.625 3623.25,170.3594 Q3622.6563,170.0781 3622.0313,170.0781 Q3620.6875,170.0781 3620,171.1563 Q3619.3125,172.2188 3619.3125,174.3125 Q3619.3125,176.4063 3620,177.4844 Q3620.6875,178.5469 3622.0313,178.5469 Q3622.6563,178.5469 3623.25,178.2813 Q3623.8438,178 3624.4688,177.4219 L3624.4688,180.1406 Z " fill="#000000"/><text fill="#000000" font-family="sans-serif" font-size="14" lengthAdjust="spacing" textLength="300.7539" x="3635.5" y="179.3467">logic_arc_int__baselibs__condition_variable</text><line style="stroke:#181818;stroke-width:0.5;" x1="3607.5" x2="3938.2539" y1="190.5" y2="190.5"/></g><!--class comp_arc_sta__baselibs__containers--><g id="elem_comp_arc_sta__baselibs__containers"><rect fill="#F1F1F1" height="40" id="comp_arc_sta__baselibs__containers" rx="2.5" ry="2.5" style="stroke:#181818;stroke-width:0.5;" width="287.1445" x="4675.5" y="275.5"/><ellipse cx="4690.5" cy="291.5" fill="#ADD1B2" rx="11" ry="11" style="stroke:#181818;stroke-width:1;"/><path d="M4693.4688,297.1406 Q4692.8906,297.4375 4692.25,297.5781 Q4691.6094,297.7344 4690.9063,297.7344 Q4688.4063,297.7344 4687.0781,296.0938 Q4685.7656,294.4375 4685.7656,291.3125 Q4685.7656,288.1875 4687.0781,286.5313 Q4688.4063,284.875 4690.9063,284.875 Q4691.6094,284.875 4692.25,285.0313 Q4692.9063,285.1875 4693.4688,285.4844 L4693.4688,288.2031 Q4692.8438,287.625 4692.25,287.3594 Q4691.6563,287.0781 4691.0313,287.0781 Q4689.6875,287.0781 4689,288.1563 Q4688.3125,289.2188 4688.3125,291.3125 Q4688.3125,293.4063 4689,294.4844 Q4689.6875,295.5469 4691.0313,295.5469 Q4691.6563,295.5469 4692.25,295.2813 Q4692.8438,295 4693.4688,294.4219 L4693.4688,297.1406 Z " fill="#000000"/><text fill="#000000" font-family="sans-serif" font-size="14" lengthAdjust="spacing" textLength="255.1445" x="4704.5" y="296.3467">comp_arc_sta__baselibs__containers</text><line style="stroke:#181818;stroke-width:0.5;" x1="4676.5" x2="4961.6445" y1="307.5" y2="307.5"/></g><!--class logic_arc_int__baselibs__intrusive_list--><g id="elem_logic_arc_int__baselibs__intrusive_list"><rect fill="#F1F1F1" height="40" id="logic_arc_int__baselibs__intrusive_list" rx="2.5" ry="2.5" style="stroke:#181818;stroke-width:0.5;" width="293.0713" x="4558.5" y="158.5"/><ellipse cx="4573.5" cy="174.5" fill="#ADD1B2" rx="11" ry="11" style="stroke:#181818;stroke-width:1;"/><path d="M4576.4688,180.1406 Q4575.8906,180.4375 4575.25,180.5781 Q4574.6094,180.7344 4573.9063,180.7344 Q4571.4063,180.7344 4570.0781,179.0938 Q4568.7656,177.4375 4568.7656,174.3125 Q4568.7656,171.1875 4570.0781,169.5313 Q4571.4063,167.875 4573.9063,167.875 Q4574.6094,167.875 4575.25,168.0313 Q4575.9063,168.1875 4576.4688,168.4844 L4576.4688,171.2031 Q4575.8438,170.625 4575.25,170.3594 Q4574.6563,170.0781 4574.0313,170.0781 Q4572.6875,170.0781 4572,171.1563 Q4571.3125,172.2188 4571.3125,174.3125 Q4571.3125,176.4063 4572,177.4844 Q4572.6875,178.5469 4574.0313,178.5469 Q4574.6563,178.5469 4575.25,178.2813 Q4575.8438,178 4576.4688,177.4219 L4576.4688,180.1406 Z " fill="#000000"/><text fill="#000000" font-family="sans-serif" font-size="14" lengthAdjust="spacing" textLength="261.0713" x="4587.5" y="179.3467">logic_arc_int__baselibs__intrusive_list</text><line style="stroke:#181818;stroke-width:0.5;" x1="4559.5" x2="4850.5713" y1="190.5" y2="190.5"/></g><!--class logic_arc_int__baselibs__bit_mask_operator--><g id="elem_logic_arc_int__baselibs__bit_mask_operator"><rect fill="#F1F1F1" height="40" id="logic_arc_int__baselibs__bit_mask_operator" rx="2.5" ry="2.5" style="stroke:#181818;stroke-width:0.5;" width="334.6406" x="637.5" y="158.5"/><ellipse cx="652.5" cy="174.5" fill="#ADD1B2" rx="11" ry="11" style="stroke:#181818;stroke-width:1;"/><path d="M655.4688,180.1406 Q654.8906,180.4375 654.25,180.5781 Q653.6094,180.7344 652.9063,180.7344 Q650.4063,180.7344 649.0781,179.0938 Q647.7656,177.4375 647.7656,174.3125 Q647.7656,171.1875 649.0781,169.5313 Q650.4063,167.875 652.9063,167.875 Q653.6094,167.875 654.25,168.0313 Q654.9063,168.1875 655.4688,168.4844 L655.4688,171.2031 Q654.8438,170.625 654.25,170.3594 Q653.6563,170.0781 653.0313,170.0781 Q651.6875,170.0781 651,171.1563 Q650.3125,172.2188 650.3125,174.3125 Q650.3125,176.4063 651,177.4844 Q651.6875,178.5469 653.0313,178.5469 Q653.6563,178.5469 654.25,178.2813 Q654.8438,178 655.4688,177.4219 L655.4688,180.1406 Z " fill="#000000"/><text fill="#000000" font-family="sans-serif" font-size="14" lengthAdjust="spacing" textLength="302.6406" x="666.5" y="179.3467">logic_arc_int__baselibs__bit_mask_operator</text><line style="stroke:#181818;stroke-width:0.5;" x1="638.5" x2="971.1406" y1="190.5" y2="190.5"/></g><!--class logic_arc_int__baselibs__dynamic_array--><g id="elem_logic_arc_int__baselibs__dynamic_array"><rect fill="#F1F1F1" height="40" id="logic_arc_int__baselibs__dynamic_array" rx="2.5" ry="2.5" style="stroke:#181818;stroke-width:0.5;" width="308.3496" x="4887" y="158.5"/><ellipse cx="4902" cy="174.5" fill="#ADD1B2" rx="11" ry="11" style="stroke:#181818;stroke-width:1;"/><path d="M4904.9688,180.1406 Q4904.3906,180.4375 4903.75,180.5781 Q4903.1094,180.7344 4902.4063,180.7344 Q4899.9063,180.7344 4898.5781,179.0938 Q4897.2656,177.4375 4897.2656,174.3125 Q4897.2656,171.1875 4898.5781,169.5313 Q4899.9063,167.875 4902.4063,167.875 Q4903.1094,167.875 4903.75,168.0313 Q4904.4063,168.1875 4904.9688,168.4844 L4904.9688,171.2031 Q4904.3438,170.625 4903.75,170.3594 Q4903.1563,170.0781 4902.5313,170.0781 Q4901.1875,170.0781 4900.5,171.1563 Q4899.8125,172.2188 4899.8125,174.3125 Q4899.8125,176.4063 4900.5,177.4844 Q4901.1875,178.5469 4902.5313,178.5469 Q4903.1563,178.5469 4903.75,178.2813 Q4904.3438,178 4904.9688,177.4219 L4904.9688,180.1406 Z " fill="#000000"/><text fill="#000000" font-family="sans-serif" font-size="14" lengthAdjust="spacing" textLength="276.3496" x="4916" y="179.3467">logic_arc_int__baselibs__dynamic_array</text><line style="stroke:#181818;stroke-width:0.5;" x1="4888" x2="5194.3496" y1="190.5" y2="190.5"/></g><!--class logic_arc_int__baselibs__synchronized_queue--><g id="elem_logic_arc_int__baselibs__synchronized_queue"><rect fill="#F1F1F1" height="40" id="logic_arc_int__baselibs__synchronized_queue" rx="2.5" ry="2.5" style="stroke:#181818;stroke-width:0.5;" width="348.3604" x="2657" y="158.5"/><ellipse cx="2672" cy="174.5" fill="#ADD1B2" rx="11" ry="11" style="stroke:#181818;stroke-width:1;"/><path d="M2674.9688,180.1406 Q2674.3906,180.4375 2673.75,180.5781 Q2673.1094,180.7344 2672.4063,180.7344 Q2669.9063,180.7344 2668.5781,179.0938 Q2667.2656,177.4375 2667.2656,174.3125 Q2667.2656,171.1875 2668.5781,169.5313 Q2669.9063,167.875 2672.4063,167.875 Q2673.1094,167.875 2673.75,168.0313 Q2674.4063,168.1875 2674.9688,168.4844 L2674.9688,171.2031 Q2674.3438,170.625 2673.75,170.3594 Q2673.1563,170.0781 2672.5313,170.0781 Q2671.1875,170.0781 2670.5,171.1563 Q2669.8125,172.2188 2669.8125,174.3125 Q2669.8125,176.4063 2670.5,177.4844 Q2671.1875,178.5469 2672.5313,178.5469 Q2673.1563,178.5469 2673.75,178.2813 Q2674.3438,178 2674.9688,177.4219 L2674.9688,180.1406 Z " fill="#000000"/><text fill="#000000" font-family="sans-serif" font-size="14" lengthAdjust="spacing" textLength="316.3604" x="2686" y="179.3467">logic_arc_int__baselibs__synchronized_queue</text><line style="stroke:#181818;stroke-width:0.5;" x1="2658" x2="3004.3604" y1="190.5" y2="190.5"/></g><!--class logic_arc_int__baselibs__task_result--><g id="elem_logic_arc_int__baselibs__task_result"><rect fill="#F1F1F1" height="40" id="logic_arc_int__baselibs__task_result" rx="2.5" ry="2.5" style="stroke:#181818;stroke-width:0.5;" width="280.9307" x="2003.5" y="158.5"/><ellipse cx="2018.5" cy="174.5" fill="#ADD1B2" rx="11" ry="11" style="stroke:#181818;stroke-width:1;"/><path d="M2021.4688,180.1406 Q2020.8906,180.4375 2020.25,180.5781 Q2019.6094,180.7344 2018.9063,180.7344 Q2016.4063,180.7344 2015.0781,179.0938 Q2013.7656,177.4375 2013.7656,174.3125 Q2013.7656,171.1875 2015.0781,169.5313 Q2016.4063,167.875 2018.9063,167.875 Q2019.6094,167.875 2020.25,168.0313 Q2020.9063,168.1875 2021.4688,168.4844 L2021.4688,171.2031 Q2020.8438,170.625 2020.25,170.3594 Q2019.6563,170.0781 2019.0313,170.0781 Q2017.6875,170.0781 2017,171.1563 Q2016.3125,172.2188 2016.3125,174.3125 Q2016.3125,176.4063 2017,177.4844 Q2017.6875,178.5469 2019.0313,178.5469 Q2019.6563,178.5469 2020.25,178.2813 Q2020.8438,178 2021.4688,177.4219 L2021.4688,180.1406 Z " fill="#000000"/><text fill="#000000" font-family="sans-serif" font-size="14" lengthAdjust="spacing" textLength="248.9307" x="2032.5" y="179.3467">logic_arc_int__baselibs__task_result</text><line style="stroke:#181818;stroke-width:0.5;" x1="2004.5" x2="2283.4307" y1="190.5" y2="190.5"/></g><!--class logic_arc_int__baselibs__result--><g id="elem_logic_arc_int__baselibs__result"><rect fill="#F1F1F1" height="40" id="logic_arc_int__baselibs__result" rx="2.5" ry="2.5" style="stroke:#181818;stroke-width:0.5;" width="244.4609" x="1008" y="158.5"/><ellipse cx="1023" cy="174.5" fill="#ADD1B2" rx="11" ry="11" style="stroke:#181818;stroke-width:1;"/><path d="M1025.9688,180.1406 Q1025.3906,180.4375 1024.75,180.5781 Q1024.1094,180.7344 1023.4063,180.7344 Q1020.9063,180.7344 1019.5781,179.0938 Q1018.2656,177.4375 1018.2656,174.3125 Q1018.2656,171.1875 1019.5781,169.5313 Q1020.9063,167.875 1023.4063,167.875 Q1024.1094,167.875 1024.75,168.0313 Q1025.4063,168.1875 1025.9688,168.4844 L1025.9688,171.2031 Q1025.3438,170.625 1024.75,170.3594 Q1024.1563,170.0781 1023.5313,170.0781 Q1022.1875,170.0781 1021.5,171.1563 Q1020.8125,172.2188 1020.8125,174.3125 Q1020.8125,176.4063 1021.5,177.4844 Q1022.1875,178.5469 1023.5313,178.5469 Q1024.1563,178.5469 1024.75,178.2813 Q1025.3438,178 1025.9688,177.4219 L1025.9688,180.1406 Z " fill="#000000"/><text fill="#000000" font-family="sans-serif" font-size="14" lengthAdjust="spacing" textLength="212.4609" x="1037" y="179.3467">logic_arc_int__baselibs__result</text><line style="stroke:#181818;stroke-width:0.5;" x1="1009" x2="1251.4609" y1="190.5" y2="190.5"/></g><!--class logic_arc_int__baselibs__promise--><g id="elem_logic_arc_int__baselibs__promise"><rect fill="#F1F1F1" height="40" id="logic_arc_int__baselibs__promise" rx="2.5" ry="2.5" style="stroke:#181818;stroke-width:0.5;" width="261.1885" x="3040.5" y="158.5"/><ellipse cx="3055.5" cy="174.5" fill="#ADD1B2" rx="11" ry="11" style="stroke:#181818;stroke-width:1;"/><path d="M3058.4688,180.1406 Q3057.8906,180.4375 3057.25,180.5781 Q3056.6094,180.7344 3055.9063,180.7344 Q3053.4063,180.7344 3052.0781,179.0938 Q3050.7656,177.4375 3050.7656,174.3125 Q3050.7656,171.1875 3052.0781,169.5313 Q3053.4063,167.875 3055.9063,167.875 Q3056.6094,167.875 3057.25,168.0313 Q3057.9063,168.1875 3058.4688,168.4844 L3058.4688,171.2031 Q3057.8438,170.625 3057.25,170.3594 Q3056.6563,170.0781 3056.0313,170.0781 Q3054.6875,170.0781 3054,171.1563 Q3053.3125,172.2188 3053.3125,174.3125 Q3053.3125,176.4063 3054,177.4844 Q3054.6875,178.5469 3056.0313,178.5469 Q3056.6563,178.5469 3057.25,178.2813 Q3057.8438,178 3058.4688,177.4219 L3058.4688,180.1406 Z " fill="#000000"/><text fill="#000000" font-family="sans-serif" font-size="14" lengthAdjust="spacing" textLength="229.1885" x="3069.5" y="179.3467">logic_arc_int__baselibs__promise</text><line style="stroke:#181818;stroke-width:0.5;" x1="3041.5" x2="3300.6885" y1="190.5" y2="190.5"/></g><!--class logic_arc_int__baselibs__executor--><g id="elem_logic_arc_int__baselibs__executor"><rect fill="#F1F1F1" height="40" id="logic_arc_int__baselibs__executor" rx="2.5" ry="2.5" style="stroke:#181818;stroke-width:0.5;" width="266.4385" x="4257" y="158.5"/><ellipse cx="4272" cy="174.5" fill="#ADD1B2" rx="11" ry="11" style="stroke:#181818;stroke-width:1;"/><path d="M4274.9688,180.1406 Q4274.3906,180.4375 4273.75,180.5781 Q4273.1094,180.7344 4272.4063,180.7344 Q4269.9063,180.7344 4268.5781,179.0938 Q4267.2656,177.4375 4267.2656,174.3125 Q4267.2656,171.1875 4268.5781,169.5313 Q4269.9063,167.875 4272.4063,167.875 Q4273.1094,167.875 4273.75,168.0313 Q4274.4063,168.1875 4274.9688,168.4844 L4274.9688,171.2031 Q4274.3438,170.625 4273.75,170.3594 Q4273.1563,170.0781 4272.5313,170.0781 Q4271.1875,170.0781 4270.5,171.1563 Q4269.8125,172.2188 4269.8125,174.3125 Q4269.8125,176.4063 4270.5,177.4844 Q4271.1875,178.5469 4272.5313,178.5469 Q4273.1563,178.5469 4273.75,178.2813 Q4274.3438,178 4274.9688,177.4219 L4274.9688,180.1406 Z " fill="#000000"/><text fill="#000000" font-family="sans-serif" font-size="14" lengthAdjust="spacing" textLength="234.4385" x="4286" y="179.3467">logic_arc_int__baselibs__executor</text><line style="stroke:#181818;stroke-width:0.5;" x1="4258" x2="4522.4385" y1="190.5" y2="190.5"/></g><!--class comp_arc_sta__baselibs__message_passing--><g id="elem_comp_arc_sta__baselibs__message_passing"><rect fill="#F1F1F1" height="40" id="comp_arc_sta__baselibs__message_passing" rx="2.5" ry="2.5" style="stroke:#181818;stroke-width:0.5;" width="337.1357" x="1644.5" y="275.5"/><ellipse cx="1659.5" cy="291.5" fill="#ADD1B2" rx="11" ry="11" style="stroke:#181818;stroke-width:1;"/><path d="M1662.4688,297.1406 Q1661.8906,297.4375 1661.25,297.5781 Q1660.6094,297.7344 1659.9063,297.7344 Q1657.4063,297.7344 1656.0781,296.0938 Q1654.7656,294.4375 1654.7656,291.3125 Q1654.7656,288.1875 1656.0781,286.5313 Q1657.4063,284.875 1659.9063,284.875 Q1660.6094,284.875 1661.25,285.0313 Q1661.9063,285.1875 1662.4688,285.4844 L1662.4688,288.2031 Q1661.8438,287.625 1661.25,287.3594 Q1660.6563,287.0781 1660.0313,287.0781 Q1658.6875,287.0781 1658,288.1563 Q1657.3125,289.2188 1657.3125,291.3125 Q1657.3125,293.4063 1658,294.4844 Q1658.6875,295.5469 1660.0313,295.5469 Q1660.6563,295.5469 1661.25,295.2813 Q1661.8438,295 1662.4688,294.4219 L1662.4688,297.1406 Z " fill="#000000"/><text fill="#000000" font-family="sans-serif" font-size="14" lengthAdjust="spacing" textLength="305.1357" x="1673.5" y="296.3467">comp_arc_sta__baselibs__message_passing</text><line style="stroke:#181818;stroke-width:0.5;" x1="1645.5" x2="1980.6357" y1="307.5" y2="307.5"/></g><!--class logic_arc_int__baselibs__message_passing--><g id="elem_logic_arc_int__baselibs__message_passing"><rect fill="#F1F1F1" height="40" id="logic_arc_int__baselibs__message_passing" rx="2.5" ry="2.5" style="stroke:#181818;stroke-width:0.5;" width="328.167" x="1640" y="158.5"/><ellipse cx="1655" cy="174.5" fill="#ADD1B2" rx="11" ry="11" style="stroke:#181818;stroke-width:1;"/><path d="M1657.9688,180.1406 Q1657.3906,180.4375 1656.75,180.5781 Q1656.1094,180.7344 1655.4063,180.7344 Q1652.9063,180.7344 1651.5781,179.0938 Q1650.2656,177.4375 1650.2656,174.3125 Q1650.2656,171.1875 1651.5781,169.5313 Q1652.9063,167.875 1655.4063,167.875 Q1656.1094,167.875 1656.75,168.0313 Q1657.4063,168.1875 1657.9688,168.4844 L1657.9688,171.2031 Q1657.3438,170.625 1656.75,170.3594 Q1656.1563,170.0781 1655.5313,170.0781 Q1654.1875,170.0781 1653.5,171.1563 Q1652.8125,172.2188 1652.8125,174.3125 Q1652.8125,176.4063 1653.5,177.4844 Q1654.1875,178.5469 1655.5313,178.5469 Q1656.1563,178.5469 1656.75,178.2813 Q1657.3438,178 1657.9688,177.4219 L1657.9688,180.1406 Z " fill="#000000"/><text fill="#000000" font-family="sans-serif" font-size="14" lengthAdjust="spacing" textLength="296.167" x="1669" y="179.3467">logic_arc_int__baselibs__message_passing</text><line style="stroke:#181818;stroke-width:0.5;" x1="1641" x2="1967.167" y1="190.5" y2="190.5"/></g><!--class comp_arc_sta__baselibs__memory_shared--><g id="elem_comp_arc_sta__baselibs__memory_shared"><rect fill="#F1F1F1" height="40" id="comp_arc_sta__baselibs__memory_shared" rx="2.5" ry="2.5" style="stroke:#181818;stroke-width:0.5;" width="327.0117" x="1282.5" y="275.5"/><ellipse cx="1297.5" cy="291.5" fill="#ADD1B2" rx="11" ry="11" style="stroke:#181818;stroke-width:1;"/><path d="M1300.4688,297.1406 Q1299.8906,297.4375 1299.25,297.5781 Q1298.6094,297.7344 1297.9063,297.7344 Q1295.4063,297.7344 1294.0781,296.0938 Q1292.7656,294.4375 1292.7656,291.3125 Q1292.7656,288.1875 1294.0781,286.5313 Q1295.4063,284.875 1297.9063,284.875 Q1298.6094,284.875 1299.25,285.0313 Q1299.9063,285.1875 1300.4688,285.4844 L1300.4688,288.2031 Q1299.8438,287.625 1299.25,287.3594 Q1298.6563,287.0781 1298.0313,287.0781 Q1296.6875,287.0781 1296,288.1563 Q1295.3125,289.2188 1295.3125,291.3125 Q1295.3125,293.4063 1296,294.4844 Q1296.6875,295.5469 1298.0313,295.5469 Q1298.6563,295.5469 1299.25,295.2813 Q1299.8438,295 1300.4688,294.4219 L1300.4688,297.1406 Z " fill="#000000"/><text fill="#000000" font-family="sans-serif" font-size="14" lengthAdjust="spacing" textLength="295.0117" x="1311.5" y="296.3467">comp_arc_sta__baselibs__memory_shared</text><line style="stroke:#181818;stroke-width:0.5;" x1="1283.5" x2="1608.5117" y1="307.5" y2="307.5"/></g><!--class comp_arc_sta__baselibs__bit_manipulation--><g id="elem_comp_arc_sta__baselibs__bit_manipulation"><rect fill="#F1F1F1" height="40" id="comp_arc_sta__baselibs__bit_manipulation" rx="2.5" ry="2.5" style="stroke:#181818;stroke-width:0.5;" width="330.8057" x="456.5" y="275.5"/><ellipse cx="471.5" cy="291.5" fill="#ADD1B2" rx="11" ry="11" style="stroke:#181818;stroke-width:1;"/><path d="M474.4688,297.1406 Q473.8906,297.4375 473.25,297.5781 Q472.6094,297.7344 471.9063,297.7344 Q469.4063,297.7344 468.0781,296.0938 Q466.7656,294.4375 466.7656,291.3125 Q466.7656,288.1875 468.0781,286.5313 Q469.4063,284.875 471.9063,284.875 Q472.6094,284.875 473.25,285.0313 Q473.9063,285.1875 474.4688,285.4844 L474.4688,288.2031 Q473.8438,287.625 473.25,287.3594 Q472.6563,287.0781 472.0313,287.0781 Q470.6875,287.0781 470,288.1563 Q469.3125,289.2188 469.3125,291.3125 Q469.3125,293.4063 470,294.4844 Q470.6875,295.5469 472.0313,295.5469 Q472.6563,295.5469 473.25,295.2813 Q473.8438,295 474.4688,294.4219 L474.4688,297.1406 Z " fill="#000000"/><text fill="#000000" font-family="sans-serif" font-size="14" lengthAdjust="spacing" textLength="298.8057" x="485.5" y="296.3467">comp_arc_sta__baselibs__bit_manipulation</text><line style="stroke:#181818;stroke-width:0.5;" x1="457.5" x2="786.3057" y1="307.5" y2="307.5"/></g><!--class logic_arc_int__baselibs__bit_manipulation--><g id="elem_logic_arc_int__baselibs__bit_manipulation"><rect fill="#F1F1F1" height="40" id="logic_arc_int__baselibs__bit_manipulation" rx="2.5" ry="2.5" style="stroke:#181818;stroke-width:0.5;" width="321.8369" x="280" y="158.5"/><ellipse cx="295" cy="174.5" fill="#ADD1B2" rx="11" ry="11" style="stroke:#181818;stroke-width:1;"/><path d="M297.9688,180.1406 Q297.3906,180.4375 296.75,180.5781 Q296.1094,180.7344 295.4063,180.7344 Q292.9063,180.7344 291.5781,179.0938 Q290.2656,177.4375 290.2656,174.3125 Q290.2656,171.1875 291.5781,169.5313 Q292.9063,167.875 295.4063,167.875 Q296.1094,167.875 296.75,168.0313 Q297.4063,168.1875 297.9688,168.4844 L297.9688,171.2031 Q297.3438,170.625 296.75,170.3594 Q296.1563,170.0781 295.5313,170.0781 Q294.1875,170.0781 293.5,171.1563 Q292.8125,172.2188 292.8125,174.3125 Q292.8125,176.4063 293.5,177.4844 Q294.1875,178.5469 295.5313,178.5469 Q296.1563,178.5469 296.75,178.2813 Q297.3438,178 297.9688,177.4219 L297.9688,180.1406 Z " fill="#000000"/><text fill="#000000" font-family="sans-serif" font-size="14" lengthAdjust="spacing" textLength="289.8369" x="309" y="179.3467">logic_arc_int__baselibs__bit_manipulation</text><line style="stroke:#181818;stroke-width:0.5;" x1="281" x2="600.8369" y1="190.5" y2="190.5"/></g><!--class comp_arc_sta__baselibs__result--><g id="elem_comp_arc_sta__baselibs__result"><rect fill="#F1F1F1" height="40" id="comp_arc_sta__baselibs__result" rx="2.5" ry="2.5" style="stroke:#181818;stroke-width:0.5;" width="253.4297" x="994.5" y="275.5"/><ellipse cx="1009.5" cy="291.5" fill="#ADD1B2" rx="11" ry="11" style="stroke:#181818;stroke-width:1;"/><path d="M1012.4688,297.1406 Q1011.8906,297.4375 1011.25,297.5781 Q1010.6094,297.7344 1009.9063,297.7344 Q1007.4063,297.7344 1006.0781,296.0938 Q1004.7656,294.4375 1004.7656,291.3125 Q1004.7656,288.1875 1006.0781,286.5313 Q1007.4063,284.875 1009.9063,284.875 Q1010.6094,284.875 1011.25,285.0313 Q1011.9063,285.1875 1012.4688,285.4844 L1012.4688,288.2031 Q1011.8438,287.625 1011.25,287.3594 Q1010.6563,287.0781 1010.0313,287.0781 Q1008.6875,287.0781 1008,288.1563 Q1007.3125,289.2188 1007.3125,291.3125 Q1007.3125,293.4063 1008,294.4844 Q1008.6875,295.5469 1010.0313,295.5469 Q1010.6563,295.5469 1011.25,295.2813 Q1011.8438,295 1012.4688,294.4219 L1012.4688,297.1406 Z " fill="#000000"/><text fill="#000000" font-family="sans-serif" font-size="14" lengthAdjust="spacing" textLength="221.4297" x="1023.5" y="296.3467">comp_arc_sta__baselibs__result</text><line style="stroke:#181818;stroke-width:0.5;" x1="995.5" x2="1246.9297" y1="307.5" y2="307.5"/></g><!--class comp_arc_sta__baselibs__json--><g id="elem_comp_arc_sta__baselibs__json"><rect fill="#F1F1F1" height="40" id="comp_arc_sta__baselibs__json" rx="2.5" ry="2.5" style="stroke:#181818;stroke-width:0.5;" width="242.1367" x="7" y="275.5"/><ellipse cx="22" cy="291.5" fill="#ADD1B2" rx="11" ry="11" style="stroke:#181818;stroke-width:1;"/><path d="M24.9688,297.1406 Q24.3906,297.4375 23.75,297.5781 Q23.1094,297.7344 22.4063,297.7344 Q19.9063,297.7344 18.5781,296.0938 Q17.2656,294.4375 17.2656,291.3125 Q17.2656,288.1875 18.5781,286.5313 Q19.9063,284.875 22.4063,284.875 Q23.1094,284.875 23.75,285.0313 Q24.4063,285.1875 24.9688,285.4844 L24.9688,288.2031 Q24.3438,287.625 23.75,287.3594 Q23.1563,287.0781 22.5313,287.0781 Q21.1875,287.0781 20.5,288.1563 Q19.8125,289.2188 19.8125,291.3125 Q19.8125,293.4063 20.5,294.4844 Q21.1875,295.5469 22.5313,295.5469 Q23.1563,295.5469 23.75,295.2813 Q24.3438,295 24.9688,294.4219 L24.9688,297.1406 Z " fill="#000000"/><text fill="#000000" font-family="sans-serif" font-size="14" lengthAdjust="spacing" textLength="210.1367" x="36" y="296.3467">comp_arc_sta__baselibs__json</text><line style="stroke:#181818;stroke-width:0.5;" x1="8" x2="248.1367" y1="307.5" y2="307.5"/></g><!--class logic_arc_int__baselibs__task--><g id="elem_logic_arc_int__baselibs__task"><rect fill="#F1F1F1" height="40" id="logic_arc_int__baselibs__task" rx="2.5" ry="2.5" style="stroke:#181818;stroke-width:0.5;" width="234.0156" x="3337" y="158.5"/><ellipse cx="3352" cy="174.5" fill="#ADD1B2" rx="11" ry="11" style="stroke:#181818;stroke-width:1;"/><path d="M3354.9688,180.1406 Q3354.3906,180.4375 3353.75,180.5781 Q3353.1094,180.7344 3352.4063,180.7344 Q3349.9063,180.7344 3348.5781,179.0938 Q3347.2656,177.4375 3347.2656,174.3125 Q3347.2656,171.1875 3348.5781,169.5313 Q3349.9063,167.875 3352.4063,167.875 Q3353.1094,167.875 3353.75,168.0313 Q3354.4063,168.1875 3354.9688,168.4844 L3354.9688,171.2031 Q3354.3438,170.625 3353.75,170.3594 Q3353.1563,170.0781 3352.5313,170.0781 Q3351.1875,170.0781 3350.5,171.1563 Q3349.8125,172.2188 3349.8125,174.3125 Q3349.8125,176.4063 3350.5,177.4844 Q3351.1875,178.5469 3352.5313,178.5469 Q3353.1563,178.5469 3353.75,178.2813 Q3354.3438,178 3354.9688,177.4219 L3354.9688,180.1406 Z " fill="#000000"/><text fill="#000000" font-family="sans-serif" font-size="14" lengthAdjust="spacing" textLength="202.0156" x="3366" y="179.3467">logic_arc_int__baselibs__task</text><line style="stroke:#181818;stroke-width:0.5;" x1="3338" x2="3570.0156" y1="190.5" y2="190.5"/></g><!--link Feature_User to logic_arc_int__baselibs__future--><g id="link_Feature_User_logic_arc_int__baselibs__future"><path codeLine="15" d="M3216.02,50.96 C3352.63,70.56 3759.8108,128.9778 3968.5408,158.9278 " fill="transparent" id="Feature_User-to-logic_arc_int__baselibs__future" style="stroke:#181818;stroke-width:1;"/><polygon fill="#181818" points="3974.48,159.78,3966.1394,154.5423,3969.5307,159.0698,3965.0031,162.4612,3974.48,159.78" style="stroke:#181818;stroke-width:1;"/><text fill="#000000" font-family="sans-serif" font-size="13" lengthAdjust="spacing" textLength="23.0103" x="3745" y="124.5669">use</text></g><!--reverse link logic_arc_int__baselibs__shared_future to comp_arc_sta__baselibs__concurrency--><g id="link_logic_arc_int__baselibs__shared_future_comp_arc_sta__baselibs__concurrency"><path codeLine="16" d="M2612.972,199.3826 C2765.062,220.6926 3003.99,254.16 3156.05,275.46 " fill="transparent" id="logic_arc_int__baselibs__shared_future-backto-comp_arc_sta__baselibs__concurrency" style="stroke:#181818;stroke-width:1;"/><polygon fill="#181818" points="2607.03,198.55,2615.3879,203.7601,2611.9816,199.2438,2616.498,195.8375,2607.03,198.55" style="stroke:#181818;stroke-width:1;"/><text fill="#000000" font-family="sans-serif" font-size="13" lengthAdjust="spacing" textLength="76.9082" x="2931" y="241.5669">implements</text></g><!--link Feature_User to logic_arc_int__baselibs__json--><g id="link_Feature_User_logic_arc_int__baselibs__json"><path codeLine="17" d="M3125.88,45.3 C2897.18,49.47 1843.01,70.15 981,111.5 C661.13,126.84 580.54,125.55 262,158.5 C256.27,159.09 256.3795,159.0542 250.4695,159.7442 " fill="transparent" id="Feature_User-to-logic_arc_int__baselibs__json" style="stroke:#181818;stroke-width:1;"/><polygon fill="#181818" points="244.51,160.44,253.9131,163.3693,249.4763,159.8602,252.9854,155.4233,244.51,160.44" style="stroke:#181818;stroke-width:1;"/><text fill="#000000" font-family="sans-serif" font-size="13" lengthAdjust="spacing" textLength="23.0103" x="982" y="124.5669">use</text></g><!--reverse link logic_arc_int__baselibs__utils_base64 to comp_arc_sta__baselibs__utils--><g id="link_logic_arc_int__baselibs__utils_base64_comp_arc_sta__baselibs__utils"><path codeLine="18" d="M5720.2506,202.1252 C5751.5406,223.4152 5796.69,254.14 5827.9,275.38 " fill="transparent" id="logic_arc_int__baselibs__utils_base64-backto-comp_arc_sta__baselibs__utils" style="stroke:#181818;stroke-width:1;"/><polygon fill="#181818" points="5715.29,198.75,5720.4808,207.1199,5719.4238,201.5627,5724.9811,200.5058,5715.29,198.75" style="stroke:#181818;stroke-width:1;"/><text fill="#000000" font-family="sans-serif" font-size="13" lengthAdjust="spacing" textLength="76.9082" x="5782" y="241.5669">implements</text></g><!--reverse link logic_arc_int__baselibs__filesystem to comp_arc_sta__baselibs__filesystem--><g id="link_logic_arc_int__baselibs__filesystem_comp_arc_sta__baselibs__filesystem"><path codeLine="19" d="M5368,204.75 C5368,225.98 5368,253.94 5368,275.19 " fill="transparent" id="logic_arc_int__baselibs__filesystem-backto-comp_arc_sta__baselibs__filesystem" style="stroke:#181818;stroke-width:1;"/><polygon fill="#181818" points="5368,198.75,5364,207.75,5368,203.75,5372,207.75,5368,198.75" style="stroke:#181818;stroke-width:1;"/><text fill="#000000" font-family="sans-serif" font-size="13" lengthAdjust="spacing" textLength="76.9082" x="5369" y="241.5669">implements</text></g><!--reverse link logic_arc_int__baselibs__utils_scoped_op to comp_arc_sta__baselibs__utils--><g id="link_logic_arc_int__baselibs__utils_scoped_op_comp_arc_sta__baselibs__utils"><path codeLine="20" d="M5992.5799,202.1113 C5961.0999,223.4013 5915.66,254.14 5884.26,275.38 " fill="transparent" id="logic_arc_int__baselibs__utils_scoped_op-backto-comp_arc_sta__baselibs__utils" style="stroke:#181818;stroke-width:1;"/><polygon fill="#181818" points="5997.55,198.75,5987.854,200.4785,5993.4083,201.5511,5992.3357,207.1053,5997.55,198.75" style="stroke:#181818;stroke-width:1;"/><text fill="#000000" font-family="sans-serif" font-size="13" lengthAdjust="spacing" textLength="76.9082" x="5952" y="241.5669">implements</text></g><!--link Feature_User to logic_arc_int__baselibs__memory_shared--><g id="link_Feature_User_logic_arc_int__baselibs__memory_shared"><path codeLine="21" d="M3125.97,47.25 C2940.32,58.71 2216.16,104.58 1622,158.5 C1616.49,159 1616.8629,158.9501 1611.2029,159.4901 " fill="transparent" id="Feature_User-to-logic_arc_int__baselibs__memory_shared" style="stroke:#181818;stroke-width:1;"/><polygon fill="#181818" points="1605.23,160.06,1614.5692,163.1871,1610.2074,159.5851,1613.8094,155.2233,1605.23,160.06" style="stroke:#181818;stroke-width:1;"/><text fill="#000000" font-family="sans-serif" font-size="13" lengthAdjust="spacing" textLength="23.0103" x="2177" y="124.5669">use</text></g><!--reverse link logic_arc_int__baselibs__condition_variable to comp_arc_sta__baselibs__concurrency--><g id="link_logic_arc_int__baselibs__condition_variable_comp_arc_sta__baselibs__concurrency"><path codeLine="22" d="M3687.4645,199.9453 C3598.4245,221.2353 3460.95,254.11 3371.85,275.41 " fill="transparent" id="logic_arc_int__baselibs__condition_variable-backto-comp_arc_sta__baselibs__concurrency" style="stroke:#181818;stroke-width:1;"/><polygon fill="#181818" points="3693.3,198.55,3683.6165,196.7526,3688.4371,199.7128,3685.4769,204.5333,3693.3,198.55" style="stroke:#181818;stroke-width:1;"/><text fill="#000000" font-family="sans-serif" font-size="13" lengthAdjust="spacing" textLength="76.9082" x="3562" y="241.5669">implements</text></g><!--reverse link logic_arc_int__baselibs__intrusive_list to comp_arc_sta__baselibs__containers--><g id="link_logic_arc_int__baselibs__intrusive_list_comp_arc_sta__baselibs__containers"><path codeLine="23" d="M4728.3035,203.0117 C4749.3435,224.2417 4778.79,253.94 4799.86,275.19 " fill="transparent" id="logic_arc_int__baselibs__intrusive_list-backto-comp_arc_sta__baselibs__containers" style="stroke:#181818;stroke-width:1;"/><polygon fill="#181818" points="4724.08,198.75,4727.5742,207.9582,4727.5996,202.3014,4733.2564,202.3268,4724.08,198.75" style="stroke:#181818;stroke-width:1;"/><text fill="#000000" font-family="sans-serif" font-size="13" lengthAdjust="spacing" textLength="76.9082" x="4769" y="241.5669">implements</text></g><!--link Feature_User to logic_arc_int__baselibs__bit_mask_operator--><g id="link_Feature_User_logic_arc_int__baselibs__bit_mask_operator"><path codeLine="24" d="M3125.98,45.85 C2938.79,51.61 2203.6,75.39 1600,111.5 C1328.57,127.74 1260.82,134.16 990,158.5 C984.37,159.01 984.624,158.9719 978.844,159.5119 " fill="transparent" id="Feature_User-to-logic_arc_int__baselibs__bit_mask_operator" style="stroke:#181818;stroke-width:1;"/><polygon fill="#181818" points="972.87,160.07,982.2031,163.2155,977.8483,159.6049,981.4589,155.2502,972.87,160.07" style="stroke:#181818;stroke-width:1;"/><text fill="#000000" font-family="sans-serif" font-size="13" lengthAdjust="spacing" textLength="23.0103" x="1601" y="124.5669">use</text></g><!--link Feature_User to logic_arc_int__baselibs__shared_future--><g id="link_Feature_User_logic_arc_int__baselibs__shared_future"><path codeLine="25" d="M3125.88,53.07 C3014.69,74.2 2731.2645,128.0499 2577.0745,157.3499 " fill="transparent" id="Feature_User-to-logic_arc_int__baselibs__shared_future" style="stroke:#181818;stroke-width:1;"/><polygon fill="#181818" points="2571.18,158.47,2580.7685,160.7195,2576.0921,157.5366,2579.275,152.8602,2571.18,158.47" style="stroke:#181818;stroke-width:1;"/><text fill="#000000" font-family="sans-serif" font-size="13" lengthAdjust="spacing" textLength="23.0103" x="2801" y="124.5669">use</text></g><!--reverse link logic_arc_int__baselibs__dynamic_array to comp_arc_sta__baselibs__containers--><g id="link_logic_arc_int__baselibs__dynamic_array_comp_arc_sta__baselibs__containers"><path codeLine="26" d="M4998.7627,201.3803 C4957.7127,222.6503 4897.09,254.05 4856,275.34 " fill="transparent" id="logic_arc_int__baselibs__dynamic_array-backto-comp_arc_sta__baselibs__containers" style="stroke:#181818;stroke-width:1;"/><polygon fill="#181818" points="5004.09,198.62,4994.2588,199.209,4999.6506,200.9203,4997.9392,206.3121,5004.09,198.62" style="stroke:#181818;stroke-width:1;"/><text fill="#000000" font-family="sans-serif" font-size="13" lengthAdjust="spacing" textLength="76.9082" x="4944" y="241.5669">implements</text></g><!--link Feature_User to logic_arc_int__baselibs__condition_variable--><g id="link_Feature_User_logic_arc_int__baselibs__condition_variable"><path codeLine="27" d="M3216.25,54.5 C3316.19,76.58 3551.3112,128.526 3681.0312,157.176 " fill="transparent" id="Feature_User-to-logic_arc_int__baselibs__condition_variable" style="stroke:#181818;stroke-width:1;"/><polygon fill="#181818" points="3686.89,158.47,3678.9644,152.6232,3682.0077,157.3917,3677.2391,160.4349,3686.89,158.47" style="stroke:#181818;stroke-width:1;"/><text fill="#000000" font-family="sans-serif" font-size="13" lengthAdjust="spacing" textLength="23.0103" x="3544" y="124.5669">use</text></g><!--link Feature_User to logic_arc_int__baselibs__utils_scoped_op--><g id="link_Feature_User_logic_arc_int__baselibs__utils_scoped_op"><path codeLine="28" d="M3216.24,45.4 C3433.66,49.86 4392.88,70.99 5178,111.5 C5477.44,126.95 5552.35,131.87 5851,158.5 C5856.63,159 5856.3869,158.9626 5862.1769,159.5126 " fill="transparent" id="Feature_User-to-logic_arc_int__baselibs__utils_scoped_op" style="stroke:#181818;stroke-width:1;"/><polygon fill="#181818" points="5868.15,160.08,5859.5686,155.2468,5863.1724,159.6072,5858.8121,163.211,5868.15,160.08" style="stroke:#181818;stroke-width:1;"/><text fill="#000000" font-family="sans-serif" font-size="13" lengthAdjust="spacing" textLength="23.0103" x="5470" y="124.5669">use</text></g><!--reverse link logic_arc_int__baselibs__synchronized_queue to comp_arc_sta__baselibs__concurrency--><g id="link_logic_arc_int__baselibs__synchronized_queue_comp_arc_sta__baselibs__concurrency"><path codeLine="29" d="M2913.2016,200.0023 C2998.5416,221.2923 3130.07,254.11 3215.47,275.41 " fill="transparent" id="logic_arc_int__baselibs__synchronized_queue-backto-comp_arc_sta__baselibs__concurrency" style="stroke:#181818;stroke-width:1;"/><polygon fill="#181818" points="2907.38,198.55,2915.1441,204.6095,2912.2313,199.7603,2917.0806,196.8474,2907.38,198.55" style="stroke:#181818;stroke-width:1;"/><text fill="#000000" font-family="sans-serif" font-size="13" lengthAdjust="spacing" textLength="76.9082" x="3090" y="241.5669">implements</text></g><!--reverse link logic_arc_int__baselibs__task_result to comp_arc_sta__baselibs__concurrency--><g id="link_logic_arc_int__baselibs__task_result_comp_arc_sta__baselibs__concurrency"><path codeLine="30" d="M2290.7904,197.2285 C2296.5904,197.8985 2296.37,197.86 2302,198.5 C2499.18,220.79 2548.51,226.19 2746,245.5 C2879.79,258.58 3032.17,272.15 3141.88,281.68 " fill="transparent" id="logic_arc_int__baselibs__task_result-backto-comp_arc_sta__baselibs__concurrency" style="stroke:#181818;stroke-width:1;"/><polygon fill="#181818" points="2284.83,196.54,2293.3115,201.5464,2289.797,197.1138,2294.2296,193.5992,2284.83,196.54" style="stroke:#181818;stroke-width:1;"/><text fill="#000000" font-family="sans-serif" font-size="13" lengthAdjust="spacing" textLength="76.9082" x="2747" y="241.5669">implements</text></g><!--link Feature_User to logic_arc_int__baselibs__task_result--><g id="link_Feature_User_logic_arc_int__baselibs__task_result"><path codeLine="31" d="M3125.88,50.34 C2980.41,69.18 2525.5803,128.0793 2290.6403,158.5093 " fill="transparent" id="Feature_User-to-logic_arc_int__baselibs__task_result" style="stroke:#181818;stroke-width:1;"/><polygon fill="#181818" points="2284.69,159.28,2294.1292,162.0908,2289.6486,158.6378,2293.1016,154.1571,2284.69,159.28" style="stroke:#181818;stroke-width:1;"/><text fill="#000000" font-family="sans-serif" font-size="13" lengthAdjust="spacing" textLength="23.0103" x="2628" y="124.5669">use</text></g><!--link Feature_User to logic_arc_int__baselibs__result--><g id="link_Feature_User_logic_arc_int__baselibs__result"><path codeLine="32" d="M3125.96,45.82 C2915.57,52.28 2008.66,83.31 1269,158.5 C1263.55,159.05 1263.9415,158.9811 1258.3215,159.6211 " fill="transparent" id="Feature_User-to-logic_arc_int__baselibs__result" style="stroke:#181818;stroke-width:1;"/><polygon fill="#181818" points="1252.36,160.3,1261.7548,163.256,1257.3279,159.7343,1260.8496,155.3074,1252.36,160.3" style="stroke:#181818;stroke-width:1;"/><text fill="#000000" font-family="sans-serif" font-size="13" lengthAdjust="spacing" textLength="23.0103" x="1792" y="124.5669">use</text></g><!--link Feature_User to logic_arc_int__baselibs__utils_base64--><g id="link_Feature_User_logic_arc_int__baselibs__utils_base64"><path codeLine="33" d="M3216.27,45.79 C3412.02,51.49 4205.22,75.68 4856,111.5 C5153.17,127.86 5227.67,130.82 5524,158.5 C5529.53,159.02 5529.2009,158.9516 5534.8909,159.5316 " fill="transparent" id="Feature_User-to-logic_arc_int__baselibs__utils_base64" style="stroke:#181818;stroke-width:1;"/><polygon fill="#181818" points="5540.86,160.14,5532.312,155.248,5535.8858,159.633,5531.5008,163.2067,5540.86,160.14" style="stroke:#181818;stroke-width:1;"/><text fill="#000000" font-family="sans-serif" font-size="13" lengthAdjust="spacing" textLength="23.0103" x="5146" y="124.5669">use</text></g><!--link Feature_User to logic_arc_int__baselibs__promise--><g id="link_Feature_User_logic_arc_int__baselibs__promise"><path codeLine="34" d="M3171,81.55 C3171,106.45 3171,132.26 3171,152.26 " fill="transparent" id="Feature_User-to-logic_arc_int__baselibs__promise" style="stroke:#181818;stroke-width:1;"/><polygon fill="#181818" points="3171,158.26,3175,149.26,3171,153.26,3167,149.26,3171,158.26" style="stroke:#181818;stroke-width:1;"/><text fill="#000000" font-family="sans-serif" font-size="13" lengthAdjust="spacing" textLength="23.0103" x="3172" y="124.5669">use</text></g><!--link Feature_User to logic_arc_int__baselibs__synchronized_queue--><g id="link_Feature_User_logic_arc_int__baselibs__synchronized_queue"><path codeLine="35" d="M3125.85,62.16 C3061.9,87.18 2951.0179,130.5546 2885.2279,156.2846 " fill="transparent" id="Feature_User-to-logic_arc_int__baselibs__synchronized_queue" style="stroke:#181818;stroke-width:1;"/><polygon fill="#181818" points="2879.64,158.47,2889.4787,158.9172,2884.2965,156.6489,2886.5649,151.4667,2879.64,158.47" style="stroke:#181818;stroke-width:1;"/><text fill="#000000" font-family="sans-serif" font-size="13" lengthAdjust="spacing" textLength="23.0103" x="2991" y="124.5669">use</text></g><!--reverse link logic_arc_int__baselibs__executor to comp_arc_sta__baselibs__concurrency--><g id="link_logic_arc_int__baselibs__executor_comp_arc_sta__baselibs__concurrency"><path codeLine="36" d="M4250.6657,197.0693 C4244.7057,197.8093 4244.77,197.79 4239,198.5 C4063.52,219.98 4019.85,227.24 3844,245.5 C3708.11,259.61 3553.14,273.15 3442.06,282.4 " fill="transparent" id="logic_arc_int__baselibs__executor-backto-comp_arc_sta__baselibs__concurrency" style="stroke:#181818;stroke-width:1;"/><polygon fill="#181818" points="4256.62,196.33,4247.1957,193.4694,4251.6581,196.9461,4248.1814,201.4085,4256.62,196.33" style="stroke:#181818;stroke-width:1;"/><text fill="#000000" font-family="sans-serif" font-size="13" lengthAdjust="spacing" textLength="76.9082" x="3995" y="241.5669">implements</text></g><!--reverse link logic_arc_int__baselibs__message_passing to comp_arc_sta__baselibs__message_passing--><g id="link_logic_arc_int__baselibs__message_passing_comp_arc_sta__baselibs__message_passing"><path codeLine="37" d="M1805.9777,204.7317 C1807.6377,225.9617 1809.83,253.94 1811.49,275.19 " fill="transparent" id="logic_arc_int__baselibs__message_passing-backto-comp_arc_sta__baselibs__message_passing" style="stroke:#181818;stroke-width:1;"/><polygon fill="#181818" points="1805.51,198.75,1802.2238,208.0344,1805.8998,203.7348,1810.1994,207.4108,1805.51,198.75" style="stroke:#181818;stroke-width:1;"/><text fill="#000000" font-family="sans-serif" font-size="13" lengthAdjust="spacing" textLength="76.9082" x="1811" y="241.5669">implements</text></g><!--reverse link logic_arc_int__baselibs__memory_shared to comp_arc_sta__baselibs__memory_shared--><g id="link_logic_arc_int__baselibs__memory_shared_comp_arc_sta__baselibs__memory_shared"><path codeLine="38" d="M1446,204.75 C1446,225.98 1446,253.94 1446,275.19 " fill="transparent" id="logic_arc_int__baselibs__memory_shared-backto-comp_arc_sta__baselibs__memory_shared" style="stroke:#181818;stroke-width:1;"/><polygon fill="#181818" points="1446,198.75,1442,207.75,1446,203.75,1450,207.75,1446,198.75" style="stroke:#181818;stroke-width:1;"/><text fill="#000000" font-family="sans-serif" font-size="13" lengthAdjust="spacing" textLength="76.9082" x="1447" y="241.5669">implements</text></g><!--reverse link logic_arc_int__baselibs__bit_manipulation to comp_arc_sta__baselibs__bit_manipulation--><g id="link_logic_arc_int__baselibs__bit_manipulation_comp_arc_sta__baselibs__bit_manipulation"><path codeLine="39" d="M476.3643,201.9675 C509.8743,223.2575 558.48,254.14 591.91,275.38 " fill="transparent" id="logic_arc_int__baselibs__bit_manipulation-backto-comp_arc_sta__baselibs__bit_manipulation" style="stroke:#181818;stroke-width:1;"/><polygon fill="#181818" points="471.3,198.75,476.7515,206.9525,475.5203,201.4313,481.0415,200.2001,471.3,198.75" style="stroke:#181818;stroke-width:1;"/><text fill="#000000" font-family="sans-serif" font-size="13" lengthAdjust="spacing" textLength="76.9082" x="544" y="241.5669">implements</text></g><!--reverse link logic_arc_int__baselibs__result to comp_arc_sta__baselibs__result--><g id="link_logic_arc_int__baselibs__result_comp_arc_sta__baselibs__result"><path codeLine="40" d="M1128.0223,204.7317 C1126.3623,225.9617 1124.17,253.94 1122.51,275.19 " fill="transparent" id="logic_arc_int__baselibs__result-backto-comp_arc_sta__baselibs__result" style="stroke:#181818;stroke-width:1;"/><polygon fill="#181818" points="1128.49,198.75,1123.8006,207.4108,1128.1002,203.7348,1131.7762,208.0344,1128.49,198.75" style="stroke:#181818;stroke-width:1;"/><text fill="#000000" font-family="sans-serif" font-size="13" lengthAdjust="spacing" textLength="76.9082" x="1128" y="241.5669">implements</text></g><!--reverse link logic_arc_int__baselibs__json to comp_arc_sta__baselibs__json--><g id="link_logic_arc_int__baselibs__json_comp_arc_sta__baselibs__json"><path codeLine="41" d="M128,204.75 C128,225.98 128,253.94 128,275.19 " fill="transparent" id="logic_arc_int__baselibs__json-backto-comp_arc_sta__baselibs__json" style="stroke:#181818;stroke-width:1;"/><polygon fill="#181818" points="128,198.75,124,207.75,128,203.75,132,207.75,128,198.75" style="stroke:#181818;stroke-width:1;"/><text fill="#000000" font-family="sans-serif" font-size="13" lengthAdjust="spacing" textLength="76.9082" x="129" y="241.5669">implements</text></g><!--link Feature_User to logic_arc_int__baselibs__bit_manipulation--><g id="link_Feature_User_logic_arc_int__baselibs__bit_manipulation"><path codeLine="42" d="M3125.73,45.61 C2918.15,50.79 2036.47,74.01 1314,111.5 C1005.26,127.52 927.99,131.73 620,158.5 C614.24,159 614.3543,158.975 608.4343,159.525 " fill="transparent" id="Feature_User-to-logic_arc_int__baselibs__bit_manipulation" style="stroke:#181818;stroke-width:1;"/><polygon fill="#181818" points="602.46,160.08,611.7914,163.2303,607.4386,159.6175,611.0514,155.2646,602.46,160.08" style="stroke:#181818;stroke-width:1;"/><text fill="#000000" font-family="sans-serif" font-size="13" lengthAdjust="spacing" textLength="23.0103" x="1315" y="124.5669">use</text></g><!--reverse link logic_arc_int__baselibs__future to comp_arc_sta__baselibs__concurrency--><g id="link_logic_arc_int__baselibs__future_comp_arc_sta__baselibs__concurrency"><path codeLine="43" d="M3968.1545,198.7874 C3877.5745,212.1774 3757.66,229.77 3647,245.5 C3576.16,255.57 3497.33,266.48 3431.98,275.45 " fill="transparent" id="logic_arc_int__baselibs__future-backto-comp_arc_sta__baselibs__concurrency" style="stroke:#181818;stroke-width:1;"/><polygon fill="#181818" points="3974.09,197.91,3964.6018,195.2691,3969.1438,198.6412,3965.7717,203.1831,3974.09,197.91" style="stroke:#181818;stroke-width:1;"/><text fill="#000000" font-family="sans-serif" font-size="13" lengthAdjust="spacing" textLength="76.9082" x="3759" y="241.5669">implements</text></g><!--reverse link logic_arc_int__baselibs__bit_mask_operator to comp_arc_sta__baselibs__bit_manipulation--><g id="link_logic_arc_int__baselibs__bit_mask_operator_comp_arc_sta__baselibs__bit_manipulation"><path codeLine="44" d="M769.2898,201.9424 C735.4098,223.2324 686.22,254.14 652.42,275.38 " fill="transparent" id="logic_arc_int__baselibs__bit_mask_operator-backto-comp_arc_sta__baselibs__bit_manipulation" style="stroke:#181818;stroke-width:1;"/><polygon fill="#181818" points="774.37,198.75,764.6214,200.1518,770.1365,201.4103,768.8779,206.9254,774.37,198.75" style="stroke:#181818;stroke-width:1;"/><text fill="#000000" font-family="sans-serif" font-size="13" lengthAdjust="spacing" textLength="76.9082" x="726" y="241.5669">implements</text></g><!--link Feature_User to logic_arc_int__baselibs__executor--><g id="link_Feature_User_logic_arc_int__baselibs__executor"><path codeLine="45" d="M3216.06,49 C3363.19,63.77 3842.86,112.44 4239,158.5 C4244.77,159.17 4244.7121,159.1603 4250.6721,159.8703 " fill="transparent" id="Feature_User-to-logic_arc_int__baselibs__executor" style="stroke:#181818;stroke-width:1;"/><polygon fill="#181818" points="4256.63,160.58,4248.1664,155.5435,4251.6651,159.9885,4247.22,163.4873,4256.63,160.58" style="stroke:#181818;stroke-width:1;"/><text fill="#000000" font-family="sans-serif" font-size="13" lengthAdjust="spacing" textLength="23.0103" x="3946" y="124.5669">use</text></g><!--reverse link logic_arc_int__baselibs__task to comp_arc_sta__baselibs__concurrency--><g id="link_logic_arc_int__baselibs__task_comp_arc_sta__baselibs__concurrency"><path codeLine="46" d="M3421.9875,202.2232 C3391.9975,223.5132 3348.85,254.14 3318.93,275.38 " fill="transparent" id="logic_arc_int__baselibs__task-backto-comp_arc_sta__baselibs__concurrency" style="stroke:#181818;stroke-width:1;"/><polygon fill="#181818" points="3426.88,198.75,3417.2257,200.6981,3422.8029,201.6443,3421.8567,207.2215,3426.88,198.75" style="stroke:#181818;stroke-width:1;"/><text fill="#000000" font-family="sans-serif" font-size="13" lengthAdjust="spacing" textLength="76.9082" x="3383" y="241.5669">implements</text></g><!--link Feature_User to logic_arc_int__baselibs__task--><g id="link_Feature_User_logic_arc_int__baselibs__task"><path codeLine="47" d="M3216.16,65.72 C3270.46,91.24 3355.3898,131.1579 3407.7098,155.7479 " fill="transparent" id="Feature_User-to-logic_arc_int__baselibs__task" style="stroke:#181818;stroke-width:1;"/><polygon fill="#181818" points="3413.14,158.3,3406.6962,150.8517,3408.6149,156.1732,3403.2933,158.0919,3413.14,158.3" style="stroke:#181818;stroke-width:1;"/><text fill="#000000" font-family="sans-serif" font-size="13" lengthAdjust="spacing" textLength="23.0103" x="3347" y="124.5669">use</text></g><!--link Feature_User to logic_arc_int__baselibs__intrusive_list--><g id="link_Feature_User_logic_arc_int__baselibs__intrusive_list"><path codeLine="48" d="M3216.28,47.73 C3388.78,60.14 4021.19,106.7 4541,158.5 C4546.7,159.07 4546.5532,159.0298 4552.4232,159.6498 " fill="transparent" id="Feature_User-to-logic_arc_int__baselibs__intrusive_list" style="stroke:#181818;stroke-width:1;"/><polygon fill="#181818" points="4558.39,160.28,4549.8599,155.3568,4553.4177,159.7548,4549.0196,163.3125,4558.39,160.28" style="stroke:#181818;stroke-width:1;"/><text fill="#000000" font-family="sans-serif" font-size="13" lengthAdjust="spacing" textLength="23.0103" x="4204" y="124.5669">use</text></g><!--link Feature_User to logic_arc_int__baselibs__dynamic_array--><g id="link_Feature_User_logic_arc_int__baselibs__dynamic_array"><path codeLine="49" d="M3216.33,46.71 C3413.2,56.47 4213.66,97.99 4869,158.5 C4874.83,159.04 4874.8078,159.0327 4880.8078,159.6127 " fill="transparent" id="Feature_User-to-logic_arc_int__baselibs__dynamic_array" style="stroke:#181818;stroke-width:1;"/><polygon fill="#181818" points="4886.78,160.19,4878.2066,155.3426,4881.8032,159.7089,4877.4369,163.3055,4886.78,160.19" style="stroke:#181818;stroke-width:1;"/><text fill="#000000" font-family="sans-serif" font-size="13" lengthAdjust="spacing" textLength="23.0103" x="4498" y="124.5669">use</text></g><!--reverse link logic_arc_int__baselibs__promise to comp_arc_sta__baselibs__concurrency--><g id="link_logic_arc_int__baselibs__promise_comp_arc_sta__baselibs__concurrency"><path codeLine="50" d="M3195.5993,202.8832 C3217.9393,224.1132 3249.32,253.94 3271.68,275.19 " fill="transparent" id="logic_arc_int__baselibs__promise-backto-comp_arc_sta__baselibs__concurrency" style="stroke:#181818;stroke-width:1;"/><polygon fill="#181818" points="3191.25,198.75,3195.0185,207.8494,3194.8744,202.1943,3200.5294,202.0503,3191.25,198.75" style="stroke:#181818;stroke-width:1;"/><text fill="#000000" font-family="sans-serif" font-size="13" lengthAdjust="spacing" textLength="76.9082" x="3239" y="241.5669">implements</text></g><!--link Feature_User to logic_arc_int__baselibs__filesystem--><g id="link_Feature_User_logic_arc_int__baselibs__filesystem"><path codeLine="51" d="M3216.01,45.69 C3435.42,51.78 4414.64,82.15 5213,158.5 C5218.53,159.03 5218.2019,158.9822 5223.9019,159.5722 " fill="transparent" id="Feature_User-to-logic_arc_int__baselibs__filesystem" style="stroke:#181818;stroke-width:1;"/><polygon fill="#181818" points="5229.87,160.19,5221.3297,155.2846,5224.8966,159.6752,5220.506,163.2421,5229.87,160.19" style="stroke:#181818;stroke-width:1;"/><text fill="#000000" font-family="sans-serif" font-size="13" lengthAdjust="spacing" textLength="23.0103" x="4824" y="124.5669">use</text></g><!--link Feature_User to logic_arc_int__baselibs__message_passing--><g id="link_Feature_User_logic_arc_int__baselibs__message_passing"><path codeLine="52" d="M3125.78,48.72 C2968.43,63.42 2430.2,113.95 1986,158.5 C1980.15,159.09 1980.1693,159.0841 1974.1593,159.6941 " fill="transparent" id="Feature_User-to-logic_arc_int__baselibs__message_passing" style="stroke:#181818;stroke-width:1;"/><polygon fill="#181818" points="1968.19,160.3,1977.5479,163.3707,1973.1644,159.7951,1976.7401,155.4116,1968.19,160.3" style="stroke:#181818;stroke-width:1;"/><text fill="#000000" font-family="sans-serif" font-size="13" lengthAdjust="spacing" textLength="23.0103" x="2443" y="124.5669">use</text></g><!--SRC=[hLOxRzmm3DxrAuJibnP5qQ48iXJebB6P1LbcxjZe5P5AunRzxvLzX-HykTIouv4s-P4VdzBMXb_AuHFwhU0G9GVP1ERWP8i936FmOeSjI6984BYBi9V1HUwaPaxOP0OILyITXMjngGbj8_-86_JmBTYGP89sa7xiqDnx89AVBZ-Al-Bgmy56QCD5x-8xQCu9v2r1kf2QvE63wZz88KRYfjrSInksQ9HEHg5dfHfDOB4XfUvoh_bLPW8fJ71nK2BMnqecU9DJ0cywkSd_WwETBYoUKT552muyavmJr4yAVYAap6Xf8fX1Pv2_V1x7yXRg7LgWhjJGJK2_ADO1ruTB9iIImH0NPy-12waxb6AroXRD5li-LuyweMuir34lTgnBKwSf-aLCcV0Hb4NYnUmRPEKqtPSCGj9bN0uPc05nqiHJ2QoZrtPUk-5NqjrYTkUgC9VUgpvRQ_OxRtOfUFnTS1yovFeEgVJ0VLqJKBRB-sE4CJTrI-t6csYkTKp18IsezBcAh5HiU0AJX-cgAR4hnqnlGKLDL4xe1FQ9TgsBewqtwM2q8MlWzsl5OynMz_CtuU5KlSx9lhqceC_r_rk0_I6TWDlVsdSjssEQAxNNkGV4ggKP7OY5x5zcO2NM_MvwrsARlo9Eh-vS-vEpjb8YdZVUmbmSFy_cCdgrVGQ0Vm00]--></g></svg>