<svg xmlns="http://www.w3.org/2000/svg" xmlns:xlink="http://www.w3.org/1999/xlink" contentStyleType="text/css" data-diagram-type="CLASS" height="322px" preserveAspectRatio="none" style="width:6195px;height:322px;background:#FFFFFF;" version="1.1" viewBox="0 0 6195 322" width="6195px" zoomAndPan="magnify"><defs/><g><!--entity Feature_User--><g id="elem_Feature_User"><ellipse cx="3241.1685" cy="14" fill="#F1F1F1" rx="8" ry="8" style="stroke:#181818;stroke-width:0.5;"/><path d="M3241.1685,22 L3241.1685,49 M3228.1685,30 L3254.1685,30 M3241.1685,49 L3228.1685,64 M3241.1685,49 L3254.1685,64 " fill="transparent" style="stroke:#181818;stroke-width:0.5;"/><text fill="#000000" font-family="sans-serif" font-size="14" lengthAdjust="spacing" textLength="90.3369" x="3196" y="78.4951">Feature User</text></g><!--class comp_arc_sta__baselibs__concurrency--><g id="elem_comp_arc_sta__baselibs__concurrency"><rect fill="#F1F1F1" height="40" id="comp_arc_sta__baselibs__concurrency" rx="2.5" ry="2.5" style="stroke:#181818;stroke-width:0.5;" width="300.2012" x="3514" y="275.5"/><ellipse cx="3529" cy="291.5" fill="#ADD1B2" rx="11" ry="11" style="stroke:#181818;stroke-width:1;"/><path d="M3531.9688,297.1406 Q3531.3906,297.4375 3530.75,297.5781 Q3530.1094,297.7344 3529.4063,297.7344 Q3526.9063,297.7344 3525.5781,296.0938 Q3524.2656,294.4375 3524.2656,291.3125 Q3524.2656,288.1875 3525.5781,286.5313 Q3526.9063,284.875 3529.4063,284.875 Q3530.1094,284.875 3530.75,285.0313 Q3531.4063,285.1875 3531.9688,285.4844 L3531.9688,288.2031 Q3531.3438,287.625 3530.75,287.3594 Q3530.1563,287.0781 3529.5313,287.0781 Q3528.1875,287.0781 3527.5,288.1563 Q3526.8125,289.2188 3526.8125,291.3125 Q3526.8125,293.4063 3527.5,294.4844 Q3528.1875,295.5469 3529.5313,295.5469 Q3530.1563,295.5469 3530.75,295.2813 Q3531.3438,295 3531.9688,294.4219 L3531.9688,297.1406 Z " fill="#000000"/><text fill="#000000" font-family="sans-serif" font-size="14" lengthAdjust="spacing" textLength="268.2012" x="3543" y="296.3467">comp_arc_sta__baselibs__concurrency</text><line style="stroke:#181818;stroke-width:0.5;" x1="3515" x2="3813.2012" y1="307.5" y2="307.5"/></g><!--class logic_arc_int__baselibs__synchronized_queue--><g id="elem_logic_arc_int__baselibs__synchronized_queue"><rect fill="#F1F1F1" height="40" id="logic_arc_int__baselibs__synchronized_queue" rx="2.5" ry="2.5" style="stroke:#181818;stroke-width:0.5;" width="348.3604" x="2408" y="158.5"/><ellipse cx="2423" cy="174.5" fill="#ADD1B2" rx="11" ry="11" style="stroke:#181818;stroke-width:1;"/><path d="M2425.9688,180.1406 Q2425.3906,180.4375 2424.75,180.5781 Q2424.1094,180.7344 2423.4063,180.7344 Q2420.9063,180.7344 2419.5781,179.0938 Q2418.2656,177.4375 2418.2656,174.3125 Q2418.2656,171.1875 2419.5781,169.5313 Q2420.9063,167.875 2423.4063,167.875 Q2424.1094,167.875 2424.75,168.0313 Q2425.4063,168.1875 2425.9688,168.4844 L2425.9688,171.2031 Q2425.3438,170.625 2424.75,170.3594 Q2424.1563,170.0781 2423.5313,170.0781 Q2422.1875,170.0781 2421.5,171.1563 Q2420.8125,172.2188 2420.8125,174.3125 Q2420.8125,176.4063 2421.5,177.4844 Q2422.1875,178.5469 2423.5313,178.5469 Q2424.1563,178.5469 2424.75,178.2813 Q2425.3438,178 2425.9688,177.4219 L2425.9688,180.1406 Z " fill="#000000"/><text fill="#000000" font-family="sans-serif" font-size="14" lengthAdjust="spacing" textLength="316.3604" x="2437" y="179.3467">logic_arc_int__baselibs__synchronized_queue</text><line style="stroke:#181818;stroke-width:0.5;" x1="2409" x2="2755.3604" y1="190.5" y2="190.5"/></g><!--class comp_arc_sta__baselibs__json--><g id="elem_comp_arc_sta__baselibs__json"><rect fill="#F1F1F1" height="40" id="comp_arc_sta__baselibs__json" rx="2.5" ry="2.5" style="stroke:#181818;stroke-width:0.5;" width="242.1367" x="5946" y="275.5"/><ellipse cx="5961" cy="291.5" fill="#ADD1B2" rx="11" ry="11" style="stroke:#181818;stroke-width:1;"/><path d="M5963.9688,297.1406 Q5963.3906,297.4375 5962.75,297.5781 Q5962.1094,297.7344 5961.4063,297.7344 Q5958.9063,297.7344 5957.5781,296.0938 Q5956.2656,294.4375 5956.2656,291.3125 Q5956.2656,288.1875 5957.5781,286.5313 Q5958.9063,284.875 5961.4063,284.875 Q5962.1094,284.875 5962.75,285.0313 Q5963.4063,285.1875 5963.9688,285.4844 L5963.9688,288.2031 Q5963.3438,287.625 5962.75,287.3594 Q5962.1563,287.0781 5961.5313,287.0781 Q5960.1875,287.0781 5959.5,288.1563 Q5958.8125,289.2188 5958.8125,291.3125 Q5958.8125,293.4063 5959.5,294.4844 Q5960.1875,295.5469 5961.5313,295.5469 Q5962.1563,295.5469 5962.75,295.2813 Q5963.3438,295 5963.9688,294.4219 L5963.9688,297.1406 Z " fill="#000000"/><text fill="#000000" font-family="sans-serif" font-size="14" lengthAdjust="spacing" textLength="210.1367" x="5975" y="296.3467">comp_arc_sta__baselibs__json</text><line style="stroke:#181818;stroke-width:0.5;" x1="5947" x2="6187.1367" y1="307.5" y2="307.5"/></g><!--class logic_arc_int__baselibs__json--><g id="elem_logic_arc_int__baselibs__json"><rect fill="#F1F1F1" height="40" id="logic_arc_int__baselibs__json" rx="2.5" ry="2.5" style="stroke:#181818;stroke-width:0.5;" width="233.168" x="5946.5" y="158.5"/><ellipse cx="5961.5" cy="174.5" fill="#ADD1B2" rx="11" ry="11" style="stroke:#181818;stroke-width:1;"/><path d="M5964.4688,180.1406 Q5963.8906,180.4375 5963.25,180.5781 Q5962.6094,180.7344 5961.9063,180.7344 Q5959.4063,180.7344 5958.0781,179.0938 Q5956.7656,177.4375 5956.7656,174.3125 Q5956.7656,171.1875 5958.0781,169.5313 Q5959.4063,167.875 5961.9063,167.875 Q5962.6094,167.875 5963.25,168.0313 Q5963.9063,168.1875 5964.4688,168.4844 L5964.4688,171.2031 Q5963.8438,170.625 5963.25,170.3594 Q5962.6563,170.0781 5962.0313,170.0781 Q5960.6875,170.0781 5960,171.1563 Q5959.3125,172.2188 5959.3125,174.3125 Q5959.3125,176.4063 5960,177.4844 Q5960.6875,178.5469 5962.0313,178.5469 Q5962.6563,178.5469 5963.25,178.2813 Q5963.8438,178 5964.4688,177.4219 L5964.4688,180.1406 Z " fill="#000000"/><text fill="#000000" font-family="sans-serif" font-size="14" lengthAdjust="spacing" textLength="201.168" x="5975.5" y="179.3467">logic_arc_int__baselibs__json</text><line style="stroke:#181818;stroke-width:0.5;" x1="5947.5" x2="6178.668" y1="190.5" y2="190.5"/></g><!--class logic_arc_int__baselibs__task--><g id="elem_logic_arc_int__baselibs__task"><rect fill="#F1F1F1" height="40" id="logic_arc_int__baselibs__task" rx="2.5" ry="2.5" style="stroke:#181818;stroke-width:0.5;" width="234.0156" x="4325" y="158.5"/><ellipse cx="4340" cy="174.5" fill="#ADD1B2" rx="11" ry="11" style="stroke:#181818;stroke-width:1;"/><path d="M4342.9688,180.1406 Q4342.3906,180.4375 4341.75,180.5781 Q4341.1094,180.7344 4340.4063,180.7344 Q4337.9063,180.7344 4336.5781,179.0938 Q4335.2656,177.4375 4335.2656,174.3125 Q4335.2656,171.1875 4336.5781,169.5313 Q4337.9063,167.875 4340.4063,167.875 Q4341.1094,167.875 4341.75,168.0313 Q4342.4063,168.1875 4342.9688,168.4844 L4342.9688,171.2031 Q4342.3438,170.625 4341.75,170.3594 Q4341.1563,170.0781 4340.5313,170.0781 Q4339.1875,170.0781 4338.5,171.1563 Q4337.8125,172.2188 4337.8125,174.3125 Q4337.8125,176.4063 4338.5,177.4844 Q4339.1875,178.5469 4340.5313,178.5469 Q4341.1563,178.5469 4341.75,178.2813 Q4342.3438,178 4342.9688,177.4219 L4342.9688,180.1406 Z " fill="#000000"/><text fill="#000000" font-family="sans-serif" font-size="14" lengthAdjust="spacing" textLength="202.0156" x="4354" y="179.3467">logic_arc_int__baselibs__task</text><line style="stroke:#181818;stroke-width:0.5;" x1="4326" x2="4558.0156" y1="190.5" y2="190.5"/></g><!--class logic_arc_int__baselibs__bit_mask_operator--><g id="elem_logic_arc_int__baselibs__bit_mask_operator"><rect fill="#F1F1F1" height="40" id="logic_arc_int__baselibs__bit_mask_operator" rx="2.5" ry="2.5" style="stroke:#181818;stroke-width:0.5;" width="334.6406" x="364.5" y="158.5"/><ellipse cx="379.5" cy="174.5" fill="#ADD1B2" rx="11" ry="11" style="stroke:#181818;stroke-width:1;"/><path d="M382.4688,180.1406 Q381.8906,180.4375 381.25,180.5781 Q380.6094,180.7344 379.9063,180.7344 Q377.4063,180.7344 376.0781,179.0938 Q374.7656,177.4375 374.7656,174.3125 Q374.7656,171.1875 376.0781,169.5313 Q377.4063,167.875 379.9063,167.875 Q380.6094,167.875 381.25,168.0313 Q381.9063,168.1875 382.4688,168.4844 L382.4688,171.2031 Q381.8438,170.625 381.25,170.3594 Q380.6563,170.0781 380.0313,170.0781 Q378.6875,170.0781 378,171.1563 Q377.3125,172.2188 377.3125,174.3125 Q377.3125,176.4063 378,177.4844 Q378.6875,178.5469 380.0313,178.5469 Q380.6563,178.5469 381.25,178.2813 Q381.8438,178 382.4688,177.4219 L382.4688,180.1406 Z " fill="#000000"/><text fill="#000000" font-family="sans-serif" font-size="14" lengthAdjust="spacing" textLength="302.6406" x="393.5" y="179.3467">logic_arc_int__baselibs__bit_mask_operator</text><line style="stroke:#181818;stroke-width:0.5;" x1="365.5" x2="698.1406" y1="190.5" y2="190.5"/></g><!--class logic_arc_int__baselibs__shared_future--><g id="elem_logic_arc_int__baselibs__shared_future"><rect fill="#F1F1F1" height="40" id="logic_arc_int__baselibs__shared_future" rx="2.5" ry="2.5" style="stroke:#181818;stroke-width:0.5;" width="302.0811" x="3988" y="158.5"/><ellipse cx="4003" cy="174.5" fill="#ADD1B2" rx="11" ry="11" style="stroke:#181818;stroke-width:1;"/><path d="M4005.9688,180.1406 Q4005.3906,180.4375 4004.75,180.5781 Q4004.1094,180.7344 4003.4063,180.7344 Q4000.9063,180.7344 3999.5781,179.0938 Q3998.2656,177.4375 3998.2656,174.3125 Q3998.2656,171.1875 3999.5781,169.5313 Q4000.9063,167.875 4003.4063,167.875 Q4004.1094,167.875 4004.75,168.0313 Q4005.4063,168.1875 4005.9688,168.4844 L4005.9688,171.2031 Q4005.3438,170.625 4004.75,170.3594 Q4004.1563,170.0781 4003.5313,170.0781 Q4002.1875,170.0781 4001.5,171.1563 Q4000.8125,172.2188 4000.8125,174.3125 Q4000.8125,176.4063 4001.5,177.4844 Q4002.1875,178.5469 4003.5313,178.5469 Q4004.1563,178.5469 4004.75,178.2813 Q4005.3438,178 4005.9688,177.4219 L4005.9688,180.1406 Z " fill="#000000"/><text fill="#000000" font-family="sans-serif" font-size="14" lengthAdjust="spacing" textLength="270.0811" x="4017" y="179.3467">logic_arc_int__baselibs__shared_future</text><line style="stroke:#181818;stroke-width:0.5;" x1="3989" x2="4289.0811" y1="190.5" y2="190.5"/></g><!--class logic_arc_int__baselibs__dynamic_array--><g id="elem_logic_arc_int__baselibs__dynamic_array"><rect fill="#F1F1F1" height="40" id="logic_arc_int__baselibs__dynamic_array" rx="2.5" ry="2.5" style="stroke:#181818;stroke-width:0.5;" width="308.3496" x="5291" y="158.5"/><ellipse cx="5306" cy="174.5" fill="#ADD1B2" rx="11" ry="11" style="stroke:#181818;stroke-width:1;"/><path d="M5308.9688,180.1406 Q5308.3906,180.4375 5307.75,180.5781 Q5307.1094,180.7344 5306.4063,180.7344 Q5303.9063,180.7344 5302.5781,179.0938 Q5301.2656,177.4375 5301.2656,174.3125 Q5301.2656,171.1875 5302.5781,169.5313 Q5303.9063,167.875 5306.4063,167.875 Q5307.1094,167.875 5307.75,168.0313 Q5308.4063,168.1875 5308.9688,168.4844 L5308.9688,171.2031 Q5308.3438,170.625 5307.75,170.3594 Q5307.1563,170.0781 5306.5313,170.0781 Q5305.1875,170.0781 5304.5,171.1563 Q5303.8125,172.2188 5303.8125,174.3125 Q5303.8125,176.4063 5304.5,177.4844 Q5305.1875,178.5469 5306.5313,178.5469 Q5307.1563,178.5469 5307.75,178.2813 Q5308.3438,178 5308.9688,177.4219 L5308.9688,180.1406 Z " fill="#000000"/><text fill="#000000" font-family="sans-serif" font-size="14" lengthAdjust="spacing" textLength="276.3496" x="5320" y="179.3467">logic_arc_int__baselibs__dynamic_array</text><line style="stroke:#181818;stroke-width:0.5;" x1="5292" x2="5598.3496" y1="190.5" y2="190.5"/></g><!--class comp_arc_sta__baselibs__filesystem--><g id="elem_comp_arc_sta__baselibs__filesystem"><rect fill="#F1F1F1" height="40" id="comp_arc_sta__baselibs__filesystem" rx="2.5" ry="2.5" style="stroke:#181818;stroke-width:0.5;" width="285.4492" x="5625.5" y="275.5"/><ellipse cx="5640.5" cy="291.5" fill="#ADD1B2" rx="11" ry="11" style="stroke:#181818;stroke-width:1;"/><path d="M5643.4688,297.1406 Q5642.8906,297.4375 5642.25,297.5781 Q5641.6094,297.7344 5640.9063,297.7344 Q5638.4063,297.7344 5637.0781,296.0938 Q5635.7656,294.4375 5635.7656,291.3125 Q5635.7656,288.1875 5637.0781,286.5313 Q5638.4063,284.875 5640.9063,284.875 Q5641.6094,284.875 5642.25,285.0313 Q5642.9063,285.1875 5643.4688,285.4844 L5643.4688,288.2031 Q5642.8438,287.625 5642.25,287.3594 Q5641.6563,287.0781 5641.0313,287.0781 Q5639.6875,287.0781 5639,288.1563 Q5638.3125,289.2188 5638.3125,291.3125 Q5638.3125,293.4063 5639,294.4844 Q5639.6875,295.5469 5641.0313,295.5469 Q5641.6563,295.5469 5642.25,295.2813 Q5642.8438,295 5643.4688,294.4219 L5643.4688,297.1406 Z " fill="#000000"/><text fill="#000000" font-family="sans-serif" font-size="14" lengthAdjust="spacing" textLength="253.4492" x="5654.5" y="296.3467">comp_arc_sta__baselibs__filesystem</text><line style="stroke:#181818;stroke-width:0.5;" x1="5626.5" x2="5909.9492" y1="307.5" y2="307.5"/></g><!--class logic_arc_int__baselibs__filesystem--><g id="elem_logic_arc_int__baselibs__filesystem"><rect fill="#F1F1F1" height="40" id="logic_arc_int__baselibs__filesystem" rx="2.5" ry="2.5" style="stroke:#181818;stroke-width:0.5;" width="276.4805" x="5634" y="158.5"/><ellipse cx="5649" cy="174.5" fill="#ADD1B2" rx="11" ry="11" style="stroke:#181818;stroke-width:1;"/><path d="M5651.9688,180.1406 Q5651.3906,180.4375 5650.75,180.5781 Q5650.1094,180.7344 5649.4063,180.7344 Q5646.9063,180.7344 5645.5781,179.0938 Q5644.2656,177.4375 5644.2656,174.3125 Q5644.2656,171.1875 5645.5781,169.5313 Q5646.9063,167.875 5649.4063,167.875 Q5650.1094,167.875 5650.75,168.0313 Q5651.4063,168.1875 5651.9688,168.4844 L5651.9688,171.2031 Q5651.3438,170.625 5650.75,170.3594 Q5650.1563,170.0781 5649.5313,170.0781 Q5648.1875,170.0781 5647.5,171.1563 Q5646.8125,172.2188 5646.8125,174.3125 Q5646.8125,176.4063 5647.5,177.4844 Q5648.1875,178.5469 5649.5313,178.5469 Q5650.1563,178.5469 5650.75,178.2813 Q5651.3438,178 5651.9688,177.4219 L5651.9688,180.1406 Z " fill="#000000"/><text fill="#000000" font-family="sans-serif" font-size="14" lengthAdjust="spacing" textLength="244.4805" x="5663" y="179.3467">logic_arc_int__baselibs__filesystem</text><line style="stroke:#181818;stroke-width:0.5;" x1="5635" x2="5909.4805" y1="190.5" y2="190.5"/></g><!--class comp_arc_sta__baselibs__utils--><g id="elem_comp_arc_sta__baselibs__utils"><rect fill="#F1F1F1" height="40" id="comp_arc_sta__baselibs__utils" rx="2.5" ry="2.5" style="stroke:#181818;stroke-width:0.5;" width="242.9502" x="1656.5" y="275.5"/><ellipse cx="1671.5" cy="291.5" fill="#ADD1B2" rx="11" ry="11" style="stroke:#181818;stroke-width:1;"/><path d="M1674.4688,297.1406 Q1673.8906,297.4375 1673.25,297.5781 Q1672.6094,297.7344 1671.9063,297.7344 Q1669.4063,297.7344 1668.0781,296.0938 Q1666.7656,294.4375 1666.7656,291.3125 Q1666.7656,288.1875 1668.0781,286.5313 Q1669.4063,284.875 1671.9063,284.875 Q1672.6094,284.875 1673.25,285.0313 Q1673.9063,285.1875 1674.4688,285.4844 L1674.4688,288.2031 Q1673.8438,287.625 1673.25,287.3594 Q1672.6563,287.0781 1672.0313,287.0781 Q1670.6875,287.0781 1670,288.1563 Q1669.3125,289.2188 1669.3125,291.3125 Q1669.3125,293.4063 1670,294.4844 Q1670.6875,295.5469 1672.0313,295.5469 Q1672.6563,295.5469 1673.25,295.2813 Q1673.8438,295 1674.4688,294.4219 L1674.4688,297.1406 Z " fill="#000000"/><text fill="#000000" font-family="sans-serif" font-size="14" lengthAdjust="spacing" textLength="210.9502" x="1685.5" y="296.3467">comp_arc_sta__baselibs__utils</text><line style="stroke:#181818;stroke-width:0.5;" x1="1657.5" x2="1898.4502" y1="307.5" y2="307.5"/></g><!--class logic_arc_int__baselibs__utils_scoped_op--><g id="elem_logic_arc_int__baselibs__utils_scoped_op"><rect fill="#F1F1F1" height="40" id="logic_arc_int__baselibs__utils_scoped_op" rx="2.5" ry="2.5" style="stroke:#181818;stroke-width:0.5;" width="315.377" x="1451.5" y="158.5"/><ellipse cx="1466.5" cy="174.5" fill="#ADD1B2" rx="11" ry="11" style="stroke:#181818;stroke-width:1;"/><path d="M1469.4688,180.1406 Q1468.8906,180.4375 1468.25,180.5781 Q1467.6094,180.7344 1466.9063,180.7344 Q1464.4063,180.7344 1463.0781,179.0938 Q1461.7656,177.4375 1461.7656,174.3125 Q1461.7656,171.1875 1463.0781,169.5313 Q1464.4063,167.875 1466.9063,167.875 Q1467.6094,167.875 1468.25,168.0313 Q1468.9063,168.1875 1469.4688,168.4844 L1469.4688,171.2031 Q1468.8438,170.625 1468.25,170.3594 Q1467.6563,170.0781 1467.0313,170.0781 Q1465.6875,170.0781 1465,171.1563 Q1464.3125,172.2188 1464.3125,174.3125 Q1464.3125,176.4063 1465,177.4844 Q1465.6875,178.5469 1467.0313,178.5469 Q1467.6563,178.5469 1468.25,178.2813 Q1468.8438,178 1469.4688,177.4219 L1469.4688,180.1406 Z " fill="#000000"/><text fill="#000000" font-family="sans-serif" font-size="14" lengthAdjust="spacing" textLength="283.377" x="1480.5" y="179.3467">logic_arc_int__baselibs__utils_scoped_op</text><line style="stroke:#181818;stroke-width:0.5;" x1="1452.5" x2="1765.877" y1="190.5" y2="190.5"/></g><!--class logic_arc_int__baselibs__future--><g id="elem_logic_arc_int__baselibs__future"><rect fill="#F1F1F1" height="40" id="logic_arc_int__baselibs__future" rx="2.5" ry="2.5" style="stroke:#181818;stroke-width:0.5;" width="247.0791" x="3705.5" y="158.5"/><ellipse cx="3720.5" cy="174.5" fill="#ADD1B2" rx="11" ry="11" style="stroke:#181818;stroke-width:1;"/><path d="M3723.4688,180.1406 Q3722.8906,180.4375 3722.25,180.5781 Q3721.6094,180.7344 3720.9063,180.7344 Q3718.4063,180.7344 3717.0781,179.0938 Q3715.7656,177.4375 3715.7656,174.3125 Q3715.7656,171.1875 3717.0781,169.5313 Q3718.4063,167.875 3720.9063,167.875 Q3721.6094,167.875 3722.25,168.0313 Q3722.9063,168.1875 3723.4688,168.4844 L3723.4688,171.2031 Q3722.8438,170.625 3722.25,170.3594 Q3721.6563,170.0781 3721.0313,170.0781 Q3719.6875,170.0781 3719,171.1563 Q3718.3125,172.2188 3718.3125,174.3125 Q3718.3125,176.4063 3719,177.4844 Q3719.6875,178.5469 3721.0313,178.5469 Q3721.6563,178.5469 3722.25,178.2813 Q3722.8438,178 3723.4688,177.4219 L3723.4688,180.1406 Z " fill="#000000"/><text fill="#000000" font-family="sans-serif" font-size="14" lengthAdjust="spacing" textLength="215.0791" x="3734.5" y="179.3467">logic_arc_int__baselibs__future</text><line style="stroke:#181818;stroke-width:0.5;" x1="3706.5" x2="3951.5791" y1="190.5" y2="190.5"/></g><!--class logic_arc_int__baselibs__intrusive_list--><g id="elem_logic_arc_int__baselibs__intrusive_list"><rect fill="#F1F1F1" height="40" id="logic_arc_int__baselibs__intrusive_list" rx="2.5" ry="2.5" style="stroke:#181818;stroke-width:0.5;" width="293.0713" x="4962.5" y="158.5"/><ellipse cx="4977.5" cy="174.5" fill="#ADD1B2" rx="11" ry="11" style="stroke:#181818;stroke-width:1;"/><path d="M4980.4688,180.1406 Q4979.8906,180.4375 4979.25,180.5781 Q4978.6094,180.7344 4977.9063,180.7344 Q4975.4063,180.7344 4974.0781,179.0938 Q4972.7656,177.4375 4972.7656,174.3125 Q4972.7656,171.1875 4974.0781,169.5313 Q4975.4063,167.875 4977.9063,167.875 Q4978.6094,167.875 4979.25,168.0313 Q4979.9063,168.1875 4980.4688,168.4844 L4980.4688,171.2031 Q4979.8438,170.625 4979.25,170.3594 Q4978.6563,170.0781 4978.0313,170.0781 Q4976.6875,170.0781 4976,171.1563 Q4975.3125,172.2188 4975.3125,174.3125 Q4975.3125,176.4063 4976,177.4844 Q4976.6875,178.5469 4978.0313,178.5469 Q4978.6563,178.5469 4979.25,178.2813 Q4979.8438,178 4980.4688,177.4219 L4980.4688,180.1406 Z " fill="#000000"/><text fill="#000000" font-family="sans-serif" font-size="14" lengthAdjust="spacing" textLength="261.0713" x="4991.5" y="179.3467">logic_arc_int__baselibs__intrusive_list</text><line style="stroke:#181818;stroke-width:0.5;" x1="4963.5" x2="5254.5713" y1="190.5" y2="190.5"/></g><!--class comp_arc_sta__baselibs__containers--><g id="elem_comp_arc_sta__baselibs__containers"><rect fill="#F1F1F1" height="40" id="comp_arc_sta__baselibs__containers" rx="2.5" ry="2.5" style="stroke:#181818;stroke-width:0.5;" width="287.1445" x="5136.5" y="275.5"/><ellipse cx="5151.5" cy="291.5" fill="#ADD1B2" rx="11" ry="11" style="stroke:#181818;stroke-width:1;"/><path d="M5154.4688,297.1406 Q5153.8906,297.4375 5153.25,297.5781 Q5152.6094,297.7344 5151.9063,297.7344 Q5149.4063,297.7344 5148.0781,296.0938 Q5146.7656,294.4375 5146.7656,291.3125 Q5146.7656,288.1875 5148.0781,286.5313 Q5149.4063,284.875 5151.9063,284.875 Q5152.6094,284.875 5153.25,285.0313 Q5153.9063,285.1875 5154.4688,285.4844 L5154.4688,288.2031 Q5153.8438,287.625 5153.25,287.3594 Q5152.6563,287.0781 5152.0313,287.0781 Q5150.6875,287.0781 5150,288.1563 Q5149.3125,289.2188 5149.3125,291.3125 Q5149.3125,293.4063 5150,294.4844 Q5150.6875,295.5469 5152.0313,295.5469 Q5152.6563,295.5469 5153.25,295.2813 Q5153.8438,295 5154.4688,294.4219 L5154.4688,297.1406 Z " fill="#000000"/><text fill="#000000" font-family="sans-serif" font-size="14" lengthAdjust="spacing" textLength="255.1445" x="5165.5" y="296.3467">comp_arc_sta__baselibs__containers</text><line style="stroke:#181818;stroke-width:0.5;" x1="5137.5" x2="5422.6445" y1="307.5" y2="307.5"/></g><!--class logic_arc_int__baselibs__task_result--><g id="elem_logic_arc_int__baselibs__task_result"><rect fill="#F1F1F1" height="40" id="logic_arc_int__baselibs__task_result" rx="2.5" ry="2.5" style="stroke:#181818;stroke-width:0.5;" width="280.9307" x="2791.5" y="158.5"/><ellipse cx="2806.5" cy="174.5" fill="#ADD1B2" rx="11" ry="11" style="stroke:#181818;stroke-width:1;"/><path d="M2809.4688,180.1406 Q2808.8906,180.4375 2808.25,180.5781 Q2807.6094,180.7344 2806.9063,180.7344 Q2804.4063,180.7344 2803.0781,179.0938 Q2801.7656,177.4375 2801.7656,174.3125 Q2801.7656,171.1875 2803.0781,169.5313 Q2804.4063,167.875 2806.9063,167.875 Q2807.6094,167.875 2808.25,168.0313 Q2808.9063,168.1875 2809.4688,168.4844 L2809.4688,171.2031 Q2808.8438,170.625 2808.25,170.3594 Q2807.6563,170.0781 2807.0313,170.0781 Q2805.6875,170.0781 2805,171.1563 Q2804.3125,172.2188 2804.3125,174.3125 Q2804.3125,176.4063 2805,177.4844 Q2805.6875,178.5469 2807.0313,178.5469 Q2807.6563,178.5469 2808.25,178.2813 Q2808.8438,178 2809.4688,177.4219 L2809.4688,180.1406 Z " fill="#000000"/><text fill="#000000" font-family="sans-serif" font-size="14" lengthAdjust="spacing" textLength="248.9307" x="2820.5" y="179.3467">logic_arc_int__baselibs__task_result</text><line style="stroke:#181818;stroke-width:0.5;" x1="2792.5" x2="3071.4307" y1="190.5" y2="190.5"/></g><!--class logic_arc_int__baselibs__promise--><g id="elem_logic_arc_int__baselibs__promise"><rect fill="#F1F1F1" height="40" id="logic_arc_int__baselibs__promise" rx="2.5" ry="2.5" style="stroke:#181818;stroke-width:0.5;" width="261.1885" x="3409.5" y="158.5"/><ellipse cx="3424.5" cy="174.5" fill="#ADD1B2" rx="11" ry="11" style="stroke:#181818;stroke-width:1;"/><path d="M3427.4688,180.1406 Q3426.8906,180.4375 3426.25,180.5781 Q3425.6094,180.7344 3424.9063,180.7344 Q3422.4063,180.7344 3421.0781,179.0938 Q3419.7656,177.4375 3419.7656,174.3125 Q3419.7656,171.1875 3421.0781,169.5313 Q3422.4063,167.875 3424.9063,167.875 Q3425.6094,167.875 3426.25,168.0313 Q3426.9063,168.1875 3427.4688,168.4844 L3427.4688,171.2031 Q3426.8438,170.625 3426.25,170.3594 Q3425.6563,170.0781 3425.0313,170.0781 Q3423.6875,170.0781 3423,171.1563 Q3422.3125,172.2188 3422.3125,174.3125 Q3422.3125,176.4063 3423,177.4844 Q3423.6875,178.5469 3425.0313,178.5469 Q3425.6563,178.5469 3426.25,178.2813 Q3426.8438,178 3427.4688,177.4219 L3427.4688,180.1406 Z " fill="#000000"/><text fill="#000000" font-family="sans-serif" font-size="14" lengthAdjust="spacing" textLength="229.1885" x="3438.5" y="179.3467">logic_arc_int__baselibs__promise</text><line style="stroke:#181818;stroke-width:0.5;" x1="3410.5" x2="3669.6885" y1="190.5" y2="190.5"/></g><!--class comp_arc_sta__baselibs__result--><g id="elem_comp_arc_sta__baselibs__result"><rect fill="#F1F1F1" height="40" id="comp_arc_sta__baselibs__result" rx="2.5" ry="2.5" style="stroke:#181818;stroke-width:0.5;" width="253.4297" x="2124.5" y="275.5"/><ellipse cx="2139.5" cy="291.5" fill="#ADD1B2" rx="11" ry="11" style="stroke:#181818;stroke-width:1;"/><path d="M2142.4688,297.1406 Q2141.8906,297.4375 2141.25,297.5781 Q2140.6094,297.7344 2139.9063,297.7344 Q2137.4063,297.7344 2136.0781,296.0938 Q2134.7656,294.4375 2134.7656,291.3125 Q2134.7656,288.1875 2136.0781,286.5313 Q2137.4063,284.875 2139.9063,284.875 Q2140.6094,284.875 2141.25,285.0313 Q2141.9063,285.1875 2142.4688,285.4844 L2142.4688,288.2031 Q2141.8438,287.625 2141.25,287.3594 Q2140.6563,287.0781 2140.0313,287.0781 Q2138.6875,287.0781 2138,288.1563 Q2137.3125,289.2188 2137.3125,291.3125 Q2137.3125,293.4063 2138,294.4844 Q2138.6875,295.5469 2140.0313,295.5469 Q2140.6563,295.5469 2141.25,295.2813 Q2141.8438,295 2142.4688,294.4219 L2142.4688,297.1406 Z " fill="#000000"/><text fill="#000000" font-family="sans-serif" font-size="14" lengthAdjust="spacing" textLength="221.4297" x="2153.5" y="296.3467">comp_arc_sta__baselibs__result</text><line style="stroke:#181818;stroke-width:0.5;" x1="2125.5" x2="2376.9297" y1="307.5" y2="307.5"/></g><!--class logic_arc_int__baselibs__result--><g id="elem_logic_arc_int__baselibs__result"><rect fill="#F1F1F1" height="40" id="logic_arc_int__baselibs__result" rx="2.5" ry="2.5" style="stroke:#181818;stroke-width:0.5;" width="244.4609" x="2129" y="158.5"/><ellipse cx="2144" cy="174.5" fill="#ADD1B2" rx="11" ry="11" style="stroke:#181818;stroke-width:1;"/><path d="M2146.9688,180.1406 Q2146.3906,180.4375 2145.75,180.5781 Q2145.1094,180.7344 2144.4063,180.7344 Q2141.9063,180.7344 2140.5781,179.0938 Q2139.2656,177.4375 2139.2656,174.3125 Q2139.2656,171.1875 2140.5781,169.5313 Q2141.9063,167.875 2144.4063,167.875 Q2145.1094,167.875 2145.75,168.0313 Q2146.4063,168.1875 2146.9688,168.4844 L2146.9688,171.2031 Q2146.3438,170.625 2145.75,170.3594 Q2145.1563,170.0781 2144.5313,170.0781 Q2143.1875,170.0781 2142.5,171.1563 Q2141.8125,172.2188 2141.8125,174.3125 Q2141.8125,176.4063 2142.5,177.4844 Q2143.1875,178.5469 2144.5313,178.5469 Q2145.1563,178.5469 2145.75,178.2813 Q2146.3438,178 2146.9688,177.4219 L2146.9688,180.1406 Z " fill="#000000"/><text fill="#000000" font-family="sans-serif" font-size="14" lengthAdjust="spacing" textLength="212.4609" x="2158" y="179.3467">logic_arc_int__baselibs__result</text><line style="stroke:#181818;stroke-width:0.5;" x1="2130" x2="2372.4609" y1="190.5" y2="190.5"/></g><!--class logic_arc_int__baselibs__message_passing--><g id="elem_logic_arc_int__baselibs__message_passing"><rect fill="#F1F1F1" height="40" id="logic_arc_int__baselibs__message_passing" rx="2.5" ry="2.5" style="stroke:#181818;stroke-width:0.5;" width="328.167" x="1088" y="158.5"/><ellipse cx="1103" cy="174.5" fill="#ADD1B2" rx="11" ry="11" style="stroke:#181818;stroke-width:1;"/><path d="M1105.9688,180.1406 Q1105.3906,180.4375 1104.75,180.5781 Q1104.1094,180.7344 1103.4063,180.7344 Q1100.9063,180.7344 1099.5781,179.0938 Q1098.2656,177.4375 1098.2656,174.3125 Q1098.2656,171.1875 1099.5781,169.5313 Q1100.9063,167.875 1103.4063,167.875 Q1104.1094,167.875 1104.75,168.0313 Q1105.4063,168.1875 1105.9688,168.4844 L1105.9688,171.2031 Q1105.3438,170.625 1104.75,170.3594 Q1104.1563,170.0781 1103.5313,170.0781 Q1102.1875,170.0781 1101.5,171.1563 Q1100.8125,172.2188 1100.8125,174.3125 Q1100.8125,176.4063 1101.5,177.4844 Q1102.1875,178.5469 1103.5313,178.5469 Q1104.1563,178.5469 1104.75,178.2813 Q1105.3438,178 1105.9688,177.4219 L1105.9688,180.1406 Z " fill="#000000"/><text fill="#000000" font-family="sans-serif" font-size="14" lengthAdjust="spacing" textLength="296.167" x="1117" y="179.3467">logic_arc_int__baselibs__message_passing</text><line style="stroke:#181818;stroke-width:0.5;" x1="1089" x2="1415.167" y1="190.5" y2="190.5"/></g><!--class logic_arc_int__baselibs__condition_variable--><g id="elem_logic_arc_int__baselibs__condition_variable"><rect fill="#F1F1F1" height="40" id="logic_arc_int__baselibs__condition_variable" rx="2.5" ry="2.5" style="stroke:#181818;stroke-width:0.5;" width="332.7539" x="4594.5" y="158.5"/><ellipse cx="4609.5" cy="174.5" fill="#ADD1B2" rx="11" ry="11" style="stroke:#181818;stroke-width:1;"/><path d="M4612.4688,180.1406 Q4611.8906,180.4375 4611.25,180.5781 Q4610.6094,180.7344 4609.9063,180.7344 Q4607.4063,180.7344 4606.0781,179.0938 Q4604.7656,177.4375 4604.7656,174.3125 Q4604.7656,171.1875 4606.0781,169.5313 Q4607.4063,167.875 4609.9063,167.875 Q4610.6094,167.875 4611.25,168.0313 Q4611.9063,168.1875 4612.4688,168.4844 L4612.4688,171.2031 Q4611.8438,170.625 4611.25,170.3594 Q4610.6563,170.0781 4610.0313,170.0781 Q4608.6875,170.0781 4608,171.1563 Q4607.3125,172.2188 4607.3125,174.3125 Q4607.3125,176.4063 4608,177.4844 Q4608.6875,178.5469 4610.0313,178.5469 Q4610.6563,178.5469 4611.25,178.2813 Q4611.8438,178 4612.4688,177.4219 L4612.4688,180.1406 Z " fill="#000000"/><text fill="#000000" font-family="sans-serif" font-size="14" lengthAdjust="spacing" textLength="300.7539" x="4623.5" y="179.3467">logic_arc_int__baselibs__condition_variable</text><line style="stroke:#181818;stroke-width:0.5;" x1="4595.5" x2="4926.2539" y1="190.5" y2="190.5"/></g><!--class logic_arc_int__baselibs__memory_shared--><g id="elem_logic_arc_int__baselibs__memory_shared"><rect fill="#F1F1F1" height="40" id="logic_arc_int__baselibs__memory_shared" rx="2.5" ry="2.5" style="stroke:#181818;stroke-width:0.5;" width="318.043" x="735" y="158.5"/><ellipse cx="750" cy="174.5" fill="#ADD1B2" rx="11" ry="11" style="stroke:#181818;stroke-width:1;"/><path d="M752.9688,180.1406 Q752.3906,180.4375 751.75,180.5781 Q751.1094,180.7344 750.4063,180.7344 Q747.9063,180.7344 746.5781,179.0938 Q745.2656,177.4375 745.2656,174.3125 Q745.2656,171.1875 746.5781,169.5313 Q747.9063,167.875 750.4063,167.875 Q751.1094,167.875 751.75,168.0313 Q752.4063,168.1875 752.9688,168.4844 L752.9688,171.2031 Q752.3438,170.625 751.75,170.3594 Q751.1563,170.0781 750.5313,170.0781 Q749.1875,170.0781 748.5,171.1563 Q747.8125,172.2188 747.8125,174.3125 Q747.8125,176.4063 748.5,177.4844 Q749.1875,178.5469 750.5313,178.5469 Q751.1563,178.5469 751.75,178.2813 Q752.3438,178 752.9688,177.4219 L752.9688,180.1406 Z " fill="#000000"/><text fill="#000000" font-family="sans-serif" font-size="14" lengthAdjust="spacing" textLength="286.043" x="764" y="179.3467">logic_arc_int__baselibs__memory_shared</text><line style="stroke:#181818;stroke-width:0.5;" x1="736" x2="1052.043" y1="190.5" y2="190.5"/></g><!--class comp_arc_sta__baselibs__message_passing--><g id="elem_comp_arc_sta__baselibs__message_passing"><rect fill="#F1F1F1" height="40" id="comp_arc_sta__baselibs__message_passing" rx="2.5" ry="2.5" style="stroke:#181818;stroke-width:0.5;" width="337.1357" x="1087.5" y="275.5"/><ellipse cx="1102.5" cy="291.5" fill="#ADD1B2" rx="11" ry="11" style="stroke:#181818;stroke-width:1;"/><path d="M1105.4688,297.1406 Q1104.8906,297.4375 1104.25,297.5781 Q1103.6094,297.7344 1102.9063,297.7344 Q1100.4063,297.7344 1099.0781,296.0938 Q1097.7656,294.4375 1097.7656,291.3125 Q1097.7656,288.1875 1099.0781,286.5313 Q1100.4063,284.875 1102.9063,284.875 Q1103.6094,284.875 1104.25,285.0313 Q1104.9063,285.1875 1105.4688,285.4844 L1105.4688,288.2031 Q1104.8438,287.625 1104.25,287.3594 Q1103.6563,287.0781 1103.0313,287.0781 Q1101.6875,287.0781 1101,288.1563 Q1100.3125,289.2188 1100.3125,291.3125 Q1100.3125,293.4063 1101,294.4844 Q1101.6875,295.5469 1103.0313,295.5469 Q1103.6563,295.5469 1104.25,295.2813 Q1104.8438,295 1105.4688,294.4219 L1105.4688,297.1406 Z " fill="#000000"/><text fill="#000000" font-family="sans-serif" font-size="14" lengthAdjust="spacing" textLength="305.1357" x="1116.5" y="296.3467">comp_arc_sta__baselibs__message_passing</text><line style="stroke:#181818;stroke-width:0.5;" x1="1088.5" x2="1423.6357" y1="307.5" y2="307.5"/></g><!--class comp_arc_sta__baselibs__memory_shared--><g id="elem_comp_arc_sta__baselibs__memory_shared"><rect fill="#F1F1F1" height="40" id="comp_arc_sta__baselibs__memory_shared" rx="2.5" ry="2.5" style="stroke:#181818;stroke-width:0.5;" width="327.0117" x="725.5" y="275.5"/><ellipse cx="740.5" cy="291.5" fill="#ADD1B2" rx="11" ry="11" style="stroke:#181818;stroke-width:1;"/><path d="M743.4688,297.1406 Q742.8906,297.4375 742.25,297.5781 Q741.6094,297.7344 740.9063,297.7344 Q738.4063,297.7344 737.0781,296.0938 Q735.7656,294.4375 735.7656,291.3125 Q735.7656,288.1875 737.0781,286.5313 Q738.4063,284.875 740.9063,284.875 Q741.6094,284.875 742.25,285.0313 Q742.9063,285.1875 743.4688,285.4844 L743.4688,288.2031 Q742.8438,287.625 742.25,287.3594 Q741.6563,287.0781 741.0313,287.0781 Q739.6875,287.0781 739,288.1563 Q738.3125,289.2188 738.3125,291.3125 Q738.3125,293.4063 739,294.4844 Q739.6875,295.5469 741.0313,295.5469 Q741.6563,295.5469 742.25,295.2813 Q742.8438,295 743.4688,294.4219 L743.4688,297.1406 Z " fill="#000000"/><text fill="#000000" font-family="sans-serif" font-size="14" lengthAdjust="spacing" textLength="295.0117" x="754.5" y="296.3467">comp_arc_sta__baselibs__memory_shared</text><line style="stroke:#181818;stroke-width:0.5;" x1="726.5" x2="1051.5117" y1="307.5" y2="307.5"/></g><!--class logic_arc_int__baselibs__utils_base64--><g id="elem_logic_arc_int__baselibs__utils_base64"><rect fill="#F1F1F1" height="40" id="logic_arc_int__baselibs__utils_base64" rx="2.5" ry="2.5" style="stroke:#181818;stroke-width:0.5;" width="292.1689" x="1802" y="158.5"/><ellipse cx="1817" cy="174.5" fill="#ADD1B2" rx="11" ry="11" style="stroke:#181818;stroke-width:1;"/><path d="M1819.9688,180.1406 Q1819.3906,180.4375 1818.75,180.5781 Q1818.1094,180.7344 1817.4063,180.7344 Q1814.9063,180.7344 1813.5781,179.0938 Q1812.2656,177.4375 1812.2656,174.3125 Q1812.2656,171.1875 1813.5781,169.5313 Q1814.9063,167.875 1817.4063,167.875 Q1818.1094,167.875 1818.75,168.0313 Q1819.4063,168.1875 1819.9688,168.4844 L1819.9688,171.2031 Q1819.3438,170.625 1818.75,170.3594 Q1818.1563,170.0781 1817.5313,170.0781 Q1816.1875,170.0781 1815.5,171.1563 Q1814.8125,172.2188 1814.8125,174.3125 Q1814.8125,176.4063 1815.5,177.4844 Q1816.1875,178.5469 1817.5313,178.5469 Q1818.1563,178.5469 1818.75,178.2813 Q1819.3438,178 1819.9688,177.4219 L1819.9688,180.1406 Z " fill="#000000"/><text fill="#000000" font-family="sans-serif" font-size="14" lengthAdjust="spacing" textLength="260.1689" x="1831" y="179.3467">logic_arc_int__baselibs__utils_base64</text><line style="stroke:#181818;stroke-width:0.5;" x1="1803" x2="2093.1689" y1="190.5" y2="190.5"/></g><!--class comp_arc_sta__baselibs__bit_manipulation--><g id="elem_comp_arc_sta__baselibs__bit_manipulation"><rect fill="#F1F1F1" height="40" id="comp_arc_sta__baselibs__bit_manipulation" rx="2.5" ry="2.5" style="stroke:#181818;stroke-width:0.5;" width="330.8057" x="243.5" y="275.5"/><ellipse cx="258.5" cy="291.5" fill="#ADD1B2" rx="11" ry="11" style="stroke:#181818;stroke-width:1;"/><path d="M261.4688,297.1406 Q260.8906,297.4375 260.25,297.5781 Q259.6094,297.7344 258.9063,297.7344 Q256.4063,297.7344 255.0781,296.0938 Q253.7656,294.4375 253.7656,291.3125 Q253.7656,288.1875 255.0781,286.5313 Q256.4063,284.875 258.9063,284.875 Q259.6094,284.875 260.25,285.0313 Q260.9063,285.1875 261.4688,285.4844 L261.4688,288.2031 Q260.8438,287.625 260.25,287.3594 Q259.6563,287.0781 259.0313,287.0781 Q257.6875,287.0781 257,288.1563 Q256.3125,289.2188 256.3125,291.3125 Q256.3125,293.4063 257,294.4844 Q257.6875,295.5469 259.0313,295.5469 Q259.6563,295.5469 260.25,295.2813 Q260.8438,295 261.4688,294.4219 L261.4688,297.1406 Z " fill="#000000"/><text fill="#000000" font-family="sans-serif" font-size="14" lengthAdjust="spacing" textLength="298.8057" x="272.5" y="296.3467">comp_arc_sta__baselibs__bit_manipulation</text><line style="stroke:#181818;stroke-width:0.5;" x1="244.5" x2="573.3057" y1="307.5" y2="307.5"/></g><!--class logic_arc_int__baselibs__bit_manipulation--><g id="elem_logic_arc_int__baselibs__bit_manipulation"><rect fill="#F1F1F1" height="40" id="logic_arc_int__baselibs__bit_manipulation" rx="2.5" ry="2.5" style="stroke:#181818;stroke-width:0.5;" width="321.8369" x="7" y="158.5"/><ellipse cx="22" cy="174.5" fill="#ADD1B2" rx="11" ry="11" style="stroke:#181818;stroke-width:1;"/><path d="M24.9688,180.1406 Q24.3906,180.4375 23.75,180.5781 Q23.1094,180.7344 22.4063,180.7344 Q19.9063,180.7344 18.5781,179.0938 Q17.2656,177.4375 17.2656,174.3125 Q17.2656,171.1875 18.5781,169.5313 Q19.9063,167.875 22.4063,167.875 Q23.1094,167.875 23.75,168.0313 Q24.4063,168.1875 24.9688,168.4844 L24.9688,171.2031 Q24.3438,170.625 23.75,170.3594 Q23.1563,170.0781 22.5313,170.0781 Q21.1875,170.0781 20.5,171.1563 Q19.8125,172.2188 19.8125,174.3125 Q19.8125,176.4063 20.5,177.4844 Q21.1875,178.5469 22.5313,178.5469 Q23.1563,178.5469 23.75,178.2813 Q24.3438,178 24.9688,177.4219 L24.9688,180.1406 Z " fill="#000000"/><text fill="#000000" font-family="sans-serif" font-size="14" lengthAdjust="spacing" textLength="289.8369" x="36" y="179.3467">logic_arc_int__baselibs__bit_manipulation</text><line style="stroke:#181818;stroke-width:0.5;" x1="8" x2="327.8369" y1="190.5" y2="190.5"/></g><!--class logic_arc_int__baselibs__executor--><g id="elem_logic_arc_int__baselibs__executor"><rect fill="#F1F1F1" height="40" id="logic_arc_int__baselibs__executor" rx="2.5" ry="2.5" style="stroke:#181818;stroke-width:0.5;" width="266.4385" x="3108" y="158.5"/><ellipse cx="3123" cy="174.5" fill="#ADD1B2" rx="11" ry="11" style="stroke:#181818;stroke-width:1;"/><path d="M3125.9688,180.1406 Q3125.3906,180.4375 3124.75,180.5781 Q3124.1094,180.7344 3123.4063,180.7344 Q3120.9063,180.7344 3119.5781,179.0938 Q3118.2656,177.4375 3118.2656,174.3125 Q3118.2656,171.1875 3119.5781,169.5313 Q3120.9063,167.875 3123.4063,167.875 Q3124.1094,167.875 3124.75,168.0313 Q3125.4063,168.1875 3125.9688,168.4844 L3125.9688,171.2031 Q3125.3438,170.625 3124.75,170.3594 Q3124.1563,170.0781 3123.5313,170.0781 Q3122.1875,170.0781 3121.5,171.1563 Q3120.8125,172.2188 3120.8125,174.3125 Q3120.8125,176.4063 3121.5,177.4844 Q3122.1875,178.5469 3123.5313,178.5469 Q3124.1563,178.5469 3124.75,178.2813 Q3125.3438,178 3125.9688,177.4219 L3125.9688,180.1406 Z " fill="#000000"/><text fill="#000000" font-family="sans-serif" font-size="14" lengthAdjust="spacing" textLength="234.4385" x="3137" y="179.3467">logic_arc_int__baselibs__executor</text><line style="stroke:#181818;stroke-width:0.5;" x1="3109" x2="3373.4385" y1="190.5" y2="190.5"/></g><!--reverse link logic_arc_int__baselibs__synchronized_queue to comp_arc_sta__baselibs__concurrency--><g id="link_logic_arc_int__baselibs__synchronized_queue_comp_arc_sta__baselibs__concurrency"><path codeLine="15" d="M2745.3978,199.24 C2860.0278,212.9 3013.07,230.71 3153,245.5 C3274.31,258.33 3411.98,271.44 3513.83,280.88 " fill="transparent" id="logic_arc_int__baselibs__synchronized_queue-backto-comp_arc_sta__baselibs__concurrency" style="stroke:#181818;stroke-width:1;"/><polygon fill="#181818" points="2739.44,198.53,2747.9035,203.5669,2744.4049,199.1216,2748.8501,195.6231,2739.44,198.53" style="stroke:#181818;stroke-width:1;"/><text fill="#000000" font-family="sans-serif" font-size="13" lengthAdjust="spacing" textLength="76.9082" x="3154" y="241.5669">implements</text></g><!--reverse link logic_arc_int__baselibs__json to comp_arc_sta__baselibs__json--><g id="link_logic_arc_int__baselibs__json_comp_arc_sta__baselibs__json"><path codeLine="16" d="M6063.879,204.7464 C6064.619,225.9764 6065.59,253.94 6066.33,275.19 " fill="transparent" id="logic_arc_int__baselibs__json-backto-comp_arc_sta__baselibs__json" style="stroke:#181818;stroke-width:1;"/><polygon fill="#181818" points="6063.67,198.75,6059.9859,207.8839,6063.8442,203.747,6067.9811,207.6052,6063.67,198.75" style="stroke:#181818;stroke-width:1;"/><text fill="#000000" font-family="sans-serif" font-size="13" lengthAdjust="spacing" textLength="76.9082" x="6066" y="241.5669">implements</text></g><!--reverse link logic_arc_int__baselibs__task to comp_arc_sta__baselibs__concurrency--><g id="link_logic_arc_int__baselibs__task_comp_arc_sta__baselibs__concurrency"><path codeLine="17" d="M4318.7929,199.0324 C4233.0429,212.5224 4119.83,230.08 4015,245.5 C3945.45,255.73 3868.07,266.59 3803.7,275.48 " fill="transparent" id="logic_arc_int__baselibs__task-backto-comp_arc_sta__baselibs__concurrency" style="stroke:#181818;stroke-width:1;"/><polygon fill="#181818" points="4324.72,198.1,4315.2077,195.5473,4319.7807,198.877,4316.451,203.4501,4324.72,198.1" style="stroke:#181818;stroke-width:1;"/><text fill="#000000" font-family="sans-serif" font-size="13" lengthAdjust="spacing" textLength="76.9082" x="4121" y="241.5669">implements</text></g><!--link Feature_User to logic_arc_int__baselibs__bit_mask_operator--><g id="link_Feature_User_logic_arc_int__baselibs__bit_mask_operator"><path codeLine="18" d="M3195.71,45.76 C2992.69,51.48 2146.15,76.31 1452,111.5 C1125.09,128.07 1043.2,131.33 717,158.5 C711.37,158.97 711.6159,158.9224 705.8359,159.4424 " fill="transparent" id="Feature_User-to-logic_arc_int__baselibs__bit_mask_operator" style="stroke:#181818;stroke-width:1;"/><polygon fill="#181818" points="699.86,159.98,709.1822,163.1575,704.8399,159.532,708.4654,155.1897,699.86,159.98" style="stroke:#181818;stroke-width:1;"/><text fill="#000000" font-family="sans-serif" font-size="13" lengthAdjust="spacing" textLength="23.0103" x="1453" y="124.5669">use</text></g><!--reverse link logic_arc_int__baselibs__shared_future to comp_arc_sta__baselibs__concurrency--><g id="link_logic_arc_int__baselibs__shared_future_comp_arc_sta__baselibs__concurrency"><path codeLine="19" d="M4054.4685,199.9619 C3966.5385,221.2519 3830.85,254.11 3742.86,275.41 " fill="transparent" id="logic_arc_int__baselibs__shared_future-backto-comp_arc_sta__baselibs__concurrency" style="stroke:#181818;stroke-width:1;"/><polygon fill="#181818" points="4060.3,198.55,4050.6114,196.7803,4055.4404,199.7266,4052.494,204.5556,4060.3,198.55" style="stroke:#181818;stroke-width:1;"/><text fill="#000000" font-family="sans-serif" font-size="13" lengthAdjust="spacing" textLength="76.9082" x="3930" y="241.5669">implements</text></g><!--link Feature_User to logic_arc_int__baselibs__dynamic_array--><g id="link_Feature_User_logic_arc_int__baselibs__dynamic_array"><path codeLine="20" d="M3286.14,45.89 C3505.1,52.88 4478.59,86.7 5273,158.5 C5278.83,159.03 5278.8078,159.0027 5284.8078,159.5827 " fill="transparent" id="Feature_User-to-logic_arc_int__baselibs__dynamic_array" style="stroke:#181818;stroke-width:1;"/><polygon fill="#181818" points="5290.78,160.16,5282.2066,155.3126,5285.8032,159.6789,5281.4369,163.2755,5290.78,160.16" style="stroke:#181818;stroke-width:1;"/><text fill="#000000" font-family="sans-serif" font-size="13" lengthAdjust="spacing" textLength="23.0103" x="4885" y="124.5669">use</text></g><!--reverse link logic_arc_int__baselibs__filesystem to comp_arc_sta__baselibs__filesystem--><g id="link_logic_arc_int__baselibs__filesystem_comp_arc_sta__baselibs__filesystem"><path codeLine="21" d="M5771.121,204.7464 C5770.381,225.9764 5769.41,253.94 5768.67,275.19 " fill="transparent" id="logic_arc_int__baselibs__filesystem-backto-comp_arc_sta__baselibs__filesystem" style="stroke:#181818;stroke-width:1;"/><polygon fill="#181818" points="5771.33,198.75,5767.0189,207.6052,5771.1558,203.747,5775.0141,207.8839,5771.33,198.75" style="stroke:#181818;stroke-width:1;"/><text fill="#000000" font-family="sans-serif" font-size="13" lengthAdjust="spacing" textLength="76.9082" x="5771" y="241.5669">implements</text></g><!--reverse link logic_arc_int__baselibs__utils_scoped_op to comp_arc_sta__baselibs__utils--><g id="link_logic_arc_int__baselibs__utils_scoped_op_comp_arc_sta__baselibs__utils"><path codeLine="22" d="M1642.2506,202.1252 C1673.5406,223.4152 1718.69,254.14 1749.9,275.38 " fill="transparent" id="logic_arc_int__baselibs__utils_scoped_op-backto-comp_arc_sta__baselibs__utils" style="stroke:#181818;stroke-width:1;"/><polygon fill="#181818" points="1637.29,198.75,1642.4808,207.1199,1641.4238,201.5627,1646.9811,200.5058,1637.29,198.75" style="stroke:#181818;stroke-width:1;"/><text fill="#000000" font-family="sans-serif" font-size="13" lengthAdjust="spacing" textLength="76.9082" x="1705" y="241.5669">implements</text></g><!--link Feature_User to logic_arc_int__baselibs__future--><g id="link_Feature_User_logic_arc_int__baselibs__future"><path codeLine="23" d="M3286.16,54.72 C3384.39,76.93 3612.8678,128.6163 3739.1378,157.1763 " fill="transparent" id="Feature_User-to-logic_arc_int__baselibs__future" style="stroke:#181818;stroke-width:1;"/><polygon fill="#181818" points="3744.99,158.5,3737.0942,152.6131,3740.1132,157.397,3735.3293,160.416,3744.99,158.5" style="stroke:#181818;stroke-width:1;"/><text fill="#000000" font-family="sans-serif" font-size="13" lengthAdjust="spacing" textLength="23.0103" x="3605" y="124.5669">use</text></g><!--link Feature_User to logic_arc_int__baselibs__intrusive_list--><g id="link_Feature_User_logic_arc_int__baselibs__intrusive_list"><path codeLine="24" d="M3286.16,46.63 C3483.18,56.11 4287.08,96.74 4945,158.5 C4950.71,159.04 4950.551,158.9909 4956.431,159.5909 " fill="transparent" id="Feature_User-to-logic_arc_int__baselibs__intrusive_list" style="stroke:#181818;stroke-width:1;"/><polygon fill="#181818" points="4962.4,160.2,4953.8525,155.307,4957.4258,159.6924,4953.0404,163.2657,4962.4,160.2" style="stroke:#181818;stroke-width:1;"/><text fill="#000000" font-family="sans-serif" font-size="13" lengthAdjust="spacing" textLength="23.0103" x="4573" y="124.5669">use</text></g><!--reverse link logic_arc_int__baselibs__intrusive_list to comp_arc_sta__baselibs__containers--><g id="link_logic_arc_int__baselibs__intrusive_list_comp_arc_sta__baselibs__containers"><path codeLine="25" d="M5142.599,202.0981 C5174.259,223.3881 5219.99,254.14 5251.57,275.38 " fill="transparent" id="logic_arc_int__baselibs__intrusive_list-backto-comp_arc_sta__baselibs__containers" style="stroke:#181818;stroke-width:1;"/><polygon fill="#181818" points="5137.62,198.75,5142.8563,207.0915,5141.7691,201.5401,5147.3205,200.4529,5137.62,198.75" style="stroke:#181818;stroke-width:1;"/><text fill="#000000" font-family="sans-serif" font-size="13" lengthAdjust="spacing" textLength="76.9082" x="5205" y="241.5669">implements</text></g><!--reverse link logic_arc_int__baselibs__dynamic_array to comp_arc_sta__baselibs__containers--><g id="link_logic_arc_int__baselibs__dynamic_array_comp_arc_sta__baselibs__containers"><path codeLine="26" d="M5412.4574,202.1805 C5381.9074,223.4705 5337.91,254.14 5307.43,275.38 " fill="transparent" id="logic_arc_int__baselibs__dynamic_array-backto-comp_arc_sta__baselibs__containers" style="stroke:#181818;stroke-width:1;"/><polygon fill="#181818" points="5417.38,198.75,5407.7091,200.614,5413.2779,201.6087,5412.2831,207.1775,5417.38,198.75" style="stroke:#181818;stroke-width:1;"/><text fill="#000000" font-family="sans-serif" font-size="13" lengthAdjust="spacing" textLength="76.9082" x="5373" y="241.5669">implements</text></g><!--link Feature_User to logic_arc_int__baselibs__task--><g id="link_Feature_User_logic_arc_int__baselibs__task"><path codeLine="27" d="M3286.05,48.75 C3433.13,62.76 3912.6,109.36 4308,158.5 C4313.48,159.18 4313.1306,159.1222 4318.7906,159.8622 " fill="transparent" id="Feature_User-to-logic_arc_int__baselibs__task" style="stroke:#181818;stroke-width:1;"/><polygon fill="#181818" points="4324.74,160.64,4316.3345,155.507,4319.7822,159.9918,4315.2974,163.4395,4324.74,160.64" style="stroke:#181818;stroke-width:1;"/><text fill="#000000" font-family="sans-serif" font-size="13" lengthAdjust="spacing" textLength="23.0103" x="4045" y="124.5669">use</text></g><!--link Feature_User to logic_arc_int__baselibs__task_result--><g id="link_Feature_User_logic_arc_int__baselibs__task_result"><path codeLine="28" d="M3195.74,63.98 C3136.9,89.31 3040.2911,130.8876 2981.8911,156.0276 " fill="transparent" id="Feature_User-to-logic_arc_int__baselibs__task_result" style="stroke:#181818;stroke-width:1;"/><polygon fill="#181818" points="2976.38,158.4,2986.2282,158.5154,2980.9725,156.423,2983.065,151.1674,2976.38,158.4" style="stroke:#181818;stroke-width:1;"/><text fill="#000000" font-family="sans-serif" font-size="13" lengthAdjust="spacing" textLength="23.0103" x="3078" y="124.5669">use</text></g><!--link Feature_User to logic_arc_int__baselibs__promise--><g id="link_Feature_User_logic_arc_int__baselibs__promise"><path codeLine="29" d="M3286.09,64.56 C3343.19,89.95 3435.3876,130.9722 3491.4976,155.9222 " fill="transparent" id="Feature_User-to-logic_arc_int__baselibs__promise" style="stroke:#181818;stroke-width:1;"/><polygon fill="#181818" points="3496.98,158.36,3490.3816,151.0483,3492.4113,156.3285,3487.1311,158.3582,3496.98,158.36" style="stroke:#181818;stroke-width:1;"/><text fill="#000000" font-family="sans-serif" font-size="13" lengthAdjust="spacing" textLength="23.0103" x="3427" y="124.5669">use</text></g><!--link Feature_User to logic_arc_int__baselibs__filesystem--><g id="link_Feature_User_logic_arc_int__baselibs__filesystem"><path codeLine="30" d="M3286.02,45.85 C3480.72,51.79 4269.63,76.83 4917,111.5 C5228.37,128.17 5306.58,129.08 5617,158.5 C5622.53,159.02 5622.2019,158.9722 5627.9019,159.5622 " fill="transparent" id="Feature_User-to-logic_arc_int__baselibs__filesystem" style="stroke:#181818;stroke-width:1;"/><polygon fill="#181818" points="5633.87,160.18,5625.3297,155.2746,5628.8966,159.6652,5624.506,163.2321,5633.87,160.18" style="stroke:#181818;stroke-width:1;"/><text fill="#000000" font-family="sans-serif" font-size="13" lengthAdjust="spacing" textLength="23.0103" x="5233" y="124.5669">use</text></g><!--link Feature_User to logic_arc_int__baselibs__shared_future--><g id="link_Feature_User_logic_arc_int__baselibs__shared_future"><path codeLine="31" d="M3286.15,51.19 C3418.1,70.73 3800.6847,127.391 4004.6747,157.601 " fill="transparent" id="Feature_User-to-logic_arc_int__baselibs__shared_future" style="stroke:#181818;stroke-width:1;"/><polygon fill="#181818" points="4010.61,158.48,4002.2931,153.2047,4005.6639,157.7475,4001.1211,161.1184,4010.61,158.48" style="stroke:#181818;stroke-width:1;"/><text fill="#000000" font-family="sans-serif" font-size="13" lengthAdjust="spacing" textLength="23.0103" x="3797" y="124.5669">use</text></g><!--link Feature_User to logic_arc_int__baselibs__json--><g id="link_Feature_User_logic_arc_int__baselibs__json"><path codeLine="32" d="M3286.26,45.37 C3504.82,49.68 4472.81,70.32 5265,111.5 C5560.01,126.83 5634.23,127.45 5928,158.5 C5934,159.13 5934.1923,159.1189 5940.3923,159.8589 " fill="transparent" id="Feature_User-to-logic_arc_int__baselibs__json" style="stroke:#181818;stroke-width:1;"/><polygon fill="#181818" points="5946.35,160.57,5937.8875,155.5316,5941.3852,159.9774,5936.9394,163.4752,5946.35,160.57" style="stroke:#181818;stroke-width:1;"/><text fill="#000000" font-family="sans-serif" font-size="13" lengthAdjust="spacing" textLength="23.0103" x="5586" y="124.5669">use</text></g><!--reverse link logic_arc_int__baselibs__task_result to comp_arc_sta__baselibs__concurrency--><g id="link_logic_arc_int__baselibs__task_result_comp_arc_sta__baselibs__concurrency"><path codeLine="33" d="M3054.2318,199.5354 C3136.0618,212.8754 3242.23,230.04 3341,245.5 C3405.44,255.59 3477.17,266.5 3536.63,275.46 " fill="transparent" id="logic_arc_int__baselibs__task_result-backto-comp_arc_sta__baselibs__concurrency" style="stroke:#181818;stroke-width:1;"/><polygon fill="#181818" points="3048.31,198.57,3056.5492,203.966,3053.2449,199.3745,3057.8363,196.0702,3048.31,198.57" style="stroke:#181818;stroke-width:1;"/><text fill="#000000" font-family="sans-serif" font-size="13" lengthAdjust="spacing" textLength="76.9082" x="3342" y="241.5669">implements</text></g><!--reverse link logic_arc_int__baselibs__result to comp_arc_sta__baselibs__result--><g id="link_logic_arc_int__baselibs__result_comp_arc_sta__baselibs__result"><path codeLine="34" d="M2251,204.75 C2251,225.98 2251,253.94 2251,275.19 " fill="transparent" id="logic_arc_int__baselibs__result-backto-comp_arc_sta__baselibs__result" style="stroke:#181818;stroke-width:1;"/><polygon fill="#181818" points="2251,198.75,2247,207.75,2251,203.75,2255,207.75,2251,198.75" style="stroke:#181818;stroke-width:1;"/><text fill="#000000" font-family="sans-serif" font-size="13" lengthAdjust="spacing" textLength="76.9082" x="2252" y="241.5669">implements</text></g><!--link Feature_User to logic_arc_int__baselibs__message_passing--><g id="link_Feature_User_logic_arc_int__baselibs__message_passing"><path codeLine="35" d="M3195.9,46.56 C2991.9,56.03 2135.09,97.59 1434,158.5 C1428.14,159.01 1428.1642,158.9843 1422.1442,159.5443 " fill="transparent" id="Feature_User-to-logic_arc_int__baselibs__message_passing" style="stroke:#181818;stroke-width:1;"/><polygon fill="#181818" points="1416.17,160.1,1425.5018,163.2492,1421.1485,159.6369,1424.7608,155.2836,1416.17,160.1" style="stroke:#181818;stroke-width:1;"/><text fill="#000000" font-family="sans-serif" font-size="13" lengthAdjust="spacing" textLength="23.0103" x="2031" y="124.5669">use</text></g><!--reverse link logic_arc_int__baselibs__condition_variable to comp_arc_sta__baselibs__concurrency--><g id="link_logic_arc_int__baselibs__condition_variable_comp_arc_sta__baselibs__concurrency"><path codeLine="36" d="M4605.0057,199.2395 C4493.4057,213.0995 4343.28,231.13 4206,245.5 C4073.74,259.34 3923.08,272.77 3814.23,282.06 " fill="transparent" id="logic_arc_int__baselibs__condition_variable-backto-comp_arc_sta__baselibs__concurrency" style="stroke:#181818;stroke-width:1;"/><polygon fill="#181818" points="4610.96,198.5,4601.5356,195.6397,4605.9981,199.1162,4602.5216,203.5787,4610.96,198.5" style="stroke:#181818;stroke-width:1;"/><text fill="#000000" font-family="sans-serif" font-size="13" lengthAdjust="spacing" textLength="76.9082" x="4359" y="241.5669">implements</text></g><!--reverse link logic_arc_int__baselibs__future to comp_arc_sta__baselibs__concurrency--><g id="link_logic_arc_int__baselibs__future_comp_arc_sta__baselibs__concurrency"><path codeLine="37" d="M3796.4574,202.1805 C3765.9074,223.4705 3721.91,254.14 3691.43,275.38 " fill="transparent" id="logic_arc_int__baselibs__future-backto-comp_arc_sta__baselibs__concurrency" style="stroke:#181818;stroke-width:1;"/><polygon fill="#181818" points="3801.38,198.75,3791.7091,200.614,3797.2779,201.6087,3796.2831,207.1775,3801.38,198.75" style="stroke:#181818;stroke-width:1;"/><text fill="#000000" font-family="sans-serif" font-size="13" lengthAdjust="spacing" textLength="76.9082" x="3757" y="241.5669">implements</text></g><!--link Feature_User to logic_arc_int__baselibs__memory_shared--><g id="link_Feature_User_logic_arc_int__baselibs__memory_shared"><path codeLine="38" d="M3195.84,45.74 C2968.08,52.25 1922.65,84.95 1070,158.5 C1064.49,158.98 1064.8548,158.9311 1059.1948,159.4511 " fill="transparent" id="Feature_User-to-logic_arc_int__baselibs__memory_shared" style="stroke:#181818;stroke-width:1;"/><polygon fill="#181818" points="1053.22,160,1062.5482,163.1598,1058.199,159.5426,1061.8163,155.1934,1053.22,160" style="stroke:#181818;stroke-width:1;"/><text fill="#000000" font-family="sans-serif" font-size="13" lengthAdjust="spacing" textLength="23.0103" x="1667" y="124.5669">use</text></g><!--reverse link logic_arc_int__baselibs__message_passing to comp_arc_sta__baselibs__message_passing--><g id="link_logic_arc_int__baselibs__message_passing_comp_arc_sta__baselibs__message_passing"><path codeLine="39" d="M1252.879,204.7464 C1253.619,225.9764 1254.59,253.94 1255.33,275.19 " fill="transparent" id="logic_arc_int__baselibs__message_passing-backto-comp_arc_sta__baselibs__message_passing" style="stroke:#181818;stroke-width:1;"/><polygon fill="#181818" points="1252.67,198.75,1248.9859,207.8839,1252.8442,203.747,1256.9811,207.6052,1252.67,198.75" style="stroke:#181818;stroke-width:1;"/><text fill="#000000" font-family="sans-serif" font-size="13" lengthAdjust="spacing" textLength="76.9082" x="1256" y="241.5669">implements</text></g><!--reverse link logic_arc_int__baselibs__promise to comp_arc_sta__baselibs__concurrency--><g id="link_logic_arc_int__baselibs__promise_comp_arc_sta__baselibs__concurrency"><path codeLine="40" d="M3565.1492,202.8301 C3588.0392,224.0601 3620.26,253.94 3643.18,275.19 " fill="transparent" id="logic_arc_int__baselibs__promise-backto-comp_arc_sta__baselibs__concurrency" style="stroke:#181818;stroke-width:1;"/><polygon fill="#181818" points="3560.75,198.75,3564.6287,207.803,3564.416,202.1501,3570.0688,201.9374,3560.75,198.75" style="stroke:#181818;stroke-width:1;"/><text fill="#000000" font-family="sans-serif" font-size="13" lengthAdjust="spacing" textLength="76.9082" x="3610" y="241.5669">implements</text></g><!--reverse link logic_arc_int__baselibs__memory_shared to comp_arc_sta__baselibs__memory_shared--><g id="link_logic_arc_int__baselibs__memory_shared_comp_arc_sta__baselibs__memory_shared"><path codeLine="41" d="M892.9002,204.7444 C891.9802,225.9744 890.76,253.94 889.84,275.19 " fill="transparent" id="logic_arc_int__baselibs__memory_shared-backto-comp_arc_sta__baselibs__memory_shared" style="stroke:#181818;stroke-width:1;"/><polygon fill="#181818" points="893.16,198.75,888.7741,207.5684,892.9435,203.7453,896.7666,207.9147,893.16,198.75" style="stroke:#181818;stroke-width:1;"/><text fill="#000000" font-family="sans-serif" font-size="13" lengthAdjust="spacing" textLength="76.9082" x="893" y="241.5669">implements</text></g><!--link Feature_User to logic_arc_int__baselibs__utils_scoped_op--><g id="link_Feature_User_logic_arc_int__baselibs__utils_scoped_op"><path codeLine="42" d="M3195.94,47.53 C3017.11,59.66 2340.09,106.57 1784,158.5 C1778.37,159.03 1778.611,158.9812 1772.831,159.5512 " fill="transparent" id="Feature_User-to-logic_arc_int__baselibs__utils_scoped_op" style="stroke:#181818;stroke-width:1;"/><polygon fill="#181818" points="1766.86,160.14,1776.2091,163.2374,1771.8359,159.6493,1775.424,155.2761,1766.86,160.14" style="stroke:#181818;stroke-width:1;"/><text fill="#000000" font-family="sans-serif" font-size="13" lengthAdjust="spacing" textLength="23.0103" x="2306" y="124.5669">use</text></g><!--reverse link logic_arc_int__baselibs__utils_base64 to comp_arc_sta__baselibs__utils--><g id="link_logic_arc_int__baselibs__utils_base64_comp_arc_sta__baselibs__utils"><path codeLine="43" d="M1914.5799,202.1113 C1883.0999,223.4013 1837.66,254.14 1806.26,275.38 " fill="transparent" id="logic_arc_int__baselibs__utils_base64-backto-comp_arc_sta__baselibs__utils" style="stroke:#181818;stroke-width:1;"/><polygon fill="#181818" points="1919.55,198.75,1909.854,200.4785,1915.4083,201.5511,1914.3357,207.1053,1919.55,198.75" style="stroke:#181818;stroke-width:1;"/><text fill="#000000" font-family="sans-serif" font-size="13" lengthAdjust="spacing" textLength="76.9082" x="1875" y="241.5669">implements</text></g><!--link Feature_User to logic_arc_int__baselibs__synchronized_queue--><g id="link_Feature_User_logic_arc_int__baselibs__synchronized_queue"><path codeLine="44" d="M3195.96,53.59 C3089.44,75.09 2826.0614,128.2429 2682.0914,157.3029 " fill="transparent" id="Feature_User-to-logic_arc_int__baselibs__synchronized_queue" style="stroke:#181818;stroke-width:1;"/><polygon fill="#181818" points="2676.21,158.49,2685.8235,160.6302,2681.1112,157.5007,2684.2406,152.7884,2676.21,158.49" style="stroke:#181818;stroke-width:1;"/><text fill="#000000" font-family="sans-serif" font-size="13" lengthAdjust="spacing" textLength="23.0103" x="2892" y="124.5669">use</text></g><!--link Feature_User to logic_arc_int__baselibs__utils_base64--><g id="link_Feature_User_logic_arc_int__baselibs__utils_base64"><path codeLine="45" d="M3195.76,48.81 C3043.03,63.42 2532.45,112.68 2111,158.5 C2105.48,159.1 2105.8134,159.0586 2100.1334,159.6886 " fill="transparent" id="Feature_User-to-logic_arc_int__baselibs__utils_base64" style="stroke:#181818;stroke-width:1;"/><polygon fill="#181818" points="2094.17,160.35,2103.5561,163.3335,2099.1395,159.7988,2102.6742,155.3822,2094.17,160.35" style="stroke:#181818;stroke-width:1;"/><text fill="#000000" font-family="sans-serif" font-size="13" lengthAdjust="spacing" textLength="23.0103" x="2547" y="124.5669">use</text></g><!--reverse link logic_arc_int__baselibs__bit_mask_operator to comp_arc_sta__baselibs__bit_manipulation--><g id="link_logic_arc_int__baselibs__bit_mask_operator_comp_arc_sta__baselibs__bit_manipulation"><path codeLine="46" d="M507.0278,202.8484 C484.3278,224.0784 452.39,253.94 429.65,275.19 " fill="transparent" id="logic_arc_int__baselibs__bit_mask_operator-backto-comp_arc_sta__baselibs__bit_manipulation" style="stroke:#181818;stroke-width:1;"/><polygon fill="#181818" points="511.41,198.75,502.1045,201.9761,507.7582,202.1653,507.569,207.819,511.41,198.75" style="stroke:#181818;stroke-width:1;"/><text fill="#000000" font-family="sans-serif" font-size="13" lengthAdjust="spacing" textLength="76.9082" x="479" y="241.5669">implements</text></g><!--reverse link logic_arc_int__baselibs__bit_manipulation to comp_arc_sta__baselibs__bit_manipulation--><g id="link_logic_arc_int__baselibs__bit_manipulation_comp_arc_sta__baselibs__bit_manipulation"><path codeLine="47" d="M213.485,201.2042 C258.055,222.4742 324.23,254.05 368.84,275.34 " fill="transparent" id="logic_arc_int__baselibs__bit_manipulation-backto-comp_arc_sta__baselibs__bit_manipulation" style="stroke:#181818;stroke-width:1;"/><polygon fill="#181818" points="208.07,198.62,214.4697,206.1063,212.5825,200.7735,217.9153,198.8863,208.07,198.62" style="stroke:#181818;stroke-width:1;"/><text fill="#000000" font-family="sans-serif" font-size="13" lengthAdjust="spacing" textLength="76.9082" x="304" y="241.5669">implements</text></g><!--link Feature_User to logic_arc_int__baselibs__condition_variable--><g id="link_Feature_User_logic_arc_int__baselibs__condition_variable"><path codeLine="48" d="M3286.33,47.91 C3411.97,57.42 3775.28,85.23 4077,111.5 C4299.36,130.86 4354.88,136.59 4577,158.5 C4582.59,159.05 4582.3094,159.0271 4588.0494,159.5971 " fill="transparent" id="Feature_User-to-logic_arc_int__baselibs__condition_variable" style="stroke:#181818;stroke-width:1;"/><polygon fill="#181818" points="4594.02,160.19,4585.4593,155.3202,4589.0445,159.6959,4584.6688,163.2811,4594.02,160.19" style="stroke:#181818;stroke-width:1;"/><text fill="#000000" font-family="sans-serif" font-size="13" lengthAdjust="spacing" textLength="23.0103" x="4260" y="124.5669">use</text></g><!--link Feature_User to logic_arc_int__baselibs__result--><g id="link_Feature_User_logic_arc_int__baselibs__result"><path codeLine="49" d="M3195.79,50.51 C3068.79,67.41 2697.99,116.82 2390,158.5 C2384.45,159.25 2384.7152,159.2107 2378.9852,159.9907 " fill="transparent" id="Feature_User-to-logic_arc_int__baselibs__result" style="stroke:#181818;stroke-width:1;"/><polygon fill="#181818" points="2373.04,160.8,2382.4973,163.5495,2377.9943,160.1256,2381.4182,155.6226,2373.04,160.8" style="stroke:#181818;stroke-width:1;"/><text fill="#000000" font-family="sans-serif" font-size="13" lengthAdjust="spacing" textLength="23.0103" x="2719" y="124.5669">use</text></g><!--reverse link logic_arc_int__baselibs__executor to comp_arc_sta__baselibs__concurrency--><g id="link_logic_arc_int__baselibs__executor_comp_arc_sta__baselibs__concurrency"><path codeLine="50" d="M3317.1099,200.194 C3395.4599,221.494 3515.59,254.15 3593.86,275.43 " fill="transparent" id="logic_arc_int__baselibs__executor-backto-comp_arc_sta__baselibs__concurrency" style="stroke:#181818;stroke-width:1;"/><polygon fill="#181818" points="3311.32,198.62,3318.9554,204.8409,3316.1449,199.9317,3321.0541,197.1211,3311.32,198.62" style="stroke:#181818;stroke-width:1;"/><text fill="#000000" font-family="sans-serif" font-size="13" lengthAdjust="spacing" textLength="76.9082" x="3478" y="241.5669">implements</text></g><!--link Feature_User to logic_arc_int__baselibs__executor--><g id="link_Feature_User_logic_arc_int__baselibs__executor"><path codeLine="51" d="M3241,81.55 C3241,106.45 3241,132.26 3241,152.26 " fill="transparent" id="Feature_User-to-logic_arc_int__baselibs__executor" style="stroke:#181818;stroke-width:1;"/><polygon fill="#181818" points="3241,158.26,3245,149.26,3241,153.26,3237,149.26,3241,158.26" style="stroke:#181818;stroke-width:1;"/><text fill="#000000" font-family="sans-serif" font-size="13" lengthAdjust="spacing" textLength="23.0103" x="3242" y="124.5669">use</text></g><!--link Feature_User to logic_arc_int__baselibs__bit_manipulation--><g id="link_Feature_User_logic_arc_int__baselibs__bit_manipulation"><path codeLine="52" d="M3195.8,45.4 C2970.04,49.98 1942,72.13 1101,111.5 C765.61,127.2 681.58,130.33 347,158.5 C341.24,158.99 341.3552,158.955 335.4352,159.495 " fill="transparent" id="Feature_User-to-logic_arc_int__baselibs__bit_manipulation" style="stroke:#181818;stroke-width:1;"/><polygon fill="#181818" points="329.46,160.04,338.7861,163.2059,334.4393,159.5858,338.0594,155.239,329.46,160.04" style="stroke:#181818;stroke-width:1;"/><text fill="#000000" font-family="sans-serif" font-size="13" lengthAdjust="spacing" textLength="23.0103" x="1102" y="124.5669">use</text></g><!--SRC=[hLPDRzim3BthLmYzfnk6OeUYw6N0JZkkPq6MsOIhFZoHwkeD- - -JxMofaoooNHybay_lFPAIjBNXXtBuWduhE3IIWwm2St2onWY6CNYnmneaCKG8t3OmhC4rt4hD7B5A32JkY5iBz-9Q4zfA_X9VqCEdO4EK4Uf-zNM7via3aVnm_Lxy5dVlzZb26yvnLvz1SueW7mZYbTGaznkgsv12cE0QfQDHn5gfIXDOh4Wf4xn9CO8thToapRsqOOkcZqJFhoEfzMONWyUVKAll2HBSIdID1GUUIVxt3zye-09q5p8DR3fTrlGqnXmvigal9LV8ocK05Hg8EXjyAnF16hHeftDDrMFgg2pcLxTUk_vJr6s1soDQe3OteIjGEmHEgqLYj5J0x6CKcUnZdSrSBFYlNxtI6Nbv6HFXCoYBnEKgiix35akgZb4dTkuqyAFQBZHiQF-vTdLPAW8bo_EJcnWSqe8YlMwykRb7ypGtVJXvLfhjaNjJUcA8BQ2U0voXqELBGsz1DPeeNrMhYSsHDNQNd7hM4NLbOUqJ_8rdf0CNOhjla8Bi8vCAn4uiNLVtlpcQ0ZjIMUGzScIXhoT7-aLdfryItVhZpM9QvvudSq-3CP6BkeONWiScMTrDGK7YcGV5bEek-iiXVB6PvuPxhfcZQ-JjKm4lODA9SJFu703cAZcrjKVu0m00]--></g></svg>