<svg xmlns="http://www.w3.org/2000/svg" xmlns:xlink="http://www.w3.org/1999/xlink" contentStyleType="text/css" data-diagram-type="CLASS" height="322px" preserveAspectRatio="none" style="width:6205px;height:322px;background:#FFFFFF;" version="1.1" viewBox="0 0 6205 322" width="6205px" zoomAndPan="magnify"><defs/><g><!--entity Feature_User--><g id="elem_Feature_User"><ellipse cx="3087.6685" cy="14" fill="#F1F1F1" rx="8" ry="8" style="stroke:#181818;stroke-width:0.5;"/><path d="M3087.6685,22 L3087.6685,49 M3074.6685,30 L3100.6685,30 M3087.6685,49 L3074.6685,64 M3087.6685,49 L3100.6685,64 " fill="transparent" style="stroke:#181818;stroke-width:0.5;"/><text fill="#000000" font-family="sans-serif" font-size="14" lengthAdjust="spacing" textLength="90.3369" x="3042.5" y="78.4951">Feature User</text></g><!--class logic_arc_int__baselibs__result--><g id="elem_logic_arc_int__baselibs__result"><rect fill="#F1F1F1" height="40" id="logic_arc_int__baselibs__result" rx="2.5" ry="2.5" style="stroke:#181818;stroke-width:0.5;" width="244.4609" x="3923.5" y="158.5"/><ellipse cx="3938.5" cy="174.5" fill="#ADD1B2" rx="11" ry="11" style="stroke:#181818;stroke-width:1;"/><path d="M3941.4688,180.1406 Q3940.8906,180.4375 3940.25,180.5781 Q3939.6094,180.7344 3938.9063,180.7344 Q3936.4063,180.7344 3935.0781,179.0938 Q3933.7656,177.4375 3933.7656,174.3125 Q3933.7656,171.1875 3935.0781,169.5313 Q3936.4063,167.875 3938.9063,167.875 Q3939.6094,167.875 3940.25,168.0313 Q3940.9063,168.1875 3941.4688,168.4844 L3941.4688,171.2031 Q3940.8438,170.625 3940.25,170.3594 Q3939.6563,170.0781 3939.0313,170.0781 Q3937.6875,170.0781 3937,171.1563 Q3936.3125,172.2188 3936.3125,174.3125 Q3936.3125,176.4063 3937,177.4844 Q3937.6875,178.5469 3939.0313,178.5469 Q3939.6563,178.5469 3940.25,178.2813 Q3940.8438,178 3941.4688,177.4219 L3941.4688,180.1406 Z " fill="#000000"/><text fill="#000000" font-family="sans-serif" font-size="14" lengthAdjust="spacing" textLength="212.4609" x="3952.5" y="179.3467">logic_arc_int__baselibs__result</text><line style="stroke:#181818;stroke-width:0.5;" x1="3924.5" x2="4166.9609" y1="190.5" y2="190.5"/></g><!--class comp_arc_sta__baselibs__bit_manipulation--><g id="elem_comp_arc_sta__baselibs__bit_manipulation"><rect fill="#F1F1F1" height="40" id="comp_arc_sta__baselibs__bit_manipulation" rx="2.5" ry="2.5" style="stroke:#181818;stroke-width:0.5;" width="330.8057" x="5051" y="275.5"/><ellipse cx="5066" cy="291.5" fill="#ADD1B2" rx="11" ry="11" style="stroke:#181818;stroke-width:1;"/><path d="M5068.9688,297.1406 Q5068.3906,297.4375 5067.75,297.5781 Q5067.1094,297.7344 5066.4063,297.7344 Q5063.9063,297.7344 5062.5781,296.0938 Q5061.2656,294.4375 5061.2656,291.3125 Q5061.2656,288.1875 5062.5781,286.5313 Q5063.9063,284.875 5066.4063,284.875 Q5067.1094,284.875 5067.75,285.0313 Q5068.4063,285.1875 5068.9688,285.4844 L5068.9688,288.2031 Q5068.3438,287.625 5067.75,287.3594 Q5067.1563,287.0781 5066.5313,287.0781 Q5065.1875,287.0781 5064.5,288.1563 Q5063.8125,289.2188 5063.8125,291.3125 Q5063.8125,293.4063 5064.5,294.4844 Q5065.1875,295.5469 5066.5313,295.5469 Q5067.1563,295.5469 5067.75,295.2813 Q5068.3438,295 5068.9688,294.4219 L5068.9688,297.1406 Z " fill="#000000"/><text fill="#000000" font-family="sans-serif" font-size="14" lengthAdjust="spacing" textLength="298.8057" x="5080" y="296.3467">comp_arc_sta__baselibs__bit_manipulation</text><line style="stroke:#181818;stroke-width:0.5;" x1="5052" x2="5380.8057" y1="307.5" y2="307.5"/></g><!--class logic_arc_int__baselibs__bit_manipulation--><g id="elem_logic_arc_int__baselibs__bit_manipulation"><rect fill="#F1F1F1" height="40" id="logic_arc_int__baselibs__bit_manipulation" rx="2.5" ry="2.5" style="stroke:#181818;stroke-width:0.5;" width="321.8369" x="4874.5" y="158.5"/><ellipse cx="4889.5" cy="174.5" fill="#ADD1B2" rx="11" ry="11" style="stroke:#181818;stroke-width:1;"/><path d="M4892.4688,180.1406 Q4891.8906,180.4375 4891.25,180.5781 Q4890.6094,180.7344 4889.9063,180.7344 Q4887.4063,180.7344 4886.0781,179.0938 Q4884.7656,177.4375 4884.7656,174.3125 Q4884.7656,171.1875 4886.0781,169.5313 Q4887.4063,167.875 4889.9063,167.875 Q4890.6094,167.875 4891.25,168.0313 Q4891.9063,168.1875 4892.4688,168.4844 L4892.4688,171.2031 Q4891.8438,170.625 4891.25,170.3594 Q4890.6563,170.0781 4890.0313,170.0781 Q4888.6875,170.0781 4888,171.1563 Q4887.3125,172.2188 4887.3125,174.3125 Q4887.3125,176.4063 4888,177.4844 Q4888.6875,178.5469 4890.0313,178.5469 Q4890.6563,178.5469 4891.25,178.2813 Q4891.8438,178 4892.4688,177.4219 L4892.4688,180.1406 Z " fill="#000000"/><text fill="#000000" font-family="sans-serif" font-size="14" lengthAdjust="spacing" textLength="289.8369" x="4903.5" y="179.3467">logic_arc_int__baselibs__bit_manipulation</text><line style="stroke:#181818;stroke-width:0.5;" x1="4875.5" x2="5195.3369" y1="190.5" y2="190.5"/></g><!--class comp_arc_sta__baselibs__json--><g id="elem_comp_arc_sta__baselibs__json"><rect fill="#F1F1F1" height="40" id="comp_arc_sta__baselibs__json" rx="2.5" ry="2.5" style="stroke:#181818;stroke-width:0.5;" width="242.1367" x="5956.5" y="275.5"/><ellipse cx="5971.5" cy="291.5" fill="#ADD1B2" rx="11" ry="11" style="stroke:#181818;stroke-width:1;"/><path d="M5974.4688,297.1406 Q5973.8906,297.4375 5973.25,297.5781 Q5972.6094,297.7344 5971.9063,297.7344 Q5969.4063,297.7344 5968.0781,296.0938 Q5966.7656,294.4375 5966.7656,291.3125 Q5966.7656,288.1875 5968.0781,286.5313 Q5969.4063,284.875 5971.9063,284.875 Q5972.6094,284.875 5973.25,285.0313 Q5973.9063,285.1875 5974.4688,285.4844 L5974.4688,288.2031 Q5973.8438,287.625 5973.25,287.3594 Q5972.6563,287.0781 5972.0313,287.0781 Q5970.6875,287.0781 5970,288.1563 Q5969.3125,289.2188 5969.3125,291.3125 Q5969.3125,293.4063 5970,294.4844 Q5970.6875,295.5469 5972.0313,295.5469 Q5972.6563,295.5469 5973.25,295.2813 Q5973.8438,295 5974.4688,294.4219 L5974.4688,297.1406 Z " fill="#000000"/><text fill="#000000" font-family="sans-serif" font-size="14" lengthAdjust="spacing" textLength="210.1367" x="5985.5" y="296.3467">comp_arc_sta__baselibs__json</text><line style="stroke:#181818;stroke-width:0.5;" x1="5957.5" x2="6197.6367" y1="307.5" y2="307.5"/></g><!--class logic_arc_int__baselibs__json--><g id="elem_logic_arc_int__baselibs__json"><rect fill="#F1F1F1" height="40" id="logic_arc_int__baselibs__json" rx="2.5" ry="2.5" style="stroke:#181818;stroke-width:0.5;" width="233.168" x="5959" y="158.5"/><ellipse cx="5974" cy="174.5" fill="#ADD1B2" rx="11" ry="11" style="stroke:#181818;stroke-width:1;"/><path d="M5976.9688,180.1406 Q5976.3906,180.4375 5975.75,180.5781 Q5975.1094,180.7344 5974.4063,180.7344 Q5971.9063,180.7344 5970.5781,179.0938 Q5969.2656,177.4375 5969.2656,174.3125 Q5969.2656,171.1875 5970.5781,169.5313 Q5971.9063,167.875 5974.4063,167.875 Q5975.1094,167.875 5975.75,168.0313 Q5976.4063,168.1875 5976.9688,168.4844 L5976.9688,171.2031 Q5976.3438,170.625 5975.75,170.3594 Q5975.1563,170.0781 5974.5313,170.0781 Q5973.1875,170.0781 5972.5,171.1563 Q5971.8125,172.2188 5971.8125,174.3125 Q5971.8125,176.4063 5972.5,177.4844 Q5973.1875,178.5469 5974.5313,178.5469 Q5975.1563,178.5469 5975.75,178.2813 Q5976.3438,178 5976.9688,177.4219 L5976.9688,180.1406 Z " fill="#000000"/><text fill="#000000" font-family="sans-serif" font-size="14" lengthAdjust="spacing" textLength="201.168" x="5988" y="179.3467">logic_arc_int__baselibs__json</text><line style="stroke:#181818;stroke-width:0.5;" x1="5960" x2="6191.168" y1="190.5" y2="190.5"/></g><!--class logic_arc_int__baselibs__utils_base64--><g id="elem_logic_arc_int__baselibs__utils_base64"><rect fill="#F1F1F1" height="40" id="logic_arc_int__baselibs__utils_base64" rx="2.5" ry="2.5" style="stroke:#181818;stroke-width:0.5;" width="292.1689" x="3596.5" y="158.5"/><ellipse cx="3611.5" cy="174.5" fill="#ADD1B2" rx="11" ry="11" style="stroke:#181818;stroke-width:1;"/><path d="M3614.4688,180.1406 Q3613.8906,180.4375 3613.25,180.5781 Q3612.6094,180.7344 3611.9063,180.7344 Q3609.4063,180.7344 3608.0781,179.0938 Q3606.7656,177.4375 3606.7656,174.3125 Q3606.7656,171.1875 3608.0781,169.5313 Q3609.4063,167.875 3611.9063,167.875 Q3612.6094,167.875 3613.25,168.0313 Q3613.9063,168.1875 3614.4688,168.4844 L3614.4688,171.2031 Q3613.8438,170.625 3613.25,170.3594 Q3612.6563,170.0781 3612.0313,170.0781 Q3610.6875,170.0781 3610,171.1563 Q3609.3125,172.2188 3609.3125,174.3125 Q3609.3125,176.4063 3610,177.4844 Q3610.6875,178.5469 3612.0313,178.5469 Q3612.6563,178.5469 3613.25,178.2813 Q3613.8438,178 3614.4688,177.4219 L3614.4688,180.1406 Z " fill="#000000"/><text fill="#000000" font-family="sans-serif" font-size="14" lengthAdjust="spacing" textLength="260.1689" x="3625.5" y="179.3467">logic_arc_int__baselibs__utils_base64</text><line style="stroke:#181818;stroke-width:0.5;" x1="3597.5" x2="3887.6689" y1="190.5" y2="190.5"/></g><!--class comp_arc_sta__baselibs__concurrency--><g id="elem_comp_arc_sta__baselibs__concurrency"><rect fill="#F1F1F1" height="40" id="comp_arc_sta__baselibs__concurrency" rx="2.5" ry="2.5" style="stroke:#181818;stroke-width:0.5;" width="300.2012" x="1776.5" y="275.5"/><ellipse cx="1791.5" cy="291.5" fill="#ADD1B2" rx="11" ry="11" style="stroke:#181818;stroke-width:1;"/><path d="M1794.4688,297.1406 Q1793.8906,297.4375 1793.25,297.5781 Q1792.6094,297.7344 1791.9063,297.7344 Q1789.4063,297.7344 1788.0781,296.0938 Q1786.7656,294.4375 1786.7656,291.3125 Q1786.7656,288.1875 1788.0781,286.5313 Q1789.4063,284.875 1791.9063,284.875 Q1792.6094,284.875 1793.25,285.0313 Q1793.9063,285.1875 1794.4688,285.4844 L1794.4688,288.2031 Q1793.8438,287.625 1793.25,287.3594 Q1792.6563,287.0781 1792.0313,287.0781 Q1790.6875,287.0781 1790,288.1563 Q1789.3125,289.2188 1789.3125,291.3125 Q1789.3125,293.4063 1790,294.4844 Q1790.6875,295.5469 1792.0313,295.5469 Q1792.6563,295.5469 1793.25,295.2813 Q1793.8438,295 1794.4688,294.4219 L1794.4688,297.1406 Z " fill="#000000"/><text fill="#000000" font-family="sans-serif" font-size="14" lengthAdjust="spacing" textLength="268.2012" x="1805.5" y="296.3467">comp_arc_sta__baselibs__concurrency</text><line style="stroke:#181818;stroke-width:0.5;" x1="1777.5" x2="2075.7012" y1="307.5" y2="307.5"/></g><!--class logic_arc_int__baselibs__condition_variable--><g id="elem_logic_arc_int__baselibs__condition_variable"><rect fill="#F1F1F1" height="40" id="logic_arc_int__baselibs__condition_variable" rx="2.5" ry="2.5" style="stroke:#181818;stroke-width:0.5;" width="332.7539" x="1647" y="158.5"/><ellipse cx="1662" cy="174.5" fill="#ADD1B2" rx="11" ry="11" style="stroke:#181818;stroke-width:1;"/><path d="M1664.9688,180.1406 Q1664.3906,180.4375 1663.75,180.5781 Q1663.1094,180.7344 1662.4063,180.7344 Q1659.9063,180.7344 1658.5781,179.0938 Q1657.2656,177.4375 1657.2656,174.3125 Q1657.2656,171.1875 1658.5781,169.5313 Q1659.9063,167.875 1662.4063,167.875 Q1663.1094,167.875 1663.75,168.0313 Q1664.4063,168.1875 1664.9688,168.4844 L1664.9688,171.2031 Q1664.3438,170.625 1663.75,170.3594 Q1663.1563,170.0781 1662.5313,170.0781 Q1661.1875,170.0781 1660.5,171.1563 Q1659.8125,172.2188 1659.8125,174.3125 Q1659.8125,176.4063 1660.5,177.4844 Q1661.1875,178.5469 1662.5313,178.5469 Q1663.1563,178.5469 1663.75,178.2813 Q1664.3438,178 1664.9688,177.4219 L1664.9688,180.1406 Z " fill="#000000"/><text fill="#000000" font-family="sans-serif" font-size="14" lengthAdjust="spacing" textLength="300.7539" x="1676" y="179.3467">logic_arc_int__baselibs__condition_variable</text><line style="stroke:#181818;stroke-width:0.5;" x1="1648" x2="1978.7539" y1="190.5" y2="190.5"/></g><!--class comp_arc_sta__baselibs__containers--><g id="elem_comp_arc_sta__baselibs__containers"><rect fill="#F1F1F1" height="40" id="comp_arc_sta__baselibs__containers" rx="2.5" ry="2.5" style="stroke:#181818;stroke-width:0.5;" width="287.1445" x="4380" y="275.5"/><ellipse cx="4395" cy="291.5" fill="#ADD1B2" rx="11" ry="11" style="stroke:#181818;stroke-width:1;"/><path d="M4397.9688,297.1406 Q4397.3906,297.4375 4396.75,297.5781 Q4396.1094,297.7344 4395.4063,297.7344 Q4392.9063,297.7344 4391.5781,296.0938 Q4390.2656,294.4375 4390.2656,291.3125 Q4390.2656,288.1875 4391.5781,286.5313 Q4392.9063,284.875 4395.4063,284.875 Q4396.1094,284.875 4396.75,285.0313 Q4397.4063,285.1875 4397.9688,285.4844 L4397.9688,288.2031 Q4397.3438,287.625 4396.75,287.3594 Q4396.1563,287.0781 4395.5313,287.0781 Q4394.1875,287.0781 4393.5,288.1563 Q4392.8125,289.2188 4392.8125,291.3125 Q4392.8125,293.4063 4393.5,294.4844 Q4394.1875,295.5469 4395.5313,295.5469 Q4396.1563,295.5469 4396.75,295.2813 Q4397.3438,295 4397.9688,294.4219 L4397.9688,297.1406 Z " fill="#000000"/><text fill="#000000" font-family="sans-serif" font-size="14" lengthAdjust="spacing" textLength="255.1445" x="4409" y="296.3467">comp_arc_sta__baselibs__containers</text><line style="stroke:#181818;stroke-width:0.5;" x1="4381" x2="4666.1445" y1="307.5" y2="307.5"/></g><!--class logic_arc_int__baselibs__dynamic_array--><g id="elem_logic_arc_int__baselibs__dynamic_array"><rect fill="#F1F1F1" height="40" id="logic_arc_int__baselibs__dynamic_array" rx="2.5" ry="2.5" style="stroke:#181818;stroke-width:0.5;" width="308.3496" x="4202.5" y="158.5"/><ellipse cx="4217.5" cy="174.5" fill="#ADD1B2" rx="11" ry="11" style="stroke:#181818;stroke-width:1;"/><path d="M4220.4688,180.1406 Q4219.8906,180.4375 4219.25,180.5781 Q4218.6094,180.7344 4217.9063,180.7344 Q4215.4063,180.7344 4214.0781,179.0938 Q4212.7656,177.4375 4212.7656,174.3125 Q4212.7656,171.1875 4214.0781,169.5313 Q4215.4063,167.875 4217.9063,167.875 Q4218.6094,167.875 4219.25,168.0313 Q4219.9063,168.1875 4220.4688,168.4844 L4220.4688,171.2031 Q4219.8438,170.625 4219.25,170.3594 Q4218.6563,170.0781 4218.0313,170.0781 Q4216.6875,170.0781 4216,171.1563 Q4215.3125,172.2188 4215.3125,174.3125 Q4215.3125,176.4063 4216,177.4844 Q4216.6875,178.5469 4218.0313,178.5469 Q4218.6563,178.5469 4219.25,178.2813 Q4219.8438,178 4220.4688,177.4219 L4220.4688,180.1406 Z " fill="#000000"/><text fill="#000000" font-family="sans-serif" font-size="14" lengthAdjust="spacing" textLength="276.3496" x="4231.5" y="179.3467">logic_arc_int__baselibs__dynamic_array</text><line style="stroke:#181818;stroke-width:0.5;" x1="4203.5" x2="4509.8496" y1="190.5" y2="190.5"/></g><!--class comp_arc_sta__baselibs__utils--><g id="elem_comp_arc_sta__baselibs__utils"><rect fill="#F1F1F1" height="40" id="comp_arc_sta__baselibs__utils" rx="2.5" ry="2.5" style="stroke:#181818;stroke-width:0.5;" width="242.9502" x="3451" y="275.5"/><ellipse cx="3466" cy="291.5" fill="#ADD1B2" rx="11" ry="11" style="stroke:#181818;stroke-width:1;"/><path d="M3468.9688,297.1406 Q3468.3906,297.4375 3467.75,297.5781 Q3467.1094,297.7344 3466.4063,297.7344 Q3463.9063,297.7344 3462.5781,296.0938 Q3461.2656,294.4375 3461.2656,291.3125 Q3461.2656,288.1875 3462.5781,286.5313 Q3463.9063,284.875 3466.4063,284.875 Q3467.1094,284.875 3467.75,285.0313 Q3468.4063,285.1875 3468.9688,285.4844 L3468.9688,288.2031 Q3468.3438,287.625 3467.75,287.3594 Q3467.1563,287.0781 3466.5313,287.0781 Q3465.1875,287.0781 3464.5,288.1563 Q3463.8125,289.2188 3463.8125,291.3125 Q3463.8125,293.4063 3464.5,294.4844 Q3465.1875,295.5469 3466.5313,295.5469 Q3467.1563,295.5469 3467.75,295.2813 Q3468.3438,295 3468.9688,294.4219 L3468.9688,297.1406 Z " fill="#000000"/><text fill="#000000" font-family="sans-serif" font-size="14" lengthAdjust="spacing" textLength="210.9502" x="3480" y="296.3467">comp_arc_sta__baselibs__utils</text><line style="stroke:#181818;stroke-width:0.5;" x1="3452" x2="3692.9502" y1="307.5" y2="307.5"/></g><!--class logic_arc_int__baselibs__utils_scoped_op--><g id="elem_logic_arc_int__baselibs__utils_scoped_op"><rect fill="#F1F1F1" height="40" id="logic_arc_int__baselibs__utils_scoped_op" rx="2.5" ry="2.5" style="stroke:#181818;stroke-width:0.5;" width="315.377" x="3246" y="158.5"/><ellipse cx="3261" cy="174.5" fill="#ADD1B2" rx="11" ry="11" style="stroke:#181818;stroke-width:1;"/><path d="M3263.9688,180.1406 Q3263.3906,180.4375 3262.75,180.5781 Q3262.1094,180.7344 3261.4063,180.7344 Q3258.9063,180.7344 3257.5781,179.0938 Q3256.2656,177.4375 3256.2656,174.3125 Q3256.2656,171.1875 3257.5781,169.5313 Q3258.9063,167.875 3261.4063,167.875 Q3262.1094,167.875 3262.75,168.0313 Q3263.4063,168.1875 3263.9688,168.4844 L3263.9688,171.2031 Q3263.3438,170.625 3262.75,170.3594 Q3262.1563,170.0781 3261.5313,170.0781 Q3260.1875,170.0781 3259.5,171.1563 Q3258.8125,172.2188 3258.8125,174.3125 Q3258.8125,176.4063 3259.5,177.4844 Q3260.1875,178.5469 3261.5313,178.5469 Q3262.1563,178.5469 3262.75,178.2813 Q3263.3438,178 3263.9688,177.4219 L3263.9688,180.1406 Z " fill="#000000"/><text fill="#000000" font-family="sans-serif" font-size="14" lengthAdjust="spacing" textLength="283.377" x="3275" y="179.3467">logic_arc_int__baselibs__utils_scoped_op</text><line style="stroke:#181818;stroke-width:0.5;" x1="3247" x2="3560.377" y1="190.5" y2="190.5"/></g><!--class comp_arc_sta__baselibs__memory_shared--><g id="elem_comp_arc_sta__baselibs__memory_shared"><rect fill="#F1F1F1" height="40" id="comp_arc_sta__baselibs__memory_shared" rx="2.5" ry="2.5" style="stroke:#181818;stroke-width:0.5;" width="327.0117" x="5595" y="275.5"/><ellipse cx="5610" cy="291.5" fill="#ADD1B2" rx="11" ry="11" style="stroke:#181818;stroke-width:1;"/><path d="M5612.9688,297.1406 Q5612.3906,297.4375 5611.75,297.5781 Q5611.1094,297.7344 5610.4063,297.7344 Q5607.9063,297.7344 5606.5781,296.0938 Q5605.2656,294.4375 5605.2656,291.3125 Q5605.2656,288.1875 5606.5781,286.5313 Q5607.9063,284.875 5610.4063,284.875 Q5611.1094,284.875 5611.75,285.0313 Q5612.4063,285.1875 5612.9688,285.4844 L5612.9688,288.2031 Q5612.3438,287.625 5611.75,287.3594 Q5611.1563,287.0781 5610.5313,287.0781 Q5609.1875,287.0781 5608.5,288.1563 Q5607.8125,289.2188 5607.8125,291.3125 Q5607.8125,293.4063 5608.5,294.4844 Q5609.1875,295.5469 5610.5313,295.5469 Q5611.1563,295.5469 5611.75,295.2813 Q5612.3438,295 5612.9688,294.4219 L5612.9688,297.1406 Z " fill="#000000"/><text fill="#000000" font-family="sans-serif" font-size="14" lengthAdjust="spacing" textLength="295.0117" x="5624" y="296.3467">comp_arc_sta__baselibs__memory_shared</text><line style="stroke:#181818;stroke-width:0.5;" x1="5596" x2="5921.0117" y1="307.5" y2="307.5"/></g><!--class logic_arc_int__baselibs__memory_shared--><g id="elem_logic_arc_int__baselibs__memory_shared"><rect fill="#F1F1F1" height="40" id="logic_arc_int__baselibs__memory_shared" rx="2.5" ry="2.5" style="stroke:#181818;stroke-width:0.5;" width="318.043" x="5602.5" y="158.5"/><ellipse cx="5617.5" cy="174.5" fill="#ADD1B2" rx="11" ry="11" style="stroke:#181818;stroke-width:1;"/><path d="M5620.4688,180.1406 Q5619.8906,180.4375 5619.25,180.5781 Q5618.6094,180.7344 5617.9063,180.7344 Q5615.4063,180.7344 5614.0781,179.0938 Q5612.7656,177.4375 5612.7656,174.3125 Q5612.7656,171.1875 5614.0781,169.5313 Q5615.4063,167.875 5617.9063,167.875 Q5618.6094,167.875 5619.25,168.0313 Q5619.9063,168.1875 5620.4688,168.4844 L5620.4688,171.2031 Q5619.8438,170.625 5619.25,170.3594 Q5618.6563,170.0781 5618.0313,170.0781 Q5616.6875,170.0781 5616,171.1563 Q5615.3125,172.2188 5615.3125,174.3125 Q5615.3125,176.4063 5616,177.4844 Q5616.6875,178.5469 5618.0313,178.5469 Q5618.6563,178.5469 5619.25,178.2813 Q5619.8438,178 5620.4688,177.4219 L5620.4688,180.1406 Z " fill="#000000"/><text fill="#000000" font-family="sans-serif" font-size="14" lengthAdjust="spacing" textLength="286.043" x="5631.5" y="179.3467">logic_arc_int__baselibs__memory_shared</text><line style="stroke:#181818;stroke-width:0.5;" x1="5603.5" x2="5919.543" y1="190.5" y2="190.5"/></g><!--class comp_arc_sta__baselibs__result--><g id="elem_comp_arc_sta__baselibs__result"><rect fill="#F1F1F1" height="40" id="comp_arc_sta__baselibs__result" rx="2.5" ry="2.5" style="stroke:#181818;stroke-width:0.5;" width="253.4297" x="3919" y="275.5"/><ellipse cx="3934" cy="291.5" fill="#ADD1B2" rx="11" ry="11" style="stroke:#181818;stroke-width:1;"/><path d="M3936.9688,297.1406 Q3936.3906,297.4375 3935.75,297.5781 Q3935.1094,297.7344 3934.4063,297.7344 Q3931.9063,297.7344 3930.5781,296.0938 Q3929.2656,294.4375 3929.2656,291.3125 Q3929.2656,288.1875 3930.5781,286.5313 Q3931.9063,284.875 3934.4063,284.875 Q3935.1094,284.875 3935.75,285.0313 Q3936.4063,285.1875 3936.9688,285.4844 L3936.9688,288.2031 Q3936.3438,287.625 3935.75,287.3594 Q3935.1563,287.0781 3934.5313,287.0781 Q3933.1875,287.0781 3932.5,288.1563 Q3931.8125,289.2188 3931.8125,291.3125 Q3931.8125,293.4063 3932.5,294.4844 Q3933.1875,295.5469 3934.5313,295.5469 Q3935.1563,295.5469 3935.75,295.2813 Q3936.3438,295 3936.9688,294.4219 L3936.9688,297.1406 Z " fill="#000000"/><text fill="#000000" font-family="sans-serif" font-size="14" lengthAdjust="spacing" textLength="221.4297" x="3948" y="296.3467">comp_arc_sta__baselibs__result</text><line style="stroke:#181818;stroke-width:0.5;" x1="3920" x2="4171.4297" y1="307.5" y2="307.5"/></g><!--class logic_arc_int__baselibs__synchronized_queue--><g id="elem_logic_arc_int__baselibs__synchronized_queue"><rect fill="#F1F1F1" height="40" id="logic_arc_int__baselibs__synchronized_queue" rx="2.5" ry="2.5" style="stroke:#181818;stroke-width:0.5;" width="348.3604" x="2580.5" y="158.5"/><ellipse cx="2595.5" cy="174.5" fill="#ADD1B2" rx="11" ry="11" style="stroke:#181818;stroke-width:1;"/><path d="M2598.4688,180.1406 Q2597.8906,180.4375 2597.25,180.5781 Q2596.6094,180.7344 2595.9063,180.7344 Q2593.4063,180.7344 2592.0781,179.0938 Q2590.7656,177.4375 2590.7656,174.3125 Q2590.7656,171.1875 2592.0781,169.5313 Q2593.4063,167.875 2595.9063,167.875 Q2596.6094,167.875 2597.25,168.0313 Q2597.9063,168.1875 2598.4688,168.4844 L2598.4688,171.2031 Q2597.8438,170.625 2597.25,170.3594 Q2596.6563,170.0781 2596.0313,170.0781 Q2594.6875,170.0781 2594,171.1563 Q2593.3125,172.2188 2593.3125,174.3125 Q2593.3125,176.4063 2594,177.4844 Q2594.6875,178.5469 2596.0313,178.5469 Q2596.6563,178.5469 2597.25,178.2813 Q2597.8438,178 2598.4688,177.4219 L2598.4688,180.1406 Z " fill="#000000"/><text fill="#000000" font-family="sans-serif" font-size="14" lengthAdjust="spacing" textLength="316.3604" x="2609.5" y="179.3467">logic_arc_int__baselibs__synchronized_queue</text><line style="stroke:#181818;stroke-width:0.5;" x1="2581.5" x2="2927.8604" y1="190.5" y2="190.5"/></g><!--class logic_arc_int__baselibs__intrusive_list--><g id="elem_logic_arc_int__baselibs__intrusive_list"><rect fill="#F1F1F1" height="40" id="logic_arc_int__baselibs__intrusive_list" rx="2.5" ry="2.5" style="stroke:#181818;stroke-width:0.5;" width="293.0713" x="4546" y="158.5"/><ellipse cx="4561" cy="174.5" fill="#ADD1B2" rx="11" ry="11" style="stroke:#181818;stroke-width:1;"/><path d="M4563.9688,180.1406 Q4563.3906,180.4375 4562.75,180.5781 Q4562.1094,180.7344 4561.4063,180.7344 Q4558.9063,180.7344 4557.5781,179.0938 Q4556.2656,177.4375 4556.2656,174.3125 Q4556.2656,171.1875 4557.5781,169.5313 Q4558.9063,167.875 4561.4063,167.875 Q4562.1094,167.875 4562.75,168.0313 Q4563.4063,168.1875 4563.9688,168.4844 L4563.9688,171.2031 Q4563.3438,170.625 4562.75,170.3594 Q4562.1563,170.0781 4561.5313,170.0781 Q4560.1875,170.0781 4559.5,171.1563 Q4558.8125,172.2188 4558.8125,174.3125 Q4558.8125,176.4063 4559.5,177.4844 Q4560.1875,178.5469 4561.5313,178.5469 Q4562.1563,178.5469 4562.75,178.2813 Q4563.3438,178 4563.9688,177.4219 L4563.9688,180.1406 Z " fill="#000000"/><text fill="#000000" font-family="sans-serif" font-size="14" lengthAdjust="spacing" textLength="261.0713" x="4575" y="179.3467">logic_arc_int__baselibs__intrusive_list</text><line style="stroke:#181818;stroke-width:0.5;" x1="4547" x2="4838.0713" y1="190.5" y2="190.5"/></g><!--class logic_arc_int__baselibs__executor--><g id="elem_logic_arc_int__baselibs__executor"><rect fill="#F1F1F1" height="40" id="logic_arc_int__baselibs__executor" rx="2.5" ry="2.5" style="stroke:#181818;stroke-width:0.5;" width="266.4385" x="691.5" y="158.5"/><ellipse cx="706.5" cy="174.5" fill="#ADD1B2" rx="11" ry="11" style="stroke:#181818;stroke-width:1;"/><path d="M709.4688,180.1406 Q708.8906,180.4375 708.25,180.5781 Q707.6094,180.7344 706.9063,180.7344 Q704.4063,180.7344 703.0781,179.0938 Q701.7656,177.4375 701.7656,174.3125 Q701.7656,171.1875 703.0781,169.5313 Q704.4063,167.875 706.9063,167.875 Q707.6094,167.875 708.25,168.0313 Q708.9063,168.1875 709.4688,168.4844 L709.4688,171.2031 Q708.8438,170.625 708.25,170.3594 Q707.6563,170.0781 707.0313,170.0781 Q705.6875,170.0781 705,171.1563 Q704.3125,172.2188 704.3125,174.3125 Q704.3125,176.4063 705,177.4844 Q705.6875,178.5469 707.0313,178.5469 Q707.6563,178.5469 708.25,178.2813 Q708.8438,178 709.4688,177.4219 L709.4688,180.1406 Z " fill="#000000"/><text fill="#000000" font-family="sans-serif" font-size="14" lengthAdjust="spacing" textLength="234.4385" x="720.5" y="179.3467">logic_arc_int__baselibs__executor</text><line style="stroke:#181818;stroke-width:0.5;" x1="692.5" x2="956.9385" y1="190.5" y2="190.5"/></g><!--class logic_arc_int__baselibs__promise--><g id="elem_logic_arc_int__baselibs__promise"><rect fill="#F1F1F1" height="40" id="logic_arc_int__baselibs__promise" rx="2.5" ry="2.5" style="stroke:#181818;stroke-width:0.5;" width="261.1885" x="2015" y="158.5"/><ellipse cx="2030" cy="174.5" fill="#ADD1B2" rx="11" ry="11" style="stroke:#181818;stroke-width:1;"/><path d="M2032.9688,180.1406 Q2032.3906,180.4375 2031.75,180.5781 Q2031.1094,180.7344 2030.4063,180.7344 Q2027.9063,180.7344 2026.5781,179.0938 Q2025.2656,177.4375 2025.2656,174.3125 Q2025.2656,171.1875 2026.5781,169.5313 Q2027.9063,167.875 2030.4063,167.875 Q2031.1094,167.875 2031.75,168.0313 Q2032.4063,168.1875 2032.9688,168.4844 L2032.9688,171.2031 Q2032.3438,170.625 2031.75,170.3594 Q2031.1563,170.0781 2030.5313,170.0781 Q2029.1875,170.0781 2028.5,171.1563 Q2027.8125,172.2188 2027.8125,174.3125 Q2027.8125,176.4063 2028.5,177.4844 Q2029.1875,178.5469 2030.5313,178.5469 Q2031.1563,178.5469 2031.75,178.2813 Q2032.3438,178 2032.9688,177.4219 L2032.9688,180.1406 Z " fill="#000000"/><text fill="#000000" font-family="sans-serif" font-size="14" lengthAdjust="spacing" textLength="229.1885" x="2044" y="179.3467">logic_arc_int__baselibs__promise</text><line style="stroke:#181818;stroke-width:0.5;" x1="2016" x2="2275.1885" y1="190.5" y2="190.5"/></g><!--class logic_arc_int__baselibs__shared_future--><g id="elem_logic_arc_int__baselibs__shared_future"><rect fill="#F1F1F1" height="40" id="logic_arc_int__baselibs__shared_future" rx="2.5" ry="2.5" style="stroke:#181818;stroke-width:0.5;" width="302.0811" x="1309.5" y="158.5"/><ellipse cx="1324.5" cy="174.5" fill="#ADD1B2" rx="11" ry="11" style="stroke:#181818;stroke-width:1;"/><path d="M1327.4688,180.1406 Q1326.8906,180.4375 1326.25,180.5781 Q1325.6094,180.7344 1324.9063,180.7344 Q1322.4063,180.7344 1321.0781,179.0938 Q1319.7656,177.4375 1319.7656,174.3125 Q1319.7656,171.1875 1321.0781,169.5313 Q1322.4063,167.875 1324.9063,167.875 Q1325.6094,167.875 1326.25,168.0313 Q1326.9063,168.1875 1327.4688,168.4844 L1327.4688,171.2031 Q1326.8438,170.625 1326.25,170.3594 Q1325.6563,170.0781 1325.0313,170.0781 Q1323.6875,170.0781 1323,171.1563 Q1322.3125,172.2188 1322.3125,174.3125 Q1322.3125,176.4063 1323,177.4844 Q1323.6875,178.5469 1325.0313,178.5469 Q1325.6563,178.5469 1326.25,178.2813 Q1326.8438,178 1327.4688,177.4219 L1327.4688,180.1406 Z " fill="#000000"/><text fill="#000000" font-family="sans-serif" font-size="14" lengthAdjust="spacing" textLength="270.0811" x="1338.5" y="179.3467">logic_arc_int__baselibs__shared_future</text><line style="stroke:#181818;stroke-width:0.5;" x1="1310.5" x2="1610.5811" y1="190.5" y2="190.5"/></g><!--class logic_arc_int__baselibs__bit_mask_operator--><g id="elem_logic_arc_int__baselibs__bit_mask_operator"><rect fill="#F1F1F1" height="40" id="logic_arc_int__baselibs__bit_mask_operator" rx="2.5" ry="2.5" style="stroke:#181818;stroke-width:0.5;" width="334.6406" x="5232" y="158.5"/><ellipse cx="5247" cy="174.5" fill="#ADD1B2" rx="11" ry="11" style="stroke:#181818;stroke-width:1;"/><path d="M5249.9688,180.1406 Q5249.3906,180.4375 5248.75,180.5781 Q5248.1094,180.7344 5247.4063,180.7344 Q5244.9063,180.7344 5243.5781,179.0938 Q5242.2656,177.4375 5242.2656,174.3125 Q5242.2656,171.1875 5243.5781,169.5313 Q5244.9063,167.875 5247.4063,167.875 Q5248.1094,167.875 5248.75,168.0313 Q5249.4063,168.1875 5249.9688,168.4844 L5249.9688,171.2031 Q5249.3438,170.625 5248.75,170.3594 Q5248.1563,170.0781 5247.5313,170.0781 Q5246.1875,170.0781 5245.5,171.1563 Q5244.8125,172.2188 5244.8125,174.3125 Q5244.8125,176.4063 5245.5,177.4844 Q5246.1875,178.5469 5247.5313,178.5469 Q5248.1563,178.5469 5248.75,178.2813 Q5249.3438,178 5249.9688,177.4219 L5249.9688,180.1406 Z " fill="#000000"/><text fill="#000000" font-family="sans-serif" font-size="14" lengthAdjust="spacing" textLength="302.6406" x="5261" y="179.3467">logic_arc_int__baselibs__bit_mask_operator</text><line style="stroke:#181818;stroke-width:0.5;" x1="5233" x2="5565.6406" y1="190.5" y2="190.5"/></g><!--class logic_arc_int__baselibs__task--><g id="elem_logic_arc_int__baselibs__task"><rect fill="#F1F1F1" height="40" id="logic_arc_int__baselibs__task" rx="2.5" ry="2.5" style="stroke:#181818;stroke-width:0.5;" width="234.0156" x="2311.5" y="158.5"/><ellipse cx="2326.5" cy="174.5" fill="#ADD1B2" rx="11" ry="11" style="stroke:#181818;stroke-width:1;"/><path d="M2329.4688,180.1406 Q2328.8906,180.4375 2328.25,180.5781 Q2327.6094,180.7344 2326.9063,180.7344 Q2324.4063,180.7344 2323.0781,179.0938 Q2321.7656,177.4375 2321.7656,174.3125 Q2321.7656,171.1875 2323.0781,169.5313 Q2324.4063,167.875 2326.9063,167.875 Q2327.6094,167.875 2328.25,168.0313 Q2328.9063,168.1875 2329.4688,168.4844 L2329.4688,171.2031 Q2328.8438,170.625 2328.25,170.3594 Q2327.6563,170.0781 2327.0313,170.0781 Q2325.6875,170.0781 2325,171.1563 Q2324.3125,172.2188 2324.3125,174.3125 Q2324.3125,176.4063 2325,177.4844 Q2325.6875,178.5469 2327.0313,178.5469 Q2327.6563,178.5469 2328.25,178.2813 Q2328.8438,178 2329.4688,177.4219 L2329.4688,180.1406 Z " fill="#000000"/><text fill="#000000" font-family="sans-serif" font-size="14" lengthAdjust="spacing" textLength="202.0156" x="2340.5" y="179.3467">logic_arc_int__baselibs__task</text><line style="stroke:#181818;stroke-width:0.5;" x1="2312.5" x2="2544.5156" y1="190.5" y2="190.5"/></g><!--class logic_arc_int__baselibs__future--><g id="elem_logic_arc_int__baselibs__future"><rect fill="#F1F1F1" height="40" id="logic_arc_int__baselibs__future" rx="2.5" ry="2.5" style="stroke:#181818;stroke-width:0.5;" width="247.0791" x="2964" y="158.5"/><ellipse cx="2979" cy="174.5" fill="#ADD1B2" rx="11" ry="11" style="stroke:#181818;stroke-width:1;"/><path d="M2981.9688,180.1406 Q2981.3906,180.4375 2980.75,180.5781 Q2980.1094,180.7344 2979.4063,180.7344 Q2976.9063,180.7344 2975.5781,179.0938 Q2974.2656,177.4375 2974.2656,174.3125 Q2974.2656,171.1875 2975.5781,169.5313 Q2976.9063,167.875 2979.4063,167.875 Q2980.1094,167.875 2980.75,168.0313 Q2981.4063,168.1875 2981.9688,168.4844 L2981.9688,171.2031 Q2981.3438,170.625 2980.75,170.3594 Q2980.1563,170.0781 2979.5313,170.0781 Q2978.1875,170.0781 2977.5,171.1563 Q2976.8125,172.2188 2976.8125,174.3125 Q2976.8125,176.4063 2977.5,177.4844 Q2978.1875,178.5469 2979.5313,178.5469 Q2980.1563,178.5469 2980.75,178.2813 Q2981.3438,178 2981.9688,177.4219 L2981.9688,180.1406 Z " fill="#000000"/><text fill="#000000" font-family="sans-serif" font-size="14" lengthAdjust="spacing" textLength="215.0791" x="2993" y="179.3467">logic_arc_int__baselibs__future</text><line style="stroke:#181818;stroke-width:0.5;" x1="2965" x2="3210.0791" y1="190.5" y2="190.5"/></g><!--class comp_arc_sta__baselibs__message_passing--><g id="elem_comp_arc_sta__baselibs__message_passing"><rect fill="#F1F1F1" height="40" id="comp_arc_sta__baselibs__message_passing" rx="2.5" ry="2.5" style="stroke:#181818;stroke-width:0.5;" width="337.1357" x="327" y="275.5"/><ellipse cx="342" cy="291.5" fill="#ADD1B2" rx="11" ry="11" style="stroke:#181818;stroke-width:1;"/><path d="M344.9688,297.1406 Q344.3906,297.4375 343.75,297.5781 Q343.1094,297.7344 342.4063,297.7344 Q339.9063,297.7344 338.5781,296.0938 Q337.2656,294.4375 337.2656,291.3125 Q337.2656,288.1875 338.5781,286.5313 Q339.9063,284.875 342.4063,284.875 Q343.1094,284.875 343.75,285.0313 Q344.4063,285.1875 344.9688,285.4844 L344.9688,288.2031 Q344.3438,287.625 343.75,287.3594 Q343.1563,287.0781 342.5313,287.0781 Q341.1875,287.0781 340.5,288.1563 Q339.8125,289.2188 339.8125,291.3125 Q339.8125,293.4063 340.5,294.4844 Q341.1875,295.5469 342.5313,295.5469 Q343.1563,295.5469 343.75,295.2813 Q344.3438,295 344.9688,294.4219 L344.9688,297.1406 Z " fill="#000000"/><text fill="#000000" font-family="sans-serif" font-size="14" lengthAdjust="spacing" textLength="305.1357" x="356" y="296.3467">comp_arc_sta__baselibs__message_passing</text><line style="stroke:#181818;stroke-width:0.5;" x1="328" x2="663.1357" y1="307.5" y2="307.5"/></g><!--class logic_arc_int__baselibs__message_passing--><g id="elem_logic_arc_int__baselibs__message_passing"><rect fill="#F1F1F1" height="40" id="logic_arc_int__baselibs__message_passing" rx="2.5" ry="2.5" style="stroke:#181818;stroke-width:0.5;" width="328.167" x="328.5" y="158.5"/><ellipse cx="343.5" cy="174.5" fill="#ADD1B2" rx="11" ry="11" style="stroke:#181818;stroke-width:1;"/><path d="M346.4688,180.1406 Q345.8906,180.4375 345.25,180.5781 Q344.6094,180.7344 343.9063,180.7344 Q341.4063,180.7344 340.0781,179.0938 Q338.7656,177.4375 338.7656,174.3125 Q338.7656,171.1875 340.0781,169.5313 Q341.4063,167.875 343.9063,167.875 Q344.6094,167.875 345.25,168.0313 Q345.9063,168.1875 346.4688,168.4844 L346.4688,171.2031 Q345.8438,170.625 345.25,170.3594 Q344.6563,170.0781 344.0313,170.0781 Q342.6875,170.0781 342,171.1563 Q341.3125,172.2188 341.3125,174.3125 Q341.3125,176.4063 342,177.4844 Q342.6875,178.5469 344.0313,178.5469 Q344.6563,178.5469 345.25,178.2813 Q345.8438,178 346.4688,177.4219 L346.4688,180.1406 Z " fill="#000000"/><text fill="#000000" font-family="sans-serif" font-size="14" lengthAdjust="spacing" textLength="296.167" x="357.5" y="179.3467">logic_arc_int__baselibs__message_passing</text><line style="stroke:#181818;stroke-width:0.5;" x1="329.5" x2="655.667" y1="190.5" y2="190.5"/></g><!--class logic_arc_int__baselibs__filesystem--><g id="elem_logic_arc_int__baselibs__filesystem"><rect fill="#F1F1F1" height="40" id="logic_arc_int__baselibs__filesystem" rx="2.5" ry="2.5" style="stroke:#181818;stroke-width:0.5;" width="276.4805" x="15.5" y="158.5"/><ellipse cx="30.5" cy="174.5" fill="#ADD1B2" rx="11" ry="11" style="stroke:#181818;stroke-width:1;"/><path d="M33.4688,180.1406 Q32.8906,180.4375 32.25,180.5781 Q31.6094,180.7344 30.9063,180.7344 Q28.4063,180.7344 27.0781,179.0938 Q25.7656,177.4375 25.7656,174.3125 Q25.7656,171.1875 27.0781,169.5313 Q28.4063,167.875 30.9063,167.875 Q31.6094,167.875 32.25,168.0313 Q32.9063,168.1875 33.4688,168.4844 L33.4688,171.2031 Q32.8438,170.625 32.25,170.3594 Q31.6563,170.0781 31.0313,170.0781 Q29.6875,170.0781 29,171.1563 Q28.3125,172.2188 28.3125,174.3125 Q28.3125,176.4063 29,177.4844 Q29.6875,178.5469 31.0313,178.5469 Q31.6563,178.5469 32.25,178.2813 Q32.8438,178 33.4688,177.4219 L33.4688,180.1406 Z " fill="#000000"/><text fill="#000000" font-family="sans-serif" font-size="14" lengthAdjust="spacing" textLength="244.4805" x="44.5" y="179.3467">logic_arc_int__baselibs__filesystem</text><line style="stroke:#181818;stroke-width:0.5;" x1="16.5" x2="290.9805" y1="190.5" y2="190.5"/></g><!--class comp_arc_sta__baselibs__filesystem--><g id="elem_comp_arc_sta__baselibs__filesystem"><rect fill="#F1F1F1" height="40" id="comp_arc_sta__baselibs__filesystem" rx="2.5" ry="2.5" style="stroke:#181818;stroke-width:0.5;" width="285.4492" x="7" y="275.5"/><ellipse cx="22" cy="291.5" fill="#ADD1B2" rx="11" ry="11" style="stroke:#181818;stroke-width:1;"/><path d="M24.9688,297.1406 Q24.3906,297.4375 23.75,297.5781 Q23.1094,297.7344 22.4063,297.7344 Q19.9063,297.7344 18.5781,296.0938 Q17.2656,294.4375 17.2656,291.3125 Q17.2656,288.1875 18.5781,286.5313 Q19.9063,284.875 22.4063,284.875 Q23.1094,284.875 23.75,285.0313 Q24.4063,285.1875 24.9688,285.4844 L24.9688,288.2031 Q24.3438,287.625 23.75,287.3594 Q23.1563,287.0781 22.5313,287.0781 Q21.1875,287.0781 20.5,288.1563 Q19.8125,289.2188 19.8125,291.3125 Q19.8125,293.4063 20.5,294.4844 Q21.1875,295.5469 22.5313,295.5469 Q23.1563,295.5469 23.75,295.2813 Q24.3438,295 24.9688,294.4219 L24.9688,297.1406 Z " fill="#000000"/><text fill="#000000" font-family="sans-serif" font-size="14" lengthAdjust="spacing" textLength="253.4492" x="36" y="296.3467">comp_arc_sta__baselibs__filesystem</text><line style="stroke:#181818;stroke-width:0.5;" x1="8" x2="291.4492" y1="307.5" y2="307.5"/></g><!--class logic_arc_int__baselibs__task_result--><g id="elem_logic_arc_int__baselibs__task_result"><rect fill="#F1F1F1" height="40" id="logic_arc_int__baselibs__task_result" rx="2.5" ry="2.5" style="stroke:#181818;stroke-width:0.5;" width="280.9307" x="993" y="158.5"/><ellipse cx="1008" cy="174.5" fill="#ADD1B2" rx="11" ry="11" style="stroke:#181818;stroke-width:1;"/><path d="M1010.9688,180.1406 Q1010.3906,180.4375 1009.75,180.5781 Q1009.1094,180.7344 1008.4063,180.7344 Q1005.9063,180.7344 1004.5781,179.0938 Q1003.2656,177.4375 1003.2656,174.3125 Q1003.2656,171.1875 1004.5781,169.5313 Q1005.9063,167.875 1008.4063,167.875 Q1009.1094,167.875 1009.75,168.0313 Q1010.4063,168.1875 1010.9688,168.4844 L1010.9688,171.2031 Q1010.3438,170.625 1009.75,170.3594 Q1009.1563,170.0781 1008.5313,170.0781 Q1007.1875,170.0781 1006.5,171.1563 Q1005.8125,172.2188 1005.8125,174.3125 Q1005.8125,176.4063 1006.5,177.4844 Q1007.1875,178.5469 1008.5313,178.5469 Q1009.1563,178.5469 1009.75,178.2813 Q1010.3438,178 1010.9688,177.4219 L1010.9688,180.1406 Z " fill="#000000"/><text fill="#000000" font-family="sans-serif" font-size="14" lengthAdjust="spacing" textLength="248.9307" x="1022" y="179.3467">logic_arc_int__baselibs__task_result</text><line style="stroke:#181818;stroke-width:0.5;" x1="994" x2="1272.9307" y1="190.5" y2="190.5"/></g><!--link Feature_User to logic_arc_int__baselibs__result--><g id="link_Feature_User_logic_arc_int__baselibs__result"><path codeLine="14" d="M3132.74,50.78 C3273.77,70.36 3702.827,129.9247 3917.357,159.7147 " fill="transparent" id="Feature_User-to-logic_arc_int__baselibs__result" style="stroke:#181818;stroke-width:1;"/><polygon fill="#181818" points="3923.3,160.54,3914.9357,155.3401,3918.3475,159.8523,3913.8354,163.2641,3923.3,160.54" style="stroke:#181818;stroke-width:1;"/><text fill="#000000" font-family="sans-serif" font-size="13" lengthAdjust="spacing" textLength="23.0103" x="3681.5" y="124.5669">use</text></g><!--reverse link logic_arc_int__baselibs__bit_manipulation to comp_arc_sta__baselibs__bit_manipulation--><g id="link_logic_arc_int__baselibs__bit_manipulation_comp_arc_sta__baselibs__bit_manipulation"><path codeLine="15" d="M5070.8643,201.9675 C5104.3743,223.2575 5152.98,254.14 5186.41,275.38 " fill="transparent" id="logic_arc_int__baselibs__bit_manipulation-backto-comp_arc_sta__baselibs__bit_manipulation" style="stroke:#181818;stroke-width:1;"/><polygon fill="#181818" points="5065.8,198.75,5071.2515,206.9525,5070.0203,201.4313,5075.5415,200.2001,5065.8,198.75" style="stroke:#181818;stroke-width:1;"/><text fill="#000000" font-family="sans-serif" font-size="13" lengthAdjust="spacing" textLength="76.9082" x="5138.5" y="241.5669">implements</text></g><!--reverse link logic_arc_int__baselibs__json to comp_arc_sta__baselibs__json--><g id="link_logic_arc_int__baselibs__json_comp_arc_sta__baselibs__json"><path codeLine="17" d="M6075.9346,204.7491 C6076.3046,225.9791 6076.79,253.94 6077.16,275.19 " fill="transparent" id="logic_arc_int__baselibs__json-backto-comp_arc_sta__baselibs__json" style="stroke:#181818;stroke-width:1;"/><polygon fill="#181818" points="6075.83,198.75,6071.9874,207.8183,6075.9171,203.7492,6079.9862,207.6789,6075.83,198.75" style="stroke:#181818;stroke-width:1;"/><text fill="#000000" font-family="sans-serif" font-size="13" lengthAdjust="spacing" textLength="76.9082" x="6077.5" y="241.5669">implements</text></g><!--link Feature_User to logic_arc_int__baselibs__utils_base64--><g id="link_Feature_User_logic_arc_int__baselibs__utils_base64"><path codeLine="18" d="M3132.52,53.64 C3238.52,75.17 3499.76,128.2162 3642.79,157.2562 " fill="transparent" id="Feature_User-to-logic_arc_int__baselibs__utils_base64" style="stroke:#181818;stroke-width:1;"/><polygon fill="#181818" points="3648.67,158.45,3640.6459,152.7392,3643.77,157.4551,3639.0541,160.5792,3648.67,158.45" style="stroke:#181818;stroke-width:1;"/><text fill="#000000" font-family="sans-serif" font-size="13" lengthAdjust="spacing" textLength="23.0103" x="3494.5" y="124.5669">use</text></g><!--link Feature_User to logic_arc_int__baselibs__json--><g id="link_Feature_User_logic_arc_int__baselibs__json"><path codeLine="19" d="M3132.78,45.41 C3356.78,50.01 4368.61,72.1 5196.5,111.5 C5526.12,127.19 5609.16,125.53 5937.5,158.5 C5944.48,159.2 5945.6902,159.2966 5952.9102,160.1366 " fill="transparent" id="Feature_User-to-logic_arc_int__baselibs__json" style="stroke:#181818;stroke-width:1;"/><polygon fill="#181818" points="5958.87,160.83,5950.3926,155.8167,5953.9035,160.2522,5949.468,163.7631,5958.87,160.83" style="stroke:#181818;stroke-width:1;"/><text fill="#000000" font-family="sans-serif" font-size="13" lengthAdjust="spacing" textLength="23.0103" x="5556.5" y="124.5669">use</text></g><!--reverse link logic_arc_int__baselibs__condition_variable to comp_arc_sta__baselibs__concurrency--><g id="link_logic_arc_int__baselibs__condition_variable_comp_arc_sta__baselibs__concurrency"><path codeLine="20" d="M1836.6152,203.0298 C1857.4752,224.2598 1886.64,253.94 1907.52,275.19 " fill="transparent" id="logic_arc_int__baselibs__condition_variable-backto-comp_arc_sta__baselibs__concurrency" style="stroke:#181818;stroke-width:1;"/><polygon fill="#181818" points="1832.41,198.75,1835.8646,207.9731,1835.9143,202.3165,1841.571,202.3662,1832.41,198.75" style="stroke:#181818;stroke-width:1;"/><text fill="#000000" font-family="sans-serif" font-size="13" lengthAdjust="spacing" textLength="76.9082" x="1878.5" y="241.5669">implements</text></g><!--reverse link logic_arc_int__baselibs__dynamic_array to comp_arc_sta__baselibs__containers--><g id="link_logic_arc_int__baselibs__dynamic_array_comp_arc_sta__baselibs__containers"><path codeLine="21" d="M4389.3918,202.1527 C4420.3118,223.4427 4464.89,254.14 4495.74,275.38 " fill="transparent" id="logic_arc_int__baselibs__dynamic_array-backto-comp_arc_sta__baselibs__containers" style="stroke:#181818;stroke-width:1;"/><polygon fill="#181818" points="4384.45,198.75,4389.5943,207.1486,4388.5682,201.5856,4394.1312,200.5595,4384.45,198.75" style="stroke:#181818;stroke-width:1;"/><text fill="#000000" font-family="sans-serif" font-size="13" lengthAdjust="spacing" textLength="76.9082" x="4451.5" y="241.5669">implements</text></g><!--reverse link logic_arc_int__baselibs__utils_scoped_op to comp_arc_sta__baselibs__utils--><g id="link_logic_arc_int__baselibs__utils_scoped_op_comp_arc_sta__baselibs__utils"><path codeLine="22" d="M3436.7506,202.1252 C3468.0406,223.4152 3513.19,254.14 3544.4,275.38 " fill="transparent" id="logic_arc_int__baselibs__utils_scoped_op-backto-comp_arc_sta__baselibs__utils" style="stroke:#181818;stroke-width:1;"/><polygon fill="#181818" points="3431.79,198.75,3436.9808,207.1199,3435.9238,201.5627,3441.4811,200.5058,3431.79,198.75" style="stroke:#181818;stroke-width:1;"/><text fill="#000000" font-family="sans-serif" font-size="13" lengthAdjust="spacing" textLength="76.9082" x="3499.5" y="241.5669">implements</text></g><!--reverse link logic_arc_int__baselibs__memory_shared to comp_arc_sta__baselibs__memory_shared--><g id="link_logic_arc_int__baselibs__memory_shared_comp_arc_sta__baselibs__memory_shared"><path codeLine="23" d="M5760.8418,204.7479 C5760.2818,225.9779 5759.56,253.94 5759,275.19 " fill="transparent" id="logic_arc_int__baselibs__memory_shared-backto-comp_arc_sta__baselibs__memory_shared" style="stroke:#181818;stroke-width:1;"/><polygon fill="#181818" points="5761,198.75,5756.7641,207.6414,5760.8682,203.7483,5764.7613,207.8523,5761,198.75" style="stroke:#181818;stroke-width:1;"/><text fill="#000000" font-family="sans-serif" font-size="13" lengthAdjust="spacing" textLength="76.9082" x="5761.5" y="241.5669">implements</text></g><!--reverse link logic_arc_int__baselibs__result to comp_arc_sta__baselibs__result--><g id="link_logic_arc_int__baselibs__result_comp_arc_sta__baselibs__result"><path codeLine="24" d="M4045.5,204.75 C4045.5,225.98 4045.5,253.94 4045.5,275.19 " fill="transparent" id="logic_arc_int__baselibs__result-backto-comp_arc_sta__baselibs__result" style="stroke:#181818;stroke-width:1;"/><polygon fill="#181818" points="4045.5,198.75,4041.5,207.75,4045.5,203.75,4049.5,207.75,4045.5,198.75" style="stroke:#181818;stroke-width:1;"/><text fill="#000000" font-family="sans-serif" font-size="13" lengthAdjust="spacing" textLength="76.9082" x="4046.5" y="241.5669">implements</text></g><!--link Feature_User to logic_arc_int__baselibs__synchronized_queue--><g id="link_Feature_User_logic_arc_int__baselibs__synchronized_queue"><path codeLine="25" d="M3042.24,62.58 C2979.38,87.68 2871.7318,130.6741 2807.6518,156.2741 " fill="transparent" id="Feature_User-to-logic_arc_int__baselibs__synchronized_queue" style="stroke:#181818;stroke-width:1;"/><polygon fill="#181818" points="2802.08,158.5,2811.9217,158.8756,2806.7232,156.645,2808.9538,151.4465,2802.08,158.5" style="stroke:#181818;stroke-width:1;"/><text fill="#000000" font-family="sans-serif" font-size="13" lengthAdjust="spacing" textLength="23.0103" x="2912.5" y="124.5669">use</text></g><!--reverse link logic_arc_int__baselibs__synchronized_queue to comp_arc_sta__baselibs__concurrency--><g id="link_logic_arc_int__baselibs__synchronized_queue_comp_arc_sta__baselibs__concurrency"><path codeLine="26" d="M2618.2423,199.4222 C2526.1723,212.7922 2405.79,230.11 2294.5,245.5 C2221.24,255.63 2139.72,266.53 2072.06,275.46 " fill="transparent" id="logic_arc_int__baselibs__synchronized_queue-backto-comp_arc_sta__baselibs__concurrency" style="stroke:#181818;stroke-width:1;"/><polygon fill="#181818" points="2624.18,198.56,2614.6986,195.8949,2619.2319,199.2785,2615.8483,203.8119,2624.18,198.56" style="stroke:#181818;stroke-width:1;"/><text fill="#000000" font-family="sans-serif" font-size="13" lengthAdjust="spacing" textLength="76.9082" x="2409.5" y="241.5669">implements</text></g><!--reverse link logic_arc_int__baselibs__intrusive_list to comp_arc_sta__baselibs__containers--><g id="link_logic_arc_int__baselibs__intrusive_list_comp_arc_sta__baselibs__containers"><path codeLine="27" d="M4659.2494,202.1252 C4627.9594,223.4152 4582.81,254.14 4551.6,275.38 " fill="transparent" id="logic_arc_int__baselibs__intrusive_list-backto-comp_arc_sta__baselibs__containers" style="stroke:#181818;stroke-width:1;"/><polygon fill="#181818" points="4664.21,198.75,4654.5189,200.5058,4660.0762,201.5627,4659.0192,207.1199,4664.21,198.75" style="stroke:#181818;stroke-width:1;"/><text fill="#000000" font-family="sans-serif" font-size="13" lengthAdjust="spacing" textLength="76.9082" x="4619.5" y="241.5669">implements</text></g><!--link Feature_User to logic_arc_int__baselibs__condition_variable--><g id="link_Feature_User_logic_arc_int__baselibs__condition_variable"><path codeLine="28" d="M3042.16,49.23 C2873.22,66.87 2280.9476,128.6969 1986.1476,159.4769 " fill="transparent" id="Feature_User-to-logic_arc_int__baselibs__condition_variable" style="stroke:#181818;stroke-width:1;"/><polygon fill="#181818" points="1980.18,160.1,1989.5467,163.1438,1985.153,159.5808,1988.716,155.187,1980.18,160.1" style="stroke:#181818;stroke-width:1;"/><text fill="#000000" font-family="sans-serif" font-size="13" lengthAdjust="spacing" textLength="23.0103" x="2413.5" y="124.5669">use</text></g><!--link Feature_User to logic_arc_int__baselibs__executor--><g id="link_Feature_User_logic_arc_int__baselibs__executor"><path codeLine="29" d="M3042.21,46.24 C2864.67,53.12 2199.02,79.7 1651.5,111.5 C1350.84,128.96 1275.25,129.24 975.5,158.5 C969.71,159.06 969.7758,159.0304 963.8058,159.6704 " fill="transparent" id="Feature_User-to-logic_arc_int__baselibs__executor" style="stroke:#181818;stroke-width:1;"/><polygon fill="#181818" points="957.84,160.31,967.2151,163.3279,962.8115,159.777,966.3624,155.3735,957.84,160.31" style="stroke:#181818;stroke-width:1;"/><text fill="#000000" font-family="sans-serif" font-size="13" lengthAdjust="spacing" textLength="23.0103" x="1652.5" y="124.5669">use</text></g><!--link Feature_User to logic_arc_int__baselibs__promise--><g id="link_Feature_User_logic_arc_int__baselibs__promise"><path codeLine="30" d="M3042.38,50.87 C2905.37,70.21 2496.4111,127.9511 2282.3311,158.1811 " fill="transparent" id="Feature_User-to-logic_arc_int__baselibs__promise" style="stroke:#181818;stroke-width:1;"/><polygon fill="#181818" points="2276.39,159.02,2285.8609,161.7223,2281.3409,158.3209,2284.7423,153.8009,2276.39,159.02" style="stroke:#181818;stroke-width:1;"/><text fill="#000000" font-family="sans-serif" font-size="13" lengthAdjust="spacing" textLength="23.0103" x="2589.5" y="124.5669">use</text></g><!--reverse link logic_arc_int__baselibs__promise to comp_arc_sta__baselibs__concurrency--><g id="link_logic_arc_int__baselibs__promise_comp_arc_sta__baselibs__concurrency"><path codeLine="31" d="M2103.528,201.5397 C2062.988,222.8297 2003.36,254.14 1962.91,275.38 " fill="transparent" id="logic_arc_int__baselibs__promise-backto-comp_arc_sta__baselibs__concurrency" style="stroke:#181818;stroke-width:1;"/><polygon fill="#181818" points="2108.84,198.75,2099.0122,199.3931,2104.4133,201.0747,2102.7317,206.4759,2108.84,198.75" style="stroke:#181818;stroke-width:1;"/><text fill="#000000" font-family="sans-serif" font-size="13" lengthAdjust="spacing" textLength="76.9082" x="2050.5" y="241.5669">implements</text></g><!--reverse link logic_arc_int__baselibs__shared_future to comp_arc_sta__baselibs__concurrency--><g id="link_logic_arc_int__baselibs__shared_future_comp_arc_sta__baselibs__concurrency"><path codeLine="32" d="M1543.5352,199.9877 C1629.7952,221.2777 1762.81,254.11 1849.14,275.41 " fill="transparent" id="logic_arc_int__baselibs__shared_future-backto-comp_arc_sta__baselibs__concurrency" style="stroke:#181818;stroke-width:1;"/><polygon fill="#181818" points="1537.71,198.55,1545.4893,204.5901,1542.5643,199.7481,1547.4063,196.8231,1537.71,198.55" style="stroke:#181818;stroke-width:1;"/><text fill="#000000" font-family="sans-serif" font-size="13" lengthAdjust="spacing" textLength="76.9082" x="1722.5" y="241.5669">implements</text></g><!--reverse link logic_arc_int__baselibs__bit_mask_operator to comp_arc_sta__baselibs__bit_manipulation--><g id="link_logic_arc_int__baselibs__bit_mask_operator_comp_arc_sta__baselibs__bit_manipulation"><path codeLine="33" d="M5363.7898,201.9424 C5329.9098,223.2324 5280.72,254.14 5246.92,275.38 " fill="transparent" id="logic_arc_int__baselibs__bit_mask_operator-backto-comp_arc_sta__baselibs__bit_manipulation" style="stroke:#181818;stroke-width:1;"/><polygon fill="#181818" points="5368.87,198.75,5359.1214,200.1518,5364.6365,201.4103,5363.3779,206.9254,5368.87,198.75" style="stroke:#181818;stroke-width:1;"/><text fill="#000000" font-family="sans-serif" font-size="13" lengthAdjust="spacing" textLength="76.9082" x="5320.5" y="241.5669">implements</text></g><!--link Feature_User to logic_arc_int__baselibs__bit_manipulation--><g id="link_Feature_User_logic_arc_int__baselibs__bit_manipulation"><path codeLine="34" d="M3132.67,46.59 C3334.19,56.1 4171.38,97.43 4856.5,158.5 C4862.26,159.01 4862.1467,158.985 4868.0667,159.545 " fill="transparent" id="Feature_User-to-logic_arc_int__baselibs__bit_manipulation" style="stroke:#181818;stroke-width:1;"/><polygon fill="#181818" points="4874.04,160.11,4865.4567,155.2802,4869.0622,159.6391,4864.7033,163.2447,4874.04,160.11" style="stroke:#181818;stroke-width:1;"/><text fill="#000000" font-family="sans-serif" font-size="13" lengthAdjust="spacing" textLength="23.0103" x="4470.5" y="124.5669">use</text></g><!--link Feature_User to logic_arc_int__baselibs__utils_scoped_op--><g id="link_Feature_User_logic_arc_int__baselibs__utils_scoped_op"><path codeLine="35" d="M3132.78,63.56 C3192.85,88.84 3292.75,130.8821 3352.78,156.1521 " fill="transparent" id="Feature_User-to-logic_arc_int__baselibs__utils_scoped_op" style="stroke:#181818;stroke-width:1;"/><polygon fill="#181818" points="3358.31,158.48,3351.5669,151.3015,3353.7017,156.5401,3348.4631,158.6748,3358.31,158.48" style="stroke:#181818;stroke-width:1;"/><text fill="#000000" font-family="sans-serif" font-size="13" lengthAdjust="spacing" textLength="23.0103" x="3284.5" y="124.5669">use</text></g><!--link Feature_User to logic_arc_int__baselibs__task--><g id="link_Feature_User_logic_arc_int__baselibs__task"><path codeLine="36" d="M3042.46,53.59 C2935.94,75.09 2672.5614,128.2429 2528.5914,157.3029 " fill="transparent" id="Feature_User-to-logic_arc_int__baselibs__task" style="stroke:#181818;stroke-width:1;"/><polygon fill="#181818" points="2522.71,158.49,2532.3235,160.6302,2527.6112,157.5007,2530.7406,152.7884,2522.71,158.49" style="stroke:#181818;stroke-width:1;"/><text fill="#000000" font-family="sans-serif" font-size="13" lengthAdjust="spacing" textLength="23.0103" x="2739.5" y="124.5669">use</text></g><!--reverse link logic_arc_int__baselibs__executor to comp_arc_sta__baselibs__concurrency--><g id="link_logic_arc_int__baselibs__executor_comp_arc_sta__baselibs__concurrency"><path codeLine="37" d="M963.8353,197.0907 C969.7853,197.8207 969.73,197.81 975.5,198.5 C1157.16,220.37 1202.48,226.82 1384.5,245.5 C1516.79,259.08 1667.45,272.54 1776.29,281.9 " fill="transparent" id="logic_arc_int__baselibs__executor-backto-comp_arc_sta__baselibs__concurrency" style="stroke:#181818;stroke-width:1;"/><polygon fill="#181818" points="957.88,196.36,966.3259,201.4262,962.8428,196.9689,967.3001,193.4858,957.88,196.36" style="stroke:#181818;stroke-width:1;"/><text fill="#000000" font-family="sans-serif" font-size="13" lengthAdjust="spacing" textLength="76.9082" x="1385.5" y="241.5669">implements</text></g><!--reverse link logic_arc_int__baselibs__future to comp_arc_sta__baselibs__concurrency--><g id="link_logic_arc_int__baselibs__future_comp_arc_sta__baselibs__concurrency"><path codeLine="38" d="M2958.046,196.9819 C2951.786,197.7619 2951.55,197.78 2945.5,198.5 C2637.38,235.16 2275.47,266.48 2076.53,282.68 " fill="transparent" id="logic_arc_int__baselibs__future-backto-comp_arc_sta__baselibs__concurrency" style="stroke:#181818;stroke-width:1;"/><polygon fill="#181818" points="2964,196.24,2954.5745,193.3835,2959.0384,196.8582,2955.5636,201.3221,2964,196.24" style="stroke:#181818;stroke-width:1;"/><text fill="#000000" font-family="sans-serif" font-size="13" lengthAdjust="spacing" textLength="76.9082" x="2667.5" y="241.5669">implements</text></g><!--link Feature_User to logic_arc_int__baselibs__shared_future--><g id="link_Feature_User_logic_arc_int__baselibs__shared_future"><path codeLine="39" d="M3042.41,47.47 C2863.43,59.35 2185.87,105.49 1629.5,158.5 C1623.62,159.06 1623.5997,159.0481 1617.5497,159.6581 " fill="transparent" id="Feature_User-to-logic_arc_int__baselibs__shared_future" style="stroke:#181818;stroke-width:1;"/><polygon fill="#181818" points="1611.58,160.26,1620.9359,163.337,1616.5548,159.7584,1620.1333,155.3773,1611.58,160.26" style="stroke:#181818;stroke-width:1;"/><text fill="#000000" font-family="sans-serif" font-size="13" lengthAdjust="spacing" textLength="23.0103" x="2151.5" y="124.5669">use</text></g><!--reverse link logic_arc_int__baselibs__utils_base64 to comp_arc_sta__baselibs__utils--><g id="link_logic_arc_int__baselibs__utils_base64_comp_arc_sta__baselibs__utils"><path codeLine="40" d="M3709.0799,202.1113 C3677.5999,223.4013 3632.16,254.14 3600.76,275.38 " fill="transparent" id="logic_arc_int__baselibs__utils_base64-backto-comp_arc_sta__baselibs__utils" style="stroke:#181818;stroke-width:1;"/><polygon fill="#181818" points="3714.05,198.75,3704.354,200.4785,3709.9083,201.5511,3708.8357,207.1053,3714.05,198.75" style="stroke:#181818;stroke-width:1;"/><text fill="#000000" font-family="sans-serif" font-size="13" lengthAdjust="spacing" textLength="76.9082" x="3669.5" y="241.5669">implements</text></g><!--reverse link logic_arc_int__baselibs__message_passing to comp_arc_sta__baselibs__message_passing--><g id="link_logic_arc_int__baselibs__message_passing_comp_arc_sta__baselibs__message_passing"><path codeLine="41" d="M493.1582,204.7479 C493.7182,225.9779 494.44,253.94 495,275.19 " fill="transparent" id="logic_arc_int__baselibs__message_passing-backto-comp_arc_sta__baselibs__message_passing" style="stroke:#181818;stroke-width:1;"/><polygon fill="#181818" points="493,198.75,489.2387,207.8523,493.1318,203.7483,497.2359,207.6414,493,198.75" style="stroke:#181818;stroke-width:1;"/><text fill="#000000" font-family="sans-serif" font-size="13" lengthAdjust="spacing" textLength="76.9082" x="495.5" y="241.5669">implements</text></g><!--link Feature_User to logic_arc_int__baselibs__filesystem--><g id="link_Feature_User_logic_arc_int__baselibs__filesystem"><path codeLine="42" d="M3042.17,45.38 C2820.09,49.8 1824.85,71.04 1010.5,111.5 C699.07,126.97 620.94,129.31 310.5,158.5 C304.35,159.08 304.0379,159.0797 297.6879,159.7397 " fill="transparent" id="Feature_User-to-logic_arc_int__baselibs__filesystem" style="stroke:#181818;stroke-width:1;"/><polygon fill="#181818" points="291.72,160.36,301.0853,163.4081,296.6932,159.8431,300.2583,155.451,291.72,160.36" style="stroke:#181818;stroke-width:1;"/><text fill="#000000" font-family="sans-serif" font-size="13" lengthAdjust="spacing" textLength="23.0103" x="1011.5" y="124.5669">use</text></g><!--reverse link logic_arc_int__baselibs__filesystem to comp_arc_sta__baselibs__filesystem--><g id="link_logic_arc_int__baselibs__filesystem_comp_arc_sta__baselibs__filesystem"><path codeLine="43" d="M152.621,204.7464 C151.881,225.9764 150.91,253.94 150.17,275.19 " fill="transparent" id="logic_arc_int__baselibs__filesystem-backto-comp_arc_sta__baselibs__filesystem" style="stroke:#181818;stroke-width:1;"/><polygon fill="#181818" points="152.83,198.75,148.5189,207.6052,152.6558,203.747,156.5141,207.8839,152.83,198.75" style="stroke:#181818;stroke-width:1;"/><text fill="#000000" font-family="sans-serif" font-size="13" lengthAdjust="spacing" textLength="76.9082" x="153.5" y="241.5669">implements</text></g><!--link Feature_User to logic_arc_int__baselibs__intrusive_list--><g id="link_Feature_User_logic_arc_int__baselibs__intrusive_list"><path codeLine="44" d="M3132.65,47.49 C3310.34,59.36 3978.68,105.19 4527.5,158.5 C4533.53,159.09 4533.7116,159.0849 4539.9216,159.7249 " fill="transparent" id="Feature_User-to-logic_arc_int__baselibs__intrusive_list" style="stroke:#181818;stroke-width:1;"/><polygon fill="#181818" points="4545.89,160.34,4537.3475,155.4384,4540.9163,159.8274,4536.5274,163.3963,4545.89,160.34" style="stroke:#181818;stroke-width:1;"/><text fill="#000000" font-family="sans-serif" font-size="13" lengthAdjust="spacing" textLength="23.0103" x="4173.5" y="124.5669">use</text></g><!--link Feature_User to logic_arc_int__baselibs__dynamic_array--><g id="link_Feature_User_logic_arc_int__baselibs__dynamic_array"><path codeLine="45" d="M3132.7,49.09 C3282.51,64.33 3776.36,114.75 4184.5,158.5 C4190.32,159.12 4190.2949,159.1138 4196.2949,159.7638 " fill="transparent" id="Feature_User-to-logic_arc_int__baselibs__dynamic_array" style="stroke:#181818;stroke-width:1;"/><polygon fill="#181818" points="4202.26,160.41,4193.7432,155.4639,4197.2891,159.8715,4192.8815,163.4174,4202.26,160.41" style="stroke:#181818;stroke-width:1;"/><text fill="#000000" font-family="sans-serif" font-size="13" lengthAdjust="spacing" textLength="23.0103" x="3884.5" y="124.5669">use</text></g><!--link Feature_User to logic_arc_int__baselibs__bit_mask_operator--><g id="link_Feature_User_logic_arc_int__baselibs__bit_mask_operator"><path codeLine="46" d="M3132.82,45.91 C3358.1,53.13 4379.7,88.38 5213.5,158.5 C5219.48,159 5219.5939,158.9955 5225.7439,159.5455 " fill="transparent" id="Feature_User-to-logic_arc_int__baselibs__bit_mask_operator" style="stroke:#181818;stroke-width:1;"/><polygon fill="#181818" points="5231.72,160.08,5223.1121,155.2942,5226.7399,159.6346,5222.3995,163.2624,5231.72,160.08" style="stroke:#181818;stroke-width:1;"/><text fill="#000000" font-family="sans-serif" font-size="13" lengthAdjust="spacing" textLength="23.0103" x="4808.5" y="124.5669">use</text></g><!--reverse link logic_arc_int__baselibs__task_result to comp_arc_sta__baselibs__concurrency--><g id="link_logic_arc_int__baselibs__task_result_comp_arc_sta__baselibs__concurrency"><path codeLine="47" d="M1267.0548,199.4323 C1356.4548,212.7223 1472.78,229.92 1580.5,245.5 C1649.85,255.53 1727.05,266.48 1790.91,275.49 " fill="transparent" id="logic_arc_int__baselibs__task_result-backto-comp_arc_sta__baselibs__concurrency" style="stroke:#181818;stroke-width:1;"/><polygon fill="#181818" points="1261.12,198.55,1269.434,203.8299,1266.0657,199.2852,1270.6103,195.9169,1261.12,198.55" style="stroke:#181818;stroke-width:1;"/><text fill="#000000" font-family="sans-serif" font-size="13" lengthAdjust="spacing" textLength="76.9082" x="1581.5" y="241.5669">implements</text></g><!--link Feature_User to logic_arc_int__baselibs__future--><g id="link_Feature_User_logic_arc_int__baselibs__future"><path codeLine="48" d="M3087.5,81.55 C3087.5,106.45 3087.5,132.26 3087.5,152.26 " fill="transparent" id="Feature_User-to-logic_arc_int__baselibs__future" style="stroke:#181818;stroke-width:1;"/><polygon fill="#181818" points="3087.5,158.26,3091.5,149.26,3087.5,153.26,3083.5,149.26,3087.5,158.26" style="stroke:#181818;stroke-width:1;"/><text fill="#000000" font-family="sans-serif" font-size="13" lengthAdjust="spacing" textLength="23.0103" x="3088.5" y="124.5669">use</text></g><!--link Feature_User to logic_arc_int__baselibs__message_passing--><g id="link_Feature_User_logic_arc_int__baselibs__message_passing"><path codeLine="49" d="M3042.21,45.66 C2841.04,50.91 2008.27,73.92 1325.5,111.5 C1035.41,127.47 962.9,132.89 673.5,158.5 C667.99,158.99 668.3647,158.9501 662.7147,159.4701 " fill="transparent" id="Feature_User-to-logic_arc_int__baselibs__message_passing" style="stroke:#181818;stroke-width:1;"/><polygon fill="#181818" points="656.74,160.02,666.0687,163.1783,661.719,159.5618,665.3355,155.212,656.74,160.02" style="stroke:#181818;stroke-width:1;"/><text fill="#000000" font-family="sans-serif" font-size="13" lengthAdjust="spacing" textLength="23.0103" x="1326.5" y="124.5669">use</text></g><!--reverse link logic_arc_int__baselibs__task to comp_arc_sta__baselibs__concurrency--><g id="link_logic_arc_int__baselibs__task_comp_arc_sta__baselibs__concurrency"><path codeLine="50" d="M2339.4715,199.89 C2246.5515,221.18 2102.83,254.11 2009.84,275.41 " fill="transparent" id="logic_arc_int__baselibs__task-backto-comp_arc_sta__baselibs__concurrency" style="stroke:#181818;stroke-width:1;"/><polygon fill="#181818" points="2345.32,198.55,2335.654,196.661,2340.4463,199.6667,2337.4407,204.459,2345.32,198.55" style="stroke:#181818;stroke-width:1;"/><text fill="#000000" font-family="sans-serif" font-size="13" lengthAdjust="spacing" textLength="76.9082" x="2209.5" y="241.5669">implements</text></g><!--link Feature_User to logic_arc_int__baselibs__memory_shared--><g id="link_Feature_User_logic_arc_int__baselibs__memory_shared"><path codeLine="51" d="M3132.55,45.81 C3332.66,51.71 4161.06,77.06 4840.5,111.5 C5171.4,128.27 5254.37,130.37 5584.5,158.5 C5590.35,159 5590.335,158.9832 5596.345,159.5332 " fill="transparent" id="Feature_User-to-logic_arc_int__baselibs__memory_shared" style="stroke:#181818;stroke-width:1;"/><polygon fill="#181818" points="5602.32,160.08,5593.722,155.2764,5597.3408,159.6243,5592.9929,163.2432,5602.32,160.08" style="stroke:#181818;stroke-width:1;"/><text fill="#000000" font-family="sans-serif" font-size="13" lengthAdjust="spacing" textLength="23.0103" x="5164.5" y="124.5669">use</text></g><!--link Feature_User to logic_arc_int__baselibs__task_result--><g id="link_Feature_User_logic_arc_int__baselibs__task_result"><path codeLine="52" d="M3042.31,46.31 C2838.83,54.69 1987.41,92.11 1291.5,158.5 C1285.86,159.04 1286.0782,158.9926 1280.2782,159.5926 " fill="transparent" id="Feature_User-to-logic_arc_int__baselibs__task_result" style="stroke:#181818;stroke-width:1;"/><polygon fill="#181818" points="1274.31,160.21,1283.6738,163.2627,1279.2835,159.6955,1282.8506,155.3051,1274.31,160.21" style="stroke:#181818;stroke-width:1;"/><text fill="#000000" font-family="sans-serif" font-size="13" lengthAdjust="spacing" textLength="23.0103" x="1835.5" y="124.5669">use</text></g><!--SRC=[hLPDRzim3BthLmYzfnk6OOUYw6N0JZjkPq6MsOIhlYPINRrX_tsoawvraiMMvoCTyZ6FV7gIjZRyK0wVq6y5XoWvo2Om1oTRJ60OWnSxR44IGuB0NOHz32vo9pLpmYOpaBWbxYpSYMjDQ1lvItn63n-33KacQ8VeomxDWmSY-UxwhVWjRjySQeGsNFAkFe7cd41-9KXNKfCyV53z1ob6qQRTt4aRjcYKJaQXPwKQJM2n8QKIKBPy8pE152QuE2GHwzT93R9oscFCLlTCvIPVmZnElv7eeWK7dacAVtRvHfF8VSeOhO9gPhGqn1_U7mXNLEzRNnoJ2TxabC2RRe97oMon7urwr0brOs7Cwa87raKWYIOQj9tNRlWfwMuUzZ2U2TZz2Cc42AqASHwm0nTIfsYdYxud6enovy7l5Jo1-oppXTAXpfjT2Xv_5jxVCsHOJGhde5ULGWbJ9dm4PP6MZ-2SP6lF43o1oSN0wYjZ2WvflQd_nPivwhdB77IhxdFFQnxu8c-bXtBw8EbXbWiNUkhIjKivSODQ02v4LblfYxZMtUcvPTPOnrWI5ydEj-3dMsoU_nBfBQYeYShpPTA1HzcBUT-Z1UhAQyXDa7v9d5h4AyI5V-hO2si5UtIjrfQVERmhYRy_IVzxoOqaMb5tefWLEIqcS_IGME9CuxVn7m00]--></g></svg>