<svg xmlns="http://www.w3.org/2000/svg" xmlns:xlink="http://www.w3.org/1999/xlink" contentStyleType="text/css" data-diagram-type="CLASS" height="322px" preserveAspectRatio="none" style="width:6199px;height:322px;background:#FFFFFF;" version="1.1" viewBox="0 0 6199 322" width="6199px" zoomAndPan="magnify"><defs/><g><!--entity Feature_User--><g id="elem_Feature_User"><ellipse cx="3071.1685" cy="14" fill="#F1F1F1" rx="8" ry="8" style="stroke:#181818;stroke-width:0.5;"/><path d="M3071.1685,22 L3071.1685,49 M3058.1685,30 L3084.1685,30 M3071.1685,49 L3058.1685,64 M3071.1685,49 L3084.1685,64 " fill="transparent" style="stroke:#181818;stroke-width:0.5;"/><text fill="#000000" font-family="sans-serif" font-size="14" lengthAdjust="spacing" textLength="90.3369" x="3026" y="78.4951">Feature User</text></g><!--class logic_arc_int__baselibs__result--><g id="elem_logic_arc_int__baselibs__result"><rect fill="#F1F1F1" height="40" id="logic_arc_int__baselibs__result" rx="2.5" ry="2.5" style="stroke:#181818;stroke-width:0.5;" width="244.4609" x="5313" y="158.5"/><ellipse cx="5328" cy="174.5" fill="#ADD1B2" rx="11" ry="11" style="stroke:#181818;stroke-width:1;"/><path d="M5330.9688,180.1406 Q5330.3906,180.4375 5329.75,180.5781 Q5329.1094,180.7344 5328.4063,180.7344 Q5325.9063,180.7344 5324.5781,179.0938 Q5323.2656,177.4375 5323.2656,174.3125 Q5323.2656,171.1875 5324.5781,169.5313 Q5325.9063,167.875 5328.4063,167.875 Q5329.1094,167.875 5329.75,168.0313 Q5330.4063,168.1875 5330.9688,168.4844 L5330.9688,171.2031 Q5330.3438,170.625 5329.75,170.3594 Q5329.1563,170.0781 5328.5313,170.0781 Q5327.1875,170.0781 5326.5,171.1563 Q5325.8125,172.2188 5325.8125,174.3125 Q5325.8125,176.4063 5326.5,177.4844 Q5327.1875,178.5469 5328.5313,178.5469 Q5329.1563,178.5469 5329.75,178.2813 Q5330.3438,178 5330.9688,177.4219 L5330.9688,180.1406 Z " fill="#000000"/><text fill="#000000" font-family="sans-serif" font-size="14" lengthAdjust="spacing" textLength="212.4609" x="5342" y="179.3467">logic_arc_int__baselibs__result</text><line style="stroke:#181818;stroke-width:0.5;" x1="5314" x2="5556.4609" y1="190.5" y2="190.5"/></g><!--class comp_arc_sta__baselibs__utils--><g id="elem_comp_arc_sta__baselibs__utils"><rect fill="#F1F1F1" height="40" id="comp_arc_sta__baselibs__utils" rx="2.5" ry="2.5" style="stroke:#181818;stroke-width:0.5;" width="242.9502" x="3801.5" y="275.5"/><ellipse cx="3816.5" cy="291.5" fill="#ADD1B2" rx="11" ry="11" style="stroke:#181818;stroke-width:1;"/><path d="M3819.4688,297.1406 Q3818.8906,297.4375 3818.25,297.5781 Q3817.6094,297.7344 3816.9063,297.7344 Q3814.4063,297.7344 3813.0781,296.0938 Q3811.7656,294.4375 3811.7656,291.3125 Q3811.7656,288.1875 3813.0781,286.5313 Q3814.4063,284.875 3816.9063,284.875 Q3817.6094,284.875 3818.25,285.0313 Q3818.9063,285.1875 3819.4688,285.4844 L3819.4688,288.2031 Q3818.8438,287.625 3818.25,287.3594 Q3817.6563,287.0781 3817.0313,287.0781 Q3815.6875,287.0781 3815,288.1563 Q3814.3125,289.2188 3814.3125,291.3125 Q3814.3125,293.4063 3815,294.4844 Q3815.6875,295.5469 3817.0313,295.5469 Q3817.6563,295.5469 3818.25,295.2813 Q3818.8438,295 3819.4688,294.4219 L3819.4688,297.1406 Z " fill="#000000"/><text fill="#000000" font-family="sans-serif" font-size="14" lengthAdjust="spacing" textLength="210.9502" x="3830.5" y="296.3467">comp_arc_sta__baselibs__utils</text><line style="stroke:#181818;stroke-width:0.5;" x1="3802.5" x2="4043.4502" y1="307.5" y2="307.5"/></g><!--class logic_arc_int__baselibs__utils_scoped_op--><g id="elem_logic_arc_int__baselibs__utils_scoped_op"><rect fill="#F1F1F1" height="40" id="logic_arc_int__baselibs__utils_scoped_op" rx="2.5" ry="2.5" style="stroke:#181818;stroke-width:0.5;" width="315.377" x="3596.5" y="158.5"/><ellipse cx="3611.5" cy="174.5" fill="#ADD1B2" rx="11" ry="11" style="stroke:#181818;stroke-width:1;"/><path d="M3614.4688,180.1406 Q3613.8906,180.4375 3613.25,180.5781 Q3612.6094,180.7344 3611.9063,180.7344 Q3609.4063,180.7344 3608.0781,179.0938 Q3606.7656,177.4375 3606.7656,174.3125 Q3606.7656,171.1875 3608.0781,169.5313 Q3609.4063,167.875 3611.9063,167.875 Q3612.6094,167.875 3613.25,168.0313 Q3613.9063,168.1875 3614.4688,168.4844 L3614.4688,171.2031 Q3613.8438,170.625 3613.25,170.3594 Q3612.6563,170.0781 3612.0313,170.0781 Q3610.6875,170.0781 3610,171.1563 Q3609.3125,172.2188 3609.3125,174.3125 Q3609.3125,176.4063 3610,177.4844 Q3610.6875,178.5469 3612.0313,178.5469 Q3612.6563,178.5469 3613.25,178.2813 Q3613.8438,178 3614.4688,177.4219 L3614.4688,180.1406 Z " fill="#000000"/><text fill="#000000" font-family="sans-serif" font-size="14" lengthAdjust="spacing" textLength="283.377" x="3625.5" y="179.3467">logic_arc_int__baselibs__utils_scoped_op</text><line style="stroke:#181818;stroke-width:0.5;" x1="3597.5" x2="3910.877" y1="190.5" y2="190.5"/></g><!--class logic_arc_int__baselibs__promise--><g id="elem_logic_arc_int__baselibs__promise"><rect fill="#F1F1F1" height="40" id="logic_arc_int__baselibs__promise" rx="2.5" ry="2.5" style="stroke:#181818;stroke-width:0.5;" width="261.1885" x="2264.5" y="158.5"/><ellipse cx="2279.5" cy="174.5" fill="#ADD1B2" rx="11" ry="11" style="stroke:#181818;stroke-width:1;"/><path d="M2282.4688,180.1406 Q2281.8906,180.4375 2281.25,180.5781 Q2280.6094,180.7344 2279.9063,180.7344 Q2277.4063,180.7344 2276.0781,179.0938 Q2274.7656,177.4375 2274.7656,174.3125 Q2274.7656,171.1875 2276.0781,169.5313 Q2277.4063,167.875 2279.9063,167.875 Q2280.6094,167.875 2281.25,168.0313 Q2281.9063,168.1875 2282.4688,168.4844 L2282.4688,171.2031 Q2281.8438,170.625 2281.25,170.3594 Q2280.6563,170.0781 2280.0313,170.0781 Q2278.6875,170.0781 2278,171.1563 Q2277.3125,172.2188 2277.3125,174.3125 Q2277.3125,176.4063 2278,177.4844 Q2278.6875,178.5469 2280.0313,178.5469 Q2280.6563,178.5469 2281.25,178.2813 Q2281.8438,178 2282.4688,177.4219 L2282.4688,180.1406 Z " fill="#000000"/><text fill="#000000" font-family="sans-serif" font-size="14" lengthAdjust="spacing" textLength="229.1885" x="2293.5" y="179.3467">logic_arc_int__baselibs__promise</text><line style="stroke:#181818;stroke-width:0.5;" x1="2265.5" x2="2524.6885" y1="190.5" y2="190.5"/></g><!--class logic_arc_int__baselibs__bit_manipulation--><g id="elem_logic_arc_int__baselibs__bit_manipulation"><rect fill="#F1F1F1" height="40" id="logic_arc_int__baselibs__bit_manipulation" rx="2.5" ry="2.5" style="stroke:#181818;stroke-width:0.5;" width="321.8369" x="4956" y="158.5"/><ellipse cx="4971" cy="174.5" fill="#ADD1B2" rx="11" ry="11" style="stroke:#181818;stroke-width:1;"/><path d="M4973.9688,180.1406 Q4973.3906,180.4375 4972.75,180.5781 Q4972.1094,180.7344 4971.4063,180.7344 Q4968.9063,180.7344 4967.5781,179.0938 Q4966.2656,177.4375 4966.2656,174.3125 Q4966.2656,171.1875 4967.5781,169.5313 Q4968.9063,167.875 4971.4063,167.875 Q4972.1094,167.875 4972.75,168.0313 Q4973.4063,168.1875 4973.9688,168.4844 L4973.9688,171.2031 Q4973.3438,170.625 4972.75,170.3594 Q4972.1563,170.0781 4971.5313,170.0781 Q4970.1875,170.0781 4969.5,171.1563 Q4968.8125,172.2188 4968.8125,174.3125 Q4968.8125,176.4063 4969.5,177.4844 Q4970.1875,178.5469 4971.5313,178.5469 Q4972.1563,178.5469 4972.75,178.2813 Q4973.3438,178 4973.9688,177.4219 L4973.9688,180.1406 Z " fill="#000000"/><text fill="#000000" font-family="sans-serif" font-size="14" lengthAdjust="spacing" textLength="289.8369" x="4985" y="179.3467">logic_arc_int__baselibs__bit_manipulation</text><line style="stroke:#181818;stroke-width:0.5;" x1="4957" x2="5276.8369" y1="190.5" y2="190.5"/></g><!--class comp_arc_sta__baselibs__memory_shared--><g id="elem_comp_arc_sta__baselibs__memory_shared"><rect fill="#F1F1F1" height="40" id="comp_arc_sta__baselibs__memory_shared" rx="2.5" ry="2.5" style="stroke:#181818;stroke-width:0.5;" width="327.0117" x="5865.5" y="275.5"/><ellipse cx="5880.5" cy="291.5" fill="#ADD1B2" rx="11" ry="11" style="stroke:#181818;stroke-width:1;"/><path d="M5883.4688,297.1406 Q5882.8906,297.4375 5882.25,297.5781 Q5881.6094,297.7344 5880.9063,297.7344 Q5878.4063,297.7344 5877.0781,296.0938 Q5875.7656,294.4375 5875.7656,291.3125 Q5875.7656,288.1875 5877.0781,286.5313 Q5878.4063,284.875 5880.9063,284.875 Q5881.6094,284.875 5882.25,285.0313 Q5882.9063,285.1875 5883.4688,285.4844 L5883.4688,288.2031 Q5882.8438,287.625 5882.25,287.3594 Q5881.6563,287.0781 5881.0313,287.0781 Q5879.6875,287.0781 5879,288.1563 Q5878.3125,289.2188 5878.3125,291.3125 Q5878.3125,293.4063 5879,294.4844 Q5879.6875,295.5469 5881.0313,295.5469 Q5881.6563,295.5469 5882.25,295.2813 Q5882.8438,295 5883.4688,294.4219 L5883.4688,297.1406 Z " fill="#000000"/><text fill="#000000" font-family="sans-serif" font-size="14" lengthAdjust="spacing" textLength="295.0117" x="5894.5" y="296.3467">comp_arc_sta__baselibs__memory_shared</text><line style="stroke:#181818;stroke-width:0.5;" x1="5866.5" x2="6191.5117" y1="307.5" y2="307.5"/></g><!--class logic_arc_int__baselibs__memory_shared--><g id="elem_logic_arc_int__baselibs__memory_shared"><rect fill="#F1F1F1" height="40" id="logic_arc_int__baselibs__memory_shared" rx="2.5" ry="2.5" style="stroke:#181818;stroke-width:0.5;" width="318.043" x="5866" y="158.5"/><ellipse cx="5881" cy="174.5" fill="#ADD1B2" rx="11" ry="11" style="stroke:#181818;stroke-width:1;"/><path d="M5883.9688,180.1406 Q5883.3906,180.4375 5882.75,180.5781 Q5882.1094,180.7344 5881.4063,180.7344 Q5878.9063,180.7344 5877.5781,179.0938 Q5876.2656,177.4375 5876.2656,174.3125 Q5876.2656,171.1875 5877.5781,169.5313 Q5878.9063,167.875 5881.4063,167.875 Q5882.1094,167.875 5882.75,168.0313 Q5883.4063,168.1875 5883.9688,168.4844 L5883.9688,171.2031 Q5883.3438,170.625 5882.75,170.3594 Q5882.1563,170.0781 5881.5313,170.0781 Q5880.1875,170.0781 5879.5,171.1563 Q5878.8125,172.2188 5878.8125,174.3125 Q5878.8125,176.4063 5879.5,177.4844 Q5880.1875,178.5469 5881.5313,178.5469 Q5882.1563,178.5469 5882.75,178.2813 Q5883.3438,178 5883.9688,177.4219 L5883.9688,180.1406 Z " fill="#000000"/><text fill="#000000" font-family="sans-serif" font-size="14" lengthAdjust="spacing" textLength="286.043" x="5895" y="179.3467">logic_arc_int__baselibs__memory_shared</text><line style="stroke:#181818;stroke-width:0.5;" x1="5867" x2="6183.043" y1="190.5" y2="190.5"/></g><!--class comp_arc_sta__baselibs__json--><g id="elem_comp_arc_sta__baselibs__json"><rect fill="#F1F1F1" height="40" id="comp_arc_sta__baselibs__json" rx="2.5" ry="2.5" style="stroke:#181818;stroke-width:0.5;" width="242.1367" x="5588" y="275.5"/><ellipse cx="5603" cy="291.5" fill="#ADD1B2" rx="11" ry="11" style="stroke:#181818;stroke-width:1;"/><path d="M5605.9688,297.1406 Q5605.3906,297.4375 5604.75,297.5781 Q5604.1094,297.7344 5603.4063,297.7344 Q5600.9063,297.7344 5599.5781,296.0938 Q5598.2656,294.4375 5598.2656,291.3125 Q5598.2656,288.1875 5599.5781,286.5313 Q5600.9063,284.875 5603.4063,284.875 Q5604.1094,284.875 5604.75,285.0313 Q5605.4063,285.1875 5605.9688,285.4844 L5605.9688,288.2031 Q5605.3438,287.625 5604.75,287.3594 Q5604.1563,287.0781 5603.5313,287.0781 Q5602.1875,287.0781 5601.5,288.1563 Q5600.8125,289.2188 5600.8125,291.3125 Q5600.8125,293.4063 5601.5,294.4844 Q5602.1875,295.5469 5603.5313,295.5469 Q5604.1563,295.5469 5604.75,295.2813 Q5605.3438,295 5605.9688,294.4219 L5605.9688,297.1406 Z " fill="#000000"/><text fill="#000000" font-family="sans-serif" font-size="14" lengthAdjust="spacing" textLength="210.1367" x="5617" y="296.3467">comp_arc_sta__baselibs__json</text><line style="stroke:#181818;stroke-width:0.5;" x1="5589" x2="5829.1367" y1="307.5" y2="307.5"/></g><!--class logic_arc_int__baselibs__json--><g id="elem_logic_arc_int__baselibs__json"><rect fill="#F1F1F1" height="40" id="logic_arc_int__baselibs__json" rx="2.5" ry="2.5" style="stroke:#181818;stroke-width:0.5;" width="233.168" x="5592.5" y="158.5"/><ellipse cx="5607.5" cy="174.5" fill="#ADD1B2" rx="11" ry="11" style="stroke:#181818;stroke-width:1;"/><path d="M5610.4688,180.1406 Q5609.8906,180.4375 5609.25,180.5781 Q5608.6094,180.7344 5607.9063,180.7344 Q5605.4063,180.7344 5604.0781,179.0938 Q5602.7656,177.4375 5602.7656,174.3125 Q5602.7656,171.1875 5604.0781,169.5313 Q5605.4063,167.875 5607.9063,167.875 Q5608.6094,167.875 5609.25,168.0313 Q5609.9063,168.1875 5610.4688,168.4844 L5610.4688,171.2031 Q5609.8438,170.625 5609.25,170.3594 Q5608.6563,170.0781 5608.0313,170.0781 Q5606.6875,170.0781 5606,171.1563 Q5605.3125,172.2188 5605.3125,174.3125 Q5605.3125,176.4063 5606,177.4844 Q5606.6875,178.5469 5608.0313,178.5469 Q5608.6563,178.5469 5609.25,178.2813 Q5609.8438,178 5610.4688,177.4219 L5610.4688,180.1406 Z " fill="#000000"/><text fill="#000000" font-family="sans-serif" font-size="14" lengthAdjust="spacing" textLength="201.168" x="5621.5" y="179.3467">logic_arc_int__baselibs__json</text><line style="stroke:#181818;stroke-width:0.5;" x1="5593.5" x2="5824.668" y1="190.5" y2="190.5"/></g><!--class comp_arc_sta__baselibs__bit_manipulation--><g id="elem_comp_arc_sta__baselibs__bit_manipulation"><rect fill="#F1F1F1" height="40" id="comp_arc_sta__baselibs__bit_manipulation" rx="2.5" ry="2.5" style="stroke:#181818;stroke-width:0.5;" width="330.8057" x="4770.5" y="275.5"/><ellipse cx="4785.5" cy="291.5" fill="#ADD1B2" rx="11" ry="11" style="stroke:#181818;stroke-width:1;"/><path d="M4788.4688,297.1406 Q4787.8906,297.4375 4787.25,297.5781 Q4786.6094,297.7344 4785.9063,297.7344 Q4783.4063,297.7344 4782.0781,296.0938 Q4780.7656,294.4375 4780.7656,291.3125 Q4780.7656,288.1875 4782.0781,286.5313 Q4783.4063,284.875 4785.9063,284.875 Q4786.6094,284.875 4787.25,285.0313 Q4787.9063,285.1875 4788.4688,285.4844 L4788.4688,288.2031 Q4787.8438,287.625 4787.25,287.3594 Q4786.6563,287.0781 4786.0313,287.0781 Q4784.6875,287.0781 4784,288.1563 Q4783.3125,289.2188 4783.3125,291.3125 Q4783.3125,293.4063 4784,294.4844 Q4784.6875,295.5469 4786.0313,295.5469 Q4786.6563,295.5469 4787.25,295.2813 Q4787.8438,295 4788.4688,294.4219 L4788.4688,297.1406 Z " fill="#000000"/><text fill="#000000" font-family="sans-serif" font-size="14" lengthAdjust="spacing" textLength="298.8057" x="4799.5" y="296.3467">comp_arc_sta__baselibs__bit_manipulation</text><line style="stroke:#181818;stroke-width:0.5;" x1="4771.5" x2="5100.3057" y1="307.5" y2="307.5"/></g><!--class logic_arc_int__baselibs__bit_mask_operator--><g id="elem_logic_arc_int__baselibs__bit_mask_operator"><rect fill="#F1F1F1" height="40" id="logic_arc_int__baselibs__bit_mask_operator" rx="2.5" ry="2.5" style="stroke:#181818;stroke-width:0.5;" width="334.6406" x="4585.5" y="158.5"/><ellipse cx="4600.5" cy="174.5" fill="#ADD1B2" rx="11" ry="11" style="stroke:#181818;stroke-width:1;"/><path d="M4603.4688,180.1406 Q4602.8906,180.4375 4602.25,180.5781 Q4601.6094,180.7344 4600.9063,180.7344 Q4598.4063,180.7344 4597.0781,179.0938 Q4595.7656,177.4375 4595.7656,174.3125 Q4595.7656,171.1875 4597.0781,169.5313 Q4598.4063,167.875 4600.9063,167.875 Q4601.6094,167.875 4602.25,168.0313 Q4602.9063,168.1875 4603.4688,168.4844 L4603.4688,171.2031 Q4602.8438,170.625 4602.25,170.3594 Q4601.6563,170.0781 4601.0313,170.0781 Q4599.6875,170.0781 4599,171.1563 Q4598.3125,172.2188 4598.3125,174.3125 Q4598.3125,176.4063 4599,177.4844 Q4599.6875,178.5469 4601.0313,178.5469 Q4601.6563,178.5469 4602.25,178.2813 Q4602.8438,178 4603.4688,177.4219 L4603.4688,180.1406 Z " fill="#000000"/><text fill="#000000" font-family="sans-serif" font-size="14" lengthAdjust="spacing" textLength="302.6406" x="4614.5" y="179.3467">logic_arc_int__baselibs__bit_mask_operator</text><line style="stroke:#181818;stroke-width:0.5;" x1="4586.5" x2="4919.1406" y1="190.5" y2="190.5"/></g><!--class comp_arc_sta__baselibs__result--><g id="elem_comp_arc_sta__baselibs__result"><rect fill="#F1F1F1" height="40" id="comp_arc_sta__baselibs__result" rx="2.5" ry="2.5" style="stroke:#181818;stroke-width:0.5;" width="253.4297" x="5299.5" y="275.5"/><ellipse cx="5314.5" cy="291.5" fill="#ADD1B2" rx="11" ry="11" style="stroke:#181818;stroke-width:1;"/><path d="M5317.4688,297.1406 Q5316.8906,297.4375 5316.25,297.5781 Q5315.6094,297.7344 5314.9063,297.7344 Q5312.4063,297.7344 5311.0781,296.0938 Q5309.7656,294.4375 5309.7656,291.3125 Q5309.7656,288.1875 5311.0781,286.5313 Q5312.4063,284.875 5314.9063,284.875 Q5315.6094,284.875 5316.25,285.0313 Q5316.9063,285.1875 5317.4688,285.4844 L5317.4688,288.2031 Q5316.8438,287.625 5316.25,287.3594 Q5315.6563,287.0781 5315.0313,287.0781 Q5313.6875,287.0781 5313,288.1563 Q5312.3125,289.2188 5312.3125,291.3125 Q5312.3125,293.4063 5313,294.4844 Q5313.6875,295.5469 5315.0313,295.5469 Q5315.6563,295.5469 5316.25,295.2813 Q5316.8438,295 5317.4688,294.4219 L5317.4688,297.1406 Z " fill="#000000"/><text fill="#000000" font-family="sans-serif" font-size="14" lengthAdjust="spacing" textLength="221.4297" x="5328.5" y="296.3467">comp_arc_sta__baselibs__result</text><line style="stroke:#181818;stroke-width:0.5;" x1="5300.5" x2="5551.9297" y1="307.5" y2="307.5"/></g><!--class comp_arc_sta__baselibs__concurrency--><g id="elem_comp_arc_sta__baselibs__concurrency"><rect fill="#F1F1F1" height="40" id="comp_arc_sta__baselibs__concurrency" rx="2.5" ry="2.5" style="stroke:#181818;stroke-width:0.5;" width="300.2012" x="1272" y="275.5"/><ellipse cx="1287" cy="291.5" fill="#ADD1B2" rx="11" ry="11" style="stroke:#181818;stroke-width:1;"/><path d="M1289.9688,297.1406 Q1289.3906,297.4375 1288.75,297.5781 Q1288.1094,297.7344 1287.4063,297.7344 Q1284.9063,297.7344 1283.5781,296.0938 Q1282.2656,294.4375 1282.2656,291.3125 Q1282.2656,288.1875 1283.5781,286.5313 Q1284.9063,284.875 1287.4063,284.875 Q1288.1094,284.875 1288.75,285.0313 Q1289.4063,285.1875 1289.9688,285.4844 L1289.9688,288.2031 Q1289.3438,287.625 1288.75,287.3594 Q1288.1563,287.0781 1287.5313,287.0781 Q1286.1875,287.0781 1285.5,288.1563 Q1284.8125,289.2188 1284.8125,291.3125 Q1284.8125,293.4063 1285.5,294.4844 Q1286.1875,295.5469 1287.5313,295.5469 Q1288.1563,295.5469 1288.75,295.2813 Q1289.3438,295 1289.9688,294.4219 L1289.9688,297.1406 Z " fill="#000000"/><text fill="#000000" font-family="sans-serif" font-size="14" lengthAdjust="spacing" textLength="268.2012" x="1301" y="296.3467">comp_arc_sta__baselibs__concurrency</text><line style="stroke:#181818;stroke-width:0.5;" x1="1273" x2="1571.2012" y1="307.5" y2="307.5"/></g><!--class logic_arc_int__baselibs__condition_variable--><g id="elem_logic_arc_int__baselibs__condition_variable"><rect fill="#F1F1F1" height="40" id="logic_arc_int__baselibs__condition_variable" rx="2.5" ry="2.5" style="stroke:#181818;stroke-width:0.5;" width="332.7539" x="672.5" y="158.5"/><ellipse cx="687.5" cy="174.5" fill="#ADD1B2" rx="11" ry="11" style="stroke:#181818;stroke-width:1;"/><path d="M690.4688,180.1406 Q689.8906,180.4375 689.25,180.5781 Q688.6094,180.7344 687.9063,180.7344 Q685.4063,180.7344 684.0781,179.0938 Q682.7656,177.4375 682.7656,174.3125 Q682.7656,171.1875 684.0781,169.5313 Q685.4063,167.875 687.9063,167.875 Q688.6094,167.875 689.25,168.0313 Q689.9063,168.1875 690.4688,168.4844 L690.4688,171.2031 Q689.8438,170.625 689.25,170.3594 Q688.6563,170.0781 688.0313,170.0781 Q686.6875,170.0781 686,171.1563 Q685.3125,172.2188 685.3125,174.3125 Q685.3125,176.4063 686,177.4844 Q686.6875,178.5469 688.0313,178.5469 Q688.6563,178.5469 689.25,178.2813 Q689.8438,178 690.4688,177.4219 L690.4688,180.1406 Z " fill="#000000"/><text fill="#000000" font-family="sans-serif" font-size="14" lengthAdjust="spacing" textLength="300.7539" x="701.5" y="179.3467">logic_arc_int__baselibs__condition_variable</text><line style="stroke:#181818;stroke-width:0.5;" x1="673.5" x2="1004.2539" y1="190.5" y2="190.5"/></g><!--class logic_arc_int__baselibs__task--><g id="elem_logic_arc_int__baselibs__task"><rect fill="#F1F1F1" height="40" id="logic_arc_int__baselibs__task" rx="2.5" ry="2.5" style="stroke:#181818;stroke-width:0.5;" width="234.0156" x="1995" y="158.5"/><ellipse cx="2010" cy="174.5" fill="#ADD1B2" rx="11" ry="11" style="stroke:#181818;stroke-width:1;"/><path d="M2012.9688,180.1406 Q2012.3906,180.4375 2011.75,180.5781 Q2011.1094,180.7344 2010.4063,180.7344 Q2007.9063,180.7344 2006.5781,179.0938 Q2005.2656,177.4375 2005.2656,174.3125 Q2005.2656,171.1875 2006.5781,169.5313 Q2007.9063,167.875 2010.4063,167.875 Q2011.1094,167.875 2011.75,168.0313 Q2012.4063,168.1875 2012.9688,168.4844 L2012.9688,171.2031 Q2012.3438,170.625 2011.75,170.3594 Q2011.1563,170.0781 2010.5313,170.0781 Q2009.1875,170.0781 2008.5,171.1563 Q2007.8125,172.2188 2007.8125,174.3125 Q2007.8125,176.4063 2008.5,177.4844 Q2009.1875,178.5469 2010.5313,178.5469 Q2011.1563,178.5469 2011.75,178.2813 Q2012.3438,178 2012.9688,177.4219 L2012.9688,180.1406 Z " fill="#000000"/><text fill="#000000" font-family="sans-serif" font-size="14" lengthAdjust="spacing" textLength="202.0156" x="2024" y="179.3467">logic_arc_int__baselibs__task</text><line style="stroke:#181818;stroke-width:0.5;" x1="1996" x2="2228.0156" y1="190.5" y2="190.5"/></g><!--class logic_arc_int__baselibs__synchronized_queue--><g id="elem_logic_arc_int__baselibs__synchronized_queue"><rect fill="#F1F1F1" height="40" id="logic_arc_int__baselibs__synchronized_queue" rx="2.5" ry="2.5" style="stroke:#181818;stroke-width:0.5;" width="348.3604" x="7" y="158.5"/><ellipse cx="22" cy="174.5" fill="#ADD1B2" rx="11" ry="11" style="stroke:#181818;stroke-width:1;"/><path d="M24.9688,180.1406 Q24.3906,180.4375 23.75,180.5781 Q23.1094,180.7344 22.4063,180.7344 Q19.9063,180.7344 18.5781,179.0938 Q17.2656,177.4375 17.2656,174.3125 Q17.2656,171.1875 18.5781,169.5313 Q19.9063,167.875 22.4063,167.875 Q23.1094,167.875 23.75,168.0313 Q24.4063,168.1875 24.9688,168.4844 L24.9688,171.2031 Q24.3438,170.625 23.75,170.3594 Q23.1563,170.0781 22.5313,170.0781 Q21.1875,170.0781 20.5,171.1563 Q19.8125,172.2188 19.8125,174.3125 Q19.8125,176.4063 20.5,177.4844 Q21.1875,178.5469 22.5313,178.5469 Q23.1563,178.5469 23.75,178.2813 Q24.3438,178 24.9688,177.4219 L24.9688,180.1406 Z " fill="#000000"/><text fill="#000000" font-family="sans-serif" font-size="14" lengthAdjust="spacing" textLength="316.3604" x="36" y="179.3467">logic_arc_int__baselibs__synchronized_queue</text><line style="stroke:#181818;stroke-width:0.5;" x1="8" x2="354.3604" y1="190.5" y2="190.5"/></g><!--class comp_arc_sta__baselibs__filesystem--><g id="elem_comp_arc_sta__baselibs__filesystem"><rect fill="#F1F1F1" height="40" id="comp_arc_sta__baselibs__filesystem" rx="2.5" ry="2.5" style="stroke:#181818;stroke-width:0.5;" width="285.4492" x="4269.5" y="275.5"/><ellipse cx="4284.5" cy="291.5" fill="#ADD1B2" rx="11" ry="11" style="stroke:#181818;stroke-width:1;"/><path d="M4287.4688,297.1406 Q4286.8906,297.4375 4286.25,297.5781 Q4285.6094,297.7344 4284.9063,297.7344 Q4282.4063,297.7344 4281.0781,296.0938 Q4279.7656,294.4375 4279.7656,291.3125 Q4279.7656,288.1875 4281.0781,286.5313 Q4282.4063,284.875 4284.9063,284.875 Q4285.6094,284.875 4286.25,285.0313 Q4286.9063,285.1875 4287.4688,285.4844 L4287.4688,288.2031 Q4286.8438,287.625 4286.25,287.3594 Q4285.6563,287.0781 4285.0313,287.0781 Q4283.6875,287.0781 4283,288.1563 Q4282.3125,289.2188 4282.3125,291.3125 Q4282.3125,293.4063 4283,294.4844 Q4283.6875,295.5469 4285.0313,295.5469 Q4285.6563,295.5469 4286.25,295.2813 Q4286.8438,295 4287.4688,294.4219 L4287.4688,297.1406 Z " fill="#000000"/><text fill="#000000" font-family="sans-serif" font-size="14" lengthAdjust="spacing" textLength="253.4492" x="4298.5" y="296.3467">comp_arc_sta__baselibs__filesystem</text><line style="stroke:#181818;stroke-width:0.5;" x1="4270.5" x2="4553.9492" y1="307.5" y2="307.5"/></g><!--class logic_arc_int__baselibs__filesystem--><g id="elem_logic_arc_int__baselibs__filesystem"><rect fill="#F1F1F1" height="40" id="logic_arc_int__baselibs__filesystem" rx="2.5" ry="2.5" style="stroke:#181818;stroke-width:0.5;" width="276.4805" x="4274" y="158.5"/><ellipse cx="4289" cy="174.5" fill="#ADD1B2" rx="11" ry="11" style="stroke:#181818;stroke-width:1;"/><path d="M4291.9688,180.1406 Q4291.3906,180.4375 4290.75,180.5781 Q4290.1094,180.7344 4289.4063,180.7344 Q4286.9063,180.7344 4285.5781,179.0938 Q4284.2656,177.4375 4284.2656,174.3125 Q4284.2656,171.1875 4285.5781,169.5313 Q4286.9063,167.875 4289.4063,167.875 Q4290.1094,167.875 4290.75,168.0313 Q4291.4063,168.1875 4291.9688,168.4844 L4291.9688,171.2031 Q4291.3438,170.625 4290.75,170.3594 Q4290.1563,170.0781 4289.5313,170.0781 Q4288.1875,170.0781 4287.5,171.1563 Q4286.8125,172.2188 4286.8125,174.3125 Q4286.8125,176.4063 4287.5,177.4844 Q4288.1875,178.5469 4289.5313,178.5469 Q4290.1563,178.5469 4290.75,178.2813 Q4291.3438,178 4291.9688,177.4219 L4291.9688,180.1406 Z " fill="#000000"/><text fill="#000000" font-family="sans-serif" font-size="14" lengthAdjust="spacing" textLength="244.4805" x="4303" y="179.3467">logic_arc_int__baselibs__filesystem</text><line style="stroke:#181818;stroke-width:0.5;" x1="4275" x2="4549.4805" y1="190.5" y2="190.5"/></g><!--class logic_arc_int__baselibs__message_passing--><g id="elem_logic_arc_int__baselibs__message_passing"><rect fill="#F1F1F1" height="40" id="logic_arc_int__baselibs__message_passing" rx="2.5" ry="2.5" style="stroke:#181818;stroke-width:0.5;" width="328.167" x="2561" y="158.5"/><ellipse cx="2576" cy="174.5" fill="#ADD1B2" rx="11" ry="11" style="stroke:#181818;stroke-width:1;"/><path d="M2578.9688,180.1406 Q2578.3906,180.4375 2577.75,180.5781 Q2577.1094,180.7344 2576.4063,180.7344 Q2573.9063,180.7344 2572.5781,179.0938 Q2571.2656,177.4375 2571.2656,174.3125 Q2571.2656,171.1875 2572.5781,169.5313 Q2573.9063,167.875 2576.4063,167.875 Q2577.1094,167.875 2577.75,168.0313 Q2578.4063,168.1875 2578.9688,168.4844 L2578.9688,171.2031 Q2578.3438,170.625 2577.75,170.3594 Q2577.1563,170.0781 2576.5313,170.0781 Q2575.1875,170.0781 2574.5,171.1563 Q2573.8125,172.2188 2573.8125,174.3125 Q2573.8125,176.4063 2574.5,177.4844 Q2575.1875,178.5469 2576.5313,178.5469 Q2577.1563,178.5469 2577.75,178.2813 Q2578.3438,178 2578.9688,177.4219 L2578.9688,180.1406 Z " fill="#000000"/><text fill="#000000" font-family="sans-serif" font-size="14" lengthAdjust="spacing" textLength="296.167" x="2590" y="179.3467">logic_arc_int__baselibs__message_passing</text><line style="stroke:#181818;stroke-width:0.5;" x1="2562" x2="2888.167" y1="190.5" y2="190.5"/></g><!--class logic_arc_int__baselibs__task_result--><g id="elem_logic_arc_int__baselibs__task_result"><rect fill="#F1F1F1" height="40" id="logic_arc_int__baselibs__task_result" rx="2.5" ry="2.5" style="stroke:#181818;stroke-width:0.5;" width="280.9307" x="1040.5" y="158.5"/><ellipse cx="1055.5" cy="174.5" fill="#ADD1B2" rx="11" ry="11" style="stroke:#181818;stroke-width:1;"/><path d="M1058.4688,180.1406 Q1057.8906,180.4375 1057.25,180.5781 Q1056.6094,180.7344 1055.9063,180.7344 Q1053.4063,180.7344 1052.0781,179.0938 Q1050.7656,177.4375 1050.7656,174.3125 Q1050.7656,171.1875 1052.0781,169.5313 Q1053.4063,167.875 1055.9063,167.875 Q1056.6094,167.875 1057.25,168.0313 Q1057.9063,168.1875 1058.4688,168.4844 L1058.4688,171.2031 Q1057.8438,170.625 1057.25,170.3594 Q1056.6563,170.0781 1056.0313,170.0781 Q1054.6875,170.0781 1054,171.1563 Q1053.3125,172.2188 1053.3125,174.3125 Q1053.3125,176.4063 1054,177.4844 Q1054.6875,178.5469 1056.0313,178.5469 Q1056.6563,178.5469 1057.25,178.2813 Q1057.8438,178 1058.4688,177.4219 L1058.4688,180.1406 Z " fill="#000000"/><text fill="#000000" font-family="sans-serif" font-size="14" lengthAdjust="spacing" textLength="248.9307" x="1069.5" y="179.3467">logic_arc_int__baselibs__task_result</text><line style="stroke:#181818;stroke-width:0.5;" x1="1041.5" x2="1320.4307" y1="190.5" y2="190.5"/></g><!--class comp_arc_sta__baselibs__containers--><g id="elem_comp_arc_sta__baselibs__containers"><rect fill="#F1F1F1" height="40" id="comp_arc_sta__baselibs__containers" rx="2.5" ry="2.5" style="stroke:#181818;stroke-width:0.5;" width="287.1445" x="3096.5" y="275.5"/><ellipse cx="3111.5" cy="291.5" fill="#ADD1B2" rx="11" ry="11" style="stroke:#181818;stroke-width:1;"/><path d="M3114.4688,297.1406 Q3113.8906,297.4375 3113.25,297.5781 Q3112.6094,297.7344 3111.9063,297.7344 Q3109.4063,297.7344 3108.0781,296.0938 Q3106.7656,294.4375 3106.7656,291.3125 Q3106.7656,288.1875 3108.0781,286.5313 Q3109.4063,284.875 3111.9063,284.875 Q3112.6094,284.875 3113.25,285.0313 Q3113.9063,285.1875 3114.4688,285.4844 L3114.4688,288.2031 Q3113.8438,287.625 3113.25,287.3594 Q3112.6563,287.0781 3112.0313,287.0781 Q3110.6875,287.0781 3110,288.1563 Q3109.3125,289.2188 3109.3125,291.3125 Q3109.3125,293.4063 3110,294.4844 Q3110.6875,295.5469 3112.0313,295.5469 Q3112.6563,295.5469 3113.25,295.2813 Q3113.8438,295 3114.4688,294.4219 L3114.4688,297.1406 Z " fill="#000000"/><text fill="#000000" font-family="sans-serif" font-size="14" lengthAdjust="spacing" textLength="255.1445" x="3125.5" y="296.3467">comp_arc_sta__baselibs__containers</text><line style="stroke:#181818;stroke-width:0.5;" x1="3097.5" x2="3382.6445" y1="307.5" y2="307.5"/></g><!--class logic_arc_int__baselibs__dynamic_array--><g id="elem_logic_arc_int__baselibs__dynamic_array"><rect fill="#F1F1F1" height="40" id="logic_arc_int__baselibs__dynamic_array" rx="2.5" ry="2.5" style="stroke:#181818;stroke-width:0.5;" width="308.3496" x="3253" y="158.5"/><ellipse cx="3268" cy="174.5" fill="#ADD1B2" rx="11" ry="11" style="stroke:#181818;stroke-width:1;"/><path d="M3270.9688,180.1406 Q3270.3906,180.4375 3269.75,180.5781 Q3269.1094,180.7344 3268.4063,180.7344 Q3265.9063,180.7344 3264.5781,179.0938 Q3263.2656,177.4375 3263.2656,174.3125 Q3263.2656,171.1875 3264.5781,169.5313 Q3265.9063,167.875 3268.4063,167.875 Q3269.1094,167.875 3269.75,168.0313 Q3270.4063,168.1875 3270.9688,168.4844 L3270.9688,171.2031 Q3270.3438,170.625 3269.75,170.3594 Q3269.1563,170.0781 3268.5313,170.0781 Q3267.1875,170.0781 3266.5,171.1563 Q3265.8125,172.2188 3265.8125,174.3125 Q3265.8125,176.4063 3266.5,177.4844 Q3267.1875,178.5469 3268.5313,178.5469 Q3269.1563,178.5469 3269.75,178.2813 Q3270.3438,178 3270.9688,177.4219 L3270.9688,180.1406 Z " fill="#000000"/><text fill="#000000" font-family="sans-serif" font-size="14" lengthAdjust="spacing" textLength="276.3496" x="3282" y="179.3467">logic_arc_int__baselibs__dynamic_array</text><line style="stroke:#181818;stroke-width:0.5;" x1="3254" x2="3560.3496" y1="190.5" y2="190.5"/></g><!--class logic_arc_int__baselibs__intrusive_list--><g id="elem_logic_arc_int__baselibs__intrusive_list"><rect fill="#F1F1F1" height="40" id="logic_arc_int__baselibs__intrusive_list" rx="2.5" ry="2.5" style="stroke:#181818;stroke-width:0.5;" width="293.0713" x="2924.5" y="158.5"/><ellipse cx="2939.5" cy="174.5" fill="#ADD1B2" rx="11" ry="11" style="stroke:#181818;stroke-width:1;"/><path d="M2942.4688,180.1406 Q2941.8906,180.4375 2941.25,180.5781 Q2940.6094,180.7344 2939.9063,180.7344 Q2937.4063,180.7344 2936.0781,179.0938 Q2934.7656,177.4375 2934.7656,174.3125 Q2934.7656,171.1875 2936.0781,169.5313 Q2937.4063,167.875 2939.9063,167.875 Q2940.6094,167.875 2941.25,168.0313 Q2941.9063,168.1875 2942.4688,168.4844 L2942.4688,171.2031 Q2941.8438,170.625 2941.25,170.3594 Q2940.6563,170.0781 2940.0313,170.0781 Q2938.6875,170.0781 2938,171.1563 Q2937.3125,172.2188 2937.3125,174.3125 Q2937.3125,176.4063 2938,177.4844 Q2938.6875,178.5469 2940.0313,178.5469 Q2940.6563,178.5469 2941.25,178.2813 Q2941.8438,178 2942.4688,177.4219 L2942.4688,180.1406 Z " fill="#000000"/><text fill="#000000" font-family="sans-serif" font-size="14" lengthAdjust="spacing" textLength="261.0713" x="2953.5" y="179.3467">logic_arc_int__baselibs__intrusive_list</text><line style="stroke:#181818;stroke-width:0.5;" x1="2925.5" x2="3216.5713" y1="190.5" y2="190.5"/></g><!--class logic_arc_int__baselibs__shared_future--><g id="elem_logic_arc_int__baselibs__shared_future"><rect fill="#F1F1F1" height="40" id="logic_arc_int__baselibs__shared_future" rx="2.5" ry="2.5" style="stroke:#181818;stroke-width:0.5;" width="302.0811" x="1357" y="158.5"/><ellipse cx="1372" cy="174.5" fill="#ADD1B2" rx="11" ry="11" style="stroke:#181818;stroke-width:1;"/><path d="M1374.9688,180.1406 Q1374.3906,180.4375 1373.75,180.5781 Q1373.1094,180.7344 1372.4063,180.7344 Q1369.9063,180.7344 1368.5781,179.0938 Q1367.2656,177.4375 1367.2656,174.3125 Q1367.2656,171.1875 1368.5781,169.5313 Q1369.9063,167.875 1372.4063,167.875 Q1373.1094,167.875 1373.75,168.0313 Q1374.4063,168.1875 1374.9688,168.4844 L1374.9688,171.2031 Q1374.3438,170.625 1373.75,170.3594 Q1373.1563,170.0781 1372.5313,170.0781 Q1371.1875,170.0781 1370.5,171.1563 Q1369.8125,172.2188 1369.8125,174.3125 Q1369.8125,176.4063 1370.5,177.4844 Q1371.1875,178.5469 1372.5313,178.5469 Q1373.1563,178.5469 1373.75,178.2813 Q1374.3438,178 1374.9688,177.4219 L1374.9688,180.1406 Z " fill="#000000"/><text fill="#000000" font-family="sans-serif" font-size="14" lengthAdjust="spacing" textLength="270.0811" x="1386" y="179.3467">logic_arc_int__baselibs__shared_future</text><line style="stroke:#181818;stroke-width:0.5;" x1="1358" x2="1658.0811" y1="190.5" y2="190.5"/></g><!--class comp_arc_sta__baselibs__message_passing--><g id="elem_comp_arc_sta__baselibs__message_passing"><rect fill="#F1F1F1" height="40" id="comp_arc_sta__baselibs__message_passing" rx="2.5" ry="2.5" style="stroke:#181818;stroke-width:0.5;" width="337.1357" x="2556.5" y="275.5"/><ellipse cx="2571.5" cy="291.5" fill="#ADD1B2" rx="11" ry="11" style="stroke:#181818;stroke-width:1;"/><path d="M2574.4688,297.1406 Q2573.8906,297.4375 2573.25,297.5781 Q2572.6094,297.7344 2571.9063,297.7344 Q2569.4063,297.7344 2568.0781,296.0938 Q2566.7656,294.4375 2566.7656,291.3125 Q2566.7656,288.1875 2568.0781,286.5313 Q2569.4063,284.875 2571.9063,284.875 Q2572.6094,284.875 2573.25,285.0313 Q2573.9063,285.1875 2574.4688,285.4844 L2574.4688,288.2031 Q2573.8438,287.625 2573.25,287.3594 Q2572.6563,287.0781 2572.0313,287.0781 Q2570.6875,287.0781 2570,288.1563 Q2569.3125,289.2188 2569.3125,291.3125 Q2569.3125,293.4063 2570,294.4844 Q2570.6875,295.5469 2572.0313,295.5469 Q2572.6563,295.5469 2573.25,295.2813 Q2573.8438,295 2574.4688,294.4219 L2574.4688,297.1406 Z " fill="#000000"/><text fill="#000000" font-family="sans-serif" font-size="14" lengthAdjust="spacing" textLength="305.1357" x="2585.5" y="296.3467">comp_arc_sta__baselibs__message_passing</text><line style="stroke:#181818;stroke-width:0.5;" x1="2557.5" x2="2892.6357" y1="307.5" y2="307.5"/></g><!--class logic_arc_int__baselibs__executor--><g id="elem_logic_arc_int__baselibs__executor"><rect fill="#F1F1F1" height="40" id="logic_arc_int__baselibs__executor" rx="2.5" ry="2.5" style="stroke:#181818;stroke-width:0.5;" width="266.4385" x="1694" y="158.5"/><ellipse cx="1709" cy="174.5" fill="#ADD1B2" rx="11" ry="11" style="stroke:#181818;stroke-width:1;"/><path d="M1711.9688,180.1406 Q1711.3906,180.4375 1710.75,180.5781 Q1710.1094,180.7344 1709.4063,180.7344 Q1706.9063,180.7344 1705.5781,179.0938 Q1704.2656,177.4375 1704.2656,174.3125 Q1704.2656,171.1875 1705.5781,169.5313 Q1706.9063,167.875 1709.4063,167.875 Q1710.1094,167.875 1710.75,168.0313 Q1711.4063,168.1875 1711.9688,168.4844 L1711.9688,171.2031 Q1711.3438,170.625 1710.75,170.3594 Q1710.1563,170.0781 1709.5313,170.0781 Q1708.1875,170.0781 1707.5,171.1563 Q1706.8125,172.2188 1706.8125,174.3125 Q1706.8125,176.4063 1707.5,177.4844 Q1708.1875,178.5469 1709.5313,178.5469 Q1710.1563,178.5469 1710.75,178.2813 Q1711.3438,178 1711.9688,177.4219 L1711.9688,180.1406 Z " fill="#000000"/><text fill="#000000" font-family="sans-serif" font-size="14" lengthAdjust="spacing" textLength="234.4385" x="1723" y="179.3467">logic_arc_int__baselibs__executor</text><line style="stroke:#181818;stroke-width:0.5;" x1="1695" x2="1959.4385" y1="190.5" y2="190.5"/></g><!--class logic_arc_int__baselibs__utils_base64--><g id="elem_logic_arc_int__baselibs__utils_base64"><rect fill="#F1F1F1" height="40" id="logic_arc_int__baselibs__utils_base64" rx="2.5" ry="2.5" style="stroke:#181818;stroke-width:0.5;" width="292.1689" x="3947" y="158.5"/><ellipse cx="3962" cy="174.5" fill="#ADD1B2" rx="11" ry="11" style="stroke:#181818;stroke-width:1;"/><path d="M3964.9688,180.1406 Q3964.3906,180.4375 3963.75,180.5781 Q3963.1094,180.7344 3962.4063,180.7344 Q3959.9063,180.7344 3958.5781,179.0938 Q3957.2656,177.4375 3957.2656,174.3125 Q3957.2656,171.1875 3958.5781,169.5313 Q3959.9063,167.875 3962.4063,167.875 Q3963.1094,167.875 3963.75,168.0313 Q3964.4063,168.1875 3964.9688,168.4844 L3964.9688,171.2031 Q3964.3438,170.625 3963.75,170.3594 Q3963.1563,170.0781 3962.5313,170.0781 Q3961.1875,170.0781 3960.5,171.1563 Q3959.8125,172.2188 3959.8125,174.3125 Q3959.8125,176.4063 3960.5,177.4844 Q3961.1875,178.5469 3962.5313,178.5469 Q3963.1563,178.5469 3963.75,178.2813 Q3964.3438,178 3964.9688,177.4219 L3964.9688,180.1406 Z " fill="#000000"/><text fill="#000000" font-family="sans-serif" font-size="14" lengthAdjust="spacing" textLength="260.1689" x="3976" y="179.3467">logic_arc_int__baselibs__utils_base64</text><line style="stroke:#181818;stroke-width:0.5;" x1="3948" x2="4238.1689" y1="190.5" y2="190.5"/></g><!--class logic_arc_int__baselibs__future--><g id="elem_logic_arc_int__baselibs__future"><rect fill="#F1F1F1" height="40" id="logic_arc_int__baselibs__future" rx="2.5" ry="2.5" style="stroke:#181818;stroke-width:0.5;" width="247.0791" x="390.5" y="158.5"/><ellipse cx="405.5" cy="174.5" fill="#ADD1B2" rx="11" ry="11" style="stroke:#181818;stroke-width:1;"/><path d="M408.4688,180.1406 Q407.8906,180.4375 407.25,180.5781 Q406.6094,180.7344 405.9063,180.7344 Q403.4063,180.7344 402.0781,179.0938 Q400.7656,177.4375 400.7656,174.3125 Q400.7656,171.1875 402.0781,169.5313 Q403.4063,167.875 405.9063,167.875 Q406.6094,167.875 407.25,168.0313 Q407.9063,168.1875 408.4688,168.4844 L408.4688,171.2031 Q407.8438,170.625 407.25,170.3594 Q406.6563,170.0781 406.0313,170.0781 Q404.6875,170.0781 404,171.1563 Q403.3125,172.2188 403.3125,174.3125 Q403.3125,176.4063 404,177.4844 Q404.6875,178.5469 406.0313,178.5469 Q406.6563,178.5469 407.25,178.2813 Q407.8438,178 408.4688,177.4219 L408.4688,180.1406 Z " fill="#000000"/><text fill="#000000" font-family="sans-serif" font-size="14" lengthAdjust="spacing" textLength="215.0791" x="419.5" y="179.3467">logic_arc_int__baselibs__future</text><line style="stroke:#181818;stroke-width:0.5;" x1="391.5" x2="636.5791" y1="190.5" y2="190.5"/></g><!--link Feature_User to logic_arc_int__baselibs__result--><g id="link_Feature_User_logic_arc_int__baselibs__result"><path codeLine="15" d="M3116.18,46.21 C3297.78,53.16 3992.12,80.36 4563,111.5 C4888.52,129.26 4970.61,126.11 5295,158.5 C5300.86,159.08 5300.8877,159.0587 5306.9277,159.7387 " fill="transparent" id="Feature_User-to-logic_arc_int__baselibs__result" style="stroke:#181818;stroke-width:1;"/><polygon fill="#181818" points="5312.89,160.41,5304.394,155.4282,5307.9214,159.8506,5303.499,163.378,5312.89,160.41" style="stroke:#181818;stroke-width:1;"/><text fill="#000000" font-family="sans-serif" font-size="13" lengthAdjust="spacing" textLength="23.0103" x="4906" y="124.5669">use</text></g><!--reverse link logic_arc_int__baselibs__utils_scoped_op to comp_arc_sta__baselibs__utils--><g id="link_logic_arc_int__baselibs__utils_scoped_op_comp_arc_sta__baselibs__utils"><path codeLine="16" d="M3787.2506,202.1252 C3818.5406,223.4152 3863.69,254.14 3894.9,275.38 " fill="transparent" id="logic_arc_int__baselibs__utils_scoped_op-backto-comp_arc_sta__baselibs__utils" style="stroke:#181818;stroke-width:1;"/><polygon fill="#181818" points="3782.29,198.75,3787.4808,207.1199,3786.4238,201.5627,3791.9811,200.5058,3782.29,198.75" style="stroke:#181818;stroke-width:1;"/><text fill="#000000" font-family="sans-serif" font-size="13" lengthAdjust="spacing" textLength="76.9082" x="3850" y="241.5669">implements</text></g><!--link Feature_User to logic_arc_int__baselibs__promise--><g id="link_Feature_User_logic_arc_int__baselibs__promise"><path codeLine="17" d="M3025.86,53.38 C2917.35,74.73 2645.8171,128.1516 2497.6271,157.3116 " fill="transparent" id="Feature_User-to-logic_arc_int__baselibs__promise" style="stroke:#181818;stroke-width:1;"/><polygon fill="#181818" points="2491.74,158.47,2501.3429,160.6571,2496.6459,157.5046,2499.7984,152.8076,2491.74,158.47" style="stroke:#181818;stroke-width:1;"/><text fill="#000000" font-family="sans-serif" font-size="13" lengthAdjust="spacing" textLength="23.0103" x="2714" y="124.5669">use</text></g><!--link Feature_User to logic_arc_int__baselibs__bit_manipulation--><g id="link_Feature_User_logic_arc_int__baselibs__bit_manipulation"><path codeLine="18" d="M3116.2,46.42 C3324.43,55.45 4212.07,95.87 4938,158.5 C4943.76,159 4943.6457,158.965 4949.5657,159.515 " fill="transparent" id="Feature_User-to-logic_arc_int__baselibs__bit_manipulation" style="stroke:#181818;stroke-width:1;"/><polygon fill="#181818" points="4955.54,160.07,4946.9486,155.2546,4950.5614,159.6075,4946.2086,163.2203,4955.54,160.07" style="stroke:#181818;stroke-width:1;"/><text fill="#000000" font-family="sans-serif" font-size="13" lengthAdjust="spacing" textLength="23.0103" x="4531" y="124.5669">use</text></g><!--reverse link logic_arc_int__baselibs__memory_shared to comp_arc_sta__baselibs__memory_shared--><g id="link_logic_arc_int__baselibs__memory_shared_comp_arc_sta__baselibs__memory_shared"><path codeLine="19" d="M6025.879,204.7464 C6026.619,225.9764 6027.59,253.94 6028.33,275.19 " fill="transparent" id="logic_arc_int__baselibs__memory_shared-backto-comp_arc_sta__baselibs__memory_shared" style="stroke:#181818;stroke-width:1;"/><polygon fill="#181818" points="6025.67,198.75,6021.9859,207.8839,6025.8442,203.747,6029.9811,207.6052,6025.67,198.75" style="stroke:#181818;stroke-width:1;"/><text fill="#000000" font-family="sans-serif" font-size="13" lengthAdjust="spacing" textLength="76.9082" x="6029" y="241.5669">implements</text></g><!--reverse link logic_arc_int__baselibs__json to comp_arc_sta__baselibs__json--><g id="link_logic_arc_int__baselibs__json_comp_arc_sta__baselibs__json"><path codeLine="20" d="M5709,204.75 C5709,225.98 5709,253.94 5709,275.19 " fill="transparent" id="logic_arc_int__baselibs__json-backto-comp_arc_sta__baselibs__json" style="stroke:#181818;stroke-width:1;"/><polygon fill="#181818" points="5709,198.75,5705,207.75,5709,203.75,5713,207.75,5709,198.75" style="stroke:#181818;stroke-width:1;"/><text fill="#000000" font-family="sans-serif" font-size="13" lengthAdjust="spacing" textLength="76.9082" x="5710" y="241.5669">implements</text></g><!--reverse link logic_arc_int__baselibs__bit_manipulation to comp_arc_sta__baselibs__bit_manipulation--><g id="link_logic_arc_int__baselibs__bit_manipulation_comp_arc_sta__baselibs__bit_manipulation"><path codeLine="21" d="M5081.6357,201.9675 C5048.1257,223.2575 4999.52,254.14 4966.09,275.38 " fill="transparent" id="logic_arc_int__baselibs__bit_manipulation-backto-comp_arc_sta__baselibs__bit_manipulation" style="stroke:#181818;stroke-width:1;"/><polygon fill="#181818" points="5086.7,198.75,5076.9585,200.2001,5082.4797,201.4313,5081.2485,206.9525,5086.7,198.75" style="stroke:#181818;stroke-width:1;"/><text fill="#000000" font-family="sans-serif" font-size="13" lengthAdjust="spacing" textLength="76.9082" x="5039" y="241.5669">implements</text></g><!--link Feature_User to logic_arc_int__baselibs__utils_scoped_op--><g id="link_Feature_User_logic_arc_int__baselibs__utils_scoped_op"><path codeLine="22" d="M3116.08,53.28 C3225.36,74.56 3500.5306,128.1431 3650.4706,157.3431 " fill="transparent" id="Feature_User-to-logic_arc_int__baselibs__utils_scoped_op" style="stroke:#181818;stroke-width:1;"/><polygon fill="#181818" points="3656.36,158.49,3648.2906,152.8434,3651.4522,157.5342,3646.7613,160.6959,3656.36,158.49" style="stroke:#181818;stroke-width:1;"/><text fill="#000000" font-family="sans-serif" font-size="13" lengthAdjust="spacing" textLength="23.0103" x="3495" y="124.5669">use</text></g><!--link Feature_User to logic_arc_int__baselibs__bit_mask_operator--><g id="link_Feature_User_logic_arc_int__baselibs__bit_mask_operator"><path codeLine="23" d="M3116.02,47.4 C3297.73,59.23 3994.76,105.69 4567,158.5 C4572.98,159.05 4573.0975,159.0461 4579.2375,159.6361 " fill="transparent" id="Feature_User-to-logic_arc_int__baselibs__bit_mask_operator" style="stroke:#181818;stroke-width:1;"/><polygon fill="#181818" points="4585.21,160.21,4576.6339,155.3675,4580.2329,159.7317,4575.8687,163.3308,4585.21,160.21" style="stroke:#181818;stroke-width:1;"/><text fill="#000000" font-family="sans-serif" font-size="13" lengthAdjust="spacing" textLength="23.0103" x="4199" y="124.5669">use</text></g><!--reverse link logic_arc_int__baselibs__result to comp_arc_sta__baselibs__result--><g id="link_logic_arc_int__baselibs__result_comp_arc_sta__baselibs__result"><path codeLine="24" d="M5433.0223,204.7317 C5431.3623,225.9617 5429.17,253.94 5427.51,275.19 " fill="transparent" id="logic_arc_int__baselibs__result-backto-comp_arc_sta__baselibs__result" style="stroke:#181818;stroke-width:1;"/><polygon fill="#181818" points="5433.49,198.75,5428.8006,207.4108,5433.1002,203.7348,5436.7762,208.0344,5433.49,198.75" style="stroke:#181818;stroke-width:1;"/><text fill="#000000" font-family="sans-serif" font-size="13" lengthAdjust="spacing" textLength="76.9082" x="5433" y="241.5669">implements</text></g><!--reverse link logic_arc_int__baselibs__condition_variable to comp_arc_sta__baselibs__concurrency--><g id="link_logic_arc_int__baselibs__condition_variable_comp_arc_sta__baselibs__concurrency"><path codeLine="25" d="M941.4865,199.7113 C1049.4065,221.0013 1217.22,254.11 1325.21,275.41 " fill="transparent" id="logic_arc_int__baselibs__condition_variable-backto-comp_arc_sta__baselibs__concurrency" style="stroke:#181818;stroke-width:1;"/><polygon fill="#181818" points="935.6,198.55,943.6556,204.2163,940.5055,199.5177,945.204,196.3675,935.6,198.55" style="stroke:#181818;stroke-width:1;"/><text fill="#000000" font-family="sans-serif" font-size="13" lengthAdjust="spacing" textLength="76.9082" x="1167" y="241.5669">implements</text></g><!--link Feature_User to logic_arc_int__baselibs__task--><g id="link_Feature_User_logic_arc_int__baselibs__task"><path codeLine="26" d="M3025.89,50.7 C2901.67,67.79 2544.15,117.03 2247,158.5 C2241.14,159.32 2241.082,159.3279 2235.012,160.1779 " fill="transparent" id="Feature_User-to-logic_arc_int__baselibs__task" style="stroke:#181818;stroke-width:1;"/><polygon fill="#181818" points="2229.07,161.01,2238.5378,163.7232,2234.0217,160.3166,2237.4283,155.8005,2229.07,161.01" style="stroke:#181818;stroke-width:1;"/><text fill="#000000" font-family="sans-serif" font-size="13" lengthAdjust="spacing" textLength="23.0103" x="2566" y="124.5669">use</text></g><!--link Feature_User to logic_arc_int__baselibs__synchronized_queue--><g id="link_Feature_User_logic_arc_int__baselibs__synchronized_queue"><path codeLine="27" d="M3025.64,45.28 C2804.53,49.24 1817.5,68.6 1010,111.5 C726.52,126.56 655.83,134.08 373,158.5 C367.16,159 367.1958,158.9922 361.1958,159.5322 " fill="transparent" id="Feature_User-to-logic_arc_int__baselibs__synchronized_queue" style="stroke:#181818;stroke-width:1;"/><polygon fill="#181818" points="355.22,160.07,364.5423,163.2472,360.1999,159.6218,363.8252,155.2794,355.22,160.07" style="stroke:#181818;stroke-width:1;"/><text fill="#000000" font-family="sans-serif" font-size="13" lengthAdjust="spacing" textLength="23.0103" x="1011" y="124.5669">use</text></g><!--reverse link logic_arc_int__baselibs__bit_mask_operator to comp_arc_sta__baselibs__bit_manipulation--><g id="link_logic_arc_int__baselibs__bit_mask_operator_comp_arc_sta__baselibs__bit_manipulation"><path codeLine="28" d="M4788.7102,201.9424 C4822.5902,223.2324 4871.78,254.14 4905.58,275.38 " fill="transparent" id="logic_arc_int__baselibs__bit_mask_operator-backto-comp_arc_sta__baselibs__bit_manipulation" style="stroke:#181818;stroke-width:1;"/><polygon fill="#181818" points="4783.63,198.75,4789.1221,206.9254,4787.8635,201.4103,4793.3786,200.1518,4783.63,198.75" style="stroke:#181818;stroke-width:1;"/><text fill="#000000" font-family="sans-serif" font-size="13" lengthAdjust="spacing" textLength="76.9082" x="4857" y="241.5669">implements</text></g><!--reverse link logic_arc_int__baselibs__synchronized_queue to comp_arc_sta__baselibs__concurrency--><g id="link_logic_arc_int__baselibs__synchronized_queue_comp_arc_sta__baselibs__concurrency"><path codeLine="29" d="M351.6621,199.1931 C475.2221,213.1431 642.61,231.36 795,245.5 C957.81,260.61 1144.69,274.81 1271.77,283.99 " fill="transparent" id="logic_arc_int__baselibs__synchronized_queue-backto-comp_arc_sta__baselibs__concurrency" style="stroke:#181818;stroke-width:1;"/><polygon fill="#181818" points="345.7,198.52,354.1944,203.5044,350.6684,199.0809,355.0919,195.5549,345.7,198.52" style="stroke:#181818;stroke-width:1;"/><text fill="#000000" font-family="sans-serif" font-size="13" lengthAdjust="spacing" textLength="76.9082" x="796" y="241.5669">implements</text></g><!--reverse link logic_arc_int__baselibs__filesystem to comp_arc_sta__baselibs__filesystem--><g id="link_logic_arc_int__baselibs__filesystem_comp_arc_sta__baselibs__filesystem"><path codeLine="30" d="M4412,204.75 C4412,225.98 4412,253.94 4412,275.19 " fill="transparent" id="logic_arc_int__baselibs__filesystem-backto-comp_arc_sta__baselibs__filesystem" style="stroke:#181818;stroke-width:1;"/><polygon fill="#181818" points="4412,198.75,4408,207.75,4412,203.75,4416,207.75,4412,198.75" style="stroke:#181818;stroke-width:1;"/><text fill="#000000" font-family="sans-serif" font-size="13" lengthAdjust="spacing" textLength="76.9082" x="4413" y="241.5669">implements</text></g><!--link Feature_User to logic_arc_int__baselibs__message_passing--><g id="link_Feature_User_logic_arc_int__baselibs__message_passing"><path codeLine="31" d="M3025.77,61.89 C2960.83,86.85 2847.2304,130.517 2780.0404,156.347 " fill="transparent" id="Feature_User-to-logic_arc_int__baselibs__message_passing" style="stroke:#181818;stroke-width:1;"/><polygon fill="#181818" points="2774.44,158.5,2784.2759,159.0041,2779.107,156.7058,2781.4053,151.5369,2774.44,158.5" style="stroke:#181818;stroke-width:1;"/><text fill="#000000" font-family="sans-serif" font-size="13" lengthAdjust="spacing" textLength="23.0103" x="2889" y="124.5669">use</text></g><!--reverse link logic_arc_int__baselibs__task to comp_arc_sta__baselibs__concurrency--><g id="link_logic_arc_int__baselibs__task_comp_arc_sta__baselibs__concurrency"><path codeLine="32" d="M2000.5532,199.5533 C1925.0132,213.0233 1826.77,230.28 1735,245.5 C1673.14,255.76 1604.31,266.59 1546.98,275.46 " fill="transparent" id="logic_arc_int__baselibs__task-backto-comp_arc_sta__baselibs__concurrency" style="stroke:#181818;stroke-width:1;"/><polygon fill="#181818" points="2006.46,198.5,1996.8976,196.142,2001.5376,199.3777,1998.3019,204.0178,2006.46,198.5" style="stroke:#181818;stroke-width:1;"/><text fill="#000000" font-family="sans-serif" font-size="13" lengthAdjust="spacing" textLength="76.9082" x="1830" y="241.5669">implements</text></g><!--link Feature_User to logic_arc_int__baselibs__task_result--><g id="link_Feature_User_logic_arc_int__baselibs__task_result"><path codeLine="33" d="M3025.76,46.47 C2826.62,55.35 2008.28,94.06 1339,158.5 C1333.36,159.04 1333.5782,159.0026 1327.7782,159.6026 " fill="transparent" id="Feature_User-to-logic_arc_int__baselibs__task_result" style="stroke:#181818;stroke-width:1;"/><polygon fill="#181818" points="1321.81,160.22,1331.1738,163.2727,1326.7835,159.7055,1330.3506,155.3151,1321.81,160.22" style="stroke:#181818;stroke-width:1;"/><text fill="#000000" font-family="sans-serif" font-size="13" lengthAdjust="spacing" textLength="23.0103" x="1863" y="124.5669">use</text></g><!--reverse link logic_arc_int__baselibs__dynamic_array to comp_arc_sta__baselibs__containers--><g id="link_logic_arc_int__baselibs__dynamic_array_comp_arc_sta__baselibs__containers"><path codeLine="34" d="M3374.1082,202.1527 C3343.1882,223.4427 3298.61,254.14 3267.76,275.38 " fill="transparent" id="logic_arc_int__baselibs__dynamic_array-backto-comp_arc_sta__baselibs__containers" style="stroke:#181818;stroke-width:1;"/><polygon fill="#181818" points="3379.05,198.75,3369.3688,200.5595,3374.9318,201.5856,3373.9057,207.1486,3379.05,198.75" style="stroke:#181818;stroke-width:1;"/><text fill="#000000" font-family="sans-serif" font-size="13" lengthAdjust="spacing" textLength="76.9082" x="3335" y="241.5669">implements</text></g><!--link Feature_User to logic_arc_int__baselibs__intrusive_list--><g id="link_Feature_User_logic_arc_int__baselibs__intrusive_list"><path codeLine="35" d="M3071,81.55 C3071,106.45 3071,132.26 3071,152.26 " fill="transparent" id="Feature_User-to-logic_arc_int__baselibs__intrusive_list" style="stroke:#181818;stroke-width:1;"/><polygon fill="#181818" points="3071,158.26,3075,149.26,3071,153.26,3067,149.26,3071,158.26" style="stroke:#181818;stroke-width:1;"/><text fill="#000000" font-family="sans-serif" font-size="13" lengthAdjust="spacing" textLength="23.0103" x="3072" y="124.5669">use</text></g><!--reverse link logic_arc_int__baselibs__intrusive_list to comp_arc_sta__baselibs__containers--><g id="link_logic_arc_int__baselibs__intrusive_list_comp_arc_sta__baselibs__containers"><path codeLine="36" d="M3104.2506,202.1252 C3135.5406,223.4152 3180.69,254.14 3211.9,275.38 " fill="transparent" id="logic_arc_int__baselibs__intrusive_list-backto-comp_arc_sta__baselibs__containers" style="stroke:#181818;stroke-width:1;"/><polygon fill="#181818" points="3099.29,198.75,3104.4808,207.1199,3103.4238,201.5627,3108.9811,200.5058,3099.29,198.75" style="stroke:#181818;stroke-width:1;"/><text fill="#000000" font-family="sans-serif" font-size="13" lengthAdjust="spacing" textLength="76.9082" x="3167" y="241.5669">implements</text></g><!--link Feature_User to logic_arc_int__baselibs__memory_shared--><g id="link_Feature_User_logic_arc_int__baselibs__memory_shared"><path codeLine="37" d="M3116.3,45.02 C3345.91,47.83 4404.21,62.95 5269,111.5 C5475.52,123.1 5707.1004,144.687 5859.9504,160.127 " fill="transparent" id="Feature_User-to-logic_arc_int__baselibs__memory_shared" style="stroke:#181818;stroke-width:1;"/><polygon fill="#181818" points="5865.92,160.73,5857.3676,155.8457,5860.9453,160.2275,5856.5636,163.8052,5865.92,160.73" style="stroke:#181818;stroke-width:1;"/><text fill="#000000" font-family="sans-serif" font-size="13" lengthAdjust="spacing" textLength="23.0103" x="5499" y="124.5669">use</text></g><!--reverse link logic_arc_int__baselibs__task_result to comp_arc_sta__baselibs__concurrency--><g id="link_logic_arc_int__baselibs__task_result_comp_arc_sta__baselibs__concurrency"><path codeLine="38" d="M1226.485,201.2042 C1271.055,222.4742 1337.23,254.05 1381.84,275.34 " fill="transparent" id="logic_arc_int__baselibs__task_result-backto-comp_arc_sta__baselibs__concurrency" style="stroke:#181818;stroke-width:1;"/><polygon fill="#181818" points="1221.07,198.62,1227.4697,206.1063,1225.5825,200.7735,1230.9153,198.8863,1221.07,198.62" style="stroke:#181818;stroke-width:1;"/><text fill="#000000" font-family="sans-serif" font-size="13" lengthAdjust="spacing" textLength="76.9082" x="1317" y="241.5669">implements</text></g><!--link Feature_User to logic_arc_int__baselibs__shared_future--><g id="link_Feature_User_logic_arc_int__baselibs__shared_future"><path codeLine="39" d="M3025.78,47.59 C2851.43,59.63 2206.11,105.38 1676,158.5 C1670.45,159.06 1670.7671,159.003 1665.0571,159.603 " fill="transparent" id="Feature_User-to-logic_arc_int__baselibs__shared_future" style="stroke:#181818;stroke-width:1;"/><polygon fill="#181818" points="1659.09,160.23,1668.4587,163.2676,1664.0626,159.7075,1667.6227,155.3114,1659.09,160.23" style="stroke:#181818;stroke-width:1;"/><text fill="#000000" font-family="sans-serif" font-size="13" lengthAdjust="spacing" textLength="23.0103" x="2176" y="124.5669">use</text></g><!--link Feature_User to logic_arc_int__baselibs__condition_variable--><g id="link_Feature_User_logic_arc_int__baselibs__condition_variable"><path codeLine="40" d="M3025.88,45.96 C2805.95,53.32 1824.32,88.7 1023,158.5 C1017.4,158.99 1017.6856,158.9596 1011.9356,159.4796 " fill="transparent" id="Feature_User-to-logic_arc_int__baselibs__condition_variable" style="stroke:#181818;stroke-width:1;"/><polygon fill="#181818" points="1005.96,160.02,1015.2837,163.1931,1010.9397,159.5697,1014.5632,155.2257,1005.96,160.02" style="stroke:#181818;stroke-width:1;"/><text fill="#000000" font-family="sans-serif" font-size="13" lengthAdjust="spacing" textLength="23.0103" x="1643" y="124.5669">use</text></g><!--reverse link logic_arc_int__baselibs__message_passing to comp_arc_sta__baselibs__message_passing--><g id="link_logic_arc_int__baselibs__message_passing_comp_arc_sta__baselibs__message_passing"><path codeLine="41" d="M2725,204.75 C2725,225.98 2725,253.94 2725,275.19 " fill="transparent" id="logic_arc_int__baselibs__message_passing-backto-comp_arc_sta__baselibs__message_passing" style="stroke:#181818;stroke-width:1;"/><polygon fill="#181818" points="2725,198.75,2721,207.75,2725,203.75,2729,207.75,2725,198.75" style="stroke:#181818;stroke-width:1;"/><text fill="#000000" font-family="sans-serif" font-size="13" lengthAdjust="spacing" textLength="76.9082" x="2726" y="241.5669">implements</text></g><!--link Feature_User to logic_arc_int__baselibs__executor--><g id="link_Feature_User_logic_arc_int__baselibs__executor"><path codeLine="42" d="M3025.89,48.84 C2876.41,63.29 2383.67,111.56 1977,158.5 C1971.52,159.13 1971.8983,159.0834 1966.2483,159.7534 " fill="transparent" id="Feature_User-to-logic_arc_int__baselibs__executor" style="stroke:#181818;stroke-width:1;"/><polygon fill="#181818" points="1960.29,160.46,1969.6984,163.3723,1965.2552,159.8712,1968.7563,155.428,1960.29,160.46" style="stroke:#181818;stroke-width:1;"/><text fill="#000000" font-family="sans-serif" font-size="13" lengthAdjust="spacing" textLength="23.0103" x="2399" y="124.5669">use</text></g><!--reverse link logic_arc_int__baselibs__promise to comp_arc_sta__baselibs__concurrency--><g id="link_logic_arc_int__baselibs__promise_comp_arc_sta__baselibs__concurrency"><path codeLine="43" d="M2260.3717,199.3885 C2163.8117,213.3485 2034.24,231.38 1915,245.5 C1800.12,259.1 1669.86,271.94 1572.11,281.06 " fill="transparent" id="logic_arc_int__baselibs__promise-backto-comp_arc_sta__baselibs__concurrency" style="stroke:#181818;stroke-width:1;"/><polygon fill="#181818" points="2266.31,198.53,2256.8303,195.8589,2261.3614,199.2454,2257.975,203.7766,2266.31,198.53" style="stroke:#181818;stroke-width:1;"/><text fill="#000000" font-family="sans-serif" font-size="13" lengthAdjust="spacing" textLength="76.9082" x="2049" y="241.5669">implements</text></g><!--reverse link logic_arc_int__baselibs__executor to comp_arc_sta__baselibs__concurrency--><g id="link_logic_arc_int__baselibs__executor_comp_arc_sta__baselibs__concurrency"><path codeLine="44" d="M1753.8981,200.2588 C1678.8781,221.5588 1564.1,254.15 1489.16,275.43 " fill="transparent" id="logic_arc_int__baselibs__executor-backto-comp_arc_sta__baselibs__concurrency" style="stroke:#181818;stroke-width:1;"/><polygon fill="#181818" points="1759.67,198.62,1749.9197,197.2302,1754.8601,199.9856,1752.1047,204.9261,1759.67,198.62" style="stroke:#181818;stroke-width:1;"/><text fill="#000000" font-family="sans-serif" font-size="13" lengthAdjust="spacing" textLength="76.9082" x="1650" y="241.5669">implements</text></g><!--reverse link logic_arc_int__baselibs__shared_future to comp_arc_sta__baselibs__concurrency--><g id="link_logic_arc_int__baselibs__shared_future_comp_arc_sta__baselibs__concurrency"><path codeLine="45" d="M1490.0162,203.5546 C1474.1362,224.7846 1452.34,253.94 1436.44,275.19 " fill="transparent" id="logic_arc_int__baselibs__shared_future-backto-comp_arc_sta__baselibs__concurrency" style="stroke:#181818;stroke-width:1;"/><polygon fill="#181818" points="1493.61,198.75,1485.0162,203.561,1490.6151,202.7538,1491.4223,208.3528,1493.61,198.75" style="stroke:#181818;stroke-width:1;"/><text fill="#000000" font-family="sans-serif" font-size="13" lengthAdjust="spacing" textLength="76.9082" x="1472" y="241.5669">implements</text></g><!--reverse link logic_arc_int__baselibs__utils_base64 to comp_arc_sta__baselibs__utils--><g id="link_logic_arc_int__baselibs__utils_base64_comp_arc_sta__baselibs__utils"><path codeLine="46" d="M4059.5799,202.1113 C4028.0999,223.4013 3982.66,254.14 3951.26,275.38 " fill="transparent" id="logic_arc_int__baselibs__utils_base64-backto-comp_arc_sta__baselibs__utils" style="stroke:#181818;stroke-width:1;"/><polygon fill="#181818" points="4064.55,198.75,4054.854,200.4785,4060.4083,201.5511,4059.3357,207.1053,4064.55,198.75" style="stroke:#181818;stroke-width:1;"/><text fill="#000000" font-family="sans-serif" font-size="13" lengthAdjust="spacing" textLength="76.9082" x="4020" y="241.5669">implements</text></g><!--link Feature_User to logic_arc_int__baselibs__future--><g id="link_Feature_User_logic_arc_int__baselibs__future"><path codeLine="47" d="M3025.96,45.87 C2830.32,51.93 2034.79,77.46 1382,111.5 C1058.65,128.36 977.19,126.42 655,158.5 C649.35,159.06 649.5331,159.0152 643.7031,159.6652 " fill="transparent" id="Feature_User-to-logic_arc_int__baselibs__future" style="stroke:#181818;stroke-width:1;"/><polygon fill="#181818" points="637.74,160.33,647.1278,163.3081,642.7092,159.776,646.2414,155.3574,637.74,160.33" style="stroke:#181818;stroke-width:1;"/><text fill="#000000" font-family="sans-serif" font-size="13" lengthAdjust="spacing" textLength="23.0103" x="1383" y="124.5669">use</text></g><!--link Feature_User to logic_arc_int__baselibs__filesystem--><g id="link_Feature_User_logic_arc_int__baselibs__filesystem"><path codeLine="48" d="M3116.25,48.44 C3273.69,62.23 3812.2,110.13 4256,158.5 C4261.83,159.14 4261.8179,159.1265 4267.8379,159.8065 " fill="transparent" id="Feature_User-to-logic_arc_int__baselibs__filesystem" style="stroke:#181818;stroke-width:1;"/><polygon fill="#181818" points="4273.8,160.48,4265.3058,155.4951,4268.8316,159.9188,4264.4079,163.4445,4273.8,160.48" style="stroke:#181818;stroke-width:1;"/><text fill="#000000" font-family="sans-serif" font-size="13" lengthAdjust="spacing" textLength="23.0103" x="3965" y="124.5669">use</text></g><!--link Feature_User to logic_arc_int__baselibs__json--><g id="link_Feature_User_logic_arc_int__baselibs__json"><path codeLine="49" d="M3116.17,45.49 C3324.26,50.18 4211.35,71.63 4938,111.5 C5221.01,127.03 5292.18,128.29 5574,158.5 C5580,159.14 5580.1923,159.1389 5586.3923,159.8789 " fill="transparent" id="Feature_User-to-logic_arc_int__baselibs__json" style="stroke:#181818;stroke-width:1;"/><polygon fill="#181818" points="5592.35,160.59,5583.8875,155.5516,5587.3852,159.9974,5582.9394,163.4952,5592.35,160.59" style="stroke:#181818;stroke-width:1;"/><text fill="#000000" font-family="sans-serif" font-size="13" lengthAdjust="spacing" textLength="23.0103" x="5237" y="124.5669">use</text></g><!--reverse link logic_arc_int__baselibs__future to comp_arc_sta__baselibs__concurrency--><g id="link_logic_arc_int__baselibs__future_comp_arc_sta__baselibs__concurrency"><path codeLine="50" d="M643.7466,196.9983 C649.5566,197.7783 649.37,197.75 655,198.5 C812.75,219.57 852.09,225.66 1010,245.5 C1096.66,256.39 1193.65,267.96 1271.75,277.11 " fill="transparent" id="logic_arc_int__baselibs__future-backto-comp_arc_sta__baselibs__concurrency" style="stroke:#181818;stroke-width:1;"/><polygon fill="#181818" points="637.8,196.2,646.1877,201.362,642.7555,196.8653,647.2522,193.4331,637.8,196.2" style="stroke:#181818;stroke-width:1;"/><text fill="#000000" font-family="sans-serif" font-size="13" lengthAdjust="spacing" textLength="76.9082" x="1011" y="241.5669">implements</text></g><!--link Feature_User to logic_arc_int__baselibs__dynamic_array--><g id="link_Feature_User_logic_arc_int__baselibs__dynamic_array"><path codeLine="51" d="M3116.31,62.44 C3179.64,87.5 3288.511,130.6022 3353.301,156.2422 " fill="transparent" id="Feature_User-to-logic_arc_int__baselibs__dynamic_array" style="stroke:#181818;stroke-width:1;"/><polygon fill="#181818" points="3358.88,158.45,3351.9834,151.4189,3354.2308,156.6101,3349.0396,158.8576,3358.88,158.45" style="stroke:#181818;stroke-width:1;"/><text fill="#000000" font-family="sans-serif" font-size="13" lengthAdjust="spacing" textLength="23.0103" x="3280" y="124.5669">use</text></g><!--link Feature_User to logic_arc_int__baselibs__utils_base64--><g id="link_Feature_User_logic_arc_int__baselibs__utils_base64"><path codeLine="52" d="M3116.23,50.39 C3260.03,69.1 3705.1102,127.0156 3940.6002,157.6656 " fill="transparent" id="Feature_User-to-logic_arc_int__baselibs__utils_base64" style="stroke:#181818;stroke-width:1;"/><polygon fill="#181818" points="3946.55,158.44,3938.1415,153.3119,3941.5918,157.7947,3937.109,161.245,3946.55,158.44" style="stroke:#181818;stroke-width:1;"/><text fill="#000000" font-family="sans-serif" font-size="13" lengthAdjust="spacing" textLength="23.0103" x="3705" y="124.5669">use</text></g><!--SRC=[hLPDRzGm4BtxLrYzRq48SQYgNf0uSOIpvJZJxb1_uHcN1iH_nyakjDakE34vJZ8pcVVUvDdQsl1DENn4VoSuHCb1Te4vEDbZ0iCOlDXZ3v8O4WGU8XnYS947gPaJTfc1n3NnOE56N6f2syaVuYDwU1ziI391FqMVzcZkFH39DvUlnKzn_UfO8xJXadVn0JJd1F8pGRgGckJnWHeVI25cuQxVtKWRxj0edOn2pqfrci1YHqebe6pvIcO2AKnmSKeYri-JCgCbkSl_QZJbA38XGgz2l9BeeWK7dack6IYcu93WED6AmWvPEUqnPgj7FIgO7BYG1aLxNMYlO9lbpf7zhVqN2hxITKnPrkmKMgNnIoOQjNYXQPicT5-A8UcoknLH3jjOWVTxPPSmPu8tEINmPgXqBPazZcof1vrGTnQQQUE2U3rND7YpJy7ZzqBsrmmPAcGrRSLCYsqPF0TWoHTkqG8DnJXTvGDFYStIkEAg-WvKr4J5ooiCByT-aFm_zcMP4PU1M9SJ8jNSk1-yTjEhf8VcmKgOCk43A8kqsModNPkbd9doXaAUTPWrV_8qahhDOy5w8pZdH9MZRBRKrSFiv1TeH0cFO7BTqfTJ_-VatzQMdkRSsExcAYzfllmUDSRltZPhqxfwpnrsRUtXEhFHBfnZTSKi9_Qt5ifSWwdw5m00]--></g></svg>