<svg xmlns="http://www.w3.org/2000/svg" xmlns:xlink="http://www.w3.org/1999/xlink" contentStyleType="text/css" data-diagram-type="CLASS" height="322px" preserveAspectRatio="none" style="width:3643px;height:322px;background:#FFFFFF;" version="1.1" viewBox="0 0 3643 322" width="3643px" zoomAndPan="magnify"><defs/><g><!--entity Feature_User--><g id="elem_Feature_User"><ellipse cx="1759.6685" cy="14" fill="#F1F1F1" rx="8" ry="8" style="stroke:#181818;stroke-width:0.5;"/><path d="M1759.6685,22 L1759.6685,49 M1746.6685,30 L1772.6685,30 M1759.6685,49 L1746.6685,64 M1759.6685,49 L1772.6685,64 " fill="transparent" style="stroke:#181818;stroke-width:0.5;"/><text fill="#000000" font-family="sans-serif" font-size="14" lengthAdjust="spacing" textLength="90.3369" x="1714.5" y="78.4951">Feature User</text></g><!--class logic_arc_int__baselibs__memory_shared--><g id="elem_logic_arc_int__baselibs__memory_shared"><rect fill="#F1F1F1" height="40" id="logic_arc_int__baselibs__memory_shared" rx="2.5" ry="2.5" style="stroke:#181818;stroke-width:0.5;" width="318.043" x="299.5" y="158.5"/><ellipse cx="314.5" cy="174.5" fill="#ADD1B2" rx="11" ry="11" style="stroke:#181818;stroke-width:1;"/><path d="M317.4688,180.1406 Q316.8906,180.4375 316.25,180.5781 Q315.6094,180.7344 314.9063,180.7344 Q312.4063,180.7344 311.0781,179.0938 Q309.7656,177.4375 309.7656,174.3125 Q309.7656,171.1875 311.0781,169.5313 Q312.4063,167.875 314.9063,167.875 Q315.6094,167.875 316.25,168.0313 Q316.9063,168.1875 317.4688,168.4844 L317.4688,171.2031 Q316.8438,170.625 316.25,170.3594 Q315.6563,170.0781 315.0313,170.0781 Q313.6875,170.0781 313,171.1563 Q312.3125,172.2188 312.3125,174.3125 Q312.3125,176.4063 313,177.4844 Q313.6875,178.5469 315.0313,178.5469 Q315.6563,178.5469 316.25,178.2813 Q316.8438,178 317.4688,177.4219 L317.4688,180.1406 Z " fill="#000000"/><text fill="#000000" font-family="sans-serif" font-size="14" lengthAdjust="spacing" textLength="286.043" x="328.5" y="179.3467">logic_arc_int__baselibs__memory_shared</text><line style="stroke:#181818;stroke-width:0.5;" x1="300.5" x2="616.543" y1="190.5" y2="190.5"/></g><!--class logic_arc_int__baselibs__result--><g id="elem_logic_arc_int__baselibs__result"><rect fill="#F1F1F1" height="40" id="logic_arc_int__baselibs__result" rx="2.5" ry="2.5" style="stroke:#181818;stroke-width:0.5;" width="244.4609" x="16.5" y="158.5"/><ellipse cx="31.5" cy="174.5" fill="#ADD1B2" rx="11" ry="11" style="stroke:#181818;stroke-width:1;"/><path d="M34.4688,180.1406 Q33.8906,180.4375 33.25,180.5781 Q32.6094,180.7344 31.9063,180.7344 Q29.4063,180.7344 28.0781,179.0938 Q26.7656,177.4375 26.7656,174.3125 Q26.7656,171.1875 28.0781,169.5313 Q29.4063,167.875 31.9063,167.875 Q32.6094,167.875 33.25,168.0313 Q33.9063,168.1875 34.4688,168.4844 L34.4688,171.2031 Q33.8438,170.625 33.25,170.3594 Q32.6563,170.0781 32.0313,170.0781 Q30.6875,170.0781 30,171.1563 Q29.3125,172.2188 29.3125,174.3125 Q29.3125,176.4063 30,177.4844 Q30.6875,178.5469 32.0313,178.5469 Q32.6563,178.5469 33.25,178.2813 Q33.8438,178 34.4688,177.4219 L34.4688,180.1406 Z " fill="#000000"/><text fill="#000000" font-family="sans-serif" font-size="14" lengthAdjust="spacing" textLength="212.4609" x="45.5" y="179.3467">logic_arc_int__baselibs__result</text><line style="stroke:#181818;stroke-width:0.5;" x1="17.5" x2="259.9609" y1="190.5" y2="190.5"/></g><!--class logic_arc_int__baselibs__filesystem--><g id="elem_logic_arc_int__baselibs__filesystem"><rect fill="#F1F1F1" height="40" id="logic_arc_int__baselibs__filesystem" rx="2.5" ry="2.5" style="stroke:#181818;stroke-width:0.5;" width="276.4805" x="2682.5" y="158.5"/><ellipse cx="2697.5" cy="174.5" fill="#ADD1B2" rx="11" ry="11" style="stroke:#181818;stroke-width:1;"/><path d="M2700.4688,180.1406 Q2699.8906,180.4375 2699.25,180.5781 Q2698.6094,180.7344 2697.9063,180.7344 Q2695.4063,180.7344 2694.0781,179.0938 Q2692.7656,177.4375 2692.7656,174.3125 Q2692.7656,171.1875 2694.0781,169.5313 Q2695.4063,167.875 2697.9063,167.875 Q2698.6094,167.875 2699.25,168.0313 Q2699.9063,168.1875 2700.4688,168.4844 L2700.4688,171.2031 Q2699.8438,170.625 2699.25,170.3594 Q2698.6563,170.0781 2698.0313,170.0781 Q2696.6875,170.0781 2696,171.1563 Q2695.3125,172.2188 2695.3125,174.3125 Q2695.3125,176.4063 2696,177.4844 Q2696.6875,178.5469 2698.0313,178.5469 Q2698.6563,178.5469 2699.25,178.2813 Q2699.8438,178 2700.4688,177.4219 L2700.4688,180.1406 Z " fill="#000000"/><text fill="#000000" font-family="sans-serif" font-size="14" lengthAdjust="spacing" textLength="244.4805" x="2711.5" y="179.3467">logic_arc_int__baselibs__filesystem</text><line style="stroke:#181818;stroke-width:0.5;" x1="2683.5" x2="2957.9805" y1="190.5" y2="190.5"/></g><!--class logic_arc_int__baselibs__utils_scoped_op--><g id="elem_logic_arc_int__baselibs__utils_scoped_op"><rect fill="#F1F1F1" height="40" id="logic_arc_int__baselibs__utils_scoped_op" rx="2.5" ry="2.5" style="stroke:#181818;stroke-width:0.5;" width="315.377" x="2994" y="158.5"/><ellipse cx="3009" cy="174.5" fill="#ADD1B2" rx="11" ry="11" style="stroke:#181818;stroke-width:1;"/><path d="M3011.9688,180.1406 Q3011.3906,180.4375 3010.75,180.5781 Q3010.1094,180.7344 3009.4063,180.7344 Q3006.9063,180.7344 3005.5781,179.0938 Q3004.2656,177.4375 3004.2656,174.3125 Q3004.2656,171.1875 3005.5781,169.5313 Q3006.9063,167.875 3009.4063,167.875 Q3010.1094,167.875 3010.75,168.0313 Q3011.4063,168.1875 3011.9688,168.4844 L3011.9688,171.2031 Q3011.3438,170.625 3010.75,170.3594 Q3010.1563,170.0781 3009.5313,170.0781 Q3008.1875,170.0781 3007.5,171.1563 Q3006.8125,172.2188 3006.8125,174.3125 Q3006.8125,176.4063 3007.5,177.4844 Q3008.1875,178.5469 3009.5313,178.5469 Q3010.1563,178.5469 3010.75,178.2813 Q3011.3438,178 3011.9688,177.4219 L3011.9688,180.1406 Z " fill="#000000"/><text fill="#000000" font-family="sans-serif" font-size="14" lengthAdjust="spacing" textLength="283.377" x="3023" y="179.3467">logic_arc_int__baselibs__utils_scoped_op</text><line style="stroke:#181818;stroke-width:0.5;" x1="2995" x2="3308.377" y1="190.5" y2="190.5"/></g><!--class comp_arc_sta__baselibs__utils--><g id="elem_comp_arc_sta__baselibs__utils"><rect fill="#F1F1F1" height="40" id="comp_arc_sta__baselibs__utils" rx="2.5" ry="2.5" style="stroke:#181818;stroke-width:0.5;" width="242.9502" x="3199" y="275.5"/><ellipse cx="3214" cy="291.5" fill="#ADD1B2" rx="11" ry="11" style="stroke:#181818;stroke-width:1;"/><path d="M3216.9688,297.1406 Q3216.3906,297.4375 3215.75,297.5781 Q3215.1094,297.7344 3214.4063,297.7344 Q3211.9063,297.7344 3210.5781,296.0938 Q3209.2656,294.4375 3209.2656,291.3125 Q3209.2656,288.1875 3210.5781,286.5313 Q3211.9063,284.875 3214.4063,284.875 Q3215.1094,284.875 3215.75,285.0313 Q3216.4063,285.1875 3216.9688,285.4844 L3216.9688,288.2031 Q3216.3438,287.625 3215.75,287.3594 Q3215.1563,287.0781 3214.5313,287.0781 Q3213.1875,287.0781 3212.5,288.1563 Q3211.8125,289.2188 3211.8125,291.3125 Q3211.8125,293.4063 3212.5,294.4844 Q3213.1875,295.5469 3214.5313,295.5469 Q3215.1563,295.5469 3215.75,295.2813 Q3216.3438,295 3216.9688,294.4219 L3216.9688,297.1406 Z " fill="#000000"/><text fill="#000000" font-family="sans-serif" font-size="14" lengthAdjust="spacing" textLength="210.9502" x="3228" y="296.3467">comp_arc_sta__baselibs__utils</text><line style="stroke:#181818;stroke-width:0.5;" x1="3200" x2="3440.9502" y1="307.5" y2="307.5"/></g><!--class comp_arc_sta__baselibs__bit_manipulation--><g id="elem_comp_arc_sta__baselibs__bit_manipulation"><rect fill="#F1F1F1" height="40" id="comp_arc_sta__baselibs__bit_manipulation" rx="2.5" ry="2.5" style="stroke:#181818;stroke-width:0.5;" width="330.8057" x="1745" y="275.5"/><ellipse cx="1760" cy="291.5" fill="#ADD1B2" rx="11" ry="11" style="stroke:#181818;stroke-width:1;"/><path d="M1762.9688,297.1406 Q1762.3906,297.4375 1761.75,297.5781 Q1761.1094,297.7344 1760.4063,297.7344 Q1757.9063,297.7344 1756.5781,296.0938 Q1755.2656,294.4375 1755.2656,291.3125 Q1755.2656,288.1875 1756.5781,286.5313 Q1757.9063,284.875 1760.4063,284.875 Q1761.1094,284.875 1761.75,285.0313 Q1762.4063,285.1875 1762.9688,285.4844 L1762.9688,288.2031 Q1762.3438,287.625 1761.75,287.3594 Q1761.1563,287.0781 1760.5313,287.0781 Q1759.1875,287.0781 1758.5,288.1563 Q1757.8125,289.2188 1757.8125,291.3125 Q1757.8125,293.4063 1758.5,294.4844 Q1759.1875,295.5469 1760.5313,295.5469 Q1761.1563,295.5469 1761.75,295.2813 Q1762.3438,295 1762.9688,294.4219 L1762.9688,297.1406 Z " fill="#000000"/><text fill="#000000" font-family="sans-serif" font-size="14" lengthAdjust="spacing" textLength="298.8057" x="1774" y="296.3467">comp_arc_sta__baselibs__bit_manipulation</text><line style="stroke:#181818;stroke-width:0.5;" x1="1746" x2="2074.8057" y1="307.5" y2="307.5"/></g><!--class logic_arc_int__baselibs__bit_manipulation--><g id="elem_logic_arc_int__baselibs__bit_manipulation"><rect fill="#F1F1F1" height="40" id="logic_arc_int__baselibs__bit_manipulation" rx="2.5" ry="2.5" style="stroke:#181818;stroke-width:0.5;" width="321.8369" x="1962.5" y="158.5"/><ellipse cx="1977.5" cy="174.5" fill="#ADD1B2" rx="11" ry="11" style="stroke:#181818;stroke-width:1;"/><path d="M1980.4688,180.1406 Q1979.8906,180.4375 1979.25,180.5781 Q1978.6094,180.7344 1977.9063,180.7344 Q1975.4063,180.7344 1974.0781,179.0938 Q1972.7656,177.4375 1972.7656,174.3125 Q1972.7656,171.1875 1974.0781,169.5313 Q1975.4063,167.875 1977.9063,167.875 Q1978.6094,167.875 1979.25,168.0313 Q1979.9063,168.1875 1980.4688,168.4844 L1980.4688,171.2031 Q1979.8438,170.625 1979.25,170.3594 Q1978.6563,170.0781 1978.0313,170.0781 Q1976.6875,170.0781 1976,171.1563 Q1975.3125,172.2188 1975.3125,174.3125 Q1975.3125,176.4063 1976,177.4844 Q1976.6875,178.5469 1978.0313,178.5469 Q1978.6563,178.5469 1979.25,178.2813 Q1979.8438,178 1980.4688,177.4219 L1980.4688,180.1406 Z " fill="#000000"/><text fill="#000000" font-family="sans-serif" font-size="14" lengthAdjust="spacing" textLength="289.8369" x="1991.5" y="179.3467">logic_arc_int__baselibs__bit_manipulation</text><line style="stroke:#181818;stroke-width:0.5;" x1="1963.5" x2="2283.3369" y1="190.5" y2="190.5"/></g><!--class comp_arc_sta__baselibs__filesystem--><g id="elem_comp_arc_sta__baselibs__filesystem"><rect fill="#F1F1F1" height="40" id="comp_arc_sta__baselibs__filesystem" rx="2.5" ry="2.5" style="stroke:#181818;stroke-width:0.5;" width="285.4492" x="2682" y="275.5"/><ellipse cx="2697" cy="291.5" fill="#ADD1B2" rx="11" ry="11" style="stroke:#181818;stroke-width:1;"/><path d="M2699.9688,297.1406 Q2699.3906,297.4375 2698.75,297.5781 Q2698.1094,297.7344 2697.4063,297.7344 Q2694.9063,297.7344 2693.5781,296.0938 Q2692.2656,294.4375 2692.2656,291.3125 Q2692.2656,288.1875 2693.5781,286.5313 Q2694.9063,284.875 2697.4063,284.875 Q2698.1094,284.875 2698.75,285.0313 Q2699.4063,285.1875 2699.9688,285.4844 L2699.9688,288.2031 Q2699.3438,287.625 2698.75,287.3594 Q2698.1563,287.0781 2697.5313,287.0781 Q2696.1875,287.0781 2695.5,288.1563 Q2694.8125,289.2188 2694.8125,291.3125 Q2694.8125,293.4063 2695.5,294.4844 Q2696.1875,295.5469 2697.5313,295.5469 Q2698.1563,295.5469 2698.75,295.2813 Q2699.3438,295 2699.9688,294.4219 L2699.9688,297.1406 Z " fill="#000000"/><text fill="#000000" font-family="sans-serif" font-size="14" lengthAdjust="spacing" textLength="253.4492" x="2711" y="296.3467">comp_arc_sta__baselibs__filesystem</text><line style="stroke:#181818;stroke-width:0.5;" x1="2683" x2="2966.4492" y1="307.5" y2="307.5"/></g><!--class logic_arc_int__baselibs__json--><g id="elem_logic_arc_int__baselibs__json"><rect fill="#F1F1F1" height="40" id="logic_arc_int__baselibs__json" rx="2.5" ry="2.5" style="stroke:#181818;stroke-width:0.5;" width="233.168" x="652" y="158.5"/><ellipse cx="667" cy="174.5" fill="#ADD1B2" rx="11" ry="11" style="stroke:#181818;stroke-width:1;"/><path d="M669.9688,180.1406 Q669.3906,180.4375 668.75,180.5781 Q668.1094,180.7344 667.4063,180.7344 Q664.9063,180.7344 663.5781,179.0938 Q662.2656,177.4375 662.2656,174.3125 Q662.2656,171.1875 663.5781,169.5313 Q664.9063,167.875 667.4063,167.875 Q668.1094,167.875 668.75,168.0313 Q669.4063,168.1875 669.9688,168.4844 L669.9688,171.2031 Q669.3438,170.625 668.75,170.3594 Q668.1563,170.0781 667.5313,170.0781 Q666.1875,170.0781 665.5,171.1563 Q664.8125,172.2188 664.8125,174.3125 Q664.8125,176.4063 665.5,177.4844 Q666.1875,178.5469 667.5313,178.5469 Q668.1563,178.5469 668.75,178.2813 Q669.3438,178 669.9688,177.4219 L669.9688,180.1406 Z " fill="#000000"/><text fill="#000000" font-family="sans-serif" font-size="14" lengthAdjust="spacing" textLength="201.168" x="681" y="179.3467">logic_arc_int__baselibs__json</text><line style="stroke:#181818;stroke-width:0.5;" x1="653" x2="884.168" y1="190.5" y2="190.5"/></g><!--class logic_arc_int__baselibs__message_passing--><g id="elem_logic_arc_int__baselibs__message_passing"><rect fill="#F1F1F1" height="40" id="logic_arc_int__baselibs__message_passing" rx="2.5" ry="2.5" style="stroke:#181818;stroke-width:0.5;" width="328.167" x="2319.5" y="158.5"/><ellipse cx="2334.5" cy="174.5" fill="#ADD1B2" rx="11" ry="11" style="stroke:#181818;stroke-width:1;"/><path d="M2337.4688,180.1406 Q2336.8906,180.4375 2336.25,180.5781 Q2335.6094,180.7344 2334.9063,180.7344 Q2332.4063,180.7344 2331.0781,179.0938 Q2329.7656,177.4375 2329.7656,174.3125 Q2329.7656,171.1875 2331.0781,169.5313 Q2332.4063,167.875 2334.9063,167.875 Q2335.6094,167.875 2336.25,168.0313 Q2336.9063,168.1875 2337.4688,168.4844 L2337.4688,171.2031 Q2336.8438,170.625 2336.25,170.3594 Q2335.6563,170.0781 2335.0313,170.0781 Q2333.6875,170.0781 2333,171.1563 Q2332.3125,172.2188 2332.3125,174.3125 Q2332.3125,176.4063 2333,177.4844 Q2333.6875,178.5469 2335.0313,178.5469 Q2335.6563,178.5469 2336.25,178.2813 Q2336.8438,178 2337.4688,177.4219 L2337.4688,180.1406 Z " fill="#000000"/><text fill="#000000" font-family="sans-serif" font-size="14" lengthAdjust="spacing" textLength="296.167" x="2348.5" y="179.3467">logic_arc_int__baselibs__message_passing</text><line style="stroke:#181818;stroke-width:0.5;" x1="2320.5" x2="2646.667" y1="190.5" y2="190.5"/></g><!--class logic_arc_int__baselibs__utils_base64--><g id="elem_logic_arc_int__baselibs__utils_base64"><rect fill="#F1F1F1" height="40" id="logic_arc_int__baselibs__utils_base64" rx="2.5" ry="2.5" style="stroke:#181818;stroke-width:0.5;" width="292.1689" x="3344.5" y="158.5"/><ellipse cx="3359.5" cy="174.5" fill="#ADD1B2" rx="11" ry="11" style="stroke:#181818;stroke-width:1;"/><path d="M3362.4688,180.1406 Q3361.8906,180.4375 3361.25,180.5781 Q3360.6094,180.7344 3359.9063,180.7344 Q3357.4063,180.7344 3356.0781,179.0938 Q3354.7656,177.4375 3354.7656,174.3125 Q3354.7656,171.1875 3356.0781,169.5313 Q3357.4063,167.875 3359.9063,167.875 Q3360.6094,167.875 3361.25,168.0313 Q3361.9063,168.1875 3362.4688,168.4844 L3362.4688,171.2031 Q3361.8438,170.625 3361.25,170.3594 Q3360.6563,170.0781 3360.0313,170.0781 Q3358.6875,170.0781 3358,171.1563 Q3357.3125,172.2188 3357.3125,174.3125 Q3357.3125,176.4063 3358,177.4844 Q3358.6875,178.5469 3360.0313,178.5469 Q3360.6563,178.5469 3361.25,178.2813 Q3361.8438,178 3362.4688,177.4219 L3362.4688,180.1406 Z " fill="#000000"/><text fill="#000000" font-family="sans-serif" font-size="14" lengthAdjust="spacing" textLength="260.1689" x="3373.5" y="179.3467">logic_arc_int__baselibs__utils_base64</text><line style="stroke:#181818;stroke-width:0.5;" x1="3345.5" x2="3635.6689" y1="190.5" y2="190.5"/></g><!--class comp_arc_sta__baselibs__message_passing--><g id="elem_comp_arc_sta__baselibs__message_passing"><rect fill="#F1F1F1" height="40" id="comp_arc_sta__baselibs__message_passing" rx="2.5" ry="2.5" style="stroke:#181818;stroke-width:0.5;" width="337.1357" x="2310" y="275.5"/><ellipse cx="2325" cy="291.5" fill="#ADD1B2" rx="11" ry="11" style="stroke:#181818;stroke-width:1;"/><path d="M2327.9688,297.1406 Q2327.3906,297.4375 2326.75,297.5781 Q2326.1094,297.7344 2325.4063,297.7344 Q2322.9063,297.7344 2321.5781,296.0938 Q2320.2656,294.4375 2320.2656,291.3125 Q2320.2656,288.1875 2321.5781,286.5313 Q2322.9063,284.875 2325.4063,284.875 Q2326.1094,284.875 2326.75,285.0313 Q2327.4063,285.1875 2327.9688,285.4844 L2327.9688,288.2031 Q2327.3438,287.625 2326.75,287.3594 Q2326.1563,287.0781 2325.5313,287.0781 Q2324.1875,287.0781 2323.5,288.1563 Q2322.8125,289.2188 2322.8125,291.3125 Q2322.8125,293.4063 2323.5,294.4844 Q2324.1875,295.5469 2325.5313,295.5469 Q2326.1563,295.5469 2326.75,295.2813 Q2327.3438,295 2327.9688,294.4219 L2327.9688,297.1406 Z " fill="#000000"/><text fill="#000000" font-family="sans-serif" font-size="14" lengthAdjust="spacing" textLength="305.1357" x="2339" y="296.3467">comp_arc_sta__baselibs__message_passing</text><line style="stroke:#181818;stroke-width:0.5;" x1="2311" x2="2646.1357" y1="307.5" y2="307.5"/></g><!--class comp_arc_sta__baselibs__containers--><g id="elem_comp_arc_sta__baselibs__containers"><rect fill="#F1F1F1" height="40" id="comp_arc_sta__baselibs__containers" rx="2.5" ry="2.5" style="stroke:#181818;stroke-width:0.5;" width="287.1445" x="1042" y="275.5"/><ellipse cx="1057" cy="291.5" fill="#ADD1B2" rx="11" ry="11" style="stroke:#181818;stroke-width:1;"/><path d="M1059.9688,297.1406 Q1059.3906,297.4375 1058.75,297.5781 Q1058.1094,297.7344 1057.4063,297.7344 Q1054.9063,297.7344 1053.5781,296.0938 Q1052.2656,294.4375 1052.2656,291.3125 Q1052.2656,288.1875 1053.5781,286.5313 Q1054.9063,284.875 1057.4063,284.875 Q1058.1094,284.875 1058.75,285.0313 Q1059.4063,285.1875 1059.9688,285.4844 L1059.9688,288.2031 Q1059.3438,287.625 1058.75,287.3594 Q1058.1563,287.0781 1057.5313,287.0781 Q1056.1875,287.0781 1055.5,288.1563 Q1054.8125,289.2188 1054.8125,291.3125 Q1054.8125,293.4063 1055.5,294.4844 Q1056.1875,295.5469 1057.5313,295.5469 Q1058.1563,295.5469 1058.75,295.2813 Q1059.3438,295 1059.9688,294.4219 L1059.9688,297.1406 Z " fill="#000000"/><text fill="#000000" font-family="sans-serif" font-size="14" lengthAdjust="spacing" textLength="255.1445" x="1071" y="296.3467">comp_arc_sta__baselibs__containers</text><line style="stroke:#181818;stroke-width:0.5;" x1="1043" x2="1328.1445" y1="307.5" y2="307.5"/></g><!--class logic_arc_int__baselibs__dynamic_array--><g id="elem_logic_arc_int__baselibs__dynamic_array"><rect fill="#F1F1F1" height="40" id="logic_arc_int__baselibs__dynamic_array" rx="2.5" ry="2.5" style="stroke:#181818;stroke-width:0.5;" width="308.3496" x="1248.5" y="158.5"/><ellipse cx="1263.5" cy="174.5" fill="#ADD1B2" rx="11" ry="11" style="stroke:#181818;stroke-width:1;"/><path d="M1266.4688,180.1406 Q1265.8906,180.4375 1265.25,180.5781 Q1264.6094,180.7344 1263.9063,180.7344 Q1261.4063,180.7344 1260.0781,179.0938 Q1258.7656,177.4375 1258.7656,174.3125 Q1258.7656,171.1875 1260.0781,169.5313 Q1261.4063,167.875 1263.9063,167.875 Q1264.6094,167.875 1265.25,168.0313 Q1265.9063,168.1875 1266.4688,168.4844 L1266.4688,171.2031 Q1265.8438,170.625 1265.25,170.3594 Q1264.6563,170.0781 1264.0313,170.0781 Q1262.6875,170.0781 1262,171.1563 Q1261.3125,172.2188 1261.3125,174.3125 Q1261.3125,176.4063 1262,177.4844 Q1262.6875,178.5469 1264.0313,178.5469 Q1264.6563,178.5469 1265.25,178.2813 Q1265.8438,178 1266.4688,177.4219 L1266.4688,180.1406 Z " fill="#000000"/><text fill="#000000" font-family="sans-serif" font-size="14" lengthAdjust="spacing" textLength="276.3496" x="1277.5" y="179.3467">logic_arc_int__baselibs__dynamic_array</text><line style="stroke:#181818;stroke-width:0.5;" x1="1249.5" x2="1555.8496" y1="190.5" y2="190.5"/></g><!--class logic_arc_int__baselibs__bit_mask_operator--><g id="elem_logic_arc_int__baselibs__bit_mask_operator"><rect fill="#F1F1F1" height="40" id="logic_arc_int__baselibs__bit_mask_operator" rx="2.5" ry="2.5" style="stroke:#181818;stroke-width:0.5;" width="334.6406" x="1592" y="158.5"/><ellipse cx="1607" cy="174.5" fill="#ADD1B2" rx="11" ry="11" style="stroke:#181818;stroke-width:1;"/><path d="M1609.9688,180.1406 Q1609.3906,180.4375 1608.75,180.5781 Q1608.1094,180.7344 1607.4063,180.7344 Q1604.9063,180.7344 1603.5781,179.0938 Q1602.2656,177.4375 1602.2656,174.3125 Q1602.2656,171.1875 1603.5781,169.5313 Q1604.9063,167.875 1607.4063,167.875 Q1608.1094,167.875 1608.75,168.0313 Q1609.4063,168.1875 1609.9688,168.4844 L1609.9688,171.2031 Q1609.3438,170.625 1608.75,170.3594 Q1608.1563,170.0781 1607.5313,170.0781 Q1606.1875,170.0781 1605.5,171.1563 Q1604.8125,172.2188 1604.8125,174.3125 Q1604.8125,176.4063 1605.5,177.4844 Q1606.1875,178.5469 1607.5313,178.5469 Q1608.1563,178.5469 1608.75,178.2813 Q1609.3438,178 1609.9688,177.4219 L1609.9688,180.1406 Z " fill="#000000"/><text fill="#000000" font-family="sans-serif" font-size="14" lengthAdjust="spacing" textLength="302.6406" x="1621" y="179.3467">logic_arc_int__baselibs__bit_mask_operator</text><line style="stroke:#181818;stroke-width:0.5;" x1="1593" x2="1925.6406" y1="190.5" y2="190.5"/></g><!--class comp_arc_sta__baselibs__json--><g id="elem_comp_arc_sta__baselibs__json"><rect fill="#F1F1F1" height="40" id="comp_arc_sta__baselibs__json" rx="2.5" ry="2.5" style="stroke:#181818;stroke-width:0.5;" width="242.1367" x="656.5" y="275.5"/><ellipse cx="671.5" cy="291.5" fill="#ADD1B2" rx="11" ry="11" style="stroke:#181818;stroke-width:1;"/><path d="M674.4688,297.1406 Q673.8906,297.4375 673.25,297.5781 Q672.6094,297.7344 671.9063,297.7344 Q669.4063,297.7344 668.0781,296.0938 Q666.7656,294.4375 666.7656,291.3125 Q666.7656,288.1875 668.0781,286.5313 Q669.4063,284.875 671.9063,284.875 Q672.6094,284.875 673.25,285.0313 Q673.9063,285.1875 674.4688,285.4844 L674.4688,288.2031 Q673.8438,287.625 673.25,287.3594 Q672.6563,287.0781 672.0313,287.0781 Q670.6875,287.0781 670,288.1563 Q669.3125,289.2188 669.3125,291.3125 Q669.3125,293.4063 670,294.4844 Q670.6875,295.5469 672.0313,295.5469 Q672.6563,295.5469 673.25,295.2813 Q673.8438,295 674.4688,294.4219 L674.4688,297.1406 Z " fill="#000000"/><text fill="#000000" font-family="sans-serif" font-size="14" lengthAdjust="spacing" textLength="210.1367" x="685.5" y="296.3467">comp_arc_sta__baselibs__json</text><line style="stroke:#181818;stroke-width:0.5;" x1="657.5" x2="897.6367" y1="307.5" y2="307.5"/></g><!--class logic_arc_int__baselibs__intrusive_list--><g id="elem_logic_arc_int__baselibs__intrusive_list"><rect fill="#F1F1F1" height="40" id="logic_arc_int__baselibs__intrusive_list" rx="2.5" ry="2.5" style="stroke:#181818;stroke-width:0.5;" width="293.0713" x="920" y="158.5"/><ellipse cx="935" cy="174.5" fill="#ADD1B2" rx="11" ry="11" style="stroke:#181818;stroke-width:1;"/><path d="M937.9688,180.1406 Q937.3906,180.4375 936.75,180.5781 Q936.1094,180.7344 935.4063,180.7344 Q932.9063,180.7344 931.5781,179.0938 Q930.2656,177.4375 930.2656,174.3125 Q930.2656,171.1875 931.5781,169.5313 Q932.9063,167.875 935.4063,167.875 Q936.1094,167.875 936.75,168.0313 Q937.4063,168.1875 937.9688,168.4844 L937.9688,171.2031 Q937.3438,170.625 936.75,170.3594 Q936.1563,170.0781 935.5313,170.0781 Q934.1875,170.0781 933.5,171.1563 Q932.8125,172.2188 932.8125,174.3125 Q932.8125,176.4063 933.5,177.4844 Q934.1875,178.5469 935.5313,178.5469 Q936.1563,178.5469 936.75,178.2813 Q937.3438,178 937.9688,177.4219 L937.9688,180.1406 Z " fill="#000000"/><text fill="#000000" font-family="sans-serif" font-size="14" lengthAdjust="spacing" textLength="261.0713" x="949" y="179.3467">logic_arc_int__baselibs__intrusive_list</text><line style="stroke:#181818;stroke-width:0.5;" x1="921" x2="1212.0713" y1="190.5" y2="190.5"/></g><!--class comp_arc_sta__baselibs__memory_shared--><g id="elem_comp_arc_sta__baselibs__memory_shared"><rect fill="#F1F1F1" height="40" id="comp_arc_sta__baselibs__memory_shared" rx="2.5" ry="2.5" style="stroke:#181818;stroke-width:0.5;" width="327.0117" x="295" y="275.5"/><ellipse cx="310" cy="291.5" fill="#ADD1B2" rx="11" ry="11" style="stroke:#181818;stroke-width:1;"/><path d="M312.9688,297.1406 Q312.3906,297.4375 311.75,297.5781 Q311.1094,297.7344 310.4063,297.7344 Q307.9063,297.7344 306.5781,296.0938 Q305.2656,294.4375 305.2656,291.3125 Q305.2656,288.1875 306.5781,286.5313 Q307.9063,284.875 310.4063,284.875 Q311.1094,284.875 311.75,285.0313 Q312.4063,285.1875 312.9688,285.4844 L312.9688,288.2031 Q312.3438,287.625 311.75,287.3594 Q311.1563,287.0781 310.5313,287.0781 Q309.1875,287.0781 308.5,288.1563 Q307.8125,289.2188 307.8125,291.3125 Q307.8125,293.4063 308.5,294.4844 Q309.1875,295.5469 310.5313,295.5469 Q311.1563,295.5469 311.75,295.2813 Q312.3438,295 312.9688,294.4219 L312.9688,297.1406 Z " fill="#000000"/><text fill="#000000" font-family="sans-serif" font-size="14" lengthAdjust="spacing" textLength="295.0117" x="324" y="296.3467">comp_arc_sta__baselibs__memory_shared</text><line style="stroke:#181818;stroke-width:0.5;" x1="296" x2="621.0117" y1="307.5" y2="307.5"/></g><!--class comp_arc_sta__baselibs__result--><g id="elem_comp_arc_sta__baselibs__result"><rect fill="#F1F1F1" height="40" id="comp_arc_sta__baselibs__result" rx="2.5" ry="2.5" style="stroke:#181818;stroke-width:0.5;" width="253.4297" x="7" y="275.5"/><ellipse cx="22" cy="291.5" fill="#ADD1B2" rx="11" ry="11" style="stroke:#181818;stroke-width:1;"/><path d="M24.9688,297.1406 Q24.3906,297.4375 23.75,297.5781 Q23.1094,297.7344 22.4063,297.7344 Q19.9063,297.7344 18.5781,296.0938 Q17.2656,294.4375 17.2656,291.3125 Q17.2656,288.1875 18.5781,286.5313 Q19.9063,284.875 22.4063,284.875 Q23.1094,284.875 23.75,285.0313 Q24.4063,285.1875 24.9688,285.4844 L24.9688,288.2031 Q24.3438,287.625 23.75,287.3594 Q23.1563,287.0781 22.5313,287.0781 Q21.1875,287.0781 20.5,288.1563 Q19.8125,289.2188 19.8125,291.3125 Q19.8125,293.4063 20.5,294.4844 Q21.1875,295.5469 22.5313,295.5469 Q23.1563,295.5469 23.75,295.2813 Q24.3438,295 24.9688,294.4219 L24.9688,297.1406 Z " fill="#000000"/><text fill="#000000" font-family="sans-serif" font-size="14" lengthAdjust="spacing" textLength="221.4297" x="36" y="296.3467">comp_arc_sta__baselibs__result</text><line style="stroke:#181818;stroke-width:0.5;" x1="8" x2="259.4297" y1="307.5" y2="307.5"/></g><!--link Feature_User to logic_arc_int__baselibs__memory_shared--><g id="link_Feature_User_logic_arc_int__baselibs__memory_shared"><path codeLine="15" d="M1714.48,48.96 C1562.47,64.02 1054.28,114.57 634.5,158.5 C629,159.08 629.3665,159.0264 623.7165,159.6264 " fill="transparent" id="Feature_User-to-logic_arc_int__baselibs__memory_shared" style="stroke:#181818;stroke-width:1;"/><polygon fill="#181818" points="617.75,160.26,627.1221,163.2872,622.722,159.732,626.2773,155.332,617.75,160.26" style="stroke:#181818;stroke-width:1;"/><text fill="#000000" font-family="sans-serif" font-size="13" lengthAdjust="spacing" textLength="23.0103" x="1068.5" y="124.5669">use</text></g><!--link Feature_User to logic_arc_int__baselibs__result--><g id="link_Feature_User_logic_arc_int__baselibs__result"><path codeLine="16" d="M1714.37,47.07 C1533.75,57.55 845.56,99.32 281.5,158.5 C274.65,159.22 273.5793,159.3024 266.4893,160.1324 " fill="transparent" id="Feature_User-to-logic_arc_int__baselibs__result" style="stroke:#181818;stroke-width:1;"/><polygon fill="#181818" points="260.53,160.83,269.934,163.7564,265.4961,160.2486,269.0039,155.8107,260.53,160.83" style="stroke:#181818;stroke-width:1;"/><text fill="#000000" font-family="sans-serif" font-size="13" lengthAdjust="spacing" textLength="23.0103" x="770.5" y="124.5669">use</text></g><!--link Feature_User to logic_arc_int__baselibs__filesystem--><g id="link_Feature_User_logic_arc_int__baselibs__filesystem"><path codeLine="17" d="M1804.75,50.17 C1954.96,69 2435.1766,129.1936 2676.3066,159.4236 " fill="transparent" id="Feature_User-to-logic_arc_int__baselibs__filesystem" style="stroke:#181818;stroke-width:1;"/><polygon fill="#181818" points="2682.26,160.17,2673.8275,155.0815,2677.2988,159.548,2672.8323,163.0194,2682.26,160.17" style="stroke:#181818;stroke-width:1;"/><text fill="#000000" font-family="sans-serif" font-size="13" lengthAdjust="spacing" textLength="23.0103" x="2417.5" y="124.5669">use</text></g><!--link Feature_User to logic_arc_int__baselibs__utils_scoped_op--><g id="link_Feature_User_logic_arc_int__baselibs__utils_scoped_op"><path codeLine="18" d="M1804.56,48.48 C1964.39,62.64 2519.13,112.25 2976.5,158.5 C2982.13,159.07 2981.8821,159.0305 2987.6621,159.6305 " fill="transparent" id="Feature_User-to-logic_arc_int__baselibs__utils_scoped_op" style="stroke:#181818;stroke-width:1;"/><polygon fill="#181818" points="2993.63,160.25,2985.0911,155.3421,2988.6567,159.7337,2984.2651,163.2994,2993.63,160.25" style="stroke:#181818;stroke-width:1;"/><text fill="#000000" font-family="sans-serif" font-size="13" lengthAdjust="spacing" textLength="23.0103" x="2643.5" y="124.5669">use</text></g><!--reverse link logic_arc_int__baselibs__utils_scoped_op to comp_arc_sta__baselibs__utils--><g id="link_logic_arc_int__baselibs__utils_scoped_op_comp_arc_sta__baselibs__utils"><path codeLine="19" d="M3184.7506,202.1252 C3216.0406,223.4152 3261.19,254.14 3292.4,275.38 " fill="transparent" id="logic_arc_int__baselibs__utils_scoped_op-backto-comp_arc_sta__baselibs__utils" style="stroke:#181818;stroke-width:1;"/><polygon fill="#181818" points="3179.79,198.75,3184.9808,207.1199,3183.9238,201.5627,3189.4811,200.5058,3179.79,198.75" style="stroke:#181818;stroke-width:1;"/><text fill="#000000" font-family="sans-serif" font-size="13" lengthAdjust="spacing" textLength="76.9082" x="3246.5" y="241.5669">implements</text></g><!--reverse link logic_arc_int__baselibs__bit_manipulation to comp_arc_sta__baselibs__bit_manipulation--><g id="link_logic_arc_int__baselibs__bit_manipulation_comp_arc_sta__baselibs__bit_manipulation"><path codeLine="20" d="M2082.5701,201.6001 C2043.1301,222.8901 1985.25,254.14 1945.91,275.38 " fill="transparent" id="logic_arc_int__baselibs__bit_manipulation-backto-comp_arc_sta__baselibs__bit_manipulation" style="stroke:#181818;stroke-width:1;"/><polygon fill="#181818" points="2087.85,198.75,2078.0301,199.5053,2083.4501,201.1251,2081.8303,206.5451,2087.85,198.75" style="stroke:#181818;stroke-width:1;"/><text fill="#000000" font-family="sans-serif" font-size="13" lengthAdjust="spacing" textLength="76.9082" x="2031.5" y="241.5669">implements</text></g><!--reverse link logic_arc_int__baselibs__filesystem to comp_arc_sta__baselibs__filesystem--><g id="link_logic_arc_int__baselibs__filesystem_comp_arc_sta__baselibs__filesystem"><path codeLine="21" d="M2821.379,204.7464 C2822.119,225.9764 2823.09,253.94 2823.83,275.19 " fill="transparent" id="logic_arc_int__baselibs__filesystem-backto-comp_arc_sta__baselibs__filesystem" style="stroke:#181818;stroke-width:1;"/><polygon fill="#181818" points="2821.17,198.75,2817.4859,207.8839,2821.3442,203.747,2825.4811,207.6052,2821.17,198.75" style="stroke:#181818;stroke-width:1;"/><text fill="#000000" font-family="sans-serif" font-size="13" lengthAdjust="spacing" textLength="76.9082" x="2824.5" y="241.5669">implements</text></g><!--link Feature_User to logic_arc_int__baselibs__json--><g id="link_Feature_User_logic_arc_int__baselibs__json"><path codeLine="22" d="M1714.42,50.36 C1586.93,66.95 1212.91,115.85 902.5,158.5 C896.8,159.28 896.9029,159.264 891.0029,160.084 " fill="transparent" id="Feature_User-to-logic_arc_int__baselibs__json" style="stroke:#181818;stroke-width:1;"/><polygon fill="#181818" points="885.06,160.91,894.525,163.633,890.0124,160.2217,893.4237,155.7091,885.06,160.91" style="stroke:#181818;stroke-width:1;"/><text fill="#000000" font-family="sans-serif" font-size="13" lengthAdjust="spacing" textLength="23.0103" x="1233.5" y="124.5669">use</text></g><!--link Feature_User to logic_arc_int__baselibs__message_passing--><g id="link_Feature_User_logic_arc_int__baselibs__message_passing"><path codeLine="23" d="M1804.52,52.77 C1918.28,73.67 2213.7388,127.9459 2373.9888,157.3859 " fill="transparent" id="Feature_User-to-logic_arc_int__baselibs__message_passing" style="stroke:#181818;stroke-width:1;"/><polygon fill="#181818" points="2379.89,158.47,2371.7609,152.9096,2374.9723,157.5666,2370.3154,160.778,2379.89,158.47" style="stroke:#181818;stroke-width:1;"/><text fill="#000000" font-family="sans-serif" font-size="13" lengthAdjust="spacing" textLength="23.0103" x="2209.5" y="124.5669">use</text></g><!--link Feature_User to logic_arc_int__baselibs__bit_manipulation--><g id="link_Feature_User_logic_arc_int__baselibs__bit_manipulation"><path codeLine="24" d="M1804.86,61.08 C1872.62,85.83 1994.2645,130.2807 2065.7445,156.4007 " fill="transparent" id="Feature_User-to-logic_arc_int__baselibs__bit_manipulation" style="stroke:#181818;stroke-width:1;"/><polygon fill="#181818" points="2071.38,158.46,2064.2996,151.614,2066.6837,156.7439,2061.5538,159.128,2071.38,158.46" style="stroke:#181818;stroke-width:1;"/><text fill="#000000" font-family="sans-serif" font-size="13" lengthAdjust="spacing" textLength="23.0103" x="1986.5" y="124.5669">use</text></g><!--reverse link logic_arc_int__baselibs__utils_base64 to comp_arc_sta__baselibs__utils--><g id="link_logic_arc_int__baselibs__utils_base64_comp_arc_sta__baselibs__utils"><path codeLine="25" d="M3457.0799,202.1113 C3425.5999,223.4013 3380.16,254.14 3348.76,275.38 " fill="transparent" id="logic_arc_int__baselibs__utils_base64-backto-comp_arc_sta__baselibs__utils" style="stroke:#181818;stroke-width:1;"/><polygon fill="#181818" points="3462.05,198.75,3452.354,200.4785,3457.9083,201.5511,3456.8357,207.1053,3462.05,198.75" style="stroke:#181818;stroke-width:1;"/><text fill="#000000" font-family="sans-serif" font-size="13" lengthAdjust="spacing" textLength="76.9082" x="3416.5" y="241.5669">implements</text></g><!--reverse link logic_arc_int__baselibs__message_passing to comp_arc_sta__baselibs__message_passing--><g id="link_logic_arc_int__baselibs__message_passing_comp_arc_sta__baselibs__message_passing"><path codeLine="26" d="M2482.4002,204.7444 C2481.4802,225.9744 2480.26,253.94 2479.34,275.19 " fill="transparent" id="logic_arc_int__baselibs__message_passing-backto-comp_arc_sta__baselibs__message_passing" style="stroke:#181818;stroke-width:1;"/><polygon fill="#181818" points="2482.66,198.75,2478.2741,207.5684,2482.4435,203.7453,2486.2666,207.9147,2482.66,198.75" style="stroke:#181818;stroke-width:1;"/><text fill="#000000" font-family="sans-serif" font-size="13" lengthAdjust="spacing" textLength="76.9082" x="2482.5" y="241.5669">implements</text></g><!--link Feature_User to logic_arc_int__baselibs__utils_base64--><g id="link_Feature_User_logic_arc_int__baselibs__utils_base64"><path codeLine="27" d="M1804.75,47.08 C1992.1,57.92 2725.33,101.83 3326.5,158.5 C3332.35,159.05 3332.3405,159.0361 3338.3705,159.6461 " fill="transparent" id="Feature_User-to-logic_arc_int__baselibs__utils_base64" style="stroke:#181818;stroke-width:1;"/><polygon fill="#181818" points="3344.34,160.25,3335.7883,155.3645,3339.3654,159.7468,3334.9831,163.3239,3344.34,160.25" style="stroke:#181818;stroke-width:1;"/><text fill="#000000" font-family="sans-serif" font-size="13" lengthAdjust="spacing" textLength="23.0103" x="2984.5" y="124.5669">use</text></g><!--reverse link logic_arc_int__baselibs__dynamic_array to comp_arc_sta__baselibs__containers--><g id="link_logic_arc_int__baselibs__dynamic_array_comp_arc_sta__baselibs__containers"><path codeLine="28" d="M1360.8783,201.5592 C1320.6983,222.8492 1261.66,254.14 1221.58,275.38 " fill="transparent" id="logic_arc_int__baselibs__dynamic_array-backto-comp_arc_sta__baselibs__containers" style="stroke:#181818;stroke-width:1;"/><polygon fill="#181818" points="1366.18,198.75,1356.3546,199.4293,1361.7619,201.091,1360.1002,206.4983,1366.18,198.75" style="stroke:#181818;stroke-width:1;"/><text fill="#000000" font-family="sans-serif" font-size="13" lengthAdjust="spacing" textLength="76.9082" x="1308.5" y="241.5669">implements</text></g><!--link Feature_User to logic_arc_int__baselibs__bit_mask_operator--><g id="link_Feature_User_logic_arc_int__baselibs__bit_mask_operator"><path codeLine="29" d="M1759.5,81.55 C1759.5,106.45 1759.5,132.26 1759.5,152.26 " fill="transparent" id="Feature_User-to-logic_arc_int__baselibs__bit_mask_operator" style="stroke:#181818;stroke-width:1;"/><polygon fill="#181818" points="1759.5,158.26,1763.5,149.26,1759.5,153.26,1755.5,149.26,1759.5,158.26" style="stroke:#181818;stroke-width:1;"/><text fill="#000000" font-family="sans-serif" font-size="13" lengthAdjust="spacing" textLength="23.0103" x="1760.5" y="124.5669">use</text></g><!--reverse link logic_arc_int__baselibs__json to comp_arc_sta__baselibs__json--><g id="link_logic_arc_int__baselibs__json_comp_arc_sta__baselibs__json"><path codeLine="30" d="M770.4777,204.7317 C772.1377,225.9617 774.33,253.94 775.99,275.19 " fill="transparent" id="logic_arc_int__baselibs__json-backto-comp_arc_sta__baselibs__json" style="stroke:#181818;stroke-width:1;"/><polygon fill="#181818" points="770.01,198.75,766.7238,208.0344,770.3998,203.7348,774.6994,207.4108,770.01,198.75" style="stroke:#181818;stroke-width:1;"/><text fill="#000000" font-family="sans-serif" font-size="13" lengthAdjust="spacing" textLength="76.9082" x="775.5" y="241.5669">implements</text></g><!--reverse link logic_arc_int__baselibs__intrusive_list to comp_arc_sta__baselibs__containers--><g id="link_logic_arc_int__baselibs__intrusive_list_comp_arc_sta__baselibs__containers"><path codeLine="31" d="M1090.7337,202.9203 C1112.6937,224.1503 1143.52,253.94 1165.52,275.19 " fill="transparent" id="logic_arc_int__baselibs__intrusive_list-backto-comp_arc_sta__baselibs__containers" style="stroke:#181818;stroke-width:1;"/><polygon fill="#181818" points="1086.42,198.75,1090.1104,207.8813,1090.0148,202.2253,1095.6708,202.1297,1086.42,198.75" style="stroke:#181818;stroke-width:1;"/><text fill="#000000" font-family="sans-serif" font-size="13" lengthAdjust="spacing" textLength="76.9082" x="1134.5" y="241.5669">implements</text></g><!--reverse link logic_arc_int__baselibs__memory_shared to comp_arc_sta__baselibs__memory_shared--><g id="link_logic_arc_int__baselibs__memory_shared_comp_arc_sta__baselibs__memory_shared"><path codeLine="32" d="M458.5,204.75 C458.5,225.98 458.5,253.94 458.5,275.19 " fill="transparent" id="logic_arc_int__baselibs__memory_shared-backto-comp_arc_sta__baselibs__memory_shared" style="stroke:#181818;stroke-width:1;"/><polygon fill="#181818" points="458.5,198.75,454.5,207.75,458.5,203.75,462.5,207.75,458.5,198.75" style="stroke:#181818;stroke-width:1;"/><text fill="#000000" font-family="sans-serif" font-size="13" lengthAdjust="spacing" textLength="76.9082" x="459.5" y="241.5669">implements</text></g><!--reverse link logic_arc_int__baselibs__bit_mask_operator to comp_arc_sta__baselibs__bit_manipulation--><g id="link_logic_arc_int__baselibs__bit_mask_operator_comp_arc_sta__baselibs__bit_manipulation"><path codeLine="33" d="M1789.5436,202.3849 C1817.5036,223.6749 1857.51,254.14 1885.4,275.38 " fill="transparent" id="logic_arc_int__baselibs__bit_mask_operator-backto-comp_arc_sta__baselibs__bit_manipulation" style="stroke:#181818;stroke-width:1;"/><polygon fill="#181818" points="1784.77,198.75,1789.5072,207.3847,1788.748,201.7791,1794.3537,201.0199,1784.77,198.75" style="stroke:#181818;stroke-width:1;"/><text fill="#000000" font-family="sans-serif" font-size="13" lengthAdjust="spacing" textLength="76.9082" x="1845.5" y="241.5669">implements</text></g><!--reverse link logic_arc_int__baselibs__result to comp_arc_sta__baselibs__result--><g id="link_logic_arc_int__baselibs__result_comp_arc_sta__baselibs__result"><path codeLine="34" d="M137.4002,204.7444 C136.4802,225.9744 135.26,253.94 134.34,275.19 " fill="transparent" id="logic_arc_int__baselibs__result-backto-comp_arc_sta__baselibs__result" style="stroke:#181818;stroke-width:1;"/><polygon fill="#181818" points="137.66,198.75,133.2741,207.5684,137.4435,203.7453,141.2666,207.9147,137.66,198.75" style="stroke:#181818;stroke-width:1;"/><text fill="#000000" font-family="sans-serif" font-size="13" lengthAdjust="spacing" textLength="76.9082" x="137.5" y="241.5669">implements</text></g><!--link Feature_User to logic_arc_int__baselibs__intrusive_list--><g id="link_Feature_User_logic_arc_int__baselibs__intrusive_list"><path codeLine="35" d="M1714.3,53.18 C1603.85,74.37 1324.1024,128.0589 1171.6724,157.3189 " fill="transparent" id="Feature_User-to-logic_arc_int__baselibs__intrusive_list" style="stroke:#181818;stroke-width:1;"/><polygon fill="#181818" points="1165.78,158.45,1175.3727,160.6816,1170.6904,157.5074,1173.8646,152.8251,1165.78,158.45" style="stroke:#181818;stroke-width:1;"/><text fill="#000000" font-family="sans-serif" font-size="13" lengthAdjust="spacing" textLength="23.0103" x="1393.5" y="124.5669">use</text></g><!--link Feature_User to logic_arc_int__baselibs__dynamic_array--><g id="link_Feature_User_logic_arc_int__baselibs__dynamic_array"><path codeLine="36" d="M1714.29,61.34 C1647.68,86.16 1529.1725,130.3053 1459.3025,156.3353 " fill="transparent" id="Feature_User-to-logic_arc_int__baselibs__dynamic_array" style="stroke:#181818;stroke-width:1;"/><polygon fill="#181818" points="1453.68,158.43,1463.5102,159.0363,1458.3654,156.6845,1460.7173,151.5397,1453.68,158.43" style="stroke:#181818;stroke-width:1;"/><text fill="#000000" font-family="sans-serif" font-size="13" lengthAdjust="spacing" textLength="23.0103" x="1571.5" y="124.5669">use</text></g><!--SRC=[jLJBJiD03BplLwoujo24EA2g5oHE7E6ySXBJckvBQmU84F_E9YcY3q6I2evExB4zunsmDhmQHs_aLqf2r19q4KI2qnKbB8M2LskgKBDWmY1Dn3v65wNH89Aeg0LPBLWQYqir1oPRw7TrJnvlWmr99woww65DvSOZixwSNwWFjJZVrYWe9UUTtI58dL0_CgOp3Qot7qpxGIkr5ywgsLBRiABIG2eDUJ6c04PB1HlZq8NK65v3xdwZQqOzfJmXrrQcrpsHHMuoMMvwRIrasN0P8bOcn2r06LpiibdWA5lFwac8vA95XrxuP-22n3Zm56iBhVu3FGxJnpNvvca0VfVGNU09l3vpEzLKDLo-KrYXYS2SNyTqW6DY_aZFDhw-6iVpmHO3-4SxdyZu_fo_hbq6Bv2z8GtjNZKUNFShGNFoPBqelCcl0HDaqnaOhxsTWS7wyneZnkXTSvXgfXSqbbZ6AhrZU8CwxvdZlxd27izZklIsEu3zvSqddi0XkLFVzS4XTkMV]--></g></svg>