<svg xmlns="http://www.w3.org/2000/svg" xmlns:xlink="http://www.w3.org/1999/xlink" contentStyleType="text/css" data-diagram-type="CLASS" height="322px" preserveAspectRatio="none" style="width:6205px;height:322px;background:#FFFFFF;" version="1.1" viewBox="0 0 6205 322" width="6205px" zoomAndPan="magnify"><defs/><g><!--entity Feature_User--><g id="elem_Feature_User"><ellipse cx="3124.6685" cy="14" fill="#F1F1F1" rx="8" ry="8" style="stroke:#181818;stroke-width:0.5;"/><path d="M3124.6685,22 L3124.6685,49 M3111.6685,30 L3137.6685,30 M3124.6685,49 L3111.6685,64 M3124.6685,49 L3137.6685,64 " fill="transparent" style="stroke:#181818;stroke-width:0.5;"/><text fill="#000000" font-family="sans-serif" font-size="14" lengthAdjust="spacing" textLength="90.3369" x="3079.5" y="78.4951">Feature User</text></g><!--class logic_arc_int__baselibs__future--><g id="elem_logic_arc_int__baselibs__future"><rect fill="#F1F1F1" height="40" id="logic_arc_int__baselibs__future" rx="2.5" ry="2.5" style="stroke:#181818;stroke-width:0.5;" width="247.0791" x="2399" y="158.5"/><ellipse cx="2414" cy="174.5" fill="#ADD1B2" rx="11" ry="11" style="stroke:#181818;stroke-width:1;"/><path d="M2416.9688,180.1406 Q2416.3906,180.4375 2415.75,180.5781 Q2415.1094,180.7344 2414.4063,180.7344 Q2411.9063,180.7344 2410.5781,179.0938 Q2409.2656,177.4375 2409.2656,174.3125 Q2409.2656,171.1875 2410.5781,169.5313 Q2411.9063,167.875 2414.4063,167.875 Q2415.1094,167.875 2415.75,168.0313 Q2416.4063,168.1875 2416.9688,168.4844 L2416.9688,171.2031 Q2416.3438,170.625 2415.75,170.3594 Q2415.1563,170.0781 2414.5313,170.0781 Q2413.1875,170.0781 2412.5,171.1563 Q2411.8125,172.2188 2411.8125,174.3125 Q2411.8125,176.4063 2412.5,177.4844 Q2413.1875,178.5469 2414.5313,178.5469 Q2415.1563,178.5469 2415.75,178.2813 Q2416.3438,178 2416.9688,177.4219 L2416.9688,180.1406 Z " fill="#000000"/><text fill="#000000" font-family="sans-serif" font-size="14" lengthAdjust="spacing" textLength="215.0791" x="2428" y="179.3467">logic_arc_int__baselibs__future</text><line style="stroke:#181818;stroke-width:0.5;" x1="2400" x2="2645.0791" y1="190.5" y2="190.5"/></g><!--class comp_arc_sta__baselibs__result--><g id="elem_comp_arc_sta__baselibs__result"><rect fill="#F1F1F1" height="40" id="comp_arc_sta__baselibs__result" rx="2.5" ry="2.5" style="stroke:#181818;stroke-width:0.5;" width="253.4297" x="5945" y="275.5"/><ellipse cx="5960" cy="291.5" fill="#ADD1B2" rx="11" ry="11" style="stroke:#181818;stroke-width:1;"/><path d="M5962.9688,297.1406 Q5962.3906,297.4375 5961.75,297.5781 Q5961.1094,297.7344 5960.4063,297.7344 Q5957.9063,297.7344 5956.5781,296.0938 Q5955.2656,294.4375 5955.2656,291.3125 Q5955.2656,288.1875 5956.5781,286.5313 Q5957.9063,284.875 5960.4063,284.875 Q5961.1094,284.875 5961.75,285.0313 Q5962.4063,285.1875 5962.9688,285.4844 L5962.9688,288.2031 Q5962.3438,287.625 5961.75,287.3594 Q5961.1563,287.0781 5960.5313,287.0781 Q5959.1875,287.0781 5958.5,288.1563 Q5957.8125,289.2188 5957.8125,291.3125 Q5957.8125,293.4063 5958.5,294.4844 Q5959.1875,295.5469 5960.5313,295.5469 Q5961.1563,295.5469 5961.75,295.2813 Q5962.3438,295 5962.9688,294.4219 L5962.9688,297.1406 Z " fill="#000000"/><text fill="#000000" font-family="sans-serif" font-size="14" lengthAdjust="spacing" textLength="221.4297" x="5974" y="296.3467">comp_arc_sta__baselibs__result</text><line style="stroke:#181818;stroke-width:0.5;" x1="5946" x2="6197.4297" y1="307.5" y2="307.5"/></g><!--class logic_arc_int__baselibs__result--><g id="elem_logic_arc_int__baselibs__result"><rect fill="#F1F1F1" height="40" id="logic_arc_int__baselibs__result" rx="2.5" ry="2.5" style="stroke:#181818;stroke-width:0.5;" width="244.4609" x="5947.5" y="158.5"/><ellipse cx="5962.5" cy="174.5" fill="#ADD1B2" rx="11" ry="11" style="stroke:#181818;stroke-width:1;"/><path d="M5965.4688,180.1406 Q5964.8906,180.4375 5964.25,180.5781 Q5963.6094,180.7344 5962.9063,180.7344 Q5960.4063,180.7344 5959.0781,179.0938 Q5957.7656,177.4375 5957.7656,174.3125 Q5957.7656,171.1875 5959.0781,169.5313 Q5960.4063,167.875 5962.9063,167.875 Q5963.6094,167.875 5964.25,168.0313 Q5964.9063,168.1875 5965.4688,168.4844 L5965.4688,171.2031 Q5964.8438,170.625 5964.25,170.3594 Q5963.6563,170.0781 5963.0313,170.0781 Q5961.6875,170.0781 5961,171.1563 Q5960.3125,172.2188 5960.3125,174.3125 Q5960.3125,176.4063 5961,177.4844 Q5961.6875,178.5469 5963.0313,178.5469 Q5963.6563,178.5469 5964.25,178.2813 Q5964.8438,178 5965.4688,177.4219 L5965.4688,180.1406 Z " fill="#000000"/><text fill="#000000" font-family="sans-serif" font-size="14" lengthAdjust="spacing" textLength="212.4609" x="5976.5" y="179.3467">logic_arc_int__baselibs__result</text><line style="stroke:#181818;stroke-width:0.5;" x1="5948.5" x2="6190.9609" y1="190.5" y2="190.5"/></g><!--class comp_arc_sta__baselibs__concurrency--><g id="elem_comp_arc_sta__baselibs__concurrency"><rect fill="#F1F1F1" height="40" id="comp_arc_sta__baselibs__concurrency" rx="2.5" ry="2.5" style="stroke:#181818;stroke-width:0.5;" width="300.2012" x="3089.5" y="275.5"/><ellipse cx="3104.5" cy="291.5" fill="#ADD1B2" rx="11" ry="11" style="stroke:#181818;stroke-width:1;"/><path d="M3107.4688,297.1406 Q3106.8906,297.4375 3106.25,297.5781 Q3105.6094,297.7344 3104.9063,297.7344 Q3102.4063,297.7344 3101.0781,296.0938 Q3099.7656,294.4375 3099.7656,291.3125 Q3099.7656,288.1875 3101.0781,286.5313 Q3102.4063,284.875 3104.9063,284.875 Q3105.6094,284.875 3106.25,285.0313 Q3106.9063,285.1875 3107.4688,285.4844 L3107.4688,288.2031 Q3106.8438,287.625 3106.25,287.3594 Q3105.6563,287.0781 3105.0313,287.0781 Q3103.6875,287.0781 3103,288.1563 Q3102.3125,289.2188 3102.3125,291.3125 Q3102.3125,293.4063 3103,294.4844 Q3103.6875,295.5469 3105.0313,295.5469 Q3105.6563,295.5469 3106.25,295.2813 Q3106.8438,295 3107.4688,294.4219 L3107.4688,297.1406 Z " fill="#000000"/><text fill="#000000" font-family="sans-serif" font-size="14" lengthAdjust="spacing" textLength="268.2012" x="3118.5" y="296.3467">comp_arc_sta__baselibs__concurrency</text><line style="stroke:#181818;stroke-width:0.5;" x1="3090.5" x2="3388.7012" y1="307.5" y2="307.5"/></g><!--class logic_arc_int__baselibs__task_result--><g id="elem_logic_arc_int__baselibs__task_result"><rect fill="#F1F1F1" height="40" id="logic_arc_int__baselibs__task_result" rx="2.5" ry="2.5" style="stroke:#181818;stroke-width:0.5;" width="280.9307" x="2083" y="158.5"/><ellipse cx="2098" cy="174.5" fill="#ADD1B2" rx="11" ry="11" style="stroke:#181818;stroke-width:1;"/><path d="M2100.9688,180.1406 Q2100.3906,180.4375 2099.75,180.5781 Q2099.1094,180.7344 2098.4063,180.7344 Q2095.9063,180.7344 2094.5781,179.0938 Q2093.2656,177.4375 2093.2656,174.3125 Q2093.2656,171.1875 2094.5781,169.5313 Q2095.9063,167.875 2098.4063,167.875 Q2099.1094,167.875 2099.75,168.0313 Q2100.4063,168.1875 2100.9688,168.4844 L2100.9688,171.2031 Q2100.3438,170.625 2099.75,170.3594 Q2099.1563,170.0781 2098.5313,170.0781 Q2097.1875,170.0781 2096.5,171.1563 Q2095.8125,172.2188 2095.8125,174.3125 Q2095.8125,176.4063 2096.5,177.4844 Q2097.1875,178.5469 2098.5313,178.5469 Q2099.1563,178.5469 2099.75,178.2813 Q2100.3438,178 2100.9688,177.4219 L2100.9688,180.1406 Z " fill="#000000"/><text fill="#000000" font-family="sans-serif" font-size="14" lengthAdjust="spacing" textLength="248.9307" x="2112" y="179.3467">logic_arc_int__baselibs__task_result</text><line style="stroke:#181818;stroke-width:0.5;" x1="2084" x2="2362.9307" y1="190.5" y2="190.5"/></g><!--class logic_arc_int__baselibs__synchronized_queue--><g id="elem_logic_arc_int__baselibs__synchronized_queue"><rect fill="#F1F1F1" height="40" id="logic_arc_int__baselibs__synchronized_queue" rx="2.5" ry="2.5" style="stroke:#181818;stroke-width:0.5;" width="348.3604" x="2950.5" y="158.5"/><ellipse cx="2965.5" cy="174.5" fill="#ADD1B2" rx="11" ry="11" style="stroke:#181818;stroke-width:1;"/><path d="M2968.4688,180.1406 Q2967.8906,180.4375 2967.25,180.5781 Q2966.6094,180.7344 2965.9063,180.7344 Q2963.4063,180.7344 2962.0781,179.0938 Q2960.7656,177.4375 2960.7656,174.3125 Q2960.7656,171.1875 2962.0781,169.5313 Q2963.4063,167.875 2965.9063,167.875 Q2966.6094,167.875 2967.25,168.0313 Q2967.9063,168.1875 2968.4688,168.4844 L2968.4688,171.2031 Q2967.8438,170.625 2967.25,170.3594 Q2966.6563,170.0781 2966.0313,170.0781 Q2964.6875,170.0781 2964,171.1563 Q2963.3125,172.2188 2963.3125,174.3125 Q2963.3125,176.4063 2964,177.4844 Q2964.6875,178.5469 2966.0313,178.5469 Q2966.6563,178.5469 2967.25,178.2813 Q2967.8438,178 2968.4688,177.4219 L2968.4688,180.1406 Z " fill="#000000"/><text fill="#000000" font-family="sans-serif" font-size="14" lengthAdjust="spacing" textLength="316.3604" x="2979.5" y="179.3467">logic_arc_int__baselibs__synchronized_queue</text><line style="stroke:#181818;stroke-width:0.5;" x1="2951.5" x2="3297.8604" y1="190.5" y2="190.5"/></g><!--class logic_arc_int__baselibs__shared_future--><g id="elem_logic_arc_int__baselibs__shared_future"><rect fill="#F1F1F1" height="40" id="logic_arc_int__baselibs__shared_future" rx="2.5" ry="2.5" style="stroke:#181818;stroke-width:0.5;" width="302.0811" x="3998.5" y="158.5"/><ellipse cx="4013.5" cy="174.5" fill="#ADD1B2" rx="11" ry="11" style="stroke:#181818;stroke-width:1;"/><path d="M4016.4688,180.1406 Q4015.8906,180.4375 4015.25,180.5781 Q4014.6094,180.7344 4013.9063,180.7344 Q4011.4063,180.7344 4010.0781,179.0938 Q4008.7656,177.4375 4008.7656,174.3125 Q4008.7656,171.1875 4010.0781,169.5313 Q4011.4063,167.875 4013.9063,167.875 Q4014.6094,167.875 4015.25,168.0313 Q4015.9063,168.1875 4016.4688,168.4844 L4016.4688,171.2031 Q4015.8438,170.625 4015.25,170.3594 Q4014.6563,170.0781 4014.0313,170.0781 Q4012.6875,170.0781 4012,171.1563 Q4011.3125,172.2188 4011.3125,174.3125 Q4011.3125,176.4063 4012,177.4844 Q4012.6875,178.5469 4014.0313,178.5469 Q4014.6563,178.5469 4015.25,178.2813 Q4015.8438,178 4016.4688,177.4219 L4016.4688,180.1406 Z " fill="#000000"/><text fill="#000000" font-family="sans-serif" font-size="14" lengthAdjust="spacing" textLength="270.0811" x="4027.5" y="179.3467">logic_arc_int__baselibs__shared_future</text><line style="stroke:#181818;stroke-width:0.5;" x1="3999.5" x2="4299.5811" y1="190.5" y2="190.5"/></g><!--class logic_arc_int__baselibs__executor--><g id="elem_logic_arc_int__baselibs__executor"><rect fill="#F1F1F1" height="40" id="logic_arc_int__baselibs__executor" rx="2.5" ry="2.5" style="stroke:#181818;stroke-width:0.5;" width="266.4385" x="4335.5" y="158.5"/><ellipse cx="4350.5" cy="174.5" fill="#ADD1B2" rx="11" ry="11" style="stroke:#181818;stroke-width:1;"/><path d="M4353.4688,180.1406 Q4352.8906,180.4375 4352.25,180.5781 Q4351.6094,180.7344 4350.9063,180.7344 Q4348.4063,180.7344 4347.0781,179.0938 Q4345.7656,177.4375 4345.7656,174.3125 Q4345.7656,171.1875 4347.0781,169.5313 Q4348.4063,167.875 4350.9063,167.875 Q4351.6094,167.875 4352.25,168.0313 Q4352.9063,168.1875 4353.4688,168.4844 L4353.4688,171.2031 Q4352.8438,170.625 4352.25,170.3594 Q4351.6563,170.0781 4351.0313,170.0781 Q4349.6875,170.0781 4349,171.1563 Q4348.3125,172.2188 4348.3125,174.3125 Q4348.3125,176.4063 4349,177.4844 Q4349.6875,178.5469 4351.0313,178.5469 Q4351.6563,178.5469 4352.25,178.2813 Q4352.8438,178 4353.4688,177.4219 L4353.4688,180.1406 Z " fill="#000000"/><text fill="#000000" font-family="sans-serif" font-size="14" lengthAdjust="spacing" textLength="234.4385" x="4364.5" y="179.3467">logic_arc_int__baselibs__executor</text><line style="stroke:#181818;stroke-width:0.5;" x1="4336.5" x2="4600.9385" y1="190.5" y2="190.5"/></g><!--class comp_arc_sta__baselibs__json--><g id="elem_comp_arc_sta__baselibs__json"><rect fill="#F1F1F1" height="40" id="comp_arc_sta__baselibs__json" rx="2.5" ry="2.5" style="stroke:#181818;stroke-width:0.5;" width="242.1367" x="5667.5" y="275.5"/><ellipse cx="5682.5" cy="291.5" fill="#ADD1B2" rx="11" ry="11" style="stroke:#181818;stroke-width:1;"/><path d="M5685.4688,297.1406 Q5684.8906,297.4375 5684.25,297.5781 Q5683.6094,297.7344 5682.9063,297.7344 Q5680.4063,297.7344 5679.0781,296.0938 Q5677.7656,294.4375 5677.7656,291.3125 Q5677.7656,288.1875 5679.0781,286.5313 Q5680.4063,284.875 5682.9063,284.875 Q5683.6094,284.875 5684.25,285.0313 Q5684.9063,285.1875 5685.4688,285.4844 L5685.4688,288.2031 Q5684.8438,287.625 5684.25,287.3594 Q5683.6563,287.0781 5683.0313,287.0781 Q5681.6875,287.0781 5681,288.1563 Q5680.3125,289.2188 5680.3125,291.3125 Q5680.3125,293.4063 5681,294.4844 Q5681.6875,295.5469 5683.0313,295.5469 Q5683.6563,295.5469 5684.25,295.2813 Q5684.8438,295 5685.4688,294.4219 L5685.4688,297.1406 Z " fill="#000000"/><text fill="#000000" font-family="sans-serif" font-size="14" lengthAdjust="spacing" textLength="210.1367" x="5696.5" y="296.3467">comp_arc_sta__baselibs__json</text><line style="stroke:#181818;stroke-width:0.5;" x1="5668.5" x2="5908.6367" y1="307.5" y2="307.5"/></g><!--class logic_arc_int__baselibs__json--><g id="elem_logic_arc_int__baselibs__json"><rect fill="#F1F1F1" height="40" id="logic_arc_int__baselibs__json" rx="2.5" ry="2.5" style="stroke:#181818;stroke-width:0.5;" width="233.168" x="5675" y="158.5"/><ellipse cx="5690" cy="174.5" fill="#ADD1B2" rx="11" ry="11" style="stroke:#181818;stroke-width:1;"/><path d="M5692.9688,180.1406 Q5692.3906,180.4375 5691.75,180.5781 Q5691.1094,180.7344 5690.4063,180.7344 Q5687.9063,180.7344 5686.5781,179.0938 Q5685.2656,177.4375 5685.2656,174.3125 Q5685.2656,171.1875 5686.5781,169.5313 Q5687.9063,167.875 5690.4063,167.875 Q5691.1094,167.875 5691.75,168.0313 Q5692.4063,168.1875 5692.9688,168.4844 L5692.9688,171.2031 Q5692.3438,170.625 5691.75,170.3594 Q5691.1563,170.0781 5690.5313,170.0781 Q5689.1875,170.0781 5688.5,171.1563 Q5687.8125,172.2188 5687.8125,174.3125 Q5687.8125,176.4063 5688.5,177.4844 Q5689.1875,178.5469 5690.5313,178.5469 Q5691.1563,178.5469 5691.75,178.2813 Q5692.3438,178 5692.9688,177.4219 L5692.9688,180.1406 Z " fill="#000000"/><text fill="#000000" font-family="sans-serif" font-size="14" lengthAdjust="spacing" textLength="201.168" x="5704" y="179.3467">logic_arc_int__baselibs__json</text><line style="stroke:#181818;stroke-width:0.5;" x1="5676" x2="5907.168" y1="190.5" y2="190.5"/></g><!--class logic_arc_int__baselibs__condition_variable--><g id="elem_logic_arc_int__baselibs__condition_variable"><rect fill="#F1F1F1" height="40" id="logic_arc_int__baselibs__condition_variable" rx="2.5" ry="2.5" style="stroke:#181818;stroke-width:0.5;" width="332.7539" x="3630" y="158.5"/><ellipse cx="3645" cy="174.5" fill="#ADD1B2" rx="11" ry="11" style="stroke:#181818;stroke-width:1;"/><path d="M3647.9688,180.1406 Q3647.3906,180.4375 3646.75,180.5781 Q3646.1094,180.7344 3645.4063,180.7344 Q3642.9063,180.7344 3641.5781,179.0938 Q3640.2656,177.4375 3640.2656,174.3125 Q3640.2656,171.1875 3641.5781,169.5313 Q3642.9063,167.875 3645.4063,167.875 Q3646.1094,167.875 3646.75,168.0313 Q3647.4063,168.1875 3647.9688,168.4844 L3647.9688,171.2031 Q3647.3438,170.625 3646.75,170.3594 Q3646.1563,170.0781 3645.5313,170.0781 Q3644.1875,170.0781 3643.5,171.1563 Q3642.8125,172.2188 3642.8125,174.3125 Q3642.8125,176.4063 3643.5,177.4844 Q3644.1875,178.5469 3645.5313,178.5469 Q3646.1563,178.5469 3646.75,178.2813 Q3647.3438,178 3647.9688,177.4219 L3647.9688,180.1406 Z " fill="#000000"/><text fill="#000000" font-family="sans-serif" font-size="14" lengthAdjust="spacing" textLength="300.7539" x="3659" y="179.3467">logic_arc_int__baselibs__condition_variable</text><line style="stroke:#181818;stroke-width:0.5;" x1="3631" x2="3961.7539" y1="190.5" y2="190.5"/></g><!--class logic_arc_int__baselibs__dynamic_array--><g id="elem_logic_arc_int__baselibs__dynamic_array"><rect fill="#F1F1F1" height="40" id="logic_arc_int__baselibs__dynamic_array" rx="2.5" ry="2.5" style="stroke:#181818;stroke-width:0.5;" width="308.3496" x="1062.5" y="158.5"/><ellipse cx="1077.5" cy="174.5" fill="#ADD1B2" rx="11" ry="11" style="stroke:#181818;stroke-width:1;"/><path d="M1080.4688,180.1406 Q1079.8906,180.4375 1079.25,180.5781 Q1078.6094,180.7344 1077.9063,180.7344 Q1075.4063,180.7344 1074.0781,179.0938 Q1072.7656,177.4375 1072.7656,174.3125 Q1072.7656,171.1875 1074.0781,169.5313 Q1075.4063,167.875 1077.9063,167.875 Q1078.6094,167.875 1079.25,168.0313 Q1079.9063,168.1875 1080.4688,168.4844 L1080.4688,171.2031 Q1079.8438,170.625 1079.25,170.3594 Q1078.6563,170.0781 1078.0313,170.0781 Q1076.6875,170.0781 1076,171.1563 Q1075.3125,172.2188 1075.3125,174.3125 Q1075.3125,176.4063 1076,177.4844 Q1076.6875,178.5469 1078.0313,178.5469 Q1078.6563,178.5469 1079.25,178.2813 Q1079.8438,178 1080.4688,177.4219 L1080.4688,180.1406 Z " fill="#000000"/><text fill="#000000" font-family="sans-serif" font-size="14" lengthAdjust="spacing" textLength="276.3496" x="1091.5" y="179.3467">logic_arc_int__baselibs__dynamic_array</text><line style="stroke:#181818;stroke-width:0.5;" x1="1063.5" x2="1369.8496" y1="190.5" y2="190.5"/></g><!--class logic_arc_int__baselibs__intrusive_list--><g id="elem_logic_arc_int__baselibs__intrusive_list"><rect fill="#F1F1F1" height="40" id="logic_arc_int__baselibs__intrusive_list" rx="2.5" ry="2.5" style="stroke:#181818;stroke-width:0.5;" width="293.0713" x="734" y="158.5"/><ellipse cx="749" cy="174.5" fill="#ADD1B2" rx="11" ry="11" style="stroke:#181818;stroke-width:1;"/><path d="M751.9688,180.1406 Q751.3906,180.4375 750.75,180.5781 Q750.1094,180.7344 749.4063,180.7344 Q746.9063,180.7344 745.5781,179.0938 Q744.2656,177.4375 744.2656,174.3125 Q744.2656,171.1875 745.5781,169.5313 Q746.9063,167.875 749.4063,167.875 Q750.1094,167.875 750.75,168.0313 Q751.4063,168.1875 751.9688,168.4844 L751.9688,171.2031 Q751.3438,170.625 750.75,170.3594 Q750.1563,170.0781 749.5313,170.0781 Q748.1875,170.0781 747.5,171.1563 Q746.8125,172.2188 746.8125,174.3125 Q746.8125,176.4063 747.5,177.4844 Q748.1875,178.5469 749.5313,178.5469 Q750.1563,178.5469 750.75,178.2813 Q751.3438,178 751.9688,177.4219 L751.9688,180.1406 Z " fill="#000000"/><text fill="#000000" font-family="sans-serif" font-size="14" lengthAdjust="spacing" textLength="261.0713" x="763" y="179.3467">logic_arc_int__baselibs__intrusive_list</text><line style="stroke:#181818;stroke-width:0.5;" x1="735" x2="1026.0713" y1="190.5" y2="190.5"/></g><!--class comp_arc_sta__baselibs__bit_manipulation--><g id="elem_comp_arc_sta__baselibs__bit_manipulation"><rect fill="#F1F1F1" height="40" id="comp_arc_sta__baselibs__bit_manipulation" rx="2.5" ry="2.5" style="stroke:#181818;stroke-width:0.5;" width="330.8057" x="5130" y="275.5"/><ellipse cx="5145" cy="291.5" fill="#ADD1B2" rx="11" ry="11" style="stroke:#181818;stroke-width:1;"/><path d="M5147.9688,297.1406 Q5147.3906,297.4375 5146.75,297.5781 Q5146.1094,297.7344 5145.4063,297.7344 Q5142.9063,297.7344 5141.5781,296.0938 Q5140.2656,294.4375 5140.2656,291.3125 Q5140.2656,288.1875 5141.5781,286.5313 Q5142.9063,284.875 5145.4063,284.875 Q5146.1094,284.875 5146.75,285.0313 Q5147.4063,285.1875 5147.9688,285.4844 L5147.9688,288.2031 Q5147.3438,287.625 5146.75,287.3594 Q5146.1563,287.0781 5145.5313,287.0781 Q5144.1875,287.0781 5143.5,288.1563 Q5142.8125,289.2188 5142.8125,291.3125 Q5142.8125,293.4063 5143.5,294.4844 Q5144.1875,295.5469 5145.5313,295.5469 Q5146.1563,295.5469 5146.75,295.2813 Q5147.3438,295 5147.9688,294.4219 L5147.9688,297.1406 Z " fill="#000000"/><text fill="#000000" font-family="sans-serif" font-size="14" lengthAdjust="spacing" textLength="298.8057" x="5159" y="296.3467">comp_arc_sta__baselibs__bit_manipulation</text><line style="stroke:#181818;stroke-width:0.5;" x1="5131" x2="5459.8057" y1="307.5" y2="307.5"/></g><!--class logic_arc_int__baselibs__bit_manipulation--><g id="elem_logic_arc_int__baselibs__bit_manipulation"><rect fill="#F1F1F1" height="40" id="logic_arc_int__baselibs__bit_manipulation" rx="2.5" ry="2.5" style="stroke:#181818;stroke-width:0.5;" width="321.8369" x="4947.5" y="158.5"/><ellipse cx="4962.5" cy="174.5" fill="#ADD1B2" rx="11" ry="11" style="stroke:#181818;stroke-width:1;"/><path d="M4965.4688,180.1406 Q4964.8906,180.4375 4964.25,180.5781 Q4963.6094,180.7344 4962.9063,180.7344 Q4960.4063,180.7344 4959.0781,179.0938 Q4957.7656,177.4375 4957.7656,174.3125 Q4957.7656,171.1875 4959.0781,169.5313 Q4960.4063,167.875 4962.9063,167.875 Q4963.6094,167.875 4964.25,168.0313 Q4964.9063,168.1875 4965.4688,168.4844 L4965.4688,171.2031 Q4964.8438,170.625 4964.25,170.3594 Q4963.6563,170.0781 4963.0313,170.0781 Q4961.6875,170.0781 4961,171.1563 Q4960.3125,172.2188 4960.3125,174.3125 Q4960.3125,176.4063 4961,177.4844 Q4961.6875,178.5469 4963.0313,178.5469 Q4963.6563,178.5469 4964.25,178.2813 Q4964.8438,178 4965.4688,177.4219 L4965.4688,180.1406 Z " fill="#000000"/><text fill="#000000" font-family="sans-serif" font-size="14" lengthAdjust="spacing" textLength="289.8369" x="4976.5" y="179.3467">logic_arc_int__baselibs__bit_manipulation</text><line style="stroke:#181818;stroke-width:0.5;" x1="4948.5" x2="5268.3369" y1="190.5" y2="190.5"/></g><!--class logic_arc_int__baselibs__message_passing--><g id="elem_logic_arc_int__baselibs__message_passing"><rect fill="#F1F1F1" height="40" id="logic_arc_int__baselibs__message_passing" rx="2.5" ry="2.5" style="stroke:#181818;stroke-width:0.5;" width="328.167" x="15.5" y="158.5"/><ellipse cx="30.5" cy="174.5" fill="#ADD1B2" rx="11" ry="11" style="stroke:#181818;stroke-width:1;"/><path d="M33.4688,180.1406 Q32.8906,180.4375 32.25,180.5781 Q31.6094,180.7344 30.9063,180.7344 Q28.4063,180.7344 27.0781,179.0938 Q25.7656,177.4375 25.7656,174.3125 Q25.7656,171.1875 27.0781,169.5313 Q28.4063,167.875 30.9063,167.875 Q31.6094,167.875 32.25,168.0313 Q32.9063,168.1875 33.4688,168.4844 L33.4688,171.2031 Q32.8438,170.625 32.25,170.3594 Q31.6563,170.0781 31.0313,170.0781 Q29.6875,170.0781 29,171.1563 Q28.3125,172.2188 28.3125,174.3125 Q28.3125,176.4063 29,177.4844 Q29.6875,178.5469 31.0313,178.5469 Q31.6563,178.5469 32.25,178.2813 Q32.8438,178 33.4688,177.4219 L33.4688,180.1406 Z " fill="#000000"/><text fill="#000000" font-family="sans-serif" font-size="14" lengthAdjust="spacing" textLength="296.167" x="44.5" y="179.3467">logic_arc_int__baselibs__message_passing</text><line style="stroke:#181818;stroke-width:0.5;" x1="16.5" x2="342.667" y1="190.5" y2="190.5"/></g><!--class logic_arc_int__baselibs__utils_scoped_op--><g id="elem_logic_arc_int__baselibs__utils_scoped_op"><rect fill="#F1F1F1" height="40" id="logic_arc_int__baselibs__utils_scoped_op" rx="2.5" ry="2.5" style="stroke:#181818;stroke-width:0.5;" width="315.377" x="1733" y="158.5"/><ellipse cx="1748" cy="174.5" fill="#ADD1B2" rx="11" ry="11" style="stroke:#181818;stroke-width:1;"/><path d="M1750.9688,180.1406 Q1750.3906,180.4375 1749.75,180.5781 Q1749.1094,180.7344 1748.4063,180.7344 Q1745.9063,180.7344 1744.5781,179.0938 Q1743.2656,177.4375 1743.2656,174.3125 Q1743.2656,171.1875 1744.5781,169.5313 Q1745.9063,167.875 1748.4063,167.875 Q1749.1094,167.875 1749.75,168.0313 Q1750.4063,168.1875 1750.9688,168.4844 L1750.9688,171.2031 Q1750.3438,170.625 1749.75,170.3594 Q1749.1563,170.0781 1748.5313,170.0781 Q1747.1875,170.0781 1746.5,171.1563 Q1745.8125,172.2188 1745.8125,174.3125 Q1745.8125,176.4063 1746.5,177.4844 Q1747.1875,178.5469 1748.5313,178.5469 Q1749.1563,178.5469 1749.75,178.2813 Q1750.3438,178 1750.9688,177.4219 L1750.9688,180.1406 Z " fill="#000000"/><text fill="#000000" font-family="sans-serif" font-size="14" lengthAdjust="spacing" textLength="283.377" x="1762" y="179.3467">logic_arc_int__baselibs__utils_scoped_op</text><line style="stroke:#181818;stroke-width:0.5;" x1="1734" x2="2047.377" y1="190.5" y2="190.5"/></g><!--class comp_arc_sta__baselibs__utils--><g id="elem_comp_arc_sta__baselibs__utils"><rect fill="#F1F1F1" height="40" id="comp_arc_sta__baselibs__utils" rx="2.5" ry="2.5" style="stroke:#181818;stroke-width:0.5;" width="242.9502" x="1572" y="275.5"/><ellipse cx="1587" cy="291.5" fill="#ADD1B2" rx="11" ry="11" style="stroke:#181818;stroke-width:1;"/><path d="M1589.9688,297.1406 Q1589.3906,297.4375 1588.75,297.5781 Q1588.1094,297.7344 1587.4063,297.7344 Q1584.9063,297.7344 1583.5781,296.0938 Q1582.2656,294.4375 1582.2656,291.3125 Q1582.2656,288.1875 1583.5781,286.5313 Q1584.9063,284.875 1587.4063,284.875 Q1588.1094,284.875 1588.75,285.0313 Q1589.4063,285.1875 1589.9688,285.4844 L1589.9688,288.2031 Q1589.3438,287.625 1588.75,287.3594 Q1588.1563,287.0781 1587.5313,287.0781 Q1586.1875,287.0781 1585.5,288.1563 Q1584.8125,289.2188 1584.8125,291.3125 Q1584.8125,293.4063 1585.5,294.4844 Q1586.1875,295.5469 1587.5313,295.5469 Q1588.1563,295.5469 1588.75,295.2813 Q1589.3438,295 1589.9688,294.4219 L1589.9688,297.1406 Z " fill="#000000"/><text fill="#000000" font-family="sans-serif" font-size="14" lengthAdjust="spacing" textLength="210.9502" x="1601" y="296.3467">comp_arc_sta__baselibs__utils</text><line style="stroke:#181818;stroke-width:0.5;" x1="1573" x2="1813.9502" y1="307.5" y2="307.5"/></g><!--class logic_arc_int__baselibs__bit_mask_operator--><g id="elem_logic_arc_int__baselibs__bit_mask_operator"><rect fill="#F1F1F1" height="40" id="logic_arc_int__baselibs__bit_mask_operator" rx="2.5" ry="2.5" style="stroke:#181818;stroke-width:0.5;" width="334.6406" x="5305" y="158.5"/><ellipse cx="5320" cy="174.5" fill="#ADD1B2" rx="11" ry="11" style="stroke:#181818;stroke-width:1;"/><path d="M5322.9688,180.1406 Q5322.3906,180.4375 5321.75,180.5781 Q5321.1094,180.7344 5320.4063,180.7344 Q5317.9063,180.7344 5316.5781,179.0938 Q5315.2656,177.4375 5315.2656,174.3125 Q5315.2656,171.1875 5316.5781,169.5313 Q5317.9063,167.875 5320.4063,167.875 Q5321.1094,167.875 5321.75,168.0313 Q5322.4063,168.1875 5322.9688,168.4844 L5322.9688,171.2031 Q5322.3438,170.625 5321.75,170.3594 Q5321.1563,170.0781 5320.5313,170.0781 Q5319.1875,170.0781 5318.5,171.1563 Q5317.8125,172.2188 5317.8125,174.3125 Q5317.8125,176.4063 5318.5,177.4844 Q5319.1875,178.5469 5320.5313,178.5469 Q5321.1563,178.5469 5321.75,178.2813 Q5322.3438,178 5322.9688,177.4219 L5322.9688,180.1406 Z " fill="#000000"/><text fill="#000000" font-family="sans-serif" font-size="14" lengthAdjust="spacing" textLength="302.6406" x="5334" y="179.3467">logic_arc_int__baselibs__bit_mask_operator</text><line style="stroke:#181818;stroke-width:0.5;" x1="5306" x2="5638.6406" y1="190.5" y2="190.5"/></g><!--class comp_arc_sta__baselibs__filesystem--><g id="elem_comp_arc_sta__baselibs__filesystem"><rect fill="#F1F1F1" height="40" id="comp_arc_sta__baselibs__filesystem" rx="2.5" ry="2.5" style="stroke:#181818;stroke-width:0.5;" width="285.4492" x="4632" y="275.5"/><ellipse cx="4647" cy="291.5" fill="#ADD1B2" rx="11" ry="11" style="stroke:#181818;stroke-width:1;"/><path d="M4649.9688,297.1406 Q4649.3906,297.4375 4648.75,297.5781 Q4648.1094,297.7344 4647.4063,297.7344 Q4644.9063,297.7344 4643.5781,296.0938 Q4642.2656,294.4375 4642.2656,291.3125 Q4642.2656,288.1875 4643.5781,286.5313 Q4644.9063,284.875 4647.4063,284.875 Q4648.1094,284.875 4648.75,285.0313 Q4649.4063,285.1875 4649.9688,285.4844 L4649.9688,288.2031 Q4649.3438,287.625 4648.75,287.3594 Q4648.1563,287.0781 4647.5313,287.0781 Q4646.1875,287.0781 4645.5,288.1563 Q4644.8125,289.2188 4644.8125,291.3125 Q4644.8125,293.4063 4645.5,294.4844 Q4646.1875,295.5469 4647.5313,295.5469 Q4648.1563,295.5469 4648.75,295.2813 Q4649.3438,295 4649.9688,294.4219 L4649.9688,297.1406 Z " fill="#000000"/><text fill="#000000" font-family="sans-serif" font-size="14" lengthAdjust="spacing" textLength="253.4492" x="4661" y="296.3467">comp_arc_sta__baselibs__filesystem</text><line style="stroke:#181818;stroke-width:0.5;" x1="4633" x2="4916.4492" y1="307.5" y2="307.5"/></g><!--class logic_arc_int__baselibs__filesystem--><g id="elem_logic_arc_int__baselibs__filesystem"><rect fill="#F1F1F1" height="40" id="logic_arc_int__baselibs__filesystem" rx="2.5" ry="2.5" style="stroke:#181818;stroke-width:0.5;" width="276.4805" x="4636.5" y="158.5"/><ellipse cx="4651.5" cy="174.5" fill="#ADD1B2" rx="11" ry="11" style="stroke:#181818;stroke-width:1;"/><path d="M4654.4688,180.1406 Q4653.8906,180.4375 4653.25,180.5781 Q4652.6094,180.7344 4651.9063,180.7344 Q4649.4063,180.7344 4648.0781,179.0938 Q4646.7656,177.4375 4646.7656,174.3125 Q4646.7656,171.1875 4648.0781,169.5313 Q4649.4063,167.875 4651.9063,167.875 Q4652.6094,167.875 4653.25,168.0313 Q4653.9063,168.1875 4654.4688,168.4844 L4654.4688,171.2031 Q4653.8438,170.625 4653.25,170.3594 Q4652.6563,170.0781 4652.0313,170.0781 Q4650.6875,170.0781 4650,171.1563 Q4649.3125,172.2188 4649.3125,174.3125 Q4649.3125,176.4063 4650,177.4844 Q4650.6875,178.5469 4652.0313,178.5469 Q4652.6563,178.5469 4653.25,178.2813 Q4653.8438,178 4654.4688,177.4219 L4654.4688,180.1406 Z " fill="#000000"/><text fill="#000000" font-family="sans-serif" font-size="14" lengthAdjust="spacing" textLength="244.4805" x="4665.5" y="179.3467">logic_arc_int__baselibs__filesystem</text><line style="stroke:#181818;stroke-width:0.5;" x1="4637.5" x2="4911.9805" y1="190.5" y2="190.5"/></g><!--class logic_arc_int__baselibs__utils_base64--><g id="elem_logic_arc_int__baselibs__utils_base64"><rect fill="#F1F1F1" height="40" id="logic_arc_int__baselibs__utils_base64" rx="2.5" ry="2.5" style="stroke:#181818;stroke-width:0.5;" width="292.1689" x="1405.5" y="158.5"/><ellipse cx="1420.5" cy="174.5" fill="#ADD1B2" rx="11" ry="11" style="stroke:#181818;stroke-width:1;"/><path d="M1423.4688,180.1406 Q1422.8906,180.4375 1422.25,180.5781 Q1421.6094,180.7344 1420.9063,180.7344 Q1418.4063,180.7344 1417.0781,179.0938 Q1415.7656,177.4375 1415.7656,174.3125 Q1415.7656,171.1875 1417.0781,169.5313 Q1418.4063,167.875 1420.9063,167.875 Q1421.6094,167.875 1422.25,168.0313 Q1422.9063,168.1875 1423.4688,168.4844 L1423.4688,171.2031 Q1422.8438,170.625 1422.25,170.3594 Q1421.6563,170.0781 1421.0313,170.0781 Q1419.6875,170.0781 1419,171.1563 Q1418.3125,172.2188 1418.3125,174.3125 Q1418.3125,176.4063 1419,177.4844 Q1419.6875,178.5469 1421.0313,178.5469 Q1421.6563,178.5469 1422.25,178.2813 Q1422.8438,178 1423.4688,177.4219 L1423.4688,180.1406 Z " fill="#000000"/><text fill="#000000" font-family="sans-serif" font-size="14" lengthAdjust="spacing" textLength="260.1689" x="1434.5" y="179.3467">logic_arc_int__baselibs__utils_base64</text><line style="stroke:#181818;stroke-width:0.5;" x1="1406.5" x2="1696.6689" y1="190.5" y2="190.5"/></g><!--class logic_arc_int__baselibs__memory_shared--><g id="elem_logic_arc_int__baselibs__memory_shared"><rect fill="#F1F1F1" height="40" id="logic_arc_int__baselibs__memory_shared" rx="2.5" ry="2.5" style="stroke:#181818;stroke-width:0.5;" width="318.043" x="380.5" y="158.5"/><ellipse cx="395.5" cy="174.5" fill="#ADD1B2" rx="11" ry="11" style="stroke:#181818;stroke-width:1;"/><path d="M398.4688,180.1406 Q397.8906,180.4375 397.25,180.5781 Q396.6094,180.7344 395.9063,180.7344 Q393.4063,180.7344 392.0781,179.0938 Q390.7656,177.4375 390.7656,174.3125 Q390.7656,171.1875 392.0781,169.5313 Q393.4063,167.875 395.9063,167.875 Q396.6094,167.875 397.25,168.0313 Q397.9063,168.1875 398.4688,168.4844 L398.4688,171.2031 Q397.8438,170.625 397.25,170.3594 Q396.6563,170.0781 396.0313,170.0781 Q394.6875,170.0781 394,171.1563 Q393.3125,172.2188 393.3125,174.3125 Q393.3125,176.4063 394,177.4844 Q394.6875,178.5469 396.0313,178.5469 Q396.6563,178.5469 397.25,178.2813 Q397.8438,178 398.4688,177.4219 L398.4688,180.1406 Z " fill="#000000"/><text fill="#000000" font-family="sans-serif" font-size="14" lengthAdjust="spacing" textLength="286.043" x="409.5" y="179.3467">logic_arc_int__baselibs__memory_shared</text><line style="stroke:#181818;stroke-width:0.5;" x1="381.5" x2="697.543" y1="190.5" y2="190.5"/></g><!--class comp_arc_sta__baselibs__containers--><g id="elem_comp_arc_sta__baselibs__containers"><rect fill="#F1F1F1" height="40" id="comp_arc_sta__baselibs__containers" rx="2.5" ry="2.5" style="stroke:#181818;stroke-width:0.5;" width="287.1445" x="854" y="275.5"/><ellipse cx="869" cy="291.5" fill="#ADD1B2" rx="11" ry="11" style="stroke:#181818;stroke-width:1;"/><path d="M871.9688,297.1406 Q871.3906,297.4375 870.75,297.5781 Q870.1094,297.7344 869.4063,297.7344 Q866.9063,297.7344 865.5781,296.0938 Q864.2656,294.4375 864.2656,291.3125 Q864.2656,288.1875 865.5781,286.5313 Q866.9063,284.875 869.4063,284.875 Q870.1094,284.875 870.75,285.0313 Q871.4063,285.1875 871.9688,285.4844 L871.9688,288.2031 Q871.3438,287.625 870.75,287.3594 Q870.1563,287.0781 869.5313,287.0781 Q868.1875,287.0781 867.5,288.1563 Q866.8125,289.2188 866.8125,291.3125 Q866.8125,293.4063 867.5,294.4844 Q868.1875,295.5469 869.5313,295.5469 Q870.1563,295.5469 870.75,295.2813 Q871.3438,295 871.9688,294.4219 L871.9688,297.1406 Z " fill="#000000"/><text fill="#000000" font-family="sans-serif" font-size="14" lengthAdjust="spacing" textLength="255.1445" x="883" y="296.3467">comp_arc_sta__baselibs__containers</text><line style="stroke:#181818;stroke-width:0.5;" x1="855" x2="1140.1445" y1="307.5" y2="307.5"/></g><!--class logic_arc_int__baselibs__task--><g id="elem_logic_arc_int__baselibs__task"><rect fill="#F1F1F1" height="40" id="logic_arc_int__baselibs__task" rx="2.5" ry="2.5" style="stroke:#181818;stroke-width:0.5;" width="234.0156" x="2681.5" y="158.5"/><ellipse cx="2696.5" cy="174.5" fill="#ADD1B2" rx="11" ry="11" style="stroke:#181818;stroke-width:1;"/><path d="M2699.4688,180.1406 Q2698.8906,180.4375 2698.25,180.5781 Q2697.6094,180.7344 2696.9063,180.7344 Q2694.4063,180.7344 2693.0781,179.0938 Q2691.7656,177.4375 2691.7656,174.3125 Q2691.7656,171.1875 2693.0781,169.5313 Q2694.4063,167.875 2696.9063,167.875 Q2697.6094,167.875 2698.25,168.0313 Q2698.9063,168.1875 2699.4688,168.4844 L2699.4688,171.2031 Q2698.8438,170.625 2698.25,170.3594 Q2697.6563,170.0781 2697.0313,170.0781 Q2695.6875,170.0781 2695,171.1563 Q2694.3125,172.2188 2694.3125,174.3125 Q2694.3125,176.4063 2695,177.4844 Q2695.6875,178.5469 2697.0313,178.5469 Q2697.6563,178.5469 2698.25,178.2813 Q2698.8438,178 2699.4688,177.4219 L2699.4688,180.1406 Z " fill="#000000"/><text fill="#000000" font-family="sans-serif" font-size="14" lengthAdjust="spacing" textLength="202.0156" x="2710.5" y="179.3467">logic_arc_int__baselibs__task</text><line style="stroke:#181818;stroke-width:0.5;" x1="2682.5" x2="2914.5156" y1="190.5" y2="190.5"/></g><!--class logic_arc_int__baselibs__promise--><g id="elem_logic_arc_int__baselibs__promise"><rect fill="#F1F1F1" height="40" id="logic_arc_int__baselibs__promise" rx="2.5" ry="2.5" style="stroke:#181818;stroke-width:0.5;" width="261.1885" x="3334" y="158.5"/><ellipse cx="3349" cy="174.5" fill="#ADD1B2" rx="11" ry="11" style="stroke:#181818;stroke-width:1;"/><path d="M3351.9688,180.1406 Q3351.3906,180.4375 3350.75,180.5781 Q3350.1094,180.7344 3349.4063,180.7344 Q3346.9063,180.7344 3345.5781,179.0938 Q3344.2656,177.4375 3344.2656,174.3125 Q3344.2656,171.1875 3345.5781,169.5313 Q3346.9063,167.875 3349.4063,167.875 Q3350.1094,167.875 3350.75,168.0313 Q3351.4063,168.1875 3351.9688,168.4844 L3351.9688,171.2031 Q3351.3438,170.625 3350.75,170.3594 Q3350.1563,170.0781 3349.5313,170.0781 Q3348.1875,170.0781 3347.5,171.1563 Q3346.8125,172.2188 3346.8125,174.3125 Q3346.8125,176.4063 3347.5,177.4844 Q3348.1875,178.5469 3349.5313,178.5469 Q3350.1563,178.5469 3350.75,178.2813 Q3351.3438,178 3351.9688,177.4219 L3351.9688,180.1406 Z " fill="#000000"/><text fill="#000000" font-family="sans-serif" font-size="14" lengthAdjust="spacing" textLength="229.1885" x="3363" y="179.3467">logic_arc_int__baselibs__promise</text><line style="stroke:#181818;stroke-width:0.5;" x1="3335" x2="3594.1885" y1="190.5" y2="190.5"/></g><!--class comp_arc_sta__baselibs__memory_shared--><g id="elem_comp_arc_sta__baselibs__memory_shared"><rect fill="#F1F1F1" height="40" id="comp_arc_sta__baselibs__memory_shared" rx="2.5" ry="2.5" style="stroke:#181818;stroke-width:0.5;" width="327.0117" x="379" y="275.5"/><ellipse cx="394" cy="291.5" fill="#ADD1B2" rx="11" ry="11" style="stroke:#181818;stroke-width:1;"/><path d="M396.9688,297.1406 Q396.3906,297.4375 395.75,297.5781 Q395.1094,297.7344 394.4063,297.7344 Q391.9063,297.7344 390.5781,296.0938 Q389.2656,294.4375 389.2656,291.3125 Q389.2656,288.1875 390.5781,286.5313 Q391.9063,284.875 394.4063,284.875 Q395.1094,284.875 395.75,285.0313 Q396.4063,285.1875 396.9688,285.4844 L396.9688,288.2031 Q396.3438,287.625 395.75,287.3594 Q395.1563,287.0781 394.5313,287.0781 Q393.1875,287.0781 392.5,288.1563 Q391.8125,289.2188 391.8125,291.3125 Q391.8125,293.4063 392.5,294.4844 Q393.1875,295.5469 394.5313,295.5469 Q395.1563,295.5469 395.75,295.2813 Q396.3438,295 396.9688,294.4219 L396.9688,297.1406 Z " fill="#000000"/><text fill="#000000" font-family="sans-serif" font-size="14" lengthAdjust="spacing" textLength="295.0117" x="408" y="296.3467">comp_arc_sta__baselibs__memory_shared</text><line style="stroke:#181818;stroke-width:0.5;" x1="380" x2="705.0117" y1="307.5" y2="307.5"/></g><!--class comp_arc_sta__baselibs__message_passing--><g id="elem_comp_arc_sta__baselibs__message_passing"><rect fill="#F1F1F1" height="40" id="comp_arc_sta__baselibs__message_passing" rx="2.5" ry="2.5" style="stroke:#181818;stroke-width:0.5;" width="337.1357" x="7" y="275.5"/><ellipse cx="22" cy="291.5" fill="#ADD1B2" rx="11" ry="11" style="stroke:#181818;stroke-width:1;"/><path d="M24.9688,297.1406 Q24.3906,297.4375 23.75,297.5781 Q23.1094,297.7344 22.4063,297.7344 Q19.9063,297.7344 18.5781,296.0938 Q17.2656,294.4375 17.2656,291.3125 Q17.2656,288.1875 18.5781,286.5313 Q19.9063,284.875 22.4063,284.875 Q23.1094,284.875 23.75,285.0313 Q24.4063,285.1875 24.9688,285.4844 L24.9688,288.2031 Q24.3438,287.625 23.75,287.3594 Q23.1563,287.0781 22.5313,287.0781 Q21.1875,287.0781 20.5,288.1563 Q19.8125,289.2188 19.8125,291.3125 Q19.8125,293.4063 20.5,294.4844 Q21.1875,295.5469 22.5313,295.5469 Q23.1563,295.5469 23.75,295.2813 Q24.3438,295 24.9688,294.4219 L24.9688,297.1406 Z " fill="#000000"/><text fill="#000000" font-family="sans-serif" font-size="14" lengthAdjust="spacing" textLength="305.1357" x="36" y="296.3467">comp_arc_sta__baselibs__message_passing</text><line style="stroke:#181818;stroke-width:0.5;" x1="8" x2="343.1357" y1="307.5" y2="307.5"/></g><!--link Feature_User to logic_arc_int__baselibs__future--><g id="link_Feature_User_logic_arc_int__baselibs__future"><path codeLine="15" d="M3079.25,54.5 C2979.31,76.58 2744.1888,128.526 2614.4688,157.176 " fill="transparent" id="Feature_User-to-logic_arc_int__baselibs__future" style="stroke:#181818;stroke-width:1;"/><polygon fill="#181818" points="2608.61,158.47,2618.2609,160.4349,2613.4923,157.3917,2616.5356,152.6232,2608.61,158.47" style="stroke:#181818;stroke-width:1;"/><text fill="#000000" font-family="sans-serif" font-size="13" lengthAdjust="spacing" textLength="23.0103" x="2806.5" y="124.5669">use</text></g><!--reverse link logic_arc_int__baselibs__result to comp_arc_sta__baselibs__result--><g id="link_logic_arc_int__baselibs__result_comp_arc_sta__baselibs__result"><path codeLine="16" d="M6069.9346,204.7491 C6070.3046,225.9791 6070.79,253.94 6071.16,275.19 " fill="transparent" id="logic_arc_int__baselibs__result-backto-comp_arc_sta__baselibs__result" style="stroke:#181818;stroke-width:1;"/><polygon fill="#181818" points="6069.83,198.75,6065.9874,207.8183,6069.9171,203.7492,6073.9862,207.6789,6069.83,198.75" style="stroke:#181818;stroke-width:1;"/><text fill="#000000" font-family="sans-serif" font-size="13" lengthAdjust="spacing" textLength="76.9082" x="6071.5" y="241.5669">implements</text></g><!--reverse link logic_arc_int__baselibs__task_result to comp_arc_sta__baselibs__concurrency--><g id="link_logic_arc_int__baselibs__task_result_comp_arc_sta__baselibs__concurrency"><path codeLine="17" d="M2364.3139,199.3288 C2465.5139,213.2688 2601.57,231.34 2726.5,245.5 C2848.4,259.32 2986.9,272.39 3089.24,281.55 " fill="transparent" id="logic_arc_int__baselibs__task_result-backto-comp_arc_sta__baselibs__concurrency" style="stroke:#181818;stroke-width:1;"/><polygon fill="#181818" points="2358.37,198.51,2366.74,203.7007,2363.3232,199.1923,2367.8316,195.7755,2358.37,198.51" style="stroke:#181818;stroke-width:1;"/><text fill="#000000" font-family="sans-serif" font-size="13" lengthAdjust="spacing" textLength="76.9082" x="2727.5" y="241.5669">implements</text></g><!--link Feature_User to logic_arc_int__baselibs__synchronized_queue--><g id="link_Feature_User_logic_arc_int__baselibs__synchronized_queue"><path codeLine="18" d="M3124.5,81.55 C3124.5,106.45 3124.5,132.26 3124.5,152.26 " fill="transparent" id="Feature_User-to-logic_arc_int__baselibs__synchronized_queue" style="stroke:#181818;stroke-width:1;"/><polygon fill="#181818" points="3124.5,158.26,3128.5,149.26,3124.5,153.26,3120.5,149.26,3124.5,158.26" style="stroke:#181818;stroke-width:1;"/><text fill="#000000" font-family="sans-serif" font-size="13" lengthAdjust="spacing" textLength="23.0103" x="3125.5" y="124.5669">use</text></g><!--link Feature_User to logic_arc_int__baselibs__shared_future--><g id="link_Feature_User_logic_arc_int__baselibs__shared_future"><path codeLine="19" d="M3169.53,50.34 C3313.46,69.02 3760.7199,127.0582 3996.9999,157.7082 " fill="transparent" id="Feature_User-to-logic_arc_int__baselibs__shared_future" style="stroke:#181818;stroke-width:1;"/><polygon fill="#181818" points="4002.95,158.48,3994.5393,153.3555,3997.9915,157.8368,3993.5102,161.289,4002.95,158.48" style="stroke:#181818;stroke-width:1;"/><text fill="#000000" font-family="sans-serif" font-size="13" lengthAdjust="spacing" textLength="23.0103" x="3760.5" y="124.5669">use</text></g><!--reverse link logic_arc_int__baselibs__executor to comp_arc_sta__baselibs__concurrency--><g id="link_logic_arc_int__baselibs__executor_comp_arc_sta__baselibs__concurrency"><path codeLine="20" d="M4329.171,197.1599 C4323.211,197.8599 4323.28,197.85 4317.5,198.5 C4110.22,221.97 4058.26,226.72 3850.5,245.5 C3693.38,259.71 3513.33,273.89 3389.6,283.32 " fill="transparent" id="logic_arc_int__baselibs__executor-backto-comp_arc_sta__baselibs__concurrency" style="stroke:#181818;stroke-width:1;"/><polygon fill="#181818" points="4335.13,196.46,4325.7248,193.5371,4330.1641,197.0432,4326.658,201.4825,4335.13,196.46" style="stroke:#181818;stroke-width:1;"/><text fill="#000000" font-family="sans-serif" font-size="13" lengthAdjust="spacing" textLength="76.9082" x="4030.5" y="241.5669">implements</text></g><!--reverse link logic_arc_int__baselibs__json to comp_arc_sta__baselibs__json--><g id="link_logic_arc_int__baselibs__json_comp_arc_sta__baselibs__json"><path codeLine="21" d="M5790.8418,204.7479 C5790.2818,225.9779 5789.56,253.94 5789,275.19 " fill="transparent" id="logic_arc_int__baselibs__json-backto-comp_arc_sta__baselibs__json" style="stroke:#181818;stroke-width:1;"/><polygon fill="#181818" points="5791,198.75,5786.7641,207.6414,5790.8682,203.7483,5794.7613,207.8523,5791,198.75" style="stroke:#181818;stroke-width:1;"/><text fill="#000000" font-family="sans-serif" font-size="13" lengthAdjust="spacing" textLength="76.9082" x="5791.5" y="241.5669">implements</text></g><!--reverse link logic_arc_int__baselibs__condition_variable to comp_arc_sta__baselibs__concurrency--><g id="link_logic_arc_int__baselibs__condition_variable_comp_arc_sta__baselibs__concurrency"><path codeLine="22" d="M3698.334,199.7633 C3595.224,221.0533 3435.15,254.11 3331.97,275.41 " fill="transparent" id="logic_arc_int__baselibs__condition_variable-backto-comp_arc_sta__baselibs__concurrency" style="stroke:#181818;stroke-width:1;"/><polygon fill="#181818" points="3704.21,198.55,3694.5871,196.4526,3699.3133,199.5611,3696.2048,204.2873,3704.21,198.55" style="stroke:#181818;stroke-width:1;"/><text fill="#000000" font-family="sans-serif" font-size="13" lengthAdjust="spacing" textLength="76.9082" x="3552.5" y="241.5669">implements</text></g><!--link Feature_User to logic_arc_int__baselibs__dynamic_array--><g id="link_Feature_User_logic_arc_int__baselibs__dynamic_array"><path codeLine="23" d="M3079.48,46.58 C2880.4,55.98 2059.35,96.64 1387.5,158.5 C1382,159.01 1382.3719,158.9597 1376.7119,159.5097 " fill="transparent" id="Feature_User-to-logic_arc_int__baselibs__dynamic_array" style="stroke:#181818;stroke-width:1;"/><polygon fill="#181818" points="1370.74,160.09,1380.0847,163.2008,1375.7166,159.6064,1379.3109,155.2383,1370.74,160.09" style="stroke:#181818;stroke-width:1;"/><text fill="#000000" font-family="sans-serif" font-size="13" lengthAdjust="spacing" textLength="23.0103" x="1961.5" y="124.5669">use</text></g><!--link Feature_User to logic_arc_int__baselibs__intrusive_list--><g id="link_Feature_User_logic_arc_int__baselibs__intrusive_list"><path codeLine="24" d="M3079.4,45.74 C2857.43,52.09 1858.86,83.67 1044.5,158.5 C1038.79,159.02 1038.9399,158.98 1033.0699,159.57 " fill="transparent" id="Feature_User-to-logic_arc_int__baselibs__intrusive_list" style="stroke:#181818;stroke-width:1;"/><polygon fill="#181818" points="1027.1,160.17,1036.4549,163.2499,1032.0749,159.67,1035.6549,155.29,1027.1,160.17" style="stroke:#181818;stroke-width:1;"/><text fill="#000000" font-family="sans-serif" font-size="13" lengthAdjust="spacing" textLength="23.0103" x="1616.5" y="124.5669">use</text></g><!--link Feature_User to logic_arc_int__baselibs__task_result--><g id="link_Feature_User_logic_arc_int__baselibs__task_result"><path codeLine="25" d="M3079.2,51.19 C2946.81,70.73 2562.9257,127.3939 2358.2557,157.6039 " fill="transparent" id="Feature_User-to-logic_arc_int__baselibs__task_result" style="stroke:#181818;stroke-width:1;"/><polygon fill="#181818" points="2352.32,158.48,2361.8076,161.1229,2357.2664,157.7499,2360.6394,153.2087,2352.32,158.48" style="stroke:#181818;stroke-width:1;"/><text fill="#000000" font-family="sans-serif" font-size="13" lengthAdjust="spacing" textLength="23.0103" x="2648.5" y="124.5669">use</text></g><!--reverse link logic_arc_int__baselibs__bit_manipulation to comp_arc_sta__baselibs__bit_manipulation--><g id="link_logic_arc_int__baselibs__bit_manipulation_comp_arc_sta__baselibs__bit_manipulation"><path codeLine="26" d="M5144.9109,201.893 C5179.5309,223.183 5229.87,254.14 5264.41,275.38 " fill="transparent" id="logic_arc_int__baselibs__bit_manipulation-backto-comp_arc_sta__baselibs__bit_manipulation" style="stroke:#181818;stroke-width:1;"/><polygon fill="#181818" points="5139.8,198.75,5145.371,206.8718,5144.0591,201.3692,5149.5617,200.0573,5139.8,198.75" style="stroke:#181818;stroke-width:1;"/><text fill="#000000" font-family="sans-serif" font-size="13" lengthAdjust="spacing" textLength="76.9082" x="5214.5" y="241.5669">implements</text></g><!--link Feature_User to logic_arc_int__baselibs__message_passing--><g id="link_Feature_User_logic_arc_int__baselibs__message_passing"><path codeLine="27" d="M3079.44,45.42 C2859.75,50.04 1879.07,71.97 1076.5,111.5 C758.86,127.15 679.38,131.63 362.5,158.5 C356.29,159.03 355.9454,159.0368 349.5654,159.6168 " fill="transparent" id="Feature_User-to-logic_arc_int__baselibs__message_passing" style="stroke:#181818;stroke-width:1;"/><polygon fill="#181818" points="343.59,160.16,352.9152,163.3288,348.5695,159.7073,352.1909,155.3616,343.59,160.16" style="stroke:#181818;stroke-width:1;"/><text fill="#000000" font-family="sans-serif" font-size="13" lengthAdjust="spacing" textLength="23.0103" x="1077.5" y="124.5669">use</text></g><!--link Feature_User to logic_arc_int__baselibs__utils_scoped_op--><g id="link_Feature_User_logic_arc_int__baselibs__utils_scoped_op"><path codeLine="28" d="M3079.34,49.35 C2932.95,65.06 2458.24,116.04 2065.5,158.5 C2059.88,159.11 2060.1258,159.0901 2054.3458,159.7101 " fill="transparent" id="Feature_User-to-logic_arc_int__baselibs__utils_scoped_op" style="stroke:#181818;stroke-width:1;"/><polygon fill="#181818" points="2048.38,160.35,2057.7553,163.3673,2053.3515,159.8167,2056.902,155.4129,2048.38,160.35" style="stroke:#181818;stroke-width:1;"/><text fill="#000000" font-family="sans-serif" font-size="13" lengthAdjust="spacing" textLength="23.0103" x="2474.5" y="124.5669">use</text></g><!--reverse link logic_arc_int__baselibs__utils_scoped_op to comp_arc_sta__baselibs__utils--><g id="link_logic_arc_int__baselibs__utils_scoped_op_comp_arc_sta__baselibs__utils"><path codeLine="29" d="M1852.3479,201.7743 C1815.8679,223.0643 1762.64,254.14 1726.25,275.38 " fill="transparent" id="logic_arc_int__baselibs__utils_scoped_op-backto-comp_arc_sta__baselibs__utils" style="stroke:#181818;stroke-width:1;"/><polygon fill="#181818" points="1857.53,198.75,1847.7407,199.8317,1853.2116,201.2702,1851.7731,206.7411,1857.53,198.75" style="stroke:#181818;stroke-width:1;"/><text fill="#000000" font-family="sans-serif" font-size="13" lengthAdjust="spacing" textLength="76.9082" x="1805.5" y="241.5669">implements</text></g><!--reverse link logic_arc_int__baselibs__bit_mask_operator to comp_arc_sta__baselibs__bit_manipulation--><g id="link_logic_arc_int__baselibs__bit_mask_operator_comp_arc_sta__baselibs__bit_manipulation"><path codeLine="30" d="M5437.8386,202.0188 C5405.0686,223.3088 5357.62,254.14 5324.93,275.38 " fill="transparent" id="logic_arc_int__baselibs__bit_mask_operator-backto-comp_arc_sta__baselibs__bit_manipulation" style="stroke:#181818;stroke-width:1;"/><polygon fill="#181818" points="5442.87,198.75,5433.1437,200.2989,5438.6772,201.474,5437.5021,207.0075,5442.87,198.75" style="stroke:#181818;stroke-width:1;"/><text fill="#000000" font-family="sans-serif" font-size="13" lengthAdjust="spacing" textLength="76.9082" x="5396.5" y="241.5669">implements</text></g><!--link Feature_User to logic_arc_int__baselibs__result--><g id="link_Feature_User_logic_arc_int__baselibs__result"><path codeLine="31" d="M3169.78,45.14 C3398.15,48.53 4446.51,65.97 5303.5,111.5 C5580.34,126.21 5649.75,129.91 5925.5,158.5 C5932.65,159.24 5934.0301,159.3574 5941.4301,160.2174 " fill="transparent" id="Feature_User-to-logic_arc_int__baselibs__result" style="stroke:#181818;stroke-width:1;"/><polygon fill="#181818" points="5947.39,160.91,5938.9119,155.8978,5942.4234,160.3328,5937.9884,163.8443,5947.39,160.91" style="stroke:#181818;stroke-width:1;"/><text fill="#000000" font-family="sans-serif" font-size="13" lengthAdjust="spacing" textLength="23.0103" x="5595.5" y="124.5669">use</text></g><!--reverse link logic_arc_int__baselibs__filesystem to comp_arc_sta__baselibs__filesystem--><g id="link_logic_arc_int__baselibs__filesystem_comp_arc_sta__baselibs__filesystem"><path codeLine="32" d="M4774.5,204.75 C4774.5,225.98 4774.5,253.94 4774.5,275.19 " fill="transparent" id="logic_arc_int__baselibs__filesystem-backto-comp_arc_sta__baselibs__filesystem" style="stroke:#181818;stroke-width:1;"/><polygon fill="#181818" points="4774.5,198.75,4770.5,207.75,4774.5,203.75,4778.5,207.75,4774.5,198.75" style="stroke:#181818;stroke-width:1;"/><text fill="#000000" font-family="sans-serif" font-size="13" lengthAdjust="spacing" textLength="76.9082" x="4775.5" y="241.5669">implements</text></g><!--reverse link logic_arc_int__baselibs__future to comp_arc_sta__baselibs__concurrency--><g id="link_logic_arc_int__baselibs__future_comp_arc_sta__baselibs__concurrency"><path codeLine="33" d="M2635.3395,199.558 C2712.5395,213.118 2813.41,230.49 2907.5,245.5 C2972.66,255.89 3045.14,266.68 3105.72,275.48 " fill="transparent" id="logic_arc_int__baselibs__future-backto-comp_arc_sta__baselibs__concurrency" style="stroke:#181818;stroke-width:1;"/><polygon fill="#181818" points="2629.43,198.52,2637.6023,204.0167,2634.3546,199.385,2638.9863,196.1373,2629.43,198.52" style="stroke:#181818;stroke-width:1;"/><text fill="#000000" font-family="sans-serif" font-size="13" lengthAdjust="spacing" textLength="76.9082" x="2908.5" y="241.5669">implements</text></g><!--link Feature_User to logic_arc_int__baselibs__utils_base64--><g id="link_Feature_User_logic_arc_int__baselibs__utils_base64"><path codeLine="34" d="M3079.43,47.58 C2904.23,59.66 2251.6,105.77 1715.5,158.5 C1709.65,159.08 1709.6574,159.0555 1703.6374,159.6855 " fill="transparent" id="Feature_User-to-logic_arc_int__baselibs__utils_base64" style="stroke:#181818;stroke-width:1;"/><polygon fill="#181818" points="1697.67,160.31,1707.0374,163.3515,1702.6428,159.7896,1706.2048,155.395,1697.67,160.31" style="stroke:#181818;stroke-width:1;"/><text fill="#000000" font-family="sans-serif" font-size="13" lengthAdjust="spacing" textLength="23.0103" x="2220.5" y="124.5669">use</text></g><!--link Feature_User to logic_arc_int__baselibs__filesystem--><g id="link_Feature_User_logic_arc_int__baselibs__filesystem"><path codeLine="35" d="M3169.8,47.09 C3351.87,57.68 4047.92,99.91 4618.5,158.5 C4624.34,159.1 4624.3257,159.0761 4630.3457,159.7361 " fill="transparent" id="Feature_User-to-logic_arc_int__baselibs__filesystem" style="stroke:#181818;stroke-width:1;"/><polygon fill="#181818" points="4636.31,160.39,4627.7995,155.433,4631.3398,159.8451,4626.9277,163.3853,4636.31,160.39" style="stroke:#181818;stroke-width:1;"/><text fill="#000000" font-family="sans-serif" font-size="13" lengthAdjust="spacing" textLength="23.0103" x="4293.5" y="124.5669">use</text></g><!--link Feature_User to logic_arc_int__baselibs__memory_shared--><g id="link_Feature_User_logic_arc_int__baselibs__memory_shared"><path codeLine="36" d="M3079.43,45.79 C2881.91,51.52 2073.03,76.05 1409.5,111.5 C1101.23,127.97 1024.03,131.58 716.5,158.5 C710.65,159.01 710.6632,158.9835 704.6532,159.5535 " fill="transparent" id="Feature_User-to-logic_arc_int__baselibs__memory_shared" style="stroke:#181818;stroke-width:1;"/><polygon fill="#181818" points="698.68,160.12,708.0175,163.2524,703.6577,159.6479,707.2621,155.2881,698.68,160.12" style="stroke:#181818;stroke-width:1;"/><text fill="#000000" font-family="sans-serif" font-size="13" lengthAdjust="spacing" textLength="23.0103" x="1410.5" y="124.5669">use</text></g><!--reverse link logic_arc_int__baselibs__shared_future to comp_arc_sta__baselibs__concurrency--><g id="link_logic_arc_int__baselibs__shared_future_comp_arc_sta__baselibs__concurrency"><path codeLine="37" d="M3997.64,199.3032 C3895.22,212.6132 3760.99,229.94 3637.5,245.5 C3555.65,255.81 3464.3,267.08 3389.77,276.2 " fill="transparent" id="logic_arc_int__baselibs__shared_future-backto-comp_arc_sta__baselibs__concurrency" style="stroke:#181818;stroke-width:1;"/><polygon fill="#181818" points="4003.59,198.53,3994.1496,195.7232,3998.6317,199.1744,3995.1805,203.6565,4003.59,198.53" style="stroke:#181818;stroke-width:1;"/><text fill="#000000" font-family="sans-serif" font-size="13" lengthAdjust="spacing" textLength="76.9082" x="3765.5" y="241.5669">implements</text></g><!--reverse link logic_arc_int__baselibs__intrusive_list to comp_arc_sta__baselibs__containers--><g id="link_logic_arc_int__baselibs__intrusive_list_comp_arc_sta__baselibs__containers"><path codeLine="38" d="M904.3591,202.9558 C925.9591,224.1858 956.23,253.94 977.85,275.19 " fill="transparent" id="logic_arc_int__baselibs__intrusive_list-backto-comp_arc_sta__baselibs__containers" style="stroke:#181818;stroke-width:1;"/><polygon fill="#181818" points="900.08,198.75,903.6948,207.9115,903.6459,202.2549,909.3026,202.206,900.08,198.75" style="stroke:#181818;stroke-width:1;"/><text fill="#000000" font-family="sans-serif" font-size="13" lengthAdjust="spacing" textLength="76.9082" x="947.5" y="241.5669">implements</text></g><!--link Feature_User to logic_arc_int__baselibs__bit_manipulation--><g id="link_Feature_User_logic_arc_int__baselibs__bit_manipulation"><path codeLine="39" d="M3169.57,46.39 C3373.41,55.16 4229.5,94.13 4929.5,158.5 C4935.26,159.03 4935.1477,159.004 4941.0577,159.574 " fill="transparent" id="Feature_User-to-logic_arc_int__baselibs__bit_manipulation" style="stroke:#181818;stroke-width:1;"/><polygon fill="#181818" points="4947.03,160.15,4938.4556,155.3045,4942.0531,159.67,4937.6876,163.2675,4947.03,160.15" style="stroke:#181818;stroke-width:1;"/><text fill="#000000" font-family="sans-serif" font-size="13" lengthAdjust="spacing" textLength="23.0103" x="4536.5" y="124.5669">use</text></g><!--link Feature_User to logic_arc_int__baselibs__task--><g id="link_Feature_User_logic_arc_int__baselibs__task"><path codeLine="40" d="M3079.17,62.99 C3017.5,88.15 2913.2656,130.684 2850.8456,156.144 " fill="transparent" id="Feature_User-to-logic_arc_int__baselibs__task" style="stroke:#181818;stroke-width:1;"/><polygon fill="#181818" points="2845.29,158.41,2855.1341,158.7147,2849.9197,156.5216,2852.1128,151.3072,2845.29,158.41" style="stroke:#181818;stroke-width:1;"/><text fill="#000000" font-family="sans-serif" font-size="13" lengthAdjust="spacing" textLength="23.0103" x="2953.5" y="124.5669">use</text></g><!--link Feature_User to logic_arc_int__baselibs__promise--><g id="link_Feature_User_logic_arc_int__baselibs__promise"><path codeLine="41" d="M3169.65,62.16 C3233.6,87.18 3344.4821,130.5546 3410.2721,156.2846 " fill="transparent" id="Feature_User-to-logic_arc_int__baselibs__promise" style="stroke:#181818;stroke-width:1;"/><polygon fill="#181818" points="3415.86,158.47,3408.9351,151.4667,3411.2035,156.6489,3406.0213,158.9172,3415.86,158.47" style="stroke:#181818;stroke-width:1;"/><text fill="#000000" font-family="sans-serif" font-size="13" lengthAdjust="spacing" textLength="23.0103" x="3336.5" y="124.5669">use</text></g><!--link Feature_User to logic_arc_int__baselibs__bit_mask_operator--><g id="link_Feature_User_logic_arc_int__baselibs__bit_mask_operator"><path codeLine="42" d="M3169.84,45.85 C3397.39,52.84 4437.66,87.39 5286.5,158.5 C5292.48,159 5292.5938,158.9964 5298.7538,159.5464 " fill="transparent" id="Feature_User-to-logic_arc_int__baselibs__bit_mask_operator" style="stroke:#181818;stroke-width:1;"/><polygon fill="#181818" points="5304.73,160.08,5296.1214,155.2955,5299.7498,159.6353,5295.4099,163.2638,5304.73,160.08" style="stroke:#181818;stroke-width:1;"/><text fill="#000000" font-family="sans-serif" font-size="13" lengthAdjust="spacing" textLength="23.0103" x="4874.5" y="124.5669">use</text></g><!--reverse link logic_arc_int__baselibs__promise to comp_arc_sta__baselibs__concurrency--><g id="link_logic_arc_int__baselibs__promise_comp_arc_sta__baselibs__concurrency"><path codeLine="43" d="M3421.7475,201.3509 C3380.1375,222.6209 3318.64,254.05 3277,275.34 " fill="transparent" id="logic_arc_int__baselibs__promise-backto-comp_arc_sta__baselibs__concurrency" style="stroke:#181818;stroke-width:1;"/><polygon fill="#181818" points="3427.09,198.62,3417.2557,199.1548,3422.6379,200.8958,3420.8969,206.2781,3427.09,198.62" style="stroke:#181818;stroke-width:1;"/><text fill="#000000" font-family="sans-serif" font-size="13" lengthAdjust="spacing" textLength="76.9082" x="3366.5" y="241.5669">implements</text></g><!--reverse link logic_arc_int__baselibs__memory_shared to comp_arc_sta__baselibs__memory_shared--><g id="link_logic_arc_int__baselibs__memory_shared_comp_arc_sta__baselibs__memory_shared"><path codeLine="44" d="M540.1582,204.7479 C540.7182,225.9779 541.44,253.94 542,275.19 " fill="transparent" id="logic_arc_int__baselibs__memory_shared-backto-comp_arc_sta__baselibs__memory_shared" style="stroke:#181818;stroke-width:1;"/><polygon fill="#181818" points="540,198.75,536.2387,207.8523,540.1318,203.7483,544.2359,207.6414,540,198.75" style="stroke:#181818;stroke-width:1;"/><text fill="#000000" font-family="sans-serif" font-size="13" lengthAdjust="spacing" textLength="76.9082" x="542.5" y="241.5669">implements</text></g><!--link Feature_User to logic_arc_int__baselibs__json--><g id="link_Feature_User_logic_arc_int__baselibs__json"><path codeLine="45" d="M3169.62,45.78 C3371.83,51.62 4215.04,76.87 4906.5,111.5 C5240.51,128.23 5324.8,124.55 5657.5,158.5 C5663.23,159.08 5663.1305,159.0342 5669.0405,159.7242 " fill="transparent" id="Feature_User-to-logic_arc_int__baselibs__json" style="stroke:#181818;stroke-width:1;"/><polygon fill="#181818" points="5675,160.42,5666.5246,155.4033,5670.0337,159.8402,5665.5969,163.3493,5675,160.42" style="stroke:#181818;stroke-width:1;"/><text fill="#000000" font-family="sans-serif" font-size="13" lengthAdjust="spacing" textLength="23.0103" x="5271.5" y="124.5669">use</text></g><!--reverse link logic_arc_int__baselibs__dynamic_array to comp_arc_sta__baselibs__containers--><g id="link_logic_arc_int__baselibs__dynamic_array_comp_arc_sta__baselibs__containers"><path codeLine="46" d="M1174.528,201.5397 C1133.988,222.8297 1074.36,254.14 1033.91,275.38 " fill="transparent" id="logic_arc_int__baselibs__dynamic_array-backto-comp_arc_sta__baselibs__containers" style="stroke:#181818;stroke-width:1;"/><polygon fill="#181818" points="1179.84,198.75,1170.0122,199.3931,1175.4133,201.0747,1173.7317,206.4759,1179.84,198.75" style="stroke:#181818;stroke-width:1;"/><text fill="#000000" font-family="sans-serif" font-size="13" lengthAdjust="spacing" textLength="76.9082" x="1121.5" y="241.5669">implements</text></g><!--reverse link logic_arc_int__baselibs__synchronized_queue to comp_arc_sta__baselibs__concurrency--><g id="link_logic_arc_int__baselibs__synchronized_queue_comp_arc_sta__baselibs__concurrency"><path codeLine="47" d="M3147.9926,202.9926 C3169.2226,224.2226 3198.94,253.94 3220.19,275.19 " fill="transparent" id="logic_arc_int__baselibs__synchronized_queue-backto-comp_arc_sta__baselibs__concurrency" style="stroke:#181818;stroke-width:1;"/><polygon fill="#181818" points="3143.75,198.75,3147.2855,207.9424,3147.2855,202.2855,3152.9424,202.2855,3143.75,198.75" style="stroke:#181818;stroke-width:1;"/><text fill="#000000" font-family="sans-serif" font-size="13" lengthAdjust="spacing" textLength="76.9082" x="3190.5" y="241.5669">implements</text></g><!--link Feature_User to logic_arc_int__baselibs__condition_variable--><g id="link_Feature_User_logic_arc_int__baselibs__condition_variable"><path codeLine="48" d="M3169.64,53.43 C3277.71,74.82 3547.3742,128.195 3694.5442,157.325 " fill="transparent" id="Feature_User-to-logic_arc_int__baselibs__condition_variable" style="stroke:#181818;stroke-width:1;"/><polygon fill="#181818" points="3700.43,158.49,3692.378,152.8186,3695.5252,157.5192,3690.8246,160.6664,3700.43,158.49" style="stroke:#181818;stroke-width:1;"/><text fill="#000000" font-family="sans-serif" font-size="13" lengthAdjust="spacing" textLength="23.0103" x="3541.5" y="124.5669">use</text></g><!--reverse link logic_arc_int__baselibs__utils_base64 to comp_arc_sta__baselibs__utils--><g id="link_logic_arc_int__baselibs__utils_base64_comp_arc_sta__baselibs__utils"><path codeLine="49" d="M1579.9324,202.5265 C1606.1424,223.7565 1643.41,253.94 1669.65,275.19 " fill="transparent" id="logic_arc_int__baselibs__utils_base64-backto-comp_arc_sta__baselibs__utils" style="stroke:#181818;stroke-width:1;"/><polygon fill="#181818" points="1575.27,198.75,1579.7459,207.523,1579.1553,201.8971,1584.7813,201.3065,1575.27,198.75" style="stroke:#181818;stroke-width:1;"/><text fill="#000000" font-family="sans-serif" font-size="13" lengthAdjust="spacing" textLength="76.9082" x="1632.5" y="241.5669">implements</text></g><!--reverse link logic_arc_int__baselibs__task to comp_arc_sta__baselibs__concurrency--><g id="link_logic_arc_int__baselibs__task_comp_arc_sta__baselibs__concurrency"><path codeLine="50" d="M2877.6258,200.134 C2959.3058,221.434 3084.77,254.15 3166.37,275.43 " fill="transparent" id="logic_arc_int__baselibs__task-backto-comp_arc_sta__baselibs__concurrency" style="stroke:#181818;stroke-width:1;"/><polygon fill="#181818" points="2871.82,198.62,2879.5194,204.7616,2876.6582,199.8817,2881.5381,197.0205,2871.82,198.62" style="stroke:#181818;stroke-width:1;"/><text fill="#000000" font-family="sans-serif" font-size="13" lengthAdjust="spacing" textLength="76.9082" x="3046.5" y="241.5669">implements</text></g><!--reverse link logic_arc_int__baselibs__message_passing to comp_arc_sta__baselibs__message_passing--><g id="link_logic_arc_int__baselibs__message_passing_comp_arc_sta__baselibs__message_passing"><path codeLine="51" d="M178.621,204.7464 C177.881,225.9764 176.91,253.94 176.17,275.19 " fill="transparent" id="logic_arc_int__baselibs__message_passing-backto-comp_arc_sta__baselibs__message_passing" style="stroke:#181818;stroke-width:1;"/><polygon fill="#181818" points="178.83,198.75,174.5189,207.6052,178.6558,203.747,182.5141,207.8839,178.83,198.75" style="stroke:#181818;stroke-width:1;"/><text fill="#000000" font-family="sans-serif" font-size="13" lengthAdjust="spacing" textLength="76.9082" x="179.5" y="241.5669">implements</text></g><!--link Feature_User to logic_arc_int__baselibs__executor--><g id="link_Feature_User_logic_arc_int__baselibs__executor"><path codeLine="52" d="M3169.51,48.31 C3327.34,61.78 3870.3,109.01 4317.5,158.5 C4323.28,159.14 4323.2198,159.12 4329.1798,159.81 " fill="transparent" id="Feature_User-to-logic_arc_int__baselibs__executor" style="stroke:#181818;stroke-width:1;"/><polygon fill="#181818" points="4335.14,160.5,4326.6597,155.4915,4330.1732,159.925,4325.7397,163.4384,4335.14,160.5" style="stroke:#181818;stroke-width:1;"/><text fill="#000000" font-family="sans-serif" font-size="13" lengthAdjust="spacing" textLength="23.0103" x="4024.5" y="124.5669">use</text></g><!--SRC=[hLPDRzim3BthLmYzfnk6OOUYw6N0JZrkPu6MsOIhFZoHwkeD- - -JdMHjdAp-W8-qATgFx_5Hu5pyQJmzKzWgYOsMgAie4hskAQ4LYa7jg4RDWWcZj0tkO_IDj1f44bLPaDKjI-lmJbq3awlqRtLF0Jz75vDEMFVHrntPnu3C-iFrU_L7tRuxd55WfUHTVK6Gd51_OqnN6bWV7fZkWLRg9DpKcpljufQiWMGD1J6c0aP75HlpaBlC6vqPjRBHDtqI2xnEIiZPYTxajohjasuq-SQXno3y_u8s1fjJmc3RaQe2_7Ynz0oCt0QxIp7GBwpDZupvY7TEZHqKUgQrQpewV4QR2wNJklQTOnWfsAMiJK79hAbJk7c2H50vNCn4tGRm_Qi4xNmIIfWoqnCQHopppv-8wKqAAnBZ8L2J7NJGHreqJ5_S85-c7hPe6c0kNZCVOXPoRDZ6fgWrDYCm- -mHR6SLfwXhKVyAEUKZ2Su6OWR-IUm-a4DkYrNxaVzwILnxg8v6iX3cdfGk_lHnlaXUmvfxrgEFgJtuuMf6EB3NYRqMADioZGbuw1eBMtu-uqliP_wf9aLFl61bNHYgbTZwzqjJU3eHp4ZXWRWMChLVWcDOfubdiB7MDO5B5vE5c2yjwPMi_-Wowr_ifWheP2UEIcYmGHSszELgrhVnBm00]--></g></svg>