<svg xmlns="http://www.w3.org/2000/svg" xmlns:xlink="http://www.w3.org/1999/xlink" contentStyleType="text/css" data-diagram-type="DESCRIPTION" height="238px" preserveAspectRatio="none" style="width:517px;height:238px;background:#FFFFFF;" version="1.1" viewBox="0 0 517 238" width="517px" zoomAndPan="magnify"><defs/><g><!--cluster process_description--><g id="cluster_process_description"><path d="M6,16 C6,6 104.5,6 104.5,6 C104.5,6 203,6 203,16 L203,211 C203,221 104.5,221 104.5,221 C104.5,221 6,221 6,211 L6,16 " fill="transparent" style="stroke:#181818;stroke-width:1;"/><path d="M6,16 C6,26 104.5,26 104.5,26 C104.5,26 203,26 203,16 " fill="transparent" style="stroke:#181818;stroke-width:1;"/><text fill="#000000" font-family="sans-serif" font-size="14" font-weight="bold" lengthAdjust="spacing" textLength="156.9531" x="26.0234" y="40.9951">process_description</text></g><!--entity examples--><g id="elem_examples"><rect fill="#F1F1F1" height="39.2969" rx="2.5" ry="2.5" style="stroke:#181818;stroke-width:0.5;" width="97.7988" x="55.5" y="64.5"/><polygon fill="#F1F1F1" points="136.2988,69.5,136.2988,83.5,148.2988,83.5,148.2988,75.5,142.2988,69.5,136.2988,69.5" style="stroke:#181818;stroke-width:0.5;"/><line style="stroke:#181818;stroke-width:0.5;" x1="142.2988" x2="142.2988" y1="69.5" y2="75.5"/><line style="stroke:#181818;stroke-width:0.5;" x1="148.2988" x2="142.2988" y1="75.5" y2="75.5"/><text fill="#000000" font-family="sans-serif" font-size="14" lengthAdjust="spacing" textLength="67.7988" x="65.5" y="90.4951">examples</text></g><!--entity yaml--><g id="elem_yaml"><rect fill="#F1F1F1" height="39.2969" rx="2.5" ry="2.5" style="stroke:#181818;stroke-width:0.5;" width="148.7539" x="30" y="138.5"/><polygon fill="#F1F1F1" points="161.7539,143.5,161.7539,157.5,173.7539,157.5,173.7539,149.5,167.7539,143.5,161.7539,143.5" style="stroke:#181818;stroke-width:0.5;"/><line style="stroke:#181818;stroke-width:0.5;" x1="167.7539" x2="167.7539" y1="143.5" y2="149.5"/><line style="stroke:#181818;stroke-width:0.5;" x1="173.7539" x2="167.7539" y1="149.5" y2="149.5"/><text fill="#000000" font-family="sans-serif" font-size="14" lengthAdjust="spacing" textLength="118.7539" x="40" y="164.4951">metamodel.yaml</text></g><!--entity docs_as_code--><g id="elem_docs_as_code"><path d="M384,143.5 C384,133.5 442.0396,133.5 442.0396,133.5 C442.0396,133.5 500.0791,133.5 500.0791,143.5 L500.0791,168.7969 C500.0791,178.7969 442.0396,178.7969 442.0396,178.7969 C442.0396,178.7969 384,178.7969 384,168.7969 L384,143.5 " fill="#F1F1F1" style="stroke:#181818;stroke-width:0.5;"/><path d="M384,143.5 C384,153.5 442.0396,153.5 442.0396,153.5 C442.0396,153.5 500.0791,153.5 500.0791,143.5 " fill="transparent" style="stroke:#181818;stroke-width:0.5;"/><text fill="#000000" font-family="sans-serif" font-size="14" lengthAdjust="spacing" textLength="96.0791" x="394" y="170.4951">docs_as_code</text></g><!--link process_description to docs_as_code--><g id="link_process_description_docs_as_code"><path d="M203.9324,205.2448 C204.3249,205.2049 204.718,205.1649 205.1119,205.1246 C206.6873,204.9635 208.2734,204.7996 209.8695,204.6328 C216.2541,203.9654 222.7998,203.2515 229.4669,202.4889 C242.8011,200.9635 256.6207,199.243 270.608,197.3091 C298.5825,193.4413 327.2275,188.72 354,183 C363.74,180.92 368.2002,179.9107 378.0702,177.0307 " fill="transparent" id="process_description-to-docs_as_code" style="stroke:#181818;stroke-width:1;"/><polygon fill="#181818" points="383.83,175.35,374.0698,174.0311,379.0302,176.7506,376.3107,181.7109,383.83,175.35" style="stroke:#181818;stroke-width:1;"/><text fill="#000000" font-family="sans-serif" font-size="13" lengthAdjust="spacing" textLength="125.7852" x="228" y="179.0669">defines metamodel</text></g><!--link yaml to docs_as_code--><g id="link_yaml_docs_as_code"><path d="M179.13,157.56 C240.76,157.19 321.4401,156.7161 377.9201,156.3761 " fill="transparent" id="yaml-to-docs_as_code" style="stroke:#181818;stroke-width:1;"/><polygon fill="#181818" points="383.92,156.34,374.8961,152.3942,378.9201,156.3701,374.9442,160.3941,383.92,156.34" style="stroke:#181818;stroke-width:1;"/><text fill="#000000" font-family="sans-serif" font-size="13" lengthAdjust="spacing" textLength="52.311" x="264.5" y="153.0669">as input</text></g><!--link docs_as_code to examples--><g id="link_docs_as_code_examples"><path d="M383.6,139.48 C373.76,136.85 363.61,134.25 354,132 C284.91,115.82 210.0007,101.9816 159.7507,93.2116 " fill="transparent" id="docs_as_code-to-examples" style="stroke:#181818;stroke-width:1;"/><polygon fill="#181818" points="153.84,92.18,162.0183,97.6678,158.7655,93.0396,163.3937,89.7869,153.84,92.18" style="stroke:#181818;stroke-width:1;"/><text fill="#000000" font-family="sans-serif" font-size="13" lengthAdjust="spacing" textLength="123.1699" x="229" y="103.0669">checks metamodel</text></g><!--SRC=[ROv12i9034NtEKKkK0_WmgkKc4bjSAOpJ28eqhix8qWjT1Nu__5VeaoEdh7gRNOCMeLTymA1dAvaWgLc5hCnY77Lqajy0o9ITPs87UL9gKInNPZ4AUKWyVIY594C-uLr6mwPRIGRkL5jSGKuKWt3PK-UCSYaYzYcWA_YW6nMNSh3OPTtyFTpWtWMll-jVG00]--></g></svg>