<svg xmlns="http://www.w3.org/2000/svg" xmlns:xlink="http://www.w3.org/1999/xlink" contentStyleType="text/css" data-diagram-type="CLASS" height="322px" preserveAspectRatio="none" style="width:6205px;height:322px;background:#FFFFFF;" version="1.1" viewBox="0 0 6205 322" width="6205px" zoomAndPan="magnify"><defs/><g><!--entity Feature_User--><g id="elem_Feature_User"><ellipse cx="3031.6685" cy="14" fill="#F1F1F1" rx="8" ry="8" style="stroke:#181818;stroke-width:0.5;"/><path d="M3031.6685,22 L3031.6685,49 M3018.6685,30 L3044.6685,30 M3031.6685,49 L3018.6685,64 M3031.6685,49 L3044.6685,64 " fill="transparent" style="stroke:#181818;stroke-width:0.5;"/><text fill="#000000" font-family="sans-serif" font-size="14" lengthAdjust="spacing" textLength="90.3369" x="2986.5" y="78.4951">Feature User</text></g><!--class logic_arc_int__baselibs__utils_base64--><g id="elem_logic_arc_int__baselibs__utils_base64"><rect fill="#F1F1F1" height="40" id="logic_arc_int__baselibs__utils_base64" rx="2.5" ry="2.5" style="stroke:#181818;stroke-width:0.5;" width="292.1689" x="4991.5" y="158.5"/><ellipse cx="5006.5" cy="174.5" fill="#ADD1B2" rx="11" ry="11" style="stroke:#181818;stroke-width:1;"/><path d="M5009.4688,180.1406 Q5008.8906,180.4375 5008.25,180.5781 Q5007.6094,180.7344 5006.9063,180.7344 Q5004.4063,180.7344 5003.0781,179.0938 Q5001.7656,177.4375 5001.7656,174.3125 Q5001.7656,171.1875 5003.0781,169.5313 Q5004.4063,167.875 5006.9063,167.875 Q5007.6094,167.875 5008.25,168.0313 Q5008.9063,168.1875 5009.4688,168.4844 L5009.4688,171.2031 Q5008.8438,170.625 5008.25,170.3594 Q5007.6563,170.0781 5007.0313,170.0781 Q5005.6875,170.0781 5005,171.1563 Q5004.3125,172.2188 5004.3125,174.3125 Q5004.3125,176.4063 5005,177.4844 Q5005.6875,178.5469 5007.0313,178.5469 Q5007.6563,178.5469 5008.25,178.2813 Q5008.8438,178 5009.4688,177.4219 L5009.4688,180.1406 Z " fill="#000000"/><text fill="#000000" font-family="sans-serif" font-size="14" lengthAdjust="spacing" textLength="260.1689" x="5020.5" y="179.3467">logic_arc_int__baselibs__utils_base64</text><line style="stroke:#181818;stroke-width:0.5;" x1="4992.5" x2="5282.6689" y1="190.5" y2="190.5"/></g><!--class logic_arc_int__baselibs__synchronized_queue--><g id="elem_logic_arc_int__baselibs__synchronized_queue"><rect fill="#F1F1F1" height="40" id="logic_arc_int__baselibs__synchronized_queue" rx="2.5" ry="2.5" style="stroke:#181818;stroke-width:0.5;" width="348.3604" x="322.5" y="158.5"/><ellipse cx="337.5" cy="174.5" fill="#ADD1B2" rx="11" ry="11" style="stroke:#181818;stroke-width:1;"/><path d="M340.4688,180.1406 Q339.8906,180.4375 339.25,180.5781 Q338.6094,180.7344 337.9063,180.7344 Q335.4063,180.7344 334.0781,179.0938 Q332.7656,177.4375 332.7656,174.3125 Q332.7656,171.1875 334.0781,169.5313 Q335.4063,167.875 337.9063,167.875 Q338.6094,167.875 339.25,168.0313 Q339.9063,168.1875 340.4688,168.4844 L340.4688,171.2031 Q339.8438,170.625 339.25,170.3594 Q338.6563,170.0781 338.0313,170.0781 Q336.6875,170.0781 336,171.1563 Q335.3125,172.2188 335.3125,174.3125 Q335.3125,176.4063 336,177.4844 Q336.6875,178.5469 338.0313,178.5469 Q338.6563,178.5469 339.25,178.2813 Q339.8438,178 340.4688,177.4219 L340.4688,180.1406 Z " fill="#000000"/><text fill="#000000" font-family="sans-serif" font-size="14" lengthAdjust="spacing" textLength="316.3604" x="351.5" y="179.3467">logic_arc_int__baselibs__synchronized_queue</text><line style="stroke:#181818;stroke-width:0.5;" x1="323.5" x2="669.8604" y1="190.5" y2="190.5"/></g><!--class comp_arc_sta__baselibs__memory_shared--><g id="elem_comp_arc_sta__baselibs__memory_shared"><rect fill="#F1F1F1" height="40" id="comp_arc_sta__baselibs__memory_shared" rx="2.5" ry="2.5" style="stroke:#181818;stroke-width:0.5;" width="327.0117" x="5871" y="275.5"/><ellipse cx="5886" cy="291.5" fill="#ADD1B2" rx="11" ry="11" style="stroke:#181818;stroke-width:1;"/><path d="M5888.9688,297.1406 Q5888.3906,297.4375 5887.75,297.5781 Q5887.1094,297.7344 5886.4063,297.7344 Q5883.9063,297.7344 5882.5781,296.0938 Q5881.2656,294.4375 5881.2656,291.3125 Q5881.2656,288.1875 5882.5781,286.5313 Q5883.9063,284.875 5886.4063,284.875 Q5887.1094,284.875 5887.75,285.0313 Q5888.4063,285.1875 5888.9688,285.4844 L5888.9688,288.2031 Q5888.3438,287.625 5887.75,287.3594 Q5887.1563,287.0781 5886.5313,287.0781 Q5885.1875,287.0781 5884.5,288.1563 Q5883.8125,289.2188 5883.8125,291.3125 Q5883.8125,293.4063 5884.5,294.4844 Q5885.1875,295.5469 5886.5313,295.5469 Q5887.1563,295.5469 5887.75,295.2813 Q5888.3438,295 5888.9688,294.4219 L5888.9688,297.1406 Z " fill="#000000"/><text fill="#000000" font-family="sans-serif" font-size="14" lengthAdjust="spacing" textLength="295.0117" x="5900" y="296.3467">comp_arc_sta__baselibs__memory_shared</text><line style="stroke:#181818;stroke-width:0.5;" x1="5872" x2="6197.0117" y1="307.5" y2="307.5"/></g><!--class logic_arc_int__baselibs__memory_shared--><g id="elem_logic_arc_int__baselibs__memory_shared"><rect fill="#F1F1F1" height="40" id="logic_arc_int__baselibs__memory_shared" rx="2.5" ry="2.5" style="stroke:#181818;stroke-width:0.5;" width="318.043" x="5871.5" y="158.5"/><ellipse cx="5886.5" cy="174.5" fill="#ADD1B2" rx="11" ry="11" style="stroke:#181818;stroke-width:1;"/><path d="M5889.4688,180.1406 Q5888.8906,180.4375 5888.25,180.5781 Q5887.6094,180.7344 5886.9063,180.7344 Q5884.4063,180.7344 5883.0781,179.0938 Q5881.7656,177.4375 5881.7656,174.3125 Q5881.7656,171.1875 5883.0781,169.5313 Q5884.4063,167.875 5886.9063,167.875 Q5887.6094,167.875 5888.25,168.0313 Q5888.9063,168.1875 5889.4688,168.4844 L5889.4688,171.2031 Q5888.8438,170.625 5888.25,170.3594 Q5887.6563,170.0781 5887.0313,170.0781 Q5885.6875,170.0781 5885,171.1563 Q5884.3125,172.2188 5884.3125,174.3125 Q5884.3125,176.4063 5885,177.4844 Q5885.6875,178.5469 5887.0313,178.5469 Q5887.6563,178.5469 5888.25,178.2813 Q5888.8438,178 5889.4688,177.4219 L5889.4688,180.1406 Z " fill="#000000"/><text fill="#000000" font-family="sans-serif" font-size="14" lengthAdjust="spacing" textLength="286.043" x="5900.5" y="179.3467">logic_arc_int__baselibs__memory_shared</text><line style="stroke:#181818;stroke-width:0.5;" x1="5872.5" x2="6188.543" y1="190.5" y2="190.5"/></g><!--class logic_arc_int__baselibs__message_passing--><g id="elem_logic_arc_int__baselibs__message_passing"><rect fill="#F1F1F1" height="40" id="logic_arc_int__baselibs__message_passing" rx="2.5" ry="2.5" style="stroke:#181818;stroke-width:0.5;" width="328.167" x="4277.5" y="158.5"/><ellipse cx="4292.5" cy="174.5" fill="#ADD1B2" rx="11" ry="11" style="stroke:#181818;stroke-width:1;"/><path d="M4295.4688,180.1406 Q4294.8906,180.4375 4294.25,180.5781 Q4293.6094,180.7344 4292.9063,180.7344 Q4290.4063,180.7344 4289.0781,179.0938 Q4287.7656,177.4375 4287.7656,174.3125 Q4287.7656,171.1875 4289.0781,169.5313 Q4290.4063,167.875 4292.9063,167.875 Q4293.6094,167.875 4294.25,168.0313 Q4294.9063,168.1875 4295.4688,168.4844 L4295.4688,171.2031 Q4294.8438,170.625 4294.25,170.3594 Q4293.6563,170.0781 4293.0313,170.0781 Q4291.6875,170.0781 4291,171.1563 Q4290.3125,172.2188 4290.3125,174.3125 Q4290.3125,176.4063 4291,177.4844 Q4291.6875,178.5469 4293.0313,178.5469 Q4293.6563,178.5469 4294.25,178.2813 Q4294.8438,178 4295.4688,177.4219 L4295.4688,180.1406 Z " fill="#000000"/><text fill="#000000" font-family="sans-serif" font-size="14" lengthAdjust="spacing" textLength="296.167" x="4306.5" y="179.3467">logic_arc_int__baselibs__message_passing</text><line style="stroke:#181818;stroke-width:0.5;" x1="4278.5" x2="4604.667" y1="190.5" y2="190.5"/></g><!--class comp_arc_sta__baselibs__result--><g id="elem_comp_arc_sta__baselibs__result"><rect fill="#F1F1F1" height="40" id="comp_arc_sta__baselibs__result" rx="2.5" ry="2.5" style="stroke:#181818;stroke-width:0.5;" width="253.4297" x="5583" y="275.5"/><ellipse cx="5598" cy="291.5" fill="#ADD1B2" rx="11" ry="11" style="stroke:#181818;stroke-width:1;"/><path d="M5600.9688,297.1406 Q5600.3906,297.4375 5599.75,297.5781 Q5599.1094,297.7344 5598.4063,297.7344 Q5595.9063,297.7344 5594.5781,296.0938 Q5593.2656,294.4375 5593.2656,291.3125 Q5593.2656,288.1875 5594.5781,286.5313 Q5595.9063,284.875 5598.4063,284.875 Q5599.1094,284.875 5599.75,285.0313 Q5600.4063,285.1875 5600.9688,285.4844 L5600.9688,288.2031 Q5600.3438,287.625 5599.75,287.3594 Q5599.1563,287.0781 5598.5313,287.0781 Q5597.1875,287.0781 5596.5,288.1563 Q5595.8125,289.2188 5595.8125,291.3125 Q5595.8125,293.4063 5596.5,294.4844 Q5597.1875,295.5469 5598.5313,295.5469 Q5599.1563,295.5469 5599.75,295.2813 Q5600.3438,295 5600.9688,294.4219 L5600.9688,297.1406 Z " fill="#000000"/><text fill="#000000" font-family="sans-serif" font-size="14" lengthAdjust="spacing" textLength="221.4297" x="5612" y="296.3467">comp_arc_sta__baselibs__result</text><line style="stroke:#181818;stroke-width:0.5;" x1="5584" x2="5835.4297" y1="307.5" y2="307.5"/></g><!--class logic_arc_int__baselibs__result--><g id="elem_logic_arc_int__baselibs__result"><rect fill="#F1F1F1" height="40" id="logic_arc_int__baselibs__result" rx="2.5" ry="2.5" style="stroke:#181818;stroke-width:0.5;" width="244.4609" x="5587.5" y="158.5"/><ellipse cx="5602.5" cy="174.5" fill="#ADD1B2" rx="11" ry="11" style="stroke:#181818;stroke-width:1;"/><path d="M5605.4688,180.1406 Q5604.8906,180.4375 5604.25,180.5781 Q5603.6094,180.7344 5602.9063,180.7344 Q5600.4063,180.7344 5599.0781,179.0938 Q5597.7656,177.4375 5597.7656,174.3125 Q5597.7656,171.1875 5599.0781,169.5313 Q5600.4063,167.875 5602.9063,167.875 Q5603.6094,167.875 5604.25,168.0313 Q5604.9063,168.1875 5605.4688,168.4844 L5605.4688,171.2031 Q5604.8438,170.625 5604.25,170.3594 Q5603.6563,170.0781 5603.0313,170.0781 Q5601.6875,170.0781 5601,171.1563 Q5600.3125,172.2188 5600.3125,174.3125 Q5600.3125,176.4063 5601,177.4844 Q5601.6875,178.5469 5603.0313,178.5469 Q5603.6563,178.5469 5604.25,178.2813 Q5604.8438,178 5605.4688,177.4219 L5605.4688,180.1406 Z " fill="#000000"/><text fill="#000000" font-family="sans-serif" font-size="14" lengthAdjust="spacing" textLength="212.4609" x="5616.5" y="179.3467">logic_arc_int__baselibs__result</text><line style="stroke:#181818;stroke-width:0.5;" x1="5588.5" x2="5830.9609" y1="190.5" y2="190.5"/></g><!--class logic_arc_int__baselibs__intrusive_list--><g id="elem_logic_arc_int__baselibs__intrusive_list"><rect fill="#F1F1F1" height="40" id="logic_arc_int__baselibs__intrusive_list" rx="2.5" ry="2.5" style="stroke:#181818;stroke-width:0.5;" width="293.0713" x="3221" y="158.5"/><ellipse cx="3236" cy="174.5" fill="#ADD1B2" rx="11" ry="11" style="stroke:#181818;stroke-width:1;"/><path d="M3238.9688,180.1406 Q3238.3906,180.4375 3237.75,180.5781 Q3237.1094,180.7344 3236.4063,180.7344 Q3233.9063,180.7344 3232.5781,179.0938 Q3231.2656,177.4375 3231.2656,174.3125 Q3231.2656,171.1875 3232.5781,169.5313 Q3233.9063,167.875 3236.4063,167.875 Q3237.1094,167.875 3237.75,168.0313 Q3238.4063,168.1875 3238.9688,168.4844 L3238.9688,171.2031 Q3238.3438,170.625 3237.75,170.3594 Q3237.1563,170.0781 3236.5313,170.0781 Q3235.1875,170.0781 3234.5,171.1563 Q3233.8125,172.2188 3233.8125,174.3125 Q3233.8125,176.4063 3234.5,177.4844 Q3235.1875,178.5469 3236.5313,178.5469 Q3237.1563,178.5469 3237.75,178.2813 Q3238.3438,178 3238.9688,177.4219 L3238.9688,180.1406 Z " fill="#000000"/><text fill="#000000" font-family="sans-serif" font-size="14" lengthAdjust="spacing" textLength="261.0713" x="3250" y="179.3467">logic_arc_int__baselibs__intrusive_list</text><line style="stroke:#181818;stroke-width:0.5;" x1="3222" x2="3513.0713" y1="190.5" y2="190.5"/></g><!--class logic_arc_int__baselibs__promise--><g id="elem_logic_arc_int__baselibs__promise"><rect fill="#F1F1F1" height="40" id="logic_arc_int__baselibs__promise" rx="2.5" ry="2.5" style="stroke:#181818;stroke-width:0.5;" width="261.1885" x="1074" y="158.5"/><ellipse cx="1089" cy="174.5" fill="#ADD1B2" rx="11" ry="11" style="stroke:#181818;stroke-width:1;"/><path d="M1091.9688,180.1406 Q1091.3906,180.4375 1090.75,180.5781 Q1090.1094,180.7344 1089.4063,180.7344 Q1086.9063,180.7344 1085.5781,179.0938 Q1084.2656,177.4375 1084.2656,174.3125 Q1084.2656,171.1875 1085.5781,169.5313 Q1086.9063,167.875 1089.4063,167.875 Q1090.1094,167.875 1090.75,168.0313 Q1091.4063,168.1875 1091.9688,168.4844 L1091.9688,171.2031 Q1091.3438,170.625 1090.75,170.3594 Q1090.1563,170.0781 1089.5313,170.0781 Q1088.1875,170.0781 1087.5,171.1563 Q1086.8125,172.2188 1086.8125,174.3125 Q1086.8125,176.4063 1087.5,177.4844 Q1088.1875,178.5469 1089.5313,178.5469 Q1090.1563,178.5469 1090.75,178.2813 Q1091.3438,178 1091.9688,177.4219 L1091.9688,180.1406 Z " fill="#000000"/><text fill="#000000" font-family="sans-serif" font-size="14" lengthAdjust="spacing" textLength="229.1885" x="1103" y="179.3467">logic_arc_int__baselibs__promise</text><line style="stroke:#181818;stroke-width:0.5;" x1="1075" x2="1334.1885" y1="190.5" y2="190.5"/></g><!--class comp_arc_sta__baselibs__utils--><g id="elem_comp_arc_sta__baselibs__utils"><rect fill="#F1F1F1" height="40" id="comp_arc_sta__baselibs__utils" rx="2.5" ry="2.5" style="stroke:#181818;stroke-width:0.5;" width="242.9502" x="4846" y="275.5"/><ellipse cx="4861" cy="291.5" fill="#ADD1B2" rx="11" ry="11" style="stroke:#181818;stroke-width:1;"/><path d="M4863.9688,297.1406 Q4863.3906,297.4375 4862.75,297.5781 Q4862.1094,297.7344 4861.4063,297.7344 Q4858.9063,297.7344 4857.5781,296.0938 Q4856.2656,294.4375 4856.2656,291.3125 Q4856.2656,288.1875 4857.5781,286.5313 Q4858.9063,284.875 4861.4063,284.875 Q4862.1094,284.875 4862.75,285.0313 Q4863.4063,285.1875 4863.9688,285.4844 L4863.9688,288.2031 Q4863.3438,287.625 4862.75,287.3594 Q4862.1563,287.0781 4861.5313,287.0781 Q4860.1875,287.0781 4859.5,288.1563 Q4858.8125,289.2188 4858.8125,291.3125 Q4858.8125,293.4063 4859.5,294.4844 Q4860.1875,295.5469 4861.5313,295.5469 Q4862.1563,295.5469 4862.75,295.2813 Q4863.3438,295 4863.9688,294.4219 L4863.9688,297.1406 Z " fill="#000000"/><text fill="#000000" font-family="sans-serif" font-size="14" lengthAdjust="spacing" textLength="210.9502" x="4875" y="296.3467">comp_arc_sta__baselibs__utils</text><line style="stroke:#181818;stroke-width:0.5;" x1="4847" x2="5087.9502" y1="307.5" y2="307.5"/></g><!--class logic_arc_int__baselibs__utils_scoped_op--><g id="elem_logic_arc_int__baselibs__utils_scoped_op"><rect fill="#F1F1F1" height="40" id="logic_arc_int__baselibs__utils_scoped_op" rx="2.5" ry="2.5" style="stroke:#181818;stroke-width:0.5;" width="315.377" x="4641" y="158.5"/><ellipse cx="4656" cy="174.5" fill="#ADD1B2" rx="11" ry="11" style="stroke:#181818;stroke-width:1;"/><path d="M4658.9688,180.1406 Q4658.3906,180.4375 4657.75,180.5781 Q4657.1094,180.7344 4656.4063,180.7344 Q4653.9063,180.7344 4652.5781,179.0938 Q4651.2656,177.4375 4651.2656,174.3125 Q4651.2656,171.1875 4652.5781,169.5313 Q4653.9063,167.875 4656.4063,167.875 Q4657.1094,167.875 4657.75,168.0313 Q4658.4063,168.1875 4658.9688,168.4844 L4658.9688,171.2031 Q4658.3438,170.625 4657.75,170.3594 Q4657.1563,170.0781 4656.5313,170.0781 Q4655.1875,170.0781 4654.5,171.1563 Q4653.8125,172.2188 4653.8125,174.3125 Q4653.8125,176.4063 4654.5,177.4844 Q4655.1875,178.5469 4656.5313,178.5469 Q4657.1563,178.5469 4657.75,178.2813 Q4658.3438,178 4658.9688,177.4219 L4658.9688,180.1406 Z " fill="#000000"/><text fill="#000000" font-family="sans-serif" font-size="14" lengthAdjust="spacing" textLength="283.377" x="4670" y="179.3467">logic_arc_int__baselibs__utils_scoped_op</text><line style="stroke:#181818;stroke-width:0.5;" x1="4642" x2="4955.377" y1="190.5" y2="190.5"/></g><!--class logic_arc_int__baselibs__bit_manipulation--><g id="elem_logic_arc_int__baselibs__bit_manipulation"><rect fill="#F1F1F1" height="40" id="logic_arc_int__baselibs__bit_manipulation" rx="2.5" ry="2.5" style="stroke:#181818;stroke-width:0.5;" width="321.8369" x="3549.5" y="158.5"/><ellipse cx="3564.5" cy="174.5" fill="#ADD1B2" rx="11" ry="11" style="stroke:#181818;stroke-width:1;"/><path d="M3567.4688,180.1406 Q3566.8906,180.4375 3566.25,180.5781 Q3565.6094,180.7344 3564.9063,180.7344 Q3562.4063,180.7344 3561.0781,179.0938 Q3559.7656,177.4375 3559.7656,174.3125 Q3559.7656,171.1875 3561.0781,169.5313 Q3562.4063,167.875 3564.9063,167.875 Q3565.6094,167.875 3566.25,168.0313 Q3566.9063,168.1875 3567.4688,168.4844 L3567.4688,171.2031 Q3566.8438,170.625 3566.25,170.3594 Q3565.6563,170.0781 3565.0313,170.0781 Q3563.6875,170.0781 3563,171.1563 Q3562.3125,172.2188 3562.3125,174.3125 Q3562.3125,176.4063 3563,177.4844 Q3563.6875,178.5469 3565.0313,178.5469 Q3565.6563,178.5469 3566.25,178.2813 Q3566.8438,178 3567.4688,177.4219 L3567.4688,180.1406 Z " fill="#000000"/><text fill="#000000" font-family="sans-serif" font-size="14" lengthAdjust="spacing" textLength="289.8369" x="3578.5" y="179.3467">logic_arc_int__baselibs__bit_manipulation</text><line style="stroke:#181818;stroke-width:0.5;" x1="3550.5" x2="3870.3369" y1="190.5" y2="190.5"/></g><!--class comp_arc_sta__baselibs__concurrency--><g id="elem_comp_arc_sta__baselibs__concurrency"><rect fill="#F1F1F1" height="40" id="comp_arc_sta__baselibs__concurrency" rx="2.5" ry="2.5" style="stroke:#181818;stroke-width:0.5;" width="300.2012" x="1522.5" y="275.5"/><ellipse cx="1537.5" cy="291.5" fill="#ADD1B2" rx="11" ry="11" style="stroke:#181818;stroke-width:1;"/><path d="M1540.4688,297.1406 Q1539.8906,297.4375 1539.25,297.5781 Q1538.6094,297.7344 1537.9063,297.7344 Q1535.4063,297.7344 1534.0781,296.0938 Q1532.7656,294.4375 1532.7656,291.3125 Q1532.7656,288.1875 1534.0781,286.5313 Q1535.4063,284.875 1537.9063,284.875 Q1538.6094,284.875 1539.25,285.0313 Q1539.9063,285.1875 1540.4688,285.4844 L1540.4688,288.2031 Q1539.8438,287.625 1539.25,287.3594 Q1538.6563,287.0781 1538.0313,287.0781 Q1536.6875,287.0781 1536,288.1563 Q1535.3125,289.2188 1535.3125,291.3125 Q1535.3125,293.4063 1536,294.4844 Q1536.6875,295.5469 1538.0313,295.5469 Q1538.6563,295.5469 1539.25,295.2813 Q1539.8438,295 1540.4688,294.4219 L1540.4688,297.1406 Z " fill="#000000"/><text fill="#000000" font-family="sans-serif" font-size="14" lengthAdjust="spacing" textLength="268.2012" x="1551.5" y="296.3467">comp_arc_sta__baselibs__concurrency</text><line style="stroke:#181818;stroke-width:0.5;" x1="1523.5" x2="1821.7012" y1="307.5" y2="307.5"/></g><!--class logic_arc_int__baselibs__shared_future--><g id="elem_logic_arc_int__baselibs__shared_future"><rect fill="#F1F1F1" height="40" id="logic_arc_int__baselibs__shared_future" rx="2.5" ry="2.5" style="stroke:#181818;stroke-width:0.5;" width="302.0811" x="1370.5" y="158.5"/><ellipse cx="1385.5" cy="174.5" fill="#ADD1B2" rx="11" ry="11" style="stroke:#181818;stroke-width:1;"/><path d="M1388.4688,180.1406 Q1387.8906,180.4375 1387.25,180.5781 Q1386.6094,180.7344 1385.9063,180.7344 Q1383.4063,180.7344 1382.0781,179.0938 Q1380.7656,177.4375 1380.7656,174.3125 Q1380.7656,171.1875 1382.0781,169.5313 Q1383.4063,167.875 1385.9063,167.875 Q1386.6094,167.875 1387.25,168.0313 Q1387.9063,168.1875 1388.4688,168.4844 L1388.4688,171.2031 Q1387.8438,170.625 1387.25,170.3594 Q1386.6563,170.0781 1386.0313,170.0781 Q1384.6875,170.0781 1384,171.1563 Q1383.3125,172.2188 1383.3125,174.3125 Q1383.3125,176.4063 1384,177.4844 Q1384.6875,178.5469 1386.0313,178.5469 Q1386.6563,178.5469 1387.25,178.2813 Q1387.8438,178 1388.4688,177.4219 L1388.4688,180.1406 Z " fill="#000000"/><text fill="#000000" font-family="sans-serif" font-size="14" lengthAdjust="spacing" textLength="270.0811" x="1399.5" y="179.3467">logic_arc_int__baselibs__shared_future</text><line style="stroke:#181818;stroke-width:0.5;" x1="1371.5" x2="1671.5811" y1="190.5" y2="190.5"/></g><!--class comp_arc_sta__baselibs__json--><g id="elem_comp_arc_sta__baselibs__json"><rect fill="#F1F1F1" height="40" id="comp_arc_sta__baselibs__json" rx="2.5" ry="2.5" style="stroke:#181818;stroke-width:0.5;" width="242.1367" x="5305.5" y="275.5"/><ellipse cx="5320.5" cy="291.5" fill="#ADD1B2" rx="11" ry="11" style="stroke:#181818;stroke-width:1;"/><path d="M5323.4688,297.1406 Q5322.8906,297.4375 5322.25,297.5781 Q5321.6094,297.7344 5320.9063,297.7344 Q5318.4063,297.7344 5317.0781,296.0938 Q5315.7656,294.4375 5315.7656,291.3125 Q5315.7656,288.1875 5317.0781,286.5313 Q5318.4063,284.875 5320.9063,284.875 Q5321.6094,284.875 5322.25,285.0313 Q5322.9063,285.1875 5323.4688,285.4844 L5323.4688,288.2031 Q5322.8438,287.625 5322.25,287.3594 Q5321.6563,287.0781 5321.0313,287.0781 Q5319.6875,287.0781 5319,288.1563 Q5318.3125,289.2188 5318.3125,291.3125 Q5318.3125,293.4063 5319,294.4844 Q5319.6875,295.5469 5321.0313,295.5469 Q5321.6563,295.5469 5322.25,295.2813 Q5322.8438,295 5323.4688,294.4219 L5323.4688,297.1406 Z " fill="#000000"/><text fill="#000000" font-family="sans-serif" font-size="14" lengthAdjust="spacing" textLength="210.1367" x="5334.5" y="296.3467">comp_arc_sta__baselibs__json</text><line style="stroke:#181818;stroke-width:0.5;" x1="5306.5" x2="5546.6367" y1="307.5" y2="307.5"/></g><!--class logic_arc_int__baselibs__json--><g id="elem_logic_arc_int__baselibs__json"><rect fill="#F1F1F1" height="40" id="logic_arc_int__baselibs__json" rx="2.5" ry="2.5" style="stroke:#181818;stroke-width:0.5;" width="233.168" x="5319" y="158.5"/><ellipse cx="5334" cy="174.5" fill="#ADD1B2" rx="11" ry="11" style="stroke:#181818;stroke-width:1;"/><path d="M5336.9688,180.1406 Q5336.3906,180.4375 5335.75,180.5781 Q5335.1094,180.7344 5334.4063,180.7344 Q5331.9063,180.7344 5330.5781,179.0938 Q5329.2656,177.4375 5329.2656,174.3125 Q5329.2656,171.1875 5330.5781,169.5313 Q5331.9063,167.875 5334.4063,167.875 Q5335.1094,167.875 5335.75,168.0313 Q5336.4063,168.1875 5336.9688,168.4844 L5336.9688,171.2031 Q5336.3438,170.625 5335.75,170.3594 Q5335.1563,170.0781 5334.5313,170.0781 Q5333.1875,170.0781 5332.5,171.1563 Q5331.8125,172.2188 5331.8125,174.3125 Q5331.8125,176.4063 5332.5,177.4844 Q5333.1875,178.5469 5334.5313,178.5469 Q5335.1563,178.5469 5335.75,178.2813 Q5336.3438,178 5336.9688,177.4219 L5336.9688,180.1406 Z " fill="#000000"/><text fill="#000000" font-family="sans-serif" font-size="14" lengthAdjust="spacing" textLength="201.168" x="5348" y="179.3467">logic_arc_int__baselibs__json</text><line style="stroke:#181818;stroke-width:0.5;" x1="5320" x2="5551.168" y1="190.5" y2="190.5"/></g><!--class logic_arc_int__baselibs__filesystem--><g id="elem_logic_arc_int__baselibs__filesystem"><rect fill="#F1F1F1" height="40" id="logic_arc_int__baselibs__filesystem" rx="2.5" ry="2.5" style="stroke:#181818;stroke-width:0.5;" width="276.4805" x="11.5" y="158.5"/><ellipse cx="26.5" cy="174.5" fill="#ADD1B2" rx="11" ry="11" style="stroke:#181818;stroke-width:1;"/><path d="M29.4688,180.1406 Q28.8906,180.4375 28.25,180.5781 Q27.6094,180.7344 26.9063,180.7344 Q24.4063,180.7344 23.0781,179.0938 Q21.7656,177.4375 21.7656,174.3125 Q21.7656,171.1875 23.0781,169.5313 Q24.4063,167.875 26.9063,167.875 Q27.6094,167.875 28.25,168.0313 Q28.9063,168.1875 29.4688,168.4844 L29.4688,171.2031 Q28.8438,170.625 28.25,170.3594 Q27.6563,170.0781 27.0313,170.0781 Q25.6875,170.0781 25,171.1563 Q24.3125,172.2188 24.3125,174.3125 Q24.3125,176.4063 25,177.4844 Q25.6875,178.5469 27.0313,178.5469 Q27.6563,178.5469 28.25,178.2813 Q28.8438,178 29.4688,177.4219 L29.4688,180.1406 Z " fill="#000000"/><text fill="#000000" font-family="sans-serif" font-size="14" lengthAdjust="spacing" textLength="244.4805" x="40.5" y="179.3467">logic_arc_int__baselibs__filesystem</text><line style="stroke:#181818;stroke-width:0.5;" x1="12.5" x2="286.9805" y1="190.5" y2="190.5"/></g><!--class logic_arc_int__baselibs__condition_variable--><g id="elem_logic_arc_int__baselibs__condition_variable"><rect fill="#F1F1F1" height="40" id="logic_arc_int__baselibs__condition_variable" rx="2.5" ry="2.5" style="stroke:#181818;stroke-width:0.5;" width="332.7539" x="706" y="158.5"/><ellipse cx="721" cy="174.5" fill="#ADD1B2" rx="11" ry="11" style="stroke:#181818;stroke-width:1;"/><path d="M723.9688,180.1406 Q723.3906,180.4375 722.75,180.5781 Q722.1094,180.7344 721.4063,180.7344 Q718.9063,180.7344 717.5781,179.0938 Q716.2656,177.4375 716.2656,174.3125 Q716.2656,171.1875 717.5781,169.5313 Q718.9063,167.875 721.4063,167.875 Q722.1094,167.875 722.75,168.0313 Q723.4063,168.1875 723.9688,168.4844 L723.9688,171.2031 Q723.3438,170.625 722.75,170.3594 Q722.1563,170.0781 721.5313,170.0781 Q720.1875,170.0781 719.5,171.1563 Q718.8125,172.2188 718.8125,174.3125 Q718.8125,176.4063 719.5,177.4844 Q720.1875,178.5469 721.5313,178.5469 Q722.1563,178.5469 722.75,178.2813 Q723.3438,178 723.9688,177.4219 L723.9688,180.1406 Z " fill="#000000"/><text fill="#000000" font-family="sans-serif" font-size="14" lengthAdjust="spacing" textLength="300.7539" x="735" y="179.3467">logic_arc_int__baselibs__condition_variable</text><line style="stroke:#181818;stroke-width:0.5;" x1="707" x2="1037.7539" y1="190.5" y2="190.5"/></g><!--class comp_arc_sta__baselibs__bit_manipulation--><g id="elem_comp_arc_sta__baselibs__bit_manipulation"><rect fill="#F1F1F1" height="40" id="comp_arc_sta__baselibs__bit_manipulation" rx="2.5" ry="2.5" style="stroke:#181818;stroke-width:0.5;" width="330.8057" x="3725" y="275.5"/><ellipse cx="3740" cy="291.5" fill="#ADD1B2" rx="11" ry="11" style="stroke:#181818;stroke-width:1;"/><path d="M3742.9688,297.1406 Q3742.3906,297.4375 3741.75,297.5781 Q3741.1094,297.7344 3740.4063,297.7344 Q3737.9063,297.7344 3736.5781,296.0938 Q3735.2656,294.4375 3735.2656,291.3125 Q3735.2656,288.1875 3736.5781,286.5313 Q3737.9063,284.875 3740.4063,284.875 Q3741.1094,284.875 3741.75,285.0313 Q3742.4063,285.1875 3742.9688,285.4844 L3742.9688,288.2031 Q3742.3438,287.625 3741.75,287.3594 Q3741.1563,287.0781 3740.5313,287.0781 Q3739.1875,287.0781 3738.5,288.1563 Q3737.8125,289.2188 3737.8125,291.3125 Q3737.8125,293.4063 3738.5,294.4844 Q3739.1875,295.5469 3740.5313,295.5469 Q3741.1563,295.5469 3741.75,295.2813 Q3742.3438,295 3742.9688,294.4219 L3742.9688,297.1406 Z " fill="#000000"/><text fill="#000000" font-family="sans-serif" font-size="14" lengthAdjust="spacing" textLength="298.8057" x="3754" y="296.3467">comp_arc_sta__baselibs__bit_manipulation</text><line style="stroke:#181818;stroke-width:0.5;" x1="3726" x2="4054.8057" y1="307.5" y2="307.5"/></g><!--class logic_arc_int__baselibs__executor--><g id="elem_logic_arc_int__baselibs__executor"><rect fill="#F1F1F1" height="40" id="logic_arc_int__baselibs__executor" rx="2.5" ry="2.5" style="stroke:#181818;stroke-width:0.5;" width="266.4385" x="2259.5" y="158.5"/><ellipse cx="2274.5" cy="174.5" fill="#ADD1B2" rx="11" ry="11" style="stroke:#181818;stroke-width:1;"/><path d="M2277.4688,180.1406 Q2276.8906,180.4375 2276.25,180.5781 Q2275.6094,180.7344 2274.9063,180.7344 Q2272.4063,180.7344 2271.0781,179.0938 Q2269.7656,177.4375 2269.7656,174.3125 Q2269.7656,171.1875 2271.0781,169.5313 Q2272.4063,167.875 2274.9063,167.875 Q2275.6094,167.875 2276.25,168.0313 Q2276.9063,168.1875 2277.4688,168.4844 L2277.4688,171.2031 Q2276.8438,170.625 2276.25,170.3594 Q2275.6563,170.0781 2275.0313,170.0781 Q2273.6875,170.0781 2273,171.1563 Q2272.3125,172.2188 2272.3125,174.3125 Q2272.3125,176.4063 2273,177.4844 Q2273.6875,178.5469 2275.0313,178.5469 Q2275.6563,178.5469 2276.25,178.2813 Q2276.8438,178 2277.4688,177.4219 L2277.4688,180.1406 Z " fill="#000000"/><text fill="#000000" font-family="sans-serif" font-size="14" lengthAdjust="spacing" textLength="234.4385" x="2288.5" y="179.3467">logic_arc_int__baselibs__executor</text><line style="stroke:#181818;stroke-width:0.5;" x1="2260.5" x2="2524.9385" y1="190.5" y2="190.5"/></g><!--class logic_arc_int__baselibs__future--><g id="elem_logic_arc_int__baselibs__future"><rect fill="#F1F1F1" height="40" id="logic_arc_int__baselibs__future" rx="2.5" ry="2.5" style="stroke:#181818;stroke-width:0.5;" width="247.0791" x="1977" y="158.5"/><ellipse cx="1992" cy="174.5" fill="#ADD1B2" rx="11" ry="11" style="stroke:#181818;stroke-width:1;"/><path d="M1994.9688,180.1406 Q1994.3906,180.4375 1993.75,180.5781 Q1993.1094,180.7344 1992.4063,180.7344 Q1989.9063,180.7344 1988.5781,179.0938 Q1987.2656,177.4375 1987.2656,174.3125 Q1987.2656,171.1875 1988.5781,169.5313 Q1989.9063,167.875 1992.4063,167.875 Q1993.1094,167.875 1993.75,168.0313 Q1994.4063,168.1875 1994.9688,168.4844 L1994.9688,171.2031 Q1994.3438,170.625 1993.75,170.3594 Q1993.1563,170.0781 1992.5313,170.0781 Q1991.1875,170.0781 1990.5,171.1563 Q1989.8125,172.2188 1989.8125,174.3125 Q1989.8125,176.4063 1990.5,177.4844 Q1991.1875,178.5469 1992.5313,178.5469 Q1993.1563,178.5469 1993.75,178.2813 Q1994.3438,178 1994.9688,177.4219 L1994.9688,180.1406 Z " fill="#000000"/><text fill="#000000" font-family="sans-serif" font-size="14" lengthAdjust="spacing" textLength="215.0791" x="2006" y="179.3467">logic_arc_int__baselibs__future</text><line style="stroke:#181818;stroke-width:0.5;" x1="1978" x2="2223.0791" y1="190.5" y2="190.5"/></g><!--class comp_arc_sta__baselibs__message_passing--><g id="elem_comp_arc_sta__baselibs__message_passing"><rect fill="#F1F1F1" height="40" id="comp_arc_sta__baselibs__message_passing" rx="2.5" ry="2.5" style="stroke:#181818;stroke-width:0.5;" width="337.1357" x="4273" y="275.5"/><ellipse cx="4288" cy="291.5" fill="#ADD1B2" rx="11" ry="11" style="stroke:#181818;stroke-width:1;"/><path d="M4290.9688,297.1406 Q4290.3906,297.4375 4289.75,297.5781 Q4289.1094,297.7344 4288.4063,297.7344 Q4285.9063,297.7344 4284.5781,296.0938 Q4283.2656,294.4375 4283.2656,291.3125 Q4283.2656,288.1875 4284.5781,286.5313 Q4285.9063,284.875 4288.4063,284.875 Q4289.1094,284.875 4289.75,285.0313 Q4290.4063,285.1875 4290.9688,285.4844 L4290.9688,288.2031 Q4290.3438,287.625 4289.75,287.3594 Q4289.1563,287.0781 4288.5313,287.0781 Q4287.1875,287.0781 4286.5,288.1563 Q4285.8125,289.2188 4285.8125,291.3125 Q4285.8125,293.4063 4286.5,294.4844 Q4287.1875,295.5469 4288.5313,295.5469 Q4289.1563,295.5469 4289.75,295.2813 Q4290.3438,295 4290.9688,294.4219 L4290.9688,297.1406 Z " fill="#000000"/><text fill="#000000" font-family="sans-serif" font-size="14" lengthAdjust="spacing" textLength="305.1357" x="4302" y="296.3467">comp_arc_sta__baselibs__message_passing</text><line style="stroke:#181818;stroke-width:0.5;" x1="4274" x2="4609.1357" y1="307.5" y2="307.5"/></g><!--class logic_arc_int__baselibs__task--><g id="elem_logic_arc_int__baselibs__task"><rect fill="#F1F1F1" height="40" id="logic_arc_int__baselibs__task" rx="2.5" ry="2.5" style="stroke:#181818;stroke-width:0.5;" width="234.0156" x="1707.5" y="158.5"/><ellipse cx="1722.5" cy="174.5" fill="#ADD1B2" rx="11" ry="11" style="stroke:#181818;stroke-width:1;"/><path d="M1725.4688,180.1406 Q1724.8906,180.4375 1724.25,180.5781 Q1723.6094,180.7344 1722.9063,180.7344 Q1720.4063,180.7344 1719.0781,179.0938 Q1717.7656,177.4375 1717.7656,174.3125 Q1717.7656,171.1875 1719.0781,169.5313 Q1720.4063,167.875 1722.9063,167.875 Q1723.6094,167.875 1724.25,168.0313 Q1724.9063,168.1875 1725.4688,168.4844 L1725.4688,171.2031 Q1724.8438,170.625 1724.25,170.3594 Q1723.6563,170.0781 1723.0313,170.0781 Q1721.6875,170.0781 1721,171.1563 Q1720.3125,172.2188 1720.3125,174.3125 Q1720.3125,176.4063 1721,177.4844 Q1721.6875,178.5469 1723.0313,178.5469 Q1723.6563,178.5469 1724.25,178.2813 Q1724.8438,178 1725.4688,177.4219 L1725.4688,180.1406 Z " fill="#000000"/><text fill="#000000" font-family="sans-serif" font-size="14" lengthAdjust="spacing" textLength="202.0156" x="1736.5" y="179.3467">logic_arc_int__baselibs__task</text><line style="stroke:#181818;stroke-width:0.5;" x1="1708.5" x2="1940.5156" y1="190.5" y2="190.5"/></g><!--class comp_arc_sta__baselibs__containers--><g id="elem_comp_arc_sta__baselibs__containers"><rect fill="#F1F1F1" height="40" id="comp_arc_sta__baselibs__containers" rx="2.5" ry="2.5" style="stroke:#181818;stroke-width:0.5;" width="287.1445" x="3028" y="275.5"/><ellipse cx="3043" cy="291.5" fill="#ADD1B2" rx="11" ry="11" style="stroke:#181818;stroke-width:1;"/><path d="M3045.9688,297.1406 Q3045.3906,297.4375 3044.75,297.5781 Q3044.1094,297.7344 3043.4063,297.7344 Q3040.9063,297.7344 3039.5781,296.0938 Q3038.2656,294.4375 3038.2656,291.3125 Q3038.2656,288.1875 3039.5781,286.5313 Q3040.9063,284.875 3043.4063,284.875 Q3044.1094,284.875 3044.75,285.0313 Q3045.4063,285.1875 3045.9688,285.4844 L3045.9688,288.2031 Q3045.3438,287.625 3044.75,287.3594 Q3044.1563,287.0781 3043.5313,287.0781 Q3042.1875,287.0781 3041.5,288.1563 Q3040.8125,289.2188 3040.8125,291.3125 Q3040.8125,293.4063 3041.5,294.4844 Q3042.1875,295.5469 3043.5313,295.5469 Q3044.1563,295.5469 3044.75,295.2813 Q3045.3438,295 3045.9688,294.4219 L3045.9688,297.1406 Z " fill="#000000"/><text fill="#000000" font-family="sans-serif" font-size="14" lengthAdjust="spacing" textLength="255.1445" x="3057" y="296.3467">comp_arc_sta__baselibs__containers</text><line style="stroke:#181818;stroke-width:0.5;" x1="3029" x2="3314.1445" y1="307.5" y2="307.5"/></g><!--class logic_arc_int__baselibs__dynamic_array--><g id="elem_logic_arc_int__baselibs__dynamic_array"><rect fill="#F1F1F1" height="40" id="logic_arc_int__baselibs__dynamic_array" rx="2.5" ry="2.5" style="stroke:#181818;stroke-width:0.5;" width="308.3496" x="2877.5" y="158.5"/><ellipse cx="2892.5" cy="174.5" fill="#ADD1B2" rx="11" ry="11" style="stroke:#181818;stroke-width:1;"/><path d="M2895.4688,180.1406 Q2894.8906,180.4375 2894.25,180.5781 Q2893.6094,180.7344 2892.9063,180.7344 Q2890.4063,180.7344 2889.0781,179.0938 Q2887.7656,177.4375 2887.7656,174.3125 Q2887.7656,171.1875 2889.0781,169.5313 Q2890.4063,167.875 2892.9063,167.875 Q2893.6094,167.875 2894.25,168.0313 Q2894.9063,168.1875 2895.4688,168.4844 L2895.4688,171.2031 Q2894.8438,170.625 2894.25,170.3594 Q2893.6563,170.0781 2893.0313,170.0781 Q2891.6875,170.0781 2891,171.1563 Q2890.3125,172.2188 2890.3125,174.3125 Q2890.3125,176.4063 2891,177.4844 Q2891.6875,178.5469 2893.0313,178.5469 Q2893.6563,178.5469 2894.25,178.2813 Q2894.8438,178 2895.4688,177.4219 L2895.4688,180.1406 Z " fill="#000000"/><text fill="#000000" font-family="sans-serif" font-size="14" lengthAdjust="spacing" textLength="276.3496" x="2906.5" y="179.3467">logic_arc_int__baselibs__dynamic_array</text><line style="stroke:#181818;stroke-width:0.5;" x1="2878.5" x2="3184.8496" y1="190.5" y2="190.5"/></g><!--class logic_arc_int__baselibs__task_result--><g id="elem_logic_arc_int__baselibs__task_result"><rect fill="#F1F1F1" height="40" id="logic_arc_int__baselibs__task_result" rx="2.5" ry="2.5" style="stroke:#181818;stroke-width:0.5;" width="280.9307" x="2561" y="158.5"/><ellipse cx="2576" cy="174.5" fill="#ADD1B2" rx="11" ry="11" style="stroke:#181818;stroke-width:1;"/><path d="M2578.9688,180.1406 Q2578.3906,180.4375 2577.75,180.5781 Q2577.1094,180.7344 2576.4063,180.7344 Q2573.9063,180.7344 2572.5781,179.0938 Q2571.2656,177.4375 2571.2656,174.3125 Q2571.2656,171.1875 2572.5781,169.5313 Q2573.9063,167.875 2576.4063,167.875 Q2577.1094,167.875 2577.75,168.0313 Q2578.4063,168.1875 2578.9688,168.4844 L2578.9688,171.2031 Q2578.3438,170.625 2577.75,170.3594 Q2577.1563,170.0781 2576.5313,170.0781 Q2575.1875,170.0781 2574.5,171.1563 Q2573.8125,172.2188 2573.8125,174.3125 Q2573.8125,176.4063 2574.5,177.4844 Q2575.1875,178.5469 2576.5313,178.5469 Q2577.1563,178.5469 2577.75,178.2813 Q2578.3438,178 2578.9688,177.4219 L2578.9688,180.1406 Z " fill="#000000"/><text fill="#000000" font-family="sans-serif" font-size="14" lengthAdjust="spacing" textLength="248.9307" x="2590" y="179.3467">logic_arc_int__baselibs__task_result</text><line style="stroke:#181818;stroke-width:0.5;" x1="2562" x2="2840.9307" y1="190.5" y2="190.5"/></g><!--class logic_arc_int__baselibs__bit_mask_operator--><g id="elem_logic_arc_int__baselibs__bit_mask_operator"><rect fill="#F1F1F1" height="40" id="logic_arc_int__baselibs__bit_mask_operator" rx="2.5" ry="2.5" style="stroke:#181818;stroke-width:0.5;" width="334.6406" x="3907" y="158.5"/><ellipse cx="3922" cy="174.5" fill="#ADD1B2" rx="11" ry="11" style="stroke:#181818;stroke-width:1;"/><path d="M3924.9688,180.1406 Q3924.3906,180.4375 3923.75,180.5781 Q3923.1094,180.7344 3922.4063,180.7344 Q3919.9063,180.7344 3918.5781,179.0938 Q3917.2656,177.4375 3917.2656,174.3125 Q3917.2656,171.1875 3918.5781,169.5313 Q3919.9063,167.875 3922.4063,167.875 Q3923.1094,167.875 3923.75,168.0313 Q3924.4063,168.1875 3924.9688,168.4844 L3924.9688,171.2031 Q3924.3438,170.625 3923.75,170.3594 Q3923.1563,170.0781 3922.5313,170.0781 Q3921.1875,170.0781 3920.5,171.1563 Q3919.8125,172.2188 3919.8125,174.3125 Q3919.8125,176.4063 3920.5,177.4844 Q3921.1875,178.5469 3922.5313,178.5469 Q3923.1563,178.5469 3923.75,178.2813 Q3924.3438,178 3924.9688,177.4219 L3924.9688,180.1406 Z " fill="#000000"/><text fill="#000000" font-family="sans-serif" font-size="14" lengthAdjust="spacing" textLength="302.6406" x="3936" y="179.3467">logic_arc_int__baselibs__bit_mask_operator</text><line style="stroke:#181818;stroke-width:0.5;" x1="3908" x2="4240.6406" y1="190.5" y2="190.5"/></g><!--class comp_arc_sta__baselibs__filesystem--><g id="elem_comp_arc_sta__baselibs__filesystem"><rect fill="#F1F1F1" height="40" id="comp_arc_sta__baselibs__filesystem" rx="2.5" ry="2.5" style="stroke:#181818;stroke-width:0.5;" width="285.4492" x="7" y="275.5"/><ellipse cx="22" cy="291.5" fill="#ADD1B2" rx="11" ry="11" style="stroke:#181818;stroke-width:1;"/><path d="M24.9688,297.1406 Q24.3906,297.4375 23.75,297.5781 Q23.1094,297.7344 22.4063,297.7344 Q19.9063,297.7344 18.5781,296.0938 Q17.2656,294.4375 17.2656,291.3125 Q17.2656,288.1875 18.5781,286.5313 Q19.9063,284.875 22.4063,284.875 Q23.1094,284.875 23.75,285.0313 Q24.4063,285.1875 24.9688,285.4844 L24.9688,288.2031 Q24.3438,287.625 23.75,287.3594 Q23.1563,287.0781 22.5313,287.0781 Q21.1875,287.0781 20.5,288.1563 Q19.8125,289.2188 19.8125,291.3125 Q19.8125,293.4063 20.5,294.4844 Q21.1875,295.5469 22.5313,295.5469 Q23.1563,295.5469 23.75,295.2813 Q24.3438,295 24.9688,294.4219 L24.9688,297.1406 Z " fill="#000000"/><text fill="#000000" font-family="sans-serif" font-size="14" lengthAdjust="spacing" textLength="253.4492" x="36" y="296.3467">comp_arc_sta__baselibs__filesystem</text><line style="stroke:#181818;stroke-width:0.5;" x1="8" x2="291.4492" y1="307.5" y2="307.5"/></g><!--link Feature_User to logic_arc_int__baselibs__utils_base64--><g id="link_Feature_User_logic_arc_int__baselibs__utils_base64"><path codeLine="15" d="M3076.74,46.08 C3290.07,53.76 4216.73,89.66 4973.5,158.5 C4979.35,159.03 4979.3496,159.0049 4985.3696,159.6049 " fill="transparent" id="Feature_User-to-logic_arc_int__baselibs__utils_base64" style="stroke:#181818;stroke-width:1;"/><polygon fill="#181818" points="4991.34,160.2,4982.7811,155.3271,4986.3647,159.7041,4981.9877,163.2877,4991.34,160.2" style="stroke:#181818;stroke-width:1;"/><text fill="#000000" font-family="sans-serif" font-size="13" lengthAdjust="spacing" textLength="23.0103" x="4604.5" y="124.5669">use</text></g><!--link Feature_User to logic_arc_int__baselibs__synchronized_queue--><g id="link_Feature_User_logic_arc_int__baselibs__synchronized_queue"><path codeLine="16" d="M2986.43,45.94 C2794.92,52.16 2029.72,77.89 1401.5,111.5 C1084.38,128.47 1005,132.41 688.5,158.5 C682.66,158.98 682.6976,158.9719 676.6976,159.4919 " fill="transparent" id="Feature_User-to-logic_arc_int__baselibs__synchronized_queue" style="stroke:#181818;stroke-width:1;"/><polygon fill="#181818" points="670.72,160.01,680.0318,163.218,675.7013,159.5783,679.341,155.2479,670.72,160.01" style="stroke:#181818;stroke-width:1;"/><text fill="#000000" font-family="sans-serif" font-size="13" lengthAdjust="spacing" textLength="23.0103" x="1402.5" y="124.5669">use</text></g><!--reverse link logic_arc_int__baselibs__memory_shared to comp_arc_sta__baselibs__memory_shared--><g id="link_logic_arc_int__baselibs__memory_shared_comp_arc_sta__baselibs__memory_shared"><path codeLine="17" d="M6031.379,204.7464 C6032.119,225.9764 6033.09,253.94 6033.83,275.19 " fill="transparent" id="logic_arc_int__baselibs__memory_shared-backto-comp_arc_sta__baselibs__memory_shared" style="stroke:#181818;stroke-width:1;"/><polygon fill="#181818" points="6031.17,198.75,6027.4859,207.8839,6031.3442,203.747,6035.4811,207.6052,6031.17,198.75" style="stroke:#181818;stroke-width:1;"/><text fill="#000000" font-family="sans-serif" font-size="13" lengthAdjust="spacing" textLength="76.9082" x="6034.5" y="241.5669">implements</text></g><!--link Feature_User to logic_arc_int__baselibs__message_passing--><g id="link_Feature_User_logic_arc_int__baselibs__message_passing"><path codeLine="18" d="M3076.68,48.51 C3237.57,62.81 3797.65,112.96 4259.5,158.5 C4265.35,159.08 4265.3296,159.0749 4271.3496,159.6749 " fill="transparent" id="Feature_User-to-logic_arc_int__baselibs__message_passing" style="stroke:#181818;stroke-width:1;"/><polygon fill="#181818" points="4277.32,160.27,4268.7611,155.3971,4272.3447,159.7741,4267.9677,163.3577,4277.32,160.27" style="stroke:#181818;stroke-width:1;"/><text fill="#000000" font-family="sans-serif" font-size="13" lengthAdjust="spacing" textLength="23.0103" x="3923.5" y="124.5669">use</text></g><!--reverse link logic_arc_int__baselibs__result to comp_arc_sta__baselibs__result--><g id="link_logic_arc_int__baselibs__result_comp_arc_sta__baselibs__result"><path codeLine="19" d="M5709.5,204.75 C5709.5,225.98 5709.5,253.94 5709.5,275.19 " fill="transparent" id="logic_arc_int__baselibs__result-backto-comp_arc_sta__baselibs__result" style="stroke:#181818;stroke-width:1;"/><polygon fill="#181818" points="5709.5,198.75,5705.5,207.75,5709.5,203.75,5713.5,207.75,5709.5,198.75" style="stroke:#181818;stroke-width:1;"/><text fill="#000000" font-family="sans-serif" font-size="13" lengthAdjust="spacing" textLength="76.9082" x="5710.5" y="241.5669">implements</text></g><!--link Feature_User to logic_arc_int__baselibs__intrusive_list--><g id="link_Feature_User_logic_arc_int__baselibs__intrusive_list"><path codeLine="20" d="M3076.81,62.44 C3140.14,87.5 3249.011,130.6022 3313.801,156.2422 " fill="transparent" id="Feature_User-to-logic_arc_int__baselibs__intrusive_list" style="stroke:#181818;stroke-width:1;"/><polygon fill="#181818" points="3319.38,158.45,3312.4834,151.4189,3314.7308,156.6101,3309.5396,158.8576,3319.38,158.45" style="stroke:#181818;stroke-width:1;"/><text fill="#000000" font-family="sans-serif" font-size="13" lengthAdjust="spacing" textLength="23.0103" x="3240.5" y="124.5669">use</text></g><!--link Feature_User to logic_arc_int__baselibs__promise--><g id="link_Feature_User_logic_arc_int__baselibs__promise"><path codeLine="21" d="M2986.33,46.47 C2790.99,55.22 1999.63,93.06 1352.5,158.5 C1346.83,159.07 1347.0043,159.0364 1341.1643,159.6764 " fill="transparent" id="Feature_User-to-logic_arc_int__baselibs__promise" style="stroke:#181818;stroke-width:1;"/><polygon fill="#181818" points="1335.2,160.33,1344.5822,163.3258,1340.1702,159.7853,1343.7107,155.3734,1335.2,160.33" style="stroke:#181818;stroke-width:1;"/><text fill="#000000" font-family="sans-serif" font-size="13" lengthAdjust="spacing" textLength="23.0103" x="1860.5" y="124.5669">use</text></g><!--reverse link logic_arc_int__baselibs__utils_base64 to comp_arc_sta__baselibs__utils--><g id="link_logic_arc_int__baselibs__utils_base64_comp_arc_sta__baselibs__utils"><path codeLine="22" d="M5104.0799,202.1113 C5072.5999,223.4013 5027.16,254.14 4995.76,275.38 " fill="transparent" id="logic_arc_int__baselibs__utils_base64-backto-comp_arc_sta__baselibs__utils" style="stroke:#181818;stroke-width:1;"/><polygon fill="#181818" points="5109.05,198.75,5099.354,200.4785,5104.9083,201.5511,5103.8357,207.1053,5109.05,198.75" style="stroke:#181818;stroke-width:1;"/><text fill="#000000" font-family="sans-serif" font-size="13" lengthAdjust="spacing" textLength="76.9082" x="5064.5" y="241.5669">implements</text></g><!--link Feature_User to logic_arc_int__baselibs__utils_scoped_op--><g id="link_Feature_User_logic_arc_int__baselibs__utils_scoped_op"><path codeLine="23" d="M3076.79,47.15 C3265.92,58.32 4011.23,103.62 4622.5,158.5 C4628.47,159.04 4628.5775,159.0261 4634.7175,159.6161 " fill="transparent" id="Feature_User-to-logic_arc_int__baselibs__utils_scoped_op" style="stroke:#181818;stroke-width:1;"/><polygon fill="#181818" points="4640.69,160.19,4632.1139,155.3475,4635.7129,159.7117,4631.3487,163.3108,4640.69,160.19" style="stroke:#181818;stroke-width:1;"/><text fill="#000000" font-family="sans-serif" font-size="13" lengthAdjust="spacing" textLength="23.0103" x="4231.5" y="124.5669">use</text></g><!--link Feature_User to logic_arc_int__baselibs__bit_manipulation--><g id="link_Feature_User_logic_arc_int__baselibs__bit_manipulation"><path codeLine="24" d="M3076.58,53.33 C3185.35,74.64 3458.3519,128.1064 3607.3419,157.2964 " fill="transparent" id="Feature_User-to-logic_arc_int__baselibs__bit_manipulation" style="stroke:#181818;stroke-width:1;"/><polygon fill="#181818" points="3613.23,158.45,3605.167,152.7943,3608.3233,157.4887,3603.6289,160.645,3613.23,158.45" style="stroke:#181818;stroke-width:1;"/><text fill="#000000" font-family="sans-serif" font-size="13" lengthAdjust="spacing" textLength="23.0103" x="3453.5" y="124.5669">use</text></g><!--reverse link logic_arc_int__baselibs__shared_future to comp_arc_sta__baselibs__concurrency--><g id="link_logic_arc_int__baselibs__shared_future_comp_arc_sta__baselibs__concurrency"><path codeLine="25" d="M1551.5436,202.3849 C1579.5036,223.6749 1619.51,254.14 1647.4,275.38 " fill="transparent" id="logic_arc_int__baselibs__shared_future-backto-comp_arc_sta__baselibs__concurrency" style="stroke:#181818;stroke-width:1;"/><polygon fill="#181818" points="1546.77,198.75,1551.5072,207.3847,1550.748,201.7791,1556.3537,201.0199,1546.77,198.75" style="stroke:#181818;stroke-width:1;"/><text fill="#000000" font-family="sans-serif" font-size="13" lengthAdjust="spacing" textLength="76.9082" x="1607.5" y="241.5669">implements</text></g><!--reverse link logic_arc_int__baselibs__json to comp_arc_sta__baselibs__json--><g id="link_logic_arc_int__baselibs__json_comp_arc_sta__baselibs__json"><path codeLine="26" d="M5433.5223,204.7317 C5431.8623,225.9617 5429.67,253.94 5428.01,275.19 " fill="transparent" id="logic_arc_int__baselibs__json-backto-comp_arc_sta__baselibs__json" style="stroke:#181818;stroke-width:1;"/><polygon fill="#181818" points="5433.99,198.75,5429.3006,207.4108,5433.6002,203.7348,5437.2762,208.0344,5433.99,198.75" style="stroke:#181818;stroke-width:1;"/><text fill="#000000" font-family="sans-serif" font-size="13" lengthAdjust="spacing" textLength="76.9082" x="5433.5" y="241.5669">implements</text></g><!--link Feature_User to logic_arc_int__baselibs__filesystem--><g id="link_Feature_User_logic_arc_int__baselibs__filesystem"><path codeLine="27" d="M2986.28,45.6 C2772.05,50.88 1837.74,75.01 1072.5,111.5 C730.92,127.79 645.04,127.24 304.5,158.5 C298.97,159.01 299.2891,158.9516 293.5991,159.5316 " fill="transparent" id="Feature_User-to-logic_arc_int__baselibs__filesystem" style="stroke:#181818;stroke-width:1;"/><polygon fill="#181818" points="287.63,160.14,296.9892,163.2067,292.6042,159.633,296.178,155.248,287.63,160.14" style="stroke:#181818;stroke-width:1;"/><text fill="#000000" font-family="sans-serif" font-size="13" lengthAdjust="spacing" textLength="23.0103" x="1073.5" y="124.5669">use</text></g><!--reverse link logic_arc_int__baselibs__condition_variable to comp_arc_sta__baselibs__concurrency--><g id="link_logic_arc_int__baselibs__condition_variable_comp_arc_sta__baselibs__concurrency"><path codeLine="28" d="M1007.4863,199.3921 C1097.8863,212.6721 1215.58,229.88 1324.5,245.5 C1394.26,255.5 1471.91,266.45 1536.13,275.46 " fill="transparent" id="logic_arc_int__baselibs__condition_variable-backto-comp_arc_sta__baselibs__concurrency" style="stroke:#181818;stroke-width:1;"/><polygon fill="#181818" points="1001.55,198.52,1009.8731,203.7856,1006.4969,199.2467,1011.0358,195.8706,1001.55,198.52" style="stroke:#181818;stroke-width:1;"/><text fill="#000000" font-family="sans-serif" font-size="13" lengthAdjust="spacing" textLength="76.9082" x="1325.5" y="241.5669">implements</text></g><!--reverse link logic_arc_int__baselibs__bit_manipulation to comp_arc_sta__baselibs__bit_manipulation--><g id="link_logic_arc_int__baselibs__bit_manipulation_comp_arc_sta__baselibs__bit_manipulation"><path codeLine="29" d="M3745.6865,201.9799 C3779.0165,223.2699 3827.33,254.14 3860.57,275.38 " fill="transparent" id="logic_arc_int__baselibs__bit_manipulation-backto-comp_arc_sta__baselibs__bit_manipulation" style="stroke:#181818;stroke-width:1;"/><polygon fill="#181818" points="3740.63,198.75,3746.0614,206.9658,3744.8437,201.4416,3750.368,200.2239,3740.63,198.75" style="stroke:#181818;stroke-width:1;"/><text fill="#000000" font-family="sans-serif" font-size="13" lengthAdjust="spacing" textLength="76.9082" x="3812.5" y="241.5669">implements</text></g><!--link Feature_User to logic_arc_int__baselibs__condition_variable--><g id="link_Feature_User_logic_arc_int__baselibs__condition_variable"><path codeLine="30" d="M2986.21,46.08 C2770.66,53.79 1827.09,90.03 1056.5,158.5 C1050.9,159 1051.1847,158.9693 1045.4347,159.4993 " fill="transparent" id="Feature_User-to-logic_arc_int__baselibs__condition_variable" style="stroke:#181818;stroke-width:1;"/><polygon fill="#181818" points="1039.46,160.05,1048.7891,163.2071,1044.4389,159.5911,1048.0549,155.2408,1039.46,160.05" style="stroke:#181818;stroke-width:1;"/><text fill="#000000" font-family="sans-serif" font-size="13" lengthAdjust="spacing" textLength="23.0103" x="1654.5" y="124.5669">use</text></g><!--reverse link logic_arc_int__baselibs__utils_scoped_op to comp_arc_sta__baselibs__utils--><g id="link_logic_arc_int__baselibs__utils_scoped_op_comp_arc_sta__baselibs__utils"><path codeLine="31" d="M4831.7506,202.1252 C4863.0406,223.4152 4908.19,254.14 4939.4,275.38 " fill="transparent" id="logic_arc_int__baselibs__utils_scoped_op-backto-comp_arc_sta__baselibs__utils" style="stroke:#181818;stroke-width:1;"/><polygon fill="#181818" points="4826.79,198.75,4831.9808,207.1199,4830.9238,201.5627,4836.4811,200.5058,4826.79,198.75" style="stroke:#181818;stroke-width:1;"/><text fill="#000000" font-family="sans-serif" font-size="13" lengthAdjust="spacing" textLength="76.9082" x="4894.5" y="241.5669">implements</text></g><!--link Feature_User to logic_arc_int__baselibs__executor--><g id="link_Feature_User_logic_arc_int__baselibs__executor"><path codeLine="32" d="M2986.31,53.91 C2882,75.62 2628.6341,128.3472 2489.7141,157.2672 " fill="transparent" id="Feature_User-to-logic_arc_int__baselibs__executor" style="stroke:#181818;stroke-width:1;"/><polygon fill="#181818" points="2483.84,158.49,2493.4663,160.5718,2488.7351,157.471,2491.8359,152.7397,2483.84,158.49" style="stroke:#181818;stroke-width:1;"/><text fill="#000000" font-family="sans-serif" font-size="13" lengthAdjust="spacing" textLength="23.0103" x="2694.5" y="124.5669">use</text></g><!--link Feature_User to logic_arc_int__baselibs__future--><g id="link_Feature_User_logic_arc_int__baselibs__future"><path codeLine="33" d="M2986.28,50.96 C2849,70.57 2439.5697,129.0614 2230.0797,158.9914 " fill="transparent" id="Feature_User-to-logic_arc_int__baselibs__future" style="stroke:#181818;stroke-width:1;"/><polygon fill="#181818" points="2224.14,159.84,2233.6153,162.5269,2229.0897,159.1328,2232.4838,154.6073,2224.14,159.84" style="stroke:#181818;stroke-width:1;"/><text fill="#000000" font-family="sans-serif" font-size="13" lengthAdjust="spacing" textLength="23.0103" x="2539.5" y="124.5669">use</text></g><!--reverse link logic_arc_int__baselibs__message_passing to comp_arc_sta__baselibs__message_passing--><g id="link_logic_arc_int__baselibs__message_passing_comp_arc_sta__baselibs__message_passing"><path codeLine="34" d="M4441.5,204.75 C4441.5,225.98 4441.5,253.94 4441.5,275.19 " fill="transparent" id="logic_arc_int__baselibs__message_passing-backto-comp_arc_sta__baselibs__message_passing" style="stroke:#181818;stroke-width:1;"/><polygon fill="#181818" points="4441.5,198.75,4437.5,207.75,4441.5,203.75,4445.5,207.75,4441.5,198.75" style="stroke:#181818;stroke-width:1;"/><text fill="#000000" font-family="sans-serif" font-size="13" lengthAdjust="spacing" textLength="76.9082" x="4442.5" y="241.5669">implements</text></g><!--reverse link logic_arc_int__baselibs__future to comp_arc_sta__baselibs__concurrency--><g id="link_logic_arc_int__baselibs__future_comp_arc_sta__baselibs__concurrency"><path codeLine="35" d="M2023.5455,200.177 C1944.2755,221.477 1822.67,254.15 1743.47,275.43 " fill="transparent" id="logic_arc_int__baselibs__future-backto-comp_arc_sta__baselibs__concurrency" style="stroke:#181818;stroke-width:1;"/><polygon fill="#181818" points="2029.34,198.62,2019.6103,197.0925,2024.5113,199.9175,2021.6863,204.8185,2029.34,198.62" style="stroke:#181818;stroke-width:1;"/><text fill="#000000" font-family="sans-serif" font-size="13" lengthAdjust="spacing" textLength="76.9082" x="1913.5" y="241.5669">implements</text></g><!--link Feature_User to logic_arc_int__baselibs__shared_future--><g id="link_Feature_User_logic_arc_int__baselibs__shared_future"><path codeLine="36" d="M2986.26,47.74 C2816.02,60.06 2197.7,105.98 1689.5,158.5 C1683.95,159.07 1684.267,159.0419 1678.567,159.6419 " fill="transparent" id="Feature_User-to-logic_arc_int__baselibs__shared_future" style="stroke:#181818;stroke-width:1;"/><polygon fill="#181818" points="1672.6,160.27,1681.9693,163.3059,1677.5725,159.7466,1681.1318,155.3498,1672.6,160.27" style="stroke:#181818;stroke-width:1;"/><text fill="#000000" font-family="sans-serif" font-size="13" lengthAdjust="spacing" textLength="23.0103" x="2170.5" y="124.5669">use</text></g><!--link Feature_User to logic_arc_int__baselibs__result--><g id="link_Feature_User_logic_arc_int__baselibs__result"><path codeLine="37" d="M3076.5,45.29 C3289.72,49.21 4219.54,68.08 4980.5,111.5 C5242.68,126.46 5308.4,130.39 5569.5,158.5 C5575.35,159.13 5575.381,159.1095 5581.421,159.8195 " fill="transparent" id="Feature_User-to-logic_arc_int__baselibs__result" style="stroke:#181818;stroke-width:1;"/><polygon fill="#181818" points="5587.38,160.52,5578.9085,155.4966,5582.4142,159.9363,5577.9746,163.4419,5587.38,160.52" style="stroke:#181818;stroke-width:1;"/><text fill="#000000" font-family="sans-serif" font-size="13" lengthAdjust="spacing" textLength="23.0103" x="5247.5" y="124.5669">use</text></g><!--reverse link logic_arc_int__baselibs__task to comp_arc_sta__baselibs__concurrency--><g id="link_logic_arc_int__baselibs__task_comp_arc_sta__baselibs__concurrency"><path codeLine="38" d="M1794.2751,202.3701 C1766.1351,223.6601 1725.85,254.14 1697.77,275.38 " fill="transparent" id="logic_arc_int__baselibs__task-backto-comp_arc_sta__baselibs__concurrency" style="stroke:#181818;stroke-width:1;"/><polygon fill="#181818" points="1799.06,198.75,1789.4693,200.9902,1795.0726,201.7668,1794.2961,207.3701,1799.06,198.75" style="stroke:#181818;stroke-width:1;"/><text fill="#000000" font-family="sans-serif" font-size="13" lengthAdjust="spacing" textLength="76.9082" x="1759.5" y="241.5669">implements</text></g><!--reverse link logic_arc_int__baselibs__intrusive_list to comp_arc_sta__baselibs__containers--><g id="link_logic_arc_int__baselibs__intrusive_list_comp_arc_sta__baselibs__containers"><path codeLine="39" d="M3329.5148,201.7861 C3293.2248,223.0761 3240.29,254.14 3204.09,275.38 " fill="transparent" id="logic_arc_int__baselibs__intrusive_list-backto-comp_arc_sta__baselibs__containers" style="stroke:#181818;stroke-width:1;"/><polygon fill="#181818" points="3334.69,198.75,3324.9032,199.854,3330.3774,201.2801,3328.9513,206.7542,3334.69,198.75" style="stroke:#181818;stroke-width:1;"/><text fill="#000000" font-family="sans-serif" font-size="13" lengthAdjust="spacing" textLength="76.9082" x="3282.5" y="241.5669">implements</text></g><!--link Feature_User to logic_arc_int__baselibs__memory_shared--><g id="link_Feature_User_logic_arc_int__baselibs__memory_shared"><path codeLine="40" d="M3076.67,44.96 C3309.09,47.53 4393.6,61.74 5279.5,111.5 C5484.18,123 5713.5508,144.5227 5865.4208,159.9727 " fill="transparent" id="Feature_User-to-logic_arc_int__baselibs__memory_shared" style="stroke:#181818;stroke-width:1;"/><polygon fill="#181818" points="5871.39,160.58,5862.8411,155.6897,5866.4157,160.074,5862.0314,163.6486,5871.39,160.58" style="stroke:#181818;stroke-width:1;"/><text fill="#000000" font-family="sans-serif" font-size="13" lengthAdjust="spacing" textLength="23.0103" x="5508.5" y="124.5669">use</text></g><!--link Feature_User to logic_arc_int__baselibs__json--><g id="link_Feature_User_logic_arc_int__baselibs__json"><path codeLine="41" d="M3076.52,45.9 C3266.17,51.91 4018.69,76.75 4636.5,111.5 C4931.88,128.12 5006.29,127.42 5300.5,158.5 C5306.5,159.13 5306.6923,159.1189 5312.8923,159.8589 " fill="transparent" id="Feature_User-to-logic_arc_int__baselibs__json" style="stroke:#181818;stroke-width:1;"/><polygon fill="#181818" points="5318.85,160.57,5310.3875,155.5316,5313.8852,159.9774,5309.4394,163.4752,5318.85,160.57" style="stroke:#181818;stroke-width:1;"/><text fill="#000000" font-family="sans-serif" font-size="13" lengthAdjust="spacing" textLength="23.0103" x="4948.5" y="124.5669">use</text></g><!--reverse link logic_arc_int__baselibs__dynamic_array to comp_arc_sta__baselibs__containers--><g id="link_logic_arc_int__baselibs__dynamic_array_comp_arc_sta__baselibs__containers"><path codeLine="42" d="M3059.5667,202.558 C3085.4167,223.788 3122.12,253.94 3147.99,275.19 " fill="transparent" id="logic_arc_int__baselibs__dynamic_array-backto-comp_arc_sta__baselibs__containers" style="stroke:#181818;stroke-width:1;"/><polygon fill="#181818" points="3054.93,198.75,3059.3464,207.5532,3058.7939,201.9233,3064.4237,201.3709,3054.93,198.75" style="stroke:#181818;stroke-width:1;"/><text fill="#000000" font-family="sans-serif" font-size="13" lengthAdjust="spacing" textLength="76.9082" x="3111.5" y="241.5669">implements</text></g><!--reverse link logic_arc_int__baselibs__task_result to comp_arc_sta__baselibs__concurrency--><g id="link_logic_arc_int__baselibs__task_result_comp_arc_sta__baselibs__concurrency"><path codeLine="43" d="M2555.2623,199.3106 C2450.9123,213.1806 2310.91,231.17 2182.5,245.5 C2061.61,258.99 1924.35,272.05 1822.7,281.29 " fill="transparent" id="logic_arc_int__baselibs__task_result-backto-comp_arc_sta__baselibs__concurrency" style="stroke:#181818;stroke-width:1;"/><polygon fill="#181818" points="2561.21,198.52,2551.7614,195.7407,2556.2536,199.1788,2552.8155,203.671,2561.21,198.52" style="stroke:#181818;stroke-width:1;"/><text fill="#000000" font-family="sans-serif" font-size="13" lengthAdjust="spacing" textLength="76.9082" x="2326.5" y="241.5669">implements</text></g><!--reverse link logic_arc_int__baselibs__bit_mask_operator to comp_arc_sta__baselibs__bit_manipulation--><g id="link_logic_arc_int__baselibs__bit_mask_operator_comp_arc_sta__baselibs__bit_manipulation"><path codeLine="44" d="M4038.6118,201.9296 C4004.5418,223.2196 3955.08,254.14 3921.09,275.38 " fill="transparent" id="logic_arc_int__baselibs__bit_mask_operator-backto-comp_arc_sta__baselibs__bit_manipulation" style="stroke:#181818;stroke-width:1;"/><polygon fill="#181818" points="4043.7,198.75,4033.9479,200.1272,4039.4598,201.3997,4038.1874,206.9115,4043.7,198.75" style="stroke:#181818;stroke-width:1;"/><text fill="#000000" font-family="sans-serif" font-size="13" lengthAdjust="spacing" textLength="76.9082" x="3995.5" y="241.5669">implements</text></g><!--link Feature_User to logic_arc_int__baselibs__bit_mask_operator--><g id="link_Feature_User_logic_arc_int__baselibs__bit_mask_operator"><path codeLine="45" d="M3076.65,50.26 C3222.3,68.83 3678.2382,126.971 3919.1282,157.691 " fill="transparent" id="Feature_User-to-logic_arc_int__baselibs__bit_mask_operator" style="stroke:#181818;stroke-width:1;"/><polygon fill="#181818" points="3925.08,158.45,3916.6583,153.3436,3920.1202,157.8175,3915.6463,161.2793,3925.08,158.45" style="stroke:#181818;stroke-width:1;"/><text fill="#000000" font-family="sans-serif" font-size="13" lengthAdjust="spacing" textLength="23.0103" x="3678.5" y="124.5669">use</text></g><!--reverse link logic_arc_int__baselibs__promise to comp_arc_sta__baselibs__concurrency--><g id="link_logic_arc_int__baselibs__promise_comp_arc_sta__baselibs__concurrency"><path codeLine="46" d="M1287.8667,199.9818 C1374.5067,221.2718 1508.11,254.11 1594.81,275.41 " fill="transparent" id="logic_arc_int__baselibs__promise-backto-comp_arc_sta__baselibs__concurrency" style="stroke:#181818;stroke-width:1;"/><polygon fill="#181818" points="1282.04,198.55,1289.8255,204.5821,1286.8956,199.7432,1291.7345,196.8132,1282.04,198.55" style="stroke:#181818;stroke-width:1;"/><text fill="#000000" font-family="sans-serif" font-size="13" lengthAdjust="spacing" textLength="76.9082" x="1468.5" y="241.5669">implements</text></g><!--reverse link logic_arc_int__baselibs__synchronized_queue to comp_arc_sta__baselibs__concurrency--><g id="link_logic_arc_int__baselibs__synchronized_queue_comp_arc_sta__baselibs__concurrency"><path codeLine="47" d="M676.4858,199.0295 C803.1658,212.6095 972.92,230.47 1127.5,245.5 C1260.94,258.48 1412.88,272.04 1522.37,281.59 " fill="transparent" id="logic_arc_int__baselibs__synchronized_queue-backto-comp_arc_sta__baselibs__concurrency" style="stroke:#181818;stroke-width:1;"/><polygon fill="#181818" points="670.52,198.39,679.0424,203.3265,675.4915,198.9229,679.8951,195.3721,670.52,198.39" style="stroke:#181818;stroke-width:1;"/><text fill="#000000" font-family="sans-serif" font-size="13" lengthAdjust="spacing" textLength="76.9082" x="1128.5" y="241.5669">implements</text></g><!--link Feature_User to logic_arc_int__baselibs__task--><g id="link_Feature_User_logic_arc_int__baselibs__task"><path codeLine="48" d="M2986.24,48.76 C2838.47,62.78 2356.77,109.43 1959.5,158.5 C1953.63,159.23 1953.5598,159.2156 1947.4898,160.0056 " fill="transparent" id="Feature_User-to-logic_arc_int__baselibs__task" style="stroke:#181818;stroke-width:1;"/><polygon fill="#181818" points="1941.54,160.78,1950.981,163.585,1946.4982,160.1347,1949.9485,155.6519,1941.54,160.78" style="stroke:#181818;stroke-width:1;"/><text fill="#000000" font-family="sans-serif" font-size="13" lengthAdjust="spacing" textLength="23.0103" x="2343.5" y="124.5669">use</text></g><!--reverse link logic_arc_int__baselibs__executor to comp_arc_sta__baselibs__concurrency--><g id="link_logic_arc_int__baselibs__executor_comp_arc_sta__baselibs__concurrency"><path codeLine="49" d="M2275.8554,199.5687 C2196.9354,213.0287 2094.22,230.29 1998.5,245.5 C1934.06,255.74 1862.37,266.58 1802.66,275.45 " fill="transparent" id="logic_arc_int__baselibs__executor-backto-comp_arc_sta__baselibs__concurrency" style="stroke:#181818;stroke-width:1;"/><polygon fill="#181818" points="2281.77,198.56,2272.2256,196.1301,2276.8412,199.4006,2273.5706,204.0162,2281.77,198.56" style="stroke:#181818;stroke-width:1;"/><text fill="#000000" font-family="sans-serif" font-size="13" lengthAdjust="spacing" textLength="76.9082" x="2097.5" y="241.5669">implements</text></g><!--link Feature_User to logic_arc_int__baselibs__task_result--><g id="link_Feature_User_logic_arc_int__baselibs__task_result"><path codeLine="50" d="M2986.31,62.71 C2923.99,87.83 2817.7852,130.6376 2754.3752,156.1876 " fill="transparent" id="Feature_User-to-logic_arc_int__baselibs__task_result" style="stroke:#181818;stroke-width:1;"/><polygon fill="#181818" points="2748.81,158.43,2758.6528,158.7765,2753.4477,156.5613,2755.6629,151.3562,2748.81,158.43" style="stroke:#181818;stroke-width:1;"/><text fill="#000000" font-family="sans-serif" font-size="13" lengthAdjust="spacing" textLength="23.0103" x="2858.5" y="124.5669">use</text></g><!--reverse link logic_arc_int__baselibs__filesystem to comp_arc_sta__baselibs__filesystem--><g id="link_logic_arc_int__baselibs__filesystem_comp_arc_sta__baselibs__filesystem"><path codeLine="51" d="M149.5,204.75 C149.5,225.98 149.5,253.94 149.5,275.19 " fill="transparent" id="logic_arc_int__baselibs__filesystem-backto-comp_arc_sta__baselibs__filesystem" style="stroke:#181818;stroke-width:1;"/><polygon fill="#181818" points="149.5,198.75,145.5,207.75,149.5,203.75,153.5,207.75,149.5,198.75" style="stroke:#181818;stroke-width:1;"/><text fill="#000000" font-family="sans-serif" font-size="13" lengthAdjust="spacing" textLength="76.9082" x="150.5" y="241.5669">implements</text></g><!--link Feature_User to logic_arc_int__baselibs__dynamic_array--><g id="link_Feature_User_logic_arc_int__baselibs__dynamic_array"><path codeLine="52" d="M3031.5,81.55 C3031.5,106.45 3031.5,132.26 3031.5,152.26 " fill="transparent" id="Feature_User-to-logic_arc_int__baselibs__dynamic_array" style="stroke:#181818;stroke-width:1;"/><polygon fill="#181818" points="3031.5,158.26,3035.5,149.26,3031.5,153.26,3027.5,149.26,3031.5,158.26" style="stroke:#181818;stroke-width:1;"/><text fill="#000000" font-family="sans-serif" font-size="13" lengthAdjust="spacing" textLength="23.0103" x="3032.5" y="124.5669">use</text></g><!--SRC=[hLPDSzGm3BtdLtXwty8m38TEfnTcE764iqTnr5rHVmHBBWqC_nqdsTBDik0avEX4Ljvxafu2rePlsj4J-NqbeLKIL1r4WbCDHJH2mLS7Qb2nOCGWNOlZ6LqhdGAHI7KIvEgMfRDuLrq3awtLZ-eZUNmVR8WgOZESFXt8F7XaLc-kNrS_gzjNnpiL6CbnLnyG94LKdndZbG9MnmUwVw2gQdBSDRixPSEUZ8PeD7dHkWP6IpLhdOGi3-TtRszKObHBRdFdpI46Jz-nqLyJ9ZpcCC6rmmKMEBtWq8NOQJv09gjswL_99x4tYbnhqQ4NNWJHPHrXZxe5vboz0hw8dAmKW8r1gn7bOqnCZwWjiImNlOt14PUK7WfR838j_aewOn8seSqz4DhbV6eIxS1JcopqWrGWPe8tAKRqfYlG6pj7twSUoPJVtv9_uU0BMVkGrMBTaqNkiacupLZco8PwtVGZH8BQpgHwBdlXCtzMQQK4b_1krCadJRWI73wXITbZbtVnSvSLx6zYHaK3FBEkEMMTtpYNvcA9zq-dQwbUpoQwqHG8yCDiWGJobesbdZhtwTKBQBB6bkeqsar9fNcCciw36rv5wBPkfxu25rVZfWQKlv5dFC8meoihSY7JHbtuUpLlA-sbtwoLtCSvsOZkYrl-1vfvJl2oE4kkTh9XLw8w6vC1roy0]--></g></svg>