<svg xmlns="http://www.w3.org/2000/svg" xmlns:xlink="http://www.w3.org/1999/xlink" contentStyleType="text/css" data-diagram-type="DESCRIPTION" height="62px" preserveAspectRatio="none" style="width:568px;height:62px;background:#FFFFFF;" version="1.1" viewBox="0 0 568 62" width="568px" zoomAndPan="magnify"><defs/><g><!--entity ModuleRepo--><g id="elem_ModuleRepo"><rect fill="#F1F1F1" height="32.2969" rx="2.5" ry="2.5" style="stroke:#181818;stroke-width:0.5;" width="114.4443" x="11" y="16.3608"/><rect fill="#F1F1F1" height="32.2969" rx="2.5" ry="2.5" style="stroke:#181818;stroke-width:0.5;" width="114.4443" x="7" y="12.3608"/><text fill="#000000" font-family="sans-serif" font-size="14" lengthAdjust="spacing" textLength="98.4443" x="15" y="33.3559">Module Repos</text></g><!--entity gh_pages--><g id="elem_gh_pages"><rect fill="#F1F1F1" height="32.2969" rx="2.5" ry="2.5" style="stroke:#181818;stroke-width:0.5;" width="156.4922" x="197" y="16.3608"/><rect fill="#F1F1F1" height="32.2969" rx="2.5" ry="2.5" style="stroke:#181818;stroke-width:0.5;" width="156.4922" x="193" y="12.3608"/><text fill="#000000" font-family="sans-serif" font-size="14" lengthAdjust="spacing" textLength="140.4922" x="201" y="33.3559">.gh_pages branches</text></g><!--entity GitHubPages--><g id="elem_GitHubPages"><path d="M444.4187,16.7729 C448.4307,10.7204 455.0776,9.8787 459.1813,16.6674 C461.452,10.4821 467.2697,7.6075 472.2486,13.8109 C475.7307,8.3718 481.308,7.94 484.977,13.5964 C490.1232,6.9138 495.0317,6 499.8293,13.9503 C503.3837,7.1813 509.3022,7.3776 513.2194,13.5756 C518.1411,8.9819 522.0557,9.2721 525.1577,15.5702 C530.2462,9.4648 534.7868,7.417 540.1389,15.2877 C545.469,9.7334 550.4006,10.8531 553.7521,17.4959 C560.1907,21.233 561.2011,26.8633 554.5413,31.3468 C560.5988,36.1558 560.5061,41.468 554.3227,46.0956 C550.6599,53.8591 543.6572,54.0961 539.679,46.3943 C535.7164,53.8545 531.6326,53.4951 526.6285,47.3968 C523.2607,54.0616 516.223,54.3729 511.8131,48.6424 C508.4113,54.46 504.1012,55.0563 499.2904,50.3132 C493.726,55.4263 489.1068,55.2895 485.387,48.2098 C481.4999,54.3689 476.3989,55.9165 471.7087,49.0534 C466.8914,55.9528 460.7115,54.8762 457.661,47.3347 C453.9281,53.1013 448.3053,54.0922 444.8049,47.1003 C434.557,44.9972 432.6782,39.2472 437.6069,30.5454 C433.1152,23.1532 435.706,17.6343 444.4187,16.7729 " fill="#F1F1F1" style="stroke:#181818;stroke-width:0.5;"/><text fill="#000000" font-family="sans-serif" font-size="14" lengthAdjust="spacing" textLength="94.7803" x="450.5" y="35.3559">GitHub Pages</text></g><!--link ModuleRepo to gh_pages--><g id="link_ModuleRepo_gh_pages"><path d="M125.04,30.3608 C146.07,30.3608 164.13,30.3608 186.64,30.3608 " fill="transparent" id="ModuleRepo-to-gh_pages" style="stroke:#181818;stroke-width:1;"/><polygon fill="#181818" points="192.64,30.3608,183.64,26.3608,187.64,30.3608,183.64,34.3608,192.64,30.3608" style="stroke:#181818;stroke-width:1;"/><text fill="#000000" font-family="sans-serif" font-size="13" lengthAdjust="spacing" textLength="31.9668" x="143.5" y="23.4277">build</text></g><!--link gh_pages to GitHubPages--><g id="link_gh_pages_GitHubPages"><path d="M353.28,30.3608 C380.29,30.3608 404,30.3608 429.44,30.3608 " fill="transparent" id="gh_pages-to-GitHubPages" style="stroke:#181818;stroke-width:1;"/><polygon fill="#181818" points="435.44,30.3608,426.44,26.3608,430.44,30.3608,426.44,34.3608,435.44,30.3608" style="stroke:#181818;stroke-width:1;"/><text fill="#000000" font-family="sans-serif" font-size="13" lengthAdjust="spacing" textLength="46.979" x="371.25" y="23.4277">publish</text></g><!--SRC=[JOn13i8m30JlVeNbEpo00rUu824-W1B7QY9PTKJg_qCQjVIuixFBfYgy59iRqiEIg-1BgZN2q720de6FuddAxnecQHW_OUOiGzyei9edf5jPxXxnsTag3B1cWFyvdgxx5Yz8qOicWXtzwiEo6zMZbfRf2m00]--></g></svg>