<svg xmlns="http://www.w3.org/2000/svg" xmlns:xlink="http://www.w3.org/1999/xlink" contentStyleType="text/css" data-diagram-type="CLASS" height="644px" preserveAspectRatio="none" style="width:458px;height:644px;background:#FFFFFF;" version="1.1" viewBox="0 0 458 644" width="458px" zoomAndPan="magnify"><defs/><g><!--cluster mod_view_sta__log__logging--><a href="../features/analysis-infra/logging/modules/logging/index.html#mod_view_sta__log__logging" target="_top" title="../features/analysis-infra/logging/modules/logging/index.html#mod_view_sta__log__logging" xlink:actuate="onRequest" xlink:href="../features/analysis-infra/logging/modules/logging/index.html#mod_view_sta__log__logging" xlink:show="new" xlink:title="../features/analysis-infra/logging/modules/logging/index.html#mod_view_sta__log__logging" xlink:type="simple"><path d="M36.5,261.5 L100.8691,261.5 A3.75,3.75 0 0 1 103.3691,264 L110.3691,283.7969 L379.5,283.7969 A2.5,2.5 0 0 1 382,286.2969 L382,356 A2.5,2.5 0 0 1 379.5,358.5 L36.5,358.5 A2.5,2.5 0 0 1 34,356 L34,264 A2.5,2.5 0 0 1 36.5,261.5 " fill="transparent" style="stroke:#000000;stroke-width:1.5;"/><line style="stroke:#000000;stroke-width:1.5;" x1="34" x2="110.3691" y1="283.7969" y2="283.7969"/><text fill="#000000" font-family="sans-serif" font-size="14" font-weight="bold" lengthAdjust="spacing" textLength="63.3691" x="38" y="276.4951">Logging</text></a><!--cluster mod_view_sta__osal__osal--><a href="../features/analysis-infra/logging/modules/osal/index.html#mod_view_sta__osal__osal" target="_top" title="../features/analysis-infra/logging/modules/osal/index.html#mod_view_sta__osal__osal" xlink:actuate="onRequest" xlink:href="../features/analysis-infra/logging/modules/osal/index.html#mod_view_sta__osal__osal" xlink:show="new" xlink:title="../features/analysis-infra/logging/modules/osal/index.html#mod_view_sta__osal__osal" xlink:type="simple"><path d="M8.5,540.5 L51.2402,540.5 A3.75,3.75 0 0 1 53.7402,543 L60.7402,562.7969 L113.5,562.7969 A2.5,2.5 0 0 1 116,565.2969 L116,635 A2.5,2.5 0 0 1 113.5,637.5 L8.5,637.5 A2.5,2.5 0 0 1 6,635 L6,543 A2.5,2.5 0 0 1 8.5,540.5 " fill="transparent" style="stroke:#000000;stroke-width:1.5;"/><line style="stroke:#000000;stroke-width:1.5;" x1="6" x2="60.7402" y1="562.7969" y2="562.7969"/><text fill="#000000" font-family="sans-serif" font-size="14" font-weight="bold" lengthAdjust="spacing" textLength="41.7402" x="10" y="555.4951">OSAL</text></a><!--cluster mod_view_sta__baselibs__baselibs--><a href="../features/communication/modules/baselibs/index.html#mod_view_sta__baselibs__baselibs" target="_top" title="../features/communication/modules/baselibs/index.html#mod_view_sta__baselibs__baselibs" xlink:actuate="onRequest" xlink:href="../features/communication/modules/baselibs/index.html#mod_view_sta__baselibs__baselibs" xlink:show="new" xlink:title="../features/communication/modules/baselibs/index.html#mod_view_sta__baselibs__baselibs" xlink:type="simple"><path d="M147.5,540.5 L214.3984,540.5 A3.75,3.75 0 0 1 216.8984,543 L223.8984,562.7969 L248.5,562.7969 A2.5,2.5 0 0 1 251,565.2969 L251,635 A2.5,2.5 0 0 1 248.5,637.5 L147.5,637.5 A2.5,2.5 0 0 1 145,635 L145,543 A2.5,2.5 0 0 1 147.5,540.5 " fill="transparent" style="stroke:#000000;stroke-width:1.5;"/><line style="stroke:#000000;stroke-width:1.5;" x1="145" x2="223.8984" y1="562.7969" y2="562.7969"/><text fill="#000000" font-family="sans-serif" font-size="14" font-weight="bold" lengthAdjust="spacing" textLength="65.8984" x="149" y="555.4951">Baselibs</text></a><!--cluster mod_view_sta__iam__iam--><a href="../features/analysis-infra/logging/modules/iam/index.html#mod_view_sta__iam__iam" target="_top" title="../features/analysis-infra/logging/modules/iam/index.html#mod_view_sta__iam__iam" xlink:actuate="onRequest" xlink:href="../features/analysis-infra/logging/modules/iam/index.html#mod_view_sta__iam__iam" xlink:show="new" xlink:title="../features/analysis-infra/logging/modules/iam/index.html#mod_view_sta__iam__iam" xlink:type="simple"><path d="M277.5,540.5 L394.8408,540.5 A3.75,3.75 0 0 1 397.3408,543 L404.3408,562.7969 L448.5,562.7969 A2.5,2.5 0 0 1 451,565.2969 L451,635 A2.5,2.5 0 0 1 448.5,637.5 L277.5,637.5 A2.5,2.5 0 0 1 275,635 L275,543 A2.5,2.5 0 0 1 277.5,540.5 " fill="transparent" style="stroke:#000000;stroke-width:1.5;"/><line style="stroke:#000000;stroke-width:1.5;" x1="275" x2="404.3408" y1="562.7969" y2="562.7969"/><text fill="#000000" font-family="sans-serif" font-size="14" font-weight="bold" lengthAdjust="spacing" textLength="116.3408" x="279" y="555.4951">Access Control</text></a><!--entity comp_arc_sta__log__logging--><a href="../features/analysis-infra/logging/modules/logging/index.html#comp_arc_sta__log__logging" target="_top" title="../features/analysis-infra/logging/modules/logging/index.html#comp_arc_sta__log__logging" xlink:actuate="onRequest" xlink:href="../features/analysis-infra/logging/modules/logging/index.html#comp_arc_sta__log__logging" xlink:show="new" xlink:title="../features/analysis-infra/logging/modules/logging/index.html#comp_arc_sta__log__logging" xlink:type="simple"><rect fill="#F1F1F1" height="46.2969" rx="2.5" ry="2.5" style="stroke:#0000FF;stroke-width:2;" width="122.3867" x="50" y="296.5"/><rect fill="#F1F1F1" height="10" style="stroke:#0000FF;stroke-width:2;" width="15" x="152.3867" y="301.5"/><rect fill="#F1F1F1" height="2" style="stroke:#0000FF;stroke-width:2;" width="4" x="150.3867" y="303.5"/><rect fill="#F1F1F1" height="2" style="stroke:#0000FF;stroke-width:2;" width="4" x="150.3867" y="307.5"/><text fill="#000000" font-family="sans-serif" font-size="14" lengthAdjust="spacing" textLength="82.3867" x="65" y="329.4951">Logging API</text></a><!--entity comp_arc_sta__log__daemon--><a href="../features/analysis-infra/logging/modules/logging/index.html#comp_arc_sta__log__daemon" target="_top" title="../features/analysis-infra/logging/modules/logging/index.html#comp_arc_sta__log__daemon" xlink:actuate="onRequest" xlink:href="../features/analysis-infra/logging/modules/logging/index.html#comp_arc_sta__log__daemon" xlink:show="new" xlink:title="../features/analysis-infra/logging/modules/logging/index.html#comp_arc_sta__log__daemon" xlink:type="simple"><rect fill="#F1F1F1" height="46.2969" rx="2.5" ry="2.5" style="stroke:#0000FF;stroke-width:2;" width="159.2871" x="207.5" y="296.5"/><rect fill="#F1F1F1" height="10" style="stroke:#0000FF;stroke-width:2;" width="15" x="346.7871" y="301.5"/><rect fill="#F1F1F1" height="2" style="stroke:#0000FF;stroke-width:2;" width="4" x="344.7871" y="303.5"/><rect fill="#F1F1F1" height="2" style="stroke:#0000FF;stroke-width:2;" width="4" x="344.7871" y="307.5"/><text fill="#000000" font-family="sans-serif" font-size="14" lengthAdjust="spacing" textLength="119.2871" x="222.5" y="329.4951">Logging Daemon</text></a><!--entity comp_arc_sta__osal__osal--><a href="../features/analysis-infra/logging/modules/osal/index.html#comp_arc_sta__osal__osal" target="_top" title="../features/analysis-infra/logging/modules/osal/index.html#comp_arc_sta__osal__osal" xlink:actuate="onRequest" xlink:href="../features/analysis-infra/logging/modules/osal/index.html#comp_arc_sta__osal__osal" xlink:show="new" xlink:title="../features/analysis-infra/logging/modules/osal/index.html#comp_arc_sta__osal__osal" xlink:type="simple"><rect fill="#F1F1F1" height="46.2969" rx="2.5" ry="2.5" style="stroke:#0000FF;stroke-width:2;" width="77.2832" x="22.5" y="575.5"/><rect fill="#F1F1F1" height="10" style="stroke:#0000FF;stroke-width:2;" width="15" x="79.7832" y="580.5"/><rect fill="#F1F1F1" height="2" style="stroke:#0000FF;stroke-width:2;" width="4" x="77.7832" y="582.5"/><rect fill="#F1F1F1" height="2" style="stroke:#0000FF;stroke-width:2;" width="4" x="77.7832" y="586.5"/><text fill="#000000" font-family="sans-serif" font-size="14" lengthAdjust="spacing" textLength="37.2832" x="37.5" y="608.4951">OSAL</text></a><!--entity comp_arc_sta__baselibs__json--><a href="../features/communication/modules/baselibs/json_component_architecture.html#comp_arc_sta__baselibs__json" target="_top" title="../features/communication/modules/baselibs/json_component_architecture.html#comp_arc_sta__baselibs__json" xlink:actuate="onRequest" xlink:href="../features/communication/modules/baselibs/json_component_architecture.html#comp_arc_sta__baselibs__json" xlink:show="new" xlink:title="../features/communication/modules/baselibs/json_component_architecture.html#comp_arc_sta__baselibs__json" xlink:type="simple"><rect fill="#F1F1F1" height="46.2969" rx="2.5" ry="2.5" style="stroke:#0000FF;stroke-width:2;" width="74.5078" x="160.5" y="575.5"/><rect fill="#F1F1F1" height="10" style="stroke:#0000FF;stroke-width:2;" width="15" x="215.0078" y="580.5"/><rect fill="#F1F1F1" height="2" style="stroke:#0000FF;stroke-width:2;" width="4" x="213.0078" y="582.5"/><rect fill="#F1F1F1" height="2" style="stroke:#0000FF;stroke-width:2;" width="4" x="213.0078" y="586.5"/><text fill="#000000" font-family="sans-serif" font-size="14" lengthAdjust="spacing" textLength="34.5078" x="175.5" y="608.4951">JSON</text></a><!--entity comp_arc_sta__iam__iam--><a href="../features/analysis-infra/logging/modules/iam/index.html#comp_arc_sta__iam__iam" target="_top" title="../features/analysis-infra/logging/modules/iam/index.html#comp_arc_sta__iam__iam" xlink:actuate="onRequest" xlink:href="../features/analysis-infra/logging/modules/iam/index.html#comp_arc_sta__iam__iam" xlink:show="new" xlink:title="../features/analysis-infra/logging/modules/iam/index.html#comp_arc_sta__iam__iam" xlink:type="simple"><rect fill="#F1F1F1" height="46.2969" rx="2.5" ry="2.5" style="stroke:#0000FF;stroke-width:2;" width="143.5371" x="291" y="575.5"/><rect fill="#F1F1F1" height="10" style="stroke:#0000FF;stroke-width:2;" width="15" x="414.5371" y="580.5"/><rect fill="#F1F1F1" height="2" style="stroke:#0000FF;stroke-width:2;" width="4" x="412.5371" y="582.5"/><rect fill="#F1F1F1" height="2" style="stroke:#0000FF;stroke-width:2;" width="4" x="412.5371" y="586.5"/><text fill="#000000" font-family="sans-serif" font-size="14" lengthAdjust="spacing" textLength="103.5371" x="306" y="608.4951">Access Control</text></a><!--entity Feature_User--><g id="elem_Feature_User"><ellipse cx="111.1685" cy="14" fill="#F1F1F1" rx="8" ry="8" style="stroke:#181818;stroke-width:0.5;"/><path d="M111.1685,22 L111.1685,49 M98.1685,30 L124.1685,30 M111.1685,49 L98.1685,64 M111.1685,49 L124.1685,64 " fill="transparent" style="stroke:#181818;stroke-width:0.5;"/><text fill="#000000" font-family="sans-serif" font-size="14" lengthAdjust="spacing" textLength="90.3369" x="66" y="78.4951">Feature User</text></g><!--class logic_arc_int__log__daemon--><a href="../features/analysis-infra/logging/modules/logging/index.html#logic_arc_int__log__daemon" target="_top" title="../features/analysis-infra/logging/modules/logging/index.html#logic_arc_int__log__daemon" xlink:actuate="onRequest" xlink:href="../features/analysis-infra/logging/modules/logging/index.html#logic_arc_int__log__daemon" xlink:show="new" xlink:title="../features/analysis-infra/logging/modules/logging/index.html#logic_arc_int__log__daemon" xlink:type="simple"><g id="elem_logic_arc_int__log__daemon"><rect codeLine="14" fill="#F1F1F1" height="40" id="logic_arc_int__log__daemon" rx="2.5" ry="2.5" style="stroke:#181818;stroke-width:0.5;" width="151.2871" x="211.5" y="158.5"/><ellipse cx="226.5" cy="174.5" fill="#B4A7E5" rx="11" ry="11" style="stroke:#181818;stroke-width:1;"/><path d="M222.4219,170.2656 L222.4219,168.1094 L229.8125,168.1094 L229.8125,170.2656 L227.3438,170.2656 L227.3438,178.3438 L229.8125,178.3438 L229.8125,180.5 L222.4219,180.5 L222.4219,178.3438 L224.8906,178.3438 L224.8906,170.2656 L222.4219,170.2656 Z " fill="#000000"/><text fill="#000000" font-family="sans-serif" font-size="14" font-style="italic" lengthAdjust="spacing" textLength="119.2871" x="240.5" y="179.3467">Logging Daemon</text><line style="stroke:#181818;stroke-width:0.5;" x1="212.5" x2="361.7871" y1="190.5" y2="190.5"/></g></a><!--class logic_arc_int__log__logging--><a href="../features/analysis-infra/logging/modules/logging/index.html#logic_arc_int__log__logging" target="_top" title="../features/analysis-infra/logging/modules/logging/index.html#logic_arc_int__log__logging" xlink:actuate="onRequest" xlink:href="../features/analysis-infra/logging/modules/logging/index.html#logic_arc_int__log__logging" xlink:show="new" xlink:title="../features/analysis-infra/logging/modules/logging/index.html#logic_arc_int__log__logging" xlink:type="simple"><g id="elem_logic_arc_int__log__logging"><rect codeLine="19" fill="#F1F1F1" height="40" id="logic_arc_int__log__logging" rx="2.5" ry="2.5" style="stroke:#181818;stroke-width:0.5;" width="87.7881" x="67" y="158.5"/><ellipse cx="82" cy="174.5" fill="#B4A7E5" rx="11" ry="11" style="stroke:#181818;stroke-width:1;"/><path d="M77.9219,170.2656 L77.9219,168.1094 L85.3125,168.1094 L85.3125,170.2656 L82.8438,170.2656 L82.8438,178.3438 L85.3125,178.3438 L85.3125,180.5 L77.9219,180.5 L77.9219,178.3438 L80.3906,178.3438 L80.3906,170.2656 L77.9219,170.2656 Z " fill="#000000"/><text fill="#000000" font-family="sans-serif" font-size="14" font-style="italic" lengthAdjust="spacing" textLength="55.7881" x="96" y="179.3467">Logging</text><line style="stroke:#181818;stroke-width:0.5;" x1="68" x2="153.7881" y1="190.5" y2="190.5"/></g></a><!--class logic_arc_int__osal__osal--><a href="../features/analysis-infra/logging/modules/osal/index.html#logic_arc_int__osal__osal" target="_top" title="../features/analysis-infra/logging/modules/osal/index.html#logic_arc_int__osal__osal" xlink:actuate="onRequest" xlink:href="../features/analysis-infra/logging/modules/osal/index.html#logic_arc_int__osal__osal" xlink:show="new" xlink:title="../features/analysis-infra/logging/modules/osal/index.html#logic_arc_int__osal__osal" xlink:type="simple"><g id="elem_logic_arc_int__osal__osal"><rect codeLine="39" fill="#F1F1F1" height="56.2969" id="logic_arc_int__osal__osal" rx="2.5" ry="2.5" style="stroke:#181818;stroke-width:0.5;" width="78.6572" x="21.5" y="421.5"/><ellipse cx="40.7183" cy="437.5" fill="#B4A7E5" rx="11" ry="11" style="stroke:#181818;stroke-width:1;"/><path d="M36.6402,433.2656 L36.6402,431.1094 L44.0308,431.1094 L44.0308,433.2656 L41.5621,433.2656 L41.5621,441.3438 L44.0308,441.3438 L44.0308,443.5 L36.6402,443.5 L36.6402,441.3438 L39.1089,441.3438 L39.1089,433.2656 L36.6402,433.2656 Z " fill="#000000"/><text fill="#000000" font-family="sans-serif" font-size="14" font-style="italic" lengthAdjust="spacing" textLength="37.2832" x="55.6557" y="442.3467">OSAL</text><line style="stroke:#181818;stroke-width:0.5;" x1="22.5" x2="99.1572" y1="453.5" y2="453.5"/></g><a href="../features/analysis-infra/logging/modules/osal/index.html#logic_arc_int_op__osal__isenabled" target="_top" title="../features/analysis-infra/logging/modules/osal/index.html#logic_arc_int_op__osal__isenabled" xlink:actuate="onRequest" xlink:href="../features/analysis-infra/logging/modules/osal/index.html#logic_arc_int_op__osal__isenabled" xlink:show="new" xlink:title="../features/analysis-infra/logging/modules/osal/index.html#logic_arc_int_op__osal__isenabled" xlink:type="simple"><rect fill="#F1F1F1" height="10" style="stroke:transparent;stroke-width:1;" width="20" x="27.5" y="462.1484"/><ellipse cx="32.5" cy="467.1484" fill="#84BE84" rx="3" ry="3" style="stroke:#038048;stroke-width:1;"/></a></a><a href="../features/analysis-infra/logging/modules/osal/index.html#logic_arc_int_op__osal__isenabled" target="_top" title="../features/analysis-infra/logging/modules/osal/index.html#logic_arc_int_op__osal__isenabled" xlink:actuate="onRequest" xlink:href="../features/analysis-infra/logging/modules/osal/index.html#logic_arc_int_op__osal__isenabled" xlink:show="new" xlink:title="../features/analysis-infra/logging/modules/osal/index.html#logic_arc_int_op__osal__isenabled" xlink:type="simple"><text fill="#000000" font-family="sans-serif" font-size="14" lengthAdjust="spacing" textLength="52.6572" x="41.5" y="470.4951">OSAL ()</text></a><!--class logic_arc_int__baselibs__json--><a href="../features/communication/modules/baselibs/json_component_architecture.html#logic_arc_int__baselibs__json" target="_top" title="../features/communication/modules/baselibs/json_component_architecture.html#logic_arc_int__baselibs__json" xlink:actuate="onRequest" xlink:href="../features/communication/modules/baselibs/json_component_architecture.html#logic_arc_int__baselibs__json" xlink:show="new" xlink:title="../features/communication/modules/baselibs/json_component_architecture.html#logic_arc_int__baselibs__json" xlink:type="simple"><g id="elem_logic_arc_int__baselibs__json"><rect codeLine="51" fill="#F1F1F1" height="56.2969" id="logic_arc_int__baselibs__json" rx="2.5" ry="2.5" style="stroke:#181818;stroke-width:0.5;" width="115.3984" x="142.5" y="421.5"/><ellipse cx="157.5" cy="437.5" fill="#B4A7E5" rx="11" ry="11" style="stroke:#181818;stroke-width:1;"/><path d="M153.4219,433.2656 L153.4219,431.1094 L160.8125,431.1094 L160.8125,433.2656 L158.3438,433.2656 L158.3438,441.3438 L160.8125,441.3438 L160.8125,443.5 L153.4219,443.5 L153.4219,441.3438 L155.8906,441.3438 L155.8906,433.2656 L153.4219,433.2656 Z " fill="#000000"/><text fill="#000000" font-family="sans-serif" font-size="14" font-style="italic" lengthAdjust="spacing" textLength="83.3984" x="171.5" y="442.3467">JSON Parser</text><line style="stroke:#181818;stroke-width:0.5;" x1="143.5" x2="256.8984" y1="453.5" y2="453.5"/></g><a href="../features/communication/modules/baselibs/json_component_architecture.html#logic_arc_int_op__baselibs__fromfile" target="_top" title="../features/communication/modules/baselibs/json_component_architecture.html#logic_arc_int_op__baselibs__fromfile" xlink:actuate="onRequest" xlink:href="../features/communication/modules/baselibs/json_component_architecture.html#logic_arc_int_op__baselibs__fromfile" xlink:show="new" xlink:title="../features/communication/modules/baselibs/json_component_architecture.html#logic_arc_int_op__baselibs__fromfile" xlink:type="simple"><rect fill="#F1F1F1" height="10" style="stroke:transparent;stroke-width:1;" width="20" x="148.5" y="462.1484"/><ellipse cx="153.5" cy="467.1484" fill="#84BE84" rx="3" ry="3" style="stroke:#038048;stroke-width:1;"/></a></a><a href="../features/communication/modules/baselibs/json_component_architecture.html#logic_arc_int_op__baselibs__fromfile" target="_top" title="../features/communication/modules/baselibs/json_component_architecture.html#logic_arc_int_op__baselibs__fromfile" xlink:actuate="onRequest" xlink:href="../features/communication/modules/baselibs/json_component_architecture.html#logic_arc_int_op__baselibs__fromfile" xlink:show="new" xlink:title="../features/communication/modules/baselibs/json_component_architecture.html#logic_arc_int_op__baselibs__fromfile" xlink:type="simple"><text fill="#000000" font-family="sans-serif" font-size="14" lengthAdjust="spacing" textLength="54.0586" x="162.5" y="470.4951">Parse ()</text></a><!--class logic_arc_int__iam__iam--><a href="../features/analysis-infra/logging/modules/iam/index.html#logic_arc_int__iam__iam" target="_top" title="../features/analysis-infra/logging/modules/iam/index.html#logic_arc_int__iam__iam" xlink:actuate="onRequest" xlink:href="../features/analysis-infra/logging/modules/iam/index.html#logic_arc_int__iam__iam" xlink:show="new" xlink:title="../features/analysis-infra/logging/modules/iam/index.html#logic_arc_int__iam__iam" xlink:type="simple"><g id="elem_logic_arc_int__iam__iam"><rect codeLine="63" fill="#F1F1F1" height="40" id="logic_arc_int__iam__iam" rx="2.5" ry="2.5" style="stroke:#181818;stroke-width:0.5;" width="135.5371" x="294" y="429.5"/><ellipse cx="309" cy="445.5" fill="#B4A7E5" rx="11" ry="11" style="stroke:#181818;stroke-width:1;"/><path d="M304.9219,441.2656 L304.9219,439.1094 L312.3125,439.1094 L312.3125,441.2656 L309.8438,441.2656 L309.8438,449.3438 L312.3125,449.3438 L312.3125,451.5 L304.9219,451.5 L304.9219,449.3438 L307.3906,449.3438 L307.3906,441.2656 L304.9219,441.2656 Z " fill="#000000"/><text fill="#000000" font-family="sans-serif" font-size="14" font-style="italic" lengthAdjust="spacing" textLength="103.5371" x="323" y="450.3467">Access Control</text><line style="stroke:#181818;stroke-width:0.5;" x1="295" x2="428.5371" y1="461.5" y2="461.5"/></g></a><!--link comp_arc_sta__log__logging to logic_arc_int__osal__osal--><g id="link_comp_arc_sta__log__logging_logic_arc_int__osal__osal"><path codeLine="68" d="M80.1,342.74 C70.51,351.44 61.13,362.28 56,374.5 C49.87,389.1 49.7239,400.8555 52.3239,415.2555 " fill="transparent" id="comp_arc_sta__log__logging-to-logic_arc_int__osal__osal" style="stroke:#008000;stroke-width:1;"/><polygon fill="#008000" points="53.39,421.16,55.7272,411.5925,52.5016,416.2396,47.8545,413.0139,53.39,421.16" style="stroke:#008000;stroke-width:1;"/><text fill="#000000" font-family="sans-serif" font-size="13" lengthAdjust="spacing" textLength="29.7832" x="57" y="387.5669">uses</text></g><!--link Feature_User to logic_arc_int__log__logging--><g id="link_Feature_User_logic_arc_int__log__logging"><path codeLine="70" d="M111,81.55 C111,106.45 111,132.26 111,152.26 " fill="transparent" id="Feature_User-to-logic_arc_int__log__logging" style="stroke:#181818;stroke-width:1;"/><polygon fill="#181818" points="111,158.26,115,149.26,111,153.26,107,149.26,111,158.26" style="stroke:#181818;stroke-width:1;"/><text fill="#000000" font-family="sans-serif" font-size="13" lengthAdjust="spacing" textLength="23.0103" x="112" y="124.5669">use</text></g><!--reverse link logic_arc_int__baselibs__json to comp_arc_sta__baselibs__json--><g id="link_logic_arc_int__baselibs__json_comp_arc_sta__baselibs__json"><path codeLine="71" d="M199.5488,483.8094 C199.1688,511.8694 198.66,549.04 198.3,575.15 " fill="transparent" id="logic_arc_int__baselibs__json-backto-comp_arc_sta__baselibs__json" style="stroke:#181818;stroke-width:1;"/><polygon fill="#181818" points="199.63,477.81,195.5085,486.755,199.5623,482.8095,203.5078,486.8633,199.63,477.81" style="stroke:#181818;stroke-width:1;"/><text fill="#000000" font-family="sans-serif" font-size="13" lengthAdjust="spacing" textLength="76.9082" x="200" y="520.5669">implements</text></g><!--reverse link logic_arc_int__osal__osal to comp_arc_sta__osal__osal--><g id="link_logic_arc_int__osal__osal_comp_arc_sta__osal__osal"><path codeLine="72" d="M61,483.81 C61,511.87 61,549.04 61,575.15 " fill="transparent" id="logic_arc_int__osal__osal-backto-comp_arc_sta__osal__osal" style="stroke:#181818;stroke-width:1;"/><polygon fill="#181818" points="61,477.81,57,486.81,61,482.81,65,486.81,61,477.81" style="stroke:#181818;stroke-width:1;"/><text fill="#000000" font-family="sans-serif" font-size="13" lengthAdjust="spacing" textLength="76.9082" x="62" y="520.5669">implements</text></g><!--link comp_arc_sta__log__logging to logic_arc_int__baselibs__json--><g id="link_comp_arc_sta__log__logging_logic_arc_int__baselibs__json"><path codeLine="73" d="M134.62,342.64 C143.82,351.95 154.03,363.24 162,374.5 C172.34,389.12 179.0371,401.5055 185.8171,415.9955 " fill="transparent" id="comp_arc_sta__log__logging-to-logic_arc_int__baselibs__json" style="stroke:#008000;stroke-width:1;"/><polygon fill="#008000" points="188.36,421.43,188.1687,411.583,186.241,416.9012,180.9227,414.9735,188.36,421.43" style="stroke:#008000;stroke-width:1;"/><text fill="#000000" font-family="sans-serif" font-size="13" lengthAdjust="spacing" textLength="29.7832" x="172" y="387.5669">uses</text></g><!--link comp_arc_sta__log__daemon to logic_arc_int__osal__osal--><g id="link_comp_arc_sta__log__daemon_logic_arc_int__osal__osal"><path codeLine="74" d="M248.03,342.54 C230.75,351.36 209.88,360.77 190,366.5 C161.19,374.81 149.37,360.22 123,374.5 C103.25,385.19 90.4935,399.9513 79.6635,416.3713 " fill="transparent" id="comp_arc_sta__log__daemon-to-logic_arc_int__osal__osal" style="stroke:#008000;stroke-width:1;"/><polygon fill="#008000" points="76.36,421.38,84.6544,416.0693,79.1129,417.2061,77.9762,411.6647,76.36,421.38" style="stroke:#008000;stroke-width:1;"/><text fill="#000000" font-family="sans-serif" font-size="13" lengthAdjust="spacing" textLength="29.7832" x="124" y="387.5669">uses</text></g><!--reverse link logic_arc_int__iam__iam to comp_arc_sta__iam__iam--><g id="link_logic_arc_int__iam__iam_comp_arc_sta__iam__iam"><path codeLine="75" d="M362.1718,475.7199 C362.3618,502.9599 362.65,546.67 362.85,575.4 " fill="transparent" id="logic_arc_int__iam__iam-backto-comp_arc_sta__iam__iam" style="stroke:#181818;stroke-width:1;"/><polygon fill="#181818" points="362.13,469.72,358.1929,478.7477,362.1649,474.7199,366.1927,478.6919,362.13,469.72" style="stroke:#181818;stroke-width:1;"/><text fill="#000000" font-family="sans-serif" font-size="13" lengthAdjust="spacing" textLength="76.9082" x="363" y="520.5669">implements</text></g><!--link comp_arc_sta__log__daemon to logic_arc_int__iam__iam--><g id="link_comp_arc_sta__log__daemon_logic_arc_int__iam__iam"><path codeLine="76" d="M299.89,342.5 C314.22,366.95 334.0882,400.8523 347.7082,424.1123 " fill="transparent" id="comp_arc_sta__log__daemon-to-logic_arc_int__iam__iam" style="stroke:#008000;stroke-width:1;"/><polygon fill="#008000" points="350.74,429.29,349.6441,419.5023,348.2135,424.9753,342.7405,423.5447,350.74,429.29" style="stroke:#008000;stroke-width:1;"/><text fill="#000000" font-family="sans-serif" font-size="13" lengthAdjust="spacing" textLength="29.7832" x="327" y="387.5669">uses</text></g><!--reverse link logic_arc_int__log__daemon to comp_arc_sta__log__daemon--><g id="link_logic_arc_int__log__daemon_comp_arc_sta__log__daemon"><path codeLine="77" d="M287,204.54 C287,230.11 287,269.47 287,296.49 " fill="transparent" id="logic_arc_int__log__daemon-backto-comp_arc_sta__log__daemon" style="stroke:#181818;stroke-width:1;"/><polygon fill="#181818" points="287,198.54,283,207.54,287,203.54,291,207.54,287,198.54" style="stroke:#181818;stroke-width:1;"/><text fill="#000000" font-family="sans-serif" font-size="13" lengthAdjust="spacing" textLength="76.9082" x="288" y="241.5669">implements</text></g><!--reverse link logic_arc_int__log__logging to comp_arc_sta__log__logging--><g id="link_logic_arc_int__log__logging_comp_arc_sta__log__logging"><path codeLine="78" d="M111,204.54 C111,230.11 111,269.47 111,296.49 " fill="transparent" id="logic_arc_int__log__logging-backto-comp_arc_sta__log__logging" style="stroke:#181818;stroke-width:1;"/><polygon fill="#181818" points="111,198.54,107,207.54,111,203.54,115,207.54,111,198.54" style="stroke:#181818;stroke-width:1;"/><text fill="#000000" font-family="sans-serif" font-size="13" lengthAdjust="spacing" textLength="76.9082" x="112" y="241.5669">implements</text></g><!--SRC=[jPPTRvim58Rl_IkizAARfeHfbrKKAUiqQLEqLkfs5I5au8HuDJR2PcqqzR_FG003TZwwz2QAiSzxddDuZKqO4qz1IfyfJv0I6LO2Xq8faUAOvX0fAZZQqXYmL923KBiCwZ6acTfXebHEmqA1H7EfTWmMQ4OaPI7-YrQKmwrW8iSXAw0Q_jpIw963bFZJx2DwGNDl7uH8fFJ2oLSWgiW1_vAGJp2HUFyWA1zWHBccs908y6GbaaH3uoy4Ki6hjKmaD0f87WLwNH3eOH34rJJ6w_LivcrgCUaHJjXEKZcbV9CJZzLQNYhYWkdfPanv3C-phKhPbLlRztMj2BrWxnhteV2rXv65sGcxp_isjFjbDjoACoFH8qa6b3f7y8V2Ko0LkJIaMripQiX8f9dWm5NtifVttogiSgegRumrdrV-Mop-cy-TfERhjL2JrMsqK1iMjMZk7VgctArJXzYcKGzOukvXkRBuGKZ2wjyptL26kAtGoOwCq8BqYpH0Njd78P5Bt-XXoM9qhXiQExxb7Up8YtNEgLllymyrrhltEilbqeYioKGbS18oY7tV7_MXjSzd8e7HK5ei5Ewdkd_3XkWtaHQSHgGyYrh0PhNRHMFbaPk-FzpziBYfY_mj3-pC8s1bRD0cAzMtLEaJLSVQBDPFQjYiX3HirlHoPBLgtJt9cvDpu8n1KHUkvM2oneeLdCMBbqrUchFBlyb5kg4CEdyQVHhOT1b5vTNaLd2L2sOnAoLfzNFcdjKHRfiscYDpMcZwZcbfNld96s3PnGqZze4CIzec36DQ2XdOvJ9zTOYQ5nuRwO6xn3HUNoKv0FUd2_SN_0ON4gHMwjrLf_4unXIleZ0w-EMP5cED_f8RJDECGQeT8uTYnXbZ4p8BS8kSt8yXLzqJzttdlDuwd6-hgvayMjK989tMqN8An-kkvqzlSN7CDgRGFm00]--></g></svg>