<svg xmlns="http://www.w3.org/2000/svg" xmlns:xlink="http://www.w3.org/1999/xlink" contentStyleType="text/css" data-diagram-type="SEQUENCE" height="158px" preserveAspectRatio="none" style="width:166px;height:158px;background:#FFFFFF;" version="1.1" viewBox="0 0 166 158" width="166px" zoomAndPan="magnify"><defs/><g><g><title>server</title><rect fill="#FF0000" height="29.1328" style="stroke:#00FF00;stroke-width:1;" width="10" x="126.2612" y="75.5781"/></g><g><title>client</title><rect fill="transparent" height="86.4141" width="8" x="27.2261" y="36.2969"/><line style="stroke:#00FF00;stroke-width:0.5;stroke-dasharray:5.0,5.0;" x1="31" x2="31" y1="36.2969" y2="122.7109"/></g><g><title>server</title><rect fill="transparent" height="86.4141" width="8" x="127.2612" y="36.2969"/><line style="stroke:#00FF00;stroke-width:0.5;stroke-dasharray:5.0,5.0;" x1="131.1025" x2="131.1025" y1="36.2969" y2="122.7109"/></g><rect fill="#E2E2F0" height="30.2969" rx="2.5" ry="2.5" style="stroke:#181818;stroke-width:0.5;" width="52.4521" x="5" y="5"/><text fill="#000000" font-family="sans-serif" font-size="14" lengthAdjust="spacing" textLength="38.4521" x="12" y="24.9951">client</text><rect fill="#E2E2F0" height="30.2969" rx="2.5" ry="2.5" style="stroke:#181818;stroke-width:0.5;" width="52.4521" x="5" y="121.7109"/><text fill="#000000" font-family="sans-serif" font-size="14" lengthAdjust="spacing" textLength="38.4521" x="12" y="141.7061">client</text><rect fill="#E2E2F0" height="30.2969" rx="2.5" ry="2.5" style="stroke:#181818;stroke-width:0.5;" width="58.3174" x="102.1025" y="5"/><text fill="#000000" font-family="sans-serif" font-size="14" lengthAdjust="spacing" textLength="44.3174" x="109.1025" y="24.9951">server</text><rect fill="#E2E2F0" height="30.2969" rx="2.5" ry="2.5" style="stroke:#181818;stroke-width:0.5;" width="58.3174" x="102.1025" y="121.7109"/><text fill="#000000" font-family="sans-serif" font-size="14" lengthAdjust="spacing" textLength="44.3174" x="109.1025" y="141.7061">server</text><g><title>server</title><rect fill="#FF0000" height="29.1328" style="stroke:#00FF00;stroke-width:1;" width="10" x="126.2612" y="75.5781"/></g><polygon fill="#181818" points="114.2612,71.5781,124.2612,75.5781,114.2612,79.5781,118.2612,75.5781" style="stroke:#181818;stroke-width:1;"/><line style="stroke:#181818;stroke-width:1;" x1="31.2261" x2="120.2612" y1="75.5781" y2="75.5781"/><text fill="#000000" font-family="sans-serif" font-size="20" font-weight="bold" lengthAdjust="spacing" textLength="76.0352" x="38.2261" y="68.8613">Hello()</text><polygon fill="#181818" points="42.2261,100.7109,32.2261,104.7109,42.2261,108.7109,38.2261,104.7109" style="stroke:#181818;stroke-width:1;"/><line style="stroke:#181818;stroke-width:1;stroke-dasharray:2.0,2.0;" x1="36.2261" x2="130.2612" y1="104.7109" y2="104.7109"/><text fill="#000000" font-family="sans-serif" font-size="13" lengthAdjust="spacing" textLength="31.0718" x="48.2261" y="99.645">Date</text><!--SRC=[VSkn3i8W58NXtQSuYOkc8H97Knd4D0vkF06bjuQKGhrj7Nnw8MuE3ZTt-By3O1vyd2pR4OQUAqL7Tz_dYtInRdXmMcEdKqWCfcw3luF47V4NRwLi6YdB8EF5Ep_PkC05J_dP6VetpSGluf9CIHf2mLGLJa3TghfFnVWtdOzItIY4jDlNXrOLQo0ora9aVBKBVG00]--></g></svg>